<?xml version="1.0" encoding="UTF-8" standalone="no"?>
<svg xmlns="http://www.w3.org/2000/svg" height="482" width="412">
 <path d="m6.04 6.04h399.96v264.98c0 99.99-77.49 204.98-199.98 204.98-122.49 0-199.98-104.99-199.98-204.98v-264.98" fill="#fff"/>
 <g stroke="#000" stroke-linejoin="round" stroke-linecap="round">
  <path d="m6.04 6.04l398.96 73.46-400 72.5 400 72.5-396.34 71.837.552 1.477 370.79 71.69-302.75 58.53c-39.862-33.21-61.45-81.38-70.25-131.03l-2-290" fill="#0f47af" fill-rule="evenodd" stroke-width="3"/>
  <path d="m6.04 6.04h399.96v264.98c0 99.99-77.49 204.98-199.98 204.98-122.49 0-199.98-104.99-199.98-204.98v-264.98" fill="none" stroke-width="6"/>
 </g>
</svg>
