<?xml version="1.0" encoding="UTF-8" standalone="no"?>
<!-- Created with Inkscape (http://www.inkscape.org/) -->

<svg
   xmlns:dc="http://purl.org/dc/elements/1.1/"
   xmlns:cc="http://creativecommons.org/ns#"
   xmlns:rdf="http://www.w3.org/1999/02/22-rdf-syntax-ns#"
   xmlns:svg="http://www.w3.org/2000/svg"
   xmlns="http://www.w3.org/2000/svg"
   xmlns:sodipodi="http://sodipodi.sourceforge.net/DTD/sodipodi-0.dtd"
   xmlns:inkscape="http://www.inkscape.org/namespaces/inkscape"
   width="197.93207mm"
   height="209.34358mm"
   viewBox="0 0 701.3341 741.76859"
   id="svg9234"
   version="1.1"
   inkscape:version="0.91 r13725"
   sodipodi:docname="DEU Albbruck COA.svg">
  <defs
     id="defs9236">
    <inkscape:path-effect
       effect="spiro"
       id="path-effect10918"
       is_visible="true" />
    <inkscape:path-effect
       effect="spiro"
       id="path-effect10893"
       is_visible="true" />
    <inkscape:path-effect
       effect="spiro"
       id="path-effect10757"
       is_visible="true" />
    <inkscape:path-effect
       effect="spiro"
       id="path-effect10016"
       is_visible="true" />
    <inkscape:path-effect
       effect="spiro"
       id="path-effect9996"
       is_visible="true" />
    <inkscape:path-effect
       effect="spiro"
       id="path-effect10016-3"
       is_visible="true" />
    <inkscape:path-effect
       effect="spiro"
       id="path-effect10893-9"
       is_visible="true" />
    <inkscape:path-effect
       effect="spiro"
       id="path-effect10918-0"
       is_visible="true" />
    <inkscape:path-effect
       effect="spiro"
       id="path-effect10918-6"
       is_visible="true" />
    <inkscape:path-effect
       effect="spiro"
       id="path-effect10918-6-2"
       is_visible="true" />
    <inkscape:path-effect
       effect="spiro"
       id="path-effect10918-6-7"
       is_visible="true" />
    <inkscape:path-effect
       effect="spiro"
       id="path-effect10918-6-7-3"
       is_visible="true" />
    <inkscape:path-effect
       effect="spiro"
       id="path-effect10918-6-7-7"
       is_visible="true" />
    <inkscape:path-effect
       effect="spiro"
       id="path-effect10918-6-7-7-5"
       is_visible="true" />
    <inkscape:path-effect
       effect="spiro"
       id="path-effect10918-6-7-7-0"
       is_visible="true" />
    <inkscape:path-effect
       effect="spiro"
       id="path-effect10918-6-7-7-0-7"
       is_visible="true" />
  </defs>
  <sodipodi:namedview
     id="base"
     pagecolor="#ffffff"
     bordercolor="#666666"
     borderopacity="1.0"
     inkscape:pageopacity="0.0"
     inkscape:pageshadow="2"
     inkscape:zoom="0.72798985"
     inkscape:cx="350.66705"
     inkscape:cy="370.88431"
     inkscape:document-units="px"
     inkscape:current-layer="layer1"
     showgrid="false"
     inkscape:window-width="1366"
     inkscape:window-height="745"
     inkscape:window-x="-8"
     inkscape:window-y="-8"
     inkscape:window-maximized="1"
     fit-margin-top="0"
     fit-margin-left="0"
     fit-margin-right="0"
     fit-margin-bottom="0"
     inkscape:snap-midpoints="true"
     inkscape:snap-smooth-nodes="true"
     inkscape:object-nodes="true"
     inkscape:snap-nodes="false" />
  <metadata
     id="metadata9239">
    <rdf:RDF>
      <cc:Work
         rdf:about="">
        <dc:format>image/svg+xml</dc:format>
        <dc:type
           rdf:resource="http://purl.org/dc/dcmitype/StillImage" />
        <dc:title></dc:title>
      </cc:Work>
    </rdf:RDF>
  </metadata>
  <g
     inkscape:label="Ebene 1"
     inkscape:groupmode="layer"
     id="layer1"
     transform="translate(-19.589385,-49.76363)">
    <path
       style="fill:#ffffff;fill-rule:evenodd;stroke:none;stroke-width:11;stroke-opacity:1"
       inkscape:connector-curvature="0"
       d="m 25.269105,55.26363 13.398,416.62441 c 7.415,175.24977 153.919795,314.04607 331.589245,314.14417 177.50971,-0.2149 324.06941,-139.0612 331.58942,-314.14417 l 13.39798,-416.62441 -344.9794,0 z"
       id="path10563-0-2" />
    <path
       style="fill:#009900;fill-rule:evenodd;stroke:#000000;stroke-width:8;stroke-linecap:round;stroke-linejoin:round;stroke-miterlimit:4;stroke-dasharray:none;stroke-opacity:1;fill-opacity:1"
       d="m 211.43221,83.718708 c -0.95607,7.80035 -5.02447,15.176034 -11.11328,20.144532 -5.43874,4.43804 -12.42952,6.93391 -19.44922,6.94531 1.43133,3.1942 3.90158,5.91421 6.94532,7.64258 3.95741,2.24719 8.85868,2.7626 13.19726,1.38867 -1.51663,4.7558 -3.37503,9.40277 -5.55664,13.89258 -1.38801,2.85657 -2.91465,5.66051 -4.82812,8.19531 -1.91347,2.5348 -4.23062,4.80163 -6.98047,6.39063 -4.77915,2.76162 -10.79052,3.28392 -15.97461,1.38867 3.32933,3.23677 7.07377,6.04607 11.11328,8.33594 5.37794,3.04857 11.27818,5.17314 17.36524,6.25195 -0.86629,4.63009 -2.5186,9.11185 -4.86329,13.19727 -4.50225,7.84477 -11.66883,14.20195 -20.14257,17.36523 -7.51224,2.80435 -15.95312,3.05329 -23.61719,0.69531 2.39265,4.15221 5.74708,7.74694 9.72461,10.41992 6.28752,4.22536 13.96024,6.05795 21.5332,6.25 6.34915,0.16102 12.72415,-0.78241 18.75391,-2.77734 -2.41161,4.17873 -5.20606,8.13688 -8.33594,11.80859 -8.37955,9.83019 -19.20787,17.56873 -31.25586,22.22657 -10.99992,4.25265 -22.98756,5.93166 -34.73242,4.86328 3.01898,4.7291 7.0795,8.7896 11.80859,11.80859 7.99637,5.10477 17.61796,7.10775 27.08985,7.64063 8.83871,0.49726 17.74529,-0.20594 26.39648,-2.08399 -3.81895,6.56738 -8.77826,12.47002 -14.58789,17.36524 -12.61975,10.63345 -28.84325,16.21041 -45.14844,18.7539 -10.55521,1.64654 -21.29484,2.11484 -31.953122,1.39063 4.031422,3.50542 8.469512,6.54158 13.197262,9.0293 12.50768,6.58145 26.84987,9.19735 40.98242,9.02929 10.57952,-0.12581 21.13999,-1.76754 31.25782,-4.86133 -7.95502,6.2346 -16.58973,11.60228 -25.70118,15.97657 -16.67561,8.00575 -34.99449,12.65604 -53.48437,13.19726 -11.202223,0.3279 -22.447652,-0.84305 -33.341803,-3.47265 8.79781,7.00219 18.674591,12.64524 29.173831,16.66992 17.595132,6.74475 36.765182,8.87386 55.568362,7.64062 13.44745,-0.88197 26.78377,-3.45537 39.59375,-7.64062 l 0,75.71289 17.36523,0 17.36524,0 0,-75.71289 c 12.80998,4.18525 26.1463,6.75865 39.59375,7.64062 18.80317,1.23323 37.97323,-0.89587 55.56836,-7.64062 10.49924,-4.02468 20.37603,-9.66772 29.17383,-16.66992 -10.89414,2.6296 -22.13958,3.80055 -33.3418,3.47265 -18.48988,-0.54122 -36.80876,-5.19151 -53.48438,-13.19726 -9.11143,-4.37428 -17.74615,-9.74197 -25.70117,-15.97657 10.11783,3.09378 20.67831,4.73552 31.25782,4.86133 14.13255,0.16806 28.47475,-2.44786 40.98242,-9.02929 4.72775,-2.48771 9.16583,-5.52388 13.19726,-9.0293 -10.65829,0.72421 -21.39596,0.25591 -31.95117,-1.39063 -16.30519,-2.54349 -32.53064,-8.12045 -45.15039,-18.7539 -5.80963,-4.89521 -10.76894,-10.79786 -14.58789,-17.36524 8.65119,1.87805 17.55776,2.58125 26.39648,2.08399 9.47188,-0.53288 19.09349,-2.53587 27.08985,-7.64063 4.7291,-3.01899 8.78961,-7.07949 11.80859,-11.80859 -11.74486,1.06838 -23.73056,-0.61063 -34.73047,-4.86328 -12.04799,-4.65784 -22.87825,-12.39638 -31.25781,-22.22657 -3.12988,-3.67172 -5.92433,-7.62986 -8.33594,-11.80859 6.02975,1.99493 12.40476,2.93836 18.75391,2.77734 7.57296,-0.19205 15.24568,-2.02464 21.5332,-6.25 3.97753,-2.67299 7.33196,-6.26771 9.72461,-10.41992 -7.66408,2.35799 -16.10495,2.10904 -23.61719,-0.69531 -8.47374,-3.16328 -15.64032,-9.52046 -20.14257,-17.36523 -2.34469,-4.08541 -3.99701,-8.56718 -4.86328,-13.19727 6.08704,-1.07881 11.98729,-3.20337 17.36523,-6.25195 4.03951,-2.28987 7.7859,-5.09917 11.11523,-8.33594 -5.18409,1.89526 -11.19741,1.37295 -15.97656,-1.38867 -2.74985,-1.589 -5.067,-3.85583 -6.98047,-6.39063 -1.91347,-2.5348 -3.44011,-5.33874 -4.82812,-8.19531 -2.18161,-4.48981 -4.04,-9.13678 -5.55664,-13.89258 4.33858,1.37393 9.23985,0.85852 13.19726,-1.38867 3.04374,-1.72837 5.51399,-4.44838 6.94531,-7.64258 -7.01967,-0.0114 -14.01046,-2.50727 -19.44921,-6.94531 -6.08881,-4.968498 -10.1572,-12.344182 -11.11329,-20.144532 z m 317.64844,0 c -0.95608,7.80035 -5.02447,15.176028 -11.11328,20.144532 -5.43875,4.43804 -12.42954,6.93391 -19.44922,6.94531 1.43132,3.1942 3.90157,5.91421 6.94532,7.64258 3.9574,2.24719 8.85868,2.7626 13.19726,1.38867 -1.51664,4.7558 -3.37503,9.40278 -5.55664,13.89258 -1.38801,2.85657 -2.91465,5.66051 -4.82812,8.19531 -1.91348,2.5348 -4.23062,4.80163 -6.98047,6.39063 -4.77915,2.76162 -10.79248,3.28393 -15.97657,1.38867 3.32933,3.23677 7.07573,6.04607 11.11524,8.33594 5.37794,3.04858 11.27819,5.17314 17.36523,6.25195 -0.86628,4.63009 -2.51859,9.11186 -4.86328,13.19727 -4.50225,7.84477 -11.66884,14.20195 -20.14258,17.36523 -7.51224,2.80435 -15.9531,3.0533 -23.61718,0.69531 2.39265,4.15221 5.74707,7.74693 9.72461,10.41992 6.28752,4.22536 13.96024,6.05795 21.5332,6.25 6.34915,0.16102 12.72415,-0.78241 18.7539,-2.77734 -2.41161,4.17873 -5.20605,8.13687 -8.33593,11.80859 -8.37956,9.83019 -19.20983,17.56873 -31.25782,22.22657 -10.99991,4.25265 -22.9856,5.93166 -34.73046,4.86328 3.01898,4.7291 7.07949,8.7896 11.80859,11.80859 7.99636,5.10476 17.61796,7.10775 27.08984,7.64063 8.83872,0.49726 17.7453,-0.20594 26.39649,-2.08399 -3.81895,6.56738 -8.77826,12.47003 -14.58789,17.36524 -12.61975,10.63345 -28.8452,16.21041 -45.15039,18.7539 -10.55521,1.64654 -21.2929,2.11484 -31.95118,1.39063 4.03143,3.50542 8.46953,6.54159 13.19727,9.0293 12.50768,6.58143 26.84987,9.19735 40.98242,9.02929 10.57951,-0.12581 21.13998,-1.76755 31.25781,-4.86133 -7.95502,6.2346 -16.58974,11.60229 -25.70117,15.97657 -16.67562,8.00575 -34.99448,12.65604 -53.48437,13.19726 -11.20221,0.3279 -22.44766,-0.84305 -33.3418,-3.47265 8.7978,7.0022 18.67459,12.64524 29.17383,16.66992 17.59513,6.74475 36.76519,8.87385 55.56836,7.64062 13.44745,-0.88197 26.78377,-3.45537 39.59375,-7.64062 l 0,75.71289 17.36523,0 17.36524,0 0,-75.71289 c 12.80998,4.18525 26.1463,6.75865 39.59375,7.64062 18.80318,1.23324 37.97323,-0.89587 55.56836,-7.64062 10.49924,-4.02468 20.37601,-9.66773 29.17382,-16.66992 -10.89415,2.6296 -22.13957,3.80055 -33.34179,3.47265 -18.48988,-0.54122 -36.80876,-5.19151 -53.48438,-13.19726 -9.11144,-4.37429 -17.74616,-9.74197 -25.70117,-15.97657 10.11782,3.09379 20.67829,4.73552 31.25781,4.86133 14.13255,0.16806 28.47475,-2.44784 40.98242,-9.02929 4.72775,-2.48772 9.16585,-5.52388 13.19727,-9.0293 -10.65828,0.72421 -21.39791,0.25591 -31.95312,-1.39063 -16.30519,-2.54349 -32.52868,-8.12045 -45.14844,-18.7539 -5.80962,-4.89522 -10.76894,-10.79786 -14.58789,-17.36524 8.65119,1.87805 17.55776,2.58125 26.39648,2.08399 9.47189,-0.53288 19.09348,-2.53586 27.08985,-7.64063 4.72909,-3.01899 8.78961,-7.07949 11.80859,-11.80859 -11.74486,1.06838 -23.7325,-0.61063 -34.73242,-4.86328 -12.048,-4.65784 -22.87632,-12.39638 -31.25586,-22.22657 -3.12989,-3.67171 -5.92433,-7.62986 -8.33594,-11.80859 6.02976,1.99493 12.40477,2.93836 18.75391,2.77734 7.57297,-0.19205 15.24568,-2.02464 21.5332,-6.25 3.97753,-2.67298 7.33196,-6.26771 9.72461,-10.41992 -7.66407,2.35798 -16.10494,2.10904 -23.61719,-0.69531 -8.47374,-3.16328 -15.64033,-9.52047 -20.14258,-17.36523 -2.3447,-4.08542 -3.99699,-8.56718 -4.86328,-13.19727 6.08706,-1.07881 11.98731,-3.20338 17.36524,-6.25195 4.03952,-2.28987 7.78395,-5.09916 11.11328,-8.33594 -5.18409,1.89526 -11.19545,1.37296 -15.97461,-1.38867 -2.74984,-1.58899 -5.06699,-3.85583 -6.98047,-6.39063 -1.91346,-2.5348 -3.44011,-5.33874 -4.82813,-8.19531 -2.18161,-4.48981 -4.04001,-9.13678 -5.55664,-13.89258 4.33858,1.37393 9.23986,0.85852 13.19727,-1.38867 3.04374,-1.72837 5.51399,-4.44838 6.94531,-7.64258 -7.0197,-0.0114 -14.01048,-2.50727 -19.44922,-6.94531 -6.08881,-4.968504 -10.15721,-12.344182 -11.11328,-20.144532 z"
       id="path10014"
       inkscape:connector-curvature="0" />
    <rect
       style="opacity:1;fill:#ff0000;fill-opacity:1;fill-rule:nonzero;stroke:#000000;stroke-width:5;stroke-linecap:round;stroke-linejoin:round;stroke-miterlimit:4;stroke-dasharray:none;stroke-dashoffset:0;stroke-opacity:1"
       id="rect10053-90"
       width="55.010704"
       height="28.978855"
       x="122.70828"
       y="445.75067" />
    <rect
       style="opacity:1;fill:#ff0000;fill-opacity:1;fill-rule:nonzero;stroke:#000000;stroke-width:5;stroke-linecap:round;stroke-linejoin:round;stroke-miterlimit:4;stroke-dasharray:none;stroke-dashoffset:0;stroke-opacity:1"
       id="rect10053-4-50"
       width="55.010704"
       height="28.978855"
       x="177.71896"
       y="445.75067" />
    <rect
       style="opacity:1;fill:#ff0000;fill-opacity:1;fill-rule:nonzero;stroke:#000000;stroke-width:5;stroke-linecap:round;stroke-linejoin:round;stroke-miterlimit:4;stroke-dasharray:none;stroke-dashoffset:0;stroke-opacity:1"
       id="rect10053-6-9"
       width="55.010704"
       height="28.978855"
       x="67.697601"
       y="445.75067" />
    <path
       style="opacity:1;fill:#ff0000;fill-opacity:1;fill-rule:nonzero;stroke:#000000;stroke-width:5;stroke-linecap:round;stroke-linejoin:round;stroke-miterlimit:4;stroke-dasharray:none;stroke-dashoffset:0;stroke-opacity:1"
       d="M 18.238281 395.98633 L 19.078125 422.125 C 19.118282 423.07408 19.168499 424.01987 19.216797 424.9668 L 48.107422 424.9668 L 48.107422 395.98633 L 18.238281 395.98633 z M 653.22656 395.98633 L 653.22656 424.9668 L 682.11719 424.9668 C 682.1661 424.01989 682.2151 423.07406 682.25586 422.125 L 683.0957 395.98633 L 653.22656 395.98633 z M 27.466797 482.92383 C 29.789016 492.76359 32.557962 502.42942 35.753906 511.90234 L 75.613281 511.90234 L 75.613281 482.92383 L 27.466797 482.92383 z M 625.7207 482.92383 L 625.7207 511.90234 L 665.50586 511.90234 C 668.71124 502.42873 671.49133 492.76356 673.82227 482.92383 L 625.7207 482.92383 z M 47.113281 540.88086 C 51.569669 550.81176 56.509656 560.47989 61.904297 569.85938 L 75.613281 569.85938 L 75.613281 540.88086 L 47.113281 540.88086 z M 625.7207 540.88086 L 625.7207 569.85938 L 639.29688 569.85938 C 644.70173 560.47941 649.65071 550.81158 654.11719 540.88086 L 625.7207 540.88086 z "
       transform="translate(19.589385,49.76363)"
       id="rect10053-7-6" />
    <rect
       style="opacity:1;fill:#ff0000;fill-opacity:1;fill-rule:nonzero;stroke:#000000;stroke-width:5;stroke-linecap:round;stroke-linejoin:round;stroke-miterlimit:4;stroke-dasharray:none;stroke-dashoffset:0;stroke-opacity:1"
       id="rect10053-49-7"
       width="55.010704"
       height="28.978855"
       x="232.72964"
       y="445.75067" />
    <rect
       style="opacity:1;fill:#ff0000;fill-opacity:1;fill-rule:nonzero;stroke:#000000;stroke-width:5;stroke-linecap:round;stroke-linejoin:round;stroke-miterlimit:4;stroke-dasharray:none;stroke-dashoffset:0;stroke-opacity:1"
       id="rect10053-9-2"
       width="55.010704"
       height="28.978855"
       x="95.202972"
       y="416.77182" />
    <rect
       style="opacity:1;fill:#ff0000;fill-opacity:1;fill-rule:nonzero;stroke:#000000;stroke-width:5;stroke-linecap:round;stroke-linejoin:round;stroke-miterlimit:4;stroke-dasharray:none;stroke-dashoffset:0;stroke-opacity:1"
       id="rect10053-63-6"
       width="55.010704"
       height="28.978855"
       x="205.22433"
       y="416.77182" />
    <rect
       style="opacity:1;fill:#ff0000;fill-opacity:1;fill-rule:nonzero;stroke:#000000;stroke-width:5;stroke-linecap:round;stroke-linejoin:round;stroke-miterlimit:4;stroke-dasharray:none;stroke-dashoffset:0;stroke-opacity:1"
       id="rect10053-4-4-56"
       width="55.010704"
       height="28.978855"
       x="260.23502"
       y="416.77182" />
    <rect
       style="opacity:1;fill:#ff0000;fill-opacity:1;fill-rule:nonzero;stroke:#000000;stroke-width:5;stroke-linecap:round;stroke-linejoin:round;stroke-miterlimit:4;stroke-dasharray:none;stroke-dashoffset:0;stroke-opacity:1"
       id="rect10053-6-3-6"
       width="55.010704"
       height="28.978855"
       x="150.21365"
       y="416.77182" />
    <rect
       style="opacity:1;fill:#ff0000;fill-opacity:1;fill-rule:nonzero;stroke:#000000;stroke-width:5;stroke-linecap:round;stroke-linejoin:round;stroke-miterlimit:4;stroke-dasharray:none;stroke-dashoffset:0;stroke-opacity:1"
       id="rect10053-49-6-2"
       width="55.010704"
       height="28.978855"
       x="315.24573"
       y="416.77182" />
    <rect
       style="opacity:1;fill:#ff0000;fill-opacity:1;fill-rule:nonzero;stroke:#000000;stroke-width:5;stroke-linecap:round;stroke-linejoin:round;stroke-miterlimit:4;stroke-dasharray:none;stroke-dashoffset:0;stroke-opacity:1"
       id="rect10053-7-8-3"
       width="55.010704"
       height="28.978855"
       x="40.192291"
       y="416.77182" />
    <path
       style="fill:#0033ff;fill-rule:evenodd;stroke:#000000;stroke-width:8;stroke-linecap:butt;stroke-linejoin:miter;stroke-miterlimit:4;stroke-dasharray:none;stroke-opacity:1;fill-opacity:1"
       d="M 102.15625 583.08984 C 92.264559 582.93277 82.34883 584.55444 72.996094 587.78711 C 132.4533 677.28492 234.94035 736.20563 350.66602 736.26953 C 466.26248 736.12959 568.71926 677.18717 628.21484 587.74414 C 615.23535 583.28017 601.17359 581.93614 587.61328 584.0918 C 577.59908 585.68374 567.97503 589.07022 558.25586 591.96094 C 548.53669 594.85165 538.50784 597.27413 528.37695 596.8457 C 518.2467 596.4173 508.47943 593.16393 498.82422 590.06836 C 489.16901 586.97279 479.2793 583.97819 469.14062 584.0918 C 458.99843 584.20544 449.17997 587.42303 439.53906 590.57422 C 429.89816 593.72541 420.04709 596.87392 409.9043 596.8457 C 399.76038 596.81749 389.92659 593.61236 380.28906 590.44727 C 370.65153 587.28217 360.81192 584.0918 350.66797 584.0918 C 340.52402 584.0918 330.68245 587.28217 321.04492 590.44727 C 311.40739 593.61236 301.57555 596.81749 291.43164 596.8457 C 281.28885 596.87392 271.43583 593.72541 261.79492 590.57422 C 252.15402 587.42303 242.33751 584.20544 232.19531 584.0918 C 222.05664 583.97819 212.16498 586.97279 202.50977 590.06836 C 192.85455 593.16393 183.08924 596.4173 172.95898 596.8457 C 162.82809 597.27413 152.79729 594.85165 143.07812 591.96094 C 133.35896 589.07022 123.73686 585.68374 113.72266 584.0918 C 109.89589 583.48346 106.02812 583.15133 102.15625 583.08984 z "
       transform="translate(19.589385,49.76363)"
       id="path9994" />
    <path
       style="opacity:1;fill:#ff0000;fill-opacity:1;fill-rule:nonzero;stroke:#000000;stroke-width:5;stroke-linecap:round;stroke-linejoin:round;stroke-miterlimit:4;stroke-dasharray:none;stroke-dashoffset:0;stroke-opacity:1"
       d="M 17.304688 367.00781 L 18.238281 395.98633 L 20.603516 395.98633 L 20.603516 367.00781 L 17.304688 367.00781 z M 680.73047 367.00781 L 680.73047 395.98633 L 683.0957 395.98633 L 684.0293 367.00781 L 680.73047 367.00781 z M 21.992188 453.94531 C 23.378349 463.75533 25.223051 473.41657 27.466797 482.92383 L 48.107422 482.92383 L 48.107422 453.94531 L 21.992188 453.94531 z M 653.22656 453.94531 L 653.22656 482.92383 L 673.82227 482.92383 C 676.07447 473.41647 677.92655 463.75461 679.32031 453.94531 L 653.22656 453.94531 z M 35.753906 511.90234 C 39.086979 521.78172 42.880633 531.44855 47.113281 540.88086 L 48.107422 540.88086 L 48.107422 511.90234 L 35.753906 511.90234 z M 653.22656 511.90234 L 653.22656 540.88086 L 654.11719 540.88086 C 658.35953 531.44849 662.16343 521.78103 665.50586 511.90234 L 653.22656 511.90234 z M 61.904297 569.85938 C 67.654677 579.85737 73.904895 589.53561 80.650391 598.83984 L 103.11914 598.83984 L 103.11914 569.85938 L 61.904297 569.85938 z M 598.21484 569.85938 L 598.21484 598.83984 L 620.51758 598.83984 C 627.27336 589.53512 633.53598 579.85724 639.29688 569.85938 L 598.21484 569.85938 z "
       transform="translate(19.589385,49.76363)"
       id="rect10053-7-89-3" />
    <rect
       style="opacity:1;fill:#ff0000;fill-opacity:1;fill-rule:nonzero;stroke:#000000;stroke-width:5;stroke-linecap:round;stroke-linejoin:round;stroke-miterlimit:4;stroke-dasharray:none;stroke-dashoffset:0;stroke-opacity:1"
       id="rect10053-7-2-3"
       width="55.010704"
       height="28.978855"
       x="287.74039"
       y="445.75067" />
    <rect
       style="opacity:1;fill:#ff0000;fill-opacity:1;fill-rule:nonzero;stroke:#000000;stroke-width:5;stroke-linecap:round;stroke-linejoin:round;stroke-miterlimit:4;stroke-dasharray:none;stroke-dashoffset:0;stroke-opacity:1"
       id="rect10053-1-84"
       width="55.010704"
       height="28.978855"
       x="40.192169"
       y="474.72952" />
    <rect
       style="opacity:1;fill:#ff0000;fill-opacity:1;fill-rule:nonzero;stroke:#000000;stroke-width:5;stroke-linecap:round;stroke-linejoin:round;stroke-miterlimit:4;stroke-dasharray:none;stroke-dashoffset:0;stroke-opacity:1"
       id="rect10053-4-1-3"
       width="55.010704"
       height="28.978855"
       x="95.20285"
       y="474.72952" />
    <rect
       style="opacity:1;fill:#ff0000;fill-opacity:1;fill-rule:nonzero;stroke:#000000;stroke-width:5;stroke-linecap:round;stroke-linejoin:round;stroke-miterlimit:4;stroke-dasharray:none;stroke-dashoffset:0;stroke-opacity:1"
       id="rect10053-49-9-1"
       width="55.010704"
       height="28.978855"
       x="150.21353"
       y="474.72952" />
    <rect
       style="opacity:1;fill:#ff0000;fill-opacity:1;fill-rule:nonzero;stroke:#000000;stroke-width:5;stroke-linecap:round;stroke-linejoin:round;stroke-miterlimit:4;stroke-dasharray:none;stroke-dashoffset:0;stroke-opacity:1"
       id="rect10053-7-2-6-7"
       width="55.010704"
       height="28.978855"
       x="205.22427"
       y="474.72952" />
    <rect
       style="opacity:1;fill:#ff0000;fill-opacity:1;fill-rule:nonzero;stroke:#000000;stroke-width:5;stroke-linecap:round;stroke-linejoin:round;stroke-miterlimit:4;stroke-dasharray:none;stroke-dashoffset:0;stroke-opacity:1"
       id="rect10053-4-3-9"
       width="55.010704"
       height="28.978855"
       x="67.697479"
       y="503.70837" />
    <rect
       style="opacity:1;fill:#ff0000;fill-opacity:1;fill-rule:nonzero;stroke:#000000;stroke-width:5;stroke-linecap:round;stroke-linejoin:round;stroke-miterlimit:4;stroke-dasharray:none;stroke-dashoffset:0;stroke-opacity:1"
       id="rect10053-49-5-1"
       width="55.010704"
       height="28.978855"
       x="122.70816"
       y="503.70837" />
    <rect
       style="opacity:1;fill:#ff0000;fill-opacity:1;fill-rule:nonzero;stroke:#000000;stroke-width:5;stroke-linecap:round;stroke-linejoin:round;stroke-miterlimit:4;stroke-dasharray:none;stroke-dashoffset:0;stroke-opacity:1"
       id="rect10053-7-2-1-91"
       width="55.010704"
       height="28.978855"
       x="177.7189"
       y="503.70837" />
    <rect
       style="opacity:1;fill:#ff0000;fill-opacity:1;fill-rule:nonzero;stroke:#000000;stroke-width:5;stroke-linecap:round;stroke-linejoin:round;stroke-miterlimit:4;stroke-dasharray:none;stroke-dashoffset:0;stroke-opacity:1"
       id="rect10053-49-5-2-6"
       width="55.010704"
       height="28.978855"
       x="95.202789"
       y="532.68726" />
    <rect
       style="opacity:1;fill:#ff0000;fill-opacity:1;fill-rule:nonzero;stroke:#000000;stroke-width:5;stroke-linecap:round;stroke-linejoin:round;stroke-miterlimit:4;stroke-dasharray:none;stroke-dashoffset:0;stroke-opacity:1"
       id="rect10053-7-2-1-9-4"
       width="55.010704"
       height="28.978855"
       x="150.21353"
       y="532.68726" />
    <rect
       style="opacity:1;fill:#ff0000;fill-opacity:1;fill-rule:nonzero;stroke:#000000;stroke-width:5;stroke-linecap:round;stroke-linejoin:round;stroke-miterlimit:4;stroke-dasharray:none;stroke-dashoffset:0;stroke-opacity:1"
       id="rect10053-49-5-9-3"
       width="55.010704"
       height="28.978855"
       x="67.697418"
       y="561.66614" />
    <rect
       style="opacity:1;fill:#ff0000;fill-opacity:1;fill-rule:nonzero;stroke:#000000;stroke-width:5;stroke-linecap:round;stroke-linejoin:round;stroke-miterlimit:4;stroke-dasharray:none;stroke-dashoffset:0;stroke-opacity:1"
       id="rect10053-7-2-1-7-5"
       width="55.010704"
       height="28.978855"
       x="122.70816"
       y="561.66614" />
    <rect
       style="opacity:1;fill:#ff0000;fill-opacity:1;fill-rule:nonzero;stroke:#000000;stroke-width:5;stroke-linecap:round;stroke-linejoin:round;stroke-miterlimit:4;stroke-dasharray:none;stroke-dashoffset:0;stroke-opacity:1"
       id="rect10053-7-2-1-7-8-1"
       width="55.010704"
       height="28.978855"
       x="95.202789"
       y="590.64502" />
    <rect
       style="opacity:1;fill:#ff0000;fill-opacity:1;fill-rule:nonzero;stroke:#000000;stroke-width:5;stroke-linecap:round;stroke-linejoin:round;stroke-miterlimit:4;stroke-dasharray:none;stroke-dashoffset:0;stroke-opacity:1"
       id="rect10053-7-2-1-7-2-9"
       width="55.010704"
       height="28.978855"
       x="122.70816"
       y="619.6239" />
    <rect
       style="opacity:1;fill:#ff0000;fill-opacity:1;fill-rule:nonzero;stroke:#000000;stroke-width:5;stroke-linecap:round;stroke-linejoin:round;stroke-miterlimit:4;stroke-dasharray:none;stroke-dashoffset:0;stroke-opacity:1"
       id="rect10053-5-6"
       width="55.010704"
       height="28.978855"
       x="-617.80457"
       y="445.75067"
       transform="scale(-1,1)" />
    <rect
       style="opacity:1;fill:#ff0000;fill-opacity:1;fill-rule:nonzero;stroke:#000000;stroke-width:5;stroke-linecap:round;stroke-linejoin:round;stroke-miterlimit:4;stroke-dasharray:none;stroke-dashoffset:0;stroke-opacity:1"
       id="rect10053-4-5-7"
       width="55.010704"
       height="28.978855"
       x="-562.79388"
       y="445.75067"
       transform="scale(-1,1)" />
    <rect
       style="opacity:1;fill:#ff0000;fill-opacity:1;fill-rule:nonzero;stroke:#000000;stroke-width:5;stroke-linecap:round;stroke-linejoin:round;stroke-miterlimit:4;stroke-dasharray:none;stroke-dashoffset:0;stroke-opacity:1"
       id="rect10053-6-5-7"
       width="55.010704"
       height="28.978855"
       x="-672.81525"
       y="445.75067"
       transform="scale(-1,1)" />
    <rect
       style="opacity:1;fill:#ff0000;fill-opacity:1;fill-rule:nonzero;stroke:#000000;stroke-width:5;stroke-linecap:round;stroke-linejoin:round;stroke-miterlimit:4;stroke-dasharray:none;stroke-dashoffset:0;stroke-opacity:1"
       id="rect10053-49-61-5"
       width="55.010704"
       height="28.978855"
       x="-507.78323"
       y="445.75067"
       transform="scale(-1,1)" />
    <rect
       style="opacity:1;fill:#ff0000;fill-opacity:1;fill-rule:nonzero;stroke:#000000;stroke-width:5;stroke-linecap:round;stroke-linejoin:round;stroke-miterlimit:4;stroke-dasharray:none;stroke-dashoffset:0;stroke-opacity:1"
       id="rect10053-9-1-8"
       width="55.010704"
       height="28.978855"
       x="-645.30988"
       y="416.77182"
       transform="scale(-1,1)" />
    <rect
       style="opacity:1;fill:#ff0000;fill-opacity:1;fill-rule:nonzero;stroke:#000000;stroke-width:5;stroke-linecap:round;stroke-linejoin:round;stroke-miterlimit:4;stroke-dasharray:none;stroke-dashoffset:0;stroke-opacity:1"
       id="rect10053-63-1-9"
       width="55.010704"
       height="28.978855"
       x="-535.28851"
       y="416.77182"
       transform="scale(-1,1)" />
    <rect
       style="opacity:1;fill:#ff0000;fill-opacity:1;fill-rule:nonzero;stroke:#000000;stroke-width:5;stroke-linecap:round;stroke-linejoin:round;stroke-miterlimit:4;stroke-dasharray:none;stroke-dashoffset:0;stroke-opacity:1"
       id="rect10053-4-4-5-9"
       width="55.010704"
       height="28.978855"
       x="-480.27786"
       y="416.77182"
       transform="scale(-1,1)" />
    <rect
       style="opacity:1;fill:#ff0000;fill-opacity:1;fill-rule:nonzero;stroke:#000000;stroke-width:5;stroke-linecap:round;stroke-linejoin:round;stroke-miterlimit:4;stroke-dasharray:none;stroke-dashoffset:0;stroke-opacity:1"
       id="rect10053-6-3-3-0"
       width="55.010704"
       height="28.978855"
       x="-590.29919"
       y="416.77182"
       transform="scale(-1,1)" />
    <rect
       style="opacity:1;fill:#ff0000;fill-opacity:1;fill-rule:nonzero;stroke:#000000;stroke-width:5;stroke-linecap:round;stroke-linejoin:round;stroke-miterlimit:4;stroke-dasharray:none;stroke-dashoffset:0;stroke-opacity:1"
       id="rect10053-49-6-5-5"
       width="55.010704"
       height="28.978855"
       x="-425.26715"
       y="416.77182"
       transform="scale(-1,1)" />
    <rect
       style="opacity:1;fill:#ff0000;fill-opacity:1;fill-rule:nonzero;stroke:#000000;stroke-width:5;stroke-linecap:round;stroke-linejoin:round;stroke-miterlimit:4;stroke-dasharray:none;stroke-dashoffset:0;stroke-opacity:1"
       id="rect10053-7-8-2-2"
       width="55.010704"
       height="28.978855"
       x="-700.32056"
       y="416.77182"
       transform="scale(-1,1)" />
    <rect
       style="opacity:1;fill:#ff0000;fill-opacity:1;fill-rule:nonzero;stroke:#000000;stroke-width:5;stroke-linecap:round;stroke-linejoin:round;stroke-miterlimit:4;stroke-dasharray:none;stroke-dashoffset:0;stroke-opacity:1"
       id="rect10053-7-2-9-0"
       width="55.010704"
       height="28.978855"
       x="-452.77249"
       y="445.75067"
       transform="scale(-1,1)" />
    <rect
       style="opacity:1;fill:#ff0000;fill-opacity:1;fill-rule:nonzero;stroke:#000000;stroke-width:5;stroke-linecap:round;stroke-linejoin:round;stroke-miterlimit:4;stroke-dasharray:none;stroke-dashoffset:0;stroke-opacity:1"
       id="rect10053-1-8-0"
       width="55.010704"
       height="28.978855"
       x="-700.32068"
       y="474.72952"
       transform="scale(-1,1)" />
    <rect
       style="opacity:1;fill:#ff0000;fill-opacity:1;fill-rule:nonzero;stroke:#000000;stroke-width:5;stroke-linecap:round;stroke-linejoin:round;stroke-miterlimit:4;stroke-dasharray:none;stroke-dashoffset:0;stroke-opacity:1"
       id="rect10053-4-1-5-4"
       width="55.010704"
       height="28.978855"
       x="-645.31"
       y="474.72952"
       transform="scale(-1,1)" />
    <rect
       style="opacity:1;fill:#ff0000;fill-opacity:1;fill-rule:nonzero;stroke:#000000;stroke-width:5;stroke-linecap:round;stroke-linejoin:round;stroke-miterlimit:4;stroke-dasharray:none;stroke-dashoffset:0;stroke-opacity:1"
       id="rect10053-49-9-8-4"
       width="55.010704"
       height="28.978855"
       x="-590.29932"
       y="474.72952"
       transform="scale(-1,1)" />
    <rect
       style="opacity:1;fill:#ff0000;fill-opacity:1;fill-rule:nonzero;stroke:#000000;stroke-width:5;stroke-linecap:round;stroke-linejoin:round;stroke-miterlimit:4;stroke-dasharray:none;stroke-dashoffset:0;stroke-opacity:1"
       id="rect10053-7-2-6-9-8"
       width="55.010704"
       height="28.978855"
       x="-535.28857"
       y="474.72952"
       transform="scale(-1,1)" />
    <rect
       style="opacity:1;fill:#ff0000;fill-opacity:1;fill-rule:nonzero;stroke:#000000;stroke-width:5;stroke-linecap:round;stroke-linejoin:round;stroke-miterlimit:4;stroke-dasharray:none;stroke-dashoffset:0;stroke-opacity:1"
       id="rect10053-4-3-42-0"
       width="55.010704"
       height="28.978855"
       x="-672.81537"
       y="503.70837"
       transform="scale(-1,1)" />
    <rect
       style="opacity:1;fill:#ff0000;fill-opacity:1;fill-rule:nonzero;stroke:#000000;stroke-width:5;stroke-linecap:round;stroke-linejoin:round;stroke-miterlimit:4;stroke-dasharray:none;stroke-dashoffset:0;stroke-opacity:1"
       id="rect10053-49-5-94-6"
       width="55.010704"
       height="28.978855"
       x="-617.80469"
       y="503.70837"
       transform="scale(-1,1)" />
    <rect
       style="opacity:1;fill:#ff0000;fill-opacity:1;fill-rule:nonzero;stroke:#000000;stroke-width:5;stroke-linecap:round;stroke-linejoin:round;stroke-miterlimit:4;stroke-dasharray:none;stroke-dashoffset:0;stroke-opacity:1"
       id="rect10053-7-2-1-5-5"
       width="55.010704"
       height="28.978855"
       x="-562.79395"
       y="503.70837"
       transform="scale(-1,1)" />
    <rect
       style="opacity:1;fill:#ff0000;fill-opacity:1;fill-rule:nonzero;stroke:#000000;stroke-width:5;stroke-linecap:round;stroke-linejoin:round;stroke-miterlimit:4;stroke-dasharray:none;stroke-dashoffset:0;stroke-opacity:1"
       id="rect10053-49-5-2-5-5"
       width="55.010704"
       height="28.978855"
       x="-645.31006"
       y="532.68726"
       transform="scale(-1,1)" />
    <rect
       style="opacity:1;fill:#ff0000;fill-opacity:1;fill-rule:nonzero;stroke:#000000;stroke-width:5;stroke-linecap:round;stroke-linejoin:round;stroke-miterlimit:4;stroke-dasharray:none;stroke-dashoffset:0;stroke-opacity:1"
       id="rect10053-7-2-1-9-9-2"
       width="55.010704"
       height="28.978855"
       x="-590.29932"
       y="532.68726"
       transform="scale(-1,1)" />
    <rect
       style="opacity:1;fill:#ff0000;fill-opacity:1;fill-rule:nonzero;stroke:#000000;stroke-width:5;stroke-linecap:round;stroke-linejoin:round;stroke-miterlimit:4;stroke-dasharray:none;stroke-dashoffset:0;stroke-opacity:1"
       id="rect10053-49-5-9-6-3"
       width="55.010704"
       height="28.978855"
       x="-672.81543"
       y="561.66614"
       transform="scale(-1,1)" />
    <rect
       style="opacity:1;fill:#ff0000;fill-opacity:1;fill-rule:nonzero;stroke:#000000;stroke-width:5;stroke-linecap:round;stroke-linejoin:round;stroke-miterlimit:4;stroke-dasharray:none;stroke-dashoffset:0;stroke-opacity:1"
       id="rect10053-7-2-1-7-84-8"
       width="55.010704"
       height="28.978855"
       x="-617.80469"
       y="561.66614"
       transform="scale(-1,1)" />
    <rect
       style="opacity:1;fill:#ff0000;fill-opacity:1;fill-rule:nonzero;stroke:#000000;stroke-width:5;stroke-linecap:round;stroke-linejoin:round;stroke-miterlimit:4;stroke-dasharray:none;stroke-dashoffset:0;stroke-opacity:1"
       id="rect10053-7-2-1-7-8-7-3"
       width="55.010704"
       height="28.978855"
       x="-645.31006"
       y="590.64502"
       transform="scale(-1,1)" />
    <rect
       style="opacity:1;fill:#ff0000;fill-opacity:1;fill-rule:nonzero;stroke:#000000;stroke-width:5;stroke-linecap:round;stroke-linejoin:round;stroke-miterlimit:4;stroke-dasharray:none;stroke-dashoffset:0;stroke-opacity:1"
       id="rect10053-7-2-1-7-2-4-6"
       width="55.010704"
       height="28.978855"
       x="-617.80469"
       y="619.6239"
       transform="scale(-1,1)" />
    <path
       style="fill:none;fill-rule:evenodd;stroke:#000000;stroke-width:8;stroke-linecap:butt;stroke-linejoin:miter;stroke-miterlimit:4;stroke-dasharray:none;stroke-opacity:1"
       d="m 35.501447,416.77182 668.291503,0"
       id="path10755"
       inkscape:path-effect="#path-effect10757"
       inkscape:original-d="m 35.501447,416.77182 668.291503,0"
       inkscape:connector-curvature="0" />
    <g
       id="g11058"
       transform="translate(806.7481,-5.6074298)"
       style="fill:#ff0000;fill-opacity:1;stroke:#000000;stroke-opacity:1">
      <path
         id="path10855"
         transform="translate(19.589385,49.76363)"
         d="m -456.11523,380.95703 a 272.86753,272.86753 0 0 0 -47.64844,4.48047 l 2.01172,12.64258 a 257.15115,257.15115 0 0 0 -206.80664,204.86719 l 58.16797,0 a 200.36046,200.36046 0 0 1 194.28906,-152.41407 200.36046,200.36046 0 0 1 194.32812,152.41407 l 58.16992,0 A 257.15115,257.15115 0 0 0 -410.4082,397.91016 l 2.00976,-12.63282 a 272.86753,272.86753 0 0 0 -47.71679,-4.32031 z"
         style="opacity:1;fill:#ff0000;fill-opacity:1;fill-rule:nonzero;stroke:#000000;stroke-width:7.99999952;stroke-linecap:round;stroke-linejoin:round;stroke-miterlimit:4;stroke-dasharray:none;stroke-dashoffset:0;stroke-opacity:1"
         inkscape:connector-curvature="0" />
      <path
         inkscape:connector-curvature="0"
         inkscape:original-d="m -472.29561,503.41805 -11.87867,-68.21692"
         inkscape:path-effect="#path-effect10918"
         id="path10916"
         d="m -472.29561,503.41805 -11.87867,-68.21692"
         style="fill:#ff0000;fill-opacity:1;fill-rule:evenodd;stroke:#000000;stroke-width:8;stroke-linecap:butt;stroke-linejoin:miter;stroke-miterlimit:4;stroke-dasharray:none;stroke-opacity:1" />
      <path
         inkscape:connector-curvature="0"
         inkscape:original-d="m -400.68772,503.25789 11.87867,-68.21692"
         inkscape:path-effect="#path-effect10918-0"
         id="path10916-0"
         d="m -400.68772,503.25789 11.87867,-68.21692"
         style="fill:#ff0000;fill-opacity:1;fill-rule:evenodd;stroke:#000000;stroke-width:8;stroke-linecap:butt;stroke-linejoin:miter;stroke-miterlimit:4;stroke-dasharray:none;stroke-opacity:1" />
      <g
         transform="translate(0.23033517,0)"
         id="g10964"
         style="fill:#ff0000;fill-opacity:1;stroke:#000000;stroke-opacity:1">
        <path
           style="fill:#ff0000;fill-opacity:1;fill-rule:evenodd;stroke:#000000;stroke-width:8;stroke-linecap:butt;stroke-linejoin:miter;stroke-miterlimit:4;stroke-dasharray:none;stroke-opacity:1"
           d="m -522.29837,521.06539 -28.12767,-52.87398"
           id="path10916-7"
           inkscape:path-effect="#path-effect10918-6"
           inkscape:original-d="m -522.29837,521.06539 -28.12767,-52.87398"
           inkscape:connector-curvature="0"
           inkscape:transform-center-x="-12.9246"
           inkscape:transform-center-y="23.683292" />
        <path
           style="fill:#ff0000;fill-opacity:1;fill-rule:evenodd;stroke:#000000;stroke-width:8;stroke-linecap:butt;stroke-linejoin:miter;stroke-miterlimit:4;stroke-dasharray:none;stroke-opacity:1"
           d="m -351.14564,521.06539 28.12767,-52.87398"
           id="path10916-7-3"
           inkscape:path-effect="#path-effect10918-6-2"
           inkscape:original-d="m -351.14564,521.06539 28.12767,-52.87398"
           inkscape:connector-curvature="0"
           inkscape:transform-center-x="12.9246"
           inkscape:transform-center-y="23.683292" />
      </g>
      <g
         transform="translate(-1.7088798,0)"
         id="g10994"
         style="fill:#ff0000;fill-opacity:1;stroke:#000000;stroke-opacity:1">
        <path
           style="fill:#ff0000;fill-opacity:1;fill-rule:evenodd;stroke:#000000;stroke-width:8;stroke-linecap:butt;stroke-linejoin:miter;stroke-miterlimit:4;stroke-dasharray:none;stroke-opacity:1"
           d="M -566.38245,552.03633 -605.12742,506.3674"
           id="path10916-7-0"
           inkscape:path-effect="#path-effect10918-6-7"
           inkscape:original-d="M -566.38245,552.03633 -605.12742,506.3674"
           inkscape:connector-curvature="0"
           inkscape:transform-center-x="-17.67282"
           inkscape:transform-center-y="20.386637" />
        <path
           style="fill:#ff0000;fill-opacity:1;fill-rule:evenodd;stroke:#000000;stroke-width:8;stroke-linecap:butt;stroke-linejoin:miter;stroke-miterlimit:4;stroke-dasharray:none;stroke-opacity:1"
           d="m -303.18313,552.03633 38.74497,-45.66893"
           id="path10916-7-0-4"
           inkscape:path-effect="#path-effect10918-6-7-3"
           inkscape:original-d="m -303.18313,552.03633 38.74497,-45.66893"
           inkscape:connector-curvature="0"
           inkscape:transform-center-x="17.67282"
           inkscape:transform-center-y="20.386637" />
      </g>
      <g
         transform="translate(0.00539517,0)"
         id="g11024"
         style="fill:#ff0000;fill-opacity:1;stroke:#000000;stroke-opacity:1">
        <path
           style="fill:#ff0000;fill-opacity:1;fill-rule:evenodd;stroke:#000000;stroke-width:8;stroke-linecap:butt;stroke-linejoin:miter;stroke-miterlimit:4;stroke-dasharray:none;stroke-opacity:1"
           d="m -602.05962,588.70072 -51.10153,-31.23231"
           id="path10916-7-0-0"
           inkscape:path-effect="#path-effect10918-6-7-7"
           inkscape:original-d="m -602.05962,588.70072 -51.10153,-31.23231"
           inkscape:connector-curvature="0"
           inkscape:transform-center-x="-23.16982"
           inkscape:transform-center-y="13.824007" />
        <path
           style="fill:#ff0000;fill-opacity:1;fill-rule:evenodd;stroke:#000000;stroke-width:8;stroke-linecap:butt;stroke-linejoin:miter;stroke-miterlimit:4;stroke-dasharray:none;stroke-opacity:1"
           d="m -270.93451,588.70072 51.10153,-31.23231"
           id="path10916-7-0-0-4"
           inkscape:path-effect="#path-effect10918-6-7-7-5"
           inkscape:original-d="m -270.93451,588.70072 51.10153,-31.23231"
           inkscape:connector-curvature="0"
           inkscape:transform-center-x="23.16982"
           inkscape:transform-center-y="13.824007" />
      </g>
      <g
         transform="translate(-0.09689483,0)"
         id="g11054"
         style="fill:#ff0000;fill-opacity:1;stroke:#000000;stroke-opacity:1">
        <path
           style="fill:#ff0000;fill-opacity:1;fill-rule:evenodd;stroke:#000000;stroke-width:8;stroke-linecap:butt;stroke-linejoin:miter;stroke-miterlimit:4;stroke-dasharray:none;stroke-opacity:1"
           d="m -625.47266,640.86536 -56.21156,-20.66601"
           id="path10916-7-0-0-3"
           inkscape:path-effect="#path-effect10918-6-7-7-0"
           inkscape:original-d="m -625.47266,640.86536 -56.21156,-20.66601"
           inkscape:connector-curvature="0"
           inkscape:transform-center-x="-25.421025"
           inkscape:transform-center-y="9.039637" />
        <path
           style="fill:#ff0000;fill-opacity:1;fill-rule:evenodd;stroke:#000000;stroke-width:8;stroke-linecap:butt;stroke-linejoin:miter;stroke-miterlimit:4;stroke-dasharray:none;stroke-opacity:1"
           d="m -247.31689,640.86536 56.21156,-20.66601"
           id="path10916-7-0-0-3-1"
           inkscape:path-effect="#path-effect10918-6-7-7-0-7"
           inkscape:original-d="m -247.31689,640.86536 56.21156,-20.66601"
           inkscape:connector-curvature="0"
           inkscape:transform-center-x="25.421025"
           inkscape:transform-center-y="9.039637" />
      </g>
    </g>
    <path
       style="fill:none;fill-rule:evenodd;stroke:#000000;stroke-width:11;stroke-opacity:1"
       inkscape:connector-curvature="0"
       d="m 25.2691,55.26363 13.398,416.62441 c 7.415,175.24977 153.9198,314.04607 331.58926,314.14417 177.5097,-0.2149 324.0694,-139.0612 331.5894,-314.14417 l 13.398,-416.62441 -344.9794,0 z"
       id="path10563-0" />
  </g>
</svg>
