<?xml version="1.0" encoding="UTF-8" standalone="no"?>
<!-- Created with Inkscape (http://www.inkscape.org/) -->

<svg
   width="157.23622mm"
   height="192.23048mm"
   viewBox="0 0 157.23622 192.23048"
   version="1.1"
   id="svg10654"
   inkscape:version="1.2.2 (732a01da63, 2022-12-09)"
   sodipodi:docname="DEU Ammersbek COA.svg"
   xmlns:inkscape="http://www.inkscape.org/namespaces/inkscape"
   xmlns:sodipodi="http://sodipodi.sourceforge.net/DTD/sodipodi-0.dtd"
   xmlns="http://www.w3.org/2000/svg"
   xmlns:svg="http://www.w3.org/2000/svg">
  <sodipodi:namedview
     id="namedview10656"
     pagecolor="#ffffff"
     bordercolor="#666666"
     borderopacity="1.0"
     inkscape:showpageshadow="2"
     inkscape:pageopacity="0.0"
     inkscape:pagecheckerboard="0"
     inkscape:deskcolor="#d1d1d1"
     inkscape:document-units="mm"
     showgrid="false"
     inkscape:zoom="0.73675163"
     inkscape:cx="297.92944"
     inkscape:cy="364.43761"
     inkscape:current-layer="layer1" />
  <defs
     id="defs10651" />
  <g
     inkscape:label="Ebene 1"
     inkscape:groupmode="layer"
     id="layer1"
     transform="translate(-531.74205,-46.092389)">
    <g
       id="g10306"
       transform="translate(504.17647,-11.67652)">
      <path
         id="path9469"
         style="fill:#ffffff;fill-opacity:1;stroke:#000000;stroke-width:1.5;stroke-linecap:butt;stroke-dasharray:none"
         d="M 28.315584,58.518909 V 171.38127 a 77.868111,77.868111 0 0 0 77.868116,77.86812 77.868111,77.868111 0 0 0 77.86811,-77.86812 V 58.518909 Z" />
      <g
         id="g8326"
         transform="translate(-187.27669,1.6318085)">
        <g
           id="g8044">
          <path
             id="path899"
             style="fill:#00a000;fill-opacity:1;stroke:#000000;stroke-width:0.600001;stroke-linecap:round"
             d="m 293.38209,125.80627 c 0,0 -0.41597,1.29537 -0.53743,3.88245 -0.12783,2.72284 -0.47658,6.51189 -0.52038,7.49102 -0.0834,1.86318 -1.26298,1.17357 -1.26298,1.17357 l -11.4639,-5.64306 c 0,0 7.92497,5.48612 10.32392,6.9019 2.39898,1.41579 2.20193,2.94917 2.20193,2.94917 0,0 -0.0784,7.39369 -0.19637,9.4387 -0.11797,2.04502 -2.71353,0.82579 -2.71353,0.82579 l -12.31416,-5.1075 c 0,0 7.24077,4.16381 11.29149,6.13018 4.05071,1.96636 3.85558,4.6607 3.85558,4.6607 l -0.38964,23.13657 1.72547,0.16691 1.72496,-0.16691 -0.38964,-23.13657 c 0,0 -0.19514,-2.69434 3.85558,-4.6607 4.05072,-1.96637 11.34763,-6.07456 11.34763,-6.07456 l -12.36979,5.05188 c 0,0 -2.59608,1.21923 -2.71405,-0.82579 -0.11798,-2.04501 -0.19637,-9.4387 -0.19637,-9.4387 0,0 -0.19652,-1.53338 2.20245,-2.94917 2.39895,-1.41578 10.3234,-6.9019 10.3234,-6.9019 l -11.4639,5.64306 c 0,0 -1.17957,0.68961 -1.26297,-1.17357 -0.0438,-0.97913 -0.39203,-4.76818 -0.51986,-7.49102 -0.12146,-2.58708 -0.53744,-3.88245 -0.53744,-3.88245 z"
             sodipodi:nodetypes="cssccscsccscccccsccscsccssc" />
          <path
             style="fill:#00a000;fill-opacity:1;stroke:#000000;stroke-width:0.600001;stroke-linecap:round"
             d="m 287.81708,155.42161 c 0,0 -2.69394,-1.88771 -5.6828,-0.29496 -2.9889,1.59276 -3.22485,4.50298 -3.22485,4.50298 0,0 2.81189,1.73041 5.56482,0.47193 2.75292,-1.25847 3.34283,-4.67995 3.34283,-4.67995 z"
             id="path1123"
             sodipodi:nodetypes="cscsc" />
          <path
             style="fill:#00a000;fill-opacity:1;stroke:#000000;stroke-width:0.600001;stroke-linecap:round"
             d="m 280.86708,152.11316 c 0,0 -1.83536,-2.39154 -5.70076,-1.36262 -3.8654,1.02892 -4.06006,4.17129 -4.06006,4.17129 0,0 2.47497,2.33593 5.56173,1.47386 3.08676,-0.86207 4.19909,-4.28253 4.19909,-4.28253 z"
             id="path1125" />
          <path
             style="fill:#00a000;fill-opacity:1;stroke:#000000;stroke-width:0.600001;stroke-linecap:round"
             d="m 277.00168,147.80283 c 0,0 0.13904,-3.47608 -3.44826,-5.08898 -3.58733,-1.6129 -5.70077,0.3337 -5.70077,0.3337 0,0 0.5325,3.41171 2.72524,4.81089 2.91991,1.86318 6.42379,-0.0556 6.42379,-0.0556 z"
             id="path1127"
             sodipodi:nodetypes="cscscc" />
          <path
             style="fill:#00a000;fill-opacity:1;stroke:#000000;stroke-width:0.600001;stroke-linecap:round"
             d="m 283.23542,148.89327 c 0,0 -3.69676,-0.27529 -5.1912,-3.26417 -1.49442,-2.98887 -0.1573,-5.28952 -0.1573,-5.28952 0,0 3.53947,0.19664 4.93557,2.63493 1.39612,2.43829 0.41293,5.91876 0.41293,5.91876 z"
             id="path1129" />
          <path
             style="fill:#00a000;fill-opacity:1;stroke:#000000;stroke-width:0.600001;stroke-linecap:round"
             d="m 289.27218,150.48603 c 0,0 -3.18553,-0.70789 -3.89339,-4.26702 -0.69034,-3.47103 1.33712,-5.42717 1.33712,-5.42717 0,0 2.98888,0.96353 3.87374,4.30635 0.8753,3.30668 -1.31747,5.38784 -1.31747,5.38784 z"
             id="path1131"
             sodipodi:nodetypes="cscsc" />
          <path
             style="fill:#00a000;fill-opacity:1;stroke:#000000;stroke-width:0.600001;stroke-linecap:round"
             d="m 283.49106,137.37037 c 0,0 -1.55342,-2.81191 -4.75861,-2.6546 -3.20519,0.15731 -4.50297,2.24166 -4.50297,2.24166 0,0 1.45036,2.11237 4.07038,2.32031 3.71642,0.29496 5.1912,-1.90737 5.1912,-1.90737 z"
             id="path1146"
             sodipodi:nodetypes="cscsc" />
          <path
             style="fill:#00a000;fill-opacity:1;stroke:#000000;stroke-width:0.600001;stroke-linecap:round"
             d="m 279.93194,132.76907 c 0,0 -0.13763,-3.63778 -3.04787,-5.17154 -2.91023,-1.53377 -5.01425,-0.57025 -5.01425,-0.57025 0,0 -0.15729,3.14618 2.281,4.87659 2.4383,1.7304 5.78112,0.8652 5.78112,0.8652 z"
             id="path1148"
             sodipodi:nodetypes="cscsc" />
          <path
             style="fill:#00a000;fill-opacity:1;stroke:#000000;stroke-width:0.600001;stroke-linecap:round"
             d="m 285.94902,134.14552 c 0,0 -3.18552,-0.23596 -4.62097,-3.06753 -1.24222,-2.45041 -0.21631,-5.15188 -0.21631,-5.15188 0,0 2.61528,0.27529 4.2277,3.0872 1.61243,2.8119 0.60958,5.13221 0.60958,5.13221 z"
             id="path1150"
             sodipodi:nodetypes="cscsc" />
          <path
             style="fill:#00a000;fill-opacity:1;stroke:#000000;stroke-width:0.600001;stroke-linecap:round"
             d="m 290.92392,132.71008 c 0,0 -2.79222,-0.53092 -4.05071,-3.5198 -1.25847,-2.98888 0,-4.97491 0,-4.97491 0,0 2.79225,0.47193 4.10972,3.18552 1.31746,2.71358 -0.059,5.30919 -0.059,5.30919 z"
             id="path1152" />
          <path
             id="path1154"
             style="fill:#00a000;fill-opacity:1;stroke:#000000;stroke-width:0.600001;stroke-linecap:round"
             d="m 293.38209,116.97891 c 0,0 -2.49751,0.72485 -2.49752,4.1491 -2e-5,3.57878 2.49752,4.67878 2.49752,4.67878 0,0 2.49703,-1.1 2.49701,-4.67878 -10e-6,-3.42425 -2.49701,-4.1491 -2.49701,-4.1491 z" />
          <path
             style="fill:#000000;stroke:#000000;stroke-width:0.1;stroke-linecap:round;stroke-dasharray:none"
             d="m 289.01501,154.40737 c 0,0 -8.99981,4.38911 -8.94047,4.53281 0.13207,0.3198 9.81644,-3.94883 9.81644,-3.94883 z"
             id="path1158"
             sodipodi:nodetypes="cscc" />
          <path
             style="fill:#000000;stroke:#000000;stroke-width:0.1;stroke-linecap:round;stroke-dasharray:none"
             d="m 282.82249,151.23325 c 0,0 -10.48073,2.89056 -10.42173,3.16585 0.059,0.27529 11.46392,-2.63493 11.46392,-2.63493 z"
             id="path1214" />
          <path
             style="fill:#000000;stroke:#000000;stroke-width:0.1;stroke-linecap:round;stroke-dasharray:none"
             d="m 277.25769,147.55614 c 0,0 -8.00311,-4.16869 -8.14078,-3.95239 -0.13763,0.2163 7.47221,4.34567 7.47221,4.34567 z"
             id="path1216" />
          <path
             style="fill:#000000;stroke:#000000;stroke-width:0.1;stroke-linecap:round;stroke-dasharray:none"
             d="m 284.98551,150.99729 c 0,0 -5.9581,-9.6352 -6.13508,-9.45823 -0.17698,0.17698 4.81761,8.9863 4.81761,8.9863 z"
             id="path1218" />
          <path
             style="fill:#000000;stroke:#000000;stroke-width:0.1;stroke-linecap:round;stroke-dasharray:none"
             d="m 289.6268,153.00304 c 0,0 -2.78087,-10.70632 -2.55838,-10.84536 0.22246,-0.13905 3.44826,10.95659 3.44826,10.95659 z"
             id="path1242" />
          <path
             style="fill:#000000;stroke:#000000;stroke-width:0.1;stroke-linecap:round;stroke-dasharray:none"
             d="m 285.46941,136.86013 c 0,0 -9.95548,-0.0834 -9.95548,0.0973 0,0.18076 11.19296,0.79255 11.19296,0.79255 z"
             id="path1244" />
          <path
             style="fill:#000000;stroke:#000000;stroke-width:0.1;stroke-linecap:round;stroke-dasharray:none"
             d="m 280.42213,132.85569 c 0,0 -7.4944,-5.28364 -7.63346,-5.1724 -0.13904,0.11123 6.99389,5.35316 6.99389,5.35316 z"
             id="path1246" />
          <path
             style="fill:#000000;stroke:#000000;stroke-width:0.1;stroke-linecap:round;stroke-dasharray:none"
             d="m 287.67942,136.56415 c 0,0 -5.6238,-9.53687 -5.85978,-9.45822 -0.23596,0.0787 4.69963,8.86831 4.69963,8.86831 z"
             id="path1248" />
          <path
             style="fill:#000000;stroke:#000000;stroke-width:0.1;stroke-linecap:round;stroke-dasharray:none"
             d="m 292.12341,136.03324 c 0,0 -4.83727,-10.20545 -4.71929,-10.26444 0.118,-0.059 4.99459,8.67168 4.99459,8.67168 z"
             id="path1250" />
          <path
             style="fill:#00a000;fill-opacity:1;stroke:#000000;stroke-width:0.600001;stroke-linecap:round"
             d="m 298.94668,155.42161 c 0,0 2.69394,-1.88771 5.6828,-0.29496 2.9889,1.59276 3.22485,4.50298 3.22485,4.50298 0,0 -2.81189,1.73041 -5.56482,0.47193 -2.75292,-1.25847 -3.34283,-4.67995 -3.34283,-4.67995 z"
             id="path4405"
             sodipodi:nodetypes="cscsc" />
          <path
             style="fill:#00a000;fill-opacity:1;stroke:#000000;stroke-width:0.600001;stroke-linecap:round"
             d="m 305.89668,152.11316 c 0,0 1.83536,-2.39154 5.70076,-1.36262 3.8654,1.02892 4.06006,4.17129 4.06006,4.17129 0,0 -2.47497,2.33593 -5.56173,1.47386 -3.08676,-0.86207 -4.19909,-4.28253 -4.19909,-4.28253 z"
             id="path4407" />
          <path
             style="fill:#00a000;fill-opacity:1;stroke:#000000;stroke-width:0.600001;stroke-linecap:round"
             d="m 309.76208,147.80283 c 0,0 -0.13904,-3.47608 3.44826,-5.08898 3.58733,-1.6129 5.70077,0.3337 5.70077,0.3337 0,0 -0.5325,3.41171 -2.72524,4.81089 -2.91991,1.86318 -6.42379,-0.0556 -6.42379,-0.0556 z"
             id="path4409"
             sodipodi:nodetypes="cscscc" />
          <path
             style="fill:#00a000;fill-opacity:1;stroke:#000000;stroke-width:0.600001;stroke-linecap:round"
             d="m 303.52834,148.89327 c 0,0 3.69676,-0.27529 5.1912,-3.26417 1.49442,-2.98887 0.1573,-5.28952 0.1573,-5.28952 0,0 -3.53947,0.19664 -4.93557,2.63493 -1.39612,2.43829 -0.41293,5.91876 -0.41293,5.91876 z"
             id="path4411" />
          <path
             style="fill:#00a000;fill-opacity:1;stroke:#000000;stroke-width:0.600001;stroke-linecap:round"
             d="m 297.49158,150.48603 c 0,0 3.18553,-0.70789 3.89339,-4.26702 0.69034,-3.47103 -1.33712,-5.42717 -1.33712,-5.42717 0,0 -2.98888,0.96353 -3.87374,4.30635 -0.8753,3.30668 1.31747,5.38784 1.31747,5.38784 z"
             id="path4413"
             sodipodi:nodetypes="cscsc" />
          <path
             style="fill:#00a000;fill-opacity:1;stroke:#000000;stroke-width:0.600001;stroke-linecap:round"
             d="m 303.2727,137.37037 c 0,0 1.55342,-2.81191 4.75861,-2.6546 3.20519,0.15731 4.50297,2.24166 4.50297,2.24166 0,0 -1.45036,2.11237 -4.07038,2.32031 -3.71642,0.29496 -5.1912,-1.90737 -5.1912,-1.90737 z"
             id="path4415"
             sodipodi:nodetypes="cscsc" />
          <path
             style="fill:#00a000;fill-opacity:1;stroke:#000000;stroke-width:0.600001;stroke-linecap:round"
             d="m 306.83182,132.76907 c 0,0 0.13763,-3.63778 3.04787,-5.17154 2.91023,-1.53377 5.01425,-0.57025 5.01425,-0.57025 0,0 0.15729,3.14618 -2.281,4.87659 -2.4383,1.7304 -5.78112,0.8652 -5.78112,0.8652 z"
             id="path4417"
             sodipodi:nodetypes="cscsc" />
          <path
             style="fill:#00a000;fill-opacity:1;stroke:#000000;stroke-width:0.600001;stroke-linecap:round"
             d="m 300.81474,134.14552 c 0,0 3.18552,-0.23596 4.62097,-3.06753 1.24222,-2.45041 0.21631,-5.15188 0.21631,-5.15188 0,0 -2.61528,0.27529 -4.2277,3.0872 -1.61243,2.8119 -0.60958,5.13221 -0.60958,5.13221 z"
             id="path4419"
             sodipodi:nodetypes="cscsc" />
          <path
             style="fill:#00a000;fill-opacity:1;stroke:#000000;stroke-width:0.600001;stroke-linecap:round"
             d="m 295.83984,132.71008 c 0,0 2.79222,-0.53092 4.05071,-3.5198 1.25847,-2.98888 0,-4.97491 0,-4.97491 0,0 -2.79225,0.47193 -4.10972,3.18552 -1.31746,2.71358 0.059,5.30919 0.059,5.30919 z"
             id="path4421" />
          <path
             style="fill:#000000;stroke:#000000;stroke-width:0.1;stroke-linecap:round;stroke-dasharray:none"
             d="m 297.74875,154.40737 c 0,0 8.99981,4.38911 8.94047,4.53281 -0.13207,0.3198 -9.81644,-3.94883 -9.81644,-3.94883 z"
             id="path4425"
             sodipodi:nodetypes="cscc" />
          <path
             style="fill:#000000;stroke:#000000;stroke-width:0.1;stroke-linecap:round;stroke-dasharray:none"
             d="m 303.94127,151.23325 c 0,0 10.48073,2.89056 10.42173,3.16585 -0.059,0.27529 -11.46392,-2.63493 -11.46392,-2.63493 z"
             id="path4427" />
          <path
             style="fill:#000000;stroke:#000000;stroke-width:0.1;stroke-linecap:round;stroke-dasharray:none"
             d="m 309.50607,147.55614 c 0,0 8.00311,-4.16869 8.14078,-3.95239 0.13763,0.2163 -7.47221,4.34567 -7.47221,4.34567 z"
             id="path4429" />
          <path
             style="fill:#000000;stroke:#000000;stroke-width:0.1;stroke-linecap:round;stroke-dasharray:none"
             d="m 301.77825,150.99729 c 0,0 5.9581,-9.6352 6.13508,-9.45823 0.17698,0.17698 -4.81761,8.9863 -4.81761,8.9863 z"
             id="path4431" />
          <path
             style="fill:#000000;stroke:#000000;stroke-width:0.1;stroke-linecap:round;stroke-dasharray:none"
             d="m 297.13696,153.00304 c 0,0 2.78087,-10.70632 2.55838,-10.84536 -0.22246,-0.13905 -3.44826,10.95659 -3.44826,10.95659 z"
             id="path4433" />
          <path
             style="fill:#000000;stroke:#000000;stroke-width:0.1;stroke-linecap:round;stroke-dasharray:none"
             d="m 301.29435,136.86013 c 0,0 9.95548,-0.0834 9.95548,0.0973 0,0.18076 -11.19296,0.79255 -11.19296,0.79255 z"
             id="path4435" />
          <path
             style="fill:#000000;stroke:#000000;stroke-width:0.1;stroke-linecap:round;stroke-dasharray:none"
             d="m 306.34163,132.85569 c 0,0 7.4944,-5.28364 7.63346,-5.1724 0.13904,0.11123 -6.99389,5.35316 -6.99389,5.35316 z"
             id="path4437" />
          <path
             style="fill:#000000;stroke:#000000;stroke-width:0.1;stroke-linecap:round;stroke-dasharray:none"
             d="m 299.08434,136.56415 c 0,0 5.6238,-9.53687 5.85978,-9.45822 0.23596,0.0787 -4.69963,8.86831 -4.69963,8.86831 z"
             id="path4439" />
          <path
             style="fill:#000000;stroke:#000000;stroke-width:0.1;stroke-linecap:round;stroke-dasharray:none"
             d="m 294.64035,136.03324 c 0,0 4.83727,-10.20545 4.71929,-10.26444 -0.118,-0.059 -4.99459,8.67168 -4.99459,8.67168 z"
             id="path4441" />
          <path
             style="fill:#000000;fill-opacity:1;stroke:#000000;stroke-width:0.1;stroke-linecap:round;stroke-dasharray:none"
             d="m 292.77766,127.8858 c 0,0 0.38792,-9.54986 0.54524,-9.47121 0.1573,0.0787 0.66223,9.49984 0.66223,9.49984 z"
             id="path4484"
             sodipodi:nodetypes="cscc" />
        </g>
        <g
           id="g8124"
           transform="translate(-48.9232,14.157839)">
          <path
             id="path8046"
             style="fill:#00a000;fill-opacity:1;stroke:#000000;stroke-width:0.600001;stroke-linecap:round"
             d="m 293.38209,125.80627 c 0,0 -0.41597,1.29537 -0.53743,3.88245 -0.12783,2.72284 -0.47658,6.51189 -0.52038,7.49102 -0.0834,1.86318 -1.26298,1.17357 -1.26298,1.17357 l -11.4639,-5.64306 c 0,0 7.92497,5.48612 10.32392,6.9019 2.39898,1.41579 2.20193,2.94917 2.20193,2.94917 0,0 -0.0784,7.39369 -0.19637,9.4387 -0.11797,2.04502 -2.71353,0.82579 -2.71353,0.82579 l -12.31416,-5.1075 c 0,0 7.24077,4.16381 11.29149,6.13018 4.05071,1.96636 3.85558,4.6607 3.85558,4.6607 l -0.38964,23.13657 1.72547,0.16691 1.72496,-0.16691 -0.38964,-23.13657 c 0,0 -0.19514,-2.69434 3.85558,-4.6607 4.05072,-1.96637 11.34763,-6.07456 11.34763,-6.07456 l -12.36979,5.05188 c 0,0 -2.59608,1.21923 -2.71405,-0.82579 -0.11798,-2.04501 -0.19637,-9.4387 -0.19637,-9.4387 0,0 -0.19652,-1.53338 2.20245,-2.94917 2.39895,-1.41578 10.3234,-6.9019 10.3234,-6.9019 l -11.4639,5.64306 c 0,0 -1.17957,0.68961 -1.26297,-1.17357 -0.0438,-0.97913 -0.39203,-4.76818 -0.51986,-7.49102 -0.12146,-2.58708 -0.53744,-3.88245 -0.53744,-3.88245 z"
             sodipodi:nodetypes="cssccscsccscccccsccscsccssc" />
          <path
             style="fill:#00a000;fill-opacity:1;stroke:#000000;stroke-width:0.600001;stroke-linecap:round"
             d="m 287.81708,155.42161 c 0,0 -2.69394,-1.88771 -5.6828,-0.29496 -2.9889,1.59276 -3.22485,4.50298 -3.22485,4.50298 0,0 2.81189,1.73041 5.56482,0.47193 2.75292,-1.25847 3.34283,-4.67995 3.34283,-4.67995 z"
             id="path8048"
             sodipodi:nodetypes="cscsc" />
          <path
             style="fill:#00a000;fill-opacity:1;stroke:#000000;stroke-width:0.600001;stroke-linecap:round"
             d="m 280.86708,152.11316 c 0,0 -1.83536,-2.39154 -5.70076,-1.36262 -3.8654,1.02892 -4.06006,4.17129 -4.06006,4.17129 0,0 2.47497,2.33593 5.56173,1.47386 3.08676,-0.86207 4.19909,-4.28253 4.19909,-4.28253 z"
             id="path8050" />
          <path
             style="fill:#00a000;fill-opacity:1;stroke:#000000;stroke-width:0.600001;stroke-linecap:round"
             d="m 277.00168,147.80283 c 0,0 0.13904,-3.47608 -3.44826,-5.08898 -3.58733,-1.6129 -5.70077,0.3337 -5.70077,0.3337 0,0 0.5325,3.41171 2.72524,4.81089 2.91991,1.86318 6.42379,-0.0556 6.42379,-0.0556 z"
             id="path8052"
             sodipodi:nodetypes="cscscc" />
          <path
             style="fill:#00a000;fill-opacity:1;stroke:#000000;stroke-width:0.600001;stroke-linecap:round"
             d="m 283.23542,148.89327 c 0,0 -3.69676,-0.27529 -5.1912,-3.26417 -1.49442,-2.98887 -0.1573,-5.28952 -0.1573,-5.28952 0,0 3.53947,0.19664 4.93557,2.63493 1.39612,2.43829 0.41293,5.91876 0.41293,5.91876 z"
             id="path8054" />
          <path
             style="fill:#00a000;fill-opacity:1;stroke:#000000;stroke-width:0.600001;stroke-linecap:round"
             d="m 289.27218,150.48603 c 0,0 -3.18553,-0.70789 -3.89339,-4.26702 -0.69034,-3.47103 1.33712,-5.42717 1.33712,-5.42717 0,0 2.98888,0.96353 3.87374,4.30635 0.8753,3.30668 -1.31747,5.38784 -1.31747,5.38784 z"
             id="path8056"
             sodipodi:nodetypes="cscsc" />
          <path
             style="fill:#00a000;fill-opacity:1;stroke:#000000;stroke-width:0.600001;stroke-linecap:round"
             d="m 283.49106,137.37037 c 0,0 -1.55342,-2.81191 -4.75861,-2.6546 -3.20519,0.15731 -4.50297,2.24166 -4.50297,2.24166 0,0 1.45036,2.11237 4.07038,2.32031 3.71642,0.29496 5.1912,-1.90737 5.1912,-1.90737 z"
             id="path8058"
             sodipodi:nodetypes="cscsc" />
          <path
             style="fill:#00a000;fill-opacity:1;stroke:#000000;stroke-width:0.600001;stroke-linecap:round"
             d="m 279.93194,132.76907 c 0,0 -0.13763,-3.63778 -3.04787,-5.17154 -2.91023,-1.53377 -5.01425,-0.57025 -5.01425,-0.57025 0,0 -0.15729,3.14618 2.281,4.87659 2.4383,1.7304 5.78112,0.8652 5.78112,0.8652 z"
             id="path8060"
             sodipodi:nodetypes="cscsc" />
          <path
             style="fill:#00a000;fill-opacity:1;stroke:#000000;stroke-width:0.600001;stroke-linecap:round"
             d="m 285.94902,134.14552 c 0,0 -3.18552,-0.23596 -4.62097,-3.06753 -1.24222,-2.45041 -0.21631,-5.15188 -0.21631,-5.15188 0,0 2.61528,0.27529 4.2277,3.0872 1.61243,2.8119 0.60958,5.13221 0.60958,5.13221 z"
             id="path8062"
             sodipodi:nodetypes="cscsc" />
          <path
             style="fill:#00a000;fill-opacity:1;stroke:#000000;stroke-width:0.600001;stroke-linecap:round"
             d="m 290.92392,132.71008 c 0,0 -2.79222,-0.53092 -4.05071,-3.5198 -1.25847,-2.98888 0,-4.97491 0,-4.97491 0,0 2.79225,0.47193 4.10972,3.18552 1.31746,2.71358 -0.059,5.30919 -0.059,5.30919 z"
             id="path8064" />
          <path
             id="path8066"
             style="fill:#00a000;fill-opacity:1;stroke:#000000;stroke-width:0.600001;stroke-linecap:round"
             d="m 293.38209,116.97891 c 0,0 -2.49751,0.72485 -2.49752,4.1491 -2e-5,3.57878 2.49752,4.67878 2.49752,4.67878 0,0 2.49703,-1.1 2.49701,-4.67878 -10e-6,-3.42425 -2.49701,-4.1491 -2.49701,-4.1491 z" />
          <path
             style="fill:#000000;stroke:#000000;stroke-width:0.1;stroke-linecap:round;stroke-dasharray:none"
             d="m 289.01501,154.40737 c 0,0 -8.99981,4.38911 -8.94047,4.53281 0.13207,0.3198 9.81644,-3.94883 9.81644,-3.94883 z"
             id="path8068"
             sodipodi:nodetypes="cscc" />
          <path
             style="fill:#000000;stroke:#000000;stroke-width:0.1;stroke-linecap:round;stroke-dasharray:none"
             d="m 282.82249,151.23325 c 0,0 -10.48073,2.89056 -10.42173,3.16585 0.059,0.27529 11.46392,-2.63493 11.46392,-2.63493 z"
             id="path8070" />
          <path
             style="fill:#000000;stroke:#000000;stroke-width:0.1;stroke-linecap:round;stroke-dasharray:none"
             d="m 277.25769,147.55614 c 0,0 -8.00311,-4.16869 -8.14078,-3.95239 -0.13763,0.2163 7.47221,4.34567 7.47221,4.34567 z"
             id="path8072" />
          <path
             style="fill:#000000;stroke:#000000;stroke-width:0.1;stroke-linecap:round;stroke-dasharray:none"
             d="m 284.98551,150.99729 c 0,0 -5.9581,-9.6352 -6.13508,-9.45823 -0.17698,0.17698 4.81761,8.9863 4.81761,8.9863 z"
             id="path8074" />
          <path
             style="fill:#000000;stroke:#000000;stroke-width:0.1;stroke-linecap:round;stroke-dasharray:none"
             d="m 289.6268,153.00304 c 0,0 -2.78087,-10.70632 -2.55838,-10.84536 0.22246,-0.13905 3.44826,10.95659 3.44826,10.95659 z"
             id="path8076" />
          <path
             style="fill:#000000;stroke:#000000;stroke-width:0.1;stroke-linecap:round;stroke-dasharray:none"
             d="m 285.46941,136.86013 c 0,0 -9.95548,-0.0834 -9.95548,0.0973 0,0.18076 11.19296,0.79255 11.19296,0.79255 z"
             id="path8078" />
          <path
             style="fill:#000000;stroke:#000000;stroke-width:0.1;stroke-linecap:round;stroke-dasharray:none"
             d="m 280.42213,132.85569 c 0,0 -7.4944,-5.28364 -7.63346,-5.1724 -0.13904,0.11123 6.99389,5.35316 6.99389,5.35316 z"
             id="path8080" />
          <path
             style="fill:#000000;stroke:#000000;stroke-width:0.1;stroke-linecap:round;stroke-dasharray:none"
             d="m 287.67942,136.56415 c 0,0 -5.6238,-9.53687 -5.85978,-9.45822 -0.23596,0.0787 4.69963,8.86831 4.69963,8.86831 z"
             id="path8082" />
          <path
             style="fill:#000000;stroke:#000000;stroke-width:0.1;stroke-linecap:round;stroke-dasharray:none"
             d="m 292.12341,136.03324 c 0,0 -4.83727,-10.20545 -4.71929,-10.26444 0.118,-0.059 4.99459,8.67168 4.99459,8.67168 z"
             id="path8084" />
          <path
             style="fill:#00a000;fill-opacity:1;stroke:#000000;stroke-width:0.600001;stroke-linecap:round"
             d="m 298.94668,155.42161 c 0,0 2.69394,-1.88771 5.6828,-0.29496 2.9889,1.59276 3.22485,4.50298 3.22485,4.50298 0,0 -2.81189,1.73041 -5.56482,0.47193 -2.75292,-1.25847 -3.34283,-4.67995 -3.34283,-4.67995 z"
             id="path8086"
             sodipodi:nodetypes="cscsc" />
          <path
             style="fill:#00a000;fill-opacity:1;stroke:#000000;stroke-width:0.600001;stroke-linecap:round"
             d="m 305.89668,152.11316 c 0,0 1.83536,-2.39154 5.70076,-1.36262 3.8654,1.02892 4.06006,4.17129 4.06006,4.17129 0,0 -2.47497,2.33593 -5.56173,1.47386 -3.08676,-0.86207 -4.19909,-4.28253 -4.19909,-4.28253 z"
             id="path8088" />
          <path
             style="fill:#00a000;fill-opacity:1;stroke:#000000;stroke-width:0.600001;stroke-linecap:round"
             d="m 309.76208,147.80283 c 0,0 -0.13904,-3.47608 3.44826,-5.08898 3.58733,-1.6129 5.70077,0.3337 5.70077,0.3337 0,0 -0.5325,3.41171 -2.72524,4.81089 -2.91991,1.86318 -6.42379,-0.0556 -6.42379,-0.0556 z"
             id="path8090"
             sodipodi:nodetypes="cscscc" />
          <path
             style="fill:#00a000;fill-opacity:1;stroke:#000000;stroke-width:0.600001;stroke-linecap:round"
             d="m 303.52834,148.89327 c 0,0 3.69676,-0.27529 5.1912,-3.26417 1.49442,-2.98887 0.1573,-5.28952 0.1573,-5.28952 0,0 -3.53947,0.19664 -4.93557,2.63493 -1.39612,2.43829 -0.41293,5.91876 -0.41293,5.91876 z"
             id="path8092" />
          <path
             style="fill:#00a000;fill-opacity:1;stroke:#000000;stroke-width:0.600001;stroke-linecap:round"
             d="m 297.49158,150.48603 c 0,0 3.18553,-0.70789 3.89339,-4.26702 0.69034,-3.47103 -1.33712,-5.42717 -1.33712,-5.42717 0,0 -2.98888,0.96353 -3.87374,4.30635 -0.8753,3.30668 1.31747,5.38784 1.31747,5.38784 z"
             id="path8094"
             sodipodi:nodetypes="cscsc" />
          <path
             style="fill:#00a000;fill-opacity:1;stroke:#000000;stroke-width:0.600001;stroke-linecap:round"
             d="m 303.2727,137.37037 c 0,0 1.55342,-2.81191 4.75861,-2.6546 3.20519,0.15731 4.50297,2.24166 4.50297,2.24166 0,0 -1.45036,2.11237 -4.07038,2.32031 -3.71642,0.29496 -5.1912,-1.90737 -5.1912,-1.90737 z"
             id="path8096"
             sodipodi:nodetypes="cscsc" />
          <path
             style="fill:#00a000;fill-opacity:1;stroke:#000000;stroke-width:0.600001;stroke-linecap:round"
             d="m 306.83182,132.76907 c 0,0 0.13763,-3.63778 3.04787,-5.17154 2.91023,-1.53377 5.01425,-0.57025 5.01425,-0.57025 0,0 0.15729,3.14618 -2.281,4.87659 -2.4383,1.7304 -5.78112,0.8652 -5.78112,0.8652 z"
             id="path8098"
             sodipodi:nodetypes="cscsc" />
          <path
             style="fill:#00a000;fill-opacity:1;stroke:#000000;stroke-width:0.600001;stroke-linecap:round"
             d="m 300.81474,134.14552 c 0,0 3.18552,-0.23596 4.62097,-3.06753 1.24222,-2.45041 0.21631,-5.15188 0.21631,-5.15188 0,0 -2.61528,0.27529 -4.2277,3.0872 -1.61243,2.8119 -0.60958,5.13221 -0.60958,5.13221 z"
             id="path8100"
             sodipodi:nodetypes="cscsc" />
          <path
             style="fill:#00a000;fill-opacity:1;stroke:#000000;stroke-width:0.600001;stroke-linecap:round"
             d="m 295.83984,132.71008 c 0,0 2.79222,-0.53092 4.05071,-3.5198 1.25847,-2.98888 0,-4.97491 0,-4.97491 0,0 -2.79225,0.47193 -4.10972,3.18552 -1.31746,2.71358 0.059,5.30919 0.059,5.30919 z"
             id="path8102" />
          <path
             style="fill:#000000;stroke:#000000;stroke-width:0.1;stroke-linecap:round;stroke-dasharray:none"
             d="m 297.74875,154.40737 c 0,0 8.99981,4.38911 8.94047,4.53281 -0.13207,0.3198 -9.81644,-3.94883 -9.81644,-3.94883 z"
             id="path8104"
             sodipodi:nodetypes="cscc" />
          <path
             style="fill:#000000;stroke:#000000;stroke-width:0.1;stroke-linecap:round;stroke-dasharray:none"
             d="m 303.94127,151.23325 c 0,0 10.48073,2.89056 10.42173,3.16585 -0.059,0.27529 -11.46392,-2.63493 -11.46392,-2.63493 z"
             id="path8106" />
          <path
             style="fill:#000000;stroke:#000000;stroke-width:0.1;stroke-linecap:round;stroke-dasharray:none"
             d="m 309.50607,147.55614 c 0,0 8.00311,-4.16869 8.14078,-3.95239 0.13763,0.2163 -7.47221,4.34567 -7.47221,4.34567 z"
             id="path8108" />
          <path
             style="fill:#000000;stroke:#000000;stroke-width:0.1;stroke-linecap:round;stroke-dasharray:none"
             d="m 301.77825,150.99729 c 0,0 5.9581,-9.6352 6.13508,-9.45823 0.17698,0.17698 -4.81761,8.9863 -4.81761,8.9863 z"
             id="path8110" />
          <path
             style="fill:#000000;stroke:#000000;stroke-width:0.1;stroke-linecap:round;stroke-dasharray:none"
             d="m 297.13696,153.00304 c 0,0 2.78087,-10.70632 2.55838,-10.84536 -0.22246,-0.13905 -3.44826,10.95659 -3.44826,10.95659 z"
             id="path8112" />
          <path
             style="fill:#000000;stroke:#000000;stroke-width:0.1;stroke-linecap:round;stroke-dasharray:none"
             d="m 301.29435,136.86013 c 0,0 9.95548,-0.0834 9.95548,0.0973 0,0.18076 -11.19296,0.79255 -11.19296,0.79255 z"
             id="path8114" />
          <path
             style="fill:#000000;stroke:#000000;stroke-width:0.1;stroke-linecap:round;stroke-dasharray:none"
             d="m 306.34163,132.85569 c 0,0 7.4944,-5.28364 7.63346,-5.1724 0.13904,0.11123 -6.99389,5.35316 -6.99389,5.35316 z"
             id="path8116" />
          <path
             style="fill:#000000;stroke:#000000;stroke-width:0.1;stroke-linecap:round;stroke-dasharray:none"
             d="m 299.08434,136.56415 c 0,0 5.6238,-9.53687 5.85978,-9.45822 0.23596,0.0787 -4.69963,8.86831 -4.69963,8.86831 z"
             id="path8118" />
          <path
             style="fill:#000000;stroke:#000000;stroke-width:0.1;stroke-linecap:round;stroke-dasharray:none"
             d="m 294.64035,136.03324 c 0,0 4.83727,-10.20545 4.71929,-10.26444 -0.118,-0.059 -4.99459,8.67168 -4.99459,8.67168 z"
             id="path8120" />
          <path
             style="fill:#000000;fill-opacity:1;stroke:#000000;stroke-width:0.1;stroke-linecap:round;stroke-dasharray:none"
             d="m 292.69366,128.77734 c 0,0 0.47192,-10.4414 0.62924,-10.36275 0.1573,0.0787 0.70789,10.44141 0.70789,10.44141 z"
             id="path8122"
             sodipodi:nodetypes="cccc" />
        </g>
        <g
           id="g8204"
           transform="matrix(-1,0,0,1,635.68696,14.157839)"
           inkscape:transform-center-x="-48.923201"
           inkscape:transform-center-y="57.738012">
          <path
             id="path8126"
             style="fill:#00a000;fill-opacity:1;stroke:#000000;stroke-width:0.600001;stroke-linecap:round"
             d="m 293.38209,125.80627 c 0,0 -0.41597,1.29537 -0.53743,3.88245 -0.12783,2.72284 -0.47658,6.51189 -0.52038,7.49102 -0.0834,1.86318 -1.26298,1.17357 -1.26298,1.17357 l -11.4639,-5.64306 c 0,0 7.92497,5.48612 10.32392,6.9019 2.39898,1.41579 2.20193,2.94917 2.20193,2.94917 0,0 -0.0784,7.39369 -0.19637,9.4387 -0.11797,2.04502 -2.71353,0.82579 -2.71353,0.82579 l -12.31416,-5.1075 c 0,0 7.24077,4.16381 11.29149,6.13018 4.05071,1.96636 3.85558,4.6607 3.85558,4.6607 l -0.38964,23.13657 1.72547,0.16691 1.72496,-0.16691 -0.38964,-23.13657 c 0,0 -0.19514,-2.69434 3.85558,-4.6607 4.05072,-1.96637 11.34763,-6.07456 11.34763,-6.07456 l -12.36979,5.05188 c 0,0 -2.59608,1.21923 -2.71405,-0.82579 -0.11798,-2.04501 -0.19637,-9.4387 -0.19637,-9.4387 0,0 -0.19652,-1.53338 2.20245,-2.94917 2.39895,-1.41578 10.3234,-6.9019 10.3234,-6.9019 l -11.4639,5.64306 c 0,0 -1.17957,0.68961 -1.26297,-1.17357 -0.0438,-0.97913 -0.39203,-4.76818 -0.51986,-7.49102 -0.12146,-2.58708 -0.53744,-3.88245 -0.53744,-3.88245 z"
             sodipodi:nodetypes="cssccscsccscccccsccscsccssc" />
          <path
             style="fill:#00a000;fill-opacity:1;stroke:#000000;stroke-width:0.600001;stroke-linecap:round"
             d="m 287.81708,155.42161 c 0,0 -2.69394,-1.88771 -5.6828,-0.29496 -2.9889,1.59276 -3.22485,4.50298 -3.22485,4.50298 0,0 2.81189,1.73041 5.56482,0.47193 2.75292,-1.25847 3.34283,-4.67995 3.34283,-4.67995 z"
             id="path8128"
             sodipodi:nodetypes="cscsc" />
          <path
             style="fill:#00a000;fill-opacity:1;stroke:#000000;stroke-width:0.600001;stroke-linecap:round"
             d="m 280.86708,152.11316 c 0,0 -1.83536,-2.39154 -5.70076,-1.36262 -3.8654,1.02892 -4.06006,4.17129 -4.06006,4.17129 0,0 2.47497,2.33593 5.56173,1.47386 3.08676,-0.86207 4.19909,-4.28253 4.19909,-4.28253 z"
             id="path8130" />
          <path
             style="fill:#00a000;fill-opacity:1;stroke:#000000;stroke-width:0.600001;stroke-linecap:round"
             d="m 277.00168,147.80283 c 0,0 0.13904,-3.47608 -3.44826,-5.08898 -3.58733,-1.6129 -5.70077,0.3337 -5.70077,0.3337 0,0 0.5325,3.41171 2.72524,4.81089 2.91991,1.86318 6.42379,-0.0556 6.42379,-0.0556 z"
             id="path8132"
             sodipodi:nodetypes="cscscc" />
          <path
             style="fill:#00a000;fill-opacity:1;stroke:#000000;stroke-width:0.600001;stroke-linecap:round"
             d="m 283.23542,148.89327 c 0,0 -3.69676,-0.27529 -5.1912,-3.26417 -1.49442,-2.98887 -0.1573,-5.28952 -0.1573,-5.28952 0,0 3.53947,0.19664 4.93557,2.63493 1.39612,2.43829 0.41293,5.91876 0.41293,5.91876 z"
             id="path8134" />
          <path
             style="fill:#00a000;fill-opacity:1;stroke:#000000;stroke-width:0.600001;stroke-linecap:round"
             d="m 289.27218,150.48603 c 0,0 -3.18553,-0.70789 -3.89339,-4.26702 -0.69034,-3.47103 1.33712,-5.42717 1.33712,-5.42717 0,0 2.98888,0.96353 3.87374,4.30635 0.8753,3.30668 -1.31747,5.38784 -1.31747,5.38784 z"
             id="path8136"
             sodipodi:nodetypes="cscsc" />
          <path
             style="fill:#00a000;fill-opacity:1;stroke:#000000;stroke-width:0.600001;stroke-linecap:round"
             d="m 283.49106,137.37037 c 0,0 -1.55342,-2.81191 -4.75861,-2.6546 -3.20519,0.15731 -4.50297,2.24166 -4.50297,2.24166 0,0 1.45036,2.11237 4.07038,2.32031 3.71642,0.29496 5.1912,-1.90737 5.1912,-1.90737 z"
             id="path8138"
             sodipodi:nodetypes="cscsc" />
          <path
             style="fill:#00a000;fill-opacity:1;stroke:#000000;stroke-width:0.600001;stroke-linecap:round"
             d="m 279.93194,132.76907 c 0,0 -0.13763,-3.63778 -3.04787,-5.17154 -2.91023,-1.53377 -5.01425,-0.57025 -5.01425,-0.57025 0,0 -0.15729,3.14618 2.281,4.87659 2.4383,1.7304 5.78112,0.8652 5.78112,0.8652 z"
             id="path8140"
             sodipodi:nodetypes="cscsc" />
          <path
             style="fill:#00a000;fill-opacity:1;stroke:#000000;stroke-width:0.600001;stroke-linecap:round"
             d="m 285.94902,134.14552 c 0,0 -3.18552,-0.23596 -4.62097,-3.06753 -1.24222,-2.45041 -0.21631,-5.15188 -0.21631,-5.15188 0,0 2.61528,0.27529 4.2277,3.0872 1.61243,2.8119 0.60958,5.13221 0.60958,5.13221 z"
             id="path8142"
             sodipodi:nodetypes="cscsc" />
          <path
             style="fill:#00a000;fill-opacity:1;stroke:#000000;stroke-width:0.600001;stroke-linecap:round"
             d="m 290.92392,132.71008 c 0,0 -2.79222,-0.53092 -4.05071,-3.5198 -1.25847,-2.98888 0,-4.97491 0,-4.97491 0,0 2.79225,0.47193 4.10972,3.18552 1.31746,2.71358 -0.059,5.30919 -0.059,5.30919 z"
             id="path8144" />
          <path
             id="path8146"
             style="fill:#00a000;fill-opacity:1;stroke:#000000;stroke-width:0.600001;stroke-linecap:round"
             d="m 293.38209,116.97891 c 0,0 -2.49751,0.72485 -2.49752,4.1491 -2e-5,3.57878 2.49752,4.67878 2.49752,4.67878 0,0 2.49703,-1.1 2.49701,-4.67878 -10e-6,-3.42425 -2.49701,-4.1491 -2.49701,-4.1491 z" />
          <path
             style="fill:#000000;stroke:#000000;stroke-width:0.1;stroke-linecap:round;stroke-dasharray:none"
             d="m 289.01501,154.40737 c 0,0 -8.99981,4.38911 -8.94047,4.53281 0.13207,0.3198 9.81644,-3.94883 9.81644,-3.94883 z"
             id="path8148"
             sodipodi:nodetypes="cscc" />
          <path
             style="fill:#000000;stroke:#000000;stroke-width:0.1;stroke-linecap:round;stroke-dasharray:none"
             d="m 282.82249,151.23325 c 0,0 -10.48073,2.89056 -10.42173,3.16585 0.059,0.27529 11.46392,-2.63493 11.46392,-2.63493 z"
             id="path8150" />
          <path
             style="fill:#000000;stroke:#000000;stroke-width:0.1;stroke-linecap:round;stroke-dasharray:none"
             d="m 277.25769,147.55614 c 0,0 -8.00311,-4.16869 -8.14078,-3.95239 -0.13763,0.2163 7.47221,4.34567 7.47221,4.34567 z"
             id="path8152" />
          <path
             style="fill:#000000;stroke:#000000;stroke-width:0.1;stroke-linecap:round;stroke-dasharray:none"
             d="m 284.98551,150.99729 c 0,0 -5.9581,-9.6352 -6.13508,-9.45823 -0.17698,0.17698 4.81761,8.9863 4.81761,8.9863 z"
             id="path8154" />
          <path
             style="fill:#000000;stroke:#000000;stroke-width:0.1;stroke-linecap:round;stroke-dasharray:none"
             d="m 289.6268,153.00304 c 0,0 -2.78087,-10.70632 -2.55838,-10.84536 0.22246,-0.13905 3.44826,10.95659 3.44826,10.95659 z"
             id="path8156" />
          <path
             style="fill:#000000;stroke:#000000;stroke-width:0.1;stroke-linecap:round;stroke-dasharray:none"
             d="m 285.46941,136.86013 c 0,0 -9.95548,-0.0834 -9.95548,0.0973 0,0.18076 11.19296,0.79255 11.19296,0.79255 z"
             id="path8158" />
          <path
             style="fill:#000000;stroke:#000000;stroke-width:0.1;stroke-linecap:round;stroke-dasharray:none"
             d="m 280.42213,132.85569 c 0,0 -7.4944,-5.28364 -7.63346,-5.1724 -0.13904,0.11123 6.99389,5.35316 6.99389,5.35316 z"
             id="path8160" />
          <path
             style="fill:#000000;stroke:#000000;stroke-width:0.1;stroke-linecap:round;stroke-dasharray:none"
             d="m 287.67942,136.56415 c 0,0 -5.6238,-9.53687 -5.85978,-9.45822 -0.23596,0.0787 4.69963,8.86831 4.69963,8.86831 z"
             id="path8162" />
          <path
             style="fill:#000000;stroke:#000000;stroke-width:0.1;stroke-linecap:round;stroke-dasharray:none"
             d="m 292.12341,136.03324 c 0,0 -4.83727,-10.20545 -4.71929,-10.26444 0.118,-0.059 4.99459,8.67168 4.99459,8.67168 z"
             id="path8164" />
          <path
             style="fill:#00a000;fill-opacity:1;stroke:#000000;stroke-width:0.600001;stroke-linecap:round"
             d="m 298.94668,155.42161 c 0,0 2.69394,-1.88771 5.6828,-0.29496 2.9889,1.59276 3.22485,4.50298 3.22485,4.50298 0,0 -2.81189,1.73041 -5.56482,0.47193 -2.75292,-1.25847 -3.34283,-4.67995 -3.34283,-4.67995 z"
             id="path8166"
             sodipodi:nodetypes="cscsc" />
          <path
             style="fill:#00a000;fill-opacity:1;stroke:#000000;stroke-width:0.600001;stroke-linecap:round"
             d="m 305.89668,152.11316 c 0,0 1.83536,-2.39154 5.70076,-1.36262 3.8654,1.02892 4.06006,4.17129 4.06006,4.17129 0,0 -2.47497,2.33593 -5.56173,1.47386 -3.08676,-0.86207 -4.19909,-4.28253 -4.19909,-4.28253 z"
             id="path8168" />
          <path
             style="fill:#00a000;fill-opacity:1;stroke:#000000;stroke-width:0.600001;stroke-linecap:round"
             d="m 309.76208,147.80283 c 0,0 -0.13904,-3.47608 3.44826,-5.08898 3.58733,-1.6129 5.70077,0.3337 5.70077,0.3337 0,0 -0.5325,3.41171 -2.72524,4.81089 -2.91991,1.86318 -6.42379,-0.0556 -6.42379,-0.0556 z"
             id="path8170"
             sodipodi:nodetypes="cscscc" />
          <path
             style="fill:#00a000;fill-opacity:1;stroke:#000000;stroke-width:0.600001;stroke-linecap:round"
             d="m 303.52834,148.89327 c 0,0 3.69676,-0.27529 5.1912,-3.26417 1.49442,-2.98887 0.1573,-5.28952 0.1573,-5.28952 0,0 -3.53947,0.19664 -4.93557,2.63493 -1.39612,2.43829 -0.41293,5.91876 -0.41293,5.91876 z"
             id="path8172" />
          <path
             style="fill:#00a000;fill-opacity:1;stroke:#000000;stroke-width:0.600001;stroke-linecap:round"
             d="m 297.49158,150.48603 c 0,0 3.18553,-0.70789 3.89339,-4.26702 0.69034,-3.47103 -1.33712,-5.42717 -1.33712,-5.42717 0,0 -2.98888,0.96353 -3.87374,4.30635 -0.8753,3.30668 1.31747,5.38784 1.31747,5.38784 z"
             id="path8174"
             sodipodi:nodetypes="cscsc" />
          <path
             style="fill:#00a000;fill-opacity:1;stroke:#000000;stroke-width:0.600001;stroke-linecap:round"
             d="m 303.2727,137.37037 c 0,0 1.55342,-2.81191 4.75861,-2.6546 3.20519,0.15731 4.50297,2.24166 4.50297,2.24166 0,0 -1.45036,2.11237 -4.07038,2.32031 -3.71642,0.29496 -5.1912,-1.90737 -5.1912,-1.90737 z"
             id="path8176"
             sodipodi:nodetypes="cscsc" />
          <path
             style="fill:#00a000;fill-opacity:1;stroke:#000000;stroke-width:0.600001;stroke-linecap:round"
             d="m 306.83182,132.76907 c 0,0 0.13763,-3.63778 3.04787,-5.17154 2.91023,-1.53377 5.01425,-0.57025 5.01425,-0.57025 0,0 0.15729,3.14618 -2.281,4.87659 -2.4383,1.7304 -5.78112,0.8652 -5.78112,0.8652 z"
             id="path8178"
             sodipodi:nodetypes="cscsc" />
          <path
             style="fill:#00a000;fill-opacity:1;stroke:#000000;stroke-width:0.600001;stroke-linecap:round"
             d="m 300.81474,134.14552 c 0,0 3.18552,-0.23596 4.62097,-3.06753 1.24222,-2.45041 0.21631,-5.15188 0.21631,-5.15188 0,0 -2.61528,0.27529 -4.2277,3.0872 -1.61243,2.8119 -0.60958,5.13221 -0.60958,5.13221 z"
             id="path8180"
             sodipodi:nodetypes="cscsc" />
          <path
             style="fill:#00a000;fill-opacity:1;stroke:#000000;stroke-width:0.600001;stroke-linecap:round"
             d="m 295.83984,132.71008 c 0,0 2.79222,-0.53092 4.05071,-3.5198 1.25847,-2.98888 0,-4.97491 0,-4.97491 0,0 -2.79225,0.47193 -4.10972,3.18552 -1.31746,2.71358 0.059,5.30919 0.059,5.30919 z"
             id="path8182" />
          <path
             style="fill:#000000;stroke:#000000;stroke-width:0.1;stroke-linecap:round;stroke-dasharray:none"
             d="m 297.74875,154.40737 c 0,0 8.99981,4.38911 8.94047,4.53281 -0.13207,0.3198 -9.81644,-3.94883 -9.81644,-3.94883 z"
             id="path8184"
             sodipodi:nodetypes="cscc" />
          <path
             style="fill:#000000;stroke:#000000;stroke-width:0.1;stroke-linecap:round;stroke-dasharray:none"
             d="m 303.94127,151.23325 c 0,0 10.48073,2.89056 10.42173,3.16585 -0.059,0.27529 -11.46392,-2.63493 -11.46392,-2.63493 z"
             id="path8186" />
          <path
             style="fill:#000000;stroke:#000000;stroke-width:0.1;stroke-linecap:round;stroke-dasharray:none"
             d="m 309.50607,147.55614 c 0,0 8.00311,-4.16869 8.14078,-3.95239 0.13763,0.2163 -7.47221,4.34567 -7.47221,4.34567 z"
             id="path8188" />
          <path
             style="fill:#000000;stroke:#000000;stroke-width:0.1;stroke-linecap:round;stroke-dasharray:none"
             d="m 301.77825,150.99729 c 0,0 5.9581,-9.6352 6.13508,-9.45823 0.17698,0.17698 -4.81761,8.9863 -4.81761,8.9863 z"
             id="path8190" />
          <path
             style="fill:#000000;stroke:#000000;stroke-width:0.1;stroke-linecap:round;stroke-dasharray:none"
             d="m 297.13696,153.00304 c 0,0 2.78087,-10.70632 2.55838,-10.84536 -0.22246,-0.13905 -3.44826,10.95659 -3.44826,10.95659 z"
             id="path8192" />
          <path
             style="fill:#000000;stroke:#000000;stroke-width:0.1;stroke-linecap:round;stroke-dasharray:none"
             d="m 301.29435,136.86013 c 0,0 9.95548,-0.0834 9.95548,0.0973 0,0.18076 -11.19296,0.79255 -11.19296,0.79255 z"
             id="path8194" />
          <path
             style="fill:#000000;stroke:#000000;stroke-width:0.1;stroke-linecap:round;stroke-dasharray:none"
             d="m 306.34163,132.85569 c 0,0 7.4944,-5.28364 7.63346,-5.1724 0.13904,0.11123 -6.99389,5.35316 -6.99389,5.35316 z"
             id="path8196" />
          <path
             style="fill:#000000;stroke:#000000;stroke-width:0.1;stroke-linecap:round;stroke-dasharray:none"
             d="m 299.08434,136.56415 c 0,0 5.6238,-9.53687 5.85978,-9.45822 0.23596,0.0787 -4.69963,8.86831 -4.69963,8.86831 z"
             id="path8198" />
          <path
             style="fill:#000000;stroke:#000000;stroke-width:0.1;stroke-linecap:round;stroke-dasharray:none"
             d="m 294.64035,136.03324 c 0,0 4.83727,-10.20545 4.71929,-10.26444 -0.118,-0.059 -4.99459,8.67168 -4.99459,8.67168 z"
             id="path8200" />
          <path
             style="fill:#000000;fill-opacity:1;stroke:#000000;stroke-width:0.1;stroke-linecap:round;stroke-dasharray:none"
             d="m 292.70239,128.41684 c 0,0 0.46319,-10.0809 0.62051,-10.00225 0.1573,0.0787 0.7392,9.92878 0.7392,9.92878 z"
             id="path8202"
             sodipodi:nodetypes="cscc" />
        </g>
      </g>
      <path
         id="path9586"
         style="fill:#00a000;fill-opacity:1;stroke:#000000;stroke-width:1.5;stroke-linecap:butt;stroke-dasharray:none"
         d="M 106.1837,175.58101 A 84.760674,76.185013 0 0 0 37.243722,207.51963 77.868111,77.868111 0 0 0 106.1837,249.24939 77.868111,77.868111 0 0 0 175.16399,207.49896 84.760674,76.185013 0 0 0 106.1837,175.58101 Z" />
      <g
         id="g8917"
         transform="translate(-224.63772,-79.598521)">
        <path
           style="color:#000000;fill:#ffff00;stroke-width:1.2;stroke-linecap:round;-inkscape-stroke:none"
           d="m 316.42803,313.96384 -1.92704,1.19948 2.37929,3.85408 7.57053,-4.69962 c 0,0 -8.94011,-15.96613 -9.04529,-24.93353 -0.084,-7.16517 4.56197,-16.87147 15.73093,-16.79277 11.16896,-0.0787 15.81493,9.6276 15.73093,16.79277 -0.10518,8.9674 -9.04529,24.93353 -9.04529,24.93353 l 7.57053,4.69962 2.37929,-3.85408 -1.92704,-1.19948 c 0,0 8.41973,-15.63294 8.75345,-25.75528 0.33369,-10.12234 -6.88793,-24.47162 -23.46187,-24.55502 -16.57394,0.0834 -23.79556,14.43268 -23.46187,24.55502 0.33372,10.12234 8.75345,25.75528 8.75345,25.75528"
           id="path8895" />
        <path
           id="path8521"
           style="fill:none;stroke:#000000;stroke-width:0.6;stroke-linecap:round"
           d="m 344.6539,312.08658 c 0.38396,-0.72578 1.83379,-3.40462 3.70898,-7.92382 2.10855,-5.08158 4.21055,-11.44415 4.36133,-16.01758 0.15119,-4.58633 -1.45936,-10.33991 -4.99023,-14.81641 -3.52925,-4.47444 -8.85668,-7.75492 -16.59766,-7.79687 -7.74098,0.0419 -13.06889,3.32247 -16.59765,7.79687 -3.53039,4.47646 -5.13948,10.22996 -4.98829,14.81641 0.15079,4.57355 2.25131,10.93599 4.35938,16.01758 1.87478,4.51921 3.32511,7.19804 3.70898,7.92382"
           sodipodi:nodetypes="cssscsssc" />
        <path
           style="fill:#ffff00;fill-opacity:1;stroke:none;stroke-width:0.0499999;stroke-linecap:butt;stroke-dasharray:none"
           d="m 324.91502,264.68891 1.88558,1.48152 0.96927,0.85347 7.41101,0.13906 0.89157,-0.96867 1.3064,-1.62322 -3.74137,-0.75906 h -3.75414 l -2.79477,0.27809 -1.37655,0.30589 z"
           id="path8821" />
        <path
           style="fill:#ffff00;fill-opacity:1;stroke:#000000;stroke-width:1.2;stroke-linecap:butt;stroke-dasharray:none"
           d="m 315.4645,314.56358 3.95924,-2.41337"
           id="path8717"
           sodipodi:nodetypes="cc" />
        <path
           style="fill:#ffff00;fill-opacity:1;stroke:#000000;stroke-width:1.2;stroke-linecap:butt;stroke-dasharray:none"
           d="m 346.8084,314.56358 -3.95924,-2.41337"
           id="path8719"
           sodipodi:nodetypes="cc"
           inkscape:transform-center-x="-13.692331"
           inkscape:transform-center-y="10.011104" />
        <path
           id="path8727"
           style="fill:#000000;fill-opacity:1;stroke:#000000;stroke-width:0.0499999;stroke-linecap:butt;stroke-dasharray:none"
           d="m 324.94406,264.26521 -1.64228,0.6382 c 0,0 1.53094,0.55779 2.35128,1.05834 0.82037,0.50056 1.2113,1.41903 1.2113,1.41903 h 4.27209 4.27209 c 0,0 0.39093,-0.91847 1.21129,-1.41903 0.82034,-0.50055 2.35128,-1.05834 2.35128,-1.05834 l -1.64227,-0.6382 c 0,0 -0.65329,0.34789 -1.57097,0.97358 -0.91771,0.62569 -1.04128,0.92243 -1.04128,0.92243 h -3.58014 -3.58014 c 0,0 -0.12358,-0.29674 -1.04128,-0.92243 -0.91768,-0.62569 -1.57097,-0.97358 -1.57097,-0.97358 z" />
        <rect
           style="fill:#000000;fill-opacity:1;stroke:#000000;stroke-width:0.0499999;stroke-linecap:butt;stroke-dasharray:none"
           id="rect8784"
           width="3.4509733"
           height="1.9270393"
           x="329.41095"
           y="268.48178" />
        <g
           id="g8795"
           transform="translate(37.597257,82.75846)">
          <rect
             style="fill:#000000;fill-opacity:1;stroke:#000000;stroke-width:0.0499999;stroke-linecap:butt;stroke-dasharray:none"
             id="rect8786"
             width="3.4509733"
             height="1.9270393"
             x="52.516384"
             y="333.70312"
             transform="rotate(-46.333108)" />
          <rect
             style="fill:#000000;fill-opacity:1;stroke:#000000;stroke-width:0.0499999;stroke-linecap:butt;stroke-dasharray:none"
             id="rect8788"
             width="3.4509733"
             height="1.9270393"
             x="-206.93968"
             y="274.40262"
             transform="rotate(-89.825735)" />
          <rect
             style="fill:#000000;fill-opacity:1;stroke:#000000;stroke-width:0.0499999;stroke-linecap:butt;stroke-dasharray:none"
             id="rect8790"
             width="3.4509733"
             height="1.9270393"
             x="-316.57306"
             y="162.41431"
             transform="rotate(-114.22386)" />
        </g>
        <g
           id="g8803"
           inkscape:transform-center-x="-15.939715"
           inkscape:transform-center-y="3.3046405"
           transform="matrix(-1,0,0,1,624.67564,82.75846)">
          <rect
             style="fill:#000000;fill-opacity:1;stroke:#000000;stroke-width:0.0499999;stroke-linecap:butt;stroke-dasharray:none"
             id="rect8797"
             width="3.4509733"
             height="1.9270393"
             x="52.516384"
             y="333.70312"
             transform="rotate(-46.333108)" />
          <rect
             style="fill:#000000;fill-opacity:1;stroke:#000000;stroke-width:0.0499999;stroke-linecap:butt;stroke-dasharray:none"
             id="rect8799"
             width="3.4509733"
             height="1.9270393"
             x="-206.93968"
             y="274.40262"
             transform="rotate(-89.825735)" />
          <rect
             style="fill:#000000;fill-opacity:1;stroke:#000000;stroke-width:0.0499999;stroke-linecap:butt;stroke-dasharray:none"
             id="rect8801"
             width="3.4509733"
             height="1.9270393"
             x="-316.57306"
             y="162.41431"
             transform="rotate(-114.22386)" />
        </g>
        <path
           style="color:#000000;fill:#000000;stroke-linecap:round;-inkscape-stroke:none"
           d="m 331.13281,263.05273 c -8.45967,0.0426 -14.60618,3.7556 -18.53906,8.74219 -3.93288,4.98659 -5.69138,11.22065 -5.51953,16.4336 0.172,5.21708 2.38996,11.67984 4.54883,16.88281 2.03789,4.91142 3.81913,8.21678 4.03711,8.625 l -1.98438,1.23437 3.00977,4.87305 8.56836,-5.31836 -0.2793,-0.5 c 0,0 -2.22152,-3.96908 -4.45703,-9.05273 -2.23551,-5.08366 -4.46142,-11.30719 -4.51172,-15.59571 -0.0404,-3.44975 1.07165,-7.55436 3.52148,-10.74023 2.44984,-3.18588 6.19538,-5.48343 11.60547,-5.44531 h 0.004 0.004 c 5.4101,-0.0381 9.15564,2.25943 11.60547,5.44531 2.44984,3.18587 3.56193,7.29048 3.52149,10.74023 -0.0503,4.28852 -2.27621,10.51205 -4.51172,15.59571 -2.23551,5.08365 -4.45703,9.05273 -4.45703,9.05273 l -0.28125,0.5 8.57031,5.31836 3.00781,-4.87305 -1.98242,-1.23437 c 0.21797,-0.40822 1.99922,-3.71358 4.03711,-8.625 2.15886,-5.20297 4.37488,-11.66573 4.54688,-16.88281 0.17184,-5.21295 -1.5847,-11.44701 -5.51758,-16.4336 -3.93288,-4.98659 -10.08135,-8.69962 -18.54102,-8.74219 h -0.002 z m 0,1.20118 c 8.11425,0.0408 13.86553,3.54372 17.60352,8.2832 3.73798,4.73948 5.42356,10.74296 5.26172,15.65234 -0.16172,4.90525 -2.32065,11.31882 -4.45508,16.46289 -2.13443,5.14408 -4.22656,9.02735 -4.22656,9.02735 l -0.26758,0.49609 1.89844,1.18164 -1.74805,2.83399 -6.59961,-4.09571 c 0.23224,-0.41801 2.12234,-3.78889 4.25586,-8.64062 2.26083,-5.14125 4.55645,-11.38559 4.61133,-16.06446 0.0436,-3.71541 -1.12515,-8.04548 -3.76953,-11.48437 -2.64312,-3.43723 -6.80209,-5.95217 -12.55665,-5.91406 h -0.008 c -5.75455,-0.0381 -9.91352,2.47683 -12.55664,5.91406 -2.64439,3.43889 -3.81504,7.76896 -3.77148,11.48437 0.0549,4.67887 2.35244,10.92321 4.61328,16.06446 2.13352,4.85173 4.02362,8.22261 4.25586,8.64062 l -6.59961,4.09571 -1.74805,-2.83399 1.38672,-0.86523 0.0312,-0.0195 a 0.60000002,0.60000002 0 0 0 0.17969,-0.17969 0.60000002,0.60000002 0 0 0 0.0312,-0.0684 0.60000002,0.60000002 0 0 0 0.0586,-0.19727 0.60000002,0.60000002 0 0 0 0.004,-0.0898 0.60000002,0.60000002 0 0 0 -0.0488,-0.20898 0.60000002,0.60000002 0 0 0 -0.0117,-0.0488 c 0,0 -2.09213,-3.88327 -4.22656,-9.02735 -2.13443,-5.14407 -4.29531,-11.55764 -4.45703,-16.46289 -0.16184,-4.90938 1.52568,-10.91286 5.26367,-15.65234 3.73703,-4.73826 9.48474,-8.24061 17.5957,-8.2832 z"
           id="path8897" />
      </g>
      <g
         id="g9415"
         transform="translate(-186.98509,1.9346388)">
        <g
           id="g9373">
          <path
             id="path9128"
             style="fill:#ff0000;fill-opacity:1;stroke:#000000;stroke-width:1.25;stroke-linecap:butt;stroke-dasharray:none"
             d="m 331.68673,68.744124 -23.43888,31.462166 v 17.61856 h 23.43888 23.43888 v -17.61856 z" />
          <g
             id="g9191">
            <rect
               style="fill:none;fill-opacity:1;stroke:#000000;stroke-width:1.25;stroke-linecap:butt;stroke-dasharray:none"
               id="rect9185"
               width="10.28919"
               height="10.28919"
               x="311.95712"
               y="99.777336" />
            <rect
               style="fill:none;fill-opacity:1;stroke:#000000;stroke-width:0.7;stroke-linecap:butt;stroke-dasharray:none"
               id="rect9187"
               width="6.0622797"
               height="6.0622797"
               x="314.07059"
               y="101.89079" />
          </g>
          <g
             id="g9197"
             inkscape:transform-center-x="-14.585012"
             inkscape:transform-center-y="11.637444"
             transform="matrix(-1,0,0,1,663.37346,0)">
            <rect
               style="fill:none;fill-opacity:1;stroke:#000000;stroke-width:1.25;stroke-linecap:butt;stroke-dasharray:none"
               id="rect9193"
               width="10.28919"
               height="10.28919"
               x="311.95712"
               y="99.777336" />
            <rect
               style="fill:none;fill-opacity:1;stroke:#000000;stroke-width:0.7;stroke-linecap:butt;stroke-dasharray:none"
               id="rect9195"
               width="6.0622797"
               height="6.0622797"
               x="314.07059"
               y="101.89079" />
          </g>
          <path
             id="rect9199"
             style="fill:none;stroke:#000000;stroke-width:1.24999"
             d="M 326.58444,117.82468 V 99.777336 h 9.95549 v 18.047344"
             sodipodi:nodetypes="cccc" />
          <path
             id="path9204"
             style="fill:none;stroke:#000000;stroke-width:0.7"
             d="M 334.53711,117.79668 V 101.7793 h -5.95117 v 16.01738"
             sodipodi:nodetypes="cccc" />
        </g>
        <g
           id="g9393"
           transform="translate(-77.035886)">
          <path
             id="path9375"
             style="fill:#ff0000;fill-opacity:1;stroke:#000000;stroke-width:1.25;stroke-linecap:butt;stroke-dasharray:none"
             d="m 331.68673,68.744124 -23.43888,31.462166 v 17.61856 h 23.43888 23.43888 v -17.61856 z" />
          <g
             id="g9381">
            <rect
               style="fill:none;fill-opacity:1;stroke:#000000;stroke-width:1.25;stroke-linecap:butt;stroke-dasharray:none"
               id="rect9377"
               width="10.28919"
               height="10.28919"
               x="311.95712"
               y="99.777336" />
            <rect
               style="fill:none;fill-opacity:1;stroke:#000000;stroke-width:0.7;stroke-linecap:butt;stroke-dasharray:none"
               id="rect9379"
               width="6.0622797"
               height="6.0622797"
               x="314.07059"
               y="101.89079" />
          </g>
          <g
             id="g9387"
             inkscape:transform-center-x="-14.585012"
             inkscape:transform-center-y="11.637444"
             transform="matrix(-1,0,0,1,663.37346,0)">
            <rect
               style="fill:none;fill-opacity:1;stroke:#000000;stroke-width:1.25;stroke-linecap:butt;stroke-dasharray:none"
               id="rect9383"
               width="10.28919"
               height="10.28919"
               x="311.95712"
               y="99.777336" />
            <rect
               style="fill:none;fill-opacity:1;stroke:#000000;stroke-width:0.7;stroke-linecap:butt;stroke-dasharray:none"
               id="rect9385"
               width="6.0622797"
               height="6.0622797"
               x="314.07059"
               y="101.89079" />
          </g>
          <path
             id="path9389"
             style="fill:none;stroke:#000000;stroke-width:1.24999"
             d="M 326.58444,117.82468 V 99.777336 h 9.95549 v 18.047344"
             sodipodi:nodetypes="cccc" />
          <path
             id="path9391"
             style="fill:none;stroke:#000000;stroke-width:0.7"
             d="M 334.53711,117.79668 V 101.7793 h -5.95117 v 16.01738"
             sodipodi:nodetypes="cccc" />
        </g>
      </g>
    </g>
  </g>
</svg>
