<?xml version="1.0" encoding="UTF-8" standalone="no"?>
<!-- Created with Inkscape (http://www.inkscape.org/) -->

<svg
   xmlns:dc="http://purl.org/dc/elements/1.1/"
   xmlns:cc="http://creativecommons.org/ns#"
   xmlns:rdf="http://www.w3.org/1999/02/22-rdf-syntax-ns#"
   xmlns:svg="http://www.w3.org/2000/svg"
   xmlns="http://www.w3.org/2000/svg"
   xmlns:inkscape="http://www.inkscape.org/namespaces/inkscape"
   version="1.1"
   width="413.4375"
   height="480"
   id="svg3853">
  <defs
     id="defs3855">
    <inkscape:path-effect
       effect="spiro"
       id="path-effect3935" />
  </defs>
  <metadata
     id="metadata3858">
    <rdf:RDF>
      <cc:Work
         rdf:about="">
        <dc:format>image/svg+xml</dc:format>
        <dc:type
           rdf:resource="http://purl.org/dc/dcmitype/StillImage" />
        <dc:title></dc:title>
      </cc:Work>
    </rdf:RDF>
  </metadata>
  <g
     id="g3937">
    <path
       d="m 406.42575,273.28289 c 0,110.29916 -89.41514,199.7143 -199.7143,199.7143 -110.299163,0 -199.7143071,-89.41514 -199.7143071,-199.7143 l 0,-266.2857471 199.7143071,0 199.7143,0 z"
       id="path3881"
       style="fill:#ffffff;stroke:#000000;stroke-width:3.99995184;stroke-opacity:1" />
    <path
       d="m 206.71145,6.9971429 0,466.0000471"
       id="path3247"
       style="fill:none;stroke:#ffffff;stroke-width:3.99428606;stroke-linecap:butt;stroke-linejoin:miter;stroke-opacity:1" />
    <path
       d="m 181.63481,6.9971429 0,464.4408771 c 16.71776,0 33.43552,0 50.15328,0 l 0,-464.4408771 -25.07664,0 z"
       id="rect3964"
       style="fill:#000000;fill-opacity:1;fill-rule:evenodd;stroke:none" />
    <path
       d="m 206.71145,6.9971429 0,466.0000471"
       id="path3432"
       style="fill:none;stroke:#ffffff;stroke-width:3.99428606;stroke-linecap:butt;stroke-linejoin:miter;stroke-opacity:1" />
    <path
       d="m 247.61687,364.85752 a 14.272501,14.272501 0 0 0 28.43638,2.48786 14.272501,14.272501 0 1 0 -28.43638,-2.48786 z"
       id="path3369"
       style="fill:#fd3301;stroke:#000000;stroke-width:2.55585742;stroke-opacity:1" />
    <path
       d="m 165.80602,364.85752 a 14.272505,14.272505 0 0 1 -28.43638,2.48786 14.272505,14.272505 0 1 1 28.43638,-2.48786 z"
       id="path3281"
       style="fill:#fd3301;stroke:#000000;stroke-width:2.55585742;stroke-opacity:1" />
    <path
       d="m 406.42575,189.62339 c -134.90975,0 -264.51884,0 -399.4286071,0 l 0,50.15327 c 131.3759771,0 268.0526371,0 399.4286071,0 z"
       id="path3429"
       style="fill:#000000;fill-opacity:1;fill-rule:evenodd;stroke:none" />
    <path
       d="M 6.9971429,215.53718 406.42575,213.86285"
       id="path4202"
       style="fill:none;stroke:#ffffff;stroke-width:3.99428606;stroke-linecap:butt;stroke-linejoin:miter;stroke-opacity:1" />
    <path
       d="m 181.63481,189.62338 50.15328,50.15327"
       id="path4210"
       style="fill:none;stroke:#ffffff;stroke-width:2.66285729;stroke-linecap:butt;stroke-linejoin:miter;stroke-opacity:1" />
    <path
       d="m 181.63481,239.49711 50.15328,-49.59419"
       id="path4212"
       style="fill:none;stroke:#ffffff;stroke-width:2.66285729;stroke-linecap:butt;stroke-linejoin:miter;stroke-opacity:1" />
    <path
       d="m 373.27122,272.59276 c 2.3479,2.79812 3.62868,6.49637 3.28521,10.42257 -0.68268,7.80316 -7.52094,13.5817 -15.31221,12.97996 -2.74415,10.34827 -5.75207,23.0612 -6.50521,31.66997 -0.75319,8.60893 -0.004,21.65417 0.90241,32.32223 7.77826,0.75956 13.51218,7.64259 12.82945,15.44623 -0.687,7.85252 -7.60615,13.65837 -15.45867,12.97136 -7.80363,-0.68273 -13.58641,-7.52476 -12.98375,-15.31675 -10.34865,-2.74488 -23.06557,-5.74824 -31.67448,-6.5014 -8.60671,-0.753 -21.64736,-0.003 -32.31391,0.90315 -0.75825,7.77959 -7.64167,13.51225 -15.44624,12.82944 -7.85247,-0.687 -13.66214,-7.6107 -12.97516,-15.46318 0.68268,-7.80313 7.52093,-13.58167 15.31222,-12.97997 2.74487,-10.34865 5.74822,-23.06556 6.50141,-31.67448 1.46598,-16.75632 -2.75399,-50.38269 -2.75399,-50.38269 0,0 32.38272,9.99501 49.13904,11.46102 8.60889,0.75313 21.65456,0.003 32.32223,-0.90244 0.76038,-7.77735 7.63856,-13.50831 15.44171,-12.82564 3.9262,0.34353 7.34209,2.24255 9.68994,5.04062 z"
       id="path3365"
       style="fill:#fd3301;fill-opacity:1;stroke:#000000;stroke-width:2.55585742;stroke-opacity:1" />
    <path
       d="m 357.97068,285.10269 c 0,0 -28.7922,2.85364 -43.12104,1.60003 -14.32885,-1.25361 -42.1881,-9.06361 -42.1881,-9.06361 0,0 2.85363,28.79218 1.60004,43.12105 -1.25361,14.32883 -9.06363,42.18809 -9.06363,42.18809 0,0 28.79222,-2.85365 43.12105,-1.60004 14.32884,1.25362 42.18809,9.06363 42.18809,9.06363 0,0 -2.85365,-28.79222 -1.60002,-43.12107 1.25361,-14.32885 9.06361,-42.18808 9.06361,-42.18808 z"
       id="path3367"
       style="fill:#fd3301;stroke:#000000;stroke-width:2.55585742;stroke-opacity:1" />
    <path
       d="m 256.29759,359.50216 c -1.6889,1.41719 -2.83719,3.47863 -3.04452,5.84847 -0.20733,2.36986 0.56554,4.59936 1.9827,6.28828 1.41715,1.68891 3.47862,2.83719 5.84846,3.04453 2.36986,0.20734 4.59939,-0.56554 6.28831,-1.98269"
       id="path3371"
       style="fill:#fd3301;stroke:#000000;stroke-width:2.55585742;stroke-opacity:1" />
    <path
       d="m 347.65399,379.72446 c 1.41716,1.6889 3.47863,2.83719 5.84846,3.04452 2.36987,0.20734 4.59939,-0.56553 6.28831,-1.98267 1.6889,-1.41719 2.83719,-3.47863 3.04452,-5.8485 0.20733,-2.36981 -0.56554,-4.59936 -1.98269,-6.28829"
       id="path3373"
       style="fill:#fd3301;stroke:#000000;stroke-width:2.55585742;stroke-opacity:1" />
    <path
       d="m 367.87632,288.36807 c 1.6889,-1.41718 2.83717,-3.47862 3.0445,-5.84848 0.20734,-2.36981 -0.56553,-4.59937 -1.98269,-6.28829 -1.41716,-1.6889 -3.47861,-2.83717 -5.84846,-3.04452 -2.36985,-0.20733 -4.59938,0.56553 -6.28829,1.98269"
       id="path3375"
       style="fill:#fd3301;stroke:#000000;stroke-width:2.55585742;stroke-opacity:1" />
    <path
       d="m 310.18489,340.02093 c 0,0 -11.9577,12.74644 -16.12024,14.84186 -4.16254,2.09542 -16.76746,-1.7356 -16.76746,-1.7356 0,0 -1.98351,-13.5478 0.8068,-17.25614 2.79029,-3.70833 17.48486,-13.245 17.48486,-13.245 -3.72722,-5.55878 -13.64998,-13.6218 -14.91927,-16.08001 -1.26926,-2.45825 2.22529,-17.40069 2.22529,-17.40069 0,0 13.05536,-1.31743 16.79081,1.469 3.73542,2.78641 13.29805,17.41566 13.29805,17.41566 0,0 12.48491,-14.49317 16.12025,-14.84188 3.63534,-0.34871 17.01894,1.48894 17.01894,1.48894 0,0 -0.068,13.98363 -1.05826,17.50281 -0.9903,3.51919 -17.48488,13.24502 -17.48488,13.24502 3.72723,5.55873 13.65,13.62176 14.91927,16.08 1.26928,2.45821 -1.22002,17.21999 -1.22002,17.21999 0,0 -15.25423,0.0374 -17.79606,-1.28833 -2.54184,-1.32576 -8.84676,-14.43833 -13.29808,-17.41563 z"
       id="path3377"
       style="fill:#ffffff;stroke:#000000;stroke-width:2.55585742;stroke-opacity:1" />
    <path
       d="m 294.82026,274.7849 c 2.42062,-2.03114 -3.67279,-9.29298 -6.09342,-7.26184 l -29.04738,24.37365 c -2.42062,2.03114 3.67279,9.29298 6.09341,7.26184 z"
       id="path3379"
       style="fill:#fd3301;fill-opacity:1;stroke:#000000;stroke-width:2.55585742;stroke-opacity:1" />
    <path
       d="m 295.98869,261.42964 c 2.42061,-2.03113 -3.6728,-9.29298 -6.09341,-7.26184 l -43.57107,36.56048 c -2.42063,2.03114 3.67278,9.29298 6.0934,7.26183 z"
       id="path3381"
       style="fill:#fd3301;fill-opacity:1;stroke:#000000;stroke-width:2.55585742;stroke-opacity:1" />
    <path
       d="m 279.00251,263.30792 c 2.42062,-2.03114 -3.6728,-9.29299 -6.09341,-7.26185 l -21.78555,18.28023 c -2.42061,2.03115 3.6728,9.293 6.09342,7.26186 z"
       id="path3383"
       style="fill:#fd3301;fill-opacity:1;stroke:#000000;stroke-width:2.55585742;stroke-opacity:1" />
    <rect
       width="293.86966"
       height="18.959333"
       x="-371.56525"
       y="-39.737419"
       transform="matrix(-0.64278761,-0.76604444,-0.76604444,0.64278761,0,0)"
       id="rect3361"
       style="fill:#fd3301;fill-opacity:1;stroke:#000000;stroke-width:2.55585742;stroke-opacity:1" />
    <path
       d="m 151.16649,147.82825 -7.26185,6.0934 6.09341,7.26185 -7.26185,6.09341 -6.09341,-7.26185 -7.26184,6.09342 6.09342,7.26185 -7.26185,6.0934 -18.28023,-21.78553 7.26183,-6.09342 -6.09342,-7.26184 -7.26183,6.09341 -18.280252,-21.78554 7.261852,-6.09341 12.18683,14.52369 7.26184,-6.09341 -30.46706,-36.309236 -7.261853,6.093426 12.186827,14.52369 -7.261844,6.0934 -42.653892,-50.832907 7.261851,-6.093416 12.202019,14.541802 7.261853,-6.093414 -12.202033,-14.541801 7.261853,-6.093412 c 4.062274,4.841226 8.139749,9.700577 12.202018,14.541803 l 7.261852,-6.093412 z"
       id="path3363"
       style="fill:#fd3301;stroke:#000000;stroke-width:2.55585742;stroke-opacity:1" />
    <path
       d="m 40.151664,272.59276 c -2.347902,2.79812 -3.628683,6.49637 -3.285208,10.42257 0.682684,7.80315 7.520942,13.5817 15.31221,12.97997 2.744154,10.34826 5.75207,23.06118 6.505214,31.66996 0.753183,8.60893 0.004,21.65417 -0.902416,32.32224 -7.778263,0.75951 -13.512178,7.64258 -12.829449,15.44621 0.687004,7.85252 7.606147,13.65838 15.458668,12.97137 7.803637,-0.68273 13.586411,-7.52476 12.983753,-15.31676 10.34865,-2.74487 23.065572,-5.74823 31.674484,-6.50139 8.60671,-0.753 21.64736,-0.003 32.31391,0.90315 0.75821,7.7796 7.64167,13.51225 15.44624,12.82944 7.85247,-0.68701 13.66214,-7.61071 12.97515,-15.46318 -0.68267,-7.80314 -7.52093,-13.58166 -15.31221,-12.97997 -2.74487,-10.34865 -5.74821,-23.06556 -6.50141,-31.67447 -1.46598,-16.75634 2.75399,-50.38269 2.75399,-50.38269 0,0 -32.38272,9.995 -49.139041,11.46101 -8.608898,0.75313 -21.654563,0.003 -32.322237,-0.90244 -0.760382,-7.77735 -7.638559,-13.50831 -15.441702,-12.82564 -3.926204,0.34353 -7.342092,2.24256 -9.689946,5.04062 z"
       id="path3277"
       style="fill:#fd3301;fill-opacity:1;stroke:#000000;stroke-width:2.55585742;stroke-opacity:1" />
    <path
       d="m 55.452209,285.10269 c 0,0 28.7922,2.85365 43.121038,1.60002 14.328853,-1.2536 42.188103,-9.06361 42.188103,-9.06361 0,0 -2.85364,28.79219 -1.60005,43.12105 1.25362,14.32884 9.06364,42.1881 9.06364,42.1881 0,0 -28.79222,-2.85365 -43.12105,-1.60004 -14.328844,1.25362 -42.188097,9.06362 -42.188097,9.06362 0,0 2.853652,-28.79221 1.600024,-43.12106 -1.253613,-14.32884 -9.063608,-42.18808 -9.063608,-42.18808 z"
       id="path3279"
       style="fill:#fd3301;stroke:#000000;stroke-width:2.55585742;stroke-opacity:1" />
    <path
       d="m 103.238,340.02093 c 0,0 11.95769,12.74644 16.12024,14.84185 4.16254,2.09543 16.76746,-1.73559 16.76746,-1.73559 0,0 1.98351,-13.54779 -0.8068,-17.25615 -2.7903,-3.70832 -17.48487,-13.24498 -17.48487,-13.24498 3.72723,-5.55879 13.64999,-13.62181 14.91927,-16.08002 1.26928,-2.45825 -2.22528,-17.40069 -2.22528,-17.40069 0,0 -13.05536,-1.31743 -16.79081,1.469 -3.73542,2.78641 -13.29806,17.41566 -13.29806,17.41566 0,0 -12.484908,-14.49316 -16.120241,-14.84188 -3.63534,-0.34872 -17.018947,1.48895 -17.018947,1.48895 0,0 0.06798,13.98361 1.058265,17.50281 0.990297,3.51918 17.484882,13.24501 17.484882,13.24501 -3.727235,5.55873 -13.650008,13.62176 -14.919272,16.08 -1.269284,2.45821 1.220022,17.21999 1.220022,17.21999 0,0 15.254225,0.0374 17.796055,-1.28833 2.541838,-1.32576 8.846759,-14.43832 13.298086,-17.41563 z"
       id="path3289"
       style="fill:#ffffff;stroke:#000000;stroke-width:2.55585742;stroke-opacity:1" />
    <path
       d="m 157.1253,359.50216 c 1.6889,1.41718 2.83718,3.47863 3.04451,5.84848 0.20734,2.36985 -0.56554,4.59935 -1.9827,6.28827 -1.41715,1.68891 -3.47862,2.83719 -5.84845,3.04453 -2.36987,0.20734 -4.59939,-0.56553 -6.28831,-1.98269"
       id="path3283"
       style="fill:#fd3301;stroke:#000000;stroke-width:2.55585742;stroke-opacity:1" />
    <path
       d="m 65.768891,379.72446 c -1.417159,1.6889 -3.478624,2.83719 -5.84846,3.04452 -2.36987,0.20734 -4.599386,-0.56553 -6.288305,-1.98267 -1.688904,-1.41719 -2.837187,-3.47863 -3.044518,-5.8485 -0.207337,-2.3698 0.565538,-4.59935 1.98269,-6.28828"
       id="path3285"
       style="fill:#fd3301;stroke:#000000;stroke-width:2.55585742;stroke-opacity:1" />
    <path
       d="m 45.546566,288.36807 c -1.688904,-1.41719 -2.837168,-3.47861 -3.044504,-5.84848 -0.207338,-2.36981 0.565537,-4.59936 1.98269,-6.28829 1.417159,-1.6889 3.478617,-2.83718 5.84846,-3.04451 2.369857,-0.20734 4.599387,0.56552 6.288292,1.98268"
       id="path3287"
       style="fill:#fd3301;stroke:#000000;stroke-width:2.55585742;stroke-opacity:1" />
    <rect
       width="293.86966"
       height="18.959333"
       x="-105.82214"
       y="276.96289"
       transform="matrix(0.64278761,-0.76604444,0.76604444,0.64278761,0,0)"
       id="rect3273"
       style="fill:#fd3301;fill-opacity:1;stroke:#000000;stroke-width:2.55585742;stroke-opacity:1" />
    <path
       d="m 262.25643,147.82826 7.26186,6.0934 -6.09342,7.26185 7.26185,6.09341 6.09342,-7.26185 7.26183,6.09342 -6.09341,7.26185 7.26185,6.09341 18.28024,-21.78554 -7.26186,-6.09342 6.09343,-7.26184 7.26183,6.09341 18.28025,-21.78554 -7.26185,-6.0934 -12.18682,14.52369 -7.26185,-6.09342 30.46706,-36.309233 7.26185,6.093413 -12.18682,14.5237 7.26184,6.09341 42.65388,-50.832922 -7.26185,-6.093408 -12.20201,14.541806 -7.26185,-6.093417 12.20203,-14.541802 -7.26185,-6.093413 c -4.06228,4.841226 -8.13975,9.700577 -12.20203,14.541804 l -7.26185,-6.093414 z"
       id="path3275"
       style="fill:#fd3301;stroke:#000000;stroke-width:2.55585742;stroke-opacity:1" />
    <path
       d="m 117.43421,261.42964 c -2.42062,-2.03114 3.67279,-9.29298 6.09339,-7.26184 l 43.57108,36.56048 c 2.42063,2.03114 -3.67279,9.29298 -6.0934,7.26184 z"
       id="path3293"
       style="fill:#fd3301;fill-opacity:1;stroke:#000000;stroke-width:2.55585742;stroke-opacity:1" />
    <path
       d="m 118.60262,274.7849 c -2.4206,-2.03114 3.6728,-9.29299 6.09342,-7.26185 l 29.04739,24.37366 c 2.42063,2.03115 -3.6728,9.29298 -6.09341,7.26184 z"
       id="path3291"
       style="fill:#fd3301;fill-opacity:1;stroke:#000000;stroke-width:2.55585742;stroke-opacity:1" />
    <path
       d="m 134.42038,263.30793 c -2.42062,-2.03115 3.6728,-9.293 6.09342,-7.26186 l 21.78554,18.28024 c 2.4206,2.03114 -3.67279,9.29299 -6.09342,7.26185 z"
       id="path3295"
       style="fill:#fd3301;fill-opacity:1;stroke:#000000;stroke-width:2.55585742;stroke-opacity:1" />
  </g>
</svg>
