<svg xmlns="http://www.w3.org/2000/svg" width="504" height="565"><path d="M7.79 53.257L24.64 333.67C32.374 462.345 120.6 556.945 252 557.138c131.4.194 219.627-94.407 227.36-223.082l16.85-280.413C423.36 24.056 343.36 8.056 252 7.863 160.64 7.67 80.64 23.67 7.79 53.257z" fill="red" fill-rule="evenodd" stroke="#000" stroke-width="14" stroke-linecap="round" stroke-linejoin="round"/><g stroke="#000" stroke-width="5" stroke-linecap="round" stroke-linejoin="round"><path d="M236.322 160.323c-7.358 24.186-42.663 11.998-24.927-18.68-22.051 22.312-39.035-4.085-20.608-22.42-23.45 13.263-33.323-7.533-16.787-21.074 13.321-10.91 27.598-22.01 34.197-31.574L204 47.75c0-3.601 1-4.601 4.737-4.601H229c7.667-6.667 15-20 23-20s15.333 13.333 23 20h20.263c3.737 0 4.737 1 4.737 4.601l-4.197 18.825c6.6 9.564 20.876 20.664 34.197 31.574 16.536 13.541 6.663 34.337-16.787 21.074 18.427 18.335 1.443 44.732-20.608 22.42 17.735 30.678-17.57 42.866-24.927 18.68-.73 28.218-31.132 26.745-31.356 0z" fill="#fff" fill-rule="evenodd"/><path d="M295.803 66.575c-8.67-9.105-15.224-16.072-20.803-23.426m-7.322 117.174l-5.73-46.205m30.657 27.524L280.31 109.92m32.903 9.303L292.902 95.23m-84.705-28.655c9.16-8.455 15.724-16.649 20.803-23.426m7.322 117.174l5.73-46.205m-30.657 27.524l12.295-31.722m-32.903 9.303l20.311-23.993" fill="none"/></g><g stroke="#000" stroke-width="5" stroke-linecap="round" stroke-linejoin="round"><path d="M100.336 312.558c4.444-17.471-16.74-18.567-27.516-15.584-4.078 10.41-5.174 31.595 12.663 28.977 4.222 19.843 3.505 37.793-2.922 56.493-17.471-4.443-18.567 16.741-15.584 27.517 10.41 4.078 31.595 5.174 28.977-12.663 20.031-4.888 32.71-4.597 53.145-.792-4.444 17.471 16.741 18.567 27.516 15.584 4.079-10.41 5.174-31.595-12.662-28.977-2.12-26.864 4.247-46.079 14.061-66.538 20.82 8.157 24.533 4.81 18.567-16.74l115.116-103.796 2.253 24.898 30.134 33.421 18.567-16.741-20.09-22.28c-10.044-11.14 4.81-24.534 16.699-10.85l18.244 19.737 22.28-20.09-16.74-18.566-14.124-.73 1.461-28.247 28.247 1.46-.73 14.124 16.74 18.567 22.28-20.09-20.089-22.28c-10.044-11.14 4.81-24.533 14.854-13.393l20.09 22.28 18.566-16.74-30.134-33.421-24.533-4.81 22.28-20.089.366-7.061c14.123.73 18.202-9.68 18.932-23.803-14.123-.73-24.898 2.253-25.629 16.376l-7.061-.365L183.188 284.98c-20.82-8.158-24.533-4.81-18.567 16.74-20.869 7.246-41.716 14.016-64.285 10.837zm50.93 14.671l-8.133 47.727-39.022 1.522 2.192-42.37z" fill="#fff" fill-rule="evenodd"/><path d="M82.561 382.444c2.693 5.605 5.786 11.061 13.393 14.854m67.999-14.185c-3.24 5.738-7.586 10.652-14.854 13.393m-48.763-83.948c-6.197 2.368-11.233 6.69-14.853 13.393M431.62 67.711l6.697 7.427M164.62 301.722c5.55 3.323 10.614 7.375 13.393 14.853m5.174-31.594c9.484 5.955 10.51 10.218 13.393 14.853M415.672 102.29l-103.975 93.75" fill="none"/><g><path d="M403.664 312.558c-4.444-17.471 16.74-18.567 27.516-15.584 4.078 10.41 5.174 31.595-12.663 28.977-4.222 19.843-3.505 37.793 2.922 56.493 17.471-4.443 18.567 16.741 15.584 27.517-10.41 4.078-31.595 5.174-28.977-12.663-20.031-4.888-32.71-4.597-53.145-.792 4.444 17.471-16.741 18.567-27.516 15.584-4.079-10.41-5.174-31.595 12.662-28.977 2.12-26.864-4.247-46.079-14.061-66.538-20.82 8.157-24.533 4.81-18.567-16.74L192.303 196.038l-2.253 24.898-30.134 33.421-18.567-16.741 20.09-22.28c10.044-11.14-4.81-24.534-16.699-10.85l-18.244 19.737-22.28-20.09 16.74-18.566 14.124-.73-1.461-28.247-28.247 1.46.73 14.124-16.74 18.567-22.28-20.09 20.089-22.28c10.044-11.14-4.81-24.533-14.854-13.393l-20.09 22.28-18.566-16.74 30.134-33.421 24.533-4.81L66.048 82.2l-.366-7.061c-14.123.73-18.202-9.68-18.932-23.803 14.123-.73 24.898 2.253 25.629 16.376l7.061-.365L320.812 284.98c20.82-8.158 24.533-4.81 18.567 16.74 20.869 7.246 41.716 14.016 64.285 10.837zm-50.93 14.671l8.133 47.727 39.022 1.522-2.192-42.37z" fill="#fff" fill-rule="evenodd"/><path d="M421.439 382.444c-2.693 5.605-5.786 11.061-13.393 14.854m-67.999-14.185c3.24 5.738 7.586 10.652 14.854 13.393m48.763-83.948c6.197 2.368 11.233 6.69 14.853 13.393M72.38 67.711l-6.697 7.427M339.38 301.722c-10.712 6.062-10.46 10.043-13.393 14.853m-5.174-31.594c-7.731 3.17-11.203 8.938-13.393 14.853M88.328 102.29l103.975 93.75" fill="none"/></g></g><g stroke="#000" stroke-width="5" stroke-linecap="round" stroke-linejoin="round"><path d="M246.5 402.163h-16c-.924-11.14-6.179-27.64-7-47-.604-14.247 12-20 22-20 3.603 0 2.695-7 7-7 5.6 0 2.58 7 7 7 10 0 22.197 7.467 22 20-.301 19.212-6.262 36.444-7 47h-16c4-10 4-22-6-22s-10 12-6 22zm31 38c.702 13.496-6.248 18.686-15 25 .852 10.479-1.373 32.791 8.134 38.747 9.892 6.195 27.353-4.324 37.876-6.678-11.121 22.67-25.489 44.791-55.088 44.107-14.968-.346-26.858-15.791-28.33-26.757-2.432-18.1 13.998-31.31 12.408-49.42-8.486-7.82-11.006-18.184-10-25 .774-5.238 4.201-10.744 10-15-9.494 4.858-21.93 9.717-35 10 .25-18.332 8.87-25.666 5-35-10.792-26.031-25.175-55.798 5-80 22.504-18.047 50.444-17.859 80 0 31.389 18.968 10.961 55.312 5 85-1.723 8.584 4.741 10.77 5 30-12.748-.14-25.392-5.35-35-10 5.333 3.627 9.609 7.47 10 15z" fill="#fff" fill-rule="evenodd"/><path d="M246.5 402.163c3.176 1.924 6.746 2.927 12 0m-21 23c6.817-3.62 11.647-7.876 15-8 3.234-.12 8.38 4.481 15 8m-18.41-6.689c2.886 9.853 4.665 16.823-2.59 21.689-6.612 4.434-1 14 6 14s11.324-5.179 10-14c-1.35-8.996-2.7-14.995-4.05-20.539" fill="none"/></g></svg>