<svg xmlns="http://www.w3.org/2000/svg" width="610" height="742"><path d="M600 206V-12H0v218" style="fill:#da121a;stroke:none;stroke-width:1;stroke-linecap:round;stroke-linejoin:round;stroke-miterlimit:4;stroke-dasharray:none;stroke-opacity:1" transform="translate(5 17)"/><path d="M0 206v330c0 100 120 184 300 184s300-84 300-184V206" style="fill:#fcdd09;stroke:none;stroke-width:1;stroke-linecap:round;stroke-linejoin:round;stroke-miterlimit:4;stroke-dasharray:none;stroke-opacity:1" transform="translate(5 17)"/><path style="fill:none;stroke:#000;stroke-width:8;stroke-linecap:round;stroke-linejoin:round;stroke-miterlimit:4;stroke-dasharray:none;stroke-opacity:1" d="M600 536V-12H0v548c0 100 120 184 300 184s300-84 300-184z" transform="translate(5 17)"/><path style="fill:#da121a;stroke:#000;stroke-width:3;stroke-linecap:round;stroke-linejoin:round;stroke-miterlimit:4;stroke-dasharray:none;stroke-opacity:1" d="M232 644c-15 0-15-21 0-21h10V501c0-70 133-70 133 0v122h10c15 0 15 21 0 21z" transform="translate(-3 17)"/><path style="fill:none;stroke:#000;stroke-width:3;stroke-linecap:butt;stroke-linejoin:round;stroke-miterlimit:4;stroke-dasharray:none;stroke-opacity:1" d="M246 513v-11h5v-11m15 22v-11h5v-11m15 22v-11h5v-11m75 22v-11h5v-11m-25 22v-11h5v-11m-25 22v-11h5v-11m-65-22v-9.389l2.578-1.611H271v-1.9m15 12.9v-11h5v-7.7m55 18.7v-11h1.8M326 469v-11h5v-6.1M306 469v-11h5v-9m-65 42v-9.397c.415-1.001.53-.602.944-1.603H251v-7.4m15 18.4v-11h5v-11m15 22v-11h5v-11m75 22v-11h3.9M346 491v-11h5v-11m-25 22v-11h5v-11m-25 22v-11h5v-11m-65 66v-11h5v-11m15 22v-11h5v-11m15 22v-11h5v-11m75 22v-11h5v-11m-25 22v-11h5v-11m-25 22v-11h5v-11m-25 22v-11h5v-11m-65 44v-11h5v-11m15 22v-11h5v-11m15 22v-11h5v-11m75 22v-11h5v-11m-25 22v-11h5v-11m-25 22v-11h5v-11m-25 22v-11h5v-11m-65 44v-11h5v-11m15 22v-11h5v-11m15 22v-11h5v-11m75 22v-11h5v-11m-25 22v-11h5v-11m-25 22v-11h5v-11m-25 22v-11h5v-11m-65 44v-11h5v-11m15 22v-11h5v-11m15 22v-11h5v-11m75 22v-11h5v-11m-25 22v-11h5v-11m-25 22v-11h5v-11m-25 22v-11h5v-11m-65 44v-11h5v-11m15 22v-11h5v-11m15 22v-11h5v-11m75 22v-11h5v-11m-25 22v-11h5v-11m-25 22v-11h5v-11m-25 22v-11h5v-11m-57-132h109m-120 22h131m-132 22h133m-133 22h133m-133 22h133m-133 22h133m-133 22h133m-133 22h133m-69-110v-11h5v-11" transform="translate(-3 17)"/><path style="opacity:1;fill:#da121a;fill-opacity:1;stroke:#000;stroke-width:3;stroke-linecap:butt;stroke-linejoin:round;stroke-miterlimit:4;stroke-dasharray:none;stroke-opacity:1" d="M300.553 218.856c31.866-.164 20.705 24.246 16.066 35.176 10.202-7.453 28.558-25.955 38.561 4.301s-16.661 27.184-28.519 26.139c10.212 7.387 33.48 19.128 7.797 37.99-25.684 18.864-31.002-7.445-33.676-19.063-3.873 11.977-7.849 37.734-33.725 19.136-25.876-18.597-2.499-31.785 7.725-37.916-12.587.02-38.312 4.197-28.621-26.16 9.691-30.356 29.458-12.198 38.403-4.334-3.954-11.93-15.877-35.106 15.989-35.27z" transform="translate(4.623 17)"/><path style="fill:none;stroke:#000;stroke-width:5;stroke-linecap:round;stroke-linejoin:round;stroke-miterlimit:4;stroke-dasharray:none;stroke-opacity:1" d="M264.57 277.464c-24.918 5.71-4.924-43.936 7.493-23.058m18.968 56.522c-2.27 25.463-43.308-8.894-19.614-14.25m59.403 1.02c23.516 10.028-21.84 38.44-19.614 14.25m18.977-58.731c16.804-19.266 29.809 32.65 7.492 23.057M288.4 241c-13.13-21.935 40.264-18.26 24.245 0" transform="translate(4.623 17)"/><g transform="translate(1.323 18.3)"><path transform="matrix(1.63003 .0284 -.02793 1.65758 -11.027 -123.275)" d="M207.644 250.457c-1.148.865-8.766-8.184-10.202-8.159-1.437.025-8.736 9.333-9.913 8.508-1.177-.824 5.074-10.865 4.606-12.224-.467-1.358-11.575-5.424-11.154-6.798.42-1.374 11.901 1.468 13.049.604 1.148-.865 1.582-12.685 3.019-12.71 1.436-.025 2.28 11.773 3.458 12.597 1.177.824 12.553-2.415 13.02-1.057.468 1.36-10.491 5.808-10.912 7.182-.42 1.374 6.176 11.192 5.029 12.057z" style="opacity:1;fill:#000;fill-opacity:1;stroke:#000;stroke-width:1.82483006;stroke-linecap:round;stroke-linejoin:round;stroke-miterlimit:4;stroke-dasharray:none;stroke-opacity:1"/><circle r="8.5" cy="275.285" cx="303.77" style="opacity:1;fill:#fcdd09;fill-opacity:1;stroke:none;stroke-width:3;stroke-linecap:round;stroke-linejoin:round;stroke-miterlimit:4;stroke-dasharray:none;stroke-opacity:1"/></g><path style="fill:none;stroke:#000;stroke-width:3;stroke-linecap:round;stroke-linejoin:round;stroke-miterlimit:4;stroke-dasharray:none;stroke-opacity:1" d="M344.015 241.436c-.68-8.447-.095-16.843 1.017-25.218-8.416 3.52-16.279 6.409-23.67 8.76m25.75 81.053c7.825-3.256 15.99-5.295 24.3-6.825-5.949-6.917-11.126-13.502-15.647-19.804m-98.027-37.966c.68-8.447.095-16.843-1.017-25.218 8.416 3.52 16.279 6.409 23.67 8.76m-25.75 81.053c-7.825-3.256-15.99-5.295-24.3-6.825 5.949-6.917 11.126-13.502 15.647-19.804M315 329c-5.515 6.435-9.977 13.57-14 21-4.74-7.794-9.403-14.753-14-21" transform="translate(4.623 17)"/><path style="fill:#da121a;stroke:#000;stroke-width:3;stroke-linecap:round;stroke-linejoin:round;stroke-miterlimit:4;stroke-dasharray:none;stroke-opacity:1" d="M465.402 484.328 231.233 346.582l-24.525 36.799c-9.738 14.61-30.819 1.23-22.241-13.043l22.762-37.877-66.991-39.406c-12.921-7.6-17.343-39.724.782-55.801 8.094-7.179 28.321-9.905 20.887 6.43-4.82 10.59-14.846 33.383-6.468 38.312l320.887 188.837z" transform="translate(-11.134 17)"/><path style="fill:#da121a;stroke:#000;stroke-width:3;stroke-linecap:round;stroke-linejoin:round;stroke-miterlimit:4;stroke-dasharray:none;stroke-opacity:1" d="M142.03 464.277 498.02 254.87l33.728 46.701-1.872 14.23-14.605.749c-1.004-12.474-9.493-23.788-17.6-30.707-8.192-6.99-18.112-.114-25.751 4.38l-56.296 33.115c4.092 25.728 12.998 36.611 25.877 50.131l-18.35 17.226c-12.856-13.688-24.767-33.477-28.458-55.045L152.252 478.264Z" transform="translate(-11.134 17)"/><path style="fill:#fff;stroke:#000;stroke-width:3;stroke-linecap:round;stroke-linejoin:round;stroke-miterlimit:4;stroke-dasharray:none;stroke-opacity:1" d="M476.326 470.833c13.474-1.551 23.58 4.35 26.516 24.578 13.45 2.45 37.996 16.42 53.62 25.6-23.72 50.689-53.166 91.644-83.88 130.445l-44.506-56.738c24.406-24.588 46.38-52.932 59.083-91.946-9.354-1.732-20.057-6.573-21.757-18.444zm-334.296-6.556c-11.875 1.498-30.13 9.182-35.805 21.061-10.748-7.85-27.287 3.336-29.178 17.164-3.8 27.786 40.13 82.241 56.264 132.723 14.18 3.954 32.52 7.529 57.669 10.485 4.45-48.21-13.94-88.36-25.09-131.064-19.448-.463-37.697-3.323-52.184-13.708 12.487-.215 36.513-8.518 38.546-22.674z" transform="translate(-11.134 17)"/><path style="fill:none;stroke:#000;stroke-width:3;stroke-linecap:round;stroke-linejoin:round;stroke-miterlimit:4;stroke-dasharray:none;stroke-opacity:1" d="m415.624 323.34-20.93 12.311m-163.46 10.93-24.005-14.12M106.225 485.338c-1.69 7.815 1.186 12.776 7.48 15.6-13.78-1.233-12.234 8.772-11.475 18.201m384.93-16.367c5.227.669 12.308-2.542 15.682-7.36 2.57 7.266-1.19 13.267-5.565 19.144" transform="translate(-11.134 17)"/><path d="m275 36 8 125h39l8-125z" style="fill:#000;stroke:#000;stroke-width:3;stroke-linecap:round;stroke-linejoin:round;stroke-miterlimit:4;stroke-dasharray:none;stroke-opacity:1" transform="translate(2.867 17)"/><path d="M302.5 206v-45m13.7-125 .8-31m-28.2 31L288 5m14.5 31V5m27.589 30.901 2.003-31.284m-57.1 31.284-2.003-31.284" style="fill:none;stroke:#000;stroke-width:3;stroke-linecap:round;stroke-linejoin:round;stroke-miterlimit:4;stroke-dasharray:none;stroke-opacity:1" transform="translate(2.867 17)"/><path d="M279.354 39.92c.379 8.76 6.334 18.043 18.535 17.608 2.747-11.86-6.327-18.1-18.535-17.609zm46.423 0c-.379 8.76-6.334 18.043-18.535 17.608-2.747-11.86 6.327-18.1 18.535-17.609zm-45.423 20c.379 8.76 6.334 18.043 18.535 17.608 2.747-11.86-6.327-18.1-18.535-17.609Zm44.423 0c-.379 8.76-6.334 18.043-18.535 17.608-2.747-11.86 6.327-18.1 18.535-17.609zm-43.423 20c.379 8.76 6.334 18.043 18.535 17.608 2.747-11.86-6.327-18.1-18.535-17.609Zm42.423 0c-.379 8.76-6.334 18.043-18.535 17.608-2.747-11.86 6.327-18.1 18.535-17.609zm-40.923 20c.379 8.76 5.333 18.043 17.535 17.608 2.747-11.86-5.327-18.1-17.535-17.609zm39.423 0c-.378 8.76-5.333 18.043-17.535 17.608-2.747-11.86 5.327-18.1 17.535-17.609zm-38.423 20c.379 8.76 4.333 18.043 16.535 17.608 2.747-11.86-4.327-18.1-16.535-17.609zm37.423 0c-.378 8.76-4.333 18.043-16.535 17.608-2.747-11.86 4.327-18.1 16.535-17.609zm-36.423 20c.379 8.76 3.333 18.043 15.535 17.608 2.747-11.86-3.327-18.1-15.535-17.609zm35.423 0c-.379 8.76-3.333 18.043-15.535 17.608-2.747-11.86 3.327-18.1 15.535-17.609z" style="fill:#fcdd09;stroke:#fcdd09;stroke-width:1px;stroke-linecap:round;stroke-linejoin:round;stroke-opacity:1" transform="translate(2.867 17)"/><path style="fill:#000;stroke:#000;stroke-width:3;stroke-linecap:round;stroke-linejoin:round;stroke-miterlimit:4;stroke-dasharray:none;stroke-opacity:1" d="m275 36 8 125h39l8-125z" transform="rotate(-49.288 319.013 217.007)"/><path style="fill:none;stroke:#000;stroke-width:3;stroke-linecap:round;stroke-linejoin:round;stroke-miterlimit:4;stroke-dasharray:none;stroke-opacity:1" d="M302.5 206v-45m13.7-125 .8-31m-28.2 31L288 5m14.5 31V5m27.589 30.901 2.003-31.284m-57.1 31.284-2.003-31.284" transform="rotate(-49.288 319.013 217.007)"/><path style="fill:#fcdd09;stroke:#fcdd09;stroke-width:1px;stroke-linecap:round;stroke-linejoin:round;stroke-opacity:1" d="M279.354 39.92c.379 8.76 6.334 18.043 18.535 17.608 2.747-11.86-6.327-18.1-18.535-17.609zm46.423 0c-.379 8.76-6.334 18.043-18.535 17.608-2.747-11.86 6.327-18.1 18.535-17.609zm-45.423 20c.379 8.76 6.334 18.043 18.535 17.608 2.747-11.86-6.327-18.1-18.535-17.609Zm44.423 0c-.379 8.76-6.334 18.043-18.535 17.608-2.747-11.86 6.327-18.1 18.535-17.609zm-43.423 20c.379 8.76 6.334 18.043 18.535 17.608 2.747-11.86-6.327-18.1-18.535-17.609Zm42.423 0c-.379 8.76-6.334 18.043-18.535 17.608-2.747-11.86 6.327-18.1 18.535-17.609zm-40.923 20c.379 8.76 5.333 18.043 17.535 17.608 2.747-11.86-5.327-18.1-17.535-17.609zm39.423 0c-.378 8.76-5.333 18.043-17.535 17.608-2.747-11.86 5.327-18.1 17.535-17.609zm-38.423 20c.379 8.76 4.333 18.043 16.535 17.608 2.747-11.86-4.327-18.1-16.535-17.609zm37.423 0c-.378 8.76-4.333 18.043-16.535 17.608-2.747-11.86 4.327-18.1 16.535-17.609zm-36.423 20c.379 8.76 3.333 18.043 15.535 17.608 2.747-11.86-3.327-18.1-15.535-17.609zm35.423 0c-.379 8.76-3.333 18.043-15.535 17.608-2.747-11.86 3.327-18.1 15.535-17.609z" transform="rotate(-49.288 319.013 217.007)"/><path d="m275 36 8 125h39l8-125z" style="fill:#000;stroke:#000;stroke-width:3;stroke-linecap:round;stroke-linejoin:round;stroke-miterlimit:4;stroke-dasharray:none;stroke-opacity:1" transform="rotate(-27.332 335.536 205.744)"/><path d="M302.5 206v-45m13.7-125 .8-31m-28.2 31L288 5m14.5 31V5m27.589 30.901 2.003-31.284m-57.1 31.284-2.003-31.284" style="fill:none;stroke:#000;stroke-width:3;stroke-linecap:round;stroke-linejoin:round;stroke-miterlimit:4;stroke-dasharray:none;stroke-opacity:1" transform="rotate(-27.332 335.536 205.744)"/><path d="M279.354 39.92c.379 8.76 6.334 18.043 18.535 17.608 2.747-11.86-6.327-18.1-18.535-17.609zm46.423 0c-.379 8.76-6.334 18.043-18.535 17.608-2.747-11.86 6.327-18.1 18.535-17.609zm-45.423 20c.379 8.76 6.334 18.043 18.535 17.608 2.747-11.86-6.327-18.1-18.535-17.609Zm44.423 0c-.379 8.76-6.334 18.043-18.535 17.608-2.747-11.86 6.327-18.1 18.535-17.609zm-43.423 20c.379 8.76 6.334 18.043 18.535 17.608 2.747-11.86-6.327-18.1-18.535-17.609Zm42.423 0c-.379 8.76-6.334 18.043-18.535 17.608-2.747-11.86 6.327-18.1 18.535-17.609zm-40.923 20c.379 8.76 5.333 18.043 17.535 17.608 2.747-11.86-5.327-18.1-17.535-17.609zm39.423 0c-.378 8.76-5.333 18.043-17.535 17.608-2.747-11.86 5.327-18.1 17.535-17.609zm-38.423 20c.379 8.76 4.333 18.043 16.535 17.608 2.747-11.86-4.327-18.1-16.535-17.609zm37.423 0c-.378 8.76-4.333 18.043-16.535 17.608-2.747-11.86 4.327-18.1 16.535-17.609zm-36.423 20c.379 8.76 3.333 18.043 15.535 17.608 2.747-11.86-3.327-18.1-15.535-17.609zm35.423 0c-.379 8.76-3.333 18.043-15.535 17.608-2.747-11.86 3.327-18.1 15.535-17.609z" style="fill:#fcdd09;stroke:#fcdd09;stroke-width:1px;stroke-linecap:round;stroke-linejoin:round;stroke-opacity:1" transform="rotate(-27.332 335.536 205.744)"/><path d="m275 36 8 125h39l8-125z" style="fill:#000;stroke:#000;stroke-width:3;stroke-linecap:round;stroke-linejoin:round;stroke-miterlimit:4;stroke-dasharray:none;stroke-opacity:1" transform="scale(-1 1) rotate(-49.288 13.513 882.92)"/><path d="M302.5 206v-45m13.7-125 .8-31m-28.2 31L288 5m14.5 31V5m27.589 30.901 2.003-31.284m-57.1 31.284-2.003-31.284" style="fill:none;stroke:#000;stroke-width:3;stroke-linecap:round;stroke-linejoin:round;stroke-miterlimit:4;stroke-dasharray:none;stroke-opacity:1" transform="scale(-1 1) rotate(-49.288 13.513 882.92)"/><path d="M279.354 39.92c.379 8.76 6.334 18.043 18.535 17.608 2.747-11.86-6.327-18.1-18.535-17.609zm46.423 0c-.379 8.76-6.334 18.043-18.535 17.608-2.747-11.86 6.327-18.1 18.535-17.609zm-45.423 20c.379 8.76 6.334 18.043 18.535 17.608 2.747-11.86-6.327-18.1-18.535-17.609Zm44.423 0c-.379 8.76-6.334 18.043-18.535 17.608-2.747-11.86 6.327-18.1 18.535-17.609zm-43.423 20c.379 8.76 6.334 18.043 18.535 17.608 2.747-11.86-6.327-18.1-18.535-17.609Zm42.423 0c-.379 8.76-6.334 18.043-18.535 17.608-2.747-11.86 6.327-18.1 18.535-17.609zm-40.923 20c.379 8.76 5.333 18.043 17.535 17.608 2.747-11.86-5.327-18.1-17.535-17.609zm39.423 0c-.378 8.76-5.333 18.043-17.535 17.608-2.747-11.86 5.327-18.1 17.535-17.609zm-38.423 20c.379 8.76 4.333 18.043 16.535 17.608 2.747-11.86-4.327-18.1-16.535-17.609zm37.423 0c-.378 8.76-4.333 18.043-16.535 17.608-2.747-11.86 4.327-18.1 16.535-17.609zm-36.423 20c.379 8.76 3.333 18.043 15.535 17.608 2.747-11.86-3.327-18.1-15.535-17.609zm35.423 0c-.379 8.76-3.333 18.043-15.535 17.608-2.747-11.86 3.327-18.1 15.535-17.609z" style="fill:#fcdd09;stroke:#fcdd09;stroke-width:1px;stroke-linecap:round;stroke-linejoin:round;stroke-opacity:1" transform="scale(-1 1) rotate(-49.288 13.513 882.92)"/><path style="fill:#000;stroke:#000;stroke-width:3;stroke-linecap:round;stroke-linejoin:round;stroke-miterlimit:4;stroke-dasharray:none;stroke-opacity:1" d="m275 36 8 125h39l8-125z" transform="scale(-1 1) rotate(-27.332 30.036 1462.197)"/><path style="fill:none;stroke:#000;stroke-width:3;stroke-linecap:round;stroke-linejoin:round;stroke-miterlimit:4;stroke-dasharray:none;stroke-opacity:1" d="M302.5 206v-45m13.7-125 .8-31m-28.2 31L288 5m14.5 31V5m27.589 30.901 2.003-31.284m-57.1 31.284-2.003-31.284" transform="scale(-1 1) rotate(-27.332 30.036 1462.197)"/><path style="fill:#fcdd09;stroke:#fcdd09;stroke-width:1px;stroke-linecap:round;stroke-linejoin:round;stroke-opacity:1" d="M279.354 39.92c.379 8.76 6.334 18.043 18.535 17.608 2.747-11.86-6.327-18.1-18.535-17.609zm46.423 0c-.379 8.76-6.334 18.043-18.535 17.608-2.747-11.86 6.327-18.1 18.535-17.609zm-45.423 20c.379 8.76 6.334 18.043 18.535 17.608 2.747-11.86-6.327-18.1-18.535-17.609Zm44.423 0c-.379 8.76-6.334 18.043-18.535 17.608-2.747-11.86 6.327-18.1 18.535-17.609zm-43.423 20c.379 8.76 6.334 18.043 18.535 17.608 2.747-11.86-6.327-18.1-18.535-17.609Zm42.423 0c-.379 8.76-6.334 18.043-18.535 17.608-2.747-11.86 6.327-18.1 18.535-17.609zm-40.923 20c.379 8.76 5.333 18.043 17.535 17.608 2.747-11.86-5.327-18.1-17.535-17.609zm39.423 0c-.378 8.76-5.333 18.043-17.535 17.608-2.747-11.86 5.327-18.1 17.535-17.609zm-38.423 20c.379 8.76 4.333 18.043 16.535 17.608 2.747-11.86-4.327-18.1-16.535-17.609zm37.423 0c-.378 8.76-4.333 18.043-16.535 17.608-2.747-11.86 4.327-18.1 16.535-17.609zm-36.423 20c.379 8.76 3.333 18.043 15.535 17.608 2.747-11.86-3.327-18.1-15.535-17.609zm35.423 0c-.379 8.76-3.333 18.043-15.535 17.608-2.747-11.86 3.327-18.1 15.535-17.609z" transform="scale(-1 1) rotate(-27.332 30.036 1462.197)"/><path d="M0 206h600" style="fill:none;stroke:#000;stroke-width:5;stroke-linecap:butt;stroke-linejoin:miter;stroke-miterlimit:4;stroke-dasharray:none;stroke-opacity:1" transform="translate(5 17)"/></svg>