<svg xmlns="http://www.w3.org/2000/svg" width="701.33" height="741.77" viewBox="0 0 701.3341 741.76859"><g transform="translate(-19.589-34.34)"><g fill-rule="evenodd"><path d="m25.27 39.835l13.398 416.62c7.415 175.25 153.92 314.05 331.59 314.14 177.51-.215 324.07-139.06 331.59-314.14l13.398-416.62h-344.98z" fill="#090"/><path d="m370.26 312.76c-7.087 0-14.49 2.188-20.34 6.188-16.598 11.347-27.37 29.919-37.31 47.4-9.824 17.283-16.07 36.516-21.4 55.668-16.11 57.874-23.434 121.17-31.53 177.44-1.383 9.613-2.698 19.236-3.948 28.869l114.52-.688 114.52.688c-1.25-9.633-2.567-19.256-3.95-28.869-8.095-56.27-15.424-119.57-31.53-177.44-5.33-19.15-11.575-38.39-21.4-55.668-9.936-17.479-20.706-36.05-37.3-47.4-5.85-4-13.254-6.188-20.34-6.188z" fill="#fff" stroke="#000" stroke-linejoin="round" stroke-width="5"/><path d="m337.87 305.92c-1.075.025-2.149.183-3.189.455-2.081.545-4.03 1.543-5.766 2.814-3.244 2.377-5.734 5.693-7.453 9.328-1.719 3.635-2.695 7.588-3.24 11.572-.705 5.152-.705 10.4 0 15.553 1.147-7.634 3.487-15.09 6.906-22.01 1.287-2.605 2.765-5.188 4.938-7.117 1.086-.965 2.341-1.753 3.715-2.227 1.374-.473 2.87-.623 4.295-.338 1.301.26 2.516.876 3.578 1.672 1.062.796 1.978 1.768 2.814 2.799 3.792 4.675 5.933 10.515 7.01 16.438 1.075 5.923 1.142 11.977 1.18 17.996.111 17.983-.025 35.966-.289 53.947-.633-1.364-1.341-2.691-2.154-3.961-4.176-6.522-11-11.429-18.639-12.715-5.736-.966-11.78.123-16.873 2.934-7.714 4.257-12.98 12.29-14.848 20.9-1.107 5.105-1.107 10.447 0 15.553 1.367-7.964 4.687-15.584 9.588-22.01 2.168-2.842 4.678-5.484 7.734-7.338 3.056-1.854 6.71-2.876 10.244-2.344 3.319.5 6.306 2.315 8.877 4.473 8.529 7.157 13.08 18.07 15.244 28.996.125.629.235 1.261.346 1.893-.228 11.02-.475 22.05-.742 33.07-.003.03-.005.06-.008.09l.006-.002c-.028 1.159-.054 2.319-.082 3.479-.253 10.371-.523 20.742-.785 31.11-1.039-3.213-2.289-6.357-3.828-9.4-2.452-4.847-5.61-9.381-9.639-13.03-4.03-3.644-8.958-6.373-14.291-7.404-7.44-1.439-15.336.543-21.662 4.715-5.532 3.649-9.927 8.882-13.04 14.732-3.114 5.85-4.985 12.306-6.02 18.852-1.308 8.263-1.308 16.732 0 24.994 1.861-12.417 6.06-24.478 12.311-35.37 2.469-4.301 5.319-8.492 9.215-11.561 1.948-1.535 4.147-2.772 6.516-3.504 2.369-.732 4.913-.95 7.35-.492 2.245.422 4.36 1.405 6.254 2.682 1.894 1.277 3.576 2.844 5.145 4.504 11.755 12.435 16.947 29.689 19.57 46.598.382 2.459.707 4.927.996 7.398-.418 15.803-.838 31.607-1.277 47.41l8.75 3.402c.023-12.549.094-25.1.191-37.646.246-1.924.495-3.848.734-5.773 1.13-9.105 2.187-18.269 4.725-27.09 2.538-8.817 6.66-17.362 13.158-23.84 1.947-1.941 4.106-3.69 6.521-5 2.416-1.312 5.098-2.178 7.844-2.307 4.879-.229 9.662 1.901 13.383 5.064 3.721 3.164 6.491 7.298 8.854 11.572 6.54 11.831 10.308 25.18 10.92 38.688 1.244-8.414 1.244-17.01 0-25.426-.976-6.601-2.733-13.13-5.746-19.09-3.01-5.954-7.326-11.322-12.842-15.08-6.128-4.173-13.851-6.237-21.12-4.797-5.296 1.049-10.144 3.889-14.05 7.617-3.905 3.728-6.911 8.32-9.287 13.168-.947 1.933-1.796 3.901-2.557 5.898.205-13.627.437-27.26.73-40.881.067-3.112.139-6.224.209-9.336.117-.881.228-1.764.35-2.645.779-5.637 1.663-11.287 3.371-16.715 1.708-5.428 4.28-10.66 8.109-14.869 2.081-2.287 4.656-4.317 7.697-4.869 1.648-.299 3.366-.144 4.965.355 1.599.5 3.082 1.337 4.396 2.375 2.629 2.077 4.555 4.907 6.223 7.813 4.235 7.377 7.07 15.555 8.313 23.971.882-5.601.882-11.339 0-16.939-.698-4.433-1.957-8.806-4.059-12.771-2.101-3.965-5.069-7.517-8.813-9.992-4.269-2.823-9.602-4.168-14.627-3.195-3.607.699-6.939 2.552-9.658 5.02-2.203 2-4.01 4.401-5.502 6.984.246-13.14.408-26.28.41-39.41.156-1.232.309-2.464.475-3.695.693-5.16 1.47-10.332 2.992-15.311 1.522-4.979 3.824-9.789 7.275-13.688.924-1.043 1.93-2.02 3.076-2.814 1.146-.793 2.437-1.4 3.807-1.656 1.489-.278 3.042-.134 4.484.328 1.442.462 2.775 1.237 3.949 2.193 2.348 1.913 4.04 4.507 5.502 7.158 3.765 6.814 6.296 14.308 7.434 22.01.776-5.146.776-10.407 0-15.553-.61-4.048-1.708-8.05-3.578-11.693-1.87-3.642-4.537-6.919-7.932-9.207-3.802-2.563-8.58-3.813-13.08-2.934-3.265.638-6.265 2.357-8.691 4.633-2.426 2.276-4.302 5.092-5.76 8.08-.113.231-.211.467-.318.699-.017-.65-.029-1.301-.047-1.951-.345-12.559-1.054-25.603-6.998-36.672-1.208-2.249-2.632-4.405-4.451-6.195-1.819-1.79-4.055-3.207-6.535-3.811-1.045-.254-2.12-.361-3.195-.336" transform="translate(19.589 34.34)"/></g><g stroke="#000"><path d="m5.68 5.5l13.398 416.62c2.419 57.18 19.654 110.47 47.939 156.34 24.24-13.13 48.66-31.08 72.64-53.625 71.902-67.62 133.94-171.06 172.48-287.57 20.547-62.4 33.637-169.73 38.422-231.77h-344.87zm345.1 0c4.784 62.04 17.873 169.37 38.42 231.77 38.533 116.51 100.57 219.96 172.48 287.57 23.942 22.516 48.32 40.44 72.53 53.57 28.319-45.863 45.591-99.14 48.04-156.29l13.398-416.62h-344.87z" transform="translate(19.589 34.34)" fill="#fff" stroke-linejoin="round" stroke-linecap="round" stroke-width="8"/><g fill-rule="evenodd"><path d="m25.27 39.835l13.398 416.62c7.415 175.25 153.92 314.05 331.59 314.14 177.51-.215 324.07-139.06 331.59-314.14l13.398-416.62h-344.98z" fill="none" stroke-width="11"/><path d="m155.26 323.82l-1.031 63.58c-.383 3.523-1.567 6.956-3.437 9.967-3.393 5.464-8.806 9.286-13.747 13.404-1.441 1.201-2.857 2.441-4.431 3.461-1.574 1.02-3.329 1.82-5.192 2.038-1.37.16-2.755.002-4.129-.117-1.374-.119-2.776-.197-4.119.117-1.577.369-2.989 1.264-4.207 2.331-1.218 1.067-2.267 2.311-3.354 3.511-2.725 3.01-5.719 5.773-8.936 8.248 2.066 1.802 4.56 3.108 7.217 3.781 2.239.566 4.59.684 6.874.344.782-2.01 2.262-3.732 4.124-4.812 2.764-1.603 6.102-1.726 9.279-2.062 2.662-.282 5.304-.741 7.905-1.375-1.71 1.158-3.428 2.304-5.155 3.437-2.58 1.693-5.182 3.359-7.905 4.812-.904.482-1.821.941-2.749 1.375 1.036 1.184 2.423 2.058 3.938 2.482 1.515.424 3.154.397 4.654-.076.748-.236 1.457-.578 2.187-.863.73-.285 1.497-.516 2.281-.511.738.004 1.462.216 2.136.515.674.299 1.307.683 1.945 1.052.639.369 1.29.726 1.989.962.699.236 1.452.349 2.178.22.663-.118 1.283-.435 1.803-.863.52-.428.944-.965 1.29-1.543.918-1.533 1.288-3.387 1.031-5.155 1.488.419 2.896 1.123 4.124 2.062 1.638 1.252 2.951 2.924 3.781 4.812.358-2.673.235-5.41-.36-8.04-.254-1.124-.594-2.228-1.015-3.301 1 .297 2.091.297 3.093 0 .939-.279 1.8-.817 2.461-1.539.662-.722 1.123-1.626 1.319-2.586-.641 1.879-.99 3.858-1.031 5.843-.053 2.578.418 5.166 1.375 7.561 2.257 1.495 4.871 2.446 7.561 2.749 1.948.22 3.934.103 5.843-.344-1.017-1.525-1.617-3.325-1.718-5.155-.144-2.593.735-5.229 2.406-7.217 1.425-.146 2.894.182 4.123.919 1.228.737 2.209 1.879 2.751 3.205.623 1.524.652 3.299 0 4.812-.389.901-1.01 1.7-1.788 2.298-.778.598-1.709.994-2.68 1.139.862.564 1.891.87 2.921.87 1.03 0 2.059-.306 2.921-.87.786-.514 1.433-1.24 1.853-2.081.42-.84.613-1.793.552-2.731 1.106 1.403 2.378 2.675 3.781 3.781 3.527 2.78 7.894 4.478 12.373 4.812.894-.428 1.635-1.168 2.062-2.062.562-1.175.562-2.605 0-3.781-2.047-.565-3.953-1.637-5.499-3.093-2.614-2.461-4.145-6.03-4.124-9.623 2.16 2.393 5.368 3.804 8.592 3.781.943-.007 1.884-.13 2.827-.101.943.029 1.915.226 2.672.789.528.392.924.943 1.195 1.542.271.599.424 1.245.523 1.895.191 1.25.191 2.53 0 3.781 1.845 1.102 4.048 1.592 6.186 1.375 1.865-.19 3.674-.913 5.155-2.062-.735-2.392-1.423-4.798-2.062-7.217-.45-1.703-.91-3.479-2.062-4.812-.946-1.093-2.282-1.785-3.662-2.216-1.38-.431-2.82-.623-4.243-.877-5.942-1.061-11.845-3.334-16.15-7.561-3.258-3.197-5.446-7.357-6.871-11.694-1.424-4.337-2.126-8.873-2.753-13.395-1.611-11.62-2.765-23.325-2.749-35.06.015-10.948 1.052-21.894 3.093-32.65l-29.21 3.781z"/><g stroke-width="5"><g fill="#090"><path d="m152.51 240.99c-5.601 29.795-17.12 58.47-33.682 83.86-11.08 16.992-24.41 32.521-39.523 46.05 15.325-1.207 30.457-4.815 44.678-10.654 17.03-6.992 32.738-17.19 46.05-29.9 13.317 12.71 29.02 22.908 46.05 29.9 14.22 5.839 29.355 9.448 44.68 10.654-15.11-13.534-28.439-29.06-39.523-46.05-16.564-25.392-28.08-54.06-33.682-83.86h-17.527-17.527z"/><path d="m153.96 194.8c-5.139 24.556-15.704 48.19-30.9 69.11-10.169 14-22.394 26.801-36.26 37.955 14.06-.994 27.942-3.969 40.988-8.781 7.482-2.76 14.68-6.13 21.498-10.04 1.554 3.243 3.29 6.399 5.199 9.447 4.351 6.945 9.593 13.332 15.555 18.955 5.962-5.623 11.202-12.01 15.553-18.955 1.909-3.048 3.645-6.204 5.199-9.447 6.818 3.909 14.02 7.279 21.498 10.04 13.05 4.812 26.931 7.787 40.99 8.781-13.865-11.154-26.09-23.951-36.26-37.955-15.197-20.927-25.762-44.557-30.9-69.11h-16.08-16.08z"/><path d="m155.04 140.38c-4.791 24.556-14.642 48.19-28.81 69.11-9.481 14-20.879 26.801-33.807 37.955 13.11-.994 26.05-3.969 38.22-8.781 6.976-2.76 13.687-6.13 20.04-10.04 1.449 3.243 3.067 6.399 4.848 9.447 4.056 6.945 8.944 13.332 14.502 18.955 5.559-5.623 10.444-12.01 14.501-18.955 1.78-3.048 3.398-6.204 4.848-9.447 6.356 3.909 13.07 7.279 20.04 10.04 12.164 4.812 25.11 7.787 38.22 8.781-12.927-11.154-24.326-23.951-33.807-37.955-14.169-20.927-24.02-44.557-28.81-69.11h-14.992-14.992z"/><path d="m160.01 116.09c-3.203 15.756-9.789 30.918-19.261 44.35-6.339 8.985-13.959 17.196-22.602 24.353 8.764-.638 17.417-2.547 25.549-5.634 4.664-1.771 9.15-3.934 13.4-6.441.969 2.081 2.051 4.106 3.241 6.06 2.712 4.456 5.979 8.554 9.696 12.162 3.716-3.608 6.983-7.706 9.694-12.162 1.19-1.956 2.272-3.981 3.241-6.06 4.25 2.508 8.737 4.671 13.4 6.441 8.132 3.088 16.787 4.996 25.55 5.634-8.643-7.157-16.263-15.368-22.602-24.353-9.472-13.428-16.06-28.59-19.261-44.35h-10.02-10.02z"/><path d="m170.04 75.23c-4.108 12.07-9.759 23.616-16.77 34.27-6.937 10.537-15.204 20.2-24.545 28.678 7.706-1.519 15.28-3.719 22.602-6.563 6.457-2.508 12.72-5.517 18.713-8.992 5.993 3.475 12.256 6.484 18.713 8.992 7.322 2.844 14.893 5.04 22.6 6.563-9.34-8.48-17.608-18.14-24.545-28.678-7.01-10.65-12.66-22.19-16.768-34.27z"/></g><g fill="none"><path d="m149.28 283.05c-.868-1.714-1.728-3.432-2.578-5.155-.986-1.999-1.96-4-2.921-6.01"/><path d="m190.79 283.05c.868-1.714 1.728-3.432 2.578-5.155.986-1.999 1.96-4 2.921-6.01"/><path d="m150.69 228.63c-.868-1.714-1.728-3.432-2.578-5.155-.986-1.999-1.96-4-2.921-6.01"/><path d="m189.38 228.63c.868-1.714 1.728-3.432 2.578-5.155.986-1.999 1.96-4 2.921-6.01"/><path d="m157.1 172.72c-.868-1.714-1.728-3.432-2.578-5.155-.986-1.999-1.96-4-2.921-6.01"/><path d="m182.97 172.72c.868-1.714 1.728-3.432 2.578-5.155.986-1.999 1.96-4 2.921-6.01"/></g></g></g><g stroke-linejoin="round" stroke-width="5"><g fill="#fff" stroke-linecap="round"><path d="m332.2 644.07v8.18c-71.53 1.114-125.08 8.429-125.16 17.09v11.18h34.436 109.28 109.28 34.436v-11.18c-.073-8.665-53.628-15.98-125.16-17.09v-8.18h-18.557-18.557z" transform="translate(19.589 34.34)"/><path d="m182.4 608.91v18.652c19.977 1.323 41.523 4.561 62.873 9.449 44.46 10.216 84.985 24.18 106.51 41.4h36.938c21.491-17.218 62.08-31.18 106.51-41.4 21.339-4.901 42.884-8.155 62.873-9.496v-18.605z"/></g><path d="m562.05 143.03c-5.352-7.306-13.485-12.522-22.358-14.338-11.855-2.427-24.18 1.068-36.21-.243-4.276-.466-8.506-1.549-12.374-3.43-3.868-1.881-7.37-4.575-9.984-7.992-2.614-3.417-4.32-7.606-4.374-11.908-.047-3.729 1.169-7.463 3.402-10.45-5.553-.277-11.179 2.121-14.824 6.319-3.6 4.146-5.19 9.829-4.86 15.31.375 6.228 3.186 12.299 7.777 16.525 4.964 4.57 11.737 6.843 18.47 7.291 6.93.461 13.839-.876 20.656-2.201 6.817-1.325 13.729-2.653 20.658-2.173 8.966.62 17.684 4.369 24.302 10.45l9.721-3.159z" fill="#f00" fill-rule="evenodd"/></g></g><g fill-rule="evenodd"><path d="m593.6 70.42c-3.902 1.924-7.551 4.357-10.828 7.219-3.259 2.847-6.15 6.116-8.574 9.701-5.292-1.395-10.77-2.081-16.242-2.031-4.112.037-8.341.525-11.957 2.482-1.609.871-3.067 2.02-4.287 3.385-7.806-2.625-15.931-4.297-24.14-4.965-6.397-.521-12.862-.436-19.18-1.578-1.103-.199-2.22-.437-3.334-.316-.557.06-1.108.212-1.596.488-.487.276-.907.682-1.16 1.182-.351.693-.361 1.516-.215 2.279.147.763.438 1.489.666 2.232.351 1.144.55 2.329.848 3.488.298 1.159.703 2.312 1.408 3.279 1.012 1.387 2.575 2.29 4.205 2.828 1.63.539 3.348.749 5.04 1.01 2.654.405 5.289.933 7.895 1.58-2.297.557-4.636.933-6.992 1.127-2.476.203-4.969.203-7.445 0 .897 3.045 2.272 5.949 4.061 8.572 2.473 3.628 5.829 6.77 9.926 8.348 2.979 1.147 6.228 1.429 9.418 1.328 3.19-.1 6.356-.57 9.533-.877 2.573-.249 5.174-.39 7.736-.049 2.562.341 5.1 1.187 7.154 2.756 2.247 1.716 3.823 4.252 4.512 6.994.443 1.763.532 3.598.451 5.414-.073 1.636-.285 3.281-.84 4.822-.555 1.541-1.47 2.98-2.77 3.977-1.459 1.118-3.324 1.619-5.162 1.674-1.838.055-3.662-.308-5.441-.771-4.72-1.231-9.237-3.181-13.988-4.285-2.595-.603-5.294-.95-7.922-.514-2.628.437-5.191 1.731-6.742 3.896-1.208 1.687-1.732 3.791-1.805 5.865-.056 1.58.145 3.2.838 4.621.347.711.816 1.366 1.4 1.898.585.532 1.287.94 2.049 1.152.955.266 1.979.217 2.938-.033.959-.25 1.858-.695 2.701-1.215 1.687-1.04 3.187-2.388 4.965-3.264 1.764-.869 3.749-1.24 5.715-1.225 1.966.015 3.916.407 5.791.998 5.03 1.585 9.549 4.592 14.664 5.865 4.122 1.026 8.476.873 12.633 0 6.632-1.393 12.868-4.629 17.824-9.25-3.352 5.685-8.977 9.987-15.342 11.732-5.471 1.5-11.252 1.151-16.92.902-7.233-.318-14.704-.415-21.434 2.256-6.067 2.408-11.212 7.06-14.213 12.859 5.246-.523 10.522-.748 15.793-.676 5.718.078 11.45.506 17.15 0 4.94-.438 9.817-1.582 14.438-3.385-3.954 3.811-9.04 6.434-14.438 7.445-8.669 1.624-17.673-.852-26.396.451-7.178 1.073-13.876 4.738-18.951 9.926-4.19 4.283-7.315 9.599-9.02 15.342 3.98-2.853 8.414-5.071 13.08-6.543 10.709-3.375 22.306-2.778 33.16-5.641 5.427-1.431 10.626-3.724 15.342-6.768-2.254 3.798-5.571 6.957-9.475 9.02-5 2.647-10.754 3.455-16.391 3.949-5.637.494-11.358.729-16.773 2.369-8.291 2.512-15.506 8.399-19.629 16.02 5.441 1.35 11.122 1.732 16.695 1.127 8.433-.916 16.468-4.052 24.14-7.67 4.291-2.023 8.505-4.206 12.633-6.543-2.951 4.196-6.632 7.879-10.828 10.83-5.758 4.05-12.464 6.704-19.402 7.896-10.1 1.735-20.436.41-30.682.451-6.652.026-13.434.616-19.854-1.129-6.671-1.814-12.442-6.02-18.951-8.348-4.535-1.621-9.423-2.305-14.213-1.805-2.412.252-4.808.807-7.01 1.83-2.198 1.023-4.197 2.529-5.629 4.486-1.674 2.288-2.511 5.092-2.932 7.896-.358 2.387-.435 4.815-.227 7.219 3.141-.89 6.302-1.717 9.477-2.48 5.4-1.299 10.929-2.421 16.469-2.031 1.207.085 2.414.243 3.574.588 1.16.345 2.274.882 3.193 1.668.914.781 1.621 1.803 2.031 2.934-3.202-1.322-6.691-1.942-10.152-1.805-5.261.209-10.578 2.305-13.988 6.316-3.171 3.73-4.44 8.699-5.189 13.537-.235 1.517-.428 3.048-.379 4.582.049 1.534.349 3.079 1.057 4.441.824 1.588 2.201 2.883 3.836 3.609 1.859-3.268 4.514-6.078 7.67-8.121 1.392-.901 2.896-1.661 4.512-2.031 1.803-.413 3.739-.341 5.414-1.127 1.163-.546 2.107-1.465 2.969-2.418.861-.953 1.672-1.965 2.672-2.771 1.21-.976 2.681-1.625 4.217-1.861 1.536-.236 3.135-.059 4.582.508-3.01 1.688-5.822 3.738-8.348 6.092-2.218 2.067-4.228 4.382-5.76 6.998-1.532 2.616-2.578 5.545-2.813 8.568-.428 5.518 2.02 11.174 6.316 14.664 2.271 1.844 5.02 3.099 7.896 3.609-.461-3.484.264-7.114 2.029-10.152 2.532-4.357 7-7.342 9.477-11.73.797-1.412 1.367-2.938 2.02-4.422.652-1.484 1.402-2.953 2.492-4.152 1.504-1.655 3.639-2.721 5.865-2.932-.437 2.075-1.041 4.114-1.805 6.092-.724 1.874-1.591 3.692-2.244 5.592-.653 1.9-1.09 3.913-.914 5.914.165 1.876.879 3.698 2.031 5.188 2.454-.767 4.865-1.671 7.219-2.707 3.206-1.411 6.305-3.067 9.25-4.963 2.02-1.299 3.97-2.714 6.092-3.836 5.306-2.805 11.445-3.651 17.447-3.648 6 .002 11.973.805 17.969 1.088 3.661.173 7.348.151 10.965-.439 3.617-.59 7.174-1.767 10.244-3.768 2.829-1.843 5.197-4.36 6.994-7.219 2.054-3.269 3.375-6.997 3.836-10.83 1.091 2.852 1.444 5.985 1.012 9.01-.432 3.02-1.648 5.931-3.494 8.363-2.174 2.865-5.207 5.05-8.572 6.318-3.937 1.486-8.333 1.725-12.408.676 2.91 3.616 5.919 7.152 9.02 10.604 10.08 11.207 21.306 21.621 34.518 28.877 1.676.92 3.391 1.795 4.904 2.963 1.514 1.168 2.836 2.67 3.443 4.482.545 1.625.483 3.404.113 5.078-.37 1.674-1.037 3.266-1.693 4.85-3.859 9.308-7.574 19.03-7.219 29.1.248 7.03 2.504 13.9 5.865 20.08 1.978 3.637 4.336 7.06 6.332 10.684 1.996 3.627 3.648 7.53 4.047 11.65.199 2.05.081 4.142-.463 6.129-.543 1.987-1.521 3.867-2.922 5.377-.726.782-1.569 1.468-2.531 1.928-.963.46-2.051.688-3.109.555-1.147-.145-2.204-.7-3.158-1.354-2.701-1.849-4.788-4.581-5.865-7.672-.002 3.676.611 7.353 1.805 10.83.794 2.313 1.852 4.55 3.303 6.52 1.451 1.969 3.308 3.666 5.496 4.76 2.903 1.452 6.35 1.78 9.475.902 3.647-1.025 6.77-3.663 8.574-6.994 1.632-3.01 2.213-6.499 2.256-9.926.069-5.45-1.18-10.914-3.609-15.793 3.203 2.868 7.255 4.776 11.506 5.416 2.398.361 4.842.327 7.24.688 2.399.36 4.838 1.176 6.521 2.922 1.2 1.244 1.931 2.879 2.338 4.559.407 1.68.51 3.416.594 5.143.598 12.273.336 24.767-3.158 36.547-.51 1.72-1.091 3.428-1.912 5.02-.822 1.595-1.895 3.083-3.277 4.227-1.647 1.363-3.691 2.199-5.793 2.592-2.102.393-4.264.358-6.389.115-3.797-.433-7.492-1.522-11.279-2.031-6.753-.907-13.708.07-20.08 2.482-2.943 1.114-5.787 2.539-8.299 4.436-2.512 1.896-4.687 4.278-6.139 7.07-1.789 3.441-2.422 7.404-2.256 11.279.156 3.648 1 7.265 2.48 10.604 3.367-1.837 6.751-3.641 10.152-5.414 5.584-2.91 11.23-5.741 17.15-7.896 5.184-1.889 10.56-3.252 16.02-4.061-5.058 1.771-9.914 4.123-14.439 6.994-4.238 2.689-8.334 6.02-10.377 10.604-1.529 3.432-1.781 7.322-1.354 11.05.514 4.491 2.036 8.963 4.963 12.408 1.392 1.638 3.082 3.02 4.963 4.061 1.823-3.264 3.939-6.365 6.316-9.25 3.29-3.993 7.07-7.573 10.152-11.73 2.347-3.17 4.266-6.653 6.77-9.701 1.829-2.228 3.96-4.206 6.316-5.865-3.01 3.62-5.527 7.656-7.445 11.957-2.186 4.9-3.606 10.201-3.609 15.566-.004 6.808 2.339 13.594 6.543 18.949 3.373-.774 6.564-2.33 9.25-4.512 3.425-2.782 5.988-6.536 7.688-10.607 1.7-4.071 2.562-8.458 2.916-12.855.263-3.265.262-6.612 1.354-9.701 1.163-3.292 3.475-6.03 5.791-8.645.545-.614 1.102-1.234 1.793-1.678.345-.222.722-.397 1.121-.492.399-.095.821-.109 1.221-.014.557.133 1.051.475 1.416.916.365.441.604.976.742 1.531.276 1.111.159 2.275.098 3.418-.157 2.946.072 5.912.678 8.799 5.118-1.862 9.613-5.393 12.633-9.926 1.816-2.726 3.115-5.84 3.459-9.1.344-3.258-.311-6.662-2.105-9.402-.939-1.434-2.176-2.671-3.609-3.609-3.061-9.272-3.378-19.432-.902-28.877 3.095-11.806 10.369-22.3 12.635-34.29.673-3.564.889-7.228.451-10.828-.149-1.229-.376-2.455-.797-3.619-.421-1.164-1.043-2.269-1.912-3.15-1.204-1.221-2.82-1.957-4.465-2.441-1.645-.485-3.348-.744-5.01-1.168-7.469-1.904-13.906-7.22-17.598-13.986-3.347-6.135-4.503-13.374-3.609-20.305.599-4.646 2.078-9.126 3.416-13.615 1.337-4.484 2.549-9.07 2.596-13.748 4.581-.992 9.07-2.397 13.391-4.221 3.526-1.489 6.96-3.259 9.977-5.615 3.02-2.356 5.612-5.328 7.17-8.824 1.775-3.983 2.134-8.434 2.357-12.789.223-4.355.347-8.785 1.703-12.93 2.16-6.6 7.261-11.918 9.475-18.5 1.411-4.195 1.57-8.802.451-13.08-1.289 2.564-2.968 4.929-4.963 6.992-2.216 2.292-4.821 4.208-7.67 5.641 2.335-3.391 4.446-6.936 6.316-10.604 2.107-4.131 3.926-8.484 4.512-13.08.614-4.823-.178-9.817-2.256-14.213-.476 5.181-2.549 10.204-5.865 14.213-2.338 2.826-5.282 5.149-8.574 6.768.548-3.343 1.538-6.614 2.934-9.701 3.01-6.663 7.894-12.448 10.152-19.402 1.942-5.98 1.78-12.62-.451-18.498-1.313 5.213-3.981 10.08-7.67 13.986-3.145 3.333-7.03 5.97-11.281 7.67 2.043-3.764 4.226-7.451 6.543-11.05 3.415-5.309 7.162-10.513 9.25-16.471 1.842-5.255 2.313-10.984 1.354-16.469-3.194 4.836-6.742 9.44-10.604 13.762-4.614 5.164-9.678 9.925-15.12 14.213.565-4.504 2.202-8.868 4.738-12.633 4.946-7.342 13.01-12.12 18.05-19.402 4.32-6.239 6.137-14.161 4.965-21.658-4.419 3.942-8.934 7.779-13.537 11.506-6.805 5.509-13.804 10.778-20.98 15.793.277-5.356 2.874-10.553 6.992-13.988 3.02-2.516 6.704-4.057 10.297-5.645 3.593-1.587 7.23-3.309 10.01-6.086 2.17-2.169 3.719-4.901 4.797-7.773 1.078-2.872 1.702-5.894 2.197-8.922.697-4.256 1.149-8.552 1.354-12.859-2.768 6.744-8.097 12.401-14.664 15.566-5.879 2.834-12.675 3.742-18.05 7.445-2.748 1.894-5.02 4.477-6.543 7.445-.976-1.906-1.416-4.083-1.258-6.219.158-2.135.916-4.224 2.162-5.965 1.429-1.996 3.463-3.506 5.668-4.584 2.205-1.078 4.588-1.749 6.98-2.297 4.786-1.097 9.818-1.782 13.973-4.398 3.287-2.07 5.788-5.239 7.498-8.727 1.71-3.488 2.673-7.298 3.33-11.127 1.048-6.1 1.351-12.327.902-18.5-3.2 8.341-9.608 15.406-17.598 19.402-6.128 3.065-12.966 4.324-19.596 6.05-6.63 1.729-13.361 4.093-18.305 8.838-3.487 3.346-5.885 7.719-7.338 12.328-1.453 4.609-1.997 9.462-2.139 14.293-.258 8.816.812 17.669 3.16 26.17-6.13 8.284-9.506 18.571-9.477 28.877.043 14.9 6.928 28.918 14.891 41.512 7.647 12.09 16.426 23.45 23.914 35.645 1.385 2.256 2.737 4.566 3.531 7.092.794 2.526.996 5.315.078 7.799-.72 1.949-2.162 3.666-4.061 4.512-1.408.627-2.998.758-4.531.602-1.533-.157-3.02-.59-4.494-1.053-2.629-.828-5.218-1.772-7.773-2.805-2.02-3.01-4.149-5.95-6.213-8.928-15.457-22.297-27.384-48.21-27.22-75.34.14-23.24 9.07-45.518 11.879-68.59.739-6.075 1.046-12.287-.225-18.273-.719-3.387-1.941-6.668-3.611-9.701-.503 1.084-1.192 2.081-2.029 2.934-1.243 1.265-2.811 2.206-4.512 2.707 1.564-1.716 2.93-3.613 4.061-5.641 2.65-4.752 3.971-10.153 4.512-15.566.548-5.485.32-11.05-.676-16.469-4.656.503-9.187 2.144-13.09 4.738-3.434 2.286-6.377 5.306-8.572 8.799 1.084-3.893 1.691-7.918 1.805-11.957.091-3.245-.137-6.5-.678-9.701m-159.74 6.645c-2.472.033-4.94.354-7.338.957 3.02 3.04 4.871 7.209 5.105 11.486.117 2.125-.151 4.258 0 6.381.361 5.084 3.066 9.696 4.146 14.678.797 3.675.687 7.543-.318 11.166-1.621-5.252-3.01-10.577-4.148-15.953-.637-2.997-1.204-6.03-2.365-8.869-1.162-2.836-2.988-5.499-5.611-7.082-1.688-1.018-3.641-1.549-5.605-1.705-1.965-.156-3.945.049-5.879.428-5.091.996-9.941 3.201-14.04 6.381 3.405 1.401 6.419 3.745 8.615 6.701 2.592 3.488 4.03 7.739 6.699 11.166 2.548 3.266 6.084 5.61 8.934 8.615 2.515 2.652 4.482 5.821 5.742 9.252-3.02-4.253-6.827-7.949-11.166-10.848-3.931-2.626-8.38-4.621-13.08-5.105-1.915-.197-3.866-.14-5.738.307-1.872.447-3.665 1.293-5.109 2.564-2.113 1.86-3.389 4.559-3.828 7.34-.573 3.624.238 7.448 2.232 10.527.954-1.577 2.435-2.83 4.148-3.51 1.949-.773 4.171-.792 6.162-.137 1.991.656 3.748 1.969 5.01 3.646.596.794 1.081 1.665 1.615 2.502.535.837 1.128 1.652 1.893 2.285.784.649 1.729 1.086 2.709 1.361.98.276 1.997.394 3.01.451 2.032.113 4.095-.013 6.084.42 1.972.43 3.82 1.415 5.275 2.814 1.455 1.399 2.513 3.208 3.02 5.162-2.319.357-4.677.464-7.02.318-2.174-.135-4.349-.491-6.381-1.275-2.023-.781-3.882-1.984-5.424-3.51-.341 2.109-.341 4.272 0 6.381.476 2.942 1.629 5.789 3.438 8.158 1.809 2.369 4.282 4.248 7.092 5.242 1.456.515 2.983.792 4.471 1.205 1.488.413 2.969.983 4.143 1.986.973.833 1.688 1.924 2.301 3.049.612 1.125 1.136 2.298 1.805 3.391 2.249 3.674 5.941 6.171 9.295 8.875 7.558 6.093 13.778 13.676 21.06 20.1 3.933 3.471 8.226 6.628 13.08 8.613 2.154.881 4.405 1.526 6.699 1.916-1.827-4.201-1.943-9.117-.318-13.4 1.51-3.981 4.391-7.283 7.422-10.273 3.03-2.99 6.291-5.786 8.85-9.189 1.953-2.597 3.469-5.521 4.467-8.613-8.303.365-16.697-1.65-23.93-5.744-9.91-5.609-17.289-14.775-23.609-24.25-3.482-5.22-6.782-10.75-7.977-16.91-1.069-5.513-.389-11.202.459-16.754.848-5.551 1.866-11.145 1.457-16.746-.153-2.092-.509-4.18-1.217-6.154-.708-1.975-1.777-3.838-3.25-5.332-1.663-1.686-3.802-2.861-6.06-3.561-2.262-.699-4.65-.937-7.02-.906m173.93 14.05c.754 3.356.806 6.868.15 10.244-.644 3.319-1.983 6.527-4.066 9.189-1.73 2.211-3.962 4.03-6.479 5.273 1.427-2.498 2.355-5.28 2.713-8.135.398-3.179.087-6.446-.904-9.492-1.965.658-3.881 1.466-5.725 2.412-1.725.885-3.389 1.892-4.973 3.01 1.125-2.759 2.893-5.254 5.123-7.23 2.982-2.643 6.763-4.33 10.695-4.971 1.145-.187 2.305-.289 3.465-.303m-49.44 2.375c2.738.081 5.42 1.3 7.412 3.199 2.341 2.232 3.749 5.295 4.52 8.436.723 2.947.927 6.02.602 9.04-1.983.764-4.064 1.273-6.176 1.508-1.589.177-3.218.197-4.768-.195-1.55-.392-3.02-1.229-3.971-2.518-1.02-1.388-1.346-3.153-1.607-4.855-.261-1.703-.507-3.466-1.406-4.936-.915-1.494-2.491-2.565-4.217-2.863.581-1.82 1.708-3.461 3.197-4.658 1.489-1.197 3.336-1.945 5.238-2.121.391-.036.785-.047 1.176-.035m1.13476 4.433597a6.854447 4.365296 72.864475 0 0 -.86914 .125 6.854447 4.365296 72.864475 0 0 -2.15039 7.835938 6.854447 4.365296 72.864475 0 0 6.18947 5.26367 6.854447 4.365296 72.864475 0 0 2.15233 -7.83594 6.854447 4.365296 72.864475 0 0 -5.32227 -5.388668m74.45 89.86c1.02 7.305 3.294 14.435 6.695 20.98 4 7.707 9.497 14.516 14.541 21.586 5.04 7.07 9.737 14.613 11.795 23.05 1.899 7.787 1.426 16.14-1.34 23.658.028-7.928-1.496-15.859-4.463-23.21-6.369-15.784-19.1-28.513-24.551-44.639-2.32-6.865-3.236-14.201-2.678-21.426m-107.76 100.35c-2.632-.023-5.261.149-7.865.551-6.944 1.072-13.706 3.842-19 8.459-5.997 5.228-9.851 12.514-15.566 18.05-.947.917-1.96 1.795-3.152 2.357-1.193.562-2.596.781-3.842.35-.824-.286-1.547-.851-2.029-1.578-.482-.727-.722-1.611-.678-2.482.045-.886.381-1.755.945-2.439.564-.685 1.354-1.183 2.215-1.396-2.696-.331-5.496.249-7.84 1.623-2.344 1.374-4.218 3.535-5.246 6.05-1.364 3.334-1.221 7.141-.227 10.604.591 2.059 1.496 4.069 2.943 5.648.723.79 1.578 1.464 2.537 1.941.959.477 2.023.754 3.094.758 1.074.004 2.139-.267 3.115-.713.977-.446 1.868-1.067 2.68-1.77 1.624-1.406 2.929-3.135 4.357-4.738 1.952-2.192 4.15-4.163 6.541-5.865-.091 3.699.607 7.414 2.031 10.828 3.27 7.838 10.11 13.645 17.371 18.05 7.408 4.493 15.502 7.854 23.914 9.928.459 2.771.304 5.64-.451 8.346-.476 1.704-1.192 3.352-2.205 4.803-1.014 1.451-2.331 2.701-3.887 3.545-2.447 1.328-5.347 1.587-8.121 1.354-3.664-.309-7.205-1.418-10.764-2.346-3.558-.928-7.241-1.683-10.895-1.264-4.696.539-9.02 3.02-12.408 6.316-1.029 1-1.988 2.094-2.699 3.342-.711 1.248-1.166 2.667-1.135 4.104.037 1.69.742 3.307 1.689 4.707.948 1.4 2.136 2.617 3.273 3.867 1.51 1.66 2.94 3.391 4.285 5.188.243-2.314 1.022-4.569 2.258-6.541 1.609-2.568 3.997-4.641 6.768-5.867 3.508-1.552 7.532-1.723 11.279-.902 3.651.8 7.097 2.524 9.928 4.965-2.653-.82-5.373-1.426-8.123-1.807-3.607-.499-7.343-.604-10.828.451-3.369 1.02-6.466 3.211-8.121 6.318-1.096 2.058-1.524 4.442-1.354 6.768.176 2.403.984 4.759 2.32 6.764 1.337 2.01 3.199 3.655 5.35 4.742 2.999-1.932 5.934-3.965 8.799-6.092 2.912-2.162 5.82-4.461 9.25-5.641 3.332-1.146 7.05-1.146 10.377 0-5.169 1.183-10.03 3.693-13.988 7.221-2.058 1.833-3.889 3.961-5.121 6.426-1.232 2.465-1.838 5.288-1.42 8.01.324 2.114 1.249 4.104 2.467 5.861 1.218 1.757 2.725 3.297 4.301 4.742 1.853 1.7 3.813 3.284 5.865 4.738 1.509-2.817 2.939-5.675 4.287-8.572 2.645-5.687 5.136-11.744 9.926-15.793 2.333-1.973 5.145-3.378 8.123-4.061.861 2.254 1.467 4.605 1.805 6.994.422 2.988.422 6.04 0 9.02 3.181-.817 6.194-2.286 8.799-4.287 1.548-1.19 2.962-2.578 4.03-4.215 1.063-1.637 1.766-3.535 1.84-5.486.056-1.476-.243-2.938-.463-4.398-.22-1.46-.359-2.969.012-4.398.267-1.029.786-1.974 1.34-2.881.554-.907 1.15-1.793 1.592-2.76.729-1.595 1.015-3.367 1.023-5.121.008-1.754-.252-3.497-.578-5.221-.652-3.447-1.568-6.935-1.121-10.414.369-2.872 1.647-5.547 3.104-8.05 1.456-2.502 3.112-4.897 4.342-7.518 1.221-2.602 2.01-5.507 1.578-8.348-.46-2.991-2.258-5.651-4.512-7.67-2.997-2.685-6.753-4.344-10.449-5.934-3.696-1.59-7.465-3.194-10.531-5.799-1.273-1.082-2.418-2.336-3.242-3.789-.824-1.453-1.319-3.113-1.27-4.783.058-1.974.879-3.885 2.119-5.422 1.24-1.537 2.882-2.72 4.648-3.604 5.153-2.576 11.161-2.632 16.92-2.48 4.335.114 8.671.315 13.01.252 1.983-.029 3.965-.112 5.943-.252-3.265-5.675-7.475-10.806-12.404-15.12-8.419-7.361-18.865-12.247-29.783-14.664-4.287-.949-8.68-1.528-13.07-1.566"/><g fill="#f00"><path d="m431.6 78.58c-.498-.001-.996.004-1.492.045.906.729 1.714 1.581 2.395 2.523.966 1.338 1.675 2.862 2.07 4.465.416 1.688.482 3.463.193 5.178 1.851-.506 3.776-.748 5.695-.713 1.504.027 3 .223 4.465.582-.097-2.18-.798-4.329-2.01-6.146-1.624-2.445-4.14-4.247-6.924-5.176-1.416-.473-2.904-.728-4.396-.758m-21.738 14.219c-1.991-.009-3.982.388-5.816 1.162 1.088.41 2.121.967 3.063 1.65 1.336.969 2.485 2.195 3.361 3.594.923 1.474 1.541 3.138 1.803 4.857 1.601-1.059 3.352-1.889 5.186-2.455 1.437-.444 2.924-.727 4.424-.842-.773-2.041-2.111-3.864-3.826-5.213-2.307-1.815-5.258-2.741-8.193-2.754m-6.361 24.539c-2.18.061-4.342.714-6.191 1.869-2.493 1.557-4.389 4.02-5.328 6.809-.634 1.882-.842 3.885-.842 5.871.749-.889 1.618-1.678 2.576-2.338 1.359-.936 2.899-1.611 4.51-1.971 1.697-.379 3.472-.407 5.18-.08-.465-1.862-.663-3.791-.586-5.709.06-1.503.29-2.999.682-4.451m10.502 32.898c0 1.986.207 3.989.842 5.871.939 2.785 2.836 5.251 5.328 6.809 1.85 1.156 4.01 1.808 6.189 1.869-.392-1.452-.619-2.948-.68-4.451-.077-1.918.121-3.847.586-5.709-1.708.326-3.483.301-5.18-.078-1.611-.36-3.151-1.036-4.51-1.973-.958-.66-1.827-1.448-2.576-2.338"/><path d="m487.96 399.13c.285.408.59.802.916 1.179.055-1.162.267-2.316.627-3.422.512-1.569 1.325-3.04 2.387-4.304 1.119-1.331 2.514-2.43 4.069-3.208-1.5-1.198-2.829-2.61-3.932-4.181-.864-1.231-1.591-2.558-2.161-3.95-1.704 1.363-3.03 3.196-3.784 5.243-1.018 2.753-.991 5.847-.101 8.644.453 1.423 1.123 2.775 1.979 3.998"/><path d="m498.04 415.56c.285.408.59.802.916 1.179.055-1.162.267-2.316.627-3.422.512-1.569 1.325-3.04 2.387-4.304 1.119-1.331 2.514-2.43 4.069-3.208-1.5-1.198-2.829-2.61-3.932-4.181-.864-1.231-1.591-2.558-2.161-3.95-1.704 1.363-3.03 3.196-3.784 5.243-1.018 2.753-.991 5.847-.101 8.644.453 1.423 1.123 2.775 1.979 3.998"/><path d="m517.7 441.47c.393.306.8.593 1.222.857-.289-1.127-.427-2.292-.407-3.455.027-1.65.372-3.296 1.014-4.816.677-1.601 1.687-3.063 2.945-4.263-1.786-.703-3.472-1.662-4.989-2.838-1.188-.922-2.273-1.977-3.228-3.139-1.227 1.804-1.952 3.946-2.073 6.124-.162 2.93.774 5.88 2.448 8.291.851 1.226 1.89 2.322 3.068 3.239"/><path d="m546.8 428.42c-.441.23-.894.44-1.356.624.487-1.056.831-2.178 1.021-3.325.27-1.628.226-3.309-.133-4.92-.379-1.697-1.11-3.316-2.131-4.723 1.883-.371 3.714-1.01 5.417-1.896 1.335-.694 2.591-1.536 3.739-2.508.883 1.995 1.212 4.232.939 6.397-.367 2.912-1.817 5.645-3.897 7.716-1.058 1.054-2.276 1.944-3.6 2.635"/><path d="m412.58 232.61c.003.498.03.996.084 1.491.706-.925 1.535-1.754 2.46-2.46 1.313-1 2.817-1.749 4.409-2.186 1.677-.46 3.449-.572 5.171-.329-.554-1.838-.846-3.755-.862-5.675-.012-1.504.144-3.01.465-4.479-2.177.154-4.307.911-6.092 2.166-2.401 1.688-4.137 4.249-4.993 7.06-.435 1.428-.652 2.922-.643 4.415"/><path d="m420.01 263.95c.224.444.471.878.739 1.297.219-1.142.592-2.255 1.106-3.298.729-1.481 1.742-2.822 2.973-3.922 1.296-1.159 2.833-2.05 4.482-2.599-1.315-1.398-2.431-2.985-3.3-4.696-.681-1.341-1.212-2.758-1.58-4.216-1.88 1.108-3.449 2.735-4.488 4.654-1.397 2.581-1.809 5.648-1.324 8.542.247 1.472.719 2.906 1.392 4.238"/><path d="m447.44 285.78c.455.202.92.382 1.393.536-.553-1.023-.969-2.12-1.232-3.253-.374-1.608-.438-3.287-.183-4.918.269-1.718.895-3.38 1.824-4.85-1.903-.249-3.772-.771-5.528-1.545-1.376-.607-2.685-1.367-3.892-2.263-.754 2.048-.938 4.301-.527 6.444.553 2.882 2.176 5.517 4.384 7.451 1.123.984 2.396 1.795 3.761 2.399"/><path d="m470.11 275.87c.02.497.065.994.135 1.487.673-.948 1.473-1.807 2.373-2.543 1.277-1.046 2.755-1.846 4.331-2.338 1.66-.518 3.427-.692 5.156-.508-.618-1.817-.976-3.724-1.058-5.641-.064-1.503.04-3.01.31-4.492-2.17.229-4.273 1.06-6.01 2.376-2.341 1.77-3.987 4.39-4.745 7.226-.386 1.442-.55 2.943-.489 4.434"/><path d="m566.72 487.17c.102.487.228.97.379 1.444.507-1.047 1.155-2.025 1.921-2.9 1.087-1.242 2.412-2.276 3.885-3.02 1.551-.785 3.266-1.248 5-1.352-.909-1.69-1.577-3.512-1.975-5.389-.312-1.471-.458-2.978-.437-4.481-2.102.584-4.04 1.751-5.538 3.336-2.02 2.132-3.207 4.988-3.487 7.91-.142 1.486-.057 2.993.25 4.454"/><path d="m592.05 514.79c.361.343.738.669 1.132.973-.177-1.149-.199-2.323-.066-3.478.189-1.64.693-3.243 1.482-4.693.831-1.527 1.98-2.882 3.349-3.954-1.708-.875-3.293-1.995-4.686-3.314-1.092-1.034-2.068-2.19-2.904-3.441-1.399 1.675-2.33 3.735-2.664 5.891-.449 2.9.193 5.927 1.622 8.491.727 1.304 1.653 2.496 2.735 3.524"/><path d="m620.54 524.64c.282.41.585.807.907 1.186.064-1.161.284-2.314.652-3.417.523-1.566 1.347-3.03 2.418-4.287 1.128-1.323 2.531-2.412 4.092-3.178-1.491-1.208-2.811-2.631-3.902-4.209-.855-1.237-1.572-2.57-2.133-3.966-1.714 1.351-3.05 3.174-3.821 5.215-1.038 2.745-1.033 5.84-.163 8.643.442 1.426 1.103 2.783 1.95 4.01"/><path d="m656.16 491.26c-.433.245-.879.469-1.335.668.451-1.072.759-2.204.911-3.357.216-1.636.117-3.314-.295-4.913-.434-1.684-1.218-3.277-2.286-4.65 1.87-.433 3.679-1.133 5.352-2.074 1.311-.737 2.539-1.621 3.655-2.63.949 1.965 1.351 4.19 1.149 6.363-.27 2.922-1.63 5.702-3.64 7.841-1.022 1.088-2.211 2.02-3.511 2.752"/></g></g></g></svg>