<svg xmlns="http://www.w3.org/2000/svg" width="751.65" height="819.4" viewBox="0 0 751.64543 819.39846"><g transform="translate(6.929-138.61)"><g fill-rule="evenodd"><path d="m-1.338 144.11l7.295 443.19.684.684a362.93652 384.97876 0 0 0 362.25391 364.5293 362.93652 384.97876 0 0 0 361.95703 -364.23438l.979-.979 7.295-443.19h-370.23-370.23" fill="#03f"/><path d="m368.89 299.26l-55.19 56.643 22.965 100.29-102.45-23.461-56.643 55.19 56.643 55.19 105.71-24.21-35.736 154.94 24.592 25.06-33.22 93.41 43.799 3.424 29.539-13.957 29.539 13.957 43.799-3.424-33.22-93.41 24.592-25.06-35.736-154.94 105.71 24.21 56.643-55.19-56.643-55.19-102.46 23.461 22.965-100.29z" fill="#ffd700" stroke="#000" stroke-width="11"/></g><g stroke="#000"><g stroke-width="11"><path d="M375.82227 607.63477A107.79357 107.79357 0 0 0 272.18359 686.1543 72.62552 72.62552 0 0 0 216.03906 659.52734 72.62552 72.62552 0 0 0 143.9043 724.45117 362.93652 384.97876 0 0 0 375.82422 813.89844 362.93652 384.97876 0 0 0 607.80273 724.45312 72.62552 72.62552 0 0 0 535.60938 659.52734 72.62552 72.62552 0 0 0 479.52148 686.09375 107.79357 107.79357 0 0 0 375.82227 607.63477z" transform="translate(-6.929 138.61)" fill="#ffd700" stroke-linecap="round"/><path d="m-1.338 144.11l7.295 443.19.684.684a362.93652 384.97876 0 0 0 362.2539 364.5293 362.93652 384.97876 0 0 0 361.95703 -364.23438l.979-.979 7.295-443.19h-370.23-370.23z" fill="none" fill-rule="evenodd"/></g><g fill="#ffd700" fill-rule="evenodd" stroke-width="8"><path d="m38.39 487.92zm11.313 3.973c1.983 1.834 4.708 4.089 6.6 6.542 3.571 4.631 5.768 10.495 8.777 15.189 2.548 3.974 6.229 7.22 10.408 9.58 6.298 3.557 13.592 5.102 20.818 6.075 4.82.649 9.67 1.067 14.523 1.403 13.53.938 27.11 1.25 40.666.935v-43.696-43.696c-13.56-.315-27.14-.002-40.666.935-4.854.336-9.704.752-14.523 1.401-7.227.973-14.52 2.52-20.818 6.077-4.179 2.36-7.86 5.606-10.408 9.58-3.01 4.694-5.207 10.558-8.777 15.189-1.892 2.453-4.617 4.709-6.6 6.542-9.407 6.206-6.625 1.968 0 7.945z" stroke-linejoin="round"/><path d="m139.5 537.42c4.946.28 15.363.506 22.766-1.211 4.614-1.07 9.304-2.698 13.07-5.566 4.02-3.06 7.01-7.428 9.439-11.861 1.678-3.067 2.816-6.476 3.389-9.924 2.286-13.77 2.286-28.11 0-41.877-.573-3.448-1.711-6.857-3.389-9.924-2.425-4.433-5.419-8.801-9.439-11.861-3.769-2.868-8.459-4.497-13.07-5.566-7.403-1.717-17.819-1.491-22.766-1.211v49.5z"/></g><g stroke-linejoin="round"><g fill="none" stroke-linecap="round" stroke-width="3"><g transform="matrix(.70711-.70711.70711.70711 0 0)"><path d="m-230.74 459.29h16.946v16.946h-16.946z"/><path d="m-247.69 476.23h16.946v16.946h-16.946z"/><path d="m-213.8 442.34h16.947v16.946h-16.947z"/><path d="m-247.69 459.29h16.946v16.946h-16.946z"/><path d="m-230.74 442.34h16.946v16.946h-16.946z"/><path d="m-247.69 442.34h16.946v16.946h-16.946z"/><path d="m-264.63 476.23h16.946v16.946h-16.946z"/><path d="m-213.8 425.39h16.947v16.946h-16.947z"/><path d="m-264.63 459.29h16.946v16.946h-16.946z"/><path d="m-230.74 425.39h16.946v16.946h-16.946z"/></g><path d="m139.5 537.42c4.666.264 14.195.478 21.475-.939l.631-.631-11.982-11.982-10.123 10.123v3.43zm0-95.57l10.123 10.123 11.982-11.982-.631-.631c-7.28-1.417-16.809-1.204-21.475-.939v3.43z"/></g><path d="m699.39 487.92zm-11.313 3.973c-1.983 1.834-4.708 4.089-6.6 6.542-3.571 4.631-5.768 10.495-8.777 15.189-2.548 3.974-6.229 7.22-10.408 9.58-6.298 3.557-13.592 5.102-20.818 6.075-4.82.649-9.67 1.067-14.523 1.403-13.53.938-27.11 1.25-40.666.935v-43.696-43.696c13.56-.315 27.14-.002 40.666.935 4.854.336 9.704.752 14.523 1.401 7.227.973 14.52 2.52 20.818 6.077 4.179 2.36 7.86 5.606 10.408 9.58 3.01 4.694 5.207 10.558 8.777 15.189 1.892 2.453 4.617 4.709 6.6 6.542 9.407 6.206 6.625 1.968 0 7.945z" fill="#ffd700" fill-rule="evenodd" stroke-width="8"/></g><path d="m598.29 537.42c-4.946.28-15.363.506-22.766-1.211-4.614-1.07-9.304-2.698-13.07-5.566-4.02-3.06-7.01-7.428-9.439-11.861-1.678-3.067-2.816-6.476-3.389-9.924-2.286-13.77-2.286-28.11 0-41.877.573-3.448 1.711-6.857 3.389-9.924 2.425-4.433 5.419-8.801 9.439-11.861 3.769-2.868 8.459-4.497 13.07-5.566 7.403-1.717 17.819-1.491 22.766-1.211v49.5z" fill="#ffd700" fill-rule="evenodd" stroke-width="8"/><g stroke-linejoin="round"><g fill="none" stroke-linecap="round" stroke-width="3"><g transform="matrix(-.70711-.70711-.70711.70711 0 0)"><path d="m-752.44-62.41h16.946v16.946h-16.946z"/><path d="m-769.38-45.46h16.946v16.946h-16.946z"/><path d="m-735.49-79.35h16.946v16.946h-16.946z"/><path d="m-769.38-62.41h16.946v16.946h-16.946z"/><path d="m-752.44-79.35h16.946v16.946h-16.946z"/><path d="m-769.38-79.35h16.946v16.946h-16.946z"/><path d="m-786.33-45.46h16.946v16.946h-16.946z"/><path d="m-735.49-96.3h16.946v16.946h-16.946z"/><path d="m-786.33-62.41h16.946v16.946h-16.946z"/><path d="m-752.44-96.3h16.946v16.946h-16.946z"/></g><path d="m598.29 537.42c-4.666.264-14.195.478-21.475-.939l-.631-.631 11.982-11.982 10.123 10.123v3.43zm0-95.57l-10.123 10.123-11.982-11.982.631-.631c7.28-1.417 16.809-1.204 21.475-.939v3.43z"/></g><path d="m368.89 160.09zm-3.973 11.313c-1.834 1.983-4.089 4.708-6.542 6.6-4.631 3.571-10.495 5.768-15.189 8.777-3.974 2.548-7.22 6.229-9.58 10.408-3.557 6.298-5.102 13.592-6.075 20.818-.649 4.82-1.067 9.67-1.403 14.523-.938 13.53-1.25 27.11-.935 40.666h43.696 43.696c.315-13.56.002-27.14-.935-40.666-.336-4.854-.752-9.704-1.401-14.523-.973-7.227-2.52-14.52-6.077-20.818-2.36-4.179-5.606-7.86-9.58-10.408-4.694-3.01-10.558-5.207-15.189-8.777-2.453-1.892-4.709-4.617-6.542-6.6-6.206-9.407-1.968-6.625-7.945 0z" fill="#ffd700" fill-rule="evenodd" stroke-width="8"/></g><path d="m319.39 261.19c-.28 4.946-.506 15.363 1.211 22.766 1.07 4.614 2.698 9.304 5.566 13.07 3.06 4.02 7.428 7.01 11.861 9.439 3.067 1.678 6.476 2.816 9.924 3.389 13.77 2.286 28.11 2.286 41.877 0 3.448-.573 6.857-1.711 9.924-3.389 4.433-2.425 8.801-5.419 11.861-9.439 2.868-3.769 4.497-8.459 5.566-13.07 1.717-7.403 1.491-17.819 1.211-22.766h-49.5z" fill="#ffd700" fill-rule="evenodd" stroke-width="8"/><g fill="none" stroke-linejoin="round" stroke-linecap="round" stroke-width="3"><g transform="matrix(.70711.70711-.70711.70711 0 0)"><path d="m461.17-60.52h16.946v16.946h-16.946z"/><path d="m444.22-43.579h16.946v16.946h-16.946z"/><path d="m478.12-77.47h16.946v16.946h-16.946z"/><path d="m444.22-60.52h16.946v16.946h-16.946z"/><path d="m461.17-77.47h16.946v16.946h-16.946z"/><path d="m444.22-77.47h16.946v16.946h-16.946z"/><path d="m427.28-43.579h16.946v16.946h-16.946z"/><path d="m478.12-94.42h16.946v16.946h-16.946z"/><path d="m427.28-60.52h16.946v16.946h-16.946z"/><path d="m461.17-94.42h16.946v16.946h-16.946z"/></g><path d="m319.39 261.19c-.264 4.666-.478 14.195.939 21.475l.631.631 11.982-11.982-10.123-10.123h-3.43zm95.57 0l-10.123 10.123 11.982 11.982.631-.631c1.417-7.28 1.204-16.809.939-21.475h-3.43z"/></g></g></g></svg>