<?xml version="1.0" encoding="UTF-8" standalone="no"?>
<!-- Created with Inkscape (http://www.inkscape.org/) -->

<svg
   width="104.30107mm"
   height="131.84822mm"
   viewBox="0 0 104.30107 131.84822"
   version="1.1"
   id="svg5"
   inkscape:version="1.2.2 (732a01da63, 2022-12-09)"
   sodipodi:docname="DEU Barnstedt COA.svg"
   xmlns:inkscape="http://www.inkscape.org/namespaces/inkscape"
   xmlns:sodipodi="http://sodipodi.sourceforge.net/DTD/sodipodi-0.dtd"
   xmlns="http://www.w3.org/2000/svg"
   xmlns:svg="http://www.w3.org/2000/svg">
  <sodipodi:namedview
     id="namedview7"
     pagecolor="#9e9e9e"
     bordercolor="#666666"
     borderopacity="1.0"
     inkscape:showpageshadow="2"
     inkscape:pageopacity="0"
     inkscape:pagecheckerboard="0"
     inkscape:deskcolor="#8c8c8c"
     inkscape:document-units="mm"
     showgrid="false"
     inkscape:zoom="1.1110535"
     inkscape:cx="197.56024"
     inkscape:cy="249.76295"
     inkscape:current-layer="layer1" />
  <defs
     id="defs2" />
  <g
     inkscape:label="Ebene 1"
     inkscape:groupmode="layer"
     id="layer1"
     transform="translate(-568.27743,-62.440299)">
    <g
       id="g5751"
       transform="translate(513.55878,-15.50846)">
      <path
         id="path3627"
         style="fill:#46ae52;fill-opacity:1;stroke:none;stroke-width:3.3;stroke-dasharray:none"
         d="m 56.368652,79.598759 v 78.270161 a 50.500454,50.277985 0 0 0 50.500798,50.27806 50.500454,50.277985 0 0 0 50.50027,-50.27806 50.500454,50.277985 0 0 0 0,-5.2e-4 V 79.598759 Z" />
      <path
         id="path3547"
         style="fill:#ffe600;fill-opacity:0.994118;stroke:#000000;stroke-width:0.7;stroke-dasharray:none"
         d="m 104.9352,79.598759 c -0.16138,0.376939 -0.33343,0.754279 -0.53124,1.132231 -2.4731,4.725314 -6.640067,6.860023 -9.113136,11.585339 -2.473117,4.725323 -1.851234,9.364271 -4.324283,14.089581 -2.473024,4.72536 -6.640103,6.86004 -9.113139,11.58534 -2.473113,4.72531 -1.851723,9.36474 -4.324801,14.09009 -2.472991,4.7253 -6.640059,6.86052 -9.113139,11.58586 -2.472995,4.7253 -1.85073,9.36426 -4.323767,14.08958 -1.860821,3.55542 -4.680469,5.64461 -7.016109,8.4739 a 50.500454,50.277985 0 0 0 5.325256,15.45797 c 0.378992,-1.70891 0.86785,-3.42083 1.769918,-5.14439 2.473066,-4.72533 6.640034,-6.86055 9.113139,-11.58585 2.473036,-4.72532 1.851288,-9.36428 4.324284,-14.08958 2.473079,-4.72535 6.640153,-6.86005 9.113139,-11.58534 2.473077,-4.72536 1.851688,-9.36478 4.3248,-14.0901 2.473036,-4.72529 6.640116,-6.85998 9.113138,-11.58534 2.47305,-4.7253 1.85065,-9.36426 4.32377,-14.089577 2.47307,-4.725316 6.64003,-6.860542 9.11314,-11.585856 1.46344,-2.796231 1.84754,-5.562249 2.42621,-8.333858 z" />
      <path
         id="path3549"
         style="fill:#003bff;fill-opacity:1;stroke:none;stroke-width:0.4;stroke-dasharray:none"
         d="m 107.75053,79.598759 c -0.2691,0.784523 -0.58984,1.570511 -1.00252,2.359029 -2.47312,4.725315 -6.64008,6.860541 -9.113143,11.585856 -2.473116,4.725324 -1.851233,9.364276 -4.324284,14.089576 -2.473023,4.72536 -6.640103,6.86005 -9.113138,11.58534 -2.473113,4.72532 -1.851723,9.36474 -4.324801,14.0901 -2.472991,4.72529 -6.640059,6.86 -9.113139,11.58534 -2.472995,4.7253 -1.850731,9.36425 -4.323767,14.08958 -2.317747,4.42846 -6.123267,6.58228 -8.627897,10.72492 a 50.500454,50.277985 0 0 0 2.85719,8.44497 c 0.297118,-0.94299 0.66523,-1.88796 1.161686,-2.83652 2.473066,-4.72533 6.640034,-6.86005 9.113139,-11.58534 2.473036,-4.72533 1.851287,-9.36428 4.324284,-14.08958 2.473079,-4.72534 6.640152,-6.86057 9.113139,-11.58586 2.473077,-4.72535 1.851688,-9.36478 4.3248,-14.09009 2.473037,-4.7253 6.640116,-6.85999 9.113139,-11.58534 2.473052,-4.72531 1.850653,-9.36425 4.323772,-14.089582 2.47306,-4.725316 6.64002,-6.860025 9.11313,-11.585339 1.24745,-2.383534 1.70854,-4.745243 2.17558,-7.10706 z" />
      <path
         id="path3805"
         style="fill:#ffe600;fill-opacity:0.994118;stroke:none;stroke-width:3.29999;stroke-dasharray:none"
         d="M 106.86945,79.598759 V 208.14698 a 50.500454,50.277985 0 0 0 50.50027,-50.27806 50.500454,50.277985 0 0 0 0,-5.2e-4 V 79.598759 Z" />
      <path
         style="fill:none;fill-opacity:0;stroke:#000000;stroke-width:3.29999;stroke-dasharray:none"
         d="M 106.86945,79.598757 V 208.14698"
         id="path4685" />
      <path
         id="path5653"
         style="fill:none;fill-opacity:1;stroke:#000000;stroke-width:3.3;stroke-dasharray:none"
         d="m 56.368652,79.598759 v 78.270161 a 50.500454,50.277985 0 0 0 50.500798,50.27806 50.500454,50.277985 0 0 0 50.50027,-50.27806 50.500454,50.277985 0 0 0 0,-5.2e-4 V 79.598759 Z" />
      <g
         id="g2415"
         transform="rotate(25.184008,196.66375,-257.76413)">
        <g
           id="g2383">
          <path
             id="path2370"
             style="fill:#e00000;fill-opacity:0.992157;stroke:none;stroke-width:0.450001;stroke-dasharray:none"
             d="m 237.9307,128.05885 v 11.56674 c 4.58841,-0.0834 2.83639,-8.4244 2.94762,-8.4522 z" />
          <path
             id="path2375"
             style="fill:#ffffff;fill-opacity:0.992157;stroke:none;stroke-width:0.450001;stroke-dasharray:none"
             d="m 237.9307,128.05885 -2.94763,3.11454 c 0.11123,0.0278 -1.64079,8.3688 2.94763,8.4522 z" />
          <path
             style="fill:none;fill-opacity:0.992157;stroke:#000000;stroke-width:0.450001;stroke-dasharray:none"
             d="m 240.87828,131.17327 c -0.11123,0.0278 1.64071,8.3687 -2.94771,8.45213 -4.58842,-0.0834 -2.83648,-8.42433 -2.94771,-8.45213 l 2.94771,-3.11457 z"
             id="path2368"
             sodipodi:nodetypes="ccccc" />
        </g>
        <g
           id="g2333"
           inkscape:transform-center-x="-4.6721199"
           inkscape:transform-center-y="-5.6072089"
           transform="matrix(-1,0,0,1,475.86114,0)">
          <path
             style="fill:#e00000;fill-opacity:0.992157;stroke:none;stroke-width:0.450001;stroke-dasharray:none"
             d="m 235.32491,129.84901 -1.21915,0.8652 -0.81604,0.16714 -0.52109,0.01 -0.72755,0.23596 -1.05201,-0.0295 -0.29495,0.51125 0.0787,0.82587 0.82588,0.50143 1.52393,-0.14748 0.87503,-0.59974 1.07167,-1.2978 0.33429,-0.69806 z"
             id="path2327" />
          <path
             style="fill:#ffffff;fill-opacity:0.992157;stroke:#000000;stroke-width:0.450001;stroke-dasharray:none"
             d="m 237.23535,128.72611 c 0,0 -1.19651,5.60022 -5.11678,5.50611 -3.23279,-0.0776 -3.15306,-3.13099 -2.42075,-4.16455 0.87023,-1.22823 3.27062,-0.91026 3.255,0.4104 -0.0145,1.22604 -2.16907,-0.0834 -2.25249,1.11235 -0.0834,1.19577 1.05672,1.69632 2.64182,1.05672 1.58509,-0.63959 2.69743,-3.83758 2.69743,-3.83758 z"
             id="path2329"
             sodipodi:nodetypes="cssssscc" />
          <path
             style="fill:none;fill-opacity:0.992157;stroke:#000000;stroke-width:0.450001;stroke-dasharray:none"
             d="m 235.4556,129.69941 c 0,0 -0.53941,0.50577 -1.20968,0.88988 -0.73413,0.42071 -1.43444,0.20469 -1.43444,0.20469"
             id="path2331"
             sodipodi:nodetypes="csc" />
        </g>
        <g
           id="g2325">
          <path
             style="fill:#ffffff;fill-opacity:0.992157;stroke:none;stroke-width:0.450001;stroke-dasharray:none"
             d="m 235.32491,129.84901 -1.21915,0.8652 -0.81604,0.16714 -0.52109,0.01 -0.72755,0.23596 -1.05201,-0.0295 -0.29495,0.51125 0.0787,0.82587 0.82588,0.50143 1.52393,-0.14748 0.87503,-0.59974 1.07167,-1.2978 0.33429,-0.69806 z"
             id="path2320" />
          <path
             style="fill:#e00000;fill-opacity:0.992157;stroke:#000000;stroke-width:0.450001;stroke-dasharray:none"
             d="m 237.23535,128.72611 c 0,0 -1.19651,5.60022 -5.11678,5.50611 -3.23279,-0.0776 -3.15306,-3.13099 -2.42075,-4.16455 0.87023,-1.22823 3.27062,-0.91026 3.255,0.4104 -0.0145,1.22604 -2.16907,-0.0834 -2.25249,1.11235 -0.0834,1.19577 1.05672,1.69632 2.64182,1.05672 1.58509,-0.63959 2.69743,-3.83758 2.69743,-3.83758 z"
             id="path2316"
             sodipodi:nodetypes="cssssscc" />
          <path
             style="fill:none;fill-opacity:0.992157;stroke:#000000;stroke-width:0.450001;stroke-dasharray:none"
             d="m 235.4556,129.69941 c 0,0 -0.53941,0.50577 -1.20968,0.88988 -0.73413,0.42071 -1.43444,0.20469 -1.43444,0.20469"
             id="path2318"
             sodipodi:nodetypes="csc" />
        </g>
        <path
           id="path2232"
           style="fill:#ffffff;fill-opacity:0.992157;stroke:none;stroke-width:0.499999;stroke-dasharray:none"
           d="m 237.9307,99.999581 c 0,0 -3.38763,2.223269 -4.95009,6.229589 -2.11174,5.41476 0.61185,10.4557 0.61185,10.4557 l 4.03335,10.57506 0.30489,0.46509 z" />
        <path
           id="path2227"
           style="fill:#e00000;fill-opacity:0.992157;stroke:none;stroke-width:0.499999;stroke-dasharray:none"
           d="m 237.9307,99.999581 v 27.725439 l 0.17156,-0.11575 4.16667,-10.9244 c 0,0 2.72306,-5.04094 0.61134,-10.4557 -1.56246,-4.00632 -4.94957,-6.229589 -4.94957,-6.229589 z" />
        <path
           id="path2161"
           style="fill:none;fill-opacity:0.992157;stroke:#000000;stroke-width:0.45;stroke-dasharray:none"
           d="m 237.9307,99.999581 c 0,0 -3.38763,2.223259 -4.95009,6.229589 -2.11174,5.41476 0.61185,10.4557 0.61185,10.4557 l 4.33824,11.37398 4.33823,-11.37398 c 0,0 2.72307,-5.04094 0.61134,-10.4557 -1.56246,-4.00633 -4.94957,-6.229589 -4.94957,-6.229589 z" />
        <g
           id="g2105"
           inkscape:transform-center-x="-7.5513272"
           inkscape:transform-center-y="-21.724776"
           transform="matrix(-1,0,0,1,475.86114,0)">
          <path
             style="fill:#ffffff;fill-opacity:0.992157;stroke:#000000;stroke-width:0.45;stroke-dasharray:none"
             d="m 237.93057,128.0587 c 0.86521,-2.67426 -3.32238,-19.75832 -11.20851,-17.23428 -9.3459,2.99126 0.58991,15.37138 0.58991,15.37138 0,0 -0.0256,-6.35274 2.12368,-7.23062 2.79224,-1.1405 7.39353,9.28125 7.39353,9.28125 z"
             id="path2101"
             sodipodi:nodetypes="cscscc" />
          <path
             id="path2103"
             style="fill:#e00000;fill-opacity:0.992157;stroke:#000000;stroke-width:0.45;stroke-dasharray:none"
             d="m 228.57261,114.42816 c -0.53825,-2.6e-4 -1.06814,0.13059 -1.5751,0.40772 -2.49405,1.36341 -0.53339,5.69971 0.61495,7.8016 0.27614,-1.61453 0.80578,-3.25659 1.82315,-3.67213 2.79224,-1.1405 7.39335,9.28109 7.39335,9.28109 l 0.10386,-0.0176 c -0.25172,-1.07922 -0.76353,-3.11975 -1.71617,-6.3929 -1.27015,-4.36409 -4.05066,-7.40658 -6.64404,-7.40781 z" />
        </g>
        <g
           id="g2099">
          <path
             style="fill:#e00000;fill-opacity:0.992157;stroke:#000000;stroke-width:0.45;stroke-dasharray:none"
             d="m 237.93057,128.0587 c 0.86521,-2.67426 -3.32238,-19.75832 -11.20851,-17.23428 -9.3459,2.99126 0.58991,15.37138 0.58991,15.37138 0,0 -0.0256,-6.35274 2.12368,-7.23062 2.79224,-1.1405 7.39353,9.28125 7.39353,9.28125 z"
             id="path2026"
             sodipodi:nodetypes="cscscc" />
          <path
             id="path2077"
             style="fill:#ffffff;fill-opacity:0.992157;stroke:#000000;stroke-width:0.45;stroke-dasharray:none"
             d="m 228.57261,114.42816 c -0.53825,-2.6e-4 -1.06814,0.13059 -1.5751,0.40772 -2.49405,1.36341 -0.53339,5.69971 0.61495,7.8016 0.27614,-1.61453 0.80578,-3.25659 1.82315,-3.67213 2.79224,-1.1405 7.39335,9.28109 7.39335,9.28109 l 0.10386,-0.0176 c -0.25172,-1.07922 -0.76353,-3.11975 -1.71617,-6.3929 -1.27015,-4.36409 -4.05066,-7.40658 -6.64404,-7.40781 z" />
        </g>
        <g
           id="g1970">
          <rect
             style="fill:#ffffff;fill-opacity:0.992157;stroke:none;stroke-width:0.5;stroke-dasharray:none"
             id="rect1643"
             width="7.6195626"
             height="3.2258"
             x="234.12079"
             y="126.4458"
             ry="0.7508328"
             rx="0.7508328" />
          <path
             style="fill:#e00000;fill-opacity:0.992157;stroke:none;stroke-width:0.499999;stroke-dasharray:none"
             d="m 239.79375,126.4458 h 1.19577 l 0.47589,0.16919 0.26061,0.43428 0.0143,1.00943 -0.0421,1.11151 -0.38308,0.42778 -0.74276,0.0736 h -0.77864 z"
             id="path1915"
             inkscape:transform-center-x="-2.8364606"
             inkscape:transform-center-y="2.5305846" />
          <path
             style="fill:#e00000;fill-opacity:0.992157;stroke:none;stroke-width:0.499999;stroke-dasharray:none"
             d="m 236.06739,126.4458 h -1.19577 l -0.47589,0.16919 -0.26061,0.43428 -0.0143,1.00943 0.0421,1.11151 0.38308,0.42778 0.74276,0.0736 h 0.77864 z"
             id="path1805" />
          <rect
             style="fill:none;fill-opacity:0.992157;stroke:#000000;stroke-width:0.45;stroke-dasharray:none"
             id="rect1917"
             width="7.6195626"
             height="3.2258"
             x="234.12079"
             y="126.4458"
             ry="0.7508328"
             rx="0.7508328" />
        </g>
        <path
           style="fill:none;fill-opacity:0.992157;stroke:#000000;stroke-width:0.45;stroke-dasharray:none"
           d="m 237.93069,99.999584 -1.2e-4,25.528526"
           id="path2291" />
        <path
           style="fill:none;fill-opacity:0.992157;stroke:#000000;stroke-width:0.450001;stroke-dasharray:none"
           d="m 237.93057,129.6716 v 9.95399"
           id="path2385" />
      </g>
      <g
         id="g2559"
         transform="translate(-123.46916,0.3658526)">
        <path
           id="rect2473"
           style="fill:#ffe600;fill-opacity:0.994118;stroke:#000000;stroke-width:0.6;stroke-dasharray:none"
           d="m 220.24444,141.93242 c -2.11337,0 -3.81476,1.70139 -3.81476,3.81476 v 25.24807 c 0,1.78927 1.21971,3.28287 2.87631,3.699 v 12.58062 c -0.87606,-3.00199 -2.47299,-7.31324 -4.42143,-7.31324 -2.98887,0 -3.81476,9.08471 -3.81476,9.08471 0,0 1.65185,-4.71936 4.12947,-2.98896 1.71356,1.19677 3.29403,6.35957 4.10672,9.43198 v 7.75043 h 0.18087 l 1.6955,-1.03663 v -12.80232 c 0.98089,-2.84252 2.84966,-7.69005 4.15066,-7.53235 1.83535,0.22247 1.22369,8.73176 1.22369,8.73176 0,0 3.30924,-12.3194 -0.44493,-12.9868 -2.42069,-0.43035 -4.06549,3.71626 -4.92942,6.71742 v -9.63662 c 1.65685,-0.41598 2.87683,-1.90957 2.87683,-3.699 v -25.24807 c 0,-2.11337 -1.70138,-3.81476 -3.81475,-3.81476 z" />
        <path
           id="rect2487"
           style="fill:#ffe600;fill-opacity:0.994118;stroke:#000000;stroke-width:0.600001;stroke-dasharray:none"
           d="m 204.97715,149.83271 c -1.71006,0 -3.08663,1.37711 -3.08663,3.08715 v 15.07195 c 0,1.43496 0.96956,2.63477 2.29185,2.9838 v 5.68131 c -0.46395,-1.36068 -1.21968,-2.82611 -2.34714,-2.96416 -2.72525,-0.3337 -2.4474,7.92509 -2.4474,7.92509 0,0 0.751,-4.30988 2.28048,-4.03179 0.96704,0.17582 1.93361,1.94059 2.51406,3.21531 v 5.57072 h 0.47697 l 1.1126,-0.66715 v -6.53655 c 0.66218,-1.79261 1.81503,-4.5621 2.57038,-4.41885 1.61289,0.3059 2.16886,7.45278 2.16886,7.45278 0,0 1.66859,-9.34388 -1.16789,-10.01128 -1.73161,-0.40744 -2.91301,1.76487 -3.57135,3.51968 v -4.73511 c 1.32247,-0.34889 2.29236,-1.54869 2.29236,-2.9838 v -15.07195 c 0,-1.71004 -1.37709,-3.08715 -3.08715,-3.08715 z" />
        <path
           id="path2548"
           style="fill:#000000;fill-opacity:0.992157;stroke:none;stroke-width:0.1;stroke-dasharray:none"
           d="m 219.99381,144.54932 c 0,0 -1.54317,-0.035 -2.16886,0.97306 -0.42378,0.68283 -0.46302,1.50197 -0.46302,2.16938 v 10.95489 9.89655 c 0,0.66741 0.0392,1.48603 0.46302,2.16886 0.62569,1.00807 2.16886,0.97307 2.16886,0.97307 l 0.0279,-0.80615 c 0,0 -1.44022,-0.25042 -1.44022,-1.52962 v -10.70271 -11.76156 c 0,-1.2792 1.44022,-1.52962 1.44022,-1.52962 z"
           sodipodi:nodetypes="csscssccscscc" />
        <path
           id="path2553"
           style="fill:#000000;fill-opacity:0.992157;stroke:none;stroke-width:0.0999999;stroke-dasharray:none"
           d="m 204.53809,152.02072 c 0,0 -0.96234,-0.0218 -1.35253,0.60681 -0.26427,0.42582 -0.28874,0.93665 -0.28874,1.35285 v 6.8316 6.1716 c 0,0.41621 0.0244,0.92671 0.28874,1.35253 0.39019,0.62864 1.35253,0.60682 1.35253,0.60682 l 0.0174,-0.50273 c 0,0 -0.89814,-0.15616 -0.89814,-0.95389 v -6.67433 -7.33464 c 0,-0.79773 0.89814,-0.95389 0.89814,-0.95389 z"
           sodipodi:nodetypes="csscssccscscc" />
      </g>
      <path
         id="path2659"
         style="fill:#e00000;fill-opacity:0.992157;stroke:none;stroke-width:0.3;stroke-dasharray:none"
         d="m 121.37534,125.10419 c -0.51978,0.002 -1.05196,0.031 -1.59525,0.0935 -6.8736,0.79075 -9.84271,7.99356 -9.71105,12.55633 0.15731,5.45185 4.67732,10.25376 7.6662,12.45609 2.98889,2.20233 5.23037,3.53953 8.53386,6.05648 3.30349,2.51695 5.62394,5.34851 5.62394,5.34851 0,0 2.32045,-2.83156 5.62395,-5.34851 3.30348,-2.51695 5.54497,-3.85415 8.53384,-6.05648 2.98888,-2.20233 7.50889,-7.00424 7.6662,-12.45609 0.13166,-4.56277 -2.83745,-11.76558 -9.71103,-12.55633 -6.95419,-0.80003 -12.11296,3.77548 -12.11296,3.77548 0,0 -4.38438,-3.88824 -10.5177,-3.86902 z" />
    </g>
  </g>
</svg>
