<?xml version="1.0" encoding="UTF-8" standalone="no"?>
<!-- Created with Inkscape (http://www.inkscape.org/) -->

<svg
   xmlns:dc="http://purl.org/dc/elements/1.1/"
   xmlns:cc="http://creativecommons.org/ns#"
   xmlns:rdf="http://www.w3.org/1999/02/22-rdf-syntax-ns#"
   xmlns:svg="http://www.w3.org/2000/svg"
   xmlns="http://www.w3.org/2000/svg"
   xmlns:sodipodi="http://sodipodi.sourceforge.net/DTD/sodipodi-0.dtd"
   xmlns:inkscape="http://www.inkscape.org/namespaces/inkscape"
   width="135.82942mm"
   height="159.45132mm"
   viewBox="0 0 135.82942 159.45132"
   version="1.1"
   id="svg865"
   inkscape:version="0.92.5 (2060ec1f9f, 2020-04-08)"
   sodipodi:docname="DEU Becheln COA.svg">
  <defs
     id="defs859">
    <inkscape:path-effect
       effect="spiro"
       id="path-effect2319"
       is_visible="true" />
    <inkscape:path-effect
       effect="spiro"
       id="path-effect2277"
       is_visible="true" />
    <inkscape:path-effect
       effect="spiro"
       id="path-effect2254"
       is_visible="true" />
    <inkscape:path-effect
       effect="spiro"
       id="path-effect1888"
       is_visible="true" />
    <inkscape:path-effect
       effect="spiro"
       id="path-effect3644"
       is_visible="true" />
    <inkscape:path-effect
       effect="spiro"
       id="path-effect3636"
       is_visible="true" />
    <inkscape:path-effect
       effect="spiro"
       id="path-effect3544"
       is_visible="true" />
    <inkscape:path-effect
       effect="spiro"
       id="path-effect3466"
       is_visible="true" />
    <inkscape:path-effect
       effect="spiro"
       id="path-effect3544-2"
       is_visible="true" />
    <inkscape:path-effect
       effect="spiro"
       id="path-effect3644-8"
       is_visible="true" />
    <inkscape:path-effect
       effect="spiro"
       id="path-effect3644-3"
       is_visible="true" />
    <inkscape:path-effect
       effect="spiro"
       id="path-effect3636-0"
       is_visible="true" />
    <inkscape:path-effect
       effect="spiro"
       id="path-effect1727-0-1"
       is_visible="true" />
    <inkscape:path-effect
       effect="spiro"
       id="path-effect1731-8-3"
       is_visible="true" />
    <inkscape:path-effect
       effect="spiro"
       id="path-effect1727-3"
       is_visible="true" />
    <inkscape:path-effect
       effect="spiro"
       id="path-effect1731-7"
       is_visible="true" />
    <inkscape:path-effect
       effect="spiro"
       id="path-effect841-8"
       is_visible="true" />
    <inkscape:path-effect
       effect="spiro"
       id="path-effect1888-6"
       is_visible="true" />
    <inkscape:path-effect
       effect="spiro"
       id="path-effect2254-3"
       is_visible="true" />
    <inkscape:path-effect
       effect="spiro"
       id="path-effect2277-1"
       is_visible="true" />
  </defs>
  <sodipodi:namedview
     id="base"
     pagecolor="#ffffff"
     bordercolor="#666666"
     borderopacity="1.0"
     inkscape:pageopacity="0.0"
     inkscape:pageshadow="2"
     inkscape:zoom="1.3158535"
     inkscape:cx="256.68553"
     inkscape:cy="301.32533"
     inkscape:document-units="mm"
     inkscape:current-layer="layer1"
     showgrid="false"
     inkscape:window-width="1920"
     inkscape:window-height="1046"
     inkscape:window-x="-11"
     inkscape:window-y="-11"
     inkscape:window-maximized="1"
     fit-margin-top="0"
     fit-margin-left="0"
     fit-margin-right="0"
     fit-margin-bottom="0"
     inkscape:snap-global="true"
     inkscape:snap-midpoints="true"
     inkscape:snap-smooth-nodes="true"
     inkscape:object-paths="true"
     showguides="false" />
  <metadata
     id="metadata862">
    <rdf:RDF>
      <cc:Work
         rdf:about="">
        <dc:format>image/svg+xml</dc:format>
        <dc:type
           rdf:resource="http://purl.org/dc/dcmitype/StillImage" />
        <dc:title></dc:title>
      </cc:Work>
    </rdf:RDF>
  </metadata>
  <g
     inkscape:label="Ebene 1"
     inkscape:groupmode="layer"
     id="layer1"
     transform="translate(3.063571,170.63934)">
    <path
       style="fill:#0030ff;fill-opacity:1;fill-rule:evenodd;stroke:none;stroke-width:2.9104166;stroke-linecap:round;stroke-linejoin:round;stroke-miterlimit:4;stroke-dasharray:none;stroke-opacity:1"
       inkscape:connector-curvature="0"
       d="m 131.31065,-169.18413 -0.30385,94.538455 c -1.47938,37.540972 -30.70868,61.981432 -66.155653,62.002453 -35.41509,-0.0461 -64.6553306,-24.497199 -66.1556506,-62.002453 l -0.30386,-94.538455 H 64.849547 Z"
       id="path10563-0-6-2-6-8-6"
       sodipodi:nodetypes="ccccccc" />
    <path
       style="opacity:1;fill:#ffffff;fill-opacity:1;fill-rule:evenodd;stroke:none;stroke-width:11;stroke-linecap:round;stroke-linejoin:round;stroke-miterlimit:4;stroke-dasharray:none;stroke-opacity:1;paint-order:fill markers stroke"
       d="M 5.5 5.5 L 6.4550781 302.72852 L 506.91602 302.72852 L 507.87109 5.5 L 256.67969 5.5 L 5.5 5.5 z "
       transform="matrix(0.26458333,0,0,0.26458333,-3.063571,-170.63934)"
       id="rect1861" />
    <circle
       style="opacity:1;fill:#000000;fill-opacity:1;fill-rule:evenodd;stroke:none;stroke-width:0.26458341;stroke-linecap:round;stroke-linejoin:round;stroke-miterlimit:4;stroke-dasharray:none;stroke-opacity:1;paint-order:fill markers stroke"
       id="path1879-9-1"
       cx="64.851189"
       cy="-90.581909"
       r="13.044794" />
    <path
       style="opacity:1;fill:#ffd700;fill-opacity:1;fill-rule:evenodd;stroke:#000000;stroke-width:5;stroke-linecap:round;stroke-linejoin:round;stroke-miterlimit:4;stroke-dasharray:none;stroke-opacity:1;paint-order:fill markers stroke"
       d="M 256.68359 12.371094 C 256.25466 17.213424 254.48509 21.929876 251.62305 25.859375 C 248.93697 29.547287 245.29067 32.592516 243.37305 36.732422 C 242.39393 38.846387 241.91533 41.161691 241.68945 43.480469 C 241.31679 47.304179 241.64981 51.294588 243.37305 54.728516 C 244.97659 57.924975 247.69221 60.476105 249.1875 63.724609 C 250.39044 66.337964 250.74017 69.315192 250.3125 72.160156 C 250.01724 74.12415 249.34947 76.028491 248.37305 77.757812 L 248.33398 77.757812 L 248.33398 77.830078 C 247.97123 78.465114 247.56832 79.07797 247.12305 79.658203 C 247.27612 73.789164 244.64576 67.908506 240.16797 64.111328 C 235.69017 60.31415 229.45846 58.678941 223.69336 59.789062 C 219.14643 60.66459 214.93203 63.20946 212.08008 66.857422 C 209.22808 70.505384 207.77359 75.22935 208.13477 79.845703 C 208.45905 83.993054 210.16677 87.891228 211.88086 91.681641 C 213.59499 95.472091 215.36153 99.330007 215.81836 103.46484 C 216.52082 109.82356 213.82326 116.45908 208.88281 120.52344 C 212.73956 120.68822 216.63221 119.90888 220.12891 118.27344 C 222.94704 116.95537 225.51727 115.07599 227.5293 112.70312 C 229.54141 110.33023 230.98731 107.45907 231.56641 104.40234 C 232.15232 101.31012 231.85252 98.12903 231.91602 94.982422 C 231.94625 93.40908 232.07025 91.830961 232.4375 90.300781 C 232.80487 88.770602 233.42436 87.285776 234.37695 86.033203 C 235.03954 85.161946 235.86511 84.405573 236.83203 83.892578 C 237.79898 83.379545 238.91036 83.116691 240 83.220703 C 240.93441 83.3099 241.82918 83.662137 242.63672 84.140625 C 243.44429 84.619113 244.17086 85.222837 244.87305 85.845703 C 246.09513 86.929596 247.24571 88.092708 248.33398 89.310547 L 248.33398 109.03906 L 240.77734 109.03906 L 240.77734 125.74023 L 248.33398 125.74023 L 248.33398 203.67969 L 265.03516 203.67969 L 265.03516 125.74023 L 272.58984 125.74023 L 272.58984 109.03906 L 265.03516 109.03906 L 265.03516 89.308594 C 266.12272 88.091472 267.27084 86.928991 268.49219 85.845703 C 269.19445 85.222837 269.92096 84.619113 270.72852 84.140625 C 271.53608 83.662137 272.43277 83.3099 273.36719 83.220703 C 274.45685 83.116766 275.56626 83.379432 276.5332 83.892578 C 277.50013 84.405573 278.32762 85.161946 278.99023 86.033203 C 279.94282 87.285776 280.56049 88.770602 280.92773 90.300781 C 281.29499 91.830961 281.41943 93.40908 281.45117 94.982422 C 281.51463 98.12903 281.21495 101.31012 281.80078 104.40234 C 282.37988 107.45907 283.82385 110.33023 285.83594 112.70312 C 287.84803 115.07599 290.4182 116.95537 293.23633 118.27344 C 296.73304 119.90888 300.62567 120.68819 304.48242 120.52344 C 299.542 116.45908 296.8444 109.82356 297.54688 103.46484 C 298.00365 99.330007 299.7722 95.472091 301.48633 91.681641 C 303.20045 87.891228 304.908 83.993054 305.23242 79.845703 C 305.59356 75.22935 304.141 70.505384 301.28906 66.857422 C 298.43711 63.20946 294.22075 60.66459 289.67383 59.789062 C 283.90869 58.678941 277.677 60.31415 273.19922 64.111328 C 268.72141 67.908506 266.08901 73.789164 266.24219 79.658203 C 265.79782 79.079104 265.39719 78.467698 265.03516 77.833984 L 265.03516 77.757812 L 264.99414 77.757812 C 264.01835 76.028528 263.35186 74.124074 263.05664 72.160156 C 262.62898 69.315192 262.97871 66.337964 264.18164 63.724609 C 265.67694 60.476105 268.38869 57.924975 269.99219 54.728516 C 271.71485 51.294588 272.05225 47.304179 271.67969 43.480469 C 271.45379 41.161691 270.97139 38.846387 269.99219 36.732422 C 268.07463 32.592516 264.43024 29.547287 261.74414 25.859375 C 258.88205 21.9298 257.11247 17.2135 256.68359 12.371094 z M 494.33984 64.921875 C 490.61247 68.042706 486.02898 70.126012 481.22656 70.880859 C 476.71944 71.589256 471.98834 71.166943 467.70508 72.738281 C 465.51787 73.540675 463.53764 74.836494 461.73828 76.316406 C 458.77109 78.756734 456.19052 81.816629 454.98047 85.462891 C 453.85409 88.856982 453.96629 92.579187 452.72656 95.933594 C 451.72926 98.632101 449.87073 100.98407 447.55664 102.69336 C 445.95919 103.87329 444.1413 104.74845 442.22852 105.28125 L 442.19922 105.25195 L 442.14453 105.30664 C 441.44044 105.49864 440.72374 105.64909 440 105.74414 C 444.25836 101.70239 446.5555 95.681392 446.07422 89.830078 C 445.59297 83.978803 442.34399 78.416628 437.48242 75.125 C 433.64817 72.528918 428.86566 71.347271 424.26953 71.910156 C 419.6734 72.473003 415.30775 74.78504 412.29883 78.304688 C 409.59563 81.466715 408.04624 85.431948 406.57812 89.324219 C 405.10994 93.216565 403.63202 97.194599 401.03125 100.44141 C 397.03168 105.43439 390.43176 108.21892 384.06445 107.59961 C 386.67508 110.44325 389.97843 112.64483 393.60742 113.96094 C 396.53217 115.02181 399.67869 115.50906 402.7793 115.25391 C 405.87995 114.99879 408.93104 113.99024 411.50195 112.23828 C 414.10272 110.46599 416.14029 108.00433 418.41016 105.82422 C 419.54511 104.73417 420.7501 103.70712 422.0918 102.88477 C 423.43345 102.06249 424.91923 101.44836 426.47852 101.23633 C 427.56313 101.08893 428.68396 101.14006 429.73047 101.46094 C 430.77702 101.78182 431.74638 102.3806 432.44336 103.22461 C 433.04102 103.94839 433.42538 104.83088 433.6582 105.74023 C 433.89102 106.64963 433.97884 107.59036 434.03516 108.52734 C 434.13305 110.15696 434.12271 111.79027 434.03125 113.41992 L 420.08008 127.37305 L 414.73828 122.03125 L 402.92773 133.83984 L 408.26953 139.18164 L 393.59375 153.85742 L 353.1582 194.29297 L 312.72266 234.72852 L 324.5332 246.53711 L 364.96875 206.10352 L 364.96875 206.10156 L 405.40625 165.66406 L 420.08008 150.99219 L 425.42188 156.33398 L 437.23242 144.52539 L 431.88867 139.18164 L 445.83984 125.23242 C 447.47052 125.14058 449.10573 125.131 450.73633 125.22852 C 451.67324 125.28483 452.61405 125.3707 453.52344 125.60352 C 454.43279 125.83633 455.31525 126.2207 456.03906 126.81836 C 456.88311 127.5153 457.48185 128.48669 457.80273 129.5332 C 458.12362 130.57968 458.17279 131.69863 458.02539 132.7832 C 457.81336 134.34252 457.2011 135.8301 456.37891 137.17188 C 455.55659 138.5136 454.52861 139.71767 453.4375 140.85156 C 451.25739 143.12143 448.79566 145.159 447.02344 147.75977 C 445.27148 150.33071 444.26488 153.38373 444.00977 156.48438 C 443.75465 159.58498 444.2422 162.7315 445.30273 165.65625 C 446.61884 169.28524 448.82042 172.58862 451.66406 175.19922 C 451.04456 168.83185 453.82925 162.23203 458.82227 158.23242 C 462.06907 155.63169 466.04711 154.15171 469.93945 152.68359 C 473.83172 151.2154 477.79508 149.66819 480.95703 146.96484 C 484.47664 143.956 486.78875 139.5864 487.35156 134.99023 C 487.91445 130.3941 486.7328 125.61359 484.13672 121.7793 C 480.84517 116.91777 475.28292 113.66879 469.43164 113.1875 C 463.58033 112.70621 457.56132 115.0034 453.51953 119.26172 C 453.61515 118.53654 453.7648 117.81888 453.95703 117.11328 L 454.00781 117.0625 L 453.98047 117.03516 C 454.51285 115.12196 455.38839 113.3046 456.56836 111.70703 C 458.27765 109.39298 460.62963 107.53441 463.32812 106.53711 C 466.68249 105.29739 470.40669 105.41352 473.80078 104.28711 C 477.44746 103.07751 480.50506 100.49067 482.94531 97.523438 C 484.42519 95.724118 485.72292 93.749675 486.52539 91.5625 C 488.09669 87.279237 487.67246 82.548064 488.38086 78.041016 C 489.13567 73.238635 491.21909 68.65116 494.33984 64.923828 L 494.33984 64.921875 z M 19.029297 64.923828 C 22.14908 68.650783 24.233613 73.237623 24.988281 78.039062 C 25.696671 82.546149 25.270497 87.277246 26.841797 91.560547 C 27.644267 93.747684 28.941965 95.72408 30.421875 97.523438 C 32.862125 100.49067 35.919736 103.07552 39.566406 104.28516 C 42.960506 105.41153 46.684694 105.29543 50.039062 106.53516 C 52.737604 107.53246 55.091479 109.39099 56.800781 111.70508 C 57.980738 113.30265 58.854331 115.12192 59.386719 117.03516 L 59.361328 117.0625 L 59.412109 117.11133 C 59.604487 117.81693 59.75412 118.53654 59.849609 119.26172 C 55.80782 115.0034 49.788819 112.70426 43.9375 113.18555 C 38.08623 113.66683 32.523972 116.91773 29.232422 121.7793 C 26.636332 125.61355 25.454698 130.39215 26.017578 134.98828 C 26.580388 139.58445 28.892499 143.95405 32.412109 146.96289 C 35.574069 149.66624 39.539371 151.2154 43.431641 152.68359 C 47.32399 154.15171 51.300072 155.62974 54.546875 158.23047 C 59.539892 162.23008 62.324577 168.8299 61.705078 175.19727 C 64.548719 172.58667 66.750295 169.28329 68.066406 165.6543 C 69.127097 162.72955 69.616488 159.58303 69.361328 156.48242 C 69.10621 153.38177 68.097665 150.32876 66.345703 147.75781 C 64.573483 145.15704 62.111751 143.11948 59.931641 140.84961 C 58.840533 139.71571 57.812542 138.51165 56.990234 137.16992 C 56.168032 135.82815 55.555861 134.34057 55.34375 132.78125 C 55.196348 131.69668 55.245524 130.57773 55.566406 129.53125 C 55.887288 128.48474 56.487983 127.51335 57.332031 126.81641 C 58.055845 126.21875 58.936341 125.83618 59.845703 125.60352 C 60.755091 125.3707 61.695865 125.28483 62.632812 125.22852 C 64.263373 125.131 65.90058 125.139 67.53125 125.23047 L 81.480469 139.17969 L 76.136719 144.52344 L 87.947266 156.33203 L 93.289062 150.99023 L 120.84766 178.54883 L 148.40234 206.10156 L 201.71875 259.41992 L 213.52734 247.60938 L 160.21094 194.29297 L 160.21094 194.29102 L 132.6543 166.73633 L 105.09961 139.17969 L 110.44141 133.83789 L 98.632812 122.0293 L 93.289062 127.37109 L 79.337891 113.41797 C 79.246426 111.78831 79.235981 110.15501 79.333984 108.52539 C 79.390299 107.58841 79.478119 106.64767 79.710938 105.73828 C 79.943755 104.82893 80.328125 103.94644 80.925781 103.22266 C 81.622764 102.37865 82.592121 101.77998 83.638672 101.45898 C 84.68514 101.1381 85.806014 101.08893 86.890625 101.23633 C 88.449903 101.44836 89.935683 102.06249 91.277344 102.88477 C 92.619031 103.70712 93.824026 104.73417 94.958984 105.82422 C 97.228855 108.00433 99.266413 110.46599 101.86719 112.23828 C 104.4381 113.99024 107.48919 114.99879 110.58984 115.25391 C 113.69049 115.50902 116.83697 115.02181 119.76172 113.96094 C 123.39071 112.64483 126.69406 110.44325 129.30469 107.59961 C 122.93736 108.21911 116.33746 105.43439 112.33789 100.44141 C 109.73712 97.194599 108.25921 93.216565 106.79102 89.324219 C 105.3229 85.431948 103.77546 81.468669 101.07227 78.306641 C 98.063342 74.786993 93.695749 72.473003 89.099609 71.910156 C 84.503481 71.347271 79.720981 72.528956 75.886719 75.125 C 71.02515 78.416628 67.776162 83.978803 67.294922 89.830078 C 66.813633 95.681392 69.110788 101.70239 73.369141 105.74414 C 72.645399 105.6489 71.928698 105.49883 71.224609 105.30664 L 71.171875 105.25195 L 71.140625 105.2832 C 69.227844 104.7504 67.409959 103.87524 65.8125 102.69531 C 63.498409 100.98602 61.63989 98.634054 60.642578 95.935547 C 59.402859 92.581141 59.516992 88.858935 58.390625 85.464844 C 57.180575 81.818582 54.598061 78.758687 51.630859 76.318359 C 49.831509 74.838485 47.853226 73.542628 45.666016 72.740234 C 41.382756 71.168782 36.651651 71.591209 32.144531 70.882812 C 27.342111 70.127966 22.756667 68.04466 19.029297 64.923828 z M 77.216797 253.97852 C 73.170136 254.05373 69.154891 255.48109 65.962891 257.97656 C 62.314928 260.82852 59.770059 265.04297 58.894531 269.58984 C 57.784412 275.35498 59.41963 281.58666 63.216797 286.06445 C 67.013979 290.54225 72.894633 293.1726 78.763672 293.01953 C 78.183443 293.46481 77.570587 293.86771 76.935547 294.23047 L 76.863281 294.23047 L 76.863281 294.26953 C 75.133992 295.24595 73.229622 295.91375 71.265625 296.20898 C 68.420665 296.63666 65.443429 296.28692 62.830078 295.08398 C 59.58157 293.58869 57.030444 290.87307 53.833984 289.26953 C 50.400053 287.54629 46.409646 287.21328 42.585938 287.58594 C 40.267118 287.81195 37.951851 288.29041 35.837891 289.26953 C 31.697981 291.18715 28.652754 294.83344 24.964844 297.51953 C 21.035344 300.38158 16.318892 302.15115 11.476562 302.58008 C 16.318972 303.00896 21.035274 304.77855 24.964844 307.64062 C 28.652794 310.32672 31.697981 313.9711 35.837891 315.88867 C 37.951851 316.86787 40.267118 317.35028 42.585938 317.57617 C 46.409646 317.94872 50.400023 317.61132 53.833984 315.88867 C 57.030444 314.28516 59.58157 311.57343 62.830078 310.07812 C 65.443429 308.87521 68.420665 308.5255 71.265625 308.95312 C 73.229543 309.24834 75.134034 309.91485 76.863281 310.89062 L 76.863281 310.93164 L 76.939453 310.93164 C 77.573163 311.29368 78.184573 311.69429 78.763672 312.13867 C 72.894633 311.98549 67.013979 314.61789 63.216797 319.0957 C 59.41963 323.57348 57.784412 329.80517 58.894531 335.57031 C 59.770059 340.11724 62.314928 344.33359 65.962891 347.18555 C 69.610849 350.03749 74.334823 351.49004 78.951172 351.12891 C 83.098523 350.80447 86.996689 349.09695 90.787109 347.38281 C 94.577556 345.66868 98.435475 343.90015 102.57031 343.44336 C 108.92902 342.74089 115.56456 345.43849 119.62891 350.37891 C 119.79369 346.52216 119.01435 342.62953 117.37891 339.13281 C 116.06084 336.31468 114.18149 333.74451 111.80859 331.73242 C 109.43573 329.72033 106.56454 328.27635 103.50781 327.69727 C 100.41555 327.11144 97.234498 327.41111 94.087891 327.34766 C 92.514549 327.31591 90.93643 327.19149 89.40625 326.82422 C 87.87607 326.45696 86.391173 325.83931 85.138672 324.88672 C 84.267343 324.22411 83.51105 323.39662 82.998047 322.42969 C 82.484908 321.46275 82.222231 320.35332 82.326172 319.26367 C 82.415369 318.32925 82.767606 317.43255 83.246094 316.625 C 83.724586 315.81744 84.328272 315.09093 84.951172 314.38867 C 86.034464 313.16732 87.196942 312.01921 88.414062 310.93164 L 108.14453 310.93164 L 108.14453 318.48633 L 124.8457 318.48633 L 124.8457 310.93164 L 202.78516 310.93164 L 202.78516 294.23047 L 124.8457 294.23047 L 124.8457 286.67383 L 108.14453 286.67383 L 108.14453 294.23047 L 88.416016 294.23047 C 87.198176 293.1422 86.035023 291.9916 84.951172 290.76953 C 84.328272 290.06733 83.724544 289.34077 83.246094 288.5332 C 82.767575 287.72567 82.415403 286.8309 82.326172 285.89648 C 82.222235 284.80685 82.484919 283.69547 82.998047 282.72852 C 83.511008 281.7616 84.267374 280.93603 85.138672 280.27344 C 86.391204 279.32085 87.87607 278.70135 89.40625 278.33398 C 90.93643 277.96661 92.514579 277.84274 94.087891 277.8125 C 97.234529 277.749 100.41555 278.04872 103.50781 277.46289 C 106.56454 276.88379 109.43577 275.43789 111.80859 273.42578 C 114.18153 271.41375 116.06084 268.84349 117.37891 266.02539 C 119.01435 262.52872 119.7937 258.636 119.62891 254.7793 C 115.56456 259.71971 108.92902 262.41731 102.57031 261.71484 C 98.435475 261.25801 94.577556 259.49151 90.787109 257.77734 C 86.996689 256.06321 83.098523 254.35557 78.951172 254.03125 C 78.374114 253.98627 77.794876 253.96793 77.216797 253.97852 z M 436.15039 253.97852 C 435.57231 253.96718 434.99503 253.98627 434.41797 254.03125 C 430.27062 254.35553 426.3744 256.06325 422.58398 257.77734 C 418.79353 259.49147 414.93367 261.25801 410.79883 261.71484 C 404.44011 262.41734 397.80462 259.71971 393.74023 254.7793 C 393.57545 258.636 394.3548 262.52872 395.99023 266.02539 C 397.30834 268.84349 399.1896 271.41375 401.5625 273.42578 C 403.93536 275.43789 406.80651 276.88379 409.86328 277.46289 C 412.9555 278.04879 416.1366 277.749 419.2832 277.8125 C 420.85654 277.84274 422.43271 277.96675 423.96289 278.33398 C 425.49307 278.70135 426.9779 279.32085 428.23047 280.27344 C 429.10173 280.93603 429.86005 281.7616 430.37305 282.72852 C 430.88608 283.69547 431.14698 284.80685 431.04297 285.89648 C 430.95377 286.8309 430.60349 287.72567 430.125 288.5332 C 429.64651 289.34077 429.04083 290.06733 428.41797 290.76953 C 427.33408 291.9916 426.17096 293.14218 424.95312 294.23047 L 405.22656 294.23047 L 405.22656 286.67383 L 388.52539 286.67383 L 388.52539 294.23047 L 310.58398 294.23047 L 310.58398 310.93164 L 388.52539 310.93164 L 388.52539 318.48633 L 405.22656 318.48633 L 405.22656 310.93164 L 424.95703 310.93164 C 426.17415 312.01921 427.33468 313.16733 428.41797 314.38867 C 429.04083 315.09093 429.64651 315.81744 430.125 316.625 C 430.60349 317.43255 430.95377 318.32925 431.04297 319.26367 C 431.14691 320.35332 430.88616 321.46275 430.37305 322.42969 C 429.86005 323.39662 429.10173 324.22411 428.23047 324.88672 C 426.9779 325.83931 425.49307 326.45697 423.96289 326.82422 C 422.43271 327.19148 420.85654 327.31592 419.2832 327.34766 C 416.1366 327.41111 412.9555 327.11144 409.86328 327.69727 C 406.80651 328.27635 403.93536 329.72033 401.5625 331.73242 C 399.1896 333.74451 397.30834 336.31468 395.99023 339.13281 C 394.3548 342.62953 393.57548 346.52214 393.74023 350.37891 C 397.80462 345.43847 404.44011 342.74089 410.79883 343.44336 C 414.93367 343.90015 418.79353 345.66868 422.58398 347.38281 C 426.3744 349.09695 430.27062 350.80449 434.41797 351.12891 C 439.03432 351.49004 443.76024 350.03748 447.4082 347.18555 C 451.05617 344.33359 453.60103 340.11724 454.47656 335.57031 C 455.58669 329.80517 453.95147 323.57348 450.1543 319.0957 C 446.35708 314.6179 440.47451 311.98549 434.60547 312.13867 C 435.18457 311.69429 435.79793 311.29367 436.43164 310.93164 L 436.50781 310.93164 L 436.50781 310.89062 C 438.2371 309.91485 440.14155 309.24837 442.10547 308.95312 C 444.95043 308.5255 447.92766 308.8752 450.54102 310.07812 C 453.78948 311.57343 456.34065 314.28516 459.53711 315.88867 C 462.97104 317.61133 466.96145 317.94872 470.78516 317.57617 C 473.1039 317.35027 475.41924 316.86787 477.5332 315.88867 C 481.67311 313.97111 484.7183 310.32672 488.40625 307.64062 C 492.33586 304.77854 497.05212 303.00896 501.89453 302.58008 C 497.0522 302.15115 492.33579 300.38157 488.40625 297.51953 C 484.71838 294.83344 481.67311 291.18715 477.5332 289.26953 C 475.41924 288.29041 473.10393 287.81179 470.78516 287.58594 C 466.96145 287.21328 462.97104 287.54629 459.53711 289.26953 C 456.34065 290.87307 453.78948 293.58869 450.54102 295.08398 C 447.92766 296.28692 444.95043 296.63666 442.10547 296.20898 C 440.14148 295.91373 438.23714 295.24595 436.50781 294.26953 L 436.50781 294.23047 L 436.43555 294.23047 C 435.80051 293.86771 435.18765 293.4648 434.60742 293.01953 C 440.47646 293.1726 446.35708 290.54225 450.1543 286.06445 C 453.95147 281.58666 455.58669 275.35495 454.47656 269.58984 C 453.60103 265.04295 451.05617 260.82852 447.4082 257.97656 C 444.2162 255.48109 440.19901 254.05392 436.15234 253.97852 L 436.15039 253.97852 z M 205.5957 341.85938 L 150.48438 396.9707 L 145.14062 391.62695 L 133.33203 403.4375 L 138.67578 408.7793 L 124.72461 422.73047 C 123.09397 422.82208 121.4587 422.83014 119.82812 422.73242 C 118.89116 422.67637 117.95038 422.59017 117.04102 422.35742 C 116.13163 422.12479 115.24921 421.74021 114.52539 421.14258 C 113.68138 420.44559 113.0826 419.47432 112.76172 418.42773 C 112.44084 417.3813 112.39324 416.26236 112.54102 415.17773 C 112.75305 413.61849 113.36332 412.13083 114.18555 410.78906 C 115.00779 409.44729 116.03585 408.2452 117.12695 407.11133 C 119.30711 404.84141 121.76872 402.80392 123.54102 400.20312 C 125.29299 397.63222 126.29961 394.57913 126.55469 391.47852 C 126.80981 388.37787 126.32453 385.23136 125.26367 382.30664 C 123.94756 378.67767 121.74598 375.37428 118.90234 372.76367 C 119.52184 379.13103 116.73522 385.73089 111.74219 389.73047 C 108.49539 392.33121 104.51929 393.80916 100.62695 395.27734 C 96.734685 396.74551 92.771324 398.29476 89.609375 400.99805 C 89.169514 401.3743 88.74701 401.77125 88.345703 402.1875 C 85.537473 405.10211 83.70735 408.95099 83.214844 412.97266 C 82.651951 417.56878 83.831683 422.34742 86.427734 426.18164 C 89.719321 431.04319 95.283478 434.29412 101.13477 434.77539 C 106.98604 435.25666 113.00309 432.9575 117.04492 428.69922 C 116.94968 429.42437 116.80205 430.14211 116.60938 430.84766 L 116.55859 430.89844 L 116.58203 430.92773 C 116.04968 432.84095 115.1761 434.65834 113.99609 436.25586 C 112.28684 438.56997 109.93487 440.42846 107.23633 441.42578 C 103.88196 442.66549 100.1578 442.54942 96.763672 443.67578 C 93.116991 444.88542 90.05943 447.47217 87.619141 450.43945 C 86.139338 452.23892 84.839582 454.21325 84.037109 456.40039 C 82.465729 460.68371 82.891994 465.41477 82.183594 469.92188 C 81.428784 474.72422 79.345362 479.31172 76.224609 483.03906 C 79.951979 479.91823 84.537425 477.83491 89.339844 477.08008 C 93.846976 476.37166 98.576107 476.79408 102.85938 475.22266 C 105.04659 474.42025 107.02482 473.12445 108.82422 471.64453 C 111.79141 469.20419 114.37584 466.14432 115.58594 462.49805 C 116.71231 459.10396 116.5982 455.38172 117.83789 452.02734 C 118.83523 449.32882 120.69372 446.97688 123.00781 445.26758 C 124.60527 444.08763 126.42319 443.21246 128.33594 442.67969 L 128.36523 442.70898 L 128.41992 442.6543 C 129.12405 442.46218 129.83876 442.31399 130.5625 442.21875 C 126.30414 446.26047 124.00699 452.27956 124.48828 458.13086 C 124.96953 463.98214 128.2205 469.54434 133.08203 472.83594 C 136.91628 475.432 141.69683 476.6156 146.29297 476.05273 C 150.8891 475.48986 155.25672 473.17586 158.26562 469.65625 C 160.96882 466.49422 162.51817 462.53097 163.98633 458.63867 C 165.45452 454.74634 166.93243 450.76631 169.5332 447.51953 C 173.53277 442.52652 180.13267 439.74381 186.5 440.36328 C 183.8894 437.51963 180.58406 435.31808 176.95508 434.00195 C 174.03033 432.94126 170.88581 432.4519 167.78516 432.70703 C 164.68455 432.96215 161.63146 433.97071 159.06055 435.72266 C 156.45975 437.49497 154.42418 439.9566 152.1543 442.13672 C 151.01935 443.22679 149.81436 444.25583 148.47266 445.07812 C 147.13097 445.90044 145.64518 446.51254 144.08594 446.72461 C 143.00128 446.8722 141.88047 446.82295 140.83398 446.50195 C 139.7874 446.18107 138.81811 445.58227 138.12109 444.73828 C 137.52343 444.01448 137.13697 443.13008 136.9043 442.2207 C 136.67148 441.31133 136.58523 440.37063 136.5293 439.43359 C 136.43179 437.80397 136.44223 436.17068 136.5332 434.54102 L 150.48438 420.58984 L 155.82617 425.93164 L 167.63672 414.12305 L 162.29492 408.7793 L 217.40625 353.66797 L 205.5957 341.85938 z M 307.77148 341.85938 L 295.96094 353.66797 L 351.07422 408.7793 L 345.73047 414.12305 L 357.54102 425.93164 L 362.88281 420.58984 L 376.83398 434.54102 C 376.92507 436.17066 376.93552 437.80397 376.83789 439.43359 C 376.78195 440.37061 376.69571 441.31131 376.46289 442.2207 C 376.23022 443.13007 375.84571 444.01446 375.24805 444.73828 C 374.55103 445.58229 373.57979 446.18107 372.5332 446.50195 C 371.48673 446.82284 370.36785 446.87201 369.2832 446.72461 C 367.72396 446.51258 366.23622 445.90044 364.89453 445.07812 C 363.55283 444.25586 362.34981 443.22677 361.21484 442.13672 C 358.94497 439.95657 356.90744 437.49499 354.30664 435.72266 C 351.73573 433.97073 348.6846 432.96215 345.58398 432.70703 C 342.48334 432.45191 339.33685 432.94129 336.41211 434.00195 C 332.78312 435.31806 329.47974 437.51964 326.86914 440.36328 C 333.23648 439.74382 339.83442 442.52651 343.83398 447.51953 C 346.43476 450.7663 347.91266 454.74636 349.38086 458.63867 C 350.84901 462.53098 352.39837 466.49422 355.10156 469.65625 C 358.11048 473.17586 362.47808 475.48985 367.07422 476.05273 C 371.67035 476.61558 376.45091 475.43202 380.28516 472.83594 C 385.14669 469.54435 388.39767 463.98213 388.87891 458.13086 C 389.3602 452.27955 387.06305 446.26046 382.80469 442.21875 C 383.52844 442.31388 384.24314 442.4623 384.94727 442.6543 L 385.00195 442.70898 L 385.0332 442.67969 C 386.94594 443.21245 388.76388 444.08761 390.36133 445.26758 C 392.67542 446.97687 394.53391 449.32884 395.53125 452.02734 C 396.77094 455.38171 396.65683 459.10396 397.7832 462.49805 C 398.99329 466.14435 401.57773 469.2042 404.54492 471.64453 C 406.34432 473.12444 408.32255 474.42025 410.50977 475.22266 C 414.79303 476.79421 419.52217 476.3697 424.0293 477.07812 C 428.83172 477.83297 433.41911 479.91628 437.14648 483.03711 C 434.02573 479.30978 431.94231 474.7242 431.1875 469.92188 C 430.4791 465.41478 430.90326 460.68373 429.33203 456.40039 C 428.52956 454.21325 427.2298 452.23697 425.75 450.4375 C 423.30971 447.47023 420.2541 444.88347 416.60742 443.67383 C 413.21329 442.54749 409.48913 442.66355 406.13477 441.42383 C 403.43622 440.42649 401.0823 438.56999 399.37305 436.25586 C 398.19304 434.65837 397.31946 432.83902 396.78711 430.92578 L 396.8125 430.90039 L 396.76172 430.84766 C 396.56896 430.14212 396.42157 429.42436 396.32617 428.69922 C 400.368 432.9575 406.38505 435.25668 412.23633 434.77539 C 418.0876 434.29414 423.65177 431.04317 426.94336 426.18164 C 429.53944 422.34739 430.71914 417.56883 430.15625 412.97266 C 429.66374 408.951 427.83362 405.10208 425.02539 402.1875 C 424.62408 401.77126 424.20158 401.37411 423.76172 400.99805 C 420.59977 398.29474 416.63641 396.74551 412.74414 395.27734 C 408.85179 393.80915 404.87376 392.3312 401.62695 389.73047 C 396.63393 385.7309 393.8512 379.131 394.4707 372.76367 C 391.62706 375.37427 389.42547 378.67765 388.10938 382.30664 C 387.04849 385.23135 386.55934 388.37787 386.81445 391.47852 C 387.06953 394.57913 388.07812 397.63222 389.83008 400.20312 C 391.60237 402.80394 394.06204 404.84142 396.24219 407.11133 C 397.3333 408.24522 398.36331 409.44729 399.18555 410.78906 C 400.00778 412.13083 400.61805 413.61849 400.83008 415.17773 C 400.97786 416.26236 400.93025 417.3813 400.60938 418.42773 C 400.28849 419.47432 399.68776 420.4456 398.84375 421.14258 C 398.11993 421.74023 397.23752 422.12498 396.32812 422.35742 C 395.41882 422.59024 394.478 422.67648 393.54102 422.73242 C 391.91045 422.83024 390.27514 422.82192 388.64453 422.73047 L 374.69531 408.7793 L 380.03711 403.4375 L 368.22852 391.62695 L 362.88477 396.9707 L 307.77148 341.85938 z M 248.33398 401.47852 L 248.33398 479.41797 L 240.77734 479.41797 L 240.77734 496.11914 L 248.33398 496.11914 L 248.33398 515.84766 C 247.24573 517.0655 246.09513 518.22861 244.87305 519.3125 C 244.17086 519.93537 243.44429 520.53909 242.63672 521.01758 C 241.82918 521.49607 240.93441 521.8483 240 521.9375 C 238.91036 522.04151 237.79898 521.77865 236.83203 521.26562 C 235.86511 520.75265 235.03954 519.99626 234.37695 519.125 C 233.42436 517.87243 232.80487 516.38761 232.4375 514.85742 C 232.07013 513.32724 231.94626 511.74912 231.91602 510.17578 C 231.85252 507.02917 232.15223 503.84812 231.56641 500.75586 C 230.98731 497.69913 229.54141 494.82794 227.5293 492.45508 C 225.51727 490.08218 222.94704 488.20282 220.12891 486.88477 C 216.63221 485.24931 212.73956 484.46997 208.88281 484.63477 C 213.82326 488.69911 216.52082 495.33464 215.81836 501.69336 C 215.36153 505.8282 213.59499 509.68611 211.88086 513.47656 C 210.16673 517.26698 208.45909 521.16515 208.13477 525.3125 C 207.77344 529.92885 209.23007 534.65282 212.08203 538.30078 C 214.93398 541.94874 219.14643 544.49361 223.69336 545.36914 C 229.4585 546.47926 235.69017 544.84404 240.16797 541.04688 C 244.64576 537.24969 247.27613 531.36904 247.12305 525.5 C 247.56832 526.08023 247.97123 526.69311 248.33398 527.32812 L 248.33398 527.40039 L 248.375 527.40039 C 249.35142 529.12971 250.01919 531.03405 250.31445 532.99805 C 250.74212 535.84301 250.39239 538.82024 249.18945 541.43359 C 247.69416 544.68211 244.97854 547.23323 243.375 550.42969 C 241.65177 553.86362 241.31875 557.85402 241.69141 561.67773 C 241.91742 563.99652 242.39588 566.31182 243.375 568.42578 C 245.29262 572.56569 248.93892 575.61092 251.625 579.29883 C 254.48706 583.22833 256.25662 587.94478 256.68555 592.78711 C 257.11442 587.9447 258.884 583.2284 261.74609 579.29883 C 264.43219 575.61087 268.07658 572.56569 269.99414 568.42578 C 270.97334 566.31182 271.45575 563.99652 271.68164 561.67773 C 272.05419 557.85402 271.71679 553.86365 269.99414 550.42969 C 268.39064 547.23323 265.67889 544.68211 264.18359 541.43359 C 262.98066 538.82024 262.63093 535.84301 263.05859 532.99805 C 263.35381 531.03412 264.0203 529.12964 264.99609 527.40039 L 265.03711 527.40039 L 265.03711 527.32422 C 265.39915 526.69051 265.79977 526.0791 266.24414 525.5 C 266.09096 531.36904 268.72336 537.24969 273.20117 541.04688 C 277.67895 544.84404 283.91064 546.47926 289.67578 545.36914 C 294.22271 544.49361 298.43906 541.94874 301.29102 538.30078 C 304.14296 534.65282 305.5955 529.92885 305.23438 525.3125 C 304.90994 521.16515 303.2024 517.26698 301.48828 513.47656 C 299.77415 509.68611 298.00562 505.8282 297.54883 501.69336 C 296.84636 495.33464 299.54395 488.69911 304.48438 484.63477 C 300.62762 484.47002 296.735 485.24931 293.23828 486.88477 C 290.42015 488.20282 287.84998 490.08218 285.83789 492.45508 C 283.8258 494.82794 282.38183 497.69913 281.80273 500.75586 C 281.2169 503.84812 281.51658 507.02917 281.45312 510.17578 C 281.42139 511.74912 281.29696 513.32724 280.92969 514.85742 C 280.56243 516.38761 279.94478 517.87243 278.99219 519.125 C 278.32958 519.99626 277.50208 520.75265 276.53516 521.26562 C 275.56822 521.77878 274.4588 522.04144 273.36914 521.9375 C 272.43472 521.8483 271.53803 521.49607 270.73047 521.01758 C 269.92291 520.53909 269.1964 519.93537 268.49414 519.3125 C 267.27279 518.22921 266.12468 517.06673 265.03711 515.84961 L 265.03711 496.11914 L 272.5918 496.11914 L 272.5918 479.41797 L 265.03516 479.41797 L 265.03516 401.47852 L 248.33398 401.47852 z "
       transform="matrix(0.26458333,0,0,0.26458333,-3.063571,-170.63934)"
       id="path2034" />
    <path
       style="fill:none;fill-rule:evenodd;stroke:#000000;stroke-width:2.9104166;stroke-linecap:round;stroke-linejoin:round;stroke-miterlimit:4;stroke-dasharray:none;stroke-opacity:1"
       inkscape:connector-curvature="0"
       d="m 131.31065,-169.18413 -0.30385,94.538457 c -1.47938,37.540972 -30.70868,61.981432 -66.155653,62.002453 -35.41509,-0.0461 -64.65533016,-24.4972 -66.1556502,-62.002453 l -0.30386,-94.538457 H 64.849547 Z"
       id="path10563-0-6-2-6-8"
       sodipodi:nodetypes="ccccccc" />
    <g
       id="g2344" />
    <path
       inkscape:connector-curvature="0"
       style="fill:#ffd700;stroke:#000005;stroke-width:1.32291667;stroke-linecap:round;stroke-linejoin:round;stroke-miterlimit:4;stroke-dasharray:none;stroke-opacity:1;fill-opacity:1"
       d="m 45.71174,-116.92066 c 0.88936,1.66745 1.69396,3.38039 2.40968,5.12941 1.73138,4.23098 2.94015,8.67518 3.59048,13.200224 l 4.78988,-3.480404 4.78989,-3.48093 c -4.10296,-2.01609 -7.95642,-4.53857 -11.44581,-7.49205 -1.44246,-1.22091 -2.82289,-2.51537 -4.13412,-3.87625 z m 38.279323,0 c -1.311238,1.36088 -2.692178,2.65533 -4.134633,3.87625 -3.489389,2.95348 -7.342857,5.47595 -11.445811,7.49205 l 4.789886,3.48093 4.78989,3.480404 c 0.650325,-4.525034 1.8591,-8.969244 3.590478,-13.200224 0.715722,-1.74901 1.520828,-3.46196 2.41019,-5.12941 z M 49.51358,-91.82503 c -3.18576,3.278695 -6.77589,6.163593 -10.66343,8.568986 -1.60704,0.994352 -3.26498,1.907392 -4.96456,2.733683 1.86071,-0.330308 3.73831,-0.56646 5.62292,-0.706416 4.55897,-0.338564 9.15986,-0.113813 13.66428,0.666625 l -1.82987,-5.631698 z m 30.675129,0 -1.829345,5.63118 -1.829345,5.631698 c 4.504418,-0.780438 9.104789,-1.005189 13.663764,-0.666625 1.884603,0.139956 3.762213,0.376108 5.622914,0.706416 -1.699575,-0.826291 -3.357515,-1.739331 -4.964554,-2.733683 -3.887539,-2.405393 -7.477678,-5.290291 -10.663434,-8.568986 z M 58.93006,-76.378944 c 2.13398,4.042897 3.768421,8.34888 4.854999,12.7894 0.449175,1.835634 0.805336,3.694351 1.066086,5.566069 0.260749,-1.871718 0.616397,-3.730435 1.065569,-5.566069 1.08658,-4.44052 2.721541,-8.746503 4.855517,-12.7894 h -5.921086 z"
       id="path2252" />
    <path
       inkscape:connector-curvature="0"
       style="fill:#ff0000;fill-opacity:1;stroke:#00000a;stroke-width:1.32291663;stroke-linecap:round;stroke-linejoin:round;stroke-miterlimit:4;stroke-dasharray:none;stroke-opacity:1"
       d="m 59.92173,-118.53296 c -0.14306,-10e-4 -0.28622,0.002 -0.42943,0.0109 -1.46583,0.0927 -3.1142,0.0554 -4.3124,0.90485 -1.58351,1.12264 -2.645,3.07658 -3.0148,4.98213 -0.299,1.54077 0.18333,3.18566 0.75396,4.64777 0.39896,1.02227 0.88227,2.03429 1.45727,2.98845 -0.72982,-0.84167 -1.54312,-1.61412 -2.3921,-2.30942 -1.21426,-0.99446 -2.62958,-1.96116 -4.18734,-2.15284 -1.92657,-0.23705 -4.11297,0.16891 -5.66994,1.32809 -1.1781,0.87711 -1.65209,2.456 -2.19315,3.82147 -0.42291,1.06727 -0.48689,2.24548 -0.79736,3.3507 -0.34731,1.23612 -0.74465,2.459106 -1.19011,3.663341 -0.39839,1.076841 -1.03886,2.067944 -1.32395,3.180168 -0.36472,1.422757 -0.90952,2.978581 -0.47181,4.380611 0.57845,1.852898 2.10894,3.466512 3.807,4.406966 1.37301,0.760425 3.08607,0.809778 4.65295,0.718817 1.09014,-0.06328 2.19673,-0.209608 3.2768,-0.459401 -1.02063,0.432721 -2.00159,0.96489 -2.92075,1.554427 -1.32113,0.847349 -2.67856,1.894393 -3.34243,3.316592 -0.82103,1.758907 -1.11094,3.963696 -0.48989,5.802746 0.46995,1.391555 1.82561,2.330296 2.95692,3.266985 0.88425,0.732134 1.98477,1.157264 2.93987,1.794206 1.0682,0.712443 2.10856,1.468011 3.11609,2.263944 0.90093,0.711782 1.64522,1.627791 2.61483,2.242756 1.24031,0.786702 2.55176,1.785821 4.02043,1.802993 1.94096,0.0227 3.94829,-0.93413 5.36763,-2.258261 1.147629,-1.070658 1.724455,-2.684603 2.122349,-4.202845 0.279402,-1.066118 0.483544,-2.173904 0.578776,-3.288687 0.09523,1.114783 0.299892,2.222569 0.579292,3.288687 0.397896,1.518242 0.974198,3.132185 2.121836,4.202845 1.419331,1.324131 3.426669,2.28096 5.367629,2.258261 1.468665,-0.01717 2.780633,-1.016294 4.020944,-1.802993 0.969603,-0.614965 1.713381,-1.530974 2.614311,-2.242756 1.007528,-0.79593 2.047896,-1.551498 3.116088,-2.263944 0.955106,-0.636942 2.055622,-1.06207 2.939872,-1.794206 1.131314,-0.936686 2.486983,-1.87543 2.956925,-3.266985 0.621057,-1.839053 0.331134,-4.043839 -0.489892,-5.802746 -0.663868,-1.422199 -2.021302,-2.469243 -3.34243,-3.316592 -0.919158,-0.589537 -1.900116,-1.121706 -2.920752,-1.554427 1.080069,0.249793 2.186665,0.396118 3.276801,0.459401 1.566879,0.09096 3.280463,0.04161 4.653463,-0.718817 1.698053,-0.940454 3.22803,-2.554068 3.806486,-4.406966 0.437703,-1.40203 -0.107082,-2.957854 -0.471805,-4.380611 -0.285091,-1.112224 -0.925557,-2.103327 -1.323951,-3.180168 -0.445466,-1.204235 -0.842793,-2.427221 -1.190109,-3.663341 -0.31047,-1.10523 -0.37446,-2.28343 -0.797367,-3.3507 -0.541057,-1.36547 -1.015042,-2.94436 -2.193147,-3.82147 -1.556967,-1.15918 -3.742859,-1.56514 -5.66942,-1.32809 -1.557766,0.19168 -2.973594,1.15838 -4.18786,2.15284 -0.849823,0.69598 -1.663271,1.46936 -2.393651,2.31201 0.575684,-0.95493 1.060017,-1.96785 1.459342,-2.99104 0.570624,-1.46211 1.052965,-3.107 0.753959,-4.64777 -0.369795,-1.90555 -1.431287,-3.85949 -3.014803,-4.98213 -1.198195,-0.84947 -2.846565,-0.81214 -4.312399,-0.90485 -1.145886,-0.0725 -2.286134,0.23079 -3.433381,0.27698 -1.282949,0.0516 -2.569014,0.0516 -3.851963,0 -1.003683,-0.0404 -2.001993,-0.27772 -3.003433,-0.28784 z"
       id="path2275"
       sodipodi:nodetypes="ccccccsccccccccccccccccccccccsccccccccccscccccccccsscccccc" />
    <path
       inkscape:connector-curvature="0"
       style="fill:#ff0000;stroke:#000005;stroke-width:0.79374999;stroke-linecap:round;stroke-linejoin:round;stroke-miterlimit:4;stroke-dasharray:none;stroke-opacity:1;fill-opacity:1"
       d="m 64.851145,-107.95531 c -0.26075,1.87171 -0.616911,3.73044 -1.066086,5.56607 -0.598178,2.444584 -1.3681,4.846083 -2.290299,7.187672 -2.51194,0.153598 -5.03394,0.144015 -7.54372,-0.04238 -1.88459,-0.139952 -3.76222,-0.375592 -5.62292,-0.705898 1.69957,0.826291 3.35752,1.738821 4.96456,2.733164 2.13997,1.324102 4.18537,2.798689 6.12727,4.399217 -0.63047,2.436225 -1.41885,4.831202 -2.37195,7.160286 -0.71572,1.749012 -1.52031,3.46197 -2.40967,5.129403 1.31123,-1.360866 2.69167,-2.655337 4.13412,-3.876249 1.92118,-1.626121 3.955789,-3.116286 6.078695,-4.468463 2.122908,1.352177 4.158035,2.842342 6.079214,4.468463 1.44245,1.220912 2.822366,2.515383 4.133599,3.876249 -0.889357,-1.667433 -1.693955,-3.380391 -2.409672,-5.129403 -0.953098,-2.329082 -1.741479,-4.724061 -2.371947,-7.160286 1.941896,-1.600528 3.987816,-3.075115 6.12779,-4.399217 1.607037,-0.994343 3.264471,-1.906873 4.964038,-2.733164 -1.860695,0.330306 -3.738314,0.565944 -5.622912,0.705898 -2.509853,0.186394 -5.031724,0.195987 -7.543725,0.04238 -0.922343,-2.341589 -1.692635,-4.743088 -2.290816,-7.187672 -0.449172,-1.83563 -0.80482,-3.69436 -1.065569,-5.56607 z"
       id="path2252-8" />
    <path
       inkscape:connector-curvature="0"
       style="fill:#000000;stroke:#000005;stroke-width:0.26458329px;stroke-linecap:butt;stroke-linejoin:miter;stroke-opacity:1"
       d="m 58.75333,-116.64367 c -0.18404,0.002 -0.36806,0.0118 -0.55242,0.031 -0.98057,0.10226 -1.94274,0.47978 -2.71508,1.13068 -0.96407,0.81248 -1.60395,2.04817 -1.73168,3.34966 -0.0852,0.86827 0.0525,1.75998 0.39377,2.55385 -0.20452,-1.48179 0.2578,-3.05191 1.22008,-4.14497 0.85271,-0.96856 2.06361,-1.54818 3.30523,-1.67483 1.53309,-0.15637 3.04827,0.34085 4.564578,0.62787 0.534186,0.10112 1.072735,0.17512 1.613337,0.22428 0.540612,-0.0492 1.079145,-0.12316 1.613339,-0.22428 1.516308,-0.28702 3.031484,-0.78424 4.564578,-0.62787 1.241618,0.12665 2.453034,0.70627 3.305741,1.67483 0.962285,1.09306 1.424086,2.66318 1.219565,4.14497 0.341331,-0.79387 0.479018,-1.68559 0.393775,-2.55385 -0.127728,-1.3015 -0.767599,-2.53718 -1.731677,-3.34966 -0.772345,-0.6509 -1.734511,-1.02842 -2.71508,-1.13068 -0.184359,-0.0192 -0.368385,-0.029 -0.552421,-0.031 -1.28827,-0.0148 -2.569919,0.35008 -3.855064,0.53382 -0.743016,0.10622 -1.493189,0.14822 -2.242756,0.13332 -0.749568,0.0149 -1.499738,-0.0271 -2.242757,-0.13332 -1.285138,-0.18374 -2.566788,-0.54858 -3.855058,-0.53382 z m -11.93933,8.7328 c -0.97515,-0.0235 -1.94779,0.22924 -2.75073,0.72864 -0.85769,0.53345 -1.51439,1.33143 -1.91462,2.23242 -0.0752,0.1694 -0.14118,0.34184 -0.19998,0.51625 -0.41208,1.22068 -0.46084,2.55226 -0.68317,3.83129 -0.12854,0.739484 -0.32061,1.465736 -0.56637,2.174026 -0.21742,0.717494 -0.489,1.418534 -0.81959,2.092378 -0.57182,1.165495 -1.31516,2.27127 -1.69912,3.501077 -0.055,0.175652 -0.10238,0.354098 -0.14108,0.535369 -0.2057,0.964189 -0.14375,1.995427 0.23668,2.931088 0.47485,1.167937 1.45213,2.158408 2.65049,2.682005 0.79944,0.349337 1.69027,0.494313 2.55075,0.414962 -1.47247,-0.263311 -2.82291,-1.188276 -3.56516,-2.441194 -0.65768,-1.110245 -0.83522,-2.441276 -0.57206,-3.661275 0.32496,-1.506395 1.26616,-2.793595 2.00763,-4.147034 0.26122,-0.476814 0.49776,-0.966068 0.71158,-1.465027 0.12028,-0.529342 0.21636,-1.064744 0.28526,-1.604037 0.19551,-1.530798 0.191,-3.125358 0.81339,-4.535118 0.50408,-1.14174 1.42967,-2.11446 2.61431,-2.6262 1.33688,-0.57748 2.97301,-0.53193 4.31911,0.12041 -0.64958,-0.56988 -1.45524,-0.976 -2.30735,-1.16324 -0.31932,-0.0702 -0.64491,-0.10897 -0.96997,-0.11679 z m 36.074288,0 c -0.325052,0.008 -0.650132,0.0466 -0.969452,0.11679 -0.852112,0.18724 -1.657776,0.59336 -2.307352,1.16324 1.346099,-0.65234 2.982232,-0.69789 4.319116,-0.12041 1.184641,0.51174 2.109719,1.48446 2.613795,2.6262 0.622396,1.40976 0.617871,3.00432 0.813385,4.535118 0.06887,0.539295 0.164981,1.074695 0.285255,1.604037 0.213823,0.498959 0.450363,0.988213 0.711584,1.465027 0.741468,1.353439 1.682673,2.640639 2.007629,4.147034 0.263168,1.219999 0.08619,2.55103 -0.57154,3.661275 -0.742256,1.252918 -2.092676,2.177883 -3.565157,2.441194 0.860489,0.07935 1.75079,-0.06562 2.550232,-0.414962 1.198356,-0.5236 2.176142,-1.514065 2.651,-2.682005 0.380423,-0.935661 0.44187,-1.966899 0.236162,-2.931088 -0.0387,-0.181271 -0.08612,-0.359717 -0.141076,-0.535369 -0.383958,-1.229807 -1.126786,-2.335582 -1.698606,-3.501077 -0.330592,-0.673846 -0.602684,-1.374884 -0.820105,-2.092378 -0.245764,-0.70829 -0.437309,-1.434545 -0.565857,-2.174026 -0.222316,-1.27903 -0.271605,-2.61061 -0.683678,-3.83129 -0.05876,-0.17441 -0.124767,-0.34685 -0.199988,-0.51625 -0.400219,-0.90099 -1.056412,-1.69897 -1.914096,-2.23242 -0.802944,-0.4994 -1.7761,-0.7521 -2.751251,-0.72864 z M 45.02497,-81.50628 c -0.74278,0.441579 -1.37803,1.082027 -1.81953,1.834512 -0.66173,1.127948 -0.87072,2.503419 -0.56844,3.727421 0.24217,0.980588 0.79856,1.851805 1.53169,2.510959 0.13785,0.12391 0.2812,0.240043 0.42891,0.349848 1.03349,0.769258 2.2847,1.227677 3.43235,1.834515 0.66352,0.350861 1.2953,0.757571 1.89291,1.210263 0.61513,0.428582 1.19717,0.904068 1.73581,1.426784 0.93162,0.904118 1.75414,1.952167 2.805,2.697511 0.15005,0.106569 0.30465,0.207399 0.46508,0.300239 0.85336,0.49371 1.85338,0.753626 2.86081,0.681096 1.25753,-0.09053 2.5014,-0.714103 3.36982,-1.691886 0.57938,-0.652283 0.99284,-1.45415 1.18339,-2.297018 -0.70563,1.318946 -2.00255,2.316941 -3.42356,2.635499 -1.25919,0.282271 -2.57981,0.03936 -3.6587,-0.588079 -1.33214,-0.774739 -2.26539,-2.067459 -3.3233,-3.19102 -0.3727,-0.39583 -0.76517,-0.77256 -1.17358,-1.130163 -0.46623,-0.278026 -0.94554,-0.534656 -1.43712,-0.766879 -1.39537,-0.659182 -2.91295,-1.147844 -4.06125,-2.175576 -0.92997,-0.83235 -1.56939,-2.01318 -1.68982,-3.297991 -0.1359,-1.449922 0.41299,-2.991546 1.44953,-4.070035 z m 39.652353,0 c 1.036529,1.078489 1.585421,2.620113 1.449525,4.070035 -0.120433,1.284811 -0.759327,2.465641 -1.689301,3.297991 -1.148297,1.027732 -2.666396,1.516394 -4.061769,2.175576 -0.491583,0.232223 -0.970891,0.48885 -1.437122,0.766879 -0.408413,0.357603 -0.800872,0.734333 -1.173572,1.130163 -1.057913,1.123561 -1.991167,2.416281 -3.32331,3.19102 -1.078878,0.627438 -2.399501,0.87035 -3.658692,0.588079 -1.421009,-0.318558 -2.717935,-1.316553 -3.423563,-2.635499 0.190553,0.842868 0.60402,1.644735 1.183391,2.297018 0.868421,0.977783 2.112291,1.601356 3.369818,1.691886 1.007436,0.07253 2.007447,-0.187386 2.860807,-0.681096 0.160428,-0.09284 0.31555,-0.19367 0.465606,-0.300239 1.050864,-0.745344 1.872856,-1.793393 2.80448,-2.697511 0.538636,-0.522714 1.120677,-0.998202 1.735812,-1.426784 0.597615,-0.452692 1.229387,-0.859404 1.892906,-1.210263 1.147649,-0.606838 2.398861,-1.065257 3.43235,-1.834515 0.147706,-0.109805 0.29106,-0.225938 0.428913,-0.349848 0.733126,-0.659154 1.289521,-1.530371 1.531692,-2.510959 0.302276,-1.224002 0.09332,-2.599473 -0.568442,-3.727421 -0.441494,-0.752485 -1.076745,-1.392933 -1.819529,-1.834512 z"
       id="path2317" />
    <circle
       style="opacity:1;fill:#000000;fill-opacity:1;fill-rule:evenodd;stroke:none;stroke-width:0.26458338;stroke-linecap:round;stroke-linejoin:round;stroke-miterlimit:4;stroke-dasharray:none;stroke-opacity:1;paint-order:fill markers stroke"
       id="path1879-9"
       cx="64.851189"
       cy="-90.581909"
       r="10.858068" />
    <path
       style="fill:none;stroke:#000000;stroke-width:1.32291663;stroke-linecap:round;stroke-linejoin:miter;stroke-miterlimit:4;stroke-dasharray:none;stroke-opacity:1"
       d="m 54.374152,-104.99697 4.902516,6.171165"
       id="path2808"
       inkscape:connector-curvature="0" />
    <path
       style="fill:none;stroke:#000000;stroke-width:1.32291663;stroke-linecap:round;stroke-linejoin:miter;stroke-miterlimit:4;stroke-dasharray:none;stroke-opacity:1"
       d="m 75.326324,-104.9946 -4.505976,5.693359"
       id="path2810"
       inkscape:connector-curvature="0" />
    <path
       style="fill:none;stroke:#000000;stroke-width:1.32291663;stroke-linecap:round;stroke-linejoin:miter;stroke-miterlimit:4;stroke-dasharray:none;stroke-opacity:1"
       d="m 64.851144,-72.775497 v -9.254299"
       id="path2814"
       inkscape:connector-curvature="0" />
    <path
       style="fill:none;stroke:#000000;stroke-width:1.32291663;stroke-linecap:round;stroke-linejoin:miter;stroke-miterlimit:4;stroke-dasharray:none;stroke-opacity:1"
       d="m 47.887321,-85.070353 8.830446,-2.868457"
       id="path2816"
       inkscape:connector-curvature="0" />
    <path
       style="fill:none;stroke:#000000;stroke-width:1.32291663;stroke-linecap:round;stroke-linejoin:miter;stroke-miterlimit:4;stroke-dasharray:none;stroke-opacity:1"
       d="m 81.814968,-85.070358 -8.830446,-2.86846"
       id="path2816-5"
       inkscape:connector-curvature="0" />
    <circle
       style="opacity:1;fill:#0030ff;fill-opacity:1;fill-rule:evenodd;stroke:#000005;stroke-width:0.26458335;stroke-linecap:round;stroke-linejoin:round;stroke-miterlimit:4;stroke-dasharray:none;stroke-opacity:1;paint-order:fill markers stroke"
       id="path1879"
       cx="64.851189"
       cy="-90.581909"
       r="8.5521059" />
  </g>
</svg>
