<?xml version="1.0" encoding="UTF-8"?>
<!-- Created with Inkscape (http://www.inkscape.org/) -->
<svg width="190.32mm" height="234.84mm" version="1.1" viewBox="0 0 190.32 234.84" xmlns="http://www.w3.org/2000/svg">
 <title>Wappen der ehemaligen Gemeinde Becke</title>
 <g transform="translate(150.34 4.1172)">
  <path d="m-130.04 127.87c13.012 0.0572 28.845-9.9756 41.857-10.028 13.023-0.0502 20.828 8.1555 36.968 8.1314 16.828-0.0247 31.033-9.6793 45.413-9.6882 14.235-9e-3 30.766 12.157 44.365 12.257v-131.25h-187.49l-9e-3 126.56c4.2698 0.14028 8.4367 3.9689 18.898 4.0149z" fill="#fff"/>
  <path d="m38.567 128.54c-10.574-0.17691-29.006-12.43-43.672-12.724-14.442-0.28935-33.356 9.6983-46.294 9.7666s-25.828-8.1023-38.105-7.8015c-12.277 0.30083-32.118 10.821-41.622 10.669-9.2824-0.14873-11.351-4.377-17.809-4.5974l-4e-3 11.215c0.0468 52.107 42.026 94.253 93.755 94.253 51.726 0 93.7-42.323 93.7-94.253z" fill="#0f47af"/>
  <g stroke="#000">
   <g fill="#fcdd09" fill-rule="evenodd" stroke-linecap="round" stroke-linejoin="round" stroke-width="1.4063">
    <path d="m-118.08 137.21 28.861-12.767 0.24241 38.383c0.01238 1.9587 0.83114 2.4019 2.6665 2.4019h6.2413l-26.442 16.102 0.16161-43.796z"/>
    <path d="m-32.834 137.34 25.516-13.958v39.574c0 1.9587 0.58185 2.4019 2.4172 2.4019h7.2996l-23.716 14.541v-42.235z"/>
    <path d="m-79.115 177.75 31.152-18.194v44.307c0 1.9587 1.3491 3.0369 3.1845 3.0369h8.3579l-27.445 14.885v-44.037z"/>
   </g>
   <g stroke-width="1.4063">
    <path d="m-63.666 32.632c-1.1023-1.2445-1.4086-2.1476-1.2833-3.6163 1.1023 0.06389 2.2595 0.41892 3.8386 1.9403l4.6453 0.51438c0.48501-2.4796 1.594-5.1334 3.7611-5.9312 2.0138 1.1731 2.6282 3.6729 2.9805 5.6766l3.5957 1.2158c0.78436-1.7562 2.1406-4.3122 3.6327-5.2271 2.2411 1.5205 1.5983 9.7875 1.4385 14.53" fill="none" stroke-linecap="round" stroke-linejoin="round"/>
    <path d="m-62.951 101.07c-2.0781 3.0808-4.7329 5.711-8.9577 7.1146-1.9936-3.8007-0.8918-5.008 0.10277-7.5097-1.9595 2.1632-4.4006 6.7188-7.6761 6.0994-1.1084-2.2043 0.10752-5.9476 1.3545-7.9499-1.8683 2.0087-3.611 2.5509-6.1788 1.7529-0.68162-2.6076-0.30152-5.0657 1.0884-7.2832-2.0882 1.2543-3.9555 1.4111-5.547 0.84749-0.44601-1.9459-0.22719-4.5506 0.26585-6.4294-2.2162-0.57938-4.2952-1.1753-5.7325-2.6511 0.16306-1.6528 0.63466-2.9353 1.1288-4.191-3.1046-0.79531-4.2045-2.1235-4.8144-4.0108 0.58864-1.4773 1.7099-2.6072 3.846-3.0755-1.7551-1.1172-2.9498-2.3126-3.5018-3.6822 1.0851-1.1691 3.0697-2.0908 4.7887-2.6913-1.7512-2.4384-4.273-3.8076-4.3849-6.7802 3.5835-0.40881 6.6238 0.88805 8.5892 4.4569l0.59661-6.0441c-2.3964-2.1932-5.5327-3.8931-7.1713-6.5913 0.26343-0.62757 1.1079-1.2807 1.9745-1.6664-2.8006-1.4538-5.3411-3.8055-6.2413-6.151 0.99145-0.73975 2.5645-0.70178 3.9605-0.60846-2.3294-2.5839-4.5937-5.0326-5.1954-7.8526 2.5204-0.73313 5.597-0.71144 8.3955-0.07691-2.1842-3.8613-3.1697-7.1385-2.7451-10.335 2.3247 0.0689 5.0858 0.50348 9.0868 2.8525-3.8164-2.191-3.7613-8.0957-2.3871-10.25 2.1873 0.498 6.7672 3.0493 10.153 11.391-1.1199-2.1405-2.3596-4.281-1.3858-6.4214 1.5379-0.03591 3.2673 2.0347 5.0739 4.953-2.3913-3.8658-3.5571-6.2465-3.4224-8.9329 1.7137-1.0754 3.6047-1.0862 5.5875-0.54721-1.0984-2.7218-1.9255-5.366-1.1586-7.5549 1.5296-0.43162 3.1911 0.32515 4.9906 2.3209-0.40124-2.7207-1.1589-5.4859 0.50535-7.9481 1.926 0.36224 3.8521 1.2706 5.778 3.5131-0.03273-2.4426 0.70892-4.4204 2.0241-6.0545 1.6515 0.42862 3.0647 1.1677 4.0852 3.2869 0.45903-1.9102 1.0119-3.7452 2.7956-4.5955 1.8305 1.2574 3.5444 2.5815 3.5216 4.898 1.0667-2.4092 2.3676-4.5844 5.5605-4.8673 1.1432 1.944 1.3338 4.4164-0.12746 6.8384 1.7489-1.6805 3.0689-2.6125 5.1395-2.5783 0.19313 2.0816 0.44326 4.0619-1.1526 5.6377 1.8577-1.1453 3.7327-2.17 5.8552-1.4615-0.0809 2.0129 0.10563 4.0256-2.052 6.0386 2.4102-1.2406 4.3146-1.5032 6.6236-1.2286-0.33004 2.3666-0.3619 4.7704-2.7649 6.8778 1.9907-1.3582 4.0317-2.3639 6.2897-1.8516 0.32295 1.9521 0.59732 3.9042-1.7601 5.8563 1.376-1.1369 2.2197-1.2093 3.0697-1.2944 0.0205 0.63939-1.7615 3.2221-2.5493 4.4006 1.2432-1.8328 4.0878-4.4918 6.6627-4.993 0.38761 1.9552 0.12102 3.0271-0.38759 4.1296 2.8485-2.0491 5.6118-3.4187 8.1912-3.3168-0.0223 2.2022-0.53459 4.4043-2.1693 6.6064 2.1288-0.75359 4.0719-0.85783 5.6626 0.27228-0.28223 2.5822-1.4398 4.5574-5.2025 7.1398 0.90358 0.49202 1.5631 1.6564 0.82134 3.3986-0.67392 2.4222-2.3903 4.8445-4.1182 7.2668 1.819-1.6099 3.638-3.7838 5.457-3.0919-0.45165 1.5671-0.45683 2.9109-2.962 5.5049 1.1564-0.11955 2.0094 0.02294 3.1657 1.0622 0.25721 1.3127-0.0787 2.6254-1.969 3.9381 3.1575-1.369 6.11-1.544 9.4295-0.46538-0.4899 2.2394-2.0356 4.1754-4.6786 6.4146 2.6919-0.51525 4.631-0.8395 6.5143 0.26281-1.1885 3.2692-2.8078 7.8272-8.6632 7.2387l-0.58055 1.3477c2.3438 0.80645 4.6164 1.9683 6.6921 4.1161-2.3595 1.6185-4.7188 2.1684-7.0784 2.1726 1.9808 1.2281 3.9431 2.4686 4.3426 4.7509-2.0752 0.97668-4.4032 1.3218-7.0175 0.95007 2.911 1.8269 4.1815 3.8031 4.1262 5.8997-4 0.92782-5.792-0.35203-7.6975-1.5186 0.17393 2.3654 0.77089 4.7308-0.58299 7.0964-3.5211 0.29636-4.9138-2.0677-6.3315-4.4008 0.88223 2.9321 1.408 5.7849-0.10852 8.1838-2.1832-0.14385-3.6007-2.0456-4.7022-3.787 0.95073 4.1373 0.79843 7.5396-1.4798 9.5242-3.1737-1.6852-4.054-4.6212-4.2828-7.9126-0.28597 3.2671-0.11822 6.9882-2.1923 8.4672-1.7933-0.73782-3.1329-2.9916-3.5706-5.5435z" fill="#078930" fill-rule="evenodd" stroke-linecap="round" stroke-linejoin="round"/>
    <path d="m-63.372 124.05c5.0379-19.456-1.3849-31.874-10.494-44.18 5.3205 2.3194 9.1297 4.9461 14.399 9.8359 0.87897-18.047-4.7858-31.75-13.499-43.49 5.5443 1.9633 10.246 6.2746 14.624 12.361 0.57004-11.269-1.1414-21.07-2.834-32.015 4.227 2.9358 6.6363 8.5082 7.8642 18.108 0.43402-8.3963 3.0835-14.003 8.2061-17.858-2.2645 11.557-4.1907 21.746-2.88 32.652 3.9206-4.595 8.8987-9.4176 13.814-10.365-8.5683 11.743-12.575 25.376-10.467 38.087 3.7222-8.1836 9.4287-11.004 15.558-12.757-11.153 11.673-17.768 27.678-10.619 49.493-8.5752 2.2023-15.765 2.6543-23.672 0.12501z" fill="#078930" fill-rule="evenodd"/>
   </g>
   <g fill="none">
    <g stroke-linecap="round">
     <path d="m-40.909 38.44c-0.14856-1.8064-0.6948-2.8543-1.6491-3.42-1.2347 0.47927-2.6238 3.3483-2.2852 5.9947" stroke-linejoin="round" stroke-width="1.4063"/>
     <g stroke-width=".9375">
      <path d="m-60.245 106.03c1.8073 5.897 2.3537 12.396 2.2501 19.126"/>
      <path d="m-60.869 99.408c2.5723 6.3799 5.8296 14.309 5.7502 26.001"/>
      <path d="m-61.745 92.407c3.3599 2.5655 5.6954 6.9432 4.7501 17.125"/>
      <path d="m-57.117 99.532c5.2819 3.1909 5.0141 15.261 5.5002 26.126"/>
      <path d="m-59.493 62.157c2.4343 4.4307 4.4262 12.179 4.8752 31.501"/>
      <path d="m-53.993 59.408c0.17004 15.668 1.986 30.901 0.87503 46"/>
      <path d="m-47.619 40.781c-3.0263 1.1362-2.7432 21.672-2.0017 44.006 0.47673 14.357 0.84955 29.456 1.6267 40.621"/>
      <path d="m-45.367 61.908c-1.9802 10.844-2.5368 18.888-2.2501 32.377"/>
      <path d="m-43.743 124.28c-2.6562-10.358-2.0049-17.946-0.50001-26.625"/>
      <path d="m-55.244 49.155c0.70755 1.9496 1.1047 3.5803 1.4853 5.8857 2.1822-12.499-1.9652-8.3489-1.7353-15.511"/>
     </g>
     <g stroke-linejoin="round" stroke-width="1.4063">
      <path d="m-59.874 81.747c-0.30811-1.8129-1.1593-3.6309-2.7562-4.5434-1.8475 0.73353-2.1273 1.897-2.8665 4.4447-0.15437-3.9283-0.82931-6.6072-2.3306-7.3028-1.4482 0.53941-1.7522 2.7951-2.1582 4.8977 0.15498-1.5271-2.115-11.827-4.1174-12.264-1.8676 0.84772-2.013 2.8437-2.3182 4.7329-1.6024-6.2196-3.3761-9.1845-5.2477-10.289-0.93533 1.0144-1.3718 2.1853-0.20296 5.311-2.0336-2.3705-4.0672-4.1-6.1008-4.3212-1.2127 2.0171-0.15072 5.0292 2.9517 8.9342-2.4525-0.01799-4.3741 0.76047-5.7478 2.3607 1.1936 2.3805 2.943 4.5016 8.1317 5.0176-2.5824 0.28215-4.6458 0.95353-5.084 2.8437 2.4855 3.3226 5.829 3.8992 9.6607 2.9141-1.7989 0.91072-3.6282 1.795-3.324 4.5458 2.0328 1.759 4.4889 2.6008 8.1314 0.87212-2.0378 1.0212-2.8448 2.5039-2.726 4.3339 1.8977 1.8057 4.377 2.6503 7.8081 1.4903-1.6351 1.4817-2.6808 3.3171-2.9678 5.6076 2.4247 1.4351 4.8495 1.109 7.2742 0.40807"/>
      <path d="m-63.311 64.25c-0.70056 1.8693-2.5411 3.0546-4.5739 4.1246-1.0743-1.8127-0.76576-4.4551-0.53152-7.053-0.61309 1.2576-1.1118 2.6106-3.2925 2.562-1.4294-1.8365-0.17962-3.6729 0.10072-5.5097-0.9376 2.1695-2.1851 3.7192-4.1971 3.7402-0.91361-2.2008-0.69691-4.8255 0.54705-7.8351-1.0543 1.4655-2.3347 2.7615-5.5147 2.6326-0.54943-1.4334-0.43376-2.8668 0.36536-4.3003-2.3638 1.4515-4.7006 2.9607-8.9046 0.46924 0.69734-2.239 2.3371-3.3332 5.2303-4.4889-3.2541-0.41725-6.5797-2.4615-7.4385-3.8542 0.99981-1.4438 3.6465-2.1275 8.1521-1.9531-2.4927-3.5827-3.6626-6.9011-2.1208-9.6771 2.5408 0.55454 3.3046 2.2496 6.2532 7.1411-3.7079-6.2346-6.0285-9.6012-5.5441-12.38 3.1935-0.33266 5.9193 1.4192 7.6221 3.442"/>
      <path d="m-60.279 46.449c1.1731-3.4271 0.86045-5.9838-0.29157-8.1642-2.5858 0.94972-3.565 2.7982-4.8522 5.7544 0.52784-4.0121-0.38841-6.0386-2.0123-7.0919-1.6039 0.47646-2.3101 2.2994-2.8472 4.3762-0.71676-3.8092-2.4262-5.6332-4.7593-6.21-1.6877 1.0307-1.4034 3.7515-1.2635 6.3487"/>
      <path d="m-71.349 35.191c-1.4656-2.1925-2.4559-4.9919-2.241-6.6786 1.3597-0.2181 2.8205-0.34644 4.3826 0.10716-0.91175-1.7191-1.4848-3.4383-1.0559-5.1573 1.5005-0.27493 3.0012 0.07327 4.5016 1.2347-1.2184-3.3319-1.6893-6.1656-0.48863-7.8851 2.6532 0.06771 3.9688 2.4762 4.4672 6.3148l1.2769-0.64352c-1.4199-4.7215-1.4336-7.92 0.38172-9.1366 1.9087 0.60867 3.1303 2.1991 3.1541 5.5004 0.0409-2.8736 0.22343-5.7086 3.1731-7.7888 1.6163 1.4052 2.8935 3.2247 2.1122 7.5605 1.745-3.774 3.4819-5.8809 5.7655-6.155 1.655 2.1226 0.35525 5.017-1.2196 8.0761 2.2574-3.434 4.1111-4.0431 5.8325-3.724 0.64513 2.5139-0.56304 4.7956-3.7105 8.9083 3.5152-3.3933 5.3144-5.4901 7.9425-4.2519 0.82605 1.6772 0.39703 3.3544-0.65998 5.0318 1.8984-2.0156 3.7216-3.3549 5.3515-2.9543 0.8677 1.9951-0.88418 4.3177-2.0504 6.567 1.8334-1.7327 3.0723-3.6124 5.8121-3.7944 0.21099 1.9303 0.2214 3.941-0.90043 6.4045"/>
      <path d="m-40.959 94.592c1.1227 1.5449 2.5968 2.3429 4.5664 2.0877 2.0948-1.4003 1.4852-3.5893 1.1247-5.7057 2.148 0.24887 4.296 0.38343 6.4442-0.9293 0.71806-1.8872 0.068-3.5256-0.32038-5.2118 2.1704 0.1741 4.3408 0.27271 6.5111-0.69765-0.4668-2.8435-2.1685-4.699-3.6425-6.7366 3.0393 0.15388 5.6676-0.02823 8.1822-1.7627-0.40322-2.0652-2.0728-3.0337-3.7888-4.1899 3.6039 0.75766 7.1612 1.3804 9.9335-0.25292-0.28313-2.763-2.6148-3.6139-4.3752-4.9985 2.4681-2.7075 3.4375-4.7231 3.1512-6.1592-3.665-0.16723-5.4792 2.5033-7.633 4.6532 2.6911-4.0891 2.9416-6.4953 2.5867-8.4836-3.1332 1.2604-5.4385 4.618-6.9824 9.9047 0.34123-2.1968 5.3e-4 -3.7642-1.0356-4.6895-2.2865 1.2715-3.6774 3.9762-4.3752 7.7896-0.10972-2.8969-0.63759-3.9537-1.2727-4.5389-2.2471 1.0292-3.2872 4.2886-4.0656 7.7772-2.3111-3.0805-3.9476-3.7793-5.0967-3.3742-0.93311 1.5919-0.71252 3.7838 1.0022 6.7527-0.67041-0.37465-1.4876-0.58753-2.7593-0.27578-0.56259 2.5189-0.10519 4.0439 1.2941 6.1653"/>
      <path d="m-47.529 44.118c1.8669 0.64757 3.0991 2.168 3.2732 5.1432 1.3756-4.572 2.9808-8.0539 5.1999-8.6191 1.387 1.5231 0.60685 2.8295-0.0632 4.1468 2.2509-4.0746 4.4172-8.5714 7.4864-8.5548 1.5494 1.8246 0.50112 4.7837-1.122 7.8772 2.2836-3.2832 3.1795-7.22 7.8023-8.554 0.30834 2.2925 0.73321 4.3868-1.0445 7.0964 2.032-2.8583 4.2082-4.9472 6.8712-4.4386 0.23386 2.0614 0.61963 4.0833-4.7159 7.5885 1.6206 0.59367 2.7358 1.4762 2.8766 2.9154-1.2511 2.123-4.0198 2.7284-7.3806 2.7419 1.5482 0.88313 3.438 1.3679 3.787 3.6499l-7.5766 1.2311c1.7743 1.6398 2.0632 3.2798 1.0831 4.9194-2.6442 0.76388-3.8944-0.42386-5.5592-1.0313 0.28819 1.4369 1.477 2.5361 0.23422 4.5471"/>
     </g>
    </g>
    <path d="m38.516 135.07 0.05083-137.78h-187.49l-0.0122 137.78c0.0468 52.107 42.026 94.253 93.755 94.253 51.726 0 93.7-42.323 93.7-94.253z" stroke-linecap="square" stroke-width="2.8125"/>
    <path d="m38.567 128.54c-16.501-0.86992-26.752-11.678-44.371-11.769-17.396-0.0894-32.557 8.9932-45.413 9.0636-12.855 0.0702-25.559-7.937-37.838-7.6557-12.279 0.28125-32.308 10.04-42.018 9.9158-9.4877-0.12145-11.403-3.8314-17.859-4.2423" stroke-width="1.875"/>
   </g>
  </g>
 </g>
</svg>
