<?xml version="1.0" encoding="UTF-8" standalone="no"?>
<!-- Created with Inkscape (http://www.inkscape.org/) -->

<svg
   xmlns:dc="http://purl.org/dc/elements/1.1/"
   xmlns:cc="http://creativecommons.org/ns#"
   xmlns:rdf="http://www.w3.org/1999/02/22-rdf-syntax-ns#"
   xmlns:svg="http://www.w3.org/2000/svg"
   xmlns="http://www.w3.org/2000/svg"
   xmlns:sodipodi="http://sodipodi.sourceforge.net/DTD/sodipodi-0.dtd"
   xmlns:inkscape="http://www.inkscape.org/namespaces/inkscape"
   width="762.3125"
   height="822.00208"
   id="svg4556"
   version="1.1"
   inkscape:version="0.48.4 r9939"
   sodipodi:docname="Wappen von Bergrheinfeld.svg">
  <defs
     id="defs4558">
    <inkscape:path-effect
       is_visible="true"
       id="path-effect3875"
       effect="spiro" />
    <inkscape:path-effect
       is_visible="true"
       id="path-effect3875-7"
       effect="spiro" />
    <inkscape:path-effect
       is_visible="true"
       id="path-effect3904"
       effect="spiro" />
  </defs>
  <sodipodi:namedview
     id="base"
     pagecolor="#ffffff"
     bordercolor="#666666"
     borderopacity="1.0"
     inkscape:pageopacity="0.0"
     inkscape:pageshadow="2"
     inkscape:zoom="0.64233416"
     inkscape:cx="381.15625"
     inkscape:cy="411.00105"
     inkscape:document-units="px"
     inkscape:current-layer="layer1"
     showgrid="false"
     inkscape:window-width="1366"
     inkscape:window-height="745"
     inkscape:window-x="-8"
     inkscape:window-y="-8"
     inkscape:window-maximized="1"
     inkscape:snap-midpoints="true"
     inkscape:snap-smooth-nodes="true"
     inkscape:object-nodes="true"
     fit-margin-top="0"
     fit-margin-left="0"
     fit-margin-right="0"
     fit-margin-bottom="0"
     inkscape:snap-nodes="true" />
  <metadata
     id="metadata4561">
    <rdf:RDF>
      <cc:Work
         rdf:about="">
        <dc:format>image/svg+xml</dc:format>
        <dc:type
           rdf:resource="http://purl.org/dc/dcmitype/StillImage" />
        <dc:title />
      </cc:Work>
    </rdf:RDF>
  </metadata>
  <g
     inkscape:label="Ebene 1"
     inkscape:groupmode="layer"
     id="layer1"
     transform="translate(-6.27289,-115.44003)">
    <path
       style="fill:#ffffff;stroke:none"
       d="m 319.08539,125.44208 c -0.80515,-0.005 -1.57611,0.014 -2.34375,0.0625 -47.2815,2.98435 -79.82434,55.93421 -126.28125,65.21875 -22.20453,4.43764 -67.71875,-5.59375 -67.71875,-5.59375 0,0 -12.78885,52.23798 -29.6875,69.5 -16.1759,16.52373 -76.78125,48.5 -76.78125,48.5 0,0 53.124751,46.78814 67.8125,77.9375 29.81121,63.22277 22.13507,138.04182 34.46875,206.84375 10.21884,57.00452 7.19872,118.65317 32.75,170.625 17.59777,35.79421 46.38632,67.06775 79.28125,89.625 35.38307,24.26346 84.26875,22.08309 120.65625,44.8125 14.12884,8.82557 36.1875,34.46875 36.1875,34.46875 0,0 22.05866,-25.64318 36.1875,-34.46875 36.3875,-22.72941 85.27318,-20.54904 120.65625,-44.8125 32.89493,-22.55725 61.68348,-53.83079 79.28125,-89.625 25.55128,-51.97183 22.53116,-113.62048 32.75,-170.625 12.33368,-68.80193 4.65754,-143.62098 34.46875,-206.84375 14.68775,-31.14936 67.8125,-77.9375 67.8125,-77.9375 0,0 -60.60535,-31.97627 -76.78125,-48.5 -16.89865,-17.26202 -29.6875,-69.5 -29.6875,-69.5 0,0 -45.51422,10.03139 -67.71875,5.59375 -46.45691,-9.28454 -78.99975,-62.2344 -126.28125,-65.21875 -24.56444,-1.55048 -69.34375,25.34375 -69.34375,25.34375 l -1.34375,-0.15625 -1.34375,0.15625 c 0,0 -42.04049,-25.23735 -67,-25.40625 z"
       id="path11229-4"
       inkscape:connector-curvature="0"
       sodipodi:nodetypes="ssscscssssscssssscscsscccs" />
    <path
       style="fill:#d70429;fill-opacity:1;stroke:#000000;stroke-width:5;stroke-linecap:butt;stroke-linejoin:round;stroke-miterlimit:4;stroke-opacity:1;stroke-dasharray:none"
       d="m 393.1875,57.375 c -15.10761,6.771395 -27.28125,14.0625 -27.28125,14.0625 l -0.75,-0.09375 L 364.5625,597.625 408.96875,269 453.375,597.625 497.75,269 542.125,597.625 586.53125,269 l 38.75,286.96875 1.84375,-7.78125 6.625,-59.5 1.96875,-8.40625 28.82047,-164.84252 71.17953,-91.71998 -86.375,-62.4375 C 637.43828,139.07 629.25,105.71875 629.25,105.71875 c 0,0 -45.51422,10.03139 -67.71875,5.59375 -33.76779,-6.74858 -60.18133,-36.568453 -90.25,-53.5 z"
       transform="translate(22.86664,79.41083)"
       id="path39655"
       inkscape:connector-curvature="0"
       sodipodi:nodetypes="cccccccccccccccccscc" />
    <path
       style="fill:#0f47af;fill-opacity:1;stroke:#000000;stroke-width:1px;stroke-linecap:butt;stroke-linejoin:miter;stroke-opacity:1"
       d="m 246,65.1875 c -25.39237,17.09954 -49.1333,40.27472 -78.40625,46.125 -22.20452,4.43764 -67.71875,-5.59375 -67.71875,-5.59375 0,0 -12.78885,52.23798 -29.6875,69.5 -7.618915,7.78274 -25.080764,18.9732 -41.4375,28.65625 l -35.34375,19.84375 39.125,38.75 c 11.771794,13.02258 23.055943,27.24425 28.6875,39.1875 29.81121,63.22277 22.13507,138.04182 34.46875,206.84375 10.21884,57.00452 7.19872,118.65317 32.75,170.625 17.59777,35.79421 46.38633,67.06775 79.28125,89.625 33.76882,23.1565 79.82963,22.24974 115.59375,41.875 l 3.1875,0.46875 10.0625,3.09375 27.28125,0.71875 2.71875,-743.84375 c -0.14873,0.08817 -0.65625,0.375 -0.65625,0.375 l -1.34375,-0.15625 -1.34375,0.15625 c 0,0 -2.95919,-1.74239 -7.6875,-4.3125 l -59.3125,-21.09375 z"
       transform="translate(22.86664,79.41083)"
       id="path39660"
       inkscape:connector-curvature="0"
       sodipodi:nodetypes="cscscccssssccccccccccc" />
    <path
       style="fill:#078930;stroke:#000000;stroke-width:1px;stroke-linecap:butt;stroke-linejoin:miter;stroke-opacity:1;fill-opacity:1"
       d="m 10,187.68955 63.298268,60 63.686712,-48.5 24.62448,-69.5 56.16977,5.59375 106.68885,-65.28125 56.13087,25.32812 59.1895,-25.26562 104.74482,65.21875 56.16976,-5.59375 24.62448,69.5 63.68672,48.5 63.29827,-60 -76.78125,-48.5 -29.6875,-69.5 L 578.125,75.2833 451.84375,10.06455 382.5,35.4083 310.46875,10.06455 184.1875,75.2833 l -67.71875,-5.59375 -29.6875,69.5 z"
       id="path20237"
       inkscape:connector-curvature="0"
       transform="translate(6.27289,115.44003)" />
    <path
       style="fill:#ffffff;fill-opacity:1;stroke:#000000;stroke-width:5;stroke-linecap:square;stroke-linejoin:round;stroke-miterlimit:4;stroke-opacity:1;stroke-dasharray:none;stroke-dashoffset:0"
       d="m 364.71875,137.03125 -272.4375,348.75 c 0.0013,0.0102 -0.0013,0.021 0,0.0312 0.942992,7.615 2.062677,15.19254 3.40625,22.6875 8.69045,48.4786 7.83699,100.29962 23.09375,146.6875 L 132.875,637.125 362.5625,343.0625 364.71875,137.03125 z"
       transform="translate(22.86664,79.41083)"
       id="rect39662"
       inkscape:connector-curvature="0" />
    <path
       sodipodi:type="arc"
       style="fill:#0f47af;fill-opacity:1;fill-rule:nonzero;stroke:#000000;stroke-width:4.73983955;stroke-linecap:square;stroke-linejoin:round;stroke-miterlimit:4;stroke-opacity:1;stroke-dasharray:none;stroke-dashoffset:0"
       id="path39670"
       sodipodi:cx="-717.16071"
       sodipodi:cy="526.76703"
       sodipodi:rx="40.80278"
       sodipodi:ry="40.111206"
       d="m -676.35793,526.76703 c 0,22.15281 -18.26802,40.1112 -40.80278,40.1112 -22.53475,0 -40.80278,-17.95839 -40.80278,-40.1112 0,-22.15281 18.26803,-40.11121 40.80278,-40.11121 22.53476,0 40.80278,17.9584 40.80278,40.11121 z"
       transform="matrix(1.0459102,0,0,1.0639432,929.46367,22.60226)" />
    <path
       sodipodi:type="arc"
       style="fill:#ffffff;fill-opacity:1;fill-rule:nonzero;stroke:#000000;stroke-width:12.67891884;stroke-linecap:square;stroke-linejoin:round;stroke-miterlimit:4;stroke-opacity:1;stroke-dasharray:none;stroke-dashoffset:0"
       id="path39670-0"
       sodipodi:cx="-717.16071"
       sodipodi:cy="526.76703"
       sodipodi:rx="40.80278"
       sodipodi:ry="40.111206"
       d="m -676.35793,526.76703 c 0,22.15281 -18.26802,40.1112 -40.80278,40.1112 -22.53475,0 -40.80278,-17.95839 -40.80278,-40.1112 0,-22.15281 18.26803,-40.11121 40.80278,-40.11121 22.53476,0 40.80278,17.9584 40.80278,40.11121 z"
       transform="matrix(0.39099918,0,0,0.39774056,459.78725,373.53585)" />
    <path
       sodipodi:type="arc"
       style="fill:#0f47af;fill-opacity:1;fill-rule:nonzero;stroke:#000000;stroke-width:4.73983955;stroke-linecap:square;stroke-linejoin:round;stroke-miterlimit:4;stroke-opacity:1;stroke-dasharray:none;stroke-dashoffset:0"
       id="path39670-1"
       sodipodi:cx="-717.16071"
       sodipodi:cy="526.76703"
       sodipodi:rx="40.80278"
       sodipodi:ry="40.111206"
       d="m -676.35793,526.76703 c 0,22.15281 -18.26802,40.1112 -40.80278,40.1112 -22.53475,0 -40.80278,-17.95839 -40.80278,-40.1112 0,-22.15281 18.26803,-40.11121 40.80278,-40.11121 22.53476,0 40.80278,17.9584 40.80278,40.11121 z"
       transform="matrix(1.0459102,0,0,1.0639432,1006.4089,-78.629536)" />
    <path
       sodipodi:type="arc"
       style="fill:#ffffff;fill-opacity:1;fill-rule:nonzero;stroke:#000000;stroke-width:12.67891884;stroke-linecap:square;stroke-linejoin:round;stroke-miterlimit:4;stroke-opacity:1;stroke-dasharray:none;stroke-dashoffset:0"
       id="path39670-0-4"
       sodipodi:cx="-717.16071"
       sodipodi:cy="526.76703"
       sodipodi:rx="40.80278"
       sodipodi:ry="40.111206"
       d="m -676.35793,526.76703 c 0,22.15281 -18.26802,40.1112 -40.80278,40.1112 -22.53475,0 -40.80278,-17.95839 -40.80278,-40.1112 0,-22.15281 18.26803,-40.11121 40.80278,-40.11121 22.53476,0 40.80278,17.9584 40.80278,40.11121 z"
       transform="matrix(0.39099918,0,0,0.39774056,536.73244,272.30406)" />
    <path
       sodipodi:type="arc"
       style="fill:#0f47af;fill-opacity:1;fill-rule:nonzero;stroke:#000000;stroke-width:4.73983955;stroke-linecap:square;stroke-linejoin:round;stroke-miterlimit:4;stroke-opacity:1;stroke-dasharray:none;stroke-dashoffset:0"
       id="path39670-07"
       sodipodi:cx="-717.16071"
       sodipodi:cy="526.76703"
       sodipodi:rx="40.80278"
       sodipodi:ry="40.111206"
       d="m -676.35793,526.76703 c 0,22.15281 -18.26802,40.1112 -40.80278,40.1112 -22.53475,0 -40.80278,-17.95839 -40.80278,-40.1112 0,-22.15281 18.26803,-40.11121 40.80278,-40.11121 22.53476,0 40.80278,17.9584 40.80278,40.11121 z"
       transform="matrix(1.0459102,0,0,1.0639432,1085.2223,-177.99313)" />
    <path
       sodipodi:type="arc"
       style="fill:#ffffff;fill-opacity:1;fill-rule:nonzero;stroke:#000000;stroke-width:12.67891884;stroke-linecap:square;stroke-linejoin:round;stroke-miterlimit:4;stroke-opacity:1;stroke-dasharray:none;stroke-dashoffset:0"
       id="path39670-0-1"
       sodipodi:cx="-717.16071"
       sodipodi:cy="526.76703"
       sodipodi:rx="40.80278"
       sodipodi:ry="40.111206"
       d="m -676.35793,526.76703 c 0,22.15281 -18.26802,40.1112 -40.80278,40.1112 -22.53475,0 -40.80278,-17.95839 -40.80278,-40.1112 0,-22.15281 18.26803,-40.11121 40.80278,-40.11121 22.53476,0 40.80278,17.9584 40.80278,40.11121 z"
       transform="matrix(0.39099918,0,0,0.39774056,615.54584,172.94047)" />
    <path
       style="fill:none;stroke:#000000;stroke-width:5;stroke-linecap:butt;stroke-linejoin:miter;stroke-miterlimit:4;stroke-opacity:1;stroke-dasharray:none"
       d="m 387.42914,156.29478 0,778.64729"
       id="path3069"
       inkscape:connector-curvature="0" />
    <path
       style="fill:#fcdd09;fill-opacity:1;stroke:#000000;stroke-width:5;stroke-linecap:square;stroke-linejoin:round;stroke-miterlimit:4;stroke-opacity:1;stroke-dasharray:none;stroke-dashoffset:0"
       d="m 387.44476,718.12552 c -25.6373,0 -46.4375,20.76891 -46.4375,46.40625 0,10.54343 7.8437,18.32308 9.4375,28.0625 1.2499,7.63798 1.4366,15.61367 0,23.21875 -0.5565,2.94618 -1.3868,6.05102 -3.2812,8.375 -1.413,1.73336 -3.481,3.02066 -5.625,3.65625 -2.7365,0.8112 -5.9425,1.13206 -8.5625,0 -5.1344,-2.21842 -7.7935,-8.03012 -11.5,-12.21875 -13.0634,-14.76235 -6.0947,-44.80724 -37.8126,-45.46875 -19.67012,0 -35.62495,15.92358 -35.62495,35.59375 0,8.02251 4.58135,14.30845 7.125,21.375 2.16008,6.00095 5.08571,11.73942 6.90625,17.84375 1.70746,5.7252 2.4404,11.73728 3.4375,17.65625 l 35.625,12.09375 86.29688,52.72281 15.77242,-18.71239 66.58701,-33.88542 39.75,-13.25 c 0.9138,-5.5836 1.64169,-11.23238 3.25,-16.625 1.8205,-6.10433 4.7461,-11.8428 6.90619,-17.84375 2.5436,-7.06655 7.125,-13.35249 7.125,-21.375 0,-19.67017 -15.9548,-35.59375 -35.625,-35.59375 -36.4274,3.00045 -24.7492,30.7064 -37.8125,45.46875 -3.7066,4.18863 -6.3656,10.00033 -11.5,12.21875 -2.6201,1.13206 -5.826,0.8112 -8.5625,0 -2.1441,-0.63559 -4.212,-1.92289 -5.625,-3.65625 -1.89439,-2.32398 -2.7247,-5.42882 -3.28119,-8.375 -1.4367,-7.60508 -1.25,-15.58077 0,-23.21875 1.5938,-9.73942 9.4375,-17.51907 9.4375,-28.0625 0,-25.63734 -20.769,-46.40625 -46.40631,-46.40625 z"
       id="path39729"
       inkscape:connector-curvature="0"
       sodipodi:nodetypes="ssasssaacsssccccccsascaasssass" />
    <path
       style="fill:none;stroke:#000000;stroke-width:20;stroke-linecap:butt;stroke-linejoin:round;stroke-miterlimit:4;stroke-opacity:1;stroke-dasharray:none"
       d="m 296.21875,46.03125 c -0.80515,-0.0054 -1.57611,0.01405 -2.34375,0.0625 -47.2815,2.98435 -79.82434,55.93421 -126.28125,65.21875 -22.20453,4.43764 -67.71875,-5.59375 -67.71875,-5.59375 0,0 -12.788853,52.23798 -29.6875,69.5 -16.1759,16.52373 -76.78125,48.5 -76.78125,48.5 0,0 53.124751,46.78814 67.8125,77.9375 29.811207,63.22277 22.13507,138.04182 34.46875,206.84375 10.21884,57.00452 7.19872,118.65317 32.75,170.625 17.59777,35.79421 46.38632,67.06775 79.28125,89.625 35.38307,24.26346 84.26875,22.08309 120.65625,44.8125 14.12884,8.82557 36.1875,34.46875 36.1875,34.46875 0,0 22.05866,-25.64318 36.1875,-34.46875 36.3875,-22.72941 85.27318,-20.54904 120.65625,-44.8125 32.89493,-22.55725 61.68348,-53.83079 79.28125,-89.625 25.55128,-51.97183 22.53116,-113.62048 32.75,-170.625 12.33368,-68.80193 4.65754,-143.62098 34.46875,-206.84375 14.68775,-31.14936 67.8125,-77.9375 67.8125,-77.9375 0,0 -60.60535,-31.97627 -76.78125,-48.5 -16.89865,-17.26202 -29.6875,-69.5 -29.6875,-69.5 0,0 -45.51422,10.03139 -67.71875,5.59375 C 515.07434,102.02796 482.5315,49.0781 435.25,46.09375 410.68556,44.54327 365.90625,71.4375 365.90625,71.4375 l -1.34375,-0.15625 -1.34375,0.15625 c 0,0 -42.04049,-25.237354 -67,-25.40625 z"
       transform="translate(22.86664,79.41083)"
       id="path11229"
       inkscape:connector-curvature="0"
       sodipodi:nodetypes="ssscscssssscssssscscsscccs" />
    <path
       style="fill:none;stroke:#000000;stroke-width:20;stroke-linecap:round;stroke-linejoin:round;stroke-miterlimit:4;stroke-opacity:1;stroke-dasharray:none"
       d="m 79.571158,363.12958 c 0,0 47.404292,-25.45536 63.686712,-48.5 13.54982,-19.17718 24.62448,-69.5 24.62448,-69.5 0,0 37.85492,10.63981 56.16977,5.59375 24.51903,-6.75543 42.36644,-32.98799 65.03458,-46.125 13.39355,-7.76205 26.7937,-19.09999 41.65427,-19.15625 19.97776,-0.0756 56.13087,25.32812 56.13087,25.32812 0,0 38.30819,-26.98567 59.1895,-25.26562 39.20501,3.22942 66.20968,55.9387 104.74482,65.21875 18.42307,4.43665 56.16976,-5.59375 56.16976,-5.59375 0,0 11.07467,50.32282 24.62448,69.5 16.28242,23.04464 63.68672,48.5 63.68672,48.5"
       id="path20229"
       inkscape:connector-curvature="0"
       sodipodi:nodetypes="cacaaacaacac" />
    <path
       style="fill:none;stroke:#000000;stroke-width:20;stroke-linecap:round;stroke-linejoin:miter;stroke-opacity:1;stroke-miterlimit:4;stroke-dasharray:none"
       d="m 161.60946,129.68955 -45.14071,-60"
       id="path20231"
       inkscape:connector-curvature="0"
       transform="translate(6.27289,115.44003)" />
    <path
       style="fill:none;stroke:#000000;stroke-width:20;stroke-linecap:round;stroke-linejoin:miter;stroke-opacity:1;stroke-miterlimit:4;stroke-dasharray:none"
       d="M 380.59895,95.33017 380.48437,35.330175"
       id="path20233"
       inkscape:connector-curvature="0"
       transform="translate(6.27289,115.44003)" />
    <path
       style="fill:none;stroke:#000000;stroke-width:20;stroke-linecap:round;stroke-linejoin:miter;stroke-opacity:1;stroke-miterlimit:4;stroke-dasharray:none"
       d="m 600.70303,129.68955 45.14072,-60"
       id="path20235"
       inkscape:connector-curvature="0"
       transform="translate(6.27289,115.44003)" />
  </g>
</svg>
