<?xml version="1.0" encoding="UTF-8" standalone="no"?>
<!-- Created with Inkscape (http://www.inkscape.org/) -->
<svg
   xmlns:svg="http://www.w3.org/2000/svg"
   xmlns="http://www.w3.org/2000/svg"
   xmlns:xlink="http://www.w3.org/1999/xlink"
   version="1.0"
   width="736"
   height="840"
   id="svg2440"
   style="display:inline">
  <defs
     id="defs2443" />
  <g
     transform="translate(1.7355372,3.4710743)"
     id="layer1"
     style="display:inline">
    <g
       id="g3522">
      <path
         d="M 366.26446,34.704082 L 704.76033,34.704082 L 680.48525,538.34638 C 676.27691,650.59405 536.84087,815.09106 366.26446,812.02618 C 195.68805,808.9613 56.252016,650.60071 52.043682,538.35304 L 27.768595,34.710744 L 366.26446,34.710744"
         id="path2502"
         style="fill:#ffffff;fill-rule:evenodd;stroke:#000000;stroke-width:20;stroke-linecap:butt;stroke-linejoin:miter;stroke-miterlimit:4;stroke-dasharray:none;stroke-opacity:1" />
      <g
         id="g3499">
        <path
           d="M 72.102849,72.948417 C 122.20658,101.67889 174.00173,128.45877 261.56459,137.38075 C 279.5872,243.48287 287.06956,323.97672 395.79862,458.00831 L 326.76397,528.57706 C 96.308416,385.41007 65.971787,230.27016 72.102849,72.948417 z"
           transform="translate(-1.7355372,-3.4710743)"
           id="path3279"
           style="fill:#000000;fill-rule:evenodd;stroke:#000000;stroke-width:1px;stroke-linecap:butt;stroke-linejoin:miter;stroke-opacity:1" />
        <rect
           width="15.881813"
           height="15.845222"
           x="294.04565"
           y="461.11041"
           transform="matrix(0.9998705,-1.6090377e-2,1.6090377e-2,0.9998705,0,0)"
           id="rect3281"
           style="opacity:1;fill:#ffffff;fill-opacity:1;stroke:none;stroke-width:20;stroke-linecap:butt;stroke-linejoin:bevel;stroke-miterlimit:4;stroke-dasharray:none;stroke-dashoffset:0;stroke-opacity:1" />
        <path
           d="M 88.977984,111.301 C 86.801623,168.14243 93.771084,222.16975 118.12594,270.84773"
           transform="translate(-1.7355372,-3.4710743)"
           id="path3283"
           style="fill:none;fill-rule:evenodd;stroke:#ffffff;stroke-width:5;stroke-linecap:butt;stroke-linejoin:miter;stroke-miterlimit:4;stroke-dasharray:none;stroke-opacity:1" />
        <path
           d="M 121.19415,285.42171 C 140.66965,332.39731 168.23737,374.95897 210.17213,409.68406"
           transform="translate(-1.7355372,-3.4710743)"
           id="path3285"
           style="fill:none;fill-rule:evenodd;stroke:#ffffff;stroke-width:5;stroke-linecap:butt;stroke-linejoin:miter;stroke-miterlimit:4;stroke-dasharray:none;stroke-opacity:1" />
        <path
           d="M 220.1438,420 L 263.09869,456.47421"
           transform="translate(-1.7355372,-3.4710743)"
           id="path3287"
           style="fill:none;fill-rule:evenodd;stroke:#ffffff;stroke-width:5;stroke-linecap:butt;stroke-linejoin:miter;stroke-miterlimit:4;stroke-dasharray:none;stroke-opacity:1" />
        <path
           d="M 329.06513,394.34303 C 319.49603,380.5361 310.51752,366.72917 302.98538,352.92224"
           transform="translate(-1.7355372,-3.4710743)"
           id="path3289"
           style="opacity:1;fill:none;fill-rule:evenodd;stroke:#ffffff;stroke-width:5;stroke-linecap:butt;stroke-linejoin:miter;stroke-miterlimit:4;stroke-dasharray:none;stroke-opacity:1" />
        <path
           d="M 289.9455,322.24018 C 280.69008,309.78829 276.45498,296.08133 275.37152,281.58645"
           transform="translate(-1.7355372,-3.4710743)"
           id="path3291"
           style="fill:none;fill-rule:evenodd;stroke:#ffffff;stroke-width:5;stroke-linecap:butt;stroke-linejoin:miter;stroke-miterlimit:4;stroke-dasharray:none;stroke-opacity:1" />
        <path
           d="M 268.46805,250.13733 C 261.7421,237.57571 256.80942,223.81857 256.19523,207.18244"
           transform="translate(-1.7355372,-3.4710743)"
           id="path3293"
           style="fill:none;fill-rule:evenodd;stroke:#ffffff;stroke-width:5;stroke-linecap:butt;stroke-linejoin:miter;stroke-miterlimit:4;stroke-dasharray:none;stroke-opacity:1" />
        <path
           d="M 252.35997,189.54026 L 249.29176,159.62525"
           transform="translate(-1.7355372,-3.4710743)"
           id="path3295"
           style="fill:none;fill-rule:evenodd;stroke:#ffffff;stroke-width:5;stroke-linecap:butt;stroke-linejoin:miter;stroke-miterlimit:4;stroke-dasharray:none;stroke-opacity:1" />
        <path
           d="M 88.977984,96.727016 C 131.40121,127.71015 185.90528,145.51417 250.82587,151.95473"
           transform="translate(-1.7355372,-3.4710743)"
           id="path3297"
           style="fill:none;fill-rule:evenodd;stroke:#ffffff;stroke-width:5;stroke-linecap:butt;stroke-linejoin:miter;stroke-miterlimit:4;stroke-dasharray:none;stroke-opacity:1" />
        <path
           d="M 402.24928,461.51862 L 410.97421,470.84527 L 341.47565,541.84814 L 330.34384,533.42407 L 402.24928,461.51862 z"
           transform="translate(-1.7355372,-3.4710743)"
           id="path3303"
           style="fill:#000000;fill-rule:evenodd;stroke:#000000;stroke-width:1px;stroke-linecap:butt;stroke-linejoin:miter;stroke-opacity:1" />
        <path
           d="M 424.81375,467.53582 C 425.60978,466.83361 429.54048,466.33177 432.01452,468.41978 C 434.3874,470.42241 435.18245,475.25034 433.83954,476.5616 L 350.80229,561.10315 C 349.45267,562.10909 345.4792,562.86986 342.8846,560.74261 C 340.06889,558.43407 341.01578,553.57361 342.07736,552.67908 L 424.81375,467.53582 z"
           transform="translate(-1.7355372,-3.4710743)"
           id="path3305"
           style="fill:#000000;fill-rule:evenodd;stroke:#000000;stroke-width:1px;stroke-linecap:butt;stroke-linejoin:miter;stroke-opacity:1" />
        <path
           d="M 427.49952,490.32252 L 435.4223,498.7917 L 372.31325,563.26676 L 362.20487,555.61717 L 427.49952,490.32252 z"
           id="path3307"
           style="fill:#000000;fill-rule:evenodd;stroke:#000000;stroke-width:0.9080627px;stroke-linecap:butt;stroke-linejoin:miter;stroke-opacity:1" />
        <path
           d="M 440.97603,507.71525 L 378.86673,569.82455 C 412.23889,596.83643 443.50435,625.95501 463.23186,666.61154 C 446.02547,680.349 435.94604,710.38283 460.64397,736.4845 C 485.58976,764.83579 556.54803,726.58392 547.07942,660.40061 C 531.14385,602.77895 492.74318,552.93367 440.97603,507.71525 z"
           transform="translate(-1.7355372,-3.4710743)"
           id="path3309"
           style="fill:#000000;fill-rule:evenodd;stroke:#000000;stroke-width:1px;stroke-linecap:butt;stroke-linejoin:miter;stroke-opacity:1" />
        <path
           d="M 465.04338,680.06855 C 443.3902,710.41207 474.13727,740.98642 499.97986,733.37903"
           transform="translate(-1.7355372,-3.4710743)"
           id="path3311"
           style="fill:none;fill-rule:evenodd;stroke:#ffffff;stroke-width:3.125;stroke-linecap:butt;stroke-linejoin:miter;stroke-miterlimit:4;stroke-dasharray:none;stroke-opacity:1" />
        <path
           d="M 497.80377,618.07318 C 493.31443,619.15228 489.33878,626.75671 492.81477,630.63734 C 496.27345,634.49866 501.8921,629.9178 504.63971,627.414"
           transform="translate(-1.7355372,-3.4710743)"
           id="path3313"
           style="fill:none;fill-rule:evenodd;stroke:#ffffff;stroke-width:2.5;stroke-linecap:butt;stroke-linejoin:miter;stroke-miterlimit:4;stroke-dasharray:none;stroke-opacity:1" />
        <use
           transform="translate(-31.717973,-29.895101)"
           id="use3315"
           x="0"
           y="0"
           width="736"
           height="840"
           xlink:href="#path3313" />
        <use
           transform="translate(-63.800521,-63.435947)"
           id="use3317"
           x="0"
           y="0"
           width="736"
           height="840"
           xlink:href="#path3313" />
        <path
           d="M 397.3861,566.93377 C 424.31665,590.69065 450.98631,614.93668 470.30098,652.97333"
           transform="translate(-1.7355372,-3.4710743)"
           id="path3319"
           style="fill:none;fill-rule:evenodd;stroke:#ffffff;stroke-width:3.125;stroke-linecap:butt;stroke-linejoin:miter;stroke-miterlimit:4;stroke-dasharray:none;stroke-opacity:1" />
        <use
           transform="translate(26.174785,-27.378224)"
           id="use3321"
           style="opacity:1"
           x="0"
           y="0"
           width="736"
           height="840"
           xlink:href="#rect3281" />
        <use
           transform="translate(34.448424,5.5659026)"
           id="use3323"
           style="opacity:1"
           x="0"
           y="0"
           width="736"
           height="840"
           xlink:href="#rect3281" />
      </g>
      <g
         id="g3465">
        <path
           d="M 488.92787,70.259698 L 654.5112,70.259698 L 642.63646,316.62834 C 640.57786,371.53697 572.3694,452.0046 488.92787,450.50535 C 405.48636,449.00609 337.2779,371.54023 335.21928,316.6316 L 323.34456,70.262959 L 488.92787,70.262959"
           id="path3277"
           style="opacity:1;fill:#aac4ff;fill-opacity:1;fill-rule:evenodd;stroke:#000000;stroke-width:9.78347683;stroke-linecap:butt;stroke-linejoin:miter;stroke-miterlimit:4;stroke-dasharray:none;stroke-opacity:1" />
        <g
           id="g3433">
          <path
             d="M 641.49481,308.15167 L 537.93162,323.34754 L 491.73806,417.27519 L 445.28315,323.47653 L 341.67805,308.56909 L 416.53052,235.40245 L 398.6926,132.26149 L 491.40889,180.84069 L 583.98955,132.00352 L 566.4389,235.19374 L 641.49481,308.15167 z"
             transform="translate(-2.658549,-3.4710743)"
             id="path3370"
             style="opacity:1;fill:#ffff00;fill-opacity:1;stroke:#000000;stroke-width:2.875;stroke-linecap:butt;stroke-linejoin:bevel;stroke-miterlimit:4;stroke-dasharray:none;stroke-dashoffset:0;stroke-opacity:1" />
          <path
             d="M 450.05854,184.85532 C 431.91246,168.84396 413.23631,156.09912 423.71493,132.58693 C 432.21274,121.79443 451.81328,116.81765 473.4309,112.89743 C 481.1903,110.44215 485.15842,105.51387 490.81109,105.53517 C 496.46377,105.55648 500.43189,110.48476 508.19129,112.94004 C 529.80891,116.86026 549.40945,121.83704 557.90726,132.62954 C 568.38588,156.14173 549.70973,168.88657 531.56365,184.89793"
             id="path3333"
             style="opacity:1;fill:#ffff00;fill-rule:evenodd;stroke:#000000;stroke-width:2.875;stroke-linecap:round;stroke-linejoin:miter;stroke-miterlimit:4;stroke-dasharray:none;stroke-opacity:1" />
          <use
             transform="matrix(0.309017,0.9510565,-0.9510565,0.309017,578.70905,-291.88668)"
             id="use3360"
             style="opacity:1"
             x="0"
             y="0"
             width="1"
             height="1"
             xlink:href="#path3333" />
          <use
             transform="matrix(-0.809017,0.5877853,-0.5877853,-0.809017,1034.6097,169.4731)"
             id="use3362"
             style="opacity:1"
             x="0"
             y="0"
             width="1"
             height="1"
             xlink:href="#path3333" />
          <use
             transform="matrix(-0.809017,-0.5877853,0.5877853,-0.809017,738.35407,746.45619)"
             id="use3364"
             style="opacity:1"
             x="0"
             y="0"
             width="1"
             height="1"
             xlink:href="#path3333" />
          <use
             transform="matrix(0.309017,-0.9510565,0.9510565,0.309017,97.23168,641.69148)"
             id="use3366"
             style="opacity:1"
             x="0"
             y="0"
             width="1"
             height="1"
             xlink:href="#path3333" />
          <path
             d="M 490.88846,197.2449 L 502.99355,242.99097 L 550.24132,240.36728 L 510.4749,266.01621 L 527.57054,310.14075 L 490.88846,280.2466 L 454.20637,310.14075 L 471.30202,266.01621 L 431.5356,240.36728 L 478.78337,242.99097 L 490.88846,197.2449 z"
             transform="translate(-1.9605788,-3.4710743)"
             id="path3372"
             style="opacity:1;fill:#ffffff;fill-opacity:1;stroke:#000000;stroke-width:2.875;stroke-linecap:butt;stroke-linejoin:bevel;stroke-miterlimit:4;stroke-dasharray:none;stroke-dashoffset:0;stroke-opacity:1" />
          <path
             d="M 491.25114,231.4188 L 495.73062,236.11399 L 501.93039,234.19738 L 504.27211,240.24939 L 510.73341,240.85123 L 510.58088,247.3387 L 516.32002,250.36735 L 513.69645,256.30262 L 517.83971,261.29701 L 513.14453,265.77648 L 515.06113,271.97625 L 509.00912,274.31798 L 508.40729,280.77927 L 501.91982,280.62674 L 498.89116,286.36589 L 492.9559,283.74232 L 487.96151,287.88558 L 483.48203,283.1904 L 477.28226,285.107 L 474.94053,279.05499 L 468.47924,278.45315 L 468.63177,271.96569 L 462.89263,268.93703 L 465.51619,263.00176 L 461.37293,258.00738 L 466.06812,253.5279 L 464.15152,247.32813 L 470.20352,244.9864 L 470.80536,238.52511 L 477.29283,238.67764 L 480.32148,232.9385 L 486.25675,235.56206 L 491.25114,231.4188 z"
             transform="translate(-0.6784432,-3.4710743)"
             id="path3374"
             style="opacity:1;fill:#ffff00;fill-opacity:1;stroke:#000000;stroke-width:2.875;stroke-linecap:butt;stroke-linejoin:bevel;stroke-miterlimit:4;stroke-dasharray:none;stroke-dashoffset:0;stroke-opacity:1" />
          <path
             d="M 537.66694,162.70343 C 541.17005,145.58465 542.85266,134.19388 517.55435,133.32568 C 505.5673,133.70799 496.07131,139.67603 489.46733,139.67603 C 482.86434,139.67603 473.36736,133.70799 461.38031,133.32568 C 436.082,134.19388 437.76461,145.58465 441.26772,162.70343"
             id="path3376"
             style="opacity:1;fill:none;fill-rule:evenodd;stroke:#000000;stroke-width:1.89999998;stroke-linecap:round;stroke-linejoin:miter;stroke-miterlimit:4;stroke-dasharray:none;stroke-opacity:1" />
          <use
             transform="matrix(0.309017,0.9510565,-0.9510565,0.309017,578.70885,-288.70231)"
             id="use3383"
             style="opacity:1"
             x="0"
             y="0"
             width="736"
             height="840"
             xlink:href="#path3376" />
          <use
             transform="matrix(-0.809017,0.5877853,-0.5877853,-0.809017,1031.657,169.97171)"
             id="use3385"
             style="opacity:1"
             x="0"
             y="0"
             width="736"
             height="840"
             xlink:href="#path3376" />
          <use
             transform="matrix(-0.809017,-0.5877853,0.5877853,-0.809017,736.83326,746.57756)"
             id="use3387"
             style="opacity:1"
             x="0"
             y="0"
             width="736"
             height="840"
             xlink:href="#path3376" />
          <use
             transform="matrix(0.309017,-0.9510565,0.9510565,0.309017,96.889849,638.07189)"
             id="use3389"
             style="opacity:1"
             x="0"
             y="0"
             width="736"
             height="840"
             xlink:href="#path3376" />
          <path
             d="M 557.15558,166.10269 C 550.18473,175.28043 541.30418,183.04227 532.83439,189.22213 C 536.81878,189.94421 540.11366,189.49363 540.4455,190.82447 C 541.74263,192.1979 541.87615,194.56326 542.56286,196.54711 C 545.98442,184.69667 551.90961,174.60386 557.15558,166.10269 z"
             transform="translate(-1.7355372,-3.4710743)"
             id="path3391"
             style="opacity:1;fill:#000000;fill-rule:evenodd;stroke:#000000;stroke-width:1px;stroke-linecap:butt;stroke-linejoin:round;stroke-opacity:1" />
          <use
             transform="matrix(0.309017,0.9510565,-0.9510565,0.309017,579.248,-290.70791)"
             id="use3395"
             style="opacity:1"
             x="0"
             y="0"
             width="736"
             height="840"
             xlink:href="#path3391" />
          <use
             transform="matrix(-0.809017,0.5877853,-0.5877853,-0.809017,1033.8656,170.08817)"
             id="use3397"
             style="opacity:1"
             x="0"
             y="0"
             width="736"
             height="840"
             xlink:href="#path3391" />
          <use
             transform="matrix(-0.809017,-0.5877853,0.5877853,-0.809017,737.40378,745.64464)"
             id="use3399"
             style="opacity:1"
             x="0"
             y="0"
             width="736"
             height="840"
             xlink:href="#path3391" />
          <use
             transform="matrix(0.309017,-0.9510565,0.9510565,0.309017,97.919975,640.40883)"
             id="use3401"
             style="opacity:1"
             x="0"
             y="0"
             width="736"
             height="840"
             xlink:href="#path3391" />
          <path
             d="M 473.36232,146.15044 C 485.35796,154.08931 492.49153,153.80326 504.49344,146.15044 L 504.45296,146.16711 C 504.45296,146.16711 494.71348,154.05046 488.90408,154.06018 C 483.09469,154.06989 473.36232,146.15044 473.36232,146.15044 z"
             id="path3403"
             style="opacity:1;fill:#000000;fill-rule:evenodd;stroke:#000000;stroke-width:1px;stroke-linecap:round;stroke-linejoin:miter;stroke-opacity:1" />
          <use
             transform="matrix(0.309017,0.9510565,-0.9510565,0.309017,572.10871,-286.79495)"
             id="use3407"
             style="opacity:1"
             x="0"
             y="0"
             width="1"
             height="1"
             xlink:href="#path3403" />
          <use
             transform="matrix(-0.809017,0.5877853,-0.5877853,-0.809017,1031.6996,167.24479)"
             id="use3409"
             style="opacity:1"
             x="0"
             y="0"
             width="1"
             height="1"
             xlink:href="#path3403" />
          <use
             transform="matrix(-0.809017,-0.5877853,0.5877853,-0.809017,737.66706,745.02634)"
             id="use3411"
             style="opacity:1"
             x="0"
             y="0"
             width="1"
             height="1"
             xlink:href="#path3403" />
          <use
             transform="matrix(0.309017,-0.9510565,0.9510565,0.309017,112.37542,640.88005)"
             id="use3413"
             style="opacity:1"
             x="0"
             y="0"
             width="1"
             height="1"
             xlink:href="#path3403" />
          <g
             id="g3419"
             style="opacity:1">
            <path
               d="M 532.06315,179.85746 C 529.09836,185.54988 519.26944,191.24229 532.06315,196.93471"
               transform="translate(-1.7355372,-3.4710743)"
               id="path3415"
               style="fill:none;fill-rule:evenodd;stroke:#000000;stroke-width:1px;stroke-linecap:butt;stroke-linejoin:miter;stroke-opacity:1" />
            <use
               transform="matrix(-0.351935,-0.9360244,-0.9360244,0.351935,902.41795,625.65483)"
               id="use3417"
               x="0"
               y="0"
               width="736"
               height="840"
               xlink:href="#path3415" />
          </g>
          <use
             transform="matrix(0.309017,0.9510565,-0.9510565,0.309017,576.7351,-291.28254)"
             id="use3425"
             style="opacity:1"
             x="0"
             y="0"
             width="736"
             height="840"
             xlink:href="#g3419" />
          <use
             transform="matrix(-0.809017,0.5877853,-0.5877853,-0.809017,1034.4536,170.68525)"
             id="use3427"
             style="opacity:1"
             x="0"
             y="0"
             width="736"
             height="840"
             xlink:href="#g3419" />
          <use
             transform="matrix(-0.809017,-0.5877853,0.5877853,-0.809017,738.79329,746.26697)"
             id="use3429"
             style="opacity:1"
             x="0"
             y="0"
             width="736"
             height="840"
             xlink:href="#g3419" />
          <use
             transform="matrix(0.309017,-0.9510565,0.9510565,0.309017,96.68184,641.30254)"
             id="use3431"
             style="opacity:1"
             x="0"
             y="0"
             width="736"
             height="840"
             xlink:href="#g3419" />
        </g>
      </g>
    </g>
  </g>
</svg>
