<svg xmlns="http://www.w3.org/2000/svg" height="623" width="539"><path d="M35.7 8.7V357c0 143.6 120.5 264.3 264.3 264.3 143.6 0 264.3-120.5 264.3-264.3V8.7Z" style="fill:#fcdd09;stroke:#000002;stroke-width:8;stroke-linecap:round;stroke-linejoin:round;stroke-miterlimit:4;stroke-dasharray:none;stroke-opacity:1" transform="translate(-30.5 -3.5)"/><path d="M186.74 244.7c-13.298 20.637-33.512 33.401-54.367 40.184-9.072.98-17.952-3.017-19.856-10.873-.757-16.804-13.523-21.881-13.71-13.237-1.114 10.263-4.757 16.929-10.873 18.438-11.433 8.648-6.012 10.875 8.982 9.455 17.876 9.164 14.025 20.33 2.364 18.438-8.682.706-29.227-10.029-26.002 4.728 3.953 6.46 5.11 13.246 0 20.329-2.256 21.119 17.65-7.063 29.784-9.455 12.118-1.398 9.297 7.321 6.619 11.819-4.808 9.494-23.468 12.185-17.965 21.274 4.657 2.032 12.977-3.261 14.183 5.673 7.355 10.034 15.718-.199 10.4-6.146-4.485-7.434 8.356-12.441 14.657-17.965 4.344-6.188 15.779-8.593 10.873-1.419-7.177 5.005-11.498 10.716-3.782 13.238 5.673-2.249 12.764-7.694 18.438-1.891 9.059 1.377 10.312-6.492 4.254-13.71-2.881-2.26 1.13-14.677 12.764-15.128 8.56.53 7.67 5.615.946 14.183 27.894-6.281 13.698-26.417 19.856-27.42 11.479 1.745 4.036 12.953 4.255 20.329 12.9.083 13.64-26.686 17.019-34.984 5.388 5.31 10.889 33.876 46.33 36.875 22.822.939 53.115 2.98 60.513 8.982 18.825 21.539 5.974 37.089 5.673 40.184-1.194 24.31-8.28 27.16-17.965 27.42 12.559 14.434 25.424-7.385 31.202-5.2 5.305 6-7.405 19.348-17.02 30.729-8.456 10.4-4.709 28.366-1.89 30.729 5.135.459 5.893-6.305 8.51-18.438 7.543-6.892 13.859-7.075 11.819.945-1.06 4.57-2.76 9.14 4.727 13.71 2.99 11.895-12.39 7.53-17.019 12.292 4.806 5.995 24.441 7.287 25.53-4.727 1.26-8.7-.316-22.172 3.781-22.22 18.726 15.33 40.768 5.552 44.912-5.674 7.186-24.9 26.326-16.976 37.821-18.91-5.087 12.337-2.795 24.6-1.89 36.875 1.527 15.862-31.56 39.968-31.676 30.257-.472-12.064-8.037-23.878-13.71-10.4 1.803 8.016-1.838 11.494-7.564 13.236-3.013 5.998-4.427 11.196 9.928 8.51 4.074 11.406-.037 16.232-7.091 22.692-6.183.144-21.406-12.857-20.801 4.255.838 13.37-.693 10.496-3.31 14.656 4.886 10.192 9.77 8.696 14.656-.946 2.807-5.68 11.544 6.732 28.366-7.564 5.357 6.844-9.776 6.887-6.145 13.237 3.449 5.576 9.991 3.46 11.346 13.237 3.068 10.888 13.142-.79 14.436-11.712 5.588-3.502 6.292-14.096 6.837-25.163 4.329 1.862 5.991 12.07 13.71-1.89l9.928-6.62c9.133 3.218 13.898-1.243 7.092-8.509 1.602-11.057 6.89-14.59 14.656-17.019 6.141-1.74 9.907-7.44 8.51-21.747-.52-9.827-.394-14.522 5.2-13.71 6.775 2.144 9.442 9.219 9.928 18.91 6.065-.838 15.842-17.643 7.564-26.002-7.024-5.2-14.753-10.4-13.237-15.6 5.2-6.147 16.389-.316 23.638 16.073 16.153-22.945-12.866-31.13-17.02-42.076 17.2-5.573 19.259 8.632 22.22 15.601 13.34-17.634-8.996-33.318-22.691-39.239-26.322-51.383-73.044 10.963-113.46-17.019 5.468-2.596 5.985-11.624 1.418-21.747 9.086-8.112 29.26-4.895 43.494-11.346 10.339-4.851 19.276-23.852 24.111-42.548 33.522-17.63 32.446-40.802 20.329-36.402-3.033 9.902-11.15 22.561-17.965 23.165-10.613.304-21.338 4.657-31.675 10.401 4.268-4.514 5.946-10.39 11.346-21.747 6.234-14.503 25.018-4.44 35.457-15.6l4.255-17.966c-21.942 11.692-31.892 11.596-50.112 25.53-5.255 4.11-5.413 11.995-.473 17.964-.34 7.084-12.917 10.497-.945 21.274 6.843 6.713-3.548 22.907-16.547 21.747-12.942-1.33-21.172.558-28.366 3.782-13.142-23.449-38.277-22.695-45.858-46.33 18.753 9.455 21.904 1.576 34.984 8.037-6.856-12.922-5.353-20.17-16.074-30.257 1.753-4.484 2.024-11.439 0-22.22 6.303 3.849 13.552 5.577 19.856 15.601l10.873-51.058-178.23-1.418z" style="fill:#000" transform="translate(-30.5 -3.5)"/><path style="fill:#da121a;stroke:#000;stroke-width:4;stroke-linecap:round;stroke-linejoin:round;stroke-miterlimit:4;stroke-dasharray:none" d="M70 140h460l20 100h-70l10-50h-60l10 50h-60l10-50h-60l10 50h-70l10-50h-60l10 50h-70l10-50h-60l10 50H50Z" transform="translate(-30.5 -3.5)"/><path d="M145.61 452.24c-1.324-10.17 9.646-13.775 13.237 6.619 1.373 6.212 22.578 8.124 37.348 1.418 15.373-6.9 14.847-26.15 9.928-43.967-11.012 9.387-21.45 11.884-31.202 6.146 6.167-4.126 20.524-4.684 10.873-21.274-9.43-16.815 5.768-18.948.473-22.692-21.995-18.165-7.575-30.774-2.364-32.148-3.772 16.332 6.175 18.805 11.819 16.074 13.616-4.937 22.302-18.09 46.33-5.673 10.98-11.703 26.857-14.428 45.385-12.292 10.303.9 24.048-9.868 30.257-7.564 8.375 2.38 15.783 24.46 7.564 39.239-4.097 5.875-26.632 2.836-38.766 8.037-14.007 13.368-12.253 25.077-2.364 35.93 19.64 11.145 24.587 24.739 13.972 40.926-3.694-9.76-13.44-20.12-19.645-17.288-4.383 8.084 23.97 30.405 1.418 45.858 2.77-17.358-3.276-29.85-13.71-22.22-2.253 3.519 16.16 27.416-8.51 33.566 4.037-7.27 6.095-13.307-3.309-24.111-6.386 6.554-10.893 7.185-18.91 7.564-6.3 2.137-5.984 5.744-.945 10.4 7.383 3.295 8.689 7.265 4.728 11.82-9.025-.872-13.818 6.245-19.383 12.292-1.47-3.91-9.317-4.987-2.364-13.71l-3.782-6.619c-4.9 2.007-2.368 5.076-11.346 22.692 2.964 11.001-3.446 11.683-11.82 11.346-2.705-5.16-6.925-8.05-14.655-5.673-12.09 1.576-4.933-12.922 1.89-16.074 7.657-2.34 10.595-9.686 10.402-17.02-7.564.875-19.383 6.886-21.274 12.293-5.427 12.644-21.926 19.302-19.856 3.782 1.639-4.753-.13-10.034-3.31-14.183-3.863-7.045 4.183-7.934 15.601-7.091 8.648.002 2.264-12.512-3.309-10.873-15.909.846-25.036-4.173-18.438-9.928 7.138-2.228 8.407-8.369 8.037-15.601zM110.63 67.417c-5.983 1.966-.13 15.598 12.292 12.292 8.35-2.916 12.864 16.145-6.251 14.367-7.007-13.089-21.821-16.522-17.86-7.748 5.266 12.519-1.512 20.013-4.727 26.474-4.594 6.788 13.491 4.801 17.965-2.364 4.255-3.597 10.873 4.182 17.492-5.2 2.9 3.506 9.6 4.171 3.407 4.854-2.994.33-11.371 2.082-5.77 8.383 3.855 1.975 7.316 3.399 5.2 11.346 5.499 13.06 11.53 6.98 17.019-6.146l4.254 15.601h57.677c-7.282-8.423-14.753-6.068-18.013-24.196-1.2-8.508-6.678-14.733-11.298-18.352-7.778-6.073-10.297-12.85-1.418-21.274 11.401-9.181 5.213-25.424-.946-20.329-8.352 7.723-15.759-.817-25.056 2.364-4.785 3.988-4.46 9.233 1.419 14.183 6.508 8.738-2.255 15.37-8.51 7.091l-7.091-12.292c6.987-10.306-5.78-26.932-9.928-16.547-2.685 8.64-8.367 15.14-19.856 17.492zM412.72 36.688c-3.74 12.572-2.747 21.257 28.366 5.2 8.037-4.37 16.547-4.181 24.111 3.782 5.451 7.272 16.58 12.685 23.638 10.401-14.355-15.644-10.136-19.695-1.891-33.093 4.89 25.598 22.752 17.996 39.239 31.675 9.782 9.09 12.07 26.232 1.418 43.967-11.303 21.303-17.88 13.761-37.82 40.657l-22.22.473c9.14-22.692 27.58-16.435 41.602-43.967 6.822-11.258-6.245-23.883-17.492-17.965-11.048 8.17-7.477 27.512-31.202 28.366-8.515-.18-21.627 7.335-20.8 22.692-15.252-9.574-.697-30.512 17.491-36.875-9.931-6.817-39.662-1.393-32.62 35.457-7.3-5.57-19.145-12.452-9.455-37.348 4.37-8.825 13.685-18.122 19.856-26.474-24.8 10.472-40.196-20.739-22.22-26.947zM251.03 131.71c9.928-8.144 28.731.257 38.293 6.619l96.443.945c-7.268-2.695-5.52-12.603-7.091-19.856 19.214 7.121 19.522-5.924 20.329-18.438-6.849 5.24-11.937 6.555-13.71.473 2.384-9.21-4.201-10.945-8.983-14.183 7.281-8.317 12.021-18.045 8.037-32.62-7.383 19.098-31.354 23.802-24.11.945 2.133-9.74 2.147-19.848-5.674-21.747-5.368-1.158-10.154 15.307-20.801 11.82-17.674-6.515-53.173-14.394-61.931 4.254-9.928.315-19.856 1.954-29.784.946-5.405-1.32-12.489 4.225-3.31 12.764-1.83 6.858-7.2 14.425 2.837 18.91 18.696 2.27 43.667-1.845 53.894 10.873 5.152 7.113 2.91 12.086 3.31 17.492-.423 22.532-21.013 9.457-37.348 6.146-30.382-7.774-27.693 16.835-10.401 14.656z" style="fill:#000" transform="translate(-30.5 -3.5)"/><path style="fill:#da121a;stroke:#000;stroke-width:4;stroke-linecap:butt;stroke-linejoin:miter;stroke-miterlimit:4;stroke-dasharray:none" d="M212.27 73.09c13.672-2.004 13.263 22.296 33.093 24.111 17.213 1.318 33.664-1.931 52.003 6.146v6.146c-15.05-.944-29.637-2.815-45.858-1.418-11.942-1.004-24.268-3.416-33.093-7.565-19.133-9.932-15.279-24.839-6.146-27.42z" transform="translate(-30.5 -3.5)"/><path style="fill:#fff" d="M277.04 58.435c4.313-1.982 9.21-7.207 19.383-5.673-.4 2.74 1.112 6.244-5.2 6.619l8.51 7.09 4.727-7.563 9.455 13.71c-12.876 2.535-12.918.715-23.638-6.146-4.9-10.682-8.839-5.586-13.237-8.037z" transform="translate(-30.5 -3.5)"/><path style="fill:#fcdd09" d="M348.42 55.598c2.017 12.087-4.749 11-9.928 12.292.195-5.877 1.06-11.371 9.928-12.292z" transform="translate(-30.5 -3.5)"/><path d="m452.43 189.39-3.31 14.656c8.897-.9 21.198-6.53 28.839-13.71z" style="fill:#000" transform="translate(-30.5 -3.5)"/><path d="M438.25 230.99c9.795-13.506 38.548-12.328 48.694-28.838l.473-13.71c-17.108 20.737-57.147 15.075-49.167 42.548zM443.45 239.5c11.535-3.9 33.77-8.963 35.93-24.583-26.746 6.78-40.885 18.502-35.93 24.583zM438.72 274.49c5.606-12.865 7.208-22.663 36.402-23.165-5.337 20.16-22.298 13.43-36.402 23.165z" style="fill:#000" transform="translate(-30.5 -3.5)"/><path style="fill:none;stroke:#fcdd09;stroke-width:5;stroke-linecap:round;stroke-linejoin:round;stroke-miterlimit:4;stroke-dasharray:none;stroke-opacity:1" d="M458.58 371.4c12.549-3.456 38.655-.893 29.784 25.529" transform="translate(-30.5 -3.5)"/><path style="fill:#da121a;stroke:#000;stroke-width:4;stroke-linecap:butt;stroke-linejoin:round;stroke-miterlimit:4;stroke-dasharray:none" d="M350.79 546.32c1.355-13.345.96-25.336 22.692-27.893 5.22 2.679 5.583 15.759-1.418 17.965-7.092-3.716-14.183 4.007-21.274 9.928z" transform="translate(-30.5 -3.5)"/><path style="fill:none;stroke:#fcdd09;stroke-width:5;stroke-linecap:round;stroke-linejoin:round;stroke-miterlimit:4;stroke-dasharray:none;stroke-opacity:1" d="M456.02 381.46c12.077-.146 22.581 3.362 13.71 26.474" transform="translate(-30.5 -3.5)"/><path d="M438.06 292.59c5.372-1.39 10.531-3.206 14.656-7.091" style="fill:none;stroke:#ffd200;stroke-width:5;stroke-linecap:round;stroke-linejoin:round;stroke-miterlimit:4;stroke-dasharray:none" transform="translate(-30.5 -3.5)"/><path style="fill:#da121a;stroke:#000;stroke-width:4;stroke-linecap:butt;stroke-linejoin:round;stroke-miterlimit:4;stroke-dasharray:none" d="M369.06 487.51c8.093-10.697 13.987-21.146 33.883-12.037 3.067 5.001-3.42 16.365-10.548 14.611-4.127-6.86-14.2-3.947-23.335-2.574zM404.69 575.98c-5.686-12.149-12.179-22.237 5.16-35.586 5.854-.38 12.878 10.659 8.003 16.146-7.994.45-10.116 10.718-13.163 19.44zM457.71 541.95c8.18-10.631 16.7-19.077 2.658-35.859-5.634-1.637-14.88 7.622-11.306 14.033 7.707 2.168 7.558 12.652 8.647 21.826zM222.26 538.73c11.525-6.863 22.561-11.568 15.703-32.348-4.632-3.6-16.642 1.593-15.686 8.871 6.363 4.86 2.356 14.548-.017 23.477zM191.73 553.92c-10.892-7.829-21.482-13.466-12.862-33.578 4.925-3.188 16.443 3.019 14.865 10.187-6.757 4.294-3.599 14.292-2.003 23.391zM126.97 524.5c.189-13.412-1.247-25.323 20.18-29.761 5.433 2.215 6.932 15.213.15 18.02-7.388-3.085-13.78 5.226-20.33 11.741zM117.48 468.76c6.536-11.714 10.928-22.878 31.893-16.607 3.729 4.529-1.124 16.68-8.426 15.93-5.036-6.223-14.609-1.946-23.467.678zM131.39 369.77c13.323-1.554 25.319-1.338 27.551-23.106-2.757-5.179-15.84-5.347-17.942 1.686 3.821 7.035-3.795 14.241-9.61 21.42zM105.83 387.55c-9.89-9.062-19.739-15.912-8.801-34.864 5.267-2.583 15.97 4.942 13.556 11.874-7.218 3.465-5.264 13.766-4.755 22.99zM52.426 339.49c1.355-13.345.96-25.336 22.692-27.893 5.22 2.679 5.583 15.759-1.418 17.965-7.092-3.716-14.183 4.007-21.274 9.928zM65.834 270.62c10.634-8.176 19.082-16.695 35.86-2.648 1.635 5.634-7.626 14.878-14.036 11.302-2.166-7.708-12.65-7.562-21.824-8.654zM153.17 35.661c12.996 3.32 24.913 4.709 24.217 26.58-3.424 4.764-16.412 3.183-17.556-4.068 4.727-6.462-1.858-14.62-6.662-22.512zM96.317 55.013c11.731-6.505 21.351-13.674 35.855 2.71.78 5.814-9.752 13.579-15.56 9.09-.997-7.944-11.386-9.357-20.295-11.8zM72.211 105.25c7.118-11.369 12.068-22.298 32.689-14.979 3.5 4.712-1.96 16.599-9.217 15.489-4.717-6.474-14.493-2.68-23.472-.51zM105.99 119.54c8.585 10.306 14.962 20.468 34.41 10.437 2.83-5.14-4.183-16.187-11.221-14.101-3.802 7.046-13.999 4.608-23.189 3.664z" transform="translate(-30.5 -3.5)"/><path style="fill:#fff;stroke:#000;stroke-width:3;stroke-linecap:butt;stroke-linejoin:miter;stroke-miterlimit:4;stroke-dasharray:none" d="M243 82.309c.34 4.184-2.362 10.107 1.891 12.055 2.472-4.599 5.674-6.93 8.037-10.873 1.493 3.636-2.181 7.808 3.31 10.873 4.01-.338 2.075-9.296 4.727-10.873 1.72 2.127-.03 11.451 5.436 11.583 2.87.914 3.799-13.958 5.437-11.583-.864 3.152 1.214 11.031 5.437 11.819 0 0 3.213-.132 4.964-10.401-13.08-5.555-26.16-2.216-39.24-2.6zM246.1 118.98c.34-4.184.238-8.453 4.491-10.401.681 6.838 5.076 7.678 8.037 10.873 1.493-3.636-2.18-7.808 3.31-10.873 4.01.338 3.493 12.369 6.145 13.946 1.72-2.127-1.449-11.451 4.019-11.583 2.868-.914 4.27 16.321 5.91 13.946-.865-3.152.976-11.504 5.2-12.292 0 0 3.213 1.078 4.964 11.346-13.08 5.555-28.996-5.349-42.076-4.964z" transform="translate(-30.5 -3.5)"/></svg>