<?xml version="1.0" encoding="UTF-8" standalone="no"?>
<!-- Created with Inkscape (http://www.inkscape.org/) -->

<svg
   xmlns:dc="http://purl.org/dc/elements/1.1/"
   xmlns:cc="http://creativecommons.org/ns#"
   xmlns:rdf="http://www.w3.org/1999/02/22-rdf-syntax-ns#"
   xmlns:svg="http://www.w3.org/2000/svg"
   xmlns="http://www.w3.org/2000/svg"
   xmlns:sodipodi="http://sodipodi.sourceforge.net/DTD/sodipodi-0.dtd"
   xmlns:inkscape="http://www.inkscape.org/namespaces/inkscape"
   width="129.82851mm"
   height="158.65759mm"
   viewBox="0 0 129.82851 158.65759"
   version="1.1"
   id="svg865"
   inkscape:version="0.92.5 (2060ec1f9f, 2020-04-08)"
   sodipodi:docname="DEU Böbingen COA.svg">
  <defs
     id="defs859">
    <inkscape:path-effect
       effect="spiro"
       id="path-effect6386"
       is_visible="true" />
    <inkscape:path-effect
       effect="spiro"
       id="path-effect6381"
       is_visible="true" />
    <inkscape:path-effect
       effect="spiro"
       id="path-effect6376"
       is_visible="true" />
    <inkscape:path-effect
       effect="spiro"
       id="path-effect6371"
       is_visible="true" />
    <inkscape:path-effect
       effect="spiro"
       id="path-effect6366"
       is_visible="true" />
    <inkscape:path-effect
       effect="spiro"
       id="path-effect6360"
       is_visible="true" />
    <inkscape:path-effect
       effect="spiro"
       id="path-effect6356"
       is_visible="true" />
    <inkscape:path-effect
       effect="spiro"
       id="path-effect6350"
       is_visible="true" />
    <inkscape:path-effect
       effect="spiro"
       id="path-effect6263"
       is_visible="true" />
    <inkscape:path-effect
       effect="spiro"
       id="path-effect6213"
       is_visible="true" />
    <inkscape:path-effect
       effect="spiro"
       id="path-effect6209"
       is_visible="true" />
    <inkscape:path-effect
       effect="spiro"
       id="path-effect6165"
       is_visible="true" />
    <inkscape:path-effect
       effect="spiro"
       id="path-effect6124"
       is_visible="true" />
    <inkscape:path-effect
       effect="spiro"
       id="path-effect3644"
       is_visible="true" />
    <inkscape:path-effect
       effect="spiro"
       id="path-effect3636"
       is_visible="true" />
    <inkscape:path-effect
       effect="spiro"
       id="path-effect3544"
       is_visible="true" />
    <inkscape:path-effect
       effect="spiro"
       id="path-effect3466"
       is_visible="true" />
    <inkscape:path-effect
       effect="spiro"
       id="path-effect3544-2"
       is_visible="true" />
    <inkscape:path-effect
       effect="spiro"
       id="path-effect3644-8"
       is_visible="true" />
    <inkscape:path-effect
       effect="spiro"
       id="path-effect3644-3"
       is_visible="true" />
    <inkscape:path-effect
       effect="spiro"
       id="path-effect3636-0"
       is_visible="true" />
    <inkscape:path-effect
       effect="spiro"
       id="path-effect1727-0-1"
       is_visible="true" />
    <inkscape:path-effect
       effect="spiro"
       id="path-effect1731-8-3"
       is_visible="true" />
    <inkscape:path-effect
       effect="spiro"
       id="path-effect1727-3"
       is_visible="true" />
    <inkscape:path-effect
       effect="spiro"
       id="path-effect1731-7"
       is_visible="true" />
    <inkscape:path-effect
       effect="spiro"
       id="path-effect841-8"
       is_visible="true" />
    <inkscape:path-effect
       effect="spiro"
       id="path-effect6124-4"
       is_visible="true" />
    <inkscape:path-effect
       effect="spiro"
       id="path-effect6124-6"
       is_visible="true" />
    <inkscape:path-effect
       effect="spiro"
       id="path-effect6165-8"
       is_visible="true" />
    <inkscape:path-effect
       effect="spiro"
       id="path-effect6213-9"
       is_visible="true" />
    <inkscape:path-effect
       effect="spiro"
       id="path-effect6213-6"
       is_visible="true" />
    <inkscape:path-effect
       effect="spiro"
       id="path-effect6213-6-6"
       is_visible="true" />
    <inkscape:path-effect
       effect="spiro"
       id="path-effect6213-6-2"
       is_visible="true" />
    <inkscape:path-effect
       effect="spiro"
       id="path-effect6213-6-2-0"
       is_visible="true" />
    <inkscape:path-effect
       effect="spiro"
       id="path-effect6213-6-2-08"
       is_visible="true" />
    <inkscape:path-effect
       effect="spiro"
       id="path-effect6213-6-2-08-5"
       is_visible="true" />
    <inkscape:path-effect
       effect="spiro"
       id="path-effect6213-6-2-08-4"
       is_visible="true" />
    <inkscape:path-effect
       effect="spiro"
       id="path-effect6213-6-2-08-4-1"
       is_visible="true" />
    <inkscape:path-effect
       effect="spiro"
       id="path-effect6124-1"
       is_visible="true" />
  </defs>
  <sodipodi:namedview
     id="base"
     pagecolor="#ffffff"
     bordercolor="#666666"
     borderopacity="1.0"
     inkscape:pageopacity="0.0"
     inkscape:pageshadow="2"
     inkscape:zoom="1.3224364"
     inkscape:cx="245.34522"
     inkscape:cy="299.82538"
     inkscape:document-units="mm"
     inkscape:current-layer="layer1"
     showgrid="false"
     inkscape:window-width="1920"
     inkscape:window-height="1046"
     inkscape:window-x="-11"
     inkscape:window-y="-11"
     inkscape:window-maximized="1"
     fit-margin-top="0"
     fit-margin-left="0"
     fit-margin-right="0"
     fit-margin-bottom="0"
     inkscape:snap-global="false"
     inkscape:snap-midpoints="true"
     inkscape:snap-smooth-nodes="true" />
  <metadata
     id="metadata862">
    <rdf:RDF>
      <cc:Work
         rdf:about="">
        <dc:format>image/svg+xml</dc:format>
        <dc:type
           rdf:resource="http://purl.org/dc/dcmitype/StillImage" />
        <dc:title />
      </cc:Work>
    </rdf:RDF>
  </metadata>
  <g
     inkscape:label="Ebene 1"
     inkscape:groupmode="layer"
     id="layer1"
     transform="translate(13.009891,169.6696)">
    <path
       style="fill:#ffd700;fill-opacity:1;fill-rule:evenodd;stroke:none;stroke-width:2.11666656;stroke-linecap:round;stroke-linejoin:round;stroke-miterlimit:4;stroke-dasharray:none;stroke-opacity:1"
       inkscape:connector-curvature="0"
       d="m 115.76029,-168.61127 -0.29196,94.53848 c -1.42142,37.540967 -29.505642,61.981427 -63.563968,62.002448 -34.027689,-0.0461 -62.12243,-24.497202 -63.56397,-62.002448 l -0.29195,-94.53848 h 63.854391 z"
       id="path10563-0-6-2-6-0-0"
       sodipodi:nodetypes="ccccccc" />
    <path
       style="opacity:1;fill:#ff0000;fill-opacity:1;fill-rule:evenodd;stroke:#000000;stroke-width:5;stroke-linecap:round;stroke-linejoin:round;stroke-miterlimit:4;stroke-dasharray:none;stroke-opacity:1;paint-order:fill markers stroke"
       d="M 4 4 L 5.1035156 361.31055 C 10.551856 503.06266 116.73711 595.47615 245.3457 595.65039 L 245.3457 4 L 245.33984 4 L 4 4 z "
       transform="matrix(0.26458333,0,0,0.26458333,-13.009891,-169.6696)"
       id="rect4592" />
    <g
       id="g6120"
       transform="translate(137.39989)">
      <path
         inkscape:connector-curvature="0"
         id="path6094-4"
         d="m -97.515308,-120.34869 9.25023,13.08186 v 7.49429 l -9.25023,-13.08185 z"
         style="fill:#ffd700;fill-opacity:1;stroke:#000000;stroke-width:0.79374999;stroke-linecap:round;stroke-linejoin:round;stroke-miterlimit:4;stroke-dasharray:none;stroke-opacity:1" />
      <rect
         y="-120.34869"
         x="-146.30627"
         height="7.4942923"
         width="48.790966"
         id="rect6077-5"
         style="opacity:1;fill:#ffd700;fill-opacity:1;fill-rule:evenodd;stroke:#000000;stroke-width:0.79374999;stroke-linecap:round;stroke-linejoin:round;stroke-miterlimit:4;stroke-dasharray:none;stroke-opacity:1;paint-order:fill markers stroke" />
      <path
         id="path6059"
         transform="matrix(0.26458333,0,0,0.26458333,-13.009891,-169.6696)"
         d="m -482.4082,237.62305 -23.89844,97.36718 h 20.35742 L -465,245.88477 Z m 138.38086,3.37109 -23.89844,97.36719 h 20.35742 l 20.94922,-89.10547 z"
         style="fill:#ffd700;fill-opacity:1;stroke:#000000;stroke-width:3;stroke-linecap:round;stroke-linejoin:round;stroke-miterlimit:4;stroke-dasharray:none;stroke-opacity:1"
         inkscape:connector-curvature="0" />
      <path
         id="path6041"
         transform="matrix(0.26458333,0,0,0.26458333,-13.009891,-169.6696)"
         d="m -461.45898,254.73633 15.93164,109.75976 22.71875,4.42579 -12.98243,-112.71094 z m 156.26953,2.00195 -25.70313,0.68164 25.07422,108.03711 23.00977,2.50586 z"
         style="fill:#ffd700;fill-opacity:1;stroke:#000000;stroke-width:3;stroke-linecap:butt;stroke-linejoin:round;stroke-miterlimit:4;stroke-dasharray:none;stroke-opacity:1"
         inkscape:connector-curvature="0" />
      <rect
         y="-107.26683"
         x="-137.05605"
         height="7.4942923"
         width="48.790966"
         id="rect6077"
         style="opacity:1;fill:#ffd700;fill-opacity:1;fill-rule:evenodd;stroke:#000000;stroke-width:0.79374999;stroke-linecap:round;stroke-linejoin:round;stroke-miterlimit:4;stroke-dasharray:none;stroke-opacity:1;paint-order:fill markers stroke" />
      <path
         inkscape:connector-curvature="0"
         id="path6094"
         d="m -146.30627,-120.34869 9.25023,13.08186 v 7.494291 l -9.25023,-13.081851 z"
         style="fill:#ffd700;fill-opacity:1;stroke:#000000;stroke-width:0.79374999;stroke-linecap:round;stroke-linejoin:round;stroke-miterlimit:4;stroke-dasharray:none;stroke-opacity:1" />
      <path
         inkscape:connector-curvature="0"
         id="path6111"
         d="m -146.30627,-120.34869 h 48.790964 l 9.25023,13.08186 h -48.790964 z"
         style="fill:#ffd700;fill-opacity:1;stroke:#000000;stroke-width:0.79374999;stroke-linecap:round;stroke-linejoin:round;stroke-miterlimit:4;stroke-dasharray:none;stroke-opacity:1" />
    </g>
    <path
       transform="translate(138.46695,2.6e-6)"
       style="fill:#000000;stroke:#000000;stroke-width:0.26458332px;stroke-linecap:butt;stroke-linejoin:miter;stroke-opacity:1"
       d="m -24.655559,-83.635689 c -0.530663,-0.799234 -1.330487,-1.416292 -2.238221,-1.72677 -0.63632,-0.217644 -1.316974,-0.286545 -1.989048,-0.262279 -0.524689,0.01894 -1.04734,0.09382 -1.556243,0.222957 0.103014,0.86034 0.03425,1.7409 -0.201067,2.57482 -0.118909,0.421388 -0.281295,0.833566 -0.518765,1.201418 -0.23747,0.367852 -0.552972,0.690859 -0.936944,0.90127 -0.582867,0.319402 -1.277285,0.359645 -1.940945,0.32349 -0.372142,-0.02027 -0.744797,-0.06257 -1.104292,-0.160877 -0.359496,-0.0983 -0.706587,-0.25427 -0.998398,-0.486103 -0.243832,-0.193715 -0.444126,-0.435771 -0.668229,-0.652006 -0.224103,-0.216235 -0.483556,-0.41231 -0.787479,-0.480212 -0.317059,-0.07084 -0.651664,0.0061 -0.946687,0.142101 -0.295023,0.136036 -0.559543,0.328723 -0.832513,0.504882 -0.524224,0.338304 -1.08384,0.617957 -1.619433,0.93796 -0.535592,0.320002 -1.053422,0.686173 -1.453728,1.164729 -0.563224,0.67332 -0.861949,1.532511 -1.020033,2.395987 -0.158085,0.863475 -0.18646,1.744663 -0.273931,2.618121 -0.137748,1.375503 -0.446875,2.789449 -1.293963,3.88189 -0.922592,1.189814 -2.355104,1.844733 -3.5584,2.749671 -0.310856,0.233779 -0.613489,0.492063 -0.815509,0.824437 -0.10101,0.166186 -0.175391,0.349858 -0.206219,0.541875 -0.03083,0.192017 -0.01709,0.392562 0.05126,0.574632 0.11584,0.308585 0.375681,0.540055 0.647488,0.726509 0.271806,0.186454 0.566938,0.342895 0.80822,0.567454 0.398561,0.370938 0.620657,0.911877 0.646981,1.455709 0.02602,0.537576 -0.130146,1.075381 -0.397092,1.542718 -0.266946,0.467338 -0.641101,0.867328 -1.058617,1.206953 -0.479284,0.389869 -1.015725,0.703081 -1.512755,1.070058 -0.497031,0.366976 -0.964741,0.801479 -1.236917,1.356124 -0.240937,0.490986 -0.314467,1.047675 -0.328182,1.59442 -0.01372,0.546745 0.02888,1.094106 0.0047,1.640487 -0.05063,1.143372 -0.392015,2.255962 -0.485235,3.396652 -0.105466,1.290548 0.108584,2.591601 0,3.88189 -0.105193,1.249985 -0.514911,2.4664 -1.132218,3.558399 -0.302983,0.535969 -0.659904,1.048452 -1.117291,1.460591 -0.457387,0.412139 -1.022358,0.720575 -1.632381,0.803843 -0.565457,0.07719 -1.136886,-0.03953 -1.699167,-0.137187 -0.562282,-0.09766 -1.147169,-0.175715 -1.697487,-0.02456 -0.606186,0.166504 -1.114998,0.603918 -1.455709,1.132218 -0.534214,0.828342 -0.676645,1.84621 -0.727854,2.830544 -0.03363,0.646399 -0.03363,1.294546 0,1.940945 -0.731201,-0.145475 -1.435915,-0.423041 -2.069922,-0.815281 -0.657785,-0.406951 -1.236966,-0.934941 -1.731095,-1.530027 -0.606613,-0.730553 -1.093308,-1.578924 -1.293963,-2.507054 -0.214926,-0.994144 -0.0929,-2.037542 0.194273,-3.01327 0.287176,-0.975728 0.734395,-1.895535 1.180563,-2.809564 0.312871,-0.640954 0.62861,-1.285611 1.051345,-1.860072 0.246571,-0.335069 0.527759,-0.643705 0.770926,-0.981252 0.243167,-0.337546 0.450563,-0.711785 0.523037,-1.121438 0.07813,-0.441628 -0.0098,-0.910637 -0.242618,-1.293963 -0.642429,-0.112965 -1.290476,-0.193971 -1.940945,-0.242618 -1.292536,-0.09667 -2.594012,-0.0653 -3.881889,0.08087 -0.726241,0.08243 -1.465956,0.207234 -2.10269,0.566108 -0.602301,0.339466 -1.076767,0.870034 -1.463589,1.443072 -0.386821,0.573038 -0.695691,1.194294 -1.043465,1.791836 -0.282691,0.485716 -0.593081,0.958411 -0.970472,1.374836 -0.650761,0.71807 -1.498381,1.256755 -2.426181,1.536581 -1.024904,0.309113 -2.143636,0.299053 -3.162816,-0.02844 -0.399938,0.594168 -0.775578,1.204691 -1.125664,1.829531 -0.200249,0.357408 -0.392177,0.719571 -0.570435,1.08844 -0.370072,0.765791 -0.680942,1.560182 -0.928923,2.37375 -0.778851,-1.082754 -1.319144,-2.336153 -1.571577,-3.645825 -0.379852,-1.970747 -0.101479,-4.041465 0.646981,-5.903706 0.480841,-1.196378 1.152754,-2.31573 1.982495,-3.302674 -0.292896,-0.767282 -0.355274,-1.620889 -0.177034,-2.422599 0.17824,-0.801711 0.596422,-1.548478 1.186829,-2.119379 0.464775,-0.44942 1.024818,-0.785188 1.570417,-1.132054 0.545598,-0.346865 1.089779,-0.715808 1.502745,-1.213254 0.294743,-0.355039 0.51634,-0.770532 0.646982,-1.213091 -0.175941,-0.517474 -0.231732,-1.075387 -0.161745,-1.617454 0.114915,-0.890043 0.557348,-1.706841 0.727854,-2.587926 0.174549,-0.901978 0.04781,-1.869066 -0.404364,-2.668799 -0.203097,-0.359207 -0.471268,-0.684693 -0.802528,-0.930752 -0.33126,-0.246059 -0.727139,-0.410477 -1.138416,-0.444084 -0.368982,-0.03015 -0.744267,0.04558 -1.078848,0.204046 -0.334581,0.158469 -0.628583,0.398277 -0.862097,0.685554 -0.563024,0.692654 -0.752651,1.6162 -0.808727,2.507054 -0.05444,0.864879 3.9e-5,1.736557 0.161745,2.587926 -0.799137,-0.741883 -1.392737,-1.702951 -1.698326,-2.749672 -0.274565,-0.940454 -0.317708,-1.93172 -0.323491,-2.911417 -0.01293,-2.191121 0.173427,-4.46014 1.21309,-6.388943 0.455666,-0.845359 1.071544,-1.608986 1.829173,-2.199122 0.75763,-0.590137 1.658774,-1.003356 2.607946,-1.149427 1.230984,-0.18944 2.491053,0.06886 3.731024,-0.0481 1.327788,-0.125246 2.583222,-0.677616 3.720144,-1.374836 0.928389,-0.569337 1.807061,-1.245254 2.830544,-1.617454 1.070386,-0.389257 2.243515,-0.424678 3.315781,-0.808727 0.920605,-0.32973 1.735961,-0.906864 2.454811,-1.569804 0.71885,-0.662941 1.349851,-1.413893 1.993187,-2.15034 1.142048,-1.307337 2.329118,-2.575344 3.558399,-3.801016 -0.77921,-5.131757 -0.969557,-10.352695 -0.566109,-15.527565 0.40282,-5.16683 1.38155,-10.47479 -0.08087,-15.44668 -0.353672,-1.2024 -0.845181,-2.36028 -1.21309,-3.5584 -0.339355,-1.10514 -0.582984,-2.26566 -1.213091,-3.23491 -0.266383,-0.40976 -0.59545,-0.77433 -0.896656,-1.15922 -0.301207,-0.38488 -0.579155,-0.7992 -0.720798,-1.26696 -0.159035,-0.5252 -0.137173,-1.08983 -0.04496,-1.63077 0.09222,-0.54094 0.252513,-1.06778 0.368447,-1.60414 0.25226,-1.16706 0.291895,-2.38317 0.08087,-3.55839 -0.110392,-0.61478 -0.302027,-1.24137 -0.727855,-1.69833 -0.292929,-0.31435 -0.690744,-0.53243 -1.115703,-0.59593 -0.424958,-0.0635 -0.874156,0.031 -1.229605,0.27244 -0.290955,0.19761 -0.515869,0.49074 -0.631414,0.82293 -0.115545,0.33219 -0.12109,0.70163 -0.01557,1.03714 -0.656798,-0.40842 -1.195718,-1.00407 -1.536582,-1.69833 -0.476247,-0.97001 -0.555705,-2.11249 -0.301602,-3.1628 0.294003,-1.21524 1.007284,-2.29188 1.838184,-3.22614 1.930047,-2.17013 4.527806,-3.67807 7.278542,-4.60974 2.35429,-0.79739 4.827198,-1.19303 7.19767,-1.94095 2.079342,-0.65606 4.127839,-1.59165 6.308071,-1.61745 0.888376,-0.0105 1.785581,0.13589 2.598319,0.49475 0.812739,0.35886 1.537986,0.93703 2.011424,1.68881 0.515001,0.81778 0.712685,1.79804 0.774254,2.76251 0.06157,0.96448 -0.0032,1.93288 0.03447,2.89858 0.08973,2.30277 0.760098,4.57244 0.646982,6.87418 -0.08056,1.63934 -0.55722,3.23419 -1.132218,4.77149 -1.163904,3.11178 -2.747755,6.07845 -3.558399,9.30036 -0.842594,3.3489 -0.818265,6.84758 -0.753184,10.30024 0.06508,3.45266 0.162723,6.94145 -0.540779,10.3223 -0.312423,1.50142 -0.783906,2.99631 -0.727854,4.528872 0.06455,1.765045 0.820953,3.41785 1.374836,5.09498 0.161636,0.489426 0.307437,0.986146 0.526024,1.452926 0.218586,0.466781 0.516484,0.907766 0.929684,1.215873 0.373797,0.278726 0.830113,0.437738 1.293963,0.485236 0.636005,0.06513 1.277948,-0.07356 1.879862,-0.289066 0.601914,-0.215509 1.173245,-0.507024 1.75941,-0.762279 0.665127,-0.28964 1.369051,-0.536252 2.09444,-0.526499 0.362695,0.0049 0.726936,0.07556 1.055225,0.22983 0.328289,0.154265 0.619451,0.394321 0.813097,0.701033 0.116681,0.184809 0.196496,0.38991 0.288396,0.58821 0.0919,0.1983 0.199203,0.394455 0.358585,0.544007 0.19655,0.184427 0.461853,0.285355 0.729875,0.313803 0.268023,0.02845 0.539507,-0.01158 0.79993,-0.08105 0.520844,-0.138934 1.010293,-0.395227 1.543358,-0.475375 0.395402,-0.05945 0.80357,-0.01842 1.184769,0.102257 0.381199,0.120683 0.735688,0.319865 1.04815,0.569353 0.624925,0.498976 1.074054,1.188933 1.406352,1.916316 0.665231,1.456155 0.893175,3.108748 0.646982,4.690616 z"
       id="path6122-9"
       inkscape:connector-curvature="0"
       inkscape:path-effect="#path-effect6124-4"
       inkscape:original-d="m -24.655559,-83.635689 c 0,0 -1.368158,-1.36494 -2.238221,-1.72677 -0.617487,-0.256793 -1.320303,-0.266021 -1.989048,-0.262279 -0.524036,0.0029 -1.556243,0.222957 -1.556243,0.222957 0,0 0.08744,1.763716 -0.201067,2.57482 -0.285685,0.803177 -0.735812,1.646117 -1.455709,2.102688 -0.553901,0.351293 -1.286496,0.36719 -1.940945,0.32349 -0.731695,-0.04886 -1.452157,-0.308495 -2.10269,-0.64698 -0.545325,-0.283743 -0.848459,-1.036627 -1.455708,-1.132218 -0.623384,-0.09813 -1.217832,0.358705 -1.7792,0.646983 -1.104141,0.567007 -2.360429,1.086501 -3.073161,2.102689 -0.991175,1.413183 -0.805086,3.358659 -1.293964,5.014108 -0.386303,1.308109 -0.504424,2.769682 -1.293963,3.88189 -0.867708,1.222322 -2.606226,1.591934 -3.5584,2.749671 -0.459475,0.558671 -1.107261,1.230649 -0.97047,1.940944 0.122773,0.63751 1.072598,0.769827 1.455708,1.293963 0.313347,0.428692 0.665211,0.925019 0.646981,1.455709 -0.0356,1.036467 -0.813848,1.935088 -1.455709,2.749671 -0.756523,0.960099 -2.192016,1.338461 -2.749672,2.426182 -0.494397,0.964332 -0.192918,2.159122 -0.32349,3.234907 -0.137805,1.13538 -0.404159,2.255817 -0.485235,3.396652 -0.09173,1.290708 0.198517,2.603245 0,3.88189 -0.190964,1.229992 -0.434576,2.527554 -1.132218,3.558399 -0.665487,0.983333 -1.622841,1.890175 -2.749672,2.264434 -1.07572,0.357283 -2.316058,-0.503996 -3.396654,-0.161743 -0.586035,0.185613 -1.118453,0.618265 -1.455709,1.132218 -0.534478,0.814504 -0.605578,1.864039 -0.727854,2.830544 -0.08121,0.641865 0,1.940945 0,1.940945 0,0 -1.437532,-0.427981 -2.069922,-0.815281 -0.656735,-0.40221 -1.257879,-0.922457 -1.731095,-1.530027 -0.577871,-0.741938 -1.179234,-1.57365 -1.293963,-2.507054 -0.2433,-1.979417 0.647793,-3.965768 1.374836,-5.822834 0.259642,-0.663197 0.689424,-1.246674 1.051345,-1.860072 0.418209,-0.708798 1.144073,-1.293476 1.293963,-2.10269 0.07993,-0.431497 -0.242618,-1.293963 -0.242618,-1.293963 0,0 -1.289802,-0.208883 -1.940945,-0.242618 -1.29251,-0.06696 -2.600656,-0.102183 -3.881889,0.08087 -0.718558,0.102662 -1.498436,0.163937 -2.10269,0.566108 -1.135679,0.755869 -1.695647,2.13822 -2.507054,3.234908 -0.33364,0.450944 -0.564011,0.988242 -0.970472,1.374836 -0.693638,0.659733 -1.505601,1.274067 -2.426181,1.536581 -1.013897,0.289124 -3.162816,-0.02844 -3.162816,-0.02844 0,0 -0.771653,1.207135 -1.125664,1.829531 -0.202519,0.356054 -0.40047,0.715746 -0.570435,1.08844 -0.352561,0.773082 -0.928923,2.37375 -0.928923,2.37375 0,0 -1.375227,-2.337097 -1.571577,-3.645825 -0.293727,-1.957772 0.01506,-4.027585 0.646981,-5.903706 0.409854,-1.216832 1.982495,-3.302674 1.982495,-3.302674 0,0 0.174354,-3.23526 1.009795,-4.541978 0.694128,-1.085689 2.238642,-1.363417 3.073162,-2.345308 0.296785,-0.349196 0.646982,-1.213091 0.646982,-1.213091 0,0 -0.20896,-1.077675 -0.161745,-1.617454 0.07809,-0.892702 0.672422,-1.693531 0.727854,-2.587926 0.05566,-0.89803 0.06779,-1.902885 -0.404364,-2.668799 -0.416055,-0.674909 -1.151544,-1.300997 -1.940944,-1.374836 -0.708607,-0.06628 -1.468173,0.357619 -1.940945,0.8896 -0.583302,0.656353 -0.699416,1.635796 -0.808727,2.507054 -0.107598,0.857602 0.161745,2.587926 0.161745,2.587926 0,0 -1.347224,-1.731201 -1.698326,-2.749672 -0.318234,-0.923131 -0.361066,-1.935696 -0.323491,-2.911417 0.08342,-2.166091 0.06904,-4.547734 1.21309,-6.388943 0.977938,-1.573868 2.683962,-2.748663 4.437119,-3.348549 1.176793,-0.40267 2.508115,0.178783 3.731024,-0.0481 1.299839,-0.24116 2.52212,-0.815839 3.720144,-1.374836 0.984769,-0.459493 1.821043,-1.215196 2.830544,-1.617454 1.056847,-0.421124 2.300388,-0.29565 3.315781,-0.808727 1.725147,-0.871715 3.043572,-2.392136 4.447998,-3.720144 1.261064,-1.192447 3.558399,-3.801016 3.558399,-3.801016 0,0 -0.458187,-10.349395 -0.566109,-15.527565 -0.10729,-5.14785 0.774478,-10.36926 -0.08087,-15.44668 -0.208176,-1.23575 -0.790852,-2.37851 -1.21309,-3.5584 -0.388026,-1.08429 -0.68806,-2.20993 -1.213091,-3.23491 -0.443124,-0.86508 -1.382482,-1.48304 -1.617454,-2.42618 -0.261978,-1.05154 0.257216,-2.15326 0.323491,-3.23491 0.07256,-1.18422 0.306202,-2.39355 0.08087,-3.55839 -0.116976,-0.6047 -0.238094,-1.32486 -0.727855,-1.69833 -0.627536,-0.47853 -1.672313,-0.73564 -2.345308,-0.32349 -0.55982,0.34284 -0.646981,1.86007 -0.646981,1.86007 0,0 -1.228597,-0.99978 -1.536582,-1.69833 -0.427246,-0.96904 -0.523837,-2.12733 -0.301602,-3.1628 0.259722,-1.21013 0.983664,-2.33078 1.838184,-3.22614 1.982762,-2.07752 4.649304,-3.45452 7.278542,-4.60974 2.275014,-0.99959 4.794483,-1.30885 7.19767,-1.94095 2.099308,-0.55217 4.147289,-1.82484 6.308071,-1.61745 1.692473,0.16244 3.600974,0.8149 4.609743,2.18356 1.130953,1.53444 0.584566,3.76813 0.808727,5.66109 0.27065,2.28555 0.806967,4.57823 0.646982,6.87418 -0.11363,1.63071 -0.650389,3.20945 -1.132218,4.77149 -0.978385,3.17182 -2.853339,6.05682 -3.558399,9.30036 -1.463037,6.73052 -0.530947,13.77724 -1.293963,20.62254 -0.169381,1.51958 -0.807488,3.00195 -0.727854,4.528872 0.09162,1.756684 0.719984,3.462344 1.374836,5.09498 0.377235,0.940498 0.690621,2.004357 1.455708,2.668799 0.347801,0.302049 0.833658,0.467381 1.293963,0.485236 1.261748,0.04894 2.38166,-0.938143 3.639272,-1.051345 1.322433,-0.119037 2.849707,-0.319588 3.962762,0.404364 0.364383,0.237001 0.262724,0.929016 0.646981,1.132217 0.908382,0.480366 2.082728,-0.516388 3.073163,-0.242618 1.434735,0.39658 2.867766,1.31493 3.639271,2.587926 0.818051,1.349798 0.646982,4.690616 0.646982,4.690616 z"
       sodipodi:nodetypes="caacaaaaaaaaaaaaaaaaaaaaaaacaaaaaacaaaaaacaacaacaacaaaaaacaaaaaaaaacaaaaaaaaacaaaaaaaaaaaaaaaaaaaaacc" />
    <path
       style="fill:none;fill-rule:evenodd;stroke:#000000;stroke-width:2.11666656;stroke-linecap:round;stroke-linejoin:round;stroke-miterlimit:4;stroke-dasharray:none;stroke-opacity:1"
       inkscape:connector-curvature="0"
       d="m 115.76029,-168.61127 -0.29196,94.538478 c -1.42142,37.540968 -29.505644,61.981427 -63.563968,62.002448 -34.02769,-0.0461 -62.12243,-24.497202 -63.56397,-62.002448 l -0.29195,-94.538478 h 63.85439 z"
       id="path10563-0-6-2-6-0"
       sodipodi:nodetypes="ccccccc" />
    <path
       style="fill:#ff0000;fill-opacity:1;stroke:none;stroke-width:0.99999994px;stroke-linecap:butt;stroke-linejoin:miter;stroke-opacity:1"
       d="M 408.33203 65.708984 C 407.95355 65.711101 407.57612 65.727891 407.19922 65.755859 C 404.18315 65.983387 401.28843 66.985015 398.40625 67.902344 C 392.07442 69.917626 385.62747 71.561726 379.14062 73.001953 C 371.87073 74.616038 364.54372 75.97468 357.32812 77.816406 C 353.6305 78.760154 349.94836 79.836592 346.48242 81.433594 C 343.01648 83.030633 339.75637 85.170661 337.21289 88.015625 C 335.52921 89.89885 334.18379 92.079551 333.23828 94.421875 C 333.78885 93.406127 334.65215 92.55738 335.70117 92.070312 C 337.24453 91.353752 339.13156 91.428913 340.61328 92.265625 C 341.852 92.965027 342.767 94.13044 343.44531 95.380859 C 344.95975 98.172607 345.40894 101.41469 345.58398 104.58594 C 345.75901 107.75719 345.68925 110.95928 346.2793 114.08008 C 347.18422 118.86621 349.62083 123.37354 349.67773 128.24414 C 349.71024 131.03332 348.95504 133.76466 348.21875 136.45508 C 347.48245 139.1455 346.75409 141.88793 346.8457 144.67578 C 346.94061 147.56255 347.91437 150.35587 349.17773 152.95312 C 350.44109 155.55045 351.99758 157.99494 353.36133 160.54102 C 357.22588 167.75594 359.5013 175.725 361.00977 183.76953 C 362.60305 192.26632 363.36971 200.90798 363.56055 209.55078 C 363.89246 224.58162 362.49396 239.58913 361.57812 254.5957 C 360.93751 265.09252 360.53231 275.63421 361.36914 286.11719 C 361.81757 291.73485 362.6232 297.32377 363.77734 302.83984 C 361.42621 305.80658 358.99186 308.70647 356.47852 311.53711 C 350.48393 318.28848 344.02422 324.65014 336.92969 330.23438 C 333.61953 332.83976 330.12 335.30215 326.16406 336.75 C 321.60871 338.41723 316.55452 338.70073 312.2832 341 C 309.54118 342.47604 307.29132 344.69777 304.89258 346.68359 C 302.49385 348.66941 299.7863 350.49249 296.70117 350.91602 C 294.78844 351.17858 292.84214 350.88465 290.9668 350.42578 C 289.09146 349.9669 287.25763 349.344 285.37109 348.93359 C 281.4419 348.07882 277.27006 348.17754 273.47266 349.5 C 268.49232 351.23443 264.34098 355.04495 261.85742 359.69727 C 258.74994 365.51834 258.21197 372.36885 258.45703 378.96289 C 258.63731 383.81398 259.20576 388.64967 260.15625 393.41016 C 260.42887 390.0101 261.27833 386.65737 262.65625 383.53711 C 263.4763 381.68012 264.49773 379.84905 264.68945 377.82812 C 264.86834 375.94264 264.30402 374.05536 264.40625 372.16406 C 264.54919 369.51935 266.08948 366.98821 268.37305 365.64648 C 267.73438 366.80028 267.46603 368.15673 267.61719 369.4668 C 267.76837 370.77687 268.338 372.03565 269.22266 373.01367 C 269.7235 373.56737 270.32544 374.03445 271.00586 374.3418 C 271.68627 374.64915 272.44515 374.79253 273.1875 374.71289 C 273.84672 374.64218 274.4783 374.39911 275.06055 374.08203 C 275.64281 373.76493 276.18087 373.37396 276.71875 372.98633 C 277.25662 372.59869 277.79796 372.21095 278.38477 371.90234 C 278.97156 371.59375 279.61049 371.36402 280.27148 371.3125 C 280.89421 371.26401 281.52425 371.377 282.10547 371.60547 C 282.6868 371.8339 283.21968 372.17655 283.69141 372.58594 C 284.63488 373.40471 285.32642 374.47296 285.9375 375.5625 C 287.16656 377.7539 288.13125 380.11487 288.55273 382.5918 C 288.97422 385.06873 288.83359 387.6712 287.91992 390.01172 C 287.18203 391.90195 285.97176 393.56605 285.08789 395.39258 C 283.68894 398.2835 283.13735 401.53075 283.10352 404.74219 C 283.08159 406.83171 283.27147 408.9233 283.66992 410.97461 C 286.81703 409.39514 289.50377 406.90907 291.32031 403.89258 C 292.42424 402.05941 293.20454 400.05412 294.0625 398.09375 C 294.92045 396.13338 295.8762 394.18468 297.26953 392.56055 C 299.20906 390.29973 301.97386 388.76293 304.91797 388.31055 C 303.47718 390.30917 302.15142 392.39121 300.95117 394.54297 C 299.2841 397.53161 297.85834 400.65295 296.13477 403.60938 C 293.21302 408.6209 289.3782 413.18782 284.51953 416.35742 C 280.02668 419.28837 274.68176 421.02931 270.92188 424.85547 C 268.21922 427.60578 266.5516 431.26831 265.82227 435.05469 C 265.22927 438.13325 265.22927 441.32573 265.82227 444.4043 C 263.5312 446.37435 261.52154 448.67094 259.87305 451.20312 C 255.66621 457.66538 253.91285 465.63804 254.77344 473.30078 C 255.20242 477.12033 256.26054 480.86884 257.89062 484.34961 C 257.08623 480.25136 257.69431 475.88948 259.58984 472.16797 C 260.24452 470.88264 261.0454 469.67646 261.85742 468.48438 C 265.56226 463.04501 269.61856 457.70545 271.77148 451.48633 C 272.90427 448.21411 273.48294 444.74984 273.47266 441.28711 C 275.97837 444.58555 277.30159 448.76271 277.1543 452.90234 C 277.05448 455.70611 276.30761 458.44627 275.45508 461.11914 C 274.69246 463.51017 273.84069 465.8727 272.9043 468.20117 C 274.8444 467.83014 276.74635 467.26015 278.57031 466.50195 C 282.04179 465.05893 285.26124 462.89813 287.63672 459.98438 C 290.31714 456.69631 291.82906 452.56521 292.45312 448.36914 C 292.91321 445.27555 292.91321 442.11508 292.45312 439.02148 C 291.46688 439.90704 290.08301 440.33223 288.76953 440.1543 C 287.63659 440.00081 286.5686 439.40598 285.8418 438.52344 C 285.11501 437.6409 284.73612 436.47924 284.80273 435.33789 C 285.99 436.72864 287.79075 437.57709 289.61914 437.60547 C 291.06955 437.62815 292.4776 437.16555 293.86914 436.75586 C 297.2868 435.74964 300.79851 435.03363 304.35156 434.77148 C 310.62797 434.30841 316.9347 435.26416 323.04883 436.75586 C 327.37518 437.81138 331.63531 439.13554 335.79688 440.7207 C 336.2285 437.97132 336.9343 435.26502 337.89844 432.6543 C 339.79971 427.50602 342.72605 422.64783 343.44531 417.20703 C 343.87339 413.96883 343.48046 410.6266 342.3125 407.57617 C 344.54837 409.29064 346.29235 411.63929 347.28711 414.27539 C 348.28186 416.91149 348.52434 419.82568 347.97852 422.58984 C 347.01463 427.47109 343.72488 431.62504 342.5957 436.4707 C 342.13775 438.43593 342.04761 440.46464 341.86914 442.47461 C 341.69067 444.48458 341.41465 446.51722 340.61328 448.36914 C 339.77021 450.31742 338.38369 451.98125 336.89648 453.49609 C 335.40927 455.01094 333.80218 456.40945 332.39844 458.00195 C 327.57678 463.47201 325.47867 470.86211 324.74805 478.11719 C 324.2442 483.12047 324.37731 488.40466 326.73242 492.84766 C 328.49118 496.16564 331.45768 498.82545 334.94727 500.21289 C 333.471 495.74255 332.70382 491.03978 332.68164 486.33203 C 332.64649 478.91515 334.61354 471.24711 339.48047 465.65039 C 341.38822 463.45663 343.70633 461.62105 346.2793 460.26758 C 344.50255 462.0088 343.39932 464.42144 343.24414 466.9043 C 343.08895 469.38716 343.88358 471.91829 345.42969 473.86719 C 346.98587 475.82877 349.24839 477.16609 351.66211 477.83203 C 354.3182 478.56484 357.20954 478.50615 359.78516 477.52734 C 362.36079 476.54856 364.59348 474.63218 365.82617 472.16797 C 367.08022 469.66104 367.26426 466.73759 366.95898 463.95117 C 366.40348 458.88076 364.32369 454.03445 364.12695 448.9375 C 363.86862 442.24511 366.8568 435.91124 368.37695 429.38867 C 369.0053 426.69256 369.38478 423.93937 369.50977 421.17383 C 368.0872 421.73173 366.74586 422.4971 365.54297 423.43945 C 364.11748 424.55628 362.89132 425.91669 361.86133 427.40625 C 360.16296 429.86243 358.99468 432.68299 358.46094 435.62109 C 356.98207 431.84047 356.98207 427.50328 358.46094 423.72266 C 359.63403 420.72375 361.78899 418.0314 364.69336 416.64062 C 367.07723 415.49921 369.78033 415.2897 372.38281 414.82812 C 373.68405 414.59746 374.98075 414.29685 376.19922 413.78516 C 377.41758 413.27347 378.56157 412.54083 379.42578 411.54102 C 380.53263 410.26047 381.1318 408.58739 381.26953 406.90039 C 381.40726 405.2134 381.10339 403.51269 380.55859 401.91016 C 379.54894 398.94025 377.7463 396.31599 376.02539 393.69336 C 374.70508 391.68125 373.41464 389.63443 372.48633 387.41406 C 371.55803 385.19369 371.00017 382.77644 371.20898 380.37891 C 371.38968 378.30432 372.13097 376.32374 372.91016 374.39258 C 373.68935 372.46141 374.52032 370.52936 374.89258 368.48047 C 375.2672 366.41866 375.1652 364.30341 375.31055 362.21289 C 375.45591 360.12237 375.88639 357.96433 377.1582 356.29883 C 378.02122 355.16865 379.24986 354.32194 380.61328 353.91797 C 381.97669 353.51399 383.46724 353.55367 384.80664 354.03125 C 383.51279 354.48177 382.38922 355.40302 381.69141 356.58203 C 381.14475 357.50567 380.86088 358.56223 380.68555 359.62109 C 380.51021 360.67997 380.43783 361.75353 380.27539 362.81445 C 379.53198 367.66951 376.96046 372.11031 376.30859 376.97852 C 375.68551 381.63167 376.9315 386.50999 379.70898 390.29492 C 379.58407 387.45262 379.77429 384.59549 380.27539 381.79492 C 380.64979 379.70253 381.21151 377.6051 382.34766 375.80859 C 382.91574 374.91034 383.62667 374.09584 384.47461 373.45508 C 385.32254 372.81432 386.31112 372.35067 387.35742 372.16406 C 388.90632 371.88782 390.48921 372.22135 392.03906 372.49219 C 393.58891 372.76307 395.2197 372.96593 396.70508 372.44727 C 397.89346 372.03227 398.90094 371.16874 399.58984 370.11523 C 400.27874 369.06174 400.66239 367.82685 400.80469 366.57617 C 401.08929 364.07482 400.44204 361.57086 399.82227 359.13086 C 398.57328 354.21372 397.40413 349.17173 397.83984 344.11719 C 398.11598 340.91366 399.03144 337.79826 400.10547 334.76758 C 401.38818 331.14841 402.91219 327.59554 404.97266 324.35547 C 407.03313 321.11539 409.64975 318.18685 412.85352 316.07031 C 416.522 313.6468 420.92181 312.34605 425.31836 312.38672 C 421.21149 314.05375 417.55812 316.82092 414.83789 320.32031 C 412.935 322.76827 411.48613 325.56758 410.58789 328.53516 C 412.27722 325.75434 415.08392 323.67482 418.23633 322.86914 C 420.9219 322.18278 423.78431 322.40362 426.45312 323.15234 C 430.07896 324.16972 433.41938 326.15721 436.08398 328.81836 C 437.45716 330.18977 438.65681 331.73972 440.14258 332.98828 C 440.88544 333.61256 441.70188 334.15935 442.5957 334.53711 C 443.48952 334.91487 444.46562 335.11849 445.43359 335.05078 C 446.98131 334.94254 448.4264 334.13809 449.51562 333.0332 C 450.60485 331.92832 451.36638 330.53945 451.94922 329.10156 C 452.44358 327.88191 452.82147 326.60337 452.91992 325.29102 C 453.01857 323.97866 452.82656 322.62746 452.23242 321.45312 C 451.78753 320.5737 451.13414 319.81925 450.49805 319.06641 C 449.86195 318.31356 449.22775 317.53938 448.83203 316.63672 C 448.44486 315.75356 448.30248 314.77636 448.33203 313.8125 C 448.36227 312.84868 448.55881 311.89544 448.83203 310.9707 C 449.24865 309.56162 449.84608 308.18516 449.9668 306.7207 C 450.0473 305.74532 449.89991 304.72931 449.39844 303.88867 C 448.88737 303.03151 448.04342 302.41526 447.13867 301.99414 C 446.23389 301.57306 445.26105 301.32636 444.30078 301.05469 C 440.56056 299.9965 436.85577 298.49577 432.96875 298.50586 C 430.25044 298.51342 427.58587 299.26534 425.03516 300.20508 C 421.72491 301.42462 418.5276 302.9718 415.12109 303.88867 C 412.87079 304.49438 410.55499 304.81751 408.28125 305.32812 C 406.00751 305.83885 403.73863 306.55524 401.80469 307.85547 C 399.08008 309.68733 397.22995 312.52242 395.00586 314.9375 C 393.84395 316.19918 392.55756 317.36319 391.08008 318.23438 C 389.60261 319.10544 387.92211 319.67623 386.20703 319.69531 C 384.00155 319.71799 381.80224 318.7948 380.27539 317.20312 C 383.38345 316.64867 386.39489 315.56224 389.14062 314.00391 C 393.0815 311.76726 396.55023 308.42139 398.12305 304.17188 C 399.43311 300.6322 399.32958 296.59091 397.83984 293.12305 C 396.32864 295.36106 394.26823 297.22547 391.89062 298.50586 C 389.71446 299.67782 387.27497 300.35974 384.80664 300.48828 C 389.02167 298.58068 392.57063 295.23627 394.72266 291.14062 C 397.42725 285.99351 397.878 279.8889 396.99023 274.14258 C 395.87064 266.89567 392.73305 259.94418 392.74023 252.61133 C 392.74515 247.11159 394.52479 241.78693 396.31836 236.58789 C 398.11192 231.38885 399.95935 226.09739 400.10547 220.59961 C 400.30612 213.05567 397.29212 205.75929 396.99023 198.21875 C 396.72986 191.71475 398.49181 185.31635 400.31055 179.06641 C 402.12929 172.81643 404.03677 166.48371 404.07227 159.97461 C 404.0923 156.32582 403.51424 152.67413 402.37109 149.20898 C 398.9189 151.46325 396.06091 154.61671 394.15625 158.27344 C 391.8891 162.62609 391.0005 167.56023 390.47266 172.43945 C 389.74024 179.20976 389.64535 186.04794 390.18945 192.83594 C 388.16557 185.28217 387.30334 177.41839 387.64062 169.60547 C 387.77971 166.38376 388.12502 163.15486 388.98438 160.04688 C 389.84373 156.93882 391.23393 153.94495 393.30664 151.47461 C 396.69209 147.4397 401.61297 145.07424 405.77148 141.8418 C 410.14931 138.4389 413.71188 134.02157 416.25391 129.09375 C 417.24469 127.17311 418.08786 125.16442 418.58203 123.06055 C 419.07619 120.95667 419.2133 118.7507 418.80273 116.62891 C 418.16511 113.33369 416.17253 110.33455 413.41992 108.41406 C 412.10182 107.49443 410.62967 106.81691 409.2793 105.94531 C 407.92894 105.07375 406.66341 103.95231 406.05469 102.46484 C 405.60133 101.35703 405.54715 100.09785 405.86328 98.943359 C 406.1794 97.788865 406.85744 96.742428 407.75391 95.949219 C 408.80249 95.02142 410.11309 94.450831 411.40625 93.914062 C 412.6994 93.377294 414.0202 92.847518 415.12109 91.982422 C 416.63557 90.792324 417.62803 89.036762 418.19922 87.197266 C 418.7703 85.35777 418.95078 83.421361 419.08594 81.5 C 419.25265 79.130085 419.35319 76.729712 418.91602 74.394531 C 418.47886 72.05935 417.45873 69.768867 415.6875 68.185547 C 414.56 67.177622 413.16438 66.489683 411.70117 66.107422 C 410.60376 65.820556 409.46747 65.702559 408.33203 65.708984 z M 333.23828 94.421875 C 332.97882 94.900552 332.7832 95.413773 332.68164 95.949219 C 332.84628 95.433049 333.03548 94.92425 333.23828 94.421875 z M 408.10352 76.716797 C 406.37047 78.087556 404.85663 79.733135 403.63477 81.574219 C 402.66192 83.040109 401.87754 84.621911 400.99609 86.144531 C 400.11464 87.667114 399.11944 89.151267 397.80469 90.320312 C 395.44374 92.419613 392.25588 93.328399 389.12891 93.779297 C 386.00194 94.230195 382.81423 94.286913 379.73242 94.982422 C 375.58 95.919518 371.69958 98.031435 368.65625 101.00781 C 369.10215 98.821847 370.11561 96.754028 371.57031 95.0625 C 373.025 93.37101 374.91711 92.059129 377.01172 91.291016 C 380.02084 90.187545 383.30427 90.219334 386.5 89.974609 C 388.09786 89.852153 389.69863 89.655599 391.23828 89.210938 C 392.77793 88.766389 394.2614 88.064935 395.47266 87.015625 C 397.46551 85.289288 398.58011 82.768995 400.33008 80.796875 C 402.31537 78.559546 405.13455 77.080425 408.10352 76.716797 z M 336.98828 96.328125 C 336.79118 96.316786 336.59324 96.321073 336.39648 96.34375 C 335.45345 96.450333 334.59431 96.954541 333.87891 97.578125 C 333.16352 98.201709 332.5681 98.948015 331.92773 99.648438 C 331.49491 100.12186 331.03984 100.57498 330.56641 101.00781 C 330.8419 100.53291 330.86355 99.920358 330.62109 99.427734 C 330.37864 98.935149 329.88032 98.577292 329.33594 98.505859 C 328.81632 98.437828 328.28586 98.621112 327.85547 98.919922 C 327.42518 99.218883 327.08308 99.626567 326.77539 100.05078 C 325.08264 102.38441 324.30665 105.31462 324.34766 108.19727 C 324.38625 110.91335 325.13071 113.61678 326.48633 115.9707 C 328.30738 113.55721 331.23906 112.01913 334.25977 111.89062 C 335.04454 111.85661 335.82987 111.91368 336.61523 111.90234 C 337.40062 111.89101 338.19869 111.80597 338.92383 111.50391 C 339.67457 111.19134 340.32141 110.65305 340.80859 110.00195 C 341.29578 109.35085 341.62593 108.5898 341.82227 107.80078 C 342.21478 106.22249 342.07634 104.56196 341.83789 102.95312 C 341.60579 101.38617 341.26353 99.787339 340.38281 98.470703 C 339.94245 97.812423 339.36866 97.236393 338.67969 96.845703 C 338.16297 96.55279 337.57961 96.368466 336.98828 96.332031 L 336.98828 96.328125 z M 406.54883 108.78125 C 404.5234 113.18508 401.06727 116.91573 396.83203 119.27344 C 392.00331 121.96151 386.40878 122.81882 381.0918 124.32617 C 377.27878 125.40715 373.56614 126.84045 370.01562 128.60156 C 372.44718 125.66438 375.5196 123.25988 378.95508 121.60547 C 384.36905 118.99828 390.5123 118.29247 396.05469 115.9707 C 399.99289 114.32101 403.58859 111.85824 406.54883 108.78125 z M 408.10352 114.2207 C 410.29221 115.89299 411.79099 118.4439 412.18555 121.16992 C 412.58011 123.89598 411.86693 126.76598 410.24219 128.99023 C 408.89201 130.83861 406.98446 132.20216 405.02344 133.38281 C 403.06243 134.56346 401.00625 135.59837 399.16406 136.95703 C 396.27227 139.08978 393.96694 142.00876 392.55859 145.31445 C 392.7337 139.86347 395.25675 134.52694 399.35938 130.93359 C 400.73029 129.73284 402.25782 128.72666 403.70508 127.61914 C 405.15235 126.51163 406.54046 125.27995 407.52148 123.74414 C 408.41524 122.34492 408.94541 120.71577 409.04688 119.05859 C 409.14832 117.40142 408.81991 115.71849 408.10352 114.2207 z M 373.17773 136.69141 C 375.31345 136.66117 377.46135 137.28847 379.22266 138.5 C 376.51475 138.05235 373.65991 138.53854 371.25391 139.85938 C 368.66452 141.28067 366.61074 143.61437 363.87109 144.71875 C 361.83273 145.54046 359.49939 145.6058 357.41797 144.90039 C 355.33667 144.19483 353.52283 142.72384 352.4043 140.83203 C 354.5462 142.25703 357.27999 142.75966 359.78906 142.19141 C 362.11656 141.66428 364.14766 140.29454 366.20312 139.08203 C 367.73315 138.17948 369.32936 137.34352 371.06055 136.94531 C 371.75501 136.78544 372.46583 136.70199 373.17773 136.69141 z M 373.94141 154.37305 C 375.7239 154.34659 377.51634 154.8645 378.98633 155.86328 C 376.72629 155.4944 374.34595 155.89731 372.33789 156.98438 C 370.17677 158.15603 368.46036 160.07982 366.17383 160.99023 C 364.4726 161.6676 362.52622 161.72226 360.78906 161.14062 C 359.0519 160.55911 357.539 159.34474 356.60547 157.78516 C 358.39311 158.95991 360.67544 159.37668 362.76953 158.9082 C 364.71207 158.47367 366.40559 157.34332 368.12109 156.34375 C 369.39806 155.59971 370.73091 154.91032 372.17578 154.58203 C 372.75537 154.4505 373.34725 154.38174 373.94141 154.37305 z M 377.46875 174.5625 C 379.06698 174.53982 380.67415 175.00086 381.99219 175.88867 C 379.96577 175.56061 377.83174 175.91513 376.03125 176.88477 C 374.09352 177.92637 372.55407 179.63604 370.50391 180.44531 C 368.97853 181.04743 367.23337 181.09532 365.67578 180.57812 C 364.11819 180.0612 362.76087 178.98203 361.92383 177.5957 C 363.52668 178.63995 365.57355 179.01014 367.45117 178.59375 C 369.19291 178.20748 370.71182 177.20298 372.25 176.31445 C 373.39497 175.65307 374.58925 175.03986 375.88477 174.74805 C 376.40444 174.63088 376.936 174.57006 377.46875 174.5625 z M 377.5 193.81445 C 378.70252 193.79934 379.91064 194.13568 380.90234 194.78516 C 379.37764 194.54516 377.77268 194.80407 376.41797 195.51367 C 374.96012 196.27578 373.80233 197.52704 372.25977 198.11914 C 371.11206 198.55968 369.79694 198.59486 368.625 198.2168 C 367.45305 197.8385 366.43252 197.04943 365.80273 196.03516 C 367.00874 196.79915 368.54821 197.06834 369.96094 196.76367 C 371.27145 196.48096 372.41494 195.74773 373.57227 195.09766 C 374.43376 194.61376 375.33384 194.16468 376.30859 193.95117 C 376.6996 193.86575 377.09916 193.82012 377.5 193.81445 z M 380.81445 214.1582 C 382.03158 214.13931 383.25601 214.4825 384.25977 215.14062 C 382.71654 214.8976 381.0899 215.16328 379.71875 215.88086 C 378.24308 216.65324 377.07106 217.91938 375.50977 218.51953 C 374.34812 218.96601 373.01821 219.00235 371.83203 218.61914 C 370.64585 218.23571 369.614 217.43623 368.97656 216.4082 C 370.1972 217.18255 371.75566 217.45527 373.18555 217.14648 C 374.51196 216.86 375.66845 216.11592 376.83984 215.45703 C 377.71179 214.96656 378.62083 214.51318 379.60742 214.29688 C 380.00318 214.20995 380.40874 214.16387 380.81445 214.1582 z M 381.52734 232.40625 C 382.74447 232.38735 383.96695 232.73016 384.9707 233.38867 C 383.42748 233.14527 381.80279 233.40756 380.43164 234.12695 C 378.95597 234.89938 377.78396 236.16743 376.22266 236.76758 C 375.06102 237.21405 373.7311 237.25077 372.54492 236.86719 C 371.35874 236.48375 370.32493 235.68428 369.6875 234.65625 C 370.90814 235.4306 372.46658 235.70332 373.89648 235.39453 C 375.2229 235.10804 376.37939 234.36396 377.55078 233.70508 C 378.42273 233.21461 379.33372 232.75938 380.32031 232.54297 C 380.71607 232.45604 381.12163 232.41192 381.52734 232.40625 z M 378.55469 248.39648 C 379.58208 248.38137 380.61562 248.66485 381.46289 249.20898 C 380.16025 249.00791 378.78826 249.2241 377.63086 249.81836 C 376.38524 250.45687 375.39603 251.50585 374.07812 252.00195 C 373.09758 252.37121 371.97587 252.40094 370.97461 252.08398 C 369.97335 251.76688 369.10056 251.10569 368.5625 250.25586 C 369.59285 250.89596 370.90826 251.12246 372.11523 250.86719 C 373.23488 250.63021 374.21044 250.01537 375.19922 249.4707 C 375.93514 249.06527 376.70432 248.68861 377.53711 248.50977 C 377.87118 248.43795 378.21222 248.4014 378.55469 248.39648 z M 378.9082 263.97656 C 379.93558 263.96144 380.96914 264.24492 381.81641 264.78906 C 380.51377 264.58799 379.13982 264.80795 377.98242 265.40039 C 376.7368 266.0389 375.74954 267.08593 374.43164 267.58203 C 373.45109 267.95129 372.32743 267.98101 371.32617 267.66406 C 370.32491 267.34696 369.45409 266.68576 368.91602 265.83594 C 369.94638 266.47604 371.25982 266.7025 372.4668 266.44727 C 373.58644 266.21029 374.56395 265.59545 375.55273 265.05078 C 376.28875 264.64535 377.05588 264.26873 377.88867 264.08984 C 378.22274 264.01803 378.56574 263.98148 378.9082 263.97656 z M 378.15039 284.2207 C 379.0425 284.20936 379.94006 284.44934 380.67578 284.91211 C 379.54465 284.7409 378.35267 284.92726 377.34766 285.43164 C 376.26603 285.97476 375.40805 286.86516 374.26367 287.28711 C 373.41222 287.60119 372.43779 287.6269 371.56836 287.35742 C 370.69892 287.08794 369.94183 286.52553 369.47461 285.80273 C 370.3693 286.34718 371.51052 286.53936 372.55859 286.32227 C 373.53081 286.12082 374.37774 285.59802 375.23633 285.13477 C 375.87545 284.79007 376.54248 284.47049 377.26562 284.31836 C 377.5557 284.25751 377.85301 284.22448 378.15039 284.2207 z M 459.92383 301.50781 C 459.64514 301.51034 459.36732 301.52513 459.08984 301.55664 C 457.97993 301.6827 456.88039 302.07252 456.02344 302.78906 C 455.13182 303.53459 454.54369 304.60021 454.24219 305.72266 C 453.94069 306.8451 453.9106 308.02511 454.00391 309.18359 C 454.08778 310.22493 454.27333 311.27087 454.69531 312.22656 C 455.1173 313.18225 455.79219 314.04657 456.69727 314.56836 C 457.79707 315.20241 459.13923 315.28131 460.39648 315.10547 C 461.65373 314.92963 462.86502 314.51978 464.10156 314.23242 C 466.42071 313.69348 468.8767 313.59209 471.16992 314.23242 C 472.77853 314.68159 474.28445 315.49217 475.54492 316.58789 C 475.35351 312.52437 473.49693 308.56497 470.49609 305.81836 C 468.24823 303.76093 465.40539 302.38994 462.41992 301.7793 C 461.59913 301.61141 460.7599 301.50022 459.92383 301.50781 z M 375.63477 301.88672 C 376.52689 301.87538 377.42444 302.11536 378.16016 302.57812 C 377.02902 302.40729 375.83704 302.59324 374.83203 303.09766 C 373.75041 303.64074 372.89244 304.53125 371.74805 304.95312 C 370.8966 305.2672 369.92217 305.29292 369.05273 305.02344 C 368.1833 304.75396 367.4262 304.19158 366.95898 303.46875 C 367.85368 304.01323 368.99499 304.20538 370.04297 303.98828 C 371.0152 303.78683 371.86211 303.26408 372.7207 302.80078 C 373.35981 302.45609 374.02686 302.13643 374.75 301.98438 C 375.04008 301.92352 375.3374 301.89088 375.63477 301.88672 z M 366.41016 333.51562 C 367.35389 334.72383 367.98642 336.17398 368.23047 337.6875 C 368.47459 339.20102 368.33047 340.77512 367.81445 342.21875 C 367.12405 344.15025 365.80825 345.78835 364.43555 347.3125 C 363.06285 348.83665 361.59874 350.30302 360.51562 352.04492 C 359.41173 353.82025 358.73092 355.85685 358.54883 357.93945 C 357.49257 356.6102 356.85947 354.95075 356.75977 353.25586 C 356.66006 351.56097 357.09516 349.83845 357.98828 348.39453 C 359.28004 346.30614 361.41458 344.9003 363.04102 343.06055 C 365.33182 340.46931 366.56696 336.97073 366.41016 333.51562 z M 333.8457 354.85156 C 332.61098 356.89944 331.39356 358.95791 330.19531 361.02734 C 328.20591 364.46316 326.26055 367.93781 323.89844 371.12891 C 321.53634 374.32 318.72644 377.24208 315.31641 379.27539 C 311.53743 381.5287 307.07593 382.61916 302.68359 382.36328 C 307.75909 380.72424 312.37406 377.6805 315.87891 373.66016 C 318.25348 370.93634 320.10794 367.80198 322.33594 364.95703 C 325.50221 360.91401 329.42716 357.46838 333.8457 354.85156 z M 348.72461 361.30859 C 348.72877 363.50564 349.66156 365.68532 351.25 367.20312 C 352.52508 368.42156 354.1508 369.19256 355.71875 370 C 357.28669 370.80744 358.86915 371.70842 359.95312 373.09961 C 361.20941 374.71195 361.66299 376.85669 361.46094 378.89062 C 361.25888 380.9246 360.44757 382.85868 359.39258 384.60938 C 357.18772 388.26816 353.94713 391.19178 351.53125 394.71484 C 349.13027 398.21617 347.57624 402.29452 347.03906 406.50586 C 346.4591 399.78692 347.73577 392.91816 350.68945 386.85547 C 351.53913 385.11143 352.52665 383.42684 353.20508 381.60938 C 353.88352 379.79185 354.24108 377.79001 353.77734 375.90625 C 353.32301 374.06063 352.13264 372.49834 350.9707 370.99414 C 349.80876 369.48994 348.61647 367.92569 348.16211 366.08008 C 347.77088 364.49091 347.97525 362.76358 348.72461 361.30859 z M 343.66992 371.97656 C 341.79635 375.15702 339.92618 378.33866 338.05664 381.52148 C 335.81246 385.3421 333.47513 389.2715 329.91406 391.9082 C 325.79784 394.95595 320.2175 395.92261 315.31641 394.43555 C 319.81943 394.00057 324.15478 391.98391 327.38867 388.82031 C 331.49378 384.80445 333.75491 379.15021 338.05664 375.3457 C 339.70079 373.89161 341.61317 372.743 343.66992 371.97656 z M 308.57812 403.98047 C 309.55138 405.52531 310.07812 407.34796 310.07812 409.17383 C 310.07812 410.99968 309.55138 412.82235 308.57812 414.36719 C 307.4864 416.10008 305.87808 417.44629 304.18555 418.59961 C 302.49302 419.75293 300.69056 420.74395 299.0332 421.94727 C 296.00067 424.149 293.48274 427.05446 291.73438 430.36914 C 291.18899 428.01768 291.38281 425.501 292.2793 423.25977 C 293.17579 421.01853 294.77243 419.06298 296.78906 417.73633 C 299.17087 416.16943 302.06463 415.48588 304.36719 413.80469 C 305.8772 412.70217 307.08381 411.18921 307.82031 409.4707 C 308.55681 407.75222 308.82114 405.83427 308.57812 403.98047 z "
       transform="matrix(0.26458333,0,0,0.26458333,-13.009891,-169.6696)"
       id="path6163-3" />
  </g>
</svg>
