<?xml version="1.0" encoding="UTF-8"?>
<!-- Created with Inkscape (http://www.inkscape.org/) -->
<svg width="203mm" height="228.19mm" version="1.1" viewBox="0 0 203 228.19" xmlns="http://www.w3.org/2000/svg">
 <title>Wappen der ehemaligen Gemeinde Bödefeld</title>
 <g transform="translate(124.18 -34.739)">
  <path d="m-122.68 141.43v19.813h9e-3l-9e-3 0.18758c-2e-5 26.522 10.536 51.957 29.289 70.71 18.754 18.754 44.189 29.29 70.71 29.29v-120z" fill="#0f47af"/>
  <path d="m77.321 141.43v19.813h-9e-3l9e-3 0.18759c3e-5 26.522-10.536 51.957-29.289 70.71s-44.189 29.29-70.71 29.29v-120z" fill="#fff"/>
  <rect x="-122.68" y="36.428" width="200" height="105" fill="#da121a"/>
  <g stroke="#000">
   <g fill="#fcdd09" fill-rule="evenodd">
    <path d="m-73.972 220.35c-3.3448 0.41104-4.6288 0.9852-5.0587 4.0415 0.95276-0.77673 2.1017-0.88616 2.8776-0.89965"/>
    <path d="m-80.219 228.2c-1.2188-0.0384-2.1885 0.14-2.6868 0.75087-0.90388 1.1081-0.14532 2.7095-0.06614 4.4316 0.31749-0.87905 1.3101-1.3269 2.658-1.5266"/>
    <path d="m-74.539 235.81c-1.9468 1.8556-0.66696 4.6763 0.69284 6.0824-0.14486-1.2444 1.1718-2.4525 2.391-3.5105"/>
    <path d="m-58.027 235.28c1.1111 0.54149 1.4778 1.5976 1.4459 2.7395 2.4254-1.9633 2.0219-4.378 1.8448-5.9096"/>
    <path d="m-58.027 235.28c0.91837-1.7349 1.2388-1.8397 3.2907-2.8202 0.95819-0.89301 0.27628-2.4209-5.5019-2.4458 1.8514-2.8748 4.6829-5.4902 8.6022-7.4341 4.0834-2.0253 9.4987-8.0113 13.972-12.142l-4.4316-2.2489c-6.606 6.0495-12.645 12.605-20.174 17.793-2.3119 1.593-4.2637 1.4198-6.3956-0.26699-4.9527-3.8449-5.1898-6.7265-7.2753-5.0547-0.18291 1.6961 0.51573 1.9666-0.91242 3.4481 1.2842 1.6564 0.61021-1.8081 7.8366 4.7839-3.7023 0.28743-6.5137 0.4307-8.0433-0.41018-2.129-1.1704-3.2451-1.9804-3.16-0.27455 0.65921 1.6426 0.55012 2.4115-0.09496 3.6559-0.45545 2.0467 1.2443 0.77503 3.1877 0.47968 1.7791-0.27038 4.7071-0.50337 7.9122-0.14371-3.0179 1.1355-8.6479 4.0727-5.5437 4.186 1.5731 0.3758 2.3393 1.0191 2.9089 2.5282 0.74462 1.7278 1.8022-1.4965 2.7484-2.3149 2.9582-2.5587 5.1389-4.4972 6.3685-4.5315 2.2404-0.0614 3.9621 4.8609 4.7054 3.2135z"/>
   </g>
   <g fill-rule="evenodd">
    <path d="m-35.234 151.71c-1.9588 0.64941-3.8444 0.26777-4.6767 0.2798-1.7645 0.0249-4.114 2.4459-6.2755 2.4782-0.9625 0.0144-1.9541-0.36649-3.5575-1.9186 0.21939 2.184 1.0971 4.4816 5.596 4.237 3.9903-0.21474 2.8537-2.4283 8.8337-2.798 2.9078 1.2011 1.9062-3.4649 0.07993-2.2784z" fill="#da121a"/>
    <path d="m-29.039 160.46c-1.042-3.535-8.5523 0.31757-11.592 1.1592 0.39672-4.187 5.8655-5.7185 6.6753-8.474-2.0362-3.8031-4.5837-6.6391-10.513-3.0778 0.55285-7.4672 6.7282-5.1277 11.592-5.0764l3.9172 7.8744 1.3435 4.7548z" fill="#fcdd09"/>
    <path d="m-109 145.69c-0.208 8.6911 5.0822 10.742 11.633 11.617 5.0618 0.67594 10.961-0.0657 14.511-0.40546-1.2965 2.2062-0.57034 3.26 2.8638 4.0269-7.5008 3.064-22.842 2.8481-28.924 1.6767-1.3025 7.4972 3.1024 10.398 11.581 10.171 3.5913-0.0959 6.8202-0.18299 11.662-1.2281 0.04066 0.75012-0.92301 2.6512 3.004 2.4652-1.675 1.2545-3.4109 2.9242-1.031 5.7129-3.8173-0.12524-6.0887 1.8205-9.0937 3.446-2.7475 1.4862-8.553 2.5766-14.204 0.78521-0.7185 6.1856 6.1474 10.755 10.922 10.618 7.3178-0.20738 16.077-7.4686 20.738-9.0897-2.5758 4.9608-4.1004 7.8309 2.8703 4.3599-0.79063 1.5165-17.212 19.224-26.991 17.799 3.9373 4.625 15.59 16.937 34.367-13.711-0.3097 4.2401 0.74314 7.4131 4.6469 3.916-1.2476 6.8532-2.9823 10.571-10.889 17.485 7.7486 2.1804 17.255-0.59153 19.905-18.856 1.7831 4.8676 3.1174 2.356 4.615-0.81056 0.44598 2.3139-0.23982 5.5214-1.4555 8.7206 3.0697-0.51792 6.1861-3.1822 6.7075-7.1741 1.1336-2.2935 2.4188-3.8468 4.1688-5.2352 0.28469 2.1209 1.0599 4.7422 1.9188 7.0298-2.9374 1.2003-5.5365 3.2748-6.923 6.3007-1.4851 3.2411-6.2512 5.9428-8.0432 7.3202 2.748-0.0479 5.422 0.0704 9.0305-1.9137-1.997 3.3005-2.1282 4.8164 0.98171 3.232-1.852 2.7873-2.2649 5.3047-0.56123 7.4253 1.956-4.6296 4.8098-9.029 8.9749-11.228-0.01323 1.3185-0.19852 3.4932 0.41434 5.0801 1.2-1.017 2.0478-1.1259 2.9723-0.7012 0.13555 2.9344-0.06406 8.2581-0.70284 12.468-0.73237 4.8268-3.8577 9.4724-9.95 9.3035-6.375-0.17915-7.0992-5.9544-3.0461-10.096-3.943 0.41145-8.9226 1.7763-5.1051 11.11-6.2593-0.72501-10.104 2.4339-11.248 9.9376 4.2989-4.6556 10.474-3.2124 18.674-3.952-2.9976 1.9785-6.0707 4.8567-5.6455 8.2338 0.38664 3.0711 4.1164 5.5987 8.5397 1.7472-6.662-3.3864-0.05995-6.361 3.2823-10.204 2.292-2.6354 4.188-5.7004 6.4698-8.5905 0.54142 4.5612-4.1589 11.952-7.5085 14.643 2.4869 0.15578 4.7535-0.71651 6.5749-3.6662 0.42164 4.2785 0.04217 8.6011 5.1269 12.668v-112.73c-3.0768-1.6051-6.6623-0.44277-9.7391-0.41366-0.1215 2.3173-0.61846 4.2648 0.05493 5.853 1.1444 2.6994 7.2699 5.8048 3.5825 9.4232 0.47464 4.0968-0.35391 7.8212-1.4183 11.478-1.6077-0.5205-3.0157 0.96543-2.1614 4.9083-3.1431-1.0907-3.4416 2.3332-3.7107 4.7443-2.5691-2.8847-5.6005-4.4735-9.1959-3.6047-9.5111 2.2982-15.032 3.2693-16.801 1.2296-3.486-4.0203 2.5515-6.9984 1.4025-8.7742-2.373-3.6675-12.874 2.8541-13.368-6.1578-0.40386-7.4319 13.996-9.546 14.14-14.358 0.19809-6.4904-18.99-1.7328-26.569-4.1402 2.324 2.377 1.5263 3.2626-1.6442 3.3475-5.9356 0.15903-15.252 1.2004-20.407-3.2455z" fill="#fff"/>
   </g>
   <g fill="none">
    <g stroke-linecap="round">
     <g stroke-linejoin="round" stroke-width=".75">
      <path d="m-100.45 152.23c5.891 2.5734 17.55 1.4221 22.772 1.3924"/>
      <path d="m-102.53 167.13c4.7181 1.8571 11.163 1.3808 15.554-0.97357"/>
      <path d="m-99.436 188.3c7.6882 0.65337 12.185-1.823 18.051-4.4456"/>
      <path d="m-89.638 208.76c7.4377-1.7505 13.674-6.7083 18.508-13.837"/>
      <path d="m-62.733 210.84c3.0087-3.299 5.2919-6.8339 6.7301-10.944"/>
     </g>
     <path d="m-76.744 167.84c-3.5276 1.8386-4.9315 3.5655 1.746 4.867-4.5124 3.6766-2.6078 4.328 2.3275 3.5508-3.0191 5.5585-0.87479 6.3096 3.9392 4.5752-1.6886 4.661-0.18973 5.999 4.4842 4.0267-1.0243 7.2274 3.3196 3.9485 5.698 1.9819-0.03231 7.8498 3.3389 3.0949 5.1907 1.2239 2.9692 8.5158 4.6955 2.8927 6.6321-0.33733 2.2972 3.6992 4.2472 2.9715 6.004-0.22026" stroke-width=".75"/>
     <path d="m-83.851 162.11c-5.2216 4.2918-3.6601 4.8227 2.3205 5.8147-1.9403 0.79517-3.0847 1.756-4.1697 3.497" stroke-width=".75"/>
     <path d="m-83.8 179.77c2.2061 0.13903 4.1956 0.26014 5.663 0.13839-5.3137 4.2219-3.9452 8.1189 1.4224 6.0767"/>
     <path d="m-72.175 189.62c-0.59949 7.5162 3.4714 6.1781 7.0347 4.0322"/>
     <path d="m-60.194 197.39c1.3104-0.85565 2.1183-1.6757 3.0475-2.6584-0.93393 5.3697 1.3923 7.6494 5.6117 1.411"/>
     <g stroke-width=".75">
      <path d="m-46.716 195.06c0.48347-0.76874 0.80383-1.2642 1.1184-2.5569 0.18293 5.522 4.0829 3.9943 5.4087 2.3756"/>
      <path d="m-73.142 154.54c-5.2994-0.38475-4.0976 3.4823-2.4578 4.0568"/>
      <path d="m-76.416 160.79c-5.2994-0.38475-3.6346 3.0854-1.9948 3.6599"/>
      <path d="m-69.14 148.76c-5.564-0.38475-7.074 3.813-1.2672 3.726"/>
      <path d="m-74.961 148.76c-3.2927-0.23906-11.815 3.3314-2.7596 4.799-2.9266 1.0216-4.0489 1.9595-4.7251 2.9618"/>
     </g>
     <g stroke-linejoin="round">
      <g stroke-width=".75">
       <path d="m-85.958 148.48c0.40112 0.25842 4.1224 0.62839 5.5084 1.3262"/>
       <path d="m-54.853 244.54c1.9504-4.3573 6.284-5.3126 14.932-4.7922"/>
       <path d="m-39.971 243.25c1.9504-0.65328 4.4982-2.5346 7.0608-4.9906"/>
       <path d="m-27.238 234.42c0.69368-2.2407 1.7201-5.048 3.8859-7.6364"/>
       <path d="m-35.374 198.97c0.69368 3.5799 3.3076 9.9666 6.3333 15.183"/>
      </g>
      <path d="m-36.928 181.08c-2.5643 2.8532-2.3601 5.0937-0.12306 7.8446-0.72528 1.126-0.77081 1.7372-0.22421 2.6423"/>
     </g>
     <g stroke-width=".75">
      <path d="m-36.862 188.88c1.8988 0.75728 5.4104 11.865 7.0174 14.726 2.4674-2.9926 4.0163-5.2284 6.1948-8.3401"/>
      <path d="m-33.158 195.47c1.5485-1.698 3.558-5.2239 5.3736-8.0145 1.7218-2.6465 2.1798-4.3079 4.2669-6.3024" stroke-linejoin="round"/>
      <path d="m-36.862 188.88c1.8748-1.226 3.0333-2.4353 4.7751-4.4755 1.5616-1.8291-0.45826-1.7569 3.5087-5.4572 0.96626-0.9013 0.05316-2.9022 0.88606-4.2439 0.70694-1.1388 3.0932-3.2138 4.3068-4.3735" stroke-linejoin="round"/>
     </g>
     <g stroke-width=".75">
      <path d="m-32.695 176.73c1.2505 1.3762 1.3887 3.547 1.425 5.7905-1.0483 2.6621 0.72483 5.0967 1.9767 7.4949 0.31763 4.007 0.74861 6.5117 2.7392 9.2254"/>
      <path d="m-33.326 185.78-2.987-3.9466"/>
      <path d="m-28.498 178.97c1.3321 1.3417 2.0968 3.1562 2.3707 5.3796"/>
      <path d="m-30.879 171.96c0.81981 1.0732 1.7055 2.2122 2.7014 3.4615"/>
     </g>
    </g>
    <path d="m-30.466 147.68c0.57076-0.85766 2.5905-0.7529 3.5205 0.17666s1.3814 2.4412 0.48951 3.2866c-0.89194 0.84537-2.551-0.0466-3.2167-0.62935-0.66569-0.58277-1.3609-1.981-0.7933-2.8339z" stroke-width=".75"/>
   </g>
   <g stroke-linecap="round">
    <ellipse cx="-27.697" cy="148.82" rx=".64683" ry=".6818" stroke-width=".75"/>
    <ellipse cx="21.041" cy="74.948" rx="29.465" ry="29.664" fill="#fcdd09"/>
    <path d="m-26.093 106.42c-0.19042 0.77525-1.1588 1.887 1.9162 3.088-1.8098 1.4359-0.85088 3.5414 3.9605 3.5389-1.4665 1.8478 3.6558 1.3738 5.4653 1.7378 0.52234 1.3019 0.63926 3.9624 0.474 6.4721l9e-3 0.0334 2.3023 0.84416c-0.12039-2.753-0.27808-5.4101 0.0251-6.9298 1.8985-1.3987 5.4844-3.5987 4.3804-5.3958 1.8282-0.68978 3.6479-3.1781 3.0993-3.8829-0.60594-0.77849-4.041-0.47212-5.9082 1.3956 0.0759 0.86351 0.15687 2.4482-0.6491 3.4323-1.2551 1.2652-1.7307-0.1292-1.853-2.5832-0.0792-1.5893 1.1634-2.0594-0.48064-3.2882 1.5778-0.74745 2.458-1.5788 2.3393-3.0228-0.10182-1.2395-1.6928 6e-3 -2.1967-1.1417 2.0845-3.4613 0.17565-5.6531-1.2281-5.6127-1.2684 0.03652-2.4402 2.451-2.1857 4.141 0.10642 1.2632-2.7375 1.4422-2.657 2.9393 0.0615 1.1441 3.3189 1.6708 2.0133 3.969 1.7986 1.7609 2.9962 3.9116 2.9571 6.0809-1.545-0.78383-3.6426-2.1906-4.8154-3.542-0.15483-2.3081-2.6015-4.1336-4.0183-2.2858-2.023-2.3695-2.4051-1.091-2.9497 0.0122z" fill="#fff" fill-rule="evenodd" stroke-linejoin="round"/>
    <path d="m-22.557 140.94c1.7739-7.1164 4.061-13.72 7.0524-19.618 0.75925-0.97555 2.4249-1.0592 2.5309 0.34563 1.4175-1.2502 2.2069-0.30212 3.0338 0.51501 0.43088-1.1561 0.64834-2.8476 1.8864-3.8325 4.9092-3.9054 5.9914-8.8233 8.035-11.569 2.7913-3.7506 2.8857-1.2613 6.7727-10.078-0.64985-2.5218-1.2773-5.0436-1.3305-7.5654-0.9724-3.016-2.5559-6.7359-2.3324-10.051-0.68837-1.6095-1.2838-3.7563 0.25794-5.2952-0.71197-1.8228-1.2886-3.6456 0.35843-4.4405-0.59878-1.3396-0.59497-2.5856 1.2317-3.5472-0.74007-1.3177-0.51703-2.4643 0.2999-3.9532 1.7777-3.2401 3.8802-5.5705 8.1023-6.3355 1.6231-0.29409 4.2608 0.07479 6.2757 0.07341 1.0546-7.94e-4 1.9781-0.33596 3.1527-0.24658 0.88249 0.06715 2.1679 0.33007 3.6496 1.1814 1.7633 0.23928 3.2618 0.99912 4.1537 2.3277 1.3986 0.7128 2.6726 1.6269 3.7575 2.6868 0.85839 0.57275 1.5346 1.4677 2.0476 2.5311 0.96448 0.85273 1.692 1.6841 1.993 2.6839 1.3016 1.0402 0.85619 2.2558 1.2208 3.2445 0.67053 1.2201 0.37039 2.6697-0.28811 4.1983 0.46839 2.5891 1.5148 5.1782-0.0267 7.7673 1.8159 1.6944 2.1674 4.8723-1.3111 6.9898-1.0785 1.6561-2.0682 3.2497-2.6528 5.1527 1.6241 2.2463 3.6662 4.996 3.8002 9.0304 2.5336 0.19903 4.4341 1.7008 6.0063 3.503 5 5.7314 8.1754 4.9882 9.8204 6.2858 5.1188 4.0376 10.963 17.666 14.421 28.016z" fill="#fff" fill-rule="evenodd" stroke-linejoin="round"/>
    <ellipse cx="-70.14" cy="75.546" rx="29.465" ry="29.664" fill="#fcdd09"/>
   </g>
   <path d="m-114.62 140.94c1.2287-6.2895 2.9233-9.9016 5.0822-13.418 1.0779-9.1898 6.4084-13.01 10.309-14.464 4.5399-6.6238 8.4161-8.9331 11.897-9.6203 1.1679-0.23059 1.7769-3.3015 1.5527-6.2772-0.70256-2.5622-1.3842-5.4643-1.3671-8.4603-0.16993-2.8753-1.2476-5.4962-1.1288-7.8575-0.83341-0.78202-0.32507-2.5298 0.26826-4.0776 0.38972-1.0166-0.78149-1.5045-0.63821-3.304 0.14309-1.7971 5.5314-14.329 11.474-13.551 1.8407-1.9172 3.1824-3.4174 8.2241-3.2748 3.9701-0.31674 7.3939 1.3178 10.533 3.1251 6.1425 3.5366 7.8948 6.8587 7.9257 11.585 0.09612 14.67-5.3446 20.142-4.7219 27.297 1.7493 2.8846 1.8193 6.0491 1.8781 9.2155 2.6343 1.4326 4.5039 3.6643 5.5288 6.8017 5.1443 3.6361 7.206 8.7824 8.2104 15.264 2.4414 2.8843 4.3315 6.8632 5.4539 11.018z" fill="#fff" fill-rule="evenodd"/>
   <g fill="none">
    <g stroke-linecap="round">
     <path d="m-61.566 85.126c1.0428-1.0424 2.3721-2.3716 3.7743-2.1199" stroke-width=".5"/>
     <g stroke-linejoin="round">
      <path d="m-94.017 120.13c-0.0011 9.4505-0.92362 9.472-0.9163 10.398 5e-3 0.63486 1.0929 0.1662 1.1326 9.8231"/>
      <path d="m-89.16 124.74c-1.5836 1.6957-2.9872 4.187-4.8249 8.4301"/>
      <path d="m-88.811 129.82c-1.945 0.88838-3.5219 1.8304-5.1728 4.2151"/>
     </g>
    </g>
    <path d="m-87.451 103.34c1.8151 8.6934 4.4733 12.055 9.3793 18.127 3.6559 5.5755 6.9042 11.639 9.3338 18.147 2.514-5.5795 5.029-11.158 8.1063-16.456 3.3815-5.1687 5.3947-10.064 7.3643-14.95"/>
    <path d="m-80.203 94.905c-1.6091 1.3576-3.1393 1.7824-3.1593 7.0273-0.01865 4.8978 0.95561 4.8981 2.7373 7.7805 3.7295 6.0338 10.125 13.941 11.819 20.561 2.7317-8.1061 10.325-14.119 10.506-24.358 0.08281-4.6789-0.52467-6.3172-3.7295-9.4958" stroke-linecap="round"/>
    <path d="m-59.058 110.91c-6.8691 3.9112-17.475 2.9627-19.631 1.4072" stroke-linejoin="round"/>
    <path d="m-60.441 115.05c-4.1468 2.644-13.127 2.2627-15.543 1.5938"/>
   </g>
   <path d="m-40.438 140.45c0.04479-1.0198 1.969-6.6435 2.0977-9.1051 0.14557-2.7824-0.49138-3.9007-1.8809-1.6311 1.6998-7.7138-0.33785-5.8133-0.95319-6.9252-0.70218-3.5931-1.5722-3.7195-2.8493-2.1326-1.7465 6.2687-0.99843 16.337-6.9947 16.449-5.1447 0.0981-1.7773-11.758-8.1746-11.684 0.75541 5.3191 0.96118 10.309 0.84132 15.353" fill="#fff" fill-rule="evenodd" stroke-linecap="round" stroke-linejoin="round"/>
   <g fill="none">
    <path d="m-41.541 121.34c-0.67474 5.9136-1.7651 10.595-3.8297 16.184" stroke-linecap="round"/>
    <path d="m-40.178 129.74-2.8126 8.5459" stroke-linecap="round" stroke-linejoin="round"/>
    <path d="m-45.111 126.53c-0.60629-1.759-2.4767-3.8766-3.741-4.0551l0.44858-5.7976-3.8383-0.13892 0.63246 5.9366c-1.8148 0.27983-4.1971 3.3703-4.1898 5.1152"/>
   </g>
   <path d="m-46.864 115.69c0 0.80612-1.5993 0.70314-3.5698 0.70314s-3.5698 0.10298-3.5698-0.70314c0-0.80613 1.5993-1.0277 3.5698-1.0277s3.5698 0.22155 3.5698 1.0277z" fill="#fff" stroke-linecap="round" stroke-linejoin="round"/>
   <g fill="none">
    <path d="m-45.814 130.64c-1.5191 4.0979-5.9918 5.3311-8.5388 2.322" stroke-width=".9375"/>
    <g stroke-linecap="round" stroke-linejoin="round">
     <path d="m-77.627 87.224c-0.6799-0.17796-1.2155 0.11592-1.6108 0.78589 0.4541 1.7604-1.3903 3.3484-0.66342 8.3552 1.041 7.1206-1.4157 7.5111-2.7953 9.8923" stroke-width=".7"/>
     <path d="m-67.588 96.958c-4.6251 0.06134-10.777-3.5239-12.585-11.732l0.03778 0.03011c-1.4939-1.8982-2.73-6.9325 1.3435-6.2364-2.2873-1.0665-0.61807-2.571-0.60785-4.5704-1.1449-2.2032-0.44296-5.2217 1.4057-7.395l4.5887 0.38239c2.5064-2.1039 6.3658-4.4112 10.936-4.0533 2.8454 1.9622 5.3374 4.5135 7.5713 7.4949-0.67051 2.7533-1.6004 7.6758-2.3708 11.701-0.11232 6.1652-1.9754 7.1703-4.1779 11.91-0.80304 1.7281 0.19434 2.3863-6.1422 2.4686z"/>
     <path d="m-55.157 98.772c-1.7457-2.2328-3.4414-4.368-5.5902-5.5929" stroke-width=".9375"/>
     <g stroke-width=".7">
      <path d="m-79.901 91.757c-1.9656 0.10164-4.2109 1.2994-5.9731 3.8421"/>
      <path d="m-81.278 83.115c-0.97655 5.0397-3.7823 6.5364-5.57 8.5838"/>
      <path d="m-80.896 79.215c-1.5946 2.6935-4.5659 1.9266-6.8488 5.5522"/>
      <path d="m-70.523 65.414c-3.4597-1.0914-6.3563-1.3557-7.7488 0.93214-2.8396-1.3672-4.267 2.6949-4.3059 5.6484-0.02735 2.0797-0.29908 5.0547-5.8553 9.7895"/>
      <path d="m-51.299 80.821c-0.71247-3.118-3.1399-4.6195-4.478-6.3784"/>
      <path d="m-54.587 71.031c1.4449 1.0427 2.6156 1.9903 3.8582 3.6402"/>
      <path d="m-50.916 67.972c-1.941-1.6342-3.5074-0.15378-4.7147-1.4126-3.181-3.3166-3.6552-2.5567-3.9696-1.1419"/>
      <path d="m-58.699 59.747c-1.9036 0.05808-4.1522 0.97702-3.0262 4.0298"/>
      <path d="m-61.298 58.54c-1.953 1.1186-3.8644 2.2581-3.3974 4.5867"/>
     </g>
     <path d="m-66.681 76.919c-3.9359-3.4159-6.6001-1.2534-8.2241 0.50259"/>
    </g>
   </g>
   <path class="Schwarz Rand2" d="m-69.291 80.721c0-0.42685-0.35901-0.77288-0.80187-0.77288-0.44289 0-0.8019 0.34603-0.8019 0.77288s0.35901 0.77288 0.8019 0.77288c0.44286 0 0.80187-0.34602 0.80187-0.77288z" fill-rule="evenodd" stroke-miterlimit="10" stroke-width=".46875"/>
   <path d="m-58.709 75.317c-4.0482-0.59262-4.6977 1.6825-4.3313 4.4331 0.36306 2.7258 2.2454 6.5739-0.09485 7.2091" fill="none" stroke-linecap="round"/>
   <path class="Schwarz Rand2" d="m-58.517 80.028c0-0.42684-0.35901-0.77285-0.80187-0.77285s-0.80187 0.34601-0.80187 0.77285 0.35901 0.77285 0.80187 0.77285 0.80187-0.34601 0.80187-0.77285z" fill-rule="evenodd" stroke-miterlimit="10" stroke-width=".46875"/>
   <path d="m-68.637 90.672c2.2095 0.11366 4.0776 0.25887 6.3481-0.0222 0 0-0.13092-1.0774-2.3569-1.1035-2.2259-0.02609-3.8964 1.133-3.9913 1.1257z" fill-rule="evenodd" stroke-linecap="round" stroke-linejoin="round" stroke-width=".65625"/>
   <g fill="none" stroke-linecap="round">
    <g stroke-linejoin="round">
     <g stroke-width=".7">
      <path d="m-78.841 81.024c0.14827 1.5964-0.0098 3.0164-1.2626 4.1226"/>
      <path d="m-52.294 85.078c-0.71247-3.118-2.9728-4.4339-4.3109-6.1927"/>
      <path d="m-52.868 86.045c-1.7348-0.17482-2.6122-0.4312-5.7592 3.1471"/>
     </g>
     <path d="m-61.782 103.91c-1.149-2.5975-0.75628-5.4287-1.9936-7.1177" stroke-width=".9375"/>
    </g>
    <path d="m-68.874 77.891c-2.5814 0.04011-4.5862 1.1738-4.2325 3.888 0.18698 1.4351 3.1732 1.8099 4.1482 2.2229" stroke-width=".5"/>
    <g stroke-linejoin="round">
     <path d="m-13.032 121.86-4.9826 14.142"/>
     <path d="m-10.062 137.28c0.33137-2.4917 1.3471-5.0065 1.7838-7.4785 0.69106-3.9117 0.71781-7.1889-0.34018-7.6347-1.5564-1.72-3.4332 6.8176-5.2841 14.522"/>
     <path d="m-7.5495 125.06c3.2201-3.0396 2.331 5.2069 1.5275 15.399"/>
     <path d="m39.049 103.13c-1.688 5.0758-1.8018 11.501-1.3697 18.394-7.4118 1.4062-14.57 3.872-18.689 19.048"/>
     <path d="m38.364 105.99c-1.8353 4.2753-4.5439 8.3356-7.7238 12.201" stroke-width=".9375"/>
     <path d="m47.044 123.01c-3.6816 4.5588-5.9837 10.497-6.9242 17.797"/>
     <path d="m47.844 116.5c-4.4952 5.016-6.3093 9.7639-4.64 13"/>
     <path d="m3.0723 103.7c1.1381 6.8242-0.28927 13.347-4.3288 19.562 7.8843 2.8381 15.254 9.0292 16.25 15.482"/>
     <path d="m3.0723 113.53c1.5082 2.6959 2.2961 4.4314 2.8981 5.919"/>
     <path d="m30.369 94.339c9.2992 8.6222-6.8688 24.087-12.315 39.481-4.6446-10.55-19.705-28.137-3.518-33.447"/>
     <path d="m9.6967 117.07c4.2406-1.8084 12.205-1.5033 17.974-1.3906"/>
     <path d="m25.458 119.35c-4.8252 0.11947-11.042-1.0153-14.005 1.4647"/>
     <path d="m21.346 109.87c-1.3563 1.1601-2.7126 0.96483-4.0689 0.0941"/>
     <path d="m7.7551 71.953c-2.0818 4.9693-0.88606 13.033 3.5812 20.647 0.81401 1.3874 0.8492 2.8899 1.3156 4.0149 1.3455 3.2457 2.5973 3.8416 4.7535 3.7706 6.8496-0.22553 11.933-4.4827 14.858-9.3195 0.49871-2.132 2.3491-3.7809 3.0809-5.3769 0.83238-1.0779-4.0825-3.1546-1.7338-8.959"/>
     <path d="m15.065 99.936c-0.0566 2.5387-0.43373 5.3981-1.0994 8.5459" stroke-width=".9375"/>
     <path d="m29.57 94.796c1.5077 2.3748 0.69041 5.2146 0.84225 7.8606"/>
     <path d="m33.225 77.778c1.6405 1.4182 3.2267 2.8546 5.7534 3.9774" stroke-width=".7"/>
     <path d="m35.509 85.202c2.4092 0.48593 2.1356 2.4624 1.8702 4.4342" stroke-width=".7"/>
     <path d="m35.166 93.882-2.6984-2.8754" stroke-width=".9375"/>
     <g stroke-width=".7">
      <path d="m32.425 69.327c0.20941 1.6684 3.263 3.3369 6.7813 5.0053"/>
      <path d="m30.141 66.928c2.8041 0.06348 5.7697 0.61115 9.1798 2.4926"/>
      <path d="m29.113 61.103c-2.7202 4.892-5.1468 2.7406-7.5693 0.4883-2.4671 1.8791-5.0353 4.1405-4.8372-4.049"/>
      <path d="m13.351 55.849c0.18852 3.8526-1.2763 9.6993 2.327 7.8606"/>
      <path d="m9.5825 57.106c0.71078 2.8168-0.0605 10.327 3.8118 6.3759"/>
      <path d="m5.2424 65.786c1.4944 0.99737 4.14 1.611 2.2128 3.749"/>
      <path d="m3.6695 69.391c1.1273 0.52017 2.7729 1.705 3.7857 4.027"/>
      <path d="m7.0698 82.804c-1.082-1.7054-2.3399-2.8827-3.7263-3.6749"/>
     </g>
     <path d="m12.552 96.281c-2.4255 2.6309-4.7873 6.2112-4.9826 9.6881"/>
     <path d="m11.067 92.398-4.2974 4.32" stroke-width=".9375"/>
     <path d="m19.032 87.695c0.24616 1.2976-1.2399 1.6243-2.2704 1.5986-3.2532-0.08155-2.2565-4.1336-0.85392-10.457 0.87054-3.9244-3.6951-4.8973-8.3383-2.2205"/>
     <path d="m21.975 86.444c0.76375 1.1422-4.1734 2.8893-3.3541 2.3818" stroke-width=".9375"/>
    </g>
   </g>
   <path class="Schwarz Rand2" d="m12.523 81.055c0-0.4689-0.39407-0.84901-0.88021-0.84901-0.48612 0-0.88022 0.38011-0.88022 0.84901s0.3941 0.84901 0.88022 0.84901c0.48614 0 0.88021-0.38011 0.88021-0.84901z" fill-rule="evenodd" stroke-miterlimit="10" stroke-width=".46875"/>
   <path class="Schwarz Rand2" d="m23.359 81.189c0-0.46888-0.39407-0.84898-0.88019-0.84898s-0.88019 0.3801-0.88019 0.84898 0.39407 0.84898 0.88019 0.84898 0.88019-0.3801 0.88019-0.84898z" fill-rule="evenodd" stroke-miterlimit="10" stroke-width=".46875"/>
   <g stroke-linecap="round" stroke-linejoin="round">
    <g fill="none">
     <path d="m28.256 76.974c-2.4604-2.4702-5.9486-2.1687-8.5232-0.99994"/>
     <g stroke-width=".7">
      <path d="m33.321 73.633c0.20942 1.6684 3.2631 3.3369 6.7813 5.0053"/>
      <path d="m29.902 64.01c1.9821-1.0539 2.3134 3.1469 7.541 1.9032"/>
      <path d="m6.0349 61.224c0.96911 0.97204 0.92061 2.134 1.7166 2.7895"/>
     </g>
     <path d="m13.505 93.069c2.0247 0.4436 6.0444 0.43319 8.1741 0.19382"/>
     <path d="m14.747 82.085c-2.6023 0.92683-3.9259 1.1548-5.3885 0.6292" stroke-width=".5"/>
     <path d="m25.161 82.266c-1.072 1.0204-2.879 1.7537-4.8188 0.37596" stroke-width=".5"/>
     <g stroke-width=".7">
      <path d="m10.174 80.016c1.8462-0.99425 2.88-0.83014 4.8821 0.44706"/>
      <path d="m7.1985 80.817c0.89657-1.8173 3.3865-3.679 6.0849-2.5918"/>
      <path d="m20.398 80.43c1.8462-0.99425 4.716-0.64022 6.718 0.63698"/>
      <path d="m14.321 95.492c1.4756 0.33894 2.5034 0.36134 4.059 0.19382"/>
     </g>
     <g stroke-width=".5">
      <path d="m17.03 91.941 0.0842 1.1338"/>
      <path d="m14.774 91.796-0.30326 1.0037"/>
      <path d="m21.799 78.045c0.98219-0.20734 1.6585-0.18986 2.4763 0.03555"/>
     </g>
     <path d="m60.221 140.12c0.14862-2.5338 0.10412-5.3112-0.11263-7.845" stroke-width=".65625"/>
    </g>
    <path d="m59.018 140.06c1.0658-1.5037 1.9262-4.4654 2.1864-5.1958" fill="#fff" fill-rule="evenodd" stroke-width=".65625"/>
    <g fill="none">
     <path d="m-71.787 80.135c1.4002-0.60394 2.4573-0.66226 3.6763-0.2237" stroke-width=".28125"/>
     <path d="m-74.709 64.374c0.22304-1.4703-2.0197-2.7004-2.3777-4.2597" stroke-width=".65625"/>
     <path d="m-71.404 56.789c0.64828 0.14891 2.5041 0.44254 2.6405 1.218-3.6531 0.60685-2.3763 2.4099-0.84304 2.3508" stroke-width=".7"/>
     <g stroke-width=".5">
      <path d="m-62.497 81.144c0.95369 0.23457 1.5987 0.22217 2.5977 0.12423"/>
      <path d="m-62.253 79.091c1.406-0.60046 3.8827-0.51658 4.8121 0.60323"/>
      <path d="m-67.114 84.654c-0.89032 1.8002 0.7289 1.5791 2.5629 1.4464"/>
     </g>
     <path d="m-66.174 92.935c1.157 0.08625 1.8418 0.04804 2.8413-0.04973" stroke-width=".7"/>
     <path d="m-68.227 64.126c0.82127-3.4279 2.3006-4.573 3.7807-3.0767" stroke-width=".7"/>
     <path d="m-70.674 90.786c0.47136-0.65828 1.0116-1.4312 1.4234-2.4016" stroke-width=".5"/>
    </g>
   </g>
  </g>
  <path d="m10.967 141.43v41.588h-32.812v18.75h32.812l0.12454 53.787c6.5365-2.3454 12.821-5.3692 18.747-9.0263l-0.12196-44.761h39.106c2.6545-6.0215 4.7128-12.302 6.1386-18.75h-45.244v-41.588z"/>
  <g stroke="#000">
   <path d="m77.321 36.241-200 0.18707 2.1e-4 124.81h9e-3l-9e-3 0.18758c-2e-5 26.522 10.536 51.957 29.289 70.711 18.754 18.754 44.189 29.289 70.71 29.29 26.522 2e-5 51.957-10.536 70.711-29.289s29.289-44.189 29.289-70.711l-7e-3 -0.18758h7e-3z" fill="none" stroke-linecap="square" stroke-miterlimit="8" stroke-width="3"/>
   <path d="m77.321 141.43h-200" fill="none" stroke-width="2"/>
   <path d="m-22.679 261.43v-120" fill="#0f47af" stroke-linejoin="round" stroke-width="2"/>
  </g>
 </g>
</svg>
