<?xml version="1.0" encoding="UTF-8" standalone="no"?>
<!-- Creator: CorelDRAW -->

<svg
   xml:space="preserve"
   width="180mm"
   height="195.469mm"
   style="shape-rendering:geometricPrecision; text-rendering:geometricPrecision; image-rendering:optimizeQuality; fill-rule:evenodd; clip-rule:evenodd"
   viewBox="0 0 18000 19546.9"
   version="1.1"
   id="svg2856"
   sodipodi:docname="Bodenseekreis_Wappen.svg"
   inkscape:version="1.2 (dc2aeda, 2022-05-15)"
   xmlns:inkscape="http://www.inkscape.org/namespaces/inkscape"
   xmlns:sodipodi="http://sodipodi.sourceforge.net/DTD/sodipodi-0.dtd"
   xmlns="http://www.w3.org/2000/svg"
   xmlns:svg="http://www.w3.org/2000/svg"><sodipodi:namedview
   id="namedview2858"
   pagecolor="#ffffff"
   bordercolor="#000000"
   borderopacity="0.25"
   inkscape:showpageshadow="2"
   inkscape:pageopacity="0.0"
   inkscape:pagecheckerboard="0"
   inkscape:deskcolor="#d1d1d1"
   inkscape:document-units="mm"
   showgrid="false"
   inkscape:current-layer="Ebene_x0020_1" />
 <defs
   id="defs2843"><style
     type="text/css"
     id="style2841">
   <![CDATA[
    .fil0 {fill:#0061A5}
    .fil3 {fill:#1F1A17}
    .fil2 {fill:#F6BB00}
    .fil1 {fill:white}
   ]]>
  </style></defs>
 <g
   id="Ebene_x0020_1"
   inkscape:label="Ebene 1">
  <metadata
   id="CorelCorpID_0Corel-Layer" />
  <path
   id="Hintergrund"
   class="fil0"
   d="M17872.1 6372.85c-42.7032,2216.16 32.0569,3850.06 -90.9802,5285.39 -109.392,1275.93 -993.586,3753.2 -2712.67,5358.96 -1747.14,1632.81 -3662.69,2388.79 -5876.5,2392.56 -2302.51,5.87857 -3757.51,-576.139 -5007.35,-1415.74 -570.575,-413.604 -820.168,-555.053 -1336.35,-1004.86 -1041.71,-1163.56 -2098.69,-2544.19 -2499.06,-4330.91 -62.767,-278.111 -185.725,-1262.92 -192.223,-1570.74 -78.8397,-4010.86 24.6054,-4172.54 50.538,-10951.1l17654.3 0 10.3416 6236.41z"
   style="fill:#0f47af" />
  <path
   id="Welle1"
   class="fil1"
   d="M 9011.6982 15057.273 C 9001.4352 15057.273 8990.4241 15057.267 8991.7511 15058.358 C 8333.0188 15083.199 7994.6817 15533.489 7482.7993 15516.728 C 7482.7993 15517.813 7481.6366 15517.813 7477.3216 15517.813 L 7465.7977 15517.813 C 6985.5742 15524.321 6591.4981 15083.21 5942.0147 15059.391 L 5926.4084 15059.391 C 5236.0901 15076.712 4864.0965 15542.123 4401.7469 15523.239 L 4401.1268 15523.239 C 3845.9884 15533.502 3306.5384 15094.532 2780.7089 15077.84 C 2776.7869 15077.84 2767.7843 15077.817 2753.9922 15079.39 C 2282.4706 15094.509 1949.8837 15373.143 1780.6149 15454.096 L 1920.3479 15728.498 C 2143.9987 15609.698 2412.3104 15392.048 2769.4951 15386.09 L 2781.0706 15386.09 L 2784.998 15384.436 C 3126.3577 15371.509 3717.2445 15820.777 4401.1268 15829.939 L 4401.7469 15830.972 C 5043.6293 15811.537 5397.9852 15362.344 5906.5647 15366.659 L 5906.6164 15366.659 L 5907.9083 15366.659 L 5926.4084 15366.659 L 5929.9224 15366.659 C 6419.3939 15352.081 6815.3874 15805.129 7474.5827 15824.564 L 7497.3203 15824.564 L 7501.2477 15822.911 C 8174.7931 15798.62 8521.4619 15352.079 9005.9105 15365.006 L 9011.7499 15364.024 C 9013.3269 15364.029 9013.8479 15365.099 9015.4189 15365.109 C 9016.9901 15365.099 9017.5108 15364.029 9019.088 15364.024 L 9024.9274 15365.006 C 9509.3759 15352.079 9856.0444 15798.62 10529.59 15822.911 L 10533.518 15824.564 L 10556.255 15824.564 C 11215.45 15805.129 11611.444 15352.081 12100.915 15366.659 L 12104.429 15366.659 L 12122.93 15366.659 L 12124.221 15366.659 L 12124.273 15366.659 C 12632.853 15362.344 12987.209 15811.537 13629.091 15830.972 L 13629.711 15829.939 C 14313.593 15820.777 14904.48 15371.509 15245.84 15384.436 L 15249.767 15386.09 L 15261.343 15386.09 C 15618.527 15392.048 15886.839 15609.698 16110.49 15728.498 L 16250.223 15454.096 C 16080.954 15373.143 15748.367 15094.509 15276.846 15079.39 C 15263.054 15077.817 15254.051 15077.84 15250.129 15077.84 C 14724.299 15094.532 14184.849 15533.502 13629.711 15523.239 L 13629.091 15523.239 C 13166.741 15542.123 12794.748 15076.712 12104.429 15059.391 L 12088.823 15059.391 C 11439.34 15083.21 11045.264 15524.321 10565.04 15517.813 L 10553.516 15517.813 C 10549.201 15517.813 10548.039 15517.819 10548.039 15516.728 C 10036.156 15533.489 9697.8189 15083.199 9039.0867 15058.358 C 9040.4138 15057.267 9029.4025 15057.273 9019.1396 15057.273 C 9017.7043 15057.266 9016.851 15057.843 9015.4189 15057.841 C 9013.9869 15057.843 9013.1342 15057.273 9011.6982 15057.273 z M 8999.761 16437.292 C 8341.8836 16467.54 7957.656 16951.397 7478.4584 16934.626 L 7476.0296 16933.54 C 6958.2742 16951.402 6632.1551 16490.746 5979.3768 16470.21 L 5979.2734 16470.21 C 5280.6481 16481.573 4717.7728 16964.334 4381.9032 16944.909 L 4381.9032 16943.772 C 4076.8295 16956.227 3313.2847 16512.923 2796.3152 16501.009 C 2739.3481 16501.009 2681.0604 16507.554 2622.9924 16524.315 L 2710.9974 16819.129 C 2731.2964 16812.621 2760.1101 16808.845 2796.3152 16808.845 C 3168.3158 16797.481 3915.0857 17237.519 4381.9032 17250.524 L 4381.9032 17251.609 C 4916.9387 17231.074 5420.954 16766.187 5979.2734 16776.392 L 5979.3251 16776.392 L 5979.3768 16776.392 C 6440.4983 16758.678 6782.5503 17223.532 7476.0296 17239.672 L 7478.4584 17241.325 C 8146.9118 17220.249 8534.5804 16728.89 9015.4189 16744.56 C 9496.2574 16728.89 9883.9263 17220.249 10552.379 17241.325 L 10554.808 17239.672 C 11248.288 17223.532 11590.34 16758.678 12051.461 16776.392 L 12051.513 16776.392 L 12051.564 16776.392 C 12609.884 16766.187 13113.899 17231.074 13648.935 17251.609 L 13648.935 17250.524 C 14115.752 17237.519 14862.522 16797.481 15234.523 16808.845 C 15270.728 16808.845 15299.541 16812.621 15319.84 16819.129 L 15407.845 16524.315 C 15349.777 16507.554 15291.49 16501.009 15234.523 16501.009 C 14717.553 16512.923 13954.008 16956.227 13648.935 16943.772 L 13648.935 16944.909 C 13313.065 16964.334 12750.19 16481.573 12051.564 16470.21 L 12051.461 16470.21 C 11398.683 16490.746 11072.564 16951.402 10554.808 16933.54 L 10552.379 16934.626 C 10073.182 16951.397 9688.9538 16467.54 9031.0769 16437.292 L 9022.1369 16437.292 L 9017.2793 16437.292 C 9016.7386 16437.292 9016.2054 16437.304 9015.4189 16438.945 C 9014.6319 16437.302 9014.0986 16437.292 9013.5586 16437.292 L 9008.701 16437.292 L 8999.761 16437.292 z M 9015.4189 17901.233 C 8363.9436 17934.545 7979.6679 18410.699 7503.0564 18394.02 L 7500.6276 18394.02 C 6985.2211 18410.79 6621.0837 17945.849 5978.8083 17920.457 L 5962.3236 17920.457 C 5388.0631 17914.028 5207.6814 18128.389 4880.2707 18320.071 L 5034.6799 18584.137 C 5426.1845 18357.904 5461.2181 18235.908 5939.9477 18227.208 L 5940.4127 18228.294 L 5965.0107 18228.294 C 6427.7543 18207.758 6808.1203 18683.45 7500.6276 18700.771 L 7503.3148 18700.771 C 8159.7271 18680.075 8545.3964 18214.712 9015.4189 18212.481 C 9485.4415 18214.712 9871.1109 18680.075 10527.523 18700.771 L 10530.21 18700.771 C 11222.718 18683.45 11603.084 18207.758 12065.827 18228.294 L 12090.425 18228.294 L 12090.89 18227.208 C 12569.62 18235.908 12604.653 18357.904 12996.158 18584.137 L 13150.567 18320.071 C 12823.156 18128.389 12642.775 17914.028 12068.514 17920.457 L 12052.03 17920.457 C 11409.754 17945.849 11045.617 18410.79 10530.21 18394.02 L 10527.781 18394.02 C 10051.17 18410.699 9666.8938 17934.545 9015.4189 17901.233 z "
   inkscape:label="Welle" />
  
  
  
  
  <path
   id="circle3395"
   style="clip-rule:evenodd;fill:#fcdd09;fill-rule:evenodd;stroke:#000000;stroke-width:264.6;stroke-linecap:butt;stroke-linejoin:miter;stroke-miterlimit:24;stroke-dasharray:none;image-rendering:optimizeQuality;shape-rendering:geometricPrecision;text-rendering:geometricPrecision"
   inkscape:label="Zahnrad"
   d="m 7677.5677,1341.3135 803.6719,3845.7085 a 2732.7004,2732.7004 0 0 0 -974.0491,353.6218 l -2125.4,-3248.3806 A 6464.7163,6464.7163 0 0 0 3511.5687,4162.485 l 3248.3806,2125.4001 a 2732.7004,2732.7004 0 0 0 -353.6218,974.049 L 2560.619,6458.3139 a 6464.7163,6464.7163 0 0 0 0,2644.8516 l 3845.7085,-803.6719 a 2732.7004,2732.7004 0 0 0 353.6735,974.1008 L 3511.5687,11398.942 a 6464.7163,6464.7163 0 0 0 1870.2218,1870.222 l 2125.4,-3248.38 a 2732.7004,2732.7004 0 0 0 974.1008,353.621 l -803.7236,3845.709 a 6464.7163,6464.7163 0 0 0 2644.9033,0 l -803.7236,-3845.709 a 2732.7004,2732.7004 0 0 0 974.1006,-353.621 l 2125.4,3248.38 A 6464.7163,6464.7163 0 0 0 14488.47,11398.942 L 11240.089,9273.5427 a 2732.7004,2732.7004 0 0 0 353.622,-974.0491 l 3845.709,803.6719 a 6464.7163,6464.7163 0 0 0 0,-2644.8516 l -3767.006,787.1871 a 2732.7004,2732.7004 0 0 0 -411.809,-971.1035 L 14488.47,4162.485 A 6464.7163,6464.7163 0 0 0 12618.248,2292.2632 l -2111.964,3227.8134 a 2732.7004,2732.7004 0 0 0 -971.0518,-411.7578 l 787.2388,-3767.0053 a 6464.7163,6464.7163 0 0 0 -2644.9033,0 z m 1322.4516,5336.7803 a 1102.6199,1102.6199 0 0 1 1102.6197,1102.6201 1102.6199,1102.6199 0 0 1 -1102.6197,1102.62 1102.6199,1102.6199 0 0 1 -1102.62,-1102.62 1102.6199,1102.6199 0 0 1 1102.62,-1102.6201 z" />
  
  <path
   id="Umrandung"
   class="fil3"
   d="M17712.9 8330.4c0,197.876 0,390.099 0,578.567 0,1031.04 -5.95721,1918.84 -75.7038,2737.99 -102.187,1235.33 -983.245,3700.22 -2670.13,5269.32 -1727.24,1613.37 -3600.62,2350.94 -5783.24,2357.36 -7.75617,0 -18.8055,0 -31.0345,0 -51.9536,0 -101.243,-1.8776 -152.263,-2.4281l0 0c-0.147456,0 -0.383385,0 -0.383385,0 -0.235929,0 -0.550501,0 -0.550501,0l-0.157286 0c-50.941,0.550501 -100.231,2.4281 -152.263,2.4281 -12.0717,0 -23.1997,0 -31.0345,0 -2182.62,-6.42907 -4055.93,-743.993 -5783.24,-2357.36 -1686.81,-1569.1 -2567.86,-4033.99 -2670.05,-5269.32 -69.7367,-819.146 -75.6939,-1706.95 -75.6939,-2737.99 0,-188.468 0,-380.691 0,-578.567 0,-602.543 -2.04472,-1251.33 -15.4435,-1959.98l10.2727 -6098.18 8717.46 0 1.09117 0 8717.47 0 10.2629 6098.18c-13.3202,708.653 -15.3551,1357.44 -15.3551,1959.98zm287.126 -1957.55l-10.4202 -6372.85 -8989.08 0 -1.09117 0 -8988.99 0 -10.43 6372.85 135.964 0 -135.964 1.88743c13.4086,706.215 15.3649,1353.9 15.3649,1955.67 0,197.876 0,390.099 0,578.567 0,1031.04 5.32807,1926.36 76.4017,2760.64 115.281,1315.82 1004.09,3805.55 2754.68,5445.87 1767.44,1653.88 3724.21,2427.66 5969.68,2431.42 13.0056,-1.64167 23.357,-1.64167 31.0345,-1.64167 52.1109,0 101.715,-1.8776 152.892,-2.4281 51.0885,0.550501 100.614,2.4281 152.725,2.4281 7.68736,0 18.1076,0 31.0345,1.64167 2245.54,-3.75521 4202.31,-777.534 5969.76,-2431.42 1750.59,-1640.33 2639.33,-4130.06 2754.6,-5445.87 71.1523,-834.275 76.4804,-1729.6 76.4804,-2760.64 0,-188.468 0,-380.691 0,-578.567 0,-601.767 1.96608,-1249.45 15.3649,-1955.67l-135.964 -1.88743 135.964 0z" />
 </g>
</svg>
