<?xml version="1.0" encoding="utf-8"?>
<!-- Generator: Adobe Illustrator 18.0.0, SVG Export Plug-In . SVG Version: 6.00 Build 0)  -->
<!DOCTYPE svg PUBLIC "-//W3C//DTD SVG 1.1//EN" "http://www.w3.org/Graphics/SVG/1.1/DTD/svg11.dtd" [
	<!ENTITY st0 "fill:#FFFFFF;">
	<!ENTITY st1 "fill:#DA121A;">
	<!ENTITY st2 "fill:#FCDD09;">
	<!ENTITY st3 "fill:none;stroke:#000000;stroke-width:3;stroke-linecap:round;stroke-miterlimit:10;">
	<!ENTITY st4 "fill:none;stroke:#000000;stroke-width:3;stroke-miterlimit:10;">
	<!ENTITY st5 "fill:none;stroke:#000000;stroke-width:1.958;stroke-miterlimit:10;">
	<!ENTITY st6 "fill:none;stroke:#000000;stroke-width:3.5;">
]>
<svg version="1.1" id="Ebene_1" xmlns="http://www.w3.org/2000/svg" xmlns:xlink="http://www.w3.org/1999/xlink" x="0px" y="0px"
	 width="544.25px" height="581.1px" viewBox="0 0 544.25 581.1" style="enable-background:new 0 0 544.25 581.1;"
	 xml:space="preserve">
<path d="M458.834,28.566c8.271,2.24,20.553,6.641,25.154,3.684c3.131-2.006,4.307-5.221,4.209-9.586
	c-0.586-3.75,1.713-2.315,3.18-0.387c14.684,21.029,23.98,35.984,48.939,56.33c3.426,2.789,2.449,3.426-1.957,3.426
	c-29.363,0-33.279,15.66-33.279,47.471c0,0-7.34,154.943-10.766,232.463c-1.957,40.18-9.395,65.336-26.328,98.174
	c-15.223,29.463-37.586,53.541-65.041,74.584c-30.441,23.002-83.443,43.066-124.211,43.066c-49.381,0-101.307-20.064-135.613-46.004
	c-33.473-25.447-63.326-59.02-79.33-101.158c-9.152-24.176-11.354-43.164-13.369-73.066L34.643,123.191
	C29.377,87.906,27.908,83.99,5.397,80.076c-4.406-0.785-4.613-1.371-0.98-4.895c22.617-21.828,32.521-40.053,42.09-53.344
	c1.469-2.076,3.043-4.435,2.936-0.031c-0.121,4.943,1.479,9.998,5.834,11.012c3.572,0.842,8.906-1.311,13.752-2.691
	c130.18-37.193,271.127-33.768,389.807-1.605v0.029V28.566z"/>
<path style="&st0;" d="M45.934,32.1c5.33,9.807,14.039,5.363,27.449,1.771C214.672-4.004,364.967,5.529,467.789,34.934
	c13.703,3.91,16.199,5.328,23.588-2.441l23.004,33.895c-92.008-47.473-308.029-91.813-492.336-0.148L45.934,32.1z"/>
<path style="&st0;" d="M205.817,16.52v539.23c-6.42-1.96-12.74-4.23-18.94-6.82c-25.75-10.28-49.38-26.43-69.11-46
	c-19.77-19.77-35.53-43.41-46.2-69.15c-10.71-25.8-16.24-53.69-16.24-81.59l-5.43-224.48c-0.12-21.14-1.16-51-25.27-60.44
	l-1.12-0.64C82.957,37.42,145.397,22.18,205.817,16.52z"/>
<path style="&st1;" d="M513.399,66.894l-0.98,0.34c-28.14,11.74-23.49,41.21-24.47,62.3l-6.36,222.67c0,27.9-5.53,55.79-16.25,81.59
	c-10.67,25.74-26.42,49.38-46.2,69.15c-19.72,19.57-43.36,35.72-69.1,46c-25.79,10.77-53.69,16.15-81.58,16.15
	c-21.19,0-42.38-3.1-62.64-9.33V16.533C332.859,4.624,450.949,35.053,513.399,66.894z"/>
<g>
	<polygon points="205.819,140.316 205.819,239.526 56.275,239.526 53.874,140.316 	"/>
	<path d="M205.819,341.576v99.21H78.294c-1.06-2.32-2.07-4.66-3.05-7.01c-10.71-25.79-16.24-53.69-16.24-81.58l-0.26-10.62H205.819z
		"/>
</g>
<g>
	<g>
		<path style="&st2;" d="M233.416,289.49c9.886-14.648,4.403-42.712,19.908-55.462c21.24-17.466,38.173,9.562,28.075,21.352
			c25.245-13.26,51.603,4.367,54.918,10.742c10.727-34.899,33.685-130.014-54.893-96.481c18.36-3.442,25.372,16.83,11.382,31.638
			c-19.502,20.643-46.062,0.237-57.189,5.753c8.577-16.099-4.776-38.646,7.283-54.243c20.291-26.244,39.926-1.891,29.872,11.624
			c21.784-14.535,49.324-12.877,62.711-9.817c-2.677-27.285-44.752-39.142-56.111-57.247c3.941,9.18-13.219,27.211-30.637,15.421
			c-27.491-18.609,1.324-49.846-3.139-64.253c18.615,5.355,41.723-7.275,58.012,6.303c23.949,19.962-4.08,41-16.83,35.18
			c12.228,17.677,36.082,24.817,51.765,35.91c5.737-32.512,43.222-49.47,56.517-48.254c-13.26-11.22-3.477-26.891,17.688-28.424
			c24.27-1.758,29.58,39.321,38.491,44.732c-15.541,2.239-32.881,37.684-58.254,26.336c-12.411-5.551-16.83-27.285,2.282-33.66
			c-31.667,6.57-41.39,30.391-40.744,53.635c0.733,26.378,15.3,48.45,9.937,70.491c4.08-6.757,21.258-23.273,27.969-26.078
			c-16.655-6.247-10.28-31.237,11.267-36.274c22.358-5.226,41.055,25.75,49.224,30.664c-10.337,10.004-20.026,43.222-46.546,43.222
			c-17.34,0-18.87-18.87-8.542-30.345c-43.133,34.85-31.237,78.71-47.243,117.36c11.331-7.389,28.841-11.28,38.828-10.898
			c-8.114-9.732-7.027-17.047-1.063-23.162c6.715-6.885,17.808-7.406,28.476-2.635c20.144,9.01,20.314,28.56,32.095,40.298
			c-14.671,6.622-22.35,24.965-43.776,24.965c-13.611,0-23.847-5.933-23.847-13.981c0-6.062,1.441-10.984,8.879-15.922
			c-38.122,6.375-66.427,41.055-55.717,69.487c2.658,7.056,1.743,9.549-1.564,12.971c-3.196,3.307-21.726,13.167-32.096,16.482
			c-4.054,1.296-7.884,1.475-7.65-6.885c0.51-18.19,10.54-54.4,29.07-102.613c17.312-45.045-37.827-40.824-46.027-29.604
			c29.452-4.08,24.735,24.862,9.528,33.819C267.344,312.461,245.469,287.067,233.416,289.49z"/>
		<path d="M232.356,288.826l0.883-1.512c0.239-0.491,0.49-0.963,0.722-1.463c0.461-1.02,0.883-2.062,1.255-3.128
			c0.739-2.136,1.301-4.351,1.767-6.6c0.938-4.501,1.56-9.12,2.271-13.772c0.703-4.653,1.534-9.359,2.967-13.998
			c1.419-4.618,3.549-9.233,6.919-13.042l1.31-1.375c0.456-0.439,0.939-0.853,1.409-1.278l0.177-0.158l0.234-0.182l0.349-0.267
			l0.698-0.533l0.698-0.533c0.246-0.178,0.533-0.354,0.798-0.53c2.143-1.464,4.392-2.566,6.889-3.311
			c2.473-0.74,5.151-0.997,7.771-0.64c2.615,0.357,5.162,1.301,7.323,2.767c4.339,2.917,7.395,7.391,8.667,12.342
			c0.627,2.478,0.823,5.098,0.399,7.678c-0.441,2.572-1.563,5.087-3.324,7.064l-1.837-2.304h0.001
			c1.173-0.556,2.315-1.177,3.531-1.641c1.189-0.526,2.425-0.932,3.654-1.353c1.249-0.356,2.493-0.744,3.77-0.989
			c1.265-0.303,2.555-0.477,3.839-0.669c1.292-0.137,2.584-0.267,3.882-0.298c0.648-0.042,1.297-0.031,1.945-0.025
			c0.649,0.002,1.297,0.004,1.943,0.054c1.296,0.051,2.583,0.192,3.869,0.34c1.281,0.184,2.557,0.388,3.821,0.66
			c1.262,0.272,2.519,0.572,3.756,0.94c0.623,0.168,1.238,0.362,1.849,0.569c0.614,0.197,1.225,0.401,1.827,0.633
			c1.213,0.437,2.406,0.927,3.581,1.453c1.177,0.524,2.337,1.089,3.473,1.698c1.138,0.606,2.26,1.245,3.349,1.943
			c1.099,0.681,2.158,1.432,3.204,2.206c1.03,0.801,2.046,1.626,3.002,2.557c0.951,0.951,1.876,1.916,2.646,3.295l0.003,0.005
			l-2.765,0.251c1.878-6.233,3.579-12.519,5.057-18.85c1.47-6.333,2.773-12.702,3.734-19.116c0.963-6.411,1.62-12.864,1.755-19.31
			c0.125-6.436-0.257-12.893-1.649-19.085c-0.703-3.087-1.654-6.11-2.98-8.932c-1.335-2.813-3.03-5.426-5.104-7.678
			c-2.105-2.22-4.598-4.044-7.356-5.381c-2.759-1.343-5.784-2.154-8.872-2.604c-3.095-0.435-6.265-0.531-9.436-0.332
			c-3.173,0.204-6.342,0.659-9.494,1.257c-3.139,0.673-6.279,1.392-9.369,2.335c-3.102,0.895-6.161,1.957-9.209,3.054l-0.006,0.002
			l-0.808-2.877c2.31-0.505,4.747-0.689,7.185-0.352c2.422,0.34,4.878,1.146,6.954,2.613c2.084,1.442,3.809,3.418,4.928,5.676
			c1.163,2.241,1.742,4.717,1.899,7.174c0.299,4.945-1.215,9.774-3.666,13.86c-0.606,1.032-1.29,2.013-2.014,2.955
			c-0.376,0.459-0.719,0.949-1.123,1.382l-0.591,0.664l-0.296,0.332l-0.148,0.166l-0.202,0.202l-1.198,1.167
			c-0.205,0.195-0.387,0.389-0.611,0.585l-0.699,0.589c-0.469,0.387-0.93,0.795-1.407,1.16l-1.455,1.034
			c-1.985,1.305-4.089,2.482-6.346,3.275c-2.244,0.813-4.571,1.364-6.914,1.668c-4.695,0.559-9.375,0.179-13.854-0.641
			c-4.494-0.795-8.844-1.972-13.13-2.99c-2.141-0.502-4.278-0.955-6.38-1.162c-2.1-0.218-4.164-0.108-5.896,0.625l-0.01,0.004
			l-0.042,0.018c-0.645,0.267-1.384-0.039-1.651-0.684c-0.144-0.348-0.119-0.728,0.034-1.042c1.921-3.902,2.585-8.31,2.586-12.751
			c0.042-4.455-0.474-8.972-0.905-13.561c-0.437-4.587-0.772-9.294-0.3-14.1c0.237-2.397,0.722-4.811,1.525-7.149
			c0.801-2.337,1.944-4.585,3.394-6.606c0.197-0.272,0.322-0.467,0.578-0.802l0.546-0.666l1.092-1.331
			c0.773-0.884,1.637-1.816,2.486-2.672c1.728-1.69,3.625-3.246,5.725-4.57c2.132-1.277,4.494-2.293,7.04-2.768
			c2.535-0.479,5.256-0.374,7.758,0.468c2.498,0.844,4.737,2.333,6.501,4.215c1.773,1.881,3.043,4.169,3.829,6.592
			c0.779,2.429,1.009,5.04,0.602,7.574c-0.384,2.534-1.425,4.975-2.989,6.981l-0.007,0.01l-2.036-2.143l3.553-2.176
			c1.176-0.739,2.452-1.297,3.674-1.954c1.218-0.67,2.506-1.185,3.78-1.73l1.913-0.814l1.958-0.693
			c1.309-0.448,2.603-0.949,3.945-1.289c1.336-0.354,2.651-0.798,4.005-1.075c1.351-0.288,2.694-0.618,4.051-0.868l4.086-0.669
			l4.11-0.47l4.124-0.286l4.131-0.111l4.131,0.059c1.375,0.078,2.751,0.14,4.125,0.239c1.371,0.142,2.746,0.224,4.113,0.416
			c1.368,0.173,2.736,0.348,4.096,0.597c1.365,0.206,2.719,0.516,4.076,0.792l0.008,0.002l-1.827,1.608l-0.351-2.405l-0.576-2.362
			c-0.267-0.767-0.502-1.544-0.791-2.304c-0.335-0.743-0.625-1.504-0.991-2.234c-0.395-0.717-0.74-1.458-1.172-2.157
			c-0.448-0.689-0.845-1.408-1.332-2.075c-0.942-1.354-1.968-2.656-3.063-3.908c-1.099-1.25-2.264-2.447-3.471-3.609
			c-1.214-1.156-2.476-2.268-3.762-3.357l-1.963-1.6l-2.007-1.554c-1.355-1.019-2.722-2.025-4.111-3.007
			c-5.551-3.941-11.339-7.611-16.98-11.608c-2.816-2.004-5.6-4.094-8.229-6.424c-0.651-0.591-1.315-1.165-1.935-1.8
			c-0.637-0.613-1.259-1.244-1.848-1.916c-1.217-1.299-2.296-2.756-3.301-4.27l-0.004-0.005l2.649-1.389
			c0.603,1.325,0.827,2.773,0.764,4.147c-0.059,1.379-0.364,2.699-0.8,3.946c-0.46,1.235-1.053,2.397-1.731,3.499
			c-0.707,1.078-1.488,2.104-2.363,3.04c-1.735,1.886-3.8,3.449-6.058,4.676c-2.273,1.201-4.766,2.03-7.346,2.378
			c-2.58,0.334-5.233,0.179-7.747-0.455c-2.519-0.625-4.89-1.698-7.036-3.049l-0.807-0.505l-0.779-0.575l-1.419-1.055
			c-0.47-0.335-0.966-0.823-1.445-1.23c-0.47-0.435-0.994-0.835-1.414-1.303c-1.783-1.785-3.339-3.822-4.613-6.042
			c-1.211-2.258-2.084-4.69-2.593-7.181c-0.501-2.497-0.587-5.024-0.476-7.502c0.103-2.486,0.525-4.911,1.043-7.285
			c0.515-2.378,1.191-4.693,1.922-6.971c1.458-4.56,3.18-8.966,4.681-13.368c0.735-2.201,1.406-4.409,1.823-6.616
			c0.405-2.198,0.568-4.421,0.047-6.41l-0.002-0.009l-0.014-0.061c-0.154-0.685,0.277-1.365,0.962-1.519
			c0.2-0.045,0.405-0.039,0.591,0.008c4.504,1.144,9.239,1.27,13.971,0.968c4.742-0.272,9.514-0.911,14.37-1.385
			c4.85-0.477,9.831-0.765,14.876-0.147c2.517,0.309,5.039,0.881,7.467,1.782c2.428,0.897,4.75,2.135,6.851,3.664l0.773,0.593
			l0.386,0.297l0.193,0.149l0.048,0.037l0.098,0.084l0.084,0.076l1.351,1.208l0.677,0.611l0.687,0.708
			c0.451,0.477,0.926,0.94,1.354,1.431c1.689,1.948,3.177,4.139,4.252,6.586c1.065,2.443,1.65,5.176,1.541,7.906
			c-0.093,2.731-0.867,5.406-2.115,7.761c-1.243,2.365-2.916,4.438-4.826,6.204c-1.914,1.767-4.08,3.223-6.402,4.364
			c-2.333,1.119-4.834,1.92-7.453,2.246c-2.603,0.342-5.407,0.078-7.954-1.089l-0.013-0.005l1.856-2.218l2.322,3.06l2.573,2.868
			l2.787,2.679l2.965,2.502l3.111,2.342l3.227,2.203l3.318,2.087l3.388,1.996c4.556,2.61,9.247,5.036,13.923,7.556
			c2.338,1.261,4.669,2.553,6.979,3.902c1.155,0.673,2.289,1.398,3.434,2.095c1.131,0.728,2.242,1.497,3.363,2.244l0.008,0.005
			l-2.343,0.964c0.347-1.673,0.674-3.352,1.171-4.988c0.21-0.829,0.479-1.64,0.766-2.444c0.281-0.806,0.539-1.622,0.885-2.403
			c0.335-0.784,0.63-1.587,1-2.356l1.112-2.304c0.814-1.498,1.637-2.99,2.57-4.415c0.436-0.732,0.941-1.417,1.426-2.115
			c0.477-0.706,0.982-1.388,1.512-2.052c1.022-1.358,2.135-2.642,3.263-3.907l1.741-1.853l1.811-1.783
			c1.242-1.15,2.499-2.284,3.81-3.353c1.309-1.07,2.642-2.111,4.022-3.086c0.68-0.502,1.377-0.979,2.083-1.442
			c0.698-0.475,1.405-0.938,2.128-1.375c1.429-0.9,2.894-1.743,4.383-2.541c1.486-0.803,3-1.556,4.542-2.251
			c0.769-0.351,1.541-0.698,2.328-1.01c0.779-0.331,1.568-0.64,2.367-0.926c1.585-0.601,3.211-1.107,4.851-1.573
			c1.653-0.431,3.317-0.836,5.04-1.069c1.719-0.24,3.468-0.4,5.305-0.242l0.013,0l-1.105,2.639
			c-1.862-1.481-3.551-3.281-4.823-5.433c-1.287-2.126-2.071-4.694-2.033-7.295c0.018-2.609,0.864-5.156,2.185-7.312
			c1.353-2.137,3.092-3.971,5.059-5.415c3.938-2.911,8.525-4.592,13.151-5.458c1.157-0.232,2.325-0.384,3.492-0.511l0.876-0.083
			l0.438-0.041l0.11-0.01l0.055-0.005l0.161-0.006l0.21-0.003l1.684-0.025c0.562-0.009,1.269,0.09,1.896,0.139
			c0.659,0.04,1.269,0.165,1.873,0.301c1.227,0.214,2.405,0.64,3.563,1.074c2.314,0.917,4.377,2.304,6.215,3.857
			c1.834,1.566,3.456,3.326,4.865,5.199c1.413,1.87,2.715,3.805,3.84,5.815c1.136,2.003,2.198,4.036,3.165,6.097
			c1.951,4.115,3.678,8.287,5.419,12.395c0.877,2.047,1.773,4.076,2.785,5.995c1.002,1.893,2.172,3.79,3.604,4.814l0.009,0.007
			l0.081,0.063c0.551,0.43,0.649,1.226,0.219,1.777c-0.198,0.254-0.476,0.412-0.77,0.466c-2.041,0.373-4.012,1.342-5.882,2.512
			c-1.871,1.182-3.649,2.584-5.385,4.059c-3.456,2.983-6.814,6.178-10.316,9.289c-1.747,1.558-3.549,3.081-5.42,4.54
			c-1.862,1.468-3.823,2.847-5.901,4.079c-2.069,1.239-4.255,2.35-6.591,3.166c-2.325,0.823-4.776,1.415-7.292,1.582
			c-2.515,0.155-5.047-0.073-7.5-0.619c-1.198-0.353-2.427-0.639-3.566-1.136l-0.869-0.339l-0.434-0.171l-0.054-0.021l-0.126-0.057
			l-0.097-0.048l-0.195-0.097l-0.779-0.388c-0.281-0.154-0.589-0.344-0.881-0.517c-2.287-1.38-4.108-3.21-5.642-5.264
			c-1.483-2.082-2.628-4.395-3.309-6.852c-0.713-2.447-0.96-5.037-0.706-7.602c0.239-2.563,1.066-5.091,2.373-7.325
			c1.33-2.226,3.156-4.115,5.221-5.569c2.065-1.465,4.363-2.49,6.703-3.198l0.021-0.008l0.78,2.892
			c-2.864,0.804-5.759,1.488-8.494,2.613l-2.076,0.767l-1.987,0.957c-1.324,0.637-2.67,1.231-3.886,2.049
			c-1.229,0.789-2.545,1.45-3.665,2.387l-1.743,1.313l-0.868,0.659l-0.795,0.744c-2.169,1.927-4.142,4.066-5.843,6.404
			c-0.82,1.192-1.722,2.327-2.382,3.624l-1.073,1.887c-0.379,0.616-0.617,1.312-0.933,1.962l-0.895,1.981
			c-0.277,0.669-0.492,1.367-0.745,2.047l-0.732,2.052l-0.563,2.112c-0.18,0.706-0.396,1.402-0.547,2.115l-0.405,2.154
			c-0.313,1.427-0.464,2.887-0.631,4.342c-0.214,1.449-0.243,2.922-0.329,4.387c-0.12,1.463-0.04,2.939-0.049,4.409l0.007,1.103
			l0.071,1.061l0.152,2.274c0.064,1.548,0.296,2.951,0.468,4.401c0.148,1.434,0.424,2.899,0.677,4.363
			c0.228,1.464,0.529,2.924,0.85,4.382c0.293,1.459,0.631,2.917,0.998,4.373c0.344,1.457,0.716,2.912,1.106,4.371
			c0.744,2.918,1.566,5.836,2.349,8.787c0.403,1.468,0.788,2.947,1.153,4.442c0.383,1.483,0.739,2.981,1.066,4.496l0.501,2.265
			l0.428,2.296c0.314,1.521,0.519,3.078,0.723,4.634c0.431,3.107,0.558,6.287,0.469,9.469c0.021,0.794-0.094,1.592-0.166,2.387
			l-0.239,2.386c-0.242,1.582-0.623,3.147-0.934,4.715l-0.002,0.008l-4.041-1.666c0.501-0.722,0.991-1.487,1.521-2.127
			c0.516-0.677,1.046-1.326,1.59-1.946c1.075-1.266,2.183-2.471,3.315-3.647c0.563-0.593,1.128-1.181,1.708-1.751
			c0.578-0.573,1.144-1.159,1.734-1.717c1.164-1.135,2.35-2.244,3.546-3.343c1.207-1.087,2.412-2.174,3.654-3.224
			c1.229-1.063,2.492-2.091,3.776-3.099c0.65-0.498,1.278-1.013,1.952-1.489c0.67-0.479,1.313-0.979,2.017-1.431
			c0.688-0.463,1.375-0.926,2.124-1.344c0.702-0.447,1.532-0.82,2.337-1.197l0.009-0.004l0.052,2.789
			c-2.369-0.814-4.641-2.157-6.46-4.034c-1.847-1.852-3.128-4.26-3.771-6.781c-0.664-2.53-0.634-5.16-0.212-7.664
			c0.433-2.512,1.33-4.904,2.537-7.103c2.427-4.397,6.099-8.024,10.385-10.525c2.143-1.255,4.432-2.24,6.793-2.965
			c2.368-0.716,4.773-1.126,7.404-1.156c2.521-0.022,5.037,0.338,7.415,1.042c2.386,0.686,4.649,1.671,6.792,2.816
			c2.15,1.141,4.149,2.492,6.072,3.914c1.914,1.435,3.732,2.971,5.468,4.576c3.483,3.202,6.695,6.628,9.794,10.097
			c1.548,1.735,3.074,3.479,4.626,5.164c1.551,1.654,3.139,3.377,4.811,4.525l0.009,0.006l0.046,0.033
			c0.578,0.412,0.712,1.214,0.3,1.792c-0.036,0.05-0.08,0.102-0.121,0.146c-1.454,1.509-2.717,3.29-3.932,5.113
			c-1.208,1.833-2.35,3.737-3.483,5.658c-2.253,3.854-4.543,7.739-7.048,11.53c-1.245,1.899-2.575,3.758-3.973,5.575
			c-1.39,1.823-2.903,3.573-4.522,5.234c-1.607,1.672-3.371,3.221-5.254,4.63c-1.873,1.423-3.913,2.663-6.079,3.657
			c-1.066,0.535-2.202,0.918-3.319,1.343c-1.15,0.326-2.289,0.707-3.47,0.91c-1.167,0.279-2.358,0.389-3.544,0.538
			c-0.594,0.057-1.19,0.062-1.786,0.093l-0.894,0.038l-0.182,0.003l-0.105-0.003l-0.21-0.007l-0.42-0.015l-0.839-0.029l-0.958-0.098
			c-0.649-0.052-1.257-0.173-1.868-0.291c-0.614-0.095-1.217-0.309-1.825-0.463c-0.597-0.215-1.203-0.408-1.782-0.683
			c-1.177-0.506-2.277-1.214-3.3-2.014c-0.998-0.837-1.891-1.797-2.646-2.854c-0.727-1.073-1.329-2.218-1.778-3.412
			c-0.419-1.199-0.737-2.426-0.894-3.663c-0.328-2.471-0.179-4.95,0.337-7.313c1.025-4.735,3.43-9.047,6.686-12.486l0.015-0.017
			l2.058,2.17c-1.992,1.77-4.008,3.507-5.881,5.392l-1.425,1.39l-1.358,1.454c-0.904,0.97-1.825,1.922-2.657,2.953
			c-1.737,1.998-3.348,4.096-4.911,6.222c-0.744,1.091-1.513,2.163-2.236,3.266l-2.076,3.367l-1.913,3.46l-1.75,3.546l-1.59,3.623
			l-1.451,3.684l-1.308,3.742c-0.389,1.266-0.803,2.522-1.173,3.794c-0.73,2.548-1.397,5.118-1.992,7.712
			c-2.375,10.382-3.73,21.059-5.623,31.762c-0.928,5.355-2.04,10.711-3.415,16.029c-0.336,1.331-0.728,2.652-1.103,3.974
			c-0.391,1.319-0.838,2.626-1.254,3.938c-0.447,1.305-0.932,2.599-1.397,3.898c-0.506,1.286-1.049,2.559-1.571,3.837l-0.007,0.016
			l-3.333-2.767l2.304-1.355l2.354-1.228l2.393-1.115c0.803-0.355,1.618-0.676,2.426-1.016c0.809-0.335,1.636-0.615,2.453-0.925
			c0.814-0.317,1.651-0.56,2.476-0.842c0.824-0.285,1.662-0.517,2.496-0.764c0.832-0.255,1.672-0.474,2.514-0.689
			c0.839-0.226,1.682-0.432,2.531-0.615c0.845-0.196,1.692-0.386,2.546-0.542c1.701-0.342,3.414-0.628,5.138-0.855
			c0.862-0.115,1.723-0.229,2.592-0.302c0.865-0.092,1.734-0.165,2.608-0.206c0.869-0.065,1.748-0.08,2.626-0.092
			c0.874-0.034,1.767,0.034,2.648,0.047l0.021,0l-1.21,2.459c-1.531-1.785-2.97-3.689-4.128-5.831
			c-1.156-2.129-2.04-4.532-2.246-7.117c-0.216-2.574,0.335-5.267,1.521-7.529c1.168-2.282,2.748-4.225,4.539-5.876
			c0.366-0.382,0.938-0.803,1.447-1.204c0.519-0.431,1.051-0.745,1.582-1.081c0.522-0.354,1.083-0.633,1.645-0.91
			c0.554-0.297,1.133-0.529,1.718-0.748c2.33-0.897,4.785-1.379,7.227-1.53c4.908-0.319,9.713,0.753,14.161,2.444l1.652,0.687
			l0.206,0.086l0.052,0.021l0.141,0.068l0.095,0.049l0.379,0.195l0.757,0.39l1.514,0.78l0.757,0.39l0.775,0.5
			c1.013,0.684,2.104,1.305,3.042,2.056c0.92,0.769,1.889,1.485,2.762,2.303c0.838,0.854,1.721,1.67,2.508,2.565
			c0.749,0.924,1.557,1.809,2.251,2.768c1.404,1.909,2.678,3.891,3.805,5.927c1.135,2.031,2.173,4.093,3.167,6.144
			c1,2.053,1.948,4.107,2.974,6.092c0.996,2.009,2.068,3.946,3.25,5.803c0.568,0.949,1.26,1.79,1.883,2.694
			c0.665,0.866,1.401,1.666,2.1,2.509l0.008,0.01c0.476,0.561,0.407,1.401-0.154,1.876c-0.063,0.054-0.13,0.101-0.199,0.14
			l-0.015,0.008c-0.882,0.499-1.772,0.971-2.642,1.482c-0.84,0.576-1.699,1.108-2.522,1.708c-0.805,0.636-1.629,1.23-2.416,1.896
			c-0.779,0.68-1.572,1.327-2.338,2.032c-3.093,2.765-6.078,5.759-9.367,8.54c-1.641,1.392-3.355,2.736-5.18,3.953
			c-1.823,1.222-3.76,2.309-5.784,3.231c-1.037,0.407-2.047,0.893-3.115,1.22c-1.075,0.304-2.146,0.637-3.229,0.908l-3.303,0.565
			c-1.105,0.135-2.219,0.153-3.329,0.231l-0.833,0.047l-0.208,0.011l-0.254-0.004l-0.395-0.011l-1.579-0.043
			c-1.07-0.056-2.241-0.149-3.334-0.277c-2.194-0.268-4.375-0.719-6.522-1.349c-2.134-0.687-4.233-1.559-6.211-2.745
			c-1.974-1.177-3.827-2.729-5.243-4.738c-0.348-0.503-0.643-1.057-0.957-1.587c-0.263-0.566-0.49-1.158-0.718-1.74
			c-0.145-0.616-0.318-1.229-0.413-1.853c-0.044-0.625-0.116-1.275-0.106-1.881c0.014-1.005,0.101-2.25,0.248-3.351
			c0.162-1.138,0.424-2.281,0.79-3.401c0.391-1.116,0.906-2.188,1.513-3.199c0.641-0.983,1.328-1.938,2.129-2.759
			c1.562-1.69,3.36-3.044,5.22-4.205l0.011-0.007l1.077,2.729c-3.504,0.738-6.954,1.675-10.33,2.824
			c-3.372,1.163-6.643,2.585-9.825,4.165c-3.19,1.571-6.215,3.449-9.144,5.44c-2.925,2-5.702,4.213-8.273,6.633
			c-5.18,4.789-9.652,10.35-12.906,16.518c-3.239,6.154-5.256,12.951-5.294,19.783c-0.046,3.412,0.445,6.811,1.402,10.083
			c0.447,1.574,1.157,3.372,1.632,5.354c0.222,0.988,0.425,2.002,0.464,3.117c0.048,1.1-0.053,2.296-0.419,3.443
			c-0.359,1.149-0.96,2.177-1.608,3.032c-0.328,0.424-0.663,0.823-1.005,1.192c-0.17,0.194-0.343,0.359-0.514,0.54l-0.345,0.35
			l-0.259,0.223l-0.518,0.447l-0.647,0.481l-0.651,0.475l-0.601,0.394c-0.799,0.536-1.602,1.011-2.405,1.497
			c-3.216,1.893-6.487,3.579-9.793,5.209c-3.297,1.641-6.645,3.172-10.038,4.625c-1.697,0.727-3.409,1.423-5.159,2.058
			c-0.864,0.334-1.763,0.615-2.648,0.915c-0.514,0.168-0.851,0.274-1.38,0.411c-0.5,0.135-0.998,0.237-1.522,0.316
			c-1.035,0.144-2.254,0.184-3.49-0.34c-1.251-0.515-2.16-1.641-2.608-2.684c-0.496-1.067-0.64-2.094-0.779-3.103
			c-0.031-0.494-0.084-0.997-0.093-1.484l0.005-1.492c0.154-3.595,0.564-7.417,1.142-11.027c1.142-7.291,2.8-14.446,4.604-21.55
			c1.827-7.1,3.857-14.137,6.008-21.134c2.182-6.985,4.423-13.952,6.821-20.862c1.165-3.468,2.417-6.902,3.626-10.354l3.78-10.296
			l1.935-5.13l0.968-2.565l0.876-2.531c0.666-1.747,1-3.396,1.471-5.078c0.303-1.711,0.707-3.435,0.775-5.157
			c0.277-3.433-0.004-6.892-1.241-9.967c-1.218-3.072-3.357-5.719-6.139-7.599c-2.788-1.878-6.073-3.074-9.469-3.785
			c-3.406-0.702-6.946-0.926-10.464-0.736c-3.517,0.199-7.026,0.772-10.376,1.767c-0.845,0.231-1.647,0.56-2.467,0.845
			c-0.782,0.351-1.599,0.655-2.328,1.076c-1.481,0.781-2.916,1.738-3.783,2.899l-0.008,0.009l-1.417-2.371
			c2.347-0.325,4.719-0.63,7.154-0.5c2.422,0.098,4.899,0.454,7.288,1.371c2.375,0.914,4.635,2.465,6.268,4.582
			c1.67,2.101,2.529,4.709,2.849,7.247c0.313,2.558,0.086,5.11-0.521,7.52c-0.601,2.416-1.541,4.717-2.746,6.864
			c-1.212,2.144-2.698,4.132-4.431,5.9c-1.74,1.764-3.71,3.315-5.966,4.493c-0.92,0.517-2.29,1.086-3.478,1.466
			c-1.207,0.39-2.449,0.647-3.697,0.823c-2.501,0.323-5.022,0.221-7.428-0.214c-4.827-0.872-9.243-2.741-13.405-4.839
			c-4.168-2.103-8.123-4.467-12.119-6.579c-1.991-1.062-3.998-2.061-6.04-2.81c-2.036-0.756-4.133-1.203-6.054-0.938l-0.038,0.005
			c-0.693,0.096-1.333-0.389-1.428-1.082C232.155,289.346,232.218,289.063,232.356,288.826z M235.789,288.073
			c1.694,0.043,3.328,0.388,4.837,0.873c2.302,0.73,4.455,1.692,6.557,2.694c4.183,2.04,8.172,4.284,12.257,6.191
			c4.076,1.888,8.233,3.566,12.473,4.243c2.113,0.336,4.23,0.41,6.277,0.122c1.02-0.156,2.027-0.372,3.002-0.697
			c0.514-0.125,0.917-0.354,1.379-0.522c0.426-0.141,0.953-0.439,1.458-0.707c1.805-0.955,3.493-2.26,4.966-3.761
			c1.478-1.505,2.757-3.224,3.808-5.068c2.099-3.665,3.336-7.95,2.918-11.973c-0.22-1.991-0.832-3.914-2-5.444
			c-1.139-1.548-2.748-2.746-4.624-3.53c-1.871-0.802-3.978-1.203-6.125-1.368l-1.623-0.083l-1.642,0.037
			c-1.095-0.009-2.2,0.153-3.304,0.22l-0.219,0.013c-0.8,0.048-1.488-0.562-1.536-1.362c-0.023-0.386,0.109-0.748,0.338-1.022
			l0.012-0.014c1.328-1.792,3.036-2.888,4.737-3.839c0.849-0.502,1.741-0.854,2.619-1.26c0.896-0.332,1.784-0.705,2.695-0.972
			c3.628-1.149,7.366-1.796,11.134-2.037c3.767-0.235,7.575-0.035,11.325,0.702c3.741,0.741,7.448,2.075,10.736,4.269
			c3.28,2.19,5.955,5.443,7.426,9.153c1.496,3.714,1.822,7.729,1.49,11.539c-0.093,1.932-0.526,3.78-0.872,5.655
			c-0.507,1.833-0.946,3.761-1.592,5.427l-0.926,2.639l-0.974,2.554l-1.947,5.107c-2.561,6.822-5.077,13.661-7.498,20.531
			c-2.445,6.863-4.733,13.777-6.961,20.708c-2.181,6.945-4.239,13.925-6.093,20.953c-1.853,7.024-3.48,14.115-4.571,21.255
			c-0.561,3.6-0.931,7.044-1.087,10.743c-0.04,1.626,0.055,3.458,0.616,4.679c0.282,0.614,0.622,0.981,1.071,1.173
			c0.452,0.203,1.133,0.238,1.89,0.123c1.475-0.22,3.269-0.915,4.909-1.528c1.672-0.633,3.333-1.335,4.981-2.068
			c3.299-1.461,6.536-3.09,9.734-4.778c3.182-1.713,6.332-3.511,9.336-5.439c0.74-0.49,1.49-0.973,2.187-1.483l0.53-0.377
			l0.441-0.349l0.445-0.344l0.5-0.467l0.25-0.233c-0.156,0.15-0.013,0.008-0.034,0.026l0.053-0.059l0.105-0.118
			c0.136-0.156,0.289-0.313,0.412-0.468c0.268-0.311,0.506-0.621,0.726-0.928c0.428-0.616,0.725-1.206,0.887-1.809
			c0.329-1.184,0.153-2.66-0.291-4.244c-0.429-1.559-1.12-3.143-1.758-5.054c-1.238-3.688-1.839-7.588-1.886-11.472
			c-0.025-3.889,0.536-7.756,1.541-11.472c1.027-3.714,2.501-7.274,4.297-10.638c3.573-6.756,8.528-12.629,14.119-17.666
			c5.62-5.026,12.008-9.126,18.802-12.275c3.406-1.559,6.916-2.874,10.496-3.945c3.594-1.027,7.248-1.808,10.936-2.33
			c0.825-0.117,1.588,0.458,1.705,1.282c0.08,0.565-0.164,1.101-0.591,1.42l-0.037,0.027l-0.01,0.008
			c-1.646,1.168-3.173,2.458-4.421,3.912c-0.647,0.713-1.156,1.506-1.637,2.301c-0.442,0.817-0.809,1.664-1.081,2.549
			c-0.26,0.891-0.449,1.811-0.558,2.763c-0.096,0.991-0.143,1.851-0.132,2.953c-0.004,1.718,0.542,3.341,1.604,4.763
			c1.046,1.417,2.489,2.639,4.137,3.599c1.647,0.966,3.464,1.708,5.343,2.295c1.897,0.549,3.85,0.961,5.839,1.203
			c0.998,0.114,1.93,0.193,2.96,0.25l1.579,0.043l0.395,0.011c0.041,0,0.188,0.006,0.141,0.003l0.186-0.01l0.744-0.038
			c0.99-0.064,1.99-0.064,2.973-0.175l2.93-0.471c0.959-0.234,1.904-0.523,2.859-0.777c0.947-0.282,1.849-0.705,2.78-1.043
			c1.821-0.79,3.587-1.734,5.284-2.827c1.695-1.094,3.342-2.301,4.948-3.591c3.213-2.581,6.292-5.449,9.59-8.174
			c0.818-0.684,1.69-1.329,2.532-1.994c0.855-0.654,1.769-1.253,2.65-1.88c0.909-0.596,1.866-1.135,2.797-1.699
			c0.978-0.498,1.981-0.953,2.967-1.425l-0.368,2.024l-0.01-0.01c-0.81-0.854-1.665-1.68-2.439-2.569
			c-0.714-0.929-1.508-1.818-2.156-2.789c-1.35-1.914-2.576-3.901-3.692-5.914c-1.132-2.012-2.162-4.049-3.223-6.044
			c-1.049-2.006-2.104-3.977-3.238-5.881c-1.132-1.905-2.351-3.727-3.668-5.456c-0.652-0.87-1.4-1.649-2.092-2.479
			c-0.725-0.798-1.536-1.504-2.292-2.266c-0.789-0.727-1.664-1.351-2.488-2.035c-0.839-0.663-1.747-1.148-2.61-1.74l-0.654-0.427
			l-0.761-0.383l-1.521-0.766l-0.761-0.383l-0.38-0.191l-0.095-0.048l-0.024-0.012c-0.091-0.043,0.097,0.045,0.069,0.033
			l-0.047-0.02l-0.187-0.077l-1.495-0.621c-2.012-0.768-4.079-1.374-6.175-1.765c-2.094-0.401-4.22-0.536-6.308-0.43
			c-2.087,0.112-4.142,0.504-6.056,1.224c-0.481,0.175-0.959,0.358-1.407,0.599c-0.459,0.22-0.924,0.431-1.347,0.712
			c-0.434,0.263-0.888,0.516-1.247,0.811c-0.386,0.296-0.759,0.516-1.192,0.944c-1.578,1.386-2.923,3.013-3.86,4.757
			c-0.963,1.747-1.363,3.669-1.272,5.623c0.082,1.958,0.702,3.948,1.644,5.833c0.947,1.887,2.172,3.687,3.509,5.422l0.008,0.009
			c0.513,0.666,0.389,1.622-0.277,2.134c-0.28,0.215-0.612,0.318-0.94,0.316h-0.019c-0.819,0.021-1.628-0.015-2.452,0.049
			c-0.822,0.043-1.642,0.086-2.467,0.18c-0.823,0.069-1.646,0.169-2.468,0.288c-0.823,0.099-1.643,0.241-2.463,0.382
			c-1.639,0.279-3.272,0.614-4.891,1.004c-0.813,0.18-1.618,0.393-2.422,0.612c-0.807,0.206-1.608,0.433-2.402,0.681
			c-0.798,0.236-1.595,0.475-2.38,0.749c-0.787,0.267-1.58,0.517-2.353,0.818c-0.774,0.298-1.563,0.559-2.322,0.888
			c-0.762,0.323-1.537,0.617-2.286,0.962c-0.748,0.348-1.504,0.678-2.243,1.04l-2.191,1.123l-2.126,1.212l-2.046,1.31
			c-1.057,0.677-2.463,0.369-3.139-0.688c-0.396-0.619-0.455-1.357-0.224-1.998l0.03-0.08l0.006-0.015l1.365-3.714l1.239-3.763
			c0.766-2.531,1.468-5.084,2.115-7.659c1.289-5.152,2.26-10.403,3.197-15.687l2.703-15.963c0.94-5.344,1.994-10.701,3.304-16.022
			c0.656-2.661,1.391-5.308,2.193-7.939c0.406-1.314,0.858-2.617,1.286-3.925l1.43-3.882l1.588-3.826l1.767-3.751l1.934-3.669
			l2.103-3.576l2.269-3.47c0.787-1.135,1.622-2.237,2.431-3.356c1.686-2.187,3.437-4.321,5.324-6.33
			c0.905-1.04,1.896-1.996,2.87-2.967l1.461-1.455l1.525-1.386c2-1.885,4.16-3.578,6.286-5.303c0.643-0.522,1.587-0.423,2.109,0.22
			c0.46,0.566,0.438,1.367-0.013,1.906l-0.038,0.045l-0.013,0.016c-1.344,1.629-2.499,3.403-3.412,5.287
			c-0.92,1.881-1.546,3.886-1.934,5.906c-0.366,2.023-0.428,4.086-0.126,6.049c0.309,1.964,1.014,3.809,2.103,5.352
			c0.561,0.759,1.21,1.438,1.933,2.037c0.754,0.558,1.543,1.082,2.429,1.458c0.43,0.208,0.899,0.349,1.352,0.518
			c0.479,0.113,0.934,0.288,1.43,0.359c0.489,0.093,0.98,0.192,1.449,0.226l0.712,0.081l0.839,0.029l0.42,0.014l0.21,0.007
			l0.105,0.003c-0.132-0.002-0.022-0.001-0.046-0.002l0.025-0.001l0.049-0.002l0.785-0.028c0.523-0.025,1.049-0.022,1.569-0.068
			c1.036-0.127,2.081-0.207,3.097-0.446c1.032-0.164,2.024-0.496,3.031-0.766c0.977-0.369,1.973-0.688,2.914-1.155
			c1.908-0.863,3.738-1.929,5.449-3.191c1.719-1.249,3.357-2.638,4.875-4.173c1.522-1.529,2.991-3.132,4.358-4.839
			c1.375-1.7,2.698-3.454,3.953-5.271c2.538-3.615,4.847-7.424,7.279-11.204c1.213-1.893,2.446-3.789,3.773-5.649
			c1.329-1.857,2.758-3.684,4.496-5.325l0.225,1.969l-0.012-0.008c-2.238-1.374-3.875-3.051-5.561-4.702
			c-1.661-1.661-3.26-3.346-4.869-5.008c-1.613-1.658-3.201-3.324-4.836-4.934c-1.634-1.609-3.301-3.172-5.015-4.667
			c-1.709-1.5-3.481-2.91-5.311-4.213c-1.825-1.305-3.702-2.53-5.669-3.531c-1.961-1.012-3.993-1.837-6.068-2.424
			c-2.074-0.598-4.206-0.875-6.32-0.839c-2.005,0.021-4.214,0.397-6.286,1.025c-2.073,0.638-4.07,1.5-5.93,2.588
			c-3.716,2.168-6.907,5.254-9.009,8.965c-1.059,1.844-1.845,3.843-2.235,5.899c-0.389,2.046-0.476,4.163-0.003,6.143
			c0.448,1.977,1.325,3.851,2.71,5.343c1.361,1.506,3.122,2.683,5.093,3.496c0.775,0.32,1.145,1.208,0.825,1.983
			c-0.14,0.34-0.389,0.602-0.69,0.762l-0.083,0.044L393,186.073c-0.631,0.338-1.262,0.633-1.901,1.074
			c-0.64,0.387-1.267,0.844-1.894,1.301c-0.633,0.437-1.239,0.946-1.857,1.423c-0.621,0.472-1.215,0.998-1.821,1.499
			c-1.202,1.018-2.392,2.061-3.55,3.141c-1.171,1.065-2.309,2.17-3.446,3.273c-1.127,1.116-2.244,2.239-3.336,3.386
			c-0.555,0.565-1.083,1.153-1.623,1.73c-0.543,0.576-1.068,1.164-1.589,1.755c-1.05,1.174-2.072,2.373-3.029,3.588
			c-0.493,0.605-0.955,1.217-1.388,1.833c-0.473,0.615-0.816,1.224-1.215,1.83c-0.676,1.027-2.055,1.312-3.082,0.636
			c-0.758-0.498-1.111-1.38-0.973-2.221l0.014-0.081l0.001-0.008c0.221-1.422,0.505-2.828,0.686-4.252l0.158-2.154
			c0.046-0.719,0.138-1.431,0.097-2.159c0.012-2.893-0.198-5.797-0.618-8.707c-0.208-1.455-0.414-2.909-0.733-4.362l-0.432-2.18
			l-0.509-2.18c-0.331-1.452-0.693-2.906-1.087-4.361l-1.166-4.374c-0.779-2.923-1.609-5.854-2.37-8.824
			c-0.397-1.476-0.76-2.969-1.108-4.471c-0.367-1.493-0.706-2.998-1.003-4.52c-0.322-1.512-0.626-3.03-0.857-4.571
			c-0.258-1.532-0.51-3.06-0.658-4.652c-0.164-1.569-0.386-3.176-0.424-4.667l-0.119-2.276l-0.061-1.214l0.009-1.176
			c0.03-1.568-0.027-3.135,0.121-4.702c0.114-1.567,0.173-3.135,0.422-4.694c0.202-1.561,0.39-3.123,0.747-4.664l0.474-2.318
			c0.176-0.769,0.418-1.525,0.625-2.288l0.648-2.282l0.828-2.23c0.286-0.74,0.534-1.493,0.857-2.218l1.032-2.149
			c0.364-0.707,0.648-1.452,1.078-2.124l1.229-2.047c0.765-1.398,1.781-2.635,2.719-3.92c1.935-2.524,4.163-4.824,6.587-6.872
			l0.891-0.789l0.962-0.698l1.932-1.383c1.249-0.984,2.693-1.65,4.048-2.454c1.346-0.831,2.804-1.423,4.241-2.055l2.155-0.944
			l2.225-0.741l2.224-0.734c0.735-0.269,1.491-0.45,2.252-0.614l4.544-1.042c0.806-0.185,1.609,0.319,1.794,1.125
			c0.17,0.741-0.241,1.479-0.934,1.737l-0.081,0.03l-0.019,0.007c-2.05,0.776-4,1.76-5.669,3.06
			c-1.669,1.296-3.048,2.886-4.059,4.669c-0.968,1.806-1.571,3.804-1.725,5.862c-0.157,2.059,0.083,4.16,0.684,6.164
			c0.573,2.014,1.557,3.9,2.764,5.593c1.231,1.655,2.763,3.167,4.459,4.18l0.615,0.371l0.779,0.387l0.195,0.097l0.097,0.048
			c0.074,0.036-0.073-0.034-0.05-0.024l0.023,0.009l0.047,0.019l0.375,0.149l0.75,0.299c0.988,0.447,2.029,0.683,3.05,1.002
			c2.076,0.473,4.195,0.682,6.317,0.571c2.122-0.127,4.225-0.611,6.279-1.297c2.058-0.683,4.048-1.654,5.972-2.769
			c3.857-2.225,7.459-5.033,10.966-7.994c3.521-2.954,6.924-6.124,10.621-9.055c1.854-1.461,3.778-2.876,5.877-4.098
			c2.092-1.213,4.409-2.245,6.971-2.588l-0.471,2.306l-0.014-0.01c-2.325-1.518-3.572-3.597-4.759-5.579
			c-1.163-2.011-2.161-4.058-3.134-6.1c-1.933-4.085-3.704-8.189-5.718-12.132c-0.992-1.98-2.063-3.902-3.189-5.776
			c-1.126-1.875-2.353-3.663-3.675-5.351c-1.315-1.695-2.787-3.229-4.386-4.551c-1.603-1.311-3.323-2.457-5.203-3.175
			c-0.943-0.337-1.889-0.682-2.88-0.839c-0.492-0.109-0.982-0.208-1.448-0.224c-0.492-0.027-0.898-0.12-1.459-0.108l-1.683,0.039
			l-0.21,0.005l-0.026,0c0.04-0.002-0.126,0.005,0.083-0.004l-0.05,0.005l-0.1,0.009l-0.4,0.038l-0.8,0.076
			c-1.063,0.116-2.126,0.252-3.169,0.462c-4.173,0.791-8.234,2.27-11.564,4.676c-1.665,1.193-3.092,2.649-4.177,4.282
			c-1.042,1.652-1.717,3.491-1.787,5.387c-0.067,1.885,0.374,3.817,1.339,5.568c0.943,1.758,2.289,3.362,3.849,4.78
			c0.62,0.564,0.666,1.524,0.102,2.145c-0.318,0.349-0.77,0.516-1.208,0.494l-0.011,0c-1.471-0.13-3.047,0.003-4.604,0.223
			c-1.564,0.21-3.127,0.59-4.679,0.994c-1.547,0.441-3.089,0.919-4.603,1.494c-0.761,0.273-1.515,0.569-2.262,0.886
			c-0.753,0.298-1.493,0.631-2.231,0.968c-1.479,0.667-2.935,1.391-4.364,2.164c-1.432,0.767-2.842,1.578-4.216,2.444
			c-0.696,0.42-1.375,0.865-2.047,1.322c-0.679,0.446-1.35,0.904-2.003,1.387c-1.327,0.937-2.608,1.937-3.864,2.964
			c-1.259,1.025-2.463,2.112-3.652,3.213l-1.732,1.705l-1.662,1.77c-1.076,1.207-2.138,2.43-3.108,3.721
			c-0.506,0.631-0.985,1.28-1.437,1.949c-0.459,0.663-0.94,1.313-1.352,2.006c-0.885,1.35-1.66,2.761-2.431,4.174l-1.049,2.173
			c-0.35,0.725-0.625,1.481-0.941,2.219c-0.327,0.735-0.568,1.502-0.832,2.261c-0.271,0.756-0.525,1.519-0.72,2.298
			c-0.469,1.537-0.773,3.115-1.102,4.686l-0.002,0.011c-0.172,0.824-0.98,1.352-1.804,1.18c-0.197-0.041-0.38-0.122-0.538-0.227
			l-0.008-0.005c-1.082-0.719-2.147-1.458-3.242-2.163c-1.116-0.678-2.213-1.381-3.345-2.04c-2.261-1.321-4.56-2.595-6.881-3.847
			c-4.643-2.503-9.36-4.94-13.991-7.594l-3.454-2.034l-3.403-2.141l-3.33-2.274l-3.232-2.434l-3.103-2.619l-2.937-2.823
			l-2.729-3.042l-2.478-3.266c-0.493-0.649-0.366-1.575,0.284-2.068c0.406-0.308,0.921-0.374,1.369-0.221l0.204,0.071l0.01,0.003
			c1.907,0.739,4.101,0.904,6.27,0.544c2.171-0.349,4.31-1.111,6.297-2.152c3.985-2.048,7.46-5.266,9.404-9.147
			c0.964-1.937,1.536-4.023,1.596-6.128c0.065-2.105-0.394-4.214-1.272-6.189c-0.871-1.979-2.115-3.837-3.591-5.541
			c-0.365-0.42-0.761-0.799-1.137-1.203l-0.57-0.599l-0.668-0.604l-1.351-1.209l-1.271-1.001c-1.798-1.33-3.771-2.404-5.871-3.201
			c-2.099-0.8-4.319-1.32-6.593-1.644c-4.559-0.641-9.303-0.439-14.075-0.12c-4.779,0.33-9.616,0.863-14.539,0.989
			c-4.905,0.09-9.97-0.178-14.789-1.717l1.54-1.571l0.003,0.012c0.799,2.568,0.684,5.179,0.321,7.607
			c-0.374,2.443-1.001,4.781-1.679,7.076c-1.36,4.585-3.024,8.99-4.318,13.453c-0.658,2.227-1.253,4.459-1.683,6.701
			c-0.434,2.239-0.766,4.489-0.831,6.718c-0.068,2.226,0.041,4.443,0.502,6.571c0.469,2.124,1.236,4.15,2.259,6.048
			c1.095,1.86,2.425,3.588,3.989,5.13c0.368,0.41,0.799,0.717,1.193,1.083c0.423,0.351,0.756,0.711,1.249,1.058l1.427,1.044
			l0.646,0.473l0.692,0.431c3.665,2.342,7.954,3.487,12.163,2.987c2.097-0.269,4.152-0.913,6.073-1.864
			c1.901-0.987,3.676-2.264,5.189-3.798c1.509-1.535,2.773-3.312,3.588-5.232c0.771-1.914,1.066-3.993,0.421-5.704l-0.005-0.014
			c-0.293-0.778,0.1-1.646,0.878-1.939c0.664-0.25,1.395,0.001,1.777,0.564l0.003,0.005c0.895,1.337,1.855,2.649,2.985,3.853
			c0.541,0.618,1.122,1.207,1.721,1.783c0.577,0.593,1.212,1.14,1.829,1.701c2.502,2.218,5.208,4.254,7.977,6.223
			c5.547,3.932,11.346,7.61,16.978,11.607c1.41,0.997,2.804,2.022,4.189,3.064l2.058,1.594l2.023,1.649
			c1.33,1.126,2.64,2.28,3.91,3.489c1.263,1.215,2.489,2.475,3.655,3.8c1.162,1.329,2.26,2.721,3.276,4.182
			c0.523,0.718,0.961,1.501,1.444,2.25c0.469,0.759,0.853,1.574,1.282,2.36c0.401,0.802,0.728,1.644,1.093,2.464
			c0.321,0.841,0.585,1.706,0.878,2.558c0.231,0.873,0.429,1.755,0.642,2.633l0.392,2.683c0.116,0.792-0.433,1.528-1.225,1.644
			c-0.17,0.025-0.338,0.019-0.498-0.013l-0.104-0.022l-0.008-0.001c-1.301-0.263-2.593-0.561-3.911-0.759
			c-1.309-0.239-2.632-0.408-3.955-0.576c-1.32-0.187-2.656-0.264-3.983-0.403c-1.332-0.096-2.666-0.155-3.999-0.231l-4.006-0.057
			l-4.004,0.108l-3.994,0.276l-3.975,0.455l-3.945,0.646c-1.31,0.242-2.602,0.562-3.905,0.837c-1.306,0.266-2.567,0.696-3.852,1.035
			c-1.292,0.325-2.531,0.808-3.787,1.237l-1.878,0.664l-1.83,0.781c-1.22,0.521-2.454,1.013-3.615,1.654
			c-1.166,0.628-2.388,1.158-3.508,1.865l-3.387,2.073c-0.712,0.436-1.642,0.212-2.078-0.5c-0.311-0.508-0.286-1.128,0.013-1.599
			l0.028-0.044l0.005-0.008c1.166-1.688,1.885-3.634,2.127-5.644c0.25-2.011-0.007-4.088-0.705-6.003
			c-0.68-1.915-1.737-3.717-3.157-5.14c-1.411-1.428-3.12-2.522-4.986-3.119c-1.871-0.584-3.879-0.642-5.842-0.262
			c-1.967,0.383-3.884,1.209-5.678,2.303c-1.778,1.136-3.454,2.49-5.007,4.011c-0.762,0.774-1.466,1.524-2.205,2.364l-1.092,1.33
			l-0.546,0.666l-0.428,0.595c-1.239,1.696-2.216,3.572-2.921,5.569c-0.711,1.996-1.142,4.11-1.403,6.273
			c-0.515,4.337-0.255,8.844,0.025,13.396c0.289,4.556,0.704,9.197,0.508,13.929c-0.115,2.362-0.387,4.745-0.939,7.09
			c-0.544,2.344-1.397,4.645-2.603,6.752l-1.659-1.708l0.013-0.005c2.34-1.155,4.885-1.344,7.207-1.197
			c2.348,0.135,4.604,0.525,6.824,0.95c4.432,0.869,8.727,1.949,13.045,2.579c4.307,0.665,8.625,0.876,12.796,0.33
			c2.078-0.304,4.104-0.826,6.043-1.558c1.956-0.7,3.764-1.743,5.489-2.894l1.266-0.913c0.405-0.316,0.775-0.654,1.166-0.977
			l0.58-0.488c0.195-0.171,0.395-0.386,0.592-0.576l1.188-1.178l0.074-0.074l0.037-0.037l0.019-0.019
			c-0.099,0.101-0.018,0.018-0.036,0.035l0.13-0.146l0.26-0.293l0.522-0.585c0.359-0.381,0.654-0.811,0.986-1.213
			c0.634-0.824,1.23-1.678,1.753-2.569c2.103-3.536,3.413-7.596,3.197-11.599c-0.092-1.988-0.512-3.958-1.379-5.699
			c-0.833-1.757-2.075-3.284-3.629-4.428c-1.544-1.157-3.408-1.891-5.376-2.251c-1.974-0.356-4.059-0.308-6.129,0.007l-0.096,0.015
			c-0.816,0.125-1.579-0.437-1.703-1.253c-0.11-0.726,0.321-1.409,0.992-1.639l0.007-0.002c3.087-1.166,6.192-2.297,9.36-3.265
			c3.152-1.013,6.379-1.818,9.628-2.533c6.517-1.295,13.281-2.066,20.066-1.108c3.374,0.481,6.747,1.369,9.881,2.88
			c3.132,1.503,6.005,3.591,8.404,6.114c2.375,2.548,4.263,5.494,5.714,8.592c1.445,3.105,2.452,6.364,3.188,9.65
			c1.454,6.587,1.812,13.289,1.662,19.915c-0.164,6.633-0.861,13.216-1.863,19.733c-1.014,6.516-2.315,12.976-3.885,19.363
			c-1.562,6.389-3.346,12.717-5.306,18.987c-0.247,0.791-1.089,1.232-1.88,0.984c-0.358-0.112-0.645-0.346-0.828-0.642l-0.056-0.091
			l-0.002-0.003c-0.452-0.82-1.249-1.721-2.076-2.53c-0.842-0.82-1.776-1.58-2.725-2.318c-0.971-0.717-1.959-1.419-2.994-2.06
			c-1.022-0.656-2.083-1.26-3.158-1.832c-1.074-0.576-2.172-1.111-3.286-1.606c-1.113-0.498-2.243-0.963-3.39-1.376
			c-0.569-0.22-1.147-0.413-1.728-0.599c-0.578-0.196-1.159-0.379-1.747-0.538c-1.168-0.348-2.354-0.629-3.542-0.887
			c-1.19-0.256-2.39-0.447-3.593-0.621c-1.207-0.138-2.414-0.271-3.626-0.319c-0.605-0.047-1.211-0.048-1.817-0.05
			c-0.606-0.006-1.212-0.017-1.816,0.023c-1.212,0.029-2.415,0.152-3.619,0.278c-1.195,0.181-2.396,0.34-3.572,0.623
			c-1.188,0.226-2.344,0.59-3.506,0.919c-1.143,0.393-2.293,0.768-3.4,1.259c-1.132,0.429-2.197,1.014-3.292,1.529l-0.001,0
			c-0.735,0.382-1.641,0.096-2.024-0.64c-0.28-0.539-0.201-1.168,0.15-1.617l0.037-0.047c1.265-1.613,2.037-3.56,2.326-5.61
			c0.261-2.062,0.017-4.203-0.569-6.241c-1.163-4.089-3.851-7.777-7.332-10.03c-1.743-1.13-3.709-1.844-5.733-2.098
			c-2.027-0.261-4.107-0.033-6.119,0.558c-1.994,0.581-4.006,1.569-5.726,2.75c-0.223,0.147-0.44,0.271-0.669,0.436l-0.698,0.533
			l-0.698,0.533l-0.349,0.267l-0.087,0.066l-0.044,0.033l-0.022,0.017c0.11-0.087,0.02-0.014,0.039-0.03l-0.151,0.134
			c-0.399,0.359-0.812,0.704-1.203,1.072l-1.124,1.159c-2.902,3.209-4.835,7.28-6.241,11.562c-1.399,4.301-2.289,8.835-3.127,13.419
			c-0.838,4.587-1.563,9.25-2.7,13.891c-0.582,2.316-1.268,4.627-2.156,6.887c-0.448,1.128-0.946,2.243-1.505,3.332
			C236.19,287.386,235.987,287.729,235.789,288.073z"/>
	</g>
	<path style="&st3;" d="M257.454,61.393c3.527,7.14,11.676,18.317,18.232,23.077"/>
	<path style="&st3;" d="M403.886,302.596c7.045-0.369,14.714,1.41,25.85,6.018"/>
	<path style="&st3;" d="M407.089,182.351c7.359-3.829,18.317-4.597,26.824-3.064"/>
	<path style="&st3;" d="M406.679,82.082c9.759-0.646,18.114,2.159,27.863,8.499"/>
	<path style="&st3;" d="M249.003,194.281c4.451-7.984,11.16-16.428,19.307-20.332"/>
	<path style="&st3;" d="M246.324,279.631c5.47-6.927,12.515-12.244,20.794-15.512"/>
</g>
<path style="&st2;" d="M434.661,485.596c-4.85,6.05-10.04,11.84-15.53,17.33c-0.93,0.92-1.86,1.83-2.81,2.73
	c-1.87,0.1-3.88,0.15-6.06,0.15c-28.35,0-28.35-8.5-56.7-8.5c-28.34,0-28.34,8.5-56.69,8.5c-28.35,0-28.35-8.5-56.69-8.5
	c-18.08,0-24.63,3.46-34.36,5.97v-17.12c9.73-2.51,16.28-5.97,34.36-5.97c28.34,0,28.34,8.5,56.69,8.5c28.35,0,28.35-8.5,56.69-8.5
	c28.35,0,28.35,8.5,56.7,8.5C421.831,488.687,428.681,487.267,434.661,485.596z"/>
<path style="&st2;" d="M459.721,446.157c-3.07,6.27-6.47,12.39-10.16,18.34c-12.89,2.42-18.35,7.07-39.3,7.07
	c-28.35,0-28.35-8.5-56.7-8.5c-28.34,0-28.34,8.5-56.69,8.5c-28.35,0-28.35-8.5-56.69-8.5c-18.08,0-24.63,3.46-34.36,5.97v-17.12
	c9.73-2.51,16.28-5.97,34.36-5.97c28.34,0,28.34,8.5,56.69,8.5c28.35,0,28.35-8.5,56.69-8.5c28.35,0,28.35,8.5,56.7,8.5
	C435.961,454.447,438.351,447.457,459.721,446.157z"/>
<path style="&st2;" d="M473.051,411.857c-1.67,5.73-3.58,11.4-5.74,16.97h-0.36c-28.35,0-28.35,8.5-56.69,8.5
	c-28.35,0-28.35-8.5-56.7-8.5c-28.34,0-28.34,8.5-56.69,8.5c-28.35,0-28.35-8.5-56.69-8.5c-18.08,0-24.63,3.46-34.36,5.97v-17.12
	c9.73-2.51,16.28-5.97,34.36-5.97c28.34,0,28.34,8.5,56.69,8.5c28.35,0,28.35-8.5,56.69-8.5c28.35,0,28.35,8.5,56.7,8.5
	c28.34,0,28.34-8.5,56.69-8.5C469.151,411.707,471.171,411.757,473.051,411.857z"/>
<path style="&st4;" d="M205.819,417.671c9.729-2.506,16.281-5.964,34.362-5.964c28.347,0,28.347,8.504,56.693,8.504
	c28.347,0,28.347-8.504,56.693-8.504c28.347,0,28.347,8.504,56.693,8.504c28.347,0,28.347-8.504,56.693-8.504
	c2.2,0,4.212,0.057,6.092,0.152"/>
<path style="&st4;" d="M205.819,434.791c9.729-2.506,16.281-5.964,34.362-5.964c28.347,0,28.347,8.504,56.693,8.504
	c28.347,0,28.347-8.504,56.693-8.504c28.347,0,28.347,8.504,56.693,8.504c28.347,0,28.347-8.504,56.693-8.504
	c0.127,0,0.246,0.003,0.372,0.003"/>
<path style="&st4;" d="M205.819,451.911c9.729-2.506,16.281-5.964,34.362-5.964c28.347,0,28.347,8.504,56.693,8.504
	c28.347,0,28.347-8.504,56.693-8.504c28.347,0,28.347,8.504,56.693,8.504c25.7,0,28.114-6.986,49.463-8.291"/>
<path style="&st4;" d="M205.819,469.032c9.729-2.506,16.281-5.964,34.362-5.964c28.347,0,28.347,8.504,56.693,8.504
	c28.347,0,28.347-8.504,56.693-8.504c28.347,0,28.347,8.504,56.693,8.504c20.952,0,26.425-4.644,39.298-7.067"/>
<path style="&st4;" d="M205.819,486.151c9.729-2.505,16.281-5.964,34.362-5.964c28.347,0,28.347,8.504,56.693,8.504
	c28.347,0,28.347-8.504,56.693-8.504c28.347,0,28.347,8.504,56.693,8.504c11.558,0,18.404-1.414,24.381-3.087"/>
<path style="&st4;" d="M205.819,503.271c9.729-2.505,16.281-5.964,34.362-5.964c28.347,0,28.347,8.504,56.693,8.504
	c28.347,0,28.347-8.504,56.693-8.504c28.347,0,28.347,8.504,56.693,8.504c2.187,0,4.189-0.055,6.063-0.149"/>
<path style="&st5;" d="M24.625,67.266c24.113,9.447,25.15,39.301,25.277,60.441l5.422,224.486c0,27.896,5.531,55.791,16.248,81.584
	c10.67,25.742,26.428,49.379,46.199,69.15c19.723,19.574,43.361,35.723,69.103,46.002c25.789,10.766,53.686,16.15,81.582,16.15
	c27.895,0,55.791-5.385,81.584-16.15c25.742-10.279,49.379-26.428,69.102-46.002c19.773-19.772,35.531-43.408,46.201-69.15
	c10.717-25.793,16.246-53.688,16.246-81.584l6.363-222.674c0.979-21.094-3.672-50.557,24.469-62.301l0.978-0.344
	c-92.152-46.976-305.434-90.881-489.887-0.244L24.625,67.266z"/>
<line style="&st6;" x1="205.819" y1="555.763" x2="205.819" y2="16.519"/>
<g>
</g>
<g>
</g>
<g>
</g>
<g>
</g>
<g>
</g>
<g>
</g>
</svg>
