<svg xmlns="http://www.w3.org/2000/svg" width="701.33" height="741.77" viewBox="0 0 701.3341 741.76859"><g transform="translate(-31.02-40.906)"><path d="m36.698 46.41l13.398 416.62c7.415 175.25 153.92 314.05 331.59 314.14 177.51-.215 324.07-139.06 331.59-314.14l13.398-416.62h-344.98z" fill="#03f" fill-rule="evenodd"/><g stroke="#000" stroke-width="11"><path d="m496.23 5.5v193.34h193.21l6.217-193.34h-199.43z" transform="translate(31.02 40.906)" fill="#fff" stroke-linejoin="round" stroke-linecap="round"/><path d="m36.698 46.41l13.398 416.62c7.415 175.25 153.92 314.05 331.59 314.14 177.51-.215 324.07-139.06 331.59-314.14l13.398-416.62h-344.98z" fill="none" fill-rule="evenodd"/><path d="m5.68 5.5l3.895 121.1 540.45 543.55c43.12-32.13 78.14-74.39 101.33-123.26l-538.3-541.39h-107.37z" transform="translate(31.02 40.906)" fill="#ffd700" stroke-linejoin="round" stroke-linecap="round"/><path d="m264.98 275.35l4.532 141.18c2.508 59.39 52.07 106.42 112.17 106.45 60.05-.073 109.63-47.12 112.17-106.45l4.532-141.18h-116.7z" fill="#fff" fill-rule="evenodd"/></g><text x="293.31" y="480.29" font-family="Consolas" letter-spacing="0" word-spacing="0" text-align="start" font-weight="bold" line-height="125%" font-size="250"><tspan x="293.31" y="480.29">B</tspan></text></g></svg>