<svg xmlns="http://www.w3.org/2000/svg" width="701.33" height="741.77" viewBox="0 0 701.3341 741.76859"><g transform="translate(-18.875-48.05)"><g stroke="#000"><path d="m24.555 53.55l13.398 416.62c7.415 175.25 153.92 314.05 331.59 314.14 177.51-.215 324.07-139.06 331.59-314.14l13.398-416.62h-344.98z" fill="#f00" fill-rule="evenodd" stroke-width="11"/><g stroke-linejoin="round"><path d="m-415.84 460.79l-34.19 13.07 5.776 36.15-28.416-23.08-28.416 23.08 5.776-36.15-34.19-13.07 34.19-13.07-5.776-36.15 28.416 23.08 28.416-23.08-5.776 36.15z" transform="matrix(0 1.92999-1.93931 0 1263.16 1545.17)" fill="#ffd700" stroke-linecap="round" stroke-width="5.686"/><g fill="#fff" fill-rule="evenodd" stroke-width="11"><path d="m149.21 105.57c.164 12.617 2.16 25.21 5.907 37.26 6.843 22.01 19.376 41.856 33.622 59.974 6.175 7.854 12.696 15.436 19.537 22.717l21.354-25.443c-10.923-6.669-21.273-14.279-30.896-22.717-14.365-12.596-27.16-27.12-36.802-43.617-5.208-8.912-9.48-18.37-12.722-28.17z"/><path d="m450.2 74.64c-35.407.066-70.7 12.437-98.35 34.562-10.16-4.764-21.508-6.971-32.713-6.361-15.303.833-30.02 6.851-42.709 15.449-11.668 7.908-21.971 18.235-28.17 30.895-6.289 12.843-8.08 27.837-4.996 41.801-.446.274-.887.554-1.332.83a22.403377 25.15447 35.06615 0 0 -3.49609 -3.10156 22.403377 25.15447 35.06615 0 0 -12.92188 -3.55078 22.403377 25.15447 35.06615 0 0 -19.83203 11.55859 22.403377 25.15447 35.06615 0 0 -3.55664 23.19531c-.879.703-1.754 1.411-2.627 2.121a21.06464 23.654253 29.335943 0 0 -6.1875 -5.50586 21.06464 23.654253 29.335943 0 0 -10.2461 -2.34375 21.06464 23.654253 29.335943 0 0 -19.65625 12.86719 21.06464 23.654253 29.335943 0 0 -1.66211 20.86914 21.06464 23.654253 20.0391 0 0 -20.94921 16.27539 21.06464 23.654253 20.0391 0 0 -1.1836 12.83398 21.06464 23.654253 20.0391 0 0 -22.28711 16.26563 21.06464 23.654253 20.0391 0 0 5.90625 25.82421c-.356.901-.691 1.809-1.035 2.715a18.869507 21.21817 12.733974 0 0 -1.11133 -.29297 18.869507 21.21817 12.733974 0 0 -3.75196 -.40039 18.869507 21.21817 12.733974 0 0 -19.28515 17.01758 18.869507 21.21817 12.733974 0 0 12.63476 24.49414c-.162.835-.334 1.668-.488 2.504a17.11471 19.27632 0 0 0 -3.18164 -.34961 17.11471 19.27632 0 0 0 -17.11523 19.27735 17.11471 19.27632 0 0 0 14.375 19.00391 19.27632 17.11471 81.18457 0 0 -12.91016 21.46484 19.27632 17.11471 81.18457 0 0 13.92383 16.1543 19.27632 17.11471 81.00853 0 0 -11.66602 21.16601 19.27632 17.11471 81.00853 0 0 17.44922 16.52735 19.27632 17.11471 72.863746 0 0 -5.33398 20.5371 19.27632 17.11471 72.863746 0 0 19.38672 13.91797 19.27632 17.11471 71.22691 0 0 -2.85157 18.67383 19.27632 17.11471 71.22691 0 0 21.79688 12.92578c.302.449.601.9.906 1.348a19.27632 17.11471 69.95949 0 0 -3.62305 20.13867 19.27632 17.11471 69.95949 0 0 22.68555 12.24414 19.27632 17.11471 69.95949 0 0 2.80469 -1.37695c4.916 7.594 9.276 15.469 12.357 23.992 3.356 9.282 5.103 19.318 3.635 29.08-1.081 7.188-3.911 14.11-8.178 19.992 8.829-.554 17.475-3.757 24.535-9.09 7.123-5.378 12.678-13.08 14.539-21.809 1.635-7.673.313-15.937-3.635-22.717 7.371 1.669 15.377.335 21.809-3.635 7.652-4.722 12.839-12.979 14.539-21.809 2.083-10.821-1.014-22.523-8.178-30.896-.274 2.946-1.362 5.813-3.111 8.199-1.75 2.386-4.157 4.285-6.885 5.432-3.312 1.392-7.02 1.663-10.586 1.201-3.563-.462-7-1.627-10.314-3.02-17.934-7.53-32.662-21.903-41.799-39.07-10.706-20.12-13.868-43.573-12.723-66.34 1.06-21.08 5.654-41.906 12.723-61.791 8.03-22.593 19.341-44.14 34.529-62.699 14.802-18.08 33.19-33.17 53.613-44.525 13.204-7.344 27.26-13.151 41.801-17.266l9.09 10.904c-6.529 1.14-12.936 2.97-19.08 5.451-11.222 4.53-21.594 11.275-29.988 19.992-9.704 10.08-16.677 22.757-19.99 36.35l13.631 15.447c6.118-8.276 15.1-14.388 25.05-17.04 9.944-2.653 20.778-1.828 30.21 2.301 8.137 3.564 15.187 9.54 20.11 16.932 4.927 7.392 7.726 16.17 8.08 25.04.465 11.579-3.172 23.06-8.861 33.16-5.69 10.1-13.37 18.927-21.463 27.22-16.187 16.587-34.734 32.01-44.04 53.23-8.946 20.413-7.909 44.932 2.727 64.52 19.695-16.747 41.41-31.12 64.52-42.709 29.377-14.731 61.64-25.04 94.5-24.533 25.12.389 49.944 7.132 72.52 18.14 22.577 11.01 42.96 26.22 61.06 43.646 21.553 20.749 39.995 44.723 54.52 70.877 9.421-27.486 16.424-55.799 20.9-84.51 5.573-35.742 7.218-72.24 2.727-108.13-3.03-24.18-8.832-48.01-17.266-70.879 9.109-6.858 17.12-15.172 23.625-24.533 3.437-4.943 6.475-10.208 8.51-15.875 2.035-5.667 3.045-11.762 2.395-17.748-.79-7.276-3.962-14.06-7.24-20.6-3.278-6.544-6.747-13.12-8.207-20.291-1.992-9.785-.098-19.917 2.246-29.623 2.345-9.706 5.163-19.457 5.02-29.441-.172-12.33-5.01-24.448-12.941-33.889-7.933-9.441-18.852-16.224-30.676-19.725-8.429-2.496-17.237-3.365-25.914-4.771-8.677-1.407-17.435-3.429-24.973-7.951-7.382-4.429-13.198-11.02-18.564-17.75-5.366-6.732-10.459-13.765-16.875-19.506-7.657-6.851-17.02-11.653-26.844-14.646-9.828-2.994-20.13-4.224-30.404-4.436-1.142-.024-2.284-.035-3.426-.033z"/></g></g></g><g fill-rule="evenodd"><path d="m459.85 93.82c-7.912-.083-15.841 1.557-23.06 4.793 6.974-.624 14.03-.331 20.928.871 8.267 1.441 16.286 4.18 23.834 7.848 7.95 3.863 15.395 8.762 22.09 14.533l4.941-6.104c-4.934-4.675-10.408-8.78-16.277-12.207-8.888-5.19-18.802-8.84-29.07-9.592-1.127-.083-2.256-.131-3.387-.143m95.62 63.844c-1.779.003-3.557.083-5.328.244 8.341 2.488 16.435 5.804 24.12 9.883 10.907 5.785 21.397 13.577 26.74 24.707 3.043 6.339 4.237 13.385 5.232 20.346.912 6.377 1.689 12.773 2.326 19.18 2.837-6.384 4.332-13.36 4.359-20.346.034-8.475-2.103-16.944-6.104-24.416-6.152-11.49-16.675-20.452-28.777-25.289-7.158-2.861-14.867-4.324-22.574-4.313m-244.62 3.09c-2.122.03-4.233.323-6.283.92-4.116 1.198-7.803 3.558-11.15 6.236-3.347 2.679-6.409 5.697-9.697 8.447-3.669 3.069-7.619 5.802-11.783 8.156 4.218.199 8.481-.615 12.328-2.355 1.988-.899 3.846-2.04 5.652-3.268a21.935068 16.813864 0 0 0 -.30469 2.76953 21.935068 16.813864 0 0 0 21.9336 16.8125 21.935068 16.813864 0 0 0 21.93554 -16.8125 21.935068 16.813864 0 0 0 -.36718 -2.98828c1.222 1.127 2.449 2.248 3.721 3.305 1.125.935 2.297 1.829 3.596 2.502 1.299.673 2.736 1.121 4.199 1.123 1.432.002 2.862-.434 4.049-1.236 1.187-.802 2.127-1.965 2.66-3.295-1.815.997-4.11 1.067-5.982.182-1.034-.489-1.925-1.24-2.709-2.072-.784-.832-1.47-1.751-2.186-2.643-4.292-5.346-9.728-9.817-15.953-12.689-4.265-1.968-8.99-3.161-13.658-3.094m2.127 7.5c3.429.078 6.844.916 9.898 2.482 1.233.632 2.391 1.378 3.508 2.184a17.941732 13.732077 0 0 1 3.10547 7.69727 17.941732 13.732077 0 0 1 -17.94336 13.73242 17.941732 13.732077 0 0 1 -17.94141 -13.73242 17.941732 13.732077 0 0 1 1.45313 -5.4043c2.362-1.711 4.786-3.377 7.398-4.639a11.194137 10.604972 0 0 0 -4.14257 8.23047 11.194137 10.604972 0 0 0 11.19335 10.60351 11.194137 10.604972 0 0 0 11.19532 -10.60351 11.194137 10.604972 0 0 0 -9.75391 -10.50586c.675-.044 1.353-.06 2.029-.045m77.22 2.697c-2.73-.003-5.455.655-7.918 1.838-2.815 1.352-5.289 3.377-7.27 5.791-4.332 5.281-6.218 12.498-4.998 19.219 1.085 5.977 4.586 11.48 9.541 14.994-2.213-5.309-2.213-11.501 0-16.811.758-1.819 1.799-3.575 3.34-4.805.77-.615 1.66-1.088 2.615-1.33.955-.242 1.976-.248 2.92.037 1.037.313 1.955.969 2.656 1.795.701.826 1.193 1.816 1.512 2.852.638 2.071.596 4.282.588 6.449-.042 11.212.953 22.449 0 33.621-2.01 23.544-12.584 45.894-13.176 69.52-.383 15.281 3.593 30.729 11.813 43.617 6.3 9.878 15.01 18.17 25.07 24.19 12.597 7.54 27.802 11.507 42.18 8.527 3.096-.642 6.12-1.594 9.213-2.254 3.092-.659 6.3-1.023 9.414-.473 4.294.759 8.11 3.2 11.469 5.98 3.358 2.781 6.391 5.952 9.887 8.559 5.301 3.952 11.58 6.516 18.08 7.746 6.496 1.23 13.207 1.149 19.736.105 10.562-1.688 20.792-5.964 28.977-12.85 6.236-5.246 11.213-11.904 17.719-16.811 9.708-7.321 22.629-10.212 34.531-7.725l1.363-15.447c-6.268 5.769-15.2 8.517-23.627 7.27-4.955-.734-9.707-2.793-13.631-5.906-3.284 7.04-7.759 13.517-13.176 19.08-10.02 10.293-23.446 17.397-37.711 19.08-12.427 1.468-25.597-1.359-35.439-9.09-6.338-4.976-11.147-11.871-13.629-19.537-2.711 4.719-6.894 8.579-11.814 10.904-4.629 2.187-9.829 3.01-14.945 2.848-5.117-.164-10.164-1.29-15.04-2.848-16.97-5.42-32.555-16.738-40.44-32.713-5.837-11.831-7.175-25.488-5.906-38.619 2.734-28.29 16.905-54.52 19.686-82.81 1.064-10.825.296-22.267-5.146-31.686-1.839-3.182-4.203-6.092-7.139-8.303-2.935-2.211-6.459-3.702-10.125-3.965-.389-.028-.78-.041-1.17-.041m-150.68 34.645c-2.03 4.799-2.961 10.06-2.711 15.264-7.08 2.581-13.954 5.71-20.549 9.352-21.257 11.739-39.39 28.743-53.746 48.33-21.419 29.22-34.465 63.926-42 99.36-3.32 15.605-5.625 31.472-5.873 47.42-.45 28.89 5.999 57.971 19.422 83.56 10.959 20.891 26.27 39.11 40.648 57.813 6.119 7.961 12.184 16.218 15.357 25.744 2.074 6.227 2.848 12.885 2.258 19.422 2.895-2.27 5.239-5.239 6.775-8.582 2.79-6.068 2.79-13.354 0-19.422-.495 2.744-1.581 5.382-3.162 7.68-.788 1.146-1.698 2.206-2.709 3.16-4.826-12.221-10.71-24.02-17.563-35.23-12.502-20.453-28.25-38.988-38.529-60.64-13.922-29.32-16.994-62.821-14.367-95.17 3.294-40.572 15.607-81.04 39.746-113.82 11.785-16 26.25-29.995 42.44-41.512 10.456-7.436 21.645-13.836 33.34-19.11.403 1.267.88 2.51 1.449 3.713 2.243 4.736 5.797 8.842 10.162 11.742-1.902-4.729-3.561-9.555-4.969-14.453-1.115-3.879-2.071-7.8-2.936-11.742-.936-4.269-1.765-8.562-2.484-12.873m185.63 23.525c-5.288 20.11-9.558 40.494-12.789 61.04-1.178 7.493-2.221 15.04-2.148 22.627.072 7.584 1.295 15.25 4.473 22.14 2.2 4.768 5.345 9.134 9.375 12.5 4.03 3.366 8.964 5.704 14.17 6.393 8.311 1.099 17.02-2.234 22.672-8.43 3.988-4.375 6.48-10.09 6.975-15.986-3.957 4.918-9.226 8.768-15.11 11.04-5.168 1.999-10.975 2.772-16.277 1.162-4.265-1.294-8-4.082-10.76-7.584-2.757-3.502-4.566-7.691-5.602-12.03-2.07-8.67-1.105-17.737-.207-26.605 2.233-22.05 3.978-44.15 5.232-66.27m188.35 33.14c-2.651 2.088-4.535 5.125-5.23 8.428-.872 4.14.095 8.44 1.367 12.475 1.272 4.03 2.865 8.02 3.283 12.232.611 6.147-1.423 12.453-5.258 17.295-3.835 4.842-9.39 8.225-15.379 9.736-5.324 1.343-11 1.243-16.277-.289 4.902 3.138 10.747 4.779 16.566 4.65 7.342-.162 14.636-3.221 19.68-8.559 5.04-5.338 7.695-12.934 6.771-20.22-.896-7.07-4.904-13.379-6.395-20.346-1.089-5.09-.785-10.47.871-15.404m-299.3 19.629c-10.633 2.963-20.778 7.667-29.91 13.867-7.884 5.353-15.02 11.833-20.938 19.307-3.547 4.483-6.648 9.317-9.244 14.41 4.333-3.843 8.777-7.562 13.324-11.148 10.91-8.606 22.72-16.599 36.16-20.12 5.664-1.484 11.57-2.145 17.402-1.631 2.755.243 5.486.751 8.146 1.506-3.863-1.685-7.343-4.255-10.05-7.488-2.148-2.567-3.816-5.533-4.895-8.701m14.943 16.189c1.41.615 2.867 1.119 4.361 1.484-1.426-.572-2.883-1.065-4.361-1.484m231.46 33.07c-1.138 7.455-4.769 14.507-10.174 19.766-4.924 4.79-11.448 8.118-18.311 8.43-6.73.306-13.352-2.275-18.895-6.105-5.637-3.896-10.352-9.113-13.66-15.11.56 6.551 2.894 12.94 6.686 18.311 3.047 4.316 7.05 7.989 11.727 10.443 4.679 2.455 10.04 3.665 15.305 3.219 5.203-.441 10.228-2.492 14.391-5.645 4.163-3.152 7.471-7.38 9.734-12.09 3.147-6.543 4.277-14.04 3.197-21.22m-331.78 236.49c-2.084 1.616-4.246 3.133-6.475 4.543-2.159 1.366-4.43 2.65-6.93 3.18-2.336.495-4.814.294-7.04-.568.432 1.552 1.358 2.964 2.611 3.977 1.584 1.28 3.643 1.898 5.68 1.932 2.317.038 4.636-.658 6.572-1.932 1.936-1.274 3.485-3.115 4.445-5.225.839-1.842 1.232-3.885 1.137-5.906"/><path d="m112.81 105.91c-4.572 16.178-5.321 33.422-2.171 49.936 5.314 27.855 21.338 52.613 40.17 73.818 18.595 20.943 40.15 39.12 62.963 55.36 10.808 7.698 21.914 14.979 33.28 21.822 2.518-3.719 5.357-7.222 8.473-10.457 4.56-4.734 9.712-8.889 15.254-12.424 4.662-2.973 9.601-5.51 14.733-7.568-17.702-1.999-35.06-6.995-51.12-14.713-24.902-11.971-46.31-30.25-65.13-50.48-16.515-17.744-31.362-37.28-41.794-59.16-6.966-14.611-11.913-30.18-14.655-46.14z" fill="#fff" stroke="#000" stroke-linejoin="round" stroke-width="11"/></g></g></svg>