<?xml version="1.0" encoding="UTF-8" standalone="no"?>
<!-- Created with Inkscape (http://www.inkscape.org/) -->
<svg
   xmlns:svg="http://www.w3.org/2000/svg"
   xmlns="http://www.w3.org/2000/svg"
   xmlns:xlink="http://www.w3.org/1999/xlink"
   version="1.0"
   width="648.92493"
   height="696.29706"
   id="svg2784">
  <defs
     id="defs2786">
    <clipPath
       id="clipPath223">
      <path
         d="M 404.161,505.122 L 404.161,338.712 L 559.342,338.712 L 559.342,505.122"
         id="path225" />
    </clipPath>
    <radialGradient
       cx="-483.50824"
       cy="153.9283"
       r="300.00003"
       fx="-483.50824"
       fy="153.9283"
       id="radialGradient14758"
       xlink:href="#linearGradient2955"
       gradientUnits="userSpaceOnUse"
       gradientTransform="matrix(0,2.34248,-2.29135,0,562.913,1323.77)" />
    <radialGradient
       cx="-483.50824"
       cy="153.9283"
       r="300.00003"
       fx="-483.50824"
       fy="153.9283"
       id="radialGradient13767"
       xlink:href="#linearGradient2955"
       gradientUnits="userSpaceOnUse"
       gradientTransform="matrix(0,2.34248,-2.29135,0,562.913,1323.77)" />
    <radialGradient
       cx="-483.50824"
       cy="153.9283"
       r="300.00003"
       fx="-483.50824"
       fy="153.9283"
       id="radialGradient1357"
       xlink:href="#linearGradient2955"
       gradientUnits="userSpaceOnUse"
       gradientTransform="matrix(0,2.34248,-2.29135,0,562.913,1323.77)" />
    <radialGradient
       cx="225.52438"
       cy="218.90099"
       r="300"
       fx="225.52438"
       fy="218.90099"
       id="radialGradient1911"
       xlink:href="#linearGradient2955"
       gradientUnits="userSpaceOnUse"
       gradientTransform="matrix(-4.16794e-4,2.18287,-1.88423,-3.59956e-4,1395.6,-309.121)" />
    <clipPath
       id="clip">
      <path
         d="M 0,-200 L 0,600 L 300,600 L 300,-200 L 0,-200 z"
         id="path10" />
    </clipPath>
    <polygon
       points="0,-1 0.587785,0.809017 -0.951057,-0.309017 0.951057,-0.309017 -0.587785,0.809017 0,-1 "
       transform="scale(53,53)"
       id="star" />
    <radialGradient
       cx="225.52438"
       cy="218.90099"
       r="300"
       fx="225.52438"
       fy="218.90099"
       id="radialGradient2961"
       xlink:href="#linearGradient2955"
       gradientUnits="userSpaceOnUse"
       gradientTransform="matrix(-4.16794e-4,2.18287,-1.88423,-3.59956e-4,615.597,-289.121)" />
    <linearGradient
       id="linearGradient2955">
      <stop
         id="stop2965"
         style="stop-color:#ffffff;stop-opacity:0"
         offset="0" />
      <stop
         id="stop2959"
         style="stop-color:#000000;stop-opacity:0.64583302"
         offset="1" />
    </linearGradient>
  </defs>
  <path
     d="M 4.5,4.5 C 4.5,4.5 10.38045,121.89988 16.53849,233.13113 C 20.71395,308.55147 25.01702,381.13578 27.7011,412.36344 C 34.0093,485.78354 67.1305,555.11939 120.9613,607.59577 C 176.6607,661.89902 248.92701,691.79708 324.45821,691.79708 C 399.98521,691.79708 472.26411,661.89902 527.95521,607.59577 C 581.78601,555.11939 614.90301,485.78354 621.20701,412.36344 C 623.72987,383.02995 627.68249,317.20482 631.61605,246.81556 C 638.04594,131.75544 644.42491,4.5 644.42491,4.5 L 4.5,4.5 z"
     id="path3498"
     style="fill:#d8201f;fill-opacity:1;stroke:none;stroke-width:9;stroke-linecap:butt;stroke-linejoin:miter;stroke-miterlimit:4;stroke-dasharray:none;stroke-opacity:1" />
  <path
     d="M 56.106581,502.08197 C 97.636963,502.83074 81.649811,485.41977 100.9685,486.98575 C 90.859521,494.83005 96.331521,498.1486 102.3029,498.14127 C 114.27073,498.12691 109.45326,485.57419 125.99709,486.58065 C 123.20721,490.97598 119.1625,494.575 128.22781,496.49903 C 131.79251,497.26635 135.9034,484.09595 148.04434,485.42078 C 147.48294,486.18069 138.01093,496.88747 152.38089,497.48981 C 163.70288,494.42836 161.52507,485.11472 171.197,484.86327 C 171.02804,485.29911 162.97684,494.63479 173.95065,495.86093 C 182.34586,494.96585 182.63822,485.38199 197.65158,484.72524 C 193.78971,492.3952 195.96899,501.64288 205.20856,491.8116 L 282.23419,492.53686 L 296.77435,492.05642 C 305.90606,492.49757 309.15723,480.82512 318.80212,481.08486 C 316.39141,485.09593 312.12033,491.80303 323.89914,492.12221 C 333.7863,492.18888 333.9185,480.054 343.72851,481.15561 C 339.14773,485.25627 340.96189,491.97703 350.36619,491.91187 C 360.33166,491.64924 356.11607,481.88402 371.83386,479.39044 C 369.10692,482.50343 363.95087,490.57673 375.72571,491.6436 C 384.97838,491.04374 385.48913,479.53418 400.14748,480.2801 C 397.78183,484.88385 391.73124,491.9577 406.95698,491.13729 C 416.62519,488.18076 414.49135,482.25066 425.95285,480.26594 L 422.9573,494.88882 L 458.33507,489.78498 C 473.63852,491.19682 472.33115,478.25906 486.25704,477.62525 C 482.39405,480.96929 479.55353,488.48029 488.48362,487.91929 L 544.84578,487.64007 C 556.86015,488.01819 552.99763,477.27546 567.69584,474.76215 C 560.60145,479.92747 565.18953,482.77232 570.9138,487.35496 L 601.40083,486.36117 C 585.63751,533.99892 551.42495,577.75261 507.47762,619.45688 C 491.18743,637.65707 365.04552,722.71308 250.41139,678.02739 C 157.94981,657.18856 117.05446,594.40698 86.353079,562.18083 C 70.896279,541.47605 59.692155,521.30285 56.106581,502.08197 z"
     id="path3303"
     style="fill:#00a43f;fill-opacity:1;fill-rule:evenodd;stroke:#1b1a1c;stroke-width:4;stroke-linecap:butt;stroke-linejoin:miter;stroke-miterlimit:4;stroke-dasharray:none;stroke-opacity:1" />
  <path
     d="M 201.4296,494.69498 C 203.58209,477.1021 214.96725,477.52458 222.24776,469.2967 C 232.8703,443.91516 232.12306,444.92955 236.06478,390.44449 C 212.53193,380.21619 205.74574,357.76018 205.72227,330.3663 C 194.25664,323.44766 182.63903,316.90896 172.62018,306.37336 C 157.35077,305.50629 144.531,315.66259 131.96638,326.96705 C 128.91971,331.02568 125.09533,333.52892 118.83257,331.15537 L 100.13031,328.54575 L 120.76322,309.73339 L 117.72897,307.30599 C 104.1918,310.62026 101.14172,319.4317 91.234701,323.08775 C 71.140185,329.15779 63.669475,319.31543 56.437082,306.09229 C 73.443623,309.59218 89.099788,312.05115 107.41251,293.34843 L 103.77141,289.70733 C 95.352985,291.7689 83.79469,292.26054 72.215191,292.74158 C 60.156887,284.72673 58.651961,276.71188 55.084754,268.69702 C 53.735399,266.16424 52.652208,264.61981 53.442669,261.88633 C 57.710155,248.04236 64.611035,253.94884 71.60834,260.57851 C 77.902703,259.47774 88.738673,260.64777 86.172749,255.11686 C 82.127084,235.29308 83.138493,212.63734 95.275503,201.10718 C 96.136702,210.6145 93.969245,220.12182 100.73716,229.62914 C 104.96386,221.74009 108.14707,216.88529 120.15637,208.99623 C 115.68921,219.27562 111.8175,229.43591 115.30157,238.12505 C 132.04135,236.15983 134.68463,221.86017 138.96873,208.99623 C 147.82982,181.49739 120.84749,171.57769 108.62621,165.90986 C 124.81061,162.49781 155.66508,145.2487 169.31125,187.14962 C 174.8033,180.89403 180.43933,174.71044 179.6277,165.30301 C 175.82654,147.96112 167.57256,146.2041 160.81534,139.20844 C 182.03467,145.40164 205.57708,114.42553 223.92778,166.51671 C 231.61455,164.0957 239.30132,150.34357 246.98809,162.26876 C 259.78473,153.2892 289.47242,132.67872 295.61658,146.78234 C 307.33645,146.37781 326.08253,136.93958 327.69918,149.5249 C 339.78623,149.55987 360.55631,143.51672 358.0417,153.77285 C 369.74874,157.25853 395.23411,150.41046 389.72876,166.80543 C 401.34106,169.7693 416.76441,171.03937 414.62684,180.11428 C 461.5201,190.5854 495.06127,220.72343 523.71185,252.08261 C 545.15389,269.88355 541.42075,292.5393 566.19137,312.76764 C 572.46216,318.47148 578.73294,317.60067 585.00373,317.01559 C 571.27468,324.55749 559.51643,346.55197 541.31051,321.26355 C 539.10151,313.98134 542.27946,305.48544 540.70366,297.59638 C 534.19473,282.42242 528.44371,280.13282 522.49815,274.53607 C 522.52882,275.98766 522.5752,277.44318 522.63339,278.90166 C 522.66807,279.77078 522.70695,280.64095 522.74921,281.51197 C 523.61958,299.45124 525.92346,317.7489 522.49815,334.61425 C 519.28907,347.14334 522.92247,356.56222 526.13925,366.17047 C 529.92588,370.07013 545.9986,385.29128 556.52942,389.34942 C 560.90852,392.82081 558.9162,394.01765 555.95292,401.21763 C 552.36412,410.5362 553.81277,421.79269 552.23381,432.31716 L 552.84066,467.51448 C 549.33393,469.17036 544.73352,468.48262 545.21004,478.67404 L 545.1646,488.78017 C 533.80009,492.55094 517.91662,498.83884 504.29263,492.39534 C 506.26297,483.50783 508.90142,474.16843 522.49815,465.05497 C 521.68901,444.62435 525.51468,430.29433 520.07074,409.8637 C 518.91713,404.56835 505.11041,388.71618 497.63024,387.01637 C 495.98544,393.41638 497.11016,408.86338 503.3965,415.23986 C 505.23441,417.10413 508.60248,419.0894 506.57805,421.02591 C 499.26626,425.75738 494.63041,433.06068 489.72823,439.59936 C 482.97679,449.7324 476.71576,462.80783 470.56089,476.52031 C 468.49901,477.94158 467.31317,480.4141 462.41996,478.43779 C 462.18402,495.76546 447.66659,497.6691 432.68429,499.0707 L 432.07744,491.78849 L 416.90619,491.78849 C 421.57303,483.15808 424.41135,472.79503 445.42815,466.30078 C 452.15264,452.49039 458.92615,438.8516 464.47942,420.94195 C 465.76991,416.2773 465.43094,406.61821 461.20626,402.58149 L 416.17031,354.18842 C 393.77519,356.48117 375.61325,357.05548 345.99483,358.74628 C 344.79412,358.98464 302.75681,366.22284 300.39092,403.18834 C 298.48223,417.37925 299.58179,427.05779 299.17722,438.99251 L 299.17722,459.01857 C 297.61248,465.28102 300.27407,472.61771 292.50187,476.61723 C 288.01163,477.3348 287.31289,487.04654 289.55066,491.69906 C 286.30472,493.36438 276.43454,498.68476 255.92476,496.73273 C 256.48398,484.7019 264.13593,475.61702 268.22785,465.69393 C 267.13721,454.11103 268.00445,441.68905 264.58675,431.10346 C 250.63656,441.68286 252.24001,458.74294 250.47455,474.39931 C 250.43859,477.82202 249.62627,477.71004 246.62661,478.28207 C 237.39979,480.43153 240.66869,489.16451 237.27848,494.91217 C 225.37647,495.60166 213.67047,499.42738 201.4296,494.69498 z"
     id="path3305"
     style="fill:#1b1a1c;fill-opacity:1;fill-rule:evenodd;stroke:#1b1a1c;stroke-width:3;stroke-linecap:butt;stroke-linejoin:miter;stroke-miterlimit:4;stroke-dasharray:none;stroke-opacity:1" />
  <path
     d="M 56.233582,263.00044 C 57.657376,259.17425 61.793805,255.65609 66.753538,261.79221 L 83.343823,285.05421 C 84.413124,286.6539 81.889742,290.95361 73.428891,287.88678 C 66.831909,279.96214 59.273152,272.44968 56.233582,263.00044 z"
     id="path3311"
     style="fill:#f9d100;fill-opacity:1;fill-rule:evenodd;stroke:#1b1a1c;stroke-width:3;stroke-linecap:butt;stroke-linejoin:miter;stroke-miterlimit:4;stroke-dasharray:none;stroke-opacity:1" />
  <path
     d="M 61.106636,309.73886 C 77.798717,314.99877 97.609256,309.48735 108.22468,298.20688 L 113.48101,304.27174 C 105.24444,308.31587 99.019782,313.23328 92.069218,317.51279 C 73.823126,328.74705 72.412758,319.31539 61.106636,309.73886 z"
     id="path3313"
     style="fill:#f9d100;fill-opacity:1;fill-rule:evenodd;stroke:#1b1a1c;stroke-width:3;stroke-linecap:butt;stroke-linejoin:miter;stroke-miterlimit:4;stroke-dasharray:none;stroke-opacity:1" />
  <path
     d="M 113.74474,321.18142 C 127.45981,309.13653 138.44097,296.31052 157.73235,285.85886 C 148.65081,279.8892 112.81107,284.48146 87.739879,287.62632 C 82.656421,279.60461 79.843864,272.73894 72.394377,263.56118 C 95.706929,261.66067 119.42998,241.45825 125.03855,238.89799 C 136.38109,229.49918 138.95495,218.96402 140.5342,214.40797 C 142.39871,209.61231 146.89538,195.20319 141.15375,186.48126 C 134.70702,172.21903 126.10923,173.01423 118.58494,166.29496 C 129.47416,164.7432 139.5581,159.56772 152.46636,167.10166 C 156.81088,171.09436 164.35827,178.41299 165.07076,189.30211 C 158.0942,191.45686 152.08927,196.981 152.97026,197.67191 C 154.44302,205.73891 147.9455,212.27688 145.20605,220.34388 C 149.32793,214.21069 154.30693,209.62032 155.69316,198.56297 C 162.84007,194.37762 171.48704,190.9423 175.4238,185.15187 C 178.58145,180.79794 182.37868,176.21772 183.37405,170.78265 C 185.22339,160.36162 181.89555,154.883 179.17183,150.17828 C 182.04035,150.60564 187.09321,153.91379 189.30643,155.65645 C 191.77558,157.66016 194.64201,164.31612 192.38183,169.21896 C 192.40902,169.90298 190.78749,171.97215 186.34777,184.04236 C 181.29527,198.18173 195.71388,194.88893 201.75944,195.40321 C 196.56229,192.97832 187.89352,193.71531 191.99467,180.81556 L 199.70917,168.19383 C 205.0262,151.03859 183.52812,146.24551 171.62606,143.03472 C 178.34914,142.49576 187.46682,140.66255 193.60807,141.28725 C 203.52799,141.78213 210.74617,148.22084 217.80908,155.00115 L 221.03588,167.10166 C 222.96249,175.6941 216.09083,181.88702 212.16218,188.88257 C 221.35623,186.10421 217.54102,176.06226 226.68279,168.71506 C 237.82573,159.04329 244.22043,159.16479 246.04359,168.71506 C 254.72194,159.12291 267.94614,151.905 279.92501,149.35425 C 292.90542,144.84658 281.52372,154.95619 281.53841,158.22795 C 294.12125,154.63051 306.70409,145.17526 319.28693,147.71775 C 325.05655,148.33442 313.26719,155.14838 309.77292,159.03466 C 324.66588,153.91122 337.988,152.4531 351.07416,151.54551 C 355.88764,151.33636 351.42828,160.78433 346.07443,163.06816 C 360.03722,161.17667 377.35288,155.51078 386.30045,162.33215 C 388.45628,163.9757 383.93081,164.87554 364.62854,168.71506 C 400.3861,170.79721 419.33261,175.06262 408.19035,183.23566 C 451.5268,191.71384 487.1179,217.40393 519.515,250.19179 L 549.36291,296.17371 C 558.23661,304.77851 557.06253,312.89438 577.051,319.85416 C 568.89209,325.61045 562.86596,318.83238 557.42991,314.72781 L 572.20434,325.47519 C 564.94399,332.08545 560.43487,324.35988 555.26362,323.85533 L 563.88351,330.86182 C 562.10454,330.63743 554.09879,331.29263 547.74951,325.74194 C 541.59133,316.69472 544.01538,306.31377 542.93517,297.26655 C 537.26564,284.97124 528.94402,279.30614 521.9351,270.3593 C 517.51788,263.90908 513.10066,261.05665 508.68344,258.06357 C 513.28444,264.71449 519.44131,269.80953 521.47908,279.02367 L 520.3217,301.01391 L 517.0949,342.96232 C 517.79084,348.60922 517.24691,354.25613 520.75627,359.90303 C 527.43772,376.39041 540.74939,382.60623 553.30258,390.81208 C 553.88158,392.42546 557.08656,392.98846 554.88962,395.71222 C 547.93564,427.6169 550.43804,438.69153 548.55621,462.35397 C 547.3448,467.64383 544.16696,466.05116 541.87376,467.55475 L 525.87151,465.9298 C 525.09333,443.07329 528.39,419.81372 521.9351,397.81795 C 501.70443,379.3039 493.14245,383.30575 448.65711,343.87766 C 421.13188,323.40809 420.25765,284.68065 416.26891,245.67752 C 415.586,237.437 396.72108,224.24009 383.18264,217.11708 C 393.37838,230.65074 414.40781,238.65968 412.66998,260.32986 C 413.38934,287.78721 412.09389,315.44603 436.42486,340.54222 C 400.20199,349.53388 357.41722,348.68271 317.83992,352.64273 C 315.51463,352.05075 318.1691,348.6132 321.87342,344.57573 C 367.82523,343.71746 386.9547,330.19309 412.22386,319.56802 C 383.38129,326.38439 351.95319,341.60376 327.52032,334.08862 C 325.84932,322.96768 330.97677,310.48704 333.16723,298.59381 C 324.92195,319.6647 320.34077,344.39971 302.37675,355.75186 C 304.68293,360.41191 308.27607,362.49803 307.35282,373.61694 C 301.26182,382.97709 297.99633,392.33724 293.44846,401.69739 L 291.68099,359.26859 L 288.64465,360.40161 C 290.94708,400.29951 283.1312,396.47061 283.80445,409.61033 C 287.37725,413.29903 290.24906,415.87586 292.96807,422.97972 C 292.83771,427.73574 294.72702,432.79164 292.02551,434.11946 C 286.70291,440.27128 283.26268,449.87411 283.15181,465.58077 L 288.79871,464.77407 C 290.41782,451.32207 290.2284,440.49769 295.25231,439.76636 L 296.86571,464.77407 C 295.51501,471.56968 292.75962,474.61942 288.79871,474.45447 C 283.68961,469.62835 278.5805,470.64962 273.4714,469.82292 C 273.10387,457.59343 277.30404,446.50587 274.2781,435.73286 C 264.92071,425.35782 268.4793,419.80468 269.91828,410.17198 L 264.90582,377.20645 C 250.45762,379.31467 240.41568,364.86056 233.1,353.92981 L 234.61393,359.74897 C 243.60951,369.75231 252.89745,382.87581 259.7575,382.49064 L 261.3709,394.59114 C 225.50702,377.53265 217.07678,370.1002 210.0684,325.00627 C 199.62231,320.80837 194.10128,312.91666 186.80995,306.35269 C 198.10697,301.05788 213.63941,296.1659 221.84258,288.5507 C 247.14915,271.39569 247.66166,229.40932 223.59185,199.59652 C 235.35342,220.17867 240.45078,252.72654 229.90959,270.3593 C 225.73332,278.27747 217.4855,284.73464 208.12868,288.77754 C 197.8981,293.88045 186.52498,296.12786 169.40706,297.78711 C 154.14717,304.77701 138.73957,312.94858 122.61845,326.82832 C 116.15051,329.80675 111.32729,325.36744 113.74474,321.18142 z"
     id="path3322"
     style="fill:#f9d100;fill-opacity:1;fill-rule:evenodd;stroke:#1b1a1c;stroke-width:3;stroke-linecap:butt;stroke-linejoin:miter;stroke-miterlimit:4;stroke-dasharray:none;stroke-opacity:1" />
  <path
     d="M 151.1522,220.87569 C 154.14599,217.09258 162.55155,217.81927 169.93785,217.69658 C 178.80082,215.86618 175.45824,211.81246 195.65974,214.51747 C 197.71215,216.73321 198.0432,218.08193 197.10479,220.29767 C 198.25325,217.22058 195.33635,217.19252 193.63667,216.25153 L 186.12241,217.98559 C 185.42648,222.1851 186.03386,228.55311 177.45211,230.99104 C 168.77973,234.14081 167.92953,228.01705 165.89171,222.32074 C 164.55067,220.30814 157.73523,220.64172 151.1522,220.87569 z"
     id="path3324"
     style="fill:#1b1a1c;fill-opacity:1;fill-rule:evenodd;stroke:#1b1a1c;stroke-width:1px;stroke-linecap:butt;stroke-linejoin:miter;stroke-opacity:1" />
  <path
     d="M 178.89716,218.56361 A 5.491189,3.7571294 0 1 1 167.91479,218.56361 A 5.491189,3.7571294 0 1 1 178.89716,218.56361 z"
     transform="matrix(0.9257561,-0.1779834,0.1982699,0.8310353,-26.41409,70.683034)"
     id="path3326"
     style="opacity:1;fill:#ffffff;fill-opacity:1;fill-rule:nonzero;stroke:#1b1a1c;stroke-width:3;stroke-linecap:square;stroke-linejoin:miter;stroke-miterlimit:4;stroke-dasharray:none;stroke-opacity:1" />
  <path
     d="M 427.32509,208.15417 C 475.28362,209.78337 499.30453,237.64578 499.61292,262.03661 C 493.06474,248.47053 495.56765,239.49179 471.60472,224.15885 C 463.87689,218.04752 439.50575,209.84258 427.32509,208.15417 z"
     id="path3328"
     style="fill:#1b1a1c;fill-opacity:1;fill-rule:evenodd;stroke:#1b1a1c;stroke-width:1px;stroke-linecap:butt;stroke-linejoin:miter;stroke-opacity:1" />
  <path
     d="M 244.81717,178.10071 C 247.87834,177.63841 309.25693,155.84124 402.25064,192.26756 L 404.55229,197.29424 C 364.55488,180.81736 318.39536,163.86293 246.44119,180.97309 L 244.81717,178.10071 z"
     id="path3348"
     style="fill:#1b1a1c;fill-opacity:1;fill-rule:evenodd;stroke:#1b1a1c;stroke-width:1px;stroke-linecap:butt;stroke-linejoin:miter;stroke-opacity:1" />
  <g
     transform="translate(1.520415,-0.4619506)"
     id="g3317"
     style="stroke:#1b1a1c;stroke-width:4;stroke-miterlimit:4;stroke-dasharray:none;stroke-opacity:1">
    <path
       d="M 121.97692,307.30599 L 136.54133,295.77583 C 104.78318,278.24446 108.13413,241.84765 113.48101,215.67159 C 101.58187,229.8661 82.772784,273.16738 121.97692,307.30599 z"
       id="path3307"
       style="fill:#ffffff;fill-rule:evenodd;stroke:#1b1a1c;stroke-width:4;stroke-linecap:butt;stroke-linejoin:miter;stroke-miterlimit:4;stroke-dasharray:none;stroke-opacity:1" />
    <path
       d="M 138.36188,293.34843 L 159.60164,286.06623 C 139.65258,266.85233 155.82823,256.61882 165.06329,249.04836 C 123.96699,256.27096 130.79251,275.13681 138.36188,293.34843 z"
       id="path3309"
       style="fill:#ffffff;fill-rule:evenodd;stroke:#1b1a1c;stroke-width:4;stroke-linecap:butt;stroke-linejoin:miter;stroke-miterlimit:4;stroke-dasharray:none;stroke-opacity:1" />
    <path
       d="M 89.745409,254.62864 L 96.400686,253.41859 C 97.640257,246.84071 97.20079,238.9196 100.83753,234.25945 C 91.825025,224.72723 94.606679,215.64568 92.56886,206.22662 C 83.978567,219.03634 84.156503,238.39113 89.745409,254.62864 z"
       id="path3315"
       style="fill:#ffffff;fill-rule:evenodd;stroke:#1b1a1c;stroke-width:4;stroke-linecap:butt;stroke-linejoin:miter;stroke-miterlimit:4;stroke-dasharray:none;stroke-opacity:1" />
  </g>
  <path
     d="M 515.18412,365.16299 C 519.8187,377.20002 527.75771,384.08247 539.45789,387.03606 C 544.80068,389.16475 544.35796,398.61814 542.92558,400.10656 C 541.52907,406.3306 539.00815,423.49118 540.79161,445.98665 C 536.61029,418.27259 537.7357,420.72483 540.52487,395.03841 C 539.44432,383.88014 516.95049,389.80774 515.18412,365.16299 z"
     id="path3330"
     style="fill:#1b1a1c;fill-opacity:1;fill-rule:evenodd;stroke:#1b1a1c;stroke-width:1px;stroke-linecap:butt;stroke-linejoin:miter;stroke-opacity:1" />
  <path
     d="M 507.71527,488.13232 C 509.63262,480.69689 515.40121,473.25043 521.586,468.65996 C 523.82532,469.79391 527.99008,468.62737 529.85508,469.99368 C 524.34473,475.98141 520.30545,480.50337 518.91854,487.86558 C 514.06454,489.68739 509.75917,489.82313 507.71527,488.13232 z"
     id="path3334"
     style="fill:#f9d100;fill-opacity:1;fill-rule:evenodd;stroke:#1b1a1c;stroke-width:2;stroke-linecap:butt;stroke-linejoin:miter;stroke-miterlimit:4;stroke-dasharray:none;stroke-opacity:1" />
  <path
     d="M 522.91972,490.26628 C 531.78522,490.93063 536.35284,487.39601 541.32511,485.46488 C 539.27965,478.81379 541.31265,474.60978 542.65883,469.99368 C 539.63572,469.54134 536.61262,468.06809 533.58951,470.26042 C 526.37091,474.41388 524.51818,481.1952 522.91972,490.26628 z"
     id="path3336"
     style="fill:#f9d100;fill-opacity:1;fill-rule:evenodd;stroke:#1b1a1c;stroke-width:2;stroke-linecap:butt;stroke-linejoin:miter;stroke-miterlimit:4;stroke-dasharray:none;stroke-opacity:1" />
  <path
     d="M 421.82345,351.02552 C 431.95976,349.84817 442.09606,350.01699 452.23236,354.4932 C 464.94719,362.18358 463.52455,366.66053 489.57662,380.90093 C 495.07697,383.38484 488.27901,399.54185 502.11363,417.17822 C 491.02401,435.62945 483.88906,432.98913 468.77053,472.92787 C 465.61935,472.89607 462.9501,469.97267 459.16772,473.7281 C 460.04218,479.90035 456.86678,484.04766 455.16655,488.93256 L 436.22767,494.00071 C 438.71995,482.94917 443.65297,473.7293 454.63306,473.99485 C 453.31963,471.12929 451.67679,471.79405 448.23119,471.06066 C 448.30163,459.33189 450.72048,460.07013 452.36991,456.34395 C 458.92595,441.5334 464.27823,430.53549 469.03728,415.8445 C 471.01559,406.65296 466.59823,399.19008 463.70238,397.4391 C 451.06326,388.88142 434.95477,368.90293 421.82345,351.02552 z"
     id="path3338"
     style="fill:#f9d100;fill-opacity:1;fill-rule:evenodd;stroke:#1b1a1c;stroke-width:2;stroke-linecap:butt;stroke-linejoin:miter;stroke-miterlimit:4;stroke-dasharray:none;stroke-opacity:1" />
  <path
     d="M 423.56516,486.54758 C 426.82243,487.54328 430.02267,488.88125 433.96821,485.74734 C 436.41141,480.42307 439.61678,477.02319 444.90474,472.41011 L 441.17031,472.41011 C 432.90722,471.73452 429.30363,481.54279 423.56516,486.54758 z"
     id="path3340"
     style="fill:#f9d100;fill-opacity:1;fill-rule:evenodd;stroke:#1b1a1c;stroke-width:2;stroke-linecap:butt;stroke-linejoin:miter;stroke-miterlimit:4;stroke-dasharray:none;stroke-opacity:1" />
  <path
     d="M 268.88886,470.68705 C 270.17099,471.02327 270.85966,470.17254 273.21841,472.662 C 269.71277,478.72973 265.43295,484.85521 264.29854,492.10855 L 267.58118,492.77582 C 268.3955,484.40949 272.59075,478.97926 275.51933,472.72719 C 279.25959,470.41176 282.99986,473.41458 286.74012,476.29745 C 285.00547,479.8843 284.69473,483.03775 285.30205,488.38108 C 282.33131,489.93034 269.93073,496.00106 258.97577,491.06164 C 261.54372,483.08886 264.03776,476.37669 268.88886,470.68705 z"
     id="path3342"
     style="fill:#f9d100;fill-opacity:1;fill-rule:evenodd;stroke:#1b1a1c;stroke-width:1px;stroke-linecap:butt;stroke-linejoin:miter;stroke-opacity:1" />
  <path
     d="M 240.54928,389.51083 C 249.03629,396.99258 256.22727,396.99753 264.14132,399.89562 L 263.5276,425.12451 C 259.2665,426.91981 255.66981,431.04057 252.59456,436.98634 C 250.70284,445.5909 246.39789,457.63202 245.5576,473.39445 C 241.42325,474.93713 239.25894,471.78773 236.86016,470.43779 C 235.69628,459.1366 239.78672,452.10011 242.56258,443.56312 C 239.01406,451.1616 235.46554,460.64811 231.24976,474.11541 C 236.25709,473.90883 237.94881,475.36004 240.79854,476.23225 C 239.32304,480.4843 234.27279,483.03315 235.47577,489.42799 C 233.31301,491.70026 225.66409,492.02377 219.41539,493.12863 C 222.17552,486.15814 223.56302,479.18765 229.61611,472.21716 L 224.51575,469.15694 C 235.03127,445.82354 237.28091,420.57012 240.54928,389.51083 z"
     id="path3344"
     style="fill:#f9d100;fill-opacity:1;fill-rule:evenodd;stroke:#1b1a1c;stroke-width:2;stroke-linecap:butt;stroke-linejoin:miter;stroke-miterlimit:4;stroke-dasharray:none;stroke-opacity:1" />
  <path
     d="M 206.28485,490.03006 C 209.2041,483.48007 214.28673,475.72434 221.92722,472.12512 C 223.63201,472.40031 224.73208,473.15928 223.49568,475.78741 C 220.03286,478.04241 217.75126,483.99439 216.06756,489.80764 C 212.98867,490.33681 210.44869,492.21327 206.28485,490.03006 z"
     id="path3346"
     style="fill:#f9d100;fill-opacity:1;fill-rule:evenodd;stroke:#1b1a1c;stroke-width:1px;stroke-linecap:butt;stroke-linejoin:miter;stroke-opacity:1" />
  <path
     d="M 475.76112,384.97201 L 481.09602,385.77224 C 479.13469,398.11348 483.63587,406.7454 491.49906,416.98138 C 492.71223,419.32808 492.67828,420.59336 489.63185,423.65 C 467.67292,432.7705 469.73422,450.61642 462.42389,464.1952 C 466.88429,427.83877 475.90884,432.58069 485.36394,418.58185 C 479.64145,406.0815 474.65888,397.11503 475.76112,384.97201 z"
     id="path3332"
     style="fill:#1b1a1c;fill-opacity:1;fill-rule:evenodd;stroke:#1b1a1c;stroke-width:1px;stroke-linecap:butt;stroke-linejoin:miter;stroke-opacity:1" />
  <path
     d="M 4.2618768,2.4862214 C 4.2618768,2.4862214 10.142327,119.8861 16.300367,231.11735 C 20.475827,306.53769 24.778897,379.122 27.462977,410.34966 C 33.771177,483.76976 66.892377,553.10561 120.72318,605.58199 C 176.42258,659.88524 248.68889,689.7833 324.22009,689.7833 C 399.74713,689.7833 472.02603,659.88524 527.71713,605.58199 C 581.54793,553.10561 614.66493,483.76976 620.96893,410.34966 C 623.49173,381.01617 627.44433,315.19104 631.37793,244.80178 C 637.80782,129.74166 644.18682,2.4862214 644.18682,2.4862214 L 4.2618768,2.4862214 z"
     id="path2531"
     style="fill:none;fill-opacity:1;stroke:#1b1a1c;stroke-width:9;stroke-linecap:butt;stroke-linejoin:miter;stroke-miterlimit:4;stroke-dasharray:none;stroke-opacity:1" />
</svg>
