<?xml version="1.0" encoding="utf-8"?>
<!-- Generator: Adobe Illustrator 13.0.0, SVG Export Plug-In . SVG Version: 6.00 Build 14948)  -->
<!DOCTYPE svg PUBLIC "-//W3C//DTD SVG 1.1//EN" "http://www.w3.org/Graphics/SVG/1.1/DTD/svg11.dtd">
<svg version="1.1" id="eck_wappen" xmlns="http://www.w3.org/2000/svg" xmlns:xlink="http://www.w3.org/1999/xlink" x="0px" y="0px"
	 width="181.368px" height="195.667px" viewBox="0 0 181.368 195.667" enable-background="new 0 0 181.368 195.667"
	 xml:space="preserve">
<path id="base" fill="#FFF200" d="M179.184,2l-10.667,120.667c0,0-1.578,16.407-11.18,33.451c-1.166,2.07-2.45,4.149-3.864,6.21
	c-10.88,15.85-29.446,30.582-60.955,31.339h-3.667c-69.333-1.666-76-71-76-71L2.185,2H179.184z"/>
<g id="wellen">
	<path fill="#0762BC" stroke="#000000" stroke-width="1.5" d="M92.006,176.125c-12.792,0-12.792,4-25.584,4
		c-12.4,0-12.779-3.76-24.446-3.989l12.464,9.657c2.95,0.91,6.125,1.749,11.982,1.749c12.792,0,12.792-4,25.584-4s12.792,4,25.584,4
		c2.648,0,4.748-0.172,6.526-0.443c0,0,10.895-7.516,15.378-10.845c-9.251,0.68-10.476,3.871-21.904,3.871
		C104.798,180.125,104.798,176.125,92.006,176.125z"/>
	<path fill="#0762BC" stroke="#000000" stroke-width="1.5" d="M117.59,165.292c-12.792,0-12.792-4-25.584-4s-12.792,4-25.584,4
		c-12.79,0-12.79-4-25.58-4c-5.62,0-8.77,0.772-11.621,1.639l3.87,6.433c2.03-0.392,4.47-0.655,7.751-0.655c12.79,0,12.79,4,25.58,4
		c12.792,0,12.792-4,25.584-4s12.792,4,25.584,4s12.792-4,25.583-4c2.199,0,4.02,0.118,5.593,0.313l3.968-6.669
		c-2.387-0.604-5.243-1.061-9.561-1.061C130.382,161.292,130.382,165.292,117.59,165.292z"/>
	<path fill="#0762BC" stroke="#000000" stroke-width="1.5" d="M117.59,150.458c-12.792,0-12.792-4-25.584-4s-12.792,4-25.584,4
		c-12.79,0-12.79-4-25.58-4c-10.161,0-12.264,2.521-19.106,3.558l2.342,6.98c5.148-1.178,7.85-3.121,16.764-3.121
		c12.79,0,12.79,4,25.58,4c12.792,0,12.792-4,25.584-4s12.792,4,25.584,4s12.792-4,25.583-4c7.333,0,10.463,1.314,14.208,2.437
		l2.662-6.713c-5.213-1.175-7.897-3.141-16.87-3.141C130.382,146.458,130.382,150.458,117.59,150.458z"/>
</g>
<g id="burg">
	<rect x="49.56" y="66.125" fill="#FFFFFF" width="81.875" height="66"/>
	<polyline fill="#0762BC" stroke="#000000" stroke-width="1.5" points="27.31,58 27.31,51.584 40.497,51.584 40.497,58 	"/>
	<polyline fill="#0762BC" stroke="#000000" stroke-width="1.5" points="140.597,58 140.597,51.584 153.784,51.584 153.784,58 	"/>
	<polyline fill="#0762BC" stroke="#000000" stroke-width="1.5" points="52.881,58 52.881,51.584 67.569,51.584 67.569,58 	"/>
	<polyline fill="#0762BC" stroke="#000000" stroke-width="1.5" points="113.524,58 113.524,51.584 128.212,51.584 128.212,58 	"/>
	<polyline fill="#0762BC" stroke="#000000" stroke-width="1.5" points="82.453,58 82.453,51.584 98.641,51.584 98.641,58 	"/>
	<g>
		<path fill="#0762BC" stroke="#000000" d="M70.051,75.332c0,0.576-0.433,1.043-0.966,1.043H58.618
			c-0.534,0-0.966-0.467-0.966-1.043v-7.913c0-0.576,0.433-1.043,0.966-1.043h10.467c0.534,0,0.966,0.467,0.966,1.043V75.332z"/>
		<path fill="#0762BC" stroke="#000000" d="M123.552,75.332c0,0.576-0.434,1.043-0.967,1.043h-10.467
			c-0.534,0-0.967-0.468-0.967-1.043v-7.913c0-0.576,0.433-1.043,0.967-1.043h10.467c0.533,0,0.967,0.468,0.967,1.043V75.332z"/>
		<path fill="#0762BC" stroke="#000000" d="M49.623,66.375h6.087c0.533,0,0.966,0.467,0.966,1.043v7.913
			c0,0.576-0.433,1.043-0.966,1.043h-6.026"/>
		<path fill="#0762BC" stroke="#000000" d="M83.427,75.332c0,0.576-0.433,1.043-0.966,1.043H71.993
			c-0.534,0-0.966-0.467-0.966-1.043v-7.913c0-0.576,0.432-1.043,0.966-1.043H82.46c0.533,0,0.966,0.467,0.966,1.043V75.332z"/>
		<path fill="#0762BC" stroke="#000000" d="M96.802,75.331c0,0.576-0.434,1.043-0.967,1.043H85.368
			c-0.535,0-0.967-0.467-0.967-1.043v-7.913c0-0.576,0.432-1.043,0.967-1.043h10.467c0.533,0,0.967,0.467,0.967,1.043V75.331z"/>
		<path fill="#0762BC" stroke="#000000" d="M110.177,75.331c0,0.576-0.434,1.043-0.967,1.043H98.743
			c-0.535,0-0.967-0.467-0.967-1.043v-7.913c0-0.576,0.432-1.043,0.967-1.043h10.467c0.533,0,0.967,0.467,0.967,1.043V75.331z"/>
		<path fill="#0762BC" stroke="#000000" d="M131.727,76.375h-6.233c-0.535,0-0.967-0.467-0.967-1.043v-7.913
			c0-0.576,0.432-1.043,0.967-1.043h6.233"/>
	</g>
	<g>
		<path fill="#0762BC" stroke="#000000" d="M76.886,129.932c0,0.575-0.434,1.043-0.967,1.043H65.452
			c-0.534,0-0.966-0.468-0.966-1.043v-7.912c0-0.577,0.433-1.044,0.966-1.044h10.467c0.533,0,0.967,0.467,0.967,1.044V129.932z"/>
		<path fill="#0762BC" stroke="#000000" d="M130.386,129.932c0,0.575-0.434,1.043-0.967,1.043h-10.467
			c-0.534,0-0.967-0.468-0.967-1.043v-7.914c0-0.575,0.433-1.043,0.967-1.043h10.467c0.533,0,0.967,0.468,0.967,1.043V129.932z"/>
		<path fill="#0762BC" stroke="#000000" d="M63.511,129.932c0,0.575-0.433,1.043-0.966,1.043H52.077
			c-0.534,0-0.966-0.468-0.966-1.043v-7.912c0-0.577,0.432-1.044,0.966-1.044h10.468c0.533,0,0.966,0.467,0.966,1.044V129.932z"/>
		<path fill="#0762BC" stroke="#000000" d="M105.165,121.073c0.125-0.063,0.265-0.099,0.412-0.099h10.467
			c0.533,0,0.967,0.468,0.967,1.043v7.912c0,0.577-0.434,1.044-0.967,1.044h-10.467c-0.134,0-0.262-0.029-0.378-0.083"/>
	</g>
	<g>
		<path fill="#0762BC" stroke="#000000" d="M70.052,119.012c0,0.575-0.434,1.043-0.967,1.043H58.618
			c-0.534,0-0.966-0.468-0.966-1.043v-7.913c0-0.576,0.433-1.043,0.966-1.043h10.467c0.533,0,0.967,0.467,0.967,1.043V119.012z"/>
		<path fill="#0762BC" stroke="#000000" d="M123.552,119.012c0,0.575-0.434,1.043-0.967,1.043h-10.467
			c-0.534,0-0.967-0.468-0.967-1.043v-7.914c0-0.575,0.433-1.043,0.967-1.043h10.467c0.533,0,0.967,0.468,0.967,1.043V119.012z"/>
		<path fill="#0762BC" stroke="#000000" d="M49.559,110.056h6.151c0.533,0,0.966,0.467,0.966,1.043v7.913
			c0,0.575-0.433,1.043-0.966,1.043h-6.068"/>
		<path fill="#0762BC" stroke="#000000" d="M77.977,120.055h-5.984c-0.535,0-0.967-0.468-0.967-1.043v-7.913
			c0-0.576,0.432-1.043,0.967-1.043h5.817"/>
		<path fill="#0762BC" stroke="#000000" d="M105.311,110.055h3.899c0.533,0,0.967,0.468,0.967,1.043v7.912
			c0,0.577-0.434,1.044-0.967,1.044h-3.941"/>
		<path fill="#0762BC" stroke="#000000" d="M131.811,120.054h-6.317c-0.535,0-0.967-0.467-0.967-1.044v-7.912
			c0-0.575,0.432-1.043,0.967-1.043h6.317"/>
	</g>
	<g>
		<path fill="#0762BC" stroke="#000000" d="M76.886,108.092c0,0.575-0.434,1.043-0.967,1.043H65.452
			c-0.534,0-0.966-0.468-0.966-1.043v-7.912c0-0.577,0.433-1.044,0.966-1.044h10.467c0.533,0,0.967,0.467,0.967,1.044V108.092z"/>
		<path fill="#0762BC" stroke="#000000" d="M130.386,108.092c0,0.575-0.434,1.043-0.967,1.043h-10.467
			c-0.534,0-0.967-0.468-0.967-1.043v-7.914c0-0.575,0.433-1.043,0.967-1.043h10.467c0.533,0,0.967,0.468,0.967,1.043V108.092z"/>
		<path fill="#0762BC" stroke="#000000" d="M63.511,108.092c0,0.575-0.433,1.043-0.966,1.043H52.077
			c-0.534,0-0.966-0.468-0.966-1.043v-7.912c0-0.577,0.432-1.044,0.966-1.044h10.468c0.533,0,0.966,0.467,0.966,1.044V108.092z"/>
		<path fill="#0762BC" stroke="#000000" d="M78.059,108.726c-0.125-0.176-0.199-0.396-0.199-0.634v-7.912
			c0-0.577,0.432-1.044,0.967-1.044h5.149"/>
		<path fill="#0762BC" stroke="#000000" d="M99.353,99.135h3.316c0.533,0,0.967,0.468,0.967,1.043v5.295"/>
		<path fill="#0762BC" stroke="#000000" d="M104.61,107.342v-7.164c0-0.575,0.432-1.043,0.967-1.043h10.467
			c0.533,0,0.967,0.468,0.967,1.043v7.913c0,0.576-0.434,1.043-0.967,1.043h-10.467c-0.152,0-0.297-0.038-0.425-0.104"/>
	</g>
	<g>
		<path fill="#0762BC" stroke="#000000" d="M70.052,97.171c0,0.576-0.434,1.043-0.967,1.043H58.618
			c-0.534,0-0.966-0.468-0.966-1.043v-7.912c0-0.577,0.433-1.043,0.966-1.043h10.467c0.533,0,0.967,0.467,0.967,1.043V97.171z"/>
		<path fill="#0762BC" stroke="#000000" d="M123.552,97.171c0,0.576-0.434,1.043-0.967,1.043h-10.467
			c-0.534,0-0.967-0.468-0.967-1.043v-7.913c0-0.576,0.433-1.043,0.967-1.043h10.467c0.533,0,0.967,0.468,0.967,1.043V97.171z"/>
		<path fill="#0762BC" stroke="#000000" d="M49.559,88.216h6.151c0.533,0,0.966,0.467,0.966,1.043v7.912
			c0,0.576-0.433,1.043-0.966,1.043h-6.057"/>
		<path fill="#0762BC" stroke="#000000" d="M83.427,97.171c0,0.576-0.434,1.043-0.967,1.043H71.993
			c-0.535,0-0.967-0.468-0.967-1.043v-7.912c0-0.577,0.432-1.043,0.967-1.043H82.46c0.533,0,0.967,0.467,0.967,1.043V97.171z"/>
		<path fill="#0762BC" stroke="#000000" d="M85.058,98.159c-0.382-0.139-0.656-0.529-0.656-0.988v-7.912
			c0-0.576,0.432-1.043,0.967-1.043h10.467c0.533,0,0.967,0.468,0.967,1.043v7.471"/>
		<path fill="#0762BC" stroke="#000000" d="M110.177,97.17c0,0.577-0.434,1.043-0.967,1.043H98.743
			c-0.535,0-0.967-0.467-0.967-1.043v-7.912c0-0.576,0.432-1.043,0.967-1.043h10.467c0.533,0,0.967,0.468,0.967,1.043V97.17z"/>
		<path fill="#0762BC" stroke="#000000" d="M131.872,98.214h-6.379c-0.535,0-0.967-0.467-0.967-1.043v-7.912
			c0-0.576,0.432-1.043,0.967-1.043h6.255"/>
	</g>
	<g>
		<path fill="#0762BC" stroke="#000000" d="M76.886,86.251c0,0.576-0.434,1.043-0.967,1.043H65.452
			c-0.534,0-0.966-0.468-0.966-1.043v-7.912c0-0.577,0.433-1.043,0.966-1.043h10.467c0.533,0,0.967,0.467,0.967,1.043V86.251z"/>
		<path fill="#0762BC" stroke="#000000" d="M130.386,86.251c0,0.576-0.434,1.043-0.967,1.043h-10.467
			c-0.534,0-0.967-0.468-0.967-1.043v-7.913c0-0.576,0.433-1.043,0.967-1.043h10.467c0.533,0,0.967,0.468,0.967,1.043V86.251z"/>
		<path fill="#0762BC" stroke="#000000" d="M63.511,86.251c0,0.576-0.433,1.043-0.966,1.043H52.077
			c-0.534,0-0.966-0.468-0.966-1.043v-7.912c0-0.577,0.432-1.043,0.966-1.043h10.468c0.533,0,0.966,0.467,0.966,1.043V86.251z"/>
		<path fill="#0762BC" stroke="#000000" d="M90.261,86.251c0,0.576-0.434,1.043-0.967,1.043H78.827
			c-0.535,0-0.967-0.468-0.967-1.043v-7.912c0-0.577,0.432-1.043,0.967-1.043h10.467c0.533,0,0.967,0.467,0.967,1.043V86.251z"/>
		<path fill="#0762BC" stroke="#000000" d="M103.636,86.25c0,0.577-0.434,1.043-0.967,1.043H92.202
			c-0.535,0-0.967-0.467-0.967-1.043v-7.912c0-0.576,0.432-1.043,0.967-1.043h10.467c0.533,0,0.967,0.468,0.967,1.043V86.25z"/>
		<path fill="#0762BC" stroke="#000000" d="M117.011,86.25c0,0.577-0.434,1.043-0.967,1.043h-10.467
			c-0.535,0-0.967-0.467-0.967-1.043v-7.912c0-0.576,0.432-1.043,0.967-1.043h10.467c0.533,0,0.967,0.468,0.967,1.043V86.25z"/>
	</g>
	<path fill="#0762BC" stroke="#000000" d="M78.018,133.583l-0.167-23.5c0,0,0.917-5.833,7.333-12.333s5.417-4.833,5.833-4.833
		s2.333,0.333,4.833,2.833s8.916,11.001,9.333,12.917s0,23.833,0,23.833l-3.917-0.083c0,0,0.333-21.417,0.417-22.417
		s-3.667-6.5-5.75-8.75s-4-4.5-5.25-3.583s-6.5,6.417-7.667,9s-1.25,1.75-1.333,6.75s0.167,20.333,0.167,20.333L78.018,133.583z"/>
	<polygon fill="#0762BC" points="131.997,80.563 143.81,66.188 153.784,66.312 131.56,93.5 	"/>
	<polygon fill="#0762BC" points="49.347,80.563 37.534,66.188 27.56,66.312 49.784,93.5 	"/>
	<rect x="27.31" y="58.166" fill="#0762BC" stroke="#000000" stroke-width="1.5" width="126.475" height="8.146"/>
	<rect x="38.018" y="132.167" fill="#0762BC" stroke="#000000" stroke-width="1.5" width="107.417" height="10.5"/>
	<line fill="#3D77BB" stroke="#000000" stroke-width="1.5" x1="49.601" y1="132.167" x2="49.601" y2="66.333"/>
	<line fill="#3D77BB" stroke="#000000" stroke-width="1.5" x1="131.768" y1="132" x2="131.768" y2="66.167"/>
	<line fill="#3D77BB" stroke="#000000" stroke-width="1.5" x1="27.31" y1="66.313" x2="49.435" y2="93.833"/>
	<line fill="#3D77BB" stroke="#000000" stroke-width="1.5" x1="36.935" y1="66.25" x2="49.653" y2="81.438"/>
	<line fill="#3D77BB" stroke="#000000" stroke-width="1.5" x1="153.856" y1="66.313" x2="131.731" y2="93.834"/>
	<line fill="#3D77BB" stroke="#000000" stroke-width="1.5" x1="144.231" y1="66.25" x2="131.893" y2="80.896"/>
	<path fill="none" stroke="#000000" d="M78.06,132.125l-0.25-22c0,0-1.5-2.375,9.625-14.75c0,0,1.75-2.5,3.875-2.5h0.432
		c2.125,0,3.875,2.5,3.875,2.5c11.125,12.375,9.625,14.75,9.625,14.75l-0.25,22"/>
	<path fill="none" stroke="#000000" d="M81.685,132.167l-0.25-20.833c0,0-0.75-2.667,7-11.584c0,0,1.917-2.25,2.917-2.25l0.365,0
		c1,0,2.917,2.25,2.917,2.25c7.75,8.916,7,11.584,7,11.584l-0.25,20.832"/>
	<rect x="83.393" y="109.688" fill="#0762BC" stroke="#000000" width="16.417" height="5.688"/>
	<rect x="83.393" y="121.688" fill="#0762BC" stroke="#000000" width="16.417" height="5.688"/>
</g>
<g id="eichhörnchen">
	<path fill="#E83629" d="M66.497,21.125l0.188,1.75c0,0,2-0.292,2.667-0.125s8.084,2.667,11.167,3.083s11.333,2.25,22.167-1
		c0,0,9.249-1.083,11.333,0.75s2.584,0.25,2.584,0.25l4-0.833c0,0,2.916-2.167,1.166-4.25s-5.499-4.333-8.916-3.5
		s-14.834,4.334-15.917,4.667s-9.917,2.333-18.75-3.75s-9.75-9.5-9.917-9.583s5.667-0.75,8,1.167s5.25,3.917,5.25,3.917
		s-3.5-4.25-3.583-6s2.417,0.25,2.417,0.25s9.667,5.166,10.917,6.833s-5-4.583-5.417-7.167s8.334,4.75,10,5.5s3,0.167,3.333,0
		s-4.667-3-4.917-5.083s10.666,2.583,11.5,4.333s2.417,0.25,2.417,0.25l-3.167-4.333c0,0,9.334,0,13.334,3.333
		c0,0,0.166-0.25-0.167-1.75S117.602,7,117.602,7l4.333,2.25c0,0,4.001,1.917,3.917,3.667c-0.046,0.957-1.047-2.312-0.875-4.125
		c0.145-1.534,0.791-0.833,1.458-1.542c0,0,3.499,4.5,3.833,6.833s2.667,10.333-5.583,13.75s-7.417,1.5-7.75,2
		s0.166,1.667,0.083,2.417s-0.584,3.084-1.25,3.667s13-0.417,13-0.417s4.5-0.917,5-0.75s2.917,2.084-0.333,4.167
		s-4.834,3-5.667,3.917s-4.416,4.417-4.416,4.417s-1.834,2.917-1.667,3.5s-3.75,0.5-3.75,0.5s-2.834,0.167-3.167-0.25
		s-0.666-1.167-0.666-1.167s0.832-2.167,1.666-2.5s2.917-1.083,3.917-2.333s3.5-3.75,3.5-3.75S109.436,42.5,107.852,42
		s-5.833,5.083-7.75,4.75l-2.417,1.5c0,0-0.25,1.083-0.25,1.75s0.083,1.417,0.083,1.417L89.101,51.5c0,0-0.167-2.166,0.25-2.333
		s4.5-3.417,5.167-3.417S96.185,46,96.185,46l7.917-5.833c0,0-2.501-2.417-2.584-3.167s-17.333,6.083-17.333,6.083
		s-6.417,1.167-9.667,0.083l-0.833,0.75c0,0-9.833,7.333-10.167,7.5s-8.833,0.25-8.833,0.25s-0.5-1.75-0.167-2.5
		s3.75-3.417,4.167-3.667s9.583-7.417,9.25-7.167s-6-4.333-6-4.333s-1.583,1.75-2.667,2.167s-4.167,1.667-5.25,1.5
		s-3.167-1.417-2.75-4.25s3-8.667,4.417-10.167s1.917-1.667,1.917-1.667L57.185,9.667c0,0,4.25,6.75,4.333,7.417s1,1.167,1,1.167
		l-0.75-9.333c0,0,3.167,2.916,3.5,5.083s1.167,4.417,0.917,5.167L66.497,21.125z"/>
	<path fill="none" stroke="#000000" stroke-width="1.5" d="M114.435,37.125c4-3.5,2.75-8.5,0.125-11s-7.5-2.375-19.625,0.125
		S70.622,23,70.622,23s-2.813-0.5-4.688-0.125"/>
	<path fill="none" stroke="#000000" stroke-width="1.5" d="M115.56,36l13.75-0.75c0,0,3.5-0.75,4.75-0.5s1.75,2.75-0.125,3.75
		s-2.625,1.25-5.125,3.375c-1.429,1.214-6.5,6-6.875,7s0.156,2.156-0.344,2.281s-5.906,0.031-5.906,0.031S113.436,51,113.936,49.5
		c0,0,0.516-2.052,2.666-2.667c2.625-0.75,2.958-1.333,2.958-1.333l3.625-4.25c0,0-9.125,1.25-12.75,0.875s-8.5-0.5-9-7.75"/>
	<path fill="none" stroke="#000000" stroke-width="1.5" d="M104.102,40.333c0,0-7.5,5.083-7.917,5.417s-1.5-0.583-3,0.5
		s-3.667,2.167-3.917,3.333s-0.083,1.667-0.083,1.667l8.25-0.417c0,0-0.417-1.333,0.083-2s10.584-6.75,10.584-6.75"/>
	<path fill="none" stroke="#000000" stroke-width="1.5" d="M116.935,29.75c0,0,13.168-1.417,13.834-8.417s-1.75-11-3.5-13.083
		l-0.917-1.125c0,0-2.448,1.094-1.229,3.313c0.425,0.773,0.995,1.613,0.953,2.594c-0.104,2.445-0.425,4.686-0.391,4.135
		c0.29-4.665-0.083-5.333-1.833-6.75s-6.5-3.583-6.5-3.583c0,2.288,1.75,5.583,1.75,5.583c-5.25-5-14.5-4.5-14.5-4.5
		c0.57,0.229,3.875,4.708,3.875,4.708l-2.042,0.125c0,0-0.667-0.167-2.583-2C99.934,7.001,93.935,8,93.935,8
		c1.801,3.152,5.375,5.188,5.375,5.188l-3.291,0.146c-3.932-4.428-10.417-6.25-10.417-6.25s0.083,3.083,5.917,7.833"/>
	<path fill="none" stroke="#000000" stroke-width="1.5" d="M85.685,15.167c-3.417,0.25-6.755-3.435-9.625-5.708
		c-2.208-1.75-7.875-0.875-7.875-0.875c0.551,0.774,6.417,8,13.917,12s17.417,0.667,17.417,0.667s8.083-2.333,12.5-3.583
		s9.083,0,10.083,4.333s-7.542,4.125-7.542,4.125"/>
	<path fill="none" stroke="#000000" stroke-width="1.5" d="M78.018,7.25"/>
	<path fill="none" stroke="#000000" stroke-width="1.5" d="M85.435,14.917c-2.667-1.042-2.875-0.708-5-2.625
		c-2.862-2.582-2.417-5.042-2.417-5.042s8.333,2.334,13.667,7.917"/>
	<path fill="none" stroke="#000000" stroke-width="1.5" d="M101.935,36.75c0,0-15.875,5.75-16.875,6s-6.125,2-10.625,0.5"/>
	<path fill="none" stroke="#000000" stroke-width="1.5" d="M79.185,37.875c0,0-0.125,2-6,6.25c0,0-7.917,6.792-9.5,7.083
		s-5.333,0.625-5.667,0.5s0.083-1.292,0.875-1.792s10.417-8.333,10.667-8.583s0.584-0.875,0.167-1.167s-6.625-5.167-7.708-6.25"/>
	<path fill="none" stroke="#000000" stroke-width="1.5" d="M63.935,31.5c0,0-3.25,3.583-4.667,4.333s-7.083,4.083-7.833-0.333
		s0.917-7.667,2.667-10.25s3.333-4,6.25-4.167"/>
	<path fill="none" stroke="#000000" stroke-width="1.5" d="M57.518,21.333L57.352,9.917c0,0,3.833,4.166,4,7.583"/>
	<path fill="none" stroke="#000000" stroke-width="1.5" d="M62.685,20.25L61.852,9c0,0,3.917,1.833,4.333,10.167
		c0.029,0.583-2,0.167-2,0.167"/>
	<path fill="none" stroke="#000000" stroke-width="1.5" d="M57.643,51.375c0,0-2.75,0.5-2.958-0.167s-0.458-2.042,0.125-2.667
		s12.708-9.875,12.708-9.875"/>
	<path fill="none" stroke="#000000" stroke-width="1.5" d="M56.768,34.625c0,0-0.917,2.417-1.5,2.875"/>
	<path fill="none" stroke="#000000" stroke-width="1.5" d="M57.56,27.875c0,0,0.625-1.813,2.563-1.125"/>
</g>
<path id="rand" fill="none" stroke="#000000" stroke-width="4" d="M179.184,2l-10.667,120.667c0,0-1.578,16.407-11.18,33.451
	c-1.166,2.07-2.45,4.149-3.864,6.21c-10.88,15.85-29.446,30.582-60.955,31.339h-3.667c-69.333-1.666-76-71-76-71L2.185,2H179.184z"
	/>
</svg>
