<?xml version="1.0" encoding="UTF-8" standalone="no"?>
<svg version="1.1" xmlns="http://www.w3.org/2000/svg" xmlns:xlink="http://www.w3.org/1999/xlink" xmlns:inkscape="http://www.inkscape.org/namespaces/inkscape" width="772.8" height="815.04">
	<g id="dp_dp001">
		<path id="dp_path002" fill="white" fill-rule="evenodd" stroke="black" stroke-width="0.133333" d="M 386.633,9.55867 C 511.987,9.54933 637.339,9.54133 762.692,9.532 C 759.925,136.356 757.135,263.181 754.392,390.012 C 749.112,575.164 685.269,805.096 386.643,804.913 C 88.024,805.095 24.1813,575.163 18.9013,390.011 C 16.1587,263.18 13.368,136.355 10.6013,9.53067 C 135.955,9.54 261.28,9.54933 386.633,9.55867 Z "/>
		<path id="dp_path003" fill="#dc281e" fill-rule="evenodd" stroke="black" stroke-width="6.66667" d="M 262.768,276.777 C 304.167,276.804 345.487,276.863 386.657,276.805 C 386.64,315.4 386.589,350.459 386.663,390.023 C 345.468,389.969 304.109,390.033 262.668,390.023 C 262.531,472.451 262.501,554.731 262.776,636.144 C 216.333,655.02 206.227,740.432 206.168,767.291 C 206.101,740.437 195.995,655.025 149.552,636.149 C 149.824,555.445 149.664,390.775 149.663,390.019 C 106.14,390.009 62.4267,389.984 18.8973,390.019 C 18.1827,351.999 17.2387,314.447 16.4347,276.591 C 60.7333,276.607 105.111,276.661 149.485,276.684 C 149.351,187.204 149.275,97.864 149.584,9.54267 C 188.372,9.54267 223.855,9.54533 262.643,9.54533 C 262.94,97.884 262.879,187.269 262.768,276.777 Z "/>
		<path id="dp_path004" fill="none" fill-rule="evenodd" stroke="black" stroke-width="6.66667" d="M 16.524,333.481 L 386.583,333.481"/>
		<path id="dp_path005" fill="none" fill-rule="evenodd" stroke="black" stroke-width="6.66667" d="M 206.168,767.291 L 206.168,9.52533"/>
		<path id="dp_path006" fill="none" fill-rule="evenodd" stroke="black" stroke-width="3.33333" d="M 149.159,390.432 L 263.159,276.432"/>
		<path id="dp_path007" fill="none" fill-rule="evenodd" stroke="black" stroke-width="3.33333" d="M 150.359,276.755 L 262.759,389.632"/>
		<path id="dp_path008" fill="black" fill-rule="evenodd" stroke="black" stroke-width="6.66667" d="M 387.269,11.764 C 512.623,11.7547 637.935,11.7413 763.288,11.732 C 760.521,138.556 757.731,265.381 754.988,392.212 C 749.708,577.364 685.899,807.288 387.272,807.105 C 387.279,527.057 387.263,291.812 387.269,11.764 Z "/>
		<path id="dp_path009" fill="#dc281e" fill-rule="evenodd" stroke="black" stroke-width="0.133333" d="M 487.423,75.5453 C 465.391,77.148 468.269,130.953 502.187,131.061 C 510.747,131.088 517.751,130.423 523.485,126.545 C 526.575,124.456 529.347,121.308 534.079,120.303 C 536.847,119.715 539.645,119.692 542.408,119.919 C 543.533,120.011 558.295,123.249 559.924,122.008 C 561.716,120.216 559.977,118.829 559.927,118.616 C 558.421,112.28 552.224,109.865 545.825,110.523 C 530.725,112.073 527.057,117.087 513.436,112.937 C 504.347,110.168 496.236,104.14 493.129,95.2533 C 491.519,90.6453 492.008,87.9893 492.608,82.84 C 492.943,79.9667 492.109,75.0067 487.423,75.5453 Z "/>
		<path id="dp_path010" fill="gold" fill-rule="evenodd" stroke="black" stroke-width="0.133333" d="M 558.683,157.232 C 625.017,149.503 599.599,106.648 598.183,96.232 C 598.656,97.3987 597.436,99.6613 595.292,100.259 C 598.795,120.033 601.168,134.217 585.776,144.228 C 581.555,146.973 576.24,149.456 569.739,149.4 C 561.059,149.325 553.457,141.271 547.012,141.513 C 537.939,141.855 537.988,155.045 524.575,150.489 C 522.693,149.851 519.872,148.495 518.275,146.423 C 509.372,134.877 528.043,134.991 536.447,133.704 C 544.844,132.419 559.684,136.955 567.691,121.835 C 569.029,119.308 570.34,115.505 570.199,112.923 C 569.936,108.112 567.481,103.679 564.047,100.429 C 547.871,85.1253 530.841,110.629 514.3,97.604 C 508.999,93.4293 502.56,79.6387 514.648,73.0347 C 518.9,70.712 522.005,71.26 523.835,71.232 C 520.739,69.496 509.459,61.6173 511.768,57.832 C 513.684,54.6907 525.124,52.788 532.303,54.096 C 539.853,55.472 553.531,58.748 557.623,56.2707 C 556.985,62.26 565.935,65.6267 570.667,66.1173 C 569.601,90.9667 596.892,86.86 600.559,79.3573 C 602.996,76.3387 608.028,78.3067 611.076,82.2293 C 611.537,73.3987 592.077,49.4373 570.46,60.732 C 564.137,62.7547 561.163,55.1293 564.433,46.9827 C 576.701,41.3653 612.035,45.6987 621.568,50.032 C 636.368,27.1653 681.968,57.2987 645.568,77.232 C 659.883,86.9067 648.148,127.168 664.16,135.28 C 662.715,137.972 663.381,145.732 664.568,147.832 C 659.013,151.417 650.269,141.784 648.189,130.196 C 651.064,152.135 642.633,239.12 667.279,222.009 C 668.628,228.219 668.656,234.448 662.929,239.919 C 661.889,240.912 654.476,247.516 651.321,240.636 C 644.44,225.629 642.781,186.269 640.683,164.732 C 639.651,154.139 639.753,151.628 636.932,140.232 C 635.837,166.816 660.576,314.399 607.932,274.232 C 621.432,254.065 626.099,172.732 620.932,153.232 C 619.051,185.331 614.056,321.603 566.183,270.983 C 591.521,253.173 606.396,180.731 609.568,161.532 C 602.452,186.603 564.679,317.281 512.579,261.204 C 549.823,249.98 594.212,186.46 598.293,164.776 C 582.245,219.608 467.961,301.701 483.921,205.351 C 520.515,242.608 572.849,186.857 581.932,165.483 C 575.223,178.233 502.14,255.732 508.683,173.232 C 537.765,208.565 547.849,159.149 558.683,157.232 Z "/>
		<path id="dp_path011" fill="gold" fill-rule="evenodd" d="M 578.933,72.3773 C 578.933,66.3827 584.244,61.5253 590.796,61.5253 C 597.347,61.5253 602.657,66.3827 602.657,72.3773 C 602.657,78.3707 597.347,83.2293 590.796,83.2293 C 584.244,83.2293 578.933,78.3707 578.933,72.3773 Z "/>
		<path id="dp_path012" fill="black" fill-rule="evenodd" d="M 579.637,73.1627 C 579.113,70.524 580.915,66.344 583.909,65.8 C 587.756,65.164 589.033,69.136 589.464,71.528 C 589.843,73.6347 588.58,78.388 584.981,79.0373 C 581.821,79.6413 580.077,75.8027 579.636,73.1547"/>
		<path id="dp_path013" fill="black" fill-rule="evenodd" stroke="black" stroke-width="0.133333" d="M 642.176,71.248 C 642.889,70.78 626.884,83.2533 646.456,68.4413 C 666.028,53.6293 635.991,39.756 627.481,51.5453 C 618.972,63.3347 626.423,53.6613 626.211,54.0853 C 636.461,42.464 664.479,55.3627 642.176,71.248 Z "/>
		<path id="dp_path014" fill="gold" fill-rule="evenodd" stroke="black" stroke-width="0.133333" d="M 682.977,223.097 C 680.763,223.508 676.687,225.551 674.388,227.744 C 670.34,186.776 669.46,150.092 677.499,107.14 C 680.327,92.0307 687.869,69.2227 704.96,73.876 C 729.473,80.5507 703.279,133.799 727.088,138.112 C 728.665,142.197 728.969,146.809 727.808,149.552 C 727.068,151.3 725.797,153.153 724.475,154.544 C 712.429,167.209 700.371,148.997 698.087,145.328 C 696.349,142.537 693.124,137.464 690.344,139.22 C 675.683,148.48 679.839,177.092 680.739,193.057 C 681.308,203.156 682.087,213.133 682.977,223.097 Z "/>
		<path id="dp_path015" fill="gold" fill-rule="evenodd" stroke="black" stroke-width="0.133333" d="M 628.537,598.032 C 635.092,613.579 668.359,607.125 671.929,615.472 C 675.161,592.592 635.883,606.992 630.937,582.832 C 637.492,598.379 670.759,591.925 674.329,600.272 C 677.561,577.392 638.283,591.792 633.513,567.632 C 640.997,583.179 677.563,576.725 681.488,585.072 C 685.04,562.192 639.219,568.112 633.977,543.952 C 641.711,561.168 680.964,553.823 685.177,563.152 C 688.991,537.58 642.644,553.675 637.017,526.672 C 644.431,541.899 683.684,535.445 687.897,543.792 C 691.711,520.912 645.364,535.312 639.577,511.312 C 647.311,526.859 686.564,520.405 690.777,528.752 C 694.591,505.872 648.564,521.232 642.617,496.112 C 649.097,509.872 676.617,498.992 681.497,503.632 C 693.351,472.899 591.884,513.965 652.217,427.032 C 662.139,436.699 674.393,438.613 683.417,434.632 C 689.735,431.845 691.82,429.583 695.865,420.107 C 710.965,384.737 695.191,319.939 689.104,275.005 C 688.585,271.176 688.088,267.388 687.612,263.632 C 686.811,259.297 677.664,256.452 678.433,262.348 C 681.291,286.387 685.752,314.168 686.084,336.565 C 683.759,330.309 679.824,321.701 677.819,314.324 C 673.905,299.932 668.7,266.98 673.996,256.585 C 675.459,253.715 677.835,252.591 680.384,252.241 C 685,251.609 689.473,254.492 691.28,258.635 C 694.549,266.131 693.069,278.955 697.435,285.556 C 705.244,297.368 719.403,286.868 723,282.251 C 724.891,279.824 725.432,277.589 726.035,275.521 C 727.484,270.547 727.207,265.721 727.097,260.912 C 703.872,262.109 718.948,223.419 689.916,228.144 C 683.772,229.144 674.895,233.907 668.765,241.589 C 662.755,249.123 662.375,255.299 661.36,265.271 C 660.116,277.489 664.12,306.407 669.925,324.644 C 679.409,354.439 699.612,381.496 691.227,407.341 C 688.576,415.511 668.877,429.12 663.781,412.828 C 660.42,402.081 662.475,384.179 660.481,372.617 C 657.827,357.219 647.417,331.057 644.328,315.617 C 641.311,300.539 642.955,289.216 644.461,274.471 C 644.575,287.099 615.423,294.111 602.88,281.103 C 593.781,283.356 603.816,311.247 563.593,311.46 C 565.344,325.293 592.031,364.403 602.608,373.476 C 502.267,444.901 621.011,538.799 547.267,514.351 C 554.411,581.613 601.092,521.323 582.471,484.675 C 592.491,496.875 605.657,528.007 606.593,549.877 C 607.529,571.748 601.059,615.541 588.084,615.899 C 586.441,615.847 585.649,614.744 585.253,614.123 C 581.996,609.012 585.105,599.987 585.449,596.987 C 585.543,596.175 585.973,593.947 584.571,592.849 C 582.215,591.005 569.913,595.343 569.224,595.511 C 565.824,596.339 563.999,596.364 559.791,596.504 C 556.52,596.613 554.829,596.72 553.292,596.963 C 547.755,597.837 550.921,602.844 551.259,603.572 C 553.639,608.709 558.847,612.419 560.585,617.841 C 561.833,621.735 561.704,625.981 560.057,626.352 C 559.465,626.549 557.395,627.076 556.027,627.153 C 554.473,627.241 552.499,626.988 550.736,626.883 C 547.852,626.711 540.157,623.463 538.721,626.119 C 537.285,628.775 541.405,637.184 542.123,642.816 C 542.84,648.448 540.82,658.164 543.023,659.909 C 545.225,661.655 552.449,654.775 555.34,653.289 C 556.979,652.447 558.62,651.575 560.368,650.993 C 562.152,650.4 565.099,649.937 566.045,649.727 C 567.38,649.443 570.204,650.536 571.452,651.839 C 572.7,653.141 573.905,655.551 573.535,657.539 C 573.108,659.827 570.144,662.739 568.891,665.564 C 567.537,668.616 563.075,674.007 565.413,675.847 C 567.752,677.687 577.447,676.109 582.921,676.603 C 588.065,677.067 594.9,680.476 598.259,678.805 C 601.617,677.135 602.544,670.695 603.069,666.577 C 603.595,662.46 601.695,657.288 601.407,654.104 C 601.208,651.903 600.953,649.268 601.337,647.472 C 601.639,646.06 602.416,644.488 604.171,643.477 C 610.996,640.689 619.928,639.473 630.027,642.2 C 634.341,643.365 638.045,638.707 640.528,634.788 C 642.987,630.907 642.879,626.223 641.763,622.351 C 639.412,614.195 633.611,614.223 630.268,608.589 C 627.641,604.164 629.06,602.028 628.537,598.032 Z "/>
		<path id="dp_path016" fill="#dc281e" fill-rule="evenodd" stroke="black" stroke-width="0.133333" d="M 526.691,653.297 C 527.067,640.596 534.031,636.856 537.241,636.157 C 539.365,638.548 540.163,647.941 539.469,650.4 C 536.713,644.976 528.827,650.933 526.691,653.297 Z "/>
		<path id="dp_path017" fill="#dc281e" fill-rule="evenodd" stroke="black" stroke-width="0.133333" d="M 555.481,581.703 C 568.185,581.479 572.251,588.257 573.101,591.432 C 570.812,593.667 561.468,594.908 558.979,594.331 C 564.267,591.321 557.943,583.725 555.481,581.703 Z "/>
		<path id="dp_path018" fill="#dc281e" fill-rule="evenodd" stroke="black" stroke-width="0.133333" d="M 588.635,693.095 C 576.34,689.888 574.252,682.264 574.288,678.979 C 577.093,677.443 586.427,678.765 588.668,679.992 C 582.765,681.464 586.809,690.483 588.635,693.095 Z "/>
		<path id="dp_path019" fill="#dc281e" fill-rule="evenodd" stroke="black" stroke-width="0.133333" d="M 628.084,657.492 C 615.76,654.399 613.601,646.795 613.607,643.508 C 616.399,641.947 625.744,643.183 627.996,644.389 C 622.107,645.916 626.233,654.897 628.084,657.492 Z "/>
		<path id="dp_path020" fill="gold" fill-rule="evenodd" stroke="black" stroke-width="0.133333" d="M 471.328,622.512 C 515.465,611.615 483.195,598.139 476.928,581.552 C 484.881,601.18 511.068,592.661 518.711,608.22 C 520.235,591.645 492.073,588.652 487.335,573.543 C 499.267,582.3 518.276,575.659 526.427,587.84 C 525.709,570.585 495.26,572.064 490.479,556.175 C 490.556,556.235 490.633,556.295 490.709,556.353 C 502.625,565.452 521.885,558.595 530.107,570.88 C 529.32,551.943 492.717,555.571 493.564,534.391 C 500.877,551.365 524.931,543.899 531.944,557.552 C 533.544,540.992 499.784,539.872 503.144,521.552 C 510.021,538.885 534.075,531.419 541.088,545.072 C 542.688,528.512 508.928,527.392 512.448,509.072 C 515.355,516.885 529.861,514.379 531.835,518.565 C 534.643,509.135 464.407,431.091 560.683,405.983 C 565.528,395.963 580.528,377.849 591.968,374.432 C 570.909,358.867 514.323,368.532 489.403,378.912 C 479.937,382.855 471.027,388.605 463.527,395.873 C 439.936,418.733 462.509,443.719 441.669,459.907 C 429.181,469.607 418.872,456.165 412.448,449.872 C 398.981,485.096 438.705,507.108 458.368,464.112 C 487.801,488.993 459.952,578.616 455.408,580.003 C 455.225,580.117 454.685,580.224 454.309,580.211 C 453.824,580.193 453.036,580.06 452.467,579.791 C 451.811,579.481 450.879,579.036 450.375,578.356 C 449.461,577.123 448.828,574.125 448.86,571.923 C 448.893,569.655 450.684,566.996 450.571,564.744 C 450.471,562.76 448.363,560.141 446.308,560.284 C 443.377,560.488 437.519,563.231 432.961,563.956 C 428.133,564.724 419.111,562.52 417.336,564.893 C 415.561,567.267 419.611,575.013 422.315,578.193 C 425.253,581.649 429.963,585.643 432.163,587.719 C 433.648,589.12 434.653,592.021 433.228,592.681 C 432.532,593.101 430.096,593.152 428.568,593.132 C 427.053,593.112 425.508,593.003 424.059,592.564 C 422.359,592.049 420.115,590.683 418.365,590.041 C 416.748,589.448 413.769,588.951 413.073,590.457 C 412.436,591.839 412.749,593.429 412.961,594.893 C 413.307,597.273 414.861,601.535 415.148,604.737 C 415.427,607.853 414.549,611.973 414.68,614.112 C 414.828,616.525 414.592,618.412 416,618.855 C 417.408,619.297 421.231,618.02 423.127,616.767 C 424.881,615.607 426.681,613.843 428.416,613.205 C 430.02,612.616 432.112,612.672 433.537,612.943 C 434.82,613.187 436.247,613.78 436.968,614.832 C 437.119,615.136 437.456,615.868 437.493,616.417 C 437.537,617.057 437.423,617.947 437.113,618.628 C 436.688,619.565 435.839,621.033 434.939,622.037 C 433.023,624.175 424.827,629.104 425.617,631.455 C 426.408,633.805 435.181,634.095 439.679,636.141 C 444.315,638.251 450.527,645.089 453.429,644.111 C 456.332,643.132 455.456,633.52 457.097,630.265 C 458.357,627.767 460.901,625.872 463.273,624.58 C 465.645,623.288 469.972,622.847 471.328,622.512 Z "/>
		<path id="dp_path021" fill="#dc281e" fill-rule="evenodd" stroke="black" stroke-width="0.133333" d="M 399.855,614.299 C 400.281,601.6 407.261,597.888 410.475,597.203 C 412.589,599.601 413.349,608.997 412.645,611.453 C 409.912,606.019 402.001,611.944 399.855,614.299 Z "/>
		<path id="dp_path022" fill="#dc281e" fill-rule="evenodd" stroke="black" stroke-width="0.133333" d="M 422.085,548.884 C 434.765,549.691 438.268,556.777 438.859,560.009 C 436.396,562.052 426.981,562.531 424.548,561.755 C 430.063,559.184 424.375,551.1 422.085,548.884 Z "/>
		<path id="dp_path023" fill="#dc281e" fill-rule="evenodd" stroke="black" stroke-width="0.133333" d="M 440.367,655.016 C 430.199,647.396 431.149,639.548 432.427,636.521 C 435.605,636.161 443.744,640.916 445.355,642.899 C 439.333,642.029 439.664,651.908 440.367,655.016 Z "/>
		<path id="dp_path024" fill="#dc281e" fill-rule="evenodd" stroke="black" stroke-width="0.133333" d="M 492.199,633.201 C 479.615,634.961 474.759,628.724 473.531,625.676 C 475.532,623.18 484.657,620.817 487.199,621.089 C 482.313,624.716 489.509,631.491 492.199,633.201 Z "/>
		<path id="dp_path025" fill="gold" fill-rule="evenodd" stroke="black" stroke-width="0.133333" d="M 475.628,320.972 C 481.823,316.281 499.189,321.748 499.884,323.336 C 525.623,300.468 594.361,317.421 586.867,288.259 C 576.372,292.125 565.949,283.181 559.055,275.447 C 551.568,286.613 517.788,282.564 504.683,264.363 C 492.827,260.976 476.68,274.909 464.424,282.791 C 459.395,286.025 455.019,288.239 451.888,287.825 C 451.127,287.796 448.828,287.313 448.039,286.159 C 447.025,284.676 446.389,281.497 445.809,278.932 C 445.189,276.187 444.381,270.483 442.092,270.353 C 439.803,270.224 435.648,275.888 432.075,278.156 C 428.309,280.547 420.969,282.419 419.501,284.699 C 418.045,286.96 421.403,289.896 423.268,291.832 C 425.519,294.168 431.115,297.147 433.004,298.713 C 433.769,299.348 434.431,300.303 434.601,301.229 C 434.772,302.156 434.245,303.803 434.028,304.272 C 433.867,304.828 432.981,306.008 432.217,306.644 C 431.344,307.371 430.084,308.375 428.788,308.631 C 425.753,309.231 414.901,307.532 414.009,310.24 C 413.117,312.948 420.633,320.357 423.433,324.879 C 425.979,328.989 427.936,336.915 430.808,337.371 C 433.68,337.827 438.227,329.709 440.668,327.615 C 442.072,326.409 443.939,325.401 445.457,324.805 C 446.819,324.271 449.072,323.917 449.777,324.04 C 450.1,324.051 450.552,324.319 450.753,324.644 C 450.991,325.027 451.253,325.6 451.209,326.109 C 451.136,326.971 450.757,328.623 450.309,329.811 C 449.084,333.057 442.347,343.121 443.856,345.592 C 445.365,348.063 454.332,344.801 459.368,344.632 C 464.267,344.467 471.777,347.741 474.071,344.575 C 476.364,341.408 473.187,329.168 473.131,325.632 C 473.119,324.848 473.481,323.993 473.731,323.357 C 473.948,322.803 474.272,322.175 474.628,321.812 C 474.931,321.504 475.123,321.355 475.628,320.972 Z "/>
		<path id="dp_path026" fill="#dc281e" fill-rule="evenodd" stroke="black" stroke-width="0.133333" d="M 494.507,337.015 C 482.581,332.629 481.243,324.839 481.597,321.572 C 484.539,320.316 493.7,322.539 495.812,323.976 C 489.793,324.869 492.943,334.237 494.507,337.015 Z "/>
		<path id="dp_path027" fill="#dc281e" fill-rule="evenodd" stroke="black" stroke-width="0.133333" d="M 468.628,361.011 C 456.143,358.659 453.533,351.196 453.344,347.916 C 456.037,346.191 465.44,346.867 467.76,347.936 C 461.972,349.812 466.628,358.531 468.628,361.011 Z "/>
		<path id="dp_path028" fill="#dc281e" fill-rule="evenodd" stroke="black" stroke-width="0.133333" d="M 413.597,340.369 C 408.783,328.611 413.628,322.365 416.279,320.423 C 419.191,321.745 423.735,330.004 424.099,332.533 C 419.377,328.696 414.589,337.343 413.597,340.369 Z "/>
		<path id="dp_path029" fill="#dc281e" fill-rule="evenodd" stroke="black" stroke-width="0.133333" d="M 415.091,269.099 C 426.827,264.231 433.095,269.048 435.049,271.689 C 433.74,274.608 425.501,279.189 422.975,279.564 C 426.791,274.827 418.123,270.077 415.091,269.099 Z "/>
		<path id="dp_path030" fill="gold" fill-rule="evenodd" stroke="black" stroke-width="0.133333" d="M 460.181,151.233 C 460.241,150.571 460.328,148.359 460.825,147.032 C 461.409,145.476 462.488,143.267 463.684,141.893 C 464.848,140.556 466.969,140.229 468.001,138.788 C 469.033,137.345 471.427,134.428 469.877,133.24 C 467.908,131.731 460.551,131.497 456.181,129.733 C 451.729,127.936 445.911,122.371 443.161,122.455 C 440.412,122.539 440.096,127.521 439.681,130.233 C 439.267,132.945 440.551,137.125 440.669,138.728 C 440.697,139.112 440.608,139.528 440.393,139.848 C 440.149,140.212 439.681,140.671 439.208,140.912 C 438.673,141.185 437.539,141.432 437.181,141.488 C 436.501,141.571 434.061,141.805 433.104,140.815 C 431.94,139.611 431.575,136.035 430.199,134.267 C 428.824,132.5 426.995,129.573 424.847,130.207 C 422.677,130.847 419.813,135.551 417.181,138.108 C 414.535,140.679 409.839,143.299 408.963,145.631 C 408.129,147.851 410.136,150.608 411.927,152.096 C 413.717,153.584 418.309,154.039 419.707,154.557 C 419.985,154.66 420.179,154.992 420.312,155.209 C 420.429,155.401 420.464,155.636 420.505,155.857 C 420.563,156.165 420.563,156.932 420.461,156.983 C 420.329,157.553 419.573,158.809 418.919,159.571 C 418.173,160.439 417.069,161.447 415.989,162.188 C 414.096,163.487 407.529,165.017 407.561,167.359 C 407.593,169.7 413.581,173.057 416.183,176.232 C 418.784,179.407 420.707,185.073 423.165,186.407 C 425.528,187.688 428.64,186.263 430.931,184.232 C 432.985,182.411 435.261,178.447 437.204,177.783 C 439.072,177.144 441.771,179.669 442.588,180.251 C 449.561,185.652 446.851,207.135 447.528,207.971 C 450.604,215.493 464.152,206.312 473.293,214.859 C 473.037,205.76 477.376,196.405 484.008,193.94 C 486.048,198.191 497.655,208.651 502.885,207.205 C 498.507,204.443 496.551,187.009 498.039,182.971 C 487.92,181.188 459.308,160.881 460.181,151.233 Z "/>
		<path id="dp_path031" fill="#dc281e" fill-rule="evenodd" stroke="black" stroke-width="0.133333" d="M 431.231,207.875 C 432.611,195.244 439.849,192.067 443.105,191.624 C 445.033,194.176 445.085,203.603 444.199,205.999 C 441.881,200.373 433.548,205.688 431.231,207.875 Z "/>
		<path id="dp_path032" fill="#dc281e" fill-rule="evenodd" stroke="black" stroke-width="0.133333" d="M 408.851,194.037 C 402.255,183.177 406.061,176.249 408.375,173.916 C 411.457,174.767 417.239,182.212 417.995,184.653 C 412.731,181.601 409.357,190.892 408.851,194.037 Z "/>
		<path id="dp_path033" fill="#dc281e" fill-rule="evenodd" stroke="black" stroke-width="0.133333" d="M 399.135,131.988 C 409.781,125.052 416.825,128.639 419.232,130.877 C 418.479,133.987 411.219,140 408.804,140.832 C 411.687,135.475 402.295,132.396 399.135,131.988 Z "/>
		<path id="dp_path034" fill="#dc281e" fill-rule="evenodd" stroke="black" stroke-width="0.133333" d="M 454.531,110.937 C 465.507,117.339 465.461,125.244 464.541,128.399 C 461.425,129.121 452.793,125.331 450.965,123.545 C 457.048,123.719 455.585,113.944 454.531,110.937 Z "/>
		<path id="dp_path035" fill="none" fill-rule="evenodd" stroke="black" stroke-width="20" d="M 386.633,9.55867 C 511.987,9.54933 637.339,9.54133 762.692,9.532 C 759.925,136.356 757.135,263.181 754.392,390.012 C 749.112,575.164 685.269,805.096 386.643,804.913 C 88.024,805.095 24.1813,575.163 18.9013,390.011 C 16.1587,263.18 13.368,136.355 10.6013,9.53067 C 135.955,9.54 261.28,9.54933 386.633,9.55867 Z "/>
	</g>
</svg>