<?xml version="1.0" encoding="UTF-8" standalone="no"?>
<svg xmlns="http://www.w3.org/2000/svg" width="432" height="477" viewBox="0 0 432 477" xmlns:xlink="http://www.w3.org/1999/xlink">
 <defs>
  <clipPath>
   <path d="m38 479.75h217.25v-240.87h-217.25v240.87"/>
  </clipPath>
 </defs>
 <g fill-rule="evenodd">
  <path d="m6.04 6h420v250c0 135-100 215-210 215-110 0-210-80-210-215v-250" fill="#fff"/>
  <g fill="#da121a">
   <path d="m216.04 6l-.681 235.37h210v-235z"/>
   <path d="m5.361 241.37h210l.681 229.63c-110.68.369-213.74-78.989-210.68-229.63"/>
   <path d="m90.36 241.37h40v-95h85v-40h-85v-100h-40v100h-85v40h85z" stroke="#000" stroke-linejoin="round" stroke-linecap="round" stroke-width="2"/>
  </g>
  <g fill="#0f47af">
   <path d="m215.36 264.7h210l-1.6 22.963h-208.4z"/>
   <path d="m215.36 310.63h204.4l-6.4 22.963h-198z"/>
   <path d="m215.36 356.55h188l-12 22.963h-176z"/>
   <path d="m215.36 402.48h158l-24 22.963h-134z"/>
   <path d="m215.36 448.41h98c-32.809 15.483-63.19 22.963-98 22.963z"/>
  </g>
  <g stroke-width="2">
   <g stroke-linejoin="round">
    <g stroke-linecap="round">
     <path d="m144.15 251.89l-39.771 151.05" fill="none" stroke="#000"/>
     <path d="m152.09 270.07c10.665 18.505 26.289 31.19 38.964 43.669-7.02 6.778-13.885 13.556-23.354 20.334-23.688-8.183-34.761-25.31-46.5-40.876 10.07-9.111 20.816-17.619 30.887-23.13z" fill="#fff" stroke="#000100"/>
    </g>
    <g stroke="#000">
     <path d="m142.33 281.38c3.226 3.787 6.442 7.583 9.676 11.362l7.04-5.491 7.559 8.303-6.706 5.259c5.979 6.14 12.761 12.09 19.07 17.891l-8.212 6.588c-7.352-5.969-13.477-11.532-19.748-17.5l-6.503 5.195-8.23-7.758 6.683-5.335c-3.815-3.52-7.04-7.238-10.331-10.932z" fill="#da121a"/>
     <path d="m280.36 46.37h18v11h15v-11h14v11h15v-11h18v28h-6c0 2 0 4-2 4 2 0 1 5-1 5v114c2 0 2.193 1.958 2 4 3 0 3 3 3 5 2 0 2.028 1.794 2 4h-76c0-2 0-4 2-4 0-2 0-5 3-5 0-2 0-4 2-4v-114c-2 0-3-5-1-5-2 0-2-2-2-4h-6z" fill="#fcdd09" stroke-linecap="round"/>
    </g>
   </g>
   <g stroke="#000">
    <path d="m305.36 197.37v-37c0-20 30-20 30 0v37" fill="#0f47af"/>
    <path d="m334.96 60.669v11m-29.1-11v11m-5.5-5.5h11m18.1 0h11" fill="none" stroke-linejoin="round" stroke-linecap="round"/>
   </g>
  </g>
 </g>
 <g stroke="#000" stroke-linejoin="round" stroke-linecap="round" stroke-width="2">
  <g fill="#0f47af">
   <rect width="7" height="7" x="302.36" y="62.67"/>
   <rect y="62.67" x="331.36" height="7" width="7"/>
   <rect y="93.77" x="305.26" height="10.2" width="10.2"/>
   <rect width="10.2" height="10.2" x="325.26" y="93.77"/>
  </g>
  <g fill-rule="evenodd">
   <path d="m300.36 197.37v-40c0-24 40-24 40 0v40m-10-72.05v10m-10 .091v3.955m-10-14.05v10m30 0v10m-40-10v10m30-61.955v10m-20-10v10m20 11v10m-10 .091v9.909m-10-20v10m30 0v10m-40-10v10m-11 73h62m-62-10.364h11.1m40.09 0h10.814m-62-10.364h11.03m39.975 0h10.993m-62-10.364h10.947m40.22 0h10.83m-62-10.364h11.03m39.914 0h11.05m-62-10.364h15.334m31.358 0h15.308m-62-10.364h62m-62-10.364h62m-62-10.364h62m-62-10.364h62m-62-10.364h62m-62-10.364h62m-63-5h64m-66-4h68" fill="none"/>
   <path d="m362.36 115.37h10l-1 19h8v5h-8.5l1 11-4.361 11.631-4.639-11.631 1-11h-8.5v-5h8z" fill="#fff"/>
  </g>
 </g>
 <path d="m370.94 106.63c-.467.383-6.729-1.92-7.324-1.822-.596.099-5.781 4.297-6.346 4.085-.565-.212-1.701-6.787-2.085-7.254-.383-.467-6.612-2.858-6.711-3.454-.099-.596 5.03-4.867 5.24-5.432.212-.565-.831-7.155-.364-7.539.467-.383 6.729 1.92 7.324 1.822.596-.099 5.781-4.297 6.346-4.085.565.212 1.701 6.787 2.085 7.254.383.467 6.612 2.858 6.711 3.454.099.596-5.03 4.867-5.24 5.432-.212.565.831 7.155.364 7.539z" transform="matrix(.7354-.29817.2971.73835 72.19 137.27)" fill="#fff" stroke="#000" stroke-linejoin="round" stroke-linecap="round" stroke-width="2.517" id="SVGCleanerId_0"/>
 <use transform="translate(-94)" xlink:href="#SVGCleanerId_0"/>
 <g fill-rule="evenodd" stroke="#000" stroke-linejoin="round" stroke-linecap="round">
  <g stroke-width="2">
   <path d="m92.52 317.86c-.072-1.64-.554-2.324 2.709-3.964-1.098-3.274 1.269-8.947 5.896-4.64 1.121-.496 4.727-1.753 5.545 2.294 1.718-5.397 7.373-1.183 11.472-2.294.796 3.068-1.923 7.04-8.222 4.78 1.976 3.125 4.444 5.432 5.927 6.883 2.45 2.398-3.645 5.991-9.56 5.545 2.422 3.635 9.488 8.602 12.293 8.04 12.86-2.575 25.599-2.283 36.656.755 8.365 2.298 9.5 10.49 9.752 20.842.149 6.133-1.596 9.518-5.163 1.912-1.412 8.538 8.712 20.29 6.883 23.518-2.883 5.091-8.888 9.464-8.604 16.826.038.992-2.254-1.446-2.393-.385-.295 2.245-4.103 1.066-4.952.058-.107-6.637 5.369-10.7 7.919-16.12 1.241-4.589-6.124-10.605-11.281-24.857 3.908 10.729 4.01 15.587 3.429 22.06-.534 5.906-1.297 10.26-3.373 15.795-.486 1.296-1.885 1.549-2.827.415-.776 3.419-3.774 1.283-5.833 1.497 3.256-4.219 4.883-12.347 6.366-20.82 1.539-6.372-3.176-8.662-3.115-12.45-8.721 1.234-15.362.734-21.03-.574.23 11.05.707 22.269-1.147 31.932-.311 1.62-.762 1.67-1.338 1.53-.72 3.51-3.044 4.132-6.31 3.059l3.251-9.943c.331-10.765-3.199-17.342-2.486-24.857-.679 5.143-3.367 8.18-6.119 8.222-1.166 7.874-.461 13.458 4.183 13.431 2.837-.017 1.321 5.293.023 4.925-4.133-1.173-10.293-2.925-11.855-9.369-1.402-5.784.107-13.906 9.943-20.459-11.05-11.385-14.829-24.626-14.532-40.15-1.866 3.889-4.565 1.954-6.883 2.677-4.148 1.18-9.818-7.05-2.868-6.31 2.634.443 5.719.266 7.648.191z" fill="#fff"/>
   <g fill="none">
    <path d="m149.46 263.72l-15.751-4.147"/>
    <path d="m140.81 264.58c-1.928 4.316 5.12 7.259-5.777 16.939"/>
    <path d="m215.36 6.369v465m-209.32-230h419.32m-210 207.04l97.44.264m36.561-23.23h-133.8m0-22.963h157.8m18-22.963h-176m0-22.963h188m10-22.963h-198m0-22.963h204.4m4-22.963h-208.4m0-22.963h210"/>
   </g>
  </g>
  <g fill="none">
   <path d="m6.04 6h420v250c0 135-100 215-210 215-110 0-210-80-210-215v-250" stroke-width="6"/>
   <path d="m150.91 399.51l3.977.994-.761 1.409-3.359-.202.144-2.201m-12.777-1.42l3.695.43-.4 1.914-4.068-.466.773-1.877m-26.635 2.434l4.656.49-.404 1.712-4.389-.352.137-1.849m30.547-36.963c2.203-1.173 5.059-.796 5.354-6.501m-38.24 4.398c1.279.464 3.685 2.567 3.824 3.251m-13.267-42.547c2.571 1.668 5.385 4.068 7.491 4.343m5.69-3.739c.973 1.226 1.946.638 2.919.712m-11.364-5.978c-.431.403-2.108 1.97 1.098 1.632l-1.098-1.632" stroke-width="2"/>
  </g>
  <path d="m268.36 115.37h10l-1 19h8v5h-8.5l1 11-4.361 11.631-4.639-11.631 1-11h-8.5v-5h8z" fill="#fff" stroke-width="2"/>
 </g>
</svg>
