<?xml version="1.0" encoding="UTF-8" standalone="no"?>
<svg
   xmlns:dc="http://purl.org/dc/elements/1.1/"
   xmlns:cc="http://creativecommons.org/ns#"
   xmlns:rdf="http://www.w3.org/1999/02/22-rdf-syntax-ns#"
   xmlns:svg="http://www.w3.org/2000/svg"
   xmlns="http://www.w3.org/2000/svg"
   xmlns:sodipodi="http://sodipodi.sourceforge.net/DTD/sodipodi-0.dtd"
   xmlns:inkscape="http://www.inkscape.org/namespaces/inkscape"
   width="167.94mm"
   height="172.82001mm"
   id="svg2408"
   sodipodi:version="0.32"
   inkscape:version="0.45.1+0.46pre1+devel"
   inkscape:output_extension="org.inkscape.output.svg.inkscape"
   sodipodi:docname="Emerkingen.svg">
  <metadata
     id="metadata2421">
    <rdf:RDF>
      <cc:Work
         rdf:about="">
        <dc:format>image/svg+xml</dc:format>
        <dc:type
           rdf:resource="http://purl.org/dc/dcmitype/StillImage" />
      </cc:Work>
    </rdf:RDF>
  </metadata>
  <defs
     id="defs2419">
    <inkscape:perspective
       sodipodi:type="inkscape:persp3d"
       inkscape:vp_x="-50 : 600 : 1"
       inkscape:vp_y="0 : 1000 : 0"
       inkscape:vp_z="700 : 600 : 1"
       inkscape:persp3d-origin="300 : 400 : 1"
       id="perspective2423" />
  </defs>
  <sodipodi:namedview
     inkscape:window-height="664"
     inkscape:window-width="640"
     inkscape:pageshadow="2"
     inkscape:pageopacity="0.0"
     guidetolerance="10.0"
     gridtolerance="10.0"
     objecttolerance="10.0"
     borderopacity="1.0"
     bordercolor="#666666"
     pagecolor="#ffffff"
     id="base"
     showgrid="false"
     inkscape:zoom="0.79039201"
     inkscape:cx="297.53149"
     inkscape:cy="306.17719"
     inkscape:window-x="132"
     inkscape:window-y="70"
     inkscape:current-layer="svg2408" />
<!-- EMR_GDICOMMENT --><!-- EMR_SETMAPMODE --><!-- EMR_SETVIEWPORTEXTEX --><!-- EMR_SETWINDOWEXTEX --><!-- EMR_SETWINDOWEXTEX --><!-- EMR_SETWINDOWEXTEX --><!-- EMR_SETWINDOWEXTEX -->  <path
     style="fill:#131516;fill-rule:evenodd;fill-opacity:1;stroke:none;"
     d="  M 280.96158 612.163   L 279.20126 611.97164   L 277.40268 611.78027   L 275.6041 611.62719   L 273.84378 611.43583   L 272.0452 611.24446   L 270.28489 611.09138   L 268.4863 610.90002   L 266.72599 610.74693   L 264.92741 610.55557   L 263.16709 610.40248   L 261.40678 610.21112   L 259.60819 610.05803   L 257.84788 609.90494   L 256.08756 609.71358   L 254.32725 609.56049   L 248.8167 608.56541   L 243.34441 607.53207   L 237.98693 606.42217   L 232.66772 605.27401   L 227.42504 604.0493   L 222.2589 602.74805   L 219.6567 602.09742   L 217.09276 601.40852   L 214.52882 600.71962   L 212.00315 599.99245   L 209.43922 599.26528   L 206.91355 598.49984   L 204.38788 597.69612   L 201.90048 596.93068   L 199.37481 596.08869   L 196.8874 595.24671   L 194.36174 594.40472   L 191.87433 593.52446   L 189.38693 592.6442   L 186.89953 591.72567   L 184.41213 590.76887   L 181.92473 589.81206   L 179.39906 588.81699   L 176.91166 587.82191   L 174.42425 586.78856   L 171.93685 585.71694   L 167.84221 583.68852   L 164.62772 582.11936   L 161.94898 580.77984   L 159.53811 579.55513   L 157.08898 578.25387   L 154.29544 576.79953   L 150.88961 574.96247   L 146.52709 572.62787   L 142.85339 570.33154   L 139.21795 568.03521   L 135.62079 565.70061   L 132.10016 563.36601   L 128.6178 560.95486   L 125.21197 558.58199   L 121.80614 556.13257   L 118.47685 553.68315   L 115.14756 551.15719   L 111.8948 548.6695   L 108.64205 546.10527   L 105.42756 543.50276   L 102.25134 540.90026   L 99.113387 538.25948   L 96.013702 535.58043   L 92.914017 532.86311   L 89.01071 528.84453   L 85.949293 525.70622   L 83.461891 523.10371   L 81.318899 520.84565   L 79.214174 518.5876   L 76.956379 516.06163   L 74.201103 512.99986   L 70.757009 509.13438   L 68.422678 506.11088   L 66.126615 503.08738   L 63.907088 500.06388   L 61.68756 497.04038   L 59.544568 494.01688   L 57.439843 490.99338   L 55.373387 487.96988   L 53.383465 484.94638   L 51.393544 481.92288   L 49.480158 478.86111   L 47.566772 475.83761   L 45.729922 472.77584   L 43.969607 469.67579   L 42.209292 466.57575   L 40.487245 463.4757   L 38.841733 460.33739   L 37.693701 457.81143   L 36.583938 455.28546   L 35.435906 452.7595   L 34.326142 450.27181   L 33.216378 447.74585   L 32.106615 445.21989   L 30.996851 442.69393   L 29.887087 440.16797   L 29.00693 437.48892   L 28.126772 434.80987   L 27.246615 432.13082   L 26.404725 429.49004   L 25.601103 426.81099   L 24.797481 424.17021   L 23.993859 421.52943   L 23.228504 418.88865   L 22.46315 416.28615   L 21.774331 413.64537   L 21.047244 411.04286   L 20.396693 408.44036   L 19.707874 405.87612   L 19.095591 403.31189   L 18.483307 400.74765   L 17.909292 398.18342   L 17.411811 394.70066   L 16.952599 391.63888   L 16.569922 388.95983   L 16.225512 386.58696   L 15.91937 384.55854   L 15.651496 382.75975   L 15.460158 381.15231   L 15.268819 379.73625   L 15.115748 378.43499   L 14.962677 377.24856   L 14.847874 376.06212   L 14.733071 374.91395   L 14.58 373.72752   L 14.465197 372.42627   L 14.350394 371.0102   L 14.197323 369.44104   L 12.092599 316.08966   L 10.255748 269.3211   L 8.6485041 228.56126   L 7.2708662 193.27434   L 6.0462993 162.92453   L 5.0513387 136.93774   L 4.1711812 114.85471   L 3.4440945 96.06309   L 2.8318111 80.02706   L 2.3343307 66.249087   L 1.8751181 54.116816   L 1.492441 43.170982   L 1.1097638 32.837502   L 0.76535434 22.542295   L 0.38267717 11.787821   L 0 0   L 37.196221 0   L 74.392442 0   L 111.58866 0   L 148.74662 0   L 185.94284 0   L 223.13906 0   L 260.33528 0   L 297.5315 0   L 334.72772 0   L 371.92394 0   L 409.12016 0   L 446.27812 0   L 483.47434 0   L 520.67056 0   L 557.86678 0   L 595.063 0   L 594.14458 23.460826   L 593.22615 46.921653   L 592.30773 70.382479   L 591.35103 93.881577   L 590.43261 117.3424   L 589.51418 140.80323   L 588.59576 164.26406   L 587.67733 187.72488   L 586.75891 211.18571   L 585.84048 234.68481   L 584.92206 258.14563   L 583.96536 281.60646   L 583.04694 305.06729   L 582.12851 328.52811   L 581.21009 351.98894   L 580.29166 375.48804   L 579.90898 378.16709   L 579.52631 380.84614   L 579.14363 383.52519   L 578.76095 386.24251   L 578.41654 388.92156   L 578.03387 391.63888   L 577.65119 394.35621   L 577.26851 397.07353   L 576.35009 401.0921   L 575.39339 405.07241   L 574.39843 409.05271   L 573.32694 413.03301   L 572.17891 417.01332   L 571.03087 420.95535   L 569.80631 424.89738   L 568.50521 428.83941   L 567.2041 432.74317   L 565.7882 436.6852   L 564.37229 440.58896   L 562.87985 444.49272   L 561.31087 448.35821   L 559.70363 452.26196   L 558.05812 456.12745   L 556.33607 459.99294   L 555.03497 462.32754   L 553.73387 464.70041   L 552.43276 467.03501   L 551.13166 469.40789   L 549.83056 471.78076   L 548.52946 474.15363   L 547.22835 476.52651   L 545.92725 478.89938   L 544.43481 481.19571   L 542.9041 483.49204   L 541.37339 485.75009   L 539.84269 487.96988   L 538.27371 490.18966   L 536.70473 492.37117   L 535.13576 494.51442   L 533.52851 496.69593   L 531.92127 498.8009   L 530.27576 500.90586   L 528.63024 503.01083   L 526.94646 505.07753   L 525.26268 507.14422   L 523.57891 509.17265   L 521.85686 511.20107   L 520.13481 513.2295   L 518.3745 515.21965   L 516.61418 517.2098   L 514.8156 519.16168   L 513.01702 521.15183   L 511.18016 523.06544   L 509.34331 525.01732   L 507.50646 526.93092   L 505.63135 528.84453   L 503.71796 530.75814   L 501.80457 532.63347   L 499.89119 534.54708   L 497.93953 536.42242   L 493.99796 540.13481   L 489.94158 543.84721   L 487.33938 545.76082   L 484.77544 547.7127   L 482.17324 549.66458   L 479.6093 551.65473   L 477.04536 553.60661   L 474.48142 555.55849   L 471.91749 557.54864   L 469.35355 559.50052   L 465.22064 562.10303   L 461.08772 564.66726   L 456.91654 567.15495   L 452.74536 569.60437   L 448.53591 571.97724   L 444.36473 574.31184   L 440.11701 576.5699   L 435.90757 578.78968   L 431.65985 580.9712   L 427.37386 583.07616   L 423.08788 585.14286   L 418.76363 587.13301   L 414.40111 589.08489   L 410.03859 590.96023   L 405.6378 592.79729   L 401.19875 594.55781   L 397.37197 595.78252   L 393.5452 596.96895   L 389.7567 598.07885   L 385.92993 599.18874   L 382.14142 600.26036   L 378.35292 601.29371   L 374.56441 602.28878   L 370.77591 603.24559   L 366.98741 604.16412   L 363.1989 605.04438   L 359.4104 605.88636   L 355.62189 606.69008   L 351.83339 607.45552   L 348.08315 608.18269   L 344.29465 608.87159   L 340.50615 609.56049   L 336.87071 609.94321   L 333.23528 610.28766   L 329.59985 610.59384   L 325.96441 610.86174   L 322.32898 611.12965   L 318.69355 611.35928   L 315.09638 611.55064   L 311.46095 611.70373   L 307.86378 611.85682   L 304.26662 611.97164   L 300.66945 612.08645   L 297.07229 612.163   L 293.47512 612.23954   L 289.91622 612.27781   L 286.31906 612.31608   L 282.76016 612.35436  z "
     id="path2410" />
  <path
     style="fill:#ffffff;fill-rule:evenodd;fill-opacity:1;stroke:none;"
     d="  M 284.36741 598.6912   L 281.53559 598.46157   L 279.00993 598.27021   L 276.82867 598.11712   L 274.83874 597.96403   L 273.07843 597.81094   L 271.47119 597.69612   L 269.97874 597.58131   L 268.52457 597.42822   L 267.0704 597.27513   L 265.61622 597.16031   L 264.08552 596.96895   L 262.40174 596.81586   L 260.60315 596.6245   L 258.5367 596.39487   L 256.24063 596.12697   L 253.02615 595.55288   L 249.84992 594.94053   L 246.71197 594.32818   L 243.61229 593.71582   L 240.5126 593.06519   L 237.45118 592.3763   L 234.42803 591.6874   L 231.44315 590.9985   L 228.45827 590.27133   L 225.51166 589.50588   L 222.56504 588.74044   L 219.6567 587.93673   L 216.74835 587.09474   L 213.87827 586.25275   L 211.00819 585.41076   L 208.13811 584.49223   L 205.3063 583.5737   L 202.43622 582.6169   L 199.60441 581.66009   L 196.81087 580.62675   L 193.97906 579.5934   L 191.18551 578.56005   L 188.3537 577.45016   L 185.56016 576.34027   L 182.76662 575.1921   L 179.93481 574.00567   L 177.14126 572.78096   L 174.30945 571.55625   L 171.51591 570.25499   L 168.6841 568.95374   L 165.81402 567.61422   L 162.98221 566.23642   L 161.29843 565.31789   L 159.61465 564.39936   L 157.93087 563.44255   L 156.24709 562.52402   L 154.60158 561.60549   L 152.9178 560.68696   L 151.23402 559.76843   L 149.55024 558.84989   L 146.79496 557.12765   L 144.11622 555.36713   L 141.47575 553.60661   L 138.87355 551.84609   L 136.27134 550.08557   L 133.74567 548.28678   L 131.25827 546.52626   L 128.80914 544.6892   L 126.36 542.89041   L 123.9874 541.05335   L 121.6148 539.17801   L 119.28047 537.34095   L 116.98441 535.42734   L 114.68835 533.55201   L 112.43055 531.60013   L 110.21103 529.64825   L 107.9915 527.69637   L 105.81024 525.70622   L 103.66725 523.71606   L 101.52425 521.64937   L 99.381261 519.62094   L 97.276537 517.51598   L 95.171812 515.41101   L 93.067088 513.26777   L 91.000631 511.08625   L 88.934175 508.90474   L 86.867718 506.68496   L 84.839529 504.4269   L 82.773072 502.13057   L 80.744883 499.79597   L 78.716694 497.4231   L 76.688505 495.05023   L 75.463938 493.36625   L 74.239371 491.68228   L 73.014804 489.9983   L 71.790237 488.31433   L 70.603938 486.63035   L 69.379371 484.94638   L 68.154804 483.2624   L 66.930237 481.6167   L 64.787245 478.13394   L 62.682521 474.68944   L 60.654332 471.24495   L 58.702678 467.83873   L 56.82756 464.43251   L 54.990709 460.98801   L 53.230394 457.58179   L 51.508347 454.17557   L 49.824568 450.76935   L 48.217324 447.32486   L 46.610079 443.88036   L 45.079371 440.3976   L 43.548662 436.91483   L 42.056221 433.35552   L 40.602048 429.79621   L 39.186142 426.19863   L 38.535591 423.82576   L 37.923308 421.49116   L 37.311024 419.19483   L 36.698741 416.93677   L 36.086457 414.67872   L 35.474174 412.45893   L 34.900158 410.27742   L 34.326142 408.05763   L 33.752126 405.87612   L 33.216378 403.69461   L 32.68063 401.55137   L 32.144882 399.36986   L 31.647402 397.22662   L 31.149922 395.0451   L 30.690709 392.86359   L 30.231497 390.68208   L 29.925355 388.34748   L 29.619213 386.01288   L 29.351339 383.67828   L 29.045197 381.38195   L 28.777323 379.04735   L 28.509449 376.75102   L 28.241575 374.41642   L 27.973701 372.12009   L 27.093544 349.69261   L 26.175118 327.26513   L 25.294961 304.87593   L 24.376536 282.44845   L 23.458111 260.02097   L 22.577953 237.59349   L 21.659528 215.20428   L 20.77937 192.77681   L 19.899213 170.34933   L 18.980788 147.92185   L 18.10063 125.53264   L 17.220473 103.10516   L 16.302047 80.677686   L 15.42189 58.250208   L 14.541732 35.861002   L 13.661575 13.433524   L 49.135749 13.433524   L 84.609922 13.433524   L 120.0841 13.433524   L 155.52 13.433524   L 190.99418 13.433524   L 226.46835 13.433524   L 261.94252 13.433524   L 297.4167 13.433524   L 332.89087 13.433524   L 368.36504 13.433524   L 403.83922 13.433524   L 439.31339 13.433524   L 474.78757 13.433524   L 510.22347 13.433524   L 545.69765 13.433524   L 581.17182 13.433524   L 580.29166 35.669641   L 579.4115 57.905759   L 578.53135 80.103604   L 577.65119 102.33972   L 576.77103 124.57584   L 575.89087 146.81196   L 575.01072 169.04807   L 574.13056 191.24592   L 573.2504 213.48204   L 572.40851 235.71816   L 571.52835 257.95427   L 570.6482 280.19039   L 569.76804 302.38824   L 568.92615 324.62435   L 568.04599 346.86047   L 567.2041 369.09659   L 566.93623 371.85218   L 566.63009 374.60778   L 566.32395 377.3251   L 565.97954 380.00415   L 565.59686 382.72147   L 565.21418 385.36225   L 564.79324 388.0413   L 564.37229 390.68208   L 563.87481 393.28459   L 563.37733 395.92536   L 562.84158 398.52787   L 562.30583 401.0921   L 561.69355 403.69461   L 561.08127 406.25884   L 560.43072 408.82308   L 559.78017 411.38731   L 559.05308 413.95155   L 558.32599 416.51578   L 557.56064 419.04174   L 556.79528 421.60597   L 555.95339 424.13194   L 555.1115 426.69617   L 554.23135 429.22213   L 553.31292 431.74809   L 552.35623 434.31233   L 551.36127 436.87656   L 550.36631 439.40252   L 549.33308 441.96676   L 548.22332 444.53099   L 547.11355 447.09522   L 545.96552 449.69773   L 544.81749 452.26196   L 543.17198 455.32374   L 541.4882 458.34724   L 539.84269 461.33246   L 538.15891 464.27942   L 536.43686 467.1881   L 534.71481 470.09679   L 532.91623 472.92892   L 531.15591 475.79934   L 529.31906 478.63147   L 527.48221 481.46361   L 525.56883 484.25748   L 523.65544 487.08962   L 521.66552 489.88349   L 519.63733 492.71562   L 517.57087 495.54776   L 515.46615 498.3799   L 513.05528 501.21204   L 510.64442 503.96764   L 508.19528 506.68496   L 505.70788 509.36401   L 503.22048 512.00479   L 500.73308 514.60729   L 498.16914 517.13325   L 495.64347 519.65922   L 493.04127 522.10863   L 490.47733 524.55805   L 487.83686 526.93092   L 485.19639 529.3038   L 482.51764 531.60013   L 479.8389 533.85818   L 477.1219 536.11624   L 474.36662 538.29775   L 471.57308 540.47926   L 468.77953 542.6225   L 465.94772 544.72747   L 463.11591 546.79417   L 460.20757 548.82259   L 457.29922 550.81274   L 454.35261 552.8029   L 451.36772 554.7165   L 448.38284 556.63011   L 445.32142 558.54372   L 442.26001 560.38078   L 439.16032 562.21784   L 435.9841 564.01663   L 432.84615 565.77715   L 429.63166 567.53767   L 426.3789 569.25992   L 422.82001 570.86735   L 419.22284 572.43651   L 415.66394 573.92912   L 412.10505 575.42173   L 408.50788 576.87608   L 404.94898 578.29215   L 401.35182 579.66994   L 397.79292 581.00947   L 394.19575 582.31072   L 390.59859 583.5737   L 387.00142 584.79841   L 383.40426 585.94658   L 379.80709 587.09474   L 376.20993 588.16636   L 372.57449 589.19971   L 368.93906 590.19478   L 365.5715 590.92195   L 362.16567 591.61085   L 358.79812 592.29975   L 355.43056 592.91211   L 352.10126 593.52446   L 348.73371 594.06027   L 345.40441 594.59608   L 342.07512 595.13189   L 338.74583 595.59116   L 335.45481 596.05042   L 332.12552 596.47142   L 328.79623 596.89241   L 325.5052 597.27513   L 322.17591 597.65785   L 318.88489 598.0023   L 315.5556 598.34675   L 313.79528 598.38502   L 312.03497 598.4233   L 310.27465 598.4233   L 308.51434 598.46157   L 306.75402 598.49984   L 305.03197 598.53811   L 303.27166 598.57638   L 301.51134 598.61466   L 299.7893 598.65293   L 298.02898 598.6912   L 296.26867 598.72947   L 294.54662 598.76774   L 292.7863 598.80602   L 291.06426 598.84429   L 289.30394 598.88256   L 287.58189 598.92083  z "
     id="path2412" />
  <path
     style="fill:#131516;fill-rule:evenodd;fill-opacity:1;stroke:none;"
     d="  M 475.20851 462.5189   L 455.00316 450.38663   L 434.7978 438.25436   L 414.59245 426.16036   L 394.38709 414.02809   L 374.18174 401.89582   L 353.93812 389.80182   L 333.73276 377.66955   L 313.52741 365.53728   L 293.32205 353.44328   L 273.1167 341.31101   L 252.91134 329.21701   L 232.66772 317.08474   L 212.46237 304.99074   L 192.25701 292.85847   L 172.05166 280.76447   L 171.89859 280.80274   L 171.70725 280.84102   L 171.55418 280.91756   L 171.36284 280.99411   L 165.69922 291.51895   L 159.99733 302.04379   L 154.29544 312.53035   L 148.63181 323.0552   L 142.92992 333.61831   L 137.2663 344.14315   L 131.56441 354.66799   L 125.86252 365.19283   L 120.1989 375.71767   L 114.49701 386.24251   L 108.79512 396.80562   L 103.1315 407.33046   L 97.429608 417.8553   L 91.727718 428.38014   L 86.064096 438.94326   L 80.362206 449.4681   L 80.323938 426.12209   L 80.28567 402.73781   L 80.247403 379.3918   L 80.209135 356.00751   L 80.170867 332.6615   L 80.1326 309.31549   L 80.094332 285.93121   L 80.017796 262.5852   L 79.979529 239.23919   L 79.941261 215.89318   L 79.902993 192.5089   L 79.864726 169.16289   L 79.826458 145.81688   L 79.78819 122.47087   L 79.749922 99.124861   L 79.711655 75.778852   L 84.227245 78.496174   L 95.018742 85.040711   L 111.20599 94.914925   L 131.87055 107.54473   L 156.09402 122.35605   L 183.03449 138.81308   L 211.73528 156.34172   L 241.27796 174.44445   L 270.82063 192.5089   L 299.44489 209.99927   L 326.19402 226.37975   L 350.22615 241.03798   L 370.62284 253.5147   L 386.50394 263.15928   L 396.91276 269.51246   L 400.96914 271.92361   L 406.90064 260.44196   L 412.83213 248.96032   L 418.76363 237.47867   L 424.73339 225.99703   L 430.66489 214.51539   L 436.59638 203.03374   L 442.56615 191.5521   L 448.49764 180.07045   L 454.42914 168.58881   L 460.3989 157.10716   L 466.3304 145.62552   L 472.30016 134.14388   L 478.23166 122.66223   L 484.20142 111.18059   L 490.13292 99.698944   L 496.10268 88.2173   L 496.14095 106.12866   L 496.17922 127.17835   L 496.17922 150.94535   L 496.17922 176.89386   L 496.14095 204.48808   L 496.10268 233.26874   L 496.06442 262.70002   L 496.02615 292.32266   L 495.98788 321.56258   L 495.91135 349.99879   L 495.83481 377.0572   L 495.75827 402.27854   L 495.68174 425.16528   L 495.6052 445.18162   L 495.52867 461.86827   L 495.45213 474.65117  z "
     id="path2414" />
  <path
     style="fill:#da251d;fill-rule:evenodd;fill-opacity:1;stroke:none;"
     d="  M 432.50174 429.06904   L 383.25119 399.52295   L 340.62095 373.91888   L 304.03701 351.98894   L 273.04016 333.42695   L 247.20945 317.92673   L 226.0474 305.25865   L 209.13307 295.11653   L 195.89244 287.19419   L 185.94284 281.26201   L 178.82504 277.0138   L 174.00331 274.18166   L 171.0567 272.45942   L 169.48772 271.57916   L 169.10504 271.3878   L 168.87544 271.27298   L 168.76063 271.23471   L 168.6841 271.23471   L 163.59449 280.64966   L 158.54315 290.0646   L 153.45355 299.47955   L 148.36394 308.85623   L 143.3126 318.27118   L 138.22299 327.68613   L 133.13339 337.10107   L 128.04378 346.47775   L 122.99244 355.8927   L 117.90284 365.30765   L 112.81323 374.72259   L 107.72362 384.13754   L 102.67228 393.55249   L 97.582679 402.96744   L 92.493072 412.38239   L 87.441734 421.83561   L 87.32693 403.4267   L 87.288663 386.96968   L 87.212127 372.00527   L 87.17386 357.99767   L 87.135592 344.44933   L 87.097324 330.93926   L 87.059056 316.93165   L 87.059056 301.96724   L 87.020789 285.51022   L 87.020789 267.10132   L 87.020789 246.243   L 87.020789 222.43772   L 87.020789 195.2645   L 87.059056 164.14924   L 87.059056 128.63269   L 87.097324 88.2173   L 106.88173 100.3113   L 126.66614 112.4053   L 146.45055 124.4993   L 166.27323 136.59329   L 186.05764 148.68729   L 205.84205 160.78129   L 225.62646 172.91356   L 245.41087 185.00756   L 265.23355 197.10156   L 285.01796 209.23383   L 304.80237 221.32783   L 324.58678 233.4601   L 344.37119 245.5541   L 364.19386 257.6481   L 383.97827 269.78037   L 403.76268 281.87436   L 409.0819 271.54089   L 414.43938 261.20741   L 419.75859 250.83565   L 425.0778 240.50217   L 430.43528 230.13042   L 435.75449 219.79694   L 441.07371 209.46346   L 446.43119 199.12998   L 451.7504 188.75823   L 457.10788 178.42475   L 462.42709 168.09127   L 467.78457 157.75779   L 473.14205 147.42431   L 478.46127 137.09083   L 483.81875 126.75735   L 489.17623 116.42387   L 489.13796 138.08591   L 489.09969 159.70967   L 489.06142 181.33343   L 489.02316 202.99547   L 488.98489 224.61923   L 488.94662 246.28127   L 488.94662 267.90503   L 488.90835 289.56707   L 488.87009 311.2291   L 488.87009 332.85286   L 488.83182 354.5149   L 488.79355 376.17694   L 488.79355 397.8007   L 488.75528 419.46273   L 488.75528 441.12477   L 488.71701 462.78681  z "
     id="path2416" />
<!-- EMR_SELECTPALETTE --><!-- EMR_EXTSELECTCLIPRGN --></svg>
