<?xml version="1.0" encoding="UTF-8" standalone="no"?>
<svg
   xmlns:dc="http://purl.org/dc/elements/1.1/"
   xmlns:cc="http://creativecommons.org/ns#"
   xmlns:rdf="http://www.w3.org/1999/02/22-rdf-syntax-ns#"
   xmlns:svg="http://www.w3.org/2000/svg"
   xmlns="http://www.w3.org/2000/svg"
   xmlns:xlink="http://www.w3.org/1999/xlink"
   xmlns:sodipodi="http://sodipodi.sourceforge.net/DTD/sodipodi-0.dtd"
   xmlns:inkscape="http://www.inkscape.org/namespaces/inkscape"
   viewBox="0 0 707.78 772.55"
   version="1.1"
   id="svg1165"
   sodipodi:docname="Wappen_Emmerting.svg"
   inkscape:version="0.92.5 (2060ec1f9f, 2020-04-08)">
  <metadata
     id="metadata1169">
    <rdf:RDF>
      <cc:Work
         rdf:about="">
        <dc:format>image/svg+xml</dc:format>
        <dc:type
           rdf:resource="http://purl.org/dc/dcmitype/StillImage" />
        <dc:title></dc:title>
      </cc:Work>
    </rdf:RDF>
  </metadata>
  <sodipodi:namedview
     pagecolor="#ffffff"
     bordercolor="#666666"
     borderopacity="1"
     objecttolerance="10"
     gridtolerance="10"
     guidetolerance="10"
     inkscape:pageopacity="0"
     inkscape:pageshadow="2"
     inkscape:window-width="1920"
     inkscape:window-height="1046"
     id="namedview1167"
     showgrid="false"
     inkscape:zoom="1.0264961"
     inkscape:cx="380.68066"
     inkscape:cy="152.46946"
     inkscape:window-x="-11"
     inkscape:window-y="-11"
     inkscape:window-maximized="1"
     inkscape:current-layer="svg1165" />
  <defs
     id="defs995">
    <path
       id="0"
       d="m-498.41 761.85c0 0 2.967-.391 4.437-.211 2.189.268 4.293 1.076 6.338 1.902 2.424.978 4.482 2.797 6.972 3.592 3.321 1.059 6.869 1.356 10.353 1.479 2.964.105 6.02.173 8.874-.634 1.91-.54 5.282-2.747 5.282-2.747"
       stroke="#000"
       fill="none" />
    <path
       id="1"
       d="m-498.41 774.34c0 0 2.967-.391 4.437-.211 2.189.268 4.293 1.076 6.338 1.902 2.424.978 4.482 2.797 6.972 3.592 3.321 1.059 6.869 1.356 10.353 1.479 2.964.105 6.02.173 8.874-.634 1.91-.54 5.282-2.747 5.282-2.747"
       stroke="#000"
       fill="none" />
  </defs>
  <path
     d="m 10.819,8.98 685.21,2.679 -13.396,255.87 -10.05,170.8 -18.08,111.19 -30.14,72.34 -46.22,57.6 -77.03,52.24 -83.73,27.462 -81.72,4.02 -79.04,-16.745 -61.62,-24.783 -59.61,-40.19 -45.547,-51.575 -30.14,-79.04 -21.434,-101.14 -6.698,-115.21 -12.06,-212.33 z"
     id="path997"
     inkscape:connector-curvature="0"
     style="fill:#ffffff;stroke:#000000" />
  <path
     d="m 10.835,8.97 8.688,113.22 12.06,212.31 6.688,115.22 21.438,101.12 30.16,79.03 45.531,51.594 59.62,40.19 61.62,24.781 79.03,16.75 17.719,-0.875 V 204.03 h 332.56 L 696.009,11.66 10.819,8.972 Z"
     id="path999"
     inkscape:connector-curvature="0"
     style="fill:#0f47af;stroke:#000000;fill-opacity:1" />
  <g
     id="g1019"
     style="stroke:#000000;stroke-width:5"
     transform="translate(-16.04,-84.34)">
    <path
       d="m 246.9,529.47 96.21,9.561 -44.22,54.38 -26.891,-23.306 z"
       id="path1001"
       inkscape:connector-curvature="0"
       style="fill:#e6e6e6;stroke-linejoin:round" />
    <g
       id="g1007"
       style="fill:#ffffff">
      <path
         d="m 271.88,524.09 -20.19,235.45 83.66,1.195 -26.541,-236.05 z"
         id="path1003"
         inkscape:connector-curvature="0" />
      <path
         d="m 246.9,529.47 96.21,9.561 15.168,-23.955 -112.4,-11.198 1.021,25.591 z"
         id="path1005"
         inkscape:connector-curvature="0" />
    </g>
    <path
       d="m 180.51,529.47 -96.21,9.561 44.22,54.38 26.891,-23.306 z"
       id="path1009"
       inkscape:connector-curvature="0"
       style="fill:#e6e6e6;stroke-linejoin:round" />
    <g
       id="g1017"
       style="fill:#ffffff">
      <path
         d="m 155.53,524.09 -36.906,0.594 -19.75,175.62 6.906,10.813 26,37.969 13.375,10.875 30.563,-0.438 -20.19,-235.44 z"
         id="path1011"
         inkscape:connector-curvature="0" />
      <path
         d="m 180.51,529.47 -96.21,9.561 -15.168,-23.955 112.4,-11.198 -1.021,25.591 z"
         id="path1013"
         inkscape:connector-curvature="0" />
      <path
         d="m 242.47,426.69 c -76.61,0 -145.57,8.03 -193.88,20.811 l 3.064,34.857 1.219,37.576 1.563,17.15 c 48.21,-12.497 116.4,-20.293 192.03,-20.293 44.45,0 86.31,2.684 123.07,7.444 v -89.59 c -37.719,-5.083 -81.01,-7.962 -127.07,-7.962 z"
         id="path1015"
         inkscape:connector-curvature="0"
         style="stroke-linecap:round;stroke-linejoin:round" />
    </g>
  </g>
  <path
     d="m 223.96,358.19 c -75.19,0 -143.04,7.427 -191.19,19.375 l 0.375,6.844 0.844,9.844 h 319.41 v -28.03 c -38.27,-5.109 -82.39,-8.03 -129.44,-8.03 z"
     id="path1021"
     inkscape:connector-curvature="0"
     style="fill:#ffffff;stroke:#000000;stroke-width:3;stroke-linecap:round;stroke-linejoin:round" />
  <path
     style="fill:#ffffff"
     d="m 40.925,389.67 h 310.08 v 7.828 H 40.925 Z"
     id="path1025"
     inkscape:connector-curvature="0" />
  <path
     d="m 223.96,407.38 c -73.72,0 -140.39,7.148 -188.34,18.688 l 0.125,1.719 h 317.66 v -12.375 c -38.27,-5.109 -82.39,-8.03 -129.44,-8.03 z"
     id="path1027"
     inkscape:connector-curvature="0"
     style="fill:#ffffff;stroke:#000000;stroke-width:3;stroke-linecap:round;stroke-linejoin:round" />
  <path
     style="fill:#ffffff"
     d="m 223.96,409 c -73.72,0 -140.39,7.148 -188.34,18.687 l 0.125,1.719 h 317.66 v -12.375 c -38.27,-5.109 -82.39,-8.03 -129.44,-8.03"
     id="path1029"
     inkscape:connector-curvature="0" />
  <path
     d="m 306.27,660.1 c -0.482,0 -0.959,0 -1.438,0.031 -0.029,0.002 -0.065,-0.002 -0.094,0 -0.207,0 -0.387,0.018 -0.594,0.031 -0.17,0.011 -0.362,0.018 -0.531,0.031 -0.221,0.018 -0.436,0.04 -0.656,0.063 -0.271,0.027 -0.542,0.061 -0.813,0.094 -0.265,0.033 -0.517,0.087 -0.781,0.125 -0.366,0.053 -0.73,0.094 -1.094,0.156 -0.465,0.08 -0.944,0.155 -1.406,0.25 -0.216,0.044 -0.409,0.109 -0.625,0.156 -0.289,0.063 -0.587,0.119 -0.875,0.188 -0.055,0.013 -0.133,0.018 -0.188,0.031 -0.327,0.078 -0.643,0.166 -0.969,0.25 -0.119,0.031 -0.224,0.062 -0.344,0.094 -0.2,0.053 -0.425,0.101 -0.625,0.156 -0.326,0.09 -0.644,0.187 -0.969,0.281 -0.072,0.021 -0.147,0.041 -0.219,0.063 -0.371,0.109 -0.724,0.23 -1.094,0.344 -1.443,0.444 -2.879,0.916 -4.313,1.406 -0.564,0.193 -1.124,0.399 -1.688,0.594 -0.788,0.272 -1.586,0.545 -2.375,0.813 -0.566,0.192 -1.121,0.377 -1.688,0.563 l -0.063,-0.094 c -3.121,1.035 -6.259,1.991 -9.469,2.563 -0.022,0.003 -0.041,-0.005 -0.063,0 -0.007,0.003 -0.023,-0.003 -0.031,0 -0.227,0.037 -0.46,0.092 -0.688,0.125 -0.167,0.024 -0.333,0.04 -0.5,0.063 -1.472,0.194 -2.959,0.313 -4.469,0.313 -1.069,0 -2.106,-0.056 -3.156,-0.156 -0.163,-0.016 -0.337,-0.045 -0.5,-0.063 -1.461,-0.179 -2.908,-0.437 -4.344,-0.781 l -0.031,0.063 c -0.434,-0.094 -0.876,-0.176 -1.313,-0.281 -0.158,-0.038 -0.313,-0.086 -0.469,-0.125 -0.062,-0.016 -0.094,-0.047 -0.156,-0.063 -0.156,-0.04 -0.313,-0.083 -0.469,-0.125 -0.429,-0.114 -0.854,-0.222 -1.281,-0.344 -0.439,-0.125 -0.875,-0.273 -1.313,-0.406 -0.367,-0.112 -0.757,-0.228 -1.125,-0.344 -0.009,-0.003 -0.022,0.003 -0.031,0 -0.072,-0.023 -0.147,-0.039 -0.219,-0.063 -0.024,-0.008 -0.039,-0.023 -0.063,-0.031 -0.053,-0.017 -0.103,-0.045 -0.156,-0.063 -0.474,-0.152 -0.962,-0.281 -1.438,-0.438 -0.148,-0.05 -0.29,-0.107 -0.438,-0.156 -2.301,-0.773 -4.583,-1.462 -6.875,-2.156 -0.625,-0.189 -1.245,-0.371 -1.875,-0.563 -1.894,-0.587 -3.82,-1.094 -5.75,-1.5 -0.03,-0.006 -0.033,-0.025 -0.063,-0.031 -0.27,-0.057 -0.541,-0.104 -0.813,-0.156 -0.445,-0.085 -0.896,-0.148 -1.344,-0.219 -0.018,-0.002 -0.045,-0.029 -0.063,-0.031 -0.319,-0.05 -0.648,-0.083 -0.969,-0.125 -0.018,-0.002 -0.045,0.002 -0.063,0 -0.017,-0.002 -0.014,0.002 -0.031,0 -0.538,-0.069 -1.114,-0.143 -1.656,-0.188 -0.173,-0.014 -0.326,-0.019 -0.5,-0.031 -0.367,-0.025 -0.756,-0.05 -1.125,-0.063 -0.369,-0.013 -0.723,-0.031 -1.094,-0.031 -0.671,0 -1.337,0.021 -2,0.063 -0.116,0.007 -0.228,0.023 -0.344,0.031 -0.341,0.025 -0.661,0.059 -1,0.094 -0.051,0.005 -0.105,-0.006 -0.156,0 -0.15,0.016 -0.319,0.045 -0.469,0.063 -0.308,0.036 -0.6,0.05 -0.906,0.094 -0.018,0.002 -0.044,0.029 -0.063,0.031 -0.292,0.042 -0.584,0.077 -0.875,0.125 -0.169,0.028 -0.332,0.063 -0.5,0.094 -0.45,0.081 -0.896,0.187 -1.344,0.281 -0.075,0.016 -0.175,0.015 -0.25,0.031 -0.069,0.015 -0.119,0.016 -0.188,0.031 -0.513,0.113 -1.021,0.247 -1.531,0.375 -0.306,0.077 -0.601,0.168 -0.906,0.25 -0.358,0.096 -0.737,0.18 -1.094,0.281 -0.075,0.021 -0.144,0.041 -0.219,0.063 -1.21,0.349 -2.392,0.729 -3.594,1.125 -2.672,0.87 -5.301,1.739 -7.969,2.625 v -0.031 c -1.951,0.647 -3.924,1.244 -5.906,1.75 -1.189,0.304 -2.39,0.598 -3.594,0.813 -0.022,0.003 -0.041,-0.005 -0.063,0 -0.022,0.004 -0.041,0.028 -0.063,0.031 -0.382,0.067 -0.772,0.1 -1.156,0.156 -0.007,0 -0.024,0 -0.031,0 -0.244,0.035 -0.474,0.063 -0.719,0.094 -0.023,0.002 -0.07,0.029 -0.094,0.031 -0.011,0.002 -0.02,-0.002 -0.031,0 -0.041,0.005 -0.084,-0.004 -0.125,0 -0.029,0.002 -0.034,0.029 -0.063,0.031 -0.305,0.031 -0.631,0.039 -0.938,0.063 -0.2,0.015 -0.393,0.051 -0.594,0.063 -0.15,0.008 -0.318,0.025 -0.469,0.031 -0.053,0.002 -0.103,0 -0.156,0 -0.133,0.005 -0.242,-0.005 -0.375,0 h -0.25 c -0.209,0.005 -0.384,0 -0.594,0 -0.342,0 -0.692,0.012 -1.031,0 -2.377,-0.086 -4.702,-0.449 -7,-1 -2.852,-0.626 -5.801,-1.217 -8.594,-2.156 -0.926,-0.31 -1.857,-0.65 -2.781,-0.969 -0.148,-0.051 -0.32,-0.105 -0.469,-0.156 -1.201,-0.415 -2.389,-0.819 -3.594,-1.219 -0.375,-0.125 -0.749,-0.254 -1.125,-0.375 -0.791,-0.255 -1.58,-0.485 -2.375,-0.719 -0.253,-0.074 -0.496,-0.147 -0.75,-0.219 -0.261,-0.074 -0.52,-0.148 -0.781,-0.219 -0.205,-0.055 -0.419,-0.134 -0.625,-0.188 -0.468,-0.121 -0.935,-0.235 -1.406,-0.344 -0.47,-0.109 -0.933,-0.217 -1.406,-0.313 -0.377,-0.076 -0.778,-0.122 -1.156,-0.188 -0.097,-0.017 -0.184,-0.046 -0.281,-0.063 -0.401,-0.067 -0.815,-0.133 -1.219,-0.188 -0.076,0 -0.143,-0.021 -0.219,-0.031 -0.036,-0.005 -0.058,0.005 -0.094,0 -0.311,-0.039 -0.625,-0.093 -0.938,-0.125 -0.275,-0.028 -0.568,-0.041 -0.844,-0.063 -0.347,-0.027 -0.682,-0.047 -1.031,-0.063 -0.485,-0.022 -0.979,-0.031 -1.469,-0.031 -0.482,0 -0.959,0 -1.438,0.031 -0.029,0.002 -0.065,-0.002 -0.094,0 -0.207,0 -0.387,0.018 -0.594,0.031 -0.17,0.011 -0.362,0.049 -0.531,0.063 -0.221,0.018 -0.436,0.009 -0.656,0.031 -0.271,0.027 -0.542,0.092 -0.813,0.125 -0.265,0.033 -0.517,0.056 -0.781,0.094 -0.366,0.053 -0.73,0.094 -1.094,0.156 -0.465,0.08 -0.944,0.187 -1.406,0.281 -0.216,0.044 -0.44,0.078 -0.656,0.125 -0.289,0.063 -0.556,0.119 -0.844,0.188 -0.054,0.013 -0.133,0.049 -0.188,0.063 -0.327,0.078 -0.643,0.166 -0.969,0.25 -0.119,0.031 -0.224,0.031 -0.344,0.063 -0.2,0.053 -0.425,0.132 -0.625,0.188 -0.326,0.09 -0.644,0.187 -0.969,0.281 -0.072,0.021 -0.147,0 -0.219,0.031 -0.371,0.109 -0.724,0.23 -1.094,0.344 -1.443,0.444 -2.879,0.947 -4.313,1.438 -0.564,0.193 -1.155,0.368 -1.719,0.563 -0.788,0.272 -1.555,0.545 -2.344,0.813 -0.566,0.192 -1.152,0.377 -1.719,0.563 l -0.031,-0.094 c -3.121,1.035 -6.259,1.991 -9.469,2.563 l 18.906,17.406 5.813,4.531 c 0.745,-0.165 1.494,-0.28 2.25,-0.406 l 11.219,9.906 69.906,40.34 51.41,15.219 43.03,6.281 32.688,1.188 v -79.09 -11.719 -4.469 c -0.734,0.166 -1.48,0.306 -2.219,0.438 -0.022,0.003 -0.041,0.026 -0.063,0.031 -0.022,0.004 -0.041,-0.004 -0.063,0 -0.382,0.067 -0.772,0.132 -1.156,0.188 -0.007,0 -0.024,0 -0.031,0 -0.244,0.035 -0.474,0.063 -0.719,0.094 -0.023,0.002 -0.07,0.029 -0.094,0.031 -0.011,0.002 -0.02,-0.002 -0.031,0 -0.041,0.005 -0.084,-0.004 -0.125,0 -0.029,0.002 -0.034,-0.003 -0.063,0 -0.305,0.031 -0.631,0.07 -0.938,0.094 -0.2,0.015 -0.393,0.019 -0.594,0.031 -0.15,0.008 -0.287,0.025 -0.438,0.031 -0.053,0.002 -0.103,0.031 -0.156,0.031 -0.133,0.005 -0.273,-0.005 -0.406,0 h -0.219 c -0.209,0.005 -0.415,0 -0.625,0 -0.342,0 -0.692,0.012 -1.031,0 -2.377,-0.086 -4.702,-0.48 -7,-1.031 -1.426,-0.313 -2.868,-0.593 -4.313,-0.938 -1.444,-0.344 -2.885,-0.749 -4.281,-1.219 -0.78,-0.261 -1.563,-0.511 -2.344,-0.781 -0.148,-0.051 -0.289,-0.105 -0.438,-0.156 -0.146,-0.05 -0.291,-0.106 -0.438,-0.156 -1.055,-0.364 -2.132,-0.71 -3.188,-1.063 -0.147,-0.049 -0.291,-0.107 -0.438,-0.156 -0.228,-0.076 -0.46,-0.143 -0.688,-0.219 -0.147,-0.048 -0.29,-0.109 -0.438,-0.156 -0.791,-0.255 -1.549,-0.516 -2.344,-0.75 -0.253,-0.074 -0.528,-0.147 -0.781,-0.219 -0.261,-0.074 -0.52,-0.148 -0.781,-0.219 -0.205,-0.055 -0.419,-0.103 -0.625,-0.156 -0.468,-0.121 -0.935,-0.235 -1.406,-0.344 -0.471,-0.109 -0.933,-0.217 -1.406,-0.313 -0.377,-0.076 -0.746,-0.122 -1.125,-0.188 -0.097,-0.017 -0.215,-0.046 -0.313,-0.063 -0.401,-0.067 -0.815,-0.133 -1.219,-0.188 -0.076,0 -0.143,-0.021 -0.219,-0.031 -0.036,-0.005 -0.058,0.005 -0.094,0 -0.311,-0.039 -0.625,-0.093 -0.938,-0.125 -0.275,-0.028 -0.568,-0.041 -0.844,-0.063 -0.347,-0.027 -0.682,-0.047 -1.031,-0.063 -0.485,-0.022 -0.979,-0.031 -1.469,-0.031 z"
     id="path1031"
     inkscape:connector-curvature="0"
     style="fill:#ffffff;stroke:#000000;stroke-width:3.57500005" />
  <path
     d="m 10.835,8.97 8.688,113.22 6.688,117.97 h 657.87 L 696.019,11.66 10.829,8.972 Z"
     id="path1035"
     inkscape:connector-curvature="0"
     style="fill:#da121a;stroke:#000000;fill-opacity:1" />
  <path
     d="M 240.18,14.18 H 466.67 V 240.67 H 240.18 Z"
     id="path1037"
     inkscape:connector-curvature="0"
     style="fill:#ffffff;stroke:#000000;stroke-width:5;stroke-linecap:round" />
  <g
     id="g1049"
     style="fill:none;stroke:#000000"
     transform="translate(-16.04,-84.34)">
    <g
       id="g1045"
       style="stroke-width:20">
      <path
         d="m 372.12,846.88 c -20.737,-0.002 -41.474,-1.812 -61.899,-5.401 -26.24,-4.611 -51.999,-12.178 -76.32,-23.05 -22.989,-10.275 -44.635,-23.471 -64.64,-38.763 -17.481,-13.363 -33.795,-28.403 -47.36,-45.732 -18.84,-24.07 -32.03,-52.13 -42.27,-80.932 -8.456,-23.779 -15.01,-48.24 -19.487,-73.08 -8.01,-44.41 -9.374,-89.7 -11.367,-134.78 -1.317,-29.787 -2.918,-59.56 -4.872,-89.31 -2.63,-40.06 -5.899,-80.08 -8.119,-120.17 -1.649,-29.771 -2.719,-59.58 -4.872,-89.31 -1.256,-17.353 -2.88,-34.68 -4.872,-51.965 57.38,0 114.76,0 172.13,0 56.3,0 112.59,0 168.89,0"
         id="path1039"
         inkscape:connector-curvature="0" />
      <path
         d="m 368.27,846.85 c 20.484,0.282 40.994,-1.366 61.17,-4.915 26.352,-4.636 52.14,-12.525 76.52,-23.543 22.944,-10.369 44.621,-23.494 64.64,-38.763 17.496,-13.345 33.8,-28.399 47.36,-45.732 18.831,-24.08 32.03,-52.13 42.27,-80.932 8.458,-23.778 15.01,-48.24 19.487,-73.08 8.01,-44.41 9.374,-89.7 11.367,-134.78 1.317,-29.787 2.918,-59.56 4.872,-89.31 2.63,-40.06 5.899,-80.08 8.119,-120.17 1.649,-29.771 2.719,-59.58 4.872,-89.31 1.256,-17.353 2.88,-34.68 4.872,-51.965 -57.38,0 -114.76,0 -172.13,0 -56.3,0 -112.59,0 -168.89,0"
         id="path1041"
         inkscape:connector-curvature="0" />
      <path
         d="m 363.67,94.36 h 13.789"
         id="path1043"
         inkscape:connector-curvature="0" />
    </g>
    <path
       d="M 694.04,325.01 H 42.01"
       id="path1047"
       inkscape:connector-curvature="0"
       style="stroke-width:5" />
  </g>
  <g
     transform="translate(720.4,-81.677)"
     id="g1083"
     style="stroke:#000000;stroke-width:3;stroke-linecap:round">
    <use
       xlink:href="#0"
       id="use1051"
       x="0"
       y="0"
       width="100%"
       height="100%" />
    <g
       id="g1081">
      <path
         d="m -498.41,774.34 c 0,0 2.967,-0.391 4.437,-0.211 2.189,0.268 4.293,1.076 6.338,1.902 2.424,0.978 4.482,2.797 6.972,3.592 3.321,1.059 6.869,1.356 10.353,1.479 2.964,0.105 6.02,0.173 8.874,-0.634 1.91,-0.54 5.282,-2.747 5.282,-2.747"
         id="path1053"
         inkscape:connector-curvature="0"
         style="fill:none" />
      <g
         transform="translate(77.971,-1.996)"
         id="g1059">
        <use
           xlink:href="#0"
           id="use1055"
           x="0"
           y="0"
           width="100%"
           height="100%" />
        <use
           xlink:href="#1"
           id="use1057"
           x="0"
           y="0"
           width="100%"
           height="100%" />
      </g>
      <g
         transform="translate(77.971,25.26)"
         id="g1065">
        <use
           xlink:href="#0"
           id="use1061"
           x="0"
           y="0"
           width="100%"
           height="100%" />
        <use
           xlink:href="#1"
           id="use1063"
           x="0"
           y="0"
           width="100%"
           height="100%" />
      </g>
      <g
         transform="translate(0,25.47)"
         id="g1071">
        <use
           xlink:href="#0"
           id="use1067"
           x="0"
           y="0"
           width="100%"
           height="100%" />
        <use
           xlink:href="#1"
           id="use1069"
           x="0"
           y="0"
           width="100%"
           height="100%" />
      </g>
      <path
         d="m -420.44,814.48 c 0,0 2.967,-0.391 4.437,-0.211 2.189,0.268 4.293,1.076 6.338,1.902 2.424,0.978 4.482,2.797 6.972,3.592 3.321,1.059 6.869,1.356 10.353,1.479 2.964,0.105 6.02,0.173 8.874,-0.634 1.91,-0.54 5.282,-2.747 5.282,-2.747"
         id="path1073"
         inkscape:connector-curvature="0"
         style="fill:none" />
      <g
         transform="translate(-69.71,-6.244)"
         id="g1079">
        <use
           xlink:href="#0"
           id="use1075"
           x="0"
           y="0"
           width="100%"
           height="100%" />
        <use
           xlink:href="#1"
           id="use1077"
           x="0"
           y="0"
           width="100%"
           height="100%" />
      </g>
    </g>
  </g>
  <path
     d="M 353.89,239.87 V 754.21"
     id="path1085"
     inkscape:connector-curvature="0"
     style="fill:none;stroke:#000000;stroke-width:5;stroke-linecap:butt" />
  <g
     id="g1111"
     style="fill:#ffffff;stroke:#000000;stroke-width:3;stroke-linecap:round"
     transform="translate(-16.04,-84.34)">
    <path
       d="m 175.06,445.74 v 47.45"
       id="path1087"
       inkscape:connector-curvature="0" />
    <path
       d="m 199.8,444.72 v 46.829"
       id="path1089"
       inkscape:connector-curvature="0" />
    <path
       d="m 125.6,449.8 v 47.34"
       id="path1091"
       inkscape:connector-curvature="0" />
    <path
       d="m 150.33,447.55 v 47.741"
       id="path1093"
       inkscape:connector-curvature="0" />
    <path
       d="m 76.13,457.82 v 47.35"
       id="path1095"
       inkscape:connector-curvature="0" />
    <path
       d="m 100.87,452.9 v 47.943"
       id="path1097"
       inkscape:connector-curvature="0" />
    <path
       d="m 323.46,446.5 v 47.98"
       id="path1099"
       inkscape:connector-curvature="0" />
    <path
       d="m 348.19,449.09 v 46.738"
       id="path1101"
       inkscape:connector-curvature="0" />
    <path
       d="m 273.99,444.51 v 46.947"
       id="path1103"
       inkscape:connector-curvature="0" />
    <path
       d="m 298.73,445.03 v 46.848"
       id="path1105"
       inkscape:connector-curvature="0" />
    <path
       d="m 224.53,444.26 v 47.4"
       id="path1107"
       inkscape:connector-curvature="0" />
    <path
       d="m 249.26,443.35 v 47.906"
       id="path1109"
       inkscape:connector-curvature="0" />
  </g>
  <path
     style="fill:#ffffff;stroke:none"
     d="m 49.67,432.85 45.21,0.845 22.818,-0.634 15.635,-3.803 -2.113,-5.493 -33.17,-0.211 -36.763,2.535 -9.719,3.803 z"
     id="path1115"
     inkscape:connector-curvature="0" />
  <path
     style="fill:#ffffff;stroke:none"
     d="m 46.71,427.36 1.479,7.817 9.508,2.113 5.705,-8.24 -6.55,-2.958 z"
     id="path1117"
     inkscape:connector-curvature="0" />
  <path
     style="fill:#ffffff;stroke:none"
     d="m 122,432.58 63.34,-3.586 c 0,0 10.757,-5.378 7.769,-6.573 -2.988,-1.195 -45.42,-4.183 -45.42,-4.183 h -22.708 z"
     id="path1119"
     inkscape:connector-curvature="0" />
  <path
     style="fill:#ffffff;stroke:none"
     d="m 261.24,427.21 62.747,4.781 23.904,1.195 -2.988,-7.769 -58.56,-2.988 z"
     id="path1121"
     inkscape:connector-curvature="0" />
  <path
     style="fill:#ffffff;stroke:none"
     d="m 349.47,435.6 -0.423,-13.522 h -5.916 v 9.296 l 2.113,2.958 z"
     id="path1123"
     inkscape:connector-curvature="0" />
  <path
     d="M 353.29,239.87 V 754.21"
     id="path1127"
     inkscape:connector-curvature="0"
     style="fill:none;stroke:#000000;stroke-width:5" />
  <path
     style="fill:#078930;fill-opacity:1;stroke:#000000;stroke-width:3;stroke-linecap:round"
     inkscape:connector-curvature="0"
     id="path1129"
     d="m 468.63,627.21 c -0.68536,-12.59556 21.57777,-13.15583 32.96,-18.593 7.17095,-3.42549 14.93408,-5.48615 22.16113,-8.79166 9.75697,-4.46264 19.29847,-9.43081 28.54587,-14.87134 7.27334,-4.27913 14.92155,-8.22844 21.13,-13.944 1.84503,-1.69855 3.30565,-3.79767 4.648,-5.916 1.68585,-2.6604 3.17219,-5.48295 4.226,-8.451 0.86898,-2.44747 1.56758,-5.01172 1.69,-7.606 0.10705,-2.26868 -0.32323,-4.55055 -0.845,-6.761 -0.58331,-2.47116 -1.71105,-4.78134 -2.535,-7.183 -0.86723,-2.52782 -1.83876,-5.02585 -2.535,-7.606 -0.89958,-3.33369 -2.13582,-6.68814 -2.113,-10.141 0.0172,-2.59711 0.72153,-5.19616 1.69,-7.606 1.72049,-4.28111 4.30545,-8.22538 7.183,-11.832 3.91394,-4.9056 9.15052,-8.59733 13.522,-13.1 3.05584,-3.14755 6.93699,-5.78286 8.874,-9.719 2.1472,-4.36326 2.68297,-9.50627 2.535,-14.367 -0.11019,-3.61962 -1.10502,-7.23699 -2.535,-10.564 -1.32671,-3.08673 -3.3781,-5.8404 -5.493,-8.451 -1.37924,-1.70252 -2.99947,-3.20467 -4.648,-4.648 -2.26782,-1.98554 -5.16381,-3.25508 -7.183,-5.493 -1.59075,-1.76306 -2.99376,-3.81325 -3.72471,-6.07258 -0.67959,-2.10059 -0.78768,-4.41543 -0.50029,-6.60442 0.38851,-2.95918 1.66613,-5.76051 2.958,-8.451 2.87581,-5.98928 7.43715,-11.03987 10.564,-16.902 2.10669,-3.94955 4.11827,-7.99405 5.493,-12.254 1.42516,-4.41624 2.40512,-9.01269 2.80547,-13.63589 0.25417,-2.93513 0.58812,-6.01488 -0.26642,-8.83435 -1.00308,-3.30958 -2.77517,-6.66547 -5.49705,-8.79876 -2.0668,-1.61987 -4.88485,-2.08956 -7.48501,-2.45671 -3.11025,-0.43917 -6.28431,0.11487 -9.41699,0.34471 -2.32418,0.17052 -4.61889,0.79728 -6.94913,0.76671 -2.92207,-0.0383 -6.17499,0.30543 -8.68587,-1.18971 -2.25102,-1.34041 -3.98149,-3.80432 -4.648,-6.338 -1.29613,-4.92711 1.36584,-10.10153 1.80389,-15.17741 0.38912,-4.509 1.08643,-9.0458 0.73111,-13.55759 -0.31668,-4.02105 -0.78051,-8.20007 -2.535,-11.832 -1.34925,-2.79305 -3.09772,-5.88726 -5.916,-7.183 -2.91942,-1.34224 -6.48061,-0.40588 -9.63766,0.19218 -4.60322,0.87201 -8.64474,3.70862 -13.18134,4.87882 -4.55206,1.17418 -9.28501,2.74056 -13.944,2.113 -2.74957,-0.37036 -5.25466,-1.90743 -7.606,-3.38 -4.9981,-3.13015 -8.96536,-7.66522 -13.522,-11.409 -4.18114,-3.43526 -7.80681,-7.78215 -12.677,-10.141 -2.96766,-1.43737 -6.34441,-2.39593 -9.63766,-2.22994 -4.48672,0.22615 -9.03827,1.82443 -12.75834,4.34294 -2.15077,1.45609 -3.79134,3.65581 -5.071,5.916 -1.31668,2.32557 -2.10697,4.96806 -2.535,7.606 -0.65421,4.03194 0.37349,8.18644 0,12.254 -0.35365,3.85147 -0.57816,7.85891 -2.113,11.409 -1.25373,2.89989 -3.22267,5.56873 -5.60689,7.64159 -3.34716,2.91006 -8.26337,3.52193 -11.71811,6.30341 -3.03456,2.44318 -6.25438,5.22012 -7.606,8.874 -0.97732,2.64203 -0.59642,5.69786 0,8.451 0.72067,3.32667 2.03909,6.68765 4.226,9.296 3.57326,4.26187 9.26511,6.16194 13.75177,9.44853 3.81357,2.79353 7.88952,5.33055 11.18223,8.72247 1.82484,1.87983 3.83288,3.84815 4.648,6.338 0.74495,2.2755 0.63915,4.87555 0,7.183 -0.6577,2.3744 -2.30379,4.38283 -3.803,6.338 -3.45502,4.50582 -8.74805,7.48652 -11.832,12.254 -1.64786,2.54743 -3.1508,5.42572 -3.38,8.451 -0.3278,4.32678 0.84988,8.88434 2.958,12.677 1.74196,3.13391 4.70294,5.5017 7.606,7.606 3.51101,2.54498 7.84827,3.71318 11.60423,5.88041 2.69946,1.55761 5.44917,3.09768 7.83277,5.10559 2.05807,1.73369 4.3724,3.46945 5.493,5.916 1.59343,3.47886 1.85398,7.62772 1.268,11.409 -0.42487,2.74167 -1.88997,5.26568 -3.38,7.606 -2.30568,3.62143 -5.9401,6.23671 -8.451,9.719 -2.10505,2.91943 -4.89063,5.74756 -5.493,9.296 -0.84143,4.95672 0.73442,10.28081 2.958,14.79 1.9866,4.02863 6.18139,6.54569 8.874,10.141 2.20174,2.93988 5.45149,5.65255 5.916,9.296 0.29445,2.30955 -0.89403,4.68569 -2.15165,6.64506 -2.05615,3.2035 -5.94972,4.82025 -8.41235,7.72294 -2.83071,3.33655 -5.85019,6.81937 -7.183,10.987 -1.07347,3.35669 -0.83199,7.06366 -0.423,10.564 0.49067,4.1994 2.23247,8.15631 3.4156,12.21536 1.07475,3.68722 2.90574,7.21022 3.3454,11.02564 0.74329,6.45042 0.1798,13.10836 -1.268,19.438 -1.42299,6.22118 -4.4485,11.98068 -7.183,17.747 -2.88996,6.09415 -9.719,17.747 -9.719,17.747 0,0 15.83477,-4.42205 15.212,-10.564 -2.6e-4,-0.003 -0.007,-4.7e-4 -0.007,-0.003 z"
     sodipodi:nodetypes="aaaaaaaaaaaaaaaaaaaaaaaaaaaaaaaaaaaaaaaaaaaaaaaaaaaaaaaaaaaaaaaaaaaaaaaaaaaaaaaaaacaa" />
  <path
     style="fill:#078930;fill-opacity:1;stroke:#000000;stroke-width:3;stroke-linecap:round;stroke-linejoin:round"
     inkscape:connector-curvature="0"
     id="path1131"
     d="m 424.92,584.99 c 0,0 3.90658,9.78485 4.781,14.94 0.63314,3.73266 0.36727,7.56864 0.299,11.354 -0.0864,4.78921 -0.0965,9.61921 -0.896,14.342 -0.86318,5.09897 -2.04596,10.23069 -4.183,14.94 -1.27853,2.81744 -3.07303,5.41343 -5.079,7.769 -4.63527,5.44312 -13.05191,7.86842 -15.85348,14.44599 -2.46204,5.78039 -4.47076,14.99867 0.49948,18.84201 0.8394,0.64909 2.09069,-1.04333 3.101,-0.719 3.80471,1.22138 7.92,8.999 7.92,8.999 0,0 6.38076,-4.94239 9.26401,-7.75348 4.6171,-4.50154 8.24332,-9.94087 12.78799,-14.51552 7.12226,-7.16923 15.49816,-13.01639 22.616,-20.19 6.16364,-6.21193 11.70711,-13.01465 17.33,-19.72 6.55615,-7.81827 13.17583,-15.61092 19.12,-23.904 7.64563,-10.6669 12.20829,-23.62234 21.217,-33.166 2.44793,-2.59329 5.5765,-4.49211 8.665,-6.275 4.43954,-2.5628 9.24319,-4.46722 14.04,-6.275 6.92617,-2.61027 14.42128,-3.62364 21.21,-6.573 2.20961,-0.95996 6.275,-3.586 6.275,-3.586 0,0 -7.1736,-0.46074 -10.757,-0.299 -4.79719,0.21653 -9.5897,0.79271 -14.30605,1.696 -4.68083,0.89647 -9.37146,1.96023 -13.81548,3.682 -3.0238,1.17153 -8.63447,4.482 -8.63447,4.482 0,0 4.41136,-5.21728 6.275,-8.07 2.97361,-4.55179 5.83443,-9.2608 7.769,-14.342 1.85668,-4.8766 2.32422,-10.17476 3.586,-15.238 0.94633,-3.79739 1.74455,-7.64326 2.988,-11.354 1.33401,-3.98099 2.42011,-8.18111 4.781,-11.653 2.02013,-2.97078 5.08341,-5.08378 7.769,-7.47 3.75599,-3.3373 7.4902,-6.74744 11.653,-9.561 5.83484,-3.94367 12.24327,-6.97501 18.525,-10.159 4.4117,-2.23614 13.446,-6.275 13.446,-6.275 0,0 -9.01579,1.11844 -13.446,2.092 -6.37364,1.40064 -12.84638,2.76014 -18.824,5.378 -6.83763,2.9945 -13.33036,6.94497 -19.123,11.653 -1.69516,1.37776 -4.482,4.781 -4.482,4.781 0,0 2.32171,-5.6833 2.988,-8.665 0.80867,-3.61887 0.95529,-7.35963 1.195,-11.06 0.29625,-4.57317 0.79634,-9.18932 0.299,-13.745 -0.45617,-4.17855 -2.70417,-8.05722 -2.988,-12.251 -0.41977,-6.20244 0.4333,-12.51706 1.93751,-18.54896 0.80367,-3.22275 2.17069,-6.30843 3.73949,-9.23604 2.33564,-4.35864 5.18563,-8.46442 8.366,-12.251 3.57861,-4.26073 7.81963,-7.9269 11.952,-11.653 4.04395,-3.64638 12.549,-10.458 12.549,-10.458 0,0 -8.67559,3.55258 -12.848,5.677 -6.0015,3.05572 -12.31952,5.80726 -17.47451,10.14103 -4.68641,3.93983 -8.85434,8.70499 -11.81149,14.06597 -1.26272,2.28917 -2.39,7.47 -2.39,7.47 0,0 -1.25415,-5.61628 -2.092,-8.366 -1.11117,-3.64671 -2.57303,-7.17726 -3.884,-10.757 -1.27879,-3.49186 -2.70801,-6.9302 -3.884,-10.458 -0.88721,-2.66151 -1.9875,-5.29353 -2.39,-8.07 -0.40008,-2.75982 -0.51581,-5.62545 0,-8.366 0.81082,-4.30798 2.98495,-8.25221 4.781,-12.251 2.15311,-4.79377 4.9216,-9.29065 7.171,-14.04 2.23361,-4.71602 4.06161,-9.61646 6.275,-14.342 0.85014,-1.81503 2.689,-5.378 2.689,-5.378 0,0 -5.05997,4.70006 -7.47,7.171 -2.16588,2.22063 -4.36334,4.4291 -6.275,6.872 -2.65575,3.39377 -5.06232,6.99879 -7.171,10.757 -1.50445,2.68132 -2.94944,5.43693 -3.884,8.366 -0.83156,2.60626 -1.494,8.07 -1.494,8.07 0,0 -2.03221,-3.1629 -2.988,-4.781 -3.53738,-5.98864 -6.8363,-12.11563 -10.159,-18.226 -3.55446,-6.53657 -6.69313,-13.30231 -10.458,-19.72 -2.87967,-4.90876 -6.09046,-9.61723 -9.263,-14.342 -2.91105,-4.33534 -8.964,-12.848 -8.964,-12.848 0,0 3.06418,6.53976 4.482,9.86 3.79138,8.87861 6.90304,18.03937 10.757,26.891 2.32991,5.35125 5.32536,10.40784 7.47,15.836 0.67002,1.69586 1.17731,3.4532 1.67802,5.20653 0.72089,2.52436 1.90698,7.64147 1.90698,7.64147 0,0 -4.33209,-2.48708 -6.573,-3.586 -4.68519,-2.29758 -9.47146,-4.40213 -14.342,-6.275 -5.58508,-2.14764 -11.18302,-4.40488 -17.03,-5.677 -2.7405,-0.59625 -8.366,-0.896 -8.366,-0.896 0,0 10.986,3.44304 16.13,5.976 6.22347,3.06451 12.02306,6.9739 17.629,11.06 4.62792,3.37323 9.39811,6.73078 13.147,11.06 2.84129,3.28112 4.90728,7.18979 6.872,11.06 2.77094,5.45835 4.92994,11.22482 6.872,17.03 1.34139,4.00967 2.39053,8.11903 3.287,12.251 0.77074,3.55249 1.16328,7.17682 1.793,10.757 0.47391,2.69435 1.494,8.07 1.494,8.07 0,0 -5.12091,-6.12486 -8.366,-8.366 -6.38247,-4.40789 -13.73994,-7.49004 -21.215,-9.561 -4.92872,-1.3655 -10.12436,-1.70624 -15.238,-1.793 -2.39829,-0.0407 -7.171,0.598 -7.171,0.598 0,0 10.9615,1.68233 16.13,3.586 5.39346,1.98653 10.49771,4.81956 15.238,8.07 4.13403,2.83472 8.09321,6.05301 11.354,9.86 3.28995,3.84104 6.19821,8.14973 8.07,12.848 2.25558,5.6616 2.98541,11.86329 3.586,17.928 0.47113,4.7574 0.54096,9.59204 0,14.342 -0.75183,6.60147 -3.32159,12.87997 -4.482,19.422 -0.42072,2.3719 -0.74638,4.76673 -0.896,7.171 -0.19178,3.08171 2.91121,8.23415 0,9.263 -3.13864,1.10922 -4.02691,-5.3139 -6.275,-7.769 -2.61665,-2.8576 -5.04301,-6.07739 -8.366,-8.07 -3.05245,-1.83038 -6.81158,-2.07765 -10.159,-3.287 -2.01776,-0.72897 -4.03842,-1.46884 -5.976,-2.39 -1.85212,-0.88053 -5.378,-2.988 -5.378,-2.988 0,0 6.70672,6.64267 10.159,9.86 3.71523,3.46238 8.08943,6.26882 11.354,10.159 2.18524,2.60401 4.03748,5.54104 5.378,8.665 0.93354,2.17552 1.75632,4.50493 1.793,6.872 0.0902,5.82173 -2.37075,11.40765 -3.884,17.03 -1.21994,4.53257 -2.46339,9.07846 -4.183,13.446 -1.09369,2.77779 -2.44907,5.45213 -3.884,8.07 -1.18239,2.15713 -3.884,6.275 -3.884,6.275 0,0 -1.90729,-5.85357 -3.29599,-8.58697 -1.41053,-2.77638 -2.874,-5.63899 -5.07001,-7.84703 -2.18191,-2.19386 -7.769,-5.08 -7.769,-5.08 0,0 2.66589,5.14245 3.884,7.769 1.59566,3.44065 3.48283,6.79933 4.482,10.458 0.82018,3.00327 1.39793,6.15637 1.195,9.263 -0.22833,3.4955 -1.06543,7.05502 -2.689,10.159 -2.84888,5.44658 -7.75289,9.55332 -11.951,14.043 -7.31246,7.82034 -15.3895,14.88951 -23.01,22.41 -2.90735,2.86919 -5.63903,5.9212 -8.665,8.665 -2.67345,2.42415 -8.366,6.872 -8.366,6.872 0,0 3.02301,-4.59252 3.884,-7.171 2.13702,-6.39989 2.83125,-13.27457 2.988,-20.02 0.11397,-4.90435 -0.54206,-9.82857 -1.494,-14.641 -0.74632,-3.77293 -1.28938,-7.77343 -3.287,-11.06 -2.01247,-3.311 -8.366,-8.07 -8.366,-8.07 l -5.976,6.275 z"
     sodipodi:nodetypes="caaaaaaaacaaaaaaaaacaaacaaaaaaaacaaacaaaaaaaacaaacaaaaaaaacaaaacaaaacaaaacaaacaaaaaaacaaacaaaaaaaaaaaaacaaaaaaacaacaaaaaaacaaaaccc" />
  <path
     d="m 414.92403,655.96751 c -2.20588,0.13772 -4.36202,1.01691 -6.29003,2.09749 -3.05237,1.71073 -5.98054,3.92494 -8.03,6.761 -2.22141,3.074 -3.80443,6.79486 -4.226,10.564 -0.69756,6.23672 1.14634,12.58457 2.958,18.593 1.45157,4.81418 3.85779,9.3072 6.26,13.72452 1.39881,2.57221 4.727,7.40348 4.727,7.40348 0,0 3.29097,-7.92766 5.071,-11.832 2.01231,-4.41381 4.06506,-8.81458 6.338,-13.1 1.44914,-2.73221 3.44688,-5.18004 4.648,-8.03 1.42018,-3.36973 2.97774,-6.90728 2.958,-10.564 -0.019,-3.52115 -1.17035,-7.10733 -2.958,-10.141 -0.94744,-1.60781 -2.29842,-3.09163 -3.94204,-3.9755 -2.2495,-1.20968 -4.96477,-1.66013 -7.51393,-1.50099 z"
     id="path1135"
     inkscape:connector-curvature="0"
     style="fill:#078930;fill-opacity:1;stroke:#000000;stroke-width:3;stroke-linecap:butt;stroke-linejoin:round"
     sodipodi:nodetypes="aaaaaacaaaaaaa" />
  <path
     d="m 403.61235,502.27802 c -0.65679,2.45177 -3.01995,3.31095 -5.27706,1.919 -2.2571,-1.39195 -3.55512,-4.50898 -2.89834,-6.96076 0.65678,-2.45177 3.01995,-3.31095 5.27706,-1.919 2.2571,1.39195 3.55512,4.50898 2.89834,6.96076 z"
     id="path1139"
     inkscape:connector-curvature="0"
     style="fill:#078930;fill-opacity:1;stroke:#000000;stroke-width:2.99967837;stroke-linecap:round;stroke-linejoin:round" />
  <path
     style="fill:#078930;fill-opacity:1;stroke:#000000;stroke-width:3;stroke-linejoin:round"
     inkscape:connector-curvature="0"
     id="path1141"
     d="m 401.01,569.3 c -3.935,-3.03 -4.848,-8.697 -6.723,-13.296 -2.247,-5.513 -4.04,-11.23 -5.378,-17.03 -1.065,-4.611 -2.368,-9.319 -2.092,-14.04 0.178,-3.039 1.178,-6.02 2.39,-8.814 0.98,-2.256 2.304,-4.389 3.884,-6.275 1.631,-1.946 3.524,-3.734 5.677,-5.08 1.231,-0.769 2.648,-1.21 4.03,-1.643 1.753,-0.548 3.542,-1.214 5.378,-1.195 3.998,0.04 8.08,1.051 11.653,2.839 3.576,1.788 6.643,4.599 9.263,7.619 3.704,4.271 6.06,9.556 8.814,14.491 2.347,4.199 4.659,8.435 6.573,12.848 1.053,2.428 2.593,4.825 2.689,7.47 0.141,3.876 -0.523,8.34 -3.137,11.205 -3.485,3.819 -9.612,3.819 -14.491,5.528 -7.105,2.488 -13.994,6.498 -21.513,6.872 -2.39,0.119 -5.126,-0.034 -7.02,-1.494 z" />
  <path
     style="fill:#078930;fill-opacity:1;stroke:#000000;stroke-width:3;stroke-linejoin:round"
     inkscape:connector-curvature="0"
     id="path1143"
     d="m 390.85,566.61 c 0,0 2.608,6.967 4.482,10.159 1.926,3.281 4.081,6.528 6.872,9.113 2.169,2.01 4.795,3.523 7.47,4.781 2.366,1.112 4.912,1.849 7.47,2.39 3.185,0.674 6.455,1.045 9.711,1.046 2.805,0 5.689,-0.061 8.366,-0.896 2.489,-0.776 4.756,-2.212 6.872,-3.735 2.431,-1.75 4.864,-3.666 6.573,-6.125 2.37,-3.41 3.737,-7.484 4.781,-11.504 0.769,-2.96 0.976,-6.06 1.046,-9.113 0.084,-3.643 -0.246,-7.297 -0.747,-10.906 -0.399,-2.873 -1.793,-8.516 -1.793,-8.516 z" />
</svg>
