<?xml version="1.0" encoding="UTF-8" standalone="no"?>
<svg
   xmlns:dc="http://purl.org/dc/elements/1.1/"
   xmlns:cc="http://creativecommons.org/ns#"
   xmlns:rdf="http://www.w3.org/1999/02/22-rdf-syntax-ns#"
   xmlns:svg="http://www.w3.org/2000/svg"
   xmlns="http://www.w3.org/2000/svg"
   xmlns:xlink="http://www.w3.org/1999/xlink"
   xmlns:sodipodi="http://sodipodi.sourceforge.net/DTD/sodipodi-0.dtd"
   xmlns:inkscape="http://www.inkscape.org/namespaces/inkscape"
   viewBox="0 0 721.63962 790.48665"
   version="1.1"
   id="svg943"
   sodipodi:docname="Wappen_von_Ensdorf.svg"
   inkscape:version="0.92.5 (2060ec1f9f, 2020-04-08)"
   width="721.63965"
   height="790.48663">
  <metadata
     id="metadata947">
    <rdf:RDF>
      <cc:Work
         rdf:about="">
        <dc:format>image/svg+xml</dc:format>
        <dc:type
           rdf:resource="http://purl.org/dc/dcmitype/StillImage" />
        <dc:title />
      </cc:Work>
    </rdf:RDF>
  </metadata>
  <sodipodi:namedview
     pagecolor="#ffffff"
     bordercolor="#666666"
     borderopacity="1"
     objecttolerance="10"
     gridtolerance="10"
     guidetolerance="10"
     inkscape:pageopacity="0"
     inkscape:pageshadow="2"
     inkscape:window-width="1920"
     inkscape:window-height="1046"
     id="namedview945"
     showgrid="false"
     inkscape:zoom="1.0031795"
     inkscape:cx="360.81984"
     inkscape:cy="355.37009"
     inkscape:window-x="-11"
     inkscape:window-y="-11"
     inkscape:window-maximized="1"
     inkscape:current-layer="svg943"
     fit-margin-top="0"
     fit-margin-left="0"
     fit-margin-right="0"
     fit-margin-bottom="0" />
  <defs
     id="defs885">
    <path
       id="0"
       d="m -622.21,284.02 c 0,0 4.02,1.699 6.158,1.802 2.138,0.103 4.345,-0.347 6.308,-1.202 1.708,-0.743 3.354,-1.84 4.506,-3.304 1.207,-1.535 1.931,-3.481 2.253,-5.407 0.388,-2.326 -0.109,-4.726 -0.451,-7.06 -0.387,-2.644 -1.082,-5.237 -1.802,-7.81 -1.592,-5.686 -3.906,-11.152 -5.557,-16.821 -1.256,-4.313 -2.269,-8.695 -3.304,-13.07 -1.016,-4.291 -2.124,-8.568 -2.854,-12.916 -0.433,-2.584 -0.806,-5.191 -0.901,-7.81 -0.085,-2.354 -0.099,-4.738 0.3,-7.06 0.462,-2.684 1.361,-5.293 2.403,-7.81 1.106,-2.669 2.45,-5.257 4.055,-7.66 1.876,-2.809 3.973,-5.521 6.458,-7.81 1.481,-1.364 3.189,-2.489 4.956,-3.454 2.186,-1.195 4.512,-2.172 6.909,-2.854 2.977,-0.847 6.082,-1.191 9.161,-1.502 2.592,-0.261 5.21,-0.469 7.81,-0.3 2.99,0.194 5.946,0.81 8.861,1.502 2.65,0.629 5.278,1.398 7.81,2.403 3.371,1.339 6.626,2.984 9.762,4.806 2.431,1.413 4.781,2.984 6.984,4.731 2.082,1.651 4.01,3.499 5.857,5.407 2.792,2.879 5.393,5.944 7.885,9.09 1.804,2.275 3.522,4.625 5.106,7.06 2.277,3.497 4.417,7.094 6.308,10.814 1.585,3.118 2.843,6.391 4.205,9.612 1.032,2.44 2.089,4.873 3,7.359 1.383,3.759 2.531,7.601 3.755,11.414 1.05,3.272 2.101,6.543 3.079,9.837 0.659,2.218 1.35,4.43 1.877,6.683 0.801,3.423 1.374,6.896 1.952,10.363 0.429,2.57 0.848,5.144 1.126,7.735 0.231,2.146 0.306,4.305 0.451,6.458 0.234,3.479 0.563,6.953 0.676,10.438 0.138,4.253 0.402,8.53 0,12.766 -0.226,2.385 -0.839,4.719 -1.352,7.06 -0.805,3.677 -1.657,7.348 -2.703,10.964 -0.792,2.737 -1.691,5.447 -2.703,8.11 -1.355,3.564 -2.711,7.149 -4.506,10.513 -2.079,3.896 -4.447,7.668 -7.209,11.11 -2.325,2.9 -4.923,5.619 -7.81,7.96 -2.675,2.169 -5.619,4.04 -8.711,5.557 -3.724,1.828 -7.656,3.343 -11.715,4.205 -2.652,0.563 -5.4,0.641 -8.11,0.601 -2.416,-0.036 -4.851,-0.223 -7.209,-0.751 -3.106,-0.695 -6.159,-1.742 -9.01,-3.154 -2.364,-1.171 -4.593,-2.652 -6.608,-4.355 -2.299,-1.944 -4.385,-4.175 -6.158,-6.608 -1.452,-1.993 -2.625,-4.196 -3.605,-6.458 -1.378,-3.182 -2.41,-6.526 -3.154,-9.912 -0.606,-2.76 -0.876,-5.591 -1.051,-8.411 -0.174,-2.798 -0.292,-5.622 0,-8.411 0.277,-2.646 0.903,-5.257 1.652,-7.81 0.875,-2.98 3.304,-8.711 3.304,-8.711 0,0 0.918,2.836 1.502,4.205 0.615,1.441 1.334,2.84 2.103,4.205 0.784,1.392 1.602,2.772 2.553,4.055 1.184,1.596 2.437,3.166 3.905,4.506 1.616,1.475 3.465,2.688 5.332,3.83 1.681,1.028 3.419,1.992 5.257,2.703 2.055,0.796 4.204,1.395 6.383,1.727 2.575,0.393 5.215,0.532 7.81,0.3 2.553,-0.228 5.083,-0.826 7.509,-1.652 1.781,-0.606 3.51,-1.408 5.106,-2.403 1.632,-1.017 3.131,-2.259 4.506,-3.605 1.422,-1.392 2.625,-2.997 3.83,-4.581 0.774,-1.017 1.507,-2.066 2.178,-3.154 0.958,-1.554 1.95,-3.111 2.628,-4.806 1.261,-3.151 2.229,-6.467 2.628,-9.837 0.587,-4.948 -0.272,-9.962 -0.375,-14.944 -0.032,-1.527 0.006,-3.056 -0.075,-4.581 -0.119,-2.259 -0.264,-4.522 -0.601,-6.758 -0.411,-2.733 -0.982,-5.448 -1.727,-8.11 -0.757,-2.706 -1.722,-5.356 -2.778,-7.96 -1.162,-2.864 -2.549,-5.633 -3.905,-8.411 -1.01,-2.073 -2.054,-4.131 -3.154,-6.158 -1.032,-1.902 -2.052,-3.816 -3.229,-5.632 -1.364,-2.105 -2.912,-4.086 -4.431,-6.083 -1.682,-2.213 -3.248,-4.537 -5.181,-6.533 -1.483,-1.531 -3.061,-3.02 -4.881,-4.13 -1.342,-0.818 -2.819,-1.473 -4.355,-1.802 -1.616,-0.347 -3.311,-0.306 -4.956,-0.15 -1.379,0.13 -2.759,0.415 -4.055,0.901 -1.762,0.661 -3.5,1.512 -4.956,2.703 -1.265,1.035 -2.391,2.309 -3.154,3.755 -0.607,1.149 -0.848,2.471 -1.051,3.755 -0.286,1.806 -0.285,3.654 -0.225,5.482 0.062,1.887 0.369,3.758 0.601,5.632 0.198,1.606 0.472,3.201 0.676,4.806 0.28,2.199 0.525,4.403 0.751,6.608 0.281,2.75 0.626,5.498 0.751,8.26 0.132,2.901 0.125,5.81 0,8.711 -0.088,2.033 -0.075,4.098 -0.526,6.083 -0.456,2.01 -1.187,3.977 -2.178,5.782 -1.204,2.194 -2.773,4.201 -4.506,6.01 -0.985,1.027 -2.15,1.871 -3.304,2.703 -0.913,0.658 -1.866,1.264 -2.854,1.802 -2.084,1.137 -4.207,2.248 -6.458,3 -1.238,0.416 -2.532,0.677 -3.83,0.826 -1.467,0.169 -2.964,0.253 -4.431,0.075 -1.748,-0.212 -3.477,-0.684 -5.106,-1.352 -2.241,-0.918 -4.383,-2.135 -6.308,-3.605 -1.857,-1.418 -3.461,-3.161 -4.956,-4.956 -1.129,-1.355 -1.946,-2.944 -3,-4.355 -1.238,-1.652 -3.905,-4.806 -3.905,-4.806 z"
       inkscape:connector-curvature="0"
       style="stroke:#000000;stroke-width:6.05000019" />
    <path
       id="1"
       d="m -485.34,127.44 c 0,0 -7.947,8.198 -12,12.219 -3.182,3.157 -6.448,6.213 -9.656,9.344 -2.406,2.347 -4.872,4.626 -7.188,7.06 -1.776,1.869 -3.616,3.714 -5.156,5.781 -1.368,1.836 -2.524,3.819 -3.594,5.844 -0.814,1.542 -1.53,3.142 -2.125,4.781 -0.528,1.454 -1.01,2.946 -1.281,4.469 -0.245,1.363 -0.259,2.772 -0.313,4.156 -0.052,1.345 -0.104,2.69 0,4.03 0.124,1.608 0.401,3.207 0.75,4.781 0.551,2.484 1.268,4.917 2.125,7.313 1.181,3.301 2.706,6.482 4.125,9.688 1.104,2.492 2.356,4.922 3.406,7.438 0.963,2.306 1.754,4.669 2.656,7 1.32,3.409 2.769,6.756 4.03,10.188 1.176,3.195 2.286,6.442 3.313,9.688 1.257,3.975 2.499,7.953 3.5,12 0.554,2.243 0.911,4.518 1.375,6.781 0.597,2.907 1.323,5.791 1.813,8.719 0.6,3.591 1.01,7.221 1.375,10.844 0.239,2.367 0.37,4.751 0.531,7.125 0.355,5.239 0.964,10.468 0.969,15.719 0,3.02 -0.075,6.05 -0.531,9.03 -0.243,1.588 -0.866,3.083 -1.188,4.656 -0.631,3.092 -0.849,6.281 -1.469,9.375 -0.709,3.537 -1.523,7.05 -2.563,10.5 -1.021,3.389 -2.283,6.725 -3.625,10 -1.286,3.138 -2.688,6.209 -4.25,9.219 -1.623,3.127 -3.396,6.201 -5.313,9.156 -1.187,1.831 -2.477,3.587 -3.813,5.313 -1.831,2.367 -5.75,6.906 -5.75,6.906 0,0 5.345,4.052 7.875,6.25 2.061,1.791 4.052,3.651 5.938,5.625 2.358,2.469 4.597,5.106 6.719,7.781 2.095,2.642 3.983,5.409 5.938,8.156 1.15,1.617 2.348,3.228 3.406,4.906 1.413,2.24 2.639,4.598 3.938,6.906 1.072,1.907 2.167,3.784 3.188,5.719 0.997,1.891 2.844,5.75 2.844,5.75 0,0 0.055,-3.143 0.094,-6.406 0.039,3.263 0.063,6.406 0.063,6.406 0,0 1.846,-3.859 2.844,-5.75 1.021,-1.935 2.115,-3.812 3.188,-5.719 1.298,-2.309 2.525,-4.666 3.938,-6.906 1.058,-1.678 2.256,-3.289 3.406,-4.906 1.954,-2.747 3.843,-5.514 5.938,-8.156 2.121,-2.676 4.36,-5.312 6.719,-7.781 1.886,-1.974 3.877,-3.834 5.938,-5.625 2.53,-2.198 7.844,-6.25 7.844,-6.25 0,0 -3.887,-4.54 -5.719,-6.906 -1.335,-1.725 -2.625,-3.482 -3.813,-5.313 -1.917,-2.956 -3.69,-6.03 -5.313,-9.156 -1.562,-3.01 -2.964,-6.081 -4.25,-9.219 -1.342,-3.275 -2.605,-6.611 -3.625,-10 -1.04,-3.454 -1.854,-6.963 -2.563,-10.5 -0.62,-3.094 -0.838,-6.283 -1.469,-9.375 -0.321,-1.574 -0.945,-3.069 -1.188,-4.656 -0.456,-2.981 -0.531,-6.02 -0.531,-9.03 0.005,-5.251 0.614,-10.48 0.969,-15.719 0.161,-2.374 0.292,-4.758 0.531,-7.125 0.366,-3.623 0.775,-7.252 1.375,-10.844 0.489,-2.927 1.216,-5.811 1.813,-8.719 0.464,-2.263 0.821,-4.539 1.375,-6.781 1,-4.047 2.243,-8.03 3.5,-12 1.026,-3.246 2.137,-6.493 3.313,-9.688 1.263,-3.431 2.711,-6.778 4.03,-10.188 0.903,-2.331 1.694,-4.694 2.656,-7 1.05,-2.515 2.303,-4.945 3.406,-7.438 1.419,-3.206 2.944,-6.386 4.125,-9.688 0.857,-2.395 1.574,-4.829 2.125,-7.313 0.349,-1.574 0.626,-3.173 0.75,-4.781 0.104,-1.342 0.052,-2.687 0,-4.03 -0.053,-1.384 -0.068,-2.793 -0.313,-4.156 -0.273,-1.523 -0.753,-3.01 -1.281,-4.469 -0.595,-1.639 -1.311,-3.239 -2.125,-4.781 -1.069,-2.025 -2.226,-4.01 -3.594,-5.844 -1.54,-2.068 -3.38,-3.912 -5.156,-5.781 -2.315,-2.436 -4.782,-4.715 -7.188,-7.06 -3.208,-3.131 -6.474,-6.187 -9.656,-9.344 -4.053,-4.02 -12,-12.219 -12,-12.219 -0.238,1.904 -0.257,0.023 -0.156,0 z"
       inkscape:connector-curvature="0"
       style="stroke:#000000;stroke-width:6.05000019;stroke-linejoin:round" />
    <path
       id="2"
       d="m -348.32,284.02 c 0,0 -4.02,1.699 -6.158,1.802 -2.138,0.103 -4.345,-0.347 -6.308,-1.202 -1.708,-0.743 -3.354,-1.84 -4.506,-3.304 -1.207,-1.535 -1.931,-3.481 -2.253,-5.407 -0.389,-2.326 0.109,-4.726 0.451,-7.06 0.387,-2.644 1.082,-5.237 1.802,-7.81 1.592,-5.686 3.906,-11.152 5.557,-16.821 1.256,-4.313 2.269,-8.695 3.304,-13.07 1.016,-4.291 2.124,-8.568 2.854,-12.916 0.433,-2.584 0.806,-5.191 0.901,-7.81 0.085,-2.354 0.099,-4.738 -0.3,-7.06 -0.462,-2.684 -1.361,-5.293 -2.403,-7.81 -1.106,-2.669 -2.45,-5.257 -4.055,-7.66 -1.876,-2.809 -3.973,-5.521 -6.458,-7.81 -1.481,-1.364 -3.189,-2.489 -4.956,-3.454 -2.186,-1.195 -4.512,-2.172 -6.909,-2.854 -2.977,-0.847 -6.082,-1.191 -9.161,-1.502 -2.592,-0.261 -5.21,-0.469 -7.81,-0.3 -2.99,0.194 -5.946,0.81 -8.861,1.502 -2.65,0.629 -5.278,1.398 -7.81,2.403 -3.371,1.339 -6.626,2.984 -9.762,4.806 -2.431,1.413 -4.781,2.984 -6.984,4.731 -2.082,1.651 -4.01,3.499 -5.857,5.407 -2.792,2.879 -5.393,5.944 -7.885,9.09 -1.804,2.275 -3.522,4.625 -5.106,7.06 -2.277,3.497 -4.417,7.094 -6.308,10.814 -1.585,3.118 -2.843,6.391 -4.205,9.612 -1.032,2.44 -2.089,4.873 -3,7.359 -1.383,3.759 -2.531,7.601 -3.755,11.414 -1.05,3.272 -2.101,6.543 -3.079,9.837 -0.659,2.218 -1.35,4.43 -1.877,6.683 -0.801,3.423 -1.374,6.896 -1.952,10.363 -0.429,2.57 -0.848,5.144 -1.126,7.735 -0.231,2.146 -0.306,4.305 -0.451,6.458 -0.234,3.479 -0.563,6.953 -0.676,10.438 -0.138,4.253 -0.402,8.53 0,12.766 0.226,2.385 0.839,4.719 1.352,7.06 0.805,3.677 1.657,7.348 2.703,10.964 0.792,2.737 1.691,5.447 2.703,8.11 1.355,3.564 2.711,7.149 4.506,10.513 2.079,3.896 4.447,7.668 7.209,11.11 2.325,2.9 4.923,5.619 7.81,7.96 2.675,2.169 5.619,4.04 8.711,5.557 3.724,1.828 7.656,3.343 11.715,4.205 2.652,0.563 5.4,0.641 8.11,0.601 2.416,-0.036 4.851,-0.223 7.209,-0.751 3.106,-0.695 6.159,-1.742 9.01,-3.154 2.364,-1.171 4.593,-2.652 6.608,-4.355 2.3,-1.944 4.385,-4.175 6.158,-6.608 1.452,-1.993 2.625,-4.196 3.605,-6.458 1.378,-3.182 2.41,-6.526 3.154,-9.912 0.606,-2.76 0.876,-5.591 1.051,-8.411 0.174,-2.798 0.292,-5.622 0,-8.411 -0.277,-2.646 -0.903,-5.257 -1.652,-7.81 -0.875,-2.98 -3.304,-8.711 -3.304,-8.711 0,0 -0.918,2.836 -1.502,4.205 -0.615,1.441 -1.334,2.84 -2.103,4.205 -0.784,1.392 -1.602,2.772 -2.553,4.055 -1.184,1.596 -2.437,3.166 -3.905,4.506 -1.616,1.475 -3.465,2.688 -5.332,3.83 -1.681,1.028 -3.419,1.992 -5.257,2.703 -2.055,0.796 -4.204,1.395 -6.383,1.727 -2.575,0.393 -5.215,0.532 -7.81,0.3 -2.553,-0.228 -5.083,-0.826 -7.509,-1.652 -1.781,-0.606 -3.51,-1.408 -5.106,-2.403 -1.632,-1.017 -3.131,-2.259 -4.506,-3.605 -1.422,-1.392 -2.625,-2.997 -3.83,-4.581 -0.774,-1.017 -1.507,-2.066 -2.178,-3.154 -0.958,-1.554 -1.95,-3.111 -2.628,-4.806 -1.261,-3.151 -2.229,-6.467 -2.628,-9.837 -0.587,-4.948 0.272,-9.962 0.375,-14.944 0.032,-1.527 -0.006,-3.056 0.075,-4.581 0.119,-2.259 0.264,-4.522 0.601,-6.758 0.411,-2.733 0.982,-5.448 1.727,-8.11 0.757,-2.706 1.722,-5.356 2.778,-7.96 1.162,-2.864 2.549,-5.633 3.905,-8.411 1.01,-2.073 2.054,-4.131 3.154,-6.158 1.032,-1.902 2.052,-3.816 3.229,-5.632 1.364,-2.105 2.912,-4.086 4.431,-6.083 1.682,-2.213 3.248,-4.537 5.181,-6.533 1.483,-1.531 3.061,-3.02 4.881,-4.13 1.342,-0.818 2.819,-1.473 4.355,-1.802 1.616,-0.347 3.311,-0.306 4.956,-0.15 1.378,0.13 2.759,0.415 4.055,0.901 1.762,0.661 3.5,1.512 4.956,2.703 1.265,1.035 2.391,2.309 3.154,3.755 0.607,1.149 0.848,2.471 1.051,3.755 0.286,1.806 0.285,3.654 0.225,5.482 -0.062,1.887 -0.369,3.758 -0.601,5.632 -0.198,1.606 -0.472,3.201 -0.676,4.806 -0.28,2.199 -0.525,4.403 -0.751,6.608 -0.281,2.75 -0.626,5.498 -0.751,8.26 -0.132,2.901 -0.125,5.81 0,8.711 0.088,2.033 0.075,4.098 0.526,6.083 0.456,2.01 1.187,3.977 2.178,5.782 1.204,2.194 2.773,4.201 4.506,6.01 0.985,1.027 2.15,1.871 3.304,2.703 0.913,0.658 1.866,1.264 2.854,1.802 2.084,1.137 4.207,2.248 6.458,3 1.238,0.416 2.532,0.677 3.83,0.826 1.467,0.169 2.964,0.253 4.431,0.075 1.748,-0.212 3.477,-0.684 5.106,-1.352 2.241,-0.918 4.383,-2.135 6.308,-3.605 1.857,-1.418 3.461,-3.161 4.956,-4.956 1.129,-1.355 1.946,-2.944 3,-4.355 1.238,-1.652 3.905,-4.806 3.905,-4.806 z"
       inkscape:connector-curvature="0"
       style="stroke:#000000;stroke-width:6.05000019" />
  </defs>
  <path
     style="fill:#ffffff;fill-rule:evenodd;stroke:none;stroke-width:11;stroke-linecap:round;stroke-linejoin:round;stroke-miterlimit:4;stroke-dasharray:none;stroke-opacity:1"
     inkscape:connector-curvature="0"
     d="M 716.13972,5.499998 682.51522,449.89943 C 674.60582,636.83256 550.33392,784.88198 360.81982,784.98664 171.47612,784.75722 47.145843,636.65466 39.124443,449.89943 L 5.4999434,5.499998 H 360.81132 Z"
     id="path10563-0-6-2-6-3"
     sodipodi:nodetypes="ccccccc" />
  <path
     style="fill:#da121a;fill-opacity:1;stroke:#000000;stroke-width:5.10064316;stroke-linecap:round;stroke-linejoin:round"
     d="M 278.7207 300.70312 L 197.7793 358.60938 L 118.13672 301.64062 L 32.541016 362.89258 L 39.125 449.90039 C 39.431083 457.02664 39.926423 464.08808 40.568359 471.0957 L 118.13672 415.57422 L 197.77734 472.54297 L 199.14453 473.54297 L 278.75391 416.54297 L 277.38867 415.57422 L 278.7207 414.63672 L 280.08789 415.60547 L 278.75391 416.54297 L 358.36523 473.51172 L 439.30859 415.57422 L 440.67383 416.57422 L 439.3418 417.51172 L 518.95117 474.48047 L 599.89453 416.54297 L 680.78125 474.39453 C 681.57849 466.30997 682.16676 458.1456 682.51562 449.90039 L 688.8457 366.25 L 599.89258 302.61328 L 520.28125 359.61328 L 439.30664 301.64453 L 359.69727 358.64453 L 278.72266 300.70703 L 278.7207 300.70312 z "
     id="path889" />
  <path
     style="fill:none;fill-rule:evenodd;stroke:#000000;stroke-width:11;stroke-linecap:round;stroke-linejoin:round;stroke-miterlimit:4;stroke-dasharray:none;stroke-opacity:1"
     inkscape:connector-curvature="0"
     d="M 716.13971,5.5 682.51519,449.89943 C 674.60585,636.83256 550.33396,784.88198 360.81986,784.98664 171.47616,784.75722 47.145857,636.65466 39.124457,449.89943 L 5.4999568,5.5 H 360.81136 Z"
     id="path10563-0-6-2-6"
     sodipodi:nodetypes="ccccccc" />
  <use
     style="fill:#0f47af;stroke:#000000;stroke-opacity:1;stroke-width:6.04894809;stroke-miterlimit:4;stroke-dasharray:none;stroke-linecap:round;stroke-linejoin:round"
     xlink:href="#0"
     width="707.78003"
     height="772.54999"
     id="use911"
     x="0"
     y="0"
     transform="matrix(0.82659,0,0,0.82659,624.58981,-59.966386)" />
  <use
     style="fill:#0f47af;stroke:#000000;stroke-opacity:1;stroke-width:6.04894809;stroke-miterlimit:4;stroke-dasharray:none;stroke-linecap:round;stroke-linejoin:round"
     xlink:href="#2"
     id="use913"
     x="0"
     y="0"
     width="100%"
     height="100%"
     transform="matrix(0.82659,0,0,0.82659,624.58981,-59.966386)" />
  <use
     style="fill:#0f47af;stroke:#000000;stroke-opacity:1;stroke-width:6.04894809;stroke-miterlimit:4;stroke-dasharray:none;stroke-linecap:round;stroke-linejoin:round"
     xlink:href="#1"
     width="707.78003"
     height="772.54999"
     id="use915"
     x="0"
     y="0"
     transform="matrix(0.82659,0,0,0.82659,624.58981,-59.966386)" />
  <path
     d="m 188.92731,171.11511 c -2.9708,0 -5.3472,3.8577 -5.3472,8.68085 v 2.5583 c 0,4.82398 2.3756,8.723 5.3472,8.723 h 26.6327 15.8375 26.6327 c 2.9708,0 5.3472,-3.89902 5.3472,-8.723 v -2.5583 c 0,-4.82398 -2.3756,-8.68085 -5.3472,-8.68085 h -26.5253 -16.0408 -26.5253 z"
     id="3"
     inkscape:connector-curvature="0"
     style="fill:#fcdd09;fill-opacity:1;stroke:#000000;stroke-width:5;stroke-linecap:round;stroke-opacity:1;stroke-miterlimit:4;stroke-dasharray:none" />
  <use
     style="fill:#0f47af;stroke:#000000;stroke-opacity:1;stroke-width:6.04894809;stroke-miterlimit:4;stroke-dasharray:none;stroke-linecap:round;stroke-linejoin:round"
     xlink:href="#0"
     width="707.78003"
     height="772.54999"
     id="use911-5"
     x="0"
     y="0"
     transform="matrix(0.82659,0,0,0.82659,899.28025,-59.966386)" />
  <use
     style="fill:#0f47af;stroke:#000000;stroke-opacity:1;stroke-width:6.04894809;stroke-miterlimit:4;stroke-dasharray:none;stroke-linecap:round;stroke-linejoin:round"
     xlink:href="#2"
     id="use913-1"
     x="0"
     y="0"
     width="100%"
     height="100%"
     transform="matrix(0.82659,0,0,0.82659,899.28025,-59.966386)" />
  <use
     style="fill:#0f47af;stroke:#000000;stroke-opacity:1;stroke-width:6.04894809;stroke-miterlimit:4;stroke-dasharray:none;stroke-linecap:round;stroke-linejoin:round"
     xlink:href="#1"
     width="707.78003"
     height="772.54999"
     id="use915-7"
     x="0"
     y="0"
     transform="matrix(0.82659,0,0,0.82659,899.28025,-59.966386)" />
  <path
     d="m 463.61775,171.11511 c -2.9708,0 -5.3472,3.8577 -5.3472,8.68085 v 2.5583 c 0,4.82398 2.3756,8.723 5.3472,8.723 h 26.6327 15.8375 26.6327 c 2.9708,0 5.3472,-3.89902 5.3472,-8.723 v -2.5583 c 0,-4.82398 -2.3756,-8.68085 -5.3472,-8.68085 h -26.5253 -16.0408 -26.5253 z"
     id="3-7"
     inkscape:connector-curvature="0"
     style="fill:#fcdd09;fill-opacity:1;stroke:#000000;stroke-width:5;stroke-linecap:round;stroke-opacity:1;stroke-miterlimit:4;stroke-dasharray:none" />
  <use
     style="fill:#0f47af;stroke:#000000;stroke-opacity:1;stroke-width:6.04894809;stroke-miterlimit:4;stroke-dasharray:none;stroke-linecap:round;stroke-linejoin:round"
     xlink:href="#0"
     width="707.78003"
     height="772.54999"
     id="use911-1"
     x="0"
     y="0"
     transform="matrix(0.82659,0,0,0.82659,761.93503,408.60033)" />
  <use
     style="fill:#0f47af;stroke:#000000;stroke-opacity:1;stroke-width:6.04894809;stroke-miterlimit:4;stroke-dasharray:none;stroke-linecap:round;stroke-linejoin:round"
     xlink:href="#2"
     id="use913-8"
     x="0"
     y="0"
     width="100%"
     height="100%"
     transform="matrix(0.82659,0,0,0.82659,761.93503,408.60033)" />
  <use
     style="fill:#0f47af;stroke:#000000;stroke-opacity:1;stroke-width:6.04894809;stroke-miterlimit:4;stroke-dasharray:none;stroke-linecap:round;stroke-linejoin:round"
     xlink:href="#1"
     width="707.78003"
     height="772.54999"
     id="use915-1"
     x="0"
     y="0"
     transform="matrix(0.82659,0,0,0.82659,761.93503,408.60033)" />
  <path
     d="m 326.27253,639.68183 c -2.9708,0 -5.3472,3.8577 -5.3472,8.68085 v 2.5583 c 0,4.82398 2.3756,8.723 5.3472,8.723 h 26.6327 15.8375 26.6327 c 2.9708,0 5.3472,-3.89902 5.3472,-8.723 v -2.5583 c 0,-4.82398 -2.3756,-8.68085 -5.3472,-8.68085 h -26.5253 -16.0408 -26.5253 z"
     id="3-2"
     inkscape:connector-curvature="0"
     style="fill:#fcdd09;fill-opacity:1;stroke:#000000;stroke-width:5;stroke-linecap:round;stroke-miterlimit:4;stroke-dasharray:none;stroke-opacity:1" />
</svg>
