<?xml version="1.0" encoding="UTF-8" standalone="no"?>
<svg
   xmlns:dc="http://purl.org/dc/elements/1.1/"
   xmlns:cc="http://creativecommons.org/ns#"
   xmlns:rdf="http://www.w3.org/1999/02/22-rdf-syntax-ns#"
   xmlns:svg="http://www.w3.org/2000/svg"
   xmlns="http://www.w3.org/2000/svg"
   xmlns:sodipodi="http://sodipodi.sourceforge.net/DTD/sodipodi-0.dtd"
   xmlns:inkscape="http://www.inkscape.org/namespaces/inkscape"
   viewBox="0 0 673.68961 755.42445"
   version="1.1"
   id="svg1019"
   sodipodi:docname="Wappen_Ermershausen.svg"
   inkscape:version="0.92.5 (2060ec1f9f, 2020-04-08)"
   width="673.68964"
   height="755.42444">
  <metadata
     id="metadata1025">
    <rdf:RDF>
      <cc:Work
         rdf:about="">
        <dc:format>image/svg+xml</dc:format>
        <dc:type
           rdf:resource="http://purl.org/dc/dcmitype/StillImage" />
        <dc:title></dc:title>
      </cc:Work>
    </rdf:RDF>
  </metadata>
  <defs
     id="defs1023">
    <inkscape:path-effect
       effect="spiro"
       id="path-effect3043"
       is_visible="true" />
    <inkscape:path-effect
       effect="spiro"
       id="path-effect3038"
       is_visible="true" />
    <inkscape:path-effect
       effect="spiro"
       id="path-effect3034"
       is_visible="true" />
    <inkscape:path-effect
       effect="spiro"
       id="path-effect2994"
       is_visible="true" />
    <inkscape:path-effect
       effect="spiro"
       id="path-effect2970"
       is_visible="true" />
    <inkscape:path-effect
       effect="spiro"
       id="path-effect2965"
       is_visible="true" />
    <inkscape:path-effect
       effect="spiro"
       id="path-effect2940"
       is_visible="true" />
    <inkscape:path-effect
       effect="spiro"
       id="path-effect2935"
       is_visible="true" />
    <inkscape:path-effect
       effect="spiro"
       id="path-effect2930"
       is_visible="true" />
    <inkscape:path-effect
       effect="spiro"
       id="path-effect2926"
       is_visible="true" />
    <inkscape:path-effect
       effect="spiro"
       id="path-effect2922"
       is_visible="true" />
    <inkscape:path-effect
       effect="spiro"
       id="path-effect2917"
       is_visible="true" />
    <inkscape:path-effect
       effect="spiro"
       id="path-effect2902"
       is_visible="true" />
    <inkscape:path-effect
       effect="spiro"
       id="path-effect2898"
       is_visible="true" />
    <inkscape:path-effect
       effect="spiro"
       id="path-effect2858"
       is_visible="true" />
    <inkscape:path-effect
       effect="spiro"
       id="path-effect2853"
       is_visible="true" />
    <inkscape:path-effect
       effect="spiro"
       id="path-effect2849"
       is_visible="true" />
    <inkscape:path-effect
       effect="spiro"
       id="path-effect2801"
       is_visible="true" />
    <inkscape:path-effect
       effect="spiro"
       id="path-effect2760"
       is_visible="true" />
    <inkscape:path-effect
       effect="spiro"
       id="path-effect2760-5"
       is_visible="true" />
    <inkscape:path-effect
       effect="spiro"
       id="path-effect2801-5"
       is_visible="true" />
    <inkscape:path-effect
       effect="spiro"
       id="path-effect2858-2"
       is_visible="true" />
    <inkscape:path-effect
       effect="spiro"
       id="path-effect2858-3"
       is_visible="true" />
    <inkscape:path-effect
       effect="spiro"
       id="path-effect2940-3"
       is_visible="true" />
    <inkscape:path-effect
       effect="spiro"
       id="path-effect2970-3"
       is_visible="true" />
    <inkscape:path-effect
       effect="spiro"
       id="path-effect2994-5"
       is_visible="true" />
    <inkscape:path-effect
       effect="spiro"
       id="path-effect3043-3"
       is_visible="true" />
    <inkscape:path-effect
       effect="spiro"
       id="path-effect3043-1"
       is_visible="true" />
    <inkscape:path-effect
       effect="spiro"
       id="path-effect3043-3-6"
       is_visible="true" />
    <inkscape:path-effect
       effect="spiro"
       id="path-effect3043-1-3"
       is_visible="true" />
    <inkscape:path-effect
       effect="spiro"
       id="path-effect3043-3-6-5"
       is_visible="true" />
    <inkscape:path-effect
       effect="spiro"
       id="path-effect3043-9"
       is_visible="true" />
    <inkscape:path-effect
       effect="spiro"
       id="path-effect3043-3-5"
       is_visible="true" />
    <inkscape:path-effect
       effect="spiro"
       id="path-effect3043-9-0"
       is_visible="true" />
    <inkscape:path-effect
       effect="spiro"
       id="path-effect3043-3-5-1"
       is_visible="true" />
    <inkscape:path-effect
       effect="spiro"
       id="path-effect3043-9-0-3"
       is_visible="true" />
    <inkscape:path-effect
       effect="spiro"
       id="path-effect3043-3-5-1-0"
       is_visible="true" />
    <inkscape:path-effect
       effect="spiro"
       id="path-effect2858-4"
       is_visible="true" />
    <inkscape:path-effect
       effect="spiro"
       id="path-effect2858-2-8"
       is_visible="true" />
    <inkscape:path-effect
       effect="spiro"
       id="path-effect2922-9"
       is_visible="true" />
    <inkscape:path-effect
       effect="spiro"
       id="path-effect2926-4"
       is_visible="true" />
    <inkscape:path-effect
       effect="spiro"
       id="path-effect3043-8"
       is_visible="true" />
    <inkscape:path-effect
       effect="spiro"
       id="path-effect3043-3-3"
       is_visible="true" />
    <inkscape:path-effect
       effect="spiro"
       id="path-effect3043-1-8"
       is_visible="true" />
    <inkscape:path-effect
       effect="spiro"
       id="path-effect3043-3-6-2"
       is_visible="true" />
    <inkscape:path-effect
       effect="spiro"
       id="path-effect3043-1-3-9"
       is_visible="true" />
    <inkscape:path-effect
       effect="spiro"
       id="path-effect3043-3-6-5-1"
       is_visible="true" />
    <inkscape:path-effect
       effect="spiro"
       id="path-effect3043-9-6"
       is_visible="true" />
    <inkscape:path-effect
       effect="spiro"
       id="path-effect3043-3-5-3"
       is_visible="true" />
    <inkscape:path-effect
       effect="spiro"
       id="path-effect3043-9-0-6"
       is_visible="true" />
    <inkscape:path-effect
       effect="spiro"
       id="path-effect3043-3-5-1-2"
       is_visible="true" />
    <inkscape:path-effect
       effect="spiro"
       id="path-effect3043-9-0-3-5"
       is_visible="true" />
    <inkscape:path-effect
       effect="spiro"
       id="path-effect3043-3-5-1-0-0"
       is_visible="true" />
    <inkscape:path-effect
       effect="spiro"
       id="path-effect2858-4-6"
       is_visible="true" />
    <inkscape:path-effect
       effect="spiro"
       id="path-effect2858-2-8-6"
       is_visible="true" />
    <inkscape:path-effect
       effect="spiro"
       id="path-effect2922-9-3"
       is_visible="true" />
    <inkscape:path-effect
       effect="spiro"
       id="path-effect2926-4-9"
       is_visible="true" />
    <inkscape:path-effect
       effect="spiro"
       id="path-effect3043-8-0"
       is_visible="true" />
    <inkscape:path-effect
       effect="spiro"
       id="path-effect3043-3-3-7"
       is_visible="true" />
    <inkscape:path-effect
       effect="spiro"
       id="path-effect3043-1-8-5"
       is_visible="true" />
    <inkscape:path-effect
       effect="spiro"
       id="path-effect3043-3-6-2-6"
       is_visible="true" />
    <inkscape:path-effect
       effect="spiro"
       id="path-effect3043-1-3-9-2"
       is_visible="true" />
    <inkscape:path-effect
       effect="spiro"
       id="path-effect3043-3-6-5-1-8"
       is_visible="true" />
    <inkscape:path-effect
       effect="spiro"
       id="path-effect3043-9-6-9"
       is_visible="true" />
    <inkscape:path-effect
       effect="spiro"
       id="path-effect3043-3-5-3-3"
       is_visible="true" />
    <inkscape:path-effect
       effect="spiro"
       id="path-effect3043-9-0-6-1"
       is_visible="true" />
    <inkscape:path-effect
       effect="spiro"
       id="path-effect3043-3-5-1-2-4"
       is_visible="true" />
    <inkscape:path-effect
       effect="spiro"
       id="path-effect3043-9-0-3-5-2"
       is_visible="true" />
    <inkscape:path-effect
       effect="spiro"
       id="path-effect3043-3-5-1-0-0-4"
       is_visible="true" />
  </defs>
  <sodipodi:namedview
     pagecolor="#ffffff"
     bordercolor="#666666"
     borderopacity="1"
     objecttolerance="10"
     gridtolerance="10"
     guidetolerance="10"
     inkscape:pageopacity="0"
     inkscape:pageshadow="2"
     inkscape:window-width="1920"
     inkscape:window-height="1046"
     id="namedview1021"
     showgrid="false"
     inkscape:zoom="1.049741"
     inkscape:cx="336.84482"
     inkscape:cy="377.71222"
     inkscape:window-x="-11"
     inkscape:window-y="-11"
     inkscape:window-maximized="1"
     inkscape:current-layer="svg1019"
     inkscape:snap-global="false"
     fit-margin-top="0"
     fit-margin-left="0"
     fit-margin-right="0"
     fit-margin-bottom="0"
     inkscape:snap-midpoints="true"
     inkscape:snap-smooth-nodes="true" />
  <path
     style="fill:#da121a;fill-opacity:1;fill-rule:evenodd;stroke:none;stroke-width:8;stroke-linecap:round;stroke-linejoin:round;stroke-miterlimit:4;stroke-dasharray:none;stroke-opacity:1"
     inkscape:connector-curvature="0"
     d="M 669.68965,4.0000017 668.16786,430.12019 C 660.75881,609.3643 514.37161,751.32407 336.84483,751.42443 159.47775,751.20431 13.035759,609.19369 5.5217893,430.12019 L 3.9999993,4.0000017 H 336.83685 Z"
     id="path10563-0-6-2-2-5"
     sodipodi:nodetypes="ccccccc" />
  <path
     inkscape:connector-curvature="0"
     style="opacity:1;fill:#fcdd09;fill-opacity:1;fill-rule:evenodd;stroke:#000000;stroke-width:8;stroke-linecap:round;stroke-linejoin:round;stroke-miterlimit:4;stroke-dasharray:none;stroke-opacity:1;paint-order:markers fill stroke"
     d="M 91.6088,4.000003 654.15372,513.54492 c 7.9826,-26.54686 12.8179,-54.49498 14.01367,-83.42383 l 0.17774,-49.6875 L 252.75724,4.000003 Z M 4.30216,88.837894 4.8256,235.27734 515.87443,698.17969 c 30.52351,-19.86443 57.64524,-44.65405 80.24804,-73.2793 z"
     id="rect2657-1" />
  <path
     style="fill:none;fill-rule:evenodd;stroke:#000000;stroke-width:8;stroke-linecap:round;stroke-linejoin:round;stroke-miterlimit:4;stroke-dasharray:none;stroke-opacity:1"
     inkscape:connector-curvature="0"
     d="m 669.68965,4 -1.52179,426.12019 C 660.75881,609.3643 514.37161,751.32407 336.84483,751.42443 159.47775,751.20431 13.035759,609.19369 5.5217886,430.12019 L 3.9999986,4 H 336.83685 Z"
     id="path10563-0-6-2-2"
     sodipodi:nodetypes="ccccccc" />
  <path
     style="fill:#000000;stroke:#000000;stroke-width:1px;stroke-linecap:butt;stroke-linejoin:miter;stroke-opacity:1"
     d="m 553.66478,58.63685 -49.45059,-2.962325 c -5.57245,11.467106 -10.48356,23.275939 -14.70218,35.351324 -5.03433,14.410751 -9.08354,29.201761 -12.10831,44.240141 -8.13504,-8.16333 -17.96519,-14.63643 -28.61735,-18.84486 -17.27816,-6.82628 -36.35053,-7.5684 -54.18923,-4.19525 -19.03285,3.59884 -36.98431,11.81478 -51.85914,23.79574 -14.36292,11.56878 -25.66331,26.3675 -37.81615,40.22133 -20.24066,23.07357 -43.14003,43.79531 -68.12541,61.70308 -20.09852,14.4053 -41.80145,27.10343 -65.76229,34.10074 -11.72886,3.42519 -23.90889,5.45488 -36.21275,6.25889 -4.51948,0.29531 -9.06245,0.42553 -13.54843,0.9661 -4.01386,0.48382 -7.98419,1.29975 -11.75693,2.6505 -6.65566,2.38283 -12.532827,6.36617 -18.597475,9.92335 -3.91228,2.29479 -7.924981,4.42253 -11.980515,6.46954 -7.731808,3.90261 -15.622078,7.512 -23.649188,10.81686 5.088229,9.90871 10.272271,19.83522 16.414825,29.1376 22.733536,34.42802 47.640213,67.61697 75.312013,98.2172 34.03351,37.63517 71.24428,72.62079 110.9039,104.27202 1.92445,1.53584 3.85909,3.0591 5.80047,4.57431 a 37.106758,37.106758 0 0 0 -19.08082,10.82809 37.106758,37.106758 0 0 0 1.61796,52.45147 37.106758,37.106758 0 0 0 1.88002,1.59872 c -2.84292,6.90599 -5.65666,13.82519 -8.41016,20.7695 -3.7488,9.45433 -7.41426,18.94485 -10.99578,28.46667 1.76684,1.81457 3.63412,3.5137 5.8216,4.72015 5.50169,3.0341 11.6404,5.11328 17.85316,6.04887 2.47032,0.37204 4.98487,0.15789 7.49083,-0.20873 2.94501,-9.73754 5.80484,-19.5004 8.57601,-29.28604 2.09083,-7.38318 4.11598,-14.78379 6.10715,-22.19221 a 37.106758,37.106758 0 0 0 24.12735,-11.53346 37.106758,37.106758 0 0 0 9.84863,-29.32806 c 16.97047,11.33887 34.36729,22.05114 52.03369,32.21259 9.66299,5.55802 19.88991,10.12092 30.09317,14.58928 2.80425,-8.21539 5.92081,-16.31303 9.33994,-24.27043 1.7933,-4.17397 3.66988,-8.31008 5.71946,-12.35619 3.17695,-6.2722 6.78934,-12.38489 8.75777,-19.17466 1.11585,-3.84876 1.6858,-7.86173 1.92144,-11.89783 0.26343,-4.51063 0.11487,-9.05182 0.1313,-13.58091 0.0448,-12.33003 1.31915,-24.61324 4.01554,-36.53077 5.50837,-24.34634 16.84609,-46.78986 29.98625,-67.73742 16.33518,-26.0407 35.60869,-50.17148 57.39199,-71.79466 13.07905,-12.983 27.15385,-25.17323 37.81615,-40.22133 11.04219,-15.58441 18.13703,-34.00776 20.55694,-53.22612 2.26811,-18.01263 0.35287,-37.00311 -7.52442,-53.82802 -4.85651,-10.37284 -11.92401,-19.78694 -20.57289,-27.40388 14.82356,-3.94514 29.33721,-8.89746 43.4105,-14.80977 11.79275,-4.95418 23.27818,-10.58182 34.38028,-16.84994 l -6.00201,-49.1743 -28.1732,-26.488484 z"
     id="path2758-1"
     inkscape:connector-curvature="0" />
  <path
     style="fill:#ffffff;stroke:none;stroke-width:1px;stroke-linecap:butt;stroke-linejoin:miter;stroke-opacity:1"
     d="m 556.19249,71.476666 c 0.0412,4.548376 0.7277,9.294515 2.96491,13.216007 5.55666,9.739981 14.44533,18.097087 24.50901,23.043407 4.05204,1.99167 8.83122,2.38438 13.37351,2.1454 -4.61263,-3.43051 -9.11867,-7.00415 -13.50909,-10.714782 -2.76433,-2.336306 -5.4828,-4.727217 -8.15349,-7.169968 -2.60266,-2.515257 -5.1563,-5.081196 -7.6584,-7.696395 -3.97397,-4.153576 -7.81847,-8.431128 -11.52645,-12.823669 z m -27.43143,22.501259 c -1.63892,-1.626678 -3.91591,-2.58844 -6.22824,-2.75945 -2.6337,-0.194755 -5.26626,0.575572 -7.62235,1.768638 -4.36573,2.210799 -7.89545,5.833774 -10.63991,9.885357 -2.74453,4.05152 -4.76028,8.54545 -6.69324,13.0411 -2.89435,6.73193 -5.62683,13.53257 -8.20908,20.39023 -3.3777,-3.01271 -6.82456,-5.94732 -10.27988,-8.87162 -0.47925,2.11939 -0.94045,4.24368 -1.37867,6.3736 4.56564,3.94734 9.02534,8.01642 13.47557,12.09337 12.00219,10.99545 23.86314,22.14711 35.57684,33.4494 4.34274,4.19026 8.6781,8.39026 12.8989,12.70395 2.09881,-0.56862 4.19066,-1.15977 6.27653,-1.76864 -3.40912,-3.55841 -6.81966,-7.11648 -10.33628,-10.568 -3.88276,-3.81088 -7.79058,-7.59699 -11.71638,-11.36427 2.58731,-1.56629 5.14862,-3.17472 7.65681,-4.86475 8.10928,-5.46368 15.90287,-11.62591 24.99309,-15.22863 2.2237,-0.88131 4.51695,-1.60666 6.64294,-2.70288 2.12598,-1.09622 4.11435,-2.61527 5.28387,-4.70182 0.53291,-0.95089 0.88556,-2.00891 0.97956,-3.09489 0.094,-1.08598 -0.0767,-2.20011 -0.5349,-3.1891 -0.73628,-1.58905 -2.23158,-2.80089 -3.93581,-3.2045 -1.68775,-0.39969 -3.48713,-0.0281 -5.05737,0.70857 -1.57031,0.7366 -2.94912,1.81799 -4.3002,2.90564 -8.61612,6.93606 -16.72006,14.50693 -25.57793,21.13149 -3.5819,2.67875 -7.28752,5.1917 -11.09214,7.54338 -1.92526,-1.83017 -3.84092,-3.67026 -5.77625,-5.48986 -5.00306,-4.70388 -10.05245,-9.35745 -15.12165,-13.98952 0.42412,-0.75592 0.87377,-1.49754 1.35762,-2.21668 1.7213,-2.55838 3.80555,-4.85958 6.05552,-6.96811 7.03929,-6.59693 15.82993,-11.47008 21.41068,-19.3394 2.59687,-3.6619 4.41887,-7.95135 4.73479,-12.42948 0.1054,-1.49432 0.0415,-3.00803 -0.29522,-4.467695 -0.33676,-1.459661 -0.95285,-2.866907 -1.88616,-4.038661 -0.20635,-0.259073 -0.42695,-0.504449 -0.66104,-0.736788 z m -62.2591,45.458375 c -1.74806,-1.6436 -3.62346,-3.3011 -5.85096,-4.19285 -6.6383,-2.65749 -14.1392,-3.81179 -21.24214,-2.98888 -13.64692,1.58107 -26.46599,8.14906 -38.41911,14.92115 -13.33701,7.5561 -24.47715,18.47424 -36.31542,28.21211 -33.90065,27.88584 -62.57948,62.35913 -99.32847,86.46224 -16.74156,10.98053 -34.91304,19.77705 -53.91055,26.09734 8.27612,0.53256 16.64139,-0.35614 24.62038,-2.61725 14.39866,-4.08023 27.17425,-12.46142 39.18129,-21.39454 31.58007,-23.4953 57.49277,-53.85745 88.42972,-78.15796 17.60438,-13.82804 34.38015,-29.94944 55.12871,-38.35346 10.67155,-4.32241 22.57613,-5.6257 34.08964,-5.56616 6.14437,0.0318 12.26453,1.37903 18.16067,3.15854 -1.25508,-2.05333 -2.7962,-3.93717 -4.54376,-5.58028 z m -39.82532,226.53407 c -9.15038,14.58792 -18.00364,29.36172 -26.5535,44.30949 -1.28937,2.25431 -2.57879,4.52619 -3.46895,6.96584 -0.37219,1.01996 -0.67617,2.10811 -0.51131,3.18126 0.11684,0.7604 0.47768,1.48539 1.03354,2.01726 0.55561,0.53199 1.30852,0.86217 2.07765,0.88108 0.91223,0.0223 1.80083,-0.38761 2.47557,-1.00205 0.5637,-0.51342 0.99056,-1.16305 1.33031,-1.84559 0.33967,-0.68259 0.5974,-1.40197 0.86193,-2.11706 0.79634,-2.15285 1.66991,-4.27485 2.57217,-6.38546 4.63396,-10.84047 10.0066,-21.35417 14.67271,-32.18081 1.96377,-4.5563 3.80079,-9.16612 5.50988,-13.82396 z m 15.63821,22.59005 c -6.58909,11.18955 -12.95364,22.51227 -19.08519,33.9568 -0.92467,1.72598 -1.84805,3.46343 -2.46962,5.31841 -0.25988,0.77554 -0.46804,1.60134 -0.32391,2.40309 0.10218,0.56812 0.38688,1.10401 0.81416,1.48929 0.42728,0.38526 0.99846,0.61325 1.57596,0.60778 0.68501,-0.007 1.3442,-0.33653 1.83878,-0.81527 0.41319,-0.40005 0.71996,-0.8986 0.96213,-1.41968 0.24188,-0.52136 0.42175,-1.068 0.60665,-1.61182 0.55664,-1.63717 1.17121,-3.2545 1.80801,-4.86276 3.27148,-8.25949 7.10419,-16.29181 10.39968,-24.54209 1.38692,-3.47209 2.67947,-6.98192 3.87335,-10.52375 z M 323.3101,361.71839 c -13.28391,-12.48132 -27.32003,-24.22623 -42.95565,-33.55355 -6.8982,-4.11509 -14.08515,-7.74407 -21.49144,-10.85291 10.92449,8.62368 21.73037,17.39657 32.41393,26.31767 16.08804,13.43394 31.91098,27.21408 46.8219,41.94439 18.60684,18.38149 35.76533,38.2201 51.37075,59.20982 5.92199,7.96525 11.62034,16.09759 17.08759,24.38168 -9.49018,-18.76337 -20.72475,-36.64311 -33.5133,-53.33383 -13.33331,-17.40172 -28.32725,-33.4836 -44.08504,-48.72458 -1.86955,-1.80826 -3.75107,-3.60568 -5.64877,-5.38866 z m -25.20078,30.2765 c -5.96534,-5.57006 -12.02188,-11.04268 -18.16705,-16.41316 -30.45517,-26.61587 -63.16449,-50.81365 -98.5834,-70.34361 -14.37128,-7.92429 -29.17133,-15.07195 -44.31369,-21.39946 19.561,11.0207 38.77092,22.66796 57.58725,34.91676 35.5414,23.13625 69.75658,48.48485 100.67643,77.5096 33.84099,31.76683 63.53903,67.75938 90.29894,105.68362 9.33686,13.2322 18.32554,26.70858 26.95526,40.41229 0.74773,-1.71428 1.23529,-3.53959 1.44059,-5.39856 0.24644,-2.2312 0.0849,-4.50714 -0.47399,-6.68125 -13.39426,-20.91169 -27.87901,-41.12543 -43.37667,-60.52973 -22.07029,-27.63376 -46.19396,-53.61961 -72.04367,-77.7565 z m -101.3827,-48.51033 c -0.53457,-0.50123 -1.07479,-0.99528 -1.62222,-1.48239 -7.40311,-6.58703 -15.93963,-11.86388 -25.02421,-15.82044 -5.56308,-2.42324 -11.33792,-4.35834 -17.23689,-5.77774 5.0043,4.04473 10.19238,7.86276 15.54183,11.43835 7.95461,5.31693 16.25603,10.09141 24.5275,14.90038 4.68726,2.72513 9.36741,5.46379 14.04003,8.21413 -3.05551,-4.12022 -6.48291,-7.96503 -10.22601,-11.47232 z m 64.13147,94.59763 c -2.16614,-2.05953 -4.34516,-4.1055 -6.53691,-6.13778 -36.32649,-33.688 -76.21451,-63.6646 -119.45881,-87.83945 -22.54223,-12.60176 -45.972865,-23.61627 -70.058469,-32.93516 13.938091,24.75144 29.392204,48.64929 46.245249,71.51589 29.89452,40.5616 64.16637,77.82984 101.38902,111.79172 19.69382,17.96861 40.30269,35.05112 61.99956,50.5338 l 23.39294,-58.67188 c 5.98056,6.75449 11.84524,13.61046 17.54859,20.59818 l -16.61236,54.42826 c 10.97393,6.9153 22.21802,13.39449 33.76949,19.32719 19.4304,9.97915 39.65181,18.41609 60.41341,25.2046 -13.35571,-22.99507 -27.90658,-45.29692 -43.57496,-66.78289 -26.41747,-36.22609 -56.0253,-70.13952 -88.51685,-101.03238 z m -8.84186,0.98129 c 14.00849,13.24863 27.54239,27.01183 40.48904,41.30093 l -18.51785,53.84307 c -21.64862,-14.99749 -42.09931,-31.73204 -61.53045,-49.5244 -34.16925,-31.28747 -65.28053,-65.8804 -93.1977,-102.85437 -13.89681,-18.40517 -27.007037,-37.40417 -39.28488,-56.92659 28.84661,11.74805 56.59655,26.19044 82.76921,43.07627 32.00961,20.65169 61.59645,44.91004 89.27263,71.08509 z m 69.0929,74.99558 c 5.5833,7.04197 11.02838,14.19517 16.30155,21.47386 11.51769,15.89741 22.26226,32.35433 32.18251,49.29457 -21.45212,-8.21644 -42.2546,-18.11481 -62.19083,-29.52708 z m -26.70878,49.17662 c 1.2964,4.55746 1.82799,9.33201 1.56784,14.06324 -0.43358,7.88376 -3.06136,15.55103 -6.93156,22.43312 -1.22028,2.16988 -2.56286,4.2707 -4.02189,6.28779 3.97873,-1.35231 7.58298,-3.78533 10.3264,-6.9685 3.53264,-4.09879 5.58912,-9.38962 6.03301,-14.78242 0.62249,-7.56366 -1.95566,-15.33997 -6.9738,-21.03323 z m -30.03772,-2.0311 c -0.55819,-0.47334 -1.1769,-0.8769 -1.83588,-1.1953 -1.31789,-0.63672 -2.79842,-0.93228 -4.25976,-0.8497 -2.60899,0.14743 -5.02689,1.47033 -7.03995,3.13653 -2.44524,2.02397 -4.43158,4.59957 -5.77035,7.47752 1.88028,-0.2264 3.72789,-0.72157 5.46931,-1.46598 2.91401,-1.24575 5.50675,-3.1733 8.46261,-4.31624 2.05087,-0.79297 4.25237,-1.19388 6.45105,-1.17294 -0.42172,-0.59804 -0.91892,-1.14062 -1.47703,-1.61389 z"
     id="path2847-2"
     inkscape:connector-curvature="0" />
  <path
     style="fill:none;stroke:#ffffff;stroke-width:6;stroke-linecap:butt;stroke-linejoin:miter;stroke-miterlimit:4;stroke-dasharray:none;stroke-opacity:1"
     d="m 1641.5502,631.84964 16.5073,39.89242"
     id="path2856-8"
     inkscape:connector-curvature="0"
     inkscape:path-effect="#path-effect2858-4-6"
     inkscape:original-d="m 1641.5502,631.84964 c 5.5034,13.29647 11.0059,26.59394 16.5073,39.89242"
     transform="rotate(43.234661,967.9772,-1124.4685)" />
  <path
     transform="rotate(43.234661,1133.4849,-1124.3277)"
     style="fill:none;stroke:#ffffff;stroke-width:6;stroke-linecap:butt;stroke-linejoin:miter;stroke-miterlimit:4;stroke-dasharray:none;stroke-opacity:1"
     d="m 1641.5502,631.84964 16.5073,39.89242"
     id="path2856-9-3"
     inkscape:connector-curvature="0"
     inkscape:path-effect="#path-effect2858-2-8-6"
     inkscape:original-d="m 1641.5502,631.84964 c 5.5034,13.29647 11.0059,26.59394 16.5073,39.89242" />
  <path
     style="fill:none;stroke:#ffffff;stroke-width:8;stroke-linecap:round;stroke-linejoin:miter;stroke-miterlimit:4;stroke-dasharray:none;stroke-opacity:1"
     d="m 1338.3956,486.55621 c -2.1924,4.19253 -4.1775,8.49349 -5.9455,12.8819 -1.6141,4.00642 -3.0474,8.08571 -4.2939,12.22128"
     id="path2920-9"
     inkscape:connector-curvature="0"
     inkscape:path-effect="#path-effect2922-9-3"
     inkscape:original-d="m 1338.3956,486.55621 c -1.9808,4.29297 -4.1688,8.49909 -5.9455,12.8819 -1.6222,4.00158 -2.8616,8.14652 -4.2939,12.22128"
     sodipodi:nodetypes="cac"
     transform="rotate(43.234661,967.9772,-1124.4685)" />
  <path
     style="fill:none;stroke:#ffffff;stroke-width:8;stroke-linecap:round;stroke-linejoin:round;stroke-miterlimit:4;stroke-dasharray:none;stroke-opacity:1"
     d="m 1700.4099,479.28951 c 2.7365,5.58542 5.1637,11.32239 7.2667,17.17585 1.4839,4.13016 2.8064,8.31827 3.9636,12.55159"
     id="path2924-6"
     inkscape:connector-curvature="0"
     inkscape:path-effect="#path-effect2926-4-9"
     inkscape:original-d="m 1700.4099,479.28951 c 2.4232,5.72428 4.8454,11.44957 7.2667,17.17585 2.4212,5.72629 2.6434,8.36673 3.9636,12.55159"
     transform="rotate(43.234661,967.9772,-1124.4685)" />
  <path
     style="fill:none;stroke:#ffffff;stroke-width:5;stroke-linecap:butt;stroke-linejoin:miter;stroke-miterlimit:4;stroke-dasharray:none;stroke-opacity:1"
     d="m 444.68466,354.36035 -32.65255,68.68042"
     id="path2961-1"
     inkscape:connector-curvature="0" />
  <path
     style="fill:none;stroke:#ffffff;stroke-width:5;stroke-linecap:round;stroke-linejoin:round;stroke-miterlimit:4;stroke-dasharray:none;stroke-opacity:1"
     d="m 1509.2747,107.40392 c -1.6284,-0.0386 -3.2564,-0.0989 -4.8832,-0.18086 -1.0253,-0.0517 -2.0503,-0.11196 -3.0746,-0.18086"
     id="path3041-1"
     inkscape:connector-curvature="0"
     inkscape:path-effect="#path-effect3043-8-0"
     inkscape:original-d="m 1509.2747,107.40392 c -1.6267,-0.0613 -3.2562,-0.10289 -4.8832,-0.18086 -1.0255,-0.0491 -2.0488,-0.12157 -3.0746,-0.18086"
     sodipodi:nodetypes="cac"
     transform="rotate(43.234661,967.9772,-1124.4685)" />
  <path
     transform="matrix(-0.72855438,-0.68498797,-0.68498797,0.72855438,1691.6832,1099.3852)"
     style="fill:none;stroke:#ffffff;stroke-width:5;stroke-linecap:round;stroke-linejoin:round;stroke-miterlimit:4;stroke-dasharray:none;stroke-opacity:1"
     d="m 1509.2747,107.40392 c -1.6284,-0.0386 -3.2564,-0.0989 -4.8832,-0.18086 -1.0253,-0.0517 -2.0503,-0.11196 -3.0746,-0.18086"
     id="path3041-0-1"
     inkscape:connector-curvature="0"
     inkscape:path-effect="#path-effect3043-3-3-7"
     inkscape:original-d="m 1509.2747,107.40392 c -1.6267,-0.0613 -3.2562,-0.10289 -4.8832,-0.18086 -1.0255,-0.0491 -2.0488,-0.12157 -3.0746,-0.18086"
     sodipodi:nodetypes="cac" />
  <path
     style="fill:none;stroke:#ffffff;stroke-width:6.06207323;stroke-linecap:round;stroke-linejoin:round;stroke-miterlimit:4;stroke-dasharray:none;stroke-opacity:1"
     d="m 1509.2747,107.40392 c -1.6284,-0.0386 -3.2564,-0.0989 -4.8832,-0.18086 -1.0253,-0.0517 -2.0503,-0.11196 -3.0746,-0.18086"
     id="path3041-3-5"
     inkscape:connector-curvature="0"
     inkscape:path-effect="#path-effect3043-1-8-5"
     inkscape:original-d="m 1509.2747,107.40392 c -1.6267,-0.0613 -3.2562,-0.10289 -4.8832,-0.18086 -1.0255,-0.0491 -2.0488,-0.12157 -3.0746,-0.18086"
     sodipodi:nodetypes="cac"
     transform="matrix(0.52488608,0.43277791,-0.63616155,0.77155588,-177.26435,-564.65419)" />
  <path
     transform="matrix(-0.52488608,-0.43277791,-0.63616155,0.77155588,1407.1302,741.70731)"
     style="fill:none;stroke:#ffffff;stroke-width:6.06207323;stroke-linecap:round;stroke-linejoin:round;stroke-miterlimit:4;stroke-dasharray:none;stroke-opacity:1"
     d="m 1509.2747,107.40392 c -1.6284,-0.0386 -3.2564,-0.0989 -4.8832,-0.18086 -1.0253,-0.0517 -2.0503,-0.11196 -3.0746,-0.18086"
     id="path3041-0-4-7"
     inkscape:connector-curvature="0"
     inkscape:path-effect="#path-effect3043-3-6-2-6"
     inkscape:original-d="m 1509.2747,107.40392 c -1.6267,-0.0613 -3.2562,-0.10289 -4.8832,-0.18086 -1.0255,-0.0491 -2.0488,-0.12157 -3.0746,-0.18086"
     sodipodi:nodetypes="cac" />
  <path
     style="fill:none;stroke:#ffffff;stroke-width:6.66521263;stroke-linecap:round;stroke-linejoin:round;stroke-miterlimit:4;stroke-dasharray:none;stroke-opacity:1"
     d="m 1509.2747,107.40392 c -1.6284,-0.0386 -3.2564,-0.0989 -4.8832,-0.18086 -1.0253,-0.0517 -2.0503,-0.11196 -3.0746,-0.18086"
     id="path3041-3-1-3"
     inkscape:connector-curvature="0"
     inkscape:path-effect="#path-effect3043-1-3-9-2"
     inkscape:original-d="m 1509.2747,107.40392 c -1.6267,-0.0613 -3.2562,-0.10289 -4.8832,-0.18086 -1.0255,-0.0491 -2.0488,-0.12157 -3.0746,-0.18086"
     sodipodi:nodetypes="cac"
     transform="matrix(-0.37882015,-0.4168881,-0.7227284,0.69016559,1139.2605,667.65113)" />
  <path
     transform="matrix(0.37882015,0.4168881,-0.7227284,0.69016559,-4.2268365,-590.74619)"
     style="fill:none;stroke:#ffffff;stroke-width:6.66521263;stroke-linecap:round;stroke-linejoin:round;stroke-miterlimit:4;stroke-dasharray:none;stroke-opacity:1"
     d="m 1509.2747,107.40392 c -1.6284,-0.0386 -3.2564,-0.0989 -4.8832,-0.18086 -1.0253,-0.0517 -2.0503,-0.11196 -3.0746,-0.18086"
     id="path3041-0-4-9-6"
     inkscape:connector-curvature="0"
     inkscape:path-effect="#path-effect3043-3-6-5-1-8"
     inkscape:original-d="m 1509.2747,107.40392 c -1.6267,-0.0613 -3.2562,-0.10289 -4.8832,-0.18086 -1.0255,-0.0491 -2.0488,-0.12157 -3.0746,-0.18086"
     sodipodi:nodetypes="cac" />
  <path
     style="fill:none;stroke:#ffffff;stroke-width:6.9903965;stroke-linecap:round;stroke-linejoin:round;stroke-miterlimit:4;stroke-dasharray:none;stroke-opacity:1"
     d="m 1509.2747,107.40392 c -1.6284,-0.0386 -3.2564,-0.0989 -4.8832,-0.18086 -1.0253,-0.0517 -2.0503,-0.11196 -3.0746,-0.18086"
     id="path3041-6-1"
     inkscape:connector-curvature="0"
     inkscape:path-effect="#path-effect3043-9-6-9"
     inkscape:original-d="m 1509.2747,107.40392 c -1.6267,-0.0613 -3.2562,-0.10289 -4.8832,-0.18086 -1.0255,-0.0491 -2.0488,-0.12157 -3.0746,-0.18086"
     sodipodi:nodetypes="cac"
     transform="matrix(0.95419758,0.89713806,-0.68498797,0.72855438,-818.48984,-1315.3475)" />
  <path
     transform="matrix(-0.95419758,-0.89713806,-0.68498797,0.72855438,2061.8027,1392.7081)"
     style="fill:none;stroke:#ffffff;stroke-width:6.9903965;stroke-linecap:round;stroke-linejoin:round;stroke-miterlimit:4;stroke-dasharray:none;stroke-opacity:1"
     d="m 1509.2747,107.40392 c -1.6284,-0.0386 -3.2564,-0.0989 -4.8832,-0.18086 -1.0253,-0.0517 -2.0503,-0.11196 -3.0746,-0.18086"
     id="path3041-0-9-4"
     inkscape:connector-curvature="0"
     inkscape:path-effect="#path-effect3043-3-5-3-3"
     inkscape:original-d="m 1509.2747,107.40392 c -1.6267,-0.0613 -3.2562,-0.10289 -4.8832,-0.18086 -1.0255,-0.0491 -2.0488,-0.12157 -3.0746,-0.18086"
     sodipodi:nodetypes="cac" />
  <path
     style="fill:none;stroke:#ffffff;stroke-width:6.56505632;stroke-linecap:round;stroke-linejoin:round;stroke-miterlimit:4;stroke-dasharray:none;stroke-opacity:1"
     d="m 1509.2747,107.40392 c -1.6284,-0.0386 -3.2564,-0.0989 -4.8832,-0.18086 -1.0253,-0.0517 -2.0503,-0.11196 -3.0746,-0.18086"
     id="path3041-6-6-4"
     inkscape:connector-curvature="0"
     inkscape:path-effect="#path-effect3043-9-0-6-1"
     inkscape:original-d="m 1509.2747,107.40392 c -1.6267,-0.0613 -3.2562,-0.10289 -4.8832,-0.18086 -1.0255,-0.0491 -2.0488,-0.12157 -3.0746,-0.18086"
     sodipodi:nodetypes="cac"
     transform="matrix(0.69831715,0.45828491,-0.54866839,0.83604007,-411.06971,-632.80851)" />
  <path
     transform="matrix(-0.69831715,-0.45828491,-0.54866839,0.83604007,1696.8351,750.54713)"
     style="fill:none;stroke:#ffffff;stroke-width:6.56505632;stroke-linecap:round;stroke-linejoin:round;stroke-miterlimit:4;stroke-dasharray:none;stroke-opacity:1"
     d="m 1509.2747,107.40392 c -1.6284,-0.0386 -3.2564,-0.0989 -4.8832,-0.18086 -1.0253,-0.0517 -2.0503,-0.11196 -3.0746,-0.18086"
     id="path3041-0-9-6-57"
     inkscape:connector-curvature="0"
     inkscape:path-effect="#path-effect3043-3-5-1-2-4"
     inkscape:original-d="m 1509.2747,107.40392 c -1.6267,-0.0613 -3.2562,-0.10289 -4.8832,-0.18086 -1.0255,-0.0491 -2.0488,-0.12157 -3.0746,-0.18086"
     sodipodi:nodetypes="cac" />
  <path
     style="fill:none;stroke:#ffffff;stroke-width:5.35113859;stroke-linecap:round;stroke-linejoin:round;stroke-miterlimit:4;stroke-dasharray:none;stroke-opacity:1"
     d="m 1509.2747,107.40392 c -1.6284,-0.0386 -3.2564,-0.0989 -4.8832,-0.18086 -1.0253,-0.0517 -2.0503,-0.11196 -3.0746,-0.18086"
     id="path3041-6-6-3-9"
     inkscape:connector-curvature="0"
     inkscape:path-effect="#path-effect3043-9-0-3-5-2"
     inkscape:original-d="m 1509.2747,107.40392 c -1.6267,-0.0613 -3.2562,-0.10289 -4.8832,-0.18086 -1.0255,-0.0491 -2.0488,-0.12157 -3.0746,-0.18086"
     sodipodi:nodetypes="cac"
     transform="matrix(-0.80320032,-0.95344417,-0.86431463,0.53926898,1814.5985,1454.0576)" />
  <path
     transform="matrix(0.80320032,0.95344417,-0.86431463,0.53926898,-609.90134,-1423.9607)"
     style="fill:none;stroke:#ffffff;stroke-width:5.35113859;stroke-linecap:round;stroke-linejoin:round;stroke-miterlimit:4;stroke-dasharray:none;stroke-opacity:1"
     d="m 1509.2747,107.40392 c -1.6284,-0.0386 -3.2564,-0.0989 -4.8832,-0.18086 -1.0253,-0.0517 -2.0503,-0.11196 -3.0746,-0.18086"
     id="path3041-0-9-6-5-9"
     inkscape:connector-curvature="0"
     inkscape:path-effect="#path-effect3043-3-5-1-0-0-4"
     inkscape:original-d="m 1509.2747,107.40392 c -1.6267,-0.0613 -3.2562,-0.10289 -4.8832,-0.18086 -1.0255,-0.0491 -2.0488,-0.12157 -3.0746,-0.18086"
     sodipodi:nodetypes="cac" />
</svg>
