<?xml version="1.0" encoding="UTF-8" standalone="no"?>
<!-- Created with Inkscape (http://www.inkscape.org/) -->
<svg
   xmlns:svg="http://www.w3.org/2000/svg"
   xmlns="http://www.w3.org/2000/svg"
   version="1.0"
   width="534.92859"
   height="592.07141"
   id="svg3084">
  <defs
     id="defs3086">
    <clipPath
       id="clipPath3143">
      <path
         d="M 0.029999,841.95 L 595.29,841.95 L 595.29,0.03 L 0.029999,0.03 L 0.029999,841.95 z"
         id="path3145" />
    </clipPath>
    <clipPath
       id="clipPath3137">
      <path
         d="M -0.138,841.445 L 595.138,841.445 L 595.138,-0.445 L -0.138,-0.445 L -0.138,841.445 z"
         id="path3139" />
    </clipPath>
  </defs>
  <path
     d="M 517.0529,385.65276 C 523.4513,361.79632 524.26054,326.45943 524.26054,313.92157 L 524.26054,19.541009 L 13.10029,19.541009 L 13.10029,313.92157 C 13.10029,321.7874 13.10029,355.35475 23.30753,385.97646 C 24.94759,408.19284 57.899917,473.41773 66.348397,480.65774 C 119.84468,545.21366 183.28923,583.70119 268.62647,583.70119 C 353.96371,583.70119 416.05953,548.53694 470.4082,485.69662 C 482.29866,473.06166 507.61174,432.24351 517.0529,385.65276 z"
     id="path45"
     style="fill:#ffffff;fill-opacity:1;stroke:#000000;stroke-width:5;stroke-linecap:butt;stroke-linejoin:miter;stroke-miterlimit:22.9260006;stroke-dasharray:none;stroke-opacity:1" />
  <path
     d="M 515.16467,393.10858 C 508.89574,394.95365 499.5517,396.66924 494.01648,397.53243 C 482.69789,399.01065 472.50144,398.76248 463.64294,396.18369 C 451.34247,392.62303 426.01859,377.23665 420.23521,373.92415 C 407.69736,366.79203 385.31913,363.71692 371.66992,365.4433 C 357.52437,367.28837 336.12802,374.53918 308.46274,386.34332 C 280.79746,397.89929 258.04159,401.22257 240.34617,396.05422 C 222.75865,390.89665 208.37572,381.30444 196.93844,373.92415 C 186.11618,366.79203 165.08668,363.35006 148.48104,365.4433 C 134.34629,367.28837 112.94994,374.53918 85.284657,386.34332 C 57.61938,397.89929 41.26191,399.99253 26.26396,397.89929 C 30.68781,417.45057 54.66295,462.82206 59.949997,471.3137 C 59.949997,471.3137 61.309527,471.06553 66.715257,469.46863 C 72.250467,467.74225 78.648877,465.28215 85.284657,462.58468 C 115.41003,450.16551 137.66957,442.78523 150.95193,441.68466 C 163.98612,440.45461 181.19599,441.92204 196.93844,449.91735 C 212.92906,458.03134 225.46691,467.74225 243.90683,472.54375 C 260.2643,476.84891 281.66066,473.40694 308.46274,462.58468 C 338.58812,450.16551 360.84766,442.78523 374.13001,441.68466 C 393.06627,439.95828 408.18291,444.38213 420.23521,449.91735 C 435.85897,457.29763 451.22378,468.48675 467.21439,472.66244 C 469.17815,473.15877 477.30294,475.20885 478.66247,475.45702 C 485.79459,465.00161 507.92465,424.38847 515.16467,393.10858 z"
     id="path51"
     style="fill:#0092c5;fill-opacity:1;stroke:#000000;stroke-width:5;stroke-linecap:butt;stroke-linejoin:miter;stroke-miterlimit:22.9260006;stroke-dasharray:none;stroke-opacity:1" />
  <path
     d="M 202.32778,306.12536 C 208.24064,282.02075 222.87173,254.2152 236.8878,233.44466 C 250.90387,212.78202 266.78658,194.78448 268.27559,197.02878 C 269.37616,197.02878 283.76987,213.656 297.91542,234.43733 C 312.05017,255.21866 326.56257,282.26891 332.70202,306.37353 L 322.47321,306.62169 C 315.83742,284.97718 307.11919,264.84324 296.41562,247.50389 C 285.72284,230.16453 267.53109,211.0988 267.53109,211.0988 C 267.53109,211.0988 249.57671,228.41657 238.88393,245.75593 C 228.19115,263.08449 218.46946,284.72901 211.95236,306.37353 L 202.32778,306.12536"
     id="path3175"
     style="fill:#d8201f;fill-opacity:1;fill-rule:evenodd;stroke:none" />
  <path
     d="M 63.127407,311.0995 L 74.564687,83.788889 L 163.80787,83.842839 L 166.6672,112.52236 L 219.66713,113.42871 L 222.47251,80.746139 L 313.60392,82.537269 L 314.49948,113.53661 L 369.81924,114.36743 L 370.24005,80.249809 L 459.46165,80.605869 L 472.04266,311.13187 L 336.15479,311.35846 L 312.4494,249.81292 L 266.77579,194.0184 L 227.30638,244.10507 L 199.13397,308.68256 L 63.127407,311.0995"
     id="path3177"
     style="fill:#d8201f;fill-opacity:1;fill-rule:evenodd;stroke:none" />
  <path
     d="M 417.93136,113.81715 L 417.93136,85.277899 L 457.03393,85.407379 L 458.26397,113.81715 L 417.93136,113.81715 z M 414.97493,113.81715 L 372.92345,113.81715 L 372.92345,85.286529 L 414.97493,85.286529 L 414.97493,113.81715 z M 310.70144,113.81715 L 224.25715,113.81715 L 224.25715,85.286529 L 310.70144,85.286529 L 310.70144,113.81715 z M 161.17514,113.81715 L 118.75361,113.81715 L 118.75361,85.286529 L 161.17514,85.286529 L 161.17514,113.81715 z M 75.471037,113.81715 L 76.830567,85.277899 L 115.80365,85.277899 L 115.80365,113.81715 L 75.471037,113.81715 z M 372.92673,161.88611 L 372.92673,118.60786 L 458.51214,118.60786 L 460.72407,161.88611 L 372.92673,161.88611 z M 369.48476,161.88611 L 269.26826,161.88611 L 269.26826,118.60467 L 369.48476,118.60467 L 369.48476,161.88611 z M 266.07445,161.88611 L 164.38086,161.88611 L 164.38086,118.60467 L 266.07445,118.60467 L 266.07445,161.88611 z M 72.892257,161.88611 L 75.104177,118.60786 L 161.17514,118.60786 L 161.17514,161.88611 L 72.892257,161.88611 z M 417.80188,210.21403 L 417.93136,166.8063 L 461.09092,166.8063 L 462.93599,210.09534 L 417.80188,210.21403 z M 414.72677,210.09534 L 319.06144,210.09534 L 319.06144,166.81277 L 414.72677,166.81277 L 414.72677,210.09534 z M 219.34344,210.09534 L 219.34344,166.8063 L 315.98848,166.8063 L 315.98848,210.09534 L 285.61494,210.09534 C 277.38226,200.62182 267.54188,190.16641 267.54188,190.16641 C 267.54188,190.16641 257.21595,200.62182 249.83567,210.09534 L 219.34344,210.09534 z M 216.14963,210.09534 L 118.76224,210.09534 L 118.76224,166.81277 L 216.14963,166.81277 L 216.14963,210.09534 z M 70.313467,210.09534 L 72.644087,166.8063 L 115.80365,166.8063 L 115.80365,210.09534 L 70.313467,210.09534 z M 372.79725,258.17509 L 372.79725,214.88605 L 463.55102,214.88605 L 465.88163,258.17509 L 372.79725,258.17509 z M 317.59618,258.17509 C 305.66256,237.26428 302.46875,233.20728 289.1864,214.88605 L 369.48476,214.88605 L 369.48476,258.17509 L 317.59618,258.17509 z M 164.37974,258.17509 L 164.37974,214.88605 L 246.02684,214.88605 C 234.47086,230.50981 224.26363,245.75593 217.00203,258.17509 L 164.37974,258.17509 z M 67.853377,258.17509 L 70.065307,214.88605 L 161.17514,214.88605 L 161.17514,258.17509 L 67.853377,258.17509 z M 417.93136,306.37353 L 417.93136,263.08449 L 466.37797,263.08449 L 468.22304,306.37353 L 417.93136,306.37353 z M 337.50352,306.37353 C 332.21648,287.31858 329.02267,282.39839 320.54182,263.08449 L 414.72677,263.08449 L 414.72677,306.37353 L 337.50352,306.37353 z M 204.34549,306.37353 C 210.23677,282.26891 224.63048,255.33735 238.64655,234.56681 C 252.66262,213.90417 266.56,198.77674 267.54188,198.77674 C 268.65324,198.77674 282.55061,213.78548 296.68537,234.56681 C 310.83092,255.33735 325.82886,282.26891 331.9791,306.37353 L 323.98379,306.37353 C 317.34801,284.72901 307.37815,263.08449 296.68537,245.75593 C 285.99259,228.41657 267.54188,210.09534 267.54188,210.09534 C 267.54188,210.09534 248.85379,228.41657 238.15022,245.75593 C 227.45743,263.08449 217.74653,284.72901 211.22944,306.37353 L 204.34549,306.37353 z M 118.76008,306.37353 L 118.76008,263.08449 L 214.05639,263.08449 C 207.04296,277.97454 202.85649,290.87925 197.81761,306.37353 L 118.76008,306.37353 z M 65.263797,306.37353 L 67.486517,263.08449 L 115.80365,263.08449 L 115.80365,306.37353 L 65.263797,306.37353 z M 55.434207,315.59888 L 68.338917,74.951969 L 169.17045,74.951969 L 169.17045,109.51198 L 216.02015,109.51198 L 216.14963,74.951969 L 319.0636,74.951969 L 319.0636,109.51198 L 364.68326,109.51198 L 364.68326,74.951969 L 465.51478,74.951969 L 478.06342,315.59888 L 319.0636,315.59888 C 314.02472,296.16629 311.44594,288.17098 298.65992,263.08449 C 285.86311,238.00878 267.54188,218.94305 267.54188,218.94305 C 267.54188,218.94305 249.83567,238.00878 236.06777,263.08449 C 222.28908,288.17098 221.55537,296.66263 216.14963,315.59888 L 55.434207,315.59888"
     id="path3179"
     style="fill:#000000;fill-opacity:1;fill-rule:evenodd;stroke:none" />
</svg>
