<?xml version="1.0" encoding="UTF-8" standalone="no"?>
<svg
   xmlns:dc="http://purl.org/dc/elements/1.1/"
   xmlns:cc="http://creativecommons.org/ns#"
   xmlns:rdf="http://www.w3.org/1999/02/22-rdf-syntax-ns#"
   xmlns:svg="http://www.w3.org/2000/svg"
   xmlns="http://www.w3.org/2000/svg"
   xmlns:xlink="http://www.w3.org/1999/xlink"
   id="svg151"
   version="1.1"
   viewBox="0 0 707.78 772.55">
  <metadata
     id="metadata155">
    <rdf:RDF>
      <cc:Work
         rdf:about="">
        <dc:format>image/svg+xml</dc:format>
        <dc:type
           rdf:resource="http://purl.org/dc/dcmitype/StillImage" />
        <dc:title></dc:title>
      </cc:Work>
    </rdf:RDF>
  </metadata>
  <defs
     id="defs5">
    <path
       stroke-width="5.367"
       stroke-linecap="round"
       stroke="#000"
       stroke-linejoin="round"
       d="m-539.22 271.31c-34.09 0-61.75 27.627-61.75 61.719 0 34.09 27.658 61.75 61.75 61.75 34.09 0 61.719-27.658 61.719-61.75 0-34.09-27.627-61.719-61.719-61.719zm0 30.688c17.14 0 31.03 13.892 31.03 31.03 0 17.14-13.892 31.03-31.03 31.03-17.14 0-31.03-13.892-31.03-31.03 0-17.14 13.892-31.03 31.03-31.03z"
       id="0" />
    <path
       stroke-width="5.367"
       stroke-linecap="round"
       stroke="#000"
       stroke-linejoin="round"
       d="m-486.54 332.3c0 0-1.428 10.318-3.206 15.172-2.098 5.732-5.05 11.213-8.677 16.13-2.496 3.385-5.518 6.427-8.849 8.995-3.956 3.05-8.383 5.556-13.01 7.449-5.137 2.102-16.11 4.23-16.11 4.23"
       id="1" />
    <path
       stroke-width="5.367"
       stroke-linecap="round"
       stroke="#000"
       stroke-linejoin="round"
       d="m-581.01 333.86c0 0 1.124-8.129 2.523-11.954 1.652-4.516 3.978-8.835 6.83-12.706 1.965-2.667 4.343-5.064 6.965-7.087 3.114-2.403 6.598-4.378 10.238-5.869 4.04-1.656 12.677-3.333 12.677-3.333"
       id="2" />
  </defs>
  <g
     id="g1375">
    <g
       style="stroke:#000000"
       id="g29"
       transform="translate(-22.02,-88.33)">
      <path
         style="fill:#e6e6e6"
         id="path7"
         d="m 32.839,97.31 685.21,2.679 -13.396,255.87 -10.05,170.8 -18.08,111.19 -30.14,72.34 -46.22,57.6 -77.03,52.24 -83.73,27.462 -81.72,4.02 -79.04,-16.745 -61.62,-24.783 -59.61,-40.19 -45.547,-51.575 -30.14,-79.04 -21.434,-101.14 -6.698,-115.21 -12.06,-212.33 z" />
      <g
         style="stroke-width:5"
         id="g13">
        <path
           style="fill:#0f47af;stroke-linecap:round;stroke-linejoin:round"
           id="path9"
           d="m 32.844,97.31 4.063,53.03 3.594,0.813 -4.688,-0.031 -6.06,0.906 22.22,272 11.09,135.09 12.12,61.16 24.22,71.22 17.969,27.469 c 0.876,-0.576 1.752,-1.136 2.625,-1.719 171.62,-114.47 260.62,-330.68 254.09,-563.59 l 1.344,-55 -342.59,-1.344 z" />
        <path
           style="fill:#ffffff"
           id="path11"
           d="m 285.25,96.34 -234.34,282.22 3.844,70.56 5.563,88.91 11.781,55.56 308.56,-371.66 c -1.243,-23.345 -1.546,-46.942 -0.813,-70.72 l -1.063,-52.875 h 4.656 l -2.406,-2 h -95.78 z" />
      </g>
      <path
         style="fill:#ffffff"
         id="path15"
         d="m 375.44,99.66 -1.344,55 c 6.526,232.91 -82.47,449.13 -254.09,563.59 -0.873,0.583 -1.749,1.143 -2.625,1.719 l -12.5,-19.12 7,18.375 45.531,51.563 59.62,40.19 61.62,24.781 79.03,16.75 81.72,-4 83.72,-27.469 77.03,-52.25 46.22,-57.59 30.12,-72.34 0.438,-2.75 -33.5,65.53 -11.25,15.469 C 461.08,601.948 372.64,385.298 379.84,152.238 l -1.063,-52.56 h -3.344 z m 340.53,40.469 -1.031,11.156 -1.875,1.719 h 2.25 z m -679.06,11.219 0.063,0.781 3.531,0.031 -3.594,-0.813 z m 667.94,201.81 -3.875,52.719 -4.125,83.59 7.813,-132.62 0.188,-3.688 z m -647.09,142.31 2.531,43.563 1.719,8.094 -4.25,-51.656 z" />
      <path
         style="fill:#da121a;stroke-width:5;stroke-linecap:round;stroke-linejoin:round"
         id="path17"
         d="m 378.78,98.34 1.063,52.875 c -7.191,233.06 81.24,449.72 252.34,564.87 l 11.25,-15.469 37.34,-73.03 12.12,-59.34 8.06,-163.37 12.09,-164.31 8.094,-88.53 -8.094,-0.031 1.875,-1.719 4.875,-51.938 h -341.03 z" />
      <g
         style="fill:none"
         id="g27">
        <g
           style="stroke-width:20"
           id="g23">
          <path
             id="path19"
             d="m 378.1,850.87 c -20.737,-0.002 -41.474,-1.812 -61.899,-5.401 -26.24,-4.611 -51.999,-12.178 -76.32,-23.05 -22.989,-10.275 -44.635,-23.471 -64.64,-38.763 -17.481,-13.363 -33.795,-28.403 -47.36,-45.732 -18.84,-24.07 -32.03,-52.13 -42.27,-80.932 -8.456,-23.779 -15.01,-48.24 -19.487,-73.08 -8.01,-44.41 -9.374,-89.7 -11.367,-134.78 -1.317,-29.787 -2.918,-59.56 -4.872,-89.31 -2.63,-40.06 -5.899,-80.08 -8.119,-120.17 -1.649,-29.771 -2.719,-59.58 -4.872,-89.31 -1.256,-17.353 -2.88,-34.68 -4.872,-51.965 57.38,0 114.76,0 172.13,0 56.3,0 112.59,0 168.89,0" />
          <path
             id="path21"
             d="m 374.25,850.84 c 20.484,0.282 40.994,-1.366 61.17,-4.915 26.352,-4.636 52.14,-12.525 76.52,-23.543 22.944,-10.369 44.621,-23.494 64.64,-38.763 17.496,-13.345 33.8,-28.399 47.36,-45.732 18.831,-24.08 32.03,-52.13 42.27,-80.932 8.458,-23.778 15.01,-48.24 19.487,-73.08 8.01,-44.41 9.374,-89.7 11.367,-134.78 1.317,-29.787 2.918,-59.56 4.872,-89.31 2.63,-40.06 5.899,-80.08 8.119,-120.17 1.649,-29.771 2.719,-59.58 4.872,-89.31 1.256,-17.353 2.88,-34.68 4.872,-51.965 -57.38,0 -114.76,0 -172.13,0 -56.3,0 -112.59,0 -168.89,0" />
        </g>
        <path
           style="stroke-width:5;stroke-linecap:round;stroke-linejoin:round"
           id="path25"
           d="m 32.844,97.31 4.063,53.03 3.594,0.813 -4.688,-0.031 -6.06,0.906 22.22,272 11.09,135.09 12.12,61.16 24.22,71.22 17.969,27.469 c 0.876,-0.576 1.752,-1.136 2.625,-1.719 171.62,-114.47 260.62,-330.68 254.09,-563.59 l 1.344,-55 -342.59,-1.344 z" />
      </g>
    </g>
    <g
       style="fill:#0f47af"
       id="g37"
       transform="matrix(0.93168,0,0,0.93168,611.63802,0.85595374)">
      <use
         height="100%"
         width="100%"
         y="0"
         x="0"
         id="use31"
         xlink:href="#0" />
      <use
         height="100%"
         width="100%"
         y="0"
         x="0"
         id="use33"
         xlink:href="#2" />
      <use
         height="100%"
         width="100%"
         y="0"
         x="0"
         id="use35"
         xlink:href="#1" />
    </g>
    <path
       style="fill:none;stroke:#000000;stroke-width:20"
       id="path39"
       d="m 349.25,10 h 12.847" />
    <g
       style="stroke-width:5"
       id="g59"
       transform="translate(-22.02,-88.33)">
      <path
         style="stroke:#000000;stroke-linecap:round"
         id="path47"
         d="m 332.87,516.48 14.08,24.386 v 58.01 h -57.752 l -24.369,-14.09 v 87.19 l 24.369,-14.09 h 57.752 v 44.707 4.454 75.16 l -14.08,43.844 H 420 l -14.08,-43.844 v -79.62 -44.707 h 57.807 l 24.314,14.06 v -87.13 l -24.314,14.06 H 405.92 V 540.86 L 420,516.474 h -87.13 z" />
      <g
         style="fill:none;stroke:#ffffff"
         id="g57">
        <path
           id="path49"
           d="M 376.44,489.45 V 835.32" />
        <path
           id="path51"
           d="M 509.02,627.27 H 243.85" />
        <path
           id="path53"
           d="M 524.45,776.39 336.95,588.89" />
        <path
           id="path55"
           d="M 253.2,751.65 440.7,564.15" />
      </g>
    </g>
    <g
       style="line-height:125%;font-family:Sans;text-align:center;letter-spacing:0;word-spacing:0;text-anchor:middle"
       id="g147"
       letter-spacing="0"
       line-height="125%"
       word-spacing="0"
       text-align="center"
       transform="translate(-22.02,-88.33)">
      <text
         style="font-size:5.42199993px;fill:#0f0406"
         id="text141"
         font-size="5.422"
         transform="matrix(0.9907,0.1361,-0.1361,0.9907,0,0)"
         y="795.57001"
         x="458.10001">
        <tspan
           id="tspan139"
           y="795.57001"
           x="458.10001">Christian Duscha</tspan>
      </text>
      <text
         style="font-size:4.24800014px;fill:#0e0406"
         id="text145"
         font-size="4.248"
         transform="matrix(0.96906,-0.24682,0.24682,0.96906,0,0)"
         y="929.26001"
         x="209.58">
        <tspan
           id="tspan143"
           y="929.26001"
           x="209.58">Gleiwitz-Essen-Landshut</tspan>
      </text>
    </g>
    <g
       id="g1314"
       transform="translate(-840.47271,-42.799172)">
      <path
         id="path1309"
         d="m 1371.56,103.90553 c -11.3624,-0.0402 -23.0936,0.64727 -32.8925,2.03711 -24.7966,3.517 -47.2171,10.04943 -65.9199,19.20704 -16.7426,8.19763 -24.1639,15.38537 -35.8379,34.70898 -10.7568,17.80534 -27.2058,54.28155 -26.2247,58.1543 0.5402,2.13243 5.2127,4.0734 11.7735,4.88867 2.6099,0.32437 3.8239,0.3123 4.6816,-0.043 1.0155,-0.42068 1.3037,-0.35532 2.3575,0.53125 1.4474,1.21801 4.829,2.20235 9.5566,2.7832 6.4543,0.79302 5.7847,0.98906 18.2226,-5.33008 25.4107,-12.90984 37.7877,-17.71399 51.8575,-20.12695 4.5329,-0.77742 17.6076,-0.95785 19.8203,-0.27344 2.2443,0.69427 3.4595,4.63732 3.7969,12.31641 0.2458,5.59366 -0.2231,10.74346 -1.3399,14.71094 -1.003,3.56281 -1.1759,5.50923 -0.5371,6.02148 0.3084,0.24721 2.4203,0.53892 4.6934,0.64844 4.6838,0.22573 10.8821,1.7204 11.2636,2.71484 0.5702,1.48601 -2.362,16.03242 -4.6894,23.26563 -1.5313,4.75925 -1.6813,5.84271 -0.8926,6.46484 0.2841,0.22412 3.0376,0.5233 6.1172,0.66406 11.7493,0.537 21.3833,3.58222 32.1367,10.1543 6.5488,4.00238 6.8776,3.68237 7.5957,-7.38672 0.5589,-8.61182 0.06,-19.64563 -1.3086,-28.92187 -0.4506,-3.05399 -0.7424,-5.62876 -0.6484,-5.72266 0.577,-0.57695 6.2386,5.6125 9.5722,10.46289 4.3679,6.35561 7.4906,13.53467 9.4297,21.6836 5.3854,22.63256 -2.3715,45.72421 -18.9824,56.50781 -4.2827,2.78022 -4.7519,3.21783 -4.7519,4.42773 0,0.78871 0.6721,1.47454 3.0879,3.14453 3.4413,2.3791 6.4233,5.78075 9.8398,11.22266 2.3195,3.69434 5.6574,10.85367 6.4746,13.88867 0.5071,1.88325 1.6387,2.76217 3.0879,2.39844 0.9374,-0.23527 5.627,-6.20759 10.3398,-13.16797 1.3467,-1.98895 2.6122,-3.61523 2.8125,-3.61523 0.2004,0 0.2627,0.7898 0.1387,1.75586 -0.1241,0.96607 -0.524,4.36064 -0.8867,7.54296 -3.8993,34.21706 -15.1545,71.4505 -26.6914,88.29493 -10.9962,16.05472 -38.3648,26.6384 -60.2774,23.31054 -11.093,-1.68474 -19.6591,-5.86781 -27.0078,-13.1914 -3.4638,-3.45188 -4.8008,-4.0088 -5.959,-2.48047 -0.4624,0.61009 -0.5291,1.65437 -0.3164,4.9082 0.7215,11.0384 4.7085,23.02823 11.0215,33.13672 10.4044,16.65977 26.5489,28.5533 43.8906,32.33398 2.0086,0.43792 3.7398,0.88238 3.8457,0.98829 0.106,0.10589 0.3776,2.02732 0.6036,4.26953 1.5769,15.6399 7.4483,29.33962 17.9316,41.83398 9.2977,11.08145 23.413,20.20359 34.9277,22.57227 1.4775,0.30394 3.0437,0.57039 3.4805,0.59179 1.0262,0.0502 2.3047,-1.11406 2.3047,-2.09765 0,-0.42226 -0.8173,-3.50752 -1.8164,-6.85742 -4.1869,-14.03866 -5.7268,-23.79201 -5.7578,-36.46875 -0.031,-12.8028 1.469,-22.58039 5.5547,-36.22071 5.0216,-16.76479 10.4155,-28.85219 33.914,-75.98633 7.8194,-15.68428 15.5844,-31.49196 17.2539,-35.1289 16.8456,-36.69674 24.9999,-62.02106 28.6114,-88.85742 0.8299,-6.1676 0.9459,-8.79226 0.9589,-21.49024 0.015,-15.47133 -0.309,-19.53189 -2.5117,-31.61719 -3.8543,-21.14726 -13.1931,-46.02522 -26.2441,-69.9082 -0.9935,-1.81794 -1.6208,-3.43852 -1.4766,-3.81445 0.2919,-0.76062 4.6144,-3.59961 9.4844,-6.22852 8.1624,-4.40639 17.5346,-6.94824 32.127,-8.71094 2.9042,-0.3508 4.1367,-1.11503 4.1367,-2.58007 0,-0.90465 -1.1168,-2.22811 -5.6817,-6.70703 -6.2858,-6.16724 -10.9608,-10.21452 -17.4004,-15.06446 -25.6394,-19.30993 -54.7402,-30.93846 -87.8906,-35.12304 -7.3089,-0.92261 -15.9222,-1.39452 -24.7598,-1.42579 z"
         style="fill:#ffffff;fill-opacity:1;stroke:#000000;stroke-width:0.60000002;stroke-miterlimit:4;stroke-dasharray:none;stroke-opacity:1" />
      <path
         style="fill:#000000;fill-opacity:1;stroke:#000000;stroke-width:0.1;stroke-miterlimit:4;stroke-dasharray:none;stroke-opacity:1"
         d="m 1407.2698,587.60133 c -11.5147,-2.36868 -25.6289,-11.49003 -34.9266,-22.57148 -10.4833,-12.49436 -16.3563,-26.19511 -17.9332,-41.83501 -0.226,-2.24221 -0.4976,-4.16338 -0.6036,-4.26927 -0.1059,-0.10591 -1.836,-0.55078 -3.8446,-0.9887 -17.3417,-3.78068 -33.4861,-15.6742 -43.8905,-32.33397 -6.313,-10.10849 -10.3012,-22.09805 -11.0227,-33.13645 -0.2127,-3.25383 -0.1453,-4.2977 0.3171,-4.90779 1.1582,-1.52833 2.4947,-0.97216 5.9585,2.47972 7.3487,7.32359 15.9144,11.5076 27.0074,13.19234 21.9126,3.32786 49.2818,-7.25676 60.278,-23.31148 11.5369,-16.84443 22.7931,-54.07803 26.6924,-88.29509 0.3627,-3.18232 0.761,-6.57644 0.8851,-7.54251 0.124,-0.96606 0.062,-1.75647 -0.1384,-1.75647 -0.2003,0 -1.466,1.62732 -2.8127,3.61627 -4.7128,6.96038 -9.4018,12.93194 -10.3392,13.16721 -1.4492,0.36373 -2.5807,-0.51514 -3.0878,-2.39839 -0.8172,-3.035 -4.1545,-10.19492 -6.474,-13.88926 -3.4165,-5.44191 -6.3986,-8.84276 -9.8401,-11.22186 -2.4157,-1.66999 -3.0888,-2.35516 -3.0888,-3.14387 0,-1.2099 0.4701,-1.64797 4.7528,-4.42819 16.6109,-10.7836 24.3678,-33.8745 18.9824,-56.50706 -1.9391,-8.14893 -5.0611,-15.32884 -9.429,-21.68445 -3.3336,-4.85039 -8.997,-11.0396 -9.574,-10.46265 -0.094,0.0939 0.198,2.66934 0.6486,5.72333 1.3688,9.27624 1.8684,20.30903 1.3095,28.92085 -0.7181,11.06909 -1.0464,11.38831 -7.5952,7.38593 -10.7534,-6.57208 -20.3889,-9.61619 -32.1382,-10.15319 -3.0796,-0.14076 -5.8319,-0.43929 -6.116,-0.66341 -0.7887,-0.62213 -0.639,-1.70706 0.8923,-6.46631 2.3274,-7.23321 5.2587,-21.77985 4.6885,-23.26586 -0.3815,-0.99444 -6.5797,-2.48744 -11.2635,-2.71317 -2.2731,-0.10952 -4.3851,-0.40144 -4.6935,-0.64865 -0.6388,-0.51225 -0.465,-2.45834 0.538,-6.02115 1.1168,-3.96748 1.586,-9.11828 1.3402,-14.71194 -0.3374,-7.67909 -1.553,-11.6212 -3.7973,-12.31547 -2.2127,-0.68441 -15.2872,-0.50415 -19.8201,0.27327 -14.0698,2.41296 -26.4479,7.21702 -51.8586,20.12686 -12.4379,6.31914 -11.7681,6.12321 -18.2224,5.33019 -4.7276,-0.58085 -8.1075,-1.56543 -9.555,-2.78344 -1.0537,-0.88657 -1.3431,-0.95174 -2.3586,-0.53106 -0.8577,0.35524 -2.0706,0.36607 -4.6805,0.0417 -6.5608,-0.81527 -11.2344,-2.75527 -11.7746,-4.8877 -0.9812,-3.87275 15.468,-40.34995 26.2248,-58.15529 11.674,-19.32361 19.0953,-26.51119 35.8378,-34.70883 18.7028,-9.1576 41.1229,-15.6902 65.9195,-19.2072 17.4204,-2.47084 40.9475,-2.72043 57.6537,-0.61162 33.1504,4.18458 62.2507,15.81402 87.8901,35.12395 6.4396,4.84994 11.1135,8.89648 17.3993,15.06372 4.5649,4.47892 5.686,5.80221 5.6827,6.70686 0,1.46504 -1.233,2.23104 -4.1372,2.58185 -14.5924,1.7627 -23.9649,4.30364 -32.1273,8.71003 -4.87,2.62891 -9.1922,5.4672 -9.4841,6.22782 -0.1442,0.37593 0.4834,1.99754 1.4769,3.81548 13.051,23.88298 22.3906,48.76045 26.2449,69.90771 2.2027,12.0853 2.5251,16.14521 2.5104,31.61654 -0.013,12.69798 -0.1293,15.32338 -0.9592,21.49098 -3.6115,26.83636 -11.7656,52.1602 -28.6112,88.85694 -1.6695,3.63694 -9.4332,19.44521 -17.2526,35.12949 -23.4985,47.13414 -28.8932,59.22088 -33.9148,75.98567 -4.0857,13.64032 -5.5851,23.41926 -5.5538,36.22206 0.031,12.67674 1.5706,22.42881 5.7575,36.46747 0.9991,3.3499 1.8165,6.43625 1.8165,6.85851 0,0.98359 -1.2794,2.14707 -2.3056,2.09686 -0.4368,-0.0214 -2.0029,-0.28748 -3.4804,-0.59142 z m 0.5706,-4.66268 c 0.1136,-0.18346 -0.2523,-1.90377 -0.8124,-3.82291 -6.3455,-21.74151 -7.3614,-41.07199 -3.2022,-60.93648 2.0871,-9.96847 5.8254,-21.53124 10.8899,-33.68298 4.9802,-11.94977 10.3181,-23.11278 27.9633,-58.48027 13.2277,-26.5128 18.2931,-37.16323 23.6861,-49.80121 11.8138,-27.68528 18.759,-52.12838 21.0786,-74.18522 1.5492,-14.73091 0.6207,-34.77893 -2.2435,-48.44283 -0.7768,-3.70571 -1.1888,-3.95651 -2.4409,-1.48573 -2.6074,5.14567 -6.0243,6.30614 -12.2155,4.14879 -2.1122,-0.736 -2.684,-0.80959 -2.8375,-0.36514 -0.1059,0.30617 -0.7299,1.16919 -1.3872,1.91784 l -1.1952,1.36116 0.6701,2.61551 c 0.6198,2.41936 0.6381,5.12038 0.07,10.28701 -0.099,0.90328 0.1462,1.1219 1.9528,1.73838 5.5864,1.90634 9.243,0.0395 12.1593,-6.20766 1.0448,-2.2381 1.9665,-2.90462 1.5118,-1.09328 -0.7669,3.05578 -2.1908,5.92646 -3.7671,7.59482 -1.6597,1.75668 -1.8788,1.85695 -4.4067,2.01791 -2.1847,0.13913 -3.1587,-0.0301 -5.4512,-0.94728 l -2.7912,-1.11666 -1.3992,1.63463 c -0.81,0.94638 -2.3134,2.02787 -3.5703,2.56862 -1.836,0.78983 -2.6202,0.8956 -5.0807,0.68523 -1.6003,-0.13681 -3.4791,-0.36072 -4.1753,-0.49758 -1.2449,-0.2448 -1.2765,-0.20904 -1.9458,2.19779 -0.5332,1.91853 -1.0759,2.81147 -2.5139,4.13701 -2.0966,1.93251 -3.9681,2.57512 -7.4999,2.57512 -3.3717,0 -8.0591,-1.2541 -8.0591,-2.15619 0,-0.22405 0.3154,-0.28635 0.7008,-0.13844 2.1143,0.81135 6.6287,1.14795 8.933,0.66604 5.1897,-1.08532 8.0568,-6.13091 6.9344,-12.20313 -0.5053,-2.73256 -2.36,-7.09294 -3.1455,-7.39436 -0.2975,-0.11417 -1.5329,0.17875 -2.7456,0.65083 -2.7733,1.07968 -7.4561,1.15727 -10.7805,0.17863 -2.5177,-0.74114 -3.445,-1.84144 -1.0332,-1.22592 0.7388,0.18855 3.203,0.33897 5.4761,0.33428 4.5485,-0.009 6.3561,-0.63289 8.5523,-2.94996 1.565,-1.65101 3.2451,-5.52944 3.5109,-8.10467 0.4774,-4.6259 -2.4552,-11.62382 -5.0772,-12.11573 -3.534,-0.66297 -3.888,-0.54036 -4.7245,1.63648 -0.426,1.10826 -1.2778,2.74114 -1.8928,3.62861 -2.1347,3.08065 -6.8185,5.7218 -10.1466,5.7218 -1.7667,0 -1.4105,-0.68315 0.5169,-0.99134 3.5634,-0.56983 6.9718,-3.20609 8.6637,-6.7011 0.4805,-0.99273 1.1729,-3.49342 1.5388,-5.55708 0.9021,-5.08957 0.3349,-9.22865 -1.8659,-13.6142 l -1.5553,-3.09966 -2.0125,-0.23112 c -2.1488,-0.24679 -3.1536,0.27128 -3.1536,1.62599 0,1.30757 -2.1003,4.95521 -3.623,6.29219 -2.5185,2.21114 -7.7754,3.97062 -10.0704,3.37046 -1.4269,-0.37315 -0.7885,-0.8146 1.5231,-1.05317 4.3775,-0.45181 8.554,-3.80401 9.7826,-7.85197 0.2904,-0.95651 0.5271,-3.59889 0.5262,-5.87198 0,-3.91028 -0.084,-4.3054 -1.5296,-7.33586 -0.8402,-1.76164 -1.6762,-3.21148 -1.858,-3.22185 -4.2173,-0.24086 -10.0426,-0.23178 -10.0426,0.0156 0,0.71297 -3.9217,4.63303 -5.6459,5.64343 -1.9188,1.12456 -3.1708,0.95194 -1.38,-0.19028 0.5683,-0.36246 1.8462,-1.48483 2.8398,-2.49414 4.6167,-4.68952 5.404,-11.71996 2.0707,-18.49091 -1.4403,-2.92577 -3.8292,-5.74878 -4.5091,-5.32857 -0.2516,0.15549 -2.5333,0.40342 -5.0703,0.55097 l -4.6129,0.26823 -0.4666,2.06645 c -0.7541,3.33996 -1.6528,5.03457 -3.8173,7.19903 -1.48,1.48014 -2.6376,2.21593 -4.23,2.68879 -2.527,0.75047 -3.6953,0.82562 -3.6953,0.23773 0,-0.2273 0.3255,-0.41509 0.7233,-0.41731 1.4967,-0.008 4.957,-2.01409 6.4168,-3.71945 2.0385,-2.38167 2.4983,-3.99088 2.2866,-8.0036 -0.2141,-4.06087 -1.4766,-7.1265 -4.1118,-9.98544 -1.7819,-1.93321 -5.3885,-4.31341 -6.547,-4.32075 -0.3367,-0.003 -2.5012,0.75771 -4.81,1.68856 l -4.198,1.69242 -0.4635,2.33713 c -0.5788,2.91774 -2.3475,6.04981 -4.5299,8.02151 -1.8597,1.68011 -4.9517,3.40502 -5.3642,2.99251 -0.1465,-0.14657 0.013,-0.4218 0.3501,-0.61163 1.3542,-0.75822 3.8313,-2.93049 4.9571,-4.34711 1.9966,-2.51239 2.6072,-4.68935 2.4036,-8.56946 -0.2186,-4.16272 -1.5131,-6.87564 -4.6089,-9.65906 -2.7672,-2.48806 -3.4228,-2.58187 -6.1089,-0.87437 -1.2242,0.7782 -3.5276,1.92888 -5.1188,2.55707 -1.5912,0.62819 -3.0998,1.30857 -3.3524,1.51199 -0.2528,0.20339 -0.5736,1.33353 -0.7131,2.5114 -0.5097,4.30424 -3.9196,8.93114 -8.1857,11.10759 -2.3014,1.17409 -2.2867,0.29007 0.021,-1.20467 2.1798,-1.4124 3.5233,-2.97739 5.0236,-5.85146 0.7803,-1.4949 0.9722,-2.50848 0.9779,-5.1661 0.013,-3.64581 -1.0271,-6.5713 -3.2575,-9.20854 -1.2597,-1.4894 -4.4294,-3.81005 -5.2041,-3.81005 -0.2695,0 -1.5763,1.00553 -2.9037,2.2345 -2.9697,2.74953 -5.802,4.12403 -10.9976,5.33717 -4.4767,1.04532 -4.1397,0.66986 -5.0731,5.65355 -1.1585,6.1848 -5.1648,13.6094 -10.314,19.1139 -2.7977,2.99072 -3.1498,4.33818 -0.9747,3.73042 0.6301,-0.17606 5.2371,-0.31122 10.2379,-0.30033 8.231,0.0179 9.5817,0.12398 14.2585,1.11965 7.9787,1.69868 21.0264,6.35101 21.9662,7.83234 0.8421,1.32726 -0.4188,3.0637 -1.8801,2.58909 -0.4776,-0.15511 -1.3332,-0.30904 -1.9015,-0.34206 -0.8681,-0.0505 -1.016,0.105 -0.9257,0.97319 0.059,0.56827 0.2237,4.23354 0.3659,8.14506 0.4714,12.96977 -1.6369,29.49273 -5.3923,42.26086 -1.2111,4.11775 -1.0354,4.56141 1.8058,4.56141 2.3797,0 2.7665,-0.39362 4.4666,-4.54617 2.2497,-5.49504 4.199,-14.52847 4.2361,-19.63118 0.013,-1.54671 0.1162,-1.8924 0.4187,-1.37442 0.5357,0.9182 -0.2288,9.76214 -1.2442,14.39299 -0.4238,1.93213 -1.3317,5.08904 -2.0177,7.01538 -0.8528,2.39515 -1.1175,3.65849 -0.8374,3.99607 0.4735,0.57045 5.9191,1.57876 6.5202,1.20726 0.6502,-0.40188 2.1103,-4.65376 3.2023,-9.32569 0.7025,-3.00521 1.0915,-6.17986 1.265,-10.32474 0.2753,-6.57077 0.8729,-6.84457 0.9184,-0.42075 0.036,5.13559 -0.6302,10.43152 -1.9252,15.29166 -1.51,5.66695 -1.5685,5.40472 1.448,6.48907 2.4854,0.89344 2.6226,0.90153 3.3279,0.19619 1.6289,-1.62885 4.1614,-11.76152 4.241,-16.96828 0.032,-2.08868 0.075,-2.19756 0.4302,-1.0824 0.7863,2.47054 -0.3216,10.96011 -2.0982,16.0796 -0.466,1.34261 -0.8473,2.70125 -0.8473,3.0192 0,0.87297 4.512,2.82282 5.3333,2.30478 0.9638,-0.60796 2.0517,-4.49314 2.0807,-7.43073 0.014,-1.40725 0.2112,-2.6736 0.4385,-2.81407 0.6593,-0.40746 0.4954,6.33021 -0.2207,9.07992 -0.7228,2.7745 -0.7322,2.75608 2.3345,4.51248 2.8995,1.6606 2.9996,1.39332 3.195,-8.53669 0.4098,-20.82462 -3.5363,-40.37551 -10.2633,-50.8495 -2.3619,-3.67734 -2.5383,-4.639 -0.9813,-5.3484 1.0099,-0.46015 1.1896,-0.38162 2.4427,1.06813 1.9236,2.22522 5.2081,8.8705 6.8298,13.81777 1.3532,4.12853 1.4423,4.27104 3.9401,6.29762 9.5872,7.77846 17.4852,19.4761 21.4027,31.69896 2.4126,7.52728 2.9228,11.14935 2.9279,20.78391 0,9.05057 -0.3742,11.8383 -2.5495,18.75526 -3.1295,9.95053 -9.6157,19.22976 -17.5828,25.15422 -1.5378,1.14353 -2.7927,2.28604 -2.7886,2.53894 0.013,0.40695 2.3196,2.53305 3.5516,3.26466 1.2665,0.75208 9.2686,-6.70973 12.8661,-11.99718 1.2744,-1.87345 2.4027,-3.32094 2.5069,-3.21665 0.29,0.28992 -3.0614,5.75846 -5.15,8.4037 -1.0216,1.29364 -3.3703,3.77408 -5.2194,5.51206 l -3.3619,3.15997 1.188,1.71427 c 1.4495,2.09163 1.6651,2.23416 2.9077,1.92228 1.3453,-0.33767 7.5952,-6.32553 9.5213,-9.1224 0.8641,-1.25445 1.6589,-2.19294 1.7662,-2.08555 0.5344,0.53446 -3.0716,5.42862 -6.8186,9.25412 l -4.2127,4.30098 1.2036,2.11395 c 0.6727,1.18152 1.5484,2.16886 1.9853,2.23846 1.0659,0.16978 5.1692,-3.94237 7.4628,-7.47912 0.9972,-1.53758 1.8935,-2.71509 1.9919,-2.61669 0.5971,0.59709 -4.1119,7.70625 -6.8657,10.36513 -0.9306,0.89854 -1.692,1.87125 -1.692,2.16157 0,0.29034 0.498,1.74044 1.1065,3.22244 0.7361,1.7923 1.3366,2.69456 1.7935,2.69456 0.7855,0 3.3311,-3.44789 9.7645,-13.22522 l 4.4869,-6.81926 0.2067,-7.9715 c 0.2159,-8.32762 0.3165,-8.74338 2.1192,-8.76034 1.6219,-0.0152 1.7424,0.86049 1.465,10.65346 -1.2411,43.81515 -13.1464,91.51357 -28.8014,115.39309 -9.2469,14.10503 -28.6948,24.13251 -50.5854,26.0822 -13.817,1.2306 -27.9715,-2.5329 -37.9871,-10.10035 -2.0067,-1.51615 -3.844,-2.75663 -4.0829,-2.75663 -0.8909,0 1.0897,10.44189 2.6161,13.7918 0.5491,1.2053 1.2911,1.47874 7.3883,2.72327 9.5164,1.94245 22.3471,2.09405 36.7821,0.43457 3.9776,-0.45726 7.4181,-0.81236 7.6458,-0.78908 0.9175,0.0938 -2.7994,0.79875 -8.2652,1.5676 -13.3384,1.87628 -24.9782,2.10148 -34.0963,0.65965 -7.414,-1.17239 -7.8525,-1.20263 -7.8525,-0.5413 0,0.97512 4.408,9.50663 5.7265,11.08366 l 1.2095,1.4465 6.141,-0.0447 c 11.6976,-0.0851 21.9098,-2.04809 39.3666,-7.56693 6.5305,-2.06455 3.5937,-0.67213 -4.151,1.96807 -7.9488,2.70982 -16.516,4.98088 -22.6687,6.0091 -4.4497,0.74366 -14.9275,1.6035 -15.7689,1.29408 -0.3058,-0.11236 -0.8178,-0.0376 -1.1377,0.16586 -0.4882,0.3107 -0.455,0.56962 0.2067,1.61079 1.6479,2.59329 6.5661,7.96318 7.5103,8.20016 1.4735,0.36986 9.354,-0.95469 15.1803,-2.55151 7.0466,-1.93125 15.3979,-5.31295 25.2126,-10.20934 4.5461,-2.26799 8.0797,-3.93636 7.8524,-3.70752 -0.7228,0.72781 -11.8111,6.74002 -16.5634,8.98092 -9.1678,4.32291 -20.0221,7.89727 -26.348,8.67632 -3.2086,0.39519 -3.4492,1.1067 -1.0733,3.17401 3.5088,3.05296 9.113,6.52491 10.5322,6.52491 1.937,0 8.0773,-1.86347 12.4585,-3.78092 6.7683,-2.96225 15.2134,-8.43463 22.9786,-14.89008 2.3046,-1.91587 3.821,-2.79614 2.1368,-1.24048 -10.7001,9.88416 -20.6037,16.2943 -30.8204,19.94893 -2.0227,0.72353 -3.6777,1.4877 -3.6777,1.6982 0,1.105 10.4861,4.658 15.1609,5.13692 l 2.6207,0.26851 4.7817,-4.70705 c 3.675,-3.61781 9.5031,-10.04609 10.7936,-11.90523 0.066,-0.0947 0.2144,-0.0774 0.3303,0.0385 0.4625,0.4624 -5.8465,8.36426 -11.061,13.85389 -3.0563,3.21752 -3.2082,3.46715 -3.0196,4.95945 0.1097,0.86427 0.3036,3.11 0.4321,4.99054 0.1279,1.8805 0.516,4.94916 0.8613,6.81925 1.4154,7.66302 2.5531,9.61077 3.495,5.98317 2.2375,-8.61779 9.8701,-26.34274 14.6379,-33.99295 1.6852,-2.70401 1.2048,-1.31587 -1.2134,3.50576 -4.7308,9.43318 -8.568,19.14987 -10.9396,27.702 -0.7241,2.61157 -1.6062,5.72074 -1.96,6.90923 -0.7297,2.45072 -0.7058,2.54639 2.0404,8.17128 1.6288,3.33619 2.5837,4.69024 3.008,4.2658 0.1266,-0.12722 0.8754,-2.99877 1.6628,-6.38138 2.5957,-11.15146 7.0345,-23.82251 12.1825,-34.77604 1.2033,-2.56032 2.2568,-4.58626 2.341,-4.50204 0.084,0.0842 -0.5228,1.71404 -1.349,3.62189 -6.05,13.97271 -10.7082,29.09054 -12.7721,41.45103 l -0.6834,4.09255 1.8784,2.7491 c 2.2204,3.24974 7.9477,9.52357 8.6939,9.52357 0.3884,0 0.5943,-1.77168 0.8044,-6.92258 0.792,-19.40181 3.3978,-34.55634 8.3877,-48.7785 0.8195,-2.33569 1.5585,-4.17809 1.6424,-4.0942 0.084,0.084 -0.4179,1.99491 -1.1153,4.24671 -4.6986,15.17268 -6.8637,29.50042 -7.2402,47.911 -0.1573,7.69357 -0.084,10.07101 0.3253,10.5665 0.7904,0.95635 4.3221,3.73241 7.2715,5.71574 3.2445,2.18171 3.972,2.04296 3.6209,-0.6907 -2.3714,-18.46261 -1.6228,-41.22912 1.8924,-57.54855 1.4174,-6.57938 6.2774,-21.48626 6.8263,-20.93738 0.089,0.0885 -0.5064,1.99945 -1.3222,4.2465 -3.1431,8.65855 -5.7351,20.7304 -6.8226,31.7759 -0.6266,6.36546 -0.6324,23.53251 -0.013,30.99661 0.8017,9.61911 1.5713,15.15548 2.1932,15.7774 0.3179,0.31799 2.4244,1.31012 4.6808,2.2048 3.9748,1.57587 6.107,2.0052 6.5333,1.3155 z m -11.7459,-112.56938 c -1.3216,-1.00273 -2.2819,-2.27205 -3.393,-4.48459 -0.8523,-1.69731 -1.5497,-3.3185 -1.5498,-3.60264 0,-1.04099 0.6645,-0.46443 1.9575,1.69739 1.6895,2.82457 4.1652,5.06144 6.2119,5.61256 1.7858,0.48086 4.5007,-0.057 8.1104,-1.60666 3.9881,-1.71212 2.6231,0.0491 -1.7729,2.28755 -1.6497,0.84001 -3.092,1.22433 -5.018,1.33691 -2.5453,0.14882 -2.8103,0.0765 -4.5461,-1.24052 z m 17.7878,-7.55584 c 0,-0.20356 5.0452,-5.18088 5.2516,-5.18088 0.067,0 0.1214,0.34651 0.1214,0.77002 0,0.90394 -3.8053,4.60273 -4.7351,4.60273 -0.3508,0 -0.6377,-0.0863 -0.6377,-0.19187 z m 9.9189,-11.17982 c 0,-0.11714 1.0945,-1.59024 2.4323,-3.27365 2.7054,-3.40436 6.1868,-8.97915 7.4547,-11.93731 0.8005,-1.86717 1.6852,-2.56889 1.6852,-1.33654 0,1.59786 -5.579,10.86465 -9.0176,14.97822 -1.2698,1.51916 -2.5546,2.30836 -2.5546,1.56928 z m -20.6644,-21.69215 c 0,-0.22775 1.1413,-2.39525 2.5361,-4.81668 4.1216,-7.15467 8.7145,-17.8804 10.5026,-24.52599 0.7337,-2.72712 1.214,-3.6565 1.6594,-3.21113 0.4095,0.40957 -1.7751,7.81284 -3.7754,12.79368 -4.2409,10.56006 -10.9227,22.64804 -10.9227,19.76012 z m 37.6093,-12.32118 c 0,-0.22302 0.7743,-1.67986 1.7207,-3.23742 2.6332,-4.33363 7.5476,-13.971 9.2418,-18.12359 1.5766,-3.86409 2.0622,-4.67776 2.5195,-4.22049 0.9711,0.97109 -11.2305,25.27287 -12.9654,25.82314 -0.2841,0.0901 -0.5166,-0.0186 -0.5166,-0.24164 z m -6.4236,-13.65853 c -1.8638,-1.13659 -4.2707,-4.18953 -3.3031,-4.18953 0.1059,0 1.0685,0.55566 2.1394,1.23483 2.7065,1.71639 4.2052,1.92445 6.271,0.87056 0.9265,-0.47266 1.781,-0.70325 1.8991,-0.51241 0.2986,0.48318 -1.7883,2.39622 -3.1928,2.92689 -1.6279,0.61505 -2.3685,0.5509 -3.8136,-0.33034 z m 5.2699,-13.55786 c -1.4889,-0.7338 -3.2771,-2.72438 -2.6386,-2.93721 0.22,-0.0734 1.0237,0.247 1.7861,0.71182 2.0982,1.27922 5.0863,1.14043 7.9569,-0.36957 2.541,-1.33666 3.1029,-0.91389 1.1785,0.88665 -2.5524,2.38807 -5.62,3.02075 -8.2829,1.70831 z m -19.9241,-3.77423 c 0,-0.40916 0.1706,-0.9206 0.3791,-1.13655 0.2084,-0.21594 1.0553,-2.34541 1.8818,-4.73215 1.7309,-4.99782 3.6614,-14.24583 4.3762,-20.964 0.4731,-4.44639 0.3331,-12.67882 -0.2567,-15.09538 -0.3855,-1.57958 0.4529,-1.45706 1.0124,0.14792 2.2766,6.53027 -0.9339,29.72226 -5.533,39.97044 -1.1376,2.53479 -1.8598,3.23752 -1.8598,1.80972 z m 35.9562,-2.36401 c 0,-0.11818 0.8356,-1.87869 1.8568,-3.91221 2.1916,-4.36378 5.5413,-12.64025 6.8212,-16.854 0.856,-2.81817 1.6542,-3.90104 1.6542,-2.24423 0,3.03391 -8.4607,23.22535 -9.7319,23.22535 -0.3302,0 -0.6003,-0.0967 -0.6003,-0.21491 z m -12.3958,-7.46936 c -1.7074,-0.7404 -3.3092,-2.15708 -3.3092,-2.92662 0,-0.75039 0.2474,-0.69503 1.7071,0.38201 2.1018,1.5509 6.6722,1.06665 9.5352,-1.0103 1.2654,-0.91798 1.3314,0.0585 0.093,1.37669 -1.3891,1.4785 -4.0404,2.8217 -5.5493,2.81134 -0.5683,-0.004 -1.6829,-0.28881 -2.4768,-0.63312 z m 6.9254,-12.15179 c -0.6219,-0.18726 -1.7978,-0.75279 -2.6133,-1.25675 -1.8745,-1.15855 -1.323,-1.89984 0.7646,-1.0276 3.299,1.37838 6.2746,0.27623 8.5218,-3.1564 0.7431,-1.13511 1.4497,-1.96519 1.5703,-1.84466 0.4869,0.48703 -0.3879,3.15725 -1.5684,4.78691 -1.7951,2.47803 -4.0009,3.30367 -6.675,2.4985 z m 8.9833,-19.59645 c -1.4467,-0.64301 -3.3683,-2.59209 -2.959,-3.0014 0.155,-0.15498 1.0449,0.14708 1.9775,0.67125 2.1889,1.23019 5.3266,0.99349 8.0594,-0.60796 2.282,-1.33738 2.7873,-1.04467 1.1577,0.67067 -2.471,2.60102 -5.5671,3.45347 -8.2356,2.26744 z m -18.1029,-1.23972 c -0.8641,-0.31567 -2.2654,-1.05498 -3.1137,-1.64288 -2.2768,-1.57788 -5.5182,-6.0396 -4.3876,-6.0396 0.124,0 1.1254,0.89909 2.2244,1.998 4.8882,4.88826 10.6041,5.28607 13.4813,0.93832 1.1835,-1.78837 2.0673,-1.93625 1.4215,-0.23787 -0.7154,1.88165 -1.7565,3.116 -3.4638,4.10694 -2.2392,1.29977 -4.2294,1.58305 -6.1621,0.87709 z m 11.3471,-10.79513 c -1.8947,-0.82273 -3.7,-2.39857 -5.5388,-4.83497 -2.0776,-2.7526 -1.5116,-3.35781 0.875,-0.93573 1.0527,1.06829 2.6956,2.40072 3.6509,2.96097 2.2663,1.32903 5.7175,1.71008 7.4367,0.82109 1.2533,-0.6481 3.1756,-2.63757 3.5421,-3.66582 0.333,-0.93394 0.8256,0.009 0.5593,1.07017 -0.9724,3.87414 -6.558,6.30697 -10.5252,4.58429 z m 21.2209,-10.51538 c -1.5076,-0.34714 -3.7733,-1.49493 -4.1481,-2.10148 -0.5087,-0.82315 0.1782,-0.90921 1.8661,-0.23382 0.9233,0.36941 2.1865,0.66861 2.8069,0.66486 1.8031,-0.0103 4.3287,-1.70267 5.6745,-3.80101 2.0788,-3.24153 2.6429,-2.05923 0.7909,1.6574 -1.5939,3.19857 -3.9886,4.50519 -6.9903,3.81405 z m -35.7702,-3.0639 c -1.492,-1.01385 -3.2626,-3.71988 -2.7618,-4.22077 0.1546,-0.15451 1.0188,0.38558 1.9204,1.2002 0.9251,0.83572 2.2906,1.60327 3.1337,1.76146 1.6214,0.30415 4.9044,0.0608 6.1539,-0.4561 1.6134,-0.66744 0.4155,0.84416 -1.4045,1.77229 -2.4634,1.25633 -5.1407,1.23464 -7.0417,-0.0571 z m 17.0662,-4.7891 c -2.5692,-1.16619 -4.4546,-2.73025 -5.8736,-4.87273 -1.9832,-2.99417 -1.495,-3.45651 0.917,-0.86846 4.4628,4.7884 9.7236,5.77516 13.5636,2.54406 1.2957,-1.09017 2.8645,-3.74946 2.8645,-4.85547 0,-0.35003 0.186,-0.6364 0.4133,-0.6364 0.5707,0 0.5188,2.19611 -0.085,3.59682 -2.14,4.96275 -7.2379,7.16277 -11.7995,5.09218 z m -29.9936,-2.38636 c 0.8599,-6.99662 0.013,-18.42478 -2.0047,-26.85369 -0.812,-3.40227 -0.8401,-4.88534 -0.079,-4.1236 0.5975,0.59749 2.2571,8.73219 2.8813,14.12308 0.4636,4.00349 0.6085,7.71801 0.468,11.99808 -0.2021,6.15905 -0.4368,7.64583 -1.2072,7.64583 -0.2545,0 -0.2762,-1.0228 -0.059,-2.7897 z m 15.5315,-12.30477 c -2.461,-0.67312 -5.2757,-2.01782 -5.7164,-2.73095 -0.3212,-0.51977 0.03,-0.46173 3.9464,0.65149 4.8135,1.36834 7.8375,0.33978 10.3275,-3.51289 0.8468,-1.31017 1.7777,-2.95698 2.0688,-3.65959 0.291,-0.7026 0.6925,-1.27746 0.8923,-1.27746 0.5062,0 0.4603,0.39407 -0.3083,2.64982 -0.6176,1.81245 -0.618,2.02394 0,2.63677 0.7425,0.7425 5.109,1.18111 7.4278,0.7461 2.2933,-0.43021 5.0743,-2.54876 6.0842,-4.63465 0.9065,-1.87258 0.9406,-3.55806 0.1405,-6.93553 -0.3859,-1.62859 0.5411,-1.0535 1.3247,0.82185 1.2485,2.98839 0.4829,7.75547 -1.6117,10.03394 -2.224,2.41917 -7.2988,3.25186 -11.6933,1.91871 -2.8059,-0.85116 -3.1537,-0.79713 -4.0953,0.63622 -1.7557,2.67272 -5.0637,3.67322 -8.782,2.65617 z m 34.2783,-6.33439 c -1.8131,-0.51063 -1.1026,-1.09617 1.6135,-1.3299 3.4805,-0.29951 5.3008,-1.32864 6.3559,-3.59357 0.9409,-2.01966 1.4612,-2.24047 1.4481,-0.61472 -0.015,1.85959 -1.4581,4.5321 -2.8309,5.242 -1.2603,0.6517 -4.7648,0.8093 -6.5866,0.29619 z m -57.731,-32.19528 c -1.1463,-5.90371 -3.3334,-11.40765 -7.0281,-17.68627 -2.6529,-4.50849 -6.5058,-9.72046 -8.8321,-11.94771 -1.774,-1.69855 -2.0783,-2.29252 -1.1741,-2.29252 1.2391,0 6.9462,6.98611 10.2976,12.60528 2.2467,3.76696 5.0584,9.56983 6.2683,12.93694 1.2493,3.47674 1.8684,7.52082 1.1514,7.52082 -0.2543,0 -0.5617,-0.51144 -0.683,-1.13654 z m -28.0888,-41.22817 c -4.642,-6.74001 -16.6956,-15.48305 -27.4149,-19.88533 -3.8721,-1.59021 -4.5193,-1.98802 -3.8787,-2.38397 1.2063,-0.74554 13.4984,5.46645 20.0902,10.15293 6.2329,4.43138 13.4599,11.85042 13.4599,13.81767 0,1.09039 -0.6943,0.56685 -2.2565,-1.7013 z m -48.2009,-25.64803 c -2.0042,-1.47858 -4.9953,-2.24625 -8.7522,-2.24625 -2.4324,0 -3.2201,-0.13182 -3.087,-0.51661 0.1266,-0.36757 1.2401,-0.49913 3.8574,-0.45605 4.144,0.0682 7.6623,1.13394 9.221,2.79309 1.2953,1.37878 0.4474,1.67015 -1.2392,0.42582 z m 118.686,82.04616 c 1.8191,-0.92802 3.275,-2.69885 4.591,-5.58377 0.7595,-1.66511 0.9341,-2.78629 0.9423,-6.05257 0,-2.49687 -0.1702,-4.18923 -0.4679,-4.48701 -0.3621,-0.36195 -1.1477,-0.3102 -3.234,0.21301 -3.0037,0.75334 -6.4865,0.47718 -10.1114,-0.80175 -0.9783,-0.3452 -1.9383,-0.62763 -2.1332,-0.62763 -0.1949,0 -0.808,0.89508 -1.3623,1.98907 -0.5543,1.09399 -1.3015,2.23264 -1.6601,2.53034 -0.9534,0.7913 -0.8053,1.82312 0.5743,3.99856 1.2775,2.01419 2.2588,4.64014 2.7264,7.29486 0.3168,1.79903 0.4083,1.87757 2.7567,2.3665 2.3613,0.49162 5.46,0.13901 7.3782,-0.83961 z m 0.8392,-17.34635 c 2.3789,-0.66078 4.1094,-2.09327 5.4832,-4.53887 1.1227,-1.99844 1.2733,-2.6462 1.2493,-5.37274 -0.028,-3.21591 -1.1703,-7.27489 -2.442,-8.68019 -0.4123,-0.45564 -1.5595,-0.79694 -3.2135,-0.95597 -1.4147,-0.13605 -3.4547,-0.55165 -4.5335,-0.92357 -1.9578,-0.67502 -1.9636,-0.67428 -3.2619,0.41814 -1.7232,1.45005 -4.788,2.97859 -6.6862,3.33468 -0.8423,0.15803 -1.6375,0.45889 -1.7672,0.6686 -0.1295,0.2097 0.3199,1.25799 0.9989,2.32955 1.8037,2.84697 2.6424,5.65956 2.779,9.32016 0.066,1.78144 0.2229,3.34114 0.3478,3.46599 0.1252,0.12489 1.209,0.46478 2.4093,0.75541 2.6882,0.65092 6.6425,0.73279 8.6368,0.17881 z m 17.594,-4.517 c 1.883,-0.85489 3.501,-2.8148 5.0325,-6.09559 l 0.9773,-2.09394 -1.6871,-6.14538 c -2.3144,-8.42922 -4.1226,-13.87919 -4.849,-14.61536 -0.5396,-0.54678 -0.6378,-0.50904 -0.8571,0.3296 -0.5055,1.93322 -2.9657,6.55208 -4.556,8.55366 -0.9668,1.21691 -2.563,2.56277 -3.8827,3.27377 -1.2326,0.66405 -2.3645,1.39286 -2.5152,1.61958 -0.1508,0.22673 0.2599,1.35861 0.9127,2.5153 1.627,2.88302 2.6109,6.93121 2.3348,9.60675 -0.2481,2.40334 -0.035,2.73156 2.1928,3.36783 2.3034,0.6581 5.0258,0.53328 6.897,-0.31622 z m -29.655,-14.10212 c 2.7024,-1.16251 5.4394,-4.12921 6.6663,-7.22567 1.4549,-3.67197 1.4237,-9.42198 -0.068,-12.60324 -1.4061,-2.99781 -3.1731,-4.96438 -5.5671,-6.19562 l -1.9412,-0.99839 -0.6678,0.93956 c -3.6217,5.09544 -5.8261,6.88884 -10.0702,8.19294 -1.307,0.40161 -2.3764,0.96449 -2.3764,1.25085 0,0.28637 0.6378,1.68943 1.4171,3.11794 1.7928,3.28573 2.7158,6.87581 2.7158,10.56212 0,2.95742 0.2606,3.51147 1.8598,3.95329 1.574,0.43487 5.9776,-0.10991 8.0321,-0.99378 z m 16.1931,-3.08169 c 4.4031,-1.50028 9.406,-7.123 11.1467,-12.5276 l 0.8956,-2.78108 -2.1679,-5.50461 c -2.8961,-7.35372 -5.6578,-13.43595 -6.1794,-13.60985 -0.2336,-0.0779 -0.641,0.38451 -0.9055,1.02747 -3.4457,8.37634 -6.7954,11.70786 -11.7723,11.70786 -0.7416,0 -1.452,0.16773 -1.5789,0.37273 -0.1265,0.20502 0.4173,1.33518 1.209,2.51149 0.7916,1.1763 1.7273,3.10084 2.0794,4.27674 0.9274,3.09799 0.8452,7.88065 -0.1885,10.94883 -0.4684,1.39069 -0.8517,2.70488 -0.8517,2.92041 0,1.22777 5.3891,1.65405 8.3135,0.65761 z m -116.0511,-8.66924 c 0.4538,-3.89282 0.065,-19.33868 -0.5498,-21.84296 -0.4368,-1.77914 -0.6855,-2.08994 -2.2064,-2.75771 -3.1173,-1.36875 -9.4104,-2.99774 -9.8567,-2.55145 -0.277,0.27691 -0.1886,1.40668 0.2663,3.40644 1.4219,6.25244 1.3056,11.99666 -0.4748,23.40909 -0.1945,1.24634 -0.1227,1.33213 1.3507,1.60848 0.8594,0.16123 1.8497,0.1112 2.2118,-0.11185 1.5851,-0.97598 3.3375,-9.07449 3.3548,-15.50436 0.013,-3.53622 0.1201,-4.48141 0.4576,-3.90124 0.6982,1.20138 0.531,10.33829 -0.2543,13.90605 -0.3752,1.70482 -0.7861,3.7838 -0.9129,4.61997 -0.2281,1.50437 -0.2115,1.52519 1.5765,1.98538 0.9938,0.25579 1.9928,0.53741 2.2201,0.62582 0.2273,0.0885 0.8782,0.1249 1.4465,0.0811 0.9602,-0.0741 1.0571,-0.28406 1.3706,-2.9727 z m 86.3494,-6.87304 c 2.8637,-0.64454 6.693,-3.27513 8.1858,-5.62363 4.1351,-6.50492 3.6135,-14.81508 -1.2618,-20.10425 -1.3071,-1.41803 -2.2786,-2.03153 -4.0173,-2.53697 -1.5911,-0.46258 -2.4251,-0.53476 -2.7241,-0.23578 -0.237,0.23696 -0.58,1.67004 -0.7624,3.1846 -0.1822,1.51455 -0.7443,3.60646 -1.2487,4.64868 -1.1931,2.46442 -4.0017,5.24683 -6.452,6.39173 -1.0713,0.50061 -2.1703,1.05157 -2.4421,1.22435 -0.3548,0.22561 0.013,1.27593 1.2906,3.72616 1.2238,2.33963 1.9474,4.38213 2.302,6.49876 0.2845,1.69772 0.7266,3.23151 0.9825,3.4084 0.509,0.35185 3.0794,0.10849 6.1475,-0.58205 z m -175.7504,-6.46852 c 12.7808,-6.3978 21.3652,-10.29783 28.7641,-13.06805 l 2.9337,-1.09835 1.6887,-3.60412 c 2.0206,-4.3119 3.247,-8.22704 3.6255,-11.57346 0.3552,-3.13846 -0.1429,-3.50514 -2.4359,-1.79344 -3.3963,2.53537 -15.884,10.7504 -21.5575,14.18175 -8.4822,5.13004 -18.7107,10.80964 -28.5328,15.84355 -9.738,4.99079 -10.523,5.43525 -10.523,5.95875 0,0.82184 5.4573,1.94203 9.919,2.03608 2.1533,0.0453 3.0025,-0.31722 16.1182,-6.88271 z m -32.3566,3.00572 c 0.4896,-0.34297 0.9494,-0.97477 1.0219,-1.40401 0.3066,-1.81848 19.7686,-22.94806 24.8006,-26.92564 2.4903,-1.96852 3.0939,-1.98276 7.3597,-0.17373 3.3831,1.43478 8.3002,1.78322 14.2065,1.00674 l 4.1858,-0.55031 5.7861,-3.8809 c 3.1823,-2.1345 7.319,-5.02911 9.1926,-6.43247 3.789,-2.83783 4.1022,-3.38711 6.1691,-10.81734 1.4175,-5.09543 1.7702,-12.86181 0.7852,-17.2891 -1.8777,-8.43993 -7.5943,-14.39171 -15.9734,-16.63048 -3.3654,-0.89925 -10.6469,-0.91395 -14.6386,-0.0296 -3.3759,0.74797 -7.8618,2.24888 -10.6293,3.55654 -7.2518,3.42635 -22.1572,26.80347 -34.5926,54.25373 -3.9407,8.69869 -8.6937,20.54598 -8.9999,22.43339 -0.2106,1.29745 -0.1497,1.36542 1.7914,1.99716 4.481,1.45851 8.2213,1.80606 9.5349,0.886 z m -5.6659,-9.29091 c 0,-0.83615 1.6334,-4.67021 2.3063,-5.41382 1.2606,-1.39304 1.3822,-0.40127 0.2212,1.80577 -0.6268,1.19142 -1.2484,2.58262 -1.3815,3.09155 -0.2377,0.90879 -1.146,1.31816 -1.146,0.5165 z m 44.4285,-30.44735 c -2.5014,-0.68008 -4.7528,-1.94531 -4.7528,-2.67103 0,-0.98173 0.5116,-0.97356 3.2075,0.0511 8.8896,3.37874 18.4361,-3.4667 19.0251,-13.64218 0.1265,-2.17732 -0.026,-3.88539 -0.4858,-5.46801 -0.8449,-2.90641 -0.8528,-4.03417 -0.028,-4.03417 0.8156,0 1.8181,2.37777 2.3824,5.6504 1.2865,7.46226 -2.7772,15.48964 -9.5225,18.81028 -2.1543,1.06064 -3.2374,1.32395 -5.8229,1.41566 -1.7469,0.062 -3.5482,0.0116 -4.0028,-0.1121 z m -9.3945,-6.23641 c -1.0585,-1.20208 -2.6521,-4.71977 -3.2093,-7.08373 -0.5843,-2.47907 -0.3616,-7.6933 0.4211,-9.86109 0.3288,-0.91075 0.753,-1.34319 1.318,-1.34319 0.7222,0 0.7954,0.17859 0.5504,1.34319 -0.1555,0.73875 -0.3814,2.97848 -0.502,4.97716 -0.2435,4.03266 0.3713,6.7217 2.1669,9.47906 1.5992,2.45562 0.9971,4.46695 -0.7451,2.4886 z m 9.4462,-2.77693 c -2.0997,-0.74839 -4.2201,-2.8435 -5.0334,-4.97316 -0.6986,-1.82922 -0.6725,-5.21527 0.043,-5.44962 0.2382,-0.0781 1.4341,0.60484 2.6577,1.51771 2.6222,1.95643 4.3464,2.16831 5.7228,0.70323 1.2482,-1.32867 1.1371,-3.14058 -0.3761,-6.13851 -1.6923,-3.35244 -1.2104,-3.69543 3.2733,-2.32972 3.2849,1.00053 5.8358,4.66862 5.8358,8.39154 0,6.24975 -6.1093,10.42187 -12.1224,8.27853 z m -9.4884,-18.26633 c -0.4989,-0.49895 -0.2928,-0.94288 1.2109,-2.60728 1.8131,-2.00692 4.1072,-3.47878 4.9301,-3.16304 0.6663,0.25571 0.8485,1.49967 0.2197,1.49967 -0.2144,0 -1.4946,1.02289 -2.845,2.27308 -2.4117,2.23281 -2.9658,2.54759 -3.5157,1.99757 z m 21.7961,-2.24939 c -1.2132,-1.34338 -5.1952,-3.18689 -7.5615,-3.50081 -2.3441,-0.31094 -3.013,-0.86093 -1.9724,-1.62179 2.2337,-1.63334 12.5715,3.09482 11.7049,5.3534 -0.3433,0.89433 -1.2411,0.79887 -2.171,-0.2308 z m -36.5045,62.22891 c 8.9665,-4.49313 25.2966,-13.57777 26.9251,-14.97878 1.0733,-0.92331 0.6254,-1.18286 -2.5509,-1.47805 -1.5931,-0.14807 -4.3422,-0.73088 -6.109,-1.29515 -1.7669,-0.56426 -3.5372,-1.0283 -3.9342,-1.03121 -0.9633,-0.006 -8.717,7.51777 -15.0417,14.59782 -4.3946,4.91931 -5.7936,6.8879 -4.895,6.8879 0.1175,0 2.6394,-1.21614 5.6057,-2.70253 z m 216.7673,1.86147 c 2.4365,-1.17947 5.7777,-4.86989 7.2419,-7.99869 2.0934,-4.47365 2.0683,-4.7289 -1.0807,-11.02435 -5.8925,-11.7802 -9.5783,-17.74514 -10.9649,-17.74514 -0.2157,0 -0.3922,0.99751 -0.3922,2.21669 0,7.57252 -3.3539,13.50916 -8.3559,14.79117 -1.1394,0.29201 -2.1636,0.7706 -2.276,1.06353 -0.1123,0.29293 0.4875,1.29841 1.333,2.23439 1.6697,1.84813 3.2735,5.10171 3.7668,7.64143 0.1711,0.88159 0.3235,3.08491 0.3386,4.89626 l 0.027,3.29334 1.8598,0.71373 c 2.6095,1.0015 6.3379,0.96538 8.5022,-0.0824 z m -35.751,-5.6014 c 6.799,-1.98813 9.6913,-6.38393 10.1733,-15.46183 0.3451,-6.49986 -1.4021,-12.37463 -4.817,-16.19756 l -1.4584,-1.63246 -2.8795,0.46488 c -1.5837,0.25569 -3.3218,0.35386 -3.8624,0.21817 -1.2715,-0.31914 -2.1438,0.42637 -2.1438,1.8323 0,3.4785 -3.2044,8.10106 -6.8725,9.91372 -1.1072,0.54718 -2.1353,1.17871 -2.2846,1.40342 -0.1491,0.22472 0.5958,1.54154 1.6558,2.9263 3.737,4.88249 5.4397,10.73144 4.2094,14.4593 -0.7394,2.24068 -0.1537,2.73017 3.2675,2.73017 1.5222,0 3.7775,-0.29539 5.0122,-0.65641 z m -122.9532,-9.09 c 1.7445,-0.55983 2.716,-1.37852 6.7432,-5.68271 8.8799,-9.49032 12.4194,-16.92948 12.4392,-26.14355 0.022,-10.39786 -6.7596,-21.23391 -16.2879,-26.02486 -3.4117,-1.71542 -4.2249,-1.42152 -2.5982,0.9392 5.6511,8.20103 6.3302,19.66106 1.9428,32.78547 -1.331,3.98187 -1.6476,5.51829 -1.6476,7.99892 0,3.92017 -0.8296,8.21531 -2.4338,12.59959 -1.1784,3.22046 -1.2957,4.18201 -0.5098,4.18201 0.1727,0 1.2311,-0.29432 2.3521,-0.65407 z m 145.3496,-6.95456 c 0.8545,-0.41518 2.2877,-1.67695 3.185,-2.80393 2.3656,-2.97106 3.3838,-5.97969 3.6322,-10.73278 l 0.2087,-3.99389 -4.7798,-4.75328 c -5.0168,-4.98889 -13.2631,-12.26288 -13.9023,-12.26288 -0.2058,0 -0.3652,1.99928 -0.3542,4.44285 0.024,5.52428 -0.9131,8.42758 -3.4143,10.56851 -0.895,0.76606 -1.6273,1.59761 -1.6273,1.84789 0,0.2503 0.9108,1.65837 2.0239,3.12905 2.3119,3.05432 3.6718,6.30792 4.256,10.18174 0.5113,3.39059 1.1084,4.63793 2.4055,5.02486 1.802,0.53759 6.7085,0.15751 8.3666,-0.64814 z m -40.8513,-3.9544 c 7.8509,-2.00793 11.4126,-6.00661 11.3946,-12.79266 -0.018,-6.82704 -4.1132,-14.57938 -9.3101,-17.62499 l -1.7813,-1.04392 -2.0766,1.49193 c -2.4967,1.7936 -5.5504,2.90867 -9.0402,3.30096 -1.4207,0.1597 -2.5995,0.4116 -2.6195,0.55976 -0.021,0.14815 -0.1046,1.15266 -0.1871,2.23221 -0.2139,2.78553 -1.4715,5.33986 -3.8862,7.89302 -1.1492,1.21515 -2.0896,2.40728 -2.0896,2.64919 0,0.24189 0.8207,0.83705 1.8237,1.32258 3.7566,1.81856 7.2892,5.85557 8.7103,9.9541 0.3513,1.01317 0.7227,2.07461 0.8254,2.35875 0.2866,0.79251 4.5737,0.63587 8.2366,-0.30093 z m -26.0717,-11.82346 c 4.9582,-2.48045 7.6539,-4.91749 9.2644,-8.37556 0.9017,-1.93613 1.008,-2.63393 0.8525,-5.59606 -0.2489,-4.74265 -2.2282,-8.71795 -6.5773,-13.20944 l -3.1548,-3.25821 -1.8106,1.04327 c -2.0406,1.17572 -5.4033,2.21978 -8.3103,2.58019 -1.0745,0.13321 -2.036,0.37573 -2.137,0.53896 -0.1007,0.16322 0.1922,1.40784 0.6511,2.76581 1.4361,4.24953 0.9258,7.97794 -1.5328,11.20161 -0.5613,0.73583 -1.0206,1.52437 -1.0206,1.75233 0,0.22796 1.0694,1.16668 2.3765,2.08606 2.9139,2.0497 4.3598,3.82734 5.9303,7.29099 0.7401,1.63223 1.4583,2.66227 1.8565,2.66227 0.3571,0 1.9825,-0.66699 3.6121,-1.48222 z m 82.4589,-0.5868 c 0.9433,-0.68336 1.7151,-1.39699 1.7151,-1.58588 0,-0.62799 -16.6629,-17.24056 -21.491,-21.42617 -12.4571,-10.79923 -23.6683,-18.33548 -36.5208,-24.5495 -3.2127,-1.5533 -5.7339,-2.83157 -5.6025,-2.8406 0.606,-0.0417 6.0672,2.37383 11.2334,4.96863 15.4424,7.75593 29.0795,18.04014 45.355,34.2037 l 8.8857,8.82458 1.6532,-0.92859 c 3.2438,-1.82214 4.7528,-2.88003 4.7528,-3.33212 0,-0.74607 -12.6102,-13.30974 -17.9233,-17.85717 -13.8251,-11.83291 -27.5518,-20.52672 -41.8876,-26.5295 -2.0957,-0.8775 -3.7437,-1.66206 -3.6623,-1.74345 0.3058,-0.30584 7.2793,2.57987 13.2585,5.48664 10.6945,5.19892 20.4178,11.41156 30.2858,19.35107 5.9145,4.75866 16.0537,14.09764 19.3213,17.79656 1.3241,1.49885 2.641,2.72519 2.9261,2.72519 0.932,0 6.5441,-2.41049 6.6997,-2.87763 0.3214,-0.96431 -7.4792,-9.42475 -13.3151,-14.44124 -8.3824,-7.20547 -19.2219,-14.27239 -31.0393,-20.23628 -7.2001,-3.63368 -6.653,-3.86903 0.7631,-0.32827 10.197,4.8685 19.6034,10.54789 27.7396,16.7487 4.1315,3.14864 14.1062,12.70123 16.8286,16.1164 l 1.4355,1.80093 3.6869,-0.91257 c 2.0279,-0.50191 3.8542,-1.07031 4.0584,-1.2631 0.508,-0.47936 -0.2659,-1.56533 -4.4029,-6.17901 -8.2416,-9.19091 -20.6974,-18.22331 -34.9141,-25.31828 -2.7809,-1.38778 -4.9681,-2.61128 -4.8604,-2.71889 0.1072,-0.10759 3.9636,1.67983 8.569,3.9721 15.1178,7.52471 26.3646,15.8513 35.0545,25.95288 2.0137,2.34087 3.6627,3.89823 4.1276,3.89823 2.4971,0 7.0978,-0.99554 7.3239,-1.58482 0.2982,-0.77696 -5.552,-6.43587 -12.7732,-12.35571 -24.6637,-20.21889 -54.1661,-33.29899 -85.9348,-38.09978 -19.5482,-2.95406 -41.9541,-2.97304 -62.7913,-0.0532 -9.508,1.33233 -15.2916,2.51442 -15.2916,3.1254 0,0.29528 1.1764,1.71646 2.6141,3.15819 1.691,1.69571 3.1139,3.63942 4.0296,5.5046 1.3108,2.67019 1.4154,3.17425 1.4154,6.81926 0,2.93712 -0.1835,4.29293 -0.7233,5.34264 -0.3978,0.77367 -0.7232,1.55538 -0.7232,1.73713 0,0.18175 0.8232,0.69454 1.8292,1.13955 2.158,0.95463 5.211,3.66683 6.9145,6.1427 0.6683,0.97127 1.5368,1.76593 1.9301,1.76593 1.2074,0 6.3792,-2.70994 8.2091,-4.30148 5.0869,-4.42461 5.71,-13.7281 1.3691,-20.44433 -0.8547,-1.32242 -1.8172,-2.50539 -2.1388,-2.6288 -0.3217,-0.12347 -2.6224,-0.53521 -5.1127,-0.91506 -6.724,-1.0256 -7.0078,-1.1191 -7.0078,-2.30911 0,-0.98587 0.087,-1.01582 2.7554,-0.95618 6.1095,0.13655 21.4396,3.71159 34.2338,7.98346 30.7482,10.26641 57.7707,27.24923 79.086,49.70271 2.9719,3.13059 5.6143,5.69198 5.8721,5.69198 0.2577,0 1.2404,-0.5591 2.1839,-1.24245 z m -36.1984,-2.06285 c 2.7223,-1.01855 4.4577,-2.76451 5.957,-5.99369 1.0023,-2.15833 1.1525,-2.98859 1.1591,-6.40597 0,-2.15943 -0.1266,-4.40317 -0.2911,-4.9861 -0.4402,-1.56229 -9.7096,-8.28718 -19.7329,-14.31593 -4.7317,-2.84606 -5.6185,-3.12901 -5.2415,-1.67235 1.3876,5.36105 1.5646,6.7934 1.1531,9.33413 -0.2333,1.44 -0.8066,3.35202 -1.274,4.24893 -0.4675,0.89691 -0.8501,1.77685 -0.8501,1.95542 0,0.17857 1.192,1.08451 2.6486,2.01318 4.3533,2.77535 7.6377,7.57405 9.1305,13.34063 0.3824,1.47695 0.9108,2.82245 1.174,2.99001 0.8976,0.57112 3.9561,0.31905 6.1673,-0.50826 z m -68.2459,-4.188 c 4.1994,-2.18475 7.0456,-4.7521 8.4496,-7.62188 0.9843,-2.01168 1.0855,-2.60984 0.9086,-5.36589 -0.2946,-4.59087 -2.6697,-9.19421 -6.9545,-13.479 -4.0662,-4.06622 -4.8542,-4.29808 -7.1424,-2.10174 -2.1866,2.0988 -4.7861,3.57192 -7.8593,4.45382 -2.7338,0.78444 -2.5349,-0.009 -1.5415,6.15174 0.3759,2.3309 0.3451,3.30283 -0.1672,5.3028 -0.3451,1.34686 -0.6274,2.616 -0.6274,2.82033 0,0.20432 0.7704,0.7645 1.7119,1.24483 2.7579,1.40698 5.6812,4.44508 7.2231,7.50696 0.8476,1.68343 1.6681,2.79529 2.0626,2.79529 0.3602,0 2.1316,-0.76827 3.9365,-1.70726 z m -27.8477,-2.59768 c 5.5933,-1.90242 8.9862,-4.57063 10.772,-8.47139 1.8328,-4.00327 1.2987,-10.05787 -1.2792,-14.50069 -1.7523,-3.02017 -5.9783,-6.61261 -7.7786,-6.61261 -0.2677,0 -1.2813,0.73229 -2.2523,1.62729 -2.673,2.46401 -6.9241,4.33395 -12.6888,5.58165 -0.6251,0.1353 -1.1365,0.3856 -1.1365,0.55622 0,0.17063 0.8444,1.42244 1.8762,2.78182 3.6275,4.77848 5.992,10.74839 6.6264,16.73004 0.1566,1.4775 0.3645,2.82586 0.4617,2.99634 0.3322,0.58227 2.4606,0.31076 5.3991,-0.68867 z m 69.3796,-7.84288 c 4.1418,-1.872 6.9528,-5.50434 8.0485,-10.40032 0.9083,-4.0591 -0.7115,-9.89674 -3.2351,-11.65859 -2.266,-1.58194 -18.9887,-9.18853 -20.2005,-9.18853 -0.7385,0 -0.7279,0.70693 0.044,2.89302 0.786,2.22752 0.7972,6.71896 0.023,9.29044 -0.3282,1.09044 -1.1913,2.72263 -1.9182,3.62708 l -1.3215,1.64446 3.3108,3.15454 c 4.1857,3.98809 6.1539,6.89028 7.7084,11.36622 0.2305,0.66378 0.6018,0.74742 2.6387,0.59426 1.3627,-0.10242 3.4468,-0.66473 4.9024,-1.32258 z m -24.7105,-12.03242 c 3.2731,-1.46886 6.2661,-4.63565 7.5178,-7.95429 1.2288,-3.25778 1.0242,-8.17545 -0.4521,-10.86436 -0.9795,-1.7843 -1.1562,-1.89307 -5.5546,-3.42221 -9.3546,-3.25202 -22.1175,-6.60782 -22.745,-5.98038 -0.1252,0.12554 0.4224,1.41282 1.2173,2.86073 2.5898,4.71645 3.4242,10.26238 2.1062,13.99796 -0.8799,2.49396 -0.8111,2.762 1.0038,3.90766 2.2613,1.42744 6.8537,5.79398 7.9367,7.54622 l 0.9021,1.4598 2.7431,-0.19626 c 1.7676,-0.12644 3.6611,-0.60826 5.3247,-1.35487 z m -56.6153,-3.93381 c 6.011,-1.66572 10.1326,-4.45891 12.2678,-8.31366 1.1306,-2.04131 1.2265,-2.53836 1.2265,-6.34762 0,-3.70603 -0.1214,-4.38034 -1.1764,-6.52894 -1.2455,-2.5363 -4.87,-6.76293 -6.5879,-7.68237 -0.8652,-0.46303 -1.4996,-0.44296 -4.0695,0.12877 -4.7371,1.05395 -16.6243,4.43257 -17.1996,4.88858 -0.7933,0.62872 -0.6532,0.87921 1.2398,2.21688 2.3298,1.64632 4.125,4.9421 4.125,7.57313 0,2.09593 -1.1719,5.23812 -2.3013,6.17046 -1.2394,1.02321 -0.7791,1.94488 1.7517,3.50696 1.3413,0.8279 3.4336,2.33817 4.6494,3.35617 1.216,1.01798 2.4005,1.85487 2.6324,1.85975 0.2319,0.005 1.7808,-0.36777 3.4421,-0.82813 z m -14.2756,-7.75383 c 1.8994,-2.09896 2.5351,-6.95261 1.2986,-9.91705 -0.7375,-1.76827 -2.7769,-4.02712 -4.4067,-4.88092 -1.042,-0.5458 -1.511,-0.44547 -6.6126,1.41471 -9.5581,3.485 -19.7361,8.05794 -20.0454,9.00631 -0.1046,0.32217 1.6542,0.52907 5.7549,0.67676 6.3402,0.22835 8.6379,0.73494 12.904,2.84519 1.6181,0.80032 2.8126,1.13586 3.513,0.98671 0.5838,-0.12424 1.8981,-0.059 2.921,0.14505 2.9118,0.58093 3.9527,0.51928 4.6732,-0.27676 z"
         id="path1001" />
    </g>
    <g
       transform="matrix(0.93168,0,0,0.93168,785.36697,-207.12884)"
       id="g1325"
       style="fill:#0f47af">
      <use
         xlink:href="#0"
         id="use1319"
         x="0"
         y="0"
         width="100%"
         height="100%" />
      <use
         xlink:href="#2"
         id="use1321"
         x="0"
         y="0"
         width="100%"
         height="100%" />
      <use
         xlink:href="#1"
         id="use1323"
         x="0"
         y="0"
         width="100%"
         height="100%" />
    </g>
    <g
       style="fill:#0f47af"
       id="g1333"
       transform="matrix(0.93168,0,0,0.93168,698.5025,-103.13644)">
      <use
         height="100%"
         width="100%"
         y="0"
         x="0"
         id="use1327"
         xlink:href="#0" />
      <use
         height="100%"
         width="100%"
         y="0"
         x="0"
         id="use1329"
         xlink:href="#2" />
      <use
         height="100%"
         width="100%"
         y="0"
         x="0"
         id="use1331"
         xlink:href="#1" />
    </g>
  </g>
</svg>
