<svg xmlns="http://www.w3.org/2000/svg" width="701.33" height="741.77" viewBox="0 0 701.3341 741.76859" xmlns:xlink="http://www.w3.org/1999/xlink"><g transform="translate(-24.589-47.764)"><g fill-rule="evenodd"><path d="m30.27 53.26l13.398 416.62c7.415 175.25 153.92 314.05 331.59 314.14 177.51-.215 324.07-139.06 331.59-314.14l13.398-416.62h-344.98z" fill="#ffd700"/><g stroke="#000"><g stroke-width="11"><path d="m30.27 53.26l13.398 416.62c7.415 175.25 153.92 314.05 331.59 314.14 177.51-.215 324.07-139.06 331.59-314.14l13.398-416.62h-344.98z" fill="none"/><path d="m151.2 646.2c35.841-17.17 73.885-29.744 112.9-37.31 36.812-7.135 74.44-9.813 111.92-8.836 15.08.393 30.15 1.376 45.16 2.945 13.486-17.583 25.95-35.95 37.31-54.978 10.447-17.504 19.999-35.661 26.507-54.978 11.17-33.15 13.209-69.18 27.489-101.12 14.1-31.537 40.13-57.57 71.67-71.67-20.582 2.301-40.825 7.611-59.887 15.708-25.971 11.03-49.69 27.23-69.7 47.12-23.808 23.659-42.54 52.946-51.05 85.41-2.61 9.955-4.256 20.16-4.909 30.434-10.282-9.08-16.497-22.608-16.69-36.32-.156-11.1 3.45-21.987 8.549-31.853 5.099-9.866 11.676-18.876 17.958-28.03 24.777-36.12 45.548-75.81 53.997-118.79 6.361-32.359 5.543-66.06-1.964-98.18-6.978-29.85-19.716-58.34-37.31-83.45 1.619 23.266-3.186 46.946-13.745 67.741-19.321 38.05-55.642 63.871-86.73 93.11-32.885 30.929-61.05 67.25-80.17 108.15-13.745 29.405-22.733 61.03-26.507 93.27-8.82-21.963-11.566-46.33-7.854-69.7 4.18-26.323 16.183-50.633 25.526-75.6 4.101-10.956 7.705-22.1 10.799-33.38-10.456 13.955-21.601 27.394-33.38 40.25-30.392 33.18-65.54 63.22-86.39 103.08-17.05 32.598-23.416 70.42-19.635 107.01 4.145 40.12 20.419 78.897 46.14 109.96z" fill="#f00" stroke-linejoin="round"/></g><path d="m174.24 635.91c-16.592-23.534-28.362-50.45-34.37-78.61-7.629-35.741-5.824-73.75 7.193-107.9 7.369-19.332 18.256-37.32 31.967-52.81-5.877 23.504-4.09 48.859 5.03 71.31 9.501 23.396 27.05 43.584 49.32 55.49 9.01 4.819 18.745 8.294 28.772 10.276-6.788-14.89-10.98-30.96-12.331-47.27-3.01-36.32 8.25-72.993 27.745-103.79 28.594-45.17 73.33-77.57 106.87-119.2 16.15-20.05 29.663-42.22 40.08-65.765 3.455 21.74 3.455 44.03 0 65.765-9.946 62.59-47.32 116.89-70.903 175.72-4.223 10.533-8.05 21.404-8.87 32.722-.822 11.318 1.653 23.258 8.87 32.02 3.819 4.634 8.839 8.224 14.35 10.607 5.511 2.383 11.504 3.577 17.504 3.779 10.798.364 21.655-2.504 30.977-7.965 9.322-5.462 17.1-13.481 22.457-22.862 7.272-12.726 10.01-27.479 15.414-41.1 4.439-11.188 10.713-21.646 18.496-30.827-3.731 13.891-6.818 27.954-9.248 42.13-2.763 16.12-4.791 32.754-12.331 47.27-5.501 10.59-13.694 19.536-22.339 27.763-8.645 8.227-17.85 15.885-25.957 24.644-11.504 12.429-20.679 27.01-26.911 42.753" fill="none" stroke-linejoin="round" stroke-linecap="round" stroke-width="5"/></g></g><g transform="translate(669.74 5.201)"><g transform="translate(207.58-3.707)"><path fill="#090" stroke="#000" stroke-linejoin="round" stroke-linecap="round" stroke-width="8" d="m-316.43 522.65h27.338v109.35h-27.338z" id="6"/><path d="m-335.79 469.11c-3.505 7.416-6.731 14.959-9.673 22.607-3.386 8.803-6.464 17.88-12.01 25.555-4.612 6.383-10.865 11.615-18.02 15.07l-16.01 5.242c5.613 8.401 13.697 15.189 23.02 19.33 8.629 3.833 18.547 5.382 27.688 2.949 8.323-2.215 15.677-7.753 20.02-15.07 2.918 2.635 6.04 5.05 9.341 7.209 2.778 1.821 5.677 3.463 8.672 4.914 2.996-1.451 5.896-3.093 8.674-4.914 3.297-2.161 6.423-4.574 9.341-7.209 4.339 7.319 11.692 12.857 20.02 15.07 9.141 2.432 19.06.884 27.688-2.949 9.321-4.141 17.405-10.929 23.02-19.33l-16.01-5.242c-7.15-3.458-13.403-8.689-18.02-15.07-5.546-7.674-8.623-16.751-12.01-25.555-2.942-7.648-6.168-15.191-9.673-22.607h-33.03-33.03z" fill="#090" fill-rule="evenodd" stroke="#000" stroke-linejoin="round" stroke-linecap="round" stroke-width="8" id="7"/><path d="m-330.18 435.52c-2.909 5.962-5.588 12.03-8.03 18.18-2.811 7.078-5.366 14.375-9.97 20.545-3.829 5.132-9.02 9.338-14.955 12.12l-13.293 4.215c4.66 6.754 11.371 12.212 19.11 15.541 7.163 3.082 15.397 4.327 22.985 2.371 6.91-1.781 13.01-6.233 16.616-12.12 2.422 2.118 5.02 4.058 7.754 5.796 2.306 1.464 4.712 2.785 7.199 3.951 2.487-1.166 4.895-2.487 7.201-3.951 2.737-1.737 5.332-3.678 7.754-5.796 3.602 5.885 9.706 10.337 16.616 12.12 7.588 1.956 15.822.711 22.985-2.371 7.738-3.329 14.449-8.787 19.11-15.541l-13.293-4.215c-5.935-2.78-11.126-6.986-14.955-12.12-4.604-6.17-7.159-13.468-9.97-20.545-2.442-6.149-5.12-12.213-8.03-18.18h-27.418-27.416z" fill="#090" fill-rule="evenodd" stroke="#000" stroke-linejoin="round" stroke-linecap="round" stroke-width="8" id="8"/><path d="m-333.98 428.18c0 0-6.821 9.21-11.596 12.12-4.246 2.586-14.307 4.215-14.307 4.215 3.613 6.754 8.817 12.212 14.817 15.541 5.554 3.082 11.938 4.327 17.822 2.371 5.358-1.781 10.09-6.233 12.884-12.12 1.878 2.118 3.89 4.058 6.01 5.796 1.788 1.464 3.654 2.785 5.582 3.951 1.928-1.166 3.795-2.487 5.584-3.951 2.122-1.737 4.134-3.678 6.01-5.796 2.793 5.885 7.526 10.337 12.884 12.12 5.884 1.956 12.268.711 17.822-2.371 6-3.329 11.204-8.787 14.817-15.541 0 0-10.06-1.629-14.307-4.215-4.775-2.908-11.596-12.12-11.596-12.12z" fill="#090" fill-rule="evenodd" stroke="#000" stroke-linejoin="round" stroke-linecap="round" stroke-width="8" id="9"/><path d="m-306.45 382.31c-.767 4.473-1.755 8.969-3.604 13.11-3.127 6.997-6.971 13.97-12.449 19.33-4.03 3.943-9.07 6.927-14.416 8.846 6.344 2.29 12.974 3.818 19.658 4.588 9.602 1.106 19.394 1.106 28.996 0 6.684-.77 13.313-2.298 19.656-4.588-5.344-1.919-10.385-4.903-14.414-8.846-5.478-5.36-9.324-12.333-12.451-19.33-1.849-4.136-2.837-8.633-3.604-13.11h-2.457-2.457z" fill="#090" fill-rule="evenodd" stroke="#000" stroke-linejoin="round" stroke-width="8" id="A"/></g><path d="m-113.2 541.08c-2.892-2.906-5.675-5.92-8.34-9.04-2.753-3.217-5.381-6.541-7.877-9.962" fill="none" fill-rule="evenodd" stroke="#000" stroke-linecap="round" stroke-width="8" id="0"/><path d="m-77.17 541.08c2.892-2.906 5.675-5.92 8.34-9.04 2.753-3.217 5.381-6.541 7.877-9.962" fill="none" fill-rule="evenodd" stroke="#000" stroke-linecap="round" stroke-width="8" id="1"/><path d="m-110.14 492.66c-1.374-1.457-2.695-2.964-3.957-4.519-1.309-1.612-2.556-3.275-3.737-4.983" fill="none" fill-rule="evenodd" stroke="#000" stroke-linecap="round" stroke-width="8" id="2"/><path d="m-80.23 492.66c1.374-1.457 2.695-2.964 3.957-4.519 1.309-1.612 2.556-3.275 3.737-4.983" fill="none" fill-rule="evenodd" stroke="#000" stroke-linecap="round" stroke-width="8" id="3"/><path d="m-106.78 446.6c-.708-.821-1.386-1.667-2.033-2.537-.675-.908-1.316-1.841-1.92-2.798" fill="none" fill-rule="evenodd" stroke="#000" stroke-linecap="round" stroke-width="8" id="4"/><path d="m-83.59 446.6c.708-.821 1.386-1.667 2.033-2.537.675-.908 1.316-1.841 1.92-2.798" fill="none" fill-rule="evenodd" stroke="#000" stroke-linecap="round" stroke-width="8" id="5"/></g><g transform="translate(242.99-297.73)"><g transform="translate(207.58-3.707)"><use xlink:href="#6"/><use xlink:href="#7"/><use xlink:href="#8"/><use xlink:href="#9"/><use xlink:href="#A"/></g><use xlink:href="#0"/><use xlink:href="#1"/><use xlink:href="#2"/><use xlink:href="#3"/><use xlink:href="#4"/><use xlink:href="#5"/></g></g></svg>