<svg xmlns="http://www.w3.org/2000/svg" viewBox="0 0 977.12 1067.6"><g transform="translate(116.51 15.349)"><path d="m681.87-5.323c-26.17.053-51.02.198-70.798.478-79.11 1.122-156.7-.214-235.05 0-2.653.007-5.305.036-7.958.043-78.35.214-155.94 1.122-235.05 0-79.11-1.122-239.53 0-239.53 0 0 0 4.995 48.18 6.784 72.32 3.067 41.38 4.256 82.87 6.784 124.29 3.405 55.766 7.902 111.49 11.307 167.25 2.529 41.41 3.91 82.9 6.784 124.29 4.346 62.59 5.02 125.75 15.786 187.56 6.02 34.562 14.418 68.979 27.14 101.67 15.355 39.473 33.473 78.71 58.839 112.63 18.288 24.456 41.648 45.04 65.884 63.62 27.747 21.272 57.962 39.816 89.93 53.968 33.818 14.97 69.917 25.08 106.24 32.09 27.334 5.278 55.35 7.255 83.19 7.349 27.662.094 55.55-1.52 82.71-6.741 36.46-7.01 72.54-17.626 106.46-32.746 31.934-14.235 62.23-32.696 89.98-53.968 24.24-18.58 47.595-39.17 65.884-63.62 25.365-33.919 43.484-73.16 58.839-112.63 12.718-32.695 21.12-67.16 27.14-101.72 10.762-61.814 11.44-124.97 15.786-187.56 2.874-41.39 4.256-82.87 6.784-124.29 3.405-55.766 7.902-111.44 11.307-167.21 2.529-41.41 3.717-82.909 6.784-124.29 1.79-24.14 6.784-72.32 6.784-72.32 0 0-90.24-.636-168.73-.478" fill="#fff"/><path d="m711.66-5.344c-9.98-.002-19.969.012-29.781.031-26.17.053-51.04.188-70.813.469-79.11 1.122-156.68-.214-235.03 0-2.653.007-5.316.024-7.969.031-78.35.214-155.93 1.122-235.03 0-79.11-1.122-239.53 0-239.53 0 0 0 4.992 48.2 6.781 72.34 3.067 41.38 4.253 82.87 6.781 124.28 3.357 54.984 7.769 109.92 11.156 164.91h907.66c3.388-55.01 7.797-109.95 11.156-164.97 2.529-41.41 3.714-82.903 6.781-124.28 1.79-24.14 6.781-72.31 6.781-72.31 0 0-69.08-.484-138.94-.5" fill="#0f47af"/><g fill="none" stroke="#000"><path d="m681.87-5.323c-26.17.053-51.02.198-70.798.478-79.11 1.122-156.7-.214-235.05 0-2.653.007-5.305.036-7.958.043-78.35.214-155.94 1.122-235.05 0-79.11-1.122-239.53 0-239.53 0 0 0 4.995 48.18 6.784 72.32 3.067 41.38 4.256 82.87 6.784 124.29 3.405 55.766 7.902 111.49 11.307 167.25 2.529 41.41 3.91 82.9 6.784 124.29 4.346 62.59 5.02 125.75 15.786 187.56 6.02 34.562 14.418 68.979 27.14 101.67 15.355 39.473 33.473 78.71 58.839 112.63 18.288 24.456 41.648 45.04 65.884 63.62 27.747 21.272 57.962 39.816 89.93 53.968 33.818 14.97 69.917 25.08 106.24 32.09 27.334 5.278 55.35 7.255 83.19 7.349 27.662.094 55.55-1.52 82.71-6.741 36.46-7.01 72.54-17.626 106.46-32.746 31.934-14.235 62.23-32.696 89.98-53.968 24.24-18.58 47.595-39.17 65.884-63.62 25.365-33.919 43.484-73.16 58.839-112.63 12.718-32.695 21.12-67.16 27.14-101.72 10.762-61.814 11.44-124.97 15.786-187.56 2.874-41.39 4.256-82.87 6.784-124.29 3.405-55.766 7.902-111.44 11.307-167.21 2.529-41.41 3.717-82.909 6.784-124.29 1.79-24.14 6.784-72.32 6.784-72.32 0 0-90.24-.636-168.73-.478z" stroke-width="20"/><path d="m828.01 356.71h-909.07" stroke-width="5"/></g><g font-family="Sans" text-anchor="middle" text-align="center" word-spacing="0" line-height="125%" letter-spacing="0"><text x="463.37" y="987.16" transform="matrix(.9907.1361-.1361.9907 0 0)" fill="#0c0406" font-size="5.695"><tspan x="463.37" y="987.16">Christian Duscha</tspan></text><text x="189.9" y="1118.33" transform="matrix(.96906-.24682.24682.96906 0 0)" fill="#110406" font-size="3.963"><tspan x="189.9" y="1118.33">Gleiwitz-Essen-Landshut</tspan></text></g><g transform="translate(5.097)" fill="#fcdd09" stroke="#000" stroke-linejoin="round" stroke-width="5"><path d="m277.93 191.19l89.02 146.03 89.02-146.03-89.02-146.03z"/><path d="m12.01 191.19l89.02 146.03 89.02-146.03-89.02-146.03z"/><path d="m543.86 191.19l89.02 146.03 89.02-146.03-89.02-146.03z"/></g><g stroke-linecap="round"><g stroke-width="4"><g stroke="#000"><path d="m643.98 827.24c2.494.938 5.24.858 7.646 2.058 3.743 1.867 7.576 4.312 10.06 7.752 2.273 3.147 3.495 7.114 3.737 10.823.255 3.868-1.335 7.453-2.445 11.02-1.01 3.23-3.804 9.331-3.804 9.331 0 0-.708-11.621-3.843-16.478-1.33-2.061-3.534-3.755-5.8-4.524-3.318-1.125-7.398 2.674-10.115.316-.906-.786-.314-2.293-.47-3.44-.392-2.867-.784-5.733-1.176-8.6-.324-2.37-1.906-5.05-.972-7.111.476-1.051 1.788-1.537 2.935-1.755 1.357-.258 3.194-.456 4.245.612z"/><path d="m633.5 877.09c1.982 1.629 4.371 2.36 6.228 4.214 2.889 2.884 5.748 6.345 7.256 10.361 1.379 3.672 1.697 7.819 1.215 11.431-.503 3.767-2.543 6.723-4.166 9.797-1.472 2.787-5.03 7.789-5.03 7.789 0 0 1.552-11.303-.253-16.861-.766-2.359-2.356-4.625-4.173-6.02-2.66-2.05-6.896.376-8.806-2.674-.637-1.017.156-2.281.234-3.422.195-2.852.39-5.704.586-8.556.162-2.358-.707-5.382.484-7.07.608-.863 1.833-.942 2.865-.812 1.222.154 2.847.505 3.557 1.833z"/><path d="m614.51 917.23c.913 2.551 2.716 4.806 3.384 7.413 1.039 4.056 1.721 8.474.831 12.259-.814 3.462-2.885 6.454-5.395 8.497-2.617 2.131-6.2 2.585-9.464 3.426-2.959.762-9.118 1.453-9.118 1.453 0 0 7.893-6.362 9.388-11.393.634-2.135.45-4.818-.44-7.094-1.302-3.332-6.624-4.857-6.658-8.298-.011-1.147 1.447-1.401 2.171-2.101 1.809-1.751 3.618-3.502 5.427-5.252 1.496-1.448 2.414-4.101 4.488-4.343 1.057-.123 2.241.732 3.126 1.582 1.048 1.01 2.358 2.443 2.26 3.852z"/><path d="m519.07 878.31c-.721 2.19-2.25 3.827-2.75 6.146-.778 3.607-1.223 7.67-.284 11.595.858 3.59 2.824 7.104 5.146 9.833 2.422 2.846 5.645 4.362 8.597 6.156 2.677 1.626 8.214 4.146 8.214 4.146 0 0-7.302-8.521-8.828-13.832-.648-2.254-.583-4.791.128-6.723 1.04-2.828 5.746-2.701 5.647-6.02-.033-1.105-1.347-1.789-2.02-2.683-1.684-2.236-3.369-4.471-5.05-6.707-1.393-1.849-2.314-4.688-4.179-5.546-.951-.437-1.978.033-2.738.588-.9.657-2.02 1.652-1.878 3.043z"/><path d="m485.21 802.63c2.297 1.943 48.47 17.933 50.941 19.485 2.039 1.279 4.02 2.665 6.084 3.881 2.145 1.266 4.31 2.486 6.521 3.51 2.76 1.279 5.561 2.352 8.385 3.226 4.7 1.456 9.465 2.98 14.176 3.411 3.219.295 6.447.151 9.475-.573 3.2-.764 6.305-2.023 8.971-3.966 3.916-2.855 5.996-8.295 9.992-11.02 1.741-1.187 3.802-1.823 5.886-2.186 3.376-.588 7.179.945 10.462.045 2.208-.605 4.347-1.775 5.889-3.563 1.257-1.457.775-4.862 2.484-5.593 1.504-.644 3.475.858 5.082 1.811 2.54 1.506 5.25 3.336 6.948 6.05.986 1.576 1.494 3.547 1.519 5.344.051 3.732-2.256 6.611-2.921 10.132-.322 1.709-.731 3.464-.503 5.295.327 2.628 2.303 5.01 2.652 7.633.593 4.483 2.309 11.544-1.082 13.04-1.638.721-3.365-2.459-4.957-3.872-2.784-2.471-4.905-6.118-7.962-7.999-4.537-2.792-9.652-4.093-14.458-4.279-4.445-.172-8.622 1.384-12.623 2.951-2.841 1.113-6.953 1.296-7.993 4.546-.608 1.898.546 4.516 1.787 6.331 1.111 1.625 2.933 2.438 4.533 3.259 2.443 1.254 5.01 2.29 7.545 2.55 3.216.33 6.124-1.376 9.325-1.221 2.946.142 6.01.599 8.891 1.941 3.03 1.41 7.399 2.651 8.432 6.208 1.331 4.586-4.614 7.01-5.188 11.452-.253 1.958.649 4.133.828 6.182.528 6.04 5.542 16.778.669 17.997-2.494.624-2.813-5.923-5.03-8.03-1.535-1.455-3.633-1.56-5.303-2.765-3.514-2.535-6.624-5.941-9.694-9.227-3.86-4.133-6.777-9.494-10.933-13.193-2.497-2.222-5.32-3.979-8.194-5.178-2.303-.961-5.476-3.251-7.02-1.517-2.269 2.541.456 8.05 1.607 11.977.777 2.65 1.937 5.29 3.48 7.564 2.868 4.23 6.876 7.293 10.386 10.827 1.972 1.986 3.726 4.454 6.01 5.818 2.357 1.407 5.03.934 7.448 2.13.87.43 2.215.763 2.467 1.8.775 3.185-2.633 5.132-4.447 7.187-2.12 2.403-5.799 2.897-7.371 5.84-1.51 2.826 1.396 9.253-1.398 10.287-1.616.598-3.206-2.463-4.683-3.908-2.541-2.485-5.358-4.931-7.152-8.145-2.449-4.389-2.538-9.705-4.488-14.351-2.527-6.02-5.412-12.07-9.224-17.269-1.744-2.379-3.86-4.444-6.089-6.161-1.569-1.208-3.381-3.202-5.03-2.801-1.679.408-1.835 3.136-2.717 4.759-.818 1.504-1.695 3-2.393 4.599-1.025 2.347-.95 5.614-2.65 7.306-2.539 2.526-6.44 3.284-10.07 3.048-1.304-.085-2.739-.542-3.854-1.54-3.317-2.968-3.833-8.99-7.15-11.958-2.043-1.829-4.978-1.182-7.07-2.927-1.901-1.586-3.05-4.149-4.373-6.386-2.227-3.765-7.142-7.975-5.93-11.725.516-1.597 2.872-1.318 4.438-.974 2.227.489 4.187 2.586 6.176 4.105 2.16 1.649 3.86 4.317 6.204 5.438 3.789 1.813 7.93 1.87 11.74 1.568 3.365-.267 6.504-1.522 9.483-2.972 2.268-1.104 4.534-2.36 6.285-4.283 2.253-2.475 6.654-5.288 5.181-9.05-1.295-3.309-5.965-1.663-8.857-3.01-3.134-1.457-5.955-4.05-9.101-5.452-4.707-2.097-9.573-3.624-14.397-4.365-3.538-.543-57.27-22.938-60.49-21.844 12.427-11.527 1.562-21.446 14.417-17.229z"/><path d="m99.31 827.24c-2.494.938-5.24.858-7.646 2.058-3.743 1.867-7.576 4.312-10.06 7.752-2.273 3.147-3.495 7.114-3.737 10.823-.255 3.868 1.335 7.453 2.445 11.02 1.01 3.23 3.804 9.331 3.804 9.331 0 0 .708-11.621 3.843-16.478 1.33-2.061 3.534-3.755 5.8-4.524 3.318-1.125 7.398 2.674 10.115.316.906-.786.314-2.293.47-3.44.392-2.867.784-5.733 1.176-8.6.324-2.37 1.906-5.05.972-7.111-.476-1.051-1.788-1.537-2.935-1.755-1.357-.258-3.194-.456-4.245.612z"/><path d="m109.79 877.09c-1.982 1.629-4.371 2.36-6.228 4.214-2.889 2.884-5.748 6.345-7.256 10.361-1.379 3.672-1.697 7.819-1.215 11.431.503 3.767 2.543 6.723 4.166 9.797 1.472 2.787 5.03 7.789 5.03 7.789 0 0-1.552-11.303.253-16.861.766-2.359 2.356-4.625 4.173-6.02 2.66-2.05 6.896.376 8.806-2.674.637-1.017-.156-2.281-.234-3.422-.195-2.852-.39-5.704-.586-8.556-.162-2.358.707-5.382-.484-7.07-.608-.863-1.833-.942-2.865-.812-1.222.154-2.847.505-3.557 1.833z"/><path d="m128.78 917.23c-.913 2.551-2.716 4.806-3.384 7.413-1.039 4.056-1.721 8.474-.831 12.259.814 3.462 2.885 6.454 5.395 8.497 2.617 2.131 6.2 2.585 9.464 3.426 2.959.762 9.118 1.453 9.118 1.453 0 0-7.893-6.362-9.388-11.393-.634-2.135-.45-4.818.44-7.094 1.302-3.332 6.624-4.857 6.658-8.298.011-1.147-1.447-1.401-2.171-2.101-1.809-1.751-3.618-3.502-5.427-5.252-1.496-1.448-2.414-4.101-4.488-4.343-1.057-.123-2.241.732-3.126 1.582-1.048 1.01-2.358 2.443-2.26 3.852z"/><path d="m224.22 878.31c.721 2.19 2.25 3.827 2.75 6.146.778 3.607 1.223 7.67.284 11.595-.858 3.59-2.824 7.104-5.146 9.833-2.422 2.846-5.645 4.362-8.597 6.156-2.677 1.626-8.214 4.146-8.214 4.146 0 0 7.302-8.521 8.828-13.832.648-2.254.583-4.791-.128-6.723-1.04-2.828-5.746-2.701-5.647-6.02.033-1.105 1.347-1.789 2.02-2.683 1.684-2.236 3.369-4.471 5.05-6.707 1.393-1.849 2.314-4.688 4.179-5.546.951-.437 1.978.033 2.738.588.9.657 2.02 1.652 1.878 3.043z"/><path d="m258.08 802.63c-2.297 1.943-48.47 17.933-50.94 19.485-2.039 1.279-4.02 2.665-6.084 3.881-2.145 1.266-4.31 2.486-6.521 3.51-2.76 1.279-5.561 2.352-8.385 3.226-4.7 1.456-9.465 2.98-14.176 3.411-3.219.295-6.447.151-9.475-.573-3.2-.764-6.305-2.023-8.971-3.966-3.916-2.855-5.996-8.295-9.992-11.02-1.741-1.187-3.802-1.823-5.886-2.186-3.376-.588-7.179.945-10.462.045-2.208-.605-4.347-1.775-5.889-3.563-1.257-1.457-.775-4.862-2.484-5.593-1.504-.644-3.475.858-5.082 1.811-2.54 1.506-5.25 3.336-6.948 6.05-.987 1.576-1.494 3.547-1.519 5.344-.051 3.732 2.256 6.611 2.921 10.132.322 1.709.731 3.464.503 5.295-.327 2.628-2.303 5.01-2.651 7.633-.593 4.483-2.309 11.544 1.082 13.04 1.638.721 3.365-2.459 4.957-3.872 2.784-2.471 4.905-6.118 7.962-7.999 4.537-2.792 9.652-4.093 14.458-4.279 4.445-.172 8.622 1.384 12.623 2.951 2.841 1.113 6.953 1.296 7.993 4.546.608 1.898-.546 4.516-1.787 6.331-1.111 1.625-2.933 2.438-4.533 3.259-2.443 1.254-5.01 2.29-7.545 2.55-3.216.33-6.124-1.376-9.325-1.221-2.946.142-6.01.599-8.891 1.941-3.03 1.41-7.399 2.651-8.432 6.208-1.331 4.586 4.614 7.01 5.188 11.452.253 1.958-.649 4.133-.828 6.182-.528 6.04-5.542 16.778-.669 17.997 2.494.624 2.813-5.923 5.03-8.03 1.535-1.455 3.633-1.56 5.303-2.765 3.514-2.535 6.624-5.941 9.694-9.227 3.86-4.133 6.777-9.494 10.933-13.193 2.497-2.222 5.32-3.979 8.194-5.178 2.303-.961 5.476-3.251 7.02-1.517 2.269 2.541-.456 8.05-1.607 11.977-.777 2.65-1.937 5.29-3.48 7.564-2.868 4.23-6.876 7.293-10.386 10.827-1.972 1.986-3.726 4.454-6.01 5.818-2.357 1.407-5.03.934-7.448 2.13-.87.43-2.215.763-2.467 1.8-.775 3.185 2.633 5.132 4.447 7.187 2.12 2.403 5.799 2.897 7.371 5.84 1.51 2.826-1.396 9.253 1.398 10.287 1.616.598 3.206-2.463 4.683-3.908 2.541-2.485 5.358-4.931 7.152-8.145 2.449-4.389 2.538-9.705 4.488-14.351 2.527-6.02 5.412-12.07 9.224-17.269 1.744-2.379 3.86-4.444 6.089-6.161 1.569-1.208 3.381-3.202 5.03-2.801 1.679.408 1.835 3.136 2.717 4.759.818 1.504 1.695 3 2.393 4.599 1.025 2.347.95 5.614 2.65 7.306 2.539 2.526 6.44 3.284 10.07 3.048 1.304-.085 2.739-.542 3.854-1.54 3.317-2.968 3.833-8.99 7.15-11.958 2.043-1.829 4.978-1.182 7.07-2.927 1.901-1.586 3.05-4.149 4.373-6.386 2.227-3.765 7.142-7.975 5.93-11.725-.516-1.597-2.872-1.318-4.438-.974-2.227.489-4.187 2.586-6.176 4.105-2.16 1.649-3.86 4.317-6.204 5.438-3.789 1.813-7.93 1.87-11.74 1.568-3.365-.267-6.504-1.522-9.483-2.972-2.268-1.104-4.534-2.36-6.285-4.283-2.253-2.475-6.654-5.288-5.181-9.05 1.295-3.309 5.965-1.663 8.857-3.01 3.134-1.457 5.955-4.05 9.101-5.452 4.707-2.097 9.573-3.624 14.397-4.365 3.538-.543 57.27-22.938 60.49-21.844-12.427-11.527-1.562-21.446-14.417-17.229z"/><path d="m340.15 386.54c-4.04.034-8.06.463-11.778 1.512-2.836.8-4.599 3.045-7.316 4.052-3.631 1.345-7.952 1.316-11.658 2.54-2.031.671-5.943.945-5.668 2.6.399 2.393 6.941.38 9.165 2.117 5.457 4.258 2.746 11.799 6.11 17.14 3.466 5.507 11.01 9.243 14.19 14.846 2.347 4.139 3.516 8.778 3.256 13.274-.175 3.02-.63 6.426-3.216 8.739-2.183 1.952-7.733.968-9.206 3.266-2.353 3.67 2.01 8.01 3.698 11.883.98 2.242 2.98 4.241 3.739 6.531 1.149 3.476 1.933 7.169 1.166 10.704-.544 2.504-2.103 4.897-4.02 6.985-1.603 1.746-3.672 3.297-6.07 4.415-3.314 1.544-7.403 1.859-11.01 2.963-2.152.658-6.352 2.177-6.352 2.177 0 0 9.478-.174 13.869.937 2.821.714 5.369 2.05 7.557 3.568 2.753 1.909 5.777 4.047 6.713 6.773 1.833 5.329-.233 11.255-2.975 16.358-2.267 4.218-7.667 7.085-10.733 11.01-3.84 4.912-8.417 9.901-9.487 15.542-.315 1.66-.596 3.328-.844 5.02-1.658.616-3.137 1.472-4.824 2.056-2.59.897-5.494 1.279-8.04 2.238-2.894 1.09-5.453 2.608-8.12 3.961-2.73 1.385-4.898 3.514-8.08 4.263-1.988.468-4.221.306-6.271 0-3.409-.509-6.446-1.891-9.567-2.993-3.68-1.3-6.897-3.297-10.773-4.263-3.436-.856-7.139-1.435-10.773-1.3-2.996.111-5.816 1.095-8.683 1.724-5.636 1.236-11.09 2.798-16.723 4.052-5.543 1.235-11.145 2.366-16.763 3.417-4.561.854-9.09 2.644-13.788 2.359-3.783-.23-7.395-1.598-10.452-3.205-2.847-1.497-6.114-3.311-6.874-5.775-.958-3.102 2.882-6.02 3.578-9.162.374-1.688 1.373-3.605.322-5.14-1.883-2.749-6.735-3.847-10.492-5.322-3.02-1.185-6.467-1.71-9.567-2.782-4.54-1.57-10.607-2.21-13.145-5.322-.752-.922-.723-2.271 0-3.205 1.538-1.987 5.217-2.637 8.08-3.628 5.617-1.946 12.646-1.807 17.647-4.475 3.259-1.738 5.565-4.374 7.155-7.05 1.346-2.261 1.987-4.804 1.809-7.257-.188-2.586-1.01-5.31-3.01-7.469-2.194-2.362-6.893-3.07-9.246-5.352-2.413-2.341-3.401-5.305-4.502-8.104-1.422-3.615-.927-7.561-2.693-11.1-2.726-5.461-8.705-9.843-11.979-15.15-2.453-3.974-4.202-8.183-5.668-12.397-2.413-6.935-4.214-13.986-5.065-21.11-.483-4.04-.614-8.154 0-12.186.552-3.621 1.4-7.281 3.256-10.674 2.02-3.682 7.57-6.312 8.402-10.22.399-1.877-.405-3.951-1.809-5.564-1.495-1.718-3.771-3.642-6.593-3.84-.259-.018-.51-.036-.764-.03-3.81.078-6.989 2.692-10.251 4.233-3.489 1.647-6.906 3.448-9.768 5.624-3.592 2.731-6.864 5.783-9.125 9.162-2.856 4.268-4.309 9-5.387 13.667-1.235 5.342-1.429 10.796-1.166 16.207.17 3.51 1.098 6.983 1.769 10.462.99 5.133 2.182 10.24 3.296 15.36 1.178 5.409 6.94 11.317 3.578 16.237-.45.658-1.674 1.148-2.693 1.058-8.542-.752-12.975-8.07-18.813-12.579-5.969-4.612-11.312-9.646-16.482-14.726-3.299-3.241-6.404-6.584-9.246-10.04-1.535-1.866-1.254-5.324-4.221-5.775-3.481-.53-6.12 2.751-8.321 4.747-2.499 2.267-3.789 5.135-5.105 7.862-1 2.072-2.01 4.22-2.09 6.41-.161 4.115.934 8.305 2.975 12.155 4.053 7.646 11.943 13.954 17.929 20.924 3.787 4.411 7.334 8.919 11.376 13.214 2.068 2.197 5.335 3.92 6.593 6.41.576 1.14.554 2.433.281 3.628-.344 1.513-.725 3.28-2.372 4.263-2.264 1.353-5.735 1.387-8.683 1.27-4.502-.178-8.525-2.088-12.864-2.963-5.329-1.075-10.967-1.408-16.16-2.782-4.098-1.084-7.77-2.84-11.658-4.263-3.69-1.351-7.322-2.763-11.05-4.052-2.17-.749-4.347-2.768-6.593-2.147-2.833.783-3.122 3.844-3.578 5.987-.722 3.394.318 6.89 1.487 10.22.705 2.01 1.73 4.03 3.296 5.775 3.385 3.773 8.05 6.95 12.864 9.827 5.194 3.105 11.372 5.247 17.04 7.892 3.797 1.77 7.529 3.608 11.376 5.322 4.816 2.145 11.618 2.766 14.632 6.199 1.275 1.452.889 3.409.603 5.11-.151.893-.481 1.834-1.206 2.57-4.526 4.602-12.388 6.941-18.532 10.462-4.917 2.818-9.536 5.916-14.673 8.527-9.737 4.948-20.259 9.07-30.511 13.456-5.442 2.328-15.624 2.345-16.441 6.834-.818 4.49 7.897 7.415 13.467 9.585 3.383 1.318 7.446 1.61 11.296 1.754 3.829.143 7.693-.353 11.457-.877 4.678-.651 9.289-1.581 13.748-2.782 7.343-1.978 14.1-4.902 21.23-7.257 2.875-.951 5.521-2.635 8.683-2.782 2.078-.096 4.979-.029 5.99 1.27 1.103 1.419-1.118 3.172-1.809 4.717-.969 2.166-1.661 4.429-3.296 6.38-6.163 7.352-15.766 12.942-23.918 19.231-7.421 5.725-14.853 11.453-22.753 16.842-5.566 3.797-11.153 7.6-17.326 10.885-4.058 2.16-9.03 3.417-12.864 5.775-.696.428-1.709.83-1.809 1.482-.186 1.202 1.318 2.281 2.412 3.205 2.521 2.131 5.612 4.113 9.246 5.14 3.079.87 6.582.791 9.889.665 3.551-.135 7.07-.755 10.452-1.542 4.684-1.091 9.198-2.628 13.467-4.384 4.244-1.746 8.225-3.832 11.979-6.078 7.079-4.233 13.14-9.239 19.738-13.849 3.678-2.569 7.01-5.409 11.05-7.68 2.5-1.404 4.898-3.613 8.08-3.628 2.103-.009 4.358 1.019 5.387 2.328 1.463 1.861.626 4.323 0 6.41-1.325 4.422-4.878 8.339-7.758 12.367-5.542 7.75-11.864 15.236-18.25 22.648-7.43 8.623-15.206 17.08-23.356 25.369-3.435 3.494-6.852 7-10.733 10.25-3.444 2.882-7.47 5.397-11.09 8.164-3.554 2.712-11.09 4.601-10.452 8.285.4 2.291 5.061 3.01 8.08 3.84 3.762 1.036 7.91 1.402 11.939 1.27 5.436-.178 11.1-.92 15.879-2.782 7.241-2.823 12.389-7.792 17.929-12.155 6.87-5.41 12.738-11.443 18.853-17.296 3.589-3.434 7.136-6.891 10.452-10.462 4-4.313 8.03-8.626 11.376-13.214 4.728-6.469 7.576-13.592 12.261-20.08 1.332-1.844 1.877-4.43 4.502-5.322 1.91-.649 4.298.091 6.271.635 3.147.868 7.319 1.772 8.402 4.052 1.213 2.557-2.465 5.109-3.618 7.68-4.667 10.417-8.929 20.94-13.467 31.386-3.155 7.264-5.766 14.666-9.567 21.771-6.206 11.601-13.948 22.741-21.507 33.926-3.378 5-6.879 9.961-10.653 14.816-3.807 4.897-13.06 8.865-12.1 14.423.45 2.596 4.371 4.563 7.758 5.564 2.672.789 5.841.382 8.683 0 4.313-.579 8.772-1.518 12.261-3.417 8.897-4.84 13.933-12.552 20.06-19.231 7.04-7.678 13.1-15.782 19.13-23.887 6.147-8.262 11.836-16.707 17.366-25.19 3.03-4.65 5.908-9.359 8.683-14.09 3.645-6.215 7.533-12.37 10.452-18.777 1.495-3.282 2.918-6.62 3.578-10.04.572-2.961-1.737-6.348.322-8.95 1.278-1.615 3.979-2.727 6.553-2.993 3.592-.372 8.03.243 10.492 2.147 2.413 1.867 1.863 4.935 2.09 7.469.824 9.181-.851 18.411-2.693 27.516-1.852 9.157-4.304 18.336-8.361 27.12-2.528 5.475-6.861 10.44-9.889 15.784-1.749 3.088-4.541 6.05-4.784 9.374-.127 1.758.072 3.89 1.809 5.14 1.958 1.409 5.321 1.736 8.08 1.482 4.648-.429 8.696-2.726 12.261-4.898 3.671-2.237 6.08-5.341 8.964-8.104 3.42-3.276 7.09-6.475 9.889-10.04 4.41-5.615 7.399-11.739 10.733-17.719 3.999-7.172 8.525-14.273 11.09-21.771 1.983-5.786 2.424-11.795 3.296-17.719 1.076-7.309-4.614-16.581 2.372-21.982 3.01-2.329 8.745-1.392 13.185-1.482 7.42-.151 14.711 1.194 22.11 1.603 0 .008-.011.023 0 .03 3.123 3.395 14.763 4.591 18.733 8.497 8.539 8.4 11.799 19.07 15.718 29.06 1.488 3.794 2.625 7.708 2.934 11.641.422 5.368-.703 10.738-1.487 16.09-.674 4.599-2.074 9.13-2.774 13.728-.74 4.863-4.43 10.991-6.633 16.57-.373.403-.753.797-1.166 1.179-3.75 3.47-8.09 6.636-12.743 9.494-5.04 3.095-10.604 5.753-16.281 8.225-4.411 1.92-8.798 4.054-13.748 5.11-2.568.548-5.322.668-8 .574-4.075-.142-9.73-4.133-12.02-1.724-1.786 1.879 2.869 4.19 5.226 5.715 3.01 1.944 6.833 3.306 10.773 3.991 2.98.518 6.159-.257 9.206 0 3.405.287 9.327-.674 10.01 1.724.76 2.667-5.867 3.521-9.206 4.838-4.921 1.942-10.191 3.534-15.678 4.415-6.964 1.117-14.257.766-21.386 1.028-7.51.276-19.489-4.325-22.552.575-1.81 2.896 5.08 5.317 8.562 7.287 3.582 2.027 7.916 3.399 12.261 4.415 4.626 1.081 9.525 1.769 14.391 1.693 4.498-.07 8.979-.936 13.225-1.996 2.815-.702 5.097-2.353 8-2.842 5.192-.874 12.07-2.577 15.999 0 2.364 1.552.017 4.612.804 6.834 1.468 4.13 4.178 8.03 7.196 11.702 1.829 2.228 3.696 4.577 6.512 6.199 3.049 1.756 6.813 3.117 10.693 3.508 3.474.35 9.178 1.225 10.412-1.119 1.164-2.213-4.429-3.56-6.432-5.443-4.294-4.04-9.886-7.706-11.979-12.548-1.376-3.182-1.353-6.821 0-10.01 1.115-2.627 3.866-4.763 6.392-6.834 2.108-1.729 3.993-4.742 7.196-4.566 3.967.218 4.535 4.749 7.598 6.561 2.846 1.684 6.068 3.435 9.728 3.81 2.669.273 6.97.572 7.879-1.24 1.312-2.617-4.755-4.396-7.196-6.561-2.493-2.212-5.974-3.97-7.598-6.561-1.817-2.899-2.79-6.307-2.01-9.434.534-2.138 2.695-3.926 4.422-5.715 2.885-2.988 6.582-5.505 9.849-8.285 2.328-1.981 4.922-3.847 6.954-5.987 1.426-1.501 3.238-3.03 5.145-4.566 1.965 2.647 3.933 5.29 5.266 8.01 3.24 6.619 7.01 13.12 9.165 19.957 2.356 7.485 3.898 15.188 4.02 22.859.075 4.686-.263 9.452-2.01 13.97-1.174 3.037-2.391 6.384-5.588 8.557-2.295 1.56-5.634 2.537-8.804 2.57-2.279.024-4.518-.768-6.392-1.693-2.332-1.151-2.891-5.095-5.628-4.566-3.408.658-2.202 4.894-1.97 7.408.11 1.201.655 2.405 1.568 3.417 1.38 1.528 4.609 2.053 5.628 3.719.48.785.574 1.818 0 2.57-1.291 1.692-4.848 1.839-6.834 3.145-1.608 1.058-3.342 2.226-3.98 3.719-1.207 2.828-.65 6.06.804 8.829 1 1.907 2.396 5.299 5.186 4.868 3.478-.537.987-5.112 2.412-7.438 1.615-2.636 3.903-5.13 6.794-7.136 2.838-1.969 6.085-4.198 10.01-4.566 3.053-.286 6.918.259 8.804 1.996 1.472 1.356.516 3.427.402 5.14-.337 5.095-.297 10.493-3.216 15.15-2.049 3.27-6.06 5.722-9.608 8.255-3.55 2.533-7.487 4.787-11.577 6.864-3.97 2.02-7.811 4.474-12.502 5.412-4.594.919-9.619.617-14.311 0-4.418-.581-8.8-1.688-12.582-3.417-4.01-1.833-7.469-4.357-10.211-7.136-2.027-2.054-3.992-4.34-4.422-6.834-.368-2.132.292-4.432 1.648-6.35 1.133-1.603 3.399-2.639 5.145-3.931 5.237-3.874 15.999-11.43 15.999-11.43 0 0-8.283 1.15-12.341 1.996-4.492.936-9.07 1.844-13.226 3.387-5.364 1.993-10.744 4.29-14.833 7.469-2.506 1.948-4.38 4.334-5.588 6.834-.964 1.997-1.466 4.185-1.206 6.289.343 2.788 1.738 5.527 3.618 7.983 1.408 1.839 3.539 3.367 5.588 4.868 2.836 2.078 10.488 2.963 9.205 5.715-1.139 2.445-7.209.422-10.813.574-6.321.267-15.412-3.332-18.974.605-3.08 3.404 3.49 7.81 5.387 11.672 1 2.039 2.202 4 3.176 6.05 1.173 2.462 1.507 5.172 3.216 7.469 2.298 3.088 5.532 5.851 9.206 8.164 3.996 2.516 13.587 5.987 13.587 5.987 0 0-3.726-5.805-5.186-8.829-1.486-3.077-4.226-6.208-3.618-9.434.454-2.41 2.625-4.718 5.226-6.289 4.8-2.901 11.714-3.267 17.607-4.838 12.884-3.434 26.07-6.247 38.792-9.978 5.574-1.635 11.517-2.924 16.401-5.443 2.371-1.222 3.492-3.479 5.99-4.566 2.486-1.083 5.904-2.793 8.402-1.724 1.543.661 2.377 1.905 2.734 3.296.062.746.126 1.492.201 2.238-.057.869-.238 1.736-.523 2.479-1.192 3.118-5.636 5.146-9.205 7.136-2.634 1.468-5.739 2.465-8.804 3.417-5.414 1.681-17.05-.218-16.803 3.991.232 4.01 10.813 2.393 16.401 2.873 4.105.352 9.304-1.938 12.422 0 2.943 1.83 2.362 5.522 1.608 8.255-.924 3.347-4.557 6.02-7.196 8.86-1.473 1.587-2.531 3.593-4.824 4.566-3.939 1.672-9.184 2.329-13.587 1.421-2.363-.487-3.876-2.185-5.628-3.417-2.153-1.514-3.339-3.8-5.99-4.838-2.248-.881-5.04-1.033-7.598-.877-2.817.172-5.701.832-8.04 1.965-2.201 1.066-3.937 2.649-5.186 4.324-1.627 2.181-2.725 4.666-2.774 7.136-.07 3.531.703 7.406 3.578 10.281 1.847 1.848 5.42 2.39 8 3.719 2.769 1.427 8.269 2.134 8.04 4.566-.418 4.429-10.809 4.431-16.04 6.834-3.951 1.815-7.296 4.335-11.577 5.715-4.51 1.454-11.502-.276-14.432 2.57-1.345 1.306-1.371 3.825.402 4.838 5.169 2.953 13.367-.707 19.617-2.268 8.229-2.055 15.587-5.63 22.793-9.132 6.238-3.03 12.08-6.523 17.567-10.22 6.339-4.272 12.532-8.719 17.647-13.758 2.873-2.829 3.39-6.933 7.196-9.132 1.737-1 4.81-2.519 6.432-1.421 3.894 2.638-2.164 7.533-4.02 11.127-1.574 3.047-3.838 5.876-5.99 8.739-1.997 2.656-4.596 5.073-6.392 7.801-2.293 3.486-5.271 7.01-5.547 10.855-.281 3.919 1.651 7.888 4.02 11.43 2.081 3.112 6.02 5.399 8.723 8.255 3.317 3.501 6.738 7.01 9.205 10.855 2.512 3.912.909 9.761 5.588 12.276.12.064.322.064.442 0 4.686-2.513 3.116-8.364 5.628-12.276 2.467-3.843 5.888-7.354 9.206-10.855 2.706-2.856 6.602-5.143 8.683-8.255 2.368-3.542 4.301-7.511 4.02-11.43-.276-3.845-3.214-7.369-5.507-10.855-1.795-2.729-4.395-5.145-6.392-7.801-2.152-2.862-4.456-5.691-6.03-8.739-1.856-3.595-7.874-8.49-3.98-11.127 1.621-1.098 4.654.417 6.392 1.421 3.806 2.198 4.323 6.302 7.196 9.132 5.115 5.04 11.348 9.486 17.688 13.758 5.487 3.697 11.289 7.189 17.527 10.22 7.206 3.501 14.564 7.08 22.793 9.132 6.25 1.561 14.448 5.22 19.617 2.268 1.773-1.013 1.747-3.532.402-4.838-2.93-2.846-9.882-1.116-14.391-2.57-4.282-1.38-7.667-3.9-11.618-5.715-5.231-2.403-15.582-2.405-15.999-6.834-.229-2.432 5.23-3.139 8-4.566 2.579-1.329 6.152-1.871 8-3.719 2.874-2.874 3.687-6.75 3.618-10.281-.049-2.47-1.188-4.955-2.814-7.136-1.25-1.675-2.985-3.258-5.186-4.324-2.339-1.133-5.222-1.794-8.04-1.965-2.556-.156-5.349-.004-7.598.877-2.65 1.038-3.836 3.324-5.99 4.838-1.752 1.232-3.225 2.93-5.588 3.417-4.403.908-9.688.251-13.628-1.421-2.292-.973-3.311-2.979-4.784-4.566-2.639-2.844-6.272-5.513-7.196-8.86-.755-2.733-1.336-6.425 1.608-8.255 3.117-1.938 8.276.352 12.381 0 5.588-.479 16.17 1.14 16.401-2.873.243-4.209-11.389-2.31-16.803-3.991-3.064-.952-6.17-1.949-8.804-3.417-3.57-1.99-8.01-4.02-9.206-7.136-.294-.769-.433-1.67-.482-2.57.076-.745.14-1.492.201-2.238.371-1.351 1.186-2.559 2.693-3.205 2.497-1.07 5.915.641 8.402 1.724 2.497 1.087 3.619 3.343 5.99 4.566 4.884 2.519 10.827 3.807 16.401 5.443 12.719 3.732 25.949 6.545 38.832 9.978 5.894 1.571 12.807 1.937 17.607 4.838 2.6 1.572 4.731 3.88 5.186 6.289.608 3.226-2.092 6.357-3.578 9.434-1.46 3.02-5.226 8.829-5.226 8.829 0 0 9.632-3.471 13.628-5.987 3.674-2.314 6.907-5.076 9.206-8.164 1.709-2.296 2.043-5.01 3.216-7.469.974-2.044 2.174-4.01 3.176-6.05 1.897-3.862 8.426-8.268 5.346-11.672-3.562-3.937-12.653-.337-18.974-.605-3.604-.153-9.634 1.87-10.773-.574-1.282-2.752 6.37-3.637 9.206-5.715 2.049-1.501 4.18-3.03 5.588-4.868 1.88-2.456 3.234-5.195 3.578-7.983.26-2.105-.201-4.292-1.166-6.289-1.207-2.5-3.122-4.886-5.628-6.834-4.09-3.179-9.469-5.475-14.833-7.469-4.15-1.542-8.693-2.451-13.185-3.387-4.058-.845-12.381-1.996-12.381-1.996 0 0 10.761 7.556 15.999 11.43 1.746 1.292 4.01 2.328 5.145 3.931 1.356 1.918 2.02 4.218 1.648 6.35-.43 2.493-2.355 4.779-4.382 6.834-2.742 2.779-6.199 5.303-10.211 7.136-3.782 1.729-8.205 2.836-12.623 3.417-4.692.617-9.717.919-14.311 0-4.691-.939-8.492-3.397-12.462-5.412-4.09-2.077-8.07-4.331-11.617-6.864-3.55-2.533-7.558-4.985-9.608-8.255-2.919-4.656-2.879-10.05-3.216-15.15-.113-1.713-1.071-3.784.402-5.14 1.886-1.737 5.751-2.282 8.804-1.996 3.925.368 7.172 2.597 10.01 4.566 2.891 2.01 5.179 4.5 6.794 7.136 1.425 2.327-1.067 6.902 2.412 7.438 2.789.431 4.224-2.961 5.226-4.868 1.454-2.768 1.971-6 .764-8.829-.637-1.493-2.371-2.661-3.98-3.719-1.985-1.306-5.503-1.452-6.794-3.145-.574-.752-.48-1.785 0-2.57 1.018-1.666 4.208-2.191 5.588-3.719.913-1.012 1.497-2.216 1.608-3.417.232-2.514 1.399-6.75-2.01-7.408-2.737-.529-3.256 3.415-5.588 4.566-1.874.925-4.153 1.717-6.432 1.693-3.17-.033-6.468-1.01-8.763-2.57-3.197-2.173-4.454-5.52-5.628-8.557-1.747-4.518-2.085-9.283-2.01-13.97.122-7.671 1.664-15.374 4.02-22.859 2.153-6.841 5.965-13.338 9.206-19.957 1.327-2.71 3.278-5.347 5.226-7.983 1.9 1.535 3.765 3.04 5.186 4.536 2.033 2.14 4.586 4.01 6.914 5.987 3.267 2.78 7 5.297 9.889 8.285 1.727 1.789 3.848 3.577 4.382 5.715.781 3.127-.193 6.535-2.01 9.434-1.624 2.591-5.104 4.349-7.598 6.561-2.441 2.166-8.508 3.945-7.196 6.561.908 1.811 5.25 1.513 7.919 1.24 3.66-.375 6.842-2.126 9.688-3.81 3.062-1.812 3.631-6.344 7.598-6.561 3.203-.176 5.087 2.837 7.196 4.566 2.525 2.071 5.317 4.207 6.432 6.834 1.353 3.187 1.376 6.826 0 10.01-2.094 4.842-7.726 8.512-12.02 12.548-2 1.883-7.556 3.23-6.392 5.443 1.233 2.343 6.937 1.469 10.411 1.119 3.88-.391 7.603-1.752 10.653-3.508 2.816-1.622 4.724-3.971 6.552-6.199 3.02-3.677 5.727-7.572 7.196-11.702.788-2.221-1.56-5.282.804-6.834 3.926-2.577 10.807-.874 15.999 0 2.902.489 5.184 2.14 8 2.842 4.247 1.059 8.687 1.925 13.185 1.996 4.866.076 9.806-.612 14.431-1.693 4.345-1.015 8.639-2.388 12.221-4.415 3.482-1.97 10.372-4.391 8.562-7.287-3.063-4.9-15.04-.298-22.552-.575-7.129-.262-14.382.089-21.346-1.028-5.487-.88-10.796-2.473-15.718-4.415-3.338-1.317-9.965-2.171-9.206-4.838.683-2.397 6.604-1.436 10.01-1.724 3.046-.257 6.225.518 9.206 0 3.941-.686 7.808-2.048 10.814-3.991 2.357-1.524 6.971-3.836 5.186-5.715-2.29-2.409-7.944 1.581-12.02 1.724-2.677.093-5.431-.027-8-.574-4.95-1.056-9.297-3.19-13.708-5.11-5.677-2.471-11.281-5.13-16.321-8.225-4.655-2.858-8.993-6.02-12.743-9.494-.413-.382-.793-.776-1.166-1.179-2.194-5.579-5.853-11.707-6.593-16.57-.7-4.597-2.1-9.129-2.774-13.728-.784-5.348-1.909-10.718-1.487-16.09.31-3.934 1.447-7.847 2.935-11.641 3.919-9.992 7.139-20.658 15.678-29.06 3.979-3.914 15.679-5.115 18.773-8.527 7.389-.412 14.703-1.753 22.11-1.603 4.441.09 10.132-.848 13.145 1.482 6.986 5.401 1.336 14.673 2.412 21.982.872 5.924 1.313 11.933 3.296 17.719 2.57 7.498 7.06 14.599 11.05 21.771 3.334 5.98 6.364 12.1 10.773 17.719 2.799 3.564 6.428 6.762 9.849 10.04 2.884 2.762 5.334 5.867 9 8.104 3.564 2.172 7.612 4.469 12.261 4.898 2.758.255 6.122-.073 8.08-1.482 1.737-1.25 1.897-3.383 1.769-5.14-.242-3.326-3.034-6.286-4.784-9.374-3.03-5.344-7.321-10.309-9.849-15.784-4.058-8.787-6.549-17.966-8.402-27.12-1.842-9.105-3.516-18.335-2.693-27.516.227-2.534-.322-5.602 2.09-7.469 2.461-1.904 6.9-2.519 10.492-2.147 2.573.267 5.314 1.378 6.593 2.993 2.059 2.603-.29 5.989.281 8.95.66 3.419 2.083 6.757 3.578 10.04 2.919 6.407 6.847 12.562 10.492 18.777 2.775 4.731 5.651 9.441 8.683 14.09 5.53 8.481 11.179 16.926 17.326 25.19 6.03 8.106 12.09 16.209 19.13 23.887 6.127 6.679 11.163 14.391 20.06 19.231 3.49 1.898 7.948 2.838 12.261 3.417 2.842.382 6.01.789 8.683 0 3.387-1 7.309-2.968 7.758-5.564.963-5.558-8.253-9.526-12.06-14.423-3.774-4.855-7.274-9.816-10.653-14.816-7.558-11.185-15.341-22.326-21.547-33.926-3.801-7.105-6.412-14.507-9.567-21.771-4.538-10.446-8.799-20.969-13.467-31.386-1.152-2.571-4.791-5.123-3.578-7.68 1.082-2.28 5.215-3.183 8.361-4.052 1.973-.544 4.361-1.284 6.271-.635 2.625.891 3.171 3.478 4.502 5.322 4.684 6.485 7.533 13.608 12.261 20.08 3.352 4.587 7.372 8.901 11.376 13.214 3.316 3.571 6.863 7.03 10.452 10.462 6.116 5.852 11.984 11.885 18.853 17.296 5.54 4.363 10.728 9.332 17.969 12.155 4.775 1.862 10.403 2.604 15.838 2.782 4.03.132 8.217-.234 11.979-1.27 3.02-.831 7.68-1.549 8.08-3.84.643-3.684-6.938-5.573-10.492-8.285-3.625-2.767-7.611-5.282-11.05-8.164-3.881-3.248-7.337-6.756-10.773-10.25-8.149-8.286-15.885-16.746-23.315-25.369-6.386-7.412-12.708-14.898-18.25-22.648-2.88-4.03-6.473-7.945-7.799-12.367-.626-2.087-1.463-4.549 0-6.41 1.029-1.309 3.283-2.338 5.387-2.328 3.181.015 5.58 2.225 8.08 3.628 4.045 2.271 7.376 5.111 11.05 7.68 6.601 4.61 12.659 9.615 19.738 13.849 3.754 2.245 7.776 4.331 12.02 6.078 4.268 1.757 8.742 3.293 13.426 4.384 3.381.788 6.9 1.407 10.452 1.542 3.307.126 6.81.205 9.889-.665 3.634-1.027 6.765-3.01 9.286-5.14 1.093-.924 2.557-2 2.372-3.205-.1-.652-1.073-1.053-1.769-1.482-3.835-2.358-8.806-3.615-12.864-5.775-6.173-3.285-11.8-7.088-17.366-10.885-7.9-5.389-15.331-11.12-22.753-16.842-8.152-6.289-17.755-11.879-23.918-19.231-1.636-1.951-2.328-4.214-3.296-6.38-.691-1.545-2.872-3.298-1.769-4.717 1.01-1.299 3.872-1.366 5.949-1.27 3.162.147 5.808 1.831 8.683 2.782 7.122 2.355 13.922 5.279 21.265 7.257 4.459 1.201 9.07 2.13 13.748 2.782 3.763.524 7.587 1.019 11.417.877 3.85-.143 7.913-.436 11.296-1.754 5.569-2.17 14.285-5.096 13.467-9.585-.818-4.489-11-4.506-16.441-6.834-10.252-4.386-20.774-8.507-30.511-13.456-5.137-2.611-9.755-5.709-14.673-8.527-6.143-3.521-14.01-5.86-18.532-10.462-.724-.737-1.056-1.677-1.206-2.57-.286-1.701-.672-3.658.603-5.11 3.01-3.432 9.857-4.053 14.673-6.199 3.847-1.714 7.58-3.552 11.376-5.322 5.672-2.645 11.851-4.787 17.04-7.892 4.813-2.877 9.479-6.05 12.864-9.827 1.567-1.747 2.59-3.763 3.296-5.775 1.169-3.33 2.209-6.826 1.487-10.22-.456-2.143-.786-5.204-3.618-5.987-2.247-.621-4.383 1.398-6.552 2.147-3.734 1.288-7.405 2.701-11.09 4.052-3.888 1.424-7.56 3.18-11.658 4.263-5.193 1.374-10.831 1.707-16.16 2.782-4.339.875-8.361 2.785-12.864 2.963-2.948.117-6.379.083-8.643-1.27-1.647-.984-2.068-2.751-2.412-4.263-.272-1.196-.294-2.489.281-3.628 1.257-2.49 4.525-4.213 6.593-6.41 4.04-4.295 7.589-8.802 11.376-13.214 5.985-6.971 13.876-13.278 17.929-20.924 2.041-3.851 3.175-8.04 3.01-12.155-.085-2.191-1.09-4.338-2.09-6.41-1.317-2.727-2.606-5.595-5.105-7.862-2.201-1.996-4.88-5.277-8.361-4.747-2.966.452-2.646 3.909-4.181 5.775-2.842 3.454-5.987 6.798-9.286 10.04-5.169 5.079-10.473 10.114-16.441 14.726-5.839 4.511-10.312 11.827-18.853 12.579-1.019.09-2.244-.4-2.693-1.058-3.362-4.92 2.4-10.829 3.578-16.237 1.115-5.12 2.306-10.227 3.296-15.361.671-3.479 1.639-6.952 1.809-10.462.263-5.411.028-10.865-1.206-16.207-1.078-4.667-2.53-9.399-5.387-13.667-2.262-3.379-5.493-6.431-9.08-9.162-2.862-2.176-6.281-3.977-9.768-5.624-3.48-1.644-6.902-4.495-11.05-4.203-2.821.198-5.097 2.122-6.593 3.84-1.404 1.612-2.168 3.687-1.769 5.564.832 3.908 6.346 6.538 8.361 10.22 1.857 3.393 2.745 7.05 3.296 10.674.614 4.03.483 8.145 0 12.186-.851 7.12-2.692 14.17-5.105 21.11-1.466 4.214-3.215 8.424-5.668 12.397-3.275 5.306-9.252 9.688-11.979 15.15-1.766 3.537-1.271 7.483-2.693 11.1-1.101 2.798-2.049 5.762-4.462 8.104-2.353 2.282-7.092 2.99-9.286 5.352-2 2.159-2.787 4.883-2.975 7.469-.178 2.453.423 4.996 1.769 7.257 1.591 2.672 3.937 5.307 7.196 7.05 5 2.668 12.03 2.53 17.647 4.475 2.862.991 6.542 1.641 8.08 3.628.723.934.752 2.283 0 3.205-2.538 3.112-8.644 3.752-13.185 5.322-3.099 1.072-6.55 1.597-9.567 2.782-3.757 1.475-8.569 2.572-10.452 5.322-1.051 1.535-.093 3.452.281 5.14.696 3.137 4.575 6.06 3.618 9.162-.76 2.464-4.067 4.278-6.914 5.775-3.057 1.607-6.669 2.975-10.452 3.205-4.699.286-9.186-1.505-13.748-2.358-5.617-1.051-11.22-2.182-16.763-3.417-5.628-1.254-11.127-2.816-16.763-4.052-2.867-.629-5.687-1.612-8.683-1.724-3.634-.135-7.338.444-10.773 1.3-3.877.966-7.05 2.963-10.733 4.263-3.121 1.103-6.199 2.485-9.608 2.993-2.049.306-4.283.468-6.271 0-3.181-.749-5.349-2.878-8.08-4.263-1.89-.959-3.74-1.989-5.668-2.903 0-.009 0-.021 0-.03.983-2.535 1.209-5.064-.04-7.559-2.756-5.505-14.15-5.289-20.14-9.07-4.894-3.09-7.719-7.732-12.542-10.885-4.163-2.723-10.218-3.662-13.869-6.773-3.658-3.117-5.895-7.184-7.236-11.218-1.107-3.334-4.403-8.449-.563-10.311 3.519-1.706 7.291 3.223 11.256 4.233 3.511.895 7.219 1.937 10.894 1.572 5.481-.544 14.954-5.443 14.954-5.443 0 0-5.51-4.221-8.442-6.199-7.419-5-16.26-8.833-23.11-14.272-2.084-1.654-4.39-3.352-5.387-5.503-1.372-2.963-3.855-7.629-.442-9.434 5.081-2.688 11.162 4.649 17.326 5.231 4.14.391 8.401-.3 12.381-1.24 4.922-1.163 13.748-5.352 13.748-5.352 0 0-9.09-4.046-13.788-5.866-4.266-1.653-9.314-2.344-13.06-4.596-3.699-2.221-6.686-5.208-8.683-8.436-2.616-4.23-1.334-9.42-3.899-13.667-2.324-3.846-12.1-6.216-10.09-10.16 3.148-6.171 17.629-1.53 25.848-3.87 4.316-1.229 8.408-3.03 11.979-5.231 4.454-2.741 11.457-9.706 11.457-9.706 0 0-3.67-.607-5.467-1.028-5.677-1.331-10.915-3.689-16.683-4.777-6.494-1.225-13.467-.509-19.899-1.905-6.148-1.335-11.894-3.664-17.406-6.108-4.97-2.203-8.883-5.632-13.989-7.65-5.583-2.206-11.594-4.113-17.848-4.717-2.362-.228-4.815-.353-7.236-.333z" stroke-linejoin="round"/><g fill="none"><path d="m120.58 424.41c0 0-2.824 11.374-3.201 17.13-.318 4.851-.024 9.738.8 14.558 1.039 6.076 2.795 12.11 5.201 17.984 1.362 3.325 5.201 9.706 5.201 9.706"/><path d="m68.57 477.5c0 0 5.091 6.544 8.402 9.42 2.575 2.236 5.901 3.972 8.802 5.995 1.484 1.034 4.401 3.14 4.401 3.14"/><path d="m30.961 524.32c0 0 7.171 4.317 11.203 5.995 4.02 1.674 8.44 2.833 12.803 3.996 4.188 1.117 12.803 2.855 12.803 2.855"/><path d="m28.56 599.11c0 0 9.607-4.372 14.404-6.565 5.606-2.563 11.303-5.03 16.804-7.707 4.893-2.38 14.404-7.422 14.404-7.422"/><path d="m49.37 648.78c0 0 11.1-6.736 16-10.562 3.978-3.104 7.408-6.552 10.803-9.991 3.557-3.604 10-11.133 10-11.133"/><path d="m74.57 691.88c0 0 8.99-8.853 13.204-13.416 4.052-4.388 8.248-8.738 11.603-13.416 2.696-3.76 5.817-7.539 6.802-11.704.378-1.598-.4-4.853-.4-4.853"/><path d="m98.98 763.82c0 0 10.222-11.271 14.804-17.13 7.434-9.502 14.802-19.09 20.542-29.17 5.939-10.43 10.142-21.336 14.267-32.2 2.682-7.06 6.802-21.409 6.802-21.409"/><path d="m194.2 730.42c.4-1.142 5.793-11.319 8-17.13 2.535-6.664 4.205-13.482 6-20.267 1.656-6.256 4.401-18.84 4.401-18.84"/><path d="m148.99 755.82c0 0 8.215-11.265 11.603-17.13 4.679-8.095 8.729-16.395 12-24.835 3.963-10.216 6.701-20.666 9.203-31.11 1.381-5.77 3.201-17.413 3.201-17.413"/><path d="m60.969 750.11c0 0 11.359-7.775 16-12.275 8.113-7.859 14.12-16.736 20.406-25.406 7.428-10.248 14.361-20.7 20.405-31.4 4.588-8.122 12-24.835 12-24.835"/><path d="m18.558 696.45c.4-1.142 13.392-5.539 19.21-9.135 9.06-5.606 16.376-12.523 24.01-19.13 6.601-5.712 12.833-11.644 18.805-17.698 4.215-4.273 12-13.13 12-13.13"/><path d="m6.954 634.22c0 0 11.525-1.668 16.805-3.425 9.922-3.303 18.763-8.158 27.21-13.13 3.927-2.313 7.183-5.152 10.803-7.707 6.369-4.496 19.21-13.416 19.21-13.416"/><path d="m-1.848 564c0 0 21.1.563 31.608 0 7.129-.382 14.31-.94 21.21-2.284 7.908-1.541 22.806-6.566 22.806-6.566"/><path d="m29.361 486.35c0 0 5.628 7.468 9.602 10.562 5.714 4.448 12.991 7.762 20.01 11.133 3.32 1.596 6.857 2.956 10.403 4.282 4.967 1.858 15.204 5.138 15.204 5.138"/><path d="m76.57 426.41c0 0 3.648 11.298 6 16.842 2.091 4.925 4.429 9.807 7.202 14.558 3.302 5.657 7.212 11.13 11.203 16.556 3.136 4.264 10 12.56 10 12.56"/></g></g><g fill="none"><g stroke="#fff"><path d="m114.18 499.48c0 0-5.644 2.6-8 4.282-1.886 1.346-4.801 4.567-4.801 4.567"/><path d="m92.58 524.89c0 0-4.16 4.736-4.801 7.422-.472 1.979.08 4.054.8 5.995.749 2.02 3.601 5.709 3.601 5.709"/><path d="m93.38 550.58c0 0-6.01 2.16-8 3.996-1.396 1.285-2.217 2.947-2.401 4.567-.164 1.451.65 2.88 1.2 4.282.842 2.145 3.201 6.28 3.201 6.28"/><path d="m96.18 579.7c0 0-4.219 4.35-5.201 6.851-.721 1.835-1.049 3.861-.4 5.709.755 2.153 3.05 3.875 4.801 5.709 1.232 1.29 4 3.711 4 3.711"/><path d="m116.46 562.63c0 0-2.321 3.605-2.679 5.649-.264 1.506.045 3.086.447 4.563.418 1.536 2.01 4.346 2.01 4.346"/><path d="m127.56 586.32c0 0-1.318 2.988-1.521 4.683-.15 1.248.026 2.558.253 3.782.237 1.273 1.141 3.602 1.141 3.602"/><path d="m104.85 610.63c0 0-2.328 4.102-2.487 6.271-.117 1.592.135 3.288 1.138 4.712 1.169 1.659 3.483 2.764 5.384 4.03 1.336.892 4.218 2.506 4.218 2.506"/><path d="m125.78 629.22c0 0-.238 5.287.838 7.768.789 1.82 2.054 3.649 4 4.951 2.271 1.517 5.508 2.076 8.374 2.939 2.02.607 6.182 1.57 6.182 1.57"/><path d="m167.07 651.78c0 0 5.526 3.527 8.882 4.533 2.462.738 5.239 1.222 7.89.993 3.088-.267 5.768-1.678 8.537-2.689 1.947-.712 5.658-2.371 5.658-2.371"/><path d="m161.99 628.83c0 0 5.04 1.672 7.906 1.937 2.11.195 4.326-.018 6.398-.298 2.154-.291 6.1-1.413 6.1-1.413"/><path d="m137.07 609.76c0 0 .742 3.087 1.646 4.661.666 1.159 1.661 2.267 2.648 3.281 1.026 1.055 3.322 2.832 3.322 2.832"/><path d="m216.13 653.92c0 0 5.678.567 8.615.242 2.164-.239 4.26-.885 6.187-1.565 2-.707 5.424-2.559 5.424-2.559"/><path d="m197.91 631.41c0 0 5.04 1.672 7.906 1.937 2.11.195 4.326-.018 6.398-.298 2.154-.291 6.1-1.413 6.1-1.413"/><path d="m232.21 628.79c0 0 6.544 1.898 10 2.284 1.581.176 3.201 0 4.801 0 3.067 0 6.16.278 9.202 0 3.145-.288 9.203-1.713 9.203-1.713"/></g><g stroke="#000"><path d="m623.53 424.41c0 0 2.824 11.374 3.201 17.13.318 4.851.023 9.738-.8 14.558-1.038 6.076-2.795 12.11-5.201 17.984-1.362 3.325-5.201 9.706-5.201 9.706"/><path d="m675.54 477.5c0 0-5.091 6.544-8.402 9.42-2.575 2.236-5.901 3.972-8.802 5.995-1.484 1.034-4.401 3.14-4.401 3.14"/><path d="m713.15 524.32c0 0-7.171 4.317-11.203 5.995-4.02 1.674-8.44 2.833-12.803 3.996-4.188 1.117-12.803 2.855-12.803 2.855"/><path d="m715.55 599.11c0 0-9.607-4.372-14.404-6.565-5.607-2.563-11.303-5.03-16.805-7.707-4.893-2.38-14.404-7.422-14.404-7.422"/><path d="m694.74 648.78c0 0-11.1-6.736-16-10.562-3.978-3.104-7.408-6.552-10.803-9.991-3.557-3.604-10-11.133-10-11.133"/><path d="m669.54 691.88c0 0-8.99-8.853-13.204-13.416-4.052-4.388-8.248-8.738-11.603-13.416-2.696-3.76-5.817-7.539-6.802-11.704-.378-1.598.4-4.853.4-4.853"/><path d="m645.13 763.82c0 0-10.222-11.271-14.804-17.13-7.434-9.502-14.802-19.09-20.542-29.17-5.939-10.43-10.142-21.336-14.267-32.2-2.682-7.06-6.802-21.409-6.802-21.409"/><path d="m549.91 730.42c-.4-1.142-5.793-11.319-8-17.13-2.535-6.664-4.205-13.482-6-20.267-1.656-6.256-4.401-18.84-4.401-18.84"/><path d="m595.12 755.82c0 0-8.215-11.265-11.603-17.13-4.679-8.095-8.729-16.395-12-24.835-3.963-10.216-6.701-20.666-9.202-31.11-1.381-5.77-3.201-17.413-3.201-17.413"/><path d="m683.14 750.11c0 0-11.359-7.775-16-12.275-8.113-7.859-14.12-16.736-20.405-25.406-7.428-10.248-14.361-20.7-20.405-31.4-4.588-8.122-12-24.835-12-24.835"/><path d="m725.55 696.45c-.4-1.142-13.392-5.539-19.21-9.135-9.06-5.606-16.376-12.523-24.01-19.13-6.601-5.712-12.833-11.644-18.805-17.698-4.216-4.273-12-13.13-12-13.13"/><path d="m737.16 634.22c0 0-11.525-1.668-16.805-3.425-9.922-3.303-18.763-8.158-27.21-13.13-3.927-2.313-7.183-5.152-10.803-7.707-6.369-4.496-19.21-13.416-19.21-13.416"/><path d="m745.96 564c0 0-21.1.563-31.609 0-7.129-.382-14.31-.94-21.21-2.284-7.908-1.541-22.806-6.566-22.806-6.566"/><path d="m714.75 486.35c0 0-5.628 7.468-9.603 10.562-5.714 4.448-12.991 7.762-20.01 11.133-3.32 1.596-6.857 2.956-10.403 4.282-4.967 1.858-15.204 5.138-15.204 5.138"/><path d="m667.54 426.41c0 0-3.648 11.298-6 16.842-2.091 4.925-4.429 9.807-7.202 14.558-3.302 5.657-7.212 11.13-11.203 16.556-3.136 4.264-10 12.56-10 12.56"/></g><g stroke="#fff"><path d="m629.93 499.48c0 0 5.645 2.6 8 4.282 1.886 1.346 4.801 4.567 4.801 4.567"/><path d="m651.53 524.89c0 0 4.16 4.736 4.801 7.422.473 1.979-.08 4.054-.8 5.995-.749 2.02-3.601 5.709-3.601 5.709"/><path d="m650.73 550.58c0 0 6.01 2.16 8 3.996 1.396 1.285 2.217 2.947 2.401 4.567.164 1.451-.65 2.88-1.2 4.282-.842 2.145-3.201 6.28-3.201 6.28"/><path d="m647.93 579.7c0 0 4.219 4.35 5.201 6.851.721 1.835 1.049 3.861.4 5.709-.755 2.153-3.05 3.875-4.801 5.709-1.232 1.29-4 3.711-4 3.711"/><path d="m627.65 562.63c0 0 2.321 3.605 2.679 5.649.264 1.506-.044 3.086-.446 4.563-.418 1.536-2.01 4.346-2.01 4.346"/><path d="m616.55 586.32c0 0 1.318 2.988 1.521 4.683.15 1.248-.026 2.558-.254 3.782-.237 1.273-1.141 3.602-1.141 3.602"/><path d="m639.26 610.63c0 0 2.328 4.102 2.487 6.271.117 1.592-.135 3.288-1.138 4.712-1.169 1.659-3.484 2.764-5.384 4.03-1.336.892-4.218 2.506-4.218 2.506"/><path d="m618.33 629.22c0 0 .238 5.287-.838 7.768-.789 1.82-2.054 3.649-4 4.951-2.271 1.517-5.508 2.076-8.374 2.939-2.02.607-6.182 1.57-6.182 1.57"/><path d="m577.04 651.78c0 0-5.526 3.527-8.882 4.533-2.462.738-5.239 1.222-7.89.993-3.088-.267-5.768-1.678-8.537-2.689-1.947-.712-5.658-2.371-5.658-2.371"/><path d="m582.12 628.83c0 0-5.04 1.672-7.906 1.937-2.11.195-4.326-.018-6.398-.298-2.154-.291-6.1-1.413-6.1-1.413"/><path d="m607.04 609.76c0 0-.742 3.087-1.646 4.661-.667 1.159-1.661 2.267-2.648 3.281-1.026 1.055-3.322 2.832-3.322 2.832"/><path d="m527.98 653.92c0 0-5.678.567-8.615.242-2.164-.239-4.26-.885-6.187-1.565-2-.707-5.424-2.559-5.424-2.559"/><path d="m546.2 631.41c0 0-5.04 1.672-7.906 1.937-2.11.195-4.326-.018-6.398-.298-2.154-.291-6.1-1.413-6.1-1.413"/><path d="m511.9 628.79c0 0-6.544 1.898-10 2.284-1.581.176-3.201 0-4.801 0-3.067 0-6.16.278-9.202 0-3.144-.288-9.202-1.713-9.202-1.713"/></g><path d="m324.93 399.95c-1.147 2.697 2.28 5.494 4.449 7.809 1.722 1.838 4.159 3.264 6.576 4.588 2.272 1.245 4.855 2.135 7.354 3.102 4.648 2.373 8.363 2.638 13.359 1.385 3.041-.763 7.03-1.133 8.602-3.235 1.458-1.952 1.142-4.96-.741-6.694-1.749-1.61-5.296-1.193-7.959-1.748-3.448-.718-7.079-1.013-10.382-2.046-3.813-1.192-7.091-3.185-10.678-4.723-1.243-.533-2.326-1.584-3.757-1.562-2.662.042-6.01 1.216-6.823 3.123z" stroke="#000"/></g><g stroke="#000"><path d="m247.55 418.73c4.444 1.419.467 7.771 3.559 10.561 4.665 4.209 12.798 5.536 19.873 6.843 4.279.791 8.796.411 13.2.521 8.17.205 16.39-.369 24.521.261 6.562.508 13.228 1.135 19.429 2.827 2.69.734 5.959 1.317 7.514 3.124 1.402 1.629 2.391 4.375.642 5.801-4.726 3.854-13.947-.249-20.912-.038-6.741.205-13.429 1.065-20.17 1.264-6.768.199-13.618.668-20.319-.075-7.583-.841-15.508-1.904-22.05-4.909-6.744-3.099-14.15-7.197-16.363-12.904-1.211-3.13-.011-6.947 2.522-9.594 1.917-2.01 5.529-4.647 8.553-3.681z"/><path d="m261.69 422.34c-5.322-2.14-.463-9.276 1.484-13.573 1.78-3.928 4.92-7.654 8.998-10.449 3.02-2.072 6.912-3.518 10.877-4.276 5.782-1.106 11.93-.247 17.896-.222 5.391.022 11.813-2.056 16.17.335 4.47 2.455 3.565 7.884 5.487 11.788 3.38 6.864 6.367 13.872 10.628 20.453 2.992 4.621 7.9 8.501 10.431 13.276 2.079 3.922 3.579 8.126 3.756 12.346.129 3.076.162 6.488-1.978 9.111-2.19 2.683-6.383 4.182-10.135 5.578-5.268 1.96-11.09 3.109-16.908 3.755-7.679.854-15.908 1.926-23.285.111-6.281-1.545-12.264-4.747-15.918-8.888-2.111-2.392-5.601-6.485-2.718-8.367 2.01-1.313 4.83 1.755 7.415 2.231 5.292.975 10.817 1.313 16.265 1.228 3.378-.053 6.855-.22 10.04-1.078 3.759-1.014 7.199-2.733 10.234-4.685 1.706-1.098 3.585-2.28 4.351-3.867 1.765-3.659 1.201-7.909-.098-11.676-.982-2.846-3.303-5.376-5.636-7.735-2.775-2.806-6.434-5.05-9.788-7.475-2.938-2.121-5.312-4.954-9.05-6.173-4.429-1.446-9.61-.996-14.436-.893-3.576.076-7.341.055-10.629 1.115-5.261 1.696-8.4 10.06-13.448 8.03z"/></g></g><g fill="none" stroke="#000"><path d="m304.24 136.38c0 3.746-1.341 6.782-2.995 6.782-1.654 0-2.995-3.037-2.995-6.782 0-3.746 1.341-6.782 2.995-6.782 1.654 0 2.995 3.037 2.995 6.782z" transform="matrix(1.28447.05251-.06347.87833-38.15 271.34)" stroke-linejoin="round" stroke-width="3.76"/><g stroke-width="4"><path d="m363.18 449.07l8.912 20.755 8.27-18.514"/><path d="m357.13 493.19l8.912 20.755 8.27-18.514"/><path d="m342.35 567.4l8.912 20.755 8.27-18.514"/><path d="m405.63 569.35l-11.851 19.906-5.554-19.08"/><path d="m338.46 656.56l8.912 20.755 8.27-18.514"/><path d="m401.75 658.51l-11.85 19.906-5.554-19.08"/><path d="m381.26 699.4l-11.85 19.906-5.554-19.08"/><path d="m383.84 614.36l-11.851 19.906-5.554-19.08"/></g></g></g></g></svg>