<svg xmlns="http://www.w3.org/2000/svg" viewBox="0 0 977.12 1067.6" xmlns:xlink="http://www.w3.org/1999/xlink"><g transform="translate(-11.726 5.277)"><path d="m810.11 4.748c-26.17.053-51.02.198-70.798.478-79.11 1.122-156.7-.214-235.05 0-2.653.007-5.305.036-7.958.043-78.35.214-155.94 1.122-235.05 0-79.11-1.122-239.53 0-239.53 0 0 0 4.995 48.18 6.784 72.32 3.067 41.38 4.256 82.87 6.784 124.29 3.405 55.766 7.902 111.49 11.307 167.25 2.529 41.41 3.91 82.9 6.784 124.29 4.346 62.59 5.02 125.75 15.786 187.56 6.02 34.562 14.418 68.979 27.14 101.67 15.355 39.473 33.473 78.71 58.839 112.63 18.288 24.456 41.648 45.04 65.884 63.62 27.747 21.272 57.962 39.816 89.93 53.968 33.818 14.97 69.917 25.08 106.24 32.09 27.334 5.278 55.35 7.255 83.19 7.349 27.662.094 55.55-1.52 82.71-6.741 36.46-7.01 72.54-17.626 106.46-32.746 31.934-14.235 62.23-32.696 89.98-53.968 24.24-18.58 47.595-39.17 65.884-63.62 25.365-33.919 43.484-73.16 58.839-112.63 12.718-32.695 21.12-67.16 27.14-101.72 10.762-61.814 11.44-124.97 15.786-187.56 2.874-41.39 4.256-82.87 6.784-124.29 3.405-55.766 7.902-111.44 11.307-167.21 2.529-41.41 3.717-82.909 6.784-124.29 1.79-24.14 6.784-72.32 6.784-72.32 0 0-90.24-.636-168.73-.478" fill="#0f47af"/><g stroke="#000"><path d="m839.91 4.719c-9.98-.002-19.969.012-29.781.031-26.17.053-51.04.188-70.813.469-79.11 1.122-156.71-.214-235.06 0-1.18.003-2.351.023-3.531.031 1.826 29.547 9.255 143.87 18.281 204.53 11.504 77.31 23.13 155.72 48.19 228.75 21.966 64.01 50.934 126.03 88.31 179.97 33.07 47.716 72.69 91.03 117.78 123.53 37.756 27.22 80.36 47.586 124.19 57.56 2.332-5.644 4.576-11.3 6.781-16.969 12.718-32.695 21.14-67.16 27.16-101.72 10.762-61.814 11.436-124.97 15.781-187.56 2.874-41.39 4.253-82.9 6.781-124.31 3.405-55.766 7.908-111.42 11.313-167.19 2.529-41.41 3.714-82.934 6.781-124.31.403-5.443.99-12.161 1.625-19.219 1.604-20.319 3.53-42.25 4.5-53.09-1.661-.012-69.28-.484-138.28-.5zm-689.19.063c-65.65.054-127.11.491-128.34.5.964 10.785 2.872 32.439 4.469 52.625.652 7.226 1.244 14.13 1.656 19.688 3.067 41.38 4.253 82.87 6.781 124.28 3.405 55.766 7.908 111.48 11.313 167.25 2.529 41.41 3.908 82.89 6.781 124.28 4.346 62.59 5.02 125.75 15.781 187.56 6.02 34.562 14.438 68.992 27.16 101.69 2.199 5.654 4.455 11.308 6.781 16.938 43.816-9.979 86.41-30.35 124.16-57.56 45.09-32.505 84.72-75.82 117.78-123.53 37.38-53.94 66.35-115.96 88.31-179.97 25.06-73.03 36.683-151.44 48.19-228.75 9.03-60.66 16.48-174.98 18.313-204.53-1.18.008-2.351.028-3.531.031-78.35.214-155.96 1.122-235.06 0-29.665-.421-70.74-.533-110.53-.5z" fill="#fff" stroke-linejoin="round" stroke-width="5"/><path d="m810.11 4.748c-26.17.053-51.02.198-70.798.478-79.11 1.122-156.7-.214-235.05 0-2.653.007-5.305.036-7.958.043-78.35.214-155.94 1.122-235.05 0-79.11-1.122-239.53 0-239.53 0 0 0 4.995 48.18 6.784 72.32 3.067 41.38 4.256 82.87 6.784 124.29 3.405 55.766 7.902 111.49 11.307 167.25 2.529 41.41 3.91 82.9 6.784 124.29 4.346 62.59 5.02 125.75 15.786 187.56 6.02 34.562 14.418 68.979 27.14 101.67 15.355 39.473 33.473 78.71 58.839 112.63 18.288 24.456 41.648 45.04 65.884 63.62 27.747 21.272 57.962 39.816 89.93 53.968 33.818 14.97 69.917 25.08 106.24 32.09 27.334 5.278 55.35 7.255 83.19 7.349 27.662.094 55.55-1.52 82.71-6.741 36.46-7.01 72.54-17.626 106.46-32.746 31.934-14.235 62.23-32.696 89.98-53.968 24.24-18.58 47.595-39.17 65.884-63.62 25.365-33.919 43.484-73.16 58.839-112.63 12.718-32.695 21.12-67.16 27.14-101.72 10.762-61.814 11.44-124.97 15.786-187.56 2.874-41.39 4.256-82.87 6.784-124.29 3.405-55.766 7.902-111.44 11.307-167.21 2.529-41.41 3.717-82.909 6.784-124.29 1.79-24.14 6.784-72.32 6.784-72.32 0 0-90.24-.636-168.73-.478z" fill="none" stroke-width="20"/></g><g font-family="Sans" text-anchor="middle" text-align="center" word-spacing="0" line-height="125%" letter-spacing="0"><text x="592.08" y="980.17" transform="matrix(.9907.1361-.1361.9907 0 0)" fill="#150406" font-size="6.774"><tspan x="592.08" y="980.17">Christian Duscha</tspan></text><text x="309.53" y="1159.07" transform="matrix(.96906-.24682.24682.96906 0 0)" fill="#130406" font-size="4.441"><tspan x="309.53" y="1159.07">Gleiwitz-Essen-Landshut</tspan></text></g><g transform="translate(1184.99-22)" fill="#fff" stroke="#000"><g stroke-width="5"><path d="m-763.73 939.01h158.03v105.55h-158.03z"/><path d="m-763.73 939.01l20.934-39.07h116.17l20.934 39.07z" stroke-linejoin="round" stroke-linecap="round"/><path d="m-742.79 584.13h116.17v315.82h-116.17z"/></g><path transform="matrix(.5.14696-.28868.25454-144.69 527.54)" d="m-626.63 584.13l-174.25 100.6v-201.2z" stroke-linejoin="round" stroke-linecap="round" stroke-width="12.138"/></g><g fill="#da121a" stroke="#000"><g transform="translate(1182.78-50.658)"><g stroke-linejoin="round" stroke-linecap="round" stroke-width="5"><path d="m-508.03 101.22l-48.06 33.12v401.22h96.09v-401.22l-48.03-33.12z"/><path d="m-360.62 101.22l-48.06 33.12v401.22h96.09v-401.22l-48.03-33.12z"/><path d="m-599.25 225.88h329.81v79.21h-329.81z"/></g><path transform="translate(5.181 7.142)" d="m-509.65 258.34c0 2.151-1.599 3.895-3.571 3.895-1.972 0-3.571-1.744-3.571-3.895 0-2.151 1.599-3.895 3.571-3.895 1.972 0 3.571 1.744 3.571 3.895z" stroke="#000" stroke-linejoin="round" stroke-linecap="round" stroke-width="5" id="0"/><use transform="translate(147.4)" xlink:href="#0"/></g><path d="m148.06 62.05c0 0 10.686 39.502 13.75 59.687 2.425 15.976 3.834 44.12 4.344 55.75l-88.69-31.844v114.66 15.719 114.66l88.66-31.844c-.562 12.438-1.984 39.565-4.313 54.906-3.064 20.19-13.75 59.688-13.75 59.688h81.84 22.813 81.84c0 0-10.717-39.502-13.781-59.688-2.561-16.871-3.979-46.794-4.406-56.938l94.28 33.875v-114.66-15.719-114.66l-94.31 33.844c.364-8.877 1.784-40.27 4.438-57.75 3.064-20.19 13.781-59.687 13.781-59.687h-81.84-22.813-81.84zm96 157.69c26.51 0 48 21.49 48 48 0 26.51-21.49 48-48 48-26.51 0-48-21.49-48-48 0-26.51 21.49-48 48-48z" stroke-linecap="round" stroke-width="5"/></g></g></svg>