<svg xmlns="http://www.w3.org/2000/svg" width="426" height="456"><path d="M3.028 3h420l-20 290c-5.272 92.837-100 160-190 160s-179.46-73.782-190-160z" style="fill:#000;stroke:#000;stroke-width:3;stroke-miterlimit:4;stroke-dasharray:none;stroke-opacity:1"/><path d="M127.028 183h-14.006v-31.009l-20.442-24.61-14.548-.04v-22.334l9.997-.334-.62-30.283c6.75-8.233 13.597-15.547 20.794-23.386l.038-2.906 3.269.002.022 2.904 7.172 9h58.329L211.7 23.713l-.139-8.11c.098-2.14 3.637-2.064 3.749.073v8.094l36.722 36.234h58l8.003-7.666-.087-3.23 4.206-.019.204 3.384 19.67 22.194v30.674l10.004.334v20.329h-14L316.37 152l-.669 31.003h-14.669" style="fill:none;stroke:#fff;stroke-width:6;stroke-linecap:square;stroke-linejoin:miter;stroke-miterlimit:4;stroke-dasharray:none;stroke-opacity:1" transform="translate(-2.032 2)"/><path d="M300.028 177h9v-28l25-29h11v-9h-10V78h-30v15h10v-3c.323-7.393 11.343-8.221 12 0v18h-7v15l-20 25z" style="fill:#da121a" transform="translate(-2.032 2)"/><path d="M112.352 175.289h12.396v13.358h-12.396z" style="fill:#da121a" transform="rotate(-46.356 1.32 3.373)"/><path d="M99.003 212.259h14.947v15.485H99.003z" style="fill:#da121a" transform="matrix(.67171 -.74081 .70596 .70825 -2.032 2)"/><path d="M116.028 125h199l-18 23H284c-.028-7 1-16-7-21-8 5-7.028 14-7 21h-14c0-7 1-16-7-21-8 5-7 14-6.972 21H237c-5.208-4.656-12.073-10.477-15-13-1.517-2.88-2.83-4.718-5.83-7.718-3.538 2.945-4.928 4.718-6.17 7.718-3.322 2.426-10.767 8.262-15.972 13h-5C189 141 190 132 182 127c-8 5-7 14-6.972 21h-17C158 141 159 132 151 127c-8 5-7 14-6.972 21h-11zm33 117h36v22h-36zm-17 0h14.331v22h-14.331zm117-14h49c4 2 4 6 0 8h-49c-3-1-3-6 0-8zm-117-27h24c-3 6-5 13-6 22h-18zm18-27h19c-4 7-9 15-11 23h-8zm18-23h22c-7 6-14 13-19 20h-3z" style="fill:#fff" transform="translate(-2.032 2)"/><path d="M155.028 223h23c7.144-22.067 15.176-43.634 36-58 24.076 17.309 30.82 37.606 37 58h23c-11.06-35.4-19.66-56.62-58.37-86.99-40.71 30.98-52.1 49.97-60.63 86.99z" style="fill:#fff" transform="translate(-2.032 2)"/><path d="M116.308 230.089h14.28v14.797h-14.28z" style="fill:#da121a" transform="matrix(.67334 -.73933 .70753 .70668 -2.032 2)"/><path d="M81.733 194.059h14.28v14.797h-14.28z" style="fill:#dc281e" transform="matrix(.67334 -.73933 .70753 .70668 -2.032 2)"/><path d="M64.203 176.389h14.28v14.797h-14.28zm51.949 35.42h14.28v14.797h-14.28z" style="fill:#da121a" transform="matrix(.67334 -.73933 .70753 .70668 -2.032 2)"/><path d="M112.845 192.401h13.569v14.082h-13.569z" style="fill:#da121a" transform="matrix(.68501 -.72853 .7187 .69531 -2.032 2)"/><path d="M98.858 194.579h14.28v14.797h-14.28z" style="fill:#dc281e" transform="matrix(.67334 -.73933 .70753 .70668 -2.032 2)"/><path d="M99.574 178.099h14.399v13.502H99.574zm-17.438-1.01h14.28v14.797h-14.28zm-17.788 16.73h14.28v14.797h-14.28zm16.428 17.97h14.871v15.179H80.776z" style="fill:#da121a" transform="matrix(.67334 -.73933 .70753 .70668 -2.032 2)"/><path d="M99.53 230.552h13.816v14.315H99.53z" style="fill:#da121a" transform="matrix(.67278 -.73984 .707 .70722 -2.032 2)"/><path d="M47.275 175.799h14.28v14.797h-14.28z" style="fill:#da121a" transform="matrix(.67334 -.73933 .70753 .70668 -2.032 2)"/><path d="m123.676 71.143 6.44-5.21 8.797 10.123-9.615 10.558-1.568-2.796.32-7.613z" style="fill:#da121a;stroke-width:.99946922" transform="translate(-2.032 2)"/><path d="M29.844 156.219h14.28v14.797h-14.28zm16.962.21h14.28v14.797h-14.28z" style="fill:#da121a" transform="matrix(.67334 -.73933 .70753 .70668 -2.032 2)"/><path d="M124.891 242.049h13.671v14.221h-13.671z" style="fill:#da121a" transform="matrix(.70335 -.71085 .73617 .6768 -2.032 2)"/><path d="M138.701 266.125h13.709v14.192h-13.709z" style="fill:#da121a" transform="matrix(.66637 -.74562 .70082 .71333 -2.032 2)"/><path d="m290.783 98.264 9.615-10.39 2.32 1.983.126 4.462-1.926 13.9zm-.697-23.58 9.114-8.886 10.495.334-8.076 9.015.308 5.8-2.04 3.525z" style="fill:#da121a;stroke-width:.99946922" transform="translate(-2.032 2)"/><path d="M116.089 247.669h14.635v14.459h-14.635z" style="fill:#da121a" transform="matrix(.67334 -.73933 .70753 .70668 -2.032 2)"/><path d="m256.63 65.252 15.738.066-7.944 7.215zm23.362.117 15.737.064-7.941 7.384z" style="fill:#da121a;stroke-width:.99946922" transform="translate(-2.032 2)"/><path d="m155.428 65.46 16.741-.1-7.944 8.55zm-22.19.24 15.571-.268-8.612 8.552z" style="fill:#da121a" transform="translate(-2.032 2)"/><path d="m127.505 65.41-4.936 3.872-3.575-3.9zm-7.942 34.86 8.773-5.899.126-3.871 10.182 10.17-8.898 9.77z" style="fill:#da121a;stroke-width:.99946922" transform="translate(-2.032 2)"/><path d="M46.856 192.869h14.28v14.797h-14.28z" style="fill:#dc281e" transform="matrix(.67334 -.73933 .70753 .70668 -2.032 2)"/><path d="M64.378 211.359h13.569v16.891H64.378zm16.841 18.09h14.635v14.222H81.219zm19.115 34.1h13.57v13.582h-13.57zm17.466 17.36h14.28v14.797H117.8z" style="fill:#da121a" transform="matrix(.67334 -.73933 .70753 .70668 -2.032 2)"/><path d="M116.65 265.109h14.517v13.862H116.65zm-17.726-18.16h14.753v14.11H98.924z" style="fill:#dc281e" transform="matrix(.67334 -.73933 .70753 .70668 -2.032 2)"/><path d="M81.586 246.119h15.22v14.926h-15.22zm-34.176-36.29h14.279v16.688H47.41zm-17.746-17.51h14.28v14.797h-14.28zm-17.43-17.79h14.28v14.797h-14.28zm16.14.55h14.28v14.797h-14.28z" style="fill:#da121a" transform="matrix(.67334 -.73933 .70753 .70668 -2.032 2)"/><path d="M129.518 177.12h-9v-28l-25-29h-11v-9h10v-33h30v15h-10v-3c-.323-7.393-11.343-8.221-12 0v18h7v15l20 25zM320.028 59l15 17h-31zm-210.4 0 15.4 17h-31Z" style="fill:#da121a" transform="translate(-2.032 2)"/><path d="M113.358 96h15v20h17V96h15v20h17V96h15v20h16V96h15v20h17V96h15v20h16V96h16v20h15V96h15v27h-204z" style="fill:#fff;stroke:#000;stroke-width:3;stroke-linecap:butt;stroke-linejoin:miter;stroke-miterlimit:4;stroke-dasharray:none" transform="translate(-2.032 2)"/><path d="m260.028 151-20.329.334c7 6 12.33 12.666 17.33 19.666h3zm37 50h-26c3 6 6.337 13 7.337 22l18.66.22zm-20-27h-19c4 7 9 15 11 23h8zm-145-23h33v20h-33zm0 23h15v23h-15z" style="fill:#fff" transform="translate(-2.032 2)"/><g style="fill:#f4f0e8"><path d="M156 451.36h36v22h-36zm-17 0h14.331v22H139z" style="fill:#fff" transform="matrix(-1 0 0 1 436.996 -207.36)"/></g><g style="fill:#f4f0e8"><path d="M156 451.36h36v22h-36zm-17 0h14.331v22H139z" style="fill:#fff" transform="translate(105.996 -181.36)"/></g><g style="fill:#f4f0e8"><path d="M156 451.36h36v22h-36zm-17 0h14.164v22H139z" style="fill:#fff" transform="matrix(-1 0 0 1 436.996 -156.36)"/></g><g style="fill:#f4f0e8"><path d="M156 451.36h36v22h-36zm-17 0h14.331v22H139z" style="fill:#fff" transform="matrix(-1 0 0 1 321.996 -181.36)"/></g><g style="fill:#f4f0e8"><path d="M156 451.36h36v22h-36zm-17 0h14.331v22H139z" style="fill:#fff" transform="translate(-9.004 -156.36)"/></g><g style="fill:#f4f0e8"><path d="M139 360.36h33v20h-33zm0 23h15v23h-15z" style="fill:#fff" transform="matrix(-1 0 0 1 432.99 -207.357)"/></g><path d="M187 208h57m-57 24h57m-57 25h57" style="fill:none;stroke:#da121a;stroke-width:6;stroke-linecap:butt;stroke-linejoin:miter;stroke-miterlimit:4;stroke-dasharray:none;stroke-opacity:1" transform="translate(-2.032 2)"/><path d="M219.028 173.4V273h8v-91.1c-3.005-3.296-5.956-6.517-8-8.5zm-15 6.1V273h8V171.3c-1.85 1.493-4.7 4.506-8 8.2zm-15 26.5v67h8v-83.4c-2.336 4.285-4.778 8.946-8 16.4zm45-14.2V273h8v-64.4c-3.034-7.522-4.943-11.308-8-16.8z" style="color:#000;font-style:normal;font-variant:normal;font-weight:400;font-stretch:normal;font-size:medium;line-height:normal;font-family:sans-serif;font-variant-ligatures:normal;font-variant-position:normal;font-variant-caps:normal;font-variant-numeric:normal;font-variant-alternates:normal;font-feature-settings:normal;text-indent:0;text-align:start;text-decoration:none;text-decoration-line:none;text-decoration-style:solid;text-decoration-color:#000;letter-spacing:normal;word-spacing:normal;text-transform:none;writing-mode:lr-tb;direction:ltr;text-orientation:mixed;dominant-baseline:auto;baseline-shift:baseline;text-anchor:start;white-space:normal;shape-padding:0;clip-rule:nonzero;display:inline;overflow:visible;visibility:visible;opacity:1;isolation:auto;mix-blend-mode:normal;color-interpolation:sRGB;color-interpolation-filters:linearRGB;solid-color:#000;solid-opacity:1;vector-effect:none;fill:#da121a;fill-opacity:1;fill-rule:nonzero;stroke:#000;stroke-width:1;stroke-linecap:butt;stroke-linejoin:miter;stroke-miterlimit:4;stroke-dasharray:none;stroke-dashoffset:0;stroke-opacity:1;color-rendering:auto;image-rendering:auto;shape-rendering:auto;text-rendering:auto;enable-background:accumulate" transform="translate(-2.032 2)"/><path d="M133.028 228h49c4 2 4 6 0 8h-49c-3-1-3-6 0-8zm-3 93h48l-7 7h-48c-.644-1.738 2.997-4.333 7-7zm-13 13h48l-29 28 4 5h-23zm-11 45v-2c3-1 5-2 6-4h30l6 6zm-3 6c-4.24 3.385-2.61 6.237 0 9h60l-8.316-8.63z" style="fill:#fff" transform="translate(-2.032 2)"/><g style="fill:#f4f0e8"><path d="M137 530.36h50.837l-6.29 7H130c-.644-1.738 2.997-4.333 7-7zm-13 13h51.782c-8.008 10.227-19.816 21.917-23.099 33H124Zm-11 45v-2c3-1 5-2 6-4h31.655l-.352 6.098zm-3 6c-4.24 3.385-2.61 6.237 0 9h41.931c-.265-2.706-.888-4.695-.587-8.533z" style="fill:#fff" transform="matrix(-1 0 0 1 436.321 -207.697)"/></g><path d="M-.344 3.767v350c0 150 130 240 250 240 130 0 230-90 230-240v-350z" style="fill:#fcdd09;stroke:#000001;stroke-width:8;stroke-miterlimit:4;stroke-dasharray:none" transform="matrix(.1543 -.15064 .14961 .15536 138.42 365.134)"/><path stroke-miterlimit="100" d="M155.11 144.55s-8.574-.44-11.979-2.767c-3.723-2.521-7.642-11.043-7.642-11.043s-9.456 1.249-13.792.05c-4.532-1.248-10.998-7.149-10.998-7.149 4.359-.515 7.593-1.077 11.831-4.579 0 0-8.354-.832-13.105-3.036-4.139-1.886-10.853-7.908-10.853-7.908 3.871-.881 8.061-.563 11.146-4.53 0 0-8.205-.269-11.904-1.885-3.7-1.64-9.53-7.517-9.53-7.517 4.509-.245 8.82-.955 11.734-4.774 0 0-8.304-.049-11.808-1.69-4.825-2.277-12.198-9.451-12.198-9.451 4.679-.196 9.333-.441 12.884-3.159l-2.571-5.876c-3.111-7.1-9.774-4.921-14.184-7.027-4.311-2.081-6.688-7.321-6.908-10.21-.367-5.093 2.107-12.756 12.69-10.7-5.194-8.912.367-14.935 5.976-17.187 5.415-2.179 10.166-1.322 13.743 8.349 0 0 4.973-4.113 7.644-4.627 3.722-.735 7.887.783 9.161 4.578.537 1.592.709 4.823-.222 6.709-1.47 2.988-4.654 4.946-5.731 9.378-1.225 4.995 3.013 14.005 3.013 14.005s20.233 18.314 29.518 28.279c4.948 5.313 13.914 16.698 13.914 16.698l.489-.294 20.21.857 1.47 36.971z" class="st16" style="fill:#000;stroke:#000;stroke-width:2.59500003;stroke-miterlimit:100;stroke-dasharray:none" transform="matrix(.19677 -.23093 .22936 .19812 140.482 370.647)"/><path d="M137.96 125.48s4.728 11.042 7.937 12.829c3.036 1.715 5.586-1.125 5.586-1.125l-1.862-4.579-6.467-2.204c1.371-6.463 13.693-3.378 10.875-16.307 0 0-20.453-22.378-24.961-26.932-5.953-6.023-21.826-19.563-21.826-19.563s-3.577-9.77-3.992-16.38c-.195-2.914.393-5.999 1.666-8.545 1.298-2.62 5.07-3.428 5.805-6.317.221-.906-.072-2.033-.612-2.792-.686-.882-1.813-1.519-2.866-1.494-3.943.074-10.264 6.121-10.264 6.121s-3.845-7.761-7.227-9.622c-1.445-.783-3.307-.783-4.801-.195-1.371.563-2.768 1.763-3.209 3.305-1.421 4.897 2.743 15.303 2.743 15.303s-9.186-2.914-12.761-.539c-1.348.906-2.06 2.987-1.962 4.75.147 1.91 1.397 3.771 2.843 4.945 3.871 3.208 13.987 4.383 13.987 4.383l11.636 17.751-12.469 3.256c4.704 2.987 8.401 4.089 21.312 4.701-2.67 5.852-6.564 7.737-9.969 10.259l21.629 4.383c-1.935 5.778-7.595 6.072-10.264 8.521 5.438 4.187 14.085 5.9 22.879 7.517-1.225 4.774-6.859 5.729-11.22 7.811 3.137 1.543 8.721.783 17.834.759" class="st2" style="fill:none" transform="matrix(.19677 -.23093 .22936 .19812 140.482 370.647)"/><path d="M136.02 104.74c-9.4-18.373-25.06-36.097-41.614-50.152" class="st6" style="fill:#fff" transform="matrix(.19677 -.23093 .22936 .19812 140.482 370.647)"/><path d="M112.19 29.281c.662 3.697-.784 6.268-3.846 7.125-1.519.441-3.257-.123-5.07-2.277.932-5.999.515-8.398-3.307-13.736 9.651 2.62 9.97 7.272 12.223 8.888zm-26.893-3.942c2.009 3.085 1.714 6.097-.711 8.275-1.2 1.077-2.989 1.347-5.438.196-1.446-5.974-2.744-8.006-8.23-11.213 9.676-1.886 11.733 2.253 14.379 2.742zM69.84 45.318c2.988 1.935 3.87 4.848 2.547 7.958-.66 1.542-2.181 2.571-4.802 2.62-3.625-4.848-5.561-6.121-11.709-6.611 7.937-6.097 11.392-3.232 13.964-3.967z" class="st1" style="fill:#da121a;stroke:#000;stroke-width:2;stroke-miterlimit:4;stroke-dasharray:none" transform="matrix(.19677 -.23093 .22936 .19812 140.482 370.647)"/><path stroke-miterlimit="282" d="M212.94 213.66s-43.849 5.28-62.344 8.656c-10.851 1.984-22.857 8.496-33.219 15.375-5.374 3.565-12.078 8.304-15.062 12.594-3.954 1.146-5.892-.806-9.32-7.145-3.704 14.186 5.585 16.816 11.382 18.239.692.985 1.48 2.026 2.344 2.968 4.165 4.58 16.09 13.148 10.75 16.062 0 0-11.85 7.048-19.469 9.375-5.56 1.69-16.906 3.063-16.906 3.063l-7.033-16.59s-5.666-5.034-9.094-3.469c-3.55 1.641-4.78 10.72-4.78 10.72s-4.708-3.462-7.5-3.438c-3.798 0-7.078 1.19-8.72 4.594-1.567 3.256-1.623 6.743.532 9.656 1.176 1.592 5.437 4.03 5.437 4.03s-5.636 3.297-6.469 5.5c-1.69 4.408-1.277 7.438 1.907 10.939 2.327 2.522 6.812 2.07 10.219 1.531 6.859-1.104 17.594-6.219 17.594-6.219s10.055 2.178 11.5 5.875c1.518 3.843-3.094 11.97-3.094 11.97s7.711-2.363 11.312-5.594c2.964-2.694 7.844-10.562 7.844-10.562s1.208 4.726 1.062 7.125c-.146 2.52-1.969 7.28-1.969 7.28s8.528-3.917 11.344-7.468c2.33-2.94 3.406-7.75 3.406-7.75s3.256 2.839 3.282 5.875c.049 3.085-2.625 8.906-2.625 8.906s12.16-5.595 14.438-11.25c.808-2.032 1.187-6.219 1.187-6.219s3.136 3.485 3.969 6.375c.71 2.448-1.313 7.47-1.313 7.47s10.474-6.197 11.062-11.313c.342-2.889-1.032-5.65-2.625-8.344 0 0 5.024 2.267 8.625 1.532 3.625-.734 7.974-2.141 9.47-5.125 1.493-2.965.468-6.23-1.345-9.094-1.812-2.84-6.562-6.438-6.562-6.438s-7.28-18.316-1.156-18.094c19.107.612 43.954 2.573 41.062-.781l15.188-10.562 12.243-23.938z" style="fill:#000;stroke:#000;stroke-width:2.59529996;stroke-miterlimit:282" transform="matrix(.21696 -.2118 .21036 .21845 134.87 365.476)"/><path d="M158.76 232.11s-13.228 2.547-19.18 5.387c-12.14 3.583-27.9 16.662-23.835 17.678l12.126 16.576-4.998-16.332c11.948-9.582 22.731-13.906 35.887-23.309" class="st6" style="fill:#fff" transform="matrix(.21696 -.2118 .21036 .21845 134.87 365.476)"/><path d="M44.437 281.84c3.454.81 5.268 3.258 5.071 6.637-.098 1.664-1.177 3.158-3.649 4.063-5.021-3.329-7.276-3.893-13.229-2.276 5.413-8.424 9.627-6.881 11.807-8.424zm-.563 25.49c3.454-.883 6.198.439 7.57 3.525.685 1.541.44 3.354-1.323 5.313-6.026-.662-7.393-1.189-11.924 2.973.906-9.966 4.477-9.437 5.677-11.811zm24.57-36.63c2.082 2.89 1.837 5.951-.539 8.325-1.176 1.199-2.965 1.615-5.438.686-1.568-5.828-2.915-7.713-8.45-10.432 9.626-2.766 11.78 1.176 14.427 1.421z" class="st1" style="fill:#da121a;stroke:#000;stroke-width:2;stroke-miterlimit:4;stroke-dasharray:none" transform="matrix(.21696 -.2118 .21036 .21845 134.87 365.476)"/><path d="M287.12 69.25s-12.588 7.311-19.219 16.875c-5.233 7.574-8.428 17.92-7.531 26.688 0 0 1.674 12.076 5.156 18.219 4.39 7.771 12.75 15.406 12.75 15.406s-7.478.105-13.812 3.188c-4.153 2.008-7.704 6.072-8.969 10.5-1.247 4.34 2 13.375 2 13.375s2.066-8.057 4.938-10.812c1.754-1.666 4.307-2.826 6.719-2.75 3.867.144 8.072 2.025 10.406 5.093 0 0 4.7 14.376 14.5 19.562 6.929 3.668 17.59 7.784 16.438 29.688-1.221 23.21-17.3 26.604-20.625 42.625-.847 4.076-2.936 7.223-6.782 8.813-4.8 2.008-10.97 2.35-15.625 0-5.78-2.914-6.29-5.582-8.812-11.531-4.851-11.386-4.306-27.148-8.813-38.656-3.77-9.598-12.66-15.937-15.625-25.781-3.036-10.186.127-21.38-1.344-31.906-.93-6.514-4.53-16.55-5.437-23.062-.712-5.166 0-11.531 0-11.531l-45.719-2.406-24.656 21.812s-9.387 2.573-14.188 2.843c-11.71.687-25.23-2.821-36.938-3.312-12.617-.514-36.031-1.406-36.031-1.406l-4.544-10.04c-1.716-3.844-1.788-8.47-5.562-10.281-2.963-1.396-7.37-2.13-9.844 0-2.376 2.057-1.375 9.343-1.375 9.343s-7.542-1.592-10.75 0c-3.48 1.737-5.545 4.037-5.594 7.907-.05 4.578 2.465 9.58 6.531 11.688 1.79.93 6.063.937 6.063.937s-3.7 1.849-4.657 4.688c-1.225 3.625-.035 8.568 2.782 11.188 3.356 3.11 6.857 2.82 11.219 1.375 3.65-1.225 7.937-6.532 7.937-6.532s6.723-.752 9.344.938c2.105 1.372 3.082 4.106 3.719 6.531.489 1.812.734 3.856 0 5.594-1.936 4.676-9.781 11.844-9.781 11.844s7.59.514 11.094-.688c7.323-2.498 17.187-11.812 17.187-11.812s-.558 4.41-2.468 6.907c-2.401 3.159-8.531 8.28-8.531 8.28s11.6-1.223 17.061-3.843c4.9-2.349 11.813-10.906 11.813-10.906s-.16 4.151-1.188 6.281c-1.226 2.546-3.875 8.313-3.875 8.313s10.471-2.282 15.125-5c3.527-2.057 7.875-8.688 7.875-8.688s.148 4.501-.563 6.875c-.66 2.155-3.718 6.688-3.718 6.688s9.995-1.836 14.28-4.188c4.36-2.375 10.563-10.562 10.563-10.562s5.891-1.467 9.687.688c7.472 4.235 10.816 14.277 19.562 18.906 14.207 7.516 33.107 11.818 39.156 28.344 2.083 5.68 2.26 9.506-.656 14.844-3.552 6.537-18.483 14.42-22.281 21.594 0 0-5.968 8.188-7.438 16.219-.556 3.055-.504 6.278.094 9.406-3.348-.265-6.655-.816-9.719-4.219 2.718 19.337 10.772 18.232 18.312 19.156 2.177 2.117 4.56 4.078 6.844 6 6.124 5.142 20.25 12.844 20.25 12.844l2.406 4.813s-8.955 6.134-12.312 10.469c-4.115 5.289-10.78 17-10.78 17s-4.14-4.344-8.72-6.032c-3.552-1.298-8.6-2.62-11.343 0-2.622 2.497-2.792 5.496-1.47 8.875 1.176 3.036 5.407 5.407 5.407 5.407s-3.53 3.276-4.438 5.406c-1.103 2.597-1.068 6.05.5 8.375 2.106 3.11 5.621 2.697 9.344 2.969 2.646.195 7.875-.97 7.875-.97s-1.19 3.071-.968 4.907c.317 2.841 1.02 6.357 3.468 7.875 3.332 2.081 8.548 1.783 11.781-.469 5.486-3.844 7.657-18.094 7.657-18.094s3.265-.784 4.562 0c3.332 2.007 8.688 7.032 8.688 7.032s1.312-6.17-.157-11.094c-.882-2.912-5.812-7-5.812-7s6.398-1.668 9.312.437c2.867 2.081 6.47 9.281 6.47 9.281s1.361-7.929.405-12.875c-.71-3.77-7.03-9.125-7.03-9.125s5.183-1.054 7.437 0c3.92 1.836 8.312 9.97 8.312 9.97s3.293-10.663.844-16.563c-1.151-2.742-7.063-5.406-7.063-5.406s8.15-2.131 11.188 0c3.723 2.645 5.407 9.125 5.407 9.125s3.848-7.934 2.5-13.688c-.833-3.55-6.657-8.688-6.657-8.688s4.466-3.72 5.813-6.218c1.128-2.13 2.612-4.86 1.656-7.063-1.003-2.277-4.02-3.32-6.469-3.687-2.988-.467-8.812 1.937-8.812 1.937l-3.63-3.17c-6.37-5.582-9.858-14.59-10.812-23.625-1.03-9.354 6.562-26.906 6.562-26.906s3.531 11.47 8.97 17.812c3.796 4.432 9.26 7.839 14.968 9.063 7.3 1.566 11.032 1.985 17.72-1.344 6.048-2.99 12.661-7.95 14.093-14.531 3.071-14.118 15.51-20.866 18.094-21.094 2.923-.238 6.196.659 8.594 2.375 3.32 2.382 6.812 10.188 6.812 10.188s2.196-10.261.532-14.97c-1.804-5.145-10.72-12.343-10.72-12.343s7.246-.538 10.095 1.312c3.369 2.214 6.468 8.22 6.468 8.22s1.359-8.913-.968-13.657c-2.361-4.848-12.312-10.469-12.312-10.469s5.745-2.667 8.406-1.656c3.603 1.355 8.75 8.062 8.75 8.062s-.603-10.234-4.344-15.594c-6.106-8.746-16.5-3.468-16.5-3.468s10.828-12.184-12.312-47.344c-4.907-7.455-8.507-9.25-11.438-17.688-2.095-6.037-6.43-14.923-7.875-21.125-.945-3.94-1.447-8.211-.469-12.125 2.157-8.787 10.562-23 10.562-23s-10.5 7.416-15.438 12.375c-3.547 3.587-7.53 8.53-7.53 8.53s.033-6.95 1.655-12.53c2.327-8.065 6.313-16.344 6.313-16.344z" style="fill:#1a1a1a" transform="matrix(.21696 -.2118 .21036 .21845 134.87 365.476)"/><path d="M172.04 177.14s2.424-7.298 1.322-10.725c-1.396-4.457-7.324-6.219-9.406-10.407-.809-1.64-1.005-5.386-1.005-5.386s-4.458 3.134-7.054 3.355c-3.92.365-7.472-2.841-11.416-3.013-3.405-.172-10.067 1.689-10.067 1.689s-21.851-4.015-30.571-5.044c-13.352-1.567-37.602 0-37.602 0l-6.395-17.457s-.023-2.865-1.665-4.04c-1.2-.833-3.355-1.028-4.359 0-2.181 2.276 0 9.745 0 9.745s-8.329-3.036-12.444-1.004c-1.642.808-3.308 2.521-3.356 4.357-.024 1.936 1.788 3.574 3.356 4.701 4.188 2.988 14.796 4.701 14.796 4.701s-9.04 3.208-10.754 7.051c-.736 1.642-1.25 4.064 0 5.363 1.69 1.787 5.021 1.077 7.374.342 3.502-1.102 8.743-6.707 8.743-6.707s10.853.17 14.771 3.354c2.695 2.18 3.626 6.023 4.36 9.402.515 2.302.123 4.701 0 7.051-.049 1.225-.317 3.697-.317 3.697l19.142-15.44c2.425 6.047.196 12.07-2.694 18.118l18.494-16.11c4.139 5.361 1.935 10.748 0 16.11l16.779-14.765c3.994 5.264 2.965 9.696 1.691 14.104 0 0 4.604-2.229 6.711-3.698 4.018-2.815 11.073-9.744 11.073-9.744s6.907 1.786 10.091 3.354c3.75 1.864 10.413 7.055 10.413 7.055" class="st2" style="fill:#323232" transform="matrix(.21696 -.2118 .21036 .21845 134.87 365.476)"/><path d="M139.11 156.62c-21.629-6.831-42.035-8.766-63.223-7.149 24.446 6.561 44.876 8.348 63.223 7.149" class="st6" style="fill:#414141" transform="matrix(.21696 -.2118 .21036 .21845 134.87 365.476)"/><path d="M234.84 323.73s-2.865-8.275-5.559-11.604c-8.133-10.064-24.546-14.104-30.254-25.709-2.083-4.237-1.837-7.59-.515-12.096 2.106-7.125 7.692-12.709 12.102-18.658 5.119-6.904 14.061-11.482 16.657-19.661 2.277-7.245.979-15.718-2.033-22.695-2.303-5.362-6.908-9.622-11.587-13.099-8.476-6.27-20.944-6.049-28.759-13.123-1.738-1.568-3.526-6.05-3.526-6.05s22.046-5.41 29.763-12.584c2.155-2.007 3.527-6.072 3.527-6.072l11.61 4.554s-.905 16.135 1.495 23.701c1.715 5.361 4.091 9.818 7.078 14.617 3.063 4.947 8.305 8.938 9.579 14.618 1.347 5.949 1.077 12.241-.515 18.142-2.303 8.594-10.901 17.996-12.591 26.713-1.347 6.782-1.544 13.955 0 20.689 1.959 8.717 14.109 22.182 14.109 22.182l6.05 3.013s7.203-3.013 8.574-.489c1.887 3.475-7.055 9.573-7.055 9.573l6.051 6.561-21.68 5.021 9.064 8.079-17.638.489 9.577 13.125h-18.175l9.089 9.572-8.574.514s-2.72 12.168-7.056 16.136c-1.567 1.421-4.336 3.258-6.05 2.009-1.642-1.176 0-4.04 0-6.049v-8.08s-7.35 1.813-11.098 2.033c-2.522.146-6.271 1.64-7.569-.516-1.716-2.84 4.042-9.083 4.042-9.083s-5.414-4.799-6.564-8.056c-.343-.955-.71-2.301 0-3.012 1.543-1.564 4.458-.635 6.564 0 4.998 1.469 13.105 8.57 13.105 8.57l10.582-18.657z" class="st2" style="fill:#000" transform="matrix(.21696 -.2118 .21036 .21845 134.87 365.476)"/><path d="M257.55 169.79s1.497-9.572 4.651-12.865c3.069-3.182 5.212-3.181 9.631-3.369 3.716-.164 7.88.836 10.688 3.314 4.171 3.748 6.016 9.314 9.432 13.74 4.263 5.533 16.321 13.127 16.321 13.127l2.568-12.598-.426 1.23-.652-18.742-4.737-11.634-6.242-10.579-6.407-16.672-.913-8.938 2.79-11.485 8.286-17.015-14.012 10.39-9.468 10 2.266-13.25 5.01-14.591-13.771 10.072-11.404 19.231-1.17 16.732 7.333 18.744 8.98 10.279-15.389 6.906-6.026 9.037z" class="st2" style="fill:#323232" transform="matrix(.21696 -.2118 .21036 .21845 134.87 365.476)"/><path d="M295.04 84.128s-7.447 6.397-9.394 10.731c-2.87 6.372-3.481 13.893-2.572 20.838.577 4.199 3.003 7.938 4.821 11.764 2.254 4.691 5.799 8.785 7.555 13.676 2.006 5.652 4.183 5.914 5.847 11.688 1.04 3.595 1.068 11.197 1.068 11.197 2.783-3.038 5.138-7.063 4.355-18.853l-4.517-5.427-4.78-11.089-6.407-16.673-.352-10.424 5.703-11.411 4.777-12.326z" class="st6" style="fill:#414141;stroke-width:889.02246094;stroke-miterlimit:4;stroke-dasharray:none" transform="matrix(.21696 -.2118 .21036 .21845 134.87 365.476)"/><path stroke-miterlimit="282" d="M287.12 69.25s-12.588 7.311-19.219 16.875c-5.233 7.574-8.428 17.92-7.531 26.688 0 0 1.674 12.076 5.156 18.219 4.39 7.771 12.75 15.406 12.75 15.406s-7.478.105-13.812 3.188c-4.153 2.008-7.704 6.072-8.969 10.5-1.247 4.34 2 13.375 2 13.375s2.066-8.057 4.938-10.812c1.754-1.666 4.307-2.826 6.719-2.75 3.867.144 8.072 2.025 10.406 5.093 0 0 4.7 14.376 14.5 19.562 6.929 3.668 17.59 7.784 16.438 29.688-1.221 23.21-17.3 26.604-20.625 42.625-.847 4.076-2.936 7.223-6.782 8.813-4.8 2.008-10.97 2.35-15.625 0-5.78-2.914-6.29-5.582-8.812-11.531-4.851-11.386-4.306-27.148-8.813-38.656-3.77-9.598-12.66-15.937-15.625-25.781-3.036-10.186.127-21.38-1.344-31.906-.93-6.514-4.53-16.55-5.437-23.062-.712-5.166 0-11.531 0-11.531l-45.719-2.406-24.656 21.812s-9.387 2.573-14.188 2.843c-11.71.687-25.23-2.821-36.938-3.312-12.617-.514-36.031-1.406-36.031-1.406l-4.544-10.04c-1.716-3.844-1.788-8.47-5.562-10.281-2.963-1.396-7.37-2.13-9.844 0-2.376 2.057-1.375 9.343-1.375 9.343s-7.542-1.592-10.75 0c-3.48 1.737-5.545 4.037-5.594 7.907-.05 4.578 2.465 9.58 6.531 11.688 1.79.93 6.063.937 6.063.937s-3.7 1.849-4.657 4.688c-1.225 3.625-.035 8.568 2.782 11.188 3.356 3.11 6.857 2.82 11.219 1.375 3.65-1.225 7.937-6.532 7.937-6.532s6.723-.752 9.344.938c2.105 1.372 3.082 4.106 3.719 6.531.489 1.812.734 3.856 0 5.594-1.936 4.676-9.781 11.844-9.781 11.844s7.59.514 11.094-.688c7.323-2.498 17.187-11.812 17.187-11.812s-.558 4.41-2.468 6.907c-2.401 3.159-8.531 8.28-8.531 8.28s11.6-1.223 17.061-3.843c4.9-2.349 11.813-10.906 11.813-10.906s-.16 4.151-1.188 6.281c-1.226 2.546-3.875 8.313-3.875 8.313s10.471-2.282 15.125-5c3.527-2.057 7.875-8.688 7.875-8.688s.148 4.501-.563 6.875c-.66 2.155-3.718 6.688-3.718 6.688s9.995-1.836 14.28-4.188c4.36-2.375 10.563-10.562 10.563-10.562s5.891-1.467 9.687.688c7.472 4.235 10.816 14.277 19.562 18.906 14.207 7.516 33.107 11.818 39.156 28.344 2.083 5.68 2.26 9.506-.656 14.844-3.552 6.537-18.483 14.42-22.281 21.594 0 0-5.968 8.188-7.438 16.219-.546 3.004-.507 6.17.063 9.25-3.056-1.096-7.309-.637-10.346-6.34 2.854 23.108 11.029 19.037 19.721 22.121 1.97 1.852 4.063 3.604 6.094 5.313 6.124 5.142 20.25 12.844 20.25 12.844l2.406 4.812s-8.956 6.135-12.312 10.47c-4.115 5.288-10.781 17-10.781 17s-4.139-4.344-8.719-6.032c-3.553-1.298-8.6-2.62-11.344 0-2.622 2.497-2.792 5.496-1.469 8.875 1.175 3.036 5.407 5.406 5.407 5.406s-3.53 3.276-4.438 5.406c-1.103 2.597-1.068 6.051.5 8.375 2.106 3.111 5.62 2.697 9.344 2.97 2.646.194 7.875-.97 7.875-.97s-1.19 3.07-.969 4.907c.317 2.84 1.02 6.357 3.469 7.875 3.332 2.08 8.547 1.783 11.78-.469 5.487-3.844 7.657-18.094 7.657-18.094s3.266-.784 4.563 0c3.332 2.007 8.687 7.031 8.687 7.031s1.313-6.17-.156-11.094c-.882-2.912-5.813-7-5.813-7s6.399-1.667 9.313.438c2.867 2.08 6.469 9.28 6.469 9.28s1.362-7.928.406-12.874c-.71-3.771-7.031-9.125-7.031-9.125s5.183-1.054 7.437 0c3.92 1.836 8.313 9.969 8.313 9.969s3.293-10.662.843-16.562c-1.15-2.742-7.062-5.407-7.062-5.407s8.15-2.13 11.188 0c3.723 2.645 5.406 9.125 5.406 9.125s3.848-7.933 2.5-13.688c-.833-3.549-6.656-8.687-6.656-8.687s4.465-3.72 5.812-6.219c1.128-2.129 2.613-4.86 1.657-7.062-1.003-2.277-4.02-3.32-6.47-3.688-2.987-.467-8.812 1.938-8.812 1.938l-3.63-3.17c-6.369-5.582-9.857-14.591-10.812-23.625-1.029-9.354 6.563-26.906 6.563-26.906s3.53 11.47 8.969 17.812c3.797 4.432 9.261 7.838 14.969 9.062 7.299 1.566 11.032 1.985 17.719-1.344 6.049-2.989 12.662-7.95 14.094-14.53 3.07-14.119 15.51-20.867 18.094-21.095 2.923-.238 6.195.66 8.593 2.375 3.321 2.382 6.813 10.188 6.813 10.188s2.195-10.26.531-14.969c-1.804-5.146-10.719-12.344-10.719-12.344s7.246-.537 10.094 1.313c3.37 2.214 6.469 8.219 6.469 8.219s1.358-8.913-.969-13.656c-2.36-4.848-12.312-10.47-12.312-10.47s5.745-2.667 8.406-1.656c3.603 1.355 8.75 8.063 8.75 8.063s-.602-10.234-4.343-15.594c-6.106-8.746-16.5-3.469-16.5-3.469s10.828-12.184-12.312-47.344c-4.907-7.455-8.508-9.25-11.438-17.688-2.095-6.037-6.43-14.923-7.875-21.125-.945-3.94-1.447-8.21-.47-12.125 2.158-8.787 10.563-23 10.563-23s-10.5 7.416-15.438 12.375c-3.547 3.587-7.531 8.531-7.531 8.531s.034-6.95 1.656-12.53c2.327-8.066 6.312-16.345 6.312-16.345z" style="fill:#000;stroke:#000;stroke-width:2.59529996;stroke-miterlimit:282" transform="matrix(.21696 -.2118 .21036 .21845 134.87 365.476)"/><path d="M56.171 117.89c2.303 2.742 2.278 5.803.098 8.374-1.078 1.272-2.841 1.811-5.364 1.077-2.01-5.681-3.504-7.493-9.211-9.77 9.382-3.477 11.806.27 14.477.319zM34.125 130.6c3.307 1.322 4.728 4.016 4.042 7.321-.343 1.615-1.617 2.938-4.189 3.501-4.482-4.04-6.638-4.921-12.762-4.212 6.589-7.54 10.533-5.386 12.909-6.61zm7.226 28.3c3.503-.562 6.124 1.029 7.201 4.212.564 1.591.123 3.38-1.812 5.165-5.903-1.174-8.207-.832-13.106 2.891 1.814-9.844 6.296-9.991 7.717-12.268z" class="st1" style="fill:#da121a;stroke:#000;stroke-width:2;stroke-miterlimit:4;stroke-dasharray:none" transform="matrix(.21696 -.2118 .21036 .21845 134.87 365.476)"/><path d="M188.13 183.38s3.259 3.086 5.193 4.162c6.101 3.354 14.209 2.57 19.769 6.76l12.494 9.352-17.172-28.083s-4.631 3.549-7.276 4.676c-4.115 1.762-13.008 3.133-13.008 3.133m34.86 67.63s-13.864 9.744-17.687 19.243c-2.154 5.314-2.204 10.823 0 16.112 5.537 13.295 26.53 20.297 26.53 20.297s-15.016-8.938-18.74-20.813c-1.396-4.479-.809-9.449 0-14.053 1.52-8.374 9.897-20.786 9.897-20.786" class="st6" style="fill:#fff" transform="matrix(.21696 -.2118 .21036 .21845 134.87 365.476)"/><path d="M183.77 342.68c2.892 2.083 3.627 5.045 2.156 8.081-.71 1.493-2.278 2.472-4.898 2.399-3.381-5.02-5.268-6.391-11.392-7.15 8.207-5.728 11.515-2.693 14.134-3.33zm-1.76 22.18c3.503-.563 6.123 1.028 7.201 4.211.539 1.593.124 3.38-1.812 5.166-5.929-1.199-8.207-.855-13.131 2.89 1.838-9.842 6.32-10.015 7.742-12.267zm21.24 13.13c3.478-.783 6.172.637 7.472 3.745.637 1.567.317 3.354-1.495 5.264-5.977-.807-8.255-.316-12.909 3.699 1.198-9.916 5.658-10.358 6.932-12.708z" class="st1" style="fill:#da121a;stroke:#000;stroke-width:2;stroke-miterlimit:4;stroke-dasharray:none" transform="matrix(.21696 -.2118 .21036 .21845 134.87 365.476)"/><path d="M169.8 97.32c-.028-2.819-.847-4.675-.054-8.493 2.417 3.385 6.051 4.469 9.179 6.51" style="fill:#fff;fill-rule:evenodd;stroke:#000;stroke-width:1;stroke-linecap:round;stroke-linejoin:round;stroke-miterlimit:4;stroke-dasharray:none" transform="matrix(.21696 -.2118 .21036 .21845 134.87 365.476)"/><path d="M199.44 68.953c-23.272 2.984-38.649 27.189-61.769 10.918 15.052 26.074 36.899-1.735 63.947-2.018l-2.178-8.9z" style="fill:#da121a;fill-rule:evenodd;stroke:#000;stroke-width:2;stroke-linecap:round;stroke-linejoin:round;stroke-miterlimit:4;stroke-dasharray:none" transform="matrix(.21696 -.2118 .21036 .21845 134.87 365.476)"/><path d="M159.28 73.62c.774 3.401 3.109 5.756 6.662 7.293-2.133-4.152 1.055-7.063 2.837-10.303" style="fill:#fff;fill-rule:evenodd;stroke:#000;stroke-width:1;stroke-linecap:round;stroke-linejoin:round;stroke-miterlimit:4;stroke-dasharray:none" transform="matrix(.21696 -.2118 .21036 .21845 134.87 365.476)"/><path d="m184.7 157.63-1.363 10.218 7.672-5.92c-10.34 23.734 4.853 25.765 20.827 27.131-5.95-12.276 7.684-22.174 11.288-36-3.615 13.638-.208 21.301 20.933 13.878-21.802-4.772.704-17.093-8.2-32.237 4.614 8.49 11.703 3.738 18.009 3.174-20.154-5.853-9.602-19.232-8.949-30.185l-9.447-18.737c4.65 12.152 12.2 7.24 19.168 5.757-14.277-2.88-4.75-21.803-22.084-30.165 6.306 2.506 12.7 6.012 18.482 2.598-13.717-1.713-9.473-15.645-22.012-18.841 7.072.386 11.333-2.084 16.54-3.594-5.99-.994-11.424.568-18.109-3.625l-10.435-9.544-25.748-.31c-6.388 1.851-12.47 4.317-17.456 8.99-4.642 2.565-10.59 4.49-10.17 9.534-9.902 2.016-28.603 13.04-14.155 11.817.672 10.328 3.24 13.151 8.792 12.973 12.46 2.055 15.08-7.002 24.21-9.514 20.544 5.398 12.44 18.792 6.485 24.342-6.472 6.033-18.397 3.29-18.397 3.29-3.739 5.695-3.243 8.894 1.49 9.598 5.811 4.741 7.492.272 10.46-1.328 20.39-.443 17.263-10.7 24.451-16.654-5.337 8.595 2.8 19.422-19.068 24.934-11.292 2.851-10.17-1.452-20.834 1.693-10.664 3.144-13.344 10.239-21.822 10.885-7.579.577-18.054 1.442-11.042-15.083-15.056 15.732 1.273 28.857 21.46 21.796-18.14 6.543-29.392 14.98-45.367 5.606 22.344 26.493 32.523 7.58 56.617 4.942-23.874 4.114-20.456 23.557-46.447 22.615 7.493 9.477 15.502 7.477 26.012 4.27-3.853 3.882-6.904 12.545-15.246 12.29 4.816 6.933 17.511 3.451 28.462.43 12.46-3.438 18.485-12.666 24.994-21.024z" style="fill:#fff;fill-rule:evenodd" transform="matrix(.21696 -.2118 .21036 .21845 134.87 365.476)"/><path d="m216.69 31.531-25.781.031c-8.686 2.004-14.355 6.566-20.844 10.438-2.606 2.175-6.012 3.035-7 7.906-6.695 1.996-15.451 5.6-18.688 10.22.314 2.758 3.405.967 5.188 1.312-.058 9.754 4.043 12.136 7.125 13.344 1.242.487 6.158.114 8.28-.375 5.845-1.346 10.767-6.313 16.626-9.25 13.594 2.3 16.087 9.255 13.636 17.492-.612 2.055-4.635 5.152-7.658 8.843-.903 1.103-12.541 1.276-16.637 2.474-2.91.851-2.71 3.545-1.946 5.996.747-.261 3.763 3.342 7.407 3.522 3.629.179 11.047-4.064 11.668-4.034 3.402.162 12.58-4.512 14.412-10.082 1.387-3.209 7.242-11.413 6.93-4.242-.863 5.874-1.97 11.24-3.461 15.983-1.883 5.784-8.729 9.84-25.29 12.33-10.29-2.366-20.743 5.31-29.155 9.406-7.351 3.393-13.205 3.644-19.094-.468 6.045 7.628 15.68 4.357 25.438 3.53 2.403-.539 3.135 3.02 1.343 3.75-14.12 7.396-25.989 11.788-36.406 11.813 14.76 7.638 30.383-4.17 46.22-5.781 2.448-.425 1.964 5.863.312 6.343-19.17 4.221-23.638 20.613-41.156 21.812 3.778 1.04 4.805 2.929 23.094-2.25-1.029 7.098-4.736 14.08-12.594 17.5 23.1-1.316 38.526-16.589 43.75-25.28 4.31-5.41 7.432 3.442 4.719 7.374 7.877-5.786 6.9.873 5.375 4.032-6.15 14.096 8.323 20.187 14.53 18.438-1.511-15.574 7.98-20.002 13.72-32.906 1.647-2.84 5.528-.573 5.187 3.343-.165 6.007-.827 12.67 9.094 12.031-13.255-7.697 2.828-15.33-2.406-32.219 2.643-7.503 7.792 3.583 12.375 3.188-12.572-11.778-1.892-18.171-3.13-28.388-1.313-7.117-13.15-18.703-7.433-22.237 2.448-3.171 7.195 10.235 13.656 7.781-7.255-4.615-7.449-23.664-19.875-29.875 3.607-5.185 9.353.385 14.22 1.5-8.509-7.203-5.96-12.296-17.095-16.833.424-7.48 9.726-3.076 13.031-3.938-9-1.226-15.36-8.381-21.688-13.573z" style="fill:#000" transform="matrix(.21696 -.2118 .21036 .21845 134.87 365.476)"/><path d="M170.47 53.192c.994 3.128 5.655 5.358 10.276 3.876 4.636-1.512 6.757-4.992 5.738-8.112-1.024-3.145-4.484-3.89-9.126-2.402-4.638 1.513-7.905 3.517-6.888 6.638" class="st12" style="fill:#fff" transform="matrix(.21696 -.2118 .21036 .21845 134.87 365.476)"/><path d="M175.06 52.406c.58 1.718 2.445 2.677 4.17 2.12 1.748-.563 2.709-2.427 2.152-4.152a3.315 3.315 0 0 0-4.177-2.143 3.313 3.313 0 0 0-2.145 4.175" class="st10" style="fill:#2b2200" transform="matrix(.21696 -.2118 .21036 .21845 134.87 365.476)"/><path d="M177.2 46.533c-2.284.746-3.733 2.413-4.884 3.363-1.122.967-1.476 1.76-1.073 3.045.828 2.564 4.98 4.792 9.269 3.406 2.166-.711 3.697-1.85 4.548-3.119.87-1.301 1.092-2.719.654-4.044-.416-1.333-1.28-2.1-2.632-2.443-1.375-.338-3.398-1.096-5.632-.364m-.363-.585c2.422-.786 4.639-.978 6.428-.532 1.79.444 3.11 1.64 3.687 3.434.608 1.812.25 3.73-.831 5.347-1.107 1.626-2.924 3.001-5.395 3.802-4.99 1.616-10.042-.73-11.224-4.414-.598-1.865.7-2.942 2.132-4.153 1.408-1.204 2.848-2.716 5.203-3.484" class="st3" style="fill:#fff" transform="matrix(.21696 -.2118 .21036 .21845 134.87 365.476)"/><path d="m174.48 39.443 16.175-7.955 24.837-.265 18.473 12.905c-20.155-6.95-44.062-7.313-59.485-4.685z" style="fill:#000" transform="matrix(.21696 -.2118 .21036 .21845 134.87 365.476)"/><path d="M165.13 50.739c1.082 1.4 3.08 1.988 4.673.91 1.086-.605 1.945-1.527 2.971-2.218 1.78-1.862 3.511-4.048 6.148-4.277 3.414-.197 6.242 2.066 9.258 3.267" style="fill:none;stroke:#000;stroke-width:2.5;stroke-linecap:round;stroke-linejoin:round;stroke-miterlimit:4;stroke-dasharray:none" transform="matrix(.21696 -.2118 .21036 .21845 134.87 365.476)"/><path d="M157.91 51.817c-4.168 1.107-21.879 10.035-9.016 9.546l.973 3.977c7.907-4.377 9.539-8.91 8.043-13.523z" style="fill:#000" transform="matrix(.21696 -.2118 .21036 .21845 134.87 365.476)"/><path d="m184.7 157.63-1.363 10.218 7.672-5.92c-10.34 23.734 4.853 25.765 20.827 27.131-5.95-12.276 7.684-22.174 11.288-36-3.615 13.638-.208 21.301 20.933 13.878-21.802-4.772.704-17.093-8.2-32.237 4.614 8.49 11.703 3.738 18.009 3.174-20.154-5.853-9.602-19.232-8.949-30.185l-9.447-18.737c4.65 12.152 12.2 7.24 19.168 5.757-14.277-2.88-4.75-21.803-22.084-30.165 6.306 2.506 12.7 6.012 18.482 2.598-13.717-1.713-9.473-15.645-22.012-18.841 7.072.386 11.333-2.084 16.54-3.594-5.99-.994-11.424.568-18.109-3.625l-10.435-9.544c-8.583-.104-18.059-2.173-25.748-.31-6.388 1.851-12.47 4.317-17.456 8.99-4.642 2.565-10.59 4.49-10.17 9.534-9.902 2.016-28.603 13.04-14.155 11.817.672 10.328 3.24 13.151 8.792 12.973 12.46 2.055 15.08-7.002 24.21-9.514 20.544 5.398 12.44 18.792 6.485 24.342-6.472 6.033-18.397 3.29-18.397 3.29-3.739 5.695-3.243 8.894 1.49 9.598 5.811 4.741 7.492.272 10.46-1.328 20.39-.443 17.263-10.7 24.451-16.654-5.337 8.595 2.8 19.422-19.068 24.934-11.292 2.851-10.17-1.452-20.834 1.693-10.664 3.144-13.344 10.239-21.822 10.885-7.579.577-15.39 1.442-11.042-15.083-15.056 15.732 1.273 28.857 21.46 21.796-18.14 6.543-29.392 14.98-45.367 5.606 22.344 26.493 32.523 7.58 56.617 4.942-23.874 4.114-20.456 23.557-46.447 22.615 7.493 9.477 15.502 7.477 26.012 4.27-3.853 3.882-6.904 12.545-15.246 12.29 4.816 6.933 17.511 3.451 28.462.43 12.46-3.438 18.485-12.666 24.994-21.024z" style="fill:none;stroke:#000;stroke-width:2.59500003;stroke-linecap:round;stroke-linejoin:round;stroke-miterlimit:4;stroke-dasharray:none" transform="matrix(.21696 -.2118 .21036 .21845 134.87 365.476)"/><path d="M214.55 24.281c-.136 4.985.57 10.949-.765 14.594-1.04 2.843-8.709 3.387-10.682 1.99-3.753-10.803 5.065-12.886 11.447-16.584z" style="fill:#fff;fill-rule:evenodd;stroke:#000;stroke-width:2.5;stroke-linecap:round;stroke-linejoin:round;stroke-miterlimit:4;stroke-dasharray:none" transform="matrix(.21696 -.2118 .21036 .21845 134.87 365.476)"/><path d="M204.43 37.363c-1.493-5.923 3.992-7.218 7.962-9.519-.108 3.937.83 8.935-1.62 10.492-1.704 1.317-4.93 1.729-6.342-.973z" style="fill:#000;fill-rule:evenodd" transform="matrix(.21696 -.2118 .21036 .21845 134.87 365.476)"/><path d="M160.04 121.83s8.402-5.033 12.215-5.452c3.774-.398 9.358 1.046 13.086.378 7.708-1.372 15.624-6.755 15.624-6.755s-6 8.188-14.642 9.978c-3.348.7-8.404-.593-11.802-.787-4.093-.235-14.481 2.638-14.481 2.638m-17.21 40.42s7.381-7.938 11.277-9.539c3.861-1.566 10.169-1.704 13.902-3.546 7.722-3.8 14.489-11.966 14.489-11.966s-3.926 10.598-12.51 15.128c-3.324 1.762-9.03 1.902-12.669 2.72-4.383.984-14.49 7.204-14.49 7.204m12.031 6.669s4.12-6.308 6.24-7.2c2.1-.866 5.482 0 7.52-1.144 4.215-2.358 8.01-8.98 8.01-8.98s-2.323 9.359-7.016 12.268c-1.817 1.135-4.877.365-6.843.561-2.368.234-7.911 4.495-7.911 4.495m43.61-.15s1.396-7.595 3.323-9.43c1.919-1.802 6.166-2.712 7.87-4.73 3.531-4.163 4.403-11.873 4.403-11.873s2.187 9.394-1.598 14.278c-1.46 1.9-5.297 2.735-7.407 3.88-2.543 1.379-6.59 7.875-6.59 7.875" class="st6" style="fill:#fff" transform="matrix(.21696 -.2118 .21036 .21845 134.87 365.476)"/><path d="M190 139.8c16.667-17.583 38.932-34.492 29.25-55.25 7.893-1.349 6.342-4.326 8-6.75 5.032 24.192-9.306 44.47-37.25 62zm38.05 14.57c2.114-11.509.75-22.219-4.534-26.311 10.206 5.356 9.48 15.306 4.534 26.311zm-84.99-15.07c9.2-2.962 29.855-13.789 33.694-12.831l3.25 1.08c-8.111 1.801-22.507 11.932-36.938 11.75z" style="fill:#fff" transform="matrix(.21696 -.2118 .21036 .21845 134.87 365.476)"/><path d="M9.028 9h408l-20 282c-5.272 92.837-99.797 156-184 156s-173.46-69.782-184-156Z" style="fill:none;stroke:#fff;stroke-width:3;stroke-linecap:round;stroke-linejoin:round;stroke-miterlimit:4;stroke-dasharray:none;stroke-opacity:1"/></svg>