<?xml version="1.0" encoding="utf-8"?>
<!-- Generator: Adobe Illustrator 19.2.1, SVG Export Plug-In . SVG Version: 6.00 Build 0)  -->
<svg version="1.1" id="Layer_1" xmlns="http://www.w3.org/2000/svg" xmlns:xlink="http://www.w3.org/1999/xlink" x="0px" y="0px"
	 viewBox="0 0 2525.4 2834.6" style="enable-background:new 0 0 2525.4 2834.6;" xml:space="preserve">
<style type="text/css">
	.st0{fill:#025198;stroke:#010202;stroke-width:30;stroke-linejoin:round;}
	.st1{fill:#FCDB01;stroke:#000000;stroke-width:15;stroke-linejoin:round;stroke-miterlimit:10;}
	.st2{fill:#FFFFFF;stroke:#000000;stroke-width:10;stroke-linejoin:round;stroke-miterlimit:10;}
	.st3{fill:none;stroke:#000000;stroke-width:10;stroke-linejoin:round;stroke-miterlimit:10;}
	.st4{fill:none;stroke:#000000;stroke-width:10;stroke-linecap:round;stroke-linejoin:round;stroke-miterlimit:10;}
	.st5{fill:none;stroke:#010202;stroke-width:30;}
	.st6{fill:#DA251D;stroke:#000000;stroke-width:10;stroke-linejoin:bevel;stroke-miterlimit:10;}
	.st7{fill:#FCDB01;stroke:#000000;stroke-width:10;stroke-linejoin:bevel;stroke-miterlimit:10;}
	.st8{fill:#FFFFFF;stroke:#000000;stroke-width:10;stroke-linejoin:bevel;stroke-miterlimit:10;}
	.st9{fill:none;stroke:#000000;stroke-width:10;stroke-linejoin:bevel;stroke-miterlimit:10;}
</style>
<path class="st0" d="M21.4,22.2v1551.6c0,685.8,555.5,1241.3,1241.3,1241.3S2504,2259.6,2504,1573.8V22.2H21.4z"/>
<g>
	<path class="st1" d="M436.1,1666.6c-12.1-20.5-19.7-45.4-19.7-65.1c0-41.4,33.6-75,75-75s75,33.6,75,75c0,19.6-7.5,44.6-19.7,65.1
		 M491.5,1556.6c-24.8,0-45,20.2-45,45c0,14.1,6.2,34.1,15.5,49.8c9.3,15.8,49.7,15.8,59,0c9.3-15.7,15.5-35.7,15.5-49.8
		C536.5,1576.8,516.3,1556.6,491.5,1556.6z"/>
	<path class="st1" d="M706,1862.6c0-122.6-99.4-212-222-212s-222,89.4-222,212c0,105.8,74,184.3,173.1,206.6
		c11,2.5,22.4,14.1,33.9,14.9v-176.7c-18.7-6.3-32.2-24-32.2-44.8c0-26.1,21.2-47.2,47.2-47.2c26.1,0,47.2,21.2,47.2,47.2
		c0,20.8-13.5,38.5-32.2,44.8V2084c12.2-0.8,24.2-12.6,35.8-15.3C632.9,2045.7,706,1967.7,706,1862.6z"/>
	<g>
		<g>
			<path d="M431.3,2015.1c0,0-1.7-0.5-4.6-1.4c-0.7-0.2-1.6-0.4-2.4-0.7c-0.9-0.3-1.8-0.6-2.8-1s-2.1-0.7-3.2-1.1s-2.3-0.9-3.5-1.4
				s-2.5-1-3.8-1.6s-2.6-1.2-4-1.9c-0.7-0.3-1.4-0.7-2.1-1c-0.7-0.4-1.4-0.7-2.1-1.1c-1.4-0.8-2.9-1.5-4.3-2.3
				c-2.9-1.7-5.9-3.4-8.8-5.4c-3-1.9-5.8-4.1-8.7-6.2c-2.8-2.2-5.7-4.4-8.4-6.7c-2.8-2.2-5.3-4.6-7.7-7.1c-1.1-1.2-2.2-2.5-3.2-3.8
				c-0.5-0.6-1-1.3-1.5-1.9s-0.9-1.3-1.3-1.9c-0.9-1.3-1.7-2.5-2.5-3.8c-0.8-1.2-1.5-2.5-2.1-3.7c-0.7-1.2-1.3-2.3-1.8-3.4
				s-1-2.2-1.4-3.2s-0.8-2-1.2-2.8c-0.3-0.9-0.6-1.7-0.9-2.5c-0.5-1.5-0.8-2.7-1-3.5s-0.3-1.3-0.3-1.3l0.9-0.5c0,0,0.4,0.3,1,0.9
				s1.5,1.4,2.6,2.5c0.5,0.6,1.1,1.2,1.8,1.8c0.7,0.7,1.4,1.4,2.1,2.1c0.7,0.8,1.5,1.6,2.3,2.5c0.8,0.8,1.7,1.7,2.6,2.7
				c0.9,0.9,1.8,1.9,2.7,2.9c0.9,1,2,2,2.9,3.1c1,1.1,2,2.1,3.1,3.2s2.1,2.3,3.1,3.4c2.2,2.3,4.2,4.9,6.5,7.3c2.2,2.6,4.6,4.9,7,7.3
				c2.5,2.3,5,4.6,7.7,6.7c2.6,2.2,5.3,4.1,7.8,6.1c1.3,0.9,2.6,1.8,3.9,2.7c0.6,0.4,1.3,0.9,1.9,1.3s1.3,0.8,1.9,1.2
				c1.2,0.8,2.5,1.6,3.6,2.3c1.2,0.7,2.4,1.4,3.5,2s2.2,1.3,3.2,1.9c1,0.5,2,1.1,3,1.6c0.9,0.5,1.8,1,2.6,1.4
				c0.8,0.4,1.6,0.8,2.3,1.1c2.8,1.3,4.3,2.1,4.3,2.1L431.3,2015.1z"/>
		</g>
		<g>
			<path d="M423.1,2036.1c0,0-2.5-0.9-6.9-2.6c-1.1-0.4-2.3-0.8-3.6-1.4c-1.3-0.6-2.7-1.2-4.2-1.9c-1.5-0.7-3.1-1.4-4.8-2.1
				c-1.6-0.8-3.4-1.7-5.2-2.6c-3.7-1.8-7.5-4-11.5-6.3c-2.1-1.1-4-2.5-6.1-3.8c-1-0.7-2.1-1.3-3.1-2c-0.5-0.3-1.1-0.7-1.6-1
				c-0.5-0.4-1-0.7-1.6-1.1c-2.1-1.5-4.2-3-6.3-4.5c-2.1-1.5-4.2-3.2-6.3-4.9c-1-0.8-2.1-1.7-3.2-2.5c-1-0.9-2-1.8-3.1-2.7
				c-1-0.9-2.1-1.8-3.1-2.7c-1-0.9-2.1-1.8-3-2.7c-2-1.9-4-3.8-6-5.6c-2-1.9-3.8-3.8-5.8-5.7c-0.9-1-1.9-1.9-2.8-2.9s-1.8-2-2.7-3
				c-1.8-2-3.5-3.9-5.1-5.9c-3.1-4.1-6.1-8-8.5-12.1c-1.3-2-2.4-3.9-3.6-5.8c-1-1.9-2.1-3.8-3-5.6c-0.9-1.8-1.9-3.5-2.6-5.2
				c-0.8-1.7-1.5-3.3-2.1-4.9c-0.6-1.5-1.2-3-1.8-4.3c-0.5-1.4-0.9-2.6-1.3-3.7c-0.8-2.3-1.3-4-1.7-5.3c-0.4-1.2-0.6-1.9-0.6-1.9
				l0.9-0.4c0,0,0.4,0.5,1.2,1.5c0.8,1,1.9,2.5,3.3,4.4c0.7,1,1.4,2,2.3,3.1s1.8,2.3,2.8,3.6c1,1.3,2,2.7,3.1,4.2
				c0.5,0.7,1.1,1.5,1.7,2.2c0.6,0.8,1.2,1.5,1.8,2.3c1.2,1.6,2.4,3.2,3.7,5c1.3,1.7,2.7,3.4,4.1,5.2c2.7,3.6,5.8,7.3,8.7,11.2
				c1.5,2,3.1,3.9,4.6,5.9c0.8,1,1.6,2,2.3,3c0.8,1,1.6,2,2.4,3c1.7,2,3.3,4.1,5,6c1.7,2,3.6,3.9,5.3,5.8c0.9,1,1.8,1.9,2.8,2.8
				l2.8,2.8c0.9,0.9,1.9,1.8,2.8,2.8c1,0.9,1.9,1.8,2.9,2.6c1.9,1.7,3.8,3.5,5.8,5.1s3.9,3.2,5.8,4.8c0.5,0.4,1,0.8,1.4,1.2
				c0.5,0.4,1,0.7,1.5,1.1c1,0.7,1.9,1.5,2.9,2.2s1.9,1.4,2.8,2.1s1.9,1.4,2.8,2c3.8,2.6,7.3,5.1,10.7,7.1c1.7,1.1,3.3,2.1,4.9,3
				s3.1,1.7,4.5,2.5s2.7,1.5,4,2.2c1.2,0.7,2.4,1.2,3.5,1.8c4.2,2.1,6.6,3.3,6.6,3.3L423.1,2036.1z"/>
		</g>
	</g>
	<g>
		<g>
			<path d="M492.9,1697.6c0,0,1.7,0.1,4.7,0.2c0.7,0,1.6,0.1,2.5,0.1c0.9,0.1,1.9,0.2,2.9,0.3c2.1,0.2,4.5,0.4,7,0.8
				c1.3,0.2,2.6,0.4,4,0.6c1.4,0.3,2.8,0.5,4.2,0.8c2.9,0.5,5.9,1.3,9.1,2.1c1.6,0.4,3.1,0.9,4.8,1.4c0.8,0.2,1.6,0.5,2.4,0.7
				c0.8,0.3,1.6,0.6,2.4,0.8c1.6,0.6,3.3,1.1,4.9,1.7c1.6,0.6,3.2,1.3,4.8,1.9s3.2,1.4,4.8,2.1c0.8,0.3,1.6,0.7,2.4,1
				c0.8,0.4,1.6,0.7,2.3,1.1c1.5,0.8,3.1,1.4,4.6,2.2c1.5,0.8,2.9,1.6,4.3,2.5c1.4,0.8,2.7,1.8,4,2.8s2.5,1.9,3.6,2.9s2.2,2,3.3,2.9
				c1,1,2,2,2.9,2.9c0.9,1,1.7,1.9,2.5,2.8s1.5,1.8,2.1,2.7c0.7,0.8,1.2,1.7,1.8,2.4c0.5,0.8,1,1.5,1.4,2.1c0.8,1.3,1.4,2.4,1.8,3.1
				c0.4,0.7,0.6,1.1,0.6,1.1l-0.7,0.7c0,0-0.4-0.2-1.1-0.6c-0.7-0.4-1.8-1-3.1-1.8s-2.8-1.7-4.6-2.8c-0.9-0.5-1.8-1.1-2.8-1.7
				s-2-1.2-3.1-1.9c-2.1-1.4-4.4-2.7-6.8-4.2c-1.2-0.8-2.4-1.5-3.7-2.3s-2.5-1.7-3.8-2.5s-2.6-1.7-3.9-2.6c-1.3-0.9-2.6-1.8-4-2.7
				c-0.7-0.5-1.4-0.9-2-1.4c-0.7-0.4-1.4-0.9-2.1-1.3c-1.4-0.9-2.8-1.7-4.3-2.5s-2.9-1.5-4.4-2.3s-3-1.4-4.5-2.1
				c-0.7-0.3-1.5-0.7-2.2-1s-1.5-0.6-2.2-0.9c-1.5-0.6-2.9-1.3-4.4-1.8c-2.9-1.1-5.7-2.2-8.5-3.1c-1.4-0.5-2.7-0.9-4-1.3
				s-2.6-0.7-3.8-1.1c-1.2-0.3-2.4-0.7-3.5-1s-2.2-0.5-3.2-0.8c-1-0.2-1.9-0.5-2.8-0.7s-1.7-0.4-2.4-0.5c-2.9-0.6-4.6-1-4.6-1
				L492.9,1697.6z"/>
		</g>
		<g>
			<path d="M496.7,1676.7c0,0,2.6,0.3,7.1,0.8c1.1,0.1,2.4,0.2,3.7,0.5c1.4,0.2,2.8,0.5,4.4,0.8c1.6,0.3,3.2,0.6,5,0.9
				c1.7,0.4,3.6,0.8,5.5,1.2c1.9,0.4,3.9,0.8,6,1.4c2,0.6,4.2,1.1,6.3,1.7c1.1,0.3,2.2,0.6,3.3,0.9c1.1,0.4,2.2,0.7,3.3,1.1
				c2.2,0.8,4.6,1.4,6.9,2.3c2.3,0.9,4.6,1.8,7,2.7c0.6,0.2,1.2,0.5,1.8,0.7l1.8,0.8c1.2,0.5,2.4,1,3.5,1.6c1.2,0.5,2.4,1.1,3.6,1.6
				c1.2,0.5,2.4,1.1,3.5,1.7c2.3,1.2,4.7,2.3,7.1,3.5c2.3,1.3,4.6,2.6,7,3.8l1.7,0.9l1.7,1c1.1,0.7,2.3,1.3,3.4,2
				c4.6,2.5,8.7,5.5,12.8,8.4c1.9,1.6,3.9,3.1,5.7,4.6c0.9,0.8,1.8,1.5,2.7,2.3c0.8,0.8,1.7,1.6,2.5,2.4c1.7,1.6,3.2,3.1,4.8,4.6
				c1.5,1.6,2.9,3.1,4.2,4.6s2.6,2.9,3.7,4.3c1.1,1.4,2.2,2.8,3.1,4.1c1,1.3,1.9,2.5,2.7,3.6s1.5,2.2,2.1,3.2
				c1.3,1.9,2.2,3.5,2.8,4.6s1,1.6,1,1.6l-0.8,0.6c0,0-0.5-0.4-1.5-1.1s-2.4-1.9-4.2-3.3c-0.9-0.7-1.8-1.5-2.9-2.4
				c-1.1-0.8-2.2-1.8-3.5-2.7c-1.2-1-2.5-2-3.9-3.2c-1.3-1.1-2.8-2.2-4.3-3.4c-1.5-1.2-3.1-2.4-4.7-3.7c-1.6-1.3-3.3-2.5-5.1-3.9
				c-0.9-0.7-1.7-1.4-2.6-2.1c-0.9-0.7-1.8-1.3-2.7-2c-1.9-1.3-3.7-2.8-5.6-4.3c-1.9-1.4-3.9-2.9-5.8-4.4c-1-0.7-1.9-1.5-2.9-2.3
				c-1-0.7-2-1.5-3-2.2s-2-1.5-3-2.2l-1.5-1.1l-1.6-1.1c-2.1-1.4-4.3-2.8-6.4-4.2c-2.2-1.3-4.4-2.6-6.6-3.9
				c-1.1-0.6-2.2-1.3-3.3-1.9s-2.2-1.2-3.4-1.7c-1.1-0.6-2.2-1.2-3.3-1.7l-1.7-0.9l-1.7-0.8c-2.2-1.1-4.4-2.1-6.6-3.1
				c-2.2-1-4.4-1.9-6.5-2.8s-4.2-1.8-6.3-2.5c-2.1-0.8-4.1-1.5-6-2.3c-1.9-0.7-3.9-1.3-5.7-1.9s-3.6-1.1-5.3-1.7
				c-1.7-0.5-3.3-0.9-4.8-1.3s-2.9-0.8-4.2-1.1c-1.3-0.4-2.6-0.6-3.7-0.9c-4.4-1-7-1.6-7-1.6L496.7,1676.7z"/>
		</g>
	</g>
	<g>
		<g>
			<path d="M643.7,1910.3c0,0-0.7,1.6-1.8,4.3c-0.3,0.7-0.6,1.4-1,2.3c-0.4,0.8-0.8,1.7-1.3,2.6c-0.9,1.9-1.9,4-3.2,6.3
				c-0.6,1.1-1.3,2.3-2,3.5s-1.5,2.4-2.3,3.7c-1.5,2.6-3.4,5.1-5.2,7.8c-1,1.3-2,2.6-3,4c-0.5,0.7-1,1.3-1.5,2
				c-0.5,0.6-1.1,1.3-1.6,2c-1.1,1.3-2.2,2.7-3.4,3.9c-1.2,1.3-2.3,2.6-3.5,3.8c-1.2,1.3-2.4,2.5-3.6,3.8l-1.8,1.9
				c-0.6,0.6-1.2,1.2-1.9,1.8c-1.3,1.2-2.4,2.4-3.7,3.5s-2.6,2.2-3.9,3.2c-1.3,1-2.7,1.9-4,2.7c-1.3,0.8-2.6,1.7-4,2.3
				c-1.3,0.7-2.6,1.4-3.9,2c-1.3,0.6-2.6,1.1-3.8,1.6s-2.4,1-3.5,1.4s-2.2,0.7-3.3,1c-1,0.3-2,0.6-2.9,0.8c-0.9,0.2-1.7,0.4-2.5,0.5
				c-1.5,0.3-2.7,0.5-3.5,0.6s-1.3,0.2-1.3,0.2l-0.4-0.9c0,0,0.3-0.3,1-0.8c0.6-0.5,1.6-1.3,2.7-2.2c1.2-0.9,2.6-2,4.2-3.3
				c0.8-0.6,1.7-1.3,2.6-2c0.9-0.7,1.8-1.5,2.8-2.2c2-1.5,4.1-3.2,6.4-4.8c1.1-0.8,2.3-1.8,3.4-2.6c1.2-0.9,2.4-1.7,3.6-2.7
				c1.2-0.9,2.5-1.8,3.8-2.7c1.3-0.9,2.6-1.8,3.9-2.8c0.7-0.5,1.3-0.9,2-1.4c0.6-0.5,1.3-1,1.9-1.5c1.3-1,2.6-2,3.8-3.1
				s2.5-2.2,3.7-3.3c1.2-1.1,2.4-2.3,3.6-3.4c0.6-0.6,1.2-1.1,1.7-1.7c0.6-0.6,1.1-1.2,1.7-1.7c1.1-1.2,2.2-2.3,3.3-3.4
				c2-2.4,4.1-4.6,5.9-6.8c0.9-1.1,1.8-2.2,2.7-3.2c0.8-1.1,1.6-2.1,2.4-3.1c0.7-1,1.5-2,2.2-2.9s1.3-1.8,1.9-2.7
				c0.6-0.8,1.1-1.6,1.6-2.4s0.9-1.4,1.3-2.1c1.6-2.5,2.5-3.9,2.5-3.9L643.7,1910.3z"/>
		</g>
		<g>
			<path d="M661.8,1921.2c0,0-1.2,2.3-3.3,6.3c-0.5,1-1.1,2.1-1.8,3.3c-0.7,1.2-1.5,2.5-2.3,3.8c-0.8,1.4-1.7,2.8-2.6,4.4
				c-1,1.5-2,3.1-3.1,4.7s-2.2,3.4-3.4,5.1s-2.5,3.5-3.9,5.3c-0.7,0.9-1.3,1.9-2,2.8s-1.5,1.8-2.2,2.7c-1.5,1.8-3,3.8-4.6,5.6
				c-1.6,1.8-3.3,3.7-5,5.6l-1.3,1.4l-1.3,1.4c-0.9,0.9-1.8,1.8-2.7,2.8c-0.9,0.9-1.8,1.8-2.7,2.8c-0.9,0.9-1.9,1.8-2.9,2.7
				c-1.9,1.8-3.8,3.6-5.8,5.3c-2,1.7-4,3.4-6,5.1l-1.5,1.3l-1.5,1.2c-1,0.8-2,1.6-3.1,2.5c-4,3.4-8.3,6.2-12.4,9
				c-2.1,1.2-4.2,2.5-6.3,3.7c-1,0.6-2.1,1.1-3.1,1.7c-1.1,0.5-2.1,1-3.1,1.5c-2,1-4.1,1.9-6,2.8c-2,0.8-3.9,1.6-5.8,2.3
				c-1.9,0.7-3.6,1.4-5.3,2c-1.7,0.5-3.4,1.1-4.9,1.5s-3,0.9-4.3,1.2c-1.4,0.3-2.6,0.6-3.7,0.8c-2.3,0.5-4.1,0.8-5.3,1
				s-1.9,0.3-1.9,0.3l-0.3-0.9c0,0,0.6-0.4,1.6-1c1.1-0.7,2.6-1.6,4.6-2.7c1-0.6,2.1-1.2,3.3-1.9c1.2-0.7,2.4-1.5,3.8-2.3
				c1.3-0.8,2.8-1.6,4.3-2.5s3.1-1.9,4.7-2.8c1.7-1,3.4-2,5.2-3c1.8-1.1,3.6-2.2,5.4-3.3c0.9-0.6,1.9-1.1,2.8-1.7
				c0.9-0.6,1.9-1.2,2.9-1.8c1.9-1.3,3.9-2.4,6-3.7c2-1.3,4-2.6,6.1-3.8c1-0.6,2.1-1.2,3.2-1.9c1-0.7,2.1-1.4,3.1-2
				c1.1-0.7,2.1-1.4,3.2-2l1.6-1l1.5-1.1c2.1-1.5,4.1-3,6.2-4.5c2-1.6,4-3.2,6-4.8c1-0.8,2-1.6,2.9-2.4s1.9-1.7,2.8-2.5
				c0.9-0.8,1.9-1.7,2.8-2.5l1.4-1.2l1.3-1.3c1.8-1.7,3.5-3.4,5.3-5.1c1.7-1.7,3.3-3.4,4.9-5.1c1.6-1.7,3.2-3.3,4.6-5
				c1.5-1.7,2.9-3.3,4.2-4.8c1.4-1.6,2.6-3.2,3.8-4.7s2.4-3,3.5-4.3c1-1.4,2-2.8,2.9-4c0.9-1.3,1.8-2.5,2.6-3.6s1.5-2.2,2.1-3.1
				c2.5-3.8,4-5.9,4-5.9L661.8,1921.2z"/>
		</g>
	</g>
</g>
<g>
	<path class="st1" d="M1987.1,1666.6c-12.1-20.5-19.7-45.4-19.7-65.1c0-41.4,33.6-75,75-75s75,33.6,75,75c0,19.6-7.5,44.6-19.7,65.1
		 M2042.5,1556.6c-24.8,0-45,20.2-45,45c0,14.1,6.2,34.1,15.5,49.8c9.3,15.8,49.7,15.8,59,0c9.3-15.7,15.5-35.7,15.5-49.8
		C2087.5,1576.8,2067.3,1556.6,2042.5,1556.6z"/>
	<path class="st1" d="M2257,1862.6c0-122.6-99.4-212-222-212s-222,89.4-222,212c0,105.8,74,184.3,173.1,206.6
		c11,2.5,22.4,14.1,33.9,14.9v-176.7c-18.7-6.3-32.2-24-32.2-44.8c0-26.1,21.2-47.2,47.2-47.2s47.2,21.2,47.2,47.2
		c0,20.8-13.5,38.5-32.2,44.8V2084c12.2-0.8,24.2-12.6,35.8-15.3C2183.9,2045.7,2257,1967.7,2257,1862.6z"/>
	<g>
		<g>
			<path d="M1982.3,2015.1c0,0-1.7-0.5-4.6-1.4c-0.7-0.2-1.6-0.4-2.4-0.7c-0.9-0.3-1.8-0.6-2.8-1s-2.1-0.7-3.2-1.1s-2.3-0.9-3.5-1.4
				s-2.5-1-3.8-1.6s-2.6-1.2-4-1.9c-0.7-0.3-1.4-0.7-2.1-1c-0.7-0.4-1.4-0.7-2.1-1.1c-1.4-0.8-2.9-1.5-4.3-2.3
				c-2.9-1.7-5.9-3.4-8.8-5.4c-3-1.9-5.8-4.1-8.7-6.2c-2.8-2.2-5.7-4.4-8.4-6.7c-2.8-2.2-5.3-4.6-7.7-7.1c-1.1-1.2-2.2-2.5-3.2-3.8
				c-0.5-0.6-1-1.3-1.5-1.9s-0.9-1.3-1.3-1.9c-0.9-1.3-1.7-2.5-2.5-3.8c-0.8-1.2-1.5-2.5-2.1-3.7c-0.7-1.2-1.3-2.3-1.8-3.4
				s-1-2.2-1.4-3.2s-0.8-2-1.2-2.8c-0.3-0.9-0.6-1.7-0.9-2.5c-0.5-1.5-0.8-2.7-1-3.5s-0.3-1.3-0.3-1.3l0.9-0.5c0,0,0.4,0.3,1,0.9
				s1.5,1.4,2.6,2.5c0.5,0.6,1.1,1.2,1.8,1.8c0.7,0.7,1.4,1.4,2.1,2.1c0.7,0.8,1.5,1.6,2.3,2.5c0.8,0.8,1.7,1.7,2.6,2.7
				c0.9,0.9,1.8,1.9,2.7,2.9c0.9,1,2,2,2.9,3.1c1,1.1,2,2.1,3.1,3.2s2.1,2.3,3.1,3.4c2.2,2.3,4.2,4.9,6.5,7.3c2.2,2.6,4.6,4.9,7,7.3
				c2.5,2.3,5,4.6,7.7,6.7c2.6,2.2,5.3,4.1,7.8,6.1c1.3,0.9,2.6,1.8,3.9,2.7c0.6,0.4,1.3,0.9,1.9,1.3s1.3,0.8,1.9,1.2
				c1.2,0.8,2.5,1.6,3.6,2.3c1.2,0.7,2.4,1.4,3.5,2s2.2,1.3,3.2,1.9c1,0.5,2,1.1,3,1.6c0.9,0.5,1.8,1,2.6,1.4
				c0.8,0.4,1.6,0.8,2.3,1.1c2.8,1.3,4.3,2.1,4.3,2.1L1982.3,2015.1z"/>
		</g>
		<g>
			<path d="M1974.1,2036.1c0,0-2.5-0.9-6.9-2.6c-1.1-0.4-2.3-0.8-3.6-1.4c-1.3-0.6-2.7-1.2-4.2-1.9c-1.5-0.7-3.1-1.4-4.8-2.1
				c-1.6-0.8-3.4-1.7-5.2-2.6c-3.7-1.8-7.5-4-11.5-6.3c-2.1-1.1-4-2.5-6.1-3.8c-1-0.7-2.1-1.3-3.1-2c-0.5-0.3-1.1-0.7-1.6-1
				c-0.5-0.4-1-0.7-1.6-1.1c-2.1-1.5-4.2-3-6.3-4.5c-2.1-1.5-4.2-3.2-6.3-4.9c-1-0.8-2.1-1.7-3.2-2.5c-1-0.9-2-1.8-3.1-2.7
				c-1-0.9-2.1-1.8-3.1-2.7c-1-0.9-2.1-1.8-3-2.7c-2-1.9-4-3.8-6-5.6c-2-1.9-3.8-3.8-5.8-5.7c-0.9-1-1.9-1.9-2.8-2.9s-1.8-2-2.7-3
				c-1.8-2-3.5-3.9-5.1-5.9c-3.1-4.1-6.1-8-8.5-12.1c-1.3-2-2.4-3.9-3.6-5.8c-1-1.9-2.1-3.8-3-5.6c-0.9-1.8-1.9-3.5-2.6-5.2
				c-0.8-1.7-1.5-3.3-2.1-4.9c-0.6-1.5-1.2-3-1.8-4.3c-0.5-1.4-0.9-2.6-1.3-3.7c-0.8-2.3-1.3-4-1.7-5.3c-0.4-1.2-0.6-1.9-0.6-1.9
				l0.9-0.4c0,0,0.4,0.5,1.2,1.5c0.8,1,1.9,2.5,3.3,4.4c0.7,1,1.4,2,2.3,3.1s1.8,2.3,2.8,3.6c1,1.3,2,2.7,3.1,4.2
				c0.5,0.7,1.1,1.5,1.7,2.2c0.6,0.8,1.2,1.5,1.8,2.3c1.2,1.6,2.4,3.2,3.7,5c1.3,1.7,2.7,3.4,4.1,5.2c2.7,3.6,5.8,7.3,8.7,11.2
				c1.5,2,3.1,3.9,4.6,5.9c0.8,1,1.6,2,2.3,3c0.8,1,1.6,2,2.4,3c1.7,2,3.3,4.1,5,6c1.7,2,3.6,3.9,5.3,5.8c0.9,1,1.8,1.9,2.8,2.8
				l2.8,2.8c0.9,0.9,1.9,1.8,2.8,2.8c1,0.9,1.9,1.8,2.9,2.6c1.9,1.7,3.8,3.5,5.8,5.1s3.9,3.2,5.8,4.8c0.5,0.4,1,0.8,1.4,1.2
				c0.5,0.4,1,0.7,1.5,1.1c1,0.7,1.9,1.5,2.9,2.2s1.9,1.4,2.8,2.1s1.9,1.4,2.8,2c3.8,2.6,7.3,5.1,10.7,7.1c1.7,1.1,3.3,2.1,4.9,3
				s3.1,1.7,4.5,2.5s2.7,1.5,4,2.2c1.2,0.7,2.4,1.2,3.5,1.8c4.2,2.1,6.6,3.3,6.6,3.3L1974.1,2036.1z"/>
		</g>
	</g>
	<g>
		<g>
			<path d="M2043.9,1697.6c0,0,1.7,0.1,4.7,0.2c0.7,0,1.6,0.1,2.5,0.1c0.9,0.1,1.9,0.2,2.9,0.3c2.1,0.2,4.5,0.4,7,0.8
				c1.3,0.2,2.6,0.4,4,0.6c1.4,0.3,2.8,0.5,4.2,0.8c2.9,0.5,5.9,1.3,9.1,2.1c1.6,0.4,3.1,0.9,4.8,1.4c0.8,0.2,1.6,0.5,2.4,0.7
				c0.8,0.3,1.6,0.6,2.4,0.8c1.6,0.6,3.3,1.1,4.9,1.7c1.6,0.6,3.2,1.3,4.8,1.9s3.2,1.4,4.8,2.1c0.8,0.3,1.6,0.7,2.4,1
				c0.8,0.4,1.6,0.7,2.3,1.1c1.5,0.8,3.1,1.4,4.6,2.2c1.5,0.8,2.9,1.6,4.3,2.5c1.4,0.8,2.7,1.8,4,2.8s2.5,1.9,3.6,2.9s2.2,2,3.3,2.9
				c1,1,2,2,2.9,2.9c0.9,1,1.7,1.9,2.5,2.8s1.5,1.8,2.1,2.7c0.7,0.8,1.2,1.7,1.8,2.4c0.5,0.8,1,1.5,1.4,2.1c0.8,1.3,1.4,2.4,1.8,3.1
				c0.4,0.7,0.6,1.1,0.6,1.1l-0.7,0.7c0,0-0.4-0.2-1.1-0.6c-0.7-0.4-1.8-1-3.1-1.8s-2.8-1.7-4.6-2.8c-0.9-0.5-1.8-1.1-2.8-1.7
				s-2-1.2-3.1-1.9c-2.1-1.4-4.4-2.7-6.8-4.2c-1.2-0.8-2.4-1.5-3.7-2.3s-2.5-1.7-3.8-2.5s-2.6-1.7-3.9-2.6c-1.3-0.9-2.6-1.8-4-2.7
				c-0.7-0.5-1.4-0.9-2-1.4c-0.7-0.4-1.4-0.9-2.1-1.3c-1.4-0.9-2.8-1.7-4.3-2.5s-2.9-1.5-4.4-2.3s-3-1.4-4.5-2.1
				c-0.7-0.3-1.5-0.7-2.2-1s-1.5-0.6-2.2-0.9c-1.5-0.6-2.9-1.3-4.4-1.8c-2.9-1.1-5.7-2.2-8.5-3.1c-1.4-0.5-2.7-0.9-4-1.3
				s-2.6-0.7-3.8-1.1c-1.2-0.3-2.4-0.7-3.5-1s-2.2-0.5-3.2-0.8c-1-0.2-1.9-0.5-2.8-0.7c-0.9-0.2-1.7-0.4-2.4-0.5
				c-2.9-0.6-4.6-1-4.6-1L2043.9,1697.6z"/>
		</g>
		<g>
			<path d="M2047.7,1676.7c0,0,2.6,0.3,7.1,0.8c1.1,0.1,2.4,0.2,3.7,0.5c1.4,0.2,2.8,0.5,4.4,0.8c1.6,0.3,3.2,0.6,5,0.9
				c1.7,0.4,3.6,0.8,5.5,1.2c1.9,0.4,3.9,0.8,6,1.4c2,0.6,4.2,1.1,6.3,1.7c1.1,0.3,2.2,0.6,3.3,0.9c1.1,0.4,2.2,0.7,3.3,1.1
				c2.2,0.8,4.6,1.4,6.9,2.3c2.3,0.9,4.6,1.8,7,2.7c0.6,0.2,1.2,0.5,1.8,0.7l1.8,0.8c1.2,0.5,2.4,1,3.5,1.6c1.2,0.5,2.4,1.1,3.6,1.6
				c1.2,0.5,2.4,1.1,3.5,1.7c2.3,1.2,4.7,2.3,7.1,3.5c2.3,1.3,4.6,2.6,7,3.8l1.7,0.9l1.7,1c1.1,0.7,2.3,1.3,3.4,2
				c4.6,2.5,8.7,5.5,12.8,8.4c1.9,1.6,3.9,3.1,5.7,4.6c0.9,0.8,1.8,1.5,2.7,2.3c0.8,0.8,1.7,1.6,2.5,2.4c1.7,1.6,3.2,3.1,4.8,4.6
				c1.5,1.6,2.9,3.1,4.2,4.6s2.6,2.9,3.7,4.3c1.1,1.4,2.2,2.8,3.1,4.1c1,1.3,1.9,2.5,2.7,3.6s1.5,2.2,2.1,3.2
				c1.3,1.9,2.2,3.5,2.8,4.6s1,1.6,1,1.6l-0.8,0.6c0,0-0.5-0.4-1.5-1.1s-2.4-1.9-4.2-3.3c-0.9-0.7-1.8-1.5-2.9-2.4
				c-1.1-0.8-2.2-1.8-3.5-2.7c-1.2-1-2.5-2-3.9-3.2c-1.3-1.1-2.8-2.2-4.3-3.4c-1.5-1.2-3.1-2.4-4.7-3.7c-1.6-1.3-3.3-2.5-5.1-3.9
				c-0.9-0.7-1.7-1.4-2.6-2.1c-0.9-0.7-1.8-1.3-2.7-2c-1.9-1.3-3.7-2.8-5.6-4.3c-1.9-1.4-3.9-2.9-5.8-4.4c-1-0.7-1.9-1.5-2.9-2.3
				c-1-0.7-2-1.5-3-2.2s-2-1.5-3-2.2l-1.5-1.1l-1.6-1.1c-2.1-1.4-4.3-2.8-6.4-4.2c-2.2-1.3-4.4-2.6-6.6-3.9
				c-1.1-0.6-2.2-1.3-3.3-1.9s-2.2-1.2-3.4-1.7c-1.1-0.6-2.2-1.2-3.3-1.7l-1.7-0.9l-1.7-0.8c-2.2-1.1-4.4-2.1-6.6-3.1
				c-2.2-1-4.4-1.9-6.5-2.8s-4.2-1.8-6.3-2.5c-2.1-0.8-4.1-1.5-6-2.3c-1.9-0.7-3.9-1.3-5.7-1.9s-3.6-1.1-5.3-1.7
				c-1.7-0.5-3.3-0.9-4.8-1.3s-2.9-0.8-4.2-1.1c-1.3-0.4-2.6-0.6-3.7-0.9c-4.4-1-7-1.6-7-1.6L2047.7,1676.7z"/>
		</g>
	</g>
	<g>
		<g>
			<path d="M2194.7,1910.3c0,0-0.7,1.6-1.8,4.3c-0.3,0.7-0.6,1.4-1,2.3c-0.4,0.8-0.8,1.7-1.3,2.6c-0.9,1.9-1.9,4-3.2,6.3
				c-0.6,1.1-1.3,2.3-2,3.5s-1.5,2.4-2.3,3.7c-1.5,2.6-3.4,5.1-5.2,7.8c-1,1.3-2,2.6-3,4c-0.5,0.7-1,1.3-1.5,2
				c-0.5,0.6-1.1,1.3-1.6,2c-1.1,1.3-2.2,2.7-3.4,3.9c-1.2,1.3-2.3,2.6-3.5,3.8c-1.2,1.3-2.4,2.5-3.6,3.8l-1.8,1.9
				c-0.6,0.6-1.2,1.2-1.9,1.8c-1.3,1.2-2.4,2.4-3.7,3.5s-2.6,2.2-3.9,3.2c-1.3,1-2.7,1.9-4,2.7c-1.3,0.8-2.6,1.7-4,2.3
				c-1.3,0.7-2.6,1.4-3.9,2c-1.3,0.6-2.6,1.1-3.8,1.6s-2.4,1-3.5,1.4s-2.2,0.7-3.3,1c-1,0.3-2,0.6-2.9,0.8c-0.9,0.2-1.7,0.4-2.5,0.5
				c-1.5,0.3-2.7,0.5-3.5,0.6s-1.3,0.2-1.3,0.2l-0.4-0.9c0,0,0.3-0.3,1-0.8c0.6-0.5,1.6-1.3,2.7-2.2c1.2-0.9,2.6-2,4.2-3.3
				c0.8-0.6,1.7-1.3,2.6-2c0.9-0.7,1.8-1.5,2.8-2.2c2-1.5,4.1-3.2,6.4-4.8c1.1-0.8,2.3-1.8,3.4-2.6c1.2-0.9,2.4-1.7,3.6-2.7
				c1.2-0.9,2.5-1.8,3.8-2.7c1.3-0.9,2.6-1.8,3.9-2.8c0.7-0.5,1.3-0.9,2-1.4c0.6-0.5,1.3-1,1.9-1.5c1.3-1,2.6-2,3.8-3.1
				s2.5-2.2,3.7-3.3c1.2-1.1,2.4-2.3,3.6-3.4c0.6-0.6,1.2-1.1,1.8-1.7s1.1-1.2,1.7-1.7c1.1-1.2,2.2-2.3,3.3-3.4
				c2-2.4,4.1-4.6,5.9-6.8c0.9-1.1,1.8-2.2,2.7-3.2c0.8-1.1,1.6-2.1,2.4-3.1c0.7-1,1.5-2,2.2-2.9s1.3-1.8,1.9-2.7
				c0.6-0.8,1.1-1.6,1.6-2.4s0.9-1.4,1.3-2.1c1.6-2.5,2.5-3.9,2.5-3.9L2194.7,1910.3z"/>
		</g>
		<g>
			<path d="M2212.8,1921.2c0,0-1.2,2.3-3.3,6.3c-0.5,1-1.1,2.1-1.8,3.3c-0.7,1.2-1.5,2.5-2.3,3.8c-0.8,1.4-1.7,2.8-2.6,4.4
				c-1,1.5-2,3.1-3.1,4.7s-2.2,3.4-3.4,5.1s-2.5,3.5-3.9,5.3c-0.7,0.9-1.3,1.9-2,2.8s-1.5,1.8-2.2,2.7c-1.5,1.8-3,3.8-4.6,5.6
				c-1.6,1.8-3.3,3.7-5,5.6l-1.3,1.4l-1.3,1.4c-0.9,0.9-1.8,1.8-2.7,2.8c-0.9,0.9-1.8,1.8-2.7,2.8c-0.9,0.9-1.9,1.8-2.9,2.7
				c-1.9,1.8-3.8,3.6-5.8,5.3c-2,1.7-4,3.4-6,5.1l-1.5,1.3l-1.5,1.2c-1,0.8-2,1.6-3.1,2.5c-4,3.4-8.3,6.2-12.4,9
				c-2.1,1.2-4.2,2.5-6.3,3.7c-1,0.6-2.1,1.1-3.1,1.7c-1.1,0.5-2.1,1-3.1,1.5c-2,1-4.1,1.9-6,2.8c-2,0.8-3.9,1.6-5.8,2.3
				c-1.9,0.7-3.6,1.4-5.3,2c-1.7,0.5-3.4,1.1-4.9,1.5s-3,0.9-4.3,1.2c-1.4,0.3-2.6,0.6-3.7,0.8c-2.3,0.5-4.1,0.8-5.3,1
				s-1.9,0.3-1.9,0.3l-0.3-0.9c0,0,0.6-0.4,1.6-1c1.1-0.7,2.6-1.6,4.6-2.7c1-0.6,2.1-1.2,3.3-1.9c1.2-0.7,2.4-1.5,3.8-2.3
				c1.3-0.8,2.8-1.6,4.3-2.5s3.1-1.9,4.7-2.8c1.7-1,3.4-2,5.2-3c1.8-1.1,3.6-2.2,5.4-3.3c0.9-0.6,1.9-1.1,2.8-1.7
				c0.9-0.6,1.9-1.2,2.9-1.8c1.9-1.3,3.9-2.4,6-3.7c2-1.3,4-2.6,6.1-3.8c1-0.6,2.1-1.2,3.2-1.9c1-0.7,2.1-1.4,3.1-2
				c1.1-0.7,2.1-1.4,3.2-2l1.6-1l1.5-1.1c2.1-1.5,4.1-3,6.2-4.5c2-1.6,4-3.2,6-4.8c1-0.8,2-1.6,2.9-2.4s1.9-1.7,2.8-2.5
				c0.9-0.8,1.9-1.7,2.8-2.5l1.4-1.2l1.3-1.3c1.8-1.7,3.5-3.4,5.3-5.1c1.7-1.7,3.3-3.4,4.9-5.1c1.6-1.7,3.2-3.3,4.6-5
				c1.5-1.7,2.9-3.3,4.2-4.8c1.4-1.6,2.6-3.2,3.8-4.7s2.4-3,3.5-4.3c1-1.4,2-2.8,2.9-4c0.9-1.3,1.8-2.5,2.6-3.6s1.5-2.2,2.1-3.1
				c2.5-3.8,4-5.9,4-5.9L2212.8,1921.2z"/>
		</g>
	</g>
</g>
<g>
	<path class="st2" d="M567.3,2592.9l119-371.9l224-237.7l65-354.3l266,92.1l235-15.1l133,361l219,165l130,373.9
		c0,0-307,208.1-702,208.1c-74.1,0-144.6-6.7-210.3-17.6C761.4,2749.1,567.3,2592.9,567.3,2592.9z"/>
	<g>
		<polyline class="st3" points="686.3,2221 837.3,2274 1046.1,2796.4 1127.3,2035.6 910.3,1983.3 		"/>
		<line class="st3" x1="1609.3" y1="2067" x2="1046.1" y2="2796.4"/>
		<polyline class="st4" points="1828.3,2232 1407.3,2328.4 1732.4,2724.8 		"/>
		<polyline class="st4" points="1407.3,2328.4 1241.3,1721.1 1127.3,2035.6 837.3,2274 		"/>
	</g>
</g>
<path class="st5" d="M21.4,22.2v1551.6c0,685.8,555.5,1241.3,1241.3,1241.3S2504,2259.6,2504,1573.8V22.2H21.4z"/>
<g>
	<g>
		<g>
			<path class="st6" d="M1203.4,1556.5l-48,76.7l-189.7,50.9L911,1562.6c0,0,1.1-25.9,71.3-0.5c78.6,28.4,136.3,22.5,149.2,10.3
				c15.9-15.1,12.9-73.5-10.9-123.7l76.8-31.4"/>
			<path class="st6" d="M933.9,1565.1c-19.7-15.7-37.6-46.9-69.9-22c-32.2,24.8-4.3,50.3-4.3,50.3l54.6,49.8"/>
			<path class="st6" d="M920,1673.6c-28.8,2.4-74.3-12.8-80-51c-6.9-46.4,22.3-51,37.2-47c12.4,3.3,24.4,20.4,16,48.6
				C884.8,1652.4,920,1673.6,920,1673.6z"/>
			<path class="st6" d="M968,1617.7c0,0-26.9-49-70.5-21.1c-43.5,27.9,7.1,58.3,7.1,58.3l46.2,30.5"/>
			<path class="st6" d="M982.1,1722.9c-28,7-75.4-0.7-87.1-37.6c-14.2-44.7,13.9-53.9,29.2-52.4c12.7,1.3,27.4,16.2,23.6,45.4
				S982.1,1722.9,982.1,1722.9z"/>
			<path class="st6" d="M1138.7,1617.2c0,0-109.2,39-141.3,40.9l-2-0.2c-23.1-26.5-58.7-13.8-63.9,10.8c-5.9,28.1,61.3,70,84.3,58.9
				s18.5-25,18.5-25s56.8-38,145.5-57.8c88.7-19.9,136.7,52.9,136.7,52.9s19.9-45.7-44.6-77.1c-24.2-11.8-52.6-11.6-52.6-11.6
				l-17.4-184.4"/>
			<path class="st6" d="M1028.7,1777.1c-28,7-75.4-0.7-87.1-37.6c-14.2-44.7,13.9-53.9,29.2-52.4c12.7,1.3,27.4,16.2,23.6,45.4
				C990.5,1761.8,1028.7,1777.1,1028.7,1777.1z"/>
			<path class="st6" d="M995.4,1658c3.3,3.8,6.4,8.5,9.1,14"/>
			<path class="st6" d="M1126.6,1599.6c-38.8,13.2-71.6,13-177.8-3.1"/>
		</g>
		<path class="st7" d="M1081.3,1321c47,106,39,166-48,166c0,0,67,73,133-33c0,0,14.8,55.5,105.3,61c-1.8-7.7-83-25.5-62.3-144"/>
	</g>
	<g>
		<path class="st6" d="M1422.7,1640l-41.3,80.5l-184.7,66.8l-64.8-116.3c0,0,4.5-40.5,71-6.6s134.5,13.6,149.5-2.4
			s-27-83.5-55-131.5l34-86.5l38,43"/>
		<path class="st6" d="M1154.8,1671.5c-21-14-41.5-43.5-71.5-16s0,50.5,0,50.5l58.7,45"/>
		<path class="st6" d="M1150.3,1780.8c-28.5,4.8-75.1-6.4-84-44c-10.8-45.7,17.9-52.7,33.1-50c12.6,2.2,26.1,18.2,20.1,47.1
			C1113.4,1762.7,1150.3,1780.8,1150.3,1780.8z"/>
		<path class="st6" d="M1193.3,1721c0,0-31-46.5-72-15s12,57.5,12,57.5l48.7,26.5"/>
		<path class="st6" d="M1216.3,1824.7c-27.3,9.3-75.2,5.7-90-30c-18-43.3,9.2-54.9,24.7-54.7c12.8,0.2,28.7,13.8,27.3,43.2
			C1177,1812.7,1216.3,1824.7,1216.3,1824.7z"/>
		<path class="st6" d="M1363.3,1706c0,0-105.5,48.1-137.3,52.8h-2c-25.3-24.5-59.7-8.7-62.7,16.2c-3.5,28.5,67,64.5,89,51.5
			s16.3-26.5,16.3-26.5s53.3-42.7,140-70s140.7,41.1,140.7,41.1s15-45-51-73s-89.7-12.5-89.7-12.5s13.2-12,28.2-35
			s-58.5-151-58.5-151"/>
		<path class="st6" d="M1267.3,1874.7c-27.3,9.3-75.2,5.7-90-30c-18-43.3,9.2-54.9,24.7-54.7c12.8,0.2,28.7,13.8,27.3,43.2
			C1228,1862.7,1267.3,1874.7,1267.3,1874.7z"/>
		<path class="st6" d="M1224.1,1758.8c3.6,3.5,7.1,7.9,10.3,13.2"/>
		<path class="st6" d="M1349.8,1689.5c-37.5,16.5-70.3,19.1-177.4,12"/>
	</g>
	<g>
		<path class="st7" d="M844.2,706.7c0,0-219.2,117.3-247,185.3s-83.7,136.2-157.2,92c-36.6-22-17.6-111-17.6-111s-97,87-3,165
			s150.3-15,150.3-15s-4.1,146-117.3,107.7c-23.6-8-74-85.2-74-85.2s-3,122,94,156.5s126.5-40,128-99.5c0,0,26.7,147.5-52.3,171.5
			s-71.3-58.7-115.6-62.3c29.3,36.5,0,158.3,181.9,122.3c95.5-18.9,59.7-152,59.7-152s84.7,148,27.3,184.7
			c-57.3,36.7-124.7,28.7-124.7,28.7s135.3,96,206,10S772,1256.7,772,1256.7s152,102,23.1,179.7c39.3-1.1,66.2,7,138.2-62.4
			s336.7-35.4,336.7,120c0,85-46,111.3-46,111.3s84-5.3,99.3-108c0,0,110.7,52,168,8c0,0-144.7,2-145.3-109.3
			c-0.7-111.3,129.3-125.3,129.3-50.7c0,25.4-42.7,21.3-42.7,21.3s10.8,41.8,61.5,41.8s64.9-25.1,65.2-53.8
			c0.3-27.6-31.3-59.3-58-89.3c-31.4-35.2-58.7-66.7-58.7-66.7s44.7,58.7,142.7,102.7s36,132-5.3,127.3s-63.3-19.3-68.7-11.3
			c-5.3,8,97.3,79.3,175.3,26s52.7-122,0-158s-210-45.3-246-140c0,0,36.7,74.7,199.7,78.7s197,99,197,125
			c0,24.7-38.8,143.4-177.5,110.4l-10,3.6c13.2,8.3,37.3,19.3,67.5,19.9c73.7,1.6,192.6-36.9,203-172c7-91-91-158-274-138
			c-106.4,11.6-173.6-27.8-211.2-62.8c0,0,95.2,78.8,290.2,24.8s257,103,236,157c-18,46.3-39.4,104.6-82.9,125.3l-23.1,24.4
			c47.3-9.8,144.7-67.1,159-138.3c19.8-98.3-0.5-279.5-201-263s-265.7,108.2-381.2,31.7c182.7,74.5,263.7-89.9,440.5-92.2
			c117.7-1.5,246.8,154.6,147.7,294l-3,31c0,0,184-159,20-352s-355.3-3.7-389,26c-32.7,28.8-153,98-214,68c0,0,55,0,115-25
			c53-22.1,104.8-72.1,132-120c50.8-89.3,40-80,124-74s271,74,273-168c0,0,3.9-38.6-6.7-11c-21.5,55.8-62.6,125.1-160.3,112
			c-217-29-199.6-56.4-249,37c-45,85-121,199-239,231c0,0,162-91,205-244s55-130,139-107s173,60,261,4s93-175,86-199
			c0,0-25,169-216,147s-139-78-248-64S1605,894.3,1402,1016.3c53.5-50.1,100.6-110.1,114-177.2c29.9-149.7-15.9-311.5,86.3-325.3
			c148-20,302,155,454,19s74-232,74-232s32.9,196.8-182,190c-190-6-421.8-228.3-499,58c-38,141,84.3,305.9-72,453
			c188-178-113.6-473.6,128-634.2c195.1-129.6,362,226.2,676-27.8c98.1-79.4,98.8-146.4,53.3-201.1
			c42.7,91.1-97.3,227.1-321.3,165.1c-94.4-26.1-167-76.2-292-91.9c-171.7-21.7-352,155.7-332,295.3
			c23.7,165.6,176,474.6,31.7,500.6c-235.3,42.4-283.3-328-283.3-328L844.2,706.7z"/>
		<path class="st7" d="M2118,463.5c64.7-98.1,12.3-162.5,12.3-162.5s15.6,93-44.6,148.9"/>
	</g>
	<g>
		<path class="st7" d="M235,260.6c0,0,84-57,84,22.5c0,53.8-120,90.3-120,169.5c0,147.9,264.9,18.5,324,18.5
			c94.5,0,136.5,50.5,136.5,50.5v-31.5c0,0-72-57-162-57s-171,42-196.5-12s64.5-70.5,64.5-145.5c0-64.2-53.9-71.6-88.6-57.6
			C246.6,230.3,235,260.6,235,260.6z"/>
		<path class="st6" d="M440,412.6c0,0,24.5-96.5,206-128s117,445.5-60,447s-60-115.5,18-117s79.5-69,79.5-69s-144-31.5-168,25.5
			c0,0-17.6-63.7,61.2-67.5c76.2-3.6,68.3,0,71.7-13.7c3.3-13.7-14.7-94.2-115.7-96.3C476.9,392.5,440,412.6,440,412.6z"/>
		<path class="st6" d="M706,282.7c19.3-26.7-32-73.3-15.3-94s56,17.3,74,12.7c18-4.7-4-43.3,28.7-49.3s52.7,63.3,78.7,62
			s53.3-64.7,78.7-42.7c25.3,22-19.3,58.7-5.3,72.7s46.7,0.7,62-24.7C1022.7,194,1020,188,1034,186s45.1,23.5,35.3,62
			c-7.9,31.2-20.2,50.2-20.2,50.2s23.6,6.4,46.9-26.2c23.3-32.7,48-48.7,63.3-22.7s-22,21.3-16,58.7s-5.3,92.7-67.3,96
			s-182.7-11.3-182.7-11.3L706,282.7z"/>
		<path class="st7" d="M706,282.7c58,3.3,232.3,32.3,280.3,121.8c48,89.5,58,85.5,74,76.5s1-43.7,17-41s30,89.3-28,96.7
			C991.3,544,976,418.8,916,410.4c60.7,8.3,62,165,136.7,165s6.7-63.3,74.7-76.7c-25.1,14.8,24.6,121-51.3,137.3
			c-82.2,17.6-120-117.3-120-117.3s34.7,176.7,140.7,156.7c58.3-11,6.4-86.9,72-79.3c-38.4,30,28.7,148.7-39.3,146.7
			s-130.7-47.3-154.7-102c28,58,70,166.7,158,156.7s5.3-97.3,86-106.7c-53.6,8.4,56.5,137.4-36.7,170
			c-121.7,42.5-217.8-161.6-210-165.3c0,0,35.3,220,136.7,219.3c101.3-0.7,107.3-78,148.7-6c-64.7-47.3-114,108-210.7,54.7
			C966,918.8,922,782.7,922,782.7s-8.7,147.3,40.7,194.7c49.3,47.3,74.7,61.3,72.7,98c-20-42-149.3-54-168-121.3s-22.7-120-22.7-120
			s16,103.3-36.7,156.7c-52.7,53.3,6,140,6,140s-56-38.7-54-134S756.7,858,756.7,858s15.3,84.7-58,150.7s-63.3,37.3-63.3,37.3
			s26-14.7,30-79.3s5.1-92.8,26-122.7c-30.7,42-78.7,96.7-159.3,91.3c-188.1-12.4-52-154-52-154s-26.9,111.1,44.7,90
			c79.3-23.3,86.9-57.9,86.9-57.9s-28.2,31.9-74.2,19.2c-69.7-19.2-22-106-15.3-96.7s-0.7,71.3,60.7,46c73.1-30.2,126-112,130-213.3
			S656,432,655.3,375.3C654.7,317.3,706,282.7,706,282.7z"/>
		<path class="st7" d="M706,282.7c0,0-75.5-11.5-92,21.3s4.7,52,43.8,48.3c13.6-1.3,27.7-5.5,43.4-9.4C730.6,335.5,766,329,816,344
			c79.3,23.8,20,144-43.3,125.3"/>
		<g>
			<path d="M701.2,342.9c15.8-4.1,30.1,8.5,36.8,33.2c0,0,72.5-34.6,43.8-39.5C753,331.7,701.2,342.9,701.2,342.9z"/>
			<ellipse class="st8" cx="781.8" cy="390.4" rx="63.1" ry="51.6"/>
			<path d="M772,382.7l51.1,42.3c-8,6.4-18.1,10.2-29.1,10.2c-25.7,0-46.5-20.8-46.5-46.5s20.8-46.5,46.5-46.5
				c21.3,0,44.6,20.9,50.2,40.5H772z"/>
		</g>
		<path class="st7" d="M657.9,352.3c12.5-33.9,50.8-68.3,50.8-68.3"/>
	</g>
	<path class="st9" d="M1344.4,1000.1c-94.1,61.9-177.1,50.9-210.1,35.9s-111-51-111-51s86.2,45.7,139,122c18,26,60,48,88,49
		c-82-25.3-100,34-197,0s-144-119-165-103s77,160,198,170c-38.1-7.6-90,47-247-16s-133-132-133-132s-23.6,40-1.3,95"/>
</g>
</svg>
