<svg xmlns="http://www.w3.org/2000/svg" width="568" height="720" viewBox="4.061 -100.531 568 720" xml:space="preserve"><path d="M23.32 331.168v-410h548v410c0 200-144 290-274 290s-274-90-274-290z" style="fill:#0f47af;stroke:#000;stroke-width:18;stroke-linecap:round;stroke-linejoin:round;stroke-miterlimit:4;stroke-dasharray:none;stroke-opacity:1" transform="translate(-9.259 -11.699)"/><path style="fill:#fff;stroke:#000;stroke-width:5;stroke-linecap:round;stroke-linejoin:round;stroke-miterlimit:4;stroke-dasharray:none;stroke-opacity:1" d="M467.32 511.168v-17h-10v-105h10v-20l-90-35v-23c-17.764-20.391-50.503-38-80-38s-62.236 17.609-80 38v23l-90 35v20h10v105h-10v17z" transform="translate(-9.259 -11.699)"/><path d="M262.82 493.168v-58c0-44 69-44 69 0v58" style="fill:#0f47af;stroke:#000;stroke-width:5;stroke-linecap:round;stroke-linejoin:round;stroke-miterlimit:4;stroke-dasharray:none;stroke-opacity:1" transform="translate(-9.259 -11.699)"/><path d="M355.32 389.168v105m18-105v105m67-105v105m-200-105v105m-18-105v105m-67-105v105m-28-125h340m-250-58h160m-160 23h160m-240 55h320m-320 105h320" style="fill:none;stroke:#000;stroke-width:5;stroke-linecap:round;stroke-linejoin:round;stroke-miterlimit:4;stroke-dasharray:none;stroke-opacity:1" transform="translate(-9.259 -11.699)"/><path style="fill:#fcdd09;stroke:#000;stroke-width:5;stroke-linecap:round;stroke-linejoin:round;stroke-miterlimit:4;stroke-dasharray:none;stroke-opacity:1" d="M103.812 29.922c19.503 35.847 36.98 69.167 63.605 98.91 10.412 1.404 18.288 6.434 21.48 18.153 59.408 35.308 117.3 28.165 174.65 5.907-.244-12.844 9.925-20.954 21.619-19.786 8.92-26.608 14.676-51.242 14.317-78.88-9.308-9.55-11.307-22.276-3.289-29.824 12.931-12.172 32.79-17.815 69.03-11.924 24.055 3.91 51.769 13.046 59.448 30.598 5.395 12.33-1.203 24.394-14.88 30.376-19.232 33.665-48.27 74.754-79.871 108.93 1.283 10.686-12.021 22.972-23.568 19.732-28.65 23.729-70.665 37.962-116.741 37.175-51.478-.879-94.404-23.922-131.38-59.259-13.126 1.793-22.008-6.966-20.079-20.882-25.476-33.213-56.949-94.534-62.869-117.85-5.319.345-14.472-9.818 6.057-21.79 15.536-9.06 28.209-2.974 22.47 10.414Z" transform="translate(-9.498 -11.699)"/><path style="fill:none;stroke:#000;stroke-width:5;stroke-linecap:butt;stroke-linejoin:miter;stroke-miterlimit:4;stroke-dasharray:none;stroke-opacity:1" d="M396.194 24.402c14.7 46.588 121.374 46.34 128.478 18.674m-125.19 11.15c31.977 24.384 75.927 26.826 110.31 19.226m-146.244 79.44c12.754 19.435 26.95 35.987 42.805 49.222m-21.187-69.008c14.918 14.37 29.836 29.783 44.755 49.277m-241.023-35.398c-7.756 13.481-17.745 24.729-30.665 33.045m9.184-51.199c-12.344 9.935-20.607 17.735-29.264 30.317M75.284 41.298c8.74.182 20.984-3.07 28.528-11.376" transform="translate(-9.498 -11.699)"/><path style="fill:#fcdd09;stroke:#000;stroke-width:5;stroke-linecap:round;stroke-linejoin:round;stroke-miterlimit:4;stroke-dasharray:none;stroke-opacity:1" d="M161.804 122.304c7.768-7.733 18.069-13.44 31.189-6.968l62.59-70.147 7.17 7.557-63.172 70.34c6.717 9.865 1.85 19-3.574 27.927l-7.11-4.028c6.226-8.221 6.626-18.605.802-23.704-5.825-5.1-14.81-1.394-22.282 5.55zM388.045 124.216c-5.604-5.682-14.239-13.001-27.799-7.51l-57.27-74.554-7.705 7.01 57.835 74.79c-8.43 9.957-3.312 23.003 1.441 32.303l9-3.363c-6.563-9.067-8.385-21.833-1.284-27.2 7.102-5.365 15.96-.06 22.903 7.414z" transform="translate(-9.498 -11.699)"/><g transform="translate(-9.259 -11.699)"><circle style="opacity:1;fill:#000;fill-opacity:1;stroke:none;stroke-width:1;stroke-linecap:round;stroke-linejoin:round;stroke-miterlimit:4;stroke-dasharray:none;stroke-opacity:1" cx="291.561" cy="10.668" r="36.5"/><circle cy="12.468" cx="291.361" style="opacity:1;fill:#fcdd09;fill-opacity:1;stroke:#000;stroke-width:3;stroke-linecap:round;stroke-linejoin:round;stroke-miterlimit:4;stroke-dasharray:none;stroke-opacity:1" r="18.5"/><path d="M270.061-23.832c-2-10 9-16 21.5-16s23.5 6 21.5 16-10 17-21.5 17-19.5-7-21.5-17zM319.63-19.059c8.893-4.992 17.999 3.615 21.861 15.504 3.863 11.888 1.556 24.204-8.573 25.392-10.128 1.188-19.258-4.258-22.811-15.195-3.554-10.937.631-20.709 9.524-25.7zM330.409 29.56c7.496 6.914 2.123 18.234-7.99 25.581-10.112 7.348-22.538 8.96-26.798-.307-4.26-9.265-1.902-19.63 7.402-26.39 9.304-6.76 19.89-5.799 27.386 1.116zM287.5 54.834c-4.26 9.266-16.685 7.655-26.798.307-10.112-7.347-15.485-18.667-7.989-25.581 7.496-6.915 18.082-7.876 27.386-1.116 9.304 6.76 11.662 17.125 7.402 26.39zM250.204 21.837c-10.129-1.188-12.436-13.504-8.573-25.392 3.862-11.889 12.968-20.496 21.86-15.504 8.893 4.992 13.078 14.764 9.524 25.701-3.553 10.937-12.683 16.383-22.811 15.195Z" style="fill:#da121a;stroke:#000;stroke-width:4;stroke-linecap:round;stroke-linejoin:round;stroke-miterlimit:4;stroke-dasharray:none;stroke-opacity:1"/></g></svg>