<svg xmlns="http://www.w3.org/2000/svg" viewBox="0 0 977.12 1127.16" xmlns:xlink="http://www.w3.org/1999/xlink"><defs><path id="0" d="m-461.28 555.2h39.623" stroke="#000" fill="#fff" stroke-linecap="round"/><path id="1" d="m-441.46 535.39v39.623" stroke="#000" stroke-width="9.371" fill="#fff" stroke-linecap="round"/></defs><g transform="translate(37.818 23.08)"><path d="m449.34-13.08c-1.378.001-2.691.097-3.938.25-.05.001-.106-.001-.156 0-55.977 1.762-122.86 3.98-183.72 10.562-71.934 7.78-143.13 21.468-214.34 34.28-25.1 4.516-75 15-75 15 0 0 4.992 48.17 6.781 72.31 3.067 41.38 4.253 82.9 6.781 124.31 3.405 55.766 7.908 111.48 11.313 167.25 2.529 41.41 3.908 82.89 6.781 124.28 4.346 62.59 5.02 125.75 15.781 187.56 6.02 34.562 14.407 68.961 27.13 101.66 15.355 39.473 33.478 78.74 58.844 112.66 18.288 24.456 41.64 45.05 65.875 63.62 27.747 21.272 57.967 39.816 89.94 53.969 33.818 14.97 69.927 25.08 106.25 32.09 27.334 5.278 55.35 7.249 83.19 7.344 27.662.094 55.55-1.529 82.72-6.75 36.46-7.01 72.55-17.63 106.47-32.75 31.934-14.235 62.22-32.697 89.97-53.969 24.24-18.58 47.587-39.17 65.875-63.62 25.365-33.919 43.489-73.15 58.844-112.62 12.718-32.695 21.11-67.16 27.12-101.72 10.762-61.814 11.467-124.97 15.813-187.56 2.874-41.39 4.253-82.87 6.781-124.28 3.405-55.766 7.877-111.45 11.281-167.22 2.529-41.41 3.746-82.903 6.813-124.28 1.79-24.14 6.781-72.31 6.781-72.31 0 0-49.933-10.484-75.03-15-71.21-12.813-142.41-26.532-214.34-34.31-61.44-6.645-129.02-8.855-185.31-10.625-.906-.069-1.841-.098-2.813-.094-.081 0-.169 0-.25 0-.753-.039-1.502-.034-2.219-.031" fill="#fff"/><g stroke="#000"><g stroke-linecap="round" stroke-width="5"><path d="m450.77 324.36c-18.06 43.498-41.27 83.84-68.74 120.1v255.39h-347.25c.018.13.042.259.06.389.24 1.759.493 3.506.747 5.262.014.099.016.2.03.299.26 1.786.531 3.568.807 5.352.011.07.019.14.03.209.573 3.696 1.181 7.401 1.824 11.09.36 2.067.728 4.124 1.106 6.189.002.001-.002.02 0 .03.376 2.055.771 4.106 1.166 6.159.002.001-.002.02 0 .03.395 2.053.811 4.109 1.226 6.159.002.001-.002.02 0 .03 1.25 6.17 2.591 12.317 4.04 18.447.002.001-.002.02 0 .03 1.446 6.13 2.998 12.257 4.664 18.328 2.226 8.106 4.655 16.14 7.325 24.1.003.009-.003.021 0 .03.665 1.981 1.369 3.95 2.063 5.92.003.009-.003.021 0 .03.695 1.97 1.397 3.931 2.123 5.89.003.009-.003.021 0 .03.726 1.959 1.485 3.914 2.242 5.86 1.108 2.849 2.238 5.706 3.379 8.551.148.369.3.737.448 1.106 1.015 2.523 2.036 5.05 3.08 7.564.05.12.1.239.149.359h310.74v165.82 68.74.778c22.716 3.634 45.835 5.03 68.827 5.112 22.896.077 45.956-1.059 68.59-4.604v-1.286-68.74-165.82h310.74c.099-.239.2-.479.299-.718.38-.917.759-1.832 1.136-2.751.726-1.773 1.44-3.546 2.153-5.322 1.182-2.936 2.354-5.88 3.498-8.82 3.799-9.766 7.207-19.701 10.255-29.749.003-.001-.003-.021 0-.03 2.438-8.04 4.644-16.15 6.667-24.307.002-.001-.002-.02 0-.03.504-2.033 1.014-4.061 1.495-6.099.002-.001-.002-.02 0-.03.48-2.039.947-4.085 1.405-6.129.002-.001-.002-.02 0-.03.458-2.044.909-4.081 1.345-6.129.002-.001-.002-.02 0-.03.436-2.048.87-4.108 1.286-6.159.002-.001-.002-.02 0-.03.415-2.051.831-4.105 1.226-6.159.002-.001-.002-.02 0-.03.395-2.054.79-4.103 1.166-6.159.002-.001-.002-.02 0-.03.378-2.066.746-4.122 1.106-6.189.321-1.842.625-3.688.927-5.531.005-.031.025-.059.03-.09.298-1.823.586-3.646.867-5.471.008-.05.022-.099.03-.149.277-1.806.546-3.603.807-5.412.024-.169.035-.339.06-.508.242-1.681.488-3.369.718-5.05.014-.099.016-.2.03-.299h-347.25v-255.45c-27.442-36.24-50.624-76.57-68.68-120.04z" stroke-linejoin="round"/><path d="m450.75-13.06v319.69c77.46 186.54 245.12 317.72 441.22 325.22 2.172-32.23 3.453-64.59 5.688-96.78 2.874-41.39 4.253-82.87 6.781-124.28 3.405-55.766 7.877-111.45 11.281-167.22 2.529-41.41 3.746-82.903 6.813-124.28 1.79-24.14 6.781-72.31 6.781-72.31 0 0-49.933-10.484-75.03-15-71.21-12.813-142.41-26.532-214.34-34.31-61.44-6.645-129.02-8.855-185.31-10.625-.906-.069-1.841-.098-2.813-.094h-.25c-.276-.014-.539.005-.813 0z" fill="#0f47af"/><path d="m449.34-13.09c-1.378.001-2.691.097-3.938.25-.05.001-.106-.001-.156 0-55.977 1.762-122.86 3.98-183.72 10.563-71.934 7.78-143.13 21.468-214.34 34.28-25.1 4.516-75 15-75 15 0 0 4.992 48.17 6.781 72.31 3.067 41.38 4.253 82.9 6.781 124.31 3.405 55.766 7.908 111.48 11.313 167.25 2.529 41.41 3.908 82.89 6.781 124.28 2.233 32.16 3.496 64.49 5.656 96.69 196.1-7.499 363.79-138.68 441.25-325.22v-319.69c-.473-.008-.952-.033-1.406-.031z" fill="#da121a"/></g><path d="m449.34-13.08c-1.378.001-2.691.097-3.938.25-.05.001-.106-.001-.156 0-55.977 1.762-122.86 3.98-183.72 10.563-71.934 7.78-143.13 21.468-214.34 34.28-25.1 4.516-75 15-75 15 0 0 4.992 48.17 6.781 72.31 3.067 41.38 4.253 82.9 6.781 124.31 3.405 55.766 7.908 111.48 11.312 167.25 2.529 41.41 3.908 82.89 6.781 124.28 4.346 62.59 5.02 125.75 15.781 187.56 6.02 34.562 14.407 68.961 27.12 101.66 15.355 39.473 33.478 78.74 58.844 112.66 18.288 24.456 41.64 45.05 65.875 63.63 27.747 21.272 57.967 39.816 89.94 53.969 33.818 14.97 69.927 25.08 106.25 32.09 27.334 5.278 55.35 7.249 83.19 7.344 27.662.094 55.55-1.529 82.72-6.75 36.46-7.01 72.55-17.63 106.47-32.75 31.934-14.235 62.22-32.697 89.97-53.969 24.24-18.58 47.587-39.17 65.875-63.63 25.365-33.919 43.489-73.15 58.844-112.62 12.718-32.695 21.11-67.16 27.12-101.72 10.762-61.814 11.467-124.97 15.813-187.56 2.874-41.39 4.253-82.87 6.781-124.28 3.405-55.766 7.877-111.45 11.281-167.22 2.529-41.41 3.746-82.903 6.813-124.28 1.79-24.14 6.781-72.31 6.781-72.31 0 0-49.933-10.484-75.03-15-71.21-12.813-142.41-26.532-214.34-34.31-61.44-6.645-129.02-8.855-185.31-10.625-.906-.069-1.841-.098-2.813-.094-.081 0-.169 0-.25 0-.753-.039-1.502-.034-2.219-.031z" fill="none" stroke-width="20"/></g><g font-family="Sans" text-anchor="middle" text-align="center" word-spacing="0" line-height="125%" letter-spacing="0"><text x="552.97" y="1028.53" transform="matrix(.9907.1361-.1361.9907 0 0)" fill="#0e0406" font-size="5.695"><tspan x="552.97" y="1028.53">Christian Duscha</tspan></text><text x="257.7" y="1188.51" transform="matrix(.96906-.24682.24682.96906 0 0)" fill="#140406" font-size="3.963"><tspan x="257.7" y="1188.51">Gleiwitz-Essen-Landshut</tspan></text></g><g transform="translate(6.491)" fill="#fcdd09"><path d="m426.17 494.17h36.17v253.22h-36.17z"/><rect rx="9.221" y="470.41" x="410.74" height="23.761" width="67.03"/><path d="m435.05 351.61c-2.672 5.826-5.763 11.54-7.469 17.719-1.811 6.561-2.942 13.415-2.844 20.22.091 6.354 1.576 12.673 3.219 18.813.88 3.288 2.457 6.333 3.531 9.563 1.711 5.147 4.625 15.594 4.625 15.594 0 0-4.713-8.74-8.531-11.688-2.311-1.784-5.239-3.079-8.156-3.188-3.214-.12-6.566 1.025-9.219 2.844-4.096 2.808-7.112 7.19-9.219 11.688-1.692 3.611-2.54 7.731-2.469 11.719.079 4.386.593 9.213 3.188 12.75 2.543 3.466 11 6.75 11 6.75 0 0-1.571-7.477 0-10.656 1.121-2.268 3.572-3.923 6-4.594 2.992-.826 6.389-.14 9.25 1.063 2.943 1.237 5.103 3.855 7.438 6.03 3.17 2.955 8.875 9.5 8.875 9.5 0 0 5.682-6.547 8.844-9.5 2.333-2.179 4.495-4.794 7.438-6.03 2.851-1.199 6.236-1.882 9.219-1.063 2.437.669 4.91 2.326 6.03 4.594 1.571 3.179 0 10.656 0 10.656 0 0 8.457-3.284 11-6.75 2.595-3.537 3.109-8.364 3.188-12.75.072-3.987-.777-8.108-2.469-11.719-2.107-4.497-5.123-8.879-9.219-11.688-2.652-1.818-6.01-2.963-9.219-2.844-2.918.109-5.845 1.403-8.156 3.188-3.818 2.948-8.531 11.688-8.531 11.688 0 0 2.914-10.447 4.625-15.594 1.074-3.23 2.651-6.274 3.531-9.563 1.643-6.139 3.127-12.458 3.219-18.813.098-6.804-1.033-13.658-2.844-20.22-1.705-6.178-4.801-11.891-7.469-17.719-2.873-6.278-9.188-18.563-9.188-18.563 0 0-6.339 12.283-9.219 18.563"/><g transform="scale(1-1)"><path d="m426.17-907.93h36.17v253.22h-36.17z"/><rect rx="9.221" y="-931.69" x="410.74" height="23.761" width="67.03"/></g><path d="m435.05 1050.5c-2.672-5.826-5.763-11.54-7.469-17.719-1.811-6.561-2.942-13.415-2.844-20.22.091-6.355 1.576-12.673 3.219-18.812.88-3.288 2.457-6.333 3.531-9.563 1.711-5.147 4.625-15.594 4.625-15.594 0 0-4.713 8.74-8.531 11.688-2.311 1.784-5.239 3.079-8.156 3.188-3.214.12-6.566-1.025-9.219-2.844-4.096-2.808-7.112-7.19-9.219-11.688-1.692-3.611-2.54-7.731-2.469-11.719.079-4.386.593-9.213 3.188-12.75 2.543-3.466 11-6.75 11-6.75 0 0-1.571 7.477 0 10.656 1.121 2.268 3.572 3.923 6 4.594 2.992.826 6.389.14 9.25-1.063 2.943-1.237 5.103-3.855 7.438-6.03 3.17-2.955 8.875-9.5 8.875-9.5 0 0 5.682 6.547 8.844 9.5 2.333 2.179 4.495 4.794 7.438 6.03 2.851 1.199 6.236 1.882 9.219 1.063 2.437-.669 4.91-2.326 6.03-4.594 1.571-3.179 0-10.656 0-10.656 0 0 8.457 3.284 11 6.75 2.595 3.537 3.109 8.364 3.188 12.75.072 3.987-.777 8.108-2.469 11.719-2.107 4.497-5.123 8.879-9.219 11.688-2.652 1.818-6.01 2.963-9.219 2.844-2.918-.109-5.845-1.403-8.156-3.188-3.818-2.948-8.531-11.688-8.531-11.688 0 0 2.914 10.447 4.625 15.594 1.074 3.23 2.651 6.274 3.531 9.563 1.643 6.139 3.127 12.458 3.219 18.812.098 6.804-1.033 13.658-2.844 20.22-1.705 6.178-4.801 11.891-7.469 17.719-2.873 6.278-9.188 18.563-9.188 18.563 0 0-6.339-12.283-9.219-18.563"/></g><g transform="matrix(.96734 0 0 1 14.723 20)" fill="#fcdd09"><path d="m199.28 726.31v36.19h249.72 3.5 249.72v-36.19h-249.72-3.5-249.72"/><rect transform="matrix(0 1-1 0 0 0)" rx="9.221" ry="9.532" y="-725.97" x="710.88" height="23.761" width="67.03"/><path d="m844.77 735.2c-5.826-2.672-11.54-5.763-17.719-7.469-6.561-1.811-13.415-2.942-20.22-2.844-6.354.091-12.673 1.576-18.813 3.219-3.288.88-6.333 2.457-9.563 3.531-5.147 1.711-15.594 4.625-15.594 4.625 0 0 8.74-4.713 11.688-8.531 1.784-2.311 3.079-5.239 3.188-8.156.12-3.214-1.025-6.566-2.844-9.219-2.808-4.096-7.19-7.112-11.688-9.219-3.611-1.692-7.731-2.54-11.719-2.469-4.386.079-9.213.593-12.75 3.188-3.466 2.543-6.75 11-6.75 11 0 0 7.477-1.571 10.656 0 2.268 1.121 3.923 3.572 4.594 6 .826 2.992.14 6.389-1.063 9.25-1.237 2.943-3.855 5.103-6.03 7.438-2.955 3.17-9.5 8.875-9.5 8.875 0 0 6.547 5.682 9.5 8.844 2.179 2.333 4.794 4.495 6.03 7.438 1.199 2.851 1.882 6.236 1.063 9.219-.669 2.437-2.326 4.91-4.594 6.03-3.179 1.571-10.656 0-10.656 0 0 0 3.284 8.457 6.75 11 3.537 2.595 8.364 3.109 12.75 3.188 3.987.072 8.108-.777 11.719-2.469 4.497-2.107 8.879-5.123 11.688-9.219 1.818-2.652 2.963-6.01 2.844-9.219-.109-2.918-1.403-5.845-3.188-8.156-2.948-3.818-11.688-8.531-11.688-8.531 0 0 10.447 2.914 15.594 4.625 3.23 1.074 6.274 2.651 9.563 3.531 6.139 1.643 12.458 3.127 18.813 3.219 6.804.098 13.658-1.033 20.22-2.844 6.178-1.705 11.891-4.801 17.719-7.469 6.278-2.873 18.563-9.188 18.563-9.188 0 0-12.283-6.339-18.563-9.219"/><rect transform="matrix(0 1 1 0 0 0)" rx="9.221" ry="9.532" y="175.52" x="710.88" height="23.761" width="67.03"/><path d="m56.716 735.2c5.826-2.672 11.54-5.763 17.719-7.469 6.561-1.811 13.415-2.942 20.22-2.844 6.354.091 12.673 1.576 18.813 3.219 3.288.88 6.333 2.457 9.563 3.531 5.147 1.711 15.594 4.625 15.594 4.625 0 0-8.74-4.713-11.688-8.531-1.784-2.311-3.079-5.239-3.188-8.156-.12-3.214 1.025-6.566 2.844-9.219 2.808-4.096 7.19-7.112 11.688-9.219 3.611-1.692 7.731-2.54 11.719-2.469 4.386.079 9.213.593 12.75 3.188 3.466 2.543 6.75 11 6.75 11 0 0-7.477-1.571-10.656 0-2.268 1.121-3.923 3.572-4.594 6-.826 2.992-.14 6.389 1.063 9.25 1.237 2.943 3.855 5.103 6.03 7.438 2.955 3.17 9.5 8.875 9.5 8.875 0 0-6.547 5.682-9.5 8.844-2.179 2.333-4.794 4.495-6.03 7.438-1.199 2.851-1.882 6.236-1.063 9.219.669 2.437 2.326 4.91 4.594 6.03 3.179 1.571 10.656 0 10.656 0 0 0-3.284 8.457-6.75 11-3.537 2.595-8.364 3.109-12.75 3.188-3.987.072-8.108-.777-11.719-2.469-4.497-2.107-8.879-5.123-11.688-9.219-1.818-2.652-2.963-6.01-2.844-9.219.109-2.918 1.403-5.845 3.188-8.156 2.948-3.818 11.688-8.531 11.688-8.531 0 0-10.447 2.914-15.594 4.625-3.23 1.074-6.274 2.651-9.563 3.531-6.139 1.643-12.458 3.127-18.813 3.219-6.804.098-13.658-1.033-20.22-2.844-6.178-1.705-11.891-4.801-17.719-7.469-6.278-2.873-18.563-9.188-18.563-9.188 0 0 12.283-6.339 18.563-9.219"/></g><path d="m207.9 531.39c0 0-1.621-94.72-1.11-142.08.136-12.584-3.451-26.01 1.11-37.739 3.898-10.02 13.194-17.12 21.09-24.42 17.874-16.531 41.535-26.15 58.829-43.29 9.199-9.115 17.932-19.299 23.31-31.08 5.816-12.741 8.514-27.07 8.88-41.07.362-13.864-2.263-27.916-6.66-41.07-5.04-15.07-12.634-29.493-22.2-42.18-7.09-9.403-15.421-18.378-25.53-24.42-13.358-7.984-28.933-12.71-44.4-14.43-15.881-1.766-32.446-.222-47.729 4.44-17.737 5.41-35.78 13.473-48.839 26.639-12.706 12.81-21.508 30.14-25.53 47.729-3.961 17.328-2.727 36.21 2.22 53.28 3.921 13.532 12.04 25.832 21.09 36.629 6 7.163 13.11 13.858 21.48 18.02 6.278 3.123 13.551 3.792 20.504 4.695 3.994.519 12.08.4 12.08.4" fill="none" stroke="#e6e6e6" stroke-width="27.798"/><g fill="#fff"><rect width="47.42" height="138.47" x="184.7" y="383.74" rx="7.167" stroke="#000" stroke-linecap="round" stroke-width="3.159"/><g stroke="#fff" stroke-width="1.895"><path d="m208.4 392.68v120.95"/><path d="m221.01 392.68v120.95"/><path d="m195.8 392.68v120.95"/></g></g><g fill="#e6e6e6" stroke="#e6e6e6" stroke-width=".632"><path d="m115.5 117.48c0 0-9.834 10.269-16.326 12.408-5.462 1.799-11.512-.616-17.25-.231-4.959.333-13.621-2.651-14.75 2.19-1.563 6.704 10.165 10.781 16.979 11.755.682.097 1.391-1.042 1.959-.653 3.775 2.587.653 13.714.653 13.714"/><path d="m85.73 199.16c0 0 2.857 13.929.925 20.485-1.625 5.516-7.05 9.12-9.997 14.06-2.546 4.269-9.925 9.698-6.584 13.379 4.626 5.097 14.649-2.232 19.324-7.285.468-.505-.066-1.737.577-1.983 4.274-1.635 11.653 7.26 11.653 7.26"/></g><g stroke="#000"><path d="m210.06 118.45c-15.442 0-14.707 22.469-31.691 33.792-9.133 6.089 20.594 14.06 21.43 25 .391 5.124-9.732 8.207-8.138 13.09 2.052 6.288 11.785 7.431 18.4 7.431 6.615 0 16.348-1.142 18.4-7.431 1.594-4.885-8.53-7.969-8.138-13.09.836-10.944 30.562-18.913 21.43-25-16.984-11.323-16.249-33.792-31.691-33.792z" fill="#fbf52c" stroke-width="3.159"/><path d="m-300.12 375.82c0 1.953-7.993 3.537-17.853 3.537-9.86 0-17.853-1.583-17.853-3.537 0-1.953 7.993-3.537 17.853-3.537 9.86 0 17.853 1.583 17.853 3.537z" transform="matrix(.96938 0 0 1.88054 518.31-476.48)" fill="#e6e6e6" stroke-linecap="round" stroke-width="2.34"/></g><g fill="#e6e6e6" stroke="#e6e6e6"><path d="m-309.56 397.88c0 7.441-3.619 13.474-8.08 13.474-4.465 0-8.08-6.03-8.08-13.474 0-7.441 3.619-13.474 8.08-13.474 4.465 0 8.08 6.03 8.08 13.474z" transform="matrix(.96938 0 0 .96938 516.47-179.07)" stroke-linecap="round" stroke-width="5.214"/><path d="m171.62 260.56c0 0 7.304.703 10.751-.363 5.355-1.656 10.634-4.683 14.447-9.07 2.4-2.759 3.813-6.495 4.704-10.155 1.709-7.02 1.01-21.761 1.01-21.761l16.463 2.176c0 0 .312 15.965 0 23.937-.28 7.152.031 14.482-1.68 21.398-1.978 7.995-4.706 16.249-9.743 22.486-4.47 5.536-10.61 9.889-17.13 11.969-8.378 2.671-26.21 0-26.21 0z" stroke-width=".675"/><g stroke-width=".632"><path d="m176.73 76.55c0 0-12.881 6.02-19.708 5.667-5.743-.297-10.511-4.736-16-6.451-4.744-1.483-11.742-7.395-14.544-3.29-3.881 5.686 5.58 13.727 11.582 17.1.6.337 1.674-.469 2.063.1 2.585 3.777-4.349 13.02-4.349 13.02"/><path d="m265.74 96.48c0 0-12.265-7.193-15.847-13.01-3.01-4.898-2.063-11.343-3.764-16.836-1.471-4.748-.571-13.865-5.541-13.844-6.884.029-8.139 12.382-7.51 19.237.063.686 1.336 1.113 1.088 1.755-1.644 4.271-13.191 3.807-13.191 3.807"/><path d="m328.11 158.55c0 0-7.603-12.01-8.119-18.831-.433-5.734 3.366-11.03 4.372-16.688.869-4.894 5.848-12.584 1.421-14.844-6.131-3.129-12.909 7.274-15.493 13.655-.258.638.677 1.601.163 2.059-3.419 3.043-13.469-2.664-13.469-2.664"/><path d="m328.13 241.92c0 0 1.301-14.159 5.05-19.875 3.153-4.809 9.392-6.686 13.642-10.56 3.673-3.348 12.309-6.407 10.178-10.898-2.951-6.219-14.667-2.107-20.606 1.374-.594.348-.44 1.682-1.126 1.731-4.565.327-9.05-10.325-9.05-10.325"/></g><path d="m137.52 256.12c0 0 11.251 15.5 12.528 24.619 1.074 7.671-3.58 15.11-4.447 22.81-.749 6.654-6.783 17.419-.638 20.08 8.511 3.681 16.731-10.886 19.657-19.685.293-.88-1.047-2.094-.395-2.754 4.335-4.383 18.335 2.426 18.335 2.426" stroke-width=".851"/></g><g stroke="#000"><g stroke-width="3.159"><g fill="#fff"><path d="m126.9 209.24c0-15.442 22.469-14.707 33.792-31.691 6.089-9.133 14.06 20.594 25 21.43 5.124.391 8.207-9.732 13.09-8.138 6.288 2.052 7.431 11.785 7.431 18.4 0 6.615-1.142 16.348-7.431 18.4-4.885 1.594-7.969-8.53-13.09-8.138-10.944.836-18.913 30.562-25 21.43-11.323-16.984-33.792-16.249-33.792-31.691z"/><path d="m293.12 209.24c0-15.442-22.469-14.707-33.792-31.691-6.089-9.133-14.06 20.594-25 21.43-5.124.391-8.207-9.732-13.09-8.138-6.288 2.052-7.431 11.785-7.431 18.4 0 6.615 1.142 16.348 7.431 18.4 4.885 1.594 7.969-8.53 13.09-8.138 10.944.836 18.913 30.562 25 21.43 11.323-16.984 33.792-16.249 33.792-31.691z"/></g><path d="m227.21 379.95c0 0 .11-7.289.485-10.909.413-3.991.296-8.219 1.939-11.879 2.047-4.559 5.846-8.179 9.455-11.637 5.314-5.092 11.681-8.964 17.715-13.179 9.02-6.303 18.714-11.627 27.62-18.09 6.791-4.932 13.577-9.951 19.637-15.758 5.618-5.384 10.842-11.242 15.373-17.568 4.379-6.112 8.093-12.721 11.294-19.524 2.275-4.835 4.11-9.892 5.576-15.03 1.447-5.075 2.406-10.291 3.152-15.516.687-4.817 1.212-14.546 1.212-14.546 0 0 3.994-2.818 6.06-4.121 1.899-1.198 4.04-2.023 5.818-3.394 1.629-1.256 3.566-2.467 4.364-4.364.501-1.192.504-2.671.041-3.879-.392-1.024-1.287-1.854-2.223-2.424-1.573-.959-3.494-1.344-5.333-1.455-1.597-.096-3.186.353-4.748.698-1.433.316-2.863.699-4.222 1.254-2.709 1.107-5.404 2.37-7.758 4.109-2.02 1.494-3.847 3.306-5.333 5.333-1.346 1.837-2.27 3.961-3.152 6.06-1.513 3.605-3.636 11.152-3.636 11.152" fill="none"/></g><path d="m197.26 453.15v-60.34h1.371 1.371v60.34 60.34h-1.371-1.371v-60.34z"/><path d="m209.86 453.15v-60.34h1.371 1.371v60.34 60.34h-1.371-1.371v-60.34z"/><path d="m222.46 453.15v-60.34h1.371 1.371v60.34 60.34h-1.371-1.371v-60.34z"/><rect rx="7.167" width="71.5" height="23.15" x="172.65" y="380.04" fill="#fff" stroke-linecap="round" stroke-width="3.481"/></g><path d="m182.46 391.62h51.883" fill="#fbf52c" stroke="#fff" stroke-linecap="round" stroke-width="5.05"/><g fill="none" stroke="#000" stroke-width="3.159"><path d="m341.16 197.88c0 0-.797-5.834-1.333-8.727-.829-4.473-1.796-8.923-2.909-13.334-1.183-4.687-2.401-9.378-4-13.94-1.737-4.957-3.913-9.752-6.06-14.546-1.832-4.09-5.818-12.12-5.818-12.12 0 0 1.595-5.178 2.424-7.758 1.38-4.294 3.396-8.419 4.243-12.849.258-1.352.571-2.785.242-4.121-.225-.915-.697-1.863-1.455-2.424-.803-.595-1.912-.791-2.909-.727-1.992.128-3.925 1.06-5.576 2.182-1.324.9-2.264 2.272-3.273 3.515-.84 1.036-1.565 2.161-2.303 3.273-.632.953-1.298 1.891-1.818 2.909-1.073 2.098-2.01 4.284-2.667 6.546-.817 2.8-1.365 5.697-1.576 8.606-.322 4.436.485 13.334.485 13.334"/><path d="m309.64 118.36c0 0-3.546-4.533-5.333-6.788-2.893-3.649-5.51-7.542-8.727-10.909-3.639-3.809-7.691-7.229-11.879-10.424-3.849-2.937-7.877-5.672-12.12-8-4.345-2.383-8.892-4.443-13.576-6.06-3.464-1.196-10.667-2.667-10.667-2.667 0 0-.776-5.177-1.212-7.758-.602-3.563-.149-7.528-1.939-10.667-.795-1.393-2.045-2.951-3.636-3.152-1.614-.203-3.224 1.022-4.364 2.182-1.444 1.47-1.969 3.637-2.667 5.576-.677 1.881-1.21 3.834-1.455 5.818-.148 1.203-.1 2.428 0 3.636.284 3.429.44 6.979 1.697 10.182 1.556 3.964 3.773 7.924 7.03 10.667 3.71 3.123 13.334 5.818 13.334 5.818"/><path d="m231.49 69.856c0 0-3.981-.911-6-1.2-5.848-.838-11.749-1.482-17.657-1.543-3.436-.035-6.866.348-10.285.686-6.136.605-12.304 1.15-18.342 2.4-5.296 1.097-10.471 2.742-15.6 4.457-4.529 1.515-13.371 5.143-13.371 5.143 0 0-4.311-2.347-6.514-3.428-2.594-1.273-5.197-2.542-7.886-3.6-2.02-.794-4-2.129-6.171-2.057-1.357.045-2.982.437-3.771 1.543-1.164 1.631-.801 4.05-.343 6 .422 1.794 1.605 3.351 2.743 4.8.924 1.176 2.096 2.143 3.257 3.086.701.569 1.456 1.074 2.228 1.543 2.098 1.272 4.179 2.674 6.514 3.428 5.05 1.632 10.462 2.28 15.771 2.229 5.383-.053 15.942-2.571 15.942-2.571"/><path d="m132.92 88.37c0 0-4.715 2.81-7.03 4.286-2.605 1.662-5.241 3.289-7.714 5.143-2.985 2.238-5.865 4.631-8.571 7.2-1.701 1.614-3.283 3.354-4.8 5.143-1.818 2.144-3.491 4.41-5.143 6.686-1.546 2.129-3.045 4.294-4.457 6.514-1.388 2.183-3.943 6.686-3.943 6.686 0 0-5.704-.784-8.571-1.029-3.364-.287-6.759-.882-10.114-.514-1.709.187-3.724.188-4.971 1.371-1.049.995-1.539 2.678-1.371 4.114.164 1.402 1.248 2.585 2.229 3.6 1.432 1.481 3.282 2.543 5.143 3.428 2.269 1.079 4.773 1.578 7.2 2.228 1.245.334 2.489.724 3.771.857 3.297.341 6.7.518 9.943-.171 4.433-.942 8.735-2.813 12.514-5.314 3.775-2.498 9.771-9.428 9.771-9.428"/><path d="m84.41 144.43c0 0-2.473 5.646-3.428 8.571-1.356 4.15-2.339 8.417-3.257 12.685-.561 2.608-1.046 5.237-1.371 7.886-.58 4.72-.917 9.474-1.029 14.228-.106 4.514-.067 9.05.343 13.542.3 3.284.926 6.532 1.543 9.771 1.03 5.406 3.6 16.11 3.6 16.11 0 0-3.851 4.16-5.657 6.343-1.975 2.386-4.444 4.521-5.657 7.371-.747 1.755-1.619 3.909-.857 5.657.608 1.395 2.311 2.146 3.771 2.571 1.756.512 3.686.159 5.486-.171 1.724-.317 3.418-.901 4.971-1.714 1.883-.986 3.572-2.339 5.143-3.771 2.483-2.263 5.124-4.568 6.686-7.543 1.887-3.595 2.67-7.775 2.914-11.828.257-4.252-1.543-12.685-1.543-12.685"/><path d="m87.82 245.15c0 0 2.224 5.117 3.636 7.515 2.207 3.748 4.943 7.16 7.515 10.667 2.285 3.115 4.504 6.29 7.03 9.212 3.176 3.675 6.531 7.22 10.182 10.424 3.34 2.932 6.922 5.607 10.667 8 3.02 1.928 6.316 3.369 9.455 5.091 2.759 1.514 6.545 1.775 8.243 4.606 1.087 1.814.461 3.567.242 5.333-.311 2.512-1.464 4.846-2.182 7.273-.573 1.937-2.13 3.845-1.697 5.818.528 2.406 2.463 4.964 4.849 5.576 3.17.813 6.583-1.445 9.212-3.394 3.01-2.233 4.899-5.731 6.788-8.97 1.641-2.814 3.604-5.724 3.879-8.97.288-3.398-.71-6.991-2.424-9.94-2.01-3.459-5.479-5.907-8.727-8.243-3.346-2.406-10.909-5.818-10.909-5.818"/><path d="m166.36 302.37c0 0 5.94 1.413 8.97 1.697 2.896.272 5.832.278 8.727 0 2.54-.244 5.088-.669 7.515-1.455 2.374-.768 4.695-1.794 6.788-3.152 2.787-1.808 5.349-4.03 7.515-6.546 1.374-1.597 2.286-3.541 3.394-5.333 1.486-2.405 3.158-4.716 4.364-7.273 1.134-2.404 1.913-4.966 2.667-7.515.989-3.346 1.891-6.734 2.424-10.182.508-3.283.525-6.624.727-9.94.202-3.311.04-6.652.485-9.94.397-2.934 1.939-8.667 1.939-8.667"/><path d="m184.55 379.34c0 0-.331-7.03-.364-10.546-.023-2.505-.057-5.02.121-7.515.183-2.559.537-5.107.97-7.637.355-2.078.706-4.169 1.333-6.182.976-3.13 2.203-6.204 3.758-9.09 1.945-3.611 4.331-6.992 6.909-10.182 3.27-4.045 6.983-7.728 10.788-11.273 5.417-5.05 11.23-9.66 17.09-14.182 5.549-4.281 11.284-8.32 17.09-12.243 3.492-2.359 7.163-4.445 10.667-6.788 4.268-2.854 8.562-5.687 12.606-8.849 3.204-2.505 6.29-5.172 9.212-8 2.732-2.644 5.407-5.375 7.758-8.364 2.487-3.162 4.681-6.562 6.667-10.06 1.66-2.923 3.157-5.954 4.364-9.09.923-2.398 1.558-4.901 2.182-7.394.922-3.682 1.848-7.383 2.303-11.152.528-4.375.602-8.807.485-13.212-.108-4.055-.444-8.117-1.091-12.12-.874-5.408-2.241-10.736-3.758-16-.828-2.873-1.795-5.71-2.909-8.485-1.542-3.842-3.261-7.622-5.212-11.273-2.812-5.262-5.945-10.362-9.334-15.273-2.584-3.745-5.223-7.496-8.364-10.788-3.997-4.188-8.329-8.163-13.212-11.273-4.682-2.982-9.909-5.085-15.15-6.909-5.738-1.996-11.704-3.368-17.697-4.364-4.561-.758-9.196-1.328-13.819-1.212-8.237.207-16.475 1.464-24.485 3.394-7.404 1.784-14.719 4.202-21.576 7.515-6.591 3.184-12.885 7.118-18.546 11.758-3.89 3.188-7.447 6.856-10.424 10.909-3.415 4.65-6.101 9.845-8.364 15.15-2.24 5.255-4.054 10.746-5.091 16.364-1.154 6.251-1.4 12.677-1.212 19.03.166 5.616.771 11.26 2.061 16.728 1.249 5.299 3.102 10.485 5.455 15.394 2.36 4.925 5.322 9.577 8.606 13.94 2.855 3.794 6.069 7.344 9.576 10.546 2.131 1.945 4.365 3.851 6.909 5.212 3.132 1.676 6.616 2.646 10.06 3.515 2.737.691 5.543 1.208 8.364 1.333 2.913.129 5.851-.127 8.727-.606 3.094-.515 6.201-1.205 9.09-2.424 2.471-1.042 4.88-2.368 6.909-4.121 1.695-1.465 3.207-3.226 4.243-5.212.952-1.826 1.443-3.896 1.697-5.94.319-2.567-.242-7.758-.242-7.758"/><path d="m223.82 349.57c0 0 7.56-8.341 11.897-11.897 6.379-5.23 13.689-9.209 20.59-13.727 6.371-4.171 13.02-7.93 19.217-12.354 6.01-4.289 11.869-8.82 17.387-13.727 6.125-5.447 12.25-11 17.387-17.387 5.675-7.06 14.642-22.878 14.642-22.878"/></g><g fill="#fbf52c"><path d="m186.86 376.54c-.044-.426-.114-3.813-.155-7.527-.07-6.359-.059-6.897.192-9.231.555-5.153 1.389-9.647 2.321-12.514 2.085-6.409 5.706-12.585 11.06-18.865l1.506-1.766h22.823 22.823l-.558.358c-.307.197-1.586 1.01-2.844 1.808-5.084 3.225-8.685 5.884-11.866 8.764-2.626 2.378-10.138 10.135-10.05 10.376.021.056.81.813 1.754 1.682l1.716 1.581 1.435-1.537c2.564-2.744 7.984-8.158 9.382-9.37 2.968-2.574 7.124-5.474 13.939-9.728 1.806-1.127 3.953-2.474 4.77-2.992l1.487-.943h2.156 2.156l-2.28 1.525c-2.041 1.365-6.583 4.464-11.08 7.559-2.36 1.625-6.102 4.466-7.806 5.925-1.881 1.611-7.184 6.895-8.315 8.285-3.553 4.365-5.05 7.688-5.609 12.453-.335 2.849-1 12.525-1.01 14.59v.341h-18.94-18.94l-.081-.774"/><path d="m186.87 376.73c-.042-.324-.111-3.739-.154-7.589-.073-6.592-.062-7.141.185-9.402.497-4.55 1.314-9.137 2.074-11.646 3.135-10.343 9.812-19.53 22.534-31 9.698-8.747 25.22-20.349 37.36-27.93 5.861-3.659 12.809-8.355 16.715-11.295l1.041-.784h21.541c11.847 0 21.541.031 21.541.068 0 .137-1.86 2.511-3.04 3.88-5.83 6.766-16.966 16.885-26.698 24.26-6.168 4.674-9.255 6.772-17.532 11.915-1.159.72-3.947 2.478-6.196 3.906-2.249 1.429-6.117 3.875-8.596 5.437-8.095 5.1-11.02 7.157-14.636 10.31-1.741 1.516-6.325 6.076-8.976 8.93l-1.957 2.106 1.719 1.638c.945.901 1.755 1.626 1.799 1.611.044-.016 1.193-1.198 2.554-2.629 8.333-8.763 10.832-10.788 21.907-17.749 2.381-1.496 5.806-3.657 7.612-4.801 1.806-1.145 5.291-3.335 7.744-4.867 12.84-8.02 21.17-14.253 31.596-23.628 8.463-7.613 13.983-13.502 17.909-19.11l.491-.701v2.324 2.324l-1.426 1.779c-3.195 3.985-6.182 7.276-10.177 11.213-4.583 4.517-7.76 7.219-14.293 12.155-7.955 6.01-10.918 8.02-23.646 16.06-5.08 3.207-8.524 5.507-17.552 11.721-2.552 1.757-6.355 4.594-7.906 5.899-2.709 2.279-7.148 6.674-9.144 9.05-1.661 1.98-3.299 4.65-4.066 6.627-.935 2.412-1.249 4.153-1.674 9.294-.277 3.351-.392 5.114-.637 9.758l-.077 1.456h-18.929-18.929l-.077-.589"/></g><g fill="#fff"><path d="m186.82 375.73c-.969-4.845.116-20.07 1.921-26.955 4.488-17.12 23.938-36.12 62.853-61.41 19.301-12.542 28.89-21.12 36.573-32.739 12.162-18.384 15.761-41.586 10.266-66.19-3.747-16.777-9.259-29.07-20.428-45.578-4.852-7.169-13.385-16.392-18.789-20.307-8.237-5.968-20.04-10.52-35.04-13.516-8.171-1.631-23.75-1.621-32.463.021-23.649 4.457-41.25 12.821-54.34 25.819-7.81 7.757-12.917 16.286-17.44 29.12-3.133 8.891-4.02 14.762-4.01 26.422.016 10.934.641 15.958 3.053 24.528 3.975 14.12 13.351 28.795 24.631 38.548 4.744 4.101 9.135 6.271 16.382 8.094 14.195 3.571 30.568-.066 37.676-8.37 3.19-3.726 4.33-6.765 4.594-12.243.308-6.393.077-7.21-2.248-7.958-2.25-.724-4.585-2.027-4.585-2.56 0-.214.903-.389 2.01-.389 2.539 0 4.293-.907 6.52-3.372 2.38-2.634 3.783-6.643 4.388-12.533.908-8.846-.525-17.11-3.779-21.81-2.163-3.122-5.914-4.859-8.427-3.904-2.373.902-1.983.022 1.491-3.368 4.637-4.524 5.454-6.663 4.05-10.593-1.393-3.9-4.34-6.547-16.36-14.694-6.07-4.112-6.529-4.744-4.511-6.163 2.756-1.938 7.939-7.545 10.205-11.04 1.238-1.908 3.797-6.232 5.687-9.609 5.438-9.715 8.885-12.467 14.747-11.775 4.728.558 6.547 2.411 12.479 12.711 2.119 3.68 4.655 7.918 5.634 9.417 1.879 2.877 7.226 8.533 9.731 10.296 1.973 1.388 1.538 2.045-3.769 5.687-11.621 7.975-13.07 9.115-15.13 11.913-2.478 3.365-3.132 6.202-2.035 8.828.393.94 2.243 3.2 4.111 5.02 1.868 1.823 3.275 3.436 3.127 3.585-.149.149-.987.02-1.863-.285-1.278-.445-2.01-.395-3.713.254-5.091 1.944-7.929 7.889-8.54 17.891-.849 13.885 3.682 23.505 11.08 23.534 1.159.005 2.106.215 2.106.468 0 .253-1.194 1.025-2.654 1.715l-2.654 1.255-1.064 4.995c-.585 2.747-1.064 6.38-1.066 8.07-.005 6.686-1.079 16.946-2.245 21.434-2.01 7.724-3.198 10.628-6.872 16.755-5.513 9.193-11.08 13.831-19.17 15.964-5.635 1.486-19.752.854-20.891-.936-.201-.317-.37-1.022-.374-1.567-.013-1.552-2.681-6.81-4.528-8.921-2.449-2.8-8.536-7.158-13.774-9.864-2.52-1.301-4.648-2.291-4.729-2.199-.081.092-.607 1.079-1.169 2.193l-1.021 2.026 4.553 2.311c5.716 2.902 11.518 7.335 13.542 10.348 1.9 2.828 2.876 6.627 2.443 9.513-.362 2.415-5.422 11.442-7.899 14.09-2.01 2.151-6.134 4.526-7.869 4.532-1.551.005-3.182-1.401-3.612-3.114-.18-.717.275-2.587 1.189-4.888 1.972-4.963 3.055-10.306 2.547-12.559-.742-3.288-1.704-4.088-9.27-7.7-15.226-7.269-24.525-15.197-36.21-30.871-6.504-8.722-7.595-10.361-9.744-14.635l-1.83-3.641 2.699-2.829c6.126-6.423 8.161-15.219 6.255-27.04l-.622-3.855-2.238.307c-1.231.169-2.334.403-2.451.52-.117.117.065 1.845.403 3.839 1.306 7.687.5 14.838-2.189 19.427-1.711 2.92-7.729 8.414-10.885 9.937-4.809 2.321-10.253 2.148-10.229-.325.022-2.219 1.942-5.182 7.121-10.985 2.892-3.241 5.259-5.956 5.259-6.03 0-.077-.886-4.116-1.97-8.976-3.347-15.01-3.635-17.665-3.352-30.863.19-8.866.505-13.11 1.311-17.622 1.32-7.398 3.213-14.687 5.117-19.701l1.459-3.841h3.618c4.468 0 11-1.802 15.846-4.37 2.35-1.246 5.03-3.372 8.425-6.697l4.982-4.871-1.896-1.604-1.897-1.604-4.548 4.492c-3.524 3.481-5.4 4.905-8.331 6.323-7.558 3.657-13.268 4.233-21.435 2.161-7.481-1.898-12.507-5.181-11.84-7.734.557-2.131 4.814-2.469 15.254-1.209 9.13 1.102 8.07 1.507 11.663-4.453 9.302-15.422 18.288-24.551 32.859-33.381l5.173-3.135 2.583 1.309c4.975 2.521 9.406 3.364 17.852 3.394 6.05.022 8.775-.2 12.831-1.047 2.832-.592 5.214-1.14 5.293-1.219.079-.079-.085-1.216-.364-2.527-.343-1.61-.716-2.303-1.149-2.137-.352.135-3.509.735-7.02 1.332-13.994 2.385-24.883-.05-32.23-7.205-2.259-2.201-3.203-3.535-3.622-5.12-.808-3.056-.55-3.775 1.423-3.964 1.872-.179 4.308.799 14.223 5.713l6.49 3.216 5.786-2.288c15.352-6.072 25.14-8.36 42.618-9.963 8.614-.79 17.18-.516 25.827.826 5.16.801 5.718 1.098 5.718 3.05 0 4.282 3.136 11.212 6.976 15.413 3.123 3.418 5.448 4.828 11.56 7.01l4.68 1.673.781-2.293c.43-1.261.726-2.337.659-2.39-.067-.053-1.345-.497-2.839-.985-7.09-2.318-10.489-4.634-13.355-9.1-2.402-3.744-3.508-7.632-3.823-13.44-.253-4.67-.153-5.604.973-9.1 1.318-4.09 2.851-6.265 4.414-6.265 1.239 0 2.656 3.318 3.07 7.187.746 6.97 1.942 13.722 2.457 13.865.305.085 2.673.652 5.263 1.259 13.374 3.137 26.683 10.556 38.652 21.546 4.241 3.894 6.904 6.945 13.573 15.553l4.366 5.635-1.061 2.91c-.584 1.6-1.38 4.417-1.771 6.26-.724 3.417-.988 14.562-.413 17.438.303 1.514.398 1.568 2.513 1.425l2.199-.148.104-8.921c.098-8.345.194-9.177 1.489-12.886 1.546-4.427 2.385-5.963 5.856-10.72 1.875-2.57 2.929-3.514 4.837-4.335 3.563-1.533 4.314-.988 4.01 2.912-.053.681-1.639 5.82-3.525 11.418l-3.429 10.179 4.645 9.894c5.171 11.01 8.04 18.458 10.184 26.388 1.703 6.312 3.887 16.23 4.724 21.45l.601 3.746-3.656 1.933c-4.449 2.352-8.864 6.633-11.03 10.697-1.843 3.458-5.608 14.232-5.276 15.1.124.324.969.728 1.876.899.908.17 1.832.366 2.053.434.221.069 1.245-2.455 2.274-5.608 2.279-6.982 3.929-10.1 6.928-13.11 5.607-5.625 16.08-9.07 21.14-6.951 1.437.6 1.719.97 1.719 2.254 0 1.834-1.377 3.241-5.673 5.8-1.65.982-4.679 2.911-6.731 4.286l-3.731 2.499-.844 9.197c-1.581 17.233-4.97 28.862-12.502 42.905-10.492 19.56-25.442 34.685-50.05 50.63-26.96 17.472-34.26 22.766-40.741 29.555-7.06 7.391-8.259 10.516-8.978 23.395l-.36 6.443-18.894.13-18.894.13-.311-1.555m44.792-30.837c6.637-6.541 10.04-8.958 32.968-23.378 10.657-6.704 19.547-13.1 27.528-19.817 7.558-6.357 19.237-18.366 22.78-23.424 3.716-5.305 11.855-18.479 11.867-19.21.005-.273-.869-.996-1.94-1.608l-1.949-1.113-3.339 5.573c-8.2 13.687-11.548 18.08-20.338 26.661-11.844 11.566-21.966 19.36-39.19 30.17-21.07 13.229-23.651 15.08-30.984 22.257l-6.851 6.702 1.597 1.648c.878.906 1.609 1.647 1.624 1.645.016 0 2.815-2.75 6.223-6.109"/><g stroke="#000"><path d="m190.84 519.12v67.969c11.958-5.681 23.664-11.881 35.12-18.531v-49.44h-35.12z" stroke-linejoin="round" stroke-linecap="square" stroke-width="5"/><g stroke-linecap="round"><rect rx="7.167" width="71.5" height="24.993" x="172.65" y="498.67" stroke-width="3.617"/><rect rx="7.167" width="60.53" height="19.08" x="178.14" y="359.85" stroke-width="3.481"/></g></g></g><path d="m189.44 369.39h37.917" fill="#fbf52c" stroke="#fff" stroke-linecap="round" stroke-width="5.05"/><g fill="#fff"><path d="m227.03 352.31l5.634-7.04 10.423-8.451 10.704-7.324 9.01-5.352 11.831-8.169 6.479-3.944 7.606-5.916 5.916-5.352 9.296-8.451 7.887-7.606 5.916-8.451 6.197-10.141 4.507-8.451-3.944-6.197-9.578 4.507-62.818 49.578-39.16 34.37 5.916 11.55 3.662 2.254z"/><path d="m219.42 351.75c0 0 5.771-7.732 9.296-10.986 3.906-3.606 8.621-6.222 12.958-9.296 4.676-3.314 9.333-6.655 14.08-9.859 5.291-3.567 10.901-6.662 16.06-10.423 4.799-3.5 9.314-7.379 13.803-11.268 3.566-3.089 7.106-6.222 10.423-9.578 4.347-4.398 8.561-8.951 12.395-13.803 2.761-3.495 5.337-7.154 7.606-10.986 1.284-2.168 3.38-6.761 3.38-6.761" stroke="#000" stroke-linecap="round" stroke-width="4"/></g><g stroke-linecap="round"><g fill="none" stroke="#fff"><g stroke-width="4"><path d="m84.51 197.35c0 0-.355-12.739.528-19.02.886-6.302 3-12.372 4.755-18.491.966-3.373 3.17-10.04 3.17-10.04"/><path d="m107.75 121.8c0 0 5.664-7.683 8.981-11.09 3.395-3.492 7.143-6.662 11.09-9.51 2.499-1.801 7.925-4.755 7.925-4.755"/><path d="m166.4 80.59c0 0 10.471-3.24 15.849-4.226 6.791-1.246 13.709-1.761 20.604-2.113 1.231-.063 3.698 0 3.698 0"/></g><path d="m182.46 510.24h51.883" stroke-width="5.05"/></g><g fill="#fff" stroke="#000" stroke-width="5"><path d="m612.24 428.32c15.09 22.424 28.656 75.855 28.656 75.855l-11.8 4.214v22.757c0 0 25.325-14.1 38.77-19.385 23.16-9.114 47.03-17.336 71.64-21.07 18.335-2.782 55.627-.843 55.627-.843v-17.7l-15.276-6.743-.738-29.499c0 0 18.345-21.489 22.757-34.556 5.225-15.475 7.707-33.14 3.371-48.884-7.984-29-27.05-56.52-51.41-74.17-8.783-6.361-20.393-10.343-31.18-9.271-16.13 1.602-27.762 17.18-42.985 22.757-8.641 3.165-18.463 2.392-26.971 5.9-10.16 4.189-19.05 11.06-27.814 17.7-6.25 4.734-12.265 9.872-17.533 15.679-8.05 8.873-21.237 19.89-21.237 28.991h87.65v15.171h-118.84c5.97-4.855 42.772 31.493 57.31 53.1z"/><path d="m640.9 504.18c0 0 41.897-17.684 63.762-23.682 14.532-3.986 29.473-6.691 44.48-8.09 15.268-1.42 46-.259 46-.259"/><path d="m673.77 360.05c0 0 2.992-8.189 6.126-10.965 2.998-2.655 8.663-5.24 11.12-4.549h32.35v120.29c0 0 6.468 2.499 8.592 5.05 4.719 5.674 7.557 20.81 7.557 20.81"/><path d="m623.99 399.54h37.546"/><path d="m623.4 415.03h22.05"/><path d="m650.81 415.03h16.687"/><path d="m630.55 427.55h22.05"/></g></g><g transform="matrix(.9476 0 0 .9476 1081.7-64.877)" fill="#fff" stroke="#000" stroke-width="5.277"><use xlink:href="#0"/><path d="m-441.46 535.39v39.623" stroke-linecap="round"/></g><g stroke="#000"><g fill="#fff"><g stroke-width="1.055"><g transform="matrix(.53357 0 0 .53357 939.15 69.934)"><use stroke-width="9.371" xlink:href="#0"/><use xlink:href="#1"/></g><g transform="matrix(.53357 0 0 .53357 939.15 98.24)"><use stroke-width="9.371" xlink:href="#0"/><use xlink:href="#1"/></g><g transform="matrix(.53357 0 0 .53357 939.15 128.04)"><use stroke-width="9.371" xlink:href="#0"/><use xlink:href="#1"/></g><g transform="matrix(.53357 0 0 .53357 939.15 160.22)"><use stroke-width="9.371" xlink:href="#0"/><use xlink:href="#1"/></g></g><path d="m614.46 344.71c0 0 8.359 1.01 12.515.596 2.445-.242 5.158-.351 7.152-1.788 2.101-1.515 4.172-6.556 4.172-6.556" stroke-linecap="round" stroke-width="5"/></g><g stroke-width="5"><g fill="#fcdd09"><g stroke-linejoin="round"><path d="m667.67 80.8c-3.822.407-5.93-5.093-9.482-6.564-5.02-2.08-10.879-1.226-16.05-2.917-4.754-1.556-8.842-4.725-13.493-6.564-4.97-1.965-10.331-2.816-15.317-4.741-3.754-1.449-7.51-3-10.94-5.106-3.03-1.857-5.569-4.405-8.388-6.564-.965-.739-2.917-2.188-2.917-2.188 0 0 5.423.274 8.02-.365 3.908-.961 7.07-4.02 10.94-5.106 5.299-1.487 10.926-1.362 16.411-1.823 4.247-.357 8.521-1.129 12.764-.729 4.99.47 9.837 2.047 14.587 3.647 5.264 1.773 10.807 3.321 15.317 6.564 3.705 2.664 9.117 10.211 9.117 10.211 0 0 1.094 9.117.365 10.576-.729 1.459-5.638 11.11-10.94 11.67z" stroke-linecap="round"/><path d="m682.18 237.16c2.44-12.442-7.956-24.354-14.745-35.06-9.749-15.376-22.301-29.24-36.509-40.626-2.846-2.281-6.03-4.363-9.536-5.364-8.796-2.51-18.37.169-27.415-1.192-4.67-.702-9.194-2.189-13.707-3.576-6.246-1.919-11.992-5.74-18.475-6.556-4.354-.548-8.725 1.052-13.11 1.192-7.349.234-14.948 1.307-22.05-.596-5.238-1.403-8.895-7.359-14.303-7.748-4.01-.288-10.875.174-11.324 4.172-.528 4.709 10.914 3.117 11.919 7.748.55 2.531-2.146 4.942-4.172 6.556-5.112 4.071-18.475 6.556-18.475 6.556 0 0 15.279-1.664 19.07 3.576 1.762 2.435-2.461 6.214-1.192 8.94 1.093 2.348 4.902 2.178 6.556 4.172 2.049 2.471.411 8.407 3.576 8.94 3.889.655 4.695-6.443 7.748-8.94 4.063-3.323 8.668-6.279 13.707-7.748 3.629-1.057 7.545-.678 11.324-.596 10.375.225 20.94.395 30.991 2.98 9.221 2.372 18.683 5.51 26.22 11.324 7.396 5.702 11.782 14.504 17.283 22.05 9.186 12.6 12.179 31.963 26.22 38.738 6.999 3.376 16.183 1.459 23.24-1.788 3.063-1.409 6.503-3.843 7.152-7.152z"/></g><path d="m545.11 170.41c0 0 2.73-9.08 2.384-13.707-.235-3.132-2.98-8.94-2.98-8.94" stroke-linecap="round"/><path d="m700.06 129.28c5.313 4.236 5.105 12.877 5.364 19.667.401 10.512-1.122 21.65-5.96 30.991-3.295 6.363-10.446 9.882-14.899 15.495-5.445 6.864-10.697 14.07-14.303 22.05-2.123 4.7-.146 11.676-4.172 14.899-2.95 2.362-7.606 1.276-11.324.596-5.337-.977-9.963-4.303-14.899-6.556-10.995-5.02-21.287-11.752-32.779-15.495-4.04-1.315-8.287-1.985-12.515-2.384-2.176-.205-4.429-.502-6.556 0-5.62 1.327-11.387 3.69-15.495 7.748-10.178 10.05-11.863 26.15-19.667 38.14-5.01 7.696-13.801 12.957-17.283 21.455-2.271 5.542-.535 12.02-1.788 17.879-.394 1.843-.876 3.715-1.788 5.364-2.118 3.828-5.658 6.678-8.344 10.132-2.268 2.917-7.098 5.284-6.556 8.94.583 3.93 5.801 5.797 9.536 7.152 3.553 1.289 8.632-2.058 11.324.596 2.126 2.097-1.281 6.617.596 8.94 1.818 2.25 5.492 2.868 8.344 2.384 4.075-.692 6.804-4.699 10.132-7.152 2.623-1.933 6.422-2.984 7.748-5.96 3.163-7.098-5.247-16.285-1.788-23.24 1.472-2.961 6.684-2.504 8.344-5.364 1.898-3.269.999-7.565.596-11.324-.242-2.252-2.035-4.304-1.788-6.556.464-4.24 3.588-7.778 5.96-11.324 5.176-7.738 9.449-17.506 17.879-21.455 2.159-1.01 5-1.026 7.152 0 4.844 2.311 5.968 9.128 10.132 12.515 5.72 4.654 12.535 8.257 19.667 10.132 4.999 1.314 10.327.497 15.495.596 3.575.069 10.728 0 10.728 0 0 0-8.408-.682-11.324 1.788-2.876 2.436-1.857 7.373-3.576 10.728-2.01 3.925-4.346 7.92-7.748 10.728-4.73 3.904-12.172 3.598-16.687 7.748-2.359 2.167-4.62 5.144-4.768 8.344-.111 2.398 1.476 4.685 2.98 6.556 2.489 3.097 5.992 5.354 9.536 7.152 4.259 2.161 8.932 4.209 13.707 4.172 5.843-.046 11.514-2.648 16.687-5.364 5.77-3.03 11.351-6.891 15.495-11.92 1.978-2.399 3.093-5.427 4.172-8.344 1.137-3.073 2.384-9.536 2.384-9.536 0 0-2.963 4.558-3.576 7.152-.867 3.674-1.23 7.755 0 11.324 1.891 5.485 5.512 11.166 10.728 13.707 4.286 2.088 9.616.87 14.303 0 5.441-1.01 11.438-2.196 15.495-5.96 3.062-2.84 2.321-8.463 5.364-11.324 2.339-2.198 6.399-5.537 8.94-3.576 2.536 1.957-.364 6.441-1.192 9.536-1.059 3.956-4.901 7.23-4.768 11.324.116 3.552 2.317 6.962 4.768 9.536 2.515 2.641 6.01 4.44 9.536 5.364 4.228 1.107 8.941 1.308 13.11 0 5.311-1.666 13.707-9.536 13.707-9.536 0 0-5.978 1.833-7.748 4.172-3.315 4.382-3.054 10.622-3.576 16.09-.66 6.924-1.459 14.214.596 20.859 1.954 6.317 5.205 13.05 10.728 16.687 5.05 3.323 12.423.384 17.879 2.98 4.067 1.935 7.226 5.498 10.132 8.94 3.165 3.749 4.385 8.943 7.748 12.515 2.834 3.01 8.439 3.38 10.132 7.152 2.186 4.871-1.248 10.605-1.799 15.915-.686 6.61-3.196 13.335-1.875 19.848.763 3.759 3.837 6.653 5.462 10.127 1.813 3.876 1.315 9.391 4.768 11.92 4.339 3.178 12.585-2.887 16.09 1.192 3.377 3.928.757 10.696-1.192 15.495-2.335 5.75-6.535 11.216-11.919 14.303-5.242 3.01-11.858 2.482-17.879 2.98-9.107.754-18.377-1.35-27.415 0-7.396 1.105-14.797 3.151-21.455 6.556-6.438 3.293-10.653 10.225-17.283 13.11-4.252 1.851-9.133 1.62-13.707 2.384-4.961.828-13.272-2.375-14.899 2.384-1.41 4.123 6.261 6.1 8.94 9.536 4.066 5.215 4.85 13.658 10.728 16.687 7.425 3.827 17.14 1.546 25.03-1.192 4.844-1.68 7.839-6.838 12.515-8.94 6.505-2.924 14.01-2.77 20.859-4.768 5.67-1.654 16.687-5.96 16.687-5.96 0 0-7.952 5.51-11.324 8.94-3.677 3.74-5.255 9.486-9.536 12.515-5.282 3.738-16.585-.229-18.475 5.96-1.033 3.383 3.596 6.408 6.556 8.344 4.637 3.03 10.582 3.581 16.09 4.172 4.942.53 10.374 1.459 14.899-.596 4.734-2.149 7.05-7.652 10.728-11.324 10.05-10.02 20.258-19.914 30.991-29.2 6.522-5.644 14.71-9.492 20.263-16.09 4.808-5.714 9.377-12.323 10.728-19.667 1.596-8.676-1.199-17.727-3.576-26.22-2.685-9.596-9.103-17.856-11.919-27.415-4.154-14.1-.858-30.23-7.152-43.506-4.762-10.05-19.882-14.12-22.05-25.03-1.556-7.825 6.439-14.777 7.748-22.647.521-3.135 1.066-6.541 0-9.536-2.319-6.519-8.691-10.768-13.11-16.09-2.161-2.603-5.776-4.456-6.556-7.748-1.367-5.767 4.475-11.365 4.172-17.283-.183-3.577-2.071-6.882-3.576-10.132-2.319-5.01-5.312-9.691-8.344-14.303-2.575-3.918-8.454-6.636-8.344-11.324.097-4.094 7.348-5.46 7.748-9.536.373-3.803-3.766-6.66-5.364-10.132-3.394-7.372-4.31-15.981-8.94-22.647-1.524-2.195-6.06-2.693-5.96-5.364.081-2.264 4.209-2.223 5.364-4.172 3.179-5.367 2.482-12.257 2.98-18.475.397-4.951 1.723-10.241 0-14.899-1.271-3.436-5.693-4.984-7.152-8.344-4.299-9.901-.519-21.831-3.576-32.18-1.51-5.112-5.368-9.28-7.152-14.303-2.451-6.904-1.726-14.79-4.768-21.455-2.771-6.073-6.516-12.172-11.919-16.09-3.051-2.213-10.46.184-10.728-3.576-.189-2.659 4.731-2.46 7.152-3.576 5.093-2.348 10.634-3.76 15.495-6.556 6.889-3.961 12.851-9.358 19.07-14.303 3.863-3.071 7.151-6.901 11.324-9.536 2.03-1.282 6.556-2.98 6.556-2.98 0 0-5.526-.342-7.748-1.788-1.665-1.084-1.921-3.669-3.576-4.768-4.777-3.172-11.04-3.158-16.687-4.172-3.541-.636-7.131-1.29-10.728-1.192-4.832.132-9.72.85-14.303 2.384-4.887 1.636-9.04 4.976-13.707 7.152-3.311 1.542-6.49 4.445-10.132 4.172-2.31-.173-3.961-2.405-5.96-3.576-1.382-.809-2.571-2.339-4.172-2.384-2.664-.074-4.528 3.108-7.152 3.576-1.771.316-3.653-.039-5.364-.596-3.046-.992-5.248-3.946-8.344-4.768-3.648-.969-7.608-.663-11.324 0-3.96.706-7.835 2.17-11.324 4.172-3.795 2.177-7.155 5.137-10.132 8.344-5.625 6.06-10.642 12.85-14.303 20.263-1.475 2.986-1.148 6.755-2.98 9.536-5.04 7.647-15.1 10.763-20.859 17.879-3.133 3.869-5.922 8.287-7.152 13.11-1.178 4.62-2.095 10.02 0 14.303 1.99 4.069 6.272 7.527 10.728 8.344 2.658.487 5.543-.822 7.748-2.384 4.636-3.285 10.132-13.707 10.132-13.707 0 0-3.739 3.427-5.364 5.364-1.559 1.858-4.046 3.538-4.172 5.96-.106 2.043 1.852 3.658 2.98 5.364 1.249 1.89 3.086 3.376 4.172 5.364 1.718 3.143 2.274 6.795 3.576 10.132 1.65 4.228 5.364 12.515 5.364 12.515 0 0 1.416-7.52 1.788-11.324.503-5.144-.688-10.488.596-15.495 1.104-4.303 2.875-8.723 5.96-11.92 1.728-1.791 4.144-2.961 6.556-3.576 3.657-.933 7.55-.079 11.324 0 4.771.099 10.572-2.379 14.303.596z" stroke-linejoin="round"/><g stroke-linecap="round"><path d="m674.6 115.44c0 0 8.35 1.594 12.399.729 3.35-.715 6.428-2.619 9.117-4.741 1.894-1.495 3.838-3.232 4.741-5.47.865-2.145.365-6.929.365-6.929"/><path d="m694.29 123.1c0 0 4.858-.634 6.929-1.823 2.683-1.541 4.66-4.125 6.564-6.564.872-1.117 1.717-2.31 2.188-3.647 1.183-3.356 1.459-10.576 1.459-10.576"/><path d="m710.34 129.66c0 0 4.447.737 6.2-.365 2.119-1.332 2.53-4.324 3.647-6.564.534-1.071 1.459-3.282 1.459-3.282"/><path d="m668.76 131.12c0 0-4.37 1.55-6.2 2.917-1.172.877-1.958 2.176-2.917 3.282-1.356 1.564-2.467 3.363-4.01 4.741-.981.875-2.229 1.401-3.282 2.188-.761.568-2.188 1.823-2.188 1.823"/><path d="m750.82 126.75c0 0 1.474-9.483 1.094-14.223-.29-3.615-1.099-7.253-2.553-10.576-.878-2.01-2.621-3.533-3.647-5.47-1.965-3.711-2.154-8.363-4.741-11.67-1.019-1.302-2.516-2.212-4.01-2.917-3.52-1.66-11.305-2.917-11.305-2.917 0 0 7.515 1.25 10.94 0 2.836-1.035 4.606-3.906 6.929-5.835 2.659-2.207 4.769-5.403 8.02-6.564 1.946-.695 4.252.691 6.2 0 2.362-.838 3.558-3.694 5.835-4.741 3.704-1.704 12.03-2.188 12.03-2.188"/><path d="m774.52 165.77c0 0 4.954-12.352 2.553-17.869-1.359-3.123-6.439-3.042-8.388-5.835-1.653-2.37-1.82-5.522-2.188-8.388-.139-1.085 0-3.282 0-3.282"/><path d="m657.82 268.24c0 0 2.676 3.886 4.741 4.741 2.246.93 4.977.737 7.294 0 3.407-1.084 5.882-4.068 8.752-6.2 3.338-2.479 6.807-4.821 9.846-7.658 2.266-2.115 4.214-4.55 6.2-6.929 1.776-2.128 5.106-6.564 5.106-6.564"/><path d="m750.45 241.62c0 0-4.588-7.668-6.564-11.67-1.639-3.32-3.309-6.665-4.376-10.211-.783-2.603-1.459-8.02-1.459-8.02"/><path d="m753.37 217.55c0 0 1.913-5.361 2.917-8.02 1.06-2.809 4.475-5.633 3.282-8.388-1.301-3-6.093-2.394-9.117-3.647-3.421-1.417-8.904-.911-10.211-4.376-.998-2.645 2.465-5.09 3.647-7.658 1.502-3.263 2.917-6.564 4.376-9.846.972-2.188 2.42-4.222 2.917-6.564.681-3.211 0-9.846 0-9.846"/><path d="m753 173.79c0 0 3.561 3.805 4.376 6.2.941 2.764.365 8.752.365 8.752"/><path d="m786.92 188.38c0 0-5.493 4.794-6.929 8.02-1.194 2.687-.049 6-1.094 8.752-.839 2.206-4.01 5.835-4.01 5.835"/><path d="m786.19 243.08c0 0-.608 8.261-.729 12.399-.114 3.888.763 7.855 0 11.67-.31 1.55-1.823 4.376-1.823 4.376"/><path d="m769.05 242.35c0 0 1.895 10.126 5.106 13.858 1.81 2.103 4.711 2.998 7.294 4.01.933.366 2.917.729 2.917.729"/><path d="m735.5 302.16c-.729 1.823-2.04 8.137 0 11.305 1.59 2.47 6.078 1.445 8.02 3.647 1.349 1.527.335 4.443 1.823 5.835 2.283 2.134 9.117 2.188 9.117 2.188"/><path d="m762.85 341.18c0 0 .501 11.333 3.647 15.681 1.918 2.652 5.236 4.222 8.388 5.106 2.575.722 5.362-.264 8.02 0 2.467.244 7.294 1.459 7.294 1.459"/><path d="m682.99 286.84c0 0 8.347-.639 10.576 2.188 2.41 3.056-1.684 8.01-.365 11.67.934 2.593 3 4.977 5.47 6.2 1.529.757 5.106.365 5.106.365"/><path d="m635.94 309.09c0 0 10.884-4.864 14.223-9.482 2.143-2.964.809-7.588 2.917-10.576.856-1.212 2.355-1.823 3.647-2.553 2.085-1.178 6.564-2.917 6.564-2.917"/><path d="m802.24 287.57c0 0-2.989 7.144-3.282 10.94-.274 3.548.837 7.07 1.459 10.576.5 2.817 1.823 8.388 1.823 8.388"/><path d="m807.34 342.64c0 0 3.83 6.571 4.741 10.211.532 2.126.249 4.376.365 6.564.128 2.431-.155 4.916.365 7.294.419 1.919 2.188 5.47 2.188 5.47"/><path d="m827.4 397.71c0 0-1.064 6.432.365 9.117 1.062 1.996 4.338 2.054 5.47 4.01 2.204 3.812.71 8.79 1.459 13.13.722 4.184 2.917 12.399 2.917 12.399"/><path d="m744.62 537.01c0 0 10.883-5.232 16.411-7.658 4.093-1.796 8.161-3.685 12.399-5.106 5-1.677 10.174-2.825 15.317-4.01 3.624-.836 7.431-.957 10.94-2.188 3.745-1.314 10.576-5.47 10.576-5.47"/><path d="m835.42 506.02c0 0 6.06-4.355 7.294-7.658.892-2.395.199-5.166-.365-7.658-.901-3.986-2.522-7.874-4.741-11.305-1.354-2.094-3.914-3.279-5.106-5.47-.958-1.761.375-5.02-1.459-5.835-3.284-1.45-6.254 6.676-9.482 5.106-5.769-2.806-3.586-12.556-3.282-18.963.131-2.769 1.641-5.305 2.188-8.02.919-4.568 1.823-13.858 1.823-13.858"/><path d="m846.73 509.3c0 0 2.489-4.302 4.376-5.835 1.562-1.268 5.47-2.553 5.47-2.553"/><path d="m535.57 294.97c0 0 9.545-.233 14.303-.596 3.587-.274 7.186-.556 10.728-1.192 3.225-.58 9.536-2.384 9.536-2.384"/><path d="m546.9 295.56c0 0-2.234 8.183-4.172 11.92-2.36 4.551-8.539 7.404-8.94 12.515-.139 1.771 2.384 4.768 2.384 4.768"/></g></g><path d="m664.9 89.65c4.254-.552 8.558-.651 12.813-1.192 3.094-.393 6.262-.554 9.238-1.49 3.051-.96 5.721-2.867 8.642-4.172 1.667-.745 4.114-.528 5.066-2.086.624-1.021.449-2.641-.298-3.576-1.235-1.546-3.93-.83-5.662-1.788-2.282-1.262-3.533-4.113-5.96-5.066-2.129-.835-4.637-.86-6.854-.298-1.684.427-3.254 1.44-4.47 2.682-1.681 1.717-2.033 4.417-3.576 6.258-1.993 2.378-4.86 3.867-7.152 5.96-1.141 1.042-2.571 1.904-3.278 3.278-.276.537-.725 1.361-.298 1.788.427.427 1.189-.22 1.788-.298z" fill="#fff" stroke-linecap="round"/></g><g stroke-linecap="round"><path d="m689.94 79.4c0 3.474-2.675 6.289-5.975 6.289-3.3 0-5.975-2.816-5.975-6.289 0-3.474 2.675-6.289 5.975-6.289 3.3 0 5.975 2.816 5.975 6.289z" transform="matrix(.79701 0 0 .8 140.05 17.14)" stroke-linejoin="round" stroke-width="6.262"/><path d="m633.34 140.72c0 0 4.544-.887 6.604-1.887 2.094-1.016 3.929-2.533 5.66-4.088 1.049-.942 2.83-3.145 2.83-3.145" fill="none" stroke-width="5"/></g></g></g></svg>