<svg xmlns="http://www.w3.org/2000/svg" width="701.33" height="741.77" viewBox="0 0 701.3341 741.76859"><g transform="translate(-28.16-60.906)"><path d="m33.841 66.41l13.398 416.62c7.415 175.25 153.92 314.05 331.59 314.14 177.51-.215 324.07-139.06 331.59-314.14l13.398-416.62h-344.98z" fill="#ffd700" fill-rule="evenodd"/><g transform="translate(28.16 60.906)"><g fill="#fff" stroke="#000" stroke-linejoin="round" stroke-linecap="round" stroke-width="11"><path d="m5.68 5.5l11.469 356.63h667.04l11.469-356.63h-344.98-345z"/><path d="m350.67 5.5v356.63h333.52l11.469-356.63h-344.98-.008z"/></g><path d="m151.74 5.5v147.92h-141.3l1.98 61.62h139.32v151.06h61.62v-151.06h137.31v-61.62h-137.31v-147.92h-61.62"/><path d="m350.67 183.81v178.31h333.52l5.734-178.31h-339.25z" fill="#f00" stroke="#000" stroke-linejoin="round" stroke-linecap="round" stroke-width="11"/></g><g stroke="#000" stroke-width="11"><g stroke-linejoin="round"><path d="m467.36 67.3l-38.22 51.29v72.58l-44.2 53.55h82.42 82.42l-44.2-53.55v-72.58l-38.22-51.29zm82.42 177.42h82.42 82.42l-44.2-53.55v-72.58l-38.22-51.29-38.22 51.29v72.58l-44.2 53.55z" fill="#03f" fill-rule="evenodd"/><path d="M350.66797 500.52148A86.81224 112.14703 0 0 0 263.86133 612.57031 112.14703 86.81224 81.43018 0 0 193.04102 575.79688 112.14703 86.81224 81.43018 0 0 186.92578 576.43359 112.14703 86.81224 81.43018 0 0 120.66211 644.52344C180.46 701.35 261.65 736.22 350.67 736.27 439.66 736.16 520.87 701.2 580.68 644.31A86.81224 112.14703 8.569818 0 0 514.41016 576.43359 86.81224 112.14703 8.569818 0 0 508.29492 575.79688 86.81224 112.14703 8.569818 0 0 437.47852 612.56641 86.81224 112.14703 0 0 0 350.66797 500.52148z" transform="translate(28.16 60.906)" fill="#090" stroke-linecap="round"/></g><path d="m33.84 66.41l13.398 416.62c7.415 175.25 153.92 314.05 331.59 314.14 177.51-.215 324.07-139.06 331.59-314.14l13.398-416.62h-344.98z" fill="none" fill-rule="evenodd"/></g><path d="m154.09 446.12v20.453h22.699a37.39332 89.90553 0 0 1 6.78516 51.54688 37.39332 89.90553 0 0 1 -6.83008 51.54687h-22.654v20.453h98.57v-20.453h-22.699a37.39332 89.90553 0 0 1 -6.7832 -51.54687 37.39332 89.90553 0 0 1 6.82812 -51.54688h22.654v-20.453h-98.57m370.74023 0a78.73412 72 0 0 0 -78.73437 72 78.73412 72 0 0 0 78.73437 72 78.73412 72 0 0 0 73.11523 -45.54688h5.619v-20.453h-87.62v20.453h38.22a34.09223 52.32614 0 0 1 -29.33398 25.87305 34.09223 52.32614 0 0 1 -34.0918 -52.32617 34.09223 52.32614 0 0 1 34.0918 -52.32617 34.09223 52.32614 0 0 1 32.42187 36.35351h44.28a78.73412 72 0 0 0 -76.69922 -56.02734"/></g></svg>