<svg xmlns="http://www.w3.org/2000/svg" width="701.33" height="741.77" viewBox="0 0 701.3341 741.76859"><g transform="translate(-19.589-76.62)"><g fill-rule="evenodd"><path d="m25.27 82.12l13.398 416.62c7.415 175.25 153.92 314.05 331.59 314.14 177.51-.215 324.07-139.06 331.59-314.14l13.398-416.62h-344.98z" fill="#ffd700"/><path d="m370.26 82.12l-.008 730.77" fill="none" stroke="#000" stroke-width="11"/></g><g stroke="#000" stroke-width="11"><path d="m5.68 5.5l5.846 181.75 335.96 549c1.061 0 2.122.021 3.186.021v-301.6l-262.62-429.17h-82.37z" transform="translate(19.589 76.62)" fill="#f00" stroke-linejoin="round" stroke-linecap="round"/><path d="m25.27 82.12l13.398 416.62c7.415 175.25 153.92 314.05 331.59 314.14 177.51-.215 324.07-139.06 331.59-314.14l13.398-416.62h-344.98z" fill="none" fill-rule="evenodd"/></g><path d="m522.59 110.79c-7.89 26.979-16.242 53.824-25.05 80.52-14.758 44.731-31.08 89.61-57.787 128.41-4.694 6.819-9.694 13.426-14.98 19.797 24.55 31.1 43.493 66.62 55.646 104.34 2.75 8.535 5.142 17.18 7.193 25.914-2.71-.203-5.416-.445-8.119-.725-12.401-1.285-24.74-3.387-36.727-6.816-7.491-2.143-14.835-4.802-21.961-7.951 2.398 5.719 4.179 11.696 5.301 17.795 1.987 10.797 1.867 22.12-1.516 32.563-2.048 6.322-5.274 12.261-9.465 17.418 6.871-3.686 13.954-6.976 21.2-9.846 12.356-4.892 25.341-8.588 38.621-9.09 6.342-.238 12.709.275 18.938 1.49 1.571 12.503 2.437 25.09 2.582 37.693h-25.15c-.039 9.674-3.96 19.278-10.701 26.22-2.526 2.599-5.446 4.844-8.723 6.393-3.277 1.548-6.921 2.383-10.539 2.168-5.03-.299-9.803-2.617-13.646-5.877-3.844-3.259-6.83-7.421-9.361-11.779-3.589-6.18-6.339-12.845-8.152-19.758-7.331 13.212-11.667 28.07-12.588 43.16-1.458 23.86 5.982 48.42 21.578 66.53 9.91 11.511 22.824 20.248 36.799 26.2 13.974 5.953 29 9.194 44.12 10.662 7.467.725 14.977 1.027 22.479.9 7.501.127 15.01-.175 22.477-.9 15.12-1.469 30.15-4.709 44.12-10.662 13.974-5.953 26.889-14.69 36.799-26.2 15.596-18.12 23.04-42.673 21.578-66.53-.921-15.08-5.257-29.944-12.588-43.16-1.813 6.912-4.564 13.578-8.152 19.758-2.531 4.358-5.517 8.52-9.361 11.779-3.844 3.259-8.614 5.578-13.645 5.877-3.618.215-7.262-.62-10.539-2.168-3.277-1.548-6.197-3.793-8.723-6.393-6.742-6.939-10.662-16.542-10.701-26.22h-25.15c.145-12.6 1.013-25.19 2.584-37.693 6.228-1.215 12.594-1.728 18.936-1.49 13.28.498 26.26 4.194 38.621 9.09 7.249 2.87 14.333 6.16 21.2 9.846-4.191-5.157-7.419-11.1-9.467-17.418-3.383-10.444-3.5-21.766-1.514-32.563 1.122-6.099 2.903-12.08 5.301-17.795-7.126 3.15-14.47 5.808-21.961 7.951-11.987 3.429-24.326 5.532-36.727 6.816-2.702.28-5.408.522-8.117.725 2.052-8.729 4.443-17.379 7.193-25.914 12.153-37.715 31.09-73.23 55.645-104.34-5.286-6.371-10.287-12.978-14.98-19.797-26.705-38.801-43.03-83.68-57.787-128.41-8.807-26.694-17.16-53.54-25.05-80.52m0 479.91797a22.497833 22.497831 0 0 1 22.49609 22.49804 22.497833 22.497831 0 0 1 -22.49609 22.49805 22.497833 22.497831 0 0 1 -22.49805 -22.49805 22.497833 22.497831 0 0 1 22.49805 -22.49804" fill-rule="evenodd"/></g></svg>