<?xml version="1.0" encoding="UTF-8" standalone="no"?>
<svg
   xmlns:dc="http://purl.org/dc/elements/1.1/"
   xmlns:cc="http://creativecommons.org/ns#"
   xmlns:rdf="http://www.w3.org/1999/02/22-rdf-syntax-ns#"
   xmlns:svg="http://www.w3.org/2000/svg"
   xmlns="http://www.w3.org/2000/svg"
   xmlns:xlink="http://www.w3.org/1999/xlink"
   xmlns:sodipodi="http://sodipodi.sourceforge.net/DTD/sodipodi-0.dtd"
   xmlns:inkscape="http://www.inkscape.org/namespaces/inkscape"
   viewBox="0 0 977.12 1069.13"
   version="1.1"
   id="svg983"
   sodipodi:docname="DEU_Ippesheim_COA.svg"
   inkscape:version="0.92.5 (2060ec1f9f, 2020-04-08)">
  <metadata
     id="metadata987">
    <rdf:RDF>
      <cc:Work
         rdf:about="">
        <dc:format>image/svg+xml</dc:format>
        <dc:type
           rdf:resource="http://purl.org/dc/dcmitype/StillImage" />
        <dc:title></dc:title>
      </cc:Work>
    </rdf:RDF>
  </metadata>
  <sodipodi:namedview
     pagecolor="#ffffff"
     bordercolor="#666666"
     borderopacity="1"
     objecttolerance="10"
     gridtolerance="10"
     guidetolerance="10"
     inkscape:pageopacity="0"
     inkscape:pageshadow="2"
     inkscape:window-width="1920"
     inkscape:window-height="1046"
     id="namedview985"
     showgrid="false"
     inkscape:zoom="0.74278611"
     inkscape:cx="488.55686"
     inkscape:cy="535.34419"
     inkscape:window-x="-11"
     inkscape:window-y="-11"
     inkscape:window-maximized="1"
     inkscape:current-layer="svg983" />
  <defs
     id="defs903">
    <path
       id="0"
       d="m-901.49 430.22c0 22.931-18.292 41.52-40.856 41.52-22.564 0-40.856-18.589-40.856-41.52 0-22.931 18.292-41.52 40.856-41.52 22.564 0 40.856 18.589 40.856 41.52z"
       stroke="#000"
       stroke-width="5.342" />
  </defs>
  <path
     d="m798.38 10.03c-26.17.053-51.02.198-70.798.478-79.11 1.122-156.7-.214-235.05 0-2.653.007-5.305.036-7.958.043-78.35.214-155.94 1.122-235.05 0-79.11-1.122-239.53 0-239.53 0 0 0 4.995 48.18 6.784 72.32 3.067 41.38 4.256 82.87 6.784 124.29 3.405 55.766 7.902 111.49 11.307 167.25 2.529 41.41 3.91 82.9 6.784 124.29 4.346 62.59 5.02 125.75 15.786 187.56 6.02 34.562 14.418 68.979 27.14 101.67 15.355 39.473 33.473 78.71 58.839 112.63 18.288 24.456 41.648 45.04 65.884 63.62 27.747 21.272 57.962 39.816 89.93 53.968 33.818 14.97 69.917 25.08 106.24 32.09 27.334 5.278 55.35 7.255 83.19 7.349 27.662.094 55.55-1.52 82.71-6.741 36.46-7.01 72.54-17.626 106.46-32.746 31.934-14.235 62.23-32.696 89.98-53.968 24.24-18.58 47.595-39.17 65.884-63.62 25.365-33.919 43.484-73.16 58.839-112.63 12.718-32.695 21.12-67.16 27.14-101.72 10.762-61.814 11.44-124.97 15.786-187.56 2.874-41.39 4.256-82.87 6.784-124.29 3.405-55.766 7.902-111.44 11.307-167.21 2.529-41.41 3.717-82.909 6.784-124.29 1.79-24.14 6.784-72.32 6.784-72.32 0 0-90.24-.636-168.73-.478"
     fill="#da121a"
     id="path905" />
  <path
     style="fill:#fcdd09;stroke:#000000;stroke-width:5"
     d="m 20.5,147.58 c 0.95,19.859 1.851,39.719 3.063,59.56 3.405,55.766 7.908,111.48 11.313,167.25 2.403,39.36 3.778,78.81 6.375,118.16 l 560.03,551.69 c 26.2,-6.571 51.954,-15.16 76.56,-26.12 31.934,-14.235 62.22,-32.697 89.97,-53.969 15.14,-11.604 29.944,-24 43.37,-37.625 L 20.491,147.586 Z"
     id="path907"
     inkscape:connector-curvature="0" />
  <path
     style="fill:#fcdd09;stroke:#000000;stroke-width:5"
     d="m 210.466,10.207 705.62,695.09 c 1.287,-6.369 2.482,-12.739 3.594,-19.12 10.762,-61.814 11.436,-124.97 15.781,-187.56 2.167,-31.21 3.492,-62.47 5.094,-93.72 L 540.245,10.557 c -15.89,-0.051 -31.786,-0.106 -47.719,-0.063 -2.653,0.007 -5.285,0.055 -7.938,0.063 -78.35,0.214 -155.96,1.122 -235.06,0 -11.474,-0.163 -24.905,-0.265 -39.06,-0.344 z"
     id="path909"
     inkscape:connector-curvature="0" />
  <path
     style="fill:none;stroke:#000000;stroke-width:20"
     inkscape:connector-curvature="0"
     id="path913"
     d="m 798.38,10.025 c -26.17,0.053 -51.02,0.198 -70.798,0.478 -79.11,1.122 -156.7,-0.214 -235.05,0 -2.653,0.007 -5.305,0.036 -7.958,0.043 -78.35,0.214 -155.94,1.122 -235.05,0 -79.11,-1.122 -239.53,0 -239.53,0 0,0 4.995,48.18 6.784,72.32 3.067,41.38 4.256,82.87 6.784,124.29 3.405,55.766 7.902,111.49 11.307,167.25 2.529,41.41 3.91,82.9 6.784,124.29 4.346,62.59 5.02,125.75 15.786,187.56 6.02,34.562 14.418,68.979 27.14,101.67 15.355,39.473 33.473,78.71 58.839,112.63 18.288,24.456 41.648,45.04 65.884,63.62 27.747,21.272 57.962,39.816 89.93,53.968 33.818,14.97 69.917,25.08 106.24,32.09 27.334,5.278 55.35,7.255 83.19,7.349 27.662,0.094 55.55,-1.52 82.71,-6.741 36.46,-7.01 72.54,-17.626 106.46,-32.746 31.934,-14.235 62.23,-32.696 89.98,-53.968 24.24,-18.58 47.595,-39.17 65.884,-63.62 25.365,-33.919 43.484,-73.16 58.839,-112.63 12.718,-32.695 21.12,-67.16 27.14,-101.72 10.762,-61.814 11.44,-124.97 15.786,-187.56 2.874,-41.39 4.256,-82.87 6.784,-124.29 3.405,-55.766 7.902,-111.44 11.307,-167.21 2.529,-41.41 3.717,-82.909 6.784,-124.29 1.79,-24.14 6.784,-72.32 6.784,-72.32 0,0 -90.24,-0.636 -168.73,-0.478 z" />
  <path
     d="m651.8 239.83c-13.786.028-26.883.106-37.3.258-41.681.604-82.57-.115-123.85 0-1.398.004-2.795.019-4.193.023-41.28.115-82.17.604-123.85 0-41.681-.604-126.21 0-126.21 0 0 0 2.632 25.935 3.575 38.933 1.616 22.276 2.242 44.614 3.575 66.91 1.794 30.02 4.163 60.02 5.957 90.04 1.332 22.295 2.06 44.627 3.575 66.91 2.29 33.697 2.647 67.7 8.318 100.97 3.17 18.606 7.597 37.13 14.298 54.736 8.09 21.25 17.637 42.38 31 60.64 9.636 13.166 21.945 24.25 34.714 34.25 14.62 11.452 30.54 21.435 47.39 29.05 17.819 8.06 36.839 13.502 55.978 17.278 14.402 2.841 29.17 3.906 43.834 3.957 14.575.051 29.27-.818 43.582-3.629 19.211-3.772 38.22-9.489 56.09-17.629 16.826-7.663 32.788-17.602 47.41-29.05 12.77-10 25.08-21.09 34.714-34.25 13.365-18.26 22.912-39.39 31-60.64 6.701-17.601 11.128-36.15 14.298-54.759 5.67-33.28 6.03-67.28 8.318-100.97 1.514-22.283 2.242-44.614 3.575-66.91 1.794-30.02 4.164-59.996 5.958-90.02 1.332-22.295 1.959-44.634 3.575-66.91.943-12.998 3.575-38.933 3.575-38.933 0 0-47.546-.342-88.9-.258z"
     fill="#fff"
     stroke="#000"
     stroke-width="5"
     id="path927" />
  <path
     style="fill:#000000"
     inkscape:connector-curvature="0"
     id="path929"
     d="m 600.18,520.89 -31.875,71.75 130.22,66.44 3.25,-1.469 c 6.497,-17.313 10.825,-35.516 13.938,-53.781 4.562,-26.772 5.699,-54.01 7.156,-81.19 l -122.69,-1.75" />
  <path
     style="fill:#000000"
     inkscape:connector-curvature="0"
     id="path931"
     d="m 376.9,520.89 -122.66,1.75 c 1.458,27.19 2.592,54.43 7.156,81.22 3.109,18.245 7.421,36.424 13.906,53.719 l 3.281,1.5 130.22,-66.44 -31.906,-71.75" />
  <path
     style="fill:#000000"
     inkscape:connector-curvature="0"
     id="path933"
     d="m 316.12,315.77 97.16,89.59 h 93.78 z M 568.9,528.86 701.41,658.58 c 1.231,-3.043 -1.171,3.052 -0.007,-0.004 6.701,-17.601 11.142,-36.14 14.313,-54.75 3.094,-18.16 4.58,-56.55 5.688,-74.969 z" />
  <path
     style="fill:#000000"
     inkscape:connector-curvature="0"
     id="path935"
     d="m 661,315.74 -191,89.62 h 93.81 z M 255.69,528.86 c 1.108,18.443 2.621,56.821 5.719,75 3.17,18.606 7.58,37.15 14.281,54.75 l 132.5,-129.75 z" />
  <path
     style="fill:#000000"
     inkscape:connector-curvature="0"
     id="path937"
     d="m 236.4,240.11 c 0,0 2.62,25.94 3.563,38.938 1.616,22.276 2.261,44.611 3.594,66.906 1.184,19.809 2.583,39.604 3.938,59.41 h 482.09 c 0.529,-7.74 1.06,-15.48 1.594,-23.22 l -415.06,-66.37 -79.72,-75.66" />
  <path
     style="fill:#000000"
     inkscape:connector-curvature="0"
     id="path939"
     d="M 740.72,240.08 661,315.74 245.94,382.11 c 0.534,7.735 1.033,15.483 1.563,23.22 h 482.09 c 1.355,-19.802 2.785,-39.59 3.969,-59.41 1.332,-22.295 1.947,-44.63 3.563,-66.906 0.943,-12.998 3.594,-38.938 3.594,-38.938" />
  <path
     style="fill:#000000"
     inkscape:connector-curvature="0"
     id="path941"
     d="m 490.65,240.08 c -1.398,0.004 -2.79,0.027 -4.188,0.031 -21.05,0.059 -42,0.191 -63,0.25 l 0.344,546.78 c 14.547,5.603 5.724,9.68 20.969,12.688 5.401,1.066 10.864,1.866 16.344,2.469 7.307,0.803 14.657,1.25 22,1.406 1.836,0.039 3.666,0.056 5.5,0.063 5.466,0.019 10.937,-0.082 16.406,-0.375 3.646,-0.195 7.308,-0.47 10.938,-0.844 3.63,-0.374 7.245,-0.852 10.844,-1.438 1.8,-0.293 3.586,-0.617 5.375,-0.969 15.324,-3.01 6.532,-7.242 21.12,-12.969 l 0.344,-546.91 c -0.407,-0.002 -0.812,0.002 -1.219,0 -10.09,-0.044 -20.17,-0.115 -30.25,-0.156 -0.208,0 -0.417,0 -0.625,0 -5.04,-0.02 -10.08,-0.024 -15.12,-0.031 -5.252,-0.008 -10.519,-0.015 -15.781,0" />
  <path
     d="m600.19 315.56c-9.428.021-18.384.078-25.51.188-28.503.442-56.46-.084-84.69 0-.956.003-1.912.014-2.867.017-28.23.084-56.19.442-84.69 0-28.503-.442-86.31 0-86.31 0 0 0 1.8 18.97 2.444 28.477 1.105 16.293 1.533 32.632 2.445 48.94 1.227 21.958 2.847 43.9 4.074 65.858.911 16.308 1.409 32.641 2.444 48.94 1.566 24.647 1.81 49.52 5.688 73.855 2.168 13.609 5.195 27.16 9.778 40.04 5.533 15.543 12.06 30.994 21.2 44.35 6.59 9.63 15.01 17.736 23.739 25.05 9.998 8.376 20.885 15.678 32.404 21.251 12.185 5.895 25.19 9.876 38.28 12.637 9.849 2.078 19.945 2.857 29.975 2.894 9.967.037 20.01-.598 29.803-2.654 13.14-2.759 26.14-6.94 38.36-12.894 11.506-5.605 22.422-12.874 32.42-21.251 8.732-7.316 17.15-15.422 23.739-25.05 9.14-13.356 15.668-28.808 21.2-44.35 4.583-12.874 7.61-26.443 9.778-40.05 3.878-24.34 4.122-49.21 5.688-73.855 1.035-16.299 1.533-32.632 2.444-48.94 1.227-21.958 2.847-43.883 4.074-65.841.911-16.308 1.339-32.647 2.444-48.94.645-9.507 2.444-28.477 2.444-28.477 0 0-32.514-.25-60.797-.188z"
     fill="#fff"
     stroke="#000"
     stroke-width="5"
     id="path945" />
  <path
     d="m471.75 773.39l-47.938 13.75.344 7.906c6.822 1.84 13.722 3.419 20.625 4.781 14.402 2.841 29.18 3.886 43.844 3.938 14.575.051 29.25-.815 43.563-3.625 7.544-1.481 15.07-3.265 22.5-5.375-.41-2.256-1.375-7.594-1.375-7.594l-81.56-13.781"
     fill="#000"
     id="path947" />
  <use
     y="0"
     x="0"
     style="fill:#0f47af"
     id="use949"
     height="1069.13"
     width="977.12"
     xlink:href="#0"
     transform="matrix(0.93594,0,0,0.936,1370.54,250.65)" />
  <use
     style="fill:#0f47af;stroke:#000000"
     transform="matrix(0.93594,0,0,0.936,1332.298,183.357)"
     xlink:href="#0"
     width="977.12"
     height="1069.13"
     id="use951"
     x="0"
     y="0" />
  <use
     style="fill:#0f47af;stroke:#000000"
     transform="matrix(0.93594,0,0,0.936,1408.78,183.357)"
     xlink:href="#0"
     width="977.12"
     height="1069.13"
     id="use953"
     x="0"
     y="0" />
  <use
     style="fill:#0f47af;stroke:#000000"
     y="0"
     x="0"
     id="use957"
     transform="matrix(0.93594,0,0,0.936,1370.54,116.06)"
     xlink:href="#0"
     width="977.12"
     height="1069.13" />
  <use
     style="fill:#0f47af;stroke:#000000"
     y="0"
     x="0"
     id="use959"
     transform="matrix(0.93594,0,0,0.936,1447.01,116.06)"
     xlink:href="#0"
     width="977.12"
     height="1069.13" />
  <use
     style="fill:#0f47af;stroke:#000000"
     y="0"
     x="0"
     id="use961"
     transform="matrix(0.93594,0,0,0.936,1294.06,116.06)"
     xlink:href="#0"
     width="977.12"
     height="1069.13" />
  <use
     style="fill:#0f47af;stroke:#000000"
     y="0"
     x="0"
     id="use965"
     transform="matrix(0.93594,0,0,0.936,1255.819,48.775)"
     xlink:href="#0"
     width="977.12"
     height="1069.13" />
  <use
     style="fill:#0f47af;stroke:#000000"
     y="0"
     x="0"
     id="use967"
     transform="matrix(0.93594,0,0,0.936,1332.297,48.775)"
     xlink:href="#0"
     width="977.12"
     height="1069.13" />
  <use
     style="fill:#0f47af;stroke:#000000"
     height="1069.13"
     width="977.12"
     xlink:href="#0"
     transform="matrix(0.93594,0,0,0.936,1408.778,48.77)"
     id="use969"
     x="0"
     y="0" />
  <use
     style="fill:#0f47af;stroke:#000000"
     height="1069.13"
     width="977.12"
     xlink:href="#0"
     transform="matrix(0.93594,0,0,0.936,1485.26,48.77)"
     id="use971"
     x="0"
     y="0" />
  <path
     d="m496.16 424.48c0 0 3.756-20.13-.664-28.566-4.194-8-13.749-12.09-21.923-15.944-7.24-3.41-15.312-4.974-23.25-5.979-5.273-.667-15.944 0-15.944 0 0 0 7.534-2.744 9.301-5.979.743-1.361-.293-3.128 0-4.65.451-2.342 2.657-6.643 2.657-6.643 0 0-3.852 7.953-1.993 11.294 2.319 4.168 8.668 4.123 13.287 5.315 6.915 1.784 14.12 2.772 21.258 2.657 8.518-.137 16.986-1.895 25.24-3.986 3.87-.98 7.736-2.175 11.294-3.986 3.832-1.95 7.126-4.814 10.629-7.308 4.258-3.03 12.622-9.301 12.622-9.301"
     fill="none"
     stroke="#000"
     stroke-linejoin="round"
     stroke-linecap="round"
     stroke-width="5"
     id="path981" />
</svg>
