<?xml version="1.0" encoding="UTF-8" standalone="no"?>
<!-- Created with Inkscape (http://www.inkscape.org/) -->

<svg
   width="101.78844mm"
   height="113.57997mm"
   viewBox="0 0 101.78844 113.57997"
   version="1.1"
   id="svg2724"
   inkscape:version="1.2.2 (732a01da63, 2022-12-09)"
   sodipodi:docname="DEU Jade COA.svg"
   xmlns:inkscape="http://www.inkscape.org/namespaces/inkscape"
   xmlns:sodipodi="http://sodipodi.sourceforge.net/DTD/sodipodi-0.dtd"
   xmlns="http://www.w3.org/2000/svg"
   xmlns:svg="http://www.w3.org/2000/svg">
  <sodipodi:namedview
     id="namedview2726"
     pagecolor="#ffffff"
     bordercolor="#666666"
     borderopacity="1.0"
     inkscape:showpageshadow="2"
     inkscape:pageopacity="0.0"
     inkscape:pagecheckerboard="0"
     inkscape:deskcolor="#d1d1d1"
     inkscape:document-units="mm"
     showgrid="false"
     inkscape:zoom="1.2897558"
     inkscape:cx="192.28446"
     inkscape:cy="215.15701"
     inkscape:current-layer="layer1" />
  <defs
     id="defs2721">
    <inkscape:path-effect
       effect="join_type"
       id="path-effect2194"
       is_visible="true"
       lpeversion="1"
       linecap_type="butt"
       line_width="0.60000002"
       linejoin_type="extrp_arc"
       miter_limit="100"
       attempt_force_join="true" />
    <inkscape:path-effect
       effect="join_type"
       id="path-effect2070"
       is_visible="true"
       lpeversion="1"
       linecap_type="butt"
       line_width="0.60000002"
       linejoin_type="extrp_arc"
       miter_limit="100"
       attempt_force_join="true" />
    <inkscape:path-effect
       effect="join_type"
       id="path-effect2220"
       is_visible="true"
       lpeversion="1"
       linecap_type="butt"
       line_width="0.60000002"
       linejoin_type="extrp_arc"
       miter_limit="100"
       attempt_force_join="true" />
    <inkscape:path-effect
       effect="join_type"
       id="path-effect2224"
       is_visible="true"
       lpeversion="1"
       linecap_type="butt"
       line_width="0.60000002"
       linejoin_type="extrp_arc"
       miter_limit="100"
       attempt_force_join="true" />
  </defs>
  <g
     inkscape:label="Ebene 1"
     inkscape:groupmode="layer"
     id="layer1"
     transform="translate(-584.63544,-82.90069)">
    <g
       id="g2545"
       transform="translate(536.53751,-17.45038)">
      <path
         id="path1734"
         style="fill:#0081ff;fill-opacity:1;stroke:none;stroke-width:1.3;stroke-dasharray:none"
         d="m 48.747929,101.00107 v 61.44586 a 50.244247,50.83416 0 0 0 50.243961,50.83411 50.244247,50.83416 0 0 0 50.24448,-50.83411 50.244247,50.83416 0 0 0 0,-5.1e-4 v -61.44535 z" />
      <path
         id="path1911"
         style="fill:#ffe600;fill-opacity:1;stroke:#000000;stroke-width:0.8;stroke-dasharray:none"
         d="m 62.180184,107.67508 v 15.12776 c 0,4.22692 -3.438801,7.25279 -7.81451,7.25279 h -5.617745 v 32.3913 a 50.244247,50.83416 0 0 0 1.364258,11.74606 h 48.879703 48.88022 a 50.244247,50.83416 0 0 0 1.36426,-11.74606 50.244247,50.83416 0 0 0 0,-5.1e-4 v -32.39079 h -5.61775 c -4.3757,0 -7.81451,-3.02587 -7.81451,-7.25279 V 107.67508 H 98.99189 Z" />
      <g
         id="g2202">
        <g
           id="g2190"
           transform="translate(0,17.462503)">
          <path
             style="fill:#eb0000;fill-opacity:1;stroke:none;stroke-width:0.600001;stroke-linecap:round;stroke-dasharray:none"
             d="m 63.415319,144.62626 19.997949,2.71358 -20.037276,2.73325 z"
             id="path2186" />
          <path
             style="fill:#000000;fill-rule:nonzero;stroke:none;stroke-width:0.6;stroke-linecap:round;stroke-dasharray:none"
             d="m 63.35746,150.3454 22.22652,-3.02522 -22.22652,-3.02522 -0.08092,0.59452 20.042534,2.72796 v -0.59452 l -20.042534,2.72796 z"
             id="path2188"
             sodipodi:nodetypes="ccc"
             inkscape:path-effect="#path-effect2194"
             inkscape:original-d="M 63.317,150.04814 83.359534,147.32018 63.317,144.59222" />
        </g>
        <g
           id="g2184">
          <path
             style="fill:#eb0000;fill-opacity:1;stroke:none;stroke-width:0.600001;stroke-linecap:round;stroke-dasharray:none"
             d="m 63.415319,144.62626 19.997949,2.71358 -20.037276,2.73325 z"
             id="path2072" />
          <path
             style="fill:#000000;fill-rule:nonzero;stroke:none;stroke-width:0.6;stroke-linecap:round;stroke-dasharray:none"
             d="m 63.35746,150.3454 22.22652,-3.02522 -22.22652,-3.02522 -0.08092,0.59452 20.042534,2.72796 v -0.59452 l -20.042534,2.72796 z"
             id="path2068"
             sodipodi:nodetypes="ccc"
             inkscape:path-effect="#path-effect2070"
             inkscape:original-d="M 63.317,150.04814 83.359534,147.32018 63.317,144.59222" />
        </g>
      </g>
      <path
         style="fill:#ffff00;stroke:#000000;stroke-width:0.799999;stroke-dasharray:none"
         d="m 55.116687,130.02548 v 44.16751"
         id="path2038" />
      <path
         style="fill:#ffff00;stroke:#000000;stroke-width:0.799999;stroke-dasharray:none"
         d="m 142.86761,130.02548 v 44.16751"
         id="path2040"
         inkscape:transform-center-x="-43.875463"
         inkscape:transform-center-y="33.926519" />
      <path
         style="fill:none;stroke:#000000;stroke-width:0.799999;stroke-linecap:round;stroke-dasharray:none"
         d="m 134.66729,133.79158 c 0,0 -13.60758,-9.59587 -35.675143,-9.59587 -22.067563,0 -35.675147,9.59587 -35.675147,9.59587"
         id="path2048"
         sodipodi:nodetypes="czc" />
      <path
         style="fill:none;stroke:#000000;stroke-width:0.799999;stroke-linecap:round;stroke-dasharray:none"
         d="m 63.317001,174.19299 -10e-7,-34.26595 c 0,0 13.607584,-9.59587 35.675147,-9.59587 22.067563,0 35.675143,9.59587 35.675143,9.59587 v 34.26595"
         id="path2050"
         sodipodi:nodetypes="czc" />
      <path
         style="fill:none;stroke:#000000;stroke-width:0.799999;stroke-linecap:round;stroke-dasharray:none"
         d="m 96.718383,130.36525 v 43.82774"
         id="path2054" />
      <path
         style="fill:none;stroke:#000000;stroke-width:0.799999;stroke-linecap:round;stroke-dasharray:none"
         d="m 101.26591,130.36525 v 43.82774"
         id="path2056"
         inkscape:transform-center-x="-2.2737633"
         inkscape:transform-center-y="-8.0227754" />
      <path
         style="fill:none;stroke:#000000;stroke-width:0.799999;stroke-linecap:round;stroke-dasharray:none"
         d="M 63.317,154.63506 H 96.718381"
         id="path2060" />
      <path
         style="fill:none;stroke:#000000;stroke-width:0.799999;stroke-linecap:round;stroke-dasharray:none"
         d="m 101.26591,154.63506 h 33.40138"
         id="path2062" />
      <g
         id="g2216"
         inkscape:transform-center-x="-24.561883"
         inkscape:transform-center-y="-16.124206"
         transform="matrix(-1,0,0,1,197.734,0)">
        <g
           id="g2208"
           transform="translate(0,17.462503)">
          <path
             style="fill:#eb0000;fill-opacity:1;stroke:none;stroke-width:0.600001;stroke-linecap:round;stroke-dasharray:none"
             d="m 63.415319,144.62626 19.997949,2.71358 -20.037276,2.73325 z"
             id="path2204" />
          <path
             style="fill:#000000;fill-rule:nonzero;stroke:none;stroke-width:0.6;stroke-linecap:round;stroke-dasharray:none"
             d="m 63.35746,150.3454 22.22652,-3.02522 -22.22652,-3.02522 -0.08092,0.59452 20.042534,2.72796 v -0.59452 l -20.042534,2.72796 z"
             id="path2206"
             sodipodi:nodetypes="ccc"
             inkscape:path-effect="#path-effect2220"
             inkscape:original-d="M 63.317,150.04814 83.359534,147.32018 63.317,144.59222" />
        </g>
        <g
           id="g2214">
          <path
             style="fill:#eb0000;fill-opacity:1;stroke:none;stroke-width:0.600001;stroke-linecap:round;stroke-dasharray:none"
             d="m 63.415319,144.62626 19.997949,2.71358 -20.037276,2.73325 z"
             id="path2210" />
          <path
             style="fill:#000000;fill-rule:nonzero;stroke:none;stroke-width:0.6;stroke-linecap:round;stroke-dasharray:none"
             d="m 63.35746,150.3454 22.22652,-3.02522 -22.22652,-3.02522 -0.08092,0.59452 20.042534,2.72796 v -0.59452 l -20.042534,2.72796 z"
             id="path2212"
             sodipodi:nodetypes="ccc"
             inkscape:path-effect="#path-effect2224"
             inkscape:original-d="M 63.317,150.04814 83.359534,147.32018 63.317,144.59222" />
        </g>
      </g>
      <g
         id="g2360">
        <g
           id="g2346">
          <path
             style="fill:none;stroke:#000000;stroke-width:0.7;stroke-linecap:round;stroke-dasharray:none"
             d="M 58.273272,164.81217 H 63.317"
             id="path2340" />
          <path
             style="fill:none;stroke:#000000;stroke-width:0.7;stroke-linecap:round;stroke-dasharray:none"
             d="m 59.674307,167.33403 v -5.04372"
             id="path2342" />
        </g>
        <g
           id="g2352"
           transform="translate(2.1575764e-7,-17.49199)">
          <path
             style="fill:none;stroke:#000000;stroke-width:0.7;stroke-linecap:round;stroke-dasharray:none"
             d="M 58.273272,164.81217 H 63.317"
             id="path2348" />
          <path
             style="fill:none;stroke:#000000;stroke-width:0.7;stroke-linecap:round;stroke-dasharray:none"
             d="m 59.674307,167.33403 v -5.04372"
             id="path2350" />
        </g>
      </g>
      <g
         id="g2374"
         inkscape:transform-center-x="-38.197007"
         inkscape:transform-center-y="12.191472"
         transform="matrix(-1,0,0,1,198.45784,0)">
        <g
           id="g2366">
          <path
             style="fill:none;stroke:#000000;stroke-width:0.7;stroke-linecap:round;stroke-dasharray:none"
             d="M 58.273272,164.81217 H 63.317"
             id="path2362" />
          <path
             style="fill:none;stroke:#000000;stroke-width:0.7;stroke-linecap:round;stroke-dasharray:none"
             d="m 59.674307,167.33403 v -5.04372"
             id="path2364" />
        </g>
        <g
           id="g2372"
           transform="translate(2.1575764e-7,-17.49199)">
          <path
             style="fill:none;stroke:#000000;stroke-width:0.7;stroke-linecap:round;stroke-dasharray:none"
             d="M 58.273272,164.81217 H 63.317"
             id="path2368" />
          <path
             style="fill:none;stroke:#000000;stroke-width:0.7;stroke-linecap:round;stroke-dasharray:none"
             d="m 59.674307,167.33403 v -5.04372"
             id="path2370" />
        </g>
      </g>
      <path
         id="path2468"
         style="fill:none;stroke:#000000;stroke-width:1.3;stroke-dasharray:none"
         d="m 48.747929,101.00107 v 61.44586 a 50.244247,50.83416 0 0 0 50.243961,50.83411 50.244247,50.83416 0 0 0 50.24448,-50.83411 50.244247,50.83416 0 0 0 0,-5.1e-4 v -61.44535 z" />
      <g
         id="g1636"
         transform="translate(-171.39125,12.626322)">
        <path
           style="fill:#000000;stroke:#000000;stroke-width:0.6;stroke-dasharray:none"
           d="m 263.84706,172.07673 7.31487,-3.50013 c 0,0 2.51695,1.49444 6.64633,3.91307 4.12938,2.41863 7.4132,3.44114 7.4132,3.44114 l -2.73325,4.73895 -12.54993,-1.99937 z"
           id="path1554" />
        <path
           style="fill:#ffffff;stroke:none;stroke-width:0.1;stroke-dasharray:none"
           d="m 266.83594,172.98126 c 0,0 3.4018,-4.26701 4.24736,-3.44114 0.84552,0.82587 0.41293,1.16016 0.66854,1.57309 0.25565,0.41294 1.63209,-0.62924 2.12368,-0.23596 0.4916,0.39327 0.2163,1.17982 0.47194,1.39612 0.25561,0.2163 1.00285,-0.53092 1.55342,-0.13765 0.5506,0.39328 0.41294,1.08151 0.62923,1.31747 0.2163,0.23596 1.29783,-0.39327 1.86806,-0.0393 0.57025,0.35395 0.41293,1.06184 0.96351,1.39612 0.45413,0.27573 1.31747,-0.41293 1.71075,-0.15731 0.39327,0.25563 0.15732,1.12083 0.57025,1.37646 0.41294,0.25563 1.19947,-0.68823 1.61243,-0.33428 0.41293,0.35394 0.43259,1.16015 -0.2753,2.26132 -0.70789,1.10116 -1.27815,1.41578 -1.27815,1.41578 l -8.45537,-2.22199 z"
           id="path1558"
           sodipodi:nodetypes="cssssssssssssccc" />
        <g
           id="g1552">
          <path
             style="fill:#ffffff;stroke:#000000;stroke-width:0.600001;stroke-dasharray:none"
             d="m 232.89721,169.88287 c 0,0 12.09675,-3.8654 22.05223,-1.75194 9.95549,2.11345 15.11189,7.74599 22.1913,9.62178 6.54859,1.73514 14.86054,1.88333 17.29696,-1.55729 2.18338,-3.08327 1.55727,-8.78752 1.55727,-8.78752 0,0 4.42158,3.198 7.56395,3.30923 3.14237,0.11124 8.84314,-3.8654 8.84314,-3.8654 0,0 -9.40465,21.37583 -30.26779,23.88582 -34.4536,4.14502 -50.33898,-15.88824 -50.33898,-15.88824 l 3.21538,-1.76845 z"
             id="path1028"
             sodipodi:nodetypes="cssscscsc" />
          <circle
             style="fill:none;stroke:#000000;stroke-width:0.600001;stroke-dasharray:none"
             id="path1185"
             cx="242.60242"
             cy="173.02524"
             r="1.390431" />
          <path
             id="path1187"
             style="fill:#000000;stroke:#000000;stroke-width:0.3;stroke-dasharray:none"
             d="m 248.25771,167.49934 c -1.03011,0.003 -2.04908,0.0464 -3.04477,0.1173 1.24411,2.17376 3.08964,6.06387 2.3921,9.04183 -0.68754,2.93528 -3.00209,5.55497 -4.62349,7.09465 8.24735,4.72387 21.16897,9.14816 39.15265,6.98459 4.82507,-0.58049 9.03601,-2.17123 12.66073,-4.27209 -1.3943,-0.56446 -3.1553,-1.63564 -3.96927,-3.59358 -0.66447,-1.59831 -0.9664,-3.08571 -1.10019,-4.23488 -3.61747,0.67253 -8.45157,0.21045 -12.58476,-0.8847 -7.07941,-1.87579 -12.23593,-7.50819 -22.19141,-9.62164 -2.17776,-0.46232 -4.45794,-0.63831 -6.69159,-0.63148 z" />
          <path
             id="path1192"
             style="fill:#000000;stroke:#000000;stroke-width:0.3;stroke-dasharray:none"
             d="m 312.40212,166.85183 c 0,0 -5.70102,3.97664 -8.84339,3.8654 -3.14236,-0.11123 -7.56388,-3.30936 -7.56388,-3.30936 0,0 0.82103,5.42622 -1.36235,8.50949 -0.28532,0.40292 -2.73974,2.14519 -3.17395,2.45289 1.23184,-0.45314 3.94852,-1.66766 5.00914,-3.89873 1.51211,-3.18081 0.52847,-4.83909 0.91778,-4.86689 0.38934,-0.0278 2.61373,2.30852 4.97747,2.19729 2.36371,-0.11124 5.30946,-0.99765 5.34644,0.68523 0.0153,0.6966 -0.45539,2.26022 -1.23403,3.56722 -0.21866,0.36704 -0.41848,0.65066 -0.59428,0.8723 4.41738,-5.30054 6.52105,-10.07484 6.52105,-10.07484 z m -6.76858,10.36578 c -0.30476,0.32926 -0.48937,0.42374 -0.48937,0.42374 l 0.0915,0.0429 c 0.13562,-0.15618 0.26626,-0.31111 0.39791,-0.46663 z"
             sodipodi:nodetypes="cscscsssssccccccc" />
          <path
             style="fill:#ffffff;stroke:none;stroke-width:0.1;stroke-dasharray:none"
             d="m 248.30318,168.3812 2.86429,0.16686 -0.18075,2.87819 -2.93381,-0.20856 z"
             id="path1253" />
          <path
             style="fill:#ffffff;stroke:none;stroke-width:0.1;stroke-dasharray:none"
             d="m 252.14718,168.69458 2.61526,0.31462 -0.17697,2.67426 -2.61527,-0.2163 z"
             id="path1363" />
          <path
             style="fill:#ffffff;stroke:none;stroke-width:0.1;stroke-dasharray:none"
             d="m 255.98159,169.24516 3.28383,1.04218 -0.66856,2.163 -2.8709,-0.49159 z"
             id="path1365" />
          <path
             style="fill:#ffffff;stroke:none;stroke-width:0.1;stroke-dasharray:none"
             d="m 260.05197,170.77893 3.0282,1.31747 -0.62923,1.69107 -3.48047,-0.11798 z"
             id="path1367" />
          <path
             style="fill:#ffffff;stroke:none;stroke-width:0.1;stroke-dasharray:none"
             d="m 259.08845,175.08527 0.0393,3.44114 c 0,0 4.20802,0.7079 4.58163,-1.59275 0.37361,-2.30065 -1.76973,-2.37931 -2.49728,-2.37931 -0.72756,0 -2.12368,0.0983 -2.12368,0.0983 z"
             id="path1369" />
          <path
             style="fill:#ffffff;stroke:none;stroke-width:0.1;stroke-dasharray:none"
             d="m 258.17525,180.00521 -0.48665,3.68464 c 0,0 2.03002,0.93159 3.48998,-0.19466 1.45995,-1.12625 1.36262,-3.64293 0.0556,-3.67074 -1.307,-0.0278 -3.05894,0.18076 -3.05894,0.18076 z"
             id="path1371" />
          <path
             style="fill:#ffffff;stroke:none;stroke-width:0.1;stroke-dasharray:none"
             d="m 262.83319,179.54637 0.80645,2.73915 c 0,0 3.35157,-0.83852 2.94772,-2.91991 -0.36151,-1.86317 -3.75417,0.18076 -3.75417,0.18076 z"
             id="path1373"
             sodipodi:nodetypes="ccsc" />
          <path
             style="fill:#ffffff;stroke:none;stroke-width:0.1;stroke-dasharray:none"
             d="m 249.20696,183.48129 2.26641,-0.20857 -0.20857,2.34983 -2.14126,0.0278 z"
             id="path1375" />
          <path
             style="fill:#ffffff;stroke:none;stroke-width:0.1;stroke-dasharray:none"
             d="m 248.86334,175.18359 c 0,0 0.0393,0.98319 -0.13764,2.0057 -0.17697,1.02251 -0.74722,2.02535 -0.74722,2.02535 0,0 5.32885,5.58448 6.78396,4.66029 1.45512,-0.92419 -1.96636,-2.49728 -1.35679,-3.00854 0.60958,-0.51125 2.02536,0.82587 2.91022,0.17697 0.88487,-0.6489 -2.12367,-2.24165 -1.35679,-2.91022 0.76688,-0.66856 2.24166,1.31747 2.94955,0.45227 0.70789,-0.86521 -1.45511,-1.82873 -2.00569,-2.12368 -0.55059,-0.29495 -0.98319,-2.14334 -2.59561,-2.32031 -1.61242,-0.17698 -4.44399,1.04217 -4.44399,1.04217 z"
             id="path1377" />
          <path
             style="fill:#ffffff;stroke:none;stroke-width:0.1;stroke-dasharray:none"
             d="m 256.55184,184.24854 c 0,0 -1.02251,1.02251 -1.00285,1.84839 0.0197,0.82587 -0.29495,2.02535 1.43545,2.3793 1.7304,0.35395 2.35964,0.27529 2.3793,-0.25563 0.0197,-0.53092 0.0787,-2.85123 0.0787,-2.85123 0,0 -0.74722,-0.53092 -1.35679,-0.70789 -0.60958,-0.17697 -1.53377,-0.41294 -1.53377,-0.41294 z"
             id="path1379" />
          <path
             style="fill:#ffffff;stroke:none;stroke-width:0.1;stroke-dasharray:none"
             d="m 260.72054,186.96213 1.69107,-0.0787 c 0,0 2.04502,-0.6489 2.02536,-1.53376 -0.0197,-0.88487 -0.35395,-2.41863 -1.75007,-1.71074 -1.39612,0.70789 -2.06468,1.59276 -2.10401,2.08435 -0.0393,0.49159 0.13765,1.23881 0.13765,1.23881 z"
             id="path1381" />
          <path
             style="fill:#ffffff;stroke:none;stroke-width:0.1;stroke-dasharray:none"
             d="m 265.22352,189.47908 c 1.37646,0.33428 3.12652,1.17982 3.4018,-0.15731 0.2753,-1.33713 0.51125,-2.71359 -0.88485,-2.91023 -1.39613,-0.19663 -2.41864,-0.23596 -3.16586,0.60958 -0.74722,0.84554 -1.16015,1.82872 -0.58991,2.10401 0.57025,0.27529 1.23882,0.35395 1.23882,0.35395 z"
             id="path1383" />
          <path
             style="fill:#ffffff;stroke:none;stroke-width:0.1;stroke-dasharray:none"
             d="m 269.60851,186.2739 0.37362,2.51695 c 0,0 0.60957,1.04217 1.6714,0.60957 1.06185,-0.4326 1.17983,-0.27529 1.31746,-1.19948 0.13766,-0.92419 0.23598,-2.02536 -0.55057,-2.30065 -0.78655,-0.27529 -2.81191,0.37361 -2.81191,0.37361 z"
             id="path1385" />
          <path
             style="fill:#ffffff;stroke:none;stroke-width:0.1;stroke-dasharray:none"
             d="m 265.04654,182.9704 2.0057,-1.2978 c 0,0 1.33712,0.55059 1.63208,1.21915 0.29496,0.66856 0.96353,1.9467 0.19664,2.06468 -0.7669,0.11798 -2.18268,0.53092 -2.85123,-0.059 -0.66858,-0.58991 -0.98319,-1.92704 -0.98319,-1.92704 z"
             id="path1387" />
          <path
             style="fill:#ffffff;stroke:none;stroke-width:0.1;stroke-dasharray:none"
             d="m 270.02144,182.20352 c 0.0787,-0.0197 2.81192,-1.02251 2.92989,-0.49159 0.11798,0.53092 0.0196,3.28383 -0.51125,3.34282 -0.53091,0.059 -1.55342,0.059 -1.90738,-0.6489 -0.35394,-0.70789 -0.51126,-2.20233 -0.51126,-2.20233 z"
             id="path1389" />
          <path
             style="fill:#ffffff;stroke:none;stroke-width:0.1;stroke-dasharray:none"
             d="m 267.81913,178.8607 -0.23598,2.24165 c 0,0 1.06185,0 1.96638,-0.0393 0.90451,-0.0393 1.65174,-0.17697 1.3961,-1.19949 -0.25561,-1.02251 -0.78652,-1.63208 -1.53376,-1.61242 -0.74721,0.0197 -1.59274,0.60958 -1.59274,0.60958 z"
             id="path1391" />
          <path
             style="fill:#ffffff;stroke:none;stroke-width:0.1;stroke-dasharray:none"
             d="m 264.79092,176.50106 1.35679,0.11798 c 0,0 0.78655,-1.86805 0.27529,-2.57594 -0.51125,-0.70789 -1.45512,-0.98318 -2.08435,-0.39327 -0.62924,0.58991 -0.41294,1.21914 -0.25563,1.69107 0.15731,0.47193 0.7079,1.16016 0.7079,1.16016 z"
             id="path1393" />
          <path
             style="fill:#ffffff;stroke:none;stroke-width:0.1;stroke-dasharray:none"
             d="m 267.72081,174.9083 -0.45228,2.94955 c 0,0 2.222,0.29496 2.47761,-0.88487 0.25564,-1.17982 -2.02533,-2.06468 -2.02533,-2.06468 z"
             id="path1395" />
          <path
             style="fill:#ffffff;stroke:none;stroke-width:0.1;stroke-dasharray:none"
             d="m 271.43723,176.6387 2.63493,1.27814 c 0,0 -1.16014,2.28099 -1.76972,2.37931 -0.60957,0.0983 -1.17983,-3.81476 -1.17983,-3.81476 z"
             id="path1397" />
          <path
             style="fill:#ffffff;stroke:none;stroke-width:0.1;stroke-dasharray:none"
             d="m 275.62558,178.58541 1.35681,0.68822 c 0,0 -0.31461,1.59276 -1.16017,1.82872 -0.84553,0.23597 -1.6714,0.53092 -1.6714,-0.0983 0,-0.62924 0.60958,-1.76973 0.88487,-1.96637 0.27528,-0.19664 0.58989,-0.45226 0.58989,-0.45226 z"
             id="path1399" />
          <path
             style="fill:#ffffff;stroke:none;stroke-width:0.1;stroke-dasharray:none"
             d="m 274.24864,187.09641 0.0695,3.10066 c 0,0 2.906,0.29199 3.03115,-0.43103 0.12515,-0.72303 -0.59788,-2.79477 -0.87598,-2.79477 -0.27808,0 -2.22467,0.12514 -2.22467,0.12514 z"
             id="path1431" />
          <path
             style="fill:#ffffff;stroke:none;stroke-width:0.1;stroke-dasharray:none"
             d="m 274.54061,182.13257 1.62681,-0.37542 c 0,0 0.63961,0.6257 0.41715,2.22469 -0.22249,1.599 -0.77865,1.98832 -1.27921,1.98832 -0.50057,0 -1.37652,0.0695 -1.26529,-0.50056 0.11123,-0.57007 0.30588,-0.87597 0.40322,-1.84927 0.0973,-0.9733 0.0973,-1.48776 0.0973,-1.48776 z"
             id="path1433" />
          <path
             style="fill:#ffffff;stroke:none;stroke-width:0.1;stroke-dasharray:none"
             d="m 279.96329,183.38396 2.14128,1.68242 c 0,0 0.22246,2.03003 -0.40323,2.64182 -0.62568,0.61179 -1.41824,0.76473 -2.60011,0.61179 -1.18187,-0.15295 -1.48775,-0.68131 -1.27918,-2.22469 0.20854,-1.54338 0.38931,-2.2386 0.86206,-2.46107 0.47273,-0.22246 1.27918,-0.25027 1.27918,-0.25027 z"
             id="path1435" />
          <path
             style="fill:#ffffff;stroke:none;stroke-width:0.1;stroke-dasharray:none"
             d="m 278.07232,179.50466 2.5723,0.0834 c 0,0 -0.37541,2.72524 -0.84817,2.85038 -0.47276,0.12514 -1.68243,0.61179 -2.04393,0.34761 -0.3615,-0.26418 -0.54227,-0.72302 -0.25027,-1.69633 0.29199,-0.9733 0.57007,-1.58508 0.57007,-1.58508 z"
             id="path1437" />
          <path
             style="fill:#ffffff;stroke:none;stroke-width:0.1;stroke-dasharray:none"
             d="m 281.75696,179.88007 c 0,0 0.20857,0.84816 -0.11123,1.55728 -0.31981,0.70912 -1.01502,1.45996 -0.47276,1.89099 0.54226,0.43103 2.26642,0.55617 2.72526,-0.3198 0.45884,-0.87597 0.59788,-2.14126 0.29197,-2.51668 -0.30589,-0.37542 -0.57007,-0.6396 -1.16795,-0.68131 -0.59788,-0.0417 -1.26529,0.0695 -1.26529,0.0695 z"
             id="path1439" />
          <path
             style="fill:#ffffff;stroke:none;stroke-width:0.1;stroke-dasharray:none"
             d="m 286.52613,184.70487 c 0.0556,0 0.5979,2.2803 0.23637,2.66962 -0.3615,0.38932 -1.41824,0.73693 -2.2942,0.6396 -0.87598,-0.0973 -1.33482,-0.9733 -1.34871,-2.16907 -0.014,-1.19577 0.48665,-2.11346 1.43213,-2.01613 0.94549,0.0973 1.97441,0.87598 1.97441,0.87598 z"
             id="path1476" />
          <path
             style="fill:#ffffff;stroke:none;stroke-width:0.1;stroke-dasharray:none"
             d="m 287.66629,185.4696 1.9049,1.45996 1.0428,-1.64071 c 0,0 -0.51446,-1.04283 -0.9733,-1.11235 -0.45884,-0.0695 -1.98831,-0.23637 -2.04393,0.22247 -0.0556,0.45884 0.0695,1.07063 0.0695,1.07063 z"
             id="path1478" />
          <path
             style="fill:#ffffff;stroke:none;stroke-width:0.1;stroke-dasharray:none"
             d="m 285.60844,182.11866 0.0417,-1.54337 2.51666,-0.0556 c 0,0 0.76475,1.79365 0.76475,2.16907 0,0.37542 -3.76806,0.77864 -3.85148,0.50056 -0.0835,-0.27809 0.26416,-0.55618 0.33369,-0.66741 0.0695,-0.11123 0.19465,-0.40323 0.19465,-0.40323 z"
             id="path1480" />
        </g>
      </g>
    </g>
  </g>
</svg>
