<?xml version="1.0" encoding="UTF-8" standalone="no"?>
<svg
   xmlns:dc="http://purl.org/dc/elements/1.1/"
   xmlns:cc="http://creativecommons.org/ns#"
   xmlns:rdf="http://www.w3.org/1999/02/22-rdf-syntax-ns#"
   xmlns:svg="http://www.w3.org/2000/svg"
   xmlns="http://www.w3.org/2000/svg"
   viewBox="0 0 600 654.10762"
   version="1.1"
   id="svg86"
   width="600"
   height="654.1076">
  <metadata
     id="metadata92">
    <rdf:RDF>
      <cc:Work
         rdf:about="">
        <dc:format>image/svg+xml</dc:format>
        <dc:type
           rdf:resource="http://purl.org/dc/dcmitype/StillImage" />
        <dc:title></dc:title>
      </cc:Work>
    </rdf:RDF>
  </metadata>
  <defs
     id="defs90" />
  <g
     id="layer2"
     style="display:inline">
    <path
       d="m 489.82499,6.151534 c -16.034,0.03247 -31.2593,0.121312 -43.3771,0.292865 -48.4698,0.687437 -96.0083,-0.131115 -144.0124,0 -1.6255,0.0043 -3.2504,0.02206 -4.8758,0.02635 -48.0042,0.131116 -95.5427,0.687437 -144.0125,0 -48.4698,-0.687436 -146.7572571,0 -146.7572571,0 0,0 3.06038,29.519335 4.1564801,44.309636 1.87911,25.353047 2.6076,50.773495 4.15648,76.151055 2.0862,34.16719 4.8415,68.30865 6.9277,102.47217 1.5495,25.37143 2.3956,50.79188 4.1564,76.15106 2.6628,38.34817 3.0757,77.04558 9.6719,114.91586 3.6884,21.17574 8.8338,42.26265 16.6284,62.29205 9.4078,24.18465 20.5085,48.22472 36.05,69.00711 11.2048,14.98391 25.517197,27.59549 40.366397,38.97925 17.0002,13.03311 35.5126,24.3948 55.0991,33.06557 20.7199,9.17195 42.8373,15.36623 65.092,19.66118 16.7472,3.23377 33.9123,4.44505 50.9695,4.50265 16.9482,0.0576 34.0349,-0.93129 50.6755,-4.13014 22.3386,-4.29494 44.4444,-10.79924 65.2268,-20.0631 19.5656,-8.72162 38.1276,-20.03246 55.1298,-33.06557 14.8515,-11.38376 29.1609,-23.99901 40.3663,-38.97925 15.5409,-20.78178 26.6422,-44.82429 36.05,-69.00711 7.7922,-20.03185 12.94,-41.14816 16.6284,-62.32268 6.5937,-37.87273 7.0091,-76.56769 9.6719,-114.91587 1.7608,-25.35918 2.6076,-50.7735 4.1565,-76.15106 2.0862,-34.16719 4.8414,-68.27801 6.9276,-102.44765 1.5495,-25.37144 2.2774,-50.797398 4.1565,-76.151061 1.0967,-14.790301 4.1565,-44.309636 4.1565,-44.309636 0,0 -55.289,-0.38967 -103.379,-0.292865"
       fill="#fcdd09"
       id="path2"
       style="stroke-width:0.612689" />
    <path
       style="fill:none;stroke:#000000;stroke-width:10"
       id="path8"
       stroke-width="5"
       d="M 299.9958,4.8085209 V 652.58575" />
    <g
       font-family="Sans"
       text-anchor="middle"
       text-align="center"
       word-spacing="0"
       line-height="125%"
       letter-spacing="0"
       id="g20"
       transform="matrix(0.61268856,0,0,0.61268856,0.66067695,0.00871869)">
      <text
         transform="matrix(0.9907,0.1361,-0.1361,0.9907,0,0)"
         y="986.95001"
         x="584.07001"
         font-size="7.545px"
         fill="#0f0406"
         id="text14"><tspan
           y="986.95001"
           x="584.07001"
           id="tspan12">Christian Duscha</tspan></text>
      <text
         transform="matrix(0.96906,-0.24682,0.24682,0.96906,0,0)"
         y="1160.83"
         x="310.85999"
         font-size="4.918px"
         fill="#100406"
         id="text18"><tspan
           y="1160.83"
           x="310.85999"
           id="tspan16">Gleiwitz-Essen-Landshut</tspan></text>
    </g>
    <path
       id="path900"
       d="m 454.48484,171.63377 c -1.72643,39.44412 -0.53077,76.22799 -0.56234,114.31623 -0.69859,4.78751 0.0522,9.59806 1.84859,13.42671 0.31125,1.2554 1.48365,6.44227 2.4952,7.12726 1.33332,0.36743 2.26041,0.55672 3.23527,-0.0252 0.99623,-0.67457 2.027,-3.972 2.33824,-5.20473 1.62924,-4.36121 2.09871,-10.77106 1.22668,-14.50979 -0.0108,-41.4724 -0.74957,-80.21509 -2.28099,-115.98525 -3.34557,0.23386 -4.95532,1.05223 -8.30065,0.85478 z"
       style="opacity:1;fill:#ff0000;stroke:#000000;stroke-width:4;stroke-linecap:round;stroke-linejoin:round" />
    <path
       id="path917"
       d="m 505.22581,497.17742 c -47.64273,26.41519 -100.17594,28.78743 -149.96775,-2.82258 l 0.19041,-104.24762 c 52.13742,29.75505 103.36126,25.60638 147.51871,0.29962 z"
       style="opacity:1;fill:#ff0000;fill-rule:evenodd;stroke:#000000;stroke-width:16;stroke-linecap:round;stroke-linejoin:round;paint-order:stroke fill markers" />
    <path
       id="path896"
       d="m 437.5499,123.07293 61.39982,65.95305 c 0.91604,102.67053 1.17629,205.06537 4.6371,308.75185 l 20.58021,-1.00806 -1.61291,-373.28587 -24.00762,0.40323 0.50403,38.38149 -47.49581,-48.29881 c -6.13064,4.38991 -9.44152,5.09615 -14.00482,9.10312 z"
       style="opacity:1;fill:#ff0000;stroke:#000000;stroke-width:8;stroke-linecap:round;stroke-linejoin:round" />
    <path
       id="path24"
       d="m 355.71939,157.12872 -0.60484,-31.02262 -22.79795,0.20161 4.13307,370.36248 19.87456,0.20161 c 1.11684,-102.46349 -0.0587,-206.20054 -1.31049,-309.97992 l 71.46209,-63.3137 -17.23124,-6.88415 z"
       style="opacity:1;fill:#ff0000;stroke:#000000;stroke-width:8;stroke-linecap:round;stroke-linejoin:round" />
    <path
       style="opacity:0;fill:none;stroke:#ffd700;stroke-width:2;stroke-linecap:round;stroke-linejoin:round"
       id="path26"
       d="m 360.25813,386.07107 v 112.27517 c 0,11.58104 32.0865,20.98459 71.66618,20.98459 39.57968,0 71.66618,-9.40355 71.66618,-20.98459 V 386.07107 Z" />
    <path
       style="opacity:1;fill:#ff0000;stroke:#000000;stroke-width:8;stroke-linejoin:round"
       id="path32"
       stroke-width="3.06356"
       stroke-linecap="round"
       d="m 500.59057,385.50779 c -4.90239,11.46177 -31.37369,22.11489 -70.95337,22.11489 -39.57968,0 -70.86587,-10.6275 -72.37899,-22.11489 -1.81019,-13.74273 32.07893,-20.98349 71.66618,-20.97441 39.59521,0.009 76.91928,8.69267 71.66618,20.97441 z" />
    <path
       style="opacity:1;fill:#000000;stroke:#000000;stroke-width:2;stroke-linecap:round;stroke-linejoin:round"
       id="path36"
       stroke-width="3.06358"
       d="m 477.61142,384.93786 c 0,6.73725 -16.83989,10.92989 -46.40512,10.92989 -29.56523,0 -52.10758,-3.613 -52.10758,-10.35965 0,-6.73725 23.1126,-8.36378 52.67783,-8.36378 29.56523,0 45.83487,1.04689 45.83487,7.79354 z" />
    <path
       style="opacity:1;fill:#ff0000;stroke:#000000;stroke-width:4;stroke-linecap:round;stroke-linejoin:round"
       id="path46"
       d="m 440.97431,317.79337 c 0.074,11.93219 0.96059,20.49988 1.71075,30.40354 0.65377,8.63113 8.22777,9.41484 18.07984,9.90548 10.63106,0.52944 18.4598,-2.31528 17.58088,-11.54494 l -0.99794,-29.04921 z" />
    <path
       style="opacity:1;fill:#ff0000;stroke:#000000;stroke-width:4;stroke-linejoin:round"
       id="path52"
       stroke-width="3.06362"
       stroke-linecap="round"
       d="m 476.48022,318.50321 c 0,3.45955 -7.5679,6.19248 -17.43218,6.19248 -9.86429,0 -18.21628,-3.23227 -18.21628,-6.69145 0,-3.45955 7.9243,-4.19662 17.78859,-4.19662 9.86428,0 17.85987,1.23641 17.85987,4.69559 z" />
    <g
       transform="translate(0,4)"
       id="g49">
      <path
         style="stroke-width:0.612689"
         id="path4"
         fill="#078930"
         d="m 82.651217,-1.169268 c -40.62738,0.0337 -79.0184497,0.30634401 -79.0184497,0.30634401 0,0 3.05855,29.51320799 4.15465,44.30350999 1.87911,25.353052 2.6057597,50.791884 4.1546397,76.163314 2.0862,34.16719 4.84514,68.30252 6.93134,102.47216 1.54949,25.37144 2.39439,50.78576 4.15464,76.14494 2.66275,38.34817 3.0757,77.04558 9.66884,114.91586 3.68839,21.17575 8.846,42.25162 16.64062,62.28592 9.40784,24.18466 20.51159,48.2431 36.05305,69.0255 11.20485,14.98391 25.512353,27.60161 40.360863,38.97924 17.00027,13.03311 35.51572,24.39542 55.10521,33.06619 20.7199,9.17195 42.82448,15.36623 65.07978,19.66118 16.72027,3.22886 33.88167,4.43831 50.90829,4.49958 V -0.86721199 c -0.81243,0.0055 -1.61872,-0.0025 -2.43176,0 -48.00415,0.131115 -95.55491,0.687436 -144.01857,0 C 132.21895,-1.125154 107.03132,-1.193775 82.655507,-1.173557" />
      <g
         id="g42">
        <path
           d="m 154.87572,54.013446 c 1.53335,14.44885 -2.70197,15.5355 -6.36548,21.857248 -13.11316,5.275761 -15.35857,49.317196 -11.32912,82.739666 2.25717,51.57238 0.88327,61.89582 15.66625,73.85112 1.07355,74.31354 -5.24743,110.93027 -3.86892,181.09657 0,0 -0.5994,-0.9643 -6.11298,-17.28264 -4.06954,-21.31673 -15.40631,-41.39507 -28.73368,-60.50667 -8.31666,-17.28395 -19.4684,-35.98586 -26.040085,-54.00197 -8.96428,-19.60749 -15.7574,-66.08329 -19.90442,-34.10328 -2.12358,12.17412 -4.0464,35.65788 -2.03188,47.85222 3.68465,22.33513 11.96413,37.70024 17.36175,54.30524 10.989795,26.46815 26.620695,51.8351 39.785525,77.28903 6.30641,15.30251 9.92719,28.30478 13.76814,44.40623 1.99185,8.35033 3.82379,17.7594 3.54869,26.33949 -0.33759,10.54621 -5.55831,30.89176 -5.55831,30.89176 0,0 9.40988,2.6607 13.21284,2.56573 10.81491,2.64277 23.2997,-5.24327 32.62648,-16.611 6.99201,-6.46632 9.93054,-9.13897 6.62848,-16.10044 -1.10734,-2.33452 5.91494,-20.20381 5.73027,-20.20381 9.0284,-18.13931 21.24156,-32.68345 30.61564,-50.30439 9.20258,-17.30232 16.98853,-34.9527 22.04934,-53.8909 5.64163,-21.10773 6.84872,-43.02234 7.046,-64.87081 0.16849,-18.63615 -2.52519,-44.03302 -2.12387,-43.34125 -0.6147,-13.21897 1.64102,-28.3412 1.95667,-35.35521 6.59387,-36.77655 -18.9293,9.73995 -20.55209,15.05262 -15.60946,33.90006 -21.6708,74.58645 -27.68679,109.93225 -5.73338,30.09058 -6.66337,37.31833 -11.64759,65.69325 -3.58301,11.81999 -9.85447,21.50104 -9.85447,21.50104 0.0683,-77.33058 -0.0398,-130.66013 -1.64774,-214.74277 0,0 4.64111,-6.33193 7.01221,-10.02706 2.83859,-4.42361 4.89416,-9.78627 6.00742,-14.91998 1.18125,-19.08197 -1.59851,-35.84738 -2.35211,-54.13001 -0.7144,-17.33908 1.35832,-35.70238 -2.00962,-52.722872 -1.14512,-5.78807 -3.53236,-11.120907 -6.41383,-16.271167 -1.68183,-3.00524 -4.35172,-5.393492 -5.94349,-8.444678 -3.08795,-5.91674 -2.12625,-9.580184 -5.25709,-15.473634 -3.69002,-9.727047 -16.53967,-23.136046 -17.58214,-2.068923 z"
           fill="#ffffff"
           id="path1071"
           style="opacity:1;fill:#000000;stroke:none;stroke-width:0.1" />
        <path
           id="path1073"
           style="opacity:1;fill:#ffffff;fill-rule:evenodd;stroke:none;stroke-width:6;stroke-linecap:square;paint-order:stroke fill markers"
           d="m 147.10911,524.71354 c 5.07936,1.96704 36.63291,-12.50884 33.00844,-18.26597 -7.13568,-0.14298 -20.89821,9.35413 -33.00844,18.26597 z m 2.90687,-442.851709 c -10.86583,6.806346 -9.68871,46.455149 -4.70055,79.101549 0.36314,14.00864 -1.40874,24.99256 -1.18471,33.53629 0.66006,25.17221 5.72203,31.34677 12.21113,38.25747 -1.34909,70.1517 -2.84699,136.75889 -4.19607,205.13834 -6.69614,41.97593 -4.87807,-23.12458 -14.03083,-37.72024 -7.02448,-20.79527 -18.0245,-40.26671 -27.54323,-60.05042 -8.31666,-17.28395 -23.068058,-44.30773 -29.639758,-62.32384 -4.58701,-22.27018 -16.06698,-16.59471 -11.48281,14.44016 2.61799,20.90719 11.02879,41.55047 18.36328,58.90641 10.989794,26.46815 28.630928,51.18276 39.550258,77.6846 8.48654,18.35469 10.54007,31.68494 12.61349,47.21671 1.67558,12.55162 2.37588,22.71553 2.34051,25.80657 -0.33759,10.54621 -0.4129,15.34935 -0.4129,15.34935 -1.49935,7.29896 4.84298,2.13817 6.58723,0.86177 25.9854,-19.01545 27.90053,-18.63856 35.67398,-17.00558 1.58012,-6.70771 1.53742,-10.9443 4.0764,-17.35179 8.8577,-39.23292 42.81625,-71.2682 52.51403,-105.19411 2.54804,-23.31744 6.47248,-46.3004 6.66976,-68.14887 0.16849,-18.63615 -1.93495,-26.75155 -1.08453,-45.37116 0.27125,-1.2508 -2.57739,-0.81386 -2.49847,-2.02963 0.88438,-13.62322 3.17693,-19.8319 4.19706,-26.19344 2.57894,-16.08229 -0.65794,-15.50436 -14.70423,16.30875 -8.46061,21.65315 -10.26091,46.74878 -10.96714,54.37466 -0.17544,1.8944 -3.71742,0.77376 -4.16053,2.50033 -4.77433,18.60306 -4.34983,35.35215 -8.40152,53.20073 -6.55258,38.92922 -14.00671,72.30174 -36.85144,113.91798 2.31142,-12.70663 5.15141,-29.92658 1.75328,-41.56792 1.48395,-63.10819 -0.57482,-136.41246 -1.41014,-205.31883 22.67814,-32.79414 11.73734,-44.73483 10.42451,-73.16596 -3.91641,-34.13222 5.6307,-50.85713 -6.49847,-75.147909 -3.1138,-4.37502 -7.54066,4.389201 -13.92702,4.517701 -6.48844,0.13055 -10.24345,-7.180961 -13.28057,-4.529671 z m 18.15104,-21.630043 c -2.81964,-8.983232 -8.90033,-18.543733 -9.34861,-3.715624 0.25942,7.110473 1.39758,13.301119 -4.28404,23.778186 13.8858,9.87438 18.82281,-4.85104 13.63265,-20.062562 z" />
        <path
           id="path1096"
           style="color:#000000;font-style:normal;font-variant:normal;font-weight:normal;font-stretch:normal;font-size:medium;line-height:normal;font-family:sans-serif;font-variant-ligatures:normal;font-variant-position:normal;font-variant-caps:normal;font-variant-numeric:normal;font-variant-alternates:normal;font-variant-east-asian:normal;font-feature-settings:normal;font-variation-settings:normal;text-indent:0;text-align:start;text-decoration:none;text-decoration-line:none;text-decoration-style:solid;text-decoration-color:#000000;letter-spacing:normal;word-spacing:normal;text-transform:none;writing-mode:lr-tb;direction:ltr;text-orientation:mixed;dominant-baseline:auto;baseline-shift:baseline;text-anchor:start;white-space:normal;shape-padding:0;shape-margin:0;inline-size:0;clip-rule:nonzero;display:inline;overflow:visible;visibility:visible;isolation:auto;mix-blend-mode:normal;color-interpolation:sRGB;color-interpolation-filters:linearRGB;solid-color:#000000;solid-opacity:1;vector-effect:none;fill:#000000;fill-opacity:1;fill-rule:evenodd;stroke:none;stroke-width:2;stroke-linecap:square;stroke-linejoin:miter;stroke-miterlimit:4;stroke-dasharray:none;stroke-dashoffset:0;stroke-opacity:1;paint-order:stroke fill markers;color-rendering:auto;image-rendering:auto;shape-rendering:auto;text-rendering:auto;enable-background:accumulate;stop-color:#000000"
           d="m 220.22537,307.31725 c 0.55091,14.39195 -2.6414,31.90633 -4.48326,45.76674 -1.8348,12.39167 -3.51936,24.7554 -5.68918,33.97656 -1.08491,4.61058 -2.42114,8.31634 -3.43471,10.93011 -2.60467,5.51754 -0.8583,8.16178 1.74066,0.0998 1.07669,-2.77658 3.91344,-11.64457 5.00972,-16.30347 2.19256,-9.31779 2.51181,-15.98177 4.35202,-28.41 2.04796,-15.4227 3.45814,-29.59274 4.87849,-46.05776 -1.76374,-9.58091 -2.37441,-5.6297 -2.37374,-0.002 z m 24.83573,-46.28358 c -0.81373,-0.009 -1.49274,0.61918 -1.54609,1.4312 0,0 -3.74728,50.94956 -5.72128,76.33679 1.23417,6.7382 -10.13459,52.97477 -21.58354,87.10855 8.5122,-14.124 24.3396,-61.85997 23.49347,-86.29684 3.39645,-23.50529 5.2481,-76.94865 5.2481,-76.94865 0.0553,-0.84435 1.03507,-1.57362 0.19071,-1.62865 -0.0271,-10e-4 -0.0542,-0.002 -0.0814,-0.002 z m -4.0478,-12.12987 c -11.84735,35.67625 -11.0428,56.39216 -15.21524,83.35764 -4.74692,29.65594 -6.62944,46.24611 -16.7561,80.72377 -6.22485,17.14938 -14.97293,33.77648 -22.48292,49.84361 -0.42978,0.72895 -3.55066,6.77601 -2.82153,7.20547 0.72894,0.42978 2.54033,-1.80622 2.96979,-2.53535 3.14238,-3.70352 21.97619,-38.48203 25.20903,-50.71396 14.30389,-34.91386 15.94352,-70.72433 18.90014,-93.50806 2.99008,-29.5675 5.9611,-56.13177 15.02537,-83.87684 -1.76557,-4.2618 -4.73035,9.17437 -4.82854,9.50372 z M 167.18509,99.524473 c -0.23716,7.185507 0.579,10.106207 0.44711,14.304837 0.1109,13.33913 -0.3087,15.51659 -0.35351,23.50891 -0.21815,8.69503 -0.36302,16.61522 0.64443,25.24984 1.3391,7.79543 6.68549,42.58945 -0.62586,52.08168 -0.17253,-0.0984 -3.68745,4.79893 0.87015,2.64279 6.33899,-7.09682 6.16453,-14.65337 6.16477,-21.55219 7.3e-4,-21.66862 -3.67843,-31.29257 -3.36596,-35.2095 -0.99115,-8.49493 -0.8397,-14.59001 -0.62529,-23.13604 0.18686,-7.45109 -0.13535,-15.68039 -0.1436,-23.65017 -0.008,-7.12505 -0.63379,-14.384067 -0.63379,-14.384067 0.38209,-5.156676 -3.43763,-4.601672 -2.37845,0.14391 z m 7.00883,-5.980572 c 1.5269,6.515539 1.44697,13.595639 1.71947,18.598139 0.74025,9.64432 -0.95726,19.71847 -1.13677,30.22316 -1.07857,16.91825 2.96256,30.15899 3.15231,43.71728 0.0979,6.9973 2.06159,14.55096 0.30497,20.10485 -0.74715,2.36229 -3.52731,9.35037 -5.65672,12.0768 -2.12942,2.72643 -6.09673,6.44085 -6.09673,6.44085 -0.56054,0.63377 -0.50106,1.60197 0.13283,2.16236 0.63409,0.56025 1.60232,0.50023 2.16236,-0.13402 0,0 4.33688,-4.02718 6.52784,-6.83241 2.19095,-2.80523 2.67579,-3.59209 3.9278,-6.43776 3.09693,-6.61306 2.24798,-16.67163 2.19114,-24.33107 -0.24173,-15.22296 -4.84192,-30.74121 -3.58355,-46.83749 -0.22651,-9.05025 1.76458,-20.07676 1.005,-30.37872 0.0928,-5.03652 0.7184,-10.80152 -2.14944,-18.497105 -2.5599,-12.085533 -6.06812,-10.887959 -2.50051,0.125136 z M 74.460842,281.27513 c 5.60437,18.08808 9.79318,35.50803 16.76813,52.09685 7.64142,18.37899 16.937298,36.03783 26.107148,51.28112 6.7514,14.26274 14.09802,27.21551 19.79965,42.60705 5.89887,10.31153 10.8967,46.15228 13.15989,57.21678 -0.8217,-31.84274 -5.87361,-43.46479 -10.84499,-57.58964 -5.40558,-14.50737 -13.44932,-31.6702 -20.21873,-45.78694 -9.03715,-16.59179 -17.94204,-30.50238 -24.947648,-48.5812 -7.22149,-16.51515 -13.09037,-34.33646 -16.82822,-51.88304 -2.85148,-29.1759 -9.77518,-29.64839 -2.99523,0.63902 z" />
      </g>
    </g>
    <path
       d="m 467.94355,330.44355 1.31048,26.31048 m -10.38306,-24.89919 1.5121,25.70564 M 449.89919,331.25 l 1.5121,25.10081 m -9.97983,-28.32661 c 15.04484,5.72833 27.29778,3.28372 36.99596,-1.4113 m -0.94314,-3.04578 -0.62065,-15.34445 m -35.67547,16.98391 -0.0756,-17.89117"
       style="opacity:1;fill:none;fill-rule:evenodd;stroke:#000000;stroke-width:4;paint-order:stroke fill markers"
       id="path57" />
    <path
       id="path898"
       d="m 401.23714,170.54023 c 0.228,72.89509 -1.16108,143.17517 1.71074,218.71408 4.30915,0.42461 4.75657,0.26212 8.68671,-0.0713 1.34683,-73.73544 -1.75223,-144.84968 0.61002,-219.07048 z"
       style="opacity:1;fill:#ff0000;stroke:#000000;stroke-width:4;stroke-linecap:round;stroke-linejoin:round" />
    <path
       style="opacity:1;fill:#ff0000;stroke:#000000;stroke-width:4;stroke-linejoin:round"
       d="m 454.34246,286.54742 c -3.12945,1.70618 -4.71413,2.88639 -7.54151,4.81109 -2.67929,1.91526 -3.13997,4.30037 -5.82384,7.08126 -3.21868,4.40633 -10.66941,3.23643 -10.85689,3.09486 0,0 2.21635,3.36524 4.5611,4.7395 2.1003,1.2315 3.83287,1.56296 6.25482,1.31604 3.428,-0.34984 5.51602,-6.34339 8.42935,-8.18329 5.12389,-6.3453 12.36603,-8.22433 15.76983,-0.37802 2.91334,1.83806 7.72313,9.47155 11.15112,9.82139 2.62552,0.35651 6.95927,-1.35536 8.32136,-2.97935 1.74653,-2.08234 3.25063,-7.61248 3.25063,-7.61248 -0.52944,-0.0247 -6.62834,5.45614 -8.26113,-0.34788 -4.08689,-7.08947 -3.94064,-6.47193 -6.25227,-8.31615 -3.05303,-2.1824 -4.18714,-2.33478 -7.89218,-3.9698 -0.60869,0.23149 -5.63231,6.41349 -5.99546,6.43078 0.004,0.17663 -4.29661,-3.78443 -5.11493,-5.50795 z"
       id="path22" />
    <path
       style="fill:#ff0000;stroke:#000000;stroke-width:6;stroke-linecap:round;stroke-linejoin:round"
       id="path38"
       stroke-width="3.06336"
       fill="#da121a"
       d="m 461.54169,175.90857 c 0,17.25718 -13.99013,31.24571 -31.24714,31.24571 -17.25579,0 -31.24714,-13.98969 -31.24714,-31.24571 0,-17.25718 13.99013,-31.24571 31.24714,-31.24571 17.25579,0 31.24714,13.98969 31.24714,31.24571 z" />
    <path
       d="m 419.07243,161.01159 4.92504,4.33004 -4.23591,4.81797 -4.92504,-4.33004 z m 17.42699,5.55863 4.70103,-4.57225 4.47287,4.59885 -4.70104,4.57225 z m 6.95803,12.00162 6.51754,0.72596 -0.71017,6.37584 -6.51754,-0.72594 z m -32.49361,4.36084 6.30573,-1.80088 1.76171,6.16865 -6.30573,1.80087 z m 17.29196,9.52582 h 6.55784 v 6.41528 h -6.55784 z"
       style="fill:#ffd700;fill-rule:evenodd;stroke:#000000;stroke-width:4;stroke-linecap:round;stroke-linejoin:round;paint-order:stroke fill markers"
       id="rect892" />
    <path
       style="opacity:1;fill:#ff0000;stroke:#000000;stroke-width:4;stroke-linejoin:round"
       d="m 427.38774,121.72328 c -2.39439,-0.003 -6.21726,0.77037 -7.46531,2.52511 0.37978,12.09239 4.2342,31.14396 6.48868,44.40316 0.011,0.38171 0.0233,0.7677 0.0386,1.14879 -3.90772,1.5354 -6.68198,5.35061 -6.68198,9.80302 0,5.80951 4.72077,10.51374 10.53089,10.51374 5.80952,0 10.51374,-4.70178 10.51374,-10.51374 0,-4.45057 -2.75771,-8.26639 -6.66299,-9.80302 0.0153,-0.38783 0.0466,-0.77934 0.0576,-1.16778 1.61243,-6.27548 6.22477,-29.04699 4.90151,-44.6699 -3.39689,-2.92903 -7.89642,-2.22192 -11.71767,-2.2406 z"
       id="path42" />
    <path
       style="opacity:1;fill:#ff0000;stroke:#000000;stroke-width:8;stroke-linecap:round;stroke-linejoin:round"
       id="path44"
       d="m 315.06442,126.45699 234.134,-3.84917 C 534.81601,102.56844 524.83801,84.665298 514.1708,58.530989 L 353.66312,58.388427 c -8.62416,26.635894 -23.7986,46.213993 -38.5987,68.068563 z" />
    <path
       id="path59"
       style="fill:#000000;fill-rule:evenodd;stroke:#000000;stroke-width:2;paint-order:stroke fill markers"
       d="m 432.53267,179.84178 a 1.4968995,1.2117758 0 0 1 -1.49051,1.21177 1.4968995,1.2117758 0 0 1 -1.50324,-1.20142 1.4968995,1.2117758 0 0 1 1.47766,-1.22202 1.4968995,1.2117758 0 0 1 1.51587,1.19097" />
    <path
       d="m 498.08468,75.705645 c 3.22599,14.82654 13.6016,32.209035 15.42339,31.552415 -5.14113,-9.155506 -10.28226,-19.708835 -15.42339,-31.552415 z m -8.36694,8.266129 c 4.02819,8.931046 7.11197,16.209376 10.08065,23.286286 0.65475,4.50081 -8.36849,-13.876139 -10.08065,-23.286286 z M 481.85484,87.5 c 0.94998,8.071572 3.41936,15.07957 7.05645,21.27016 C 486.0659,102.0747 483.37504,95.25561 481.85484,87.5 Z m -8.46774,8.165323 c 1.27599,5.854747 2.59142,11.354597 4.13306,14.818547 -3.50213,-5.13265 -3.41921,-9.93938 -4.13306,-14.818547 z M 462.5,101.00806 c -0.0338,3.22581 0.0784,6.45161 2.41936,9.67742 -0.80645,-2.81993 -1.61291,-5.55446 -2.41936,-9.67742 z m -11.89516,3.52823 c -0.82331,2.36177 -0.24068,4.32184 0.80645,6.14919 -0.11519,-1.53077 -0.17233,-2.57704 -0.80645,-6.14919 z M 437.5,104.13306 c -0.59315,9.83557 -1.23036,5.20207 -1.5121,6.04839 0.25521,-3.4273 0.16875,-4.34874 1.5121,-6.04839 z m -12.60081,-0.1008 c -1.12618,1.71168 -2.22379,3.53762 -2.82258,7.35887 0.46803,-0.36004 1.55373,-3.19071 2.82258,-6.75403 z m -17.64112,8.87097 c -2.47835,-0.12559 0.98409,-5.13225 4.8387,-9.97984 -1.63866,3.58424 -3.67688,11.16399 -4.8387,9.97984 z m -13.9113,-0.60484 c 1.01352,-6.63951 4.35973,-10.88094 7.05646,-12.701616 -4.99216,7.698876 -6.31054,10.575926 -7.05646,12.701616 z m -13.98969,0.32547 c -0.0849,5.38924 6.34174,-11.93616 9.83677,-18.390476 -5.03366,4.704436 -11.37584,15.200426 -9.83677,18.390476 z m -13.68593,1.71074 c 2.16229,1.84179 10.54777,-15.733312 13.8285,-23.237577 -5.10148,7.549561 -17.63568,20.775737 -13.8285,23.237577 z m -13.54338,1.1405 c 1.73506,1.94802 17.1328,-25.896854 15.62573,-27.763741 -5.79766,8.625062 -20.47687,28.285181 -15.62573,27.763741 z m -13.8285,0.28512 c -0.54665,4.50782 13.13142,-18.175434 18.53304,-31.221042 -7.54828,9.447597 -22.46736,32.204362 -18.53304,31.221042 z"
       style="opacity:1;fill:#000000;fill-rule:evenodd;stroke:#000000;stroke-width:2;stroke-linecap:round;stroke-linejoin:round;paint-order:stroke fill markers"
       id="path945" />
    <path
       d="m 491.26814,485.4231 c 11.61955,1.41803 -32.81965,9.17691 -30.36567,7.84091 1.71097,-0.93149 38.14889,-10.18651 30.36567,-7.84091 z m -27.657,-3.13636 c 8.41759,-2.18787 32.85218,-10.87725 25.23345,-6.55784 0,0 -25.37601,7.27065 -25.23345,6.55784 z m 2.70868,-10.97726 c 6.89057,-1.71079 26.08439,-10.62349 20.67146,-5.13223 z m 3.56404,-11.69007 c 0,0 17.36031,-5.28228 18.10536,-5.70248 8.18276,-4.61502 -16.87246,5.13601 -18.10536,5.70248 z m 3.99173,-9.69421 c 6.32885,-2.55175 21.97793,-11.44919 16.53718,-5.9876 z m 2.13843,-10.97726 c 1.19087,-1.01355 18.95203,-8.77152 14.25619,-5.41735 z m 12.40288,-14.11362 c 3.94001,-3.38195 -14.80157,5.60016 -14.96899,5.70247 z m -0.99793,-10.40702 c 3.36402,-5.18303 -9.64272,4.42044 -14.54131,6.70041 z m -116.47303,-2.9938 c -8.45555,1.15471 17.20232,8.68256 32.70409,9.12396 -10.35357,-2.21456 -23.13657,-5.70444 -32.70409,-9.12396 z m 1.71074,12.40288 c -2.40785,-2.95758 15.59744,4.22006 23.19304,5.99156 -9.29657,-2.30584 -25.49588,-4.71678 -23.19304,-5.99156 z m 1.99587,12.26032 c -1.6832,-2.08761 16.46467,3.66496 25.55621,5.83713 -12.61921,-1.66322 -30.16807,-4.17391 -25.55621,-5.83713 z m -0.42769,10.62284 c -4.07797,1.7132 10.23944,2.30218 25.17308,3.42544 z m 1.14049,9.90607 20.83483,3.84917 c -8.61887,-0.6681 -23.46324,-0.0423 -20.83483,-3.84917 z m 0.14257,12.26032 c -2.5471,3.30977 7.1906,2.5246 14.24036,2.63541 z m 2.13842,10.12189 c -1.5509,1.9744 7.29662,2.05817 11.27923,3.02648 z m -0.71281,10.97726 c 0.71281,0.42769 6.70041,0.28513 6.70041,0.28513 -3.04198,-0.55705 -7.35679,-1.84143 -6.70041,-0.28513 z"
       style="opacity:1;fill:#000000;fill-rule:evenodd;stroke:#000000;stroke-width:4;stroke-linecap:round;stroke-linejoin:round;paint-order:stroke fill markers"
       id="path979" />
    <path
       style="fill:none;stroke:#000000;stroke-width:10"
       id="path6"
       stroke-width="20"
       d="m 489.82509,6.1515342 c -16.03406,0.032472 -31.25937,0.1213123 -43.37712,0.2928651 -48.46979,0.6874366 -96.0083,-0.1311153 -144.01245,0 -1.62546,0.00429 -3.25031,0.022057 -4.87577,0.026346 -48.00415,0.1311154 -95.54266,0.6874366 -144.01245,0 -48.46979,-0.6874365 -146.7572887,0 -146.7572887,0 0,0 3.0603794,29.5193347 4.1564787,44.3096367 1.879116,25.353052 2.607603,50.773498 4.15648,76.151058 2.086204,34.16719 4.841465,68.30865 6.927669,102.47216 1.54949,25.37144 2.395613,50.79189 4.156479,76.15107 2.662745,38.34817 3.075697,77.04558 9.671902,114.91586 3.688385,21.17574 8.833744,42.26265 16.628368,62.29205 9.407832,24.18465 20.508524,48.22471 36.049982,69.00711 11.204848,14.98391 25.51725,27.59549 40.36637,38.97925 17.00027,13.03311 35.51266,24.3948 55.09909,33.06557 20.7199,9.17195 42.83734,15.36623 65.09203,19.66118 16.74723,3.23377 33.91231,4.44505 50.96956,4.50265 16.94819,0.0576 34.03485,-0.93129 50.67547,-4.13014 22.33862,-4.29494 44.44443,-10.79925 65.22682,-20.0631 19.5656,-8.72162 38.12761,-20.03246 55.12972,-33.06557 14.85157,-11.38376 29.16091,-23.99901 40.36637,-38.97925 15.54085,-20.78178 26.64215,-44.82429 36.04999,-69.00711 7.79217,-20.03185 12.93998,-41.14817 16.62836,-62.32268 6.59376,-37.87273 7.00916,-76.56769 9.6719,-114.91587 1.76087,-25.35918 2.60761,-50.7735 4.15648,-76.15106 2.08621,-34.16719 4.84147,-68.27801 6.92767,-102.44765 1.54949,-25.37144 2.27737,-50.797399 4.15648,-76.151064 1.09672,-14.790302 4.15648,-44.3096366 4.15648,-44.3096366 0,0 -55.28901,-0.3896699 -103.37894,-0.2928651 z" />
    <path
       id="path982"
       d="m 442.31002,320.26044 c 3.82849,5.36949 26.42724,5.1337 32.48272,0.22098 -11.44825,-3.26283 -19.6869,-1.98008 -32.48272,-0.22098 z"
       style="opacity:1;fill:#000000;fill-rule:evenodd;stroke:#000000;stroke-width:1;stroke-linecap:round;stroke-linejoin:round;paint-order:stroke fill markers" />
  </g>
</svg>
