<?xml version="1.0" encoding="UTF-8" standalone="no"?>
<!-- Created with Inkscape (http://www.inkscape.org/) -->

<svg
   xmlns:dc="http://purl.org/dc/elements/1.1/"
   xmlns:cc="http://creativecommons.org/ns#"
   xmlns:rdf="http://www.w3.org/1999/02/22-rdf-syntax-ns#"
   xmlns:svg="http://www.w3.org/2000/svg"
   xmlns="http://www.w3.org/2000/svg"
   xmlns:inkscape="http://www.inkscape.org/namespaces/inkscape"
   version="1.0"
   width="405"
   height="500"
   id="svg2">
  <metadata
     id="metadata36">
    <rdf:RDF>
      <cc:Work
         rdf:about="">
        <dc:format>image/svg+xml</dc:format>
        <dc:type
           rdf:resource="http://purl.org/dc/dcmitype/StillImage" />
        <dc:title></dc:title>
      </cc:Work>
    </rdf:RDF>
  </metadata>
  <defs
     id="defs4">
    <inkscape:perspective
       id="perspective10" />
    <inkscape:perspective
       id="perspective2339" />
    <style
       type="text/css"
       id="style2718" />
    <style
       type="text/css"
       id="style2720" />
    <style
       type="text/css"
       id="style2722" />
    <style
       type="text/css"
       id="style2724" />
    <style
       type="text/css"
       id="style2726" />
    <style
       type="text/css"
       id="style2728" />
    <style
       type="text/css"
       id="style2730" />
    <style
       type="text/css"
       id="style2352" />
    <style
       type="text/css"
       id="style2354" />
    <style
       type="text/css"
       id="style2356" />
    <style
       type="text/css"
       id="style2358" />
    <style
       type="text/css"
       id="style2360" />
    <style
       type="text/css"
       id="style2362" />
    <style
       type="text/css"
       id="style2364" />
    <style
       type="text/css"
       id="style6" />
    <style
       type="text/css"
       id="style2978" />
    <style
       type="text/css"
       id="style2181" />
    <style
       type="text/css"
       id="style2183" />
    <style
       type="text/css"
       id="style2054" />
    <style
       type="text/css"
       id="style1367" />
    <style
       type="text/css"
       id="style1365" />
    <inkscape:perspective
       id="perspective3802" />
    <inkscape:perspective
       id="perspective2519" />
  </defs>
  <g
     transform="matrix(-1,0,0,1,495.96439,-15.850927)"
     id="layer1">
    <g
       transform="matrix(2.0998451,0,0,2.0998451,-247.31085,-347.24051)"
       id="g3254">
      <path
         d="m 290.54513,179.59038 186.24687,0 0,144.45182 -2.52538,18.43528 -12.12183,24.24366 -19.44544,21.97082 -23.73858,15.40483 -32.32488,7.07106 -37.12311,-6.06091 -33.08249,-22.98097 -13.38453,-18.18275 -11.36421,-22.98097 -2.77792,-23.48604 1.6415,-137.88583 z"
         transform="translate(-126.26907,-3.0304576)"
         id="path2661"
         style="fill:#fff200;fill-opacity:1;fill-rule:evenodd;stroke:none" />
      <path
         d="m 123.4375,173.34375 0,4.34375 0.25,287.4375 c 0,27.70497 16.229,70.21261 48.6875,106.5625 32.4585,36.34989 81.5353,66.1875 146.9375,66.1875 65.31842,-10e-6 113.92443,-31.94674 145.875,-69.28125 31.95057,-37.33451 47.71875,-79.51174 47.71875,-103.46875 l -0.625,-287.3125 0,-4.34375 -4.34375,0 -380.15625,-0.125 -4.34375,0 z m 8.6875,8.6875 371.46875,0.125 0.625,282.96875 c 0,19.89382 -14.93435,61.91371 -45.65625,97.8125 -30.7219,35.89879 -76.75739,66.24999 -139.25,66.25 -62.76598,0 -109.29541,-28.43685 -140.4375,-63.3125 -31.14209,-34.87565 -46.5,-76.57303 -46.5,-100.75 l -0.25,-283.09375 z"
         transform="matrix(0.4922395,0,0,0.5074614,100.91425,86.138736)"
         id="path13260"
         style="fill:#030301;fill-opacity:1;fill-rule:nonzero;stroke:none" />
      <path
         d="m 397.93697,185.8407 -69.19545,88.89342 44.00477,-25.94829 0,155.56349 66.7332,-86.17863 -42.61581,27.40039 1.07329,-159.73038 z"
         transform="translate(-126.26907,-3.0304576)"
         id="path2663"
         style="fill:#030301;fill-opacity:1;fill-rule:evenodd;stroke:none" />
    </g>
  </g>
</svg>
