<?xml version="1.0" encoding="UTF-8" standalone="no"?>
<!-- Created with Inkscape (http://www.inkscape.org/) -->

<svg
   xmlns:dc="http://purl.org/dc/elements/1.1/"
   xmlns:cc="http://creativecommons.org/ns#"
   xmlns:rdf="http://www.w3.org/1999/02/22-rdf-syntax-ns#"
   xmlns:svg="http://www.w3.org/2000/svg"
   xmlns="http://www.w3.org/2000/svg"
   xmlns:sodipodi="http://sodipodi.sourceforge.net/DTD/sodipodi-0.dtd"
   xmlns:inkscape="http://www.inkscape.org/namespaces/inkscape"
   width="172.37236mm"
   height="184.34291mm"
   viewBox="0 0 172.37236 184.34291"
   version="1.1"
   id="svg865"
   inkscape:version="0.92.5 (2060ec1f9f, 2020-04-08)"
   sodipodi:docname="DEU Kestert COA.svg">
  <defs
     id="defs859">
    <inkscape:path-effect
       effect="spiro"
       id="path-effect1613"
       is_visible="true" />
    <inkscape:path-effect
       effect="spiro"
       id="path-effect984"
       is_visible="true" />
    <inkscape:path-effect
       effect="spiro"
       id="path-effect1259"
       is_visible="true" />
    <inkscape:path-effect
       effect="spiro"
       id="path-effect1182"
       is_visible="true" />
    <inkscape:path-effect
       effect="spiro"
       id="path-effect1113"
       is_visible="true" />
    <inkscape:path-effect
       effect="spiro"
       id="path-effect1012"
       is_visible="true" />
    <inkscape:path-effect
       effect="spiro"
       id="path-effect992"
       is_visible="true" />
    <inkscape:path-effect
       effect="spiro"
       id="path-effect3644"
       is_visible="true" />
    <inkscape:path-effect
       effect="spiro"
       id="path-effect3636"
       is_visible="true" />
    <inkscape:path-effect
       effect="spiro"
       id="path-effect3544"
       is_visible="true" />
    <inkscape:path-effect
       effect="spiro"
       id="path-effect3466"
       is_visible="true" />
    <inkscape:path-effect
       effect="spiro"
       id="path-effect3544-2"
       is_visible="true" />
    <inkscape:path-effect
       effect="spiro"
       id="path-effect3644-8"
       is_visible="true" />
    <inkscape:path-effect
       effect="spiro"
       id="path-effect3644-3"
       is_visible="true" />
    <inkscape:path-effect
       effect="spiro"
       id="path-effect3636-0"
       is_visible="true" />
    <inkscape:path-effect
       effect="spiro"
       id="path-effect1727-0-1"
       is_visible="true" />
    <inkscape:path-effect
       effect="spiro"
       id="path-effect1731-8-3"
       is_visible="true" />
    <inkscape:path-effect
       effect="spiro"
       id="path-effect1727-3"
       is_visible="true" />
    <inkscape:path-effect
       effect="spiro"
       id="path-effect1731-7"
       is_visible="true" />
    <inkscape:path-effect
       effect="spiro"
       id="path-effect841-8"
       is_visible="true" />
    <inkscape:path-effect
       effect="spiro"
       id="path-effect1012-9"
       is_visible="true" />
    <inkscape:path-effect
       effect="spiro"
       id="path-effect1113-2"
       is_visible="true" />
    <inkscape:path-effect
       effect="spiro"
       id="path-effect1113-2-8"
       is_visible="true" />
    <inkscape:path-effect
       effect="spiro"
       id="path-effect1182-2"
       is_visible="true" />
    <inkscape:path-effect
       effect="spiro"
       id="path-effect1259-4"
       is_visible="true" />
    <inkscape:path-effect
       effect="spiro"
       id="path-effect984-4"
       is_visible="true" />
    <inkscape:path-effect
       effect="spiro"
       id="path-effect984-4-4"
       is_visible="true" />
    <inkscape:path-effect
       effect="spiro"
       id="path-effect984-4-40"
       is_visible="true" />
    <inkscape:path-effect
       effect="spiro"
       id="path-effect984-4-4-9"
       is_visible="true" />
    <inkscape:path-effect
       effect="spiro"
       id="path-effect984-4-40-6"
       is_visible="true" />
    <inkscape:path-effect
       effect="spiro"
       id="path-effect984-4-4-9-3"
       is_visible="true" />
    <inkscape:path-effect
       effect="spiro"
       id="path-effect984-4-4-9-8"
       is_visible="true" />
    <inkscape:path-effect
       effect="spiro"
       id="path-effect984-4-4-9-9"
       is_visible="true" />
    <inkscape:path-effect
       effect="spiro"
       id="path-effect984-4-4-9-8-4"
       is_visible="true" />
    <inkscape:path-effect
       effect="spiro"
       id="path-effect984-4-4-9-9-0"
       is_visible="true" />
    <inkscape:path-effect
       effect="spiro"
       id="path-effect984-4-4-9-8-4-1"
       is_visible="true" />
    <inkscape:path-effect
       effect="spiro"
       id="path-effect984-4-4-9-7"
       is_visible="true" />
    <inkscape:path-effect
       effect="spiro"
       id="path-effect984-4-4-9-8-3"
       is_visible="true" />
    <inkscape:path-effect
       effect="spiro"
       id="path-effect984-4-4-9-9-0-3"
       is_visible="true" />
    <inkscape:path-effect
       effect="spiro"
       id="path-effect984-4-4-9-8-4-1-7"
       is_visible="true" />
    <inkscape:path-effect
       effect="spiro"
       id="path-effect984-4-4-9-2"
       is_visible="true" />
    <inkscape:path-effect
       effect="spiro"
       id="path-effect984-4-4-9-8-5"
       is_visible="true" />
    <inkscape:path-effect
       effect="spiro"
       id="path-effect984-4-4-9-9-4"
       is_visible="true" />
    <inkscape:path-effect
       effect="spiro"
       id="path-effect984-4-4-9-8-4-6"
       is_visible="true" />
    <inkscape:path-effect
       effect="spiro"
       id="path-effect984-4-4-9-9-0-3-7"
       is_visible="true" />
    <inkscape:path-effect
       effect="spiro"
       id="path-effect984-4-4-9-8-4-1-7-0"
       is_visible="true" />
    <inkscape:path-effect
       effect="spiro"
       id="path-effect984-4-4-9-75"
       is_visible="true" />
    <inkscape:path-effect
       effect="spiro"
       id="path-effect984-4-4-9-8-7"
       is_visible="true" />
    <inkscape:path-effect
       effect="spiro"
       id="path-effect984-4-4-9-9-9"
       is_visible="true" />
    <inkscape:path-effect
       effect="spiro"
       id="path-effect984-4-4-9-8-4-4"
       is_visible="true" />
    <inkscape:path-effect
       effect="spiro"
       id="path-effect984-4-4-9-9-0-3-9"
       is_visible="true" />
    <inkscape:path-effect
       effect="spiro"
       id="path-effect984-4-4-9-8-4-1-7-3"
       is_visible="true" />
    <inkscape:path-effect
       effect="spiro"
       id="path-effect984-4-4-9-75-8"
       is_visible="true" />
    <inkscape:path-effect
       effect="spiro"
       id="path-effect984-4-4-9-8-7-5"
       is_visible="true" />
    <inkscape:path-effect
       effect="spiro"
       id="path-effect984-4-4-9-9-9-3"
       is_visible="true" />
    <inkscape:path-effect
       effect="spiro"
       id="path-effect984-4-4-9-8-4-4-6"
       is_visible="true" />
    <inkscape:path-effect
       effect="spiro"
       id="path-effect984-4-4-9-9-0-3-9-2"
       is_visible="true" />
    <inkscape:path-effect
       effect="spiro"
       id="path-effect984-4-4-9-8-4-1-7-3-3"
       is_visible="true" />
    <inkscape:path-effect
       effect="spiro"
       id="path-effect1613-0"
       is_visible="true" />
    <inkscape:path-effect
       effect="spiro"
       id="path-effect1613-4"
       is_visible="true" />
    <inkscape:path-effect
       effect="spiro"
       id="path-effect1613-0-0"
       is_visible="true" />
    <inkscape:path-effect
       effect="spiro"
       id="path-effect1613-3"
       is_visible="true" />
    <inkscape:path-effect
       effect="spiro"
       id="path-effect1613-0-2"
       is_visible="true" />
    <inkscape:path-effect
       effect="spiro"
       id="path-effect1613-5"
       is_visible="true" />
    <inkscape:path-effect
       effect="spiro"
       id="path-effect1613-0-5"
       is_visible="true" />
    <inkscape:path-effect
       effect="spiro"
       id="path-effect1613-40"
       is_visible="true" />
    <inkscape:path-effect
       effect="spiro"
       id="path-effect1613-0-9"
       is_visible="true" />
  </defs>
  <sodipodi:namedview
     id="base"
     pagecolor="#ffffff"
     bordercolor="#666666"
     borderopacity="1.0"
     inkscape:pageopacity="0.0"
     inkscape:pageshadow="2"
     inkscape:zoom="1.1381755"
     inkscape:cx="325.74303"
     inkscape:cy="348.36458"
     inkscape:document-units="mm"
     inkscape:current-layer="layer1"
     showgrid="false"
     inkscape:window-width="1920"
     inkscape:window-height="1046"
     inkscape:window-x="-11"
     inkscape:window-y="-11"
     inkscape:window-maximized="1"
     fit-margin-top="0"
     fit-margin-left="0"
     fit-margin-right="0"
     fit-margin-bottom="0"
     inkscape:snap-global="true"
     inkscape:snap-midpoints="true"
     inkscape:snap-smooth-nodes="true"
     inkscape:snap-bbox="false"
     inkscape:object-paths="false" />
  <metadata
     id="metadata862">
    <rdf:RDF>
      <cc:Work
         rdf:about="">
        <dc:format>image/svg+xml</dc:format>
        <dc:type
           rdf:resource="http://purl.org/dc/dcmitype/StillImage" />
        <dc:title />
      </cc:Work>
    </rdf:RDF>
  </metadata>
  <g
     inkscape:label="Ebene 1"
     inkscape:groupmode="layer"
     id="layer1"
     transform="translate(8.1021959,190.73673)">
    <path
       style="fill:#ffffff;stroke:none;stroke-width:2.11666656;stroke-linecap:butt;stroke-linejoin:miter;stroke-miterlimit:4;stroke-dasharray:none;stroke-opacity:1"
       d="m 78.083979,-189.67835 c -6.021692,0 -12.047794,0.27932 -18.047859,0.79038 -8.435739,0.71852 -16.89931,1.51411 -25.19744,3.19621 -4.52319,0.91689 -8.8451,2.65783 -13.33077,3.7442 -2.205259,0.53408 -4.40506,1.13125 -6.66921,1.36166 -0.7604,0.0774 -1.53178,0.11999 -2.28789,0.0114 -0.75611,-0.1086 -1.50169,-0.37741 -2.07099,-0.86031 -0.6138704,-0.5207 -0.9924904,-1.28169 -1.0253604,-2.06088 -1.85623,3.17 -3.95767,6.2116 -6.28197,9.09246 -2.56932002,3.18454 -5.41103,6.17251 -8.48824,8.92515 2.66756,-0.0136 5.32393998,1.02427 7.20326,2.81449 1.73828,1.65587 2.78057,3.87292 3.34228,6.14485 0.5617,2.27192 0.67496,4.61872 0.78161,6.94973 0.64597,14.11773 1.12867,28.2441 1.21488,42.37481 0.0939,15.382963 -0.2508,31.008533 4.0417304,45.846573 3.93867,13.614831 12.6587,25.933101 22.74907,35.845136 6.070041,5.962758 13.9628,9.948148 21.785051,13.280006 5.3097,2.2616424 11.016604,3.6721124 16.738224,4.4138903 3.665215,0.4751758 7.422033,0.4751758 11.087248,0 5.72162,-0.7417779 11.428529,-2.1522479 16.738227,-4.4138903 7.82225,-3.331856 15.71501,-7.317248 21.78505,-13.280006 10.09036,-9.912035 18.8104,-22.230305 22.74906,-35.845136 4.29253,-14.83804 3.94793,-30.463599 4.04174,-45.846573 0.0862,-14.13071 0.56891,-28.25706 1.21487,-42.37481 0.10665,-2.33101 0.21991,-4.67781 0.78162,-6.94973 0.56171,-2.27192 1.60399,-4.48899 3.34228,-6.14485 1.87932,-1.79022 4.53571,-2.82812 7.20326,-2.81449 -3.07721,-2.75263 -5.91892,-5.74061 -8.48825,-8.92515 -2.3243,-2.88087 -4.42573,-5.92245 -6.28197,-9.09246 -0.0329,0.77919 -0.41149,1.54018 -1.02536,2.06088 -0.5693,0.48291 -1.31487,0.75172 -2.07098,0.86031 -0.75612,0.10856 -1.5275,0.066 -2.28789,-0.0114 -2.26415,-0.23041 -4.46395,-0.82758 -6.66922,-1.36166 -4.48567,-1.08636 -8.80758,-2.82731 -13.33076,-3.7442 -8.29813,-1.6821 -16.7617,-2.47769 -25.197442,-3.19621 -6.000065,-0.51106 -12.026167,-0.79038 -18.047859,-0.79038 z"
       id="path1010-8-8"
       inkscape:connector-curvature="0"
       sodipodi:nodetypes="aaaaccscscscccsaaaaaasccscccccccaaaa" />
    <path
       style="fill:none;stroke:#000000;stroke-width:2.11666667;stroke-linecap:butt;stroke-linejoin:miter;stroke-miterlimit:4;stroke-dasharray:none;stroke-opacity:1"
       d="m 78.083957,-189.6784 c -6.021692,0 -12.047794,0.27932 -18.047859,0.79038 -8.43574,0.71852 -16.89931,1.51411 -25.19744,3.19621 -4.52319,0.91689 -8.8451,2.65783 -13.33077,3.7442 -2.20526,0.53408 -4.40506,1.13125 -6.66921,1.36166 -0.7604,0.0774 -1.53178,0.11999 -2.28789,0.0114 -0.75611,-0.1086 -1.50169,-0.37741 -2.07099,-0.86031 -0.61387,-0.5207 -0.99249,-1.28169 -1.02536,-2.06088 -1.85623,3.17 -3.9576698,6.2116 -6.2819698,9.09246 -2.56931998,3.18454 -5.41103,6.17251 -8.48824,8.92515 2.66756,-0.0136 5.32394002,1.02427 7.20326,2.81449 1.73828,1.65587 2.78057,3.87292 3.34228,6.14485 0.5617,2.27192 0.67496,4.61872 0.78161,6.94973 0.64597,14.11773 1.1286698,28.2441 1.2148798,42.37481 0.0939,15.382959 -0.2508,31.008529 4.04173,45.846569 3.93867,13.614829 12.6587,25.933099 22.74907,35.845134 6.07004,5.962758 13.9628,9.948148 21.78505,13.280006 5.3097,2.2616428 11.016605,3.6721128 16.738225,4.4138898 3.665215,0.475176 7.422033,0.475176 11.087248,0 5.72162,-0.741777 11.428529,-2.152247 16.738229,-4.4138898 7.82225,-3.331855 15.71501,-7.317248 21.78505,-13.280006 10.09036,-9.912035 18.8104,-22.230305 22.74906,-35.845134 4.29253,-14.83804 3.94793,-30.4636 4.04174,-45.846569 0.0862,-14.13071 0.56891,-28.25707 1.21487,-42.37481 0.10665,-2.33101 0.21991,-4.67781 0.78162,-6.94973 0.56171,-2.27192 1.60399,-4.48899 3.34228,-6.14485 1.87932,-1.79022 4.53571,-2.82812 7.20326,-2.81449 -3.07721,-2.75263 -5.91892,-5.74061 -8.48825,-8.92515 -2.3243,-2.88087 -4.42573,-5.92245 -6.28197,-9.09246 -0.0329,0.77919 -0.41149,1.54018 -1.02536,2.06088 -0.5693,0.48291 -1.31487,0.75172 -2.07098,0.86031 -0.75612,0.10856 -1.5275,0.066 -2.28789,-0.0114 -2.26415,-0.23041 -4.46395,-0.82758 -6.66922,-1.36166 -4.48567,-1.08636 -8.80758,-2.82731 -13.33076,-3.7442 -8.29813,-1.6821 -16.7617,-2.47769 -25.197444,-3.19621 -6.000067,-0.51106 -12.026167,-0.79038 -18.047859,-0.79038 z"
       id="path1010-8"
       inkscape:connector-curvature="0"
       sodipodi:nodetypes="aaaaccscscscccsaaaaaasccscccccccaaaa" />
    <path
       style="fill:#000000;stroke:none;stroke-width:0.26458332px;stroke-linecap:butt;stroke-linejoin:miter;stroke-opacity:1"
       d="m 78.084243,-185.88018 c -5.714105,0.0163 -11.427744,0.28773 -17.117169,0.81287 -15.089532,1.39279 -30.068602,4.59689 -44.086688,10.29498 -5.271249,2.14266 -10.3979194,4.63382 -15.3345228,7.45071 1.0124412,0.64034 1.9366042,1.41725 2.7384757,2.3027 1.7031588,1.88067 2.8278627,4.21816 3.5595481,6.63732 1.5297684,5.05784 1.403289,10.43531 1.5063442,15.71377 0.1323215,6.77746 0.6650368,13.54221 0.8215948,20.31917 0.29065,12.58141 -0.7147702,25.190969 0.202134,37.742918 0.668254,9.148046 2.368905,18.25653 5.547986,26.872261 4.651456,12.606062 12.553547,24.119649 23.13889,32.510676 8.532886,6.764041 18.87771,11.298069 29.436914,13.622941 6.241501,1.374222 12.931486,1.374222 19.172987,0 10.559204,-2.324872 20.904033,-6.8589 29.436913,-13.622941 10.58535,-8.391027 18.48692,-19.904614 23.13837,-32.510676 3.17908,-8.615731 4.88025,-17.724215 5.54851,-26.872261 0.9169,-12.551949 -0.0885,-25.161508 0.20213,-37.742918 0.15656,-6.77696 0.68928,-13.54171 0.8216,-20.31917 0.10305,-5.27846 -0.0239,-10.65593 1.50582,-15.71377 0.73169,-2.41916 1.85639,-4.75665 3.55955,-6.63732 0.80187,-0.88545 1.72603,-1.66236 2.73847,-2.3027 -4.9366,-2.81689 -10.06327,-5.30805 -15.33452,-7.45071 -14.01809,-5.69809 -28.99716,-8.90219 -44.086689,-10.29498 -5.689425,-0.52514 -11.402543,-0.79653 -17.116648,-0.81287 z"
       id="path1111-9"
       inkscape:connector-curvature="0"
       sodipodi:nodetypes="cssccssssssaassccscccssc" />
    <path
       inkscape:connector-curvature="0"
       style="fill:#ffdd00;stroke:none;stroke-width:0.52916664;stroke-linecap:round;stroke-linejoin:round;stroke-miterlimit:4;stroke-dasharray:none;stroke-opacity:1;fill-opacity:1"
       d="m 78.083977,-163.11464 c -1.185349,0 -2.37045,0.0402 -3.551722,0.1204 -1.417788,0.0962 -2.82902,0.30108 -4.22403,0.57619 0.641709,0.42694 1.081973,1.11583 1.344104,1.82418 0.300681,0.81255 0.19172,1.72273 0.19172,2.59209 v 8.48217 0.47388 h -0.44907 -8.482168 c -0.86936,0 -1.77955,0.10895 -2.592091,-0.19172 -0.708351,-0.26213 -1.397238,-0.70239 -1.824178,-1.34411 -0.275111,1.39501 -0.479941,2.80625 -0.576191,4.22403 -0.0802,1.18128 -0.120406,2.36637 -0.120406,3.55172 0,1.18535 0.04019,2.37097 0.120406,3.55224 0.0962,1.41779 0.30108,2.82901 0.576191,4.22403 0.42694,-0.64172 1.115827,-1.08198 1.824178,-1.3441 0.812541,-0.30068 1.722731,-0.19172 2.592091,-0.19172 h 8.482168 0.44907 v 0.42375 27.93266 2.03967 H 69.841587 41.833476 41.40973 v -0.44855 -8.48218 c 0,-0.86936 -0.108961,-1.77954 0.191719,-2.59208 0.262131,-0.70835 0.702384,-1.39724 1.344105,-1.82418 -1.395011,-0.27511 -2.806253,-0.48 -4.224031,-0.57619 -1.18128,-0.0802 -2.366888,-0.12041 -3.55224,-0.12041 -1.185349,0 -2.37045,0.0402 -3.551719,0.12041 -1.417791,0.0962 -2.829023,0.30108 -4.224033,0.57619 0.64171,0.42694 1.081974,1.11583 1.344104,1.82418 0.30067,0.81254 0.19172,1.72272 0.19172,2.59208 v 8.48218 0.44855 h -0.473874 -8.482169 c -0.869359,0 -1.779539,0.10896 -2.592088,-0.19172 -0.70835,-0.26212 -1.397238,-0.70239 -1.82418,-1.34411 -0.275109,1.39501 -0.479992,2.80626 -0.576191,4.22404 -0.0802,1.18128 -0.120407,2.36688 -0.120407,3.552233 0,1.18535 0.0402,2.37045 0.120407,3.551722 0.0962,1.417786 0.301082,2.82902 0.576191,4.224031 0.426942,-0.641713 1.11583,-1.081974 1.82418,-1.344105 0.812549,-0.30068 1.722729,-0.19172 2.592088,-0.19172 h 8.482169 0.473874 v 0.44907 8.482168 c 0,0.86936 0.10895,1.779551 -0.19172,2.592091 -0.26213,0.708351 -0.702384,1.397238 -1.344104,1.824178 1.39501,0.275111 2.806253,0.479941 4.224033,0.576191 1.18128,0.0802 2.36637,0.120407 3.551719,0.120407 1.185352,0 2.370968,-0.04019 3.55224,-0.120407 1.417789,-0.0962 2.82901,-0.30108 4.224031,-0.576191 -0.641721,-0.42694 -1.081985,-1.115827 -1.344105,-1.824178 -0.30068,-0.81254 -0.191719,-1.722731 -0.191719,-2.592091 v -8.482168 -0.44907 h 0.423746 28.008111 2.002462 v 2.040187 27.93266 0.423748 h -0.44907 -8.482168 c -0.86936,0 -1.77955,0.108961 -2.592091,-0.191719 -0.708359,-0.26212 -1.397238,-0.702384 -1.824178,-1.344105 -0.275111,1.395021 -0.479991,2.80624 -0.576191,4.224031 -0.08021,1.181269 -0.120406,2.366896 -0.120406,3.552237 0,1.185349 0.04021,2.370442 0.120406,3.551722 0.09625,1.41778 0.30108,2.829023 0.576191,4.224033 0.42694,-0.64172 1.115819,-1.081974 1.824178,-1.344104 0.812541,-0.300678 1.722731,-0.19172 2.592091,-0.19172 h 8.482168 0.44907 v 0.473871 8.482171 c 0,0.86936 0.108961,1.77954 -0.19172,2.592089 -0.262131,0.70835 -0.702392,1.397243 -1.344104,1.824178 1.39501,0.275111 2.806242,0.479993 4.22403,0.576193 1.181272,0.08021 2.366373,0.120407 3.551722,0.120407 1.185352,0 2.370957,-0.04021 3.552237,-0.120407 1.417781,-0.0962 2.829021,-0.301082 4.224034,-0.576193 -0.641724,-0.426935 -1.081985,-1.115828 -1.344105,-1.824178 -0.30068,-0.812549 -0.19172,-1.722729 -0.19172,-2.592089 v -8.482171 -0.473871 h 0.448551 8.482169 c 0.86936,0 1.77955,-0.108958 2.592091,0.19172 0.70835,0.26213 1.397238,0.702394 1.824177,1.344104 0.275112,-1.39501 0.479941,-2.806245 0.576192,-4.224033 0.0802,-1.181269 0.120406,-2.366373 0.120406,-3.551722 0,-1.185341 -0.04019,-2.370957 -0.120406,-3.552237 -0.0962,-1.417781 -0.30108,-2.829021 -0.576192,-4.224031 -0.426939,0.641721 -1.115827,1.081977 -1.824177,1.344105 -0.812541,0.30068 -1.722731,0.191719 -2.592091,0.191719 h -8.482169 -0.448551 v -0.423748 -27.93266 -2.040187 h 2.001944 28.008113 0.42374 v 0.44907 8.482168 c 0,0.86936 0.10896,1.779551 -0.19172,2.592091 -0.26211,0.708351 -0.70238,1.397238 -1.3441,1.824178 1.39502,0.275111 2.80624,0.479991 4.22403,0.576191 1.18127,0.08022 2.36689,0.120407 3.55224,0.120407 1.18535,0 2.37044,-0.04021 3.55172,-0.120407 1.41778,-0.09625 2.82903,-0.30108 4.22403,-0.576191 -0.64171,-0.42694 -1.08197,-1.115827 -1.3441,-1.824178 -0.30068,-0.81254 -0.19172,-1.722731 -0.19172,-2.592091 v -8.482168 -0.44907 h 0.47387 8.48217 c 0.86936,0 1.77954,-0.10896 2.59209,0.19172 0.70835,0.262131 1.39724,0.702392 1.82418,1.344105 0.27511,-1.395011 0.47999,-2.806245 0.57619,-4.224031 0.0802,-1.181272 0.12041,-2.366372 0.12041,-3.551722 0,-1.185353 -0.0402,-2.370953 -0.12041,-3.552233 -0.0962,-1.41778 -0.30108,-2.82903 -0.57619,-4.22404 -0.42694,0.64172 -1.11583,1.08199 -1.82418,1.34411 -0.81255,0.30068 -1.72273,0.19172 -2.59209,0.19172 h -8.48217 -0.47387 v -0.44855 -8.48218 c 0,-0.86936 -0.10896,-1.77954 0.19172,-2.59208 0.26213,-0.70835 0.70239,-1.39724 1.3441,-1.82418 -1.395,-0.27511 -2.80624,-0.48 -4.22403,-0.57619 -1.18127,-0.0802 -2.36637,-0.12041 -3.55172,-0.12041 -1.18535,0 -2.37096,0.0402 -3.55224,0.12041 -1.41778,0.0962 -2.82902,0.30108 -4.22403,0.57619 0.64172,0.42694 1.08198,1.11583 1.3441,1.82418 0.30068,0.81254 0.19172,1.72272 0.19172,2.59208 v 8.48218 0.44855 h -0.42374 -28.008113 -2.001944 v -2.03967 -27.93266 -0.42375 h 0.448551 8.482169 c 0.86936,0 1.77955,-0.10896 2.592091,0.19172 0.70835,0.26213 1.397238,0.70238 1.824177,1.3441 0.275112,-1.39501 0.479992,-2.80625 0.576192,-4.22403 0.08021,-1.18128 0.120406,-2.36689 0.120406,-3.55224 0,-1.18535 -0.04021,-2.37045 -0.120406,-3.55172 -0.09625,-1.41779 -0.30108,-2.82902 -0.576192,-4.22403 -0.426939,0.64171 -1.115827,1.08198 -1.824177,1.34411 -0.812541,0.30067 -1.722731,0.19172 -2.592091,0.19172 h -8.482169 -0.448551 v -0.47388 -8.48217 c 0,-0.86936 -0.10896,-1.77954 0.19172,-2.59209 0.26212,-0.70835 0.702381,-1.39724 1.344105,-1.82418 -1.395013,-0.27511 -2.806253,-0.47999 -4.224034,-0.57619 -1.18128,-0.0802 -2.366885,-0.1204 -3.552237,-0.1204 z"
       id="path1180-1" />
    <path
       style="fill:none;stroke:#000000;stroke-width:0.396875;stroke-linecap:round;stroke-linejoin:round;stroke-miterlimit:4;stroke-dasharray:none;stroke-opacity:1"
       d="M 61.64455,-142.80555 H 94.523407"
       id="path978-5"
       inkscape:connector-curvature="0" />
    <path
       transform="rotate(-90,-7.343065,-228.32555)"
       style="fill:none;stroke:#000000;stroke-width:0.396875;stroke-linecap:round;stroke-linejoin:round;stroke-miterlimit:4;stroke-dasharray:none;stroke-opacity:1"
       d="m -92.863063,-159.33794 c -0.414779,-0.62279 -0.947135,-1.16697 -1.560654,-1.59534 -0.973493,-0.67971 -2.129205,-1.05675 -3.294713,-1.2832 -0.961336,-0.18678 -1.941368,-0.2772 -2.92065,-0.26946"
       id="path982-5-7-5"
       inkscape:connector-curvature="0"
       inkscape:path-effect="#path-effect984-4-4-9"
       inkscape:original-d="m -92.863063,-159.33794 c -0.450591,-0.55516 -0.939984,-1.18523 -1.560654,-1.59534 -0.983327,-0.64973 -2.147615,-1.01256 -3.294713,-1.2832 -0.951558,-0.22451 -1.426464,-0.1173 -2.92065,-0.26946"
       sodipodi:nodetypes="caac" />
    <path
       transform="matrix(0,1,1,0,220.98249,-49.942483)"
       style="fill:none;stroke:#000000;stroke-width:0.396875;stroke-linecap:round;stroke-linejoin:round;stroke-miterlimit:4;stroke-dasharray:none;stroke-opacity:1"
       d="m -92.863063,-159.33794 c -0.414779,-0.62279 -0.947135,-1.16697 -1.560654,-1.59534 -0.973493,-0.67971 -2.129205,-1.05675 -3.294713,-1.2832 -0.961336,-0.18678 -1.941368,-0.2772 -2.92065,-0.26946"
       id="path982-5-7-5-0"
       inkscape:connector-curvature="0"
       inkscape:path-effect="#path-effect984-4-4-9-8"
       inkscape:original-d="m -92.863063,-159.33794 c -0.450591,-0.55516 -0.939984,-1.18523 -1.560654,-1.59534 -0.983327,-0.64973 -2.147615,-1.01256 -3.294713,-1.2832 -0.951558,-0.22451 -1.426464,-0.1173 -2.92065,-0.26946"
       sodipodi:nodetypes="caac" />
    <path
       transform="matrix(0,-1,-1,0,-64.81453,-235.66861)"
       style="fill:none;stroke:#000000;stroke-width:0.396875;stroke-linecap:round;stroke-linejoin:round;stroke-miterlimit:4;stroke-dasharray:none;stroke-opacity:1"
       d="m -92.863063,-159.33794 c -0.414779,-0.62279 -0.947135,-1.16697 -1.560654,-1.59534 -0.973493,-0.67971 -2.129205,-1.05675 -3.294713,-1.2832 -0.961336,-0.18678 -1.941368,-0.2772 -2.92065,-0.26946"
       id="path982-5-7-5-4"
       inkscape:connector-curvature="0"
       inkscape:path-effect="#path-effect984-4-4-9-9"
       inkscape:original-d="m -92.863063,-159.33794 c -0.450591,-0.55516 -0.939984,-1.18523 -1.560654,-1.59534 -0.983327,-0.64973 -2.147615,-1.01256 -3.294713,-1.2832 -0.951558,-0.22451 -1.426464,-0.1173 -2.92065,-0.26946"
       sodipodi:nodetypes="caac" />
    <path
       transform="rotate(90,-7.436024,-57.3785)"
       style="fill:none;stroke:#000000;stroke-width:0.396875;stroke-linecap:round;stroke-linejoin:round;stroke-miterlimit:4;stroke-dasharray:none;stroke-opacity:1"
       d="m -92.863063,-159.33794 c -0.414779,-0.62279 -0.947135,-1.16697 -1.560654,-1.59534 -0.973493,-0.67971 -2.129205,-1.05675 -3.294713,-1.2832 -0.961336,-0.18678 -1.941368,-0.2772 -2.92065,-0.26946"
       id="path982-5-7-5-0-9"
       inkscape:connector-curvature="0"
       inkscape:path-effect="#path-effect984-4-4-9-8-4"
       inkscape:original-d="m -92.863063,-159.33794 c -0.450591,-0.55516 -0.939984,-1.18523 -1.560654,-1.59534 -0.983327,-0.64973 -2.147615,-1.01256 -3.294713,-1.2832 -0.951558,-0.22451 -1.426464,-0.1173 -2.92065,-0.26946"
       sodipodi:nodetypes="caac" />
    <path
       transform="matrix(-1,0,0,1,-14.77909,0.068154)"
       style="fill:none;stroke:#000000;stroke-width:0.396875;stroke-linecap:round;stroke-linejoin:round;stroke-miterlimit:4;stroke-dasharray:none;stroke-opacity:1"
       d="m -92.863063,-159.33794 c -0.414779,-0.62279 -0.947135,-1.16697 -1.560654,-1.59534 -0.973493,-0.67971 -2.129205,-1.05675 -3.294713,-1.2832 -0.961336,-0.18678 -1.941368,-0.2772 -2.92065,-0.26946"
       id="path982-5-7-5-4-6"
       inkscape:connector-curvature="0"
       inkscape:path-effect="#path-effect984-4-4-9-9-0-3"
       inkscape:original-d="m -92.863063,-159.33794 c -0.450591,-0.55516 -0.939984,-1.18523 -1.560654,-1.59534 -0.983327,-0.64973 -2.147615,-1.01256 -3.294713,-1.2832 -0.951558,-0.22451 -1.426464,-0.1173 -2.92065,-0.26946"
       sodipodi:nodetypes="caac" />
    <path
       transform="translate(170.94705,0.068153)"
       style="fill:none;stroke:#000000;stroke-width:0.396875;stroke-linecap:round;stroke-linejoin:round;stroke-miterlimit:4;stroke-dasharray:none;stroke-opacity:1"
       d="m -92.863063,-159.33794 c -0.414779,-0.62279 -0.947135,-1.16697 -1.560654,-1.59534 -0.973493,-0.67971 -2.129205,-1.05675 -3.294713,-1.2832 -0.961336,-0.18678 -1.941368,-0.2772 -2.92065,-0.26946"
       id="path982-5-7-5-0-9-9"
       inkscape:connector-curvature="0"
       inkscape:path-effect="#path-effect984-4-4-9-8-4-1-7"
       inkscape:original-d="m -92.863063,-159.33794 c -0.450591,-0.55516 -0.939984,-1.18523 -1.560654,-1.59534 -0.983327,-0.64973 -2.147615,-1.01256 -3.294713,-1.2832 -0.951558,-0.22451 -1.426464,-0.1173 -2.92065,-0.26946"
       sodipodi:nodetypes="caac" />
    <path
       style="fill:none;stroke:#000000;stroke-width:0.396875;stroke-linecap:round;stroke-linejoin:round;stroke-miterlimit:4;stroke-dasharray:none;stroke-opacity:1"
       d="M 61.64469,-57.05187 H 94.523548"
       id="path978-5-0"
       inkscape:connector-curvature="0" />
    <path
       transform="matrix(0,1,1,0,220.98263,35.811193)"
       style="fill:none;stroke:#000000;stroke-width:0.396875;stroke-linecap:round;stroke-linejoin:round;stroke-miterlimit:4;stroke-dasharray:none;stroke-opacity:1"
       d="m -92.863063,-159.33794 c -0.414779,-0.62279 -0.947135,-1.16697 -1.560654,-1.59534 -0.973493,-0.67971 -2.129205,-1.05675 -3.294713,-1.2832 -0.961336,-0.18678 -1.941368,-0.2772 -2.92065,-0.26946"
       id="path982-5-7-5-1"
       inkscape:connector-curvature="0"
       inkscape:path-effect="#path-effect984-4-4-9-2"
       inkscape:original-d="m -92.863063,-159.33794 c -0.450591,-0.55516 -0.939984,-1.18523 -1.560654,-1.59534 -0.983327,-0.64973 -2.147615,-1.01256 -3.294713,-1.2832 -0.951558,-0.22451 -1.426464,-0.1173 -2.92065,-0.26946"
       sodipodi:nodetypes="caac" />
    <path
       transform="rotate(-90,35.533843,-185.44879)"
       style="fill:none;stroke:#000000;stroke-width:0.396875;stroke-linecap:round;stroke-linejoin:round;stroke-miterlimit:4;stroke-dasharray:none;stroke-opacity:1"
       d="m -92.863063,-159.33794 c -0.414779,-0.62279 -0.947135,-1.16697 -1.560654,-1.59534 -0.973493,-0.67971 -2.129205,-1.05675 -3.294713,-1.2832 -0.961336,-0.18678 -1.941368,-0.2772 -2.92065,-0.26946"
       id="path982-5-7-5-0-8"
       inkscape:connector-curvature="0"
       inkscape:path-effect="#path-effect984-4-4-9-8-5"
       inkscape:original-d="m -92.863063,-159.33794 c -0.450591,-0.55516 -0.939984,-1.18523 -1.560654,-1.59534 -0.983327,-0.64973 -2.147615,-1.01256 -3.294713,-1.2832 -0.951558,-0.22451 -1.426464,-0.1173 -2.92065,-0.26946"
       sodipodi:nodetypes="caac" />
    <path
       transform="rotate(90,-50.31279,-14.501596)"
       style="fill:none;stroke:#000000;stroke-width:0.396875;stroke-linecap:round;stroke-linejoin:round;stroke-miterlimit:4;stroke-dasharray:none;stroke-opacity:1"
       d="m -92.863063,-159.33794 c -0.414779,-0.62279 -0.947135,-1.16697 -1.560654,-1.59534 -0.973493,-0.67971 -2.129205,-1.05675 -3.294713,-1.2832 -0.961336,-0.18678 -1.941368,-0.2772 -2.92065,-0.26946"
       id="path982-5-7-5-4-2"
       inkscape:connector-curvature="0"
       inkscape:path-effect="#path-effect984-4-4-9-9-4"
       inkscape:original-d="m -92.863063,-159.33794 c -0.450591,-0.55516 -0.939984,-1.18523 -1.560654,-1.59534 -0.983327,-0.64973 -2.147615,-1.01256 -3.294713,-1.2832 -0.951558,-0.22451 -1.426464,-0.1173 -2.92065,-0.26946"
       sodipodi:nodetypes="caac" />
    <path
       transform="matrix(0,-1,-1,0,-64.81438,-149.91494)"
       style="fill:none;stroke:#000000;stroke-width:0.396875;stroke-linecap:round;stroke-linejoin:round;stroke-miterlimit:4;stroke-dasharray:none;stroke-opacity:1"
       d="m -92.863063,-159.33794 c -0.414779,-0.62279 -0.947135,-1.16697 -1.560654,-1.59534 -0.973493,-0.67971 -2.129205,-1.05675 -3.294713,-1.2832 -0.961336,-0.18678 -1.941368,-0.2772 -2.92065,-0.26946"
       id="path982-5-7-5-0-9-3"
       inkscape:connector-curvature="0"
       inkscape:path-effect="#path-effect984-4-4-9-8-4-6"
       inkscape:original-d="m -92.863063,-159.33794 c -0.450591,-0.55516 -0.939984,-1.18523 -1.560654,-1.59534 -0.983327,-0.64973 -2.147615,-1.01256 -3.294713,-1.2832 -0.951558,-0.22451 -1.426464,-0.1173 -2.92065,-0.26946"
       sodipodi:nodetypes="caac" />
    <path
       style="fill:none;stroke:#000000;stroke-width:0.396875;stroke-linecap:round;stroke-linejoin:round;stroke-miterlimit:4;stroke-dasharray:none;stroke-opacity:1"
       d="m 78.083987,-159.26979 1.41e-4,118.68216"
       id="path978-5-3-6"
       inkscape:connector-curvature="0"
       sodipodi:nodetypes="cc" />
    <path
       transform="rotate(-180,-7.389474,-99.962787)"
       style="fill:none;stroke:#000000;stroke-width:0.396875;stroke-linecap:round;stroke-linejoin:round;stroke-miterlimit:4;stroke-dasharray:none;stroke-opacity:1"
       d="m -92.863063,-159.33794 c -0.414779,-0.62279 -0.947135,-1.16697 -1.560654,-1.59534 -0.973493,-0.67971 -2.129205,-1.05675 -3.294713,-1.2832 -0.961336,-0.18678 -1.941368,-0.2772 -2.92065,-0.26946"
       id="path982-5-7-5-4-6-4"
       inkscape:connector-curvature="0"
       inkscape:path-effect="#path-effect984-4-4-9-9-0-3-7"
       inkscape:original-d="m -92.863063,-159.33794 c -0.450591,-0.55516 -0.939984,-1.18523 -1.560654,-1.59534 -0.983327,-0.64973 -2.147615,-1.01256 -3.294713,-1.2832 -0.951558,-0.22451 -1.426464,-0.1173 -2.92065,-0.26946"
       sodipodi:nodetypes="caac" />
    <path
       transform="matrix(1,0,0,-1,170.94719,-199.92557)"
       style="fill:none;stroke:#000000;stroke-width:0.396875;stroke-linecap:round;stroke-linejoin:round;stroke-miterlimit:4;stroke-dasharray:none;stroke-opacity:1"
       d="m -92.863063,-159.33794 c -0.414779,-0.62279 -0.947135,-1.16697 -1.560654,-1.59534 -0.973493,-0.67971 -2.129205,-1.05675 -3.294713,-1.2832 -0.961336,-0.18678 -1.941368,-0.2772 -2.92065,-0.26946"
       id="path982-5-7-5-0-9-9-4"
       inkscape:connector-curvature="0"
       inkscape:path-effect="#path-effect984-4-4-9-8-4-1-7-0"
       inkscape:original-d="m -92.863063,-159.33794 c -0.450591,-0.55516 -0.939984,-1.18523 -1.560654,-1.59534 -0.983327,-0.64973 -2.147615,-1.01256 -3.294713,-1.2832 -0.951558,-0.22451 -1.426464,-0.1173 -2.92065,-0.26946"
       sodipodi:nodetypes="caac" />
    <path
       style="fill:none;stroke:#000000;stroke-width:0.396875;stroke-linecap:round;stroke-linejoin:round;stroke-miterlimit:4;stroke-dasharray:none;stroke-opacity:1"
       d="M 35.16954,-83.489405 V -116.36826"
       id="path978-5-5"
       inkscape:connector-curvature="0" />
    <path
       transform="rotate(-180,-28.84677,-121.41367)"
       style="fill:none;stroke:#000000;stroke-width:0.396875;stroke-linecap:round;stroke-linejoin:round;stroke-miterlimit:4;stroke-dasharray:none;stroke-opacity:1"
       d="m -92.863063,-159.33794 c -0.414779,-0.62279 -0.947135,-1.16697 -1.560654,-1.59534 -0.973493,-0.67971 -2.129205,-1.05675 -3.294713,-1.2832 -0.961336,-0.18678 -1.941368,-0.2772 -2.92065,-0.26946"
       id="path982-5-7-5-2"
       inkscape:connector-curvature="0"
       inkscape:path-effect="#path-effect984-4-4-9-75"
       inkscape:original-d="m -92.863063,-159.33794 c -0.450591,-0.55516 -0.939984,-1.18523 -1.560654,-1.59534 -0.983327,-0.64973 -2.147615,-1.01256 -3.294713,-1.2832 -0.951558,-0.22451 -1.426464,-0.1173 -2.92065,-0.26946"
       sodipodi:nodetypes="caac" />
    <path
       transform="matrix(1,0,0,-1,128.03261,-242.82734)"
       style="fill:none;stroke:#000000;stroke-width:0.396875;stroke-linecap:round;stroke-linejoin:round;stroke-miterlimit:4;stroke-dasharray:none;stroke-opacity:1"
       d="m -92.863063,-159.33794 c -0.414779,-0.62279 -0.947135,-1.16697 -1.560654,-1.59534 -0.973493,-0.67971 -2.129205,-1.05675 -3.294713,-1.2832 -0.961336,-0.18678 -1.941368,-0.2772 -2.92065,-0.26946"
       id="path982-5-7-5-0-6"
       inkscape:connector-curvature="0"
       inkscape:path-effect="#path-effect984-4-4-9-8-7"
       inkscape:original-d="m -92.863063,-159.33794 c -0.450591,-0.55516 -0.939984,-1.18523 -1.560654,-1.59534 -0.983327,-0.64973 -2.147615,-1.01256 -3.294713,-1.2832 -0.951558,-0.22451 -1.426464,-0.1173 -2.92065,-0.26946"
       sodipodi:nodetypes="caac" />
    <path
       transform="matrix(-1,0,0,1,-57.69352,42.969672)"
       style="fill:none;stroke:#000000;stroke-width:0.396875;stroke-linecap:round;stroke-linejoin:round;stroke-miterlimit:4;stroke-dasharray:none;stroke-opacity:1"
       d="m -92.863063,-159.33794 c -0.414779,-0.62279 -0.947135,-1.16697 -1.560654,-1.59534 -0.973493,-0.67971 -2.129205,-1.05675 -3.294713,-1.2832 -0.961336,-0.18678 -1.941368,-0.2772 -2.92065,-0.26946"
       id="path982-5-7-5-4-9"
       inkscape:connector-curvature="0"
       inkscape:path-effect="#path-effect984-4-4-9-9-9"
       inkscape:original-d="m -92.863063,-159.33794 c -0.450591,-0.55516 -0.939984,-1.18523 -1.560654,-1.59534 -0.983327,-0.64973 -2.147615,-1.01256 -3.294713,-1.2832 -0.951558,-0.22451 -1.426464,-0.1173 -2.92065,-0.26946"
       sodipodi:nodetypes="caac" />
    <path
       transform="translate(128.03261,42.969671)"
       style="fill:none;stroke:#000000;stroke-width:0.396875;stroke-linecap:round;stroke-linejoin:round;stroke-miterlimit:4;stroke-dasharray:none;stroke-opacity:1"
       d="m -92.863063,-159.33794 c -0.414779,-0.62279 -0.947135,-1.16697 -1.560654,-1.59534 -0.973493,-0.67971 -2.129205,-1.05675 -3.294713,-1.2832 -0.961336,-0.18678 -1.941368,-0.2772 -2.92065,-0.26946"
       id="path982-5-7-5-0-9-7"
       inkscape:connector-curvature="0"
       inkscape:path-effect="#path-effect984-4-4-9-8-4-4"
       inkscape:original-d="m -92.863063,-159.33794 c -0.450591,-0.55516 -0.939984,-1.18523 -1.560654,-1.59534 -0.983327,-0.64973 -2.147615,-1.01256 -3.294713,-1.2832 -0.951558,-0.22451 -1.426464,-0.1173 -2.92065,-0.26946"
       sodipodi:nodetypes="caac" />
    <path
       transform="matrix(0,1,1,0,178.04324,-7.065765)"
       style="fill:none;stroke:#000000;stroke-width:0.396875;stroke-linecap:round;stroke-linejoin:round;stroke-miterlimit:4;stroke-dasharray:none;stroke-opacity:1"
       d="m -92.863063,-159.33794 c -0.414779,-0.62279 -0.947135,-1.16697 -1.560654,-1.59534 -0.973493,-0.67971 -2.129205,-1.05675 -3.294713,-1.2832 -0.961336,-0.18678 -1.941368,-0.2772 -2.92065,-0.26946"
       id="path982-5-7-5-4-6-9"
       inkscape:connector-curvature="0"
       inkscape:path-effect="#path-effect984-4-4-9-9-0-3-9"
       inkscape:original-d="m -92.863063,-159.33794 c -0.450591,-0.55516 -0.939984,-1.18523 -1.560654,-1.59534 -0.983327,-0.64973 -2.147615,-1.01256 -3.294713,-1.2832 -0.951558,-0.22451 -1.426464,-0.1173 -2.92065,-0.26946"
       sodipodi:nodetypes="caac" />
    <path
       transform="rotate(-90,-7.374331,-185.41757)"
       style="fill:none;stroke:#000000;stroke-width:0.396875;stroke-linecap:round;stroke-linejoin:round;stroke-miterlimit:4;stroke-dasharray:none;stroke-opacity:1"
       d="m -92.863063,-159.33794 c -0.414779,-0.62279 -0.947135,-1.16697 -1.560654,-1.59534 -0.973493,-0.67971 -2.129205,-1.05675 -3.294713,-1.2832 -0.961336,-0.18678 -1.941368,-0.2772 -2.92065,-0.26946"
       id="path982-5-7-5-0-9-9-49"
       inkscape:connector-curvature="0"
       inkscape:path-effect="#path-effect984-4-4-9-8-4-1-7-3"
       inkscape:original-d="m -92.863063,-159.33794 c -0.450591,-0.55516 -0.939984,-1.18523 -1.560654,-1.59534 -0.983327,-0.64973 -2.147615,-1.01256 -3.294713,-1.2832 -0.951558,-0.22451 -1.426464,-0.1173 -2.92065,-0.26946"
       sodipodi:nodetypes="caac" />
    <path
       style="fill:none;stroke:#000000;stroke-width:0.396875;stroke-linecap:round;stroke-linejoin:round;stroke-miterlimit:4;stroke-dasharray:none;stroke-opacity:1"
       d="m 120.99865,-83.48955 v -32.87886"
       id="path978-5-5-1"
       inkscape:connector-curvature="0" />
    <path
       transform="matrix(1,0,0,-1,213.86171,-242.82749)"
       style="fill:none;stroke:#000000;stroke-width:0.396875;stroke-linecap:round;stroke-linejoin:round;stroke-miterlimit:4;stroke-dasharray:none;stroke-opacity:1"
       d="m -92.863063,-159.33794 c -0.414779,-0.62279 -0.947135,-1.16697 -1.560654,-1.59534 -0.973493,-0.67971 -2.129205,-1.05675 -3.294713,-1.2832 -0.961336,-0.18678 -1.941368,-0.2772 -2.92065,-0.26946"
       id="path982-5-7-5-2-0"
       inkscape:connector-curvature="0"
       inkscape:path-effect="#path-effect984-4-4-9-75-8"
       inkscape:original-d="m -92.863063,-159.33794 c -0.450591,-0.55516 -0.939984,-1.18523 -1.560654,-1.59534 -0.983327,-0.64973 -2.147615,-1.01256 -3.294713,-1.2832 -0.951558,-0.22451 -1.426464,-0.1173 -2.92065,-0.26946"
       sodipodi:nodetypes="caac" />
    <path
       transform="rotate(180,14.067788,-121.41374)"
       style="fill:none;stroke:#000000;stroke-width:0.396875;stroke-linecap:round;stroke-linejoin:round;stroke-miterlimit:4;stroke-dasharray:none;stroke-opacity:1"
       d="m -92.863063,-159.33794 c -0.414779,-0.62279 -0.947135,-1.16697 -1.560654,-1.59534 -0.973493,-0.67971 -2.129205,-1.05675 -3.294713,-1.2832 -0.961336,-0.18678 -1.941368,-0.2772 -2.92065,-0.26946"
       id="path982-5-7-5-0-6-6"
       inkscape:connector-curvature="0"
       inkscape:path-effect="#path-effect984-4-4-9-8-7-5"
       inkscape:original-d="m -92.863063,-159.33794 c -0.450591,-0.55516 -0.939984,-1.18523 -1.560654,-1.59534 -0.983327,-0.64973 -2.147615,-1.01256 -3.294713,-1.2832 -0.951558,-0.22451 -1.426464,-0.1173 -2.92065,-0.26946"
       sodipodi:nodetypes="caac" />
    <path
       transform="translate(213.86172,42.969532)"
       style="fill:none;stroke:#000000;stroke-width:0.396875;stroke-linecap:round;stroke-linejoin:round;stroke-miterlimit:4;stroke-dasharray:none;stroke-opacity:1"
       d="m -92.863063,-159.33794 c -0.414779,-0.62279 -0.947135,-1.16697 -1.560654,-1.59534 -0.973493,-0.67971 -2.129205,-1.05675 -3.294713,-1.2832 -0.961336,-0.18678 -1.941368,-0.2772 -2.92065,-0.26946"
       id="path982-5-7-5-4-9-2"
       inkscape:connector-curvature="0"
       inkscape:path-effect="#path-effect984-4-4-9-9-9-3"
       inkscape:original-d="m -92.863063,-159.33794 c -0.450591,-0.55516 -0.939984,-1.18523 -1.560654,-1.59534 -0.983327,-0.64973 -2.147615,-1.01256 -3.294713,-1.2832 -0.951558,-0.22451 -1.426464,-0.1173 -2.92065,-0.26946"
       sodipodi:nodetypes="caac" />
    <path
       transform="matrix(-1,0,0,1,28.13558,42.969531)"
       style="fill:none;stroke:#000000;stroke-width:0.396875;stroke-linecap:round;stroke-linejoin:round;stroke-miterlimit:4;stroke-dasharray:none;stroke-opacity:1"
       d="m -92.863063,-159.33794 c -0.414779,-0.62279 -0.947135,-1.16697 -1.560654,-1.59534 -0.973493,-0.67971 -2.129205,-1.05675 -3.294713,-1.2832 -0.961336,-0.18678 -1.941368,-0.2772 -2.92065,-0.26946"
       id="path982-5-7-5-0-9-7-5"
       inkscape:connector-curvature="0"
       inkscape:path-effect="#path-effect984-4-4-9-8-4-4-6"
       inkscape:original-d="m -92.863063,-159.33794 c -0.450591,-0.55516 -0.939984,-1.18523 -1.560654,-1.59534 -0.983327,-0.64973 -2.147615,-1.01256 -3.294713,-1.2832 -0.951558,-0.22451 -1.426464,-0.1173 -2.92065,-0.26946"
       sodipodi:nodetypes="caac" />
    <path
       style="fill:none;stroke:#000000;stroke-width:0.396875;stroke-linecap:round;stroke-linejoin:round;stroke-miterlimit:4;stroke-dasharray:none;stroke-opacity:1"
       d="m 18.7053,-99.928841 118.55099,-1.28e-4"
       id="path978-5-3-9-2"
       inkscape:connector-curvature="0"
       sodipodi:nodetypes="cc" />
    <path
       transform="rotate(90,-7.404573,-14.470486)"
       style="fill:none;stroke:#000000;stroke-width:0.396875;stroke-linecap:round;stroke-linejoin:round;stroke-miterlimit:4;stroke-dasharray:none;stroke-opacity:1"
       d="m -92.863063,-159.33794 c -0.414779,-0.62279 -0.947135,-1.16697 -1.560654,-1.59534 -0.973493,-0.67971 -2.129205,-1.05675 -3.294713,-1.2832 -0.961336,-0.18678 -1.941368,-0.2772 -2.92065,-0.26946"
       id="path982-5-7-5-4-6-9-5"
       inkscape:connector-curvature="0"
       inkscape:path-effect="#path-effect984-4-4-9-9-0-3-9-2"
       inkscape:original-d="m -92.863063,-159.33794 c -0.450591,-0.55516 -0.939984,-1.18523 -1.560654,-1.59534 -0.983327,-0.64973 -2.147615,-1.01256 -3.294713,-1.2832 -0.951558,-0.22451 -1.426464,-0.1173 -2.92065,-0.26946"
       sodipodi:nodetypes="caac" />
    <path
       transform="matrix(0,-1,-1,0,-21.87505,-192.79205)"
       style="fill:none;stroke:#000000;stroke-width:0.396875;stroke-linecap:round;stroke-linejoin:round;stroke-miterlimit:4;stroke-dasharray:none;stroke-opacity:1"
       d="m -92.863063,-159.33794 c -0.414779,-0.62279 -0.947135,-1.16697 -1.560654,-1.59534 -0.973493,-0.67971 -2.129205,-1.05675 -3.294713,-1.2832 -0.961336,-0.18678 -1.941368,-0.2772 -2.92065,-0.26946"
       id="path982-5-7-5-0-9-9-49-6"
       inkscape:connector-curvature="0"
       inkscape:path-effect="#path-effect984-4-4-9-8-4-1-7-3-3"
       inkscape:original-d="m -92.863063,-159.33794 c -0.450591,-0.55516 -0.939984,-1.18523 -1.560654,-1.59534 -0.983327,-0.64973 -2.147615,-1.01256 -3.294713,-1.2832 -0.951558,-0.22451 -1.426464,-0.1173 -2.92065,-0.26946"
       sodipodi:nodetypes="caac" />
    <path
       style="fill:none;stroke:#000000;stroke-width:0.396875;stroke-linecap:round;stroke-linejoin:miter;stroke-miterlimit:4;stroke-dasharray:none;stroke-opacity:1"
       d="m -99.066667,-63.292316 12.928925,12.480374"
       id="path1611"
       inkscape:connector-curvature="0"
       inkscape:path-effect="#path-effect1613"
       inkscape:original-d="m -99.066667,-63.292316 c 4.309906,4.159861 8.619548,8.319987 12.928925,12.480374"
       transform="translate(170.91072)" />
    <path
       transform="rotate(90,-7.259172,28.291162)"
       style="fill:none;stroke:#000000;stroke-width:0.396875;stroke-linecap:round;stroke-linejoin:miter;stroke-miterlimit:4;stroke-dasharray:none;stroke-opacity:1"
       d="m -99.066667,-63.292316 12.928925,12.480374"
       id="path1611-8"
       inkscape:connector-curvature="0"
       inkscape:path-effect="#path-effect1613-0"
       inkscape:original-d="m -99.066667,-63.292316 c 4.309906,4.159861 8.619548,8.319987 12.928925,12.480374" />
    <path
       style="fill:none;stroke:#000000;stroke-width:0.396875;stroke-linecap:round;stroke-linejoin:miter;stroke-miterlimit:4;stroke-dasharray:none;stroke-opacity:1"
       d="m -99.066667,-63.292316 12.928925,12.480374"
       id="path1611-3"
       inkscape:connector-curvature="0"
       inkscape:path-effect="#path-effect1613-4"
       inkscape:original-d="m -99.066667,-63.292316 c 4.309906,4.159861 8.619548,8.319987 12.928925,12.480374"
       transform="translate(127.99603,-42.876967)" />
    <path
       transform="rotate(90,-7.2780335,-14.604666)"
       style="fill:none;stroke:#000000;stroke-width:0.396875;stroke-linecap:round;stroke-linejoin:miter;stroke-miterlimit:4;stroke-dasharray:none;stroke-opacity:1"
       d="m -99.066667,-63.292316 12.928925,12.480374"
       id="path1611-8-0"
       inkscape:connector-curvature="0"
       inkscape:path-effect="#path-effect1613-0-0"
       inkscape:original-d="m -99.066667,-63.292316 c 4.309906,4.159861 8.619548,8.319987 12.928925,12.480374" />
    <path
       style="fill:none;stroke:#000000;stroke-width:0.396875;stroke-linecap:round;stroke-linejoin:miter;stroke-miterlimit:4;stroke-dasharray:none;stroke-opacity:1"
       d="m -99.066667,-63.292316 12.928925,12.480374"
       id="path1611-2"
       inkscape:connector-curvature="0"
       inkscape:path-effect="#path-effect1613-3"
       inkscape:original-d="m -99.066667,-63.292316 c 4.309906,4.159861 8.619548,8.319987 12.928925,12.480374"
       transform="translate(213.82502,-42.65295)" />
    <path
       transform="rotate(90,35.524453,28.421837)"
       style="fill:none;stroke:#000000;stroke-width:0.396875;stroke-linecap:round;stroke-linejoin:miter;stroke-miterlimit:4;stroke-dasharray:none;stroke-opacity:1"
       d="m -99.066667,-63.292316 12.928925,12.480374"
       id="path1611-8-5"
       inkscape:connector-curvature="0"
       inkscape:path-effect="#path-effect1613-0-2"
       inkscape:original-d="m -99.066667,-63.292316 c 4.309906,4.159861 8.619548,8.319987 12.928925,12.480374" />
    <path
       style="fill:none;stroke:#000000;stroke-width:0.396875;stroke-linecap:round;stroke-linejoin:miter;stroke-miterlimit:4;stroke-dasharray:none;stroke-opacity:1"
       d="m -99.066667,-63.292316 12.928925,12.480374"
       id="path1611-88"
       inkscape:connector-curvature="0"
       inkscape:path-effect="#path-effect1613-5"
       inkscape:original-d="m -99.066667,-63.292316 c 4.309906,4.159861 8.619548,8.319987 12.928925,12.480374"
       transform="translate(170.91084,-42.65295)" />
    <path
       transform="rotate(90,14.067363,6.964747)"
       style="fill:none;stroke:#000000;stroke-width:0.396875;stroke-linecap:round;stroke-linejoin:miter;stroke-miterlimit:4;stroke-dasharray:none;stroke-opacity:1"
       d="m -99.066667,-63.292316 12.928925,12.480374"
       id="path1611-8-00"
       inkscape:connector-curvature="0"
       inkscape:path-effect="#path-effect1613-0-5"
       inkscape:original-d="m -99.066667,-63.292316 c 4.309906,4.159861 8.619548,8.319987 12.928925,12.480374" />
    <path
       style="fill:none;stroke:#000000;stroke-width:0.396875;stroke-linecap:round;stroke-linejoin:miter;stroke-miterlimit:4;stroke-dasharray:none;stroke-opacity:1"
       d="m -99.066667,-63.292316 12.928925,12.480374"
       id="path1611-0"
       inkscape:connector-curvature="0"
       inkscape:path-effect="#path-effect1613-40"
       inkscape:original-d="m -99.066667,-63.292316 c 4.309906,4.159861 8.619548,8.319987 12.928925,12.480374"
       transform="translate(170.91084,-85.529401)" />
    <path
       transform="rotate(90,35.505589,-14.473478)"
       style="fill:none;stroke:#000000;stroke-width:0.396875;stroke-linecap:round;stroke-linejoin:miter;stroke-miterlimit:4;stroke-dasharray:none;stroke-opacity:1"
       d="m -99.066667,-63.292316 12.928925,12.480374"
       id="path1611-8-3"
       inkscape:connector-curvature="0"
       inkscape:path-effect="#path-effect1613-0-9"
       inkscape:original-d="m -99.066667,-63.292316 c 4.309906,4.159861 8.619548,8.319987 12.928925,12.480374" />
  </g>
</svg>
