<svg width="463" height="500" version="1.1" viewBox="0 0 463 500" xmlns="http://www.w3.org/2000/svg">
 <g transform="translate(1.47 -10.5)">
  <path d="m3.57 13.9s2.36 19 3.21 30.4c1.45 19.6 2.01 39.2 3.21 58.8 1.61 26.4 3.74 52.7 5.35 79.1 1.2 19.6 1.85 39.2 3.21 58.8 2.06 29.6 2.37 59.5 7.47 88.7 2.85 16.3 6.82 32.6 12.8 48.1 7.26 18.7 15.8 37.2 27.8 53.3 8.65 11.6 19.7 21.3 31.2 30.1 13.1 10.1 27.4 18.8 42.5 25.5 16 7.08 33.1 11.9 50.2 15.2 12.9 2.5 26.2 3.43 39.3 3.48 13.1 0.0445 26.3-0.719 39.1-3.19 17.2-3.32 34.3-8.34 50.4-15.5 15.1-6.73 29.4-15.5 42.6-25.5 11.5-8.79 22.5-18.5 31.2-30.1 12-16 20.6-34.6 27.8-53.3 6.02-15.5 9.99-31.8 12.8-48.1 5.09-29.2 5.41-59.1 7.47-88.7 5.9-79.1 6.94-149 15-227z" fill="#09f" stroke-width=".473"/>
  <g stroke="#000">
   <path d="m61.3 151c-20.5 0.0109-36.5 0.0615-47.7 0.104 0.735 10.4 1.46 20.8 2.1 31.3 1.2 19.6 1.85 39.2 3.21 58.8 2.06 29.6 2.37 59.5 7.46 88.7 2.85 16.3 6.83 32.6 12.8 48.1 4.11 10.6 26.8 43.7 32.2 53.7 110-47 154-160 159-281 14.3 122 49.8 244 154 285 5.33-10.1 33.1-47.6 37.2-58.2 6.02-15.5 10-31.8 12.8-48.1 5.09-29.2 5.41-59.1 7.46-88.7 1.36-19.6 2.01-39.2 3.21-58.8 0.636-10.4 1.35-20.8 2.08-31.2-11.2-0.0421-27.2-0.0927-47.7-0.104h-0.0147c-19.3-0.0104-40.2 0.017-54.6 0.148-38.3 0.347-75.8 0.0676-114 0h-0.813c-37.8 0.0691-77 0.346-115 0-14.4-0.131-34.3-0.158-53.6-0.148z" fill="#fff" stroke-linejoin="round" stroke-width="5.68"/>
   <path d="m13.6 151h436" fill="none" stroke-linecap="round" stroke-width="2.36"/>
   <g transform="matrix(.438 0 0 .438 573 32)" fill="#da121a" stroke-width="9.13">
    <path d="m-584 597s-4.99 15.2-8 22.7c-6.8 16.8-23.2 31.2-22.7 49.3 0.479 15 11.3 28.5 21.3 39.6 11.2 12.3 28 18 41.3 28 7.56 5.7 21.8 18.2 21.8 18.2-1.28 5.44-0.438 14.1-0.438 20.4h33.9c0-6.34 0.84-15-0.438-20.4 0 0 14.2-12.5 21.8-18.2 13.3-10 30.2-15.7 41.3-28 10-11.1 20.9-24.6 21.3-39.6 0.578-18.1-15.9-32.5-22.7-49.3-3.01-7.42-8-22.7-8-22.7s-10.9 12.3-11.5 20c-0.758 8.64 8.33 15.8 8.88 24.4 0.507 8.03-2.24 16.1-5.34 23.5-3.39 8.11-9.16 15-14.2 22.2-10.3 14.7-32.9 42.7-32.9 42.7v-74.7l6.22-10.2-18.8-12.9v-3.56l-2.59 1.78-2.59-1.78v3.56l-18.8 12.9 6.22 10.2v74.7s-22.6-28-32.9-42.7c-5.06-7.19-10.8-14.1-14.2-22.2-3.1-7.43-5.82-15.5-5.31-23.5 0.546-8.65 9.63-15.8 8.88-24.4-0.673-7.67-11.6-20-11.6-20z" stroke-linecap="round" stroke-linejoin="round"/>
    <path d="m-514 814c-16.8 0-30.6-16.3-31.7-36.9h63.4c-1.12 20.6-14.9 36.9-31.7 36.9z"/>
   </g>
   <path d="m348 170s-1.64 6.11-2.75 9.08c-1.1 2.92-2.67 5.66-3.86 8.54-1.3 3.17-3.27 6.22-3.57 9.64-0.27 3.07 1.66 9.08 1.66 9.08s-4.98-6.67-6.61-10.5c-2.8-6.52-5.23-20.6-5.23-20.6s-0.438 16.6 0.0548 24.9c0.488 8.2 2.86 24.5 2.86 24.5s-3.56-3.89-4.85-6.16c-3.19-5.64-4.92-12-6.89-18.2-0.776-2.44-1.92-7.43-1.92-7.43 0.117 7.59 1.56 13.6 2.75 20.4 1.87 10.6 3.44 20.2 6.87 31.7 0 0-6.27-7.44-8.8-11.6-2.98-4.86-7.43-15.4-7.43-15.4s4.16 18.7 7.31 27.7c2.14 6.1 2 5.35 7.83 17.7 0 0-4.7-3.36-6.61-5.5-4.23-4.75-10.5-16-10.5-16s3.78 11.7 6.09 17.4c2.3 5.65 5.24 11 7.72 16.6 1.51 3.4 2.4 7.13 4.35 10.3 2.9 4.71 6.08 9.69 10.7 12.7 3.11 1.98 7.21 4.4 10.7 3.74 3.53 0.67 7.62-1.75 10.7-3.74 4.67-2.97 7.84-7.95 10.7-12.7 1.95-3.17 2.84-6.89 4.35-10.3 2.48-5.58 5.44-10.9 7.73-16.6 2.32-5.71 6.08-17.4 6.08-17.4s-6.23 11.2-10.5 16c-1.91 2.14-6.61 5.5-6.61 5.5 5.83-12.4 5.69-11.6 7.83-17.7 3.15-9.01 7.31-27.7 7.31-27.7s-4.45 10.6-7.43 15.4c-2.53 4.13-8.8 11.6-8.8 11.6 3.43-11.4 5.01-21 6.89-31.7 1.19-6.75 2.63-12.8 2.75-20.4 0 0-1.15 4.99-1.93 7.43-1.96 6.17-3.7 12.5-6.89 18.2-1.29 2.27-4.85 6.16-4.85 6.16s2.37-16.3 2.86-24.5c0.493-8.29 0.0548-24.9 0.0548-24.9s-2.43 14.1-5.23 20.6c-1.63 3.79-6.6 10.5-6.6 10.5s1.91-6.01 1.64-9.08c-0.301-3.41-2.27-6.47-3.57-9.64-1.19-2.89-2.76-5.62-3.86-8.54-1.11-2.96-2.75-9.08-2.75-9.08" stroke-width="2"/>
  </g>
  <g fill="#da121a" stroke="#000">
   <g transform="matrix(.438 0 0 .438 574 32)">
    <path d="m-516 351c-7.7 0-13.9 17.4-13.9 38.9 0 21.5 6.24 38.9 13.9 38.9 7.7 0 13.9-17.4 13.9-38.9s-6.24-38.9-13.9-38.9m-30.1 48.7c-0.43 4e-3 -0.843 0.056-1.25 0.188-6.52 2.11-7.51 20.2-2.19 40.3 5.32 20.2 14.9 34.8 21.4 32.7 6.52-2.11 7.51-20.2 2.19-40.3-4.99-18.9-13.7-32.9-20.2-32.8m60.2 0c-6.45-0.058-15.2 14-20.2 32.8-5.32 20.2-4.36 38.2 2.16 40.3s16.1-12.5 21.4-32.7c5.32-20.2 4.36-38.2-2.16-40.3-0.407-0.132-0.82-0.184-1.25-0.188m-73.8 54.8c-0.928 0-1.78 0.248-2.5 0.719-5.72 3.77-1.86 21.4 8.62 39.4 10.5 18 23.7 29.5 29.4 25.8s1.86-21.4-8.62-39.4c-9.18-15.8-20.4-26.6-26.9-26.5m87.3 0c-6.49-0.068-17.7 10.7-26.9 26.5-10.5 18-14.3 35.7-8.62 39.4 5.72 3.77 18.9-7.77 29.3-25.8 10.5-18 14.3-35.7 8.62-39.4-0.715-0.471-1.54-0.709-2.47-0.719m-90.6 48c-1.22 0.019-2.24 0.341-3.06 1.03-5.24 4.42 0.681 21.5 13.2 38.2 12.5 16.6 26.9 26.5 32.2 22.1 5.24-4.42-0.681-21.5-13.2-38.1-10.6-14-22.5-23.3-29.1-23.2m93.2 0c-6.74 0.561-18.2 9.66-28.3 23.2-12.5 16.6-18.5 33.7-13.2 38.1 5.24 4.42 19.6-5.48 32.2-22.1 12.5-16.6 18.5-33.7 13.2-38.2-0.982-0.828-2.29-1.16-3.84-1.03m-93.7 43.6c-1.22 0.019-2.28 0.341-3.09 1.03-5.24 4.42 0.681 21.5 13.2 38.2 12.5 16.6 26.9 26.5 32.2 22.1 5.24-4.42-0.681-21.5-13.2-38.1-10.6-14-22.5-23.3-29.1-23.2m94.3 0c-6.74 0.561-18.2 9.66-28.3 23.2-12.5 16.6-18.5 33.7-13.2 38.1 5.24 4.42 19.6-5.48 32.2-22.1 12.5-16.6 18.5-33.7 13.2-38.2-0.982-0.828-2.29-1.16-3.84-1.03" stroke-width="4.57"/>
    <path d="m-516 614c-16.8 0-30.6 10.8-31.7 24.4h63.4c-1.12-13.7-14.9-24.4-31.7-24.4z" stroke-width="9.13"/>
   </g>
   <g stroke-linecap="round" stroke-linejoin="round">
    <g transform="matrix(.473 0 0 .473 123 23.3)" stroke-width="8.46" style="paint-order:normal">
     <path d="m-33 538h32.7v209h-32.7z" style="paint-order:normal"/>
     <path d="m-81.7 579s-0.656 28.5 4.96 41.1c5.35 12 15.2 22.1 26 29.8 9.31 6.63 20.4 12.2 31.8 12.8 12.8 0.689 26.7-2.87 37-10.5 9.95-7.36 19.6-18.8 20.1-31.2 0.38-8.56-12-22.8-12-22.8h-24.8v-26.2s19.7-2.88 28.9 0c10.4 3.26 20.4 9.86 26.8 18.7 7.66 10.5 12.4 24.4 11.4 37.3-1.51 19.3-11.2 39.1-25.4 52.2-19.7 18.2-48.2 27.3-75 29.5-22 1.78-44.8-4.44-64.8-14-11.5-5.54-29.8-24.2-29.8-24.2l20.4-13.4s-11.2-16.4-16-25.1c-3.94-7.07-10.5-21.9-10.5-21.9s9.55-16.6 17.2-21.9c9.65-6.6 33.5-10.2 33.5-10.2z" style="paint-order:normal"/>
    </g>
    <path d="m115 386c-6.82 0-12.4-6.6-12.9-15h25.7c-0.456 8.36-6.04 15-12.9 15z" stroke-width="2.84" style="paint-order:normal"/>
    <g transform="matrix(.473 0 0 .473 123 23.3)" stroke-width="8.46" style="paint-order:normal">
     <path d="m-28.8 568c-9.86 0.597-17.6 7.91-17.6 16.9s7.78 16.3 17.6 16.9v-33.7zm24.4 0v33.7c9.86-0.597 17.6-7.91 17.6-16.9s-7.78-16.3-17.6-16.9z" style="paint-order:normal"/>
     <rect x="-28.8" y="568" width="24.4" height="33.7" rx="7.87" style="paint-order:normal"/>
    </g>
    <g transform="matrix(.473 0 0 .473 123 23.3)" stroke-width="6" style="paint-order:normal">
     <path d="m-106 658s9.22 8.01 14.3 11.4c4.89 3.25 15.5 8.46 15.5 8.46" stroke-linecap="round" stroke-linejoin="round" stroke-width="6" style="paint-order:normal"/>
     <g shape-rendering="auto" stroke="none">
      <path d="m-109 586s3.53 18 6.71 26.5c3.41 9.17 8.26 17.8 13.1 26.2 2.83 4.94 9.33 14.3 9.33 14.3" color="#000000" color-rendering="auto" dominant-baseline="auto" fill="#da121a" image-rendering="auto" solid-color="#000000" stop-color="#000000" style="font-feature-settings:normal;font-variant-alternates:normal;font-variant-caps:normal;font-variant-east-asian:normal;font-variant-ligatures:normal;font-variant-numeric:normal;font-variant-position:normal;font-variation-settings:normal;inline-size:0;isolation:auto;mix-blend-mode:normal;paint-order:normal;shape-margin:0;shape-padding:0;text-decoration-color:#000000;text-decoration-line:none;text-decoration-style:solid;text-indent:0;text-orientation:mixed;text-transform:none;white-space:normal"/>
      <path d="m-109 583c-0.212-3e-3 -0.423 0.0155-0.631 0.0566-1.63 0.319-5.58 4.07-5.26 5.69 4.3 26 18.5 44.3 32.9 65.1 0.945 1.36 2.45 2.6 3.81 1.66 1.36-0.945 1.7-2.81 0.754-4.17-15.2-20.8-20.7-41.6-25.8-66.3-0.272-1.39-4.37-2.03-5.79-2.06z" color="#000000" color-rendering="auto" dominant-baseline="auto" fill="#000" image-rendering="auto" solid-color="#000000" stop-color="#000000" style="font-feature-settings:normal;font-variant-alternates:normal;font-variant-caps:normal;font-variant-east-asian:normal;font-variant-ligatures:normal;font-variant-numeric:normal;font-variant-position:normal;font-variation-settings:normal;inline-size:0;isolation:auto;mix-blend-mode:normal;paint-order:normal;shape-margin:0;shape-padding:0;text-decoration-color:#000000;text-decoration-line:none;text-decoration-style:solid;text-indent:0;text-orientation:mixed;text-transform:none;white-space:normal"/>
     </g>
    </g>
    <path d="m124 167c-4.13 0.406-8.01 3.99-2.11 5.27 3.89 3.47-0.879 6.35-4.52 4.13-9.62-1.39-23 2.46-28.8 12.1-1.33 3.02-1.79 4.88-0.578 0.589 2.44-6.09-2.63-13.8-9.4-12.8-5.84-0.109-12.4 6.45-8.8 12.2 0.722 4.69 6.14-3.26 6.94 3.09 0.22 5.58-5.15 9.3-6.4 14.5-2.35 4.68-3.48 11.2 0.16 15.5 3.58 5.47-3.16-6.93-6.66-5.44-5.88-1.92-13 1.46-13.9 7.91-1.02 4.57 3.48 11.9 5.76 13.1 0.263-7.23 9.79-8.51 10.2-0.549 1.67 6.74 2.13 14.1 6.9 19.6 1.64 3.22 4.09 5.36 7.72 5.69 1.13 0.346 6.5 1.65 4.35 1.26l-8.75-1.6c-4.88 4.24-7.71 11.7-3.75 17.5 2.34 2.66 10.1 5.94 11.3 3.6-1.66-7.24 7.5-6.73 10.6-2.31 8.64 3.75 18.7 7.98 28 3.58 7.42-3.75 16.9-4.07 23.9 0.846 3.67 7.69 12-3.43 12.6-8.55 1.06-7.32-8.18-6.93-11-9.48-1.16-7.48-10.4-5.38-15.3-3.33-6.24 2.97-13.4 4.89-20.2 2.3-4.3-1.6-14.3-5.4-8.93-11 4.66-3.86-6.74-2.03-7.36 1.76-3.07 5.85-6.47-4.47-8.8-7.25-4.36-8.72-7.39-18.6-4.93-28.4 2.04-12.2 10.1-23.8 22.1-27.9 14.7-5.87 32.5 3.59 37.2 18.3 2.79 7.39 3.14 16.4-2.21 22.8-4.01 6.38-13.1 9.3-19.6 5.03-3.34-2.8-8.27-12.6-0.827-12.3 4.83-1.03 8.42 4.6 9.51 4.82 5.8-6.69 3.52-17.2-8.71-18.3-7.01 1.91-2.78-8.56-6.44-12.2-3.69-8.36-9.88 1.64-9.49 6.8-0.54 3.28 0.265 7.08-4.43 5.4-11.6 0.844-14.5 12.2-8.31 19.3 3.92-5.54 8.18-7.49 13-5.29 0.269 7.96 2.26 16.3 8.55 21.8 6.32 5.59 15.6 5.9 23 2.52 8.98-3.8 17.6-10.6 20.2-20.4 1.49-9.93 1.41-13.8 8.78-12.8 5.23-3.14 5.74-11.2 0.347-14.5-2.65-3.92-5.12 8.53-8.22 1.09-4.2-8.02-9.18-14.7-16.6-19.1-2.06-1.95-6.93-1.19-7.38-0.786 5.07-5.43 2.17-16-5.13-17.7-1.15-0.245-2.37-0.443-3.52-0.435z" stroke-width="4" style="paint-order:normal"/>
   </g>
  </g>
  <path d="m222 440-0.713 12.3c-0.869 10.1-1.59 18.9-6.89 27.6 3.02 2.86 13.8 8.55 14.1 8.88 0 0 4.78-1.2 14.9-9.16-4.4-8.53-7.53-19.3-8.29-28.3-0.462-3.26-0.496-7.8-0.506-11.4h-12.7zm-35.9-64.8c-6.08-0.171-13.2 2.23-15.9 8.03-4.69 6.87-4.16 15.9-2.31 23.4 2.51 7.98 13.4 20.3-0.556 24.8 8.63 7.4 19.8 4.44 20.6-4.81-1.04-38 27.5-21.1 22.9 11 1.1 7.67-2.07 16.8-9.48 20.2-7.96 3.33-9.53 0.528-11.6-7.32-16 6.98-8.82 24 2.43 27.4 9.8 3.05 19.5-4.25 23.6-12.8 3.54-7.53 5.94-15.9 5.98-24.2-0.0129-11-0.0455-23-3.55-33.5-3.58-11.6-11-22.6-21.6-29.3-3.57-2.18-6.29-2.76-10.5-2.9zm84.9-0.888c-12.1-0.35-19.7 8.75-24.8 17.9-5.53 9.76-8.49 20.8-10.8 31.7 0.738 9.61 0.751 15.9 1.94 23.8 2.09 10.9 4.74 21.3 15.3 26.8 24.8 9.54 38.3-15.2 17.2-24.5-1.61 7.83-5.44 10.6-13.7 8.48-7.86-2.09-8.81-11-8.19-18.6 0.0264-7.56 0.906-13.5 2.16-21.8-0.199-14.7 20.3-20.6 19.4-1.09-0.89 19.5 15.3 22.2 20.9 15-11.5-11.8 0.0313-24.2 2.67-33.8 6.33-12.8-9.92-23.5-22-23.8zm-43.2-50.4c-7.12 6.29-13.6 15.6-20.6 22-3.58 3.73-6.64 7.8-5.47 13.1 1.41 6.91 3.39 9.54 5.91 16 5.2 10.1 10.8 21.1 11.9 32.5l2.09 26.3h14c0.553-6.63 4.89-33.2 6.87-39.6 2.13-8.85 8.27-17 12.3-25.1 3.75-5.9 3.96-12.6 0.945-19.2-3.65-6.14-11.1-12.2-17.1-17.2-3.68-2.82-7.18-5.92-10.8-8.76z" fill="#ffd700" stroke="#000" stroke-width="4"/>
  <path d="m229 478s-1.84-11.8-2.36-16.8c-0.574-5.54-1.18-11.2-1.49-17.3-0.196-3.92-0.291-8.13-0.209-12.2 0.164-8.1 0.987-15.3 1.39-23.1 0.61-11.9 1.09-24.1 1.54-36.2 0.292-7.99 0.621-19.1 0.855-27.2l-0.0378-9.32s0.108 3.73 0.152 5.28c0.0435-1.55 0.152-5.28 0.152-5.28l-0.0378 9.14c0.233 8.13 0.56 19.3 0.855 27.4 0.445 12.2 0.939 24.3 1.55 36.2 0.4 7.82 1.21 15 1.38 23.1 0.0819 4.05-0.0128 8.25-0.209 12.2-0.31 6.19-0.917 11.8-1.49 17.3-0.52 5.01-2.03 16.8-2.03 16.8l-0.16-106z"/>
  <path d="m204 427c-1.68 0-3.02 1.08-3.02 4.79v1.96c0 3.71 1.35 4.73 3.02 4.82h47.7c2.04 0 3.68-1.11 3.68-4.82v-1.96c0-3.71-1.64-4.71-3.68-4.79h-47.7z" fill="#ffd700" stroke="#000" stroke-linecap="round" stroke-width="2.84"/>
  <g transform="translate(0,2)">
   <path d="m103 37.7c-27.6 0-50 22.4-50 50 0 27.6 22.4 50 50 50 27.6 0 50-22.4 50-50 0-0.432 0.0109-0.857 0-1.29-0.685-27-22.8-48.8-50-48.8z" fill="#ffd700" stroke="#000" stroke-width="7.57"/>
   <g shape-rendering="auto">
    <path d="m140 98.7c-0.464 4.73e-4 -0.885 0.273-1.08 0.697-2.94 6.52-6.7 12.8-12.7 16.6l-0.036 0.0231-0.0342 0.0259c-7.19 5.31-16.4 7.35-25.3 6.72l-0.0369-3e-3h-0.036c-8.68-0.0763-17.5-2.66-23.8-8.57l-0.0194-0.0175-0.0203-0.0175c-3.81-3.25-6.69-7.47-9.34-11.9-0.338-0.559-1.06-0.738-1.62-0.401-0.559 0.337-0.739 1.06-0.402 1.62 18.1 34.1 61.7 30 75.5-3.11 0.269-0.595 4e-3 -1.3-0.591-1.56-0.153-0.0694-0.32-0.105-0.488-0.105z" color="#000000" color-rendering="auto" dominant-baseline="auto" image-rendering="auto" solid-color="#000000" stop-color="#000000" style="font-feature-settings:normal;font-variant-alternates:normal;font-variant-caps:normal;font-variant-east-asian:normal;font-variant-ligatures:normal;font-variant-numeric:normal;font-variant-position:normal;font-variation-settings:normal;inline-size:0;isolation:auto;mix-blend-mode:normal;shape-margin:0;shape-padding:0;text-decoration-color:#000000;text-decoration-line:none;text-decoration-style:solid;text-indent:0;text-orientation:mixed;text-transform:none;white-space:normal"/>
    <path d="m129 97.3c-0.441 0.0139-0.838 0.273-1.03 0.671-2.03 4.24-4.41 8.37-8.17 10.9l-0.0314 0.0203-0.0305 0.0231c-4.81 3.66-10.9 5.55-17 5.33l-0.0287-9.5e-4 -0.0286 9.5e-4c-6.32 0.0761-12.9-0.978-17.8-4.84l-0.0231-0.0194-0.0249-0.0166c-3.36-2.38-5.91-5.76-8.13-9.38-0.605-0.894-2.07-0.608-1.9 0.668 10.5 23.4 41.5 26.8 54.9-0.578 0.283-0.589 0.312-2.35-0.278-2.63-0.171-0.0819-0.359-0.122-0.549-0.115z" color="#000000" color-rendering="auto" dominant-baseline="auto" image-rendering="auto" solid-color="#000000" stop-color="#000000" style="font-feature-settings:normal;font-variant-alternates:normal;font-variant-caps:normal;font-variant-east-asian:normal;font-variant-ligatures:normal;font-variant-numeric:normal;font-variant-position:normal;font-variation-settings:normal;inline-size:0;isolation:auto;mix-blend-mode:normal;shape-margin:0;shape-padding:0;text-decoration-color:#000000;text-decoration-line:none;text-decoration-style:solid;text-indent:0;text-orientation:mixed;text-transform:none;white-space:normal"/>
    <path d="m121 93.6c-0.441 0.0057-0.843 0.257-1.04 0.651-1.41 2.81-3.08 5.47-5.57 7.02l-0.0332 0.0203-0.0323 0.0231c-3.44 2.48-7.78 3.63-12.1 3.44l-0.0277-9.4e-4h-0.0277c-4.25 6e-3 -8.59-0.752-11.9-3.25l-0.0425-0.0314c-2.16-1.5-3.87-3.64-5.38-5.95-0.356-0.548-1.09-0.704-1.64-0.348-0.548 0.355-0.703 1.09-0.348 1.64 9.53 17.3 31.2 16 39.1-1.49 0.294-0.583 0.0588-1.29-0.525-1.59-0.17-0.0852-0.357-0.128-0.547-0.126z" color="#000000" color-rendering="auto" dominant-baseline="auto" image-rendering="auto" solid-color="#000000" stop-color="#000000" style="font-feature-settings:normal;font-variant-alternates:normal;font-variant-caps:normal;font-variant-east-asian:normal;font-variant-ligatures:normal;font-variant-numeric:normal;font-variant-position:normal;font-variation-settings:normal;inline-size:0;isolation:auto;mix-blend-mode:normal;shape-margin:0;shape-padding:0;text-decoration-color:#000000;text-decoration-line:none;text-decoration-style:solid;text-indent:0;text-orientation:mixed;text-transform:none;white-space:normal"/>
   </g>
   <g transform="matrix(.473 0 0 .473 141 10.5)">
    <path d="m184 53.4c-58.4 0-106 47.4-106 106s47.4 106 106 106 106-47.4 106-106c0-0.913 0.023-1.81 0-2.72-1.45-57.2-48.3-103-106-103z" fill="#ffd700" stroke="#000" stroke-width="16"/>
    <g shape-rendering="auto">
     <path d="m262 182c-0.982 1e-3 -1.87 0.578-2.28 1.47-6.22 13.8-14.2 27.1-26.8 35l-0.0762 0.0488-0.0723 0.0547c-15.2 11.2-34.6 15.5-53.5 14.2l-0.0781-6e-3h-0.0762c-18.3-0.161-37-5.62-50.4-18.1l-0.041-0.0371-0.043-0.0371c-8.05-6.86-14.1-15.8-19.7-25.1-0.714-1.18-2.25-1.56-3.43-0.848-1.18 0.713-1.56 2.25-0.85 3.43 38.4 72.1 130 63.5 160-6.58 0.568-1.26 8e-3 -2.74-1.25-3.31-0.324-0.147-0.676-0.223-1.03-0.223z" color="#000000" color-rendering="auto" dominant-baseline="auto" image-rendering="auto" solid-color="#000000" stop-color="#000000" style="font-feature-settings:normal;font-variant-alternates:normal;font-variant-caps:normal;font-variant-east-asian:normal;font-variant-ligatures:normal;font-variant-numeric:normal;font-variant-position:normal;font-variation-settings:normal;inline-size:0;isolation:auto;mix-blend-mode:normal;shape-margin:0;shape-padding:0;text-decoration-color:#000000;text-decoration-line:none;text-decoration-style:solid;text-indent:0;text-orientation:mixed;text-transform:none;white-space:normal"/>
     <path d="m241 179c-0.933 0.0293-1.77 0.576-2.18 1.42-4.3 8.97-9.33 17.7-17.3 23l-0.0664 0.043-0.0645 0.0488c-10.2 7.73-23.1 11.7-35.8 11.3l-0.0606-2e-3 -0.0605 2e-3c-13.4 0.161-27.2-2.07-37.5-10.2l-0.0488-0.041-0.0527-0.0352c-7.1-5.04-12.5-12.2-17.2-19.8-1.28-1.89-4.38-1.28-4.03 1.41 22.1 49.4 87.7 56.7 116-1.22 0.597-1.25 0.659-4.97-0.587-5.57-0.362-0.173-0.759-0.257-1.16-0.244z" color="#000000" color-rendering="auto" dominant-baseline="auto" image-rendering="auto" solid-color="#000000" stop-color="#000000" style="font-feature-settings:normal;font-variant-alternates:normal;font-variant-caps:normal;font-variant-east-asian:normal;font-variant-ligatures:normal;font-variant-numeric:normal;font-variant-position:normal;font-variation-settings:normal;inline-size:0;isolation:auto;mix-blend-mode:normal;shape-margin:0;shape-padding:0;text-decoration-color:#000000;text-decoration-line:none;text-decoration-style:solid;text-indent:0;text-orientation:mixed;text-transform:none;white-space:normal"/>
     <path d="m224 172c-0.933 0.0121-1.78 0.543-2.2 1.38-2.99 5.95-6.51 11.6-11.8 14.8l-0.0703 0.043-0.0684 0.0488c-7.28 5.24-16.5 7.68-25.5 7.27l-0.0586-2e-3h-0.0586c-8.99 0.0128-18.2-1.59-25.1-6.86l-0.0898-0.0664c-4.57-3.17-8.19-7.69-11.4-12.6-0.752-1.16-2.3-1.49-3.46-0.736-1.16 0.752-1.49 2.3-0.736 3.46 20.1 36.6 65.9 33.8 82.7-3.15 0.621-1.23 0.124-2.74-1.11-3.36-0.359-0.18-0.755-0.271-1.16-0.266z" color="#000000" color-rendering="auto" dominant-baseline="auto" image-rendering="auto" solid-color="#000000" stop-color="#000000" style="font-feature-settings:normal;font-variant-alternates:normal;font-variant-caps:normal;font-variant-east-asian:normal;font-variant-ligatures:normal;font-variant-numeric:normal;font-variant-position:normal;font-variation-settings:normal;inline-size:0;isolation:auto;mix-blend-mode:normal;shape-margin:0;shape-padding:0;text-decoration-color:#000000;text-decoration-line:none;text-decoration-style:solid;text-indent:0;text-orientation:mixed;text-transform:none;white-space:normal"/>
    </g>
   </g>
   <g transform="matrix(.473 0 0 .473 271 10.5)">
    <path d="m184 53.4c-58.4 0-106 47.4-106 106s47.4 106 106 106 106-47.4 106-106c0-0.913 0.023-1.81 0-2.72-1.45-57.2-48.3-103-106-103z" fill="#ffd700" stroke="#000" stroke-width="16"/>
    <g shape-rendering="auto">
     <path d="m262 182c-0.982 1e-3 -1.87 0.578-2.28 1.47-6.22 13.8-14.2 27.1-26.8 35l-0.0762 0.0488-0.0723 0.0547c-15.2 11.2-34.6 15.5-53.5 14.2l-0.0781-6e-3h-0.0762c-18.3-0.161-37-5.62-50.4-18.1l-0.041-0.0371-0.043-0.0371c-8.05-6.86-14.1-15.8-19.7-25.1-0.714-1.18-2.25-1.56-3.43-0.848-1.18 0.713-1.56 2.25-0.85 3.43 38.4 72.1 130 63.5 160-6.58 0.568-1.26 8e-3 -2.74-1.25-3.31-0.324-0.147-0.676-0.223-1.03-0.223z" color="#000000" color-rendering="auto" dominant-baseline="auto" image-rendering="auto" solid-color="#000000" stop-color="#000000" style="font-feature-settings:normal;font-variant-alternates:normal;font-variant-caps:normal;font-variant-east-asian:normal;font-variant-ligatures:normal;font-variant-numeric:normal;font-variant-position:normal;font-variation-settings:normal;inline-size:0;isolation:auto;mix-blend-mode:normal;shape-margin:0;shape-padding:0;text-decoration-color:#000000;text-decoration-line:none;text-decoration-style:solid;text-indent:0;text-orientation:mixed;text-transform:none;white-space:normal"/>
     <path d="m241 179c-0.933 0.0293-1.77 0.576-2.18 1.42-4.3 8.97-9.33 17.7-17.3 23l-0.0664 0.043-0.0645 0.0488c-10.2 7.73-23.1 11.7-35.8 11.3l-0.0606-2e-3 -0.0605 2e-3c-13.4 0.161-27.2-2.07-37.5-10.2l-0.0488-0.041-0.0527-0.0352c-7.1-5.04-12.5-12.2-17.2-19.8-1.28-1.89-4.38-1.28-4.03 1.41 22.1 49.4 87.7 56.7 116-1.22 0.597-1.25 0.659-4.97-0.587-5.57-0.362-0.173-0.759-0.257-1.16-0.244z" color="#000000" color-rendering="auto" dominant-baseline="auto" image-rendering="auto" solid-color="#000000" stop-color="#000000" style="font-feature-settings:normal;font-variant-alternates:normal;font-variant-caps:normal;font-variant-east-asian:normal;font-variant-ligatures:normal;font-variant-numeric:normal;font-variant-position:normal;font-variation-settings:normal;inline-size:0;isolation:auto;mix-blend-mode:normal;shape-margin:0;shape-padding:0;text-decoration-color:#000000;text-decoration-line:none;text-decoration-style:solid;text-indent:0;text-orientation:mixed;text-transform:none;white-space:normal"/>
     <path d="m224 172c-0.933 0.0121-1.78 0.543-2.2 1.38-2.99 5.95-6.51 11.6-11.8 14.8l-0.0703 0.043-0.0684 0.0488c-7.28 5.24-16.5 7.68-25.5 7.27l-0.0586-2e-3h-0.0586c-8.99 0.0128-18.2-1.59-25.1-6.86l-0.0898-0.0664c-4.57-3.17-8.19-7.69-11.4-12.6-0.752-1.16-2.3-1.49-3.46-0.736-1.16 0.752-1.49 2.3-0.736 3.46 20.1 36.6 65.9 33.8 82.7-3.15 0.621-1.23 0.124-2.74-1.11-3.36-0.359-0.18-0.755-0.271-1.16-0.266z" color="#000000" color-rendering="auto" dominant-baseline="auto" image-rendering="auto" solid-color="#000000" stop-color="#000000" style="font-feature-settings:normal;font-variant-alternates:normal;font-variant-caps:normal;font-variant-east-asian:normal;font-variant-ligatures:normal;font-variant-numeric:normal;font-variant-position:normal;font-variation-settings:normal;inline-size:0;isolation:auto;mix-blend-mode:normal;shape-margin:0;shape-padding:0;text-decoration-color:#000000;text-decoration-line:none;text-decoration-style:solid;text-indent:0;text-orientation:mixed;text-transform:none;white-space:normal"/>
    </g>
   </g>
  </g>
  <path d="m461 10.5-463 0.0277c5.1 78.6 10.2 153 15.3 231l9.46e-4 0.0111c2.04 29.4 2.35 59.4 7.52 89.2 16.4 108 103 179 209 180 110 0.964 190-76.4 209-180l2e-3 -6e-3 9.5e-4 -6e-3c5.18-29.7 5.48-59.8 7.53-89.2l9.5e-4 -0.0102zm-17.9 17.2c-5.61 103-5.61 200-14.3 302-17.6 99.4-93.2 173-199 172h-0.012c-102-0.613-184-68.1-199-172l-0.0083-0.0499-0.0083-0.0508c-10.4-103-9.29-194-16.3-302z" color="#000000" color-rendering="auto" dominant-baseline="auto" image-rendering="auto" shape-rendering="auto" solid-color="#000000" stop-color="#000000" style="font-feature-settings:normal;font-variant-alternates:normal;font-variant-caps:normal;font-variant-east-asian:normal;font-variant-ligatures:normal;font-variant-numeric:normal;font-variant-position:normal;font-variation-settings:normal;inline-size:0;isolation:auto;mix-blend-mode:normal;shape-margin:0;shape-padding:0;text-decoration-color:#000000;text-decoration-line:none;text-decoration-style:solid;text-indent:0;text-orientation:mixed;text-transform:none;white-space:normal"/>
 </g>
</svg>
