<?xml version="1.0" encoding="UTF-8" standalone="no"?>
<!-- Created with Inkscape (http://www.inkscape.org/) -->

<svg
   xmlns:dc="http://purl.org/dc/elements/1.1/"
   xmlns:cc="http://creativecommons.org/ns#"
   xmlns:rdf="http://www.w3.org/1999/02/22-rdf-syntax-ns#"
   xmlns:svg="http://www.w3.org/2000/svg"
   xmlns="http://www.w3.org/2000/svg"
   xmlns:sodipodi="http://sodipodi.sourceforge.net/DTD/sodipodi-0.dtd"
   xmlns:inkscape="http://www.inkscape.org/namespaces/inkscape"
   width="178.31647mm"
   height="209.3436mm"
   viewBox="0 0 178.31647 209.3436"
   version="1.1"
   id="svg2634"
   inkscape:version="0.92.4 (5da689c313, 2019-01-14)"
   sodipodi:docname="DEU Kliding COA.svg">
  <defs
     id="defs2628">
    <inkscape:path-effect
       effect="spiro"
       id="path-effect6773"
       is_visible="true" />
    <inkscape:path-effect
       effect="spiro"
       id="path-effect3820"
       is_visible="true" />
    <inkscape:path-effect
       effect="spiro"
       id="path-effect3816"
       is_visible="true" />
    <inkscape:path-effect
       effect="spiro"
       id="path-effect3744"
       is_visible="true" />
    <inkscape:path-effect
       effect="spiro"
       id="path-effect9517-7"
       is_visible="true" />
    <inkscape:path-effect
       effect="spiro"
       id="path-effect9517"
       is_visible="true" />
    <inkscape:path-effect
       effect="spiro"
       id="path-effect3744-0"
       is_visible="true" />
    <inkscape:path-effect
       effect="spiro"
       id="path-effect12651-6"
       is_visible="true" />
    <inkscape:path-effect
       effect="spiro"
       id="path-effect12651-8-0"
       is_visible="true" />
    <inkscape:path-effect
       effect="spiro"
       id="path-effect12651-3-7"
       is_visible="true" />
    <inkscape:path-effect
       effect="spiro"
       id="path-effect12651-0-7"
       is_visible="true" />
    <inkscape:path-effect
       effect="spiro"
       id="path-effect12651-1-3"
       is_visible="true" />
    <inkscape:path-effect
       effect="spiro"
       id="path-effect12651-3-7-8"
       is_visible="true" />
    <inkscape:path-effect
       effect="spiro"
       id="path-effect12651-3-7-7"
       is_visible="true" />
  </defs>
  <sodipodi:namedview
     id="base"
     pagecolor="#ffffff"
     bordercolor="#666666"
     borderopacity="1.0"
     inkscape:pageopacity="0.0"
     inkscape:pageshadow="2"
     inkscape:zoom="0.69260141"
     inkscape:cx="336.976"
     inkscape:cy="395.60996"
     inkscape:document-units="mm"
     inkscape:current-layer="layer1"
     showgrid="false"
     inkscape:window-width="1366"
     inkscape:window-height="745"
     inkscape:window-x="-8"
     inkscape:window-y="-8"
     inkscape:window-maximized="1"
     fit-margin-top="0"
     fit-margin-left="0"
     fit-margin-right="0"
     fit-margin-bottom="0"
     inkscape:snap-midpoints="true"
     inkscape:snap-smooth-nodes="true"
     inkscape:snap-nodes="false" />
  <metadata
     id="metadata2631">
    <rdf:RDF>
      <cc:Work
         rdf:about="">
        <dc:format>image/svg+xml</dc:format>
        <dc:type
           rdf:resource="http://purl.org/dc/dcmitype/StillImage" />
        <dc:title></dc:title>
      </cc:Work>
    </rdf:RDF>
  </metadata>
  <g
     inkscape:label="Ebene 1"
     inkscape:groupmode="layer"
     id="layer1"
     transform="translate(0.89785132,-3.6557513)">
    <path
       style="fill:#009900;fill-opacity:1;fill-rule:evenodd;stroke:none;stroke-width:3.10444427;stroke-opacity:1"
       inkscape:connector-curvature="0"
       d="m 175.85462,5.207974 -0.88854,117.580676 c -1.9389,49.45939 -40.24775,88.63079 -86.70573,88.65847 C 41.84421,211.38642 3.521036,172.20096 1.554665,122.78865 L 0.66614502,5.207974 H 88.258271 Z"
       id="path10563-0-6-7-9-0"
       sodipodi:nodetypes="ccccccc" />
    <path
       style="fill:#ffffff;stroke:#000000;stroke-width:2.9104166;stroke-linecap:round;stroke-linejoin:round;stroke-miterlimit:4;stroke-dasharray:none;stroke-opacity:1"
       d="M 0.66620277,5.207974 1.5550387,122.78839 c 0.4405657,11.07084 2.7110452,21.62578 6.4838421,31.34486 L 88.258271,102.90795 V 5.207974 Z"
       id="path3481"
       inkscape:connector-curvature="0" />
    <path
       inkscape:connector-curvature="0"
       style="fill:none;stroke:#000000;stroke-width:2.9104166;stroke-linecap:round;stroke-linejoin:round;stroke-miterlimit:4;stroke-dasharray:none;stroke-opacity:1"
       d="m 175.85034,5.207974 -0.88883,117.580416 c -0.44057,11.07084 -2.71105,21.62577 -6.48385,31.34486 L 88.258271,102.90795 V 5.207974 Z"
       id="path3481-0" />
    <path
       style="fill:#ffffff;stroke:#000000;stroke-width:11;stroke-linecap:round;stroke-linejoin:round;stroke-miterlimit:4;stroke-dasharray:none;stroke-opacity:1"
       d="M 336.96875 375.12695 L 336.97656 785.35352 C 473.18984 785.27236 590.84735 696.1481 640.19727 568.91797 L 640.16016 568.73438 L 336.96875 375.12695 z "
       transform="matrix(0.26458333,0,0,0.26458333,-0.89785132,3.6557513)"
       id="path3533" />
    <path
       style="fill:none;fill-rule:evenodd;stroke:#000000;stroke-width:3.10444427;stroke-opacity:1"
       inkscape:connector-curvature="0"
       d="M 175.85462,5.2079734 174.96608,122.78865 c -1.9389,49.45939 -40.24775,88.63079 -86.705731,88.65847 C 41.844209,211.38642 3.5210357,172.20096 1.5546648,122.78865 L 0.66614478,5.2079734 H 88.25827 Z"
       id="path10563-0-6-7-9"
       sodipodi:nodetypes="ccccccc" />
    <path
       style="fill:#ffffff;fill-opacity:1;stroke:#000000;stroke-width:1.32291663;stroke-linecap:round;stroke-linejoin:round;stroke-miterlimit:4;stroke-dasharray:none;stroke-opacity:1;paint-order:markers fill stroke"
       d="m 127.0998,12.352895 v 16.334403 h -15.06015 v 12.27987 h 15.06015 v 13.61054 H 102.19265 V 66.85706 h 24.90715 v 54.16 h 12.27993 v -54.16 h 24.90704 V 54.577708 h -24.90704 v -13.61054 h 15.0601 v -12.27987 h -15.0601 V 12.352895 Z"
       id="rect3560"
       inkscape:connector-curvature="0" />
    <g
       id="g3740"
       transform="matrix(-0.50157541,0.33476489,-0.33476489,-0.50157541,153.98128,217.84337)"
       style="stroke-width:1.6582917">
      <path
         id="path9451"
         transform="matrix(0.26458333,0,0,0.26458333,-0.89785132,3.6557513)"
         d="m -23.855469,228.78516 c -9.811518,0.002 -23.997118,0.30077 -34.353515,2.65625 -16.09502,3.66067 -32.404098,9.09435 -45.884766,18.61914 -19.16491,13.541 -36.1356,31.70849 -46.73828,52.64257 -10.54826,20.82663 -15.26004,45.13558 -14.70899,68.47461 0.95448,40.42594 15.6004,79.90073 31.04688,117.27149 8.39679,20.31492 18.62541,38.36809 33.05859,57.0625 l 36.242191,-16.92188 c -7.04942,-24.7723 -20.87168,-52.56974 -26.91211,-80.07226 -5.1109,-23.27036 -10.030471,-47.34445 -7.714843,-71.05664 1.395307,-14.28795 5.38659,-28.84026 12.84375,-41.10742 7.38362,-12.1462 18.308849,-22.3621 30.279296,-30.02735 7.461449,-4.77792 16.256996,-7.34561 24.896485,-9.31055 4.721554,-1.07385 13.270249,-1.4173 15.99414,-1.5039 2.722003,0.0865 11.2736259,0.42984 15.99609412,1.5039 8.63948978,1.96494 17.43503588,4.53263 24.89648488,9.31055 11.970447,7.66525 22.895676,17.88115 30.279296,30.02735 7.457159,12.26717 11.448443,26.81948 12.84375,41.10742 2.31563,23.71219 -2.603943,47.78628 -7.714843,71.05664 -6.04043,27.50252 -19.864647,55.29996 -26.914063,80.07226 l 36.244141,16.92188 c 14.433188,-18.69441 24.659853,-36.74758 33.056641,-57.0625 15.44648,-37.37076 30.0924,-76.84555 31.04687,-117.27149 0.55106,-23.33902 -4.16072,-47.64798 -14.70898,-68.47461 -10.60268,-20.93408 -27.57337,-39.10157 -46.738281,-52.64257 -13.480668,-9.52479 -29.787794,-14.95847 -45.882813,-18.61914 -13.80853,-3.14064 -34.4241492,-2.62503 -42.404297,-2.625 -1.995037,-1e-5 -4.778322,-0.0319 -8.048828,-0.0312 z m -54.189453,42.33007 c 6.477509,-9e-5 11.728606,5.251 11.728516,11.72852 9e-5,6.47752 -5.251007,11.72861 -11.728516,11.72852 -6.477521,9e-5 -11.728606,-5.251 -11.728516,-11.72852 -9e-5,-6.47752 5.250995,-11.72861 11.728516,-11.72852 z m 124.476563,0 c 6.47752,-9e-5 11.728606,5.25101 11.728515,11.72852 9.1e-5,6.47752 -5.250995,11.72861 -11.728515,11.72852 -6.477508,9e-5 -11.728607,-5.251 -11.728516,-11.72852 -9.1e-5,-6.47751 5.251008,-11.72861 11.728516,-11.72852 z m -162.929691,44.03125 c 6.47752,-8e-5 11.72861,5.251 11.72852,11.72852 9e-5,6.47751 -5.251,11.72861 -11.72852,11.72852 -6.47751,10e-5 -11.7286,-5.25101 -11.72851,-11.72852 -1e-4,-6.47753 5.25099,-11.7286 11.72851,-11.72852 z m 201.382816,0 c 6.47752,-8e-5 11.728617,5.25099 11.728515,11.72852 9.1e-5,6.47751 -5.251006,11.72863 -11.728515,11.72852 -6.477521,8e-5 -11.728607,-5.25101 -11.728516,-11.72852 -9.1e-5,-6.47752 5.250995,-11.7286 11.728516,-11.72852 z m -214.705076,60.31641 c 6.47751,-1.1e-4 11.7286,5.25101 11.72851,11.72852 1.1e-4,6.4775 -5.25099,11.72859 -11.72851,11.72851 -6.47752,8e-5 -11.72861,-5.25101 -11.72852,-11.72851 -9e-5,-6.47751 5.251,-11.72859 11.72852,-11.72852 z m 228.027341,0 c 6.477519,-7e-5 11.728609,5.25101 11.728519,11.72852 9e-5,6.4775 -5.251,11.72859 -11.728519,11.72851 -6.477524,8e-5 -11.728617,-5.25101 -11.728515,-11.72851 -9.1e-5,-6.47751 5.251002,-11.72863 11.728515,-11.72852 z"
         style="fill:#000000;stroke:none;stroke-width:4.97487497;stroke-linecap:butt;stroke-linejoin:round;stroke-miterlimit:4;stroke-dasharray:none;stroke-opacity:1"
         inkscape:connector-curvature="0" />
      <path
         transform="translate(98.289176,40.971302)"
         sodipodi:nodetypes="caaac"
         inkscape:original-d="m -103.20954,30.301957 c -1.24575,-0.650358 -2.85218,-0.706332 -4.22561,-1.218924 -1.51011,-0.563605 -2.77736,-2.090779 -4.38813,-2.031542 -1.95084,0.07174 -3.32698,2.070939 -5.11948,2.844158 -1.64399,0.709158 -3.87321,0.758177 -5.11949,1.625233"
         inkscape:path-effect="#path-effect9517"
         inkscape:connector-curvature="0"
         id="path9515"
         d="m -103.20954,30.301957 c -1.4779,-0.06855 -2.93826,-0.489805 -4.22561,-1.218924 -0.71088,-0.402621 -1.36719,-0.89585 -2.07692,-1.300493 -0.70972,-0.404643 -1.49427,-0.72388 -2.31121,-0.731049 -0.99568,-0.0087 -1.94127,0.446518 -2.75722,1.0172 -0.81594,0.570681 -1.54139,1.263384 -2.36226,1.826958 -1.49755,1.028152 -3.30312,1.601349 -5.11949,1.625233"
         style="fill:none;stroke:#ffffff;stroke-width:2.19378185;stroke-linecap:round;stroke-linejoin:miter;stroke-miterlimit:4;stroke-dasharray:none;stroke-opacity:1" />
      <path
         sodipodi:nodetypes="caaac"
         inkscape:original-d="m -103.20954,30.301957 c -1.24575,-0.650358 -2.85218,-0.706332 -4.22561,-1.218924 -1.51011,-0.563605 -2.77736,-2.090779 -4.38813,-2.031542 -1.95084,0.07174 -3.32698,2.070939 -5.11948,2.844158 -1.64399,0.709158 -3.87321,0.758177 -5.11949,1.625233"
         inkscape:path-effect="#path-effect9517-7"
         inkscape:connector-curvature="0"
         id="path9515-7"
         d="m -103.20954,30.301957 c -1.4779,-0.06855 -2.93826,-0.489805 -4.22561,-1.218924 -0.71088,-0.402621 -1.36719,-0.89585 -2.07692,-1.300493 -0.70972,-0.404643 -1.49427,-0.72388 -2.31121,-0.731049 -0.99568,-0.0087 -1.94127,0.446518 -2.75722,1.0172 -0.81594,0.570681 -1.54139,1.263384 -2.36226,1.826958 -1.49755,1.028152 -3.30312,1.601349 -5.11949,1.625233"
         style="fill:none;stroke:#ffffff;stroke-width:2.19378185;stroke-linecap:round;stroke-linejoin:miter;stroke-miterlimit:4;stroke-dasharray:none;stroke-opacity:1"
         transform="matrix(-1,0,0,1,-108.12991,40.971302)" />
    </g>
    <path
       inkscape:connector-curvature="0"
       style="fill:#ffffff;stroke:#000000;stroke-width:0.79374999;stroke-linecap:round;stroke-linejoin:round;stroke-miterlimit:4;stroke-dasharray:none;stroke-opacity:1"
       d="m 58.826906,134.84951 -7.347055,10.42822 5.332732,0.35511 c -0.417001,-1.82273 -0.457963,-3.73065 -0.118871,-5.56947 0.342966,-1.85981 1.07431,-3.64694 2.133194,-5.21386 z m 15.328922,25.30713 -0.355118,5.33273 c 1.82273,-0.41701 3.730657,-0.45797 5.569478,-0.11887 1.859805,0.34296 3.646938,1.07431 5.21386,2.13319 z m -47.983107,0.45001 10.427721,7.34705 0.355617,-5.33223 c -1.82274,0.41701 -3.730657,0.45746 -5.569478,0.11837 -1.859805,-0.34297 -3.64693,-1.07432 -5.21386,-2.13319 z m 27.771964,21.87084 c 0.417011,1.82275 0.457464,3.73066 0.118372,5.56948 -0.342969,1.85981 -1.07432,3.64693 -2.133194,5.21386 l 7.347055,-10.42772 z"
       id="path3742" />
    <path
       style="fill:#ffffff;stroke:#000000;stroke-width:1.32291667;stroke-linecap:butt;stroke-linejoin:round;stroke-miterlimit:4;stroke-dasharray:none;stroke-opacity:1"
       d="m 66.680333,149.71546 -9.917408,11.52574 1.25093,0.178 0.178351,1.25129 11.525754,-9.91741 -1.518992,-1.51899 z m -22.60439,0 -1.518635,1.51863 -1.518992,1.51899 11.525397,9.91705 0.179066,-1.25058 1.250224,-0.1787 z m 25.64166,25.64166 -11.525388,-9.91706 -0.17836,1.25058 -1.25093,0.17871 9.91705,11.52539 1.518993,-1.51899 z m -17.15389,-9.91671 -11.52504,9.91671 1.518635,1.51863 1.518993,1.51899 9.916702,-11.52505 -1.250582,-0.17905 z"
       id="path3621"
       inkscape:connector-curvature="0" />
    <path
       inkscape:connector-curvature="0"
       style="fill:#ffffff;stroke:#000000;stroke-width:0.79374999;stroke-linecap:round;stroke-linejoin:round;stroke-miterlimit:4;stroke-dasharray:none;stroke-opacity:1"
       d="m 72.967728,140.48658 -11.576845,5.35758 4.440725,2.97391 c 0.550227,-1.78703 1.468715,-3.45982 2.681786,-4.88274 1.226922,-1.43916 2.753849,-2.62119 4.454334,-3.44875 z m 0.621671,29.58109 -2.973905,4.44071 c 1.787026,0.55024 3.45982,1.46873 4.882741,2.6818 1.439158,1.22692 2.621195,2.75385 3.448743,4.45433 z m -41.779589,-23.60184 5.357135,11.5766 2.974088,-4.44004 c -1.787035,-0.55023 -3.459568,-1.46916 -4.882489,-2.68223 -1.439159,-1.22692 -2.621176,-2.75386 -3.448734,-4.45433 z m 13.115795,32.8267 c -0.550226,1.78704 -1.469149,3.45957 -2.68223,4.88249 -1.226922,1.43916 -2.753849,2.62117 -4.454324,3.44874 l 11.576593,-5.35715 z"
       id="path3742-9" />
    <path
       inkscape:connector-curvature="0"
       style="fill:#ffffff;stroke:#000000;stroke-width:0.79374999;stroke-linecap:round;stroke-linejoin:round;stroke-miterlimit:4;stroke-dasharray:none;stroke-opacity:1"
       d="m 82.3955,152.43885 -12.704631,-1.14862 2.358825,4.79583 c 1.370033,-1.27248 3.001866,-2.26193 4.763869,-2.88768 1.782126,-0.63289 3.695495,-0.89309 5.581937,-0.75953 z m -14.252155,25.9288 -4.795842,2.35883 c 1.272503,1.37003 2.261942,3.00186 2.887692,4.76388 0.632883,1.78211 0.893079,3.69549 0.759526,5.58192 z m -24.381277,-41.32958 -1.148876,12.7042 4.795658,-2.35815 c -1.272512,-1.37003 -2.261507,-3.00211 -2.887257,-4.76412 -0.632883,-1.78212 -0.893078,-3.69549 -0.759525,-5.58193 z m -5.054732,34.98665 c -1.370034,1.27251 -3.002108,2.26151 -4.764121,2.88726 -1.782116,0.63288 -3.695485,0.89307 -5.581926,0.75952 l 12.704195,1.14888 z"
       id="path3742-8" />
    <path
       inkscape:connector-curvature="0"
       style="fill:#ffffff;fill-opacity:1;stroke:#000000;stroke-width:1.32291651;stroke-linecap:round;stroke-linejoin:round;stroke-miterlimit:4;stroke-dasharray:none;stroke-opacity:1;paint-order:markers fill stroke"
       d="M 55.378135,143.1785 A 20.8767,20.876702 0 0 0 34.501712,164.05542 20.8767,20.876702 0 0 0 55.378135,184.93184 20.8767,20.876702 0 0 0 76.255057,164.05542 20.8767,20.876702 0 0 0 55.378135,143.1785 Z m 0,5.74928 a 15.12764,15.127641 0 0 1 15.12764,15.12764 15.12764,15.127641 0 0 1 -15.12764,15.12764 15.12764,15.127641 0 0 1 -15.12764,-15.12764 15.12764,15.127641 0 0 1 15.12764,-15.12764 z m 5.12e-4,10.04464 a 5.0825788,5.0825793 0 0 0 -5.083002,5.0825 5.0825788,5.0825793 0 0 0 5.083002,5.083 5.0825788,5.0825793 0 0 0 5.082503,-5.083 5.0825788,5.0825793 0 0 0 -5.082503,-5.0825 z m -1.777079,3.30592 h 3.553658 v 3.55366 h -3.553658 z"
       id="path3593" />
    <path
       inkscape:connector-curvature="0"
       id="path15448-1-6-9-3-8-83"
       d="m 50.493374,37.806159 c 2.594262,-0.735937 5.174242,-1.525157 7.736786,-2.3655 1.057835,-0.347114 2.119005,-0.704662 3.21718,-0.873991 1.098417,-0.170025 2.248802,-0.143448 3.268844,0.260966 0.819189,0.324719 1.528749,0.886327 2.061868,1.572692 0.425739,0.547897 0.751216,1.182734 1.283776,1.631955 0.44534,0.375587 1.003797,0.593785 1.536605,0.839958 0.370407,0.171111 0.732752,0.358646 1.085783,0.561394 -0.182611,0.366379 -0.381446,0.725288 -0.595933,1.075112 -0.308392,0.503445 -0.653463,0.998148 -0.818041,1.560277 -0.197156,0.672318 -0.119642,1.382903 -0.173571,2.077628 -0.06753,0.870684 -0.3499,1.734965 -0.853574,2.464177 -0.627177,0.908055 -1.570047,1.574207 -2.577634,2.048163 -1.007608,0.473945 -2.086744,0.771217 -3.157587,1.074878 -2.594265,0.73594 -5.174244,1.52516 -7.736787,2.365502 L 52.632622,44.953439 50.49424,37.807345 Z"
       style="fill:#009900;fill-opacity:1;fill-rule:evenodd;stroke:#000000;stroke-width:1.32291667;stroke-linejoin:round;stroke-miterlimit:4;stroke-dasharray:none;stroke-linecap:round" />
    <path
       style="fill:none;fill-rule:evenodd;stroke:#000000;stroke-width:0.84666669;stroke-linecap:round;stroke-linejoin:round;stroke-miterlimit:4;stroke-dasharray:none"
       inkscape:connector-curvature="0"
       id="path15452-1-1-4-2-3-4"
       d="m 57.603584,47.659444 c 1.661646,-0.361451 3.298886,-0.842331 4.893744,-1.436804 0.670741,-0.249982 1.342041,-0.524597 1.920575,-0.944212 0.489425,-0.355312 0.899846,-0.80621 1.268948,-1.281002 0.23119,-0.29795 0.449048,-0.607802 0.717309,-0.874302 0.263584,-0.261503 0.573613,-0.478443 0.911171,-0.635803" />
    <path
       inkscape:connector-curvature="0"
       id="path15454-1-5-8-6-2-4"
       d="m 45.051657,44.896099 c -0.132066,-1.274532 -0.127966,-2.629452 0.320163,-3.84516 0.286121,-0.776419 0.865538,-1.439612 1.451568,-2.037239 0.589692,-0.599862 1.305146,-1.07801 2.030014,-1.511215 1.066529,-0.637283 2.193356,-1.194357 3.378053,-1.580412 0.157709,-0.05118 0.316157,-0.09981 0.475571,-0.145471 -0.151472,0.796865 -0.225542,1.610646 -0.185446,2.41424 0.06535,1.325998 0.389311,2.62531 0.695465,3.91358 0.393446,1.655409 0.882633,3.289809 1.463101,4.888155 0.451771,1.243769 0.894639,2.506771 1.567555,3.647034 0.408089,0.69144 0.915921,1.327294 1.479029,1.905568 -0.157634,0.05144 -0.316259,0.09992 -0.475579,0.145479 -1.197725,0.342391 -2.441069,0.510121 -3.67816,0.576921 -0.841014,0.04558 -1.69877,0.04951 -2.518449,-0.120596 -0.815489,-0.169092 -1.661414,-0.396637 -2.325384,-0.882467 -1.03956,-0.760873 -1.786199,-1.886054 -2.374957,-3.020771 -0.696928,-1.342765 -1.145581,-2.839574 -1.301442,-4.34818 z"
       style="fill:none;fill-rule:evenodd;stroke:#000000;stroke-width:0.28222227;stroke-linejoin:round;stroke-miterlimit:4;stroke-dasharray:none" />
    <path
       style="fill:#009900;fill-opacity:1;fill-rule:evenodd;stroke:#000000;stroke-width:1.31548738;stroke-linecap:round;stroke-linejoin:round;stroke-miterlimit:4;stroke-dasharray:none;stroke-opacity:1"
       d="m -431.92945,341.33281 c 1.26023,-0.60972 2.38167,-1.50422 3.2563,-2.59736 0.92094,-1.15101 1.56206,-2.50822 1.99523,-3.91724 0.60459,-1.96663 0.81081,-4.09384 0.30291,-6.08763 -0.35246,-1.38362 -1.0465,-2.67888 -2.00328,-3.73869 l -2.20922,0.0367 c 0.31267,1.51449 0.472,3.06059 0.47476,4.60702 0.002,1.24979 -0.0991,2.50798 -0.43093,3.71292 -0.31455,1.14225 -0.83397,2.22423 -1.49389,3.20819 -0.73389,1.09425 -1.64304,2.0707 -2.6822,2.88073 l 1.8628,2.29439 z"
       id="path12649-2-7-4"
       inkscape:path-effect="#path-effect12651-3-7-7"
       inkscape:original-d="m -431.92945,341.33281 c 0,0 2.3752,-1.51558 3.2563,-2.59736 0.92326,-1.13354 1.61756,-2.50227 1.99523,-3.91724 0.52572,-1.96963 0.74085,-4.11875 0.30291,-6.08763 -0.30967,-1.39221 -2.00328,-3.73869 -2.00328,-3.73869 l -2.20922,0.0367 c 0,0 0.48462,3.06363 0.47476,4.60702 -0.008,1.24653 -0.0908,2.51146 -0.43093,3.71292 -0.32116,1.13441 -0.83589,2.23066 -1.49389,3.20819 -0.73455,1.09127 -2.6822,2.88073 -2.6822,2.88073 l 1.8628,2.29439 z"
       inkscape:connector-curvature="0"
       sodipodi:nodetypes="caaaccaaaccc"
       transform="matrix(-0.52729314,-0.37457949,0.37258673,-0.52091751,-305.25977,61.189965)" />
    <path
       d="m 46.353343,49.244854 c 0.588892,1.134809 1.33555,2.260239 2.374959,3.02077 0.663962,0.485805 1.509877,0.713359 2.325384,0.882467 0.819523,0.170013 1.67752,0.16602 2.518452,0.120597 1.237175,-0.06696 2.480514,-0.234681 3.678157,-0.576917 0.159268,-0.04581 0.317773,-0.09416 0.475571,-0.14547 -0.563147,-0.578501 -1.07093,-1.21414 -1.47903,-1.905569 -0.672914,-1.140264 -1.11533,-2.402341 -1.567555,-3.647033 -0.580551,-1.598191 -1.069261,-3.233335 -1.463097,-4.888159 -0.306157,-1.288266 -0.630114,-2.587579 -0.695469,-3.913576 -0.03968,-0.80417 0.03453,-1.617865 0.185446,-2.41424 -0.159496,0.04539 -0.317954,0.09402 -0.47557,0.14547 -1.184576,0.385925 -2.311421,0.942985 -3.378032,1.580424 -0.725094,0.433278 -1.441166,0.91058 -2.030014,1.511215 -0.585188,0.598403 -1.164886,1.261326 -1.451585,2.037223 -0.448133,1.215712 -0.452234,2.570633 -0.320164,3.845159 0.156396,1.508101 0.604656,3.005497 1.301441,4.348181 z"
       id="path15456-4-6-1-1-6-2"
       inkscape:connector-curvature="0"
       style="fill:#009900;fill-opacity:1;fill-rule:evenodd;stroke:#000000;stroke-width:1.32291667;stroke-linecap:round;stroke-linejoin:round;stroke-miterlimit:4;stroke-dasharray:none" />
    <path
       style="fill:none;fill-rule:evenodd;stroke:#000000;stroke-width:0.28222227;stroke-linecap:round;stroke-miterlimit:4;stroke-dasharray:none"
       d="M 54.488963,46.476835 C 53.403179,46.051725 52.340615,45.571238 51.308789,45.037028 49.986792,44.352436 48.709487,43.579873 47.555759,42.652656 46.855013,42.089408 46.20125,41.470701 45.60283,40.803994"
       id="path15460-0-4-5-1-5-1"
       inkscape:connector-curvature="0" />
    <path
       style="fill:none;fill-rule:evenodd;stroke:#000000;stroke-width:0.28222227;stroke-linecap:round;stroke-miterlimit:4;stroke-dasharray:none"
       d="M 56.296534,50.802017 C 54.938136,50.406896 53.601472,49.945281 52.292105,49.419612 50.615672,48.746276 48.979231,47.964316 47.48789,46.964183 46.639525,46.395219 45.840341,45.756949 45.101046,45.058081"
       id="path15462-3-5-0-1-3-5"
       inkscape:connector-curvature="0" />
    <path
       style="fill:none;fill-rule:evenodd;stroke:#000000;stroke-width:0.28222227;stroke-linecap:round;stroke-miterlimit:4;stroke-dasharray:none"
       d="m 53.28273,42.334964 c -0.709128,-0.277668 -1.402746,-0.591717 -2.077184,-0.940402 -0.863404,-0.446611 -1.697649,-0.951694 -2.451255,-1.557411 -0.457632,-0.36775 -0.884592,-0.772023 -1.275547,-1.207325"
       id="path15464-7-4-7-5-1-4"
       inkscape:connector-curvature="0" />
    <path
       style="fill:none;fill-rule:evenodd;stroke:#000000;stroke-width:0.28222227;stroke-linecap:round;stroke-miterlimit:4;stroke-dasharray:none"
       d="m 53.34053,42.642882 c -0.670466,0.962013 -1.290808,1.957152 -1.857331,2.98006 -0.725349,1.309744 -1.36421,2.668932 -1.816507,4.087889 -0.274478,0.861381 -0.479034,1.742647 -0.611472,2.632801"
       id="path15468-9-0-7-1-9-71"
       inkscape:connector-curvature="0" />
    <path
       style="fill:none;fill-rule:evenodd;stroke:#000000;stroke-width:0.28222227;stroke-linecap:round;stroke-miterlimit:4;stroke-dasharray:none"
       d="m 52.473016,38.030222 c -0.914067,1.089882 -1.774045,2.22387 -2.574466,3.393708 -1.025795,1.499653 -1.959233,3.067214 -2.651938,4.735348 -0.394126,0.948858 -0.709187,1.927674 -0.940973,2.923839"
       id="path15470-3-5-1-8-0-5"
       inkscape:connector-curvature="0" />
    <path
       style="fill:none;fill-rule:evenodd;stroke:#000000;stroke-width:0.28222227;stroke-linecap:round;stroke-miterlimit:4;stroke-dasharray:none"
       d="m 54.608309,46.766154 c -0.438107,0.628292 -0.843167,1.278322 -1.213041,1.9464 -0.473712,0.855373 -0.891055,1.743298 -1.185726,2.66976 -0.179156,0.562589 -0.312933,1.138266 -0.399445,1.719622"
       id="path15472-3-7-2-6-5-3"
       inkscape:connector-curvature="0" />
    <path
       inkscape:connector-curvature="0"
       id="path15448-1-6-9-3-8-8"
       d="m 41.893773,87.54803 c -2.590466,-0.749195 -5.197025,-1.445623 -7.81586,-2.089452 -1.081185,-0.265595 -2.170725,-0.524103 -3.192005,-0.961877 -1.021855,-0.437314 -1.983704,-1.068926 -2.634936,-1.952066 -0.523033,-0.709189 -0.827643,-1.561299 -0.916517,-2.425831 -0.07109,-0.690209 -0.01109,-1.401093 -0.225052,-2.064148 -0.178949,-0.55441 -0.537188,-1.03519 -0.858856,-1.526121 -0.223639,-0.341272 -0.431744,-0.692208 -0.623891,-1.051119 0.348894,-0.214133 0.707598,-0.41334 1.07477,-0.59655 0.528169,-0.263818 1.082827,-0.5008 1.520062,-0.890544 0.523211,-0.465973 0.833668,-1.109833 1.247235,-1.670648 0.518272,-0.702885 1.215406,-1.286594 2.028773,-1.638548 1.012828,-0.438287 2.165397,-0.504214 3.271111,-0.372829 1.105726,0.131409 2.178594,0.450561 3.247809,0.759904 2.590468,0.749194 5.197027,1.445622 7.81586,2.089451 l -1.969225,7.194412 -1.969386,7.194501 z"
       style="fill:#009900;fill-opacity:1;fill-rule:evenodd;stroke:#000000;stroke-width:1.32291663;stroke-linejoin:round;stroke-miterlimit:4;stroke-dasharray:none"
       sodipodi:nodetypes="cccccccccccccccccc" />
    <path
       style="fill:none;fill-rule:evenodd;stroke:#000000;stroke-width:0.84666669;stroke-linecap:round;stroke-linejoin:round;stroke-miterlimit:4;stroke-dasharray:none"
       inkscape:connector-curvature="0"
       id="path15452-1-1-4-2-3-0"
       d="m 41.078649,75.424587 c -1.601014,-0.573117 -3.244557,-1.031996 -4.912287,-1.37207 -0.701369,-0.143049 -1.416257,-0.265499 -2.129215,-0.215824 -0.603319,0.04231 -1.190224,0.207523 -1.754725,0.414891 -0.353877,0.130362 -0.702747,0.277879 -1.071421,0.361933 -0.36206,0.08229 -0.739932,0.102187 -1.10961,0.05696" />
    <path
       inkscape:connector-curvature="0"
       id="path15454-1-5-8-6-2-3"
       d="m 50.263958,84.414418 c -0.562758,1.151163 -1.283594,2.298429 -2.307413,3.092508 -0.6538,0.507184 -1.496469,0.76303 -2.310036,0.959752 -0.817856,0.196679 -1.677959,0.22352 -2.522256,0.207248 -1.24219,-0.02404 -2.493067,-0.148035 -3.702493,-0.447764 -0.160891,-0.04007 -0.321051,-0.08272 -0.480466,-0.12838 0.550397,-0.595818 1.044087,-1.246969 1.435532,-1.94992 0.646601,-1.159503 1.05969,-2.433285 1.482037,-3.688272 0.54267,-1.612664 0.992999,-3.258195 1.3468,-4.921468 0.275251,-1.294333 0.568238,-2.600268 0.60108,-3.923874 0.01988,-0.802641 -0.07428,-1.610934 -0.245829,-2.399643 0.160962,0.03982 0.321196,0.08268 0.480477,0.128377 1.19736,0.343666 2.340948,0.859655 3.425793,1.457959 0.737599,0.406607 1.467354,0.857404 2.072658,1.435694 0.60229,0.575206 1.199452,1.216114 1.505506,1.9798 0.479064,1.195873 0.516748,2.545718 0.415447,3.820064 -0.119689,1.508112 -0.531556,3.015459 -1.198058,4.377794 z"
       style="fill:none;fill-rule:evenodd;stroke:#000000;stroke-width:0.28222227;stroke-linejoin:round;stroke-miterlimit:4;stroke-dasharray:none" />
    <path
       style="fill:#009900;fill-opacity:1;fill-rule:evenodd;stroke:#000000;stroke-width:2.05544901;stroke-linecap:round;stroke-linejoin:round;stroke-miterlimit:4;stroke-dasharray:none;stroke-opacity:1"
       d="m -431.92945,341.33281 c 1.25637,-0.61635 2.37606,-1.50946 3.2563,-2.59736 0.92787,-1.14676 1.58505,-2.50029 1.99523,-3.91724 0.56997,-1.96895 0.66748,-4.07052 0.30291,-6.08763 -0.30075,-1.66399 -0.91378,-3.27101 -1.7977,-4.71254 l -2.61716,0.78064 c 0.43061,1.57467 0.65878,3.20458 0.67712,4.83696 0.014,1.25005 -0.096,2.50851 -0.43093,3.71292 -0.31743,1.14134 -0.8349,2.22374 -1.49389,3.20819 -0.73296,1.09495 -1.64228,2.07158 -2.6822,2.88073 l 1.8628,2.29439 z"
       id="path12649-2-7-5"
       inkscape:path-effect="#path-effect12651-3-7-8"
       inkscape:original-d="m -431.92945,341.33281 c 0,0 2.3752,-1.51558 3.2563,-2.59736 0.92326,-1.13354 1.61756,-2.50227 1.99523,-3.91724 0.52572,-1.96963 0.62144,-4.08012 0.30291,-6.08763 -0.26359,-1.66122 -1.7977,-4.71254 -1.7977,-4.71254 l -2.61716,0.78064 c 0,0 0.65788,3.20939 0.67712,4.83696 0.0147,1.24654 -0.0908,2.51146 -0.43093,3.71292 -0.32116,1.13441 -0.83589,2.23066 -1.49389,3.20819 -0.73455,1.09127 -2.6822,2.88073 -2.6822,2.88073 l 1.8628,2.29439 z"
       inkscape:connector-curvature="0"
       sodipodi:nodetypes="caaaccaaaccc"
       transform="matrix(0.2490063,0.5969453,-0.59187923,0.24465265,356.07519,256.06253)" />
    <path
       d="m 51.46211,80.036006 c 0.101236,-1.274495 0.06367,-2.62456 -0.415447,-3.820064 -0.30606,-0.763661 -0.903209,-1.404571 -1.505507,-1.9798 -0.605223,-0.578121 -1.335215,-1.028998 -2.072662,-1.435692 -1.084999,-0.598216 -2.22858,-1.114207 -3.425787,-1.45796 -0.15937,-0.04546 -0.319433,-0.08836 -0.480467,-0.128381 0.171457,0.788922 0.265695,1.597007 0.245829,2.399643 -0.03284,1.323608 -0.325726,2.628519 -0.60108,3.923874 -0.353649,1.663185 -0.804775,3.309095 -1.346807,4.92147 -0.42234,1.254985 -0.835429,2.528767 -1.482029,3.688271 -0.392103,0.70322 -0.885862,1.354224 -1.435532,1.94992 0.159335,0.04595 0.31951,0.08858 0.480466,0.12838 1.209252,0.299772 2.460138,0.423796 3.70248,0.447743 0.844526,0.01633 1.704708,-0.0095 2.522256,-0.207249 0.813263,-0.197825 1.656027,-0.453293 2.310042,-0.959729 1.023826,-0.79408 1.744661,-1.941347 2.307412,-3.092508 0.665782,-1.362191 1.078293,-2.869827 1.198058,-4.377794 z"
       id="path15456-4-6-1-1-6-9"
       inkscape:connector-curvature="0"
       style="fill:#009900;fill-opacity:1;fill-rule:evenodd;stroke:#000000;stroke-width:1.32291667;stroke-linecap:round;stroke-linejoin:round;stroke-miterlimit:4;stroke-dasharray:none" />
    <path
       style="fill:none;fill-rule:evenodd;stroke:#000000;stroke-width:0.28222227;stroke-linecap:round;stroke-miterlimit:4;stroke-dasharray:none"
       d="m 43.094792,78.076868 c 0.696045,0.935504 1.343074,1.905691 1.93558,2.905181 0.759054,1.280695 1.433618,2.612358 1.921465,4.009794 0.296264,0.848835 0.523308,1.719842 0.677989,2.60227"
       id="path15460-0-4-5-1-5-0"
       inkscape:connector-curvature="0" />
    <path
       style="fill:none;fill-rule:evenodd;stroke:#000000;stroke-width:0.28222227;stroke-linecap:round;stroke-miterlimit:4;stroke-dasharray:none"
       d="m 43.851299,73.450616 c 0.943195,1.054397 1.832745,2.153695 2.665225,3.292883 1.065697,1.4588 2.039955,2.988578 2.775609,4.626619 0.41847,0.931841 0.758523,1.896438 1.015686,2.880735"
       id="path15462-3-5-0-1-3-0"
       inkscape:connector-curvature="0" />
    <path
       style="fill:none;fill-rule:evenodd;stroke:#000000;stroke-width:0.28222227;stroke-linecap:round;stroke-miterlimit:4;stroke-dasharray:none"
       d="m 41.925196,82.229232 c 0.454574,0.611004 0.876729,1.244659 1.264274,1.897542 0.496008,0.836005 0.93632,1.706176 1.254943,2.619026 0.193525,0.554269 0.341693,1.123285 0.442889,1.69956"
       id="path15464-7-4-7-5-1-2"
       inkscape:connector-curvature="0" />
    <path
       style="fill:none;fill-rule:evenodd;stroke:#000000;stroke-width:0.28222227;stroke-linecap:round;stroke-miterlimit:4;stroke-dasharray:none"
       d="m 42.039188,81.937412 c 1.07812,-0.461143 2.131255,-0.976926 3.153435,-1.54476 1.308784,-0.727081 2.570374,-1.541897 3.705338,-2.506192 0.688906,-0.585427 1.329023,-1.224742 1.912665,-1.90978"
       id="path15468-9-0-7-1-9-7"
       inkscape:connector-curvature="0" />
    <path
       style="fill:none;fill-rule:evenodd;stroke:#000000;stroke-width:0.28222227;stroke-linecap:round;stroke-miterlimit:4;stroke-dasharray:none"
       d="m 40.332985,86.309834 c 1.352475,-0.440645 2.682419,-0.947345 3.980816,-1.515991 1.664211,-0.729117 3.286026,-1.564745 4.756865,-2.613145 0.836722,-0.59629 1.622233,-1.259854 2.346283,-1.982227"
       id="path15470-3-5-1-8-0-2"
       inkscape:connector-curvature="0" />
    <path
       style="fill:none;fill-rule:evenodd;stroke:#000000;stroke-width:0.28222227;stroke-linecap:round;stroke-miterlimit:4;stroke-dasharray:none"
       d="m 43.146724,77.768238 c 0.704313,-0.301053 1.392097,-0.638045 2.059589,-1.008976 0.854745,-0.474846 1.678904,-1.00715 2.419397,-1.637097 0.449845,-0.382414 0.868125,-0.79996 1.249313,-1.247346"
       id="path15472-3-7-2-6-5-5"
       inkscape:connector-curvature="0" />
    <path
       style="opacity:1;fill:#009900;fill-opacity:1;fill-rule:nonzero;stroke:#000000;stroke-width:1.41111112;stroke-linecap:round;stroke-linejoin:round;stroke-miterlimit:4;stroke-dasharray:none;stroke-dashoffset:0;stroke-opacity:1"
       d="m 53.326261,10.499718 c -0.09323,-0.0037 -0.187431,2.12e-4 -0.281015,0.01208 -0.503877,0.06391 -0.971922,0.347124 -1.377307,0.685719 -0.231162,0.193103 -0.455491,0.410946 -0.730481,0.515167 -0.25708,0.09779 -0.536075,0.08639 -0.794953,0.02617 -0.445847,-0.10384 -0.843916,-0.344178 -1.246868,-0.559436 -0.229829,-0.122734 -0.464538,-0.238462 -0.712279,-0.319521 -0.292741,-0.09573 -0.617285,-0.14072 -0.914952,-0.02731 -0.153003,0.05831 -0.29224,0.156187 -0.412851,0.273614 -0.120566,0.117327 -0.223124,0.253903 -0.315398,0.39636 -0.298719,0.461061 -0.495984,1.005953 -0.481096,1.548209 0.0095,0.345694 0.103219,0.677441 0.194883,1.005016 0.09166,0.327571 0.18248,0.660528 0.186006,1.006649 0.0042,0.402467 -0.117051,0.818269 -0.367822,1.13779 -0.158432,0.20195 -0.373286,0.366315 -0.613827,0.415344 -0.146481,0.02989 -0.297613,0.01576 -0.437975,-0.0262 -0.140033,-0.04192 -0.270056,-0.111421 -0.391499,-0.193054 -0.330435,-0.221807 -0.607947,-0.537512 -0.982174,-0.671137 -0.199983,-0.07134 -0.419934,-0.08618 -0.633529,-0.04765 -0.21355,0.03842 -0.420525,0.129907 -0.60259,0.260162 -0.278446,0.199141 -0.495364,0.486628 -0.647741,0.800686 -0.1523,0.314093 -0.24301,0.654824 -0.301942,0.997188 -0.162128,0.943167 -0.08287,1.935217 0.331433,2.755827 0.233873,0.463237 0.566796,0.860663 0.824105,1.309076 0.128673,0.224273 0.238874,0.462366 0.303674,0.717514 0.06526,0.255354 0.08385,0.529073 0.03087,0.794151 -0.02653,0.132637 -0.07088,0.263937 -0.142772,0.378963 -0.07173,0.115075 -0.172291,0.213844 -0.291101,0.270276 -0.132274,0.06269 -0.280802,0.07017 -0.420462,0.04921 -0.139661,-0.02095 -0.272372,-0.06941 -0.405722,-0.114075 -0.660334,-0.221128 -1.380502,-0.365798 -2.067364,-0.160442 -0.421483,0.12599 -0.812496,0.383241 -1.111388,0.728262 -0.32357,0.373999 -0.536713,0.849654 -0.601258,1.340013 -0.06758,0.51398 0.02693,1.034837 0.225707,1.494425 0.198783,0.459681 0.498835,0.861537 0.842955,1.209627 0.56494,0.571402 1.252069,1.008346 1.761653,1.634994 0.06553,0.08044 0.128105,0.164211 0.174068,0.25896 0.04601,0.09479 0.07517,0.201425 0.06963,0.310226 -0.0063,0.123016 -0.05653,0.243483 -0.130651,0.342824 -0.07406,0.09936 -0.170581,0.178233 -0.274171,0.241616 -0.200973,0.12285 -0.427687,0.186661 -0.652157,0.237033 -0.224567,0.05033 -0.451833,0.08958 -0.670467,0.167323 -0.282668,0.100536 -0.547759,0.267021 -0.762349,0.489805 -0.214577,0.222781 -0.377032,0.501709 -0.458968,0.802188 -0.08768,0.321695 -0.08198,0.660993 -0.01967,0.980517 0.06221,0.319621 0.179333,0.621387 0.310617,0.913425 0.231961,0.516295 0.52253,1.019593 0.961717,1.351531 0.206385,0.15597 0.443935,0.26768 0.695357,0.326967 -1.066269,3.262845 -1.964175,6.580987 -2.685027,9.937081 -0.828438,0.134503 -1.685311,0.09245 -2.496583,-0.122527 -0.615712,-0.163155 -1.194606,-0.424208 -1.747695,-0.738716 l -0.133582,-0.124518 c 0.398618,-0.01365 0.786175,-0.129918 1.108541,-0.343465 0.277527,-0.183909 0.50677,-0.434733 0.673411,-0.722853 0.32194,-0.556568 0.405578,-1.229581 0.420782,-1.890057 0.0083,-0.373823 -0.0031,-0.75269 -0.08139,-1.124654 -0.07816,-0.372043 -0.225363,-0.739036 -0.465573,-1.045202 -0.224425,-0.286126 -0.526379,-0.511939 -0.858316,-0.654194 -0.331937,-0.142254 -0.69274,-0.201691 -1.042419,-0.181541 -0.27047,0.0156 -0.532491,0.07765 -0.796723,0.125429 -0.26441,0.04778 -0.536134,0.08165 -0.808076,0.04054 -0.140201,-0.02116 -0.280315,-0.06295 -0.405151,-0.136295 -0.124727,-0.07327 -0.234275,-0.180041 -0.296796,-0.309475 -0.05535,-0.114495 -0.07243,-0.242025 -0.0659,-0.364889 0.0066,-0.122869 0.03597,-0.241364 0.06981,-0.35771 0.264017,-0.905107 0.804924,-1.686707 1.153085,-2.558278 0.212175,-0.530628 0.352508,-1.098909 0.357876,-1.683604 0.0052,-0.584702 -0.128991,-1.187461 -0.435035,-1.709583 -0.29197,-0.498185 -0.73736,-0.913272 -1.255247,-1.168809 -0.47805,-0.235915 -1.014651,-0.335062 -1.524975,-0.279728 -0.832034,0.09084 -1.541553,0.573231 -2.151486,1.110786 -0.12319,0.108569 -0.244277,0.220598 -0.384969,0.306541 -0.140731,0.08592 -0.303724,0.145016 -0.474476,0.137621 -0.153485,-0.0067 -0.306116,-0.06718 -0.435625,-0.158485 -0.129435,-0.0912 -0.236961,-0.21184 -0.325705,-0.342458 -0.177319,-0.261212 -0.27997,-0.56442 -0.325742,-0.868639 -0.04574,-0.304309 -0.03602,-0.610486 7.1e-4,-0.910046 0.07326,-0.59913 0.249961,-1.177107 0.29128,-1.781553 0.07327,-1.070756 -0.291086,-2.174364 -0.893788,-3.11507 -0.218697,-0.341619 -0.470858,-0.667059 -0.777232,-0.935811 -0.306375,-0.268742 -0.670336,-0.478998 -1.06025,-0.566834 -0.254958,-0.05749 -0.518681,-0.06205 -0.76592,-0.0065 -0.247152,0.05559 -0.47746,0.171494 -0.660275,0.339079 -0.341902,0.313582 -0.497373,0.779002 -0.752146,1.167561 -0.09371,0.14283 -0.201897,0.277525 -0.33352,0.386159 -0.131614,0.108656 -0.287576,0.19055 -0.459116,0.225295 -0.280994,0.05643 -0.586023,-0.02165 -0.848091,-0.16683 -0.41475,-0.229891 -0.735867,-0.622576 -0.914068,-1.057385 -0.153295,-0.373917 -0.20598,-0.773934 -0.256219,-1.167899 -0.05005,-0.393962 -0.09914,-0.792775 -0.245815,-1.168939 -0.230093,-0.590055 -0.689795,-1.08662 -1.220377,-1.447006 -0.163919,-0.111342 -0.33607,-0.211643 -0.519015,-0.283131 -0.182936,-0.07148 -0.376473,-0.11321 -0.567522,-0.106497 -0.371659,0.01311 -0.701439,0.207589 -0.972708,0.443262 -0.229712,0.199637 -0.430019,0.431117 -0.621544,0.66745 -0.335749,0.414432 -0.653832,0.853064 -1.086361,1.167198 -0.251538,0.182711 -0.547281,0.322193 -0.868538,0.334031 -0.343563,0.01225 -0.68324,-0.120376 -1.019172,-0.222825 -0.5898301,-0.180323 -1.2208747,-0.272206 -1.7918914,-0.112261 -0.213032,0.05969 -0.4153561,0.153141 -0.5946284,0.27711 l -6.078e-4,0.0016 -5.294e-4,-2.6e-5 c -0.1098993,0.186809 -0.1895648,0.392032 -0.2336766,0.607843 -0.1188213,0.580973 0.018338,1.205335 0.2401098,1.780727 0.1265083,0.328114 0.2831261,0.657998 0.2949305,1.001129 0.011382,0.320926 -0.1057675,0.625075 -0.2697106,0.888567 -0.282412,0.453755 -0.6979914,0.80321 -1.0874246,1.167664 -0.2220673,0.207887 -0.438251,0.423598 -0.621,0.666959 -0.2158857,0.287568 -0.3874855,0.629754 -0.3740574,1.00141 0.00694,0.191037 0.06296,0.381818 0.1474216,0.559288 0.084406,0.177386 0.196372,0.34179 0.3191343,0.49735 0.3972951,0.503532 0.9256424,0.926592 1.5306018,1.114028 0.3856665,0.119487 0.7875716,0.140255 1.184097,0.162109 0.396535,0.02186 0.7986507,0.04671 1.1825466,0.172894 0.4464026,0.146752 0.8606576,0.437327 1.1195326,0.834646 0.16364,0.251052 0.263826,0.550023 0.227576,0.83433 -0.02201,0.173148 -0.09433,0.334893 -0.193501,0.474262 -0.09903,0.138997 -0.224307,0.256993 -0.360195,0.36053 -0.369399,0.28183 -0.8229733,0.469896 -1.1113731,0.833291 -0.1540355,0.194219 -0.2533982,0.431542 -0.2911363,0.682115 -0.037824,0.250484 -0.014706,0.513853 0.06082,0.764058 0.1154117,0.382649 0.3519898,0.730605 0.6418234,1.017122 0.289898,0.286444 0.632354,0.514835 0.988609,0.708704 0.981522,0.533842 2.107999,0.818773 3.170799,0.669379 0.599965,-0.08432 1.163986,-0.302454 1.756364,-0.418254 0.296274,-0.0579 0.601233,-0.08997 0.90761,-0.06566 0.306789,0.02387 0.616281,0.105876 0.889365,0.264054 0.136644,0.07916 0.264898,0.177703 0.365024,0.300406 0.10018,0.122602 0.171579,0.270658 0.189282,0.423198 0.0196,0.169798 -0.02824,0.336819 -0.103916,0.483313 -0.07567,0.146491 -0.178592,0.275345 -0.278093,0.405953 -0.492704,0.646718 -0.923302,1.388071 -0.954589,2.224478 -0.01918,0.513238 0.118303,1.04225 0.387262,1.502352 0.291716,0.498272 0.737024,0.912557 1.254752,1.168269 0.542687,0.267954 1.153778,0.359831 1.73652,0.312876 0.582828,-0.04687 1.139568,-0.227627 1.653695,-0.477103 0.843993,-0.40959 1.585462,-1.005034 2.469704,-1.332647 0.113532,-0.04215 0.22931,-0.07986 0.351311,-0.09503 0.122094,-0.01525 0.251376,-0.0072 0.36953,0.03986 0.133546,0.05333 0.247654,0.154099 0.329608,0.273317 0.08196,0.11919 0.133226,0.255705 0.164333,0.394035 0.06022,0.268328 0.04534,0.54295 0.01661,0.810008 -0.02883,0.267137 -0.07108,0.53241 -0.06736,0.803299 0.0048,0.350231 0.08928,0.706154 0.254849,1.027102 0.165547,0.320943 0.412815,0.605518 0.71413,0.809056 0.322608,0.217864 0.699556,0.339349 1.076133,0.390667 0.376673,0.05142 0.754715,0.03514 1.126867,-5.2e-5 0.657872,-0.06226 1.32312,-0.194028 1.855147,-0.554652 0.07241,-0.04909 0.141425,-0.103025 0.207566,-0.160034 0.220305,0.174193 0.44229,0.346497 0.668046,0.514473 3.13413,2.331937 6.819031,4.083182 9.2426,7.126335 2.34083,2.939263 2.750066,7.035572 4.710577,10.241058 2.208185,3.610437 4.322473,7.54209 7.85162,9.977681 1.115402,0.76978 2.311781,1.41825 3.420181,2.198078 1.1084,0.779828 2.144826,1.713548 2.794209,2.903082 0.457429,0.83792 0.872777,1.817135 0.699287,2.745421 -0.09249,0.494924 -0.532108,0.86283 -0.876321,1.23028 -1.142279,1.219397 -2.760544,1.92284 -3.884295,3.168241 -0.425452,-0.02889 -0.864814,0.0515 -1.288159,0.165984 -0.309105,0.08352 -0.616739,0.184098 -0.903413,0.338527 -0.286619,0.154324 -0.553002,0.365323 -0.746291,0.637011 -0.180518,0.253799 -0.293222,0.556208 -0.329524,0.863384 -0.03635,0.307173 0.0029,0.617829 0.104311,0.900198 0.07841,0.21839 0.192446,0.418906 0.295821,0.624516 0.07943,0.158079 0.152468,0.322533 0.197099,0.496017 -0.152688,0.321817 -0.294707,0.648699 -0.429855,0.978495 -0.0059,0.0016 -0.01145,0.0049 -0.0174,0.0064 -0.102424,0.02449 -0.20661,0.02947 -0.31034,0.02978 -0.807687,0.0029 -1.580969,-0.252007 -2.381008,-0.326914 -0.487339,-0.04561 -0.988259,-0.02291 -1.46983,0.114642 -0.481517,0.137452 -0.94401,0.394355 -1.298774,0.772355 -0.338418,0.36068 -0.571576,0.826739 -0.655863,1.31405 -0.07747,0.449861 -0.02857,0.915723 0.141058,1.321601 0.276438,0.661465 0.844658,1.126678 1.434178,1.497341 0.119064,0.07483 0.240424,0.146732 0.345144,0.241479 0.104723,0.09475 0.193385,0.214777 0.228763,0.356842 0.03178,0.127672 0.01893,0.2677 -0.02465,0.396148 -0.04342,0.128506 -0.116607,0.24612 -0.202435,0.350679 -0.171508,0.208937 -0.395156,0.368207 -0.634052,0.479547 -0.238435,0.11156 -0.493035,0.17735 -0.748067,0.2199 -0.509937,0.0851 -1.027594,0.079 -1.534145,0.19168 -0.897349,0.19955 -1.715023,0.76688 -2.341863,1.49 -0.227494,0.26256 -0.434115,0.54869 -0.580561,0.86555 -0.146381,0.31692 -0.231259,0.66741 -0.208877,1.00901 0.01463,0.22338 0.07556,0.44124 0.181173,0.63078 0.10556,0.18965 0.255989,0.35024 0.437912,0.45972 0.340518,0.20483 0.761023,0.21939 1.142014,0.3344 0.140101,0.0422 0.276102,0.0992 0.397271,0.18093 0.121409,0.0819 0.228035,0.18968 0.297734,0.32194 0.114476,0.21714 0.123625,0.48746 0.06778,0.73801 -0.08825,0.39647 -0.332982,0.75376 -0.646935,1.00561 -0.269984,0.21662 -0.585087,0.35739 -0.896562,0.49408 -0.311493,0.13669 -0.6274,0.27438 -0.900828,0.48611 -0.428905,0.33212 -0.725321,0.82987 -0.892674,1.35314 -0.05169,0.16166 -0.09284,0.32743 -0.107076,0.49505 -0.01444,0.16772 -0.0021,0.33762 0.0498,0.49293 0.100921,0.30213 0.341359,0.52493 0.600933,0.69071 0.21971,0.14028 0.457866,0.24832 0.698452,0.34833 0.421885,0.17529 0.860305,0.33093 1.223169,0.61001 0.21065,0.16209 0.395966,0.37081 0.483284,0.63165 0.09365,0.27876 0.06726,0.59031 0.06438,0.89151 -0.005,0.52817 0.07298,1.0699 0.342871,1.50018 0.100225,0.15984 0.225844,0.30077 0.370133,0.41758 l 5.03e-4,5.6e-4 c 0.181046,0.0455 0.371418,0.0602 0.560239,0.044 0.506074,-0.0433 0.984562,-0.30667 1.403474,-0.62856 0.238654,-0.18312 0.471495,-0.39178 0.750741,-0.4852 0.261234,-0.0871 0.540284,-0.0639 0.796946,0.007 0.441329,0.12198 0.828329,0.37793 1.222164,0.60945 0.224637,0.132 0.454701,0.25779 0.698939,0.34887 0.288405,0.10756 0.611138,0.1646 0.913179,0.0634 0.155257,-0.0521 0.298654,-0.1442 0.42391,-0.25651 0.125255,-0.11232 0.232755,-0.24412 0.330766,-0.38268 0.317277,-0.44851 0.537038,-0.98511 0.544235,-1.52752 0.0046,-0.34579 -0.07592,-0.68078 -0.154192,-1.01181 -0.07808,-0.3311 -0.156288,-0.6675 -0.145317,-1.01345 0.01223,-0.40229 0.151607,-0.81351 0.415193,-1.12253 0.166587,-0.19518 0.387792,-0.35002 0.630134,-0.38919 0.148028,-0.0237 0.297907,-0.005 0.436107,0.0431 0.138222,0.0476 0.265398,0.12283 0.383463,0.20922 0.321113,0.23509 0.585906,0.56187 0.954368,0.71064 0.196986,0.0795 0.416283,0.10313 0.631228,0.0734 0.214989,-0.0298 0.425005,-0.11263 0.612237,-0.23536 0.28634,-0.18762 0.515528,-0.46507 0.680516,-0.77269 0.164967,-0.30762 0.268928,-0.64465 0.341667,-0.98437 0.200746,-0.93564 0.161388,-1.93057 -0.219109,-2.76739 -0.214782,-0.4724 -0.529892,-0.88302 -0.768704,-1.34155 -0.119467,-0.22924 -0.219801,-0.47173 -0.274629,-0.72953 -0.05473,-0.25777 -0.06304,-0.53187 7.14e-4,-0.79467 0.03193,-0.13144 0.08211,-0.26046 0.158494,-0.3725 0.07645,-0.11216 0.180256,-0.20636 0.301357,-0.25788 0.134739,-0.0573 0.283541,-0.0592 0.422232,-0.0325 0.138694,0.0266 0.269361,0.0803 0.400785,0.13038 0.65076,0.24792 1.364936,0.42207 2.059596,0.24491 0.425954,-0.10897 0.826111,-0.35006 1.138653,-0.68294 0.338613,-0.36059 0.571425,-0.82776 0.655913,-1.31508 0.08858,-0.51074 0.01504,-1.03385 -0.164836,-1.50127 -0.180007,-0.467352 -0.463024,-0.881533 -0.792663,-1.243377 -0.541163,-0.594441 -1.210311,-1.058514 -1.694055,-1.705145 -0.06212,-0.08314 -0.121251,-0.169601 -0.163366,-0.266194 -0.04212,-0.09658 -0.06692,-0.203711 -0.0566,-0.312172 0.01122,-0.122608 0.06686,-0.241218 0.144872,-0.337472 0.07808,-0.09634 0.177895,-0.171683 0.283991,-0.230783 0.205769,-0.114697 0.433716,-0.169118 0.660154,-0.210257 0.226287,-0.04108 0.455732,-0.07028 0.67736,-0.139046 0.286521,-0.08892 0.557542,-0.24555 0.781034,-0.459395 0.223489,-0.213844 0.398053,-0.485002 0.492123,-0.781934 0.100696,-0.317753 0.10859,-0.656676 0.05942,-0.978565 -0.04903,-0.321847 -0.153497,-0.629327 -0.27272,-0.926574 -0.210659,-0.525182 -0.480576,-1.04 -0.906036,-1.389669 -0.220251,-0.181016 -0.47916,-0.313485 -0.75703,-0.377593 -0.322741,-0.07441 -0.668778,-0.05096 -0.992599,0.05786 l 1.520136,-3.047822 c 0.287844,-0.222619 0.579521,-0.440307 0.879699,-0.645984 0.814159,0.08486 1.61683,0.27972 2.377242,0.582836 2.100815,0.837424 3.809045,2.446371 5.214679,4.218068 1.260513,1.588799 2.316687,3.328392 3.509798,4.968424 1.185823,1.630013 2.507266,3.16126 3.946227,4.572829 l 2.89095,-12.161566 c -3.412513,-0.600042 -6.669657,-2.062642 -9.385514,-4.214257 -2.699955,-2.139013 -4.829505,-4.906286 -7.360315,-7.242981 -2.847696,-2.629278 -6.180159,-4.691678 -9.024899,-7.32416 -2.063437,-1.909462 -5.310364,-6.516853 -5.310364,-6.516853 0,0 2.659499,-0.171345 5.908399,-0.207757 l 0.371908,0.07568 c -0.285061,0.188278 -0.516546,0.446781 -0.656487,0.746963 -0.120455,0.258482 -0.175106,0.543892 -0.167957,0.82889 0.01383,0.550545 0.253299,1.080001 0.53764,1.569232 0.160942,0.276882 0.339147,0.548363 0.562673,0.785067 0.223492,0.236803 0.495391,0.439297 0.807799,0.55548 0.291919,0.1086 0.613384,0.137818 0.919478,0.09324 0.306091,-0.04458 0.596214,-0.162093 0.84262,-0.333232 0.190588,-0.13238 0.35481,-0.294996 0.526441,-0.448089 0.171756,-0.153174 0.354727,-0.299403 0.57176,-0.391024 0.111872,-0.04725 0.232883,-0.07956 0.356873,-0.08182 0.123887,-0.0022 0.251435,0.02691 0.354995,0.09347 0.09163,0.05885 0.161167,0.144329 0.211364,0.236989 0.05022,0.09266 0.08196,0.192383 0.1093,0.292514 0.212036,0.779218 0.166488,1.592088 0.302059,2.384453 0.08237,0.482501 0.233965,0.960547 0.491593,1.390027 0.25775,0.429406 0.625289,0.809276 1.082395,1.053745 0.436118,0.233285 0.947437,0.33713 1.440035,0.292116 0.454713,-0.04152 0.891298,-0.209077 1.239308,-0.477776 0.567109,-0.438546 0.86916,-1.108167 1.074219,-1.773654 0.04144,-0.134406 0.07928,-0.270279 0.143607,-0.395996 0.06434,-0.125713 0.157404,-0.241999 0.285436,-0.312979 0.115103,-0.06377 0.253381,-0.08798 0.388825,-0.07922 0.135343,0.0087 0.267937,0.04886 0.391184,0.104571 0.246372,0.11147 0.457365,0.286916 0.626891,0.488651 0.16949,0.20184 0.298924,0.429878 0.406101,0.665112 0.21449,0.470399 0.344034,0.97183 0.584224,1.431826 0.425484,0.814872 1.185294,1.457547 2.046333,1.875064 0.312551,0.151698 0.642693,0.27735 0.986692,0.336609 0.34401,0.05924 0.703807,0.04998 1.0279,-0.06027 0.211948,-0.07206 0.406158,-0.187075 0.561923,-0.338215 0.155657,-0.15116 0.272296,-0.338868 0.330876,-0.543055 0.109456,-0.381992 0.015,-0.791385 0.02731,-1.189166 0.0042,-0.146251 0.02329,-0.292898 0.07083,-0.431129 0.04753,-0.138233 0.124694,-0.268211 0.234442,-0.370325 0.18001,-0.166921 0.438182,-0.245997 0.694539,-0.257201 0.40579,-0.01761 0.815927,0.125416 1.140599,0.363303 0.279229,0.204547 0.496379,0.473169 0.70931,0.738457 0.212798,0.265366 0.426915,0.534658 0.702323,0.743806 0.43201,0.328067 0.989696,0.485249 1.538458,0.511143 0.169536,0.0081 0.340599,0.0043 0.506212,-0.02534 0.1656,-0.02962 0.32584,-0.08562 0.462385,-0.175984 0.265607,-0.175828 0.419501,-0.465728 0.512221,-0.759219 0.07848,-0.248576 0.120862,-0.507069 0.155007,-0.765368 0.05987,-0.452907 0.0962,-0.915661 0.271617,-1.338601 0.10198,-0.245974 0.255412,-0.479905 0.484777,-0.632254 0.245455,-0.162634 0.553084,-0.217876 0.844282,-0.293313 0.511502,-0.132134 1.013761,-0.347448 1.359314,-0.719715 0.128902,-0.138899 0.234653,-0.297789 0.310143,-0.468535 l 7.9e-5,-0.0016 c -0.0033,-0.185615 -0.03655,-0.370839 -0.100889,-0.548207 -0.173091,-0.477514 -0.552657,-0.872141 -0.972074,-1.1932 -0.239185,-0.183072 -0.500728,-0.354232 -0.662839,-0.599588 -0.151901,-0.229307 -0.202579,-0.504108 -0.20073,-0.769892 0.0033,-0.457763 0.150208,-0.8987 0.271642,-1.339113 0.0692,-0.251188 0.13087,-0.50532 0.1555,-0.764828 0.02907,-0.306622 0.0013,-0.633532 -0.174733,-0.898998 -0.09052,-0.136442 -0.216714,-0.25062 -0.35778,-0.342476 -0.140959,-0.09183 -0.296607,-0.161821 -0.455859,-0.220532 -0.515442,-0.190082 -1.090469,-0.26269 -1.616193,-0.128989 -0.335152,0.08524 -0.638102,0.249938 -0.937515,0.411358 -0.299422,0.161412 -0.603815,0.322898 -0.940698,0.402407 -0.391715,0.0925 -0.82456,0.06575 -1.19138,-0.108661 -0.231839,-0.110176 -0.438859,-0.283764 -0.539554,-0.50765 -0.06139,-0.136325 -0.08093,-0.28676 -0.07085,-0.432908 0.01016,-0.145817 0.04911,-0.288012 0.102058,-0.42442 0.143762,-0.371102 0.390586,-0.711406 0.438689,-1.105856 0.02565,-0.210768 -0.0077,-0.428593 -0.09229,-0.628497 -0.0844,-0.199884 -0.219228,-0.381669 -0.386314,-0.530654 -0.255467,-0.227871 -0.583533,-0.376491 -0.923396,-0.456123 -0.339892,-0.07955 -0.692406,-0.09309 -1.039354,-0.07533 -0.955737,0.04912 -1.905974,0.344634 -2.615461,0.929178 -0.400506,0.329964 -0.715192,0.74161 -1.096085,1.091181 -0.190509,0.17482 -0.398656,0.334929 -0.633325,0.454226 -0.234766,0.119795 -0.497803,0.198341 -0.768031,0.204962 -0.135224,0.0033 -0.272805,-0.01099 -0.400819,-0.05588 -0.12803,-0.04473 -0.246176,-0.121068 -0.327348,-0.224573 -0.09026,-0.115278 -0.130532,-0.258746 -0.140778,-0.399605 -0.01031,-0.140853 0.0078,-0.281195 0.02177,-0.421119 0.07054,-0.692782 0.05362,-1.426625 -0.2977,-2.051559 -0.21554,-0.383483 -0.552466,-0.70859 -0.954742,-0.924344 -0.435972,-0.233461 -0.946961,-0.336902 -1.439521,-0.29209 -0.516257,0.04704 -1.003185,0.253691 -1.40783,0.548666 -0.404756,0.294953 -0.731081,0.675654 -0.995034,1.087864 -0.433264,0.676719 -0.708313,1.44321 -1.207641,2.078055 -0.06408,0.08158 -0.132144,0.161291 -0.214472,0.226954 -0.08232,0.06576 -0.180247,0.117459 -0.287613,0.135927 -0.12141,0.02079 -0.249514,-0.002 -0.362698,-0.05246 -0.113207,-0.05039 -0.211695,-0.127127 -0.296294,-0.214253 -0.164011,-0.169057 -0.27642,-0.375987 -0.374905,-0.583905 -0.09845,-0.208009 -0.185759,-0.420715 -0.309645,-0.616915 -0.160202,-0.253656 -0.381033,-0.475619 -0.64553,-0.635988 -0.264499,-0.16037 -0.572664,-0.258175 -0.883795,-0.27206 -0.333109,-0.01475 -0.663102,0.06555 -0.96112,0.19652 -0.298136,0.130942 -0.566487,0.311661 -0.822541,0.503923 -0.452687,0.339757 -0.879979,0.733581 -1.107282,1.234984 -0.0493,0.108778 -0.08611,0.22277 -0.114397,0.338445 -1.870495,-0.382751 -3.789599,-0.69205 -5.4735,-1.569334 -1.85073,-0.964198 -3.615926,-2.17733 -4.829334,-3.983924 -0.710962,-1.05852 -1.467783,-2.090439 -2.076492,-3.210884 -0.608709,-1.120446 -1.069556,-2.346379 -1.133401,-3.619899 -0.07417,-1.479454 0.386722,-2.927248 0.838419,-4.33801 0.623245,-1.946541 1.240648,-3.894898 1.862155,-5.841997 0.146751,0.07155 0.301865,0.126272 0.462536,0.158256 0.540119,0.107525 1.109691,-0.0099 1.649457,-0.179809 0.305489,-0.09616 0.609202,-0.210445 0.889239,-0.376478 0.280131,-0.16599 0.537261,-0.387035 0.719268,-0.666276 0.170104,-0.260913 0.269623,-0.567618 0.29341,-0.876023 0.02415,-0.308384 -0.02747,-0.617236 -0.140255,-0.895234 -0.08727,-0.215014 -0.20965,-0.410714 -0.321279,-0.611796 -0.11168,-0.201227 -0.214362,-0.412433 -0.256047,-0.644296 -0.02147,-0.119521 -0.02626,-0.244392 -0.0012,-0.365851 0.02498,-0.121358 0.08141,-0.239527 0.16914,-0.325931 0.07754,-0.07649 0.176236,-0.125918 0.277659,-0.154522 0.101424,-0.0286 0.205684,-0.0371 0.309377,-0.04174 0.806764,-0.03558 1.589748,0.187282 2.392529,0.229177 0.488813,0.02559 0.988855,-0.01695 1.464458,-0.173885 0.475563,-0.157078 0.926692,-0.432488 1.265645,-0.824686 0.323433,-0.374185 0.537454,-0.850059 0.601802,-1.340506 0.05946,-0.452718 -0.008,-0.915277 -0.193696,-1.313835 -0.303182,-0.649634 -0.890393,-1.091387 -1.494534,-1.437696 -0.122019,-0.06995 -0.24613,-0.137073 -0.354629,-0.227463 -0.108498,-0.09041 -0.201588,-0.206679 -0.24269,-0.347176 -0.03695,-0.126313 -0.02975,-0.266207 0.0086,-0.396414 0.03822,-0.130118 0.1064,-0.25117 0.187847,-0.35916 0.162897,-0.21585 0.379967,-0.382773 0.614029,-0.503807 0.234154,-0.120991 0.485114,-0.197033 0.738159,-0.249888 0.506037,-0.105857 1.023831,-0.122011 1.525362,-0.255231 0.888468,-0.235985 1.682707,-0.836428 2.27925,-1.58465 0.216693,-0.271569 0.411506,-0.56543 0.544929,-0.887995 0.133402,-0.322574 0.203139,-0.675836 0.166802,-1.016238 -0.02371,-0.222602 -0.09267,-0.437514 -0.205883,-0.62269 -0.113254,-0.185075 -0.270568,-0.340005 -0.456889,-0.442023 -0.3486,-0.190741 -0.769285,-0.188533 -1.154645,-0.287939 -0.141658,-0.03657 -0.280445,-0.08693 -0.404841,-0.163702 -0.124407,-0.07674 -0.234206,-0.180595 -0.309699,-0.31011 -0.123282,-0.21229 -0.143894,-0.481795 -0.09848,-0.734348 0.07198,-0.399735 0.301892,-0.768042 0.605311,-1.032487 0.260922,-0.227452 0.570472,-0.380332 0.876063,-0.529751 0.305656,-0.149276 0.615772,-0.299071 0.880329,-0.521781 0.414997,-0.349344 0.691138,-0.85932 0.837006,-1.388977 0.04508,-0.163638 0.07859,-0.330607 0.08604,-0.498677 0.0075,-0.168068 -0.01203,-0.337244 -0.0701,-0.490301 -0.113128,-0.297774 -0.362052,-0.511221 -0.627987,-0.666184 -0.225249,-0.131201 -0.468306,-0.22995 -0.712772,-0.320061 -0.428682,-0.157942 -0.871815,-0.294782 -1.245859,-0.558869 -0.217543,-0.153571 -0.411909,-0.354521 -0.510127,-0.611752 -0.104707,-0.275207 -0.09117,-0.587463 -0.100764,-0.888124 -0.01644,-0.528033 -0.115943,-1.065074 -0.403166,-1.48399 -0.107167,-0.156284 -0.23885,-0.294394 -0.388831,-0.40557 l -0.0016,-6.07e-4 -5.28e-4,-2.6e-5 c -0.09074,-0.01873 -0.18312,-0.03 -0.276182,-0.03373 z"
       id="rect16083-5-5-9-5"
       inkscape:connector-curvature="0"
       sodipodi:nodetypes="cccccccccccccccccccccccccccccccccccccccccccccccccscccccccsccccccccccccccccccccccccccccccccccccccccccccccccccccccccccccccccccccccccccccccccccccccccccccsssscaaccccccccccccccccccccccccccccccccccccccccccccccccccccccccccccccccccccccccccccccccccccccccsccccccccccsccssccccccccccccccccccccccccccccccccccccccccccccccccccccccccccccccccccccccccccccccccccccccccccccccccccccssssccccccccccccccccccccccccccccccccccccccccccccccccccccc" />
    <path
       sodipodi:nodetypes="ccccccccccccccccscccccccccccsccccccccsccc"
       inkscape:connector-curvature="0"
       style="fill-rule:evenodd;stroke:#000000;stroke-width:0.28222224;stroke-opacity:1"
       d="m 46.010982,114.22707 c 0.0012,-0.002 0.0023,-0.004 0.0033,-0.006 -8.91e-4,0.002 -0.0023,0.005 -0.0024,0.007 z m 0.0033,-0.006 c 0.52076,-1.28474 1.060718,-2.56298 1.619949,-3.83474 0.317997,-0.72309 0.643758,-1.44319 0.973446,-2.16154 -0.44099,0.12549 -0.886041,0.23232 -1.33322,0.31864 -0.681145,0.13186 -1.368041,0.21861 -2.054417,0.25962 0.785351,-0.37923 1.58033,-0.73444 2.383297,-1.06514 0.497635,-0.20499 0.998547,-0.40041 1.501823,-0.58648 0.710392,-1.51696 1.445108,-3.02333 2.199819,-4.51917 -0.562352,0.16636 -1.130699,0.30636 -1.702559,0.41703 -0.770438,0.14913 -1.547054,0.24751 -2.323818,0.29366 0.888364,-0.42878 1.787437,-0.83088 2.695412,-1.2049 0.652045,-0.2685 1.309136,-0.5217 1.969954,-0.76146 0.305102,-0.59376 0.612132,-1.18658 0.92296,-1.777114 0.699874,-1.329752 1.413947,-2.651526 2.141194,-3.964582 -0.630037,0.1944 -1.267872,0.355712 -1.910259,0.480092 -0.770437,0.149128 -1.547504,0.247281 -2.324268,0.293434 0.877186,-0.457029 1.778106,-0.859666 2.695863,-1.204676 0.713445,-0.268233 1.437801,-0.499698 2.168268,-0.697524 0.535536,-0.952952 1.077894,-1.902135 1.6281,-2.846551 -0.423268,1.007353 -0.854245,2.011231 -1.293703,3.013318 0.281658,0.702579 0.532133,1.420202 0.746949,2.151362 0.276594,0.940649 0.497019,1.902518 0.659731,2.878147 -0.430482,-0.648221 -0.819152,-1.32773 -1.16402,-2.033076 -0.287234,-0.587991 -0.542007,-1.194332 -0.765399,-1.814466 -0.611498,1.371394 -1.2381,2.736789 -1.878916,4.09538 -0.284754,0.603666 -0.573444,1.205506 -0.86419,1.806426 0.206227,0.67203 0.39928,1.34933 0.577015,2.03165 0.247754,0.95053 0.467729,1.91058 0.65973,2.87814 -0.430395,-0.64817 -0.819327,-1.32782 -1.164019,-2.03307 -0.255654,-0.52336 -0.485252,-1.06129 -0.690792,-1.61061 -0.740925,1.50319 -1.502455,2.99618 -2.286638,4.47586 0.154435,0.51408 0.299451,1.03163 0.435113,1.55245 0.21896,0.84035 0.413446,1.689 0.583131,2.54452 -0.380475,-0.57306 -0.724281,-1.17382 -1.028669,-1.79717 -0.199996,-0.40957 -0.382155,-0.8292 -0.547621,-1.25664 -0.37535,0.69559 -0.754569,1.38889 -1.140875,2.07806 -0.679161,1.21145 -1.375254,2.41193 -2.088371,3.60112 z"
       id="path13841-0-3-6-9" />
    <path
       sodipodi:nodetypes="ccccccccccccccccscccccccccccsccccccccsccc"
       inkscape:connector-curvature="0"
       style="fill-rule:evenodd;stroke:#000000;stroke-width:0.28222224;stroke-opacity:1"
       d="m 80.500677,68.275951 c -0.0021,-2.96e-4 -0.005,-7.74e-4 -0.007,-8.72e-4 0.0021,6.32e-4 0.0049,0.0013 0.0069,0.0019 z m -0.007,-8.72e-4 c -1.333151,-0.380086 -2.672988,-0.741041 -4.019564,-1.082808 -0.765665,-0.194296 -1.533737,-0.380635 -2.302851,-0.5628 0.370268,-0.270389 0.728343,-0.555463 1.071571,-0.854832 0.523091,-0.455763 1.014146,-0.943838 1.468844,-1.45963 -0.782206,0.385687 -1.551383,0.793752 -2.306181,1.223184 -0.467796,0.266119 -0.930082,0.540716 -1.386445,0.822916 -1.632893,-0.373501 -3.272394,-0.721323 -4.9159,-1.046898 0.477183,-0.340895 0.937264,-0.702752 1.376409,-1.085413 0.591642,-0.515528 1.14708,-1.067161 1.661449,-1.651042 -0.884645,0.436402 -1.754851,0.897657 -2.608399,1.38321 -0.612893,0.348752 -1.21683,0.710892 -1.812446,1.084249 -0.655779,-0.124875 -1.311999,-0.247659 -1.968765,-0.366037 -1.47885,-0.266598 -2.960131,-0.517091 -4.442668,-0.751835 0.540943,-0.377008 1.060586,-0.780513 1.55393,-1.210338 0.591639,-0.515527 1.147183,-1.067645 1.661552,-1.651529 -0.90004,0.4102 -1.771804,0.872584 -2.608502,1.383703 -0.650459,0.397316 -1.278651,0.825852 -1.884087,1.279908 -1.080705,-0.164271 -2.162641,-0.320844 -3.245656,-0.468295 1.054507,0.286239 2.111018,0.564271 3.171336,0.834508 0.380492,0.654348 0.792022,1.293382 1.236173,1.912634 0.571265,0.796858 1.193803,1.562498 1.862721,2.291112 -0.246061,-0.738206 -0.542513,-1.462718 -0.886285,-2.168597 -0.286729,-0.588235 -0.60789,-1.16218 -0.959255,-1.719864 1.457292,0.361877 2.919146,0.708163 4.384385,1.039055 0.651058,0.147014 1.303113,0.289801 1.955693,0.430409 0.402825,0.576092 0.817906,1.145038 1.246381,1.705017 0.596793,0.780203 1.218182,1.544371 1.862723,2.29111 -0.246076,-0.738107 -0.542471,-1.46291 -0.886284,-2.168595 -0.255223,-0.52358 -0.537963,-1.035577 -0.844481,-1.535624 1.640817,0.340973 3.286288,0.659418 4.935197,0.951814 0.310189,0.438081 0.628917,0.870864 0.955959,1.298291 0.527674,0.689706 1.076941,1.365236 1.646895,2.025438 -0.217595,-0.652542 -0.479575,-1.293235 -0.783637,-1.916753 -0.199769,-0.409668 -0.418444,-0.811485 -0.653551,-1.204938 0.779268,0.132168 1.559125,0.259875 2.340062,0.379455 1.372862,0.210122 2.747489,0.400158 4.123677,0.569815 z"
       id="path13841-0-3-56-1" />
    <path
       sodipodi:nodetypes="ccccccccccccccccscccccccccccsccccccccsccc"
       inkscape:connector-curvature="0"
       style="fill-rule:evenodd;stroke:#000000;stroke-width:0.28222224;stroke-opacity:1"
       d="m 52.726039,12.492306 c -9.01e-4,0.0022 -0.0013,0.0045 -0.0024,0.0069 0.0012,-0.002 0.0023,-0.0043 0.0033,-0.0064 z m -0.0024,0.0069 c -0.663795,1.217017 -1.310394,2.44476 -1.939764,3.683303 -0.35783,0.704236 -0.708415,1.412572 -1.055168,2.122849 -0.182398,-0.420649 -0.381804,-0.832623 -0.598417,-1.233245 -0.329652,-0.610468 -0.697862,-1.196792 -1.101117,-1.753734 0.204344,0.847848 0.433381,1.687904 0.686425,2.518629 0.156791,0.514845 0.323077,1.026177 0.498073,1.533409 -0.723242,1.510873 -1.422897,3.033841 -2.101728,4.565608 -0.227681,-0.540439 -0.479564,-1.068801 -0.756365,-1.581305 -0.372883,-0.690481 -0.788947,-1.353583 -1.245509,-1.983699 0.231303,0.958929 0.490021,1.909232 0.776107,2.84863 0.205522,0.674548 0.426076,1.343312 0.659401,2.006427 -0.265953,0.612295 -0.529958,1.225487 -0.789793,1.840172 -0.585099,1.3841 -1.15503,2.774111 -1.709866,4.168805 -0.248898,-0.610572 -0.528327,-1.206199 -0.83922,-1.781941 -0.372891,-0.690484 -0.789406,-1.353783 -1.24597,-1.983902 0.202366,0.96818 0.461837,1.92025 0.776569,2.848834 0.244639,0.721877 0.524638,1.428891 0.834527,2.119312 -0.397778,1.018181 -0.788309,2.039255 -1.17018,3.063373 0.510999,-0.965815 1.014429,-1.935382 1.511101,-2.910383 0.721972,-0.227372 1.435837,-0.488391 2.137557,-0.785583 0.902928,-0.382157 1.786672,-0.821202 2.644483,-1.31363 -0.774235,0.0778 -1.546185,0.207768 -2.310358,0.38799 -0.636869,0.150437 -1.267372,0.337609 -1.888642,0.557811 0.673317,-1.342126 1.332425,-2.692125 1.977263,-4.048815 0.286516,-0.602828 0.569117,-1.207556 0.849707,-1.813281 0.65054,-0.266358 1.296806,-0.546249 1.937261,-0.841171 0.892297,-0.410722 1.774349,-0.848974 2.644481,-1.313631 -0.774136,0.07784 -1.546368,0.20769 -2.310355,0.387994 -0.566875,0.133906 -1.128495,0.297206 -1.683684,0.486329 0.693265,-1.525763 1.365568,-3.061008 2.013208,-4.605332 0.495551,-0.206323 0.9878,-0.422137 1.476654,-0.647245 0.788821,-0.363188 1.568546,-0.750559 2.337873,-1.16147 -0.684407,0.06885 -1.367015,0.183619 -2.042119,0.343202 -0.443552,0.104846 -0.88361,0.229865 -1.319118,0.372747 0.300212,-0.731163 0.596196,-1.463883 0.884488,-2.199445 0.506707,-1.293108 0.994219,-2.59236 1.462195,-3.897612 z"
       id="path13841-0-3-5-6" />
    <path
       sodipodi:nodetypes="ccccccccccccccccscccccccccccsccccccccsccc"
       inkscape:connector-curvature="0"
       style="fill-rule:evenodd;stroke:#000000;stroke-width:0.28222221;stroke-opacity:1"
       d="m 9.4693079,25.003986 c 0.00192,0.0017 0.00483,0.0036 0.00675,0.0053 -0.0019,-0.002 -0.0038,-0.0041 -0.0057,-0.0063 z m 0.00675,0.0053 c 1.0955806,1.191307 2.2094776,2.36764 3.3417906,3.528986 0.643847,0.660308 1.294949,1.314157 1.949637,1.964494 -0.53352,0.04344 -1.063859,0.108936 -1.588111,0.197726 -0.798699,0.134826 -1.585208,0.321356 -2.352414,0.557655 1.013954,0.09293 2.02858,0.155645 3.041926,0.188317 0.628011,0.02028 1.255711,0.02875 1.882146,0.02604 1.398027,1.367512 2.818286,2.713491 4.256103,4.039762 -0.682956,0.04845 -1.361661,0.128199 -2.032208,0.241434 -0.903393,0.15253 -1.792763,0.363081 -2.660899,0.630789 1.146876,0.104905 2.294528,0.176257 3.440411,0.213271 0.822852,0.02648 1.644964,0.03415 2.465629,0.0256 0.576769,0.524186 1.155258,1.046558 1.736971,1.564874 1.309842,1.167155 2.631922,2.319755 3.964857,3.457439 -0.768456,0.04554 -1.531865,0.130429 -2.285123,0.257572 -0.903393,0.152531 -1.793154,0.363508 -2.661291,0.631219 1.146217,0.140375 2.2961,0.211556 3.440803,0.21284 0.88987,0.001 1.776605,-0.04261 2.656247,-0.125531 0.975838,0.82251 1.957579,1.638098 2.945951,2.445264 -0.875376,-0.927967 -1.757739,-1.848983 -2.648662,-2.764564 0.02013,-0.8835 9.6e-5,-1.770673 -0.06457,-2.658043 -0.08289,-1.14171 -0.235874,-2.283605 -0.457618,-3.416911 -0.205119,0.885023 -0.351726,1.787138 -0.439857,2.69955 -0.07317,0.760506 -0.103414,1.527777 -0.09362,2.29727 -1.230271,-1.248871 -2.474594,-2.484996 -3.731682,-3.707865 -0.558577,-0.543355 -1.120725,-1.083099 -1.684726,-1.621004 -0.0498,-0.8192 -0.116159,-1.638762 -0.201325,-2.457557 -0.118468,-1.140693 -0.271213,-2.280422 -0.457618,-3.416905 -0.205045,0.884932 -0.351885,1.787308 -0.439857,2.699548 -0.06516,0.676919 -0.09584,1.359082 -0.0953,2.043858 -1.425751,-1.339962 -2.869864,-2.66033 -4.33328,-3.956855 -0.0417,-0.625308 -0.09517,-1.250547 -0.160177,-1.875522 -0.104833,-1.008447 -0.239809,-2.015945 -0.404721,-3.020794 -0.181238,0.782372 -0.311054,1.580017 -0.388506,2.386214 -0.05093,0.529688 -0.07821,1.06309 -0.08444,1.598162 -0.695274,-0.606745 -1.393852,-1.209403 -2.098472,-1.80463 -1.238731,-1.046295 -2.491487,-2.073672 -3.7582267,-3.081712 z"
       id="path13841-0-6" />
    <path
       style="fill:#009900;stroke:#000000;stroke-width:1.32291663;stroke-linecap:round;stroke-linejoin:round;stroke-miterlimit:4;stroke-dasharray:none;stroke-opacity:1;fill-opacity:1"
       d="m 78.995022,89.213224 c -0.444353,-0.154813 -0.92954,-0.181771 -1.392752,-0.099 -0.463212,0.08277 -0.904473,0.273304 -1.295382,0.535232 -0.78182,0.523856 -1.349528,1.318458 -1.758133,2.166225 -0.746314,1.548441 -1.0042,3.327957 -0.728155,5.024557 0.276046,1.696601 1.084768,3.302571 2.283471,4.534551 2.607443,-1.59528 4.450342,-4.384817 4.894783,-7.409078 0.135762,-0.923808 0.14391,-1.887055 -0.161498,-2.769425 -0.152705,-0.441186 -0.383713,-0.85757 -0.695566,-1.205004 -0.311853,-0.347434 -0.705894,-0.624458 -1.146768,-0.778059 z"
       id="path6771"
       inkscape:connector-curvature="0"
       inkscape:path-effect="#path-effect6773"
       inkscape:original-d="m 78.995022,89.213224 c -1.62952,-0.542019 -3.714837,1.048711 -4.446267,2.602458 -1.374981,2.920814 1.555316,9.559108 1.555316,9.559108 0,0 4.621665,-4.461725 4.894783,-7.409078 0.158633,-1.711887 -0.37249,-4.209863 -2.003832,-4.752488 z"
       sodipodi:nodetypes="aacaa" />
  </g>
</svg>
