<?xml version="1.0" encoding="UTF-8" standalone="no"?>
<!-- Created with Inkscape (http://www.inkscape.org/) -->

<svg
   xmlns:dc="http://purl.org/dc/elements/1.1/"
   xmlns:cc="http://creativecommons.org/ns#"
   xmlns:rdf="http://www.w3.org/1999/02/22-rdf-syntax-ns#"
   xmlns:svg="http://www.w3.org/2000/svg"
   xmlns="http://www.w3.org/2000/svg"
   xmlns:sodipodi="http://sodipodi.sourceforge.net/DTD/sodipodi-0.dtd"
   xmlns:inkscape="http://www.inkscape.org/namespaces/inkscape"
   width="144.69864mm"
   height="158.41301mm"
   viewBox="0 0 144.69864 158.41301"
   version="1.1"
   id="svg865"
   inkscape:version="0.92.5 (2060ec1f9f, 2020-04-08)"
   sodipodi:docname="DEU Klingenmünster COA.svg">
  <defs
     id="defs859">
    <inkscape:path-effect
       effect="spiro"
       id="path-effect3763"
       is_visible="true" />
    <inkscape:path-effect
       effect="spiro"
       id="path-effect3709"
       is_visible="true" />
    <inkscape:path-effect
       effect="spiro"
       id="path-effect3660"
       is_visible="true" />
    <inkscape:path-effect
       effect="spiro"
       id="path-effect3542"
       is_visible="true" />
    <inkscape:path-effect
       effect="spiro"
       id="path-effect3518"
       is_visible="true" />
    <inkscape:path-effect
       effect="spiro"
       id="path-effect3644"
       is_visible="true" />
    <inkscape:path-effect
       effect="spiro"
       id="path-effect3636"
       is_visible="true" />
    <inkscape:path-effect
       effect="spiro"
       id="path-effect3544"
       is_visible="true" />
    <inkscape:path-effect
       effect="spiro"
       id="path-effect3466"
       is_visible="true" />
    <inkscape:path-effect
       effect="spiro"
       id="path-effect3544-2"
       is_visible="true" />
    <inkscape:path-effect
       effect="spiro"
       id="path-effect3644-8"
       is_visible="true" />
    <inkscape:path-effect
       effect="spiro"
       id="path-effect3644-3"
       is_visible="true" />
    <inkscape:path-effect
       effect="spiro"
       id="path-effect3636-0"
       is_visible="true" />
    <inkscape:path-effect
       effect="spiro"
       id="path-effect1727-0-1"
       is_visible="true" />
    <inkscape:path-effect
       effect="spiro"
       id="path-effect1731-8-3"
       is_visible="true" />
    <inkscape:path-effect
       effect="spiro"
       id="path-effect1727-3"
       is_visible="true" />
    <inkscape:path-effect
       effect="spiro"
       id="path-effect1731-7"
       is_visible="true" />
    <inkscape:path-effect
       effect="spiro"
       id="path-effect841-8"
       is_visible="true" />
    <inkscape:path-effect
       effect="spiro"
       id="path-effect3518-3"
       is_visible="true" />
    <inkscape:path-effect
       effect="spiro"
       id="path-effect3542-9"
       is_visible="true" />
    <inkscape:path-effect
       effect="spiro"
       id="path-effect3709-2"
       is_visible="true" />
    <inkscape:path-effect
       effect="spiro"
       id="path-effect3763-8"
       is_visible="true" />
  </defs>
  <sodipodi:namedview
     id="base"
     pagecolor="#ffffff"
     bordercolor="#666666"
     borderopacity="1.0"
     inkscape:pageopacity="0.0"
     inkscape:pageshadow="2"
     inkscape:zoom="1.3244783"
     inkscape:cx="273.44625"
     inkscape:cy="299.36318"
     inkscape:document-units="mm"
     inkscape:current-layer="layer1"
     showgrid="false"
     inkscape:window-width="1920"
     inkscape:window-height="1046"
     inkscape:window-x="-11"
     inkscape:window-y="-11"
     inkscape:window-maximized="1"
     fit-margin-top="0"
     fit-margin-left="0"
     fit-margin-right="0"
     fit-margin-bottom="0"
     inkscape:snap-global="true"
     inkscape:snap-midpoints="true"
     inkscape:snap-smooth-nodes="true"
     inkscape:snap-center="true"
     inkscape:snap-object-midpoints="true" />
  <metadata
     id="metadata862">
    <rdf:RDF>
      <cc:Work
         rdf:about="">
        <dc:format>image/svg+xml</dc:format>
        <dc:type
           rdf:resource="http://purl.org/dc/dcmitype/StillImage" />
        <dc:title></dc:title>
      </cc:Work>
    </rdf:RDF>
  </metadata>
  <g
     inkscape:label="Ebene 1"
     inkscape:groupmode="layer"
     id="layer1"
     transform="translate(2.6146028,175.33392)">
    <path
       d="m -1.5562764,-174.27559 6.39829,96.48645 c 1.06327,30.331786 30.4203904,59.789833 64.8924814,59.809891 34.449985,-0.0326 63.815295,-29.498187 64.892475,-59.809891 l 6.39874,-96.48645 H 69.735159 Z"
       id="path1193-3-5-7-3"
       inkscape:connector-curvature="0"
       style="fill:#ffd700;fill-opacity:1;fill-rule:evenodd;stroke:none;stroke-width:2.11666656;stroke-linecap:round;stroke-linejoin:round;stroke-miterlimit:4;stroke-dasharray:none;stroke-opacity:1"
       sodipodi:nodetypes="ccccccc" />
    <path
       d="m -1.5562768,-174.27559 6.3982899,96.486449 c 1.06327,30.331787 30.4203899,59.789834 64.8924809,59.809892 34.449986,-0.0326 63.815296,-29.498187 64.892476,-59.809892 l 6.39874,-96.486449 H 69.735158 Z"
       id="path1193-3-5-7"
       inkscape:connector-curvature="0"
       style="fill:none;fill-rule:evenodd;stroke:#000000;stroke-width:2.11666656;stroke-linecap:round;stroke-linejoin:round;stroke-miterlimit:4;stroke-dasharray:none;stroke-opacity:1"
       sodipodi:nodetypes="ccccccc" />
    <path
       style="opacity:1;fill:#000000;fill-opacity:1;fill-rule:evenodd;stroke:#000000;stroke-width:0.79375;stroke-linecap:round;stroke-linejoin:round;stroke-miterlimit:4;stroke-dasharray:none;stroke-opacity:1;paint-order:fill markers stroke"
       d="m 34.357032,-158.15512 c -6.211311,-0.0647 -12.525272,1.9931 -17.130221,6.16189 -5.362191,4.8543 -8.0416659,12.2392 -8.0723761,19.4722 -0.0224,5.28794 1.3032711,10.62672 4.1284311,15.09675 1.327481,2.10038 2.975367,3.99804 4.868437,5.60741 l 5.730398,-5.6689 c -1.8298,-1.64876 -3.344198,-3.64654 -4.436938,-5.85391 -1.496499,-3.02301 -2.192067,-6.42608 -2.095479,-9.79785 0.125072,-4.36538 1.636641,-8.76681 4.62194,-11.95431 2.932851,-3.13149 7.175262,-4.93268 11.461832,-5.11442 4.62012,-0.19587 9.182127,1.40481 13.125297,3.82044 6.577988,4.02978 11.609054,10.28064 15.03526,17.19224 1.379646,2.78313 2.519354,5.68898 3.327445,8.68835 0.181363,0.67318 0.342741,1.35158 0.490407,2.03296 v 75.481175 H 45.8261 v 8.646501 h 19.585365 8.646502 19.584852 v -8.646501 H 74.057967 v -75.483765 c 0.147523,-0.6805 0.309271,-1.35804 0.49041,-2.03037 0.808091,-2.99937 1.947794,-5.90522 3.327445,-8.68835 3.426203,-6.9116 8.457269,-13.16246 15.035257,-17.19224 3.943162,-2.41563 8.505181,-4.01631 13.125301,-3.82044 4.28657,0.18174 8.52847,1.98293 11.46131,5.11442 2.98531,3.1875 4.49688,7.58893 4.62194,11.95431 0.0966,3.37177 -0.59897,6.77484 -2.09548,9.79785 -1.09273,2.20737 -2.60662,4.20515 -4.43642,5.85391 l 5.7304,5.6689 c 1.89307,-1.60937 3.54095,-3.50703 4.86844,-5.60741 2.82516,-4.47003 4.15088,-9.80881 4.12843,-15.09675 -0.0307,-7.233 -2.7102,-14.6179 -8.07238,-19.4722 -4.60495,-4.16879 -10.91892,-6.22656 -17.13022,-6.16189 -7.15174,0.0745 -14.154853,2.85468 -19.780702,7.27087 -4.868307,3.82154 -8.722402,8.78689 -12.0773,13.98778 -1.234411,1.91363 -2.408484,3.86619 -3.519681,5.8539 -1.111199,-1.98771 -2.285269,-3.94027 -3.519683,-5.8539 -3.354893,-5.20089 -7.208991,-10.16624 -12.077298,-13.98778 -5.625848,-4.41619 -12.628964,-7.19641 -19.780704,-7.27087 z"
       id="rect3498"
       inkscape:connector-curvature="0" />
    <path
       style="fill:#ff0000;stroke:#000000;stroke-width:0.79374999;stroke-linecap:round;stroke-linejoin:round;stroke-miterlimit:4;stroke-dasharray:none;stroke-opacity:1;fill-opacity:1"
       d="m 63.980287,-170.00401 c 0.28433,0.26973 0.555255,0.55397 0.810803,0.85111 0.32331,0.37592 0.623525,0.77516 0.850595,1.21594 0.228069,0.44273 0.379252,0.92491 0.44545,1.41852 v 6.3407 h -6.340697 c -0.493604,-0.0662 -0.975788,-0.21789 -1.418518,-0.44597 -0.440775,-0.22706 -0.840029,-0.52729 -1.215946,-0.85059 -0.297138,-0.25555 -0.581382,-0.52648 -0.851112,-0.8108 v 5.75468 5.75469 c 0.26973,-0.28433 0.553974,-0.55525 0.851112,-0.8108 0.375917,-0.32331 0.775171,-0.62353 1.215946,-0.8506 0.44273,-0.22807 0.924914,-0.37976 1.418518,-0.44596 h 6.340697 v 6.34069 c -0.0662,0.49361 -0.217381,0.97579 -0.44545,1.41852 -0.22707,0.44078 -0.527285,0.84054 -0.850595,1.21646 -0.255548,0.29714 -0.526473,0.58139 -0.810803,0.85112 h 5.754688 5.754171 c -0.284321,-0.26973 -0.554736,-0.55398 -0.810286,-0.85112 -0.3233,-0.37592 -0.623536,-0.77568 -0.850596,-1.21646 -0.228079,-0.44273 -0.379767,-0.92491 -0.445966,-1.41852 v -6.34069 h 6.340697 c 0.493604,0.0662 0.975789,0.21789 1.418519,0.44596 0.440775,0.22707 0.840028,0.52729 1.215946,0.8506 0.297137,0.25555 0.581382,0.52647 0.851111,0.8108 v -5.75469 -5.75468 c -0.269729,0.28432 -0.553974,0.55525 -0.851111,0.8108 -0.375918,0.3233 -0.775171,0.62353 -1.215946,0.85059 -0.44273,0.22808 -0.924915,0.37977 -1.418519,0.44597 h -6.340697 v -6.3407 c 0.0662,-0.49361 0.217887,-0.97579 0.445966,-1.41852 0.22706,-0.44078 0.527296,-0.84002 0.850596,-1.21594 0.25555,-0.29714 0.525965,-0.58138 0.810286,-0.85111 h -5.754171 z"
       id="path3540"
       inkscape:connector-curvature="0" />
    <path
       style="opacity:1;fill:#ff0000;fill-opacity:1;fill-rule:evenodd;stroke:#000000;stroke-width:3.00000004;stroke-linecap:round;stroke-linejoin:round;stroke-miterlimit:4;stroke-dasharray:none;stroke-opacity:1;paint-order:fill markers stroke"
       d="M 273.44531 129.15039 A 47.45486 47.45486 0 0 0 252.5918 134.04297 C 254.71134 137.06009 256.76989 140.11872 258.78516 143.19922 A 36.527988 36.527988 0 0 1 273.44531 140.07812 A 36.527988 36.527988 0 0 1 288.11914 143.17773 C 290.13532 140.0963 292.19584 137.03748 294.31641 134.01953 A 47.45486 47.45486 0 0 0 273.44531 129.15039 z M 231.37891 154.6875 A 47.45486 47.45486 0 0 0 225.99023 176.60547 A 47.45486 47.45486 0 0 0 273.44531 224.06055 A 47.45486 47.45486 0 0 0 320.90039 176.60547 A 47.45486 47.45486 0 0 0 315.50195 154.70312 C 313.01205 158.48729 310.67348 162.36888 308.47266 166.32422 A 36.527988 36.527988 0 0 1 309.97266 176.60547 A 36.527988 36.527988 0 0 1 273.44531 213.13281 A 36.527988 36.527988 0 0 1 236.91797 176.60547 A 36.527988 36.527988 0 0 1 238.41797 166.32617 C 236.21392 162.36496 233.87289 158.47701 231.37891 154.6875 z "
       transform="matrix(0.26458333,0,0,0.26458333,-2.6146028,-175.33392)"
       id="path3604-1" />
    <path
       style="fill:#ff0000;fill-opacity:1;stroke:#000000;stroke-width:3;stroke-linecap:round;stroke-linejoin:round;stroke-miterlimit:4;stroke-dasharray:none;stroke-opacity:1"
       d="M 231.38672 225.58984 L 139.625 229.65039 L 139.625 243.27344 C 139.60194 245.78452 138.69075 248.27782 137.08789 250.21094 C 135.39589 252.25158 132.88332 253.66539 130.23438 253.76562 C 128.68366 253.82421 127.12334 253.43828 125.75977 252.69727 C 124.3962 251.9564 123.22979 250.86488 122.36523 249.57617 C 121.22471 247.87614 120.62264 245.88175 120.03125 243.92188 C 119.43987 241.962 118.82608 239.96934 117.66797 238.28125 C 116.80057 237.01688 115.63192 235.94986 114.26172 235.26172 C 112.89152 234.57354 111.31898 234.27223 109.79883 234.47266 C 109.00837 234.57697 108.23122 234.81811 107.54297 235.2207 C 106.85472 235.62319 106.25846 236.19118 105.86523 236.88477 C 105.53018 237.47573 105.34669 238.15736 105.37891 238.83594 C 105.41103 239.51448 105.66506 240.18811 106.11914 240.69336 C 106.61083 241.24041 107.30031 241.56482 107.99219 241.81445 C 108.68406 242.0639 109.40148 242.25381 110.05273 242.5957 C 110.90688 243.04411 111.61689 243.74315 112.15625 244.54297 C 112.69562 245.34279 113.07166 246.2434 113.35352 247.16602 C 114.09541 249.59448 114.20571 252.21631 115.25781 254.52734 C 116.05341 256.275 117.36181 257.7606 118.89844 258.91211 C 120.43508 260.06362 122.1946 260.89281 124.01367 261.50781 C 127.82134 262.79512 132.09305 263.14389 135.81836 261.63477 C 138.92104 260.37785 141.42074 257.92793 143.30664 255.16211 C 145.13359 252.48276 146.4577 249.45332 147.11328 246.27734 C 147.29273 245.40801 147.4055 244.52669 147.48438 243.64258 L 227.70508 247.41992 L 231.38672 225.58984 z M 315.50586 225.58984 L 319.1875 247.41992 L 399.4082 243.64258 C 399.4872 244.52672 399.59977 245.40801 399.7793 246.27734 C 400.43489 249.45332 401.75899 252.48273 403.58594 255.16211 C 405.47185 257.92793 407.97153 260.37781 411.07422 261.63477 C 414.79955 263.14389 419.07126 262.79516 422.87891 261.50781 C 424.69799 260.89285 426.4575 260.06362 427.99414 258.91211 C 429.53078 257.76056 430.83918 256.27496 431.63477 254.52734 C 432.68687 252.21628 432.79718 249.59448 433.53906 247.16602 C 433.82094 246.2434 434.19695 245.34279 434.73633 244.54297 C 435.2757 243.74315 435.98567 243.04407 436.83984 242.5957 C 437.49109 242.25381 438.20851 242.0639 438.90039 241.81445 C 439.59227 241.56482 440.28176 241.24041 440.77344 240.69336 C 441.22755 240.18811 441.47966 239.51448 441.51367 238.83594 C 441.54591 238.15736 441.36221 237.47569 441.02734 236.88477 C 440.63412 236.19118 440.03786 235.62322 439.34961 235.2207 C 438.66136 234.81811 437.8842 234.57697 437.09375 234.47266 C 435.57359 234.27227 434.00105 234.57354 432.63086 235.26172 C 431.26067 235.94986 430.09201 237.01692 429.22461 238.28125 C 428.06652 239.96938 427.45271 241.962 426.86133 243.92188 C 426.26995 245.88175 425.66789 247.87614 424.52734 249.57617 C 423.66278 250.86488 422.49635 251.95644 421.13281 252.69727 C 419.76923 253.43832 418.20891 253.82421 416.6582 253.76562 C 414.00925 253.66539 411.49671 252.25154 409.80469 250.21094 C 408.20183 248.27782 407.29026 245.78456 407.26758 243.27344 L 407.26758 229.65039 L 315.50586 225.58984 z "
       transform="matrix(0.26458333,0,0,0.26458333,-2.6146028,-175.33392)"
       id="path3656" />
    <path
       style="fill:#ff0000;fill-opacity:1;stroke:#000000;stroke-width:3;stroke-linecap:round;stroke-linejoin:round;stroke-miterlimit:4;stroke-dasharray:none;stroke-opacity:1"
       d="M 203.21094 223.17773 L 225.92969 236.50391 L 202.95703 249.32227 L 273.44531 249.20508 L 343.93555 249.32227 L 320.96289 236.50391 L 343.68164 223.17773 L 273.44531 223.4082 L 203.21094 223.17773 z "
       transform="matrix(0.26458333,0,0,0.26458333,-2.6146028,-175.33392)"
       id="path3665" />
    <path
       style="fill:#ff0000;stroke:#000000;stroke-width:0.79374999;stroke-linecap:round;stroke-linejoin:round;stroke-miterlimit:4;stroke-dasharray:none;stroke-opacity:1;fill-opacity:1"
       d="m 69.734718,-121.77957 c -1.010806,1.83166 -2.171935,3.58071 -3.468005,5.22294 -1.032833,1.30868 -2.151083,2.5499 -3.345532,3.71295 1.194449,1.16305 2.312699,2.40427 3.345532,3.71295 1.29607,1.64223 2.457199,3.39128 3.468005,5.22294 1.010806,-1.83166 2.171935,-3.58071 3.468005,-5.22294 1.032835,-1.30868 2.151086,-2.5499 3.345532,-3.71295 -1.194449,-1.16305 -2.312697,-2.40427 -3.345532,-3.71295 -1.29607,-1.64223 -2.457199,-3.39128 -3.468005,-5.22294 z"
       id="path3707"
       inkscape:connector-curvature="0" />
    <path
       inkscape:connector-curvature="0"
       style="fill:#ff0000;stroke:#000000;stroke-width:0.79374999;stroke-linecap:round;stroke-linejoin:round;stroke-miterlimit:4;stroke-dasharray:none;stroke-opacity:1;fill-opacity:1"
       d="m 69.734718,-118.14338 c -0.594041,1.08633 -1.276425,2.12365 -2.038113,3.09763 -0.606986,0.77614 -1.264172,1.51229 -1.966137,2.20208 0.701965,0.68977 1.359151,1.42592 1.966137,2.20206 0.761688,0.97398 1.444072,2.01131 2.038113,3.09763 0.594041,-1.08632 1.276425,-2.12365 2.038113,-3.09763 0.606988,-0.77614 1.264172,-1.51229 1.966137,-2.20206 -0.701966,-0.68979 -1.359149,-1.42594 -1.966137,-2.20208 -0.761688,-0.97398 -1.444072,-2.0113 -2.038113,-3.09763 z"
       id="path3707-7" />
    <path
       inkscape:connector-curvature="0"
       style="fill:#ff0000;stroke:#000000;stroke-width:0.26458332;stroke-linecap:round;stroke-linejoin:round;stroke-miterlimit:4;stroke-dasharray:none;stroke-opacity:1;fill-opacity:1"
       d="m 69.73472,-104.43696 c -0.679241,0.77921 -1.394863,1.52642 -2.144054,2.23863 -0.451054,0.42878 -0.914543,0.8448 -1.389063,1.24747 0.593836,1.015873 1.166733,2.044063 1.718242,3.083529 0.633359,1.193741 1.238662,2.40275 1.814875,3.625101 0.576212,-1.222351 1.181518,-2.43136 1.814877,-3.625101 0.551506,-1.039466 1.124405,-2.067656 1.718241,-3.083529 -0.474522,-0.40267 -0.938008,-0.81869 -1.389062,-1.24747 -0.749194,-0.71221 -1.464813,-1.45942 -2.144056,-2.23863 z"
       id="path3761" />
    <rect
       style="opacity:1;fill:#ff0000;fill-opacity:1;fill-rule:evenodd;stroke:#000000;stroke-width:0.79375005;stroke-linecap:round;stroke-linejoin:round;stroke-miterlimit:4;stroke-dasharray:none;stroke-opacity:1;paint-order:fill markers stroke"
       id="rect3792-9-8"
       width="1.6015993"
       height="31.723982"
       x="-12.968543"
       y="-105.66056"
       ry="0.98559964"
       rx="0.98559952"
       inkscape:transform-center-x="6.0934636"
       inkscape:transform-center-y="13.579056"
       transform="rotate(24.167677)" />
    <rect
       style="opacity:1;fill:#ff0000;fill-opacity:1;fill-rule:evenodd;stroke:#000000;stroke-width:0.79375005;stroke-linecap:round;stroke-linejoin:round;stroke-miterlimit:4;stroke-dasharray:none;stroke-opacity:1;paint-order:fill markers stroke"
       id="rect3792-9-8-5"
       width="1.6015993"
       height="31.72398"
       x="-70.914703"
       y="-79.657806"
       ry="0.98559964"
       rx="0.98559952"
       inkscape:transform-center-x="-6.093462"
       inkscape:transform-center-y="13.579053"
       transform="matrix(-0.91235123,0.40940839,0.40940839,0.91235123,0,0)" />
    <rect
       style="opacity:1;fill:#ff0000;fill-opacity:1;fill-rule:evenodd;stroke:#000000;stroke-width:0.79374999;stroke-linecap:round;stroke-linejoin:round;stroke-miterlimit:4;stroke-dasharray:none;stroke-opacity:1;paint-order:fill markers stroke"
       id="rect3792"
       width="1.6015993"
       height="8.4391966"
       x="30.9557"
       y="-111.35368"
       ry="0.98559958"
       rx="0.98559952" />
    <path
       style="opacity:1;fill:#ff0000;fill-opacity:1;fill-rule:evenodd;stroke:#000000;stroke-width:0.79374993;stroke-linecap:round;stroke-linejoin:round;stroke-miterlimit:4;stroke-dasharray:none;stroke-opacity:1;paint-order:fill markers stroke"
       d="m 18.451107,-73.339631 a 13.30559,13.052496 0 0 0 13.30513,13.052435 13.30559,13.052496 0 0 0 13.30565,-13.052435 z"
       id="path3798"
       inkscape:connector-curvature="0" />
    <ellipse
       style="opacity:1;fill:#ff0000;fill-opacity:1;fill-rule:evenodd;stroke:#000000;stroke-width:0.79374999;stroke-linecap:round;stroke-linejoin:round;stroke-miterlimit:4;stroke-dasharray:none;stroke-opacity:1;paint-order:fill markers stroke"
       id="path3796"
       cx="31.756496"
       cy="-73.339798"
       rx="13.305594"
       ry="4.1821017" />
    <rect
       style="opacity:1;fill:#ff0000;fill-opacity:1;fill-rule:evenodd;stroke:#000000;stroke-width:0.79375005;stroke-linecap:round;stroke-linejoin:round;stroke-miterlimit:4;stroke-dasharray:none;stroke-opacity:1;paint-order:fill markers stroke"
       id="rect3792-9"
       width="1.6015993"
       height="32.955982"
       x="30.9557"
       y="-101.46687"
       ry="0.98559964"
       rx="0.98559952" />
    <circle
       style="opacity:1;fill:#ff0000;fill-opacity:1;fill-rule:evenodd;stroke:#000000;stroke-width:0.79374999;stroke-linecap:round;stroke-linejoin:round;stroke-miterlimit:4;stroke-dasharray:none;stroke-opacity:1;paint-order:fill markers stroke"
       id="path3794"
       cx="31.756496"
       cy="-102.5536"
       r="2.1031251" />
    <rect
       style="opacity:1;fill:#ff0000;fill-opacity:1;fill-rule:evenodd;stroke:#000000;stroke-width:0.79375005;stroke-linecap:round;stroke-linejoin:round;stroke-miterlimit:4;stroke-dasharray:none;stroke-opacity:1;paint-order:fill markers stroke"
       id="rect3792-9-8-7"
       width="1.6015993"
       height="31.723982"
       x="-140.21364"
       y="-48.560604"
       ry="0.98559964"
       rx="0.98559952"
       inkscape:transform-center-x="6.0934636"
       inkscape:transform-center-y="13.579056"
       transform="matrix(-0.91235123,0.4094084,0.4094084,0.91235123,0,0)" />
    <rect
       style="opacity:1;fill:#ff0000;fill-opacity:1;fill-rule:evenodd;stroke:#000000;stroke-width:0.79375005;stroke-linecap:round;stroke-linejoin:round;stroke-miterlimit:4;stroke-dasharray:none;stroke-opacity:1;paint-order:fill markers stroke"
       id="rect3792-9-8-5-3"
       width="1.6015993"
       height="31.72398"
       x="56.330406"
       y="-136.75775"
       ry="0.98559964"
       rx="0.98559952"
       inkscape:transform-center-x="-6.093462"
       inkscape:transform-center-y="13.579053"
       transform="rotate(24.167676)" />
    <rect
       style="opacity:1;fill:#ff0000;fill-opacity:1;fill-rule:evenodd;stroke:#000000;stroke-width:0.79374999;stroke-linecap:round;stroke-linejoin:round;stroke-miterlimit:4;stroke-dasharray:none;stroke-opacity:1;paint-order:fill markers stroke"
       id="rect3792-1"
       width="1.6015993"
       height="8.4391966"
       x="-108.51373"
       y="-111.35368"
       ry="0.98559958"
       rx="0.98559952"
       transform="scale(-1,1)" />
    <path
       style="opacity:1;fill:#ff0000;fill-opacity:1;fill-rule:evenodd;stroke:#000000;stroke-width:0.79374993;stroke-linecap:round;stroke-linejoin:round;stroke-miterlimit:4;stroke-dasharray:none;stroke-opacity:1;paint-order:fill markers stroke"
       d="M 121.01832,-73.339631 A 13.30559,13.052496 0 0 1 107.71319,-60.287196 13.30559,13.052496 0 0 1 94.407543,-73.339631 Z"
       id="path3798-9"
       inkscape:connector-curvature="0" />
    <ellipse
       style="opacity:1;fill:#ff0000;fill-opacity:1;fill-rule:evenodd;stroke:#000000;stroke-width:0.79374999;stroke-linecap:round;stroke-linejoin:round;stroke-miterlimit:4;stroke-dasharray:none;stroke-opacity:1;paint-order:fill markers stroke"
       id="path3796-6"
       cx="-107.71294"
       cy="-73.339798"
       rx="13.305594"
       ry="4.1821017"
       transform="scale(-1,1)" />
    <rect
       style="opacity:1;fill:#ff0000;fill-opacity:1;fill-rule:evenodd;stroke:#000000;stroke-width:0.79375005;stroke-linecap:round;stroke-linejoin:round;stroke-miterlimit:4;stroke-dasharray:none;stroke-opacity:1;paint-order:fill markers stroke"
       id="rect3792-9-7"
       width="1.6015993"
       height="32.955982"
       x="-108.51373"
       y="-101.46687"
       ry="0.98559964"
       rx="0.98559952"
       transform="scale(-1,1)" />
    <circle
       style="opacity:1;fill:#ff0000;fill-opacity:1;fill-rule:evenodd;stroke:#000000;stroke-width:0.79374999;stroke-linecap:round;stroke-linejoin:round;stroke-miterlimit:4;stroke-dasharray:none;stroke-opacity:1;paint-order:fill markers stroke"
       id="path3794-0"
       cx="-107.71294"
       cy="-102.5536"
       r="2.1031251"
       transform="scale(-1,1)" />
  </g>
</svg>
