<?xml version="1.0" encoding="UTF-8" standalone="no"?>
<svg
   xmlns:dc="http://purl.org/dc/elements/1.1/"
   xmlns:cc="http://creativecommons.org/ns#"
   xmlns:rdf="http://www.w3.org/1999/02/22-rdf-syntax-ns#"
   xmlns:svg="http://www.w3.org/2000/svg"
   xmlns="http://www.w3.org/2000/svg"
   xmlns:sodipodi="http://sodipodi.sourceforge.net/DTD/sodipodi-0.dtd"
   xmlns:inkscape="http://www.inkscape.org/namespaces/inkscape"
   viewBox="0 0 963.61866 1067.6021"
   version="1.1"
   id="svg1038"
   sodipodi:docname="DEU_Klingenberg_COA.svg"
   inkscape:version="0.92.5 (2060ec1f9f, 2020-04-08)"
   width="963.61865"
   height="1067.6021">
  <metadata
     id="metadata1044">
    <rdf:RDF>
      <cc:Work
         rdf:about="">
        <dc:format>image/svg+xml</dc:format>
        <dc:type
           rdf:resource="http://purl.org/dc/dcmitype/StillImage" />
        <dc:title />
      </cc:Work>
    </rdf:RDF>
  </metadata>
  <defs
     id="defs1042">
    <inkscape:path-effect
       effect="spiro"
       id="path-effect875"
       is_visible="true" />
    <inkscape:path-effect
       effect="spiro"
       id="path-effect4391"
       is_visible="true" />
    <inkscape:path-effect
       effect="spiro"
       id="path-effect4391-9"
       is_visible="true" />
    <inkscape:path-effect
       effect="spiro"
       id="path-effect4391-1"
       is_visible="true" />
    <inkscape:path-effect
       effect="spiro"
       id="path-effect4391-1-3"
       is_visible="true" />
    <inkscape:path-effect
       effect="spiro"
       id="path-effect4391-1-38"
       is_visible="true" />
    <inkscape:path-effect
       effect="spiro"
       id="path-effect4391-1-38-9"
       is_visible="true" />
    <inkscape:path-effect
       effect="spiro"
       id="path-effect875-0"
       is_visible="true" />
    <inkscape:path-effect
       effect="spiro"
       id="path-effect875-1"
       is_visible="true" />
    <inkscape:path-effect
       effect="spiro"
       id="path-effect875-0-3"
       is_visible="true" />
    <inkscape:path-effect
       effect="spiro"
       id="path-effect875-7"
       is_visible="true" />
    <inkscape:path-effect
       effect="spiro"
       id="path-effect875-0-39"
       is_visible="true" />
    <inkscape:path-effect
       effect="spiro"
       id="path-effect875-1-1"
       is_visible="true" />
    <inkscape:path-effect
       effect="spiro"
       id="path-effect875-0-3-9"
       is_visible="true" />
    <inkscape:path-effect
       effect="spiro"
       id="path-effect875-7-0"
       is_visible="true" />
    <inkscape:path-effect
       effect="spiro"
       id="path-effect875-0-39-8"
       is_visible="true" />
    <inkscape:path-effect
       effect="spiro"
       id="path-effect875-1-1-7"
       is_visible="true" />
    <inkscape:path-effect
       effect="spiro"
       id="path-effect875-0-3-9-6"
       is_visible="true" />
  </defs>
  <sodipodi:namedview
     pagecolor="#ffffff"
     bordercolor="#666666"
     borderopacity="1"
     objecttolerance="10"
     gridtolerance="10"
     guidetolerance="10"
     inkscape:pageopacity="0"
     inkscape:pageshadow="2"
     inkscape:window-width="1920"
     inkscape:window-height="1046"
     id="namedview1040"
     showgrid="false"
     inkscape:zoom="0.74278613"
     inkscape:cx="481.80933"
     inkscape:cy="533.80102"
     inkscape:window-x="-11"
     inkscape:window-y="-11"
     inkscape:window-maximized="1"
     inkscape:current-layer="svg1038"
     inkscape:snap-global="true"
     fit-margin-top="0"
     fit-margin-left="0"
     fit-margin-right="0"
     fit-margin-bottom="0"
     inkscape:snap-midpoints="true"
     inkscape:snap-smooth-nodes="true"
     inkscape:object-paths="false" />
  <path
     style="fill:#ffffff;stroke:none;stroke-width:20;stroke-opacity:1"
     inkscape:connector-curvature="0"
     id="path976-4-1"
     d="m 786.57146,10.040216 c -25.74252,0.053 -50.1866,0.198 -69.64154,0.478 -77.81776,1.122 -154.14035,-0.214 -231.21053,0 -2.60966,0.007 -5.21834,0.036 -7.82801,0.043 -77.07017,0.214 -153.39276,1.122 -231.21052,0 -77.81776,-1.122001 -235.617332,0 -235.617332,0 0,0 4.9134,48.180001 6.67318,72.320001 3.0169,41.380013 4.18648,82.870013 6.67319,124.290013 3.34938,55.766 7.77292,111.49 11.1223,167.25 2.48769,41.41 3.84613,82.9 6.67318,124.29 4.27501,62.59 4.938,125.75 15.52814,187.56 5.92167,34.562 14.18249,68.979 26.69668,101.67 15.10418,39.473 32.926222,78.71 57.877872,112.63 17.98927,24.456 40.96769,45.03999 64.8078,63.61999 27.29377,21.272 57.01521,39.81598 88.46102,53.96798 33.2656,14.97 68.77493,25.08 104.5046,32.09 26.88751,5.278 54.44588,7.255 81.83112,7.349 27.21015,0.094 54.6426,-1.52 81.35895,-6.741 35.86444,-7.01 71.35508,-17.626 104.72101,-32.746 31.41237,-14.235 61.2135,-32.69598 88.51021,-53.96798 23.84405,-18.58 46.81755,-39.16999 64.8078,-63.61999 24.95067,-33.919 42.7737,-73.16 57.87788,-112.63 12.51026,-32.695 20.77502,-67.16 26.69668,-101.72 10.58621,-61.814 11.25313,-124.97 15.52814,-187.56 2.82705,-41.39 4.18647,-82.87 6.67318,-124.29 3.34938,-55.766 7.77292,-111.44 11.1223,-167.21 2.48769,-41.41 3.65629,-82.909 6.67319,-124.290013 1.76076,-24.14 6.67318,-72.320001 6.67318,-72.320001 0,0 -88.76595,-0.6360007 -165.97383,-0.478 z" />
  <path
     inkscape:connector-curvature="0"
     style="opacity:1;fill:#da121a;fill-opacity:1;fill-rule:evenodd;stroke:#000000;stroke-width:8;stroke-linecap:round;stroke-linejoin:round;stroke-miterlimit:4;stroke-dasharray:none;stroke-opacity:1;paint-order:fill markers stroke"
     d="M 481.80937,50.869141 A 315.1683,315.1683 0 0 0 166.6414,366.03906 315.1683,315.1683 0 0 0 481.80937,681.20703 315.1683,315.1683 0 0 0 796.97734,366.03906 315.1683,315.1683 0 0 0 481.80937,50.869141 Z m 0,81.652339 A 233.5166,233.5166 0 0 1 715.32695,366.03906 233.5166,233.5166 0 0 1 481.80937,599.55469 233.5166,233.5166 0 0 1 248.29374,366.03906 233.5166,233.5166 0 0 1 481.80937,132.52148 Z m 0,161.20899 a 72.307236,72.307236 0 0 0 -72.30664,72.30859 72.307236,72.307236 0 0 0 72.30664,72.30664 72.307236,72.307236 0 0 0 72.30664,-72.30664 72.307236,72.307236 0 0 0 -72.30664,-72.30859 z m 0,45.51172 a 26.79645,26.79645 0 0 1 26.79687,26.79687 26.79645,26.79645 0 0 1 -26.79687,26.79492 26.79645,26.79645 0 0 1 -26.79688,-26.79492 26.79645,26.79645 0 0 1 26.79688,-26.79687 z"
     id="path4488" />
  <path
     inkscape:connector-curvature="0"
     style="opacity:1;fill:#018a2c;fill-opacity:1;fill-rule:evenodd;stroke:#000000;stroke-width:8;stroke-linecap:round;stroke-linejoin:round;stroke-miterlimit:4;stroke-dasharray:none;stroke-opacity:1;paint-order:fill markers stroke"
     d="m 481.82986,700.55859 a 132.76262,132.76262 0 0 0 -129.79883,105.14063 132.76262,132.76262 0 0 0 -59.48438,-14.11328 132.76262,132.76262 0 0 0 -132.66797,130.125 c 14.39812,15.55851 30.61395,29.51045 47.25586,42.48047 27.29377,21.272 57.01513,39.81679 88.46094,53.96879 33.2656,14.97 68.77424,25.0798 104.50391,32.0898 26.88751,5.278 54.44679,7.2537 81.83203,7.3477 27.21015,0.094 54.64302,-1.5193 81.35937,-6.7403 35.86444,-7.01 71.35478,-17.6261 104.72071,-32.7461 31.41237,-14.235 61.21305,-32.69672 88.50976,-53.96872 16.63019,-12.95874 32.83085,-26.8995 47.21875,-42.44141 A 132.76262,132.76262 0 0 0 671.10915,791.58594 132.76262,132.76262 0 0 0 611.56032,805.85742 132.76262,132.76262 0 0 0 481.82986,700.55859 Z"
     id="path4345" />
  <path
     style="fill:none;stroke:#000000;stroke-width:8;stroke-linecap:round;stroke-linejoin:miter;stroke-miterlimit:4;stroke-dasharray:none;stroke-opacity:1"
     d="m -721.19788,811.25209 c 13.8846,-0.19881 27.80555,3.19654 40.03942,9.76571 10.96682,5.88881 20.56487,14.30815 27.83228,24.41429"
     id="path4389"
     inkscape:connector-curvature="0"
     inkscape:path-effect="#path-effect4391"
     inkscape:original-d="m -721.19788,811.25209 c 14.64957,4.39357 27.85192,3.42617 40.03942,9.76571 10.94835,5.69498 20.02071,17.41453 27.83228,24.41429"
     sodipodi:nodetypes="cac"
     transform="translate(1008.5447)" />
  <path
     transform="matrix(0.8803638,0.08977597,-0.08855195,0.86836076,1003.9622,203.6676)"
     style="fill:none;stroke:#000000;stroke-width:9.10253429;stroke-linecap:round;stroke-linejoin:miter;stroke-miterlimit:4;stroke-dasharray:none;stroke-opacity:1"
     d="m -721.19788,811.25209 c 13.8846,-0.19881 27.80555,3.19654 40.03942,9.76571 10.96682,5.88881 20.56487,14.30815 27.83228,24.41429"
     id="path4389-3"
     inkscape:connector-curvature="0"
     inkscape:path-effect="#path-effect4391-9"
     inkscape:original-d="m -721.19788,811.25209 c 14.64957,4.39357 27.85192,3.42617 40.03942,9.76571 10.94835,5.69498 20.02071,17.41453 27.83228,24.41429"
     sodipodi:nodetypes="cac" />
  <path
     transform="matrix(1.5597921,0.78782828,-0.78722155,1.5717721,2274.5209,19.478808)"
     style="fill:none;stroke:#000000;stroke-width:4.56447887;stroke-linecap:round;stroke-linejoin:miter;stroke-miterlimit:4;stroke-dasharray:none;stroke-opacity:1"
     d="m -721.19788,811.25209 c 13.8846,-0.19881 27.80555,3.19654 40.03942,9.76571 10.96682,5.88881 20.56487,14.30815 27.83228,24.41429"
     id="path4389-4"
     inkscape:connector-curvature="0"
     inkscape:path-effect="#path-effect4391-1"
     inkscape:original-d="m -721.19788,811.25209 c 14.64957,4.39357 27.85192,3.42617 40.03942,9.76571 10.94835,5.69498 20.02071,17.41453 27.83228,24.41429"
     sodipodi:nodetypes="cac" />
  <path
     transform="matrix(1.5597921,0.78782828,-0.78722155,1.5717721,2469.0909,112.68445)"
     style="fill:none;stroke:#000000;stroke-width:4.56447887;stroke-linecap:round;stroke-linejoin:miter;stroke-miterlimit:4;stroke-dasharray:none;stroke-opacity:1"
     d="m -721.19788,811.25209 c 13.8846,-0.19881 27.80555,3.19654 40.03942,9.76571 10.96682,5.88881 20.56487,14.30815 27.83228,24.41429"
     id="path4389-4-2"
     inkscape:connector-curvature="0"
     inkscape:path-effect="#path-effect4391-1-3"
     inkscape:original-d="m -721.19788,811.25209 c 14.64957,4.39357 27.85192,3.42617 40.03942,9.76571 10.94835,5.69498 20.02071,17.41453 27.83228,24.41429"
     sodipodi:nodetypes="cac" />
  <path
     transform="matrix(1.0670965,0.99206397,-0.99300356,1.0838978,2291.7798,679.74086)"
     style="fill:none;stroke:#000000;stroke-width:5.46645737;stroke-linecap:round;stroke-linejoin:miter;stroke-miterlimit:4;stroke-dasharray:none;stroke-opacity:1"
     d="m -721.19788,811.25209 c 13.8846,-0.19881 27.80555,3.19654 40.03942,9.76571 10.96682,5.88881 20.56487,14.30815 27.83228,24.41429"
     id="path4389-4-7"
     inkscape:connector-curvature="0"
     inkscape:path-effect="#path-effect4391-1-38"
     inkscape:original-d="m -721.19788,811.25209 c 14.64957,4.39357 27.85192,3.42617 40.03942,9.76571 10.94835,5.69498 20.02071,17.41453 27.83228,24.41429"
     sodipodi:nodetypes="cac" />
  <path
     transform="matrix(0.79649297,0.61798846,-0.57922805,0.84097554,1575.5653,528.10964)"
     style="fill:none;stroke:#000000;stroke-width:7.89111519;stroke-linecap:round;stroke-linejoin:miter;stroke-miterlimit:4;stroke-dasharray:none;stroke-opacity:1"
     d="m -721.19788,811.25209 c 13.8846,-0.19881 27.80555,3.19654 40.03942,9.76571 10.96682,5.88881 20.56487,14.30815 27.83228,24.41429"
     id="path4389-4-7-6"
     inkscape:connector-curvature="0"
     inkscape:path-effect="#path-effect4391-1-38-9"
     inkscape:original-d="m -721.19788,811.25209 c 14.64957,4.39357 27.85192,3.42617 40.03942,9.76571 10.94835,5.69498 20.02071,17.41453 27.83228,24.41429"
     sodipodi:nodetypes="cac" />
  <path
     style="fill:none;stroke:#000000;stroke-width:20;stroke-opacity:1"
     inkscape:connector-curvature="0"
     id="path976-4"
     d="m 786.5716,10.040231 c -25.74252,0.053 -50.1866,0.198 -69.64154,0.478 -77.81776,1.122 -154.14035,-0.214 -231.21053,0 -2.60966,0.007 -5.21834,0.036 -7.82801,0.043 -77.07017,0.214 -153.39276,1.122 -231.21052,0 -77.81776,-1.1220009 -235.617331,0 -235.617331,0 0,0 4.9134,48.180001 6.67318,72.320001 3.0169,41.380008 4.18648,82.870008 6.67319,124.290008 3.34938,55.766 7.77292,111.49 11.1223,167.25 2.48769,41.41 3.84613,82.9 6.67318,124.29 4.27501,62.59 4.938,125.75 15.52814,187.56 5.92167,34.562 14.18249,68.979 26.69668,101.67 15.104175,39.473 32.926221,78.71 57.877871,112.63 17.98927,24.456 40.96769,45.03999 64.8078,63.61999 27.29377,21.272 57.01521,39.81597 88.46102,53.96797 33.2656,14.97 68.77493,25.08 104.5046,32.09 26.88751,5.278 54.44588,7.255 81.83112,7.349 27.21015,0.094 54.6426,-1.52 81.35895,-6.741 35.86444,-7.01 71.35508,-17.626 104.72101,-32.746 31.41237,-14.235 61.2135,-32.69597 88.51021,-53.96797 23.84405,-18.58 46.81755,-39.16999 64.8078,-63.61999 24.95067,-33.919 42.7737,-73.16 57.87788,-112.63 12.51026,-32.695 20.77502,-67.16 26.69668,-101.72 10.58621,-61.814 11.25313,-124.97 15.52814,-187.56 2.82705,-41.39 4.18647,-82.87 6.67318,-124.29 3.34938,-55.766 7.77292,-111.44 11.1223,-167.21 2.48769,-41.41 3.65629,-82.909 6.67319,-124.290008 1.76076,-24.14 6.67318,-72.320001 6.67318,-72.320001 0,0 -88.76595,-0.6360009 -165.97383,-0.478 z" />
  <g
     id="g897"
     transform="translate(0,-4.4999999e-6)" />
  <path
     style="opacity:1;fill:none;fill-opacity:1;fill-rule:evenodd;stroke:#000000;stroke-width:8;stroke-linecap:round;stroke-linejoin:round;stroke-miterlimit:4;stroke-dasharray:none;stroke-opacity:1;paint-order:fill markers stroke"
     d="m 481.80937,87.172853 a 9.8160524,9.8160524 0 0 0 -9.81641,9.816406 9.8160524,9.8160524 0 0 0 9.81641,9.816411 9.8160524,9.8160524 0 0 0 9.81641,-9.816411 9.8160524,9.8160524 0 0 0 -9.81641,-9.816406 z m 0,538.099607 a 9.8160524,9.8160524 0 0 0 -9.81641,9.81641 9.8160524,9.8160524 0 0 0 9.81641,9.81445 9.8160524,9.8160524 0 0 0 9.81641,-9.81445 9.8160524,9.8160524 0 0 0 -9.81641,-9.81641 z"
     id="path4546"
     inkscape:connector-curvature="0" />
  <path
     style="opacity:1;fill:none;fill-opacity:1;fill-rule:evenodd;stroke:#000000;stroke-width:8;stroke-linecap:round;stroke-linejoin:round;stroke-miterlimit:4;stroke-dasharray:none;stroke-opacity:1;paint-order:fill markers stroke"
     d="m 723.31375,226.60547 a 9.8160524,9.8160524 0 0 0 -13.40946,-3.59306 9.8160524,9.8160524 0 0 0 -3.59306,13.40947 9.8160524,9.8160524 0 0 0 13.40947,3.59305 9.8160524,9.8160524 0 0 0 3.59305,-13.40946 z m -466.00793,269.0498 a 9.8160524,9.8160524 0 0 0 -13.40947,-3.59305 9.8160524,9.8160524 0 0 0 -3.59136,13.40848 9.8160524,9.8160524 0 0 0 13.40777,3.59404 9.8160524,9.8160524 0 0 0 3.59306,-13.40947 z"
     id="path4546-9"
     inkscape:connector-curvature="0" />
  <path
     style="opacity:1;fill:none;fill-opacity:1;fill-rule:evenodd;stroke:#000000;stroke-width:8;stroke-linecap:round;stroke-linejoin:round;stroke-miterlimit:4;stroke-dasharray:none;stroke-opacity:1;paint-order:fill markers stroke"
     d="m 240.30499,226.60546 a 9.8160524,9.8160524 0 0 1 13.40946,-3.59306 9.8160524,9.8160524 0 0 1 3.59306,13.40947 9.8160524,9.8160524 0 0 1 -13.40947,3.59305 9.8160524,9.8160524 0 0 1 -3.59305,-13.40946 z m 466.00793,269.0498 a 9.8160524,9.8160524 0 0 1 13.40946,-3.59305 9.8160524,9.8160524 0 0 1 3.59136,13.40848 9.8160524,9.8160524 0 0 1 -13.40776,3.59404 9.8160524,9.8160524 0 0 1 -3.59306,-13.40947 z"
     id="path4546-9-5"
     inkscape:connector-curvature="0" />
  <path
     style="fill:none;stroke:#000000;stroke-width:5;stroke-linecap:round;stroke-linejoin:miter;stroke-miterlimit:4;stroke-dasharray:none;stroke-opacity:1"
     d="m 166.71384,366.03809 h 79.69161"
     id="path4594"
     inkscape:connector-curvature="0" />
  <path
     style="fill:none;stroke:#000000;stroke-width:5;stroke-linecap:round;stroke-linejoin:miter;stroke-miterlimit:4;stroke-dasharray:none;stroke-opacity:1"
     d="M 639.35714,93.157341 599.51133,162.1723"
     id="path4594-3"
     inkscape:connector-curvature="0" />
  <path
     style="fill:none;stroke:#000000;stroke-width:5;stroke-linecap:round;stroke-linejoin:miter;stroke-miterlimit:4;stroke-dasharray:none;stroke-opacity:1"
     d="m 599.51133,569.90386 39.8458,69.01495"
     id="path4594-7-4-9"
     inkscape:connector-curvature="0" />
  <circle
     style="opacity:1;fill:none;fill-opacity:1;fill-rule:evenodd;stroke:#000000;stroke-width:4.99999905;stroke-linecap:round;stroke-linejoin:round;stroke-miterlimit:4;stroke-dasharray:none;stroke-opacity:1;paint-order:fill markers stroke"
     id="path871"
     cx="481.80936"
     cy="366.03809"
     r="299.55142" />
  <path
     transform="translate(1014.3914,-4.4999999e-6)"
     sodipodi:nodetypes="caaac"
     inkscape:original-d="m -788.86649,366.03809 c 0.53765,11.14645 -0.9932,16.63284 -0.24716,24.89948 1.31668,14.5896 1.43286,30.21513 8.29682,43.15639 2.66706,5.02845 7.05433,9.39185 12.07449,12.07449 5.44822,2.91139 12.62933,3.77386 18.17665,3.61152"
     inkscape:path-effect="#path-effect875"
     inkscape:connector-curvature="0"
     id="path873"
     d="m -788.86649,366.03809 c -0.17219,8.29861 -0.25458,16.59909 -0.24716,24.89948 0.007,7.4226 0.0872,14.87379 1.18059,22.21542 1.09335,7.34163 3.23673,14.6129 7.11623,20.94097 3.0064,4.90392 7.08155,9.21837 12.07449,12.07449 5.45668,3.12139 11.94117,4.40979 18.17665,3.61152"
     style="fill:none;stroke:#000000;stroke-width:5;stroke-linecap:round;stroke-linejoin:round;stroke-miterlimit:4;stroke-dasharray:none;stroke-opacity:1" />
  <path
     sodipodi:nodetypes="caaac"
     inkscape:original-d="m -788.86649,366.03809 c 0.53765,11.14645 -0.9932,16.63284 -0.24716,24.89948 1.31668,14.5896 1.43286,30.21513 8.29682,43.15639 2.66706,5.02845 7.05433,9.39185 12.07449,12.07449 5.44822,2.91139 12.62933,3.77386 18.17665,3.61152"
     inkscape:path-effect="#path-effect875-0"
     inkscape:connector-curvature="0"
     id="path873-9"
     d="m -788.86649,366.03809 c -0.17219,8.29861 -0.25458,16.59909 -0.24716,24.89948 0.007,7.4226 0.0872,14.87379 1.18059,22.21542 1.09335,7.34163 3.23673,14.6129 7.11623,20.94097 3.0064,4.90392 7.08155,9.21837 12.07449,12.07449 5.45668,3.12139 11.94117,4.40979 18.17665,3.61152"
     style="fill:none;stroke:#000000;stroke-width:5;stroke-linecap:round;stroke-linejoin:round;stroke-miterlimit:4;stroke-dasharray:none;stroke-opacity:1"
     transform="matrix(1,0,0,-1,1014.3914,732.07618)" />
  <path
     style="fill:none;stroke:#000000;stroke-width:5;stroke-linecap:round;stroke-linejoin:round;stroke-miterlimit:4;stroke-dasharray:none;stroke-opacity:1"
     d="m -788.86649,366.03809 c -0.17219,8.29861 -0.25458,16.59909 -0.24716,24.89948 0.007,7.4226 0.0872,14.87379 1.18059,22.21542 1.09335,7.34163 3.23673,14.6129 7.11623,20.94097 3.0064,4.90392 7.08155,9.21837 12.07449,12.07449 5.45668,3.12139 11.94117,4.40979 18.17665,3.61152"
     id="path873-8"
     inkscape:connector-curvature="0"
     inkscape:path-effect="#path-effect875-1"
     inkscape:original-d="m -788.86649,366.03809 c 0.53765,11.14645 -0.9932,16.63284 -0.24716,24.89948 1.31668,14.5896 1.43286,30.21513 8.29682,43.15639 2.66706,5.02845 7.05433,9.39185 12.07449,12.07449 5.44822,2.91139 12.62933,3.77386 18.17665,3.61152"
     sodipodi:nodetypes="caaac"
     transform="matrix(-1,0,0,1,-50.7727,-4.5000002e-6)" />
  <path
     transform="rotate(180,-25.38635,366.03809)"
     style="fill:none;stroke:#000000;stroke-width:5;stroke-linecap:round;stroke-linejoin:round;stroke-miterlimit:4;stroke-dasharray:none;stroke-opacity:1"
     d="m -788.86649,366.03809 c -0.17219,8.29861 -0.25458,16.59909 -0.24716,24.89948 0.007,7.4226 0.0872,14.87379 1.18059,22.21542 1.09335,7.34163 3.23673,14.6129 7.11623,20.94097 3.0064,4.90392 7.08155,9.21837 12.07449,12.07449 5.45668,3.12139 11.94117,4.40979 18.17665,3.61152"
     id="path873-9-3"
     inkscape:connector-curvature="0"
     inkscape:path-effect="#path-effect875-0-3"
     inkscape:original-d="m -788.86649,366.03809 c 0.53765,11.14645 -0.9932,16.63284 -0.24716,24.89948 1.31668,14.5896 1.43286,30.21513 8.29682,43.15639 2.66706,5.02845 7.05433,9.39185 12.07449,12.07449 5.44822,2.91139 12.62933,3.77386 18.17665,3.61152"
     sodipodi:nodetypes="caaac" />
  <path
     transform="rotate(60,-25.386336,1244.5268)"
     sodipodi:nodetypes="caaac"
     inkscape:original-d="m -788.86649,366.03809 c 0.53765,11.14645 -0.9932,16.63284 -0.24716,24.89948 1.31668,14.5896 1.43286,30.21513 8.29682,43.15639 2.66706,5.02845 7.05433,9.39185 12.07449,12.07449 5.44822,2.91139 12.62933,3.77386 18.17665,3.61152"
     inkscape:path-effect="#path-effect875-7"
     inkscape:connector-curvature="0"
     id="path873-7"
     d="m -788.86649,366.03809 c -0.17219,8.29861 -0.25458,16.59909 -0.24716,24.89948 0.007,7.4226 0.0872,14.87379 1.18059,22.21542 1.09335,7.34163 3.23673,14.6129 7.11623,20.94097 3.0064,4.90392 7.08155,9.21837 12.07449,12.07449 5.45668,3.12139 11.94117,4.40979 18.17665,3.61152"
     style="fill:none;stroke:#000000;stroke-width:5;stroke-linecap:round;stroke-linejoin:round;stroke-miterlimit:4;stroke-dasharray:none;stroke-opacity:1" />
  <path
     sodipodi:nodetypes="caaac"
     inkscape:original-d="m -788.86649,366.03809 c 0.53765,11.14645 -0.9932,16.63284 -0.24716,24.89948 1.31668,14.5896 1.43286,30.21513 8.29682,43.15639 2.66706,5.02845 7.05433,9.39185 12.07449,12.07449 5.44822,2.91139 12.62933,3.77386 18.17665,3.61152"
     inkscape:path-effect="#path-effect875-0-39"
     inkscape:connector-curvature="0"
     id="path873-9-1"
     d="m -788.86649,366.03809 c -0.17219,8.29861 -0.25458,16.59909 -0.24716,24.89948 0.007,7.4226 0.0872,14.87379 1.18059,22.21542 1.09335,7.34163 3.23673,14.6129 7.11623,20.94097 3.0064,4.90392 7.08155,9.21837 12.07449,12.07449 5.45668,3.12139 11.94117,4.40979 18.17665,3.61152"
     style="fill:none;stroke:#000000;stroke-width:5;stroke-linecap:round;stroke-linejoin:round;stroke-miterlimit:4;stroke-dasharray:none;stroke-opacity:1"
     transform="matrix(0.5,0.8660254,0.8660254,-0.5,431.10209,1010.2867)" />
  <path
     style="fill:none;stroke:#000000;stroke-width:5;stroke-linecap:round;stroke-linejoin:round;stroke-miterlimit:4;stroke-dasharray:none;stroke-opacity:1"
     d="m -788.86649,366.03809 c -0.17219,8.29861 -0.25458,16.59909 -0.24716,24.89948 0.007,7.4226 0.0872,14.87379 1.18059,22.21542 1.09335,7.34163 3.23673,14.6129 7.11623,20.94097 3.0064,4.90392 7.08155,9.21837 12.07449,12.07449 5.45668,3.12139 11.94117,4.40979 18.17665,3.61152"
     id="path873-8-6"
     inkscape:connector-curvature="0"
     inkscape:path-effect="#path-effect875-1-1"
     inkscape:original-d="m -788.86649,366.03809 c 0.53765,11.14645 -0.9932,16.63284 -0.24716,24.89948 1.31668,14.5896 1.43286,30.21513 8.29682,43.15639 2.66706,5.02845 7.05433,9.39185 12.07449,12.07449 5.44822,2.91139 12.62933,3.77386 18.17665,3.61152"
     sodipodi:nodetypes="caaac"
     transform="matrix(-0.5,-0.8660254,-0.8660254,0.5,532.51661,-278.21056)" />
  <path
     transform="rotate(-120,-25.386354,73.208505)"
     style="fill:none;stroke:#000000;stroke-width:5;stroke-linecap:round;stroke-linejoin:round;stroke-miterlimit:4;stroke-dasharray:none;stroke-opacity:1"
     d="m -788.86649,366.03809 c -0.17219,8.29861 -0.25458,16.59909 -0.24716,24.89948 0.007,7.4226 0.0872,14.87379 1.18059,22.21542 1.09335,7.34163 3.23673,14.6129 7.11623,20.94097 3.0064,4.90392 7.08155,9.21837 12.07449,12.07449 5.45668,3.12139 11.94117,4.40979 18.17665,3.61152"
     id="path873-9-3-9"
     inkscape:connector-curvature="0"
     inkscape:path-effect="#path-effect875-0-3-9"
     inkscape:original-d="m -788.86649,366.03809 c 0.53765,11.14645 -0.9932,16.63284 -0.24716,24.89948 1.31668,14.5896 1.43286,30.21513 8.29682,43.15639 2.66706,5.02845 7.05433,9.39185 12.07449,12.07449 5.44822,2.91139 12.62933,3.77386 18.17665,3.61152"
     sodipodi:nodetypes="caaac" />
  <path
     transform="matrix(-0.5,0.8660254,0.8660254,0.5,-101.4799,644.24863)"
     sodipodi:nodetypes="caaac"
     inkscape:original-d="m -788.86649,366.03809 c 0.53765,11.14645 -0.9932,16.63284 -0.24716,24.89948 1.31668,14.5896 1.43286,30.21513 8.29682,43.15639 2.66706,5.02845 7.05433,9.39185 12.07449,12.07449 5.44822,2.91139 12.62933,3.77386 18.17665,3.61152"
     inkscape:path-effect="#path-effect875-7-0"
     inkscape:connector-curvature="0"
     id="path873-7-4"
     d="m -788.86649,366.03809 c -0.17219,8.29861 -0.25458,16.59909 -0.24716,24.89948 0.007,7.4226 0.0872,14.87379 1.18059,22.21542 1.09335,7.34163 3.23673,14.6129 7.11623,20.94097 3.0064,4.90392 7.08155,9.21837 12.07449,12.07449 5.45668,3.12139 11.94117,4.40979 18.17665,3.61152"
     style="fill:none;stroke:#000000;stroke-width:5;stroke-linecap:round;stroke-linejoin:round;stroke-miterlimit:4;stroke-dasharray:none;stroke-opacity:1" />
  <path
     sodipodi:nodetypes="caaac"
     inkscape:original-d="m -788.86649,366.03809 c 0.53765,11.14645 -0.9932,16.63284 -0.24716,24.89948 1.31668,14.5896 1.43286,30.21513 8.29682,43.15639 2.66706,5.02845 7.05433,9.39185 12.07449,12.07449 5.44822,2.91139 12.62933,3.77386 18.17665,3.61152"
     inkscape:path-effect="#path-effect875-0-39-8"
     inkscape:connector-curvature="0"
     id="path873-9-1-7"
     d="m -788.86649,366.03809 c -0.17219,8.29861 -0.25458,16.59909 -0.24716,24.89948 0.007,7.4226 0.0872,14.87379 1.18059,22.21542 1.09335,7.34163 3.23673,14.6129 7.11623,20.94097 3.0064,4.90392 7.08155,9.21837 12.07449,12.07449 5.45668,3.12139 11.94117,4.40979 18.17665,3.61152"
     style="fill:none;stroke:#000000;stroke-width:5;stroke-linecap:round;stroke-linejoin:round;stroke-miterlimit:4;stroke-dasharray:none;stroke-opacity:1"
     transform="rotate(120,-25.38632,658.86768)" />
  <path
     style="fill:none;stroke:#000000;stroke-width:5;stroke-linecap:round;stroke-linejoin:round;stroke-miterlimit:4;stroke-dasharray:none;stroke-opacity:1"
     d="m -788.86649,366.03809 c -0.17219,8.29861 -0.25458,16.59909 -0.24716,24.89948 0.007,7.4226 0.0872,14.87379 1.18059,22.21542 1.09335,7.34163 3.23673,14.6129 7.11623,20.94097 3.0064,4.90392 7.08155,9.21837 12.07449,12.07449 5.45668,3.12139 11.94117,4.40979 18.17665,3.61152"
     id="path873-8-6-4"
     inkscape:connector-curvature="0"
     inkscape:path-effect="#path-effect875-1-1-7"
     inkscape:original-d="m -788.86649,366.03809 c 0.53765,11.14645 -0.9932,16.63284 -0.24716,24.89948 1.31668,14.5896 1.43286,30.21513 8.29682,43.15639 2.66706,5.02845 7.05433,9.39185 12.07449,12.07449 5.44822,2.91139 12.62933,3.77386 18.17665,3.61152"
     sodipodi:nodetypes="caaac"
     transform="rotate(-60,-25.38632,-512.45068)" />
  <path
     transform="matrix(0.5,-0.8660254,-0.8660254,-0.5,1065.0987,87.827552)"
     style="fill:none;stroke:#000000;stroke-width:5;stroke-linecap:round;stroke-linejoin:round;stroke-miterlimit:4;stroke-dasharray:none;stroke-opacity:1"
     d="m -788.86649,366.03809 c -0.17219,8.29861 -0.25458,16.59909 -0.24716,24.89948 0.007,7.4226 0.0872,14.87379 1.18059,22.21542 1.09335,7.34163 3.23673,14.6129 7.11623,20.94097 3.0064,4.90392 7.08155,9.21837 12.07449,12.07449 5.45668,3.12139 11.94117,4.40979 18.17665,3.61152"
     id="path873-9-3-9-6"
     inkscape:connector-curvature="0"
     inkscape:path-effect="#path-effect875-0-3-9-6"
     inkscape:original-d="m -788.86649,366.03809 c 0.53765,11.14645 -0.9932,16.63284 -0.24716,24.89948 1.31668,14.5896 1.43286,30.21513 8.29682,43.15639 2.66706,5.02845 7.05433,9.39185 12.07449,12.07449 5.44822,2.91139 12.62933,3.77386 18.17665,3.61152"
     sodipodi:nodetypes="caaac" />
  <circle
     style="opacity:1;fill:none;fill-opacity:1;fill-rule:evenodd;stroke:#000000;stroke-width:4.99999905;stroke-linecap:round;stroke-linejoin:round;stroke-miterlimit:4;stroke-dasharray:none;stroke-opacity:1;paint-order:fill markers stroke"
     id="path871-8"
     cx="481.80936"
     cy="366.03809"
     r="56.451748" />
  <path
     inkscape:connector-curvature="0"
     id="rect1051"
     d="m 465.80742,132.52148 v 43.73438 a 34.81477,37.229668 0 0 0 -18.8125,33.05078 34.81477,37.229668 0 0 0 18.8125,33.02734 v 52.09766 h 16.00195 16.00195 v -52.07422 a 34.81477,37.229668 0 0 0 18.8125,-33.05078 34.81477,37.229668 0 0 0 -18.8125,-33.02734 v -43.75782 h -16.00195 z"
     style="opacity:1;fill:#da121a;fill-opacity:1;fill-rule:evenodd;stroke:#000000;stroke-width:8;stroke-linecap:round;stroke-linejoin:round;stroke-miterlimit:4;stroke-dasharray:none;stroke-opacity:1;paint-order:fill markers stroke" />
  <path
     inkscape:connector-curvature="0"
     id="rect1072"
     d="m 455.24492,132.52148 v 22.94141 h 53.1289 v -22.94141 z m 0,144.60352 v 22.94141 h 53.1289 V 277.125 Z"
     style="opacity:1;fill:#da121a;fill-opacity:1;fill-rule:evenodd;stroke:#000000;stroke-width:8;stroke-linecap:round;stroke-linejoin:round;stroke-miterlimit:4;stroke-dasharray:none;stroke-opacity:1;paint-order:fill markers stroke" />
  <path
     style="opacity:1;fill:#da121a;fill-opacity:1;fill-rule:evenodd;stroke:#000000;stroke-width:8;stroke-linecap:round;stroke-linejoin:round;stroke-miterlimit:4;stroke-dasharray:none;stroke-opacity:1;paint-order:fill markers stroke"
     d="m 465.80742,432.00976 v 43.73438 a 34.81477,37.229668 0 0 0 -18.8125,33.05078 34.81477,37.229668 0 0 0 18.8125,33.02734 v 52.09766 h 16.00195 16.00195 V 541.8457 a 34.81477,37.229668 0 0 0 18.8125,-33.05078 34.81477,37.229668 0 0 0 -18.8125,-33.02734 v -43.75782 h -16.00195 z"
     id="rect1051-4"
     inkscape:connector-curvature="0" />
  <path
     style="opacity:1;fill:#da121a;fill-opacity:1;fill-rule:evenodd;stroke:#000000;stroke-width:8;stroke-linecap:round;stroke-linejoin:round;stroke-miterlimit:4;stroke-dasharray:none;stroke-opacity:1;paint-order:fill markers stroke"
     d="m 455.24492,432.00976 v 22.94141 h 53.1289 v -22.94141 z m 0,144.60352 v 22.94141 h 53.1289 v -22.94141 z"
     id="rect1072-4"
     inkscape:connector-curvature="0" />
  <path
     inkscape:connector-curvature="0"
     id="rect1051-9"
     d="m 271.57709,263.13788 37.87508,21.86719 a 37.229668,34.81477 30 0 0 19.21656,32.81749 37.229668,34.81477 30 0 0 38.00877,0.22157 l 45.1179,26.04883 8.00097,-13.8581 8.00098,-13.85809 -45.0976,-26.03711 a 37.229668,34.81477 30 0 0 -19.21657,-32.8175 37.229668,34.81477 30 0 0 -38.00876,-0.22156 l -37.89538,-21.87891 -8.00098,13.85809 z"
     style="opacity:1;fill:#da121a;fill-opacity:1;fill-rule:evenodd;stroke:#000000;stroke-width:8;stroke-linecap:round;stroke-linejoin:round;stroke-miterlimit:4;stroke-dasharray:none;stroke-opacity:1;paint-order:fill markers stroke" />
  <path
     inkscape:connector-curvature="0"
     id="rect1072-6"
     d="m 266.29584,272.28527 19.86784,11.4707 26.56445,-46.01097 -19.86784,-11.47071 z m 125.23032,72.30176 19.86784,11.4707 26.56445,-46.01097 -19.86784,-11.47071 z"
     style="opacity:1;fill:#da121a;fill-opacity:1;fill-rule:evenodd;stroke:#000000;stroke-width:8;stroke-linecap:round;stroke-linejoin:round;stroke-miterlimit:4;stroke-dasharray:none;stroke-opacity:1;paint-order:fill markers stroke" />
  <path
     style="opacity:1;fill:#da121a;fill-opacity:1;fill-rule:evenodd;stroke:#000000;stroke-width:8;stroke-linecap:round;stroke-linejoin:round;stroke-miterlimit:4;stroke-dasharray:none;stroke-opacity:1;paint-order:fill markers stroke"
     d="m 530.94154,412.88202 37.87509,21.86719 a 37.229668,34.81477 30 0 0 19.21656,32.81749 37.229668,34.81477 30 0 0 38.00877,0.22157 l 45.1179,26.04883 8.00097,-13.8581 8.00098,-13.85809 -45.0976,-26.03711 a 37.229668,34.81477 30 0 0 -19.21657,-32.8175 37.229668,34.81477 30 0 0 -38.00876,-0.22156 l -37.89539,-21.87891 -8.00097,13.85809 z"
     id="rect1051-4-9"
     inkscape:connector-curvature="0" />
  <path
     style="opacity:1;fill:#da121a;fill-opacity:1;fill-rule:evenodd;stroke:#000000;stroke-width:8;stroke-linecap:round;stroke-linejoin:round;stroke-miterlimit:4;stroke-dasharray:none;stroke-opacity:1;paint-order:fill markers stroke"
     d="m 525.66029,422.02941 19.86785,11.47071 26.56445,-46.01098 -19.86785,-11.47071 z m 125.23033,72.30176 19.86784,11.47071 26.56445,-46.01098 -19.86784,-11.47071 z"
     id="rect1072-4-5"
     inkscape:connector-curvature="0" />
  <path
     inkscape:connector-curvature="0"
     id="rect1051-9-3"
     d="m 692.04165,263.13788 -37.87508,21.86719 a 34.81477,37.229668 60 0 1 -19.21657,32.81749 34.81477,37.229668 60 0 1 -38.00876,0.22157 l -45.1179,26.04883 -8.00097,-13.85809 -8.00098,-13.8581 45.0976,-26.03711 a 34.81477,37.229668 60 0 1 19.21656,-32.81749 34.81477,37.229668 60 0 1 38.00877,-0.22157 l 37.89538,-21.87891 8.00098,13.8581 z"
     style="opacity:1;fill:#da121a;fill-opacity:1;fill-rule:evenodd;stroke:#000000;stroke-width:8;stroke-linecap:round;stroke-linejoin:round;stroke-miterlimit:4;stroke-dasharray:none;stroke-opacity:1;paint-order:fill markers stroke" />
  <path
     inkscape:connector-curvature="0"
     id="rect1072-6-8"
     d="m 697.3229,272.28527 -19.86784,11.47071 -26.56445,-46.01098 19.86784,-11.4707 z m -125.23032,72.30176 -19.86784,11.47071 -26.56445,-46.01098 19.86784,-11.4707 z"
     style="opacity:1;fill:#da121a;fill-opacity:1;fill-rule:evenodd;stroke:#000000;stroke-width:8;stroke-linecap:round;stroke-linejoin:round;stroke-miterlimit:4;stroke-dasharray:none;stroke-opacity:1;paint-order:fill markers stroke" />
  <path
     style="opacity:1;fill:#da121a;fill-opacity:1;fill-rule:evenodd;stroke:#000000;stroke-width:8;stroke-linecap:round;stroke-linejoin:round;stroke-miterlimit:4;stroke-dasharray:none;stroke-opacity:1;paint-order:fill markers stroke"
     d="m 432.67719,412.88202 -37.87508,21.86719 a 34.81477,37.229668 60 0 1 -19.21657,32.81749 34.81477,37.229668 60 0 1 -38.00876,0.22157 l -45.1179,26.04883 -8.00097,-13.85809 -8.00098,-13.8581 45.0976,-26.03711 a 34.81477,37.229668 60 0 1 19.21656,-32.81749 34.81477,37.229668 60 0 1 38.00877,-0.22157 l 37.89538,-21.87891 8.00098,13.8581 z"
     id="rect1051-4-9-4"
     inkscape:connector-curvature="0" />
  <path
     style="opacity:1;fill:#da121a;fill-opacity:1;fill-rule:evenodd;stroke:#000000;stroke-width:8;stroke-linecap:round;stroke-linejoin:round;stroke-miterlimit:4;stroke-dasharray:none;stroke-opacity:1;paint-order:fill markers stroke"
     d="m 437.95844,422.02941 -19.86784,11.47071 -26.56445,-46.01098 19.86784,-11.4707 z m -125.23032,72.30176 -19.86784,11.47071 -26.56445,-46.01098 19.86784,-11.4707 z"
     id="rect1072-4-5-0"
     inkscape:connector-curvature="0" />
</svg>
