<?xml version="1.0" encoding="UTF-8" standalone="no"?>
<svg
   xmlns:dc="http://purl.org/dc/elements/1.1/"
   xmlns:cc="http://creativecommons.org/ns#"
   xmlns:rdf="http://www.w3.org/1999/02/22-rdf-syntax-ns#"
   xmlns:svg="http://www.w3.org/2000/svg"
   xmlns="http://www.w3.org/2000/svg"
   xmlns:sodipodi="http://sodipodi.sourceforge.net/DTD/sodipodi-0.dtd"
   xmlns:inkscape="http://www.inkscape.org/namespaces/inkscape"
   viewBox="0 0 935.7265 1073.035"
   version="1.1"
   id="svg891"
   sodipodi:docname="DEU_Klosterlechfeld_COA.svg"
   inkscape:version="0.92.5 (2060ec1f9f, 2020-04-08)"
   width="935.7265"
   height="1073.035">
  <metadata
     id="metadata897">
    <rdf:RDF>
      <cc:Work
         rdf:about="">
        <dc:format>image/svg+xml</dc:format>
        <dc:type
           rdf:resource="http://purl.org/dc/dcmitype/StillImage" />
        <dc:title></dc:title>
      </cc:Work>
    </rdf:RDF>
  </metadata>
  <defs
     id="defs895" />
  <sodipodi:namedview
     pagecolor="#ffffff"
     bordercolor="#666666"
     borderopacity="1"
     objecttolerance="10"
     gridtolerance="10"
     guidetolerance="10"
     inkscape:pageopacity="0"
     inkscape:pageshadow="2"
     inkscape:window-width="1920"
     inkscape:window-height="1046"
     id="namedview893"
     showgrid="false"
     inkscape:zoom="0.73902515"
     inkscape:cx="467.86327"
     inkscape:cy="536.51744"
     inkscape:window-x="-11"
     inkscape:window-y="-11"
     inkscape:window-maximized="1"
     inkscape:current-layer="svg891"
     inkscape:snap-midpoints="true"
     inkscape:snap-smooth-nodes="true"
     fit-margin-top="0"
     fit-margin-left="0"
     fit-margin-right="0"
     fit-margin-bottom="0"
     inkscape:snap-nodes="true"
     inkscape:object-paths="false" />
  <path
     inkscape:connector-curvature="0"
     style="fill:#da121a;fill-opacity:1;fill-rule:evenodd;stroke:none;stroke-width:20;stroke-linecap:round;stroke-linejoin:round;stroke-miterlimit:4;stroke-dasharray:none;stroke-opacity:1"
     d="M 74.199164,10.000014 9.9999855,68.798842 28.369086,692.35548 c 0,0 12.538398,65.85628 28.193358,94.91015 41.991585,77.93176 97.089016,154.49351 171.027356,203.17385 69.84572,45.98572 172.78748,72.48132 240.17187,72.59562 v 0 h 0.0898 0.0234 0.0899 v 0 c 67.38439,-0.1143 170.32615,-26.6099 240.17187,-72.59562 73.93834,-48.68034 129.03772,-125.24209 171.0293,-203.17385 15.65496,-29.05387 28.1914,-94.91015 28.1914,-94.91015 L 925.72651,68.800795 861.52534,10.000014 h -393.56054 -0.10157 -0.10156 z"
     id="path10563-0-6-2-8-1" />
  <path
     inkscape:connector-curvature="0"
     style="fill:none;fill-rule:evenodd;stroke:#000000;stroke-width:20;stroke-linecap:round;stroke-linejoin:round;stroke-miterlimit:4;stroke-dasharray:none;stroke-opacity:1"
     d="M 74.199166,10 9.999987,68.798828 28.369087,692.35546 c 0,0 12.538399,65.85628 28.193359,94.91015 41.991585,77.93176 97.089014,154.49351 171.027354,203.17385 69.84572,45.98574 172.78748,72.48134 240.17187,72.59564 v 0 h 0.0898 0.0234 0.0899 v 0 c 67.38439,-0.1143 170.32615,-26.6099 240.17187,-72.59564 73.93834,-48.68034 129.03772,-125.24209 171.0293,-203.17385 15.65496,-29.05387 28.1914,-94.91015 28.1914,-94.91015 L 925.72651,68.800781 861.52534,10 h -393.56054 -0.10157 -0.10156 z"
     id="path10563-0-6-2-8" />
  <path
     style="fill:#ffffff;fill-opacity:1;stroke:#000000;stroke-width:20;stroke-linecap:round;stroke-linejoin:round;stroke-miterlimit:4;stroke-dasharray:none;stroke-opacity:1;paint-order:fill markers stroke"
     d="M 467.96484 10 L 467.96484 1063.0352 C 535.34923 1062.9209 638.291 1036.4252 708.13672 990.43945 C 782.07506 941.75911 837.17444 865.19739 879.16602 787.26562 C 894.82098 758.21176 907.35742 692.35547 907.35742 692.35547 L 925.72656 68.800781 L 861.52539 10 L 467.96484 10 z "
     id="rect2072" />
  <path
     d="m 467.87337,855.42093 v -741.67 h -312.93 l -86.24,186.03 c 0,0 31.706,-21.943 49.28,-29.568 21.942,-9.52 45.47,-15.356 68.993,-19.712 27.565,-5.106 55.747,-6.915 83.78,-7.392 30.43,-0.517 61.51,-1.899 91.17,4.928 8.25,1.899 17.874,3.449 23.408,9.856 8.594,9.95 9.856,38.19 9.856,38.19 l -4.928,480.48 c 0,0 -1.843,32.02 -7.392,46.816 -5.963,15.896 -14.43766,31.81253 -27.1,43.12 -17.67242,15.78147 -40.7741,26.4255 -64.06,30.8 -10.52412,1.97707 -32.03,-2.464 -32.03,-2.464 0,0 30.438,16.04 46.816,20.944 14.747,4.412 30.19,7.674 45.584,7.392 18.843,-0.345 37.802,-4.451 55.44,-11.09 14.636,-5.507 29.53,-12.42 40.656,-23.408 9.171,-9.06 19.712,-33.26 19.712,-33.26 z"
     id="path877"
     inkscape:connector-curvature="0"
     style="fill:#ffffff;stroke:#000000;stroke-width:20;stroke-linejoin:round;stroke-miterlimit:4;stroke-dasharray:none;stroke-linecap:round"
     sodipodi:nodetypes="ccccccccccccaaccccccc" />
  <path
     d="m 467.87337,855.42093 v -741.67 h 312.93 l 86.24,186.03 c 0,0 -31.706,-21.943 -49.28,-29.568 -21.942,-9.52 -45.47,-15.356 -68.993,-19.712 -27.565,-5.106 -55.747,-6.915 -83.78,-7.392 -30.43,-0.517 -61.51,-1.899 -91.17,4.928 -8.25,1.899 -17.874,3.449 -23.408,9.856 -8.594,9.95 -9.856,38.19 -9.856,38.19 l 4.928,480.48 c 0,0 1.843,32.02 7.392,46.816 5.963,15.896 14.43766,31.81253 27.1,43.12 17.67242,15.78147 40.7741,26.4255 64.06,30.8 10.52412,1.97707 32.03,-2.464 32.03,-2.464 0,0 -30.438,16.04 -46.816,20.944 -14.747,4.412 -30.19,7.674 -45.584,7.392 -18.843,-0.345 -37.802,-4.451 -55.44,-11.09 -14.636,-5.507 -29.53,-12.42 -40.656,-23.408 -9.171,-9.06 -19.712,-33.26 -19.712,-33.26 z"
     id="path879"
     inkscape:connector-curvature="0"
     style="fill:#da121a;stroke:#000000;stroke-width:20;stroke-linejoin:round;stroke-miterlimit:4;stroke-dasharray:none;stroke-linecap:round"
     sodipodi:nodetypes="ccccccccccccaaccccccc" />
  <path
     d="m 887.13551,645.68891 -118.0798,-12.83392 -47.92226,108.59065 -47.92446,-108.59111 -118.08652,12.82783 70.16269,-95.76128 -70.16412,-95.75442 118.0798,12.83392 47.92226,-108.59065 47.92446,108.59112 118.08652,-12.82784 -70.16269,95.76128 z"
     id="path883"
     inkscape:connector-curvature="0"
     style="fill:#da121a;stroke:#000000;stroke-width:20;stroke-linecap:round;stroke-linejoin:round;stroke-miterlimit:4;stroke-dasharray:none" />
  <path
     d="M 380.60551,645.68891 262.52571,632.85499 214.60345,741.44564 166.67899,632.85453 48.592473,645.68236 118.75516,549.92108 48.591039,454.16666 166.67084,467.00058 214.5931,358.40993 l 47.92446,108.59112 118.08652,-12.82784 -70.16269,95.76128 z"
     id="path885"
     inkscape:connector-curvature="0"
     style="fill:#ffffff;stroke:#000000;stroke-width:20;stroke-linecap:round;stroke-linejoin:round;stroke-miterlimit:4;stroke-dasharray:none" />
</svg>
