<?xml version="1.0" encoding="UTF-8" standalone="no"?>
<svg
   xmlns:dc="http://purl.org/dc/elements/1.1/"
   xmlns:cc="http://creativecommons.org/ns#"
   xmlns:rdf="http://www.w3.org/1999/02/22-rdf-syntax-ns#"
   xmlns:svg="http://www.w3.org/2000/svg"
   xmlns="http://www.w3.org/2000/svg"
   xmlns:sodipodi="http://sodipodi.sourceforge.net/DTD/sodipodi-0.dtd"
   xmlns:inkscape="http://www.inkscape.org/namespaces/inkscape"
   version="1.1"
   width="512"
   height="555.37964"
   id="svg1277"
   viewBox="0 0 512 555.37964"
   sodipodi:docname="Knuellwald.svg"
   inkscape:version="0.92.3 (2405546, 2018-03-11)">
  <metadata
     id="metadata1283">
    <rdf:RDF>
      <cc:Work
         rdf:about="">
        <dc:format>image/svg+xml</dc:format>
        <dc:type
           rdf:resource="http://purl.org/dc/dcmitype/StillImage" />
        <dc:title></dc:title>
      </cc:Work>
    </rdf:RDF>
  </metadata>
  <defs
     id="defs1281" />
  <sodipodi:namedview
     pagecolor="#ffffff"
     bordercolor="#666666"
     borderopacity="1"
     objecttolerance="10"
     gridtolerance="10"
     guidetolerance="10"
     inkscape:pageopacity="0"
     inkscape:pageshadow="2"
     inkscape:window-width="1600"
     inkscape:window-height="850"
     id="namedview1279"
     showgrid="false"
     inkscape:zoom="0.79286959"
     inkscape:cx="211.22341"
     inkscape:cy="251.04674"
     inkscape:window-x="-8"
     inkscape:window-y="-8"
     inkscape:window-maximized="1"
     inkscape:current-layer="svg1277" />
  <g
     id="Layer1000"
     transform="matrix(0.9557347,0,0,0.9557347,-36.00621,-151.71352)">
    <path
       d="m 303.4488,738.9921 c 97.5053,0 150.8185,-53.7905 169.2411,-75.5053 18.4227,-21.7148 53.4371,-71.3109 55.9789,-134.1649 2.2181,-54.8462 7.5467,-219.6346 9.9859,-263.1674 0.8073,-14.4062 5.4357,-31.5541 33.8825,-30.2825 -14.4782,-9.3937 -40.3574,-37.5171 -49.2817,-56.8967 -0.728,11.2952 -4.9193,13.5059 -17.3064,9.3756 -37.0536,-12.3557 -112.5524,-28.7603 -202.5003,-28.7603 -89.9478,0 -165.4466,16.4046 -202.5003,28.7603 -12.3871,4.1303 -16.5784,1.9196 -17.3063,-9.3756 -8.9243,19.3796 -30.64,46.809 -45.1182,56.2028 25.2538,-2.5053 31.996,16.4843 33.2889,29.8579 4.1108,42.514 10.7039,209.4301 12.7043,264.2859 2.2924,62.8546 35.5479,108.1859 53.7115,129.6417 18.1635,21.4557 76.9969,80.0285 165.2201,80.0285 z"
       style="fill:#1b1918;fill-rule:evenodd;stroke:#1b1918;stroke-width:1.70079994;stroke-linecap:round;stroke-linejoin:round;stroke-dasharray:none"
       id="path1151"
       inkscape:connector-curvature="0" />
    <path
       d="m 303.4488,731.9055 c -59.436,0 -105.5117,-25.4194 -138.5694,-50.7623 C 131.8218,655.8004 99.9505,601.5124 92.3114,564.0829 89.8251,551.9001 86.2838,519.2895 85.7123,475.6263 84.5799,389.0954 81.8368,283.8977 79.8409,258.8437 78.3054,239.5672 70.6507,228.3489 59.6854,223.6445 c 8.7988,-9.6568 17.5686,-23.0091 22.5159,-31.4362 3.8129,3.0279 5.8272,3.939 14.5763,1.3682 52.9651,-15.5633 120.6295,-30.1592 206.6712,-30.1592 86.0417,0 153.7061,14.5959 206.6712,30.1592 8.7491,2.5708 10.7634,1.6597 14.5763,-1.3682 4.9473,8.4271 13.7171,21.7794 22.5159,31.4362 -10.9653,4.7044 -18.6199,15.9227 -20.1555,35.1992 -1.9958,25.054 -4.7389,130.2517 -5.8714,216.7826 -0.5714,43.6632 -4.1128,76.2738 -6.599,88.4566 -7.6391,37.4295 -39.5105,91.7175 -72.5681,117.0603 -33.0576,25.3429 -79.1334,50.7623 -138.5694,50.7623 z"
       style="fill:#009634;fill-rule:evenodd;stroke:#1b1918;stroke-width:0.28349999;stroke-linecap:butt;stroke-linejoin:miter;stroke-dasharray:none"
       id="path1153"
       inkscape:connector-curvature="0" />
    <g
       id="Layer1001">
      <path
         d="m 521.0053,485.4027 c -13.3208,4.4921 -26.9342,9.1681 -45.0521,20.4452 -36.2552,22.5641 -40.8317,40.6151 -74.7615,61.7326 -33.9313,21.1187 -52.1459,17.2545 -88.4022,39.8189 -36.2551,22.5637 -40.8308,40.6153 -74.7612,61.7323 -22.4257,13.9572 -37.9871,17.0025 -56.4284,23.9766 29.2399,19.4363 66.5589,36.4164 112.1207,38.5639 23.8552,-17.8188 31.3994,-34.0517 62.985,-53.712 36.2562,-22.5638 54.4719,-18.7004 88.4032,-39.8174 30.1862,-18.788 37.1401,-35.1496 63.8394,-54.4215 2.4658,-6.8661 4.3815,-13.481 5.6381,-19.6384 2.2969,-11.255 5.4949,-39.947 6.419,-78.6802 z"
         style="fill:#ffffff;fill-rule:evenodd;stroke:#1b1918;stroke-width:0.28349999;stroke-linecap:butt;stroke-linejoin:miter;stroke-dasharray:none"
         id="path1155"
         inkscape:connector-curvature="0" />
      <path
         d="m 524.6181,484.1836 c -14.506,4.9192 -28.9069,9.367 -48.6647,21.664 -36.2551,22.5649 -40.8316,40.6157 -74.762,61.7335 -33.9302,21.1178 -52.1467,17.2531 -88.4019,39.8177 -36.2551,22.5649 -40.8316,40.6157 -74.7618,61.7335 -23.5034,14.6282 -39.4667,17.2692 -59.1088,25.0109"
         style="fill:none;stroke:#1b1918;stroke-width:4.25199986;stroke-linecap:butt;stroke-linejoin:miter;stroke-dasharray:none"
         id="path1157"
         inkscape:connector-curvature="0" />
      <path
         d="m 289.1854,734.938 c 27.5658,-19.1265 34.0164,-36.1241 67.521,-56.9772 36.2551,-22.5646 54.4717,-18.7002 88.4019,-39.818 32.2599,-20.0781 37.9853,-37.3839 69.6305,-58.4325"
         style="fill:none;stroke:#1b1918;stroke-width:4.25199986;stroke-linecap:butt;stroke-linejoin:miter;stroke-dasharray:none"
         id="path1159"
         inkscape:connector-curvature="0" />
      <g
         id="Layer1002">
        <path
           d="m 373.304,589.1124 c 18.2223,-3.1448 33.5064,-11.8602 44.2244,-27.1325 -3.5941,14.9422 -29.8356,29.8616 -44.2244,27.1325 z"
           style="fill:#1b1918;fill-rule:evenodd;stroke:#1b1918;stroke-width:1.41729999;stroke-linecap:round;stroke-linejoin:round;stroke-dasharray:none"
           id="path1161"
           inkscape:connector-curvature="0" />
        <path
           d="m 416.395,573.1142 c -1.925,9.1248 -18.6233,22.4738 -31.206,19.9478 12.5497,-2.2119 24.5839,-10.4598 31.206,-19.9478 z"
           style="fill:#1b1918;fill-rule:evenodd;stroke:#1b1918;stroke-width:1.41729999;stroke-linecap:round;stroke-linejoin:round;stroke-dasharray:none"
           id="path1163"
           inkscape:connector-curvature="0" />
        <path
           d="m 402.6401,594.5045 c 3.7726,-1.5423 8.1175,-4.3907 10.6208,-7.739 -0.181,4.9412 -6,8.7736 -10.6208,7.739 z"
           style="fill:#1b1918;fill-rule:evenodd;stroke:#1b1918;stroke-width:1.41729999;stroke-linecap:round;stroke-linejoin:round;stroke-dasharray:none"
           id="path1165"
           inkscape:connector-curvature="0" />
      </g>
      <g
         id="Layer1003">
        <path
           d="m 368.807,661.4271 c -14.9008,3.6785 -23.0187,9.141 -32.953,21.1362 4.0598,-11.4869 20.9991,-23.2233 32.953,-21.1362 z"
           style="fill:#1b1918;fill-rule:evenodd;stroke:#1b1918;stroke-width:1.41729999;stroke-linecap:round;stroke-linejoin:round;stroke-dasharray:none"
           id="path1168"
           inkscape:connector-curvature="0" />
        <path
           d="m 358.8875,657.6775 c -8.4411,2.5666 -14.7933,7.5508 -20.9802,13.6715 3.7258,-8.839 12.5869,-14.5944 20.9802,-13.6715 z"
           style="fill:#1b1918;fill-rule:evenodd;stroke:#1b1918;stroke-width:1.41729999;stroke-linecap:round;stroke-linejoin:round;stroke-dasharray:none"
           id="path1170"
           inkscape:connector-curvature="0" />
        <path
           d="m 340.6111,660.9923 c 0.3465,-3.5826 4.5084,-7.2036 8.5375,-5.5247 -2.6999,0.636 -6.6518,3.138 -8.5375,5.5247 z"
           style="fill:#1b1918;fill-rule:evenodd;stroke:#1b1918;stroke-width:1.41729999;stroke-linecap:round;stroke-linejoin:round;stroke-dasharray:none"
           id="path1172"
           inkscape:connector-curvature="0" />
      </g>
      <g
         id="Layer1004">
        <path
           d="m 220.4852,684.225 c 18.2223,-3.1448 33.5064,-11.8602 44.2244,-27.1324 -3.5941,14.9421 -29.8356,29.8616 -44.2244,27.1324 z"
           style="fill:#1b1918;fill-rule:evenodd;stroke:#1b1918;stroke-width:1.41729999;stroke-linecap:round;stroke-linejoin:round;stroke-dasharray:none"
           id="path1175"
           inkscape:connector-curvature="0" />
        <path
           d="m 263.5762,668.2269 c -1.925,9.1248 -18.6233,22.4738 -31.206,19.9477 12.5497,-2.2119 24.5839,-10.4597 31.206,-19.9477 z"
           style="fill:#1b1918;fill-rule:evenodd;stroke:#1b1918;stroke-width:1.41729999;stroke-linecap:round;stroke-linejoin:round;stroke-dasharray:none"
           id="path1177"
           inkscape:connector-curvature="0" />
        <path
           d="m 249.8213,689.6172 c 3.7726,-1.5424 8.1175,-4.3908 10.6208,-7.7391 -0.181,4.9412 -6,8.7736 -10.6208,7.7391 z"
           style="fill:#1b1918;fill-rule:evenodd;stroke:#1b1918;stroke-width:1.41729999;stroke-linecap:round;stroke-linejoin:round;stroke-dasharray:none"
           id="path1179"
           inkscape:connector-curvature="0" />
      </g>
      <g
         id="Layer1005">
        <path
           d="m 521.6258,566.3145 c -14.9008,3.6785 -23.0187,9.141 -32.953,21.1362 4.0598,-11.4869 20.9991,-23.2233 32.953,-21.1362 z"
           style="fill:#1b1918;fill-rule:evenodd;stroke:#1b1918;stroke-width:1.41729999;stroke-linecap:round;stroke-linejoin:round;stroke-dasharray:none"
           id="path1182"
           inkscape:connector-curvature="0" />
        <path
           d="m 511.7063,562.5649 c -8.4411,2.5666 -14.7933,7.5508 -20.9802,13.6715 3.7258,-8.839 12.5869,-14.5944 20.9802,-13.6715 z"
           style="fill:#1b1918;fill-rule:evenodd;stroke:#1b1918;stroke-width:1.41729999;stroke-linecap:round;stroke-linejoin:round;stroke-dasharray:none"
           id="path1184"
           inkscape:connector-curvature="0" />
        <path
           d="m 493.4299,565.8797 c 0.3465,-3.5826 4.5084,-7.2036 8.5375,-5.5247 -2.6999,0.636 -6.6518,3.138 -8.5375,5.5247 z"
           style="fill:#1b1918;fill-rule:evenodd;stroke:#1b1918;stroke-width:1.41729999;stroke-linecap:round;stroke-linejoin:round;stroke-dasharray:none"
           id="path1186"
           inkscape:connector-curvature="0" />
      </g>
    </g>
    <g
       id="Layer1006">
      <path
         d="m 282.018,163.724 c -5.5766,4.7852 -11.9925,9.6426 -20.0758,14.6736 -33.9312,21.1187 -52.1458,17.2545 -88.4021,39.8188 -36.2551,22.5638 -40.8308,40.6154 -74.7612,61.7324 -6.2666,3.9001 -11.9954,6.946 -17.4025,9.4657 0.8519,22.2154 1.7309,52.7406 2.5025,85.9926 19.5083,-7.6526 35.4296,-10.3399 58.8172,-24.8964 33.929,-21.1164 38.5058,-39.1674 74.7601,-61.7334 36.2562,-22.5638 54.4719,-18.7005 88.4032,-39.8175 33.929,-21.1178 38.5058,-39.1682 74.7624,-61.734 12.1045,-7.5331 22.1981,-12.1198 31.5371,-15.6747 -32.4927,-4.9624 -68.6044,-8.1338 -108.7101,-8.1338 -7.2754,0 -14.4159,0.1063 -21.4308,0.3067 z"
         style="fill:#ffffff;fill-rule:evenodd;stroke:#1b1918;stroke-width:0.28349999;stroke-linecap:butt;stroke-linejoin:miter;stroke-dasharray:none"
         id="path1190"
         inkscape:connector-curvature="0" />
      <g
         id="Layer1007">
        <path
           d="m 234.0546,199.9294 c 18.2223,-3.1448 33.5064,-11.8601 44.2244,-27.1324 -3.5941,14.9422 -29.8356,29.8616 -44.2244,27.1324 z"
           style="fill:#1b1918;fill-rule:evenodd;stroke:#1b1918;stroke-width:1.41729999;stroke-linecap:round;stroke-linejoin:round;stroke-dasharray:none"
           id="path1192"
           inkscape:connector-curvature="0" />
        <path
           d="m 277.1456,183.9313 c -1.9251,9.1248 -18.6233,22.4738 -31.206,19.9477 12.5497,-2.2119 24.5839,-10.4597 31.206,-19.9477 z"
           style="fill:#1b1918;fill-rule:evenodd;stroke:#1b1918;stroke-width:1.41729999;stroke-linecap:round;stroke-linejoin:round;stroke-dasharray:none"
           id="path1194"
           inkscape:connector-curvature="0" />
        <path
           d="m 263.3907,205.3216 c 3.7726,-1.5424 8.1175,-4.3908 10.6207,-7.7391 -0.1809,4.9413 -5.9999,8.7736 -10.6207,7.7391 z"
           style="fill:#1b1918;fill-rule:evenodd;stroke:#1b1918;stroke-width:1.41729999;stroke-linecap:round;stroke-linejoin:round;stroke-dasharray:none"
           id="path1196"
           inkscape:connector-curvature="0" />
      </g>
      <g
         id="Layer1008">
        <path
           d="m 233.7021,270.6614 c -15.0602,2.9592 -23.4308,8.0257 -33.9294,19.5303 4.6065,-11.2788 22.0895,-22.1887 33.9294,-19.5303 z"
           style="fill:#1b1918;fill-rule:evenodd;stroke:#1b1918;stroke-width:1.41729999;stroke-linecap:round;stroke-linejoin:round;stroke-dasharray:none"
           id="path1199"
           inkscape:connector-curvature="0" />
        <path
           d="m 223.974,266.4401 c -8.5545,2.1585 -15.1386,6.8321 -21.6122,12.6488 4.1458,-8.65 13.2729,-13.9735 21.6122,-12.6488 z"
           style="fill:#1b1918;fill-rule:evenodd;stroke:#1b1918;stroke-width:1.41729999;stroke-linecap:round;stroke-linejoin:round;stroke-dasharray:none"
           id="path1201"
           inkscape:connector-curvature="0" />
        <path
           d="m 205.5596,268.8739 c 0.518,-3.5618 4.8489,-6.9789 8.7929,-5.1086 -2.7274,0.5057 -6.7948,2.8151 -8.7929,5.1086 z"
           style="fill:#1b1918;fill-rule:evenodd;stroke:#1b1918;stroke-width:1.41729999;stroke-linecap:round;stroke-linejoin:round;stroke-dasharray:none"
           id="path1203"
           inkscape:connector-curvature="0" />
      </g>
      <g
         id="Layer1009">
        <path
           d="m 81.2358,295.042 c 18.2223,-3.1448 33.5064,-11.8601 44.2244,-27.1324 -3.5941,14.9422 -29.8356,29.8616 -44.2244,27.1324 z"
           style="fill:#1b1918;fill-rule:evenodd;stroke:#1b1918;stroke-width:1.41729999;stroke-linecap:round;stroke-linejoin:round;stroke-dasharray:none"
           id="path1206"
           inkscape:connector-curvature="0" />
        <path
           d="m 124.3268,279.0439 c -1.9251,9.1248 -18.6233,22.4738 -31.206,19.9477 12.5497,-2.2118 24.5839,-10.4597 31.206,-19.9477 z"
           style="fill:#1b1918;fill-rule:evenodd;stroke:#1b1918;stroke-width:1.41729999;stroke-linecap:round;stroke-linejoin:round;stroke-dasharray:none"
           id="path1208"
           inkscape:connector-curvature="0" />
        <path
           d="m 110.5719,300.4342 c 3.7726,-1.5423 8.1175,-4.3908 10.6207,-7.7391 -0.1809,4.9413 -5.9999,8.7736 -10.6207,7.7391 z"
           style="fill:#1b1918;fill-rule:evenodd;stroke:#1b1918;stroke-width:1.41729999;stroke-linecap:round;stroke-linejoin:round;stroke-dasharray:none"
           id="path1210"
           inkscape:connector-curvature="0" />
      </g>
      <g
         id="Layer1010">
        <path
           d="m 382.3764,177.1315 c -14.9008,3.6785 -23.0187,9.141 -32.953,21.1362 4.0598,-11.4868 20.9991,-23.2233 32.953,-21.1362 z"
           style="fill:#1b1918;fill-rule:evenodd;stroke:#1b1918;stroke-width:1.41729999;stroke-linecap:round;stroke-linejoin:round;stroke-dasharray:none"
           id="path1213"
           inkscape:connector-curvature="0" />
        <path
           d="m 372.4569,173.3819 c -8.4412,2.5666 -14.7933,7.5508 -20.9803,13.6716 3.7259,-8.8391 12.587,-14.5945 20.9803,-13.6716 z"
           style="fill:#1b1918;fill-rule:evenodd;stroke:#1b1918;stroke-width:1.41729999;stroke-linecap:round;stroke-linejoin:round;stroke-dasharray:none"
           id="path1215"
           inkscape:connector-curvature="0" />
        <path
           d="m 354.1804,176.6967 c 0.3466,-3.5825 4.5084,-7.2036 8.5376,-5.5247 -2.6999,0.636 -6.6518,3.138 -8.5376,5.5247 z"
           style="fill:#1b1918;fill-rule:evenodd;stroke:#1b1918;stroke-width:1.41729999;stroke-linecap:round;stroke-linejoin:round;stroke-dasharray:none"
           id="path1217"
           inkscape:connector-curvature="0" />
      </g>
      <path
         d="m 269.9779,173.0874 c -2.4922,1.751 -5.1588,3.5201 -8.0359,5.3107 -33.9302,21.1179 -52.1468,17.2531 -88.4019,39.8177 -36.2551,22.565 -40.8316,40.6157 -74.7618,61.7335 -7.6872,4.7843 -14.5683,8.2868 -21.0347,11.1045"
         style="fill:none;stroke:#1b1918;stroke-width:4.25199986;stroke-linecap:butt;stroke-linejoin:miter;stroke-dasharray:none"
         id="path1220"
         inkscape:connector-curvature="0" />
      <path
         d="m 80.7996,376.6456 c 20.9492,-8.6445 37.2909,-10.821 61.8956,-26.1346 33.9302,-21.1178 38.5067,-39.1685 74.7618,-61.7332 36.2551,-22.5646 54.4717,-18.7001 88.4018,-39.818 33.9305,-21.1178 38.507,-39.1685 74.7621,-61.7332 4.9771,-3.0977 9.6143,-5.6973 13.9983,-7.9319"
         style="fill:none;stroke:#1b1918;stroke-width:4.25199986;stroke-linecap:butt;stroke-linejoin:miter;stroke-dasharray:none"
         id="path1222"
         inkscape:connector-curvature="0" />
    </g>
    <g
       id="Layer1011">
      <g
         id="Layer1012">
        <path
           d="m 291.2803,288.5698 28.4981,-48.6346 14.2061,1.781 -25.3358,43.2377 z"
           style="fill:#ffffff;fill-rule:evenodd;stroke:#1b1918;stroke-width:3.68499994;stroke-linecap:butt;stroke-linejoin:miter;stroke-dasharray:none"
           id="path1225"
           inkscape:connector-curvature="0" />
        <path
           d="m 237.8931,304.0301 7.7172,-55.8383 13.8063,-3.791 -6.8609,49.642 z"
           style="fill:#ffffff;fill-rule:evenodd;stroke:#1b1918;stroke-width:3.68499994;stroke-linecap:butt;stroke-linejoin:miter;stroke-dasharray:none"
           id="path1227"
           inkscape:connector-curvature="0" />
        <path
           d="m 194.4862,338.744 -14.2387,-54.5411 11.3046,-8.7859 12.6586,48.4888 z"
           style="fill:#ffffff;fill-rule:evenodd;stroke:#1b1918;stroke-width:3.68499994;stroke-linecap:butt;stroke-linejoin:miter;stroke-dasharray:none"
           id="path1229"
           inkscape:connector-curvature="0" />
        <path
           d="m 167.6679,387.4265 -34.0268,-44.9405 7.0819,-12.4432 30.2508,39.9536 z"
           style="fill:#ffffff;fill-rule:evenodd;stroke:#1b1918;stroke-width:3.68499994;stroke-linecap:butt;stroke-linejoin:miter;stroke-dasharray:none"
           id="path1231"
           inkscape:connector-curvature="0" />
        <path
           d="m 161.5209,442.6662 -48.6345,-28.4981 1.781,-14.2061 43.2377,25.3358 z"
           style="fill:#ffffff;fill-rule:evenodd;stroke:#1b1918;stroke-width:3.68499994;stroke-linecap:butt;stroke-linejoin:miter;stroke-dasharray:none"
           id="path1233"
           inkscape:connector-curvature="0" />
        <path
           d="m 176.9813,496.0534 -55.8383,-7.7172 -3.791,-13.8063 49.642,6.8609 z"
           style="fill:#ffffff;fill-rule:evenodd;stroke:#1b1918;stroke-width:3.68499994;stroke-linecap:butt;stroke-linejoin:miter;stroke-dasharray:none"
           id="path1235"
           inkscape:connector-curvature="0" />
        <path
           d="m 211.6951,539.4603 -54.541,14.2386 -8.7859,-11.3046 48.4888,-12.6586 z"
           style="fill:#ffffff;fill-rule:evenodd;stroke:#1b1918;stroke-width:3.68499994;stroke-linecap:butt;stroke-linejoin:miter;stroke-dasharray:none"
           id="path1237"
           inkscape:connector-curvature="0" />
        <path
           d="m 260.3777,566.2786 -44.9405,34.0267 -12.4432,-7.0818 39.9536,-30.2509 z"
           style="fill:#ffffff;fill-rule:evenodd;stroke:#1b1918;stroke-width:3.68499994;stroke-linecap:butt;stroke-linejoin:miter;stroke-dasharray:none"
           id="path1239"
           inkscape:connector-curvature="0" />
        <path
           d="m 315.6174,572.4255 -28.4981,48.6346 -14.2061,-1.781 25.3357,-43.2377 z"
           style="fill:#ffffff;fill-rule:evenodd;stroke:#1b1918;stroke-width:3.68499994;stroke-linecap:butt;stroke-linejoin:miter;stroke-dasharray:none"
           id="path1241"
           inkscape:connector-curvature="0" />
        <path
           d="m 369.0046,556.9652 -7.7172,55.8382 -13.8063,3.791 6.8608,-49.642 z"
           style="fill:#ffffff;fill-rule:evenodd;stroke:#1b1918;stroke-width:3.68499994;stroke-linecap:butt;stroke-linejoin:miter;stroke-dasharray:none"
           id="path1243"
           inkscape:connector-curvature="0" />
        <path
           d="m 412.4115,522.2513 14.2386,54.5411 -11.3046,8.7858 -12.6586,-48.4887 z"
           style="fill:#ffffff;fill-rule:evenodd;stroke:#1b1918;stroke-width:3.68499994;stroke-linecap:butt;stroke-linejoin:miter;stroke-dasharray:none"
           id="path1245"
           inkscape:connector-curvature="0" />
        <path
           d="m 439.2298,473.5688 34.0267,44.9405 -7.0819,12.4431 -30.2508,-39.9535 z"
           style="fill:#ffffff;fill-rule:evenodd;stroke:#1b1918;stroke-width:3.68499994;stroke-linecap:butt;stroke-linejoin:miter;stroke-dasharray:none"
           id="path1247"
           inkscape:connector-curvature="0" />
        <path
           d="m 445.3767,418.3291 48.6346,28.4981 -1.781,14.2061 -43.2377,-25.3358 z"
           style="fill:#ffffff;fill-rule:evenodd;stroke:#1b1918;stroke-width:3.68499994;stroke-linecap:butt;stroke-linejoin:miter;stroke-dasharray:none"
           id="path1249"
           inkscape:connector-curvature="0" />
        <path
           d="m 429.9164,364.9419 55.8382,7.7172 3.791,13.8063 -49.642,-6.8609 z"
           style="fill:#ffffff;fill-rule:evenodd;stroke:#1b1918;stroke-width:3.68499994;stroke-linecap:butt;stroke-linejoin:miter;stroke-dasharray:none"
           id="path1251"
           inkscape:connector-curvature="0" />
        <path
           d="m 395.2025,321.535 54.5411,-14.2386 8.7858,11.3046 -48.4887,12.6585 z"
           style="fill:#ffffff;fill-rule:evenodd;stroke:#1b1918;stroke-width:3.68499994;stroke-linecap:butt;stroke-linejoin:miter;stroke-dasharray:none"
           id="path1253"
           inkscape:connector-curvature="0" />
        <path
           d="m 346.52,294.7167 44.9404,-34.0268 12.4432,7.0819 -39.9535,30.2509 z"
           style="fill:#ffffff;fill-rule:evenodd;stroke:#1b1918;stroke-width:3.68499994;stroke-linecap:butt;stroke-linejoin:miter;stroke-dasharray:none"
           id="path1255"
           inkscape:connector-curvature="0" />
      </g>
      <path
         d="M 303.4488,276.3183 A 154.1794,154.1794 0 0 1 457.6282,430.4976 154.1794,154.1794 0 1 1 303.4488,276.3183 Z"
         style="fill:#ffffff;fill-rule:evenodd;stroke:#1b1918;stroke-width:3.68499994;stroke-linecap:butt;stroke-linejoin:miter;stroke-dasharray:none"
         id="path1258"
         inkscape:connector-curvature="0" />
      <g
         id="Layer1013">
        <path
           d="M 303.4488,323.3967 A 107.1009,107.1009 0 0 1 410.5498,430.4976 107.1009,107.1009 0 1 1 303.4488,323.3967 Z"
           style="fill:#009634;fill-rule:evenodd;stroke:#1b1918;stroke-width:3.68499994;stroke-linecap:butt;stroke-linejoin:miter;stroke-dasharray:none"
           id="path1260"
           inkscape:connector-curvature="0" />
        <path
           d="m 203.7458,469.5676 67.6718,-39.0702 -67.6715,-39.07 c 3.9648,-10.0635 9.4161,-19.387 16.0756,-27.7058 l 67.6114,39.0359 v -78.1591 c 5.2265,-0.7897 10.5746,-1.2019 16.0157,-1.2019 5.4414,0 10.7887,0.4124 16.0158,1.2022 v 78.1588 l 67.6105,-39.035 c 6.6597,8.3182 12.1102,17.6425 16.0764,27.7046 l -67.6712,39.0703 67.6715,39.0702 c -3.9645,10.0632 -9.417,19.3867 -16.0758,27.7052 l -67.6114,-39.0356 v 78.1594 c -5.2268,0.7897 -10.5744,1.2022 -16.0158,1.2022 -5.4408,0 -10.7892,-0.4125 -16.0157,-1.2019 v -78.1597 l -67.6123,39.0362 c -6.6591,-8.3186 -12.1102,-17.6423 -16.075,-27.7058 z"
           style="fill:#ffffff;fill-rule:evenodd;stroke:#1b1918;stroke-width:3.68499994;stroke-linecap:butt;stroke-linejoin:miter;stroke-dasharray:none"
           id="path1262"
           inkscape:connector-curvature="0" />
      </g>
      <g
         id="Layer1014">
        <path
           d="m 303.4488,396.0788 a 34.4188,34.4188 0 0 1 34.4189,34.4188 34.4188,34.4188 0 1 1 -34.4189,-34.4188 z"
           style="fill:#ffffff;fill-rule:evenodd;stroke:#1b1918;stroke-width:3.68499994;stroke-linecap:butt;stroke-linejoin:miter;stroke-dasharray:none"
           id="path1265"
           inkscape:connector-curvature="0" />
        <path
           d="m 288.2553,430.4976 15.1935,15.1935 15.1935,-15.1935 -15.1935,-15.1935 z"
           style="fill:#009634;fill-rule:evenodd;stroke:#1b1918;stroke-width:3.68499994;stroke-linecap:butt;stroke-linejoin:miter;stroke-dasharray:none"
           id="path1267"
           inkscape:connector-curvature="0" />
      </g>
    </g>
    <g
       id="Layer1015">
      <path
         d="m 60.7351,224.1204 c -0.3464,-0.1653 -0.6965,-0.3243 -1.0497,-0.4759 8.7988,-9.6568 17.5686,-23.0091 22.5159,-31.4362 3.8129,3.0279 5.8272,3.939 14.5763,1.3682 52.9651,-15.5633 120.6295,-30.1592 206.6712,-30.1592 86.0417,0 153.7061,14.5959 206.6712,30.1592 8.7491,2.5708 10.7634,1.6597 14.5763,-1.3682 4.9473,8.4271 13.7171,21.7794 22.5159,31.4362 -0.3532,0.1516 -0.7033,0.3106 -1.0497,0.4759 -39.7054,-17.3982 -124.8179,-51.4613 -242.7137,-51.4613 -117.8957,0 -203.0082,34.0631 -242.7137,51.4613 z"
         style="fill:#ffffff;fill-rule:evenodd"
         id="path1271"
         inkscape:connector-curvature="0" />
      <path
         d="m 551.0222,226.2626 c -37.3249,-16.5572 -124.6283,-53.6035 -247.5734,-53.6035 -122.9451,0 -210.2485,37.0463 -247.5734,53.6035"
         style="fill:none;stroke:#1b1918;stroke-width:4.25199986;stroke-linecap:butt;stroke-linejoin:miter;stroke-dasharray:none"
         id="path1273"
         inkscape:connector-curvature="0" />
    </g>
  </g>
</svg>
