<?xml version="1.0" encoding="UTF-8" standalone="no"?>
<!-- Creator: CorelDRAW -->

<svg
   xml:space="preserve"
   width="105mm"
   height="138mm"
   style="shape-rendering:geometricPrecision; text-rendering:geometricPrecision; image-rendering:optimizeQuality; fill-rule:evenodd; clip-rule:evenodd"
   viewBox="0 0 105 138"
   version="1.1"
   id="svg109"
   sodipodi:docname="Wappen_Korbach.svg"
   inkscape:version="1.1.1 (3bf5ae0d25, 2021-09-20)"
   xmlns:inkscape="http://www.inkscape.org/namespaces/inkscape"
   xmlns:sodipodi="http://sodipodi.sourceforge.net/DTD/sodipodi-0.dtd"
   xmlns="http://www.w3.org/2000/svg"
   xmlns:svg="http://www.w3.org/2000/svg"><sodipodi:namedview
   id="namedview111"
   pagecolor="#ffffff"
   bordercolor="#666666"
   borderopacity="1.0"
   inkscape:pageshadow="2"
   inkscape:pageopacity="0.0"
   inkscape:pagecheckerboard="0"
   inkscape:document-units="mm"
   showgrid="false"
   inkscape:zoom="1.5951691"
   inkscape:cx="149.51393"
   inkscape:cy="276.14627"
   inkscape:window-width="1920"
   inkscape:window-height="1017"
   inkscape:window-x="-8"
   inkscape:window-y="-8"
   inkscape:window-maximized="1"
   inkscape:current-layer="_225687680" />
 <defs
   id="defs4">
  <style
   type="text/css"
   id="style2">
   <![CDATA[
    .str1 {stroke:#033C77;stroke-width:0.2143}
    .str0 {stroke:#BBA112;stroke-width:0.3215}
    .str4 {stroke:#033C77;stroke-width:0.4286}
    .str2 {stroke:#1F1A17;stroke-width:0.4286}
    .str3 {stroke:#033C77;stroke-width:0.5358}
    .str6 {stroke:#1F1A17;stroke-width:0.5513}
    .str5 {stroke:#1F1A17;stroke-width:0.6429}
    .str7 {stroke:#1F1A17;stroke-width:0.7352}
    .fil5 {fill:none}
    .fil2 {fill:#1F1A17}
    .fil1 {fill:#033C77}
    .fil4 {fill:#1F1A17}
    .fil0 {fill:#BBA112}
    .fil3 {fill:white}
   ]]>
  </style>
 </defs>
 <g
   id="Ebene_x0020_1"
   inkscape:label="Ebene 1">
  <metadata
   id="CorelCorpID_0Corel-Layer" />
  <g
   id="_225687680">
   <path
   id="_225687728"
   class="fil0 str0"
   d="M2.558 82.9241c0,0 -0.4588,31.9298 49.6239,53.1853l0.1654 0c50.0826,-21.2555 49.6237,-53.1853 49.6237,-53.1853l-99.413 0z"
   style="fill:#fcdd09;stroke:#fcdd09;stroke-opacity:1" />
   <path
   id="_225687752"
   class="fil1 str1"
   d="M101.968 82.9241c1.6092,-20.9062 -0.4589,-50.5416 -0.4589,-50.5416 -1.3777,-24.3509 1.8387,-31.1299 1.8387,-31.1299l-51.0015 0 -0.1664 0 -51.0005 0c0,0 3.2153,6.779 1.8376,31.1299 0,0 -2.0681,29.6354 -0.4609,50.5416l99.4119 0z"
   style="fill:#0f47af;stroke:#0f47af;stroke-opacity:1" />
   <path
   id="_225687968"
   class="fil2 str2"
   d="M61.0557 14.4363l4.595 7.9024c-0.5498,2.2056 -2.3874,4.2271 -2.7564,6.6146 0.9178,2.7554 2.5735,6.2508 0.5488,9.0062 -0.7317,2.0205 -3.4881,0.7358 -3.8571,3.1254 -0.1829,1.1027 -1.2857,1.6536 -0.7348,2.9414 5.6988,1.8376 11.7636,3.1233 17.4594,5.3289 1.2867,-1.8377 2.0246,-3.8613 3.1253,-5.8829 0.3659,0.184 0.7349,0 0.9178,-0.1819 -0.1829,-0.7379 -0.5519,-1.6557 0.183,-2.2055 0.5529,-0.368 1.2888,-0.552 2.0246,-0.1861l1.2837 -2.9393c-0.9178,-0.5519 -1.1007,-1.6557 -0.5519,-2.5735 0.369,-0.7338 1.2867,-0.7338 2.0236,-0.7338 1.4708,-4.5951 7.1665,-6.9825 6.9836,-12.1295 0,-2.5735 -0.7369,-5.5128 -3.3083,-6.8006 -0.184,4.2271 1.2877,10.1079 -3.3084,12.4953 -1.8386,1.1059 -4.41,1.4697 -6.4306,0.7359 -2.2076,-0.7359 -4.5951,-2.3875 -5.3299,-4.779 -0.9209,-3.3063 -0.369,-7.3505 2.2045,-10.108 1.8387,-2.5734 5.5129,-2.0195 6.6167,-4.9609 1.2846,-0.7338 1.8355,1.4697 2.7564,1.8376 4.0431,0.368 8.4553,2.3906 10.1079,6.6187 0.9178,0.5478 2.0216,0.5478 2.9425,1.0997l-2.2077 3.1244c-0.185,5.3299 -3.4912,9.1891 -6.7996,13.2322 -1.8386,1.8397 1.8356,3.3115 -1.1017,4.962 1.8376,6.9836 4.2251,13.7852 6.4317,20.5869 -1.1028,3.858 -2.3906,7.7162 -3.3104,11.5754 -2.3885,3.6752 -5.1449,7.9044 -7.1645,11.3977l-62.1211 0c-2.5725,-4.5971 -5.1449,-9.0082 -7.7184,-13.9691 1.2857,-4.4091 3.3073,-8.4563 5.1459,-12.4953 -0.5509,-2.5776 -1.1017,-5.149 -0.7348,-7.7204 0.9178,-0.3701 0.1839,-1.2878 0.1839,-2.0237 -2.9424,-1.2857 -6.6187,-1.2857 -9.189,-3.4892l1.4686 -7.7205c4.0442,-3.3093 1.4717,-9.1901 2.2055,-13.7831l16.3577 0 0 20.5817c-1.8397,0.186 -4.0442,-0.1819 -5.8828,0.37 1.4727,3.3073 2.3915,7.1686 3.8602,10.6598l0.3679 0 2.7575 -4.595c4.9609,-2.0237 9.9239,-3.8613 14.8869,-5.6989 0.3679,-1.4687 -0.9198,-2.5714 -1.1017,-4.0411 -0.738,0.5498 -1.6557,0 -2.3916,-0.553 -1.4697,-1.1027 -1.8366,-2.9404 -1.8366,-4.5961 0,-2.0205 0.7349,-3.6752 1.2857,-5.5128 -0.5508,-2.2014 -1.4707,-4.409 -2.5724,-6.6146 3.3083,-6.4327 6.9845,-13.4173 12.8643,-18.5622 3.4913,3.1234 6.0657,6.7986 8.8211,10.6598z"
   style="stroke:#000000;stroke-opacity:1;fill:#000000;fill-opacity:1" />
   <path
   id="_225688064"
   class="fil0 str0"
   d="M53.8903 25.83c-0.9198,0 -1.8407,0.3658 -2.7585,0l-0.3679 -18.7472 1.6557 -1.6506 1.6537 1.8356 -0.183 18.5622z"
   style="stroke:#fcdb09;stroke-opacity:1;fill:#fcdd09" />
   <path
   id="_225688136"
   class="fil2 str2"
   d="M53.5213 8.3716c0,0.5498 -0.1839,1.0997 -0.7358,1.2857 -0.5509,0.184 -1.1038,-0.186 -1.2868,-0.5519 -0.1819,-0.5519 0.183,-0.9188 0.368,-1.4697 0.7358,0 1.4707,0.184 1.6546,0.7359z"
   style="fill:#000000;stroke:#000000;stroke-opacity:1" />
   <path
   id="_225688208"
   class="fil0 str0"
   d="M46.5388 14.9841c-1.8386,2.9435 -3.4933,6.0689 -4.779,9.0093l-1.1028 -1.8407c2.9394,-4.591 5.3299,-9.3721 9.3731,-13.5992 0.3679,2.7575 -2.5725,4.0432 -3.4913,6.4306z"
   style="stroke:#fcdb09;stroke-opacity:1;fill:#fcdd09" />
   <path
   id="_225688280"
   class="fil0 str0"
   d="M63.9971 22.8896l-0.554 1.2847c-2.3874,-4.4091 -5.1428,-8.8202 -8.4521,-13.4152 0.184,-0.5509 -0.1829,-1.2878 0.184,-1.6537 3.6762,4.2282 6.8016,8.8222 8.8221,13.7842z"
   style="stroke:#fcdb09;stroke-opacity:1;fill:#fcdd09" />
   <path
   id="_226306576"
   class="fil0 str0"
   d="m 92.8522,15.3541 c 1.6526,1.1017 1.2867,4.2271 3.8602,3.8592 l 0.3659,0.184 c -2.7564,1.2857 -1.1018,3.6752 -2.3895,5.6989 -0.9178,4.2271 -5.3279,7.1644 -6.9836,11.0256 -0.369,0.182 -1.1007,-0.1839 -1.2867,-0.7358 0.9177,-4.5951 7.1685,-7.3505 6.9856,-12.4964 0.7348,-3.4923 -1.1038,-6.8017 -4.0432,-8.4533 -2.7564,-1.2877 -6.6166,-1.4696 -9.1901,0.368 -2.0216,1.6515 -3.8602,3.8571 -3.4923,6.4306 -0.184,1.6547 0.9188,3.1233 2.2055,4.4132 1.2868,0.5477 2.9415,0.9177 4.2272,0.5477 1.4686,-0.9177 2.2055,-2.3874 1.6547,-3.8571 -1.615609,-2.666066 -2.794966,-1.488775 -4.2292,-1.6557 0.186,-0.9178 0.9208,-1.6557 1.8386,-2.0216 1.6536,0.184 3.57e-4,-1.808279 1.287057,-2.360179 1.1007,0.3679 1.654343,1.626379 2.207343,2.360179 l 1.8355,-1.6515 c 0.369,2.9393 0.7369,6.4306 -1.1007,8.8201 -1.1038,1.4696 -2.7595,2.3874 -4.5951,2.5734 -2.3905,0 -4.2271,-1.2877 -5.6988,-2.9414 -2.3875,-2.2055 -1.4697,-6.4347 -0.368,-9.0062 1.6547,-2.0195 3.6763,-4.2271 6.6187,-4.5929 l 0.5499,-1.2878 c 2.9383,2.5735 7.3504,1.1038 9.741,4.779 z"
   style="fill:#fcdd09;stroke:#fcdb09;stroke-opacity:1"
   sodipodi:nodetypes="ccccccccccccccccccccccccc" />
   <path
   id="_226306648"
   class="fil3"
   d="M50.0301 25.83l-7.1675 1.1017c-0.5509,-1.1017 -0.7349,-2.2055 0,-3.4912 2.2045,-3.8593 4.0421,-7.9024 6.7995,-11.3937 0.552,4.2251 0.184,8.8212 0.368,13.7832z" />
   <path
   id="_226306768"
   class="fil2 str2"
   d="M53.5213 13.1486c0,0.7359 -0.1839,1.1027 -0.7358,1.2877 -0.7359,0 -1.4687,-0.185 -1.2868,-1.1027 0,-1.2868 2.0226,-1.1049 2.0226,-0.185z"
   style="fill:#000000;stroke:#000000;stroke-opacity:1" />
   <path
   id="_226306840"
   class="fil3"
   d="M62.7114 24.9112c0,0.7369 -0.3659,1.6546 -0.9198,1.8407 -2.2056,-0.1861 -4.4101,-0.738 -6.8006,-0.9219 0,-4.2292 -0.3658,-9.0062 0.184,-13.2333 2.9413,4.0431 5.8807,7.9044 7.5364,12.3145z" />
   <path
   id="_226306912"
   class="fil1 str3"
   d="M88.4421 15.3541l-2.3926 1.1017c-1.1007,-0.5498 -2.0206,-1.2856 -3.4882,-1.1017 0.3659,2.5735 -2.3905,2.7554 -3.1254,4.963 -0.1829,0.5509 0.183,1.2837 0.3659,1.8356 1.1038,0 3.3094,-1.4697 3.6773,0.37 0.183,0.5498 0.5498,1.6516 -0.186,2.0216 -0.9178,0.9177 -2.2035,0.3669 -3.3073,0.1819 -1.6506,-0.9178 -2.3885,-2.9404 -2.2035,-4.5951 0.3669,-2.2035 2.0195,-4.0432 4.0432,-4.9609 2.0195,-0.5519 4.779,-0.7339 6.6166,0.1839z"
   style="fill:#0f47af;stroke:#0f47af;stroke-opacity:1" />
   <path
   id="_226307008"
   class="fil2 str2"
   d="M53.5213 18.6614c0,0.7359 -0.5508,1.1038 -1.2867,0.9198 -0.3679,0 -0.5529,-0.3679 -0.9178,-0.7358 0,-0.7359 0.7328,-1.1028 1.2857,-1.2837 0.5509,0 0.9188,0.5478 0.9188,1.0997z"
   style="fill:#000000;stroke:#000000;stroke-opacity:1" />
   <path
   id="_226307080"
   class="fil2 str2"
   d="M53.5213 23.6265c0,0.3669 -0.1839,0.7317 -0.5508,1.0997 -0.9209,0.185 -1.2888,-0.1819 -1.6537,-0.9178 0,-0.5519 0.3649,-0.9188 0.7328,-1.1038 0.7359,-0.1819 1.4717,0.185 1.4717,0.9219z"
   style="fill:#000000;stroke:#000000;stroke-opacity:1" />
   <path
   id="_226307152"
   class="fil3"
   d="M21.174 23.6265c-1.2857,0.9178 -3.6742,0.3669 -5.5129,0.5478 -0.3679,2.2076 0.368,5.3319 -0.5519,7.1685l-0.1819 -7.7163 6.2467 0z" />
   <path
   id="_226307224"
   class="fil3"
   d="M28.7105 31.1609l-0.7359 -0.5519 0 -6.4347c-1.8366,-0.3659 -4.0442,0.5519 -5.5118,-0.5478l6.2477 0 0 7.5344z" />
   <path
   id="_226307296"
   class="fil3"
   d="M27.9746 32.2606l-6.2477 8.2723c-1.6547,-2.0215 -3.8602,-4.2291 -4.778,-6.6166 -0.5529,-0.5519 -1.1038,-0.5519 -1.2878,-1.2857l0 -0.37 6.0658 -7.7163c2.2035,2.0215 4.0421,5.1428 6.2477,7.7163z" />
   <path
   id="_226307368"
   class="fil0 str0"
   d="M26.8728 29.1393l-2.9424 -3.8612c0.9188,-0.1819 2.0226,-0.1819 2.9424,-0.1819l0 4.0431z"
   style="stroke:#fcdb09;stroke-opacity:1;fill:#fcdd09" />
   <polygon
   id="_226307440"
   class="fil0 str0"
   points="16.7639,29.1393 16.7639,25.2781 19.7053,25.2781 "
   style="stroke:#fcdb09;stroke-opacity:1;fill:#fcdd09" />
   <path
   id="_226307512"
   class="fil2"
   d="M26.8728 32.4456c-1.4707,2.2066 -3.4923,4.2282 -4.9609,6.4316 -1.6568,-2.0195 -3.6773,-4.039 -5.148,-6.2466l0 -0.37 4.963 -6.0648 5.1459 6.2498z"
   style="fill:#000000" />
   <path
   id="_225733672"
   class="fil0 str0"
   d="M61.7916 27.8516l-0.7359 2.2055c-5.5128,-0.5509 -11.7615,-0.9178 -17.0914,0.184 -0.7348,-0.554 -0.7348,-1.4718 -0.9188,-2.3895 5.5139,-1.6558 12.8633,-1.8377 18.7461,0z"
   style="stroke:#fcdb09;stroke-opacity:1;fill:#fcdd09" />
   <path
   id="_225733744"
   class="fil1 str3"
   d="M26.3209 32.4456c-1.2867,1.6547 -3.1254,3.8582 -4.594,5.5139 -1.6547,-1.4697 -2.7564,-3.6732 -4.4121,-5.5139l4.4121 -5.5139 4.594 5.5139z"
   style="fill:#0f47af;stroke:#0f47af;stroke-opacity:1" />
   <path
   id="_225733864"
   class="fil2 str2"
   d="M53.1534 27.8516c0,0.3658 -0.1829,0.9177 -0.9188,0.9177 -0.3679,0 -0.7359,-0.1819 -0.7359,-0.7338 -0.1819,-0.3658 0.183,-0.9198 0.7359,-0.9198 0.3679,0 0.7359,0.1839 0.9188,0.7359z"
   style="fill:#000000;stroke:#000000;stroke-opacity:1" />
   <path
   id="_225733936"
   class="fil2 str2"
   d="M49.4792 28.5874c-0.369,0.1819 -0.7369,0.7359 -1.1038,0.1819 -0.369,-0.1819 -0.369,-0.5519 -0.369,-0.9177 0.553,-1.2858 2.2077,-0.368 1.4728,0.7358z"
   style="fill:#000000;stroke:#000000;stroke-opacity:1" />
   <path
   id="_225734008"
   class="fil2 str2"
   d="M56.8296 28.2174c-0.183,0.5519 -0.7349,0.9219 -1.2867,0.5519 -0.3679,-0.3659 -0.3679,-0.9177 0,-1.4697 0.7348,-0.1839 1.2867,0.184 1.2867,0.9178z"
   style="fill:#000000;stroke:#000000;stroke-opacity:1" />
   <path
   id="_225734080"
   class="fil2 str2"
   d="M60.5058 28.4034c0,0.7359 -0.5508,0.9199 -0.9198,0.9199 -0.5519,0 -0.5519,-0.37 -0.7348,-0.7359 -0.183,-0.5519 0.1829,-0.7358 0.5519,-0.9177 0.5519,0 1.1027,0.1819 1.1027,0.7337z"
   style="fill:#000000;stroke:#000000;stroke-opacity:1" />
   <path
   id="_225734152"
   class="fil2 str2"
   d="M45.9869 29.1393c-0.3679,0.3669 -0.7359,0.3669 -1.2867,0.184 -0.185,-0.37 -0.368,-0.7359 -0.185,-1.1059 0.7358,-1.1017 2.0236,0 1.4717,0.9219z"
   style="fill:#000000;stroke:#000000;stroke-opacity:1" />
   <path
   id="_225734224"
   class="fil2"
   d="M25.5871 32.4456c-0.9198,1.4707 -2.3916,3.3104 -3.6752,4.7759l-0.5529 -0.1798 -3.3084 -4.2292c1.1038,-1.6516 2.2045,-3.3063 3.6763,-4.777l3.8602 4.4101z"
   style="fill:#000000" />
   <path
   id="_225734296"
   class="fil0 str0"
   d="M24.6673 32.6306c-1.1018,1.1017 -1.6547,2.3874 -2.9404,3.4912l-2.7564 -3.3093c0.5509,-1.4697 1.8376,-2.5714 2.7564,-3.6732l2.9404 3.4913z"
   style="stroke:#fcdb09;stroke-opacity:1;fill:#fcdd09" />
   <path
   id="_225734368"
   class="fil3"
   d="M62.3455 33.9163c-0.3689,0.37 -0.9209,0.37 -1.2898,0.37 -0.1819,-0.186 -0.5499,-0.554 -0.3679,-1.1038 0.3679,0 1.1038,0.9178 1.6577,0.1819 0.5488,-1.1038 -0.3689,-2.3895 -0.186,-3.3073 0.7348,0.9178 0.7348,2.7554 0.186,3.8592z" />
   <path
   id="_225734440"
   class="fil3"
   d="M59.586 30.609c-0.3659,2.3895 0.1829,6.2487 -2.9394,7.7205 -0.1839,0.9177 -0.7378,2.2034 0,2.9393 0.7349,-1.1038 0.3659,-3.1254 2.2046,-3.4933 -0.183,3.1233 -1.6527,6.2508 -3.8602,8.2703 -1.8376,0.184 -3.6742,0.3659 -5.3289,0 -2.0215,-2.5735 -3.8591,-5.147 -3.8591,-8.2703 0.5518,0.3679 1.6546,0.3679 1.6546,1.2867 0.183,0.9178 -0.185,2.0227 0.7338,2.2066 0.7349,-0.9178 0,-2.0216 -0.185,-3.1254 -3.1212,-1.1017 -2.2034,-4.595 -2.7554,-7.1685 0.9199,-0.7338 2.3896,-0.3659 3.3084,-0.7338 3.6752,0.1839 7.1665,-0.368 11.0266,0.3679z" />
   <path
   id="_225734512"
   class="fil2"
   d="M51.4987 32.4456c0.183,1.6547 0.183,2.7585 0,4.4121 -0.7348,-0.7359 -0.3669,-3.4933 -0.5508,-4.963 -1.8377,-1.1038 -3.3073,0.3659 -5.1449,-0.5519l0.1839 -0.1819 4.4111 -0.5519c1.1007,-0.184 1.1007,0.9188 1.1007,1.8366z"
   style="fill:#000000" />
   <path
   id="_225734584"
   class="fil2"
   d="M59.4031 31.1609c-1.1028,1.0997 -1.8387,-0.186 -3.1254,0.3669 0.7348,0 1.2867,0.1809 1.8386,0.7328 -1.2867,-0.7328 -1.2867,1.2878 -2.3904,1.1038 0.9207,0.5519 1.2866,-0.7338 2.2075,-0.5519 0,0.5519 -0.7349,0.9198 -1.2868,1.1038 -0.9207,0.37 -1.8385,-0.3679 -2.2054,-0.9178l0 -0.186 0.7338 0.186c0.184,-0.5529 -0.7338,-1.1038 -1.2847,-0.7379 0.3669,-0.9178 1.2847,-0.3659 1.6526,-0.9178 -3.8612,-1.1017 -1.6526,3.4954 -2.3895,5.331 0,0.1839 -0.1829,0.1839 -0.3679,0.1839 -0.183,-1.6536 -0.183,-3.6752 0,-5.6968 2.0226,-1.1038 4.413,-0.7359 6.6176,0z"
   style="fill:#000000" />
   <path
   id="_225745064"
   class="fil3"
   d="M43.2295 34.4661c0.9177,0.3721 0.5519,-1.1017 1.2857,-0.7338 0,0.554 -0.183,1.1059 -0.7338,1.2857 -1.1028,0 -1.2878,-1.1017 -1.4697,-2.0195 -0.184,-0.9177 0.1819,-1.6557 0.5509,-2.3895 0,1.0997 -0.9199,2.7554 0.3669,3.8571z" />
   <path
   id="_225745136"
   class="fil2 str2"
   d="M23.0126 32.2606c0.3679,0.7379 -0.1819,1.6557 -1.1007,1.8397 -0.5529,0.186 -1.1038,-0.7359 -1.2888,-1.1018 -0.1829,-0.7379 0.369,-1.8376 1.2888,-1.6557 0.3659,0.185 0.9188,0.3659 1.1007,0.9178z"
   style="fill:#000000;stroke:#000000;stroke-opacity:1" />
   <path
   id="_225745208"
   class="fil2"
   d="M50.2141 32.2606c-0.368,0.5519 -1.4718,0.5519 -1.2878,1.2878l1.1038 -0.3659c0,0.9178 -0.9199,0.7338 -1.6547,0.9178 -0.5529,-0.184 -1.2867,-0.184 -1.4707,-0.7359 0.7359,-0.1819 1.2867,0.5519 2.0216,0.184 -0.9199,0.1839 -1.4687,-1.6537 -2.5715,-0.9178 0,-0.5498 0.7339,-0.37 0.9178,-0.7359 0.9188,0.1861 2.2066,-0.3669 2.9415,0.3659z"
   style="fill:#000000" />
   <path
   id="_225745280"
   class="fil3"
   d="M28.5265 41.6347l-6.0637 -0.184c1.1027,-1.2857 3.4902,-0.3658 5.3278,-0.7338l0 -6.6166 0.5519 -0.368c0.368,2.3895 0.184,5.1449 0.184,7.9024z" />
   <path
   id="_225745352"
   class="fil3"
   d="M12.9057 38.6953c0,1.4697 -0.9219,2.9394 -0.7379,4.2251l0.3679 0c1.2878,-2.5694 1.1038,-6.0627 3.6763,-7.9024l0.184 0c-1.2868,2.5756 -2.7565,4.962 -2.9394,7.9024 0.7349,0.7359 1.1028,-0.3679 2.0216,-0.1819 2.5724,0.5519 5.8808,-0.7359 7.9023,1.2878l1.8377 5.8807c-0.5509,1.2857 -2.5715,0.9178 -3.8592,1.0997l-0.7359 -3.3052 0.9198 -0.184 -0.1839 -0.9198 -9.925 -2.5714c-0.7338,-1.2878 0.369,-2.7575 0.369,-4.0463 0.5498,-1.8366 0.5498,-4.0421 2.2045,-5.5139 1.2857,1.4718 -1.2868,2.5756 -1.1018,4.2292z" />
   <path
   id="_225745424"
   class="fil3"
   d="M62.1595 37.4076c-0.5519,0.3679 -1.1038,0.3679 -1.6537,0 -0.3679,-0.1861 -0.185,-0.7338 -0.185,-1.1038 0.367,0 0.367,1.1038 1.1038,1.1038 0.9209,0.186 1.1007,-0.9178 1.4697,-1.4697l0.369 -1.4718c0.1798,1.2899 -0.369,2.2077 -1.1038,2.9415z" />
   <path
   id="_225745496"
   class="fil3"
   d="M43.5964 37.5936c0.5508,0.1819 0.7358,-0.3721 0.9188,-0.5519l0 -0.7379 0.185 0c0,0.9177 0.3669,1.8396 -0.7359,2.0257 -1.1017,-0.1861 -1.4707,-1.2878 -1.8366,-2.0257l0.184 -1.2858c0.1819,0.738 0.1819,2.2035 1.2847,2.5756z" />
   <polygon
   id="_225745568"
   class="fil0 str0"
   points="23.5655,39.6152 26.8728,35.571 26.8728,39.6152 "
   style="stroke:#fcdb09;stroke-opacity:1;fill:#fcdd09" />
   <path
   id="_225745640"
   class="fil0 str0"
   d="M88.2571 37.7755c-0.1829,0.184 0.185,0.3679 -0.1829,0.7359 -1.2867,-0.1819 -2.9425,-0.7359 -3.6753,-1.8376 0.9178,-1.6558 2.3886,0.5477 3.4893,0.7338l0.3689 0.3679z"
   style="stroke:#fcdb09;stroke-opacity:1;fill:#fcdd09" />
   <path
   id="_225745712"
   class="fil0 str0"
   d="M16.5799 39.6152c0.184,-1.1038 -0.3679,-2.3937 0.369,-3.3114l2.7564 3.3114 -3.1254 0z"
   style="stroke:#fcdb09;stroke-opacity:1;fill:#fcdd09" />
   <path
   id="_225745784"
   class="fil2"
   d="M50.5799 37.5936c0.7369,0.3659 1.8397,0.1819 2.7575,0.1819l0.5529 -1.1017c0.7349,0 0.183,1.2857 0.3669,1.6557 -1.4717,0 -2.5755,0.5477 -4.0431,0l0 -1.6557c0.5498,-0.184 0.1839,0.7338 0.3658,0.9198z"
   style="fill:#000000" />
   <path
   id="_225745856"
   class="fil0 str0"
   d="M86.0495 40.165l-1.8366 4.963 -1.8376 -0.5519 2.5735 -6.0647c0.9209,0 1.8387,0.7358 1.1007,1.6536z"
   style="stroke:#fcdb09;stroke-opacity:1;fill:#fcdd09" />
   <path
   id="_225745928"
   class="fil3"
   d="M15.6611 40.5329c1.6537,0.552 3.8603,-0.1819 5.331,0.7359 -1.8377,0.3659 -4.0432,0.1819 -6.0648,0.1819l0.7338 -2.5735 0 1.6557z" />
   <path
   id="_225774680"
   class="fil2"
   d="M54.991 39.6152c0.9178,-0.1861 0.368,0.5498 0.5519,0.9177 -2.2055,0.552 -4.4111,0 -6.6166,0l0.1839 -0.9177c1.8377,0.3648 4.0432,0.9177 5.8808,0z"
   style="fill:#000000" />
   <path
   id="_225774752"
   class="fil3"
   d="M93.587 60.015l-1.2867 1.8376c-1.8387,-6.7986 -3.4923,-14.703 -4.9641,-21.8726 1.6558,6.6177 3.6773,13.6002 6.2508,20.035z" />
   <path
   id="_225774824"
   class="fil1 str3"
   d="M91.1996 62.9543c-1.6558,2.5734 -3.6773,4.9629 -5.6989,7.1664l0.9178 -6.2487 -0.7349 -0.9177c0.7349,-4.9609 1.4707,-9.9219 2.3906,-14.7029 -0.186,-1.6537 -1.4697,-2.9415 -2.5735,-4.2251l1.1038 -2.9414c1.8376,7.1665 3.3083,14.5169 4.5951,21.8694z"
   style="fill:#0f47af;stroke:#0f47af;stroke-opacity:1" />
   <path
   id="_225774896"
   class="fil2"
   d="M54.2572 41.6347c-1.1038,0.5529 -2.9404,0.5529 -4.0431,0 0.7338,-0.7359 2.5714,0 3.6762,-0.3659l0.3669 0.3659z"
   style="fill:#000000" />
   <path
   id="_225774968"
   class="fil3"
   d="M82.3753 42.3726c-0.5498,0.3659 -0.3659,1.0997 -0.7348,1.6537 -0.3669,-0.37 -0.3669,-1.2878 -0.5509,-1.8387 0.184,-0.5529 0.9198,-0.185 1.2857,0.185z" />
   <path
   id="_225775040"
   class="fil3"
   d="M55.9088 47.7015c-2.7554,0.5499 -5.1449,0.184 -7.9024,-0.37 -0.9177,-0.5478 -0.3658,-1.6537 -0.5488,-2.3854 1.2847,0.9178 1.8366,2.5714 3.6742,2.3854 1.8387,-0.3679 3.6763,0.37 5.1459,-1.1017l1.4707 -1.8377c-0.3669,1.1018 0.185,3.4934 -1.8396,3.3094z" />
   <path
   id="_225775112"
   class="fil3"
   d="M85.8697 46.0458c1.6526,0.9178 1.4665,3.3094 0.7348,4.9609l-2.2056 13.9691c0.1809,0.186 0.1809,0.3679 0.5499,0.186 -0.9199,1.1038 -2.3875,0.3659 -3.4913,0 -0.3679,-0.7369 0.183,-1.2898 0.368,-1.8395 0.3669,-0.368 1.4676,0.3657 1.4676,-0.7338 -0.7318,-0.922 -2.3875,-0.7359 -2.0195,-2.3916 0.3669,-1.8376 -0.7369,-4.961 1.4707,-5.5129l0 -0.5519 -5.147 -2.5714c-0.369,-0.368 0,-0.9198 0.5519,-0.9198l5.1439 2.2034c0.369,-0.1818 0.7358,-0.7338 0.369,-1.1017 -2.0216,-0.5499 -3.8603,-1.4676 -5.5129,-2.3874 0,-1.2878 1.4697,-0.3701 2.0216,-0.1861 1.4697,0.3721 2.3905,1.4718 4.0421,1.6557 0.186,-0.1839 0.3669,-0.5498 0.186,-0.7379 -1.8376,-1.1018 -4.0452,-1.4676 -5.5149,-2.7554 -0.1839,-0.1819 0.183,-0.3679 0.369,-0.5478l5.6958 2.0195 0.5519 -0.5518c-1.6557,-1.1018 -3.8602,-1.6537 -5.6989,-2.5736 -0.3659,-0.3679 0.184,-0.9177 0.369,-1.1017l5.3299 2.0216 0.369 -0.5519z" />
   <path
   id="_225775184"
   class="fil3"
   d="M47.4576 48.2514c3.6742,0.7337 7.7174,1.2898 11.0277,-0.9199 0.5488,-0.5478 -0.185,-1.8376 0.7348,-1.6537 0.9178,2.7575 -2.0216,2.5736 -3.3113,3.4913 -3.1233,0.3721 -6.9825,0.7379 -9.7379,-0.7338 -0.3679,-1.2857 -0.5519,-2.9414 0,-3.6752 0.3679,1.1038 -0.3679,2.9414 1.2867,3.4913z" />
   <path
   id="_225775256"
   class="fil3"
   d="M85.8697 45.6778c-0.1861,0.368 -0.553,-0.1839 -0.738,-0.1839l0.185 -0.3659 0.553 0.5498z" />
   <path
   id="_225775328"
   class="fil0 str0"
   d="M44.7002 45.3099c0.3669,2.3916 0.185,4.9651 0.185,7.1706l5.8787 6.9826c-0.184,0.3679 -0.5498,0.5519 -0.9178,0.9188 -2.2055,-2.2066 -3.8592,-5.146 -6.0647,-7.5376l-0.3679 -6.6145c0.1829,-0.7359 0.9187,-0.552 1.2867,-0.9199z"
   style="stroke:#fcdb09;stroke-opacity:1;fill:#fcdd09" />
   <path
   id="_225775400"
   class="fil0 str0"
   d="M61.4246 49.5412c0.7349,4.5909 -4.2261,7.1644 -6.4336,10.6557 -0.3658,0.185 -0.7338,-0.3659 -0.9177,-0.7338l5.8817 -7.1665c0.3658,-2.2097 0,-4.5951 0.3658,-6.6188 1.6558,0.368 0.9178,2.7575 1.1038,3.8634z"
   style="stroke:#fcdb09;stroke-opacity:1;fill:#fcdd09" />
   <path
   id="_225775472"
   class="fil3"
   d="M42.4936 46.9636c0.5519,3.3114 -0.9188,7.1685 2.5735,9.556l4.0431 4.595 -1.6526 1.6557 1.2847 1.4696c-3.6752,4.7801 -7.5344,9.924 -11.7615,14.703 -2.7554,-7.5365 -5.5129,-15.0709 -8.2703,-22.7892 0.5508,-2.2035 2.2055,-4.0432 3.4912,-5.8787l10.11 -3.6773 0.1819 0.3659z" />
   <path
   id="_225775544"
   class="fil3"
   d="M76.1276 50.459c0,1.1017 0.5509,2.2035 1.6547,2.7553 -3.6763,8.4522 -6.6167,17.6423 -10.11,26.2795 -4.409,-4.962 -7.9034,-9.9229 -12.1294,-14.8839 0.5518,-0.7379 2.0215,-1.2876 1.2867,-2.2054l-1.1037 -1.1048 6.4336 -7.7195c0.3658,-2.2035 0.3658,-4.4111 0.3658,-6.7965l13.6023 3.6753z" />
   <path
   id="_225775616"
   class="fil3"
   d="M53.3374 58.7313c-0.7349,-0.556 -1.4707,-0.9219 -2.0206,-0.1902l-5.3299 -6.4306c-0.1839,-0.9178 -0.1839,-2.0236 0,-2.5693 3.8592,1.2836 9.0041,1.2836 12.8643,-0.5561 1.1038,4.2292 -3.4922,6.6167 -5.5138,9.7462z" />
   <path
   id="_225779504"
   class="fil3"
   d="M21.359 51.7426c1.4717,0.184 2.9393,-0.1819 4.2281,-0.5499 0.1819,0.184 0.1819,0.5499 0.1819,0.9178 -1.6546,0.37 -3.4912,1.1038 -5.1459,0.1861 -0.5509,-0.554 -0.9178,-1.4718 -0.9178,-2.2097 0.183,0.7379 0.7349,1.4738 1.6537,1.6557z" />
   <path
   id="_225779576"
   class="fil2"
   d="M57.5644 52.4805l-0.3659 0.3638c-0.7358,-0.5477 -0.3689,-1.4676 -0.5519,-2.2034 0,-0.1819 0.3659,-0.3659 0.5519,-0.1819 0,0.7337 0.3659,1.2836 0.3659,2.0215z"
   style="fill:#000000" />
   <path
   id="_225779648"
   class="fil2"
   d="M48.0064 52.6625c-0.3658,0.3699 -0.7338,-0.182 -0.7338,-0.3659l0.7338 -1.6557c0.7359,0.1839 -0.1839,1.2857 0,2.0216z"
   style="fill:#000000" />
   <path
   id="_225779720"
   class="fil2"
   d="M55.7259 54.3181c-0.183,0.3659 -0.7349,0 -0.7349,-0.3679 -0.1829,-0.9178 -0.3658,-2.3895 0,-3.3093 0.7349,1.1017 0.5519,2.3915 0.7349,3.6772z"
   style="fill:#000000" />
   <path
   id="_225779792"
   class="fil2"
   d="M50.0301 51.0067c0,1.1038 -0.184,2.3916 -0.5509,3.4913 -1.1038,-0.7328 -0.185,-2.7554 0.5509,-3.4913z"
   style="fill:#000000" />
   <path
   id="_225779864"
   class="fil2"
   d="M51.6817 51.1927c0.3679,1.6516 -0.183,3.6753 -0.3649,4.961 -0.7369,0.184 -0.3689,-0.7338 -0.5529,-1.0997l0.5529 -4.0473 0.3649 0.186z"
   style="fill:#000000" />
   <path
   id="_225779936"
   class="fil2"
   d="M53.8903 56.1537c-0.369,0.184 -0.5529,0.5519 -0.7369,0.184l-0.1829 -5.331 0.3669 0.186 0.5529 4.961z"
   style="fill:#000000" />
   <path
   id="_225780008"
   class="fil3"
   d="M26.5059 53.7652c-0.9188,1.4707 -3.4933,0.9188 -4.963,0.9188 -0.5508,-0.186 -1.2878,-0.3659 -1.1027,-1.1038 1.8376,0.37 3.8581,0.185 5.8807,-0.1819l0.185 0.3669z" />
   <path
   id="_225780080"
   class="fil0 str0"
   d="M80.9056 54.498c-3.4912,9.374 -6.9825,19.116 -10.6577,28.4881l-2.2077 0 0 -0.7338 11.0268 -28.854c0.5519,0.3669 1.2867,0.3669 1.8386,1.0997z"
   style="stroke:#fcdb09;stroke-opacity:1;fill:#fcdd09" />
   <path
   id="_225780152"
   class="fil3"
   d="M29.6282 62.5885c2.2056,6.7984 4.9651,13.599 6.9846,20.2157l-7.7184 0.1819c-2.5735,-2.5735 -4.5961,-5.147 -4.78,-8.6341 -1.2837,-6.0689 -2.2025,-12.4994 -3.3063,-18.5662 2.0226,0.187 4.0411,0.5519 6.0647,-0.3659 1.2847,2.0216 1.8377,4.777 2.7554,7.1686z" />
   <path
   id="_225780224"
   class="fil2"
   d="M45.4361 62.4045c-3.1244,-0.738 -6.0658,-1.8376 -9.0073,-2.9414 0,-0.368 0.367,-0.7318 0.7359,-0.922 2.5725,1.6558 5.8808,2.0258 8.2714,3.8634z"
   style="fill:#000000" />
   <path
   id="_225780296"
   class="fil2"
   d="M68.7761 60.5669c-3.3083,-0.185 -6.7995,0.9198 -9.742,0.7328 2.7575,-0.9178 6.0668,-1.2847 8.8211,-2.3886 0.553,0.3659 0.7349,0.9199 0.9209,1.6558z"
   style="fill:#000000" />
   <path
   id="_225780368"
   class="fil3"
   d="M80.3537 64.058l-0.7348 0.9178c-1.4697,5.8808 -2.5735,11.9455 -4.2292,17.8284 -1.0987,0.1819 -2.3875,0 -3.4913,0l8.2724 -23.1551c-0.5519,1.8376 1.6547,2.9394 0.1829,4.4089z" />
   <path
   id="_225780440"
   class="fil3"
   d="M22.2778 75.4517c-1.4697,-2.0216 -3.1234,-3.8572 -4.5941,-5.5129 -0.3689,-0.184 -0.5508,0.1819 -0.5508,0.3659 3.1222,4.4131 6.6156,8.6382 10.1069,12.4995 -1.1018,0.1819 -2.3906,0.1819 -3.3094,0 -3.1223,-4.2282 -5.5118,-8.6403 -7.9013,-13.2333 0.9198,-3.3053 2.5745,-6.4306 4.0431,-9.7399l2.3906 15.4387 -0.185 0.182z" />
   <path
   id="_226177336"
   class="fil1 str4"
   d="M55.175 62.9543c-0.9178,0.9177 -2.0216,2.3894 -2.9404,2.5734l-2.5725 -2.5734 2.7575 -2.9393c0.9178,0.9177 1.8376,1.8376 2.7554,2.9393z"
   style="fill:#0f47af;stroke:#0f47af;stroke-opacity:1" />
   <path
   id="_226177432"
   class="fil4"
   d="M53.7053 62.4045c0.5519,0.9178 -0.184,1.6535 -0.9198,2.0204 -0.9188,0 -1.6537,-0.5529 -1.8376,-1.1026 0,-0.7338 0.1839,-1.6558 0.9188,-1.8356 0.9188,-0.187 1.4707,0.3659 1.8386,0.9178z"
   style="fill:#000000" />
   <path
   id="_226177528"
   class="fil2"
   d="M71.5326 63.688c-4.2261,-0.3657 -8.0895,-0.3657 -12.1295,-0.3657l0 -0.368c3.4912,-0.184 7.1654,-0.3658 11.0257,-0.9219 0.5518,0.3721 1.1038,0.9219 1.1038,1.6556z"
   style="fill:#000000" />
   <path
   id="_226177600"
   class="fil3"
   d="M52.7855 62.9543c-0.183,0.186 0,0.5529 -0.3659,0.5529 -0.185,0 -0.37,-0.3669 -0.5529,-0.5529 -0.185,-0.5498 1.1038,-0.7359 0.9188,0z" />
   <path
   id="_226177672"
   class="fil2"
   d="M45.251 63.688c-3.6762,0.184 -7.3514,0.184 -11.3956,0 0,-0.3657 -0.7339,-0.7337 -0.1819,-0.9177 3.8591,0.7369 7.9013,-0.1818 11.5775,0.9177z"
   style="fill:#000000" />
   <path
   id="_226177744"
   class="fil3"
   d="M82.9272 82.6223c-1.8376,0.3638 -4.2271,0.1819 -6.0647,0.1819 5.6988,-6.2508 9.925,-13.2333 15.6207,-19.4819l-2.0216 7.7183 -7.5344 11.5817z" />
   <path
   id="_226177816"
   class="fil2"
   d="M67.4894 66.6295c0.5508,0.1839 0.3658,1.1017 0.3658,1.2877l-6.7995 -2.3895c1.1038,1.1018 2.9414,2.5735 3.4943,4.0432l-0.7379 0 -4.2261 -4.7801 0.369 -0.3659 7.5344 2.2046z"
   style="fill:#000000" />
   <path
   id="_226177888"
   class="fil2"
   d="M44.7002 64.9758c-1.1038,1.8376 -3.1254,3.6773 -4.963,5.1449l-0.184 -0.9198 3.8603 -3.3053c-2.2056,-0.3679 -4.5962,2.5714 -6.6177,0.9178 2.5745,-0.7338 5.3319,-1.2857 7.9044,-1.8376z"
   style="fill:#000000" />
   <path
   id="_226177960"
   class="fil0 str0"
   d="M50.2141 65.8956c-4.0432,5.145 -8.2714,10.2919 -12.3145,15.4389 -0.184,-0.186 -0.7349,-1.1038 -0.367,-1.6557l11.9466 -14.517 0.7349 0.7338z"
   style="fill:#fcdd09;stroke:#fcdb09;stroke-opacity:1" />
   <path
   id="_226178032"
   class="fil0 str0"
   d="M55.5429 65.7096c3.8602,4.9651 7.3514,10.2939 11.7636,14.703l-0.552 1.2888 -0.3658 -0.185 -12.3154 -15.2508 0.5519 -0.9219 0.9177 0.3659z"
   style="fill:#fcdd09;stroke:#fcdb09;stroke-opacity:1" />
   <path
   id="_226178104"
   class="fil3"
   d="M84.9488 66.6295c0.1829,0.9198 -0.369,1.8375 -1.2867,1.6536 -1.1008,0.1839 -2.2046,-0.3659 -3.3084,-0.5519 -0.1829,-0.5478 0,-1.2857 0.183,-1.6516 1.4727,0.186 2.7564,0.9178 4.4121,0.5499z" />
   <path
   id="_226178176"
   class="fil3"
   d="M51.6817 69.02c0,0.7348 -0.7338,0.1809 -1.1018,0.5509 -0.5498,0.9177 0.7369,3.1254 -1.4697,2.5714 -0.1839,0.9198 0,1.6536 0,2.7554 2.7565,-0.1799 0.9199,3.6783 1.6537,4.963 0.9178,0.186 2.0216,0.186 2.9414,0 0.368,-1.4697 0.185,-3.1254 0.185,-4.776 0.7349,0.185 1.8356,-0.187 1.6526,-1.2888 -0.1839,-1.0996 0,-2.2014 -1.4696,-2.0216 -0.552,-0.5518 0.5519,-2.9372 -1.1028,-2.3874 0.1829,-0.7338 -0.7359,-2.0216 0.5508,-2.3895l3.6772 4.7769 -0.5519 7.7195c0.183,0.3669 0.3659,0.5529 0.7349,0.3669 0.5519,-2.0216 0.3669,-4.591 0.9188,-6.6146 0.3679,0.184 0.9198,0.5498 0.7338,1.1059l-0.7338 5.6947c0.185,0.3659 0.5509,0.7359 0.9198,0.5499 0.3659,-1.6537 0.7349,-3.4892 0.9178,-5.1449l0.5499 0.7358c0,1.6516 -0.9189,3.6732 0,4.961 1.2888,-0.3659 0.5508,-2.3875 1.1038,-3.4913 1.6515,1.4717 3.1243,3.4913 4.4111,5.147 -9.0042,0.1819 -18.9301,0.3658 -27.7502,0l3.8592 -4.9651c0.3669,1.2898 0,3.1254 1.2847,3.8623l0.3679 0c0,-1.6547 -0.7348,-4.0442 -0.1829,-5.6979 0.3658,1.4687 0.5508,3.4903 1.1038,4.961 0.3658,0 0.7338,-0.1819 0.7338,-0.5519 0,-2.2035 -1.6547,-4.9609 0.184,-6.9825 0.7358,2.0216 0.1839,4.2271 0.5518,6.4306 0.184,0 0.5499,0.37 0.7339,0 0.5519,-2.2035 -0.184,-5.3289 -0.184,-8.0864l3.8592 -4.9609c1.2857,0.37 0.9178,1.4697 0.9178,2.2066z" />
   <path
   id="_226178248"
   class="fil3"
   d="M84.5798 68.8371c0.5519,1.2836 -0.9177,1.2836 -1.6526,1.2836 -0.9178,0 -2.0216,-0.1819 -2.7564,-0.7338l-0.185 -0.9199c1.4717,0.3701 3.1254,0.9199 4.594,0.3701z" />
   <path
   id="_226183224"
   class="fil0 str0"
   d="M52.9705 70.1207c0.3669,1.1018 -0.368,3.1254 1.6547,2.5756 -0.184,0.5498 0.3658,2.0215 -0.5519,1.6557l-0.7359 0 -0.3669 4.9568 -1.4718 -0.1799 -0.1819 -4.4111c-0.185,-0.5539 -0.9188,-0.186 -1.2867,-0.3658l0 -1.6557c2.2045,0.5498 0.7338,-1.6557 1.4686,-2.5756l1.4718 0z"
   style="stroke:#fcdb09;stroke-opacity:1;fill:#fcdd09" />
   <path
   id="_226183296"
   class="fil3"
   d="M84.3989 71.0406c-1.8376,3.3114 -4.5971,6.2487 -7.1706,9.0061l2.3906 -9.742c1.4707,0.7359 3.3083,0.9178 4.78,0.7359z" />
   <path
   id="_226183368"
   class="fil5 str5"
   d="M52.3462 136.109c50.0806,-21.2555 49.6217,-53.1853 49.6217,-53.1853 1.6092,-20.9062 -0.4589,-50.5416 -0.4589,-50.5416 -1.3777,-24.3509 1.8387,-31.1299 1.8387,-31.1299"
   style="stroke:#000000;stroke-opacity:1" />
   <polyline
   id="_226183464"
   class="fil5 str5"
   points="103.348,1.2526 52.3462,1.2526 52.1798,1.2526 1.1793,1.2526 " />
   <path
   id="_226183536"
   class="fil5 str5"
   d="M1.1793 1.2526c0,0 3.2153,6.779 1.8376,31.1299 0,0 -2.0681,29.6354 -0.4609,50.5416 0,0 -0.4589,31.9298 49.6238,53.1853"
   style="stroke:#000000;stroke-opacity:1" />
   <line
   id="_226183608"
   class="fil5 str5"
   x1="52.1798"
   y1="136.109"
   x2="52.3462"
   y2="136.109" />
   <polygon
   id="_226183680"
   class="fil2 str6"
   points="2.556,82.6636 28.6195,95.9579 20.7399,115.966 41.1645,109.021 52.3462,135.845 52.184,84.8692 52.1798,82.7938 "
   style="fill:#000000;fill-opacity:1;stroke:#000000;stroke-opacity:1" />
   <polygon
   id="_226183776"
   class="fil2 str6"
   points="101.968,82.6636 75.9075,95.9579 83.785,115.966 63.3625,109.021 52.1798,135.845 52.3421,84.8692 52.3462,82.7938 "
   style="stroke:#000000;stroke-opacity:1;fill:#000000;fill-opacity:1" />
   <polygon
   id="_226183848"
   class="fil3 str7"
   points="52.3462,82.7938 28.6195,95.9579 20.7399,115.966 "
   style="stroke:#000000;stroke-opacity:1" />
   <polygon
   id="_226183944"
   class="fil3 str7"
   points="52.1798,83.0543 41.1645,109.021 52.1798,135.074 "
   style="stroke:#000000;stroke-opacity:1" />
   <polygon
   id="_226184016"
   class="fil3 str7"
   points="63.3625,109.021 83.9132,116.181 52.1798,83.0543 "
   style="stroke:#000000;stroke-opacity:1" />
   <polygon
   id="_226184088"
   class="fil1"
   points="48.4746,22.8885 47.3109,22.8885 47.3109,21.7248 46.1895,21.7248 46.1895,22.8885 45.0247,22.8885 45.0247,24.011 46.1895,24.011 46.1895,25.1726 47.3109,25.1726 47.3109,24.011 48.4746,24.011 "
   style="fill:#0f47af" />
   <polygon
   id="_226189344"
   class="fil1"
   points="59.6263,22.8885 58.4605,22.8885 58.4605,21.7248 57.3391,21.7248 57.3391,22.8885 56.1753,22.8885 56.1753,24.011 57.3391,24.011 57.3391,25.1726 58.4605,25.1726 58.4605,24.011 59.6263,24.011 "
   style="fill:#0f47af" />
  </g>
 </g>
</svg>
