<?xml version="1.0" encoding="UTF-8"?>
<!-- Created with Inkscape (http://www.inkscape.org/) -->
<svg width="203mm" height="228mm" version="1.1" viewBox="0 0 203 228" xmlns="http://www.w3.org/2000/svg">
 <title>Wappen der Stadt Korntal-Münchingen</title>
 <g transform="translate(-4.3333 -34.833)">
  <path d="m5.8333 36.333 3.175e-4 125.07c6.72e-5 26.503 10.536 51.921 29.289 70.662 18.754 18.741 44.189 29.269 70.71 29.269 26.522 7e-5 51.957-10.528 70.711-29.269 18.754-18.741 29.29-44.159 29.289-70.662l-7.9e-4 -125.07z" fill="#005198"/>
  <g stroke="#000000">
   <path d="m90.833 36.334v90h-85v30h85v103.87c4.9349 0.74817 9.9472 1.1312 15 1.1312 5.0524 1e-5 10.065-0.38305 15-1.1312v-103.87h85v-30h-85v-90z" fill="#ffffff" stroke-linecap="round" stroke-linejoin="round" stroke-width="2" style="paint-order:normal"/>
   <path d="m60.863 187.43c-11.098-8.8456-22.473 0.59544-22.642 11.465-0.12738 8.1754 7.1286 17.24 17.7 17.774 14.142 0.7151 37.649-11.275 14.587-52.611-13.178-23.621-17.48-46.983 0.15509-68.129 7.2364-8.6767 20.292-15.424 36.173-15.033 13.511 0.33292 29.859 8.3609 38.938 21.532 9.6706 14.028 11.536 33.832-3.7925 61.455-6.5462 11.796-10.752 21.689-10.389 29.811 0.76346 17.076 14.793 24.694 21.748 24.846 10.095 0.22036 19.674-7.195 19.8-17.923 0.2308-19.667-16.899-16.584-20.468-11.476 15.372 3.4981 8.5923 15.979 2.0601 16.131-6.2098 0.14487-10.422-6.4513-8.3143-16.449 1.2134-5.7553 4.9867-12.298 10.397-20.262 49.087-72.261-19.646-109.05-50.514-109.31-12.283-0.10462-27.645 2.983-40.256 11.434-39.14 26.228-32.468 68.091-11.327 96.543s11.549 37.351 3.5801 37.258c-10.713-0.12616-11.632-14.645 2.5651-17.052z" fill="#fcdb00" stroke-linejoin="round" stroke-width="2"/>
   <path d="m5.8333 36.333 3.175e-4 125.07c6.72e-5 26.503 10.536 51.921 29.289 70.662 18.754 18.741 44.189 29.269 70.71 29.269 26.522 7e-5 51.957-10.528 70.711-29.269 18.754-18.741 29.29-44.159 29.289-70.662l-7.9e-4 -125.07z" fill="none" stroke-linecap="square" stroke-miterlimit="8" stroke-width="3"/>
  </g>
 </g>
</svg>
