<?xml version="1.0" encoding="UTF-8" standalone="no"?>
<svg
   xmlns:dc="http://purl.org/dc/elements/1.1/"
   xmlns:cc="http://creativecommons.org/ns#"
   xmlns:rdf="http://www.w3.org/1999/02/22-rdf-syntax-ns#"
   xmlns:svg="http://www.w3.org/2000/svg"
   xmlns="http://www.w3.org/2000/svg"
   xmlns:sodipodi="http://sodipodi.sourceforge.net/DTD/sodipodi-0.dtd"
   xmlns:inkscape="http://www.inkscape.org/namespaces/inkscape"
   viewBox="0 0 972.12586 1062.6021"
   version="1.1"
   id="svg1083"
   sodipodi:docname="DEU_Krün_COA.svg"
   inkscape:version="0.92.5 (2060ec1f9f, 2020-04-08)"
   width="972.12585"
   height="1062.6021">
  <metadata
     id="metadata1089">
    <rdf:RDF>
      <cc:Work
         rdf:about="">
        <dc:format>image/svg+xml</dc:format>
        <dc:type
           rdf:resource="http://purl.org/dc/dcmitype/StillImage" />
        <dc:title></dc:title>
      </cc:Work>
    </rdf:RDF>
  </metadata>
  <defs
     id="defs1087">
    <inkscape:path-effect
       effect="spiro"
       id="path-effect3820"
       is_visible="true" />
  </defs>
  <sodipodi:namedview
     pagecolor="#ffffff"
     bordercolor="#666666"
     borderopacity="1"
     objecttolerance="10"
     gridtolerance="10"
     guidetolerance="10"
     inkscape:pageopacity="0"
     inkscape:pageshadow="2"
     inkscape:window-width="1920"
     inkscape:window-height="1046"
     id="namedview1085"
     showgrid="false"
     inkscape:zoom="0.74628126"
     inkscape:cx="486.06292"
     inkscape:cy="531.30102"
     inkscape:window-x="-11"
     inkscape:window-y="-11"
     inkscape:window-maximized="1"
     inkscape:current-layer="svg1083"
     fit-margin-top="0"
     fit-margin-left="0"
     fit-margin-right="0"
     fit-margin-bottom="0"
     inkscape:snap-smooth-nodes="true"
     inkscape:snap-midpoints="true"
     inkscape:object-paths="true"
     inkscape:snap-center="true"
     inkscape:snap-object-midpoints="true"
     inkscape:snap-nodes="true" />
  <path
     d="m 795.88592,7.5402373 c -26.17,0.053 -51.02,0.198 -70.798,0.478 -79.11,1.122 -156.7,-0.214 -235.05,0 -2.653,0.007 -5.305,0.036 -7.958,0.043 -78.35,0.214 -155.94,1.122 -235.05,0 -79.11,-1.122 -239.5300005,0 -239.5300005,0 0,0 4.9949995,48.1799997 6.7839995,72.3199997 3.067,41.380003 4.256,82.870003 6.784,124.290003 3.405,55.766 7.902,111.49 11.307,167.25 2.529,41.41 3.91,82.9 6.784,124.29 4.346,62.59 5.02,125.75 15.786,187.56 6.02,34.562 14.418,68.979 27.14,101.67 15.355,39.473 33.473001,78.71 58.839001,112.63 18.288,24.456 41.648,45.04 65.884,63.62 27.747,21.272 57.962,39.81596 89.93,53.96796 33.818,14.97 69.917,25.08 106.24,32.09 27.334,5.278 55.35,7.255 83.19,7.349 27.662,0.094 55.55,-1.52 82.71,-6.741 36.46,-7.01 72.54,-17.626 106.46,-32.746 31.934,-14.235 62.23,-32.69596 89.98,-53.96796 24.24,-18.58 47.595,-39.17 65.884,-63.62 25.365,-33.919 43.484,-73.16 58.839,-112.63 12.718,-32.695 21.12,-67.16 27.14,-101.72 10.762,-61.814 11.44,-124.97 15.786,-187.56 2.874,-41.39 4.256,-82.87 6.784,-124.29 3.405,-55.766 7.902,-111.44 11.307,-167.21 2.529,-41.41 3.717,-82.909 6.784,-124.290003 1.79,-24.14 6.784,-72.3199997 6.784,-72.3199997 0,0 -90.24,-0.636 -168.73,-0.478 z"
     id="path953-4"
     style="fill:#da121a;stroke:none;stroke-width:15;stroke-linecap:round;stroke-linejoin:round;stroke-miterlimit:4;stroke-dasharray:none"
     inkscape:connector-curvature="0" />
  <path
     style="fill:#ffffff;stroke:#000000;stroke-width:8;stroke-linecap:round;stroke-miterlimit:4;stroke-dasharray:none;stroke-linejoin:round"
     d="M 567.56641 352.37109 L 110.19531 790.50977 L 110.20703 790.52148 L 91.435547 808.50391 C 96.22187 819.79911 101.31801 830.98762 106.81641 841.95703 L 134.27148 815.6543 L 134.27539 815.66016 L 306.99219 650.1875 L 591.64258 377.47461 L 567.56641 352.37109 z M 591.64258 377.47461 L 591.64648 377.48047 L 591.64648 377.4707 L 591.64258 377.47461 z "
     id="path965" />
  <rect
     transform="matrix(-0.69178937,-0.72209935,-0.72209935,0.69178937,0,0)"
     y="-287.2627"
     x="-683.39557"
     height="113.1901"
     width="38.759033"
     rx="7.1670065"
     id="rect969"
     style="fill:#ffffff;stroke:#000000;stroke-width:8;stroke-linecap:round;stroke-miterlimit:4;stroke-dasharray:none;stroke-linejoin:round"
     ry="7.1670065" />
  <path
     style="fill:#ffffff;stroke:#000000;stroke-width:5"
     d="m 596.07592,373.23623 -4.435,4.248 -24.09,-25.14 5.15,-4.934"
     id="path983"
     inkscape:connector-curvature="0" />
  <rect
     style="fill:#ffffff;stroke:#000000;stroke-width:5.51000023;stroke-linecap:round"
     id="rect997"
     rx="7.1670065"
     y="-193.32259"
     x="-693.2356"
     height="18.921017"
     width="58.450054"
     transform="matrix(-0.69178937,-0.72209935,-0.72209935,0.69178937,0,0)"
     ry="7.1670065" />
  <path
     d="M 194.53792,141.42623 77.027919,55.116228 165.37792,171.09623 Z"
     id="path1023"
     inkscape:connector-curvature="0"
     style="fill:#ffffff;stroke:#000000;stroke-width:8;stroke-linecap:round;stroke-linejoin:round;stroke-miterlimit:4;stroke-dasharray:none" />
  <path
     style="fill:#ffffff;stroke:#000000;stroke-width:8;stroke-linejoin:round;stroke-miterlimit:4;stroke-dasharray:none"
     d="m 230.15592,188.79623 c -3.341,17.814 -29.503,21.66 -41.13,35.563 -18.598,22.24 -35.784,47.11 -44.35,74.81 -6.559,21.2 -6.363,44.34 -4.32,66.43 0.746,8.07 5.999,23.565 5.999,23.565 0,0 -24.363,-35.36 -31.23,-55.43 -6.654,-19.436 -10.1,-40.456 -9,-60.97 1.198,-22.27 7.353,-44.564 16.812,-64.761 6.943,-14.824 17.605,-27.796 28.615,-39.91 5.526,-6.08 10.856,-13.385 18.574,-16.205 5.443,-1.988 11.712,-0.905 17.381,0.294 10.609,2.243 21.971,5.335 29.967,12.661 6.661,6.104 14.352,15.07 12.687,23.952 z"
     id="path1025"
     inkscape:connector-curvature="0" />
  <path
     style="fill:#ffffff;stroke:#000000;stroke-width:8;stroke-linecap:round;stroke-linejoin:round;stroke-miterlimit:4;stroke-dasharray:none"
     d="M 286.10547 215.48633 L 263.13672 238.86133 L 683.11914 651.57422 L 846.13672 811.77148 L 869.04883 834.28516 C 874.10149 823.76547 878.80866 813.07295 883.25781 802.30469 L 869.10547 788.39648 L 706.08789 628.19922 L 286.10547 215.48633 z "
     id="path1027" />
  <path
     style="fill:#ffffff;stroke:#000000;stroke-width:8;stroke-linecap:round;stroke-linejoin:round;stroke-miterlimit:4;stroke-dasharray:none"
     inkscape:connector-curvature="0"
     id="path1029"
     d="m 167.27646,153.51295 31.79937,-32.36105 102.48258,100.70384 -31.79936,32.36104 z" />
  <path
     style="fill:#fcdd09;stroke:#000000;stroke-width:8;stroke-linejoin:round;stroke-miterlimit:4;stroke-dasharray:none"
     d="m 416.13592,318.70623 c -33.06,47.32 -77.22,90.96 -91.81,146.81 -1.579,6.04 0.129,12.522 0.906,18.719 4.792,38.21 14.787,75.6 23.16,113.19 13.74,61.712 44.41,184.41 44.41,184.41 l 109.22,2.531 c 0.036,0.121 0.313,1.094 0.313,1.094 l 23.75,-0.563 23.719,0.563 c 0,0 0.276,-0.972 0.313,-1.094 l -9.425,-123.53 c 0,0 30.635,-12.164 44.37,-73.875 8.369,-37.589 77.7,-31.928 82.49,-70.14 0.777,-6.197 21.823,-45.25 20.244,-51.3 -14.595,-55.848 -40.626,-109.18 -69.26,-159.61 -26.07,-45.917 -92.49,-128.61 -92.49,-128.61 0,0 -75.72,92.47 -109.91,141.41 z"
     id="path1037"
     inkscape:connector-curvature="0" />
  <path
     style="fill:#fcdd09;stroke:#000000;stroke-width:8;stroke-linejoin:round;stroke-miterlimit:4;stroke-dasharray:none"
     d="m 376.13592,318.70623 c -33.06,47.32 -77.22,90.96 -91.81,146.81 -1.579,6.04 0.129,12.522 0.906,18.719 4.792,38.21 14.787,75.6 23.16,113.19 13.74,61.712 44.41,184.41 44.41,184.41 l 109.22,2.531 c 0.036,0.121 0.313,1.094 0.313,1.094 l 23.75,-0.563 23.719,0.563 c 0,0 0.276,-0.972 0.313,-1.094 l 109.25,-2.531 c 0,0 30.635,-122.69 44.37,-184.41 8.369,-37.589 18.364,-74.977 23.16,-113.19 0.777,-6.197 2.485,-12.676 0.906,-18.719 -14.595,-55.848 -58.754,-99.5 -91.81,-146.81 -34.2,-48.942 -109.94,-141.41 -109.94,-141.41 0,0 -75.72,92.47 -109.91,141.41 z"
     id="path1039"
     inkscape:connector-curvature="0" />
  <path
     style="fill:#fcdd09;stroke:#000000;stroke-width:8;stroke-linejoin:round;stroke-miterlimit:4;stroke-dasharray:none;stroke-linecap:round"
     d="m 374.55592,780.40623 c 0,0 -10.599,56.27 -18.275,83.81 -7.507,26.939 -17.52,53.13 -27.1,79.4 -5.17,14.183 -16.384,42.22 -16.384,42.22 l 96.42,25.83697 c 0,0 13.472,-45.14997 18.905,-68.05997 7.263,-30.624 14.722,-61.36 18.275,-92.63 3.01,-26.52 2.521,-80.03 2.521,-80.03 z"
     id="path1041"
     inkscape:connector-curvature="0" />
  <path
     style="fill:none;stroke:#000000;stroke-width:5;stroke-linecap:round;stroke-linejoin:round"
     d="m 330.31592,989.54623 c 0,0 7.99405,-14.71872 11.585,-22.28 3.53909,-7.45206 6.61021,-15.11814 9.803,-22.725 1.52116,-3.62417 4.456,-10.917 4.456,-10.917"
     id="path1045"
     inkscape:connector-curvature="0"
     sodipodi:nodetypes="caac" />
  <path
     style="fill:none;stroke:#000000;stroke-width:5;stroke-linecap:round;stroke-linejoin:round"
     d="m 348.65592,992.96623 c 0,0 7.99405,-14.71872 11.585,-22.28 3.53909,-7.45206 6.61021,-15.11814 9.803,-22.725 1.52116,-3.62417 4.456,-10.917 4.456,-10.917"
     id="path1047"
     inkscape:connector-curvature="0"
     sodipodi:nodetypes="caac" />
  <path
     style="fill:none;stroke:#000000;stroke-width:5;stroke-linecap:round;stroke-linejoin:round"
     d="m 366.99592,997.20623 c 0,0 7.99405,-14.71872 11.585,-22.28 3.53909,-7.45206 6.61021,-15.11814 9.803,-22.725 1.52116,-3.62417 4.456,-10.917 4.456,-10.917"
     id="path1049"
     inkscape:connector-curvature="0"
     sodipodi:nodetypes="caac" />
  <path
     style="fill:none;stroke:#000000;stroke-width:5;stroke-linecap:round;stroke-linejoin:round"
     d="m 385.33592,1002.1062 c 0,0 7.99405,-14.7187 11.585,-22.27997 3.53909,-7.45206 6.61021,-15.11814 9.803,-22.725 1.52116,-3.62417 4.456,-10.917 4.456,-10.917"
     id="path1051"
     inkscape:connector-curvature="0"
     sodipodi:nodetypes="caac" />
  <path
     style="fill:#fcdd09;stroke:#000000;stroke-width:8;stroke-linejoin:round;stroke-miterlimit:4;stroke-dasharray:none;stroke-linecap:round"
     inkscape:connector-curvature="0"
     id="path1055"
     d="m 597.57592,780.40623 c 0,0 10.599,56.27 18.275,83.81 7.507,26.939 17.52,53.13 27.1,79.4 5.17,14.183 16.384,42.22 16.384,42.22 l -96.42,25.83697 c 0,0 -13.472,-45.14997 -18.905,-68.05997 -7.263,-30.624 -14.722,-61.36 -18.275,-92.63 -3.01,-26.52 -2.521,-80.03 -2.521,-80.03 z" />
  <path
     style="fill:none;stroke:#000000;stroke-width:5;stroke-linecap:round;stroke-linejoin:round"
     inkscape:connector-curvature="0"
     id="path1057"
     d="m 641.81592,989.54623 c 0,0 -7.99405,-14.71872 -11.585,-22.28 -3.53909,-7.45206 -6.61021,-15.11814 -9.803,-22.725 -1.52116,-3.62417 -4.456,-10.917 -4.456,-10.917"
     sodipodi:nodetypes="caac" />
  <path
     style="fill:none;stroke:#000000;stroke-width:5;stroke-linecap:round;stroke-linejoin:round"
     inkscape:connector-curvature="0"
     id="path1059"
     d="m 623.47592,992.96623 c 0,0 -7.99405,-14.71872 -11.585,-22.28 -3.53909,-7.45206 -6.61021,-15.11814 -9.803,-22.725 -1.52116,-3.62417 -4.456,-10.917 -4.456,-10.917"
     sodipodi:nodetypes="caac" />
  <path
     style="fill:none;stroke:#000000;stroke-width:5;stroke-linecap:round;stroke-linejoin:round"
     inkscape:connector-curvature="0"
     id="path1061"
     d="m 605.13592,997.20623 c 0,0 -7.99405,-14.71872 -11.585,-22.28 -3.53909,-7.45206 -6.61021,-15.11814 -9.803,-22.725 -1.52116,-3.62417 -4.456,-10.917 -4.456,-10.917"
     sodipodi:nodetypes="caac" />
  <path
     style="fill:none;stroke:#000000;stroke-width:5;stroke-linecap:round;stroke-linejoin:round"
     inkscape:connector-curvature="0"
     id="path1063"
     d="m 586.79592,1002.1062 c 0,0 -7.99405,-14.7187 -11.585,-22.27997 -3.53909,-7.45206 -6.61021,-15.11814 -9.803,-22.725 -1.52116,-3.62417 -4.456,-10.917 -4.456,-10.917"
     sodipodi:nodetypes="caac" />
  <path
     d="m 619.34592,781.82623 c 0,13.225 -59.671,23.946 -133.28,23.946 -73.61,0 -133.28,-10.721 -133.28,-23.946 0,-13.225 59.671,-23.946 133.28,-23.946 73.61,0 133.28,10.721 133.28,23.946 z"
     id="path1067"
     inkscape:connector-curvature="0"
     style="fill:#fcdd09;stroke:#000000;stroke-width:8;stroke-linecap:round;stroke-linejoin:round;stroke-miterlimit:4;stroke-dasharray:none" />
  <path
     style="fill:none;stroke:#000000;stroke-width:8;stroke-linecap:round;stroke-miterlimit:4;stroke-dasharray:none;stroke-linejoin:round"
     inkscape:connector-curvature="0"
     id="path1069"
     d="m 409.57792,274.69623 c 0,0 10.424,10.437 14.179,16.699 4.704,7.845 10.08,25.522 10.08,25.522 l 4.096,365.18 c 0,0 -44.22,3.837 -65.852,8.507 -12.99,2.804 -38.12,11.658 -38.12,11.658" />
  <path
     style="fill:none;stroke:#000000;stroke-width:8;stroke-linecap:round;stroke-miterlimit:4;stroke-dasharray:none;stroke-linejoin:round"
     inkscape:connector-curvature="0"
     id="path1071"
     d="m 562.54792,274.69623 c 0,0 -10.424,10.437 -14.179,16.699 -4.704,7.845 -10.08,25.522 -10.08,25.522 l -4.096,365.18 c 0,0 44.22,3.837 65.852,8.507 12.99,2.804 38.12,11.658 38.12,11.658" />
  <path
     d="m 795.88592,7.540228 c -26.17,0.053 -51.02,0.198 -70.798,0.478 -79.11,1.122 -156.7,-0.214 -235.05,0 -2.653,0.007 -5.305,0.036 -7.958,0.043 -78.35,0.214 -155.94,1.122 -235.05,0 -79.11,-1.122 -239.5300011,0 -239.5300011,0 0,0 4.9950001,48.18 6.7840001,72.32 3.067,41.380002 4.256,82.870002 6.784,124.290002 3.405,55.766 7.902,111.49 11.307,167.25 2.529,41.41 3.91,82.9 6.784,124.29 4.346,62.59 5.02,125.75 15.786,187.56 6.02,34.562 14.418,68.979 27.14,101.67 15.355,39.473 33.473001,78.71 58.839001,112.63 18.288,24.456 41.648,45.04 65.884,63.62 27.747,21.272 57.962,39.81597 89.93,53.96797 33.818,14.97 69.917,25.08 106.24,32.09 27.334,5.278 55.35,7.255 83.19,7.349 27.662,0.094 55.55,-1.52 82.71,-6.741 36.46,-7.01 72.54,-17.626 106.46,-32.746 31.934,-14.235 62.23,-32.69597 89.98,-53.96797 24.24,-18.58 47.595,-39.17 65.884,-63.62 25.365,-33.919 43.484,-73.16 58.839,-112.63 12.718,-32.695 21.12,-67.16 27.14,-101.72 10.762,-61.814 11.44,-124.97 15.786,-187.56 2.874,-41.39 4.256,-82.87 6.784,-124.29 3.405,-55.766 7.902,-111.44 11.307,-167.21 2.529,-41.41 3.717,-82.909 6.784,-124.290002 1.79,-24.14 6.784,-72.32 6.784,-72.32 0,0 -90.24,-0.636 -168.73,-0.478 z"
     id="path953"
     style="fill:none;stroke:#000000;stroke-width:15;stroke-linecap:round;stroke-linejoin:round;stroke-miterlimit:4;stroke-dasharray:none"
     inkscape:connector-curvature="0" />
  <path
     style="fill:#ffffff;stroke:#000000;stroke-width:8;stroke-linecap:round;stroke-linejoin:round;stroke-miterlimit:4;stroke-dasharray:none;stroke-opacity:1"
     d="m 858.20958,111.32122 c -6.45709,-6.7094 -13.81307,-12.566342 -21.75048,-17.443172 -13.95301,-8.572929 -29.76223,-14.153545 -46.03286,-16.010249 -13.93921,-1.590636 -28.25574,-0.435178 -41.56335,4.007866 -23.0142,7.683897 -42.12232,25.019465 -54.54575,45.860615 -12.61491,21.16238 -18.76037,46.74214 -13.92947,70.90086 1.28702,6.43622 3.32484,12.70834 4.49743,19.1664 1.17258,6.45806 1.44235,13.26589 -0.75243,19.45174 -0.97936,2.7602 -2.42747,5.33495 -4.08366,7.7505 -2.6255,3.82931 -5.78881,7.28937 -9.36573,10.24952 l 23.80496,32.19065 c 8.43631,-8.76679 17.34141,-17.08324 26.66245,-24.90286 3.33815,-2.80037 6.83676,-5.6718 8.69734,-9.6118 1.94837,-4.12591 1.84069,-8.9681 0.76513,-13.40235 -1.07556,-4.43425 -3.05111,-8.58679 -4.77587,-12.81108 -5.74928,-14.08112 -8.77198,-29.41909 -7.53765,-44.57854 1.28273,-15.75395 7.257,-31.15753 17.26052,-43.39521 10.29749,-12.59755 25.15863,-21.81094 41.32986,-23.60784 11.10143,-1.23357 22.4892,1.0359 32.53318,5.92281 11.38544,5.53958 21.07723,14.40915 27.87609,25.09057 6.48128,10.18246 10.37578,22.11889 10.37246,34.18912 -0.004,13.79417 -5.4275,27.81523 -15.81438,36.89224 -5.6842,4.96739 -12.89332,8.41081 -20.4363,8.7083 -8.22741,0.32448 -16.30703,-3.11447 -22.68214,-8.32532 -2.84405,-2.32463 -5.41707,-5.02164 -7.34434,-8.1487 -1.92719,-3.12699 -3.19355,-6.69958 -3.36388,-10.36888 -0.22042,-4.74831 1.38618,-9.4126 3.55784,-13.64094 0.7085,-1.37939 1.48649,-2.72355 2.31601,-4.03372 l 0.72492,-0.6945 3.23194,3.37346 1.41203,1.47386 -0.54126,24.03692 31.35207,0.63578 0.70625,-31.35197 -24.03804,-0.48877 -1.41196,-1.47378 -3.23201,-3.37354 4.8572,-4.65343 24.03804,0.48876 0.70764,-31.35053 -31.35346,-0.63723 -0.54126,24.03691 -4.8572,4.65343 -4.64397,-4.84732 0.54126,-24.03692 -31.35345,-0.63724 -0.70626,31.35198 24.03804,0.48877 0.0637,0.0664 c -3.28032,0.0726 -6.54422,0.68464 -9.60229,1.88292 -6.43228,2.52065 -11.84012,7.41565 -15.31079,13.38914 -4.28737,7.37925 -5.6325,16.1936 -5.10181,24.71145 0.611,9.80695 3.6626,19.52001 9.20608,27.63288 5.48412,8.02598 13.31808,14.35315 22.13952,18.43648 10.39492,4.81174 22.10149,6.53455 33.51919,5.6166 8.69645,-0.6992 17.25616,-2.89932 25.28346,-6.31686 13.39073,-5.70106 25.27647,-14.80368 34.52476,-26.04126 7.61082,-9.2478 13.49433,-20.0258 16.35422,-31.65628 3.01672,-12.26834 2.60873,-25.2388 -0.17459,-37.56218 -2.76305,-12.23354 -7.85199,-23.93993 -14.94141,-34.28565 -3.15962,-4.61089 -6.71109,-8.94303 -10.58535,-12.96869 z"
     id="path3818"
     inkscape:connector-curvature="0" />
  <rect
     style="opacity:1;fill:#ffffff;fill-opacity:1;fill-rule:evenodd;stroke:#000000;stroke-width:8;stroke-linecap:round;stroke-linejoin:round;stroke-miterlimit:4;stroke-dasharray:none;stroke-opacity:1;paint-order:markers fill stroke"
     id="rect3816"
     width="73.883263"
     height="31.400387"
     x="627.51898"
     y="-314.63553"
     ry="15.700193"
     rx="15.700193"
     transform="rotate(46.227395)" />
</svg>
