<!-- Created with Inkscape (http://www.inkscape.org/) -->
<svg xmlns:rdf="http://www.w3.org/1999/02/22-rdf-syntax-ns#" xmlns="http://www.w3.org/2000/svg" height="497" width="427" version="1.1" xmlns:cc="http://creativecommons.org/ns#" xmlns:xlink="http://www.w3.org/1999/xlink" xmlns:dc="http://purl.org/dc/elements/1.1/">
 <defs></defs>
 <metadata>
  <rdf:RDF>
   <cc:Work rdf:about="">
    <dc:format>image/svg+xml</dc:format>
    <dc:type rdf:resource="http://purl.org/dc/dcmitype/StillImage"/>
    <dc:title/>
   </cc:Work>
  </rdf:RDF>
 </metadata>
 <g transform="translate(0,25)">
  <path d="m5,6,209,0,0,485c-95.95-0.31-206.67-53.61-209-201z" transform="translate(0,-25)" fill="#000"/>
  <path d="m422-19-208,0,0,485c91.687-1.9128,204.6-66.398,206.4-203.66z" fill="#FFF"/>
  <path d="m82.835,61.803c5.1353,3.7204,8.1896-3.3312,7.5803-9.8029,2.2694,4.5146,4.0555,6.2902,4.2087-1.187-0.475-8.614-11.462-2.129-12.154-3.318-1-1.718,6.142-7.016,2.626-9.179-3.85-2.367-10.045,7.832-15.869,9.171-8.148,1.874-21.134-7.256-23.137-4.513-2.1168,2.8997-0.1498,9.1504,0.09141,16.888-3.7384-1.8989-7.3904-7.8548-9.8864-5.6777-2.3286,2.031-1.8777,18.14,5.145,20.876-4.0074,11.454,1.693,14.118,1.5069,28.769,3.4578,0.27569,4.7251-15.914,7.1768-15.473,2.473,0.44481-1.1602,14.582,2.1719,29.253,1.3844,6.0958-2.3178,12.563-1.6391,13.557,4.0799-1.3638,6.7824-7.1609,8.0217-13.6,2.1467,1.3036,0.19481,14.848,1.706,22.503,1.3768,6.9742,4.2924,8.0023,3.6596,23.899,3.1463-3.616,6.1384-10.625,7.8846-18.441,3.2123,12.442-6.2258,21.679-5.7156,24.461,2.974,16.214,7.7328,40.479,4.2544,48.929-9.6393,23.417-1.6516,47.081-10.373,58.062-7.9272,9.9807-19.78,16.889-24.994-2.9603-2.9069-11.067,14.709-45.924,20.389-69.935,5.5116-23.297-18.751-56.728-22.779-71.587-2.082-7.6809-4.2574-15.036-1.9483-30.663-12.08,5.6228-7.7073,19.273-5.145,34.256-3.7368-0.91446-7.4737-2.5351-11.211,2.9681,18.168,2.601,38.598,49.725,32.437,55.81-2.0948,2.0689-3.914-13.71-17.459-17.337,3.4788,17.136,10.186,11.077,12.793,23.032,1.2302,5.6415,4.33,11.199-2.3438,19.977-1.316-9.1549-5.1724-13.859-10.853-17.17-2.3097,9.6804,2.8962,11.249,7.3518,17.992,2.1128,3.1974,0.13447,12.087-2.2982,20.618-4.0857,14.327-9.1069,18.976-6.157,41.79,1.2433,9.6157,8.4454,20.952,19.717,16.69l-4.0866-3.5451c-0.23703-0.97619,3.3756,0.39759,6.516-0.7464,2.6146-0.95248,4.7285-4.5749,5.6296-4.1701,0.76557,3.2069-3.5418,6.6724-2.9491,7.9881,7.0652-1.0561,11.972-11.346,14.353-9.0852-7.9132,14.186-5.8314,27.584-8.2959,40.337-2.2271,11.525-8.694,9.872-15.374,6.644-1.1709,13.784,14.692,9.4419,20.077,2.2604-2.7859,13.317-22.239,15.901-21.934,28.586,6.2538-3.6954,14.421-6.4706,20.823-16.173,1.1183,4.7771-12.473,18.487-11.211,24.156,4.6032-1.7242,11.029-4.1099,15.115-15.29,0.14096,13.759-12.571,28.331-4.3837,32.399-0.56784-8.9832,8.7747-9.7084,10.411-22.155,2.7844,5.4881,2.9886,18.096,1.5526,27.383,5.8354-2.3712,6.8248-6.2789,9.0415-12.055,1.2399-3.231-0.26591,10.576,0.75346,12.984,1.9001-1.9763,3.9868-2.2476,4.5208-6.9561,0.43698,8.993,5.2933,11.603,12.101,11.393-2.8486,14.124,2.9098,10.711,7.801,8.7673,18.371,2.1997-0.10098-4.384,3.6759-12.58,3.4388,5.9148,7.3638,11.519,12.185,2.9224-0.15756,13.94,7.4884,10.689,8.958,5.6242,20.037-8.6726-3.9325-7.1883-9.5064-15.069,10.821,2.8477,16.486,2.6486,11.721-3.7138,9.4599-12.246-19.23-4.7344-12.36,4.1251-11.325-8.8966-26.26-8.2375-33.069-15.785-7.1242-7.8968-7.9965-20.705-1.3319-28.54,12.686-14.915,6.3662-53.294,9.9778-51.502,1.9983,0.99187-1.9828,34.431,10.906,35.588-5.6513-11.882-4.991-17.655-3.2881-29.743,3.0934-21.958-6.6827-21.94-11.302-32.132-5.0091-11.052-1.2039-27.696,5.6777-36.866,4.9568-6.6051,7.6724-11.793,9.4829-18.799,0.78163-3.0248-0.78407-10.394-2.8846-14.232,2.4544,0.49955,4.8924,1.113,6.6519,6.4769,6.7081-5.6725,2.7523-15.607,7.1311-17.018,1.7698,12.105,8.824,10.2,3.638,22.512,8.0956,0.37215,6.6657-9.8396,9.0416-15.823,0.24506,10.319,2.1765,14.735,3.7673,20.343,4.4784-1.1159,1.9599-10.533,5.4035-11.439,0.2707,5.584,4.7452,11.099,4.3915,18.045,3.9064,0.8269,4.2754-5.89,6.2484-9.5743-0.16003,9.1594,4.4738,8.9975,7.6706,11.443-1.5396,8.0364-1.6237,7.9309,3.8142,5.8486,4.7991,4.2417-5.4042,14.817,7.4432,10.236,19.737,0.85634-4.4569-11.494-0.6699-18.312,4.4484,3.6143,7.2795,11.433,14.976,6.6029-1.0115,7.7708,5.4596,13.008,8.6557,3.8163,14.429-8.0359-9.3346-8.8826-6.127-15.739,7.97,3.5075,15.107,6.1816,9.133-4.2544,5.3363-14.106-16.077,1.7819-20.93-1.0198-9.6585-5.5761-13.75-8.886-23.183-15.583-9.8516-6.9943-31.655-13.717-31.499-20.05,0.0801-3.264,7.593,6.6977,10.99,3.1431-7.5647-9.6479,1.5806-12.902-7.9303-22.817,17.234,8.8629,21.769,23.392,36.965,15.861-13.053-3.4871-15.632-18.993-31.828-24.187,14.506-0.32186,29.777,19.642,42.369,0.47139-15.628,3.0892-24.432-4.74-33.114-12.763,7.3566,1.8756,15.53,9.9304,21.333,5.8149,0.15498-3.0012-3.847-4.9369-4.4751-9.0037,7.6863,3.1517,10.677,2.3902,14.27,2.1311-4.1406-8.2966-16.089-9.5278-11.705-16.234,6.1191,3.8394,12.238,8.1966,18.357,7.2382-3.8133-9.2726-15.668-10.297-13.037-14.232,4.6576,1.2958,9.092,4.3404,13.654,2.3518-7.2879-3.5162-7.6752-7.2987-11.614-10.815,4.9544,1.8061,10.242,3.9449,12.459,3.0138-6.1354-4.5665-6.9986-9.133-9.133-13.699,3.4476,0.56356,12.637,5.5016,14.316,1.5069-7.7742-3.1631-9.1613-8.7535-12.725-13.517,6.619-1.4953,10.057-4.4028,8.0674-10.503,11.907,5.6685,13.122-0.04561,8.6916-7.3518,0.0271-14.995-9.4875,4.5891-17.071,3.8966,5.0214-5.3199,4.816-10.64,3.5088-15.96,10.471-4.7521,7.176-5.9156,0.75346-7.6639-7.0256-11.07-7.5916-0.63609-9.8864,6.964-1.5006,4.9697-3.9906,7.9291-5.9859,10.607-0.76635-4.9078,3.3916-15.876-5.7117-10.523-14.713-2.3981,0.3692,7.9309,0.0306,14.283-0.24643,4.623,4.6024-4.0586,5.2058-3.4758,0.21985,8.6102-2.4649,17.636-6.614,25.831-4.3479,8.5874-12.154,21.666-24.491,20.976-12.981-0.72696-22.917-5.8347-35.2-2.4354-4.1414,1.1462-14.224-7.3169-9.4072-11.918,3.9429-3.7666,6.8641,3.553,10.153,2.4732,3.5197-1.1556-1.2251-7.3003,2.5725-9.0337,2.42-1.1046,1.116,5.7613,4.6043,4.9621,2.6923-1.1824,1.7501-15.046-4.0872-12.276-6.3992,3.0368-11.612,5.5452-17.405,6.157-4.1922,0.44273-7.9626-19.685-6.1648-23.137,9.0958,2.7393,9.7376,0.28158,9.6657-3.3259z" transform="translate(0,-25)" fill="#fcdd09"/>
  <path d="m99.08,244.97c16.704,1.0513,25.033,6.3712,38.803,15.069,8.7482,5.5256,18.777,8.932,32.776,5.8393-9.832,13.63-24.045,2.0596-30.138,2.072-0.54793,1.3564,18.979,9.6051,11.302,24.864-7.108,14.127-8.8181,25.349,3.3906,20.909,7.7788-2.8294,7.061-8.9575,22.604-12.244-7.6609,0.83422-9.727-4.7167-5.4424-9.2464,2.6248-2.775,5.5246-13.789,6.5725,0.20487,2.526,1.9554,10.711,2.7919-0.94183,9.0415,2.0631,4.13,17.36-9.2731,6.2161,5.8393,2.4142,5.495-4.2418,10.329-8.6648,2.4488-0.57311,3.265-1.289,6.53-9.2299,9.795,5.7106,2.2099,24.428-3.4993,13.939,6.7812,0.0163,5.4384-5.8585,9.727-8.8532-0.75346-3.3123,2.6034-6.9226,2.2273-10.737-0.18837-2.4058,0.0215-1.9819,5.6018-5.8393,6.9695-3.8519-3.2817-2.2169-8.0034-5.4626-9.0416-0.67626,6.4477-3.4251,10.256-5.0859,13.751-1.0956-11.266-3.2862-19.17-6.4044-22.039,0.91653,9.9541,1.3234,19.239-5.651,18.837,2.6999-12.997-1.0948-14.521-2.2604-29.95-2.2704-1.0719-0.0851,19.425-7.5346,17.33,2.2979-12.54-5.6562-16.082-0.94182-26.56,5.3954-11.991-22.173-17.8-23.922-22.227-3.528-8.9277-2.6737-18.334,1.5069-27.501z" transform="translate(0,-25)" fill="#fcdd09"/>
  <path stroke-linejoin="round" d="m345.37,37.378c-6.8306,7.4877-4.799-0.69404-4.1898-7.1657-2.2694,4.5146-7.446,7.4204-6.0923-3.4474,0.47519-8.6139,9.9557-2.5058,10.648-3.6948,0.99976-1.7176-5.9013-6.665-2.626-9.1787,7.9933-6.1348,12.681,4.0643,18.506,5.4035,8.1485,1.8736,27.162-4.9957,29.164-2.2525,2.1168,2.8997,0.52653,7.2668-1.9751,14.628,3.7384-1.8989,11.158-3.159,13.654-0.98199,2.3286,2.031-0.75941,21.273-7.7821,21.078,4.0074,11.454-13.756,22.589,0.73454,26.885-3.7759,23.033-12.734-9.1927-16.221,18.438-2.5285,20.033,10.1,7.7677,8.0892,10.361-3.8156,20.244-15.827,4.5466-15.691,8.5722-7.4045,17.146-0.52505,20.811,3.875,26.913-2.9054,8.9714-13.596,2.1171-14.978,6.3966-2.974,16.214-6.2259,36.712-2.7475,45.162,9.6392,23.417,2.7172,45.216,11.439,56.198,7.9272,9.9807,17.116,18.754,22.33-1.0956,2.9069-11.067-16.784-43.266-19.324-68.603-2.6015-25.957,19.284-58.059,23.312-72.919,2.082-7.6809,7.9869-16.101,5.6777-31.729,14.211,5.6228,5.6866,37.829-3.2424,52.012,9.8638-4.6439,16.375-4.8412,16.382,4.6579-20.299,2.8674-31.893,34.005-31.619,36.63,0.33522,3.2022,6.5779-10.068,20.123-17.87,4.76,19.794-25.637,24.034-14.711,41.144,1.316-9.1549,6.5044-13.059,12.185-16.371,2.3097,9.6804-1.0315,18.708-5.4871,25.451-2.1128,3.1974-1.2,9.4233,1.2327,17.954,4.0857,14.327,6.7094,22.439,3.7595,45.253-11.467,36.949-40.735,1.3153-38.381,5,10.128,15.85,2.6347,22.522,5.0993,35.276,2.2271,11.525,6.8292,14.134,16.439,6.1113,1.1709,13.784-0.30723,15.569-12.085,11.584,12.502,3.8911,23.14,22.549,12.078,28.586-2.442-11.648-7.7366-14.076-18.159-22.033,5.4624,4.3783,21.538,26.309,8.5466,30.816,1.5237-7.8511-8.3653-7.5729-13.517-22.216-2.2721,16.689,17.021,32.263-1.2885,32.601,0.98842-10.604-4.907-10.68-2.608-23.688-1.1956,3.2929-3.3151,10.045-3.8808,16.35-0.57235,6.3805-3.7424,17.054,4.4592,11.566-2.7207,13.561-16.146,8.0376-16.447-6.5605-0.41461,5.2568-5.7959,14.335-12.68,5.884,5.7526,8.1974,0.44404,12.341-5.5482,7.9069,3.7905,14.124-3.709,10.977-8.6002,9.0337-15.357,3.895,1.5566-6.359-1.2784-14.179-3.4388,5.9148-7.3638,11.519-12.185,2.9224,3.5551,16.82-8.1167,13.72-8.958,5.6242-17.777-8.2958,8.4611-8.2539,14.035-16.135-10.821,2.8477-22.613,4.5134-17.848-1.849-1.2358-8.8525,6.6383-12.801,12.94-7.6052,4.2091,3.4703,9.667,3.8719,4.4809,9.5992,5.1982-11.028,19.866-12.766,26.675-20.313,7.1242-7.8968,10.394-17.242,3.7295-25.077-12.686-14.915-0.82481-55.96-4.1173-53.633-1.8613,1.3157-2.2493,53.803-22.095,38.518,11.512-7.3536,11.118-18.987,9.415-31.075-3.0934-21.958,7.7482-20.075,12.368-30.268,5.009-11.052,1.4703-27.163-5.4114-36.333-4.9568-6.6051-8.2052-11.793-10.016-18.799-0.78163-3.0248,4.2471-10.926,6.3476-14.765-5.9174,0.23316-7.29,5.3752-9.0494,10.739-6.7081-5.6725,0.71077-21.201-3.6681-22.612-1.7698,12.105-9.0904,13.13-3.9044,25.443-8.0956,0.37215-5.3338-11.704-7.7096-17.687-0.24506,10.319-2.1765,20.329-3.7673,25.938-4.4784-1.1159-4.091-15.861-7.5346-16.767,2.3932,7.9815-4.4788,16.426-4.1251,23.373-3.9064,0.8269-4.5418-11.218-6.5148-14.902,0.16003,9.1594-4.4738,8.9975-7.6706,11.443,1.5396,8.0364,1.6237,7.9309-3.8142,5.8486-4.7991,4.2417,7.8853,8.203-7.976,4.3758-19.737,0.85634,0.46105-8.2974-3.3259-15.115-4.4484,3.6143-0.88618,9.0358-8.5825,4.2054,1.0115,7.7708-3.1535,17.133-7.8565,5.681-14.429-8.0359,6.6707-5.686,3.4631-12.542-7.97,3.5075-13.775,4.5833-7.801-5.8527-7.4674-16.237,12.951,0.25789,16.934-3.6837,8.3266-8.24,13.505-6.5062,21.851-15.85,15.59-17.453,9.5208-13.041,30.552-36.325-17.234,18.834-40.32,32.124-39.317,7.7932,7.7784,7.4381,14.217-6.4048,25.138-11.598-14.506,7.9838-33.921,16.252-31.067-7.8167,15.628,3.0892,22.171,2.0411,30.854-5.982-6.9799,3.7593-15.906,9.5536-21.71,5.4381-0.15498-3.0012,7.6143-8.7042,8.2424-12.771-7.6863,0.51461-12.937,7.2878-16.53,7.0286-1.6618-7.945,4.7224-13.037,12.459-20.755-6.3498,2.6858-12.957,3.0969-18.357,9.1219-2.2197-11.535,12.033-11.566,10.777-14.986-5.3664,1.9605-10.681,1.3328-14.03-1.7922,7.2879-3.5162,9.1821-5.415,13.121-8.9312-5.6506,4.2429-16.038,2.0051-16.98-3.3906,6.1354-4.5665,12.65,0.28532,14.784-4.2812-3.4476,0.56356-13.39-2.7865-15.069-6.7812,7.7742-3.1631,9.1613,1.4182,12.725-3.3449-6.619-1.4953-9.6798-6.2865-7.6907-12.386-11.907,5.6685-10.484-4.1897-6.0545-11.496-0.0271-14.995,6.4737,1.1985,14.057,0.506-2.1207-8.3772-15.237-15.785,1.012-18.726,7.0256-11.07,6.5821-0.1773,9.133,7.3407,1.7099,5.0395,1.9195,10.755,2.2186,12.867,0.76635-4.9078-1.1312-24.541,10.232-16.174,22.247,2.4994-8.6384,22.448-7.767,28.001,0.71773,4.5736-2.7893-11.543-2.7893-11.543-0.21985,8.6102,5.1477,17.636,9.2968,25.831,4.3479,8.5874,4.9863,17.283,17.333,17.773,18.036,0.71666,21.561-12.194,38.025-1.4935,3.603,2.3417,15.834-4.315,11.856-9.6579-1.6826-2.2597-4.0816,5.7198-7.5157,5.2853-6.1568-0.77886,0.84841-8.6054-2.9492-10.339-2.42-1.1046-4.8095,5.372-8.3716,5.7156-6.3504,0.6126-0.78688-13.283,4.8397-15.531,1.4394-0.57508,3.2702-4.7936,4.1032-4.3982,1.3539,0.6425,1.3953,5.6692,2.9836,6.486,1.2842,0.66043,3.421-4.106,4.7744-3.414,1.1325,0.57898,1.4768,6.617,2.6094,7.1707,3.7518,1.8339,7.3832,3.4103,10.094,3.9439,6.0758,1.1962,5.3255-20.439,3.5277-23.89-9.3733,4.1267-13.728-0.4841-13.433-5.2096z" stroke="#000" stroke-linecap="butt" stroke-miterlimit="4" stroke-dasharray="none" stroke-width="3" fill="#0f47af"/>
  <path stroke-linejoin="round" d="m328.19,217.16c-16.704,1.0513-27.559,1.2318-42.396,12.86-8.1438,6.3829-28.101,11.33-26.382,0.51155-25.864,25.618,19.783,18.823,25.876,11.129-3.2249,3.2534-18.979,9.6051-11.302,24.864,7.108,14.127,11.216,25.616-0.99309,21.175-7.7788-2.8294-5.4115-14.928-22.553-12.887,7.3945-1.0305,14.737,3.3853,5.1247-8.8697-2.3574-3.0055-7.6557-13.789-8.7036,0.20487-2.526,1.9554-8.0739,2.4152,3.579,8.6648-2.0631,4.13-16.222-7.1231-9.2299,4.8975-4.0126,7.6261,8.3479,12.446,12.771,4.5665,0.57311,3.265-5.6371,3.5997,2.3038,6.8647-5.7106,2.2099-19.705-3.8169-11.665,8.9123-1.1465,5.4384,6.7814,9.727,9.7761-0.75346,3.3123,2.6034,3.9923,2.4936,7.8066,0.078,2.4058,0.0215-3.3458,7.9993,6.3721,12.031,0.12243-4.6136,1.9505-11.733,5.1962-12.771-1.7212,7.7796,1.8268,12.388,6.1514,13.218,1.0956-11.266,0.35597-14.908,3.4742-17.777-2.5149,10.753,4.2708,20.038,11.245,16.972-5.5845-11.386,1.1405-7.581,1.4612-20.893,2.2704-1.0719,3.0611,20.687,13.064,11.593-9.7568-6.4131,4.3889-19.936-2.1902-33.343-5.7923-11.804,20.924-12.44,24.272-21.662,2.4715-10.783,0.69599-21.71-3.0596-29.587z" stroke="#000" stroke-linecap="round" stroke-miterlimit="4" stroke-dasharray="none" stroke-width="3" fill="#0f47af"/>
  <path d="m62.537,58.108a4.0499,2.072,0,1,1,-8.0997,0,4.0499,2.072,0,1,1,8.0997,0z" transform="matrix(0.96959686,-0.7592884,0.73670138,0.99932437,-40.841797,18.694689)" fill="#000"/>
  <path d="m63.968,58.108a5.4802,2.072,0,1,1,-10.96,0,5.4802,2.072,0,1,1,10.96,0z" transform="matrix(-0.96959686,-0.7592884,-0.73670138,0.99932437,473.73383,19.282392)" fill="#000"/>
  <path d="m76.665,80.9c1.2581-7.907,20.693-14.414,31.834-19.402,5.4159-2.4246,9.8189-6.1078,12.809-11.114,5.8531-9.7993,11.638-3.2251,10.737,2.8255-1.5455,10.382-13.41,12.726-21.285,14.693-8.6021,2.1481-16.779,4.9866-24.864,10.172-2.3974,1.5374-9.8087,6.4631-9.2299,2.8255z" transform="translate(0,-25)" fill="#da121a"/>
  <path d="m174.8,39.837c1.7466-3.3085,10.268-3.7901,12.809-1.3186-0.31682,2.386-6.5443,2.806-6.5928,6.0277-0.0538,3.5728-7.8804-1.5565-6.2161-4.7091z" transform="translate(0,-25)" fill="#da121a"/>
  <path d="m148.97,23.585c-0.92976-3.6238,5.0575-9.7069,8.5998-9.5838,1.3687,1.9799-2.961,6.4757-0.8319,8.8942,2.361,2.6821-6.8819,4.1428-7.7679,0.68965z" fill="#da121a"/>
  <path d="m192.23,36.123c3.4972-1.3289,10.211,3.9409,10.485,7.4748-1.8145,1.5814-6.766-2.2187-8.9314,0.16735-2.4014,2.646-4.886-6.3758-1.5535-7.6421z" fill="#da121a"/>
  <path d="m202.76,186.33c3.6945-0.58929,9.1954,5.9369,8.744,9.4524-2.0984,1.179-6.1728-3.5494-8.7785-1.6541-2.8897,2.1018-3.486-7.2368,0.0345-7.7984z" fill="#da121a"/>
  <path d="m201.75,211.24c2.9334,2.322,1.849,10.788-1.0453,12.834-2.2878-0.74767-1.5623-6.947-4.7208-7.5836-3.5028-0.70606,2.9709-7.463,5.7662-5.2504z" fill="#da121a"/>
  <path d="m177.09,222.51c0.92078,3.6261-5.0815,9.6944-8.6235,9.5625-1.3638-1.9833,2.977-6.4683,0.85393-8.8921-2.3544-2.6879,6.8922-4.1257,7.7696-0.6704z" fill="#da121a"/>
  <path d="m75.839,44.771c1.7466-3.3085,5.4941-3.2228,6.9695,0.000002,1.0019,2.1885-2.2119,3.7478-4.5208,5.0859-3.0916,1.7917-4.1131-1.9332-2.4488-5.0859z" fill="#da121a"/>
  <path d="m78.476,59.652c1.7197-3.3226,3.5635-2.5253,4.3324-0.37673,1.0388,2.9026-5.9328,3.4689-4.3324,0.37673z" fill="#da121a"/>
  <path d="m180.59,261.23c2.6761-2.6144,10.936-0.46252,12.597,2.6684-1.0325,2.1742-7.0892,0.66641-8.1223,3.7184-1.1456,3.3846-7.0248-3.8956-4.4748-6.3869z" fill="#da121a"/>
  <path d="m189.66,278.39c3.7364-0.18882,8.5041,6.8907,7.6774,10.337-2.213,0.94662-5.7556-4.1922-8.5499-2.5879-3.0988,1.7791-2.688-7.5696,0.87244-7.7495z" fill="#da121a"/>
  <path d="m186.23,299.7c3.3792,1.6055,4.2197,10.099,1.8575,12.742-2.3972-0.21592-3.0794-6.4202-6.3004-6.3327-3.5719,0.0969,1.2228-7.939,4.4428-6.4091z" fill="#da121a"/>
  <path d="m139.92,361.29c3.5988-1.0222,9.8332,4.8073,9.8008,8.3516-1.9442,1.4189-6.5493-2.7942-8.9125-0.60393-2.6208,2.4289-4.3176-6.7736-0.88828-7.7477z" fill="#da121a"/>
  <path d="m141,383.93c2.6506,2.6403,0.61118,10.928-2.4969,12.632-2.1881-1.0028-0.76276-7.0795-3.8286-8.071-3.3999-1.0995,3.7997-7.0771,6.3254-4.5612z" fill="#da121a"/>
  <path d="m112.91,390.43c2.2783,2.9675-0.83876,10.913-4.1448,12.191-2.0363-1.2832,0.17975-7.1182-2.7281-8.5062-3.2247-1.5393,4.7019-6.5128,6.8728-3.685z" fill="#da121a"/>
  <path stroke-linejoin="round" d="m119.16,365.47c2.0207,0.005,8.1279,7.9709,13.156,6.6062m36.573-94.008c4.5574-3.8199,9.3724-0.81291,14.097-3.3772m-25.71-230.59c0.59427-2.9609,1.428-7.103,4.9053-12.947m-18.468,54.061c2.34,3.0599,3.7035,6.1197,8.861,9.1796m8.2802-34.986c-1.4033,2.189-1.7838,4.0371-0.18053,5.2239m-3.9635,2.6874c0.83669,1.1316,1.4231,2.889,3.21,1.645m-6.2239,2.4991c1.8233,3.3696,3.2269,7.4888,6.4123,8.4262m-11.88-0.514c0.0735,3.1215,4.0058,5.4227,6.4123,7.1076m-17.903,14.554c5.1754-1.1039,9.8224-5.9061,14.512-10.41m-21.293,6.4044c7.7688,2.1033,14.362-7.2885,20.728-13.135m8.6648,14.077c-6.2272,13.105-25.659,3.1921-34.855-4.753,13.06-0.18573,20.056-10.361,26.191-17.097m-38.24,16.625c9.5283,1.1681,19.181,2.5769,21.858-9.4686m-54.824-46.287c-0.988-1.716-0.381-2.476,1.138-2.688m4.137-6.919c-2.969,3.1714-3.0025,5.3642,5.4704,4.6588,1.7059-2.9323-0.58517-6.5097-2.2682-7.1076m-22.792,38.238,3.5868-3.6292m-8.6726-3.2022c2.7564-2.8634,4.5273-5.4239,7.7694-5.3734-1.4502,5.1933-3.12,7.1117-6.0663,8.8143m-0.196-16.011c0.81062,1.1175,2.4152,1.8381,5.8472,2.7062-3.456,1.6389-6.5352,2.6459-9.6145,5.5316m9.984-23.307c-6.1997-5.5237-10.994,0.81319-16.701,8.1072,4.6784-3.5769,6.3077,7.6209,14.825-3.6367m-21.293-2.398c2.8102-4.69,8.7509-8.734,13.57-10.41m-19.41,11.728c1.4851,5.0747,0.37549,13.115,4.9784,14.626,1.2303-3.5179-2.1769-9.5604-4.5938-14.488m26.363,8.3384c5.8756,9.2625-0.95365,19.161,7.5425,26.509m-12.063,13.801c0.18416,8.5617,6.573,5.3473,8.9269,13.127-1.6501-6.3592,0.91204-8.3875-2.3263-11.671m5.4548,1.7456c2.7619,11.988,8.3867,7.2488,12.006,15.588-1.1016-5.1558,2.6869-10.759-1.8262-12.625m9.9755,2.8758c3.5948,9.7674,10.933,5.5136,13.882,12.213-0.67377-3.711,2.2165-7.4221-4.8328-11.133m-9.6145,13.048c10.746,16.827,27.382,16.191,40.815,26.042,1.9044-3.3917-7.0464-9.8091-13.494-14.414m-16.772-10.31c1.9786,1.3221,3.5537,3.6529,4.5286,7.4843m-10.368,6.8315c2.7427,9.2558,10.497,7.2841,15.064,14.15,0.60924-3.2723,1.18-6.6215-0.17557-13.823m-34.866-16.53c1.4302,5.0505,7.2965,8.6195,13.723,13.866,1.1518-3.5087-1.2759-7.0174-2.9785-10.526m-22.423-6.5425c-0.85564,10.603,6.5242,10.8,9.1134,16.989-0.35683-3.9217,2.3436-8.7852-4.9615-12.707m11.106,14.178c4.0553,11.68,8.6561,6.7445,14.21,14.857-0.777-3.89,1.8638-6.848-3.8422-12.082m30.696-21.235c2.6894,2.8882,11.212,10.704,2.4566,9.9331m-12.063-6.9192c6.9264,7.7972,18.004,7.8941,28.437,10.146,8.7704,1.8935,16.462,2.1644,21.488-10.574m-45.592,35.84c1.0695,8.4334,3.9025,14.492,9.328,19.753,3.4631,6.9779,7.5344,11.482,14.414,15.421m-41.087-34.06c1.0092,12.143,6.2539,19.108,16.304,20.201-9.0768-4.4001,2.4128-15.167-7.8196-24.395m-29.204-6.7309c6.8894,10.276-4.5052,20.507,5.3049,29.547,1.3119-17.356,11.698-12.224,4.8747-25.642m-23.742,16.626c11.285,11.769,19.455,7.2373,23.554,12.005m-18.66-16.53c3.1423,3.1929,6.5861,8.1173,10.18,8.9912m-11.498-16.9c2.3339,1.9073,4.9124,6.5448,6.789,6.1658m-8.1076,14.743c5.3988,4.4812,9.5496,7.6227,13.759,8.6145m-13.005-1.8334c3.9229,3.3224,9.7579,7.5405,13.193,8.4262m-12.063-1.645c3.5258,2.7664,8.0862,6.4836,12.063,7.4843m-11.686-2.0217c3.2676,3.311,8.2569,6.4864,10.933,7.4843m-6.789,1.1805c1.4467,1.3847,4.2121,2.8021,6.2239,3.3403m97.377-0.89153c3.9251,2.7459,6.7654,6.4337,13.382,9.1796m-57.08-35.93c-0.75362,2.47,2.737,4.5034,4.3402,6.7309m14.496,3.4409c4.1236,8.8032,10.349,15.228,15.454,20.105m-25.82-24.07c2.3832,3.5247,7.3495,11.003,9.2378,11.063m-58.024,16.815c4.4271,1.8669,9.2593,4.1105,16.019,4.8472m-12.812-8.23c3.539,1.7417,7.9807,3.0549,13.947,3.3403m-18.662-9.93c5.9689,2.9129,10.952,4.5221,19.221,5.2239m-19.787-11.63c6.6006,4.3069,13.749,5.9359,18.844,6.7309m-13.761-37.81c3.2262,13.937-1.7718,18.85-0.67843,23.031,1.9736,7.5457,8.9451,6.7282,13.307,8.7527m-18.468,20.3c3.3304,1.5677,6.6608,2.7754,9.9912,3.3403m-8.861,2.8758c2.8935,1.43,5.3943,2.4673,6.789,2.3985m-27.508,33.01c-3.5608-20.876,3.9597-30.19,3.3984-46.388m21.277,48.649c4.4471,0.74906,7.5027,0.10406,13.759,2.2101m-14.472-10.27c2.0342-0.035,6.021,0.54103,9.1999,1.7087m-8.4007-5.7045c9.8092,1.9006,19.627,4.5813,31.402,12.378m-30.981-16.32c12.335,2.0342,19.733,4.8218,27.016,9.6814m1.332-3.8855c-8.8796-7.0977-18.903-8.3408-27.783-10.077m39.237,32.72c-8.58-9.47-20.82-15.97-40.746-16.24m-13.586,85.24c3.88-12.61,11.105-20.42,11.189-30.63m-28.903,7.5921c-0.30468-9.7676-1.6171-19.535,5.5942-29.303" stroke="#000" stroke-linecap="round" stroke-miterlimit="4" stroke-dasharray="none" stroke-width="3" fill="none"/>
  <path stroke-linejoin="round" d="m283.16,92.711c1.8947,0.31053,3.673-0.19369,5.2135-2.3626m-9.7421-12.822c1.4127-0.15095,2.485-0.87169,3.482-1.6966m-2.9492,6.2253c4.1399,0.11113,4.6556-1.2274,5.3467-2.4958m-4.5476,8.8892c2.6702-0.32866,5.3404-0.71972,8.0106-3.8278m-16.269,25.672c7.2047-3.6379,17.165-6.2424,19.199-11.819m-3.2156-16.418c2.6147,12.494-0.82839,22.662,13.338,13.221m38.497-62.99c2.0338-0.37749,2.0342-2.2034,2.5268-5.2054m33.546-8.4261c4.7324,3.4051,9.933,5.1717,13.338,13.221m5.5752,3.295c-4.8158,12.447,1.1963,7.6197,4.0148,5.7623m-18.933,29.401c3.5014,5.2346,0.90136,13.52,0.55171,20.68m-16.002-48.917c2.8255,8.3632,6.986,20.171-1.0466,28.405m-17.601,3.8278c19.723-1.1809,34.525-7.7112,17.867-33.663m-50.633,59.769c-16.312-1.2209-6.9981-5.4565,0.0189-9.4219m31.948-6.5614c-1.9945,3.3632-5.3327,6.8272,12.006,2.0328m0.24746,8.6228c-2.2423,12.712,4.7022,5.5203,10.674,0.43447m-73.01,14.75c6.348,0.73505,11.415,3.7755,21.064-1.4303m-1.0845,4.6269c-2.7424,10.383,2.0859,12.914,18.504,3.4265-0.62617,4.8495-4.6203,12.88,6.8219,6.3316m-64.23-21.48c-1.1096,6.099-3.5989,15.032,10.621,14.07,2.9683-0.201,8.4481-9.1046,12.841-9.3728m27.952,32.331c-0.0822-3.78,1.3461-7.8622,4.8139-12.352m-34.65-6.295c-8.7977,7.8266,7.0423,5.6503,17.867,3.3648m54.857-4.1639c0.50434-6.1816,0.20385-14.241,2.6828-15.815m-33.051,47.249c8.482-0.69618,16.727,0.92455,20.919-13.083-0.57208,4.3445-1.2231,11.665-0.38806,14.05m-18.4-22.278c-7.6219,6.6772-4.5867,13.444-7.6838,23.405,9.9153-1.9488,6.6336-8.4545,16.227-16.311m4.5097,61.634,2.6828-1.1639m-6.9451-4.4303c3.56-0.83193,4.583-1.6639,5.3467-2.4958m-9.0762-3.0984c3.0254,0.17062,6.0508-1.642,9.0762-3.5614m-11.207-1.7664c3.8246,0.64154,7.6491-2.0548,11.474-4.8933m-10.675-2.2992c3.9304,0.45074,7.3203-2.1217,10.674-4.8933m-11.474-1.5c4.5349-0.16216,9.0698-3.3555,13.605-7.0244m-16.269,1.4302c5.6005-2.6973,11.201-2.9057,16.801-9.4219m-120.16,42.721c2.8478-1.286,5.6956-2.7343,8.5434-8.8892m73.504,17.68c2.0486-0.67387,3.8309-0.65414,4.8139-1.6966m-8.0106-3.8975c5.0284-0.39778,6.4283-1.7027,8.8098-2.7622m-10.142-3.3648c4.2685-0.60441,8.5371-0.95426,12.806-5.6925m-57.26-12.7c18.032-11.698,34.718-22.718,48.835-45.532-5.3881,7.5061-3.7854,14.036-8.7473,23.299m9.9935,25.43c15.282-11.288,2.3557-18.848,6.5463-33.866-12.15,16.193-20.67,19.565-32.251,13.779,0,0-7.2805-8.2794,0.27423-18.827m64.324,106.04c-2.1973-6.9692-3.453-15.052-2.1122-26.204m-42.641,27.803c6.145-1.6922,11.524-1.6648,14.878-1.1639m-16.476-17.75c4.2334-1.6827,12.585-2.952,16.683-2.4958m-23.876,10.754c7.6397-3.3029,17.382-4.8758,24.312-4.6269m-24.045,12.086c8.4342-3.8844,17.281-4.7463,24.169-4.3605m-46.013,2.4312c3.1282-1.4258,4.1623-3.7317,10.408-2.1648m81.763,37.926c5.9149,0.95811,12.134,3.0213,17.601-11.819m-34.65,40.057c0.93201-9.7919,2.6322-19.179-0.24746-29.135m-29.322-5.2295c0.16933,19.102,3.0734,38.822,9.609,53.979m-14.92-246.32c-5.5325,7.9591-17.229,15.401,7.491,12.674-5.4001,13.917-5.8367,14.079,10.767,5.9924-5.1562,13.002-13.804,21.758,10.531,8.1411m-9.8753,11.553c2.7061,9.6298,7.7638,4.2684,8.3516,14.427,5.7065-7.51,2.1415-15.999,8.9826-19.586m-40.244-11.09c-10.118,12.803-12.921,16.821,8.0106,10.291m35.285-81.699c6.1997-5.5237,11.936,1.0016,17.643,8.2956-4.6784-3.5769-7.2495,7.4325-15.767-3.8251" stroke="#000" stroke-linecap="round" stroke-miterlimit="4" stroke-dasharray="none" stroke-width="3" fill="none"/>
  <path stroke-linejoin="round" d="m357.79,58.217c-10.487-17.361-38.113-16.059-49.704-36.109-5.7128-9.8818-12.624-2.9935-10.737,2.8255,5.8344,17.991,31.898,21.046,45.084,26.995,2.838,1.2806,15.936,9.9261,15.357,6.2885z" stroke="#000" stroke-linecap="round" stroke-miterlimit="4" stroke-dasharray="none" stroke-width="3" fill="#da121a"/>
  <path stroke-linejoin="round" d="m259.86,14.573c-1.3409-3.4927-11.022-7.5574-15.258-4.5208,0.31682,2.386,6.5726,4.6521,6.2161,9.6066-0.32141,4.4657,11.2,0.53513,9.0416-5.0859z" stroke="#000" stroke-linecap="round" stroke-miterlimit="4" stroke-dasharray="none" stroke-width="3" fill="#da121a"/>
  <path stroke-linejoin="round" d="m285.05,24.543c0.92976-3.6238-2.7191-13.942-7.3916-14.573-1.3687,1.9799,1.0639,9.1585-2.5721,12.33-2.6926,2.349,9.0777,5.6954,9.9636,2.2423z" stroke="#000" stroke-linecap="round" stroke-miterlimit="4" stroke-dasharray="none" stroke-width="3" fill="#da121a"/>
  <path stroke-linejoin="round" d="m242.63,33.787c-3.5731-1.1089-14.732,1.4922-16.324,7.4748,1.8145,1.5814,10.122-1.8955,13.829,1.4859,3.4975,3.1902,7.932-7.2735,2.4953-8.9607z" stroke="#000" stroke-linecap="round" stroke-miterlimit="4" stroke-dasharray="none" stroke-width="3" fill="#da121a"/>
  <path stroke-linejoin="round" d="m231.15,184.94c-3.6945-0.58929-10.326,3.8648-11.569,10.206,3.6053,0.0488,8.0564-2.6076,10.662-0.71224,3.8282-0.0823,2.9663-7.4347,0.9073-9.4936z" stroke="#000" stroke-linecap="round" stroke-miterlimit="4" stroke-dasharray="none" stroke-width="3" fill="#da121a"/>
  <path stroke-linejoin="round" d="m232.16,204.38c-4.0636,3.2638-6.1814,12.483-1.4034,15.66,1.346-3.5732,4.2316-6.6575,8.2998-8.3371,3.5899-1.4822-4.1169-9.5549-6.8964-7.3224z" stroke="#000" stroke-linecap="round" stroke-miterlimit="4" stroke-dasharray="none" stroke-width="3" fill="#da121a"/>
  <path stroke-linejoin="round" d="m250.61,212.08c-0.92078,5.6982,4.1397,12.52,7.6817,12.388,0.0452-2.9251-1.4701-6.4683,1.7832-9.6455,2.5564-2.4966-8.8962-6.2618-9.4648-2.7424z" stroke="#000" stroke-linecap="round" stroke-miterlimit="4" stroke-dasharray="none" stroke-width="3" fill="#da121a"/>
  <path stroke-linejoin="round" d="m359.02,45.502c-1.7466-3.3085-6.436-1.9042-7.9114,1.3186-1.0019,2.1885,1.9485,4.8343,3.9557,6.5928,4.4101,3.8637,5.62-4.7587,3.9557-7.9114z" stroke="#000" stroke-linecap="round" stroke-miterlimit="4" stroke-dasharray="none" stroke-width="3" fill="#da121a"/>
  <path stroke-linejoin="round" d="m357.52,62.221c0.66708-2.9398-9.2869-5.6439-10.589-2.4298-1.1573,2.8574,9.1325,8.8468,10.589,2.4298z" stroke="#000" stroke-linecap="round" stroke-miterlimit="4" stroke-dasharray="none" stroke-width="3" fill="#da121a"/>
  <path stroke-linejoin="round" d="m248.99,262.1c-3.9947-4.1214-13.573-3.4764-15.234-0.34542,4.0463,1.7975,9.538,4.2454,10.571,7.2974,1.1456,3.3846,7.1443-4.3921,4.6631-6.952z" stroke="#000" stroke-linecap="round" stroke-miterlimit="4" stroke-dasharray="none" stroke-width="3" fill="#da121a"/>
  <path stroke-linejoin="round" d="m241.61,277.33c-5.9968-0.18882-11.895,8.0666-11.068,11.513,4.6617-2.2556,10.653-4.0039,13.447-2.3996,3.0988,1.7791,1.1838-9.0016-2.3794-9.1138z" stroke="#000" stroke-linecap="round" stroke-miterlimit="4" stroke-dasharray="none" stroke-width="3" fill="#da121a"/>
  <path stroke-linejoin="round" d="m243.16,296.43c-3.3792,1.6055-4.9732,9.911-2.0459,14.249,2.9623-1.3461,3.2678-7.9271,6.4887-7.8397,3.5719,0.0969-1.2228-7.939-4.4428-6.4091z" stroke="#000" stroke-linecap="round" stroke-miterlimit="4" stroke-dasharray="none" stroke-width="3" fill="#da121a"/>
  <path stroke-linejoin="round" d="m291.17,361.22c-4.164-2.3408-12.47,2.9237-12.438,6.468,1.9442,1.4189,7.6171-0.4988,10.419,1.0914,2.6208,1.4871,5.1261-5.8124,2.0185-7.5593z" stroke="#000" stroke-linecap="round" stroke-miterlimit="4" stroke-dasharray="none" stroke-width="3" fill="#da121a"/>
  <path stroke-linejoin="round" d="m288.02,382.73c-2.2068,3.0211-2.3065,11.117,1.9318,17.341,2.1881-2.5097,2.2697-11.035,5.3355-12.027,3.3999-1.0995-4.7416-8.7724-7.2673-5.3146z" stroke="#000" stroke-linecap="round" stroke-miterlimit="4" stroke-dasharray="none" stroke-width="3" fill="#da121a"/>
  <path stroke-linejoin="round" d="m310.82,389.6c-3.4085,3.9093,1.6056,11.29,4.9116,12.568,2.0363-1.2832-0.74485-7.8717,1.9746-10.767,2.4465-2.6044-4.5434-4.4884-6.8862-1.8014z" stroke="#000" stroke-linecap="round" stroke-miterlimit="4" stroke-dasharray="none" stroke-width="3" fill="#da121a"/>
  <path stroke-linejoin="miter" d="m6-18.14,415,0,0,295c0,97.018-97.859,188.06-210.57,189.13s-203.33-83.32-204.43-189.13z" stroke="#000" stroke-linecap="butt" stroke-miterlimit="4" stroke-dasharray="none" stroke-width="6" fill="none"/>
 </g>
</svg>
