<svg height="491" width="476" enable-background="new 0 0 476.9 490.734" version="1.1" viewBox="0 0 477 491" xmlns="http://www.w3.org/2000/svg">
 <path d="m229 480c-41.9-2.46-83.8-15.3-119-39-32.1-22.2-69.1-52.6-83.6-89.1-10.9-24.9-14.2-52.3-14.2-79.3-3.52-87.2 2.98-180-0.442-268h455c-4.01 96.5 2.73 199-1.65 295-5.13 53.5-45.2 103-88.4 135-40.4 31.1-91.8 45.6-142 45.1-1.79 0.0664-3.58 0.0903-5.36-0.125z" fill="#f00"/>
 <g fill="#fff">
  <path d="m249 194-0.15 0.123 0.15-0.123"/>
  <path d="m119 448c-54.2-28.5-98.2-93.9-105-155l23.2-8e-3c7.38-1.59 10.6 0.899 8.68 8.48 1.07 4.72-2.6 14.1 1.62 15.7h379c0.01-8.11 0.0193-16.2 0.029-24.3h37.8c-2.37 35.2-22.6 69.7-43.6 98.2-20.5 28.5-44.8 51.5-76 67.1-23.9 10.8-53.7 20.4-79.8 22.8-48.8 4.91-111-6.05-146-32.6z"/>
  <path d="m71.9 201h85.9v5.73h-85.9z"/>
  <path d="m75.4 205h79.2v5.73h-79.2z"/>
  <path d="m78.4 132h73.2v202h-73.2z"/>
  <path d="m319 132h73.2v202h-73.2z"/>
  <path d="m85.5 293h43.7v38.3h-43.7z"/>
  <path d="m169 293h43.7v38.3h-43.7z"/>
  <path d="m255 293h43.7v38.3h-43.7z"/>
  <path d="m341 293h43.7v38.3h-43.7z"/>
 </g>
 <g fill="none" stroke="#131516" stroke-miterlimit="10">
  <path d="m30.3 358h416" stroke-width="3"/>
  <g stroke-width="2">
   <path d="m35.1 365h408"/>
   <path d="m30.3 350h416"/>
   <path d="m17.9 325h438"/>
   <path d="m46.3 388h160"/>
   <path d="m264 388h164"/>
   <path d="m381 414h27.6"/>
   <path d="m95.9 414h-28.8"/>
   <path d="m85.5 293h43.7"/>
   <path d="m426 293h32.2"/>
   <path d="m85.5 293 7.02 7.03"/>
   <path d="m129 293-7.18 7.18"/>
   <path d="m92.6 300h29.5"/>
   <path d="m85.5 293v24.3"/>
   <path d="m129 293v24.3"/>
   <path d="m92.6 300v24.6"/>
   <path d="m122 300v24.5"/>
   <path d="m85.5 317 7.17 7.17"/>
   <path d="m129 317-7.18 7.32"/>
   <path d="m169 293h43.7"/>
   <path d="m169 293 7.03 7.02"/>
   <path d="m213 293-7.18 7.18"/>
   <path d="m176 300h29.5"/>
   <path d="m169 293v24.3"/>
   <path d="m213 293v24.3"/>
   <path d="m176 300v24.6"/>
   <path d="m206 300v24.5"/>
   <path d="m169 317 7.17 7.17"/>
   <path d="m213 317-7.18 7.32"/>
   <path d="m255 293h43.7"/>
   <path d="m255 293 7.02 7.03"/>
   <path d="m299 293-7.18 7.18"/>
   <path d="m262 300h29.5"/>
   <path d="m255 293v24.3"/>
   <path d="m299 293v24.3"/>
   <path d="m262 300v24.6"/>
   <path d="m291 300v24.5"/>
   <path d="m255 317 7.17 7.17"/>
   <path d="m299 317-7.18 7.32"/>
   <path d="m341 293h43.7"/>
   <path d="m341 293 7.03 7.03"/>
   <path d="m385 293-7.18 7.18"/>
   <path d="m348 300h29.5"/>
   <path d="m341 293v24.3"/>
   <path d="m385 293v24.3"/>
   <path d="m348 300v24.6"/>
   <path d="m378 300v24.5"/>
   <path d="m341 317 7.17 7.17"/>
   <path d="m385 317-7.18 7.32"/>
   <path d="m426 293h38.6"/>
   <path d="m426 293 7.03 7.03"/>
   <path d="m433 300h29.6"/>
   <path d="m426 293v24.3"/>
   <path d="m433 300v24.6"/>
   <path d="m426 317 7.17 7.17"/>
   <path d="m13.1 293h32.2"/>
   <path d="m45.3 293-7.18 7.18"/>
   <path d="m14.4 300h23.7"/>
   <path d="m45.3 293v24.3"/>
   <path d="m38.1 300v24.5"/>
   <path d="m45.3 317-7.18 7.32"/>
   <path d="m45 317h40.5"/>
   <path d="m129 317h40"/>
   <path d="m213 317h41.9"/>
   <path d="m299 317h42.7"/>
   <path d="m385 317h41"/>
   <path d="m63.5 325v24.4"/>
   <path d="m106 325-0.266 25.1"/>
   <path d="m150 325-0.267 25.1"/>
   <path d="m193 325-0.266 25.1"/>
   <path d="m235 325v24.5"/>
   <path d="m280 325-0.265 25.1"/>
   <path d="m322 325-0.267 25.1"/>
   <path d="m364 325-0.267 25.1"/>
   <path d="m406 325-0.267 25.1"/>
   <path d="m42.7 350v14.6"/>
   <path d="m83.5 350v14.6"/>
   <path d="m128 350v14.6"/>
   <path d="m172 350v14.6"/>
   <path d="m214 350v14.6"/>
   <path d="m300 350v14.6"/>
   <path d="m258 350v14.6"/>
   <path d="m344 350v14.6"/>
   <path d="m385 350v14.6"/>
   <path d="m425 350v14.6"/>
   <path d="m63.5 365v22.8"/>
   <path d="m106 365-0.266 23.5"/>
   <path d="m150 365-0.267 23.5"/>
   <path d="m193 365-0.266 23.5"/>
   <path d="m235 365v15.3"/>
   <path d="m280 365-0.265 23.5"/>
   <path d="m322 365-0.267 23.5"/>
   <path d="m364 365-0.267 23.5"/>
   <path d="m406 365-0.267 23.5"/>
   <path d="m448 325-0.265 25.1"/>
   <path d="m83.5 388v24.7"/>
   <path d="m128 388v17.5"/>
   <path d="m172 388v25.3"/>
   <path d="m300 388v24.7"/>
   <path d="m344 388v15.1"/>
   <path d="m385 388v24.7"/>
   <path d="m46.3 388h160"/>
  </g>
  <path d="m156 414h160" stroke-width="2"/>
 </g>
 <g fill="#078930">
  <path d="m192 462c0 9.16 1.74 13-6.78 10.9-1.45-0.353-24.7-4.64-53.9-19.6-27.6-14.1-47-31.5-45.8-32.5 16.7-12.9 21.6-15.5 43.9-15.5 34.6-1e-4 62.7 25.4 62.7 56.7"/>
  <path d="m362 405c9.16 0 27 8.75 31.2 16.5 0.788 1.45-22.9 19.9-48.4 33.9-25.9 14.2-61.9 21.7-62.4 20.2-5.7-18.4 7.76-34.6 21.9-51.7 18-21.8 46.3-18.7 57.7-18.7"/>
  <path d="m295 431c0 8.42-7.22 37.7-11.9 44.6 0 0-16.3 4.16-44.7 4.17-27.8 7e-3 -42.2-4.02-52.9-6.43-10.4-2.34 0.942-17.2-3.48-25.7-2.98-5.76 113-43.5 113-16.6"/>
  <path d="m296 442c0 4.58-3.56 18.7-7.47 22-4.19 3.57-7.8 4.66-15 6.79-18.7 5.56-45.9 5.32-66.6 1.21-7.87-1.56-17.3-2.44-22.8-5.4-7.43-4-9.98-18.1-9.98-24.6 0-33.6 27.3-60.9 60.9-60.9s60.9 27.3 60.9 60.9"/>
 </g>
 <path d="m78.5 211v106" fill="none" stroke="#000" stroke-miterlimit="10" stroke-width="3"/>
 <g stroke="#000" stroke-linecap="round" stroke-linejoin="round" stroke-miterlimit="10">
  <g stroke-width="3">
   <path d="m78.4 131-0.0589 69.4" fill="#fff"/>
   <g fill="none">
    <path d="m151 131 0.0589 69.4"/>
    <path d="m320 131v70"/>
    <path d="m392 131v70"/>
   </g>
  </g>
  <g fill="none" stroke-width="2">
   <path d="m93.6 131v70"/>
   <path d="m137 131v70"/>
   <path d="m332 131v70"/>
   <path d="m378 131v70"/>
   <path d="m93.6 211v82"/>
   <path d="m137 211v106"/>
   <path d="m377 211v82"/>
   <path d="m333 211v106"/>
  </g>
  <g fill="#fff" stroke-width="2">
   <path d="m71.9 201h85.9"/>
   <path d="m75.4 211h79.2"/>
   <path d="m71.9 207h85.9"/>
   <path d="m72.4 202 0.0589 4.67"/>
   <path d="m158 202 0.118 4.56"/>
   <path d="m154 210 0.0589-2.76"/>
   <path d="m75.6 210v-2.82"/>
   <path d="m89.4 207v-5.73"/>
   <path d="m141 207v-5.73"/>
   <path d="m139 211v-4"/>
   <path d="m91.2 210-0.0589-3.56"/>
  </g>
 </g>
 <g fill="#fff">
  <path d="m312 201h85.9v5.73h-85.9z"/>
  <path d="m315 205h79.2v5.73h-79.2z"/>
 </g>
 <g fill="none" stroke="#000" stroke-linecap="round" stroke-linejoin="round" stroke-miterlimit="10" stroke-width="2">
  <path d="m312 201h85.9"/>
  <path d="m315 211h79.2"/>
  <path d="m312 202 0.167 4.07"/>
  <path d="m398 202-3e-5 3.98"/>
  <path d="m394 210-0.0833-2.67"/>
  <path d="m316 210-0.0833-2.33"/>
  <path d="m329 207v-5.73"/>
  <path d="m381 207v-5.73"/>
  <path d="m379 211v-4"/>
  <path d="m331 211-0.0833-3.68"/>
  <path d="m312 207 85.9-6e-3"/>
 </g>
 <g fill="#fff" stroke-width="2">
  <path d="m312 122h85.9v5.73h-85.9z"/>
  <path d="m315 126h79.2v5.73h-79.2z"/>
  <g stroke-miterlimit="10">
   <path d="m312 122h85.9" stroke="#131516"/>
   <g stroke="#000">
    <path d="m315 132h79.2"/>
    <path d="m312 122v5.73"/>
    <path d="m398 122v5.73"/>
    <path d="m395 132v-4"/>
    <path d="m315 132v-4"/>
    <path d="m329 128v-5.73"/>
    <path d="m381 128v-5.73"/>
    <path d="m379 132v-4"/>
    <path d="m331 132v-4.27"/>
    <path d="m312 128h85.9"/>
   </g>
  </g>
  <path d="m71.9 123h85.9v5.73h-85.9z"/>
  <path d="m75.4 127h79.2v5.73h-79.2z"/>
  <g stroke="#000">
   <g stroke-miterlimit="10">
    <path d="m71.9 123h85.9"/>
    <path d="m75.4 132h79.2"/>
    <path d="m71.9 123v5.73"/>
    <path d="m158 123v5.73"/>
    <path d="m155 132v-4"/>
    <path d="m75.4 132v-4"/>
    <path d="m89.4 128v-5.73"/>
    <path d="m141 128v-5.73"/>
    <path d="m139 132v-4"/>
    <path d="m91.1 133v-4.27"/>
    <path d="m71.9 128h85.9"/>
   </g>
   <path d="m62 101h106v20.8h-106z"/>
  </g>
 </g>
 <g fill="none" stroke="#000" stroke-linecap="round" stroke-linejoin="round" stroke-miterlimit="10">
  <g stroke-width="2">
   <path d="m62 122v-20.8"/>
   <path d="m62 101h106"/>
   <path d="m168 122v-20.8"/>
   <path d="m149 101v21.3"/>
   <path d="m83.3 101v21.3"/>
   <path d="m68.3 115h6.4m-1e-3 -13.4 1e-3 13.4m-6.4-13.4v13.4"/>
   <path d="m99.7 101v13.6"/>
  </g>
  <path d="m105 101v9.69"/>
  <g stroke-width="2">
   <path d="m134 101v14.4"/>
   <path d="m134 116-34.4 3e-3"/>
  </g>
  <path d="m99.9 116 4.68-4.68"/>
  <path d="m129 102v9.69"/>
  <path d="m134 116-4.68-4.68"/>
  <path d="m105 111h24.8"/>
  <path d="m70.9 101v9.69"/>
  <path d="m68.3 114 2.6-2.6"/>
  <path d="m70.9 111h3.8"/>
  <path d="m160 102v9.69"/>
  <path d="m163 114-2.6-2.6"/>
  <path d="m160 112h-3.8"/>
  <g stroke-width="2">
   <path d="m156 101v13.4"/>
   <path d="m163 101v13.4"/>
   <path d="m156 115h6.4"/>
  </g>
 </g>
 <path d="m301 101h106v20.8h-106z" fill="#fff"/>
 <g fill="none" stroke="#000" stroke-linecap="round" stroke-linejoin="round" stroke-miterlimit="10" stroke-width="2">
  <path d="m301 122v-20.8"/>
  <path d="m301 101h106"/>
  <path d="m408 122v-20.8"/>
  <path d="m388 101-0.0833 20.6"/>
  <path d="m323 101 0.0833 20.5"/>
  <path d="m308 101v13.4"/>
  <path d="m314 101v13.4"/>
  <path d="m308 115h6.4"/>
  <path d="m339 101v13.6"/>
  <path d="m344 101v9.69"/>
  <path d="m373 101v14.4"/>
  <path d="m373 116-34.4 3e-3"/>
  <path d="m339 116 4.68-4.68"/>
  <path d="m369 102v9.69"/>
  <path d="m373 116-4.67-4.68"/>
  <path d="m344 111h24.8"/>
  <path d="m310 101v9.69"/>
  <path d="m308 114 2.6-2.6"/>
  <path d="m310 111h3.8"/>
  <path d="m399 102v9.69"/>
  <path d="m402 114-2.6-2.6"/>
  <path d="m399 112h-3.8"/>
  <path d="m396 101v13.4"/>
  <path d="m402 101 1e-3 13.4"/>
  <path d="m396 115h6.4"/>
 </g>
 <g fill="#4d87ca" stroke="#000" stroke-linecap="round" stroke-linejoin="round" stroke-miterlimit="10" stroke-width="3">
  <path d="m119 54.8h-9.47l-35.2 46.5h79.9z"/>
  <path d="m359 54.8h-9.47l-35.2 46.5h79.9z"/>
 </g>
 <g fill="#fcdd09" stroke="#000" stroke-linecap="round" stroke-linejoin="round" stroke-miterlimit="10" stroke-width="3">
  <path d="m112 46.4h5.3v8.43h-5.3z"/>
  <path d="m123 36.9a8.81 8.81 0 0 1-8.81 8.81 8.81 8.81 0 0 1-8.81-8.81 8.81 8.81 0 0 1 8.81-8.81 8.81 8.81 0 0 1 8.81 8.81z"/>
  <path d="m352 46.4h5.3v8.43h-5.3z"/>
 </g>
 <g stroke="#000" stroke-linecap="round" stroke-linejoin="round" stroke-miterlimit="10" stroke-width="2">
  <g fill="#4d87ca">
   <path d="m117 54.8h-5.47l-21.2 46.5h47.9z"/>
   <path d="m357 54.8h-5.47l-21.2 46.5h47.9z"/>
  </g>
  <path d="m106 143h16.2v40.8h-16.2z" fill="none"/>
  <path d="m346 143h16.2v40.8h-16.2z" fill="none"/>
 </g>
 <path d="m110 148h8.13v30.9h-8.13z"/>
 <path d="m350 148h8.13v30.9h-8.13z"/>
 <g stroke="#000" stroke-linecap="round" stroke-linejoin="round" stroke-width="2">
  <path d="m105 102h24.6v9.69h-24.6z"/>
  <path d="m344 102h24.6v9.69h-24.6z"/>
  <path d="m157 102h3.53v9.9h-3.53z"/>
  <path d="m70.6 102h3.53v9.9h-3.53z" fill="#131516"/>
  <path d="m310 102h3.53v9.9h-3.53z"/>
  <path d="m396 102h3.53v9.9h-3.53z"/>
  <g stroke-miterlimit="10">
   <path d="m62 122h106" fill="none"/>
   <path d="m301 122h106" fill="#fff"/>
   <path d="m125 265a10.4 10.4 0 0 1-10.4 10.4 10.4 10.4 0 0 1-10.4-10.4 10.4 10.4 0 0 1 10.4-10.4 10.4 10.4 0 0 1 10.4 10.4z" fill="none"/>
   <path d="m106 258v-34.9h15.5v34.9" fill="#fff"/>
   <path d="m120 265a6.23 6.23 0 0 1-6.23 6.23 6.23 6.23 0 0 1-6.23-6.23 6.23 6.23 0 0 1 6.23-6.23 6.23 6.23 0 0 1 6.23 6.23z"/>
  </g>
 </g>
 <path d="m110 261v-33.7h9.31v33.7"/>
 <g stroke="#000" stroke-linecap="round" stroke-linejoin="round" stroke-miterlimit="10" stroke-width="2">
  <path d="m365 266a10.6 10.6 0 0 1-10.6 10.6 10.6 10.6 0 0 1-10.6-10.6 10.6 10.6 0 0 1 10.6-10.6 10.6 10.6 0 0 1 10.6 10.6z" fill="none"/>
  <path d="m346 259v-35.6h15.8v35.6" fill="#fff"/>
  <path d="m360 266c0 3.5-2.84 6.34-6.35 6.34-3.5 0-6.35-2.84-6.35-6.34 0-3.5 2.84-6.34 6.35-6.34 3.51 0 6.35 2.84 6.35 6.34z"/>
 </g>
 <path d="m349 262v-34.3h9.48v34.4"/>
 <path d="m176 424c25.1-62.9 102-56.9 121 8" fill="none" stroke="#000" stroke-miterlimit="10" stroke-width="3"/>
 <path d="m335 446c7.66-6.79 23.8 1.84 23.7 5.8-6.84-4.87-15.3-7.31-23.6-5.81m-7.59-9.34c10.6-6.56 24.5-1.63 34 4.91 4.16 3.07 8.07 7.18 1.45 2.41-10.1-5.39-22-10.2-33.6-8.1l-1.86 0.786m-1.61-8.35c14.9-11 40.1-6.9 48.5 10.3-1.28-2.92-13.9-10.8-21.7-11.7-8.76-2.32-18.5-2.72-26.8 1.45m5-10.4c18.2-9.29 43.5-4.93 54.2 13.5 4.19 6.85-5.96-7.22-10.1-7.71-13.2-7.06-29.5-10.1-44.1-5.8zm-48.2 47.1c2.12-30.3 26.9-56.2 56.4-61.5 20.6-4.52 45.6 1.99 56.3 21.6-14.1-21-43.5-24.4-65.7-15.9-24.4 8.44-42.7 30.4-47 55.8m-44.2-28c12.4-3.56 26.9 1.33 33 13.1-8.71-8.47-20.8-13.7-33-13.1m-2.14-14.3c12.8-2.22 27.9 0.494 35.2 12.3 3.01 4.1 6.07 8.91 0.694 2.89-9.46-9.4-22.9-14-35.9-15.2m-14-11.9c21.5-9.77 49.2 2.56 57.2 24.6-3.18-6.74-11.9-14.7-20.1-18.4-11.1-6.21-24.5-10-37-6.22m-6.41-13.6c21.2-9.44 50.8-2.54 60.3 20.1 4 12.3-3.99-9.59-10-10.4-14.5-9.45-33.4-14-50.3-9.68m-79.6 52.9c14.4-2.69 30.6 2.35 38.5 15.4 7.58 10.6-7.06-6.59-12.4-7.52-8.03-4.38-16.8-7.76-26.1-7.84zm-17.2-15.1c21.5-9.77 49.2 2.55 57.2 24.6-7.89-15.2-25.4-22.5-41.3-25.7-5.28-0.814-10.7-0.394-15.8 1.08m-6.39-13.6c21-9.34 50.2-2.7 60.1 19.5 2.35 7.14 1.91 6.92-0.8 0.258-9.04-13.5-25.8-20-41.5-21.5-5.99-0.447-12 0.183-17.8 1.78m-26.8-0.512c26.1-26.2 73.1-20.4 96 7.19 8.74 10.2 13.8 23.3 14.4 36.7-3.27-27.5-25.6-50.2-52.2-56.2-20-4.91-42.2-1.06-58.2 12.2z" stroke="#000" stroke-width=".5"/>
 <g transform="matrix(.32 0 0 .32 169 128)">
  <path d="m4 4v250a200 200 0 0 0 400 0v-251z" fill="#fff" stroke="#000" stroke-width="6"/>
  <g stroke-width="3.19">
   <path d="m6.33 277c2.57 27.8 19.5 63 32.5 88.3 24 31.4 64.9 67.4 106 78.6 18.8 5.44 42.2 8.21 61.7 9.22-0.0213-143-0.0425-305-0.0638-448h-200z" fill="#ffd700"/>
   <path d="m209 381v-110l129 129c-18.6 17.6-41.2 33-70.2 41.3-19.2-20.7-39.4-40.6-59.3-60.7zm195-167-195-194v117l186 181c7.2-28.8 14.5-57.4 9.63-104zm0.2-136-0.824-71-71.4-2.03z" fill="#da121a" stroke="#000"/>
   <path d="m177 272c1.55-1.67 1.23 16.6 1.23 16.6-1.97 23.1-18.2 22.8-18.2 22.8l-6.83-1.06c-4.53 1.14-3.64 4.38-3.64 4.38 8.12 23.9 33.9 0.466 33.9 0.466 0.399 7.26-7.49 11-7.49 11-11.9 4.76-11.6 4.84-11.6 4.84-9.92 4.53-7.5 16.7-7.5 16.7 8.86-4.52 15.4-4.79 15.4-4.79-7.85 11.9-19 15.9-19 15.9-18.5-0.459-7.56-13.2-7.56-13.2-20.4 1.37-13.1 17.9-13.1 17.9-6.34 5.52-9.64 11.8-9.64 11.8-7.29 9.6-1.32 19.4-1.32 19.4 8.85 10.9 19.3 5.86 19.3 5.86-10.7-2.61-9.71-11-9.71-11 2.65-12.6 12.5-11.7 12.5-11.7 3.18 19.6 18 12.6 18 12.6-14.9-14.5 6.47-26.3 6.47-26.3 14.7-10.1 22-21.3 22-21.3 2.5 34.2-22.3 35.5-22.3 35.5 7.35 10.1 27.9 1.07 27.9 1.07 1.42 6.97-7.46 13-7.46 13-5.19 3.1-8.21 8.09-8.21 8.09-3.81 7.03 3.18 13 3.18 13 2.53-4.86 12.9-11.3 12.9-11.3-5.52 18.1 6.82 31.9 6.82 31.9v-326c-6.97-9.52-11-20.4-11-20.4-4.58-9.2 0.925-11 0.925-11-9.24-8.79-10.3-19-10.3-19 6.45-3.95 7.24-7.09 7.24-7.09-0.172-0.546-2.52-1.04-2.52-1.04-13.7 1.36-18.4-8.9-18.4-8.9 0.0798-1.26 4.06-3.19 4.06-3.19 3.88-3.1 4.58-4.96 4.58-4.96-1.01 0.262-0.772-0.533-0.772-0.533-1.83 2.1-41.5-0.179-41.5-0.179-3.17 0.23-8.32 4.79-8.32 4.79-0.53 0.332-5.08 0.354-5.08 0.354-2.4 1.07-4.11 4.83-4.11 4.83-6.77 1.44-9.6 6.17-9.6 6.17-1.92 7.15 1.85 9.57 1.85 9.57 8.48-5.85 13.3-4.79 13.3-4.79 2.53-1.74 7.55 0.533 7.55 0.533-4.36 1.13-8.19 3.86-8.19 3.86-7.62 5.59-13.5 5.67-13.5 5.67-7.42 1.06-11.8-7.04-11.8-7.04s-5.04 5.56-0.0925 11.5c0 0 5.16 4.51 15.1 1.66 0 0 17.7-8.78 23.1-9.02 0 0 1.57 2.27-9.7 4.04 0 0-2.76 0.249-5.73 2.12 0 0 4.94 6.18 13.4 3.37 0 0 4.22-0.507 9.77-3.32 0 0 5.77-3.83 10.2 9.45 4.44 13.3 0.265 0.964 0.265 0.964s1.53 6.05-7.25 11.4c0 0 4.97 4.14 10.6 3.19 0 0 0.0478 9.05-10.8 18.1 0 0 3.78 7.65 14.3 0.179 0 0 1.18 2.4-4.01 7.8 0 0 0.801 1.58 4.13 2.09 0 0 2.88 0-3.77 6.9 0 0-1.68 2.06-4.06 7.16 0 0-2.38 5.61-16.8-3.58 0 0-7.97-10.2-9.87-11.5 0 0-0.121 0-0.121-9.2 0 0 0.444-6.64-7.1-13.3 0 0-2.66-0.823-0.332-9.99 0 0-0.562-2.27-5.44 2.84 0 0-2.22 4.34-3.99-3.58 0 0 0.3-6.22 4.81-7.07 0 0 6.5-0.849 8.72 3.49 0 0 1.77 2.2 2.22 0.59 0 0-0.89-4.93-6.45-7.23 0 0-9.99-2.3-13.5 3.07 0 0-8.48 8.21 0.0893 21.7 0 0-5.2 8.16 0.131 12.8 0 0 7.27 6.62 11.7-2.82 0 0 1.36-0.756-3.08-0.246 0 0-4.88 0-2.66-6.13 0 0 3.77-5.11 7.32 0.766 0 0 3.41 6.26 1.04 12.7 0 0-29.3 13.7-29.9 1.58 0 0 0.948-21.8-8.61-30.3 0 0-5.55-4.4-0.23-12.6 0 0 6.45-4.34 5.11-16.3 0 0-0.447-0.252 1.1-3.32 0 0 7.32-9.96-1.55-13.5 0 0-6.88-3.32-11.5-2.04h-12.4s-4.63 0.536-6.18 1.82c0 0-10.9 6.37-21.9-2.96 0 0-7.94-2.02-8.02 0.712 0 0-0.731 7.33 10.1 14.7 0 0 3.99 2.44 10.2 2.12 0 0 6.81 1.87-0.217 7.59 0 0 0.22 2.55-16.9 2.3 0 0-12.6 1.28-3.55 9.45 0 0 9.1 5.11 15.8 4.08 0 0 4.66 1.15 4.88 7.09 0 0-6.21 9-18.9 17.2 0 0-7.77 4.59 3.11 11.2 0 0 12 1.28 16.6-0.51 0 0 14.9 1.53-7.77 19.1 0 0-5.33 5.11-9.99 6.64 0 0-7.77 3.58 5.55 9.45 0 0 14.7 3.19 21.3-2.92 0 0 7.53-4.41 3.09 8.07 0 0-8.22 19.6-27.7 23.1 0 0-10.7 3.86 2.83 13.6 0 0 24.1 9.78 41.3-22.3 0 0 5.8 0.897-9.71 24.7 0 0-13.3 21.3-33.1 29.4 0 0-9.89 4.79 3.42 14 0 0 8.64 4.17 19.4 1.23 0 0 21.9-7.93 40.9-56.4 0 0 4.44-12.1 4.24 3.19 0 0-2.81 28.7-18.9 51.2 0 0-11.9 31.9-43.3 49.7 0 0-3.41 9.31 10.5 12.1 0 0 25.8 2.99 51.3-46.3 0 0 21.2-56.7 21.3-60 0 0 3.86 41.4-16.7 79.9 0 0-6.86 16.5-20.6 29.2 0 0-7.34 8.53 7.56 10.2 0 0 20.7 0.463 38.4-39.1 0 0 17.9-49 18.1-85.7 0 0 4.72 28 11.4 46.2 0 0 4.27 11-0.459 15.6 0 0-12.6 11.6-16 22 0 0-10.3 15.3-10.9 15.7-0.603 0.469 0.603-0.463 0.603-0.463s-6.64 5.32 1.21 3.47c0 0 10.5-7.65 5.78 5.87 0 0-2.14 2.69 8.63 1.42 0 0 3.3-0.517 9.28 0.823 0 0 1.48 2.62 3.98-4.9 0 0 4.28-11.9 13.1-18.8 0.0128-6e-3 1.62-1.73 2.32-2.49"/>
   <path d="m77.7 368c-5.53-4.59-4.21-9.09-4.21-9.09 1.2-3.86 2.98-5.81 2.98-5.81l-1.17-1.23c-2.41-2.18-1.33-3.39-1.33-3.39 1.9-2.88 8.67-3.54 8.67-3.54 0.44-0.495 5.4-6.38 5.4-6.38l-0.928-0.262c-3.88-0.696-11.1 1.78-11.1 1.78-6.37 2.48-5.94-0.0957-5.94-0.0957 0.252-3.18-1.21-2.68-1.21-2.68-1.46 0.201-6.24 2.67-6.24 2.67-1.94-2.48-1.16-6.53-1.16-6.53 1.63-4.56 7.94-4.99 7.94-4.99 0.364-1.33 1.08-1.95 1.08-1.95 2.3-1.59 5.18 0.941 5.18 0.941 4.39 3.47 6.46 2.53 6.46 2.53 5.51-3.27 8.85-2.41 8.85-2.41 6.87 3.34 14.8-3.55 14.8-3.55 10-7.84 28.7-33.9 28.7-33.9s1.9-3.39 5.54-3.91c0 0 12.9-2.15 12.2 11.2 0 0-14.9 8.24-32.9 27.3 0 0-3.47 3.47-2.83 5.18 0 0 1.76 0.303 6.19-1.69 0 0 7.9-5.6 12.3-1.32 0 0 7.39-2.42 9.71 3.91 0 0 1.14 5.35-0.147 6.26 0 0-3.26-3.99-7.1-4.13 0 0 0.01 3.4-1.07 5.19 0 0-0.128 1.13-8.43 0.676 0 0-13-0.415-14.7 0.335 0 0-2.52 2.94-2 9.23 0 0-3.05 7.88-1.69 11.2 0 0 3.25 3.64-3.85 6.38 0 0-0.613 3.66 2.36 8.36 0 0-8.93 0.428-10.8-9.6 0 0-5.18-2.77-1.84-6.47 0 0 6-2.64 6.77-17.5 0 0-10.3 10.1-12.3 11 0 0-1.34 3.18-1.85 4.97 0 0-4.84 2.61-5.7 2.48 0 0-4.13 4.71-3.55 7.45l-0.916 1.42"/>
  </g>
  <g transform="matrix(3.19,0,0,3.19,-545,-401)" fill="#fcdd09" stroke="#000" stroke-width=".47">
   <path d="m206 225 0.562 0.665c-0.361 0.377-0.698 0.73-1 1.05l-0.527-0.623c0.311-0.349 0.634-0.714 0.966-1.09m-2.34 2.61s-0.014 0.212 0.533 0.557c0 0 0.367-0.397 0.95-1.01l-0.516-0.61c-0.347 0.387-0.673 0.746-0.967 1.07m2.74-3.07 0.58 0.686c0.293-0.303 0.596-0.616 0.903-0.929l-0.625-0.742c-0.287 0.331-0.576 0.66-0.858 0.985m7.98-8.77s-0.528 0.02-1.45 1.17c0 0-0.064 0.075-0.175 0.207l1.32 1.19c0.29-0.639 0.46-1.48 0.306-2.56m-2.94 2.92 1.1 1.32c0.017-6e-3 0.037-0.018 0.052-0.021 0 0 0.707-0.355 1.25-1.22l-1.4-1.26c-0.255 0.297-0.596 0.7-1 1.18m-1.17 1.37 0.876 1.04c0.389-0.351 0.725-0.638 0.988-0.833l-1-1.21c-0.267 0.312-0.554 0.649-0.859 1m-2.61 3.02 0.652 0.77c0.305-0.31 0.612-0.618 0.913-0.917l-0.709-0.839c-0.283 0.327-0.568 0.658-0.856 0.986m1.26-1.45 0.742 0.877c0.365-0.357 0.713-0.694 1.04-1l-0.832-0.983c-0.305 0.356-0.623 0.73-0.95 1.11m7.98-3.03-1.54 0.167s-1.91 1.04-3.44 2.52c0 0-5.42 4.97-7.42 7.31 0 0-0.214 0.78-1.21-0.411 0 0-0.142-0.41-0.677 0 0 0-0.941 0.939-3.91 0.428 0 0-0.441 2.25-0.725-0.055 0 0-0.819 0.325-0.998 0.612 0 0-0.417 1.74-0.547 0.171l-1.02-0.061s-0.662 3.01-0.53-0.11c0 0-1.03-1.25-1.98-1.06l0.097 3.61s1.77-0.216 3.16-0.791c0 0 2.75-0.064 2.98 0.235 0 0 0.341 0.217-0.303 0.545l-0.464 0.697s0.117 1.87-0.441 0.258l-1.16 1.26s-0.05 1.41-0.381 0.13c0 0-1.52 0.069-2.17 0.667v0.39s2.31 1.55 2.42 1.94h0.821s0.603-0.832 0.674-1.61c0 0 1.46-1.32 1.69-1.28 0 0 2.25-2.67 2.7-2.67 0 0 0.708-0.024 0.581 0.278 0 0-0.198 1.04-0.128 1.33 0 0 1.82 0.928-0.018 0.506l-0.232 1.1s0.996 1.8-0.251 0.572c0 0-0.433 1.39-0.483 1.17 0 0 1.35 2.17-0.242 0.667 0 0-0.797 0.438-1.16 1.33 0 0 1.07 2.1 4.01 0.554 0 0-0.59-2.16-0.16-3.15 0 0 0.427-0.738 0.462-2.22 0 0-0.029-1.75 1-2.48l6.96-0.167s0.792-1.86-1.02-3.22c0 0-0.735-0.12-1.11 0.389 0 0 1.12 1.9-0.629 0.055l-0.676 0.334s0.791 2.21-0.531 0.222l-0.725 0.333s0.14 2.1-0.531 0.278c0 0-1.46-0.015-1.1-1.25 1e-4 4e-3 3.56-4.54 10.4-9.54" fill="#ffd700"/>
   <path d="m205 143s-0.995-1.84 0.396-2.79c0 0 0.981-0.808 2.14-1.06 0 0 0.381-0.191 0.434-0.543 0 0 5e-3 -1.36 1.98-0.782 0 0 0.421 0.961 0.146 2 0 0 0.107 0.381 1.01 0.381 0 0 2.85 0.296 4.25 3.01 0 0 0.889 1.58 0.193 2.39 0 0-5.1 2.65-6.28 0.722 0 0 3.57-0.216 5.27-2.22 0 0-1.34-2.87-4.64-2.68 1e-4 -1e-4 -2.04-0.31-4.9 1.57"/>
  </g>
  <path d="m63.1 338s-2.36-4.94 1.98-7.23c0 0 2.91-1.66 4.5-1.15l0.463 5.68s-5.58 1.27-6.95 2.7m14 27.5c1.37-6.28 5.4-7.8 5.4-7.8l-4.47-3.91c-6.53 6.17-0.925 11.7-0.925 11.7m58.5-37.9 1.46 3.66s3.98 0.396 6.16 2.3c0 0 1.3-1.92-0.616-4.08 0 0-3.66-2.88-7.01-1.88m-30.6 44.6c-1.91-4.83-0.772-6.03-0.772-6.03-0.0702-0.565-5.24-1.07-5.24-1.07 0.648 5.37 6.01 7.1 6.01 7.1" fill="#ffd700" stroke="#000" stroke-width="2"/>
  <g stroke-width="3.19">
   <path d="m97.1 58.5s-3.98 7.49 4.95 9.14c0 0 5.07 2.92 16.4-3.3 0 0 11.1-5.45 13.3-5.45l4.92-0.565s1.48-5.27-9.43-1.59c0 0-6.83 4.31-12.2 6.47 0 0-9.7 4.31-13.1 0 3.2e-4 0-3.06-2.55-4.83-4.7" fill="#da121a"/>
   <path d="m131 41.2h15.3" fill="#fc0"/>
   <path d="m131 41.2s0.957-1.07 2.39-1.83c1.44-0.849 3.35-1.36 5.26-1.37 1.91 3.19e-4 3.83 0.504 5.26 1.36 1.44 0.759 2.39 1.83 2.39 1.83 0-0.0032-0.957 1.07-2.39 1.83-1.44 0.852-3.35 1.35-5.26 1.36-1.91-0.0096-3.83-0.517-5.26-1.37-1.44-0.75-2.39-1.82-2.39-1.82" fill="#fcdd09"/>
  </g>
  <path d="m206 6.12v442-1.29" fill="none" stroke="#000" stroke-linecap="round" stroke-linejoin="round" stroke-width="6.32"/>
  <path d="m4 4v250a200 200 0 0 0 400 0v-251z" fill="none" stroke="#000" stroke-width="12.5"/>
 </g>
 <g transform="matrix(1.15 0 0 1.15 2.3 -1.15)">
  <path d="m5 5v216c0 110 89.5 200 200 200 110 0 200-89.5 200-200v-216z" fill="none" stroke="#000" stroke-width="8"/>
 </g>
 <g fill="none" stroke-miterlimit="10" stroke-width="3">
  <path d="m385 317h41m-127 0h42.7m-128-0.22h41.9m-126 0.22h40m-124 0h40.5m-40.2-24.6v24.3m-32.2-24.3h32.2m381 0.22v24.3m0-24.3h38.6m-79.7 0v24.3m-43.7-24.3v24.3m0-24.3h43.7m-86.4 0v24.3m-43.7-24.3v24.3m0-24.3h43.7m-85.6-0.22v24.3m-43.7-24.3v24.3m0-24.3h43.7m-83.7 0.22v24.3m-43.7-24.3v24.3m341-24.3h32.2m-373 0h43.7" stroke="#131516" stroke-linecap="round" stroke-linejoin="round"/>
  <g stroke="#000">
   <path d="m152 211v106"/>
   <path d="m318 211v106"/>
   <path d="m392 211v106"/>
  </g>
 </g>
 <path d="m363 36.9a8.81 8.81 0 0 1-8.81 8.81 8.81 8.81 0 0 1-8.81-8.81 8.81 8.81 0 0 1 8.81-8.81 8.81 8.81 0 0 1 8.81 8.81z" fill="#fcdd09" stroke="#000" stroke-linecap="round" stroke-linejoin="round" stroke-miterlimit="10" stroke-width="3"/>
</svg>
