<!-- Created with Inkscape (http://www.inkscape.org/) -->
<svg xmlns:rdf="http://www.w3.org/1999/02/22-rdf-syntax-ns#" xmlns="http://www.w3.org/2000/svg" height="522" width="452" version="1.1" xmlns:cc="http://creativecommons.org/ns#" xmlns:dc="http://purl.org/dc/elements/1.1/">
 <metadata>
  <rdf:RDF>
   <cc:Work rdf:about="">
    <dc:format>image/svg+xml</dc:format>
    <dc:type rdf:resource="http://purl.org/dc/dcmitype/StillImage"/>
    <dc:title/>
   </cc:Work>
  </rdf:RDF>
 </metadata>
 <g transform="translate(0,-530.36217)">
  <g transform="translate(6,-6.00003)">
   <path stroke-linejoin="miter" d="m0,542.36,440,0,0,310c0,100-100,200-220,200s-220-100-220-200z" stroke="#000" stroke-linecap="butt" stroke-miterlimit="4" stroke-dasharray="none" stroke-width="6" fill="#FFF"/>
   <path stroke-linejoin="round" d="m171.72,614.13c1.7438,9.0028,39.875,14.26,57.214,18.344,2.8254,3.1434,2.9892,6.9428-0.52137,7.5522-18.404-5.26-41.779-7.0458-59.56-12.363-10.124-4.2709-12.633-11.932-12.535-17.346,0.0169-5.1801,11.337-5.4357,15.402,3.8132z" stroke="#000" stroke-linecap="round" stroke-miterlimit="4" stroke-dasharray="none" stroke-width="3" fill="#0f47af"/>
   <path stroke-linejoin="round" d="m211.36,645.92c-1.2178-5.6072,1.0933-7.239-2.8151-8.8032-3.5006,1.2694-4.2437,4.6674-5.9433,7.0231zm7.0385,1.8248c-1.2178-5.6072,1.0933-7.239-1.7724-9.0639-2.1303,0.88187-4.2558,5.1647-6.204,7.0231zm8.0812,2.0855c-1.2178-5.6072-0.99216-9.3245-3.3365-9.5853-3.0076-0.0589-3.158,5.6041-4.9006,7.8052zm-7.7157-31.743c1.2178,5.6072-0.31128,8.2817,3.5972,9.8459,3.5006-1.2694,3.983-5.9709,5.6826-8.3266zm-6.5171-1.3034c1.2178,5.6072,0.47079,7.4997,3.3365,9.3246,2.1303-0.88187,3.2131-6.2074,5.1613-8.0659zm-8.6026-1.8248c1.2178,5.6072,2.0349,9.5852,4.3792,9.8459,3.0076,0.0589,2.8973-6.3861,4.6399-8.5872zm-8.8379,26.983c3.2298-4.7425,2.9116-7.2913,5.6712-7.8633,0.35906,5.1386,1.3492,7.7389,2.4592,10.192zm2.0573-27.907c1.2178,5.6072,1.5135,10.889,3.8579,12.453,0.5662-5.3135,3.4737-9.075,5.422-10.933z" stroke="#000" stroke-linecap="round" stroke-miterlimit="4" stroke-dasharray="none" stroke-width="3" fill="#FFF"/>
   <path stroke-linejoin="round" d="m308.94,562.04c22.838-6.0765,24.934,16.654,30.968,33.917,4.6212-8.1349,1.5889-20.096,0.73733-30.968,10.895,2.4184,24.425,30.536,12.535,45.714-6.5851,11.64-16.331,15.544-5.8986,27.281,17.602,21.127,35.927,26.775,52.719,49.032,5.2727-6.7398,7.8103-26.134,20.645-16.959-10.479,15.472,0.95437,15.271-7.7419,31.705,4.8332-1.9688,10.245-10.892,14.747-4.424,3.9061,11.516-13.876,7.9125-11.058,46.221,0.84054,11.428-3.4993,25.901-2.9508,46.314l-17.327,0.36867,4.0553-63.779c2.7999-16.362-8.7276-30.038-21.382-43.502l-47.189-41.659c-6.3285-18.714-23.641-9.5936-31.336-25.438-9.7017-21.049-4.8726-42.578,7.0046-39.816-0.25746,21.383,5.4762,18.168,12.535,31.705-8.2859-18.148,2.779-30.812-11.06-45.714z" stroke="#000" stroke-linecap="butt" stroke-miterlimit="4" stroke-dasharray="none" stroke-width="3" fill="#da121a"/>
   <path stroke-linejoin="round" d="m52.737,608.97c10.603,0.29693,9.5482-7.1779,5.6827-16.527,6.12-5.1205,13.754,5.6499,21.211,14.575-6.506-8.3564-14.115-17.234-8.2001-23.766-11.057,11.546-19.932-2.1841-13.488-7.8946,4.8497-0.68537,12.372,9.321,12.84-8.8926,5.3227-3.0812,10.54,0.46087,10.844,15.134,0.40186,4.9453,6.456,10.673,12.013,15.097,0.89777-5.5673-7.3532-12.507,5.8986-16.221-8.4309-0.19895-17.295-0.7143-12.713-11.186,6.0153-0.41417,9.6845,4.9175,14.136-4.9453,10.635-7.5848,11.121,9.2945,8.163,18.344,0.97361,33.854,32.926,47.315,55.039,66.791l27.542,12.103c4.4866,1.725,14.941-5.9476-0.29563-12.203,0.24384-3.5623-1.2221-9.91,2.2469-7.8914,11.247,4.3246,21.329,6.7099,30.491,7.5598,11.458,3.3607,5.5664-28.705,0.78205-30.186l-25.628-4.2527c-5.599-0.0754-12.446-15.449-11.239-17.569,0.20562-1.9042,5.8891-3.4268,10.383-4.7411,3.8728-1.1327-2.1986-8.2896,2.6022-7.3986,21.443-2.9216,42.125-0.13036,62.178,7.3733,8.6071,18.347,14.709-1.9996,18.802,0.73733,6.8232,16.04,4.3179,22.751-2.5806,25.069,7.3618,3.6041,12.008,16.712,22.857,8.1106-2.6388,30.664-16.901,15.561-25.069,9.9539,5.6549,12.864,13.277,23.619,25.438,23.594-5.2308,10.307-13.852,13.833-29.862,2.5806,3.3759,11.913,9.3333,20.211,22.488,18.433-5.1135,9.3183-4.6867,27.071-29.862,8.8479,11.441,7.9417,8.315,26.718,30.968,16.959-6.2146,10.532-8.5894,27.4-33.548,7.0046,7.6012,11.039,3.2578,21.825,20.276,20.645-6.4559,15.326-11.987,18.143-24.332,6.2673,9.8017,9.8604,10.895,19.95,23.963,21.751-4.9123,5.7856-10.364,10.208-21.014,1.4747,16.689,26.793,32.048,53.776,55.3,79.631,17.526,22.172,58.622,53.413,81.106,12.166,9.7052-21.364-16.038-54.931-37.604-78.525-16.228-20.437-37.182-39.048-36.129-77.788,5.0198-39.277,27.709-63.502,46.083-90.323,7.3221-15.361,8.2632-30.722-1.106-46.083,28.299,6.3023,24.465,23.632,21.751,42.028,10.248-13.986,7.4399-30.276,1.106-47.189,18.178,8.2712,40.704,21.023,12.166,53.825,7.2504-1.3408,14.501-10.283,21.751-21.382,3.3782,18.386-5.7491,36.412-26.912,47.926-10.897,4.2734-25.694-10.798-40.922,14.747-8.1301,13.434-16.483,26.618-16.959,48.664,8.2904-4.7109,17.106-15.911,27.281-9.9539-10.99,12.41-21.449,22.253-16.959,34.286,7.0414-7.3064,11.423-18.262,21.751-12.535-8.6471,10.239-9.101,23.458-7.0046,37.604,1.7201,13.882,23.227,33.806,33.18,50.138,9.7471,12.412,14.16,22.611,16.221,33.917,8.2764,30.346-20.39,55.375-36.498,57.143-26.481,3.95-53.647-8.4079-67.834-25.806-13.022-13.507-22.881-27.869-33.548-39.078,9.2586,15.361,18.338,32.934,17.327,48.295,0.25627,23.346,13.166,14.356,22.12,10.323,1.7621,14.714-0.85119,24.779-14.747,22.857,13.098,3.7607,28.286,17.557,36.866-0.36867,1.9444,15.216,0.33322,30.932-16.221,26.912,22.081,6.8128,43.222,14.676,33.548,32.442-5.1874-3.7916-1.9939-13.345-21.382-7.3733,12.631,7.1157,14.77,24.098,4.7926,35.392-0.3313-8.6208-10.361-12.393-20.276-16.221,10.255,10.123,5.0343,18.065,4.0553,29.124l-11.429-15.115c2.8984,8.8479,1.0154,17.696-8.8479,26.544l-8.8479-15.484c4.8504,7.3733-2.2158,14.746-6.636,22.12-4.8281,3.918-11.904,4.8901-14.747-6.6359-0.33461,16.323-4.5941,21.61-12.535,15.484,1.9864-14.51-6.5063-11.206-14.009-9.5853-5.0683,6.7656-10.323,12.037-17.327,3.318-5.6077,6.0316-10.813,20.908-17.327,7.0046,8.609-6.032,0.31019-10.597-3.318-14.746-1.3761-6.1688-0.80047-14.072,14.378-3.318,4.0508,4.2374,15.982,0.9862,18.433-1.8433-12.01,3.5556-19.615,5.7101-24.332-11.797-3.8852,14.502-15.234,9.257-19.908,3.6867,7.0781-0.4288,8.2781-5.7232,8.4793-16.959,1.6263-13.047,10.26-3.5918,15.115,5.8986,4.5564,6.3523,8.9847,7.8699,18.433,7.3733-10.003-2.0711-8.1726-11.645-1.8433-21.382-10.973,6.8727-19.757,8.4834-15.853-11.797,8.6141,4.9394,13.501,2.4238,13.272-10.323,2.7922-5.8858,14.468,5.1105,10.691,21.382-0.17842,10.063,21.916,6.8157,25.806-6.2673,4.1719-25.023-8.0046-36.057-15.853-56.406-3.3511,6.48-6.6713,12.991-17.696,11.797,15.328-22.706-18.25-42.59-2.9493-77.051-22.377-1.4891-30.659,9.444-31.705,28.387,5.8986,2.7796,11.797,2.1168,17.696,0-2.029,13.792-9.0375,20.115-22.857,16.221,8.8682,5.4832,11.605,13.36,30.968,14.747-5.4181,12.684-10.337,19.554-26.544,5.8986,7.8037,11.582,19.124,23.282-1.4747,33.917,4.8894-14.809-5.4256-19.78-16.959-23.963,11.657,12.561,5.454,20.657-2.212,28.387,1.4524-12.863-7.3071-19.16-19.539-23.226,2.7004,9.0362,4.3386,17.827-5.53,23.963-8.5578-18.539-22.057-18.526-23.51-26.34-1.9404-13.034-5.3791-11.87-8.1951-17.9,0.89178,8.0392,15.25,20.567-2.212,22.488-4.5767-13.29-9.9325-10.997-15.484-4.7926-8.6538,4.742-4.6215-8.1865-5.1613-14.747-0.25803,10.735,1.2632,24.506-15.115,7.7419,15.214,17.051-8.9783,26.226-9.2166,19.539,3.4266-14.016-1.0995-17.148-8.1106-20.645-5.7522-13.568,20.201-1.1703,28.018-11.06-7.7914-0.1578-20.129,7.7664-19.908-6.6359-2.162,13.179-15.628,20.695-19.171,6.2673,5.3998-3.0138,10.126-7.3219,4.0553-15.115-2.386-10.142,10.559-3.3944,17.327,0.36865,5.5728,3.7266,11.764,7.1439,25.069,7.0046-15.376-6.0983-24.29-11.846-16.221-21.014-7.0739,9.7667-22.594,8.0648-19.171-4.424,5.5083-0.94073,16.865,7.1164,10.691-11.797,0.3928-5.7296,14.395-3.1427,16.959,14.747,3.0466,6.2467,25.265,7.3287,39.816,3.318,12.69-3.386,10.775-9.4302,8.4793-19.908-10.824-33.336-0.66291-32.291,5.8986-40.922,16.346-14.288,39.784-20.588,57.512-26.175-2.3349-22.98-23.632-25.078-14.378-44.977-6.623,2.2359-16.62,11.394-18.802-1.106,2.9703-5.1724,6.357-13.292-0.36867-23.594-0.48254,8.8022-2.2325,15.018-10.323,17.327-8.234-23.287-32.613-19.604-49.77-36.129,3.6312,6.7332,14.675,12.28,8.1106,20.645-10.108-0.82278-9.9396-10.252-19.533-9.598-7.744-0.84767-14.382-3.4896-23.232-11.416,7.2613,8.366,14.05,24.674,0,14.747-5.113-9.4016-6.7699-2.2686-13.272,1.106-6.6869,1.2427-7.2409-3.9186-5.8986-11.06-4.8595,10.862-9.0431,2.1984-13.272-5.1613,9.2,23.237-10.282,25.603-12.535,13.272,0.27571-6.2009,1.1774-12.873-3.318-15.484-0.67957-15.418,18.637,1.3119,23.594-4.424-7.9907-1.7309-16.681,0.90141-15.115-14.747-10.148,17.958-15.519,11.026-17.327,5.8986,3.8669-4.32,8.8235-3.5548,9.9539-20.645,7.5609-3.3051,11.881,8.9081,17.696,15.484-4.7027-6.6221-11.956-13.013-2.212-17.327-19.166,0.69484-7.9484-8.3695-11.429-12.903,8.165,1.4606,16.59,3.4413,18.065-8.4793,8.6103,0.11471,7.2231,10.227,7.3733,18.802,5.4936,16.317,18.865,14.013,29.862,13.641,17.709,0.2979,29.95-6.8989,42.765-18.065-7.9877,1.8849-15.975,16.66-23.963,3.6866,4.1886-0.73273,0.70849-5.4127,10.323-15.115-9.0532,7.8342-18.086,4.5259-23.639,12.166-2.3029-18.761,10.076-15.204,9.63-31.336-4.4554,11.898-9.7712,17.199-16.311,13.119,2.1618-9.4147,8.6541-11.743,3.9473-32.398,0.99942,13.087-0.33232,22.239-10.367,16.706,4.2463-9.9659,2.9415-16.037-8.4978-12.669-2.4456,1.4227-11.717-2.7292-8.6767-10.412-3.4234,9.1179-9.975,13.355-15.745,0.6926z" stroke="#000" stroke-linecap="round" stroke-miterlimit="4" stroke-dasharray="none" stroke-width="3" fill="#da121a"/>
   <path stroke-linejoin="round" d="m199.25,584.25c24.439-1.0128,42.1-0.50807,63.41,7.3285l8.5502-11.105c6.6111,10.678,22.696-4.1513,2.3755-8.5872,15.148-9.9101-8.2863-21.272-8.1924-3.426-9.6766-12.161-19.539,4.2484-3.426,7.7157-3.7078,7.187-24.038,2.6829-22.209-5.6827,12.543,3.553,15.345-12.644,0.61082-9.3616,3.9908-14.506-13.837-16.823-9.9724-0.52137-12.781-8.6111-13.427,12.594-1.996,8.0659-2.4354,11.702-20.873,10.453-22.686,1.4746,12.503,3.5446,15.328-17.38-1.4747-8.8479,2.3896-17.876-18.754-12.619-10.367,0.99801-17.291-2.4476-8.8858,18.498,2.212,9.9724,2.1468,4.5976,5.0883,10.77,3.1653,11.976z" stroke="#000" stroke-linecap="butt" stroke-miterlimit="4" stroke-dasharray="none" stroke-width="3" fill="#0f47af"/>
   <path d="m234.88,601.64c0,3.1674-2.5677,5.7351-5.7351,5.7351s-5.7351-2.5677-5.7351-5.7351,2.5677-5.7351,5.7351-5.7351,5.7351,2.5677,5.7351,5.7351z" transform="translate(0.26068453,-0.52136906)" fill="#FFF"/>
   <path d="m234.88,601.64c0,3.1674-2.5677,5.7351-5.7351,5.7351s-5.7351-2.5677-5.7351-5.7351,2.5677-5.7351,5.7351-5.7351,5.7351,2.5677,5.7351,5.7351z" transform="matrix(0.61400739,0,0,0.61400739,90.404268,229.74945)" fill="#000"/>
   <path stroke-linejoin="round" d="m260.26,630.75c0.93388-7.6744-0.45275-18.026,6.3228-20.676m-47.511-12.692c-0.33148,9.9299,5.1884,14.048,18.054,12.17m10.882,37.099c3.1504,8.2075,6.3007,14.904,9.4511,18.948m-26.396-39.542c4.5153,0.53063,7.6116,14.489,1.8912,27.29m-11.276,18.59-0.19426-11.031m35.387,62.907c3.0362,7.3536,6.4357,13.617,11.537,14.777m-69.222-18.454c1.8604,12.312,8.099,8.8611,10.259,17.174m14.315,1.0428c-6.3876-8.0547-13.642-14.881,0.62534-23.447,10.423-5.9545-5.6015-15.425,2.8191-24.74m-48.079,56.608c11.992-14.137,3.6162-22.336,7.5995-28.068,5.235-7.5324,12.647-12.393,11.66-27.479m-66.08,21.814c16.657,3.6918,24.94,13.365,35.112,21.688m7.2838,132.41c8.7549-16.406,28.374-22.333,38.799-24.764m196.78-107.59c0.96644-5.9362,1.7922-12.295,0.82677-24.026m-74.559-13.577c3.99-20.532,7.0803-33.038,17.417-45.409m-21.11-25.37c3.488,7.6344,6.7314,16.491,11.149,19.476m-7.4627-27.586c10.458-10.001,12.14-19.569,14.836-29.188m-48.384,8.9112c3.9696,8.0555,9.0242,13.791,17.785,17.264m7.2838-5.098c8.381-15.994,2.2228-29.894-1.3852-36.93m-65.65,125.81c3.9344,6.0183,8.2689,13.433,15.447,15.559m-71.755-51.534,0.3271-6.0775m8.0148,11.552,0.3271-8.163m19.746,14.68,0.0664-11.813m12.186-6.9567c3.5424,3.7084,4.4206,9.6003,4.498,16.081m-6.0622,5.5562c0.26115-7.37-1.2645-11.166-3.0618-14.419m18.703-6.9567c-2.5307-4.8604-7.1622-14.674-2.3649-19.274,15.258,1.6327,18.834-12.983,16.926-23.723l6.0994-8.4404m-7.6263,22.24c-12.338,7.9867-13.985-2.7516-12.849-18.23,3.0888,6.4801,9.3057,6.3629,14.48,4.5924m-143.44,33.189c3.4979,1.9152,6.9959,5.3901,10.494,10.085m-30.827-36.414c9.8275,10.661,23.817,22.104,37.084,32.764m-18.314-22.076,23.789,19.47m74.75,61.082c7.2538,9.5937-0.71395,15.652,9.5403,29.922,12.565-10.193-2.6967-29.183,20.224-32.409,0.39557-4.9565-1.8041-15.286-7.0187-19.232m-56.512,63.962c-6.8079-36.179,10.001-26.272,12.993-59.787m-24.624-18.538c-6.7934,2.0298-13.926,2.3996-21.722-0.47457-2.5331,16.159-12.836,16.002-25.118,11.689,5.1033,16.033,15.282,18.487,28.881,11.788,11.746,0.45089,18.377-5.3495,21.28-15.707,1.084,9.8402,0.54994,18.961-15.781,21.061-7.9144,16.535,2.684,17.908,6.2814,25.588m-98.23-32.74c11.834-0.0642,22.788,1.3934,37.324-0.80059m34.836-25.331,18.891,1.0427m-34.053-6.1299c10.014-13.583,19.593-16.272,29.2-15.984m58.632-59.138c5.6267,6.4083,18.181,0.40514,12.861,15.014,1.2431,3.9613,2.1073,8.139,8.0601,9.409m135.44-4.0336c10.35-20.167,5.0997-27.031,3.4074-36.93m9.3368,42.217c7.2954-5.8666,16.511-18.283,18.891-28.082m-29.203,40.662c16.383,4.3076,28.358-3.6425,39.905-16.653m-309.72,290.49c5.4056,0.25596,10.962,0.36138,19.26-2.2752m15.266-8.3048c7.7964-2.0446,9.0044-5.1873,11.149-8.1739m108.31,31.402c5.3269,6.7963,4.4657,14.671,10.043,27.955m25.942-19.849c3.8829,1.0849,5.3755,2.1698,13.73,3.2547m-11.186,6.1932c5.2692,2.8834,6.787,2.0154,9.306,2.1487m-7.7419,7.9732c3.7164,1.5698,7.4329,1.8016,11.149,1.4114m-3.8764,12.513c6.0578,0.13518,9.8763,2.8829,10.043,9.8906m-11.85,2.7117c2.6996,15.465-5.7425,10.511-5.8092,19.845m-3.5493,2.596c3.172-0.26053,3.4849,4.2439,3.7761,8.7847m-16.468-2.3231c1.7096-6.2468,4.9056-9.5207,8.5687-11.86m-20.329,16.11c9.1494-0.6459,9.2534,4.4646,10.043,7.6786m-10.986,2.38c5.9152-1.4437,5.7988,2.1389,5.9881,5.4668m-19.022-12.513,8.5687-1.1693m-24.794,5.4929,8.5687-0.8005m86.484-284.6c0.80472,7.1322,2.0384,11.271,3.0387,14.683m11.839,11.407c-2.576-6.2968-2.4422-11.69-2.1226-17.022m5.4559,25.879c4.208,7.878,8.416,17.904,12.624,18.37m26.289,89.787c7.8326-5.6859,11.536-17.378,8.5687-38.773m-109.79,5.5191c11.213,11.755,22.425,26.733,33.638,34.96m-40.294,26.996c-1.9635-17.708-9.9224-20.391-8.0212-38.404m-21.612,46.873c-23.14-4.029-15.074-20.819-18.712-35.455m-8.6473-45.259c6.2466,10.301,3.4238,22.078,0.4581,30.536m-88.767-15.92c21.762-17.158,52.372-17.603,78.558-19.004,3.7189,9.943,1.0313,25.82,8.9048,33.687m-86.915-7.2947c13.547-12.084,52.901-16.732,79.352-15.916m-67.097,33.601c15.878-18.189,35.794-23.249,66.818-27.713m-43.016,42.647c9.5188-25.637,28.675-32.462,45.066-34.718m-48.243,76.327c21.188,3.2861,17.251-8.9614,15.205-19.234m-31.14,19.845,7.8314-2.6439m-26.042,1.1203,13.361-2.2752" stroke="#000" stroke-linecap="round" stroke-miterlimit="4" stroke-dasharray="none" stroke-width="3" fill="none"/>
   <path stroke-linejoin="round" d="m243.93,1043.9c-3.4347-13.05,2.8744-17.419,5.3351-20.71,7.9675-2.9902,14.731,4.9596,10.693,8.9299-4.6431,3.0134-10.539,2.0503-16.028,11.78zm-35-75.28c10.435-8.5557,20.825-8.4797,24.842-7.6126,4.6035,5.142-1.349,14.108-5.6341,12.549-4.6727-2.9671-13.27-6.4835-19.208-4.9362zm-28.244,38.613c6.5053-15.385,17.985-16.225,25.134-16.143,2.7498,2.1883,0.58702,17.767-6.1265,14.829-7.964-2.1564-13.465-1.3204-19.007,1.3145zm13.908,33.601c4.2651-16.019,12.823-16.892,19.889-17.975,4.1036,0.1016,2.6008,15.23-2.7934,13.883-4.5479-1.2832-10.723-0.5316-17.096,4.0923zm-94.282-90.953c15.576-2.6082,19.691-9.6636,21.04-15.048-0.31824-8.5041-10.284-9.9754-12.388-4.7175-0.9867,5.4465-3.4891,16.449-8.6524,19.765zm-43.661-72.11c9.8167-16.171,22.765-10.358,26.227-5.5621,2.5184,6.4257-5.8975,12.197-9.3686,9.2401-3.3426-5.8865-10.753-3.0544-16.858-3.678zm-14.415,40.438c1.1317-17.907,13.272-18.587,19.88-21.314,3.3874,0.93547,4.4632,13.644,0.03712,14.74-8.5406-0.70577-15.852,1.9778-19.918,6.574zm22.882,32.163c-4.0743-14.47,0.91186-19.051,6.0651-24.005,3.4133-2.2802,10.897,10.953,5.7116,12.958-4.457,1.5702-9.2299,3.5972-11.777,11.047zm1.824-209.65c15.745-0.9666,14.495-12.846,15.898-16.709-0.20989-7.1963-11.87-6.5303-12.975-0.9763,0.02651,5.5351,1.5468,13.48-2.9225,17.685zm-41.611-87.133c10.034-9.0227,23.841-5.5009,28.262-1.8686,4.8332,4.9266-4.8941,9.3648-9.2458,8.0031-2.9599-5.7002-13.155-7.951-19.016-6.1346zm-13.069,43.55c2.438-19.626,14.239-19.129,21.006-21.435,3.3219,1.1466-0.34306,16.113-6.6726,15.454-6.384-1.5906-9.9858,1.6492-14.333,5.9806zm6.4666,27.419c5.0025-14.176,11.717-15.049,18.783-16.132,4.1036,0.10163,2.6008,15.23-2.7934,13.883-4.5479-1.2832-9.6172-2.3749-15.99,2.249zm44.885-93.898c12.766,4.3736,19.474-2.2029,22.935-4.418,3.5612-7.7291-3.8567-10.246-8.1099-6.5067-3.3427,4.4119-8.7202,10.301-14.825,10.925zm18.045-70.306c12.766-4.3736,16.867-0.40393,20.328,1.8112,2.5184,6.4257-5.1602,9.9849-8.6313,7.0281-3.3427-4.4119-5.592-8.2157-11.697-8.8393zm-34.277,7.3847c13.027-7.5018,17.649-2.2287,23.717,1.5505,1.215,3.2975-6.9849,10.506-10.456,7.5495-5.6888-5.976-7.1561-8.4764-13.261-9.1zm-7.6999,42.908c5.0025-14.176,11.717-15.049,18.783-16.132,4.1036,0.10163,2.6008,15.23-2.7934,13.883-4.5479-1.2832-9.6172-2.3749-15.99,2.249z" stroke="#000" stroke-linecap="round" stroke-miterlimit="4" stroke-dasharray="none" stroke-width="3" fill="#0f47af"/>
   <path stroke-linejoin="miter" d="m-1.3414,737.03,48.999,0,0,40.003,48.999,0,0-40.003,48.999,0,0,40.003,48.999,0,0-40.003,48.999,0,0,40.003,48.999,0,0-40.003,48.999,0,0,40.003,48.999,0,0-40.003,48.999,0,0,80.007-48.999,0,0,40.003-48.999,0,0-40.003-48.999,0,0,40.003-48.999,0,0-40.003-48.999,0,0,40.003-48.999,0,0-40.003-48.999,0,0,40.003-48.999,0,0-40.003-48.999,0z" stroke="#000" stroke-linecap="butt" stroke-width="0.98997962px" fill="#000"/>
  </g>
 </g>
</svg>
