<svg xmlns="http://www.w3.org/2000/svg" viewBox="0 0 649.76 648.31"><g stroke="#fffdc7" stroke-width="18.995" stroke-miterlimit="3.864"><path d="m102.65 77.1c.404 6.772.073 10.718-1.441 17.316-2.34 10.195-6.102 15.278-11.562 24.21-6.891 11.268-12.07 16.884-21.289 26.345-7.598 7.791-12.562 11.489-20.949 18.417-8.121 6.726-13.379 9.672-21.307 16.618-4.79 4.194-8.295 5.928-11.902 11.177-2.312 3.377-3.386 5.515-4.698 9.387m531.09-125.99c1.477 10.901 3.294 17.1 7.947 27.07 5.139 11.01 9.452 16.719 17.701 25.638 9.874 10.7 17.545 14.581 29.593 22.739 7.03 4.753 11.791 6.277 18.426 11.562 6.699 5.331 10.112 8.892 15.526 15.526 2.872 3.505 4.845 5.322 6.864 9.369 2.597 5.203 3.459 8.644 3.615 14.453" fill="none"/><path d="m104.81 82.86l-4.331-8.653c7.06.633 11.278.211 18.06-1.799 8.405-2.487 12.149-6.405 19.49-11.204 11.25-7.35 15.746-14.09 27.09-21.307 10.672-6.79 16.756-11.158 28.869-14.792 11.681-3.496 18.976-5.23 31.06-3.606 8.956 1.202 14.205 2.689 22.01 7.222 6.91 4.01 10.534 7.121 15.535 13.342 6.579-6.699 10.69-10.167 18.417-15.508 11.04-7.625 17.545-12.838 30.685-15.535 8.415-1.725 13.517-2.01 22.01-.716 13.764 2.083 20.766 7.506 32.14 15.526 7.01 4.946 10.736 8.176 16.618 14.425 9.03-9.791 16.361-14.223 29.24-17.673 10.204-2.744 16.582-2.358 27.07-1.083 15.71 1.909 24.01 6.873 37.925 14.425 12.939 7.04 17.371 15.71 30.676 22.03 8.736 4.148 13.865 6.946 23.482 7.947 5.598.587 8.864.505 14.425-.358l-5.396 10.112c-7.424-.413-11.654-1.147-18.784-3.248-10.874-3.212-16.14-7.414-26.01-13-12.305-6.974-17.426-14.07-30.32-19.867-9.956-4.478-15.884-7.093-26.73-8.314-11.81-1.321-19.233-1.358-30.32 2.891-7.561 2.9-11.14 6.093-17.701 10.837-3.331 2.413-5.157 3.845-8.286 6.506-5.194-5.102-8.213-7.892-13.728-12.645-8.121-7.01-11.7-12.975-21.674-16.958-8.442-3.368-14.01-3.735-23.1-3.248-10.369.551-16.288 2.689-25.638 7.222-6.332 3.065-9.58 5.478-15.168 9.736-4.129 3.138-6.488 4.937-10.09 8.662-3.423 3.524-5.194 5.698-7.947 9.754-5.46-7.864-9.773-11.828-18.06-16.609-6.983-4.03-11.498-5.836-19.49-6.864-8.993-1.165-14.342.22-23.11 2.523-7.332 1.927-11.131 4.138-18.06 7.222-9.378 4.175-14.719 6.552-23.455 11.92-7.07 4.34-10.525 7.57-17.343 12.287-6.845 4.726-10.176 8.341-17.692 11.92-8.204 3.9-13.361 5.396-22.381 6.478z" fill="#ed192d"/></g><path d="m11.654 211.93c-2.56-4.432-3.193-7.846-2.413-12.902 1.156-7.534 6.974-9.699 12.09-15.334 10.681-11.746 19.756-15.09 31.465-25.813 14.443-13.223 24.271-19.72 34.686-36.3 6.295-10.01 9.516-16.1 12.911-27.428 1.661-5.561 2.386-8.782 3.23-14.526 12.37-3.459 19.243-6.176 30.649-12.1 18.15-9.424 23.299-23.07 41.954-31.456 18.738-8.424 31.612-15.14 51.626-10.488 7.974 1.854 12.269 3.992 19.362 8.07 6.818 3.918 10.47 6.653 16.14 12.1 9.08-8.708 14.911-13.09 25.813-19.362 11.241-6.478 17.738-11.691 30.658-12.911 13.15-1.239 21.19 1.505 33.07 7.258 13.06 6.322 19.995 12.269 28.24 24.21 8.277-6.332 13.627-9.277 23.399-12.911 12.553-4.671 20.546-6.91 33.879-5.643 14.48 1.367 21.821 6.919 34.686 13.709 12.04 6.359 16.783 13.452 29.04 19.362 13.627 6.57 22.13 9.167 37.11 11.296 1.597 11.342 3.432 17.765 8.07 28.24 4.992 11.25 8.873 17.334 16.949 26.62 7.157 8.249 12.278 11.947 20.968 18.554 12.03 9.149 21.729 10.195 33.08 20.17 8.204 7.213 14.324 10.911 18.554 20.977 3.203 7.625 5.249 12.948 3.23 20.977-.936 3.68-1.872 5.744-4.04 8.873-4.698-3.23-9.231-3.726-14.517-1.615-5.845 2.331-6.488 7.488-9.681 12.911-10.232 17.325-9.149 30.704-8.873 50.818.257 19.555 2.588 30.979 9.672 49.21 4.239 10.883 4.322 19.692 13.719 26.62 4.194 3.092 7.04 4.423 12.1 5.653-6.607 10.305-9.69 16.673-13.718 28.24-4.845 13.92-6.524 22.381-7.258 37.11-.551 11.01 2.404 17.233 1.615 28.24-1.092 15.214-3.79 23.831-9.681 37.916-6.442 15.379-11.947 23.455-22.592 36.3-8.653 10.452-16.04 14.01-25.01 24.2-5.322 6.05-8.497 9.396-12.911 16.14-2.771 4.239-4.203 6.745-6.451 11.287l-35.494-20.17c-4.634 8.809-7.919 13.544-14.526 20.977-10.277 11.571-17.527 17.462-31.456 24.21-14.287 6.91-23.95 6.644-39.531 9.681-18.09 3.524-28.887 2.147-46.79 6.451-10.553 2.533-17.03 3-26.62 8.07-10.08 5.322-15.407 9.699-22.592 18.554-5.442-7.05-9.378-10.608-16.939-15.324-10.644-6.634-18.343-7.304-30.658-9.681-12.388-2.395-19.701-1.294-32.27-2.423-14.81-1.321-23.62.083-37.916-4.03-12.305-3.551-20.11-5.386-29.841-13.719-7.506-6.423-9.259-12.379-15.334-20.17-6.194-7.947-9.745-12.379-16.13-20.17l-33.07 27.428c-3.349-5.919-5.506-9.149-9.681-14.517-8.754-11.241-16.921-14.581-26.63-25.01-9.13-9.819-14.948-15.07-21.775-26.62-4.588-7.754-6.423-12.571-9.681-20.968-7.818-20.14-7.203-33.02-12.1-54.06-3.671-15.756-3.395-25.427-9.681-40.33-3.166-7.525-6.02-11.259-9.681-18.564-3.909-7.791-8.947-11.47-9.681-20.16-.422-5.056-.046-8.112 1.615-12.911 4.689 2.744 8.369 3.395 13.709 2.423 12.608-2.294 9.24-17.848 13.718-29.85 7.69-20.592 12.718-32.879 12.911-54.856.147-17.224.083-27.988-7.268-43.569-3.68-7.809-3.937-15.71-12.09-18.554-5.68-1.973-10.186-1.496-15.334 1.615" fill="#fff"/><g fill="#4d87ca"><path d="m215.84 67.847l-58.53 115.68.688 23.693 117.06-1.037-.688-28.52-58.54-109.81"/><path d="m324.63 130.51l-62.33 185.83 1.019 195.69h123.45l-1.89-197.76-60.25-183.76"/><path d="m381.78 204.8h116.25l.688-28.52-58.875-106.71-58.756 110.16.688 25.07"/></g><path d="m377.66 174.63l12.663.587v23.886h24.21v-23.289h13.581v23.289h26.24v-24.473h12.984v23.877h23.886v-24.473h12.984l2.367 3.551v32.732l-11.223 12.994 1.184 96.76h48.08l-.587-76.43 89.41 126.29c-3.404 5.515-5.111 8.8-7.671 14.755-3.67 8.516-5.304 13.599-7.084 22.702-3.395 17.279 2.863 27.676.587 45.14-3.166 24.317-7.947 38.32-20.307 59.5h-212.83l.055-296.99-8.534-4.726v-35.686" fill="#da121a"/><g fill="#fff" stroke="#231f20" stroke-width="1.826" stroke-miterlimit="3.864"><path d="m568.98 377.98c2.413 2.349 6.185 1.643 8.626-.688 1.303-1.248 1.193-2.56 2.065-4.148.762-1.367 1.909-1.881 2.074-3.441.257-2.579-1.762-4.166-4.138-5.175-2.23-.954-3.799.092-6.212.34-2.579.275-4.698-.771-6.552 1.037-1.349 1.312-2.193 2.67-1.725 4.487.505 1.955 2.936 1.477 4.138 3.102 1.11 1.505.385 3.175 1.725 4.487z"/><path d="m573.81 381.43c3.203.725 5.12 2.065 6.901 4.827 1.551 2.404 2.973 4.551 1.725 7.13-1.23 2.551-4.166 1.597-6.552 3.102-1.872 1.184-2.303 3.175-4.487 3.45-2.964.376-3.909-2.579-6.212-4.478-1.395-1.156-2.753-1.441-3.45-3.111-1.156-2.799 1.046-4.9 3.111-7.13 2.579-2.79 5.166-3.882 8.965-3.79z"/><path d="m592.33 380.39c2.028-1.551 4.047.486 6.552 0 1.964-.385 2.826-1.78 4.827-1.725 3.808.101 8.442 3.423 6.901 6.901-.863 1.945-2.689 1.964-4.487 3.102-2.973 1.899-4.524 3.432-7.928 4.377-2.349.652-4.184 2.046-6.212.688-2.23-1.505-1.349-4.102-1.266-6.79.083-2.624-.477-4.955 1.615-6.552z"/><path d="m617.86 401.66c-1.532-1.661-3.331-2.257-5.524-1.725-2.936.725-4.34 3.542-4.138 6.561.174 2.606 2.083 3.542 3.79 5.515 2.01 2.303 3.331 3.478 5.873 5.175l.688-8.626c1.395-2.312 1.138-4.909-.688-6.901z"/><path d="m567.26 403.73c2.395-1.239 4.249-.826 6.901-.349 2.432.44 4.414.413 5.864 2.413 1.496 2.074.661 4.02.34 6.561-.284 2.367-.073 4.139-1.725 5.864-2.597 2.725-5.891 0-9.653 0-2.02 0-3.459 1.055-5.175 0-2.248-1.395-1.973-3.927-1.725-6.561.202-2.156.762-3.432 2.065-5.166.982-1.294 1.67-2.02 3.111-2.762z"/><path d="m588.99 399.25l12.994-.34-1.028 7.24 2.753 4.138-9.314 2.413-3.68-3.102-4.138-2.413 2.413-7.937z"/><path d="m607.84 417.54c.037 3.423.44 5.442 1.725 8.617.752 1.844 2.487 2.505 2.413 4.487-.073 2.129-1.56 3.02-3.102 4.487-2.184 2.065-3.927 2.946-6.901 3.45l-8.277-2.074c-1.844-2.478-2.459-4.496-2.303-7.589.174-3.404 1.294-5.497 3.689-7.928 3.606-3.689 7.781-4.818 12.755-3.45z"/><path d="m581.75 424.09c-3.946-.918-6.57-.743-10.351.688-3.423 1.294-5.46 2.551-7.589 5.524-1.835 2.551-2.523 4.441-2.762 7.589 1.844 1.395 2.909 2.156 4.827 3.441 1.597 1.074 2.505 1.661 4.148 2.652 2.891-2.23 4.808-3.239 8.277-4.368 3.111-1.028 5-1.34 8.277-1.386l-2.413-6.212-2.413-7.928z"/><path d="m584.5 461.22c1.551-1.422 2.211-2.725 2.423-4.827.202-2.074.009-3.615-1.386-5.175-.844-.936-1.652-1.092-2.762-1.725-1.56-.89-2.386-1.633-4.138-2.065-3.762-.936-7.213-.606-9.653 2.413-1.028 1.266-.835 2.441-1.725 3.79-1.156 1.753-3.111 1.826-3.799 3.799-.918 2.652.349 4.68 2.074 6.901 1.881 2.423 4.02 2.716 6.901 3.79 1.955.734 3.092 1.624 5.175 1.386 2.331-.275 3.533-1.413 5.166-3.111.606-.615 1.01-.945 1.386-1.725.587-1.211.679-2.138.34-3.45z"/><path d="m596.81 445.36c2.487-1.863 5-1.688 7.937-.688 3.248 1.101 4.891 3.047 6.212 6.212 1.193 2.854 1.184 4.946.34 7.928-.881 3.166-2.221 4.9-4.827 6.901-1.34 1.028-2.211 1.505-3.79 2.074l-7.589-1.386-4.717-7.928c1.936-.413 3.129-1.331 4.02-3.111 1.028-2.046-1-3.671-.34-5.864.56-1.854 1.211-2.973 2.753-4.139z"/><path d="m570.36 486.41c-2.083-1.459-3.056-3.01-3.45-5.524-.459-2.936-.505-6.662 2.413-7.24 1.67-.34 2.468 1.101 4.148 1.376 3.074.514 4.918-.211 7.928-1.037 3.716-1.01 5.79-1.964 8.974-4.138l5.744 8.286-1.028 7.589-24.73.688z"/><path d="m601.98 495.96l-8.277-1.615-5.056-5.515c-2.771.184-4.377.587-6.901 1.725-2.872 1.285-4.423 2.404-6.561 4.717l.349 5.864c-1.092 1.523-1.514 2.624-1.725 4.487-.165 1.477-.083 2.367.349 3.79l5.175-1.037c2.046 1.211 3.478 1.633 5.864 1.725 2.184.092 3.542-.083 5.515-1.028 2.808-1.349 3.368-3.524 5.405-5.873 2.386-2.744 3.68-4.34 5.864-7.24z"/><path d="m547.24 491.93c2.138-1.854 3.771-2.624 6.561-3.102 3.359-.578 5.386.312 8.626 1.376 3.313 1.092 5.139 2.046 7.928 4.139-.064 2.395-.22 3.753-.688 6.102-.899 4.506-1.854 7.05-4.139 11.04l-14.14-2.074-10.01-5.515 4.148-4.836c-1.569-1.266-1.982-3.276-1.037-5.056.624-1.193 1.441-1.799 2.753-2.074z"/><path d="m514.93 505.27c-.808-2.156-.973-3.579-.688-5.864.358-2.891 1.156-4.625 3.102-6.79 4.267-.633 6.726-.789 11.04-.688 3.927.101 6.148.33 10 1.037l.697 9.543c1.257 3.459-.404 7.222-3.799 8.626-1.496.624-2.523.303-4.138.349-2.423.064-3.808-.009-6.212-.349-1.257 1.688-2.716 2.413-4.827 2.413-2.101 0-3.625-.679-4.827-2.413-1.312-1.881-1.422-3.845-.349-5.864z"/></g><path d="m31.86 335.43l128.05-1.771v-115.66l-8.259-2.955v-37.457h12.984v25.06h23.886v-24.473h14.168v24.473h25.978v-25.06h12.663v23.877h24.21v-25.06h13.581v38.05l-11.223 11.801-5.313 90.86c7.341-7.57 12.06-11.424 20.931-17.11 8.231-5.286 13.709-6.79 22.436-11.223 7.387-3.744 11.544-5.882 18.894-9.708 9.259 2.67 14.416 4.506 23.289 8.259 9.24 3.918 14.554 6.102 23.02 11.489 6.176 3.918 9.516 6.414 15.03 11.213v32.15c-5.735-7.07-9.351-10.819-16.214-16.802-8.47-7.387-13.884-10.901-23.611-16.526-4.726-2.735-7.46-4.166-12.397-6.497l-15.618 1.184c-10.553 6.992-16.297 11.305-25.978 19.481-12.425 10.488-19.04 16.976-29.786 29.19v158.44h-213.6c-1.762-8.415-2.799-13.15-4.726-21.518-3.615-15.728-6.68-24.363-10.03-40.15-2.652-12.471-3.955-19.555-5.91-32.15v-68.16l3.542-13.251" fill="#da121a"/><path d="m275.25 348.48c2.092.606 3.294.881 5.451 1.211 1.487.22 2.331.312 3.827.395 1.01.606 1.67.844 2.826 1.01 3.037.45 5.442-.551 7.258-3.02 1.101.477 1.826.624 3.03.606 1.945-.037 3.184-.532 4.634-1.817l3.836.808 7.06-3.432c2.312.881 3.79 1.12 6.258 1.01 2.34-.101 3.891-.11 5.845-1.413 1.11-.743 1.679-1.312 2.423-2.423 2.404.826 3.909 1.064 6.451 1.01 2.487-.046 3.799-.826 6.249-1.211 1.881-.284 2.955-.422 4.845-.606.431 1.597.376 2.689-.202 4.239-.514 1.367-1.064 2.12-2.221 3.03-3.863.156-6.04.33-9.883.808-4.597.56-7.148 1.165-11.7 2.01-4.331.817-6.717 1.624-11.08 2.221-3.836.523-6.04.431-9.883.808-3.469.34-5.396.936-8.873 1.01-3.469.073-5.634.615-8.873-.606-3.359-1.257-5.212-2.698-7.268-5.643" fill="#fcdd09"/><path d="m351.29 338.39c-.789-1.854-1.386-2.854-2.615-4.441-1.753-2.239-3.02-3.368-5.451-4.836-.798 1.23-1.055 2.156-1.01 3.625.064 1.899 1.432 2.634 2.02 4.441.661 2.055 1.321 3.303 1.01 5.442-.284 1.991-1.413 2.808-2.221 4.643-1.046 2.395-1.055 4.02-2.423 6.249-2.111 3.469-4.414 4.625-7.662 7.06-1.808 1.367-3.092 1.78-4.836 3.23-1.542 1.276-2.303 2.138-3.634 3.634-1.909 2.129-4.625 2.991-4.432 5.845.128 1.899.688 3.441 2.413 4.239 1.844.844 3.203-.376 5.05-1.211 1.45-.661 2.23-1.165 3.423-2.221.22 1.487.119 2.423-.404 3.836-.413 1.12-.789 1.734-1.606 2.615 1.716.174 2.735.128 4.432-.202 1.294-.248 2.02-.477 3.23-1.01l6.855-9.479c2.496-.808 4.03-1.037 6.653-1 2.891.027 4.579.358 7.268 1.404l-2.624 10.488c-4.359 1.376-6.772 2.588-10.488 5.249-3.57 2.551-4.827 4.891-8.07 7.864-2.01 1.844-3.68 2.404-5.249 4.634-1.643 2.349-2.276 4.02-2.615 6.864l-4.239 3.221c-2.028-1.688-3.23-2.588-5.442-4.03-2.716-1.771-4.469-2.404-7.268-4.04-3.349-1.955-5.212-3.111-8.47-5.24l-4.03 2.02c-3.45 2.9-5.322 4.643-8.47 7.864-2.459 2.505-3.386 4.377-6.06 6.653-1.973 1.688-3.193 2.542-5.442 3.836-1.376.78-2.175 1.184-3.634 1.808v3.634c-1.11 1.266-1.688 2.028-2.615 3.432-1.652 2.487-2.432 4.04-3.432 6.855l7.46-.404c.037-2.964.587-4.79 2.221-7.258 1.165-1.771 1.78-3.322 3.836-3.836 1.881-.477 3.395-.101 4.836 1.211.982-1.257 1.34-2.239 1.413-3.836.083-1.808-.303-3-1.413-4.432l5.05-.404 12.498-5.854 1.817.404-.404 3.03 2.02 2.423 13.1 10.08-2.817 2.817-5.854-1-3.827 1.404-11.296-.798-3.836 1.404-2.817 3.23-6.258 13.315-7.258 11.691c-2.23.505-3.615 1.698-4.432 3.836-.624 1.615-.202 2.716 0 4.441.376 3.303 1.055 5.24 2.817 8.07l4.643-2.423.808-5.05-1.817-1 1.817-7.07c3.634-2.845 5.533-4.698 8.47-8.268 2.184-2.661 3.313-4.276 5.04-7.258l2.423-1.615 11.09-3.625c.587 1.257 1.211 1.927 2.423 2.615 1.973 1.129 3.863 1.129 5.845 0 3.276 1.055 5.24 1.422 8.672 1.615 4.662.266 7.424-.064 11.902-1.413 1.459 1.578 2.891 2.211 5.04 2.221 1.743.009 2.863-.34 4.239-1.413.743-.578 1.12-1 1.615-1.817 2.78 1.863 4.606 2.661 7.864 3.432 2.762.661 4.432.872 7.258.606 4.083-.385 5.827-2.973 9.883-3.634 2.872-.468 4.561-.422 7.46-.202 2.065.165 3.23.34 5.249.808v-39.531c-1.211-.569-1.863-1.12-2.624-2.211-.945-1.349-1.074-2.404-1.211-4.04-.248-2.854 1.064-4.359 2.02-7.06.762-2.166 1.248-3.368 2.221-5.451l-.202-19.362-.808-16.536-7.671-1.211c-1.679-1.11-2.835-1.542-4.836-1.808-3.386-.459-5.744.156-8.47 2.211l-.808-4.03-2.02.404c1.101-1.064 1.624-1.826 2.221-3.23.982-2.322 1.092-4.03.404-6.451-1.734-.532-2.964-.477-4.643.202-1.955.789-3.056 1.863-3.827 3.826-.78 1.982-.725 3.533.202 5.451l-4.643-.202" fill="#fff"/><path d="m160.69 333.52l-126.44 2.652m-6.451 13.719l.028 69.37m6.05 25.01v-92.36l41.963 38.944v115.95m-42.798-165.81l50.653 45.35v114.42m0-114.42h75.8m-74.59 9.341l75.19-1.808" fill="none" stroke="#231f20" stroke-linejoin="round" stroke-width="1.826" stroke-miterlimit="3.864"/><g fill="#231f20"><path d="m48.36 433.79v-29.85c-.551-2.569-.275-4.368 1.01-6.653.982-1.753 1.743-2.964 3.634-3.634 1.936-.688 3.359-.239 5.24.606 1.936.863 2.909 1.835 4.04 3.625 1.459 2.312 1.835 4.166 1.413 6.864v37.31l-2.02-.606v-35.696c.532-2.267-.385-4.322-2.423-5.451-1.312-.725-2.413-.899-3.827-.404-1.523.541-2.055 1.615-2.826 3.03-.853 1.56-1.101 2.661-1.01 4.432v28.437l-3.23-2.01"/><path d="m50.18 430.15l12.305 6.653.808 5.249-13.92-7.46.808-4.441"/></g><g stroke="#231f20" stroke-miterlimit="3.864"><path d="m492.46 336.57h50.42m-52.04 63.729h52.44m.431-153.82v244.57m3.01-243.18l85.83 121.94" fill="none" stroke-width="2.744"/><g fill="#fcdd09" stroke-width="1.826"><path d="m210.25 66.34c0-3.542 2.872-6.423 6.423-6.423 3.542 0 6.414 2.881 6.414 6.423 0 3.551-2.872 6.423-6.414 6.423-3.551 0-6.423-2.872-6.423-6.423z"/><path d="m318 128.25c0-3.551 2.872-6.423 6.414-6.423 3.551 0 6.423 2.872 6.423 6.423 0 3.542-2.872 6.414-6.423 6.414-3.542 0-6.414-2.872-6.414-6.414z"/></g><path d="m214.1 72.77l-54.846 105.83m59.34-106.47l55.48 104.55m-74.11-76.03l65.11 77.961m-33.392-79.25l-67.45 79.73m22.23-54.681l45.21 53.55m10.08 10.764l12.379 13.1m7.07-49.552l-19.261 25.684m4.496-52.91l-43.28 55.48m-30.924-27.17l22.574 25.24m7.451 7.203l14.801 17.242m.872-130.28l48.41 103.9m58.05-42.39v145m-.642-145.65l59.728 174.76m-59.728-172.83l-60.829 182.48m118.25-13.452l-57.42-86.57-60.829 97.34m46.707-140.63l15.407 18.242 13.1-15.673m-58.31 89.14l29.795 17.976 47.772-50.34-33.01-43.03-29.538 37.889 47.781 54.19 26.327-15.407m-27.611-53.56l-16.315 21.2-17.976-22.482m76.76-37.641l56.3-105.05 57.55 103.67m-6.561.688l-61.53-85.48m22.1 3.212l-64.867 83.64m27.364-58.6l42 54.837 20.546-35.32m-11.562-20.803l-44.56 58.05-23.767-23.757m43.927-78.861l50.699 103.77" fill="none" stroke-width="2.744"/><path d="m434.17 62.947c0-3.551 2.881-6.423 6.423-6.423 3.551 0 6.423 2.872 6.423 6.423 0 3.542-2.872 6.414-6.423 6.414-3.542 0-6.423-2.872-6.423-6.414z" fill="#fcdd09" stroke-width="1.826"/><path d="m151.55 213.53v-34.934h13.489v24.01h23.372v-24.01h14.13v24.01h25.684v-24.657h13.746v23.372h23.757v-24.01h13.489v36.22h-127.67zm-1.285 0l9.635 4.496h112.9l5.781-4.496m-118.68 3.854v286.02m102.62-284.74v280.89m-102.62-39.43h101.98m-101.98 15.416h101.98m-101.98 15.407h101.98" fill="none" stroke-width="2.744"/></g><path d="m199.62 329.32v-69.38c.138-3.946 1.248-6.488 4.04-9.277 2.046-2.037 3.726-2.67 6.451-3.634 2.56-.899 4.166-1.578 6.864-1.211 2.579.358 3.964 1.266 6.05 2.826 1.422 1.074 2.156 1.808 3.23 3.23-1.945-.899-3.138-1.266-5.249-1.615-3.891-.652-6.653-1.147-10.08.808-2.12 1.211-3.065 2.404-4.432 4.441-1.34 1.982-1.909 3.303-2.423 5.643v62.922h25.409v5.249h-29.85" fill="#231f20"/><g stroke="#231f20" stroke-miterlimit="3.864"><path d="m221.81 249.04c1.982 1.028 3.037 1.89 4.441 3.634 1.633 2.028 2.312 3.496 2.817 6.05v70.39" fill="none" stroke-width="2.744"/><g stroke-width="1.826"><path d="m160.5 221.61h101.65l.404 8.07h-4.441c.808-2.257-.844-4.946-3.23-5.24-2.679-.34-5.221 3.212-4.03 5.643h-4.441c.661-2.496-1.45-5.24-4.03-5.24-2.579 0-4.698 2.744-4.04 5.24h-4.836c.413-2.423-1.578-4.808-4.04-4.836-2.579-.028-4.717 2.753-4.03 5.24h-3.634c.569-2.395-1.578-4.964-4.04-4.836-2.349.119-4.166 2.542-3.625 4.836h-4.441c.119-2.23-1.413-4.111-3.625-4.432-2.643-.395-5.23 2.193-4.845 4.836h-4.03c.541-2.523-1.459-5.12-4.04-5.24-2.679-.128-5 2.624-4.432 5.24h-4.845c.853-2.478-1.028-5.396-3.634-5.643-2.78-.266-5.35 3-4.432 5.643h-3.634c.615-2.413-1.156-4.964-3.625-5.24-2.79-.312-5.396 3.01-4.441 5.643h-3.625v-9.681z" fill="#fff"/><path d="m221 263.97l-10.08 8.07m5.249-8.07l-2.826 2.01m2.826 6.06l-6.06 5.24m8.07-20.977l-7.258 3.634m6.06-.808l-4.04 1.615" fill="none"/></g><path d="m377.43 210.31v-34.934h13.489v24.01h23.372v-24.01h14.13v24.01h25.684v-24.657h13.746v23.372h23.757v-24.01h13.489v36.22h-127.67zm-1.285 0l9.635 4.487h112.9l5.781-4.487m-118.68 3.845v286.02m102.62-284.74v280.89m-102.62-39.43h101.98m-101.98 15.416h101.98m-101.98 15.416h101.98" fill="none" stroke-width="2.744"/></g><path d="m425.5 326.09v-69.38c.138-3.937 1.248-6.488 4.04-9.277 2.046-2.037 3.726-2.67 6.451-3.625 2.56-.899 4.166-1.587 6.864-1.211 2.579.358 3.964 1.257 6.05 2.826 1.422 1.064 2.156 1.799 3.23 3.221-1.945-.89-3.138-1.257-5.249-1.615-3.891-.652-6.653-1.147-10.08.808-2.12 1.211-3.065 2.413-4.432 4.441-1.34 1.982-1.909 3.303-2.423 5.643v62.931h25.409v5.24h-29.85" fill="#231f20"/><g stroke="#231f20" stroke-miterlimit="3.864"><path d="m447.69 245.81c1.982 1.037 3.037 1.89 4.441 3.634 1.633 2.028 2.312 3.496 2.817 6.06v70.38" fill="none" stroke-width="2.744"/><g stroke-width="1.826"><path d="m386.38 218.38h101.65l.404 8.08h-4.441c.808-2.267-.844-4.955-3.221-5.249-2.689-.33-5.23 3.221-4.04 5.643h-4.441c.67-2.487-1.45-5.24-4.03-5.24-2.579 0-4.698 2.753-4.04 5.24h-4.836c.413-2.413-1.578-4.808-4.04-4.836-2.579-.028-4.717 2.753-4.03 5.24h-3.634c.569-2.386-1.578-4.964-4.04-4.836-2.349.119-4.166 2.542-3.625 4.836h-4.441c.119-2.23-1.413-4.102-3.625-4.432-2.643-.395-5.23 2.202-4.845 4.836h-4.03c.541-2.514-1.459-5.12-4.04-5.24-2.679-.128-5 2.624-4.432 5.24h-4.845c.853-2.468-1.028-5.396-3.634-5.643-2.78-.266-5.35 3-4.432 5.643h-3.634c.615-2.404-1.156-4.964-3.625-5.24-2.79-.312-5.396 3.02-4.441 5.643h-3.625v-9.681z" fill="#fff"/><path d="m446.88 260.74l-10.08 8.07m5.249-8.07l-2.826 2.02m2.826 6.05l-6.06 5.24m8.07-20.968l-7.258 3.625m6.06-.808l-4.04 1.615" fill="none"/></g></g><g fill="#231f20"><path d="m488.43 311.57l12.498 6.855h42.761v4.432h-41.55l-7.258 13.315h3.634v65.34h-10.08v-89.95"/><path d="m488.03 416.84h56.874v-6.05h-56.874v6.05"/><path d="m487.63 493.07h11.294v-79.87h-11.294v79.87"/><path d="m551.73 296.29v193.13h7.332v-167.46l59.49 80.21 3.147-9.956-69.969-95.93"/><path d="m263.24 343.76c1.679-.569 2.606-.964 4.175-1.78 7.24-3.781 8.167-9.864 14-15.59 7.791-7.644 12.709-11.461 21.537-17.875 5.432-3.937 8.58-6.04 14.306-9.525 2.78.899 4.524 1.101 7.442.89 3.01-.22 4.762-.716 7.451-2.083 8.167 3.45 12.645 5.845 20.05 10.718 9.507 6.258 13.682 11.397 22.344 18.775 4.35 3.698 6.79 5.799 11.122 9.534l-.697 9.92c-2-1.587-3.12-2.505-5.065-4.166-8.08-6.901-11.08-12.498-19.362-19.16-6.974-5.625-10.929-9.07-19.06-12.81-5.708-2.634-9.149-3.771-15.288-5.065-3.927 1.542-6.093 2.523-9.837 4.469-8.745 4.542-13.09 8.222-20.848 14.297-7.112 5.561-11.186 8.717-17.371 15.288-3.45 3.661-5.24 5.873-8.341 9.828-2.927 3.735-4.506 5.9-7.148 9.837l.587-15.499"/></g><g fill="none" stroke="#231f20" stroke-miterlimit="3.864"><path d="m262.65 318.05c7.112-7.139 11.516-10.856 19.747-16.682 6.772-4.781 10.745-7.35 18.18-11.02 6.515-3.212 10.351-4.753 17.279-6.946 1.331-1.019 2.12-1.542 3.57-2.386 1.349-.771 2.147-1.175 3.579-1.78 1.523.413 2.377.67 3.872 1.193 1.532.523 2.386.853 3.872 1.487 7.06 1.808 10.984 3.157 17.664 6.05 7.396 3.203 11.333 5.579 18.18 9.837 6.809 4.239 10.525 6.882 16.774 11.911" stroke-width="2.799"/><g stroke-width="1.826"><path d="m325.89 280.12c-.22 3.863-.284 6.06-.294 9.929-.009 4.184.055 6.543.294 10.718m-8.04-16.774c0-2.826 0 4.423 0 7.249 0 3.716 0 13.251 0 9.525m13.994-18.857c.184 3.634.248 5.689.303 9.332.055 3.478.055 5.451 0 8.928m13.08 40.853c.551 2 .266 3.56-.964 5.23-1.679 2.285-4.157 1.725-6.965 2.129-1.863.266-2.936.073-4.808.193-3.184.193-4.992.257-8.13.771-4.157.688-6.322 1.872-10.443 2.707-3.377.679-5.295 1.019-8.708 1.358-2.707.266-4.249.193-6.965.385-4.157.284-6.478 1.193-10.644.964-3.193-.174-5.258.128-8.103-1.349-2.735-1.432-4.175-2.872-5.607-5.616 2.239 1.23 3.671 1.725 6.194 2.129 1.78.294 2.817.34 4.616.193.606.422 1.019.606 1.743.78 1.569.367 2.56-.193 4.056-.78 1.679-.652 2.597-1.248 3.872-2.514.908.67 1.587.908 2.707.973 1.725.083 2.358-1.523 4.065-1.743 1.982-.257 3.074 1.376 5.03.964.964-.193 1.432-.551 2.322-.964 1.808-.835 2.799-1.395 4.45-2.514 2.322 1 3.854 1.276 6.387 1.156 2.01-.092 3.239-.239 5.03-1.156 1.569-.817 2.404-1.505 3.487-2.9 2.643.642 4.212.817 6.937.771 2.9-.055 4.46-.899 7.35-1.165 1.202-.101 1.89-.147 3.092-.193-.312-1.211-.532-1.89-.964-3.065-.688-1.872-2.055-2.652-2.129-4.643-.064-1.743.303-2.872 1.358-4.258 1.734 1.413 2.643 2.322 4.056 4.065 1.587 1.945 2.377 3.166 3.487 5.414l5.221.193c-.844-1.688-.954-3.03-.385-4.836.587-1.89 1.569-2.881 3.285-3.872 1.606-.927 2.808-1.175 4.643-.964 1.101 1.661 1.376 3.074.973 5.03-.505 2.413-1.771 3.927-4.065 4.836l3.092-.385.587 4.04c1.716-.881 2.762-1.276 4.643-1.743 1.331-.33 2.101-.615 3.478-.578 2.34.064 3.817.624 5.616 2.129l-3.294 1.936c1.083-.358 1.762-.44 2.9-.385 1.248.055 2.01.165 3.102.771.982.541 1.496 1.01 2.129 1.936-.844.257-1.321.422-2.129.771-.936.395-1.45.652-2.322 1.165 1.909-.083 3.157.34 4.643 1.542 1.083.881 1.597 1.597 2.101 2.909-.716.496-1.239.688-2.101.771-.679.064-1.092.018-1.743-.193 1.019.587 1.551 1.037 2.322 1.936.642.743.945 1.23 1.358 2.12-.927-.22-1.725.037-2.322.78-1.074 1.312.67 4.083 2.322 3.671l-2.523 1.165 2.881 2.129-2.487 2.514 2.679 4.065-2.872-.385 2.679 4.836-2.881 1.927c1.266 1.321 1.771 2.441 1.936 4.258.174 1.955-.927 2.927-1.349 4.836-.551 2.45-1.734 3.973-.973 6.359.624 1.936 1.505 3.047 3.267 4.065"/><path d="m342.91 347.99c-.523 1.587-.606 2.569-1.349 4.065-1.743 3.487-4.175 4.469-7.157 6.965-1.817 1.514-3.12 2.037-4.818 3.68-1.422 1.376-1.854 2.505-3.285 3.863-1.762 1.679-3.937 1.514-5.03 3.68-1.266 2.496-2 6.07.578 7.157 1.395.596 2.404.018 3.872-.385 2.377-.652 3.735-1.477 5.414-3.285.184 1.505.083 2.423-.385 3.863-.468 1.413-.927 2.193-1.936 3.294 1.514.018 2.386-.064 3.872-.385 1.551-.349 2.413-.652 3.845-1.358.587-.844.927-1.312 1.542-2.129 1.294-1.716 2.211-2.533 3.487-4.258.872-1.175 1.34-1.863 2.129-3.092 1.725-.193 2.707-.275 4.45-.385 2.257-.147 3.542-.422 5.799-.193 1.294.128 2.028.257 3.294.578.073 1.817-.018 2.863-.395 4.643-.413 1.964-1.551 2.835-1.734 4.836-.073.752 0 1.175 0 1.936" stroke-linejoin="round"/></g></g><path d="m348.33 355.35c0-.863.688-1.551 1.542-1.551.853 0 1.551.688 1.551 1.551 0 .853-.697 1.542-1.551 1.542-.853 0-1.542-.688-1.542-1.542" fill="#231f20"/><g fill="none" stroke="#231f20" stroke-width="1.826" stroke-miterlimit="3.864"><path d="m346.39 355.93l2.322 1.349m-1.165-4.836c1.074-.468 1.743-.652 2.909-.771 1.505-.156 2.423-.064 3.863.385 1.129.358 1.753.67 2.707 1.358-.046.881-.248 1.413-.771 2.129-.413.56-.752.817-1.358 1.156-.615.358-1.055.358-1.734.578m-6.194-11.02c.615-.697 1.074-1.019 1.936-1.358 1.129-.44 1.918-.496 3.092-.193m1.551 4.836c.973-.266 1.523-.395 2.514-.578 1.046-.202 1.643-.284 2.707-.385m1.743-3.487l4.065-2.9m2.9 1.743c1.505-.037 2.358-.037 3.872 0 1.661.037 2.597.073 4.249.193m-16.251 6.772l2.716-.78m1.542 2.322l2.129 2.129-1.743 1.936c.908.752 1.303 1.532 1.358 2.707.055 1.12-.523 1.679-.964 2.707-.789 1.835-1.202 2.964-2.523 4.45-1.615 1.835-2.9 2.698-5.221 3.487m6.772-5.221c1.817.642 2.762 2.634 2.129 4.45-.56 1.597-2.01 1.982-3.68 2.322-1.808.358-3.12.083-4.634-.973m-17.995-10.635l2.322-1.165m-11.388 5.809c.826.037 1.312-.009 2.129-.202.945-.22 1.468-.44 2.294-.964m-11.388 5.607c.578.184.936.229 1.542.202.624-.037.982-.128 1.551-.395l-.578-1.156m19.12-.578l-1.551.193m27.28-11.608l2.514-.193m-.771 4.643h3.285m-1.927 5.607l3.092-.578m-3.487 5.607l4.45-.385m-5.607 5.809l4.836-1.165m-3.872 6.194l4.065-.385m-4.065 5.03l3.872.193m-6.579 3.863l5.423.973m-6.579 3.845l3.092.771m-5.03 2.9l4.258.587m-.78 5.221l4.45-.193m.385 1.743l3.487.385m.385 2.514l4.643.193m-49.91 2.129l3.478.771m.193-5.221l2.9-.193m.78-3.294h3.285m-.578-3.478l3.872-.193m.771 10.443h6.965m.385-5.414l3.487.193m-13.351-8.516h3.863m-.193-2.707l2.909.193m-.385-2.872h2.9m.964-3.294h2.9m.973-3.671h2.9m-2.707-3.487l4.258-.964m-2.707-2.9l1.927-.587m18.19 17.967c-1.551.073-2.542.486-3.671 1.551-1.064.991-1.955 1.854-1.743 3.285.239 1.652 1.955 1.725 3.285 2.716 1.927 1.422 3.175 2 5.203 3.285"/><path d="m341.94 415.68c-2.312-.789-4.23-.496-6.194.964-1.725 1.294-2.955 2.698-2.679 4.836.128 1.074.422 1.716 1.138 2.514-1.854-.56-2.918-.817-4.818-1.156-1.789-.321-2.835-.817-4.643-.578-1.248.156-1.936.459-3.092.964-1.643.725-2.542 1.303-3.872 2.514m-39.25 10.259c-1.175.954-2.01 1.367-3.478 1.734-2.285.578-3.872.422-6-.578.11-1.587.193-2.478.385-4.065.284-2.349-.128-3.891.973-5.992.835-1.615 1.973-2.055 3.092-3.487.798-1.019 1.734-1.422 1.936-2.707.193-1.248-.101-2.175-.973-3.092 2.037-.826 3.157-1.386 5.03-2.514 2.854-1.716 4.276-3 6.754-5.23 3.056-2.744 4.194-4.882 7.157-7.736 1.964-1.89 2.973-3.102 5.221-4.643 1.505-1.037 2.239-2.303 4.065-2.322 1.927-.018 2.606 1.514 4.258 2.514 1.826 1.11 2.771 1.872 4.643 2.9 1.973 1.101 3.294 1.34 5.221 2.523 1.422.872 2.12 1.542 3.478 2.514 1.285.908 1.734 2.092 3.294 2.322 1.578.229 2.597-.385 3.863-1.358 2.074-1.578 1.193-3.946 2.523-6.194 1.376-2.349 2.505-3.469 4.423-5.414 1.606-1.643 2.762-2.303 4.45-3.872 1.789-1.661 2.569-2.854 4.441-4.423 2.175-1.808 3.496-2.753 6-4.056 2.166-1.129 3.459-1.652 5.809-2.322.826.45 1.294.707 2.129 1.156m-29.97 30.731l.193 3.872 1.743-2.9-1.936-.973zm-2.707-4.249c-1.064 1.89-1.505 3.092-1.936 5.221-.44 2.221-.037 3.542-.193 5.799-.11 1.67-.193 2.606-.385 4.258m-.578-.771c-1.074-1.193-1.716-1.835-2.9-2.9-2.542-2.276-4.579-2.808-7.167-5.03-1.936-1.679-3.698-2.267-4.634-4.652-.486-1.202.523-2.606-.587-3.285-1.055-.652-1.927.349-3.092.771-2.166.798-2.936 2.129-5.03 3.102-1.955.899-3.157 1.175-5.23 1.734-2.083.569-5.708-.973-5.414 1.165.138 1.019 1.211 1.156 1.551 2.129.523 1.514.027 2.579-.578 4.065-.303.716-.514 1.11-.973 1.734-.688-.964-1.358-1.431-2.514-1.734-1.092-.294-1.826-.174-2.9.193-2.395.808-2.845 2.9-3.845 5.221-.853 1.982-1.193 3.258-1.165 5.414.037 2.184.367 3.478 1.358 5.423" stroke-linejoin="round"/></g><g fill="#231f20"><path d="m269.64 430c1.22-.752 2.055-1.028 3.487-1.156 1.285-.119 2.065-.027 3.285.385.027 1.211.119 1.909.385 3.092.376 1.652.734 2.579 1.551 4.065-1.046.853-1.78 1.23-3.092 1.551-1.395.33-2.276.294-3.68 0-1.028-.229-1.606-.45-2.514-.973l.578-6.965"/><path d="m274.28 467.9c.78-.762 1.321-1.12 2.322-1.551 1.743-.743 3.487-1.707 4.836-.385 1 .973.44 2.129.752 3.478.413 1.826.67 2.845 1.156 4.643-1.615 1.432-2.753 2.074-4.808 2.716-1.743.541-2.817.67-4.643.578l.385-9.479"/></g><g stroke="#231f20" stroke-width="1.826" stroke-miterlimit="3.864"><path d="m274.66 469.05c-.349-1.799-.514-2.826-.771-4.643-.294-2.101-1.248-3.395-.578-5.414.541-1.633 1.422-2.34 2.707-3.487.569-.496.908-.752 1.551-1.156l3.863.578c-.184 1.441-.303 2.248-.578 3.68-.312 1.67-.532 2.606-.964 4.258l1.734.385-.193 5.221m-3.671-13.93c1.367-2.523 2.175-3.937 3.671-6.387 1.927-3.147 3.45-4.652 5.203-7.901 1.597-2.982 1.909-4.946 3.478-7.937 1.358-2.579 1.34-4.937 3.872-6.387 1.606-.918 2.799-.78 4.643-.964 2.707-.275 4.258.092 6.965.385 1.138.128 1.762.477 2.9.385 1.523-.11 2.156-1.165 3.68-1.349 1.661-.202 2.606.303 4.258.578.826.138 1.294.239 2.129.385m-36.934 30.15c2.055-2.156 3.248-3.349 5.396-5.414 1.927-1.854 3.414-2.514 5.03-4.643 1.587-2.092 1.184-4.175 3.092-5.974 1.872-1.753 3.615-1.771 6-2.707 2.735-1.064 4.322-1.578 7.157-2.322.936 1.496 1.844 2.248 3.487 2.9 1.753.697 3.03.752 4.836.193 2.955.798 4.68 1.101 7.736 1.358 2.78.229 4.395.404 7.157 0 2.074-.303 3.111-1.496 5.203-1.358 2.028.138 2.808 1.762 4.836 1.936 2.074.174 3.57.119 5.221-1.156 1.386-1.083 2.02-2.138 2.322-3.872l-.578-4.836 4.643-4.836m-4.45 11.608c1.955 1.138 3.111 1.698 5.221 2.514 2.276.881 3.57 1.578 6 1.743 2.991.193 4.652-.743 7.543-1.551 3.01-.844 4.441-2.34 7.543-2.707 2.101-.248 3.313.027 5.414.193 1.964.147 3.065.275 5.01.578m-70.37-3.092c1.432.073 2.239.119 3.68.193m2.322-.771c.551.33.908.468 1.542.578 1.652.284 2.478-.826 4.065-1.358m4.065.587c1.376-.89 2.395-1.184 4.04-1.165 1.936.027 2.771 1.239 4.643 1.743 1.624.44 2.597.468 4.258.771m13.15-2.9l-2.707 1.936-2.322 1.156h-.193m4.836 2.129l2.707-2.129 2.514-2.322m1.358 4.45l2.129-1.936 3.478-.578 2.716-1.551 3.285-1.927m6.194.385l4.423-.78m-96.29-18.17c1.578-1.725 2.569-2.624 4.432-4.04 1.643-1.23 2.689-1.753 4.441-2.817 1.321-.808 2-1.413 3.432-2.02.908-.395 1.431-.652 2.413-.808.936-.147 1.477 0 2.423 0m-24.803 52.03c2.02-1.982 3.138-3.138 5.04-5.24 1.532-1.698 2.579-2.523 3.836-4.441.927-1.404 1.276-2.312 2.02-3.827.752-1.551.89-2.579 1.808-4.04 1.074-1.688 1.688-2.835 3.432-3.827 1.083-.624 1.808-.762 3.03-1.01 1.615-.34 2.588-.385 4.23-.202m40.944-89.15c.569-.89.991-1.358 1.817-2.02.908-.725 1.514-1.046 2.615-1.404m7.873-2.624c0-1.101-.385-1.789 0-2.826.404-1.092 1.074-1.523 2.01-2.221.853-.624 1.477-.734 2.423-1.202" fill="none"/><path d="m540.66 241.23c0-3.551 2.872-6.423 6.423-6.423 3.542 0 6.423 2.872 6.423 6.423 0 3.542-2.881 6.423-6.423 6.423-3.551 0-6.423-2.881-6.423-6.423z" fill="#fcdd09"/></g><g fill="#231f20"><path d="m505.77 173.43l3.432 3.23v36.08l-7.46 10.08v97.62l-13.709-6.864v-98.42h10.892l6.05-5.249.798-36.485"/><path d="m279.89 176.65l3.432 3.23v36.09l-7.46 10.08v53.644l-13.507 39.25-.202-100.56h10.892l6.05-5.24.798-36.494"/></g><g stroke="#231f20" stroke-width="1.826" stroke-miterlimit="3.864"><g fill="#fff"><path d="m488.14 510.78c-.064-2.294-.22-3.606-.688-5.864-.541-2.624-2.817-3.973-2.065-6.552.587-2.037 1.918-2.826 3.68-4.03 2.533-1.734 4.542-1.679 7.589-2.065 2.799-.358 4.46-.514 7.24 0 2.386.44 4.625-.018 5.864 2.065 1.523 2.569-2.533 4.157-2.753 7.13-.193 2.45 2.083 4 1.028 6.212-1.055 2.23-3.129 2.468-5.515 3.102-2.468.661-4.194-.982-6.552 0-4.148 1.725-10.874 0-7.827 0z"/><path d="m457.79 494.58c4.891-.936 7.873-.936 12.764 0 4.221.808 6.607 1.679 10.351 3.79-1.193 3.918-2.129 6.093-4.138 9.663-2.037 3.606-3.432 5.542-6.212 8.626-2.02.055-3.175-.028-5.175-.349-2.055-.34-3.212-.652-5.175-1.376-1.523-.569-2.533-.707-3.79-1.725-2.744-2.23-3.707-5.221-2.762-8.626 1.276-2.046 1.89-3.276 2.762-5.524.661-1.707.964-2.698 1.376-4.478z"/><path d="m429.96 493.31c4.616-1.312 7.616-1.395 12.296-.349 2.817.624 5.524.11 6.901 2.643 1.468 2.698.56 6.01-2.065 7.589.551 2.533.266 4.322-1.037 6.561-1.303 2.23-2.67 3.505-5.175 4.138-2.615.661-4.102-1.046-6.781-1.386-2.679-.33-4.515.908-6.901-.34-1.945-1.019-3.487-1.973-3.799-4.138-.321-2.267 2.285-2.936 2.762-5.175.367-1.707-.459-2.799 0-4.487.642-2.377 1.688-3.771 3.799-5.056z"/><path d="m393.4 502.51c-1.037-1.89-1.037-3.625 0-5.515 1.165-2.147 3.166-2.303 5.515-2.991 3.753-1.101 6.277-.596 10 .578 4.524 1.413 7.07 3.175 10.01 6.891-.321 2.689-.468 4.212-.697 6.901-.156 1.881-.229 2.946-.34 4.836-2.432.468-3.808 1.037-5.864 2.413-1.505 1-2.294 1.707-3.45 3.102-3.313-.964-5.157-1.652-8.277-3.102-3.671-1.698-6.956-1.679-8.974-5.175-.982-1.698-1.964-2.964-1.376-4.827.541-1.734 1.67-2.753 3.45-3.111z"/><path d="m386.15 496.99c-1.936.927-3.258 1.175-5.405 1.037-2.12-.147-3.083-1.358-5.175-1.725-3.588-.642-6.543-1.679-9.314.688-2.111 1.799-2.808 3.781-2.753 6.552.046 2.478 1.542 3.551 2.413 5.864 1.046 2.79-.211 5.827 2.413 7.249 2.01 1.083 3.579-.193 5.864-.349 3.368-.229 5.891 1.294 8.626-.688 2.028-1.477 2.79-3.065 3.331-5.524.468-2.101-1.11-3.496-.34-5.515.541-1.432 2.129-1.597 2.413-3.111.349-1.89-.404-3.515-2.074-4.478z"/><path d="m353.84 513.9c-1.138 1.982-2.936 2.303-5.175 2.762-2.67.532-4.331-1.936-6.901-1.037-1.376.477-1.652 2.175-3.102 2.065-1.432-.101-1.725-1.422-2.762-2.413-2.184-2.092-3.836-3.102-5.056-5.864-1.165-2.606-2.184-4.634-1.037-7.24 1.156-2.634 3.395-3.157 6.093-4.138 3.79-1.386 6.561-1.386 10.351 0 1.716-1.266 3.047-1.707 5.175-1.725 1.955-.018 3.533-.092 4.827 1.376 1.101 1.248 1.175 2.478 1.037 4.139-.184 2.166-2.312 2.707-2.762 4.827-.303 1.45.156 2.322 0 3.799-.138 1.367-.009 2.257-.688 3.45z"/><path d="m319.45 516.31c-1.863.798-3.157-.229-5.175-.349-2.689-.156-4.203-.229-6.901-.34-1.064-.56-1.67-.863-2.753-1.386-1.202-.56-1.881-.863-3.111-1.376 2.046-2.166 2.762-4.285 2.413-7.24-.248-2.211-.881-3.56-2.413-5.175 2.413-.34 3.781-.496 6.212-.697 4.157-.34 6.662-1.422 10.69-.34 2.441.652 3.808 1.294 5.864 2.762-.468 2.735-.844 4.267-1.725 6.901-.964 2.909-.275 6.03-3.102 7.24z"/><path d="m239.89 507.68c.752-1.872-.762-3.303 0-5.175.927-2.294 2.606-3.03 4.827-4.139 2.101-1.046 3.542-1.762 5.864-1.376 1.78.294 2.386 1.643 4.138 2.065 1.835.45 2.955-.147 4.827 0 1.083.092 1.743-.018 2.762.349 1.441.523 2.046 1.303 3.102 2.413 1.698 1.799 3.111 3.047 3.111 5.524 0 2.468-2.184 3.23-3.111 5.515-1.083 2.689.844 5.891-1.725 7.24-1.312.697-2.312.468-3.79.349-3.303-.257-4.294-3.515-7.589-3.79-3.056-.266-4.524 1.991-7.589 2.065-3.625.092-7.681.973-8.974-2.413-.67-1.762-.404-3.102.349-4.827.835-1.927 3.01-1.854 3.799-3.799z"/><path d="m275.07 509.76c-.459-2.083-3.138-2.358-3.102-4.487.037-2.881 3.074-5.203 5.864-4.487.844-.936 1.542-1.367 2.753-1.725 2.973-.853 4.12 2.79 7.139 3.45 2.753.606 4.478.606 7.24 0 1.257 3.735 1.578 6.075 1.376 10-.092 1.909.835 3.689-.688 4.836-1.294.964-2.523.028-4.138 0-2.964-.046-4.634-.56-7.589-.349-2.404.174-3.781 1.725-6.093 1.037-1.762-.523-3.03-1.101-3.799-2.762-.918-1.982 1.505-3.377 1.037-5.515z"/><path d="m199.98 510.1c.385-1.679 1.441-2.34 2.762-3.45 1.294-1.074 2.45-1.055 3.79-2.065 1.982-1.496 1.844-3.909 4.138-4.836 2.533-1.01 4.184.954 6.901 1.037 2.156.073 3.625-1.358 5.524-.34 1.707.908 1.239 2.936 2.762 4.138 1.633 1.294 4.03-.092 5.056 1.725.863 1.523.358 2.872-.34 4.478-.752 1.716-2.166 2-3.34 3.45-1.404 1.743-1.615 3.166-3.102 4.836-1.083 1.202-1.606 2.156-3.111 2.753-2.276.908-3.753-.945-6.203-1.028-2.569-.092-4.093 1.413-6.561.688-3.102-.908-4.12-3.138-5.864-5.864-1.266-1.982-2.936-3.23-2.413-5.524z"/><path d="m182.39 522.52c-4.239-.422-7.112-2.156-9.204-5.864-1.404-2.514-1.872-4.414-1.376-7.249.551-3.157 1.67-5.35 4.487-6.901 2.331-1.276 4.12-.762 6.781-.688 2.588.073 4.148.083 6.552 1.037 3.203 1.266 5.552 2.349 6.901 5.515 1.321 3.111 1.514 6.07-.688 8.626-1.22 1.422-2.468 1.587-4.138 2.413-3.432 1.707-5.506 3.478-9.314 3.111z"/><path d="m165.59 510.1c-1.505 1.863-2.34 2.927-3.79 4.836-1.927 2.514-1.863 5.423-4.836 6.552-1.514.578-2.514.431-4.138.34-1.918-.092-2.909-.872-4.827-1.028-1.202-.101-1.945.358-3.102 0-3.404-1.074-.89-5.506-1.725-8.974-.596-2.441-2.533-3.827-1.725-6.203 1.11-3.267 5.295-4.836 8.277-3.111 1.707-1.477 3.276-1.964 5.515-1.725 2.34.257 3.359 1.624 5.175 3.111 2.45 1.991 3.661 3.441 5.175 6.203z"/><path d="m122.59 500.44c2.753-.11 3.074 3.423 5.744 4.138 1.955.523 3.496-1.12 5.175 0 1.505 1 1.569 2.404 2.074 4.138.789 2.716 1.083 4.634 0 7.24-.982 2.377-2.221 3.625-4.487 4.836-2.248 1.193-3.9.863-6.442 1.028-2.955.193-4.827.743-7.589-.34-1.808-.707-3.03-1.175-4.138-2.762-1.257-1.799-.551-3.386-1.037-5.515-.459-2.037-1.716-3.12-1.376-5.175.266-1.67.652-2.891 2.065-3.799 1.587-1.01 3.248-1.01 4.836 0 .844-2.349 2.67-3.689 5.175-3.79z"/><path d="m83.61 501.13c2.111-.863 3.588-.284 5.864 0 2.202.275 3.303 1.211 5.515 1.376 1.881.138 3.193-1.276 4.827-.34 1.78 1.01 2.569 2.835 2.074 4.827 1.615-.156 2.845.404 3.799 1.725 1.349 1.89-.367 3.643-1.037 5.864-.963 3.166-1.835 4.918-3.799 7.589l-11.727 1.725-14.37-9.663c1.523-2.441 2.413-3.808 4.02-6.203 1.835-2.725 1.789-5.662 4.836-6.901z"/><path d="m58.54 501.82c1.055-.707 1.844-1.248 3.102-1.037 1.413.239 2.34 1.055 2.762 2.413 1.991-1.184 3.579-1.459 5.864-1.028 1.771.33 2.973.688 4.138 2.065 1.257 1.496 1.193 2.881 1.266 4.836.11 2.79.101 4.992-1.955 6.891-1.753 1.624-3.551 1.147-5.864 1.725-1.872.468-2.991 1.615-4.836 1.037-2-.633-2.643-2.193-3.45-4.138-.523-1.266-.679-2.074-.688-3.45-1.743.211-3.239-.752-3.79-2.413-.486-1.459.349-2.423 1.037-3.799.679-1.367 1.138-2.248 2.413-3.102z"/></g><path d="m67.858 534.94c3.744 1.514 5.946 2.202 9.892 3.102 1.331.312 2.12.33 3.441.697 1.808.496 2.817.881 4.487 1.716 1.129-1.441 1.734-2.276 2.762-3.79.982-1.45 1.514-2.285 2.413-3.799.34-2.23-.174-3.872-1.725-5.515-1.899-2.02-4.175-1.175-6.901-1.725-2.533-.514-4.01-1.532-6.552-1.037-2.386.468-3.799 1.285-5.405 3.111-1.973 2.23-2.652 4.267-2.413 7.24zm24.372 18.518c-.808-1.615-2.166-2.34-2.065-4.148.101-1.899.954-3.423 2.762-4.02 1.927-.642 2.835 1.532 4.827 1.955 3.294.707 5.249-.817 8.626-.688 2.303.083 3.707-.119 5.864.688 2.514.945 3.937 1.955 5.515 4.138 3 4.148 3.12 8.809.349 13.11-1.211 1.514-2.276 2.221-4.138 2.753-2.074.596-3.386-.073-5.524-.34-4.689-.587-7.359-1.294-11.727-3.111-.808-2.468-1.34-3.836-2.413-6.203-.743-1.643-1.266-2.523-2.074-4.138zm8.626-14.379c-1.679-.505-2.982.569-4.478-.34-2.771-1.679-1.22-5.175-.349-8.286.762-2.735 1.624-4.377 3.79-6.203 1.615-1.358 2.753-2.744 4.836-2.423 1.973.312 3.294 1.514 3.79 3.45l7.249-1.028 3.102 4.138h3.102l1.037 3.45-2.065 2.065c-.147 2.175-.679 3.505-2.074 5.175-1.588 1.89-3.193 2.276-5.515 3.102-1.817.652-2.909.89-4.836 1.037 1.487.808-2.312-1.257-3.79-2.065-1.487-.808-2.184-1.587-3.799-2.074zm20.702 10.929c-.248-2.606.321-5.157 2.762-6.102 1.872-.725 3.047 1.01 5.056 1.037 2.193.037 3.45-1.753 5.524-1.037 2.432.853 3.533 2.845 3.79 5.405.284 2.881-.918 5.166-3.45 6.561h-5.515c-2.092.505-3.661.202-5.405-1.037-1.771-1.257-2.56-2.67-2.762-4.827zm1.725 10.69c2.285-2.276 4.937-1.239 8.167-1.376 2.551-.119 4.02-.037 6.552.34 1.074 2.193 1.257 3.845.688 6.212-.798 3.34-3.221 4.368-5.864 6.552-1.863 1.551-3.03 2.322-5.175 3.45l-9.892.349c-1.12-2.771-.78-5.221 1.037-7.589.752-.991 1.624-1.11 2.413-2.074 1.542-1.872.349-4.157 2.074-5.864zm2.413-22.307l.688-10.351c1.477-.853 2.386-1.248 4.03-1.725 3.23-.936 5.267-.064 8.626-.34 3.239-.275 5.065-.505 8.277-1.037l2.413 3.79-1.725 12.08c-.661.927-1.138 1.413-2.074 2.074-3.065 2.184-7.809 3.625-9.653.34-.477-.853-.083-1.643-.688-2.413-1.092-1.395-2.762-.303-4.487-.688-2.156-.486-3.368-.872-5.405-1.725zm29.548 3.79c-.817-1.881 1.138-3.111 1.037-5.175-.092-1.955-1.165-2.881-1.376-4.827-.33-3.12-.954-5.836 1.376-7.928 2.404-2.166 5.05-.44 8.277-.349 1.89.055 2.955.174 4.836.349 2.423.211 4.102-.541 6.203.688 2.147 1.248 3.138 2.753 3.689 5.175.468 2.111-.101 3.432-.697 5.515-.826 2.936-1.22 5.093-3.68 6.901-2.02 1.487-3.716 2.055-6.203 1.725-2.092-.275-2.808-1.854-4.836-2.413-3.239-.899-7.286 3.432-8.626.34zm-6.891 2.423c2.946-.569 3.735 2.982 6.552 4.02 3.432 1.266 5.689.587 9.314 1.037 2.02.257 3.157.404 5.175.688l3.102 8.286c-1.294 2.046-2.055 3.184-3.45 5.166-1.046 1.505-1.514 2.459-2.762 3.799-2.79 3.01-5.02 4.377-8.965 5.515l-9.663-14.829-4.138-.688-1.376-3.799c.275-1.982.679-3.12 1.725-4.827 1.266-2.083 2.083-3.909 4.487-4.368zm49.9-2.762c-2.679-.266-4.35.523-6.901-.349-3.872-1.321-6.488-3.303-7.589-7.24-.835-3.01-.229-5.084 1.037-7.937.44-.991.752-1.532 1.376-2.413l5.873.688 3.79-2.065 3.799 2.413c1.45-1.89 3.615-2.523 5.864-1.725 2.074.734 3.147 2.294 3.45 4.487.22 1.643-.064 2.79-1.037 4.138.486 2.239.56 3.579.34 5.864-.211 2.202.211 3.964-1.376 5.515-2.432 2.386-5.23-1.046-8.626-1.376zm-17.242 1.376c1.854 2.514 3.368 3.753 6.203 5.065 1.78.826 3.212.275 4.836 1.376 2.79 1.89 4.937 4.909 3.441 7.937-1.138 2.322-3.68 1.716-5.864 3.102-2.744 1.753-3.331 4.707-6.552 5.175-1.835.266-3.065.165-4.717-.688-3.918-2.02-2.211-6.644-2.413-11.04-.156-3.331-1.487-5.992.688-8.516 1.275-1.468 2.45-2.12 4.377-2.413zm-11.278 27.483c2.138-1.266 3.79-1.909 6.212-1.376 1.973.431 2.423 2.257 4.368 2.762 2.514.633 4.093-1.835 6.561-1.037 2.257.734 3.331 2.055 4.478 4.138 1.624 2.946 2.404 5.965.349 8.626-1.743 2.248-4.414 1.019-6.901 2.413-2.413 1.358-2.826 3.817-5.515 4.487-2.478.606-4.03-.229-6.442-1.037-1.542-.514-2.395-.899-3.799-1.725l-4.138-6.901c-.707-4.395 1-8.07 4.827-10.351zm12.305 30.594c.101-2.808.725-4.551 2.423-6.79 1.266-1.67 2.037-3.606 4.138-3.45 2.303.174 4.03 2.588 3.45 4.836 2.129.817 3.303 1.624 4.827 3.331 1.523 1.707 2.615 2.891 2.762 5.175.193 3.129-1.165 7.892-4.148 6.901-3.102-1.037-5.726-3.221-8.965-5.864-1.844-1.505-2.835-2.423-4.487-4.139zm26.22-4.717c-2.991.257-5.478.771-7.589-1.386-1.753-1.789-.523-4-1.725-6.203-1.092-2.02-3.138-2.294-3.79-4.487-.982-3.303.376-6.166 3.102-8.277 1.89-1.459 3.524-2.147 5.864-1.725 1.487.266 1.991 1.367 3.45 1.725 2.514.606 4.065-1.734 6.552-1.037 1.872.523 3.239 1.037 4.148 2.762.872 1.661.872 3.157 0 4.827 1.826.844 2.808 2.147 3.102 4.138.45 3.037-2.423 4.304-4.827 6.212-2.744 2.166-4.799 3.147-8.286 3.45zm4.487 16.783c-.826-1.468-1.285-2.303-2.074-3.79-1.119-2.129-2.45-3.138-2.753-5.524-.321-2.459-.395-4.469 1.376-6.203 1.762-1.734 3.79-1.771 6.212-1.266.982.202 1.542.413 2.413.918 2.01-1.78 3.56-2.533 6.212-2.991 2.615-.459 4.909-1.193 6.781.688 1.698 1.716 2.074 3.918 1.037 6.102l4.487 2.413-1.386 11.727m19.316-.349c-1.165-1.12-1.78-1.808-2.753-3.102-1.064-1.395-1.606-2.239-2.413-3.79-1.67-.248-2.689-.808-3.799-2.074-1.863-2.138-1.753-4.616-.688-7.249 1.064-2.615 3.303-2.946 5.515-4.707 2.101-1.688 2.881-4.671 5.524-4.148 1.239.257 1.918.78 2.762 1.725 1.294 1.468.734 2.982 1.376 4.836 1.239 3.597 3.992 5.05 4.138 8.855.083 2.184.872 4.441-1.037 5.515-1.844 1.046-4.322.229-5.175-1.725l-3.45 5.864zm-15.178-17.82c-1.441-1.376-2.276-2.138-3.79-3.45-3.313-2.872-6.634-3.129-8.855-6.901-1.826-3.092-3.45-5.653-2.074-8.965 1.422-3.423 4.496-4.405 8.167-4.836 3.02-.349 4.579 1.34 7.589 1.725 2.276.303 3.579.202 5.864.349 1.89.128 2.946.202 4.827.349l1.037 8.617c-2.982 1.312-4.588 2.579-6.552 5.175-1.854 2.459-2.606 4.212-3.102 7.249l-3.111.688zm25.528-5.864c-.872-2.184-1.587-3.377-3.102-5.175-1.285-1.532-2.863-1.679-3.799-3.45-1.982-3.762.193-7.607 3.45-10.351 1.899-1.587 3.533-3.221 5.864-2.413 1.716.587 1.56 2.514 3.111 3.45 1.872 1.129 3.744-.248 5.515 1.037 2.413 1.743 2.285 4.267 2.413 7.24.165 3.661-.11 6.442-2.753 8.974-1.441 1.367-2.523 2.101-4.487 2.413-2.487.395-4.285-.11-6.212-1.725zm5.864 16.793c-1.716-3.386.468-6.304 2.762-9.323 1.899-2.505 3.404-4.579 6.552-4.707 2.083-.092 3.34.551 5.065 1.725 1.074.725 1.266 1.688 2.413 2.294 2.02 1.083 3.643-.551 5.864 0 2.569.652 5.13.899 5.864 3.45.633 2.211-1.652 3.267-2.074 5.524-.44 2.377-.44 3.827 0 6.203-2.02-.028-3.166.046-5.166.349-2.615.395-4.093.771-6.561 1.725-1.477.569-2.111 1.945-3.68 1.725-1.606-.22-1.826-1.762-3.102-2.762-1.771-1.376-3.111-1.67-4.827-3.102-1.321-1.092-2.331-1.578-3.111-3.102zm16.444-20.931c-2.606-2.863-4.267-5.533-3.45-9.314.459-2.12 1.459-3.092 2.762-4.836 1.487-1.973 2.395-3.157 4.487-4.478 1.945-1.23 3.331-2.771 5.515-2.074 1.633.523 2.588 1.477 3.111 3.102 2.221-.587 3.836-.395 5.864.697 2.459 1.321 3.753 3.083 4.138 5.864.44 3.221-3.946 4.377-3.45 7.589.303 1.964 2.716 2.523 2.413 4.478-.376 2.404-2.872 2.679-5.175 3.45-3.184 1.083-5.377.551-8.626-.34-3.248-.899-5.313-1.652-7.589-4.138zm-3.45-19.316c-2.725-.661-1.129-4.45-2.991-6.561-1.872-2.129-3.459-3.092-6.203-3.79-.523-1.753-.826-2.744-1.386-4.487-.642-2.028-2.248-3.111-1.725-5.175.422-1.633 1.23-2.624 2.762-3.331 2.661-1.239 3.973 2.799 6.901 2.991 2.432.147 3.689-.982 6.093-1.386 1.872-.312 3-1.055 4.836-.578 2.267.606 3.781 1.789 4.478 4.03.863 2.771-1.276 4.405-2.753 6.901-1.413 2.386-3.074 3.138-4.487 5.515-1.202 2.028-1.743 3.276-2.413 5.524-1.092.541-1.927.633-3.111.349zm-34.03 4.138c-2.863-.725-4.496-1.679-6.552-3.799-1.349-1.395-1.991-2.358-2.762-4.138l-6.212-.688c-1.487-1.248-2.175-2.285-2.753-4.139-1.184-3.781 1.147-6.221 3.102-9.663 1.22-2.147 1.587-3.955 3.799-5.056 1.927-.973 3.377-.046 5.515-.349 1.909-.275 2.982-.505 4.827-1.037l2.413 2.991c2.551-.881 4.304-.936 6.901-.229 2.248.615 3.909 1.037 5.175 2.991.697 1.074.358 2.028 1.037 3.102 1.202 1.89 4.138.973 4.827 3.111.725 2.23-.945 3.68-2.413 5.515-1.964 2.45-4.04 2.845-6.901 4.138-2.202 1.01-3.872.688-5.864 2.074-2.12 1.477-3.166 2.78-4.138 5.175zm1.376-31.97c-1.67-.679-2.523-1.734-3.102-3.45-.853-2.542 2.055-3.872 2.074-6.552.009-1.927-1.734-3.037-1.037-4.836.826-2.129 2.964-2.175 5.175-2.753 2.468-.661 4.212-1.037 6.552 0 1.826.808 1.826 3.12 3.799 3.45 1.844.303 2.634-2.02 4.478-1.725 1.624.257 2.634.991 3.45 2.413 1.404 2.432-1.184 4.23-2.065 6.901-.633 1.89-.817 3.047-1.725 4.827-1.22 2.395-1.459 5.662-4.138 5.515-1.909-.101-2.111-2.202-3.799-3.102-1.615-.853-2.661-1.211-4.487-1.376-2.028-.193-3.285 1.45-5.175.688zm-26.446 4.138c-1.982-1.193-1.698-3.322-3.45-4.827-1.817-1.578-3.771-1.101-5.515-2.762-1.872-1.789-3.203-3.276-3.111-5.864.128-3.147 2.542-4.478 5.175-6.212 1.817-1.193 3.037-1.679 5.175-2.065 2.294-.046 3.597.037 5.864.34 2 .275 3.12.505 5.065 1.037h6.901c1.34 1.863 1.854 3.23 2.065 5.524.22 2.303-.468 3.606-1.037 5.864-.44 1.771-.239 3.047-1.376 4.478-1.532 1.945-3.515 1.643-5.864 2.413-3.744 1.239-6.506 4.102-9.892 2.074zm-24.14 3.68c1.899-1.973 4.249-.661 6.901-1.376 2.322-.633 3.459-1.789 5.864-1.955 2.312-.165 4.04-.404 5.864 1.028 1.716 1.358 2.441 2.881 2.413 5.065 1.89.431 3.01 1.184 4.138 2.762 1.955 2.735.697 5.423-.349 8.616-.936 2.881-1.505 5.065-4.138 6.561-1.67.945-2.918.762-4.827 1.028-2.533.367-3.992.45-6.552.349-.853-1.698-1.753-2.597-3.45-3.45-2.404-1.202-4.496-1.202-6.901 0 .147-2.817.147-4.423 0-7.24-.138-2.707-1.165-4.239-.688-6.901.33-1.844.422-3.138 1.725-4.487zm77.15-9.195c2.927.055 4.588.211 7.479.688 3.285.541 5.084 3.01 8.277 2.065 1.863-.551 3.175-1.074 4.138-2.753.936-1.643-.037-2.982.349-4.836.34-1.661.165-2.946 1.376-4.138.945-.927 2.634-.147 3.102-1.376.615-1.597-1.844-1.945-3.102-3.111-1.542-1.422-2.413-2.239-4.139-3.45-1.037-.725-1.652-1.101-2.762-1.725-2.835-.046-4.469.101-7.24.697-3.166.67-6.533-.211-7.818 2.753-.808 1.863.165 3.166.34 5.175.211 2.432.863 3.781.688 6.212-.101 1.496-.257 2.349-.688 3.799zm37.485 0c-2.12-.532-3.643.101-5.515-1.037-2.523-1.542-3.322-3.643-3.799-6.561-.367-2.267-.174-3.726.697-5.864 1.064-2.652 2.34-4.102 4.827-5.515 1.477-.844 2.45-1.165 4.138-1.376 1.092 1.22 1.918 1.808 3.45 2.413 3.147 1.248 6.03-3.221 8.626-1.037 1.285 1.083 1.734 2.138 2.065 3.79.376 1.872.284 3.203-.688 4.836-.881 1.477-2.661 1.22-3.45 2.753-.982 1.918 1.184 3.533.349 5.524-.973 2.303-2.689 3.56-5.175 3.79-2.111-.798-3.331-1.175-5.524-1.716zm-14.14 6.552c1.899-2.02 4.129-1.844 6.901-1.725 2.845.119 4.056 2.634 6.901 2.413 1.698-.138 2.496-.918 4.138-1.376 1.064-.303 1.652-.798 2.762-.697 2.56.239 4.441 2.918 3.79 5.405-.642 1.716-.954 2.707-1.376 4.487-.789 3.294.422 5.57-1.037 8.626-.954 1.991-1.404 3.652-3.45 4.487-2.147.872-3.542-1.01-5.864-1.037-2.037-.018-3.276 1.422-5.175.688-1.597-.615-2-1.789-3.102-3.102-2.826-3.359-4.515-5.662-5.175-10-.486-3.166-1.505-5.845.688-8.167zm27.593 5.405c.945-2.367 2.964-2.698 5.065-4.138 2.166-1.496 3.303-3.946 5.864-3.34 1.734.413 1.826 2.257 3.45 2.991 1.487.679 2.643.018 4.138.688 1.826.826 1.982 2.615 3.799 3.45 1.725.798 3.368-.532 4.827.688 1.78 1.496 1.734 3.652 1.037 5.873-.908 2.845-4.157 2.312-6.212 4.478-2.294 2.413-3.349 4.12-4.487 7.249l-3.102-1.037c-.908-1.89-1.753-2.9-3.45-4.138-1.854-1.358-3.661-.716-5.515-2.074-1.211-.881-1.679-1.633-2.652-2.753-1.321-1.532-2.67-2.175-3.102-4.148-.321-1.45-.202-2.413.34-3.79zm12.654-13.691c-2.221.67-4 .358-5.864-1.028-2.01-1.505-2.257-3.386-2.643-5.864-.431-2.689-.789-4.79.918-6.901 1.927-2.395 4.625-1.275 7.589-2.074 2.551-.679 3.992-1.064 6.552-1.725l3.45 3.111c2.028-1.587 4.249-1.817 6.552-.697 2.083 1.019 3.03 2.56 3.45 4.836.615 3.248-2.285 4.643-3.79 7.589-1.587 3.111-1.193 6.07-4.138 7.928-1.661 1.055-2.872 1.487-4.836 1.386-1.863-.101-3.03-.541-4.478-1.725-1.688-1.367-2.432-2.689-2.762-4.836zm-25.758 47.5c-1.165-1.909-2.679-2.634-3.102-4.827-.789-4.111 2.267-6.836 5.864-8.974 3.037-1.799 5.524-2.184 8.965-1.376 1.725.303 2.735.385 4.487.34 1.991-.037 3.276-1.569 5.056-.688 1.028.505 1.569 1.046 2.074 2.074h5.175l2.065 5.864c-1.762 2.294-2.45 4.02-2.753 6.901-.202 1.872-.119 3 .34 4.827-1.854 1.046-2.854 1.743-4.487 3.102-1.606 1.349-2.45 2.193-3.79 3.799l-16.793-2.762c.009-1.633-.147-2.588-.688-4.138-.615-1.762-1.441-2.542-2.413-4.139zm1.376 39.559c-1.404-1.055-2.239-1.597-3.79-2.413-2.78-1.487-4.918-1.092-7.589-2.762-1.459-.918-2.799-1.165-3.45-2.762-.936-2.294 1.688-3.496 2.413-5.864.808-2.624-.156-4.625 1.376-6.901 1.459-2.166 3.285-2.45 5.524-3.79 1.441-.872 2.111-1.973 3.79-2.074 1.578-.092 2.257 1.064 3.799 1.376 2.111.431 3.414-.459 5.515 0 1.707.385 2.413 1.468 4.139 1.725 1.064.165 1.835-.541 2.762 0 1.514.89.413 2.735.349 4.487-.064 1.771-.688 2.716-.688 4.487 0 1.771.78 2.716.688 4.487-.092 1.661.101 2.918-1.037 4.138-.817.881-1.679.853-2.762 1.376-1.734.844-2.753 1.23-4.478 2.074-.817.395-1.248.67-2.074 1.028-1.679.734-2.689 1.037-4.487 1.386zm25.07-3.111c-1.184-1.899-1.863-2.964-3.102-4.827-1.441-2.175-2.276-3.386-3.799-5.515.899-2.845 1.422-4.441 2.413-7.249.532-1.487.835-2.322 1.386-3.79 1.927-1.312 3.074-1.982 5.175-2.991 1.955-.945 3.047-1.615 5.175-2.074 1.716-.367 2.854-1.01 4.478-.34 1.413.569 2.184 1.349 2.762 2.753 2.01-.239 3.221-.156 5.175.349 1.56.404 2.569.569 3.79 1.606 1.698 1.45 2.404 2.955 2.423 5.175-1.239 1.487-1.743 2.588-2.074 4.487-.367 2.138.752 3.349.688 5.524-.064 2.184.073 3.625-1.037 5.515-.532.908-.927 1.386-1.716 2.074l-21.739-.697zm20.01-29.21c-3.322-.615-1.808-5.157-4.148-7.589-2.377-2.478-4.267-3.588-7.589-4.478-.78-2.973-.11-5.432 2.074-7.589 2.092-2.065 4.359-1.532 7.24-2.074 2.395-.45 3.836-.147 6.212-.688 2.074-.468 3.056-1.89 5.175-1.725 2.79.22 3.193 3.285 5.864 4.138 2.689.863 4.873-1.542 7.24 0 1.863 1.202 2.358 2.707 2.991 4.827.551 1.808.808 3 .349 4.836-.844 3.386-4.047 3.68-6.781 5.864-2.872 2.276-3.964 5.065-7.598 5.515-5.515.688-5.515 0-11.03-1.037zm18.628-26.556c-2.505-1.074-3.955-1.606-6.561-2.413-1.991-.624-3.203-.697-5.175-1.386-3.404-1.184-7.341-.652-8.277-4.138-.808-3.02 1.643-4.689 3.45-7.24 1.854-2.615 3.221-3.946 5.864-5.754l2.074 2.991c3.872 1.202 6.313 1.45 10.351 1.037 2-.211 3.129-.44 5.056-1.037l3.799 7.589c-2.312 2.487-3.652 3.854-6.102 6.212-1.716 1.643-2.698 2.56-4.478 4.138zm-3.111-23.693c-1.56-.229-2.257-1.046-3.79-1.376-2.9-.624-4.762-.541-7.589.34.22-1.487.376-2.322.688-3.79.349-1.624 1.899-2.716 1.037-4.138-.697-1.129-1.808-1.624-3.111-1.386-.624-2.202-.532-3.744.349-5.864.918-2.193 1.945-3.551 4.138-4.478 2.891-1.23 5.625-.752 7.937 1.376 2.046-.844 3.313-1.156 5.515-1.376 2.367-.239 4.46-1.386 6.093.34 1.404 1.477.211 3.203.697 5.175.468 1.945.853 3.03 1.725 4.827-2.23.642-3.505 1.56-4.836 3.45-1.211 1.734-.202 3.606-1.606 5.175-1.936 2.166-4.377 2.147-7.249 1.725zm8.516 73.942c-1.991.064-3.166-.092-5.065-.688-2.533-.798-4.175-1.404-5.864-3.45-2.12-2.569-2.707-5.01-2.074-8.277.624-3.193 2.386-4.652 4.836-6.79 2.78-2.432 5.469-6.24 8.506-4.138 1.11.762 1.652 1.487 2.074 2.762l7.24.34 2.762 4.03-1.037 10-7.928 6.561-3.45-.349zm10.342-74.979c-1.808-1.844-2.597-3.322-3.102-5.864-.762-3.799.009-6.607 2.413-9.653 1.808-2.285 3.377-3.478 6.212-4.138 2.909-.688 4.974-.404 7.589 1.028 2.065-.652 3.349-.808 5.515-.688 2.808.165 4.946.055 6.901 2.074 1.432 1.468 1.991 2.78 2.074 4.827-1.918.633-3 1.441-4.138 3.102-1.257 1.835-.624 3.441-1.386 5.524-.551 1.523-.936 2.367-1.725 3.79-3.074.45-4.827.596-7.928.697-4.854.147-7.616-.009-12.425-.697zm4.487 6.102l7.589 1.376c1.716-1.578 2.955-2.294 5.175-2.991 2.569-.808 4.827-2.074 6.901-.34 2.34 1.955.853 4.891 0 7.818-.688 2.367-1.945 3.34-3.102 5.515-2.046 3.827-3.111 6.03-4.836 10.01l-4.138.688c-.697-1.973-1.817-3.102-3.79-3.799-1.523-.532-2.579.413-4.138 0-2.505-.652-4.542-1.633-5.175-4.138-.514-2.028 1.184-3.092 1.376-5.175.193-2.01-1.074-3.285-.349-5.175.835-2.138 2.248-3.331 4.487-3.79zm-7.589 25.868c1.679-2.569 4.551-1.624 7.589-2.065 1.734-.257 2.735-.33 4.487-.349l3.102 4.487c1.881 2.468 2.514 4.478 2.413 7.589-.055 1.789-.303 2.845-1.028 4.487l-8.626 4.827-7.249-2.762c.239-2.138.239-3.377 0-5.515-.211-1.918-.863-2.918-1.028-4.836-.202-2.276-.908-3.946.34-5.864zm10 28.17c.652-2.744 2.624-3.845 5.175-5.056 1.386-.661 2.423-.349 3.799-1.037.863-.431 1.331-.743 2.065-1.376l3.45 3.79 5.864.578-.34 4.827-1.386 2.423c.303 1.037.211 1.817-.34 2.753-1.101 1.872-3.597-.303-5.524.697-1.945 1-1.698 3.487-3.79 4.138-1.551.477-2.569.028-4.139-.349-1.707-.404-3.404-.138-4.148-1.725-.633-1.358.661-2.294.697-3.79.046-2.349-1.918-3.579-1.386-5.873zm13.801-12.994c-.771-2.331 1.074-3.753 1.037-6.203-.046-2.615-2.055-4.03-1.386-6.561.945-3.533 3.964-5.02 7.589-5.515 3.716-.514 5.24 3.12 8.974 3.45 3.349.294 5.396-2.643 8.506-1.386 1.771.725 3.303 1.257 3.799 3.111.606 2.267-2.349 2.946-3.111 5.175-1.175 3.432 2.257 6.46 0 9.314-1.844 2.34-4.148 2.551-7.13 2.753-2.028.147-3.138-.752-5.166-.688-2.065.064-3.129 1.156-5.175 1.037-3.551-.211-6.827-1.11-7.937-4.487zm11.727-22.08c-1.551-1.45-1.404-3.065-1.725-5.175-.385-2.523-.78-4.249.349-6.552 1.037-2.138 2.267-3.267 4.478-4.138 3.267-.624 5.212-.707 8.516-.349 2.468.275 4.304-.211 6.212 1.386 1.991 1.67 3.02 3.68 2.413 6.212-.67 2.799-4.395 2-5.864 4.478-1 1.688.092 3.542-1.386 4.836-1.789 1.56-3.716.11-6.093 0-2.698-.128-4.928 1.156-6.901-.697zm4.487 38.871c-1.487-.936-2.285-2.046-2.413-3.799-.193-2.542 1.964-3.716 4.138-5.056 2.294-1.422 4.111-1.789 6.781-1.376.486-2.156 1.496-3.469 3.45-4.487 1.45-.762 2.542-1.037 4.138-.688 2.716.578 4.469 2.744 4.487 5.515l3.102 2.413c-1.12 2.569-1.982 3.964-3.79 6.102-1.542 1.817-2.184 3.515-4.487 4.138-1.294.349-2.248.596-3.45 0-.844-.431-.927-1.202-1.725-1.725-2.02-1.34-3.799-.046-6.203-.349-1.587-.193-2.689.165-4.03-.688zm30.584-14.03l-9.653-2.413c-1.064-2.239-1.597-3.533-2.423-5.864-.789-2.248-2.028-3.505-1.716-5.864.303-2.34 1.376-3.57 3.102-5.175 1.762-1.643 3.147-2.34 5.515-2.762 1.349 1.698 2.679 2.468 4.836 2.762 2.358.321 4.047-.174 5.864-1.725l2.753 5.175c-2.202 1.505-3.303 2.78-4.478 5.175-1.156 2.34-.376 4.138-1.386 6.552-.716 1.725-1.266 2.661-2.413 4.138zm5.864 8.855c-1.643-.257-2.679-.716-3.79-1.955-1.487-1.652-2.175-3.45-1.386-5.524.89-2.303 3.092-3.542 5.524-3.102h6.552c1.312 2.202 2.441 5.093.349 6.552-3.799 2.652-4.056 4.524-7.249 4.03zm14.15-11.268c-1.753 2.551-3.799 1.725-7.937 0-2.111-.881 1.129-3.716.349-5.864-.762-2.055-3.313-2-3.799-4.138-.743-3.285 2.707-4.616 5.175-6.901 2.349-2.184 4.03-3.056 6.901-4.487 1.909-.954 3.03-1.413 5.056-2.065l3.111 1.376-.349 2.074 7.24 1.716c-2.689 4.093-4.368 6.313-7.589 10.01-2.973 3.414-4.781 5.249-8.158 8.277zm18.17-23.803l-3.799-4.139c-2.67.349-4.203.422-6.901.34-1.707-.046-3.322 1.01-4.368-.34-1.101-1.422 1.064-2.689 1.037-4.487-.027-1.955-1.211-2.872-1.386-4.827-.22-2.533-.376-4.331 1.037-6.442 1.523-2.267 3.469-2.707 6.093-3.45 2.468-.697 4.359-1.652 6.561-.349 1.569.936 1.101 3.02 2.753 3.799 1.468.688 2.56-.303 4.148 0 1.872.358 3.083.652 4.478 1.955 1.147 1.074 1.661 1.936 2.074 3.45l-6.901 8.277-4.827 6.212zm-35.42 1.037c-1.982.835-3.533.835-5.524 0-1.239-.523-1.927-1.01-2.753-2.074-1.211-1.542-.615-3.03-1.386-4.827-1.138-2.679-4.707-3.359-4.138-6.212.45-2.239 2.23-2.891 4.138-4.138 1.367-.881 2.367-.954 3.799-1.725 1.688-.899 2.23-2.459 4.138-2.643 2.257-.22 2.991 2.02 5.175 2.643 2.588.743 4.597-1.055 6.901.349 2.358 1.441 3.285 3.441 3.45 6.203.193 3.368-1.56 5.423-4.138 7.589-2.322 1.945-4.772 1.037-7.249 2.762-1.019.716-1.56 1.175-2.413 2.074zm-25.868-20.931c-3.45-.275-6.524 2.202-8.864-.349-1.835-2 .018-4.386-1.028-6.901-1.046-2.478-3.386-2.936-4.138-5.515-.606-2.065-.697-3.478 0-5.515.798-2.349 1.835-3.909 4.138-4.836 1.872-.752 3.157 0 5.175 0 1.973 0 3.102-.239 5.056 0 2.79.34 4.111 1.707 6.901 2.074 2.267.294 3.597.294 5.864 0l4.487 6.212-5.524 5.515c.303 2.459-.064 4.102-1.376 6.212-1.211 1.945-2.303 3.092-4.487 3.79-2.322.743-3.781-.496-6.203-.688zm18.967-7.937l1.725-9.653 4.487-.688 5.864-6.901c6.901 2.065 10 0 15.517.688 2.34.294 3.441 2.211 4.03 4.487.716 2.753-1.404 4.23-2.413 6.891-1.083 2.863-.523 5.442-2.991 7.249-2.193 1.606-4.285.266-6.901 1.037-2.542.743-3.946 1.367-6.203 2.753l-3.799-3.79-9.314-2.074zm35.42-6.552c1.918.872 2.982 1.404 4.827 2.413 2.065 1.129 3.726 1.257 5.175 3.111 1.074 1.376 1.505 2.404 1.725 4.138h10.69c1.275-2.542 2.12-3.918 3.799-6.212 1.129-1.542 1.707-2.487 3.102-3.79 1.771-1.67 4.423-1.147 5.175-3.45 1.184-3.625-4.845-3.533-8.277-5.175-1.578-.762-2.496-1.138-4.138-1.725l-2.762-3.45-5.515 2.413-7.937-1.725c-1.762 1.303-2.652 2.276-3.799 4.138-1.936 3.175-2.487 5.616-2.065 9.314zm39.32 6.901c-.33-2.569-.56-4.01-1.028-6.552-.578-3.12-1.927-4.781-1.725-7.937.184-2.973.046-5.432 2.413-7.24 2.221-1.698 4.359-.358 7.13-.697 3.515-.422 5.671-2.652 8.965-1.376 3.02 1.175 5 3.01 5.524 6.212.477 2.982-1.835 4.368-2.762 7.24-.771 2.395-.376 4.093-1.725 6.212-1.762 2.771-3.689 4.12-6.901 4.827l-9.892-.688zm-2.065 4.487c3.514-.266 6.488 1.955 7.24 5.405.541 2.45 0 4.377-1.725 6.203.128 3.551-2.065 6.423-5.515 7.249-3.817.908-7.635-1.376-8.626-5.175-1.945.661-3.634.33-5.175-1.037-2.386-2.111-2.211-6.267.349-8.167.67-2.211 1.569-3.478 3.45-4.827 1.615-1.165 2.826-1.734 4.827-1.725 2.175.009 3.597.578 5.175 2.074zm19.21 9.883c3.102.45 4.02-2.881 6.891-4.138 3.074-1.331 7.304.908 8.286-2.294.56-1.844.312-3.459-1.037-4.836-.927-.945-2-.642-3.102-1.376-1.266-.844-1.386-2.111-2.762-2.762-2.808-1.331-4.909.844-7.589 2.413-2.707 1.587-5.286 2.432-5.864 5.524-.376 1.982-.165 3.441 1.028 5.056 1.12 1.505 2.294 2.147 4.148 2.413zm-4.148 18.628c-1.147-1.422-2.083-2.101-3.79-2.753-1.973-.762-3.349-.844-5.405-.349-1.211-2.404-1.312-4.386-.349-6.901.945-2.459 2.45-3.496 4.717-4.827 2.505-1.468 4.359-2.037 7.249-1.725 1.982.22 3.441.284 4.827 1.725.752.78 1.083 1.367 1.376 2.413m25.528-24.03c-3.248.578-5.074.964-8.277 1.725-2.569.615-4.02.991-6.552 1.725l-.349-4.487c-1.844-1.01-2.909-1.542-4.827-2.413-1.597-.725-2.505-1.101-4.138-1.725l-.697-4.487c1.725-1.055 2.652-1.743 4.148-3.102 2.551-2.312 3.817-3.9 5.515-6.901l6.212 2.413 5.515-.688 2.762 1.725 3.79-.34.697 2.753c-1.826 1.936-2.652 3.34-3.45 5.864-.936 2.955.34 4.487-.349 7.937z" fill="none"/></g><path d="m635.66 206.69c-1.67-1.918-3.514-2.652-6.05-2.423-3.441.312-5.341 2.78-6.46 6.05-1.606 4.735.697 9.626 5.249 11.7 4.102 1.863 8.06.716 11.296-2.423 2.753-2.661 3.239-5.442 3.221-9.277-.018-4.23-.798-7.341-4.03-10.08-4.322-3.661-9.149-2.184-14.526-.404-6.864 2.276-9.03 7.084-13.306 12.911-4.083 5.561-5.643 9.277-8.07 15.728-4.258 11.333-4.304 18.564-4.845 30.658-.569 12.764.349 20.07 2.423 32.677 2.349 14.306 4.597 22.317 9.681 35.898 3.01 8.05 4.074 13.04 8.873 20.17 3.918 5.818 5.185 12.149 12.1 13.306 4.469.752 8.782.964 11.287-2.817 2.175-3.285 1.67-6.745-.404-10.08-2-3.239-4.671-5.093-8.47-4.845-3.092.202-5.919 1.074-6.855 4.04-1.064 3.368 1.349 7.13 4.836 7.662 2.863.44 3.946-2.211 6.46-3.634-5.891 4.772-9.653 3.964-11.296-2.413-5.588-9.874-8.204-15.838-11.7-26.63-3.9-12.06-5.111-19.252-6.451-31.86-1.083-10.176-1.624-16.02-.808-26.23.844-10.544 1.468-16.738 5.24-26.62 3.221-8.415 5.799-13.02 11.296-20.17-.606-13.186 3.166-16.811 11.296-10.883" fill="#da121a" fill-rule="evenodd"/><path d="m635.66 206.69c-1.67-1.918-3.514-2.652-6.05-2.423-3.441.312-5.341 2.78-6.46 6.05-1.606 4.735.697 9.626 5.249 11.7 4.102 1.863 8.06.716 11.296-2.423 2.753-2.661 3.239-5.442 3.221-9.277-.018-4.23-.798-7.341-4.03-10.08-4.322-3.661-9.149-2.184-14.526-.404-6.864 2.276-9.03 7.084-13.306 12.911-4.083 5.561-5.643 9.277-8.07 15.728-4.258 11.333-4.304 18.564-4.845 30.658-.569 12.764.349 20.07 2.423 32.677 2.349 14.306 4.597 22.317 9.681 35.898 3.01 8.05 4.074 13.04 8.873 20.17 3.918 5.818 5.185 12.149 12.1 13.306 4.469.752 8.782.964 11.287-2.817 2.175-3.285 1.67-6.745-.404-10.08-2-3.239-4.671-5.093-8.47-4.845-3.092.202-5.919 1.074-6.855 4.04-1.064 3.368 1.349 7.13 4.836 7.662 2.863.44 3.946-2.211 6.46-3.634m-11.296-2.413c-5.588-9.874-8.204-15.838-11.7-26.63-3.9-12.06-5.111-19.252-6.451-31.86-1.083-10.176-1.624-16.02-.808-26.23.844-10.544 1.468-16.738 5.24-26.62 3.221-8.415 5.799-13.02 11.296-20.17" fill="none" stroke="#231f20" stroke-linecap="round" stroke-width="3.661" stroke-miterlimit="3.864"/><path d="m12.865 206.69c1.679-1.918 3.524-2.652 6.06-2.423 3.432.312 5.341 2.78 6.451 6.05 1.606 4.735-.697 9.626-5.249 11.7-4.093 1.863-8.06.716-11.287-2.423-2.753-2.661-3.248-5.442-3.23-9.277.018-4.23.808-7.341 4.04-10.08 4.313-3.661 9.14-2.184 14.517-.404 6.864 2.276 9.03 7.084 13.315 12.911 4.074 5.561 5.643 9.277 8.07 15.728 4.249 11.333 4.304 18.564 4.836 30.658.569 12.764-.349 20.06-2.423 32.677-2.34 14.306-4.588 22.317-9.672 35.898-3.02 8.05-4.074 13.04-8.883 20.17-3.918 5.818-5.175 12.149-12.09 13.306-4.478.752-8.791.964-11.296-2.817-2.175-3.285-1.67-6.745.404-10.08 2-3.239 4.671-5.093 8.47-4.845 3.092.202 5.928 1.074 6.855 4.04 1.064 3.368-1.34 7.13-4.836 7.662-2.854.44-3.937-2.211-6.46-3.634 5.891 4.772 9.663 3.964 11.296-2.413 5.588-9.874 8.213-15.838 11.7-26.63 3.9-12.06 5.111-19.252 6.451-31.86 1.092-10.176 1.624-16.02.808-26.23-.844-10.544-1.459-16.738-5.24-26.62-3.221-8.415-5.799-13.02-11.296-20.17.606-13.186-3.157-16.811-11.296-10.883" fill="#da121a" fill-rule="evenodd"/><g fill="none" stroke="#231f20" stroke-width="3.661" stroke-miterlimit="3.864"><path d="m12.865 206.69c1.679-1.918 3.524-2.652 6.06-2.423 3.432.312 5.341 2.78 6.451 6.05 1.606 4.735-.697 9.626-5.249 11.7-4.093 1.863-8.06.716-11.287-2.423-2.753-2.661-3.248-5.442-3.23-9.277.018-4.23.808-7.341 4.04-10.08 4.313-3.661 9.14-2.184 14.517-.404 6.864 2.276 9.03 7.084 13.315 12.911 4.074 5.561 5.643 9.277 8.07 15.728 4.249 11.333 4.304 18.564 4.836 30.658.569 12.764-.349 20.06-2.423 32.677-2.34 14.306-4.588 22.317-9.672 35.898-3.02 8.05-4.074 13.04-8.883 20.17-3.918 5.818-5.175 12.149-12.09 13.306-4.478.752-8.791.964-11.296-2.817-2.175-3.285-1.67-6.745.404-10.08 2-3.239 4.671-5.093 8.47-4.845 3.092.202 5.928 1.074 6.855 4.04 1.064 3.368-1.34 7.13-4.836 7.662-2.854.44-3.937-2.211-6.46-3.634m11.296-2.413c5.588-9.874 8.213-15.838 11.7-26.63 3.9-12.06 5.111-19.252 6.451-31.86 1.092-10.176 1.624-16.02.808-26.23-.844-10.544-1.459-16.738-5.24-26.62-3.221-8.415-5.799-13.02-11.296-20.17" stroke-linecap="round"/><path d="m102.65 77.1c.404 6.772.073 10.718-1.441 17.316-2.34 10.195-6.102 15.278-11.562 24.21-6.891 11.268-12.07 16.884-21.289 26.345-7.598 7.791-12.562 11.489-20.949 18.417-8.121 6.726-13.379 9.672-21.307 16.618-4.79 4.194-8.295 5.928-11.902 11.177-2.312 3.377-3.386 5.515-4.698 9.387m531.09-125.99c1.477 10.901 3.294 17.1 7.947 27.07 5.139 11.01 9.452 16.719 17.701 25.638 9.874 10.7 17.545 14.581 29.593 22.739 7.03 4.753 11.791 6.277 18.426 11.562 6.699 5.331 10.112 8.892 15.526 15.526 2.872 3.505 4.845 5.322 6.864 9.369 2.597 5.203 3.459 8.644 3.615 14.453m-2.533 160.67c-7.06 10.06-10.268 16.499-14.09 28.18-2.725 8.341-3.9 13.269-4.698 22-.596 6.598-.073 10.36 0 16.976.119 9.855 1.587 15.444.725 25.26-1.285 14.673-4.111 22.876-9.754 36.485-5.598 13.517-9.901 20.839-18.756 32.484-5.974 7.864-9.837 11.966-16.976 18.784-6.506 6.212-11.92 7.901-17.701 14.792-3.395 4.04-4.928 6.644-7.589 11.195-2.533 4.35-3.817 6.919-5.772 11.562l-35.742-21.316c-7.03 12.727-12.351 19.463-23.1 29.26-7.451 6.79-12.02 10.452-20.949 15.15-14.416 7.58-24.464 7.24-40.43 10.47-17.839 3.615-28.446 2.569-46.21 6.506-10.544 2.331-17.11 2.312-26.73 7.222-5.432 2.771-8.286 4.799-13 8.672-4.772 3.909-7.277 6.414-11.177 11.195-4.258-6.745-7.57-10.222-14.09-14.81-7.121-5.02-12.269-6.093-20.592-8.672-12.379-3.827-19.958-3.652-32.842-5.056-14.443-1.569-22.84.083-37.19-2.166-11-1.725-17.784-1.633-27.804-6.506-5.588-2.707-8.488-4.818-13.37-8.662-8.121-6.423-11.516-11.443-18.04-19.49-6.616-8.167-10.06-13.05-15.526-22.03l-32.851 28.538c-3.478-5.432-5.643-8.387-9.754-13.361-4.57-5.533-7.58-8.286-12.636-13.37-5.487-5.506-9.03-8.158-14.453-13.728-6.05-6.212-9.617-9.626-14.783-16.591-6.956-9.369-10.406-15.196-14.81-26.01-4.395-10.782-4.836-17.563-7.589-28.878-6.075-24.978-6.139-38.26-13-64.63-1.597-6.157-4.588-8.828-7.561-14.453-3.212-6.07-5.414-9.286-8.314-15.508-2.689-5.79-5.377-8.837-6.139-15.168-.45-3.781-.367-6.02.367-9.754"/></g><g fill="#4d87ca"><path d="m127.29 82.914c-4.203 1.239-6.57 1.955-10.764 3.248-2.909.899-4.542 1.404-7.433 2.322-3.615 12.718-6.662 19.775-13.462 31.11-7.901 13.168-14.352 19.389-25.17 30.27-9.589 9.663-16 14.04-26.464 22.757-5.754 4.79-9.01 7.488-14.856 12.159-4.35 3.478-6.827 5.423-11.232 8.828 2.432.275 3.808.587 6.121 1.386 2.679.936 4.148 1.67 6.506 3.258 6.616-4.762 10.296-7.515 16.71-12.544 15.306-11.975 24.721-18.13 37.705-32.594 12.7-14.15 18.527-23.445 27.859-40.02 6.405-11.379 9.617-18.07 14.48-30.18"/><path d="m266.31 80.5c-1.074-8.488-.514-13.746 2.322-21.821 4.056-11.58 9.938-17.03 19.591-24.611 8.286-6.515 13.939-9.497 24.14-12.159 8.295-2.175 13.452-3.285 21.913-1.863 8.396 1.413 12.783 4.258 19.968 8.818 8.03 5.111 11.635 9.378 18.1 16.343 3.239 3.487 5.414 5.24 7.892 9.286 4.863 7.956 6.322 13.92 5.671 23.22l-8.451-1.854c-1.826-5.809-3.175-9.02-6.04-14.398-4.689-8.782-8.24-13.425-15.324-20.426-6.735-6.662-10.654-11.08-19.5-14.489-4.377-1.679-7.01-2.689-11.7-2.78-7.451-.147-11.452 2.771-18.1 6.13-10.232 5.157-15.453 9.745-22.757 18.573-4.01 4.845-6.873 7.506-8.91 13.462-1.881 5.506-2.221 9.09-1.395 14.856l-7.424 3.716"/></g><path d="m104.81 82.86l-4.331-8.653c7.06.633 11.278.211 18.06-1.799 8.405-2.487 12.149-6.405 19.49-11.204 11.25-7.35 15.746-14.09 27.09-21.307 10.672-6.79 16.756-11.158 28.869-14.792 11.681-3.496 18.976-5.23 31.06-3.606 8.956 1.202 14.205 2.689 22.01 7.222 6.91 4.01 10.534 7.121 15.535 13.342 6.579-6.699 10.69-10.167 18.417-15.508 11.04-7.625 17.545-12.838 30.685-15.535 8.415-1.725 13.517-2.01 22.01-.716 13.764 2.083 20.766 7.506 32.14 15.526 7.01 4.946 10.736 8.176 16.618 14.425 9.03-9.791 16.361-14.223 29.24-17.673 10.204-2.744 16.582-2.358 27.07-1.083 15.71 1.909 24.01 6.873 37.925 14.425 12.939 7.04 17.371 15.71 30.676 22.03 8.736 4.148 13.865 6.946 23.482 7.947 5.598.587 8.864.505 14.425-.358l-5.396 10.112c-7.424-.413-11.654-1.147-18.784-3.248-10.874-3.212-16.14-7.414-26.01-13-12.305-6.974-17.426-14.07-30.32-19.867-9.956-4.478-15.884-7.093-26.73-8.314-11.81-1.321-19.233-1.358-30.32 2.891-7.561 2.9-11.14 6.093-17.701 10.837-3.331 2.413-5.157 3.845-8.286 6.506-5.194-5.102-8.213-7.892-13.728-12.645-8.121-7.01-11.7-12.975-21.674-16.958-8.442-3.368-14.01-3.735-23.1-3.248-10.369.551-16.288 2.689-25.638 7.222-6.332 3.065-9.58 5.478-15.168 9.736-4.129 3.138-6.488 4.937-10.09 8.662-3.423 3.524-5.194 5.698-7.947 9.754-5.46-7.864-9.773-11.828-18.06-16.609-6.983-4.03-11.498-5.836-19.49-6.864-8.993-1.165-14.342.22-23.11 2.523-7.332 1.927-11.131 4.138-18.06 7.222-9.378 4.175-14.719 6.552-23.455 11.92-7.07 4.34-10.525 7.57-17.343 12.287-6.845 4.726-10.176 8.341-17.692 11.92-8.204 3.9-13.361 5.396-22.381 6.478z" fill="#da121a" stroke="#231f20" stroke-width="3.661" stroke-miterlimit="3.864"/><path d="m517.5 76.33c3.395 1.074 5.341 1.587 8.828 2.322 3.404.707 5.359 1.019 8.818 1.386 1.661 8.24 3.147 12.856 6.589 20.527 4.983 11.08 9.09 16.921 17.18 25.996 8.314 9.332 14.636 12.994 24.611 20.527 10.846 8.185 18.637 10.571 28.878 19.5 6.855 5.974 10.947 9.332 16.251 16.719 2.634 3.652 3.973 5.836 6.04 9.837-1.376-.468-2.257-.578-3.716-.468-1.707.138-2.725.477-4.175 1.395-.991-1.863-1.606-2.891-2.79-4.643-4.744-7.02-9.231-9.562-15.783-14.948-9.91-8.158-17.07-10.608-27.483-18.1-11.828-8.516-19.11-12.764-29.25-23.22-8.938-9.222-13.434-15.09-20.06-26.1-6.79-11.278-9.92-18.2-13.93-30.731" fill="#4d87ca"/></svg>