<?xml version="1.0" encoding="UTF-8" standalone="no"?>
<!-- Created with Inkscape (http://www.inkscape.org/) -->

<svg
   xmlns:dc="http://purl.org/dc/elements/1.1/"
   xmlns:cc="http://creativecommons.org/ns#"
   xmlns:rdf="http://www.w3.org/1999/02/22-rdf-syntax-ns#"
   xmlns:svg="http://www.w3.org/2000/svg"
   xmlns="http://www.w3.org/2000/svg"
   version="1.1"
   width="1794"
   height="2031.333"
   viewBox="-4.292 -3.625 1794 2031.333"
   id="Wappen_Landkreis_Lüchow-Dannenberg"
   xml:space="preserve"><metadata
   id="metadata18"><rdf:RDF><cc:Work
       rdf:about=""><dc:format>image/svg+xml</dc:format><dc:type
         rdf:resource="http://purl.org/dc/dcmitype/StillImage" /><dc:title></dc:title></cc:Work></rdf:RDF></metadata><defs
   id="defs16" />

<path
   d="m 1777.577,1170.005 c 5.994,417.45 -317.642,843.919 -892.9,843.919 -584.577,0 -872.28,-534.587 -874.268,-846.769 -1.842,-289.102 0,-1156.423 0,-1156.423 h 1767.168 c 0,0 -4.161,869.485 0,1159.273 z"
   id="Schild"
   style="fill:#da121a;stroke:#000000;stroke-width:27" />
<g
   id="Feld_links">
	<polygon
   points="1322.777,823.476 1156.785,1063.964 986.794,823.976 1157.285,584.988 "
   id="Raute"
   style="fill:#fcdd09;stroke:#000000;stroke-width:15" />
	<polygon
   points="1735.136,823.476 1569.145,1063.963 1399.154,823.976 1569.645,584.988 "
   id="Raute_1_"
   style="fill:#fcdd09;stroke:#000000;stroke-width:15" />
	<polygon
   points="1528.956,1105.959 1362.965,1346.446 1192.974,1106.459 1363.465,867.471 "
   id="Raute_2_"
   style="fill:#fcdd09;stroke:#000000;stroke-width:15" />
</g>
<g
   id="Feld_rechts_1_">
	<path
   d="m 906.76,2013.867 c 0,0 -199.456,10.673 -404.226,-87.951 C 409.263,1880.993 320.595,1810.577 226.673,1704.735 129.611,1595.356 75.729,1481.032 43.709,1368.375 32.734,1331.464 16.945,1270.525 10.67,1197.543 L 9.708,15.375 H 906.76 v 1998.492 z"
   id="Feld_rechts"
   style="fill:#ffffff;stroke:#000000;stroke-width:16.89410019" />
	<path
   d="m 904.962,2014.171 c 0,0 -199.456,10.673 -404.227,-87.951 C 407.464,1881.297 318.796,1810.881 224.874,1705.039 148.464,1618.933 74.84,1438.843 74.84,1438.843 c 23.166,5.727 42.557,-56.052 63.497,-67.497 29.301,-16.016 100.21,-14.427 130.493,-28.498 29.587,-13.749 72.604,-69.001 103.495,-79.496 10.651,-3.619 34.604,-4.305 44.998,0 10.533,4.363 30.266,21.021 32.248,32.248 5.79,32.794 -62.036,87.951 -56.247,120.744 3.595,20.366 44.873,42.873 59.497,57.497 14.812,14.812 43.436,45.436 58.247,60.247 9,8.999 25.608,28.647 35.998,35.998 11.707,8.282 43.465,36.456 51.748,24.749 8.729,-12.338 -32.061,-36.061 -42.748,-46.748 -7.312,-7.313 -25.605,-18.008 -30.249,-27.248 -5.787,-11.515 -1.41,-37.158 -6.499,-48.998 -7.91,-18.4 -49.609,-42.969 -49.498,-62.997 0.137,-24.537 53.347,-53.352 61.497,-76.496 4.11,-11.672 -8.75,-40.747 0,-49.497 6.099,-6.099 26.124,-1.061 34.499,1 8.632,2.124 22.867,13.375 31.499,15.499 9.831,2.419 36.017,4.448 45.498,8 32.604,12.213 70.435,65.101 99.995,83.495 14.841,9.235 48.988,18.936 64.497,26.999 18.091,9.406 48.732,45.766 68.997,43.497 6.324,-0.708 21.816,-12.908 17.998,-17.999 h 12.462 v 570.525 l -1.8,0.304 z"
   id="Boden"
   style="stroke:#000000;stroke-width:10" />
	<path
   d="m 386.148,1168.956 c -6.196,18.277 -54.878,18.738 -72.32,26.999 -32.999,15.629 -57.098,66.653 -81.746,81.746 -24.373,14.924 -83.889,21.144 -108.745,35.248 -20.81,11.81 -64.516,39.003 -71.027,62.027 l 22.53,63.967 c 23.166,5.727 42.557,-56.052 63.497,-67.497 29.301,-16.016 100.21,-14.427 130.493,-28.498 29.587,-13.749 72.604,-69.001 103.495,-79.496 10.651,-3.619 34.604,-4.305 44.998,0 10.533,4.363 30.266,21.021 32.248,32.248 5.79,32.794 -62.036,87.951 -56.247,120.744 3.595,20.366 44.873,42.873 59.497,57.497 14.812,14.812 43.436,45.436 58.247,60.247 9,8.999 25.608,28.647 35.998,35.998 11.707,8.282 43.465,36.456 51.748,24.749 8.729,-12.338 -32.061,-36.061 -42.748,-46.748 -7.312,-7.313 -25.605,-18.008 -30.249,-27.248 -5.787,-11.515 -1.41,-37.158 -6.499,-48.998 -7.91,-18.4 -49.609,-42.969 -49.498,-62.997 0.137,-24.537 53.347,-53.352 61.497,-76.496 4.11,-11.672 -8.75,-40.747 0,-49.497 6.099,-6.099 26.124,-1.061 34.499,1 8.632,2.124 22.867,13.375 31.499,15.499 9.831,2.419 36.017,4.448 45.498,8 32.604,12.213 70.435,65.101 99.995,83.495 14.841,9.235 48.988,18.936 64.497,26.999 18.091,9.406 48.732,45.766 68.997,43.497 6.324,-0.708 21.817,-12.908 17.999,-17.999 -35.998,-47.997 -113.723,-89.165 -147.992,-127.067 -15.545,-17.193 -42.129,-67.284 -60.497,-81.422 -35.341,-27.2 -116.827,-47.33 -163.992,-59.997 -12.956,-3.479 -4,-196.435 -4,-196.435 l -61.109,-20.146 -70.56,28.396 c -0.003,0 9.047,155.49 -0.003,182.185 z"
   id="Stamm"
   style="fill:#da121a;stroke:#000000;stroke-width:10" />
	<polygon
   points="598.708,352.375 556.708,352.375 664.708,522.375 614.708,522.375 726.708,698.375 682.708,698.375 786.708,862.375 742.708,862.375 854.708,1026.375 704.708,970.375 746.708,1032.375 594.708,974.375 638.708,1018.375 456.708,958.375 386.148,986.771 292.708,1024.375 292.708,972.375 164.708,1020.375 190.708,972.375 66.708,1006.375 168.708,854.375 100.708,854.375 216.708,684.375 172.708,684.375 286.708,514.375 224.708,524.375 344.708,348.375 300.708,348.375 456.708,120.375 "
   id="Tanne"
   style="fill:#078930;stroke:#000000;stroke-width:10" />
</g>
</svg>