<?xml version="1.0" encoding="UTF-8" standalone="no"?>
<!-- Created with Inkscape (http://www.inkscape.org/) -->
<svg
   xmlns:dc="http://purl.org/dc/elements/1.1/"
   xmlns:cc="http://web.resource.org/cc/"
   xmlns:rdf="http://www.w3.org/1999/02/22-rdf-syntax-ns#"
   xmlns:svg="http://www.w3.org/2000/svg"
   xmlns="http://www.w3.org/2000/svg"
   xmlns:inkscape="http://www.inkscape.org/namespaces/inkscape"
   id="svg2211"
   inkscape:version="0.44"
   width="140"
   height="167"
   version="1.0">
  <metadata
     id="metadata2216">
    <rdf:RDF>
      <cc:Work
         rdf:about="">
        <dc:format>image/svg+xml</dc:format>
        <dc:type
           rdf:resource="http://purl.org/dc/dcmitype/StillImage" />
        <dc:title>Wappen Malschwitz (Sachsen)</dc:title>
        <dc:creator>
          <cc:Agent>
            <dc:title>Thiemo Mättig</dc:title>
          </cc:Agent>
        </dc:creator>
        <dc:rights>
          <cc:Agent>
            <dc:title />
          </cc:Agent>
        </dc:rights>
        <cc:license
           rdf:resource="http://web.resource.org/cc/PublicDomain" />
        <dc:date>2007-06-11</dc:date>
      </cc:Work>
      <cc:License
         rdf:about="http://web.resource.org/cc/PublicDomain">
        <cc:permits
           rdf:resource="http://web.resource.org/cc/Reproduction" />
        <cc:permits
           rdf:resource="http://web.resource.org/cc/Distribution" />
        <cc:permits
           rdf:resource="http://web.resource.org/cc/DerivativeWorks" />
      </cc:License>
    </rdf:RDF>
  </metadata>
  <g
     inkscape:groupmode="layer"
     id="layer5"
     inkscape:label="Hintergrund"
     style="display:inline">
    <path
       id="rect2245"
       style="fill:#fff200;fill-opacity:1;fill-rule:nonzero;stroke:none;stroke-width:2;stroke-linecap:round;stroke-linejoin:miter;stroke-miterlimit:4;stroke-opacity:1"
       d="M1,104.64L1,1L139,1L139,104.64C139,138.51 108.09,166 70,166C31.91,166 1,138.51 1,104.64z" />
  </g>
  <g
     inkscape:groupmode="layer"
     id="layer3"
     inkscape:label="Wasser"
     style="display:inline">
    <path
       style="fill:#0072bc;fill-opacity:1;fill-rule:nonzero;stroke:black;stroke-width:0.5;stroke-linecap:butt;stroke-linejoin:miter;stroke-miterlimit:4;stroke-dasharray:none;stroke-opacity:1"
       d="M8.75,131.06L7.97,131.47C9.66,134.55 11.62,137.49 13.84,140.25C14.66,139.75 15.42,139.21 16.09,138.59C19.56,141.49 24.63,143.28 30.25,143.28C35.87,143.28 40.93,141.47 44.16,138.66C50.3,142.81 59.62,145.44 70,145.44C80.38,145.44 89.71,142.8 95.97,138.66C99.09,141.46 104.13,143.28 109.75,143.28C115.37,143.28 120.44,141.49 123.91,138.59C124.58,139.21 125.34,139.75 126.16,140.25C128.39,137.48 130.37,134.53 132.06,131.44L131.25,131.06C126.66,133.55 119.95,135.13 112.47,135.13C104.99,135.1301 98.27,133.55 93.81,131.16C88.03,135.46 79.49,138.16 70,138.16C60.51,138.16 51.98,135.46 46.25,131.13C41.75,133.55 35.01,135.13 27.53,135.13C20.05,135.1301 13.34,133.55 8.75,131.06z M16.13,141.75L15.47,142.22C18.23,145.38 21.36,148.28 24.75,150.91C25.38,150.48 25.99,150.01 26.53,149.5C29.42,151.86 33.63,153.34 38.34,153.34C43.06,153.34 47.31,151.86 49.94,149.53C54.64,153.03 61.9,155.22 70,155.22C78.1,155.22 85.35,153.05 90.19,149.56C92.68,151.88 96.94,153.34 101.66,153.34C106.37,153.34 110.58,151.86 113.47,149.5C114.01,150.01 114.62,150.48 115.25,150.91C118.63,148.29 121.75,145.4 124.5,142.25L123.88,141.75C120.49,144.7 115.55,146.59 110.03,146.59C104.52,146.59 99.56,144.73 96.31,141.78C89.92,146.22 80.49,149 70,149C59.51,149 50.1,146.22 43.75,141.78C40.46,144.73 35.48,146.59 29.97,146.59C24.45,146.59 19.51,144.7 16.13,141.75z M27.47,152.56L27.25,152.75C39.01,161.03 53.85,166 70,166C86.15,166 100.99,161.03 112.75,152.75L112.53,152.56C109.79,155.14 105.78,156.75 101.31,156.75C96.84,156.75 92.85,155.12 90.47,152.56C85.56,156.33 78.19,158.72 70,158.72C61.81,158.72 54.44,156.33 49.66,152.56C47.15,155.13 43.16,156.75 38.69,156.75C34.22,156.75 30.21,155.14 27.47,152.56z"
       id="path3143" />
  </g>
  <g
     inkscape:groupmode="layer"
     id="layer6"
     inkscape:label="Stamm"
     style="opacity:1;display:inline">
    <path
       style="opacity:1;fill:#70625b;fill-opacity:1;fill-rule:evenodd;stroke:black;stroke-width:0.89999998;stroke-linecap:butt;stroke-linejoin:miter;stroke-miterlimit:5;stroke-dasharray:none;stroke-opacity:1;display:inline"
       d="M55.94,68.32C55.72,73.97 50.43,82.15 55.61,85.1C58.83,88.85 55.22,90.15 54.38,92.82C52.12,95.87 43.62,98.37 37.93,100.65C31.42,95.71 29.75,100.89 26.18,102.11C27.63,103.45 34.17,98.37 35.13,101.88C34.56,101.31 24.56,107.32 23.61,110.72C24.87,109.91 29.62,107.41 33.08,106.07C32.58,105.94 28.75,110.38 28.98,112.74C31.44,110.31 37.29,107.71 40.06,103.67C37.82,106.92 36.65,109.8 37.26,112.51C39.59,105.38 40.53,109.15 46.66,102.67C42.84,107.22 41.73,108.82 40.5,114.3C46.84,102.47 46.33,112.5 55.61,102.22C51.84,109.78 44.71,110.34 39.27,126.61C42.14,126.87 41.52,122.35 48.74,116.44C44.5,122.02 42.88,125.07 43.64,127.84C44.41,129.55 47.55,118.34 49.04,127.13C54.35,129.32 43.82,121.73 54.38,114.08C56.04,116.42 51.85,125.27 55.61,121.02C56.48,114.08 63.11,110.28 64.9,103.56C63.31,110.87 67.85,111.9 67.36,115.31C71.19,111.96 64.83,111.15 71.47,102.18C73.97,109.99 80.56,101.55 82.35,115.98C83.66,113.83 84.72,113.27 84.36,106.7C92.46,119.95 86.41,114.59 95.11,126.05C95.78,123.26 91.53,112.29 91.53,112.29C94.52,117.37 101.15,123.3 104.84,126.95C107.32,124.86 100.88,121.61 101.84,118.81C102.77,116.11 97.35,116.03 93.32,105.69C101.44,106.39 103.36,115.28 104.28,112.51C102.78,109.07 106.13,110.22 101.93,105.91C114.99,110.34 116.02,116.4 117.26,115.2C116.17,112.11 121.04,111.4 113.12,106.14C116.7,106.92 120.39,106.14 120.39,106.14C121.66,101.27 118.8,107.61 104.81,101.86C100.62,100.14 97.45,102.3 84.14,96.18C81.88,95.72 83.17,84.85 84.56,83.14C86.48,80.77 84.59,64.51 84.59,64.51"
       id="path12670" />
  </g>
  <g
     inkscape:groupmode="layer"
     id="layer2"
     inkscape:label="Blätter"
     style="opacity:1;display:inline">
    <path
       style="opacity:1;fill:#22b24c;fill-opacity:1;fill-rule:evenodd;stroke:black;stroke-width:1.20000005;stroke-linecap:butt;stroke-linejoin:round;stroke-miterlimit:4;stroke-dasharray:none;stroke-opacity:1;display:inline"
       d="M69.47,9.61C67.67,9.61 66.09,10.54 65.13,11.96C64.64,11.67 64.08,11.49 63.47,11.49C62.42,11.49 61.47,12.01 60.88,12.77C60.23,11.91 59.31,11.33 58.25,11.33C56.93,11.33 55.78,12.2 55.16,13.46C54.57,13.21 53.93,13.08 53.25,13.08C50.63,13.08 48.5,15.09 48.5,17.58C48.5,18.5 48.79,19.37 49.28,20.08C47.55,20.2 46.06,21.15 45.28,22.52C44.81,22.26 44.28,22.08 43.69,22.08C41.89,22.08 40.44,23.52 40.44,25.27C40.44,25.56 40.49,25.82 40.57,26.08C40.22,25.97 39.88,25.9 39.5,25.9C37.56,25.9 35.94,27.45 35.72,29.46C35.34,29.31 34.94,29.24 34.5,29.24C32.63,29.24 31.1,30.74 31.1,32.61C31.1,33.77 31.68,34.81 32.57,35.43C31.2,35.87 30.17,37.06 29.91,38.55C27.42,39.09 25.57,41.28 25.57,43.93C25.57,44.42 25.63,44.91 25.75,45.36C24.54,45.75 23.66,46.87 23.66,48.21C23.66,49.55 24.54,50.69 25.75,51.08C24.4,51.96 23.5,53.45 23.5,55.18C23.5,55.85 23.63,56.5 23.88,57.08C22.42,57.82 21.29,59.14 20.78,60.74C18.34,60.88 16.38,62.74 16.38,65.05C16.38,67.45 18.49,69.43 21.07,69.43C21.74,69.43 22.37,69.29 22.94,69.05C22.89,69.32 22.88,69.61 22.88,69.9C22.88,70.88 23.22,71.78 23.78,72.49C23.71,72.77 23.66,73.06 23.66,73.36C23.66,75.2 25.17,76.71 27,76.71C28.47,76.71 29.69,75.75 30.13,74.43C31.03,75.97 32.63,77.02 34.5,77.02C34.99,77.02 35.46,76.93 35.91,76.8C35.87,77 35.85,77.18 35.85,77.4C35.85,79.19 37.33,80.65 39.16,80.65C40.99,80.65 42.5,79.19 42.5,77.4C42.5,76.62 42.22,75.92 41.75,75.36C44.41,74.63 46.61,72.82 47.82,70.4C48.36,70.87 49.07,71.15 49.85,71.15C50.19,71.15 50.54,71.1 50.85,70.99C51.34,73.44 53.48,75.27 56.03,75.27C56.79,75.27 57.51,75.12 58.16,74.83C58.88,76.41 60.33,77.49 62.03,77.49C64.44,77.49 66.38,75.34 66.38,72.68C66.38,72.19 66.31,71.71 66.19,71.27C67.68,71.12 68.87,70.08 69.16,68.68C70.34,70.83 72.58,72.27 75.16,72.27C76.29,72.27 77.35,71.98 78.28,71.49C78.26,71.74 78.25,72.01 78.25,72.27C78.25,76.11 81.31,79.24 85.07,79.24C86.77,79.24 88.31,78.58 89.5,77.52C89.98,79.05 91.47,80.18 93.22,80.18C93.71,80.18 94.17,80.09 94.6,79.93C95.34,81.84 97.13,83.18 99.22,83.18C101.97,83.18 104.22,80.84 104.22,77.96C104.22,77.48 104.12,77.02 104,76.58C104.9,75.9 105.47,74.82 105.47,73.61C105.47,73.37 105.46,73.13 105.41,72.9C106.22,73.21 107.09,73.36 108,73.36C112.02,73.36 115.28,70.03 115.28,65.93C115.28,62.43 112.91,59.5 109.72,58.71C110.13,58.18 110.38,57.54 110.38,56.83C110.38,56.26 110.22,55.74 109.94,55.27C111.01,55.01 111.82,54.07 111.82,52.96C111.82,51.65 110.7,50.58 109.35,50.58C109.29,50.58 109.24,50.61 109.19,50.61C110.03,49.46 110.53,48.04 110.53,46.49C110.53,43.17 108.26,40.38 105.22,39.68C104.9,37.15 103.57,34.95 101.66,33.55C101.97,33.05 102.16,32.46 102.16,31.83C102.16,30.37 101.18,29.12 99.82,28.65C99.89,28.19 99.94,27.72 99.94,27.24C99.94,23 96.68,19.58 92.66,19.58C91.92,19.58 91.21,19.71 90.53,19.93C89.94,18.55 88.7,17.51 87.16,17.18C87.34,16.76 87.44,16.26 87.44,15.77C87.44,13.94 86.03,12.46 84.28,12.46C83.22,12.46 82.3,13.02 81.72,13.86C80.89,13 79.71,12.46 78.41,12.46C76.9,12.46 75.56,13.2 74.72,14.33C74.37,11.67 72.15,9.61 69.47,9.61z"
       id="path3843" />
    <path
       id="path9184"
       style="fill:none;fill-rule:evenodd;stroke:black;stroke-width:1.5;stroke-linecap:round;stroke-linejoin:round;stroke-miterlimit:4;stroke-dasharray:none;stroke-opacity:1"
       d="M43.49,40.34C48.83,44.9 50.64,47.16 54.04,47.84M42.18,55.56C47.3,56.7 49.72,59.39 52.51,61.86M36.1,64.36L44.25,64.69M30.33,70.13C34.17,68.59 38.66,69.02 43.05,69.15M54.04,56.54L60.34,63.39M51.32,31.1C55.94,34.05 60.9,39.41 66.1,46.43M59.69,23.05L66,33.6M67.19,19.24C67.19,19.68 68.82,28.81 68.82,28.81M73.39,32.4L71.54,43.38M86.98,29.9C80.36,37.96 75.34,48.22 72.74,67.19C67.79,63.71 62.5,60.09 59.15,55.34M92.41,40.51C87.64,44.52 84.05,48.79 81.11,53.82M78.17,65.02C81.59,59.83 88.94,55.34 88.94,55.34M87.27,61.98C94.98,60.03 100.35,52.51 100.35,52.51M93.5,62.73C97.62,62.42 101.79,62.67 105.35,64.6M88.39,72.3L95.57,67.41M58.6,44.36L65.56,53.17M76.65,35.34C77.41,34.14 78.39,30.66 78.39,30.66M72.04,27.6L72.63,24.35M71.54,61.54C71.21,60.23 70.02,52.08 70.02,52.08" />
  </g>
  <g
     inkscape:groupmode="layer"
     id="layer4"
     inkscape:label="Rahmen"
     style="opacity:1;display:inline">
    <path
       d="M1,104.64L1,1L139,1L139,104.64C139,138.51 108.09,166 70,166C31.91,166 1,138.51 1,104.64z"
       style="fill:none;fill-opacity:1;fill-rule:nonzero;stroke:black;stroke-width:2;stroke-linecap:round;stroke-linejoin:miter;stroke-miterlimit:4;stroke-opacity:1"
       id="use9103" />
  </g>
</svg>