<?xml version="1.0" encoding="UTF-8" standalone="no"?>
<!-- Created with Inkscape (http://www.inkscape.org/) -->
<svg
   xmlns:dc="http://purl.org/dc/elements/1.1/"
   xmlns:cc="http://creativecommons.org/ns#"
   xmlns:rdf="http://www.w3.org/1999/02/22-rdf-syntax-ns#"
   xmlns:svg="http://www.w3.org/2000/svg"
   xmlns="http://www.w3.org/2000/svg"
   xmlns:sodipodi="http://sodipodi.sourceforge.net/DTD/sodipodi-0.dtd"
   xmlns:inkscape="http://www.inkscape.org/namespaces/inkscape"
   version="1.0"
   width="712.57672"
   height="798.83923"
   id="svg2"
   sodipodi:version="0.32"
   inkscape:version="0.46"
   sodipodi:docname="Wappen_Giengen_an_der_Brenz.svg"
   inkscape:output_extension="org.inkscape.output.svg.inkscape">
  <metadata
     id="metadata57">
    <rdf:RDF>
      <cc:Work
         rdf:about="">
        <dc:format>image/svg+xml</dc:format>
        <dc:type
           rdf:resource="http://purl.org/dc/dcmitype/StillImage" />
      </cc:Work>
    </rdf:RDF>
  </metadata>
  <sodipodi:namedview
     inkscape:window-height="823"
     inkscape:window-width="1424"
     inkscape:pageshadow="2"
     inkscape:pageopacity="0.0"
     guidetolerance="10.0"
     gridtolerance="10.0"
     objecttolerance="10.0"
     borderopacity="1.0"
     bordercolor="#666666"
     pagecolor="#ffffff"
     id="base"
     showgrid="false"
     inkscape:zoom="0.39337284"
     inkscape:cx="1548.365"
     inkscape:cy="473.2386"
     inkscape:window-x="0"
     inkscape:window-y="41"
     inkscape:current-layer="svg2"
     showguides="true"
     inkscape:guide-bbox="true" />
  <defs
     id="defs5">
    <inkscape:perspective
       sodipodi:type="inkscape:persp3d"
       inkscape:vp_x="0 : 366.15955 : 1"
       inkscape:vp_y="0 : 1000 : 0"
       inkscape:vp_z="658.06848 : 366.15955 : 1"
       inkscape:persp3d-origin="329.03424 : 244.10636 : 1"
       id="perspective59" />
    <clipPath
       id="clipPath4045">
      <path
         d="M 0.029999,841.95 L 595.29,841.95 L 595.29,0.03 L 0.029999,0.03 L 0.029999,841.95 z"
         id="path4047" />
    </clipPath>
    <clipPath
       id="clipPath4039">
      <path
         d="M -0.138,841.445 L 595.138,841.445 L 595.138,-0.445 L -0.138,-0.445 L -0.138,841.445 z"
         id="path4041" />
    </clipPath>
    <inkscape:perspective
       id="perspective2494"
       inkscape:persp3d-origin="372.04724 : 350.78739 : 1"
       inkscape:vp_z="744.09448 : 526.18109 : 1"
       inkscape:vp_y="0 : 1000 : 0"
       inkscape:vp_x="0 : 526.18109 : 1"
       sodipodi:type="inkscape:persp3d" />
    <inkscape:perspective
       id="perspective8672"
       inkscape:persp3d-origin="372.04724 : 350.78739 : 1"
       inkscape:vp_z="744.09448 : 526.18109 : 1"
       inkscape:vp_y="0 : 1000 : 0"
       inkscape:vp_x="0 : 526.18109 : 1"
       sodipodi:type="inkscape:persp3d" />
  </defs>
  <g
     id="g3277"
     transform="translate(-201.59654,-53.494697)">
    <path
       sodipodi:nodetypes="ccccc"
       style="fill:#ffffff;fill-opacity:1;stroke:none;stroke-width:11.81764889;stroke-linecap:butt;stroke-linejoin:miter;stroke-miterlimit:4;stroke-dasharray:none;stroke-opacity:1"
       id="path3271"
       d="M 209.37761,62.839178 L 209.37761,508.81475 C 209.37761,685.26884 366.27261,848.33124 559.70711,848.33124 L 557.6607,62.839178 L 209.37761,62.839178 z" />
    <path
       sodipodi:nodetypes="ccccc"
       style="fill:#d8201f;fill-opacity:1;stroke:none;stroke-width:11.81764889;stroke-linecap:butt;stroke-linejoin:miter;stroke-miterlimit:4;stroke-dasharray:none;stroke-opacity:1"
       id="path3275"
       d="M 557.61064,846.23478 C 751.17034,846.23478 908.04024,683.17238 908.04024,506.71829 L 908.04024,60.742716 L 561.85365,58.646247 C 564.64735,67.712201 558.8236,844.31805 557.61064,846.23478 z" />
  </g>
  <g
     id="g3281"
     transform="translate(-201.37234,-54.352607)">
    <path
       sodipodi:nodetypes="ccsccc"
       style="fill:none;fill-opacity:1;stroke:#000000;stroke-width:11.81764889;stroke-linecap:butt;stroke-linejoin:miter;stroke-miterlimit:4;stroke-dasharray:none;stroke-opacity:1"
       id="path245"
       d="M 207.28116,61.790939 L 207.28116,507.76651 C 207.28116,684.2206 364.17612,847.283 557.61063,847.283 C 751.17034,847.283 908.04024,684.2206 908.04024,507.76651 L 908.04024,61.790939 L 207.28116,61.790939 z" />
    <path
       id="path3273"
       d="M 559.75717,845.52841 L 559.75717,59.352607"
       style="fill:none;fill-rule:evenodd;stroke:#000000;stroke-width:10;stroke-linecap:butt;stroke-linejoin:miter;stroke-miterlimit:4;stroke-dasharray:none;stroke-opacity:1" />
  </g>
  <path
     style="fill:#d8201f;fill-opacity:1;fill-rule:evenodd;stroke:#1b1a1c;stroke-width:6;stroke-linecap:butt;stroke-linejoin:miter;stroke-miterlimit:4;stroke-dasharray:none;stroke-opacity:1"
     d="M 49.747964,112.26319 L 49.461064,473.87709 L 122.04586,474.23298 L 122.18376,266.78992 L 154.73846,266.85885 L 154.17566,547.09351 L 230.13666,547.16244 L 229.57396,266.36509 L 262.69136,266.78992 L 262.76036,477.33343 L 331.03906,477.75825 L 330.90126,112.33212 L 49.747964,112.26319 z"
     id="path3291"
     sodipodi:nodetypes="ccccccccccccc" />
  <rect
     style="opacity:1;fill:#d8201f;fill-opacity:1;fill-rule:nonzero;stroke:#1b1a1c;stroke-width:4.77998924;stroke-linecap:round;stroke-linejoin:miter;stroke-miterlimit:4;stroke-dasharray:none;stroke-opacity:1"
     id="rect3293"
     width="304.38428"
     height="21.95183"
     x="36.327297"
     y="94.941788" />
  <rect
     style="opacity:1;fill:#d8201f;fill-opacity:1;fill-rule:nonzero;stroke:#1b1a1c;stroke-width:6;stroke-linecap:round;stroke-linejoin:miter;stroke-miterlimit:4;stroke-dasharray:none;stroke-opacity:1"
     id="rect3295"
     width="72.61187"
     height="17.804157"
     x="49.484402"
     y="474.9913" />
  <rect
     style="opacity:1;fill:#d8201f;fill-opacity:1;fill-rule:nonzero;stroke:#1b1a1c;stroke-width:6.01298857;stroke-linecap:round;stroke-linejoin:miter;stroke-miterlimit:4;stroke-dasharray:none;stroke-opacity:1"
     id="rect3297"
     width="68.278084"
     height="17.943033"
     x="262.78641"
     y="477.74576" />
  <rect
     style="opacity:1;fill:#d8201f;fill-opacity:1;fill-rule:nonzero;stroke:#1b1a1c;stroke-width:5.98239183;stroke-linecap:round;stroke-linejoin:miter;stroke-miterlimit:4;stroke-dasharray:none;stroke-opacity:1"
     id="rect3299"
     width="75.963852"
     height="16.777514"
     x="154.18582"
     y="546.76953" />
  <path
     sodipodi:type="arc"
     style="opacity:1;fill:#d8201f;fill-opacity:1;fill-rule:nonzero;stroke:#1b1a1c;stroke-width:7;stroke-linecap:round;stroke-linejoin:miter;stroke-miterlimit:4;stroke-dasharray:none;stroke-opacity:1"
     id="path3301"
     sodipodi:cx="1645.219"
     sodipodi:cy="193.12968"
     sodipodi:rx="26.663212"
     sodipodi:ry="26.663212"
     d="M 1671.8822,193.12968 A 26.663212,26.663212 0 1 1 1618.5558,193.12968 A 26.663212,26.663212 0 1 1 1671.8822,193.12968 z"
     transform="matrix(0.9345211,0,0,0.9345211,-1465.7474,-112.83272)" />
  <path
     sodipodi:type="arc"
     style="opacity:1;fill:#d8201f;fill-opacity:1;fill-rule:nonzero;stroke:#1b1a1c;stroke-width:7;stroke-linecap:round;stroke-linejoin:miter;stroke-miterlimit:4;stroke-dasharray:none;stroke-opacity:1"
     id="path3303"
     sodipodi:cx="1645.219"
     sodipodi:cy="193.12968"
     sodipodi:rx="26.663212"
     sodipodi:ry="26.663212"
     d="M 1671.8822,193.12968 A 26.663212,26.663212 0 1 1 1618.5558,193.12968 A 26.663212,26.663212 0 1 1 1671.8822,193.12968 z"
     transform="matrix(0.9345211,0,0,0.9345211,-1345.2691,-111.84518)" />
  <path
     sodipodi:type="arc"
     style="opacity:1;fill:#d8201f;fill-opacity:1;fill-rule:nonzero;stroke:#1b1a1c;stroke-width:7;stroke-linecap:round;stroke-linejoin:miter;stroke-miterlimit:4;stroke-dasharray:none;stroke-opacity:1"
     id="path3305"
     sodipodi:cx="1645.219"
     sodipodi:cy="193.12968"
     sodipodi:rx="26.663212"
     sodipodi:ry="26.663212"
     d="M 1671.8822,193.12968 A 26.663212,26.663212 0 1 1 1618.5558,193.12968 A 26.663212,26.663212 0 1 1 1671.8822,193.12968 z"
     transform="matrix(0.9345211,0,0,0.9345211,-1226.766,-110.85766)" />
  <path
     sodipodi:type="arc"
     style="opacity:1;fill:#ffffff;fill-opacity:1;fill-rule:nonzero;stroke:#1b1a1c;stroke-width:7;stroke-linecap:round;stroke-linejoin:miter;stroke-miterlimit:4;stroke-dasharray:none;stroke-opacity:1"
     id="path3307"
     sodipodi:cx="1536.0973"
     sodipodi:cy="237.07462"
     sodipodi:rx="5.4313951"
     sodipodi:ry="5.4313951"
     d="M 1541.5287,237.07462 A 5.4313951,5.4313951 0 1 1 1530.6659,237.07462 A 5.4313951,5.4313951 0 1 1 1541.5287,237.07462 z"
     transform="translate(-1465.8341,-168.9298)" />
  <path
     sodipodi:type="arc"
     style="opacity:1;fill:#ffffff;fill-opacity:1;fill-rule:nonzero;stroke:#1b1a1c;stroke-width:7;stroke-linecap:round;stroke-linejoin:miter;stroke-miterlimit:4;stroke-dasharray:none;stroke-opacity:1"
     id="path3311"
     sodipodi:cx="1536.0973"
     sodipodi:cy="237.07462"
     sodipodi:rx="5.4313951"
     sodipodi:ry="5.4313951"
     d="M 1541.5287,237.07462 A 5.4313951,5.4313951 0 1 1 1530.6659,237.07462 A 5.4313951,5.4313951 0 1 1 1541.5287,237.07462 z"
     transform="translate(-1344.8621,-168.43603)" />
  <path
     sodipodi:type="arc"
     style="opacity:1;fill:#ffffff;fill-opacity:1;fill-rule:nonzero;stroke:#1b1a1c;stroke-width:7;stroke-linecap:round;stroke-linejoin:miter;stroke-miterlimit:4;stroke-dasharray:none;stroke-opacity:1"
     id="path3313"
     sodipodi:cx="1536.0973"
     sodipodi:cy="237.07462"
     sodipodi:rx="5.4313951"
     sodipodi:ry="5.4313951"
     d="M 1541.5287,237.07462 A 5.4313951,5.4313951 0 1 1 1530.6659,237.07462 A 5.4313951,5.4313951 0 1 1 1541.5287,237.07462 z"
     transform="translate(-1225.3714,-167.44851)" />
  <path
     style="fill:#d8201f;fill-opacity:1;fill-rule:evenodd;stroke:#1b1a1c;stroke-width:3;stroke-linecap:butt;stroke-linejoin:miter;stroke-miterlimit:4;stroke-dasharray:none;stroke-opacity:1"
     d="M 117.40496,495.47587 L 116.95196,608.08146 C 118.30286,615.60797 122.84456,613.92604 123.47426,608.07263 L 123.64316,495.59387 L 117.40496,495.47587 z"
     id="path3317"
     sodipodi:nodetypes="ccccc" />
  <path
     style="fill:#d8201f;fill-opacity:1;fill-rule:evenodd;stroke:#1b1a1c;stroke-width:2.5;stroke-linecap:butt;stroke-linejoin:miter;stroke-miterlimit:4;stroke-dasharray:none;stroke-opacity:1"
     d="M 109.80266,495.51164 L 109.34466,598.07593 C 110.71066,604.94638 115.30316,603.41106 115.93996,598.06787 L 116.11066,495.52915 L 109.80266,495.51164 z"
     id="path3319"
     sodipodi:nodetypes="ccccc" />
  <path
     style="fill:#d8201f;fill-opacity:1;fill-rule:evenodd;stroke:#1b1a1c;stroke-width:2.5;stroke-linecap:butt;stroke-linejoin:miter;stroke-miterlimit:4;stroke-dasharray:none;stroke-opacity:1"
     d="M 101.95816,495.42462 L 101.49526,589.30026 C 102.87556,595.5852 107.51606,594.18072 108.15956,589.29289 L 108.33206,495.55871 L 101.95816,495.42462 z"
     id="path3321"
     sodipodi:nodetypes="ccccc" />
  <path
     style="fill:#d8201f;fill-opacity:1;fill-rule:evenodd;stroke:#1b1a1c;stroke-width:2.5;stroke-linecap:butt;stroke-linejoin:miter;stroke-miterlimit:4;stroke-dasharray:none;stroke-opacity:1"
     d="M 93.774664,495.77615 L 93.306364,579.66077 C 94.702964,585.31365 99.398564,584.05042 100.04956,579.65414 L 100.31866,495.72955 L 93.774664,495.77615 z"
     id="path3323"
     sodipodi:nodetypes="ccccc" />
  <path
     style="fill:#d8201f;fill-opacity:1;fill-rule:evenodd;stroke:#1b1a1c;stroke-width:2.5;stroke-linecap:butt;stroke-linejoin:miter;stroke-miterlimit:4;stroke-dasharray:none;stroke-opacity:1"
     d="M 85.656764,495.65151 L 85.182064,569.0604 C 86.597564,574.03482 91.356664,572.9232 92.016464,569.05457 L 92.193464,495.52733 L 85.656764,495.65151 z"
     id="path3325"
     sodipodi:nodetypes="ccccc" />
  <path
     style="fill:#d8201f;fill-opacity:1;fill-rule:evenodd;stroke:#1b1a1c;stroke-width:3;stroke-linecap:butt;stroke-linejoin:miter;stroke-miterlimit:4;stroke-dasharray:none;stroke-opacity:1"
     d="M 47.972564,495.61572 L 47.956864,535.13418 C 49.403264,539.10836 54.575364,538.12478 54.689564,535.13106 L 54.876464,495.54924 L 47.972564,495.61572 z"
     id="path3327"
     sodipodi:nodetypes="ccccc" />
  <path
     style="fill:#d8201f;fill-opacity:1;fill-rule:evenodd;stroke:#1b1a1c;stroke-width:2.5;stroke-linecap:butt;stroke-linejoin:miter;stroke-miterlimit:4;stroke-dasharray:none;stroke-opacity:1"
     d="M 55.410564,495.61615 L 54.915764,542.39755 C 56.391264,545.55009 61.352064,544.8456 62.039864,542.39385 L 62.224364,495.63196 L 55.410564,495.61615 z"
     id="path3329"
     sodipodi:nodetypes="ccccc" />
  <path
     style="fill:#d8201f;fill-opacity:1;fill-rule:evenodd;stroke:#1b1a1c;stroke-width:2.5;stroke-linecap:butt;stroke-linejoin:miter;stroke-miterlimit:4;stroke-dasharray:none;stroke-opacity:1"
     d="M 63.286364,495.60726 L 62.799364,552.08464 C 64.251564,555.89058 69.133464,555.04008 69.810364,552.08018 L 69.991964,495.60676 L 63.286364,495.60726 z"
     id="path3331"
     sodipodi:nodetypes="ccccc" />
  <path
     style="fill:#d8201f;fill-opacity:1;fill-rule:evenodd;stroke:#1b1a1c;stroke-width:2.5;stroke-linecap:butt;stroke-linejoin:miter;stroke-miterlimit:4;stroke-dasharray:none;stroke-opacity:1"
     d="M 71.213764,495.60395 L 70.731264,557.97357 C 72.170264,562.17658 77.008164,561.23735 77.678964,557.96864 L 77.858864,495.59354 L 71.213764,495.60395 z"
     id="path3333"
     sodipodi:nodetypes="ccccc" />
  <path
     style="fill:#d8201f;fill-opacity:1;fill-rule:evenodd;stroke:#1b1a1c;stroke-width:2.5;stroke-linecap:butt;stroke-linejoin:miter;stroke-miterlimit:4;stroke-dasharray:none;stroke-opacity:1"
     d="M 78.393564,495.53627 L 77.914964,563.45462 C 79.342264,568.03155 84.140964,567.00876 84.806364,563.44925 L 84.984764,495.51652 L 78.393564,495.53627 z"
     id="path3335"
     sodipodi:nodetypes="ccccc" />
  <path
     style="fill:#d8201f;fill-opacity:1;fill-rule:evenodd;stroke:#1b1a1c;stroke-width:2.5;stroke-linecap:butt;stroke-linejoin:miter;stroke-miterlimit:4;stroke-dasharray:none;stroke-opacity:1"
     d="M 47.032564,495.46427 L 124.56766,495.57173"
     id="path3337"
     sodipodi:nodetypes="cc" />
  <path
     style="fill:#d8201f;fill-opacity:1;fill-rule:evenodd;stroke:#1b1a1c;stroke-width:3.1403861;stroke-linecap:butt;stroke-linejoin:miter;stroke-miterlimit:4;stroke-dasharray:none;stroke-opacity:1"
     d="M 268.22996,497.62094 L 268.72686,610.09215 C 267.24486,617.60968 262.26216,615.92976 261.57136,610.08333 L 261.38606,497.7388 L 268.22996,497.62094 z"
     id="path3499"
     sodipodi:nodetypes="ccccc" />
  <path
     style="fill:#d8201f;fill-opacity:1;fill-rule:evenodd;stroke:#1b1a1c;stroke-width:2.6486218;stroke-linecap:butt;stroke-linejoin:miter;stroke-miterlimit:4;stroke-dasharray:none;stroke-opacity:1"
     d="M 277.02526,497.66083 L 277.54006,600.08287 C 276.00466,606.94379 270.84276,605.4106 270.12696,600.07482 L 269.93516,497.67832 L 277.02526,497.66083 z"
     id="path3501"
     sodipodi:nodetypes="ccccc" />
  <path
     style="fill:#d8201f;fill-opacity:1;fill-rule:evenodd;stroke:#1b1a1c;stroke-width:2.5;stroke-linecap:butt;stroke-linejoin:miter;stroke-miterlimit:4;stroke-dasharray:none;stroke-opacity:1"
     d="M 285.00086,497.4995 L 285.46376,591.37514 C 284.08346,597.66008 279.44296,596.2556 278.79946,591.36777 L 278.62696,497.63359 L 285.00086,497.4995 z"
     id="path3503"
     sodipodi:nodetypes="ccccc" />
  <path
     style="fill:#d8201f;fill-opacity:1;fill-rule:evenodd;stroke:#1b1a1c;stroke-width:2.5;stroke-linecap:butt;stroke-linejoin:miter;stroke-miterlimit:4;stroke-dasharray:none;stroke-opacity:1"
     d="M 293.18436,497.85103 L 293.65266,581.73565 C 292.25606,587.38853 287.56046,586.1253 286.90946,581.72902 L 286.64036,497.80443 L 293.18436,497.85103 z"
     id="path3505"
     sodipodi:nodetypes="ccccc" />
  <path
     style="fill:#d8201f;fill-opacity:1;fill-rule:evenodd;stroke:#1b1a1c;stroke-width:2.5;stroke-linecap:butt;stroke-linejoin:miter;stroke-miterlimit:4;stroke-dasharray:none;stroke-opacity:1"
     d="M 301.30226,497.72639 L 301.77696,571.13528 C 300.36146,576.1097 295.60236,574.99808 294.94256,571.12945 L 294.76556,497.60221 L 301.30226,497.72639 z"
     id="path3507"
     sodipodi:nodetypes="ccccc" />
  <path
     style="fill:#d8201f;fill-opacity:1;fill-rule:evenodd;stroke:#1b1a1c;stroke-width:2.5;stroke-linecap:butt;stroke-linejoin:miter;stroke-miterlimit:4;stroke-dasharray:none;stroke-opacity:1"
     d="M 315.74526,497.67883 L 316.22776,560.04845 C 314.78876,564.25146 309.95086,563.31223 309.28006,560.04352 L 309.10016,497.66842 L 315.74526,497.67883 z"
     id="path3515"
     sodipodi:nodetypes="ccccc" />
  <path
     style="fill:#d8201f;fill-opacity:1;fill-rule:evenodd;stroke:#1b1a1c;stroke-width:2.5;stroke-linecap:butt;stroke-linejoin:miter;stroke-miterlimit:4;stroke-dasharray:none;stroke-opacity:1"
     d="M 308.56546,497.61115 L 309.04406,565.5295 C 307.61676,570.10643 302.81806,569.08364 302.15266,565.52413 L 301.97426,497.5914 L 308.56546,497.61115 z"
     id="path3517"
     sodipodi:nodetypes="ccccc" />
  <path
     style="fill:#d8201f;fill-opacity:1;fill-rule:evenodd;stroke:#1b1a1c;stroke-width:2.49427414;stroke-linecap:butt;stroke-linejoin:miter;stroke-miterlimit:4;stroke-dasharray:none;stroke-opacity:1"
     d="M 333.66436,497.53629 L 260.38846,497.64947"
     id="path3519"
     sodipodi:nodetypes="cc" />
  <path
     style="fill:#d8201f;fill-opacity:1;fill-rule:evenodd;stroke:#1b1a1c;stroke-width:4.32037544;stroke-linecap:butt;stroke-linejoin:miter;stroke-miterlimit:4;stroke-dasharray:none;stroke-opacity:1"
     d="M 153.50706,563.51303 L 153.49176,647.70704 C 154.89996,656.17403 159.93466,654.07851 160.04586,647.70039 L 160.22786,563.37141 L 153.50706,563.51303 z"
     id="path3521"
     sodipodi:nodetypes="ccccc" />
  <path
     style="fill:#d8201f;fill-opacity:1;fill-rule:evenodd;stroke:#1b1a1c;stroke-width:3.28200006;stroke-linecap:butt;stroke-linejoin:miter;stroke-miterlimit:4;stroke-dasharray:none;stroke-opacity:1"
     d="M 161.55036,562.74265 L 161.05036,657.55941 C 162.54106,663.94899 167.55276,662.52114 168.24766,657.55192 L 168.43416,562.74182 L 161.55036,562.74265 z"
     id="path3525"
     sodipodi:nodetypes="ccccc" />
  <path
     style="fill:#d8201f;fill-opacity:1;fill-rule:evenodd;stroke:#1b1a1c;stroke-width:3.28458428;stroke-linecap:butt;stroke-linejoin:miter;stroke-miterlimit:4;stroke-dasharray:none;stroke-opacity:1"
     d="M 169.89506,562.73739 L 169.39986,667.64042 C 170.87656,674.70971 175.84156,673.12996 176.52996,667.63213 L 177.13036,562.71988 L 169.89506,562.73739 z"
     id="path3527"
     sodipodi:nodetypes="ccccc" />
  <path
     style="fill:#d8201f;fill-opacity:1;fill-rule:evenodd;stroke:#1b1a1c;stroke-width:3.36639595;stroke-linecap:butt;stroke-linejoin:miter;stroke-miterlimit:4;stroke-dasharray:none;stroke-opacity:1"
     d="M 178.72146,562.38793 L 179.48296,683.74575 C 180.93126,691.9239 185.80096,690.09636 186.47616,683.73615 L 186.65716,562.35265 L 178.72146,562.38793 z"
     id="path3529"
     sodipodi:nodetypes="ccccc" />
  <path
     style="fill:#d8201f;fill-opacity:1;fill-rule:evenodd;stroke:#1b1a1c;stroke-width:4.42503214;stroke-linecap:butt;stroke-linejoin:miter;stroke-miterlimit:4;stroke-dasharray:none;stroke-opacity:1"
     d="M 230.91196,563.8741 L 230.92696,653.59046 C 229.54076,662.6128 222.92156,659.54848 222.81206,652.75201 L 222.63296,564.13886 L 230.91196,563.8741 z"
     id="path3531"
     sodipodi:nodetypes="ccccc" />
  <path
     style="fill:#d8201f;fill-opacity:1;fill-rule:evenodd;stroke:#1b1a1c;stroke-width:3.33241129;stroke-linecap:butt;stroke-linejoin:miter;stroke-miterlimit:4;stroke-dasharray:none;stroke-opacity:1"
     d="M 220.71596,563.88593 L 221.21246,662.30981 C 219.73196,668.94247 214.75466,667.46029 214.06446,662.30203 L 213.87926,563.88505 L 220.71596,563.88593 z"
     id="path3535"
     sodipodi:nodetypes="ccccc" />
  <path
     style="fill:#d8201f;fill-opacity:1;fill-rule:evenodd;stroke:#1b1a1c;stroke-width:3.28787875;stroke-linecap:butt;stroke-linejoin:miter;stroke-miterlimit:4;stroke-dasharray:none;stroke-opacity:1"
     d="M 211.30026,564.40285 L 211.79516,669.56379 C 210.31896,676.65045 205.35626,675.06682 204.66816,669.55548 L 204.48356,564.3853 L 211.30026,564.40285 z"
     id="path3537"
     sodipodi:nodetypes="ccccc" />
  <path
     style="fill:#d8201f;fill-opacity:1;fill-rule:evenodd;stroke:#1b1a1c;stroke-width:3.32534885;stroke-linecap:butt;stroke-linejoin:miter;stroke-miterlimit:4;stroke-dasharray:none;stroke-opacity:1"
     d="M 203.15596,564.84872 L 203.64436,682.59143 C 202.18766,690.52596 197.29016,688.75286 196.61106,682.58213 L 196.42896,564.81449 L 203.15596,564.84872 z"
     id="path3539"
     sodipodi:nodetypes="ccccc" />
  <path
     style="fill:#d8201f;fill-opacity:1;fill-rule:evenodd;stroke:#1b1a1c;stroke-width:3.16163564;stroke-linecap:butt;stroke-linejoin:miter;stroke-miterlimit:4;stroke-dasharray:none;stroke-opacity:1"
     d="M 189.71196,564.49206 L 189.27006,692.65454 C 190.58816,701.22086 195.02026,699.30657 195.63466,692.64449 L 195.79946,564.62636 L 189.71196,564.49206 z"
     id="path3541"
     sodipodi:nodetypes="ccccc" />
  <path
     style="fill:#d8201f;fill-opacity:1;fill-rule:evenodd;stroke:#1b1a1c;stroke-width:4.20486069;stroke-linecap:butt;stroke-linejoin:miter;stroke-miterlimit:4;stroke-dasharray:none;stroke-opacity:1"
     d="M 229.52616,564.16172 L 154.14076,564.47436"
     id="path3543"
     sodipodi:nodetypes="cc" />
  <path
     style="fill:#d8201f;fill-opacity:1;fill-rule:evenodd;stroke:#1b1a1c;stroke-width:3.13400435;stroke-linecap:butt;stroke-linejoin:miter;stroke-miterlimit:4;stroke-dasharray:none;stroke-opacity:1"
     d="M 332.57276,498.15241 L 332.58996,537.54541 C 331.00646,541.50697 325.34396,540.52652 325.21896,537.5423 L 325.01436,498.08614 L 332.57276,498.15241 z"
     id="path3509"
     sodipodi:nodetypes="ccccc" />
  <path
     style="fill:#d8201f;fill-opacity:1;fill-rule:evenodd;stroke:#1b1a1c;stroke-width:2.48364139;stroke-linecap:butt;stroke-linejoin:miter;stroke-miterlimit:4;stroke-dasharray:none;stroke-opacity:1"
     d="M 324.23216,497.67392 L 324.76036,549.06422 C 323.18516,552.52734 317.89006,551.75345 317.15586,549.06015 L 316.95886,497.67346 L 324.23216,497.67392 z"
     id="path3513"
     sodipodi:nodetypes="ccccc" />
  <g
     id="g3636"
     transform="translate(-1571.4245,-118.56595)">
    <path
       sodipodi:nodetypes="cccccccscsccccccccccscccccccccccccscscccsccccccccccccccc"
       id="path3289"
       d="M 2067.5495,533.3795 C 2042.5911,585.21028 2047.7975,631.38518 2053.492,677.46854 C 2055.7275,709.35041 2037.7036,733.63502 2025.3771,760.05615 C 2011.3196,782.13001 1992.8526,757.1116 1983.2047,798.71419 C 1995.4508,809.39269 2020.6692,806.01381 2029.9137,798.84123 L 2032.4058,782.89954 L 2045.441,777.75503 C 2064.2666,771.81229 2053.231,740.83941 2072.8489,723.01996 C 2100.3891,698.00452 2099.1755,679.81072 2102.4059,662.22853 C 2113.6999,673.55381 2136.0664,694.42324 2143.4615,708.29452 C 2149.9751,720.51235 2148.2047,737.41085 2144.0036,768.52149 C 2143.0399,782.5689 2103.7803,762.93131 2099.4661,803.69841 C 2109.0169,814.23039 2116.1367,813.60313 2130.294,814.65588 C 2143.1768,814.17548 2148.7525,807.84938 2151.8943,799.57616 C 2155.6875,795.10731 2162.4564,796.58983 2167.9962,795.61417 C 2178.4072,790.75386 2168.9808,766.05616 2169.4661,751.27024 C 2169.8296,712.51475 2196.3761,715.14586 2158.3483,680.5353 C 2151.1865,666.45803 2141.817,645.64628 2148.3799,615.96712 C 2167.3371,653.74367 2198.6577,659.59557 2223.3309,615.6798 C 2252.5552,522.73576 2159.2249,477.57469 2228.9249,422.67695 C 2187.184,410.49592 2176.3954,442.02107 2174.3984,458.94571 C 2168.5212,508.75439 2205.5225,539.939 2204.1192,581.72255 C 2203.0538,640.93619 2164.6933,615.06837 2163.3326,595.42231 C 2158.9833,563.95444 2176.0924,532.5145 2153.6515,515.80767 C 2156.4405,504.47069 2157.6677,493.91468 2148.8479,488.38208 C 2149.2701,479.09924 2152.7294,469.81639 2143.9703,460.53355 C 2153.7785,454.3963 2151.075,450.76137 2151.7546,446.44985 C 2137.5655,433.83973 2149.0966,421.22961 2144.8655,408.61949 C 2120.439,390.16352 2155.1989,398.89999 2125.8238,360.60089 C 2118.6983,342.04915 2140.4213,327.90699 2142.948,307.15046 C 2161.7498,314.04688 2185.3704,320.10237 2193.3318,303.60284 C 2209.4215,269.68784 2180.2441,245.65532 2150.1371,269.802 C 2146.6041,254.65409 2153.5567,241.00414 2137.8368,224.11524 C 2155.079,226.00046 2172.134,222.64755 2177.6774,218.6834 C 2170.9317,207.97167 2162.3503,210.76678 2154.2848,190.43865 C 2153.8272,189.28543 2137.6831,188.35756 2121.8951,189.29215 C 2117.8204,186.53885 2119.5581,182.30357 2116.0883,181.17477 C 2103.5986,177.11154 2083.3879,179.58384 2090.3929,196.0003 C 2080.4355,194.84206 2074.8877,192.94633 2064.9303,198.94002 C 2035.6121,225.3291 2030.1257,225.08692 2006.6227,228.04396 C 2001.011,236.05777 2008.0095,241.67761 2012.0963,247.53617 C 2016.7443,254.19904 2011.0516,263.89476 2021.8627,268.04482 C 2045.6214,285.50688 2047.5125,256.12738 2072.821,264.53045 C 2082.3324,298.76312 2057.9244,317.16676 2039.4345,338.33215 C 2006.1345,318.59391 2005.049,277.15074 1981.4475,257.50172 C 1963.0664,251.98295 1935.5516,261.99072 1942.7895,292.64539 C 1947.748,299.36368 1965.79,304.03083 1973.5235,294.65664 C 1994.9468,321.10928 2012.821,347.20703 2014.834,371.71864 C 1999.9035,375.30153 1982.0332,356.54779 1965.6328,366.44709 C 1947.7931,395.73348 1959.7977,428.69452 1949.5309,457.24597 C 1942.3457,479.03779 1954.6364,491.66449 1980.7458,497.78823 C 1996.6695,483.33063 1992.095,470.92284 1989.0509,458.36201 L 1979.8506,448.01245 C 1982.8921,432.33393 1977.3239,395.15184 1994.1197,411.26592 L 2019.0832,434.7837 C 2024.6559,471.88208 2077.8516,495.36972 2067.5495,533.3795 z"
       style="fill:#1b1a1c;fill-opacity:1;fill-rule:evenodd;stroke:#1b1a1c;stroke-width:3;stroke-linecap:butt;stroke-linejoin:miter;stroke-miterlimit:4;stroke-dasharray:none;stroke-opacity:1" />
    <path
       transform="matrix(1.0273973,0,0,1.0273973,-923.17973,-14.85341)"
       d="M 3034.6875,294.24976 A 22.536337,22.536337 0 1 1 2989.6148,294.24976 A 22.536337,22.536337 0 1 1 3034.6875,294.24976 z"
       sodipodi:ry="22.536337"
       sodipodi:rx="22.536337"
       sodipodi:cy="294.24976"
       sodipodi:cx="3012.1511"
       id="path3545"
       style="fill:#ffffff;fill-opacity:1;fill-rule:nonzero;stroke:none;stroke-width:6;stroke-linecap:round;stroke-linejoin:miter;stroke-miterlimit:4;stroke-dasharray:none;stroke-opacity:1"
       sodipodi:type="arc" />
    <path
       transform="translate(-836.95044,-0.6174339)"
       d="M 3019.2516,288.07541 A 10.805093,10.805093 0 1 1 2997.6414,288.07541 A 10.805093,10.805093 0 1 1 3019.2516,288.07541 z"
       sodipodi:ry="10.805093"
       sodipodi:rx="10.805093"
       sodipodi:cy="288.07541"
       sodipodi:cx="3008.4465"
       id="path3547"
       style="fill:#d8201f;fill-opacity:1;fill-rule:nonzero;stroke:#1b1a1c;stroke-width:6;stroke-linecap:round;stroke-linejoin:miter;stroke-miterlimit:4;stroke-dasharray:none;stroke-opacity:1"
       sodipodi:type="arc" />
    <path
       sodipodi:nodetypes="ccccccccccccccccccccc"
       id="path3549"
       d="M 2071.7353,546.61175 C 2068.5032,620.97079 2087.7331,623.85993 2097.5559,656.68054 C 2099.1673,700.42479 2083.0214,701.55153 2072.343,715.80033 C 2063.6203,724.68876 2056.21,737.95191 2051.4772,760.14017 C 2051.6882,770.54699 2046.2419,776.92503 2041.0443,777.52834 L 2027.1338,781.00598 L 2025.6566,798.91744 C 2020.5222,801.13094 2013.7539,804.44602 2007.3485,801.57531 C 2006.8063,795.13655 2010.7819,791.36341 2014.8312,788.1384 C 2010.7928,789.70068 2007.8679,791.93344 2005.1564,801.4568 C 2002.9773,801.47549 1996.9618,803.76564 1997.0527,797.70827 C 1997.8016,795.1456 1998.8514,789.93703 2003.1595,786.50723 C 1997.4294,788.45784 1997.1045,792.0449 1995.0131,797.70827 C 1991.8289,800.98354 1988.9007,799.66211 1986.5738,797.5765 C 1985.5208,795.94842 1986.3792,794.29404 1987.2759,792.34666 C 1990.0169,786.16395 1992.0398,779.44266 1999.3127,776.65894 L 2014.2313,772.33499 C 2021.6972,769.38173 2027.5611,764.29255 2031.0297,756.0096 L 2050.0001,718.96999 C 2058.577,693.11619 2058.1086,680.73409 2056.8013,659.20427 C 2053.9436,628.99351 2045.5556,590.15495 2071.7353,546.61175 z"
       style="fill:#ffffff;fill-rule:evenodd;stroke:#1b1a1c;stroke-width:3;stroke-linecap:butt;stroke-linejoin:miter;stroke-miterlimit:4;stroke-dasharray:none;stroke-opacity:1" />
    <path
       sodipodi:nodetypes="ccccccccccssscccccccccccccccccccccccccccccccccccsccccccccccccccccccccc"
       id="path3551"
       d="M 1987.141,466.28003 C 1981.7111,453.55654 1971.8387,458.60303 1964.0362,455.37018 C 1968.0934,452.8613 1972.1507,448.16002 1976.2079,448.04561 C 1978.8391,433.41817 1971.7182,410.16383 1984.6867,400.70508 C 1990.0899,398.09376 1998.8408,404.11711 2003.9827,410.16093 C 2016.3794,408.35251 2022.8846,416.36331 2031.6922,420.53668 C 2038.8668,412.54773 2046.0414,413.581 2053.216,413.2461 C 2046.2966,415.26581 2039.3772,417.02382 2032.4578,425.52548 C 2021.021,416.82096 2014.7169,415.22342 2008.6145,415.85433 C 2018.036,422.5198 2026.2751,430.23024 2029.0816,436.89571 C 2037.515,436.42984 2039.5467,434.26642 2044.1873,431.0941 C 2052.4237,425.46371 2053.2114,426.6179 2059.4469,428.22597 C 2061.6997,428.80693 2066.1569,431.77915 2066.6635,433.20822 C 2067.1823,434.67171 2063.7323,434.60396 2064.5329,436.1945 C 2057.1608,432.76748 2051.144,434.28885 2043.3364,437.24729 C 2039.2044,438.13905 2035.4224,440.39567 2031.1668,442.64381 C 2038.6937,474.64899 2061.1638,481.71363 2076.1899,527.42345 C 2082.2681,521.90887 2078.9341,509.33502 2080.1677,500.18697 C 2088.8501,527.76255 2077.0989,546.79012 2076.1899,570.94021 C 2075.02,606.37254 2088.6582,630.77306 2103.1416,651.85655 L 2144.7192,702.25908 C 2156.1001,715.24637 2150.9319,744.06181 2149.8068,767.76847 C 2147.341,782.72256 2138.0209,778.82734 2130.5934,780.13657 C 2118.88,782.1203 2108.3186,785.9482 2104.5111,797.15546 C 2106.3177,799.81435 2107.8409,803.88994 2110.9157,800.20738 C 2115.4463,792.11821 2119.9769,790.75038 2124.5075,790.56947 C 2118.5665,794.4818 2114.3354,797.73588 2115.0517,802.97967 L 2120.8403,805.46961 C 2121.9826,800.47387 2125.481,794.61871 2130.5934,794.91652 L 2124.9845,805.95719 C 2130.9986,810.84969 2137.0127,806.70286 2143.0268,805.48024 C 2143.076,796.73582 2152.2694,795.30663 2158.4145,791.43888 L 2169.7168,791.43888 L 2167.978,754.05431 C 2172.5797,709.74554 2182.5684,711.0505 2166.7836,694.62555 C 2157.0929,684.20365 2148.1217,669.04208 2146.2427,662.7664 C 2144.4788,643.58266 2139.3834,626.06472 2147.6123,601.88462 C 2155.8736,626.3821 2166.1434,640.19515 2182.8887,642.05457 C 2202.952,643.83655 2223.6784,614.04777 2222.9892,604.62367 C 2227.9018,580.6371 2224.7846,557.77954 2211.9253,527.90039 C 2202.2828,493.69161 2170.2353,459.99204 2214.926,424.54841 C 2173.4626,423.85782 2176.3153,463.38039 2181.0191,482.7988 C 2187.5664,519.54744 2213.8804,551.0027 2209.6632,584.04267 C 2206.4127,627.33064 2196.3511,622.69774 2186.6851,625.89075 C 2173.3967,628.66131 2164.5805,614.41873 2159.2839,593.2137 C 2158.4164,568.23547 2172.1253,536.88008 2152.3286,520.18337 C 2150.3339,508.60844 2153.2039,493.55869 2142.7651,488.01525 C 2146.4395,480.90686 2144.8328,471.686 2141.8957,461.93299 C 2141.2774,454.1847 2149.8286,448.2188 2139.0824,432.24891 C 2135.3277,426.66904 2149.9051,421.08618 2134.071,403.6826 C 2129.6995,387.53248 2141.7932,388.19388 2121.8993,361.08158 C 2116.4124,336.95903 2139.4862,326.7722 2138.4181,303.70061 L 2110.3353,303.70061 C 2101.9793,317.36959 2095.5009,330.91576 2092.3394,349.77927 C 2087.3772,334.40299 2101.0173,318.88941 2105.5113,302.33109 C 2098.3533,301.65798 2084.7891,297.1864 2074.9281,295.61428 C 2064.2124,321.57496 2030.7798,345.26631 2020.6554,371.12202 L 2029.8496,374.99212 C 2042.4138,351.22345 2051.9773,348.46838 2061.0407,345.95551 C 2048.3195,358.17478 2039.372,367.93914 2031.5884,387.03302 C 2012.1358,381.28057 1993.1832,363.55597 1973.7305,367.2751 C 1966.6282,367.98696 1962.7515,377.5466 1960.1893,384.55561 C 1957.8834,407.21925 1963.6596,428.7283 1952.8415,452.60797 C 1953.413,460.72245 1945.3145,472.83784 1956.5809,480.95232 C 1961.1713,485.72739 1964.8173,486.43165 1974.3615,489.01548 L 1974.9035,482.59792 L 1965.4057,474.10471 C 1971.9109,475.97302 1976.6501,476.07542 1981.9245,476.71294 C 1977.6215,474.13405 1971.9613,470.6504 1963.6669,465.41062 C 1971.4916,458.94674 1972.8148,469.48795 1987.141,466.28003 z"
       style="fill:#ffffff;fill-rule:evenodd;stroke:none;stroke-width:2;stroke-linecap:butt;stroke-linejoin:miter;stroke-miterlimit:4;stroke-dasharray:none;stroke-opacity:1" />
    <path
       sodipodi:nodetypes="ccccccccccccccc"
       id="path3553"
       d="M 2019.9452,364.91552 C 2023.4721,355.84743 2030.0113,344.62501 2036.8287,339.94433 C 2018.6692,326.14972 2003.5718,300.63147 1990.6186,273.2713 C 1990.1902,272.87589 1989.7277,266.84621 1979.4713,263.63366 C 1967.7552,262.5574 1956.8342,262.13174 1952.5196,267.11129 C 1948.5014,269.35488 1947.7062,273.21 1946.2787,276.74894 C 1945.8783,280.61014 1949.3711,281.78226 1950.7059,281.03361 C 1952.2852,277.14929 1955.5844,273.52861 1958.8616,272.07164 C 1957.5587,276.81724 1952.9358,280.89884 1954.9728,286.31243 C 1956.4441,287.83864 1957.9153,287.88403 1959.3866,286.67892 C 1960.4924,282.24967 1963.2955,280.06255 1965.7508,278.46052 C 1962.4789,282.31844 1962.6636,285.79221 1963.6669,289.65013 C 1972.5371,297.35941 1974.1886,279.89602 1982.196,277.98308 C 1986.5267,284.9597 1980.8015,292.13743 1980.0541,300.12968 C 2006.4621,325.95814 2009.3884,341.90248 2019.9452,364.91552 z"
       style="fill:#ffffff;fill-rule:evenodd;stroke:none;stroke-width:1px;stroke-linecap:butt;stroke-linejoin:miter;stroke-opacity:1" />
    <path
       sodipodi:nodetypes="cccc"
       id="path3555"
       d="M 2086.7073,269.31672 C 2094.8212,265.02481 2106.0997,261.5609 2111.8357,252.51315 L 2112.3358,272.17924 C 2101.2394,270.89375 2092.6196,271.57007 2086.7073,269.31672 z"
       style="fill:#ffffff;fill-rule:evenodd;stroke:#000000;stroke-width:2;stroke-linecap:butt;stroke-linejoin:miter;stroke-miterlimit:4;stroke-dasharray:none;stroke-opacity:1" />
    <path
       sodipodi:nodetypes="ccccccccccccccccccccc"
       id="path3557"
       d="M 2117.5734,271.73396 C 2126.4305,273.71672 2135.1618,273.83496 2143.5539,272.38072 C 2145.071,232.12666 2140.086,233.64533 2123.2946,207.07536 C 2119.3518,207.3634 2115.4091,208.0633 2111.4664,211.54328 C 2113.3455,207.86186 2114.4279,204.0211 2120.1605,201.11038 L 2118.0782,196.15687 L 2108.5953,201.55566 C 2102.0351,198.0533 2091.8134,198.21249 2081.2788,198.6845 C 2067.5646,196.47139 2050.0874,215.58604 2039.6701,222.8456 C 2031.9067,231.37398 2007.5194,224.76381 2008.7553,237.62554 C 2012.5823,244.1404 2025.6092,241.49433 2030.6114,238.49495 C 2025.565,241.94102 2016.9686,243.25709 2015.63,248.92786 C 2015.9994,254.79411 2018.8202,261.29614 2023.7367,260.69459 C 2043.1242,244.56588 2052.3688,248.72308 2063.8552,248.39649 C 2067.0645,248.73642 2067.5193,252.11591 2064.423,252.75028 C 2050.1432,253.69817 2038.9195,253.0358 2033.5737,260.71548 C 2031.658,265.90271 2037.6539,265.50454 2039.1169,265.23317 C 2045.2583,263.74707 2048.9871,262.47915 2050.0615,261.80644 C 2069.0984,254.99572 2077.5143,269.47294 2090.0344,262.73664 C 2102.7661,258.47391 2109.7838,249.33821 2114.6005,241.66936 C 2117.0468,256.02137 2116.9156,261.91311 2117.5734,271.73396 z"
       style="fill:#ffffff;fill-rule:evenodd;stroke:#000000;stroke-width:1px;stroke-linecap:butt;stroke-linejoin:miter;stroke-opacity:1" />
    <path
       sodipodi:nodetypes="csccccc"
       id="path3559"
       d="M 2105.987,219.55031 C 2100.5867,217.53052 2094.5484,219.99157 2089.4301,217.45973 C 2087.8417,216.67402 2085.2918,213.37633 2082.7759,211.54328 C 2078.6901,209.20305 2074.2147,208.03166 2068.5219,210.51269 C 2063.2769,214.37495 2063.0401,222.79427 2067.1266,227.19264 C 2074.0819,233.93636 2080.7339,230.6105 2087.6892,226.40382 C 2093.7884,220.88329 2099.8877,221.46328 2105.987,219.55031 z"
       style="fill:#1b1a1c;fill-opacity:1;fill-rule:evenodd;stroke:#1b1a1c;stroke-width:1px;stroke-linecap:butt;stroke-linejoin:miter;stroke-opacity:1" />
    <path
       sodipodi:nodetypes="ccccc"
       id="path3561"
       d="M 2097.5559,193.2857 L 2114.4584,193.2857 C 2115.6662,190.47661 2116.4439,187.77504 2114.4584,185.76425 C 2109.7234,184.59131 2102.9502,182.69289 2097.435,185.42073 C 2094.0909,187.73915 2097.9501,190.96728 2097.5559,193.2857 z"
       style="fill:#ffffff;fill-rule:evenodd;stroke:#000000;stroke-width:1px;stroke-linecap:butt;stroke-linejoin:miter;stroke-opacity:1" />
    <path
       sodipodi:nodetypes="ccccc"
       id="path3563"
       d="M 2123.9625,193.46805 C 2131.762,202.69203 2133.2927,214.84924 2141.0263,221.10678 C 2151.1945,221.71148 2162.8177,220.43554 2169.7974,217.85179 C 2153.415,205.78182 2159.6184,198.97485 2150.3672,194.98423 C 2142.9539,191.33072 2132.1779,191.50641 2123.9625,193.46805 z"
       style="fill:#ffffff;fill-rule:evenodd;stroke:#000000;stroke-width:2;stroke-linecap:butt;stroke-linejoin:miter;stroke-miterlimit:4;stroke-dasharray:none;stroke-opacity:1" />
    <path
       sodipodi:nodetypes="cccccc"
       id="path3567"
       d="M 2080.0995,663.3033 L 2086.1009,659.30239 C 2084.4787,670.45335 2085.3365,678.29751 2086.0693,686.30857 C 2074.5501,694.56448 2069.1372,706.91891 2059.8823,718.19371 C 2066.9018,706.92281 2069.6492,694.90266 2080.2806,686.52128 L 2080.0995,663.3033 z"
       style="fill:#1b1a1c;fill-opacity:1;fill-rule:evenodd;stroke:none;stroke-width:1px;stroke-linecap:butt;stroke-linejoin:miter;stroke-opacity:1" />
    <path
       sodipodi:nodetypes="ccccc"
       id="path3569"
       d="M 2147.1149,685.30834 C 2153.8434,694.39297 2160.572,704.97955 2167.3005,710.31406 C 2163.2377,725.15305 2162.5118,734.98676 2160.1178,747.32252 C 2160.3094,735.04672 2159.5602,730.29736 2160.6926,710.49511 C 2154.4926,704.88974 2150.9887,694.79069 2147.1149,685.30834 z"
       style="fill:#1b1a1c;fill-opacity:1;fill-rule:evenodd;stroke:none;stroke-width:1px;stroke-linecap:butt;stroke-linejoin:miter;stroke-opacity:1" />
    <path
       sodipodi:nodetypes="ccccccc"
       id="path3571"
       d="M 2094.1027,569.2818 L 2100.5568,567.10029 C 2100.8462,582.50258 2103.7827,597.45755 2108.106,605.29003 C 2115.8274,600.11757 2118.1018,585.14042 2122.1092,573.28271 C 2125.7221,590.9764 2117.2025,597.6299 2113.5008,609.472 C 2110.0615,620.69382 2120.1024,627.29823 2123.1094,635.2969 C 2103.5633,623.16905 2100.687,594.3714 2094.1027,569.2818 z"
       style="fill:#1b1a1c;fill-opacity:1;fill-rule:evenodd;stroke:none;stroke-width:1px;stroke-linecap:butt;stroke-linejoin:miter;stroke-opacity:1" />
    <path
       sodipodi:nodetypes="cccc"
       id="path3573"
       d="M 2110.2286,369.35822 C 2108.9149,366.27608 2110.4121,363.19393 2112.2879,360.11179 C 2136.8455,410.42349 2126.5254,462.06562 2144.1142,532.27333 C 2117.9705,473.85524 2136.1802,432.86138 2110.2286,369.35822 z"
       style="fill:#1b1a1c;fill-opacity:1;fill-rule:evenodd;stroke:none;stroke-width:1px;stroke-linecap:butt;stroke-linejoin:miter;stroke-opacity:1" />
    <path
       sodipodi:nodetypes="cc"
       id="path3575"
       d="M 2051.0929,456.25594 C 2059.2042,440.76778 2067.7094,425.28378 2098.1037,423.14178"
       style="fill:none;fill-rule:evenodd;stroke:#1b1a1c;stroke-width:5;stroke-linecap:round;stroke-linejoin:miter;stroke-miterlimit:4;stroke-dasharray:none;stroke-opacity:1" />
    <path
       sodipodi:nodetypes="cc"
       id="path3577"
       d="M 2062.0954,469.25891 C 2071.7087,457.2006 2082.1732,445.99348 2101.1043,443.25297"
       style="fill:none;fill-rule:evenodd;stroke:#1b1a1c;stroke-width:4.5;stroke-linecap:round;stroke-linejoin:miter;stroke-miterlimit:4;stroke-dasharray:none;stroke-opacity:1" />
    <path
       sodipodi:nodetypes="cc"
       id="path3579"
       d="M 2073.0979,482.26189 C 2081.4906,473.61102 2089.0282,463.79399 2104.105,464.25777"
       style="fill:none;fill-rule:evenodd;stroke:#1b1a1c;stroke-width:4.30000019;stroke-linecap:round;stroke-linejoin:miter;stroke-miterlimit:4;stroke-dasharray:none;stroke-opacity:1" />
    <path
       sodipodi:nodetypes="cc"
       id="path3581"
       d="M 2087.1011,493.26441 C 2091.8323,488.62434 2096.8821,484.54195 2104.105,484.26235"
       style="fill:none;fill-rule:evenodd;stroke:#1b1a1c;stroke-width:4;stroke-linecap:round;stroke-linejoin:miter;stroke-miterlimit:4;stroke-dasharray:none;stroke-opacity:1" />
    <path
       sodipodi:nodetypes="ccccc"
       id="path3585"
       d="M 2068.1279,215.35203 C 2070.9754,209.51119 2082.0902,217.07465 2084.3568,217.98129 C 2087.6249,219.08331 2086.0562,223.25783 2083.9034,224.14645 C 2078.1129,226.51994 2077.3973,229.4603 2068.9439,224.50911 C 2066.1813,221.45675 2066.7722,217.76974 2068.1279,215.35203 z"
       style="fill:#ffffff;fill-rule:evenodd;stroke:#1b1a1c;stroke-width:1px;stroke-linecap:butt;stroke-linejoin:miter;stroke-opacity:1" />
    <path
       transform="translate(-836.43463,-0.3626636)"
       d="M 2915.8502,220.79189 A 3.0372496,7.1624689 0 1 1 2909.7757,220.79189 A 3.0372496,7.1624689 0 1 1 2915.8502,220.79189 z"
       sodipodi:ry="7.1624689"
       sodipodi:rx="3.0372496"
       sodipodi:cy="220.79189"
       sodipodi:cx="2912.813"
       id="path3583"
       style="fill:#1b1a1c;fill-opacity:1;fill-rule:nonzero;stroke:#1b1a1c;stroke-width:2;stroke-linecap:round;stroke-linejoin:miter;stroke-miterlimit:4;stroke-dasharray:none;stroke-opacity:1"
       sodipodi:type="arc" />
  </g>
</svg>
