<svg xmlns="http://www.w3.org/2000/svg" viewBox="0 0 880.22 1068.08"><g transform="translate(99.87-.508)"><path d="m618.7 11.01c-23.516.053-45.856.198-63.63.478-71.1 1.122-140.84-.214-211.25 0-2.384.007-4.768.036-7.153.043-70.42.214-140.16 1.122-211.25 0-71.1-1.122-215.28 0-215.28 0 0 0 4.489 48.18 6.097 72.32 2.756 41.38 3.825 82.87 6.097 124.29 3.06 55.766 7.102 111.49 10.162 167.25 2.273 41.41 3.514 82.9 6.097 124.29 3.906 62.59 4.516 125.75 14.188 187.56 5.408 34.562 12.958 68.979 24.389 101.67 13.8 39.473 30.08 78.71 52.882 112.63 16.437 24.456 37.432 45.04 59.21 63.62 24.938 21.272 52.09 39.816 80.83 53.968 30.394 14.97 62.839 25.08 95.48 32.09 24.566 5.278 49.749 7.255 74.77 7.349 24.862.094 49.924-1.52 74.34-6.741 32.768-7.01 65.19-17.626 95.68-32.746 28.701-14.235 55.929-32.696 80.87-53.968 21.782-18.58 42.777-39.17 59.21-63.62 22.797-33.919 39.08-73.16 52.882-112.63 11.431-32.695 18.981-67.16 24.389-101.72 9.672-61.814 10.282-124.97 14.188-187.56 2.583-41.39 3.825-82.87 6.097-124.29 3.06-55.766 7.102-111.44 10.162-167.21 2.273-41.41 3.341-82.909 6.097-124.29 1.608-24.14 6.097-72.32 6.097-72.32 0 0-81.1-.636-151.65-.478" fill="#fff"/><path d="m478.37 19.406l2.719 4.719c5.062 6.142 10.24 12.963 15.344 20.406v133.97 184.03h-131.03c-7.461-5.092-14.313-10.2-20.469-15.25l-4.688-2.719v124.34l4.688-2.688c6.156-5.05 13.01-10.19 20.469-15.281h131.03v424.53 133.94c-5.104 7.443-10.281 14.327-15.344 20.469l-1.625 2.781c10.469-4.054 20.805-8.552 30.906-13.562 26.341-13.07 51.43-29.691 74.66-48.781v-94.84-424.53h130.97c7.461 5.092 14.313 10.231 20.469 15.281l4.719 2.688v-124.34l-4.719 2.719c-6.156 5.05-13.01 10.158-20.469 15.25h-130.97v-184.03-133.97c5.104-7.443 10.25-14.265 15.313-20.406l2.688-4.719h-124.66z" stroke="#000" stroke-linejoin="round" stroke-linecap="round" stroke-width="5"/><path d="m42.07 11.03c-56.53.054-109.96.491-109.96.491 0 0 4.254 47.34 5.78 71.07 2.614 40.667 3.654 81.44 5.809 122.15 2.902 54.808 6.731 109.6 9.633 164.41 2.155 40.703 3.33 81.47 5.78 122.15 3.704 61.52 4.283 123.59 13.456 184.34 5.129 33.968 12.277 67.776 23.12 99.91 13.09 38.795 28.527 77.38 50.15 110.72 15.59 24.04 35.508 44.24 56.17 62.5 23.653 20.907 49.42 39.13 76.68 53.04 28.828 14.713 59.59 24.649 90.55 31.542 22.16 4.933 44.849 6.923 67.43 7.187v-1029.01c-66.788.21-132.93 1.103-200.36 0-25.287-.414-60.31-.524-94.22-.491" fill="#da121a"/><path d="m174.69 39.75c-1.241.039-2.48.176-3.688.438-4.523.978-9.692 2.471-12.406 6.219-2.994 4.134-.468 10.341-2.25 15.12-1.507 4.046-3.172 8.77-6.906 10.938-3.01 1.747-7.03 1.197-10.438.5-2.793-.571-5.271-2.256-7.719-3.719-2.544-1.521-4.945-3.28-7.188-5.219-3.322-2.871-5.393-7.283-9.219-9.438-4.812-2.709-10.643-3.052-16.12-3.719-5.342-.65-10.837-1.071-16.16-.25-6.21.959-12.223 3.224-17.875 5.969-3.656 1.775-6.242 5.712-10.188 6.688-4.118 1.018-8.821.563-12.656-1.25-2.752-1.301-4.115-4.508-6.469-6.438-2.539-2.082-5.01-4.649-8.188-5.469-3.861-.996-8.184-.431-11.906 1-4.08 1.569-7.842 4.42-10.438 7.938-4.137 5.606-6.744 12.674-7.219 19.625-.185 2.706.567 5.497 1.75 7.938 1.821 3.758 4.842 6.884 7.938 9.688 2.434 2.204 6.394 2.719 8.188 5.469 1.837 2.816.474 6.827 1.75 9.938 1.491 3.633 4.639 6.356 6.719 9.688 1.256 2.01 3.407 3.816 3.438 6.188.023 1.777-1.561 3.191-2.469 4.719-1.678 2.823-4.144 5.201-5.438 8.219-3.709 8.658-.041 20.479-6.25 27.563-2.21 2.521-6.164 2.746-9.438 3.469-3.974.877-8.378-.589-12.12 1-4.159 1.763-7.794 5.127-10.219 8.938-3.657 5.747-5.366 12.821-5.688 19.625-.27 5.725 1.06 11.597 3.219 16.906 1.868 4.594 5.792 8.06 8.188 12.406 1.843 3.342 4.553 6.625 4.719 10.438.141 3.244-.813 6.976-3.219 9.156-2.842 2.576-7.365 2.17-11.156 2.75-3.854.589-8.521-1.525-11.688.75-3.196 2.297-3.862 7.05-4.469 10.938-.486 3.118-.059 6.387.75 9.438 1.197 4.51 3.377 8.776 5.969 12.656 1.367 2.047 2.969 3.992 4.938 5.469 3.169 2.377 6.923 3.952 10.688 5.188 4.397 1.443 9.04 2.811 13.656 2.531 5.02-.304 10.23-1.7 14.406-4.5 4.103-2.751 5.627-8.263 9.438-11.406 2.4-1.981 5.203-3.731 8.219-4.5 3.209-.818 6.655-.44 9.938 0 3.742.501 7.371 1.673 10.906 3 5.858 2.199 11.214 5.588 16.906 8.188 3.441 1.571 7.184 2.57 10.438 4.5 1.268.752 3.087 1.264 3.469 2.688.347 1.292-.484 2.88-1.5 3.75-.839.719-2.123.613-3.219.75-7.23.907-14.743-.995-21.875.5-2.979.625-5.468 2.798-8.438 3.469-2.992.676-6.155.931-9.188.469-3.755-.572-6.93-3.382-10.688-3.938-3.939-.583-8.323-1.017-11.906.719-2.902 1.406-4.215 4.912-6.469 7.219-2.619 2.681-5.086 5.63-8.219 7.688-2.789 1.832-5.968 2.981-9.156 3.969-3.303 1.023-7.04.629-10.219 2-3.649 1.576-7.228 3.791-9.656 6.938-4.659 6.04-8.02 13.751-8.188 21.375-.175 7.852 2.765 16.03 7.438 22.344 2.72 3.674 6.98 6.181 11.188 7.969 3.721 1.581 7.873 2.526 11.906 2.25 2.351-.161 4.627-1.107 6.688-2.25 2.725-1.512 4.446-4.61 7.25-5.969 2.133-1.034 4.54-1.645 6.906-1.5 2.274.139 4.513 1.082 6.469 2.25 2.414 1.442 4.055 3.923 6.219 5.719 6.919 5.742 14 11.31 21.594 16.12 8.789 5.573 17.46 12.156 27.563 14.656 3.389.839 6.852 1.637 10.313 2.438-1.375 1.942-2.41 4.162-3.094 6.375-.793 2.569-.52 5.425 0 8.06 1.07 5.434 3.277 10.742 6.313 15.375 4.01 6.117 9.232 11.565 15.25 15.719v150.59c-.771.008-1.51.084-2.281.281-3.982 1.016-6.507 5.089-9.344 8.06-3.098 3.247-6.278 6.594-8.313 10.594-1.543 3.035-2.262 6.479-2.781 9.844-.41 2.658-.555 5.39-.25 8.06.335 2.936 1.262 5.789 2.281 8.563 1.412 3.845 3.125 7.611 5.281 11.09 3.591 5.802 7.3 11.82 12.594 16.12.913.743 1.842 1.542 2.813 2.313v263.12c22.995 20.03 47.944 37.527 74.28 50.969 5.131 2.619 10.319 5.08 15.563 7.406v-4.469-317.03c.971-.771 1.931-1.57 2.844-2.313 5.294-4.305 9-10.323 12.594-16.12 2.156-3.483 3.869-7.249 5.281-11.09 1.019-2.774 1.946-5.627 2.281-8.563.305-2.673.16-5.404-.25-8.06-.519-3.365-1.238-6.809-2.781-9.844-2.034-4-5.215-7.347-8.313-10.594-2.837-2.974-5.33-7.05-9.313-8.06-.771-.197-1.566-.274-2.344-.281v-150.59c6.02-4.154 11.274-9.602 15.281-15.719 3.035-4.633 5.242-9.941 6.313-15.375.52-2.638.793-5.494 0-8.06-.593-1.919-1.449-3.818-2.563-5.563 2.928-1.126 5.816-2.379 8.656-3.75 1.91-.922 2.454-3.485 3.969-4.969 5.738-5.619 12.697-9.843 19.12-14.656 3.367-2.521 6-7.04 10.188-7.438 3.65-.345 6.724 2.954 9.938 4.719 3 1.648 5.557 4.086 8.688 5.469 2.829 1.25 5.86 2.156 8.938 2.469 3.632.37 7.54.588 10.938-.75 3.176-1.251 5.383-4.204 7.938-6.469 2.585-2.292 5.684-4.23 7.469-7.188 2.139-3.544 2.803-7.821 3.469-11.906.679-4.17 1.544-8.57.469-12.656-1.362-5.177-5.932-8.957-8.438-13.688-1.613-3.045-4.373-5.995-4.219-9.438.106-2.37 2.478-4.047 3.5-6.188 4.995-10.46 9.647-21.19 12.906-32.31 2.347-8.01 3.655-16.316 4.719-24.594 1.121-8.723 1.913-17.488 1.75-26.28-.134-7.24-1.238-14.455-2.25-21.625-1.246-8.828-2.869-17.622-4.719-26.344-.937-4.42-3.795-8.672-3.25-13.156.237-1.948 1.67-3.58 2.75-5.219 2.526-3.832 6.843-6.453 8.688-10.656 2.32-5.285 2.567-11.385 2.5-17.16-.081-6.968-.705-14.211-3.5-20.594-2.225-5.081-6.813-8.761-10.156-13.188-4.96-6.566-11.406-12.284-14.656-19.844-.93-2.163-1.129-4.617-1.25-6.969-.115-2.238-.602-4.767.5-6.719 1.198-2.12 3.701-3.333 5.969-4.219 2.41-.941 5.805.807 7.688-.969 2.268-2.139 2.103-6.121 1.75-9.219-.419-3.683-1.975-7.442-4.5-10.156-4.591-4.934-11.4-7.567-17.875-9.438-4.148-1.198-8.589-.996-12.906-1-3.321-.003-6.827-.443-9.938.719-4.545 1.698-8.05 5.508-11.688 8.719-4.126 3.643-6.555 9.306-11.406 11.906-2.891 1.55-6.606.625-9.688 1.75-2.961 1.081-5.735 2.738-8.188 4.719-2.691 2.173-3.65 6.715-6.969 7.688-2.718.796-5.61-1.077-8.188-2.25-2.988-1.36-6.405-2.68-8.188-5.438-1.094-1.692-1.318-3.98-1-5.969.31-1.938 2.052-3.373 2.719-5.219.403-1.115.68-2.285.75-3.469.156-2.656.25-5.472-.75-7.938-2.036-5.02-5.647-9.685-10.156-12.688-3.228-2.149-7.359-2.603-11.188-3.219-2.709-.436-5.492-.89-8.25-.938-.414-.007-.836-.013-1.25 0m6.125 134.06c.425-.032.836.022 1.25.156 1.736.565 2.546 2.909 2.781 4.719.31 2.383-.763 4.81-1.938 6.906-1.729 3.085-4.904 5.166-7.25 7.813-3.137 3.538-4.779 8.95-9.125 10.813-1.449.621-3.706.927-4.719-.281-1.018-1.214-.025-3.248.563-4.719.344-.859 1.145-1.448 1.656-2.219 2.133-3.214 3.92-6.657 5.844-10 1.964-3.413 2.853-7.649 5.781-10.281 1.402-1.261 3.316-2.766 5.156-2.906m-108.28 26.406c1.904-.086 4.186 1.734 6.25 1.781 2.709.062 5.358-1.292 8.06-1.125 1.434.089 3.11.141 4.156 1.125 1.066 1 1.231 2.7 1.375 4.156.221 2.228.514 4.853-.813 6.656-.663.901-1.947 1.335-3.063 1.406-3.769.242-7.411-1.704-10.813-3.344-1.919-.925-3.906-1.966-5.281-3.594-.855-1.012-1.489-2.31-1.656-3.625-.13-1.027-.32-2.444.531-3.03.392-.271.811-.386 1.25-.406m157.28 21.5c1.526-.03 3.376.029 4.469 1.094 1.238 1.207 1.898 3.352 1.375 5-.398 1.254-1.889 1.848-3.03 2.5-2.568 1.466-5.579 2.01-8.344 3.063-2.603.988-5.087 2.329-7.781 3.03-1.989.518-4.728 2.382-6.125.875-.901-.972.242-2.742.875-3.906.751-1.38 2.123-2.286 3.313-3.313 2.705-2.334 5.394-4.817 8.594-6.406 2.072-1.029 4.343-1.893 6.656-1.938m-43.844 84.37c2.761.038 5.486.899 8.03 1.969 1.61.676 3.696 1.184 4.469 2.75.864 1.751.439 4.168-.563 5.844-1.199 2-4.742 1.847-5.844 3.906-1.354 2.53-.818 5.844 0 8.594.724 2.436 2.158 4.805 4.156 6.375 1.312 1.031 3.901.233 4.719 1.688.88 1.567-.068 3.806-1.094 5.281-2.374 3.415-6.723 5.057-10.563 6.656-8.767 3.652-18.409 4.843-27.781 6.375-5.599.915-11.237 1.898-16.906 1.688-4.318-.16-8.764-.658-12.781-2.25-4.224-1.674-8.07-4.387-11.375-7.5-2.697-2.536-6.539-5.175-6.656-8.875-.102-3.207 2.884-5.898 5.281-8.03 1.855-1.651 4.916-1.572 6.656-3.344 1.654-1.683 1.819-4.382 3.03-6.406.884-1.477 1.548-3.338 3.063-4.156 3.099-1.674 7.08-.067 10.563-.563 11.669-1.658 22.903-5.466 34.406-8.03 3.047-.679 6.07-2.01 9.188-1.969"/><path d="m180.31 46.75c-1.919-.015-3.858.243-5.688.625-2.904.606-5.782 1.938-8 3.906-1.898 1.684-3.125 4.074-4.125 6.406-1.268 2.956-2.505 6.164-2.313 9.375.156 2.6 2.402 4.731 2.75 7.313.225 1.669.45 3.6-.438 5.03-1.226 1.978-3.68 3.237-5.969 3.656-3.588.657-7.144-1.515-10.75-2.063-5.385-.818-10.796-2.315-16.219-1.813-3.89.361-7.315 3.265-11.219 3.406-2.735.099-6.607.543-8-1.813-1.13-1.911 2.176-4.211 1.844-6.406-.667-4.411-3.936-8.303-7.313-11.219-2.478-2.14-5.734-3.45-8.938-4.125-4.401-.928-9.104-.703-13.5.25-5.605 1.215-10.496 4.544-15.75 6.844-6.41 2.805-12.691 5.95-19.219 8.469-2.024.781-4.04 1.758-6.188 2.031-2.198.279-4.47.077-6.625-.438-2.093-.5-4.174-1.267-5.938-2.5-2.564-1.792-4.371-4.5-6.406-6.875-.883-1.031-1.55-2.281-2.531-3.219-.948-.906-1.904-1.98-3.188-2.25-1.829-.385-3.948.039-5.469 1.125-2.671 1.906-3.832 5.427-5.063 8.469-1.117 2.759-2.338 5.724-2.063 8.688.209 2.243 1.275 4.486 2.75 6.188 2.535 2.925 6.403 4.384 9.844 6.156 2.492 1.283 5.442 1.629 7.75 3.219 1.466 1.01 3.414 2.112 3.656 3.875.246 1.79-1.978 3.051-2.5 4.781-.641 2.128-1.07 4.467-.688 6.656.393 2.25 1.385 4.541 3 6.156 1.615 1.615 3.922 2.494 6.156 2.969 2.462.523 5.093.299 7.563-.188 2.556-.504 5.137-1.349 7.313-2.781 2.206-1.453 3.459-3.973 5.469-5.688 2.542-2.169 5.413-3.905 8.219-5.719 1.493-.965 2.857-2.367 4.594-2.75 2.096-.462 4.798-.735 6.406.688 1.759 1.556 1.825 4.538 1.594 6.875-.182 1.833-1 3.674-2.281 5-1.892 1.964-4.852 2.481-7.313 3.656-5.14 2.456-10.65 4.241-15.563 7.125-5.548 3.257-11.302 6.558-15.531 11.406-5.875 6.734-9.658 15.201-12.813 23.563-1.821 4.827-1.605 10.271-3.438 15.09-.618 1.626-1.102 3.527-2.5 4.563-1.189.881-2.902 1.049-4.375.906-2.72-.264-4.818-2.866-7.531-3.188-2.763-.328-5.914-.136-8.25 1.375-2.308 1.492-3.215 4.479-4.563 6.875-2.474 4.399-6.094 8.681-6.406 13.719-.337 5.438 3.037 10.474 5.063 15.531 2.612 6.52 7.561 12.153 9.125 19 .577 2.527.218 5.167 0 7.75-.306 3.621-.812 7.256-1.813 10.75-.885 3.089-1.706 6.352-3.656 8.906-2.276 2.981-5.366 5.731-8.938 6.875-2.034.652-4.664 1.017-6.406-.219-1.536-1.089-.762-3.889-2.063-5.25-.519-.543-1.297-1.062-2.031-.906-2.112.447-3.785 2.705-4.375 4.781-.804 2.833.69 5.894 1.625 8.688.487 1.455 1.073 2.927 2.031 4.125 2.029 2.539 4.742 4.541 7.563 6.156 1.904 1.091 4.03 1.925 6.188 2.313 1.651.296 3.327.119 5 0 2.151-.153 4.323-.381 6.406-.938 1.983-.53 4.114-1 5.719-2.281 3.77-3 6.23-7.483 8.219-11.875.519-1.145.225-2.62.938-3.656 1.055-1.533 2.794-2.641 4.563-3.219 3.479-1.137 7.417.529 11-.219 2.744-.573 5.565-1.463 7.75-3.219 1.665-1.338 2.675-3.353 3.656-5.25 1.34-2.592 2.545-5.368 3-8.25.357-2.26.497-4.681-.25-6.844-1.264-3.661-4.52-6.277-6.844-9.375-3-4-6.392-7.707-9.156-11.875-2.906-4.381-5.83-8.869-7.781-13.75-.7-1.751-1.458-3.616-1.375-5.5.092-2.095.741-4.278 2.063-5.906 1.12-1.38 2.8-2.518 4.563-2.75 1.1-.145 2.217.429 3.219.906 1.68.8 3.838 1.474 4.563 3.188.932 2.205-.539 4.804-1.125 7.125-.454 1.8-1.874 3.363-1.844 5.219.017 1.062.622 2.082 1.156 3 2.479 4.26 6.519 7.421 9.375 11.438 2.538 3.569 4.735 7.349 6.844 11.188 1.92 3.496 4.136 6.929 5.281 10.75.861 2.871 1.194 5.909 1.156 8.906-.025 2.01-.344 4.053-.938 5.969-.677 2.182-3.516 3.938-2.969 6.156.705 2.857 4.85 3.378 7.094 5.281 2.426 2.057 4.338 4.706 6.875 6.625 3.02 2.287 6.357 4.127 9.813 5.688 3.954 1.786 8.407 2.302 12.344 4.125 2.266 1.049 4.849 1.954 6.406 3.906.752.942 1.277 2.207 1.156 3.406-.23 2.276-1.857 4.314-3.438 5.969-1.563 1.636-4.02 2.165-5.719 3.656-2.4 2.104-3.473 5.634-6.188 7.313-2.201 1.361-5.082 2.584-7.563 1.844-1.602-.478-1.984-2.778-3.406-3.656-2.503-1.546-5.526-2.516-8.469-2.531-2.22-.012-4.477.745-6.406 1.844-1.64.934-3.202 2.211-4.094 3.875-1.278 2.386-1.441 5.294-1.375 8 .034 1.405.526 2.741.906 4.094 1.593 5.662 2.741 11.678 5.719 16.75 5.083 8.658 12.166 16.255 20.12 22.375 9.702 7.461 21.528 11.693 32.688 16.719 2.091.942 6.91.263 6.406 2.5-1.225 5.442-11.302.294-16.688-1.156-5.497-1.48-10.273-4.883-15.313-7.531-6.495-3.413-13.352-6.343-19.219-10.75-6.163-4.63-11.816-10.1-16.469-16.25-2.574-3.4-5.094-7.06-6.156-11.188-.38-1.476.139-3.076 0-4.594-.268-2.933-.45-5.987-1.625-8.688-1.174-2.698-3.093-5.093-5.25-7.094-1.256-1.165-2.763-2.059-4.344-2.719-1.877-.783-3.904-1.451-5.938-1.406-1.424.031-2.833.557-4.125 1.156-2.091.969-4.17 2.172-5.688 3.906-1.795 2.053-2.264 4.967-3.656 7.313-1.09 1.837-1.773 4.335-3.688 5.281-1.505.743-3.401.149-5.03-.25-2.286-.559-4.078-2.625-6.406-2.969-1.6-.236-3.241.195-4.781.688-2.37.758-4.723 1.87-6.656 3.438-3.366 2.729-6.204 6.226-8.219 10.06-1.66 3.161-2.947 6.711-2.969 10.281-.014 2.293 1.121 4.438 1.813 6.625 1.024 3.242 1.297 6.953 3.438 9.594 2.198 2.712 5.644 4.342 8.938 5.5 2.319.815 4.87 1.187 7.313.906 1.533-.176 4.114-.063 4.313-1.594.12-.923-1.719-.83-2.25-1.594-1.034-1.488-1.595-3.479-1.406-5.281.231-2.204 1.31-4.504 3-5.938 2.555-2.168 6.249-3.173 9.594-2.969 4.087.249 7.766 2.832 11.219 5.03 3.738 2.381 6.635 5.878 10.06 8.688 12.77 10.469 24.333 23.03 39.09 30.438 11.803 5.92 25.352 7.402 38.19 10.5 5.828 1.407 11.739 2.518 17.625 3.656 5.094.985 10.1 2.454 15.281 2.75 6.02.344 12.1-.453 18.09-1.125 7.136-.799 14.295-1.683 21.25-3.469 12.307-3.159 24.699-6.853 35.938-12.781 15.833-8.351 29.28-20.608 43.44-31.563 1.328-1.027 2.197-3.181 3.875-3.219 1.143-.026 2.148 1.091 2.75 2.063 1.551 2.504.487 5.989 1.594 8.719 1.032 2.547 2.461 5.072 4.563 6.844 1.722 1.452 3.989 2.261 6.188 2.75 3.87.86 8.03 1.049 11.906.219 2.967-.636 5.978-1.828 8.219-3.875 3.33-3.042 5.415-7.42 6.875-11.688.97-2.836 1.301-5.914 1.125-8.906-.092-1.569-.45-3.144-1.125-4.563-1.147-2.409-2.904-4.573-4.813-6.438-.938-.916-1.994-1.781-3.219-2.25-3.223-1.233-7.141.276-10.281-1.156-1.227-.56-2.472-1.496-2.969-2.75-.394-.995-.319-2.263.219-3.188.553-.95 1.959-1.081 2.75-1.844 2.909-2.804 5.103-6.296 7.094-9.813 4.661-8.23 8.231-17.12 11.219-26.09 2.873-8.631 5.12-17.495 6.406-26.5.691-4.835.415-9.778.656-14.656.362-7.319 1.393-14.614 1.156-21.938-.36-11.123-1.455-22.325-3.875-33.19-.577-2.588-1.492-5.092-2.531-7.531-1.349-3.168-3.331-6.03-4.781-9.156-1.109-2.388-3.102-4.682-3-7.313.073-1.874 1.062-3.835 2.531-5 1.289-1.022 3.207-.676 4.781-1.156 2.492-.761 5.336-1.053 7.313-2.75 1.657-1.423 2.395-3.696 3.219-5.719 2.322-5.703 4.468-11.696 4.813-17.844.198-3.541-.462-7.18-1.625-10.531-1.466-4.225-4.278-7.85-6.625-11.656-2.741-4.445-5.636-8.793-8.688-13.03-3.777-5.247-8.646-9.743-11.875-15.344-1.315-2.281-2.094-4.829-2.969-7.313-1.058-3-2.647-5.943-2.75-9.125-.066-2.033.283-4.202 1.344-5.938.988-1.615 3.02-2.369 4.375-3.688 1.395-1.353 3.915-2.401 3.875-4.344-.076-3.719-4.4-6.352-7.75-7.969-3.449-1.665-7.656-1.523-11.469-1.156-3.961.381-8.145 1.172-11.438 3.406-1.931 1.31-3.037 3.567-4.344 5.5-1.377 2.037-2.858 4.081-3.656 6.406-1.05 3.059.333 6.847-1.375 9.594-.927 1.49-2.595 2.848-4.344 3-1.835.16-3.231-1.923-5.03-2.313-3.576-.775-7.66-1.562-10.969 0-1.518.716-2.621 2.326-3.188 3.906-.772 2.152-1.164 4.907 0 6.875.886 1.498 3.374 1.23 4.563 2.5.862.921 1.813 2.195 1.594 3.438-.299 1.699-1.946 3.432-3.656 3.656-1.659.217-2.868-1.686-4.313-2.531-1.681-.983-3.357-2.027-5.063-2.969-5.253-2.9-10.643-5.548-16-8.25-7.06-3.562-15.593-5.01-21.281-10.5-.809-.782-1.901-1.886-1.594-2.969.625-2.201 4.313-1.826 5.938-3.438 2.135-2.117 3.53-4.937 4.594-7.75.851-2.251 1.542-4.724 1.375-7.125-.196-2.814-1.298-5.582-2.75-8-1.61-2.682-3.563-5.57-6.406-6.875-1.699-.78-3.581-1.048-5.5-1.063m-59.44 40.75c.409-.025.84-.014 1.25 0 4.465.152 9.116 1.566 12.688 4.25 3.316 2.492 3.605 7.975 7.094 10.219 4.526 2.911 10.648 1.7 15.906 2.844 3.683.801 7.76.785 10.938 2.813 3.597 2.294 3.874 9.248 8.094 9.875 2.939.437 4.825-3.491 7.438-4.906 3.942-2.135 7.92-4.587 12.344-5.313 5.828-.956 11.938.059 17.688 1.406 3.704.868 7.01 2.966 10.594 4.25 2.559.917 5.172 3.199 7.781 2.438 1.765-.515 1.844-3.388 3.5-4.188 4.561-2.201 10.215-1.335 15.188-.375 2.641.51 4.952 2.127 7.438 3.156 1.757.728 3.44 2.458 5.313 2.125 1.559-.278 3.5-3.156 3.5-3.156l7.06-2.469 12.719 4.563c0 0 8.125 14.12 8.125 15.531 0 1.413-3.531 11-3.531 11l2.844 6.688 4.563 9.906-3.188 12-9.156 3.875 1.406 6.719c0 0 3.531 8.109 3.531 9.875 0 1.766.375 15.188.375 15.188l-5.656 8.5 8.813 16.25 3.188 13.406 1.75 9.531-4.25 8.5c0 0-2.425 3.15-1.719 4.563l4.906 9.906-3.188 13.06-12.688 7.75-9.906 11.688c0 0-5.176 2.135-7.781 3.156-.937.367-2.179.257-2.781 1.063-.989 1.324.083 3.35-.375 4.938-1.109 3.846-3.394 7.292-5.656 10.594-2.548 3.719-5.298 7.459-8.813 10.281-2.711 2.177-5.95 3.639-9.188 4.906-3.51 1.374-7.2 2.762-10.969 2.844-3.971.086-7.656-2.335-11.625-2.469-2.496-.084-5.125.119-7.438 1.063-2.028.827-3.393 2.766-5.281 3.875-3.908 2.293-8.156 4-12.375 5.656-8.771 3.435-17.6 7-26.844 8.813-8.339 1.635-16.978 2.585-25.438 1.781-8.245-.783-16.488-2.956-24.03-6.375-6.721-3.047-13.04-7.209-18.344-12.344-2.605-2.524-5.659-5.257-6.375-8.813-.93-4.62.174-10.158 3.188-13.781 1.888-2.27 5.315-2.623 8.125-3.531 3.67-1.187 8.681.348 11.281-2.5 1.28-1.402 1.394-3.882.719-5.656-.891-2.339-3.763-3.233-5.625-4.906-1.549-1.392-3.4-2.566-4.625-4.25-.992-1.363-3.272-3.388-2.094-4.594 2.69-2.754 6.855 3.676 10.594 4.594 6.305 1.548 12.934 1.914 19.406 1.406 3.616-.284 7.06-1.809 10.625-2.469 5.96-1.102 12.01-1.521 18-2.469 4.608-.729 9.09-2.229 13.75-2.5 5.77-.336 11.651-.102 17.313 1.063 4.778.983 10.01 1.873 13.781 4.969 1.592 1.307 3.144 3.253 3.188 5.313.065 3.058-3.251 5.187-4.375 8.03-1.304 3.301-3.843 6.957-2.688 10.313 1.641 4.765 7.409 7.109 12 9.188 3.281 1.486 6.998 2.336 10.594 2.125 5.315-.312 10.915-1.792 15.188-4.969 4.141-3.079 6.366-8.161 8.844-12.688 1.47-2.685 3.345-5.445 3.531-8.5.186-3.051-.971-6.148-2.469-8.813-1.183-2.106-3.351-3.491-4.938-5.313-1.594-1.83-4.869-3.214-4.594-5.625.152-1.334 1.824-2.337 3.156-2.5 3.453-.421 6.86 2.02 9.531 4.25 2.407 2.01 2.706 6.01 5.313 7.75 2.4 1.603 5.959 3.207 8.469 1.781 3.14-1.784 3.531-10.219 3.531-10.219l5.656-4.25 6.344 1.406 6.03.344 7.06-6.344c0 0 1.778-7.078.719-8.844-1.06-1.766-4.262-3.9-4.969-5.313-.706-1.413-5.656-4.594-5.656-4.594 0 0 1.775-7.03 3.188-8.094 1.413-1.06 5.313-4.969 5.313-4.969l-2.125-7.406c0 0-7.749-3.188-11.281-3.188h-8.5l-1.781-4.594c0 0 5.306-2.097 6.719-3.156 1.413-1.06 2.5-3.875 2.5-3.875l3.156-7.438-3.531-7.75c0 0-4.578-7.087-6.344-8.5-1.766-1.413-4.345-3.312-6.75-4.563-1.785-.928-3.618-1.984-5.625-2.125-3.248-.228-6.372 1.472-9.563 2.125-1.878.385-3.93.168-5.625 1.063-1.767.932-3.379 2.421-4.25 4.219-.879 1.814-1.242 4.063-.688 6 .83 2.899 4.03 4.522 5.656 7.06.568.887 1.392 1.76 1.406 2.813.026 1.949-1.208 3.826-2.469 5.313-4.985 5.878-12.139 9.742-19.09 13.06-7.429 3.547-15.673 5.084-23.656 7.094-3.963.998-7.97 1.978-12.03 2.438-5.266.596-13.543 5.118-15.844.344-.399-.828 1.204-1.332 1.719-2.094.973-1.44 1.262-3.373 2.5-4.594 4.725-4.658 11.895-5.896 17.656-9.188 6.751-3.857 13.302-8.08 19.781-12.375 4.437-2.943 9.187-5.506 13.06-9.156 5.367-5.056 9.304-11.454 13.781-17.313 1.33-1.74 2.057-4.091 3.875-5.313 2.01-1.353 4.642-1.963 7.06-1.781 3.053.229 5.687 2.325 8.5 3.531 4.02 1.724 12 5.313 12 5.313l6.719 2.844 7.06-1.781.688-8.844-4.25-5.969c0 0-3.143-3.897-5.969-4.25-2.826-.353-11.29 1.206-15.563-1.781-1.51-1.056-2.547-3.096-2.469-4.938.105-2.481 1.603-5.414 3.906-6.344 2.595-1.047 8.094 2.125 8.094 2.125l6.719 2.125 7.781-3.188 3.531-4.625 1.75-3.156-1.75-9.531-5.313-4.625-.719-5.625 1.781-4.938 1.406-4.25-3.188-5.625-3.844-4.25-4.625-4.25c0 0-4.94-1.413-6 0-1.06 1.413-3.877 2.672-5.625 4.25-1.546 1.396-2.195 4.256-4.25 4.594-1.456.239-2.776-1.177-3.906-2.125-1.733-1.453-2.252-4.252-4.25-5.313-2.608-1.384-5.909-1.254-8.813-.719-2.693.496-5.57 1.559-7.438 3.563-2.415 2.591-2.809 6.488-3.844 9.875-.951 3.114-.847 6.567-2.125 9.563-.5 1.171-.889 2.848-2.125 3.156-1.687.421-3.636-1.018-4.594-2.469-1.433-2.17-1.118-5.211-.719-7.781.372-2.398 3.178-4.283 2.844-6.688-.519-3.733-4.067-6.555-7.06-8.844-3.059-2.337-6.956-3.43-10.625-4.594-2.751-.873-5.584-1.855-8.469-1.75-2.57.094-5.057 1.049-7.406 2.094-2.03.903-4.03 2.02-5.656 3.531-2.038 1.888-3.557 4.307-4.938 6.719-.446.778-1.056 1.603-1.063 2.5-.016 2.164.995 4.383 2.469 5.969 2.689 2.892 7.253 3.207 10.594 5.313 3.407 2.147 6.91 4.376 9.563 7.406 2.154 2.462 4.053 5.342 4.906 8.5.86 3.182.605 6.634 0 9.875-.719 3.847-1.932 7.762-4.219 10.938-3.127 4.343-9.08 6.03-12.375 10.25-1.846 2.367-2.065 5.73-3.875 8.125-5.583 7.387-13.292 13.02-20.844 18.375-9.802 6.955-20.269 13.216-31.438 17.656-1.804.717-3.779 2.01-5.625 1.406-1.748-.571-3.85-2.439-3.531-4.25.283-1.611 2.807-1.643 4.219-2.469 6.833-3.996 14.925-6.35 20.469-12 3.876-3.951 5.742-9.488 8.156-14.469 3.5-7.221 5.529-15.12 9.156-22.281 1.433-2.828 2.661-5.92 4.969-8.094 1.649-1.553 3.735-3.161 6-3.188 1.579-.018 2.899 1.257 4.219 2.125 2.443 1.607 3.849 5.284 6.75 5.656 2.716.349 5.633-1.418 7.375-3.531 2.398-2.908 2.956-7.17 2.844-10.938-.114-3.833-1.169-7.979-3.531-11-2.475-3.166-6.517-4.825-10.25-6.313-3.797-1.513-7.948-3.03-12-2.5-3.654.479-6.877 2.869-9.906 4.969-3.698 2.562-5.815 7.219-9.875 9.156-1.503.717-3.556 1.648-4.938.719-1.209-.813-1.103-2.794-1.063-4.25.1-3.574 1.031-7.344 3.156-10.219 1.864-2.521 4.838-4.324 7.813-5.313 2.572-.855 5.94 1.27 8.094-.375 2.456-1.876 2.997-5.726 2.844-8.813-.191-3.845-1.881-7.894-4.625-10.594-2.634-2.591-6.549-3.784-10.219-4.219-4.498-.533-9.821-.643-13.406 2.125-1.627 1.257-.597 4.845-2.5 5.625-1.173.481-2.82-.387-3.531-1.438-1.188-1.755.372-4.226 0-6.313-.419-2.347-.904-4.951-2.469-6.75-2.455-2.821-6.248-4.371-9.875-5.281-2.741-.688-5.73-.559-8.5 0-2.379.48-4.759 1.339-6.688 2.813-4.399 3.36-9.882 7.571-10.25 13.09-.154 2.317 2.921 3.759 3.531 6 .65 2.386 1.748 5.689 0 7.438-1.332 1.332-3.842-.509-5.656 0-3.052.856-6.07 2.497-8.125 4.906-1.406 1.645-2.269 3.876-2.469 6.03-.267 2.874-.011 6.151 1.75 8.438 1.767 2.294 4.963 3.241 7.781 3.906 3.208.757 6.726-.974 9.875 0 2.589.801 5.118 2.43 6.75 4.594.673.892 1.202 2.079 1.063 3.188-.244 1.944-1.502 3.938-3.188 4.938-1.421.843-3.362.728-4.969.344-2-.479-3.328-2.638-5.313-3.188-2.95-.817-6.193-.768-9.156 0-3.52.912-6.527 3.263-9.531 5.313-2.901 1.98-6.183 3.813-8.156 6.719-2.364 3.48-3.94 7.794-3.844 12 .092 4.02 1.289 8.554 4.219 11.313 2.332 2.195 6.079 3.585 9.188 2.813 1.616-.401 2.034-2.803 3.531-3.531 2.666-1.296 5.909-1.484 8.844-1.063 1.775.255 3.442 1.09 4.906 2.125 1.701 1.202 3.583 2.62 4.25 4.594 1.212 3.585.42 7.831-1.063 11.313-1.766 4.148-4.982 7.843-8.813 10.219-4.03 2.499-9.06 3.961-13.781 3.531-3.358-.305-6.654-1.995-9.188-4.219-4.812-4.223-7.717-10.37-10.25-16.25-1.875-4.353-3.308-9.05-3.531-13.781-.214-4.524.282-9.3 2.125-13.438 2.281-5.123 6.996-8.76 10.594-13.06 2.892-3.458 5.776-6.916 8.844-10.219 1.133-1.22 3.02-1.946 3.531-3.531.437-1.364-.17-2.914-.688-4.25-.861-2.223-3.709-3.624-3.906-6-.318-3.836 2.771-7.203 4.594-10.594 1.531-2.847 2.753-6.11 5.281-8.125 1.864-1.486 5.089-.729 6.719-2.469 2.267-2.419 1.572-6.469 2.844-9.531 1.698-4.087 3.404-8.348 6.344-11.656 2.973-3.346 6.911-5.893 10.969-7.781 2.605-1.212 5.417-2.294 8.281-2.469m3.594 38.03c.561-.028 1.092.064 1.531.313 1.139.645 1.12 2.398 1.344 3.688.316 1.822.036 3.745 0 5.594-.044 2.29 1.193 5.09-.281 6.844-.811.965-2.593 1.406-3.688.781-.967-.552-.921-2.052-1.063-3.156-.168-1.313.277-2.645.281-3.969.012-2.999-2.363-6.595-.531-8.969.514-.666 1.472-1.079 2.406-1.125m130.62 22.938c.521-.034 1.037.062 1.406.375.817.692.827 2.168.5 3.188-.532 1.66-2.535 2.38-3.688 3.688-9.79 11.11-17.374 24-27.19 35.09-9.694 10.957-20.02 21.423-31.16 30.906-8.542 7.272-17.357 14.498-27.22 19.844-1.739.943-3.617 1.767-5.563 2.125-1.992.366-4.223.846-6.06 0-2.212-1.018-4.75-5.594-4.75-5.594 0 0 26.47-12.727 38.03-21.625 16.725-12.872 30.18-29.539 44.37-45.16 5.338-5.872 9.861-12.452 15.313-18.219 1.412-1.494 2.589-3.492 4.5-4.25.45-.179.979-.341 1.5-.375m-128.28 4.531c.602-.063 1.24.793 1.844 1.125 1.35.741 3.052 1.138 3.969 2.375 1.297 1.75 1.286 4.188 1.594 6.344.971 6.803 1.276 13.771.781 20.625-.419 5.804-1 11.763-3.188 17.16-2.505 6.178-6.973 11.385-11.09 16.625-4.737 6.02-9.216 12.611-15.563 16.906-4.915 3.327-10.884 4.96-16.656 6.344-2.411.578-4.898.675-7.375.781-4.223.181-8.618.891-12.688-.25-3.039-.852-7.18-1.759-8.188-4.75-.365-1.085.264-2.727 1.313-3.188 1.887-.828 3.826 1.574 5.813 2.125 3.112.863 6.275 1.995 9.5 1.844 3.117-.147 6.09-1.531 9-2.656 6.39-2.472 13.06-4.809 18.5-8.969 8.08-6.175 15.479-13.905 20.03-23 3.02-6.04 3.238-13.11 4.25-19.781.729-4.807 1.123-9.674 1.344-14.531.108-2.375.762-4.905 0-7.156-.604-1.785-2.865-2.684-3.469-4.469-.367-1.084-.974-2.805 0-3.406.084-.052.195-.085.281-.094m16.75 86.94c1.228.037 2.491.284 3.313 1.094 1.034 1.02 1.27 2.782 1.063 4.219-.248 1.719-1.564 3.119-2.656 4.469-.902 1.114-1.81 2.416-3.156 2.906-7.618 2.774-16.226-.113-24.281-1.031-6.228-.71-18.5-3.438-18.5-3.438 1.321 0 18.778.584 27.719-1.844 2.85-.774 5.203-2.853 7.938-3.969 2.398-.978 4.788-2.272 7.375-2.375.384-.015.778-.044 1.188-.031m91 13.75c2.331-.036 4.64.683 6.875 1.344 3.826 1.13 7.316 3.188 11.09 4.469 2.508.85 5.949.1 7.656 2.125.57.676.819 1.922.281 2.625-.976 1.276-3.147.702-4.75.813-3.163.218-6.396.191-9.531-.281-3.253-.489-6.212-2.574-9.5-2.656-4.42-.111-8.616 2-12.938 2.938-6.329 1.369-12.706 2.553-19.03 3.938-15 3.283-29.688 8.07-44.875 10.344-6.111.914-12.711 3.441-18.5 1.281-1.05-.392-2.375-2.344-2.375-2.344 0 0 2.624-.31 3.938-.531 3.899-.658 7.813-1.355 11.625-2.406 5.395-1.489 10.529-3.875 15.875-5.531 11.587-3.591 23.356-6.558 35.12-9.5 5.346-1.336 10.72-2.499 16.09-3.719 4.312-.979 8.517-2.838 12.938-2.906m-152.16 12.156c0 0 7.279 5.02 11.406 6.344 6.664 2.144 13.855 1.978 20.844 2.375 3.076.175 6.231-.62 9.25 0 1.97.404 4.638.588 5.563 2.375.579 1.12.145 2.867-.813 3.688-2.344 2.01-6.175.795-9.25.531-3.873-.333-7.529-1.879-11.344-2.625-3.85-.753-7.857-.755-11.625-1.844-3.221-.931-6.654-1.848-9.25-3.969-2.156-1.762-4.781-6.875-4.781-6.875m8.625 150.34c-1.404 2.734-2.156 5.621-2.156 8.594 0 17.862 27.07 32.34 60.47 32.34 33.399 0 60.47-14.481 60.47-32.34 0-2.974-.782-5.858-2.188-8.594-13.879 7.164-34.82 11.75-58.28 11.75-23.461 0-44.43-4.586-58.31-11.75m19.813 48.531v157.87c0 8.724 17.238 15.813 38.5 15.813 21.262 0 38.5-7.089 38.5-15.813v-157.87h-77m13.06 14.688h9.344v144.69h-9.344v-144.69m20.781 0h9.313v144.69h-9.313v-144.69m20.75 0h9.313v144.69h-9.313v-144.69m-64 147.28c-1.808.188-3.315 1.653-4.5 3.03-2.843 3.306-4.531 7.607-5.563 11.844-.497 2.042-.208 4.18-.25 6.281-.037 1.848-.209 3.726 0 5.563.254 2.227.625 4.499 1.5 6.563 1.447 3.411 3.437 6.667 6.03 9.313 4.83 4.924 10.771 9.05 17.188 11.594 5.851 2.322 12.351 2.523 18.625 3.03 9.886.8 19.864.8 29.75 0 6.274-.508 12.806-.707 18.656-3.03 6.408-2.546 12.295-6.669 17.12-11.594 2.595-2.645 4.584-5.901 6.03-9.313.875-2.064 1.309-4.335 1.563-6.563.209-1.837.037-3.714 0-5.563-.042-2.102.216-4.239-.281-6.281-1.032-4.236-2.688-8.538-5.531-11.844-1.185-1.378-2.755-2.843-4.563-3.03-1.35-.141-2.636.755-3.75 1.531-2.88 2.01-4.197 5.786-7.06 7.813-6.243 4.414-13.69 7.314-21.19 8.813-10.382 2.075-21.368 2.075-31.75 0-7.497-1.499-14.945-4.398-21.19-8.813-2.866-2.026-4.151-5.807-7.03-7.813-.975-.679-2.11-1.447-3.281-1.531-.167-.012-.362-.017-.531 0m15.625 66.53v268.22c19.404 15.612 40.05 29.363 61.62 40.37.968.494 1.934.954 2.906 1.438v-28.719-9.625-271.69h-.125c-6.236 3.898-18.265 6.563-32.12 6.563-13.86 0-25.951-2.664-32.19-6.563h-.094" fill="#fff"/><path d="m618.7 11.01c-23.516.053-45.856.198-63.63.478-71.1 1.122-140.84-.214-211.25 0-2.384.007-4.768.036-7.153.043-70.42.214-140.16 1.122-211.25 0-71.1-1.122-215.28 0-215.28 0 0 0 4.489 48.18 6.097 72.32 2.756 41.38 3.825 82.87 6.097 124.29 3.06 55.766 7.102 111.49 10.162 167.25 2.273 41.41 3.514 82.9 6.097 124.29 3.906 62.59 4.516 125.75 14.188 187.56 5.408 34.562 12.958 68.979 24.389 101.67 13.8 39.473 30.08 78.71 52.882 112.63 16.437 24.456 37.432 45.04 59.21 63.62 24.938 21.272 52.09 39.816 80.83 53.968 30.394 14.97 62.839 25.08 95.48 32.09 24.566 5.278 49.749 7.255 74.77 7.349 24.862.094 49.924-1.52 74.34-6.741 32.768-7.01 65.19-17.626 95.68-32.746 28.701-14.235 55.929-32.696 80.87-53.968 21.782-18.58 42.777-39.17 59.21-63.62 22.797-33.919 39.08-73.16 52.882-112.63 11.431-32.695 18.981-67.16 24.389-101.72 9.672-61.814 10.282-124.97 14.188-187.56 2.583-41.39 3.825-82.87 6.097-124.29 3.06-55.766 7.102-111.44 10.162-167.21 2.273-41.41 3.341-82.909 6.097-124.29 1.608-24.14 6.097-72.32 6.097-72.32 0 0-81.1-.636-151.65-.478z" fill="none" stroke="#000" stroke-width="20"/><g font-family="Sans" text-anchor="middle" text-align="center" word-spacing="0" line-height="125%" letter-spacing="0"><text x="453.61" y="966.9" transform="matrix(.97486.22282-.22282.97486 0 0)" fill="#090505" font-size="7.545"><tspan x="453.61" y="966.9">Christian Duscha</tspan></text><text x="158.87" y="1124.04" transform="matrix(.96906-.24682.24682.96906 0 0)" fill="#0c0307" font-size="11.249"><tspan x="158.87" y="1124.04">Gleiwitz-Essen-Landshut</tspan></text></g><path d="m340.24 1061.55v-1058.54" fill="none" stroke="#000" stroke-width="5"/></g></svg>