<?xml version="1.0" encoding="UTF-8" standalone="no"?>
<!-- Created with Inkscape (http://www.inkscape.org/) -->
<svg
   xmlns:svg="http://www.w3.org/2000/svg"
   xmlns="http://www.w3.org/2000/svg"
   version="1.0"
   width="492.96481"
   height="527.17029"
   id="svg2">
  <defs
     id="defs5">
    <clipPath
       id="clipPath223">
      <path
         d="M 404.161,505.122 L 404.161,338.712 L 559.342,338.712 L 559.342,505.122"
         id="path225" />
    </clipPath>
    <clipPath
       id="clipPath23">
      <path
         d="M 0.029999,841.95 L 595.29,841.95 L 595.29,0.03 L 0.029999,0.03 L 0.029999,841.95 z"
         id="path25" />
    </clipPath>
    <clipPath
       id="clipPath17">
      <path
         d="M 0,841.89 L 595.276,841.89 L 595.276,0 L 0,0 L 0,841.89 z"
         id="path19" />
    </clipPath>
    <clipPath
       id="clipPath2556">
      <path
         d="M 0.029999,841.95 L 595.29,841.95 L 595.29,0.03 L 0.029999,0.03 L 0.029999,841.95 z"
         id="path2558" />
    </clipPath>
    <clipPath
       id="clipPath2552">
      <path
         d="M 0,841.89 L 595.276,841.89 L 595.276,0 L 0,0 L 0,841.89 z"
         id="path2554" />
    </clipPath>
    <clipPath
       id="clipPath2504">
      <path
         d="M 0,841.89 L 595.276,841.89 L 595.276,0 L 0,0 L 0,841.89 z"
         id="path2506" />
    </clipPath>
    <clipPath
       id="clipPath2500">
      <path
         d="M 0.029999,841.95 L 595.29,841.95 L 595.29,0.03 L 0.029999,0.03 L 0.029999,841.95 z"
         id="path2502" />
    </clipPath>
    <clipPath
       id="clipPath3621">
      <path
         d="M 0.029999,841.95 L 595.29,841.95 L 595.29,0.03 L 0.029999,0.03 L 0.029999,841.95 z"
         id="path3623" />
    </clipPath>
    <clipPath
       id="clipPath3617">
      <path
         d="M 0,841.89 L 595.276,841.89 L 595.276,0 L 0,0 L 0,841.89 z"
         id="path3619" />
    </clipPath>
  </defs>
  <path
     d="M 488.26767,4.69715 C 488.26767,4.69715 475.79457,253.76678 470.79087,311.98214 C 466.03897,367.28783 441.08957,419.51696 400.53998,459.04622 C 358.58286,499.95159 303.37835,522.47315 246.48241,522.47315 L 246.48241,5.86743 L 488.26767,4.69715 z"
     id="path3639"
     style="fill:#ffdd00;fill-opacity:1;stroke:#231f20;stroke-width:9.39430618;stroke-linecap:butt;stroke-linejoin:miter;stroke-miterlimit:4;stroke-dasharray:none;stroke-opacity:1" />
  <path
     d="M 4.69715,4.69715 C 4.69715,4.69715 17.17025,253.76678 22.17395,311.98213 C 26.92585,367.28782 51.87525,419.51695 92.42484,459.04621 C 134.38196,499.95159 189.58647,522.47315 246.48241,522.47315 L 246.48241,5.86743 L 4.69715,4.69715 z"
     id="path3665"
     style="fill:#ed1c24;fill-opacity:1;stroke:#231f20;stroke-width:9.39430618;stroke-linecap:butt;stroke-linejoin:miter;stroke-miterlimit:4;stroke-dasharray:none;stroke-opacity:1" />
  <g
     transform="translate(-506.99543,332.17873)"
     id="g3516">
    <path
       d="M 759.28676,80.433487 L 881.3611,-42.82417 L 975.95255,-51.771308 L 967.93985,18.353353 L 919.28032,65.909294 L 759.28676,80.433487 z"
       id="path3496"
       style="fill:#231f20;fill-opacity:1;fill-rule:evenodd;stroke:#231f20;stroke-width:2.99999976;stroke-linecap:butt;stroke-linejoin:miter;stroke-miterlimit:4;stroke-dasharray:none;stroke-opacity:1" />
    <path
       d="M 881.18999,-43.246787 L 756.11999,-30.592433 L 756.12116,-68.97702 L 837.87383,-151.02057 L 981.64525,-159.52856 L 980.99525,-144.83433 L 881.18999,-43.246787 z"
       id="path3498"
       style="fill:#231f20;fill-opacity:1;fill-rule:evenodd;stroke:#231f20;stroke-width:2.99999976;stroke-linecap:butt;stroke-linejoin:miter;stroke-miterlimit:4;stroke-dasharray:none;stroke-opacity:1" />
    <path
       d="M 836.71386,-150.9308 L 955.53565,-274.18662 L 790.24055,-261.39466 L 756.11999,-225.44475 L 756.11999,-146.14917 L 836.71386,-150.9308 z"
       id="path3500"
       style="fill:#231f20;fill-opacity:1;fill-rule:evenodd;stroke:#231f20;stroke-width:2.99999976;stroke-linecap:butt;stroke-linejoin:miter;stroke-miterlimit:4;stroke-dasharray:none;stroke-opacity:1" />
  </g>
  <path
     d="M 154.01957,442.16445 C 154.01957,442.16445 165.05007,436.28442 165.60047,379.46352 L 165.62247,369.41882 L 126.72767,368.41211 L 127.76897,379.05429 C 127.19417,432.91208 138.10727,441.99801 138.10727,441.99801 L 154.01957,442.16445 z"
     id="path499"
     style="fill:#ffffff;fill-opacity:1;stroke:#231f20;stroke-width:6.38270712;stroke-linecap:butt;stroke-linejoin:bevel;stroke-miterlimit:4;stroke-dasharray:none;stroke-opacity:1" />
  <path
     d="M 165.35437,458.2222 C 165.45217,447.8496 157.11937,439.33541 146.72417,439.26068 C 136.31747,439.1518 127.86007,447.47263 127.75077,457.83388 C 127.63057,468.22933 135.95197,476.7551 146.34747,476.87541 C 156.73107,476.93886 165.23397,468.61768 165.35437,458.2222"
     id="path501"
     style="fill:#ffffff;fill-opacity:1;fill-rule:nonzero;stroke:none" />
  <path
     d="M 165.35437,458.2222 C 165.45217,447.8496 157.11937,439.33541 146.72417,439.26068 C 136.31747,439.1518 127.86007,447.47263 127.75077,457.83388 C 127.63057,468.22933 135.95197,476.7551 146.34747,476.87541 C 156.73107,476.93886 165.23397,468.61768 165.35437,458.2222 z"
     id="path503"
     style="fill:#ffffff;fill-opacity:1;stroke:#231f20;stroke-width:6.38270712;stroke-linecap:butt;stroke-linejoin:miter;stroke-miterlimit:4;stroke-dasharray:none;stroke-opacity:1" />
  <path
     d="M 164.05501,81.107733 C 163.44005,68.241583 151.82161,51.687213 148.31111,33.127373 C 138.20041,46.966683 136.51746,64.882903 136.07786,80.820073 C 138.67203,108.51441 126.23777,109.52524 124.8954,143.3136 C 124.28881,158.58177 130.89823,175.42002 130.45321,193.74108 C 129.89707,217.18335 114.2446,240.22461 120.03411,268.98709 C 130.91717,323.05449 126.30627,349.26226 125.38202,349.26226 L 146.19104,336.02855 L 165.29473,349.26226 C 169.9225,335.79966 174.41079,301.60222 161.9355,257.5254 C 154.95851,232.8748 169.51174,213.07174 168.80309,193.08813 C 168.09402,173.09237 158.55866,156.8712 157.67379,140.33508 C 156.50288,118.45369 165.17897,92.600883 164.05501,81.107733 z"
     id="path507"
     style="fill:#ffffff;fill-opacity:1;stroke:#231f20;stroke-width:6;stroke-linecap:butt;stroke-linejoin:miter;stroke-miterlimit:4;stroke-dasharray:none;stroke-opacity:1" />
  <path
     d="M 154.06997,458.10902 C 154.12707,453.93719 150.78247,450.51095 146.64487,450.48782 C 142.48427,450.41921 139.04707,453.79811 139.00137,457.98137 C 138.95567,462.14174 142.31127,465.53372 146.46037,465.591 C 150.63217,465.62533 154.06937,462.22351 154.06997,458.10902"
     id="path509"
     style="fill:#ffffff;fill-opacity:1;fill-rule:nonzero;stroke:#231f20;stroke-width:5;stroke-miterlimit:4;stroke-dasharray:none;stroke-opacity:1" />
  <path
     d="M 132.19987,428.99613 L 160.12607,429.26957"
     id="path511"
     style="fill:#ffffff;fill-opacity:1;fill-rule:nonzero;stroke:none" />
  <path
     d="M 202.75867,348.57629 L 168.98007,348.2318 L 145.90837,337.09064 L 123.69187,347.77915 L 90.954876,348.12434 C 73.138476,347.77608 75.686676,353.74034 74.638176,378.49607 C 83.402076,370.93139 95.090576,366.2912 112.85547,367.72748 L 116.68922,367.74212 L 181.09327,367.98802 C 207.96877,366.64936 212.01627,373.13745 218.61227,378.75176 C 218.41517,357.25454 222.66217,348.34298 202.75867,348.57629 z"
     id="path495"
     style="fill:#ffffff;fill-opacity:1;stroke:#231f20;stroke-width:6.38270712;stroke-linecap:butt;stroke-linejoin:miter;stroke-miterlimit:4;stroke-dasharray:none;stroke-opacity:1" />
  <path
     d="M 141.04067,378.49853 C 140.37537,380.29987 139.10677,382.28037 141.24807,383.24846 C 148.34787,380.62156 153.89347,382.47361 159.70117,382.72271 C 161.17877,381.35917 161.91267,379.9048 158.93487,377.99718 C 152.45177,376.41832 146.65557,377.15335 141.04067,378.49853 z"
     id="path3446"
     style="fill:#231f20;fill-opacity:1;fill-rule:evenodd;stroke:#231f20;stroke-width:1px;stroke-linecap:butt;stroke-linejoin:miter;stroke-opacity:1" />
  <path
     d="M 144.52497,388.54883 C 144.05997,389.92449 143.16957,391.43561 144.68357,392.18135 C 149.68847,390.19096 153.60777,391.62137 157.70797,391.82677 C 158.74747,390.78795 159.26167,389.67776 157.15497,388.21146 C 152.57447,386.98755 148.48507,387.53467 144.52497,388.54883 z"
     id="path3448"
     style="fill:#231f20;fill-opacity:1;fill-rule:evenodd;stroke:#231f20;stroke-width:1.23500001;stroke-linecap:butt;stroke-linejoin:miter;stroke-miterlimit:4;stroke-dasharray:none;stroke-opacity:1" />
  <path
     d="M 145.81737,397.7316 C 145.49007,398.85624 144.85817,400.08993 145.94727,400.70746 C 149.52797,399.09956 152.34527,400.28858 155.28677,400.47508 C 156.02777,399.62887 156.39167,398.72188 154.87417,397.51155 C 151.58357,396.48874 148.65297,396.91862 145.81737,397.7316 z"
     id="path3452"
     style="fill:#231f20;fill-opacity:1;fill-rule:evenodd;stroke:#231f20;stroke-width:2;stroke-linecap:butt;stroke-linejoin:miter;stroke-miterlimit:4;stroke-dasharray:none;stroke-opacity:1" />
  <path
     d="M 146.44717,406.78339 C 146.15657,407.55682 145.60257,408.40733 146.53617,408.82223 C 149.63377,407.69249 152.05197,408.4858 154.58507,408.59098 C 155.22997,408.00522 155.55047,407.38071 154.25227,406.56277 C 151.42497,405.88702 148.89667,406.20427 146.44717,406.78339 z"
     id="path3454"
     style="fill:#231f20;fill-opacity:1;fill-rule:evenodd;stroke:#231f20;stroke-width:1.73894727;stroke-linecap:butt;stroke-linejoin:miter;stroke-miterlimit:4;stroke-dasharray:none;stroke-opacity:1" />
  <path
     d="M 146.96507,415.43893 C 146.67437,416.21237 146.12047,417.06288 147.05417,417.47778 C 150.15157,416.34804 152.56987,417.14135 155.10287,417.24653 C 155.74787,416.66077 156.06837,416.03626 154.77017,415.21832 C 151.94287,414.54257 149.41457,414.85981 146.96507,415.43893 z"
     id="path3456"
     style="fill:#231f20;fill-opacity:1;fill-rule:evenodd;stroke:#231f20;stroke-width:1.73894727;stroke-linecap:butt;stroke-linejoin:miter;stroke-miterlimit:4;stroke-dasharray:none;stroke-opacity:1" />
  <path
     d="M 137.80651,241.08863 C 138.47969,263.65903 146.66107,276.41008 148.78779,295.1897 C 149.8069,304.18874 146.48797,326.41631 146.14913,336.13827 C 146.05656,338.79433 150.24512,334.14475 150.24597,336.75851 C 151.94759,322.1186 154.823,308.17237 153.35795,293.15215 C 152.02418,276.01981 142.99032,266.46551 137.80651,241.08863 z"
     id="path3474"
     style="fill:#231f20;fill-opacity:1;fill-rule:evenodd;stroke:#231f20;stroke-width:1px;stroke-linecap:butt;stroke-linejoin:miter;stroke-opacity:1" />
  <path
     d="M 141.32165,133.10734 C 141.81248,124.18858 146.7741,119.07057 148.1868,111.68715 C 149.73165,103.61304 149.40486,96.430283 149.3693,87.602683 C 149.28022,97.473143 152.47829,102.5742 149.70632,113.97252 C 147.7569,121.53477 143.17092,125.37819 141.32165,133.10734 z"
     id="path3476"
     style="fill:#231f20;fill-opacity:1;fill-rule:evenodd;stroke:#231f20;stroke-width:1px;stroke-linecap:butt;stroke-linejoin:miter;stroke-opacity:1" />
</svg>
