<svg xmlns="http://www.w3.org/2000/svg" viewBox="0 0 977.12 1067.6"><g transform="translate(78.41 7.661)"><path d="m719.98 2.364c-26.17.053-51.02.198-70.798.478-79.11 1.122-156.7-.214-235.05 0-2.653.007-5.305.036-7.958.043-78.35.214-155.94 1.122-235.05 0-79.11-1.122-239.53 0-239.53 0 0 0 4.995 48.18 6.784 72.32 3.067 41.38 4.256 82.87 6.784 124.29 3.405 55.766 7.902 111.49 11.307 167.25 2.529 41.41 3.91 82.9 6.784 124.29 4.346 62.59 5.02 125.75 15.786 187.56 6.02 34.562 14.418 68.979 27.14 101.67 15.355 39.473 33.473 78.71 58.839 112.63 18.288 24.456 41.648 45.04 65.884 63.62 27.747 21.272 57.962 39.816 89.93 53.968 33.818 14.97 69.917 25.08 106.24 32.09 27.334 5.278 55.35 7.255 83.19 7.349 27.662.094 55.55-1.52 82.71-6.741 36.46-7.01 72.54-17.626 106.46-32.746 31.934-14.235 62.23-32.696 89.98-53.968 24.24-18.58 47.595-39.17 65.884-63.62 25.365-33.919 43.484-73.16 58.839-112.63 12.718-32.695 21.12-67.16 27.14-101.72 10.762-61.814 11.44-124.97 15.786-187.56 2.874-41.39 4.256-82.87 6.784-124.29 3.405-55.766 7.902-111.44 11.307-167.21 2.529-41.41 3.717-82.909 6.784-124.29 1.79-24.14 6.784-72.32 6.784-72.32 0 0-90.24-.636-168.73-.478" fill="#fff"/><path d="m277.35 198.21c-8.415.015-16.41.056-22.77.136-25.442.32-50.4-.061-75.6 0-.853.002-1.706.001-2.56.012-25.2.061-50.16.32-75.6 0-25.442-.32-77.04 0-77.04 0 0 0 1.606 13.718 2.182 20.594.986 11.783 1.369 23.599 2.182 35.392 1.095 15.88 2.542 31.747 3.636 47.627.813 11.793 1.258 23.605 2.182 35.392 1.398 17.824 1.616 35.808 5.077 53.41 1.935 9.842 4.637 19.642 8.728 28.953 4.938 11.24 10.766 22.414 18.924 32.07 5.882 6.964 13.395 12.826 21.19 18.12 8.924 6.06 18.642 11.338 28.924 15.368 10.877 4.263 22.487 7.142 34.17 9.139 8.791 1.503 17.803 2.066 26.756 2.093 8.897.027 17.865-.433 26.603-1.919 11.726-1.995 23.33-5.02 34.24-9.325 10.271-4.054 20.01-9.31 28.938-15.368 7.795-5.291 15.308-11.153 21.19-18.12 8.158-9.659 13.985-20.833 18.924-32.07 4.09-9.31 6.792-19.12 8.728-28.965 3.461-17.602 3.679-35.586 5.077-53.41.924-11.787 1.369-23.599 2.182-35.392 1.095-15.88 2.541-31.735 3.637-47.615.813-11.793 1.195-23.609 2.182-35.392.576-6.875 2.182-20.594 2.182-20.594 0 0-29.02-.181-54.27-.136"/><g fill="#fcdd09" stroke-linejoin="round" stroke-linecap="round"><path d="m173.75 233.31v54.37c0 11.793 6.263 22.07 15.625 27.656v114.53h-10.469v62.66c8.514-.016 17.08-.516 25.438-1.938 9.537-1.623 18.995-3.943 28.06-7.06v-53.656h-10.469v-114.53c9.362-5.587 15.625-15.863 15.625-27.656v-54.37h-21.406v35.5c0 13.301-4.687 22.03-10.5 22.03-5.813 0-10.5-8.73-10.5-22.03v-35.5z" stroke="#000009" stroke-width="5"/><path transform="matrix(.40044-.91632.96464.26358 0 0)" stroke="#000" stroke-width="5.03" d="m-226.83 142.33h16.652v165.37h-16.652z"/></g><g stroke="#000"><g stroke-width="5"><path d="m749.75 2.344c-9.98-.002-19.969.012-29.781.031-26.17.053-51 .188-70.781.469-79.11 1.122-156.71-.214-235.06 0-1.321.003-2.648-.009-3.969 0v1047.09c.031 0 .063 0 .094 0 27.662.094 55.55-1.529 82.72-6.75 36.46-7.01 72.55-17.63 106.47-32.75 31.934-14.235 62.22-32.697 89.97-53.969 24.24-18.58 47.587-39.14 65.875-63.59 25.365-33.919 43.489-73.18 58.844-112.66 12.718-32.695 21.11-67.16 27.12-101.72 10.762-61.814 11.467-124.97 15.813-187.56 2.874-41.39 4.253-82.87 6.781-124.28 3.405-55.766 7.908-111.45 11.313-167.22 2.529-41.41 3.714-82.903 6.781-124.28 1.79-24.14 6.781-72.31 6.781-72.31 0 0-69.11-.484-138.97-.5z" fill="#0f47af"/><path d="m-20.594 594.09c-3.303 0-6.66.087-10.03.25 2.01 28.24 4.805 56.38 9.656 84.25 3.267 18.764 7.269 37.48 12.25 55.906 2.26.094 4.511.199 6.75.344h.063c2.436.158 4.866.349 7.281.563 0 .002.045-.002.063 0 30.394 2.681 59.12 9.507 87.16 16 4.488 1.041 8.956 2.084 13.406 3.094 0 .004.049-.004.063 0 4.435 1.01 8.861 2.02 13.25 2.969 6.605 1.427 13.148 2.754 19.625 3.969 2.158.405 4.263.813 6.406 1.188 0 .002.049-.002.063 0 2.126.371 4.266.725 6.375 1.063 2.124.34 4.237.636 6.344.938 2.107.302 4.195.614 6.281.875 0 .002.016-.002.031 0 2.069.258 4.169.504 6.219.719 2.066.216 4.142.364 6.188.531 2.045.167 4.01.354 6.03.469h.063c.993.056 2.01.083 3 .125 1.01.044 2 .095 3 .125.999.029 1.975.047 2.969.063h.031c.974.014 1.999 0 2.969 0 23.684 0 49.18-4.354 75.59-10.06 8.805-1.903 17.713-3.983 26.688-6.06.25-.058.5-.098.75-.156.853-.198 1.705-.396 2.563-.594 3.618-.838 7.261-1.667 10.906-2.5 4.303-.985 8.623-1.988 12.969-2.938 2.304-.503 4.59-.981 6.906-1.469.18-.038.349-.087.531-.125 2.124-.444 4.269-.854 6.406-1.281 2.313-.464 4.634-.938 6.969-1.375.144-.027.262-.035.406-.063.87-.163 1.753-.342 2.625-.5 1.46-.264 2.938-.499 4.406-.75 2.211-.381 4.429-.744 6.656-1.094.055-.007.101-.054.156-.063 2.314-.363 4.637-.675 6.969-1 .11-.014.203-.078.313-.094 2.277-.314 4.579-.536 6.875-.813 1.503-.181 2.989-.368 4.5-.531 1.405-.152 2.838-.302 4.25-.438 1.836-.177 3.652-.356 5.5-.5.717-.056 1.437-.137 2.156-.188.606-.042 1.205-.055 1.813-.094.391-.025.795-.009 1.188-.031.841-.048 1.691-.113 2.531-.156 3.702-.194 7.43-.318 11.188-.375 1.242-.017 2.501-.063 3.75-.063 2.484 0 4.951.028 7.406.094 1.28.034 2.538.105 3.813.156 1.179.046 2.354.096 3.531.156 1.24.064 2.485.139 3.719.219 1.29.082 2.559.152 3.844.25 1.635.125 3.249.288 4.875.438 1.294.12 2.592.238 3.875.375 1.783.189 3.559.382 5.344.594 0 .002.045-.002.063 0 1.779.212 3.542.45 5.313.688 1.771.238 3.552.458 5.313.719.518.076 1.044.202 1.563.281 1.239.188 2.454.364 3.688.563 1.75.281 3.509.575 5.25.875 0 .004.047-.004.063 0 1.741.3 3.455.59 5.188.906.793.146 1.584.29 2.375.438 2.208.415 4.399.875 6.594 1.313 2.181.433 4.363.86 6.531 1.313 2.572.537 5.102 1.066 7.656 1.625 4.232.925 8.465 1.853 12.656 2.813.341.078.69.202 1.031.281 4.528 1.038 9.01 2.053 13.5 3.094 35.905 8.319 70.71 16.16 102.28 16.16 31.58 0 66.42-7.838 102.31-16.16 32.34-7.494 65.19-15.409 100.78-16.906 4.989-18.457 8.948-37.22 12.219-56 4.848-27.845 7.644-55.941 9.656-84.16-.334-.017-.667-.048-1-.063h-.063c-1.992-.086-3.97-.126-5.938-.156h-.063c-.993-.014-1.951-.031-2.938-.031-31.582 0-66.39 7.838-102.28 16.16-35.905 8.319-72.44 17.16-112.66 17.16-16.23 0-31.947-1.449-47.28-3.719-.443-.066-.898-.146-1.344-.219-.969-.156-1.951-.317-2.906-.469-.015-.002-.047.002-.063 0-3.744-.593-7.457-1.204-11.156-1.875-.462-.084-.913-.164-1.375-.25-.022-.005-.042-.028-.063-.031-.338-.063-.693-.124-1.031-.188-2.438-.457-4.86-.921-7.281-1.406-1.167-.233-2.309-.481-3.469-.719-1.246-.256-2.508-.488-3.75-.75-.323-.068-.646-.15-.969-.219-1.33-.283-2.643-.555-3.969-.844-1.434-.31-2.883-.622-4.313-.938-2.707-.599-5.402-1.231-8.094-1.844-.015-.005-.016.005-.031 0-.751-.171-1.53-.298-2.281-.469-.935-.215-1.848-.442-2.781-.656-3.694-.851-7.363-1.714-11.03-2.563-.015-.005-.047.005-.063 0-4.473-1.037-8.921-2.117-13.344-3.125-.015-.005-.047.005-.063 0-4.438-1.011-8.846-2.02-13.25-2.969-4.404-.951-8.778-1.824-13.12-2.688-2.163-.429-4.319-.846-6.469-1.25-1.549-.29-3.084-.6-4.625-.875-.612-.109-1.2-.175-1.813-.281-1.608-.28-3.246-.552-4.844-.813-.54-.088-1.053-.164-1.594-.25-1.674-.268-3.338-.569-5-.813-2.196-.323-4.356-.596-6.531-.875-1.395-.178-2.801-.31-4.188-.469-.746-.086-1.505-.201-2.25-.281-.305-.033-.601-.062-.906-.094-1.94-.203-3.891-.434-5.813-.594-.125-.001-.248.001-.375 0-1.899-.155-3.745-.296-5.625-.406-.144-.007-.262.008-.406 0-1.951-.11-3.915-.222-5.844-.281-.072-.002-.148.002-.219 0-1.999-.059-3.994-.094-5.969-.094h-.094c-.986 0-2.01-.015-3 0-.196.004-.396.029-.594.031-1.244.023-2.496.08-3.75.125-1.014.036-2.043.043-3.063.094-.818.04-1.645.108-2.469.156-.606.036-1.203.084-1.813.125-1.362.091-2.721.199-4.094.313-1.287.108-2.548.246-3.844.375-2.584.255-5.172.485-7.781.813-5.212.65-10.484 1.482-15.813 2.375-1.635.274-3.292.519-4.938.813-1.577.281-3.134.577-4.719.875-15.14 2.84-30.69 6.412-46.44 10.06-4.45 1.031-8.92 2.069-13.406 3.094-3.69.843-7.374 1.651-11.09 2.469-13.725 3.02-27.679 5.806-41.969 7.875.058.038.098.087.156.125-3.294.488-6.574.911-9.906 1.313-3.605.434-7.255.834-10.906 1.156-8.516.751-17.14 1.125-25.938 1.125-3.752 0-7.487-.041-11.188-.188h-.063c-1.222-.048-2.44-.124-3.656-.188h-.031c-1.216-.064-2.445-.14-3.656-.219h-.063c-2.44-.158-4.864-.318-7.281-.531 0-.002-.045.002-.063 0-1.201-.106-2.398-.287-3.594-.406 0-.002-.016.002-.031 0-2.409-.239-4.798-.463-7.188-.75 0-.002-.047.002-.063 0-2.388-.287-4.756-.606-7.125-.938 0-.002-.047.002-.063 0-2.369-.331-4.71-.693-7.06-1.063 0-.002-.047.002-.063 0-2.352-.37-4.696-.782-7.03-1.188 0-.002-.016.002-.031 0-2.335-.405-4.649-.846-6.969-1.281 0-.004-.049.004-.063 0-11.656-2.187-23.13-4.721-34.438-7.313 0-.004-.018.004-.031 0-4.531-1.04-9.04-2.055-13.531-3.094-11.205-2.596-22.299-5.165-33.22-7.438 0-.004-.049.004-.063 0-2.174-.452-4.342-.914-6.5-1.344 0-.004-.018.004-.031 0-.643-.127-1.296-.28-1.938-.406-3.697-.722-7.351-1.363-11-2-2.126-.371-4.265-.725-6.375-1.063 0-.002-.047.002-.063 0-4.232-.675-8.437-1.356-12.594-1.875 0-.002-.016.002-.031 0-2.069-.258-4.137-.442-6.188-.656 0-.002-.014.002-.031 0-2.048-.213-4.097-.428-6.125-.594 0-.002-.045.002-.063 0-3.049-.249-6.07-.463-9.06-.594h-.031c-1.992-.086-4-.126-5.969-.156h-.063c-.993-.016-1.951-.031-2.938-.031h-.031z" fill="#fff"/><path d="m-20.594 594.09c-3.303 0-6.66.087-10.03.25 2.01 28.24 4.805 56.38 9.656 84.25 3.267 18.764 7.269 37.48 12.25 55.906 2.259.093 4.511.199 6.75.344h.063c2.436.158 4.866.349 7.281.563 0 .002.045-.002.063 0 30.394 2.681 59.12 9.507 87.16 16 4.488 1.041 8.956 2.084 13.406 3.094 0 .004.049-.004.063 0 4.435 1.01 8.861 2.02 13.25 2.969 6.605 1.427 13.148 2.754 19.625 3.969 2.158.405 4.263.813 6.406 1.188 0 .002.049-.002.063 0 2.126.371 4.266.725 6.375 1.063 2.124.34 4.237.636 6.344.938 2.107.302 4.195.614 6.281.875 0 .002.016-.002.031 0 2.069.258 4.169.504 6.219.719 2.066.216 4.142.364 6.188.531 2.045.167 4.01.354 6.03.469h.063c.993.056 2.01.083 3 .125 1.01.044 2 .095 3 .125.999.029 1.975.047 2.969.063h.031c.974.014 1.999 0 2.969 0 23.684 0 49.18-4.354 75.59-10.06 8.805-1.903 17.713-3.983 26.688-6.06.25-.058.5-.098.75-.156.853-.198 1.705-.396 2.563-.594 3.618-.838 7.261-1.667 10.906-2.5 4.303-.985 8.623-1.988 12.969-2.938 2.304-.503 4.59-.981 6.906-1.469.18-.038.349-.087.531-.125 2.124-.444 4.269-.854 6.406-1.281 2.313-.464 4.634-.938 6.969-1.375.144-.027.262-.035.406-.063.87-.163 1.753-.342 2.625-.5 1.46-.264 2.938-.499 4.406-.75 2.211-.381 4.429-.744 6.656-1.094.055-.007.101-.054.156-.063 2.314-.363 4.637-.675 6.969-1 .11-.014.203-.078.313-.094 2.277-.314 4.579-.536 6.875-.813 1.503-.181 2.989-.368 4.5-.531 1.405-.152 2.838-.302 4.25-.438 1.836-.177 3.652-.356 5.5-.5.717-.056 1.437-.137 2.156-.188.606-.042 1.205-.055 1.813-.094.391-.025.795-.009 1.188-.031.841-.048 1.691-.113 2.531-.156 3.702-.194 7.43-.318 11.188-.375 1.139-.016 2.291-.059 3.438-.063v-140.12c-.919-.002-1.86-.014-2.781 0-.196.004-.396.029-.594.031-1.244.023-2.496.08-3.75.125-1.014.036-2.043.043-3.063.094-.818.04-1.645.108-2.469.156-.606.036-1.203.084-1.813.125-1.362.091-2.721.199-4.094.313-1.287.108-2.548.246-3.844.375-2.584.255-5.172.485-7.781.813-5.212.65-10.484 1.482-15.813 2.375-1.635.274-3.292.519-4.938.813-1.577.281-3.134.577-4.719.875-15.14 2.84-30.69 6.412-46.44 10.06-4.45 1.031-8.889 2.069-13.375 3.094-3.69.843-7.405 1.651-11.125 2.469-13.725 3.02-27.679 5.806-41.969 7.875.058.038.098.087.156.125-3.294.488-6.574.911-9.906 1.313-3.605.434-7.224.834-10.875 1.156-8.516.751-17.18 1.125-25.969 1.125-3.752 0-7.487-.041-11.188-.188h-.063c-1.222-.048-2.409-.124-3.625-.188h-.063c-1.216-.064-2.445-.14-3.656-.219h-.063c-2.44-.158-4.864-.318-7.281-.531 0-.002-.045.002-.063 0-1.201-.106-2.398-.287-3.594-.406 0-.002-.016.002-.031 0-2.409-.239-4.798-.463-7.188-.75 0-.002-.047.002-.063 0-2.388-.287-4.756-.606-7.125-.938 0-.002-.047.002-.063 0-2.369-.331-4.71-.693-7.06-1.063 0-.002-.047.002-.063 0-2.352-.37-4.696-.782-7.03-1.188 0-.002-.016.002-.031 0-2.335-.405-4.649-.846-6.969-1.281 0-.004-.049.004-.063 0-11.656-2.187-23.1-4.721-34.406-7.313 0-.004-.049.004-.063 0-4.531-1.039-9.01-2.054-13.5-3.094-11.205-2.596-22.33-5.165-33.25-7.438 0-.004-.05.004-.063 0-2.174-.452-4.31-.914-6.469-1.344 0-.004-.05.004-.063 0-.643-.127-1.296-.28-1.938-.406-3.697-.722-7.351-1.363-11-2-2.126-.371-4.265-.725-6.375-1.063 0-.002-.016.002-.031 0-4.233-.675-8.468-1.356-12.625-1.875 0-.002-.016.002-.031 0-2.069-.258-4.137-.442-6.188-.656 0-.002-.014.002-.031 0-2.048-.213-4.097-.428-6.125-.594 0-.002-.046.002-.063 0-3.049-.249-6.07-.463-9.06-.594h-.031c-1.992-.086-4-.126-5.969-.156h-.031c-.993-.016-1.982-.031-2.969-.031h-.031z" fill="#0f47af"/></g><g fill="none"><path d="m719.98 2.364c-26.17.053-51.02.198-70.798.478-79.11 1.122-156.7-.214-235.05 0-2.653.007-5.305.036-7.958.043-78.35.214-155.94 1.122-235.05 0-79.11-1.122-239.53 0-239.53 0 0 0 4.995 48.18 6.784 72.32 3.067 41.38 4.256 82.87 6.784 124.29 3.405 55.766 7.902 111.49 11.307 167.25 2.529 41.41 3.91 82.9 6.784 124.29 4.346 62.59 5.02 125.75 15.786 187.56 6.02 34.562 14.418 68.979 27.14 101.67 15.355 39.473 33.473 78.71 58.839 112.63 18.288 24.456 41.648 45.04 65.884 63.62 27.747 21.272 57.962 39.816 89.93 53.968 33.818 14.97 69.917 25.08 106.24 32.09 27.334 5.278 55.35 7.255 83.19 7.349 27.662.094 55.55-1.52 82.71-6.741 36.46-7.01 72.54-17.626 106.46-32.746 31.934-14.235 62.23-32.696 89.98-53.968 24.24-18.58 47.595-39.17 65.884-63.62 25.365-33.919 43.484-73.16 58.839-112.63 12.718-32.695 21.12-67.16 27.14-101.72 10.762-61.814 11.44-124.97 15.786-187.56 2.874-41.39 4.256-82.87 6.784-124.29 3.405-55.766 7.902-111.44 11.307-167.21 2.529-41.41 3.717-82.909 6.784-124.29 1.79-24.14 6.784-72.32 6.784-72.32 0 0-90.24-.636-168.73-.478z" stroke-width="20"/><path d="m410.15 2.181v1055.26" stroke-width="5"/></g></g><g font-family="Sans" text-anchor="middle" text-align="center" word-spacing="0" line-height="125%" letter-spacing="0"><text x="489.89" y="1027.75" transform="matrix(1.02367.13172-.14063.95878 0 0)" fill="#050505" font-size="6.125"><tspan x="489.89" y="1027.75">Christian Duscha</tspan></text><text x="126.07" y="1259.77" transform="matrix(1.10302-.21685.28094.85137 0 0)" fill="#090307" font-size="5.409"><tspan x="126.07" y="1259.77">Gleiwitz-Essen-Landshut</tspan></text></g><g transform="translate(1.252)" fill="none" stroke="#000" stroke-linecap="round" stroke-width="5"><path d="m82.69 665.4c0 0 30.02 12.809 45.826 17.22 14.899 4.16 30.23 8.06 45.826 8.61 15.07.534 29.977-3.04 44.869-5.166 11.836-1.689 35.32-6.03 35.32-6.03"/><path d="m121.19 656.41c0 0 16.566 5.991 25.291 8.05 8.227 1.945 16.686 3.769 25.291 4.03 8.315.25 16.545-1.423 24.765-2.417 6.532-.791 19.495-2.82 19.495-2.82"/><path d="m111.57 709.8c0 0 19.929 7.696 30.424 10.346 9.897 2.499 20.07 4.841 30.424 5.173 10 .32 19.902-1.826 29.784-3.103 7.858-1.015 23.452-3.621 23.452-3.621"/><g transform="matrix(-1 0 0 1 144.85 270.48)"><path d="m-590.25 394.91c0 0 30.02 12.809 45.826 17.22 14.899 4.16 30.23 8.06 45.826 8.61 15.07.534 29.977-3.04 44.869-5.166 11.836-1.689 35.32-6.03 35.32-6.03"/><path d="m-551.75 385.93c0 0 16.566 5.991 25.291 8.05 8.227 1.945 16.686 3.769 25.291 4.03 8.315.25 16.545-1.423 24.765-2.417 6.532-.791 19.495-2.82 19.495-2.82"/><path d="m-561.37 439.31c0 0 19.929 7.696 30.424 10.346 9.897 2.499 20.07 4.841 30.424 5.173 10 .32 19.902-1.826 29.784-3.103 7.858-1.015 23.452-3.621 23.452-3.621"/></g></g><g stroke-width="5"><g stroke="#000"><path d="m748.64 188.64c-8.956.016-17.463.06-24.23.145-27.08.34-53.635-.065-80.45 0-.908.002-1.816.011-2.724.013-26.817.065-53.38.34-80.45 0-27.08-.34-81.985 0-81.985 0 0 0 1.709 14.599 2.322 21.916 1.05 12.539 1.457 25.11 2.322 37.665 1.165 16.899 2.705 33.786 3.87 50.685.865 12.55 1.338 25.12 2.322 37.665 1.487 18.968 1.72 38.11 5.403 56.84 2.06 10.474 4.935 20.904 9.288 30.812 5.256 11.962 11.457 23.854 20.14 34.13 6.26 7.411 14.255 13.65 22.55 19.28 9.497 6.446 19.839 12.07 30.782 16.355 11.575 4.537 23.931 7.6 36.36 9.726 9.356 1.599 18.946 2.198 28.474 2.227 9.468.029 19.01-.461 28.311-2.043 12.479-2.123 24.828-5.341 36.438-9.924 10.93-4.314 21.299-9.908 30.797-16.355 8.295-5.631 16.291-11.869 22.55-19.28 8.682-10.279 14.883-22.17 20.14-34.13 4.353-9.908 7.229-20.351 9.288-30.825 3.683-18.732 3.916-37.871 5.403-56.84.984-12.544 1.457-25.11 2.322-37.665 1.165-16.899 2.705-33.773 3.87-50.672.865-12.55 1.272-25.13 2.322-37.665.613-7.317 2.322-21.916 2.322-21.916 0 0-30.886-.193-57.753-.145z" fill="#fff"/><path d="m496.52 285c.342 4.492.691 8.97.994 13.463.81 12.02 1.273 24.04 2.193 36.05 1.392 18.16 1.612 36.487 5.058 54.42 1.927 10.03 4.611 20.01 8.683 29.5 4.917 11.452 10.706 22.83 18.829 32.671 5.856 7.095 13.348 13.07 21.11 18.46 8.885 6.172 18.561 11.571 28.798 15.677 10.829 4.343 22.371 7.27 34 9.305 8.753 1.531 17.75 2.097 26.664 2.124 8.858.027 17.79-.43 26.489-1.945 11.675-2.033 23.23-5.127 34.09-9.514 10.226-4.13 19.913-9.476 28.798-15.647 7.761-5.391 15.253-11.364 21.11-18.46 8.123-9.841 13.912-21.22 18.829-32.671 4.073-9.486 6.757-19.502 8.683-29.529.721-3.75 1.305-7.501 1.783-11.279h-143.12v-92.63h-143z" stroke-linejoin="round" stroke-linecap="round"/><path d="m283.75 188.63c-8.956.016-17.463.06-24.23.145-27.08.34-53.635-.065-80.45 0-.908.002-1.816.011-2.724.013-26.817.065-53.38.34-80.45 0-27.08-.34-81.985 0-81.985 0 0 0 1.71 14.599 2.322 21.916 1.05 12.539 1.457 25.11 2.322 37.665 1.165 16.899 2.705 33.786 3.87 50.685.866 12.55 1.338 25.12 2.322 37.665 1.487 18.968 1.72 38.11 5.403 56.84 2.059 10.474 4.935 20.904 9.288 30.812 5.256 11.962 11.457 23.854 20.14 34.13 6.26 7.411 14.255 13.65 22.55 19.28 9.497 6.446 19.839 12.07 30.782 16.355 11.575 4.537 23.931 7.6 36.36 9.726 9.356 1.599 18.946 2.198 28.474 2.227 9.468.029 19.01-.461 28.311-2.043 12.479-2.123 24.828-5.341 36.438-9.924 10.93-4.314 21.299-9.908 30.797-16.355 8.295-5.631 16.291-11.869 22.55-19.28 8.682-10.279 14.883-22.17 20.14-34.13 4.353-9.908 7.229-20.351 9.288-30.825 3.683-18.732 3.916-37.871 5.403-56.84.984-12.544 1.457-25.11 2.322-37.665 1.165-16.899 2.705-33.773 3.87-50.672.865-12.55 1.272-25.13 2.322-37.665.613-7.317 2.322-21.916 2.322-21.916 0 0-30.886-.193-57.753-.145z" fill="none"/></g><g stroke-linecap="round"><g fill="#fcdd09" stroke="#000009" stroke-linejoin="round"><path d="m94.16 238.47v86.72h13.438v-86.72h-13.438z"/><path d="m256.25 250.12v21.313l-9.781-3.313-.906 2.688v16.875c0 1.261-.079 2.497-.219 3.719l58.5 19.781 7.156-21.25-14.188-4.781v-35.03h-40.563z"/><path d="m61.5 355.72v67.19h78.78v-67.19h-78.78z"/></g><g fill="none" stroke="#fcdd09"><path d="m59.49 355.72h-14.185"/><path d="m156.46 355.72h-14.185"/><path d="m57.49 371.9v-26.998"/><path d="m144.28 371.9v-26.998"/></g></g><g fill="none" stroke="#000"><g stroke-linecap="square"><path d="m64.68 366.94h72.42"/><path d="m64.68 411.14h72.42"/></g><g transform="translate(2.061)"><path d="m98.83 367.33v42.874"/><path d="m85.17 367.33v42.874"/><path d="m112.49 367.54v42.463"/><path d="m126.16 367.54v42.463"/><path d="m71.5 367.13v43.29"/></g></g></g><g fill="none"><g stroke-linecap="round"><g stroke="#000" stroke-width="3"><path d="m61.49 371.9v-30.998"/><path d="m140.28 371.9v-30.998"/></g><g transform="translate(1.491)" stroke="#fcdd09" stroke-width="9"><path d="m65.43 347.42c0 0 4.214-.282 5.792-1.502 3.951-3.054 4.875-8.717 7.294-13.09 1.581-2.856 2.729-5.994 4.72-8.581 1.326-1.724 2.732-3.621 4.72-4.505 2.621-1.166 8.581-.644 8.581-.644"/><path d="m133.34 347.42c0 0-4.214-.282-5.792-1.502-3.951-3.054-4.875-8.717-7.294-13.09-1.581-2.856-2.729-5.994-4.72-8.581-1.326-1.724-2.732-3.621-4.72-4.505-2.621-1.166-8.581-.644-8.581-.644"/></g></g><g stroke="#000" stroke-width="3"><path d="m189.64 429.58v62.857"/><path d="m222.09 422.11v62.857"/><g stroke-linecap="round"><path d="m213.96 433.85v-125.04"/><path d="m240.49 279.84l68.01 22.955"/><path d="m272.88 250.02v28.532"/><path d="m242.74 268.37l68.01 22.955"/></g></g></g></g></svg>