<?xml version="1.0" encoding="utf-8"?>
<!-- Generator: Adobe Illustrator 16.0.3, SVG Export Plug-In . SVG Version: 6.00 Build 0)  -->
<!DOCTYPE svg PUBLIC "-//W3C//DTD SVG 1.1//EN" "http://www.w3.org/Graphics/SVG/1.1/DTD/svg11.dtd">
<svg version="1.1" id="Wappen_Naunhof" xmlns="http://www.w3.org/2000/svg" xmlns:xlink="http://www.w3.org/1999/xlink" x="0px"
	 y="0px" width="510px" height="610px" viewBox="0 0 510 610" enable-background="new 0 0 510 610" xml:space="preserve">
<path fill-rule="evenodd" clip-rule="evenodd" d="M505,358.901C505,494.817,393.071,605,254.999,605
	C116.928,605,5,494.817,5,358.901V5h500V358.901z"/>
<path fill-rule="evenodd" clip-rule="evenodd" fill="#DD2222" d="M256.327,14.69c-2.172,0-3.872,1.823-3.871,3.811
	c0,2.821,0,3.185,0,4.471c0,0.709-0.397,1.199-1.034,1.431c-6.913,2.517-8.831,9.204-8.837,11.237
	c-0.426,0.025-0.97,0.876-0.97,1.482c0,0.636,0.596,1.487,0.97,1.481c0.006,1.282,1.181,7.968,8.55,11.137
	c0.397,0.148,0.928,0.541,0.721,0.986c-0.676,1.898-1.809,3.846-3.058,5.691c-2.681,3.959-67.234,95.138-68.948,98.3
	c-0.752,1.388-1.763,1.723-3.411,1.109c-4.259-1.588-8.338,0.004-12.478,0.489c-1.034,0.121-1.803,0.754-1.827,1.913
	c-0.036,5.477-0.02,20.716,0,28.607c0.002,1.047-0.041,2.081,0.318,3.092c0.556,1.568,1.123,1.928,2.781,1.568
	c0.772-0.167,1.501-0.525,2.272-0.705c1.832-0.428,2.44,0.052,2.439,1.903c-0.001,1.392-0.131,2.778,0.062,4.173
	c0.175,1.264,0.85,1.792,2.121,1.829c1.874,0.056,2.323,0.459,2.549,2.115c0.058,0.427,0.008,0.869,0.018,1.303
	c0.076,3.358,1.081,4.133,4.46,3.44c1.858-0.381,3.61,0.347,3.609,2.055c-0.004,7.611-0.02,62.125,0,70.713
	c0.005,2.745-0.712,4.145-2.955,5.377c-2.246,1.233-3.244,4.08-2.594,6.5c0.18,0.669,0.343,1.383,0.71,1.956
	c0.751,1.172,0.563,2.286,0.138,3.489c-1.31,3.701-0.262,6.771,2.704,9.271c1.44,1.214,2.008,2.709,1.997,4.588
	c-0.013,11.294,0.001,47.961,0,54.497c0.005,2.396-0.099,3.077-2.212,3.07c-3.089,0-9.26,0-12.168,0
	c-1.896,0-2.212,0.398-2.212,2.723c0,2.775,0,26.549,0,29.401c0,1.793-0.282,2.182-2.212,2.178c-6.729,0-19.918,0-26.549,0
	c-1.873,0-2.226-0.352-2.212-2.178c0.01-1.372,0-27.915,0-29.867c0-1.961-0.393-2.257-2.212-2.257c-7.396,0-26.313,0-34.292,0
	c-1.879,0-2.208,0.193-2.212,2.178c0,4.922,0,25.682,0,29.946c0,1.725-0.289,2.182-2.212,2.178c-3.711,0-20.685,0.004-26.549,0
	c-1.775-0.002-2.211-0.453-2.212-2.178c0.001-4.639-0.021-23.678,0-29.401c0.001-2.257-0.358-2.723-2.212-2.723
	c-6.131,0-27.874,0-34.292,0c-1.914,0-2.212,0.313-2.212,2.178c0,2.897,0,27.44,0,29.946c0,1.81-0.289,2.182-2.212,2.178
	c-1.585,0-6.65,0-9.13,0c-0.734-3.815-3.813-20.888-3.813-42.471c0-9.367,0-347.366,0-347.366h486.725c0,0,0,340.348,0,347.366
	c0,21.617-2.868,36.777-3.813,42.471c-2.529,0-6.838,0-8.688,0c-1.913,0-2.212-0.464-2.212-2.178c0-4.684,0-24.943,0-29.946
	c0-1.848-0.276-2.178-2.213-2.178c-3.748,0-27.093,0-34.292,0c-1.936,0-2.212,0.33-2.212,2.178c0,4.322,0,25.852,0,29.946
	c0,1.599-0.266,2.178-2.213,2.178c-6.35,0-20.326,0-26.548,0c-1.798,0-2.213-0.396-2.213-2.178c0-4.571,0-26.938,0-30.001
	c0-1.77-0.3-2.123-2.212-2.123c-6.173,0-27.594,0-34.566,0c-1.523,0-1.938,0.375-1.938,2.178c0,5.281,0,26.192,0,29.946
	c0,1.871-0.323,2.178-2.212,2.178c-4.592-0.005-21.411,0-26.549,0c-1.799,0-2.213-0.442-2.213-2.178
	c0.01-3.73,0.026-23.287,0-29.946c-0.009-1.911-0.277-2.178-2.212-2.178c-3.541,0-7.652,0-11.063,0c-2.19,0-3.21-0.929-3.208-2.722
	c0.001-5.955,0.001-48.876,0-54.005c0.016-2.205,0.542-3.774,1.648-5.589c1.244-2.043,1.796-4.61,1.082-7
	c-0.412-1.382-0.252-2.538,0.096-3.777c0.259-0.919,0.678-1.794,0.936-2.714c0.955-3.421,0.446-6.462-2.471-8.851
	c-0.857-0.703-1.291-1.827-1.291-3.002c0-11.224-0.006-63.746,0-70.78c-0.027-0.98-0.171-1.578,0.289-2.126
	c0.76-0.546,1.477-0.075,2.236,0.085c2.836,0.6,4.15-0.381,4.269-3.257c0.049-1.208,0.028-2.406,0.354-3.675
	c1.513-0.423,2.972,0.041,4.411,0.097c1.796,0.07,2.201-0.106,2.364-1.842c0.097-1.035,0.042-2.085,0.025-3.129
	c-0.018-1.076,0.139-2.077,1.098-2.907c0.981,0.099,2.017,0.232,3.056,0.299c1.219,0.078,2.366-0.332,2.363-1.697
	c-0.02-8.4,0.003-23.01,0-30.39c-0.001-1.751-0.484-2.889-1.809-3.07c-2.967-0.403-5.941-0.751-8.917-1.086
	c-0.604-0.067-1.341-0.181-1.823,0.078c-1.703,0.913-2.729,0.227-3.835-1.062c-0.864-1.008-1.588-2.088-2.276-3.188
	c-12.813-18.337-51.93-74.455-66.465-95.279c-1.703-2.439-2.438-4.814-2.67-5.393c-0.254-0.516-0.369-0.863,0.483-1.129
	c7.266-2.568,9.132-9.596,9.129-11.354c0.436-0.012,0.971-0.845,0.971-1.481c0-0.742-0.345-1.474-0.971-1.482
	c0.003-2.493-2.399-8.72-8.53-11.119c-0.851-0.309-1.347-0.69-1.34-1.549c0.01-1.355,0-2.313,0-4.471
	C260.199,16.232,258.227,14.69,256.327,14.69z"/>
<path fill-rule="evenodd" clip-rule="evenodd" fill="#FFFFFF" d="M254.114,173.783c-0.001,1.828-0.503,2.33-2.941,2.646
	s-82.05,10.646-83.168,10.778c-1.119,0.133-2.054,0.198-2.054-1.445c0-10.264,0-18.182,0-26.134c0-0.918,0.219-1.039,1.024-1.144
	c1.519-0.198,2.996-0.387,4.602-0.596c1.279-0.166,1.785-0.114,1.785,0.558c-0.001,4.693-0.006,10.087,0,14.793
	c0.001,1.402,0.136,1.824,1.977,1.584s6.525-0.845,8.068-1.046c1.544-0.2,1.57-1.076,1.57-2.36c-0.001-4.88-0.001-10.778,0-13.967
	c0-1.167,0.038-1.302,0.99-1.426c1.671-0.217,3.143-0.407,4.758-0.617c1.358-0.177,1.552-0.107,1.553,0.954
	c0.004,3.393,0.004,9.949,0,13.612c-0.002,2.083,0.048,2.649,2.366,2.349c2.64-0.342,5.796-0.715,9.063-1.175
	c1.581-0.205,1.842-0.483,1.845-2.807c0.005-3.84,0.02-10.128,0-13.421c-0.007-1.154,0.494-1.497,1.493-1.627
	c2.079-0.269,3.047-0.395,5.108-0.662c1.284-0.167,1.418-0.08,1.418,1.669c0,4.485-0.025,7.633,0,12.407
	c0.015,2.814,0.236,3.132,2.622,2.823c2.637-0.342,4.719-0.627,7.86-1.019c1.743-0.226,1.743-1.159,1.741-3.438
	c-0.004-3.583-0.007-8.245,0-11.709c0.004-2.044,0.236-2.502,1.549-2.702c0.845-0.142,2.507-0.326,4.405-0.571
	c1.269-0.164,1.685,0.065,1.679,1.372c-0.017,3.801-0.006,8.31,0,13.611c0.002,1.981,0.11,2.208,2.108,1.949
	c2.607-0.337,4.949-0.642,7.949-1.03c2.585-0.335,2.548-1.311,2.553-4.091c0.009-4.086,0.009-7.717,0-11.646
	c-0.003-1.663-0.041-2.021,1.408-2.201c1.265-0.163,3.215-0.415,5.409-0.699c1.18-0.153,1.26,0.03,1.258,1.384
	C254.108,153.899,254.118,169.145,254.114,173.783z"/>
<path fill-rule="evenodd" clip-rule="evenodd" fill="#FFFFFF" d="M319.385,156.059c1.272,0.178,3.644,0.508,5.086,0.709
	c0.996,0.139,1.106,0.535,1.104,1.77c-0.007,4.572,0.004,8.769,0,13.583c-0.002,1.149,0.066,2.233,1.731,2.465
	c1.773,0.248,7.357,1.026,8.852,1.235c1.351,0.188,2.365-1.337,2.359-2.985c-0.012-3.012-0.007-9.679,0-12.121
	c0.003-1.382,0.04-1.991,1.003-1.848c1.063,0.158,1.863,0.291,2.794,0.39c0.724,0.077,1.182,0.396,1.181,1.102
	c-0.008,4.952-0.002,17.972,0,25.401c0.001,2.338-0.31,2.475-1.51,2.308c-18.057-2.517-61.708-8.603-82.869-11.557
	c-1.688-0.236-2.016-0.58-2.016-2.729c0-11.334,0.009-13.894,0-23.956c-0.002-2.29,0.371-2.406,1.542-2.243
	c1.371,0.191,2.282,0.318,3.511,0.49c1.229,0.172,1.587,0.662,1.585,2.887c-0.005,3.624-0.006,8.861,0,12.758
	c0.002,1.697,0.481,2.067,2.291,2.32c2.363,0.33,4.725,0.659,7.504,1.046c2.07,0.289,2.151-0.403,2.152-2.013
	c0.001-3.073-0.009-10.487,0-13.067c0.006-1.575,0.15-2.021,1.617-1.816s3.732,0.52,5.044,0.704
	c1.312,0.183,1.854,0.422,1.856,2.056c0.002,3.539,0.012,9.086,0,13.398c-0.006,1.881,0.167,2.251,2.602,2.591
	c1.809,0.252,5.357,0.748,7.661,1.069c2.275,0.318,2.896-0.36,2.901-2.451c0.008-4.347,0.006-8.941,0-12.827
	c-0.003-1.439,0.256-1.704,1.57-1.495c1.691,0.21,2.87,0.375,4.852,0.651c0.848,0.118,1.109,0.31,1.1,1.933
	c-0.02,3.12-0.048,10.599,0,13.28c0.033,1.899,0.23,2.396,2.557,2.72c1.968,0.274,4.683,0.611,6.86,0.957
	c2.346,0.327,3.407-0.884,3.415-2.803c0.015-3.252,0.004-9.491,0-11.977C317.719,156.032,317.9,155.852,319.385,156.059z"/>
<path fill-rule="evenodd" clip-rule="evenodd" fill="#FFFFFF" d="M172.868,191.477c19.515-2.43,57.513-7.454,80.94-10.49
	c0.586-0.076,1.308,3.642,0.195,3.786c-20.668,2.679-51.476,6.671-80.859,10.479C172.284,195.363,172.248,191.557,172.868,191.477z"
	/>
<path fill-rule="evenodd" clip-rule="evenodd" fill="#FFFFFF" d="M178.32,199.481c20.462-2.651,53.646-6.962,75.596-9.797
	c0.708-0.092,0.635,2.64-0.244,2.753c-25.08,3.25-50.96,6.617-75.505,9.786C177.281,202.338,177.01,199.651,178.32,199.481z"/>
<path fill-rule="evenodd" clip-rule="evenodd" fill="#FFFFFF" d="M249.571,272.955c-14.931,1.816-52.236,6.757-57.712,7.524
	c-4.371,0.825-5.222,0.01-5.222-2.159c0-14.847,0-57.451,0-69.691c0.075-2.175,0.176-2.607,3.006-2.989
	c9.914-1.306,48.855-6.384,61.423-7.813c2.658-0.088,3.055,0.23,3.049,2.524c-0.029,13.577,0.001,51.688,0,68.28
	C254.119,271.776,253.307,272.275,249.571,272.955z"/>
<path fill-rule="evenodd" clip-rule="evenodd" d="M208.156,265.381c-3.017,0.397-3.82-0.765-3.82-3.174
	c-0.001-8.67,0-31.606,0-39.967c0-2.46,0.282-2.587,2.58-2.869c7.455-0.915,20.181-2.51,26.826-3.364
	c2.407-0.309,2.672-0.314,2.674,2.784c0.004,6.773,0.001,32.704,0,40.34c0,2.271-0.274,2.361-2.409,2.665
	C227.295,262.751,214.8,264.507,208.156,265.381z"/>
<path fill-rule="evenodd" clip-rule="evenodd" fill="#DD2222" d="M233.429,226.586c0,8.031,0,21.506,0,28.448
	c0,3.63-0.26,3.863-3.006,4.229c-3.665,0.49-10.601,1.418-14.447,1.96c-2.952,0.415-3.229,0.699-3.232-2.247
	c-0.007-6.212-0.013-24.497,0-28.395c0.008-2.592,0.121-2.894,2.595-3.254c3.825-0.557,11.71-1.787,15.845-2.366
	C232.968,224.712,233.429,225.043,233.429,226.586z"/>
<path fill-rule="evenodd" clip-rule="evenodd" fill="#FFFFFF" d="M322.699,210.807c0.032,12.785,0.032,55.797,0,65.381
	c0.032,6.341-1.607,5.811-2.366,5.702c-6.277-0.978-52.276-7.528-61.055-8.731c-1.429-0.311-2.49-0.903-2.397-2.445
	c-0.045-6.696-0.045-61.868,0-67.529c-0.003-6.159,0.816-5.438,3.629-5.063c7.387,0.947,48.678,6.754,55.922,7.784
	C322.22,206.696,322.723,206.453,322.699,210.807z"/>
<path fill-rule="evenodd" clip-rule="evenodd" d="M274.58,218.021c0.005-2.017,0.891-2.817,3.029-2.49
	c6.577,1.004,21.116,3.185,26.311,3.983c1.906,0.293,2.512,1.198,2.518,3.114c0.029,8.858,0.011,29.957,0,39.958
	c-0.003,2.929-0.368,3.124-2.978,2.776c-6.769-0.902-17.551-2.434-26.239-3.702c-1.875-0.274-2.636-1.207-2.641-2.828
	C274.543,248.296,274.547,229.852,274.58,218.021z"/>
<path fill-rule="evenodd" clip-rule="evenodd" fill="#DD2222" d="M297.588,259.112c-0.008,2.115-0.216,2.489-2.274,2.208
	c-4.108-0.561-10.209-1.35-14.48-1.936c-2.732-0.375-2.937-0.812-2.935-3.932c0.004-6.984,0.004-22.787,0-29.204
	c-0.001-1.97,0.659-2.072,3.196-1.683c4.646,0.711,9.405,1.425,14.334,2.179c1.369,0.209,2.155,0.549,2.159,2.509
	C297.604,236.522,297.619,251.699,297.588,259.112z"/>
<path fill-rule="evenodd" clip-rule="evenodd" fill="#FFFFFF" d="M302.334,262.157c-1.203-0.234-1.427-0.342-1.427-1.26
	c-0.003-9.488-0.002-22.378,0-32.98c0-1.055,0.041-1.149,1.319-1.78c1.205-0.595,1.332-0.484,1.334,1.003
	c0.01,7.477,0.002,22.813,0,34.301C303.561,262.384,303.385,262.362,302.334,262.157z"/>
<path fill-rule="evenodd" clip-rule="evenodd" fill="#FFFFFF" d="M254.114,364.347c0.024,2.031-1.627,2.716-2.766,2.722
	c-3.683,0.02-9.383,0-13.274,0c-1.948,0-2.212,0.279-2.212,2.178c0,1.079,0,24.439,0,29.946c0,1.86-0.289,2.18-2.212,2.178
	c-5.116,0-16.501,0-26.549,0c-1.896,0.002-2.211-0.283-2.212-2.178c-0.002-7.378,0.001-25.091,0-29.946
	c0.001-1.729-0.254-2.178-2.212-2.178c-2.672,0-10.279,0-14.22,0c-1.563,0-1.82-0.6-1.82-2.722c0-6.045,0-44.884,0-52.929
	c0-3.208,0.483-4.236,4.447-4.715c4.524-0.545,49.133-6.387,58.027-7.727c4.012-0.54,5.009-1.655,5.003,4.945
	C254.049,313.474,254.139,358.392,254.114,364.347z"/>
<path fill-rule="evenodd" clip-rule="evenodd" d="M236.305,314.799c0.006,9.314,0.007,28.37,0,38.794
	c-0.001,2.125-0.213,2.797-2.602,3.131c-7.918,1.104-16.978,2.378-25.064,3.484c-3.313,0.452-4.197,0.065-4.192-2.91
	c0.013-7.459-0.007-29.851,0-37.618c0.003-2.952,0.06-3.402,3.322-3.807c6.63-0.822,18.73-2.316,24.649-3.069
	C235.542,312.406,236.303,312.291,236.305,314.799z"/>
<path fill-rule="evenodd" clip-rule="evenodd" fill="#DD2222" d="M233.318,322.966c0.016,9.654,0.019,17.481,0,25.806
	c-0.009,3.795-0.849,4.227-4.18,4.711c-4.146,0.602-8.65,1.195-12.257,1.738c-3.293,0.493-3.805,0.425-3.807-3.125
	c-0.005-7.361,0-17.298,0-25.428c0-2.238,0.407-2.469,2.384-2.787c5.162-0.832,10.399-1.678,15.852-2.548
	C232.406,321.158,233.315,321.115,233.318,322.966z"/>
<path fill-rule="evenodd" clip-rule="evenodd" fill="#FFFFFF" d="M321.04,367.068c-3.712,0-9.771,0-13.274,0
	c-1.868,0-2.213,0.398-2.213,2.178c0,5.047,0,26.583,0,29.946c0,1.826-0.254,2.178-2.212,2.178c-4.138,0-19.847,0-26.549,0
	c-1.844,0-2.212-0.397-2.212-2.178c0-4.39,0-25.435,0-29.946c0-1.848-0.318-2.178-2.213-2.178c-2.575,0-8.206,0-12.168,0
	c-2.536,0-3.321-0.782-3.318-2.722c-0.003-9.403-0.003-54.14,0-63.159c-0.045-2.233,0.693-2.252,4.445-1.763
	c6.291,0.82,50.794,7.061,58.764,8.147c2.293,0.287,2.672,0.643,2.72,2.957c0.002,7.753-0.198,45.324,0,53.817
	C322.848,366.014,322.651,367.068,321.04,367.068z"/>
<path fill-rule="evenodd" clip-rule="evenodd" d="M307.102,358.702c-0.002,1.999,0.021,2.737-2.45,2.427
	c-7.668-0.966-19.123-2.425-25.949-3.429c-3.009-0.444-4.34-0.617-4.344-4.001c-0.015-10.28-0.016-26.705,0-37.267
	c-0.034-3.321,0.716-4.387,3.82-3.937c7.572,1.098,18.905,2.792,26.026,3.944c2.159,0.349,2.895,0.281,2.896,3.149
	C307.105,331.35,307.104,352.583,307.102,358.702z"/>
<path fill-rule="evenodd" clip-rule="evenodd" fill="#DD2222" d="M297.81,327.321c0,8.112,0,17.64,0,27.225
	c0,2.21,0,2.438-1.755,2.208c-6.345-0.832-11.273-1.459-15.265-2.104c-2.202-0.357-2.672-0.87-2.672-2.692
	c0-10.173,0-19.52,0-26.814c0-2.697,0.2-2.965,2.567-2.613c5.557,0.826,8.734,1.34,14.445,2.173
	C297.1,324.991,297.81,325.108,297.81,327.321z"/>
<path fill-rule="evenodd" clip-rule="evenodd" fill="#FFFFFF" d="M303.782,356.724c0,1.306-0.328,1.306-1.739,0.762
	c-1.155-0.446-1.138-0.57-1.136-1.851c0.005-8.404-0.004-21.154,0-30.491c0.001-1.644,0.359-1.986,1.338-2.722
	s1.537-1.034,1.537,1.089C303.78,332.438,303.782,347.82,303.782,356.724z"/>
<path fill-rule="evenodd" clip-rule="evenodd" fill="#FFFFFF" d="M253.421,283.396c-27.581,3.575-53.256,6.902-69.209,8.969
	c-3.061,0.397-4.653,0.214-4.651-2.962c0.002-3.54,2.104-4.875,5.093-5.262c17.048-2.21,51.376-6.658,68.747-8.909
	C254.738,275.059,254.77,283.192,253.421,283.396z"/>
<path fill-rule="evenodd" clip-rule="evenodd" fill="#FFFFFF" d="M257.64,283.561c-1.771-0.248-1.611-8.393-0.023-8.171
	c25.083,3.5,49.045,6.845,64.252,8.965c3.959,0.552,5.539,2.496,5.539,4.883c0,2.888-1.2,3.889-4.963,3.364
	C302.057,289.758,280.753,286.796,257.64,283.561z"/>
<path fill-rule="evenodd" clip-rule="evenodd" fill="#FFFFFF" d="M253.527,294.271c-25.387,3.29-50.623,6.562-68.331,8.855
	c-2.635,0.341-3.844-1.184-4.086-3.124c-0.304-2.438,0.701-4.06,2.246-4.26c25.262-3.265,45.754-5.927,70.173-9.094
	C254.556,286.516,254.597,294.133,253.527,294.271z"/>
<path fill-rule="evenodd" clip-rule="evenodd" fill="#FFFFFF" d="M322.398,303.484c-17.713-2.474-46.383-6.471-64.759-9.022
	c-1.415-0.21-1.452-7.839,0.011-7.634c24.474,3.415,41.779,5.817,64.771,9.037c3.717,0.519,3.894,2.431,3.57,4.591
	C325.668,302.613,325.063,303.856,322.398,303.484z"/>
<path fill-rule="evenodd" clip-rule="evenodd" fill="#FFFFFF" d="M257.932,185.053c-1.033-0.144-0.955-3.945-0.006-3.812
	c32.793,4.575,54.846,7.652,79.727,11.124c0.936,0.131,0.829,3.927,0.003,3.813C320.771,193.838,283.458,188.614,257.932,185.053z"
	/>
<path fill-rule="evenodd" clip-rule="evenodd" fill="#FFFFFF" d="M330.614,200.094c0.527,0.074,0.588,2.805-0.018,2.679
	c-34.781-4.812-46.42-6.437-72.983-10.142c-0.596-0.083-0.698-2.82-0.071-2.732C303.167,196.248,285.232,193.762,330.614,200.094z"
	/>
<path fill-rule="evenodd" clip-rule="evenodd" fill="#FFFFFF" d="M272.218,151.468c1.169,1.959,0.481,4.104,0.694,6.126
	c0.203,1.94,0.043,3.918,0.043,5.9c-2.15,0.668-3.699-0.457-5.478-0.549c-0.601-2.935-0.21-5.799-0.434-8.625
	c-0.039-0.498,0.105-1.133,0.681-1.313C269.214,152.54,270.481,151.423,272.218,151.468z"/>
<path fill-rule="evenodd" clip-rule="evenodd" fill="#FFFFFF" d="M293.979,154.584c0.018,4.308,0.481,8.131,0.204,11.865
	c-2.339,0.858-4.235,0.562-6.184-0.396c-0.225-3.023-0.824-6.072,0.214-9.075C290.043,156.254,291.897,155.819,293.979,154.584z"/>
<path fill-rule="evenodd" clip-rule="evenodd" fill="#FFFFFF" d="M308.204,159.519c2.044-0.709,3.923-1.36,5.688-1.973
	c0.829,0.465,0.718,1.115,0.742,1.695c0.125,3.007,0.165,6.013-0.092,9.018c-0.048,0.563-0.141,1.133-0.613,1.341
	c-1.541,0.678-3.1,0.065-4.603-0.224c-0.992-0.19-1.11-1.237-1.115-2.125C308.193,164.748,308.204,162.244,308.204,159.519z"/>
<path fill-rule="evenodd" clip-rule="evenodd" fill="#FFFFFF" d="M335.159,172.47c-2.157,0.844-3.68-0.855-5.526-0.829
	c-0.643-2.647-0.73-5.437-0.658-8.25c0.021-0.818,0.299-1.361,1.019-1.616c1.621-0.572,3.267-1.074,5.046-1.651
	C336.298,164.407,334.827,168.487,335.159,172.47z"/>
<path fill-rule="evenodd" clip-rule="evenodd" fill="#FFDD11" d="M256.997,46.542c-5.246,0-7.224-2.42-8.362-3.819
	c-0.171-0.399-0.48-0.7,0.626-0.7c3.839,0.024,11.721,0,14.131,0c1.107,0,0.848,0.394,0.651,0.668
	c-0.607,0.853-1.501,1.591-2.734,2.473c-0.15-0.155-0.295-0.39-0.438-0.707c-0.448-0.998-0.989-1.043-1.851-0.64
	C257.827,44.377,257.173,45.069,256.997,46.542z"/>
<path fill-rule="evenodd" clip-rule="evenodd" fill="#FFDD11" d="M264.615,36.708c1.072-0.583,2.078-0.914,2.435,0.387
	c0.313,1.136-0.559,1.632-1.593,1.763C264.749,38.204,264.965,37.38,264.615,36.708z"/>
<path fill-rule="evenodd" clip-rule="evenodd" fill="#FFDD11" d="M261.793,36.706c0.292,0.853,0.244,1.508-0.172,2.161
	c-1.587,0.646-3.293,0.629-4.911,0.354c-2.779-0.472-5.566-0.39-8.352-0.441c-0.666-0.013-1.2-0.078-1.675-0.507
	c-0.396-0.359-0.763-0.773-0.603-1.343c0.168-0.597,0.71-0.593,1.246-0.711c3.579-0.792,7.147-0.184,10.714,0.033
	C259.251,36.325,260.508,36.138,261.793,36.706z"/>
<path fill-rule="evenodd" clip-rule="evenodd" fill="#FFDD11" d="M264.824,32.789c0,0.733,0.48,1.068-1.307,1.067
	c-1.689-0.001-12.008,0-14.707,0c-1.461,0-0.992-0.553-0.981-1.065c0.01-0.477,2.938-5.087,8.498-5.087
	C261.979,27.703,264.824,32.391,264.824,32.789z"/>
<path fill-rule="evenodd" clip-rule="evenodd" d="M259.739,32.455c-0.075-0.536,0.087-0.773-0.841-1.022
	c-1.138-0.305-0.641-2.15,0.099-2.214c0.767-0.067,2.546,0.827,2.939,1.533c0.744,1.337,0.043,2.481-1.259,2.263
	C260.202,32.935,259.813,32.991,259.739,32.455z"/>
<path fill-rule="evenodd" clip-rule="evenodd" fill="#FFDD11" d="M255.86,18.209c0.888,0,1.048,0.755,1.104,1.583
	c0.059,0.867,0.012,2.396-0.062,3.3c-0.527-0.136-1.746-0.017-2.268,0.017c-0.087-1.823,0.054-2.475,0.054-3.335
	C254.689,19.009,254.949,18.209,255.86,18.209z"/>
<path fill-rule="evenodd" clip-rule="evenodd" fill="#FFFFFF" d="M189.892,148.973c-0.603,0.91-1.54,2.326-2.198,3.321
	c-0.566,0.855-3.72,1.264-3.046,0.302c0.795-1.136,1.687-2.41,2.535-3.623C187.811,148.077,190.461,148.112,189.892,148.973z"/>
<path fill-rule="evenodd" clip-rule="evenodd" fill="#FFFFFF" d="M190.109,144.792c0.652-0.964,4.056-5.794,4.813-6.876
	c0.421-0.601,2.412-0.187,2.156,0.199c-0.678,1.023-3.304,4.993-4.584,6.927C191.849,146.016,189.458,145.756,190.109,144.792z"/>
<path fill-rule="evenodd" clip-rule="evenodd" fill="#FFFFFF" d="M197.78,133.832c1.642-2.346,3.902-5.575,5.43-7.757
	c0.33-0.471,2.373-0.809,1.611,0.341c-1.563,2.36-3.395,5.128-5.236,7.912C199.277,134.792,196.774,135.269,197.78,133.832z"/>
<path fill-rule="evenodd" clip-rule="evenodd" fill="#FFFFFF" d="M206.395,121.524c1.103-1.577,3.063-4.378,4.362-6.232
	c0.448-0.64,1.807-0.575,1.262,0.249c-0.969,1.464-2.768,4.183-4.24,6.407C207.539,122.309,205.684,122.541,206.395,121.524z"/>
<path fill-rule="evenodd" clip-rule="evenodd" fill="#FFFFFF" d="M214.756,109.596c1.173-1.664,2.649-3.802,3.894-5.582
	c0.173-0.247,1.345-0.524,0.799,0.3c-0.969,1.464-2.111,3.189-3.583,5.414C215.626,110.089,214.198,110.388,214.756,109.596z"/>
<path fill-rule="evenodd" clip-rule="evenodd" fill="#FFFFFF" d="M196.471,150.242c-0.569,0.977-0.842,1.477-1.27,2.204
	c-0.349,0.541-4.202,0.282-3.609-0.643c0.435-0.864,0.8-1.216,1.082-1.655C193.091,149.499,196.927,149.468,196.471,150.242z"/>
<path fill-rule="evenodd" clip-rule="evenodd" fill="#FFFFFF" d="M194.967,146.578c1.012-1.573,2.763-4.295,3.785-5.895
	c0.529-0.828,4.073-1.215,3.512-0.267c-0.958,1.62-2.623,4.448-3.709,6.291C198.118,147.448,194.361,147.52,194.967,146.578z"/>
<path fill-rule="evenodd" clip-rule="evenodd" fill="#FFFFFF" d="M204.486,136.648c-0.568,0.964-3.818,1.053-3.143,0
	c1.146-1.784,4.088-6.364,5.464-8.507c0.524-0.817,3.112-0.708,2.722-0.045C208.28,130.214,205.055,135.685,204.486,136.648z"/>
<path fill-rule="evenodd" clip-rule="evenodd" fill="#FFFFFF" d="M233.541,87.372c-0.767,1.291-21.53,36.542-22.108,37.509
	c-0.578,0.967-2.955,0.659-2.358-0.27c0.597-0.929,3.986-6.208,4.468-6.958c0.482-0.75,0.791-0.59,1.705-0.674
	s1.945-3.081,1.832-3.869c-0.113-0.788,0.019-1,0.355-1.518c0.336-0.518,14.639-22.795,15.569-24.244S234.307,86.081,233.541,87.372
	z"/>
<path fill-rule="evenodd" clip-rule="evenodd" fill="#FFFFFF" d="M201.81,147.962c-0.545,1.004-2.209,3.941-2.983,5.585
	c-0.181,0.384-2.093,0.856-1.386-0.396c1.104-1.958,2.115-3.658,3.46-5.877C201.589,146.139,202.677,146.368,201.81,147.962z"/>
<path fill-rule="evenodd" clip-rule="evenodd" fill="#FFFFFF" d="M203.178,143.133c0.947-1.5,1.958-3.271,3.254-5.521
	c0.904-1.571,1.729-0.797,1.152,0.362c-0.599,1.205-1.922,3.49-3.403,5.594C203.571,144.437,202.396,144.372,203.178,143.133z"/>
<path fill-rule="evenodd" clip-rule="evenodd" fill="#FFFFFF" d="M209.384,132.342c0.734-1.196,1.654-2.649,2.95-4.9
	c0.904-1.571,1.526-1.177,0.908-0.039c-0.817,1.503-1.815,3.178-3.124,5.354C209.233,134.228,208.344,134.04,209.384,132.342z"/>
<path fill-rule="evenodd" clip-rule="evenodd" fill="#FFFFFF" d="M215.19,147.153c0.533,0.217,0.408,2.304-0.633,2.441
	c-3.119,0.413-7.058,0.915-10.85,1.406c0.085-1.253,1.355-2.853,2.31-3.038C209.072,147.372,212.027,146.557,215.19,147.153z"/>
<path fill-rule="evenodd" clip-rule="evenodd" fill="#FFFFFF" d="M219.486,138.128c-0.674,1.734-1.608,4.137-2.22,5.708
	c-0.708,1.819-11.173,2.298-10.64,1.298c0.957-1.796,2.589-4.861,3.279-6.154C210.594,137.688,219.995,136.819,219.486,138.128z"/>
<path fill-rule="evenodd" clip-rule="evenodd" fill="#FFFFFF" d="M224.108,126.244c-0.691,1.776-2.55,6.558-3.176,8.166
	c-0.472,1.212-9.806,2.281-9.132,1.014c0.951-1.786,3.791-7.116,4.385-8.231C217.015,125.637,224.711,124.696,224.108,126.244z"/>
<path fill-rule="evenodd" clip-rule="evenodd" fill="#FFFFFF" d="M225.569,122.489c-0.497,1.277-8.105,2.307-7.006,0.243
	s2.208-4.144,3.119-5.854s4.523-0.609,5.202-2.264c0.606-1.479-2.717-2.364-1.973-3.753c0.744-1.389,1.813-3.316,2.46-4.606
	c0.646-1.29,1.514-1.446,3.217-1.687c1.84-0.259,2.212-2.346,0.964-2.573c-0.917-0.167-2.329,0.727-1.184-1.421
	c0.708-1.331,2.31-4.336,3.073-5.768c0.571-1.072,2.324-0.313,2.845-1.373c0.705-1.432-1.302-1.438-0.69-2.703
	c0.611-1.265,1.135-2.108,2.527-4.671c1.429-2.632,2.584-2.492,1.363,0.647S226.066,121.212,225.569,122.489z"/>
<path fill-rule="evenodd" clip-rule="evenodd" fill="#FFFFFF" d="M221.384,143.944c-0.69,1.956-1.354,3.682-2.132,6.042
	c-0.34,1.032-2.329,0.886-1.925-0.034c0.755-1.721,1.699-4.059,2.656-6.384C220.395,142.567,221.66,143.162,221.384,143.944z"/>
<path fill-rule="evenodd" clip-rule="evenodd" fill="#FFFFFF" d="M224.707,133.638c-0.565,1.587-1.368,4.089-2.131,6.225
	c-0.166,0.464-1.521,0.766-1.109-0.459c0.594-1.769,1.3-3.94,2.115-6.027C223.752,132.938,225.057,132.656,224.707,133.638z"/>
<path fill-rule="evenodd" clip-rule="evenodd" fill="#FFFFFF" d="M225.186,129.269c0.667-1.707,1.743-4.507,2.422-6.201
	c0.247-0.616,1.455-1.513,1.039-0.233c-0.604,1.858-1.75,5.209-2.476,6.836C225.88,130.322,224.618,130.722,225.186,129.269z"/>
<path fill-rule="evenodd" clip-rule="evenodd" fill="#FFFFFF" d="M229.556,118.123c0.533-1.561,1.262-3.316,1.802-4.751
	c0.132-0.351,0.735-0.588,0.478,0.083c-0.646,1.687-1.043,2.931-1.779,4.98C229.861,118.979,229.179,119.227,229.556,118.123z"/>
<path fill-rule="evenodd" clip-rule="evenodd" fill="#FFFFFF" d="M234.821,145.14c-0.042,1.001,0.091,1.505-1.126,1.731
	s-3.65,0.302-5.697,0.5s-3.232,0.675-4.052,1.34c-0.756,0.614-1.107,1.792-1.209,2.545c-0.127,0.941-1.026,1.168-0.772-0.102
	c0.253-1.271,1.221-4.399,1.452-5.059c0.232-0.66,0.272-0.651,1.244-0.727c2.401-0.187,8.231-0.461,9.197-0.503
	S234.834,144.843,234.821,145.14z"/>
<path fill-rule="evenodd" clip-rule="evenodd" fill="#FFFFFF" d="M224.767,142.347c0.722-2.08,1.332-3.834,1.989-5.727
	c0.131-0.484,0.646-0.623,1.532-0.732c2.469-0.305,4.808-0.551,7.296-0.762c1.188-0.101,1.301-0.013,1.187,0.589
	c-0.425,2.224-0.726,3.801-1.101,5.767c-0.122,0.635-0.555,0.714-1.257,0.797c-2.399,0.284-5.172,0.586-8.092,0.936
	C224.567,143.425,224.61,142.797,224.767,142.347z"/>
<path fill-rule="evenodd" clip-rule="evenodd" fill="#FFFFFF" d="M228.925,133.493c-0.733,0.081-0.832-0.729-0.426-1.889
	c0.579-1.656,1.58-4.542,2.21-6.361c0.407-1.174,0.774-1.243,1.904-1.337c1.719-0.143,2.904-0.269,4.54-0.383
	c0.912-0.063,1.977-0.139,1.797,0.78c-0.383,1.95-0.951,4.967-1.293,6.774c-0.203,1.072-0.433,1.377-1.256,1.471
	C234.585,132.756,230.335,133.335,228.925,133.493z"/>
<path fill-rule="evenodd" clip-rule="evenodd" fill="#FFFFFF" d="M232.444,120.246c0.87-2.504,1.171-3.371,1.618-4.656
	c0.491-1.412,1.12-1.577,2.583-1.708c2.927-0.263,3.227-0.854,3.194-1.905c-0.019-0.59-0.845-1.248-2.156-0.979
	c-1.26,0.259-2.172,0.417-1.735-0.838c0.835-2.403,1.569-4.516,2.121-6.102c0.488-1.407,1.574-0.867,2.26-1.199
	c0.686-0.331,1.072-1.141,0.503-1.774s-1.226-1.454-0.881-2.444c0.437-1.257,1.182-3.403,1.611-4.637
	c0.124-0.356,0.394-0.608,0.745-0.646c0.791-0.084,1.113-0.093,1.644-0.082c0.487,0.011,0.917,0.028,0.725,1.034
	c-0.941,4.92-3.384,17.485-4.248,22.233c-0.438,2.301-0.685,3.708-1.893,4.417c-1.091,0.64-3.536,0.682-5.6,0.842
	C232.333,121.849,232.077,121.306,232.444,120.246z"/>
<path fill-rule="evenodd" clip-rule="evenodd" fill="#FFFFFF" d="M243.111,89.543c0.665-1.914,1.388-3.995,1.731-4.982
	s2.117-2.212,1.79-0.498c-0.266,1.394-0.625,3.206-0.993,5.208c-0.093,0.5-0.232,1.208-0.765,1.208c-0.451,0-0.883-0.017-1.384,0
	C243.055,90.495,242.902,90.146,243.111,89.543z"/>
<path fill-rule="evenodd" clip-rule="evenodd" fill="#FFFFFF" d="M240.474,140.053c-0.309,2.254-0.63,4.544-0.963,7.022
	c-0.219,1.637-3.004,0.224-2.807-0.76c0.442-2.207,0.383-1.968,0.852-4.408C237.759,140.846,240.702,138.384,240.474,140.053z"/>
<path fill-rule="evenodd" clip-rule="evenodd" fill="#FFFFFF" d="M241.7,131.103c-0.265,1.925-0.363,2.645-0.67,4.891
	c-0.147,1.074-2.61,1.407-2.369,0.139c0.414-2.167,0.63-3.279,0.957-4.958C239.794,130.269,241.894,129.695,241.7,131.103z"/>
<path fill-rule="evenodd" clip-rule="evenodd" fill="#FFFFFF" d="M240.532,126.402c0.422-2.193,0.811-4.218,1.151-5.989
	c0.125-0.65,1.689-1.503,1.507-0.172c-0.352,2.565-0.615,4.087-0.94,6.435C242.152,127.38,240.13,128.492,240.532,126.402z"/>
<path fill-rule="evenodd" clip-rule="evenodd" fill="#FFFFFF" d="M242.539,115.963c0.311-1.618,0.824-4.044,1.214-6.27
	c0.184-1.046,1.01-0.918,0.865,0.126c-0.308,2.221-0.654,4.624-0.884,6.449C243.662,116.842,242.28,117.31,242.539,115.963z"/>
<path fill-rule="evenodd" clip-rule="evenodd" fill="#FFFFFF" d="M244.531,105.592c0.092-0.479,0.296-1.535,0.454-2.36
	c0.145-0.754,0.681-1.057,0.545-0.065c-0.122,0.89-0.195,1.426-0.308,2.242C245.145,105.981,244.409,106.231,244.531,105.592z"/>
<path fill-rule="evenodd" clip-rule="evenodd" fill="#FFFFFF" d="M242.351,147.947c0.17-1.37,0.36-2.625,0.544-4.095
	c0.196-1.478,9.206-2.172,9.189-1.113c-0.021,1.361,0.176,1.605-1.613,1.764c-1.79,0.159-4.016,0.416-5.498,0.585
	c-1.483,0.169-1.769,0.339-2.001,2.859C242.856,149.184,242.107,149.578,242.351,147.947z"/>
<path fill-rule="evenodd" clip-rule="evenodd" fill="#FFFFFF" d="M244.178,134.192c0.162-1.218,3.6-0.943,5.255-0.984
	c2.029-0.183,2.81-0.441,2.783,1.217c-0.029,1.817-0.005,2.33-0.047,3.483c-0.069,1.594-0.312,1.989-1.352,2.107
	c-2.213,0.251-3.964,0.446-6.157,0.664c-1.128,0.111-1.308-0.28-1.101-1.838C243.812,136.95,244.024,135.352,244.178,134.192z"/>
<path fill-rule="evenodd" clip-rule="evenodd" fill="#FFFFFF" d="M246.772,121.978c1.558-0.089,3.11-0.22,4.564-0.337
	c0.853-0.068,1.063,0.417,1.063,1.191c0,2.042-0.054,3.391-0.094,5.919c-0.015,0.924-0.66,1.899-1.66,1.966
	c-1.729,0.116-2.868,0.189-4.737,0.281c-0.877,0.044-1.274-0.244-1.062-1.85c0.275-2.067,0.492-3.835,0.783-5.896
	C245.718,122.643,245.803,122.033,246.772,121.978z"/>
<path fill-rule="evenodd" clip-rule="evenodd" fill="#FFFFFF" d="M247.465,119.539c-0.968,0.034-1.341,0-1.178-1.221
	c0.212-1.595,0.489-3.416,0.66-4.969c0.146-1.33,0.706-1.069,1.935-1.138c0.935-0.051,1.377-0.107,2.351-0.167
	c0.863-0.053,1.341-0.17,1.327,0.681c-0.034,2.196-0.056,3.543-0.077,4.933c-0.026,1.634-0.489,1.661-1.354,1.702
	C249.405,119.443,248.785,119.493,247.465,119.539z"/>
<path fill-rule="evenodd" clip-rule="evenodd" fill="#FFFFFF" d="M251.947,99.181c-0.369-0.521-1.133-0.667-1.959-0.408
	c-0.761,0.238-1.026-0.573-0.915-1.435c0.197-1.524,0.422-3.193,0.619-4.659c0.087-0.641,0.896-0.689,1.207-0.641
	c0.603,0.095,1.99-0.379,1.977,0.71c-0.103,7.932-0.157,11.128-0.252,15.96c-0.015,0.726-0.115,1.461-0.814,1.336
	c-0.7-0.125-1.815-0.389-2.559-0.678c-0.743-0.29-1.656-0.815-1.554-1.671c0.383-3.166,0.783-5.334,1.3-5.773
	c0.518-0.439,1.394-0.092,2.353-0.659C252.166,100.781,252.316,99.703,251.947,99.181z"/>
<path fill-rule="evenodd" clip-rule="evenodd" fill="#FFFFFF" d="M253.038,82.507c0,1.707-0.048,3.403-0.089,5.619
	c-0.026,1.629-2.849,1.854-2.675,0.54c0.21-1.583,0.416-3.487,0.713-5.73C251.092,82.153,253.061,81.045,253.038,82.507z"/>
<path fill-rule="evenodd" clip-rule="evenodd" fill="#FFFFFF" d="M253.146,75.632c0.026,0.75-0.041,2.62-0.058,3.641
	c-0.007,0.441-1.646,0.227-1.572-0.329c0.148-1.114,0.344-2.589,0.463-3.481C252.132,74.315,253.153,74.238,253.146,75.632z"/>
<path fill-rule="evenodd" clip-rule="evenodd" fill="#FFFFFF" d="M258.535,143.258c0.021,0.747-4.363,1.05-4.355,0.024
	c0.005-0.729,0.017-1.121,0.025-1.702c0.015-0.909,4.173-2.138,4.221-1.292C258.5,141.63,258.512,142.374,258.535,143.258z"/>
<path fill-rule="evenodd" clip-rule="evenodd" fill="#FFFFFF" d="M254.261,137.747c0.022-0.628,0.073-4.468,0.087-5.353
	c0.023-1.534,3.668-2.639,3.71-1.534c0.07,1.843,0.153,3.991,0.232,5.827C258.328,137.576,254.227,138.705,254.261,137.747z"/>
<path fill-rule="evenodd" clip-rule="evenodd" fill="#FFFFFF" d="M257.889,126.318c0.044,1.291-3.475,1.436-3.444-0.526
	c0.029-1.884,0.107-4.664,0.104-5.346c-0.007-1.702,3.04-1.77,3.064-1.166C257.667,120.678,257.817,124.255,257.889,126.318z"/>
<path fill-rule="evenodd" clip-rule="evenodd" fill="#FFFFFF" d="M257.482,115.9c0,1.339-2.896,1.089-2.886,0.387
	c0.018-1.188,0.07-4.538,0.094-6.125c0.018-1.089,2.526-1.193,2.53-0.294C257.287,111.572,257.43,114.08,257.482,115.9z"/>
<path fill-rule="evenodd" clip-rule="evenodd" fill="#FFFFFF" d="M254.761,105.646c0.024-1.588,0.054-3.493,0.081-5.229
	c0.003-1.1,2.009-0.964,2.029-0.429c0.062,1.606,0.174,3.776,0.218,5.681C257.11,106.6,254.744,106.759,254.761,105.646z"/>
<path fill-rule="evenodd" clip-rule="evenodd" fill="#FFFFFF" d="M256.59,92.624c-0.089-2.227-1.594-2.227-1.631,0.184
	c-0.011,0.683-0.006,1.595-0.038,2.955c-0.021,0.856,1.801,0.735,1.789,0.06C256.688,94.621,256.631,93.646,256.59,92.624z"/>
<path fill-rule="evenodd" clip-rule="evenodd" fill="#FFFFFF" d="M256.225,83.207c-0.054-1.414-1.097-1.315-1.119,0.151
	c-0.011,0.683-0.014,1.594-0.046,2.954c-0.021,0.856,1.297,0.675,1.285,0C256.323,85.111,256.264,84.229,256.225,83.207z"/>
<path fill-rule="evenodd" clip-rule="evenodd" fill="#FFFFFF" d="M263.158,143.375c0.727,0.044,2.716,0.211,3.702,0.278
	c0.932,0.063,1.146,0.123,1.199,0.616c0.19,1.48,0.381,2.55,0.57,3.88c0.097,0.682,0.056,0.964-0.891,1.138
	c-1.037,0.19-1.175,0.327-1.244-1.763c-0.065-1.961,0.543-2.368-3.077-2.423c-0.576-0.009-1.155,0.258-1.21-0.59
	c-0.012-0.185-0.037-0.568-0.053-0.815C262.125,143.214,262.431,143.331,263.158,143.375z"/>
<path fill-rule="evenodd" clip-rule="evenodd" fill="#FFFFFF" d="M261.949,140.452c-0.173-2.719-0.277-4.35-0.435-6.81
	c-0.07-1.096,0.915-1.277,1.541-0.885c1.014,0.635,2.097-0.045,2.129-0.981c-0.055-1.106-1.139-1.364-2.008-1.322
	c-1.62-0.042-1.896-0.489-1.991-1.993c-0.132-2.077-0.209-3.265-0.342-5.354c-0.062-0.957,1.025-1.292,1.664-1.582
	c0.982-0.447,0.789-2.391,0.063-2.391c-1.384-0.412-2.018-0.574-2.055-1.151c-0.094-1.482-0.183-2.859-0.235-3.693
	c-0.078-1.228,3.096-3,3.309-1.503c1.146,8.033,3.284,23.045,3.992,28.009C267.74,141.912,262.01,141.389,261.949,140.452z"/>
<path fill-rule="evenodd" clip-rule="evenodd" fill="#FFFFFF" d="M262.175,102.854c0.174,1.295,0.677,4.585,0.896,6.288
	c0.147,1.136-0.224,1.274-1.291,1.592c-1.446,0.432-1.725-0.073-1.828-1.621c-0.104-1.548-0.224-3.492-0.32-5.009
	c-0.043-0.688,0.676-1.962,1.298-2.404S262.051,101.925,262.175,102.854z"/>
<path fill-rule="evenodd" clip-rule="evenodd" fill="#FFFFFF" d="M260.943,94.212c0.193,1.476,0.463,3.243,0.673,4.718
	c0.2,1.4-0.307,1.68-0.929,1.357c-0.5-0.26-1.329-0.549-1.389-1.403c-0.104-1.497-0.255-3.556-0.292-4.598
	c-0.011-0.308,0.413-0.771,0.644-0.853C260.039,93.296,260.858,93.558,260.943,94.212z"/>
<path fill-rule="evenodd" clip-rule="evenodd" fill="#FFFFFF" d="M259.604,84.813c0.211,1.474,0.434,3.043,0.645,4.519
	c0.199,1.4-1.47,1.288-1.531,0.434c-0.118-1.64-0.229-3.607-0.324-5.084C258.351,84.003,259.498,84.064,259.604,84.813z"/>
<path fill-rule="evenodd" clip-rule="evenodd" fill="#FFFFFF" d="M271.528,141.869c0.25,1.428,0.522,2.981,0.912,5.207
	c0.056,0.313-1.699,1.637-1.903,0.447c-0.196-1.146-0.44-2.938-0.699-4.652C269.703,141.973,271.371,140.973,271.528,141.869z"/>
<path fill-rule="evenodd" clip-rule="evenodd" fill="#FFFFFF" d="M268.124,131.487c-0.104-0.779,1.479-0.59,1.629,0.266
	c0.322,1.836,0.775,4.42,1.116,6.36c0.186,1.061-1.624,0.829-1.747,0C268.829,136.149,268.324,132.984,268.124,131.487z"/>
<path fill-rule="evenodd" clip-rule="evenodd" fill="#FFFFFF" d="M266.469,120.464c-0.138-0.918,1.116-1.071,1.251-0.3
	c0.398,2.274,0.772,4.389,1.249,7.116c0.18,1.025-1.367,0.756-1.426,0.33C267.187,124.984,266.867,123.107,266.469,120.464z"/>
<path fill-rule="evenodd" clip-rule="evenodd" fill="#FFFFFF" d="M265.838,116.269c0.1,0.762,1.286,0.778,1.155,0
	c-0.233-1.391-0.445-3.037-0.704-4.262c-0.192-0.91-1.238-0.936-1.062,0.207C265.387,113.236,265.644,114.78,265.838,116.269z"/>
<path fill-rule="evenodd" clip-rule="evenodd" fill="#FFFFFF" d="M264.401,106.715c0.1,0.763,1.089,0.772,0.958-0.006
	c-0.233-1.39-0.466-2.651-0.731-4.17c-0.159-0.917-1.057-0.677-0.879,0.466C263.907,104.028,264.207,105.227,264.401,106.715z"/>
<path fill-rule="evenodd" clip-rule="evenodd" fill="#FFFFFF" d="M284.452,145.657c1.137,0.054,1.229,1.193,1.6,2.353
	c0.273,0.852-4.442,0.056-7.611-0.386c-1.278-0.178-1.14-1.146-1.252-1.666c-0.175-0.81,0.524-0.6,2.391-0.531
	C281.445,145.495,282.378,145.558,284.452,145.657z"/>
<path fill-rule="evenodd" clip-rule="evenodd" fill="#FFFFFF" d="M275.029,135.938c-0.228-1.051,0.565-0.986,1.496-0.84
	c1.654,0.26,2.585,0.39,4.021,0.597c0.795,0.114,1.559-0.014,1.855,0.912c0.296,0.926,1.568,4.896,1.844,5.758
	c0.636,1.989-0.163,1.511-1.87,1.285c-1.508-0.2-2.384-0.3-3.791-0.468c-1.423-0.17-2.076-0.311-2.373-1.754
	C275.915,139.982,275.256,136.988,275.029,135.938z"/>
<path fill-rule="evenodd" clip-rule="evenodd" fill="#FFFFFF" d="M276.091,122.057c-0.316-1.511-2.365-1.188-3.287-1.392
	c-1.21-0.268-1.231-0.689-1.438-1.73c-0.154-0.766-0.447-2.074-0.681-3.158c-0.31-1.432,0.137-1.714,1.532-1.411
	c0.587,0.128,1.024-0.434,1.057-1.005c0.039-0.685-0.702-1.284-1.335-1.372c-2.476-0.354-2.211-0.607-2.695-2.898
	c-0.202-0.988-0.619-2.87-1.118-5.236c-0.193-0.85,3.587-0.643,3.779-0.043c1.201,3.752,8.232,25.484,9.036,28.227
	c0.441,1.383-1.409,0.933-1.991,0.823c-4.693-0.876-4.575,0.038-5.278-3.225c-0.355-1.648-0.947-4.266-1.3-6.026
	C272.056,122.143,276.503,124.022,276.091,122.057z"/>
<path fill-rule="evenodd" clip-rule="evenodd" fill="#FFFFFF" d="M268.45,93.021c0.771,2.41,1.429,4.465,2.22,6.937
	c0.612,1.912-3.102,1.22-3.439-0.198c-0.437-1.923-0.856-3.88-1.169-5.433C265.86,93.398,267.993,91.594,268.45,93.021z"/>
<path fill-rule="evenodd" clip-rule="evenodd" fill="#FFFFFF" d="M263.516,82.512c-0.202-0.935,1.24-1.029,1.586,0.05
	c0.772,2.412,1.688,5.277,2.359,7.371c0.391,1.22-2.104,1.125-2.406-0.279C264.778,88.368,263.995,84.737,263.516,82.512z"/>
<path fill-rule="evenodd" clip-rule="evenodd" fill="#FFFFFF" d="M263.021,76.066c0.253,0.848,0.572,1.783,0.915,2.859
	c0.104,0.32-1.062,0.614-1.257-0.292c-0.162-0.75-0.342-1.582-0.495-2.293C261.761,74.37,262.361,74.002,263.021,76.066z"/>
<path fill-rule="evenodd" clip-rule="evenodd" fill="#FFFFFF" d="M291.25,150.468c0.352,0.952-0.918,1.979-1.222,1.092
	c-0.956-2.795-1.535-4.485-2.124-6.209c-0.866-2.536,0.485-2.664,1.315-0.408C290.004,147.075,290.817,149.294,291.25,150.468z"/>
<path fill-rule="evenodd" clip-rule="evenodd" fill="#FFFFFF" d="M286.141,140.191c-0.608-1.777-1.551-4.537-2.276-6.657
	c-0.226-0.661,0.88-0.765,1.281,0.327c0.504,1.369,1.811,4.921,2.328,6.333C287.678,140.75,286.477,141.175,286.141,140.191z"/>
<path fill-rule="evenodd" clip-rule="evenodd" fill="#FFFFFF" d="M282.604,129.853c-0.841-2.463-2.249-6.578-3.06-8.95
	c-0.155-0.453,0.434-1.094,0.771-0.179c0.763,2.071,2.771,7.564,3.4,9.248C283.886,130.436,282.785,130.394,282.604,129.853z"/>
<path fill-rule="evenodd" clip-rule="evenodd" fill="#FFFFFF" d="M278.204,116.981c-0.606-1.783-0.647-1.873-1.272-3.718
	c-0.559-1.636-0.093-1.999,0.591-0.143c0.419,1.139,0.854,2.304,1.405,3.828C279.074,117.347,278.317,117.313,278.204,116.981z"/>
<path fill-rule="evenodd" clip-rule="evenodd" fill="#FFFFFF" d="M297.552,137.261c1.158,2.307,3.756,7.503,5.912,11.808
	c0.746,1.491,0.917,1.836-0.551,1.633c-1.469-0.204-5.522-0.868-7.052-1.089c-0.413-0.06-0.521-0.074-0.745-0.633
	c-0.236-0.592-0.298-0.747,0.364-0.592c0.946,0.221,2.131,0.559,3.917,0.586c1.787,0.026,2.657-1.166,2.257-2.118
	c-0.4-0.953-4.176-1.188-6.055-1.282c-1.879-0.094-1.92-0.176-2.438-1.494c-0.784-1.996-1.748-4.38-2.393-6
	C290.423,137.209,297.202,136.565,297.552,137.261z"/>
<path fill-rule="evenodd" clip-rule="evenodd" fill="#FFFFFF" d="M286.04,126.224c-0.665-1.67-0.055-1.37,1.457-1.316
	c0.966,0.034,0.966-2.144-1.277-2.34c-1.45-0.126-1.728-0.225-2.157-1.304c-0.431-1.078-1.227-3.071-1.679-4.208
	c-0.646-1.622,0.116-1.296,1.35-1.064c1.446,0.272,1.545-0.761,1.599-1.349c0.074-0.826-1.147-1.203-2.781-1.146
	c-1.243,0.044-1.543,0.109-2.273-1.722c-0.452-1.13-1.986-4.979-2.327-5.833c-0.342-0.854-0.069-1.031,0.558-1.043
	c0.626-0.013,1.012-1.872-0.503-2.084c-1.09-0.153-1.377-0.207-1.802-1.254c-0.506-1.247-1.09-2.704-1.857-4.656
	c-0.276-0.701-0.841-2.075,0.33-2.146c0.904-0.055,1.525-0.132,2.007,0.831c4.181,8.348,13.842,27.641,18.449,36.84
	c1.152,2.302,1.049,2.846,0.245,2.789c-1.602-0.112-2.523-0.202-3.838-0.394c-1.733-0.252-2.32-0.585-2.875-1.999
	C288.11,131.412,286.334,126.96,286.04,126.224z"/>
<path fill-rule="evenodd" clip-rule="evenodd" fill="#FFFFFF" d="M274.643,91.514c0.479,0.995-2.162,0.706-2.509-0.155
	c-0.972-2.415-1.75-4.392-2.663-6.677c-0.286-0.717,1.423-0.655,1.765,0.028C272.401,87.039,273.387,89.005,274.643,91.514z"/>
<path fill-rule="evenodd" clip-rule="evenodd" fill="#FFFFFF" d="M269.339,80.923c0.301,0.601-1.101,0.649-1.45-0.21
	c-0.49-1.204-1.003-2.508-1.329-3.329c-0.209-0.527,0.795-0.423,1.104,0.19C268.137,78.546,268.692,79.63,269.339,80.923z"/>
<path fill-rule="evenodd" clip-rule="evenodd" fill="#FFFFFF" d="M307.327,147.792c0.979,1.815,2.698,4.994,3.85,7.122
	c0.386,0.713-1.867,0.444-2.188-0.188c-1.089-2.143-2.308-4.543-3.346-6.59C305.206,147.275,306.94,147.075,307.327,147.792z"/>
<path fill-rule="evenodd" clip-rule="evenodd" fill="#FFFFFF" d="M299.638,136.301c-0.198-0.387,1.2-0.515,1.579,0.186
	c1.635,3.017,3.53,6.531,4.252,7.866c0.515,0.951-1.388,0.704-1.588,0.309C302.483,141.909,300.868,138.713,299.638,136.301z"/>
<path fill-rule="evenodd" clip-rule="evenodd" fill="#FFFFFF" d="M299.096,132.563c0.591,1.093-0.975,0.75-1.186,0.336
	c-1.499-2.956-3.034-5.977-4.432-8.731c-0.298-0.588,0.796-0.525,1.049-0.056C295.855,126.566,297.637,129.865,299.096,132.563z"/>
<path fill-rule="evenodd" clip-rule="evenodd" fill="#FFFFFF" d="M292.741,120.809c0.366,0.679-0.666,0.575-0.936,0.063
	c-1.125-2.129-1.481-2.892-2.235-4.404c-0.374-0.75,0.332-0.913,0.821-0.007C291.194,117.947,291.817,119.1,292.741,120.809z"/>
<path fill-rule="evenodd" clip-rule="evenodd" fill="#FFFFFF" d="M287.392,110.912c0.28,0.518-0.413,0.45-0.552,0.179
	c-0.933-1.813-1.612-3.153-2.366-4.665c-0.374-0.751-0.216-1.277,0.273-0.371C285.55,107.541,286.468,109.203,287.392,110.912z"/>
<path fill-rule="evenodd" clip-rule="evenodd" fill="#FFFFFF" d="M314.249,151.467c-0.485-0.861,4.796-0.537,5.214,0.102
	c0.429,0.654,0.642,0.979,1.027,1.573c0.178,0.274-5.364-0.118-5.7-0.713C314.657,152.195,314.45,151.824,314.249,151.467z"/>
<path fill-rule="evenodd" clip-rule="evenodd" fill="#FFFFFF" d="M317.356,148.387c0.516,0.795-0.495,0.646-2.624,0.405
	c-1.783-0.201-3.073-1.928-3.683-3.01c-1.078-1.915-1.722-3.058-2.652-4.713c-0.393-0.697-0.38-1.19,0.931-1.19
	c0.85,0,1.409-0.438,1.21-1.156c-0.181-0.655-0.59-0.963-2.06-1.218c-1.471-0.255-2.119-0.057-2.759-1.193
	c-1.185-2.104-2.53-4.494-4.017-7.135c-0.952-1.692-1.061-1.884-0.022-2.398c0.585-0.291,0.114-1.822-0.641-2.108
	c-0.858-0.325-1.698,0.311-2.058-0.325c-1.322-2.349-2.265-3.882-3.134-5.541c-0.779-1.49,0.004-3.427,1.068-1.794
	C303.457,127.036,311.747,139.742,317.356,148.387z"/>
<path fill-rule="evenodd" clip-rule="evenodd" fill="#FFFFFF" d="M295.015,114.092c0.802,1.229-1.228,1.005-1.587,0.382
	c-1.493-2.599-2.507-4.453-3.962-7.04c-0.893-1.586-0.263-2.215,0.588-0.916C291.143,108.183,293.568,111.875,295.015,114.092z"/>
<path fill-rule="evenodd" clip-rule="evenodd" fill="#FFFFFF" d="M325.113,153.027c0.438,0.662-0.949,0.827-1.414,0.123
	c-0.858-1.301-1.514-2.293-2.242-3.399c-0.41-0.621,0.701-1.019,1.194-0.308C323.79,151.082,324.248,151.718,325.113,153.027z"/>
<path fill-rule="evenodd" clip-rule="evenodd" fill="#FFFFFF" d="M319.734,145.206c1.178,1.713-0.384,1.357-0.675,0.91
	c-2.175-3.345-3.111-4.749-5.091-7.72c-0.482-0.724,0.38-1.021,1.154,0.104C316.66,140.734,318.478,143.376,319.734,145.206z"/>
<path fill-rule="evenodd" clip-rule="evenodd" fill="#FFFFFF" d="M311.698,133.521c0.617,0.896-0.133,1.232-0.585,0.547
	c-1.953-2.959-3.299-5.003-4.602-6.978c-0.433-0.656-0.057-1.194,0.526-0.346C308.676,129.125,310.194,131.333,311.698,133.521z"/>
<path fill-rule="evenodd" clip-rule="evenodd" fill="#FFFFFF" d="M303.463,121.545c0.506,0.734,0.031,0.97-0.992-0.574
	c-1.283-1.935-2.629-3.993-3.468-5.265c-0.453-0.688-0.085-0.756,0.39-0.081C300.933,117.819,302.623,120.325,303.463,121.545z"/>
<path fill-rule="evenodd" clip-rule="evenodd" fill="#DD2222" d="M221.764,596.288c-0.016-13.665-0.016-68.568,0-83.848
	c-0.012-19.566,26.658-52.005,35.08-52.005c8.725,0,32.951,32.166,32.951,52.005c0,11.015-0.016,73.375,0,83.595
	C271.075,598.863,245.38,599.497,221.764,596.288z"/>
<g id="_x3C_Pfad_x3E__8_">
	<path fill-rule="evenodd" clip-rule="evenodd" fill="#FFFFFF" d="M19.049,410.492c0-0.825,0.675-1.5,1.5-1.5h13.04
		c0.825,0,1.5-0.675,1.5-1.5v-31.301c0-0.825,0.675-1.5,1.5-1.5h21.336c0.825,0,1.5,0.675,1.5,1.5v31.301c0,0.825,0.675,1.5,1.5,1.5
		h11.934c0.825,0,1.5,0.675,1.5,1.5v21.501c0,0.825-0.675,1.5-1.5,1.5H25.166c-0.825,0-1.69-0.647-1.923-1.438l-3.771-12.811
		c-0.233-0.791-0.423-2.113-0.423-2.938V410.492z"/>
</g>
<g id="_x3C_Pfad_x3E__6_">
	<path fill-rule="evenodd" clip-rule="evenodd" fill="#FFFFFF" d="M88.739,410.492c0-0.825,0.675-1.5,1.5-1.5h13.04
		c0.825,0,1.5-0.675,1.5-1.5v-31.301c0-0.825,0.675-1.5,1.5-1.5h21.336c0.825,0,1.5,0.675,1.5,1.5v31.301c0,0.825,0.675,1.5,1.5,1.5
		h11.934c0.825,0,1.5,0.675,1.5,1.5v21.501c0,0.825-0.675,1.5-1.5,1.5h-52.31c-0.825,0-1.5-0.675-1.5-1.5V410.492z"/>
</g>
<g id="_x3C_Pfad_x3E__4_">
	<path fill-rule="evenodd" clip-rule="evenodd" fill="#FFFFFF" d="M158.429,410.492c0-0.825,0.675-1.5,1.5-1.5h13.04
		c0.825,0,1.5-0.675,1.5-1.5v-31.301c0-0.825,0.675-1.5,1.5-1.5h21.336c0.825,0,1.5,0.675,1.5,1.5v31.301c0,0.825,0.675,1.5,1.5,1.5
		h11.934c0.825,0,1.5,0.675,1.5,1.5v21.501c0,0.825-0.675,1.5-1.5,1.5h-52.31c-0.825,0-1.5-0.675-1.5-1.5V410.492z"/>
</g>
<g id="_x3C_Pfad_x3E__1_">
	<path fill-rule="evenodd" clip-rule="evenodd" fill="#FFFFFF" d="M228.12,410.492c0-0.825,0.675-1.5,1.5-1.5h13.04
		c0.825,0,1.5-0.675,1.5-1.5v-31.301c0-0.825,0.675-1.5,1.5-1.5h21.336c0.825,0,1.5,0.675,1.5,1.5v31.301c0,0.825,0.675,1.5,1.5,1.5
		h11.934c0.825,0,1.5,0.675,1.5,1.5v8.979c0,0.825-0.675,1.5-1.5,1.5H229.62c-0.825,0-1.5-0.675-1.5-1.5V410.492z"/>
</g>
<path fill-rule="evenodd" clip-rule="evenodd" fill="#FFFFFF" d="M283.429,412.259c0,4.028,0,14.554,0,21.234
	c0,2.214-3.962-1.289-4.677-1.631c-1.839-0.879-1.943-1.038-1.516-2.993c0.274-1.25,0.213-1.257,0.662-2.781
	c0.412-1.444,0.148-2.142-2.213-2.395c-3.297-0.377-10.224-1.094-17.699-1.09c-7.516,0.003-15.465,0.713-20.039,1.09
	c-1.612,0.163-2.128,0.829-1.75,2.395c0.204,0.84,0.44,1.69,0.812,2.469c1.019,2.136,0.239,2.436-1.211,3.342
	c-1.93,1.21-7.684,3.854-7.68,1.595c0-4.05,0-15.845,0-21.234C233.856,412.271,277.367,412.274,283.429,412.259z"/>
<g id="_x3C_Pfad_x3E_">
	<path fill-rule="evenodd" clip-rule="evenodd" fill="#FFFFFF" d="M297.81,410.492c0-0.825,0.675-1.5,1.5-1.5h13.04
		c0.825,0,1.5-0.675,1.5-1.5v-31.301c0-0.825,0.675-1.5,1.5-1.5h21.336c0.825,0,1.5,0.675,1.5,1.5v31.301c0,0.825,0.675,1.5,1.5,1.5
		h11.934c0.825,0,1.5,0.675,1.5,1.5v21.501c0,0.825-0.675,1.5-1.5,1.5h-52.31c-0.825,0-1.5-0.675-1.5-1.5V410.492z"/>
</g>
<g id="_x3C_Pfad_x3E__2_">
	<path fill-rule="evenodd" clip-rule="evenodd" fill="#FFFFFF" d="M367.5,410.492c0-0.825,0.675-1.5,1.5-1.5h13.04
		c0.825,0,1.5-0.675,1.5-1.5v-31.301c0-0.825,0.675-1.5,1.5-1.5h21.336c0.825,0,1.5,0.675,1.5,1.5v31.301c0,0.825,0.675,1.5,1.5,1.5
		h11.934c0.825,0,1.5,0.675,1.5,1.5v21.501c0,0.825-0.675,1.5-1.5,1.5H369c-0.825,0-1.5-0.675-1.5-1.5V410.492z"/>
</g>
<g id="_x3C_Pfad_x3E__12_">
	<path fill-rule="evenodd" clip-rule="evenodd" fill="#FFFFFF" d="M437.19,410.492c0-0.825,0.675-1.5,1.5-1.5h13.039
		c0.825,0,1.5-0.675,1.5-1.5v-31.301c0-0.825,0.675-1.5,1.5-1.5h21.337c0.825,0,1.5,0.675,1.5,1.5v31.301c0,0.825,0.675,1.5,1.5,1.5
		h12.467c0.825,0,1.336,0.654,1.135,1.455l-5.904,21.608c-0.236,0.791-1.104,1.438-1.93,1.438H438.69c-0.825,0-1.5-0.675-1.5-1.5
		V410.492z"/>
</g>
<path fill-rule="evenodd" clip-rule="evenodd" fill="#FFFFFF" d="M273.518,429.17c-2.138,9.679-4.393,19.164-6.907,28.763
	c-2.101-0.768-3.738-1.735-5.229-2.88c-0.706-0.544-1.476-0.927-2.211-1.391c-1.768-1.108-3.324-1.585-5.077,0.349
	c-0.987,1.089-2.7,1.542-4.071,2.275c-2.166-2.805-8.909-23.963-8.873-27.867c1.713-0.63,8.972-1.596,16.213-1.459
	C264.68,427.096,271.978,428.345,273.518,429.17z"/>
<g>
	<path fill-rule="evenodd" clip-rule="evenodd" fill="#FFFFFF" d="M30.111,370.791c0-0.55,0.45-1,1-1h28.974
		c0.55,0,0.657,0.292,0.239,0.648l-0.137,0.117c-0.418,0.356-1.211,0.648-1.761,0.648H33.323c-0.55,0-1,0.45-1,1v32.193
		c0,0.55-0.45,1-1,1H17.218c-0.55,0-1.082-0.416-1.181-0.926c-0.1-0.509,0.269-0.925,0.819-0.925h12.255c0.55,0,1-0.45,1-1V370.791z
		"/>
</g>
<g>
	<path fill-rule="evenodd" clip-rule="evenodd" fill="#FFFFFF" d="M99.801,370.791c0-0.55,0.45-1,1-1h28.973
		c0.55,0,0.658,0.292,0.239,0.648l-0.137,0.117c-0.419,0.356-1.211,0.648-1.761,0.648h-25.102c-0.55,0-1,0.45-1,1v32.193
		c0,0.55-0.45,1-1,1H87.969c-0.55,0-1,0.45-1,1v26.095c0,0.55-0.38,1.241-0.844,1.536l-1.74,1.105
		c-0.464,0.295-0.844,0.086-0.844-0.464v-30.123c0-0.55,0.45-1,1-1h14.261c0.55,0,1-0.45,1-1V370.791z"/>
</g>
<g>
	<path fill-rule="evenodd" clip-rule="evenodd" fill="#FFFFFF" d="M169.491,370.791c0-0.55,0.45-1,1-1h28.974
		c0.55,0,0.657,0.292,0.239,0.648l-0.137,0.117c-0.419,0.356-1.211,0.648-1.761,0.648h-25.102c-0.55,0-1,0.45-1,1v32.193
		c0,0.55-0.45,1-1,1h-13.045c-0.55,0-1,0.45-1,1v26.095c0,0.55-0.38,1.241-0.844,1.536l-1.74,1.105
		c-0.464,0.295-0.844,0.086-0.844-0.464v-30.123c0-0.55,0.45-1,1-1h14.261c0.55,0,1-0.45,1-1V370.791z"/>
</g>
<g>
	<path fill-rule="evenodd" clip-rule="evenodd" fill="#FFFFFF" d="M239.182,370.791c0-0.55,0.45-1,1-1h28.974
		c0.55,0,0.657,0.292,0.238,0.648l-0.137,0.117c-0.419,0.356-1.212,0.648-1.762,0.648h-25.101c-0.55,0-1,0.45-1,1v32.193
		c0,0.55-0.45,1-1,1h-13.045c-0.55,0-1,0.45-1,1v26.095c0,0.55-0.38,1.241-0.844,1.536l-1.74,1.105
		c-0.464,0.295-0.844,0.086-0.844-0.464v-30.123c0-0.55,0.45-1,1-1h14.261c0.55,0,1-0.45,1-1V370.791z"/>
</g>
<g>
	<path fill-rule="evenodd" clip-rule="evenodd" fill="#FFFFFF" d="M308.872,370.791c0-0.55,0.45-1,1-1h28.973
		c0.55,0,0.657,0.292,0.239,0.648l-0.138,0.117c-0.418,0.356-1.211,0.648-1.761,0.648h-25.102c-0.55,0-1,0.45-1,1v32.193
		c0,0.55-0.45,1-1,1h-13.045c-0.55,0-1,0.45-1,1v26.095c0,0.55-0.38,1.241-0.844,1.536l-1.741,1.105
		c-0.464,0.295-0.844,0.086-0.844-0.464v-30.123c0-0.55,0.45-1,1-1h14.262c0.55,0,1-0.45,1-1V370.791z"/>
</g>
<g>
	<path fill-rule="evenodd" clip-rule="evenodd" fill="#FFFFFF" d="M378.562,370.791c0-0.55,0.45-1,1-1h28.974
		c0.55,0,0.657,0.292,0.239,0.648l-0.138,0.117c-0.418,0.356-1.211,0.648-1.761,0.648h-25.102c-0.55,0-1,0.45-1,1v32.193
		c0,0.55-0.45,1-1,1h-13.045c-0.55,0-1,0.45-1,1v26.095c0,0.55-0.38,1.241-0.844,1.536l-1.741,1.105
		c-0.464,0.295-0.844,0.086-0.844-0.464v-30.123c0-0.55,0.45-1,1-1h14.261c0.55,0,1-0.45,1-1V370.791z"/>
</g>
<g>
	<path fill-rule="evenodd" clip-rule="evenodd" fill="#FFFFFF" d="M448.252,370.791c0-0.55,0.45-1,1-1h28.974
		c0.55,0,0.657,0.292,0.239,0.648l-0.138,0.117c-0.418,0.356-1.211,0.648-1.761,0.648h-25.102c-0.55,0-1,0.45-1,1v32.193
		c0,0.55-0.45,1-1,1H436.42c-0.55,0-1,0.45-1,1v26.095c0,0.55-0.38,1.241-0.844,1.536l-1.741,1.105
		c-0.464,0.295-0.844,0.086-0.844-0.464v-30.123c0-0.55,0.45-1,1-1h14.261c0.55,0,1-0.45,1-1V370.791z"/>
</g>
<g>
	<path fill-rule="evenodd" clip-rule="evenodd" fill="#FFFFFF" d="M75.232,404.911c-0.48,0.269-1.324,0.487-1.874,0.487h-7.956
		c-0.55,0-0.607-0.219-0.126-0.487l1.572-0.876c0.48-0.269,1.324-0.487,1.874-0.487h7.956c0.55,0,0.607,0.219,0.126,0.487
		L75.232,404.911z"/>
</g>
<g>
	<path fill-rule="evenodd" clip-rule="evenodd" fill="#FFFFFF" d="M144.922,404.911c-0.48,0.269-1.324,0.487-1.874,0.487h-7.956
		c-0.55,0-0.607-0.219-0.126-0.487l1.571-0.876c0.48-0.269,1.324-0.487,1.874-0.487h7.956c0.55,0,0.607,0.219,0.126,0.487
		L144.922,404.911z"/>
</g>
<g>
	<path fill-rule="evenodd" clip-rule="evenodd" fill="#FFFFFF" d="M214.612,404.911c-0.48,0.269-1.324,0.487-1.874,0.487h-7.956
		c-0.55,0-0.607-0.219-0.126-0.487l1.572-0.876c0.48-0.269,1.324-0.487,1.874-0.487h7.956c0.55,0,0.607,0.219,0.126,0.487
		L214.612,404.911z"/>
</g>
<g>
	<path fill-rule="evenodd" clip-rule="evenodd" fill="#FFFFFF" d="M284.302,404.911c-0.479,0.269-1.323,0.487-1.873,0.487h-7.955
		c-0.55,0-0.607-0.219-0.127-0.487l1.572-0.876c0.48-0.269,1.323-0.487,1.873-0.487h7.956c0.55,0,0.607,0.219,0.127,0.487
		L284.302,404.911z"/>
</g>
<g>
	<path fill-rule="evenodd" clip-rule="evenodd" fill="#FFFFFF" d="M353.992,404.911c-0.48,0.269-1.323,0.487-1.873,0.487h-7.955
		c-0.55,0-0.607-0.219-0.127-0.487l1.572-0.876c0.48-0.269,1.323-0.487,1.873-0.487h7.955c0.55,0,0.607,0.219,0.127,0.487
		L353.992,404.911z"/>
</g>
<g>
	<path fill-rule="evenodd" clip-rule="evenodd" fill="#FFFFFF" d="M423.683,404.911c-0.48,0.269-1.323,0.487-1.873,0.487h-7.956
		c-0.55,0-0.607-0.219-0.127-0.487l1.573-0.876c0.479-0.269,1.323-0.487,1.873-0.487h7.955c0.55,0,0.607,0.219,0.127,0.487
		L423.683,404.911z"/>
</g>
<g>
	<path fill-rule="evenodd" clip-rule="evenodd" fill="#FFFFFF" d="M493.373,404.911c-0.48,0.269-1.323,0.487-1.873,0.487h-7.956
		c-0.55,0-0.607-0.219-0.127-0.487l1.572-0.876c0.48-0.269,1.323-0.487,1.873-0.487h7.956c0.55,0,0.607,0.219,0.127,0.487
		L493.373,404.911z"/>
</g>
<g>
	<path fill="#FFFFFF" d="M37.65,466.2c0,0.319-0.115,0.346-0.255,0.06l-8.932-19.714c-0.129-0.292,0.026-0.53,0.345-0.53h8.262
		c0.319,0,0.58,0.261,0.579,0.58L37.65,466.2z"/>
</g>
<g>
	<path fill="#FFFFFF" d="M108.827,465.206c0,0.825-0.675,1.5-1.5,1.5H51.144c-0.825,0-1.5-0.675-1.5-1.5v-17.69
		c0-0.825,0.675-1.5,1.5-1.5h56.183c0.825,0,1.5,0.675,1.5,1.5V465.206z"/>
</g>
<g>
	<path fill="#FFFFFF" d="M177.604,465.271c0,0.79-0.646,1.436-1.436,1.436h-51.333c-0.79,0-1.436-0.646-1.436-1.436v-17.819
		c0-0.79,0.646-1.436,1.436-1.436h51.333c0.79,0,1.436,0.646,1.436,1.436V465.271z"/>
</g>
<g>
	<path fill="#FFFFFF" d="M191.872,466.127c-0.179,0.318-0.325,0.28-0.325-0.085V446.68c0-0.365,0.299-0.664,0.665-0.664h10.286
		c0.366,0,0.518,0.261,0.339,0.579L191.872,466.127z"/>
</g>
<g>
	<path fill="#FFFFFF" d="M386.735,465.264c0,0.793-0.649,1.442-1.442,1.442h-51.872c-0.793,0-1.442-0.649-1.442-1.442v-17.806
		c0-0.793,0.649-1.442,1.442-1.442h51.872c0.793,0,1.442,0.649,1.442,1.442V465.264z"/>
</g>
<g>
	<path fill="#FFFFFF" d="M457.506,465.264c0,0.793-0.649,1.442-1.442,1.442h-51.872c-0.793,0-1.442-0.649-1.442-1.442v-17.806
		c0-0.793,0.649-1.442,1.442-1.442h51.872c0.793,0,1.442,0.649,1.442,1.442V465.264z"/>
</g>
<g>
	<path fill="#FFFFFF" d="M472.651,466.15c-0.145,0.306-0.53,0.556-0.854,0.556c-0.326,0-0.592-0.276-0.592-0.615v-19.46
		c0-0.338,0.276-0.615,0.615-0.615h8.726c0.339,0,0.621,0.064,0.628,0.143c0.008,0.078-0.122,1.633-0.256,1.943L472.651,466.15z"/>
</g>
<g>
	<path fill="#FFFFFF" d="M73.806,500.052c0,0.825-0.675,1.5-1.5,1.501l-11.339-0.001c-0.825,0-1.897-0.546-2.382-1.214
		l-12.275-18.22c-0.45-0.691-0.144-1.257,0.681-1.257h25.314c0.825,0,1.5,0.675,1.5,1.5V500.052z"/>
</g>
<g>
	<path fill="#FFFFFF" d="M143.495,500.109c0,0.793-0.649,1.442-1.443,1.442H90.182c-0.793,0-1.443-0.649-1.443-1.442v-17.806
		c0-0.793,0.649-1.442,1.443-1.442h51.871c0.793,0,1.443,0.649,1.443,1.442V500.109z"/>
</g>
<g>
	<path fill="#FFFFFF" d="M188.298,500.439c-0.141,0.611-0.771,1.112-1.398,1.112h-26.776c-0.628,0-1.142-0.514-1.142-1.142v-18.407
		c0-0.628,0.514-1.142,1.142-1.143l32.23,0.001c0.628,0,0.983,0.488,0.79,1.086L188.298,500.439z"/>
</g>
<g>
	<path fill="#FFFFFF" d="M353.119,500.447c0,0.607-0.497,1.104-1.104,1.105l-23.676-0.001c-0.607,0-1.247-0.477-1.421-1.059
		l-5.668-18.575c-0.177-0.581,0.176-1.057,0.783-1.057h29.981c0.607,0,1.104,0.497,1.104,1.104V500.447z"/>
</g>
<g>
	<path fill="#FFFFFF" d="M423.362,500.116c0,0.79-0.646,1.436-1.436,1.436h-51.332c-0.79,0-1.436-0.646-1.436-1.436v-17.819
		c0-0.79,0.646-1.436,1.436-1.436h51.332c0.79,0,1.436,0.646,1.436,1.436V500.116z"/>
</g>
<g>
	<path fill="#FFFFFF" d="M451.101,500.732c-0.313,0.45-1.019,0.819-1.567,0.819h-10.239c-0.549,0-0.998-0.449-0.998-0.998v-18.694
		c0-0.549,0.449-0.998,0.998-0.999l24.222,0.001c0.549,0,0.757,0.379,0.463,0.843L451.101,500.732z"/>
</g>
<g>
	<path fill="#FFFFFF" d="M108.827,534.897c0,0.825-0.675,1.501-1.5,1.501l-14.271-0.001c-0.825,0-2.002-0.451-2.616-1.003
		l-18.391-18.607c-0.572-0.594-0.366-1.08,0.459-1.08h34.818c0.825,0,1.5,0.675,1.5,1.5V534.897z"/>
</g>
<g>
	<path fill="#FFFFFF" d="M177.456,534.97c0,0.785-0.643,1.428-1.428,1.428h-50.794c-0.786,0-1.428-0.643-1.428-1.428v-17.835
		c0-0.785,0.643-1.428,1.428-1.428h50.794c0.786,0,1.428,0.643,1.428,1.428V534.97z"/>
</g>
<g>
	<path fill="#FFFFFF" d="M386.858,534.962c0,0.79-0.646,1.436-1.436,1.436H334.09c-0.79,0-1.436-0.646-1.436-1.436v-17.819
		c0-0.79,0.646-1.436,1.436-1.436h51.333c0.79,0,1.436,0.646,1.436,1.436V534.962z"/>
</g>
<g>
	<path fill="#FFFFFF" d="M419.518,535.351c-0.591,0.575-1.749,1.047-2.574,1.047h-12.545c-0.825,0-1.5-0.675-1.5-1.5v-17.69
		c0-0.825,0.675-1.5,1.5-1.499l33.092-0.001c0.825,0,1.04,0.494,0.478,1.098L419.518,535.351z"/>
</g>
<g>
	<path fill="#FFFFFF" d="M144.048,569.743c0,0.825-0.104,1.5-0.231,1.5s-2.195-0.314-2.925-0.699l-30.67-19.18
		c-0.694-0.446-0.587-0.812,0.238-0.812h32.088c0.825,0,1.5,0.675,1.5,1.5V569.743z"/>
</g>
<g>
	<path fill="#FFFFFF" d="M183.087,558.987c-0.573,0.013-1.042,0.491-1.042,1.064v10.149c0,0.573-0.469,1.042-1.042,1.042h-20.981
		c-0.573,0-1.042-0.469-1.042-1.042v-18.606c0-0.573,0.469-1.042,1.042-1.042h26.457c0.573,0,1.042,0.469,1.042,1.042v6.256
		c0,0.573-0.469,1.052-1.042,1.064L183.087,558.987z"/>
</g>
<g>
	<path fill="#FFFFFF" d="M353.119,570.224c0,0.561-0.459,1.02-1.02,1.02h-18.426c-0.561,0-1.02-0.459-1.02-1.02v-10.484
		c0-0.561-0.459-1.02-1.02-1.02h-4.819c-0.561,0-1.02-0.459-1.02-1.02v-6.128c0-0.561,0.459-1.02,1.02-1.02H352.1
		c0.561,0,1.02,0.459,1.02,1.02V570.224z"/>
</g>
<g>
	<path fill="#FFFFFF" d="M369.906,570.066c-0.715,0.412-1.3,0.074-1.3-0.751v-17.263c0-0.825,0.675-1.5,1.5-1.499l29.432-0.001
		c0.825,0,0.947,0.388,0.271,0.861L369.906,570.066z"/>
</g>
<g>
	<path fill="#FFFFFF" d="M169.368,583.196c-0.776-0.28-0.736-0.509,0.089-0.509h11.626c0.825,0,1.5,0.675,1.501,1.5l-0.001,1.993
		c0,0.825-0.644,1.297-1.43,1.048L169.368,583.196z"/>
</g>
<g>
	<path fill="#FFFFFF" d="M334.27,585.442c-0.777,0.275-1.414-0.174-1.414-0.999v-0.232c0-0.825,0.675-1.5,1.5-1.5h6.121
		c0.825,0,0.863,0.226,0.086,0.501L334.27,585.442z"/>
</g>
<g>
	<path fill-rule="evenodd" clip-rule="evenodd" fill="#FFFFFF" d="M38.362,441.005c0.825,0,1.122,0.559,0.659,1.242l-0.53,0.782
		c-0.463,0.684-1.516,1.242-2.341,1.242h-7.105c-0.825,0-1.739-0.631-2.032-1.402l-0.175-0.462
		c-0.292-0.771,0.143-1.402,0.968-1.402H38.362z"/>
</g>
<g>
	<path fill-rule="evenodd" clip-rule="evenodd" fill="#FFFFFF" d="M109.54,441.005c0.825,0,1.122,0.559,0.659,1.242l-0.53,0.782
		c-0.463,0.684-1.516,1.242-2.341,1.242H48.568c-0.825,0-1.5,0.675-1.5,1.5v19.435c0,0.825-0.564,1.87-1.254,2.323l-0.811,0.531
		c-0.689,0.453-1.254,0.148-1.254-0.677v-24.879c0-0.825,0.675-1.5,1.5-1.5H109.54z"/>
</g>
<g>
	<path fill-rule="evenodd" clip-rule="evenodd" fill="#FFFFFF" d="M178.312,441.005c0.825,0,1.122,0.559,0.659,1.242l-0.53,0.782
		c-0.463,0.684-1.516,1.242-2.341,1.242h-53.781c-0.825,0-1.5,0.675-1.5,1.5v19.435c0,0.825-0.564,1.87-1.254,2.323l-0.811,0.531
		c-0.689,0.453-1.254,0.148-1.254-0.677v-24.879c0-0.825,0.675-1.5,1.5-1.5H178.312z"/>
</g>
<g>
	<path fill-rule="evenodd" clip-rule="evenodd" fill="#FFFFFF" d="M205.535,441.005c0.825,0,1.019,0.474,0.431,1.053l-1.181,1.161
		c-0.588,0.579-1.744,1.053-2.569,1.053h-11.746c-0.825,0-1.5,0.675-1.5,1.5v19.435c0,0.825-0.564,1.87-1.254,2.323l-0.811,0.531
		c-0.689,0.453-1.254,0.148-1.254-0.677v-24.879c0-0.825,0.675-1.5,1.5-1.5H205.535z"/>
</g>
<g>
	<path fill-rule="evenodd" clip-rule="evenodd" fill="#FFFFFF" d="M319.905,441.005c0.825,0,1.121,0.559,0.659,1.242l-0.531,0.782
		c-0.462,0.684-1.516,1.242-2.341,1.242h-20.595c-0.825,0-1.981-0.474-2.569-1.052l-1.181-1.163
		c-0.588-0.578-0.395-1.052,0.431-1.052H319.905z"/>
</g>
<g>
	<path fill-rule="evenodd" clip-rule="evenodd" fill="#FFFFFF" d="M387.448,441.005c0.825,0,1.121,0.559,0.659,1.242l-0.53,0.782
		c-0.462,0.684-1.516,1.242-2.341,1.242h-54.334c-0.825,0-1.5,0.675-1.5,1.5v19.435c0,0.825-0.564,1.87-1.254,2.323l-0.811,0.531
		c-0.689,0.453-1.254,0.148-1.254-0.677v-24.879c0-0.825,0.675-1.5,1.5-1.5H387.448z"/>
</g>
<g>
	<path fill-rule="evenodd" clip-rule="evenodd" fill="#FFFFFF" d="M458.223,441.005c0.825,0,1.121,0.559,0.658,1.242l-0.53,0.782
		c-0.462,0.684-1.516,1.242-2.341,1.242h-54.334c-0.825,0-1.5,0.675-1.5,1.5v19.435c0,0.825-0.564,1.87-1.254,2.323l-0.811,0.531
		c-0.689,0.453-1.254,0.148-1.254-0.677v-24.879c0-0.825,0.675-1.5,1.5-1.5H458.223z"/>
</g>
<g>
	<path fill-rule="evenodd" clip-rule="evenodd" fill="#FFFFFF" d="M482.192,441.005c0.825,0,1.261,0.631,0.968,1.402l-0.176,0.462
		c-0.293,0.771-1.207,1.402-2.032,1.402h-10.824c-0.825,0-1.5,0.675-1.5,1.5v19.435c0,0.825-0.564,1.87-1.254,2.323l-0.811,0.531
		c-0.689,0.453-1.254,0.148-1.254-0.677v-24.879c0-0.825,0.675-1.5,1.5-1.5H482.192z"/>
</g>
<g>
	<path fill-rule="evenodd" clip-rule="evenodd" fill="#FFFFFF" d="M74.518,474.762c0.825,0,1.122,0.559,0.659,1.242l-0.53,0.782
		c-0.463,0.684-1.516,1.242-2.341,1.242H45.313c-0.825,0-1.835-0.586-2.246-1.302l-0.38-0.663c-0.41-0.716-0.071-1.302,0.754-1.302
		H74.518z"/>
</g>
<g>
	<path fill-rule="evenodd" clip-rule="evenodd" fill="#FFFFFF" d="M144.208,474.762c0.825,0,1.122,0.559,0.659,1.242l-0.53,0.782
		c-0.463,0.684-1.516,1.242-2.341,1.242H87.661c-0.825,0-1.5,0.675-1.5,1.5v20.523c0,0.825-0.564,1.87-1.254,2.323l-0.811,0.531
		c-0.689,0.453-1.254,0.148-1.254-0.677v-25.968c0-0.825,0.675-1.5,1.5-1.5H144.208z"/>
</g>
<g>
	<path fill-rule="evenodd" clip-rule="evenodd" fill="#FFFFFF" d="M194.208,474.762c0.825,0,1.122,0.559,0.659,1.242l-0.53,0.782
		c-0.463,0.684-1.516,1.242-2.341,1.242h-34.091c-0.825,0-1.5,0.675-1.5,1.5v20.523c0,0.825-0.564,1.87-1.254,2.323l-0.811,0.531
		c-0.689,0.453-1.254,0.148-1.254-0.677v-25.968c0-0.825,0.675-1.5,1.5-1.5H194.208z"/>
</g>
<g>
	<path fill-rule="evenodd" clip-rule="evenodd" fill="#FFFFFF" d="M353.832,474.762c0.825,0,1.121,0.559,0.659,1.242l-0.531,0.782
		c-0.462,0.684-1.516,1.242-2.341,1.242h-21.336c-0.825,0-1.981-0.474-2.569-1.053l-1.18-1.161
		c-0.588-0.579-0.395-1.053,0.431-1.053H353.832z"/>
</g>
<g>
	<path fill-rule="evenodd" clip-rule="evenodd" fill="#FFFFFF" d="M424.075,474.762c0.825,0,1.121,0.559,0.659,1.242l-0.531,0.782
		c-0.462,0.684-1.516,1.242-2.341,1.242h-53.78c-0.825,0-1.5,0.675-1.5,1.5v20.523c0,0.825-0.564,1.87-1.254,2.323l-0.812,0.531
		c-0.689,0.453-1.254,0.148-1.254-0.677v-25.968c0-0.825,0.675-1.5,1.5-1.5H424.075z"/>
</g>
<g>
	<path fill-rule="evenodd" clip-rule="evenodd" fill="#FFFFFF" d="M466.558,474.762c0.825,0,1.164,0.586,0.755,1.302l-0.379,0.661
		c-0.41,0.716-1.421,1.302-2.246,1.302l-27.469,0.002c-0.825,0-1.5,0.675-1.5,1.5v20.523c0,0.825-0.564,1.87-1.254,2.323
		l-0.811,0.531c-0.689,0.453-1.254,0.148-1.254-0.677v-25.968c0-0.825,0.675-1.5,1.5-1.5H466.558z"/>
</g>
<g>
	<path fill-rule="evenodd" clip-rule="evenodd" fill="#FFFFFF" d="M110.281,510.044c0.825,0,1.122,0.559,0.659,1.242l-0.53,0.782
		c-0.463,0.684-1.516,1.242-2.341,1.242H70.428c-0.825,0-1.935-0.517-2.466-1.147l-0.818-0.972
		c-0.532-0.631-0.292-1.147,0.534-1.147H110.281z"/>
</g>
<g>
	<path fill-rule="evenodd" clip-rule="evenodd" fill="#FFFFFF" d="M178.168,510.044c0.825,0,1.122,0.559,0.659,1.242l-0.53,0.782
		c-0.463,0.684-1.516,1.242-2.341,1.242h-53.272c-0.825,0-1.5,0.675-1.5,1.5v20.087c0,0.825-0.564,1.87-1.254,2.323l-0.811,0.531
		c-0.689,0.453-1.254,0.148-1.254-0.677v-25.531c0-0.825,0.675-1.5,1.5-1.5H178.168z"/>
</g>
<g>
	<path fill-rule="evenodd" clip-rule="evenodd" fill="#FFFFFF" d="M387.526,510.044c0.825,0,1.121,0.559,0.659,1.242l-0.53,0.782
		c-0.462,0.684-1.516,1.242-2.341,1.242h-51.16c-0.825,0-1.5-0.675-1.5-1.5v-0.267c0-0.825,0.675-1.5,1.5-1.5H387.526z"/>
</g>
<g>
	<path fill-rule="evenodd" clip-rule="evenodd" fill="#FFFFFF" d="M442.322,510.044c0.825,0,1.065,0.517,0.534,1.147l-0.812,0.963
		c-0.531,0.631-1.641,1.147-2.466,1.147l-37.803,0.009c-0.825,0-1.5,0.675-1.5,1.5v20.087c0,0.825-0.564,1.87-1.254,2.323
		l-0.811,0.531c-0.689,0.453-1.254,0.148-1.254-0.677v-25.531c0-0.825,0.675-1.5,1.5-1.5H442.322z"/>
</g>
<g>
	<path fill-rule="evenodd" clip-rule="evenodd" fill="#FFFFFF" d="M144.761,544.89c0.825,0,1.122,0.559,0.659,1.242l-0.53,0.782
		c-0.463,0.684-1.516,1.242-2.341,1.242h-35.272c-0.825,0-2.032-0.416-2.681-0.925l-1.812-1.417
		c-0.649-0.509-0.506-0.925,0.319-0.925H144.761z"/>
</g>
<g>
	<path fill-rule="evenodd" clip-rule="evenodd" fill="#FFFFFF" d="M186.021,544.89c0.825,0,1.5,0.675,1.5,1.5v0.267
		c0,0.825-0.675,1.5-1.5,1.5h-28.117c-0.825,0-1.5,0.675-1.5,1.5v20.087c0,0.825-0.564,1.87-1.254,2.323l-0.811,0.531
		c-0.689,0.453-1.254,0.148-1.254-0.677V546.39c0-0.825,0.675-1.5,1.5-1.5H186.021z"/>
</g>
<g>
	<path fill-rule="evenodd" clip-rule="evenodd" fill="#FFFFFF" d="M353.832,544.89c0.825,0,1.121,0.559,0.659,1.242l-0.531,0.782
		c-0.462,0.684-1.516,1.242-2.341,1.242h-24.323c-0.825,0-1.5-0.675-1.5-1.5v-0.267c0-0.825,0.675-1.5,1.5-1.5H353.832z"/>
</g>
<g>
	<path fill-rule="evenodd" clip-rule="evenodd" fill="#FFFFFF" d="M406.897,544.89c0.825,0,0.969,0.416,0.319,0.925l-1.803,1.41
		c-0.649,0.509-1.855,0.925-2.681,0.925l-35.205,0.007c-0.825,0-1.5,0.675-1.5,1.5v20.087c0,0.825-0.564,1.87-1.254,2.323
		l-0.811,0.531c-0.689,0.453-1.254,0.148-1.254-0.677V546.39c0-0.825,0.675-1.5,1.5-1.5H406.897z"/>
</g>
<g>
	<path fill-rule="evenodd" clip-rule="evenodd" fill="#FFFFFF" d="M180.568,577.121c0.825,0,1.5,0.675,1.5,1.5v0.267
		c0,0.825-0.675,1.5-1.5,1.5h-16.974c-0.825,0-2.121-0.265-2.879-0.589l-4.893-2.089c-0.759-0.324-0.705-0.589,0.121-0.589H180.568z
		"/>
</g>
<g>
	<path fill-rule="evenodd" clip-rule="evenodd" fill="#FFFFFF" d="M354.057,577.121c0.825,0,0.879,0.265,0.12,0.589l-4.892,2.089
		c-0.759,0.324-2.055,0.589-2.88,0.589h-12.251c-0.825,0-1.5-0.675-1.5-1.5v-0.267c0-0.825,0.675-1.5,1.5-1.5H354.057z"/>
</g>
<path fill-rule="evenodd" clip-rule="evenodd" fill="#FFFFFF" d="M291.01,490.536c-3.78-6.633-7.22-12.741-11.365-18.299
	c2.336-3.777,5.521-6.282,8.423-9.026c2.474-2.335,4.85-4.755,7.24-7.167c2.637-2.661,5.409-5.193,8.146-7.759
	c0.705-0.661,1.4-0.511,2.069,0.177c2.87,2.943,5.283,6.253,7.817,9.462c3.092,3.916,5.097,8.461,7.476,12.786
	c0.937,1.704,0.931,1.851-0.707,2.814c-4.226,2.486-8.558,4.807-12.706,7.412c-4.146,2.603-8.779,4.383-12.683,7.384
	C293.674,489.127,292.159,488.967,291.01,490.536z"/>
<path fill-rule="evenodd" clip-rule="evenodd" fill="#FFFFFF" d="M328.146,531.555c-3.017,1.037-5.834,0.438-8.609,0.476
	c-0.679,0.009-1.377-0.191-2.092-0.114c-6.765,0.71-13.551,0.183-20.326,0.306c-1.954,0.034-1.995-0.34-2.078-2.403
	c-0.234-5.814,0.155-11.631-0.227-17.443c-0.163-2.486-0.027-4.99-0.027-7.432c2.372-0.834,4.515-0.605,6.52-0.533
	c5.869,0.212,11.72-0.462,17.583-0.137c2.112,0.117,4.236,0.009,6.354,0.054c2.355,0.051,2.94,0.598,3.019,2.954
	c0.108,3.301,0.339,6.616,0.132,9.904c-0.224,3.55-0.132,7.078-0.048,10.619C328.375,529.009,328.224,530.219,328.146,531.555z"/>
<path fill-rule="evenodd" clip-rule="evenodd" fill="#FFFFFF" d="M236.005,467.239c0.097,1.744-1.172,2.261-1.821,3.124
	c-2.915,3.884-5.844,7.748-8.257,11.964c-0.555,0.97-1.295,1.197-2.443,0.894c-1.806-0.481-3.437-1.345-5.125-2.057
	c-7.844-3.301-15.818-6.307-23.591-9.981c-0.313-0.827-0.016-1.678,0.337-2.436c4.054-8.694,8.994-16.827,15.792-24.003
	c3.052,2.771,6.327,5.034,9.107,7.967c2.979,3.142,6.513,5.766,9.713,8.714C231.833,463.373,233.599,465.679,236.005,467.239z"/>
<path fill-rule="evenodd" clip-rule="evenodd" fill="#FFFFFF" d="M185.491,532.62c-0.126-9.369-0.409-18.421,0.464-27.341
	c1.592-0.793,2.985-0.699,4.376-0.685c7.587,0.076,15.173,0.13,22.76,0.213c2.845,0.032,3.65,0.755,3.554,3.564
	c-0.174,5.106,0.163,10.206,0.048,15.315c-0.052,2.326-0.138,4.672-0.098,7.01c0.009,0.498-0.222,1-0.383,1.67
	C206.05,533.061,195.905,532.597,185.491,532.62z"/>
<path fill-rule="evenodd" clip-rule="evenodd" fill="#FFFFFF" d="M295.627,562.941c1.389-0.264,2.762-0.693,4.294-0.701
	c5.262-0.021,10.522-0.23,15.784-0.276c3.519-0.032,7.038,0.067,10.557,0.159c1.607,0.04,2.006,0.438,2.023,2.067
	c0.038,3.537,0.015,7.073-0.004,10.612c-0.017,3.035-0.045,6.07-0.104,9.105c-0.036,1.922-0.372,1.95-2.131,2.729
	c-4.271,1.896-8.806,1.185-13.201,1.416c-5.236,0.279-10.509-0.132-15.766-0.251c-0.434-0.011-0.866-0.087-1.272-0.13
	C294.766,583.58,294.656,569.104,295.627,562.941z"/>
<path fill-rule="evenodd" clip-rule="evenodd" fill="#FFFFFF" d="M216.147,587.579c-1.318,0.557-2.521,0.602-3.616,0.519
	c-4.482-0.338-8.964,0.206-13.456-0.181c-2.775-0.238-5.604,0.134-8.409,0.238c-0.264,0.009-0.526,0.068-0.791,0.083
	c-3.279,0.179-4.18-0.606-4.104-3.767c0.102-4.317,0.118-8.624-0.139-12.946c-0.117-1.959,0.057-3.969,0.048-5.959
	c-0.009-2.273,0.523-2.627,2.73-2.936c5.246-0.731,10.512-0.291,15.768-0.361c2.632-0.034,5.265-0.034,7.897-0.04
	c0.704-0.002,1.417-0.028,2.11,0.067c2.474,0.337,2.54,0.572,2.503,2.965c-0.063,4.071,0.01,8.144,0.078,12.215
	c0.047,2.841-0.596,5.659-0.261,8.514C216.563,586.471,216.492,587.328,216.147,587.579z"/>
<path fill-rule="evenodd" clip-rule="evenodd" fill="#FFFFFF" d="M295.022,557.972c0-6.789,0-13.703,0-20.843
	c8.554-0.722,16.945-0.724,25.327-0.496c1.241,2.91,1.079,5.747,0.9,8.456c-0.188,2.874,0.211,5.707,0.055,8.557
	c-0.062,1.127-0.09,2.257-0.173,3.384c-0.095,1.264-0.83,1.838-2.104,1.831c-3.174-0.02-6.348-0.021-9.522-0.025
	c-3.499-0.009-6.998,0.002-10.496-0.023C297.708,558.803,296.354,558.99,295.022,557.972z"/>
<path fill-rule="evenodd" clip-rule="evenodd" fill="#FFFFFF" d="M191.139,558.941c-0.636-7.439-0.113-14.524-0.277-21.507
	c1.903-0.629,22.499-0.761,25.856-0.221c-0.248,6.982,0.356,14.02-0.556,21.396C207.813,558.875,199.606,559.196,191.139,558.941z"
	/>
<path fill-rule="evenodd" clip-rule="evenodd" fill="#FFFFFF" d="M199.495,477.021c7.957,3.682,15.855,6.268,23.24,9.792
	c0.312,0.813-0.119,1.32-0.371,1.849c-1.385,2.898-2.879,5.761-3.753,8.86c-0.336,1.19-1.33,1.956-1.653,3.177
	c-0.255,0.962-1.539,0.685-2.361,0.728c-2.812,0.143-5.64,0.323-8.444,0.175c-3.962-0.211-7.917,0.104-11.872-0.092
	c-0.516-0.025-1.028-0.085-1.923-0.164C193.303,492.834,196.017,485.007,199.495,477.021z"/>
<path fill-rule="evenodd" clip-rule="evenodd" fill="#FFFFFF" d="M276.049,435.707c1.406-0.023,2.097,1.193,3.164,1.726
	c4.475,2.234,8.216,5.408,11.801,8.787c1.31,1.234,2.175,2.867,3.845,3.806c0.724,0.406,0.752,1.299,0.002,2.003
	c-2.979,2.801-5.583,5.998-9.036,8.293c-0.318,0.212-0.477,0.479-0.651,0.766c-1.557,2.569-4.082,4.224-6.182,6.271
	c-1.529,1.493-2.229,1.295-3.587-0.417c-1.355-1.71-3.151-3.005-4.505-4.738c-0.712-0.912-0.937-1.719-0.814-2.839
	c0.367-3.382,1.505-6.585,2.214-9.884c0.843-3.911,1.844-7.79,2.802-11.676C275.283,437.064,275.39,436.263,276.049,435.707z"/>
<path fill-rule="evenodd" clip-rule="evenodd" fill="#FFFFFF" d="M238.208,434.482c0.402,0.298,0.834,0.446,0.932,0.715
	c2.81,7.72,5.16,15.572,7.188,23.569c-2.527,2.176-4.946,4.258-7.419,6.387c-2.471-1.562-4.416-3.567-6.445-5.404
	c-3.151-2.853-6.283-5.729-9.426-8.595c-3.334-3.037-3.329-3.069,0.068-6.123c3.174-2.854,6.57-5.457,10.138-7.773
	C234.789,436.254,236.592,435.476,238.208,434.482z"/>
<path fill-rule="evenodd" clip-rule="evenodd" fill="#FFFFFF" d="M314.927,481.27c2.287,6.311,4.79,12.498,5.862,19.093
	c-2.66,0.975-12.244,1.166-25.027,0.551c-1.394-1.452-2.196-3.25-2.842-5.145c-0.686-2.012-0.703-2.212,1.135-3.411
	c1.976-1.289,3.99-2.535,6.077-3.64c3.857-2.041,7.598-4.272,11.318-6.535C312.467,481.565,313.44,481.132,314.927,481.27z"/>
<path fill-rule="evenodd" clip-rule="evenodd" fill="#FFFFFF" d="M318.274,457.297c-2.295-3.342-5.163-8.021-7.966-10.411
	c2.362-0.719,4.063-0.363,6.859-0.293C319.526,446.443,318.311,454.186,318.274,457.297z"/>
<path fill-rule="evenodd" clip-rule="evenodd" fill="#FFFFFF" d="M221.138,441.407c-0.769,2.49-2.693,2.646-4.504,2.788
	c-1.637,0.13-1.961-1.41-2.91-2.369C216.214,440.737,218.542,441.263,221.138,441.407z"/>
<path fill-rule="evenodd" clip-rule="evenodd" fill="#FFFFFF" d="M216.449,595.476c-4.054-0.56-13.928-2.479-16.734-3.218
	c4.833-0.011,9.656-0.013,15.683,0c0.819-0.009,1.05,0.065,1.051,0.764C216.451,593.93,216.458,594.593,216.449,595.476z"/>
<path fill-rule="evenodd" clip-rule="evenodd" fill="#FFFFFF" d="M310.281,592.258c-2.995,0.774-11.194,2.331-14.684,2.889
	c0-0.74,0-1.302,0-2.223c0-0.617-0.018-0.688,0.553-0.666C298.644,592.256,308.478,592.258,310.281,592.258z"/>
</svg>
