<?xml version="1.0" encoding="UTF-8" standalone="no"?>
<!-- Created with Inkscape (http://www.inkscape.org/) -->

<svg
   xmlns:dc="http://purl.org/dc/elements/1.1/"
   xmlns:cc="http://creativecommons.org/ns#"
   xmlns:rdf="http://www.w3.org/1999/02/22-rdf-syntax-ns#"
   xmlns:svg="http://www.w3.org/2000/svg"
   xmlns="http://www.w3.org/2000/svg"
   xmlns:sodipodi="http://sodipodi.sourceforge.net/DTD/sodipodi-0.dtd"
   xmlns:inkscape="http://www.inkscape.org/namespaces/inkscape"
   width="640.65625"
   height="741.75"
   id="svg7330"
   version="1.1"
   inkscape:version="0.48.4 r9939"
   sodipodi:docname="DEU_Neef_COA.svg">
  <defs
     id="defs7332">
    <inkscape:path-effect
       effect="spiro"
       id="path-effect8101"
       is_visible="true" />
    <inkscape:path-effect
       effect="spiro"
       id="path-effect8097"
       is_visible="true" />
  </defs>
  <sodipodi:namedview
     id="base"
     pagecolor="#ffffff"
     bordercolor="#666666"
     borderopacity="1.0"
     inkscape:pageopacity="0.0"
     inkscape:pageshadow="2"
     inkscape:zoom="1.0933547"
     inkscape:cx="-15.130334"
     inkscape:cy="370.86996"
     inkscape:document-units="px"
     inkscape:current-layer="layer1"
     showgrid="false"
     inkscape:window-width="1920"
     inkscape:window-height="1054"
     inkscape:window-x="-4"
     inkscape:window-y="-4"
     inkscape:window-maximized="1"
     fit-margin-top="0"
     fit-margin-left="0"
     fit-margin-right="0"
     fit-margin-bottom="0"
     inkscape:snap-smooth-nodes="true"
     inkscape:object-nodes="true"
     inkscape:snap-midpoints="true" />
  <metadata
     id="metadata7335">
    <rdf:RDF>
      <cc:Work
         rdf:about="">
        <dc:format>image/svg+xml</dc:format>
        <dc:type
           rdf:resource="http://purl.org/dc/dcmitype/StillImage" />
        <dc:title></dc:title>
      </cc:Work>
    </rdf:RDF>
  </metadata>
  <g
     inkscape:label="Ebene 1"
     inkscape:groupmode="layer"
     id="layer1"
     transform="translate(275.96875,-78.625)">
    <path
       style="fill:#ffffff;stroke:none"
       inkscape:connector-curvature="0"
       d="m -267.18406,84.120741 -3.27948,416.624419 c 7.04006,175.24977 146.13669,314.04607 314.82211,314.14417 168.53373,-0.2149 307.68248,-139.0612 314.82223,-314.14417 l -3.27948,-416.624419 -311.53516,0 z"
       id="path10563-0-9-8"
       sodipodi:nodetypes="ccccccc" />
    <path
       style="fill:#ff0000;stroke:#000000;stroke-width:5;stroke-linecap:round;stroke-linejoin:round;stroke-miterlimit:4;stroke-opacity:1;stroke-dasharray:none;fill-opacity:1"
       d="M 132.46875 5.5 L 132.46875 156.8125 L 7.59375 156.8125 L 7.09375 219.46875 L 132.46875 219.46875 L 132.46875 369.6875 L 195.125 369.6875 L 195.125 219.46875 L 327.4375 219.46875 L 327.4375 156.8125 L 195.125 156.8125 L 195.125 5.5 L 132.46875 5.5 z "
       transform="translate(-275.96875,78.625)"
       id="rect7983-3" />
    <path
       style="fill:#000000;fill-opacity:1;stroke:none"
       d="M 320.34375 5.5 L 320.34375 365.71875 L 634.71875 365.71875 L 631.875 5.5 L 320.34375 5.5 z "
       transform="translate(-275.96875,78.625)"
       id="rect7936" />
    <path
       style="fill:#000000;fill-opacity:1;stroke:none"
       d="M 5.9375 365.71875 L 5.5 422.125 C 12.54006 597.37477 151.62708 736.1519 320.3125 736.25 C 320.32287 736.24999 320.33338 736.25001 320.34375 736.25 L 320.34375 365.71875 L 5.9375 365.71875 z "
       transform="translate(-275.96875,78.625)"
       id="rect7936-1" />
    <path
       style="fill:none;stroke:#000000;stroke-width:11;stroke-opacity:1"
       inkscape:connector-curvature="0"
       d="m -267.18406,84.120742 -3.27948,416.624418 c 7.04006,175.24977 146.13669,314.04607 314.82211,314.14417 168.53373,-0.2149 307.68248,-139.0612 314.82223,-314.14417 l -3.27948,-416.624418 -311.53516,0 z"
       id="path10563-0-9"
       sodipodi:nodetypes="ccccccc" />
    <path
       style="fill:#ff0000;fill-opacity:1;stroke:#000000;stroke-width:5;stroke-linecap:round;stroke-linejoin:round;stroke-miterlimit:4;stroke-opacity:1;stroke-dasharray:none;stroke-dashoffset:3.11810971"
       d="m 148.71205,463.09375 0,45.40625 -46.9375,0 0,46.9375 46.9375,0 0,66.53125 -87.0625,0 0,46.9375 87.0625,0 0,76.71875 46.9375,0 0,-76.71875 87.03125,0 0,-46.9375 -87.03125,0 0,-66.53125 46.9375,0 0,-46.9375 -46.9375,0 0,-45.40625 -46.9375,0 z"
       id="rect8054"
       inkscape:connector-curvature="0" />
    <path
       style="fill:#ffffff;stroke:#000000;stroke-width:1px;stroke-linecap:butt;stroke-linejoin:miter;stroke-opacity:1"
       d="m -181.46354,504.36471 201.59276,-29.96649 -139.7139,218.3273 135.82215,11.67526 -176.68555,9.34021 124.92525,-199.25772 z"
       id="path8093"
       inkscape:connector-curvature="0" />
    <path
       style="fill:#ffffff;stroke:#000000;stroke-width:3;stroke-linecap:round;stroke-linejoin:round;stroke-miterlimit:4;stroke-opacity:1;stroke-dasharray:none"
       d="m 325.0474,360.65113 c -0.62277,1.44036 -1.71312,2.65754 -3.01942,3.52705 -1.3063,0.86952 -2.82184,1.40049 -4.37164,1.64669 -3.96214,0.62942 -8.04438,-0.59384 -11.4961,-2.63843 -3.45172,-2.04459 -6.36604,-4.8683 -9.19886,-7.70905 -34.46244,-34.55899 -61.88063,-75.43534 -94.23601,-111.97454 -11.77291,-13.29524 -24.21615,-26.03577 -34.99421,-40.14953 -10.77806,-14.11376 -19.93999,-29.80887 -24.13426,-47.06497 -0.883,-3.63286 -1.54469,-7.34855 -1.47821,-11.08659 0.0312,-1.75261 0.23008,-3.53134 0.91297,-5.14574 0.6829,-1.61439 1.89947,-3.05938 3.52167,-3.72353 1.55135,-0.63514 3.33732,-0.50453 4.91746,0.0551 1.58015,0.55965 2.98629,1.51801 4.32136,2.53175 7.15009,5.42917 12.74263,12.66861 17.43866,20.32021 4.69603,7.65161 8.56892,15.77331 12.86468,23.65659 9.80706,17.99724 21.80723,34.72672 34.73798,50.62876 25.58168,31.45996 54.8017,59.73474 82.41031,89.43181 7.69556,8.27769 15.37156,16.81858 20.32541,26.97737 0.81632,1.67401 1.56063,3.40286 1.9161,5.23107 0.35547,1.8282 0.30124,3.77647 -0.43789,5.48596"
       id="path8095"
       inkscape:path-effect="#path-effect8097"
       inkscape:original-d="m 325.0474,360.65113 c -1.20288,2.75626 -4.39188,4.95278 -7.39106,5.17374 -7.69171,0.56666 -14.6374,-5.57365 -20.69496,-10.34748 -38.31559,-30.1956 -64.80266,-73.07035 -94.23601,-111.97454 -21.19113,-28.00986 -46.61869,-54.39497 -59.12847,-87.2145 -1.32789,-3.48374 -2.0926,-7.40933 -1.47821,-11.08659 0.5447,-3.26019 1.4126,-7.53031 4.43464,-8.86927 2.92391,-1.29547 6.63641,0.72811 9.23882,2.58687 14.48647,10.34693 20.21688,29.30778 30.30334,43.9768 11.59619,16.86467 21.98099,34.62414 34.73798,50.62876 25.26705,31.69944 56.44687,58.30017 82.41031,89.43181 7.21122,8.64667 16.0305,16.56966 20.32541,26.97737 1.37561,3.33348 2.92063,7.4119 1.47821,10.71703 z"
       inkscape:connector-curvature="0"
       sodipodi:nodetypes="aaaaaaaaaaaaa" />
    <path
       style="fill:#ffffff;stroke:#000000;stroke-width:3;stroke-linecap:round;stroke-linejoin:round;stroke-miterlimit:4;stroke-opacity:1;stroke-dasharray:none"
       d="m 168.35695,142.98444 c -2.50512,-0.14794 -4.97545,0.88812 -6.94733,2.44027 -1.97188,1.55216 -3.50141,3.59193 -4.87836,5.6899 -4.14016,6.30808 -7.08494,13.3065 -10.39294,20.0881 -3.30799,6.78159 -7.07923,13.48639 -12.51935,18.71496 -3.22713,3.10164 -7.02181,5.64136 -11.20289,7.23923 -4.18107,1.59788 -8.75286,2.23638 -13.1876,1.63004 -7.11696,-0.97307 -13.411041,-5.00898 -19.21676,-9.23882 -6.441279,-4.69289 -12.613919,-9.75446 -18.47764,-15.15168 1.374209,14.87224 3.471639,29.67763 6.2824,44.34636 3.559491,18.57618 8.299018,37.03589 16.042692,54.2922 7.743678,17.2563 18.613038,33.33618 33.107848,45.4871 14.64108,12.27354 33.03452,20.31926 52.10697,21.43407 8.05768,0.47098 16.18564,-0.27929 24.02094,-2.21732 -8.344,-9.26561 -15.66992,-19.4474 -21.80363,-30.30334 -6.47136,-11.45355 -11.71584,-24.18459 -11.08659,-37.32485 0.52087,-10.87694 5.03047,-21.16983 10.34749,-30.6729 4.18268,-7.47568 9.0504,-14.79931 15.89077,-19.95585 1.93561,-1.45914 4.00974,-2.72901 5.92219,-4.21837 1.91246,-1.48935 3.68638,-3.23433 4.79485,-5.39001 1.02668,-1.99662 1.4387,-4.27996 1.34694,-6.5232 -0.0918,-2.24324 -0.67388,-4.44926 -1.54092,-6.5202 -1.73409,-4.14187 -4.56237,-7.7111 -7.19708,-11.3471 -7.46649,-10.30404 -13.58437,-21.50586 -19.95586,-32.52066 -1.32417,-2.28918 -2.67968,-4.5975 -4.53279,-6.48423 -1.85311,-1.88674 -4.28337,-3.33779 -6.92335,-3.4937"
       id="path8099"
       inkscape:path-effect="#path-effect8101"
       inkscape:original-d="m 168.35695,142.98444 c -4.77581,-0.27312 -8.56168,4.63315 -11.82569,8.13017 -10.24925,10.98092 -11.35707,29.20594 -22.91229,38.80306 -6.65501,5.52728 -15.75016,9.29893 -24.39049,8.86927 -7.09866,-0.353 -13.22337,-5.41851 -19.21676,-9.23882 -6.7167,-4.28136 -18.47764,-15.15168 -18.47764,-15.15168 0,0 1.88153,30.08001 6.2824,44.34636 10.92898,35.42865 22.0647,74.46154 49.15054,99.7793 13.72048,12.82485 33.53428,18.64415 52.10697,21.43407 7.9518,1.19449 24.02094,-2.21732 24.02094,-2.21732 0,0 -16.32135,-19.13199 -21.80363,-30.30334 -5.71789,-11.65146 -11.32429,-24.34817 -11.08659,-37.32485 0.19762,-10.7886 5.18452,-21.19784 10.34749,-30.6729 4.06863,-7.46673 10.05624,-13.77005 15.89077,-19.95585 3.29206,-3.49026 9.42423,-4.98797 10.71704,-9.60838 2.28909,-8.18104 -3.90912,-16.6416 -7.39106,-24.3905 -5.21289,-11.60106 -11.73986,-22.81209 -19.95586,-32.52066 -3.27133,-3.86563 -6.40034,-9.68879 -11.45614,-9.97793 z"
       inkscape:connector-curvature="0"
       sodipodi:nodetypes="aaaaacaaacaaaaaaaa" />
  </g>
</svg>
