<?xml version="1.0" encoding="UTF-8" standalone="no"?>
<!-- Created with Inkscape (http://www.inkscape.org/) -->

<svg
   width="118.04389mm"
   height="140.88953mm"
   viewBox="0 0 118.04389 140.88953"
   version="1.1"
   id="svg5"
   inkscape:version="1.2.2 (732a01da63, 2022-12-09)"
   sodipodi:docname="DEU Neuenkirchen (Altes Land) COA.svg"
   xmlns:inkscape="http://www.inkscape.org/namespaces/inkscape"
   xmlns:sodipodi="http://sodipodi.sourceforge.net/DTD/sodipodi-0.dtd"
   xmlns="http://www.w3.org/2000/svg"
   xmlns:svg="http://www.w3.org/2000/svg">
  <sodipodi:namedview
     id="namedview7"
     pagecolor="#9e9e9e"
     bordercolor="#666666"
     borderopacity="1.0"
     inkscape:showpageshadow="2"
     inkscape:pageopacity="0"
     inkscape:pagecheckerboard="0"
     inkscape:deskcolor="#8c8c8c"
     inkscape:document-units="mm"
     showgrid="false"
     inkscape:zoom="1.0052282"
     inkscape:cx="222.83498"
     inkscape:cy="267.10353"
     inkscape:current-layer="layer1" />
  <defs
     id="defs2" />
  <g
     inkscape:label="Ebene 1"
     inkscape:groupmode="layer"
     id="layer1"
     transform="translate(-562.6645,-78.055236)">
    <g
       id="g2383"
       transform="translate(516.66908,-3.15302)">
      <path
         id="path913"
         style="fill:#e50000;fill-opacity:1;stroke:none;stroke-width:3.1;stroke-dasharray:none"
         d="m 47.545418,82.758256 v 79.427714 a 57.471886,58.361759 0 0 0 57.471942,58.36181 57.471886,58.361759 0 0 0 57.47195,-58.36181 V 82.758256 Z" />
      <path
         id="path1285"
         style="fill:#ffffff;stroke:none;stroke-width:1.8;stroke-dasharray:none"
         d="m 47.545418,153.21029 v 8.97568 a 57.471886,58.361759 0 0 0 57.471942,58.36181 57.471886,58.361759 0 0 0 57.47195,-58.36181 v -8.97568 z" />
      <rect
         style="fill:#e50000;fill-opacity:1;stroke:#000000;stroke-width:1.8;stroke-dasharray:none"
         id="rect1136"
         width="22.180614"
         height="22.101959"
         x="116.10767"
         y="153.21033" />
      <rect
         style="fill:#e50000;fill-opacity:1;stroke:#000000;stroke-width:1.8;stroke-dasharray:none"
         id="rect1140"
         width="22.180614"
         height="22.101959"
         x="71.746445"
         y="153.21033" />
      <rect
         style="fill:#e50000;fill-opacity:1;stroke:#000000;stroke-width:1.8;stroke-dasharray:none"
         id="rect1144"
         width="22.180614"
         height="22.101959"
         x="93.927055"
         y="175.31229" />
      <path
         id="rect1148"
         style="fill:#e50000;fill-opacity:1;stroke:#000000;stroke-width:1.8;stroke-dasharray:none"
         d="m 138.2882,175.3123 v 22.10201 h 12.54445 a 57.471886,58.361759 0 0 0 9.63611,-19.88923 v -2.21278 z" />
      <path
         id="rect1152"
         style="fill:#e50000;fill-opacity:1;stroke:#000000;stroke-width:1.8;stroke-dasharray:none"
         d="m 49.565967,175.3123 v 2.05569 a 57.471886,58.361759 0 0 0 9.672794,20.04632 H 71.746525 V 175.3123 Z" />
      <path
         id="rect1156"
         style="fill:#e50000;fill-opacity:1;stroke:#000000;stroke-width:1.8;stroke-dasharray:none"
         d="m 116.10764,197.41431 v 22.03224 a 57.471886,58.361759 0 0 0 22.18056,-9.67641 v -12.35583 z" />
      <path
         id="rect1160"
         style="fill:#e50000;fill-opacity:1;stroke:#000000;stroke-width:1.8;stroke-dasharray:none"
         d="m 71.746525,197.41431 v 12.33361 a 57.471886,58.361759 0 0 0 22.180558,9.65729 v -21.9909 z" />
      <path
         style="fill:none;stroke:#000000;stroke-width:1.8;stroke-dasharray:none"
         d="M 47.545577,153.21032 H 71.746445"
         id="path1279" />
      <path
         style="fill:none;stroke:#000000;stroke-width:1.8;stroke-dasharray:none"
         d="M 93.927061,153.21032 H 116.10767"
         id="path1281" />
      <path
         style="fill:none;stroke:#000000;stroke-width:1.8;stroke-dasharray:none"
         d="m 138.28828,153.21032 h 24.20103"
         id="path1283" />
      <path
         id="path845"
         style="fill:#ffffff;fill-opacity:1;stroke:#000000;stroke-width:1.8;stroke-dasharray:none"
         d="m 104.91763,99.256474 c -19.047642,2.22e-4 -23.245546,13.078856 -36.787422,13.079826 -7.619707,3.6e-4 -14.026247,-5.1448 -20.58479,-9.64489 v 24.34166 c 6.558543,4.50011 12.965083,9.64526 20.58479,9.64489 13.541876,-9.7e-4 17.73978,-13.0796 36.787422,-13.07982 19.04764,-2.2e-4 23.25178,13.07617 36.79362,13.07517 7.6961,-5.3e-4 14.15257,-5.24813 20.77806,-9.7808 v -24.34166 c -6.62549,4.53266 -13.08196,9.77974 -20.77806,9.78028 -13.54184,0.001 -17.74598,-13.074878 -36.79362,-13.074656 z" />
      <path
         id="path2367"
         style="fill:none;stroke:#000000;stroke-width:3.1;stroke-dasharray:none"
         d="m 47.545418,82.758256 v 79.427714 a 57.471886,58.361759 0 0 0 57.471942,58.36181 57.471886,58.361759 0 0 0 57.47195,-58.36181 V 82.758256 Z" />
    </g>
  </g>
</svg>
