<?xml version="1.0" encoding="UTF-8" standalone="no"?>
<svg
   xmlns:dc="http://purl.org/dc/elements/1.1/"
   xmlns:cc="http://creativecommons.org/ns#"
   xmlns:rdf="http://www.w3.org/1999/02/22-rdf-syntax-ns#"
   xmlns:svg="http://www.w3.org/2000/svg"
   xmlns="http://www.w3.org/2000/svg"
   xmlns:sodipodi="http://sodipodi.sourceforge.net/DTD/sodipodi-0.dtd"
   xmlns:inkscape="http://www.inkscape.org/namespaces/inkscape"
   version="1.1"
   width="288"
   height="325.41452"
   id="svg127"
   viewBox="0 0 288 325.41452"
   sodipodi:docname="DE-BB Neuenhagen.svg"
   inkscape:version="0.92.3 (2405546, 2018-03-11)">
  <metadata
     id="metadata133">
    <rdf:RDF>
      <cc:Work
         rdf:about="">
        <dc:format>image/svg+xml</dc:format>
        <dc:type
           rdf:resource="http://purl.org/dc/dcmitype/StillImage" />
        <dc:title></dc:title>
      </cc:Work>
    </rdf:RDF>
  </metadata>
  <defs
     id="defs131" />
  <sodipodi:namedview
     pagecolor="#ffffff"
     bordercolor="#666666"
     borderopacity="1"
     objecttolerance="10"
     gridtolerance="10"
     guidetolerance="10"
     inkscape:pageopacity="0"
     inkscape:pageshadow="2"
     inkscape:window-width="1600"
     inkscape:window-height="850"
     id="namedview129"
     showgrid="false"
     inkscape:zoom="1.6225402"
     inkscape:cx="181.48379"
     inkscape:cy="194.36314"
     inkscape:window-x="-8"
     inkscape:window-y="-8"
     inkscape:window-maximized="1"
     inkscape:current-layer="svg127" />
  <g
     id="Layer1000"
     transform="matrix(0.82947252,0,0,0.82947252,-107.702,-204.55966)">
    <path
       d="m 133.3701,250.0157 8.039,223.4353 c 3.2097,89.2103 72.8082,162.0766 162.0766,162.0766 89.2683,0 158.896,-72.8649 162.0765,-162.0766 l 7.9654,-223.4353 z"
       style="fill:#ffffff;fill-rule:evenodd"
       id="path10"
       inkscape:connector-curvature="0" />
    <g
       id="Layer1001">
      <path
         d="M 247.9615,344.8315 V 563.7064 H 358.9359 V 344.8315 Z"
         style="fill:#e30016;fill-rule:evenodd"
         id="path12"
         inkscape:connector-curvature="0" />
      <g
         id="Layer1002">
        <path
           d="m 198.9493,463.0912 v 100.6152 h 43.1674 V 463.0912 Z"
           style="fill:#e30016;fill-rule:evenodd"
           id="path14"
           inkscape:connector-curvature="0" />
        <path
           d="m 213.5721,474.8315 v 12.9628 h 16.9186 v -12.9628 z"
           style="fill:#ffffff;fill-rule:evenodd"
           id="path16"
           inkscape:connector-curvature="0" />
        <path
           d="m 213.5721,498.369 v 12.9628 h 16.9186 V 498.369 Z"
           style="fill:#ffffff;fill-rule:evenodd"
           id="path18"
           inkscape:connector-curvature="0" />
        <path
           d="m 213.5721,521.9079 v 12.9628 h 16.9186 v -12.9628 z"
           style="fill:#ffffff;fill-rule:evenodd"
           id="path20"
           inkscape:connector-curvature="0" />
      </g>
      <path
         d="m 254.4381,289.5304 v 4.1077 h 98.0215 v -4.1077 z"
         style="fill:#e30016;fill-rule:evenodd"
         id="path23"
         inkscape:connector-curvature="0" />
      <path
         d="m 250.9294,299.505 v 39.4574 H 355.968 V 299.505 Z"
         style="fill:#e30016;fill-rule:evenodd"
         id="path25"
         inkscape:connector-curvature="0" />
      <path
         d="m 303.4488,273.7519 -33.3025,10.5038 h 66.6051 z"
         style="fill:#e30016;fill-rule:evenodd"
         id="path27"
         inkscape:connector-curvature="0" />
      <path
         d="m 281.8641,286.8548 v 276.8516 h 6.9452 V 286.8548 Z"
         style="fill:#ffffff;fill-rule:evenodd"
         id="path29"
         inkscape:connector-curvature="0" />
      <path
         d="m 260.2743,498.4138 v 65.2926 h 15.1997 v -65.2926 z"
         style="fill:#ffffff;fill-rule:evenodd"
         id="path31"
         inkscape:connector-curvature="0" />
      <path
         d="m 260.2743,474.8428 v 12.9195 h 15.1997 v -12.9195 z"
         style="fill:#ffffff;fill-rule:evenodd"
         id="path33"
         inkscape:connector-curvature="0" />
      <path
         d="m 260.2743,450.2168 v 12.9195 h 15.1997 v -12.9195 z"
         style="fill:#ffffff;fill-rule:evenodd"
         id="path35"
         inkscape:connector-curvature="0" />
      <path
         d="m 260.2743,425.5909 v 12.9194 h 15.1997 v -12.9194 z"
         style="fill:#ffffff;fill-rule:evenodd"
         id="path37"
         inkscape:connector-curvature="0" />
      <path
         d="m 264.6604,404.2643 v 7.0691 h 6.4276 v -7.0691 z"
         style="fill:#ffffff;fill-rule:evenodd"
         id="path39"
         inkscape:connector-curvature="0" />
      <path
         d="m 264.6604,377.7252 v 7.0692 h 6.4276 v -7.0692 z"
         style="fill:#ffffff;fill-rule:evenodd"
         id="path41"
         inkscape:connector-curvature="0" />
      <path
         d="m 264.6604,348.9252 v 7.0692 h 6.4276 v -7.0692 z"
         style="fill:#ffffff;fill-rule:evenodd"
         id="path43"
         inkscape:connector-curvature="0" />
      <path
         d="m 346.6233,498.4138 v 65.2926 h -15.1996 v -65.2926 z"
         style="fill:#ffffff;fill-rule:evenodd"
         id="path45"
         inkscape:connector-curvature="0" />
      <path
         d="m 346.6233,474.8428 v 12.9195 h -15.1996 v -12.9195 z"
         style="fill:#ffffff;fill-rule:evenodd"
         id="path47"
         inkscape:connector-curvature="0" />
      <path
         d="m 346.6233,450.2168 v 12.9195 h -15.1996 v -12.9195 z"
         style="fill:#ffffff;fill-rule:evenodd"
         id="path49"
         inkscape:connector-curvature="0" />
      <path
         d="m 346.6233,425.5909 v 12.9194 h -15.1996 v -12.9194 z"
         style="fill:#ffffff;fill-rule:evenodd"
         id="path51"
         inkscape:connector-curvature="0" />
      <path
         d="m 342.2373,404.2643 v 7.0691 h -6.4276 v -7.0691 z"
         style="fill:#ffffff;fill-rule:evenodd"
         id="path53"
         inkscape:connector-curvature="0" />
      <path
         d="m 325.0332,286.8548 v 276.8516 h -6.9451 V 286.8548 Z"
         style="fill:#ffffff;fill-rule:evenodd"
         id="path55"
         inkscape:connector-curvature="0" />
      <path
         d="m 342.2373,377.7252 v 7.0692 h -6.4276 v -7.0692 z"
         style="fill:#ffffff;fill-rule:evenodd"
         id="path57"
         inkscape:connector-curvature="0" />
      <path
         d="m 342.2373,348.9252 v 7.0692 h -6.4276 v -7.0692 z"
         style="fill:#ffffff;fill-rule:evenodd"
         id="path59"
         inkscape:connector-curvature="0" />
      <path
         d="m 295.8489,498.4138 v 65.2926 h 15.1996 v -65.2926 z"
         style="fill:#ffffff;fill-rule:evenodd"
         id="path61"
         inkscape:connector-curvature="0" />
      <path
         d="m 295.8489,474.8428 v 12.9195 h 15.1996 v -12.9195 z"
         style="fill:#ffffff;fill-rule:evenodd"
         id="path63"
         inkscape:connector-curvature="0" />
      <path
         d="m 295.8489,450.2168 v 12.9195 h 15.1996 v -12.9195 z"
         style="fill:#ffffff;fill-rule:evenodd"
         id="path65"
         inkscape:connector-curvature="0" />
      <path
         d="m 295.8489,425.5909 v 12.9194 h 15.1996 v -12.9194 z"
         style="fill:#ffffff;fill-rule:evenodd"
         id="path67"
         inkscape:connector-curvature="0" />
      <path
         d="m 300.2349,348.9252 v 7.0692 h 6.4276 v -7.0692 z"
         style="fill:#ffffff;fill-rule:evenodd"
         id="path69"
         inkscape:connector-curvature="0" />
      <path
         d="m 296.1456,374.239 v 15.2527 H 310.752 V 374.239 Z"
         style="fill:#ffffff;fill-rule:evenodd"
         id="path71"
         inkscape:connector-curvature="0" />
      <path
         d="m 299.9409,311.9057 v 10.5917 h 7.0158 v -10.5917 z"
         style="fill:#ffffff;fill-rule:evenodd"
         id="path73"
         inkscape:connector-curvature="0" />
      <path
         d="m 264.3661,311.9057 v 10.5917 h 7.0158 v -10.5917 z"
         style="fill:#ffffff;fill-rule:evenodd"
         id="path75"
         inkscape:connector-curvature="0" />
      <path
         d="m 335.5157,311.9057 v 10.5917 h 7.0158 v -10.5917 z"
         style="fill:#ffffff;fill-rule:evenodd"
         id="path77"
         inkscape:connector-curvature="0" />
      <g
         id="Layer1003">
        <path
           d="M 407.9486,463.0912 V 563.7064 H 364.7812 V 463.0912 Z"
           style="fill:#e30016;fill-rule:evenodd"
           id="path79"
           inkscape:connector-curvature="0" />
        <path
           d="m 393.3258,474.8315 v 12.9628 h -16.9186 v -12.9628 z"
           style="fill:#ffffff;fill-rule:evenodd"
           id="path81"
           inkscape:connector-curvature="0" />
        <path
           d="m 393.3258,498.369 v 12.9628 H 376.4072 V 498.369 Z"
           style="fill:#ffffff;fill-rule:evenodd"
           id="path83"
           inkscape:connector-curvature="0" />
        <path
           d="m 393.3258,521.9079 v 12.9628 h -16.9186 v -12.9628 z"
           style="fill:#ffffff;fill-rule:evenodd"
           id="path85"
           inkscape:connector-curvature="0" />
      </g>
      <path
         d="m 263.4409,509.5553 v 6.3034 h 80.0155 v -6.3034 z"
         style="fill:#ffffff;fill-rule:evenodd"
         id="path88"
         inkscape:connector-curvature="0" />
      <path
         d="m 266.1403,514.8218 v 48.8846 h 74.617 v -48.8846 z"
         style="fill:#e30016;fill-rule:evenodd"
         id="path90"
         inkscape:connector-curvature="0" />
      <g
         id="Layer1004">
        <path
           d="m 270.1502,524.8542 v 10.586 h 6.4335 v -10.586 z"
           style="fill:#ffffff;fill-rule:evenodd"
           id="path92"
           inkscape:connector-curvature="0" />
        <path
           d="m 282.407,524.8542 v 25.6765 h 16.3533 v -25.6765 z"
           style="fill:#ffffff;fill-rule:evenodd"
           id="path94"
           inkscape:connector-curvature="0" />
      </g>
      <g
         id="Layer1005">
        <path
           d="M 351.157,573.0999 327.0016,548.4044 H 279.896 l -24.1554,24.6955 z"
           style="fill:#ffffff;fill-rule:evenodd"
           id="path97"
           inkscape:connector-curvature="0" />
        <path
           d="m 264.6816,573.0999 18.9652,-19.3893 h 39.604 l 18.9652,19.3893 z"
           style="fill:#e30016;fill-rule:evenodd"
           id="path99"
           inkscape:connector-curvature="0" />
      </g>
      <g
         id="Layer1006">
        <path
           d="m 336.746,524.8542 v 10.586 h -6.4335 v -10.586 z"
           style="fill:#ffffff;fill-rule:evenodd"
           id="path102"
           inkscape:connector-curvature="0" />
        <path
           d="m 324.4893,524.8542 v 25.6765 h -16.3534 v -25.6765 z"
           style="fill:#ffffff;fill-rule:evenodd"
           id="path104"
           inkscape:connector-curvature="0" />
      </g>
    </g>
    <g
       id="Layer1007">
      <path
         d="m 372.0036,341.6081 2.0587,57.2196 c 0.822,22.8458 18.6455,41.5062 41.5062,41.5062 22.8607,0 40.6917,-18.66 41.5062,-41.5062 l 2.0398,-57.2196 z"
         style="fill:none;stroke:#1b1918;stroke-width:3.9684999;stroke-linecap:butt;stroke-linejoin:miter;stroke-dasharray:none"
         id="path108"
         inkscape:connector-curvature="0" />
      <path
         d="m 385.1668,356.542 c 3.581,14.4868 13.3158,25.5575 25.9424,33.048 0.2129,-1.6806 0.6939,-3.1929 1.4429,-4.5371 -7.6507,-10.2266 -10.5965,-17.8756 -27.3853,-28.5109 z"
         style="fill:#009634;fill-rule:evenodd"
         id="path110"
         inkscape:connector-curvature="0" />
      <path
         d="m 400.1267,348.9197 c 4.8611,3.1892 8.6751,7.5296 11.9027,12.5115 -1.279,3.2057 -2.0702,6.8386 -2.5266,10.7646 -4.8812,-6.2635 -7.918,-14.1662 -9.3761,-23.2761 z"
         style="fill:#009634;fill-rule:evenodd"
         id="path112"
         inkscape:connector-curvature="0" />
      <path
         d="m 414.6752,381.4435 c 2.85,-8.6539 6.4006,-14.752 10.7209,-17.8554 1.7306,-5.3277 2.0532,-10.3297 1.7365,-15.2668 -6.1517,4.3798 -10.1426,14.3353 -11.3558,18.4977 -1.4412,4.9431 -4.0074,10.906 -1.1016,14.6245 z"
         style="fill:#009634;fill-rule:evenodd"
         id="path114"
         inkscape:connector-curvature="0" />
      <path
         d="m 443.3998,353.7343 c -3.0651,2.6294 -5.8453,5.2413 -10.2761,8.6579 -5.5188,4.2553 -10.518,10.434 -12.7874,15.1996 -4.0677,8.5428 -4.7047,16.5898 -10.6478,21.134 -5.9431,4.5442 -13.6568,8.4512 -13.4201,14.851 0.2367,6.3998 6.2703,9.5646 10.0758,10.5174 3.8055,0.9527 5.6574,1.3884 5.8652,3.3956 2.1461,-1.0352 7.1019,-0.834 8.9141,-0.0318 0.8864,-2.1965 2.1376,-2.7189 6.4961,-3.7706 4.3586,-1.0517 7.7565,-3.1844 7.7961,-9.86 0.0397,-6.6756 -6.1628,-10.3731 -11.1262,-13.8719 -2.0132,-1.4191 -4.0638,-2.7641 -4.1105,-6.306 -0.0477,-3.5963 1.6316,-5.4496 3.7527,-7.5708 4.1143,-4.1142 9.637,-9.9901 14.4465,-17.0776 2.8871,-4.2545 5.0874,-9.6361 5.0216,-15.2668 z"
         style="fill:#009634;fill-rule:evenodd"
         id="path116"
         inkscape:connector-curvature="0" />
    </g>
    <g
       id="Layer1008">
      <path
         d="m 147.7826,341.6081 2.0587,57.2196 c 0.8219,22.8458 18.6454,41.5062 41.5062,41.5062 22.8607,0 40.6917,-18.66 41.5061,-41.5062 l 2.0399,-57.2196 z"
         style="fill:none;stroke:#1b1918;stroke-width:3.9684999;stroke-linecap:butt;stroke-linejoin:miter;stroke-dasharray:none"
         id="path119"
         inkscape:connector-curvature="0" />
      <path
         d="m 163.4513,409.551 c 0.4023,-3.2502 1.1753,-6.9485 2.4018,-10.5182 5.6518,-2.5832 11.0393,-14.9562 11.0826,-36.8416 1.696,-1.4553 3.888,-2.4154 6.4086,-3.0073 -0.4561,-1.1409 -0.8436,-2.2731 -1.1503,-3.3948 -0.4734,-1.7311 -0.7566,-3.4458 -0.7994,-5.1414 l -0.0365,-1.4505 h 19.9616 l -0.0372,1.4505 c -0.0431,1.6956 -0.326,3.4103 -0.7994,5.1414 -0.3067,1.1217 -0.6959,2.2539 -1.152,3.3945 2.5212,0.5916 4.7141,1.552 6.4103,3.0076 0.0434,21.8854 5.4309,34.2584 11.0826,36.8416 1.2266,3.5697 1.9996,7.268 2.4018,10.5182 h -23.0726 v 0.7421 c 0,2.0251 -1.2676,3.769 -3.0483,4.4774 v 10.6078 h -3.5326 v -10.6078 c -1.7804,-0.7084 -3.0481,-2.4523 -3.0481,-4.4774 v -0.7421 z m 22.7458,-50.8697 c 1.1948,-0.1491 2.4409,-0.2364 3.7242,-0.2727 v -6.3768 h -5.5874 c 0.1145,0.9921 0.3166,1.997 0.595,3.0152 0.3274,1.1979 0.7568,2.41 1.2682,3.6343 z m 6.5588,-0.2727 c 1.2824,0.0363 2.5282,0.1236 3.7227,0.2727 0.5114,-1.224 0.942,-2.4364 1.2697,-3.6343 0.2783,-1.0182 0.4822,-2.0231 0.597,-3.0152 h -5.5894 z"
         style="fill:#1b1918;fill-rule:evenodd"
         id="path121"
         inkscape:connector-curvature="0" />
    </g>
    <path
       d="m 133.3701,250.0157 8.039,223.4353 c 3.2097,89.2103 72.8082,162.0766 162.0766,162.0766 89.2683,0 158.896,-72.8649 162.0765,-162.0766 l 7.9654,-223.4353 z"
       style="fill:none;stroke:#1b1918;stroke-width:6.80310011;stroke-linecap:butt;stroke-linejoin:miter;stroke-dasharray:none"
       id="path124"
       inkscape:connector-curvature="0" />
  </g>
</svg>
