<?xml version="1.0" encoding="UTF-8"?>
<!-- Created with Inkscape (http://www.inkscape.org/) -->
<svg width="203mm" height="242.65mm" version="1.1" viewBox="0 0 203 242.65" xmlns="http://www.w3.org/2000/svg">
 <title>Wappen Niederbexbach</title>
 <g transform="translate(-4.3333 -27.509)">
  <path d="m5.8333 29.009 3.175e-4 139.77c-2.95e-5 26.49 10.536 51.896 29.289 70.628 18.754 18.732 44.189 29.255 70.71 29.255 26.522 3e-5 51.957-10.523 70.711-29.255 18.754-18.732 29.289-44.137 29.289-70.628l1e-5 -139.77z" fill="#078930"/>
  <path d="m52.992 35.732v5.8627a40.1 40.1 0 0 0-16.487 5.9872l-8.9891-0.262-5.3036 5.3036 4.1512 4.1512a40.1 40.1 0 0 0-7.4574 15.912l-6.5138 6.1448v7.5003h5.8544a40.1 40.1 0 0 0 5.9955 16.484l-0.262 8.9922 5.3036 5.303 4.1569-4.1568a40.1 40.1 0 0 0 15.958 7.5179l6.0937 6.4596h7.5003v-5.8632a40.1 40.1 0 0 0 16.486-5.9872l8.9896 0.262 5.3035-5.303-4.1512-4.1512a40.1 40.1 0 0 0 7.4579-15.913l6.5133-6.1448v-7.4998h-5.8544a40.1 40.1 0 0 0-5.9955-16.484l0.26199-8.9922-5.3035-5.303-4.1569 4.1568a40.1 40.1 0 0 0-15.957-7.5179l-6.0942-6.4596zm0.7483 13.395v24.255h-3.698v3.698h-24.235a32.5 32.5 0 0 1 27.933-27.953zm8.5044 0.0248a32.5 32.5 0 0 1 27.929 27.928h-24.232v-3.698h-3.6975zm-7.1758 29.257h5.8467v5.8467h-5.8467zm-29.258 7.1758h24.232v3.6974h3.698v24.231a32.5 32.5 0 0 1-27.93-27.928zm40.131 0h24.235a32.5 32.5 0 0 1-27.933 27.953v-24.255h3.6975z" fill="#fcdd09" stroke="#000" stroke-linecap="round" stroke-linejoin="round" stroke-width="1.5"/>
  <g fill="#fff" stroke="#000" stroke-width="1.5">
   <path d="m182.64 29.009c-2.8736 1.7463-5.4454 3.558-7.5101 5.4033-9.957 8.8987-10.889 22.454-21.792 34.399-12.06 13.214-34.063 19.567-46.257 32.658-16.602 17.825-15.415 29.914-22.915 38.462-9.9816 11.377-27.934 16.432-40.004 30.226-12.385 14.153-17.94 34.117-25.223 48.039 4.3855 7.6932 9.8111 14.835 16.188 21.205 2.7955 2.7922 5.74 5.4004 8.8139 7.8202 0.84048-1.4868 1.681-3.0374 2.5993-4.6855 3.5906-6.4439 9.821-27.33 18.709-38.487 10.975-13.777 29.184-20.224 41.159-33.142 11.761-12.685 16.513-29.297 28.644-41.629 13.101-13.317 24.488-12.633 41.648-31.336 9.689-10.56 10.26-21.703 23.787-35.814 1.3833-1.4431 3.256-2.8953 5.3496-4.2922v-28.829z"/>
   <path d="m108.28 197.62c-0.75931-0.01-1.5144 0.0114-2.2619 0.062-10.36 0.7018-22.268 9.1246-22.268 23.11-20.613-2.7136-29.633 10.699-34.653 30.231 16.57 11.402 36.329 17.631 56.731 17.631 25.162 3e-5 49.344-9.4732 67.773-26.44-1.5256-6.0831-3.77-11.52-6.5397-15.067-6.2864-8.0495-19.665-13.144-32.556-6.4415-2.4805-15.946-14.837-22.941-26.226-23.085z" stroke-linejoin="round"/>
   <path d="m200.22 89.124c-0.50732 2.6601-1.2068 5.2842-1.3711 8.131-0.27676 4.7943-1.7711 7.6928-4.0407 9.8177-2.4798 2.3216-4.3002 6.8616-4.8884 13.653-0.59461 6.8651-2.0674 11.933-4.6669 15.973 2.0159 2.4022 2.3659 19.795-2.6727 24.789 0.78252 10.499-1.9105 17.839-4.9878 24.829 1.3638 4.9333 2.6703 9.9311 1.246 18.001 6.6146 3.4586 2.6134 11.999-3.3409 10.824 1.8193 5.4515-2.2368 8.9926-6.2105 8.5623-4.7523-0.51461-6.0456-6.748-2.2753-8.8964-7.2505-2.0742-3.7636-11.876 2.205-12.094 1.9355-12.093-1.9576-21.909-11.493-28.865-4.3443-3.1695-7.4142-6.892-8.8199-12.027-0.61276-2.2385-1.4444-4.3548-3.8086-6.0804-3.5019-2.556 0.6244-6.0656 2.0714-3.4077 0.29867 0.54862 1.2499 1.104 1.8961 1.7772 1.0018 1.0436 2.1002 2.731 2.9815 5.5727 1.2117 3.9067 4.3144 6.8694 7.8845 8.4858 3.2097 1.4533 5.6656 3.2773 7.9513 5.9468 2.0301 2.371 2.9904 7.4781 3.4665-2.0571 0.21243-4.2543-1.1444-12.558-8.0101-19.592-3.0933-3.1689-6.2935-6.2653-7.2163-12.027-0.45032-2.8119-1.7826-6.692-3.8754-7.7508-2.691-1.3616-0.52161-4.2235 2.205-3.0736 5.8023 2.447 6.407 7.0427 7.684 11.493 1.0372 3.6144 3.2573 5.9095 6.1472 7.6172 1.997 1.18 4.078 1.9287 4.9445 3.6081 0.79248 1.5359 3.0858 3.1638 3.3968-0.79578 0.57971-7.38 0.90613-12.964-5.869-20.987-2.0809-2.4642-3.3118-5.5761-3.4077-9.3544-0.0529-2.0864-1.1341-3.763-1.3363-5.8799-0.11649-1.2194 0.15932-2.39 0.8018-3.8754 4.2578 4.0158 3.1949 11.382 7.0826 14.299 2.2345 1.6765 4.4244 3.0441 5.5458 5.479 4.1159-8.0548 5.4766-16.36 3.1499-22.471-2.1005-5.516-2.5933-6.4599-1.3458-10.671 2.7468 2.3865 4.6437 5.5014 6.1472 8.9535 0.64093-3.181 4.5269-2.4624 7.1514-10.489 1.1459-3.5044 2.1201-6.8323 5.6775-7.4181z" stroke-linejoin="round"/>
  </g>
  <path d="m5.8333 29.009 3.175e-4 139.77c-2.95e-5 26.49 10.536 51.896 29.289 70.628 18.754 18.732 44.189 29.255 70.71 29.255 26.522 3e-5 51.957-10.523 70.711-29.255 18.754-18.732 29.289-44.137 29.289-70.628l1e-5 -139.77z" fill="none" stroke="#000" stroke-linecap="square" stroke-miterlimit="8" stroke-width="3.0001"/>
 </g>
</svg>
