<?xml version="1.0" encoding="UTF-8" standalone="no"?>
<!-- Created with Inkscape (http://www.inkscape.org/) -->

<svg
   xmlns:dc="http://purl.org/dc/elements/1.1/"
   xmlns:cc="http://creativecommons.org/ns#"
   xmlns:rdf="http://www.w3.org/1999/02/22-rdf-syntax-ns#"
   xmlns:svg="http://www.w3.org/2000/svg"
   xmlns="http://www.w3.org/2000/svg"
   xmlns:sodipodi="http://sodipodi.sourceforge.net/DTD/sodipodi-0.dtd"
   xmlns:inkscape="http://www.inkscape.org/namespaces/inkscape"
   width="197.93208mm"
   height="209.34358mm"
   viewBox="0 0 701.33415 741.76859"
   id="svg13090"
   version="1.1"
   inkscape:version="0.91 r13725"
   sodipodi:docname="DEU Nonnweiler COA.svg">
  <defs
     id="defs13092">
    <inkscape:path-effect
       effect="spiro"
       id="path-effect6963"
       is_visible="true" />
    <inkscape:path-effect
       effect="spiro"
       id="path-effect6802"
       is_visible="true" />
    <inkscape:path-effect
       effect="spiro"
       id="path-effect6696"
       is_visible="true" />
    <inkscape:path-effect
       effect="spiro"
       id="path-effect6573"
       is_visible="true" />
    <inkscape:path-effect
       effect="spiro"
       id="path-effect6493"
       is_visible="true" />
    <inkscape:path-effect
       effect="spiro"
       id="path-effect6423"
       is_visible="true" />
    <inkscape:path-effect
       effect="spiro"
       id="path-effect6397"
       is_visible="true" />
    <inkscape:path-effect
       effect="spiro"
       id="path-effect6341"
       is_visible="true" />
    <inkscape:path-effect
       effect="spiro"
       id="path-effect6341-0"
       is_visible="true" />
    <inkscape:path-effect
       effect="spiro"
       id="path-effect6341-6"
       is_visible="true" />
    <inkscape:path-effect
       effect="spiro"
       id="path-effect6397-4"
       is_visible="true" />
    <inkscape:path-effect
       effect="spiro"
       id="path-effect6423-4"
       is_visible="true" />
    <inkscape:path-effect
       effect="spiro"
       id="path-effect6423-6"
       is_visible="true" />
    <inkscape:path-effect
       effect="spiro"
       id="path-effect6423-6-1"
       is_visible="true" />
    <inkscape:path-effect
       effect="spiro"
       id="path-effect6423-6-2"
       is_visible="true" />
    <inkscape:path-effect
       effect="spiro"
       id="path-effect6573-9"
       is_visible="true" />
    <inkscape:path-effect
       effect="spiro"
       id="path-effect6573-3"
       is_visible="true" />
    <inkscape:path-effect
       effect="spiro"
       id="path-effect6573-2"
       is_visible="true" />
    <inkscape:path-effect
       effect="spiro"
       id="path-effect6696-9"
       is_visible="true" />
    <inkscape:path-effect
       effect="spiro"
       id="path-effect6802-6"
       is_visible="true" />
    <inkscape:path-effect
       effect="spiro"
       id="path-effect6963-9"
       is_visible="true" />
    <inkscape:path-effect
       effect="spiro"
       id="path-effect6963-0"
       is_visible="true" />
    <inkscape:path-effect
       effect="spiro"
       id="path-effect6963-3"
       is_visible="true" />
    <inkscape:path-effect
       effect="spiro"
       id="path-effect6963-33"
       is_visible="true" />
  </defs>
  <sodipodi:namedview
     id="base"
     pagecolor="#ffffff"
     bordercolor="#666666"
     borderopacity="1.0"
     inkscape:pageopacity="0.0"
     inkscape:pageshadow="2"
     inkscape:zoom="0.72798985"
     inkscape:cx="350.66707"
     inkscape:cy="370.88431"
     inkscape:document-units="px"
     inkscape:current-layer="layer1"
     showgrid="false"
     inkscape:window-width="1366"
     inkscape:window-height="745"
     inkscape:window-x="-8"
     inkscape:window-y="-8"
     inkscape:window-maximized="1"
     fit-margin-top="0"
     fit-margin-left="0"
     fit-margin-right="0"
     fit-margin-bottom="0"
     inkscape:snap-midpoints="true"
     inkscape:snap-smooth-nodes="true"
     inkscape:object-nodes="true"
     inkscape:snap-nodes="false"
     inkscape:object-paths="true" />
  <metadata
     id="metadata13095">
    <rdf:RDF>
      <cc:Work
         rdf:about="">
        <dc:format>image/svg+xml</dc:format>
        <dc:type
           rdf:resource="http://purl.org/dc/dcmitype/StillImage" />
        <dc:title></dc:title>
      </cc:Work>
    </rdf:RDF>
  </metadata>
  <g
     inkscape:label="Ebene 1"
     inkscape:groupmode="layer"
     id="layer1"
     transform="translate(-8.8484922,-35.726942)">
    <path
       style="fill:#ffd700;fill-opacity:1;fill-rule:evenodd;stroke:none;stroke-width:11;stroke-opacity:1"
       inkscape:connector-curvature="0"
       d="m 14.528209,41.226944 13.398,416.624406 c 7.415,175.24977 153.919801,314.04607 331.589301,314.14417 177.5097,-0.2149 324.0694,-139.0612 331.5894,-314.14417 l 13.398,-416.624406 -344.9794,0 z"
       id="path10563-0-4" />
    <path
       style="opacity:1;fill:#000000;fill-opacity:1;fill-rule:nonzero;stroke:#000000;stroke-width:11;stroke-linecap:round;stroke-linejoin:round;stroke-miterlimit:4;stroke-dasharray:none;stroke-dashoffset:0;stroke-opacity:1"
       d="M 5.6796875 5.5 L 12.802734 227.01367 L 688.53125 227.01367 L 695.6543 5.5 L 350.67578 5.5 L 5.6796875 5.5 z "
       transform="translate(8.8484922,35.726942)"
       id="rect6252" />
    <path
       style="opacity:1;fill:#ff0000;fill-opacity:1;fill-rule:nonzero;stroke:#000000;stroke-width:11;stroke-linecap:round;stroke-linejoin:round;stroke-miterlimit:4;stroke-dasharray:none;stroke-dashoffset:0;stroke-opacity:1"
       d="M 5.6796875 5.5 L 12.802734 227.01367 L 341.11914 227.01367 C 346.40877 227.01367 350.66797 222.75447 350.66797 217.46484 L 350.66797 5.5 L 5.6796875 5.5 z "
       transform="translate(8.8484922,35.726942)"
       id="rect6270" />
    <path
       style="opacity:1;fill:#ffd700;fill-opacity:1;fill-rule:nonzero;stroke:#000000;stroke-width:3;stroke-linecap:round;stroke-linejoin:round;stroke-miterlimit:4;stroke-dasharray:none;stroke-dashoffset:0;stroke-opacity:1"
       d="m 297.10428,55.757226 c -5.41576,3.136029 -7.93203,9.901518 -6.26274,16.836215 L 146.05629,156.18524 c -2.48881,1.53865 -12.77267,7.25669 -18.63086,11.6546 -3.69699,2.77542 -7.87501,5.32928 -10.34417,9.23738 -2.23383,3.53568 -3.06485,7.88391 -3.52878,12.04036 -0.1975,1.76953 0.0187,3.57887 0.33511,5.33104 0.3487,1.93156 0.92828,3.83402 1.7089,5.63489 1.44897,3.34269 2.81204,6.89941 5.46484,9.46538 -0.63591,-3.27222 -1.22364,-6.5682 -1.42525,-9.8942 -0.13623,-2.24796 -0.22576,-4.53383 0.1485,-6.75459 0.32362,-1.92027 0.9203,-3.81919 1.79294,-5.56013 0.81312,-1.62224 1.90534,-3.11966 3.15115,-4.43905 1.71896,-1.82047 3.80999,-3.2625 5.86571,-4.6919 6.67928,-4.64434 20.92675,-12.5584 20.92675,-12.5584 0,0 -0.99333,0.5735 0,0 L 296.30802,82.057871 c 5.17048,4.911523 12.286,6.114381 17.70934,2.993677 7.00424,-4.043506 8.89652,-13.879185 4.22646,-21.968567 -4.67019,-8.090198 -14.13504,-11.370199 -21.13954,-7.325755 z m 4.20898,7.290175 c 3.47439,-2.005787 8.19274,-0.337563 10.53851,3.72603 2.34513,4.063085 1.43034,8.982229 -2.04339,10.987941 -3.47384,2.00554 -8.19143,0.338229 -10.53762,-3.724291 -2.34631,-4.063328 -1.43187,-8.983669 2.0425,-10.98968 z"
       id="rect6673"
       inkscape:connector-curvature="0"
       sodipodi:nodetypes="cccaaaaacaaaaacsccccccccc" />
    <path
       style="fill:#ffd700;fill-rule:evenodd;stroke:#000000;stroke-width:3;stroke-linecap:butt;stroke-linejoin:round;stroke-miterlimit:4;stroke-dasharray:none;stroke-opacity:1;fill-opacity:1"
       d="m 54.384091,213.27545 36.140049,35.3698 0,0 c 4.1568,2.82979 14.19474,0.78321 23.44894,-4.55324 9.25789,-5.3462 16.04181,-13.01309 15.66931,-18.03169 l 0,0 -12.56113,-48.9831 -22.890626,32.74659 z"
       id="path6744"
       inkscape:connector-curvature="0"
       sodipodi:nodetypes="ccccccccc" />
    <path
       sodipodi:nodetypes="ccaacaaccc"
       inkscape:connector-curvature="0"
       id="path6727-4"
       d="m 77.275748,180.53001 c -17.312251,9.99531 -27.560969,24.65541 -22.89164,32.74492 3.345538,5.77064 17.524952,1.79731 26.293104,2.63859 4.037531,0.38741 8.18617,0.11126 12.117538,1.10939 2.596185,0.65913 5.066501,1.81384 7.38237,3.17344 -0.0195,-2.6854 0.21775,-5.40263 0.94464,-7.98104 1.10095,-3.90528 3.41061,-7.36363 5.0939,-11.05549 3.65368,-8.01325 14.18299,-18.29954 10.86537,-24.08303 -4.67125,-8.08886 -22.492838,-6.54274 -39.805567,3.45333 z"
       style="opacity:1;fill:#ffd700;fill-opacity:1;fill-rule:nonzero;stroke:#000000;stroke-width:3;stroke-linecap:round;stroke-linejoin:round;stroke-miterlimit:4;stroke-dasharray:none;stroke-dashoffset:0;stroke-opacity:1" />
    <path
       sodipodi:nodetypes="scaacaacs"
       inkscape:connector-curvature="0"
       id="path6727-8-8"
       d="m 80.679068,186.42474 c -12.545764,7.2433 -20.454444,17.03346 -17.66519,21.86779 2.134255,3.66864 13.136304,-0.78345 19.691261,-0.41714 2.233543,0.12481 4.492899,0.30333 6.651987,0.88879 1.941547,0.52645 3.822406,1.3276 5.566082,2.33213 0.0018,-2.01228 0.248509,-4.04177 0.763352,-5.98643 0.571686,-2.15941 1.545354,-4.20237 2.552462,-6.19621 2.961488,-5.86296 12.326678,-13.17096 10.210788,-16.85359 -2.79064,-4.83354 -15.224902,-2.87871 -27.770742,4.36466 z"
       style="opacity:1;fill:none;fill-opacity:1;fill-rule:nonzero;stroke:#000000;stroke-width:3.00000024;stroke-linecap:round;stroke-linejoin:round;stroke-miterlimit:4;stroke-dasharray:none;stroke-dashoffset:0;stroke-opacity:1" />
    <path
       style="fill:none;fill-rule:evenodd;stroke:#000000;stroke-width:3;stroke-linecap:round;stroke-linejoin:round;stroke-miterlimit:4;stroke-dasharray:none;stroke-opacity:1"
       d="m 76.53518,228.70897 c 2.412987,0.24255 4.84588,0.28679 7.26609,0.13211 3.127023,-0.19985 6.232687,-0.73225 9.24773,-1.58532"
       id="path6961"
       inkscape:path-effect="#path-effect6963"
       inkscape:original-d="m 76.53518,228.70897 c 0,0 4.85061,0.31555 7.26609,0.13211 3.11856,-0.23684 9.24773,-1.58532 9.24773,-1.58532"
       inkscape:connector-curvature="0"
       sodipodi:nodetypes="cac" />
    <path
       style="fill:none;fill-rule:evenodd;stroke:#000000;stroke-width:3;stroke-linecap:round;stroke-linejoin:round;stroke-miterlimit:4;stroke-dasharray:none;stroke-opacity:1"
       d="m 83.19033,233.65675 c 2.412987,0.24255 4.84588,0.28679 7.26609,0.13211 3.12702,-0.19985 6.23268,-0.73225 9.24772,-1.58532"
       id="path6961-2"
       inkscape:path-effect="#path-effect6963-9"
       inkscape:original-d="m 83.19033,233.65675 c 0,0 4.85061,0.31555 7.26609,0.13211 3.11855,-0.23684 9.24772,-1.58532 9.24772,-1.58532"
       inkscape:connector-curvature="0"
       sodipodi:nodetypes="cac" />
    <path
       style="fill:none;fill-rule:evenodd;stroke:#000000;stroke-width:3;stroke-linecap:round;stroke-linejoin:round;stroke-miterlimit:4;stroke-dasharray:none;stroke-opacity:1"
       d="m 89.1353,239.60172 c 2.412987,0.24255 4.84588,0.28679 7.26609,0.13211 3.12702,-0.19985 6.23268,-0.73225 9.24772,-1.58532"
       id="path6961-8"
       inkscape:path-effect="#path-effect6963-0"
       inkscape:original-d="m 89.1353,239.60172 c 0,0 4.85061,0.31555 7.26609,0.13211 3.11855,-0.23684 9.24772,-1.58532 9.24772,-1.58532"
       inkscape:connector-curvature="0"
       sodipodi:nodetypes="cac" />
    <path
       style="fill:none;fill-rule:evenodd;stroke:#000000;stroke-width:3;stroke-linecap:round;stroke-linejoin:round;stroke-miterlimit:4;stroke-dasharray:none;stroke-opacity:1"
       d="m 71.5646,222.69158 c 2.412987,0.24255 4.84588,0.28679 7.26609,0.13211 3.12702,-0.19985 6.23268,-0.73225 9.24772,-1.58532"
       id="path6961-4"
       inkscape:path-effect="#path-effect6963-3"
       inkscape:original-d="m 71.5646,222.69158 c 0,0 4.85061,0.31555 7.26609,0.13211 3.11855,-0.23684 9.24772,-1.58532 9.24772,-1.58532"
       inkscape:connector-curvature="0"
       sodipodi:nodetypes="cac" />
    <path
       style="opacity:1;fill:#000000;fill-opacity:1;fill-rule:nonzero;stroke:#000000;stroke-width:7.99999952;stroke-linecap:round;stroke-linejoin:round;stroke-miterlimit:4;stroke-dasharray:none;stroke-dashoffset:0;stroke-opacity:1"
       d="M 350.66797 636.52539 A 99.730591 99.730591 0 0 0 272.37891 674.65039 A 99.730591 99.730591 0 0 0 201.48828 644.95117 A 99.730591 99.730591 0 0 0 143.0625 663.97656 C 200.03599 709.19729 272.31738 736.22627 350.66797 736.26953 C 428.92894 736.17479 501.16296 709.12163 558.12891 663.9082 A 99.730591 99.730591 0 0 0 499.8457 644.95117 A 99.730591 99.730591 0 0 0 428.99805 674.55273 A 99.730591 99.730591 0 0 0 350.66797 636.52539 z "
       transform="translate(8.8484922,35.726942)"
       id="path6298" />
    <path
       style="fill:#ffffff;fill-rule:evenodd;stroke:none;stroke-width:1px;stroke-linecap:butt;stroke-linejoin:miter;stroke-opacity:1"
       d="M 192.81445 650.41797 C 182.90139 652.93478 173.37249 656.96055 164.6582 662.31445 C 161.26484 664.39927 157.96446 666.71088 155.27734 669.65039 C 154.62962 670.35895 154.02106 671.10943 153.45898 671.89258 C 158.46577 675.55651 163.57179 679.09379 168.78711 682.48047 C 169.28416 681.85357 169.76445 681.21382 170.21094 680.55664 C 173.10561 676.29599 175.12157 671.50639 177.74609 667.07422 C 181.58662 660.58851 186.74418 654.88629 192.81445 650.41797 z M 340.92969 650.41797 C 331.01663 652.93478 321.48774 656.96055 312.77344 662.31445 C 309.38008 664.39926 306.0797 666.71088 303.39258 669.65039 C 300.70546 672.5899 298.64983 676.21545 298.10156 680.16016 C 297.88969 681.68451 297.90786 683.26001 298.33594 684.73828 C 298.76402 686.21655 299.62394 687.5947 300.87695 688.48828 C 302.00065 689.28964 303.39343 689.67042 304.77344 689.69141 C 306.15345 689.71241 307.52346 689.38807 308.80859 688.88477 C 312.79425 687.32384 315.92071 684.09722 318.32617 680.55664 C 321.22084 676.29599 323.23681 671.50639 325.86133 667.07422 C 329.70186 660.58851 334.85942 654.88629 340.92969 650.41797 z M 489.04492 650.41797 C 479.13186 652.93478 469.60296 656.96055 460.88867 662.31445 C 457.49531 664.39927 454.19493 666.71088 451.50781 669.65039 C 448.8207 672.5899 446.76507 676.21545 446.2168 680.16016 C 446.00493 681.68451 446.02309 683.26001 446.45117 684.73828 C 446.87925 686.21655 447.73917 687.5947 448.99219 688.48828 C 450.11589 689.28964 451.50866 689.67042 452.88867 689.69141 C 454.26868 689.71241 455.6387 689.38807 456.92383 688.88477 C 460.90949 687.32384 464.03595 684.09722 466.44141 680.55664 C 469.33608 676.29599 471.35204 671.50639 473.97656 667.07422 C 477.81709 660.58851 482.97465 654.88629 489.04492 650.41797 z "
       transform="translate(8.8484922,35.726942)"
       id="path6339" />
    <path
       style="fill:none;fill-rule:evenodd;stroke:#000000;stroke-width:11;stroke-opacity:1"
       inkscape:connector-curvature="0"
       d="m 14.528207,41.226942 13.398,416.624408 c 7.415,175.24977 153.919803,314.04607 331.589303,314.14417 177.5097,-0.2149 324.0694,-139.0612 331.5894,-314.14417 l 13.398,-416.624408 -344.9794,0 z"
       id="path10563-0" />
    <path
       style="fill:#ffd700;fill-opacity:1;fill-rule:evenodd;stroke:none;stroke-width:1px;stroke-linecap:butt;stroke-linejoin:miter;stroke-opacity:1"
       d="m 406.53276,56.529676 c -0.33573,-0.0065 -0.67264,0.06424 -0.97656,0.207032 -0.30392,0.142795 -0.57469,0.357738 -0.77539,0.626953 -0.23399,0.313861 -0.37083,0.692223 -0.44727,1.076172 -0.0764,0.383948 -0.095,0.776914 -0.11328,1.167968 -0.93111,19.893725 -1.03322,39.815639 -1.40234,59.726559 -0.50941,27.47829 -3.20334,55.03739 -1.12109,82.44141 0.12922,1.70063 0.45361,3.38514 0.84179,5.04687 0.93787,4.0148 2.7358,7.80255 5.04688,11.2168 4.07573,6.02123 9.72493,10.88255 15.98437,14.58203 2.66918,1.57755 5.46618,2.959 8.41211,3.92578 0.46515,0.15265 0.93396,0.29532 1.375,0.50781 0.44104,0.21252 0.85742,0.50087 1.14844,0.89454 0.28884,0.39072 0.4422,0.86676 0.51172,1.34765 0.0695,0.4809 0.0593,0.9693 0.0488,1.45508 -0.0769,3.55228 -0.17116,7.10485 -0.28125,10.65625 0.51108,0.36786 1.07294,0.69764 1.68359,0.8418 1.63729,0.38651 3.40967,0.38689 5.04688,0 0.61005,-0.14416 1.17055,-0.47394 1.68164,-0.8418 -0.11009,-3.5514 -0.2025,-7.10398 -0.2793,-10.65625 -0.0105,-0.48578 -0.0207,-0.97418 0.0488,-1.45508 0.0695,-0.48089 0.22287,-0.95693 0.51172,-1.34765 0.29102,-0.39367 0.70544,-0.68202 1.14648,-0.89454 0.44104,-0.21249 0.9118,-0.35516 1.37695,-0.50781 2.94593,-0.96678 5.74293,-2.34823 8.41211,-3.92578 6.25944,-3.69948 11.90865,-8.5608 15.98438,-14.58203 2.31108,-3.41425 4.109,-7.20201 5.04687,-11.2168 0.38818,-1.66173 0.7126,-3.34624 0.8418,-5.04687 2.08195,-27.40405 -0.61376,-54.96311 -1.12305,-82.44141 -0.36903,-19.9109 -0.46927,-39.832831 -1.40039,-59.726559 -0.0183,-0.391054 -0.0388,-0.78402 -0.11523,-1.167968 -0.0764,-0.383947 -0.21328,-0.762311 -0.44727,-1.076172 -0.2007,-0.269215 -0.46952,-0.484157 -0.77344,-0.626953 -0.30392,-0.142799 -0.64083,-0.213532 -0.97656,-0.207032 -0.67146,0.01291 -1.32451,0.334496 -1.77344,0.833985 -0.41278,0.459258 -0.65794,1.066557 -0.68164,1.683593 -0.50795,17.940921 -0.60229,35.892655 -0.28125,53.837896 0.43813,24.49037 1.64872,48.98773 0.8418,73.46874 -0.13255,4.0215 -0.31925,8.0402 -0.56055,12.05664 -1.42597,2.24521 -3.23634,4.24587 -5.32812,5.88868 -5.6121,4.40756 -13.00803,6.10931 -18.50781,10.65625 -1.66011,1.37249 -3.11535,2.9886 -4.31446,4.77734 l 0,-8.82617 c 1.31005,-1.00568 2.68553,-1.92584 4.12696,-2.73242 4.57337,-2.55915 9.71324,-4.06155 14.08789,-6.94727 2.2973,-1.5154 4.37604,-3.42741 5.78906,-5.78906 2.15185,-3.5965 2.61203,-8.05767 1.73633,-12.15625 -0.2172,-1.01658 -0.51677,-2.027 -1.03907,-2.92578 -0.52231,-0.89878 -1.28564,-1.68482 -2.24218,-2.0918 -0.8947,-0.38067 -1.91033,-0.4097 -2.86524,-0.22656 -0.95491,0.18315 -1.8586,0.56766 -2.73047,0.99804 -3.20538,1.58226 -6.06159,3.77976 -8.87695,5.98243 -2.67816,2.09533 -5.33801,4.21291 -7.98633,6.3457 l 0,-9 c 1.4207,-1.12104 2.92844,-2.13185 4.50782,-3.01563 4.57337,-2.55915 9.71128,-4.06154 14.08593,-6.94726 2.2973,-1.5154 4.37605,-3.42741 5.78907,-5.78906 2.15185,-3.5965 2.61398,-8.05767 1.73828,-12.15625 -0.2172,-1.01658 -0.51677,-2.02896 -1.03907,-2.92774 -0.52231,-0.89878 -1.28564,-1.68286 -2.24218,-2.08984 -0.44735,-0.19034 -0.92503,-0.29391 -1.41016,-0.32617 -0.48512,-0.0323 -0.97762,0.006 -1.45508,0.0977 -0.95491,0.18315 -1.85859,0.56962 -2.73047,1 -3.20537,1.58226 -6.06159,3.77975 -8.87695,5.98242 -2.80641,2.19568 -5.59354,4.41553 -8.36719,6.65235 l 0,-7.45703 c 1.40028,-1.84997 3.04888,-3.51185 4.90039,-4.91016 3.1631,-2.38884 6.8514,-4.00332 10.03321,-6.36719 1.61181,-1.19747 3.09166,-2.5899 4.27929,-4.20898 1.18762,-1.61908 2.07847,-3.47097 2.47461,-5.43945 0.25687,-1.2765 0.29688,-2.58001 0.26758,-3.88477 0.005,-0.087 0.0156,-0.17076 0.0156,-0.25976 l 0,-68.511723 c 0,-1.654914 -0.82669,-2.986328 -1.85352,-2.986328 l -2.27539,0 c -1.02682,0 -1.85352,1.331414 -1.85352,2.986328 l 0,54.902343 c 0,1.0652 0.0965,2.06075 -0.25585,3 -0.34923,0.93075 -1.07644,1.68599 -1.76368,2.4043 -2.90989,3.04148 -7.21,4.62703 -9.84179,7.91211 -1.5279,1.90717 -3.0069,3.9707 -4.12696,6.18554 l 0,-9.0957 c 0.68312,-0.9117 1.44286,-1.74436 2.26758,-2.47656 1.93016,-1.71358 4.18149,-2.8727 6.12305,-4.56836 0.98354,-0.85899 1.88663,-1.85617 2.61133,-3.01758 0.7247,-1.16142 1.26803,-2.49028 1.50976,-3.90234 0.15674,-0.91566 0.17998,-1.85116 0.16211,-2.78711 0.003,-0.0624 0.01,-0.12171 0.01,-0.18555 l 0,-49.146484 c 0,-1.187121 -0.43928,-1.725595 -1.13086,-2.142578 -1.53825,-0.92747 -3.85042,-0.92747 -5.38867,0 -0.69159,0.416983 -1.13086,0.955457 -1.13086,2.142578 0,0 0.40287,22.262405 0,33.382813 -0.026,0.718744 0.0667,1.468551 -0.15625,2.152344 -0.21004,0.64426 -0.64706,1.200162 -1.07618,1.724607 -1.74423,2.13171 -0.43928,3.4103 -2.00585,5.67578 -1.79213,2.59168 -3.37151,5.42653 -3.64844,8.72071 -0.27694,-3.29419 -1.85826,-6.12903 -3.65039,-8.72071 -1.56657,-2.26548 -0.26163,-3.54407 -2.00586,-5.67578 -0.42912,-0.524445 -0.86613,-1.080347 -1.07617,-1.724607 -0.22293,-0.683793 -0.13021,-1.4336 -0.15625,-2.152344 -0.40287,-11.120408 0,-33.382813 0,-33.382813 0,-1.187121 -0.43928,-1.725595 -1.13086,-2.142578 -1.5377,-0.927134 -3.84902,-0.927123 -5.38672,0 -0.6916,0.416981 -1.11701,1.272317 -1.13086,2.142578 l 0,49.146484 c 0,0.0639 0.006,0.12315 0.008,0.18555 -0.0179,0.93595 0.008,1.87145 0.16406,2.78711 0.24172,1.41206 0.78508,2.74092 1.50977,3.90234 0.7247,1.16141 1.62778,2.15859 2.61133,3.01758 1.94156,1.69567 4.19289,2.85478 6.12304,4.56836 0.82539,0.73279 1.58404,1.56595 2.26758,2.47851 l 0,9.09375 c -1.12005,-2.21484 -2.59905,-4.27838 -4.12695,-6.18554 -2.63179,-3.28508 -6.93191,-4.87063 -9.8418,-7.91211 -0.68724,-0.71832 -1.41445,-1.47354 -1.76367,-2.4043 -0.35241,-0.93924 -0.25586,-1.9348 -0.25586,-3 l 0,-54.902343 c 0,-1.654914 -0.82668,-2.986328 -1.85352,-2.986328 l -2.27539,0 c -1.02683,0 -1.85351,1.331414 -1.85351,2.986328 l 0,68.511723 c 0,0.089 0.0109,0.17276 0.0156,0.25976 -0.0293,1.30476 0.0107,2.60827 0.26758,3.88477 0.39614,1.96849 1.28699,3.82037 2.47461,5.43945 1.18763,1.61908 2.66749,3.01151 4.2793,4.20898 3.18181,2.36388 6.8701,3.97834 10.0332,6.36719 1.85152,1.39831 3.50011,3.06019 4.90039,4.91016 l 0,7.45703 c -2.77409,-2.23689 -5.56263,-4.4566 -8.36914,-6.65235 -2.81536,-2.20267 -5.66962,-4.40016 -8.875,-5.98242 -0.87187,-0.43038 -1.77556,-0.81685 -2.73047,-1 -0.47745,-0.0916 -0.9719,-0.12982 -1.45703,-0.0977 -0.48512,0.0323 -0.9628,0.13583 -1.41016,0.32617 -0.95654,0.40698 -1.71792,1.19106 -2.24023,2.08984 -0.5223,0.89878 -0.82186,1.91116 -1.03906,2.92774 -0.8757,4.09858 -0.41552,8.55975 1.73633,12.15625 1.41302,2.36165 3.49176,4.27366 5.78906,5.78906 4.37465,2.88572 9.51257,4.38811 14.08594,6.94726 1.57982,0.88403 3.08871,1.8942 4.50976,3.01563 l 0,9.00195 c -2.6489,-2.13327 -5.30952,-4.25186 -7.98828,-6.34765 -2.81536,-2.20267 -5.67157,-4.40017 -8.87695,-5.98243 -0.87187,-0.43038 -1.77556,-0.81489 -2.73047,-0.99804 -0.47746,-0.0916 -0.96995,-0.12984 -1.45508,-0.0977 -0.48513,0.0323 -0.96281,0.13388 -1.41016,0.32422 -0.95654,0.40698 -1.71987,1.19302 -2.24218,2.0918 -0.5223,0.89878 -0.82187,1.9092 -1.03907,2.92578 -0.8757,4.09858 -0.41356,8.55975 1.73829,12.15625 1.41302,2.36165 3.4898,4.27366 5.7871,5.78906 4.37465,2.88572 9.51453,4.38812 14.0879,6.94727 1.44142,0.80658 2.81827,1.72674 4.1289,2.73242 l 0,8.82617 c -1.19968,-1.78874 -2.6563,-3.40485 -4.3164,-4.77734 -5.49978,-4.54694 -12.89377,-6.24869 -18.50586,-10.65625 -2.09178,-1.64282 -3.90216,-3.64346 -5.32813,-5.88868 -0.2413,-4.01644 -0.42799,-8.03514 -0.56055,-12.05664 -0.80692,-24.481 0.40172,-48.97836 0.83985,-73.46874 0.32104,-17.945238 0.22865,-35.896978 -0.2793,-53.837896 -0.0237,-0.617037 -0.27082,-1.224335 -0.68359,-1.683593 -0.44894,-0.499489 -1.10002,-0.821079 -1.77149,-0.833985 z m 91.46875,0 c -0.33573,-0.006 -0.67264,0.0642 -0.97656,0.207032 -0.30392,0.1428 -0.57469,0.357743 -0.77539,0.626953 -0.23399,0.31387 -0.37083,0.692222 -0.44727,1.076172 -0.0764,0.38394 -0.095,0.776918 -0.11328,1.167968 -0.93111,19.89373 -1.03322,39.815639 -1.40234,59.726559 -0.50941,27.47829 -3.20334,55.03739 -1.12109,82.44141 0.12922,1.70063 0.45361,3.38514 0.84179,5.04687 0.93787,4.0148 2.7358,7.80255 5.04688,11.2168 4.07573,6.02123 9.72493,10.88255 15.98437,14.58203 2.66918,1.57755 5.46618,2.959 8.41211,3.92578 0.46515,0.15265 0.93396,0.29532 1.375,0.50781 0.44104,0.21252 0.85742,0.50087 1.14844,0.89454 0.28884,0.39072 0.4422,0.86676 0.51172,1.34765 0.0695,0.4809 0.0593,0.9693 0.0488,1.45508 -0.0769,3.55228 -0.17116,7.10485 -0.28125,10.65625 0.51108,0.36786 1.07294,0.69764 1.68359,0.8418 1.63729,0.38651 3.40967,0.38689 5.04687,0 0.61006,-0.14416 1.17056,-0.47394 1.68165,-0.8418 -0.11009,-3.5514 -0.2025,-7.10398 -0.2793,-10.65625 -0.0105,-0.48578 -0.0207,-0.97418 0.0488,-1.45508 0.0695,-0.48089 0.22287,-0.95693 0.51172,-1.34765 0.29102,-0.39367 0.70544,-0.68202 1.14648,-0.89454 0.44104,-0.21249 0.9118,-0.35516 1.37695,-0.50781 2.94593,-0.96678 5.74293,-2.34823 8.41211,-3.92578 6.25944,-3.69948 11.90865,-8.5608 15.98438,-14.58203 2.31108,-3.41425 4.109,-7.20201 5.04687,-11.2168 0.38818,-1.66173 0.7126,-3.34624 0.8418,-5.04687 2.08195,-27.40405 -0.61376,-54.96311 -1.12305,-82.44141 -0.36903,-19.91091 -0.46927,-39.832829 -1.40039,-59.726559 -0.0183,-0.39105 -0.0388,-0.784028 -0.11523,-1.167968 -0.0764,-0.38395 -0.21328,-0.762302 -0.44727,-1.076172 -0.2007,-0.26921 -0.46952,-0.484153 -0.77344,-0.626953 -0.30392,-0.1428 -0.64083,-0.213532 -0.97656,-0.207032 -0.67146,0.0129 -1.32451,0.334505 -1.77344,0.833985 -0.41278,0.45926 -0.65794,1.066554 -0.68164,1.683593 -0.50795,17.94092 -0.60229,35.892649 -0.28125,53.837896 0.43813,24.49037 1.64872,48.98773 0.8418,73.46874 -0.13255,4.0215 -0.31925,8.0402 -0.56055,12.05664 -1.42597,2.24521 -3.23634,4.24587 -5.32812,5.88868 -5.6121,4.40756 -13.00803,6.10931 -18.50781,10.65625 -1.66011,1.37249 -3.11535,2.9886 -4.31446,4.77734 l 0,-8.82617 c 1.31005,-1.00568 2.68553,-1.92584 4.12696,-2.73242 4.57337,-2.55915 9.71324,-4.06155 14.08789,-6.94727 2.2973,-1.5154 4.37604,-3.42741 5.78906,-5.78906 2.15185,-3.5965 2.61203,-8.05767 1.73633,-12.15625 -0.2172,-1.01658 -0.51676,-2.027 -1.03906,-2.92578 -0.52232,-0.89878 -1.28565,-1.68482 -2.24219,-2.0918 -0.8947,-0.38067 -1.91033,-0.4097 -2.86524,-0.22656 -0.95491,0.18315 -1.8586,0.56766 -2.73047,0.99804 -3.20538,1.58226 -6.06159,3.77976 -8.87695,5.98243 -2.67816,2.09533 -5.33801,4.21291 -7.98633,6.3457 l 0,-9 c 1.4207,-1.12104 2.92844,-2.13185 4.50782,-3.01563 4.57337,-2.55915 9.71128,-4.06154 14.08593,-6.94726 2.2973,-1.5154 4.37605,-3.42741 5.78907,-5.78906 2.15185,-3.5965 2.61398,-8.05768 1.73828,-12.15625 -0.2172,-1.01658 -0.51677,-2.02896 -1.03907,-2.92774 -0.52231,-0.89878 -1.28564,-1.68286 -2.24218,-2.08984 -0.44735,-0.19034 -0.92503,-0.29391 -1.41016,-0.32617 -0.48512,-0.0323 -0.97762,0.006 -1.45508,0.0977 -0.95491,0.18315 -1.85859,0.56962 -2.73047,1 -3.20537,1.58226 -6.06159,3.77976 -8.87695,5.98242 -2.80641,2.19568 -5.59354,4.41553 -8.36719,6.65235 l 0,-7.45703 c 1.40028,-1.84997 3.04888,-3.51185 4.90039,-4.91016 3.1631,-2.38884 6.8514,-4.00332 10.03321,-6.36719 1.61181,-1.19747 3.09166,-2.5899 4.27929,-4.20898 1.18762,-1.61908 2.07847,-3.47096 2.47461,-5.43945 0.25687,-1.2765 0.29688,-2.58001 0.26758,-3.88477 0.005,-0.087 0.0156,-0.17076 0.0156,-0.25976 l 0,-68.511723 c 0,-1.65491 -0.82669,-2.986328 -1.85352,-2.986328 l -2.27539,0 c -1.02682,0 -1.85352,1.331418 -1.85352,2.986328 l 0,54.902343 c 0,1.0652 0.0965,2.06075 -0.25586,3 -0.34923,0.93076 -1.07643,1.68599 -1.76367,2.4043 -2.90989,3.04148 -7.21,4.62703 -9.84179,7.91211 -1.5279,1.90717 -3.0069,3.9707 -4.12696,6.18554 l 0,-9.0957 c 0.68312,-0.9117 1.44286,-1.74436 2.26758,-2.47656 1.93016,-1.71358 4.18149,-2.8727 6.12305,-4.56836 0.98354,-0.85899 1.88663,-1.85617 2.61133,-3.01758 0.7247,-1.16142 1.26803,-2.49028 1.50976,-3.90234 0.15674,-0.91566 0.17998,-1.85116 0.16211,-2.78711 0.003,-0.0624 0.01,-0.12171 0.01,-0.18555 l 0,-49.146484 c 0,-1.18712 -0.43927,-1.725598 -1.13086,-2.142578 -1.53825,-0.92747 -3.85042,-0.92747 -5.38867,0 -0.69159,0.41698 -1.13086,0.955458 -1.13086,2.142578 0,0 0.40287,22.262403 0,33.382813 -0.026,0.71875 0.0667,1.468544 -0.15625,2.152344 -0.21004,0.64426 -0.64706,1.200157 -1.07618,1.724607 -1.74423,2.13171 -0.43928,3.4103 -2.00586,5.67578 -1.79212,2.59168 -3.3715,5.42653 -3.64843,8.72071 -0.27694,-3.29419 -1.85826,-6.12903 -3.65039,-8.72071 -1.56657,-2.26548 -0.26163,-3.54407 -2.00586,-5.67578 -0.42912,-0.52445 -0.86613,-1.080347 -1.07617,-1.724607 -0.22293,-0.6838 -0.13021,-1.433594 -0.15625,-2.152344 -0.40287,-11.12041 0,-33.382813 0,-33.382813 0,-1.18712 -0.43927,-1.725598 -1.13086,-2.142578 -1.53769,-0.92713 -3.84902,-0.92712 -5.38672,0 -0.69159,0.41698 -1.11701,1.272318 -1.13086,2.142578 l 0,49.146484 c 0,0.0639 0.006,0.12315 0.008,0.18555 -0.0179,0.93595 0.008,1.87145 0.16406,2.78711 0.24172,1.41206 0.78508,2.74092 1.50977,3.90234 0.7247,1.16141 1.62778,2.15859 2.61133,3.01758 1.94156,1.69567 4.19289,2.85478 6.12304,4.56836 0.82539,0.73279 1.58404,1.56594 2.26758,2.47851 l 0,9.09375 c -1.12005,-2.21484 -2.59905,-4.27837 -4.12695,-6.18554 -2.63179,-3.28508 -6.93191,-4.87063 -9.8418,-7.91211 -0.68724,-0.71832 -1.41445,-1.47353 -1.76367,-2.4043 -0.35241,-0.93924 -0.25586,-1.9348 -0.25586,-3 l 0,-54.902343 c 0,-1.65491 -0.82669,-2.986328 -1.85351,-2.986328 l -2.2754,0 c -1.02683,0 -1.85351,1.331418 -1.85351,2.986328 l 0,68.511723 c 0,0.089 0.0109,0.17276 0.0156,0.25976 -0.0293,1.30476 0.0107,2.60827 0.26758,3.88477 0.39614,1.96849 1.28699,3.82037 2.47461,5.43945 1.18763,1.61908 2.66749,3.01151 4.2793,4.20898 3.18181,2.36388 6.8701,3.97834 10.0332,6.36719 1.85152,1.39831 3.50011,3.06019 4.90039,4.91016 l 0,7.45703 c -2.77409,-2.23689 -5.56263,-4.4566 -8.36914,-6.65235 -2.81536,-2.20266 -5.66962,-4.40016 -8.875,-5.98242 -0.87187,-0.43038 -1.77556,-0.81685 -2.73047,-1 -0.47745,-0.0916 -0.9719,-0.12982 -1.45703,-0.0977 -0.48512,0.0323 -0.9628,0.13583 -1.41015,0.32617 -0.95654,0.40698 -1.71793,1.19106 -2.24024,2.08984 -0.5223,0.89878 -0.82186,1.91116 -1.03906,2.92774 -0.8757,4.09857 -0.41552,8.55975 1.73633,12.15625 1.41302,2.36165 3.49176,4.27366 5.78906,5.78906 4.37465,2.88572 9.51257,4.38811 14.08594,6.94726 1.57982,0.88403 3.08871,1.8942 4.50976,3.01563 l 0,9.00195 c -2.6489,-2.13327 -5.30952,-4.25186 -7.98828,-6.34765 -2.81536,-2.20267 -5.67157,-4.40017 -8.87695,-5.98243 -0.87187,-0.43038 -1.77556,-0.81489 -2.73047,-0.99804 -0.47746,-0.0916 -0.96995,-0.12984 -1.45508,-0.0977 -0.48513,0.0323 -0.96281,0.13388 -1.41016,0.32422 -0.95654,0.40698 -1.71987,1.19302 -2.24218,2.0918 -0.5223,0.89878 -0.82187,1.9092 -1.03907,2.92578 -0.8757,4.09858 -0.41356,8.55975 1.73829,12.15625 1.41302,2.36165 3.4898,4.27366 5.78711,5.78906 4.37465,2.88572 9.51452,4.38812 14.08789,6.94727 1.44142,0.80658 2.81827,1.72674 4.1289,2.73242 l 0,8.82617 c -1.19968,-1.78874 -2.6563,-3.40485 -4.3164,-4.77734 -5.49978,-4.54694 -12.89377,-6.24869 -18.50586,-10.65625 -2.09178,-1.64282 -3.90216,-3.64346 -5.32813,-5.88868 -0.2413,-4.01644 -0.42799,-8.03514 -0.56055,-12.05664 -0.80692,-24.481 0.40172,-48.97836 0.83985,-73.46874 0.32104,-17.945237 0.22865,-35.896986 -0.2793,-53.837896 -0.0237,-0.61704 -0.27082,-1.224333 -0.68359,-1.683593 -0.44894,-0.49948 -1.10002,-0.821075 -1.77149,-0.833985 z m 91.46875,0 c -0.33573,-0.006 -0.67264,0.0642 -0.97656,0.207032 -0.30392,0.1428 -0.57469,0.357743 -0.77539,0.626953 -0.23399,0.31387 -0.37083,0.692222 -0.44727,1.076172 -0.0764,0.38394 -0.095,0.776918 -0.11328,1.167968 -0.93111,19.89373 -1.03322,39.815639 -1.40234,59.726559 -0.50941,27.47829 -3.20335,55.03739 -1.12109,82.44141 0.12922,1.70063 0.45361,3.38514 0.84179,5.04687 0.93787,4.0148 2.7358,7.80255 5.04688,11.2168 4.07572,6.02123 9.72493,10.88255 15.98437,14.58203 2.66918,1.57755 5.46618,2.959 8.41211,3.92578 0.46515,0.15265 0.93396,0.29532 1.375,0.50781 0.44104,0.21252 0.85742,0.50087 1.14844,0.89454 0.28884,0.39072 0.4422,0.86676 0.51172,1.34765 0.0695,0.4809 0.0593,0.9693 0.0488,1.45508 -0.0769,3.55228 -0.17116,7.10485 -0.28125,10.65625 0.51108,0.36786 1.07294,0.69764 1.68359,0.8418 1.63729,0.38651 3.40967,0.38689 5.04688,0 0.61005,-0.14416 1.17055,-0.47394 1.68164,-0.8418 -0.11009,-3.5514 -0.2025,-7.10398 -0.2793,-10.65625 -0.0105,-0.48578 -0.0207,-0.97418 0.0488,-1.45508 0.0695,-0.48089 0.22287,-0.95693 0.51172,-1.34765 0.29102,-0.39367 0.70544,-0.68202 1.14648,-0.89454 0.44104,-0.21249 0.9118,-0.35516 1.37695,-0.50781 2.94593,-0.96678 5.74293,-2.34823 8.41211,-3.92578 6.25945,-3.69948 11.90865,-8.5608 15.98438,-14.58203 2.31108,-3.41425 4.109,-7.20201 5.04687,-11.2168 0.38818,-1.66173 0.7126,-3.34624 0.8418,-5.04687 2.08195,-27.40405 -0.61376,-54.96311 -1.12305,-82.44141 -0.36903,-19.91091 -0.46927,-39.832829 -1.40039,-59.726559 -0.0183,-0.39105 -0.0388,-0.784028 -0.11523,-1.167968 -0.0764,-0.38395 -0.21328,-0.762302 -0.44727,-1.076172 -0.2007,-0.26921 -0.46952,-0.484153 -0.77344,-0.626953 -0.30392,-0.1428 -0.64083,-0.213532 -0.97656,-0.207032 -0.67146,0.0129 -1.32451,0.334505 -1.77344,0.833985 -0.41278,0.45926 -0.65794,1.066554 -0.68164,1.683593 -0.50795,17.94092 -0.60229,35.892652 -0.28125,53.837896 0.43813,24.49037 1.64872,48.98773 0.8418,73.46874 -0.13255,4.0215 -0.31925,8.0402 -0.56055,12.05664 -1.42597,2.24521 -3.23634,4.24587 -5.32812,5.88868 -5.6121,4.40756 -13.00803,6.10931 -18.50781,10.65625 -1.66011,1.37249 -3.11535,2.9886 -4.31446,4.77734 l 0,-8.82617 c 1.31005,-1.00568 2.68553,-1.92584 4.12696,-2.73242 4.57337,-2.55915 9.71323,-4.06155 14.08789,-6.94727 2.2973,-1.5154 4.37604,-3.42741 5.78906,-5.78906 2.15185,-3.5965 2.61203,-8.05767 1.73633,-12.15625 -0.2172,-1.01658 -0.51676,-2.027 -1.03907,-2.92578 -0.52231,-0.89878 -1.28564,-1.68482 -2.24218,-2.0918 -0.8947,-0.38067 -1.91033,-0.4097 -2.86524,-0.22656 -0.95491,0.18315 -1.8586,0.56766 -2.73047,0.99804 -3.20538,1.58226 -6.06159,3.77976 -8.87695,5.98243 -2.67816,2.09533 -5.33801,4.21291 -7.98633,6.3457 l 0,-9 c 1.4207,-1.12104 2.92844,-2.13185 4.50782,-3.01563 4.57337,-2.55915 9.71128,-4.06154 14.08593,-6.94726 2.2973,-1.5154 4.37605,-3.42741 5.78907,-5.78906 2.15185,-3.5965 2.61398,-8.05768 1.73828,-12.15625 -0.2172,-1.01658 -0.51677,-2.02896 -1.03907,-2.92774 -0.52231,-0.89878 -1.28564,-1.68286 -2.24218,-2.08984 -0.44735,-0.19034 -0.92503,-0.29391 -1.41016,-0.32617 -0.48512,-0.0323 -0.97762,0.006 -1.45508,0.0977 -0.95491,0.18315 -1.85859,0.56962 -2.73047,1 -3.20537,1.58226 -6.06159,3.77976 -8.87695,5.98242 -2.80641,2.19568 -5.59354,4.41553 -8.36719,6.65235 l 0,-7.45703 c 1.40028,-1.84997 3.04888,-3.51185 4.90039,-4.91016 3.1631,-2.38884 6.8514,-4.00332 10.03321,-6.36719 1.61181,-1.19747 3.09166,-2.5899 4.27929,-4.20898 1.18762,-1.61908 2.07847,-3.47096 2.47461,-5.43945 0.25687,-1.2765 0.29688,-2.58001 0.26758,-3.88477 0.005,-0.087 0.0156,-0.17076 0.0156,-0.25976 l 0,-68.511723 c 0,-1.65491 -0.82669,-2.986328 -1.85352,-2.986328 l -2.27539,0 c -1.02682,0 -1.85352,1.331418 -1.85352,2.986328 l 0,54.902343 c 0,1.0652 0.0965,2.06075 -0.25585,3 -0.34924,0.93076 -1.07644,1.68599 -1.76368,2.4043 -2.90989,3.04148 -7.21,4.62703 -9.84179,7.91211 -1.5279,1.90717 -3.0069,3.9707 -4.12696,6.18554 l 0,-9.0957 c 0.68312,-0.9117 1.44286,-1.74436 2.26758,-2.47656 1.93016,-1.71358 4.18149,-2.8727 6.12305,-4.56836 0.98354,-0.85899 1.88663,-1.85617 2.61133,-3.01758 0.7247,-1.16142 1.26803,-2.49028 1.50976,-3.90234 0.15674,-0.91566 0.17998,-1.85116 0.16211,-2.78711 0.003,-0.0624 0.01,-0.12171 0.01,-0.18555 l 0,-49.146484 c 0,-1.18712 -0.43927,-1.725598 -1.13086,-2.142578 -1.53825,-0.92747 -3.85042,-0.92747 -5.38867,0 -0.69159,0.41698 -1.13086,0.955458 -1.13086,2.142578 0,0 0.40287,22.262403 0,33.382813 -0.026,0.71875 0.0667,1.468544 -0.15625,2.152344 -0.21004,0.644257 -0.64706,1.200157 -1.07618,1.724607 -1.74423,2.13171 -0.43929,3.4103 -2.00585,5.67578 -1.79214,2.59168 -3.37151,5.42653 -3.64844,8.72071 -0.27694,-3.29419 -1.85826,-6.12903 -3.65039,-8.72071 -1.56657,-2.26548 -0.26163,-3.54407 -2.00586,-5.67578 -0.42912,-0.52445 -0.86613,-1.08035 -1.07617,-1.724607 -0.22293,-0.6838 -0.13021,-1.433594 -0.15625,-2.152344 -0.40287,-11.12041 0,-33.382813 0,-33.382813 0,-1.18712 -0.43927,-1.725598 -1.13086,-2.142578 -1.53769,-0.92713 -3.84902,-0.92712 -5.38672,0 -0.69159,0.41698 -1.11701,1.272318 -1.13086,2.142578 l 0,49.146484 c 0,0.0639 0.006,0.12315 0.008,0.18555 -0.0179,0.93595 0.008,1.87145 0.16406,2.78711 0.24172,1.41206 0.78508,2.74092 1.50977,3.90234 0.7247,1.16141 1.62778,2.15859 2.61133,3.01758 1.94156,1.69567 4.19289,2.85478 6.12304,4.56836 0.82539,0.73279 1.58404,1.56594 2.26758,2.47851 l 0,9.09375 c -1.12005,-2.21484 -2.59905,-4.27837 -4.12695,-6.18554 -2.63179,-3.28508 -6.93191,-4.87063 -9.8418,-7.91211 -0.68724,-0.71832 -1.41445,-1.47353 -1.76367,-2.4043 -0.35241,-0.93924 -0.25586,-1.9348 -0.25586,-3 l 0,-54.902343 c 0,-1.65491 -0.82669,-2.986328 -1.85352,-2.986328 l -2.27539,0 c -1.02683,0 -1.85351,1.331418 -1.85351,2.986328 l 0,68.511723 c 0,0.089 0.0109,0.17276 0.0156,0.25976 -0.0293,1.30476 0.0107,2.60827 0.26758,3.88477 0.39614,1.96849 1.28699,3.82037 2.47461,5.43945 1.18763,1.61908 2.66749,3.01151 4.2793,4.20898 3.18181,2.36388 6.8701,3.97834 10.0332,6.36719 1.85152,1.39831 3.50011,3.06019 4.90039,4.91016 l 0,7.45703 c -2.77409,-2.23689 -5.56263,-4.4566 -8.36914,-6.65235 -2.81536,-2.20266 -5.66962,-4.40016 -8.875,-5.98242 -0.87187,-0.43038 -1.77556,-0.81685 -2.73047,-1 -0.47745,-0.0916 -0.9719,-0.12982 -1.45703,-0.0977 -0.48512,0.0323 -0.9628,0.13583 -1.41016,0.32617 -0.95653,0.40698 -1.71792,1.19106 -2.24023,2.08984 -0.5223,0.89878 -0.82186,1.91116 -1.03906,2.92774 -0.87569,4.09857 -0.41552,8.55975 1.73633,12.15625 1.41302,2.36165 3.49176,4.27366 5.78906,5.78906 4.37465,2.88572 9.51257,4.38811 14.08594,6.94726 1.57982,0.88403 3.08871,1.8942 4.50976,3.01563 l 0,9.00195 c -2.6489,-2.13327 -5.30952,-4.25186 -7.98828,-6.34765 -2.81536,-2.20267 -5.67157,-4.40017 -8.87695,-5.98243 -0.87187,-0.43038 -1.77556,-0.81489 -2.73047,-0.99804 -0.47746,-0.0916 -0.96995,-0.12984 -1.45508,-0.0977 -0.48513,0.0323 -0.96281,0.13388 -1.41016,0.32422 -0.95654,0.40698 -1.71987,1.19302 -2.24218,2.0918 -0.5223,0.89878 -0.82187,1.9092 -1.03907,2.92578 -0.8757,4.09858 -0.41356,8.55975 1.73829,12.15625 1.41302,2.36165 3.4898,4.27366 5.7871,5.78906 4.37466,2.88572 9.51453,4.38812 14.0879,6.94727 1.44142,0.80658 2.81827,1.72674 4.1289,2.73242 l 0,8.82617 c -1.19968,-1.78874 -2.6563,-3.40485 -4.3164,-4.77734 -5.49978,-4.54694 -12.89377,-6.24869 -18.50586,-10.65625 -2.09178,-1.64282 -3.90216,-3.64346 -5.32813,-5.88868 -0.2413,-4.01644 -0.42799,-8.03514 -0.56055,-12.05664 -0.80692,-24.481 0.40172,-48.97836 0.83985,-73.46874 0.32104,-17.945234 0.22865,-35.896986 -0.2793,-53.837896 -0.0237,-0.61704 -0.27082,-1.224333 -0.68359,-1.683593 -0.44894,-0.49948 -1.10002,-0.821075 -1.77149,-0.833985 z m -150.79297,1.41211 c -1.02682,0 -1.85351,1.333367 -1.85351,2.988281 l 0,36.621094 c 0,1.654919 0.82669,2.988279 1.85351,2.988279 l 0.62891,0 c 1.02682,0 1.85352,-1.33336 1.85352,-2.988279 l 0,-36.621094 c 0,-1.654914 -0.8267,-2.988281 -1.85352,-2.988281 l -0.62891,0 z m 91.46875,0 c -1.02682,0 -1.85351,1.333371 -1.85351,2.988281 l 0,36.621094 c 0,1.654919 0.82669,2.988279 1.85351,2.988279 l 0.62891,0 c 1.02682,0 1.85352,-1.33336 1.85352,-2.988279 l 0,-36.621094 c 0,-1.65491 -0.8267,-2.988281 -1.85352,-2.988281 l -0.62891,0 z m 91.46875,0 c -1.02682,0 -1.85351,1.333371 -1.85351,2.988281 l 0,36.621094 c 0,1.654919 0.82669,2.988279 1.85351,2.988279 l 0.62891,0 c 1.02682,0 1.85352,-1.33336 1.85352,-2.988279 l 0,-36.621094 c 0,-1.65491 -0.8267,-2.988281 -1.85352,-2.988281 l -0.62891,0 z"
       id="path6395"
       inkscape:connector-curvature="0" />
    <g
       id="g6665"
       transform="matrix(0.52122386,-0.85342,0.85342,0.52122386,-1018.6424,1688.8634)"
       style="stroke:#000000;stroke-opacity:1;fill:#ffd700;fill-opacity:1">
      <g
         transform="translate(2.4710809,-4)"
         id="g6659"
         style="stroke:#000000;stroke-opacity:1;fill:#ffd700;fill-opacity:1">
        <path
           style="fill:#ffd700;fill-rule:evenodd;stroke:#000000;stroke-width:3;stroke-linecap:round;stroke-linejoin:round;stroke-miterlimit:4;stroke-dasharray:none;stroke-opacity:1;fill-opacity:1"
           d="m 1911.0829,327.35807 c -0.6654,13.55891 -0.9076,27.13783 -1.7342,40.68786 -0.1008,1.65209 -0.2092,3.32319 0.085,4.95206 0.2938,1.62888 1.0375,3.23846 2.352,4.24425 0.7212,0.55186 1.5965,0.90291 2.5004,0.99062 0.9039,0.0877 1.8336,-0.0898 2.6361,-0.51485 1.1941,-0.63244 2.0562,-1.77545 2.5908,-3.01645 0.5347,-1.241 0.7733,-2.58652 0.9806,-3.9218 1.2678,-8.16828 1.5129,-16.45585 1.8002,-24.71694 1.5806,-45.44699 4.5064,-90.83607 6.5428,-136.26491 0.557,-12.42465 1.1188,-25.17805 6.0493,-36.59611 3.4166,-7.91222 8.775,-14.79885 13.9326,-21.70366 4.8692,-6.51876 9.625,-13.16276 13.4021,-20.36947 3.825,-7.29803 6.6436,-15.27028 6.9717,-23.50338 0.247,-6.19819 -0.9528,-12.481962 -3.7138,-18.03674 -2.6082,-5.247351 -6.6305,-9.826315 -11.6512,-12.847845 -3.2095,-1.931524 -6.8047,-3.219208 -10.5107,-3.764583 -0.2763,1.694168 -0.4928,3.398112 -0.6487,5.107572 -0.1512,1.656956 -0.2455,3.319094 -0.2828,4.982511 0.7046,0.873363 1.4527,1.711544 2.2408,2.510378 2.1834,2.213208 4.6985,4.155603 6.3875,6.765712 1.3107,2.025505 2.0644,4.379344 2.393,6.769443 0.3287,2.390102 0.2441,4.821582 -0.028,7.218722 -0.625,5.4965 -2.2684,10.9328 -5.2542,15.58972 -4.1312,6.44332 -10.5462,11.03764 -15.601,16.78502 -2.6993,3.0691 -5.0133,6.47578 -6.8812,10.1112 -6.9192,13.46635 -7.4068,29.19888 -7.7855,44.33408 -0.6987,27.92429 -1.5201,55.8532 -3.3573,83.72575 -1.1093,16.8296 -2.5887,33.63599 -3.4154,50.48184 z"
           id="path6571-1"
           inkscape:path-effect="#path-effect6573-2"
           inkscape:original-d="m 1911.0829,327.35807 c -0.7473,13.55435 -3.2002,27.19232 -1.7342,40.68786 0.3425,3.15266 0.015,7.14833 2.4366,9.19631 1.3128,1.11049 3.6287,1.30246 5.1365,0.47577 2.2808,-1.25056 2.8675,-4.43414 3.5714,-6.93825 2.2356,-7.95256 1.302,-16.47117 1.8002,-24.71694 2.7421,-45.39121 1.7361,-91.0457 6.5428,-136.26491 1.3069,-12.29497 1.6098,-25.05637 6.0493,-36.59611 3.0867,-8.02365 9.2477,-14.49536 13.9326,-21.70366 4.4291,-6.81486 9.9759,-12.99923 13.4021,-20.36947 3.4448,-7.41029 6.6232,-15.33897 6.9717,-23.50338 0.262,-6.13277 -0.9348,-12.563477 -3.7138,-18.03674 -2.6174,-5.154919 -6.8443,-9.635798 -11.6512,-12.847845 -3.0942,-2.067621 -10.5107,-3.764583 -10.5107,-3.764583 0,0 -0.4918,3.398552 -0.6487,5.107572 -0.1521,1.656543 -0.2828,4.982511 -0.2828,4.982511 0,0 1.4823,1.684108 2.2408,2.510378 2.0975,2.284772 5.005,3.989409 6.3875,6.765712 2.108,4.232995 2.7367,9.273985 2.3645,13.988165 -0.4318,5.46674 -2.4491,10.87771 -5.2542,15.58972 -3.9073,6.56357 -10.8385,10.81296 -15.601,16.78502 -2.5419,3.1874 -5.3474,6.33384 -6.8812,10.1112 -5.6446,13.90192 -6.1838,29.41565 -7.7855,44.33408 -2.9818,27.7714 -1.8549,55.83518 -3.3573,83.72575 -0.9069,16.84136 -2.487,33.64167 -3.4154,50.48184 z"
           inkscape:connector-curvature="0"
           sodipodi:nodetypes="aaaaaaaaaaaaacacaaaaaaaaa" />
        <path
           style="fill:#ffd700;fill-rule:evenodd;stroke:#000000;stroke-width:3;stroke-linecap:round;stroke-linejoin:round;stroke-miterlimit:4;stroke-dasharray:none;stroke-opacity:1;fill-opacity:1"
           d="m 1967.2557,327.35807 c 0.6654,13.55891 0.9076,27.13783 1.7342,40.68786 0.1008,1.65209 0.2092,3.32319 -0.085,4.95206 -0.2938,1.62888 -1.0375,3.23846 -2.352,4.24425 -0.7212,0.55186 -1.5965,0.90291 -2.5004,0.99062 -0.9039,0.0877 -1.8336,-0.0898 -2.6361,-0.51485 -1.1941,-0.63244 -2.0562,-1.77545 -2.5908,-3.01645 -0.5347,-1.241 -0.7733,-2.58652 -0.9806,-3.9218 -1.2678,-8.16828 -1.5129,-16.45585 -1.8002,-24.71694 -1.5806,-45.44699 -4.5064,-90.83607 -6.5428,-136.26491 -0.557,-12.42465 -1.1188,-25.17805 -6.0493,-36.59611 -3.4166,-7.91222 -8.775,-14.79885 -13.9326,-21.70366 -4.8692,-6.51875 -9.625,-13.16275 -13.4021,-20.36946 -3.825,-7.29803 -6.6436,-15.27028 -6.9717,-23.50338 -0.247,-6.19819 0.9528,-12.481967 3.7138,-18.036747 2.6082,-5.247351 6.6305,-9.826315 11.6512,-12.847845 3.2095,-1.931524 6.8047,-3.219208 10.5107,-3.764583 0.2763,1.694168 0.4928,3.398112 0.6487,5.107572 0.1512,1.656956 0.2455,3.319094 0.2828,4.982511 -0.7046,0.873363 -1.4527,1.711544 -2.2408,2.510378 -2.1834,2.213208 -4.6985,4.155603 -6.3875,6.765712 -1.3107,2.025506 -2.0644,4.379346 -2.393,6.769446 -0.3287,2.390096 -0.2441,4.821586 0.028,7.218726 0.625,5.4965 2.2684,10.9328 5.2542,15.58972 4.1312,6.44332 10.5462,11.03764 15.601,16.78501 2.6993,3.0691 5.0133,6.47578 6.8812,10.1112 6.9192,13.46635 7.4068,29.19888 7.7855,44.33408 0.6987,27.92429 1.5201,55.8532 3.3573,83.72575 1.1093,16.8296 2.5887,33.63599 3.4154,50.48184 z"
           id="path6571"
           inkscape:path-effect="#path-effect6573"
           inkscape:original-d="m 1967.2557,327.35807 c 0.7473,13.55435 3.2002,27.19232 1.7342,40.68786 -0.3425,3.15266 -0.015,7.14833 -2.4366,9.19631 -1.3128,1.11049 -3.6287,1.30246 -5.1365,0.47577 -2.2808,-1.25056 -2.8675,-4.43414 -3.5714,-6.93825 -2.2356,-7.95256 -1.302,-16.47117 -1.8002,-24.71694 -2.7421,-45.39121 -1.7361,-91.0457 -6.5428,-136.26491 -1.3069,-12.29497 -1.6098,-25.05637 -6.0493,-36.59611 -3.0867,-8.02365 -9.2477,-14.49536 -13.9326,-21.70366 -4.4291,-6.81486 -9.9759,-12.99923 -13.4021,-20.36946 -3.4448,-7.41029 -6.6232,-15.33897 -6.9717,-23.50338 -0.262,-6.13277 0.9348,-12.563484 3.7138,-18.036747 2.6174,-5.154919 6.8443,-9.635798 11.6512,-12.847845 3.0942,-2.067621 10.5107,-3.764583 10.5107,-3.764583 0,0 0.4918,3.398552 0.6487,5.107572 0.1521,1.656543 0.2828,4.982511 0.2828,4.982511 0,0 -1.4823,1.684108 -2.2408,2.510378 -2.0975,2.284772 -5.005,3.989409 -6.3875,6.765712 -2.108,4.232995 -2.7367,9.273992 -2.3645,13.988172 0.4318,5.46674 2.4491,10.87771 5.2542,15.58972 3.9073,6.56357 10.8385,10.81296 15.601,16.78501 2.5419,3.1874 5.3474,6.33384 6.8812,10.1112 5.6446,13.90192 6.1838,29.41565 7.7855,44.33408 2.9818,27.7714 1.8549,55.83518 3.3573,83.72575 0.9069,16.84136 2.487,33.64167 3.4154,50.48184 z"
           inkscape:connector-curvature="0"
           sodipodi:nodetypes="aaaaaaaaaaaaacacaaaaaaaaa" />
      </g>
      <circle
         r="4"
         cy="142.44981"
         cx="1941.6404"
         id="path6663"
         style="opacity:1;fill:#ffd700;fill-opacity:1;fill-rule:nonzero;stroke:#000000;stroke-width:3;stroke-linecap:round;stroke-linejoin:round;stroke-miterlimit:4;stroke-dasharray:none;stroke-dashoffset:0;stroke-opacity:1" />
    </g>
    <path
       inkscape:connector-curvature="0"
       style="fill:#000000;fill-rule:evenodd;stroke:none;stroke-width:1px;stroke-linecap:butt;stroke-linejoin:round;stroke-opacity:1"
       d="m 304.81979,270.74061 c -2.64007,0.0147 -5.27746,0.39359 -7.74639,1.12706 -4.36435,1.29656 -8.18774,3.70718 -10.69163,6.79398 -2.16579,2.66996 -3.33088,5.79227 -3.70944,8.94208 -0.63745,5.30418 0.88914,10.6143 1.0395,15.94065 0.0926,3.28103 -0.33991,6.57049 -1.28395,9.76785 -4.7741,-0.38394 -9.53597,-0.86482 -14.27766,-1.4451 -7.54279,-0.92309 -15.25075,-2.15963 -21.64432,-5.42885 -4.40982,-2.25488 -7.97578,-5.3701 -12.04202,-7.99171 -1.04516,-0.67385 -2.1379,-1.32144 -3.37481,-1.75197 -1.2369,-0.43051 -2.64285,-0.63339 -3.95863,-0.38498 -1.0104,0.19075 -1.92626,0.64195 -2.6462,1.22935 -0.71995,0.5874 -1.24763,1.30707 -1.61146,2.06999 -0.72766,1.52584 -0.80045,3.18866 -0.85675,4.81698 -0.14558,4.21065 -0.2406,8.42364 -0.28242,12.63571 -4.78345,1.24448 -9.37864,2.93074 -13.66061,5.01411 -5.37664,2.61596 -10.27572,5.85952 -15.98168,8.00473 -5.73446,2.15593 -12.08406,3.12304 -18.40954,3.64342 -6.32547,0.5204 -12.6967,0.61526 -19.02183,1.13822 -5.68349,0.46991 -11.55427,1.36123 -16.12408,4.05071 -2.52895,1.48838 -4.59647,3.55029 -5.38023,5.95147 -0.78794,2.41404 -0.24607,4.97526 -0.70248,7.44121 -0.31778,1.717 -1.1119,3.35367 -1.68741,5.02899 -0.38863,1.13129 -0.68024,2.29145 -0.68351,3.46302 -0.003,1.17156 0.29349,2.36015 1.01813,3.38488 0.74788,1.05757 1.91043,1.89241 3.09715,2.66514 1.18669,0.77274 2.42894,1.5112 3.40803,2.44569 1.18381,1.12989 1.92884,2.49554 2.6818,3.83311 0.75294,1.33758 1.54779,2.69196 2.80285,3.77361 1.47266,1.26919 3.51079,2.08485 5.63893,2.4866 2.12811,0.40176 4.35054,0.4091 6.52888,0.23992 6.97424,-0.54166 13.57561,-2.85615 20.55261,-3.3756 6.5125,-0.48487 13.05367,0.61925 19.30664,2.12579 6.25296,1.50655 12.3513,3.42355 18.70619,4.64029 4.00695,0.76718 8.10035,1.25228 12.21766,1.44695 1.10329,3.09251 0.83897,6.47305 -0.7381,9.4368 -1.38156,2.59634 -3.7056,4.82438 -6.29156,6.77537 -2.58596,1.95101 -5.45224,3.65827 -8.17833,5.48838 -6.83239,4.58679 -12.76323,9.93446 -18.46175,15.39013 -2.89797,2.77447 -5.75706,5.59962 -7.95761,8.74308 -2.20057,3.14346 -3.72934,6.6438 -3.76877,10.22909 -0.0429,3.90023 1.66404,7.76658 1.10832,11.64257 -0.3982,2.77723 -1.93702,5.37137 -3.62399,7.83363 -1.68697,2.46226 -3.55638,4.87138 -4.71096,7.51558 -1.48423,3.39914 -1.71074,7.18298 -0.22784,10.58247 1.13435,2.60046 3.2208,4.92362 4.06068,7.59184 0.75119,2.38646 0.45665,4.88796 0.18986,7.33705 -0.26678,2.44908 -0.49197,4.96371 0.3916,7.32216 0.89478,2.38835 2.85709,4.43172 4.86759,6.35878 2.01051,1.92707 4.1349,3.83126 5.45143,6.09654 2.01657,3.46976 1.94675,7.4257 2.74351,11.1869 0.32752,1.54607 0.81459,3.08874 1.71589,4.48779 0.90128,1.39905 2.24497,2.65618 3.99897,3.40907 1.77019,0.75984 3.82586,0.96448 5.81691,1.22377 1.99107,0.25928 4.05088,0.61382 5.62943,1.59946 0.91824,0.57335 1.62606,1.33697 2.13833,2.16485 0.51225,0.82787 0.8342,1.72146 1.06084,2.62423 0.45329,1.80553 0.53019,3.66347 1.10595,5.44745 0.70776,2.19293 2.17546,4.2337 4.20309,5.8436 -5.14996,2.80248 -11.14526,4.64468 -17.35343,5.33215 -2.73847,0.30325 -5.50922,0.38405 -8.24952,0.67698 -2.74029,0.29293 -5.48984,0.81106 -7.87218,1.91191 -3.88206,1.79384 -6.38228,4.91425 -9.12525,7.71645 -1.29747,1.32547 -2.6789,2.6025 -3.87083,3.98748 -1.19194,1.38501 -2.20043,2.89444 -2.65333,4.52684 -0.77164,2.78122 0.11228,5.65985 0.9327,8.43249 1.5678,5.29863 2.91911,10.63603 4.09628,15.99644 2.22374,10.12615 3.8271,20.34905 4.32648,30.6166 0.30681,6.30789 0.1959,12.62435 -0.19459,18.9294 -0.0633,1.02325 -0.13432,2.05121 -0.0309,3.07244 0.10348,1.02125 0.38944,2.04349 0.99913,2.9497 0.82618,1.22795 2.1898,2.16684 3.33921,3.22309 2.1457,1.97177 3.553,4.37147 4.68248,6.807 1.12948,2.43553 2.00837,4.94165 3.24666,7.34449 2.26942,4.40371 5.69688,8.36924 8.98524,12.3586 0.76583,0.92909 1.53486,1.87156 2.54653,2.64283 1.01166,0.77126 2.30422,1.36737 3.7118,1.4488 1.20953,0.07 2.42169,-0.24624 3.44601,-0.75509 1.02434,-0.50887 1.87899,-1.20243 2.65571,-1.93236 1.47714,-1.38816 2.71646,-2.95528 3.39378,-4.68307 0.933,-2.38 0.74062,-5.02133 -0.52924,-7.30358 0.80609,0.26941 1.70831,0.36002 2.57501,0.25853 0.86672,-0.1015 1.69578,-0.39462 2.36616,-0.83693 0.67828,-0.44753 1.19,-1.04011 1.52602,-1.68316 0.33603,-0.64302 0.50185,-1.33536 0.55298,-2.02907 0.10214,-1.38739 -0.24711,-2.7678 -0.51262,-4.14185 -0.80662,-4.17418 -0.85353,-8.45475 -2.28786,-12.52413 -0.66844,-1.89643 -1.66638,-3.7669 -3.35819,-5.22055 -1.97871,-1.70017 -4.86989,-2.72592 -7.80572,-2.7693 1.08049,-0.68055 2.03315,-1.4871 2.81471,-2.38431 2.33857,-2.68461 3.05963,-6.09798 2.5845,-9.32707 -0.7221,-4.90758 -3.97543,-9.33348 -5.94268,-14.02687 -2.49388,-5.94975 -2.90257,-12.28876 -3.86845,-18.50535 -0.76697,-4.93627 -1.88951,-9.99346 -0.38684,-14.82474 0.44653,-1.43568 1.11996,-2.82691 2.00304,-4.13256 9.21824,-1.18908 18.47105,-2.22305 27.74603,-3.10035 10.05558,-0.95113 20.13911,-1.71793 30.24034,-2.30061 1.67835,4.72295 3.25565,9.46687 4.72994,14.23145 1.74637,5.64394 3.35696,11.37373 3.32259,17.18116 -0.0448,7.58485 -2.89843,15.05835 -2.60349,22.63977 0.35088,9.01898 5.10448,17.52418 7.7725,26.30177 2.27354,7.47975 3.03597,15.21232 2.76013,22.89829 -0.0771,2.14975 -0.23633,4.30529 -0.72149,6.42201 -0.57854,2.52419 -1.62181,5.01279 -1.56398,7.57697 0.0392,1.73466 0.58455,3.44658 0.59807,5.1815 0.0179,2.30512 -0.91894,4.58352 -2.44923,6.5522 -1.53029,1.96867 -3.63682,3.63855 -5.99016,5.02154 -1.57887,0.92785 -3.27807,1.73494 -4.75368,2.76186 -1.47559,1.02694 -2.74334,2.32185 -3.13985,3.83684 -0.19115,0.73031 -0.17111,1.49951 0.11157,2.21135 0.28268,0.71183 0.83291,1.36449 1.59246,1.81333 0.82685,0.48858 1.86058,0.72002 2.89065,0.80345 1.03008,0.0834 2.06954,0.027 3.10427,-0.006 1.55232,-0.0491 3.10583,-0.0457 4.65874,-0.0818 2.43974,-0.0567 4.87732,-0.20949 7.29784,-0.45567 2.65311,0.81375 5.39053,1.46113 8.17596,1.93052 2.3344,0.39338 4.71658,0.66189 7.10322,0.60444 1.51382,-0.0365 3.03492,-0.20726 4.4499,-0.63049 1.41499,-0.42323 2.72365,-1.10906 3.63824,-2.05511 1.25743,-1.3007 1.68702,-2.9937 1.66367,-4.62541 -0.0233,-1.6317 -0.46169,-3.24023 -0.76894,-4.85417 -0.67825,-3.56272 -0.70197,-7.30637 1.00389,-10.65128 1.00074,-1.96225 2.57171,-3.73007 4.46414,-5.23542 0.90196,-0.71747 1.87833,-1.37627 2.76251,-2.1072 0.88419,-0.73092 1.68535,-1.54571 2.16205,-2.48102 0.8416,-1.65126 0.59316,-3.53656 -0.12815,-5.22242 -0.72132,-1.68585 -1.88594,-3.22919 -2.89778,-4.82069 -4.13847,-6.50924 -5.74313,-13.80114 -7.19103,-20.98451 -1.32625,-6.57975 -2.55578,-13.34551 -0.75471,-19.8556 1.14493,-4.13838 3.4966,-8.08133 3.92065,-12.3028 0.29916,-2.97818 -0.37779,-5.95756 -1.06797,-8.89559 -0.69018,-2.93803 -1.39999,-5.91014 -1.16528,-8.89187 0.24261,-3.08208 1.48802,-6.06302 2.95474,-8.92906 3.58444,-7.00425 8.53627,-13.53383 12.23663,-20.50096 3.11222,-5.85979 5.32356,-12.01306 6.57399,-18.28404 4.9926,-0.75657 9.95547,-1.64013 14.87573,-2.64654 12.04062,-2.46288 23.81181,-5.66197 35.63954,-8.69287 4.7654,-1.22114 9.54005,-2.41506 14.32751,-3.58204 2.50808,6.18416 6.59884,11.97134 11.95658,16.91892 6.87263,6.3465 15.74806,11.27973 22.11898,17.93996 3.44664,3.60317 6.07998,7.63245 8.85945,11.57375 2.71753,3.85347 5.66284,7.83538 5.9071,12.23399 0.1082,1.94659 -0.32557,3.89023 -0.96594,5.77293 -1.4374,4.22611 -3.89646,8.18593 -6.17052,12.18006 -7.43197,13.05347 -12.99297,26.71948 -17.67145,40.5351 -0.98806,2.91775 -1.93729,5.84337 -2.84793,8.77655 -3.14949,1.81888 -5.97418,3.98221 -8.36818,6.40713 -4.9451,5.00895 -7.99624,11.05627 -13.11713,15.95553 -1.46481,1.40142 -3.11158,2.72716 -4.08917,4.36875 -0.48879,0.82079 -0.79971,1.71664 -0.78793,2.62237 0.0121,0.90573 0.36054,1.82038 1.07985,2.52937 0.87256,0.86006 2.22321,1.35907 3.59788,1.57528 1.37469,0.21621 2.79023,0.17743 4.19123,0.13391 4.07176,-0.12652 8.14512,-0.2814 12.22002,-0.26224 5.3054,0.0249 10.61151,0.344 15.91047,0.13763 1.52763,-0.0595 3.06261,-0.16301 4.53771,-0.47984 1.47512,-0.31684 2.89699,-0.85731 3.98949,-1.69617 1.39751,-1.07308 2.15896,-2.547 2.79572,-3.99678 1.24829,-2.84207 2.16285,-5.76859 2.88355,-8.72077 0.37772,-1.54732 0.70996,-3.12044 1.5094,-4.56589 0.39973,-0.72272 0.91717,-1.40923 1.58297,-1.99933 0.6658,-0.5901 1.48354,-1.08242 2.41126,-1.38558 1.48377,-0.48485 3.14157,-0.46616 4.74656,-0.53748 0.85786,-0.0381 1.72406,-0.10561 2.53941,-0.31803 0.81535,-0.21244 1.58514,-0.58002 2.08611,-1.12707 0.33133,-0.3618 0.53325,-0.79192 0.62654,-1.23121 0.0933,-0.43929 0.0805,-0.88867 0.002,-1.32978 -0.15615,-0.88221 -0.56285,-1.72334 -0.87574,-2.57958 -0.93312,-2.55349 -1.03238,-5.25701 -0.7286,-7.90244 0.3038,-2.64545 1.00066,-5.25157 1.64232,-7.85967 1.674,-6.80438 2.97865,-13.68742 5.55348,-20.31683 2.57482,-6.62941 6.52169,-13.07785 12.76588,-17.98461 1.59539,-1.25366 3.3336,-2.40122 4.7869,-3.75686 1.45329,-1.35564 2.6309,-2.96889 2.84556,-4.73142 0.17262,-1.41731 -0.28823,-2.84573 -1.01339,-4.15115 -0.72517,-1.30541 -1.70925,-2.50991 -2.64383,-3.73082 -4.18194,-5.4631 -7.49529,-11.49873 -8.01696,-17.85627 -0.21228,-2.58728 0.0416,-5.19781 0.75472,-7.72948 6.27595,2.60315 11.7197,6.42891 15.70162,11.03626 2.7976,3.23701 4.8832,6.86309 5.97829,10.67731 1.21505,4.23201 1.20255,8.61998 0.91372,12.95189 -0.73286,10.9912 -3.20899,21.90951 -3.09476,32.91535 0.0386,3.72653 0.37386,7.44943 0.43905,11.17575 0.0509,2.91255 -0.0622,5.82791 0.19461,8.73378 0.0867,0.98133 0.21585,1.96216 0.38686,2.93668 -3.20188,1.75624 -5.77424,4.20884 -7.35005,7.01158 -2.06947,3.68068 -2.3906,7.79281 -2.90016,11.79507 -0.65091,5.11244 -1.65525,10.19715 -3.00694,15.2246 0.99795,0.18459 2.00093,0.35408 3.00694,0.5096 2.97687,0.4602 6.04549,0.79325 9.03508,0.38685 2.42326,-0.32942 4.69701,-1.13209 6.91099,-1.97143 2.46257,-0.9336 4.90866,-1.93278 7.05102,-3.26587 1.96716,-1.22407 3.65384,-2.71637 5.71249,-3.84428 1.61738,-0.88616 3.45449,-1.54165 4.88895,-2.60377 1.29718,-0.96045 2.20549,-2.22282 2.68893,-3.56902 0.80357,-2.2376 0.45035,-4.61387 0.19462,-6.92975 -0.26918,-2.43758 -0.4226,-4.88305 -0.45806,-7.3296 1.44475,0.48342 3.07738,0.61663 4.61842,0.37754 1.54102,-0.23909 2.98368,-0.84943 4.08441,-1.72778 1.20068,-0.95813 1.98358,-2.22745 2.23325,-3.55601 0.284,-1.51121 -0.10551,-3.05732 -0.74994,-4.49894 -0.64447,-1.44161 -1.53945,-2.80545 -2.3092,-4.2088 -5.32973,-9.71659 -4.45312,-20.73818 -3.53383,-31.28986 0.68218,-7.83014 1.36638,-15.7764 4.71334,-23.17354 1.17508,-2.59706 2.6671,-5.10176 3.8186,-7.7053 1.15151,-2.60353 1.96339,-5.35174 1.70165,-8.09958 -0.24391,-2.56059 -1.40857,-5.01364 -2.79335,-7.34076 -1.3848,-2.32712 -3.00303,-4.57098 -4.24106,-6.94835 -2.48195,-4.76609 -3.37571,-9.96912 -3.34395,-15.11673 0.0317,-5.14762 0.96537,-10.26546 2.02679,-15.34549 1.90144,-9.10059 4.2187,-18.15224 5.62467,-27.30796 0.78326,-5.10057 1.28273,-10.22756 1.49517,-15.36223 1.59696,1.87021 3.82003,3.40961 6.38411,4.42268 2.56409,1.01308 5.46423,1.49712 8.33259,1.39116 5.28993,-0.19541 10.11702,-2.3186 14.62891,-4.4915 3.7328,-1.7977 7.40672,-3.66726 11.02151,-5.6074 -3.08951,-1.45276 -5.97342,-3.1759 -8.57941,-5.1257 -6.73694,-5.0406 -11.47734,-11.47051 -15.85825,-17.91207 -4.38092,-6.44156 -8.54254,-13.04862 -14.3987,-18.72482 -6.18568,-5.9956 -14.26609,-10.85544 -23.47412,-13.57121 -7.93025,-2.33891 -16.48279,-3.0558 -24.94792,-3.34771 -28.6883,-0.98927 -57.39478,2.67468 -86.08126,1.6534 -19.37896,-0.68992 -38.71005,-3.51589 -58.0552,-2.38431 -4.16074,0.24338 -8.31117,0.67 -12.48347,0.66211 -4.1723,-0.008 -8.42195,-0.47178 -12.16542,-1.91563 -1.69404,-0.6534 -3.29489,-1.52196 -4.41431,-2.7135 -1.20028,-1.27761 -1.78199,-2.85936 -1.9888,-4.43757 -0.20683,-1.57821 -0.0597,-3.17068 0.0736,-4.75374 1.46196,-17.3491 1.25436,-34.78392 -0.61704,-52.10884 2.78069,-0.059 5.56088,-0.16971 8.33495,-0.33106 3.67385,-0.21368 7.33851,-0.51717 10.98829,-0.90946 -2.54677,-2.4663 -4.85283,-5.08535 -6.892,-7.82618 -4.75404,-6.38983 -8.02683,-13.39616 -12.65908,-19.8407 -0.84664,-1.17788 -1.73773,-2.33601 -2.67232,-3.47232 3.41759,0.16984 6.84559,0.22506 10.26919,0.16553 4.9287,-0.0857 9.886,-0.40777 14.76656,0.13762 9.48146,1.05955 18.02286,5.31609 27.51581,6.31042 9.50362,0.99545 19.02822,-1.35705 28.60752,-1.67943 3.05056,-0.10266 6.12036,0.002 9.12527,0.42591 6.70277,0.94709 12.86282,3.44066 18.88182,5.93845 6.22229,2.58215 12.543,5.23969 19.46328,6.25648 7.28047,1.06971 14.83041,0.25054 21.95997,-1.3242 1.87677,-0.41454 3.73919,-0.88146 5.65314,-1.17356 1.91395,-0.2921 3.89732,-0.40581 5.8098,-0.10787 2.77513,0.43234 5.22627,1.70167 7.36191,3.15614 2.13566,1.45446 4.03214,3.11703 6.19426,4.54728 6.96956,4.61041 16.28477,6.52029 25.38936,6.94463 7.65802,0.35692 15.45326,-0.23122 22.92589,1.12892 6.26963,1.14118 12.03105,3.61304 17.28224,6.52988 4.88377,2.71276 9.5982,5.90701 15.40259,7.05435 3.26936,0.64625 6.70878,0.59617 10.0461,0.21946 3.33734,-0.37671 6.59981,-1.07072 9.87285,-1.70546 4.79895,-0.93067 9.64008,-1.7358 14.50786,-2.41221 -2.46112,-1.59592 -5.20346,-2.92635 -8.12375,-3.94099 -6.14279,-2.1343 -12.98109,-2.85367 -19.0598,-5.0978 -2.67482,-0.98749 -5.18646,-2.27058 -7.30023,-3.89078 -2.11373,-1.6202 -3.82215,-3.58424 -4.81301,-5.76735 -0.86356,-1.90263 -1.17271,-3.95853 -0.89709,-5.96634 7.00631,1.95601 14.43467,2.9801 21.87216,3.01664 3.3439,0.0164 6.71627,-0.16801 9.93455,-0.87969 3.21827,-0.71168 6.29041,-1.97671 8.57939,-3.88706 2.52718,-2.10911 4.00001,-4.97412 4.04409,-7.8671 -4.94727,-0.0721 -9.88999,-0.33384 -14.80453,-0.78484 -3.84071,-0.35245 -7.69452,-0.82684 -11.32293,-1.87471 -4.15812,-1.20086 -7.9601,-3.15225 -11.02388,-5.66135 4.65878,-4.28715 10.22653,-7.96853 16.40412,-10.84469 3.64631,-1.69765 7.50247,-3.1155 11.49855,-4.22927 -2.20953,-1.97695 -5.23706,-3.38339 -8.51061,-3.954 -2.95195,-0.51455 -6.04404,-0.35902 -8.99946,0.1432 -2.95542,0.50223 -5.79773,1.34176 -8.61738,2.19833 -4.20712,1.27808 -8.39103,2.60172 -12.55229,3.96888 -0.89495,-4.4878 -0.0444,-9.18061 2.40889,-13.29595 2.5724,-4.31514 6.76955,-7.88441 10.16238,-11.83598 1.9019,-2.21511 3.55726,-4.55892 4.94117,-6.99856 -4.79498,0.48698 -9.48529,1.59967 -13.81961,3.27889 -6.36062,2.46425 -11.92181,6.14064 -16.28308,10.52665 -7.05711,7.09714 -10.89155,15.842 -17.37004,23.27025 -0.92643,1.06226 -1.91225,2.1019 -3.09951,2.99062 -1.18726,0.88872 -2.59057,1.62655 -4.16274,1.99747 -2.28855,0.53992 -4.7449,0.27419 -7.10085,-0.0409 -4.90913,-0.65659 -9.77713,-1.50852 -14.57669,-2.54984 -0.22311,-3.6774 0.61159,-7.39096 2.42549,-10.78703 2.23277,-4.18029 5.90039,-7.8225 10.12916,-10.91351 2.12129,-1.55056 4.39034,-2.97443 6.78522,-4.25716 -4.60068,-1.44023 -9.70002,-1.88822 -14.59331,-1.28144 -5.91188,0.73309 -11.45368,2.99464 -15.82266,6.20069 -3.67661,2.69799 -6.55263,6.06301 -8.33496,9.75484 -2.27976,-3.87303 -3.47654,-8.1343 -3.4816,-12.39952 -0.008,-6.40909 2.6311,-12.64673 5.90946,-18.51837 1.12368,-2.01256 2.32622,-3.99846 3.60503,-5.95333 -6.05281,-0.0317 -12.09935,1.62437 -16.80996,4.60308 -5.779,3.65429 -9.35028,9.0554 -11.69316,14.57739 -2.59444,6.11491 -3.87612,12.56949 -3.77826,19.01309 -5.15603,0.85603 -10.45503,1.18199 -15.71824,0.96526 -5.12345,-0.21098 -10.21266,-0.93561 -15.10355,-2.14998 -1.64697,-5.39331 -1.79247,-11.06534 -0.42245,-16.50603 1.69282,-6.72265 5.71386,-13.07689 11.51753,-18.20219 -3.44311,-0.58224 -7.10171,-0.36297 -10.39258,0.62118 -5.62748,1.68289 -9.81128,5.39429 -13.55383,9.09273 -3.8632,3.8177 -7.51332,7.76835 -10.93607,11.83598 -2.89319,-4.52978 -4.57508,-9.5315 -4.90558,-14.59039 -0.33682,-5.15567 0.72504,-10.3532 2.95238,-15.21159 0.97839,-2.13414 2.18078,-4.20449 3.58839,-6.18581 -6.07571,-0.50713 -12.39251,1.1431 -16.86215,4.4078 -5.09855,3.72405 -7.61546,9.32258 -7.50669,14.78383 0.0598,3.00174 0.84804,5.96122 1.44059,8.9272 0.59254,2.96598 0.98733,6.00895 0.26342,8.95697 -0.73619,2.99799 -2.70173,5.86194 -5.78367,7.72947 -3.30211,2.00094 -7.5439,2.72062 -11.62197,3.41838 -2.2072,0.37764 -4.42342,0.76628 -6.67841,0.87412 -2.255,0.10783 -4.57164,-0.0772 -6.63095,-0.80531 -1.8321,-0.64775 -3.4049,-1.71145 -4.58755,-2.98504 -1.18264,-1.27359 -1.98192,-2.75223 -2.44447,-4.28505 -0.92513,-3.06565 -0.51209,-6.28513 0.28004,-9.37357 1.28544,-5.01185 3.56196,-9.87473 6.82318,-14.30213 3.18833,-4.32844 7.31435,-8.23232 12.14883,-11.49192 -4.92789,-1.3821 -10.47617,-1.35723 -15.38361,0.0688 -3.55758,1.03379 -6.74455,2.76803 -9.45989,4.84487 -2.71535,2.07682 -4.97656,4.49381 -6.97982,7.01901 -3.77502,4.75863 -6.66919,9.94605 -8.56279,15.34922 -3.17125,-3.74193 -5.3725,-7.98706 -6.43396,-12.40138 -1.26005,-5.24019 -0.90977,-10.69167 0.77131,-15.85881 1.16544,-3.58223 2.96432,-7.03725 5.32802,-10.23653 -1.55024,-0.25581 -3.13405,-0.37888 -4.71807,-0.3701 z m 138.58772,71.0215 c 0.37422,-0.018 0.74965,-0.0186 1.12493,0 1.67218,0.0829 3.29697,0.55665 4.97202,0.52634 0.5966,-0.0108 1.19209,-0.086 1.78709,-0.0502 0.29749,0.0179 0.59464,0.0636 0.86863,0.15622 0.27396,0.0926 0.52533,0.23357 0.70485,0.42033 0.21491,0.22357 0.31835,0.50686 0.31089,0.78671 -0.007,0.27985 -0.12245,0.55636 -0.31089,0.79415 -0.3405,0.42967 -0.89787,0.72586 -1.47853,0.94666 -1.93273,0.73487 -4.16952,0.73006 -6.3177,0.73835 -3.09169,0.0119 -6.1849,0.0839 -9.27478,0 -1.77456,-0.0482 -3.57576,-0.15268 -5.24257,-0.63234 -1.08067,-0.311 -2.08817,-0.77703 -2.95712,-1.36884 1.25376,-0.59006 2.70544,-0.9207 4.1675,-0.94852 1.3008,-0.0248 2.60206,0.18533 3.89929,0.10601 1.53209,-0.0937 2.97131,-0.58329 4.43566,-0.94851 1.07498,-0.26811 2.18806,-0.47245 3.31073,-0.52634 z m 80.02228,10.00591 c 1.53284,-0.0717 3.02196,0.37269 4.43566,0.84251 0.28622,0.0951 0.57458,0.19287 0.83539,0.32547 0.26082,0.1326 0.49516,0.30278 0.64316,0.51704 0.15348,0.22217 0.20521,0.48364 0.1685,0.73463 -0.0367,0.25099 -0.15742,0.49263 -0.33226,0.70487 -0.34966,0.4245 -0.89238,0.72714 -1.44769,0.98386 -1.6064,0.74261 -3.41572,1.1805 -5.24259,1.47485 -4.01081,0.64623 -8.13961,0.62549 -12.23188,0.73649 -1.32086,0.0358 -2.64816,0.0859 -3.96101,-0.0334 -1.31283,-0.1194 -2.62404,-0.41768 -3.69993,-1.0192 -0.64986,-0.36331 -1.20361,-0.83219 -1.61383,-1.36884 2.11136,-0.87509 4.47081,-1.38255 6.85639,-1.47484 1.46254,-0.0566 2.92656,0.0404 4.39057,0.0632 1.46403,0.0229 2.95018,-0.0312 4.34549,-0.3794 1.17659,-0.29356 2.25155,-0.78706 3.35344,-1.22377 1.10189,-0.43673 2.26798,-0.82579 3.50059,-0.88343 z"
       id="path12725-1" />
    <path
       inkscape:connector-curvature="0"
       style="fill:#ff0000;fill-opacity:1;fill-rule:evenodd;stroke:none;stroke-width:1px;stroke-linecap:butt;stroke-linejoin:miter;stroke-opacity:1"
       d="m 302.03827,274.2504 c -3.13784,1.34466 -5.93268,3.17953 -8.17358,5.36377 -3.02317,2.94675 -5.02117,6.5341 -5.70063,10.27745 -1.0736,5.91492 1.09877,11.84913 2.4706,17.72608 0.28897,1.23793 0.54392,2.49212 0.47465,3.74942 -0.0692,1.25731 -0.48475,2.53098 -1.42634,3.55043 -0.99012,1.07198 -2.50496,1.79617 -4.11525,2.1946 -1.61032,0.39837 -3.319,0.49394 -5.00763,0.48728 -5.87556,-0.022 -11.63808,-1.21446 -17.48872,-1.63851 -1.24959,-0.0906 -2.5129,-0.14637 -3.75689,-0.0168 -1.24397,0.12965 -2.47535,0.45351 -3.465,1.05824 -0.73663,0.45013 -1.32344,1.04992 -1.68741,1.72407 -0.36398,0.67416 -0.50418,1.42223 -0.40345,2.14997 2.29817,-0.67243 4.88178,-0.72557 7.2219,-0.14879 2.20519,0.54352 4.18567,1.62236 6.46244,1.93609 2.05584,0.28328 4.16604,-0.087 6.15629,-0.58027 1.99025,-0.4932 3.94476,-1.11363 6.00915,-1.35582 2.38293,-0.27955 4.8247,-0.0403 7.16492,0.40917 2.34023,0.44947 4.60451,1.10551 6.90152,1.6757 5.18669,1.28753 10.55003,2.13699 15.96743,2.53124 0.11895,-1.84115 0.30854,-3.67856 0.56957,-5.51069 0.11337,-0.79573 0.24205,-1.5912 0.38211,-2.38431 -4.19516,-3.55856 -7.45178,-7.79259 -9.50499,-12.36231 -1.94977,-4.3395 -2.81251,-8.9558 -2.8503,-13.55634 -0.0482,-5.87541 1.24346,-11.75621 3.79961,-17.27973 z m 81.97312,7.02831 c -3.50891,1.65671 -6.47102,4.01815 -8.52482,6.79584 -2.20852,2.98692 -3.35736,6.45477 -3.23242,9.90549 0.16458,4.54503 2.47883,8.92953 2.49906,13.47635 0.0224,5.05722 -2.92935,10.02335 -7.64432,13.47636 -2.50732,1.83622 -5.48462,3.26416 -8.67198,4.26088 -5.09733,1.59401 -10.75077,2.07894 -16.16678,1.38373 3.37809,2.11457 7.30274,3.69099 11.46531,4.60681 3.4513,0.75933 7.20376,1.054 10.58246,0.1153 2.89771,-0.80506 5.29135,-2.44699 8.08339,-3.45556 2.42226,-0.87501 5.07678,-1.25147 7.67044,-1.73896 2.59367,-0.48748 5.22088,-1.12055 7.32158,-2.40848 1.19367,-0.73182 2.19319,-1.67233 2.79098,-2.76372 0.96919,-1.76946 0.81544,-3.82814 0,-5.64459 -0.85334,-1.90089 -2.37336,-3.56767 -3.96575,-5.14988 -1.59241,-1.5822 -3.28646,-3.11991 -4.55908,-4.87091 -2.55779,-3.51928 -3.26051,-7.70084 -3.08526,-11.74858 0.2442,-5.64012 2.11601,-11.23271 5.43719,-16.24008 z m -42.35595,3.99865 c -6.21795,2.5217 -11.76983,6.04588 -16.21188,10.28675 -2.79859,2.67186 -5.17179,5.64125 -6.72349,8.87699 -1.55171,3.23573 -2.26586,6.74593 -1.77047,10.18073 0.30348,2.10421 1.05351,4.15728 1.3504,6.26207 0.14858,1.05239 0.18301,2.1193 -0.0101,3.16729 -0.19251,1.048 -0.61871,2.07902 -1.34089,2.97388 -0.81477,1.00958 -1.99673,1.82549 -3.34397,2.38431 -1.34723,0.55883 -2.85531,0.86428 -4.37631,0.94293 -2.14653,0.11104 -4.30026,-0.22126 -6.33429,-0.76996 -2.03406,-0.54872 -3.96399,-1.31086 -5.87625,-2.08302 -3.82451,-1.54432 -7.80615,-3.18106 -12.10848,-3.19706 -2.50687,-0.01 -4.95747,0.53769 -7.3548,1.11218 -2.39732,0.57448 -4.8124,1.18522 -7.31445,1.30747 -2.84186,0.13884 -5.66413,-0.35721 -8.49397,-0.60445 -1.55022,-0.13544 -3.15517,-0.19111 -4.63263,0.20086 -0.73874,0.19598 -1.435,0.50516 -1.98882,0.9355 -0.55383,0.43033 -0.96105,0.98487 -1.09883,1.58644 -0.11883,0.51892 -0.0335,1.06561 0.2397,1.54738 0.27323,0.48178 0.73416,0.89682 1.3053,1.17541 0.77115,-0.49272 1.78666,-0.74551 2.77912,-0.68999 0.99245,0.0555 1.9509,0.41767 2.62484,0.99129 0.59109,0.50309 0.95561,1.15 1.15817,1.81519 0.17328,0.56915 0.23514,1.1644 0.12103,1.74267 -0.11411,0.57826 -0.40859,1.14072 -0.89237,1.58643 -0.41568,0.38297 -0.9672,0.67422 -1.57585,0.83321 -0.60865,0.15892 -1.27286,0.18347 -1.89861,0.0726 0.20464,1.00004 0.74473,1.95795 1.55211,2.74882 0.80737,0.7909 1.88043,1.41319 3.08052,1.78917 1.18243,0.37043 2.49859,0.50029 3.74742,0.30501 1.2488,-0.19529 2.42013,-0.72449 3.19918,-1.5139 0.78125,-0.79168 1.13307,-1.78562 1.48804,-2.74698 0.35496,-0.96136 0.75438,-1.95001 1.60196,-2.69862 0.5275,-0.46591 1.20886,-0.81646 1.94136,-1.05825 0.73247,-0.24178 1.51563,-0.37733 2.30444,-0.45379 2.96878,-0.28761 5.97547,0.26622 8.77165,1.09916 2.79618,0.83294 5.4465,1.94257 8.21393,2.83253 8.78564,2.82535 18.94791,3.31251 27.79349,0.60444 2.3105,-0.70736 4.51674,-1.62114 6.56212,-2.72094 7.44836,6.09791 17.82691,9.94438 28.56717,10.58804 8.58973,0.51479 17.16695,-0.94351 25.47717,-2.72279 3.49572,-0.74847 6.97168,-1.5568 10.42345,-2.42151 6.00908,2.70542 11.93026,5.53123 17.75689,8.47155 7.08739,3.57652 14.39907,7.43103 22.77637,8.16653 6.5618,0.5761 13.15065,-0.84018 19.30189,-2.72094 2.81231,-0.85987 5.59752,-1.82511 8.55806,-2.28759 2.96054,-0.46249 6.17655,-0.38006 8.81198,0.77369 2.55776,1.11974 4.27751,3.09353 6.17765,4.84114 5.33617,4.90783 12.78074,8.39955 20.84454,9.68045 5.79595,0.92067 11.76949,0.71953 17.68331,0.72905 5.91382,0.01 11.9643,0.25472 17.44599,1.99374 5.28291,1.67596 9.70628,4.62962 14.17085,7.40587 4.46457,2.77624 9.23394,5.48305 14.78078,6.50941 4.07383,0.75381 8.43058,0.54102 12.35294,-0.60444 -5.70658,-1.63353 -11.07385,-3.99277 -15.82741,-6.95764 -3.26903,-2.03894 -6.26135,-4.37566 -8.64348,-7.06552 -2.38213,-2.68984 -4.14431,-5.7434 -4.86761,-8.96811 -0.82715,-3.68778 -0.27549,-7.52466 1.2341,-11.07718 1.5096,-3.55253 3.9546,-6.83292 6.87302,-9.7976 5.65515,-5.74476 13.15766,-10.36228 21.61823,-13.30898 -7.01983,1.21834 -13.74071,3.48907 -19.68875,6.65449 -6.51977,3.46968 -12.21757,8.15304 -15.05372,13.91528 -1.2167,2.472 -1.88727,5.09123 -3.0639,7.57511 -1.17662,2.48389 -2.96693,4.91187 -5.81454,6.34016 -2.22129,1.11416 -4.91309,1.52922 -7.5494,1.58645 -2.63634,0.0572 -5.26375,-0.21936 -7.89353,-0.37569 -4.42582,-0.2631 -8.89438,-0.18913 -13.27377,-0.75509 -4.37938,-0.56596 -8.77629,-1.85317 -11.81656,-4.38735 -1.99118,-1.65973 -3.29558,-3.77163 -4.09153,-5.96263 -0.79595,-2.191 -1.10897,-4.47142 -1.31481,-6.74376 -0.66081,-7.29526 -0.18131,-14.8855 3.86135,-21.47736 2.79993,-4.56555 7.27067,-8.49434 12.73975,-11.19435 -6.23776,2.14756 -12.00755,5.12745 -16.98556,8.77284 -4.97368,3.64222 -9.20023,8.01206 -11.58162,13.00954 -1.1214,2.35332 -1.82416,4.81542 -2.8764,7.18826 -1.05226,2.37285 -2.50453,4.70641 -4.84387,6.42386 -2.66541,1.95686 -6.29053,2.95972 -9.91794,3.29378 -3.62743,0.33405 -7.29929,0.0509 -10.92896,-0.26782 -7.88183,-0.69203 -15.99126,-1.61981 -22.774,-4.84116 -7.00666,-3.32769 -12.02529,-8.95454 -14.28478,-15.12602 -2.18948,-5.98024 -1.90093,-12.41274 0,-18.45328 1.92925,-6.13055 5.50415,-11.93856 10.42345,-16.93937 -5.47351,3.90112 -10.40211,8.2711 -14.66925,13.00768 -3.28929,3.65116 -6.25224,7.66418 -6.94897,12.10008 -0.27089,1.72386 -0.19054,3.4683 -0.27766,5.20382 -0.0871,1.73553 -0.35211,3.49836 -1.26496,5.08107 -0.84979,1.47335 -2.23971,2.73666 -3.88507,3.71222 -1.64536,0.97555 -3.54275,1.67183 -5.51074,2.15741 -3.93598,0.97118 -8.11169,1.10886 -12.22241,1.39116 -8.12507,0.55797 -16.45504,1.6956 -24.31901,0 -4.63367,-0.9991 -8.89868,-2.96779 -12.38616,-5.55905 -3.48746,-2.59125 -6.20517,-5.79407 -8.07389,-9.26383 -4.32926,-8.03829 -3.94072,-17.50594 0.77132,-25.41092 3.01062,-5.05064 7.71468,-9.47501 13.51109,-12.70639 z m 127.60418,8.67055 c -4.12166,1.75607 -7.79208,4.15991 -10.7296,7.02646 -6.97919,6.81053 -9.50455,15.92574 -8.96388,24.65025 0.14369,2.31829 0.48644,4.62733 1.02763,6.90929 -3.16252,-0.34464 -6.37789,-0.38356 -9.55246,-0.11532 -4.42684,0.37404 -8.77646,1.34335 -13.22865,1.38372 -5.03613,0.0457 -10.08097,-1.1359 -14.25868,-3.34027 0.2507,2.09436 1.05687,4.14614 2.35193,5.98868 1.40125,1.99361 3.37646,3.73857 5.73384,5.06804 2.85209,-0.96164 6.02776,-1.32239 9.11101,-1.03593 1.71671,0.15949 3.41801,0.51451 5.14529,0.45938 1.77676,-0.0567 3.47827,-0.54521 5.14526,-1.03035 1.66701,-0.48513 3.36662,-0.9766 5.14291,-1.0415 1.39036,-0.0508 2.77598,0.16242 4.11526,0.45937 1.68483,0.37356 3.31903,0.87938 4.99814,1.26842 2.19852,0.50938 4.47259,0.81842 6.76148,0.92061 0.30657,-1.34203 0.79965,-2.65839 1.46905,-3.91681 1.02988,-1.93611 2.47734,-3.7338 4.26242,-5.29681 -1.91016,-1.23588 -3.55719,-2.7227 -4.85098,-4.37805 -3.49699,-4.47424 -4.26999,-9.98978 -3.52671,-15.20415 0.97106,-6.81232 4.4236,-13.3968 9.84674,-18.77503 z m -240.40382,7.26452 c -1.23078,2.97323 -1.81234,6.11118 -1.71112,9.23594 0.075,2.31571 0.52401,4.62324 1.33139,6.85163 2.796,0.0178 5.59025,0.16841 8.36343,0.44821 3.20696,0.32357 6.38593,0.82181 9.505,1.48973 0.3562,-0.80018 0.87173,-1.55794 1.52127,-2.23552 0.59399,-0.61964 1.30014,-1.17303 2.09085,-1.63851 -3.5442,-2.17684 -7.03207,-4.41148 -10.45665,-6.70285 -3.61786,-2.42069 -7.16666,-4.90474 -10.64417,-7.44863 z m 326.38778,3.67875 c -3.92292,1.20338 -7.54037,3.01488 -10.58246,5.29867 -7.54584,5.66486 -11.09841,13.73601 -15.72772,21.07751 -1.77475,2.81453 -3.78961,5.61102 -6.75911,7.71831 -1.88444,1.33728 -4.11079,2.36186 -6.46719,3.10964 -3.80442,1.2073 -7.95084,1.69845 -12.05388,1.61248 -4.3872,-0.0919 -8.75059,-0.83927 -12.78724,-2.18903 -0.40172,1.47316 -0.45198,3.00414 -0.14714,4.4915 0.40076,1.95549 1.42027,3.83181 2.94049,5.41398 4.79638,-0.21397 9.59934,-0.3296 14.40343,-0.34593 1.9641,-0.007 3.93714,0.003 5.87861,-0.23061 2.64415,-0.31733 5.1709,-1.07663 7.79149,-1.49718 1.54598,-0.24809 3.12632,-0.37601 4.70385,-0.34407 1.74521,0.0353 3.48232,0.26781 5.1429,0.69 0.23109,-2.24885 1.31923,-4.43893 3.08764,-6.21929 1.17948,-1.18744 2.63781,-2.18229 4.01084,-3.23424 1.37305,-1.05196 2.68806,-2.19215 3.48397,-3.56159 1.05818,-1.8207 1.11253,-3.90163 0.87812,-5.89382 -0.23443,-1.99219 -0.73836,-3.96944 -0.73097,-5.97006 0.015,-4.09272 2.17195,-8.00472 4.85098,-11.51796 2.30148,-3.0181 5.01619,-5.84233 8.08339,-8.40831 z m -315.5229,18.25055 c -2.65053,-0.0179 -5.30098,0.13391 -7.91963,0.45567 -9.53754,1.17184 -18.38878,4.53782 -26.8869,8.12748 -6.20265,2.62003 -12.40482,5.41208 -19.24494,6.73818 -6.41453,1.24357 -13.12101,1.14299 -19.65314,1.92492 -6.17732,0.73947 -12.15718,2.26421 -18.28849,3.21008 -1.15119,0.17759 -2.31316,0.33603 -3.42465,0.63049 -1.11148,0.29445 -2.18247,0.73369 -2.99033,1.40045 -0.47804,0.39453 -0.85806,0.86768 -1.06323,1.38743 -0.20517,0.51975 -0.23031,1.08819 -0.0284,1.60876 0.15569,0.40168 0.44365,0.76972 0.81877,1.06941 0.41903,0.33474 0.94189,0.58331 1.50229,0.74765 0.56042,0.16434 1.15873,0.24642 1.75623,0.27153 1.19503,0.0503 2.38285,-0.12393 3.56467,-0.27153 4.05806,-0.50683 8.1761,-0.72185 12.2841,-0.64164 -0.73442,1.71111 -2.20033,3.22394 -4.10577,4.23856 -1.90547,1.01462 -4.24026,1.52528 -6.54076,1.43021 -1.67073,-0.069 -3.29403,-0.44534 -4.95067,-0.62862 -0.82831,-0.0916 -1.66942,-0.13507 -2.50144,-0.0669 -0.832,0.0681 -1.65596,0.25228 -2.37328,0.58957 -0.81771,0.3845 -1.47173,0.95773 -1.97219,1.59388 -0.50045,0.63616 -0.85623,1.33574 -1.16765,2.04208 -0.27779,0.63009 -0.52218,1.27006 -0.68113,1.92495 -0.26366,1.0862 -0.28326,2.22515 0.12102,3.28446 0.4043,1.05932 1.25741,2.03367 2.47058,2.59818 1.11103,0.51699 2.4546,0.66424 3.74267,0.58399 1.28807,-0.0803 2.53672,-0.37512 3.76402,-0.69186 9.81859,-2.53395 12.91518,-6.60576 22.79739,-8.983 2.87527,-0.69166 5.88474,-1.24206 8.87133,-0.96338 1.41358,0.1319 2.81987,0.45731 3.99897,1.08241 1.17907,0.62512 2.11552,1.57097 2.41599,2.66142 0.24924,0.90458 0.0485,1.87084 -0.48414,2.69676 -0.53266,0.82593 -1.38337,1.51273 -2.38041,2.00864 -1.18937,0.59155 -2.57311,0.91492 -3.97049,1.05451 -1.39741,0.13959 -2.81533,0.10148 -4.2197,0.0149 -5.15757,-0.31799 -4.24808,-1.29277 -9.42157,-1.28327 -2.11503,0.004 -4.24873,0.17691 -6.2536,0.70487 -2.00486,0.52794 -3.88289,1.4296 -5.21172,2.71907 -0.86525,0.83964 -1.49172,1.85362 -1.60434,2.92924 -0.0562,0.53781 0.0154,1.08675 0.23733,1.5976 0.22183,0.51085 0.5944,0.98267 1.09409,1.35396 0.93694,0.6962 2.26655,0.99661 3.55754,1.0136 1.29098,0.0171 2.56218,-0.22245 3.81149,-0.47797 5.79527,-1.18529 11.50668,-2.76841 17.46972,-3.20821 8.55028,-0.63062 17.08256,1.12628 25.24934,3.20821 6.2969,1.60525 12.6284,3.43107 19.24492,3.63598 5.47839,0.16967 10.97053,-0.79847 15.96743,-2.56657 7.33458,-2.59526 13.64637,-6.9359 17.88029,-12.29909 -0.10405,3.35144 -1.08633,6.68428 -2.86692,9.73252 -1.96386,3.36195 -4.97316,6.4248 -9.0066,8.34321 -2.24235,1.06652 -4.77089,1.76214 -7.3714,2.03094 -0.87953,2.74855 -2.06799,5.43606 -3.54805,8.02146 -4.15775,7.26284 -10.55795,13.62594 -17.74265,19.25302 -7.12182,5.57782 -15.22652,10.66779 -19.92605,17.6461 -2.13112,3.16449 -3.48757,6.63184 -4.23158,10.16214 -0.4913,2.33123 -0.71865,4.69546 -0.68112,7.05808 2.55456,-2.34141 5.3908,-4.49236 8.46074,-6.41643 4.36359,-2.73487 9.1995,-5.00793 14.33224,-6.73818 -3.5674,3.59822 -7.30202,7.09557 -11.19239,10.48203 -5.52091,4.80575 -11.43218,9.46978 -15.28631,15.18741 -2.77254,4.11308 -4.40401,8.71746 -4.50449,13.36849 -0.0497,2.30105 0.27318,4.60782 0.95645,6.84604 3.67587,-4.76626 7.88319,-9.2811 12.55702,-13.47635 4.61867,-4.14572 9.69254,-7.98052 15.14865,-11.44543 -6.44257,6.34407 -12.20194,13.11413 -17.19678,20.21454 -2.39096,3.39884 -4.61461,6.88862 -6.16341,10.57502 -1.54884,3.68641 -2.41259,7.58916 -2.02679,11.45845 0.36081,3.61869 1.82357,7.1675 4.23156,10.26815 2.15885,-4.8416 4.85665,-9.53642 8.05254,-14.012 5.05911,-7.0848 11.37175,-13.61963 18.69908,-19.35902 -5.72989,6.95082 -10.49852,14.38791 -14.19459,22.13948 -2.7127,5.68919 -4.87047,11.69527 -4.36684,17.75583 0.34603,4.16409 2.00283,8.312 5.18562,11.65745 1.5847,1.6657 3.53119,3.11843 5.73148,4.27762 0.75571,-3.58652 1.85113,-7.12848 3.27512,-10.58804 2.4118,-5.85939 5.77006,-11.47924 9.96541,-16.68458 -2.84182,6.26133 -4.81381,12.7651 -5.86913,19.35902 -0.72624,4.53771 -1.02044,9.12462 -0.68351,13.69024 0.18859,2.5556 0.5825,5.13077 1.7325,7.52675 1.14999,2.39599 3.12125,4.619 5.91184,5.94962 1.84091,0.87777 3.98572,1.33952 6.13967,1.38929 2.48301,0.0574 4.94831,-0.42068 7.2575,-1.13822 2.30921,-0.71754 4.48422,-1.67227 6.66415,-2.60563 4.6788,-2.00322 9.41203,-3.92819 14.1946,-5.77478 -6.75482,4.8942 -14.24753,9.16435 -22.27085,12.69151 -9.26755,4.07413 -19.4077,7.18656 -30.00063,7.84478 -2.45801,0.15274 -4.93059,0.17128 -7.38091,0.38684 -2.45033,0.21558 -4.90513,0.63743 -7.08661,1.53809 -2.49557,1.03034 -4.53629,2.65288 -6.13019,4.47662 -1.59391,1.82374 -2.7671,3.85091 -3.83284,5.89754 -1.19403,2.29297 -2.26994,4.64866 -2.67707,7.10457 -0.50091,3.02145 0.0278,6.09486 0.88523,9.06669 0.85739,2.97184 2.04236,5.88185 2.88353,8.85653 2.5588,9.04888 1.87281,18.43298 2.04578,27.70039 0.12182,6.52677 0.67507,13.06689 0,19.57289 -0.15529,1.49657 -0.37431,2.99208 -0.40821,4.49336 -0.009,0.39221 -0.003,0.79077 0.14953,1.16426 0.0765,0.18674 0.19087,0.36491 0.34887,0.51703 0.15798,0.15212 0.36056,0.27754 0.59331,0.34965 0.22532,0.0698 0.47243,0.0884 0.71436,0.0781 0.24193,-0.0103 0.48039,-0.0474 0.71673,-0.0892 0.47265,-0.0837 0.96401,-0.18142 1.43583,-0.0948 0.3075,0.0564 0.58805,0.18976 0.80929,0.36638 0.22124,0.17662 0.38352,0.39481 0.49364,0.62677 0.22026,0.46391 0.22816,0.97117 0.19699,1.46555 -0.0697,1.10684 -0.32285,2.20858 -0.27293,3.31608 0.0656,1.45415 0.65386,2.86864 1.43584,4.18835 0.78199,1.31972 1.75761,2.56063 2.65807,3.83312 2.35869,3.33315 4.19472,6.87711 6.41498,10.26815 1.54681,2.36246 3.27928,4.64903 5.18562,6.84419 0.99463,-1.57369 1.90759,-3.1783 2.73163,-4.81139 0.78644,-1.55847 1.49849,-3.15728 1.7776,-4.81883 0.27909,-1.66156 0.10124,-3.40445 -0.82353,-4.91555 -0.81971,-1.33941 -2.17666,-2.42771 -3.61214,-3.39792 -1.43545,-0.97019 -2.97576,-1.85169 -4.30274,-2.91249 -2.40024,-1.91877 -4.04202,-4.41261 -4.64216,-7.05808 3.73604,1.37262 7.23618,3.14078 10.37362,5.24101 2.23496,1.49611 4.28709,3.16022 6.11832,4.96204 1.78452,-1.54428 2.53011,-3.78718 1.93423,-5.81755 -0.35908,-1.2235 -1.17297,-2.35267 -2.257,-3.27704 -1.08404,-0.92436 -2.43249,-1.64836 -3.88506,-2.17786 -1.79429,-0.65407 -3.74301,-1.01746 -5.53923,-1.66827 -0.89812,-0.32541 -1.76073,-0.7239 -2.49432,-1.24423 -0.73358,-0.52034 -1.33581,-1.16723 -1.65655,-1.90076 -0.28156,-0.6439 -0.33886,-1.34122 -0.22546,-2.01605 0.11337,-0.67484 0.39379,-1.32867 0.77132,-1.94168 0.97928,-1.59012 2.57482,-2.88425 3.95861,-4.27761 1.65791,-1.66933 3.03406,-3.50944 4.09393,-5.4549 0.39818,-0.73087 0.75586,-1.49488 0.77369,-2.28946 0.009,-0.39728 -0.069,-0.79911 -0.26344,-1.16611 -0.19436,-0.367 -0.50613,-0.69868 -0.91847,-0.92992 -0.39398,-0.22096 -0.86291,-0.34401 -1.3314,-0.44078 -0.46849,-0.0968 -0.94842,-0.16982 -1.40023,-0.30687 -0.79652,-0.24161 -1.4854,-0.67629 -2.01492,-1.20145 -0.52954,-0.52517 -0.90457,-1.13887 -1.15816,-1.77801 -0.50717,-1.27829 -0.53977,-2.63663 -0.6479,-3.97261 -0.54622,-6.74861 -3.0992,-13.29695 -4.23158,-20.00065 -0.90939,-5.38372 -0.89715,-10.85008 -0.27292,-16.25868 0.24627,-2.13379 0.61224,-4.31802 1.91287,-6.20255 1.40345,-2.03356 3.87068,-3.58545 6.68553,-4.27762 3.20886,-0.78905 6.66031,-0.48484 10.02236,-0.41846 7.9765,0.15747 15.88315,-1.07223 23.6901,-2.36385 8.78594,-1.45359 17.56298,-2.99627 26.4763,-3.84985 8.28985,-0.79389 16.70233,-0.99101 24.84113,-2.4587 2.5108,-0.45279 4.99731,-1.02976 7.32395,-1.89704 2.3266,-0.86728 4.49562,-2.03493 6.18714,-3.55786 2.2177,-1.9967 3.53255,-4.52732 4.29326,-7.10643 0.76069,-2.57911 1.00177,-5.23054 1.30293,-7.8671 0.53815,-4.71104 1.30922,-9.49728 3.82098,-13.79811 1.30246,-2.23017 3.05964,-4.29663 5.18563,-6.09655 0.54251,4.7633 0.63379,9.55803 0.27292,14.33189 -0.42475,5.61907 -1.47481,11.20854 -3.13747,16.68458 4.34137,-0.18365 8.6702,-0.54064 12.96522,-1.06941 17.13702,-2.10977 33.50688,-6.91483 50.0881,-10.90979 9.56069,-2.30347 19.23809,-4.3453 29.07267,-5.77478 6.54455,-0.95126 13.15208,-1.63057 19.78843,-2.0328 -1.33845,-3.9462 -2.93404,-7.8383 -4.77742,-11.65745 -2.9983,-6.21196 -6.65299,-12.22825 -10.91708,-17.96786 5.4577,1.50962 10.37301,4.20157 14.05693,7.69972 3.69624,3.50984 6.10918,7.74177 8.01456,12.04056 1.90539,4.29879 3.34818,8.71869 5.36125,12.98723 5.51433,11.69277 15.2324,21.99853 26.8869,30.48269 7.64995,5.56895 16.21378,10.45871 22.65534,16.89846 4.3958,4.39456 7.73457,9.5001 9.14424,14.97353 1.30467,5.06559 0.94086,10.3122 0.002,15.42733 -0.93856,5.11512 -2.44159,10.15785 -3.41277,15.26924 -1.48075,7.79327 -1.69171,15.88285 1.22696,23.42276 0.40022,1.03387 0.86165,2.06553 0.98967,3.14126 0.0641,0.53786 0.0417,1.08395 -0.11156,1.61061 -0.1533,0.52667 -0.44153,1.03449 -0.87813,1.45254 -0.4804,0.45999 -1.11968,0.79772 -1.68501,1.19401 -0.28265,0.19815 -0.54944,0.41216 -0.76183,0.65838 -0.21241,0.24622 -0.37023,0.52556 -0.42007,0.82019 -0.0602,0.35655 0.0404,0.72405 0.23733,1.04895 0.19688,0.32488 0.48641,0.61105 0.81166,0.86482 0.65051,0.50752 1.44323,0.89253 2.09085,1.40231 0.84899,0.66828 1.42775,1.54384 1.64233,2.47172 0.21457,0.92789 0.0663,1.90432 -0.41297,2.76929 -0.72388,1.30649 -2.13604,2.29579 -3.57177,3.16917 -1.43574,0.87338 -2.96183,1.69208 -4.07255,2.81951 -1.49634,1.51884 -2.10229,3.46665 -2.33532,5.37678 -0.23305,1.91012 -0.13141,3.83911 -0.39396,5.74689 -0.45443,3.30186 -2.02371,6.5062 -4.50448,9.19873 1.75708,0.24771 3.5386,0.3908 5.32326,0.42777 1.11876,0.0231 2.24816,0.004 3.3392,-0.19156 1.09105,-0.19534 2.14857,-0.57804 2.93814,-1.1996 0.67365,-0.5303 1.1304,-1.2168 1.3765,-1.9398 0.2461,-0.72298 0.28958,-1.48219 0.21358,-2.22809 -0.15194,-1.49179 -0.7739,-2.92496 -1.17951,-4.38735 -1.25623,-4.5292 -0.36794,-9.40397 2.45635,-13.47635 0.71359,2.25614 1.626,4.47266 2.72928,6.63031 0.99516,1.9462 2.16264,3.89755 2.32105,5.99052 0.15713,2.07562 -0.74147,4.18815 -2.45634,5.77478 2.50096,0.49396 5.24351,0.18387 7.46398,-0.84436 2.22046,-1.02823 3.89053,-2.76149 4.54482,-4.71654 0.68945,-2.06006 0.27322,-4.24872 -0.4082,-6.31042 -1.17478,-3.55428 -3.13577,-7.02434 -3.13985,-10.6959 -8.4e-4,-0.75262 0.0859,-1.51886 0.43906,-2.21879 0.35299,-0.69993 1.0009,-1.33161 1.88199,-1.63107 0.56029,-0.19043 1.18971,-0.23943 1.79658,-0.18599 0.6069,0.0534 1.19319,0.20592 1.75149,0.39987 1.43509,0.49853 2.68611,1.27283 4.09391,1.81705 0.5166,0.19971 1.06232,0.36944 1.63518,0.41661 0.57289,0.0471 1.18158,-0.0378 1.64232,-0.30874 0.32807,-0.19291 0.56575,-0.47186 0.70011,-0.77554 0.13436,-0.3037 0.16646,-0.63239 0.1258,-0.95224 -0.0812,-0.63969 -0.44379,-1.23333 -0.82591,-1.80218 -1.65162,-2.45871 -3.74269,-4.73656 -5.188,-7.27381 -3.35207,-5.8847 -2.96681,-12.6053 -2.45634,-19.03727 0.54312,-6.8433 1.15832,-13.68322 1.50228,-20.53443 0.29674,-5.91039 0.43589,-11.99783 3.41042,-17.4341 1.6966,-3.10072 4.28692,-5.9242 5.32325,-9.19874 0.30952,-0.97796 0.47435,-1.99919 0.27293,-2.99433 -0.29856,-1.47502 -1.36498,-2.77075 -2.31869,-4.06374 -5.34436,-7.24562 -7.66594,-15.63156 -8.73605,-23.95839 -0.62537,-4.86628 -0.84956,-9.76854 -0.54585,-14.65364 0.60252,-9.69138 3.27207,-19.22515 6.14206,-28.66377 1.34644,-4.42812 2.7504,-8.93672 2.32106,-13.47637 -0.318,-3.36229 -1.6323,-6.61066 -2.86692,-9.84038 -2.07989,-5.44092 -3.97989,-10.96769 -7.23377,-16.04293 -1.86225,-2.90465 -4.15656,-5.63753 -6.82317,-8.12748 4.99719,1.13124 9.53328,3.47584 12.82758,6.63031 2.96389,2.83807 4.88393,6.24116 6.78284,9.59303 1.89891,3.35186 3.851,6.74723 6.86589,9.55211 3.13483,2.91644 7.41188,5.11051 12.14645,5.99053 3.03035,0.56325 6.20467,0.58983 9.28192,0.21388 2.9405,-0.35924 5.80664,-1.08564 8.46074,-2.14068 -2.20689,-1.124 -4.30643,-2.37494 -6.27733,-3.74198 -11.06532,-7.67496 -17.51471,-18.50357 -25.52226,-28.23601 -5.96001,-7.24384 -13.29814,-14.23801 -23.33885,-17.75584 -6.72135,-2.35487 -14.20649,-2.98819 -21.56362,-3.20821 -24.6768,-0.73798 -49.28048,2.83895 -73.97279,2.56657 -11.12941,-0.12277 -22.21722,-1.02604 -33.30187,-1.81706 -16.15471,-1.15283 -32.37737,-2.06764 -48.58818,-1.60504 -6.20213,0.17699 -12.61507,0.53047 -18.42615,-1.17728 -2.8568,-0.83954 -5.51009,-2.18953 -7.40464,-4.06374 -2.2822,-2.25771 -3.34721,-5.151 -3.65011,-8.02146 -0.51289,-4.86077 1.00351,-9.69378 1.63758,-14.54576 0.92854,-7.10546 -0.0376,-14.26704 -0.68114,-21.39183 -0.6045,-6.69166 -0.92426,-13.3983 -0.95644,-20.10666 -6.02014,0.70463 -12.3118,-0.0925 -17.74264,-2.24669 -7.40007,-2.93535 -13.02129,-8.32284 -15.83216,-14.4379 -1.36997,-2.9804 -2.11063,-6.13739 -2.18341,-9.30474 3.77475,3.8248 7.73618,7.5347 11.87353,11.12181 2.40437,2.08459 4.88698,4.14169 7.78435,5.7971 2.89738,1.65542 6.25576,2.90322 9.82301,3.18775 5.11446,0.40795 10.10032,-1.16382 15.14865,-1.92492 2.47131,-0.37259 4.99016,-0.55287 7.5067,-0.53563 -2.89747,-2.17126 -5.50907,-4.57674 -7.77963,-7.16595 -4.57716,-5.21949 -7.81948,-11.22505 -13.51109,-15.72118 -1.62963,-1.28736 -3.46055,-2.4435 -5.54635,-3.22867 -2.0858,-0.78517 -4.44459,-1.18556 -6.73774,-0.94294 -2.98691,0.31603 -5.59936,1.66706 -8.32547,2.67445 -1.9874,0.7344 -4.09457,1.2996 -6.27733,1.49716 -1.23763,0.11202 -2.50228,0.10368 -3.71418,-0.12275 -1.2119,-0.22643 -2.37166,-0.67942 -3.24665,-1.37441 -0.7505,-0.5961 -1.27208,-1.35233 -1.6257,-2.14253 -0.35364,-0.79022 -0.54541,-1.61767 -0.70487,-2.44569 -0.31894,-1.65603 -0.5359,-3.38483 -1.62807,-4.82441 -0.77613,-1.02303 -1.94023,-1.8234 -3.09713,-2.59447 -1.15691,-0.77107 -2.34307,-1.54748 -3.1802,-2.54054 -1.1533,-1.36815 -1.55573,-3.07249 -1.36462,-4.70536 0.18346,-1.56748 0.89749,-3.09533 2.04813,-4.38549 -2.61119,-0.35708 -5.26198,-0.54377 -7.91251,-0.56168 z m -12.4787,7.56767 c 0.50404,0.008 1.00537,0.0252 1.50465,0.0521 3.09877,0.16652 6.20926,0.65261 8.98761,1.7408 2.77838,1.0882 5.21286,2.81847 6.50278,5.03272 0.94657,1.62489 1.24682,3.43221 1.38837,5.21497 0.14155,1.78277 0.13673,3.58063 0.51975,5.34145 0.73634,3.38505 2.9439,6.56123 6.17289,8.88257 -2.94344,-0.12697 -5.80716,-1.15262 -7.85555,-2.81394 -1.81236,-1.46988 -2.97814,-3.42072 -3.25614,-5.45303 -1.72107,1.79385 -4.07794,3.20838 -6.73536,4.04515 -2.41023,0.75893 -5.06262,1.04197 -7.64196,0.80158 -2.57934,-0.24038 -5.07989,-1.00562 -7.17444,-2.20948 -1.92605,-1.10701 -3.52951,-2.61575 -4.26477,-4.39666 -0.59709,-1.4462 -0.59709,-3.0397 0,-4.48591 -3.2551,1.66248 -7.11532,2.58689 -11.00016,2.63725 -3.75705,0.0487 -7.52518,-0.71976 -10.77469,-2.19834 4.88971,0.92032 10.30655,-0.0907 14.14238,-2.6391 1.73134,-1.15023 3.12916,-2.57123 4.56856,-3.94656 1.43938,-1.37534 2.95989,-2.7324 4.86048,-3.7048 2.9333,-1.50077 6.52724,-1.95474 10.0556,-1.90075 z m 329.85039,13.9097 c -1.65181,1.62952 -3.11418,3.37712 -4.36446,5.21312 -0.68606,1.00747 -1.30989,2.04137 -1.87252,3.09477 -0.37265,0.69773 -0.7195,1.40475 -1.03951,2.11835 2.58302,1.31045 5.38783,2.35375 8.31598,3.09476 6.40336,1.62045 13.33649,1.76784 19.95456,0.8146 2.2693,-0.32684 4.51637,-0.7817 6.65231,-1.46553 2.48522,-0.79567 4.8087,-1.9001 6.85877,-3.25844 -3.1909,-0.11352 -6.37926,-0.27689 -9.56193,-0.48914 -5.035,-0.33575 -10.151,-0.81527 -14.75707,-2.44383 -4.08563,-1.44455 -7.65104,-3.78193 -10.18613,-6.67866 z m -280.07322,3.8573 c 1.47603,0.0149 2.95097,0.17834 4.37158,0.49286 3.9486,0.87421 7.38666,2.86664 10.10069,5.27821 3.58701,3.18728 6.02572,7.16073 6.96082,11.34685 -2.48201,-3.11866 -5.51366,-5.96811 -8.98048,-8.44365 -3.19964,-2.28475 -6.76603,-4.24871 -10.55162,-5.89382 -2.03532,-0.88448 -4.13383,-1.67788 -6.28443,-2.37501 1.43041,-0.28586 2.90742,-0.42027 4.38344,-0.40544 z m 19.41106,187.93815 c 1.34324,1.94117 2.25853,4.0636 2.69367,6.24532 0.97457,4.88615 -0.61237,10.1396 -4.71333,13.89854 -3.25725,2.9856 -7.91504,4.91507 -12.79673,5.80641 -6.50091,1.18698 -13.50892,0.5865 -19.52974,-1.67199 4.00418,-0.83555 7.94269,-1.86374 11.78572,-3.07803 3.88807,-1.22852 7.73375,-2.67583 10.88862,-4.83929 3.35091,-2.2979 5.78176,-5.31132 7.74402,-8.44365 1.59412,-2.54471 2.90923,-5.1972 3.92777,-7.91731 z m 127.06307,8.2465 c -2.06058,0 -4.11997,0.0593 -6.17527,0.17483 -3.57192,0.20076 -7.20027,0.59225 -10.42345,1.8152 -1.09472,0.41536 -2.13149,0.92292 -3.08763,1.51204 2.92942,6.15003 6.97037,11.97314 11.96607,17.24253 7.1016,7.49066 16.10329,13.85688 22.38952,21.78238 2.90118,3.65772 5.19423,7.62576 6.56213,11.79693 1.09882,3.35072 1.59638,6.84237 1.15815,10.28488 -0.88374,6.94279 -5.44625,13.2102 -9.64975,19.36088 -7.36197,10.77226 -13.99028,22.09065 -16.21425,34.18562 -0.25048,1.36229 -0.44374,2.73202 -0.77131,4.08421 -0.17305,0.71432 -0.38477,1.43297 -0.34176,2.15927 0.0216,0.36314 0.10887,0.72526 0.28955,1.0601 0.18064,0.33484 0.4569,0.64021 0.82352,0.86296 0.35615,0.21641 0.7842,0.34855 1.21511,0.45194 0.43094,0.1034 0.8735,0.18176 1.29583,0.30501 0.79083,0.23082 1.49504,0.61531 2.1217,1.05825 1.52245,1.07611 2.6166,2.52092 3.09001,4.0842 -1.88494,-0.45323 -3.8284,-0.75784 -5.7908,-0.90761 -1.53394,-0.11706 -3.08984,-0.13875 -4.61128,0.0539 -1.52145,0.19275 -3.01166,0.60697 -4.26715,1.30747 -1.7605,0.98225 -2.96238,2.46514 -3.89456,3.99306 -0.93216,1.52792 -1.64283,3.13906 -2.66995,4.62913 -1.63555,2.37274 -4.02171,4.36556 -6.40074,6.31414 -2.37902,1.94858 -4.80344,3.9075 -6.53127,6.23974 -0.60767,0.82025 -1.12343,1.68241 -1.54262,2.57215 2.64863,0.66278 5.36155,1.16833 8.10713,1.51206 1.25235,0.15678 2.52086,0.28064 3.78537,0.20457 1.26451,-0.0761 2.53404,-0.36462 3.54806,-0.96153 0.84331,-0.49645 1.47658,-1.18571 1.95321,-1.92307 0.47663,-0.73736 0.80589,-1.52632 1.13443,-2.31177 2.17363,-5.19675 4.36311,-10.39027 6.56449,-15.57984 0.75536,2.52621 1.14236,5.11998 1.15578,7.71459 0.0159,3.08483 -0.50867,6.19909 -1.92947,9.076 -0.65567,1.32762 -1.49822,2.59794 -2.50856,3.78105 2.34194,0.64877 4.85705,0.9089 7.33345,0.75695 1.65237,-0.10139 3.30008,-0.38774 4.79164,-0.9541 1.49158,-0.56637 2.82453,-1.42391 3.70231,-2.52566 0.80776,-1.01383 1.20839,-2.19667 1.4121,-3.38117 0.20375,-1.18452 0.22123,-2.38402 0.32515,-3.57647 0.2958,-3.39375 1.33027,-6.81359 3.66672,-9.68044 0.66721,-0.81867 1.44165,-1.59105 2.37327,-2.2318 0.93166,-0.64075 2.02773,-1.14792 3.2253,-1.3986 1.88731,-0.39504 3.98668,-0.11054 5.5962,0.75696 -1.53545,-2.51785 -2.51933,-5.24277 -2.89539,-8.01775 -0.66024,-4.87181 0.54619,-9.77913 2.12407,-14.51972 2.30825,-6.93487 5.42287,-13.69639 9.07069,-20.26849 3.47059,-6.25282 7.46668,-12.39239 12.93199,-17.69819 2.06033,-2.0002 4.32265,-3.8731 6.75674,-5.59623 -2.46816,-3.16535 -4.9143,-6.34055 -7.33582,-9.52794 -3.13393,-4.12515 -6.26822,-8.34547 -7.72027,-13.00954 -1.05873,-3.40065 -1.18859,-6.93948 -0.96594,-10.43553 0.15484,-2.43136 0.47802,-4.85662 0.96594,-7.26079 -3.76347,-1.99728 -7.37403,-4.17021 -10.80793,-6.50385 -6.78058,-4.608 -12.98318,-9.98578 -16.40648,-16.48743 -1.05036,-1.99485 -1.8284,-4.07684 -2.31634,-6.20069 -2.05529,-0.11552 -4.11706,-0.17483 -6.17764,-0.17483 z m -106.80237,16.58973 c -2.31958,0.13274 -4.59296,0.72658 -6.55026,1.71104 -2.02272,1.01736 -3.67522,2.42278 -5.25207,3.84428 -1.57684,1.42149 -3.11549,2.88636 -4.98389,4.07118 -3.89141,2.46769 -8.94354,3.54501 -13.92167,3.95773 -4.12912,0.34232 -8.31341,0.27028 -12.41937,-0.21389 0.1301,7.33542 1.22929,14.65893 3.27513,21.81772 1.43243,5.01238 3.34134,10.07332 2.72928,15.18742 -0.38368,3.20563 -1.74649,6.28064 -2.95949,9.35682 -1.21302,3.07618 -2.29312,6.25271 -2.08848,9.46842 0.18533,2.91278 1.41798,5.71545 2.72689,8.44551 1.30893,2.73007 2.7156,5.46212 3.2775,8.34509 0.84603,4.34084 -0.27097,8.77683 0.13527,13.15646 0.42991,4.63477 2.55122,9.07824 3.27751,13.69025 0.83139,5.27945 -0.21228,10.71931 -2.86693,15.61516 -0.31069,0.57302 -0.6466,1.15209 -0.71435,1.77243 -0.0339,0.31016 0.002,0.62866 0.14003,0.92062 0.13786,0.29195 0.37926,0.55615 0.7096,0.72905 0.24385,0.12763 0.5294,0.20218 0.81641,0.24922 0.28703,0.047 0.57998,0.0685 0.87099,0.0967 0.29103,0.0282 0.58263,0.0648 0.85913,0.14135 0.27648,0.0766 0.53876,0.19471 0.73098,0.36825 0.25945,0.23423 0.37246,0.5552 0.34887,0.86482 -0.0236,0.30961 -0.17774,0.60811 -0.39634,0.86668 -0.43722,0.51713 -1.1131,0.87381 -1.72775,1.26469 -1.97121,1.25363 -3.40667,2.96973 -4.36683,4.81139 -1.13969,2.18598 -1.6545,4.57761 -3.13987,6.63217 -1.24609,1.7236 -3.10603,3.11315 -4.77741,4.59937 -1.39697,1.24223 -2.67501,2.56477 -3.82097,3.95587 3.09704,0.86942 6.56305,0.90859 9.6901,0.10787 2.52411,-0.64633 4.84632,-1.85091 6.41498,-3.52996 2.00667,-2.14788 2.65336,-4.86882 3.27512,-7.48584 0.4834,-2.03469 0.98485,-4.067 1.50229,-6.09653 2.41802,2.98565 3.40595,6.66404 2.72927,10.16027 -0.56048,2.89586 -2.24723,5.65179 -4.77741,7.80759 1.14926,0.83287 2.57054,1.43399 4.08917,1.73151 1.51865,0.29752 3.13268,0.29062 4.64688,-0.0205 1.23143,-0.25297 2.39804,-0.70672 3.37481,-1.34652 0.97674,-0.63979 1.76052,-1.46737 2.22139,-2.39732 0.48281,-0.97424 0.60594,-2.0422 0.49363,-3.08361 -0.11228,-1.04141 -0.45474,-2.05968 -0.88047,-3.05013 -0.85147,-1.98088 -2.04536,-3.88916 -2.48009,-5.95147 -0.38992,-1.84967 -0.14377,-3.77492 0.67403,-5.53673 0.81776,-1.7618 2.20155,-3.35733 3.96574,-4.62355 1.07573,-0.77209 2.28518,-1.42102 3.41277,-2.14624 1.12761,-0.72522 2.19076,-1.54711 2.86456,-2.561 0.74678,-1.1237 0.97107,-2.43421 0.79504,-3.69363 -0.17605,-1.25941 -0.73628,-2.47229 -1.47618,-3.59878 -1.47978,-2.25299 -3.66408,-4.17275 -5.32326,-6.34762 -3.864,-5.065 -4.65635,-11.16815 -5.18563,-17.05468 -0.58788,-6.53854 -0.95242,-13.19068 0.95407,-19.5729 0.99655,-3.33611 2.60616,-6.56072 3.27749,-9.94639 1.30987,-6.60594 -1.01835,-13.27233 -2.18579,-19.89465 -0.41866,-2.37484 -0.68819,-4.79074 -0.27292,-7.16595 0.78518,-4.49109 3.92915,-8.47293 6.55262,-12.51296 2.65782,-4.09295 4.83676,-8.37143 6.68791,-12.72871 2.11034,-4.96736 3.79673,-10.04463 5.04797,-15.18741 z m -24.07456,44.50026 c -0.40099,2.91043 -0.12644,5.87649 0.80454,8.71147 0.90347,2.75122 2.43104,5.45287 2.27597,8.29114 -0.15434,2.82447 -2.10191,5.55485 -5.09068,7.13804 1.42367,-2.70376 1.84706,-5.72592 1.20563,-8.60731 -0.54408,-2.44401 -1.83057,-4.77339 -2.14308,-7.2422 -0.36985,-2.92162 0.704,-5.93986 2.94762,-8.29114 z"
       id="path12763-8"
       sodipodi:nodetypes="cssscsccccsscsscssscscsccccsscsscssssssssssccsssccsscsscsssscccccscssccccccssscssscsscssssssscssscssssscsssscsssssscssssssssscsccsssssssscccsscsscscsssssscscssccscscscsccssssscccccsccsssscsccsssssscsccscscscccsccccscsssccscsscssccscssssscsscsssscscssscscssscscssscscsssscsscssssssscsssccccsccscccssscccssscscsssscccsssccccssssssssssssssssscscssscscsssssscscccscccccsccsscscccsscscsccsscscscssccccssssscsssssssscssssscsssssssssssccsscsssscssssssssccsssscccccsssscscsssscscssscccsccssscssccsscsscccssscsssccsscssscssscccscscscssssscsccscccscsscccscscsssscssscssccccsssscssscsssscccscscccccssscssscscscsscsscssscssssssssscccsscssc" />
    <path
       inkscape:connector-curvature="0"
       style="opacity:1;fill:#ffffff;fill-opacity:1;fill-rule:nonzero;stroke:none;stroke-width:1;stroke-linecap:round;stroke-linejoin:round;stroke-miterlimit:4;stroke-dasharray:none;stroke-dashoffset:0;stroke-opacity:1"
       d="m 227.51254,337.18308 c -2.22141,0.83685 -4.01954,2.34225 -4.9388,4.13442 -0.45135,0.87992 -0.69661,1.83115 -0.64315,2.77858 0.0534,0.94743 0.41224,1.88968 1.0917,2.67445 1.0528,1.21595 2.79722,1.97584 4.60179,2.37501 1.70852,0.37791 3.51986,0.46872 5.27581,0.26409 -1.29019,-0.62692 -2.43666,-1.43535 -3.36769,-2.37501 -1.09807,-1.10825 -1.89544,-2.40645 -2.24275,-3.78291 -0.22594,-0.89545 -0.26157,-1.81415 -0.22547,-2.72651 0.0443,-1.12081 0.19418,-2.23863 0.44856,-3.34212 z m 7.40939,1.23121 a 2.2448969,2.8374611 0 0 0 -2.24513,2.83811 2.2448969,2.8374611 0 0 0 2.24513,2.83624 2.2448969,2.8374611 0 0 0 2.24273,-2.83624 2.2448969,2.8374611 0 0 0 -2.24273,-2.83811 z"
       id="path12992" />
  </g>
</svg>
