<?xml version="1.0" encoding="UTF-8" standalone="no"?>
<!-- Created with Inkscape (http://www.inkscape.org/) -->

<svg
   xmlns:dc="http://purl.org/dc/elements/1.1/"
   xmlns:cc="http://creativecommons.org/ns#"
   xmlns:rdf="http://www.w3.org/1999/02/22-rdf-syntax-ns#"
   xmlns:svg="http://www.w3.org/2000/svg"
   xmlns="http://www.w3.org/2000/svg"
   xmlns:xlink="http://www.w3.org/1999/xlink"
   xmlns:sodipodi="http://sodipodi.sourceforge.net/DTD/sodipodi-0.dtd"
   xmlns:inkscape="http://www.inkscape.org/namespaces/inkscape"
   width="945"
   height="1126.875"
   id="svg2"
   version="1.1"
   inkscape:version="0.48.4 r9939"
   sodipodi:docname="wappen nossen_v1.svg">
  <defs
     id="defs4" />
  <sodipodi:namedview
     id="base"
     pagecolor="#ffffff"
     bordercolor="#666666"
     borderopacity="1.0"
     inkscape:pageopacity="0.0"
     inkscape:pageshadow="2"
     inkscape:zoom="0.28583476"
     inkscape:cx="-3.6796942"
     inkscape:cy="474.51759"
     inkscape:document-units="px"
     inkscape:current-layer="layer2"
     showgrid="false"
     inkscape:window-width="1400"
     inkscape:window-height="966"
     inkscape:window-x="-8"
     inkscape:window-y="-8"
     inkscape:window-maximized="1"
     inkscape:object-paths="true"
     inkscape:object-nodes="true"
     inkscape:snap-intersection-paths="true"
     inkscape:snap-smooth-nodes="true"
     inkscape:snap-midpoints="true"
     inkscape:snap-object-midpoints="true"
     inkscape:snap-center="true"
     inkscape:snap-global="false"
     showguides="true"
     inkscape:guide-bbox="true"
     fit-margin-top="0"
     fit-margin-left="0"
     fit-margin-right="0"
     fit-margin-bottom="0">
    <sodipodi:guide
       orientation="0,1"
       position="17.06795,472.3499"
       id="guide4417" />
  </sodipodi:namedview>
  <metadata
     id="metadata7">
    <rdf:RDF>
      <cc:Work
         rdf:about="">
        <dc:format>image/svg+xml</dc:format>
        <dc:type
           rdf:resource="http://purl.org/dc/dcmitype/StillImage" />
        <dc:title></dc:title>
      </cc:Work>
    </rdf:RDF>
  </metadata>
  <g
     inkscape:groupmode="layer"
     id="layer2"
     inkscape:label="Vec"
     transform="translate(178.21875,136.78125)">
    <path
       style="fill:#ffffff;stroke:#000000;stroke-width:18;stroke-miterlimit:4;stroke-opacity:1"
       d="m -169.21875,-127.78125 0,645.34375 c 0,0.0104 0,0.0208 0,0.0312 0,255.98398 207.516019,463.5 463.5,463.5 255.98398,0 463.5,-207.51602 463.5,-463.5 0,-0.0104 0,-0.0208 0,-0.0312 l 0,-645.34375 -927,0 z"
       id="rect4413"
       inkscape:connector-curvature="0" />
    <g
       id="g4406">
      <g
         id="g4398">
        <path
           style="fill:#ff0000;fill-opacity:1;fill-rule:nonzero;stroke:none"
           d="M 75.6875,-71.25 C 52.733247,-50.259802 35.410917,-19.816368 39.125,12.21875 41.361289,32.519311 51.452152,52.471423 68,64.53125 70.216126,70.319522 69.370759,77.380542 67.5,82.875 59.282961,85.220916 49.811946,83.986453 42.375,80.5625 34.025352,63.464006 13.036402,57.118006 -4.90625,59.4375 -26.211436,61.718623 -46.108701,72.427817 -61.25,87.375 c 18.961453,21.00436 48.725767,35.19578 77.21875,27.5625 C 27.504793,112.04406 37.944523,104.85093 45.25,95.75 c 6.889007,-1.562071 14.931519,-1.187599 20.84375,2.6875 2.212611,14.165 2.590338,28.84331 0.46875,43.0625 -3.007578,4.29819 -6.961786,9.63675 -3.9375,14.9375 4.767127,9.76686 2.141282,21.16222 2.898376,31.71872 -0.613034,23.05356 -0.168283,46.45296 -4.210876,69.15628 0.08777,2.14056 -2.192698,4.63292 -3.78125,1.9375 C 40.794955,246.54998 20.010243,239.83266 -0.4375,236.9375 -2.4937899,228.3634 -5.969876,219.71062 -11,212.625 c 1.4373015,-21.73878 -14.345855,-40.05688 -30.75,-52.15625 -10.481562,-7.51453 -22.123166,-13.55633 -34.78125,-16.03125 -5.085913,24.14413 5.6563,49.93886 25.485159,64.13436 8.832523,6.89977 19.3785,11.06181 29.827341,14.64689 3.89333,3.05504 9.255817,8.59363 7,13.875 -4.350362,3.60428 -10.702736,-0.0617 -14.53125,-2.84375 -18.250039,-9.62583 -40.089674,-2.32354 -56.478941,7.64537 -19.593469,12.34147 -37.434969,30.86791 -42.396059,54.22963 -3.18453,7.6382 5.93224,1.10465 9.71875,0.75 10.73727,-3.87586 22.209901,-4.6369 33.5,-4.59375 C -62.937697,287.91482 -44.142153,273.758 -31.25,256.5 c 2.446932,-2.50427 2.627376,-7.49879 7.125,-7.09375 8.467607,-2.1692 17.2655862,2.07856 24.15625,6.0625 -4.2732449,3.44963 -9.6879711,7.41948 -15.46875,8.5 -6.499789,1.36055 -10.94682,7.97702 -15.5625,12.59375 -18.05907,22.06829 -29.214872,50.84381 -27.09375,79.65625 0.85691,7.55246 2.989637,14.99886 7.53125,21.1875 C -25.044401,358.484 -0.8689761,333.07269 4.375,300.5625 6.3214705,290.27562 5.0290429,279.607 3.4375,269.5 c 0.6251842,-5.68934 6.612516,-7.77862 11.4375,-8.25 17.594511,-6.014 37.612032,3.5112 47.5625,18.40625 0.696405,26.1569 0.508392,52.68823 -3.1875,78.53125 -3.50666,11.28979 -15.510552,16.80254 -26.100924,19.48426 -11.297614,4.37137 -23.4184716,5.55183 -35.399076,6.04699 -8.431013,1.77673 -15.592933,8.28908 -20.4375,14.9375 -2.876117,11.42256 -14.480319,16.3859 -22.40625,23.75 -3.591509,3.51808 0.841376,8.88023 5.25,7.4375 7.388031,-1.20541 13.222512,-6.51466 19.8125,-9.71875 10.015191,-7.39006 15.4294432,-21.04445 27.875,-24.96875 17.540242,2.55748 34.604364,-4.10947 51.3125,-7.71875 4.888394,6.06478 -0.202274,14.05308 -6.13387,17.03915 -15.553451,9.98798 -35.014975,12.93425 -48.80363,25.83585 -3.52507698,3.16701 -10.7966767,6.59562 -7.90625,12.375 3.5783552,4.19873 9.350877,0.58956 12.21875,-2.625 15.147268,-9.93543 32.004038,-17.48773 48.96875,-23.21875 1.455999,2.03941 -3.922188,4.14827 -4.297468,6.20486 -5.460117,7.30772 -12.850821,14.45664 -13.952532,23.92014 0.915393,4.64408 7.34464,1.06713 9.3125,-1.65625 3.704268,-4.61469 7.285942,-10.40025 13.8125,-10.53125 15.790583,-3.47768 32.041309,1.89149 46.28125,8.4375 7.45061,3.92366 17.18329,10.05961 25.65625,5.53125 2.28385,-4.88331 -1.99437,-10.69309 -5.9375,-13.5 -7.55159,-5.34096 -17.90075,-3.29662 -25.65625,-8.5625 -4.249921,-2.40129 -8.906292,-5.13193 -12.1875,-8.46875 -2.093227,-7.97941 -3.075872,-17.5666 0.5,-24.90625 22.37293,1.30004 42.61704,13.94888 65.25,14.09375 8.38001,0.0162 12.32475,8.43593 16.25,14.46875 3.42134,3.5617 13.39686,3.15658 12.28125,-3.53125 -1.40699,-7.66417 -10.78856,-9.46515 -15.25,-15.15625 -4.87357,-5.78158 -11.25138,-10.43517 -19.00217,-10.89565 -18.49822,-5.50956 -40.1375,-2.97301 -55.65408,-16.22935 -8.800127,-7.11561 -8.676836,-19.13234 -8.603626,-29.43619 -0.639558,-22.35734 -1.925336,-44.93489 0.103626,-67.18881 11.410802,-14.98507 28.10439,-24.78505 45.3125,-31.71875 5.25978,-0.81582 10.60078,4.34171 8.15625,9.46875 -13.23815,30.13764 -7.44911,65.81253 9.1875,93.40625 6.50297,10.97417 14.10713,21.57212 24.4375,29.28125 17.56417,-41.56386 8.76807,-94.0605 -23.625,-125.9375 1.0074,-4.00262 6.49268,-6.94145 10.6875,-6.84375 4.03944,2.12324 10.3322,2.49458 11.90625,7.34375 12.43161,17.57403 31.65229,29.519 51.625,36.90625 6.0205,1.76832 12.61901,4.6185 18.50424,0.81991 14.97971,-6.10881 31.56695,-3.8647 46.74576,0.30509 -3.20893,-24.76148 -25.12654,-42.15886 -46.8125,-51.34375 -17.52755,-6.98267 -39.2105,-11.03682 -56.15625,-0.71875 -7.25868,2.33683 -18.2551,1.75014 -21.375,-6.375 4.27839,-8.65032 14.70931,-9.677 22,-14.5625 23.47224,-15.97434 35.32354,-45.92617 33.264,-73.87182 0.1084,-4.06523 -0.74977,-7.3398 -5.264,-4.90943 -23.75739,6.46236 -45.71908,24.07147 -53.625,47.875 -2.85742,8.5728 -2.13758,18.01624 -0.40625,26.53125 -5.27937,5.10397 -11.34661,10.57913 -13.625,17.5 -20.58423,2.1225 -40.40323,10.3922 -56.59375,22.90625 -3.25098,-2.3196 -2.477978,-8.04948 -3.4375,-11.6875 -2.456118,-26.53016 -3.521781,-53.33178 -2,-79.9375 1.293805,-5.0695 5.487211,-10.76106 1.375,-15.75 -5.227609,-5.39005 -3.563953,-13.30435 -4.40625,-20.125 0.02457,-9.16446 -0.07682,-18.90983 2.25,-27.59375 5.80917,-2.794379 12.813841,-2.207035 18.6875,-0.28125 15.45576,19.39874 43.62378,22.96171 66.53531,17.26838 18.13567,-4.31896 34.53073,-14.63355 47.18344,-28.17463 -22.56425,-21.906078 -57.80192,-32.171029 -88,-21.40625 -8.97699,3.2033 -16.77929,9.695583 -21.65625,17.625 -8.092716,2.741287 -17.984069,3.572627 -25.84375,0.25 -0.78089,-6.47956 -1.941928,-13.843646 1.125,-19.78125 24.06746,-18.203178 31.85327,-51.901531 25.90625,-80.5 -4.38677,-21.934804 -16.282766,-41.669522 -31.28125,-58.09375 -0.5,0.479167 -1,0.958333 -1.5,1.4375 z M 33.25,134.84375 c -10.161372,1.45281 -18.669881,8.7033 -25.3125,16.125 -6.2707104,6.91977 -9.0588782,19.70624 -0.53125,25.96875 10.250089,6.69334 23.239273,0.40462 31.65625,-6.375 C 46.649766,164.64366 55.63232,155.55591 52.875,145 50.00752,137.66126 40.479844,134.83089 33.25,134.84375 z m 78.3125,4.40625 c -6.71801,0.17403 -13.167043,2.77334 -16.40625,8.9375 -4.915854,7.63675 3.236756,15.11405 7.84375,20.46875 8.66602,9.11345 20.83755,18.50307 34.1875,15.1875 10.17031,-2.59509 13.39755,-15.48296 8.34375,-23.9375 -5.801,-10.50554 -16.92648,-18.22626 -28.59375,-20.53125 -1.78176,-0.20968 -3.58511,-0.24811 -5.375,-0.125 z"
           id="path4370"
           inkscape:connector-curvature="0" />
        <path
           inkscape:connector-curvature="0"
           id="path4341"
           d="m 77.024083,-76.346331 c -0.587846,0.04337 -1.15881,0.289667 -1.59375,0.6875 -32.053414,29.195039 -41.853949,59.947506 -39.8125,85.8125 2.002804,25.375358 15.130387,45.857596 29.40625,56.125 1.753395,5.115851 0.709412,8.924997 -0.03125,13.6875 -5.578373,1.271444 -14.176042,0.330241 -20.3125,-1.875 C 35.545641,61.492372 16.89163,54.469044 -3.3509171,55.997419 c -20.6946749,1.562512 -43.3229289,11.750708 -60.7499999,29.5 -0.926884,0.954987 -0.955912,2.638628 -0.0625,3.625 38.193721,41.713371 88.632737,37.819071 110.8125,9.78125 8.73744,-1.823515 12.682883,-0.04263 16.34375,1.468751 2.110754,14.12201 2.060879,27.72924 0.46875,39.875 -1.746029,2.94942 -2.69731,4.2192 -4,6.21875 -0.07137,-0.10634 -0.115874,-0.23829 -0.1875,-0.34375 -1.556874,-2.29229 -3.165191,-4.38343 -4.71875,-6.03125 -1.379302,-1.46299 -2.618684,-2.54546 -4.1875,-3.25 l 0.03125,-0.0312 c -8.031741,-5.40593 -17.726178,-7.23386 -26.3125,-2.6875 -12.314469,6.52037 -19.7655729,14.3225 -23.18750014,21.96875 -3.42192716,7.64625 -2.71405256,15.27026 1.40625004,20.46875 4.1203025,5.19849 11.4487951,7.67403 19.9062501,6.03125 8.457455,-1.64278 18.162931,-7.2541 28.15625,-18.125 0.08985,-0.0877 0.173468,-0.18174 0.25,-0.28125 0.957905,-1.40255 1.219158,-1.54055 1.5625,-1.71875 0.343342,-0.1782 1.387416,-0.47632 2.71875,-1.4375 1.172855,-0.84676 2.526965,-2.25727 4.25,-4.46875 0.996362,2.05982 1.893887,4.09723 2.375,5.84375 0.0317,0.11507 0.337974,2.47736 0.46875,5.53125 0.130776,3.05389 0.192301,7.08351 0.21875,11.75 0.0529,9.33299 -0.08452,21.19303 -0.46875,32.875 -0.384228,11.68197 -1.01273,23.19936 -1.84375,31.84375 -0.41551,4.3222 -0.872516,7.94358 -1.375,10.40625 -0.08763,0.42945 -0.161822,0.58303 -0.25,0.9375 -14.500409,-10.6063 -34.350123,-18.72655 -56.1250001,-21.53125 -0.8561592,-3.47285 -2.14149594,-7.54008 -3.8125,-11.53125 -1.7490902,-4.17768 -3.7433038,-7.89574 -6.0625,-10.625 1.1664609,-17.62665 -9.1891309,-34.16823 -22.9999999,-46.84375 -14.082291,-12.92463 -31.755577,-22.03325 -45.875,-24.28125 -1.330953,-0.22352 -2.750581,0.74242 -3.03125,2.0625 -7.538513,36.52106 15.241268,70.67285 56.03125,82.65625 2.573743,1.66214 6.138274,6.38102 6.65625,8.625 0.113378,0.49118 0.07458,0.69846 0.0625,0.78125 -0.340415,0.12 -2.474289,0.23309 -6.15625,-1 -9.21377,-6.82466 -20.575684,-8.69318 -32.1875,-7.0625 -11.804015,1.65768 -23.975886,6.83333 -35.0625,14.15625 -22.173233,14.64585 -40.329813,37.78076 -41.406253,59.9375 -0.0748,1.71378 1.8757,3.17663 3.5,2.625 15.72633,-5.25401 25.80934,-8.94374 41.375003,-7.84375 0.155841,0.0138 0.312909,0.0138 0.46875,0 12.070224,-1.33654 24.904423,-7.57058 36.0625,-15.78125 10.710244,-7.88114 19.784727,-17.56538 24.96875,-26.9375 4.634395,-1.21369 7.685439,-1.30533 10.8125,-0.5 2.304403,0.59346 5.0616452,1.81868 8.2499999,3.25 -1.7241051,1.11051 -3.5913638,2.41413 -5.0624999,3.1875 -2.686488,1.41228 -4.779354,1.85711 -5.71875,1.625 -0.732365,-0.17967 -1.539476,-0.0276 -2.15625,0.40625 -17.643689,12.34834 -31.268517,35.09718 -38.0625,58.15625 -6.793983,23.05907 -6.942994,46.66859 4.4375,60.75 0.877701,1.06849 2.645394,1.24675 3.71875,0.375 7.834976,-6.30765 69.210367,-48.19411 55.7187499,-109.84375 0.2605259,-1.75009 0.8169531,-2.96093 1.8125,-3.84375 1.049766,-0.9309 2.7926591,-1.67821 5.8125001,-1.84375 0.299466,-0.0124 0.596739,-0.0761 0.875,-0.1875 13.066348,-5.48885 33.112683,1.13509 44.03125,15.90625 0.806388,22.35314 0.192826,45.20188 -1.875,68.53125 -6.7e-5,7.5e-4 -0.03118,-7.5e-4 -0.03125,0 -0.717459,4.14406 -0.57207,7.42505 -2.125,10.71875 -1.540104,3.2665 -4.818746,7.0027 -13.09375,11.53125 -12.888043,3.75158 -21.966706,8.71391 -41.43750014,8.71875 -0.041659,-9.8e-4 -0.083341,-9.8e-4 -0.125,0 -11.72563486,0.66207 -18.54501386,8.70895 -25.15624986,14.875 -0.385991,0.35711 -0.661877,0.83163 -0.78125,1.34375 -1.923919,8.57336 -7.987113,13.19521 -13.78125,17.21875 -2.897069,2.01177 -5.676767,3.77787 -7.78125,6.0625 -2.104483,2.28463 -3.395398,5.7123 -2.21875,9.125 0.08577,0.22253 0.201743,0.4334 0.34375,0.625 1.787067,2.6282 5.261863,4.24812 9.4375,3.78125 4.175637,-0.46687 9.166479,-2.65562 15.53125,-7.21875 7.143522,-2.66271 12.116947,-8.68115 16.8749999,-14.34375 4.8279974,-5.74584 9.4824237,-11.00894 15.25,-13.09375 18.0299771,2.13722 33.6299341,-3.39008 49.0625001,-7.375 0.525073,1.34105 0.720764,2.51381 0.40625,3.625 -0.444089,1.56898 -1.72575,3.34409 -3.90625,5.15625 -4.337073,3.60444 -11.938499,7.14673 -20.125,10.5625 -0.04516,0.0188 -0.0798,0.0437 -0.125,0.0625 -23.002126,8.29233 -28.4684722,15.44687 -38.9687501,23.4375 -0.3134166,0.24107 -0.5717918,0.55328 -0.75,0.90625 -1.2929974,2.55356 -1.7371749,5.03547 -1.21875,7.21875 0.5184249,2.18328 2.0139141,3.89686 3.78125,4.84375 3.53467186,1.89377 8.2080821,1.27361 11.375,-1.90625 2.217745,-2.22681 9.9821261,-7.08578 19.4375001,-11.84375 6.556151,-3.29907 13.956113,-6.5199 21.3125,-9.46875 -2.88824,3.57348 -5.651359,7.1792 -7.8125,10.65625 -1.918811,3.08717 -3.39469,6.02749 -4.1875,8.78125 -0.79281,2.75376 -0.96704,5.68174 0.8125,7.96875 0.298858,0.37959 0.703583,0.67493 1.15625,0.84375 2.877729,1.07565 5.836611,0.52831 8.09375,-0.75 2.257139,-1.27831 4.031198,-3.12907 5.625,-5 1.593802,-1.87093 3.021733,-3.78634 4.25,-5.15625 1.228267,-1.36991 2.284229,-1.98 2.40625,-2 0.09479,-0.0157 0.188725,-0.0366 0.28125,-0.0625 13.8543,-3.8326 20.115496,-1.82065 27.75,0.0312 0.01042,6e-5 0.02083,6e-5 0.03125,0 11.61065,2.57805 17.999787,5.93344 23.468747,8.84375 5.46896,2.91031 10.29259,5.51013 17.65625,5.75 0.0208,2.5e-4 0.0417,2.5e-4 0.0625,0 2.40473,0.0179 4.39565,-0.19729 6.125,-0.90625 1.72935,-0.70896 3.2261,-2.11821 3.84375,-3.84375 1.23531,-3.45109 -0.21625,-6.88882 -2.375,-11.03125 -0.0928,-0.18995 -0.20852,-0.36872 -0.34375,-0.53125 -6.60931,-7.51949 -12.37039,-8.27211 -18.1875,-9.25 -5.68109,-0.95503 -12.20216,-2.43558 -23.531247,-11.40625 -2.171679,-8.38219 -1.84173,-14.48635 -0.40625,-19.8125 18.834437,1.60334 36.707147,13.14864 63.968747,13.90625 4.8163,0.97497 6.67267,3.40206 8.46875,6.4375 1.81375,3.0653 3.06791,7.13679 7.21875,9 0.0715,0.0345 0.14448,0.066 0.21875,0.0937 5.02719,1.77197 9.89323,1.6788 12.9375,-1.34375 1.52213,-1.51127 2.28727,-3.75727 2.15625,-6.0625 -0.13102,-2.30523 -1.03733,-4.71426 -2.65625,-7.3125 -0.19838,-0.32248 -0.4668,-0.60163 -0.78125,-0.8125 -6.30023,-4.21087 -10.25398,-7.31215 -13.34375,-10.21875 -5.52922,-7.46953 -9.50943,-8.82752 -18.09375,-10.9375 -14.06598,-3.44852 -24.02891,-4.83816 -33.59375,-6.0625 -10.23998,-2.19372 -17.44972,-5.49896 -22.124997,-9.5 -4.675278,-4.00104 -6.940437,-8.62631 -7.46875,-14.25 -1.207697,-30.04477 -2.174261,-59.35381 -0.59375,-78.78125 9.44155,-12.00379 21.217157,-20.63352 42.499997,-29.875 2.59723,0.2153 3.79081,0.69581 4.1875,1.09375 0.38925,0.39048 0.70572,1.33615 0.96875,3.125 -13.35109,31.30904 -7.80014,61.54797 2.65625,84.625 5.27705,11.64632 11.7862,21.4956 17.75,28.90625 5.9638,7.41065 11.15421,12.29192 14.875,14.34375 1.24481,0.69264 3.01614,0.14762 3.65625,-1.125 7.15502,-14.52538 11.33616,-36.81094 8.75,-60.6875 -2.51155,-23.18777 -11.61425,-47.85079 -30.9375,-67.875 0.69773,-0.67616 1.60285,-1.44038 2.5625,-2 1.79438,-1.0464 3.50007,-1.26067 4.0625,-1 l 8.125,3.78125 c 5.35728,9.6619 16.13165,19.48172 28.5625,27.5 12.81864,8.26842 27.22516,14.54003 39.28125,15.875 0.411,0.0439 0.83212,-0.0101 1.21875,-0.15625 12.91537,-4.83195 21.5269,-10.11404 51.5625,-1.65625 1.61539,0.46176 3.4633,-1.00973 3.375,-2.6875 -1.15741,-22.09857 -20.14341,-41.09206 -42.46875,-52.15625 -22.0684,-10.93685 -47.84445,-14.4236 -64.75,-3.78125 -4.37069,1.11229 -8.08952,1.35105 -10.9375,0.6875 -2.34487,-0.54633 -4.05617,-1.79576 -5.53125,-3.6875 1.20168,-1.80286 3.10573,-3.69821 7.78125,-6.40625 15.39437,-4.54658 28.41349,-17.70399 36.875,-34.125 8.56541,-16.62263 12.50156,-36.70883 9.0625,-55.1875 -0.25305,-1.30655 -1.61738,-2.29351 -2.9375,-2.125 -14.7023,1.8751 -32.64392,11.22395 -45.875,25.25 -12.88057,13.65448 -21.12034,32.09227 -16.21875,52.09375 -3.90527,3.75855 -10.23766,8.86135 -12.5625,15.90625 -21.67884,2.789 -39.07974,10.78984 -53.218747,21.3125 -0.08254,-0.312 -0.167743,-0.43745 -0.25,-0.8125 -0.497657,-2.26908 -0.960244,-5.62099 -1.375,-9.625 -0.829512,-8.00802 -1.428455,-18.69067 -1.8125,-29.53125 -0.384045,-10.84058 -0.552861,-21.86158 -0.5,-30.5625 0.02643,-4.35046 0.11949,-8.10103 0.25,-10.96875 0.13051,-2.86772 0.391191,-5.08189 0.4375,-5.25 0.435505,-1.58096 1.288597,-3.45897 2.15625,-5.3125 0.967919,1.46841 1.954549,2.99084 2.5,3.65625 0.766448,0.935 1.325127,1.37244 1.59375,1.625 0.268623,0.25256 0.644026,0.65966 1.6875,2.1875 0.04917,0.0649 0.101325,0.12744 0.15625,0.1875 10.260367,12.3794 20.364327,18.72561 29.249997,20.6875 8.88567,1.96189 16.6163,-0.6545 21.0625,-6.0625 4.4462,-5.408 5.48741,-13.379 2.15625,-21.21875 -3.33116,-7.83975 -10.90893,-15.57777 -23.59375,-21.46875 -6.52365,-3.0297 -15.01097,-3.68878 -25.21875,-0.15625 -1.877797,0.65688 -3.227688,1.91468 -4.781247,3.5625 -1.553559,1.64782 -3.161876,3.70771 -4.71875,6 -0.112464,0.16559 -0.20068,0.3635 -0.3125,0.53125 -1.233681,-2.03665 -2.101508,-3.35763 -3.84375,-6.3125 -1.597985,-12.13203 -1.666783,-25.0461 0.4375,-39.125 1.260644,-0.47171 2.420064,-0.88103 4,-1.0625 2.070858,-0.23786 5.224358,-0.0583 10.124997,1 22.55389,28.2982 80.30463,29.91131 118.59375,-11.906251 0.90313,-0.997321 0.8592,-2.706523 -0.0937,-3.65625 C 202.45207,69.85 178.47205,60.939812 156.46158,60.247419 c -21.53083,-0.677305 -41.43252,6.591569 -50.96875,22.25 -5.924557,2.074849 -15.103349,2.264825 -20.968747,0.8125 -0.604071,-5.007248 -1.27116,-9.923362 0.59375,-15.28125 28.653757,-20.817302 49.130247,-83.882308 -5.96875,-143.53125 -0.535301,-0.578259 -1.338831,-0.897308 -2.125,-0.84375 z m 0.03125,6.53125 c 51.464587,57.690572 29.679447,116.501782 4.25,134.15625 -0.439213,0.306005 -0.782012,0.748327 -0.96875,1.25 -2.968687,7.803787 -1.490978,14.768841 -0.90625,20.21875 0.114694,1.002393 0.853147,1.90636 1.8125,2.21875 7.571813,2.534677 18.798347,2.348636 26.812497,-0.75 0.57319,-0.211447 1.06835,-0.627834 1.375,-1.15625 7.95859,-14.074389 26.18293,-21.244669 46.875,-20.59375 19.89218,0.625757 41.67337,8.582689 57.75,23.75 -36.79944,38.137181 -90.3194,34.708791 -109.3125,9.5625 -0.36921,-0.481907 -0.90888,-0.830442 -1.5,-0.96875 -5.819441,-1.333274 -9.688928,-1.594412 -12.687497,-1.25 -2.998569,0.344412 -4.991695,1.286529 -6.71875,1.90625 -0.883156,0.317307 -1.565902,1.136603 -1.71875,2.062501 -2.464361,15.39584 -2.378587,29.52383 -0.59375,42.71875 0.04047,0.33902 0.147233,0.66999 0.3125,0.96875 7.292713,10.9362 4.646736,8.0423 1.6875,18.5 -0.428554,1.55572 -0.520659,3.42688 -0.65625,6.40625 -0.135591,2.97937 -0.223288,6.7908 -0.25,11.1875 -0.05342,8.79341 0.113325,19.86641 0.5,30.78125 0.386675,10.91484 0.991975,21.68331 1.84375,29.90625 0.425887,4.11147 0.923079,7.55701 1.5,10.1875 0.28846,1.31524 0.593391,2.40955 1,3.375 0.406609,0.96545 0.720152,2.12567 2.5,2.75 0.835718,0.28258 1.809914,0.1121 2.5,-0.4375 14.262027,-11.24565 32.084237,-19.69329 54.937497,-22.3125 1.10546,-0.11824 2.08535,-1.00543 2.3125,-2.09375 1.14566,-5.48357 8.14504,-11.41125 12.6875,-16.03125 0.6554,-0.66662 0.91576,-1.69565 0.65625,-2.59375 -5.195,-18.53369 2.31044,-35.50429 14.6875,-48.625 11.58502,-12.28108 27.44991,-20.78383 40.09375,-23.1875 2.36413,16.38362 -1.2746,34.28509 -8.9375,49.15625 -8.07008,15.66138 -20.47891,27.82056 -34.15625,31.65625 -0.20709,0.0588 -0.40697,0.14296 -0.59375,0.25 -6.2774,3.62209 -9.33135,6.71152 -10.9375,10 -0.38092,0.78047 -0.34446,1.75025 0.0937,2.5 2.29736,3.95865 5.85962,6.44887 9.96875,7.40625 4.10913,0.95738 8.70454,0.53113 13.65625,-0.75 0.27667,-0.0715 0.54164,-0.18805 0.78125,-0.34375 14.27588,-9.38273 38.91064,-6.73235 60.125,3.78125 19.85442,9.83963 36.1206,26.25378 38.96875,44.03125 -27.29275,-6.93371 -38.5472,-1.91254 -50.21875,2.5 -10.60705,-1.30044 -24.36892,-7.14383 -36.5,-14.96875 -12.31034,-7.94055 -22.97223,-17.95057 -27.34375,-26.375 -0.26232,-0.51441 -0.6977,-0.93863 -1.21875,-1.1875 l -8.78125,-4.0625 c -3.18967,-1.47833 -6.42805,-0.23162 -8.96875,1.25 -2.5407,1.48162 -4.57006,3.25217 -5.71875,5.375 -0.53092,0.99581 -0.33097,2.32879 0.46875,3.125 19.53765,19.34292 28.58186,43.59765 31.0625,66.5 2.30407,21.27221 -1.18039,41.29513 -6.9375,54.71875 -2.70394,-2.10966 -6.52167,-5.59904 -10.96875,-11.125 -5.7012,-7.08434 -11.96545,-16.60113 -17.03125,-27.78125 -10.13161,-22.36023 -15.46559,-51.19697 -2.34375,-81.1875 0.18797,-0.44029 0.25355,-0.93209 0.1875,-1.40625 -0.30752,-2.46141 -0.69862,-4.84902 -2.5625,-6.71875 -1.86388,-1.86973 -4.54585,-2.51741 -8.21875,-2.71875 -0.4032,-0.0292 -0.8129,0.0355 -1.1875,0.1875 -22.54234,9.70867 -35.552002,19.18122 -45.749997,32.375 -0.301534,0.39623 -0.488043,0.87896 -0.53125,1.375 -1.727953,20.08879 -0.664596,49.92558 0.5625,80.4375 -0.0015,0.0521 -0.0015,0.10418 0,0.15625 0.64166,6.83022 3.697903,12.97635 9.3125,17.78125 5.6146,4.8049 13.671227,8.34308 24.468747,10.65625 0.0724,0.0134 0.14544,0.0241 0.21875,0.0312 9.39196,1.20073 18.96764,2.51728 32.4375,5.78125 9.61086,1.3143 10.94024,4.55932 16.90625,10.125 3.17227,2.94179 7.16775,6.10764 13.03125,10.0625 1.11909,1.89346 1.6295,3.44821 1.6875,4.46875 0.0619,1.08892 -0.20541,1.55216 -0.625,1.96875 -0.82197,0.81611 -3.44951,1.45281 -7.21875,0.1875 -1.47972,-0.66421 -2.72868,-3.30047 -4.84375,-6.875 -2.11507,-3.57453 -5.62322,-7.6692 -12.15625,-8.9375 -0.14376,-0.033 -0.29027,-0.0539 -0.4375,-0.0625 -26.92763,-0.66021 -44.55823,-13.22006 -66.281247,-14.15625 -1.150138,-0.0611 -2.293794,0.71926 -2.65625,1.8125 -2.240133,6.80166 -2.989957,14.97336 -0.03125,25.75 0.147173,0.53842 0.46949,1.02745 0.90625,1.375 12.433517,10.04086 20.654877,12.01188 26.718747,13.03125 5.97899,1.00511 9.16597,0.95568 14.84375,7.3125 1.77008,3.51709 2.13217,5.95615 1.9375,6.5 -0.10076,0.2815 -0.13032,0.42627 -0.84375,0.71875 -0.69736,0.28589 -2.08261,0.53399 -4,0.53125 -0.0339,-10e-4 -0.06,0.001 -0.0937,0 -6.17183,-0.22155 -9.77875,-2.24472 -15.25,-5.15625 -5.49014,-2.92158 -12.62459,-6.61169 -24.749997,-9.3125 -0.02435,-0.005 -0.03811,-0.0258 -0.0625,-0.0312 -7.402224,-1.79714 -15.537027,-3.9549 -30.0625,0 -0.01035,0.002 -0.02093,-0.002 -0.03125,0 -0.09349,0.0255 -0.155974,0.0365 -0.25,0.0625 l 0,0.0625 c -2.296654,0.4917 -3.830616,1.97943 -5.25,3.5625 -1.485796,1.65714 -2.877733,3.56576 -4.3125,5.25 -1.434767,1.68424 -2.891894,3.11 -4.1875,3.84375 -0.954791,0.54074 -1.764857,0.65239 -2.65625,0.53125 -0.09388,-0.52851 -0.08735,-1.25095 0.28125,-2.53125 0.564849,-1.96195 1.824511,-4.59098 3.59375,-7.4375 3.538478,-5.69304 8.957936,-12.33242 14.0625,-17.96875 0.771898,-0.86324 0.885816,-2.2509 0.25,-3.21875 -0.635816,-0.96785 -1.963733,-1.42817 -3.0625,-1.0625 -10.478336,3.64108 -21.968466,8.64081 -31.625,13.5 -9.656534,4.85919 -17.2951681,9.28066 -20.8437501,12.84375 -1.4901532,1.49625 -3.85655474,1.6316 -5.09375,0.96875 -0.6185977,-0.33143 -0.9628603,-0.69217 -1.125,-1.375 -0.1469529,-0.61887 -0.04101,-1.69927 0.625,-3.1875 10.538048,-8.13644 15.0641151,-14.29924 37.0937501,-22.21875 0.04221,-0.0197 0.08389,-0.0406 0.125,-0.0625 8.337787,-3.47474 16.230907,-7.00654 21.5625,-11.4375 2.665796,-2.21548 4.762129,-4.70145 5.625,-7.75 0.862821,-3.0486 0.271208,-6.48218 -1.75,-9.65625 -0.589764,-0.93237 -1.803919,-1.42067 -2.875,-1.15625 -16.808271,4.15788 -32.402101,10.11027 -50.0937501,7.78125 -0.3984651,-0.049 -0.8079701,-0.006 -1.1875,0.125 -7.78474474,2.6141 -13.0331247,9.00107 -17.9687499,14.875 -4.935625,5.87393 -9.565683,11.20401 -15.1875,13.0625 -0.256891,0.0872 -0.500246,0.2142 -0.71875,0.375 -5.931783,4.2527 -10.288328,5.94332 -13.03125,6.25 -2.478149,0.27707 -3.465531,-0.34027 -4.1875,-1.25 -0.37154,-1.35282 -0.114352,-2.06081 1.125,-3.40625 1.369648,-1.48689 3.93618,-3.21879 6.90625,-5.28125 5.767567,-4.00509 13.103092,-9.60974 15.6875,-19.5625 6.638184,-6.25357 12.055106,-12.40031 21.15624986,-12.96875 0.044315,-10e-6 0.080781,6e-5 0.125,0 20.49204814,-0.0285 30.64930314,-5.45275 43.09375014,-9.03125 0.184306,-0.0534 0.362782,-0.12689 0.53125,-0.21875 8.995795,-4.88837 13.412366,-9.4709 15.5625,-14.03125 2.150134,-4.56035 1.968912,-8.63392 2.5625,-12.0625 0.003,-0.0729 0.003,-0.14587 0,-0.21875 2.128865,-23.91775 2.804361,-47.37458 1.9375,-70.3125 -0.02238,-0.51408 -0.198522,-1.0205 -0.5,-1.4375 -12.11148,-17.01252 -34.294962,-25.02188 -50.59375,-18.34375 -3.4842811,0.29071 -6.3610061,1.21758 -8.4062501,3.03125 -2.1784795,1.93181 -3.2778575,4.62769 -3.625,7.40625 -0.031401,0.30268 -0.010155,0.61075 0.0625,0.90625 12.5379031,55.20341 -38.1743239,93.21236 -51.4687499,103.4375 -8.00012,-12.13489 -8.209634,-32.88636 -2.0625,-53.75 6.419185,-21.78699 19.461562,-43.30261 35.3125,-54.75 2.709323,0.18188 5.358337,-0.83003 7.9999999,-2.21875 3.1170704,-1.63864 6.3553514,-3.88972 9.68749996,-6.0625 0.78514134,-0.52048 1.26362794,-1.49859 1.18750004,-2.4375 -0.076128,-0.93891 -0.7037633,-1.80031 -1.56250004,-2.1875 -5.56794846,-2.41823 -9.44499576,-4.47795 -13.65624986,-5.5625 -4.211254,-1.08455 -8.646851,-0.99039 -14.5,0.6875 -0.68893,0.19389 -1.290506,0.67978 -1.625,1.3125 -4.485178,8.64346 -13.477569,18.46933 -24.09375,26.28125 -10.565816,7.77486 -22.726228,13.56358 -33.34375,14.78125 -14.872933,-0.99235 -25.606413,2.26069 -39.062503,6.75 2.85327,-18.39234 18.78658,-38.74955 38.468753,-51.75 10.556427,-6.97272 22.061234,-11.82953 32.84375,-13.34375 10.782516,-1.51422 20.730776,0.23621 28.71875,6.34375 0.216448,0.17178 0.459944,0.30941 0.71875,0.40625 4.498274,1.57185 7.617585,2.08134 10.3125,0.9375 1.347457,-0.57192 2.470496,-1.78363 2.90625,-3.09375 0.435753,-1.31012 0.337061,-2.5918 0.0625,-3.78125 -1.098243,-4.75782 -4.992775,-9.46222 -9.15625,-12.03125 -0.204751,-0.12273 -0.426166,-0.21763 -0.65625,-0.28125 -37.998347,-10.9346 -58.617164,-40.9832 -53.25,-73.90625 12.276283,2.66076 28.031239,10.80883 40.53125,22.28125 13.351919,12.25429 22.751316,27.86744 21.3125,43.5 -0.06801,0.76199 0.213632,1.54825 0.75,2.09375 1.606454,1.63388 3.895459,5.67634 5.7187499,10.03125 1.8232909,4.35491 3.3206698,9.09221 4,12.34375 0.2237022,1.07933 1.1867404,1.96321 2.28124996,2.09375 22.85096014,2.61895 43.79139014,11.53325 57.93750014,22.6875 0.690086,0.5496 1.664282,0.72008 2.5,0.4375 1.898396,-0.66592 2.134417,-1.86739 2.53125,-2.875 0.396833,-1.00761 0.713953,-2.16059 1,-3.5625 0.572094,-2.80383 1.043617,-6.54645 1.46875,-10.96875 0.850267,-8.84459 1.457258,-20.43669 1.84375,-32.1875 0.386492,-11.75081 0.553387,-23.64314 0.5,-33.0625 -0.02669,-4.70968 -0.114675,-8.80862 -0.25,-11.96875 -0.135325,-3.16013 -0.213084,-5.07873 -0.65625,-6.6875 -4.87192,-11.65752 -3.784754,-9.24009 1.6875,-18.5 0.176147,-0.29644 0.293648,-0.62758 0.34375,-0.96875 1.786647,-13.2083 1.872757,-28.02825 -0.59375,-43.437501 -0.142514,-0.936976 -0.827497,-1.77141 -1.71875,-2.09375 -3.184347,-1.142642 -9.726786,-4.88937 -21.65625,-2.15625 -0.606551,0.139623 -1.159549,0.500764 -1.53125,1 C 23.927117,120.29047 -21.756948,125.60286 -58.382167,87.434919 -42.121892,71.76 -21.470904,62.677457 -2.9446671,61.278669 16.30481,59.825274 32.836869,66.333557 40.617833,81.559919 c 0.296794,0.568313 0.807059,1.021883 1.40625,1.25 7.721987,2.985673 18.367092,4.544934 26.15625,1.9375 0.947874,-0.322244 1.671521,-1.223629 1.78125,-2.21875 0.5549,-5.171896 2.857587,-10.87841 -0.125,-18.71875 -0.186738,-0.501673 -0.529537,-0.943995 -0.96875,-1.25 C 55.854465,53.589292 42.811209,33.973893 40.899083,9.7474186 39.030542,-13.926834 47.656476,-42.118502 77.055333,-69.815081 z m -1.65625,15.21875 c -0.189441,0.02559 -0.382858,0.103752 -0.59375,0.25 -2.097366,24.958034 -2.128294,62.3442547 -3.1875,93.53125 1.275173,1.892068 2.579028,3.430479 4.375,-0.40625 1.058594,-38.19516685 5.278934,-94.168274 -0.59375,-93.375 z M -0.75716714,83.216169 C -19.229444,83.199309 -38.100917,84.04073 -38.100917,86.247419 c 0,0.47015 25.91875,0.73943 42.2812499,0.59375 25.6600501,-0.22846 29.7500001,-0.48747 29.7500001,-1.78125 0,-1.28728 -3.68707,-1.52729 -26.0000001,-1.78125 -3.1504113,-0.03586 -6.0486032,-0.06009 -8.68750004,-0.0625 z M 170.99283,87.309919 c -4.81908,-0.03861 -30.8079,0.73747 -34.84375,0.75 -12.10754,0.03758 -20.12445,0.2807 -20.53125,0.6875 -0.50973,0.50973 -0.62409,1.42596 -0.25,2.03125 0.47813,0.77364 32.04897,0.247652 55.375,0.0625 28.712,-0.22791 33.1875,-0.48334 33.1875,-1.78125 0,-1.29763 -4.44492,-1.5217 -32.9375,-1.75 z M 34.274083,136.80992 c 0.875609,-0.0138 1.743232,0.0409 2.625,0.15625 18.111407,3.61905 16.910721,13.82816 9.5625,23.9375 -9.444046,10.2734 -18.30669,15.11401 -25.28125,16.46875 -6.97456,1.35474 -11.9584521,-0.6424 -14.7187501,-4.125 -2.7602978,-3.4826 -3.5137024,-8.75471 -0.71875,-15 2.794952,-6.24529 9.2665451,-13.32405 20.8125001,-19.4375 2.490714,-1.31881 5.091924,-1.95847 7.71875,-2 z m 78.593747,4.375 c 0.45375,-0.0124 0.90612,-0.0102 1.34375,0 3.50899,0.0818 6.50762,0.84694 9.125,2.0625 11.80213,5.48105 18.28006,12.45352 20.96875,18.78125 2.68869,6.32773 1.72855,11.97509 -1.375,15.75 -3.10355,3.77491 -8.50755,5.90103 -15.84375,4.28125 -7.3362,-1.61978 -16.54513,-7.15937 -26.28125,-18.90625 -5.57959,-7.42021 -8.772467,-10.71254 1.28125,-19.84375 0.0104,-0.004 0.0209,0.004 0.0312,0 4.0067,-1.38355 7.57374,-2.03837 10.75,-2.125 z m 94.65625,15.15625 c -0.35657,-0.0208 -0.77265,0.088 -1.21875,0.34375 -4.43602,2.54358 -38.77738,52.355 -35.65625,52.21875 0.44694,-0.0195 34.91513,-46.64093 37.71875,-49.90625 1.04477,-1.21683 0.22596,-2.59384 -0.84375,-2.65625 z m -269.218747,5.25 c -0.954664,0.92333 -0.26759,2.02273 0.28125,2.9375 0.06411,0.0772 0.125566,0.11963 0.1875,0.1875 0.144292,0.29257 0.227303,0.49298 0.40625,0.84375 1.10731,2.17051 30.93988,37.75074 31.90625,38.3125 2.05933,1.19713 2.28471,1.17711 2.84375,-0.5 0.52284,-1.56851 -33.06101,-41.78125 -35.15625,-41.78125 -0.178422,0 -0.337252,-0.0203 -0.46875,0 z m 19.34375,81.15625 c -8.031551,0.0785 -49.166998,20.52021 -61.343753,28.75 -2.2972,1.742 -10.42032,6.90696 -9.40625,9.53125 0.90278,1.46074 0.79707,1.49634 7.53125,-3.125 10.190046,-7.11994 49.110563,-30.62227 64.562503,-31.03125 3.56881,-0.22611 4.9375,-0.72462 4.9375,-1.8125 0,-1.27328 -2.301384,-1.92415 -5.03125,-1.9375 -0.192057,-0.26073 -0.61958,-0.38116 -1.25,-0.375 z m 237.749997,8.25 c -2.18441,-0.0258 -2.9489,2.99805 -0.71875,3.40625 12.39476,2.26865 67.88131,24.10548 68.71875,21.46875 1.26607,-3.98628 -47.26471,-20.90948 -67.53125,-24.8125 -0.15765,-0.0304 -0.32312,-0.0608 -0.46875,-0.0625 z m -47.6875,20.0625 c -0.93139,2.54624 14.52755,82.18161 15.09375,84.4375 0.91127,3.63082 3.625,3.3487 3.625,-0.375 0,-1.61754 -17.18333,-83.41171 -17.78125,-83.78125 -0.33084,-0.20447 -0.64068,-0.29566 -0.9375,-0.28125 z m -157.968747,8.4375 c -0.18156,-0.0182 -0.405313,0.048 -0.6875,0.15625 -10.999131,23.81806 -24.275559,49.26988 -32.1875,72.53125 -0.479839,0.33092 -0.649567,0.93127 -0.46875,1.4375 0.0032,0.009 -0.0035,0.0223 0,0.0312 -0.513027,1.67357 -0.776315,2.86085 -0.59375,3.15625 0.28268,0.45739 1.366493,-1.04978 2.6875,-3.34375 0.0044,-0.008 -0.0044,-0.0236 0,-0.0312 0.08185,-0.11899 0.141307,-0.22989 0.1875,-0.34375 4.481948,-15.15335 23.909027,-47.41092 31.5624999,-71.34375 0.179625,-1.51669 0.044679,-2.1955 -0.4999999,-2.25 z"
           style="fill:#000000;display:inline" />
      </g>
      <use
         height="1052.3622"
         width="744.09448"
         transform="translate(431.54092,0)"
         id="use4402"
         xlink:href="#g4398"
         y="0"
         x="0" />
      <use
         height="1052.3622"
         width="744.09448"
         transform="matrix(1,0,0,0.95454993,215.77047,486.27857)"
         id="use4404"
         xlink:href="#g4398"
         y="0"
         x="0" />
    </g>
  </g>
</svg>
