<?xml version="1.0" encoding="UTF-8" standalone="no"?><svg xmlns="http://www.w3.org/2000/svg" viewBox="0 0 1080.25 1067.6"><g transform="translate(197.4 4.634)"><path d="m685.94 5.391c-28.984.053-56.52.198-78.43.478-87.63 1.122-173.59-.214-260.38 0-2.939.007-5.877.036-8.816.043-86.79.214-172.75 1.122-260.38 0-87.63-1.122-265.34 0-265.34 0 0 0 5.533 48.18 7.515 72.32 3.398 41.38 4.714 82.87 7.515 124.29 3.772 55.766 8.753 111.49 12.525 167.25 2.801 41.41 4.332 82.9 7.515 124.29 4.814 62.59 5.566 125.75 17.487 187.56 6.666 34.562 15.972 68.979 30.06 101.67 17.01 39.473 37.08 78.71 65.18 112.63 20.259 24.456 46.14 45.04 72.983 63.62 30.737 21.272 64.21 39.816 99.62 53.968 37.462 14.97 77.45 25.08 117.69 32.09 30.28 5.278 61.32 7.255 92.16 7.349 30.643.094 61.53-1.52 91.63-6.741 40.39-7.01 80.35-17.626 117.93-32.746 35.37-14.235 68.934-32.696 99.67-53.968 26.847-18.58 52.724-39.17 72.983-63.62 28.1-33.919 48.17-73.16 65.18-112.63 14.09-32.695 23.395-67.16 30.06-101.72 11.921-61.814 12.673-124.97 17.487-187.56 3.183-41.39 4.714-82.87 7.515-124.29 3.772-55.766 8.754-111.44 12.525-167.21 2.801-41.41 4.118-82.909 7.515-124.29 1.982-24.14 7.515-72.32 7.515-72.32 0 0-99.96-.636-186.91-.478" fill="#fff"/><path d="m718.94 5.375c-11.05-.002-22.13.012-33 .031-28.984.053-56.53.188-78.44.469-87.63 1.122-173.58-.214-260.37 0-2.939.007-5.874.024-8.813.031-86.79.214-172.75 1.122-260.37 0-87.63-1.122-265.34 0-265.34 0 0 0 5.549 48.17 7.531 72.31 3.398 41.38 4.699 82.9 7.5 124.31 3.772 55.766 8.76 111.48 12.531 167.25 2.801 41.41 4.348 82.89 7.531 124.28 4.113 53.49 5.253 107.38 12.938 160.5h964.19c7.696-53.15 8.853-107.08 12.969-160.59 3.183-41.39 4.73-82.87 7.531-124.28 3.772-55.766 8.728-111.45 12.5-167.22 2.801-41.41 4.134-82.903 7.531-124.28 1.982-24.14 7.5-72.31 7.5-72.31 0 0-76.52-.484-153.91-.5"/><path d="m26.563 38.531c-6.651.097-13.237 3.2-19.906 4.156-4.482.642-11.974-2.763-13.5 1.5-1.53 4.272 5.503 7.601 9.5 9.75 3.512 1.888 7.649 1.959 11.688 2.375.085-1.334.218-2.667.5-3.969.286-1.32.052-3.421 1.344-3.813.174-.053.357-.072.531-.063 1.221.064 2.427 1.521 3 2.656.935 1.854.459 4.08.156 6.219 2.142.657 4.223 1.57 6.375 2.125.295-2.051.759-4.095 1.375-6.06.265-.847.312-2.02 1.094-2.438.596-.321 1.334-.476 2.094-.469 1.266.012 2.549.468 3.219 1.375 1.427 1.933-.169 4.644-.844 7.125 1.167-.375 2.331-.631 3.469-.313 4.553 1.273 6.318 7.606 10.75 9.25 3.941 1.462 8.348.914 12.594.313.345-2.288-.064-4.678.563-6.906.4-1.422.991-2.89 2-3.969 1.022-1.092 2.422-2.767 3.813-2.719.198.007.398.041.594.125 1.439.618 1.097 3.03 1.063 4.594-.055 2.466-.995 4.822-1.875 7.156.258-.112.523-.211.781-.313.136-.464.251-.935.344-1.375.465-2.202.717-4.651 2.125-6.406 1.298-1.618 3.269-3.188 5.344-3.188.889 0 1.892.576 2.281 1.375.897 1.842-.21 4.117-.75 6.094-.438 1.603-1.221 3.095-2 4.563-.134.253-.254.538-.375.813 1.01 1.08 1.977 2.236 3.25 2.844 3.63 1.733 7.733 2.533 11.75 2.75 1.95.105 3.899-.331 5.844-.813.048-1.837.244-3.677.75-5.438.496-1.726 1.329-3.352 2.281-4.875 1.073-1.717 1.893-4.075 3.813-4.719.099-.033.208-.037.313-.031.315.016.637.182.906.344.586.352 1.115.867 1.375 1.5.831 2.024.623 4.397.313 6.563-.244 1.702-1.051 3.277-1.688 4.875-.095.239-.169.498-.25.75.2.027.394.053.594.094 2.196.445 3.906 2.135 5.781 3.438.22-1.542.606-3.064 1.031-4.563.672-2.37 1.356-4.844 2.75-6.875 1.03-1.501 2.225-4.01 3.938-4 .114 0 .225.007.344.031.602.121.554 1.105.75 1.688.515 1.531.832 3.12 1.063 4.719.335 2.319.755 4.674.469 7-.201 1.636-.369 3.444-.906 5.03 5.867 1.113 11.941 1.393 17.781.531 3.461-.51 6.477-3.329 9.656-4.844.203-1.115.45-2.214.813-3.281.504-1.482 1.125-2.942 2.031-4.219.684-.964 1.318-2.533 2.5-2.5 1.331.037 2.268 1.695 2.656 2.969.661 2.17-.387 4.55-.938 6.75-.043.172-.108.33-.156.5 1.914 1.597 3.313 4.362 5.688 5.125.032 0 .062.022.094.031.009-.114.029-.232.031-.344.05-1.985-.068-3.954 0-5.938.052-1.518-.759-3.486.313-4.563.499-.501 1.267-.812 2.063-.875.795-.063 1.604.121 2.156.563 1.651 1.319.842 4.17.938 6.281.075 1.666.1 3.339-.031 5 2.146-.318 4.319-.818 6.438-.656 4.742.362 9.25 2.504 14 2.75 6.01.311 11.971-1.147 17.969-1.656.166-.774.323-1.546.5-2.313.408-1.767.218-3.756 1.094-5.344.796-1.444 1.913-3.697 3.406-3.938.213-.034.459-.025.688.031.962.237.844 1.826.938 2.813.257 2.729-.571 5.466-1.094 8.156-.008.042-.023.083-.031.125 1.374-.147 2.752-.291 4.125-.406.215-1.179.506-2.339.906-3.469.53-1.498 1.186-3.02 2.188-4.25.936-1.153 1.984-2.822 3.469-2.813 1.706.011 3.405 1.651 3.906 3.281.756 2.459-1.032 4.97-2.031 7.438.156.029.313.061.469.094 5.508 1.159 10.202 4.761 15.25 7.25 2.656 1.31 5.133 3.092 7.781 4.406.174-.38.327-.778.469-1.156 1-2.673 1.926-5.423 3.438-7.844.943-1.509 1.974-3.097 3.469-4.063.958-.619 2.11-1.245 3.25-1.344.38-.033.76-.014 1.125.094 1.598.471 3.107 2.093 3.281 3.75.326 3.093-3.098 5.396-4.531 8.156-.708 1.363-1.22 2.861-1.781 4.313.766-.002 1.541-.023 2.313-.063 1.392-2.069 2.942-4.149 3.844-6.125 1.125-2.466 1.838-5.329 3.781-7.219 1.541-1.498 3.635-2.695 5.781-2.813 1.551-.085 3.648.207 4.406 1.563 1.486 2.656-.95 6.04-1.875 8.938-.706 2.212-1.38 4.513-2.313 6.656 3.078 1.434 5.751 3.968 9.06 4.75 1.156.273 2.341.365 3.531.344 1.776-1.282 3.562-2.581 4.75-4.063 1.987-2.478 3.98-4.99 5.656-7.688.839-1.35.817-3.415 2.188-4.219.721-.423 1.672-.688 2.594-.688.922 0 1.8.267 2.406.844 1.405 1.337.86 3.882.469 5.781-.608 2.953-2.511 5.516-4.219 8-.468.681-.944 1.361-1.438 2.031.7.21 1.388.434 2.063.719.004-.005.027.005.031 0 1.517-1.753 3.065-3.526 4.03-5.406 1.367-2.661 1.56-6.152 3.781-8.156 1.168-1.054 2.862-2.198 4.438-2.313.525-.038 1.028.052 1.5.281 1.991.967 2.236 4.04 2.219 6.25-.021 2.727-1.633 5.244-2.844 7.688-1.079 2.178-2.126 4.474-3.406 6.563 6.082 2.591 12.255 4.97 18.438 7.313 1.601-1.309 3.254-2.559 4.563-4.156 1.039-1.268 1.691-2.824 2.5-4.25.703-1.24 1.26-2.571 2.063-3.75.96-1.41 1.576-3.882 3.281-3.906 1.258-.018 2.305 1.57 2.5 2.813.38 2.426-1.933 4.523-2.969 6.75-1.153 2.478-2.171 5.01-3.594 7.344-.406.667-.789 1.363-1.188 2.063 1.974.842 3.957 1.675 5.938 2.5.547-2.448 1.24-4.875 2.125-7.219.735-1.946 1.561-3.857 2.656-5.625.666-1.075 1.476-2.11 2.375-3 .903-.894 1.807-2.624 2.938-2.719.162-.014.329 0 .5.063 1.313.469.819 2.674.938 4.063.155 1.825.153 3.729-.313 5.5-.843 3.209-2.961 5.936-4.375 8.938-.358.761-.681 1.529-1 2.313 3.305 1.187 6.663 2.172 10.125 2.75 4.984.832 10.09.06 15.16-.188.605-1.304 1.38-2.609 1.875-3.781 1.05-2.484 2.753-4.663 4.25-6.906 1.038-1.556 2.383-2.891 3.281-4.531.89-1.625.973-3.667 2.031-5.188.666-.957 1.447-2.526 2.5-2.688.15-.023.307-.009.469.031 1.62.404 1.603 3.056 1.75 4.719.239 2.695-.393 5.473-1.438 7.969-.94 2.247-3.073 3.82-4.219 5.969-.703 1.318-1.01 2.812-1.5 4.219 1.73-.019 3.462-.007 5.188.094 1.126-1.716 2.834-3.432 3.688-5.094.876-1.706 1.74-3.441 2.813-5.03.748-1.109 1.265-2.609 2.5-3.125.691-.288 1.525-.46 2.344-.5 1.365-.067 2.74.245 3.625 1.125 1.342 1.334 1.028 3.808.625 5.656-.524 2.402-1.922 4.549-3.531 6.469.92.064 1.839.125 2.75.094 3.088-.105 6.242.08 9.25-.625 2.257-.529 4.467-1.385 6.406-2.656 1.7-1.114 2.857-2.904 4.406-4.219 2.334-1.981 4.669-4.01 7.344-5.5 1.865-1.038 3.854-2.054 5.969-2.344.312-.043.624-.079.938-.094 2.196-.104 4.433.43 6.594.875 1.274.263 2.73.332 3.906.844 1.517-2.998 4.411-6.553 6.75-10.03-3.453.626-7.141-.647-10.656-1.156-3.275-.474-6.598-.931-9.719-2.031-1.768-.623-3.764-1.146-5.469-2-.462.05-.92.105-1.375.125-6.402.288-12.571-2.549-18.75-4.25-6.759-1.86-12.995-6.236-20-6.5-6.685-.252-12.869 5.64-19.5 4.75-6.137-.824-10.281-7.354-16.25-9-9.967-2.748-20.792.638-31-1-5.832-.936-11.185-3.962-17-5-8.551-1.526-17.407-.478-26-1.75-7.699-1.14-15.14-3.621-22.75-5.25-6.313-1.351-12.705-2.318-19-3.75-5.203-1.184-10.215-3.266-15.5-4-10.651-1.478-21.498-.625-32.25-.75-15.749-.183-31.57 1.48-47.25 0-7.094-.67-13.922-3.179-21-4-9.694-1.124-19.548-.197-29.25-1.25-8.159-.885-16.1-3.248-24.25-4.25-4.644-.571-9.423-.028-14-1-4.074-.865-7.897-2.668-11.75-4.25-2.207-.907-4.134-2.693-6.5-3-.954-.124-1.893-.17-2.844-.156m616.5 10.625c-3.915.075-8.579 1.896-12.156 3.03-15.974 5.068-27.817 18.733-42.25 27.25-8.638 5.097-16.683 12.195-26.5 14.25-11.129 2.329-22.679-3.803-34-2.75-5.676.528-11.12 2.626-16.5 4.5-5.365 1.867-11.916 9.07-16.938 10.875-.154.175-.314.359-.469.531-3.038 3.384-6 7.06-9.969 9.281-2.408 1.35-5.477 3.34-8 2.219-1.208-.537-1.993-2.232-1.75-3.531.403-2.159 3.17-3.053 4.875-4.438 3.269-2.654 6.261-6.01 9.781-8.281 1.621-3.138 8.805-5.839 11.469-9.156 3.604-4.488 8.952-8.55 9.75-14.25.877-6.263-.254-15.357-6-18-6.622-3.046-14.07 4.379-20.25 8.25-11.4 7.145-21.414 16.643-30 27-4.606 5.556-4.782 21.702-11.25 18.5-1.153-.571-1.755-1.316-1.969-2.219-.221.027-.429.07-.625.125-2.598.733-5.579.594-7.844 2.063-2.807 1.82-3.623 5.742-6.25 7.813-3.671 2.893-8.192 4.805-12.719 5.969-1.572.404-3.222.26-4.844.313-3.968.128-7.957.407-11.906 0-2.548-.263-4.976-1.385-7.531-1.563-.124-.009-.251.004-.375 0-2.741 2.466-8.745 3.779-11.938 6-5.73 3.987-11.316 8.263-17.5 11.5-5.731 2.999-11.712 5.733-18 7.25-7.158 1.727-14.673 1.267-22 2-9.926.993-20.11.688-29.75 3.25-5.446 1.447-11.449 2.833-15.5 6.75-2.787 2.695-3.087 7.129-5 10.5-1.78 3.136-4.732 5.625-6 9-1.123 2.99-2.481 6.553-1.25 9.5 1.33 3.183 4.91 5.386 8.25 6.25 5.705 1.476 11.63-1.982 17.5-2.5 9.718-.858 19.523-1.747 29.25-1 4.905.377 11.08-.789 14.5 2.75 2.284 2.365 3.214 6.944 1.5 9.75-2.884 4.723-10.536 3.394-15.75 5.25-5.541 1.972-11.768 2.757-16.5 6.25-2.293 1.693-5.547 3.915-5.25 6.75.364 3.47 4.816 5.323 8 6.75 5.377 2.41 11.622 2.913 17.5 2.5 5.972-.419 11.69-2.78 17.25-5 4.88-1.949 9.355-4.792 14-7.25 3.098-1.639 6.665-7.367 9.25-5 2.946 2.697-2.395 7.774-4.75 11-5.085 6.964-14.843 9.743-19.5 17-2.065 3.218-3.646 7.197-3.25 11 .745 7.157 6.438 12.896 10.25 19 3.259 5.217 7.428 9.823 10.75 15 1.814 2.827 1.766 7.84 5 8.75 1.831.515 3.747-1.319 5-2.75 3.182-3.632 5.183-8.672 5.25-13.5.034-2.477-1.658-4.67-2.5-7-1.568-4.339-4.136-8.428-4.75-13-.401-2.984-1.353-6.846.75-9 1.64-1.679 4.921-1.839 7-.75 3.7 1.937 4.346 7.165 6 11 1.597 3.702 2.01 7.862 3.75 11.5.857 1.794 1.268 4.842 3.25 5 2.353.188 3.954-3.03 4.75-5.25 1.182-3.299.252-7.078-.5-10.5-.714-3.25-2.558-6.144-3.75-9.25-1.841-4.799-6.071-9.426-5.25-14.5.322-1.991 1.785-4.295 3.75-4.75 2.251-.521 4.656 1.327 6.25 3 2.808 2.947 2.951 7.599 4.75 11.25 1.567 3.18 2.152 7.525 5.25 9.25 1.894 1.055 5.02 1.335 6.5-.25 1.877-2.01.587-5.629-.25-8.25-.731-2.29-2.868-3.88-4-6-1.742-3.263-4.058-6.556-4.25-10.25-.167-3.212.808-6.686 2.75-9.25 1.131-1.493 2.946-3.503 4.75-3 1.795.5 1.44 3.468 2.5 5 1.745 2.522 3.763 4.957 6.25 6.75 4.75 3.424 10.283 5.984 16 7.25 7.811 1.73 16.13 1.684 24 .25 6.333-1.154 12.212-4.181 18-7 10.716-5.219 20.896-11.545 30.75-18.25 3.487-2.372 6.094-6.16 10-7.75 1.806-.735 4.256-1.861 5.813-.688.948.715.889 2.381.594 3.531-1.313 5.117-5.89 8.898-9.813 12.438-18.75 16.919-42.948 26.611-64 40.563-15.44 10.232-32.379 18.741-45.688 31.625-8.775 8.495-15.282 19.12-21.813 29.438-6.983 11.04-10.766 24.02-18.469 34.563-10.16 13.909-24.931 23.891-36.03 37.06-5.292 6.279-10.518 12.708-14.469 19.906-5.198 9.472-8.243 19.98-11.875 30.16-2.413 6.76-5.144 13.47-6.594 20.5-1.03 4.995-5.084 11.653-1.469 15.25 2.369 2.357 6.433.389 9.938-.719-.244-.41-.401-.886-.5-1.344-.32-1.484.298-3.01.313-4.531.02-2.092-.64-4.215-.313-6.281.367-2.319 1.54-4.451 2.5-6.594.65-1.45 1.76-2.698 2.219-4.219.562-1.861-.361-4.137.625-5.813 1.103-1.874 3.447-2.634 5.313-3.75.301-.18.587-.452.938-.469 1.01-.047 2.289.251 2.844 1.094.805 1.223.043 2.956-.156 4.406-.212 1.544-.576 3.072-1.125 4.531-.872 2.318-2.8 4.2-3.438 6.594-.713 2.678-.132 5.516-.313 8.281-.129 1.98.051 4.049-.406 5.969 1.445-.391 2.889-.791 4.313-1.25-.158-.671-.254-1.384-.313-2.031-.213-2.37.783-4.708 1.125-7.06.394-2.713.24-5.551 1.094-8.156.611-1.866 1.399-3.793 2.813-5.156.809-.781 1.884-1.816 2.969-1.813.155 0 .315.048.469.094.988.292 1.313 1.657 1.563 2.656.304 1.217.119 2.526-.156 3.75-.411 1.827-1.814 3.352-2.188 5.188-.323 1.587-.128 3.229 0 4.844.115 1.461.724 2.928 1.031 4.375.352-.167.713-.326 1.063-.5 6.814-3.388 13.08-7.959 18.75-13.03 5.854-5.233 10.465-11.72 15.531-17.719 1.746-2.068 2.773-4.973 5.125-6.313 2.02-1.148 4.562-1.206 6.875-1.031 1.324.1 3.525-.109 3.813 1.188.3 1.349-2.121 1.799-3.094 2.781-4.816 4.867-8.734 10.552-13.594 15.375-8.275 8.213-16.382 16.994-26.375 23-7.03 4.226-14.943 7.232-23 8.781-16.11 3.097-32.891 2.585-49.19.719-11.691-1.339-22.947-5.333-34.28-8.5-12.01-3.357-23.884-7.18-35.719-11.125-8.847-2.949-17.377-6.925-26.375-9.375-9.976-2.716-20.1-6.128-30.438-5.844-11.266.31-22.19 4.42-32.813 8.188-16.754 5.941-32.03 15.441-48.31 22.563-6.86 3-13.612 6.449-20.813 8.5-7.332 2.089-15.83.182-22.531 3.813-9.115 4.935-13.758 15.524-21.09 22.844-3.473 3.465-6.95 6.949-10.844 9.938-4.04 3.101-9.271 4.622-12.875 8.219-2.949 2.946-5.32 6.613-6.75 10.531-1.789 4.903-.44 10.561-2.031 15.531-1.079 3.369-5.163 5.841-5 9.375.173 3.733 2.73 7.885 6.156 9.375 3.18 1.382 7.311.056 10.25-1.781 3.263-2.039 4.822-6.05 6.75-9.375 4.139-7.146 6.633-15.11 10.25-22.531 1.113-2.276 1.868-4.816 3.5-6.75 2.612-3.087 6.457-9.782 9.656-7.313 2.425 1.872-2.247 5.704-3.5 8.5-2.66 5.937-5.771 11.657-8.5 17.563-3.044 6.587-7.284 12.806-8.781 19.906-.823 3.917-2.486 8.895 0 12.03 2.93 3.692 9.08 2.577 13.75 3.219 2.227.306 4.541.695 6.75.281 5.976-1.117 11.908-3.56 16.688-7.313 1.643-1.29 2.918-3.112 3.813-5 1.633-3.445 2.525-7.314 2.625-11.125.086-3.273-1.68-6.382-1.75-9.656-.085-4.238.687-8.491 1.75-12.594 1.156-4.458 2.978-8.738 5-12.875 1.75-3.58 2.183-9.943 6.156-10.25 1.52-.118 2.107 2.2 2.906 3.5 1.942 3.17 1.172 8.416 4.406 10.25 3.171 1.798 7.703.382 10.844-1.469 4.928-2.905 7.194-8.914 10.25-13.75 3.01-4.763 3.382-11.58 7.906-14.938 6.95-5.157 17.224-2.368 25.469-5 5.41-1.728 10.436-4.491 15.531-7 2.978-1.466 5.581-3.816 8.781-4.688 2.263-.616 4.721-.716 7.03-.313 7.376 1.289 13.793 5.812 20.781 8.5 3.488 1.341 7.07 2.473 10.563 3.813 33.851 12.994 68.57 24.299 100.75 41 11.225 5.825 19.916 16.48 31.906 20.5 9.747 3.268 20.479 1.897 30.75 2.344 8.974.39 18.03 1.171 26.969.281 7.945-.791 15.782-2.597 23.406-4.969 6.561-2.041 13.04-4.54 19.03-7.906 8.954-5.03 16.865-11.766 24.906-18.16 8.183-6.502 15.504-14.04 23.719-20.5 3.3-2.596 6.308-5.866 10.25-7.313 1.104-.405 2.541-.946 3.531-.313.962.616 1.446 2.114 1.156 3.219-.686 2.612-4.116 3.513-6.156 5.281-12.653 10.964-24.9 22.399-37.781 33.09-6.946 5.767-13.343 12.515-20.844 17.469 1.108 1.39 1.852 3.079 2.625 4.688.845 1.758 2.633 3.645 2.031 5.5-.174.538-.856.809-1.406.938-1.18.275-2.563.115-3.625-.469-1.073-.59-1.692-1.776-2.344-2.813-.902-1.434-2.247-2.942-3.188-4.5-1.318.609-2.671 1.136-4.063 1.563 1.073.913 2.078 1.914 3.03 2.938 2.029 2.18 3.918 4.489 5.469 7.03.84 1.377 2.511 2.867 2.031 4.406-.307.984-1.626 1.536-2.656 1.563-1.355.034-2.505-1.068-3.594-1.875-3.176-2.354-5.91-5.33-8.313-8.469-.964-1.259-2.397-2.563-3.344-3.938-1.229.206-2.465.383-3.688.563-.21.031-.415.066-.625.094.454 1.29.896 2.612 1.688 3.594 3.713 4.604 10.227 6.855 13.03 12.06 1.055 1.958 2.74 5.098 1.094 6.594-1.2 1.091-3.264-.533-4.719-1.25-2.54-1.251-4.696-3.206-6.719-5.188-2.867-2.81-5.596-5.89-7.531-9.406-1-1.818-2.621-3.884-3.344-5.906-1.916.055-3.832.045-5.75.031.732 1.377 1.26 2.911 2.188 4.156 3.534 4.743 7.754 8.948 12.06 13 3 2.823 8.237 3.942 9.563 7.844.518 1.524.154 3.671-1.094 4.688-1.621 1.32-4.324.969-6.25.156-4.393-1.855-6.679-6.825-9.719-10.5-4.095-4.952-8.897-9.598-11.438-15.5-.532-1.236-1.18-2.64-1.344-4-4.339-.183-8.659-.549-13-.75-2.44-.113-5.174-1.434-7.344-.313-2.069 1.07-4.165 3.578-3.781 5.875 2.614 15.641 26.701 17.64 37.469 29.28 6.6 7.136 12.204 15.418 16.12 24.313 2.083 4.725 3.75 15.03 3.75 15.03h260.03c0 0 .948-28.15-.625-42.09-2.593-22.973-5.753-46.39-14.438-67.813-9.471-23.365-25.434-43.672-40.22-64.09-6.898-9.528-16.15-17.247-22.531-27.12-2.266-3.506-4.559-7.183-5.5-11.25-.695-3-1.351-6.478 0-9.25 1.066-2.188 3.477-5.37 5.75-4.5 3.557 1.361.421 7.784 2 11.25 2.53 5.555 6.389 10.913 11.5 14.25 5.061 3.304 11.714 3 17.5 4.75 5.55 1.677 11.433 2.683 16.5 5.5 5.02 2.789 8.516 7.753 13.25 11 2.677 1.836 5.383 3.847 8.5 4.75 4.409 1.278 10.604 4.092 13.75.75 4.485-4.764-.757-13.13-2.25-19.5-1.516-6.467-2.866-13.361-6.75-18.75-10.235-14.201-26.801-22.619-41.25-32.5-5.828-3.985-13.12-5.899-18.25-10.75-1.528-1.445-3.724-3.159-3.5-5.25.79-7.383 9.02-12.979 16-15.5 1.159-.418 2.375-.554 3.625-.5-.023-1.782.04-3.584.281-5.344.369-2.687 1.289-5.264 2.219-7.813.865-2.372 1.824-4.742 3.125-6.906.883-1.469 1.638-3.211 3.125-4.063.731-.418 1.676-.486 2.5-.313.596.126 1.377.368 1.594.938 1.246 3.274-1.878 6.77-3.156 10.03-.887 2.263-2.428 4.234-3.125 6.563-.766 2.559-1.027 5.262-1.188 7.938.25.071.505.146.75.219 7.367 2.176 13.916 6.653 20.25 11 6.678 4.583 13.592 9.308 18.5 15.75 5.852 7.681 6.262 18.675 12.25 26.25 3.164 4 6.996 8.508 12 9.5 4.761.944 11.904.378 14-4 3.515-7.343-7.225-14.683-9.5-22.5-2.243-7.708-1.644-16.08-4-23.75-4.411-14.366-10.835-28.23-18.75-41-3.558-5.742-9.154-10.03-12.75-15.75-1.186-1.885-3.664-4.172-4.688-6.25-.964-.688-1.821-1.488-2.469-2.469-1.175-1.779-1.747-4.063-1.563-6.188.252-2.9 2.32-5.368 3.563-8 1.622-3.436 3.114-6.945 5.094-10.188 1.432-2.346 2.13-6.512 4.875-6.656 1.097-.058 1.823 1.413 2.219 2.438.693 1.792.253 3.877 0 5.781-.373 2.807-.955 5.653-2.219 8.188-1.128 2.262-4.01 3.558-4.656 6-.402 1.515.417 3.107.656 4.656.058.372.094.744.125 1.125 6.722.544 15.395 9.136 21.813 13.06 12.04 7.368 22.429 17.371 32 27.75 4.486 4.864 6.978 11.416 11.75 16 3.117 2.994 6.917 9.246 10.75 7.25 4.288-2.233-.376-9.707.25-14.5 1.079-8.257 6.255-15.927 6-24.25-.316-10.301-3.236-21.13-9.25-29.5-7.03-9.786-19.448-14.239-29.25-21.25-8.124-5.81-18.25-9.459-24.5-17.25-1.559-1.943-3.264-4.307-3.719-6.75-1.108-1.326-1.946-3.01-2.875-4.438-1.786-2.741-3.977-5.612-4.219-8.875-.131-1.771 1.144-3.367 1.563-5.094.583-2.408 1.06-4.847 1.313-7.313.309-3.01.182-6.06.219-9.09.034-2.807-.575-5.658 0-8.406.528-2.526.545-7.03 3.125-7.094 2.477-.064 2.411 4.317 3.313 6.625 1.259 3.223 2.436 6.567 2.875 10 .347 2.713.359 5.515-.219 8.188-.643 2.977-3.053 5.398-3.531 8.406-.419 2.636-.093 5.438.656 8 .347 1.188.962 2.255 1.625 3.313 7.125-.055 11.01 10.326 17.625 13.531 8 3.878 17.424 3.87 25.75 7 10.501 3.947 19.465 11.663 30.25 14.75 3.866 1.107 9.393 4.313 12 1.25 7.442-8.744-2.66-23.677-9-33.25-7.603-11.481-21.537-17.17-32.5-25.5-8.732-6.636-18.568-11.926-26.5-19.5-3.257-3.11-11.02-6.769-8.5-10.5 5.078-7.512 16.976 7.113 26 8 5.669.557 11.518-.202 17-1.75 6.851-1.935 12.461-7.108 19.25-9.25 6.846-2.16 18.335 3.06 21.25-3.5 2.816-6.337-6.851-12.139-11.25-17.5-4.262-5.194-8.543-10.894-14.5-14-7.304-3.808-16.06-3.864-24.25-4.75-11.27-1.219-22.691.038-34-.75-2.539-.177-6.327.802-9.125.75-1.816.51-3.759.683-5.625.938-2.59.353-5.211.569-7.813.313-2.888-.284-5.746-1.028-8.469-2.031-3.354-1.237-6.321-3.336-9.563-4.844-4.372-2.034-9.989-2.162-13.313-5.656-1.993-2.096-3.741-5.361-3-8.156.456-1.72 2.337-3.152 4.094-3.438.156-.025.314-.055.469-.063 2.326-.114 4.504 1.692 6.563 2.875 2.356 1.354 4.263 3.402 6.438 5.03 2.935 2.2 5.508 5.105 8.938 6.406 4.812 1.826 10.254.802 15.344 1.563 1.145.171 2.51.128 3.906.063 4.885-4.387 19.15-3.527 25.906-7.75 8.433-5.27 16.225-11.72 23-19 4.112-4.418 12.438-9.03 10.5-14.75-2.183-6.441-12.763-5.072-19.5-6-13.295-1.831-27.03-1.297-40.25 1-10.204 1.773-19.418 7.383-29.5 9.75-7.099 1.666-18.499 9.146-23.06 5.531-1.454-.319-2.794-1.251-4.281-1.438-3.842-.481-8.117 2.329-11.594.625-2.225-1.09-4.603-3.646-4.219-6.094.306-1.951 2.784-3.1 4.688-3.625.273-.075.537-.103.813-.125 1.931-.152 3.96.835 5.938.906 2.404.087 4.814-.26 7.219-.313 1.964-.043 3.918-.046 5.875-.031 5.903-2.506 14.443-4.228 18.625-7.938 10.09-8.951 19.864-18.99 26-31 5.122-10.03 15.354-24.02 8.25-32.75-1.421-1.747-3.495-2.326-5.844-2.281m-194.16 13.75c-2.149.05-4.609 1.634-6.25 3.03-3.036 2.585-3.406 7.214-5.25 10.75-2.117 4.059-3.26 8.971-6.281 12.313.959.296 1.922.571 2.906.781 2.471.528 5.01.846 7.531.938 3.511.127 7.526-2.12 10.719-1.219.694-4.047.778-8.212.625-12.313-.172-4.628 1.909-11.266-2-13.75-.606-.385-1.284-.548-2-.531m180.75 1.375c1.066 0 2.35.771 2.688 1.781.918 2.748-1.299 5.777-2.906 8.188-2.756 4.135-7.098 6.972-11.06 9.969-7.521 5.686-15.49 10.874-23.938 15.06-8.483 4.206-17.462 7.497-26.594 10-7.31 2-14.965 5.409-22.406 3.969-3.421-.662-6.589-2.874-8.844-5.531-.621-.732-1.354-1.723-1.125-2.656.138-.56.791-.96 1.344-1.125 3.134-.938 6.479 1.178 9.75 1.125 8.661-.14 17.425-1.184 25.688-3.781 9.141-2.873 17.645-7.684 25.719-12.844 8.284-5.293 15.12-12.608 23.06-18.406 2.797-2.042 5.162-5.75 8.625-5.75m-136.75 11.75c1.558 0 3.369 1.013 4 2.438.64 1.444-.2 3.228-.875 4.656-1.972 4.174-5.872 7.119-8.875 10.625-4.801 5.606-9.414 11.397-14.625 16.625-4.877 4.893-8.682 12.85-15.531 13.75-2.129.28-4.878-.912-5.75-2.875-1.121-2.523 1.34-5.383 2.219-8 1.341-3.993 2.384-8.204 4.656-11.75 2.481-3.872 5.595-7.592 9.531-9.969 1.381-.834 3.221-.575 4.656-1.313 3.273-1.683 5.608-4.766 8.625-6.875 3.832-2.679 7.293-7.313 11.969-7.313m133.5 5.688c.585-.029 1.116.097 1.5.5 2.06 2.164.088 6.252-1.344 8.875-4.239 7.766-12.28 13.07-19.938 17.5-8.716 5.04-18.628 8.305-28.594 9.75-3.586.52-7.771 1.431-10.875-.438-.879-.529-1.797-1.665-1.531-2.656.771-2.877 5.03-3.233 7.75-4.438 5.47-2.42 11.585-3.13 17.06-5.531 8.695-3.812 17.324-8.133 24.813-13.969 3.133-2.442 4.652-6.908 8.219-8.656.833-.408 1.962-.889 2.938-.938m51 43.09c1.72-.095 3.368.088 4.719 1.031.883.617 1.768 2.01 1.281 2.969-1.02 2.01-4.39 1.08-6.594 1.563-3.903.855-7.864 1.416-11.75 2.344-5.116 1.222-10.1 3.06-15.219 4.25-7.196 1.671-14.473 2.985-21.781 4.063-6.238.92-12.543 2.704-18.813 2.031-.329-.035-.734-.052-.938-.313-.419-.537.097-1.399-.156-2.031-.276-.689-1.566-.994-1.406-1.719.388-1.757 3.162-1.794 4.875-2.344 3.23-1.036 6.692-1.121 10.03-1.719 4.498-.805 8.983-1.657 13.469-2.531 7.954-1.551 15.843-3.375 23.813-4.844 4.426-.815 8.82-1.927 13.313-2.188 1.645-.095 3.437-.468 5.156-.563m-93.53 10.188c1.149.089 2.413.979 3.594 1.188.677.12 1.401.04 2.031.313 1.4.606 2.639 1.649 3.625 2.813 1.27 1.498 2.409 3.234 2.813 5.156.377 1.796.787 4.162-.469 5.5-1.446 1.541-4.21 1.354-6.281.938-1.678-.337-3.19-1.422-4.375-2.656-1.944-2.024-3.84-4.578-4.063-7.375-.159-1.993.29-4.643 2.031-5.625.348-.196.711-.28 1.094-.25m84.41 1.344c.774.012 1.529.152 2.25.469.957.42 2.177 1.5 1.875 2.5-.497 1.645-3.215 1.171-4.844 1.719-1.143.385-2.313.657-3.438 1.094-2.092.812-4.108 1.83-6.125 2.813-1.953.952-3.81 2.087-5.781 3-2.104.974-4.257 1.869-6.438 2.656-2.16.78-4.344 1.568-6.594 2.031-2.418.498-4.875.787-7.344.781-2.838-.007-5.886.241-8.469-.938-.841-.384-1.661-1.028-2.031-1.875-.419-.957-.527-2.223 0-3.125.696-1.192 2.299-1.554 3.594-2.031 3.845-1.418 8.04-1.576 12.06-2.375 3.869-.769 7.741-1.496 11.594-2.344 4.195-.923 8.295-2.257 12.531-2.969 2.33-.391 4.834-1.442 7.156-1.406m-277.09 1.031c.447.002.868.025 1.313.063 2.504.213 4.745 1.683 7.06 2.656 2.177.914 4.27 2.034 6.438 2.969 1.808.78 3.554 1.757 5.469 2.219 2.193.529 4.544.15 6.75.625 1.728.372 4.075.213 5 1.719.994 1.618.344 4.096-.781 5.625-1.164 1.581-3.469 1.858-5.313 2.531-2.285.835-4.809.958-7.06 1.875-3.553 1.446-6.412 4.355-10.03 5.625-3.347 1.175-6.953 1.682-10.5 1.719-2.955.031-5.833-1.041-8.781-1.25-3.96-.281-7.941-.198-11.906 0-2.097.105-4.267.03-6.281.625-2.084.615-3.669 2.489-5.781 3-1.066.258-2.329.545-3.281 0-.894-.512-1.54-1.659-1.594-2.688-.099-1.891 1.307-3.592 2.375-5.156 1.479-2.166 3.352-4.108 5.469-5.656 1.98-1.448 4.469-2.056 6.594-3.281 2.385-1.376 4.655-2.947 6.906-4.531 2.991-2.104 5.407-5.111 8.75-6.594 2.852-1.265 6.06-2.105 9.188-2.094m8.688 11.906c-.618.015-1.244.128-1.813.313-.553.18-.972.646-1.406 1.031-.611.542-1.039 1.316-1.688 1.813-.728.558-1.532 1.135-2.438 1.281-.77.124-1.693.106-2.281-.406-.54-.47-.236-1.451-.656-2.031-.216-.298-.585-.478-.906-.656-.971-.54-1.953-1.227-3.063-1.281-1.606-.079-3.413.349-4.625 1.406-.922.804-1.6 2.122-1.531 3.344.079 1.397 1.072 2.749 2.188 3.594 1.273.963 3.01 1.053 4.594 1.281 2.622.379 5.359.582 7.969.125 1.305-.228 2.591-.71 3.719-1.406 1.235-.762 2.347-1.755 3.188-2.938.809-1.138 1.881-2.465 1.656-3.844-.093-.567-.6-1.079-1.125-1.313-.546-.243-1.163-.327-1.781-.313m24.688 8.25c1.026.027 1.977.273 2.75.906 1.442 1.182 1.524 3.654 1.094 5.469-.49 2.064-2.235 3.765-3.938 5.03-2.654 1.975-6.169 2.313-9.219 3.594-4.808 2.02-9.376 4.669-14.281 6.438-3.517 1.268-7.082 3.223-10.813 2.969-1.588-.108-3.421-.601-4.375-1.875-.788-1.053-.928-2.674-.469-3.906.542-1.455 2.114-2.343 3.438-3.156 1-.615 2.192-.811 3.281-1.25 2.844-1.147 5.7-2.276 8.469-3.594 2.827-1.346 5.532-2.966 8.313-4.406 3.485-1.805 6.683-4.399 10.5-5.313 1.62-.387 3.54-.951 5.25-.906m-130.12 8.906c1.379-.008 2.997.405 3.875 1.469 1.288 1.559 1.465 4 1 5.969-.462 1.956-2.088 3.476-3.531 4.875-2.31 2.239-5.071 4.106-8 5.438-1.46.664-3.077 1.499-4.656 1.219-1.594-.283-3.431-1.254-3.969-2.781-.653-1.852.643-3.974 1.656-5.656 1.065-1.768 2.868-2.973 4.438-4.313 1.647-1.405 3.584-2.421 5.188-3.875.407-.369.672-.909 1.125-1.219.849-.581 1.846-1.119 2.875-1.125m314.66.094c.469.026.942.265 1.406.375 1.543.366 3.249.517 4.563 1.406 2.061 1.395 3.278 3.73 4.688 5.781 2.01 2.932 3.6 6.149 5.344 9.25.905 1.61 2.993 3.059 2.656 4.875-.325 1.749-2.302 3.182-4.063 3.438-2.315.336-4.676-1.273-6.438-2.813-1.889-1.651-2.379-4.447-3.906-6.438-1.844-2.404-5.065-3.819-6.281-6.594-.967-2.206-1.317-4.934-.469-7.188.338-.899 1.117-1.738 2.031-2.031.151-.048.312-.071.469-.063m42.906 12.875c.479-.026.937.016 1.375.125 1.836.458 3.19 2.109 4.438 3.531 2.164 2.467 2.672 6.223 5.094 8.438 2.731 2.497 6.441 3.757 9.969 4.875 5.778 1.831 11.93 2.356 17.969 2.875 5.889.507 11.857-.54 17.719.219 4.229.548 9.955-.343 12.438 3.125 1.036 1.447.824 4.09-.469 5.313-1.987 1.879-5.453.182-8.188.219-3.546.048-7.112.122-10.656 0-10.732-.37-21.786.683-32.12-2.219-6.49-1.821-13.305-4.416-17.938-9.313-2.227-2.354-3.779-5.642-4-8.875-.179-2.612.276-5.775 2.219-7.531.558-.504 1.357-.738 2.156-.781m42.5 2.188c1.305 0 2.602.101 3.875.375 4.913 1.058 9.495 3.543 13.75 6.219 2.042 1.284 5.04 2.263 5.531 4.625.268 1.294-.596 2.979-1.781 3.563-2.431 1.197-5.392-.725-7.969-1.563-3.489-1.134-6.364-3.974-9.969-4.656-5.819-1.102-11.835 1.416-17.75 1.125-2.766-.136-6.095.47-8.188-1.344-.936-.811-1.134-2.293-1.094-3.531.033-1.029.275-2.252 1.094-2.875 4.254-3.236 10.631-1.304 15.969-1.563 2.168-.105 4.356-.374 6.531-.375m-184.09 12.375c1.205-.019 2.395.288 3.094 1.125 1.139 1.364.408 3.659-.156 5.344-.631 1.883-2.043 3.43-3.438 4.844-5.724 5.802-12.686 10.373-19.75 14.438-6.873 3.955-14.12 7.508-21.781 9.563-7.311 1.961-14.995 2.63-22.563 2.5-4.698-.081-11.194 1.761-13.969-2.031-1.719-2.35-.741-6.659 1.406-8.625 1.043-.955 2.841-.439 4.25-.313 1.666.149 3.213.877 4.844 1.25 2.077.475 4.15 1.224 6.281 1.25 3.341.041 6.604-1.04 9.875-1.719 5.682-1.179 11.502-1.948 16.906-4.063 7.58-2.965 14.787-7.07 21.313-11.938 4.324-3.224 6.489-9.632 11.625-11.281.623-.2 1.339-.332 2.063-.344m120.19.313c.426-.005.875.051 1.281.094.999.104 2 .437 2.906.875 2.342 1.135 4.288 2.925 6.406 4.438 3.439 2.456 8.129 3.84 10.188 7.531.867 1.554 1.656 4.02.469 5.344-1.824 2.037-5.549.811-8.219.219-3.548-.787-6.819-2.727-9.75-4.875-2.655-1.946-6.229-3.866-6.875-7.094-.436-2.179.66-4.885 2.438-6.219.326-.245.73-.308 1.156-.313m-322.41 4.625c-.761.006-1.533.017-2.281.031-6.111.117-12.453.933-18 3.5-3.39 1.569-5.333 5.491-8.75 7-6.329 2.796-13.591 3.607-20.5 3.25-7.752-.401-14.908-4.382-22.5-6-4.623-.985-9.351-3.102-14-2.25-3.782.693-7.538 2.797-10 5.75-1.755 2.105-2.478 5.02-2.75 7.75-.059.586.115 1.177.25 1.75.242 1.026.176 2.343 1 3 4.06 3.235 10.422.422 15.5 1.5 6.96 1.477 13.227 5.61 20.25 6.75 4.689.761 9.541.621 14.25 0 7.01-.925 14.08-2.526 20.5-5.5 5.978-2.769 10.295-8.432 16.25-11.25 5.484-2.595 11.647-3.403 17.5-5 4.153-1.133 11.241.867 12.5-3.25.552-1.807-2.093-3.343-3.75-4.25-4.596-2.515-10.14-2.821-15.469-2.781m350.19 35.16c.594-.002 1.185.146 1.656.438 1.405.869 1.259 3.093 2.219 4.438 3.431 4.804 7.345 9.586 12.406 12.625 5.812 3.49 13.211 3.22 19.5 5.75 6.56 2.639 13.346 5.303 18.844 9.75 4.612 3.73 11.959 7.854 11.313 13.75-.235 2.145-2.968 3.632-5.094 4-2.532.438-5.529-.587-7.313-2.438-2.19-2.273-.658-6.651-2.656-9.09-3.01-3.684-8.274-4.8-12.656-6.656-8.519-3.608-18.11-4.462-26.375-8.625-4.448-2.242-9.04-4.799-12.188-8.656-2.197-2.69-4.358-6.06-4.219-9.531.081-2.01 1.174-4.281 2.906-5.313.476-.284 1.062-.436 1.656-.438m-29.28 1.406c.788-.032 1.635.259 2.125.813 2.361 2.671 1 7.06 1.125 10.625.352 10.344 1.068 20.917-1.125 31.03-1.067 4.921-3.717 9.362-5.75 13.969-2.242 5.08-3.02 11.291-7.094 15.06-1.682 1.557-4.258 3.147-6.438 2.438-2.182-.71-3.783-3.455-3.781-5.75.005-5.656 6.818-9.112 9.313-14.188 2.793-5.683 4.73-11.815 6.219-17.969 1.351-5.585 2.071-11.328 2.438-17.06.335-5.235-1.899-10.749-.219-15.719.421-1.246 1.197-2.688 2.438-3.125.232-.082.487-.114.75-.125m35.16 20.75c2.412.042 4.266 2.262 6.438 3.313 4.524 2.19 9.06 4.338 13.719 6.219 5.092 2.055 10.763 2.808 15.531 5.531 2 1.145 4.681 2.217 5.313 4.438.511 1.798-.128 4.441-1.781 5.313-3.33 1.757-7.228-2.045-10.844-3.094-5.03-1.458-10.435-2.045-15.09-4.438-6.836-3.51-16.752-6.632-18.16-14.188-.079-.424.337-.804.656-1.094 1.151-1.043 2.666-2.027 4.219-2m-20.938 28.563c1.711-.023 3.161 2.053 4.094 3.563 1.112 1.8.222 4.406 1.313 6.219 3.432 5.707 9.948 8.898 15.313 12.844 8.833 6.496 20.388 9.568 27.688 17.75 2.684 3.01 4.207 6.976 5.344 10.844 1.615 5.495 3 11.429 1.969 17.06-.376 2.048-1.122 4.44-2.875 5.563-1.308.837-3.383 1.109-4.656.219-2.03-1.419-.913-4.989-2.219-7.094-2.425-3.907-6.208-6.885-9.969-9.531-4.188-2.947-9.201-4.523-13.75-6.875-5.432-2.808-11.473-4.725-16.16-8.656-5.32-4.466-11.63-9.572-12.875-16.406-.258-1.414-.178-3.054.281-4.531.11.305.234.606.375.875 1.881 3.581 6.51 4.83 10 6.875 4.199 2.46 8.864 4.03 13.09 6.438 3.533 2.01 6.883 4.333 10.219 6.656 2.648 1.845 4.769 6.94 7.781 5.781 1.409-.542 1.412-3.03.875-4.438-2.144-5.631-9.519-7.394-14.438-10.875-7.674-5.432-14.355-13.551-23.25-16.219-.004-.005-.027.005-.031 0-1.844-2.342-3.112-4.92-3.344-7.844-.251-3.17 1.746-7.619 4.875-8.188.116-.021.23-.03.344-.031m-226.88 17.562c.54-.027 1.064.011 1.563.188.492.174.974.625 1.125 1.125.546 1.803-.236 3.871-1.125 5.531-1.331 2.487-3.983 3.997-5.969 6-4.23 4.267-9.35 7.827-12.656 12.844-3.647 5.533-2.419 14.19-7.531 18.406-2.325 1.918-6.46 3.553-8.875 1.75-1.962-1.465-1.062-4.898-.656-7.313.685-4.076 2.971-7.735 5.094-11.281 3.301-5.516 7.211-10.761 11.75-15.313 4.351-4.364 8.906-9.02 14.625-11.313.819-.328 1.756-.58 2.656-.625m192.28 12.719c1.394.014 2.871.545 3.688 1.5 1.629 1.906.622 5.102 0 7.531-1.24 4.847-4.376 9.04-7.219 13.156-7.03 10.183-16.499 18.473-24.12 28.22-8.862 11.325-17.639 22.796-25.09 35.09-4.069 6.713-7.891 13.653-10.656 21-1.634 4.34-3.34 8.864-3.438 13.5-.117 5.552 3.563 10.729 3.438 16.281-.066 2.914-.022 6.519-2.188 8.469-1.57 1.414-4.493 2.063-6.281.938-3.608-2.271-3.297-7.979-3.75-12.219-1.035-9.698.179-19.684 2.5-29.16 1.94-7.915 5.422-15.453 9.406-22.563 7.315-13.05 16.877-24.786 26.344-36.37 9.964-12.198 24.1-21.14 31.969-34.781 1.75-3.035.149-8.183 3.125-10.03.64-.398 1.445-.571 2.281-.563m7.469 25.719c.364-.012.707.012 1.063.094.519.119.641.882.906 1.344 1.843 3.209 2.714 6.965 4.875 9.969 4.302 5.98 11.17 9.706 15.719 15.5 4.358 5.551 8 11.741 10.875 18.19 2.14 4.803 5.921 9.959 4.656 15.06-.553 2.231-2.595 4.584-4.875 4.875-1.445.184-2.893-1.064-3.781-2.219-2.852-3.709-1.563-9.381-3.781-13.5-2.508-4.657-5.616-9.727-10.406-11.969-3.213-1.503-7.15.495-10.625-.219-3.669-.753-7.294-2.182-10.438-4.219-2.236-1.449-5.832-2.868-5.75-5.531.059-1.938 2.498-3.795 4.438-3.781 3.141.022 4.276 4.829 7.094 6.219 2.365 1.166 5.167 2.061 7.75 1.531 1.405-.288 3.173-1.048 3.531-2.438.33-1.28-.898-2.521-1.75-3.531-1.772-2.101-4.464-3.217-6.656-4.875-3.064-2.318-7.365-3.662-9.09-7.094-1.33-2.64-1.654-6.291-.219-8.875 1.238-2.229 3.919-4.447 6.469-4.531m-578.69 8.06c-2.16.052-4.306.259-6.406.719-7.102 1.554-13.362 5.686-20.19 8.188-6.174 2.263-12.954 3.051-18.75 6.156-8.212 4.399-15.908 10.206-21.969 17.281-4.663 5.444-10.647 11.582-10.563 18.75.043 3.633 2.725 7.115 5.594 9.344 1.366 1.061 3.247 1.635 4.969 1.469 2.956-.285 5.977-1.836 7.906-4.094 3.811-4.459 2.438-11.723 5.563-16.688 2.243-3.564 4.957-7.989 9.09-8.781 1.763-.338 4.524.292 4.969 2.031.808 3.161-4.348 4.909-6.156 7.625-3.073 4.618-6.189 9.381-7.906 14.656-1.128 3.466-2.066 7.217-1.469 10.813.465 2.799 1.616 5.828 3.813 7.625 2.896 2.369 7.132 3.414 10.844 2.938 5.465-.701 10.786-4.01 14.344-8.219 4.567-5.401 3.502-13.947 7.313-19.906 2.9-4.537 6.51-9.236 11.438-11.406 4.02-1.773 9.137-2.306 13.188-.594 2.166.915 2.637 4.046 4.656 5.25 2.929 1.746 6.593 2.828 9.969 2.344 4.111-.59 6.922-4.757 10.844-6.125 2.986-1.041 6.389-2.509 9.375-1.469 3.262 1.136 3.844 6.261 7.03 7.594 2.703 1.13 6.295 1.27 8.781-.281 3-1.873 1.641-8.176 4.969-9.375 1.688-.609 3.612.925 5 2.063 2.177 1.785 2.277 5.525 4.656 7.03 2.835 1.795 6.69 2.182 9.969 1.469 1.931-.42 3.539-1.885 4.969-3.25 1.822-1.74 2.074-5.172 4.406-6.125 1.56-.637 3.442.162 4.969.875 2.888 1.348 4.505 4.708 7.344 6.156 3.227 1.647 6.926 2.266 10.531 2.625 4.182.416 8.493.326 12.594-.594 3.715-.833 7.04-5.905 10.531-4.375 2.093.919 1.429 4.343 2.344 6.438 1.624 3.721 2.686 7.978 5.563 10.844 4.423 4.406 12.05 4.32 16.719 8.469 2.894 2.573 3.64 7.01 6.438 9.688 3.133 2.999 7.524 4.303 11.125 6.719 2.724 1.828 4.853 4.676 7.906 5.875 3.292 1.292 7.815-1.108 10.531 1.156 2.349 1.958.976 6.227 2.656 8.781 3.503 5.326 9.419 8.633 14.625 12.313 3.145 2.222 6.305 4.657 9.969 5.844 3.918 1.27 8.195 1.068 12.313 1.188 2.637.076 5.77 1.234 7.906-.313 9.108-6.593 7.407-21.241 11.719-31.625 3.216-7.746 10.741-14.46 10.531-22.844-.058-2.314-1.556-4.546-3.219-6.156-19.01-18.408-48.01-22.288-71.47-34.531-12.903-6.735-24.06-17.448-38.06-21.406-4.795-1.355-9.984-1.1-14.938-.563-11.135 1.209-21.425 7.02-32.531 8.469-11.241 1.469-22.724 1.328-34 .156-7.635-.793-14.93-3.574-22.5-4.844-14.355-2.408-28.799-4.7-43.34-5.25-2.149-.081-4.341-.177-6.5-.125m341.91 11.5c.461.02.951.122 1.375.25.765.232 1.517.685 1.969 1.344 1.155 1.686.987 3.988 1.344 6 .195 1.101.879 2.286.438 3.313-1.297 3.01-5.062 4.228-7.969 5.75-3.54 1.854-7.885 1.947-11.313 4-3.948 2.365-6.667 6.349-10.188 9.313-3.504 2.951-6.385 9.314-10.875 8.406-1.329-.269-2.046-2.176-2-3.531.087-2.56 2.569-4.478 4.219-6.438 3.972-4.719 8.454-9.123 13.531-12.625 3.59-2.476 8.477-2.867 11.75-5.75 2.922-2.573 2.978-7.935 6.406-9.781.39-.21.851-.27 1.313-.25m-377.62 28.28c1.366-.021 2.961.842 4.375.906 1.878.085 3.835-.574 5.625 0 1.4.449 3.123 1.17 3.594 2.563.372 1.101-.198 2.502-1.031 3.313-1.144 1.113-3 1.351-4.594 1.281-2.917-.128-5.658-1.66-8.219-3.063-.749-.41-1.777-.716-2.031-1.531-.323-1.032.095-2.502 1-3.094.395-.258.826-.368 1.281-.375m-1.781 10.125c2.274.128 4.625 1.346 6.906 1.781 1.63.311 4.1-.435 4.875 1.031.734 1.389-.461 3.524-1.781 4.375-2.01 1.296-4.837.172-7.188-.281-2.229-.43-4.906-.609-6.406-2.313-.521-.591-.72-1.525-.5-2.281.27-.928 1.11-1.77 2.031-2.063.362-.115.726-.184 1.094-.219.321-.031.644-.05.969-.031m569.69 7.781c.664 0 1.359.155 1.938.375 3.544 1.348 5.331 5.409 8.156 7.938 3.744 3.351 7.533 6.691 11.656 9.563 5.159 3.592 11.23 5.748 16.25 9.531 5.393 4.063 10.797 8.451 14.688 13.969 2.675 3.794 4.761 8.194 5.656 12.75.375 1.909 1.483 4.815-.188 5.813-1.81 1.081-4.062-1.433-5.656-2.813-2.497-2.161-3.222-5.894-5.656-8.125-2.704-2.48-6.101-4.199-9.531-5.5-5.176-1.962-10.974-1.771-16.281-3.344-3.882-1.15-7.722-2.567-11.313-4.438-3.769-1.963-7.589-4.058-10.594-7.06-1.653-1.653-3.357-3.572-3.906-5.844-.488-2.02-.972-4.983.719-6.188 1.327-.946 3.459.11 4.781 1.063 3.066 2.21 3.159 7.03 5.813 9.719 3.455 3.505 7.967 6.02 12.563 7.781 3.745 1.435 7.927 2.988 11.844 2.125 1.405-.309 3.358-1.041 3.531-2.469.226-1.866-2.237-3.094-3.719-4.25-4.384-3.42-10.07-4.736-14.844-7.594-3.814-2.285-7.326-5.04-10.969-7.594-2.01-1.406-4.581-2.25-6-4.25-1.241-1.749-1.704-4.04-1.75-6.188-.032-1.515-.136-3.44 1.031-4.406.477-.395 1.117-.562 1.781-.563m-574.03 3.469c1.027.013 2.044.148 3.063.281 2.16.282 4.587.082 6.406 1.281 1.385.913 3.274 2.5 2.813 4.094-.362 1.25-2.313 1.299-3.594 1.531-1.851.336-3.779.113-5.625-.25-2.493-.49-6.01-.314-7.188-2.563-.617-1.174.086-2.913 1.031-3.844.502-.494 1.361-.436 2.063-.5.341-.031.689-.036 1.031-.031m557.22 60c1.681-.075 3.196 1.125 4.594 2.063 2.259 1.514 4.04 3.644 5.906 5.625 6.893 7.333 13.909 14.673 19.469 23.06 7.619 11.498 13.04 24.334 18.719 36.906 7.225 16.01 15.555 31.847 19.469 48.969 2.424 10.604 1.97 21.69 2.313 32.563.344 10.931 7.369 24.936-.25 32.781-1.608 1.656-4.635.692-6.906.281-1.093-.198-2.104-.777-3.094-1.281-1.606-.819-3.773-1.239-4.594-2.844-1.014-1.984 1.439-4.636.5-6.656-1.109-2.387-5.063-2.33-6.406-4.594-.703-1.185-.875-2.791-.531-4.125.58-2.251 3.637-3.353 4.125-5.625.44-2.048-1.754-4.116-1.281-6.156.44-1.898 3.568-2.677 3.594-4.625.026-2.02-2.494-3.154-3.594-4.844-1.879-2.886-3.917-5.775-5.125-9-.458-1.224-1.539-2.779-.781-3.844 1.101-1.545 4.93 1 5.656-.75 1.027-2.479-3.532-4.084-4.875-6.406-.882-1.525-2.661-3.219-2.063-4.875.884-2.444 6.214-1.098 6.938-3.594.331-1.14-.878-2.33-1.813-3.063-4.277-3.352-15.15.788-15.625-4.625-.32-3.616 6.57-3.069 9.719-4.875 2.035-1.167 5.41-1.551 5.906-3.844.471-2.178-1.517-4.818-3.594-5.625-2.144-.833-4.444 1.152-6.656 1.781-1.716.488-3.487 2.239-5.125 1.531-2.455-1.061-3.646-4.482-3.594-7.156.038-1.95 3.01-3.185 2.813-5.125-.226-2.231-2.735-3.563-4.344-5.125-.785-.762-1.835-1.245-2.563-2.063-1.072-1.204-2.507-2.483-2.563-4.094-.05-1.452 1.198-2.677 2.063-3.844 1.079-1.456 3.972-2.036 3.844-3.844-.121-1.704-3.489-1.508-4.125-3.094-.773-1.93 1.255-4.09 1.031-6.156-.049-.457-.196-.936-.5-1.281-1.744-1.98-5.599-1.569-6.938-3.844-.823-1.399-.669-3.365 0-4.844 1.172-2.593 6.39-2.811 6.406-5.656.006-1.149-1.527-1.814-2.563-2.313-2.809-1.353-6.324-2.691-9.219-1.531-1.586.636-1.563 3.274-3.063 4.094-2.029 1.11-4.89 1.608-6.938.531-1.05-.553-1.998-1.927-1.781-3.094.5-2.689 4.67-3.01 6.406-5.125 1.528-1.86 3.05-4.01 3.313-6.406.145-1.318.274-3.474-1-3.844-1.452-.421-2.273 2.027-3.344 3.094-1.156 1.152-1.744 3.237-3.344 3.563-2.661.541-6.674-.707-7.438-3.313-.747-2.547 2.56-4.72 4.375-6.656 1.461-1.558 4.06-1.992 5.125-3.844.729-1.268 1.275-3.135.5-4.375-.959-1.535-3.32-1.647-5.125-1.781-1.821-.135-3.676.33-5.375 1-1.786.705-3.049 3.686-4.875 3.094-.438-.142-.528-.822-.5-1.281.175-2.824 2.096-5.434 4.094-7.438 1.242-1.246 2.867-2.484 4.625-2.563m-549.12 77.969c1.12-.09 2.416.459 3.188 1.219.961.944.781 2.597.906 3.938.236 2.514 1.433 5.708-.281 7.563-1.724 1.867-5.665 2.624-7.563.938-.758-.67-.446-2.125 0-3.03.505-1.034 2.268-1.066 2.719-2.125.755-1.774-.76-3.827-.625-5.75.058-.83-.081-1.997.625-2.438.307-.191.656-.283 1.031-.313m-3.875 24.719c.242-.013.501.026.719.125 1.194.543 1.314 2.326 1.5 3.625.129.905.102 1.888-.281 2.719-.802 1.753-2.124 3.596-3.938 4.25-2.202.795-5.12.529-6.969-.906-.859-.666-1.651-2.035-1.219-3.03.565-1.288 2.554-1.243 3.938-1.5.992-.184 2.226.608 3.03 0 1.173-.885.2-3.189 1.219-4.25.494-.519 1.266-.994 2-1.031" fill="#fff"/><g stroke="#000"><path d="m685.94 5.391c-28.984.053-56.52.198-78.43.478-87.63 1.122-173.59-.214-260.38 0-2.939.007-5.877.036-8.816.043-86.79.214-172.75 1.122-260.38 0-87.63-1.122-265.34 0-265.34 0 0 0 5.533 48.18 7.515 72.32 3.398 41.38 4.714 82.87 7.515 124.29 3.772 55.766 8.753 111.49 12.525 167.25 2.801 41.41 4.332 82.9 7.515 124.29 4.814 62.59 5.566 125.75 17.487 187.56 6.666 34.562 15.972 68.979 30.06 101.67 17.01 39.473 37.08 78.71 65.18 112.63 20.259 24.456 46.14 45.04 72.983 63.62 30.737 21.272 64.21 39.816 99.62 53.968 37.462 14.97 77.45 25.08 117.69 32.09 30.28 5.278 61.32 7.255 92.16 7.349 30.643.094 61.53-1.52 91.63-6.741 40.39-7.01 80.35-17.626 117.93-32.746 35.37-14.235 68.934-32.696 99.67-53.968 26.847-18.58 52.724-39.17 72.983-63.62 28.1-33.919 48.17-73.16 65.18-112.63 14.09-32.695 23.395-67.16 30.06-101.72 11.921-61.814 12.673-124.97 17.487-187.56 3.183-41.39 4.714-82.87 7.515-124.29 3.772-55.766 8.754-111.44 12.525-167.21 2.801-41.41 4.118-82.909 7.515-124.29 1.982-24.14 7.515-72.32 7.515-72.32 0 0-99.96-.636-186.91-.478z" fill="none" stroke-width="20"/><g fill="#da121a" stroke-linejoin="round"><g stroke-width="5"><path d="m21.297 713.4l59.58-38.922 113.32 33.35 78.27 146.02 195.59 57.57c0 0 29.64 17.07 41.749 28.896 7.124 6.959 12.915 15.364 17.584 24.16 3.877 7.304 5.576 15.593 8.438 23.351l-278.65-82.02-20.965-6.171-78.27-146.02-136.64-40.22z"/><path d="m4.348 770.98l28.994 64.993 113.32 33.35 144.9-80.33 195.59 57.57c0 0 34.16 1.711 50.746-1.671 9.758-1.99 19.18-5.917 27.869-10.781 7.216-4.04 13.13-10.09 19.743-15.06l-278.65-82.02-20.965-6.171-144.9 80.33-136.64-40.22z"/></g><path d="m1565.75 519.66c0 5.8-5.02 10.502-11.221 10.502-6.197 0-11.221-4.702-11.221-10.502 0-5.8 5.02-10.502 11.221-10.502 6.197 0 11.221 4.702 11.221 10.502z" transform="matrix(.25038-.85064.9089.26753-651.68 1983.51)" stroke-linecap="round" stroke-width="5.455"/></g><path d="m-140.7 650.56h962.26" fill="none" stroke-linecap="round" stroke-width="5"/></g></g></svg>