<?xml version="1.0" encoding="UTF-8" standalone="no"?>
<svg xmlns:rdf="http://www.w3.org/1999/02/22-rdf-syntax-ns#" xmlns="http://www.w3.org/2000/svg" height="173.45mm" width="168.57001mm" version="1.1" xmlns:cc="http://creativecommons.org/ns#" xmlns:xlink="http://www.w3.org/1999/xlink" xmlns:dc="http://purl.org/dc/elements/1.1/">
<path d="M282.01557,614.39455c-63.90898-4.23431-127.22301-26.99072-176.19251-68.91053-50.857086-41.62165-85.180825-103.50282-91.03472-169.20337-5.5456042-125.38575-10.3138854-250.83982-14.78834-376.28065h597.2953c-5.3006,127.06718-9.409,254.24335-15.45326,381.24245-6.35421,53.76297-30.56086,105.20662-68.74425,143.72974-32.70126,35.61822-76.2688,60.24603-121.87897,75.28686-35.33014,11.42064-72.22164,15.1364-109.20325,14.1355z" fill-rule="evenodd" fill="#131516"/>
<path d="M285.43417,600.87364c-67.98356-3.96059-136.11184-29.91483-184.77395-78.50089-46.215549-43.26489-73.697346-106.08115-73.388242-169.44874-4.582523-113.14465-9.104219-226.29174-13.559153-339.441516h569.639185c-5.02437,120.820166-9.11227,241.708336-14.59628,362.490856-6.50386,68.27028-45.51666,131.22352-101.06006,170.73985-51.98087,38.90219-117.86827,56.15676-182.2615,54.16044z" fill-rule="evenodd" fill="#FFF"/>
<g id="g3011" fill-rule="evenodd" transform="translate(1.4020025,0)">
<path d="M88.192284,232.81309,70.791977,210.1118,70.676743,34.493673h90.996307l-0.23047,175.618127-17.63077,22.93176-0.11524,144.46626h-55.043351z" fill="#131516"/>
<path d="m94.837434,231.46868-17.861242-23.047-0.345702-167.513259,79.08881,0-0.42252,167.513259-17.66919,22.47082-0.30729,140.66351-42.252398,0z" fill="#005198"/>
</g>
<metadata>
<rdf:RDF>
<cc:Work rdf:about="">
<dc:format>image/svg+xml</dc:format>
<dc:type rdf:resource="http://purl.org/dc/dcmitype/StillImage"/>
<dc:title/>
</cc:Work>
</rdf:RDF>
</metadata>
<defs></defs>
<!-- EMR_GDICOMMENT --><!-- EMR_SETMAPMODE --><!-- EMR_SETVIEWPORTEXTEX --><!-- EMR_SETWINDOWEXTEX --><!-- EMR_SETWINDOWEXTEX --><!-- EMR_SETWINDOWEXTEX --><!-- EMR_SETWINDOWEXTEX --><!-- EMR_SELECTPALETTE --><!-- EMR_EXTSELECTCLIPRGN -->
<use xlink:href="#g3011" transform="translate(181.07073,0)" height="614.58661" width="597.29529" y="0" x="0"/>
<use xlink:href="#g3011" transform="translate(362.14149,0)" height="614.58661" width="597.29529" y="0" x="0"/>
<use xlink:href="#g3011" transform="translate(90.535377,191.3285)" height="614.58661" width="597.29529" y="0" x="0"/>
<use xlink:href="#g3011" transform="translate(271.60612,191.3285)" height="614.58661" width="597.29529" y="0" x="0"/>
</svg>
