<?xml version="1.0" encoding="UTF-8" standalone="no"?><svg xmlns="http://www.w3.org/2000/svg" viewBox="0 0 999.5 1119.38"><g transform="translate(27.63 8.145)"><g fill="none"><path d="m121.34 19.361c-63.28.056-121.47.5-121.47.5l6.188 686.56c0 0 14.778 68.904 28.375 101.19 45.24 112.58 141.18 189.06 245.31 236.03 34.37 15.222 71.06 25.499 107.97 32.625 27.733 5.355 56.16 7.367 84.41 7.469 28.25-.102 56.673-2.114 84.41-7.469 36.908-7.126 73.6-17.403 107.97-32.625 104.14-46.969 200.07-123.45 245.31-236.03 13.597-32.28 28.375-101.19 28.375-101.19l6.187-686.56c0 0-58.19-.444-121.47-.5-37.967-.033-77.76.072-107.91.5-80.38 1.14-159.23.218-238.84 0-1.342-.004-2.689-.022-4.03-.031-1.342.009-2.689.028-4.03.031-79.61.218-158.46 1.14-238.84 0-30.14-.428-69.939-.533-107.91-.5z" stroke="#000" stroke-width="55"/><path d="m121.34 19.361c-63.28.056-121.47.5-121.47.5l6.188 686.56c0 0 14.778 68.904 28.375 101.19 45.24 112.58 141.18 189.06 245.31 236.03 34.37 15.222 71.06 25.499 107.97 32.625 27.733 5.355 56.16 7.367 84.41 7.469 28.25-.102 56.673-2.114 84.41-7.469 36.908-7.126 73.6-17.403 107.97-32.625 104.14-46.969 200.07-123.45 245.31-236.03 13.597-32.28 28.375-101.19 28.375-101.19l6.187-686.56c0 0-58.19-.444-121.47-.5-37.967-.033-77.76.072-107.91.5-80.38 1.14-159.23.218-238.84 0-1.342-.004-2.689-.022-4.03-.031-1.342.009-2.689.028-4.03.031-79.61.218-158.46 1.14-238.84 0-30.14-.428-69.939-.533-107.91-.5z" stroke="#fff" stroke-width="11"/></g><g stroke="#000" stroke-width="5"><path d="m124.73 24.5c-62.67.055-120.3.495-120.3.495l6.128 679.93c0 0 14.635 68.24 28.1 100.21 44.806 111.49 139.81 187.24 242.94 233.75 34.04 15.07 70.37 25.25 106.93 32.31 27.465 5.303 55.618 7.296 83.59 7.397 27.973-.101 56.13-2.093 83.59-7.397 36.552-7.06 72.888-17.235 106.93-32.31 103.13-46.515 198.14-122.26 242.94-233.75 13.466-31.972 28.1-100.21 28.1-100.21l6.128-679.93c0 0-57.628-.44-120.3-.495-37.6-.033-77.01.072-106.86.495-79.6 1.129-157.69.215-236.54 0-1.329-.004-2.663-.022-3.992-.031-1.329.009-2.663.027-3.992.031-78.84.215-156.93 1.129-236.54 0-29.851-.423-69.26-.528-106.86-.495z" fill="#fff"/><path d="m472.12 23.916v1055.26" fill="none"/><path d="m819.5 24.484c-37.6-.033-76.992.077-106.84.5-79.6 1.129-157.69.215-236.53 0-1.329-.004-2.67-.022-4-.031v1053.66c27.973-.101 56.13-2.103 83.59-7.406 36.552-7.06 72.869-17.238 106.91-32.31 103.13-46.515 198.16-122.26 242.97-233.75 13.466-31.972 28.09-100.22 28.09-100.22l6.125-679.94c0 0-57.645-.445-120.31-.5z" fill="#fcdd09"/><path d="m939.78 28.609l-467.66 167.37v202.47l465.81-166.72 1.844-203.12zm-3.656 406.19l-464 166.03v202.44l462.16-165.37 1.844-203.09zm-58.56 425.78l-405.44 145.09v72.938c27.973-.101 56.13-2.103 83.59-7.406 36.552-7.06 72.869-17.238 106.91-32.31 85.02-38.35 164.53-96.57 214.94-178.31z" stroke-linejoin="round" stroke-linecap="round"/></g><g transform="matrix(.9076 0 0 .97917 45.784 1.161)"><path d="m1.933 55.704c0 0 18.914 14.823 27.491 23.406 7.231 7.236 14.838 14.444 20.07 23.562 6.739 11.745 13.858 38.844 13.858 38.844l163.71 559.09 163.74-559.09c0 0 7.091-27.1 13.83-38.844 5.232-9.119 12.867-16.326 20.1-23.562 8.577-8.583 27.463-23.406 27.463-23.406h-114.6c0 0 10.907 11.492 14.03 18.875 3.121 7.386 4.298 15.874 4.104 24.03-.238 10.03-6.437 29.25-6.437 29.25l-122.22 501.31-122.19-501.31c0 0-6.199-19.215-6.437-29.25-.194-8.157.983-16.646 4.104-24.03 3.12-7.383 14.03-18.875 14.03-18.875h-114.63"/><path d="m251.87 279.69l-148.59 547.47c0 0-6.447 26.531-12.563 38.03-3 5.642-6.877 10.53-10.969 15.16 7.57 10.71 15.652 20.972 24.19 30.813h47.625c0 0-9.887-11.24-12.719-18.469-2.832-7.232-3.894-15.544-3.719-23.531.216-9.826 5.844-28.656 5.844-28.656l110.91-490.84 110.91 490.84c0 0 5.628 18.83 5.844 28.656.176 7.987-.886 16.3-3.719 23.531-2.831 7.229-12.719 18.469-12.719 18.469h104c0 0-17.15-14.502-24.938-22.906-6.563-7.085-13.47-14.13-18.219-23.06-6.116-11.5-12.563-38.03-12.563-38.03l-148.59-547.47" transform="matrix(1.10181 0 0 1.02128-50.45-1.185)"/></g></g></svg>