<?xml version="1.0" encoding="UTF-8"?>
<!-- Created with Inkscape (http://www.inkscape.org/) -->
<svg width="203mm" height="253mm" version="1.1" viewBox="0 0 203 253" xmlns="http://www.w3.org/2000/svg" xmlns:cc="http://creativecommons.org/ns#" xmlns:dc="http://purl.org/dc/elements/1.1/" xmlns:rdf="http://www.w3.org/1999/02/22-rdf-syntax-ns#">
 <title>Wappen von Oeventrop</title>
 <g transform="translate(-3.61346 -21.9999)">
  <path d="m5.11352 23.5 3.87e-4 150.117c6.83e-5 26.4903 10.5358 51.8959 29.2894 70.6275 18.7535 18.7316 44.1887 29.255 70.7103 29.2551 26.5216 8e-5 51.957-10.5233 70.7107-29.2549 18.7536-18.7316 29.2894-44.1373 29.2894-70.6277l-6e-5 -150.117z" fill="#fff"/>
  <g transform="translate(-11.1209 57.3735)">
   <g transform="matrix(.282222 0 0 .282222 -2.56291 -62.2313)" fill-rule="evenodd" stroke="#000">
    <path transform="translate(49.7984 41.5677)" d="m114.888 781.636 329.444-465.092 39.55 29.2085-331.5 468.146c-5.54865 8.06554-21.915 7.37838-31.7374-1.24177-9.00845-7.90587-11.2514-22.8479-5.75742-31.0202z"/>
    <path transform="translate(49.7984 41.5677)" d="m439.443 305.677c-7.23345-6.57061-7.4785-19.5562-2.04847-27.2393 5.43004-7.68312 19.3949-9.78984 25.4399-4.56245l55.456 41.5263c6.81476 6.7603 5.40465 20.214 1.63059 26.3259-3.65587 5.92047-16.7507 10.4694-23.1822 6.79002z" stroke-width="1px"/>
    <path d="m524.803 317.873c23.7462-32.0271 15.4089-46.0835 11.3324-93.7718-5.91986-69.6245 91.7259-125.41 162.222-77.042 43.2776 29.6932 62.1473 82.9119 42.7423 125.633-10.1053 22.2474-29.7081 47.0203-72.2731 45.5001-26.4433-0.9444-51.6559-13.2399-51.4235 20.5562-19.9471-10.3173-23.2516-35.8305 0.14383-45.4103-30.16-8.08676-13.7923-50.6308 14.5815-31.741 5.57573-14.826 33.7364-27.6546 46.07-0.0939-30.4901-5.27391-19.9954 30.9739 4.44533 25.2964 38.7635-9.00464 29.4203-73.3007 9.3007-92.7043-49.5883-47.8234-129.787-14.0231-115.116 65.044 6.22392 33.5421 17.1428 53.0612-15.1726 87.0784z" stroke-width="1px"/>
   </g>
  </g>
  <path d="m5.11352 87.7135 152.359 172.228c20.9768-16.7982 40.2019-35.4651 45.6743-68.8014l-148.034-167.64h-50z" fill="#da121a" fill-rule="evenodd" stroke="#000"/>
  <g fill="#fff" fill-rule="evenodd" stroke="#000">
   <path d="m18.6198 40.0482 4.27512 37.0503 38.0204 10.867-7.14723-37.6336z"/>
   <path d="m74.6665 105.215 4.14969 37.7401 37.5814 9.67541-6.83366-37.6964z"/>
   <path d="m131.39 169.764 4.58868 36.8621 37.8323 8.7974-6.33195-35.0624z"/>
  </g>
  <path d="m5.11352 23.5 3.87e-4 150.117c6.83e-5 26.4903 10.5358 51.8959 29.2894 70.6275 18.7535 18.7316 44.1887 29.255 70.7103 29.2551 26.5216 8e-5 51.957-10.5233 70.7107-29.2549 18.7536-18.7316 29.2894-44.1373 29.2894-70.6277l-6e-5 -150.117z" fill="none" stroke="#000" stroke-linecap="square" stroke-miterlimit="8" stroke-width="3.00011"/>
 </g>
</svg>
