<?xml version="1.0" encoding="UTF-8" standalone="no"?>
<!-- Created with Inkscape (http://www.inkscape.org/) -->
<svg
   xmlns:svg="http://www.w3.org/2000/svg"
   xmlns="http://www.w3.org/2000/svg"
   version="1.0"
   width="570.00854"
   height="656.43396"
   id="svg4259">
  <defs
     id="defs4261" />
  <path
     d="M 286.7295,652.34577 C 210.21668,652.34577 141.78414,626.57821 81.756372,561.96036 C 30.31524,506.59217 4.0881901,459.22306 4.0881901,382.73248 L 4.0881901,4.0881901 L 565.92033,4.0881901 L 565.92033,382.73248 C 565.92033,459.22306 539.68532,506.58404 488.25214,561.96036 C 429.071,625.66867 363.23436,652.34577 286.7295,652.34577 z"
     id="path259"
     style="fill:#f9d100;fill-opacity:1;fill-rule:nonzero;stroke:#1b1a1c;stroke-width:8.17638016;stroke-linecap:butt;stroke-linejoin:miter;stroke-miterlimit:3.86400008;stroke-dasharray:none;stroke-opacity:1" />
  <g
     transform="translate(1.6407889,-13.50799)"
     id="g3261">
    <path
       d="M 157.55025,52.750308 C 148.6422,42.113762 132.14499,38.665703 126.9974,56.355231 C 124.41292,73.382521 148.0229,82.858931 158.14007,96.955071 C 168.64893,74.519121 186.42203,80.651691 189.0908,56.135301 C 190.07539,38.154152 166.68344,42.869611 157.55025,52.750308 z"
       id="path2559"
       style="fill:#d8201f;fill-opacity:1;fill-rule:evenodd;stroke:#1b1a1c;stroke-width:2.8447628;stroke-linecap:butt;stroke-linejoin:miter;stroke-miterlimit:4;stroke-dasharray:none;stroke-opacity:1" />
    <path
       d="M 129.99952,58.989345 C 132.53282,52.214279 136.97006,46.78195 144.31775,47.786654 C 143.65892,47.240301 143.0916,46.616983 141.46199,46.887167 C 132.68633,48.170181 132.10866,54.34782 129.99952,58.989345 z"
       id="path2487"
       style="fill:#ffffff;fill-opacity:1;fill-rule:evenodd;stroke:none;stroke-width:1px;stroke-linecap:butt;stroke-linejoin:miter;stroke-opacity:1" />
    <path
       d="M 165.38226,50.075419 C 161.78955,52.217097 161.11946,52.498036 159.36369,55.688534 C 159.16555,55.198307 158.55351,54.733816 158.52878,54.681276 C 160.24978,53.089088 161.62899,51.227856 165.38226,50.075419 z"
       id="path3259"
       style="fill:#ffffff;fill-opacity:1;fill-rule:evenodd;stroke:none;stroke-width:1px;stroke-linecap:butt;stroke-linejoin:miter;stroke-opacity:1" />
  </g>
  <g
     transform="translate(256.78335,-22.103471)"
     id="g3266">
    <path
       d="M 157.55025,52.750308 C 148.6422,42.113762 132.14499,38.665703 126.9974,56.355231 C 124.41292,73.382521 148.0229,82.858931 158.14007,96.955071 C 168.64893,74.519121 186.42203,80.651691 189.0908,56.135301 C 190.07539,38.154152 166.68344,42.869611 157.55025,52.750308 z"
       id="path3268"
       style="fill:#d8201f;fill-opacity:1;fill-rule:evenodd;stroke:#1b1a1c;stroke-width:2.8447628;stroke-linecap:butt;stroke-linejoin:miter;stroke-miterlimit:4;stroke-dasharray:none;stroke-opacity:1" />
    <path
       d="M 129.99952,58.989345 C 132.53282,52.214279 136.97006,46.78195 144.31775,47.786654 C 143.65892,47.240301 143.0916,46.616983 141.46199,46.887167 C 132.68633,48.170181 132.10866,54.34782 129.99952,58.989345 z"
       id="path3270"
       style="fill:#ffffff;fill-opacity:1;fill-rule:evenodd;stroke:none;stroke-width:1px;stroke-linecap:butt;stroke-linejoin:miter;stroke-opacity:1" />
    <path
       d="M 165.38226,50.075419 C 161.78955,52.217097 161.11946,52.498036 159.36369,55.688534 C 159.16555,55.198307 158.55351,54.733816 158.52878,54.681276 C 160.24978,53.089088 161.62899,51.227856 165.38226,50.075419 z"
       id="path3272"
       style="fill:#ffffff;fill-opacity:1;fill-rule:evenodd;stroke:none;stroke-width:1px;stroke-linecap:butt;stroke-linejoin:miter;stroke-opacity:1" />
  </g>
  <g
     transform="translate(-85.704241,155.14268)"
     id="g3274">
    <path
       d="M 157.55025,52.750308 C 148.6422,42.113762 132.14499,38.665703 126.9974,56.355231 C 124.41292,73.382521 148.0229,82.858931 158.14007,96.955071 C 168.64893,74.519121 186.42203,80.651691 189.0908,56.135301 C 190.07539,38.154152 166.68344,42.869611 157.55025,52.750308 z"
       id="path3276"
       style="fill:#d8201f;fill-opacity:1;fill-rule:evenodd;stroke:#1b1a1c;stroke-width:2.8447628;stroke-linecap:butt;stroke-linejoin:miter;stroke-miterlimit:4;stroke-dasharray:none;stroke-opacity:1" />
    <path
       d="M 129.99952,58.989345 C 132.53282,52.214279 136.97006,46.78195 144.31775,47.786654 C 143.65892,47.240301 143.0916,46.616983 141.46199,46.887167 C 132.68633,48.170181 132.10866,54.34782 129.99952,58.989345 z"
       id="path3278"
       style="fill:#ffffff;fill-opacity:1;fill-rule:evenodd;stroke:none;stroke-width:1px;stroke-linecap:butt;stroke-linejoin:miter;stroke-opacity:1" />
    <path
       d="M 165.38226,50.075419 C 161.78955,52.217097 161.11946,52.498036 159.36369,55.688534 C 159.16555,55.198307 158.55351,54.733816 158.52878,54.681276 C 160.24978,53.089088 161.62899,51.227856 165.38226,50.075419 z"
       id="path3280"
       style="fill:#ffffff;fill-opacity:1;fill-rule:evenodd;stroke:none;stroke-width:1px;stroke-linecap:butt;stroke-linejoin:miter;stroke-opacity:1" />
  </g>
  <g
     transform="translate(271.10668,200.98133)"
     id="g3282">
    <path
       d="M 157.55025,52.750308 C 148.6422,42.113762 132.14499,38.665703 126.9974,56.355231 C 124.41292,73.382521 148.0229,82.858931 158.14007,96.955071 C 168.64893,74.519121 186.42203,80.651691 189.0908,56.135301 C 190.07539,38.154152 166.68344,42.869611 157.55025,52.750308 z"
       id="path3284"
       style="fill:#d8201f;fill-opacity:1;fill-rule:evenodd;stroke:#1b1a1c;stroke-width:2.8447628;stroke-linecap:butt;stroke-linejoin:miter;stroke-miterlimit:4;stroke-dasharray:none;stroke-opacity:1" />
    <path
       d="M 129.99952,58.989345 C 132.53282,52.214279 136.97006,46.78195 144.31775,47.786654 C 143.65892,47.240301 143.0916,46.616983 141.46199,46.887167 C 132.68633,48.170181 132.10866,54.34782 129.99952,58.989345 z"
       id="path3286"
       style="fill:#ffffff;fill-opacity:1;fill-rule:evenodd;stroke:none;stroke-width:1px;stroke-linecap:butt;stroke-linejoin:miter;stroke-opacity:1" />
    <path
       d="M 165.38226,50.075419 C 161.78955,52.217097 161.11946,52.498036 159.36369,55.688534 C 159.16555,55.198307 158.55351,54.733816 158.52878,54.681276 C 160.24978,53.089088 161.62899,51.227856 165.38226,50.075419 z"
       id="path3288"
       style="fill:#ffffff;fill-opacity:1;fill-rule:evenodd;stroke:none;stroke-width:1px;stroke-linecap:butt;stroke-linejoin:miter;stroke-opacity:1" />
  </g>
  <g
     transform="translate(348.00357,93.12594)"
     id="g3290">
    <path
       d="M 157.55025,52.750308 C 148.6422,42.113762 132.14499,38.665703 126.9974,56.355231 C 124.41292,73.382521 148.0229,82.858931 158.14007,96.955071 C 168.64893,74.519121 186.42203,80.651691 189.0908,56.135301 C 190.07539,38.154152 166.68344,42.869611 157.55025,52.750308 z"
       id="path3292"
       style="fill:#d8201f;fill-opacity:1;fill-rule:evenodd;stroke:#1b1a1c;stroke-width:2.8447628;stroke-linecap:butt;stroke-linejoin:miter;stroke-miterlimit:4;stroke-dasharray:none;stroke-opacity:1" />
    <path
       d="M 129.99952,58.989345 C 132.53282,52.214279 136.97006,46.78195 144.31775,47.786654 C 143.65892,47.240301 143.0916,46.616983 141.46199,46.887167 C 132.68633,48.170181 132.10866,54.34782 129.99952,58.989345 z"
       id="path3294"
       style="fill:#ffffff;fill-opacity:1;fill-rule:evenodd;stroke:none;stroke-width:1px;stroke-linecap:butt;stroke-linejoin:miter;stroke-opacity:1" />
    <path
       d="M 165.38226,50.075419 C 161.78955,52.217097 161.11946,52.498036 159.36369,55.688534 C 159.16555,55.198307 158.55351,54.733816 158.52878,54.681276 C 160.24978,53.089088 161.62899,51.227856 165.38226,50.075419 z"
       id="path3296"
       style="fill:#ffffff;fill-opacity:1;fill-rule:evenodd;stroke:none;stroke-width:1px;stroke-linecap:butt;stroke-linejoin:miter;stroke-opacity:1" />
  </g>
  <g
     transform="translate(355.99286,351.77915)"
     id="g3298">
    <path
       d="M 157.55025,52.750308 C 148.6422,42.113762 132.14499,38.665703 126.9974,56.355231 C 124.41292,73.382521 148.0229,82.858931 158.14007,96.955071 C 168.64893,74.519121 186.42203,80.651691 189.0908,56.135301 C 190.07539,38.154152 166.68344,42.869611 157.55025,52.750308 z"
       id="path3300"
       style="fill:#d8201f;fill-opacity:1;fill-rule:evenodd;stroke:#1b1a1c;stroke-width:2.8447628;stroke-linecap:butt;stroke-linejoin:miter;stroke-miterlimit:4;stroke-dasharray:none;stroke-opacity:1" />
    <path
       d="M 129.99952,58.989345 C 132.53282,52.214279 136.97006,46.78195 144.31775,47.786654 C 143.65892,47.240301 143.0916,46.616983 141.46199,46.887167 C 132.68633,48.170181 132.10866,54.34782 129.99952,58.989345 z"
       id="path3302"
       style="fill:#ffffff;fill-opacity:1;fill-rule:evenodd;stroke:none;stroke-width:1px;stroke-linecap:butt;stroke-linejoin:miter;stroke-opacity:1" />
    <path
       d="M 165.38226,50.075419 C 161.78955,52.217097 161.11946,52.498036 159.36369,55.688534 C 159.16555,55.198307 158.55351,54.733816 158.52878,54.681276 C 160.24978,53.089088 161.62899,51.227856 165.38226,50.075419 z"
       id="path3304"
       style="fill:#ffffff;fill-opacity:1;fill-rule:evenodd;stroke:none;stroke-width:1px;stroke-linecap:butt;stroke-linejoin:miter;stroke-opacity:1" />
  </g>
  <g
     transform="translate(145.27539,470.6198)"
     id="g3306">
    <path
       d="M 157.55025,52.750308 C 148.6422,42.113762 132.14499,38.665703 126.9974,56.355231 C 124.41292,73.382521 148.0229,82.858931 158.14007,96.955071 C 168.64893,74.519121 186.42203,80.651691 189.0908,56.135301 C 190.07539,38.154152 166.68344,42.869611 157.55025,52.750308 z"
       id="path3308"
       style="fill:#d8201f;fill-opacity:1;fill-rule:evenodd;stroke:#1b1a1c;stroke-width:2.8447628;stroke-linecap:butt;stroke-linejoin:miter;stroke-miterlimit:4;stroke-dasharray:none;stroke-opacity:1" />
    <path
       d="M 129.99952,58.989345 C 132.53282,52.214279 136.97006,46.78195 144.31775,47.786654 C 143.65892,47.240301 143.0916,46.616983 141.46199,46.887167 C 132.68633,48.170181 132.10866,54.34782 129.99952,58.989345 z"
       id="path3310"
       style="fill:#ffffff;fill-opacity:1;fill-rule:evenodd;stroke:none;stroke-width:1px;stroke-linecap:butt;stroke-linejoin:miter;stroke-opacity:1" />
    <path
       d="M 165.38226,50.075419 C 161.78955,52.217097 161.11946,52.498036 159.36369,55.688534 C 159.16555,55.198307 158.55351,54.733816 158.52878,54.681276 C 160.24978,53.089088 161.62899,51.227856 165.38226,50.075419 z"
       id="path3312"
       style="fill:#ffffff;fill-opacity:1;fill-rule:evenodd;stroke:none;stroke-width:1px;stroke-linecap:butt;stroke-linejoin:miter;stroke-opacity:1" />
  </g>
  <g
     transform="translate(4.4641849,343.78986)"
     id="g3314">
    <path
       d="M 157.55025,52.750308 C 148.6422,42.113762 132.14499,38.665703 126.9974,56.355231 C 124.41292,73.382521 148.0229,82.858931 158.14007,96.955071 C 168.64893,74.519121 186.42203,80.651691 189.0908,56.135301 C 190.07539,38.154152 166.68344,42.869611 157.55025,52.750308 z"
       id="path3316"
       style="fill:#d8201f;fill-opacity:1;fill-rule:evenodd;stroke:#1b1a1c;stroke-width:2.8447628;stroke-linecap:butt;stroke-linejoin:miter;stroke-miterlimit:4;stroke-dasharray:none;stroke-opacity:1" />
    <path
       d="M 129.99952,58.989345 C 132.53282,52.214279 136.97006,46.78195 144.31775,47.786654 C 143.65892,47.240301 143.0916,46.616983 141.46199,46.887167 C 132.68633,48.170181 132.10866,54.34782 129.99952,58.989345 z"
       id="path3318"
       style="fill:#ffffff;fill-opacity:1;fill-rule:evenodd;stroke:none;stroke-width:1px;stroke-linecap:butt;stroke-linejoin:miter;stroke-opacity:1" />
    <path
       d="M 165.38226,50.075419 C 161.78955,52.217097 161.11946,52.498036 159.36369,55.688534 C 159.16555,55.198307 158.55351,54.733816 158.52878,54.681276 C 160.24978,53.089088 161.62899,51.227856 165.38226,50.075419 z"
       id="path3320"
       style="fill:#ffffff;fill-opacity:1;fill-rule:evenodd;stroke:none;stroke-width:1px;stroke-linecap:butt;stroke-linejoin:miter;stroke-opacity:1" />
  </g>
  <g
     transform="translate(-80.421999,392.72425)"
     id="g3322">
    <path
       d="M 157.55025,52.750308 C 148.6422,42.113762 132.14499,38.665703 126.9974,56.355231 C 124.41292,73.382521 148.0229,82.858931 158.14007,96.955071 C 168.64893,74.519121 186.42203,80.651691 189.0908,56.135301 C 190.07539,38.154152 166.68344,42.869611 157.55025,52.750308 z"
       id="path3324"
       style="fill:#d8201f;fill-opacity:1;fill-rule:evenodd;stroke:#1b1a1c;stroke-width:2.8447628;stroke-linecap:butt;stroke-linejoin:miter;stroke-miterlimit:4;stroke-dasharray:none;stroke-opacity:1" />
    <path
       d="M 129.99952,58.989345 C 132.53282,52.214279 136.97006,46.78195 144.31775,47.786654 C 143.65892,47.240301 143.0916,46.616983 141.46199,46.887167 C 132.68633,48.170181 132.10866,54.34782 129.99952,58.989345 z"
       id="path3326"
       style="fill:#ffffff;fill-opacity:1;fill-rule:evenodd;stroke:none;stroke-width:1px;stroke-linecap:butt;stroke-linejoin:miter;stroke-opacity:1" />
    <path
       d="M 165.38226,50.075419 C 161.78955,52.217097 161.11946,52.498036 159.36369,55.688534 C 159.16555,55.198307 158.55351,54.733816 158.52878,54.681276 C 160.24978,53.089088 161.62899,51.227856 165.38226,50.075419 z"
       id="path3328"
       style="fill:#ffffff;fill-opacity:1;fill-rule:evenodd;stroke:none;stroke-width:1px;stroke-linecap:butt;stroke-linejoin:miter;stroke-opacity:1" />
  </g>
  <g
     transform="translate(66.381171,526.54483)"
     id="g3330">
    <path
       d="M 157.55025,52.750308 C 148.6422,42.113762 132.14499,38.665703 126.9974,56.355231 C 124.41292,73.382521 148.0229,82.858931 158.14007,96.955071 C 168.64893,74.519121 186.42203,80.651691 189.0908,56.135301 C 190.07539,38.154152 166.68344,42.869611 157.55025,52.750308 z"
       id="path3332"
       style="fill:#d8201f;fill-opacity:1;fill-rule:evenodd;stroke:#1b1a1c;stroke-width:2.8447628;stroke-linecap:butt;stroke-linejoin:miter;stroke-miterlimit:4;stroke-dasharray:none;stroke-opacity:1" />
    <path
       d="M 129.99952,58.989345 C 132.53282,52.214279 136.97006,46.78195 144.31775,47.786654 C 143.65892,47.240301 143.0916,46.616983 141.46199,46.887167 C 132.68633,48.170181 132.10866,54.34782 129.99952,58.989345 z"
       id="path3334"
       style="fill:#ffffff;fill-opacity:1;fill-rule:evenodd;stroke:none;stroke-width:1px;stroke-linecap:butt;stroke-linejoin:miter;stroke-opacity:1" />
    <path
       d="M 165.38226,50.075419 C 161.78955,52.217097 161.11946,52.498036 159.36369,55.688534 C 159.16555,55.198307 158.55351,54.733816 158.52878,54.681276 C 160.24978,53.089088 161.62899,51.227856 165.38226,50.075419 z"
       id="path3336"
       style="fill:#ffffff;fill-opacity:1;fill-rule:evenodd;stroke:none;stroke-width:1px;stroke-linecap:butt;stroke-linejoin:miter;stroke-opacity:1" />
  </g>
  <path
     d="M 210.82288,70.652799 C 199.8222,107.33363 236.90831,77.889058 284.58333,96.49584 C 287.02481,99.69909 283.88522,101.5868 281.92372,104.79004 C 253.90267,89.22041 229.27185,105.41907 210.46364,101.91257 C 181.50949,93.76441 190.34112,73.184155 210.82288,70.652799 z"
     id="path3523"
     style="fill:#d8201f;fill-opacity:1;fill-rule:evenodd;stroke:#1b1a1c;stroke-width:2.26465321;stroke-linecap:butt;stroke-linejoin:miter;stroke-miterlimit:4;stroke-dasharray:none;stroke-opacity:1" />
  <path
     d="M 172.01296,238.87015 L 107.29489,314.36347 C 100.1966,316.22401 99.506464,314.07946 104.13225,308.61246 C 108.33849,301.27682 102.16872,299.99385 98.034194,297.52365 C 93.397897,279.31523 84.22587,282.99326 77.08181,281.71276 C 77.678501,286.67197 79.379768,289.84212 77.37151,296.10381 C 66.571671,294.35016 73.667645,307.89315 70.896683,312.90587 C 64.803676,307.49012 60.742751,297.33285 48.467647,306.342 C 45.076418,307.90263 30.322083,303.44528 29.932594,324.57348 C 33.312905,323.63279 36.693216,322.33227 40.073527,324.92974 C 38.618164,336.89473 45.745129,339.11205 51.701459,340.48891 C 53.103342,340.81297 51.325022,343.16737 52.92144,343.21352 C 39.611301,343.85823 42.445187,352.10013 40.69891,358.18666 C 36.642684,365.91675 37.366858,373.30538 43.570146,380.30265 C 46.712155,377.5239 47.404736,372.84004 56.664965,374.81991 C 70.34761,382.19829 70.666594,368.56926 77.218899,366.21406 C 75.536443,376.61164 79.485203,380.43946 86.581135,380.59558 C 88.395059,385.36683 86.051241,388.05921 85.209787,391.50277 C 102.79603,391.70725 104.64711,387.76404 108.20757,382.87188 C 118.8728,368.21762 113.88855,369.60444 112.1901,361.75254 C 117.76147,360.4777 123.42979,363.99211 128.43121,361.31077 C 158.93958,344.95479 201.93041,306.61618 243.11883,284.40364 C 261.09204,303.35607 276.55728,321.35401 319.61083,318.36114 C 325.88774,323.66633 337.77806,327.56817 338.18955,334.33972 C 302.92999,338.3798 269.97709,341.44735 251.54801,355.76479 C 236.49517,354.6932 233.45007,364.41947 227.33818,372.28883 C 224.0932,387.28601 204.97374,397.96452 219.34889,420.22456 C 232.28989,435.6559 234.92659,450.13036 226.0034,458.06237 C 221.03565,462.47832 191.08843,486.05055 174.17098,492.39073 C 171.05612,493.89804 166.86547,494.28932 163.89911,489.82049 C 144.54504,462.21295 136.93846,478.33212 126.68663,484.60512 C 104.64766,483.83173 100.80713,492.15756 102.16154,503.08087 C 92.350657,509.84272 96.621136,514.59296 94.961424,520.19036 L 104.51648,520.88453 C 105.28209,530.57809 108.73014,538.48335 126.9678,536.52888 C 144.02042,555.89369 168.12379,548.04404 173.14826,547.03778 C 203.72122,553.38038 252.94145,513.22731 296.01579,489.43414 C 303.59026,484.37894 310.51393,481.86352 302.94668,474.38968 C 271.12421,435.93764 305.49647,400.74107 355.16679,366.29687 C 357.54657,382.60833 349.14724,398.9198 344.18152,415.23126 C 342.66307,431.73008 360.46276,431.52952 360.16009,450.18439 C 368.13334,460.4069 391.91328,460.62676 414.08779,481.14289 C 418.89099,498.16765 403.66149,520.20059 397.11055,540.06389 C 391.55477,539.1333 385.16197,534.8546 379.00747,531.52913 C 366.36259,520.73492 357.63471,535.86748 350.6014,540.43708 C 334.86631,539.51306 329.13203,554.09027 326.20562,573.0197 L 336.70878,572.29524 C 341.88382,586.6935 347.7923,586.80974 368.58362,586.79329 C 383.92144,602.65612 381.34366,588.91088 416.81321,591.43845 C 421.40282,592.29526 422.82649,591.92851 425.69748,588.58327 C 435.26525,577.69665 443.69686,574.76314 452.23027,571.11708 C 455.63218,570.17361 456.24175,568.71708 457.27566,565.6075 C 471.54744,523.16193 496.92943,487.05616 497.97531,484.13887 C 504.4084,462.8317 450.09078,431.29068 435.26061,415.02729 C 433.26347,399.78467 436.37502,389.65075 428.66582,368.69608 C 456.9549,374.13432 481.21395,389.57315 515.54932,355.71046 C 529.20011,334.26799 529.03167,309.63646 521.94318,283.408 C 518.2443,270.73152 474.00745,227.48299 450.03959,199.52048 C 445.73031,192.2 402.51541,157.88011 447.0436,107.64367 C 524.18983,105.72139 477.46269,71.552599 530.93113,76.685174 C 527.12596,68.056266 519.1192,69.931309 512.35543,68.698911 C 505.74801,54.205246 524.69823,44.358426 533.92711,32.74409 C 522.04224,32.163536 509.05727,34.333266 493.98067,41.732039 L 489.983,26.953066 C 481.50256,56.661438 437.50267,53.497889 440.05298,94.66107 C 426.90225,110.6161 411.9533,123.64901 411.09181,159.57404 C 417.38397,197.64067 449.15448,220.90292 475.20705,249.84936 C 496.76866,271.92693 512.37047,296.98439 505.37387,333.34106 C 499.48782,354.16954 475.39795,363.32352 436.05833,344.32633 C 424.16112,337.99156 356.19748,268.26295 347.06521,235.03505 L 362.15742,246.45755 C 357.54532,222.30637 362.96338,199.58806 366.15206,176.55128 L 375.14001,181.54458 C 363.99634,143.33324 399.60699,98.94693 367.15072,64.701242 C 370.86447,55.49322 369.84833,45.339222 367.70619,34.960023 L 348.61339,34.298225 C 334.83083,26.349008 313.31094,27.967514 293.18556,28.691521 C 281.24271,29.121164 271.50768,29.49195 268.94508,34.404549 L 230.33416,35.740073 C 217.1315,55.942471 225.84684,71.618782 226.33952,71.691869 C 238.58597,93.51718 262.28844,75.486177 284.26186,80.679818 C 287.42472,93.13481 285.65622,104.60354 271.17294,113.5293 C 263.3095,115.1575 250.91034,112.7312 243.31676,104.64768 C 239.19774,111.5966 239.71625,117.61802 230.33416,125.61956 C 233.75276,131.07371 248.2794,127.64142 257.29801,128.61555 C 262.40377,133.58681 259.99528,137.80665 253.30337,141.59814 C 205.2971,138.13148 214.99632,155.23387 191.71728,153.80068 C 153.71074,133.47732 137.56899,119.40104 110.49484,102.20121 C 91.205228,81.903693 127.44616,92.71968 114.39447,75.154389 C 119.58109,69.566858 118.06663,61.466422 117.48547,53.715971 C 116.27265,50.863743 114.52212,49.086918 111.80787,49.237554 C 113.09242,55.513843 110.54658,57.959743 107.37407,59.778973 C 98.916561,50.562909 96.453115,58.130218 91.328969,58.247567 C 90.972016,51.043976 91.249176,43.491623 76.274443,44.32781 C 69.626377,37.340921 61.700992,34.824651 52.045985,38.362058 C 54.812141,42.402672 58.040457,46.113173 55.716893,53.789302 C 44.227417,58.445308 50.68292,63.101313 53.426895,67.757318 C 55.281412,69.844103 61.500039,71.277863 58.045528,74.929665 C 56.091941,74.974621 54.138353,75.274819 52.184765,71.675814 C 47.354736,63.810782 46.122082,67.937 43.292057,66.738651 C 38.582759,66.794417 34.222927,71.954563 33.713115,75.457849 C 26.327462,78.291078 16.041918,80.63177 22.605961,98.24599 C 26.845782,96.59886 25.444973,90.43929 33.817049,92.92441 C 34.046979,101.08754 39.225255,100.9613 46.058916,104.39387 C 46.052285,112.0445 31.231245,110.1055 40.719719,128.19189 C 40.506779,132.00964 34.535483,133.52404 30.975957,136.00316 C 39.209186,140.48912 49.323874,141.59051 56.024652,141.28166 C 74.376951,142.58495 67.253905,130.64106 68.360006,122.97632 L 73.544382,122.62358 L 77.539026,143.59546 L 145.44798,205.51245 C 141.12387,212.04348 133.16542,213.72872 124.07421,213.90362 C 140.03782,225.5258 153.94014,224.78025 168.41718,227.48299 L 172.01296,238.87015 z"
     id="path3344"
     style="fill:#1b1a1c;fill-opacity:1;fill-rule:evenodd;stroke:#1b1a1c;stroke-width:1px;stroke-linecap:butt;stroke-linejoin:miter;stroke-opacity:1" />
  <path
     d="M 338.72923,236.86035 C 327.25044,232.09261 319.3515,223.95558 317.13638,210.46909 C 307.28985,223.34614 301.34307,241.83235 252.95762,239.25956 C 266.39594,225.29936 278.35363,212.31374 281.74809,193.67465 C 268.79269,207.79947 262.14057,220.12804 248.6835,226.99012 C 234.68157,234.13005 213.72675,235.31044 192.37767,224.26452 C 211.44646,210.02664 238.15706,198.46246 244.08137,179.66065 C 219.87783,199.5847 194.19863,215.62133 168.38561,226.06393 L 172.97779,235.55292 L 174.73733,240.75872 L 177.98845,231.06196 L 184.58025,228.46313 C 208.77715,244.89496 225.07811,240.38229 246.3598,237.46016 L 238.56238,243.45817 C 283.75116,251.12479 302.57734,241.21634 315.33698,227.26353 C 321.23307,233.63135 326.50929,241.03229 338.72923,236.86035 z"
     id="path3346"
     style="fill:#f9d100;fill-opacity:1;fill-rule:evenodd;stroke:#1b1a1c;stroke-width:3;stroke-linecap:butt;stroke-linejoin:miter;stroke-miterlimit:4;stroke-dasharray:none;stroke-opacity:1" />
  <path
     d="M 143.28868,202.31327 L 147.64962,205.20297 L 190.92249,161.57384 C 189.22757,160.44534 188.13686,158.30982 184.81982,159.88488 L 143.28868,202.31327 z"
     id="path3348"
     style="fill:#f9d100;fill-opacity:1;fill-rule:evenodd;stroke:#1b1a1c;stroke-width:2;stroke-linecap:butt;stroke-linejoin:miter;stroke-miterlimit:4;stroke-dasharray:none;stroke-opacity:1" />
  <path
     d="M 358.66625,75.304846 L 346.32666,75.304846 C 346.85039,93.97235 344.33934,112.57166 308.48525,130.42168 C 306.3781,133.82862 309.77224,134.82874 314.24373,135.35752 C 352.09193,115.87577 351.22341,97.27395 353.73041,78.595404 L 358.66625,75.304846 z"
     id="path3510"
     style="fill:#f9d100;fill-opacity:1;fill-rule:evenodd;stroke:#1b1a1c;stroke-width:2;stroke-linecap:butt;stroke-linejoin:miter;stroke-miterlimit:4;stroke-dasharray:none;stroke-opacity:1" />
  <path
     d="M 278.79973,39.226237 C 276.69573,40.866625 275.38891,40.514055 274.66303,38.709149 C 284.51109,19.761709 291.14112,45.908464 300.77595,47.499638 C 299.89412,55.041675 284.2768,51.248716 275.43866,52.670513 C 271.05539,53.196831 269.05023,47.489182 271.5605,44.655656 C 274.12269,42.935807 276.92792,42.079212 279.51701,44.527232 C 281.03364,45.961228 285.97268,46.914068 288.36584,46.98255 C 290.71039,41.09864 281.39268,33.837715 278.79973,39.226237 z"
     id="path3512"
     style="fill:#f9d100;fill-opacity:1;fill-rule:evenodd;stroke:#1b1a1c;stroke-width:2;stroke-linecap:butt;stroke-linejoin:miter;stroke-miterlimit:4;stroke-dasharray:none;stroke-opacity:1" />
  <path
     d="M 230.45204,48.533813 C 235.15111,50.629615 235.11482,46.996925 236.57363,44.533315 C 237.29398,42.559921 238.36499,41.087355 240.01816,41.640797 C 240.57492,44.05524 238.73189,48.634651 242.34505,49.826532 C 247.91865,46.206919 243.87146,44.138569 245.13356,40.518956 C 244.59153,36.147655 237.23941,39.245575 235.62291,40.315887 C 231.13583,43.590775 229.7966,47.585819 230.45204,48.533813 z"
     id="path3514"
     style="fill:#f9d100;fill-opacity:1;fill-rule:evenodd;stroke:#1b1a1c;stroke-width:2;stroke-linecap:butt;stroke-linejoin:miter;stroke-miterlimit:4;stroke-dasharray:none;stroke-opacity:1" />
  <path
     d="M 245.91612,259.96328 C 251.06011,258.71892 256.33671,290.64378 255.25567,291.70753 C 251.75538,292.03787 249.46496,287.51517 245.96466,283.43259 C 247.15833,275.36745 243.19391,260.25582 245.91612,259.96328 z"
     id="path3516"
     style="fill:#f9d100;fill-opacity:1;fill-rule:evenodd;stroke:#1b1a1c;stroke-width:2;stroke-linecap:butt;stroke-linejoin:miter;stroke-miterlimit:4;stroke-dasharray:none;stroke-opacity:1" />
  <path
     d="M 347.97194,323.74192 C 348.92595,332.89522 355.10021,340.74345 358.66625,349.24374 C 360.44901,351.5772 360.6614,350.41919 361.81155,348.32438 C 359.37018,337.64794 355.97575,332.68977 352.95594,325.48392 C 350.83285,322.59445 349.48547,323.58356 347.97194,323.74192 z"
     id="path3518"
     style="fill:#f9d100;fill-opacity:1;fill-rule:evenodd;stroke:#1b1a1c;stroke-width:1px;stroke-linecap:butt;stroke-linejoin:miter;stroke-opacity:1" />
  <path
     d="M 335.24512,337.58153 C 335.31136,335.52321 337.98647,334.91426 343.85874,336.08151 C 352.46749,342.78389 355.56122,353.67648 357.89178,357.5183 C 358.5373,359.70097 357.24702,363.96613 353.53699,361.58333 C 350.42982,352.53921 341.60254,344.93106 335.24512,337.58153 z"
     id="path3520"
     style="fill:#f9d100;fill-opacity:1;fill-rule:evenodd;stroke:#1b1a1c;stroke-width:2;stroke-linecap:butt;stroke-linejoin:miter;stroke-miterlimit:4;stroke-dasharray:none;stroke-opacity:1" />
  <path
     d="M 105.92548,61.780024 C 106.12418,71.430856 109.90735,73.315362 113.73534,75.102738 C 117.81105,66.480092 116.739,58.57437 114.64448,53.036843 C 112.11188,59.586365 109.6931,62.640641 105.92548,61.780024 z"
     id="path3522"
     style="fill:#d8201f;fill-opacity:1;fill-rule:evenodd;stroke:#1b1a1c;stroke-width:1px;stroke-linecap:butt;stroke-linejoin:miter;stroke-opacity:1" />
  <path
     d="M 59.511174,53.268963 C 70.132938,56.049781 73.560042,51.084258 74.686011,46.160291 C 68.407491,39.58507 60.504131,38.122386 54.225611,38.345589 C 57.211805,43.552167 61.263389,48.062385 59.511174,53.268963 z"
     id="path3524"
     style="fill:#d8201f;fill-opacity:1;fill-rule:evenodd;stroke:#1b1a1c;stroke-width:1px;stroke-linecap:butt;stroke-linejoin:miter;stroke-opacity:1" />
  <path
     d="M 22.318801,95.79526 C 27.065975,94.98731 25.313791,87.15069 36.096082,92.10068 C 42.217349,85.615131 37.454075,78.499597 35.162767,76.021546 C 27.319249,80.031658 20.709416,83.394133 22.318801,95.79526 z"
     id="path3526"
     style="fill:#d8201f;fill-opacity:1;fill-rule:evenodd;stroke:#1b1a1c;stroke-width:1px;stroke-linecap:butt;stroke-linejoin:miter;stroke-opacity:1" />
  <path
     d="M 34.698527,135.98101 C 38.61984,134.39699 43.316928,131.8112 44.829593,125.40988 C 49.597021,127.08632 51.690053,133.6675 51.232232,138.71325 C 45.667963,139.58645 39.026805,138.81579 34.698527,135.98101 z"
     id="path3528"
     style="fill:#d8201f;fill-opacity:1;fill-rule:evenodd;stroke:#1b1a1c;stroke-width:1px;stroke-linecap:butt;stroke-linejoin:miter;stroke-opacity:1" />
  <path
     d="M 81.325275,298.07673 C 87.190928,302.77179 96.265875,299.65961 97.307192,297.62653 C 94.007084,287.26136 87.086477,283.33264 78.399009,282.545 C 80.423785,287.25586 84.330632,291.13025 81.325275,298.07673 z"
     id="path3530"
     style="fill:#d8201f;fill-opacity:1;fill-rule:evenodd;stroke:#1b1a1c;stroke-width:1px;stroke-linecap:butt;stroke-linejoin:miter;stroke-opacity:1" />
  <path
     d="M 49.361441,308.20611 C 51.031082,312.05643 51.835503,323.37892 44.409298,322.61235 C 42.279883,319.73556 33.339815,321.08953 31.803843,321.93705 C 34.171152,314.20182 35.970599,308.36404 49.361441,308.20611 z"
     id="path3532"
     style="fill:#d8201f;fill-opacity:1;fill-rule:evenodd;stroke:#1b1a1c;stroke-width:1px;stroke-linecap:butt;stroke-linejoin:miter;stroke-opacity:1" />
  <path
     d="M 43.058714,377.53611 C 45.771061,374.56276 48.21097,370.90831 52.06261,370.78319 C 51.331495,365.36164 55.617279,352.44712 43.283812,356.60205 C 40.670529,362.24192 38.723704,371.4401 43.058714,377.53611 z"
     id="path3534"
     style="fill:#d8201f;fill-opacity:1;fill-rule:evenodd;stroke:#1b1a1c;stroke-width:1px;stroke-linecap:butt;stroke-linejoin:miter;stroke-opacity:1" />
  <path
     d="M 88.528392,377.31102 C 92.62004,381.33371 89.235014,390.69434 87.8531,390.14157 C 96.250754,389.9533 103.54635,388.8845 108.78716,379.78709 C 105.49239,370.89271 91.916332,375.85862 88.528392,377.31102 z"
     id="path3536"
     style="fill:#d8201f;fill-opacity:1;fill-rule:evenodd;stroke:#1b1a1c;stroke-width:1px;stroke-linecap:butt;stroke-linejoin:miter;stroke-opacity:1" />
  <path
     d="M 130.22131,488.03256 C 134.56158,485.66363 138.90185,484.71683 143.24212,486.67623 C 147.27567,484.15357 145.34399,480.6367 145.41226,477.45316 C 136.3449,476.40396 134.20578,482.80772 130.22131,488.03256 z"
     id="path3538"
     style="fill:#d8201f;fill-opacity:1;fill-rule:evenodd;stroke:#1b1a1c;stroke-width:1px;stroke-linecap:butt;stroke-linejoin:miter;stroke-opacity:1" />
  <path
     d="M 117.74303,489.11763 C 116.79471,493.29559 119.02619,498.74546 114.75909,501.59591 C 110.92885,499.65743 107.85194,500.73231 104.72222,501.59591 C 104.99084,491.73618 110.26638,488.88612 117.74303,489.11763 z"
     id="path3540"
     style="fill:#d8201f;fill-opacity:1;fill-rule:evenodd;stroke:#1b1a1c;stroke-width:1px;stroke-linecap:butt;stroke-linejoin:miter;stroke-opacity:1" />
  <path
     d="M 97.669275,518.95699 C 98.437726,506.36753 106.14616,504.50349 114.75909,504.03731 C 116.22631,510.70797 117.4001,517.24169 108.24869,518.95699 C 102.28598,516.52076 101.06442,518.82566 97.669275,518.95699 z"
     id="path3542"
     style="fill:#d8201f;fill-opacity:1;fill-rule:evenodd;stroke:#1b1a1c;stroke-width:1px;stroke-linecap:butt;stroke-linejoin:miter;stroke-opacity:1" />
  <path
     d="M 126.1523,533.33414 C 131.22773,534.97749 136.80191,535.374 140.52945,540.38708 C 141.55897,533.73286 143.33214,526.58287 138.08805,524.11106 C 130.78542,522.91165 128.52343,528.19306 126.1523,533.33414 z"
     id="path3544"
     style="fill:#d8201f;fill-opacity:1;fill-rule:evenodd;stroke:#1b1a1c;stroke-width:1px;stroke-linecap:butt;stroke-linejoin:miter;stroke-opacity:1" />
  <path
     d="M 142.42832,519.49953 C 139.66156,518.95094 140.64196,517.77782 142.15705,516.51559 C 149.58528,514.55111 153.45297,517.92744 158.1618,520.04206 C 159.90773,522.69913 157.72725,523.00036 155.99166,523.56853 C 151.47055,519.79289 146.94943,519.77094 142.42832,519.49953 z"
     id="path3546"
     style="fill:#f9d100;fill-opacity:1;fill-rule:evenodd;stroke:#1b1a1c;stroke-width:1px;stroke-linecap:butt;stroke-linejoin:miter;stroke-opacity:1" />
  <path
     d="M 124.25343,496.44184 C 123.51474,496.23455 120.81662,497.24175 124.25344,499.1545 C 130.66253,501.83121 134.77587,507.88128 141.84499,507.25785 C 142.61367,507.21197 145.49197,505.75319 142.97085,503.76604 C 140.90341,503.06432 135.34552,501.71412 124.25343,496.44184 z"
     id="path3548"
     style="fill:#f9d100;fill-opacity:1;fill-rule:evenodd;stroke:#1b1a1c;stroke-width:1px;stroke-linecap:butt;stroke-linejoin:miter;stroke-opacity:1" />
  <path
     d="M 143.2666,491.68141 C 142.61524,490.69852 143.63837,488.79328 146.03841,489.40522 C 148.49669,490.62094 147.89171,493.256 150.56632,495.8993 C 148.13307,494.49336 145.25155,494.58166 143.2666,491.68141 z"
     id="path3550"
     style="fill:#f9d100;fill-opacity:1;fill-rule:evenodd;stroke:#1b1a1c;stroke-width:1px;stroke-linecap:butt;stroke-linejoin:miter;stroke-opacity:1" />
  <path
     d="M 360.09066,581.88903 C 364.95592,580.37848 370.5794,575.65086 375.44467,578.85614 C 379.01627,575.28262 376.29992,568.37001 371.464,568.43057 C 362.38766,568.25776 361.38995,576.22904 360.09066,581.88903 z"
     id="path3552"
     style="fill:#d8201f;fill-opacity:1;fill-rule:evenodd;stroke:#1b1a1c;stroke-width:1px;stroke-linecap:butt;stroke-linejoin:miter;stroke-opacity:1" />
  <path
     d="M 328.62441,569.94702 C 333.3808,569.35724 335.89457,565.38294 343.78886,567.4828 C 345.74922,564.19716 349.61572,562.78738 344.54708,555.35123 C 334.21125,555.39218 331.4454,561.89023 328.62441,569.94702 z"
     id="path3554"
     style="fill:#d8201f;fill-opacity:1;fill-rule:evenodd;stroke:#1b1a1c;stroke-width:1px;stroke-linecap:butt;stroke-linejoin:miter;stroke-opacity:1" />
  <path
     d="M 334.69019,555.35123 C 339.33107,553.66041 344.47287,549.70517 347.20087,552.31834 C 349.7426,551.58084 350.31126,544.11234 348.71731,543.21966 C 338.51537,542.92148 336.80289,550.63401 334.69019,555.35123 z"
     id="path3556"
     style="fill:#d8201f;fill-opacity:1;fill-rule:evenodd;stroke:#1b1a1c;stroke-width:1px;stroke-linecap:butt;stroke-linejoin:miter;stroke-opacity:1" />
  <path
     d="M 354.97265,540.94499 C 359.24932,539.80082 364.83871,540.63729 368.62067,540.94499 C 371.10171,542.95685 376.03498,534.88827 372.98045,531.08809 C 364.33021,530.72351 359.23627,535.94815 354.97265,540.94499 z"
     id="path3558"
     style="fill:#d8201f;fill-opacity:1;fill-rule:evenodd;stroke:#1b1a1c;stroke-width:1px;stroke-linecap:butt;stroke-linejoin:miter;stroke-opacity:1" />
  <path
     d="M 371.08489,546.44211 C 371.16047,543.86804 373.20395,543.91784 374.68645,543.21966 C 377.39594,547.44016 381.24605,548.80911 384.92246,550.61233 C 384.06155,551.73385 383.34235,553.13879 381.51046,552.31833 C 376.32278,552.07208 373.83363,549.1273 371.08489,546.44211 z"
     id="path3560"
     style="fill:#f9d100;fill-opacity:1;fill-rule:evenodd;stroke:#1b1a1c;stroke-width:1px;stroke-linecap:butt;stroke-linejoin:miter;stroke-opacity:1" />
  <path
     d="M 356.67865,551.74967 C 357.58933,550.48596 354.62921,549.22226 360.46977,547.95855 C 362.26263,551.78918 366.42396,553.25133 370.13711,555.16167 C 370.96275,558.52821 368.1856,557.57139 366.7251,558.19456 C 361.16485,557.15198 359.39958,554.21191 356.67865,551.74967 z"
     id="path3562"
     style="fill:#f9d100;fill-opacity:1;fill-rule:evenodd;stroke:#1b1a1c;stroke-width:1px;stroke-linecap:butt;stroke-linejoin:miter;stroke-opacity:1" />
  <path
     d="M 379.99401,561.60657 C 376.07465,562.28023 376.74984,563.71965 378.85667,565.39768 C 383.84831,566.91029 388.83994,568.67433 393.83158,568.24102 C 396.56765,566.91413 394.99961,565.58724 393.83158,564.26035 C 389.21906,565.07148 384.60653,562.58864 379.99401,561.60657 z"
     id="path3564"
     style="fill:#f9d100;fill-opacity:1;fill-rule:evenodd;stroke:#1b1a1c;stroke-width:1px;stroke-linecap:butt;stroke-linejoin:miter;stroke-opacity:1" />
</svg>
