<?xml version="1.0" encoding="UTF-8" standalone="no"?>
<svg xmlns="http://www.w3.org/2000/svg" height="213" width="201">
 <path d="m191 3h-189l.3 5.1c0 .9 4.8 95 6.8 118 1.9 22 12 43 28.3 59 16.9 16.4 38.9 25.5 61.9 25.5 23 0 44.9-9 61.9-25.5 16.4-15.9 26.4-36.8 28.3-59 2-23.4 6.7-117 6.8-118l.3-5.1h-5.1"/>
 <path d="m121 60c1.9-8.3-1.1-12-5.5-14.9 6.5 1.6 8.4-4.5 7.6-8.4-3.1 4.4-7.1 1.8-6.7-1.5 1.5-.9 2.5-2.5 2.5-4.3 0-2.7-2.2-4.7-4.9-4.6-.1-.2-.3-.4-.5-.6h-23.6c-.9.7-1.4 1.6-1.9 2.4-2.6-.3-6.8-.1-8.5.4-1.2.7-1.1 2.3-.3 3.2-.4.3-.6.7-.7 1.1-.1.5-.3 3.7-.3 4.4.1.7.3 2.7 2.3 2.6 1.5-.1 5-.7 5.6-1 .4-.2.6-.5.8-.9 1.6-.1 6.3-.2 7.7.6 1.4.8 2.1 2 2.1 4.8 0 2.8-.4 4.5-2.4 5-2 .5-8.3.5-10.4-.1-.5-.1-1.6-.4-2.1.2-.6.6-.1 1.3-.3 2.1-.2.8-.6 1.6-1.7 2.3.7.9 2.1 1.5 3.4 1.3.4.9 1.6 1.4 3.8.1-2.1 1.6-2.3 4.4-4.7 5.8-2.4 1.5-6-.3-6.3-3.3-1.9 1.4-2.8 4.9-.6 7.4 2.2 2.5 5.3 2.4 6.4 1.5-1.6 3.2-6.8 5.4-9.7 3.3-.8 3.7 2.4 7.9 6.9 6.5.8 4.1 6.6 3.9 9.8 1.2 3.1-2.6 4.4-5.8 5.4-8.3-.6 6.2 1.3 9 2.9 10.1 1.5 1 4 1.7 6 .2 1.7 2.2 6.1 3.8 8.4.2 1.7 1.1 4.8 2.1 7.6 1.7 3-.4 5.8-2.5 6.4-8 1.9-1.5 3.3-4.3 3.8-8.5-5 5.7-10.3 4.1-8.4-4.2z" fill="#f9d100" stroke="#1b1a1c" stroke-linejoin="round" stroke-linecap="round" stroke-width=".6"/>
 <path d="m155 185c-4.7-4.6-10.8-7.4-17.6-7.4-5.9 0-11.4 2.2-15.8 5.8-3.9-9.5-12.6-16-22.7-16-10 0-18.8 6.6-22.7 16-4.4-3.6-9.9-5.8-15.8-5.8-6.8 0-13 2.8-17.6 7.4 15.7 14 35.5 21.8 56 21.8 20.6 0 40-7.7 56-21.8" fill="#00a148"/>
 <path d="m153 22.6c-6.9-1.6-12.4.4-13.4 4.4-.2.8-.3 1.6-.3 2.5-.1 4.1 1.8 9.3 6.6 14-2.3.1-4.9.5-7 1.4-2.8-3.2-5.1-7.7-5.6-10.5-.4-1.7-.6-3.4-.5-5 .1-1.3.2-2.6.6-3.9 3.1-11 16.6-9.6 22.7-8.3 2.4.5 7.1 1.2 11.8 1 5.7-.2 10.7-2.2 13.3-5.9.5 5-2.4 8.6-6.5 9.8 3.7 1.2 10.6 0 13.6-3.1-1.3 6.7-7 8.9-12.8 8.8 2 2 6.9 2.7 9.9 1.8-2.8 4.7-12.5 4.1-18 .8-5.1-3.1-7.2-6.5-14.3-8z" fill="#f9d100" stroke="#1b1a1c" stroke-width=".6"/>
 <g fill="#fff">
  <path d="m91 46c-.4 0-.9.9-1.2 2.6.9 0 1.7 0 2.4-.1-.3-1.6-.8-2.5-1.2-2.5m-3 0c-.4 0-1 1.1-1.3 2.6.8.1 1.6.1 2.5.1-.2-1.7-.7-2.6-1.1-2.6m5.3-.2c-.4.1-.5.8-.5 1.6 0 .3 0 .7.1 1.1.6-.1 1.2-.1 1.5-.2.3-.1.5-.2.7-.3-.7-1.4-1.3-2.2-1.8-2.1m-8.1.1c-.1 0-.3 0-.5.2-.5.3-.9 1.1-1.2 2 .2 0 .3.1.5.1.5.1 1.2.2 2 .3 0-1.2-.3-2.5-.8-2.6"/>
  <path d="m86 41.8c.4-.1.6-1.1.6-2.1-.5.1-1.4.3-2.4.5.5.9 1.3 1.8 1.7 1.6m1.3-2.5c.5.9 1.1 1.9 1.6 1.7.4-.1.7-1.1.8-2.5-.7 0-1.4 0-1.9.1-.1.3-.3.5-.5.7m4.2 1.6c.1 0 .2 0 .3-.1.4-.4.8-1.3.9-2.2-.8-.1-1.6-.1-2.4-.1.2 1.2.6 2.4 1.1 2.4m3.8-1.8c-.4-.2-1.1-.4-1.9-.5 0 .3-.1.6-.1.8 0 .9.1 1.7.4 1.8.5.2 1.2-.6 1.9-1.9-.1-.1-.2-.2-.4-.2"/>
 </g>
 <g stroke="#1b1a1c" stroke-linecap="round" stroke-width=".6">
  <g fill="#f9d100" stroke-linejoin="round">
   <path d="m95 68.9c-1 2.5-2.2 5.7-5.4 8.3-3.1 2.6-9 2.8-9.8-1.2-4.5 1.4-7.7-2.8-6.9-6.5 3 2.1 8.1-.1 9.7-3.3-1.2.9-4.2 1-6.4-1.5-.1-.1-.1-.1-.1-.2-6.5 2.4-17.5 6.5-24.3 6.5-7.3.1-13.9-2.4-17.4-4.2-3.5-1.7-4.5-3.5-4.5-6.4-.1-2.9-3.5-2.6-4.3-2 0 3.1-1.2 3.6-4.4 4.1-.6 2 1.2 4.1 3.6 4.1 2.4 0 3.1 1.3 3.4 2.8-1 1.3-2.3 2.1-3.9.5-1.6-1.5-4.3-1.5-5.4.5 1.6 1.6 1.9 4.4.4 5.9 1.2 2 3.6 2.5 5.4 1 1.8-1.5 3.8-1.5 5 0-.2 2.7-1.6 3.2-2.8 3.3-1.2 0-2.7 1.5-1.7 3.4 2-.6 4.6 1.2 3.9 3.3 1.8.4 4.4.4 4.1-3.2-.3-3.7 2.9-4.3 4.5-4.3 1.5 0 2.7.3 2.5 1.1-.2.9-.3 4.3 1.5 4.5.8.1 2.6-.4 4.5-1.4 2.3-1.1 4.9-2.6 8.1-2.4.5 3.7-1.1 5.9-3.7 6.7 4.7.8 9.3-1.1 10.9-6 1.4 2.7 1 6.3-2.7 7.8 5.2.4 8.3-1.6 9.3-6.9 1.7 2.8 1.9 5.9-.9 7.8 4.7 0 7.4-2.3 8-6.8.8.1 1.5.2 2.1.3 4.5.7 12.6-1.4 20.3-5.8-1.5-1.2-3.3-4.1-2.7-10z"/>
   <path d="m55 41c-7.8-6.1-9.9-13-6.7-15.9 2.4-2.2.6-4.7-1.7-5.7-1.6 2-4.1.9-5.1-.7-2.1 1-3.2 3.1-1.2 5.5 1.8 2.1 1.5 3.4.3 4.5-2.5-.5-3.1-1.9-3.3-3.7-.2-1.8-1.9-4.7-5.1-3.2.7 2.3-.7 4.1-3.3 3.8-.5 3 1.8 4.4 3.8 4.2 2-.2 3.5.7 3.8 3.1-2.4 1.5-3.2.6-4.6-.3-1.4-1-3.8-.3-3.9 1.8 2.7 1 2.5 4.2.1 5.4 1.3 2.2 3.3 2.8 5.4.9 2.1-1.9 5.1-.2 5.6.4.5.6 1 1.4.8 1.9-.1.5-1.6 2.6-.3 4.5 1.3 1.9 4.5 1.2 5.5 1.5 1 .3 2.5 1.1 4.1 2.7-.9 2.5-3.2 3.7-6.1 3.4 1.7 3.9 6.4 4.2 10 .8-.1 3.4-2.3 5.5-5.4 5.9 3.5 2.8 8.2 2 10-1-.2 3.1-2.2 5.2-6 5.6 3.9 3.1 8.5 2.4 10.5-1.3.9.8 1.8 1.7 2.8 2.5 3.8-1.2 7.5-2.6 10.3-3.6-2-2.5-1.2-5.9.7-7.2.2 3 3.9 4.8 6.3 3.3 1-.6 1.6-1.5 2.2-2.5-10-6.1-24.6-12.7-29.6-16.6z"/>
  </g>
  <path d="m80 32c.8.4 3.8.2 4.4 0m.5 1.4c0 0 .8 0 1.8.1 1 .1 1.5 1.3 1.5 1.8 0 .5-.2 1.6-.2 2.1 0 .2-.1.5-.2.8m-3.7 16.3c1.4-.2 2.5-1.6 2.7-2.4m1.1 2.5c2.5-1.2 3.7-1.7 5.4-1.7 1.7 0 4.8 1.6 8.5-1.4 3.6-3 3.7-5.8 3.7-7.2m-5.9-5c1.3 2.5 1.7 6.8-.5 9.2m-16.3 17.5c.9-1.3 6.4-9.6 10.8-10.6m-13.6 20.4c8.5-2.6 8.5-13.2 16.6-19.4m-1.5 12.3c1-2.5 3.6-11.4 5.1-12.7m4.2-.4c0 7.1-1.8 9.5-2.5 14-.8 4.6.8 7.3 2.2 9.3m9.5-28.9c5.3 9 2 10.9 2 18 .1 5.5 6.5 8.4 10.9 4.9m-17-20c1.5 4.2 1 7.9-.8 13.2-1.8 5.2.4 10.9 3.8 13" fill="none"/>
  <path d="m89 133c.3-1.3 2.4-6.1 10.4-9.8h-27c-.1.2-.2.4-.2.6-1.9 5.3-5.9 8.4-11 6 1 5.2 4.3 6.4 9.5 4.8-2.6 4.3-7.1 3.7-9.3 2.2 0 4.7 4.2 6.9 9 5.5-.4 2.9-1.8 5.7-8.3 8.4-.3.1-.6.2-.9.4-7.4 2.9-11.7-.5-13-4.2-.9-2.8-3.7-3.2-6.4-1.5.6 2.8-1.2 4.3-3 4.5 0 3.9 3.2 4.9 5.8 3.9 2.7-1 3.9.5 4.5 2.4-1.3 1.4-2.4 1.8-4.6.3-2.2-1.5-5.5-.3-6 2.3 2 1.3 3.1 3.7 1.4 5.9 3.2 2.9 5.7.6 6.8-1.3 1.1-1.9 3-2.8 4.6-1.9.3 1.8-.6 3-2.7 3.6-2 .6-2 3.1-.6 4.8 2.1-.7 4.8.5 4.6 2.9 4.1-.7 4.1-3 3.2-5.8-.6-2 4.9-4.1 5.9-4.5.8-.3 1.2-.5 1.6-.2.1.1.3.3.4.5.5.9 1.8 4.5 4 3.9 2.3-.6 3.9-3.1 5.4-7.4 3.3 1.3 5.7 3.8 5 6.3 2.7-2.6 3.7-7.9 1.5-11.5 2.5.9 4.8 2.7 4.8 5 1.6-3.6 3.7-7.8.9-10.4 3.3-3.4 6.2-7 7.3-10.2 1.3-3.7-4.3-2.2-3.5-5.5z" fill="#f9d100" stroke-linejoin="round"/>
 </g>
 <path d="m83 79c.3 0 .5.1.8.1-.3 0-.5 0-.8-.1" fill="#f9d100"/>
 <g stroke="#1b1a1c" stroke-width=".6">
  <g stroke-linecap="round">
   <path d="m83 79c.3 0 .5.1.8.1-.3 0-.5 0-.8-.1z" fill="none"/>
   <g fill="#f9d100">
    <path d="m128 93c-2.9-3.9-5.3-7.9-7-12.3-.6.3-1.2.4-1.9.5-2.9.4-6-.7-7.6-1.7-2.3 3.5-6.6 2-8.4-.2-2.1 1.5-4.5.9-6-.2-.1 0-.1-.1-.2-.1-3.9 2.2-8 3.9-11.6 4.9 3 4.2 6.3 6.9 9.8 9.2h32.9z"/>
    <path d="m166 147c.9-4.4-.7-15.2-2.8-15.9-1.3-.4-3.4.2-5.3-.8-1.7-.9-3.4-2.7-5.9-7.1h-25c1.5 1.8 2.6 3.6 3.2 4.7 1.3 2.5-1.5 7.3-5 7.5 2.5 2.5 7.2 3.3 9.9.7-.4 3-1.8 5-5.9 5.5 5.5 3.2 11 2 12.4-2.1 1.7.4 3.3.5 4.4.6 1.7 2.6 1.3 8.9-5.7 13.5-6.6 4.4-10.9 1.8-13-1.8-1.5-2.5-4.3-2.4-6.6-.1 1.1 2.7-.3 4.4-2 5 .8 3.9 4.1 4.1 6.5 2.6 2.4-1.5 4-.6 4.9 1.4-.9 1.7-2 2.3-4.5 1.2-2.5-1-5.5.8-5.4 3.5 2.3.8 3.8 2.9 2.5 5.4 3.7 2.2 5.9-.5 6.3-2.7.4-2.2 2.3-3.3 4.1-2.8.7 1.7-.1 2.8-1.9 4.1-1.6 1.1-1.4 3.5.4 4.9 1.9-1.1 4.8-.5 5.1 1.9 3.9-1.5 3.4-3.7 2-6.3-1-1.9 4-5 4.9-5.6.7-.5 1.1-.7 1.5-.5.5.5 1.9 3.6 3.8 3.1 2.3-.6 6.1-5.7 6.7-9 2.7 2.6 3.2 5.9 2.8 8.3 2.4-2.3 6-9.2 2.9-13 2.9 1.7 5.8 5.2 4.9 8.5 1.8-2.9 4.5-9.8 0-14.6z"/>
   </g>
  </g>
  <path d="m163 82c2.3 3.2 2.7 6.9 1.2 10.8h7.4c1.4-6.6.4-14.5-1.5-19.6-3-7.9-12.1-18.2-19.5-24-3-.6-6.3-.7-8.4.2 7.7 6.2 16.8 16.3 20.4 24-17.2-4.6-27.4-10-25.9-18 .4-1.9 1.4-3.2 2.6-4.2 1.2-1 2.7-1.8 4.1-2.1 2.8-.5 6.9-.2 10.5 1.1.6.2 9.4 4.5 13.9 6.6 6 2.8 14.6 1.4 16.4-7-3.1 3.3-7.3 4.2-10.9 2.9 6.6-1.4 10.9-7 10.3-12.5-1.8 4.2-6.6 7.3-11.1 6.7 3.3-1.7 5.6-4.6 5.8-9.7-2.3 3.2-6.2 5.6-10.9 6.9-4.7 1.3-9.2 1.2-13.4.3-4.5-.9-12.9-1.6-18.2 2.2-2.7 1.9-4.3 4.7-4.8 8.4-1.6 10.7 7.8 16.4 19.5 20.9 5.9 2.3 10.2 3.1 12.5 6.3z" fill="#f9d100"/>
  <g fill="#d8201f">
   <g stroke-linejoin="round" stroke-linecap="round">
    <path d="m38.5 150c-1.2-1.8-3.2-2.2-5.5-1.4.7-3.1 5.6-4.9 8.5-3.1.6 2.8-1.2 4.3-3 4.5z"/>
    <path d="m39.5 165c-2.4-1.1-4.2-.2-5.9 1.3-.6-2.8.6-5.7 4.5-7.2 2 1.3 3.1 3.7 1.4 5.9z"/>
    <path d="m52 173c-2 .7-2.7 1.8-3.1 4-2.8-1.5-3-4.1-1.6-6.9 2.1-.7 4.8.5 4.6 2.9z"/>
    <path d="m66 167c-1.2-.6-2-2.3-2.4-3.3-2.1 1.5-3 5.8.1 7.7 0-2.2.4-3.6 2.3-4.4z"/>
   </g>
   <path d="m20.9 63c3.2-.5 4.4-1 4.4-4.1-3.4-2.4-6.2-2-8.2 0 2.7.8 3.5 1.8 3.8 4.1z"/>
   <path d="m19 76c-1.4-1.4-3.4-1.3-5.3.5-.9-2.4 1.4-5.8 4.8-6.4 1.6 1.6 1.9 4.4.4 5.9z"/>
   <path d="m28.8 87c-1.9 0-3.5 1.1-3.5 3.5-2.4-1.3-2.4-4.8-.4-6.8 2-.6 4.6 1.2 3.9 3.3z"/>
   <path d="m40 84c-1.2 0-2.9 1-3.7 2.4-1-3.1.5-5.2 3.4-5.6-.1.7-.1 2.1.3 3.1z"/>
  </g>
 </g>
 <g fill="#1b1a1c">
  <path d="m82 35.8c0-.2.2-.4.4-.4.2 0 .4.2.4.4 0 .2-.2.4-.4.4-.2 0-.4-.2-.4-.4"/>
  <path d="m83 38c0-.2.2-.4.4-.4.2 0 .4.2.4.4 0 .2-.2.4-.4.4-.2 0-.4-.2-.4-.4"/>
  <path d="m84 36c0-.2.2-.4.4-.4.2 0 .4.2.4.4 0 .2-.2.4-.4.4-.2 0-.4-.2-.4-.4"/>
 </g>
 <g stroke="#1b1a1c" stroke-linecap="round" stroke-width=".6">
  <g fill="#d8201f" stroke-linejoin="round">
   <path d="m46.9 19.8c.4-3.3-1.1-5.7-3.5-6.3.6 2.3-.2 4.5-1.7 5.6 1 1.6 3.6 2.7 5.1.7z"/>
   <path d="m29 26c2.6.3 4-1.5 3.3-3.8-2.4-1.9-5.5-.6-7 1.3 2.1 0 3.8 1.1 3.8 2.4z"/>
   <path d="m28.4 40c2.4-1.2 2.6-4.4-.1-5.4-3.2.4-4.8 3.8-3.8 6.3 1-1.3 2.9-1.7 3.9-.9z"/>
   <path d="m39.6 46.8c-.8-.7-3.2 0-4.5.8-.1-2.9 1.8-4.7 5.3-4.2-.1.4-1.1 1.8-.7 3.4z"/>
   <path d="m118 157c-1.5-1.5-3.5-1.6-5.7-.3.1-3.2 4.5-5.9 7.7-4.7 1.1 2.7-.3 4.4-2.1 5z"/>
   <path d="m122 171c-2.6-.6-4.2.6-5.5 2.4-1.1-2.6-.5-5.7 3-7.9 2.3.9 3.8 3 2.5 5.5z"/>
   <path d="m136 176c-1.9 1-2.3 2.3-2.2 4.5-3-.9-3.8-3.4-2.9-6.5 1.9-1.1 4.8-.5 5.1 2z"/>
   <path d="m145 164c.5.7 1.3 2 2.1 2.5-1.5.8-2.1 2-2.1 4.7-2.9-2.2-2.6-5.8 0-7.2z"/>
  </g>
  <path d="m110 30c.6-1.9 2.6-3.4 4.7-3.6m-2.7 3.5c.5-1 1.5-1.7 2.6-1.7 1.5 0 2.8 1.2 2.7 2.8 0 1.6-1.3 2.9-2.9 2.9-.3 0-.6 0-.9-.1m3.5 1.5c-.7.4-1.5.7-2.4.7-.5 0-1 0-1.5-.2m-24.4-7.6c5.4-.7 10-.3 14.5 2m-11.6-2.3c.4 4 5.2 6.6 8.5 1.3m-5.3-1.3c-.7 1.5.4 3.5 2.1 4.1" fill="none"/>
 </g>
 <path d="m96 28.4c-.1 1.5 1.4 3.1 2.7.7" fill="#1b1a1c"/>
 <path d="m96 28.4c-.1 1.5 1.4 3.1 2.7.7" fill="none" stroke="#1b1a1c" stroke-linejoin="round" stroke-linecap="round" stroke-width=".6"/>
 <path d="m119 12.6c-.6-1-1.6-1.5-2.6-1.5-1.3 0-2.4.9-2.9 2.1-.5-.6-1.2-.9-2-.9-1.6 0-3 1.5-3 3.3 0 1.4.9 2.6 2.1 3.1 0 1.1-.5 2.1-1.4 2.7-.3 0-3.1 0-3.5 0-.8-.6-1.3-1.5-1.3-2.5.1 0 .2.1.4.1 1.6 0 3-1.5 3-3.3 0-1.7-1.3-3.1-2.8-3.2-.4-1.5-1.5-2.6-3-2.6-1.4 0-2.6 1.1-3 2.6-1.6.1-2.8 1.5-2.8 3.2 0 1.8 1.3 3.3 3 3.3.1 0 .2-.1.4-.1-.1 1-.6 1.9-1.3 2.5-.3 0-3.1 0-3.5 0-.8-.6-1.3-1.6-1.4-2.7 1.2-.4 2.1-1.6 2.1-3.1 0-1.8-1.3-3.3-3-3.3-.8 0-1.5.4-2 .9-.5-1.2-1.6-2.1-2.9-2.1-1 0-2 .6-2.6 1.5 0 0-.2.3-.3.5 2.6 2.1 5.4 7.9 6 12.5h22.6c.5-4.6 3.3-10.4 6-12.5-.1-.2-.3-.5-.3-.5" fill="#d8201f"/>
 <path d="m43 147c.3 2.3-.6 3.9-3 4.7m.2 7c1.4 1.9 1.8 3.9 1.2 5.6m6.9 4.3c2.7-.9 4.4.5 4.8 2.4m11.5-9c.6 1.5 1.3 2.7 1.9 3.3m23.6-38.6c-2.8 2.3-7.3 7.9-1.6 10.9m-68-67c.4 1.3 1.2 3.4.1 5.9m5.8-16.8c-.4 2.1-1.7 3.8-4.3 4.2m3.9 18.9c1.9.2 4.1 1.6 4 3.2m10.8-5.1c-.2 1.4.1 2.5.3 3.2m109 43.8c2.3 4.3 5.7 6.9 9.6 6.3m-119-113c1.3 1.1 3.1 2.5 5.5.9m-12.8 1.7c0 2-1.1 3.9-3.2 4.1m-.7 6.8c1.4 1.4 2.5 3.7.5 6.3m11 3.3c-.6 1.6-.8 2.3-.4 3.3m104 115c.5 1 1.8 2.6 2.5 2.9m-25.5-13.5c.5 2.2.1 4-2 5.2m1.6 6.9c1.8 1.4 2.6 3.4 2.2 5.3m7.6 2.9c2.6-1.1 4.3-.2 5.2 1.4" fill="none" stroke="#1b1a1c" stroke-linecap="round" stroke-width=".6"/>
 <path d="m6.6 7.5v.4c0 .7 2.4 47.6 4.5 83v.4h.8v-.4c-2-34-4.2-78-4.5-83h183c-.2 4.7-2.5 49-4.5 83v.4h.8v-.4c2.1-35.8 4.5-83 4.5-83v-.4h-185m151 174c-.5.5-.9.9-1.4 1.3.2.2.4.3.5.5.5-.4 1-.8 1.5-1.3 15.6-15 25-35 27-56v-1.3h-.8v1.3c-1.8 20.9-11.3 40.7-26.8 55.6m-143-55.6v-1.3h-.8v1.3c0 0 0 0 0 0 1.8 21 11.4 41 27 56 .5.4.9.9 1.4 1.3.2-.2.4-.4.6-.6-.5-.4-1-.9-1.4-1.3-15.4-15-24.9-34.7-26.8-55.6" fill="#fff"/>
 <g stroke="#1b1a1c" stroke-width=".8">
  <path d="m41 108l-7.6-15.3h-18l7.6 15.3h18z" fill="#0092c5"/>
  <g fill="#fff">
   <path d="m48.6 124l-7.6-15.3h-18l7.6 15.3h18z"/>
   <path d="m59 108l-7.6-15.3h-18l7.6 15.3h18z"/>
  </g>
  <g fill="#0092c5">
   <path d="m66.8 124l-7.6-15.3h-18l7.6 15.3h18z"/>
   <path d="m77 108l-7.6-15.3h-18l7.6 15.3h18z"/>
  </g>
  <g fill="#fff">
   <path d="m85 124l-7.6-15.3h-18l7.6 15.3h18z"/>
   <path d="m95 108l-7.6-15.3h-18l7.6 15.3h18z"/>
  </g>
  <g fill="#0092c5">
   <path d="m103 124l-7.6-15.3h-18l7.6 15.3h18z"/>
   <path d="m114 108l-7.6-15.3h-18l7.6 15.3h18z"/>
  </g>
  <g fill="#fff">
   <path d="m121 124l-7.6-15.3h-18l7.6 15.3h18z"/>
   <path d="m132 108l-7.6-15.3h-18l7.6 15.3h18z"/>
  </g>
  <g fill="#0092c5">
   <path d="m139 124l-7.6-15.3h-18l7.6 15.3h18z"/>
   <path d="m150 108l-7.6-15.3h-18l7.6 15.3h18z"/>
  </g>
  <g fill="#fff">
   <path d="m157 124l-7.6-15.3h-18l7.6 15.3h18z"/>
   <path d="m168 108l-7.6-15.3h-18l7.6 15.3h18z"/>
  </g>
  <g fill="#0092c5">
   <path d="m176 124l-7.6-15.3h-18l7.6 15.3h18z"/>
   <path d="m186 108l-7.6-15.3h-18l7.6 15.3h18z"/>
   <path d="m12.9 124h17.6l-7.6-15.3h-11l1 15.3z"/>
  </g>
  <g fill="#fff">
   <path d="m11.9 108h11l-7.6-15.3h-4.4l1 15.3z"/>
   <path d="m186 109v-.7h-18.5l7.6 15.3h9.9l1-14.6z"/>
   <path d="m187 108l1-15.3h-9l7.6 15.3h.4z"/>
  </g>
 </g>
 <path d="m76 46.6c2.3 1.3 4.4.5 7.3-.6 1.3-.5 2.7-1 4.4-1.5 5.1-1.4 6.7.6 8.2 3.5.8-.8 1-2.1 1-4-4.4-3.8-8.5-2.5-11.8-1.5l-1 .3c-2.4.7-4.7.5-5.9-.6-1-1-2.3-1.9-3.9-1.1-.6.3-1 .9-1 1.7-.1 1.4.9 2.8 2.7 3.8" fill="#d8201f"/>
</svg>
