<?xml version="1.0" encoding="UTF-8" standalone="no"?><svg xmlns="http://www.w3.org/2000/svg" xmlns:xlink="http://www.w3.org/1999/xlink" viewBox="0 0 977.12 1067.6"><defs><path id="0" d="m2424.45 672.35c0 4.197-2.269 7.6-5.067 7.6-2.798 0-5.067-3.403-5.067-7.6 0-4.197 2.268-7.6 5.067-7.6 2.798 0 5.067 3.403 5.067 7.6z" fill="#da121a" stroke-linejoin="round" stroke="#000" stroke-linecap="round" stroke-width="5.164"/></defs><g transform="translate(119.18 11.976)"><g stroke="#000"><path d="m679.21-1.951c-26.17.053-51.02.198-70.798.478-79.11 1.122-156.7-.214-235.05 0-2.653.007-5.305.036-7.958.043-78.35.214-155.94 1.122-235.05 0-79.11-1.122-239.53 0-239.53 0 0 0 4.995 48.18 6.784 72.32 3.067 41.38 4.256 82.87 6.784 124.29 3.405 55.766 7.902 111.49 11.307 167.25 2.529 41.41 3.91 82.9 6.784 124.29 4.346 62.59 5.02 125.75 15.786 187.56 6.02 34.562 14.418 68.979 27.14 101.67 15.355 39.473 33.473 78.71 58.839 112.63 18.288 24.456 41.648 45.04 65.884 63.62 27.747 21.272 57.962 39.816 89.93 53.968 33.818 14.97 69.917 25.08 106.24 32.09 27.334 5.278 55.35 7.255 83.19 7.349 27.662.094 55.55-1.52 82.71-6.741 36.46-7.01 72.54-17.626 106.46-32.746 31.934-14.235 62.23-32.696 89.98-53.968 24.24-18.58 47.595-39.17 65.884-63.62 25.365-33.919 43.484-73.16 58.839-112.63 12.718-32.695 21.12-67.16 27.14-101.72 10.762-61.814 11.44-124.97 15.786-187.56 2.874-41.39 4.256-82.87 6.784-124.29 3.405-55.766 7.902-111.44 11.307-167.21 2.529-41.41 3.717-82.909 6.784-124.29 1.79-24.14 6.784-72.32 6.784-72.32 0 0-90.24-.636-168.73-.478z" fill="#fff" stroke-width="20"/><g stroke-width="5"><path d="m469.51 500.48c0 0-112.52-52.862-166.39-83.75-55.6-31.88-118.55-56.85-161.35-104.55-43.41-48.38-66.3-112.79-87.72-174.16-13.13-37.629-24.337-117.06-24.337-117.06 0 0 52.32 28.24 80.55 36.974 23.821 7.368 48.846 11.04 73.73 12.627 32.08 2.04 96.34-4.105 96.34-4.105 0 0 22.714 62.3 36.38 92.48 11.16 24.647 21.406 50.17 37.16 72.16 32.711 45.666 77.82 81.03 117.02 121.26 26.593 27.29 80.17 81.48 80.17 81.48z" fill="#da121a"/><path d="m350.01 504.92c-12.04.023-23.472.086-32.57.207-36.39.486-72.09-.093-108.13 0-1.22.004-2.441.016-3.661.019-36.04.093-71.74.486-108.13 0-36.39-.486-110.19 0-110.19 0 0 0 2.298 20.854 3.121 31.31 1.411 17.912 1.958 35.874 3.121 53.802 1.566 24.14 3.635 48.26 5.202 72.4 1.163 17.928 1.799 35.884 3.121 53.802 1.999 27.1 2.312 54.43 7.262 81.19 2.768 14.961 6.633 29.86 12.484 44.01 7.06 17.09 15.399 34.07 27.07 48.756 8.413 10.586 19.16 19.498 30.31 27.541 12.765 9.208 26.665 17.235 41.37 23.362 15.558 6.48 32.16 10.857 48.875 13.893 12.575 2.285 25.465 3.14 38.27 3.181 12.726.041 25.554-.658 38.05-2.918 16.773-3.03 33.37-7.63 48.975-14.175 14.691-6.162 28.628-14.15 41.39-23.362 11.149-8.04 21.896-16.954 30.31-27.541 11.669-14.683 20-31.669 27.07-48.756 5.851-14.15 9.716-29.07 12.484-44.03 4.951-26.758 5.263-54.1 7.262-81.19 1.322-17.918 1.958-35.874 3.121-53.802 1.566-24.14 3.635-48.24 5.202-72.38 1.163-17.928 1.71-35.89 3.121-53.802.823-10.452 3.121-31.31 3.121-31.31 0 0-41.513-.275-77.62-.207z" fill="#0f47af"/><g stroke-linejoin="round" stroke-linecap="round"><path d="m64.957 504.94c-36.11-.068-77.62.219-77.62.219 0 0 2.27 20.83 3.094 31.28 1.411 17.912 1.962 35.885 3.125 53.813.909 14.01 2.01 28.03 3.063 42.03l2.031 1.875 320.75 294.59c5.698-3.371 11.241-6.974 16.563-10.813 11.149-8.04 21.899-16.945 30.31-27.531 11.669-14.683 19.999-31.663 27.06-48.75 5.851-14.15 9.701-29.07 12.469-44.03.676-3.654 1.262-7.326 1.781-11l-297.75-273.5-8.625-7.938c-1.23-.014-2.456-.015-3.688-.031-9.1-.121-20.526-.196-32.562-.219z" fill="#fff"/><path d="m88.61 533.37c-38.38 0-69.5 31.12-69.5 69.5 0 38.38 31.12 69.5 69.5 69.5 38.38 0 69.5-31.12 69.5-69.5 0-38.38-31.12-69.5-69.5-69.5zm0 28.03c22.909 0 41.5 18.56 41.5 41.469 0 22.909-18.591 41.5-41.5 41.5-22.909 0-41.469-18.591-41.469-41.5 0-22.909 18.56-41.469 41.469-41.469zm108.84 75.938c-38.38 0-69.5 31.12-69.5 69.5 0 38.38 31.12 69.5 69.5 69.5 38.38 0 69.5-31.12 69.5-69.5 0-38.38-31.12-69.5-69.5-69.5zm0 28.03c22.909 0 41.5 18.56 41.5 41.469 0 22.909-18.591 41.5-41.5 41.5-22.909 0-41.469-18.591-41.469-41.5 0-22.909 18.56-41.469 41.469-41.469zm108.84 75.938c-38.38 0-69.5 31.12-69.5 69.5 0 38.38 31.12 69.5 69.5 69.5 38.38 0 69.5-31.12 69.5-69.5 0-38.38-31.12-69.5-69.5-69.5zm0 28.03c22.909 0 41.5 18.56 41.5 41.469 0 22.909-18.591 41.5-41.5 41.5-22.909 0-41.469-18.591-41.469-41.5 0-22.909 18.56-41.469 41.469-41.469z" fill="#0f47af"/><g fill="#da121a"><path d="m489.08 514.68l146.1 166.46c-1.211 14.11-3.731 28.668-.591 42.482 3.03 13.341 8.432 27.24 18.249 36.798 12.909 12.562 31.03 22.716 49.07 22.708 18.305-.001 38.02-9.128 49.803-23.12 10.666-12.659 15.389-31.572 12.9-47.92-3.618-23.763-38.624-60.916-38.624-60.916l-26.16-26.602-146.1-166.46z"/><rect width="171.37" height="23.986" x="-3.313" y="672.66" rx="9.675" transform="matrix(.75527-.65541.65028.75969 0 0)"/><rect width="149.11" height="20.722" x="6.672" y="696.5" rx="9.675" transform="matrix(.75637-.65415.65153.75863 0 0)"/></g></g></g></g><use transform="matrix(1.04348-.56352.37568.69566-2210.01 1438.74)" xlink:href="#0"/><use transform="matrix(1.04348-.56352.37568.69566-2111.34 1550.67)" xlink:href="#0"/><use transform="matrix(1.04348-.56352.37568.69566-2160.39 1496.68)" xlink:href="#0"/></g></svg>