<?xml version="1.0" encoding="UTF-8" standalone="no"?>
<svg
   xmlns:dc="http://purl.org/dc/elements/1.1/"
   xmlns:cc="http://creativecommons.org/ns#"
   xmlns:rdf="http://www.w3.org/1999/02/22-rdf-syntax-ns#"
   xmlns:svg="http://www.w3.org/2000/svg"
   xmlns="http://www.w3.org/2000/svg"
   xmlns:xlink="http://www.w3.org/1999/xlink"
   xmlns:sodipodi="http://sodipodi.sourceforge.net/DTD/sodipodi-0.dtd"
   xmlns:inkscape="http://www.inkscape.org/namespaces/inkscape"
   viewBox="0 0 1178.3453 1215.5188"
   version="1.1"
   id="svg1602"
   sodipodi:docname="DEU_Prutting_COA.svg"
   inkscape:version="0.92.5 (2060ec1f9f, 2020-04-08)"
   width="1178.3453"
   height="1215.5188">
  <metadata
     id="metadata1606">
    <rdf:RDF>
      <cc:Work
         rdf:about="">
        <dc:format>image/svg+xml</dc:format>
        <dc:type
           rdf:resource="http://purl.org/dc/dcmitype/StillImage" />
        <dc:title></dc:title>
      </cc:Work>
    </rdf:RDF>
  </metadata>
  <sodipodi:namedview
     pagecolor="#ffffff"
     bordercolor="#666666"
     borderopacity="1"
     objecttolerance="10"
     gridtolerance="10"
     guidetolerance="10"
     inkscape:pageopacity="0"
     inkscape:pageshadow="2"
     inkscape:window-width="1920"
     inkscape:window-height="1046"
     id="namedview1604"
     showgrid="false"
     inkscape:zoom="0.65239635"
     inkscape:cx="589.17268"
     inkscape:cy="607.75942"
     inkscape:window-x="-11"
     inkscape:window-y="-11"
     inkscape:window-maximized="1"
     inkscape:current-layer="svg1602"
     inkscape:snap-midpoints="true"
     inkscape:snap-smooth-nodes="true"
     inkscape:snap-global="true"
     fit-margin-top="0"
     fit-margin-left="0"
     fit-margin-right="0"
     fit-margin-bottom="0"
     inkscape:object-paths="false" />
  <defs
     id="defs1409">
    <inkscape:path-effect
       effect="spiro"
       id="path-effect5901"
       is_visible="true" />
    <inkscape:path-effect
       effect="spiro"
       id="path-effect5742"
       is_visible="true" />
    <inkscape:path-effect
       effect="spiro"
       id="path-effect5222"
       is_visible="true" />
    <inkscape:path-effect
       effect="spiro"
       id="path-effect5181"
       is_visible="true" />
    <inkscape:path-effect
       effect="spiro"
       id="path-effect5177"
       is_visible="true" />
    <inkscape:path-effect
       effect="spiro"
       id="path-effect5121"
       is_visible="true" />
    <inkscape:path-effect
       effect="spiro"
       id="path-effect5080"
       is_visible="true" />
    <inkscape:path-effect
       effect="spiro"
       id="path-effect3203"
       is_visible="true" />
    <inkscape:path-effect
       effect="spiro"
       id="path-effect3173"
       is_visible="true" />
    <inkscape:path-effect
       effect="spiro"
       id="path-effect3169"
       is_visible="true" />
    <inkscape:path-effect
       effect="spiro"
       id="path-effect3113"
       is_visible="true" />
    <filter
       id="0"
       style="color-interpolation-filters:sRGB">
      <feGaussianBlur
         stdDeviation=".47205"
         id="feGaussianBlur1406" />
    </filter>
    <inkscape:path-effect
       effect="spiro"
       id="path-effect3113-7"
       is_visible="true" />
    <inkscape:path-effect
       effect="spiro"
       id="path-effect3113-7-5"
       is_visible="true" />
    <inkscape:path-effect
       effect="spiro"
       id="path-effect3203-3"
       is_visible="true" />
    <inkscape:path-effect
       effect="spiro"
       id="path-effect3203-3-5"
       is_visible="true" />
    <inkscape:path-effect
       effect="spiro"
       id="path-effect5121-8"
       is_visible="true" />
    <inkscape:path-effect
       effect="spiro"
       id="path-effect5121-8-8"
       is_visible="true" />
    <inkscape:path-effect
       effect="spiro"
       id="path-effect5742-0"
       is_visible="true" />
    <inkscape:path-effect
       effect="spiro"
       id="path-effect5742-8"
       is_visible="true" />
    <inkscape:path-effect
       effect="spiro"
       id="path-effect5742-5"
       is_visible="true" />
  </defs>
  <path
     inkscape:connector-curvature="0"
     style="fill:#000000;stroke:none;stroke-width:1px;stroke-linecap:butt;stroke-linejoin:miter;stroke-opacity:1"
     d="m 514.55932,0.00561935 c -1.71203,-0.013595 -3.42489,-0.00252 -5.13671,0.033203 C 466.69861,0.93036156 425.71961,16.883918 387.41284,35.823979 365.9271,46.447199 344.89205,58.101374 322.58081,66.859136 300.26957,75.616897 276.36089,81.449165 252.44995,79.788823 228.20521,78.105303 204.573,68.531006 185.9929,52.864995 l -34.082,27.605469 c 5.8144,12.916686 8.8565,27.073246 8.8613,41.238286 0.01,22.40363 -7.6371,44.55486 -20.4238,62.95117 -12.7867,18.39631 -30.5626,33.09575 -50.464801,43.38281 -27.3885,14.15655 -58.9858,20.0427 -89.6348004,16.69922 -0.944,13.34274 0.8064,26.87139 5.1133,39.53516 3.4507996,10.14684 8.5347994,19.73613 14.9960994,28.28711 8.992101,0.22174 17.975401,0.78938 26.923801,1.70312 13.0583,1.33341 26.3568,3.50812 37.8301,9.88477 11.4954,6.38899 20.533601,16.7789 26.242201,28.62695 10.0539,20.86675 9.8635,45.00178 9.5429,68.16211 -1.5498,111.95891 -1.3803,224.08408 7.4981,335.70117 6.5353,82.16061 18.4439,166.0421 57.5976,238.56836 28.15464,52.152 69.83723,96.7008 119.09767,129.6542 49.26045,32.9535 105.96279,54.3894 164.45704,63.9258 24.88238,4.0566 50.11023,5.9983 75.32031,5.7949 4.63859,4.7739 9.929,8.9142 15.67773,12.2696 21.5355,11.6515 37.27264,11.4509 57.25586,0 5.74873,-3.3554 11.03915,-7.4957 15.67774,-12.2696 25.21007,0.2034 50.43597,-1.7383 75.31836,-5.7949 58.49424,-9.5364 115.19853,-30.9723 164.45898,-63.9258 49.26045,-32.9534 90.94303,-77.5022 119.09766,-129.6542 39.15375,-72.52626 51.06225,-156.40775 57.59755,-238.56836 8.8784,-111.61709 9.046,-223.74226 7.4961,-335.70117 -0.3206,-23.16033 -0.511,-47.29536 9.543,-68.16211 5.7086,-11.84805 14.7468,-22.23796 26.2422,-28.62695 11.4732,-6.37665 24.7738,-8.55136 37.832,-9.88477 8.9484,-0.91374 17.9317,-1.48138 26.9239,-1.70312 6.4612,-8.55098 11.5452,-18.14027 14.996,-28.28711 4.3069,-12.66377 6.0554,-26.19242 5.1114,-39.53516 -30.649,3.34348 -62.2443,-2.54267 -89.6328,-16.69922 -19.9023,-10.28706 -37.6802,-24.9865 -50.4668,-43.38281 -12.7867,-18.39631 -20.4313,-40.54754 -20.4238,-62.95117 0,-14.16504 3.0468,-28.3216 8.8613,-41.238286 L 992.35425,52.864995 C 973.77421,68.531006 950.14,78.105303 925.89526,79.788823 901.98432,81.449165 878.0776,75.616897 855.76636,66.859136 833.45511,58.101374 812.42007,46.447199 790.93432,35.823979 752.62755,16.883918 711.6466,0.93036156 668.92261,0.03882235 641.53339,-0.53271955 614.03143,5.2256725 589.17261,16.738042 565.86746,5.9451955 540.23984,0.20954175 514.55932,0.00561935 Z"
     id="path5119-6"
     sodipodi:nodetypes="scssscccsscccsccssccsccccscssscssccccccccsssscs" />
  <path
     style="fill:#ed1c24;fill-opacity:1;stroke:none;stroke-width:1px;stroke-linecap:butt;stroke-linejoin:miter;stroke-opacity:1"
     d="m 519.3338,82.466756 c -19.74511,0.100542 -39.48662,2.654976 -58.34962,8.421875 -42.28991,12.929099 -78.28159,41.244499 -119.69336,56.757809 -22.46448,8.41545 -46.48924,12.96393 -70.46485,12.16211 -13.51644,-0.45202 -26.9759,-2.59794 -39.96288,-6.37109 -0.9219,8.05678 -2.34206,16.05727 -4.24804,23.93945 -6.02396,24.91206 -17.1089,48.85128 -33.97657,68.14844 -10.8138,12.37131 -23.7848,22.63714 -36.6816,32.81836 -5.7901,4.5709 -11.5819,9.14 -17.375,13.70703 3.8373,5.79285 7.1378,11.94263 9.8457,18.3418 5.33,12.59584 8.3286,26.06074 10.4257,39.57617 6.2683,40.39621 4.6897,81.54824 3.0879,122.39648 -2.757,70.30995 -5.5373,140.72672 -2.123,211.00782 1.9222,39.56827 5.8069,79.02219 10.6191,118.34375 8.8502,72.31596 21.6248,146.40132 60.03909,208.30664 42.16366,67.9475 112.32425,115.2436 187.65038,142.0879 41.86973,14.9213 85.77928,24.107 130.11915,27.2207 5.04708,3.2533 9.38519,9.2908 15.44336,11.2657 16.15238,5.2654 34.81442,5.2654 50.9668,0 6.05817,-1.9749 10.39629,-8.0124 15.44336,-11.2657 44.33986,-3.1137 88.2494,-12.2994 130.11913,-27.2207 75.32613,-26.8443 145.48673,-74.1404 187.65039,-142.0879 38.41427,-61.90532 51.18889,-135.99068 60.03906,-208.30664 4.8123,-39.32156 8.6969,-78.77548 10.6192,-118.34375 3.4142,-70.2811 0.6339,-140.69787 -2.1231,-211.00782 -1.6018,-40.84824 -3.1803,-82.00027 3.0879,-122.39648 2.0972,-13.51543 5.0957,-26.98033 10.4258,-39.57617 2.7079,-6.39917 6.0084,-12.54895 9.8457,-18.3418 -5.7932,-4.56703 -11.5849,-9.13613 -17.375,-13.70703 -12.8969,-10.18122 -25.8679,-20.44705 -36.68167,-32.81836 -16.86766,-19.29716 -27.9526,-43.23638 -33.97656,-68.14844 -1.90598,-7.88218 -3.32615,-15.88267 -4.24805,-23.93945 -12.98698,3.77315 -26.44645,5.91907 -39.96289,6.37109 -23.97561,0.80182 -48.00036,-3.74666 -70.46484,-12.16211 -41.41177,-15.51331 -77.40346,-43.82871 -119.69336,-56.757809 -23.21599,-7.097722 -47.76371,-9.329446 -72.00976,-8.109375 -18.98318,0.955241 -37.86099,4.004759 -56.17968,9.074219 -18.31869,-5.06946 -37.19455,-8.118978 -56.17774,-9.074219 -4.54613,-0.228763 -9.10359,-0.335702 -13.66015,-0.3125 z"
     id="path5220-5"
     inkscape:connector-curvature="0"
     sodipodi:nodetypes="sssscsccccccccsscaacssssssscssscsssscss" />
  <rect
     style="fill:#ffffff;stroke:#000000;stroke-width:4.65650606"
     id="rect1425"
     transform="matrix(-0.80775505,0.58951826,0.60636038,0.79518997,0,0)"
     rx="14.978227"
     y="693.46521"
     x="-630.9375"
     height="29.866444"
     width="315.56659"
     ry="14.980095" />
  <path
     style="fill:#ffffff;stroke:#000000;stroke-width:2;stroke-linecap:round"
     inkscape:connector-curvature="0"
     id="path1427"
     d="M 919.43421,196.88079 701.35803,356.03836" />
  <path
     style="fill:#ffffff;stroke:#000000;stroke-width:5.00086355;stroke-linejoin:round"
     inkscape:connector-curvature="0"
     id="path1431"
     d="m 982.08088,501.64696 c 0,0 -8.02948,0.99139 -11.75275,-0.20317 -11.43872,-3.67052 -20.34184,-12.74631 -29.47525,-20.42273 -8.89272,-7.47398 -14.07827,-19.36344 -24.42224,-24.75829 -6.73408,-3.5123 -14.90831,-4.08132 -22.53762,-3.92955 -7.12632,0.14227 -13.96242,2.82998 -20.88155,4.50704 -2.59213,0.62814 -7.72445,2.07873 -7.72445,2.07873 0,0 0.084,-6.47224 1.52359,-9.26581 1.67986,-3.26001 7.82831,-7.82914 7.82831,-7.82914 0,0 -5.11043,-0.61318 -7.67655,-0.57499 -7.28907,0.10789 -14.50403,1.47068 -21.74699,2.27902 -10.8851,1.21437 -21.67127,4.04504 -32.62629,3.86092 -8.82179,-0.1525 -18.16508,-0.32657 -26.15355,-3.99206 -3.5816,-1.64332 -8.06819,-3.89267 -8.90471,-7.67612 -0.2428,-1.09757 0.57023,-2.30964 1.41186,-3.07284 2.48408,-2.25227 6.28939,-2.50577 9.55658,-3.37474 13.06306,-3.47193 26.52908,-5.3551 39.92047,-7.27436 9.6186,-1.3779 19.28903,-2.51129 28.99356,-3.03873 6.77268,-0.36891 20.35105,-0.0905 20.35105,-0.0905 0,0 -31.63511,-4.31262 -47.42175,-3.03205 -11.00045,0.89229 -21.29301,6.00001 -32.23955,7.40715 -9.27456,1.19244 -18.78251,2.07574 -28.04958,0.84238 -12.28645,-1.63477 -24.09762,-6.08987 -35.52524,-10.79126 -4.53578,-1.86618 -9.92662,-3.09402 -12.98892,-6.86172 -1.66267,-2.04474 -3.5216,-5.33356 -2.12425,-7.5589 1.45397,-2.31701 5.39313,-1.491 8.16833,-1.62876 12.83477,-0.636 25.51418,3.64837 38.36485,3.76046 16.6582,0.14512 33.21884,-2.55213 49.8108,-4.00695 9.21634,-0.8074 18.61866,-0.55787 27.62922,-2.61962 0.79021,-0.18098 2.27599,-0.84564 2.27599,-0.84564 0,0 -13.63278,-2.1153 -20.27911,-3.89051 -7.3559,-1.96511 -14.25483,-5.34591 -21.57133,-7.45239 -4.73537,-1.36381 -9.47233,-3.28851 -14.40909,-3.34633 -14.07336,-0.16438 -27.47145,6.01985 -41.30032,8.57819 -5.72166,1.05841 -11.41351,2.59969 -17.23282,2.79934 -9.81857,0.3369 -20.04642,0.39074 -29.33999,-2.71946 -3.83951,-1.2844 -7.04988,-3.97542 -10.28506,-6.37229 -2.38474,-1.76709 -5.20006,-3.3219 -6.67664,-5.86763 -1.06522,-1.83614 -1.26781,-4.10491 -1.24419,-6.216 0.017,-1.50382 -0.15086,-3.39364 0.98398,-4.40793 2.36084,-2.10912 6.3274,-1.37935 9.51677,-1.16275 3.09923,0.21018 5.96716,1.71166 9.00056,2.36785 4.76578,1.03131 9.54607,2.40884 14.42509,2.46163 8.101,0.0878 16.33546,-1.08413 24.0293,-3.56684 4.74007,-1.52941 8.33599,-5.92333 13.23643,-6.85066 6.8316,-1.29295 20.7617,2.12888 20.7617,2.12888 0,0 -16.92948,-5.04172 -25.66294,-6.19585 -16.7272,-2.21088 -33.82896,0.38679 -50.62031,-1.31736 -9.26576,-0.94076 -18.61114,-2.14835 -27.49346,-4.90021 -5.33891,-1.65427 -10.92651,-3.41643 -15.25023,-6.90082 -3.48938,-2.8128 -7.12841,-6.40553 -7.94474,-10.75554 -0.56102,-2.99001 0.076,-6.8119 2.41966,-8.80763 0.80392,-0.68455 2.12114,-0.5606 3.17215,-0.38746 5.58411,0.91921 9.73735,6.0387 15.24213,7.34297 7.46934,1.77001 15.36717,0.42428 23.05332,0.39853 10.70923,-0.0362 21.43597,-1.5204 32.11988,-0.77203 8.05679,0.56417 23.89345,3.953 23.89345,3.953 0,0 -8.04218,-2.92995 -12.13269,-4.19198 -16.03564,-4.94654 -32.18393,-9.65144 -48.59412,-13.22944 -13.83366,-3.0159 -29.00726,-1.21688 -41.92616,-6.91927 -7.14453,-3.15359 -14.08077,-7.99665 -18.27773,-14.47533 -3.17055,-4.89411 -4.45636,-11.09586 -4.21697,-16.88682 0.10208,-2.46988 0,-6.22643 2.38774,-7.03821 3.19888,-1.08826 5.61913,3.70264 8.49287,5.45592 6.47106,3.94964 12.649,8.53438 19.68877,11.40249 8.30119,3.38076 17.30995,4.8148 26.10563,6.64578 8.04658,1.67518 16.27142,2.41868 24.34692,3.96083 5.13442,0.98062 15.31406,3.36197 15.31406,3.36197 0,0 -13.60639,-7.01443 -20.61796,-10.09247 -17.49481,-7.6757 -37.19039,-10.86456 -53.43132,-20.83686 -7.32548,-4.49734 -14.39089,-10.06577 -19.13437,-17.14471 -3.86811,-5.77254 -7.6198,-12.72061 -6.88101,-19.58702 0.47359,-4.40217 3.0317,-9.23771 6.98817,-11.3836 1.44998,-0.7883 3.52218,-0.69987 4.97306,0.0859 5.41174,2.93424 6.0602,10.65418 10.1254,15.22019 5.551,6.23584 12.12179,11.66702 19.15027,16.25838 6.11012,3.99318 12.62919,7.75586 19.7207,9.63306 3.0582,0.80917 9.48474,0.60624 9.48474,0.60624 0,0 -17.27763,-11.18719 -23.62204,-18.99224 -8.55998,-10.53108 -13.20761,-23.67417 -18.33824,-36.15752 -1.95608,-4.7594 -5.31721,-9.58801 -4.70966,-14.68145 0.56413,-4.72353 3.92625,-8.9916 7.45594,-12.26051 1.37144,-1.26998 3.17286,-2.95014 5.02098,-2.56816 4.39885,0.90923 6.02819,6.58683 8.40503,10.32244 7.73236,12.14753 11.10649,26.61207 18.74301,38.81906 14.60997,23.35446 32.40911,44.82169 51.27697,65.04487 9.13861,9.7949 19.51642,18.42961 29.80608,27.06483 16.66719,13.98659 32.78126,29.01411 51.64191,40.01501 12.19132,7.11017 26.55389,9.98953 39.12877,16.42245 27.25587,13.94221 52.68351,31.11032 78.26443,47.81167 13.52814,8.83001 28.63641,16.05695 39.74431,27.67772 3.0553,3.197 6.19644,6.8835 7.03268,11.18329 1.25559,6.45413 -2.86853,12.86869 -3.51539,19.40728 -0.34854,3.5226 -1.17847,7.21127 -0.19168,10.6149 1.03781,3.58055 6.16054,9.39864 6.16054,9.39864 z" />
  <path
     d="m 947.38837,463.5112 c 0,0 -0.4871,-5.68171 0.7828,-8.08366 1.53452,-2.90683 4.57581,-5.00663 7.59631,-6.40795 2.00169,-0.93011 4.32992,-1.12252 6.54578,-1.13279 2.5206,-0.0118 7.45865,1.21909 7.45865,1.21909"
     id="path1433"
     inkscape:connector-curvature="0"
     style="fill:none;stroke:#000000;stroke-width:5.00086355;stroke-linecap:round" />
  <path
     d="m 966.03333,488.75232 c 0,0 -6.99116,-7.41682 -9.33449,-11.8422 -1.64435,-3.10423 -3.01079,-6.53061 -3.16035,-10.02216 -0.11394,-2.64437 0.48059,-5.41045 1.73168,-7.75729 0.92067,-1.72734 2.2466,-3.47805 4.05641,-4.29086 1.78641,-0.80231 4.0649,-0.9175 5.89273,-0.20972 2.68566,1.04026 4.99787,3.41066 6.09831,6.02353 1.07132,2.54399 1.22728,5.77424 0.0103,8.25479 -1.04372,2.12664 -4.21796,2.52174 -5.65033,4.4191 -1.34684,1.78312 -2.28961,3.97867 -2.49899,6.18651 -0.16546,1.74363 0.507,3.47991 1.02091,5.1572 0.49789,1.62561 1.98268,4.70645 1.98268,4.70645 z"
     id="path1435"
     inkscape:connector-curvature="0"
     style="fill:none;stroke:#000000;stroke-width:5.00086355;stroke-linejoin:round" />
  <path
     style="fill:none;stroke:#000000;stroke-width:5.00086355;stroke-linecap:round"
     inkscape:connector-curvature="0"
     id="path1437"
     d="m 943.45091,461.26204 c 0,0 -6.89773,-5.46517 -10.51966,-7.96908 -2.8014,-1.93656 -8.65592,-5.44661 -8.65592,-5.44661" />
  <path
     style="fill:none;stroke:#000000;stroke-width:5.00086355;stroke-linecap:round"
     inkscape:connector-curvature="0"
     id="path1439"
     d="m 833.93052,436.00789 c 0,0 14.1663,-3.84216 21.41596,-4.92676 8.21315,-1.22575 16.55696,-2.03569 24.85943,-1.75054 6.83841,0.23476 13.83267,0.71622 20.31883,2.84313 5.8046,1.9031 16.07806,8.68834 16.07806,8.68834" />
  <path
     style="fill:none;stroke:#000000;stroke-width:5.00086355;stroke-linecap:round"
     inkscape:connector-curvature="0"
     id="path1441"
     d="m 812.39271,412.27469 c 0,0 20.29181,-4.78148 30.65531,-5.38818 7.84291,-0.45926 15.75003,0.2836 23.5308,1.34113 7.39844,1.0056 21.87665,4.73917 21.87665,4.73917" />
  <path
     style="fill:none;stroke:#000000;stroke-width:5.00086355;stroke-linecap:round"
     inkscape:connector-curvature="0"
     id="path1443"
     d="m 715.63896,341.13862 c 0,0 13.81176,0.0393 20.67648,0.66901 7.78277,0.71361 15.64318,1.46336 23.17236,3.51564 6.47155,1.76369 18.64697,7.48639 18.64697,7.48639" />
  <path
     style="fill:none;stroke:#000000;stroke-width:5.00086355;stroke-linecap:round"
     inkscape:connector-curvature="0"
     id="path1445"
     d="m 705.122,306.38288 c 0,0 10.77647,3.66028 16.13418,5.57588 4.44447,1.58782 9.05498,2.81634 13.28076,4.90175 4.12733,2.03718 11.6445,7.36576 11.6445,7.36576" />
  <path
     style="fill:none;stroke:#000000;stroke-width:5.00086355;stroke-linecap:round"
     inkscape:connector-curvature="0"
     id="path1447"
     d="m 666.41541,228.77623 c 0,0 6.13113,11.9665 10.19184,17.30939 3.89513,5.12474 13.436,13.9376 13.436,13.9376" />
  <path
     style="fill:none;stroke:#000000;stroke-width:5.00086355;stroke-linecap:round"
     inkscape:connector-curvature="0"
     id="path1449"
     d="m 661.6069,266.07133 c 0,0 18.78523,9.36317 28.40384,13.57359 6.43814,2.81845 13.65509,4.08961 19.59424,7.81436 2.5294,1.58668 6.5737,6.03176 6.5737,6.03176" />
  <path
     style="fill:#ffffff;stroke:#000000;stroke-width:5.21800041"
     inkscape:connector-curvature="0"
     id="path1459"
     d="m 552.98938,353.45394 c 10.24004,-7.4733 23.16915,-7.49582 28.8504,-0.0441 1.9948,2.61575 2.82412,5.80125 2.63005,9.16198 l 100.53973,14.21141 -14.56776,98.47249 c 3.32032,0.78218 6.19645,2.46989 8.17823,5.06997 5.68225,7.45176 1.95578,19.54375 -8.28327,27.01411 -10.24005,7.4733 -23.11914,7.50266 -28.79838,0.0499 -1.99179,-2.61183 -2.82011,-5.80712 -2.63005,-9.16199 L 565.79945,487.8705 c -0.80032,3.24815 -2.47699,6.06948 -5.13304,8.00878 -7.61701,5.55847 -20.0029,1.9344 -27.64092,-8.08415 -7.63802,-10.01759 -7.64102,-22.6431 -0.023,-28.19375 2.66705,-1.94614 5.91133,-2.73616 9.33667,-2.55212 l 10.5872,-71.52203 c -3.31532,-0.78316 -6.17745,-2.44541 -8.15823,-5.04159 -5.68224,-7.45176 -2.0008,-19.54863 8.23525,-27.02193 z" />
  <path
     d="m 877.86779,247.78616 6.40954,8.40624 0.22409,-0.16349 6.93173,9.09053 24.00949,-17.52613 34.70171,45.51135 -16.06635,11.72487 -10.50214,-13.77381 -15.53414,11.33427 10.50215,13.77382 -13.65941,9.96766 -17.24581,-22.61373 11.36349,-8.29269 -7.30789,-9.58391 -11.36349,8.29268 -7.99716,-10.48749 -9.51576,6.94467 7.99716,10.48748 -11.36349,8.29268 7.30789,9.58391 11.36349,-8.29267 17.24581,22.61373 -13.6594,9.96766 -10.50214,-13.77381 -15.53414,11.33427 10.50214,13.77382 -16.06634,11.72486 -34.70173,-45.51135 24.0095,-17.52612 -6.93174,-9.09053 0.28012,-0.2046 -6.40954,-8.40623 51.50036,-37.58186 z"
     id="path1461"
     inkscape:connector-curvature="0"
     style="fill:#ffffff;stroke:#000000;stroke-width:5;stroke-linecap:round" />
  <rect
     style="fill:#ffffff;stroke:#000000;stroke-width:5.00054312"
     ry="11.864491"
     width="26.311775"
     height="55.638214"
     x="-326.75818"
     y="680.57935"
     rx="11.862596"
     transform="matrix(-0.80775505,0.58951826,0.60636038,0.79518997,0,0)"
     id="rect1463" />
  <path
     d="m 582.76115,394.78517 6.50557,1.21879 4.94496,-0.37004 8.29527,0.59422 4.90794,3.23739 3.93156,3.7807 1.5276,3.14634 2.96917,-3.18941 3.97157,-1.87567 4.50278,-2.09299 7.03278,1.68477 4.74387,1.65149 4.80191,1.26969 6.0894,-0.0117 -1.19147,6.66566 0.43017,6.50512 0.65927,4.29171 -1.13345,6.28192 -3.39135,4.0088 -6.79669,3.42632 0.43818,3.08956 3.62343,3.15222 2.58703,4.0783 0.041,5.76699 -1.77671,6.58245 -1.85873,5.78853 0.62424,7.21681 -4.16165,-0.20166 -5.24707,-1.62701 -7.26287,-0.15468 -5.42014,0.2046 -5.38813,-1.3529 c 0,0 -2.16986,-3.53107 -2.67106,-4.18697 -0.50119,-0.65785 -3.75748,-4.92411 -3.75748,-4.92411 l -3.72347,2.8879 -5.53719,2.33675 -6.73366,0.31032 -8.8505,-2.23592 -5.5562,-0.88888 -5.58721,-0.0137 1.88575,-5.29709 -0.058,-9.67496 0.99539,-6.69307 3.08521,-4.63826 4.61884,-3.54086 3.35633,-1.76798 -4.93096,-5.09544 -2.99418,-8.72537 2.62103,-8.89865 2.18287,-11.99212 z"
     id="path1469"
     inkscape:connector-curvature="0"
     style="fill:#ed1c24;fill-opacity:1;stroke:#000000;stroke-width:1" />
  <path
     style="fill:none;stroke:#000000;stroke-width:5;stroke-linecap:round"
     d="m 578.3294,392.05389 c 0,0 4.51678,3.02301 7.0988,3.77092 1.91676,0.55506 3.98058,0.4787 5.97936,0.45717 2.19287,-0.0245 4.35573,-0.75575 6.54559,-0.64611 2.26089,0.11356 4.60882,0.38962 6.65363,1.34116 1.40056,0.65198 2.531,1.78267 3.60342,2.87909 1.04042,1.06314 1.95277,2.26039 2.69907,3.53988 0.76831,1.31767 1.79472,4.19969 1.79472,4.19969"
     id="path1471"
     inkscape:connector-curvature="0" />
  <path
     style="fill:none;stroke:#000000;stroke-width:5;stroke-linecap:round"
     d="m 578.3294,392.05389 c 0,0 1.67566,5.09739 1.67266,7.73176 0,1.95594 -0.66427,3.8688 -1.2565,5.73664 -0.64826,2.04894 -1.98178,3.8688 -2.498,5.95495 -0.53321,2.1527 -0.93136,4.43268 -0.58122,6.62161 0.2391,1.49877 1.0254,2.88105 1.79471,4.19969 0.7453,1.27851 1.65866,2.47576 2.69907,3.53988 1.07242,1.09544 3.60342,2.87909 3.60342,2.87909"
     id="path1473"
     inkscape:connector-curvature="0" />
  <path
     style="fill:none;stroke:#000000;stroke-width:5;stroke-linecap:round"
     d="m 650.1778,402.28392 c 0,0 -3.09023,4.41898 -3.85453,6.94467 -0.56723,1.87567 -0.4892,3.89426 -0.46718,5.84922 0.0251,2.14586 0.77329,4.26137 0.66025,6.40429 -0.11703,2.21242 -0.39816,4.50904 -1.37154,6.50903 -0.66625,1.36955 -1.82272,2.47576 -2.94316,3.5252 -1.08644,1.0181 -2.31091,1.9109 -3.61742,2.64022 -1.34654,0.75183 -4.29271,1.75526 -4.29271,1.75526"
     id="path1475"
     inkscape:connector-curvature="0" />
  <path
     style="fill:none;stroke:#000000;stroke-width:5;stroke-linecap:round"
     d="m 650.1778,402.28392 c 0,0 -5.21006,1.63974 -7.90314,1.63583 -1.99878,-0.002 -3.95455,-0.65002 -5.8643,-1.22858 -2.09483,-0.63436 -3.95457,-1.9393 -6.08642,-2.44346 -2.20086,-0.52178 -4.53179,-0.9114 -6.76866,-0.56877 -1.53262,0.23397 -2.94517,1.00342 -4.29271,1.75526 -1.30651,0.72931 -2.53,1.62211 -3.61743,2.64022 -1.12044,1.04944 -2.94316,3.5252 -2.94316,3.5252"
     id="path1477"
     inkscape:connector-curvature="0" />
  <path
     style="fill:none;stroke:#000000;stroke-width:5;stroke-linecap:round"
     d="m 639.72366,472.57247 c 0,0 -4.51678,-3.023 -7.09881,-3.77091 -1.91675,-0.55506 -3.98057,-0.4787 -5.97936,-0.45717 -2.19286,0.0245 -4.35572,0.75575 -6.54559,0.64611 -2.26089,-0.11356 -4.60881,-0.38962 -6.65362,-1.34116 -1.40055,-0.65198 -2.531,-1.78267 -3.60344,-2.87909 -1.0404,-1.06314 -1.95275,-2.26039 -2.69906,-3.53988 -0.7683,-1.31767 -1.7947,-4.19969 -1.7947,-4.19969"
     id="path1479"
     inkscape:connector-curvature="0" />
  <path
     style="fill:none;stroke:#000000;stroke-width:5;stroke-linecap:round"
     d="m 639.72366,472.57247 c 0,0 -1.67567,-5.09738 -1.67166,-7.73174 0,-1.95595 0.66426,-3.86881 1.25649,-5.73665 0.64826,-2.04894 1.98179,-3.8688 2.49799,-5.95495 0.53321,-2.1527 0.93137,-4.43268 0.58123,-6.62161 -0.23909,-1.49877 -1.0254,-2.88104 -1.79471,-4.19969 -0.74529,-1.27851 -1.65865,-2.47576 -2.69906,-3.5389 -1.07242,-1.09544 -3.60343,-2.87909 -3.60343,-2.87909"
     id="path1481"
     inkscape:connector-curvature="0" />
  <path
     style="fill:none;stroke:#000000;stroke-width:5;stroke-linecap:round"
     d="m 567.87527,462.34246 c 0,0 3.09022,-4.41898 3.85452,-6.94467 0.56722,-1.87567 0.48919,-3.89426 0.46718,-5.84923 -0.0251,-2.14586 -0.77331,-4.26137 -0.66026,-6.40428 0.11705,-2.21242 0.39816,-4.50904 1.37155,-6.50903 0.66626,-1.36955 1.82271,-2.47576 2.94315,-3.5252 1.08643,-1.0181 2.31092,-1.9109 3.61744,-2.64022 1.34654,-0.75183 4.2927,-1.75526 4.2927,-1.75526"
     id="path1483"
     inkscape:connector-curvature="0" />
  <path
     style="fill:none;stroke:#000000;stroke-width:5;stroke-linecap:round"
     d="m 567.87527,462.34246 c 0,0 5.21005,-1.63975 7.90311,-1.63583 1.9988,0.002 3.95457,0.65002 5.86433,1.22858 2.09482,0.63436 3.95456,1.9393 6.0864,2.44345 2.20087,0.52179 4.53179,0.9114 6.76867,0.56878 1.53162,-0.23397 2.94517,-1.00342 4.29271,-1.75526 1.30652,-0.72931 2.52999,-1.62211 3.61741,-2.64022 1.12045,-1.04944 2.94317,-3.5252 2.94317,-3.5252"
     id="path1485"
     inkscape:connector-curvature="0" />
  <path
     d="m 425.56,379.21 v 26.974"
     transform="matrix(-0.89563399,0.65364438,0.66813407,0.87620848,805.94936,-246.95519)"
     id="path1489"
     inkscape:connector-curvature="0"
     style="fill:#ffffff;stroke:#000000;stroke-width:2.62627625;stroke-linecap:round;filter:url(#0)" />
  <path
     style="fill:#ffffff;stroke:#000000;stroke-width:2;stroke-linecap:round"
     inkscape:connector-curvature="0"
     id="path1491"
     d="m 673.14688,403.8894 -8.92353,56.1721" />
  <path
     style="fill:#ffffff;stroke:#000000;stroke-width:2;stroke-linecap:round"
     inkscape:connector-curvature="0"
     id="path1493"
     d="m 560.20222,391.55464 -8.92353,56.17211" />
  <path
     style="fill:#ffffff;stroke:#000000;stroke-width:2;stroke-linecap:round"
     inkscape:connector-curvature="0"
     id="path1495"
     d="m 591.76471,370.94775 57.42269,8.73028" />
  <path
     style="fill:#ffffff;stroke:#000000;stroke-width:2;stroke-linecap:round"
     inkscape:connector-curvature="0"
     id="path1497"
     d="m 576.47866,481.44176 57.4227,8.73026" />
  <path
     style="fill:#ffffff;stroke:#000000;stroke-width:2;stroke-linecap:round"
     inkscape:connector-curvature="0"
     id="path1499"
     d="m 535.8326,471.83825 c 0,0 -0.53822,2.36418 -0.54521,3.56632 -0.0103,0.99852 0.15105,2.00293 0.41517,2.96621 0.31311,1.14831 0.7943,2.25746 1.37354,3.30102 0.41115,0.74008 0.94337,1.41262 1.47757,2.07439 0.69327,0.85854 1.41556,1.70337 2.23489,2.44835 0.76829,0.69995 1.57061,1.39109 2.49198,1.88252 1.04142,0.55605 2.20488,0.8791 3.35333,1.16691 0.92036,0.23103 2.81311,0.44542 2.81311,0.44542" />
  <path
     style="fill:#ffffff;stroke:#000000;stroke-width:2;stroke-linecap:round"
     inkscape:connector-curvature="0"
     id="path1501"
     d="m 545.9566,470.67331 c 0,0 1.36353,0.094 2.0108,0.279 0.5412,0.1537 1.06042,0.39354 1.54061,0.68233 0.57122,0.34361 1.09643,0.76652 1.56961,1.23054 0.33613,0.32991 0.61525,0.71072 0.88935,1.09153 0.35515,0.49437 0.69928,1.00049 0.97339,1.54282 0.25711,0.50808 0.5062,1.03182 0.62625,1.5859 0.13705,0.62653 0.12905,1.28047 0.10404,1.9207 -0.02,0.51297 -0.20208,1.52716 -0.20208,1.52716" />
  <path
     style="fill:#ffffff;stroke:#000000;stroke-width:2;stroke-linecap:round"
     inkscape:connector-curvature="0"
     id="path1503"
     d="m 654.53952,504.94633 c 0,0 2.41695,0.52667 3.64544,0.53352 1.02039,0.006 2.04781,-0.14782 3.0312,-0.40626 1.17346,-0.30641 2.30691,-0.77631 3.37433,-1.34411 0.7563,-0.40234 1.44357,-0.92217 2.11983,-1.44493 0.87736,-0.6784 1.7407,-1.3852 2.503,-2.18598 0.71528,-0.75086 1.42156,-1.53597 1.92475,-2.43758 0.56824,-1.0191 0.89836,-2.15663 1.19348,-3.28046 0.23609,-0.90064 0.45518,-2.75183 0.45518,-2.75183" />
  <path
     style="fill:#ffffff;stroke:#000000;stroke-width:2;stroke-linecap:round"
     inkscape:connector-curvature="0"
     id="path1505"
     d="m 653.34905,495.04915 c 0,0 0.0971,-1.33432 0.28511,-1.96769 0.15706,-0.52962 0.40216,-1.03671 0.69728,-1.50758 0.35114,-0.55899 0.78331,-1.07293 1.2585,-1.53597 0.33613,-0.32795 0.72629,-0.60207 1.11544,-0.8703 0.5052,-0.34752 1.02339,-0.68428 1.57661,-0.95252 0.51922,-0.25159 1.05442,-0.49436 1.62165,-0.61281 0.64025,-0.13411 1.30851,-0.12629 1.96277,-0.10181 0.5242,0.0196 1.56162,0.19677 1.56162,0.19677" />
  <path
     style="fill:#ffffff;stroke:#000000;stroke-width:2;stroke-linecap:round"
     inkscape:connector-curvature="0"
     id="path1507"
     d="m 551.35873,369.63597 c 0,0 0.17307,-2.41605 0.5152,-3.57122 0.28412,-0.95937 0.72929,-1.87762 1.2625,-2.72931 0.63526,-1.01321 1.41857,-1.94222 2.27791,-2.78119 0.60923,-0.5952 1.31551,-1.09054 2.0208,-1.57513 0.91436,-0.62946 1.85273,-1.23739 2.85412,-1.72393 0.94038,-0.45717 1.91076,-0.89476 2.93617,-1.11013 1.16046,-0.24278 2.36893,-0.2281 3.5554,-0.18404 0.94937,0.0352 2.82612,0.35731 2.82612,0.35731" />
  <path
     style="fill:#ffffff;stroke:#000000;stroke-width:2;stroke-linecap:round"
     inkscape:connector-curvature="0"
     id="path1509"
     d="m 560.72244,373.58113 c 0,0 1.33453,0.29075 2.01079,0.29467 0.56423,0.003 1.13045,-0.0822 1.67567,-0.22418 0.64825,-0.16936 1.27449,-0.42878 1.86372,-0.74205 0.41818,-0.22222 0.79732,-0.51003 1.17047,-0.79882 0.4842,-0.37494 0.96138,-0.76456 1.38155,-1.20704 0.39515,-0.41508 0.78531,-0.84875 1.06242,-1.34606 0.31412,-0.56289 0.4962,-1.19138 0.65926,-1.81203 0.13105,-0.49731 0.2521,-1.52031 0.2521,-1.52031" />
  <g
     id="g5351"
     transform="translate(4)">
    <path
       d="m 409.31009,541.71281 h 115.957 v 234.57 h -115.957 z"
       id="path1457"
       inkscape:connector-curvature="0"
       style="fill:#ffffff;stroke:#000000;stroke-width:5;stroke-linecap:round;stroke-linejoin:round" />
    <path
       style="fill:#ffdd00;fill-opacity:1;stroke:#000000;stroke-width:5;stroke-linecap:round;stroke-linejoin:round"
       inkscape:connector-curvature="0"
       id="path1515"
       d="m 361.91773,565.93282 v 188.22 h 435.2679 c 0,0 23.42847,-61.14 34.23122,-92.03 11.13997,-31.854 37.64822,-96.19 37.64822,-96.19 z" />
    <path
       d="M 361.09004,754.14282 H 797.16519 V 1022.9228 H 361.09004 Z"
       id="path1517"
       inkscape:connector-curvature="0"
       style="fill:#ffffff;stroke:#000000;stroke-width:5;stroke-linecap:round;stroke-linejoin:round" />
    <path
       d="M 261.5293,781.82282 H 377.48629 V 991.48284 H 261.5293 Z"
       id="path1519"
       inkscape:connector-curvature="0"
       style="fill:#ffffff;stroke:#000000;stroke-width:5;stroke-linecap:round;stroke-linejoin:round" />
    <path
       d="m 245.62047,991.49284 h 147.7767 v 36.67296 h -147.7767 z"
       id="path1521"
       inkscape:connector-curvature="0"
       style="fill:#ffffff;stroke:#000000;stroke-width:5;stroke-linecap:round;stroke-linejoin:round" />
    <path
       d="m 245.62047,754.14282 h 147.7767 v 27.679 h -147.7767 z"
       id="path1523"
       inkscape:connector-curvature="0"
       style="fill:#ffffff;stroke:#000000;stroke-width:5;stroke-linecap:round;stroke-linejoin:round" />
    <path
       d="m 261.5293,519.57282 h 115.95699 v 234.57 H 261.5293 Z"
       id="path1525"
       inkscape:connector-curvature="0"
       style="fill:#ffffff;stroke:#000000;stroke-width:5;stroke-linecap:round;stroke-linejoin:round" />
    <path
       style="fill:#000000;stroke:#000000;stroke-width:5;stroke-linecap:round;stroke-linejoin:round"
       inkscape:connector-curvature="0"
       id="path1529"
       d="m 319.51188,547.34281 c -6.63881,0 -12.03815,13.26701 -12.03815,29.656 v 107.97 h 24.04462 v -107.97 c 0,-16.39 -5.36765,-29.656 -12.00647,-29.656 z" />
    <path
       d="m 319.5221,287.78282 c 0,0 -13.44112,79.6 -24.74866,118.31 -9.87802,33.821 -37.48882,98.94 -37.48882,98.94 l 35.05891,2.188 -0.41487,3.375 27.55768,-1.71901 27.58934,1.71901 -0.41486,-3.375 35.0589,-2.188 c 0,0 -27.5781,-65.12 -37.45611,-98.94 -11.30141,-38.709 -24.74867,-118.31 -24.74867,-118.31 z"
       id="path1535"
       inkscape:connector-curvature="0"
       style="fill:#ffdd00;fill-opacity:1;stroke:#000000;stroke-width:5" />
    <path
       d="m 245.62047,497.43282 h 147.7767 v 22.14 h -147.7767 z"
       id="path1537"
       inkscape:connector-curvature="0"
       style="fill:#ffffff;stroke:#000000;stroke-width:5;stroke-linecap:round;stroke-linejoin:round" />
    <path
       d="m 338.36245,289.35098 c 0,10.1767 -8.42956,18.42663 -18.82799,18.42663 -10.39842,0 -18.82799,-8.24993 -18.82799,-18.42663 0,-10.17669 8.42957,-18.42662 18.82799,-18.42662 10.39843,0 18.82799,8.24993 18.82799,18.42662 z"
       id="1"
       inkscape:connector-curvature="0"
       style="fill:#ffdd00;fill-opacity:1;stroke:#000000;stroke-width:4.99931765;stroke-linecap:round;stroke-linejoin:round" />
    <path
       style="fill:#ffdd00;fill-opacity:1;stroke:#000000;stroke-width:5"
       inkscape:connector-curvature="0"
       id="path1544"
       d="m 467.29881,309.92282 c 0,0 -13.44112,79.6 -24.74867,118.31 -9.878,33.82099 -37.48881,98.94 -37.48881,98.94 l 35.05891,2.188 -0.41486,3.375 27.55766,-1.71901 27.58934,1.71901 -0.41485,-3.375 35.0589,-2.188 c 0,0 -27.5781,-65.12 -37.45611,-98.94 -11.30141,-38.709 -24.74866,-118.31 -24.74866,-118.31 z" />
    <path
       style="fill:#ffffff;stroke:#000000;stroke-width:5;stroke-linecap:round;stroke-linejoin:round"
       inkscape:connector-curvature="0"
       id="path1546"
       d="m 393.40023,519.57282 h 147.77671 v 22.13999 H 393.40023 Z" />
    <use
       style="fill:#ffdd00;fill-opacity:1;stroke-width:0.98926169"
       transform="translate(147.7767,22.14)"
       xlink:href="#1"
       id="use1550"
       x="0"
       y="0"
       width="100%"
       height="100%" />
    <path
       d="M 411.23113,981.48284 H 791.22837"
       id="path1552"
       inkscape:connector-curvature="0"
       style="fill:#ffffff;stroke:#000000;stroke-width:5" />
    <path
       d="m 480.92999,789.49282 c -16.43099,0 -29.75562,16.689 -29.75562,37.25 v 127.28 h 59.52146 v -127.28 c 0,-20.561 -13.32464,-37.25 -29.75563,-37.25 z"
       id="path1554"
       inkscape:connector-curvature="0"
       style="fill:#ffffff;stroke:#000000;stroke-width:5;stroke-linecap:round;stroke-linejoin:round" />
    <path
       style="fill:#000000;stroke:#000000;stroke-width:5;stroke-linecap:round;stroke-linejoin:round"
       inkscape:connector-curvature="0"
       id="path1558"
       d="m 491.98616,797.52282 c -10.33068,0 -18.70966,13.849 -18.70966,30.912 v 105.63 h 37.41933 v -105.63 c 0,-17.06 -8.37899,-30.912 -18.70967,-30.912 z" />
    <path
       d="m 473.2765,934.06282 -22.10213,19.966"
       id="path1560"
       inkscape:connector-curvature="0"
       style="fill:#ffffff;stroke:#000000;stroke-width:5" />
    <path
       d="m 589.89768,789.49282 c -16.43099,0 -29.75562,16.689 -29.75562,37.25 v 127.28 h 59.52146 v -127.28 c 0,-20.561 -13.32463,-37.25 -29.75562,-37.25 z"
       id="path1562"
       inkscape:connector-curvature="0"
       style="fill:#ffffff;stroke:#000000;stroke-width:5;stroke-linecap:round;stroke-linejoin:round" />
    <path
       style="fill:#000000;stroke:#000000;stroke-width:5;stroke-linecap:round;stroke-linejoin:round"
       inkscape:connector-curvature="0"
       id="path1566"
       d="m 600.95386,797.52282 c -10.33068,0 -18.70966,13.849 -18.70966,30.912 v 105.63 h 37.41932 v -105.63 c 0,-17.06 -8.37899,-30.912 -18.70966,-30.912 z" />
    <path
       d="m 582.2442,934.06282 -22.10214,19.966"
       id="path1568"
       inkscape:connector-curvature="0"
       style="fill:#ffffff;stroke:#000000;stroke-width:5" />
    <path
       d="m 698.87559,789.49282 c -16.43098,0 -29.75561,16.689 -29.75561,37.25 v 127.28 h 59.52145 v -127.28 c 0,-20.561 -13.32463,-37.25 -29.75562,-37.25 z"
       id="path1570"
       inkscape:connector-curvature="0"
       style="fill:#ffffff;stroke:#000000;stroke-width:5;stroke-linecap:round;stroke-linejoin:round" />
    <path
       style="fill:#000000;stroke:#000000;stroke-width:5;stroke-linecap:round;stroke-linejoin:round"
       inkscape:connector-curvature="0"
       id="path1574"
       d="m 709.92156,797.52282 c -10.33068,0 -18.70968,13.849 -18.70968,30.912 v 105.63 h 37.41934 v -105.63 c 0,-17.06 -8.37899,-30.912 -18.70966,-30.912 z" />
    <path
       d="m 691.21188,934.06282 -22.10212,19.966"
       id="path1576"
       inkscape:connector-curvature="0"
       style="fill:#ffffff;stroke:#000000;stroke-width:5" />
    <path
       style="fill:#ffffff;stroke:#000000;stroke-width:5;stroke-linecap:round;stroke-linejoin:round"
       inkscape:connector-curvature="0"
       id="path1578"
       d="m 862.93001,501.84281 v 24.22001 h -24.74865 v 15.65599 h 24.74865 v 24.22 h 15.99774 v -24.22 h 24.74866 v -15.65599 h -24.74866 v -24.22001 z" />
    <path
       inkscape:connector-curvature="0"
       id="path1580"
       d="m 869.06887,565.92549 c 0,0 -25.36559,64.02946 -37.64796,96.18946 -17.32406,32.76999 -62.8424,92.03125 -62.8424,92.03125 l 0.002,0.006 23.22463,12.64453 h 5.3606 v 256.12687 h 0.0103 v 0 h 0.0102 l 143.77633,-26.07414 5.87152,-1.06445 V 766.79659 h -0.49894 l 23.22264,-12.64453 0.002,-0.006 c 0,0 -45.51834,-59.26126 -62.84241,-92.03125 -12.28236,-32.16 -37.64795,-96.18946 -37.64795,-96.18946 z"
       style="fill:#ffffff;stroke:#000000;stroke-width:5;stroke-linejoin:round" />
    <path
       d="m 890.11063,735.46281 c 0,21.02 -9.33848,38.06 -20.85857,38.06 -11.52008,0 -20.85857,-17.04 -20.85857,-38.06 0,-21.01999 9.33849,-38.05999 20.85857,-38.05999 11.52009,0 20.85857,17.04 20.85857,38.05999 z"
       id="path1586"
       inkscape:connector-curvature="0"
       style="fill:#000000;stroke:#000000;stroke-width:5;stroke-linecap:round;stroke-linejoin:round" />
    <path
       d="m 866.63925,846.40282 c -10.64131,0 -19.31867,17.01 -19.31867,38 v 129.43998 l 38.57399,-7 V 884.40282 c 0,-20.99301 -8.614,-38 -19.25532,-38 z"
       id="path1588"
       inkscape:connector-curvature="0"
       style="fill:#000000;stroke:#000000;stroke-width:5;stroke-linecap:round;stroke-linejoin:round" />
    <path
       d="m 808.67097,980.42283 27.57504,-4.15202"
       id="path1592"
       inkscape:connector-curvature="0"
       style="fill:none;stroke:#000000;stroke-width:5;stroke-linecap:butt" />
    <path
       d="m 894.7906,970.28282 43.83743,-8.70501"
       id="path1594"
       inkscape:connector-curvature="0"
       style="fill:none;stroke:#000000;stroke-width:5;stroke-linecap:butt" />
  </g>
  <path
     style="fill:#ffdd00;fill-opacity:1;stroke:none;stroke-width:1px;stroke-linecap:butt;stroke-linejoin:miter;stroke-opacity:1"
     d="m 517.06721,39.964844 c -3.20391,-0.02499 -6.40786,0.02604 -9.60938,0.15625 -28.92458,1.17638 -57.45563,8.68389 -83.74804,20.796875 -21.25623,9.7928 -41.03744,22.527386 -62.10547,32.71875 -38.17384,18.466051 -81.16043,28.396981 -123.29492,23.609371 -9.9277,-1.12805 -19.76411,-3.06044 -29.38086,-5.77148 5.83363,11.25433 15.09775,20.70249 26.23437,26.75781 18.12417,9.85468 40.01329,10.37973 60.33399,6.82031 30.30123,-5.30763 58.45904,-18.94712 85.51953,-33.57812 32.13038,-17.372179 64.23714,-36.682693 100.20898,-43.021485 21.4529,-3.780331 43.52196,-2.757227 65.05664,0.525391 12.38428,1.887785 24.65616,4.516635 36.72656,7.86914 V 51.664062 C 561.89249,44.102698 539.49459,40.139781 517.06721,39.964844 Z m 144.21094,0 c -22.4274,0.174937 -44.82531,4.137855 -65.94141,11.699218 v 25.183594 c 12.0704,-3.352505 24.34226,-5.981355 36.72656,-7.86914 21.5347,-3.282618 43.60371,-4.305722 65.05664,-0.525391 35.97184,6.338792 68.07861,25.649299 100.20899,43.021485 27.06049,14.631 55.2183,28.27049 85.51953,33.57812 20.3207,3.55942 42.20981,3.03436 60.33398,-6.82031 11.13662,-6.05532 20.40075,-15.50348 26.23438,-26.75781 -9.61675,2.71104 -19.45316,4.64343 -29.38086,5.77148 C 897.90147,122.0337 854.91488,112.10278 816.74104,93.636719 795.67301,83.445355 775.8918,70.710769 754.63557,60.917969 728.34316,48.804984 699.81211,41.297473 670.88752,40.121094 c -3.2015,-0.13021 -6.40547,-0.18124 -9.60937,-0.15625 z M 196.86213,116.19727 c 1.53108,16.01979 -0.0832,32.33267 -4.72259,47.74218 -10.3222,34.28411 -35.008,62.61557 -62.957,84.99414 -14.5969,11.68756 -30.246305,22.06165 -46.695405,30.95508 l 40.923905,5.2461 c 12.1808,-7.46628 23.7709,-15.89576 34.6269,-25.1836 25.7687,-22.04625 47.87511,-50.00417 56.13864,-82.89453 3.17827,-12.65009 4.24528,-25.82734 3.14649,-38.82422 z m 784.62109,0 -20.46093,22.03515 c -1.09879,12.99687 -0.0318,26.17413 3.14648,38.82422 8.26353,32.89036 30.36998,60.84828 56.13863,82.89453 10.856,9.28784 22.4462,17.71732 34.627,25.1836 l 40.9238,-5.2461 c -16.4491,-8.89343 -32.0984,-19.26752 -46.6953,-30.95508 -27.949,-22.37857 -52.63482,-50.71003 -62.95702,-84.99414 -4.63944,-15.40951 -6.25374,-31.72239 -4.72266,-47.74218 z"
     id="path5175"
     inkscape:connector-curvature="0" />
  <path
     style="fill:#000000;fill-opacity:1;stroke:#000000;stroke-width:13;stroke-linecap:butt;stroke-linejoin:round;stroke-miterlimit:4;stroke-dasharray:none;stroke-opacity:1"
     d="m 230.86328,153.4375 c -0.9219,8.05678 -2.34207,16.05727 -4.24805,23.93945 -6.02396,24.91206 -17.10889,48.85128 -33.97656,68.14844 -10.8138,12.37131 -23.78484,22.63714 -36.68164,32.81836 -5.7901,4.5709 -11.5819,9.14 -17.375,13.70703 3.8373,5.79285 7.1378,11.94263 9.8457,18.3418 5.33,12.59584 8.32869,26.06074 10.42579,39.57617 6.2683,40.39621 4.68969,81.54824 3.08789,122.39648 -2.757,70.30995 -5.53735,140.72672 -2.12305,211.00782 1.9222,39.56827 5.80694,79.02219 10.61914,118.34375 8.8502,72.31596 21.62477,146.4013 60.03906,208.3066 15.53238,25.0307 47.137,56.7423 69.12669,76.1779 -21.69579,-28.2926 -45.53476,-54.4989 -62.31431,-85.5252 -18.62183,-34.43265 -33.27127,-72.77982 -41.57482,-109.83154 -8.02699,-35.81768 -14.53057,-82.9169 -18.72725,-124.75931 -5.12463,-51.09439 -7.22284,-102.50546 -7.84269,-153.85246 -0.6375,-52.80992 4.61808,-105.57201 4.24398,-158.38445 -0.24828,-35.04988 1.64533,-70.52218 -4.30541,-105.0641 -3.23321,-18.7676 -10.87704,-38.54569 -16.89717,-54.57631 6.09497,-4.06544 12.13398,-7.93949 17.45596,-12.81641 17.96985,-16.46709 35.69412,-34.05288 48.24486,-54.94689 8.29499,-13.8092 15.35786,-29.19055 17.08344,-45.20689 1.00342,-9.31341 0.52846,-19.97065 -4.10656,-27.80024 z"
     id="path5899-9"
     inkscape:connector-curvature="0"
     sodipodi:nodetypes="csccccccccscasaaaacaaac" />
  <path
     style="fill:#ffdd00;fill-opacity:1;stroke:none;stroke-width:3;stroke-linecap:butt;stroke-linejoin:round;stroke-miterlimit:4;stroke-dasharray:none;stroke-opacity:1"
     d="m 230.86328,153.4375 c -0.9219,8.05678 -2.34207,16.05727 -4.24805,23.93945 -6.02396,24.91206 -17.10889,48.85128 -33.97656,68.14844 -10.8138,12.37131 -23.78484,22.63714 -36.68164,32.81836 -5.7901,4.5709 -11.5819,9.14 -17.375,13.70703 3.8373,5.79285 7.1378,11.94263 9.8457,18.3418 5.33,12.59584 8.32869,26.06074 10.42579,39.57617 6.2683,40.39621 4.68969,81.54824 3.08789,122.39648 -2.757,70.30995 -5.53735,140.72672 -2.12305,211.00782 1.9222,39.56827 5.80694,79.02219 10.61914,118.34375 8.8502,72.31596 21.62477,146.4013 60.03906,208.3066 15.53238,25.0307 47.137,56.7423 69.12669,76.1779 -21.97418,-28.6557 -45.53475,-54.499 -62.31431,-85.5252 -18.62182,-34.43268 -33.37132,-73.22624 -41.57482,-109.83154 -8.02699,-35.81768 -14.53057,-82.9169 -18.72725,-124.75931 -5.12463,-51.09439 -7.22284,-102.50546 -7.84269,-153.85246 -0.6375,-52.80992 4.61808,-105.57201 4.24398,-158.38445 -0.24828,-35.04988 1.64533,-70.52218 -4.30541,-105.0641 -3.23321,-18.7676 -10.87704,-38.54569 -16.89717,-54.57631 6.09497,-4.06544 12.13398,-7.93949 17.45596,-12.81641 17.96985,-16.46709 35.69412,-34.05288 48.24486,-54.94689 8.29499,-13.8092 15.35786,-29.19055 17.08344,-45.20689 1.00342,-9.31341 0.52846,-19.97065 -4.10656,-27.80024 z"
     id="path5899"
     inkscape:connector-curvature="0"
     sodipodi:nodetypes="csccccccccscasaaaacaaac" />
  <g
     id="g5960">
    <path
       id="path5740-93"
       d="m 362.30469,1062.2383 c -25.41525,-0.1808 -50.07699,7.8182 -74.96485,14.4687 10.82491,9.5677 22.29452,18.4546 34.27149,26.67 14.60454,-3.4514 29.28496,-5.8755 44.24219,-5.3106 18.95575,0.7159 37.42644,6.2125 55.74414,11.457 18.31769,5.2446 36.94909,10.3073 55.91601,10.1289 18.97119,-0.1784 37.51273,-5.5914 55.8125,-10.9238 18.29978,-5.3323 36.87377,-10.6621 55.84571,-10.6621 18.97193,0 37.54788,5.3298 55.84765,10.6621 18.29977,5.3324 36.84131,10.7454 55.8125,10.9238 18.96692,0.1784 37.59832,-4.8843 55.91602,-10.1289 18.31769,-5.2445 36.78643,-10.7411 55.74218,-11.457 14.95703,-0.5649 29.63784,1.8593 44.24219,5.3106 11.97697,-8.2154 23.44853,-17.1023 34.27344,-26.67 -26.04477,-6.9596 -51.84334,-15.396 -78.51563,-14.3886 -18.95575,0.7159 -37.42449,6.2105 -55.74218,11.455 -18.3177,5.2446 -36.9491,10.3093 -55.91602,10.1309 -18.97119,-0.1784 -37.51273,-5.5934 -55.8125,-10.9258 -18.29977,-5.3323 -36.87572,-10.6601 -55.84765,-10.6601 -18.97194,0 -37.54593,5.3278 -55.84571,10.6601 -18.29977,5.3324 -36.84131,10.7474 -55.8125,10.9258 -18.96692,0.1784 -37.59832,-4.8863 -55.91601,-10.1309 -18.3177,-5.2445 -36.78839,-10.7391 -55.74414,-11.455 -1.18479,-0.045 -2.3674,-0.072 -3.54883,-0.08 z"
       style="fill:#000000;stroke:#000000;stroke-width:8;stroke-linecap:butt;stroke-linejoin:round;stroke-miterlimit:4;stroke-dasharray:none;stroke-opacity:1"
       inkscape:connector-curvature="0" />
    <path
       id="path5740"
       d="M 362.30469 1062.2383 C 336.88944 1062.0575 312.2277 1070.0565 287.33984 1076.707 C 298.16475 1086.2747 309.63436 1095.1616 321.61133 1103.377 C 336.21587 1099.9256 350.89629 1097.5015 365.85352 1098.0664 C 384.80927 1098.7823 403.27996 1104.2789 421.59766 1109.5234 C 439.91535 1114.768 458.54675 1119.8307 477.51367 1119.6523 C 496.48486 1119.4739 515.0264 1114.0609 533.32617 1108.7285 C 551.62595 1103.3962 570.19994 1098.0664 589.17188 1098.0664 C 608.14381 1098.0664 626.71976 1103.3962 645.01953 1108.7285 C 663.3193 1114.0609 681.86084 1119.4739 700.83203 1119.6523 C 719.79895 1119.8307 738.43035 1114.768 756.74805 1109.5234 C 775.06574 1104.2789 793.53448 1098.7823 812.49023 1098.0664 C 827.44726 1097.5015 842.12807 1099.9257 856.73242 1103.377 C 868.70939 1095.1616 880.18095 1086.2747 891.00586 1076.707 C 864.96109 1069.7474 839.16252 1061.311 812.49023 1062.3184 C 793.53448 1063.0343 775.06574 1068.5289 756.74805 1073.7734 C 738.43035 1079.018 719.79895 1084.0827 700.83203 1083.9043 C 681.86084 1083.7259 663.3193 1078.3109 645.01953 1072.9785 C 626.71976 1067.6462 608.14381 1062.3184 589.17188 1062.3184 C 570.19994 1062.3184 551.62595 1067.6462 533.32617 1072.9785 C 515.0264 1078.3109 496.48486 1083.7259 477.51367 1083.9043 C 458.54675 1084.0827 439.91535 1079.018 421.59766 1073.7734 C 403.27996 1068.5289 384.80927 1063.0343 365.85352 1062.3184 C 364.66873 1062.2736 363.48612 1062.2467 362.30469 1062.2383 z "
       style="fill:#ffffff;stroke:none;stroke-width:3;stroke-linecap:butt;stroke-linejoin:round;stroke-miterlimit:4;stroke-dasharray:none;stroke-opacity:1" />
    <path
       id="path5740-3-6"
       d="m 362.30469,1097.9883 c -13.7334,-0.098 -27.24567,2.2107 -40.69336,5.3887 17.22046,11.812 35.48254,22.2391 54.39844,31.2617 15.4208,1.8619 30.55641,6.3291 45.58789,10.6328 18.31769,5.2445 36.94909,10.3092 55.91601,10.1308 18.97119,-0.1784 37.51273,-5.5934 55.8125,-10.9257 18.29978,-5.3324 36.87377,-10.6602 55.84571,-10.6602 18.97193,0 37.54788,5.3278 55.84765,10.6602 18.29977,5.3323 36.84131,10.7473 55.8125,10.9257 18.96692,0.1784 37.59832,-4.8863 55.91602,-10.1308 15.0321,-4.3038 30.16642,-8.7711 45.58789,-10.6328 18.91586,-9.0226 37.17605,-19.4497 54.39648,-31.2617 -14.60435,-3.4513 -29.28516,-5.8755 -44.24219,-5.3106 -18.95575,0.7159 -37.42449,6.2125 -55.74218,11.457 -18.3177,5.2446 -36.9491,10.3073 -55.91602,10.1289 -18.97119,-0.1784 -37.51273,-5.5914 -55.8125,-10.9238 -18.29977,-5.3323 -36.87572,-10.6621 -55.84765,-10.6621 -18.97194,0 -37.54593,5.3298 -55.84571,10.6621 -18.29977,5.3324 -36.84131,10.7454 -55.8125,10.9238 -18.96692,0.1784 -37.59832,-4.8843 -55.91601,-10.1289 -18.3177,-5.2445 -36.78839,-10.7411 -55.74414,-11.457 -1.18479,-0.045 -2.3674,-0.07 -3.54883,-0.078 z"
       style="fill:#000000;stroke:#000000;stroke-width:8;stroke-linecap:butt;stroke-linejoin:round;stroke-miterlimit:4;stroke-dasharray:none;stroke-opacity:1"
       inkscape:connector-curvature="0" />
    <path
       id="path5740-3"
       d="M 362.30469 1097.9883 C 348.57129 1097.8906 335.05902 1100.199 321.61133 1103.377 C 338.83179 1115.189 357.09387 1125.6161 376.00977 1134.6387 C 391.43057 1136.5006 406.56618 1140.9678 421.59766 1145.2715 C 439.91535 1150.516 458.54675 1155.5807 477.51367 1155.4023 C 496.48486 1155.2239 515.0264 1149.8089 533.32617 1144.4766 C 551.62595 1139.1442 570.19994 1133.8164 589.17188 1133.8164 C 608.14381 1133.8164 626.71976 1139.1442 645.01953 1144.4766 C 663.3193 1149.8089 681.86084 1155.2239 700.83203 1155.4023 C 719.79895 1155.5807 738.43035 1150.516 756.74805 1145.2715 C 771.78015 1140.9677 786.91447 1136.5004 802.33594 1134.6387 C 821.2518 1125.6161 839.51199 1115.189 856.73242 1103.377 C 842.12807 1099.9257 827.44726 1097.5015 812.49023 1098.0664 C 793.53448 1098.7823 775.06574 1104.2789 756.74805 1109.5234 C 738.43035 1114.768 719.79895 1119.8307 700.83203 1119.6523 C 681.86084 1119.4739 663.3193 1114.0609 645.01953 1108.7285 C 626.71976 1103.3962 608.14381 1098.0664 589.17188 1098.0664 C 570.19994 1098.0664 551.62595 1103.3962 533.32617 1108.7285 C 515.0264 1114.0609 496.48486 1119.4739 477.51367 1119.6523 C 458.54675 1119.8307 439.91535 1114.768 421.59766 1109.5234 C 403.27996 1104.2789 384.80927 1098.7823 365.85352 1098.0664 C 364.66873 1098.0217 363.48612 1097.9967 362.30469 1097.9883 z "
       style="fill:#ffffff;stroke:#000000;stroke-width:3;stroke-linecap:butt;stroke-linejoin:round;stroke-miterlimit:4;stroke-dasharray:none;stroke-opacity:1" />
    <path
       id="path5740-8-1"
       d="m 589.17188,1133.8164 c -18.97194,0 -37.54593,5.1991 -55.84571,10.4024 -18.29977,5.2032 -36.84131,10.486 -55.8125,10.6601 -18.96692,0.1741 -37.59832,-4.7672 -55.91601,-9.8848 -15.04857,-4.2042 -30.20163,-8.5678 -45.64063,-10.3808 13.76712,6.569 27.87467,12.4036 42.16992,17.498 38.05009,13.5601 77.78669,22.3654 117.99805,26.1992 17.39535,-4.9253 35.04044,-9.6113 53.04688,-9.6113 18.00643,0 35.65347,4.686 53.04882,9.6113 40.21135,-3.8338 79.94796,-12.6391 117.99805,-26.1992 14.2953,-5.0944 28.40276,-10.929 42.16992,-17.498 -15.43966,1.8129 -30.59143,6.1764 -45.64062,10.3808 -18.3177,5.1176 -36.9491,10.0589 -55.91602,9.8848 -18.97119,-0.1741 -37.51273,-5.4569 -55.8125,-10.6601 -18.29977,-5.2033 -36.87572,-10.4024 -55.84765,-10.4024 z"
       style="fill:#000000;stroke:#000000;stroke-width:8;stroke-linecap:butt;stroke-linejoin:round;stroke-miterlimit:4;stroke-dasharray:none;stroke-opacity:1"
       inkscape:connector-curvature="0" />
    <path
       id="path5740-8"
       d="M 589.17188 1133.8164 C 570.19994 1133.8164 551.62595 1139.0155 533.32617 1144.2188 C 515.0264 1149.422 496.48486 1154.7048 477.51367 1154.8789 C 458.54675 1155.053 439.91535 1150.1117 421.59766 1144.9941 C 406.54909 1140.7899 391.39603 1136.4263 375.95703 1134.6133 C 389.72415 1141.1823 403.8317 1147.0169 418.12695 1152.1113 C 456.17704 1165.6714 495.91364 1174.4767 536.125 1178.3105 C 553.52035 1173.3852 571.16544 1168.6992 589.17188 1168.6992 C 607.17831 1168.6992 624.82535 1173.3852 642.2207 1178.3105 C 682.43205 1174.4767 722.16866 1165.6714 760.21875 1152.1113 C 774.51405 1147.0169 788.62151 1141.1823 802.38867 1134.6133 C 786.94901 1136.4262 771.79724 1140.7897 756.74805 1144.9941 C 738.43035 1150.1117 719.79895 1155.053 700.83203 1154.8789 C 681.86084 1154.7048 663.3193 1149.422 645.01953 1144.2188 C 626.71976 1139.0155 608.14381 1133.8164 589.17188 1133.8164 z "
       style="fill:#ffffff;stroke:#000000;stroke-width:3;stroke-linecap:butt;stroke-linejoin:round;stroke-miterlimit:4;stroke-dasharray:none;stroke-opacity:1" />
    <path
       id="path5740-9-2"
       d="m 589.17188,1168.6992 c -18.00644,0 -35.65153,4.686 -53.04688,9.6113 4.0366,0.3849 8.07611,0.7375 12.12109,1.0215 5.04708,3.2533 9.38519,9.2908 15.44336,11.2657 16.15238,5.2654 34.81442,5.2654 50.9668,0 6.05817,-1.9749 10.39629,-8.0124 15.44336,-11.2657 4.04498,-0.284 8.08449,-0.6366 12.12109,-1.0215 -17.39535,-4.9253 -35.04239,-9.6113 -53.04882,-9.6113 z"
       style="fill:#000000;stroke:#000000;stroke-width:8;stroke-linecap:butt;stroke-linejoin:round;stroke-miterlimit:4;stroke-dasharray:none;stroke-opacity:1"
       inkscape:connector-curvature="0" />
    <path
       id="path5740-9"
       d="M 589.17188 1168.6992 C 571.16544 1168.6992 553.52035 1173.3852 536.125 1178.3105 C 540.1616 1178.6954 544.20111 1179.048 548.24609 1179.332 C 553.29317 1182.5853 557.63128 1188.6228 563.68945 1190.5977 C 579.84183 1195.8631 598.50387 1195.8631 614.65625 1190.5977 C 620.71442 1188.6228 625.05254 1182.5853 630.09961 1179.332 C 634.14459 1179.048 638.1841 1178.6954 642.2207 1178.3105 C 624.82535 1173.3852 607.17831 1168.6992 589.17188 1168.6992 z "
       style="fill:#ffffff;stroke:#000000;stroke-width:3;stroke-linecap:butt;stroke-linejoin:round;stroke-miterlimit:4;stroke-dasharray:none;stroke-opacity:1" />
  </g>
</svg>
