<!-- Created with Inkscape (http://www.inkscape.org/) -->
<svg xmlns:rdf="http://www.w3.org/1999/02/22-rdf-syntax-ns#" xmlns="http://www.w3.org/2000/svg" height="501" width="497" version="1.1" xmlns:cc="http://creativecommons.org/ns#" xmlns:xlink="http://www.w3.org/1999/xlink" xmlns:dc="http://purl.org/dc/elements/1.1/">
 <defs></defs>
 <metadata>
  <rdf:RDF>
   <cc:Work rdf:about="">
    <dc:format>image/svg+xml</dc:format>
    <dc:type rdf:resource="http://purl.org/dc/dcmitype/StillImage"/>
    <dc:title/>
   </cc:Work>
  </rdf:RDF>
 </metadata>
 <g transform="translate(0,29)">
  <g transform="translate(0.8225144,-19.861855)">
   <path stroke-linejoin="round" d="M5.1775,115c33.526-11.02,56.636-30.677,63.474-67.738,60.559,13.416,121.12,17.175,181.68-24.842,56.475,34.36,117.26,35.682,179.93,22.509,8.2768,36.718,30.966,56.141,59.907,68.062-42.268,93.244-39.259,175.51-13.254,252.21-41.809,20.527-44.83,50.374-65.218,78.417-46.455,63.897-101.13,72.967-157.93,63.152-71.69,14.2-118.4-9.84-154-52.02-26.755-31.7-28.848-78.48-75.706-88.51,20.589-69.85,32.569-142.22-18.888-251.24z" transform="translate(0,-25)" stroke="#000" stroke-linecap="round" stroke-miterlimit="4" stroke-dasharray="none" stroke-width="6" fill="#FFF"/>
   <path d="m40.444,231,421.55,0,0,79.332-421.55,0z" transform="translate(0,-25)" fill="#000"/>
   <path stroke-linejoin="round" d="m321.69,60.93c4.6503-20.655,19.447-5.6405,12.833,11.667-7.0095,18.342-22.643,18.096-35.777,21-17.411,3.8498-37.63,0.5567-47.444,10.111-12.832-15.787,22.321-11.874,40.444-17.111,13.452-3.8872,26.019-8.233,29.944-25.666z" stroke="#000" stroke-linecap="round" stroke-miterlimit="4" stroke-dasharray="none" stroke-width="3" fill="#0f47af"/>
   <path stroke-linejoin="round" d="m154.78,92.172c3.0661-2.8529,1.3335-7.6516-0.77777-13.611,4.0185,1.7845,4.9259,5.2753,10.5,10.111-2.4224-15.36-13.717-21.372-26.833-18.666-12.092,2.4945-14.917,13.351-12.444,24.889-24.046-3.2372-34.783,12.658-42.388,33.055-7.4937,16.167-14.554,17.571-24.111,15.166,1.7244-13.257,5.5992-18.583,16.722-22.944-10.064-2.6111-18.954-3.9316-24.889,12.055-3.2086-13.049,2.9947-17.832,19.833-22.944,15.405-4.677,6.37-14.407,6.2221-21.389-2.4701,15.111-13.08,20.17-24.111,22.555-17.169,3.7126-19.195,24.428-14.389,35,4.0485,8.9048,12.234,18.313,20.222,18.278,8.8416-0.0388,18.463-7.1291,26.833-22.555,2.8473,7.9073-2.8615,18.148-11.278,26.055,11.137-2.1644,23.483,2.0182,30.722-20.611-1.283-20.859,9.7602-47.108,25.277-35.777,32.342,23.615,15.905,61.642,2.3333,81.277-8.9642-10.198-14.937-26.378-35.777-18.666-17.738,6.5638-15.569,37.432-24.889,36.944-19.164-1.0043,1.0441-20.938,3.8888-34.611-13.903,12.272-25.832,26.566-17.111,38.111,8.8822,11.758,24.469,11.43,34.222-2.3333,6.4545-9.1082,6.5135-28.17,19.055-20.611,20.22,12.188,12.609,37.812,8.9443,57.944-4.8708-15.665-13.768-20.05-29.555-17.111-10.575,1.9684-6.61,29.661-17.889,26.444-12.593-3.5923-6.5013-13.197-1.5555-28.777-21.348-3.488-19.553,19.016-17.889,28,2.9149,15.736,16.226,11.292,25.666,13.222,1.2725,4.4026-4.2522,7.4458-7.7777,10.889,32.381,0.0885,16.366-39.672,31.5-37.333,9.5409,1.4749,16.109,27.458,17.889,44.333-19.264-10.842-38.312-12.886-48.222,8.5554,7.5369-1.679,15.94-4.0796,17.5-0.77777-18.829,3.2804-28.813,12.575-21.777,33.444,5.4558,13.548,15.073,13.781,25.666,10.889-26.331-3.1187-17.133-24.321,4.6666-38.111,15.361-9.7164,29.478,6.516,55.222,8.5554-4.1851,16.448,3.6489,29.29,9.3332,42.777-8.0098,8.2752-4.5806,29.743-17.889,17.889-25.826-23.004-21.579,5.5014-44.333,10.889,18.493,5.341,26.086-19.87,40.444-2.3333-1.9236,7.0154-4.164,14.41,7.7777,19.444-9.4155,8.1992-10.357,13.997-10.889,20.222,3.7334-3.0416,12.739-8.5597,15.944,4.6666-7.3865-2.3287-14.143-3.3983-14.389,8.5554,7.2916-5.196,9.7733-2.3755,10.889,2.7222-17.214,8.7738-3.2378,13.092-0.77776,19.055-0.23758-14.497,7.6306-4.1655,14-14.778-9.755,20.052-0.31413,22.01,12.055,12.833-9.704,3.6904-11.607,9.7872,0.38888,12.444,6.1294,13.443,9.3693-0.56469,13.611-5.0555-1.5387,11.033,7.0747,7.8181,8.022,21.175,0.87266,12.304,11.428-0.7644,12.589-2.509,28.491,3.8739,0.39345-9.4387,5.4444-19.833,17.319,12.326,23.436,6.6621,17.5-3.8888,10.196-17.186-11.466-9.8661-26.833-7.3888,8.8284-4.6598,35.744-0.0815,18.278-15.944-6.9107-27.007-17.509,25.642-34.611,1.9444-9.8796-13.69-4.945-25.397,5.4444-35.388,14.539,17.654,46.797,34.682,38.111-2.7222-0.60163,13.149-19.423,28.274-19.444-7.7777-0.02-33.77-9.9314-31.346-9.7221-55.61,8.5714,17.622,25.237,15.174,37.333,12.055,39.04-10.066,34.061,8.6823,29.944,14-16.502-6.0868-18.825,2.758-24.5,14,24.59-9.4098,22.717-2.4154,26.833,10.5-20.09,1.0638-7.8762,10.068-9.3332,16.722,13.976-20.725,6.7929,1.0987,26.444,5.4444,5.6492,1.2493-21.124-4.5686-17.111,1.9444,8.4177,13.66,17.111,5.2666,25.666,5.8333,1.4953,12.289-8.2806,7.6715-14.389,8.5554,15.858,14.065,15.771,3.04,31.5,1.5555-9.7012,4.1131-20.014,12.143-3.1111,9.3332,13.7-0.47305,9.7982,15.267,17.111,0-4.4383,14.421-5.7966,25.616,11.278,17.5,12.211,5.9004,13.598,2.1748,9.144-6.3503-9.0156-17.256,6.7843-5.97,9.1335-13.483-2.3165,12.508,7.6931,21.403,8.9443,0,16.605-19.613-7.723-13.819-18.666-16.333,23.443-1.1067,22.254-11.774,15.166-17.111-0.42846-23.689-16.458,13.856-33.833,4.6666-22.679-11.994-20.122-31.658-14-52.11,31.138,20.8,35.201-20.164,14.778-19.833,13.079,12.39,2.1934,15.424-12.055,8.5554-14.489-6.984-0.93902-26.317-14-26.444-25.778-0.25162-20.306-8.8202-34.611-12.444-12.114-3.0691-26.961,11.651-38.888,9.3332-7.4528-1.4484-15.734-11.851-20.222-1.1666,5.4752-17.241,33.524-30.181,41.611-33.833,13.479-6.0869,17.858-15.296,28-30.722,1.3463,12.135-4.4435,25.526,16.333,26.055,21.137,0.53821,9.9347-10.79,10.889-17.889,16.573,8.5751,7.9593,25.56,17.889,23.722,8.1406-1.507,0.3549-19.608,13.611-16.333-5.7222,29.473,20.371,16.946,15.944,11.667-11.177-13.331,9.5282-11.448,9.7221-6.9999,0.91021,20.877,9.8696,20.059,10.889,1.5555,8.113,2.0363,14.918,1.7191,17.876-5.5243,4.5576,8.8101,6.7714,3.5573,9.3458,0.46876,2.7736,5.3592,5.5859,10.408,9.3753,7.641,4.5997-1.9342,8.4922-4.3397,6.9579-10.363,5.1189,4.501,13.148,8.9499,16.541,0.47514-1.5182-19.132-13.183-12.927-29.374-16.03,13.093,0.32429,20.581,3.7495,25.666,1.1666,4.2894-16.765-13.841-14.96-29.944-12.055,5.9443-2.8704,20.481-0.25924,19.055-10.5,12.772-8.9442-11.934-8.943-20.222,1.9444-1.1854-18.812-10.084,6.3587-26.833,4.6666-9.3266-0.94224-16.63-4.8786-21.778-11.278,26.998-3.9153,35.223-16.566,20.611-28.777,3.1127,18.216-19.847,19.169-31.888,12.055,6.8112-1.1618,5.6008-9.1992,5.4444-16.333,4.8826,16.252,17.766,23.367,11.667-4.2777,3.1337-1.0199,5.764-2.5432,2.7796-9.6813,8.4121,6.0447,10.56,1.6485,9.6647-7.8185,5.8919,6.0326,4.6388-3.5169,5.4444-14.778,4.2777,2.9784,9.9138,10.561,12.833,6.9999,5.7491-7.0135,0.0163-14.885-0.77777-22.166,10.374,0.50426,13.905-7.5341,15.166-16.722,1.4547,17.794,12.577,11.967,11.667,3.5-6.6356-4.4228-1.8973-6.7575,0-11.278,5.3752-12.806-4.5591-6.2508-18.278-0.38888-0.7166-19.01,27.476-18.406-1.5555-27.222-15.65-9.0029-11.3,9.5937-15.555,23.333-3.9928-19.365-11.343-15.227-19.444-5.8333,4.5014-5.942,14.013-10.909,7.3888-17.111-4.2704-3.9984-9.6233,2.8735-13.222,8.5554-21.56,3.4452,12.311,25.891,2.7222,31.5-12.204,7.138-13.679,12.396-19.444,21-1.2096-8.945-5.558-10.828-10.889-10.5,1.624,9.8636,1.9728,14.957-10.889,15.555-16.937,0.78743-18.148-20.948-30.333-17.889,5.4823,11,5.0187,18.637-5.0555,18.666-11.95,0.0352-2.6626-13.696-11.667-17.889-5.9703-2.7803-11.626,8.7313-16.333,3.8888-8.0994-8.3326-8.2324-18.158,1.5555-26.833,5.5253-4.897,13.415-1.6014,19.055,6.611,5.2059-5.9497,19.652-9.8203,16.722-21-2.0408-7.787,2.9114-15.312-6.9999-15.555-10.892-0.26761-18.692-9.0164-28.777-9.3332-11.413-0.35847-32.834,7.3081-32.533,22.555-11.251-16.818-24.289,9.2065-4.8,29.555-19.224,7.282-17.138,17.706-2.6555,12.35-15.23,6.9122-8.1949,8.2578-0.45561,9.4276-11.608,2.3149-9.6798,9.6852-0.91121,6.9446-11.569,6.7591-9.5257,13.518-6.8665,20.277-2.6465,3.1786-6.8229,3.6801-13.611-0.38889,5.9184,20.654,20.763-0.38437,19.833,15.166-0.56823,9.4991-8.8415,6.1326-14.389,5.4444-0.54523,5.0555,2.2731,11.667,9.3332,13.611-7.2815,5.0632-13.571,2.1396-16.722-6.2221,1.9022,10.775-8.6037,30.107,21,21.778-17.681,24.69-24.333,66.684-53.666,76.61-23.389,7.9148-31.355-2.7919-22.166-40.833,4.4933-18.602,11.06-36.952,21.389-56.388,9.265-17.434,10.678-38.428,9.3332-60.666-1.0309-17.046-10.902-26.332-22.555-33.444-11.2-6.8352-15.26-13.863-6.2221-21,8.5766-6.7726,11.568,4.6691,14.778,12.055z" transform="translate(0,-25)" stroke="#000" stroke-linecap="round" stroke-miterlimit="4" stroke-dasharray="none" stroke-width="3" fill="#da121a"/>
   <path stroke-linejoin="round" d="m394.33,49.563c3.6147-12.999,18.435-6.9347,23.201,0.29944-7.1797,3.1184-10.918,1.104-13.523,7.3866-2.0289,4.8925-10.979-3.0087-9.6782-7.6861z" stroke="#000" stroke-linecap="round" stroke-miterlimit="4" stroke-dasharray="none" stroke-width="3" fill="#0f47af"/>
   <path stroke-linejoin="round" d="m355.17,64.137c-12.362-5.407-4.273-19.227,3.5595-22.928,2.0776,7.5469-0.44247,10.964,5.4113,14.427,4.5586,2.6968-4.5229,10.447-8.9708,8.501z" stroke="#000" stroke-linecap="round" stroke-miterlimit="4" stroke-dasharray="none" stroke-width="3" fill="#0f47af"/>
   <path stroke-linejoin="round" d="m420.82,77.903c13.436-1.2335,13.025,14.774,7.9532,21.797-5.4633-5.6059-4.9064-9.8153-11.705-10.022-5.2941-0.16067-1.0831-11.332,3.7514-11.776z" stroke="#000" stroke-linecap="round" stroke-miterlimit="4" stroke-dasharray="none" stroke-width="3" fill="#0f47af"/>
   <path stroke-linejoin="round" d="m423.74,192.51c10.873-1.7538,16.968,8.9095,13.769,16.334-5.586-5.5618-9.5881-7.1975-16.259-5.8697-5.1946,1.034-2.3037-9.6909,2.4892-10.464z" stroke="#000" stroke-linecap="round" stroke-miterlimit="4" stroke-dasharray="none" stroke-width="3" fill="#0f47af"/>
   <path stroke-linejoin="round" d="m430.55,206.44c13.023-0.19491,14.826,13.08,10.741,20.719-5.3026-6.1746-7.036-10.792-13.801-10.085-5.2678,0.55032-1.7948-10.561,3.0595-10.634z" stroke="#000" stroke-linecap="round" stroke-miterlimit="4" stroke-dasharray="none" stroke-width="3" fill="#0f47af"/>
   <path stroke-linejoin="round" d="m427.86,222.71c12.652,1.6575,14.487,11.205,10.171,18.716-7.1154-6.0968-10.773-9.4623-14.625-9.5315-5.2957-0.0952-0.35928-9.8153,4.4544-9.1847z" stroke="#000" stroke-linecap="round" stroke-miterlimit="4" stroke-dasharray="none" stroke-width="3" fill="#0f47af"/>
   <path stroke-linejoin="round" d="m365.84,364.79c9.6432-9.437,19.428,3.2388,19.927,11.888-7.7758-0.90004-10.001-4.5166-15.404-0.38583-4.2078,3.2168-7.9923-8.1061-4.5226-11.502z" stroke="#000" stroke-linecap="round" stroke-miterlimit="4" stroke-dasharray="none" stroke-width="3" fill="#0f47af"/>
   <path stroke-linejoin="round" d="m373.51,398.82c13.433,1.2661,10.076,16.923,3.7959,22.89-4.3354-6.5174-3.0116-10.552-9.6552-12.009-5.1736-1.1345,1.0259-11.337,5.8593-10.882z" stroke="#000" stroke-linecap="round" stroke-miterlimit="4" stroke-dasharray="none" stroke-width="3" fill="#0f47af"/>
   <path stroke-linejoin="round" d="m347.79,424.74c9.5861,9.4951-2.9358,19.476-11.576,20.109,0.77882-7.7889,4.3603-10.07,0.14585-15.408-3.2819-4.1572,7.9806-8.1176,11.43-4.7012z" stroke="#000" stroke-linecap="round" stroke-miterlimit="4" stroke-dasharray="none" stroke-width="3" fill="#0f47af"/>
   <path stroke-linejoin="round" d="m311.39,407.34c-9.9909,9.0681,2.084,19.585,10.688,20.595-0.43852-7.8154-3.9172-10.25,0.52599-15.4,3.46-4.0102-7.6192-8.4578-11.214-5.195z" stroke="#000" stroke-linecap="round" stroke-miterlimit="4" stroke-dasharray="none" stroke-width="3" fill="#0f47af"/>
   <path stroke-linejoin="round" d="m223.05,402.59c7.4779-11.231,19.677-0.85811,21.958,7.4995-7.7935,0.7311-10.72-2.3458-15.149,2.8152-3.4497,4.019-9.4988-6.2736-6.8082-10.315z" stroke="#000" stroke-linecap="round" stroke-miterlimit="4" stroke-dasharray="none" stroke-width="3" fill="#0f47af"/>
   <path stroke-linejoin="round" d="m236.88,425.95c13.436-1.2335,13.025,14.774,7.9533,21.797-5.4633-5.6058-4.9064-9.8153-11.705-10.022-5.2941-0.16067-1.0831-11.332,3.7514-11.776z" stroke="#000" stroke-linecap="round" stroke-miterlimit="4" stroke-dasharray="none" stroke-width="3" fill="#0f47af"/>
   <path stroke-linejoin="round" d="m214.73,449.71c12.457,5.1836,4.6185,19.147-3.1461,22.989-2.2132-7.5083,0.24498-10.97-5.6702-14.328-4.6064-2.6143,4.3341-10.526,8.8163-8.6611z" stroke="#000" stroke-linecap="round" stroke-miterlimit="4" stroke-dasharray="none" stroke-width="3" fill="#0f47af"/>
   <path stroke-linejoin="round" d="m172.22,435.81c-12.275,5.6003-3.9709,19.292,3.9187,22.87,1.959-7.5786-0.6144-10.956,5.1844-14.51,4.5157-2.768-4.6862-10.374-9.1031-8.3592z" stroke="#000" stroke-linecap="round" stroke-miterlimit="4" stroke-dasharray="none" stroke-width="3" fill="#0f47af"/>
   <path stroke-linejoin="round" d="m316.16,211.06c8.1601-4.0671,6.6433,5.1692,8.5554,11.278m27.611-5.4444c2.2624,3.6867,2.1251,9.7393,9.7221,8.1666m-90.027-26.055c1.1828,6.6299-2.8073,14.122-7.7777,21.777m-53.277,10.889c10.743-6.5853,19.169-0.38882,22.555-10.5m1.3611-18.083c3.6288,13.612,11.063,6.787,23.527,16.528m-44.333-2.3333c23.589,1.0348,14.385-18.506,29.944-21.389m87.888,12.055c2.8331,6.5376,5.6445,13.14,10.5,13.611m-49.388-14.778c8.3074,1.9332,3.2884,14.859,12.055,18.666m-79.721,24.111c6.2255-8.2935,17.657-6.9777,18.666-16.722m36.555,75.832c6.9735-3.2874,20.744,1.7327,19.444-11.667m-14.389,14c7.2592,0.57422,14.518,3.8887,21.777,0.77776m-18.666,3.8888c6.9801,2.0894,14.086,4.4944,19.055,1.5555m-87.89-25.31c14.23,3.5285,29.066,1.0016,44.333-5.8333m-47.444,15.555c16.981,2.2993,33.963,0.42057,50.944-6.611m-51.722,13.611c14-0.0401,28,3.1846,41.999-3.5m32.666,19.444c5.89,1.6691,11.088,1.955,15.944,1.5555m12.444,51.333c6.4258,3.8882,13.207,10.266,18.666,7.3888m-50.944-29.944c4.7424,19.715,26.227,26.103,42.777,45.499m-233.72-15.18,28.39,11.28m-65.721-61.833,24.5,8.5554m-15.944,2.3333,24.889,9.3332m-31.5-26.833,31.111,9.7221m-29.944-17.889,30.722,9.3332m121.72-48.03c-3.1384,3.94-11.03,17.073-8.9443,27.027m7.3888-52.11c-7.3937,4.5321-12.388,11.464-10.5,25.277m-26.444-4.6666c0.88683,4.0288,3.0872,7.4008-1.9444,14.389m14,11.667c0.29186,7.9073,4.3344,15.815-1.9444,23.722m-20.222,19.444c3.2601-14.778,12.732-14,3.8888-27.222m35.388,37.333c-0.583,9.2355,0.71347,15.652,4.2777,18.666m-15.97-35c0.14913,9.8615,1.2355,20.192-6.611,26.055m-7.7777,5.0555c-2.1536,10.63-6.4591,21.259-0.77777,31.888m-37.333,43.166,15.166,6.2221m-16.722-15.166,17.889,6.611m-63.782-68.06,35.392,13.22m-39.087-24.5,35.387,13.22m-76.997-95.28c-3.0426,24.248-6.8163,34.978-12.444,53.277,25.695,8.4608,41.174,35.807,58.333,68.444,31.523,59.958,102.3,87.574,161,67.666,70.792,20.77,130.26-21.221,157.11-69.61,11.698-21.086,20.691-48.695,54.444-65.721-8.9864-20.998-9.6278-33.253-13.611-53.666" stroke="#000" stroke-linecap="round" stroke-miterlimit="4" stroke-dasharray="none" stroke-width="3" fill="none"/>
   <path stroke-linejoin="round" d="m330.36,179.17c8.1666,7.0356,16.333,8.9021,24.5,10.889m-269.11-132.61c5.0555,1.037,8.5554,1.5555,10.5,1.5555m-13.222-10.5c5.8616,1.4259,13.846,2.8518,24.889,4.2777m-26.06-11.667c6.3518,1.6473,12.704,2.0559,19.055,2.7222m71.555,17.5,10.889-2.3333m-10.5-5.8333c5.7036-0.97098,11.407,0.22922,17.111-3.4999m-18.083-7.3888c11.407-1.0273,22.815-2.1493,34.222-6.2221m133.78,78.943c-0.86615,8.5021-6.5384,12.885-14.646,15.18,6.3427,4.1575,12.685,4.2349,19.028,2.1846-1.068,13.964-14.572,4.6115-23.052,4.6778,5.963,3.23,14.002,13.131,19.471,6.3181,18.114,14.715,22.142,9.328,13.976-5.8055m22.944-33.833c-5.9977,18.236-16.76,12.476-19.055,30.333m-18.278,27.611c-4.2485-14.094-15.733-11.303-25.9-11.589,7.6248,5.5062,15.723,8.1716,22.4,19.366m-36.944-1.5555c1.9444,1.4551,3.8888,0.22143,5.8333,7.3888m-0.38889-21c0.51901,7.1278,6.6339,4.2095,7.3888,15.555m-45.111-24.889c3.4111-6.0853-0.73941-12.171-3.1924-18.256,10.189,12.772,17.941,18.933,23.382,38.316,6.8227-13.409-0.90782-24.873-14.695-40.226,6.4001,6.0675,11.872,16.776,19.232,18.045,3.8087-12.385-12.219-14.399-8.782-23.157m-38.499,3.8888c-1.8364,8.6699-14.541,8.8768-9.7221,21.777-5.8625-8.7355-3.1249-18.245,2.8532-27.117-4.0488,7.2709-8.0975,10.373-12.146,10.388,4.9774-6.2996,5.3381-14.907,4.129-24.3l-8.058,14.585m30.722,6.611c-2.0882,10.5,7.9263,12.444,5.0555,18.666m-23.73-70.357c-0.82953,3.742-2.1514,7.3198,0,12.055m-14-17.111c1.0296,4.3462-0.87117,10.158,5.8333,11.667m-178.5,9.333c-5.0337,15.969-5.1256,31.676,12.444,28.389m63.782-38.893c11.686,0.62901,23.318,11.423,24.111,23.722m13.222,8.9443c0.47317,8.4258,1.0749,16.852-3.5,25.277m-59.11,25.666c8.014-7.2741,17.967-4.8001,23.333,7.3888m28.777-6.9999c-0.27931,6.4675-3.8785,14.927-9.3332,24.5m126.39-19.055c0.0552,4.2777,0.66773,8.5554-4.2777,12.833m-14.778,5.0555c-0.33362,8.9358,3.8286,9.1597,3.5,15.555m-9.9165-48.222c-1.4203,10.238,7.9808,8.7277-0.00001,19.055m-24.889,31.111c2.4058-7.9684,7.175-0.6226,12.055-14.778m-6.9999-30.722c0.45925,20.823-7.0419,17.061-9.7221,33.055m31.888-9.3332c5.0066-2.6902,11.531-2.3443,11.667-14.778m35,12.444c6.6094,3.9762,12.444,11.567,15.961,29.976,3.8918-5.2786,4.2041-13.54,1.877-24.001,6.7129,11.142,16.448,17.052,23.08,2.3411,4.884-10.834-22.584-27.479-12.529-4.4274m128.53,22.944c2.9693-32.921,12.608-73.487,29.555-114.33-28.05-14.152-46.37-35.109-53.68-63.778-69.22,16.692-124.91,4.99-173.44-21.777-54.75,36.617-119.7,37.37-175.38,24.5-9.83,30.967-27.536,51.303-57.166,63.388,15.545,37.077,27.969,76.087,31.11,113.17" stroke="#000" stroke-linecap="round" stroke-miterlimit="4" stroke-dasharray="none" stroke-width="3" fill="none"/>
   <path d="m241.35,61.69c-2.3244-4.5406,7.3959-1.5844,8.4145-6.1046,3.1624-14.034,22.883,3.1579,7.7545,5.4447-1.5027,0.22714-1.8275,7.1854-3.6298,7.0945-4.8105-0.24245-0.63606-4.4252-2.1448-6.2696-3.1689-3.8738-8.3987,3.7334-10.394-0.16499z" fill="#000"/>
   <path d="m-245.42,73.94c0,0.91121-1.2311,1.6499-2.7498,1.6499s-2.7498-0.73868-2.7498-1.6499c0-0.91121,1.2311-1.6499,2.7498-1.6499s2.7498,0.73868,2.7498,1.6499z" transform="matrix(1.45,0,0,1.7,617.12412,-69.61696)" fill="#FFF"/>
  </g>
 </g>
</svg>
