<?xml version="1.0" encoding="UTF-8" standalone="no"?>
<!-- Created with Inkscape (http://www.inkscape.org/) -->

<svg
   xmlns:dc="http://purl.org/dc/elements/1.1/"
   xmlns:cc="http://creativecommons.org/ns#"
   xmlns:rdf="http://www.w3.org/1999/02/22-rdf-syntax-ns#"
   xmlns:svg="http://www.w3.org/2000/svg"
   xmlns="http://www.w3.org/2000/svg"
   xmlns:sodipodi="http://sodipodi.sourceforge.net/DTD/sodipodi-0.dtd"
   xmlns:inkscape="http://www.inkscape.org/namespaces/inkscape"
   width="1400"
   height="1650"
   id="svg2"
   version="1.1"
   inkscape:version="0.48.3.1 r9886"
   sodipodi:docname="Wappen Rathmansdorf.svg">
  <defs
     id="defs4" />
  <sodipodi:namedview
     id="base"
     pagecolor="#ffffff"
     bordercolor="#666666"
     borderopacity="1.0"
     inkscape:pageopacity="0.0"
     inkscape:pageshadow="2"
     inkscape:zoom="0.70089393"
     inkscape:cx="383.76099"
     inkscape:cy="258.99184"
     inkscape:document-units="px"
     inkscape:current-layer="layer2"
     showgrid="false"
     fit-margin-top="0"
     fit-margin-left="0"
     fit-margin-right="0"
     fit-margin-bottom="0"
     inkscape:window-width="1400"
     inkscape:window-height="966"
     inkscape:window-x="-8"
     inkscape:window-y="-8"
     inkscape:window-maximized="1" />
  <metadata
     id="metadata7">
    <rdf:RDF>
      <cc:Work
         rdf:about="">
        <dc:format>image/svg+xml</dc:format>
        <dc:type
           rdf:resource="http://purl.org/dc/dcmitype/StillImage" />
        <dc:title />
      </cc:Work>
    </rdf:RDF>
  </metadata>
  <g
     inkscape:groupmode="layer"
     id="layer2"
     inkscape:label="Vector"
     style="display:inline"
     transform="translate(-39.999996,-299.9375)">
    <path
       style="font-size:medium;font-style:normal;font-variant:normal;font-weight:normal;font-stretch:normal;text-indent:0;text-align:start;text-decoration:none;line-height:normal;letter-spacing:normal;word-spacing:normal;text-transform:none;direction:ltr;block-progression:tb;writing-mode:lr-tb;text-anchor:start;baseline-shift:baseline;color:#000000;fill:#ffffff;fill-opacity:1;fill-rule:nonzero;stroke:none;stroke-width:30.38183212;marker:none;visibility:visible;display:inline;overflow:visible;enable-background:accumulate;font-family:Sans;-inkscape-font-specification:Sans"
       d="m 67.573302,316.22306 c -7.438133,0.41351 -13.030808,6.3544 -13.125,13.15269 0.727472,316.36677 1.295327,632.7941 3.213734,949.15375 -9e-6,0.01 -9e-6,0.018 0,0.027 2.964007,337.4897 312.905664,642.169 647.608024,661.2801 0.018,0 0.036,0 0.054,0 354.37164,18.7884 701.80584,-269.8412 712.74694,-604.6183 0,-0.036 0,-0.072 0,-0.108 13.2526,-335.31183 5.2888,-670.89863 8.966,-1005.62659 -0.3419,-7.49642 -6.3071,-13.16547 -13.152,-13.26071 l -1346.311708,0 z"
       id="path3991"
       inkscape:connector-curvature="0"
       sodipodi:nodetypes="cccccccccccc" />
    <path
       style="font-size:medium;font-style:normal;font-variant:normal;font-weight:normal;font-stretch:normal;text-indent:0;text-align:start;text-decoration:none;line-height:normal;letter-spacing:normal;word-spacing:normal;text-transform:none;direction:ltr;block-progression:tb;writing-mode:lr-tb;text-anchor:start;baseline-shift:baseline;color:#000000;fill:#000000;fill-opacity:1;stroke:none;stroke-width:29.98157692;marker:none;visibility:visible;display:inline;overflow:visible;enable-background:accumulate;font-family:Sans;-inkscape-font-specification:Sans"
       d="m 52.962961,299.9375 c -3.394173,-0.002 -6.76811,1.39484 -9.168153,3.79501 -2.400043,2.40016 -3.796556,5.77427 -3.79481,9.16862 l 0,935.89297 c 0.0063,0.1532 0.01529,0.3064 0.02701,0.4593 -0.008,0.2795 -0.02701,0.5115 -0.02701,1.1882 0,386.1627 313.317152,699.4959 699.459872,699.4959 384.91423,0 697.39423,-311.353 699.37883,-695.8228 0.7568,-1.665 1.1555,-3.4917 1.1613,-5.3206 l 0,-935.89297 c 0,-3.39435 -1.3948,-6.76847 -3.7948,-9.16864 -2.4001,-2.40016 -5.774,-3.79675 -9.1682,-3.79499 z m 12.935956,25.92726 1348.202083,0 0,917.69004 c -0.7272,1.6443 -1.107,3.4413 -1.1072,5.2393 l 0,1.6475 c 0,372.1592 -301.3941,673.5687 -673.53393,673.5687 -372.13989,0 -673.560953,-301.4095 -673.560953,-673.5687 0,-0.1449 0.0248,-0.6873 0.02701,-1.6204 -0.0036,-0.2162 -0.0126,-0.4324 -0.02701,-0.6482 z m 181.319443,94.71552 c -51.47848,0 -93.81944,42.34313 -93.81944,93.82427 0,51.48114 42.34096,93.82427 93.81944,93.82427 30.06381,0 57.00123,-14.45847 74.21296,-36.73028 11.44951,38.90234 47.66308,67.62693 90.06559,67.62693 31.49437,0 59.54438,-15.84792 76.58951,-39.94418 13.5473,35.25092 47.88116,60.55095 87.66203,60.55095 34.02204,0 64.02928,-18.50604 80.4784,-45.91285 9.91915,19.56403 26.51385,35.25441 46.69367,44.04933 -64.02736,16.59634 -111.72454,75.07646 -111.72454,144.08535 0,56.68986 32.19567,106.26254 79.1821,131.36477 l 0,23.84768 c -4.56638,-0.1529 -39.25288,-1.36104 -81.20756,-5.64458 -22.39354,-2.28636 -46.07434,-5.40732 -66.65123,-9.61468 -19.31869,-4.85334 -36.47302,-8.57894 -52.58102,-18.98632 l 0,130.93266 c 47.19488,-11.4779 97.34598,-19.095 140.81018,-20.4988 l 0.10803,0 c 33.76165,-3.5683 51.44677,-2.5989 59.79166,0.4322 6.75772,2.2432 8.24514,7.6757 8.26389,13.4228 l 0,441.2225 c -0.22709,7.3877 -3.20684,15.1461 -5.2662,20.9308 -4.54542,12.6936 -12.02824,29.5119 -22.79321,46.0209 -21.52994,33.0184 -59.34175,64.4178 -106.7284,61.5773 -47.38665,-2.8405 -106.61651,-26.5291 -170.76003,-119.9676 -8.80987,-12.8335 11.70988,-20.4734 23.25232,-22.5783 31.03725,-1.9708 52.01092,2.5038 78.47994,10.2359 -82.85362,-94.5085 -167.91487,-191.3887 -238.97763,-272.4253 -14.25778,121.8551 -28.7425,246.4312 -40.96836,350.8552 16.00387,-15.5298 32.28705,-30.8445 48.01698,-41.7267 18.0355,-11.9103 32.42618,-18.6944 39.34799,3.5649 60.01457,132.5146 167.59595,204.1457 290.66744,252.2777 0.99627,0.3859 2.05939,0.5713 3.0787,0.8914 35.56574,11.1688 70.82514,23.3175 105.91821,35.8929 19.38792,6.9475 57.79321,21.8491 57.79321,21.8491 0,0 38.4193,-14.9129 57.82022,-21.8491 35.92768,-12.8448 72.10223,-25.0137 108.45679,-36.5953 0.0896,-0.028 0.18133,-0.05 0.27006,-0.081 0.0915,-0.032 0.18149,-0.069 0.27006,-0.108 120.81698,-48.9939 241.73168,-124.0324 290.66748,-252.2777 2.7831,-8.1867 1.0464,-16.3953 11.4776,-16.0965 6.9074,0.2699 17.4469,5.4468 27.8704,12.5316 17.5714,12.0235 33.1559,26.5847 48.044,41.7267 -14.1731,-121.7603 -28.8512,-246.4679 -40.9955,-350.8552 -82.941,94.6844 -167.9055,191.2856 -238.9776,272.4253 24.4813,-6.7239 55.118,-13.9672 78.48,-10.2359 13.524,2.9332 31.3284,11.1013 23.2523,22.5783 -65.2233,92.6881 -123.37341,117.1271 -170.76004,119.9676 -47.38663,2.8405 -85.19845,-28.5589 -106.72839,-61.5773 -10.76498,-16.509 -18.24779,-33.3273 -22.79321,-46.0209 -2.16275,-6.9589 -5.19093,-13.8619 -5.26621,-20.9308 l 0,-441.2225 c -0.38184,-6.9137 3.13345,-11.5071 8.26389,-13.4228 8.3449,-3.0311 26.03003,-4.0005 59.79167,-0.4322 l 0.10802,0 0.13503,0 c 46.59218,4.4435 96.18908,6.7556 140.70214,20.4988 l 0,-130.93266 c -16.77068,10.61911 -36.94166,15.73443 -52.58104,18.98632 -20.5768,4.20736 -44.25754,7.32832 -66.65119,9.61468 -41.95463,4.28354 -76.64118,5.49168 -81.20756,5.64458 l 0,-23.84768 c 46.97751,-25.10223 79.15509,-74.67491 79.15509,-131.36477 0,-69.00889 -47.67619,-127.48901 -111.69753,-144.08535 20.17417,-8.7945 36.75247,-24.48659 46.66667,-44.04933 16.45619,27.41123 46.48006,45.91285 80.5054,45.91285 39.77936,0 74.09405,-25.30218 87.63507,-60.55095 17.05219,24.10331 45.14359,39.94418 76.64339,39.94418 42.4018,0 78.568,-28.72568 90.0117,-67.62693 17.219,22.27925 44.1702,36.73028 74.24,36.73028 51.4784,0 93.7924,-42.34313 93.7924,-93.82427 0,-51.48114 -42.314,-93.82427 -93.7924,-93.82427 -42.4051,0 -78.6184,28.7276 -90.0657,67.62694 -17.2117,-22.26404 -44.1222,-36.70328 -74.186,-36.70328 -39.7808,0 -74.11466,25.25346 -87.66191,60.49694 -17.04629,-24.07919 -45.12925,-39.91718 -76.61655,-39.91718 -36.40971,0 -68.22393,21.19069 -83.74614,51.8005 C 804.0581,496.47778 774.02785,477.97135 740,477.97135 c -34.02785,0 -64.05,18.50643 -80.50541,45.91285 -15.51419,-30.60981 -47.33641,-51.8005 -83.74614,-51.8005 -31.49983,0 -59.59129,15.84884 -76.64352,39.94418 -13.53474,-35.25356 -47.81988,-60.52394 -87.60802,-60.52394 -30.06381,0 -57.02045,14.43924 -74.23997,36.70328 -11.44066,-38.89934 -47.63353,-67.62694 -90.03858,-67.62694 z m 329.04321,1357.50822 -2.10648,-0.5673 z M 247.21836,476.75601 c 21.12044,0 37.64661,16.52702 37.64661,37.64854 0,21.12151 -16.52617,37.64854 -37.64661,37.64854 -21.12042,0 -37.6466,-16.52703 -37.6466,-37.64854 0,-21.12152 16.52618,-37.64854 37.6466,-37.64854 z m 985.56334,0 c 21.1204,0 37.6195,16.52702 37.6195,37.64854 0,21.12151 -16.4991,37.64854 -37.6195,37.64854 -21.1205,0 -37.6467,-16.52703 -37.6467,-37.64854 0,-21.12152 16.5262,-37.64854 37.6467,-37.64854 z m -821.28479,30.92366 c 21.12043,0 37.6196,16.50001 37.6196,37.62153 0,21.12151 -16.49917,37.64854 -37.6196,37.64854 -21.12043,0 -37.67361,-16.52703 -37.67361,-37.64854 0,-21.12152 16.55318,-37.62153 37.67361,-37.62153 z m 657.03309,0 c 21.1205,0 37.6197,16.50001 37.6197,37.62153 0,21.12151 -16.4992,37.64854 -37.6197,37.64854 -21.1203,0 -37.6465,-16.52703 -37.6465,-37.64854 0,-21.12152 16.5262,-37.62153 37.6465,-37.62153 z m -492.78155,20.57976 c 21.12044,0 37.6196,16.52702 37.6196,37.64854 0,21.12151 -16.49916,37.64854 -37.6196,37.64854 -21.12042,0 -37.6466,-16.52703 -37.6466,-37.64854 0,-21.12152 16.52618,-37.64854 37.6466,-37.64854 z m 328.50309,0 c 21.12047,0 37.6466,16.52702 37.6466,37.64854 0,21.12151 -16.52613,37.64854 -37.6466,37.64854 -21.12038,0 -37.64661,-16.52703 -37.64661,-37.64854 0,-21.12152 16.52623,-37.64854 37.64661,-37.64854 z M 740,534.14708 c 21.12043,0 37.61959,16.52702 37.61959,37.64854 0,21.12151 -16.49916,37.64854 -37.61959,37.64854 -21.12043,0 -37.64661,-16.52703 -37.64661,-37.64854 0,-21.12152 16.52618,-37.64854 37.64661,-37.64854 z m 0,183.84048 c 46.76632,0 83.98919,37.19777 83.98919,83.96651 0,46.76872 -37.22287,83.99352 -83.98919,83.99352 -46.76633,0 -83.9892,-37.2248 -83.9892,-83.99352 0,-46.76874 37.22287,-83.96651 83.9892,-83.96651 z"
       id="rect3014"
       inkscape:connector-curvature="0"
       sodipodi:nodetypes="cscccsscccsccccccssscccssscscsccsccscccccccccszscccccccaacaaaccccccccszsccccccccccsccsccscscssscscscscscscsaaassssssssssssssssssssssssssssssssssssssss" />
  </g>
</svg>
