<?xml version="1.0" encoding="UTF-8" standalone="no"?><svg xmlns="http://www.w3.org/2000/svg" viewBox="0 0 977.12 1067.6" xmlns:xlink="http://www.w3.org/1999/xlink"><defs><path id="0" d="m-597.33 492.78c0 0-7.361 2.866-11.2 3.733-4.213.952-12.859 1.585-12.859 1.585" stroke="#000" stroke-width="6.273" fill="none" stroke-linecap="round"/></defs><g transform="translate(102.22 4.709)"><path d="m696.17 5.317c-26.17.053-51.02.198-70.798.478-79.11 1.122-156.7-.214-235.05 0-2.653.007-5.305.036-7.958.043-78.35.214-155.94 1.122-235.05 0-79.11-1.122-239.53 0-239.53 0 0 0 4.995 48.18 6.784 72.32 3.067 41.38 4.256 82.87 6.784 124.29 3.405 55.766 7.902 111.49 11.307 167.25 2.529 41.41 3.91 82.9 6.784 124.29 4.346 62.59 5.02 125.75 15.786 187.56 6.02 34.562 14.418 68.979 27.14 101.67 15.355 39.473 33.473 78.71 58.839 112.63 18.288 24.456 41.648 45.04 65.884 63.62 27.747 21.272 57.962 39.816 89.93 53.968 33.818 14.97 69.917 25.08 106.24 32.09 27.334 5.278 55.35 7.255 83.19 7.349 27.662.094 55.55-1.52 82.71-6.741 36.46-7.01 72.54-17.626 106.46-32.746 31.934-14.235 62.23-32.696 89.98-53.968 24.24-18.58 47.595-39.17 65.884-63.62 25.365-33.919 43.484-73.16 58.839-112.63 12.718-32.695 21.12-67.16 27.14-101.72 10.762-61.814 11.44-124.97 15.786-187.56 2.874-41.39 4.256-82.87 6.784-124.29 3.405-55.766 7.902-111.44 11.307-167.21 2.529-41.41 3.717-82.909 6.784-124.29 1.79-24.14 6.784-72.32 6.784-72.32 0 0-90.24-.636-168.73-.478" fill="#fcdd09"/><path d="m-65.59 28.938c1.482 15.829 3.281 35.888 4.219 49.22 2.832 40.26 4.01 80.63 6.281 120.94h102.06v-77.37h160.44v77.37h98.69v-77.37h160.47v77.37h98.69v-77.37h160.44v77.37h102.09c2.272-40.31 3.417-80.69 6.25-120.97.937-13.319 2.768-33.364 4.25-49.19h-903.87"/><path d="m696.17 5.317c-26.17.053-51.02.198-70.798.478-79.11 1.122-156.7-.214-235.05 0-2.653.007-5.305.036-7.958.043-78.35.214-155.94 1.122-235.05 0-79.11-1.122-239.53 0-239.53 0 0 0 4.995 48.18 6.784 72.32 3.067 41.38 4.256 82.87 6.784 124.29 3.405 55.766 7.902 111.49 11.307 167.25 2.529 41.41 3.91 82.9 6.784 124.29 4.346 62.59 5.02 125.75 15.786 187.56 6.02 34.562 14.418 68.979 27.14 101.67 15.355 39.473 33.473 78.71 58.839 112.63 18.288 24.456 41.648 45.04 65.884 63.62 27.747 21.272 57.962 39.816 89.93 53.968 33.818 14.97 69.917 25.08 106.24 32.09 27.334 5.278 55.35 7.255 83.19 7.349 27.662.094 55.55-1.52 82.71-6.741 36.46-7.01 72.54-17.626 106.46-32.746 31.934-14.235 62.23-32.696 89.98-53.968 24.24-18.58 47.595-39.17 65.884-63.62 25.365-33.919 43.484-73.16 58.839-112.63 12.718-32.695 21.12-67.16 27.14-101.72 10.762-61.814 11.44-124.97 15.786-187.56 2.874-41.39 4.256-82.87 6.784-124.29 3.405-55.766 7.902-111.44 11.307-167.21 2.529-41.41 3.717-82.909 6.784-124.29 1.79-24.14 6.784-72.32 6.784-72.32 0 0-90.24-.636-168.73-.478z" fill="none" stroke="#000" stroke-width="20"/><path d="m33.06 592.12c-26 15.251-43.47 43.488-43.47 75.81 0 45.628 34.811 84.42 79.31 88.72l219.25 68.72-49.03 15.5c-37.592 1.347-67.66 32.423-67.66 70.34 0 25.423 13.516 47.678 33.75 60v-26.594c0-20.2 16.267-36.438 36.469-36.438 20.2 0 36.469 16.236 36.469 36.438v26.594c20.234-12.322 33.75-34.577 33.75-60 0-10.612-2.378-20.668-6.594-29.688l81.03-25.406 81.03 25.406c-4.215 9.02-6.594 19.08-6.594 29.688 0 25.423 13.516 47.678 33.75 60v-26.594c0-20.2 16.267-36.438 36.469-36.438 20.2 0 36.469 16.236 36.469 36.438v26.594c20.234-12.322 33.75-34.577 33.75-60 0-37.921-30.06-68.997-67.66-70.34l-49.03-15.5 219.25-68.72c44.502-4.297 79.31-43.09 79.31-88.72 0-32.32-17.465-60.56-43.47-75.81v48.19c0 20.2-16.267 36.469-36.469 36.469h-15.813c-20.2 0-36.469-16.267-36.469-36.469v-48.19c-25.999 15.252-43.47 43.492-43.47 75.81 0 19.14 6.135 36.85 16.531 51.28l-237.59 75.12-237.59-75.12c10.397-14.432 16.531-32.14 16.531-51.28 0-32.32-17.47-60.56-43.47-75.81v48.19c0 20.2-16.267 36.469-36.469 36.469h-15.813c-20.2 0-36.469-16.267-36.469-36.469v-48.19"/><g stroke="#000" stroke-width="5"><g stroke-linejoin="round"><path d="m152.35 235.56c0 0-1.979 193.45 18.833 286.84 7.03 31.526 18.635 62.54 35.28 89.94 18 29.636 41.853 55.838 68.2 77.81 27.467 22.91 58.874 41.25 91.69 54.688 6.364 2.606 20.01 4.875 20.01 4.875 0 0 13.618-2.269 19.982-4.875 32.812-13.437 64.25-31.777 91.72-54.688 26.345-21.974 50.2-48.18 68.2-77.81 16.643-27.398 28.22-58.41 35.25-89.94 20.812-93.39 18.833-286.84 18.833-286.84h-233.98-234.01z" fill="#4d87ca"/><path d="m153.07 312.12c.515 22.493 1.356 47.935 2.781 74.16h460.97c1.426-26.22 2.266-51.663 2.781-74.16h-466.53zm8.188 144.47c2.539 24.365 5.77 47.11 9.938 65.813.619 2.778 1.278 5.544 1.969 8.313h426.37c.69-2.767 1.35-5.536 1.969-8.313 4.167-18.699 7.399-41.45 9.938-65.813h-450.19zm38.719 144.44c2.068 3.831 4.217 7.606 6.469 11.313 14.08 23.18 31.773 44.24 51.41 62.844h257.03c19.63-18.598 37.3-39.665 51.37-62.844 2.251-3.706 4.402-7.482 6.469-11.313h-372.75z" fill="#fff" stroke-linecap="round"/></g><path d="m152.34 235.56c0 0-.306 31.34.656 74.66.245.202.499.406.75.625.398.356.783.638 1.188.969l.094.125c.505.412.963.808 1.469 1.188.474.355.952.72 1.438 1.094.026.03.07.034.094.063.142.111.328.171.469.281.441.347.932.744 1.375 1.094.442.357.827.689 1.281 1.031.716.538 1.466 1.096 2.188 1.625l.063.094c.892.653 1.757 1.301 2.656 1.938 1.858 1.32 3.831 2.627 5.719 3.906.716.485 1.373.926 2.094 1.406l.063-.031c2.01 1.346 3.974 2.685 6 4 .099.064.245.155.344.219 1.48.96 2.95 1.89 4.438 2.844.054.034.132.089.188.125 1.304.843 2.567 1.694 3.875 2.531 4.31 2.761 8.662 5.497 12.906 8.344.378.254.716.466 1.094.719.685.463 1.351.971 2.031 1.438 1.054.725 2.082 1.422 3.125 2.156.91.643 1.818 1.284 2.719 1.938.34.246.758.598 1.094.844 2.885 2.119 5.671 4.253 8.438 6.531.986.813 1.937 1.63 2.906 2.469.919.796 1.847 1.587 2.75 2.406.141.128.298.28.438.406.508.467.965.932 1.469 1.406.968.914 1.964 1.869 2.906 2.813.464.466.95.934 1.406 1.406.066.068.09.119.156.188.671.699 1.342 1.375 2 2.094.065.07.091.118.156.188.811.889 1.646 1.825 2.438 2.75.999 1.168 1.96 2.364 2.906 3.563.6.761 1.171 1.541 1.75 2.313.269.359.545.73.813 1.094.34.463.73.908 1.063 1.375.272.38.482.742.75 1.125.236.338.487.722.719 1.063.513.752 1 1.46 1.5 2.219.457.698.961 1.45 1.406 2.156.257.408.466.777.719 1.188.205.335.422.665.625 1 .376.62.694 1.215 1.063 1.844-.045.039-.08.086-.125.125.648 1.108 1.282 2.252 1.906 3.375 1.272 2.293 2.563 4.66 3.75 7 1.185 2.34 2.315 4.657 3.438 7.03.562 1.186 1.137 2.4 1.688 3.594 2.195 4.771 4.336 9.598 6.438 14.406 2.11 4.818 4.177 9.634 6.375 14.406 6.586 14.308 13.984 28.21 24.469 40.469l.063.063.063-.031c6.078 7.106 7.553 8.958 11.344 11.875.725.664 1.421 1.316 2.156 1.969.382.34.744.645 1.125.969l-.094.094c.68.592 1.408 1.196 2.094 1.781l.031.063c.779.664 1.552 1.317 2.344 1.969.536.439 1.095.905 1.625 1.313.484.363.883.65 1.375 1.031l.031.031c.331.26.7.522 1.031.781.703.551 1.473 1.184 2.188 1.719.717.538 1.404 1.066 2.125 1.594.894.654 1.82 1.303 2.719 1.938 1.858 1.319 3.768 2.597 5.656 3.875.716.485 1.465 1.049 2.188 1.531 2.01 1.35 4 2.653 6.03 3.969.099.063.213.155.313.219 15.16 9.824 30.674 19.16 44.22 31.19 2.604 2.314 5.187 4.658 7.625 7.188 1.603 1.664 3.17 3.476 4.688 5.25.764.894 1.488 1.746 2.219 2.656.279.348.568.711.844 1.063.363.472.769.962 1.125 1.438.271.361.484.731.75 1.094.34.463.792.94 1.125 1.406.271.381.482.742.75 1.125.236.337.487.722.719 1.063.512.751.973 1.398 1.469 2.156.458.699.901 1.391 1.344 2.094.257.407.558.932.813 1.344.207.333.422.664.625 1 .478.788.881 1.517 1.344 2.313.41.702.819 1.417 1.219 2.125.082.147.261.29.344.438.542.966 1.034 1.989 1.563 2.969.216.402.442.814.656 1.219.029.059.002.035.031.094.196.371.401.756.594 1.125.417.798.875 1.574 1.281 2.375.16.316.28.62.438.938.427.852.894 1.736 1.313 2.594.345.705.66 1.449 1 2.156.228.476.459.895.688 1.375.517 1.09 1.058 2.217 1.563 3.313.046.098.048.183.094.281.195.425.368.826.563 1.25.898 1.966 1.776 3.933 2.656 5.906.026.03.106.117.125.156 1.05 2.366 2.055 4.72 3.094 7.094 1.341 3.059 2.729 6.169 4.094 9.219.785 1.758 1.539 3.469 2.344 5.219.651 1.417 1.236 2.778 1.906 4.188 1.784 3.745 3.693 7.479 5.656 11.125.051.006.105-.005.156 0 4.847 9.08 10.365 17.769 17.219 25.781 6.077 7.104 7.616 9.02 11.406 11.938.725.664 1.42 1.315 2.156 1.969.852.757 1.726 1.484 2.594 2.219l.031.063c.368.315.778.64 1.156.969.398.356.783.638 1.188.969l.063.094c.505.412.994.808 1.5 1.188.474.356.952.72 1.438 1.094.025.03.1.034.125.063.142.111.265.171.406.281.441.347.932.744 1.375 1.094.442.358.889.719 1.344 1.063.715.537 1.434 1.095 2.156 1.625l.063.063c.196.144.395.292.594.438 3.297-2.539 6.557-5.149 9.75-7.813 18.36-15.314 35.48-32.692 50.28-51.844-.452-.317-.896-.646-1.344-.969-1.07-.77-2.13-1.553-3.188-2.344-1.714-1.282-3.388-2.659-5.063-4-1.343-1.076-2.656-2.129-3.969-3.25l-.031-.063-.063-.063c-.04-.037-.13-.063-.156-.094l-.063-.094c-.743-.639-1.433-1.205-2.156-1.844-.16-.143-.368-.323-.531-.469-.066-.061-.123-.128-.188-.188-.599-.542-1.191-1.164-1.781-1.719-.378-.354-.784-.676-1.156-1.031v-.031c-.271-.259-.48-.518-.75-.781-.631-.616-1.35-1.156-1.969-1.781l-.031-.031-.063-.094c-.015-.015-.047-.047-.063-.063-.602-.614-1.191-1.278-1.781-1.906-.333-.35-.61-.736-.938-1.094-.207-.226-.414-.434-.625-.656-.078-.091-.108-.063-.188-.156l-.469-.594c-.644-.753-1.284-1.483-1.906-2.25-3.852-4.753-7.248-9.757-10.375-14.906-.405-.668-.791-1.294-1.188-1.969l-.156.125c-.374-.636-.786-1.37-1.156-2-.357-.608-.66-1.159-1-1.781l-.063-.063-.25.031c-.553-.975-1.092-1.958-1.625-2.938-.179-.326-.386-.61-.563-.938-1.142-2.307-2.258-4.652-3.344-6.969-1.079-2.307-2.077-4.567-3.125-6.906-.006 0-.096-.093-.094-.094h-.375c-.69-1.481-1.387-2.947-2.063-4.438 0-.021 0-.04 0-.063-.178-.396-.325-.793-.5-1.188-.507-1.126-1.093-2.371-1.594-3.5-1.348-3.038-2.665-6.05-4-9.09-.018-.021-.046-.043-.063-.063-1.337-3.04-2.628-6.101-4-9.125-.017-.02-.045-.042-.063-.063l-.031-.031c-.674-1.489-1.401-2.956-2.094-4.438-.363-.783-.755-1.626-1.125-2.406-.353-.739-.673-1.42-1.031-2.156l-.031-.063c-.388-.797-.786-1.581-1.188-2.375-.349-.693-.65-1.375-1-2.063l-.031-.031c-.377-.738-.697-1.429-1.063-2.156-.365-.728-.765-1.49-1.156-2.219h-.031c-.192-.355-.428-.735-.625-1.094-1.232-2.252-2.511-4.549-3.844-6.75-.183-.305-.376-.573-.563-.875-.146-.236-.291-.547-.438-.781-.814-1.305-1.65-2.535-2.5-3.813-.847-1.272-1.724-2.618-2.625-3.875-1.957-2.725-4.04-5.349-6.25-7.938v-.031c-.695-.804-1.421-1.608-2.125-2.375-.078-.085-.141-.169-.219-.25-.478-.527-.982-1.013-1.469-1.531-.175-.185-.334-.39-.5-.563-.17-.179-.375-.35-.563-.531-.156-.16-.307-.308-.469-.469-.083-.084-.137-.166-.219-.25-.749-.766-1.442-1.467-2.219-2.219-.854-.825-1.752-1.73-2.625-2.531-.087-.078-.193-.114-.281-.188-.717-.654-1.459-1.36-2.188-2l-.031-.031c-.398-.352-.754-.653-1.156-1-.034-.04-.122-.117-.156-.156-.661-.568-1.363-1.131-2.031-1.688-.046-.037-.104-.023-.156-.063l-.031-.031c-.777-.644-1.589-1.256-2.375-1.875-.204-.164-.387-.336-.594-.5-.101-.081-.18-.17-.281-.25-.144-.114-.29-.203-.438-.313-.473-.376-.954-.784-1.438-1.156l-.031-.031c-1.141-.878-2.314-1.742-3.469-2.594-.375-.276-.748-.57-1.125-.844l-.031-.031c-.924-.672-1.847-1.342-2.781-2-1.193-.843-2.36-1.646-3.563-2.469-.542-.372-1.114-.788-1.656-1.156-1.683-1.141-3.366-2.26-5.063-3.375-1.137-.747-2.298-1.42-3.438-2.156l-.031-.063c-.438-.283-.874-.559-1.313-.844-.887-.571-1.737-1.119-2.625-1.688l-.063-.063c-2.356-1.671-4.747-3.295-7.125-4.938-2.384-1.647-4.776-3.294-7.156-4.906-2.055-1.348-4.13-2.748-6.156-4.125-.117-.08-.225-.138-.344-.219-1.056-.72-2.078-1.425-3.125-2.156-.017-.012-.046-.051-.063-.063-3.829-2.675-7.601-5.456-11.25-8.375-1.201-.97-2.357-1.938-3.531-2.938-.118-.1-.269-.224-.375-.313-.07-.058-.143-.123-.219-.188 0-.009 0-.031 0-.031-.032-.028-.057-.006-.094-.031l-.063-.094c-.029-.033-.091-.065-.125-.094-.163-.139-.339-.236-.5-.375l-.125-.156.094-.094c-.653-.57-1.258-1.105-1.906-1.688-.005.004-.026.026-.031.031-.062-.057-.125-.162-.188-.219l-.156-.188c-.221-.201-.459-.365-.688-.563-.397-.368-.826-.788-1.219-1.156-.369-.345-.698-.561-1.063-.906l-.031-.063c-.27-.261-.575-.52-.844-.781-.643-.628-1.275-1.202-1.906-1.844l-.125-.125c-.602-.614-1.192-1.341-1.781-1.969l-.031-.031c-.273-.319-.557-.655-.844-.969-.097-.114-.226-.309-.344-.406-.112-.131-.22-.184-.344-.313l-.188-.219-.438-.531h-.031c-.621-.726-1.284-1.535-1.875-2.281l-.031-.031c-3.641-4.559-6.86-9.335-9.844-14.25-.408-.671-.854-1.326-1.25-2l-.094.094c-.149-.253-.257-.435-.406-.688.002 0-.058-.053-.063-.063-.223-.38-.409-.756-.625-1.125-.357-.608-.782-1.219-1.125-1.844l-.031-.031h-.125c-.111-.192-.234-.333-.344-.531.002 0-.096-.124-.094-.125l-.094-.031c-.416-.746-.779-1.438-1.188-2.188-.179-.326-.387-.674-.563-1-1.142-2.307-2.258-4.652-3.344-6.969-1.076-2.305-2.108-4.567-3.156-6.906 0-.002-.058-.053-.063-.063h-.156c-.095-.213-.218-.474-.313-.688l-.031-.031-.125.063c-.595-1.275-1.203-2.532-1.781-3.813-.006-.013-.06-.052-.063-.063-.011-.021.012-.006 0-.031-.178-.395-.325-.794-.5-1.188-.507-1.126-1.061-2.307-1.563-3.438-1.347-3.036-2.697-6.083-4.03-9.125-.017-.02-.014-.042-.031-.063-1.337-3.039-2.723-6.1-4.094-9.125l-.063-.094c-.674-1.489-1.341-2.956-2.031-4.438-.365-.786-.724-1.534-1.094-2.313-.351-.739-.705-1.514-1.063-2.25l-.031-.031c-.388-.798-.819-1.582-1.219-2.375-.349-.693-.62-1.406-.969-2.094-.377-.739-.823-1.492-1.188-2.219-.365-.727-.734-1.49-1.125-2.219v-.031c-.193-.356-.397-.672-.594-1.031-1.236-2.257-2.512-4.519-3.844-6.719-.184-.306-.406-.634-.594-.938-.145-.235-.291-.547-.438-.781-.812-1.303-1.62-2.505-2.469-3.781-.847-1.272-1.724-2.587-2.625-3.844-.982-1.369-2.01-2.695-3.063-4.03-.079-.102-.171-.211-.25-.313-1.126-1.439-2.27-2.849-3.469-4.25l.031-.031c-.83-.971-1.675-1.908-2.531-2.844-.341-.37-.688-.667-1.031-1.031-.223-.238-.493-.577-.719-.813-.364-.381-.696-.749-1.063-1.125-.814-.831-1.634-1.598-2.469-2.406-.922-.895-1.773-1.728-2.719-2.594-.759-.696-1.603-1.385-2.375-2.063-.141-.122-.297-.315-.438-.438-.286-.248-.587-.504-.875-.75-1.957-1.683-3.878-3.316-5.906-4.906-.524-.412-1.097-.814-1.625-1.219-1.077-.827-2.093-1.6-3.188-2.406-.094-.068-.28-.151-.375-.219-1.075-.791-2.132-1.572-3.219-2.344-1.788-1.27-3.59-2.486-5.406-3.719-.108-.071-.206-.177-.313-.25-1.659-1.12-3.357-2.243-5.03-3.344-1.141-.751-2.293-1.479-3.438-2.219-.436-.284-.814-.563-1.25-.844-.891-.576-1.827-1.208-2.719-1.781-.027-.031-.046.05-.063.031-4.733-3.361-9.449-6.614-14.219-9.844-2.154-1.414-4.242-2.83-6.375-4.281-.005.002-.027-.034-.031-.031-.003.003-.027-.003-.031 0-2.131-1.452-4.257-2.871-6.344-4.375-1.07-.77-2.13-1.585-3.188-2.375-1.715-1.283-3.419-2.628-5.094-3.969-1.343-1.076-2.625-2.129-3.938-3.25l-.031-.063-.063-.063c0 0-.023-.025-.031-.031-.041-.038-.13-.063-.156-.094l-.094-.125c-.743-.639-1.403-1.143-2.125-1.781-.16-.142-.337-.354-.5-.5-.065-.06-.154-.128-.219-.188-.6-.542-1.159-1.132-1.75-1.688-.377-.353-.783-.675-1.156-1.031l-.031-.031c-.271-.259-.512-.582-.781-.844-.631-.616-1.319-1.124-1.938-1.75l-.094-.125c-.013-.012-.017-.017-.031-.031-.555-.567-1.138-1.19-1.688-1.781.06.012.044-.062.094-.063-.352-.382-.687-.696-1.031-1.063l-.125-.125c-.273-.319-.525-.655-.813-.969-.098-.114-.164-.184-.281-.281-.113-.132-.219-.245-.344-.375l-.094-.125h-44.906z" fill="#da121a" stroke-linecap="round"/></g><g transform="matrix(.49385.62569-.62569.49385 963.43 573.77)"><path d="m-645.45 492.78c0 0 7.361 2.866 11.2 3.733 4.213.952 12.859 1.585 12.859 1.585" fill="none" stroke="#000" stroke-linecap="round" stroke-width="6.273" id="1"/><use xlink:href="#0"/></g><g transform="matrix(.49385.62569-.62569.49385 1123.46 759.02)"><use xlink:href="#1"/><use xlink:href="#0"/></g><g transform="matrix(.49385.62569-.62569.49385 808.82 391.28)"><path d="m-639.24 495.46c0 0 3.309.771 4.984 1.05 4.26.71 12.859 1.585 12.859 1.585" fill="none" stroke="#000" stroke-linecap="round" stroke-width="6.273"/><use xlink:href="#0"/></g></g></svg>