<?xml version="1.0" encoding="UTF-8"?>
<!-- Created with Inkscape (http://www.inkscape.org/) -->
<svg width="205mm" height="244.65mm" version="1.1" viewBox="0 0 205 244.65" xmlns="http://www.w3.org/2000/svg">
 <title>Wappen der Gemeinde Renquishausen</title>
 <g transform="translate(-3.3333 -26.509)">
  <path d="m5.8336 71.841v96.934c6e-5 26.49 10.536 51.896 29.29 70.628 18.754 18.732 44.188 29.255 70.71 29.255 26.522 8e-5 51.957-10.523 70.711-29.255 18.754-18.732 29.289-44.137 29.289-70.628v-96.934z" fill="#da121a"/>
  <g fill="#ffffff">
   <path d="m5.8336 29.009v42.832h200v-42.832z"/>
   <g stroke="#000000">
    <path d="m51.764 119.35 26.845-4.0419c3.3743 7.344 7.3468 15.15 11.17 22.75 9.9483 10.222 20.857 14.543 28.673 15.159 4.075-14.806 22.973-34.81 34.233-30.401 16.281-0.32262 30.848 13.458 28.721 31.425-1.3471-1.805-2.3045-3.7832-3.0865-5.8393 0.66014 6.286 0.0384 12.82-3.1966 19.86-0.80107-1.3764-0.94513-3.1635-1.0466-4.9771-1.2032 3.8137-1.5936 6.7471-0.85117 9.5386 1.3558 5.0972 2.4018 11.332-0.94028 16.359-1.3728-10.305-3.7415-21.316-9.2393-27.369 2.3573 4.391 2.6111 10.177 2.2134 13.636-1.4978-1.187-2.3423-2.8775-3.6442-4.6574 2.013 4.0537 5.0057 18.438 1.3175 21.263-2.6043-6.1185-3.5015-13.566-6.8462-18.914 0.3934 6.4026 0.67899 12.799-1.2742 19.079-0.9451-1.5223-1.2245-3.5438-1.7042-5.4151 0.0255 3.4092 0.13493 6.81-1.0606 10.341-1.59-4.8005-1.5573-10.748-3.1407-15.478-0.0951 2.9083-0.32968 5.7516-2.282 7.7932-0.0638 3.6081-0.74018 6.3808-2.1895 8.0996-0.65239-2.0585-0.6118-3.9926-0.82889-5.9499-2.0278 0.26001-2.9588 0.36234-5.6019 0.6419 2.8978 5.7137-16.086 9.7839-23.499 13.833-3.0977 3.0093-3.807 8.8809-3.1738 15.876l-1.523 1.0875-3.7463 0.24337c-12.145-14.11-11.228-16.458-28.38-26.326-7.8676-4.5264-14.581-10.204-19.964-16.725-6.4454-7.808-11.708-14.966-5.5946-35.586 2.6086-8.7984 1.8777-17.746-0.35886-25.304z" stroke-miterlimit="8"/>
    <path d="m50.695 88.479c1.4582-0.4242 2.4893-3.9099 3.7261-4.9773l2.6914-0.03033c1.0289 0.94689 1.5238 1.7765 2.4896 3.6948l0.74257-0.02706c1.4528-1.7834 2.7821-3.1224 4.3502-4.4822l2.8859 0.01497c1.7757 4.3089 4.5065 5.883 12.242 3.8195 1.4739-0.39318 4.4198-1.1235-1.9685 6.4342 1.8611 0.30426 4.6447 0.37179 6.7477-0.0099 3.1834-0.57785 5.273 0.74768-0.58322 6.0118l0.25302 0.62412c4.7375-0.29881 4.9468 0.7633 4.6917 2.5675-1.6291 1.368-6.0184 2.8533-11.358 3.6702l-29.625-10.314c-2.8161-7.9748-2.5847-13.353 2.7147-6.9964z"/>
    <path d="m41.104 98.307c15.193-9.7335 23.163-8.8578 29.427-2.9712 8.1423 7.6513 10.083 18.909 15.762 28.066-4.2415-0.94685-5.3309-3.5104-7.7508-6.949-0.96027 3.1384-2.5282 5.7906-4.3765 8.2185 0.26932-2.728 0.01783-5.7811-0.90204-8.2854-1.812 4.0544-4.0013 7.4603-6.8822 10.624-0.7624-3.1062-1.0337-6.0526-1.7707-9.154-2.0664 3.4344-3.8136 7.2062-6.5481 10.223-0.55325-2.8286-0.10994-5.8577-0.4009-8.8533-1.983 0.85831-3.6166 2.5118-5.261 3.9627-12.165-2.8824 1.1577-10.321-4.1404-19.849-2.0899-0.20551-4.2627-0.3696-5.666-0.91843 1.4164-0.79037 2.7412-1.5938 3.5413-2.4722-1.4528-0.77177-3.2285-1.2206-5.0316-1.6421z"/>
   </g>
  </g>
  <g>
   <path d="m60.778 107.94c1.61e-4 -1.0007 1.0213-2.134 3.6522-2.1244 1.7745 6e-3 2.7607 0.69229 2.7132 1.9792-0.08018 2.1706-1.8524 2.2902-5.2798 2.1515-0.80077-0.57072-1.0858-0.95218-1.0856-2.0063z" fill="none" stroke="#000000" stroke-width=".7"/>
   <path d="m58.728 98.933c1.61e-4 -1.0007-0.18344-2.4489 2.4474-2.4315 0.97135 0.0064 1.6181 0.85922 1.6974 2.1446 0.13243 2.147-0.43497 2.5737-3.2955 2.6003-0.61178-0.23999-0.84956-1.2593-0.84939-2.3134z" fill="none" stroke="#000000" stroke-width=".7"/>
   <ellipse cx="60.926" cy="98.837" rx=".34845" ry=".27013" fill="#000000" stroke-width="0"/>
  </g>
  <g stroke="#000000">
   <path d="m5.8333 29.009 3.175e-4 139.77c6.01e-5 26.49 10.536 51.896 29.289 70.628 18.754 18.732 44.189 29.255 70.71 29.255 26.522 8e-5 51.957-10.523 70.711-29.255 18.754-18.732 29.289-44.137 29.289-70.628l1e-5 -139.77z" fill="none" stroke-linecap="square" stroke-miterlimit="8" stroke-width="5"/>
   <path d="m5.8336 72.141h200" fill="none" stroke-miterlimit="8" stroke-width="3"/>
   <path d="m79.1 196.8 10.422 6.7169c3.147 4.885 2.2943 9.7699 1.1072 14.655-0.27904 0.79372-1.3926 1.3146-2.4237 1.6069 0.45337 3.19 0.7124 6.4641-0.25034 10.008l3.5746-0.45159c-0.40694 1.7893-1.8019 3.2493-3.3268 4.666 3.1963 5.0596 7.6495 4.681 9.825 7.1941-1.5139 0.32655-3.9773 0.33606-6.1949-0.30209-3.6774-1.0582-7.6648 0.17466-10.024 1.55-3.8749 2.2593-8.4694 4.6023-10.995 4.6376 0.39881-2.2782 2.406-4.2118 4.5377-6.1186-3.9427 2.6309-6.3262 3.1654-8.9815 2.4879 0.91188-1.6464 1.9691-3.0288 4.2208-3.923-2.6094 0.67602-2.944-0.0723-4.03-0.49449 3.9985-3.8519 9.3122-3.4292 14.71-2.7344 4.6915-2.82 4.5334-9.6927 3.5325-15.931-1.4164-8.8276-6.2666-16.463-5.7042-23.567z" fill="#ffffff"/>
   <path d="m109.74 221.48c0.86942 23.701-2.1529 17.284 4.848 15.609-0.0923 1.133-0.45793 2.5816-1.4156 3.2403-2.197 1.5112-4.0778 2.0474 3.4432 3.7299 3.5828 0.80151 7.1832 0.3701 8.3416 4.1706-2.3425 0.39917-4.9888 0.32411-7.9081-0.50957-4.1279-1.1788-8.7648-1.4844-12.127 1.5263-2.6217 2.3474-4.4154 2.9966-8.0598 3.5378 0.7222-1.9486 1.8945-3.9046 3.1898-5.0272-2.2011 0.79661-4.5067 0.88912-6.9594 0.43684 0.29735-0.81592 0.88264-1.8148 1.822-2.5424-0.74606 0.0962-1.6258 2e-3 -2.2382-0.60898 1.3982-1.901 3.3549-3.0693 7.464-3.1284 4.4961-0.0646 6.3297-3.2927 6.3286-6.7211-2e-3 -4.6081-0.60977-9.331-0.76766-12.721z" fill="#ffffff" stroke-linecap="round" stroke-miterlimit="8"/>
  </g>
  <g fill="none" stroke="#000000" stroke-linecap="round">
   <g>
    <path d="m178.55 149.07c-9.9569-25.207-33.25-21.91-45.62-8.873-4.1331 4.3559-4.6196 4.943-8.1136 6.3244 8.4332-13.182 20.171-23.715 31.847-23.517"/>
    <path d="m134.52 149.15c10.626-8.0611 20.136-9.5879 27.04-6.5136 4.9467 2.2028 9.2172 7.2381 9.9919 13.373 0.46842 3.7095 0.65044 5.4829 1.958 9.3146 3.2056-13.668-0.73778-21.382-6.1972-26.071-8.7362-7.5029-23.714-5.3409-37.266 7.0143"/>
    <path d="m136.24 150.27c19.498-7.1412 30.017-0.79357 35.346 9.6933 1.4773 2.9072 2.116 6.1509 0.5306 9.4418-5.7613-16.028-13.451-21.317-34.961-17.759"/>
    <path d="m101.26 241.87c0.67112 2.5921-0.9325 1.3741-6.5649 3.8759"/>
   </g>
   <path d="m138.49 155.3c8.7908-6e-3 18.973-1.3664 25.732 8.4353" stroke-width="1.5"/>
   <g>
    <path d="m145.46 158.32c5.9811 2.1429 12.889 5.6178 16.48 13.113"/>
    <path d="m149.04 182.3c-1.4267-6.9867-4.3154-12.392-8.5516-17.121"/>
    <path d="m153.17 187.93c-0.62291-9.1891-6.3283-21.2-11.375-24.822"/>
    <path d="m146.47 191.41c-0.1833-6.0903-2.229-16.001-8.0003-25.156"/>
    <path d="m122.71 155.03c4.7131-2.2267 10.112-1.6621 13.247 3.1665 8.3803 1.107 16.15 6.0044 20.383 15.285"/>
    <path d="m125.07 159.85c3.2384 0.0577 6.2789 1.3386 8.4328 4.3736 6.6004 9.3005 9.2827 19.585 10.102 27.284"/>
   </g>
   <path d="m138.74 158.32c-0.5768-4.5546-1.598-7.0955-3.6806-8.4662-1.628-1.0715-3.8451-1.105-7.2102-0.71292 5.0492-3.774 0.0136-3.5436-2.3555-3.1065" stroke-width="1.5"/>
   <g>
    <path d="m69.179 150.05c-2.0233 30.174 35.305 45.822 69.573 42.109"/>
    <path d="m96.342 179.7c15.179 7.0871 30.893 9.2857 46.387 8.1518"/>
    <path d="m97.382 174.5c35.653 13.962 44.023 2.1193 45.442 12.971"/>
    <path d="m101.37 169.98c12.28 3.9386 25.784 6.8106 38.461 6.8308"/>
    <path d="m102.48 164.86c10.993 3.1943 25.043 7.1721 35.048 6.3564"/>
    <path d="m106.08 160.32c8.9326 2.0631 20.292 4.7071 27.299 4.183"/>
   </g>
  </g>
  <g stroke="#000000">
   <g>
    <path d="m135.18 166.84c-1.9611-3.0757 2.8437-8.2208-0.32932-10.056 1.392 2.1664 0.29681 4.444-1.3842 7.172" fill="#000000" stroke-linecap="round"/>
    <path d="m94.035 142.1c5.4388 3.9856 6.0899 12.539 0.22296 12.548 2.5147 1.4028 1.1501 9.128-5.312 8.7376 3.7171 2.4926 2.8937 10.003-4.7488 9.551" fill="none" stroke-linecap="round"/>
    <path d="m105.27 154.61c1.1094 5.5435 0.86007 6.9279-4.744 8.2854 1.6663 5.9555 1.3179 8.2883-4.6104 8.9869 1.2147 3.7144 1.6793 7.2603-4.9111 9.2208 2.5324 0.70524 5.7517-0.97121 7.2831-0.60136-2.1276-2.7702-0.67036-5.1869 2.205-4.8777-5.2954-2.0478 0.80046-5.1102 7.2163-3.7084-1.8707-0.56786-3.9671-1.0682-5.1879-1.8928-0.69378-0.46863 0.22845-1.9567 0.0479-2.9114-0.16439-0.86949 0.34315-0.83347 0.96383-1.8108 0.35431-3.345 2.9467-4.1226 5.1784-4.1093-1.5852-1.4493-1.975-5.0809-3.4411-6.5815z" fill="#000000" stroke-width=".26458px"/>
   </g>
   <g>
    <path d="m85.177 230.44c1.0917-0.35628 2.1057-0.54131 3.1659-0.70876" fill="none" stroke-linecap="round"/>
    <path d="m70.151 239.67c3.7631-1.2879 7.8308-1.6073 11.373-3.5099-1.8895 1.8076-4.1823 3.4385-6.5028 5.0306" fill="none" stroke-linecap="round"/>
    <path d="m88.183 221.36c-0.93787-0.74899-2.4964-0.16307-3.3903-1.414l3.1538-0.16341" fill="#000000" stroke-linecap="square" stroke-linejoin="round"/>
   </g>
  </g>
 </g>
</svg>
