<!-- Created with Inkscape (http://www.inkscape.org/) -->
<svg xmlns:rdf="http://www.w3.org/1999/02/22-rdf-syntax-ns#" xmlns="http://www.w3.org/2000/svg" height="377" width="325" version="1.0" xmlns:cc="http://creativecommons.org/ns#" xmlns:dc="http://purl.org/dc/elements/1.1/">
 <metadata>
  <rdf:RDF>
   <cc:Work rdf:about="">
    <dc:format>image/svg+xml</dc:format>
    <dc:type rdf:resource="http://purl.org/dc/dcmitype/StillImage"/>
    <dc:title/>
   </cc:Work>
  </rdf:RDF>
 </metadata>
 <defs>
  <style type="text/css">.fil8 {fill:none;fill-rule:nonzero}
    .fil0 {fill:black;fill-rule:nonzero}
    .fil7 {fill:white;fill-rule:nonzero}
    .fil1 {fill:#000099;fill-rule:nonzero}
    .fil6 {fill:#660000;fill-rule:nonzero}
    .fil4 {fill:#8A8A01;fill-rule:nonzero}
    .fil3 {fill:#939301;fill-rule:nonzero}
    .fil5 {fill:red;fill-rule:nonzero}
    .fil2 {fill:#FFCC00;fill-rule:nonzero}</style>
  <style type="text/css">.str4 {stroke:black;stroke-width:1.13778}
    .str3 {stroke:black;stroke-width:1.13808}
    .str2 {stroke:black;stroke-width:1.13818}
    .str8 {stroke:black;stroke-width:1.13828}
    .str6 {stroke:black;stroke-width:1.13848}
    .str5 {stroke:black;stroke-width:1.13858}
    .str7 {stroke:black;stroke-width:1.13878}
    .str1 {stroke:black;stroke-width:1.13888}
    .str0 {stroke:black;stroke-width:2.40736}
    .fil0 {fill:#0000DC}
    .fil2 {fill:red}
    .fil1 {fill:#FFF000}
    .fil4 {fill:#FFF020}
    .fil3 {fill:#FFF02D}
    .fil5 {fill:black;fill-rule:nonzero}</style>
  <style type="text/css">.str4 {stroke:black;stroke-width:1.13778}
    .str3 {stroke:black;stroke-width:1.13808}
    .str2 {stroke:black;stroke-width:1.13818}
    .str8 {stroke:black;stroke-width:1.13828}
    .str6 {stroke:black;stroke-width:1.13848}
    .str5 {stroke:black;stroke-width:1.13858}
    .str7 {stroke:black;stroke-width:1.13878}
    .str1 {stroke:black;stroke-width:1.13888}
    .str0 {stroke:black;stroke-width:2.40736}
    .fil0 {fill:#0000DC}
    .fil2 {fill:red}
    .fil1 {fill:#FFF000}
    .fil4 {fill:#FFF020}
    .fil3 {fill:#FFF02D}
    .fil5 {fill:black;fill-rule:nonzero}</style>
  <style type="text/css">.fil8 {fill:none;fill-rule:nonzero}
    .fil0 {fill:black;fill-rule:nonzero}
    .fil7 {fill:white;fill-rule:nonzero}
    .fil1 {fill:#000099;fill-rule:nonzero}
    .fil6 {fill:#660000;fill-rule:nonzero}
    .fil4 {fill:#8A8A01;fill-rule:nonzero}
    .fil3 {fill:#939301;fill-rule:nonzero}
    .fil5 {fill:red;fill-rule:nonzero}
    .fil2 {fill:#FFCC00;fill-rule:nonzero}</style>
  <style type="text/css">.str4 {stroke:black;stroke-width:1.13778}
    .str3 {stroke:black;stroke-width:1.13808}
    .str2 {stroke:black;stroke-width:1.13818}
    .str8 {stroke:black;stroke-width:1.13828}
    .str6 {stroke:black;stroke-width:1.13848}
    .str5 {stroke:black;stroke-width:1.13858}
    .str7 {stroke:black;stroke-width:1.13878}
    .str1 {stroke:black;stroke-width:1.13888}
    .str0 {stroke:black;stroke-width:2.40736}
    .fil0 {fill:#0000DC}
    .fil2 {fill:red}
    .fil1 {fill:#FFF000}
    .fil4 {fill:#FFF020}
    .fil3 {fill:#FFF02D}
    .fil5 {fill:black;fill-rule:nonzero}</style>
  <style type="text/css">.fil8 {fill:none;fill-rule:nonzero}
    .fil0 {fill:black;fill-rule:nonzero}
    .fil7 {fill:white;fill-rule:nonzero}
    .fil1 {fill:#000099;fill-rule:nonzero}
    .fil6 {fill:#660000;fill-rule:nonzero}
    .fil4 {fill:#8A8A01;fill-rule:nonzero}
    .fil3 {fill:#939301;fill-rule:nonzero}
    .fil5 {fill:red;fill-rule:nonzero}
    .fil2 {fill:#FFCC00;fill-rule:nonzero}</style>
 </defs>
 <g transform="matrix(1.25,0,0,1.25,-0.52343525,0.29336181)">
  <path stroke-linejoin="miter" d="m3.1071,3.1029,253.23,0.38839,0,0,0,126.62-1.1652,57.094c-4.3698,30.11-16.732,53.874-37.114,74.355-24.524,24.644-56.323,37.078-91.056,37.502-63.595,0.77-124.28-60.84-124.28-113.41v-53.987l0.3884-128.56z" fill-rule="evenodd" stroke="#000" stroke-linecap="butt" stroke-miterlimit="4" stroke-dasharray="none" stroke-width="3" fill="#f4f0e8"/>
  <path d="m128.27,131.49-0.95482,166.07c53.567,2.5077,120.79-42.028,126.98-113.98l0.56212-51.941z" fill-rule="evenodd" fill="#dc281e"/>
  <g transform="matrix(0.3984651,0,0,0.4690453,-283.1557,-28.487036)" fill-rule="evenodd">
   <g transform="matrix(1.0800685,0,0,0.4880406,653.63713,156.69357)">
    <line x1="145.7" y1="40.542" x2="145.7" y2="40.447" class="fil8" fill="none"/>
    <line x1="148.06" y1="335.96" x2="148.06" y2="336.05" class="fil8" fill="none"/>
    <g fill-rule="evenodd" transform="matrix(3.248992,0,0,3.19535,97.24303,-19.43831)">
     <g transform="matrix(0.985801,0,0,0.976056,214.2653,2.925046)"></g>
    </g>
   </g>
   <rect height="270.58" width="87.339" y="68.809" x="989.81" fill="#000"/>
   <rect transform="matrix(-0.0015035,0.9999989,-1,-2.9719933e-4,0,0)" height="634.61" width="78.798" y="-1353.2" x="164.44" fill="#000"/>
   <g transform="matrix(0,0.6095445,-0.5744872,0,1246.7034,302.33397)">
    <line x1="145.7" y1="40.542" x2="145.7" y2="40.447" class="fil8" fill="none"/>
    <line x1="148.06" y1="335.96" x2="148.06" y2="336.05" class="fil8" fill="none"/>
    <g fill-rule="evenodd" transform="matrix(3.248992,0,0,3.19535,97.24303,-19.43831)">
     <g transform="matrix(0.985801,0,0,0.976056,214.2653,2.925046)"></g>
    </g>
   </g>
  </g>
  <path stroke-linejoin="round" d="m159.81,263.47c1.9974,1.8837,4.7701,4.5588,4.069,6.617-0.0235,0.0689-5.9946,8.0547-5.2146,8.4545,3.3051,1.6942,0.56524,5.6178-0.34309,5.3635,3.0498-0.76479,4.4432-1.5036,4.9278-3.2779,1.2021-4.4011,2.9756-7.3185,4.2974-6.6007,1.2154,0.66003-0.091,6.5648,0.58337,6.8315,2.8832,1.1404,0.53948,3.5934,0.12193,4.3574,2.4064,0.61562,4.0545-2.5002,3.6716-3.6491,1.3532,0,0.7598-5.3611,0.17661-5.4669-1.2581-0.22826,1.353-1.7899,1.7938-1.2531,2.4496,2.9833,3.7964,3.5437,4.4796,2.9479,1.1174-0.97438,3.5778,0.69855,2.5086,3.021-0.23718,0.51519,2.8178-1.4907,1.4902-4.3544-0.7189-1.5508-0.71385-1.978-3.1903-2.9284-4.1778-1.6032-4.2416-4.0119-3.7826-4.0884,3.1984,0.28067,5.4124-0.0431,5.3964,0.75188,1.5291-1.7521,5.5191,1.5563,5.311,2.8026,0.80267,0.22826-1.2009-5.4795-3.0718-6.8214-1.7317-1.2421-6.3983-0.51317-10.468-0.55098-3.072-0.0285-2.5192-0.49418-6.444-4.1246-3.9198-3.6258-7.1974-8.748-8.1646-9.323-1.437-0.85426-5.9232,3.0732-4.8626,4.2379,2.563,2.1152,6.7142,7.0537,6.7142,7.0537z" stroke="#000" stroke-miterlimit="4" stroke-dasharray="none" stroke-width="1.5" fill="#0039a6"/>
  <path d="m159.07,157.54c1.2138,0.0103,5.0759-0.17349,6.8578,0.59828,0.98166,0.42517,3.0574,2.029,4.4033,2.0446,2.5455,0.0296,7.932-2.6054,6.9054-2.4934-0.87271,0.0952-5.2362-0.20109-6.2274-0.50248-1.0301-0.3132-2.445-3.2459-7.1003-2.5081-0.60072,0.0952-6.0527,2.8509-4.8388,2.8611z" stroke="#000" stroke-miterlimit="4" stroke-dasharray="none" stroke-width="1.5" fill="#0039a6"/>
  <path d="m128.04,297.59c0.55758-0.79307,6.0094-7.9813,7.7597-12.503,1.3021-3.3642,14.25,5.6914,14.25,4.5858-0.26086,0.0348,0.51596-2.8956-5.1325-7.1321-5.6484-4.2365-11.497-33.658-2.0017-32.619,9.4949,1.0388,2.8587,15.648,5.7865,14.947,1.6643-7.6274,6.5047-14.536,16.865-14.081-13.914-4.3293-17.551-14.218-18.785-23.724-0.79168-6.0955,5.0797-16.698,8.5044-22.402,35.972,53.528,45.374,46.126,52.154,46.615-6.966-5.3821-29.174-30.557-34.953-40.406-2.669-5.4335,2.9876-4.1724,4.1543-2.1455,8.8847,10.483,31.858,32.683,46.178,28.067-9.9539-6.0254-26.791-19.897-36.203-32.093-3.2263-3.1013,0.50051-5.7622,4.2473-2.2189,4.2828,4.6397,30.95,24.988,42.041,19.838-0.23591,0.65231-32.625-22.335-36.878-27.146-2.2461-1.6423,0.91969-3.9202,2.0984-2.9539,9.799,5.748,20.102,9.508,25.327,10.587,4.2289,0.87327,22.359,4.4053,17.798-1.3518-7.5766-2.6938-31.392-11.723-36.42-17.074-1.0902-1.0223-0.27989-3.6333,2.5327-3.0421,8.2638,3.6306,21.51,5.3642,28.685,4.7683,2.7943-0.23209,12.868-3.6589,10.219-4.5887-12.369-1.2058-23.669-4.2461-35.671-8.7082-1.6932-0.52264-0.53395-3.3742,1.4318-3.1525,7.6133-0.62791,29.419,4.4524,35.89-2.7057-11.005-2.5889-22.93-2.6792-33.64-6.702-1.832-0.23976-0.84509-3.0211,0.28119-3.0849,0.79248-0.0449,17.636-0.29994,20.062-0.72454,12.34-2.1594,14.13-2.022,12.58-5.6104-11.795-0.7697-26.79-3.331-31.841-4.9838-9.256-3.0287-14.412-5.887-18.65-4.7521-2.1194,0.56748-4.9671,2.2623-5.7285,4.6898-0.82652,2.635-0.18821,6.1321,3.6485,9.2747,3.3343,2.731,2.196,11.625,0.83628,14.245-3.0784,5.9302-7.5415,8.8161-11.552,11.124-1.7927,1.0316-14.839-1.275-20.89-0.20514-1.5752,0.27853-5.8395,5.4748-6.4557,4.4268-0.88278-1.5013-1.2528-7.0256-4.113-7.1772-3.4844-0.18466-4.0298-7.6648,2.3475-11.69,5.7044-3.4341,8.994,0.48719,12.838-3.6082-10.294,1.1137-9.3014-5.3343-5.1011-9.052,1.1658-1.2073,11.01-1.699,13.179,2.0192,1.8659-0.23154,1.0325-8.5205-2.5674-11.446-2.8218-2.0837-6.5548,1.8925-6.7719,2.0476,0,0-1.3702-1.8759-5.7854-4.657-7.961-0.47277-27.933,6.2086-22.037,6.9143,1.1713,0.1048,5.529,4.1732,1.9202,5.3863-1.1871,0.39905-11.784,19.042-11.274,15.638l-0.59,1.44s-0.58259,130.66-0.58259,127.11z" stroke="#000" stroke-miterlimit="4" stroke-dasharray="none" stroke-width="1.5" fill="#f4f0e8"/>
  <path stroke-linejoin="round" d="m156.01,148.1-0.38329-2.6899c1.8849-0.67451,6.9788-0.19438,6.9788-0.19438,0,0.245-4.6112,3.8008-6.5955,2.8843z" stroke="#000" stroke-miterlimit="4" stroke-dasharray="none" stroke-width="1.5" fill="none"/>
  <path d="m81.594,135.84c-2.5983-0.0581-5.2491,0.88944-5.6562,3.125l-0.0625,10.219-6.25,0.0312-0.125-8.3125-6.75-0.0312,0.0625,5.5938h-4.875l-0.0625-5.5938h-6.75l-0.03125,17.406,6.5938,0.125,0.03125-6.4062,4.875,0.0625-0.03125,6.5,5.9062-0.0312,0.125,5.5h-5.5312l-0.0625,6h-5.4062v-5.8125h-6.5v17.688l6.4688,0.0312v-5.5312l5.5312-0.0625,0.03125,5.5312,6.4688-0.0625-0.125-8.9688,5.6562,0.0312-0.0625,49.062c-0.04141-0.00092-0.08331,0-0.125,0-2.4437,0-4.4375,1.6065-4.4375,3.5625s1.9938,3.5312,4.4375,3.5312c0.15797,0,0.31504-0.0183,0.46875-0.0312l-0.09375,2.1562-11.656,11.688v0.0625c-1.4193-1.5714-3.5524-2.5625-5.9375-2.5625-4.2699,0-7.75,3.2066-7.75,7.1562s3.4801,7.1563,7.75,7.1562c2.2725,0,4.3031-0.93008,5.7188-2.375l10.153,11.47c-0.8659,1.1556-1.375,2.551-1.375,4.0625,0,3.9496,3.4489,7.1562,7.7188,7.1562s7.75-3.2066,7.75-7.1562c0-1.6435-0.61668-3.1666-1.625-4.375l10.5-10.344c1.3183,0.96467,3.0023,1.5625,4.8125,1.5625,4.2699,0,7.7188-3.2066,7.7188-7.1562s-3.4489-7.1562-7.7188-7.1562c-1.7427,0-3.3625,0.53692-4.6562,1.4375l-9.693-10.03,0.063-2.75c0.1734,0.0165,0.35231,0.0312,0.53125,0.0312,2.4437,0,4.4062-1.5753,4.4062-3.5312,0-1.956-1.9626-3.5625-4.4062-3.5625-0.3402,0-0.68176,0.0668-1,0.125l0.28125-77.594,0.03125-5.6562c-0.21975-1.8334-2.7454-2.9106-5.3438-2.9688zm-0.875,103.91,7.8438,8.5-8.6875,7.9688-7.8125-8.2812,8.6562-8.1875z" stroke="#000" stroke-dasharray="none" stroke-miterlimit="4" stroke-width="1.5" fill="#0039a6"/>
  <path stroke-linejoin="miter" d="m2.6987,131.25,253.13,0" stroke="#000" stroke-linecap="butt" stroke-miterlimit="4" stroke-dasharray="none" stroke-width="1.5" fill="none"/>
  <path stroke-linejoin="miter" d="m128.46,170.12,0-40.21" stroke="#000" stroke-linecap="butt" stroke-miterlimit="4" stroke-dasharray="none" stroke-width="1.5" fill="none"/>
 </g>
</svg>
