<?xml version="1.0" encoding="UTF-8" standalone="no"?>
<svg
   xmlns:dc="http://purl.org/dc/elements/1.1/"
   xmlns:cc="http://creativecommons.org/ns#"
   xmlns:rdf="http://www.w3.org/1999/02/22-rdf-syntax-ns#"
   xmlns:svg="http://www.w3.org/2000/svg"
   xmlns="http://www.w3.org/2000/svg"
   xmlns:sodipodi="http://sodipodi.sourceforge.net/DTD/sodipodi-0.dtd"
   xmlns:inkscape="http://www.inkscape.org/namespaces/inkscape"
   height="542"
   width="432"
   id="svg3336"
   version="1.1"
   inkscape:version="0.91 r13725"
   sodipodi:docname="Rieslasingen-Worblingen.svg">
  <metadata
     id="metadata3399">
    <rdf:RDF>
      <cc:Work
         rdf:about="">
        <dc:format>image/svg+xml</dc:format>
        <dc:type
           rdf:resource="http://purl.org/dc/dcmitype/StillImage" />
        <dc:title></dc:title>
      </cc:Work>
    </rdf:RDF>
  </metadata>
  <sodipodi:namedview
     pagecolor="#ffffff"
     bordercolor="#666666"
     borderopacity="1"
     objecttolerance="10"
     gridtolerance="10"
     guidetolerance="10"
     inkscape:pageopacity="0"
     inkscape:pageshadow="2"
     inkscape:window-width="1535"
     inkscape:window-height="876"
     id="namedview3397"
     showgrid="true"
     inkscape:snap-global="true"
     inkscape:object-paths="true"
     inkscape:snap-intersection-paths="true"
     inkscape:object-nodes="true"
     inkscape:snap-smooth-nodes="true"
     inkscape:snap-midpoints="true"
     inkscape:zoom="1.3996221"
     inkscape:cx="289.79834"
     inkscape:cy="251.97184"
     inkscape:window-x="65"
     inkscape:window-y="24"
     inkscape:window-maximized="1"
     inkscape:current-layer="svg3336"
     units="px">
    <inkscape:grid
       type="xygrid"
       id="grid4288" />
  </sodipodi:namedview>
  <defs
     id="defs3338">
    <path
       id="SVGCleanerId_0"
       d="M 91.69,69.63 70.425,67.696 61.641,87.159 52.684,67.775 31.437,69.899 43.745,52.45 31.282,35.111 52.547,37.045 61.331,17.582 70.288,36.966 91.535,34.842 79.227,52.291 91.69,69.63"
       inkscape:connector-curvature="0"
       style="fill:#fcdd09;stroke:#000000;stroke-width:3.5309999;stroke-linecap:round;stroke-linejoin:round" />
  </defs>
  <path
     style="fill:#0f47af;fill-rule:evenodd;stroke:none;stroke-width:1px;stroke-linecap:butt;stroke-linejoin:miter;stroke-opacity:1"
     d="m 146,6 0,515 C 66,491 6,411 6,321 L 6,6 Z"
     id="path4670"
     inkscape:connector-curvature="0"
     sodipodi:nodetypes="ccccc" />
  <path
     sodipodi:nodetypes="ccccc"
     inkscape:connector-curvature="0"
     id="path4672"
     d="m 286,6 0,515 C 366,491 426,411 426,321 L 426,6 Z"
     style="fill:#da121a;fill-rule:evenodd;stroke:#00ff00;stroke-width:1px;stroke-linecap:butt;stroke-linejoin:miter;stroke-opacity:1" />
  <path
     style="fill:#fcdd09;fill-rule:evenodd;stroke:none;stroke-width:1px;stroke-linecap:butt;stroke-linejoin:miter;stroke-opacity:1"
     d="m 146,6 0,515 c 50,20 95,20 140,0 L 286,6 Z"
     id="path4674"
     inkscape:connector-curvature="0"
     sodipodi:nodetypes="ccccc" />
  <path
     style="fill:#ffffff;fill-rule:evenodd;stroke:#000000;stroke-width:3;stroke-linecap:round;stroke-linejoin:round;stroke-miterlimit:4;stroke-dasharray:none;stroke-opacity:1"
     d="m 307.38259,439.76501 c 8.74964,-36.0072 11.75258,-80.95148 1.76825,-110.38895 -2.85388,4.1529 -6.33745,6.4167 -9.85165,8.58861 9.40856,-14.58749 10.04037,-31.42557 5.80995,-67.44589 -2.6844,-22.85656 12.90862,-15.70457 14.14595,-8.0834 3.5793,22.04619 17.84762,10.19241 19.45068,-7.8308 1.45924,-16.40622 0.93034,-25.92305 -0.75781,-37.63834 -2.10567,-14.61273 -14.37619,-25.96804 -12.88293,-7.57819 1.00509,12.37798 -19.84477,13.01584 -20.71371,-11.11468 -0.75038,-20.83815 16.23883,-52.00013 -2.52607,-74.26625 4.45673,-0.75201 8.91346,0.60089 13.37018,3.53648 1.50829,-25.29183 0.46035,-49.30555 -3.74575,-71.740192 22.32232,11.97863 23.24383,46.181162 21.13225,83.533452 11.7144,-14.64632 20.63773,-32.422 10.41815,-71.660955 28.84749,14.986085 20.1808,54.769665 10.10425,95.485185 15.13411,-13.86691 24.00623,-36.08313 29.04973,-63.40418 15.47263,17.92195 11.3113,59.80522 -21.72414,93.21174 14.95572,-1.38726 28.74403,-11.33559 41.68004,-27.5341 0.82249,26.78733 -16.35724,40.15772 -36.88052,50.26866 20.87973,3.65099 29.00287,-6.60312 42.18526,-19.45069 -4.20281,15.60667 -5.25943,32.37246 -34.10185,38.90138 28.38606,-3.10452 35.54786,14.22529 37.38572,30.81797 -11.54478,-13.34764 -25.92895,-19.31289 -44.2061,-15.15638 32.55633,11.29061 46.82604,39.76098 34.35446,63.40418 -8.69677,-22.68264 -21.41801,-44.39115 -47.48998,-56.58381 25.00054,35.74538 48.26168,80.42392 25.26063,111.39939 -2.0242,-30.91634 -9.60839,-55.5154 -26.52367,-67.44589 9.64153,35.40948 13.67865,90.32255 -13.64074,109.63114 5.63503,-45.08698 5.83152,-75.96109 -9.09383,-94.22216 2.45486,40.04087 8.75104,109.07493 -21.97675,122.76667 z"
     id="path4676"
     inkscape:connector-curvature="0"
     sodipodi:nodetypes="cccssssssccccccccccccccccccccc" />
  <g
     id="g4920"
     transform="translate(-4,-2)">
    <path
       sodipodi:nodetypes="csssssssccssssssc"
       inkscape:connector-curvature="0"
       id="path4750"
       d="m 82.443807,81.95562 c -5.623449,7.66935 -4.20996,12.43805 2.143436,18.93368 13.391026,13.6908 3.849336,27.62858 -8.573743,32.15154 C 61.530352,138.31381 40.161211,130.36979 38.503375,100.53206 37.547901,83.33544 49.536249,65.417263 73.512825,62.307457 95.954656,59.39671 113.95598,72.58537 118.52497,89.1004 c 7.7618,28.05569 -6.15054,40.61625 -17.14748,50.37075 C 94.465999,145.60177 83.07547,156.00028 83,166 l 0,271 -12,0 0,-276 c 0,-15 17.693068,-25.60038 29.30577,-36.53291 9.62452,-9.06079 9.19791,-30.15674 0,-40.0108 -8.363076,-8.95967 -21.752285,-13.91353 -35.009449,-6.43031 -14.796799,8.3523 -20.290942,25.17068 -14.289571,35.36669 10.743235,18.2522 37.40001,8.4354 21.434357,-5.35859 -10.455916,-9.03368 -6.385809,-24.13229 10.0027,-26.07846 z"
       style="fill:#fcdd09;fill-rule:evenodd;stroke:#000000;stroke-width:3;stroke-linecap:round;stroke-linejoin:round;stroke-miterlimit:4;stroke-dasharray:none;stroke-opacity:1" />
    <path
       sodipodi:nodetypes="csscsssc"
       inkscape:connector-curvature="0"
       id="path4752"
       d="m 76.844983,146.19333 c 15.532422,15.58355 44.021047,27.12358 38.107597,50.79334 -7.48787,29.9717 -44.101176,47.88821 -62.159634,75.37749 -25.07222,38.1659 2.944803,62.2583 18.207054,75.73472 -9.054412,-16.62966 -24.530489,-28.11678 -9.633311,-62.87411 6.73267,-15.70832 28.352257,-31.81334 45.369391,-48.58454 10.72247,-10.56751 26.45421,-24.67135 18.2192,-46.44111 -9.11531,-24.09687 -31.7035,-34.43006 -48.110297,-44.00579 z"
       style="fill:#fcdd09;fill-rule:evenodd;stroke:#000000;stroke-width:3;stroke-linecap:round;stroke-linejoin:round;stroke-miterlimit:4;stroke-dasharray:none;stroke-opacity:1" />
    <path
       sodipodi:nodetypes="ccccc"
       inkscape:connector-curvature="0"
       id="path4754"
       d="m 83,338.21727 c 15.590814,3.55227 26.81938,10.32745 34.9487,22.22936 -3.03128,8.43994 -6.06255,12.056 -9.09383,16.67202 C 101.39483,363.26322 93.801252,356.2685 83,351.1002 Z"
       style="fill:#fcdd09;fill-rule:evenodd;stroke:#000000;stroke-width:3;stroke-linecap:round;stroke-linejoin:round;stroke-miterlimit:4;stroke-dasharray:none;stroke-opacity:1" />
    <path
       sodipodi:nodetypes="ccccc"
       inkscape:connector-curvature="0"
       id="rect4756"
       d="m 63,203 26,0 0,13 -26,0 z"
       style="color:#000000;clip-rule:nonzero;display:inline;overflow:visible;visibility:visible;opacity:1;isolation:auto;mix-blend-mode:normal;color-interpolation:sRGB;color-interpolation-filters:linearRGB;solid-color:#000000;solid-opacity:1;fill:#fcdd09;fill-opacity:1;fill-rule:evenodd;stroke:#000000;stroke-width:3;stroke-linecap:round;stroke-linejoin:round;stroke-miterlimit:4;stroke-dasharray:none;stroke-dashoffset:0;stroke-opacity:1;color-rendering:auto;image-rendering:auto;shape-rendering:auto;text-rendering:auto;enable-background:accumulate" />
    <path
       sodipodi:nodetypes="ccccc"
       inkscape:connector-curvature="0"
       id="rect4758"
       d="m 63,167 26,0 0,13 -26,0 z"
       style="color:#000000;clip-rule:nonzero;display:inline;overflow:visible;visibility:visible;opacity:1;isolation:auto;mix-blend-mode:normal;color-interpolation:sRGB;color-interpolation-filters:linearRGB;solid-color:#000000;solid-opacity:1;fill:#fcdd09;fill-opacity:1;fill-rule:evenodd;stroke:#000000;stroke-width:3;stroke-linecap:round;stroke-linejoin:round;stroke-miterlimit:4;stroke-dasharray:none;stroke-dashoffset:0;stroke-opacity:1;color-rendering:auto;image-rendering:auto;shape-rendering:auto;text-rendering:auto;enable-background:accumulate" />
    <path
       sodipodi:nodetypes="cccccccccc"
       inkscape:connector-curvature="0"
       d="m 108.85487,377.11865 c 2.61244,4.38513 5.22488,9.83497 7.83731,16.24082 m -5.12286,-20.26198 c 2.57351,5.4779 5.14702,10.91831 7.72053,16.72088 m -5.37848,-20.47344 c 2.46705,4.78792 4.9341,10.25201 7.40115,16.04758 m -5.21144,-20.3501 c 2.53534,5.3185 5.00968,10.69801 7.21144,16.3501 m -5.36382,-20.94588 c 2.45461,4.75029 4.90922,10.17977 7.36382,16.94588"
       style="fill:none;fill-rule:evenodd;stroke:#000000;stroke-width:3;stroke-linecap:round;stroke-linejoin:round;stroke-miterlimit:4;stroke-dasharray:none;stroke-opacity:1"
       id="path4770" />
  </g>
  <path
     style="fill:none;fill-rule:evenodd;stroke:#000000;stroke-width:6;stroke-linecap:round;stroke-linejoin:round;stroke-miterlimit:4;stroke-dasharray:none;stroke-opacity:1"
     d="M 425.74831,331.09431 426,6 6,6 6,321 c 0,105 100,215 210,215 110,0 209.74831,-99.90569 209.74831,-204.90569 z"
     id="path4269"
     inkscape:connector-curvature="0"
     sodipodi:nodetypes="cccczc" />
  <g
     id="g4894"
     transform="translate(5e-6,0)">
    <g
       transform="translate(26,45)"
       id="g4741">
      <path
         transform="matrix(0.98250726,0.18622431,-0.18622431,0.98250726,35.194593,-35.316052)"
         style="color:#000000;clip-rule:nonzero;display:inline;overflow:visible;visibility:visible;opacity:1;isolation:auto;mix-blend-mode:normal;color-interpolation:sRGB;color-interpolation-filters:linearRGB;solid-color:#000000;solid-opacity:1;fill:#078930;fill-opacity:1;fill-rule:evenodd;stroke:#000200;stroke-width:3;stroke-linecap:round;stroke-linejoin:round;stroke-miterlimit:4;stroke-dasharray:none;stroke-dashoffset:0;stroke-opacity:1;color-rendering:auto;image-rendering:auto;shape-rendering:auto;text-rendering:auto;enable-background:accumulate"
         inkscape:transform-center-x="0.32934518"
         inkscape:transform-center-y="-6.8183126"
         d="m 231.78515,236.93856 -29.3483,-0.17961 -27.24701,10.90667 -8.87824,-27.93065 -18.81272,-22.57985 23.90909,-17.16959 15.57227,-24.77468 23.55808,17.35793 28.53371,7.22958 -9.24518,27.89794 z"
         id="path4680"
         inkscape:connector-curvature="0"
         sodipodi:nodetypes="ccccccccccc" />
      <path
         style="fill:#da121a;fill-rule:evenodd;stroke:#000000;stroke-width:3;stroke-linecap:round;stroke-linejoin:round;stroke-miterlimit:4;stroke-dasharray:none;stroke-opacity:1"
         d="m 192.8357,190.52711 c -2.8357,-21.94237 18.76616,-33.76957 25.96578,-29.16893 7.19962,4.60064 0.87234,30.00021 -19.67314,33.77701"
         id="path4730"
         inkscape:connector-curvature="0"
         sodipodi:nodetypes="czc" />
      <path
         sodipodi:nodetypes="czc"
         inkscape:connector-curvature="0"
         id="path4732"
         d="m 187.40828,190.52711 c 2.8357,-21.94237 -18.76616,-33.76957 -25.96578,-29.16893 -7.19962,4.60064 -0.87234,30.00021 19.67314,33.77701"
         style="fill:#da121a;fill-rule:evenodd;stroke:#000000;stroke-width:3;stroke-linecap:round;stroke-linejoin:round;stroke-miterlimit:4;stroke-dasharray:none;stroke-opacity:1" />
      <path
         style="fill:#da121a;fill-rule:evenodd;stroke:#000000;stroke-width:3;stroke-linecap:round;stroke-linejoin:round;stroke-miterlimit:4;stroke-dasharray:none;stroke-opacity:1"
         d="m 179.15182,200.43424 c -19.99914,-9.46273 -37.91036,7.44026 -35.75359,15.70759 2.15676,8.26734 28.26977,10.07939 38.19707,-8.30077"
         id="path4734"
         inkscape:connector-curvature="0"
         sodipodi:nodetypes="czc" />
      <path
         sodipodi:nodetypes="czc"
         inkscape:connector-curvature="0"
         id="path4736"
         d="m 200.84817,200.43425 c 19.99914,-9.46273 37.91036,7.44026 35.75359,15.70759 -2.15676,8.26734 -28.26977,10.07939 -38.19707,-8.30077"
         style="fill:#da121a;fill-rule:evenodd;stroke:#000000;stroke-width:3;stroke-linecap:round;stroke-linejoin:round;stroke-miterlimit:4;stroke-dasharray:none;stroke-opacity:1" />
      <path
         style="fill:#da121a;fill-rule:evenodd;stroke:#000000;stroke-width:3;stroke-linecap:round;stroke-linejoin:round;stroke-miterlimit:4;stroke-dasharray:none;stroke-opacity:1"
         d="m 193.57682,211.04392 c 15.29089,15.99055 4.90463,38.32099 -3.62084,38.88364 -8.52549,0.56268 -18.48627,-23.64385 -4.1786,-38.86461"
         id="path4738"
         inkscape:connector-curvature="0"
         sodipodi:nodetypes="czc" />
      <circle
         style="color:#000000;clip-rule:nonzero;display:inline;overflow:visible;visibility:visible;opacity:1;isolation:auto;mix-blend-mode:normal;color-interpolation:sRGB;color-interpolation-filters:linearRGB;solid-color:#000000;solid-opacity:1;fill:#da121a;fill-opacity:1;fill-rule:evenodd;stroke:#000000;stroke-width:3;stroke-linecap:round;stroke-linejoin:round;stroke-miterlimit:4;stroke-dasharray:none;stroke-dashoffset:0;stroke-opacity:1;color-rendering:auto;image-rendering:auto;shape-rendering:auto;text-rendering:auto;enable-background:accumulate"
         id="path4728"
         cx="190"
         cy="201"
         r="10.85" />
    </g>
    <g
       transform="translate(26,185)"
       id="g4773">
      <path
         sodipodi:nodetypes="ccccccccccc"
         inkscape:connector-curvature="0"
         id="path4775"
         d="m 231.78515,236.93856 -29.3483,-0.17961 -27.24701,10.90667 -8.87824,-27.93065 -18.81272,-22.57985 23.90909,-17.16959 15.57227,-24.77468 23.55808,17.35793 28.53371,7.22958 -9.24518,27.89794 z"
         inkscape:transform-center-y="-6.8183126"
         inkscape:transform-center-x="0.32934518"
         style="color:#000000;clip-rule:nonzero;display:inline;overflow:visible;visibility:visible;opacity:1;isolation:auto;mix-blend-mode:normal;color-interpolation:sRGB;color-interpolation-filters:linearRGB;solid-color:#000000;solid-opacity:1;fill:#078930;fill-opacity:1;fill-rule:evenodd;stroke:#000200;stroke-width:3;stroke-linecap:round;stroke-linejoin:round;stroke-miterlimit:4;stroke-dasharray:none;stroke-dashoffset:0;stroke-opacity:1;color-rendering:auto;image-rendering:auto;shape-rendering:auto;text-rendering:auto;enable-background:accumulate"
         transform="matrix(0.98250726,0.18622431,-0.18622431,0.98250726,35.194593,-35.316052)" />
      <path
         sodipodi:nodetypes="czc"
         inkscape:connector-curvature="0"
         id="path4777"
         d="m 192.8357,190.52711 c -2.8357,-21.94237 18.76616,-33.76957 25.96578,-29.16893 7.19962,4.60064 0.87234,30.00021 -19.67314,33.77701"
         style="fill:#da121a;fill-rule:evenodd;stroke:#000000;stroke-width:3;stroke-linecap:round;stroke-linejoin:round;stroke-miterlimit:4;stroke-dasharray:none;stroke-opacity:1" />
      <path
         style="fill:#da121a;fill-rule:evenodd;stroke:#000000;stroke-width:3;stroke-linecap:round;stroke-linejoin:round;stroke-miterlimit:4;stroke-dasharray:none;stroke-opacity:1"
         d="m 187.40828,190.52711 c 2.8357,-21.94237 -18.76616,-33.76957 -25.96578,-29.16893 -7.19962,4.60064 -0.87234,30.00021 19.67314,33.77701"
         id="path4779"
         inkscape:connector-curvature="0"
         sodipodi:nodetypes="czc" />
      <path
         sodipodi:nodetypes="czc"
         inkscape:connector-curvature="0"
         id="path4781"
         d="m 179.15182,200.43424 c -19.99914,-9.46273 -37.91036,7.44026 -35.75359,15.70759 2.15676,8.26734 28.26977,10.07939 38.19707,-8.30077"
         style="fill:#da121a;fill-rule:evenodd;stroke:#000000;stroke-width:3;stroke-linecap:round;stroke-linejoin:round;stroke-miterlimit:4;stroke-dasharray:none;stroke-opacity:1" />
      <path
         style="fill:#da121a;fill-rule:evenodd;stroke:#000000;stroke-width:3;stroke-linecap:round;stroke-linejoin:round;stroke-miterlimit:4;stroke-dasharray:none;stroke-opacity:1"
         d="m 200.84817,200.43425 c 19.99914,-9.46273 37.91036,7.44026 35.75359,15.70759 -2.15676,8.26734 -28.26977,10.07939 -38.19707,-8.30077"
         id="path4783"
         inkscape:connector-curvature="0"
         sodipodi:nodetypes="czc" />
      <path
         sodipodi:nodetypes="czc"
         inkscape:connector-curvature="0"
         id="path4785"
         d="m 193.57682,211.04392 c 15.29089,15.99055 4.90463,38.32099 -3.62084,38.88364 -8.52549,0.56268 -18.48627,-23.64385 -4.1786,-38.86461"
         style="fill:#da121a;fill-rule:evenodd;stroke:#000000;stroke-width:3;stroke-linecap:round;stroke-linejoin:round;stroke-miterlimit:4;stroke-dasharray:none;stroke-opacity:1" />
      <circle
         r="10.85"
         cy="201"
         cx="190"
         id="circle4787"
         style="color:#000000;clip-rule:nonzero;display:inline;overflow:visible;visibility:visible;opacity:1;isolation:auto;mix-blend-mode:normal;color-interpolation:sRGB;color-interpolation-filters:linearRGB;solid-color:#000000;solid-opacity:1;fill:#da121a;fill-opacity:1;fill-rule:evenodd;stroke:#000000;stroke-width:3;stroke-linecap:round;stroke-linejoin:round;stroke-miterlimit:4;stroke-dasharray:none;stroke-dashoffset:0;stroke-opacity:1;color-rendering:auto;image-rendering:auto;shape-rendering:auto;text-rendering:auto;enable-background:accumulate" />
    </g>
    <g
       transform="translate(26,-95)"
       id="g4789">
      <path
         sodipodi:nodetypes="ccccccccccc"
         inkscape:connector-curvature="0"
         id="path4791"
         d="m 231.78515,236.93856 -29.3483,-0.17961 -27.24701,10.90667 -8.87824,-27.93065 -18.81272,-22.57985 23.90909,-17.16959 15.57227,-24.77468 23.55808,17.35793 28.53371,7.22958 -9.24518,27.89794 z"
         inkscape:transform-center-y="-6.8183126"
         inkscape:transform-center-x="0.32934518"
         style="color:#000000;clip-rule:nonzero;display:inline;overflow:visible;visibility:visible;opacity:1;isolation:auto;mix-blend-mode:normal;color-interpolation:sRGB;color-interpolation-filters:linearRGB;solid-color:#000000;solid-opacity:1;fill:#078930;fill-opacity:1;fill-rule:evenodd;stroke:#000200;stroke-width:3;stroke-linecap:round;stroke-linejoin:round;stroke-miterlimit:4;stroke-dasharray:none;stroke-dashoffset:0;stroke-opacity:1;color-rendering:auto;image-rendering:auto;shape-rendering:auto;text-rendering:auto;enable-background:accumulate"
         transform="matrix(0.98250726,0.18622431,-0.18622431,0.98250726,35.194593,-35.316052)" />
      <path
         sodipodi:nodetypes="czc"
         inkscape:connector-curvature="0"
         id="path4793"
         d="m 192.8357,190.52711 c -2.8357,-21.94237 18.76616,-33.76957 25.96578,-29.16893 7.19962,4.60064 0.87234,30.00021 -19.67314,33.77701"
         style="fill:#da121a;fill-rule:evenodd;stroke:#000000;stroke-width:3;stroke-linecap:round;stroke-linejoin:round;stroke-miterlimit:4;stroke-dasharray:none;stroke-opacity:1" />
      <path
         style="fill:#da121a;fill-rule:evenodd;stroke:#000000;stroke-width:3;stroke-linecap:round;stroke-linejoin:round;stroke-miterlimit:4;stroke-dasharray:none;stroke-opacity:1"
         d="m 187.40828,190.52711 c 2.8357,-21.94237 -18.76616,-33.76957 -25.96578,-29.16893 -7.19962,4.60064 -0.87234,30.00021 19.67314,33.77701"
         id="path4795"
         inkscape:connector-curvature="0"
         sodipodi:nodetypes="czc" />
      <path
         sodipodi:nodetypes="czc"
         inkscape:connector-curvature="0"
         id="path4797"
         d="m 179.15182,200.43424 c -19.99914,-9.46273 -37.91036,7.44026 -35.75359,15.70759 2.15676,8.26734 28.26977,10.07939 38.19707,-8.30077"
         style="fill:#da121a;fill-rule:evenodd;stroke:#000000;stroke-width:3;stroke-linecap:round;stroke-linejoin:round;stroke-miterlimit:4;stroke-dasharray:none;stroke-opacity:1" />
      <path
         style="fill:#da121a;fill-rule:evenodd;stroke:#000000;stroke-width:3;stroke-linecap:round;stroke-linejoin:round;stroke-miterlimit:4;stroke-dasharray:none;stroke-opacity:1"
         d="m 200.84817,200.43425 c 19.99914,-9.46273 37.91036,7.44026 35.75359,15.70759 -2.15676,8.26734 -28.26977,10.07939 -38.19707,-8.30077"
         id="path4799"
         inkscape:connector-curvature="0"
         sodipodi:nodetypes="czc" />
      <path
         sodipodi:nodetypes="czc"
         inkscape:connector-curvature="0"
         id="path4801"
         d="m 193.57682,211.04392 c 15.29089,15.99055 4.90463,38.32099 -3.62084,38.88364 -8.52549,0.56268 -18.48627,-23.64385 -4.1786,-38.86461"
         style="fill:#da121a;fill-rule:evenodd;stroke:#000000;stroke-width:3;stroke-linecap:round;stroke-linejoin:round;stroke-miterlimit:4;stroke-dasharray:none;stroke-opacity:1" />
      <circle
         r="10.85"
         cy="201"
         cx="190"
         id="circle4803"
         style="color:#000000;clip-rule:nonzero;display:inline;overflow:visible;visibility:visible;opacity:1;isolation:auto;mix-blend-mode:normal;color-interpolation:sRGB;color-interpolation-filters:linearRGB;solid-color:#000000;solid-opacity:1;fill:#da121a;fill-opacity:1;fill-rule:evenodd;stroke:#000000;stroke-width:3;stroke-linecap:round;stroke-linejoin:round;stroke-miterlimit:4;stroke-dasharray:none;stroke-dashoffset:0;stroke-opacity:1;color-rendering:auto;image-rendering:auto;shape-rendering:auto;text-rendering:auto;enable-background:accumulate" />
    </g>
  </g>
  <path
     id="path4807"
     style="fill:none;fill-rule:evenodd;stroke:#000000;stroke-width:3;stroke-linecap:round;stroke-linejoin:round;stroke-miterlimit:4;stroke-dasharray:none;stroke-opacity:1"
     d="m 353.35695,257.63586 c 4.96414,-1.46821 13.00831,1.29862 13.13552,-6.82037 -3.19968,-6.58855 -6.39936,-7.14931 -9.59904,-9.34644 7.83948,-1.02928 16.16126,-1.64516 19.45025,-6.57486 -6.48341,-3.16451 -12.96683,-7.23349 -19.45025,-6.56066 4.99828,-3.54422 9.91995,-7.11143 8.33601,-12.63032 -2.14655,-3.72222 -9.22678,-3.49749 -14.39856,-4.79952 6.22278,-5.97835 9.4388,-11.95669 9.59904,-17.93504 1.92415,-14.53742 -9.81254,-3.85481 -15.66159,-4.04171 4.13564,-8.24937 9.33611,-16.23254 8.336,-25.76585 -7.56733,-13.46428 -12.00652,6.98627 -17.17723,13.89335 4.29135,-13.51277 7.57714,-26.85067 -3.34517,-37.71758 -5.8335,2.46451 -6.75562,14.75177 -8.77993,24.83466 1.70706,-16.51605 1.04537,-30.80269 -8.60657,-36.62792 m -6.04459,201.83246 c 10.40518,-11.84205 16.44051,-24.1982 15.40898,-37.38574 3.83315,8.33601 5.67902,16.67201 4.79952,25.00802 9.44674,-7.15181 8.86267,-17.64723 6.31516,-28.79712 5.47314,6.49912 10.94627,14.00925 16.41941,13.38814 0.29606,-9.69566 -5.82882,-17.55676 -9.85164,-26.01845 9.6481,3.20919 15.88939,1.2763 20.99058,-3.09651"
     inkscape:connector-curvature="0"
     sodipodi:nodetypes="ccccccccccccccccccccc" />
  <path
     style="fill:none;fill-rule:evenodd;stroke:#000000;stroke-width:3;stroke-linecap:round;stroke-linejoin:round;stroke-miterlimit:4;stroke-dasharray:none;stroke-opacity:1"
     d="m 146,6 0,515"
     id="path4812"
     inkscape:connector-curvature="0" />
  <path
     inkscape:connector-curvature="0"
     id="path4814"
     d="m 286,6 0,515"
     style="fill:none;fill-rule:evenodd;stroke:#000000;stroke-width:3;stroke-linecap:round;stroke-linejoin:round;stroke-miterlimit:4;stroke-dasharray:none;stroke-opacity:1" />
</svg>
