<?xml version="1.0" encoding="UTF-8" standalone="no"?>
<svg
   xmlns:dc="http://purl.org/dc/elements/1.1/"
   xmlns:cc="http://creativecommons.org/ns#"
   xmlns:rdf="http://www.w3.org/1999/02/22-rdf-syntax-ns#"
   xmlns:svg="http://www.w3.org/2000/svg"
   xmlns="http://www.w3.org/2000/svg"
   xmlns:sodipodi="http://sodipodi.sourceforge.net/DTD/sodipodi-0.dtd"
   xmlns:inkscape="http://www.inkscape.org/namespaces/inkscape"
   width="968.92993"
   height="1060.3849"
   viewBox="0 0 968.93395 1060.3877"
   version="1.1"
   id="svg1652"
   sodipodi:docname="DEU_Roden_COA.svg"
   inkscape:version="0.92.5 (2060ec1f9f, 2020-04-08)">
  <metadata
     id="metadata1658">
    <rdf:RDF>
      <cc:Work
         rdf:about="">
        <dc:format>image/svg+xml</dc:format>
        <dc:type
           rdf:resource="http://purl.org/dc/dcmitype/StillImage" />
        <dc:title />
      </cc:Work>
    </rdf:RDF>
  </metadata>
  <defs
     id="defs1656" />
  <sodipodi:namedview
     pagecolor="#ffffff"
     bordercolor="#666666"
     borderopacity="1"
     objecttolerance="10"
     gridtolerance="10"
     guidetolerance="10"
     inkscape:pageopacity="0"
     inkscape:pageshadow="2"
     inkscape:window-width="1920"
     inkscape:window-height="1046"
     id="namedview1654"
     showgrid="false"
     inkscape:zoom="0.74784164"
     inkscape:cx="484.46496"
     inkscape:cy="530.19243"
     inkscape:window-x="-11"
     inkscape:window-y="-11"
     inkscape:window-maximized="1"
     inkscape:current-layer="svg1652"
     inkscape:snap-global="true"
     fit-margin-top="0"
     fit-margin-left="0"
     fit-margin-right="0"
     fit-margin-bottom="0"
     inkscape:snap-midpoints="true"
     inkscape:snap-smooth-nodes="true" />
  <path
     style="fill:#fcdd09;fill-opacity:1;fill-rule:evenodd;stroke:none;stroke-width:11.00004578;stroke-linecap:round;stroke-linejoin:round;stroke-miterlimit:4;stroke-dasharray:none;stroke-opacity:1"
     inkscape:connector-curvature="0"
     d="m 963.43392,5.499204 -2.1899,633.749026 C 950.58232,890.90825 739.92972,1054.7475 484.46692,1054.8885 229.23392,1054.5794 18.50252,890.66881 7.6898205,639.24823 L 5.5000205,5.499204 H 484.45542 Z"
     id="path10563-0-6-2-6-4-6"
     sodipodi:nodetypes="ccccccc" />
  <g
     id="g913"
     transform="translate(1100.1429)">
    <path
       d="m -401.48458,59.361212 10.984,23.836 v 54.249998 h -54.25 l -23.836,-10.986 v 88.82 l 23.836,-10.986 h 54.25 v 54.25 l -10.984,23.836 h 88.82 l -10.984,-23.836 v -54.25 h 54.25 l 23.836,10.986 v -88.82 l -23.836,10.986 h -54.25 V 83.197212 l 10.984,-23.836 h -88.82"
       id="path1632"
       inkscape:connector-curvature="0" />
    <path
       d="m -273.57458,289.17121 c -22.767,0.198 -45.52,9.676 -66.65,18.488 -34.38,14.34 -84.41,47.19 -118.54,70.863 v -0.641 -87.08 l -111.23,88.2 c -1.428,12.32 -0.563,28.18 -0.563,41.572 l 28.65,-17.42 v 447.37 l -24.25,41.984 h 131.65 l -24.25,-41.988 v -417.62 c 28.02,-19.258 69.66,-46.979 97.19,-61.21 17.917,-9.26 36.03,-23.309 56.18,-22.471 6.694,0.278 13.539,3.97 17.977,8.988 8.161,9.229 11.187,22.567 12.359,34.83 1.19,12.443 -3.215,24.81 -5.617,37.08 -10.769,54.982 -26.04,108.99 -39.38,163.4 -18.744,76.49 -55.42,150.51 -57.11,229.24 -0.357,16.635 -0.076,35.65 9.978,48.908 9.412,12.412 26.07,19.775 41.57,21.348 16.634,1.688 34.3,-4.356 48.31,-13.482 18.282,-11.909 30.13,-31.984 41.572,-50.559 11.172,-18.13 25.842,-58.43 25.842,-58.43 0,0 -11.998,4.459 -17.977,6.742 -6.757,2.581 -14.08,4.051 -20.225,7.865 -9.911,6.151 -16.11,17.17 -25.842,23.594 -7.554,4.985 -16.874,15.751 -24.719,11.236 -3.262,-1.878 -0.936,-7.477 -1.123,-11.236 -0.28,-5.611 -0.844,-11.299 0,-16.854 14.02,-92.29 59.58,-177.08 83.14,-267.4 12.759,-48.899 35.451,-97.93 31.459,-148.31 -1.648,-20.8 -8.445,-42.975 -22.471,-58.42 -14.07,-15.501 -35.38,-25.661 -56.18,-28.09 -3.248,-0.379 -6.5,-0.54 -9.752,-0.512"
       id="path1634"
       inkscape:connector-curvature="0" />
    <path
       d="m -526.72458,399.79121 v 438.18"
       id="path1636"
       inkscape:connector-curvature="0"
       style="fill:none;fill-rule:evenodd;stroke:#ffffff;stroke-width:7;stroke-linecap:round" />
    <path
       d="m -260.44458,375.08121 c 0,0 0.369,22.687 -1.166,33.883 -10.897,79.45 -36.34,156.24 -56.764,233.8 -13.07,49.607 -42.07,148.04 -42.07,148.04"
       id="path1638"
       inkscape:connector-curvature="0"
       style="fill:none;fill-rule:evenodd;stroke:#ffffff;stroke-width:7;stroke-linecap:round" />
  </g>
  <path
     style="opacity:1;fill:#078930;fill-opacity:1;fill-rule:evenodd;stroke:#000000;stroke-width:7.99999905;stroke-linecap:round;stroke-linejoin:round;stroke-miterlimit:4;stroke-dasharray:none;stroke-opacity:1;paint-order:fill markers stroke"
     d="M 5.5 5.5 L 7.6894531 639.24609 C 18.439477 889.20933 226.79934 1052.6684 480.03516 1054.8574 C 482.53061 1054.5985 484.46484 1052.5017 484.46484 1049.9355 L 484.46484 5.5 L 484.45312 5.5 L 5.5 5.5 z "
     transform="matrix(1.0000041,0,0,1.0000041,0,-7.9266896e-4)"
     id="rect891" />
  <g
     id="g917"
     transform="translate(1052.0179)">
    <path
       d="m -802.78458,50.885212 c -2.892,0.044 -5.903,1.087 -8.279,2.576 -4.556,2.856 -5.704,9.179 -9.27,13.203 -2.506,2.828 -6.165,4.556 -8.426,7.584 -2.605,3.49 -4.657,7.548 -5.617,11.797 -0.784,3.47 2.293,7.954 0,10.674 -2.143,2.542 -6.694,2.786 -9.832,1.686 -3.192,-1.119 -4.335,-5.206 -6.74,-7.584 -3.351,-3.313 -6.166,-7.898 -10.674,-9.27 -4.333,-1.318 -8.974,1.25 -13.482,1.686 -4.11,0.397 -8.65,-0.973 -12.359,0.842 -3.157,1.545 -5.405,4.746 -7.02,7.865 -1.904,3.669 -1.352,8.209998 -2.809,12.079998 -1.048,2.783 -2.643,5.339 -4.213,7.865 -1.275,2.052 -3.908,3.501 -4.213,5.898 -0.329,2.587 2.209,4.764 2.809,7.303 0.67,2.838 1.551,5.879 0.842,8.707 -0.657,2.62 -1.975,5.768 -4.494,6.742 -5.401,2.088 -11.305,-2.549 -16.852,-4.213 -3.517,-1.055 -6.765,-4.211 -10.395,-3.652 -0.925,0.143 -1.567,1.041 -2.246,1.686 -1.06,1.01 -1.887,2.235 -2.809,3.371 -1.428,1.76 -2.135,4.435 -4.215,5.336 -4.053,1.756 -9.09,-2.742 -13.201,-1.123 -2.467,0.972 -4.158,3.523 -5.336,5.898 -2.032,4.096 -3.984,9.148 -2.529,13.482 0.886,2.639 5.84,2.854 6.18,5.617 0.33,2.68 -3.767,4.141 -4.494,6.742 -1.186,4.242 -1.103,9.123 0.563,13.201 0.952,2.332 3.927,3.365 5.057,5.617 1.499,2.987 -0.044,7.161 1.965,9.832 3.424,4.551 9.509,7.227 15.168,7.865 2.595,0.293 4.983,-1.732 7.584,-1.967 2.525,-0.227 5.456,-0.814 7.584,0.563 2.146,1.388 3.571,4.186 3.652,6.74 0.086,2.68 -2.68,4.712 -3.371,7.303 -1.09,4.087 0.118,8.597 -1.123,12.641 -0.849,2.765 -1.84,5.932 -4.213,7.584 -2.02,1.407 -4.846,1.261 -7.305,1.123 -4.649,-0.26 -9.166,-1.905 -13.482,-3.65 -2.875,-1.163 -5.074,-4.929 -8.145,-4.494 -1.049,0.148 -1.217,2 -2.248,2.246 -2.305,0.544 -4.425,-1.748 -6.74,-2.246 -3.588,-0.772 -7.32,-1.634 -10.955,-1.125 -4.993,0.699 -9.583,3.272 -14.05,5.619 -2.689,1.414 -5.716,2.659 -7.58402,5.05 -2.749,3.527 -3.864,8.214 -4.494,12.641 -1.124,7.893 -1.425,16.422 1.404,23.875 1.988,5.236 6.37002,9.305 10.39302,13.201 3.174,3.075 6.871,5.613 10.674,7.865 2.487,1.473 5.408,2.13 7.865,3.652 3.567,2.21 6.776,4.989 9.832,7.865 1.931,1.817 5.765,3.282 5.336,5.898 -0.434,2.647 -5.43,1.772 -7.02,3.932 -2.669,3.622 -0.223,9.519 -2.809,13.201 -2.344,3.338 -6.632,4.886 -10.395,6.461 -5.153,2.157 -11.281,1.463 -16.291,3.934 -2.806,1.384 -5.95402,3.075 -7.30302,5.898 -1.292,2.703 0.295,6.01 0,8.988 -0.329,3.326 -0.923,6.655 -1.967,9.83 -1.517,4.616 -6.772,8.379 -6.18,13.201 0.706,5.747 6.702,9.555 10.955,13.484 3.75802,3.472 8.09302,6.363 12.64102,8.707 2.922,1.507 6.472,1.645 9.27,3.371 1.973,1.217 4.641,2.493 5.05,4.773 0.874,4.821 -3.818,9.08 -6.459,13.203 -3.516,5.493 -9.217,9.453 -12.359,15.168 -2.853,5.189 -4.475,11.04 -5.617,16.854 -1.086,5.524 -1.345,11.226 -1.125,16.852 0.178,4.538 -0.337,9.568 1.967,13.482 3.524,5.987 10.396,9.46 16.572,12.641 5.924,3.051 12.616,7.435 19.1,5.898 3.157,-0.748 3.905,-5.844 7.02,-6.74 4.412,-1.268 9.139,1.321 13.482,2.809 4.437,1.52 7.994,5.527 12.639,6.18 7.439,1.046 15.11,-1.437 22.19,-3.934 5.138,-1.81 9.743,-4.917 14.324,-7.863 6.19,-3.981 11.671,-8.979 17.697,-13.203 3.487,-2.445 6.665,-8.46 10.674,-7.02 5.073,1.821 2.79,10.437 4.773,15.449 1.572,3.972 2.332,8.788 5.619,11.516 2.989,2.48 7.958,1 11.234,3.09 2.802,1.783 5.453,4.42 6.461,7.584 1.597,5.02 -1.533,10.468 -1.404,15.73 0.083,3.402 1.034,6.728 1.404,10.111 2.042,18.674 4.525,37.39 4.494,56.18 -0.009,5.637 -0.428,11.301 -1.404,16.854 -0.991,5.637 -2.688,11.141 -4.494,16.572 -1.684,5.065 -5.02,9.621 -5.898,14.887 -0.646,3.884 -0.162,7.927 0.561,11.797 0.489,2.619 1.716,5.05 2.529,7.584 0.389,1.213 0.938,2.392 1.123,3.652 1.833,12.507 0.59,25.31 -0.281,37.92 -0.644,9.327 1.994,20.354 -3.65,27.807 -1.292,1.705 -3.772,2.293 -5.898,2.529 -4.07,0.451 -7.988,-2.459 -12.08,-2.248 -5.947,0.307 -11.928,2.166 -17.13,5.057 -5.914,3.283 -10.147,8.95 -15.168,13.482 -3.394,3.064 -5.87,7.56 -10.111,9.27 -3.561,1.436 -7.68,0.134 -11.518,0.279 -3.654,0.138 -7.924,-1.482 -10.955,0.563 -3.681,2.483 -3.427,8.216 -5.617,12.08 -1.563,2.756 -2.689,6.124 -5.336,7.865 -3.743,2.463 -8.743,2.104 -13.203,2.527 -2.051,0.195 -4.264,0.757 -6.18,0 -1.91,-0.755 -2.879,-2.945 -4.494,-4.213 -2.02,-1.587 -4.01,-4.988 -6.459,-4.213 -1.442,0.456 -1.711,2.7 -1.686,4.213 0.07,4.192 2.498,8.193 5.05,11.516 4.307,5.597 9.852,11.04 16.574,13.203 5.443,1.754 11.416,-0.703 17.13,-0.844 3.65,-0.09 7.555,-1.331 10.955,0 4.75,1.86 7.674,6.741 11.236,10.393 2.177,2.232 3.5,5.426 6.178,7.02 1.073,0.64 2.77,-0.043 3.652,0.842 2.374,2.379 0.782,6.807 2.248,9.832 2.149,4.435 6.426,7.49 9.268,11.516 0.824,1.168 2.703,2.298 2.248,3.652 -0.576,1.714 -3.252,1.851 -5.057,1.965 -3.853,0.243 -7.394,-2.414 -11.234,-2.809 -4.661,-0.479 -9.833,-1.489 -14.04,0.563 -4.419,2.152 -6.9,7.095 -9.551,11.234 -1.559,2.434 -3.417,4.984 -3.65,7.865 -0.196,2.423 0,5.592 1.965,7.02 1.969,1.435 5.278,1.071 7.305,-0.281 2.23,-1.488 0.901,-6.257 3.369,-7.303 3.653,-1.548 7.922,1.75 11.236,3.932 3.93,2.587 5.683,7.713 9.551,10.393 3.902,2.703 8.621,6.583 13.201,5.338 2.964,-0.806 3.27,-5.324 5.617,-7.305 1.376,-1.162 2.978,-2.422 4.775,-2.527 3.107,-0.183 6.337,1.354 8.707,3.371 3.387,2.883 4.02,7.995 6.742,11.516 1.538,1.991 4.19,3.098 5.336,5.338 1.599,3.124 1.111,6.93 1.686,10.393 0.824,4.965 0.424,10.315 2.529,14.887 1.529,3.321 3.873,6.567 7.02,8.426 4.68,2.763 10.664,4.073 16.01,3.09 2.274,-0.418 4.368,-1.917 5.898,-3.65 1.636,-1.853 3.405,-4.291 3.09,-6.742 -0.51,-3.96 -5.393,-5.933 -7.584,-9.27 -1.793,-2.73 -4.298,-5.447 -4.494,-8.707 -0.258,-4.288 4.12,-7.799 4.494,-12.08 0.407,-4.647 -0.359,-9.634 -2.527,-13.764 -2.524,-4.807 -8.715,-6.865 -11.516,-11.516 -0.657,-1.091 -1.294,-2.39 -1.125,-3.652 0.441,-3.295 3.562,-5.615 5.338,-8.426 2.72,-4.304 5.994,-8.307 8.145,-12.922 1.038,-2.228 1.38,-4.722 2.248,-7.02 0.578,-1.53 0.36,-4.191 1.967,-4.494 1.822,-0.344 3.02,2.318 3.932,3.932 1.902,3.359 -0.116,8.717 2.809,11.236 2.209,1.903 5.916,-0.003 8.707,0.842 4.37,1.322 9.155,2.953 12.08,6.461 3.146,3.776 1.937,9.848 4.496,14.04 2.137,3.505 6.195,5.461 8.707,8.707 1.13,1.46 3.065,2.947 2.809,4.775 -0.376,2.689 -4.12,3.566 -5.898,5.617 -4.97,5.732 -9.986,11.668 -13.201,18.539 -2.503,5.348 -4.073,11.245 -4.494,17.13 -0.235,3.29 0.481,6.595 1.123,9.83 0.398,2.01 -0.289,5.366 1.686,5.898 3.261,0.879 5.267,-4.327 7.303,-7.02 4.924,-6.516 5.996,-15.609 11.516,-21.629 5.809,-6.336 15.901,-7.635 21.629,-14.04 4.185,-4.683 6.553,-10.856 8.426,-16.852 0.395,-1.264 -0.702,-3.542 0.563,-3.934 2.912,-0.901 3.608,5.105 6.18,6.742 4.471,2.847 10.284,2.717 15.168,4.775 5.288,2.229 9.776,6.179 15.168,8.145 9.886,3.603 20.437,7.606 30.896,6.461 3.166,-0.347 6.825,-1.364 8.709,-3.932 1.395,-1.901 1.671,-4.816 0.842,-7.02 -0.886,-2.358 -3.354,-3.949 -5.617,-5.057 -3.332,-1.631 -8.01,0.291 -10.955,-1.965 -2.959,-2.267 -2.393,-7.246 -4.775,-10.113 -1.328,-1.599 -3.084,-2.989 -5.05,-3.65 -4.084,-1.37 -8.705,0.601 -12.922,-0.281 -3.37,-0.705 -6.829,-1.824 -9.551,-3.932 -1.481,-1.147 -1.911,-3.32 -3.369,-4.494 -2.806,-2.26 -6.375,-3.48 -9.832,-4.494 -2.541,-0.745 -5.794,0.525 -7.865,-1.125 -1.02,-0.813 -0.368,-2.858 -1.404,-3.65 -2.916,-2.23 -7.343,-0.471 -10.955,-1.123 -2.19,-0.396 -4.48,-0.668 -6.459,-1.686 -1.951,-1 -3.514,-2.655 -5.057,-4.215 -2.293,-2.318 -5.349,-4.431 -6.18,-7.584 -1.137,-4.317 0.239,-9.215 2.248,-13.201 2.92,-5.795 9.505,-8.917 13.482,-14.04 1.417,-1.827 3.953,-3.606 3.65,-5.898 -0.554,-4.203 -6.171,-5.811 -9.268,-8.707 -2.71,-2.534 -7.508,-3.93 -8.146,-7.584 -0.634,-3.63 2.778,-6.934 5.057,-9.83 1.683,-2.139 3.577,-4.534 6.178,-5.338 4.771,-1.475 10.443,-0.589 14.889,1.686 3.717,1.902 5.03,6.834 8.426,9.27 2.657,1.907 7.621,0.961 8.988,3.932 0.941,2.045 -0.735,4.577 -1.967,6.461 -1.889,2.89 -6.508,3.566 -7.863,6.742 -1.325,3.105 -0.161,6.813 0.561,10.111 0.71,3.244 3.312,5.966 3.652,9.27 0.341,3.307 -0.37,6.776 -1.686,9.83 -1.296,3.01 -4.927,4.735 -5.898,7.865 -0.667,2.148 -1.388,5.235 0.281,6.742 2.298,2.074 6.797,1.3 9.27,-0.563 3.809,-2.868 2.579,-9.25 4.773,-13.482 1.268,-2.445 2.473,-5.232 4.775,-6.742 3.44,-2.256 8.519,-0.465 12.08,-2.527 1.951,-1.131 3.403,-3.083 4.494,-5.057 1.133,-2.048 -0.004,-5.478 1.967,-6.74 3.747,-2.399 8.763,2.28 13.201,1.967 3.605,-0.255 6.836,-2.448 10.393,-3.09 4.064,-0.733 8.518,-2.358 12.359,-0.844 5.485,2.162 6.9,10.1 12.08,12.922 4.178,2.275 9.333,3.181 14.04,2.527 4.231,-0.587 7.79,-3.528 11.516,-5.617 3.489,-1.957 8.259,-2.917 10.113,-6.461 1.129,-2.159 1.35,-5.493 -0.281,-7.303 -1.773,-1.967 -5.511,0.088 -7.865,-1.125 -4.827,-2.488 -7.367,-7.987 -11.236,-11.797 -2.361,-2.324 -4.217,-5.534 -7.303,-6.74 -4.098,-1.602 -8.907,-0.963 -13.201,0 -3.637,0.816 -6.397,5.091 -10.111,4.775 -3.416,-0.29 -6.02,-3.456 -8.428,-5.9 -2.932,-2.981 -3.691,-7.865 -7.02,-10.393 -3.302,-2.506 -7.804,-2.818 -11.797,-3.932 -5.732,-1.598 -13.804,0.798 -17.416,-3.932 -2.56,-3.352 2.445,-8.867 0.563,-12.641 -4.51,-9.04 -15.256,-14.468 -25,-17.13 -5.431,-1.486 -11.764,3.531 -16.854,1.123 -3.64,-1.723 -4.618,-6.599 -7.02,-9.83 -2.191,-2.945 -5.333,-5.317 -6.74,-8.707 -4.489,-10.811 -3.099,-23.21 -4.494,-34.83 -1.01,-8.418 -2.36,-16.815 -2.811,-25.281 -1.134,-21.318 -0.124,-42.697 0.281,-64.04 0.265,-13.956 -1.423,-28.18 1.404,-41.854 0.57,-2.758 2.356,-5.144 3.09,-7.863 0.641,-2.378 1.49,-4.869 1.125,-7.305 -0.446,-2.982 -2.666,-5.409 -3.934,-8.145 -1.939,-4.183 -5.925,-8.04 -5.617,-12.641 0.191,-2.852 2.55,-5.207 4.494,-7.303 4.56,-4.916 11.588,-7.02 16.291,-11.797 4.01,-4.073 6.802,-9.2 9.832,-14.04 1.533,-2.452 1.913,-5.831 4.213,-7.584 2.836,-2.161 7.773,-4.946 10.393,-2.527 1.742,1.608 -0.416,4.759 -1.123,7.02 -0.775,2.478 -3.808,4.464 -3.371,7.02 0.534,3.133 4.153,4.895 6.74,6.74 3.477,2.48 8.362,2.739 11.518,5.617 2.266,2.067 2.439,5.878 4.775,7.865 3.231,2.749 7.573,4.379 11.797,4.775 4.753,0.446 9.746,-0.733 14.04,-2.809 2.872,-1.387 4.245,-5.274 7.303,-6.18 5.701,-1.689 11.817,1.349 17.695,2.246 2.633,0.402 5.311,0.653 7.865,1.406 3.02,0.891 5.592,3.201 8.707,3.65 4.196,0.605 8.743,0.263 12.641,-1.404 3.483,-1.49 5.522,-5.252 8.707,-7.303 2.01,-1.292 5.267,-1.023 6.461,-3.09 1.832,-3.171 -1.099,-7.302 -0.844,-10.955 0.274,-3.921 1.159,-7.832 2.529,-11.516 0.891,-2.395 3.297,-4.211 3.65,-6.742 0.358,-2.565 -0.931,-5.107 -1.686,-7.584 -0.674,-2.212 -2.446,-4.148 -2.527,-6.459 -0.055,-1.569 0.904,-3.01 1.404,-4.496 0.793,-2.358 3.256,-4.643 2.527,-7.02 -1.257,-4.1 -7.451,-4.463 -10.393,-7.584 -2.138,-2.268 -3.826,-5 -5.05,-7.865 -1.558,-3.631 -3.469,-7.62 -2.811,-11.516 0.316,-1.869 1.638,-3.556 3.09,-4.775 2.57,-2.159 6.913,-1.541 9.27,-3.932 3.833,-3.888 2.994,-10.735 6.18,-15.168 2.092,-2.911 7.227,-3.559 8.146,-7.02 1.223,-4.608 -2.523,-9.28 -4.775,-13.482 -1.327,-2.476 -3.944,-4.161 -5.057,-6.74 -1.958,-4.537 -0.153,-10.274 -2.527,-14.607 -4.873,-8.893 -16.632,-12.214 -22.471,-20.504 -3.214,-4.564 -6.562,-9.868 -6.461,-15.449 0.073,-4.02 1.966,-8.381 5.057,-10.955 3.193,-2.659 8.467,-1.032 12.08,-3.09 3.797,-2.163 5.394,-7.25 9.27,-9.268 1.434,-0.746 3.36,-0.063 4.775,-0.844 3.657,-2.02 7.226,-5.27 8.426,-9.27 0.871,-2.905 -0.401,-6.126 -1.404,-8.988 -0.749,-2.137 -2.51,-3.804 -3.371,-5.898 -1.105,-2.689 -0.766,-5.924 -2.246,-8.426 -1.517,-2.565 -4.89,-3.647 -6.461,-6.18 -1.655,-2.667 -1.359,-6.204 -2.809,-8.988 -1.911,-3.671 -4.04,-7.7 -7.584,-9.832 -3.826,-2.299 -8.74,-2.176 -13.203,-2.246 -2.741,-0.043 -5.501,0.4 -8.145,1.123 -3.036,0.831 -6,2.045 -8.707,3.652 -3.608,2.143 -5.712,8.663 -9.832,7.863 -3.375,-0.655 -4.507,-5.595 -5.057,-8.988 -0.473,-2.918 3.02,-6.069 1.686,-8.707 -1.871,-3.7 -7.819,-2.985 -11.234,-5.336 -2.346,-1.614 -5.289,-3.196 -6.18,-5.9 -0.684,-2.076 -0.449,-4.94 1.123,-6.459 2.447,-2.365 6.709,-1.45 10.111,-1.404 4.556,0.062 9.03,3.225 13.482,2.246 4.87,-1.072 9.557,-4.302 12.359,-8.426 2.158,-3.175 0.27,-8.133 2.529,-11.236 1.408,-1.934 4.564,-1.886 6.18,-3.65 1.612,-1.76 3.325,-4.085 3.09,-6.461 -0.323,-3.261 -4.711,-4.812 -5.9,-7.865 -0.683,-1.753 -0.835,-3.755 -0.561,-5.617 0.428,-2.907 4.381,-5.387 3.371,-8.146 -1.123,-3.067 -6.19,-2.415 -8.709,-4.494 -3.034,-2.504 -5.171,-5.964 -7.303,-9.27 -1.543,-2.393 -1.822,-5.671 -3.932,-7.584 -2.988,-2.709 -7.219,-4.853 -11.236,-4.494 -3.519,0.314 -6.386,3.227 -8.988,5.617 -1.724,1.583 -1.883,5.392 -4.213,5.619 -2.507,0.245 -3.335,-3.99 -5.617,-5.057 -2.999,-1.402 -7.094,0.456 -9.832,-1.404 -1.873,-1.273 -2.79,-3.71 -3.371,-5.898 -0.457,-1.719 -0.868,-3.785 0,-5.338 0.697,-1.248 2.593,-1.287 3.652,-2.246 1.833,-1.659 3.886,-3.502 4.494,-5.898 1.048,-4.133 -1.156,-8.455 -1.967,-12.641 -0.786,-4.058 -0.802,-8.464998 -2.809,-12.079998 -1.8,-3.241 -4.605,-6.099 -7.865,-7.865 -4.795,-2.598 -10.557,-3.289 -16.01,-3.369 -4.756,-0.07 -9.594,0.85 -14.04,2.527 -6.446,2.429 -10.821,10.232 -17.695,10.674 -2.552,0.164 -5.21,-1.285 -7.02,-3.09 -6.533,-6.508 -4.807,-18.669 -11.236,-25.279 -3.328,-3.423 -9.15,-3.253 -12.922,-6.18 -3.571,-2.77 -4.471,-8.817 -8.707,-10.393 -1.195,-0.444 -2.484,-0.631 -3.799,-0.611 m 31.795,145.669998 c 0.426,-0.009 0.851,0.004 1.275,0.043 1.659,0.151 3.869,0.548 4.549,2.068 0.944,2.109 -0.772,4.704 -2.068,6.617 -1.594,2.352 -5.206,2.907 -6.615,5.375 -1.382,2.421 -1.035,5.491 -1.242,8.271 -0.318,4.262 1.351,8.766 0,12.82 -1.526,4.577 -5.02,8.44 -8.684,11.58 -1.779,1.525 -3.867,3.488 -6.203,3.309 -1.374,-0.106 -2.692,-1.249 -3.309,-2.482 -2.034,-4.069 -0.496,-9.125 0,-13.646 0.416,-3.79 2.347,-7.356 2.48,-11.166 0.097,-2.786 -1.847,-5.551 -1.24,-8.271 0.433,-1.94 1.953,-3.509 3.309,-4.963 2.614,-2.803 5.649,-5.357 9.1,-7.03 2.685,-1.302 5.671,-2.463 8.65,-2.525 m 4.998,253.14 c 1.3,0.048 2.611,0.97 3.307,2.068 1.263,1.993 1.106,4.686 0.828,7.03 -0.328,2.772 -1.549,5.412 -2.895,7.857 -1.422,2.585 -2.976,5.317 -5.377,7.03 -0.71,0.506 -1.632,1.026 -2.48,0.826 -1.708,-0.403 -3.051,-2.102 -3.723,-3.723 -1.266,-3.057 -0.559,-6.663 0,-9.924 0.42,-2.449 0.857,-5.151 2.482,-7.03 1.936,-2.239 4.9,-4.244 7.857,-4.135 m -65.719,2.805 c 0.125,0.003 0.251,0.031 0.377,0.09 1.397,0.651 0.721,3.01 0.826,4.549 0.216,3.166 -0.133,6.35 -0.412,9.512 -0.367,4.156 -0.377,8.435 -1.654,12.406 -0.718,2.231 -1.173,5.237 -3.309,6.203 -2.193,0.992 -5.453,0.163 -7.03,-1.654 -1.997,-2.299 -0.374,-6.086 -0.826,-9.1 -0.398,-2.647 -1.472,-5.187 -1.654,-7.857 -0.132,-1.93 -0.683,-4.195 0.414,-5.789 1.294,-1.88 4.271,-1.68 6.203,-2.895 1.659,-1.043 2.935,-2.612 4.549,-3.723 0.801,-0.551 1.644,-1.764 2.518,-1.744 m -27.355,326.6 c 1.255,-0.014 2.506,0.047 3.746,0.193 3.638,0.429 8.394,0.618 10.34,3.721 1.399,2.231 0.384,5.521 -0.828,7.859 -1.349,2.602 -4.953,3.377 -6.617,5.789 -2.922,4.237 -5.228,9.33 -5.375,14.475 -0.161,5.623 3.868,10.61 4.963,16.13 0.863,4.346 3.274,9.298 1.24,13.234 -1.9,3.676 -6.755,5.133 -10.752,6.203 -3.462,0.927 -8.22,2.534 -10.754,0 -2.437,-2.437 2.665,-8.153 0,-10.338 -1.631,-1.337 -4.421,2.368 -6.203,1.24 -1.921,-1.216 -2.084,-4.385 -1.654,-6.617 0.579,-3.01 4.25,-4.597 5.377,-7.443 1.586,-4.01 3.68,-9.02 1.654,-12.82 -2.029,-3.809 -9.06,-2.283 -11.58,-5.789 -2.922,-4.07 -4.358,-10.433 -2.066,-14.889 2.99,-5.812 11.12,-7.188 17.369,-9.1 3.581,-1.094 7.375,-1.807 11.141,-1.848 m 47.811,28.705 c 1.979,0.046 4.11,0.565 5.975,0.85 2.026,0.309 4.03,1.026 5.791,2.068 4.12,2.434 8.651,5.212 10.752,9.512 0.97,1.986 1.65,4.785 0.414,6.617 -1.462,2.169 -4.916,3.145 -7.445,2.48 -3.776,-0.992 -4.472,-6.739 -7.857,-8.684 -2.321,-1.333 -5.259,-1.01 -7.857,-1.654 -1.948,-0.483 -4.744,0.059 -5.789,-1.654 -1.464,-2.401 -0.484,-6.446 1.654,-8.271 0.984,-0.84 2.204,-1.181 3.525,-1.252 0.275,-0.015 0.555,-0.018 0.838,-0.012"
       id="path1642"
       inkscape:connector-curvature="0"
       style="fill-rule:evenodd" />
    <path
       d="m -804.47458,61.369212 c -2.368,0.047 -4.966,1.398 -6.305,3.201 -1.855,2.499 0.977,6.453 -0.199,9.334 -1.133,2.775 -3.599,4.991 -6.156,6.555 -2.645,1.618 -7.07,0.104 -8.938,2.582 -2.029,2.699 -2.182,7.553 0,10.129 1.822,2.151 6.629,-0.848 8.342,1.391 1.213,1.585 0.576,4.343 -0.596,5.958998 -1.444,1.992 -6.575,0.525 -6.754,2.979 -0.199,2.73 4.321,3.611 6.951,4.369 1.272,0.367 3.36,-1.174 3.973,0 1.232,2.361 -3.039,4.374 -4.568,6.555 -0.791,1.128 -2.703,2.037 -2.383,3.377 0.296,1.239 2.206,1.286 3.377,1.787 2.502,1.071 5.03,2.511 7.746,2.582 3.227,0.084 6.764,-0.628 9.334,-2.582 1.844,-1.402 1.737,-4.55 3.576,-5.957 2.896,-2.216 7.283,-1.312 10.525,-2.98 2.639,-1.358 5.05,-3.287 6.953,-5.561 1.599,-1.907 3.354,-4.076 3.574,-6.554998 0.223,-2.502 -0.629,-5.352 -2.383,-7.15 -1.769,-1.814 -5.318,-0.832 -7.15,-2.582 -1.503,-1.435 -2.01,-3.716 -2.385,-5.76 -0.419,-2.28 1.34,-4.933 0.199,-6.951 -2.057,-3.639 -8.119,-3.059 -10.924,-6.158 -1.989,-2.198 -0.869,-6.931 -3.574,-8.143 -0.683,-0.306 -1.447,-0.435 -2.236,-0.42 m -61.689,28.773 c -0.608,0.032 -1.188,0.182 -1.713,0.48 -2.332,1.326 0.939,6.3 -1.166,7.963 -1.734,1.37 -4.4,-0.417 -6.604,-0.582 -4.204,-0.315 -9.151,-3.169 -12.623,-0.777 -2.681,1.847 -3.286,6.087998 -2.914,9.321998 0.292,2.537 4.164,4.065 3.885,6.604 -0.291,2.641 -3.274,4.285 -5.438,5.826 -1.558,1.11 -4.28,0.678 -5.244,2.33 -1.016,1.742 -0.689,4.457 0.582,6.02 1.368,1.685 4.869,0.239 6.215,1.941 2.294,2.902 -1.549,8.194 0.777,11.07 2.5,3.09 7.489,3.105 11.459,3.301 3.221,0.159 7.01,0.287 9.516,-1.748 1.464,-1.19 0.507,-4.292 2.137,-5.242 1.748,-1.019 4.01,0.971 6.02,0.775 1.63,-0.158 3.991,-0.059 4.662,-1.553 0.606,-1.349 -0.97,-2.82 -1.748,-4.078 -1.159,-1.876 -2.54,-3.688 -4.273,-5.05 -3.642,-2.862 -8.515,-3.735 -12.428,-6.215 -1.947,-1.234 -4.935,-2.02 -5.439,-4.271 -0.38,-1.695 0.759,-3.924 2.332,-4.662 2.829,-1.327 6.136,1.23 9.127,2.137 3.176,0.963 6.581,1.626 9.322,3.496 4.96,3.385 6.644,10.768 12.04,13.4 3.383,1.65 7.53,1.252 11.264,0.777 2.031,-0.258 4.831,-0.152 5.826,-1.941 1.359,-2.442 -0.054,-6.097 -1.941,-8.158 -2.074,-2.265 -6.387,-0.94 -8.74,-2.912 -1.976,-1.656 -2.586,-4.469 -3.689,-6.799 -0.808,-1.706 -0.697,-4.02 -2.137,-5.242 -3.139,-2.66 -9.505,0.522 -12.04,-2.719 -1.915,-2.448 1.896,-6.720998 0.195,-9.321998 -1.433,-2.191 -4.586,-4.309 -7.221,-4.172 m 147.67,3.939 c -0.895,0.013 -1.795,0.173 -2.564,0.426 -1.392,0.457 -2.332,1.865 -3.107,3.107 -1.16,1.858 -1.111,4.278998 -2.137,6.214998 -0.455,0.858 -0.847,1.969 -1.748,2.33 -1.828,0.732 -4.506,0.49 -5.826,-0.971 -1.349,-1.492 0.782,-4.383 -0.387,-6.019998 -0.978,-1.37 -2.979,-1.958 -4.662,-1.943 -1.131,0 -2.136,0.781 -3.107,1.359 -1.903,1.132 -3.766,2.428998 -5.244,4.077998 -1.319,1.472 -1.366,4.116 -3.107,5.05 -1.712,0.919 -3.926,0.211 -5.826,-0.195 -1.505,-0.322 -2.734,-1.682 -4.271,-1.748 -3.253,-0.139 -7.112,0.524 -9.322,2.914 -1.578,1.706 -0.97,4.547 -1.555,6.797 -0.407,1.566 -0.507,3.286 -1.359,4.662 -0.603,0.974 -1.409,2.068 -2.523,2.33 -1.576,0.37 -3.381,-0.371 -4.662,-1.359 -0.897,-0.692 -0.783,-2.321 -1.748,-2.914 -1.548,-0.951 -3.712,-0.958 -5.438,-0.389 -1.7,0.561 -3.272,1.897 -4.078,3.496 -0.818,1.623 0.219,3.725 -0.389,5.438 -0.529,1.489 -1.248,3.306 -2.719,3.885 -2.894,1.14 -6.326,-3.291 -9.129,-1.941 -1.304,0.628 -1.404,2.539 -1.941,3.883 -0.904,2.263 -0.444,5.239 -2.137,6.992 -1.379,1.429 -3.649,2.074 -5.631,1.943 -1.3,-0.086 -2.71,-0.709 -3.496,-1.748 -0.835,-1.104 -0.466,-2.732 -0.777,-4.08 -0.333,-1.438 0.007,-3.375 -1.166,-4.271 -1.955,-1.493 -5.179,-1.1 -7.379,0 -0.869,0.434 -1.293,1.472 -1.748,2.33 -0.931,1.754 -2.649,3.777 -1.941,5.633 0.661,1.733 3.214,1.851 4.854,2.719 1.407,0.745 3.062,1.104 4.273,2.137 2.365,2.02 3.632,5.04 5.438,7.574 1.43,2 2.204,4.688 4.273,6.02 1.441,0.928 3.386,0.556 5.05,0.971 1.709,0.426 3.362,2.061 5.05,1.555 2.731,-0.82 3.62,-4.408 5.439,-6.604 2.258,-2.726 4.747,-5.271 6.797,-8.156 1.53,-2.154 2.109,-5.04 4.078,-6.799 2.547,-2.28 6.06,-3.241 9.322,-4.271 4.08,-1.29 8.607,-0.852 12.623,-2.33 4.137,-1.523 7.633,-4.413 11.459,-6.604 3.296,-1.887 6.955,-3.24 9.904,-5.633 2.351,-1.907 3.521,-5.092 6.02,-6.797 2.335,-1.592 5.164,-3.304 7.963,-2.914 3.168,0.441 7.87,2.436 7.768,5.633 -0.093,2.908 -4.85,3.222 -7.379,4.66 -3.473,1.975 -7.521,2.995 -10.682,5.439 -2.394,1.852 -6.402,3.794 -6.02,6.797 0.393,3.099 4.821,4.207 7.768,5.244 2.206,0.776 4.745,-0.065 6.992,0.582 2.031,0.585 3.563,2.485 5.633,2.914 2.795,0.58 6.484,1.391 8.545,-0.584 1.693,-1.622 0.811,-4.646 0.777,-6.99 -0.054,-3.726 -3.168,-7.711 -1.555,-11.07 1.043,-2.172 4.703,-1.816 6.215,-3.691 1.798,-2.231 3.515,-5.403 2.719,-8.156 -1.023,-3.535 -7.01,-3.649 -8.545,-6.992 -1.191,-2.588 2.028,-6.363998 0.195,-8.544998 -0.869,-1.034 -2.353,-1.418 -3.846,-1.396 m -41.44,45.229998 c -0.726,0.003 -1.431,0.132 -2.1,0.443 -1.923,0.894 -1.991,3.769 -3.301,5.438 -1.3,1.656 -2.374,4.231 -4.467,4.467 -2.659,0.299 -4.182,-4.842 -6.797,-4.273 -2.649,0.576 -4.074,4.117 -4.469,6.799 -0.364,2.472 0.291,5.501 2.137,7.186 0.029,0.026 0.064,0.044 0.094,0.068 0.551,-0.094 1.058,-0.042 1.461,0.32 0.123,0.11 0.227,0.233 0.322,0.363 0.666,0.082 1.368,0.058 2.01,0.023 1.288,-0.07 2.488,-0.695 3.689,-1.164 2.131,-0.832 4.059,-2.148 6.215,-2.914 1.76,-0.626 3.762,-2.187 5.438,-1.359 2.34,1.156 3.688,4.641 3.107,7.186 -0.286,1.253 -2.247,1.426 -2.912,2.525 -0.585,0.967 -0.412,2.231 -0.777,3.301 -0.505,1.481 -0.707,3.312 -1.941,4.273 -3.425,2.669 -8.505,1.827 -12.818,2.33 -1.223,0.143 -2.619,-0.414 -3.689,0.195 -2.434,1.386 -1.908,6.481 -4.662,6.99 -2.42,0.447 -5.515,-1.863 -6.02,-4.271 -0.542,-2.586 2.192,-4.948 4.078,-6.799 2.132,-2.092 6.232,-1.905 7.768,-4.467 0.981,-1.636 1.622,-4.346 0.518,-5.85 -0.667,-0.082 -1.293,-0.278 -1.783,-0.684 -0.91,0.155 -1.939,0.706 -2.813,0.902 -2.517,0.565 -5.071,1.178 -7.379,2.33 -1.993,0.995 -3.798,2.379 -5.439,3.885 -3.01,2.762 -4.784,6.752 -7.961,9.322 -1.374,1.111 -2.916,2.254 -4.662,2.523 -0.436,0.067 -0.871,0.093 -1.305,0.086 0.498,-1.404 0.844,-2.876 0.916,-4.357 0.073,-1.5 0.003,-3.084 -0.582,-4.467 -0.933,-2.207 -2.675,-4.04 -4.467,-5.633 -2.217,-1.968 -5.449,-2.594 -7.574,-4.66 -1.609,-1.564 -2.307,-3.864 -3.689,-5.633 -1.467,-1.877 -3.06,-3.678 -4.855,-5.244 -1.786,-1.558 -3.852,-2.765 -5.826,-4.078 -2.423,-1.611 -4.63,-3.713 -7.381,-4.66 -0.643,-0.221 -1.336,-0.317 -2.023,-0.311 -0.229,0.002 -0.458,0.016 -0.684,0.039 -2.639,0.274 -5.769,0.473 -7.586,2.406 -2.01,2.14 0.317,6.933 -2.137,8.547 -3.01,1.983 -7.393,-3.232 -10.682,-1.748 -2.439,1.1 -4.855,4.185 -4.271,6.797 0.654,2.927 4.814,3.684 7.574,4.855 2.327,0.987 6.848,-0.723 7.379,1.748 0.446,2.076 -2.987,3.378 -5.05,3.883 -2.874,0.703 -6.279,-3.195 -8.74,-1.553 -1.986,1.325 -2.763,4.934 -1.553,6.992 1.609,2.737 6.095,1.78 9.127,2.719 1.819,0.563 4.362,0.177 5.438,1.748 1.869,2.729 -2.49,7.203 -0.582,9.904 1.205,1.707 3.936,1.879 6.02,1.748 3.096,-0.194 7.126,-0.931 8.545,-3.689 1.121,-2.18 -0.497,-4.976 -1.555,-7.188 -0.934,-1.952 -3.501,-2.964 -4.078,-5.05 -0.872,-3.15 -0.498,-7.02 1.359,-9.711 1.3,-1.884 4.161,-1.968 6.02,-3.301 1.713,-1.228 2.566,-4.03 4.66,-4.273 1.699,-0.194 3.31,1.266 4.467,2.525 1.156,1.258 1.204,3.228 2.137,4.66 1.226,1.884 2.797,3.546 4.467,5.05 1.655,1.491 4.327,1.952 5.438,3.883 1.01,1.755 0.854,3.884 0.771,5.984 -2.642,-0.409 -5.376,-1.402 -7.957,-0.74 -1.896,0.486 -3.218,2.231 -4.855,3.303 -1.728,1.131 -4.197,1.52 -5.244,3.301 -1.216,2.068 -1.178,4.921 -0.387,7.186 0.772,2.208 2.628,4.087 4.66,5.244 1.776,1.012 4.309,0.05 6.02,1.166 2.377,1.549 3.162,4.712 4.854,6.99 1.429,1.924 3.088,3.673 4.467,5.633 1.623,2.306 4.994,4.415 4.467,7.186 -0.467,2.455 -6.255,1.979 -6.02,4.467 0.196,2.075 4.102,1.303 5.633,2.719 1.981,1.832 3.739,4.315 4.078,6.992 0.507,4.01 -2.638,7.67 -3.303,11.652 -0.779,4.668 1.361,9.954 -0.775,14.178 -0.644,1.272 -1.885,2.573 -3.303,2.719 -2.909,0.3 -5.197,-2.683 -7.768,-4.078 -2.675,-1.452 -5.6,-2.549 -7.963,-4.467 -2.672,-2.168 -3.484,-6.842 -6.797,-7.77 -1.242,-0.348 -3.143,-0.002 -3.691,1.166 -0.802,1.708 1.213,3.598 2.137,5.244 0.907,1.614 2.296,2.913 3.303,4.467 1.577,2.433 1.995,5.779 4.271,7.574 2.22,1.751 5.484,1.406 8.156,2.33 3.238,1.12 6.944,1.623 9.518,3.885 2.069,1.818 3.11,4.607 4.078,7.186 1.021,2.722 -0.581,6.805 1.748,8.545 1.822,1.361 4.666,0.213 6.797,-0.582 3.3,-1.231 6.686,-3.223 8.545,-6.215 1.213,-1.953 2.445,-4.888 1.166,-6.799 -1.476,-2.206 -5.474,-0.411 -7.768,-1.746 -1.663,-0.968 -3.281,-2.446 -3.885,-4.273 -0.816,-2.471 0.377,-5.196 0.777,-7.768 0.671,-4.316 1.944,-8.52 2.719,-12.818 0.859,-4.766 2.169,-9.528 2.135,-14.371 -0.042,-6.03 -1.595,-11.98 -2.912,-17.869 -0.411,-1.84 -1.745,-3.562 -1.555,-5.438 0.17,-1.671 1.667,-2.925 2.332,-4.467 0.705,-1.636 0.711,-3.601 1.748,-5.05 0.43,-0.6 1.074,-1.053 1.746,-1.359 3.362,-1.532 7.831,-0.046 10.877,-2.137 1.703,-1.169 1.447,-4.333 3.301,-5.244 2.451,-1.205 5.561,1.621 8.158,0.777 2.792,-0.907 3.96,-4.546 6.602,-5.826 1.954,-0.947 4.391,-1.964 6.41,-1.166 2.324,0.918 1.975,5.838 4.467,6.02 2.648,0.195 3.847,-3.666 5.631,-5.633 1.576,-1.738 2.421,-4.294 4.469,-5.438 2.51,-1.402 6.554,0.908 8.545,-1.166 1.892,-1.97 2.116,-5.777 0.775,-8.156 -1.023,-1.816 -3.916,-1.533 -5.631,-2.719 -1.469,-1.015 -4.158,-1.925 -3.885,-3.689 0.386,-2.489 4.399,-2.532 6.797,-3.303 2.189,-0.703 5.586,0.789 6.799,-1.164 1.675,-2.697 -0.106,-7.328 -2.721,-9.129 -2.138,-1.473 -5.226,1.113 -7.768,0.582 -3.657,-0.764 -6.359,-4.065 -9.904,-5.242 -2.098,-0.697 -4.463,-1.813 -6.641,-1.803 m 86.37,4.428 c -2.04,-0.064 -4.203,0.911 -5.738,2.23 -1.647,1.415 -1.498,4.18 -2.914,5.826 -1.394,1.62 -3.108,3.568 -5.242,3.689 -1.62,0.092 -3.298,-1.034 -4.273,-2.33 -1.077,-1.431 0.22,-4.111 -1.166,-5.244 -2.707,-2.213 -7.589,-2.153 -10.486,-0.195 -1.205,0.814 -1.106,2.696 -1.555,4.08 -0.538,1.658 -0.395,3.597 -1.359,5.05 -0.817,1.23 -2.025,2.847 -3.496,2.719 -1.826,-0.16 -2.354,-2.822 -3.689,-4.078 -0.906,-0.852 -1.739,-1.918 -2.912,-2.33 -2.688,-0.943 -6.152,-1.542 -8.547,0 -1.315,0.847 -1.24,2.873 -1.941,4.271 -0.662,1.321 -2.16,2.407 -2.137,3.885 0.033,2.031 2.226,3.414 3.107,5.244 0.871,1.809 2.558,3.668 2.137,5.631 -0.384,1.79 -2.439,2.761 -3.885,3.885 -1.902,1.478 -4.176,2.406 -6.215,3.689 -2.173,1.368 -4.246,2.888 -6.408,4.273 -1.664,1.066 -3.367,2.069 -5.05,3.107 -1.361,0.84 -2.628,1.853 -4.078,2.525 -2.47,1.146 -5.25,1.491 -7.77,2.523 -0.67,0.274 -1.561,0.355 -1.941,0.971 -0.783,1.267 -0.894,3.278 0,4.469 1.255,1.671 3.935,1.603 6.02,1.746 2.676,0.184 5.51,-0.077 7.963,-1.164 3.91,-1.733 6.589,-5.454 9.904,-8.156 1.999,-1.629 4.069,-3.172 6.02,-4.855 2.533,-2.184 4.365,-5.349 7.379,-6.799 2.302,-1.108 5.02,-1.216 7.574,-1.164 3.364,0.069 6.548,1.734 9.906,1.941 3.692,0.228 7.8,0.955 11.07,-0.777 2.037,-1.08 2.702,-3.751 4.273,-5.438 1.906,-2.045 3.479,-5.056 6.215,-5.631 2,-0.421 4.072,0.886 5.826,1.941 1.609,0.967 3.821,2.025 4.078,3.885 0.278,2.01 -1.764,3.718 -3.107,5.242 -1.464,1.661 -3.196,3.233 -5.242,4.08 -1.929,0.799 -4.736,-0.699 -6.215,0.775 -1.803,1.797 0.392,5.425 -0.973,7.574 -0.905,1.425 -3.363,1.296 -4.271,2.719 -1.055,1.651 -1.832,4.175 -0.777,5.826 1.059,1.656 3.7,2.105 5.633,1.748 2.267,-0.418 3.536,-2.968 5.438,-4.271 1.987,-1.362 3.891,-4.327 6.215,-3.691 2.99,0.818 1.8,6.578 4.467,8.158 2.228,1.32 5.595,1.408 7.768,0 2.261,-1.466 1.982,-5.03 3.303,-7.381 1.118,-1.988 2.22,-4.07 3.883,-5.631 2.202,-2.067 6.282,-2.034 7.77,-4.662 0.861,-1.521 1.043,-3.842 0,-5.244 -1.21,-1.627 -3.997,-0.874 -5.826,-1.748 -1.345,-0.643 -3.236,-1.104 -3.689,-2.523 -0.398,-1.249 0.64,-2.596 1.359,-3.691 1.08,-1.646 3.623,-2.219 4.271,-4.078 0.624,-1.789 0.458,-4.194 -0.777,-5.631 -1.188,-1.383 -3.465,-1.148 -5.242,-1.555 -2.749,-0.628 -6.801,0.996 -8.352,-1.359 -1.027,-1.561 1.563,-3.58 1.359,-5.438 -0.205,-1.871 -1.35,-3.579 -2.525,-5.05 -1.149,-1.437 -2.463,-3.155 -4.271,-3.496 -0.284,-0.054 -0.574,-0.085 -0.865,-0.094 m -251.65,0.041 c -0.083,-0.005 -0.168,0 -0.248,0.016 -2.448,0.479 -4.674,1.88 -6.699,3.338 -2.526,1.818 -3.726,5.412 -6.602,6.604 -2.094,0.867 -4.536,-0.117 -6.799,0 -1.884,0.097 -4.073,-0.483 -5.631,0.582 -2.104,1.438 -4.19,4.347 -3.496,6.799 0.783,2.767 4.871,3.06 7.379,4.467 1.717,0.963 4.544,0.878 5.244,2.719 0.838,2.203 -0.691,5.123 -2.525,6.604 -1.988,1.604 -6.262,-1.028 -7.574,1.164 -1.199,2 0.758,4.88 2.332,6.604 1.153,1.262 3.8,0.66 4.66,2.137 1.145,1.965 -0.835,4.537 -0.582,6.797 0.166,1.486 0.986,2.826 1.359,4.273 0.33,1.278 -0.129,2.924 0.777,3.883 1.24,1.312 3.47,1.703 5.242,1.359 1.818,-0.352 3.12,-2.03 4.467,-3.301 1.471,-1.388 1.897,-4.288 3.885,-4.662 2.107,-0.397 3.999,1.718 5.633,3.107 1.756,1.493 2.198,4.431 4.271,5.439 2.737,1.331 6.807,1.967 9.129,0 1.803,-1.527 -0.671,-5.506 1.166,-6.992 2.217,-1.793 6.04,-0.965 8.545,0.389 2.04,1.1 1.887,4.877 4.078,5.631 2.421,0.833 5.275,-0.675 7.379,-2.135 2.319,-1.61 2.854,-5.03 5.05,-6.799 2.434,-1.965 5.447,-3.447 8.545,-3.883 3.499,-0.492 7.308,3.097 10.486,1.553 1.878,-0.912 3.748,-3.45 3.107,-5.438 -1,-3.116 -6.136,-2.378 -8.934,-4.078 -3.231,-1.964 -7.099,-3.686 -8.934,-6.992 -0.885,-1.594 -1.431,-3.824 -0.582,-5.438 1.268,-2.41 6.821,-1.186 7.186,-3.885 0.288,-2.132 -2.787,-3.408 -4.66,-4.467 -4.088,-2.311 -9.772,-0.963 -13.596,-3.689 -1.594,-1.136 -2.083,-3.323 -3.301,-4.855 -1.425,-1.794 -2.424,-4.56 -4.662,-5.05 -2.466,-0.539 -4.626,2.027 -6.99,2.912 -2.684,1 -5.319,3.112 -8.158,2.719 -1.939,-0.269 -3.295,-2.12 -4.855,-3.301 -1.685,-1.275 -2.897,-3.28 -4.854,-4.078 -0.076,-0.031 -0.157,-0.047 -0.24,-0.053 m 8.59,24.912 c 3.753,0.077 7.513,1.247 10.877,2.912 3.226,1.597 5.777,4.303 8.545,6.604 1.869,1.553 6.01,2.493 5.438,4.855 -0.594,2.474 -4.839,1.847 -7.381,1.941 -3.552,0.132 -7.01,-1.21 -10.486,-1.941 -2.213,-0.465 -4.354,-1.323 -6.604,-1.555 -5.02,-0.518 -10.916,3.145 -15.15,0.389 -0.997,-0.649 -1.379,-2.111 -1.359,-3.301 0.023,-1.42 0.878,-2.762 1.748,-3.885 1.27,-1.638 2.987,-2.987 4.855,-3.885 2.93,-1.407 6.266,-2.201 9.516,-2.135 m 203.86,15.506 c -0.237,-0.005 -0.475,0.003 -0.713,0.029 -1.411,0.155 -2.57,1.211 -3.885,1.748 -3.64,1.488 -7.695,2.059 -11.07,4.08 -2.01,1.202 -5.975,2.439 -5.244,4.66 0.671,2.038 4.315,1.052 6.408,0.582 2.86,-0.643 4.689,-3.952 7.574,-4.467 1.425,-0.254 2.991,0.106 4.273,0.777 1.946,1.02 3.106,3.106 4.66,4.66 0.842,0.842 1.48,1.957 2.525,2.525 0.814,0.443 1.806,0.746 2.719,0.582 1.662,-0.299 3.132,-1.475 4.273,-2.719 1.135,-1.237 2.37,-2.788 2.33,-4.467 -0.042,-1.798 -1.328,-3.52 -2.719,-4.66 -1.694,-1.389 -4.102,-1.558 -6.215,-2.137 -1.618,-0.443 -3.259,-1.163 -4.92,-1.195 m -164.83,13.982 c -2.397,0 -4.787,0.688 -6.404,2.168 -2.23,2.04 0.735,6.958 -1.553,8.934 -1.862,1.609 -4.928,-0.009 -7.381,0.193 -2.345,0.193 -5.122,-0.459 -6.99,0.971 -2.626,2.01 -1.104,7.34 -3.885,9.129 -2.178,1.402 -5.445,-1.342 -7.768,-0.195 -1.579,0.779 -2.598,2.588 -3.107,4.273 -0.9,2.977 1.517,6.425 0.387,9.322 -0.566,1.45 -2.255,2.148 -3.301,3.301 -1.576,1.738 -5.189,3.206 -4.467,5.438 0.783,2.42 4.931,1.257 7.381,1.943 2.406,0.674 5.468,0.322 7.186,2.137 1.921,2.03 0.66,5.672 1.941,8.156 0.631,1.223 1.356,2.915 2.719,3.107 2.134,0.301 3.655,-2.285 5.438,-3.496 2.57,-1.747 4.66,-6.518 7.574,-5.438 2.061,0.764 0.196,4.68 1.555,6.408 1.486,1.889 4.03,2.991 6.408,3.303 2.103,0.275 4.534,-0.066 6.215,-1.359 2.134,-1.642 1.577,-5.521 3.691,-7.188 1.936,-1.526 4.767,-2.224 7.186,-1.746 1.728,0.341 2.529,2.852 4.271,3.105 3.262,0.474 6.654,-1.365 9.322,-3.301 1.719,-1.247 2.029,-4.02 3.885,-5.05 1.706,-0.948 4.347,0.689 5.826,-0.584 2.583,-2.222 2.101,-6.524 2.525,-9.904 0.306,-2.441 -0.827,-5.062 0,-7.379 0.619,-1.733 3.279,-2.446 3.494,-4.273 0.277,-2.358 -1.416,-4.742 -3.107,-6.408 -1.527,-1.504 -4.212,-1.309 -5.826,-2.719 -1.623,-1.418 -1.825,-4.077 -3.494,-5.439 -1.667,-1.36 -3.877,-2.145 -6.02,-2.33 -2.96,-0.255 -5.777,1.542 -8.74,1.748 -2.2,0.153 -4.719,0.759 -6.602,-0.389 -1.735,-1.057 -1.302,-4.313 -3.107,-5.244 -1.515,-0.782 -3.386,-1.196 -5.25,-1.195 m 154.69,1.969 c -0.635,0.028 -1.255,0.148 -1.842,0.393 -2.557,1.067 -2.959,4.784 -5.05,6.604 -1.29,1.123 -2.777,2.79 -4.467,2.525 -2.263,-0.355 -2.636,-3.981 -4.662,-5.05 -1.967,-1.039 -4.577,-1.888 -6.604,-0.971 -2.388,1.082 -2.043,5.222 -4.271,6.604 -2.437,1.51 -5.748,0.352 -8.547,0.971 -1.999,0.442 -4.337,0.537 -5.826,1.941 -2.029,1.913 -3.549,5.02 -3.107,7.77 0.335,2.087 2.92,3.089 4.08,4.855 1.589,2.42 1.168,6.763 3.883,7.768 2.503,0.926 5.181,-1.596 7.381,-3.107 1.925,-1.322 3.509,-3.141 4.855,-5.05 1.252,-1.774 1.337,-4.331 2.912,-5.826 2.818,-2.674 6.961,-3.546 10.682,-4.662 3.272,-0.982 6.757,-2.455 10.1,-1.748 2.055,0.434 3.401,2.489 5.244,3.496 0.992,0.542 2.118,0.812 3.107,1.359 1.508,0.835 3.01,1.739 4.271,2.914 1.45,1.35 3.673,2.679 3.691,4.66 0.016,1.709 -1.526,3.43 -3.107,4.078 -2.118,0.868 -4.667,-0.137 -6.799,-0.971 -2.124,-0.831 -3.507,-3.052 -5.631,-3.883 -2.558,-1 -5.416,-1.012 -8.158,-1.166 -2.199,-0.124 -4.463,-0.332 -6.602,0.193 -2.587,0.636 -4.638,2.724 -7.188,3.496 -1.376,0.417 -3.538,-0.652 -4.271,0.584 -0.608,1.024 -0.1,2.79 0.861,3.646 0.14,-0.137 0.3,-0.257 0.498,-0.346 0.264,-0.119 0.759,0.1 0.777,0.389 0.014,0.233 -0.362,0.46 -0.584,0.389 -0.251,-0.08 -0.478,-0.242 -0.691,-0.432 -1.159,1.135 -0.534,3.765 -1.057,5.48 -0.639,2.095 -2.818,4.133 -2.135,6.215 0.638,1.945 3.01,3.339 5.05,3.496 2.367,0.183 4.045,-2.879 6.408,-3.107 2.266,-0.219 4.847,0.3 6.604,1.748 1.72,1.418 1.151,4.655 2.914,6.02 1.827,1.414 4.667,2.254 6.797,1.359 3.278,-1.377 2.908,-6.902 5.826,-8.934 1.199,-0.835 2.832,-1.207 4.273,-0.971 2.695,0.442 4.7,2.785 6.99,4.273 1.912,1.242 3.358,3.715 5.633,3.883 4.244,0.312 9.1,-2.09 11.459,-5.631 1.152,-1.727 -0.98,-4.654 0.389,-6.215 2,-2.281 7,0.595 8.934,-1.748 1.317,-1.599 1.204,-4.529 0,-6.215 -1.392,-1.949 -4.748,-1.092 -6.799,-2.33 -2.666,-1.609 -4.87,-3.963 -6.797,-6.41 -1.614,-2.05 -2.332,-4.699 -3.885,-6.797 -0.899,-1.215 -1.607,-3.12 -3.107,-3.301 -2.834,-0.342 -4.356,5.04 -7.186,4.66 -2.408,-0.323 -4.442,-3.043 -4.855,-5.438 -0.321,-1.86 2.662,-3.431 2.137,-5.244 -0.774,-2.675 -4.205,-3.839 -6.797,-4.855 -1.777,-0.697 -3.827,-1.446 -5.732,-1.363 m -128.85,15.879 c 0.91,-0.028 1.73,0.184 2.322,0.828 2.213,2.406 0.579,7.078 -1.359,9.709 -2.165,2.938 -6.456,3.47 -9.904,4.662 -5.462,1.888 -11.133,3.463 -16.896,3.885 -4.858,0.356 -9.832,-0.021 -14.566,-1.166 -2.454,-0.594 -5.916,-0.63 -6.992,-2.914 -0.663,-1.408 0.181,-3.452 1.361,-4.467 2.034,-1.749 5.279,-1.218 7.961,-1.164 1.054,0.021 2.155,0.131 3.107,0.582 1.453,0.689 2.117,2.782 3.691,3.107 5.496,1.135 11.04,-2.464 16.12,-4.855 3.801,-1.791 6.501,-5.662 10.486,-6.99 1.384,-0.461 3.153,-1.17 4.67,-1.217 m 27.508,3.859 c -0.242,0.002 -0.481,0.027 -0.715,0.076 -2.735,0.578 -4.247,3.787 -5.633,6.215 -0.974,1.707 -2.029,3.685 -1.748,5.631 0.267,1.848 2.181,3.041 3.107,4.662 1.106,1.935 1.432,4.354 2.914,6.02 1.684,1.891 4.096,5.109 6.408,4.078 1.798,-0.802 0.772,-3.867 0.971,-5.826 0.353,-3.48 0.578,-6.993 0.389,-10.486 -0.145,-2.679 0.457,-5.826 -1.164,-7.963 -1.01,-1.333 -2.836,-2.42 -4.529,-2.406 m 176.13,22.6 c -0.23,-0.023 -0.465,-0.025 -0.701,0.004 -2.943,0.356 -5.473,2.571 -7.574,4.662 -2.865,2.85 -2.526,9.17 -6.408,10.293 -2.142,0.62 -4.049,-1.875 -6.02,-2.914 -2.771,-1.46 -5.04,-4.402 -8.156,-4.66 -3.164,-0.262 -7.235,0.619 -8.934,3.301 -1.982,3.129 1.372,7.388 0.971,11.07 -0.257,2.361 0.182,6.283 -2.137,6.797 -2.997,0.664 -3.527,-5.314 -6.215,-6.797 -2.88,-1.589 -6.976,-3.578 -9.709,-1.748 -2.036,1.363 -2.348,4.867 -1.555,7.186 0.684,2 4.652,1.974 4.855,4.078 0.208,2.154 -2.042,4.32 -4.078,5.05 -2.426,0.87 -5.302,-2.771 -7.574,-1.555 -2.278,1.22 -3.176,4.614 -2.914,7.186 0.236,2.322 2.39,4.03 3.885,5.826 1.73,2.074 3.611,4.087 5.826,5.633 1.71,1.193 3.589,2.306 5.633,2.719 2.478,0.5 5.833,1.444 7.574,-0.389 1.115,-1.173 -0.989,-3.575 0,-4.855 0.941,-1.218 2.941,-0.968 4.467,-1.164 0.257,-0.033 0.664,0.233 0.777,0 0.504,-1.037 -1.035,-2.38 -2.137,-2.719 -1.429,-0.439 -2.843,1.792 -4.273,1.359 -2.38,-0.721 -4.859,-3.347 -4.66,-5.826 0.223,-2.787 3.686,-4.441 6.215,-5.633 3.669,-1.728 8.121,-0.708 12.04,-1.748 3.765,-0.998 7.477,-2.37 10.875,-4.273 3.468,-1.942 5.593,-6.554 9.518,-7.186 3.375,-0.543 6.693,1.693 9.709,3.303 3.667,1.957 10.388,3.446 9.906,7.574 -0.312,2.677 -4.712,2.93 -7.381,3.301 -3.564,0.495 -7.084,-1.535 -10.682,-1.553 -2.417,-0.012 -5.09,-0.235 -7.186,0.971 -2.559,1.472 -2.785,5.695 -5.438,6.992 -3.14,1.536 -7.176,-1.118 -10.488,0 -1.619,0.547 -3.862,1.412 -4.078,3.107 -0.146,1.143 1.172,2.088 2.137,2.719 1.511,0.988 3.539,0.766 5.244,1.359 2.874,1 5.761,2.088 8.35,3.689 2.502,1.548 4.305,4.072 6.799,5.633 1.989,1.245 4.071,2.706 6.408,2.912 2.596,0.229 5.387,-0.523 7.574,-1.941 2.358,-1.529 2.731,-5.345 5.244,-6.604 2.027,-1.015 4.644,0.517 6.797,-0.193 2.473,-0.816 4.646,-2.55 6.408,-4.467 1.924,-2.092 1.738,-6.096 4.273,-7.381 2.672,-1.354 6.544,2.777 8.934,0.971 2.776,-2.098 3.528,-7.302 1.748,-10.293 -1.434,-2.41 -6.703,-0.213 -7.963,-2.719 -0.764,-1.518 0.386,-3.622 1.555,-4.855 1,-1.056 3.791,-0.127 4.078,-1.553 0.37,-1.84 -2.438,-2.972 -4.078,-3.885 -2.923,-1.626 -6.698,-1.074 -9.711,-2.525 -0.583,-0.281 -1.298,-0.57 -1.555,-1.164 -0.698,-1.614 -0.26,-3.701 0.584,-5.244 0.839,-1.535 3.802,-1.576 4.078,-3.303 0.377,-2.358 -1.825,-4.811 -3.885,-6.02 -3.525,-2.068 -8.219,-0.017 -12.234,-0.777 -1.637,-0.31 -3.125,-1.59 -4.738,-1.752 m -325.63,1.133 c -0.613,0.034 -1.203,0.169 -1.734,0.426 -2.01,0.971 -1.619,4.358 -3.301,5.826 -1.313,1.147 -3.166,1.512 -4.855,1.941 -2.148,0.546 -4.815,-0.532 -6.603,0.777 -1.777,1.301 -3.207,3.872 -2.719,6.02 0.356,1.568 2.925,1.693 3.689,3.107 0.775,1.434 1.065,3.298 0.584,4.855 -0.406,1.315 -1.653,2.239 -2.721,3.107 -1.326,1.08 -3.739,0.978 -4.467,2.525 -0.784,1.666 -0.3,4.106 0.973,5.438 1.421,1.487 4.132,0.542 6.02,1.359 2.224,0.963 5.576,1.695 6.02,4.078 0.188,1.01 -1.196,1.663 -1.748,2.525 -0.892,1.393 -3,2.69 -2.525,4.273 0.644,2.134 3.917,2.176 6.02,2.912 1.942,0.679 3.964,1.267 6.02,1.359 1.957,0.088 4.01,-1.502 5.826,-0.777 1.625,0.647 2.183,2.736 3.303,4.08 1.91,2.293 3.115,5.55 5.826,6.797 3.352,1.542 7.399,0.385 11.07,0 2.172,-0.228 4.403,-0.498 6.41,-1.359 4.835,-2.075 8.238,-6.721 13.01,-8.934 2.01,-0.931 4.195,-1.809 6.408,-1.748 2.456,0.068 4.812,1.198 6.992,2.33 1.643,0.854 2.695,2.762 4.467,3.301 2.666,0.81 5.844,0.829 8.352,-0.387 2.312,-1.122 2.901,-4.417 5.05,-5.828 3.234,-2.125 8.263,-0.831 11.07,-3.494 2.01,-1.903 3.77,-5.14 2.914,-7.77 -1.968,-6.04 -10.06,-8.05 -15.926,-10.486 -3.236,-1.344 -7.07,-0.762 -10.293,-2.137 -4.839,-2.064 -9.615,-4.916 -13.01,-8.934 -1.29,-1.526 -0.866,-4.323 -2.525,-5.438 -3.443,-2.313 -8.966,-2.866 -12.43,-0.584 -1.386,0.913 -0.287,3.876 -1.748,4.662 -2.808,1.51 -7.447,0.442 -9.322,-2.137 -1.3,-1.787 1.918,-4.844 0.582,-6.604 -1.712,-2.255 -5.953,-3.061 -8.35,-1.553 -1.475,0.929 0.065,4.04 -1.359,5.05 -2.02,1.423 -5.351,0.821 -7.381,-0.582 -2,-1.383 -1.161,-5.145 -3.107,-6.604 -1.049,-0.786 -2.477,-1.325 -3.861,-1.396 -0.208,-0.011 -0.415,-0.011 -0.619,0 m 214.23,4.309 c -2.727,-0.101 -5.412,1.443 -7.574,3.107 -2.38,1.833 -3.304,5.071 -5.438,7.186 -2,1.987 -6.23,2.286 -6.799,5.05 -0.468,2.273 1.497,4.841 3.496,6.02 2.733,1.611 6.349,0.365 9.518,0.195 2.542,-0.136 5.499,0.503 7.574,-0.971 1.653,-1.173 0.995,-4.374 2.719,-5.439 1.267,-0.783 3.02,0.342 4.467,0 1.831,-0.432 3.843,-3.968 5.05,-2.523 0.207,0.249 -0.622,0.454 -0.582,0.775 0.326,2.649 3.609,4.472 6.215,5.05 2.345,0.521 5.564,0.185 6.99,-1.748 1.425,-1.93 1.187,-5.376 -0.387,-7.186 -1.991,-2.29 -6.05,-0.82 -8.936,-1.748 -3.117,-1 -5.98,-2.666 -8.934,-4.078 -2.481,-1.186 -4.63,-3.589 -7.379,-3.691 m 50.24,7.32 c -1.207,-0.045 -2.525,0.156 -3.633,0.254 -1.427,0.126 -2.754,0.811 -4.078,1.359 -1.739,0.72 -4.402,0.758 -5.05,2.525 -0.848,2.315 0.83,5.48 2.914,6.797 1.424,0.9 3.452,0.344 5.05,-0.193 2.247,-0.756 3.953,-2.625 5.826,-4.078 0.472,-0.366 1.074,-0.642 1.359,-1.166 0.688,-1.262 1.446,-3.123 0.582,-4.271 -0.668,-0.889 -1.764,-1.182 -2.971,-1.227 m -145.52,1.588 c -2.266,-0.02 -4.528,0.227 -6.686,0.803 -2.886,0.771 -5.199,2.943 -7.768,4.467 -4.373,2.595 -8.821,5.085 -13.01,7.963 -2.02,1.385 -6.429,2.095 -5.826,4.467 0.613,2.414 4.891,1.234 7.381,1.166 3.706,-0.101 7.255,-1.529 10.875,-2.332 3.112,-0.69 6.498,-0.655 9.322,-2.135 1.786,-0.936 2.587,-3.349 4.467,-4.078 2.294,-0.89 5.065,-0.829 7.381,0 2.208,0.791 3.216,3.713 5.438,4.467 1.84,0.624 3.931,0.234 5.826,-0.195 1.103,-0.25 2.829,-0.264 3.107,-1.359 0.545,-2.146 -2.613,-3.584 -4.078,-5.244 -1.515,-1.716 -2.988,-3.532 -4.855,-4.855 -1.465,-1.038 -3.105,-1.932 -4.855,-2.33 -2.178,-0.496 -4.449,-0.783 -6.715,-0.803 m -106.78,3.943 c 0.873,-0.023 1.743,0.027 2.6,0.162 2.717,0.43 5.161,2.066 7.381,3.689 2.698,1.973 4.287,5.221 6.99,7.186 3.911,2.842 8.761,4.109 13.01,6.408 2.91,1.574 8.13,1.768 8.545,5.05 0.207,1.635 -1.982,2.846 -3.496,3.496 -2.321,0.996 -5.069,0.512 -7.574,0.193 -3.74,-0.475 -7.471,-1.486 -10.875,-3.107 -2.854,-1.359 -5.09,-3.761 -7.77,-5.438 -2.825,-1.767 -5.477,-4.17 -8.738,-4.855 -2.736,-0.575 -5.608,1.317 -8.351,0.777 -1.648,-0.324 -3.5,-0.959 -4.467,-2.332 -1.091,-1.55 -1.555,-3.903 -0.777,-5.631 0.958,-2.129 3.649,-3.043 5.826,-3.885 2.427,-0.938 5.075,-1.647 7.693,-1.715 m 210.26,10.18 c -0.78,-0.02 -1.542,0.122 -2.189,0.469 -2.731,1.463 -1.585,6.512 -4.078,8.352 -1.687,1.245 -4.221,1.621 -6.215,0.971 -2,-0.653 -2.565,-3.563 -4.467,-4.467 -2.292,-1.09 -5.452,-2.169 -7.574,-0.777 -2.5,1.639 -0.513,6.528 -2.719,8.545 -1.321,1.208 -3.464,0.971 -5.244,1.166 -2.767,0.304 -6.263,-1.842 -8.35,0 -1.956,1.727 -0.338,5.238 -0.973,7.77 -0.439,1.749 -0.514,3.947 -1.941,5.05 -1.154,0.89 -2.671,0.973 -4.215,0.912 -0.108,-0.267 -0.235,-0.521 -0.387,-0.75 0.011,0.068 -0.006,0.143 -0.059,0.227 -0.279,0.441 -1.493,-0.273 -1.359,-0.777 0.02,-0.075 0.074,-0.128 0.146,-0.16 -0.296,-0.117 -0.573,-0.246 -0.73,-0.422 -1.176,-1.319 -1.467,-3.246 -2.523,-4.662 -1.04,-1.394 -2.719,-2.247 -3.691,-3.689 -1.297,-1.924 -1.246,-4.615 -2.719,-6.408 -2.633,-3.205 -6.407,-5.543 -10.293,-6.992 -2.077,-0.774 -4.415,-1.129 -6.604,-0.777 -3.03,0.486 -5.397,3.045 -8.35,3.885 -2.634,0.749 -5.495,1.608 -8.158,0.971 -2.951,-0.706 -4.632,-4.306 -7.574,-5.05 -0.504,-0.127 -1.022,-0.197 -1.545,-0.219 -1.57,-0.064 -3.192,0.301 -4.67,0.801 -2.893,0.978 -4.832,4.01 -7.768,4.855 -2.8,0.803 -6.429,-1.773 -8.74,0 -2.18,1.673 -1.058,5.435 -2.137,7.963 -1.128,2.645 -2.777,5.05 -4.467,7.379 -2.212,3.045 -8.02,4.836 -7.379,8.545 0.469,2.714 6.247,1.491 7.186,4.08 0.754,2.08 -0.799,4.618 -2.33,6.215 -1.606,1.675 -6.231,0.405 -6.41,2.719 -0.218,2.812 4.385,4.79 7.188,4.467 2.637,-0.304 3.243,-4.472 5.631,-5.633 2.932,-1.425 7.141,0.839 9.711,-1.166 1.858,-1.449 1.37,-4.548 2.525,-6.602 1.606,-2.856 3.078,-6.328 6.02,-7.77 1.918,-0.94 4.593,-1.123 6.41,0 1.847,1.142 3.382,3.706 2.912,5.826 -0.519,2.339 -4.182,2.56 -5.633,4.467 -1.106,1.455 -2.624,3.29 -2.135,5.05 0.707,2.545 4.193,3.223 6.408,4.66 2.068,1.342 5.318,1.479 6.408,3.689 1.3,2.636 -3.269,6.689 -1.164,8.74 2.348,2.287 7.302,0.671 9.711,-1.553 1.811,-1.672 1.423,-4.744 1.746,-7.188 0.348,-2.632 -1.432,-5.863 0.195,-7.961 1.897,-2.445 5.868,-2.101 8.934,-2.525 3.591,-0.498 7.481,1.275 10.875,0 1.933,-0.726 3.183,-2.638 4.662,-4.078 1.641,-1.598 2.562,-4.132 4.66,-5.05 0.988,-0.433 2.311,0.215 3.42,0.359 0.092,0.073 0.187,0.145 0.271,0.225 1.554,1.468 1.896,4.08 3.689,5.242 1.993,1.291 4.963,0.126 6.992,1.359 2.048,1.245 3.063,3.691 4.467,5.633 1.588,2.197 2.053,5.562 4.467,6.797 2.653,1.358 6.372,1.138 8.934,-0.387 1.622,-0.965 1.085,-4.381 2.912,-4.855 2.386,-0.619 4.03,3.035 6.41,3.689 4.12,1.135 9.397,2.756 12.816,0.193 3.117,-2.336 -0.425,-9.624 3.107,-11.264 1.681,-0.781 4.02,0.789 5.05,2.33 1.8,2.693 -1.369,6.99 0.389,9.711 1.492,2.31 4.661,4.11 7.379,3.689 3.03,-0.469 6.226,-3.364 6.604,-6.408 0.319,-2.567 -4.279,-4.02 -4.078,-6.604 0.139,-1.785 1.99,-3.109 3.496,-4.078 2.55,-1.641 5.996,-1.231 8.738,-2.525 2.484,-1.173 5.809,-2.097 6.797,-4.66 1.01,-2.608 -0.337,-5.867 -1.941,-8.156 -1.69,-2.411 -5.94,-2.286 -7.379,-4.855 -0.981,-1.752 -0.366,-4.02 -0.195,-6.02 0.219,-2.568 2.656,-5.244 1.555,-7.574 -1.126,-2.383 -4.387,-4.083 -6.992,-3.689 -2.082,0.314 -2.766,3.225 -4.467,4.467 -1.824,1.332 -3.78,2.831 -6.02,3.107 -2.244,0.277 -4.856,-0.117 -6.602,-1.555 -1.7,-1.4 -0.954,-4.705 -2.721,-6.02 -0.983,-0.731 -2.337,-1.213 -3.637,-1.246 m -49.623,26.527 c 0.427,0.169 0.891,0.311 1.123,0.5 -0.093,-0.121 -0.192,-0.236 -0.299,-0.34 -0.176,-0.171 -0.596,-0.263 -0.824,-0.16 m 1.123,0.5 c 0.052,0.067 0.101,0.139 0.148,0.211 -0.013,-0.079 -0.07,-0.147 -0.148,-0.211 m -51.613,-13.646 c 2.366,0.063 5.125,1.06 7.422,1.266 3.997,0.357 8.796,-0.469 11.848,2.137 2.242,1.915 4.125,5.663 2.912,8.35 -0.777,1.72 -3.355,2.187 -5.242,2.137 -1.216,-0.032 -2.203,-1.034 -3.303,-1.553 -2.331,-1.099 -4.499,-2.641 -6.99,-3.303 -3.201,-0.851 -7.591,1.593 -9.906,-0.775 -1.632,-1.669 -1.993,-5.297 -0.389,-6.992 0.951,-1.01 2.229,-1.304 3.648,-1.266 m 95.21,0.488 c 2.74,-0.204 5.336,1.329 7.963,2.137 3.01,0.927 7.827,0.155 8.934,3.107 0.916,2.444 -1.68,5.4 -3.885,6.797 -3.51,2.224 -8.273,1.074 -12.428,0.971 -2.545,-0.063 -5.235,-1.974 -7.574,-0.971 -3.32,1.424 -3.574,6.503 -6.41,8.74 -2.757,2.174 -6.244,4.63 -9.711,4.078 -3.128,-0.497 -6.998,-3.054 -7.186,-6.215 -0.176,-2.973 3.686,-4.755 6.02,-6.604 3.659,-2.895 8.05,-4.73 12.234,-6.797 3.925,-1.939 7.675,-4.919 12.04,-5.244 m -163.91,13.984 c -1.658,-0.07 -3.491,0.571 -4.66,1.748 -2.382,2.398 -1.244,6.997 -3.496,9.516 -1.254,1.403 -3.2,2.176 -5.05,2.525 -2.108,0.398 -4.313,-0.134 -6.41,-0.584 -1.942,-0.417 -3.85,-2.82 -5.631,-1.941 -2.386,1.178 -2.649,4.916 -2.525,7.574 0.082,1.766 2.24,3.09 2.137,4.855 -0.075,1.275 -0.883,2.587 -1.941,3.301 -1.465,0.988 -3.643,0.03 -5.244,0.777 -2.119,0.989 -5.205,2.322 -5.244,4.66 -0.03,1.786 2.284,2.899 3.885,3.691 1.821,0.902 4.486,-0.364 6.02,0.971 1.993,1.734 0.694,5.5 2.33,7.574 2.049,2.598 5.47,3.833 8.547,5.05 2.22,0.877 5.171,0.009 6.99,1.555 1.594,1.355 0.764,4.442 2.332,5.826 2.107,1.86 5.427,2.807 8.156,2.137 2.804,-0.689 4.225,-3.939 6.408,-5.828 3.234,-2.799 5.849,-6.798 9.904,-8.156 2.888,-0.967 7.21,-1.976 9.129,0.389 0.992,1.223 -1.858,3.514 -0.777,4.66 2.502,2.652 7.703,0.63 10.877,-1.164 2.333,-1.319 2.946,-4.53 4.855,-6.41 0.858,-0.845 1.87,-1.531 2.912,-2.135 0.552,-0.32 1.111,-0.747 1.748,-0.777 0.204,0 0.403,0.292 0.582,0.193 1.872,-1.028 2.602,-4.354 1.555,-6.215 -1.397,-2.48 -5.313,-2.445 -8.158,-2.523 -2.134,-0.059 -4.687,0.06 -6.213,1.553 -1.583,1.549 -0.058,4.98 -1.748,6.41 -1.987,1.681 -5.45,1.955 -7.77,0.775 -1.94,-0.986 -1.413,-4.549 -3.301,-5.631 -3.651,-2.092 -8.418,0.064 -12.625,0 -4.274,-0.065 -9.739,2.579 -12.816,-0.389 -2.102,-2.027 -2.505,-6.542 -0.584,-8.74 1.878,-2.15 5.703,-0.834 8.547,-0.582 4.52,0.401 8.734,4.075 13.205,3.301 2.53,-0.438 5.162,-2.028 6.41,-4.271 1.952,-3.51 2.1,-8.409 0.387,-12.04 -1.221,-2.588 -4.271,-3.899 -6.797,-5.244 -2.53,-1.347 -5.497,-1.649 -8.156,-2.719 -2.659,-1.07 -4.905,-3.568 -7.77,-3.689 m 240.3,1.947 c -0.752,-0.019 -1.496,0.043 -2.199,0.188 -3.12,0.641 -5.853,3.146 -7.574,5.826 -1.4,2.18 0.387,6.105 -1.748,7.574 -2.315,1.593 -5.836,0.089 -8.352,-1.164 -2.377,-1.183 -2.989,-5.876 -5.633,-5.633 -2.503,0.23 -2.664,4.282 -4.271,6.215 -1.932,2.323 -4.446,4.113 -6.408,6.41 -1.716,2.01 -2.691,4.65 -4.662,6.408 -1.277,1.138 -3.832,0.937 -4.467,2.525 -0.578,1.445 0.254,3.371 1.359,4.467 0.815,0.807 2.183,0.714 3.301,0.971 2.303,0.529 4.877,0.111 6.992,1.164 3.034,1.51 4.53,5.161 7.381,6.992 3.348,2.15 8.08,1.847 11.07,4.467 2.466,2.157 2.445,6.325 4.854,8.545 2.257,2.081 5.378,4.648 8.352,3.885 2.333,-0.599 2.265,-4.497 4.273,-5.826 1.886,-1.248 4.377,-1.16 6.604,-1.555 3.724,-0.661 8.573,1.298 11.264,-1.359 1.394,-1.377 0.051,-4.01 0.777,-5.826 1.186,-2.97 3.241,-5.642 5.631,-7.768 1.386,-1.233 3.825,-1.176 4.855,-2.719 1.231,-1.843 2.201,-4.905 0.777,-6.604 -2.124,-2.535 -7.07,1.124 -9.904,-0.582 -1.817,-1.094 -4.049,-3.455 -3.303,-5.439 0.908,-2.415 5.856,-0.249 7.381,-2.33 0.957,-1.305 1.116,-3.684 0,-4.855 -1.833,-1.924 -5.377,0.224 -7.963,-0.389 -3.582,-0.848 -7.646,-1.722 -10.1,-4.467 -1.583,-1.771 -0.411,-5.163 -2.135,-6.797 -1.564,-1.482 -3.897,-2.268 -6.152,-2.324 m -123.9,13.77 c -0.219,-0.022 -0.439,-0.018 -0.662,0.018 -3.139,0.498 -3.536,5.603 -6.316,7.143 -3.41,1.889 -8.514,-0.539 -11.537,1.922 -2.36,1.921 -1.499,6.06 -3.295,8.514 -2.497,3.417 -6.05,6.183 -9.887,7.965 -2.622,1.217 -5.674,2.181 -8.516,1.648 -2.871,-0.538 -4.7,-3.593 -7.416,-4.668 -3.122,-1.236 -6.556,-2.349 -9.887,-1.924 -2.315,0.296 -4.76,1.282 -6.316,3.02 -1.486,1.662 -3.172,4.311 -2.197,6.316 1.354,2.786 5.969,1.739 8.789,3.02 3.174,1.443 5.963,3.623 9.06,5.219 4.116,2.119 9.4,2.456 12.635,5.768 1.462,1.496 1.264,4.059 2.471,5.768 0.935,1.323 2.222,2.403 3.572,3.297 2.597,1.719 6.139,1.829 8.514,3.844 2.266,1.922 4.598,4.465 4.943,7.416 0.307,2.618 -1.758,4.972 -2.746,7.416 -1.537,3.801 -5.438,7.192 -4.943,11.262 0.025,0.208 0.065,0.411 0.115,0.609 -0.429,1.025 -0.132,2.385 0.244,3.445 0.893,2.515 3.185,4.306 5.05,6.215 2.793,2.857 7.07,4.344 9.127,7.77 1.399,2.33 1.605,5.247 1.748,7.961 0.093,1.756 0.368,3.764 -0.582,5.244 -1.631,2.542 -6.109,2.14 -7.77,4.662 -3.988,6.06 -2.173,14.343 -2.912,21.557 -0.756,7.377 -1.123,14.787 -1.58,22.19 -4.182,-0.049 -2.675,8.343 -4.814,12.08 -1.2,2.098 -2.229,4.695 -4.395,5.768 -2.789,1.382 -6.66,1.584 -9.34,0 -1.799,-1.064 -2.07,-3.632 -3.02,-5.492 -1.752,-3.428 -3.361,-6.928 -4.943,-10.438 -1.146,-2.542 -0.543,-7.24 -3.295,-7.691 -0.144,-0.024 -0.286,-0.031 -0.428,-0.027 -2.119,0.059 -3.896,3.085 -4.242,5.246 -0.758,4.736 3.479,8.968 5.768,13.184 2.144,3.95 4.03,8.301 7.416,11.262 2.218,1.942 5.091,3.188 7.965,3.846 2.153,0.493 4.441,0.554 6.643,0.234 -0.056,1.143 -0.032,2.299 -0.084,3.439 -0.123,2.717 -1.075,5.585 -0.195,8.158 0.041,0.12 0.107,0.235 0.156,0.354 0.007,0.09 0.017,0.189 0.023,0.277 0.068,0.993 0.369,1.945 0.699,2.893 0.16,-0.296 0.333,-0.58 0.516,-0.846 0.06,-0.088 0.133,-0.164 0.201,-0.244 0.287,0.261 0.595,0.496 0.93,0.674 1.951,1.036 4.394,0.532 6.604,0.582 3.045,0.069 6.141,0.21 9.127,-0.389 0.646,-0.129 1.278,-0.311 1.9,-0.523 0.411,0.898 0.721,1.874 1.051,2.771 0.674,1.832 2.128,4.054 1.148,5.742 -1.367,2.356 -5.04,2.306 -7.752,2.584 -3.26,0.335 -6.648,-0.134 -9.764,-1.148 -0.944,-0.307 -2.035,-0.595 -2.951,-1.066 0.08,0.735 0.254,1.438 0.648,2.068 0.874,1.396 2.615,2.141 4.191,2.619 2.759,0.837 5.844,-0.416 8.646,0.262 1.974,0.478 4.464,0.874 5.5,2.621 0.803,1.354 0.866,3.617 -0.262,4.715 -2.191,2.133 -6.265,-0.699 -9.168,0.262 -2.024,0.67 -4.183,1.817 -5.24,3.668 -2.216,3.878 -1.127,8.893 -1.047,13.359 0.096,5.361 1.228,10.653 1.834,15.98 0.616,5.413 1.397,10.811 1.832,16.242 0.44,5.49 1.403,11.03 0.787,16.504 -0.619,5.495 -3.308,10.571 -4.453,15.98 -0.749,3.54 -0.569,7.264 -1.572,10.74 -1.376,4.771 -4.325,8.956 -6.03,13.621 -0.965,2.648 -3.109,5.404 -2.357,8.121 0.89,3.216 4.228,5.591 7.334,6.811 3.251,1.277 7.04,0.613 10.479,0 1.545,-0.276 3.03,-0.781 4.49,-1.365 0.269,1.421 -0.007,3.052 -0.893,4.1 -1.799,2.129 -5.441,1.286 -8.04,2.297 -2.194,0.853 -4.952,1.241 -6.318,3.158 -2.128,2.988 -1.196,7.252 -1.436,10.912 -0.688,10.506 0.35,21.06 0,31.584 -0.192,5.752 -0.211,11.55 -1.148,17.229 -0.484,2.932 -1.061,5.913 -2.297,8.615 -1.203,2.632 -3.309,4.749 -4.881,7.178 -0.794,1.227 -1.899,2.327 -2.297,3.732 -0.166,0.588 -0.297,1.189 -0.41,1.795 -0.684,0.324 -1.382,0.578 -2.127,0.592 -1.974,0.036 -3.941,-0.866 -5.594,-1.945 -1.297,-0.847 -1.693,-2.915 -3.162,-3.404 -4.3,-1.431 -8.976,1.348 -13.377,2.432 -2.639,0.65 -5.486,0.976 -7.781,2.432 -3.44,2.182 -5.476,6.03 -8.27,8.998 -2.241,2.379 -4.292,4.97 -6.811,7.05 -1.941,1.605 -4.048,3.054 -6.322,4.135 -1.69,0.803 -3.502,1.416 -5.352,1.703 -3.044,0.473 -6.169,-0.237 -9.24,0 -3.681,0.285 -8,-0.526 -10.945,1.701 -1.707,1.291 -1.729,3.917 -2.674,5.838 -0.768,1.562 -1.301,3.3 -2.434,4.621 -1.773,2.068 -4.292,3.364 -6.566,4.863 -0.94,0.62 -2.088,0.942 -2.918,1.703 -1.243,1.14 -3.195,2.471 -2.918,4.135 0.476,2.863 4.269,4.284 7.05,5.107 3.036,0.898 6.732,1.078 9.484,-0.486 1.779,-1.01 1.844,-3.784 3.404,-5.107 2.103,-1.784 4.835,-3.938 7.541,-3.406 2.082,0.409 3.31,2.787 4.377,4.621 0.98,1.685 1.057,3.755 1.703,5.594 0.869,2.471 1.748,4.953 2.918,7.297 1.186,2.376 2.087,5.117 4.135,6.809 2.334,1.928 5.489,3.325 8.512,3.162 2.353,-0.127 5.679,-0.895 6.322,-3.162 0.546,-1.926 -1.835,-3.605 -3.16,-5.105 -2.481,-2.809 -6.519,-4.048 -8.756,-7.05 -1.411,-1.896 -2.356,-4.225 -2.676,-6.566 -0.474,-3.477 -0.042,-7.181 1.217,-10.457 1.355,-3.528 3.72,-6.757 6.566,-9.242 2.895,-2.528 6.577,-4.109 10.215,-5.35 2.649,-0.903 5.474,-1.286 8.268,-1.459 3.16,-0.195 6.353,0.034 9.486,0.486 2.063,0.298 4,1.587 6.08,1.459 2.765,-0.171 5.632,-1.169 7.781,-2.918 1.413,-1.15 1.414,-3.596 2.92,-4.621 1.432,-0.975 3.506,-0.305 5.105,-0.973 0.114,-0.048 0.23,-0.104 0.346,-0.154 0.347,0.493 0.68,0.993 0.93,1.531 0.853,1.84 0.707,4.19 2.01,5.744 1.129,1.347 2.98,3.279 4.594,2.584 1.812,-0.781 1.276,-3.777 1.436,-5.744 0.186,-2.298 -1.99,-5.071 -0.574,-6.891 1.073,-1.378 3.541,-1.497 5.168,-0.861 2.033,0.794 3.045,3.216 4.02,5.168 0.488,0.976 0.824,2.068 0.861,3.158 0.034,0.976 0.03,2.107 -0.574,2.873 -0.849,1.076 -2.519,1.09 -3.734,1.723 -1.179,0.614 -3.202,0.703 -3.445,2.01 -0.053,0.288 -0.009,0.571 0.098,0.844 -0.338,0.447 -0.645,0.924 -0.92,1.391 -0.65,1.105 -0.724,2.464 -1.215,3.648 -0.971,2.345 -1.78,4.862 -3.406,6.811 -1.818,2.178 -4.665,3.248 -6.809,5.107 -1.992,1.728 -4.431,3.227 -5.594,5.594 -1.118,2.274 -1.12,5.01 -0.973,7.539 0.136,2.336 1.48,4.479 1.701,6.809 0.415,4.365 -1.397,8.8 -0.729,13.13 0.489,3.17 2.633,5.887 3.404,9 0.629,2.538 1.338,5.193 0.973,7.781 -0.432,3.057 -2.232,5.769 -3.648,8.512 -0.785,1.519 -1.639,3.02 -2.674,4.379 -1.01,1.324 -1.774,3.327 -3.406,3.648 -3.239,0.638 -5.781,-3.394 -8.998,-4.135 -3.556,-0.819 -7.383,-1.043 -10.943,-0.244 -2.653,0.595 -4.865,2.432 -7.297,3.648 -3.729,1.865 -7.308,4.067 -11.188,5.594 -1.337,0.526 -3.03,0.295 -4.135,1.217 -0.417,0.349 -0.78,0.918 -0.729,1.459 0.164,1.727 1.864,2.983 3.162,4.135 1.549,1.375 3.361,2.581 5.35,3.16 2.336,0.681 4.979,0.984 7.297,0.244 2.039,-0.651 3.238,-2.851 5.107,-3.893 2.578,-1.436 5.321,-2.998 8.268,-3.16 1.924,-0.106 3.854,0.631 5.594,1.459 1.362,0.648 2.504,1.694 3.648,2.676 1.914,1.642 4.533,2.964 5.352,5.35 0.848,2.473 -1.87,5.327 -0.975,7.783 1.022,2.802 4.2,4.264 6.566,6.08 2.052,1.574 5.29,1.884 6.568,4.133 1.603,2.82 0.583,6.503 0.242,9.729 -0.219,2.073 -2.432,4.378 -1.459,6.08 0.973,1.702 6.08,3.892 7.05,3.648 0.973,-0.243 3.162,-3.891 3.162,-3.891 0,0 -0.299,-4.864 -0.244,-7.297 0.07,-3.089 0.705,-6.152 0.73,-9.242 0.021,-2.599 0.791,-5.518 -0.486,-7.781 -1.26,-2.233 -4.223,-2.91 -6.324,-4.379 -2.765,-1.933 -6.389,-3.03 -8.268,-5.836 -1.62,-2.418 -2.249,-5.617 -1.947,-8.512 0.241,-2.309 1.766,-4.31 2.92,-6.324 2.751,-4.8 5.934,-9.377 9.484,-13.619 2.428,-2.901 6.319,-4.649 8.03,-8.03 1.22,-2.415 1.014,-5.327 1.217,-8.03 0.097,-1.293 0.407,-2.661 0,-3.893 -1.11,-3.356 -5.355,-5.113 -6.324,-8.512 -0.803,-2.816 0.047,-5.908 0.73,-8.756 0.45,-1.874 0.93,-3.89 2.188,-5.35 2.586,-3 6.783,-4.1 10.215,-6.08 2.735,-1.578 5.466,-3.169 8.27,-4.621 1.835,-0.95 3.527,-2.694 5.594,-2.676 3.263,0.029 6.46,2.06 8.756,4.379 2.602,2.628 2.738,6.945 4.863,9.971 2.274,3.237 6.173,5.158 8.27,8.512 1.645,2.631 2.01,5.875 3.162,8.756 0.822,2.056 0.462,5.978 2.674,6.08 2.501,0.116 2.557,-4.313 3.648,-6.566 0.919,-1.897 0.91,-4.377 2.432,-5.836 2.369,-2.272 6.714,-1.312 9.242,-3.406 1.456,-1.206 2.973,-2.973 2.918,-4.863 -0.063,-2.158 -2.04,-3.911 -3.648,-5.352 -2.188,-1.96 -5.341,-2.498 -7.781,-4.133 -3.062,-2.05 -7.112,-3.646 -8.512,-7.05 -1.238,-3.01 -0.649,-6.9 0.973,-9.727 1.097,-1.913 4.463,-1.873 5.35,-3.893 0.589,-1.342 0.689,-3.096 0.229,-4.57 0.427,-0.09 0.867,-0.223 1.23,-0.293 2.143,-0.413 4.207,-1.311 6.08,-2.432 3.358,-2.01 5.221,-6.516 8.998,-7.539 4.206,-1.14 8.768,0.775 12.891,2.188 4.872,1.669 9.195,4.66 13.619,7.297 3.921,2.337 8.677,3.9 11.432,7.539 2.259,2.985 2.907,6.991 3.404,10.701 0.259,1.93 0.395,3.996 -0.244,5.836 -0.952,2.742 -2.759,5.347 -5.107,7.05 -2.137,1.552 -5.985,0.299 -7.539,2.434 -1.479,2.032 -1.583,5.588 0,7.539 1.984,2.445 6.095,2.029 9.242,1.945 5.03,-0.134 12.434,0.657 14.592,-3.891 1.182,-2.491 -3.715,-4.799 -3.404,-7.539 0.287,-2.529 2.638,-4.484 4.621,-6.08 1.949,-1.569 4.357,-3.666 6.809,-3.162 3.093,0.635 3.489,5.663 6.324,7.05 2.044,1 4.557,0.806 6.811,0.486 3.25,-0.461 8.678,-0.17 9.24,-3.404 0.778,-4.479 -7.797,-5.069 -10.457,-8.756 -1.937,-2.686 -1.06,-7.176 -3.648,-9.242 -2.5,-1.996 -6.304,-1.114 -9.484,-1.459 -3.796,-0.412 -7.902,0.726 -11.432,-0.73 -3.187,-1.315 -5.674,-4.081 -7.781,-6.809 -1.662,-2.152 -2.786,-4.718 -3.648,-7.297 -0.994,-2.971 -0.219,-6.484 -1.703,-9.242 -1.385,-2.575 -4.059,-4.229 -6.322,-6.08 -1.984,-1.623 -3.889,-3.574 -6.324,-4.377 -2.465,-0.812 -5.186,-0.202 -7.781,-0.242 -2.189,-0.034 -4.568,-0.893 -6.566,0 -1.887,0.844 -2.467,3.398 -4.135,4.619 -1.435,1.05 -3.485,1.068 -4.865,2.189 -0.856,0.695 -0.868,2.912 -1.945,2.676 -0.404,-0.088 0.162,-1.131 -0.242,-1.217 -2.332,-0.496 -2.472,4.129 -4.135,5.838 -1.696,1.743 -4.376,2.433 -5.838,4.377 -1.511,2.01 -1.623,4.768 -2.674,7.05 -0.192,0.417 -0.61,0.824 -0.967,1.227 -0.003,-0.003 -0.003,-0.007 -0.006,0 -0.84,-0.912 -2.709,0.079 -3.648,-0.73 -1.632,-1.406 -0.375,-4.919 -2.189,-6.08 -1.576,-1.01 -4.243,-0.809 -5.594,0.486 -1.829,1.754 0.179,5.282 -0.973,7.539 -0.86,1.686 -2.273,3.553 -4.135,3.893 -1.971,0.359 -3.793,-1.236 -5.559,-2.262 0.576,-0.779 0.997,-1.709 1.283,-2.602 0.497,-1.549 -0.721,-3.424 0,-4.883 0.907,-1.836 3.428,-2.288 4.881,-3.732 2.661,-2.645 3.872,-6.673 6.893,-8.9 0.529,-0.39 1.155,-0.598 1.797,-0.777 0.561,2.172 1.728,4.428 3.596,5.645 1.441,0.938 3.432,1.119 5.107,0.73 2.388,-0.553 4.307,-2.442 6.08,-4.135 1.759,-1.679 3.756,-3.484 4.377,-5.836 0.813,-3.082 0.371,-6.722 -1.217,-9.486 -0.662,-1.153 -2.01,-1.773 -3.16,-2.432 -0.817,-0.466 -1.682,-1.11 -2.563,-1.697 -1.222,-1.423 -3.707,-1.693 -4.83,-3.26 -2.275,-3.174 -2.673,-7.371 -3.445,-11.199 -2.473,-12.258 -2.902,-24.851 -3.732,-37.33 -0.191,-2.867 1.388,-6.279 -0.287,-8.613 -0.954,-1.329 -3.034,-1.236 -4.596,-1.723 -1.507,-0.469 -3.03,-0.93 -4.594,-1.148 -2.94,-0.41 -6.357,1.244 -8.9,-0.287 -1.983,-1.194 -4.054,-3.798 -3.445,-6.03 0.203,-0.744 1.24,-1.088 2.01,-1.148 2.96,-0.232 5.475,2.33 8.326,3.158 3.191,0.927 6.809,3.529 9.764,2.01 1.677,-0.862 2.457,-3.289 2.297,-5.168 -0.176,-2.063 -1.635,-4.163 -3.445,-5.168 -2.763,-1.533 -6.317,-0.239 -9.477,-0.287 -2.584,-0.039 -5.872,1.773 -7.752,0 -1.186,-1.118 -0.093,-3.263 -0.287,-4.881 -0.043,-0.363 -0.055,-0.746 -0.061,-1.135 2.984,-0.37 6.05,0.005 9.06,0.178 2.282,0.131 4.652,1.539 6.811,0.787 1.399,-0.488 2.491,-1.813 3.143,-3.145 0.619,-1.265 1.276,-3 0.525,-4.191 -1.178,-1.869 -4.1,-1.787 -6.287,-2.096 -2.077,-0.293 -4.402,1.182 -6.287,0.262 -2.025,-0.989 -4.708,-3.385 -3.93,-5.5 0.746,-2.027 4.143,-1.308 6.287,-1.572 1.907,-0.235 3.965,0.676 5.764,0 1.738,-0.653 4.053,-1.817 4.191,-3.668 0.111,-1.483 -1.534,-2.781 -2.883,-3.406 -1.98,-0.919 -4.375,0.196 -6.549,0 -1.945,-0.175 -4.28,0.223 -5.764,-1.047 -1.615,-1.383 -3.405,-4.35 -2.096,-6.03 1.782,-2.28 5.759,0.574 8.645,0.785 1.57,0.115 3.275,0.896 4.717,0.264 1.761,-0.772 4.134,-2.59 3.666,-4.455 -0.39,-1.557 -2.874,-1.544 -4.453,-1.834 -3.179,-0.584 -6.743,1.587 -9.691,0.264 -1.979,-0.888 -4.571,-2.843 -4.191,-4.979 0.37,-2.079 3.451,-2.632 5.5,-3.143 2.713,-0.675 5.587,0.218 8.383,0.262 0.698,0.011 1.576,0.467 2.096,0 1.829,-1.644 2.242,-5.354 0.787,-7.336 -1.581,-2.153 -5.201,-1.307 -7.859,-1.57 -2.781,-0.275 -5.876,1.234 -8.383,0 -1.285,-0.633 -3.03,-2.033 -2.619,-3.406 0.894,-3.02 5.783,-2.75 8.906,-3.145 2.957,-0.373 6.089,1.76 8.906,0.787 1.81,-0.625 4.224,-2.01 4.191,-3.93 -0.032,-1.856 -2.49,-2.925 -4.191,-3.668 -3.058,-1.336 -6.623,-0.872 -9.955,-1.047 -2.703,-0.142 -6.579,2.225 -8.121,0 -1.7,-2.453 0.644,-6.754 3.145,-8.383 2.565,-1.671 6.111,0.356 9.168,0.523 1.659,0.091 3.397,0.77 4.979,0.262 1.065,-0.342 2.737,-0.984 2.619,-2.096 -0.206,-1.942 -3.382,-2.02 -5.24,-2.619 -3.115,-1.01 -7.391,0.756 -9.691,-1.572 -1.241,-1.256 -1.676,-3.714 -0.787,-5.24 1.224,-2.102 4.421,-2.175 6.813,-2.619 2.318,-0.43 4.911,0.942 7.07,0 1.529,-0.667 2.958,-2.061 3.406,-3.668 0.695,-2.491 -0.221,-5.391 -1.572,-7.596 -1.461,-2.383 -3.911,-4.315 -6.549,-5.24 -2.554,-0.896 -6.207,1.914 -8.121,0 -1.605,-1.605 -1.705,-5.311 0,-6.811 2.05,-1.802 5.522,0.214 8.121,1.047 2.641,0.846 4.578,3.618 7.334,3.93 0.989,0.112 2.133,-0.13 2.883,-0.785 2.358,-2.059 3.96,-5.528 3.668,-8.645 -0.176,-1.881 -1.411,-3.966 -3.145,-4.717 -1.95,-0.845 -4.794,-0.463 -6.287,1.049 -0.807,0.817 0.336,2.644 -0.523,3.406 -1.961,1.74 -5.421,1.224 -7.859,0.262 -1.838,-0.726 -3.825,-2.25 -4.191,-4.191 -0.283,-1.499 0.513,-3.429 1.834,-4.191 2.054,-1.187 4.704,0.654 7.07,0.785 0.61,0.034 1.273,0.244 1.834,0 1.643,-0.714 3.411,-2.156 3.668,-3.93 0.224,-1.546 -0.807,-3.309 -2.096,-4.191 -2.316,-1.585 -5.604,-0.389 -8.383,-0.785 -2.289,-0.327 -5.338,0.472 -6.811,-1.311 -0.779,-0.943 -0.643,-2.628 0,-3.668 1.472,-2.382 6.02,-2.164 8.791,-3.092 2.879,0.386 6.516,2.115 8.66,0.18 1.205,-1.088 1.273,-3.492 0.389,-4.854 -0.636,-0.979 -2.187,-0.817 -3.301,-1.166 -2.563,-0.803 -5.195,-1.373 -7.77,-2.137 -1.433,-0.425 -3.508,-0.075 -4.271,-1.359 -0.876,-1.473 -0.351,-3.957 0.971,-5.05 1.497,-1.237 3.884,0 5.826,0 h 4.271 c 0.917,0 1.909,0.28 2.838,0.322 0.087,0.794 0.479,1.605 1.109,2.01 1.468,0.938 3.605,0.382 5.219,-0.273 0.902,-0.366 1.389,-1.381 2.197,-1.924 4.249,-2.853 9.768,-3.628 13.732,-6.865 3.333,-2.722 5.711,-6.496 7.965,-10.162 2.488,-4.047 2.772,-9.464 6.04,-12.91 1.071,-1.129 2.804,-1.366 4.119,-2.197 2.6,-1.644 7.279,-2.419 7.416,-5.492 0.098,-2.203 -2.831,-3.763 -4.943,-4.395 -1.363,-0.408 -2.841,-0.568 -4.322,-0.5 -2.469,0.113 -4.949,0.86 -6.939,2.148 -4.01,2.595 -5.317,7.94 -7.689,12.08 -2.096,3.66 -3.167,7.943 -5.77,11.262 -2.243,2.86 -5.948,4.319 -8.238,7.141 -1.188,1.464 -1.276,3.766 -2.748,4.943 -1.164,0.931 -2.981,0.566 -4.318,1.193 -0.398,-1.259 -1.368,-2.446 -1.59,-3.764 -0.215,-1.277 -0.016,-2.59 0,-3.885 0.032,-2.59 1.914,-5.831 0.193,-7.768 -1.857,-2.09 -5.767,0.288 -8.352,-0.777 -1.318,-0.543 -2.037,-2.058 -3.301,-2.719 -2.324,-1.216 -5.747,-0.254 -7.574,-2.137 -1.487,-1.532 -2.01,-4.129 -1.555,-6.215 0.707,-3.24 3.07,-6.716 6.215,-7.768 2.472,-0.826 5.917,-0.07 7.574,1.941 2.103,2.552 -1.372,7.239 0.584,9.906 0.86,1.173 2.88,2.378 4.078,1.553 1.386,-0.955 0.047,-3.366 0,-5.05 -0.065,-2.333 -0.648,-4.673 -0.389,-6.992 0.472,-4.215 2.908,-8.03 3.496,-12.234 1.024,-7.309 2.196,-15.09 0,-22.14 -0.983,-3.154 -3.25,-5.867 -5.633,-8.156 -2.707,-2.6 -5.984,-4.749 -9.516,-6.02 -2.395,-0.863 -5.967,1 -7.574,-0.971 -1.599,-1.964 -1.257,-5.834 0.582,-7.574 2.211,-2.091 6.417,1.186 9.129,-0.195 1.811,-0.923 3.946,-2.837 3.689,-4.854 -0.197,-1.555 -2.265,-2.26 -3.689,-2.914 -2.757,-1.267 -6.298,-0.244 -8.934,-1.748 -1.354,-0.773 -2.822,-1.963 -3.107,-3.496 -0.303,-1.631 1.063,-3.148 1.746,-4.66 0.851,-1.884 2.502,-3.46 3.01,-5.441 2.148,-0.331 2.892,3.542 4.912,4.396 2.283,0.966 5.657,2.295 7.416,0.549 1.954,-1.939 0.846,-5.867 -0.549,-8.24 -0.94,-1.598 -2.908,-2.442 -4.67,-3.02 -2.963,-0.971 -7.238,1.754 -9.338,-0.551 -1.789,-1.964 -1.873,-6.402 0.275,-7.965 1.617,-1.176 3.871,1.014 5.768,1.648 2.419,0.809 4.718,3.545 7.141,2.746 2.267,-0.747 3.824,-3.654 3.846,-6.04 0.018,-1.931 -1.323,-4.03 -3.02,-4.945 -2.658,-1.438 -6.2,1.239 -9.06,0.275 -2.9,-0.976 -7.24,-2.709 -7.141,-5.768 0.062,-1.904 2.814,-2.866 4.67,-3.297 2.258,-0.524 4.871,2.281 6.865,1.1 1.171,-0.693 1.703,-2.525 1.373,-3.846 -0.33,-1.32 -1.845,-2.058 -3.02,-2.746 -1.999,-1.17 -5.04,-0.477 -6.592,-2.197 -1.131,-1.254 -1.987,-3.507 -1.1,-4.943 0.794,-1.284 3.02,-0.477 4.395,-1.1 1.319,-0.597 2.741,-1.284 3.57,-2.471 1.247,-1.783 1.835,-4.15 1.648,-6.318 -0.189,-2.204 -1.808,-4.04 -2.746,-6.04 -1.163,-2.485 -1.713,-5.395 -3.57,-7.414 -1.07,-1.163 -2.478,-2.612 -4.01,-2.766 m 129.99,5.44 c 0.801,-0.031 1.6,0.028 2.396,0.207 2.122,0.478 4.766,1.761 5.244,3.883 0.484,2.147 -1.46,4.366 -3.107,5.826 -2.546,2.257 -6.194,2.963 -9.518,3.691 -5.132,1.125 -10.539,1.776 -15.73,0.971 -4.253,-0.66 -11.593,-0.382 -12.04,-4.662 -0.185,-1.768 2.813,-2.261 4.467,-2.912 1.406,-0.554 2.99,-0.457 4.467,-0.777 4.511,-0.979 8.9,-2.467 13.4,-3.496 3.449,-0.789 6.951,-2.594 10.422,-2.73 m -192.61,0.484 c -0.162,-0.025 -0.329,-0.015 -0.492,0.006 -0.421,0.053 -0.893,0.052 -1.238,0.299 -1.373,0.981 -3.211,2.657 -2.719,4.271 0.659,2.163 3.96,2.898 6.215,2.721 1.441,-0.114 3.289,-0.94 3.65,-2.34 0.367,-1.422 -0.968,-2.935 -2.096,-3.875 -0.894,-0.745 -2.17,-0.906 -3.32,-1.082 m 107.95,8.16 c -0.96,-0.011 -1.918,0.053 -2.873,0.217 -4.04,0.691 -9.692,1.608 -10.986,5.492 -0.583,1.748 0.941,3.921 2.473,4.945 3.205,2.142 7.694,0.493 11.535,0.822 4.584,0.393 10.594,-1.989 13.732,1.375 2.062,2.21 -1.056,6.349 0.275,9.06 0.888,1.81 2.77,3.165 4.668,3.846 2.413,0.866 5.242,-0.756 7.691,0 2.329,0.718 3.869,3.01 6.04,4.119 2.426,1.235 5.089,3.544 7.691,2.746 1.628,-0.499 1.502,-3.35 3.02,-4.119 2.205,-1.117 5.173,-1.042 7.414,0 2.062,0.959 2.582,3.845 4.395,5.219 1.763,1.337 3.84,2.545 6.04,2.746 1.504,0.137 3.345,-0.012 4.395,-1.098 0.911,-0.942 1.239,-2.602 0.824,-3.846 -1.189,-3.571 -5.499,-5.163 -8.514,-7.416 -1.913,-1.429 -3.989,-2.629 -6.04,-3.846 -3.596,-2.13 -7.02,-4.717 -10.986,-6.04 -2.456,-0.82 -5.956,0.824 -7.689,-1.1 -1.595,-1.769 1.286,-5.341 -0.275,-7.141 -1.342,-1.546 -4.03,-0.723 -6.04,-1.1 -4.765,-0.891 -9.493,-1.987 -14.281,-2.746 -4.146,-0.657 -8.347,-2.092 -12.508,-2.139 m -11.621,15.547 c -1.474,0.036 -3.131,0.516 -4.436,0.875 -1.787,0.492 -4.335,1.196 -4.67,3.02 -0.308,1.675 1.437,3.497 3.02,4.121 1.821,0.717 4.062,-0.139 5.768,-1.1 1.073,-0.605 1.883,-1.665 2.473,-2.746 0.5,-0.916 1.442,-2.18 0.824,-3.02 -0.549,-0.747 -1.394,-1.064 -2.361,-1.135 -0.202,-0.015 -0.409,-0.019 -0.619,-0.014 m 127.7,0.34 c -1.198,-0.056 -2.406,0.204 -3.324,0.809 -2.784,1.832 -1.72,6.567 -3.57,9.338 -1.331,1.993 -2.962,4.138 -5.219,4.945 -3.63,1.299 -7.71,-1.305 -11.535,-0.824 -2.01,0.253 -4.113,0.751 -5.768,1.922 -0.852,0.603 -1.11,1.817 -1.922,2.473 -2.134,1.724 -4.731,3.01 -7.416,3.57 -2.51,0.526 -5.628,-1.801 -7.689,-0.275 -2.285,1.691 -3.713,5.835 -2.197,8.24 1.589,2.521 5.951,0.732 8.787,1.648 3.274,1.058 5.904,4.584 9.34,4.395 3.324,-0.183 5.401,-4.04 8.514,-5.219 2.956,-1.12 6.185,-1.868 9.338,-1.648 3.553,0.247 6.842,2.01 10.162,3.297 3.094,1.201 7.424,1.234 9.06,4.119 0.819,1.441 -0.126,3.34 -0.549,4.943 -0.356,1.349 -0.568,2.963 -1.648,3.846 -2.1,1.715 -5.355,2.384 -7.965,1.648 -1.933,-0.545 -2.882,-2.8 -4.395,-4.121 -1.422,-1.241 -2.616,-2.939 -4.395,-3.57 -3.882,-1.378 -8.436,-1.258 -12.359,0 -2.25,0.721 -4.458,2.154 -5.768,4.121 -1.822,2.735 -3.863,6.779 -2.197,9.611 1.498,2.547 6.819,0.052 8.514,2.473 1.579,2.255 -2.083,5.955 -0.549,8.24 1.614,2.403 5.435,3.467 8.238,2.746 3.137,-0.807 3.353,-7.117 6.592,-7.141 2.525,-0.018 3.407,3.733 5.219,5.492 1.675,1.626 2.892,4.864 5.219,4.67 2.921,-0.243 3.345,-4.873 5.494,-6.867 1.545,-1.433 3.236,-2.851 5.217,-3.57 2.681,-0.973 6.384,1.07 8.516,-0.824 1.61,-1.431 2.153,-4.308 1.373,-6.316 -0.974,-2.51 -7.07,-2.02 -6.592,-4.67 0.685,-3.826 8.234,-0.584 11.262,-3.02 2.328,-1.874 5.05,-5.123 4.119,-7.965 -0.761,-2.336 -4.544,-1.939 -6.592,-3.295 -3.411,-2.259 -9.902,-3.913 -9.338,-7.965 0.333,-2.394 5.057,-1.154 6.592,-3.02 1.495,-1.818 2.829,-4.832 1.646,-6.867 -1.485,-2.555 -5.762,-1.394 -8.514,-2.471 -2.669,-1.045 -5.801,-1.69 -7.689,-3.846 -1.851,-2.112 -0.496,-6.287 -2.748,-7.965 -0.882,-0.657 -2.07,-1.028 -3.268,-1.084 m -318.24,0.896 c -2.155,0.067 -4.491,1.135 -6.184,2.355 -2.774,2 -2.981,6.21 -5.05,8.934 -0.997,1.312 -1.892,3.109 -3.494,3.496 -1.851,0.447 -3.628,-1.163 -5.439,-1.748 -2.396,-0.774 -4.674,-2.143 -7.186,-2.33 -1.571,-0.117 -3.358,-0.109 -4.66,0.777 -2.496,1.7 -5.824,4.98 -4.662,7.768 1.359,3.261 7.782,0.041 10.293,2.525 1.853,1.833 2.959,5.174 1.943,7.574 -1.017,2.403 -4.522,2.606 -6.797,3.885 -2.45,1.377 -7.416,1.268 -7.381,4.078 0.043,3.503 5.878,4.212 9.322,4.855 2.881,0.538 6.256,-2.527 8.74,-0.971 1.805,1.13 2.814,4 2.135,6.02 -0.79,2.348 -6.074,1.604 -6.215,4.078 -0.144,2.524 3.456,3.976 5.826,4.855 3.824,1.419 9.786,-3.066 12.236,0.195 1.33,1.77 -2.44,4.305 -1.748,6.408 1.109,3.371 4.813,6.329 8.351,6.604 3.41,0.264 6.996,-2.232 8.934,-5.05 1.742,-2.535 -1.277,-7.542 1.359,-9.127 2.825,-1.698 6.04,3.036 9.322,3.301 3.607,0.29 7.948,0.43 10.682,-1.941 1.701,-1.475 2.237,-4.159 2.137,-6.408 -0.123,-2.751 -1.077,-5.952 -3.303,-7.574 -1.577,-1.149 -3.956,-0.027 -5.826,-0.584 -1.748,-0.521 -3.178,-1.806 -4.855,-2.523 -2.579,-1.103 -5.196,-2.259 -7.963,-2.719 -2.938,-0.488 -6.204,-1.19 -8.934,0 -2.267,0.989 -2.753,4.516 -5.05,5.438 -3.069,1.232 -7.557,1.745 -9.904,-0.584 -1.382,-1.371 -1.111,-4.02 -0.389,-5.826 1.24,-3.106 4.419,-5.24 7.379,-6.797 3.35,-1.762 7.287,-2.424 11.07,-2.525 3.809,-0.102 7.741,0.492 11.264,1.943 2.923,1.204 5.56,3.177 7.77,5.438 1.795,1.836 1.93,5.36 4.273,6.408 1.672,0.747 3.918,0.247 5.438,-0.775 1.492,-1 1.192,-3.711 2.719,-4.662 2.314,-1.441 5.461,-0.171 8.156,-0.582 3.353,-0.511 7.183,-0.305 9.904,-2.33 1.978,-1.472 3.727,-3.945 3.691,-6.41 -0.029,-1.976 -1.963,-3.438 -3.107,-5.05 -1.306,-1.838 -2.035,-4.976 -4.273,-5.244 -2.34,-0.28 -3.531,3.209 -5.633,4.273 -3.856,1.953 -8.176,4.466 -12.428,3.689 -3.999,-0.73 -6.237,-5.267 -9.711,-7.379 -3.489,-2.121 -7.561,-3.158 -11.07,-5.244 -2.549,-1.515 -5.392,-2.883 -7.186,-5.244 -1,-1.321 -0.299,-3.851 -1.748,-4.66 -0.828,-0.462 -1.77,-0.64 -2.75,-0.609 m 200.48,0.4 c -1.697,0.036 -3.292,0.345 -3.67,1.709 -0.484,1.747 2.203,3.08 3.846,3.846 1.916,0.893 4.304,1.196 6.316,0.549 0.804,-0.258 1.728,-0.827 1.924,-1.648 0.276,-1.158 -0.477,-2.512 -1.373,-3.295 -1.07,-0.935 -2.7,-1.087 -4.121,-1.098 -0.849,-0.007 -1.904,-0.084 -2.922,-0.063 m -114.14,2.672 c -2.079,0.032 -4.162,1.231 -5.908,2.391 -2.024,1.344 -2.608,4.515 -4.855,5.439 -2.939,1.209 -6.364,-0.174 -9.516,-0.584 -1.309,-0.17 -2.613,-1.129 -3.885,-0.775 -1.942,0.54 -4.099,2.096 -4.467,4.078 -0.159,0.854 0.453,1.835 1.166,2.33 1.497,1.04 3.615,0.598 5.438,0.582 3.131,-0.028 6.387,-2.254 9.322,-1.164 1.719,0.638 2.229,2.969 3.689,4.078 2.19,1.663 4.675,4.18 7.381,3.689 2.434,-0.441 3.332,-3.656 5.05,-5.438 1.08,-1.121 2.665,-1.883 3.303,-3.303 0.903,-2.01 1.314,-4.601 0.387,-6.602 -1.09,-2.349 -3.657,-4.258 -6.215,-4.662 -0.296,-0.047 -0.592,-0.065 -0.889,-0.06 m 113.35,9.432 c -1.33,-0.037 -2.665,0.11 -3.979,0.318 -2.325,0.369 -4.721,0.68 -6.867,1.646 -2.038,0.918 -4,2.18 -5.492,3.846 -1.529,1.71 -3.142,3.754 -3.297,6.04 -0.139,2.053 0.431,4.712 2.197,5.768 1.823,1.089 4.413,0.114 6.318,-0.824 2.439,-1.201 3.424,-4.389 5.768,-5.768 2.872,-1.69 7.257,-0.389 9.613,-2.746 1.414,-1.414 2.37,-3.904 1.646,-5.768 -0.506,-1.303 -2.255,-1.727 -3.57,-2.197 -0.741,-0.265 -1.552,-0.297 -2.338,-0.318 m -95.44,1.586 c -1.259,-0.017 -2.476,0.208 -3.547,0.789 -2.744,1.49 -3.461,5.273 -4.484,8.223 -0.974,2.806 -0.928,5.87 -1.496,8.785 -0.5,2.567 0.158,5.805 -1.682,7.664 -1.169,1.182 -3.367,1.853 -4.859,1.121 -1.602,-0.785 -1.056,-3.528 -2.244,-4.859 -1.359,-1.522 -3.261,-2.651 -5.232,-3.178 -2.589,-0.692 -6.06,-1.623 -8.04,0.188 -1.664,1.525 0.852,5.137 -0.748,6.729 -0.844,0.839 -2.454,0.837 -3.551,0.373 -1.022,-0.432 -1.361,-1.751 -2.057,-2.615 -1.166,-1.447 -1.767,-3.778 -3.551,-4.301 -1.569,-0.46 -3.373,0.505 -4.674,1.496 -1.361,1.037 -1.943,2.82 -2.803,4.299 -1.232,2.12 -1.232,5.333 -3.365,6.543 -2.552,1.448 -5.906,-1.128 -8.785,-0.563 -2.242,0.44 -4.883,1.103 -6.168,2.992 -1.863,2.738 -1.064,6.61 -0.748,9.906 0.271,2.829 1.262,5.556 2.244,8.223 0.809,2.197 2.575,4.051 2.99,6.355 0.266,1.477 -1.117,3.183 -0.373,4.486 1.063,1.864 3.665,3.076 5.793,2.803 2.762,-0.355 4.206,-3.651 6.355,-5.42 2.089,-1.719 3.728,-4.402 6.355,-5.05 3.204,-0.786 7.089,-0.124 9.719,1.869 1.332,1.01 0.685,3.878 2.242,4.486 2.296,0.898 4.821,-1.318 6.916,-2.617 3.035,-1.882 4.991,-5.152 7.852,-7.289 1.566,-1.17 4.077,-1.291 5.04,-2.99 0.956,-1.678 1.342,-4.406 0,-5.795 -2.556,-2.644 -7.615,-1.746 -11.03,-0.373 -2.984,1.201 -3.742,5.723 -6.729,6.916 -2.953,1.179 -7.833,2.314 -9.531,-0.375 -1.52,-2.407 1.636,-5.586 3.363,-7.85 2.125,-2.785 4.923,-5.372 8.225,-6.543 6.166,-2.186 13.651,-2.852 19.625,-0.186 1.895,0.846 2.481,3.391 4.113,4.672 2.433,1.91 7.211,1.376 8.223,4.299 0.894,2.583 -1.205,5.8 -3.363,7.477 -1.998,1.552 -5.251,0.105 -7.477,1.309 -2.326,1.259 -5.969,3.207 -5.422,5.795 0.658,3.114 7.765,0.724 8.785,3.738 0.689,2.035 -1.548,4.208 -3.178,5.607 -2.124,1.824 -5.983,0.903 -7.85,2.99 -1.33,1.487 -1.528,3.799 -1.494,5.793 0.037,2.208 0.553,4.582 1.869,6.355 1.287,1.735 3.765,2.162 5.42,3.551 2.161,1.814 3.451,4.598 5.793,6.17 2.603,1.748 5.652,3.247 8.785,3.363 1.95,0.072 4.212,-0.318 5.607,-1.682 2.02,-1.969 0.512,-6.165 2.617,-8.04 1.899,-1.689 5.068,-0.686 7.477,-1.496 2.166,-0.728 5.558,-0.788 6.168,-2.99 0.516,-1.865 -3.175,-2.924 -3.178,-4.859 -0.002,-1.486 1.316,-2.754 2.43,-3.738 2.025,-1.79 5.275,-1.749 7.289,-3.551 1.649,-1.475 3.723,-3.402 3.553,-5.607 -0.153,-1.981 -1.983,-4.069 -3.926,-4.486 -3.08,-0.662 -6.142,5.899 -8.598,3.926 -1.391,-1.117 0.753,-3.489 1.121,-5.234 0.38,-1.805 1.346,-3.589 1.121,-5.42 -0.228,-1.853 -0.57,-4.879 -2.43,-5.05 -1.688,-0.152 -2.059,2.695 -2.99,4.111 -1.075,1.634 -2.092,3.31 -2.99,5.05 -2.037,3.939 -3.67,8.08 -5.42,12.15 -1.224,2.849 -1.499,6.275 -3.553,8.598 -1.09,1.233 -2.663,2.615 -4.299,2.43 -2.936,-0.333 -6.864,-3.045 -6.541,-5.982 0.314,-2.858 5.54,-2.175 7.477,-4.299 2.217,-2.431 3.27,-5.79 4.111,-8.971 0.912,-3.446 -0.204,-7.276 0.936,-10.654 0.895,-2.653 2.864,-4.82 4.484,-7.104 1.566,-2.206 2.846,-4.781 5.05,-6.354 1.668,-1.191 4.408,-0.548 5.795,-2.057 1.657,-1.802 2.648,-4.783 1.869,-7.104 -0.706,-2.103 -3.096,-3.52 -5.234,-4.111 -3.329,-0.92 -6.883,1.94 -10.279,1.309 -3.618,-0.672 -7.45,-2.337 -9.719,-5.234 -1.388,-1.773 -2.465,-4.429 -1.684,-6.541 0.791,-2.14 3.339,-4.172 5.607,-3.926 2.104,0.228 2.641,3.358 4.299,4.674 2.579,2.046 5.449,5.821 8.598,4.859 2.132,-0.651 3.397,-3.788 2.992,-5.98 -0.368,-1.995 -2.682,-3.186 -4.486,-4.113 -2.152,-1.106 -4.955,-0.381 -7.104,-1.494 -2.114,-1.095 -3.052,-3.907 -5.232,-4.861 -1.86,-0.814 -4.076,-1.508 -6.174,-1.535 m 117.14,0.937 c -0.332,-0.027 -0.664,-0.027 -0.992,0.006 -0.681,0.068 -1.562,0.207 -1.889,0.809 -1.019,1.879 -0.538,4.942 1.098,6.318 1.261,1.061 3.434,0.661 4.943,0 1.484,-0.65 3.434,-1.956 3.297,-3.57 -0.127,-1.496 -2.206,-2.121 -3.57,-2.748 -0.9,-0.414 -1.892,-0.735 -2.887,-0.814 m 10.846,11.656 c -1.139,0 -2.322,0.281 -3.291,0.695 -1.79,0.766 -2.194,3.362 -3.844,4.395 -2.655,1.661 -6.624,4.433 -9.06,2.471 -1.429,-1.149 1.425,-4.064 0.275,-5.492 -2.095,-2.603 -6.567,-2.01 -9.889,-1.648 -1.961,0.212 -4.209,0.7 -5.492,2.197 -2.385,2.782 0.559,8.653 -2.473,10.711 -3.524,2.393 -10.1,-5.342 -12.635,-1.922 -1.269,1.71 1.52,4.03 2.748,5.768 1.569,2.221 6.392,3.121 5.768,5.768 -0.599,2.536 -6.187,0.175 -7.416,2.473 -0.985,1.841 0.312,4.437 1.648,6.04 1.625,1.95 5.892,0.952 6.865,3.297 0.743,1.792 -3.01,3.887 -1.922,5.492 1.235,1.82 4.393,0.23 6.592,0.275 4.485,0.093 9.163,-1.3 13.457,0 2.843,0.861 4.963,3.267 7.416,4.943 1.845,1.261 3.48,4.816 5.494,3.846 1.322,-0.637 0.332,-2.928 0.273,-4.395 -0.077,-1.941 -1.284,-3.881 -0.824,-5.768 0.373,-1.53 1.41,-3.02 2.748,-3.846 2.443,-1.515 6.598,0.771 8.514,-1.373 1.282,-1.435 1.477,-4.264 0.275,-5.768 -1.973,-2.469 -6.18,-1.554 -9.34,-1.648 -2.395,-0.072 -4.818,0.237 -7.141,0.824 -2.868,0.725 -5.352,3.938 -8.24,3.297 -1.96,-0.435 -4.32,-2.397 -4.119,-4.395 0.348,-3.463 5.548,-4.221 8.514,-6.04 1.675,-1.029 3.31,-2.275 5.219,-2.746 4,-0.988 8.383,-1.079 12.359,0 2.97,0.806 5.195,3.326 7.965,4.668 3.626,1.757 9.166,0.953 11.262,4.395 0.91,1.494 0.667,3.962 -0.549,5.219 -2.314,2.392 -7.203,-0.591 -9.889,1.373 -1.884,1.378 -1.929,4.256 -3.02,6.318 -1.191,2.248 -4.907,4.279 -3.844,6.59 0.856,1.86 4.127,0.372 6.04,1.1 2.304,0.876 4.133,2.706 6.318,3.846 2.217,1.156 4.365,3.083 6.865,3.02 2.251,-0.055 4.859,-1.106 6.04,-3.02 1.251,-2.025 -1.334,-5.17 0,-7.141 2.764,-4.083 10.405,-1.856 13.732,-5.494 1.29,-1.411 2.659,-3.87 1.648,-5.492 -1.472,-2.363 -7.433,1.29 -8.24,-1.375 -0.582,-1.922 2.829,-2.862 4.395,-4.119 1.643,-1.32 5.769,-1.536 5.219,-3.57 -0.672,-2.481 -6.245,1.577 -7.689,-0.549 -1.025,-1.509 2.041,-3.438 1.646,-5.219 -0.645,-2.91 -3.878,-4.541 -6.04,-6.592 -1.463,-1.387 -2.867,-2.944 -4.67,-3.846 -3.118,-1.559 -6.739,-3.132 -10.162,-2.471 -2.32,0.448 -3.565,3.264 -5.768,4.119 -2.837,1.102 -6.619,2.91 -9.06,1.098 -2.54,-1.882 0.73,-7.254 -1.646,-9.338 -0.792,-0.695 -1.888,-0.97 -3.03,-0.969 m -215.13,39.37 c -0.994,-0.024 -1.99,0.118 -2.865,0.396 -1.487,0.473 -2.314,2.11 -3.311,3.311 -1.014,1.222 -1.5,2.88 -2.689,3.932 -1.687,1.492 -3.892,2.318 -6,3.104 -3.323,1.237 -7.815,-0.004 -10.344,2.482 -1.574,1.548 -2.543,4.392 -1.656,6.414 0.88,2.01 4.82,1.141 5.793,3.104 0.775,1.565 0.371,3.901 -0.826,5.172 -2.18,2.315 -6.171,1.581 -9.313,2.07 -3.01,0.469 -7.02,-1.392 -9.103,0.828 -1.654,1.76 -1.542,5.228 -0.207,7.24 1.473,2.22 6.276,0.505 7.449,2.896 0.855,1.744 -0.098,4.426 -1.654,5.588 -2.21,1.651 -6.04,-1.613 -8.277,0 -2.123,1.53 -3.161,4.92 -2.483,7.447 0.621,2.312 3.653,3.101 5.379,4.76 1.653,1.588 5.176,2.71 4.76,4.965 -0.499,2.7 -5.26,1.86 -7.449,3.518 -1.676,1.269 -4.479,2.685 -4.139,4.76 0.375,2.288 3.949,2.44 6,3.518 3.03,1.592 7.373,1.519 9.311,4.344 1.72,2.508 -1.604,7.03 0.619,9.105 2.218,2.072 6.759,1.924 9.105,0 1.632,-1.338 0.379,-4.283 1.24,-6.209 0.985,-2.204 1.984,-5.292 4.346,-5.793 3.322,-0.705 5.796,3.58 8.896,4.967 1.931,0.864 4.185,3.155 6,2.068 1.858,-1.112 1.701,-4.353 1.035,-6.414 -0.63,-1.949 -3.25,-2.615 -4.346,-4.346 -1.097,-1.733 -2.01,-3.743 -2.068,-5.793 -0.053,-1.941 0.761,-3.861 1.654,-5.586 1.332,-2.573 4.388,-4.106 5.381,-6.828 0.733,-2.01 -0.462,-4.382 0.207,-6.414 0.76,-2.308 2.626,-4.097 4.137,-6 1.275,-1.606 2.329,-3.588 4.139,-4.553 3.322,-1.772 7.481,-0.921 11.174,-1.654 0.279,-0.055 0.651,0.017 0.826,-0.207 0.637,-0.815 -0.322,-2.12 0,-3.104 0.399,-1.219 1.626,-1.998 2.277,-3.104 1,-1.701 2.5,-3.404 2.482,-5.379 -0.019,-2.221 -1.707,-4.126 -2.896,-6 -0.998,-1.574 -2.217,-3.01 -3.518,-4.344 -1.708,-1.751 -3.411,-3.64 -5.586,-4.76 -2.528,-1.301 -6.373,0.043 -8.277,-2.068 -1.306,-1.449 0.532,-4.394 -0.828,-5.793 -1.067,-1.097 -2.718,-1.599 -4.375,-1.639 m 268.69,3.621 c -2.584,0.074 -4.663,2.284 -7.141,3.02 -2.496,0.741 -6.14,-0.718 -7.689,1.375 -1.372,1.853 1.748,4.753 0.824,6.865 -1.314,3 -4.995,4.384 -7.967,5.768 -3.08,1.434 -6.57,3.207 -9.887,2.473 -2.415,-0.534 -3.453,-3.798 -5.768,-4.67 -2.144,-0.807 -4.665,0.359 -6.867,-0.273 -2.838,-0.815 -4.914,-3.387 -7.689,-4.395 -3.41,-1.238 -8.538,-4.828 -10.711,-1.924 -3.434,4.59 4.689,10.497 7.689,15.381 1.85,3.01 5.05,5.218 6.316,8.516 1.024,2.661 2.352,6.106 0.824,8.514 -1.459,2.298 -6.605,0.249 -7.689,2.746 -1.47,3.385 2.255,7.155 4.395,10.162 1.728,2.429 5.666,3.21 6.592,6.04 0.435,1.331 -0.333,2.808 -0.824,4.119 -0.776,2.074 -3.457,3.559 -3.297,5.768 0.194,2.667 2.438,5.39 4.945,6.318 2.189,0.811 4.537,-1.211 6.865,-1.373 3.111,-0.216 7.199,-1.72 9.338,0.549 2.387,2.531 -1.642,7.37 0,10.438 1.246,2.328 4.125,3.452 6.592,4.395 1.209,0.462 2.817,1.335 3.846,0.549 1.76,-1.344 0.66,-4.384 0.824,-6.592 0.285,-3.836 0.442,-7.693 0.275,-11.535 -0.216,-4.97 -0.545,-9.982 -1.648,-14.832 -0.861,-3.783 -1.503,-7.894 -3.846,-10.986 -3.374,-4.454 -11.411,-4.531 -13.732,-9.613 -1.109,-2.428 -1.256,-6.293 0.824,-7.965 2.514,-2.02 6.65,-0.174 9.613,1.1 3.403,1.462 6.04,4.381 8.514,7.141 2.423,2.705 2.414,9.177 6.04,9.06 2.01,-0.063 2.793,-3.22 3.02,-5.217 0.281,-2.475 -0.672,-5.172 -2.195,-7.143 -2.237,-2.895 -7.992,-2.366 -9.34,-5.768 -0.908,-2.292 -0.281,-6.04 1.924,-7.141 2.646,-1.323 5.654,1.857 8.238,3.297 2.287,1.275 4.502,2.782 6.318,4.668 1.691,1.756 3.064,3.845 4.119,6.04 1.491,3.107 1.247,6.933 3.02,9.887 1.867,3.108 6.01,4.48 7.689,7.691 1.425,2.72 2.644,6.157 1.648,9.06 -1.156,3.373 -6.968,3.719 -7.965,7.143 -1.329,4.564 0.006,10.93 3.846,13.732 1.998,1.458 5.374,1.12 7.416,-0.275 2.471,-1.689 0.72,-7.325 3.57,-8.24 2.541,-0.816 5.52,1.816 6.865,4.121 1.754,3.01 -2.482,8.313 0.275,10.436 2.833,2.181 7.961,0.108 10.438,-2.471 2.326,-2.422 -0.531,-7.596 1.922,-9.889 2.157,-2.02 7.05,1.291 8.789,-1.098 1.425,-1.961 -0.595,-4.845 -1.373,-7.141 -0.854,-2.52 -4.642,-4.707 -3.57,-7.143 0.805,-1.83 4.197,-0.409 5.768,-1.646 1.9,-1.497 3.933,-3.927 3.57,-6.318 -0.321,-2.113 -3.336,-2.724 -4.67,-4.395 -1.127,-1.411 -2.805,-2.863 -2.746,-4.668 0.091,-2.766 2.863,-4.77 4.67,-6.867 1.057,-1.227 3.557,-1.675 3.57,-3.295 0.023,-2.784 -3.701,-4.262 -6.04,-5.768 -2.488,-1.6 -6.667,-0.792 -8.24,-3.297 -1.415,-2.254 1.219,-5.389 0.551,-7.965 -0.548,-2.114 -1.757,-4.275 -3.57,-5.492 -3.25,-2.182 -8.104,-0.317 -11.537,-2.197 -1.988,-1.089 -2.573,-4.079 -4.668,-4.945 -2.878,-1.191 -6.262,0.762 -9.338,0.275 -4.03,-0.638 -7.456,-4.236 -11.537,-4.119 m -96.13,2.197 c -2.01,-0.078 -4.937,1.029 -5.219,3.02 -0.444,3.142 4.977,4.136 6.592,6.867 0.781,1.321 1.74,2.904 1.373,4.395 -0.34,1.383 -2.936,1.6 -3.02,3.02 -0.195,3.254 3.307,5.917 6.04,7.689 2.218,1.437 5.05,1.76 7.691,1.924 3.037,0.189 6.02,-1.084 9.06,-1.1 1.658,-0.008 3.379,1.098 4.943,0.549 0.733,-0.257 1.326,-0.94 1.648,-1.646 0.534,-1.169 0.948,-2.751 0.275,-3.846 -0.987,-1.609 -3.99,-0.764 -5.219,-2.197 -0.983,-1.146 -1.034,-2.886 -1.1,-4.395 -0.1,-2.316 2.702,-5.193 1.1,-6.867 -1.657,-1.731 -5.584,-0.997 -7.141,0.824 -1.429,1.672 1.754,4.965 0.273,6.592 -1.172,1.288 -3.764,1.237 -5.217,0.275 -2.681,-1.774 -1.329,-6.522 -3.297,-9.06 -2.176,-2.812 -5.236,-5.903 -8.789,-6.04 m -28.12,1.998 c 1.958,-0.008 3.941,0.299 5.658,1.152 1.659,0.824 3.747,2.086 3.93,3.93 0.217,2.193 -1.793,4.341 -3.668,5.5 -1.797,1.11 -4.175,0.767 -6.287,0.787 -1.668,0.016 -3.486,0.225 -4.977,-0.523 -1.381,-0.693 -2.838,-1.892 -3.143,-3.406 -0.403,-2 0.643,-4.325 2.096,-5.764 1.118,-1.108 2.887,-1.413 4.453,-1.572 0.636,-0.065 1.285,-0.101 1.938,-0.104 m -140.84,5.096 c 0.558,-0.022 1.101,0.07 1.602,0.313 2.478,1.202 3.371,4.916 3.104,7.656 -0.233,2.38 -2.509,4.078 -3.932,6 -1.923,2.597 -4.774,4.551 -6.207,7.447 -1.788,3.614 -1.589,7.916 -2.689,11.795 -0.875,3.084 -1.351,6.419 -3.104,9.104 -2.508,3.842 -6.697,6.276 -10.139,9.311 -0.881,0.777 -1.547,2 -2.689,2.275 -2,0.474 -4.842,0.253 -6,-1.447 -1.411,-2.072 -0.056,-5.193 1.035,-7.449 0.956,-1.976 3.227,-3.01 4.551,-4.758 2.461,-3.255 4.518,-6.838 6.207,-10.553 1.354,-2.978 1.778,-6.32 3.104,-9.311 1.539,-3.473 3.71,-6.63 5.588,-9.932 1.573,-2.766 2.255,-6.312 4.758,-8.277 1.313,-1.031 3.137,-2.109 4.813,-2.174 m 41.727,0.734 c -1.971,0.02 -4.071,0.716 -4.951,2.268 -1.403,2.474 -0.041,6.373 2.07,8.277 0.724,0.653 2.401,-0.426 2.896,0.414 0.787,1.335 -0.36,3.495 -1.656,4.344 -2.426,1.588 -5.818,-0.823 -8.689,-0.414 -2.526,0.36 -5.544,0.579 -7.242,2.484 -1.503,1.687 -0.716,4.481 -1.447,6.619 -0.988,2.89 -1.35,6.646 -3.932,8.277 -1.457,0.921 -3.477,-0.304 -5.174,0 -1.955,0.35 -4.293,0.561 -5.586,2.068 -1.788,2.084 -1.292,5.349 -1.654,8.07 -0.292,2.192 0.877,4.826 -0.414,6.621 -1.391,1.934 -4.838,1.11 -6.621,2.689 -1.063,0.942 -2.377,2.338 -2.07,3.725 0.607,2.748 4.35,3.631 6.828,4.965 2.076,1.117 5.279,0.545 6.621,2.482 1.611,2.324 -0.499,5.701 0,8.484 0.35,1.955 0.255,4.78 2.07,5.586 2.037,0.904 4.382,-1.204 6.207,-2.482 2.12,-1.486 2.587,-5.929 5.172,-5.793 2.122,0.111 2.026,3.896 3.725,5.172 2.634,1.978 6.771,5.408 9.311,3.311 3.174,-2.621 -2.247,-8.109 -1.861,-12.207 0.233,-2.476 0.172,-6.116 2.482,-7.04 2.666,-1.06 4.919,3.074 7.656,3.932 2.988,0.936 6.991,3.344 9.311,1.24 2.914,-2.643 -2,-8.194 -0.414,-11.793 0.731,-1.656 2.52,-2.703 4.137,-3.518 2.719,-1.369 6.471,-0.23 8.898,-2.068 2.51,-1.901 1.655,-7.04 4.551,-8.277 1.969,-0.841 4.182,0.962 6.207,1.656 1.842,0.632 4.04,3.687 5.381,2.275 1.742,-1.834 -1.856,-4.759 -3.311,-6.828 -2.384,-3.392 -5.16,-6.724 -8.691,-8.896 -3.511,-2.16 -7.671,-3.695 -11.793,-3.725 -3.6,-0.026 -7.242,1.28 -10.346,3.104 -2.902,1.705 -4.944,4.575 -7.24,7.04 -2.404,2.576 -4.526,5.401 -6.828,8.07 -1.501,1.739 -2.256,5.142 -4.553,5.174 -2.732,0.038 -5.196,-3.295 -5.586,-6 -0.55,-3.816 2.802,-7.305 5.172,-10.346 2.796,-3.587 6.5,-6.468 10.346,-8.896 2.742,-1.731 5.8,-2.971 8.896,-3.932 2.145,-0.665 4.533,-0.418 6.621,-1.242 0.836,-0.33 1.793,-0.688 2.275,-1.447 1.156,-1.819 1.774,-4.477 0.828,-6.414 -0.774,-1.584 -2.851,-2.225 -4.551,-2.689 -2.195,-0.6 -4.715,0.845 -6.828,0 -1.857,-0.743 -2.4,-3.676 -4.346,-4.139 -0.578,-0.137 -1.22,-0.206 -1.877,-0.199 m 239.91,4.271 c 1.911,0.014 3.85,0.337 5.424,0.809 4.28,1.281 7.468,5.419 9.613,9.338 1.974,3.607 1.573,8.07 2.473,12.09 0.845,3.77 1.767,7.522 2.746,11.26 0.602,2.299 1.598,4.512 1.922,6.867 0.162,1.179 0.672,2.588 0,3.57 -0.998,1.459 -3.178,2.02 -4.943,1.922 -2.985,-0.159 -6.217,-1.694 -7.965,-4.119 -2.763,-3.834 -1.414,-9.347 -2.197,-14.01 -0.602,-3.577 0.013,-7.642 -1.922,-10.711 -1.924,-3.052 -6.429,-3.589 -8.789,-6.318 -1.821,-2.106 -5.061,-4.909 -3.846,-7.414 1.195,-2.464 4.3,-3.304 7.484,-3.281 m -141.69,4.734 c 1.921,-0.087 4.209,0.615 6.03,0.986 2.45,0.5 5.326,1.13 6.811,3.143 0.784,1.063 0.743,2.626 0.525,3.93 -0.096,0.578 -0.289,1.264 -0.787,1.572 -2.303,1.423 -5.449,0.434 -8.121,0 -2.181,-0.354 -4.852,-0.416 -6.287,-2.096 -1.38,-1.615 -2.396,-4.646 -1.047,-6.287 0.707,-0.86 1.727,-1.196 2.879,-1.248 m 2.875,15.09 c 0.8,0.012 1.602,0.126 2.367,0.307 2.28,0.538 5.784,0.854 6.287,3.143 0.36,1.638 -2.117,2.604 -3.145,3.93 -0.535,0.69 -0.741,1.827 -1.572,2.096 -1.393,0.45 -2.82,-0.796 -4.191,-1.309 -2.857,-1.068 -8.115,-0.63 -8.383,-3.668 -0.221,-2.509 3.876,-3.462 6.287,-4.191 0.752,-0.228 1.55,-0.318 2.35,-0.307 m 119.96,12.598 c -2.209,0.056 -4.619,1.784 -5.934,3.545 -1.27,1.702 -1.269,4.24 -0.824,6.316 0.293,1.366 1.817,2.226 2.197,3.57 0.648,2.29 0.582,4.833 0,7.141 -0.33,1.311 -0.98,2.604 -1.924,3.572 -1.031,1.057 -3.545,0.75 -3.844,2.195 -0.278,1.345 1.282,2.61 2.471,3.297 2.635,1.523 6.188,2.091 9.06,1.098 2.081,-0.718 4.568,-2.469 4.668,-4.668 0.13,-2.857 -4.962,-3.781 -5.492,-6.592 -0.376,-1.991 0.391,-4.44 1.922,-5.768 0.773,-0.671 2.443,0.296 3.02,-0.549 1.37,-2 -0.663,-4.825 -1.373,-7.143 -0.613,-2 -0.525,-5 -2.473,-5.768 -0.472,-0.185 -0.971,-0.261 -1.48,-0.248 m -123.89,21.05 c 1.321,-0.045 2.69,0.302 3.941,0.711 1.637,0.535 2.963,1.757 4.453,2.621 0.609,0.353 1.462,0.449 1.834,1.047 0.74,1.188 0.828,2.911 0.262,4.191 -0.453,1.023 -1.529,1.857 -2.621,2.096 -1.407,0.307 -2.781,-0.754 -4.191,-1.047 -1.56,-0.324 -3.307,-0.04 -4.715,-0.787 -2.128,-1.13 -5.2,-2.84 -4.977,-5.238 0.18,-1.931 2.843,-2.902 4.715,-3.406 0.424,-0.114 0.859,-0.173 1.299,-0.188 m 5.123,71.5 c 1.034,-0.015 2.054,0.028 2.992,0.086 2.058,0.127 3.82,1.554 5.742,2.299 0.763,0.295 1.763,0.242 2.297,0.861 0.895,1.038 1.284,2.716 0.861,4.02 -0.397,1.225 -1.661,2.145 -2.871,2.584 -2.431,0.882 -5.189,0.056 -7.752,-0.287 -2.922,-0.391 -6.641,0.182 -8.613,-2.01 -1.033,-1.147 -1.441,-3.315 -0.576,-4.594 1.58,-2.337 4.817,-2.914 7.92,-2.959 m -24.738,89.04 c 0.75,-0.003 1.493,0.108 2.176,0.342 2.498,0.856 6.872,3.069 5.742,5.455 -0.33,0.697 -1.958,-0.98 -2.297,-0.287 -0.535,1.094 2.548,1.366 2.584,2.584 0.068,2.304 -2.447,4.332 -4.594,5.17 -0.896,0.35 -1.941,-0.043 -2.871,-0.287 -2.528,-0.665 -5.809,-0.934 -7.18,-3.16 -0.955,-1.551 -0.334,-3.743 0.287,-5.455 0.49,-1.35 1.333,-2.74 2.584,-3.445 1.047,-0.591 2.318,-0.911 3.568,-0.916 m 4.762,31.787 c 0.663,-0.05 1.314,-0.018 1.908,0.242 1.314,0.575 2.302,1.867 2.918,3.162 0.984,2.071 1.796,4.668 0.973,6.809 -0.909,2.364 -3.328,4.522 -5.838,4.863 -2.732,0.372 -5.794,-1.269 -7.539,-3.404 -1.157,-1.416 -1.102,-3.524 -1.215,-5.35 -0.101,-1.626 -0.613,-3.662 0.486,-4.865 1.448,-1.585 4.186,-1.01 6.322,-1.215 0.646,-0.062 1.321,-0.193 1.984,-0.242 m 20.15,0.971 c 2.573,-0.131 5.02,1.585 7.05,3.162 1.231,0.953 1.964,2.417 2.918,3.648 0.496,0.641 1.533,1.138 1.459,1.945 -0.13,1.428 -1.914,2.211 -3.162,2.918 -2.499,1.417 -5.397,2.542 -8.268,2.432 -2.513,-0.096 -5.723,-0.54 -7.05,-2.674 -1.378,-2.211 -0.679,-5.59 0.729,-7.783 1.314,-2.048 3.894,-3.525 6.324,-3.648 m 11.594,15.42 c 0.964,0.002 1.839,0.214 2.512,0.875 1.158,1.138 0.741,3.32 0.242,4.865 -0.319,0.988 -1.043,1.918 -1.945,2.432 -3.059,1.741 -6.937,1.456 -10.457,1.459 -2.373,0.002 -5.813,1.051 -7.05,-0.973 -1.031,-1.684 0.57,-4.178 1.945,-5.594 1.269,-1.307 3.335,-1.522 5.107,-1.945 1.506,-0.36 3.073,-0.43 4.621,-0.486 1.57,-0.057 3.421,-0.637 5.03,-0.633 m -0.512,14.236 c 0.222,-0.013 0.437,-0.009 0.643,0.016 0.548,0.065 1.032,0.277 1.408,0.729 1.7,2.04 0.132,5.863 -1.703,7.783 -0.87,0.91 -2.419,0.702 -3.648,0.973 -1.848,0.406 -3.709,1.149 -5.594,0.973 -3.448,-0.323 -8.408,-0.447 -9.729,-3.648 -0.816,-1.979 0.875,-4.68 2.676,-5.836 3.07,-1.97 7.298,0.063 10.945,0 1.544,-0.027 3.448,-0.901 5,-0.988 m -8.631,12.545 c 1.994,-0.08 4.317,0.796 6.303,1.09 1.829,0.271 4.26,-0.033 5.352,1.459 1.15,1.572 -0.416,3.896 -0.244,5.836 0.066,0.744 0.111,1.543 0.486,2.189 0.605,1.042 1.842,1.561 2.676,2.432 0.876,0.914 2.339,1.657 2.432,2.92 0.125,1.706 -1.737,2.946 -2.674,4.377 -1.084,1.656 -1.618,4.02 -3.406,4.863 -2.938,1.393 -7.01,1.058 -9.729,-0.729 -1.606,-1.056 -3,-3.214 -2.674,-5.107 0.227,-1.3 1.824,-1.938 2.918,-2.676 1.563,-1.054 4.388,-0.689 5.107,-2.432 0.46,-1.114 -0.232,-2.71 -1.217,-3.404 -1.657,-1.167 -4.224,0.813 -6.08,0 -1.314,-0.575 -2.516,-1.785 -2.918,-3.162 -0.647,-2.213 -0.572,-5.355 1.217,-6.811 0.708,-0.576 1.545,-0.809 2.451,-0.846 m 138.06,75.82 c -0.651,0.029 -1.285,0.156 -1.885,0.416 -2.024,0.877 -3.852,3.145 -3.891,5.35 -0.063,3.619 3.202,6.803 6.08,8.998 4.219,3.218 9.786,4.718 15.08,5.107 1.808,0.133 3.946,0.174 5.35,-0.973 1.352,-1.105 2.369,-3.169 1.947,-4.863 -0.334,-1.34 -2.128,-1.761 -3.162,-2.676 -1.075,-0.95 -2.037,-2.028 -3.162,-2.918 -3.297,-2.609 -6.52,-5.576 -10.457,-7.05 -1.836,-0.689 -3.946,-1.476 -5.898,-1.389 m -125.63,39.06 c -0.918,-0.011 -1.854,0.061 -2.695,0.09 -3.845,0.131 -7.335,2.605 -11.172,2.896 -2.696,0.205 -5.835,-2.35 -8.07,-0.828 -1.48,1.01 -2.406,3.66 -1.449,5.174 2.168,3.432 8.04,1.193 12,2.068 2.581,0.57 6.156,-0.108 7.654,2.07 1.925,2.799 -2.122,6.919 -1.033,10.137 1,2.958 4.345,4.49 6.414,6.828 1.785,2.02 3.198,4.375 5.172,6.207 2.609,2.422 6.245,3.619 8.689,6.207 1.064,1.127 2.214,2.405 2.484,3.932 0.455,2.571 -0.328,5.408 -1.656,7.656 -1.442,2.441 -4.341,3.651 -6.414,5.586 -1.64,1.531 -4.832,2.518 -4.758,4.76 0.073,2.198 2.767,4.261 4.965,4.344 0.689,0.026 1.078,-0.865 1.656,-1.24 2.979,-1.932 7.227,-2.299 9.311,-5.174 2.35,-3.242 0.549,-8.18 2.275,-11.793 1.245,-2.605 3.506,-4.618 5.586,-6.621 2.02,-1.943 5.03,-2.865 6.621,-5.172 1.064,-1.545 2.368,-3.645 1.656,-5.381 -0.773,-1.884 -3.414,-2.368 -5.381,-2.896 -4.332,-1.163 -9.316,1.328 -13.449,-0.414 -4.944,-2.084 -8.83,-6.569 -11.586,-11.172 -1.694,-2.829 -2.184,-6.26 -2.689,-9.518 -0.328,-2.114 1.185,-4.79 -0.207,-6.414 -0.914,-1.065 -2.395,-1.314 -3.926,-1.332 m 47.959,36.982 c -0.335,0.019 -0.666,0.066 -0.996,0.145 -1.521,0.361 -2.073,2.505 -3.518,3.104 -1.021,0.423 -2.954,-0.84 -3.311,0.207 -0.709,2.082 3.01,3.331 4.965,4.344 2.079,1.078 4.49,1.53 6.828,1.656 1.597,0.087 3.467,0.322 4.76,-0.621 1.047,-0.764 1.917,-2.249 1.654,-3.518 -0.317,-1.531 -2.138,-2.367 -3.518,-3.104 -2.092,-1.116 -4.523,-2.343 -6.865,-2.213 m 28.484,8.092 c -0.728,-0.012 -1.43,0.154 -1.963,0.535 -1.992,1.425 -2.112,4.953 -1.242,7.242 0.627,1.651 2.505,2.638 4.139,3.311 1.796,0.74 4.246,1.794 5.793,0.619 1.671,-1.269 2.093,-4.396 1.035,-6.207 -0.814,-1.394 -3.626,-0.332 -4.553,-1.654 -0.475,-0.678 0.537,-1.853 0,-2.482 -0.708,-0.83 -1.995,-1.344 -3.209,-1.363"
       id="path1644"
       inkscape:connector-curvature="0"
       style="fill:#ffffff;fill-rule:evenodd" />
  </g>
  <path
     style="fill:none;fill-rule:evenodd;stroke:#000000;stroke-width:11.00004578;stroke-linecap:round;stroke-linejoin:round;stroke-miterlimit:4;stroke-dasharray:none;stroke-opacity:1"
     inkscape:connector-curvature="0"
     d="M 963.43392,5.4992216 961.24402,639.24824 C 950.58232,890.90827 739.92972,1054.7475 484.46692,1054.8885 229.23392,1054.5794 18.502521,890.66882 7.689821,639.24824 L 5.500021,5.4992216 H 484.45542 Z"
     id="path10563-0-6-2-6-4"
     sodipodi:nodetypes="ccccccc" />
</svg>
