<?xml version="1.0" encoding="UTF-8" standalone="no"?>
<!-- Created with Inkscape (http://www.inkscape.org/) -->
<svg
   xmlns:svg="http://www.w3.org/2000/svg"
   xmlns="http://www.w3.org/2000/svg"
   version="1.0"
   width="201.7547"
   height="218.97108"
   id="svg2847">
  <defs
     id="defs2849">
    <clipPath
       id="clipPath227">
      <path
         d="M 404.161,298.193 L 404.161,131.783 L 559.342,131.783 L 559.342,298.193"
         id="path229" />
    </clipPath>
    <clipPath
       id="clipPath409">
      <path
         d="M 404.161,298.193 L 404.161,131.783 L 559.342,131.783 L 559.342,298.193"
         id="path411" />
    </clipPath>
  </defs>
  <g
     transform="translate(-133.50028,-236.6135)"
     id="layer1">
    <path
       d="M 138.61196,243.89165 C 138.61196,243.89165 143.56321,342.7404 145.54946,365.84915 C 147.43571,387.8029 157.33946,408.5354 173.43571,424.22665 C 190.09071,440.46415 211.69946,449.40415 234.28446,449.40415 C 256.86821,449.40415 278.48071,440.46415 295.13321,424.22665 C 311.22946,408.5354 321.13196,387.8029 323.01696,365.84915 C 325.00446,342.7404 329.95946,243.89165 329.95946,243.89165 L 138.61196,243.89165"
       id="path221"
       style="fill:#ffffff;fill-opacity:1;fill-rule:nonzero;stroke:none" />
    <g
       transform="matrix(1.25,0,0,-1.25,-367.90304,615.3829)"
       id="g223">
      <g
         clip-path="url(#clipPath227)"
         id="g225">
        <path
           d="M 405.212,297.193 C 405.212,297.193 409.173,218.114 410.762,199.627 C 412.271,182.064 420.194,165.478 433.071,152.925 C 446.395,139.935 463.682,132.783 481.75,132.783 C 499.817,132.783 517.107,139.935 530.429,152.925 C 543.306,165.478 551.228,182.064 552.736,199.627 C 554.326,218.114 558.29,297.193 558.29,297.193 L 405.212,297.193 z"
           id="path231"
           style="fill:none;stroke:#1b1a1c;stroke-width:2;stroke-linecap:butt;stroke-linejoin:miter;stroke-miterlimit:4;stroke-dasharray:none;stroke-opacity:1" />
      </g>
    </g>
    <path
       d="M 186.79821,313.04665 C 184.42446,312.37165 181.81071,311.40165 181.90071,308.6604 C 182.06321,303.68665 189.58446,304.23415 189.07946,300.7004 C 188.57321,297.16665 180.59696,299.62915 179.48196,295.6604 C 178.36696,291.6904 186.43446,290.55665 185.04446,286.6179 C 183.65321,282.6779 176.62821,288.34165 174.60321,284.19915 C 172.57821,280.05415 179.33321,277.06165 176.89696,273.8629 C 174.45946,270.6629 169.99321,278.1879 166.58821,276.27665 C 163.18446,274.36415 167.07196,267.2379 163.19196,266.45415 C 159.31321,265.67165 158.59196,274.0929 156.30071,274.2454 M 152.42821,317.3554 C 151.72446,316.78915 150.69571,316.89915 150.12946,317.60415 C 149.42071,318.4829 149.55946,319.7679 150.43821,320.4779 C 151.53696,321.3629 153.14446,321.18915 154.03071,320.08915 C 155.13696,318.7154 154.92071,316.70665 153.54821,315.6004 C 151.83071,314.2179 149.31821,314.48915 147.93321,316.2054 C 146.20571,318.3504 146.54321,321.4904 148.68946,323.22165 C 151.37196,325.3804 155.30071,324.95915 157.45946,322.2754 C 160.16071,318.92165 159.63196,314.66665 156.28071,311.31415 C 150.75946,305.7929 147.51321,299.32915 147.51321,288.55915 C 147.51321,265.8429 163.45571,251.26915 182.42946,250.5004 C 204.11321,249.6229 223.68071,269.37915 226.13446,294.6254 M 222.67946,384.8004 C 224.58821,400.69165 211.30821,414.6929 193.01696,416.07165 C 174.72571,417.45165 158.35196,405.68665 156.44321,389.7929 C 154.53321,373.89915 167.81196,359.89665 186.10321,358.5179 M 159.82696,344.75665 C 158.20446,347.70165 149.24446,346.86915 149.24446,350.1129 C 149.24446,353.6804 158.86946,353.37915 158.45946,356.64665 C 158.06821,359.7704 150.46946,359.7704 150.86696,362.89415 C 151.27071,366.07665 157.27571,366.07665 156.87696,369.2604 C 156.51071,372.18165 152.04571,372.18165 152.41696,375.10415 M 183.35071,328.42665 C 180.05821,329.5329 172.78321,326.1804 171.98571,329.3229 C 171.00571,333.18415 181.24821,334.85915 180.40446,338.1779 C 179.56321,341.49665 170.81946,338.6054 170.42321,341.7554 C 170.04446,344.7679 177.00196,346.83165 175.90071,349.6304 C 174.77946,352.4804 169.27946,350.84915 168.89321,353.9229 C 168.53946,356.7379 172.62821,357.95165 171.59821,360.5679 M 147.53196,289.9129 C 147.21571,292.12165 144.01196,291.7579 144.12446,294.01915 C 144.22821,296.0904 146.61196,296.36165 146.32196,298.3904 M 195.90071,404.3729 C 193.66321,405.5854 190.86321,398.66165 188.93946,399.70415 C 187.01696,400.74415 190.31946,406.45665 188.42321,407.1629 C 186.61071,407.83915 184.13321,403.26415 182.57821,404.41415 C 180.99321,405.5854 182.95321,409.20415 181.10571,409.8954 C 179.41071,410.5279 177.95321,407.83415 176.49821,408.91415 M 212.98821,441.5729 C 213.22946,439.1479 216.82821,439.9729 217.66446,437.68665 C 218.57446,435.1954 213.73446,434.08415 213.99696,431.4454 C 214.25571,428.85415 220.37821,430.25915 221.27321,427.81415 C 222.20821,425.25665 214.39321,423.7179 215.05321,420.8429 C 215.71321,417.9679 224.19321,421.06915 224.96071,417.7254 C 225.72821,414.3829 227.05446,396.17165 232.76196,394.26915 M 193.61446,358.7979 C 200.88446,368.27165 203.53571,379.8279 202.20946,388.8404 C 200.88446,397.8529 184.68571,418.38165 196.61946,425.9754 M 219.24696,400.8304 C 217.10696,403.8154 207.71696,408.6179 205.21446,403.7779 C 202.71071,398.9379 211.55571,396.3504 211.55571,392.51165 C 211.55571,388.67415 206.96571,387.9229 204.88071,391.4279 M 201.91071,377.4504 C 202.97446,381.8154 199.93821,394.41165 193.44946,392.9379 C 186.95821,391.46415 191.21821,381.53665 188.05571,378.0929 C 184.88696,374.6454 178.44196,377.9054 179.80696,383.6679 M 178.39071,297.4254 C 172.65321,299.9054 171.32571,290.2604 167.11696,290.0879 C 162.90696,289.9154 161.29821,294.82665 164.78696,297.2304 M 161.84571,370.86665 C 168.04071,359.39415 168.51446,347.97415 161.80196,339.1504"
       id="path233"
       style="fill:none;stroke:#1b1a1c;stroke-width:0.625;stroke-linecap:round;stroke-linejoin:round;stroke-miterlimit:4;stroke-dasharray:none;stroke-opacity:1" />
    <path
       d="M 203.05571,429.9479 C 203.05571,429.5054 203.41321,429.14665 203.85446,429.14665 C 204.29571,429.14665 204.65446,429.5054 204.65446,429.9479 C 204.65446,430.38915 204.29571,430.7454 203.85446,430.7454 C 203.41321,430.7454 203.05571,430.38915 203.05571,429.9479"
       id="path235"
       style="fill:#1b1a1c;fill-opacity:1;fill-rule:nonzero;stroke:none" />
    <path
       d="M 203.05571,425.41665 C 203.05571,424.97665 203.41321,424.6179 203.85446,424.6179 C 204.29571,424.6179 204.65446,424.97665 204.65446,425.41665 C 204.65446,425.8579 204.29571,426.21665 203.85446,426.21665 C 203.41321,426.21665 203.05571,425.8579 203.05571,425.41665"
       id="path237"
       style="fill:#1b1a1c;fill-opacity:1;fill-rule:nonzero;stroke:none" />
    <path
       d="M 199.53071,428.3754 C 199.15071,428.1529 199.01821,427.6654 199.23821,427.28165 C 199.45946,426.9004 199.94821,426.76915 200.33071,426.98915 C 200.71321,427.2104 200.84446,427.70165 200.62321,428.0829 C 200.40196,428.4629 199.91446,428.5954 199.53071,428.3754"
       id="path239"
       style="fill:#1b1a1c;fill-opacity:1;fill-rule:nonzero;stroke:none" />
    <path
       d="M 200.33071,432.90665 C 199.94821,433.12415 199.45946,432.99415 199.23821,432.61415 C 199.01821,432.2329 199.15071,431.74165 199.53071,431.5204 C 199.91321,431.3004 200.40321,431.43165 200.62321,431.8129 C 200.84446,432.19665 200.71321,432.68415 200.33071,432.90665"
       id="path241"
       style="fill:#1b1a1c;fill-opacity:1;fill-rule:nonzero;stroke:none" />
    <path
       d="M 204.65446,434.47915 C 204.65446,434.9179 204.29571,435.27665 203.85446,435.27915 C 203.41446,435.27915 203.05696,434.9179 203.05446,434.47915 C 203.05571,434.03665 203.41446,433.6779 203.85446,433.6779 C 204.29696,433.6804 204.65446,434.03665 204.65446,434.47915"
       id="path243"
       style="fill:#1b1a1c;fill-opacity:1;fill-rule:nonzero;stroke:none" />
    <path
       d="M 208.17821,431.5204 C 208.55946,431.74165 208.69196,432.2304 208.47196,432.61415 C 208.25071,432.99415 207.76071,433.12415 207.37821,432.90665 C 206.99696,432.68415 206.86446,432.19415 207.08571,431.8129 C 207.30696,431.43165 207.79571,431.3004 208.17821,431.5204"
       id="path245"
       style="fill:#1b1a1c;fill-opacity:1;fill-rule:nonzero;stroke:none" />
    <path
       d="M 207.37821,426.98915 C 207.76071,426.77165 208.25071,426.9004 208.47196,427.28165 C 208.69196,427.6654 208.55946,428.1529 208.17946,428.3754 C 207.79696,428.5954 207.30696,428.4629 207.08571,428.0829 C 206.86446,427.69915 206.99571,427.2129 207.37821,426.98915"
       id="path247"
       style="fill:#1b1a1c;fill-opacity:1;fill-rule:nonzero;stroke:none" />
    <path
       d="M 180.14821,391.79415 C 180.11696,391.3554 180.45071,390.9729 180.89196,390.9429 C 181.33071,390.9129 181.71321,391.2454 181.74321,391.68415 C 181.77321,392.12665 181.43946,392.5079 180.99946,392.5379 C 180.55946,392.5679 180.17696,392.23415 180.14821,391.79415"
       id="path249"
       style="fill:#1b1a1c;fill-opacity:1;fill-rule:nonzero;stroke:none" />
    <path
       d="M 179.83946,387.2754 C 179.80946,386.83415 180.14196,386.4529 180.58321,386.42165 C 181.02196,386.39165 181.40571,386.72665 181.43446,387.1654 C 181.46571,387.6079 181.13071,387.9879 180.69071,388.0179 C 180.25071,388.0479 179.86946,387.7154 179.83946,387.2754"
       id="path251"
       style="fill:#1b1a1c;fill-opacity:1;fill-rule:nonzero;stroke:none" />
    <path
       d="M 176.52446,390.4654 C 176.12946,390.27165 175.96446,389.79165 176.15821,389.39665 C 176.35321,389.0004 176.83321,388.83665 177.22821,389.0279 C 177.62446,389.22415 177.78946,389.7029 177.59571,390.1004 C 177.40071,390.4954 176.92196,390.6604 176.52446,390.4654"
       id="path253"
       style="fill:#1b1a1c;fill-opacity:1;fill-rule:nonzero;stroke:none" />
    <path
       d="M 177.63071,394.93165 C 177.26446,395.17665 176.76821,395.0804 176.52071,394.71415 C 176.27571,394.3479 176.37321,393.8504 176.73821,393.6054 C 177.10446,393.35665 177.60446,393.45415 177.84946,393.8229 C 178.09446,394.18665 177.99821,394.6829 177.63071,394.93165"
       id="path255"
       style="fill:#1b1a1c;fill-opacity:1;fill-rule:nonzero;stroke:none" />
    <path
       d="M 182.05071,396.20665 C 182.08196,396.6454 181.74821,397.02915 181.30946,397.05915 C 180.86821,397.0904 180.48696,396.7554 180.45446,396.31415 C 180.42696,395.87665 180.75946,395.4929 181.19946,395.46415 C 181.64071,395.43415 182.02196,395.76415 182.05071,396.20665"
       id="path257"
       style="fill:#1b1a1c;fill-opacity:1;fill-rule:nonzero;stroke:none" />
    <path
       d="M 185.36696,393.01665 C 185.76071,393.20915 185.92821,393.68915 185.73321,394.0854 C 185.53821,394.4829 185.05946,394.64665 184.66321,394.4504 C 184.26696,394.2579 184.10196,393.77665 184.29571,393.3829 C 184.49071,392.9854 184.96821,392.8204 185.36696,393.01665"
       id="path259"
       style="fill:#1b1a1c;fill-opacity:1;fill-rule:nonzero;stroke:none" />
    <path
       d="M 184.26071,388.5504 C 184.62696,388.3054 185.12321,388.39915 185.37071,388.7679 C 185.61696,389.1329 185.51696,389.63165 185.15321,389.87665 C 184.78696,390.12415 184.28821,390.02415 184.04196,389.6604 C 183.79571,389.29415 183.89321,388.7979 184.26071,388.5504"
       id="path261"
       style="fill:#1b1a1c;fill-opacity:1;fill-rule:nonzero;stroke:none" />
    <path
       d="M 233.59071,440.25415 C 233.34321,439.8879 233.44196,439.3904 233.80821,439.14415 C 234.17321,438.89915 234.67071,438.99415 234.91571,439.3604 C 235.16321,439.72915 235.06571,440.22415 234.69946,440.47165 C 234.33321,440.7179 233.83446,440.61915 233.59071,440.25415"
       id="path263"
       style="fill:#1b1a1c;fill-opacity:1;fill-rule:nonzero;stroke:none" />
    <path
       d="M 231.06196,436.49415 C 230.81696,436.1254 230.91321,435.6304 231.27946,435.3829 C 231.64571,435.13665 232.14571,435.2354 232.38946,435.60165 C 232.63696,435.96915 232.53821,436.46665 232.17196,436.71165 C 231.80571,436.9579 231.30946,436.85915 231.06196,436.49415"
       id="path265"
       style="fill:#1b1a1c;fill-opacity:1;fill-rule:nonzero;stroke:none" />
    <path
       d="M 229.78821,440.9129 C 229.34821,440.94415 228.96571,440.6104 228.93571,440.17165 C 228.90696,439.73165 229.23946,439.34915 229.67821,439.3179 C 230.11946,439.2879 230.50196,439.62165 230.53196,440.0629 C 230.56071,440.5029 230.22821,440.88415 229.78821,440.9129"
       id="path267"
       style="fill:#1b1a1c;fill-opacity:1;fill-rule:nonzero;stroke:none" />
    <path
       d="M 232.97946,444.22915 C 232.78446,444.62415 232.30571,444.78915 231.90946,444.5954 C 231.51446,444.4004 231.34946,443.9204 231.54196,443.5254 C 231.73571,443.12915 232.21696,442.9629 232.61446,443.15915 C 233.00821,443.35165 233.17321,443.82915 232.97946,444.22915"
       id="path269"
       style="fill:#1b1a1c;fill-opacity:1;fill-rule:nonzero;stroke:none" />
    <path
       d="M 237.44321,443.1229 C 237.68946,443.4879 237.59196,443.98665 237.22821,444.23165 C 236.86196,444.47915 236.36446,444.3804 236.11571,444.0154 C 235.87071,443.6504 235.96946,443.1504 236.33571,442.9054 C 236.70321,442.6604 237.19696,442.75415 237.44321,443.1229"
       id="path271"
       style="fill:#1b1a1c;fill-opacity:1;fill-rule:nonzero;stroke:none" />
    <path
       d="M 238.72071,438.7029 C 239.15946,438.67165 239.54321,439.00415 239.57196,439.4454 C 239.60196,439.8854 239.26696,440.26915 238.82821,440.2954 C 238.38821,440.32665 238.00571,439.9929 237.97571,439.55415 C 237.94696,439.11415 238.27571,438.7304 238.72071,438.7029"
       id="path273"
       style="fill:#1b1a1c;fill-opacity:1;fill-rule:nonzero;stroke:none" />
    <path
       d="M 235.52946,435.3879 C 235.72446,434.9929 236.20071,434.8254 236.59946,435.02165 C 236.99696,435.2154 237.15821,435.6954 236.96446,436.08915 C 236.77196,436.48665 236.29071,436.6504 235.89571,436.4579 C 235.50071,436.26415 235.33446,435.7854 235.52946,435.3879"
       id="path275"
       style="fill:#1b1a1c;fill-opacity:1;fill-rule:nonzero;stroke:none" />
    <path
       d="M 155.34446,333.9704 C 155.20946,333.55165 155.44071,333.1004 155.86071,332.9654 C 156.28071,332.82915 156.73196,333.0604 156.86696,333.4804 C 157.00196,333.90165 156.77071,334.35165 156.35071,334.48665 C 155.93071,334.62165 155.48071,334.39165 155.34446,333.9704"
       id="path277"
       style="fill:#1b1a1c;fill-opacity:1;fill-rule:nonzero;stroke:none" />
    <path
       d="M 153.95696,329.65915 C 153.82071,329.23915 154.05071,328.7879 154.47196,328.6529 C 154.89196,328.5179 155.34321,328.74915 155.47821,329.16915 C 155.61321,329.58915 155.38196,330.03915 154.96196,330.1754 C 154.54196,330.3104 154.09196,330.0804 153.95696,329.65915"
       id="path279"
       style="fill:#1b1a1c;fill-opacity:1;fill-rule:nonzero;stroke:none" />
    <path
       d="M 151.50821,333.55415 C 151.07821,333.46165 150.80196,333.0354 150.89571,332.6054 C 150.98821,332.17415 151.41321,331.89915 151.84446,331.9904 C 152.27571,332.08415 152.55196,332.51165 152.45821,332.94165 C 152.36571,333.37165 151.94071,333.6479 151.50821,333.55415"
       id="path281"
       style="fill:#1b1a1c;fill-opacity:1;fill-rule:nonzero;stroke:none" />
    <path
       d="M 153.65821,337.6229 C 153.36196,337.9479 152.85571,337.9754 152.52946,337.6779 C 152.20196,337.3829 152.17696,336.87665 152.47321,336.54915 C 152.76946,336.22165 153.27571,336.19665 153.60196,336.4929 C 153.93071,336.78915 153.95571,337.29415 153.65821,337.6229"
       id="path283"
       style="fill:#1b1a1c;fill-opacity:1;fill-rule:nonzero;stroke:none" />
    <path
       d="M 158.25571,337.79415 C 158.39196,338.2129 158.15946,338.66415 157.74071,338.80165 C 157.32071,338.93665 156.87071,338.7029 156.73321,338.28415 C 156.59946,337.8654 156.83071,337.4129 157.24946,337.2779 C 157.67071,337.14415 158.12071,337.3729 158.25571,337.79415"
       id="path285"
       style="fill:#1b1a1c;fill-opacity:1;fill-rule:nonzero;stroke:none" />
    <path
       d="M 160.70446,333.8979 C 161.13321,333.99165 161.41071,334.41665 161.31696,334.8479 C 161.22446,335.27915 160.79821,335.5529 160.36821,335.46165 C 159.93571,335.36915 159.66071,334.94165 159.75321,334.51165 C 159.84696,334.0804 160.27071,333.8054 160.70446,333.8979"
       id="path287"
       style="fill:#1b1a1c;fill-opacity:1;fill-rule:nonzero;stroke:none" />
    <path
       d="M 158.55321,329.8304 C 158.85071,329.5054 159.35571,329.4779 159.68321,329.77415 C 160.01071,330.0704 160.03321,330.57665 159.74071,330.9029 C 159.44321,331.23165 158.93696,331.2554 158.60946,330.9604 C 158.28196,330.66415 158.25696,330.1604 158.55321,329.8304"
       id="path289"
       style="fill:#1b1a1c;fill-opacity:1;fill-rule:nonzero;stroke:none" />
    <path
       d="M 190.31571,263.8404 C 190.43071,263.4154 190.86946,263.1629 191.29571,263.27665 C 191.72071,263.39165 191.97446,263.83165 191.85946,264.25665 C 191.74446,264.6829 191.30571,264.9354 190.87946,264.8204 C 190.45321,264.7054 190.20071,264.2679 190.31571,263.8404"
       id="path291"
       style="fill:#1b1a1c;fill-opacity:1;fill-rule:nonzero;stroke:none" />
    <path
       d="M 191.49446,259.46665 C 191.60821,259.04165 192.04696,258.7879 192.47446,258.9029 C 192.89821,259.0179 193.15196,259.45665 193.03696,259.8829 C 192.92321,260.30915 192.48321,260.5604 192.05821,260.44665 C 191.63071,260.33165 191.37821,259.89415 191.49446,259.46665"
       id="path293"
       style="fill:#1b1a1c;fill-opacity:1;fill-rule:nonzero;stroke:none" />
    <path
       d="M 187.32196,261.40665 C 187.01071,261.09415 187.01071,260.58665 187.32321,260.2754 C 187.63446,259.9654 188.14196,259.96415 188.45321,260.27665 C 188.76571,260.58915 188.76446,261.0979 188.45196,261.40915 C 188.13946,261.71915 187.63446,261.71915 187.32196,261.40665"
       id="path295"
       style="fill:#1b1a1c;fill-opacity:1;fill-rule:nonzero;stroke:none" />
    <path
       d="M 186.91571,265.9904 C 186.48946,266.10165 186.05071,265.84915 185.93696,265.4229 C 185.82321,264.9979 186.07821,264.5579 186.50321,264.44415 C 186.92946,264.3304 187.36946,264.5854 187.48321,265.01165 C 187.59696,265.4379 187.34321,265.8754 186.91571,265.9904"
       id="path297"
       style="fill:#1b1a1c;fill-opacity:1;fill-rule:nonzero;stroke:none" />
    <path
       d="M 190.68196,268.63165 C 190.56696,269.0579 190.12696,269.3104 189.70071,269.1979 C 189.27571,269.0829 189.02446,268.6429 189.13696,268.2154 C 189.25196,267.79165 189.69196,267.5379 190.11696,267.6529 C 190.54446,267.76915 190.79571,268.2054 190.68196,268.63165"
       id="path299"
       style="fill:#1b1a1c;fill-opacity:1;fill-rule:nonzero;stroke:none" />
    <path
       d="M 194.85446,266.6929 C 195.16321,267.00415 195.16571,267.51165 194.85196,267.82415 C 194.54071,268.1354 194.03321,268.1329 193.72196,267.8229 C 193.41071,267.5104 193.41071,267.00165 193.72321,266.69165 C 194.03571,266.37915 194.54196,266.37915 194.85446,266.6929"
       id="path301"
       style="fill:#1b1a1c;fill-opacity:1;fill-rule:nonzero;stroke:none" />
    <path
       d="M 195.25946,262.10915 C 195.68571,261.9979 196.12446,262.2504 196.23821,262.67665 C 196.35196,263.1029 196.09696,263.5404 195.67321,263.6554 C 195.24446,263.76915 194.80696,263.51415 194.69321,263.08915 C 194.57821,262.66165 194.83071,262.2254 195.25946,262.10915"
       id="path303"
       style="fill:#1b1a1c;fill-opacity:1;fill-rule:nonzero;stroke:none" />
    <path
       d="M 157.74446,282.4479 C 157.85821,282.0229 158.29696,281.76915 158.72446,281.88415 C 159.14946,281.99915 159.40196,282.4379 159.28696,282.86415 C 159.17321,283.2904 158.73321,283.5429 158.30821,283.4279 C 157.88071,283.31415 157.62821,282.8754 157.74446,282.4479"
       id="path305"
       style="fill:#1b1a1c;fill-opacity:1;fill-rule:nonzero;stroke:none" />
    <path
       d="M 153.57196,284.3879 C 153.26071,284.0754 153.26071,283.56915 153.57321,283.2579 C 153.88446,282.94665 154.39196,282.94665 154.70321,283.2579 C 155.01571,283.5704 155.01446,284.07915 154.70196,284.3904 C 154.38946,284.7004 153.88446,284.7004 153.57196,284.3879"
       id="path307"
       style="fill:#1b1a1c;fill-opacity:1;fill-rule:nonzero;stroke:none" />
    <path
       d="M 153.16571,288.97165 C 152.73946,289.0829 152.30071,288.83165 152.18696,288.40415 C 152.07321,287.97915 152.32821,287.53915 152.75321,287.4254 C 153.17946,287.31165 153.61946,287.56665 153.73321,287.9929 C 153.84696,288.41915 153.59321,288.85665 153.16571,288.97165"
       id="path309"
       style="fill:#1b1a1c;fill-opacity:1;fill-rule:nonzero;stroke:none" />
    <path
       d="M 156.93196,291.61415 C 156.81696,292.03915 156.37696,292.2929 155.95071,292.17915 C 155.52571,292.06415 155.27446,291.62415 155.38696,291.1979 C 155.50196,290.7729 155.94196,290.5204 156.36696,290.63415 C 156.79446,290.7504 157.04571,291.18665 156.93196,291.61415"
       id="path311"
       style="fill:#1b1a1c;fill-opacity:1;fill-rule:nonzero;stroke:none" />
    <path
       d="M 161.10446,289.67415 C 161.41446,289.9854 161.41446,290.4929 161.10196,290.8054 C 160.79071,291.11665 160.28321,291.11415 159.97196,290.80415 C 159.66071,290.49165 159.66071,289.9829 159.97321,289.6729 C 160.28571,289.3604 160.79196,289.3604 161.10446,289.67415"
       id="path313"
       style="fill:#1b1a1c;fill-opacity:1;fill-rule:nonzero;stroke:none" />
    <path
       d="M 200.29196,274.9504 C 199.87571,270.3704 204.71571,268.54915 209.08696,272.9204 C 213.45946,277.2929 219.21446,272.91665 217.36446,269.9529 M 214.12571,265.6504 C 216.66696,268.2754 218.84071,267.64415 220.23571,264.8054 C 221.63071,261.96915 219.70446,257.4554 220.42321,252.7979 C 221.14321,248.14165 224.19946,246.25915 227.24696,247.9354 C 230.29321,249.6154 229.90321,254.2604 226.56446,254.51915 M 205.49071,257.6654 C 204.52696,257.0304 203.73571,256.11165 203.26071,254.96665 C 202.24446,252.5229 203.40071,249.71915 205.84321,248.70415 C 207.79821,247.8904 210.04071,248.8154 210.85446,250.7704 M 172.38321,252.27915 C 172.00196,252.3629 171.60071,252.3904 171.19071,252.3504 C 169.48321,252.18915 168.23071,250.6754 168.39071,248.9679 C 168.52071,247.60165 169.73071,246.59915 171.09571,246.72915 M 163.81571,256.37165 C 155.30821,260.6204 161.23571,250.0404 156.96821,248.24415 C 152.70071,246.4479 147.30196,261.84165 144.96821,248.70915 M 169.88571,291.68165 C 166.02196,287.44415 160.46196,283.8654 157.46196,287.7929 M 152.67696,268.18915 C 154.02696,265.88165 153.25196,262.9154 150.94446,261.56415 C 149.09821,260.48415 146.72571,261.10415 145.64446,262.9504 C 144.77946,264.42665 145.27696,266.3254 146.75321,267.1904 C 147.93446,267.88165 149.45446,267.4854 150.14446,266.3029 M 180.23071,250.6529 C 177.57071,250.92165 175.63196,253.29665 175.90071,255.9579 C 176.11696,258.08415 178.01821,259.63665 180.14571,259.4204 C 181.84821,259.24915 183.08821,257.7279 182.91696,256.0254 C 182.77821,254.66415 181.56321,253.6704 180.20071,253.80915 M 151.44946,305.15915 C 152.51571,307.6104 155.36696,308.7354 157.82071,307.67165 C 159.78071,306.8204 160.68196,304.5379 159.82946,302.5754 C 159.14946,301.00665 157.32446,300.28665 155.75321,300.96665 C 154.49821,301.5129 153.92071,302.97415 154.46696,304.22915 M 150.08321,273.70915 C 148.63696,278.2904 146.72821,275.1104 145.03196,274.90915 C 143.33571,274.70915 142.52446,276.83415 143.43571,277.7454 M 184.06821,285.4279 C 181.60321,282.96415 182.51571,272.6929 185.76071,269.5279 M 223.84196,283.42415 C 223.23321,281.82415 223.61071,279.94415 224.94196,278.70665 C 226.34446,277.40415 228.53571,277.4829 229.84071,278.8854 C 230.88196,280.0079 230.81821,281.76165 229.69696,282.80415 C 228.79946,283.63915 227.39571,283.58665 226.56196,282.6904 M 281.77446,313.04665 C 284.14821,312.37165 286.76071,311.40165 286.67196,308.6604 C 286.50946,303.68665 278.98696,304.23415 279.49196,300.7004 C 279.99946,297.16665 287.97571,299.62915 289.08946,295.6604 C 290.20446,291.6904 282.13821,290.55665 283.52821,286.6179 C 284.91696,282.6779 291.94321,288.34165 293.96821,284.19915 C 295.99446,280.05415 289.23821,277.06165 291.67446,273.8629 C 294.11196,270.6629 298.57946,278.1879 301.98321,276.27665 C 305.38821,274.36415 301.49946,267.2379 305.37946,266.45415 C 309.25821,265.67165 309.98071,274.0929 312.27071,274.2454 M 316.14446,317.3554 C 316.84696,316.78915 317.87571,316.89915 318.44321,317.60415 C 319.15071,318.4829 319.01321,319.7679 318.13321,320.4779 C 317.03446,321.3629 315.42696,321.18915 314.54071,320.08915 C 313.43571,318.7154 313.65071,316.70665 315.02446,315.6004 C 316.74071,314.2179 319.25321,314.48915 320.63696,316.2054 C 322.36571,318.3504 322.02821,321.4904 319.88196,323.22165 C 317.19946,325.3804 313.27196,324.95915 311.11196,322.2754 C 308.41071,318.92165 308.93946,314.66665 312.29196,311.31415 C 317.81321,305.7929 321.05696,299.32915 321.05696,288.55915 C 321.05696,265.8429 305.11446,251.26915 286.14321,250.5004 C 264.45821,249.6229 244.88946,269.37915 242.43571,294.6254 M 245.89196,384.8004 C 243.98321,400.69165 257.26321,414.6929 275.55446,416.07165 C 293.84571,417.45165 310.21946,405.68665 312.12946,389.7929 C 314.03821,373.89915 300.75946,359.89665 282.46821,358.5179 M 308.74571,344.75665 C 310.36821,347.70165 319.32821,346.86915 319.32821,350.1129 C 319.32821,353.6804 309.70196,353.37915 310.11196,356.64665 C 310.50321,359.7704 318.10196,359.7704 317.70571,362.89415 C 317.30071,366.07665 311.29571,366.07665 311.69446,369.2604 C 312.06071,372.18165 316.52571,372.18165 316.15446,375.10415 M 285.21946,328.42665 C 288.51321,329.5329 295.78821,326.1804 296.58696,329.3229 C 297.56571,333.18415 287.32446,334.85915 288.16696,338.1779 C 289.00946,341.49665 297.75321,338.6054 298.14821,341.7554 C 298.52821,344.7679 291.56946,346.83165 292.67071,349.6304 C 293.79196,352.4804 299.29196,350.84915 299.67821,353.9229 C 300.03196,356.7379 295.94446,357.95165 296.97446,360.5679 M 321.04071,289.9129 C 321.35571,292.12165 324.56071,291.7579 324.44571,294.01915 C 324.34321,296.0904 321.96071,296.36165 322.24821,298.3904 M 272.67071,404.3729 C 274.90696,405.5854 277.70821,398.66165 279.63196,399.70415 C 281.55571,400.74415 278.25196,406.45665 280.14946,407.1629 C 281.96071,407.83915 284.43821,403.26415 285.99446,404.41415 C 287.57821,405.5854 285.61821,409.20415 287.46571,409.8954 C 289.16071,410.5279 290.61821,407.83415 292.07321,408.91415 M 255.58321,441.5729 C 255.34196,439.1479 251.74321,439.9729 250.90696,437.68665 C 249.99696,435.1954 254.83696,434.08415 254.57446,431.4454 C 254.31571,428.85415 248.19321,430.25915 247.29821,427.81415 C 246.36321,425.25665 254.17696,423.7179 253.51821,420.8429 C 252.85821,417.9679 244.37696,421.06915 243.61071,417.7254 C 242.84446,414.3829 241.51696,396.17165 235.81071,394.26915 M 274.95571,358.7979 C 267.68821,368.27165 265.03696,379.8279 266.36196,388.8404 C 267.68821,397.8529 283.88571,418.38165 271.95321,425.9754 M 249.32446,400.8304 C 251.46446,403.8154 260.85446,408.6179 263.35696,403.7779 C 265.86196,398.9379 257.01571,396.3504 257.01571,392.51165 C 257.01571,388.67415 261.60446,387.9229 263.69196,391.4279 M 266.66071,377.4504 C 265.59696,381.8154 268.63321,394.41165 275.12196,392.9379 C 281.61446,391.46415 277.35321,381.53665 280.51696,378.0929 C 283.68446,374.6454 290.12946,377.9054 288.76446,383.6679 M 290.18071,297.4254 C 295.91821,299.9054 297.24696,290.2604 301.45446,290.0879 C 305.66446,289.9154 307.27321,294.82665 303.78446,297.2304 M 306.72571,370.86665 C 300.52946,359.39415 300.05696,347.97415 306.77071,339.1504"
       id="path315"
       style="fill:none;stroke:#1b1a1c;stroke-width:0.625;stroke-linecap:round;stroke-linejoin:round;stroke-miterlimit:4;stroke-dasharray:none;stroke-opacity:1" />
    <path
       d="M 265.51696,429.9479 C 265.51696,429.5054 265.15946,429.14665 264.71696,429.14665 C 264.27696,429.14665 263.91696,429.5054 263.91696,429.9479 C 263.91696,430.38915 264.27696,430.7454 264.71696,430.7454 C 265.15946,430.7454 265.51696,430.38915 265.51696,429.9479"
       id="path317"
       style="fill:#1b1a1c;fill-opacity:1;fill-rule:nonzero;stroke:none" />
    <path
       d="M 265.51696,425.41665 C 265.51696,424.97665 265.15946,424.6179 264.71696,424.6179 C 264.27696,424.6179 263.91696,424.97665 263.91696,425.41665 C 263.91696,425.8579 264.27696,426.21665 264.71696,426.21665 C 265.15946,426.21665 265.51696,425.8579 265.51696,425.41665"
       id="path319"
       style="fill:#1b1a1c;fill-opacity:1;fill-rule:nonzero;stroke:none" />
    <path
       d="M 269.04071,428.3754 C 269.42196,428.1529 269.55321,427.6654 269.33321,427.28165 C 269.11321,426.9004 268.62321,426.76915 268.24071,426.98915 C 267.85946,427.2104 267.72696,427.70165 267.94821,428.0829 C 268.16946,428.4629 268.65696,428.5954 269.04071,428.3754"
       id="path321"
       style="fill:#1b1a1c;fill-opacity:1;fill-rule:nonzero;stroke:none" />
    <path
       d="M 268.24071,432.90665 C 268.62321,433.12415 269.11321,432.99415 269.33321,432.61415 C 269.55321,432.2329 269.42196,431.74165 269.04071,431.5204 C 268.65821,431.3004 268.16821,431.43165 267.94821,431.8129 C 267.72696,432.19665 267.85821,432.68415 268.24071,432.90665"
       id="path323"
       style="fill:#1b1a1c;fill-opacity:1;fill-rule:nonzero;stroke:none" />
    <path
       d="M 263.91696,434.47915 C 263.91696,434.9179 264.27696,435.27665 264.71696,435.27915 C 265.15821,435.27915 265.51571,434.9179 265.51821,434.47915 C 265.51696,434.03665 265.15821,433.6779 264.71696,433.6779 C 264.27571,433.6804 263.91696,434.03665 263.91696,434.47915"
       id="path325"
       style="fill:#1b1a1c;fill-opacity:1;fill-rule:nonzero;stroke:none" />
    <path
       d="M 260.39321,431.5204 C 260.01196,431.74165 259.87821,432.2304 260.09946,432.61415 C 260.32071,432.99415 260.81071,433.12415 261.19196,432.90665 C 261.57446,432.68415 261.70571,432.19415 261.48571,431.8129 C 261.26446,431.43165 260.77571,431.3004 260.39321,431.5204"
       id="path327"
       style="fill:#1b1a1c;fill-opacity:1;fill-rule:nonzero;stroke:none" />
    <path
       d="M 261.19196,426.98915 C 260.81071,426.77165 260.32071,426.9004 260.09946,427.28165 C 259.87821,427.6654 260.01196,428.1529 260.39196,428.3754 C 260.77446,428.5954 261.26446,428.4629 261.48571,428.0829 C 261.70571,427.69915 261.57571,427.2129 261.19196,426.98915"
       id="path329"
       style="fill:#1b1a1c;fill-opacity:1;fill-rule:nonzero;stroke:none" />
    <path
       d="M 288.42321,391.79415 C 288.45446,391.3554 288.12071,390.9729 287.68071,390.9429 C 287.24196,390.9129 286.85821,391.2454 286.82946,391.68415 C 286.79946,392.12665 287.13196,392.5079 287.57071,392.5379 C 288.01321,392.5679 288.39321,392.23415 288.42321,391.79415"
       id="path331"
       style="fill:#1b1a1c;fill-opacity:1;fill-rule:nonzero;stroke:none" />
    <path
       d="M 288.73321,387.2754 C 288.76196,386.83415 288.43071,386.4529 287.98821,386.42165 C 287.54946,386.39165 287.16571,386.72665 287.13696,387.1654 C 287.10696,387.6079 287.44196,387.9879 287.88071,388.0179 C 288.32071,388.0479 288.70196,387.7154 288.73321,387.2754"
       id="path333"
       style="fill:#1b1a1c;fill-opacity:1;fill-rule:nonzero;stroke:none" />
    <path
       d="M 292.04571,390.4654 C 292.44196,390.27165 292.60821,389.79165 292.41196,389.39665 C 292.21946,389.0004 291.73821,388.83665 291.34321,389.0279 C 290.94696,389.22415 290.78196,389.7029 290.97696,390.1004 C 291.17196,390.4954 291.65071,390.6604 292.04571,390.4654"
       id="path335"
       style="fill:#1b1a1c;fill-opacity:1;fill-rule:nonzero;stroke:none" />
    <path
       d="M 290.94071,394.93165 C 291.30696,395.17665 291.80446,395.0804 292.05071,394.71415 C 292.29571,394.3479 292.19696,393.8504 291.83321,393.6054 C 291.46696,393.35665 290.96696,393.45415 290.72321,393.8229 C 290.47571,394.18665 290.57446,394.6829 290.94071,394.93165"
       id="path337"
       style="fill:#1b1a1c;fill-opacity:1;fill-rule:nonzero;stroke:none" />
    <path
       d="M 286.52071,396.20665 C 286.48946,396.6454 286.82446,397.02915 287.26321,397.05915 C 287.70321,397.0904 288.08321,396.7554 288.11821,396.31415 C 288.14446,395.87665 287.81321,395.4929 287.37321,395.46415 C 286.93196,395.43415 286.55071,395.76415 286.52071,396.20665"
       id="path339"
       style="fill:#1b1a1c;fill-opacity:1;fill-rule:nonzero;stroke:none" />
    <path
       d="M 283.20571,393.01665 C 282.81071,393.20915 282.64446,393.68915 282.83946,394.0854 C 283.03196,394.4829 283.51321,394.64665 283.90946,394.4504 C 284.30446,394.2579 284.47071,393.77665 284.27571,393.3829 C 284.07946,392.9854 283.60321,392.8204 283.20571,393.01665"
       id="path341"
       style="fill:#1b1a1c;fill-opacity:1;fill-rule:nonzero;stroke:none" />
    <path
       d="M 284.31196,388.5504 C 283.94571,388.3054 283.44696,388.39915 283.20071,388.7679 C 282.95446,389.1329 283.05446,389.63165 283.41821,389.87665 C 283.78446,390.12415 284.28196,390.02415 284.52946,389.6604 C 284.77571,389.29415 284.67821,388.7979 284.31196,388.5504"
       id="path343"
       style="fill:#1b1a1c;fill-opacity:1;fill-rule:nonzero;stroke:none" />
    <path
       d="M 313.22821,333.9704 C 313.36196,333.55165 313.13196,333.1004 312.71071,332.9654 C 312.29196,332.82915 311.83946,333.0604 311.70446,333.4804 C 311.57071,333.90165 311.80196,334.35165 312.22071,334.48665 C 312.64196,334.62165 313.09071,334.39165 313.22821,333.9704"
       id="path345"
       style="fill:#1b1a1c;fill-opacity:1;fill-rule:nonzero;stroke:none" />
    <path
       d="M 314.61446,329.65915 C 314.75071,329.23915 314.52071,328.7879 314.09946,328.6529 C 313.67946,328.5179 313.22946,328.74915 313.09321,329.16915 C 312.95821,329.58915 313.18946,330.03915 313.60821,330.1754 C 314.03071,330.3104 314.48071,330.0804 314.61446,329.65915"
       id="path347"
       style="fill:#1b1a1c;fill-opacity:1;fill-rule:nonzero;stroke:none" />
    <path
       d="M 317.06321,333.55415 C 317.49446,333.46165 317.76821,333.0354 317.67571,332.6054 C 317.58321,332.17415 317.15821,331.89915 316.72571,331.9904 C 316.29571,332.08415 316.01946,332.51165 316.11321,332.94165 C 316.20571,333.37165 316.63071,333.6479 317.06321,333.55415"
       id="path349"
       style="fill:#1b1a1c;fill-opacity:1;fill-rule:nonzero;stroke:none" />
    <path
       d="M 314.91196,337.6229 C 315.21071,337.9479 315.71571,337.9754 316.04321,337.6779 C 316.36946,337.3829 316.39446,336.87665 316.09946,336.54915 C 315.80321,336.22165 315.29571,336.19665 314.96821,336.4929 C 314.64196,336.78915 314.61696,337.29415 314.91196,337.6229"
       id="path351"
       style="fill:#1b1a1c;fill-opacity:1;fill-rule:nonzero;stroke:none" />
    <path
       d="M 310.31571,337.79415 C 310.18071,338.2129 310.41321,338.66415 310.83196,338.80165 C 311.25071,338.93665 311.70196,338.7029 311.83821,338.28415 C 311.97321,337.8654 311.74071,337.4129 311.32071,337.2779 C 310.90071,337.14415 310.45196,337.3729 310.31571,337.79415"
       id="path353"
       style="fill:#1b1a1c;fill-opacity:1;fill-rule:nonzero;stroke:none" />
    <path
       d="M 307.86821,333.8979 C 307.43821,333.99165 307.16071,334.41665 307.25321,334.8479 C 307.34696,335.27915 307.77321,335.5529 308.20321,335.46165 C 308.63571,335.36915 308.91196,334.94165 308.81821,334.51165 C 308.72446,334.0804 308.30071,333.8054 307.86821,333.8979"
       id="path355"
       style="fill:#1b1a1c;fill-opacity:1;fill-rule:nonzero;stroke:none" />
    <path
       d="M 310.01696,329.8304 C 309.72196,329.5054 309.21696,329.4779 308.88821,329.77415 C 308.56071,330.0704 308.53821,330.57665 308.83071,330.9029 C 309.12821,331.23165 309.63446,331.2554 309.96071,330.9604 C 310.28946,330.66415 310.31571,330.1604 310.01696,329.8304"
       id="path357"
       style="fill:#1b1a1c;fill-opacity:1;fill-rule:nonzero;stroke:none" />
    <path
       d="M 278.25696,263.8404 C 278.14071,263.4154 277.70321,263.1629 277.27571,263.27665 C 276.85071,263.39165 276.59696,263.83165 276.71196,264.25665 C 276.82696,264.6829 277.26571,264.9354 277.69196,264.8204 C 278.11821,264.7054 278.37196,264.2679 278.25696,263.8404"
       id="path359"
       style="fill:#1b1a1c;fill-opacity:1;fill-rule:nonzero;stroke:none" />
    <path
       d="M 277.07821,259.46665 C 276.96321,259.04165 276.52446,258.7879 276.09821,258.9029 C 275.67321,259.0179 275.42071,259.45665 275.53446,259.8829 C 275.64946,260.30915 276.08946,260.5604 276.51446,260.44665 C 276.94071,260.33165 277.19321,259.89415 277.07821,259.46665"
       id="path361"
       style="fill:#1b1a1c;fill-opacity:1;fill-rule:nonzero;stroke:none" />
    <path
       d="M 281.25071,261.40665 C 281.56071,261.09415 281.56071,260.58665 281.24946,260.2754 C 280.93821,259.9654 280.42946,259.96415 280.11696,260.27665 C 279.80571,260.58915 279.80696,261.0979 280.11946,261.40915 C 280.43196,261.71915 280.93821,261.71915 281.25071,261.40665"
       id="path363"
       style="fill:#1b1a1c;fill-opacity:1;fill-rule:nonzero;stroke:none" />
    <path
       d="M 281.65571,265.9904 C 282.08321,266.10165 282.52071,265.84915 282.63446,265.4229 C 282.74946,264.9979 282.49446,264.5579 282.06821,264.44415 C 281.64196,264.3304 281.20321,264.5854 281.08946,265.01165 C 280.97446,265.4379 281.22821,265.8754 281.65571,265.9904"
       id="path365"
       style="fill:#1b1a1c;fill-opacity:1;fill-rule:nonzero;stroke:none" />
    <path
       d="M 277.89071,268.63165 C 278.00446,269.0579 278.44446,269.3104 278.86946,269.1979 C 279.29571,269.0829 279.54696,268.6429 279.43446,268.2154 C 279.31946,267.79165 278.87946,267.5379 278.45446,267.6529 C 278.02821,267.76915 277.77571,268.2054 277.89071,268.63165"
       id="path367"
       style="fill:#1b1a1c;fill-opacity:1;fill-rule:nonzero;stroke:none" />
    <path
       d="M 273.71821,266.6929 C 273.40821,267.00415 273.40571,267.51165 273.71821,267.82415 C 274.03071,268.1354 274.53821,268.1329 274.85071,267.8229 C 275.16196,267.5104 275.16196,267.00165 274.84946,266.69165 C 274.53696,266.37915 274.03071,266.37915 273.71821,266.6929"
       id="path369"
       style="fill:#1b1a1c;fill-opacity:1;fill-rule:nonzero;stroke:none" />
    <path
       d="M 273.31196,262.10915 C 272.88571,261.9979 272.44821,262.2504 272.33321,262.67665 C 272.21946,263.1029 272.47571,263.5404 272.89821,263.6554 C 273.32696,263.76915 273.76446,263.51415 273.87946,263.08915 C 273.99321,262.66165 273.74071,262.2254 273.31196,262.10915"
       id="path371"
       style="fill:#1b1a1c;fill-opacity:1;fill-rule:nonzero;stroke:none" />
    <path
       d="M 310.82821,282.4479 C 310.71321,282.0229 310.27446,281.76915 309.84821,281.88415 C 309.42321,281.99915 309.17071,282.4379 309.28446,282.86415 C 309.39946,283.2904 309.83946,283.5429 310.26446,283.4279 C 310.69071,283.31415 310.94321,282.8754 310.82821,282.4479"
       id="path373"
       style="fill:#1b1a1c;fill-opacity:1;fill-rule:nonzero;stroke:none" />
    <path
       d="M 315.00071,284.3879 C 315.31071,284.0754 315.31071,283.56915 314.99946,283.2579 C 314.68821,282.94665 314.17946,282.94665 313.86696,283.2579 C 313.55571,283.5704 313.55696,284.07915 313.86946,284.3904 C 314.18196,284.7004 314.68821,284.7004 315.00071,284.3879"
       id="path375"
       style="fill:#1b1a1c;fill-opacity:1;fill-rule:nonzero;stroke:none" />
    <path
       d="M 315.40571,288.97165 C 315.83321,289.0829 316.27071,288.83165 316.38446,288.40415 C 316.49946,287.97915 316.24446,287.53915 315.81821,287.4254 C 315.39196,287.31165 314.95321,287.56665 314.83946,287.9929 C 314.72446,288.41915 314.97821,288.85665 315.40571,288.97165"
       id="path377"
       style="fill:#1b1a1c;fill-opacity:1;fill-rule:nonzero;stroke:none" />
    <path
       d="M 311.64071,291.61415 C 311.75446,292.03915 312.19571,292.2929 312.61946,292.17915 C 313.04571,292.06415 313.29696,291.62415 313.18446,291.1979 C 313.06946,290.7729 312.62946,290.5204 312.20446,290.63415 C 311.77821,290.7504 311.52571,291.18665 311.64071,291.61415"
       id="path379"
       style="fill:#1b1a1c;fill-opacity:1;fill-rule:nonzero;stroke:none" />
    <path
       d="M 307.46821,289.67415 C 307.15821,289.9854 307.15571,290.4929 307.46821,290.8054 C 307.78071,291.11665 308.28821,291.11415 308.60071,290.80415 C 308.91196,290.49165 308.91196,289.9829 308.59946,289.6729 C 308.28696,289.3604 307.78071,289.3604 307.46821,289.67415"
       id="path381"
       style="fill:#1b1a1c;fill-opacity:1;fill-rule:nonzero;stroke:none" />
    <path
       d="M 268.28071,274.9504 C 268.69696,270.3704 263.85696,268.54915 259.48446,272.9204 C 255.11196,277.2929 249.35821,272.91665 251.20696,269.9529 M 254.44571,265.6504 C 251.90446,268.2754 249.73071,267.64415 248.33446,264.8054 C 246.94071,261.96915 248.86696,257.4554 248.14696,252.7979 C 247.42821,248.14165 244.37071,246.25915 241.32446,247.9354 C 238.27821,249.6154 238.66821,254.2604 242.00696,254.51915 M 263.08071,257.6654 C 264.04446,257.0304 264.83571,256.11165 265.31196,254.96665 C 266.32696,252.5229 265.17071,249.71915 262.72696,248.70415 C 260.77196,247.8904 258.52946,248.8154 257.71696,250.7704 M 296.18821,252.27915 C 296.56946,252.3629 296.97196,252.3904 297.38071,252.3504 C 299.08821,252.18915 300.34196,250.6754 300.18071,248.9679 C 300.05196,247.60165 298.84071,246.59915 297.47571,246.72915 M 304.75571,256.37165 C 313.26321,260.6204 307.33571,250.0404 311.60321,248.24415 C 315.87071,246.4479 321.26946,261.84165 323.60321,248.70915 M 298.68696,291.68165 C 302.55071,287.44415 308.10946,283.8654 311.10946,287.7929 M 315.89446,268.18915 C 314.54321,265.88165 315.32071,262.9154 317.62696,261.56415 C 319.47321,260.48415 321.84571,261.10415 322.92696,262.9504 C 323.79196,264.42665 323.29446,266.3254 321.81946,267.1904 C 320.63696,267.88165 319.11821,267.4854 318.42696,266.3029 M 288.34071,250.6529 C 291.00071,250.92165 292.93946,253.29665 292.67071,255.9579 C 292.45446,258.08415 290.55446,259.63665 288.42571,259.4204 C 286.72446,259.24915 285.48321,257.7279 285.65446,256.0254 C 285.79321,254.66415 287.00946,253.6704 288.37196,253.80915 M 317.12196,305.15915 C 316.05571,307.6104 313.20446,308.7354 310.75071,307.67165 C 308.79071,306.8204 307.88946,304.5379 308.74196,302.5754 C 309.42321,301.00665 311.24821,300.28665 312.81946,300.96665 C 314.07321,301.5129 314.65071,302.97415 314.10446,304.22915 M 318.48946,273.70915 C 319.93446,278.2904 321.84321,275.1104 323.54071,274.90915 C 325.23571,274.70915 326.04821,276.83415 325.13571,277.7454 M 284.50321,285.4279 C 286.96821,282.96415 286.05446,272.6929 282.81071,269.5279 M 244.72821,283.42415 C 245.33946,281.82415 244.96071,279.94415 243.63071,278.70665 C 242.22571,277.40415 240.03571,277.4829 238.73071,278.8854 C 237.68946,280.0079 237.75196,281.76165 238.87446,282.80415 C 239.77321,283.63915 241.17571,283.58665 242.00946,282.6904 M 233.94696,397.45415 C 237.89446,403.3379 231.18446,400.12915 234.04696,409.1354 C 235.80321,414.6654 234.22571,424.71665 234.28571,432.0879"
       id="path383"
       style="fill:none;stroke:#1b1a1c;stroke-width:0.625;stroke-linecap:round;stroke-linejoin:round;stroke-miterlimit:4;stroke-dasharray:none;stroke-opacity:1" />
    <path
       d="M 233.59946,261.13165 C 233.37196,261.50915 233.49446,262.0004 233.87321,262.2279 C 234.25071,262.4554 234.74071,262.3354 234.96946,261.9579 C 235.19696,261.5779 235.07571,261.08665 234.69821,260.85915 C 234.31821,260.6304 233.82571,260.75415 233.59946,261.13165"
       id="path385"
       style="fill:#1b1a1c;fill-opacity:1;fill-rule:nonzero;stroke:none" />
    <path
       d="M 231.26196,265.0129 C 231.03571,265.3929 231.15696,265.8829 231.53446,266.11165 C 231.91321,266.33915 232.40696,266.2154 232.63196,265.8379 C 232.86071,265.4579 232.73696,264.96665 232.35946,264.7404 C 231.98196,264.5129 231.49071,264.6354 231.26196,265.0129"
       id="path387"
       style="fill:#1b1a1c;fill-opacity:1;fill-rule:nonzero;stroke:none" />
    <path
       d="M 229.76946,260.6629 C 229.32946,260.65415 228.96321,261.0054 228.95571,261.4454 C 228.94696,261.88665 229.30071,262.25165 229.73946,262.26165 C 230.18196,262.2679 230.54696,261.9154 230.55571,261.4754 C 230.56196,261.0329 230.21071,260.66915 229.76946,260.6629"
       id="path389"
       style="fill:#1b1a1c;fill-opacity:1;fill-rule:nonzero;stroke:none" />
    <path
       d="M 232.79196,257.19165 C 232.57696,256.80665 232.09071,256.6654 231.70446,256.8779 C 231.31946,257.0929 231.17946,257.5804 231.39071,257.9654 C 231.60571,258.3529 232.09321,258.49415 232.48071,258.2779 C 232.86321,258.0654 233.00446,257.5804 232.79196,257.19165"
       id="path391"
       style="fill:#1b1a1c;fill-opacity:1;fill-rule:nonzero;stroke:none" />
    <path
       d="M 237.30446,258.07415 C 237.53321,257.69665 237.41196,257.2029 237.03571,256.9754 C 236.65696,256.7479 236.16446,256.87165 235.93446,257.2479 C 235.70821,257.6254 235.83071,258.11915 236.20821,258.34665 C 236.58946,258.57415 237.07696,258.45415 237.30446,258.07415"
       id="path393"
       style="fill:#1b1a1c;fill-opacity:1;fill-rule:nonzero;stroke:none" />
    <path
       d="M 238.80071,262.4254 C 239.24321,262.4329 239.60946,262.08165 239.61571,261.6404 C 239.62196,261.19915 239.26696,260.8329 238.82821,260.8279 C 238.38946,260.81915 238.02321,261.1729 238.01446,261.61165 C 238.00696,262.0529 238.35696,262.41915 238.80071,262.4254"
       id="path395"
       style="fill:#1b1a1c;fill-opacity:1;fill-rule:nonzero;stroke:none" />
    <path
       d="M 235.77946,265.89415 C 235.99321,266.2804 236.47946,266.4229 236.86446,266.20665 C 237.25446,265.99415 237.38946,265.50665 237.17696,265.1229 C 236.96446,264.73415 236.47696,264.5954 236.09071,264.8079 C 235.70571,265.0204 235.56446,265.50665 235.77946,265.89415"
       id="path397"
       style="fill:#1b1a1c;fill-opacity:1;fill-rule:nonzero;stroke:none" />
    <path
       d="M 163.23196,404.5854 C 162.42571,403.59415 161.78571,402.07915 162.74196,400.74165 C 164.13821,398.7854 168.96821,399.17415 168.59696,395.9029 C 168.22821,392.6304 161.52446,394.05915 161.38196,390.7304 C 161.23696,387.4054 168.54446,389.6454 168.83696,385.98665 C 169.12946,382.32665 162.87321,381.99915 163.78696,378.92665 C 164.69946,375.85915 170.57821,380.2079 172.65446,377.8229 C 174.73321,375.43915 169.43696,371.2229 172.24321,369.5454 C 175.04946,367.86915 178.26196,373.94415 180.11071,373.41165 M 305.33946,404.5854 C 306.14696,403.59415 306.78446,402.07915 305.83071,400.74165 C 304.43321,398.7854 299.60446,399.17415 299.97446,395.9029 C 300.34446,392.6304 307.04571,394.05915 307.19071,390.7304 C 307.33446,387.4054 300.02696,389.6454 299.73446,385.98665 C 299.44071,382.32665 305.69821,381.99915 304.78571,378.92665 C 303.87196,375.85915 297.99321,380.2079 295.91696,377.8229 C 293.83821,375.43915 299.13571,371.2229 296.32821,369.5454 C 293.52321,367.86915 290.31071,373.94415 288.45946,373.41165 M 233.96571,303.7804 C 233.96571,297.3754 234.67571,297.3754 234.67571,290.96915 C 234.67571,284.64665 233.96571,284.64665 233.96571,278.32415 C 233.96571,273.45415 234.45196,272.6129 234.61946,269.1354"
       id="path399"
       style="fill:none;stroke:#1b1a1c;stroke-width:0.625;stroke-linecap:round;stroke-linejoin:round;stroke-miterlimit:4;stroke-dasharray:none;stroke-opacity:1" />
    <path
       d="M 234.28571,401.76665 C 249.47196,380.45915 280.72071,360.95665 295.29571,339.1754 C 299.30446,333.18415 301.88321,326.1054 301.88321,318.3629 C 301.88321,298.3104 285.54196,282.0529 265.38696,282.0529 C 252.23321,282.0529 240.70821,288.97665 234.28571,299.3604 C 227.86321,288.97665 216.33821,282.0529 203.18446,282.0529 C 183.02946,282.0529 166.68946,298.3104 166.68946,318.3629 C 166.68946,326.1054 169.26821,333.18415 173.27696,339.1754 C 187.85071,360.95665 219.09821,380.45915 234.28571,401.76665"
       id="path401"
       style="fill:#d8201f;fill-opacity:1;fill-rule:nonzero;stroke:none" />
    <path
       d="M 234.28571,401.76665 C 249.47196,380.45915 280.72071,360.95665 295.29571,339.1754 C 299.30446,333.18415 301.88321,326.1054 301.88321,318.3629 C 301.88321,298.3104 285.54196,282.0529 265.38696,282.0529 C 252.23321,282.0529 240.70821,288.97665 234.28571,299.3604 C 227.86321,288.97665 216.33821,282.0529 203.18446,282.0529 C 183.02946,282.0529 166.68946,298.3104 166.68946,318.3629 C 166.68946,326.1054 169.26821,333.18415 173.27696,339.1754 C 187.85071,360.95665 219.09821,380.45915 234.28571,401.76665 z"
       id="path403"
       style="fill:none;stroke:#1b1a1c;stroke-width:1.25;stroke-linecap:butt;stroke-linejoin:round;stroke-miterlimit:4;stroke-dasharray:none;stroke-opacity:1" />
    <g
       transform="matrix(1.25,0,0,-1.25,-367.90304,615.3829)"
       id="g405">
      <g
         clip-path="url(#clipPath409)"
         id="g407">
        <path
           d="M 528.107,229.055 C 527.445,227.427 526.598,225.836 525.573,224.303 C 519.989,215.96 510.59,207.6 501.501,199.516 C 496.492,195.06 491.418,190.5 486.805,185.814 M 436.224,248.115 C 439.843,255.113 446.961,260.044 455.268,260.609 M 458.966,263.582 C 458.273,263.636 457.574,263.664 456.87,263.664 C 445.147,263.664 435.197,255.967 431.865,245.388 M 482.607,176.815 L 484.009,178.418 C 489.552,184.755 496.389,190.953 503.495,197.274 C 512.724,205.483 522.268,213.971 528.066,222.635 C 530.826,226.758 532.432,231.294 532.764,235.851 M 520.891,222.953 C 515.4,215.892 507.337,208.721 499.507,201.757 C 496.954,199.487 494.443,197.229 492.009,194.968 M 479.213,239.644 C 478.856,240.443 477.78,241.1 477.274,241.15 M 479.192,242.675 C 478.755,243.179 477.73,244.004 477.23,244.086 M 479.368,245.471 C 478.762,246.173 477.569,247.139 476.97,247.27 M 480.014,247.864 C 479.376,248.773 477.579,250.317 476.775,250.533 M 480.803,250.284 C 479.955,251.577 477.599,253.612 476.478,253.957"
           id="path413"
           style="fill:none;stroke:#1b1a1c;stroke-width:1;stroke-linecap:round;stroke-linejoin:miter;stroke-miterlimit:4;stroke-dasharray:none;stroke-opacity:1" />
        <path
           d="M 405.212,297.193 C 405.212,297.193 409.173,218.114 410.762,199.627 C 412.271,182.064 420.194,165.478 433.071,152.925 C 446.395,139.935 463.682,132.783 481.75,132.783 C 499.817,132.783 517.107,139.935 530.429,152.925 C 543.306,165.478 551.228,182.064 552.736,199.627 C 554.326,218.114 558.29,297.193 558.29,297.193 L 405.212,297.193 z"
           id="path415"
           style="fill:none;stroke:#1b1a1c;stroke-width:2;stroke-linecap:butt;stroke-linejoin:miter;stroke-miterlimit:4;stroke-dasharray:none;stroke-opacity:1" />
      </g>
    </g>
  </g>
</svg>
