<?xml version="1.0" encoding="UTF-8" standalone="no"?>
<!-- Created with Inkscape (http://www.inkscape.org/) -->

<svg
   xmlns:dc="http://purl.org/dc/elements/1.1/"
   xmlns:cc="http://creativecommons.org/ns#"
   xmlns:rdf="http://www.w3.org/1999/02/22-rdf-syntax-ns#"
   xmlns:svg="http://www.w3.org/2000/svg"
   xmlns="http://www.w3.org/2000/svg"
   xmlns:sodipodi="http://sodipodi.sourceforge.net/DTD/sodipodi-0.dtd"
   xmlns:inkscape="http://www.inkscape.org/namespaces/inkscape"
   width="128.32239mm"
   height="157.86385mm"
   viewBox="0 0 128.32239 157.86385"
   version="1.1"
   id="svg865"
   inkscape:version="0.92.5 (2060ec1f9f, 2020-04-08)"
   sodipodi:docname="DEU Roschbach COA.svg">
  <defs
     id="defs859">
    <inkscape:path-effect
       effect="spiro"
       id="path-effect1135"
       is_visible="true" />
    <inkscape:path-effect
       effect="spiro"
       id="path-effect1131"
       is_visible="true" />
    <inkscape:path-effect
       effect="spiro"
       id="path-effect1105"
       is_visible="true" />
    <inkscape:path-effect
       effect="spiro"
       id="path-effect1055"
       is_visible="true" />
    <inkscape:path-effect
       effect="spiro"
       id="path-effect1015"
       is_visible="true" />
    <inkscape:path-effect
       effect="spiro"
       id="path-effect991"
       is_visible="true" />
    <inkscape:path-effect
       effect="spiro"
       id="path-effect919"
       is_visible="true" />
    <inkscape:path-effect
       effect="spiro"
       id="path-effect3644"
       is_visible="true" />
    <inkscape:path-effect
       effect="spiro"
       id="path-effect3636"
       is_visible="true" />
    <inkscape:path-effect
       effect="spiro"
       id="path-effect3544"
       is_visible="true" />
    <inkscape:path-effect
       effect="spiro"
       id="path-effect3466"
       is_visible="true" />
    <inkscape:path-effect
       effect="spiro"
       id="path-effect3544-2"
       is_visible="true" />
    <inkscape:path-effect
       effect="spiro"
       id="path-effect3644-8"
       is_visible="true" />
    <inkscape:path-effect
       effect="spiro"
       id="path-effect3644-3"
       is_visible="true" />
    <inkscape:path-effect
       effect="spiro"
       id="path-effect3636-0"
       is_visible="true" />
    <inkscape:path-effect
       effect="spiro"
       id="path-effect1727-0-1"
       is_visible="true" />
    <inkscape:path-effect
       effect="spiro"
       id="path-effect1731-8-3"
       is_visible="true" />
    <inkscape:path-effect
       effect="spiro"
       id="path-effect1727-3"
       is_visible="true" />
    <inkscape:path-effect
       effect="spiro"
       id="path-effect1731-7"
       is_visible="true" />
    <inkscape:path-effect
       effect="spiro"
       id="path-effect841-8"
       is_visible="true" />
    <inkscape:path-effect
       effect="spiro"
       id="path-effect991-2"
       is_visible="true" />
    <inkscape:path-effect
       effect="spiro"
       id="path-effect1015-7"
       is_visible="true" />
    <inkscape:path-effect
       effect="spiro"
       id="path-effect1055-5"
       is_visible="true" />
    <inkscape:path-effect
       effect="spiro"
       id="path-effect1105-8"
       is_visible="true" />
  </defs>
  <sodipodi:namedview
     id="base"
     pagecolor="#ffffff"
     bordercolor="#666666"
     borderopacity="1.0"
     inkscape:pageopacity="0.0"
     inkscape:pageshadow="2"
     inkscape:zoom="1.3290858"
     inkscape:cx="242.49899"
     inkscape:cy="298.32538"
     inkscape:document-units="mm"
     inkscape:current-layer="layer1"
     showgrid="false"
     inkscape:window-width="1920"
     inkscape:window-height="1046"
     inkscape:window-x="-11"
     inkscape:window-y="-11"
     inkscape:window-maximized="1"
     fit-margin-top="0"
     fit-margin-left="0"
     fit-margin-right="0"
     fit-margin-bottom="0"
     inkscape:snap-global="false"
     inkscape:snap-midpoints="true"
     inkscape:snap-smooth-nodes="true" />
  <metadata
     id="metadata862">
    <rdf:RDF>
      <cc:Work
         rdf:about="">
        <dc:format>image/svg+xml</dc:format>
        <dc:type
           rdf:resource="http://purl.org/dc/dcmitype/StillImage" />
        <dc:title />
      </cc:Work>
    </rdf:RDF>
  </metadata>
  <g
     inkscape:label="Ebene 1"
     inkscape:groupmode="layer"
     id="layer1"
     transform="translate(24.809654,171.667)">
    <path
       style="fill:#000000;fill-opacity:1;fill-rule:evenodd;stroke:#000000;stroke-width:1.32291663;stroke-linecap:round;stroke-linejoin:round;stroke-miterlimit:4;stroke-dasharray:none;stroke-opacity:1"
       inkscape:connector-curvature="0"
       d="m 102.85127,-171.00554 -0.29032,94.538479 c -1.4135,37.540965 -29.341066,61.981424 -63.209416,62.002445 -33.837879,-0.0461 -61.77591,-24.497199 -63.20941,-62.002445 l -0.29032,-94.538479 h 63.498212 z"
       id="path10563-0-6-2-6-6-6"
       sodipodi:nodetypes="ccccccc" />
    <path
       style="fill:none;fill-rule:evenodd;stroke:#000000;stroke-width:1.32291663;stroke-linecap:round;stroke-linejoin:round;stroke-miterlimit:4;stroke-dasharray:none;stroke-opacity:1"
       inkscape:connector-curvature="0"
       d="m 102.85127,-171.00554 -0.29032,94.538478 c -1.4135,37.540966 -29.341067,61.981425 -63.209416,62.002446 -33.8378795,-0.0461 -61.77591,-24.4972 -63.20941,-62.002446 l -0.29032,-94.538478 h 63.49821 z"
       id="path10563-0-6-2-6-6"
       sodipodi:nodetypes="ccccccc" />
    <g
       id="g1061" />
    <path
       inkscape:connector-curvature="0"
       style="opacity:1;fill:#ffd700;fill-opacity:1;fill-rule:evenodd;stroke:#000000;stroke-width:0.79374999;stroke-linecap:round;stroke-linejoin:round;stroke-miterlimit:4;stroke-dasharray:none;stroke-opacity:1;paint-order:fill markers stroke"
       d="m 37.454501,-156.07519 c -27.9076592,0 -50.374702,22.46704 -50.374702,50.37471 v 5.48028 h -5.691124 v 9.906372 h 5.777941 10.8732375 v -9.906372 -4.32945 c 0,-16.97589 14.1321395,-31.05301 33.0165895,-34.28835 0.766728,3.77886 1.355444,7.59382 1.761132,11.42825 1.574692,14.8833 0.401432,29.899271 0.210842,44.864441 -0.04389,3.446063 -0.0362,6.898219 -0.03462,10.350788 -2.422977,0.09493 -4.848579,0.118467 -7.27294,0.06873 -4.989142,-0.102354 -10.011553,-0.518203 -14.804782,-1.906344 -1.8427407,-0.533665 -3.6443918,-1.209411 -5.3836515,-2.018999 v 9.964767 1.5875 9.964766 c 1.7392597,-0.809585 3.5409108,-1.484815 5.3836515,-2.018482 4.793229,-1.388137 9.81564,-1.804503 14.804782,-1.90686 2.368026,-0.04858 4.737158,-0.02638 7.103959,0.06305 -0.197022,5.704742 -0.621062,11.388654 -1.544093,17.024281 -0.5676,3.465576 -1.321768,6.90082 -2.257226,10.285677 h 10.32805 10.328052 c -0.935463,-3.384857 -1.689102,-6.820101 -2.25671,-10.285677 -0.923026,-5.635625 -1.346965,-11.319544 -1.54409,-17.024281 2.366629,-0.08943 4.736102,-0.111654 7.103959,-0.06305 4.989129,0.102362 10.011032,0.518723 14.804263,1.90686 1.84273,0.533672 3.644897,1.208902 5.384168,2.018482 v -9.964766 -1.5875 -9.964767 c -1.739271,0.809591 -3.541438,1.485329 -5.384168,2.018999 -4.793231,1.388141 -9.815134,1.803995 -14.804263,1.906344 -2.424364,0.04974 -4.850482,0.02619 -7.273459,-0.06873 0.0016,-3.452569 0.0093,-6.904725 -0.03462,-10.350788 -0.19059,-14.96517 -1.363848,-29.981141 0.210841,-44.864441 0.405691,-3.83443 0.994402,-7.64939 1.761133,-11.42825 18.884452,3.23534 33.016589,17.31246 33.016589,34.28835 v 4.32945 9.906372 h 10.873237 5.777941 v -9.906372 h -5.691125 v -5.48028 c 0,-27.90767 -22.467052,-50.37471 -50.374701,-50.37471 z"
       id="rect949" />
    <path
       sodipodi:nodetypes="caaaac"
       inkscape:original-d="m -89.244159,-142.21712 c 4.126013,0.94016 8.471544,1.19289 12.377251,2.82129 5.274309,2.19901 10.420229,5.16084 14.470458,9.19192 3.781453,3.76358 6.728481,8.49067 8.645873,13.46937 1.679006,4.35971 1.896845,9.17142 2.296148,13.82617 0.303575,3.538842 -0.03168,8.973413 0.07009,10.655294"
       inkscape:path-effect="#path-effect1055"
       inkscape:connector-curvature="0"
       id="path1053"
       d="m -89.244159,-142.21712 c 4.230841,0.35347 8.411161,1.30634 12.377251,2.82129 5.376205,2.05359 10.367923,5.15583 14.470458,9.19192 3.837197,3.77505 6.891537,8.38042 8.645873,13.46937 1.52773,4.43161 2.055443,9.1448 2.296148,13.82617 0.182447,3.548342 0.205842,7.104859 0.07009,10.655294"
       style="fill:none;stroke:#000000;stroke-width:0.79374999;stroke-linecap:round;stroke-linejoin:round;stroke-miterlimit:4;stroke-dasharray:none;stroke-opacity:1"
       transform="translate(134.83419)" />
    <path
       inkscape:connector-curvature="0"
       id="path1057"
       d="m 83.449852,-92.253078 h 12.013214 v -6.734678"
       style="fill:none;stroke:#000000;stroke-width:0.79374999;stroke-linecap:round;stroke-linejoin:round;stroke-miterlimit:4;stroke-dasharray:none;stroke-opacity:1" />
    <path
       style="fill:none;stroke:#000000;stroke-width:0.79374999;stroke-linecap:round;stroke-linejoin:round;stroke-miterlimit:4;stroke-dasharray:none;stroke-opacity:1"
       d="m -89.244159,-142.21712 c 4.230841,0.35347 8.411161,1.30634 12.377251,2.82129 5.376205,2.05359 10.367923,5.15583 14.470458,9.19192 3.837197,3.77505 6.891537,8.38042 8.645873,13.46937 1.52773,4.43161 2.055443,9.1448 2.296148,13.82617 0.182447,3.548342 0.205842,7.104859 0.07009,10.655294"
       id="path1053-4"
       inkscape:connector-curvature="0"
       inkscape:path-effect="#path-effect1055-5"
       inkscape:original-d="m -89.244159,-142.21712 c 4.126013,0.94016 8.471544,1.19289 12.377251,2.82129 5.274309,2.19901 10.420229,5.16084 14.470458,9.19192 3.781453,3.76358 6.728481,8.49067 8.645873,13.46937 1.679006,4.35971 1.896845,9.17142 2.296148,13.82617 0.303575,3.538842 -0.03168,8.973413 0.07009,10.655294"
       sodipodi:nodetypes="caaaac"
       transform="matrix(-1,0,0,1,-56.13111,0)" />
    <path
       style="fill:none;stroke:#000000;stroke-width:0.79374999;stroke-linecap:round;stroke-linejoin:round;stroke-miterlimit:4;stroke-dasharray:none;stroke-opacity:1"
       d="M -4.74677,-92.253078 H -16.75999"
       id="path1057-4"
       inkscape:connector-curvature="0"
       sodipodi:nodetypes="cc" />
    <path
       style="fill:none;stroke:#000000;stroke-width:0.79374999;stroke-linecap:round;stroke-linejoin:round;stroke-miterlimit:4;stroke-dasharray:none;stroke-opacity:1"
       d="m -62.911003,-73.202536 v 16.45757 c -1.480719,-0.748593 -3.034934,-1.351721 -4.633013,-1.797886 -3.231708,-0.902254 -6.605954,-1.155761 -9.957522,-1.313839 -4.583102,-0.216163 -9.17422,-0.262306 -13.760741,-0.1383"
       id="path1103"
       inkscape:connector-curvature="0"
       inkscape:path-effect="#path-effect1105"
       inkscape:original-d="m -62.911003,-73.202536 v 16.45757 c 0,0 -3.028247,-1.386961 -4.633013,-1.797886 -3.243299,-0.830496 -6.617925,-1.07761 -9.957522,-1.313839 -4.575712,-0.323667 -9.173562,-0.09246 -13.760741,-0.1383"
       sodipodi:nodetypes="ccaac"
       transform="translate(134.337)" />
    <path
       transform="matrix(-1,0,0,1,-55.62892,-0.00259691)"
       style="fill:none;stroke:#000000;stroke-width:0.79374999;stroke-linecap:round;stroke-linejoin:round;stroke-miterlimit:4;stroke-dasharray:none;stroke-opacity:1"
       d="m -62.911003,-56.744966 c -1.480719,-0.748593 -3.034934,-1.351721 -4.633013,-1.797886 -3.231708,-0.902254 -6.605954,-1.155761 -9.957522,-1.313839 -4.583102,-0.216163 -9.17422,-0.262306 -13.760741,-0.1383"
       id="path1103-6"
       inkscape:connector-curvature="0"
       inkscape:path-effect="#path-effect1105-8"
       inkscape:original-d="m -62.911003,-56.744966 c 0,0 -3.028247,-1.386961 -4.633013,-1.797886 -3.243299,-0.830496 -6.617925,-1.07761 -9.957522,-1.313839 -4.575712,-0.323667 -9.173562,-0.09246 -13.760741,-0.1383"
       sodipodi:nodetypes="caac" />
    <path
       style="fill:none;stroke:#000000;stroke-width:0.79374999;stroke-linecap:round;stroke-linejoin:round;stroke-miterlimit:4;stroke-dasharray:none;stroke-opacity:1"
       d="m -89.84222,-33.630157 c -0.507288,-4.485653 -0.930364,-8.980829 -1.268929,-13.482362 -0.262203,-3.486232 -0.47372,-6.976276 -0.634463,-10.468657"
       id="path1129"
       inkscape:connector-curvature="0"
       inkscape:path-effect="#path-effect1131"
       inkscape:original-d="m -89.84222,-33.630157 c -0.475584,-4.494387 -0.920856,-8.98182 -1.268929,-13.482362 -0.269573,-3.485546 -0.422711,-6.979369 -0.634463,-10.468657"
       sodipodi:nodetypes="cac"
       transform="translate(134.55948)" />
    <path
       style="fill:none;stroke:#000000;stroke-width:0.79374999;stroke-linecap:round;stroke-linejoin:round;stroke-miterlimit:4;stroke-dasharray:none;stroke-opacity:1"
       d="m -91.064344,-139.23982 c -0.238632,12.65325 -0.377318,25.30839 -0.416041,37.96383 -0.03151,10.297121 0.0032,20.594445 0.10401,30.891121"
       id="path1133"
       inkscape:connector-curvature="0"
       inkscape:path-effect="#path-effect1135"
       inkscape:original-d="m -91.064344,-139.23982 c -0.138414,12.65435 -0.368005,25.30855 -0.416041,37.96383 -0.03909,10.297025 0.06961,20.593818 0.10401,30.891121"
       sodipodi:nodetypes="cac"
       transform="translate(134.55948)" />
  </g>
</svg>
