<?xml version="1.0"?>
<svg xmlns="http://www.w3.org/2000/svg" height="100%" width="100%" xmlns:xlink="http://www.w3.org/1999/xlink" viewBox="0 0 1027 1232">
<g stroke="#000" stroke-width="10">
<path d="m1021 6h-1015l0.013 566.2h1015z" fill="#16b"/>
<path d="m117.3 899c77.8 115 196 214 395.9 326 199.9-112 318.6-211 396.4-326z" fill="#e0000f"/>
<path d="m6.001 572.2c0 66.4-1.713 160.3 111.3 326.8h792.3c113.4-166.5 111.4-260.4 111.4-326.8z" fill="#fff"/>
</g>
<path d="m78.26 21.44c-0.7-0.02-1.3 0-2 0.03-4.5 0.24-9.3 1.52-12.95 3.62 7.25-1.49 18.55 2.07 16.55 11.46 0.1 10.2-10.9 16-10.4 26.4-1.1 11.1 11.8 14.4 17.7 21.4 6.6 7.9 15.24 13.5 22.14 20.85 1.7 3.3 8.1 8.6 1.7 10.1-13.74 5.8-28.74 7.9-43.64 6.3-7.65-5.5-19.36-12.4-28.11-4.9-3.76 2.9-6.83 10-6.5 13 7.59-6.2 19.17-0.3 22.56 7.9 2.41 2.7 2.21 9 5.19 9.9 16.36-4.3 33.16-8 48.9-14.7 13-3.6 30.4-3.7 39.4 8.1-2.4 6-0.5 11.9 0.2 17.7-0.1 8.4-10.1 11.3-17 8.9-1.6 0.2-9-3.6-5.2-0.7 10 6.5 24.7 10.6 35 1.9 5.3-5.6 12.2-2 17.3 1.9 14 10.7 28.7 21.7 38.4 36.4 9.1 14.6 8.9 35.4-2.5 48.6-2.1 2.5-8.3 2.8-9.3 3.2 13.7 3.2 24.8-10.3 29.7-21.8 1.8-2.5 0.8 8.4 1.1 11.8-0.6 8.5-7.7 16-15.9 18.1-5 4.4-11.4 7.3-18 4.4-7.5-1.2-13.9-7.6-17.5-12.7 1.8 8.4 10.3 12.4 15.9 18-22.1 13.1-52 18.1-75 4.4-8.5-4.7-13.2-14.3-12.6-24-6.6 21.1 7.9 47.2 31 48.1 20.5 0.9 39.3-10.9 59.7-10.3-14.4 12-33.7 15.5-51.9 17.5-18.3 0.5-38.7-3-51.8-16.4-6.54-6.9-10.64-18.9-10.14-26.8-2.8 17.5-1.6 38.8 12.54 51.4 11 6.8 24.7 6.9 37.3 7.9 25.1 1.2 49.2-7.1 73.8-10.3 5.9-0.5-5.7 6.5-8.5 7.9-28.1 14.8-61.5 16.1-92.2 10.1 21.8 18.1 52.6 18.5 78.9 11.4 24.7-4.8 47.6-16.2 72.3-20.6 7.2-1 14.4 0.2 21.4 2-7.7 9.2-18.2 14.7-27.2 22.5-15.3 9.1-27.1 24-44.9 28.6-12.3 2.6-20.9 16-34.1 13.5-5.9-6.6-2-15.4 2-21.7 2.4-7.3-8.3-9.9-13.5-8-2.2 0.5-7.7 2-2.7 2.5 6.9 2.3 4.7 11.6-0.4 14.6-2.9 1.9-5.4 3.5-4.3 7.3 0.7 12.5-11 21.9-22.9 21.8-25.1 1.4-46.94-16.7-59.24-37.1-5.8-11-7.8-27.4-20.72-32.6-12.84 0-19.58 16.4-19.16 27.5 1.22-5 6.32-12.4 13.22-12.1 7.33 2.6 6.43 13.1 3.97 19.3-2.24 4.7-2.54 10.5 2.44 13.7 12.25 10.2 30.85 14.8 36.85 31.2 1.7 8.2-8.1 12.6-14 15.6-14.3 6.8-31.71 2.6-45.63 9.8-11.95 8.4-11.01 28.4 0.91 36.2-4.04-5.6-2.86-13.1-0.79-19.2 6.09-1.8 10.39 4.4 13.91 7.7 9.24-4.3 15.7-13.1 25.7-16.4 14-4.7 26.44-15.6 41.74-15.8 7.9 0.9 6.4 11 3.8 16.1-4.8 10-12.8 19-22.14 24.9-9.3 3.4-16.1 10.8-23.8 16.7-7 6.8-8.2 21 2 25.3 6.8 3 16.7 1.1 21.9-1.3-8.4-0.8-13.5-9.1-11.7-17.1 5.8-3.8 10.9 3.9 14.74 5.4 12.4-10.3 16.8-27.1 27.8-38.7 17.6-22.2 37.6-46.8 66.9-52.6 13.9-2.4 31.1-6.1 42.3 5 9.3 7.8 11.1 21.5 5.2 31.9-3.1 7.1-8.7 13-15.6 16.5 20.8-3.9 38.7-15.3 55.2-28.1 1.6 10.8-5.2 20.2-12.8 27 19.2-8.9 36.3-21.7 52.5-35-2.1 14.8-9.5 28.4-20.8 38.1 24.3-12.9 44.3-33 59-56.3 14.5-1.7 28.2 5.3 42.6 6.2 49.1 8.1 99.7-0.7 146.6-15.8 7-2.1 14.3-2.6 21.7-2.6-7.7 10-22.4 13.9-25.6 27.2-5.6 13.3-6 28.2-12 41.3-9.8 16.2-27 26.7-44 34-8.5 2.4-21.8 3.8-25.8-6-5.1-10.2-8.4-26.5-22.2-27.9-8-1.5-15 3.7-17.7 11.1 6.7-4.3 19.7-0.1 17.3 9.3-1.5 4.8-7.5 8-11.4 3.5-9.4-6-23.5-11.2-32.2-1.5-5 5.1-4.1 15.1-1.3 19.5-2.3-9.1 8.2-18 15.1-9.8 5.3 5.3 0.1 14.4-7.2 13.4-10.8 1-22.2 11.4-18.2 23 1.7 6.6 5.5 12.7 10.5 17.3 0.5-6.6 0.9-17.4 9-19 9.5 1.4 8.8 13.2 13 19.5 7.6 7.2 17.2-3.4 26-0.5 12.9 2.3 26.6 2.5 38.3-4.1 16.2-5.1 33.9-7.5 47.4-18.6 13.4-7.7 26.6-16.4 42.3-18 7.1-2.1 15.6-2.9 21.6-6.8 4.8-16.7 10.5-33.5 21.5-47.2 13-18.6 37.2-23.3 58.4-25.2 5.1-0.2 11.1-2.1 13.3 3.8 15.3 15.7 29.3 33.7 50.2 41.9 25.3 10.5 53.8 11.8 80.9 9.5 15.2-0.5 29.3-8.3 44.6-7.6 8.1 0.5 12.5 6.3 17.4 12.2-4.5-1.3-9.3-1.9-10.4 4-0.9 2.4-1 6.2 1.8 2.9 3.5-1.7 5.1-0.2 8.6-1.9-1.6 6.6-2.8 14.7-11 14.2-9.2-3-16.7-12.7-27.4-9.4-7.6 0.9-16.7 7.9-15 15.7 3.2-7.3 12.8-5.7 17.6-0.9 4.4 1.8 3.1 6.5-1 7.4-7.5 1.9-19-0.1-21.7 9.4-1.9 6.9 0.9 14.7 5.4 19.6-1.6-7.6 1.2-19.9 11-18.7 5.4-0.2 1.5 7.8 3.5 11.6 0.7 3.5 2.1 7.3 4.5 9.7 0.6-5.1 3.2-9.6 5.5-14.1 5 5.8 9.2 15.3 18.5 12.9 12.9-1.2 25.7-4.4 38.7-5.6 7.2-4.1 9.3-13.9 16.3-18.6 6.5-4.8 15-8.3 16.2-17.5 1.8-6.6 11.6-10.5 7.6-18.1-4.8-12.9-14.3-23.4-17.9-36.9-2.6-7.2-3.4-18.2-12.6-19.9-10.7-1-21.6-0.5-32.2-1.9-12.2-0.8-24-3.2-36.3-2.7-16.6-1.9-33.8-10.2-40.6-26.3 31.2 7.9 65.7 14.2 96.7 2 20.7-10.4 40-28.2 47-51.1 5.5-19-2.8-39.2-17.9-51.1-15-12.7-34.3-19-53-24-26.4-6.3-52.9 3.1-77.7 11.3-15.8 3.6-32.9 9.6-48.9 4.8-12.4-7.1-13.5-25.4-7.2-37 10.4-14.2 29-20.7 46.3-20 16.8 1.9 33.6 5.2 48.9 12.7 30.6 12 62.2 27.3 95.9 24.5 13.7-2.7 29.8-8.3 35.8-21.3 10-21-3-44.5 4-66 1-3.7 4-7 7-8.7-10 3.4-19 12.2-24.9 21.3-6.6-13.4-7.9-31.2 2.9-42.5 5-5.7 15-9.3 21-5-18-12.8-42-20.3-65-17.8-16.6 2.6-34.6 13.9-36.1 32-2.1 17.7 5.9 33.8 13.6 49 3.4 6.8-3.8 14.4-10.7 11.8-27.3-10.8-56-21-85.8-19.2-5.2 0-10.4-0.4-15.5-0.8 7.9-7.8 28.3-16.4 28.3-16.4l-31.5 0.5c-9.2-2.4-19.3-0.2-28.1-4.3-10.3-3.7-4-4.4 3.3-4.9 10.9-2.1 22.6 3.2 32.7-2.1 13.7-1 27.5-1.5 41-4.6 12.9-2.4 25.9-13.6 35.7-19.6 4.8-4.5 9.9-9.5 14.2-14-18.2 7.1-37.7 10-57.2 10.5-14.8-0.6-29.2 3.8-44.1 2.7-9.7-0.7-19.7-0.2-29-3.4 18.7-8.7 40.2-5.6 60.1-7.9 16.3-2.7 32.9-2.1 48.8-7.2 18.1-3.9 39.1-7.9 48.6-25.6 5.2-8.6 11.9-18.8 15.9-26.65-7.9 5.4-16 10.05-25.2 12.45-10.7 6.2-23.5 3.6-34.5 8.6-10.5 2.5-21.4 1.7-31.5 6-10.4 2.4-21.2 3-31.9 2.1 15.8-12.1 36.7-9.6 54.3-16.9 13.3-3.7 26-8.55 39.1-12.65 13.5-7.3 27.4-14.4 38-25.9 11-9.3 13.6-25.9 11.1-39.16-3.9 1.42-7 6.66-11 8.86-8.3 7.5-15.6 17-27.2 19.4 5.6-10.8 11.4-22.1 12-34.29-41.4 39.69-100.4 53.99-156.5 53.59-6.5 0-13-0.3-19.5-0.6 3.6-9 10.7-15.9 14.5-24.8-9 8.3-20.1 14-31.7 17.9 3.6-10.3 12.4-20.2 10.6-31.6-3.3 11.3-14.3 18.6-24.3 23.6-16.1 4.6-32.6 13.2-49.8 9.6-0.6-2.2 1.3-10-1.7-4.7-2.2 3.1-5.8 4.7-9.4 5.5-0.2-6 4.3-10.4 4.4-16.3-12.4 15.3-33.7 17.7-51.6 22.9-31.9 6.7-63.4 23.95-80.2 53.05-6.8 14.4-8.4 31.6-6.6 47.5 1.7 12.5 15.7 16.8 23.3 25.1 9.7 9.7 7 24.8 6 37.1-2.3 14.1-17.1 20.7-28.2 27-13.4 7-28.8 8.4-43.4 11-7.3 1.3-9.8-6.1-11-11.7-1.9-7.4-0.1-13.9 0.7-21.5 5.8 3.6 10.5 6.5 17.1 7.7-3.6-6.9-4.9-15.7 0.9-21.8 3.4-7.1 3.6-1.8 4.9 2.5 1.9 3.5 4.8 6.5 8.2 8.7-6.1-8.5-6-19.5-2.6-28.9 2.1-11.3 3.9-22.6 7.3-33.6 1.9 5 4.2 12.4 6.4 15.9-1.8-11.8 0.3-23.7 1.4-35.4 4.3-17.6 2.2-36.5-2.3-53.8-2.3-5.7-5.3-11.05-7.4-16.95 13.7 1.7 28 2.6 40.4-4.5 16.3-6.3 31.1-15.9 46.5-24.1 5.4-3.5 9.4-8.7 15.6-11.6-18.4 7.3-38.9 10.1-58.3 5.1-2.3-1.3 5.5-5.3 7.8-7.3 9.9-6.4 23.4-10.4 32.3-16.09-19-0.24-37.1-7.23-56.1-6.93-17.4-1.06-34.7 3.36-49.8 12.12-10.1 5.4-22.1 6.3-32.8 1.8-28.8-7.33-59.2-16.11-88.7-7.68-10.6 3.53-21.9-1.31-32.6 2.41-13.4 2.47-28.1 14.17-24.4 29.27 1.5 6 4.5 12.4 8.4 16.7 4.1-9.3 13.9-16 24.2-13.9 9.7 1.4 18.8 4.9 28.6 4.9 12.6 1.8 22.1 11.6 31.4 19.4 6.1 5.8 9.7 10.75 11.6 19.05-52.6 22.3-88.6 9.3-88.6 9.3 1 11 19.3 15.9 30.9 15.1 16.7-0.8 35.3-3.2 49.6 7.4 5.5 2 8.4 8.9 4.3 13.7-9.6 7.9-21 13.5-32.2 18.8-15.9 9.1-32.1 18.2-45.7 30.2-4.7 6.4-12.9-0.2-18.8-1.1-20.4-7.3-40.6-15.1-61.4-20.9-12.9-5.5-24.9-13-37.1-19.8-13.1-10.3-26.1-20.7-38.4-31.8-7.5-6-7-16.1-4.6-24.5 3.2-16.95 5.1-36.55 17.8-49.25 3-5-2.8-8.8-2.9-13.6-1.2-12.1-15-19.94-26.4-15.69-6.6 1.88-13.4 6.35-17.3 11.29 6.6-4.61 20-5.53 22.1 4.3 1.8 5.1-2.5 7.9-5.5 10.8-3.3 9 3.6 18.3 0.6 27.5-1.3 7.9-2.8 18.8-12.2 20.85-9.4 2-16.9-6.75-22.5-12.95-4.8-8.9-12.7-16.5-13.5-27.1-3.34-11.7 2.3-27.27-9.24-35.53-3.8-2.93-8.6-4.18-13.3-4.28zm504.9 10.09v0.03c-0.1 0.09 0-0.01 0-0.03zm153.6 214.3-22.3 30.2c-7.7 31.5 10.5 42.9 25.3 56.5l-105-26.9c4.7-7.7 14.8-7.7 21.7-12.6 13.2-5.1 26.1-11.6 37.1-20.6l29-22.7zm126 71.5c19.8 0.1 43.2 4.6 53.6 23.2 6.2 9.9 0.6 22.3-8.3 28.3-17.3 9.8-38.2 9-57.6 8.4-22.7-2.4-43.8-11.9-65.1-19.1-12.4-4.1-22.2-12.8-33.9-18.3 19-5 38.7-6.5 57.7-11.8 18.3-1.4 35.4-9.6 53.6-10.7z" fill-rule="evenodd" fill="#fd1"/>
<path d="m604.6 253.7-9 3c18.1 2.5 49 20 61 37l1-3c-11-14-30-30-53-37z"/>
<path d="m610.6 121.7c-5.5 0-9.5 2.2-13 4-3.5 1.9-7.5 4.5-11 5-1.3 0-0.5-0.7-0.9 0.4 0 0-4 13-7 23.1l-0.1 0.3v4.9l2.5-0.7c10.6-3 34-5.6 52.2-4 11.9 1 16.6 3 30.3 8-14 21-23 33-34 42-7.2 5.9-14.7 15.7-21.2 20.4l-2.8 1.6c1 1 1.2 3 4 3 5 0 11 1 21.7 6.7-4 2.7-8 5.5-11.7 7.6-15.2 8.5-20.4 9.9-36.4 12.7l0.7 4c16.2-3 22.4-4.6 37.7-13.2 4.5-2.5 9.2-5.4 14-8.8 13.5 7.2 26 16.4 34 26l3-1c-8.2-9.7-18.8-20.7-32-28 14.8-11 31-26.3 42-41 5.1-8.7 5-9 7-15 1.2-3.7 1-12 1-12-7.5-3-13.5-6.1-19-8.2 6-9.8 7.8-14.3 11.7-21.8l-0.6-2.6c-10.1-5.4-28.9-9.4-42.1-11.4-13.3-2-18.9-2-30-2zm0 4c10.8 0 25 1 38 3 12.1 1.9 23.2 4.7 30.2 8.8-3.7 7.1-5.5 11.1-11.2 20.2-14.5-5.3-21.3-5.8-33.8-7-17.9-1.5-39 0.7-51 3.5 2.8-9.2 6-19.6 6.3-20.7 4-0.8 7.1-2.8 10.2-4.4 3.4-1.9 6.8-3.4 11.3-3.4zm58 38.3c7.2 2 11.3 3.7 18.7 7-1.2 12.2-6.5 17.1-10.7 22.7-11.2 14.8-26.4 29.2-41.4 40-6.8-3.3-13.3-6.1-20.6-8 7.2-6 16.5-15.7 21.3-20.6 9.7-9.4 15.2-18 32.7-41.1z"/>
<path d="m651.6 111.7c-1 7-1.9 10.5-4.9 17.3-11.1 25.7-26.5 49.5-43.4 71.7h4.3c34.1 0 64.6 25.5 81.2 37.5-17.7 29.3-46.4 41.8-83.7 55.8-28.5 10.7-46.5 12.7-65.5 10.7l-10 6c21 1 47-1 77-13 37.7-15.1 67.6-26.7 86-58.3l1-1.7-1.7-1c-13-9.1-42.3-36-81.3-39 15.6-21.5 25-33 34-54 3-7 10-20 10-30z"/>
<path d="m610.6 122.6c-1.5 21.3-11.5 35.3-19.8 53.3l-1.6 3.5 3.7-0.7c21.3-3.6 36.7-3.5 53 2.9 3.7 1.4 9.8 3.9 15.9 6.8 6.1 2.7 12.4 5.6 17.1 7.2 2.4 0.9 7.8 3.1 11.7 6.1 2.3 2.4 4.5 4.7 6.3 7-17.1 20.5-22.1 27.2-51.3 44-25.8 14.9-57 27-76 27v6c20-2 48.3-12.2 79-29.2 21-11.8 34.3-24.9 52.5-46.5l0.8-1-0.6-1.3c-0.7-1.3-2-2.6-3.5-4.1-1.6-1.5-3.6-3.1-5.6-4.6-4.1-3.1-8.6-6-12-7.1-4.3-1.5-10.5-4.4-16.6-7.2-6.3-2.8-11.8-5-16-6-18.7-4.3-31-7-51.5-4.3 7.7-16.3 17-30.5 18.5-51.5z"/>
<path d="m556.6 294.7-3 3.8c6.7 4.5 20 11.2 26 19.2h6c-8.4-8.7-18.5-15.7-29-23z"/>
<path d="m586.6 280.7-5 1.8c12.5 8 22 12.2 33 24.2l5-1c-12-11-20-17-33-25z"/>
<path d="m563.2 504.4c3.4 0.3 9.4-2.5 14.4-4-2.2 4.5-5.8 11.1-11.7 10.7-5.7-0.9-13.3-10-13.1-12 4.5 0.1 7.3 5 10.4 5.3zm352.9-29.9c-0.3-5.5 2-10.6 3.5-15.8 1.5 2.3 3.1 4.4 4 7 1.8 5.3 0.3 10.9 1.2 16.3 2.9 7.9 9.1 14.4 10.4 22.9-2.1 4.7-4.8 11.2-10.9 11.2 0.3-4.4 6.1-5.9 5.6-10.4-0.5-7.1-5.2-12.7-9.2-18.2-1.1-4.5-2.5-8.9-4.6-13zm-78.7-29.8c-0.3 0.7-1.1 1.7-1.5 2.3 7.7 1.1 14.8 4.5 21.9 5.6 10 2.1 20.3 2.4 30.5 2.1 6.4-0.3 12.6 1.7 19 1.5-1.2-2.2-2.2-5-5.1-5.3-15.4-3.5-31.4 0.8-41.8-1.7-10.3-2.3-18.2-3.6-23-4.5zm-284.6 11.9c-1.5-7 0-14.1 3.3-20.4 1.5 5.2-0.5 10.7-0.3 16 0.4 2.3-1.5 3.3-3 4.4zm18.3-26.6c-7 2.4-2.8 12.1-0.3 13.4-1.4-7.4 1.1-10.7 0.3-13.4zm-5.5 3.6c-7.8 3.4-7.2 8.3-5.8 15.9l3.1 0.2c-1.7-3.2-0.6-13.7 2.7-16.1zm-244-85.9c3.8 3.4-14.8 20.2-16 14 3.7-1 15.1-11.8 16-14zm410.5 1.4c6.6 2.6 16 12.5 20.8 17.3 3.7 3.5 6.9 7.3 10.4 10.8 5.3 5.3 6.8 12.9 11.6 18.4 7.2 8.1 12.8 17.5 18.2 26.9 4.1 7.1 10.8 11.7 16.5 17.4-5.4-1.8-10.4-4.4-14.3-8.4-7.4-6-14.2-12.8-18.5-21.5-3.2-6.9-8.1-13.1-10.7-20.4-1-2.7-1.5-5.7-3.4-8-8.6-9.5-22.1-23-30.6-32.5zm-440.2 10c5.7-2.6 11.2-10.5 16.2-14.7 3.6 1.7-13.5 18.5-16.2 14.7zm7.4-22.1c-5.5 7.1-13.4 19.5-20.6 17.2 7.7-4.8 13.2-12.7 20.6-17.2zm-27.1-116.5c7.6-2.1-1.9 26.1-3.5 16.2 1.2-5.3 2.7-10.6 3.5-16.2zm66-168c4.9-7.53 4.5-10.28-3.4-13.55 9-6.04 17.4 12.4 3.4 13.55z"/>
<path d="m402.6 108.7c-13.4-2.1-18.2-14.65-31.4-17.25-21.3-4.9-41.4 7.5-59.7 16.35-16.1 8-33.8 18.3-52.5 14.1-14.3-4.1-16.8-21.9-13.5-34.35 1.6-13.8 15.8-23.6 13.5-38.3-6.6-30.22-37.1-16.26-48.5 0.6 7.1-4.6 20.5-7.1 24.1 3 2.9 12.3-4.2 24.5-3.5 36.9-1.5 17.35 5.1 37.05 21.6 44.55 28.6 10.7 48.6-5.7 71.2-20.7 13-7.3 37.1-6.3 41 6.6" fill-rule="evenodd" fill="#e0000f"/>
<path d="m77.86 18.94c-9.8-0.06-20.23 4.58-26.18 12.84 9.53-6.2 23.08-5.38 24.78 0.92 0.9 3.45 0.8 8.55-1.9 12.05-6 7.9-9.9 17-6.4 25.2 1.8 4.3 5.7 6.8 9.2 9.5 9.3 6.3 15.8 15.9 25.04 22.45 3.8 2.6 6.3 6.6 8.5 10.6-5.2 3.2-11.54 3.5-17.24 5.5-7.5 2.5-26.2 1.1-26.2 1.1-23.9-21.35-43.9 4.6-37.15 21.3 1.02-4.8 3.59-9.6 6.22-10.2 13.14-3.3 20.94 13.8 21.03 20.5 16.6-4.1 36-8 48.84-14.2 12.1-4.9 31.9-5.1 39.7 5 0.5 1.2 1.5 2.4 0.5 3.2-5 4-0.3 7.5-0.3 10.5 0 13-17.7 9.5-26.3 5.1 0.8 11.8 23.6 16.4 27.6 16.4 6.6 0 14.8-5.8 20.7-8.8 8.8 1.9 28.1 19.5 37.9 29 18.8 18 16.1 37.7 10.4 51.8-4 10-17.2 5.7-22 3 11 22 35 6 40-9 0.1 3-0.2 9.4-2.4 12-2.7 3.5-5.6 7-9.8 8.8-5.4 2.4-9 7.9-15.2 6.2-15.1-2.1-23.6-14-23.6-21-5 13 1.8 17.8 13.1 27.5-9.3 5.5-20.1 8.1-30.7 10-12.1 0.7-20.8 1.5-35.7-5.8-16.1-7.8-15.2-20.1-13.5-36.3-18.14 25.2-1.7 69.1 37.9 63.1 14.7-2.5 28.7-7.6 42.5-10-8 4.3-16.6 7.8-25.6 9.3-14.1 4-30.6 4.7-45 0.7-11.2-3.1-21.3-7.1-27.54-17.1-11.2-18.2-5.1-27.9 0-46.2-19 19.4-17.1 75.2 10.34 82.6 38.1 10.2 68.8 0.6 100-5.7-36.8 22.7-84.1 16.6-105.3 10.4 27.3 27.6 60 25.5 87.3 19.1 51.7-12.1 66.7-25.7 89.7-19.8-3.9 4.4-9.4 7-13.8 10.9-6.5 5.6-13.6 10.5-20.7 15.3-6.9 4.7-12.7 10.8-19.9 15-6.9 4.3-15 5.9-22.3 9.4-7.5 3.6-14.6 11.5-23.4 10.1-1.2-1.5-2.1-4.3-2-6.7 0.2-6 7.2-11.3 5.3-16.8-3.9-11.2-24.7-7.1-28.5 1.3 10-2.9 13.9 1.9 10.2 7.3-2.1 2.8-4.7 4.3-8.2 6.6 4.3 29.7-30.2 28.9-49.7 16.9-10.14-6.3-18.54-15.2-25.54-24.8-3.3-5.3-4.9-11.4-7.5-17.1-4.1-11-13.23-25.2-24.69-18.6-9.7 5.5-19.65 25.6-10.93 37.5 1.57-9.8 3.74-18 12.71-18.6 8.22 7.8-3.2 21.1 0.25 27.1 7.04 12.2 27.06 15.2 37.86 30.1 2 2.8 4.1 6.9 1.3 10-16.4 17.6-45.7 8.8-58.03 18.3-18.61 14.3-5.73 47.8 14.65 41.3-8.07-1.1-14.89-6.3-10.62-20.4 3.67-0.7 7.88 4.9 11.03 8.3 4.88-1.4 8.99-4.4 12.66-7.8 7.91-7 18.11-10.4 27.61-14.7 8.5-4.6 29.04-15.3 31.44-7.3 1.4 13-14.4 26.9-20.44 32.4-12.2 5.2-13.2 7-19.6 12.9-9.3 4.4-16.51 17.1-12.3 26.7 6.4 14.5 27.6 10.1 39.14 3.6-11.64-2.2-18.34-3-17.64-14.6 3.5-1.4 8 4.4 11.44 7.4 3.3-2.2 6.6-4.6 8.8-7.9 7.9-11 13.4-23.6 22.6-33.7 7.7-10.4 16.5-19.9 25.6-29.1 19.7-19 38.3-23.9 62.2-24.3 14.4-0.2 27.8 14.3 24.4 27.9-4.9 18.7-16.1 24.8-32.7 28.8 24.7 2.5 51.2-12.4 69.3-26.4 0.4 8.7-11.7 23.7-29.9 31.7 23.4-5.7 47.2-21.4 68-38.2-5.3 25.1-30 40-46.4 47.7 43.1-15.8 68.4-36.8 90.1-70 7.7-1.1 15.3 1.6 22.7 3.1 56.9 11.5 97.9 6 147.2-7.1 11-2.9 21.7-7.7 33.3-7.9-4.7 5-11.4 7.6-15.7 13-5.3 5.3-6.2 13-8.9 19.8-4.7 12.6-3.9 27.6-13.1 38.2-10.5 11.7-24 20.6-38.5 26.5-5.6 1.6-11.6 2-17.3 0.5-3-0.8-4.6-3.8-5.9-6.4-3.9-8.3-6.3-17.8-13.6-24.1-5.5-4.8-13.2-5-19.7-3.1-5.5 2-10.6 8.8-12.6 17.7-5.4-2-10.8-2.7-17-0.3-11 4.4-14.6 17.2-7.4 29.8-4.1 2-8 5-10.8 10.4-5.4 10.9 4.2 28.8 15.2 35.1-1.9-8.1 1.3-23.9 7-21.6 8.4 3.5 4.6 17.9 13.9 20.9 7.6 3.3 14.6-3.8 22.3-2.5 11.5 1.6 23.6 3.5 34.6-1.3 10.8-5.4 23-6.5 34.2-10.8 9.3-2.5 16.6-9.2 25.1-13.6 8.5-4.6 16.5-10.3 26-12.5 3.4-0.7 6.9-1.5 10.3-2.3 7.7-1.7 15.3-3.8 22.6-6.4 4.3-10.4 6.2-22 11.6-32 14.7-26.7 23.5-32.8 52.4-38.9 7.6-1.5 15.6-1.9 23.3-2.2 6.3 8.9 16.6 17.1 23 24.8 17.3 18 39.9 27 63.7 29.8 32.8 4 53.1 2.1 79.7-5.2 8.3-2.2 18.7-3.3 26.3 5.1-7-1.1-11.4 10.7-6.5 16.9 3-5.7 6.1-5.2 9.4-6.9-1.1 4.2-3.4 8.5-7.7 10.2-7.2-1.7-12.4-8.2-19.5-9.7-7.7-1.5-16 1.3-20.9 4.7-9 6.3-6.7 14.1-3.8 25.6 0.3-5.9 2.2-16.7 10.2-14.5 1.5 0.4 4.6 1.7 8.1 5.1-1.1 2.4-9.4 2.3-13.2 2.8-9.3 1.3-15.5 8.6-14.3 18 0.7 6 6.2 14.8 14 17.8-3-6.6-3.6-23.7 7.2-22-0.4 10.7 3 20.4 9.9 23.6-0.3-6.2 2.1-11.1 3.8-14.3 3.5 4.2 6.6 10.1 12.7 10.8 7.2 0.4 14.4-0.7 21.4-2.3 6.7-1.5 13.5-1.8 20.2-2.8 2.1-0.4 4.5-0.6 6.1-2.2 5-5.1 7.9-12 13.4-16.7 4.2-3.8 9.6-6 13.6-10.1 3.2-4.3 3.4-10.2 7.1-14.2 2.4-3.2 6.5-6.2 5.6-10.8-1.5-10.7-9.5-18.8-13.8-28.4-3.4-7.2-6.3-13.6-8.2-21.4-1.2-5-5-11.1-9.9-12.3-7.7-2-15.8-0.3-23.7-1.4-7.9-1.2-16-0.7-24-2.3-9.8-2.1-20 0.1-29.8-2.6-11.1-2.8-22.7-8.3-28.5-18.7 25.3 6.3 52 10.5 77.9 5 21-3.4 37.4-17.3 49.8-31.8 8.2-9.6 13.8-21.9 14.8-34.9 2-24.8-15.6-43.8-34.3-54.2-25.5-11.5-47.7-21.1-80.4-14.4-9.4 2-18.7 4.4-27.6 7.9-16.1 5.2-51.7 15-60.7 6.5-10.1-9.7-7.8-29.7 0.9-36.8 9.7-7.8 24.5-16 45.4-13.3 10 1.3 19.9 2.9 29.3 6.8 7.2 2.8 14.4 5.9 21.7 8.7 15.3 6.8 31.3 12 47.2 17.2 10.7 2.4 21.5 4.6 32.5 4.4 10.6 0.7 21.1-2.5 30.3-7.4 7.1-3.6 14.1-8.3 17.1-15.7 5-11.9 3-25.4 2-38.1-2-21.7-4-36.8 19.4-37.8-13.4-9.5-31.4 7.6-37.6 16.4-3.8-8.7-5.1-21.5 0.3-29.8 2.9-6.8 9.9-12.5 17.9-12 9 3 17 10 23.4 16.1-10.4-26.2-62.2-42.2-86.1-36.5-25.7 6.1-38.5 21.4-35.9 45.2 1.2 10.5 4.6 20.7 9.6 30 3.6 6.8 7.6 13.2 1.9 16.7-4.3 2.5-12-2.2-17.7-4.6-19-6.1-38.2-13.1-58.4-14.1-8.4-0.3-16.8 0.2-25.2-0.4 4.9-4.6 10.3-9.1 17-10.6 7.8-1.7 15.6-3.9 22.1-8.7 2.3-1.7 5.2-5.1 5.5-9.3 2.2-0.7 4.3-1.6 6.1-2.8 3.8-2.5 8.1-4.3 11.8-7 5.6-4.1 12.4-6.4 17.1-11.7 5.7-5.7 16-14.5 19.1-21.1-3.7 2.5-7.2 4.5-11.7 6-11 4.2-23.6 7.4-36.6 8.4-8.5 0.7-14.7 1.5-23.2 1.4-14.8 0.6-17.8 1.6-27.1 2.4-11.3 0.9-22.6-0.4-33.8-1.1 15.2-3.5 31.1-3.7 47.1-4.7 5.1-0.3 9.4-1.2 14.5-1.5 8.5-0.5 17-1.1 25.4-2.4 10.7-2.7 21.5-4.8 32.2-7.7 11-2.2 22.2-8.2 29.5-16.8 7-10.2 13-21.1 19.6-31.55 1.1-2 1.8-4 2.8-7-8.9 1.9-14 9-24.2 12.55-22.6 9.1-46.2 10.9-67.9 15.6-9.2 2.1-18.4 3.4-27.7 3.8 7-3.5 14.6-5.4 22.4-6.3 12.8-1.6 24.8-6.8 37.3-10 15.1-4.4 30.3-11.35 43-17.95 8.8-4.6 16-11.5 23.2-18.1 2.6-2.5 5-5.2 6.5-8.5 2.7-5.9 5.4-12.2 5.3-18.9-0.1-4.9-0.4-9.86-0.3-14.82-0.2-2.82-0.6-3.38-1.6-4.38-4.1 4.31-8.8 8.76-12.9 12.4-5.1 4.6-14.6 15.3-21.6 17.7 5.1-6.9 12.5-24.73 8.7-34.9-47.8 47.7-114.6 58.4-173.9 55.8 1.5-3.2 3.5-6.1 5.6-8.9 3.7-6 7.9-10.7 9.9-21.4-14.8 14-22.1 17.4-31.7 21.2 4.1-9.7 14.7-24.8 4-34.43 0.3 9.13-3.7 14.03-7.5 17.43-6.8 6.1-11.8 10.3-20.7 12.8-6.5 1.9-12.8 4.2-19.3 5.9-7.1 2.4-15.1 3.5-22.4 2.3-0.2-4.3 0.8-8.6-1.2-11.7-0.5 1.2-5.5 10.2-9.4 11 0.5-2.7 6.2-10 3-19.3-2.7 4.8-8.2 10.8-14.5 14.4-7.4 4.1-16.2 6.3-24.1 8.7-13 4-28 6-40.4 11.7-6.5 2.9-13.4 5.6-19.2 9.2-9.7 6-17.8 12.65-24.8 20.35-7.1 7.8-13.8 16.5-16.5 26.7-3.3 12.7-7 40 1.2 49.4 6.2 6 13.4 10.8 19.8 16.5 5.2 4.9 6.5 12.3 6.2 19.1-0.1 9 0.7 19.7-6.2 26.6-8.9 7.9-19.4 14.2-30.7 18.2-7.8 3.3-16.4 3.5-24.5 5.4-4.1 0.7-8.4 2.3-12.5 1-2.4-0.6-2.6-3.5-3.5-5.4-2.6-6.8-2.8-14.6-2.2-21.8 4.5 2.8 13.3 8.1 20.5 7.3-2.2-4-3.9-8.6-4.7-12.6-0.6-3.2 0.9-7.1 3.5-10.3 0.6 4.9 10.6 14.9 16.4 13.6-5.3-9-10-14.8-6.8-26.5 2.6-9.9 3.8-21.7 6.6-31.6 1.5 4.1 4.8 15.1 11.8 18.1-3-8-4.8-18.3-3.6-26.2 0.8-7.3 0.2-14.7 2.2-21.9 2-7 1.7-14.4 1.6-21.6-0.2-8.3-1.2-16.6-3-24.7-0.6-6.3-5.1-13.25-7.4-19.35 5.2 0.5 19.6 1.9 28-1.3 11-4.6 22.3-8.5 32.4-14.9 10.2-6.6 22.3-10.3 31.1-18.9 3.7-4 11.9-6.5 15.5-12.3-11.3 1.3-23 7.6-33 8.6-9.8 0.9-19.8 1.4-29.5-0.8 11.9-10 33.4-14.8 44.9-24.72-7.5 0.78-17.1 0.46-23-0.76-28-5.79-59.6-10.52-84.8 2.6-8.7 4.58-20.5 10.68-30.5 7.98-69.2-18.76-76.6-14.72-106.5-8.31-33.4-4.39-57.4 11.61-50.8 33.91 2.1 7.1 6 14.6 11.2 19.9 8.9-19.6 18.3-18.8 41.4-11.9 4.6 0.2 13.5-0.1 19 3.3 23.7 14.4 31 26.45 32.4 31.55-2.9-1-5.6-2.5-7.7-4.7-21.6-21.95-44.9-19.45-82.9 2.5-12 7-29.8 16.6-44.6 15.8-24.5-1.5-20.4-34.35-10.1-49.05 16.7-23.5 1.7-44.7-17.8-41.79-12.6 1.88-27.2 11.09-33.5 28.29 10.3-9.8 27.9-14.8 29.3-1.6 0.6 5.9-2.5 16.3-3.3 22.2-3.5 26.75 0.6 50.35 27.8 60.55 25.6 7.8 38-6.4 54.4-14.8 4.5 3.2 8.5 7 14.1 9 14.2 4.5 29.2 1 43.8 1.6 9.5 0.2 18.7 3.9 26.3 9.7 3.6 1.9 2.5 7.6-0.7 9.4-7.2 4.2-13.5 9.9-21.5 12.5-11.2 5.5-22 11.6-32.3 18.6-7.2 4.3-14.1 9.2-20.7 14.6-1.8 1.2-2.8 4.4-5.3 3.8-22.6-5.9-43.7-16.4-65.1-21.9-12.1-2.8-22.8-9.2-33.2-15.7-11.6-4.6-20.8-13.2-28.8-20-8.4-7.2-19.3-14.3-25-22.5-3.3-4.8-1.6-11.1-0.6-16.6 2.5-13.45 4.9-34.35 14.6-46.25 5.7-3.8 5.3-11.5 1.9-13.8-2.6-10.3-3.5-13.9-8.4-18.25-16.4-14.62-44.7 2.85-47.3 20.35 5.4-7.7 15.9-14.86 24.9-10.6 3 1.5 4.2 7 2.1 9.5-9 4.7-4.9 14.8-3.8 22.2 1.3 6.7-1.3 13.3-2.4 19.9-0.7 5.4-6.2 10.1-11.7 9.3-5-0.8-8.6-4.7-12.3-7.7-4.2-3.6-6.6-8.6-9.4-13.3-2.4-4-6.1-7.5-6.7-12.4-0.9-7-2.5-4.3-2.3-21.1 0.2-17.82-11.44-25.64-24.14-25.71zm-4.8 5.22c22.3-2.51 21.7 19.39 21.8 30.59 0.1 12.2 11.74 19.4 16.34 29.8-2.3 4.6-4.8 9.2-7.9 13.4-3-2.4-7.74-4.8-7.44-9.3 0.1-2.9 4.44-6.4 5.24-10.4-3.94 2.6-6.04 7.1-8.04 9-5.6-1.9-7.2-4.4-9.3-8.8 0.7-3 5-8.1 7.1-10.2-4.3-0.5-7.3 6.5-11.1 7.9-1.1-1.8-3.6-5-3.2-7.2 2-5.2 12-9.8 13.4-16.5-3.4 2.4-9.8 8.5-13.8 8.9-2-7.6 3.7-10.7 5.4-16.6 1.8-6.3 1.3-16.66-8.5-20.59zm79.84 3.21c8.4-0.14 16 12.38 14.7 19.78-2.8 1-3 1.6-9.2 0.7-1.8-3.1 0-9.3-1.8-11.1-3-3-4.5-4.62-12-4.34 2.7-3.52 5.6-4.99 8.3-5.04zm235.2 2.04c2.8-0.02 5.7 0.16 8.5 0.78 11.3 2.12 23 4.66 32.7 11.16 4.4 2.8 9.5 4.4 13.8 7.5 3.2 2.3 6.8 3.9 10.3 5.8 5.1 2.7 9.2 7.5 15.1 8.5 9 1.6 17.1-2 26-2.9 15.2-1.6 31.1-6.7 46.5-6.2 1.5 0 1.5 2.8 0 3-7.6 3.5-15.3 7.2-23.6 8.3-9.7 2.3-19.6 2.9-29.5 4-10.3 1.6-22.4 1-32.7 3.2 5.6 6.7 16.7 15.6 13.2 25.6-3.6-4.8-17.4-17.3-23.4-10 9.4 6.5 12.8 17.45 7.6 24.75-6.1-5.6-17.4-14.85-26.9-14.95 9.5 7.25 23.6 18.35 28.3 31.05 2.8 5.6 1.1 12-1.7 17.1-2.3 4.3-4.6 9-8.9 11.6 0-5.2 3.3-11.6-0.7-16.1-3.8-4.1-8.9-8.8-14.2-10.7-12.4 7.5-33.3-1.4-48.5-2.4-15.3-0.9-19.5 2-32.5 2-8.5 0-14.6-1.5-17.5-1.9-4.7-0.6-10.5-2.1-11-7 6.3 1.7 19.1 2 26.7 1.7 10.2-0.4 15.6-2 26.1-2.8 8-0.4 23-2.6 28.9-7.2 5.9-6 3-15.25-1.2-20.95-12.6-17.5-37.5-27.9-48.5-26.2-15.8-7-37.9-9.4-45.7 8.9-10.9-18.4 3.5-45.59 39.5-40.96 2.2 0.3 1.2 2.86 2.4 4.36 5 7.3 13.7 18.5 23.3 18.5 5.3 3.6 6.3 7.7 11.8 11.4 9.2 6 15.1 15.7 22.5 23.7 7.8 7.4 12.3 17.35 19.6 25.25 0.7 0.3 2.2 1 3 1.4-1.7-4.8-5.8-8.1-8-12.6-5.6-8.15-12-16.65-16.8-25.35 5 2 8.7 0.4 12-1 5.7-2.5 8.1-6.9 8.6-12.6 0.7-7.3-4.6-14.2-10.6-14.4 6.6 5.1 10 14 2 20-3.4 2.6-7 3.5-11 3-8.2-1-13-10-8-19 1.1-1.9 3-3 4-3-2 5-4 11-0.2 15 3.3 3.6 8.5 5 12.2 1.9 1.8-1.5 3.2-3.5 2.7-6-0.6-2.9-4-8.2-8.7-4.9 5-0.6 6.2 4.8 4.2 7-2.3 2.7-5.2 2-6.8 0.1s-1.4-8.1 0.2-10.9c3.8-6.6 10-5.6 15-4.9 7.9 1.1 15.5 5.7 21.6 10.8-1-7.6-8.5-12.5-15.3-14.5-7-2-14.5-3.4-21.9-2.1-10.1 1.6-20.6 3.5-30.8 1.1-8-1.6-16.6-5.2-20.9-12.54 7.5-1.51 15.2-2.37 22.8-3.56 4.8-0.2 9.6-0.82 14.4-0.84zm186.3 1.71c-12 6.73-18.8 7.73-25 9.63-6.2 1.8-11.9 5.9-18.5 5.2-20.2-2.1-41.6 11.7-58.1 10.8-6-0.4-13.2-5-17.6-8.7 19.5 2.2 36.5-12.5 52-16.89 19.5-5.53 38.1 2.1 67.2-0.04zm340.2-1.75c-4.8 22.38-13.7 26.38-27.2 34.48-19.5 8.6-40.2 14.8-61.4 17.5-15.2 3.2-30.9 3.3-46.4 2.1-6.2 0.1-12.4-0.3-18.4-1.6-6.9-1.2-13.8-0.5-20.7-1.4 1.8-2.5 5.1-2.8 7.9-3.1 40.5 0.8 51.8-1.6 73.7-2.7 9.9-0.9 19.4-4.2 28.8-7.3 32.8-10.8 47.8-23.9 63.7-37.98zm-673.7 3c12.7 0.38 20.6 17.68 9.1 35.08-4.4 6.7-7.8 18.7-7.9 28.6-0.2 31.35 28 33.55 52.4 21.15 8.7-4.4 27-13.4 37.6-17.65 22.3-9 41.9-9.55 57.9 11.15-6.4 1.2-20 5.3-20 5.3-13-8-19.4-12.3-35-9-12.3 2.6-27.8 12.5-39.7 19.2-25.9 14.6-58.7 9.9-60.8-25.3-0.7-13.25 1.3-26.65 6.1-38.95 5.4-14.2-8.4-24.9-21.4-19.8 3.8-5.15 13.8-10.01 21.7-9.78zm702.7 0.38c0 3 0.8 17-2.6 23.4-5.4 11.4-16.8 18.5-28.1 23.3-9.4 5.1-19.9 7.7-30 11.1-16.1 4.7-31.5 12.95-46.6 15.85-11.9 3.1-24 4.8-36 7.6-6.8 1.7-13.8 1.8-20.6 3.3-11.5 2.4-23.2 2.2-34.8 3.3-11 1.1-22.3 1.1-32.9 1.3-7.1 0.1-14.5 2.6-21.4 0.1 0.6-2.2 0.8-4.7 2.4-6.5 5.5-2.5 11.8-2.1 17.7-3.3 7.5-1.6 15-2.8 22.7-2.5 13.8 0.6 27.4-1.8 41.3-1.8 10.1-0.1 20.1-2.2 30.1-4 7.3-1.2 14.1-3.5 21.2-5.35 6.3-1.6 44.3-10.8 50.2-13.8-2.7-0.4-36.9 7.5-39.5 8.4-8.1 2.8-16.7 3.7-24.9 6-10.6 2.85-21.4 4.45-32.2 5.35-12.1 1.1-24.2-0.3-36.2 0.7-8.5 0.8-16.9 0.5-25.4 1.4-7.9 0.9-16 0.6-23.9 1.9 0.1-0.9 0.4-2.7 0.5-3.6 3.7-2.1 8.1-2.9 12.1-4.5 6-2.25 10.8-6.85 16.9-9.05 9.4-1.8 19-0.1 28.6-0.2 14.9 1 29.9 1.4 44.9 0.9 8.2-1.3 16.6-1.8 24.7-3.9 5.8-1.6 11.7-2.3 17.6-3.6 24.7-5.9 47.1-13.5 68.2-23.8 8.6-4.2 15-7 24.6-14.6 4.2-3.4 8.4-8.4 11.4-13.4zm-774.1 16.4h2.3c1.6 3.2 0.1 6.6-1.5 9.5-5.5-3.4-11.5 0.1-17 2-1.3-2.6-3.2-6.5-0.6-8.9 5.9-2 11.4-2.6 16.8-2.6zm219.3 5.5c0.7-0.1 3.3 0 3.8 0.1-2 3-3 6-3 8.7-3.3-0.7-7.2-4-7.4-7.5 1.9-0.6 4.6-1.2 6.6-1.3zm338.7 0.3c-1.1 6.9-7.4 11.1-12.2 15.4-5.2 0.9-10.3 2.2-15.3 3.7-15.9 2.2-23 3.9-37.9 3.4 0.2-0.7 0.7-2.6 0.9-3.3 15.2-1.3 31.5-1.5 44.9-9.7 6.9-2.4 13.1-6.2 19.6-9.5zm-142.7 1.4c-0.2 0.6-0.6 2-0.8 2.7-5.9 3.2-11.7 6.6-17.4 10.2-4.4 2.9-10.2 2.3-14.4 5.6-6.8 5-14.2 9.4-22.7 10.9-17.7 3.2-36.8 1-44.1-9.6 2.2-1.2 5.4-2.4 7.6-0.6 9.6 6.2 19.6 9.2 30.2 6.4-7.7-0.9-25.5-3.3-26.5-7 16.1-0.9 18.2 1.9 21.5 2.5 4.8 0.9 19.8 3.8 17.3-2.4-1.5 2.2-7.1 2.9-8.5 1.2-1.2-1.5-0.3-3.5 0.4-3.9 5.8-3.1 13-6.8 20.4-8 12.5-2.1 25-4.2 37-8zm-415.7 4c-0.8 3.7-4.1 8.7-6.1 11.7-3.1 0.6-7.1 0.3-11 0 0.3-3.1-0.3-6.5 1.5-9.2 3.3-2.5 13.1-5.1 15.6-2.5zm578.5 0.6c-4.5 9.2-14.2 13.6-21.3 20.4-9.9 6.3-20.7 10.8-31.7 14.8-8.6 4.05-17.9 6.05-27 8.85-4.7 1.3-9.5 1.8-14.2 2.3-11.6 1.1-22.4 6.3-34 7.2 3.1-4.8 7.8-8.2 12.6-11.3 5-3.2 9.1-7.45 14-10.75 4.3-2.9 5.2-5.4 11.1-7.4 9.1-1.1 20.9 0.3 30.1-0.4 7.4-0.7 15-1.3 21.8-4.6 8.3-2.7 15.4-7.8 23.3-11.4 5.2-2.3 9.9-5.7 15.3-7.7zm-95.4 2.4c-2.7 5-5.7 10.2-10.1 13.9-5.1 2.7-10.9 3.7-16.4 5.4-17.2 3.1-34.1 8.3-50.1 15.5-9.3 4.65-19.6 7.95-27.1 15.45-7.4 6.9-11 16.6-16.3 25-9.2 20.3-6.4 33.1-1.6 45.3-8-3.3-10.4-12.6-10.9-20.5 0.6-11.4 5.6-21.9 10.3-32.1 4.8-8.9 10.3-17.9 18.5-23.9 4.7-3.7 9.2-7.85 14.6-10.45 17.1-8.8 35.3-15.4 54.1-19.6 7.9-2.4 16.3-3.7 23.6-7.6 3.9-2 7.5-4.4 11.4-6.4zm-489.8 10.6c-0.4 4.3-1.9 7.8-4.6 10.6-3 0.3-5.7-0.5-8.4-1.2-0.2-3.3 0.1-6.5 2.8-9.3 2.8-0.1 5.2-0.7 10.2-0.1zm306.3 1.5c4-0.1 8 0.9 10.7 3.2 5.9 4.2 9 11 14.2 15.9 5.7 6.75 9.4 15.15 10.9 23.95 1.5 9.2 3.8 18.6 1.9 28-1.1 5.3 0.6 11.3-2.6 16.1-3.8-12.9-5.6-26.4-10.9-38.7-1.8-4.5-7.9-18.5-21.8-28.45 0.1-3.9-0.9-7.8-2.7-10.7-1.9-2.7-3.7-5.5-5-8.5 1.7-0.5 3.5-0.7 5.3-0.8zm-311.4 10.5c-0.5 3.1-0.8 6.4-2.2 9.2-2.6 2.2-6.2 1.6-9.3 1.9 0.7-3.4 0.6-7.6 3.5-10.1 2.2-1.6 4.4-1.9 8-1zm-43.9 2.6c2.6 0.7 6.2 6.2 8.2 7.9 0.6 3.3-5 9.05-4.5 12.05 2.2-0.4 6.5-9.25 7.5-10.45 2.7 1.7 6 3.65 8.7 5.25 0.5 3.2-4.7 10.8-4 14.7 2.8-0.7 4.9-11.1 7.3-14.3 4.4-4.65 10.2-4.65 17.7-5.25-0.5 4.75-0.9 9.65-1.4 14.45-4.3 3.3-11.9 9.4-15.3 15.8-8-2.4-18-1.4-26.8-1.6 0-12.8 1.6-11 3.8-16.1-2.5-3.7-5.9-7.2-6.6-11.75 0.1-4 2-8.5 5.4-10.7zm342.6 6.3c2.7 1 8.7 5.35 12.5 10.95 1.5-2.6 2.4-5.7 2.6-8.95 6.7 10.45 9 22.85 9.8 30.35 0.2 11.7 1.8 24.3-3.4 35.3-0.8 2.1-1.8 4.2-3.9 5.2-0.3-7.8-0.6-15.8-3.1-23.3-2.4-7.2-2.7-15.5-8-21.3-3.2-3.2-4.2-6.1-4.1-9.6 0-5.2-0.8-11.8-2.4-18.65zm-112.7 16.05c8.7-0.1 16.1 2.8 17.9 7.1-10.9 1.4-33.5 3.5-39.5 0.2 5.4-4.7 14.8-7.2 21.6-7.3zm-190.8 4.2c2.8 3.1 4.7 6.9 5.9 10.8-3.2 3.6-5.5 5.5-8.8 8.8-2 1.2-5.9-2.8-9.3-4.3 1.3-6 10-13.2 12.2-15.3zm-103 2.2c4.25 0.2 9.05 2.7 12.78 5.6 1.48 4.6 0.55 11.9-0.5 13.4-7.18-10.5-8.95-12.6-20.44-14 1.87-3.8 4.85-5.1 8.16-5zm59.5 2.2c0.2 2.4 0.2 5.4 0.1 7.9-1.7 0.7-2.8 0.8-4.2 1.4-6.31 1.8-12.21 4.7-18.51 6.4-7.7 2.2-14 9-22.36 8.7 1.56-2.2-1.44-11.2 0.86-18.8 2.3-0.6 2.7-1.4 6.9-1.8-0.2 6.4-0.4 17.6 2.8 15.2 0-2.2-1.7-4.6-1.3-14 2 0 4.3-0.8 6.3 0.2 1-1 3.2-0.5 3.6-0.1 0.9 4.2-0.9 9.6 2.5 8.7-0.3-2.4-1.2-4 0-8.4 2.2-1.1 6.4-1.6 9-1.4 1.4 1.1-0.3 4.7 2.1 5.1 0.2-1.6 0.5-4.5 0.7-6.1 3.81-1.4 7.61-2.4 11.51-3zm378.8 8.3c8.8 11.6 10.4 29.7 9.2 43.2-0.7 8.2-3.1 16.2-4.1 24.3-0.3 2.5-0.8 5-1.5 7.4-1.6 4.6-1.7 9.6-4.2 13.9-2-8.6-3.8-17.9-1.1-26.6 2-7.7 3.5-15.5 4.4-23.4 1.1-8.5-0.9-26.7-2.7-38.8zm-327.7 0.6c3.9 1.2 5.4 6.7 9.7 10.1-4.6 8.4-13.5 4.9-17.4 4.5-1.2-2.8-0.7-3.7-1.8-6 2.1-1.7 6.5-8.6 9.5-8.6zm304.1 7.4c2.1 5.7 0.8 13 0.5 18.9-0.6 10-6.3 18.7-12.7 26.1-7.4 8.3-19.9 12.2-29.7 15.2 0.9-4.5 4.8-13.3 5.9-19.6 3.5-2.2 8.9-5.8 11.7-8.9 4.1-4.3 10.2-6.3 13.8-11.1 5.1-5.6 7-14.1 10.5-20.6zm-57 2.3c7.8 0.3 15.4-0.3 22.5 0.2-0.1 6.7-7 29.3-12.7 28.6 1.4-18.4-1.9-19.4-9.8-28.8zm-235.8 2.6c2.7 0.8 7.8 5.3 11.1 8-4.3 3.7-8.3 8.5-10.5 13.8-2-0.3-4.7-1.2-6.8-1.5-7.7 11-22.5 12.9-33.3 7.4 7.2-0.2 19 0.3 20.5-11.8 1.5 0.1 5.1-1.2 6.6-1.1-0.6-3.3-4.3-0.8-7.2-2.6-1.8-1.6-2.5-6.7 0.1-8.3 9.7 1.9 13.9 3.1 19.5-3.9zm263.2 5.9c3 4.5 4.2 11.4-0.2 15.4-3.4 3.4-6.5 7.5-10.8 9.8-4.7 2.5-8.6 6.4-13.6 8.4-7.2 2.9-15.1 8.7-23 9.6 13.7-15.3 21.8-20.5 14.4-45.8 15.7 10.5 11.4 21.4 7.1 32.3 5.8-2.6 10.8-6.8 15.1-11.4 4.9-5.3 6.2-12.9 11-18.3zm-249.6 4.6c3.4 4 7.7 7.1 11.3 10.8-3.6 3.4-6.7 7.2-8.5 11.8-4.1-2.4-7.7-5.6-11.5-8.5-1.7-6 4.5-10.8 8.7-14.1zm299.4 2.1c3.2 7.9 0.4 18-1.4 26.1-1.2 6.6-7.5 10.2-10.2 16.1-4.9 6.6-11.8 11.7-18.9 16-6.3 3.5-12.7 7.1-19.6 9.3 2.5-6.3 8.4-10.1 12.1-15.6 8.2-9.5 16.2-20 18.6-32.7 1.1-4.5 1.3-9.5 4.3-13.3 1.7 8.4-1.4 16.4-3.4 24.4 10.2-6.5 14.3-19.5 18.5-30.3zm204.2 28.4c5-4 12.9-3 18.3-2.8 14.7 0.4 29.4 2 44.1 1.4 10.8-0.5 26.5-0.5 35.6-1.6 8-1 16.1-2.5 24.3-3.9 8.3-1.4 12.7-2.1 24.5-3.1-10.8-4-37 4-55.8 5.5-7 0.5-20 0.5-30 0-10.5-0.6-23.2-0.2-32.2-1.5-8.9-1.3-18.9-0.4-27.8-1zm-291.7-22.4c1.8 9.4-6.8 23-15.7 29.6-7.7 8.2-17.2 14.4-25.8 21.6-8 6.8-17.1 12.2-25.7 18.1-3.1 2.2-6.9 3.4-10.6 4.4 7.6-8.7 15.1-17.4 22.3-26.5 3.9-5.3 9.3-9.1 13.4-14.1 3.7-4.7 9.6-9.2 14-13.1 12.9-8.2 19.1-8.3 28.1-20zm-198.8 3.8c3.7 3.4 8.1 5.9 11.6 9.4-0.5 4.2-4.7 7.1-5.3 11.5 4-1.5 6-5.4 8.3-8.7 4 2 8.2 3.9 12.5 5.6-3.2 7-7.6 8.8-1.9 11.6 1-3 2.3-7.8 3.3-8.8 2-2 9.1 2.6 14 4 9.1 2.6 14.5 3.9 21 6 7 2.2 13.7 3.4 20.6 5.8 4.9 1.8 10.2 1.6 14.8 4 4.6 2.3 10.8 2.2 13.8 6.9-7.9 7.2-16.8 13.5-23.3 22.1-4.1 5.1-9.7 8.6-15.2 11.8-3.5-2.3-7.3-4.3-10-7.5-0.2-5.4 5.2-11.7 0.2-16.3-0.6 4.1-0.7 8.3-2.4 12.2-0.8 2.4-2.6 5.6 0.1 7.6 2.8 3.2 9 5 8.1 10.2-9 6.8-24.5 11.1-32.9 10.9 2.1-5.7 9.5-8.5 12.4-13.7 5.5-7.4 6.8-18.1 5.8-27-8 6-0.1 16.8-13.2 27.6 1-10.5 1.3-27.1-4.1-38.9-0.6 8.6-0.3 18.5-2.4 27.3-1.5 4.6-4.6 8.7-8.8 11.1 0.4-3.7 0.9-7.4 1.5-11.1 1.3-7.2 0.3-14.6-1.1-21.8-2.3-8.6-7.6-16.1-13.7-22.4-8.5-6.9-13.3-10.5-21.3-16.6 1.7-4.8 3.5-9.6 7.6-12.8zm217.8 19.5c2.1 1.4 1.1 4.3 0.1 6-6.4 11.2-16.6 19.4-24.4 29.6-3.9 4-7.9 7.8-11.9 11.7-6.1 4.3-10.3 10.7-16.6 14.6-5.4 3.2-8.6 9.2-14.3 11.8-5.4 2.5-10.9 4.4-16.5 6.1-7.1 1.8-13.9 5.4-21.5 5.1 9.7-6.4 18.5-14.1 26.9-22.2 4.3-3.7 8.6-7.4 12-11.9 8.3-10.8 18-20.3 26.8-30.6 6.1-5.3 13.6-8.5 21-11.4 6.2-3 12.2-6.1 18.4-8.8zm-58.3 0.2c-2.4 3.9-9.9 7.9-17.2 15.6-6.5 6.8-12 10.9-16.4 19.5-5.9 8.6-14.2 15.2-22.8 20.9-4.9 3.7-10.9 5.2-16.5 7.3-0.7-0.4-2-1.3-2.7-1.8 5.2-5.2 12.1-8.4 17.5-13.4 4.5-4.2 8.9-8.7 13.4-12.9 7.5-7.1 11.9-17.3 21-22.7 5.6-3.3 16.1-12.2 23.7-12.5zm94.8 4.3c0.3 4.8-3.5 8.3-6 12-4.2 6.5-10.1 11.6-14.3 18.1-2.7 3.4-4.9 7.6-9.1 9.5-9 4.1-17.6 9.1-26.3 13.8-4.4 2.3-7.9 5.9-12.4 8 0.9-4.5 3.7-8.3 5.5-12.4 4.3-9.6 10.3-18.4 17.9-25.7 9.5-8.4 23.1-8.5 33.6-15.2 3.8-2.5 7.3-5.6 11.1-8.1zm380.9 1c-17.7 11.2-38.5 13.2-55.8 10.1-6.7-1.6-14.2 0.3-20.5-3.1 10.6-0.4 19.1 0.6 28.6-0.4 10.4-1.1 20-3 29-4 4.8-0.5 13.8-1.5 18.7-2.6zm-287.2 8.7c9.6 2.6 21.2 8.1 22 19.5-0.6 13.4-2.9 28-12 38.6-3.9 4.4-13.1 11.9-19.1 11.7 3.4-4.7 10.5-9.7 13-14 4-7.3 6.8-15.7 5.8-24.1-1.2-11.1-4.8-21.8-9.7-31.7zm-64 7.7c0.5 3.2 0.1 7.8-1.4 11.4-2.7 7.2-3.7 14.8-5.3 22.2-1 4.3 0.5 9.3 0.9 13.6-3.5-2.6-7.7-6.2-6.7-10.7 2.3-9.7 7.2-19.5 5.4-29.7 1.6-3 3.6-5.6 7.1-6.8zm-16 5.5c1.5-1.3 5.5-6.3 5.5-6.3s-2.4 6.2-3.4 7.4c-8.3 11.4-16.7 22.9-27.6 32-5.4 5.2-11.8 9-17.3 14-4.7 3.8-8 9.2-13.4 11.9 2.2-10.7 5.2-21.5 10.3-31.3 2.6-5.1 8.3-7.2 13.4-9 12-3.9 23.9-9.2 32.5-18.7zm-106.6 4.5c-1.4 2.6-3.2 5.1-5.4 7.1-6.2 5.5-11.9 11.5-18.1 17-7.5 5.8-13.8 13-21.8 18.1-14.8 7.9-28.9 17.2-45 22.3-5.7 0.8-11.6 1-17.2-0.8 2.1-1.7 4.4-3.2 6.9-4.3 10.3-4.9 18.4-13.2 27.1-20.3 3.4-3 7.7-4.6 12.1-5.6 8-1.7 16.1-3 23.6-6.2 13.6-7.6 24-20.1 37.8-27.3zm112.1-1.8c1 17-8.8 37-18.6 50.2-1.2 1.8-3.6 3.9-5.4 4.8 0.6-6.4 1.7-14 2.3-20.3 0.5-4.1 4.1-6.7 6.5-9.7 7.5-7.3 10.2-17 15.2-25zm-84.4 17.6c-4.2 11.4-11 24.3-15 35.8 5.9-4.7 13.9-10.5 19.6-15.5 6.8-5.9 15.8-8.3 23.2-13.4 1.5 5.7-3.5 10.9-8.1 13.6-10 5.8-17.3 15.1-26 22.7-6 6.3-13.4 11.1-20.9 15.4-6.3 3.7-12.2 8-18.8 11.2-5 2.5-9.3 6.1-14.2 8.6 5.5-10.4 12.5-18.4 17-28.4 1.6-3.6 3.8-7.6 6.5-10.9 4.1-4.7 6.9-10.5 11.3-15 7.8-8.7 14.5-19.1 25.4-24.1zm305.1 18.4c8.4 0.1 16.9 0.5 25.3 1.3-5.2 6.3-16.6 11.6-23 16.5-3 1.7-11.3-0.7-15.3 1.1 0.8 0.9 9.7 1 10.9 1.3-3.9 5-10.3 9.1-16.8 8.2-4.9-0.4-11.1-1.1-15.8-2.4 3.7-2.9 9.4-5.2 14-8 2.3-1.4 3.6-4.9 6.3-6 5.4-2.1 23.1-1.3 25.9-4.2-5.6-2.3-18.8 2.2-24.4-0.6 3.9-2.9 7.6-7.3 12.9-7.2zm-246.4 0.5c1.6 35.9-34.5 77.9-57.1 87.7 0.5-2 2.8-4.7 4.1-6.3 4.5-5.8 8.1-12.1 11.6-18.5 4.8-6.9 7.7-14.9 11.5-22.3 4.1-9.7 10-18.5 14.2-28.2 2.4-6.7 9.5-10.1 15.7-12.4zm-164.5 0.2c-1.4 4-5.4 6-8.3 8.8-3.3 2.7-6.4 6.7-11.2 6.3-9.3-1.4-19.5 7.5-37.5 3.5 4.7-5.8 12.9-1.3 27.6-5.8 10.8-1.9 18.5-11.3 29.4-12.8zm442.5 2c2.7-1.7 4.7-2.7 7.7-2.7-16 16-23 28-21.5 44.1 1.5 10.9 6.1 23.3 15.6 31 3.2 2.6 4.9 3.9 7.9 5.9-9-4-24.5-8.2-30-10-22-7-50-14-64.3-15.4 5.3-3.6 8.6-3.7 12.6-6.1 7.4-4.2 15.5-7.1 23.4-10.4 4.9-3.4 10.3-6.1 15.1-9.9 8-5.7 15.5-12.9 21.8-17.6 4.4-2.2 8-5.6 11.7-8.9zm-315.9 5.3c0.2 8.2-2.6 16.1-3.6 24.2 9-3.1 13.2-12.2 20.6-17.4-3.2 13.3-15.4 21-25.5 28.9-6.5 3.9-13.2 7.6-20.1 11.1-5.2 3.1-9.9 7-15.2 10 2.4-6.6 6.6-12.4 9-18.9 1.2-3.3 2.1-6.8 4.2-9.6 2.4-3 5.6-5.2 8.6-7.5 6.2-4.7 11.6-10.3 16.3-16.4 1.4-2.1 3.5-3.4 5.7-4.4zm-146.8 9.1c-3.1 6-9.7 5.3-14.2 8.6-11 6.1-23.1 9.6-34.9 13.5-23.7 6.7-48.1 15.6-73 11.6-9.1-2.9-17.9-6-21.6-20.4 9.1 10.6 25.1 15.6 41.1 14.6 6.1-0.4 32.5-3.3 47.8-9.8 5.7-2.2 9.4-7.9 15.5-9.3 7.3-1.7 14.5-3.4 21.8-4.5 7-0.8 11.5-4.3 17.5-4.3zm79.7 0.5c0.5-0.1 1.1 0 1.6 0-6 7-14.5 10.8-22.4 15.1-13 7-25.5 14.6-39.1 17.5-11 2.3-22.2 2.6-32.8 1.7 7.7-4.2 14.9-9.7 23-13 9.3-3.8 18.5-7.8 28.1-10.7 6.7-2 13.5-3 20.3-4.7 7.2-1.8 13.9-5.6 21.3-5.9zm177.7 4.7c-4.7 4.4-14.8 8.1-21.2 9.1-5.9 0.9-11.7 3.1-17.8 3.5 0.1-0.8-1.6-3.2-1.6-3.2 5.5-1.2 12.6-3.3 18.1-3.9 6.4-0.7 16.2-4.4 22.5-5.5zm129 8.7c3.6-1.2 9.4-1.4 13.2-1.4 5.1 0.5 11.2-0.4 14.8 1.3-6 4-10 5.1-20 10.1-10.8 5.6-26 11-39 16-8.4 3.7-20.5 6.6-29.3 9.3l-9.2 2c-5.8 1.7-12 1.4-18 2.1-9.2 1.2-18.2-2.2-27.3-2.1-4.2 0.2-8.2-1.3-11-4.4 6.2-2.3 12.8-2.9 22.8-1.9l2-6c1.3-2.5 2.7-5.1 7.8-4.9 3 0.2 8.2-1.2 4.8-3.9 4.4-3.7 8.1-8.6 13.8-10.3l4-7.1c3.3-5.1 5.8-10.8 9.7-15.5 3.3-1.9 4.1-8.3 4.1-8.3 0.2-3.5 0.9-7 2.5-10.2 2.3-4.4 1.9-9.6 3.1-14.3 2.1-8.9 0.6-18.3-3.4-26.5-2.6-5.3-4.6-10.9-8.1-15.6-6.8-11.1-20-19-23.9-27.4-2-4.5-1.5-12.2 3.8-18.1-11.9 3.6-9.5 16.6-7.8 20.9 5.2 9.2 15.8 15.3 20.9 23 4.1 6.5 8.8 13.1 10.3 20.9 0.9 12.3-1.9 24.4-6.2 35.9-2.6 6.2-3.9 13-7.6 18.8-5.1 9.7-11.1 19.4-19.7 26.5-8.3 7.9-21 13.1-30.4 14.3-15 2-40.7-1.2-48.8 14.5 21.1 4.3 16-6 27.2-1.9 6.3 2.3 8.4-0.6 16.1 3.8 11 4.3 22.5 8.6 34.6 8 12 0.9 23.5-3.3 35.1-6.1 14.7-3.6 28.4-11.1 41.6-14.1 9 1.6 18 3 27.1 4.9 28.4 6.7 54.9 13.4 80 25 13 6.7 26.9 12 37.7 20.1 10.7 5.2 22.9 9.2 33.4 12.7 14 3.6 27.6 9.3 42.1 10.3 21.4 2.1 43.4 1.8 60.5-9 16-9.4 13.4-29.4 2.8-39.1-9-8.2-19.7-15.4-31.8-17-17.2-2.2-33.4-1.8-46.8 1.4-13.8 3.3-27.8 5-41.5 8.5-10.1 2.7-20.1 3.4-35.8 6-14.3 2.4-35.4-9.5-39-28-0.9-4.6-2.5-9.3-2.3-14.1 1.4-14 9.7-26.4 20.3-35.7 7.5-6.6 15.4-12.5 24.1-17.2 19-10.1 40.9-14.7 62.5-13.5 10 1.6 19.8 4.5 29.5 7.8 8.7 3.5 17.5 7.2 26.7 9.7 7 2.8 14.8 3.1 22.3 2 3.8-1.7 7.1-5.4 7.7-9.7 1.6-9.4-7.5-15.4-10-23.7-5.3-10.8-6.7-23-6.1-34.9 0.7-6.3 3-12.9 8.2-16.8 7.1-5.7 14.5-8.5 23.6-9 5.5-0.3 16.2-0.9 21.5 1.5-7.2 1.1-17.4 4.5-23.8 8.9-5.5 3.8-10.6 7.8-14.6 15.7-4 7.8-5.1 22-1.1 28.2 3.8 6.1 9.2 11.1 12.4 17.6 2 8.4-0.1 17-7.1 23s-16 7-22.1 7.4c8.1 5.6 23.2-1.5 28.8-5.7 7-5.6 9.8-16.1 6.2-24.3-4-9.4-11.7-16.9-14.4-27-1.3-4.9-0.1-9.6 1.6-14.2 4.8-13.4 15.3-19.9 28.3-24.6 6-2.2 17.5-3.4 23.5 0.9-6.8 0.2-15 2.1-19.9 5.7-7.1 4.8-14.6 10.5-17.2 19-2.7 8.6-2.6 18.3 0.5 26.7 4 11.2 10 22.9 7.3 34.9-3.6 15.4-25.4 18.3-37.6 17.8 25.8 5.7 47.9-7.8 42.4-33.1-2.9-13-10.1-23.9-7.7-36.4 2.4-12.9 11.1-25.7 23.9-29.7 8.1-2.6 17.4-5 26.4 0.6-8-0.3-18 3.2-21.2 8.2-3.8 5.8-9.8 14-9.1 22.2 1.3 13.6 9.2 26.6 6.7 40.6-2.3 9.1-6.2 18.8-14.4 24.1-6.2 4-12.8 7.8-20.2 8.9-4.2 1-10.7 1.1-14.6 3.4 7.4 0 16.8-0.5 23.9-3.1 13.1-4.8 24.5-14.9 29.3-28.2 1.6-5.5 1.3-11.5 2.6-17.1 2-7.7 4-22 13-23-5 7.5-6 18.9-5 27.7 2 10.1 1 20.4-1 30.2-3 13-15.3 21.8-27.4 25.9-14.9 4.3-29.5 2.1-42.6-2.8-20.3-7.7-41.7-19.7-58.5-27.4-11.8-4.1-23.9-8.8-36.6-8.8-8.8-0.5-17.5 0.9-26.1 2.7-8.6 2.6-16.7 6.8-24.1 11.9-14.2 9.9-18 29.6-10.8 40.5 6.5 9.7 19.1 14.2 30.6 13.1 6.6-0.6 13-2.6 19.3-4.2 14.4-3.7 28.3-8.6 43-11 14.6-2.5 31.9-5.5 45.1-2.2 22.6 5.8 51.8 17.2 60.3 34.8 10.8 22.6 8.7 39.8-6.9 59.6-4.2 5.9-11 9-16.5 13.5-14.9 9.9-32 12.4-46.9 13-23.6 0.8-46.9-3.5-68.6-9.8-8.9-16.1-19.4-32-34.3-43.2-5.7-4.9-11-7.5-19.9-10.4 1.6 4 6 5 9.2 7.3 8.3 4.6 13.7 12.6 17.9 20.9 2.9 6.3 8.5 10.8 11.7 16.9 5.1 11.9 13.1 22.6 22.6 31.4 12.1 9.5 27.4 14.3 42.6 15.8 11.8-0.4 23.4 2.1 35.1 2.5 7.5 0 14.9 1.9 22.4 1.8 6.3 1.5 12.4 5.3 14.3 12.6 1.1 7.7 3.9 18.8 7.1 24.7 2.3 4.2 6.2 5.9 8.4 10.2 1 3.8 0.2 8-1.4 11.6-2.8 5.3-8.9 8.2-10.6 14.2-1.3 3.1-1.3 7.4-4.6 9.2-6.1 4.3-13.2 8.1-16.2 15.1-1.5 2.6-2.3 6.1-5.4 7.1-6.5 2.3-13.3 4-20.2 3.6-7-0.4-14.4 3.8-20.9 1-2.2-0.9-1.7-7-0.1-9 0.9-1.2 4-1 7.3 0.1-2.7-1.7-5.4-3.7-8.7-3.2-5.8 0.5-10.7 2.5-14.6 10.6-3.5-1.9-3.2-7.5-2-9.7 2-4 3.8-6.1 7.6-8.6 4.4-2.1 9.2-3.4 13.9-5 3.7-1.8 7.2 1.9 11 1 3.4-1.4 7.2-5.8 9.5-8.5-3.7 1.7-8.8 6.1-13.1 5.7-3.1-0.9-5.9-3.7-9.3-2.5-5.9 1.7-12.7 1.8-17.7 5.9-3.1 2.1-4.5 3.8-6.6 7.1-6.5-1.8-12 5.6-13.4 8.7-3.3-4.6 0.4-12.6 4.9-15.7 3.1-2.1 6.1-2.7 11.3-2.8 4.9-0.1 7.7-5.2 12.3-6.4 5.6-0.6 11.6 3.3 16.5-0.7-3.5-0.5-7-1-10.4-1.7-5.3-1.4-9.2 0.9-13.9 1.6-5-2.9-7.2-7.7-15.5-3.2 0-8.5 16.8-9.5 20.6-7.5 5.9 3.2 11.7 4.6 17.9 7.6 3.9 0.9 6.5-3.1 8.9-5.6 2.6-3 4-6.8 3.1-10.6-1.6-3.8-8.7-0.3-11.5 1.8-0.8-5.6 4.6-10.1 11.2-6.6-6.5-19.4-27.3-15.2-39.5-15.3-10.4 0-20.6 2.3-30.8 3.3-11.7 1-22.5-1.4-33.3-3 0.4-1.5 4.4-5.8 8.2-9.6 6.4-6.4 9.8-6.5 14.3-7.4-5.7-7-24.3 10.1-33.8 14.4-2.2 0.8-6.4-1.4-6.4-1.4 1.3-1.4 9.7-9.7 16.2-12.4-9.4-3.8-18.5 8.1-28.9 8.1-2.8 0.2-5.5-0.6-8.1-1.6-14.4-5.3-27.3-14.9-36.6-27.1-4.6-7.8-10.3-14.8-15.3-22.4-6-7.4-10.4-16-16.2-23.7-7.3-9.6-16.9-17.2-27.5-22.5-9.9-5-20.2-9.1-31.1-11.4-14.1-2.9-28.7-2.1-42.7 0.2-7 1.1-17.9 5.8-24.3 9.1 22.7-4.3 43.5-7.2 64.7-2.4 12.6 2.8 27.4 14.7 35.5 22.3 1.5 1.4 2.7 3.4 3.4 5.2-10.5-2.6-22.1-2.2-32.7-4.4-11-1.4-22.2-2.2-33.4-1.8-12.7 0.4-25.6-1.3-38.1 1.9-17.8 4.1-34.9 11.1-53 14.4-7.9 1.3-15.9 4.8-23.9 2.8 3.9-6.3 9-13.6 13.8-19.3-12.6 5.1-21.3 18.4-34.9 21.6-4.2 0.2-22.4 2-22.6 0.1 7.6-3.3 12.8-13 15.7-20.4-7.1 7-21.8 15.3-28.2 17.7-6.1 2.2-22.3 1.6-21.5-2.9 9.7-2.4 16.3-5.2 24.5-17.4-12.9 8.8-26.7 12.9-35.7 14.2-1.6 0.2-7.9-0.4-13.9-2.6 4.9-14.7-1.5-24.4 5.4-30.2 18.1-22.1 35.4-24.9 50.5-34.2-24.8 1.7-47.6 19.4-64.1 33.6-1 3.6 2.3 6.8 1.9 10.4-0.4 16.4-11.7 49.3-45.9 76.9 2.4-8.8 9-16.6 9-29.9-0.1-8.7 12.1-40.9-3.1-53.6 9 13.5 4.3 42.7-4.1 53.8-9 7.5-21.4 18.4-31.6 24.2 0.8-5.7 4.8-11.4 6.8-16.6 9.9-27.4 7.3-44.7-9.2-55.1 9.7 12.3 13.4 21.4 8.6 35.8-3.9 11.8-11.7 24.6-22.9 30.8 4.9-9.9 9.9-17.8 11.2-29.9 2.2-20.2-18.7-29.6-23.9-20.3 13.2-4.1 23.2 9.7 18.8 23.6-4.4 14.1-10 23.6-14.6 29.8-2.8 1.7-10.5 6.2-13.7 6.8 19-28.4 6.4-49.2-25.3-48.6-33.4 0.7-61.2 13.8-75.9 33.8-4.5-3.8-7.7-18.7-7.2-23.1 0.4-2.5 0.7-5 1.6-7.3 1.7-1.8 4.3-2.2 6.5-3.2 0.6 6.4 4.6 11.9 4.5 18.4 11.1-5.5 21-9.8 31-14.4 8-2.6 16-5 24-7.3 5.1-1.7 10.6-2.1 15.5-4.6 10.8-3.6 22.2-8.7 34.5-9.9-1.6-3.9-21.6 1.8-31.6 5-6.8 1.2-13.4 3.2-20.1 4.4-2.4-5.4-1.9-12.4 2.3-16.8 3.1-2 6.7-3.3 9.8-5.2 4.2-2.5 9.2-3.2 13.4-5.4 10.3-6.1 21.3-10.9 31.4-17.4 8.2-5.3 16.8-10.4 23.9-17.3 7.2-6.7 12.7-14.8 18.8-22.4 3.4-6.9 7-13.8 10.9-20.5 4.2-5.4 10.3-9 15.9-12.8 4.4-2.8 7.8-8.6 13.1-10-2.5 10.2-10.1 18.8-16.3 26.8-9 11.8-19.7 23.8-24.7 32.1 7.7-6.3 21.5-16.7 32.7-22.3 7.2-3.6 13.5-7.3 20.6-11.2 4.9-2.6 9.4-5.8 14.4-8.4-2.8 8.1-6.6 15.7-11.2 22.9-6.5 11.4-13.7 22.3-19.9 33.9 2.2-0.4 4.6-0.8 5.9-2.8 5.3-6.4 11.4-12 16.8-18.3 7.2-6.6 15.2-12.6 23.9-17.3 5.7-3 10.6-7.6 16.9-9.4-8 37.5-39.3 45.2-52.6 52.2 14.1 2 40.7-11.5 56.9-22.4 17.7-11.8 36.6-29.5 51.6-62 5.3 10.2 16.8 13.2 15.5 15.8-8.1 1.8-24.7 10.4-29.1 22.9 6.3 0.4 9-6.3 13.7-9.1 6.1-3.8 12.6-8.4 20.1-8.2 4.7-0.1 9.1-1.6 13.7-1.8 6.4-0.1 12.7-0.4 19.1-0.9 4.7-0.2 8.7-3.2 13.2-4.5 6.8-2.1 12.6-6.3 18.6-10.1 17.5-10.7 27.9-30.5 30.6-50.5 0.5-8.9-1.7-18.2-7-25.5-7.3-9.2-21.5-8.1-28.4-17.9-4.9-7-3.5-16.1-3.3-24.2-0.4-7.6 3.7-14.3 6.2-21.3 2-6.4 7.6-10.7 11.6-15.8 11.5-12 27.6-17.3 42.4-23.85 12.6-5.7 26.8-5.7 39.8-10.2 5.6-1.4 10.9-3.7 16.4-5.2-3.2 5.6-8.4 9.3-13.4 13.1-9.8 7.3-20.1 13.85-28.7 22.45-5 4.7-9.2 10.9-16 13-4.7 1.7-12.3 2.6-15.3 7.6 2 0 6.2-1.4 8-1 11.3-8 24.3-10.5 44-12-2.6-0.5-8-1-10-3 1-1 2-1 2-1 9-1 20.4-1.5 29.3-2.6-0.2 3.1 4-1.1 4-1.1 6.9 0.4 13.1-2.9 19.7-4.2 5.1-1.2 10-3.3 15-4.8 0.3 6.3-3 11.8-4.7 17.7-0.9 3.4-3.6 8.9-5.3 12l-3 14c6.6-0.7 15.2-1.6 21.9-2.2 8.9-0.7 20.1-1.8 26.8-2.3 19-1.3 37.8-0.7 56.7-2.2 9.9-0.8 19.9-1.1 29.9-2.3 4.6-0.6 9.3-1.7 14-2 8.8-0.6 17.5-2.4 26.3-3.9 11.7-2.1 24.4-6.1 36.4-10.1 1.6-0.5-7 0.6-9 1-7.8 1.8-17 4-25 5-8.3 1.4-17.1 3.4-25.2 4.2-19.1 1.6-36 5-51 4.8-30.6-0.4-73.3 0-82.6 1.3-4.2 0.2-8.4 0.8-12.7 1.1 0.5-5.4 4.7-9.8 10.3-11 6.2-1.4 12.1-2.5 18.3-2 15.9 1.4 31.8-2.1 47.9-1.9 10 0.2 19.2-1 28.8-1.1 13.4-0.1 26.7-1.2 40-2.2 9.5-0.7 18.8-3 28.1-5 6.5-2.3 13.6-1.3 20.1-3.4 10.4-3 21.3-4.4 31.2-8.9 3.5-1.7 7.1-3.3 10.8-4.4-8 14.5-18.6 28-32.8 35-15.3 5-31.8 8.4-46.7 10.6-15.4 2.3-30.8 4.2-41.5 4.9-22.1 1.9-43.9 4-64.4 5.3-8.8 0.7-17.4 2.3-26.1 2.8-8.5 0.9-20.5 3.9-25.5 4.9l9.2 3.3c8.8-1.3 22.7-2.5 33.7-1.5 11.3 1.6 22.7 0.7 34.1 1.4 12.5-0.6 25 0.9 37.5-0.1 14.5-1.1 15.1-2 23.5-3.1 9.8-1.3 21.1-2.4 31-3 6.7-0.3 14.4-3.8 21.4-4.8-3 7-11.4 10.6-16.9 14-8.9 5.4-21.4 10.2-33.5 12.8-17 3.7-35.8 5.6-53.2 5-10.2-0.5-20.1 1.8-30.2 2.2-17.8 2.5-36.1 4.5-53.8 1l-4.8 3.8c8 0 18 12 18 12v5c9.2-2.9 17-2 23-1 10.4 1.6 21.6-0.2 29 1 5 0.5 22.7 0.9 31-4-8 1-17 2-26 1-21.1-1.6-36.3-4.2-50.4-2.7-5.6 0.6-6.2-2.8-7.6-5.8 2-1.5 5.9-1 8.9-0.9 8.4 0.4 27.8 2.4 37.6 3.1 11.5 0.3 22.2 1.5 33.4 2.1 6.9 0.8 13.9 0.2 20.9 0.8-6.2 7.8-16.5 10.5-25.8 13.1-9.1 1.4-18.1 3.3-27.2 4.5-11.2-0.1-22.4 0.3-33.5-0.1-6.4 0.6-15.3-0.1-22.3-3.1l-2 4c6.3 1.1 14 3 20.4 3.8 12.4 1.4 37.6 1.2 45.6 1.2-7 8-20 13.2-32.7 14.3-8.3 0.7-16.9-0.1-25.3-0.4-1.9 0.1-5.1-1.5-4-3.9 8-2 16.1-1.4 24-1.2 4.1 0 7-0.8 14-1.8 2.2-0.3 6.4-2 8.3-3.1-5.3 1.1-15.3 2.1-22.3 2.1-4.8 0-8-0.9-12.7-0.7-3.3 0.1-8.1 0.2-11.3-0.3-1 13-43 44-43 44zm-389.1 6.2c-1.9 3.5-5 6-8.5 8-6.2 3.6-10 7.8-17.2 9.1-14.7 0.6-18.8 2.3-26.1 6.6 6.1 0.7 13-0.8 19.1-1.4-2.8 2.5-6.4 4.7-9.9 6.4-12.3 1.8-16.7 2.8-34.3 5.4-34.4 5.1-45.2 8.2-71.6-0.7-13.11-5.5-18.81-22.7-18.41-34.7 12.71 23.3 41.81 33 72.01 29.2 28.8-3.6 53-19.9 82.1-26.8 4.6-1 8.6-1.6 12.8-1.1zm45.4 15.9c-5.1 7.1-7.1 12-14.8 20.2-6.6 0.5-13.2-0.1-19.8-0.3-9.5 0.5-19.1 1.9-28.2 4.9-5.3 1.6-10.5 3.1-15.6 5.3-43.8 18.7-84.4 28.4-102.6 6.6 46 12.2 78.3-8.2 119.5-30.1 19.6-0.6 38.9 0.7 61.5-6.6zm562.8 18.3c13.5 0.2 27.3 1.6 39.5 11.7 15.3 12.7 13.3 25.6-1 36.1-12.5 5.8-26.9 7.2-40.7 7-21.1 1.3-41.3-5.8-60.7-13.1-10.6-2.9-20.8-7-30.6-11.9-4.8-3.4-9.7-6.5-14.9-9.3 9.5-2.7 19.2-3.6 28.9-5.5 8.8-1.8 17.3-4.6 26.2-5.3 15.8-1.4 40.8-11.9 53.3-9.7zm-810.2 25.6c8.93 0.3 14.13 13.2 15.53 19.9-3.4 4.1-6.4 6.7-9.15 11.8-1.79-4.1-1.17-8.7-2.13-12.5-2.94-11.6-10.46-14.9-19.56-3.8 1.99-9.4 5.44-15.6 15.31-15.4zm112.2 19.9c13-0.3 2.4 15.1 2.2 21.6-0.2 6.3 6.1 8.8 11.2 10.4 0.5 5.1-0.3 8.5-1.2 12.5-2.4 2.2-5.3 3.9-8.3 5.3-1.3 0.6-3.4 0.7-3.8-1.2-1.2-4-0.2-8.3 0.4-12.4-5.6 1.9-4 12.5-2.3 15.6-3.4 3.7-7.7 6.5-13.2 7.7-2.3-4.6-5.5-9.7-3.8-15 3.3-4.2 8.9-6.4 10.8-11.7 2.2-4.2 1-9.1 0.2-13.5 5.1-2.9 7.1-5 9.9-10 1-1.8 0.3-6.8-3.4-9.2 0.4-0.1 0.9-0.1 1.3-0.1zm-96.51 2.9c3 0.4 4 3.8 5.7 5.9-2.1 6.4-4.1 9-6 11.5-1.6-0.2-6.2-1.2-7-3-1.66-3.5 3.9-12.1 7.3-14.4zm6.8 9.8c2.6 0.2 3.7 2.9 5.1 4.5 2.7 3.6 0.4 8.9-0.3 10.4-3.2 0.2-11.1-3.6-9.3-6.9 1-2.4 2.4-7.9 4.5-8zm8.3 10.9c4.4 1.7 7.5 5.2 10.9 8.3-1 3.5-1.9 5.7-2.9 6.2-2 0.5-7.4-5.3-10.9-8.2 0.6-2.6 1.5-4.7 2.9-6.3zm111.8 2.6c0.3 5.3 0.3 10 0.2 13.1-4.3 1.9-8.5 4.4-13.2 4.8-2.6-3.1-1.1-8.3 0.2-11.8 3.5-3 7.8-4.8 12.8-6.1zm-99.36 7.5c4.36 2.8 9.16 5.6 13.86 8.2-3.9 5.9-9 15.2-5 20.2 1-3 4.2-13 7.4-18.4 4.2 0 7.6 1.5 10.1 4.2-3.6 6.8-6.4 14.1-6.5 22-7.4-1.8-14.5 1.3-21.96 1.5 0.4-3.9 0.3-8.2 2.76-11.5 1.7-2.5 3.5-4.8 5.3-7.2-2-4.1-5.2-7.7-7.56-11.5-0.1-2.4 1.1-5.2 1.6-7.5zm503.8 3.9c2 0 4 0.1 6 0.4 9.7 1.7 41.8 1.6 46.5 2.2 8.9 5.9 15.1 15.9 21.2 24.5-10.2 1.8-20.4 3.6-30.1 7-8.5 3.1-18.7 4-24.8 11.5-5.3 6-10.1 12.4-14.6 19-8.5 12.8-12.1 26.5-16 40.5-0.1 2-2.2 2.1-3.7 2.5-2.9 0.5-5.7 1.1-8.6 1.7-7 1.5-14 3.2-20.9 5-13.5 4.3-26.7 10-38.8 17.4-0.2-5 0.3-10.6-3.3-14.6-2.6-1.6-5.9-2.5-8.2 0 1.6 0.5 3.1 1.1 4.7 1.6 2.1 6 2.5 12.7 0.3 18.8-1.1-0.4-2.2-0.7-3.3-1.1 0.5-2.7 1.4-5.3 1.4-8.1 0-3.2-2.5-5.4-4.4-7.7-3.2 1.1-6.8 1.7-9.6 3.7-3.7 3.5-5.7 8.4-9.7 11.5-3.6 3.7-11 3.6-15.5 5.5 6.1 0.8 16.8-1.8 20.1 3.6-4.3 1.3-8.6 2.4-12.7 4.2-5.9 2.6-12.4 3-18.7 3.5-7.7-0.7-15.7-2.3-23.4-0.5-4.3 1.8-9.1 2.7-13.7 1.3-2.6-1.1-2.4-4.4-3.3-6.7-1.2-6.5-7.1-10.8-12.7-13.4-7.9-2.6-11.5 7.2-13.1 12.4-9-14.4-1.6-20.9 3.3-23.6 9.1-5.1 19.5-0.3 27.2 2.6 10.3 4.9 21.8 7.8 33.2 6.7 5.6-0.5 15.7-6 19.9-9.3-28.5 4.8-29.4 3.6-51.6-3.9-2.5-1.1-5.9-2.1-5.7-5.5 0.5-13-13-21.8-21.3-13.3-2.3-8.5 9.2-15.7 16.6-12.1 9.9 5 18.3 12.4 27 19.2 5.9 4.6 9.6 8.1 25.4 7.6-0.1-0.8-0.5-2.5-3.3-2.4-11.1 0.1-14.6-5.1-17.1-7.6-2.1-2.4-5.4-4.2-6-7.5 1-3 3.2-5.7 3.5-8.9 0.2-2.7 0.1-6.1-2-7.8-4.8-4-13.4-2.3-16.4-1.5 2.6-5.8 10.4-10.8 16.7-9 2.4 0.6 5.6 0.7 6.7 3.5 3.4 8.4 4.4 21.8 7.6 26.1 8.1 10.7 21.9 14.5 35.1 9.4 6.6-2.5 17.4-9.2 22.5-14.2 4.5-4.4 9.9-8.1 13.7-13.2 5-6.8 12.7-11.3 16.8-18.8 4.4-9.1 1.2-19.5 3.7-28.9 3.3-7.7 9.3-13.9 14.7-20.2 5.2-5.8 11.2-12.7 19.6-12.9 6.4 0.5 12.9-0.3 19.1-0.2zm-467.8 11.3c-1.2 3.7-2.2 7.2-2.5 11.4-0.2 4 1.3 6.3 2 9.5-4.7 1.9-7.6 1.2-11 1.5-1-3.3-2.4-6.6-1.5-10.2 0.9-3.8 2.1-7.9 5-11.4 2.5-1.8 5.4-1.6 8-0.8zm-40.01 18.2c-0.1 1.6-0.1 3.7-0.3 5.2-3.9 2.1-7.5 4.6-12.1 4.7 0.3-0.4-0.5-1.9-0.2-2.1 3.3-3.2 8.4-5.5 12.6-7.8zm35.21 4.6c7.5 0.5 12 9.8 8.3 14.5-1.1 1.7-3 2.3-4.8 2.9-1.1-1.6-5-5.6-8.2-15.2 0.3-2.3 3-2.1 4.7-2.2zm493.9 1.6c-6.4 3.3-15.3 13.2-20.3 18.2-6.2 7.1-11.4 15.1-15.3 23.7-4.7 7.7-9 16.5-7.9 25.8 5.7-3.6 11-14.9 15.3-17.5 0-7.7 5.7-22 9.1-28.3 4-6.6 14.4-15.7 19.1-21.9zm-544 2.5c0.4 1 0.8 1.9 1.2 2.9-4.6 3-12.3 9.4-14.8 7.3 0-2.6-0.8-6.1 0.4-6.7 4.3-1.5 8.8-2.4 13.2-3.5zm-37.78 4c0.62 4.6-0.27 11-0.24 15.5-1.2-0.8-4.98-1.9-6.63-0.3-3.04 2.8-2.92 5.7-3.44 13.5-9-12.3-4.11-26.2 10.31-28.7zm15.97 0.2c1.74-0.1 3.5 0.1 5.22 0.4 0.28 1.5 1.09 5.1 1.69 7.6-1.95 3.2-4.54 6.4-8.53 6.1-3.24-3.7-1.38-9.2-1.47-13.6 1.02-0.3 2.05-0.5 3.09-0.5zm-12.93 0c1.93 0 3.78 0.3 5.72 0.3 2.16 5 0.16 13 3.09 18.9-2.3 0.7-6.23 2.7-7.53-0.5-2.59-5.7-2.28-12.6-1.28-18.7zm82.6 5.1c6.9 6 2.7 12.5-2.1 15-3-1-4-2-4.7-4.2 1.6-3.3 2.5-2.6 3.7-6.8 0.7-0.9 2.5-4 3.1-4zm-3.3 17.1c-1.9 4.3-3.4 7.9-7.1 10.4-4.9-2.2-5.8-3.7-7.3-6.2 1.6-2.3 5-6 8.6-7.3 3-1.1 6.4 1.4 5.8 3.1zm-17 6.9c5.2 1.1 8.4 2.8 8.2 7-1.7 3.7-5.1 7-7.7 10.1-3.2-4.1-7.7-6.8-11.96-9.8 3.66-2.7 7.26-5.7 11.46-7.3zm-13.96 9c4.8 1.3 9.16 4.5 11.86 8.7 0.5 3.9-2 7.8-3.9 10.9-4.96-5.4-11.16-10.4-18.06-12.9 2.5-3.2 5.9-6.1 10.1-6.7zm338.2 0.3c2.9 0.1 5.6 1.3 6.8 3.5 2.3 3.9-0.8 7.2-3.5 8.2-5-2.6-9.6-5.3-14-7.1 2.6-3.2 6.9-4.7 10.7-4.6zm-351.6 8.3c2.9-0.1 8.2 3.1 10 5.4-8.7 5-8.4 11.8-0.9 21-10.9 2.6-16.6-5.2-15.7-17.1 0.3-4 3.3-7.6 6.6-9.3zm324.6 11.1c6 0.1 9.2 7.7 3.8 10.6-3 0.7-6.3 1.3-9.6 2.3 0.1-6 0.8-12.2 4.5-12.8 0.4 0 0.9-0.1 1.3-0.1zm99.8 23.6c0.4 0.1 0.8 0.1 1.3 0.3 2 2 0.9 5 0.4 7.4-1.1 3.5-1.7 7.8-5.1 9.9-2.8 2.1-7 2-9.2-0.8 2.8-3.4 5.4-7.1 7-11.3 1-2.5 2.7-5.5 5.6-5.5z"/>
</svg>