<?xml version="1.0" encoding="UTF-8" standalone="no"?>
<!-- Created with Inkscape (http://www.inkscape.org/) -->

<svg
   width="121.36972mm"
   height="161.68251mm"
   viewBox="0 0 121.36972 161.68251"
   version="1.1"
   id="svg3691"
   inkscape:version="1.2.2 (732a01da63, 2022-12-09)"
   sodipodi:docname="DEU Samtgemeinde Ostheide COA.svg"
   xmlns:inkscape="http://www.inkscape.org/namespaces/inkscape"
   xmlns:sodipodi="http://sodipodi.sourceforge.net/DTD/sodipodi-0.dtd"
   xmlns="http://www.w3.org/2000/svg"
   xmlns:svg="http://www.w3.org/2000/svg">
  <sodipodi:namedview
     id="namedview3693"
     pagecolor="#ffffff"
     bordercolor="#666666"
     borderopacity="1.0"
     inkscape:showpageshadow="2"
     inkscape:pageopacity="0.0"
     inkscape:pagecheckerboard="0"
     inkscape:deskcolor="#d1d1d1"
     inkscape:document-units="mm"
     showgrid="false"
     inkscape:zoom="0.90603757"
     inkscape:cx="230.12291"
     inkscape:cy="306.27869"
     inkscape:current-layer="layer1" />
  <defs
     id="defs3688" />
  <g
     inkscape:label="Ebene 1"
     inkscape:groupmode="layer"
     id="layer1"
     transform="translate(-530.79819,-52.55705)">
    <g
       id="g3544"
       transform="translate(481.26885,-50.53181)">
      <path
         id="path3291"
         style="fill:#ffee00;fill-opacity:1;stroke:none;stroke-width:2.1;stroke-linecap:round;stroke-dasharray:none"
         d="m 50.579342,104.13886 v 99.31849 a 59.634781,60.264019 0 0 0 59.635118,60.26402 59.634781,60.264019 0 0 0 59.6346,-60.2635 59.634781,60.264019 0 0 0 0,-5.2e-4 v -99.31849 z" />
      <path
         id="path3231"
         style="fill:#004bff;fill-opacity:1;stroke:#000000;stroke-width:2.1;stroke-dasharray:none"
         d="m 50.579342,104.13886 v 33.47651 c 5.615364,6.57725 12.736992,9.35289 18.154964,16.42846 5.750938,7.51031 7.163553,14.97096 12.914457,22.48131 5.750938,7.51032 14.263395,9.52996 20.014287,17.04031 5.7509,7.51027 6.32322,15.61442 12.07419,23.12468 5.7509,7.51029 12.5824,10.81571 18.33325,18.32602 4.84307,6.32473 6.02435,13.06883 9.70794,19.52645 a 59.634781,60.264019 0 0 0 21.49843,-23.67504 c -0.11735,-0.14609 -0.24037,-0.28109 -0.35554,-0.4315 -5.75088,-7.51033 -7.16355,-14.97048 -12.91446,-22.48079 -5.75086,-7.51031 -13.42261,-10.17236 -19.1735,-17.68265 -5.75098,-7.51026 -6.3238,-15.61441 -12.07472,-23.12468 -5.75088,-7.51035 -14.26282,-9.52998 -20.013763,-17.04031 -5.750904,-7.51035 -6.323778,-15.61384 -12.074715,-23.12417 -5.75091,-7.51036 -13.422591,-10.17288 -19.173507,-17.68315 -1.277147,-1.66785 -2.247539,-3.3987 -3.062862,-5.16145 z" />
      <path
         id="path3409"
         style="fill:none;fill-opacity:1;stroke:#000000;stroke-width:2.1;stroke-linecap:round;stroke-dasharray:none"
         d="m 50.579342,104.13886 v 99.31849 a 59.634781,60.264019 0 0 0 59.635118,60.26402 59.634781,60.264019 0 0 0 59.6346,-60.2635 59.634781,60.264019 0 0 0 0,-5.2e-4 v -99.31849 z" />
      <path
         style="fill:#000000;stroke:#000000;stroke-width:0.3;stroke-linecap:round;stroke-dasharray:none"
         d="m 142.53005,175.6568 c 0,0 -0.14946,2.25643 -1.71964,3.7274 -1.78999,1.6769 -5.56571,2.05471 -7.90214,0.72199 -5.30625,-3.02674 -3.50389,-11.45716 -2.28031,-13.01445 1.22357,-1.55728 6.20636,0.66013 7.67518,-3.8932 2.78086,-8.62068 1.16796,-18.79863 -6.06229,-24.52721 -7.92575,-6.27963 -12.0304,-7.71637 -19.10931,-7.63771 -6.40163,0.0711 -13.528606,1.41578 -13.371306,-2.91022 0.15731,-4.32601 8.099116,-4.02489 13.706646,-4.84402 5.64727,-0.82493 11.38025,-0.93036 11.38025,-0.93036 0,0 -5.04344,-2.86415 -3.94228,-4.6732 1.10117,-1.80906 8.5082,0.22247 12.20497,2.4248 3.69677,2.20233 5.97775,5.74179 6.44968,5.66314 0.47193,-0.0787 -2.75291,-10.7757 -0.0787,-11.16897 2.67426,-0.39327 6.44968,8.96663 7.00026,11.64089 0.55058,2.67426 0.78655,5.58449 1.25848,6.21372 0.47193,0.62924 2.163,0.11799 3.61811,-3.57878 1.45511,-3.69677 2.4383,-6.13507 3.77542,-5.62382 1.33713,0.51126 1.21915,5.89911 0.19664,10.0678 -1.02251,4.1687 -2.32031,5.97776 -1.10116,7.35421 1.21914,1.37646 3.97206,-0.4326 5.70246,-2.51694 1.7304,-2.08435 2.32031,-5.07323 4.24735,-4.48332 1.92704,0.58991 1.17982,6.52834 -1.80906,11.48358 -2.98887,4.95524 -3.97206,6.52834 -3.65744,6.96094 0.31462,0.4326 6.09574,-3.50013 6.56766,-2.91022 0.47193,0.58991 -1.57309,7.1969 -5.11255,10.81501 -3.53946,3.61812 -7.23623,4.95525 -7.00026,6.56767 0.23596,1.61242 11.3656,2.75291 9.04528,6.29237 -2.32031,3.53946 -6.01708,3.14618 -9.71385,2.51695 -3.69676,-0.62924 -5.42717,-1.17982 -7.11824,-0.94386 -1.69108,0.23597 -2.8499,1.20581 -2.8499,1.20581 z"
         id="path1024"
         sodipodi:nodetypes="csssssssscsscssssssssssssssssscc" />
      <g
         id="g1522"
         transform="translate(-211.65275,24.239004)">
        <path
           style="fill:#009e00;fill-opacity:1;stroke:#000000;stroke-width:0.7;stroke-dasharray:none"
           d="m 276.86442,147.91009 c 0,0 -6.96095,-0.51126 -7.07893,-2.163 -0.11798,-1.65175 1.21915,-1.37646 1.21915,-2.08435 0,-0.70789 -3.97206,-1.45511 -3.69676,-2.94955 0.27527,-1.49444 1.92704,-1.02251 2.04501,-1.49444 0.11798,-0.47193 -3.0282,-1.69108 -2.47763,-3.53946 0.55059,-1.84839 4.48331,-0.62924 4.48331,-0.90453 0,-0.27529 -6.09574,-4.71928 -0.98317,-5.50582 5.11255,-0.78655 4.91591,2.55627 5.07323,3.34282 0.15729,0.78655 2.51695,-0.19664 2.9102,1.76973 0.39328,1.96636 -1.84837,2.24166 -1.76971,2.75291 0.0787,0.51126 2.67425,0.11798 2.83157,1.49444 0.15729,1.37646 -1.53377,2.163 -1.57311,2.87089 -0.0393,0.7079 2.71359,0.2753 1.65177,2.28099 -1.06185,2.00569 -1.92704,3.57879 -1.92704,3.57879 z"
           id="path1234" />
        <path
           style="fill:#009e00;fill-opacity:1;stroke:#000000;stroke-width:0.7;stroke-dasharray:none"
           d="m 280.38875,160.0392 c 0,0 -1.79393,2.65797 -3.24906,2.53998 -1.4551,-0.11798 -0.4326,-1.2978 -0.90453,-1.80905 -0.47191,-0.51126 -3.46081,2.04502 -3.97206,1.02251 -0.51126,-1.02251 0.31462,-1.49444 -0.0786,-2.08435 -0.39328,-0.58991 -2.63494,0.8652 -3.2642,-0.27529 -0.62923,-1.1405 1.37647,-2.08435 1.14052,-2.83157 -0.23598,-0.74722 -5.58449,0 -3.02821,-3.3035 2.55627,-3.30349 3.7361,-0.51125 4.20801,-0.47192 0.47194,0.0393 0.98319,-2.08435 2.24166,-1.49444 1.25849,0.58991 0.70789,2.24166 1.17983,2.55627 0.47193,0.31462 0.98319,-1.92703 2.08436,-1.14049 1.10114,0.78655 0.66855,2.20233 1.33712,2.47762 0.66855,0.27529 1.02251,-1.2978 1.92704,-0.31462 0.90453,0.98319 1.08997,4.42211 1.08997,4.42211 z"
           id="path1214"
           sodipodi:nodetypes="cssssssssssssscc" />
        <path
           style="fill:#009e00;fill-opacity:1;stroke:#000000;stroke-width:0.7;stroke-dasharray:none"
           d="m 290.51099,174.73133 c 0,0 0.43259,-0.62924 0.58991,-1.84839 0.1573,-1.21914 -0.55059,-2.00569 -0.55059,-2.55627 0,-0.55059 0.66857,-0.58991 1.06185,-0.94386 0.39327,-0.35394 -0.7079,-1.2978 -0.31462,-2.08435 0.39328,-0.78654 1.37644,-0.58991 1.7304,-0.8652 0.35394,-0.27529 -1.76974,-1.53376 -0.78655,-2.51695 0.98319,-0.98318 1.96636,-0.4326 2.20234,-0.4326 0.23595,0 1.88769,-4.7586 4.56197,-2.79224 2.67425,1.96637 -1.92704,3.18552 -1.69108,3.81475 0.23595,0.62924 3.06752,-1.10116 3.22484,0.55058 0.1573,1.65175 -3.02821,1.53377 -2.91023,2.16301 0.11798,0.62924 2.59562,0.98318 1.25849,2.32031 -1.33715,1.33713 -2.47763,0.8652 -2.5563,1.17982 -0.0786,0.31462 2.04505,1.96637 0,2.39897 -2.04501,0.4326 -2.59558,0.66856 -3.50012,0.74722 -0.90453,0.0787 -2.12367,1.14049 -2.12367,1.14049 z"
           id="path1212" />
        <path
           style="fill:#009e00;fill-opacity:1;stroke:#000000;stroke-width:0.7;stroke-dasharray:none"
           d="m 298.08061,212.09636 c -0.0556,1.22358 -0.0556,5.53392 -0.77864,6.03447 -0.72303,0.50056 -1.19576,-0.19466 -2.19686,0.16685 -1.00113,0.36151 -0.6118,2.72525 -1.91881,3.08676 -1.30699,0.36151 -1.08453,-1.14015 -1.86317,-1.22358 -0.77865,-0.0834 -0.94549,2.22469 -2.28031,2.33592 -1.33483,0.11124 -0.94549,-2.86428 -1.64071,-2.86428 -0.69522,0 -2.61401,5.1724 -4.67186,0.50055 -2.05782,-4.67185 1.91882,-3.67074 2.69746,-3.89321 0.77864,-0.22246 -0.75084,-2.41935 0.25027,-2.9199 1.0011,-0.50056 2.2525,0.91769 2.86427,0.75083 0.6118,-0.16685 -0.13904,-1.9466 1.2514,-2.36373 1.39044,-0.41713 1.58509,0.86207 2.00223,0.86207 0.41712,0 0.41712,-2.2525 1.86317,-1.80756 1.44606,0.44493 3.61511,1.11234 3.61511,1.11234 z"
           id="path1210" />
        <path
           style="fill:#009e00;fill-opacity:1;stroke:#000000;stroke-width:0.7;stroke-dasharray:none"
           d="m 317.10172,213.26432 c 0,-0.16685 -0.33369,-2.86429 0.13904,-3.33703 0.47275,-0.47275 0.80645,-0.0556 1.33482,-0.27809 0.52835,-0.22247 -0.55618,-2.19688 0.47273,-2.78086 1.02894,-0.58398 1.50167,0 1.8632,-0.0278 0.3615,-0.0278 -1.19579,-2.66963 0.16684,-3.28142 1.36263,-0.61179 1.59165,0.9174 2.39155,0.69522 0.62529,-0.17368 1.05671,-3.78197 3.92101,-2.72525 2.86428,1.05673 2.28032,3.33704 1.3348,3.94883 -0.94549,0.61179 -2.69743,0.19466 -2.69743,0.52836 0,0.3337 3.61514,0.3337 3.5873,1.9466 -0.0278,1.61291 -3.28141,1.47386 -3.28141,1.97442 0,0.50055 3.2258,1.19577 0.83426,2.39154 -2.39155,1.19577 -3.08674,0.44494 -3.30923,0.75083 -0.22246,0.3059 2.41935,2.11346 -0.63957,2.28031 -3.05896,0.16685 -6.0901,-0.22247 -6.0901,-0.22247 z"
           id="path1193"
           sodipodi:nodetypes="csssssssssssssscc" />
        <path
           style="fill:#009e00;fill-opacity:1;stroke:#000000;stroke-width:0.7;stroke-dasharray:none"
           d="m 312.45565,202.31945 c 0,0 -0.78657,-0.6489 -1.37646,-1.23881 -0.58991,-0.58991 -2.20234,-1.17982 -2.12367,-2.08435 0.0786,-0.90453 1.06182,-0.94385 1.37644,-1.2978 0.31461,-0.35395 -2.35964,-2.51695 -1.57308,-3.65744 0.78655,-1.14049 1.69106,-0.23596 1.96635,-0.35395 0.2753,-0.11798 -1.37644,-2.47762 -0.66855,-3.38215 0.7079,-0.90453 3.57879,0.98319 3.81474,0.90453 0.23596,-0.0787 -3.06753,-5.8991 1.84838,-4.40466 4.91593,1.49444 1.80906,4.09004 1.96638,4.48332 0.1573,0.39327 2.08434,0.47192 2.04502,1.92704 -0.0393,1.45511 -3.18553,0.8652 -3.10687,1.57309 0.0787,0.70789 2.24166,0.74722 2.04502,2.35964 -0.19664,1.61242 -1.96636,1.02251 -1.96636,1.41578 0,0.39327 1.53376,0.94386 0.55057,2.12368 -0.98316,1.17982 -3.14618,2.55627 -3.14618,2.55627 z"
           id="path1137"
           sodipodi:nodetypes="csssssssssssssscc" />
        <path
           style="fill:#a05a2c;fill-opacity:1;stroke:#000000;stroke-width:0.7;stroke-dasharray:none"
           d="m 318.23675,215.31713 c 0,0 0.35396,4.28668 5.23055,5.58448 4.87659,1.29781 8.29805,0.0787 9.24192,0.94386 0.94385,0.8652 3.46081,3.81475 3.26417,4.67995 -0.19664,0.8652 -5.11257,0.62924 -6.1744,0 -1.06182,-0.62923 -2.79225,-1.92704 -4.87658,-2.12367 -2.08437,-0.19664 -16.13546,-1.15413 -24.36683,-8.71808 -8.23135,-7.56394 -11.79084,-19.91097 -11.79084,-19.91097 0,0 0.52711,-14.78832 -0.25944,-20.05819 -0.78655,-5.26986 -2.91022,-11.79819 -4.95524,-13.5286 -2.04503,-1.7304 -3.14619,-2.20233 -3.14619,-2.20233 l 0.58991,-0.72755 1.5141,-0.17698 c 0,0 0.19664,-0.60957 -0.49159,-1.7304 -0.68823,-1.12083 -3.65198,-5.79166 -4.54186,-7.23771 -0.88987,-1.44604 -1.55728,-2.33592 -1.55728,-2.33592 l 1.89099,-0.94549 c 0,0 9.6774,14.34925 11.23468,19.85535 1.55728,5.50611 3.00333,15.35036 3.17018,18.52055 0.16686,3.17018 -0.94549,10.78974 -0.94549,10.78974 0,0 5.32658,13.5092 11.23469,17.68628 8.7319,6.17352 13.62622,7.17463 14.12677,6.56284 0.50056,-0.61179 -0.59454,-2.76415 -1.93167,-4.25859 -1.33713,-1.49444 -2.35964,-2.51695 -2.08435,-3.30349 0.2753,-0.78655 1.17982,-0.94386 1.25848,-1.45512 0.0787,-0.51125 -0.11798,-2.08434 -0.15731,-2.75291 -0.0393,-0.66856 -0.35395,-2.5956 -0.55058,-3.06753 -0.19664,-0.47193 -0.86521,-1.80905 -0.86521,-2.04502 0,-0.23596 0.2753,-1.14049 0.2753,-1.14049 l 2.35964,0.70789 c 0,0 -0.19664,3.61811 0.70789,6.52833 0.90453,2.91023 2.59559,5.85977 2.59559,5.85977 z"
           id="path959"
           sodipodi:nodetypes="csssssscsscccssccsscssssssssccsc" />
        <path
           style="fill:none;stroke:#000000;stroke-width:0.7;stroke-dasharray:none"
           d="m 332.63057,221.76682 c 0,0 -2.77257,-0.31462 -3.22485,1.37645 -0.45226,1.69108 0.47193,3.26418 1.41578,3.69678"
           id="path1236"
           sodipodi:nodetypes="csc" />
        <path
           style="fill:none;stroke:#000000;stroke-width:0.7;stroke-linecap:round;stroke-dasharray:none"
           d="m 329.48438,223.33991 2.47761,1.23881"
           id="path1238" />
        <path
           style="fill:none;stroke:#000000;stroke-width:0.7;stroke-linecap:round;stroke-dasharray:none"
           d="m 329.34674,223.91016 2.20231,1.12082"
           id="path1240" />
        <path
           style="fill:none;stroke:#000000;stroke-width:0.6;stroke-linecap:round;stroke-dasharray:none"
           d="m 317.85255,214.1542 c 0,0 2.2247,-2.14127 4.61624,-4.86651 2.39154,-2.72525 3.5873,-5.22802 3.5873,-5.22802"
           id="path1318" />
        <path
           style="fill:none;stroke:#000000;stroke-width:0.600001;stroke-linecap:round;stroke-dasharray:none"
           d="m 323.59504,207.93897 h 2.12736"
           id="path1320" />
        <path
           style="fill:none;stroke:#000000;stroke-width:0.600001;stroke-linecap:round;stroke-dasharray:none"
           d="m 323.15009,206.21484 0.40323,1.6268"
           id="path1322" />
        <path
           style="fill:none;stroke:#000000;stroke-width:0.600001;stroke-linecap:round;stroke-dasharray:none"
           d="m 320.73074,208.68981 0.68131,1.72413"
           id="path1324" />
        <path
           style="fill:none;stroke:#000000;stroke-width:0.600001;stroke-linecap:round;stroke-dasharray:none"
           d="m 321.10616,210.98402 2.01613,0.13904"
           id="path1326" />
        <path
           style="fill:none;stroke:#000000;stroke-width:0.600001;stroke-linecap:round;stroke-dasharray:none"
           d="m 318.97881,211.10916 0.27807,1.45995"
           id="path1328" />
        <path
           style="fill:none;stroke:#000000;stroke-width:0.600001;stroke-linecap:round;stroke-dasharray:none"
           d="m 318.92319,213.13918 1.90489,0.3059"
           id="path1330" />
        <path
           style="fill:none;stroke:#000000;stroke-width:0.600001;stroke-linecap:round;stroke-dasharray:none"
           d="m 313.73688,202.53019 c 0,0 -0.19465,-3.11456 0.55615,-6.86872 0.75084,-3.75417 1.41825,-5.95105 1.41825,-5.95105"
           id="path1332" />
        <path
           style="fill:none;stroke:#000000;stroke-width:0.600001;stroke-linecap:round;stroke-dasharray:none"
           d="m 313.09728,192.79718 1.36261,1.58509"
           id="path1334"
           sodipodi:nodetypes="cc" />
        <path
           style="fill:none;stroke:#000000;stroke-width:0.600001;stroke-linecap:round;stroke-dasharray:none"
           d="m 316.32308,193.15869 -1.75194,1.2792"
           id="path1336" />
        <path
           style="fill:none;stroke:#000000;stroke-width:0.600001;stroke-linecap:round;stroke-dasharray:none"
           d="m 311.79026,196.02298 2.05785,1.64071"
           id="path1338" />
        <path
           style="fill:none;stroke:#000000;stroke-width:0.600001;stroke-linecap:round;stroke-dasharray:none"
           d="m 315.57224,196.77381 -1.55728,0.91768"
           id="path1340" />
        <path
           style="fill:none;stroke:#000000;stroke-width:0.600001;stroke-linecap:round;stroke-dasharray:none"
           d="m 312.15179,199.72152 1.55728,0.9733"
           id="path1342" />
        <path
           style="fill:none;stroke:#000000;stroke-width:0.600001;stroke-linecap:round;stroke-dasharray:none"
           d="m 315.23855,199.77714 -1.47386,0.83426"
           id="path1344" />
        <path
           style="fill:none;stroke:#000000;stroke-width:0.600001;stroke-linecap:round;stroke-dasharray:none"
           d="m 297.24635,212.45787 c 0,0 -3.30922,2.08565 -6.2013,3.64293 -2.89211,1.55728 -5.67296,2.2525 -5.67296,2.2525"
           id="path1346" />
        <path
           style="fill:none;stroke:#000000;stroke-width:0.600001;stroke-linecap:round;stroke-dasharray:none"
           d="m 287.45772,215.62806 1.52948,1.307"
           id="path1348" />
        <path
           style="fill:none;stroke:#000000;stroke-width:0.600001;stroke-linecap:round;stroke-dasharray:none"
           d="m 289.15405,219.04852 -0.0556,-2.03003"
           id="path1350" />
        <path
           style="fill:none;stroke:#000000;stroke-width:0.600001;stroke-linecap:round;stroke-dasharray:none"
           d="m 292.35204,215.23873 -1.41825,-0.94549"
           id="path1352" />
        <path
           style="fill:none;stroke:#000000;stroke-width:0.600001;stroke-linecap:round;stroke-dasharray:none"
           d="m 292.51888,217.57466 -0.13903,-2.19688"
           id="path1354" />
        <path
           style="fill:none;stroke:#000000;stroke-width:0.600001;stroke-linecap:round;stroke-dasharray:none"
           d="m 293.63125,213.01404 1.3626,0.69522"
           id="path1356" />
        <path
           style="fill:none;stroke:#000000;stroke-width:0.600001;stroke-linecap:round;stroke-dasharray:none"
           d="m 295.27195,215.62806 -0.25027,-1.89099"
           id="path1358" />
        <path
           style="fill:none;stroke:#000000;stroke-width:0.600001;stroke-linecap:round;stroke-dasharray:none"
           d="m 290.90598,174.4991 c 0,0 2.11347,-2.97552 3.55952,-5.70076 1.44606,-2.72525 2.16908,-5.50611 2.16908,-5.50611"
           id="path1360" />
        <path
           style="fill:none;stroke:#000000;stroke-width:0.600001;stroke-linecap:round;stroke-dasharray:none"
           d="m 294.32575,165.31243 0.88485,1.53377"
           id="path1362" />
        <path
           style="fill:none;stroke:#000000;stroke-width:0.600001;stroke-linecap:round;stroke-dasharray:none"
           d="m 296.84268,166.23663 -1.51408,0.66856"
           id="path1364" />
        <path
           style="fill:none;stroke:#000000;stroke-width:0.600001;stroke-linecap:round;stroke-dasharray:none"
           d="m 293.16558,168.41929 0.76689,1.31747"
           id="path1366" />
        <path
           style="fill:none;stroke:#000000;stroke-width:0.600001;stroke-linecap:round;stroke-dasharray:none"
           d="m 296.33142,169.08786 -2.35963,0.62923 0.059,-0.0197"
           id="path1368" />
        <path
           style="fill:none;stroke:#000000;stroke-width:0.600001;stroke-linecap:round;stroke-dasharray:none"
           d="m 291.73014,170.7986 0.57025,1.37645"
           id="path1370" />
        <path
           style="fill:none;stroke:#000000;stroke-width:0.600001;stroke-linecap:round;stroke-dasharray:none"
           d="m 294.03079,171.82111 -1.59276,0.37361"
           id="path1372" />
        <path
           style="fill:none;stroke:#000000;stroke-width:0.600001;stroke-linecap:round;stroke-dasharray:none"
           d="m 281.30838,159.13804 c 0,0 -3.32314,-1.02251 -6.68562,-2.43829 -3.36251,-1.41579 -5.17155,-2.33998 -5.17155,-2.33998"
           id="path1374" />
        <path
           style="fill:none;stroke:#000000;stroke-width:0.600001;stroke-linecap:round;stroke-dasharray:none"
           d="m 273.06931,154.1828 0.0393,1.71074"
           id="path1376" />
        <path
           style="fill:none;stroke:#000000;stroke-width:0.600001;stroke-linecap:round;stroke-dasharray:none"
           d="m 271.61421,157.46663 1.76972,-1.16015"
           id="path1378" />
        <path
           style="fill:none;stroke:#000000;stroke-width:0.600001;stroke-linecap:round;stroke-dasharray:none"
           d="m 276.4908,157.50596 -2.14334,1.78939"
           id="path1380" />
        <path
           style="fill:none;stroke:#000000;stroke-width:0.600001;stroke-linecap:round;stroke-dasharray:none"
           d="m 276.41214,154.93002 0.059,2.41863"
           id="path1382" />
        <path
           style="fill:none;stroke:#000000;stroke-width:0.600001;stroke-linecap:round;stroke-dasharray:none"
           d="m 279.08641,156.60143 0.0196,1.84838"
           id="path1384" />
        <path
           style="fill:none;stroke:#000000;stroke-width:0.600001;stroke-linecap:round;stroke-dasharray:none"
           d="m 277.37567,159.76728 1.90735,-1.23881"
           id="path1386" />
        <path
           style="fill:none;stroke:#000000;stroke-width:0.600001;stroke-linecap:round;stroke-dasharray:none"
           d="m 276.94607,147.05199 c 0,0 -2.25251,-5.20021 -3.17019,-8.64848 -0.91768,-3.44827 -1.36263,-6.28475 -1.36263,-6.28475"
           id="path1388" />
        <path
           style="fill:none;stroke:#000000;stroke-width:0.600001;stroke-linecap:round;stroke-dasharray:none"
           d="m 271.18968,136.92965 2.19689,0.44494"
           id="path1390" />
        <path
           style="fill:none;stroke:#000000;stroke-width:0.600001;stroke-linecap:round;stroke-dasharray:none"
           d="m 275.06898,135.51142 -1.51556,1.82146"
           id="path1392" />
        <path
           style="fill:none;stroke:#000000;stroke-width:0.600001;stroke-linecap:round;stroke-dasharray:none"
           d="m 271.84318,141.04533 2.91991,0.73693"
           id="path1394" />
        <path
           style="fill:none;stroke:#000000;stroke-width:0.600001;stroke-linecap:round;stroke-dasharray:none"
           d="m 276.65407,139.83566 -1.76583,1.83536"
           id="path1396" />
        <path
           style="fill:none;stroke:#000000;stroke-width:0.600001;stroke-linecap:round;stroke-dasharray:none"
           d="m 276.98779,143.14488 -0.95941,1.69633"
           id="path1398" />
        <path
           style="fill:none;stroke:#000000;stroke-width:0.600001;stroke-linecap:round;stroke-dasharray:none"
           d="m 273.37266,144.66045 2.62792,0.23637"
           id="path1400" />
        <g
           id="g1246"
           transform="translate(214.27845,0.33370174)">
          <path
             id="path1178"
             style="fill:#000000;stroke:none;stroke-width:0.3;stroke-linecap:round;stroke-dasharray:none"
             d="m 61.261793,171.32236 c -0.196474,0.003 -0.378796,0.0467 -0.541193,0.14573 -0.866116,0.52837 0.595514,3.44837 0.595514,3.44837 0,0 -7.037286,3.39238 -4.655466,9.73273 1.763434,4.69423 5.575422,6.45169 10.068399,7.00785 3.733152,0.4621 3.897494,1.83554 3.897494,1.83554 l -13.532838,14.40481 10.393316,1.00097 8.95986,-10.01128 8.959357,10.01128 10.393819,-1.00097 -13.533341,-14.40481 c 0,0 0.164342,-1.37344 3.897493,-1.83554 4.492978,-0.55616 8.305469,-2.31362 10.068903,-7.00785 2.381821,-6.34035 -4.655465,-9.73273 -4.655465,-9.73273 0,0 1.46163,-2.92 0.595513,-3.44837 -0.866116,-0.52836 -2.300909,0.52807 -3.410621,0.80615 -1.109711,0.27809 -2.842012,0.25036 -3.491599,0.91777 -0.649587,0.66741 -0.865792,2.47504 -1.352982,2.69751 -0.48719,0.22246 -6.739747,3.1704 -4.709786,5.56194 2.02996,2.39153 3.951963,3.53167 5.007542,2.6696 1.191248,-0.97286 2.002816,-1.69654 2.002816,-1.69654 0,0 0.568127,2.11356 -2.679809,2.5585 -2.436099,0.33373 -7.09184,-1.91874 -7.09184,-1.91874 0,0 -4.656243,2.25247 -7.092342,1.91874 -3.247937,-0.44494 -2.679307,-2.5585 -2.679307,-2.5585 0,0 0.811567,0.72368 2.002816,1.69654 1.05558,0.86207 2.97708,-0.27807 5.00704,-2.6696 2.029961,-2.39154 -4.222093,-5.33948 -4.709283,-5.56194 -0.487191,-0.22247 -0.703898,-2.0301 -1.353485,-2.69751 -0.649588,-0.66741 -2.381888,-0.63968 -3.491599,-0.91777 -0.901641,-0.22594 -2.017539,-0.96574 -2.868926,-0.95188 z" />
          <path
             style="fill:none;stroke:#ffee00;stroke-width:0.5;stroke-linecap:butt;stroke-dasharray:none;stroke-opacity:1"
             d="m 68.291908,202.06382 2.280987,-2.39896"
             id="path1239"
             sodipodi:nodetypes="cc" />
          <path
             style="fill:none;stroke:#ffee00;stroke-width:0.5;stroke-linecap:butt;stroke-dasharray:none;stroke-opacity:1"
             d="m 85.71392,202.06382 -2.280987,-2.39896"
             id="path1241"
             sodipodi:nodetypes="cc"
             inkscape:transform-center-x="-7.5705127"
             inkscape:transform-center-y="-3.7360964" />
        </g>
      </g>
    </g>
  </g>
</svg>
