<?xml version="1.0" encoding="UTF-8" standalone="no"?><!DOCTYPE svg PUBLIC "-//W3C//DTD SVG 1.1//EN" "http://www.w3.org/Graphics/SVG/1.1/DTD/svg11.dtd">
<svg
   xmlns:svg="http://www.w3.org/2000/svg"
   xmlns="http://www.w3.org/2000/svg"
   version="1.1"
   width="500"
   height="600"
   viewBox="0 0 500 600">
  <defs />
  <g>
    <g>
      <path
         d="m 4.045,4.855 0,344.336 a 245.144,245.954 0 0 0 490.288,0 l 0,-344.336 z"
         style="fill:#fcdd00;fill-opacity:1;stroke:#000000;stroke-width:9.710882;stroke-miterlimit:4;stroke-dasharray:none" />
      <path
         id="path12"
         style="fill:#078930;fill-opacity:1;fill-rule:evenodd;stroke:#000000;stroke-width:4.86332;stroke-linecap:butt;stroke-linejoin:miter;stroke-miterlimit:4;stroke-dasharray:none;stroke-opacity:1"
         d="m 10.245,401.724 c 0,0 77.9754,4.895 119.751,-17.624 41.775,-22.519 78.66,-35.622 125,-35.622 41.121,0 89.753,15.714 125,33.664 35.248,17.95 79.331,14.36 108.379,14.36 0,0 -12.509,106.361 -114.883,165.471 -102.373,59.1 -189.946,26.11 -203.653,22.84 -13.708,-3.26 -127.9363,-46.34 -159.594,-183.089 z" />
      <path
         id="path14"
         style="fill:#ffffff;fill-opacity:1;fill-rule:evenodd;stroke:#000000;stroke-width:4.86332;stroke-linecap:butt;stroke-linejoin:miter;stroke-miterlimit:4;stroke-dasharray:none;stroke-opacity:1"
         d="m 32.6344,465.653 c 0,0 46.3861,-15.23 77.3106,-15.23 30.924,0 45.463,13.39 66.925,13.39 21.462,0 53.309,-17.31 72.925,-17.31 19.617,0 51.002,12.23 67.388,12.23 16.385,0 45.001,-9.46 62.54,-9.46 17.539,0 40.386,10.61 52.386,10.61 12.001,0 31.386,-3 36.694,-2.31 0,0 -15.693,34.62 -33.232,54.01 0,0 -37.617,-10.85 -53.771,-10.85 -16.154,0 -42.694,9.92 -60.002,9.92 -17.309,0 -52.617,-11.53 -67.618,-11.53 -16.846,0 -49.472,16.61 -68.772,16.61 -20.278,0 -41.309,-12.92 -68.771,-12.92 -27.4624,0 -46.8476,13.62 -46.8476,13.62 0,0 -19.6162,-10.39 -37.155,-50.78 z" />
      <g
         id="g16"
         transform="matrix(0.486332,0,0,0.486332,-2.44826,-6.86)">
        <path
           id="path18"
           style="fill:#000000;fill-opacity:1"
           d="m 168.545,1042.05 c -5.085,-5.62 4.449,-11.05 25.122,-14.31 10.512,-1.66 67.831,-1.49 74.833,0.22 3.467,0.96 9.715,1.04 9.313,4.79 -0.449,3.85 -5.504,4.74 -12.272,2.17 -4.441,-1.69 -7.78,-1.92 -28.041,-1.91 -24.431,0 -24.872,0.1 -44.936,6.44 -6.527,2.01 -12.886,2.93 -19.587,4.23 -1.731,0.33 -3.121,-0.18 -4.432,-1.63 z m 562.705,-3.66 c 6.419,-19.12 57.673,-13.57 76.107,-11.38 10.016,1.17 12.643,2.21 12.643,5.01 0,2.13 -4.017,3.71 -6.135,2.4 -16.974,-3.07 -33.309,-4.44 -47.527,-1.16 -19.573,4.57 -32.21,6.41 -35.088,5.13 z m -261.944,-9.03 c -0.807,-2.11 1.693,-3.96 6.496,-4.82 2.034,-0.36 6.924,-1.76 10.866,-3.1 16.31,-5.55 66.332,-1.28 66.332,5.66 0,3.3 -23.238,2.56 -36.178,-1.15 -6.481,-1.86 -11.504,-1.38 -31.751,3.01 -11.512,2.49 -14.927,2.58 -15.765,0.4 z M 824,1021.12 c -0.825,-0.44 -4.875,-1.35 -9,-2 -12.197,-2.42 -25.549,-3.19 -36.5,-3.41 -16.666,-0.29 -17.006,-0.34 -17.32,-2.5 9.593,-1.16 53.089,-14.011 68.033,2.8 3.105,3.84 -0.698,7.57 -5.213,5.11 z m -611.75,-4.84 c -5.068,-0.37 -6.972,-2.1 -4.2,-3.81 14.697,-5.29 33.754,0.18 46.441,-1.54 7.623,-1.08 10.536,0.28 8.55,3.99 -0.873,1.63 -34.593,2.53 -50.791,1.36 z m 321.25,-2.21 c -6.476,-2.62 -31.706,-3.77 -40.771,-1.86 -4.737,0.99 -7.729,0.1 -7.729,-2.39 0,-3.86 21.02,-7.49 33.09,-5.71 4.076,0.6 10.335,1.39 13.91,1.77 7.403,0.78 11,2.4 11,4.96 0,3.71 -4.498,5.24 -9.5,3.23 z m 297,-7.23 c -2.75,-0.52 -8.685,-1.82 -13.19,-2.9 -8.808,-2.11 -22.084,-2.71 -34.31,-1.55 -9.107,0.87 -11.862,-0.29 -8.139,-3.41 1.298,-1.089 3.194,-1.98 4.213,-1.98 1.019,0 5.627,-0.956 10.241,-2.124 8.262,-2.092 26.707,0 36.185,4.097 1.1,0.476 3.35,1.127 5,1.457 6.22,1.22 12.532,3.2 13.609,4.28 3.1,3.1 -3.186,4.08 -13.609,2.13 z m -614.138,-6.34 c -3.128,-8.149 18.95,-12.271 37.638,-7.027 17.39,4.881 18.311,8.207 1.836,6.637 -10.545,-1.005 -16.734,-0.777 -21.829,0.81 -5.43,1.68 -16.943,1.41 -17.645,-0.42 z M 532.5,996.361 c -4.95,-0.762 -12.375,-1.268 -16.5,-1.123 -8.54,0.298 -10.632,-2.131 -4.5,-5.224 4.397,-2.219 28.162,-1.246 32.25,1.32 2.173,1.363 0.685,7.088 -1.7,6.54 -0.302,-0.07 -4.6,-0.751 -9.55,-1.513 z m 308.097,-4.08 c -1.046,-0.267 -5.996,-1.844 -11,-3.504 -8.599,-2.852 -10.138,-3.037 -28.097,-3.377 -10.45,-0.198 -19.337,-0.369 -19.75,-0.38 -1.53,-0.04 -0.688,-4.982 1,-5.87 1.751,-0.922 21.789,-0.728 34.497,0.333 15.555,1.298 39.211,9.349 37.17,12.651 -0.554,0.897 -10.474,1.003 -13.82,0.147 z M 345.91,986.576 c 0,0 -7.171,-0.897 -15.417,-1.477 -11.797,-0.873 -23.307,-3.874 -34.993,-5.523 -2.75,-0.375 -7.025,-1.327 -9.5,-2.117 -8.238,-2.339 -16.906,-3.434 -25,-4.849 -18.933,-3.316 -25.024,-4.008 -36.5,-4.148 -13.362,-0.162 -16.5,-0.793 -16.5,-3.314 0,-7.372 32.731,-7.856 66,-0.976 5.225,1.081 10.85,2.181 12.5,2.445 25.98,5.169 44.246,9.923 59.489,13.362 0,0 11,1.775 11,4.281 0,3.056 -11.079,2.316 -11.079,2.316 z m -132.163,-2.162 c -1.839,-1.839 -0.417,-3.236 3.963,-3.893 2.591,-0.389 5.726,-1.505 6.967,-2.481 5.221,-4.108 32.269,-2.349 33.125,2.153 0.443,2.327 -3.3,2.904 -21.403,3.299 -8.194,0.179 -16.475,0.628 -18.402,0.997 -1.926,0.37 -3.839,0.336 -4.25,-0.08 z M 546.5,983.923 c -2.75,-0.488 -14.444,-1.007 -25.987,-1.155 -23.102,-0.295 -25.848,-1.155 -18.331,-5.738 4.433,-2.702 38.171,-3.094 42.664,-0.494 1.46,0.844 4.904,2.328 7.654,3.297 9.31,3.281 5.208,6.077 -6,4.09 z m 334,-1.164 c -33.309,-9.638 -67.969,-21.527 -99.666,-19.306 -16.35,1.266 -17.905,-1.461 -2.884,-5.054 8.381,-2.005 42.083,-0.996 52.05,1.559 1.925,0.493 5.975,1.317 9,1.831 14.208,4.19 29.368,5.652 43.5,10.378 1.65,0.563 5.025,1.438 7.5,1.944 10.897,2.225 17.135,5.817 14.861,8.557 -1.305,1.572 -16.399,1.629 -24.361,0.09 z m -251,-2.255 c -24.813,-6.224 -51.845,-10.262 -74,-16.098 -12.914,-3.465 -51.998,-3.212 -59.906,0.387 -4.506,2.05 -5.097,2.107 -7.25,0.697 -4.756,-3.117 -2.25,-5.083 8.975,-7.042 43.784,-8.133 101.901,5.535 137.681,16.032 3.025,0.91 6.723,1.898 8.218,2.196 3.165,0.631 5.527,3.018 4.19,4.234 -2.024,1.841 -7.465,1.718 -17.908,-0.406 z" />
      </g>
      <g
         id="g20"
         transform="matrix(0.486332,0,0,0.486332,-105.223,-116.776)">
        <path
           id="path22"
           d="m 270.954,617.849 38.911,0 143.307,-188.861 107.243,0 137.138,184.59 39.86,0 -223.027,-286.139 c 0,0 -2.373,-8.067 2.847,-13.286 5.22,-5.22 16.608,8.541 21.354,6.643 4.745,-1.898 7.117,-3.796 -5.695,-19.456 l -6.169,-8.066 -22.777,22.777 -17.083,-19.93 c 0,0 -24.675,20.404 -18.506,24.2 6.169,3.797 18.506,-5.694 18.506,-5.694 l 11.863,8.542 z"
           style="fill:#000000;fill-opacity:1;fill-rule:evenodd;stroke:#000000;stroke-width:1px;stroke-linecap:butt;stroke-linejoin:miter;stroke-opacity:1" />
        <path
           id="path4155-3"
           d="m 485.914,427.564 0,259.091"
           style="fill:none;fill-rule:evenodd;stroke:#000000;stroke-width:7.5;stroke-linecap:butt;stroke-linejoin:miter;stroke-miterlimit:4;stroke-dasharray:none;stroke-opacity:1" />
        <path
           id="path4157-2"
           d="m 321.728,597.444 0,89.686 365.86,0 0,-116.259 -120.53,-146.628 -117.682,0 z"
           style="fill:#da1210;fill-opacity:1;fill-rule:evenodd;stroke:#000000;stroke-width:7.5;stroke-linecap:butt;stroke-linejoin:miter;stroke-miterlimit:4;stroke-dasharray:none;stroke-opacity:1" />
        <path
           id="path4159-0"
           d="m 363.961,535.282 294.494,0"
           style="fill:none;fill-rule:evenodd;stroke:#000000;stroke-width:7.564923;stroke-linecap:butt;stroke-linejoin:miter;stroke-miterlimit:4;stroke-dasharray:none;stroke-opacity:1" />
        <path
           id="path4161-0"
           d="m 627.865,498.269 -242.55,0"
           style="fill:none;fill-rule:evenodd;stroke:#000000;stroke-width:7.605958;stroke-linecap:butt;stroke-linejoin:miter;stroke-miterlimit:4;stroke-dasharray:none;stroke-opacity:1" />
        <path
           id="path4163-7"
           d="m 415.21,462.205 188.387,0"
           style="fill:none;fill-rule:evenodd;stroke:#000000;stroke-width:7.5;stroke-linecap:butt;stroke-linejoin:miter;stroke-miterlimit:4;stroke-dasharray:none;stroke-opacity:1" />
        <path
           id="path29"
           d="m 322.203,608.358 364.91,0"
           style="fill:none;fill-rule:evenodd;stroke:#000000;stroke-width:7.5;stroke-linecap:butt;stroke-linejoin:miter;stroke-miterlimit:4;stroke-dasharray:none;stroke-opacity:1" />
        <path
           id="path31"
           d="m 321.254,645.846 122.427,0"
           style="fill:none;fill-rule:evenodd;stroke:#000000;stroke-width:7.5;stroke-linecap:butt;stroke-linejoin:miter;stroke-miterlimit:4;stroke-dasharray:none;stroke-opacity:1" />
        <path
           id="path33"
           d="m 687.522,646.586 -121.801,0"
           style="fill:none;fill-rule:evenodd;stroke:#000000;stroke-width:7.5;stroke-linecap:butt;stroke-linejoin:miter;stroke-miterlimit:4;stroke-dasharray:none;stroke-opacity:1" />
        <path
           id="path35"
           d="m 525.456,427.478 0,259.037"
           style="fill:none;fill-rule:evenodd;stroke:#000000;stroke-width:7.5;stroke-linecap:butt;stroke-linejoin:miter;stroke-miterlimit:4;stroke-dasharray:none;stroke-opacity:1" />
        <path
           id="path37"
           d="m 604.644,466.736 0,219.779"
           style="fill:none;fill-rule:evenodd;stroke:#000000;stroke-width:7.790899;stroke-linecap:butt;stroke-linejoin:miter;stroke-miterlimit:4;stroke-dasharray:none;stroke-opacity:1" />
        <path
           id="path39"
           d="m 643.305,510.021 0,175.823"
           style="fill:none;fill-rule:evenodd;stroke:#000000;stroke-width:8.129418;stroke-linecap:butt;stroke-linejoin:miter;stroke-miterlimit:4;stroke-dasharray:none;stroke-opacity:1" />
        <rect
           id="rect41"
           ry="0"
           y="611.858"
           x="607.334"
           height="73.906"
           width="33.8086"
           style="opacity:1;fill:#078930;fill-opacity:1;stroke:#000000;stroke-width:5;stroke-linecap:butt;stroke-linejoin:miter;stroke-miterlimit:4;stroke-dasharray:none;stroke-dashoffset:0;stroke-opacity:1" />
        <path
           id="path43"
           d="m 688.537,598.156 -45.555,86.838"
           style="fill:none;fill-rule:evenodd;stroke:#000000;stroke-width:7.5;stroke-linecap:butt;stroke-linejoin:miter;stroke-miterlimit:4;stroke-dasharray:none;stroke-opacity:1" />
        <path
           id="path45"
           d="m 565.721,420.432 0,266.754"
           style="fill:none;fill-rule:evenodd;stroke:#000000;stroke-width:7.640653;stroke-linecap:butt;stroke-linejoin:miter;stroke-miterlimit:4;stroke-dasharray:none;stroke-opacity:1" />
        <path
           id="path47"
           d="m 406.675,476.131 0,210.999"
           style="fill:none;fill-rule:evenodd;stroke:#000000;stroke-width:7.691995;stroke-linecap:butt;stroke-linejoin:miter;stroke-miterlimit:4;stroke-dasharray:none;stroke-opacity:1" />
        <path
           id="path49"
           d="m 366.334,537.654 0,152.323"
           style="fill:none;fill-rule:evenodd;stroke:#000000;stroke-width:7.5;stroke-linecap:butt;stroke-linejoin:miter;stroke-miterlimit:4;stroke-dasharray:none;stroke-opacity:1" />
        <path
           id="path51"
           d="m 318.881,600.292 45.08,88.261"
           style="fill:none;fill-rule:evenodd;stroke:#000000;stroke-width:7.5;stroke-linecap:butt;stroke-linejoin:miter;stroke-miterlimit:4;stroke-dasharray:none;stroke-opacity:1" />
        <path
           id="path53"
           d="m 446.054,428.988 0,258.142"
           style="fill:none;fill-rule:evenodd;stroke:#000000;stroke-width:7.5;stroke-linecap:butt;stroke-linejoin:miter;stroke-miterlimit:4;stroke-dasharray:none;stroke-opacity:1" />
        <rect
           id="rect55"
           ry="0"
           y="612.189"
           x="368.885"
           height="73.906"
           width="33.8086"
           style="opacity:1;fill:#078930;fill-opacity:1;stroke:#000000;stroke-width:5;stroke-linecap:butt;stroke-linejoin:miter;stroke-miterlimit:4;stroke-dasharray:none;stroke-dashoffset:0;stroke-opacity:1" />
        <path
           id="path4206-1"
           d="m 445.551,608.189 0,77.529 120.587,0 0,-79.163 c 0,0 -2.611,-12.61 -15.192,-15.88 -12.581,-3.27 -23.975,-6.072 -47.001,-6.072 -23.025,0 -42.49,3.736 -50.798,7.94 -8.308,4.204 -7.596,15.646 -7.596,15.646 z"
           style="fill:#000000;fill-opacity:1;fill-rule:evenodd;stroke:#000000;stroke-width:7.442405;stroke-linecap:butt;stroke-linejoin:miter;stroke-miterlimit:4;stroke-dasharray:none;stroke-opacity:1" />
        <rect
           ry="0"
           y="615.197"
           x="509.685"
           height="71.5171"
           width="52.009"
           id="rect4177-0-2-5"
           style="opacity:1;fill:#078930;fill-opacity:1;stroke:#000000;stroke-width:7.5;stroke-linecap:butt;stroke-linejoin:miter;stroke-miterlimit:4;stroke-dasharray:none;stroke-dashoffset:0;stroke-opacity:1" />
        <path
           id="path4264-8"
           d="m 486.197,420.096 0,265.077"
           style="fill:none;fill-rule:evenodd;stroke:#000000;stroke-width:7.5;stroke-linecap:butt;stroke-linejoin:miter;stroke-miterlimit:4;stroke-dasharray:none;stroke-opacity:1" />
        <rect
           ry="0"
           y="615.197"
           x="450.749"
           height="71.5171"
           width="52.009"
           id="rect4177-0-5"
           style="opacity:1;fill:#078930;fill-opacity:1;stroke:#000000;stroke-width:7.5;stroke-linecap:butt;stroke-linejoin:miter;stroke-miterlimit:4;stroke-dasharray:none;stroke-dashoffset:0;stroke-opacity:1" />
      </g>
      <g
         transform="matrix(0.486332,0,0,0.486332,115.889,-116.776)"
         id="g4266-7-1">
        <path
           id="path4153-0-1"
           d="m 270.954,617.849 38.911,0 143.307,-188.861 107.243,0 137.138,184.59 39.86,0 -223.027,-286.139 c 0,0 -2.373,-8.067 2.847,-13.286 5.22,-5.22 16.608,8.541 21.354,6.643 4.745,-1.898 7.117,-3.796 -5.695,-19.456 l -6.169,-8.066 -22.777,22.777 -17.083,-19.93 c 0,0 -24.675,20.404 -18.506,24.2 6.169,3.797 18.506,-5.694 18.506,-5.694 l 11.863,8.542 z"
           style="fill:#000000;fill-opacity:1;fill-rule:evenodd;stroke:#000000;stroke-width:1px;stroke-linecap:butt;stroke-linejoin:miter;stroke-opacity:1" />
        <path
           id="path4155-3-7"
           d="m 485.914,427.564 0,259.091"
           style="fill:none;fill-rule:evenodd;stroke:#000000;stroke-width:7.5;stroke-linecap:butt;stroke-linejoin:miter;stroke-miterlimit:4;stroke-dasharray:none;stroke-opacity:1" />
        <path
           id="path4157-2-9"
           d="m 321.728,597.444 0,89.686 365.86,0 0,-116.259 -120.53,-146.628 -117.682,0 z"
           style="fill:#da1210;fill-opacity:1;fill-rule:evenodd;stroke:#000000;stroke-width:7.5;stroke-linecap:butt;stroke-linejoin:miter;stroke-miterlimit:4;stroke-dasharray:none;stroke-opacity:1" />
        <path
           id="path4159-0-8"
           d="m 363.961,535.282 294.494,0"
           style="fill:none;fill-rule:evenodd;stroke:#000000;stroke-width:7.564923;stroke-linecap:butt;stroke-linejoin:miter;stroke-miterlimit:4;stroke-dasharray:none;stroke-opacity:1" />
        <path
           id="path4161-0-5"
           d="m 627.865,498.269 -242.55,0"
           style="fill:none;fill-rule:evenodd;stroke:#000000;stroke-width:7.605958;stroke-linecap:butt;stroke-linejoin:miter;stroke-miterlimit:4;stroke-dasharray:none;stroke-opacity:1" />
        <path
           id="path4163-7-6"
           d="m 415.21,462.205 188.387,0"
           style="fill:none;fill-rule:evenodd;stroke:#000000;stroke-width:7.5;stroke-linecap:butt;stroke-linejoin:miter;stroke-miterlimit:4;stroke-dasharray:none;stroke-opacity:1" />
        <path
           id="path4165-1-8"
           d="m 322.203,608.358 364.91,0"
           style="fill:none;fill-rule:evenodd;stroke:#000000;stroke-width:7.5;stroke-linecap:butt;stroke-linejoin:miter;stroke-miterlimit:4;stroke-dasharray:none;stroke-opacity:1" />
        <path
           id="path4167-7-4"
           d="m 321.254,645.846 122.427,0"
           style="fill:none;fill-rule:evenodd;stroke:#000000;stroke-width:7.5;stroke-linecap:butt;stroke-linejoin:miter;stroke-miterlimit:4;stroke-dasharray:none;stroke-opacity:1" />
        <path
           id="path4169-0-7"
           d="m 687.522,646.586 -121.801,0"
           style="fill:none;fill-rule:evenodd;stroke:#000000;stroke-width:7.5;stroke-linecap:butt;stroke-linejoin:miter;stroke-miterlimit:4;stroke-dasharray:none;stroke-opacity:1" />
        <path
           id="path4171-9-1"
           d="m 525.456,427.478 0,259.037"
           style="fill:none;fill-rule:evenodd;stroke:#000000;stroke-width:7.5;stroke-linecap:butt;stroke-linejoin:miter;stroke-miterlimit:4;stroke-dasharray:none;stroke-opacity:1" />
        <path
           id="path4173-6-6"
           d="m 604.644,466.736 0,219.779"
           style="fill:none;fill-rule:evenodd;stroke:#000000;stroke-width:7.790899;stroke-linecap:butt;stroke-linejoin:miter;stroke-miterlimit:4;stroke-dasharray:none;stroke-opacity:1" />
        <path
           id="path4175-2-2"
           d="m 643.305,510.021 0,175.823"
           style="fill:none;fill-rule:evenodd;stroke:#000000;stroke-width:8.129418;stroke-linecap:butt;stroke-linejoin:miter;stroke-miterlimit:4;stroke-dasharray:none;stroke-opacity:1" />
        <rect
           ry="0"
           y="611.858"
           x="607.334"
           height="73.906"
           width="33.8086"
           id="rect4177-5-2"
           style="opacity:1;fill:#078930;fill-opacity:1;stroke:#000000;stroke-width:5;stroke-linecap:butt;stroke-linejoin:miter;stroke-miterlimit:4;stroke-dasharray:none;stroke-dashoffset:0;stroke-opacity:1" />
        <path
           id="path4179-0-0"
           d="m 688.537,598.156 -45.555,86.838"
           style="fill:none;fill-rule:evenodd;stroke:#000000;stroke-width:7.5;stroke-linecap:butt;stroke-linejoin:miter;stroke-miterlimit:4;stroke-dasharray:none;stroke-opacity:1" />
        <path
           id="path4181-7-8"
           d="m 565.721,420.432 0,266.754"
           style="fill:none;fill-rule:evenodd;stroke:#000000;stroke-width:7.640653;stroke-linecap:butt;stroke-linejoin:miter;stroke-miterlimit:4;stroke-dasharray:none;stroke-opacity:1" />
        <path
           id="path4183-1-6"
           d="m 406.675,476.131 0,210.999"
           style="fill:none;fill-rule:evenodd;stroke:#000000;stroke-width:7.691995;stroke-linecap:butt;stroke-linejoin:miter;stroke-miterlimit:4;stroke-dasharray:none;stroke-opacity:1" />
        <path
           id="path4185-6-3"
           d="m 366.334,537.654 0,152.323"
           style="fill:none;fill-rule:evenodd;stroke:#000000;stroke-width:7.5;stroke-linecap:butt;stroke-linejoin:miter;stroke-miterlimit:4;stroke-dasharray:none;stroke-opacity:1" />
        <path
           id="path4187-0-8"
           d="m 318.881,600.292 45.08,88.261"
           style="fill:none;fill-rule:evenodd;stroke:#000000;stroke-width:7.5;stroke-linecap:butt;stroke-linejoin:miter;stroke-miterlimit:4;stroke-dasharray:none;stroke-opacity:1" />
        <path
           id="path4189-9-1"
           d="m 446.054,428.988 0,258.142"
           style="fill:none;fill-rule:evenodd;stroke:#000000;stroke-width:7.5;stroke-linecap:butt;stroke-linejoin:miter;stroke-miterlimit:4;stroke-dasharray:none;stroke-opacity:1" />
        <rect
           ry="0"
           y="612.189"
           x="368.885"
           height="73.906"
           width="33.8086"
           id="rect4177-4-8-3"
           style="opacity:1;fill:#078930;fill-opacity:1;stroke:#000000;stroke-width:5;stroke-linecap:butt;stroke-linejoin:miter;stroke-miterlimit:4;stroke-dasharray:none;stroke-dashoffset:0;stroke-opacity:1" />
        <path
           id="path4206-1-5"
           d="m 445.551,608.189 0,77.529 120.587,0 0,-79.163 c 0,0 -2.611,-12.61 -15.192,-15.88 -12.581,-3.27 -23.975,-6.072 -47.001,-6.072 -23.025,0 -42.49,3.736 -50.798,7.94 -8.308,4.204 -7.596,15.646 -7.596,15.646 z"
           style="fill:#000000;fill-opacity:1;fill-rule:evenodd;stroke:#000000;stroke-width:7.442405;stroke-linecap:butt;stroke-linejoin:miter;stroke-miterlimit:4;stroke-dasharray:none;stroke-opacity:1" />
        <rect
           ry="0"
           y="615.197"
           x="509.685"
           height="71.5171"
           width="52.009"
           id="rect4177-0-2-5-6"
           style="opacity:1;fill:#078930;fill-opacity:1;stroke:#000000;stroke-width:7.5;stroke-linecap:butt;stroke-linejoin:miter;stroke-miterlimit:4;stroke-dasharray:none;stroke-dashoffset:0;stroke-opacity:1" />
        <path
           id="path4264-8-8"
           d="m 486.197,420.096 0,265.077"
           style="fill:none;fill-rule:evenodd;stroke:#000000;stroke-width:7.5;stroke-linecap:butt;stroke-linejoin:miter;stroke-miterlimit:4;stroke-dasharray:none;stroke-opacity:1" />
        <rect
           ry="0"
           y="615.197"
           x="450.749"
           height="71.5171"
           width="52.009"
           id="rect4177-0-5-7"
           style="opacity:1;fill:#078930;fill-opacity:1;stroke:#000000;stroke-width:7.5;stroke-linecap:butt;stroke-linejoin:miter;stroke-miterlimit:4;stroke-dasharray:none;stroke-dashoffset:0;stroke-opacity:1" />
      </g>
      <g
         id="g4266"
         transform="matrix(0.486332,0,0,0.486332,4.79816,-7.215)">
        <path
           id="path87"
           d="m 270.954,617.849 38.911,0 143.307,-188.861 107.243,0 137.138,184.59 39.86,0 -223.027,-286.139 c 0,0 -2.373,-8.067 2.847,-13.286 5.22,-5.22 16.608,8.541 21.354,6.643 4.745,-1.898 7.117,-3.796 -5.695,-19.456 l -6.169,-8.066 -22.777,22.777 -17.083,-19.93 c 0,0 -24.675,20.404 -18.506,24.2 6.169,3.797 18.506,-5.694 18.506,-5.694 l 11.863,8.542 z"
           style="fill:#000000;fill-opacity:1;fill-rule:evenodd;stroke:#000000;stroke-width:1px;stroke-linecap:butt;stroke-linejoin:miter;stroke-opacity:1" />
        <path
           id="path89"
           d="m 485.914,427.564 0,259.091"
           style="fill:none;fill-rule:evenodd;stroke:#000000;stroke-width:7.5;stroke-linecap:butt;stroke-linejoin:miter;stroke-miterlimit:4;stroke-dasharray:none;stroke-opacity:1" />
        <path
           id="path91"
           d="m 321.728,597.444 0,89.686 365.86,0 0,-116.259 -120.53,-146.628 -117.682,0 z"
           style="fill:#da1210;fill-opacity:1;fill-rule:evenodd;stroke:#000000;stroke-width:7.5;stroke-linecap:butt;stroke-linejoin:miter;stroke-miterlimit:4;stroke-dasharray:none;stroke-opacity:1" />
        <path
           id="path93"
           d="m 363.961,535.282 294.494,0"
           style="fill:none;fill-rule:evenodd;stroke:#000000;stroke-width:7.564923;stroke-linecap:butt;stroke-linejoin:miter;stroke-miterlimit:4;stroke-dasharray:none;stroke-opacity:1" />
        <path
           id="path95"
           d="m 627.865,498.269 -242.55,0"
           style="fill:none;fill-rule:evenodd;stroke:#000000;stroke-width:7.605958;stroke-linecap:butt;stroke-linejoin:miter;stroke-miterlimit:4;stroke-dasharray:none;stroke-opacity:1" />
        <path
           id="path97"
           d="m 415.21,462.205 188.387,0"
           style="fill:none;fill-rule:evenodd;stroke:#000000;stroke-width:7.5;stroke-linecap:butt;stroke-linejoin:miter;stroke-miterlimit:4;stroke-dasharray:none;stroke-opacity:1" />
        <path
           id="path99"
           d="m 322.203,608.358 364.91,0"
           style="fill:none;fill-rule:evenodd;stroke:#000000;stroke-width:7.5;stroke-linecap:butt;stroke-linejoin:miter;stroke-miterlimit:4;stroke-dasharray:none;stroke-opacity:1" />
        <path
           id="path101"
           d="m 321.254,645.846 122.427,0"
           style="fill:none;fill-rule:evenodd;stroke:#000000;stroke-width:7.5;stroke-linecap:butt;stroke-linejoin:miter;stroke-miterlimit:4;stroke-dasharray:none;stroke-opacity:1" />
        <path
           id="path103"
           d="m 687.522,646.586 -121.801,0"
           style="fill:none;fill-rule:evenodd;stroke:#000000;stroke-width:7.5;stroke-linecap:butt;stroke-linejoin:miter;stroke-miterlimit:4;stroke-dasharray:none;stroke-opacity:1" />
        <path
           id="path105"
           d="m 525.456,427.478 0,259.037"
           style="fill:none;fill-rule:evenodd;stroke:#000000;stroke-width:7.5;stroke-linecap:butt;stroke-linejoin:miter;stroke-miterlimit:4;stroke-dasharray:none;stroke-opacity:1" />
        <path
           id="path107"
           d="m 604.644,466.736 0,219.779"
           style="fill:none;fill-rule:evenodd;stroke:#000000;stroke-width:7.790899;stroke-linecap:butt;stroke-linejoin:miter;stroke-miterlimit:4;stroke-dasharray:none;stroke-opacity:1" />
        <path
           id="path109"
           d="m 643.305,510.021 0,175.823"
           style="fill:none;fill-rule:evenodd;stroke:#000000;stroke-width:8.129418;stroke-linecap:butt;stroke-linejoin:miter;stroke-miterlimit:4;stroke-dasharray:none;stroke-opacity:1" />
        <rect
           id="rect111"
           ry="0"
           y="611.858"
           x="607.334"
           height="73.906"
           width="33.8086"
           style="opacity:1;fill:#078930;fill-opacity:1;stroke:#000000;stroke-width:5;stroke-linecap:butt;stroke-linejoin:miter;stroke-miterlimit:4;stroke-dasharray:none;stroke-dashoffset:0;stroke-opacity:1" />
        <path
           id="path113"
           d="m 688.537,598.156 -45.555,86.838"
           style="fill:none;fill-rule:evenodd;stroke:#000000;stroke-width:7.5;stroke-linecap:butt;stroke-linejoin:miter;stroke-miterlimit:4;stroke-dasharray:none;stroke-opacity:1" />
        <path
           id="path115"
           d="m 565.721,420.432 0,266.754"
           style="fill:none;fill-rule:evenodd;stroke:#000000;stroke-width:7.640653;stroke-linecap:butt;stroke-linejoin:miter;stroke-miterlimit:4;stroke-dasharray:none;stroke-opacity:1" />
        <path
           id="path117"
           d="m 406.675,476.131 0,210.999"
           style="fill:none;fill-rule:evenodd;stroke:#000000;stroke-width:7.691995;stroke-linecap:butt;stroke-linejoin:miter;stroke-miterlimit:4;stroke-dasharray:none;stroke-opacity:1" />
        <path
           id="path119"
           d="m 366.334,537.654 0,152.323"
           style="fill:none;fill-rule:evenodd;stroke:#000000;stroke-width:7.5;stroke-linecap:butt;stroke-linejoin:miter;stroke-miterlimit:4;stroke-dasharray:none;stroke-opacity:1" />
        <path
           id="path121"
           d="m 318.881,600.292 45.08,88.261"
           style="fill:none;fill-rule:evenodd;stroke:#000000;stroke-width:7.5;stroke-linecap:butt;stroke-linejoin:miter;stroke-miterlimit:4;stroke-dasharray:none;stroke-opacity:1" />
        <path
           id="path123"
           d="m 446.054,428.988 0,258.142"
           style="fill:none;fill-rule:evenodd;stroke:#000000;stroke-width:7.5;stroke-linecap:butt;stroke-linejoin:miter;stroke-miterlimit:4;stroke-dasharray:none;stroke-opacity:1" />
        <rect
           id="rect125"
           ry="0"
           y="612.189"
           x="368.885"
           height="73.906"
           width="33.8086"
           style="opacity:1;fill:#078930;fill-opacity:1;stroke:#000000;stroke-width:5;stroke-linecap:butt;stroke-linejoin:miter;stroke-miterlimit:4;stroke-dasharray:none;stroke-dashoffset:0;stroke-opacity:1" />
        <path
           id="path127"
           d="m 445.551,608.189 0,77.529 120.587,0 0,-79.163 c 0,0 -2.611,-12.61 -15.192,-15.88 -12.581,-3.27 -23.975,-6.072 -47.001,-6.072 -23.025,0 -42.49,3.736 -50.798,7.94 -8.308,4.204 -7.596,15.646 -7.596,15.646 z"
           style="fill:#000000;fill-opacity:1;fill-rule:evenodd;stroke:#000000;stroke-width:7.442405;stroke-linecap:butt;stroke-linejoin:miter;stroke-miterlimit:4;stroke-dasharray:none;stroke-opacity:1" />
        <rect
           id="rect129"
           ry="0"
           y="615.197"
           x="509.685"
           height="71.5171"
           width="52.009"
           style="opacity:1;fill:#078930;fill-opacity:1;stroke:#000000;stroke-width:7.5;stroke-linecap:butt;stroke-linejoin:miter;stroke-miterlimit:4;stroke-dasharray:none;stroke-dashoffset:0;stroke-opacity:1" />
        <path
           id="path131"
           d="m 486.197,420.096 0,265.077"
           style="fill:none;fill-rule:evenodd;stroke:#000000;stroke-width:7.5;stroke-linecap:butt;stroke-linejoin:miter;stroke-miterlimit:4;stroke-dasharray:none;stroke-opacity:1" />
        <rect
           ry="0"
           y="615.197"
           x="450.749"
           height="71.5171"
           width="52.009"
           id="rect4177-0"
           style="opacity:1;fill:#078930;fill-opacity:1;stroke:#000000;stroke-width:7.5;stroke-linecap:butt;stroke-linejoin:miter;stroke-miterlimit:4;stroke-dasharray:none;stroke-dashoffset:0;stroke-opacity:1" />
      </g>
      <path
         id="path134"
         style="fill:none;fill-opacity:1;stroke:#000000;stroke-width:9.72664;stroke-miterlimit:4;stroke-dasharray:none"
         d="m 4.05289,4.863 0,344.326 a 245.947,245.947 0 0 0 491.89411,0 l 0,-344.326 z" />
    </g>
  </g>
</svg>
