<?xml version="1.0" encoding="UTF-8" standalone="no"?><svg xmlns="http://www.w3.org/2000/svg" width="979.28" height="1067.6" viewBox="0 0 979.28398 1067.6027"><g transform="translate(140.7 9.392)"><path d="m658.77.633c-26.17.053-51.02.198-70.798.478-79.11 1.122-156.7-.214-235.05 0-2.653.007-5.305.036-7.958.043-78.35.214-155.94 1.122-235.05 0-79.11-1.122-239.53 0-239.53 0 0 0 4.995 48.18 6.784 72.32 3.067 41.38 4.256 82.87 6.784 124.29 3.405 55.766 7.902 111.49 11.307 167.25 2.529 41.41 3.91 82.9 6.784 124.29 4.346 62.59 5.02 125.75 15.786 187.56 6.02 34.562 14.418 68.979 27.14 101.67 15.355 39.473 33.473 78.71 58.839 112.63 18.288 24.456 41.648 45.04 65.884 63.62 27.747 21.272 57.962 39.816 89.93 53.968 33.818 14.97 69.917 25.08 106.24 32.09 27.334 5.278 55.35 7.255 83.19 7.349 27.662.094 55.55-1.52 82.71-6.741 36.46-7.01 72.54-17.626 106.46-32.746 31.934-14.235 62.23-32.696 89.98-53.968 24.24-18.58 47.595-39.17 65.884-63.62 25.365-33.919 43.484-73.16 58.839-112.63 12.718-32.695 21.12-67.16 27.14-101.72 10.762-61.814 11.44-124.97 15.786-187.56 2.874-41.39 4.256-82.87 6.784-124.29 3.405-55.766 7.902-111.44 11.307-167.21 2.529-41.41 3.717-82.909 6.784-124.29 1.79-24.14 6.784-72.32 6.784-72.32 0 0-90.24-.636-168.73-.478" fill="#fff"/><g stroke="#000"><path d="m344.17 360.49c-.538 0-1.07.011-1.605.025-.414.011-.829.031-1.242.049-.136.005-.272.009-.406.016-1.01.052-2 .131-2.998.229-.078.008-.16 0-.238.022-.977.099-1.947.223-2.916.363-.094 0-.189.027-.285.041-.964.143-1.926.305-2.883.486-.078.015-.157.028-.234.043-.682.131-1.36.28-2.039.43-.577.127-1.152.26-1.729.398-.495.12-.992.242-1.484.371-.606.157-1.21.319-1.814.488-.459.129-.917.258-1.375.395-.664.197-1.329.402-1.992.611-.391.124-.78.245-1.17.373-.878.289-1.754.589-2.629.898-.111.04-.223.073-.334.113h-.002c-23.369 8.333-45.47 23.473-70.39 23.473-34.389 0-63.47-28.82-97.85-28.82-5.329 0-10.524.695-15.635 1.865-.041 0-.101.014-.141.023-.579.133-1.145.301-1.723.447-.333.084-.679.16-1.012.248-.294.077-.579.169-.873.25-.661.182-1.322.342-1.98.537-.402.118-.826.236-1.227.361-.799.248-1.588.52-2.383.785-.616.205-1.225.417-1.84.633-.582.205-1.14.412-1.721.625-1.827.67-3.66 1.376-5.473 2.117-.999.407-1.975.812-2.971 1.234-1.993.844-3.979 1.72-5.965 2.607-1.088.485-2.193.967-3.279 1.461-.294.133-.579.273-.873.406-.601.272-1.215.535-1.816.809-2.37 1.078-4.722 2.161-7.098 3.215-.085.037-.176.076-.26.113-.124.055-.253.099-.377.154-1.557.686-3.108 1.367-4.67 2.025-.757.319-1.51.633-2.264.943-.068.027-.144.06-.213.088-1 .408-2.01.806-3.02 1.193-1 .386-1.984.762-2.992 1.125-.617.223-1.246.436-1.865.65-.788.271-1.591.531-2.381.785-.671.216-1.331.429-2 .633-.862.259-1.728.503-2.594.738-.127.034-.252.081-.379.115-.058.017-.104.028-.164.043-1.031.274-2.074.529-3.113.766-.699.16-1.42.307-2.123.447-.747.15-1.512.278-2.266.406-.126.021-.25.048-.377.068-.025.004-.045-.004-.07 0-.859.139-1.707.274-2.57.381-.034.004-.062.019-.096.023-.768.095-1.539.179-2.311.248-.2.018-.39.028-.592.043-.618.05-1.239.105-1.861.137-.533.026-1.07.029-1.604.043-.535.015-1.066.025-1.604.025-.822 0-1.636 0-2.453-.047-.724-.029-1.451-.059-2.17-.111-.235-.017-.473-.048-.707-.068-.511-.043-1.024-.08-1.533-.135-.245-.026-.487-.061-.73-.09-.126-.015-.251-.028-.377-.043-.949-.117-1.887-.272-2.828-.428-.544-.089-1.088-.167-1.629-.268-.253-.047-.501-.109-.754-.158-.707-.139-1.42-.293-2.123-.451-.227-.051-.457-.104-.684-.156-.628-.147-1.261-.29-1.887-.451-.325-.084-.643-.16-.967-.248-.042-.011-.1-.029-.143-.041-.753-.204-1.489-.408-2.238-.629-.017-.006-.055-.021-.072-.025-.502-.149-1.01-.294-1.51-.451-.472-.149-.922-.293-1.393-.447-.505-.165-1.01-.344-1.51-.516-.259-.089-.517-.181-.775-.271-.495-.172-.992-.337-1.486-.516-.819-.297-1.662-.61-2.477-.922-.555-.212-1.099-.438-1.652-.656-.35-.138-.71-.262-1.061-.402-1.278-.512-2.547-1.034-3.818-1.574-.086-.036-.153-.074-.236-.109-.26-.111-.519-.228-.779-.34-1.504-.646-3-1.31-4.504-1.979-.932-.417-1.876-.839-2.807-1.26-1.632-.738-3.252-1.461-4.883-2.203-3.154-1.433-6.314-2.863-9.48-4.223-.199-.085-.412-.163-.611-.248-1.035-.441-2.074-.88-3.113-1.305-.126-.051-.252-.105-.379-.156-.897-.364-1.789-.733-2.688-1.082-.099-.04-.207-.071-.307-.109-.892-.345-1.793-.688-2.688-1.014-.519-.19-1.038-.38-1.559-.563-.596-.209-1.196-.408-1.793-.607-8.09-2.702-16.349-4.518-24.947-4.518l-.004.027c-20.12 0-38.39 9.854-56.977 18.04 2.058 36.912 3.438 73.863 5.998 110.74 4.346 62.59 5.03 125.75 15.787 187.56 6.02 34.562 14.419 68.979 27.14 101.67 15.355 39.473 33.473 78.72 58.838 112.63 18.288 24.456 41.649 45.04 65.885 63.62 27.747 21.272 57.961 39.816 89.93 53.969 33.818 14.97 69.917 25.08 106.24 32.09 27.334 5.278 55.35 7.255 83.19 7.35 27.662.094 55.55-1.52 82.71-6.74 36.46-7.01 72.54-17.626 106.46-32.746 31.934-14.235 62.23-32.697 89.98-53.969 24.24-18.58 47.594-39.17 65.883-63.62 25.365-33.919 43.485-73.16 58.84-112.63 12.718-32.695 21.12-67.15 27.13-101.72 10.762-61.814 11.442-124.97 15.787-187.56 2.469-35.567 3.841-71.2 5.781-106.8-21.877-8.526-42.854-21.924-66.31-21.924-5.329 0-10.523.695-15.633 1.865-.041 0-.103.012-.145.022-.579.133-1.143.305-1.721.451-.333.084-.679.16-1.012.248-.294.077-.579.167-.873.248-.661.182-1.322.344-1.98.539-.402.118-.826.236-1.227.361-.799.248-1.588.518-2.383.783-.616.205-1.225.415-1.84.631-.582.205-1.14.416-1.721.629-1.827.67-3.66 1.375-5.473 2.113-.999.407-1.973.814-2.969 1.236-1.993.844-3.983 1.72-5.969 2.607-1.087.485-2.191.967-3.277 1.461-.294.133-.577.273-.871.406-.601.272-1.217.537-1.818.811-2.37 1.078-4.724 2.16-7.1 3.213-.085.037-.174.074-.258.111-.124.055-.254.103-.379.158-1.557.686-3.106 1.366-4.668 2.023-.757.319-1.508.633-2.262.943-.068.027-.146.06-.215.088-1 .408-2.01.806-3.02 1.193-1 .386-1.986.762-2.994 1.125-.617.223-1.246.438-1.865.652-.788.271-1.591.529-2.381.783-.671.216-1.331.427-2 .631-.862.259-1.728.507-2.594.742-.127.034-.252.079-.379.113-.058.017-.106.03-.166.045-1.032.274-2.072.527-3.111.764-.699.16-1.42.311-2.123.451-.747.15-1.512.276-2.266.404-.126.021-.25.048-.377.068-.025.004-.045-.004-.07 0-.859.139-1.707.274-2.57.381-.034.004-.06.017-.094.022-.768.095-1.539.179-2.311.248-.2.018-.39.03-.592.045-.618.05-1.239.103-1.861.135-.533.026-1.07.031-1.604.045-.535.015-1.066.023-1.604.023-.822 0-1.636-.011-2.453-.043-.724-.029-1.451-.063-2.17-.115-.235-.017-.473-.048-.707-.068-.511-.043-1.024-.08-1.533-.135-.245-.026-.489-.06-.732-.09-.126-.015-.251-.03-.377-.045-.949-.117-1.887-.272-2.828-.428-.544-.089-1.088-.167-1.629-.268-.253-.047-.499-.109-.752-.158-.707-.139-1.42-.291-2.123-.449-.226-.051-.457-.106-.684-.158-.628-.147-1.263-.286-1.889-.447-.325-.084-.641-.162-.965-.25-.042-.011-.1-.031-.143-.043-.753-.204-1.489-.408-2.238-.629-.018-.006-.057-.021-.074-.025-.501-.149-1.01-.291-1.51-.447-.472-.149-.922-.297-1.393-.451-.505-.165-1-.344-1.508-.516-.259-.089-.517-.181-.775-.271-.495-.172-.994-.337-1.488-.516-.819-.297-1.66-.608-2.475-.92-.555-.212-1.099-.436-1.652-.654-.35-.138-.71-.266-1.061-.406-1.278-.512-2.549-1.03-3.82-1.57-.085-.036-.151-.077-.234-.113-.26-.111-.521-.227-.781-.338-1.504-.646-3-1.31-4.502-1.979-.932-.417-1.878-.837-2.809-1.258-1.632-.738-3.25-1.461-4.881-2.203-3.154-1.433-6.314-2.867-9.48-4.227-.199-.085-.414-.163-.613-.248-1.035-.441-2.074-.88-3.113-1.305-.126-.051-.252-.105-.379-.156-.897-.364-1.789-.729-2.688-1.078-.1-.04-.207-.075-.307-.113-.892-.345-1.793-.686-2.688-1.012-.519-.19-1.037-.381-1.557-.563-.596-.209-1.198-.406-1.795-.605-8.09-2.702-16.349-4.518-24.947-4.518-34.383 0-63.37 28.818-97.75 28.818-21.17 0-40.33-10.906-59.949-19.307v-.004c-.09-.038-.183-.075-.273-.113-1.375-.587-2.753-1.166-4.133-1.723-.835-.337-1.67-.67-2.514-.994-.917-.355-1.837-.696-2.758-1.031-.229-.082-.457-.162-.686-.244-.719-.257-1.44-.511-2.162-.756-.249-.084-.5-.168-.75-.25-.841-.278-1.684-.548-2.529-.805-.085-.026-.167-.052-.252-.078-.943-.285-1.888-.553-2.836-.809-.212-.056-.423-.109-.635-.164-.733-.193-1.468-.378-2.205-.551-.281-.066-.561-.13-.842-.193-.697-.157-1.398-.302-2.1-.439-.269-.054-.534-.113-.803-.162-.912-.171-1.829-.329-2.748-.465-.281-.041-.565-.071-.848-.109-.656-.089-1.313-.173-1.973-.244-.381-.041-.763-.077-1.145-.111-.596-.054-1.194-.098-1.793-.137-.449-.029-.898-.059-1.35-.078-.086-.004-.172-.009-.258-.012-.778-.029-1.557-.049-2.34-.049z" fill="#0f47af" stroke-width="5.326"/><path d="m658.77.633c-26.17.053-51.02.198-70.798.478-79.11 1.122-156.7-.214-235.05 0-2.653.007-5.305.036-7.958.043-78.35.214-155.94 1.122-235.05 0-79.11-1.122-239.53 0-239.53 0 0 0 4.995 48.18 6.784 72.32 3.067 41.38 4.256 82.87 6.784 124.29 3.405 55.766 7.902 111.49 11.307 167.25 2.529 41.41 3.91 82.9 6.784 124.29 4.346 62.59 5.02 125.75 15.786 187.56 6.02 34.562 14.418 68.979 27.14 101.67 15.355 39.473 33.473 78.71 58.839 112.63 18.288 24.456 41.648 45.04 65.884 63.62 27.747 21.272 57.962 39.816 89.93 53.968 33.818 14.97 69.917 25.08 106.24 32.09 27.334 5.278 55.35 7.255 83.19 7.349 27.662.094 55.55-1.52 82.71-6.741 36.46-7.01 72.54-17.626 106.46-32.746 31.934-14.235 62.23-32.696 89.98-53.968 24.24-18.58 47.595-39.17 65.884-63.62 25.365-33.919 43.484-73.16 58.839-112.63 12.718-32.695 21.12-67.16 27.14-101.72 10.762-61.814 11.44-124.97 15.786-187.56 2.874-41.39 4.256-82.87 6.784-124.29 3.405-55.766 7.902-111.44 11.307-167.21 2.529-41.41 3.717-82.909 6.784-124.29 1.789-24.14 6.784-72.32 6.784-72.32 0 0-90.24-.636-168.73-.478z" fill="none" stroke-width="20"/><g stroke-width="5"><g stroke-linecap="round"><path d="m158.1 13.12l-95.42 174.12 95.42 174.11 95.42-174.11-95.42-174.12m95.42 174.12l95.42 174.11 95.42-174.11-95.42-174.12-95.42 174.12zm190.84 0l95.42 174.11 95.42-174.11-95.42-174.12-95.42 174.12z" fill="#da121a" fill-rule="evenodd"/><g fill="#fff" stroke-linejoin="round"><ellipse cx="348.99" cy="946.16" rx="137.11" ry="54.51"/><ellipse cx="348.99" cy="929.48" rx="129.45" ry="48.13"/><path d="m266.82 755.58h164.34v172.75h-164.34z"/><path d="m454.94 707.91c-12.249 6.495-25.327 11.61-38.43 15.775-17.14 5.449-35.394 6.617-53.37 7.865l-.119.242c0 0-2.929.089-6.588.164-1.927.064-4.049.086-6.195.09-.431.003-.851.003-1.285.004-.434 0-.851 0-1.281-.004-2.147-.004-4.274-.026-6.201-.09-3.659-.075-6.582-.164-6.582-.164 0 0-.121-.237-.123-.242-17.981-1.249-36.24-2.417-53.37-7.865-13.07-4.154-26.11-9.25-38.33-15.719a105.95515 101.90075 0 0 0 -.0156 .31054 105.95515 101.90075 0 0 0 105.95507 101.90235 105.95515 101.90075 0 0 0 105.95703 -101.90235 105.95515 101.90075 0 0 0 -.0137 -.36718z"/><path d="m495.47 676.89c-.334.351-.664.706-1 1.055.325-.337.658-.665.98-1 .007-.017.013-.034.019-.051zm-292.96.105c.005.013.001.026.016.039.236.248.481.487.719.734-.246-.256-.489-.516-.734-.773zm290.33 2.615c-.764.773-1.537 1.536-2.314 2.295.777-.759 1.55-1.522 2.314-2.295zm-287.59.207c.636.641 1.277 1.275 1.922 1.906-.645-.631-1.286-1.265-1.922-1.906zm283.7 3.625c-.88.838-1.774 1.66-2.67 2.479.896-.819 1.79-1.641 2.67-2.479zm-279.9.094c.801.762 1.613 1.51 2.428 2.256-.815-.746-1.627-1.494-2.428-2.256zm275.8 3.701c-.199.178-.4.353-.6.529.2-.177.401-.352.6-.529zm-271.75.045c.175.156.352.309.527.465-.175-.155-.353-.309-.527-.465zm-.918 10.266c29.917 55.961 80.66 91.56 136.77 91.65 56.07-.067 106.78-35.589 136.72-91.45a164.86508 115.89579 0 0 1 -136.71679 51.45703 164.86508 115.89579 0 0 1 -136.76563 -51.65234m129.28 34.41c1.927.064 4.055.086 6.201.09-2.147-.004-4.274-.026-6.201-.09z"/><path d="m508.68 661.56c-8.33 10.66-17.564 20.538-27.842 29.15-18.467 15.479-41.37 25.677-64.33 32.977-17.14 5.449-35.394 6.617-53.37 7.865l-.119.242c0 0-2.929.089-6.588.164-1.927.064-4.049.086-6.195.09-.431.003-.851.003-1.285.004-.434 0-.851 0-1.281-.004-2.147-.004-4.274-.026-6.201-.09-3.659-.075-6.582-.164-6.582-.164 0 0-.121-.237-.123-.242-17.981-1.249-36.24-2.417-53.37-7.865-22.964-7.3-45.863-17.498-64.33-32.977-10.238-8.581-19.438-18.417-27.742-29.03a164.86508 115.89579 0 0 0 159.63477 87.51953 164.86508 115.89579 0 0 0 159.73437 -87.64258z"/></g></g><g stroke-linejoin="round"><g fill="#fff"><path d="m135.42 516.1c0 0-1.049 13.776 0 20.543 4.285 27.651 12.527 55.17 25.408 80.01 14.269 27.514 32.467 54.15 56.22 74.06 18.467 15.479 41.37 25.677 64.33 32.977 17.14 5.449 35.394 6.617 53.37 7.865.002.005.121.242.121.242 0 0 2.925.089 6.584.164 1.927.064 4.053.086 6.199.09.431.003.849.003 1.283.004.434 0 .853 0 1.283-.004 2.146-.004 4.27-.026 6.197-.09 3.659-.075 6.586-.164 6.586-.164 0 0 .119-.238.121-.242 17.981-1.249 36.24-2.417 53.37-7.865 22.964-7.3 45.861-17.498 64.33-32.977 23.754-19.91 41.954-46.546 56.22-74.06 12.882-24.84 21.12-52.35 25.406-80.01 1.049-6.767 0-20.543 0-20.543l-213.52 26.564-213.52-26.564" fill-rule="evenodd"/><g stroke-linecap="round"><path d="m140.41908 483.22461a218.11284 77.00587 0 0 0 -9.5879 22.54297 218.11284 77.00587 0 0 0 218.11329 77.00586 218.11284 77.00587 0 0 0 218.11328 -77.00586 218.11284 77.00587 0 0 0 -9.61719 -22.3711 218.11284 54.45293 0 0 1 -208.49609 38.48438 218.11284 54.45293 0 0 1 -208.52539 -38.65625z"/><path d="M564.464 475.3457A218.11284 56.722087 0 0 1 348.94447 523.82007 218.11284 56.722087 0 0 1 133.43275 475.51253 218.11284 69.862105 0 0 0 130.83118 485.68715 218.11284 69.862105 0 0 0 348.94447 555.55037 218.11284 69.862105 0 0 0 567.05775 485.68715 218.11284 69.862105 0 0 0 564.464 475.3457"/><ellipse cx="348.94" cy="473.01" rx="218.11" ry="60.04"/></g></g><ellipse cx="348.94" cy="465.98" rx="161.12" ry="38.919" fill="none" stroke-linecap="round"/></g></g><g fill-rule="evenodd"><path d="m250.25 435.22c0 0-10.763 2.094-16.07 3.447-6.42 1.636-12.854 3.318-19.06 5.643-5.413 2.029-10.822 4.228-15.769 7.219-2.689 1.625-5.493 3.313-7.457 5.766-1.999 2.496-4.04 5.491-4.066 8.688-.028 3.02 1.796 5.927 3.69 8.282 2.664 3.311 6.588 5.431 10.264 7.562 3.973 2.303 8.297 3.968 12.604 5.562 6.02 2.229 12.231 3.934 18.439 5.574 3.96 1.046 7.966 1.924 11.985 2.718 8.192 1.618 16.436 2.991 24.704 4.163 6.804.965 20.479 2.36 20.479 2.36 0 0-36.19-9.264-50.34-20.597-3.793-3.037-7.03-7.277-8.335-11.959-.972-3.499.052-7.302.725-10.872.446-2.365.404-5.255 2.174-6.885 2-1.846 5.285-2.266 7.972-1.812 2.247.38 4.369 1.848 5.798 3.624 2.252 2.798 2.517 6.73 3.624 10.147.931 2.873 1.308 5.939 2.537 8.697 1.214 2.725 2.142 6.094 4.711 7.61 2.083 1.23 5.797 2.298 7.248.362 1.764-2.354-1.857-5.584-2.899-8.335-1.803-4.762-4.21-9.295-5.798-14.13-1.553-4.732-2.043-9.772-3.624-14.495-.958-2.862-3.533-8.336-3.533-8.336z"/><path d="m428.9 432.2c0 0-18.979-2.298-28.503-3.093-9.08-.758-18.17-1.282-27.27-1.597-11.34-.393-22.692-.476-34.04-.368-6.562.062-13.12.296-19.677.587-5.658.251-11.314.584-16.962.997-5.508.403-11.01.864-16.505 1.443-6.821.72-20.422 2.525-20.422 2.525 0 0-2.394 5.218-2.557 8.02-.365 6.254 1.835 12.435 3.587 18.45 1.566 5.376 2.678 11.238 6.15 15.631 1.484 1.877 3.649 4.929 5.894 4.1 1.904-.704 1.599-3.864 1.537-5.894-.133-4.401-2.669-8.392-4.1-12.556-1.063-3.092-3.03-5.97-3.331-9.225-.297-3.188-.38-6.917 1.537-9.481 1.418-1.897 4.126-2.434 6.406-3.075 12.314-3.46 25.424-2.906 38.18-3.844 20.21-1.485 40.469-2.39 60.73-2.819 16.446-.348 49.35.2 49.35.2z"/><g fill="none" stroke-linecap="round" stroke-width="5"><path d="m379.62 875.27c0 0 16.51-2.321 24.43-4.789 6.363-1.984 18.322-7.982 18.322-7.982"/><path d="m379.62 858.11c0 0 16.51-2.321 24.43-4.789 6.363-1.984 18.322-7.982 18.322-7.982"/><path d="m379.62 909.59c0 0 16.51-2.321 24.43-4.789 6.363-1.984 18.322-7.982 18.322-7.982"/><path d="m379.62 892.43c0 0 16.51-2.321 24.43-4.789 6.363-1.984 18.322-7.982 18.322-7.982"/><path d="m379.62 840.95c0 0 16.51-2.321 24.43-4.789 6.363-1.984 18.322-7.982 18.322-7.982"/><path d="m379.62 823.79c0 0 16.51-2.321 24.43-4.789 6.363-1.984 18.322-7.982 18.322-7.982"/><path d="m284.79 921.45v-45.22"/><path d="m292.84 882.53v-45.22"/></g></g><g stroke-width="5"><g stroke-linecap="round"><g stroke-linejoin="round"><path d="m431.16 879.93v6.488a86.05634 32.453449 0 0 1 3.88671 9.46093 86.05634 32.453449 0 0 1 -86.05664 32.45313 86.05634 32.453449 0 0 1 -86.05468 -32.45313 86.05634 32.453449 0 0 1 3.88671 -9.58203v-6.334a111.58152 40.475651 0 0 0 -29.4121 27.27148 111.58152 40.475651 0 0 0 111.58007 40.47656 111.58152 40.475651 0 0 0 111.58203 -40.47656 111.58152 40.475651 0 0 0 -29.4121 -27.30469z" fill="#fff"/><path d="m235.39 701.94c0 0 7.773-41.33 13.707-61.47 5.432-18.435 19.97-54.09 19.97-54.09 0 0 24.11 56.56 37.86 84.04 10.412 20.813 33.743 61.12 33.743 61.12" fill="none" fill-rule="evenodd"/></g><g fill="none" fill-rule="evenodd"><path d="m286.41 580.38c0 0 18.69 50.09 30.08 74.24 9.688 20.542 32.452 59.911 32.452 59.911"/><path d="m462.5 701.94c0 0-7.773-41.33-13.707-61.47-5.432-18.435-19.97-54.09-19.97-54.09 0 0-24.11 56.56-37.86 84.04-10.412 20.813-33.743 61.12-33.743 61.12" stroke-linejoin="round"/><path d="m411.47 580.38c0 0-18.69 50.09-30.08 74.24-9.688 20.542-32.452 59.911-32.452 59.911"/></g></g><g fill="none" fill-rule="evenodd"><path d="m306.47 631.57l23.09-49.1"/><path d="m348.94 582.77l-32.452 71.846"/><path d="m391.42 631.57l-23.09-49.1"/><path d="m348.94 582.77l32.452 71.846"/><path d="m165.79 547.34c0 0 7.966 43.32 15.727 63.799 6.092 16.08 14.94 31.04 23.943 45.686 6.02 9.8 20.03 28.1 20.03 28.1 0 0 7.461-39.22 12.949-58.39 4.971-17.363 18.04-51.09 18.04-51.09" stroke-linejoin="round"/><path d="m176 593.3l18.521-33.31"/><path d="m185.06 619.7l26.39-54.29"/><path d="m211.45 565.42l26.996 61.11"/><path d="m227.14 569.54l17.684 37.464"/><g transform="matrix(-1 0 0 1-372.34 0)"><path d="m-904.53 547.34c0 0 7.966 43.32 15.727 63.799 6.092 16.08 14.94 31.04 23.943 45.686 6.02 9.8 20.03 28.1 20.03 28.1 0 0 7.461-39.22 12.949-58.39 4.971-17.363 18.04-51.09 18.04-51.09" stroke-linejoin="round"/><path d="m-894.33 593.3l18.521-33.31"/><path d="m-885.27 619.7l26.39-54.29"/></g><path d="m486.54 565.42l-26.996 61.11"/><path d="m470.85 569.54l-17.684 37.464"/></g></g></g></g></svg>