<?xml version="1.0" encoding="UTF-8" standalone="no"?>
<!-- Created with Inkscape (http://www.inkscape.org/) -->

<svg
   xmlns:dc="http://purl.org/dc/elements/1.1/"
   xmlns:cc="http://creativecommons.org/ns#"
   xmlns:rdf="http://www.w3.org/1999/02/22-rdf-syntax-ns#"
   xmlns:svg="http://www.w3.org/2000/svg"
   xmlns="http://www.w3.org/2000/svg"
   xmlns:sodipodi="http://sodipodi.sourceforge.net/DTD/sodipodi-0.dtd"
   xmlns:inkscape="http://www.inkscape.org/namespaces/inkscape"
   width="131.23087mm"
   height="158.65759mm"
   viewBox="0 0 131.23086 158.65759"
   version="1.1"
   id="svg865"
   inkscape:version="0.92.5 (2060ec1f9f, 2020-04-08)"
   sodipodi:docname="DEU Schmitshausen COA.svg">
  <defs
     id="defs859">
    <inkscape:path-effect
       effect="spiro"
       id="path-effect4151"
       is_visible="true" />
    <inkscape:path-effect
       effect="spiro"
       id="path-effect4128"
       is_visible="true" />
    <inkscape:path-effect
       effect="spiro"
       id="path-effect3715"
       is_visible="true" />
    <inkscape:path-effect
       effect="spiro"
       id="path-effect3687"
       is_visible="true" />
    <inkscape:path-effect
       effect="spiro"
       id="path-effect3575"
       is_visible="true" />
    <inkscape:path-effect
       effect="spiro"
       id="path-effect3552"
       is_visible="true" />
    <inkscape:path-effect
       effect="spiro"
       id="path-effect3644"
       is_visible="true" />
    <inkscape:path-effect
       effect="spiro"
       id="path-effect3636"
       is_visible="true" />
    <inkscape:path-effect
       effect="spiro"
       id="path-effect3544"
       is_visible="true" />
    <inkscape:path-effect
       effect="spiro"
       id="path-effect3466"
       is_visible="true" />
    <inkscape:path-effect
       effect="spiro"
       id="path-effect3544-2"
       is_visible="true" />
    <inkscape:path-effect
       effect="spiro"
       id="path-effect3644-8"
       is_visible="true" />
    <inkscape:path-effect
       effect="spiro"
       id="path-effect3644-3"
       is_visible="true" />
    <inkscape:path-effect
       effect="spiro"
       id="path-effect3636-0"
       is_visible="true" />
    <inkscape:path-effect
       effect="spiro"
       id="path-effect1727-0-1"
       is_visible="true" />
    <inkscape:path-effect
       effect="spiro"
       id="path-effect1731-8-3"
       is_visible="true" />
    <inkscape:path-effect
       effect="spiro"
       id="path-effect1727-3"
       is_visible="true" />
    <inkscape:path-effect
       effect="spiro"
       id="path-effect1731-7"
       is_visible="true" />
    <inkscape:path-effect
       effect="spiro"
       id="path-effect841-8"
       is_visible="true" />
    <inkscape:path-effect
       effect="spiro"
       id="path-effect3575-7"
       is_visible="true" />
    <inkscape:path-effect
       effect="spiro"
       id="path-effect3575-3"
       is_visible="true" />
    <inkscape:path-effect
       effect="spiro"
       id="path-effect3575-7-2"
       is_visible="true" />
    <inkscape:path-effect
       effect="spiro"
       id="path-effect3687-8"
       is_visible="true" />
    <inkscape:path-effect
       effect="spiro"
       id="path-effect3715-6"
       is_visible="true" />
    <inkscape:path-effect
       effect="spiro"
       id="path-effect4128-1"
       is_visible="true" />
    <inkscape:path-effect
       effect="spiro"
       id="path-effect4151-4"
       is_visible="true" />
    <inkscape:path-effect
       effect="spiro"
       id="path-effect4151-0"
       is_visible="true" />
    <inkscape:path-effect
       effect="spiro"
       id="path-effect4151-4-8"
       is_visible="true" />
    <inkscape:path-effect
       effect="spiro"
       id="path-effect4151-06"
       is_visible="true" />
    <inkscape:path-effect
       effect="spiro"
       id="path-effect4151-4-88"
       is_visible="true" />
    <inkscape:path-effect
       effect="spiro"
       id="path-effect4151-0-4"
       is_visible="true" />
    <inkscape:path-effect
       effect="spiro"
       id="path-effect4151-4-8-9"
       is_visible="true" />
    <inkscape:path-effect
       effect="spiro"
       id="path-effect4151-06-7"
       is_visible="true" />
    <inkscape:path-effect
       effect="spiro"
       id="path-effect4151-4-88-6"
       is_visible="true" />
    <inkscape:path-effect
       effect="spiro"
       id="path-effect4151-0-4-0"
       is_visible="true" />
    <inkscape:path-effect
       effect="spiro"
       id="path-effect4151-4-8-9-9"
       is_visible="true" />
    <inkscape:path-effect
       effect="spiro"
       id="path-effect4151-2"
       is_visible="true" />
    <inkscape:path-effect
       effect="spiro"
       id="path-effect4151-4-6"
       is_visible="true" />
    <inkscape:path-effect
       effect="spiro"
       id="path-effect4151-22"
       is_visible="true" />
    <inkscape:path-effect
       effect="spiro"
       id="path-effect4151-4-86"
       is_visible="true" />
    <inkscape:path-effect
       effect="spiro"
       id="path-effect4151-2-2"
       is_visible="true" />
    <inkscape:path-effect
       effect="spiro"
       id="path-effect4151-4-6-2"
       is_visible="true" />
    <inkscape:path-effect
       effect="spiro"
       id="path-effect4151-3"
       is_visible="true" />
    <inkscape:path-effect
       effect="spiro"
       id="path-effect4151-4-5"
       is_visible="true" />
    <inkscape:path-effect
       effect="spiro"
       id="path-effect4151-03"
       is_visible="true" />
    <inkscape:path-effect
       effect="spiro"
       id="path-effect4151-4-4"
       is_visible="true" />
    <inkscape:path-effect
       effect="spiro"
       id="path-effect4151-3-6"
       is_visible="true" />
    <inkscape:path-effect
       effect="spiro"
       id="path-effect4151-4-5-7"
       is_visible="true" />
    <inkscape:path-effect
       effect="spiro"
       id="path-effect4151-03-2"
       is_visible="true" />
    <inkscape:path-effect
       effect="spiro"
       id="path-effect4151-4-4-2"
       is_visible="true" />
    <inkscape:path-effect
       effect="spiro"
       id="path-effect4151-3-6-0"
       is_visible="true" />
    <inkscape:path-effect
       effect="spiro"
       id="path-effect4151-4-5-7-7"
       is_visible="true" />
    <inkscape:path-effect
       effect="spiro"
       id="path-effect4151-8"
       is_visible="true" />
    <inkscape:path-effect
       effect="spiro"
       id="path-effect4151-4-9"
       is_visible="true" />
    <inkscape:path-effect
       effect="spiro"
       id="path-effect4151-3-4"
       is_visible="true" />
    <inkscape:path-effect
       effect="spiro"
       id="path-effect4151-4-5-8"
       is_visible="true" />
    <inkscape:path-effect
       effect="spiro"
       id="path-effect4151-8-5"
       is_visible="true" />
    <inkscape:path-effect
       effect="spiro"
       id="path-effect4151-4-9-8"
       is_visible="true" />
    <inkscape:path-effect
       effect="spiro"
       id="path-effect4151-3-4-3"
       is_visible="true" />
    <inkscape:path-effect
       effect="spiro"
       id="path-effect4151-4-5-8-1"
       is_visible="true" />
    <inkscape:path-effect
       effect="spiro"
       id="path-effect4151-5"
       is_visible="true" />
    <inkscape:path-effect
       effect="spiro"
       id="path-effect4151-4-882"
       is_visible="true" />
    <inkscape:path-effect
       effect="spiro"
       id="path-effect4151-3-7"
       is_visible="true" />
    <inkscape:path-effect
       effect="spiro"
       id="path-effect4151-4-5-6"
       is_visible="true" />
    <inkscape:path-effect
       effect="spiro"
       id="path-effect4151-03-1"
       is_visible="true" />
    <inkscape:path-effect
       effect="spiro"
       id="path-effect4151-4-4-27"
       is_visible="true" />
    <inkscape:path-effect
       effect="spiro"
       id="path-effect4151-03-2-2"
       is_visible="true" />
    <inkscape:path-effect
       effect="spiro"
       id="path-effect4151-4-4-2-4"
       is_visible="true" />
    <inkscape:path-effect
       effect="spiro"
       id="path-effect4151-8-1"
       is_visible="true" />
    <inkscape:path-effect
       effect="spiro"
       id="path-effect4151-4-9-4"
       is_visible="true" />
    <inkscape:path-effect
       effect="spiro"
       id="path-effect4151-8-5-8"
       is_visible="true" />
    <inkscape:path-effect
       effect="spiro"
       id="path-effect4151-4-9-8-6"
       is_visible="true" />
  </defs>
  <sodipodi:namedview
     id="base"
     pagecolor="#ffffff"
     bordercolor="#666666"
     borderopacity="1.0"
     inkscape:pageopacity="0.0"
     inkscape:pageshadow="2"
     inkscape:zoom="1.3224365"
     inkscape:cx="247.99534"
     inkscape:cy="299.82539"
     inkscape:document-units="mm"
     inkscape:current-layer="layer1"
     showgrid="false"
     inkscape:window-width="1920"
     inkscape:window-height="1046"
     inkscape:window-x="-11"
     inkscape:window-y="-11"
     inkscape:window-maximized="1"
     fit-margin-top="0"
     fit-margin-left="0"
     fit-margin-right="0"
     fit-margin-bottom="0"
     inkscape:snap-global="false"
     inkscape:snap-midpoints="true"
     inkscape:snap-smooth-nodes="true" />
  <metadata
     id="metadata862">
    <rdf:RDF>
      <cc:Work
         rdf:about="">
        <dc:format>image/svg+xml</dc:format>
        <dc:type
           rdf:resource="http://purl.org/dc/dcmitype/StillImage" />
        <dc:title />
      </cc:Work>
    </rdf:RDF>
  </metadata>
  <g
     inkscape:label="Ebene 1"
     inkscape:groupmode="layer"
     id="layer1"
     transform="translate(24.281843,172.01697)">
    <path
       style="fill:#009aff;fill-opacity:1;fill-rule:evenodd;stroke:none;stroke-width:2.11666656;stroke-linecap:round;stroke-linejoin:round;stroke-miterlimit:4;stroke-dasharray:none;stroke-opacity:1"
       inkscape:connector-curvature="0"
       d="m 105.89069,-170.95864 -0.29516,94.538479 c -1.43703,37.540969 -29.829638,61.981429 -64.261945,62.00245 -34.401323,-0.0461 -62.804565,-24.497202 -64.261935,-62.00245 l -0.29516,-94.538479 h 64.555548 z"
       id="path10563-0-6-2-6-6-8"
       sodipodi:nodetypes="ccccccc" />
    <path
       inkscape:connector-curvature="0"
       style="fill:#ffffff;stroke:#000000;stroke-width:2.11666656;stroke-linecap:round;stroke-linejoin:round;stroke-miterlimit:4;stroke-dasharray:none;stroke-opacity:1"
       d="m 41.333593,-159.35056 c -4.526463,-0.0231 -9.055719,0.65199 -13.378511,1.99471 -12.405907,3.85346 -22.7863237,13.28008 -28.63494354,24.87962 -4.36422266,8.65554 -6.31948026,18.47285 -5.87974536,28.15642 0.4848939,10.678008 3.791532,21.007693 7.28792928,31.108693 2.04833532,5.917607 4.17652722,11.807521 6.37428602,17.671275 l -9.8681301,3.68763 3.41426006,9.136393 25.07650664,-9.371004 -3.414262,-9.136393 -0.359151,0.134358 c -2.367989,-5.953737 -4.518742,-11.993722 -6.436299,-18.107422 -2.499347,-7.968604 -4.626742,-16.176482 -4.576982,-24.5277 0.04614,-7.74338 2.038466,-15.54517 6.219774,-22.06274 3.352602,-5.22582 8.173498,-9.61667 13.965555,-11.85302 3.239257,-1.2507 6.741623,-1.81415 10.209713,-1.6428 3.468092,-0.17134 6.970463,0.3921 10.209715,1.6428 5.79206,2.23635 10.612953,6.62719 13.965555,11.85302 4.18131,6.51757 6.173676,14.31937 6.219774,22.06274 0.04976,8.351229 -2.07763,16.559096 -4.576982,24.5277 -1.91756,6.1137 -4.06831,12.153685 -6.436299,18.107422 l -0.359151,-0.134358 -3.414262,9.136393 25.076507,9.371004 3.41426,-9.136393 -9.86813,-3.68763 c 2.197758,-5.863754 4.325948,-11.753668 6.374288,-17.671275 3.4964,-10.101 6.803036,-20.430683 7.287926,-31.108693 0.43974,-9.68357 -1.515514,-19.50088 -5.879744,-28.15642 -5.84862,-11.59954 -16.229034,-21.02616 -28.634944,-24.87962 -4.322792,-1.34273 -8.852043,-2.01781 -13.378513,-1.99471 z"
       id="path3550" />
    <path
       style="fill:none;stroke:#000000;stroke-width:2.11666656;stroke-linecap:round;stroke-linejoin:round;stroke-miterlimit:4;stroke-dasharray:none;stroke-opacity:1"
       d="m -140.78997,-51.852215 9.86813,-3.68763"
       id="path3573"
       inkscape:connector-curvature="0"
       inkscape:path-effect="#path-effect3575"
       inkscape:original-d="m -140.78997,-51.852215 c 3.28964,-1.229473 6.57902,-2.458683 9.86813,-3.68763"
       transform="translate(142.95851,-1.8438122)" />
    <path
       style="fill:none;stroke:#000000;stroke-width:4.72298145;stroke-linecap:round;stroke-linejoin:round;stroke-miterlimit:4;stroke-dasharray:none;stroke-opacity:1"
       d="m -140.78997,-51.852215 9.86813,-3.68763"
       id="path3573-2"
       inkscape:connector-curvature="0"
       inkscape:path-effect="#path-effect3575-7"
       inkscape:original-d="m -140.78997,-51.852215 c 3.28964,-1.229473 6.57902,-2.458683 9.86813,-3.68763"
       transform="matrix(0,0.52950918,-0.37931402,0,-7.6316,17.165924)" />
    <path
       style="fill:none;stroke:#000000;stroke-width:2.11666656;stroke-linecap:round;stroke-linejoin:round;stroke-miterlimit:4;stroke-dasharray:none;stroke-opacity:1"
       d="m -140.78997,-51.852215 9.86813,-3.68763"
       id="path3573-4"
       inkscape:connector-curvature="0"
       inkscape:path-effect="#path-effect3575-3"
       inkscape:original-d="m -140.78997,-51.852215 c 3.28964,-1.229473 6.57902,-2.458683 9.86813,-3.68763"
       transform="matrix(-1,0,0,1,-60.29133,-1.8438146)" />
    <path
       style="fill:none;stroke:#000000;stroke-width:4.72298145;stroke-linecap:round;stroke-linejoin:round;stroke-miterlimit:4;stroke-dasharray:none;stroke-opacity:1"
       d="m -140.78997,-51.852215 9.86813,-3.68763"
       id="path3573-2-6"
       inkscape:connector-curvature="0"
       inkscape:path-effect="#path-effect3575-7-2"
       inkscape:original-d="m -140.78997,-51.852215 c 3.28964,-1.229473 6.57902,-2.458683 9.86813,-3.68763"
       transform="matrix(0,0.52950917,0.37931402,0,90.29878,17.165921)" />
    <path
       style="opacity:1;fill:#000000;fill-opacity:1;fill-rule:evenodd;stroke:#000000;stroke-width:0.26458329;stroke-linecap:round;stroke-linejoin:round;stroke-miterlimit:4;stroke-dasharray:none;stroke-opacity:1;paint-order:fill markers stroke"
       d="m 6.45536,-129.80508 -3.75843,8.29562 3.67265,1.66346 3.75791,-8.2951 z m 69.756463,0 -3.672128,1.66398 3.757911,8.2951 3.672644,-1.66346 z M 0.26659,-109.22959 v 9.10746 h 4.03179 v -9.10746 z m 78.102206,0 v 9.10746 h 4.031798 v -9.10746 z m -70.058766,24.466207 -3.87677,1.106911 2.50011,8.757086 3.87676,-1.106392 z m 66.047125,0 -2.500104,8.757605 3.876765,1.106392 2.500106,-8.757086 z"
       id="rect3631"
       inkscape:connector-curvature="0" />
    <g
       id="g3709"
       transform="matrix(0.93858039,0,0,1,131.8378,0)"
       style="stroke:#000000;stroke-width:1.03220093;stroke-opacity:1">
      <path
         sodipodi:nodetypes="ccaac"
         inkscape:original-d="m -115.85541,-148.63098 9.28334,-3.77965 c 0,0 0.89145,1.32878 1.52512,1.79036 1.48974,1.08516 3.31326,1.69348 5.105843,2.12191 1.14262,0.27309 1.967449,0.15446 3.514407,0.26524"
         inkscape:path-effect="#path-effect3687"
         inkscape:connector-curvature="0"
         id="path3685"
         d="m -115.85541,-148.63098 9.28334,-3.77965 c 0.40606,0.67472 0.92354,1.2822 1.52512,1.79036 1.42507,1.20378 3.26646,1.8111 5.105843,2.12191 1.160018,0.19601 2.33811,0.28493 3.514407,0.26524"
         style="fill:none;stroke:#000000;stroke-width:1.36551583;stroke-linecap:round;stroke-linejoin:round;stroke-miterlimit:4;stroke-dasharray:none;stroke-opacity:1" />
      <path
         sodipodi:nodetypes="ccaac"
         inkscape:original-d="m -115.85541,-148.63098 9.28334,-3.77965 c 0,0 0.89145,1.32878 1.52512,1.79036 1.48974,1.08516 3.31326,1.69348 5.105843,2.12191 1.14262,0.27309 1.967449,0.15446 3.514407,0.26524"
         inkscape:path-effect="#path-effect3687-8"
         inkscape:connector-curvature="0"
         id="path3685-9"
         d="m -115.85541,-148.63098 9.28334,-3.77965 c 0.40606,0.67472 0.92354,1.2822 1.52512,1.79036 1.42507,1.20378 3.26646,1.8111 5.105843,2.12191 1.160018,0.19601 2.33811,0.28493 3.514407,0.26524"
         style="fill:none;stroke:#000000;stroke-width:1.36551583;stroke-linecap:round;stroke-linejoin:round;stroke-miterlimit:4;stroke-dasharray:none;stroke-opacity:1"
         transform="matrix(-1,0,0,1,-192.8534,0)" />
    </g>
    <path
       style="fill:#ffffff;stroke:#000000;stroke-width:1.32291663;stroke-linecap:round;stroke-linejoin:round;stroke-miterlimit:4;stroke-dasharray:none;stroke-opacity:1"
       d="m 41.33359,-123.57046 c -0.563721,1.66547 -1.296722,3.27343 -2.184331,4.79126 -1.060234,1.81303 -2.341304,3.49691 -3.805474,5.00274 l 5.989805,10.07581 5.98981,-10.07581 c -1.464172,-1.50583 -2.745245,-3.18971 -3.805476,-5.00274 -0.887611,-1.51783 -1.62061,-3.12579 -2.184334,-4.79126 z m -16.050064,17.10276 c -1.884671,0.92713 -3.882351,1.6253 -5.934401,2.07336 -1.71794,0.37512 -3.4737,0.57533 -5.232,0.59686 1.40994,1.0507 2.71266,2.24446 3.88208,3.55756 1.39686,1.568456 2.60257,3.307376 3.58243,5.165076 l 11.43473,-2.58302 z m 32.100132,0 -7.732842,8.809836 11.434259,2.58302 c 0.979853,-1.85769 2.185564,-3.59662 3.582422,-5.165076 1.169421,-1.3131 2.472631,-2.50686 3.882559,-3.55756 -1.758291,-0.0215 -3.514535,-0.22174 -5.232472,-0.59686 -2.052047,-0.44806 -4.049254,-1.14623 -5.933926,-2.07336 z m -21.188113,18.587926 -10.76701,4.6347 c 0.30009,2.07868 0.34748,4.19415 0.14019,6.28413 -0.173539,1.74969 -0.52547,3.48137 -1.047839,5.16027 1.434729,-1.01659 2.97297,-1.88728 4.583049,-2.59411 1.92321,-0.8443 3.94912,-1.45433 6.01872,-1.81274 z m 10.275611,0 1.073375,11.67225 c 2.069592,0.35842 4.095507,0.96844 6.018715,1.81274 1.610077,0.70684 3.147838,1.57753 4.582568,2.59411 -0.522375,-1.6789 -0.873821,-3.41058 -1.047361,-5.16027 -0.207288,-2.08997 -0.159896,-4.20544 0.140194,-6.28413 z"
       id="path3854-8"
       inkscape:connector-curvature="0" />
    <path
       style="fill:none;fill-rule:evenodd;stroke:#000000;stroke-width:2.11666656;stroke-linecap:round;stroke-linejoin:round;stroke-miterlimit:4;stroke-dasharray:none;stroke-opacity:1"
       inkscape:connector-curvature="0"
       d="m 105.89069,-170.95864 -0.29516,94.538477 c -1.43703,37.540968 -29.829639,61.981427 -64.261944,62.002448 -34.4013255,-0.0461 -62.804566,-24.497202 -64.261936,-62.002448 l -0.29516,-94.538477 h 64.555546 z"
       id="path10563-0-6-2-6-6"
       sodipodi:nodetypes="ccccccc" />
    <path
       style="fill:#ffffff;stroke:#000000;stroke-width:5;stroke-linecap:round;stroke-linejoin:round;stroke-miterlimit:4;stroke-dasharray:none;stroke-opacity:1"
       d="M 247.99414 296.50391 C 243.50884 302.0447 237.72056 307.51572 233.11133 313.45703 C 229.29227 318.37981 225.9136 323.63507 222.57031 328.89258 C 218.51949 335.26272 214.42086 341.6356 211.05078 348.39062 C 209.72023 351.0576 208.38498 353.7693 207.63672 356.6543 C 207.14011 358.569 206.53169 360.61576 206.95117 362.54883 C 207.53959 365.26037 209.25415 367.7503 211.25195 369.67578 C 213.86173 372.19106 217.25456 374.03969 220.76367 374.94727 C 229.55922 377.22209 238.77255 378.29387 247.99414 378.25977 C 257.21573 378.29386 266.42906 377.22209 275.22461 374.94727 C 278.73372 374.03969 282.12655 372.19109 284.73633 369.67578 C 286.73413 367.75034 288.44869 365.26037 289.03711 362.54883 C 289.45659 360.61575 288.84817 358.56901 288.35156 356.6543 C 287.6033 353.76931 286.26805 351.05757 284.9375 348.39062 C 281.56742 341.63559 277.46879 335.26271 273.41797 328.89258 C 270.07468 323.63507 266.69601 318.37983 262.87695 313.45703 C 258.26772 307.51573 252.47944 302.04469 247.99414 296.50391 z "
       transform="matrix(0.26458333,0,0,0.26458333,-24.281843,-172.01697)"
       id="path4126" />
    <path
       inkscape:connector-curvature="0"
       style="fill:#ffffff;stroke:#000000;stroke-width:1.32291663;stroke-linecap:round;stroke-linejoin:round;stroke-miterlimit:4;stroke-dasharray:none;stroke-opacity:1"
       d="m 40.16076,-96.198067 c 0.09832,-1.883569 0.486384,-3.954853 0.548937,-5.943423 0.05183,-1.64767 -0.04232,-3.29801 -0.144385,-4.94333 -0.12367,-1.99351 -0.237528,-3.99505 -0.566766,-5.96508 -0.129986,-0.7778 -0.265928,-1.56589 -0.55446,-2.29979 -0.191491,-0.48707 -0.379588,-1.01979 -0.770018,-1.36831 -0.547667,-0.48888 -1.301917,-0.75519 -2.029002,-0.85662 -0.949807,-0.13249 -1.963536,-5e-4 -2.855806,0.35099 -2.236442,0.88104 -4.375212,2.08455 -6.343753,3.52605 -1.979134,1.42693 -3.784527,3.08925 -5.313389,4.9441 -0.609951,0.74004 -1.04867,1.66339 -1.216083,2.60768 -0.128163,0.72284 -0.107896,1.52247 0.187877,2.19438 0.210859,0.47901 0.659409,0.82248 1.063497,1.15508 0.608855,0.50114 1.316409,0.87391 2.01599,1.23783 1.771944,0.92175 3.640395,1.648387 5.498186,2.381875 1.533302,0.605376 3.073825,1.204765 4.656908,1.664502 1.910621,0.554851 4.00047,0.825666 5.822273,1.314063 z"
       id="path4126-7" />
    <path
       inkscape:connector-curvature="0"
       style="fill:#ffffff;stroke:#000000;stroke-width:1.32291663;stroke-linecap:round;stroke-linejoin:round;stroke-miterlimit:4;stroke-dasharray:none;stroke-opacity:1"
       d="m 42.660539,-94.530765 c 1.760944,-0.6757 3.610851,-1.68498 5.482712,-2.35913 1.550969,-0.55857 3.149591,-0.97915 4.745892,-1.39064 1.934118,-0.49857 3.872839,-1.00894 5.848163,-1.30475 0.779886,-0.11679 1.571406,-0.2311 2.358547,-0.18354 0.52241,0.0316 1.08719,0.0458 1.539321,0.30937 0.634222,0.36974 1.120619,1.00474 1.441818,1.66488 0.419585,0.86234 0.607395,1.86722 0.548911,2.82444 -0.146624,2.39925 -0.63012,4.80529 -1.392571,7.12299 -0.745314,2.32328 -1.768198,4.55408 -3.059663,6.5814 -0.515262,0.80882 -1.257797,1.51146 -2.104094,1.96254 -0.647835,0.34532 -1.414575,0.57321 -2.145004,0.4996 -0.520727,-0.0525 -0.98602,-0.37289 -1.427233,-0.65439 -0.664798,-0.42414 -1.238013,-0.98182 -1.800342,-1.53467 -1.424309,-1.40026 -2.692896,-2.95262 -3.964697,-4.49272 -1.049666,-1.2711 -2.09587,-2.55092 -3.022416,-3.91438 -1.118242,-1.64556 -2.021754,-3.54936 -3.049344,-5.131 z"
       id="path4126-12-4" />
    <path
       inkscape:connector-curvature="0"
       style="fill:#ffffff;stroke:#000000;stroke-width:1.32291663;stroke-linecap:round;stroke-linejoin:round;stroke-miterlimit:4;stroke-dasharray:none;stroke-opacity:1"
       d="m 42.506152,-96.198078 c -0.09832,-1.88357 -0.486384,-3.954852 -0.548937,-5.943422 -0.05183,-1.64767 0.04232,-3.29801 0.144385,-4.94333 0.12367,-1.99351 0.237528,-3.99505 0.566766,-5.96508 0.129986,-0.7778 0.265928,-1.56589 0.55446,-2.29979 0.191491,-0.48707 0.379588,-1.01979 0.770018,-1.36831 0.547667,-0.48888 1.301917,-0.75519 2.029002,-0.85662 0.949807,-0.13249 1.963536,-5e-4 2.855805,0.35099 2.236442,0.88104 4.375212,2.08455 6.343753,3.52605 1.979134,1.42693 3.784527,3.08925 5.313389,4.9441 0.609951,0.74004 1.04867,1.66339 1.216083,2.60768 0.128163,0.72284 0.107896,1.52247 -0.187877,2.19438 -0.210859,0.47901 -0.659409,0.82248 -1.063497,1.15508 -0.608855,0.50114 -1.316409,0.87391 -2.01599,1.23783 -1.771944,0.92175 -3.640395,1.648392 -5.498186,2.381882 -1.533302,0.60537 -3.073825,1.20476 -4.656908,1.6645 -1.91062,0.55485 -4.000469,0.82566 -5.822272,1.31406 z"
       id="path4126-7-2" />
    <path
       inkscape:connector-curvature="0"
       style="fill:#ffffff;stroke:#000000;stroke-width:1.32291663;stroke-linecap:round;stroke-linejoin:round;stroke-miterlimit:4;stroke-dasharray:none;stroke-opacity:1"
       d="m 40.00641,-94.530764 c -1.760944,-0.675703 -3.610851,-1.684986 -5.482712,-2.359132 -1.550969,-0.558573 -3.149591,-0.979149 -4.745892,-1.390638 -1.934118,-0.498571 -3.872839,-1.008949 -5.848163,-1.304755 -0.779886,-0.116786 -1.571406,-0.2311 -2.358547,-0.18354 -0.52241,0.03156 -1.08719,0.04579 -1.539321,0.309372 -0.634222,0.36974 -1.120619,1.004743 -1.441818,1.664874 -0.419585,0.862343 -0.607395,1.867229 -0.548911,2.824448 0.146624,2.399251 0.63012,4.805285 1.392571,7.122991 0.745314,2.323272 1.768198,4.554071 3.059663,6.581391 0.515262,0.808823 1.257797,1.511462 2.104094,1.962549 0.647835,0.345314 1.414575,0.573202 2.145004,0.499598 0.520727,-0.05247 0.98602,-0.372896 1.427233,-0.654392 0.664798,-0.424141 1.238013,-0.981825 1.800342,-1.534666 1.424309,-1.400267 2.692896,-2.952623 3.964697,-4.492724 1.049666,-1.271101 2.09587,-2.550919 3.022416,-3.91438 1.118242,-1.645559 2.021754,-3.549365 3.049344,-5.130996 z"
       id="path4126-12" />
    <g
       id="g4124"
       style="fill:#ffffff;stroke:#000000;stroke-opacity:1">
      <path
         id="path3924-7"
         d="m 37.796988,-92.05077 3.53622,12.19253 3.536736,-12.19253 -3.536736,0.27956 z"
         style="fill:#ffffff;stroke:#000000;stroke-width:1.32291663;stroke-linecap:round;stroke-linejoin:round;stroke-miterlimit:4;stroke-dasharray:none;stroke-opacity:1"
         inkscape:connector-curvature="0" />
      <path
         id="path3924-1-3"
         d="m 37.477668,-97.42178 -10.50329,7.13049 12.688726,-0.40363 -1.358686,-3.27729 z"
         style="fill:#ffffff;stroke:#000000;stroke-width:1.32291663;stroke-linecap:round;stroke-linejoin:round;stroke-miterlimit:4;stroke-dasharray:none;stroke-opacity:1"
         inkscape:connector-curvature="0" />
      <path
         id="path3924-1-8-7"
         d="m 45.189105,-97.42178 10.503291,7.13049 -12.688727,-0.40363 1.358687,-3.27729 z"
         style="fill:#ffffff;stroke:#000000;stroke-width:1.32291663;stroke-linecap:round;stroke-linejoin:round;stroke-miterlimit:4;stroke-dasharray:none;stroke-opacity:1"
         inkscape:connector-curvature="0" />
      <path
         id="path3924-9-2"
         d="m 42.486611,-99.38515 -10.027953,-7.7848 4.30608,11.94254 2.696802,-2.30519 z"
         style="fill:#ffffff;stroke:#000000;stroke-width:1.32291663;stroke-linecap:round;stroke-linejoin:round;stroke-miterlimit:4;stroke-dasharray:none;stroke-opacity:1"
         inkscape:connector-curvature="0" />
      <path
         id="path3924-9-4-3"
         d="m 40.180767,-99.38515 10.027954,-7.7848 -4.306081,11.94254 -2.696801,-2.30519 z"
         style="fill:#ffffff;stroke:#000000;stroke-width:1.32291663;stroke-linecap:round;stroke-linejoin:round;stroke-miterlimit:4;stroke-dasharray:none;stroke-opacity:1"
         inkscape:connector-curvature="0" />
    </g>
    <g
       id="g4173-1-5"
       transform="matrix(-0.30897998,0.95106854,0.95106854,0.30897998,-37.918071,27.647427)"
       style="stroke:#ea4300;stroke-opacity:1" />
    <g
       transform="translate(0.41561024)"
       id="g4179"
       style="stroke:#ea43e7;stroke-width:0.92961311;stroke-opacity:1">
      <g
         id="g4173"
         transform="translate(0.13380892)"
         style="stroke:#ea43e7;stroke-opacity:1">
        <g
           id="g4451"
           transform="matrix(1.1571656,0,0,1,15.172483,0)"
           style="stroke:#ea43e7;stroke-width:0.92961311;stroke-opacity:1">
          <g
             id="g4444"
             style="stroke:#ea43e7;stroke-width:0.92961311;stroke-opacity:1" />
        </g>
      </g>
    </g>
    <path
       transform="matrix(1.1571656,0,0,1,154.80775,-1.2071941e-6)"
       sodipodi:nodetypes="caac"
       inkscape:original-d="m -98.062272,-76.159779 c -0.937057,0.222906 -2.005918,0.308204 -2.945868,0.669515 -0.59687,0.229436 -1.1804,0.530532 -1.67378,0.937318 -0.5865,0.483558 -0.98179,1.160251 -1.47308,1.740773"
       inkscape:path-effect="#path-effect4151-5"
       inkscape:connector-curvature="0"
       id="path4149"
       d="m -98.062272,-76.159779 c -1.009379,0.06322 -2.008318,0.290252 -2.945868,0.669515 -0.59469,0.240565 -1.16725,0.543681 -1.67378,0.937318 -0.60455,0.46981 -1.10976,1.06683 -1.47308,1.740773"
       style="fill:none;stroke:#000000;stroke-width:0.73788041;stroke-linecap:round;stroke-linejoin:round;stroke-miterlimit:4;stroke-dasharray:none;stroke-opacity:1" />
    <path
       sodipodi:nodetypes="caac"
       inkscape:original-d="m -98.062272,-76.159779 c -0.937057,0.222906 -2.005918,0.308204 -2.945868,0.669515 -0.59687,0.229436 -1.1804,0.530532 -1.67378,0.937318 -0.5865,0.483558 -0.98179,1.160251 -1.47308,1.740773"
       inkscape:path-effect="#path-effect4151-4-882"
       inkscape:connector-curvature="0"
       id="path4149-8"
       d="m -98.062272,-76.159779 c -1.009379,0.06322 -2.008318,0.290252 -2.945868,0.669515 -0.59469,0.240565 -1.16725,0.543681 -1.67378,0.937318 -0.60455,0.46981 -1.10976,1.06683 -1.47308,1.740773"
       style="fill:none;stroke:#000000;stroke-width:0.73788041;stroke-linecap:round;stroke-linejoin:round;stroke-miterlimit:4;stroke-dasharray:none;stroke-opacity:1"
       transform="matrix(-1.1571656,0,0,1,-72.14082,-1.2071941e-6)" />
    <path
       transform="matrix(0.35748945,1.1005605,-0.95108302,0.30893543,-13.92135,42.302727)"
       sodipodi:nodetypes="caac"
       inkscape:original-d="m -98.062272,-76.159779 c -0.937057,0.222906 -2.005918,0.308204 -2.945868,0.669515 -0.59687,0.229436 -1.1804,0.530532 -1.67378,0.937318 -0.5865,0.483558 -0.98179,1.160251 -1.47308,1.740773"
       inkscape:path-effect="#path-effect4151-03-1"
       inkscape:connector-curvature="0"
       id="path4149-7"
       d="m -98.062272,-76.159779 c -1.009379,0.06322 -2.008318,0.290252 -2.945868,0.669515 -0.59469,0.240565 -1.16725,0.543681 -1.67378,0.937318 -0.60455,0.46981 -1.10976,1.06683 -1.47308,1.740773"
       style="fill:none;stroke:#000000;stroke-width:0.73788041;stroke-linecap:round;stroke-linejoin:round;stroke-miterlimit:4;stroke-dasharray:none;stroke-opacity:1" />
    <path
       sodipodi:nodetypes="caac"
       inkscape:original-d="m -98.062272,-76.159779 c -0.937057,0.222906 -2.005918,0.308204 -2.945868,0.669515 -0.59687,0.229436 -1.1804,0.530532 -1.67378,0.937318 -0.5865,0.483558 -0.98179,1.160251 -1.47308,1.740773"
       inkscape:path-effect="#path-effect4151-4-4-27"
       inkscape:connector-curvature="0"
       id="path4149-8-1"
       d="m -98.062272,-76.159779 c -1.009379,0.06322 -2.008318,0.290252 -2.945868,0.669515 -0.59469,0.240565 -1.16725,0.543681 -1.67378,0.937318 -0.60455,0.46981 -1.10976,1.06683 -1.47308,1.740773"
       style="fill:none;stroke:#000000;stroke-width:0.73788041;stroke-linecap:round;stroke-linejoin:round;stroke-miterlimit:4;stroke-dasharray:none;stroke-opacity:1"
       transform="matrix(-0.35748945,-1.1005605,-0.95108302,0.30893543,-84.03381,-173.54421)" />
    <path
       transform="matrix(-0.35748946,1.1005605,0.95108301,0.30893544,96.588303,42.302728)"
       sodipodi:nodetypes="caac"
       inkscape:original-d="m -98.062272,-76.159779 c -0.937057,0.222906 -2.005918,0.308204 -2.945868,0.669515 -0.59687,0.229436 -1.1804,0.530532 -1.67378,0.937318 -0.5865,0.483558 -0.98179,1.160251 -1.47308,1.740773"
       inkscape:path-effect="#path-effect4151-03-2-2"
       inkscape:connector-curvature="0"
       id="path4149-7-2"
       d="m -98.062272,-76.159779 c -1.009379,0.06322 -2.008318,0.290252 -2.945868,0.669515 -0.59469,0.240565 -1.16725,0.543681 -1.67378,0.937318 -0.60455,0.46981 -1.10976,1.06683 -1.47308,1.740773"
       style="fill:none;stroke:#000000;stroke-width:0.73788041;stroke-linecap:round;stroke-linejoin:round;stroke-miterlimit:4;stroke-dasharray:none;stroke-opacity:1" />
    <path
       sodipodi:nodetypes="caac"
       inkscape:original-d="m -98.062272,-76.159779 c -0.937057,0.222906 -2.005918,0.308204 -2.945868,0.669515 -0.59687,0.229436 -1.1804,0.530532 -1.67378,0.937318 -0.5865,0.483558 -0.98179,1.160251 -1.47308,1.740773"
       inkscape:path-effect="#path-effect4151-4-4-2-4"
       inkscape:connector-curvature="0"
       id="path4149-8-1-3"
       d="m -98.062272,-76.159779 c -1.009379,0.06322 -2.008318,0.290252 -2.945868,0.669515 -0.59469,0.240565 -1.16725,0.543681 -1.67378,0.937318 -0.60455,0.46981 -1.10976,1.06683 -1.47308,1.740773"
       style="fill:none;stroke:#000000;stroke-width:0.73788041;stroke-linecap:round;stroke-linejoin:round;stroke-miterlimit:4;stroke-dasharray:none;stroke-opacity:1"
       transform="matrix(0.35748946,-1.1005605,0.95108301,0.30893544,166.70076,-173.5442)" />
    <path
       transform="matrix(-0.93622053,0.68009069,-0.58772115,-0.80906357,-106.28212,-105.09023)"
       sodipodi:nodetypes="caac"
       inkscape:original-d="m -98.062272,-76.159779 c -0.937057,0.222906 -2.005918,0.308204 -2.945868,0.669515 -0.59687,0.229436 -1.1804,0.530532 -1.67378,0.937318 -0.5865,0.483558 -0.98179,1.160251 -1.47308,1.740773"
       inkscape:path-effect="#path-effect4151-8-1"
       inkscape:connector-curvature="0"
       id="path4149-0"
       d="m -98.062272,-76.159779 c -1.009379,0.06322 -2.008318,0.290252 -2.945868,0.669515 -0.59469,0.240565 -1.16725,0.543681 -1.67378,0.937318 -0.60455,0.46981 -1.10976,1.06683 -1.47308,1.740773"
       style="fill:none;stroke:#000000;stroke-width:0.73788041;stroke-linecap:round;stroke-linejoin:round;stroke-miterlimit:4;stroke-dasharray:none;stroke-opacity:1" />
    <path
       sodipodi:nodetypes="caac"
       inkscape:original-d="m -98.062272,-76.159779 c -0.937057,0.222906 -2.005918,0.308204 -2.945868,0.669515 -0.59687,0.229436 -1.1804,0.530532 -1.67378,0.937318 -0.5865,0.483558 -0.98179,1.160251 -1.47308,1.740773"
       inkscape:path-effect="#path-effect4151-4-9-4"
       inkscape:connector-curvature="0"
       id="path4149-8-2"
       d="m -98.062272,-76.159779 c -1.009379,0.06322 -2.008318,0.290252 -2.945868,0.669515 -0.59469,0.240565 -1.16725,0.543681 -1.67378,0.937318 -0.60455,0.46981 -1.10976,1.06683 -1.47308,1.740773"
       style="fill:none;stroke:#000000;stroke-width:0.73788041;stroke-linecap:round;stroke-linejoin:round;stroke-miterlimit:4;stroke-dasharray:none;stroke-opacity:1"
       transform="matrix(0.93622053,-0.68009069,-0.58772115,-0.80906357,77.333706,-238.4727)" />
    <path
       transform="matrix(0.93622053,0.6800907,0.58772115,-0.80906357,188.94903,-105.09022)"
       sodipodi:nodetypes="caac"
       inkscape:original-d="m -98.062272,-76.159779 c -0.937057,0.222906 -2.005918,0.308204 -2.945868,0.669515 -0.59687,0.229436 -1.1804,0.530532 -1.67378,0.937318 -0.5865,0.483558 -0.98179,1.160251 -1.47308,1.740773"
       inkscape:path-effect="#path-effect4151-8-5-8"
       inkscape:connector-curvature="0"
       id="path4149-0-8"
       d="m -98.062272,-76.159779 c -1.009379,0.06322 -2.008318,0.290252 -2.945868,0.669515 -0.59469,0.240565 -1.16725,0.543681 -1.67378,0.937318 -0.60455,0.46981 -1.10976,1.06683 -1.47308,1.740773"
       style="fill:none;stroke:#000000;stroke-width:0.73788041;stroke-linecap:round;stroke-linejoin:round;stroke-miterlimit:4;stroke-dasharray:none;stroke-opacity:1" />
    <path
       sodipodi:nodetypes="caac"
       inkscape:original-d="m -98.062272,-76.159779 c -0.937057,0.222906 -2.005918,0.308204 -2.945868,0.669515 -0.59687,0.229436 -1.1804,0.530532 -1.67378,0.937318 -0.5865,0.483558 -0.98179,1.160251 -1.47308,1.740773"
       inkscape:path-effect="#path-effect4151-4-9-8-6"
       inkscape:connector-curvature="0"
       id="path4149-8-2-7"
       d="m -98.062272,-76.159779 c -1.009379,0.06322 -2.008318,0.290252 -2.945868,0.669515 -0.59469,0.240565 -1.16725,0.543681 -1.67378,0.937318 -0.60455,0.46981 -1.10976,1.06683 -1.47308,1.740773"
       style="fill:none;stroke:#000000;stroke-width:0.73788041;stroke-linecap:round;stroke-linejoin:round;stroke-miterlimit:4;stroke-dasharray:none;stroke-opacity:1"
       transform="matrix(-0.93622053,-0.6800907,0.58772115,-0.80906357,5.3332,-238.4727)" />
    <ellipse
       style="opacity:1;fill:#009aff;fill-opacity:1;fill-rule:evenodd;stroke:#000000;stroke-width:1.32299995;stroke-linecap:round;stroke-linejoin:round;stroke-miterlimit:4;stroke-dasharray:none;stroke-opacity:1;paint-order:fill markers stroke"
       id="path3711-0-3"
       cx="41.333466"
       cy="-94.956017"
       rx="5.0167832"
       ry="5.0163736" />
  </g>
</svg>
