<svg xmlns="http://www.w3.org/2000/svg" width="701.33" height="741.77" viewBox="0 0 701.33404 741.76859" xmlns:xlink="http://www.w3.org/1999/xlink"><defs><path id="0" d="m-509.27 70c-4.384-.019-8.781.804-12.914 2.343-12.778 4.759-22.667 16.14-27.969 29.17-5.33 13.09-6.398 27.872-3.948 41.863 1.89 10.794 5.902 21.31 12.505 29.851 6.274 8.116 14.836 14.294 24.348 17.499 7.604 2.562 15.741 3.233 23.692 2.402 6.08-.636 12.08-2.141 17.767-4.461 5.692 2.32 11.687 3.825 17.767 4.461 7.951.831 16.09.16 23.692-2.402 9.512-3.205 18.07-9.383 24.348-17.499 6.603-8.542 10.613-19.06 12.503-29.851 2.449-13.99 1.381-28.772-3.948-41.863-5.302-13.02-15.189-24.409-27.967-29.17-6.613-2.463-13.905-3.093-20.731-1.372-6.04 1.524-11.612 4.849-17.767 5.833-5.198.831-10.595.831-15.793 0-6.156-.985-11.725-4.309-17.769-5.833-2.559-.645-5.184-.959-7.814-.97z" stroke-width="11" stroke-linejoin="round" stroke="#000" fill-rule="evenodd" fill="#f00"/></defs><g transform="translate(-30.3-8.122)"><g fill-rule="evenodd"><path d="m35.983 13.622l13.398 416.62c7.415 175.25 153.92 314.05 331.59 314.14 177.51-.215 324.07-139.06 331.59-314.14l13.398-416.62h-344.98z" fill="#fff"/><path d="m350.67 165.52l-14.07.936c1.764 36.773 2.768 73.58 3.01 110.38.149 22.332.008 44.663-.346 66.99-2.424-5.548-5.163-10.958-8.229-16.18-7.01-11.948-15.683-22.96-25.869-32.34 3.996-2.724 7.759-5.79 11.219-9.17 4.405-4.304 8.417-9.263 10.256-15.14 1.917-6.127 1.323-12.763 0-19.04-3.03-14.362-9.875-27.977-20.02-38.58-12.217-12.763-28.557-20.704-44.928-27.348-12.79-5.19-25.833-9.756-39.07-13.674 9.09 8.563 17.288 18.07 24.418 28.324 9.179 13.197 16.599 27.661 21.488 42.975 3.149 9.863 5.234 20.06 6.232 30.369-10.375-5.677-21.25-10.551-32.12-15.23-13.744-5.919-27.583-11.617-41.51-17.09l-14.164 16.12c17.655 4.129 34.773 10.55 50.789 19.05 12.147 6.445 23.673 14.09 34.19 22.953 2.921 2.463 5.758 5.03 8.514 7.674-4.139-.298-8.278-.581-12.42-.838-8.09-.502-16.535-.866-23.93 2.441-6.805 3.044-11.944 8.873-16.301 14.922-4.357 6.05-8.206 12.54-13.49 17.799-5.222 5.197-11.702 9.02-18.557 11.721-8.825 3.476-18.355 5.147-27.836 4.883 6.256 6.735 13.975 12.1 22.465 15.627 12.717 5.278 27.08 6.329 40.533 3.418 15.442-3.34 29.29-11.584 43.46-18.557 5.79-2.847 11.696-5.508 17.12-8.994 5.274-3.387 10.121-7.641 13.348-13.01.427.657.853 1.313 1.27 1.977 6.866 10.926 12.381 22.661 17.09 34.674 5.453 13.898 9.845 28.18 14.195 42.465-.349 10.186-.718 20.372-1.127 30.557-2.939-4.531-6.48-8.668-10.563-12.207-12.358-10.716-28.907-15.987-40.4-27.625-8.484-8.592-13.634-20.397-14.158-32.461-6.935 12.168-11.316 25.784-12.777 39.713-1.291 12.3-.289 24.932 3.799 36.604 4.479 12.789 12.648 24.23 23.14 32.805 6.844 5.597 14.803 10.05 23.48 11.74 8.549 1.665 17.602.48 25.494-3.188-1.454 30.892-3.038 61.777-4.742 92.66-1.249 22.639-1.888 45.33-4.02 67.902-1.024 10.851-4.211 32.426-4.211 32.426 0 0 13.337-15.741 21.984-21.05 9.774-5.998 32.467-11.379 32.467-11.379h.002c-1.356-24.633-2.694-43.27-4.02-67.902-1.659-30.878-3.288-61.763-4.742-92.65 7.892 3.667 16.944 4.851 25.492 3.186 8.678-1.69 16.637-6.143 23.48-11.74 10.489-8.578 18.658-20.02 23.14-32.805 4.088-11.672 5.089-24.304 3.799-36.604-1.462-13.928-5.843-27.545-12.777-39.713-.525 12.06-5.674 23.869-14.158 32.461-11.493 11.638-28.04 16.909-40.4 27.625-4.081 3.539-7.622 7.675-10.561 12.205-.409-10.186-.778-20.373-1.127-30.561 4.35-14.28 8.742-28.563 14.193-42.46 4.713-12.01 10.228-23.747 17.09-34.674.417-.664.843-1.319 1.27-1.977 3.226 5.365 8.07 9.619 13.348 13.01 5.429 3.486 11.335 6.147 17.12 8.994 14.178 6.973 28.02 15.216 43.46 18.557 13.458 2.911 27.816 1.86 40.533-3.418 8.49-3.523 16.209-8.892 22.465-15.627-9.481.265-19.01-1.407-27.836-4.883-6.855-2.7-13.335-6.524-18.557-11.721-5.284-5.259-9.133-11.75-13.49-17.799-4.357-6.05-9.496-11.878-16.301-14.922-7.395-3.308-15.844-2.944-23.93-2.441-4.142.257-8.281.54-12.42.838 2.756-2.648 5.593-5.211 8.514-7.674 10.513-8.864 22.04-16.509 34.19-22.953 16.02-8.497 33.13-14.918 50.789-19.05l-14.164-16.12c-13.927 5.474-27.766 11.172-41.51 17.09-10.865 4.679-21.74 9.553-32.12 15.23.998-10.305 3.083-20.506 6.232-30.369 4.889-15.314 12.309-29.777 21.488-42.975 7.13-10.252 15.328-19.761 24.418-28.324-13.235 3.918-26.28 8.483-39.07 13.674-16.371 6.644-32.711 14.585-44.928 27.348-10.149 10.603-16.998 24.22-20.02 38.58-1.323 6.282-1.917 12.918 0 19.04 1.839 5.878 5.85 10.837 10.256 15.14 3.46 3.38 7.222 6.446 11.219 9.17-10.186 9.38-18.856 20.392-25.869 32.34-3.064 5.22-5.803 10.628-8.227 16.17-.353-22.326-.494-44.654-.346-66.984.245-36.809 1.249-73.61 3.01-110.38z" transform="translate(30.3 8.122)" fill="#090" stroke="#000" stroke-linejoin="round" stroke-width="8"/><path d="m299.32 208.8c4.21 6.092 8.279 12.281 12.207 18.559 7.988 12.766 15.57 26.486 16.605 41.51.674 9.789-1.561 19.76-6.35 28.324l5.861 3.418c6.123-10.188 8.901-22.349 7.813-34.19-1.341-14.58-8.364-28.18-17.58-39.557-5.447-6.724-11.69-12.802-18.557-18.07m163.29 0c-6.867 5.266-13.11 11.344-18.557 18.07-9.217 11.377-16.239 24.977-17.58 39.557-1.089 11.836 1.69 23.998 7.813 34.19l5.861-3.418c-4.788-8.564-7.02-18.535-6.35-28.324 1.035-15.02 8.617-28.744 16.605-41.51 3.928-6.277 7.997-12.467 12.207-18.559m-149.85 123.32c-1.553.024-3.106.1-4.654.23-8.899.748-17.696 3.287-25.395 7.814-7.723 4.542-14.167 10.947-21.486 16.12-8.631 6.094-18.491 10.439-28.813 12.697 10.499 2.274 21.789.687 31.25-4.395 9.723-5.221 17.364-13.854 27.348-18.559 6.706-3.16 14.14-4.386 21.488-5.371 5.845-.783 11.706-1.434 17.58-1.953l-3.418-5.373c-4.577-.876-9.245-1.279-13.904-1.207m136.41 0c-4.66-.072-9.327.331-13.904 1.207l-3.418 5.373c5.874.519 11.736 1.17 17.58 1.953 7.348.985 14.782 2.211 21.488 5.371 9.983 4.704 17.624 13.338 27.348 18.559 9.465 5.082 20.755 6.669 31.25 4.395-10.321-2.258-20.18-6.604-28.813-12.697-7.32-5.168-13.763-11.573-21.486-16.12-7.698-4.528-16.495-7.07-25.395-7.814-1.548-.13-3.101-.206-4.654-.23m-144.59 87.92c-.611 11.08 2.605 22.338 8.979 31.424 6.973 9.941 17.262 16.962 27.28 23.826 8.666 5.938 17.299 11.924 25.898 17.957l6.217-10.01c-10.06-4.277-19.767-9.364-29.01-15.195-11.315-7.14-22.1-15.575-29.697-26.588-4.471-6.48-7.763-13.771-9.668-21.41m152.77 0c-1.905 7.639-5.197 14.93-9.668 21.41-7.598 11.01-18.382 19.448-29.697 26.588-9.241 5.831-18.953 10.919-29.01 15.195l6.217 10.01c8.6-6.03 17.233-12.02 25.898-17.957 10.02-6.864 20.306-13.885 27.28-23.826 6.373-9.09 9.589-20.342 8.979-31.424"/><path d="m35.983 13.622l13.398 416.62c7.415 175.25 153.92 314.05 331.59 314.14 177.51-.215 324.07-139.06 331.59-314.14l13.398-416.62h-344.98z" fill="none" stroke="#000" stroke-width="11"/></g><g transform="translate(856.76)"><use xlink:href="#0"/><path d="m-477.36 56.26l-15.06 1.246 13.572 32.746 1.492-33.992m3.143 0l1.492 33.992 13.572-32.746-15.06-1.246m-22.26 2.1l-12.471 5.24 24.305 25.2-11.834-30.436m41.38 0l-11.834 30.436 24.305-25.2-12.471-5.24m-.15039 27.27148a21.393803 11.225143 0 0 1 -20.53711 8.113282 21.393803 11.225143 0 0 1 -20.53906 -8.101563 21.393803 11.225143 0 0 0 -.85547 3.111328 21.393803 11.225143 0 0 0 21.39453 11.226563 21.393803 11.225143 0 0 0 21.39258 -11.226563 21.393803 11.225143 0 0 0 -.85547 -3.123047" id="1"/></g><g transform="translate(851.26)"><g transform="matrix(0-1 1 0-787.73-217.82)"><use xlink:href="#0"/><use id="2" xlink:href="#1"/></g><g transform="matrix(0-1-1 0-152.86-217.82)"><use xlink:href="#0"/><use xlink:href="#2"/></g></g></g></svg>