<?xml version="1.0" encoding="UTF-8" standalone="no"?>
<!-- Created with Inkscape (http://www.inkscape.org/) -->

<svg
   xmlns:dc="http://purl.org/dc/elements/1.1/"
   xmlns:cc="http://creativecommons.org/ns#"
   xmlns:rdf="http://www.w3.org/1999/02/22-rdf-syntax-ns#"
   xmlns:svg="http://www.w3.org/2000/svg"
   xmlns="http://www.w3.org/2000/svg"
   xmlns:sodipodi="http://sodipodi.sourceforge.net/DTD/sodipodi-0.dtd"
   xmlns:inkscape="http://www.inkscape.org/namespaces/inkscape"
   width="719.28125"
   height="825.59375"
   id="svg2"
   sodipodi:version="0.32"
   inkscape:version="0.48.2 r9819"
   sodipodi:docname="Gemeindewappen Siershahn.svg"
   inkscape:output_extension="org.inkscape.output.svg.inkscape"
   version="1.0"
   style="display:inline">
  <defs
     id="defs4">
    <inkscape:perspective
       sodipodi:type="inkscape:persp3d"
       inkscape:vp_x="0 : 526.18109 : 1"
       inkscape:vp_y="0 : 1000 : 0"
       inkscape:vp_z="744.09448 : 526.18109 : 1"
       inkscape:persp3d-origin="372.04724 : 350.78739 : 1"
       id="perspective10" />
    <inkscape:perspective
       id="perspective2447"
       inkscape:persp3d-origin="372.04724 : 350.78739 : 1"
       inkscape:vp_z="744.09448 : 526.18109 : 1"
       inkscape:vp_y="0 : 1000 : 0"
       inkscape:vp_x="0 : 526.18109 : 1"
       sodipodi:type="inkscape:persp3d" />
    <inkscape:perspective
       id="perspective4411"
       inkscape:persp3d-origin="372.04724 : 350.78739 : 1"
       inkscape:vp_z="744.09448 : 526.18109 : 1"
       inkscape:vp_y="0 : 1000 : 0"
       inkscape:vp_x="0 : 526.18109 : 1"
       sodipodi:type="inkscape:persp3d" />
    <inkscape:perspective
       sodipodi:type="inkscape:persp3d"
       inkscape:vp_x="0 : 526.18109 : 1"
       inkscape:vp_y="0 : 1000 : 0"
       inkscape:vp_z="744.09448 : 526.18109 : 1"
       inkscape:persp3d-origin="372.04724 : 350.78739 : 1"
       id="perspective2393" />
    <inkscape:perspective
       sodipodi:type="inkscape:persp3d"
       inkscape:vp_x="0 : 526.18109 : 1"
       inkscape:vp_y="0 : 1000 : 0"
       inkscape:vp_z="744.09448 : 526.18109 : 1"
       inkscape:persp3d-origin="372.04724 : 350.78739 : 1"
       id="perspective2468" />
    <metadata
       id="CorelCorpID_0Corel-Layer" />
    <clipPath
       id="id0">
      <rect
         id="rect9"
         height="225.129"
         width="179.897"
         y="0"
         x="0" />
    </clipPath>
    <style
       id="style6"
       type="text/css">
   
    .str0 {stroke:#1F1A17;stroke-width:0.0762;stroke-linecap:round;stroke-linejoin:round}
    .str7 {stroke:#0A0B0C;stroke-linecap:round;stroke-linejoin:round}
    .str6 {stroke:#1F1A17;stroke-linecap:round}
    .str5 {stroke:#1F1A17;stroke-linecap:round;stroke-linejoin:round}
    .str4 {stroke:#1F1A17;stroke-linecap:round;stroke-linejoin:round}
    .str2 {stroke:#1F1A17;stroke-width:2;stroke-linejoin:round}
    .str1 {stroke:#0A0B0C;stroke-width:2.5;stroke-linecap:round;stroke-linejoin:round}
    .str3 {stroke:#1F1A17;stroke-width:2.5}
    .fil3 {fill:none}
    .fil1 {fill:#00923F}
    .fil5 {fill:#1F1A17}
    .fil2 {fill:white}
    .fil4 {fill:blue}
    .fil0 {fill:#FFCC00}
   
  </style>
    <inkscape:perspective
       id="perspective48"
       inkscape:persp3d-origin="372.04724 : 350.78739 : 1"
       inkscape:vp_z="744.09448 : 526.18109 : 1"
       inkscape:vp_y="0 : 1000 : 0"
       inkscape:vp_x="0 : 526.18109 : 1"
       sodipodi:type="inkscape:persp3d" />
    <inkscape:perspective
       id="perspective2483"
       inkscape:persp3d-origin="372.04724 : 350.78739 : 1"
       inkscape:vp_z="744.09448 : 526.18109 : 1"
       inkscape:vp_y="0 : 1000 : 0"
       inkscape:vp_x="0 : 526.18109 : 1"
       sodipodi:type="inkscape:persp3d" />
    <inkscape:perspective
       id="perspective2502"
       inkscape:persp3d-origin="372.04724 : 350.78739 : 1"
       inkscape:vp_z="744.09448 : 526.18109 : 1"
       inkscape:vp_y="0 : 1000 : 0"
       inkscape:vp_x="0 : 526.18109 : 1"
       sodipodi:type="inkscape:persp3d" />
    <inkscape:perspective
       id="perspective2480"
       inkscape:persp3d-origin="372.04724 : 350.78739 : 1"
       inkscape:vp_z="744.09448 : 526.18109 : 1"
       inkscape:vp_y="0 : 1000 : 0"
       inkscape:vp_x="0 : 526.18109 : 1"
       sodipodi:type="inkscape:persp3d" />
    <inkscape:perspective
       id="perspective3328"
       inkscape:persp3d-origin="372.04724 : 350.78739 : 1"
       inkscape:vp_z="744.09448 : 526.18109 : 1"
       inkscape:vp_y="0 : 1000 : 0"
       inkscape:vp_x="0 : 526.18109 : 1"
       sodipodi:type="inkscape:persp3d" />
    <inkscape:perspective
       id="perspective2531"
       inkscape:persp3d-origin="372.04724 : 350.78739 : 1"
       inkscape:vp_z="744.09448 : 526.18109 : 1"
       inkscape:vp_y="0 : 1000 : 0"
       inkscape:vp_x="0 : 526.18109 : 1"
       sodipodi:type="inkscape:persp3d" />
    <style
       id="style15"
       type="text/css">
  .Rand2 { stroke: #202020; stroke-width:30; }
  .Rand4 { stroke: #202020; stroke-width:60; }
  .Rand6 { stroke: #202020; stroke-width:90; }
  .Gold4 { stroke: #ffef00; stroke-width:60; }
  .Schwarz { fill: #000000; }
  .Blau { fill: #0000ff; }
  .Gold { fill: #ffef00; }
  .Silber { fill: #ffffff; }
  </style>
    <clipPath
       id="clippath">
      <path
         id="path13"
         d="m 360,4140 c 0,1789.4026 1450.5974,3240 3240,3240 1789.4026,0 3240,-1450.5974 3240,-3240 l 0,-3870 -6480,0 0,3870 z"
         inkscape:connector-curvature="0" />
    </clipPath>
    <clipPath
       id="krone">
      <path
         d="m 3600,720 c -15,75 -30,150 -60,210 -30,60 -75,105 -135,135 -60,30 -135,45 -135,67 0,23 75,53 128,106 52,52 82,127 97,270 15,142 15,352 15,510 0,157 0,262 -15,330 -15,67 -45,97 -217,112 -173,15 -488,15 -660,15 -173,0 -203,0 -233,-15 -30,-15 -60,-45 -113,-112 -52,-68 -127,-173 -172,-240 -45,-68 -60,-98 -38,-158 23,-60 83,-150 113,-202 30,-53 30,-68 23,-68 -8,0 -23,15 -68,45 -45,30 -120,75 -180,97 -60,23 -105,23 -158,0 -52,-22 -112,-67 -164,-90 -53,-22 -98,-22 -90,0 7,23 67,68 164,150 98,83 233,203 353,353 120,150 225,330 315,495 90,165 165,315 202,405 38,90 38,120 53,135 15,15 45,15 157,0 113,-15 308,-45 458,-60 150,-15 255,-15 360,-15 105,0 210,0 360,15 150,15 345,45 458,60 112,15 142,15 157,0 15,-15 15,-45 53,-135 37,-90 112,-240 202,-405 90,-165 195,-345 315,-495 120,-150 255,-270 353,-353 97,-82 157,-127 164,-150 8,-22 -37,-22 -90,0 -52,23 -112,68 -164,90 -53,23 -98,23 -158,0 -60,-22 -135,-67 -180,-97 -45,-30 -60,-45 -68,-45 -7,0 -7,15 23,68 30,52 90,142 113,202 22,60 7,90 -38,158 -45,67 -120,172 -172,240 -53,67 -83,97 -113,112 -30,15 -60,15 -233,15 -172,0 -487,0 -660,-15 -172,-15 -202,-45 -217,-112 -15,-68 -15,-173 -15,-330 0,-158 0,-368 15,-510 15,-143 45,-218 97,-270 53,-53 128,-83 128,-106 0,-22 -75,-37 -135,-67 -60,-30 -105,-75 -135,-135 -30,-60 -45,-135 -60,-210 z"
         id="krone1c-1"
         inkscape:connector-curvature="0" />
    </clipPath>
    <inkscape:perspective
       id="perspective99"
       inkscape:persp3d-origin="219 : 160 : 1"
       inkscape:vp_z="438 : 240 : 1"
       inkscape:vp_y="0 : 1000 : 0"
       inkscape:vp_x="0 : 240 : 1"
       sodipodi:type="inkscape:persp3d" />
    <style
       id="style3521"
       type="text/css">
  .Rand2 { stroke: #202020; stroke-width:30; }
  .Rand4 { stroke: #202020; stroke-width:60; }
  .Rand6 { stroke: #202020; stroke-width:90; }
  .Gold4 { stroke: #ffef00; stroke-width:60; }
  .Schwarz { fill: #000000; }
  .Blau { fill: #0000ff; }
  .Gold { fill: #ffef00; }
  .Silber { fill: #ffffff; }
  </style>
    <clipPath
       id="clipPath3517">
      <path
         id="path3519"
         d="m 360,4140 c 0,1789.4026 1450.5974,3240 3240,3240 1789.4026,0 3240,-1450.5974 3240,-3240 l 0,-3870 -6480,0 0,3870 z"
         inkscape:connector-curvature="0" />
    </clipPath>
    <clipPath
       id="clipPath3513">
      <path
         d="m 3600,720 c -15,75 -30,150 -60,210 -30,60 -75,105 -135,135 -60,30 -135,45 -135,67 0,23 75,53 128,106 52,52 82,127 97,270 15,142 15,352 15,510 0,157 0,262 -15,330 -15,67 -45,97 -217,112 -173,15 -488,15 -660,15 -173,0 -203,0 -233,-15 -30,-15 -60,-45 -113,-112 -52,-68 -127,-173 -172,-240 -45,-68 -60,-98 -38,-158 23,-60 83,-150 113,-202 30,-53 30,-68 23,-68 -8,0 -23,15 -68,45 -45,30 -120,75 -180,97 -60,23 -105,23 -158,0 -52,-22 -112,-67 -164,-90 -53,-22 -98,-22 -90,0 7,23 67,68 164,150 98,83 233,203 353,353 120,150 225,330 315,495 90,165 165,315 202,405 38,90 38,120 53,135 15,15 45,15 157,0 113,-15 308,-45 458,-60 150,-15 255,-15 360,-15 105,0 210,0 360,15 150,15 345,45 458,60 112,15 142,15 157,0 15,-15 15,-45 53,-135 37,-90 112,-240 202,-405 90,-165 195,-345 315,-495 120,-150 255,-270 353,-353 97,-82 157,-127 164,-150 8,-22 -37,-22 -90,0 -52,23 -112,68 -164,90 -53,23 -98,23 -158,0 -60,-22 -135,-67 -180,-97 -45,-30 -60,-45 -68,-45 -7,0 -7,15 23,68 30,52 90,142 113,202 22,60 7,90 -38,158 -45,67 -120,172 -172,240 -53,67 -83,97 -113,112 -30,15 -60,15 -233,15 -172,0 -487,0 -660,-15 -172,-15 -202,-45 -217,-112 -15,-68 -15,-173 -15,-330 0,-158 0,-368 15,-510 15,-143 45,-218 97,-270 53,-53 128,-83 128,-106 0,-22 -75,-37 -135,-67 -60,-30 -105,-75 -135,-135 -30,-60 -45,-135 -60,-210 z"
         id="path3515"
         inkscape:connector-curvature="0" />
    </clipPath>
    <inkscape:perspective
       id="perspective3511"
       inkscape:persp3d-origin="219 : 160 : 1"
       inkscape:vp_z="438 : 240 : 1"
       inkscape:vp_y="0 : 1000 : 0"
       inkscape:vp_x="0 : 240 : 1"
       sodipodi:type="inkscape:persp3d" />
    <inkscape:perspective
       id="perspective2748"
       inkscape:persp3d-origin="372.04724 : 350.78739 : 1"
       inkscape:vp_z="744.09448 : 526.18109 : 1"
       inkscape:vp_y="0 : 1000 : 0"
       inkscape:vp_x="0 : 526.18109 : 1"
       sodipodi:type="inkscape:persp3d" />
    <inkscape:perspective
       id="perspective2621"
       inkscape:persp3d-origin="372.04724 : 350.78739 : 1"
       inkscape:vp_z="744.09448 : 526.18109 : 1"
       inkscape:vp_y="0 : 1000 : 0"
       inkscape:vp_x="0 : 526.18109 : 1"
       sodipodi:type="inkscape:persp3d" />
    <inkscape:perspective
       id="perspective3295"
       inkscape:persp3d-origin="372.04724 : 350.78739 : 1"
       inkscape:vp_z="744.09448 : 526.18109 : 1"
       inkscape:vp_y="0 : 1000 : 0"
       inkscape:vp_x="0 : 526.18109 : 1"
       sodipodi:type="inkscape:persp3d" />
    <inkscape:perspective
       id="perspective3282"
       inkscape:persp3d-origin="372.04724 : 350.78739 : 1"
       inkscape:vp_z="744.09448 : 526.18109 : 1"
       inkscape:vp_y="0 : 1000 : 0"
       inkscape:vp_x="0 : 526.18109 : 1"
       sodipodi:type="inkscape:persp3d" />
  </defs>
  <sodipodi:namedview
     id="base"
     pagecolor="#ffffff"
     bordercolor="#666666"
     borderopacity="1.0"
     inkscape:pageopacity="0.0"
     inkscape:pageshadow="2"
     inkscape:zoom="0.51220207"
     inkscape:cx="385.48449"
     inkscape:cy="273.18404"
     inkscape:document-units="px"
     inkscape:current-layer="layer5"
     showgrid="true"
     inkscape:window-width="1920"
     inkscape:window-height="1032"
     inkscape:window-x="-4"
     inkscape:window-y="-4"
     inkscape:snap-global="true"
     showguides="true"
     inkscape:guide-bbox="true"
     objecttolerance="20"
     gridtolerance="20"
     guidetolerance="20"
     inkscape:snap-intersection-grid-guide="false"
     inkscape:snap-center="true"
     inkscape:window-maximized="1"
     units="mm"
     fit-margin-top="0"
     fit-margin-left="0"
     fit-margin-right="0"
     fit-margin-bottom="0" />
  <metadata
     id="metadata7">
    <rdf:RDF>
      <cc:Work
         rdf:about="">
        <dc:format>image/svg+xml</dc:format>
        <dc:type
           rdf:resource="http://purl.org/dc/dcmitype/StillImage" />
        <dc:title></dc:title>
      </cc:Work>
    </rdf:RDF>
  </metadata>
  <g
     inkscape:groupmode="layer"
     id="layer5"
     inkscape:label="Schildfüllung"
     style="display:inline"
     transform="translate(5.3125,-72.625)">
    <path
       style="opacity:0.69516733;fill:#ffffff;fill-opacity:1;fill-rule:nonzero;stroke:none;display:inline"
       d="m 708.40625,549.875 -708.125,1.7e-4 c 5.9432315,191.61871 162.31822,343.03108 354.0625,343.03108 191.70545,0 348.08201,-153.3284 354.0625,-343.03125 z"
       id="path3077"
       inkscape:connector-curvature="0"
       transform="translate(0,2.5390623e-6)"
       sodipodi:nodetypes="ccsc" />
    <path
       style="fill:#ed1c24;fill-opacity:1;fill-rule:nonzero;stroke:none;display:inline"
       d="m 0,77.9375 0,460.65625 c -2.5749358e-7,3.78477 0.16479384,7.52653 0.28125,11.28125 l 708.125,0 c 0.11842,-3.7563 0.28176,-7.49732 0.28125,-11.28125 L 708.625,77.9375 0,77.9375 z"
       id="path3264"
       transform="translate(0,2.5390623e-6)"
       inkscape:connector-curvature="0" />
    <path
       style="fill:#ffffff;fill-opacity:1;fill-rule:nonzero;stroke:none;display:inline"
       d="m 174.71875,549.875 c 0,0.0104 0,0.0208 0,0.0312 0,99.20274 80.42226,179.625 179.625,179.625 99.20274,0 179.625,-80.42226 179.625,-179.625 0,-0.0104 0,-0.0208 0,-0.0312 l -44.59375,0 c 0,0.0104 0,0.0208 0,0.0312 0,74.58777 -60.44348,135.0625 -135.03125,135.0625 -74.58777,0 -135.0625,-60.47473 -135.0625,-135.0625 0,-0.0104 0,-0.0208 0,-0.0312 l -44.5625,0 z"
       transform="translate(0,2.5390623e-6)"
       id="path3898"
       inkscape:connector-curvature="0" />
    <path
       style="fill:#ffffff;fill-opacity:1;fill-rule:nonzero;stroke:none;display:inline"
       d="m 174.71875,549.875 c 0,0.0104 0,0.0208 0,0.0312 0,99.20274 80.42226,179.625 179.625,179.625 99.20274,0 179.625,-80.42226 179.625,-179.625 0,-0.0104 0,-0.0208 0,-0.0312 l -44.59375,0 c 0,0.0104 0,0.0208 0,0.0312 0,74.58777 -60.44348,135.0625 -135.03125,135.0625 -74.58777,0 -135.0625,-60.47473 -135.0625,-135.0625 0,-0.0104 0,-0.0208 0,-0.0312 l -44.5625,0 z"
       transform="translate(0,2.5390623e-6)"
       id="path3927"
       inkscape:connector-curvature="0" />
  </g>
  <g
     inkscape:groupmode="layer"
     id="layer3"
     inkscape:label="Ebene 1"
     style="display:inline"
     transform="translate(-44.48593,-114.1927)">
    <path
       id="path3364"
       style="fill:#ff0000;fill-opacity:1;fill-rule:nonzero;stroke:none;display:inline"
       d=""
       sodipodi:nodetypes="cc"
       inkscape:connector-curvature="0" />
    <path
       style="fill:none;stroke:#000000;stroke-width:3.54330707;stroke-linecap:round;stroke-linejoin:round;stroke-miterlimit:4;stroke-opacity:1;stroke-dasharray:none;display:inline"
       id="path3329"
       sodipodi:nodetypes="cc"
       d=""
       inkscape:connector-curvature="0" />
    <path
       style="fill:none;stroke:#ff0000;stroke-width:1.77165353;stroke-linecap:round;stroke-linejoin:round;stroke-miterlimit:4;stroke-opacity:1;stroke-dasharray:none;display:inline"
       id="path3430"
       sodipodi:nodetypes="cc"
       d=""
       inkscape:connector-curvature="0" />
    <path
       style="fill:none;stroke:#00ff00;stroke-width:3.54330707;stroke-linecap:round;stroke-linejoin:round;stroke-miterlimit:4;stroke-opacity:1;stroke-dasharray:none;display:inline"
       id="path3460"
       sodipodi:nodetypes="cz"
       d=""
       inkscape:connector-curvature="0" />
    <path
       style="fill:none;stroke:#00ff00;stroke-width:3.54330707;stroke-linecap:round;stroke-linejoin:round;stroke-miterlimit:4;stroke-opacity:1;stroke-dasharray:none;display:inline"
       id="path3497"
       sodipodi:nodetypes="cc"
       d=""
       inkscape:connector-curvature="0" />
    <path
       style="fill:none;stroke:#00ff00;stroke-width:3.54330707;stroke-linecap:round;stroke-linejoin:round;stroke-miterlimit:4;stroke-opacity:1;stroke-dasharray:none;display:inline"
       id="path3499"
       sodipodi:nodetypes="cc"
       d=""
       inkscape:connector-curvature="0" />
    <path
       style="fill:none;stroke:#00ff00;stroke-width:3.54330707;stroke-linecap:round;stroke-linejoin:round;stroke-miterlimit:4;stroke-opacity:1;stroke-dasharray:none;display:inline"
       id="path3501"
       sodipodi:nodetypes="cc"
       d=""
       inkscape:connector-curvature="0" />
    <path
       style="fill:none;stroke:#00ff00;stroke-width:3.54330707;stroke-linecap:round;stroke-linejoin:round;stroke-miterlimit:4;stroke-opacity:1;stroke-dasharray:none;display:inline"
       id="path3503"
       sodipodi:nodetypes="cc"
       d=""
       inkscape:connector-curvature="0" />
    <path
       style="fill:none;stroke:#00ff00;stroke-width:3.54330707;stroke-linecap:round;stroke-linejoin:round;stroke-miterlimit:4;stroke-opacity:1;stroke-dasharray:none;display:inline"
       id="path3505"
       sodipodi:nodetypes="cc"
       d=""
       inkscape:connector-curvature="0" />
    <path
       style="fill:none;stroke:#00ff00;stroke-width:3.54330707;stroke-linecap:round;stroke-linejoin:round;stroke-miterlimit:4;stroke-opacity:1;stroke-dasharray:none;display:inline"
       id="path3507"
       sodipodi:nodetypes="cc"
       d=""
       inkscape:connector-curvature="0" />
    <path
       style="fill:none;stroke:#00ff00;stroke-width:3.54330707;stroke-linecap:round;stroke-linejoin:round;stroke-miterlimit:4;stroke-opacity:1;stroke-dasharray:none;display:inline"
       id="path3509"
       sodipodi:nodetypes="cc"
       d=""
       inkscape:connector-curvature="0" />
    <path
       style="fill:none;stroke:#00ff00;stroke-width:3.54330707;stroke-linecap:round;stroke-linejoin:round;stroke-miterlimit:4;stroke-opacity:1;stroke-dasharray:none;display:inline"
       id="path3511"
       sodipodi:nodetypes="cc"
       d=""
       inkscape:connector-curvature="0" />
    <path
       style="fill:none;stroke:#00ff00;stroke-width:3.54330707;stroke-linecap:round;stroke-linejoin:round;stroke-miterlimit:4;stroke-opacity:1;stroke-dasharray:none;display:inline"
       id="path3513"
       sodipodi:nodetypes="cc"
       d=""
       inkscape:connector-curvature="0" />
    <path
       style="fill:none;stroke:#00ff00;stroke-width:3.54330707;stroke-linecap:round;stroke-linejoin:round;stroke-miterlimit:4;stroke-opacity:1;stroke-dasharray:none;display:inline"
       id="path3516"
       sodipodi:nodetypes="cc"
       d=""
       inkscape:connector-curvature="0" />
    <path
       style="fill:none;stroke:#00ff00;stroke-width:3.54330707;stroke-linecap:round;stroke-linejoin:round;stroke-miterlimit:4;stroke-opacity:1;stroke-dasharray:none;display:inline"
       id="path3518"
       sodipodi:nodetypes="cc"
       d=""
       inkscape:connector-curvature="0" />
    <path
       style="fill:none;stroke:#00ff00;stroke-width:3.54330707;stroke-linecap:round;stroke-linejoin:round;stroke-miterlimit:4;stroke-opacity:1;stroke-dasharray:none;display:inline"
       id="path3520"
       sodipodi:nodetypes="cc"
       d=""
       inkscape:connector-curvature="0" />
    <path
       style="fill:none;stroke:#00ff00;stroke-width:3.54330707;stroke-linecap:round;stroke-linejoin:round;stroke-miterlimit:4;stroke-opacity:1;stroke-dasharray:none;display:inline"
       id="path3522"
       sodipodi:nodetypes="cc"
       d=""
       inkscape:connector-curvature="0" />
    <path
       style="fill:none;stroke:#00ff00;stroke-width:3.54330707;stroke-linecap:round;stroke-linejoin:round;stroke-miterlimit:4;stroke-opacity:1;stroke-dasharray:none;display:inline"
       id="path3524"
       sodipodi:nodetypes="cc"
       d=""
       inkscape:connector-curvature="0" />
    <path
       style="fill:none;stroke:#00ff00;stroke-width:3.54330707;stroke-linecap:round;stroke-linejoin:round;stroke-miterlimit:4;stroke-opacity:1;stroke-dasharray:none;display:inline"
       id="path3526"
       sodipodi:nodetypes="cc"
       d=""
       inkscape:connector-curvature="0" />
    <path
       style="fill:none;stroke:#00ff00;stroke-width:3.54330707;stroke-linecap:round;stroke-linejoin:round;stroke-miterlimit:4;stroke-opacity:1;stroke-dasharray:none;display:inline"
       id="path3528"
       sodipodi:nodetypes="cc"
       d=""
       inkscape:connector-curvature="0" />
    <path
       style="fill:none;stroke:#000000;stroke-width:2.48031497;stroke-linecap:round;stroke-linejoin:round;stroke-miterlimit:4;stroke-opacity:1;stroke-dasharray:none;display:inline"
       id="path3477"
       sodipodi:nodetypes="cc"
       d=""
       inkscape:connector-curvature="0" />
  </g>
  <g
     inkscape:groupmode="layer"
     id="layer4"
     inkscape:label="Rahmen"
     style="display:inline"
     transform="translate(5.3125,-72.625)">
    <g
       id="g4030">
      <path
         sodipodi:nodetypes="cssccccsc"
         inkscape:connector-curvature="0"
         id="path3079"
         d="m 60.696116,144.25491 c 31.713401,6.65311 61.454974,6.21614 89.487864,-0.38908 52.87081,-12.45763 92.5102,21.98939 93.6341,63.48016 0.65352,24.12595 -14.24923,60.06393 -42.18954,65.78398 l 57.51673,51.36231 -8.40426,10.67198 -53.80871,-50.29521 C 158.43735,364.42676 32.758029,329.9612 62.252427,232.96462 c 7.674626,-25.23911 3.353171,-56.67003 -1.556311,-88.70971 z"
         style="fill:#ffffff;stroke:#000000;stroke-width:5.31496048;stroke-linecap:round;stroke-linejoin:round;stroke-miterlimit:4;stroke-opacity:1;stroke-dasharray:none;display:inline" />
      <path
         sodipodi:nodetypes="cc"
         inkscape:connector-curvature="0"
         id="path3851"
         d="m 96.01669,220.95119 c 19.7291,-11.28029 31.02168,-26.25156 39.06696,-42.64352"
         style="fill:none;stroke:#000000;stroke-width:3.54330707;stroke-linecap:round;stroke-linejoin:miter;stroke-miterlimit:4;stroke-opacity:1;stroke-dasharray:none;display:inline" />
      <path
         style="fill:none;stroke:#000000;stroke-width:3.54330707;stroke-linecap:round;stroke-linejoin:miter;stroke-miterlimit:4;stroke-opacity:1;stroke-dasharray:none;display:inline"
         d="m 94.916212,258.36744 c 50.363868,2.24647 84.858918,-48.80774 77.583688,-86.1124"
         id="path3853"
         inkscape:connector-curvature="0"
         sodipodi:nodetypes="cc" />
      <path
         sodipodi:nodetypes="csc"
         inkscape:connector-curvature="0"
         id="path3855"
         d="m 112.61925,299.99875 c 32.63153,0.87755 60.65179,-14.1031 76.8844,-37.59799 14.58321,-21.10757 24.34214,-36.88719 22.68217,-70.88638"
         style="fill:none;stroke:#000000;stroke-width:3.54330707;stroke-linecap:round;stroke-linejoin:miter;stroke-miterlimit:4;stroke-opacity:1;stroke-dasharray:none;display:inline" />
      <path
         sodipodi:nodetypes="ccc"
         inkscape:connector-curvature="0"
         id="path3849"
         d="M 203.50149,275.86053 C 155.55256,233.0857 112.06023,186.50351 61.351639,145.56846 106.95015,191.83436 156.93252,236.14977 197.9047,284.72884"
         style="fill:#ffffff;stroke:#000000;stroke-width:3.54330707;stroke-linecap:butt;stroke-linejoin:miter;stroke-miterlimit:4;stroke-opacity:1;stroke-dasharray:none;display:inline" />
      <path
         style="fill:#ffffff;stroke:#000000;stroke-width:5.31496048;stroke-linecap:round;stroke-linejoin:round;stroke-miterlimit:4;stroke-opacity:1;stroke-dasharray:none;display:inline"
         d="m 691.77754,177.56903 c -31.7134,6.65311 -61.54684,6.59454 -89.48786,-0.38908 -59.7488,-14.93371 -98.01259,22.26451 -99.13649,63.75528 -0.65352,24.12595 14.24923,58.68833 47.69193,65.50886 l -57.51673,51.36231 8.40426,10.67198 53.80871,-50.29521 c 41.79638,75.98116 157.29628,39.31464 131.65356,-48.603 -7.38647,-25.32494 -0.32686,-59.97146 4.58262,-92.01114 z"
         id="path3857"
         inkscape:connector-curvature="0"
         sodipodi:nodetypes="cssccccsc"
         transform="translate(-49.79843,-41.567703)" />
      <path
         style="fill:none;stroke:#000000;stroke-width:3.54330707;stroke-linecap:round;stroke-linejoin:miter;stroke-miterlimit:4;stroke-opacity:1;stroke-dasharray:none;display:inline"
         d="m 656.45697,254.26531 c -19.7291,-11.28029 -34.1343,-24.50071 -42.17958,-40.89267"
         id="path3859"
         inkscape:connector-curvature="0"
         sodipodi:nodetypes="cc"
         transform="translate(-49.79843,-41.567703)" />
      <path
         sodipodi:nodetypes="cc"
         inkscape:connector-curvature="0"
         id="path3861"
         d="M 657.55745,291.68156 C 606.41542,290.62087 575.033,255.32431 576.47206,208.68178"
         style="fill:none;stroke:#000000;stroke-width:3.54330707;stroke-linecap:round;stroke-linejoin:miter;stroke-miterlimit:4;stroke-opacity:1;stroke-dasharray:none;display:inline"
         transform="translate(-49.79843,-41.567703)" />
      <path
         style="fill:none;stroke:#000000;stroke-width:3.54330707;stroke-linecap:round;stroke-linejoin:miter;stroke-miterlimit:4;stroke-opacity:1;stroke-dasharray:none;display:inline"
         d="m 640.04895,330.00571 c -32.63153,0.87755 -59.08247,-11.63202 -77.66256,-33.31814 -16.91767,-19.74579 -29.01107,-28.13294 -27.74018,-69.91368"
         id="path3863"
         inkscape:connector-curvature="0"
         sodipodi:nodetypes="csc"
         transform="translate(-49.79843,-41.567703)" />
      <path
         style="fill:#ffffff;stroke:#000000;stroke-width:3.54330707;stroke-linecap:butt;stroke-linejoin:miter;stroke-miterlimit:4;stroke-opacity:1;stroke-dasharray:none;display:inline"
         d="m 548.97217,309.17465 c 47.94893,-42.77483 91.44126,-89.35702 142.14985,-130.29207 -45.59851,46.2659 -95.58088,90.58131 -136.55306,139.16038"
         id="path3865"
         inkscape:connector-curvature="0"
         sodipodi:nodetypes="ccc"
         transform="translate(-49.79843,-41.567703)" />
      <path
         inkscape:connector-curvature="0"
         id="path3933"
         d="m 708.40625,549.875 -708.125,0 c 5.9432315,191.61871 162.31822,343.03125 354.0625,343.03125 191.70545,0 348.08201,-153.3284 354.0625,-343.03125 z"
         style="fill:none;stroke:none;display:inline" />
      <path
         id="path3960"
         d="m 219.28125,549.875 c 0.009,2.66085 0.12295,5.31597 0.28125,7.9375 l 95.03125,8.75 -61.40625,72.8125 c 1.81686,2.05039 3.66202,4.06827 5.625,6.03125 1.96298,1.96298 4.01211,3.83939 6.0625,5.65625 l 72.5625,-60.375 8.625,94 c 2.73456,0.16513 5.50518,0.28125 8.28125,0.28125 2.77607,0 5.51544,-0.11612 8.25,-0.28125 l 8,-94.5 73.1875,60.875 c 2.05039,-1.81686 4.09953,-3.69327 6.0625,-5.65625 1.96298,-1.96298 3.80814,-3.98086 5.625,-6.03125 l -61.40625,-72.8125 95.0625,-8.75 c 0.1583,-2.62153 0.27216,-5.27665 0.28125,-7.9375 l -100.53125,0 0,14.34375 -20.1875,20.1875 -28.65625,0 -20.21875,-20.21875 0,-14.3125 -100.53125,0 z"
         style="fill:#ed1c24;fill-opacity:1;fill-rule:nonzero;stroke:#000000;stroke-width:3.54330707;stroke-miterlimit:4;stroke-opacity:1;stroke-dasharray:none;display:inline"
         inkscape:connector-curvature="0" />
      <path
         id="path3968"
         d="m 174.71875,549.875 c 0,0.0104 0,0.0208 0,0.0312 0,99.20274 80.42226,179.625 179.625,179.625 99.20274,0 179.625,-80.42226 179.625,-179.625 0,-0.0104 0,-0.0208 0,-0.0312 l -44.59375,0 c 0,0.0104 0,0.0208 0,0.0312 0,74.58777 -60.44348,135.0625 -135.03125,135.0625 -74.58777,0 -135.0625,-60.47473 -135.0625,-135.0625 0,-0.0104 0,-0.0208 0,-0.0312 l -44.5625,0 z"
         style="fill:#ed1c24;fill-opacity:1;fill-rule:nonzero;stroke:#000000;stroke-width:5.31496048;stroke-miterlimit:4;stroke-opacity:1;stroke-dasharray:none;display:inline"
         inkscape:connector-curvature="0" />
      <path
         id="path3879"
         d="m 354.34375,370.28125 c -99.19234,0 -179.60814,80.40535 -179.625,179.59375 l 44.5625,0 c 0.0169,-74.57343 60.48513,-135.03125 135.0625,-135.03125 74.57737,0 135.01439,60.45782 135.03125,135.03125 l 44.59375,0 c -0.0169,-99.1884 -80.43266,-179.59375 -179.625,-179.59375 z"
         style="fill:#ffffff;stroke:#000000;stroke-width:5.31496048;stroke-linecap:round;stroke-linejoin:round;stroke-miterlimit:4;stroke-opacity:1;stroke-dasharray:none;display:inline"
         inkscape:connector-curvature="0" />
      <path
         sodipodi:type="arc"
         style="fill:none;stroke:#000000;stroke-width:0.94660836;stroke-linecap:round;stroke-linejoin:round;stroke-miterlimit:4;stroke-opacity:1;stroke-dasharray:none;display:inline"
         id="path3893"
         sodipodi:cx="132.87401"
         sodipodi:cy="387.9921"
         sodipodi:rx="44.29134"
         sodipodi:ry="44.29134"
         d="m 177.16535,387.9921 c 0,24.46143 -19.82991,44.29134 -44.29134,44.29134 -24.46143,0 -44.291342,-19.82991 -44.291342,-44.29134 0,-24.46144 19.829912,-44.29134 44.291342,-44.29134 24.46143,0 44.29134,19.8299 44.29134,44.29134 z"
         transform="matrix(3.7431608,0,0,3.7431608,-143.03806,-902.42115)" />
      <path
         id="path3902"
         d="m 404.14218,456.4049 c -2.77607,0 -5.54669,0.11612 -8.28125,0.28125 l -8.71875,94.78125 -72.46875,-61.15625 c -2.05039,1.81686 -4.06827,3.66202 -6.03125,5.625 -1.96297,1.96298 -3.83939,4.01211 -5.65625,6.0625 l 60.5625,72.84375 -94.1875,8 c -0.16513,2.73456 -0.28125,5.47393 -0.28125,8.25 0,2.77607 0.11612,5.54669 0.28125,8.28125 l 95.03125,8.75 -61.40625,72.8125 c 1.81686,2.05039 3.66202,4.06827 5.625,6.03125 1.96298,1.96298 4.01211,3.83939 6.0625,5.65625 l 72.5625,-60.375 8.625,94 c 2.73456,0.16513 5.50518,0.28125 8.28125,0.28125 2.77607,0 5.51544,-0.11612 8.25,-0.28125 l 8,-94.5 73.1875,60.875 c 2.05039,-1.81686 4.09953,-3.69327 6.0625,-5.65625 1.96298,-1.96298 3.80814,-3.98086 5.625,-6.03125 l -61.40625,-72.8125 95.0625,-8.75 c 0.16513,-2.73456 0.28125,-5.50518 0.28125,-8.28125 0,-2.77607 -0.11612,-5.51544 -0.28125,-8.25 l -94.21875,-8 60.5625,-72.84375 c -1.81686,-2.05039 -3.69328,-4.09953 -5.65625,-6.0625 -1.96298,-1.96298 -3.98086,-3.80814 -6.03125,-5.625 l -73.09375,61.6875 -8.09375,-95.3125 c -2.73456,-0.16513 -5.47393,-0.28125 -8.25,-0.28125 z m -14.28125,100.53125 28.59375,0 20.21875,20.21875 0,28.625 -20.1875,20.1875 -28.65625,0 -20.21875,-20.21875 0,-28.5625 20.25,-20.25 z"
         style="fill:#ffff00;fill-opacity:1;stroke:#000000;stroke-width:5.31496048;stroke-linecap:round;stroke-linejoin:round;stroke-miterlimit:4;stroke-opacity:1;stroke-dasharray:none;display:inline"
         inkscape:connector-curvature="0"
         transform="translate(-49.79843,-41.567703)" />
      <path
         inkscape:connector-curvature="0"
         id="path3076"
         d="m 404.14218,456.33975 0,270.2553"
         style="fill:none;stroke:#000000;stroke-width:1.77165353;stroke-linecap:butt;stroke-linejoin:miter;stroke-miterlimit:4;stroke-opacity:1;stroke-dasharray:none;display:inline"
         transform="translate(-49.79843,-41.567703)" />
      <path
         style="fill:none;stroke:#000000;stroke-width:1.77165353;stroke-linecap:butt;stroke-linejoin:miter;stroke-miterlimit:4;stroke-opacity:1;stroke-dasharray:none;display:inline"
         d="M 308.5925,687.01708 499.69186,495.91772"
         id="path3856"
         inkscape:connector-curvature="0"
         transform="translate(-49.79843,-41.567703)" />
      <path
         inkscape:connector-curvature="0"
         id="path3860"
         d="M 499.69186,687.01708 308.5925,495.91772"
         style="fill:none;stroke:#000000;stroke-width:1.77165353;stroke-linecap:butt;stroke-linejoin:miter;stroke-miterlimit:4;stroke-opacity:1;stroke-dasharray:none;display:inline"
         transform="translate(-49.79843,-41.567703)" />
      <path
         sodipodi:type="arc"
         style="fill:#ffff00;fill-opacity:1;stroke:#000000;stroke-width:5.83662891;stroke-linecap:round;stroke-linejoin:round;stroke-miterlimit:4;stroke-opacity:1;stroke-dasharray:none;display:inline"
         id="path3887"
         sodipodi:cx="132.87401"
         sodipodi:cy="387.9921"
         sodipodi:rx="44.29134"
         sodipodi:ry="44.29134"
         d="m 177.16535,387.9921 c 0,24.46143 -19.82991,44.29134 -44.29134,44.29134 -24.46143,0 -44.291342,-19.82991 -44.291342,-44.29134 0,-24.46144 19.829912,-44.29134 44.291342,-44.29134 24.46143,0 44.29134,19.8299 44.29134,44.29134 z"
         transform="matrix(0.91062167,0,0,0.91062167,233.33276,196.58165)" />
      <path
         transform="matrix(3.7431608,0,0,3.7431608,-143.03806,-902.42115)"
         d="m 177.16535,387.9921 c 0,24.46143 -19.82991,44.29134 -44.29134,44.29134 -24.46143,0 -44.291342,-19.82991 -44.291342,-44.29134 0,-24.46144 19.829912,-44.29134 44.291342,-44.29134 24.46143,0 44.29134,19.8299 44.29134,44.29134 z"
         sodipodi:ry="44.29134"
         sodipodi:rx="44.29134"
         sodipodi:cy="387.9921"
         sodipodi:cx="132.87401"
         id="path3880"
         style="fill:none;stroke:#000000;stroke-width:0.94660836;stroke-linecap:round;stroke-linejoin:round;stroke-miterlimit:4;stroke-opacity:1;stroke-dasharray:none;display:inline"
         sodipodi:type="arc" />
      <path
         inkscape:connector-curvature="0"
         style="fill:#ed1c24;fill-opacity:1;stroke:#000000;stroke-width:5.31496048;stroke-linecap:round;stroke-linejoin:round;stroke-miterlimit:4;stroke-opacity:1;stroke-dasharray:none;display:inline"
         d="m 404.14218,456.4049 c -2.77607,0 -5.54669,0.11612 -8.28125,0.28125 l -8.71875,94.78125 -72.46875,-61.15625 c -2.05039,1.81686 -4.06827,3.66202 -6.03125,5.625 -1.96297,1.96298 -3.83939,4.01211 -5.65625,6.0625 l 60.5625,72.84375 -94.1875,8 c -0.16513,2.73456 -0.28125,5.47393 -0.28125,8.25 0,2.77607 0.11612,5.54669 0.28125,8.28125 l 95.03125,8.75 -61.40625,72.8125 c 1.81686,2.05039 3.66202,4.06827 5.625,6.03125 1.96298,1.96298 4.01211,3.83939 6.0625,5.65625 l 72.5625,-60.375 8.625,94 c 2.73456,0.16513 5.50518,0.28125 8.28125,0.28125 2.77607,0 5.51544,-0.11612 8.25,-0.28125 l 8,-94.5 73.1875,60.875 c 2.05039,-1.81686 4.09953,-3.69327 6.0625,-5.65625 1.96298,-1.96298 3.80814,-3.98086 5.625,-6.03125 l -61.40625,-72.8125 95.0625,-8.75 c 0.16513,-2.73456 0.28125,-5.50518 0.28125,-8.28125 0,-2.77607 -0.11612,-5.51544 -0.28125,-8.25 l -94.21875,-8 60.5625,-72.84375 c -1.81686,-2.05039 -3.69328,-4.09953 -5.65625,-6.0625 -1.96298,-1.96298 -3.98086,-3.80814 -6.03125,-5.625 l -73.09375,61.6875 -8.09375,-95.3125 c -2.73456,-0.16513 -5.47393,-0.28125 -8.25,-0.28125 z m -14.28125,100.53125 28.59375,0 20.21875,20.21875 0,28.625 -20.1875,20.1875 -28.65625,0 -20.21875,-20.21875 0,-28.5625 20.25,-20.25 z"
         id="path3882"
         transform="translate(-49.79843,-41.567703)" />
      <path
         id="path3987"
         d="m 354.34375,414.84375 c -2.77607,0 -5.54669,0.11612 -8.28125,0.28125 L 337.34375,509.90625 264.875,448.75 c -2.05039,1.81686 -4.06827,3.66202 -6.03125,5.625 -1.96297,1.96298 -3.83939,4.01211 -5.65625,6.0625 l 60.5625,72.84375 -94.1875,8 c -0.16513,2.73456 -0.28125,5.47393 -0.28125,8.25 0,0.11474 -3.9e-4,0.22903 0,0.34375 l 100.53125,0 0,-14.25 20.25,-20.25 28.59375,0 20.21875,20.21875 0,14.28125 100.53125,0 c 3.9e-4,-0.11472 0,-0.22901 0,-0.34375 0,-2.77607 -0.11612,-5.51544 -0.28125,-8.25 l -94.21875,-8 60.5625,-72.84375 c -1.81686,-2.05039 -3.69328,-4.09953 -5.65625,-6.0625 -1.96298,-1.96298 -3.98086,-3.80814 -6.03125,-5.625 l -73.09375,61.6875 -8.09375,-95.3125 c -2.73456,-0.16513 -5.47393,-0.28125 -8.25,-0.28125 z"
         style="fill:#ffffff;fill-opacity:1;stroke:#000000;stroke-width:5.31496048;stroke-linecap:round;stroke-linejoin:round;stroke-miterlimit:4;stroke-opacity:1;stroke-dasharray:none;display:inline"
         inkscape:connector-curvature="0" />
      <path
         style="fill:none;stroke:#000000;stroke-width:1.77165353;stroke-linecap:butt;stroke-linejoin:miter;stroke-miterlimit:4;stroke-opacity:1;stroke-dasharray:none;display:inline"
         d="m 404.14218,456.33975 0,270.2553"
         id="path3884"
         inkscape:connector-curvature="0"
         transform="translate(-49.79843,-41.567703)" />
      <path
         inkscape:connector-curvature="0"
         id="path3886"
         d="M 308.5925,687.01708 499.69186,495.91772"
         style="fill:none;stroke:#000000;stroke-width:1.77165353;stroke-linecap:butt;stroke-linejoin:miter;stroke-miterlimit:4;stroke-opacity:1;stroke-dasharray:none;display:inline"
         transform="translate(-49.79843,-41.567703)" />
      <path
         style="fill:none;stroke:#000000;stroke-width:1.77165353;stroke-linecap:butt;stroke-linejoin:miter;stroke-miterlimit:4;stroke-opacity:1;stroke-dasharray:none;display:inline"
         d="M 499.69186,687.01708 308.5925,495.91772"
         id="path3890"
         inkscape:connector-curvature="0"
         transform="translate(-49.79843,-41.567703)" />
      <path
         id="path3964"
         d="m 314,549.875 c -10e-6,0.0104 0,0.0209 0,0.0312 0,22.27511 18.06864,40.3125 40.34375,40.3125 22.27511,0 40.3125,-18.03739 40.3125,-40.3125 0,-0.0104 10e-6,-0.0209 0,-0.0312 l -80.65625,0 z"
         style="fill:#ed1c24;fill-opacity:1;fill-rule:nonzero;stroke:#000000;stroke-width:5.31496048;stroke-miterlimit:4;stroke-opacity:1;stroke-dasharray:none;display:inline"
         inkscape:connector-curvature="0" />
      <path
         transform="matrix(0.45723202,0,0,0.45723202,293.57646,372.49325)"
         d="m 177.16535,387.9921 c 0,24.46143 -19.82991,44.29134 -44.29134,44.29134 -24.46143,0 -44.291342,-19.82991 -44.291342,-44.29134 0,-24.46144 19.829912,-44.29134 44.291342,-44.29134 24.46143,0 44.29134,19.8299 44.29134,44.29134 z"
         sodipodi:ry="44.29134"
         sodipodi:rx="44.29134"
         sodipodi:cy="387.9921"
         sodipodi:cx="132.87401"
         id="path3889"
         style="fill:none;stroke:#000000;stroke-width:7.74947309;stroke-linecap:round;stroke-linejoin:round;stroke-miterlimit:4;stroke-opacity:1;stroke-dasharray:none;display:inline"
         sodipodi:type="arc" />
      <path
         sodipodi:type="arc"
         style="fill:#000000;stroke:#000000;stroke-width:22.34697151;stroke-linecap:round;stroke-linejoin:round;stroke-miterlimit:4;stroke-opacity:1;stroke-dasharray:none;display:inline"
         id="path3891"
         sodipodi:cx="132.87401"
         sodipodi:cy="387.9921"
         sodipodi:rx="44.29134"
         sodipodi:ry="44.29134"
         d="m 177.16535,387.9921 c 0,24.46143 -19.82991,44.29134 -44.29134,44.29134 -24.46143,0 -44.291342,-19.82991 -44.291342,-44.29134 0,-24.46144 19.829912,-44.29134 44.291342,-44.29134 24.46143,0 44.29134,19.8299 44.29134,44.29134 z"
         transform="matrix(0.15855872,0,0,0.15855872,333.26238,488.37613)" />
      <path
         id="path3892"
         d="m 354.34375,509.5625 c -22.26473,0 -40.32693,18.0517 -40.34375,40.3125 l 80.65625,0 c -0.0168,-22.26079 -18.04778,-40.3125 -40.3125,-40.3125 z"
         style="fill:#ffffff;fill-opacity:1;stroke:#000000;stroke-width:5.31496096;stroke-linecap:round;stroke-linejoin:round;stroke-miterlimit:4;stroke-opacity:1;stroke-dasharray:none;display:inline"
         inkscape:connector-curvature="0" />
      <path
         sodipodi:type="arc"
         style="fill:none;stroke:#000000;stroke-width:7.74947309;stroke-linecap:round;stroke-linejoin:round;stroke-miterlimit:4;stroke-opacity:1;stroke-dasharray:none;display:inline"
         id="path3894"
         sodipodi:cx="132.87401"
         sodipodi:cy="387.9921"
         sodipodi:rx="44.29134"
         sodipodi:ry="44.29134"
         d="m 177.16535,387.9921 c 0,24.46143 -19.82991,44.29134 -44.29134,44.29134 -24.46143,0 -44.291342,-19.82991 -44.291342,-44.29134 0,-24.46144 19.829912,-44.29134 44.291342,-44.29134 24.46143,0 44.29134,19.8299 44.29134,44.29134 z"
         transform="matrix(0.45723202,0,0,0.45723202,293.57646,372.49325)" />
      <path
         transform="matrix(0.15855872,0,0,0.15855872,333.26238,488.37613)"
         d="m 177.16535,387.9921 c 0,24.46143 -19.82991,44.29134 -44.29134,44.29134 -24.46143,0 -44.291342,-19.82991 -44.291342,-44.29134 0,-24.46144 19.829912,-44.29134 44.291342,-44.29134 24.46143,0 44.29134,19.8299 44.29134,44.29134 z"
         sodipodi:ry="44.29134"
         sodipodi:rx="44.29134"
         sodipodi:cy="387.9921"
         sodipodi:cx="132.87401"
         id="path3896"
         style="fill:#000000;stroke:#000000;stroke-width:22.34697151;stroke-linecap:round;stroke-linejoin:round;stroke-miterlimit:4;stroke-opacity:1;stroke-dasharray:none;display:inline"
         sodipodi:type="arc" />
      <path
         sodipodi:nodetypes="cc"
         inkscape:connector-curvature="0"
         id="path3993"
         d="m 49.79843,591.44288 708.66142,0"
         style="fill:none;stroke:#000000;stroke-width:5.31496048;stroke-linecap:butt;stroke-linejoin:miter;stroke-miterlimit:4;stroke-opacity:1;stroke-dasharray:none;display:inline"
         transform="translate(-49.79843,-41.567703)" />
      <path
         inkscape:connector-curvature="0"
         id="path3185"
         style="fill:none;stroke:#000000;stroke-width:10.62992096;stroke-linecap:square;stroke-linejoin:miter;stroke-miterlimit:4;stroke-opacity:1;stroke-dasharray:none;display:inline"
         d="M 708.66142,538.58266 708.63063,77.952734 0,77.952734 0.16129266,537.78776 C 0.33805266,734.72453 159.44882,892.91337 354.33071,892.91337 c 194.88189,0 354.33071,-158.05311 354.33071,-354.33071 z"
         sodipodi:nodetypes="ccccsc" />
    </g>
  </g>
</svg>
