<svg height="519" width="434" xmlns="http://www.w3.org/2000/svg"><g stroke="#000"><path d="m7 7h420v285c0 130-90 220-210 220s-210-90-210-220z" fill="#fff" stroke-width="8"/><g fill-rule="evenodd" stroke="none" transform="matrix(1.107245 0 0 1.107245 577.38015110724 -22.518031)"><path d="m-404.26406 59.28415c1.3776.162667 2.87374.06373 4.28774.09893v5.596267h-4.19014c-.16533 1.041733-.0664 2.252667-.0976 3.364667 2.4844.915333 4.5456 3.432266 4.6432 6.145866.0651 2.516933-1.24093 4.710933-3.39973 6.082l-1.89587.785067 25.0768 47.905063-1.43733.62494h-4.088l-.0987.3268v62.61693l.29733.1h15.62667l.0973-.296v-32.5016l-5.164-6.18107c-.16267-.4896.16933-1.01426.65333-1.2448l43.2264-32.53253c-3.42906-2.19267-5.3224-5.888-4.70506-9.9752.424-3.6316 3.76133-7.13026 7.2624-8.04426.19333-1.8972.0613-3.890674.096-5.85294-2.12534-.164-4.38107-.06373-6.5744-.100267v-7.716133h6.4784c.19333-2.089867.0613-4.283867.096-6.441333h7.096v6.3424c2.12266.165333 4.38.07027 6.572.09893v7.716133h-6.47467c-.19733 1.929733-.0973 3.9584-.0973 5.9532 2.944 1.01294 5.88533 3.7604 6.704 6.802 1.04266 3.26827.0267 6.63814-2 9.12374-.74934.8164-1.568 1.53653-2.416 2.09373.13333.0964.524 0 .75066.0964l42.05467 32.86586c.19467.22787.26.68627.0973.9792l-4.18666 6.37761v32.33693l.292.1h20.37599l.096-.296v-62.65267c-1.34-.16413-2.812-.0664-4.21866-.0951l-1.04534-1.27866 24.65467-47.148403.0667-.0352c-1.92934-.524667-4.024-2.096267-4.80667-4.056-1.04667-2.322933-.524-5.295466 1.27733-7.1288.81734-.817733 1.732-1.504 2.77467-1.832133.0693-1.112.0693-2.289067 0-3.402267-1.37467-.09507-2.77467-.02613-4.184-.02613v-5.596264h4.12c.19597-1.304666.096-2.778666.096-4.151066h5.2v4.052133c1.37733.162667 2.87867.06373 4.28533.09893v5.596267h-4.18533c-.16 1.041733-.064 2.1888-.1 3.266933 2.45333.8152 4.64533 3.3008 4.84133 5.884134.16667 2.683599-1.14533 5.070399-3.4 6.441466-.55866.328133-1.21066.492133-1.79866.8528l24.524 47.28253-1.11067 1.17974h-2.02933l-.092.3268v62.61693c.22533.192.55333.068.84533.1l23.47733 28.252c1.14667.19467 2.45334.096 3.66534.096v7.12934h-5.95467l-.0973.29466v33.09067c.88266.20133 1.864.0973 2.81066.0973v4.25333c1.04934.16267 2.19334.064 3.24134.0987v7.88l.228.12933v1.76667c-7.58534-.916-14.58267 1.99733-18.70534 8.40667-1.40666 2.38666-2.02933 5.09866-1.92933 8.14v83.22533c.65467.16133 1.47067.0627 2.192.0947v7.26c1.07733.196 2.28933.0987 3.43467.0987v14.54933h-248.94602v-14.5494h3.37106c.16147-2.38933.0639-4.90666.0977-7.35866h2.02734l.0976-.30134-.0364-85.472c-.48694-5.492-5-10.72533-10.06907-12.72133-3.0728-1.33867-6.5716-1.76267-10.2356-1.53333v-9.61467h3.10934c.15893-1.40933.0639-2.88133.0964-4.352h2.74213l.10413-.29333v-33.09333c-1.96346-.15867-4.02466-.06-6.052-.096v-7.12934h3.5976l27.0104-28.348h3.72787l.0977-.296v-62.65267c-.68627-.16413-1.47267-.0664-2.22267-.0951l-.68626-1.67186 24.198-46.7904c-2.5196-.785067-4.94147-3.205733-5.13413-5.9492-.2344-2.554666.8516-4.876266 3.03773-6.313733l1.6992-.852933c.0677-1.0768.0677-2.221334 0-3.303334-1.3724-.09507-2.77467-.02613-4.1836-.02613v-5.596267h4.1224c.19667-1.304666.0977-2.778666.12893-4.151066h5.168z"/><path d="m-416.13259 108.53015-1.5716 1.66933-11.02213 12.7864 20.86853-40.386664v42.775994zm187.59532-.0664-8.33733 16.91146-.0373-42.775994 20.932 40.317734zm-168.10572.0664-.98307 1.63546-8.43493 15.50134-.0351-42.806001 20.6324 39.304661zm148.71639.0989-.1-.0989-11.21733 13.70186 20.57066-39.371061v42.806001zm-180.24119 16.3816 11.60947-13.4388 2.18746 4.41533zm29.918-10.0052 1.80213-3.4336 10.268 12.49346zm139.69519 9.12626 10.23733-12.55986 1.896 3.36973zm28.252-8.08066c.58933-1.504 1.43733-3.00787 2.15733-4.4792l11.61067 13.4388zm-153.33039 12.164-21.84467.0339 6.3464-11.70573 15.4356 11.608zm122.49306.0339 15.50133-11.70573 6.408 11.67186zm-168.79599 0 16.32026-10.6588 5.2656 10.62493zm193.61599 0 5.16666-10.6588 16.352 10.62493zm-58.75867 24.526-60.10506.0339 25.40906-30.93227h10.432zm15.99067 0h-13.80267l-21.91066-27.9284 35.67599 27.86066zm-92.1504.0339 36.20267-27.306-22.43734 27.306zm18.868 6.04946h-15.92533l-3.628-4.34893h15.40266zm53.20373.0313h-50.8144l-4.092-4.38027h58.59974zm18.24533 0h-15.95599l3.696-4.38027h15.03999zm-69.78239 47.22146h51.99573l18.244-11.51466h66.124l22.13466 26.5868h-266.56799l25.30347-26.58676h64.5568zm162.61573 16.8348c.0987 1.216.0373 2.51867.064 3.76134h-275.13466l.0351-3.76134z" fill="#0f47af"/><path d="m-322.58233 90.121349h6.40933l.0693 4.3464-6.53866.100133v8.863338c2.80933.61986 5.752 2.90759 6.69866 5.71999.94934 2.42067.26134 5.29694-1.176 7.29694-2.448 3.16933-6.37733 4.34506-10.20266 3.3984-2.64667-.6588-5.364-3.04427-6.17867-5.69134-.98-2.68106-.13333-5.55866 1.53333-7.61986 1.54-1.79947 3.472-2.60934 5.496-3.13933l.064-8.828138-6.60133-.100133v-4.281333l6.60133-.0976.0333-6.345067h3.69333zm-83.38227-33.223999c.0989 1.342533.0325 2.748666.0651 4.1224 1.3724.09773 2.78134.03 4.18494.0664v2.220133h-4.15107v6.344933c1.66667.395867 3.49747 1.504 4.18493 3.235734.58854 1.3112.4908 3.171866-.29826 4.350266-1.36587 2.0912-3.69134 3.007867-6.11067 2.618533-1.638-.3268-3.14053-1.339866-3.98947-2.8816-.7852-1.304666-.72146-3.299466.0976-4.575466.88414-1.567733 2.48174-2.4844 4.12374-2.8112v-6.2812h-4.12374v-2.220133h4.12373l.0963-4.1888zm168.9936 0c.0973 1.342533.0333 2.748666.0587 4.1224 1.34667.09773 2.78534.03 4.18934.0664v2.220133h-4.15067v6.2812c1.76533.3268 3.596 1.501333 4.37867 3.235733.724 1.47.428 3.463467-.48534 4.742133-1.476 1.9636-3.79733 2.712267-6.11466 2.2552-1.60534-.389333-3.30534-1.6016-3.95867-3.205733-.74933-1.894533-.22667-4.151066 1.30667-5.526.85066-.751333 1.832-1.174533 2.88-1.4376v-6.344933h-4.12267v-2.220133h4.12267l.096-4.1888z" fill="#fcdd09"/><path d="m-407.79539 157.90775-20.83067.0325v-27.99077h20.76827zm20.63306 0-18.89866.0325v-27.99077h18.83466zm148.55613 0-18.90267.0325v-27.99077h18.836zm22.56267 0-20.83067.0325v-27.99077h20.79467zm-191.75186 34.826-20.83067.064v-33.15813h20.76827zm20.63306 0-18.89866.064v-33.15813h18.83466zm148.55613 0-18.90267.064v-33.15813h18.836zm22.56267 0-20.83067.064v-33.15813h20.79467zm-135.1828 10.956-16.444-10.36667-.1-.3.032-32.36786h16.512zm51.2068.72h-49.4428v-43.75453h49.4428zm18.40933-11.18267-16.50666 10.42534-.036.0373v-43.0345h16.48zm87.54 68.56667h-263.00506l.0339-33.32267h262.93652zm2.812 4.38373h-268.62959v-2.58533h268.62959zm3.17067 7.98h-275.03599v-6.284h275.03599zm-9.34934 1.76133c-5.56 2.25867-10.568 8.012-10.92 14.12934l-.10533 85.76933h-24.45733l-.12934-62.02667c-.488-7.81733-5.75733-15.336-13.08-18.48133-7.26266-3.26933-16.77333-1.924-22.69466 3.272-4.97067 4.28533-7.55334 9.77867-7.816 16.08933l-.06 61.12-25.704.0267-.1-62.29333c-.52267-8.04267-6.604-16.15467-14.35467-18.73734-7.848-2.908-16.8108-.816-22.66146 4.93867-4.216 4.18533-6.34534 9.224-6.56934 15.04133v61.024l-25.73733.0267-.0973-61.896c-.46-7.58933-5.26666-14.88267-12.36133-18.28133-6.96666-3.49867-16.8072-2.552-22.8268 2.45066-5.4596 4.41734-8.33453 10.33067-8.46733 17.2v60.5l-27.20453.0267-.0976-85.99867c-.4948-5.98533-5.4284-11.70533-10.9232-13.9zm-8.83066 107.292h-238.67493v-5.69333h238.67493zm3.49866 12.84934h-245.61239l.0716-11.14934h245.47946z" fill="#da121a"/><path d="m-414.56752 170.00708c1.0496 1.7.61853 4.05467.724 6.14934v8.69466h-8.69787l.0287-12.784c.1992-1.60133 1.24346-3.172 2.7148-3.95866 1.9648-.948 4.18613.068 5.2304 1.89866zm21.22666-.652c.74733 1.04534 1.17707 2.18934 1.17707 3.56134v11.93466h-8.698l.03-12.88133c.29693-1.472 1.01306-2.97733 2.4844-3.76267 1.6692-.87866 3.85933-.388 5.00653 1.148zm148.68333.26267c.684 1.01467 1.08 2.16 1.04666 3.5v11.73333h-8.764l.0653-12.65066c.228-1.568.944-3.07467 2.41733-3.92267 1.768-1.05067 4.12533-.39733 5.23467 1.34zm21.944.38933c1.20533 1.77067.55333 4.284.75066 6.47334v8.37066h-8.73333l.0667-12.784c.29466-1.60133 1.148-3.30533 2.77866-3.99066 1.92934-.784 4.12134.1 5.13734 1.93066zm-96.5968 4.284c.62133 1.144.91467 2.45467.91467 3.85467l-.064 15.92933c-.096.26134-.32534.492-.624.456l-13.37067-.064-.36133-.392v-17.168c.328-2.41866 2.06133-4.904 4.41466-5.79066 3.33467-1.33867 7.324-.12667 9.09067 3.17466zm-37.47333-.42533c.68666.94933 1.044 2.06 1.044 3.268l-.0307 11.05333c-.196.45734-.68933.52667-1.112.42534l-7.26133-2.748-.19334-.35734.0307-9.35066c.32933-1.54134 1.27867-3.17334 2.84933-3.79734 1.72934-.716 3.62667 0 4.67334 1.50667zm69.2248 0c.72 1.04933 1.08 2.22 1.04533 3.56533l-.032 8.17334-.552.45866-7.29467 2.58134c-.29733-.032-.68666-.19467-.72-.55467l.0333-11.93333c.22933-1.56934 1.30533-3.17334 2.84133-3.79734 1.736-.716 3.60133 0 4.67867 1.50667zm-127.00866-35.90334c1.0496 1.7344.61853 4.05347.724 6.17587v8.7356h-8.69787l.0287-12.81893c.2616-1.66934 1.30986-3.4336 3.0104-4.08854 1.89706-.72133 3.9232.29294 4.9348 1.996zm21.61986-.0351c.65107 1.14454.8476 2.45574.78387 3.8932v11.05334h-8.698l.03-12.95174c.2604-1.5652 1.276-3.13413 2.74733-3.8568 1.86467-.85413 4.08867.0339 5.1368 1.862zm148.71279.2968c1.05067 2.1888.492 5.06907.624 7.616v7.03374h-8.764l.0653-12.72c.228-1.66934 1.244-3.53254 2.97866-4.18747 1.99334-.6836 4.15067.362 5.096 2.25773zm21.552-.16533.656 1.89587v12.9192h-8.66933l.0667-12.85027c.29466-1.638 1.28-3.43747 2.976-4.0572 1.928-.65107 4.02133.29293 4.97066 2.0924zm-208.52652 104.47627c.62107.94933.914 2.09467.98173 3.33333v9.912h-13.3072l.0637-10.76c.29174-2.42133 2.42054-4.83733 4.80467-5.39333 2.91533-.624 5.8868.292 7.45707 2.908zm20.2044 0c.62627 1.048 1.04813 2.22267 1.0156 3.564v9.68133h-13.30853l.0352-10.76c.32546-2.32266 2.28906-4.644 4.54546-5.29733 2.974-.852 6.0808.196 7.71227 2.812zm20.248 0c.684 1.21067 1.11066 2.54667 1.00933 4.12v9.12533h-13.30813l.0352-10.76c.32426-2.32266 2.25653-4.644 4.54293-5.29733 2.97653-.852 6.086.196 7.72067 2.812zm20.24 0c.784 1.308 1.144 2.81067 1.04933 4.51333v8.732h-13.37867l.0653-10.72133c.29734-2.328 2.22534-4.71467 4.54667-5.336 2.94-.852 6.048.196 7.71733 2.812zm19.78399-.652c2.74267 3.69333.97867 9.25067 1.50134 13.89733h-13.37067l.0613-10.72133c.296-2.39067 2.32667-4.71467 4.67734-5.36933 2.68-.74934 5.36133.0653 7.13066 2.19333zm21.056 1.33867c1.048 2.25733.52 5.10266.652 7.716v4.84266h-13.33866l.0333-10.72133c.29867-2.36133 2.288-4.61867 4.544-5.336 3.208-.948 6.67333.42267 8.10933 3.49867zm20.11147-.29867c.78267 1.31467.71867 2.97867.78267 4.64667v8.21066h-13.3408l.0333-10.72133c.26133-2.36133 2.25733-4.61867 4.54933-5.336 3.136-.98 6.408.36133 7.97547 3.2zm20.268.10667c.66133 1.33733.82267 2.872.75867 4.54v8.21066h-13.37734l.0693-10.72133c.35733-2.00267 1.59466-4.02933 3.596-4.944 1.73066-1.016 4.41466-.84933 6.17866.068 1.112.58667 2.22267 1.7 2.77467 2.84667zm20.24533 0c.652 1.304.72133 2.872.72133 4.47866v8.272h-13.34266l.0627-10.66c.22934-2.452 2.32667-4.776 4.67867-5.43066 3.13733-.88267 6.344.49333 7.88 3.34zm20.012-.36134c.72267 1.10934.916 2.452.95067 3.86134v9.25066h-13.34134l.0267-10.66c.264-2.452 2.36133-4.776 4.71467-5.43066 3.00933-.88267 6.048.364 7.64933 2.97866zm20.40667.25467c.62133 1.14933.81733 2.48667.78266 3.93067v8.92666h-13.34266l.036-10.66c.22666-2.42266 2.35066-4.808 4.67733-5.43066 3.10267-.81867 6.27733.42533 7.84667 3.23333zm20.17066-.0947c.59067 1.10934.916 2.38667.85334 3.796v9.156h-13.376l.068-10.66c.32666-2.38933 2.32133-4.84 4.67466-5.43066 3.04267-.81867 6.212.32666 7.78 3.13866z" fill="#161413"/><path d="m-374.99566 307.96522c.684 1.99866 1.27333 4.088 1.36667 6.38v61.44533h-40.21453l.0651-62.36267c.4896-7.552 6.60293-15.07333 13.86066-17.232 7.55347-2.38666 15.69947-.19733 21.0608 5.62534 1.66667 1.89466 3.00933 3.92133 3.86133 6.144zm69.06133-.91467c.94533 2.156 1.60267 4.48133 1.73067 6.99867l.0667 61.67199-.0667.096h-40.156v-61.99466c.45866-7.328 5.72-14.48667 12.65333-17.16933 7.58933-3.07467 16.712-1.01334 22.23733 5.132 1.53867 1.604 2.58267 3.40133 3.53467 5.26533zm68.96266-.94667c1.40534 2.71734 2.15867 5.72 2.256 9.02667v60.66h-40.22266l.032-62.19867c.62133-6.66933 4.808-13.08 11.02-16.184 6.18533-3.40133 15.20933-2.716 20.73333 1.56667 2.552 1.86533 4.87467 4.448 6.18133 7.12933zm-195.94345-63.07413c.66146.88.98826 1.89467 1.0508 3.04v8.01067l-9.97267.064v-8.66534c.164-1.56933 1.2096-3.13733 2.68227-3.85866 2.05866-1.076 4.806-.492 6.2396 1.40933zm20.2136 0c.65613.88 1.01426 1.89467 1.04813 3.04v8.01067l-9.94267.064v-8.66534c.16534-1.56933 1.1796-3.13733 2.68227-3.85866 2.02867-1.076 4.776-.492 6.21227 1.40933zm20.23946 0c.65507.88 1.0144 1.89467 1.04773 3.04v8.01067l-9.97599.064v-8.66534c.2004-1.56933 1.21346-3.13733 2.71866-3.85866 2.02867-1.076 4.77347-.492 6.2096 1.40933zm20.24507 0c.652.88.97866 1.89467 1.04666 3.04v8.01067l-9.97733.064v-8.66534c.19733-1.47066 1.08-2.84666 2.35867-3.66533 2.02533-1.37333 5.06666-.74933 6.572 1.216zm20.26933.0973c.62666.88134 1.04933 1.85867 1.01333 3.03867v7.91467l-9.97067.064v-8.62934c.13334-1.50666 1.04534-2.84666 2.35467-3.70133 2.02933-1.40267 5.16667-.74933 6.60267 1.31333zm20.24133 0c.624.88134 1.05067 1.85867.98 3.03867v7.91467l-9.94.064v-8.62934c.13333-1.50666 1.04667-2.84666 2.32533-3.70133 2.06267-1.40267 5.2-.74933 6.63467 1.31333zm20.176-.0973c.58933.908 1.11467 1.85867 1.048 3.04v8.01067l-9.97333.064v-8.62934c.19866-1.73733 1.408-3.30666 3.00933-4.028 2.06-.916 4.54667-.26 5.916 1.54267zm20.24267 0c.58933.908 1.084 1.85867 1.04933 3.04v8.01067l-9.976.064v-8.62934c.13067-1.672 1.372-3.24266 2.90667-3.99333 2.064-.97733 4.58533-.26 6.02 1.508zm20.27466.0267c.62.88133 1.044 1.868 1.01467 3.01333v8.01067l-9.97467.064v-8.62934c.132-1.672 1.37467-3.24266 2.87734-3.99333 2.09466-.97733 4.676-.32667 6.08266 1.53467zm20.24 0c.68933.952 1.01333 2.00266.98533 3.20666v7.81734l-9.94133.064v-8.568c.0947-1.532 1.01467-2.84534 2.31867-3.76267 2.02933-1.37333 5.13733-.74933 6.63733 1.24267zm20.86133 1.112.36134 1.73333v8.17867l-9.97334.064v-8.568c.19867-1.504.98134-2.87867 2.35734-3.76267 1.5-.944 3.85733-1.012 5.33066.0693.884.556 1.53334 1.436 1.924 2.28534zm20.24534 0 .35733 1.73333v8.17867l-9.97333.064v-8.568c.16533-1.532 1.04533-2.944 2.45733-3.79067 1.46933-.888 3.788-.984 5.22533.0973.85467.556 1.50534 1.436 1.93334 2.28534zm-111.21333-69.25336c.62266.94533.81733 2.088.78266 3.32933v14.58667l-11.016.068.0613-16.32c.29733-1.572 1.604-3.13734 3.076-3.82534 2.452-1.144 5.624-.292 7.096 2.16134zm-36.984.324.45866 1.30533c.096 3.30533 0 6.67467.0307 10.01067l-5.26533-1.896v-8.01467c.0987-1.17733.81866-2.32 1.93066-2.77867 1.208-.424 2.28934.36 2.84534 1.37334zm68.79866-.58934c.624.72134.85334 1.604.85334 2.58267v7.39333l-5.232 1.992v-9.97333c.0933-1.11333.72133-2.12533 1.696-2.67867.952-.46133 2.02933-.1 2.68266.684zm-127.46466-4.44533c.6888.78533 1.08334 1.66667 1.04814 2.74533v10.23734l-5.35814.032v-10.72934c.0951-1.17333.7488-2.41466 1.92587-2.94266.85027-.35467 1.7656 0 2.38413.65733zm22.33853 1.01467.35547 1.436c.0677 3.50133.0677 7.06266 0 10.564h-5.35946v-10.824c.1316-1.14534.7852-2.32 1.89586-2.848 1.27734-.45867 2.64973.42666 3.10813 1.672zm148.5528 0 .36266 1.59866v10.36934l-5.36533.032v-10.86c.12933-1.14.81867-2.284 1.89467-2.812 1.27733-.48534 2.58533.528 3.108 1.672zm21.51733-.264.45733 1.30666.032 10.92534-5.36533.032v-10.72934c.10267-1.24.82133-2.516 2.02667-2.97066 1.14666-.32667 2.328.356 2.84933 1.436zm-192.50372-32.89627c.81773.78386 1.08066 1.79693 1.1432 2.90893v10.1692l-5.35814.0339v-10.6588c.0951-1.21094.78134-2.48574 1.99227-2.97534.78387-.2968 1.6328 0 2.22267.52214zm22.33199.91533.45707 1.33987.0364 10.82293-5.39586.0339v-10.75787c.1316-1.01427.61853-1.9284 1.40373-2.58453.52467-.392 1.30987-.52094 1.9648-.29174.5872.2644 1.24346.82027 1.53386 1.43747zm148.06773-.71867c.62.8476 1.01467 1.79947.94933 2.91267v9.9688l-5.36533.0339v-10.8568c.196-1.1744.88133-2.4856 2.09333-2.84374.91467-.2304 1.69867.12894 2.32267.7852zm21.31467-.29306c.856.71746 1.18133 1.66546 1.27866 2.7136v10.46093l-5.36533.0339v-10.724c.10267-1.21093.82133-2.42053 2.00133-2.91013.716-.2292 1.53334-.10027 2.08534.42573z" fill="#fff"/></g></g></svg>