<?xml version="1.0" encoding="UTF-8" standalone="no"?>
<svg
   inkscape:version="1.1.1 (3bf5ae0d25, 2021-09-20)"
   sodipodi:docname="CoA St. Johann.svg"
   id="svg2130"
   version="1.1"
   viewBox="0 0 496.60383 541.97797"
   height="541.97797"
   width="496.60385"
   xmlns:inkscape="http://www.inkscape.org/namespaces/inkscape"
   xmlns:sodipodi="http://sodipodi.sourceforge.net/DTD/sodipodi-0.dtd"
   xmlns="http://www.w3.org/2000/svg"
   xmlns:svg="http://www.w3.org/2000/svg">
  <defs
     id="defs2124" />
  <sodipodi:namedview
     inkscape:pagecheckerboard="false"
     fit-margin-bottom="0"
     fit-margin-right="0"
     fit-margin-left="0"
     fit-margin-top="0"
     lock-margins="true"
     units="px"
     inkscape:snap-smooth-nodes="true"
     inkscape:snap-object-midpoints="true"
     inkscape:window-maximized="1"
     inkscape:window-y="-11"
     inkscape:window-x="-11"
     inkscape:window-height="1506"
     inkscape:window-width="2560"
     showgrid="false"
     inkscape:document-rotation="0"
     inkscape:current-layer="layer1"
     inkscape:document-units="px"
     inkscape:cy="270.66667"
     inkscape:cx="248"
     inkscape:zoom="1.5"
     inkscape:pageshadow="2"
     inkscape:pageopacity="0"
     borderopacity="1.0"
     bordercolor="#666666"
     pagecolor="#333333"
     id="base"
     showguides="true"
     inkscape:guide-bbox="true"
     inkscape:snap-intersection-paths="true"
     inkscape:object-paths="true"
     inkscape:snap-grids="false"
     inkscape:snap-global="false"
     inkscape:lockguides="false"
     guidecolor="#00ffff"
     guideopacity="0.49803922"
     inkscape:snap-midpoints="true"
     inkscape:snap-to-guides="true" />
  <g
     id="layer1"
     inkscape:groupmode="layer"
     inkscape:label="st._johann"
     transform="translate(-72.253149,-29.355338)">
    <g
       id="g64465"
       inkscape:label="coa">
      <path
         style="opacity:1;fill:#005198;stroke:#000000;stroke-width:12;stroke-miterlimit:4;stroke-dasharray:none"
         d="M 562.85701,35.355338 V 339.41126 c 0,98.2469 -99.30512,225.92207 -242.30193,225.92207 -142.99681,0 -242.301931,-127.67517 -242.301931,-225.92207 V 35.355341 Z"
         id="path46929"
         sodipodi:nodetypes="cszscc"
         inkscape:label="coa-0" />
      <g
         id="g64407"
         inkscape:label="horse"
         transform="matrix(5.1563531,0,0,-5.1563531,-2172.9671,4087.243)">
        <path
           d="m 483.0621,782.0096 c 1.354,0.385 0.677,-0.58 1.159,-1.162 l 4.647,-0.869 -0.288,-0.872 c 1.885,-0.341 3.432,-1.646 4.93,-2.903 l -0.58,-0.58 c 0.438,-0.774 1.305,-0.676 1.741,-1.451 -0.336,0 -0.677,0.093 -0.869,-0.292 0.29,-0.821 1.352,-1.498 1.746,-2.031 l -0.877,-0.29 1.452,-2.613 -0.87,-0.58 2.324,-4.067 c -0.385,0.1 -0.965,-0.241 -1.16,0.292 -0.487,-1.307 1.062,-2.467 2.031,-3.482 l -2.031,-0.58 c 0.098,-1.454 0.675,-2.666 0.867,-4.067 -0.918,0.098 -1.546,0.775 -2.321,1.16 -0.674,-1.208 0,-2.611 0.29,-3.773 l -1.451,0.29 c -0.531,-0.677 -0.197,-1.739 -0.292,-2.611 -1.06,0.531 -1.354,1.16 -2.319,2.032 -0.533,-0.872 -0.195,-2.129 -0.29,-3.195 l -1.456,1.451 c -0.628,-0.631 -0.628,-1.549 -0.29,-2.321 l -0.867,0.29 c -2.07471,-3.52439 -0.65463,-7.33616 1.739,-10.74 4.20552,-5.98043 10.791,-11.371 14.227,-18.289 3.529,-4.793 12.869,-7.455 10.16,-15.389 -0.867,-2.998 -3.869,-4.644 -5.806,-6.968 0.098,0.293 -0.146,0.436 -0.289,0.58 -2.273,-0.723 -4.209,-2.418 -6.098,-4.062 l -0.292,1.451 c -1.985,-0.387 -3.096,-2.661 -4.645,-3.192 -0.725,-0.97 -1.015,-2.131 -0.867,-3.485 -0.728,2.323 -2.325,5.031 -0.869,7.547 0.289,1.308 2.029,2.325 1.736,3.485 0.195,2.079 1.985,4.452 4.065,5.806 l -1.162,0.292 c 1.162,3.144 4.744,6.047 2.611,9.868 h -0.577 c -1.018,-3.724 -4.401,-6.724 -8.129,-7.547 -0.918,-2.516 0.338,-5.614 1.161,-8.129 -3.918,-3.968 -10.014,-2.711 -13.932,-6.676 -4.401,-0.389 0.528,-5.903 -4.357,-6.098 -1.642,-0.192 -3.095,-0.821 -4.934,-0.579 1.595,3.58 3.631,6.965 6.1,10.162 3.142,2.224 7.35,2.029 9.866,5.804 -0.387,3.051 -2.562,5.323 -3.48,8.129 -2.567,-1.985 1.447,-5.516 -1.454,-6.678 -4.452,-1.549 -9.437,0.826 -13.355,-2.031 -1.303,0.918 -2.562,-0.726 -3.195,-1.741 0.774,-1.405 -0.042,-3.147 -1.452,-3.777 l -6.385,0.294 c 2.82094,3.23804 5.60274,7.43559 9.35871,9.54454 1.90807,0.75738 4.11911,0.44844 6.61129,1.19746 1.28076,0.38493 2.416,1.109 3.485,2.029 0.675,4.647 -4.118,9.773 0.865,13.353 -5.609,2.518 -11.465,7.452 -14.512,13.063 -3.972,2.226 -7.74,4.939 -11.905,6.678 -0.823,-2.129 -1.065,-5.417 0.58,-7.255 -0.674,-1.79 1.016,-3.195 2.034,-3.775 1.014,0.482 1.595,0.482 2.613,0 0.965,-1.644 1.695,-3.967 1.454,-6.388 -4.695,0.533 -6.875,4.16 -10.164,7.55 0.65083,4.1606 -0.82467,7.68307 -1.16025,11.0336 0.10533,1.65726 0.83623,3.14943 2.90325,4.3504 3.29747,-0.7284 6.94822,-1.63344 9.58,-2.029 l 0.578,0.58 c -0.967,3.192 -2.419,6.144 -3.485,9.288 -2.802,1.016 -6.533,0.728 -8.998,-0.867 -1.642,0.287 -2.708,-0.292 -3.485,-1.454 0.535,-0.774 0.195,-1.936 0.293,-2.905 -1.79,-1.354 -3.727,-2.418 -5.806,-3.191 0.23968,2.37309 0.5565,4.6176 1.159,6.386 1.93633,2.10669 3.87267,4.01894 5.809,5.518 5.69127,-0.69445 10.31587,2.88347 15.094,0 1.452,-2.131 2.273,-4.503 4.357,-6.39 2.711,-0.338 3.191,2.757 4.355,4.355 2.756,3.287 6.726,4.307 8.124,8.418 -1.934,1.788 -3.66484,-0.13205 -5.221,-1.161 0.095,-2.175 -2.178,-1.452 -3.485,-2.031 0.436,1.982 -1.883,1.208 -2.613,1.451 -3.291,5.226 5.179,6.968 6.68,11.322 l 2.902,2.321 -0.871,3.195 1.741,-0.872 0.294,2.323 c 0.48936,-0.76967 0.68261,-0.90525 1.15727,-1.17778 1.112,-0.63845 2.67355,-0.54655 4.06473,-0.27322"
           style="fill:#000000;fill-opacity:1;fill-rule:nonzero;stroke:none"
           id="path999"
           sodipodi:nodetypes="ccccccccccccccccccccccccccsccccccccccccccccccccccccccccscccccccccccccccccccccccccccccccccc"
           inkscape:label="horse-0" />
        <path
           id="path1023"
           style="fill:#ffffff;fill-opacity:1;fill-rule:nonzero;stroke:none"
           d="m 481.9003,721.0437 c -2.711,-3.483 2.713,-5.759 0.58,-9.001 -1.549,-2.223 2.323,-7.45 -2.903,-6.385 -3.29,0.484 -7.109,0.533 -9.871,-1.162 -2.177,0.582 -3.531,-1.498 -4.646,-2.901 0.102,-0.776 1.069,-1.548 0.292,-2.323 -1.064,-1.066 -3.239,-0.389 -4.357,-0.579 1.262,2.32 4.795,5.177 6.678,7.257 3.969,1.354 8.855,0.529 11.904,4.064 -0.244,4.063 -3.534,9.435 0.582,12.771 0.726,-0.289 2.852,-0.433 1.741,-1.741 m -20.0305,36.8686 c 1.06,-2.372 3.919,-5.273 0.58,-7.547 l -0.292,-0.29 c -2.947,2.516 -1.501,9.919 -7.26,9.001 -3.236,0.287 -5.515,-1.644 -8.706,-1.454 -0.871,-1.447 -4.113,-2.418 -2.03,-4.646 -0.342,-1.016 -1.79,-1.837 -2.904,-2.322 -0.871,3.68 3.096,6.534 5.513,8.709 4.647,-0.146 8.904,1.454 13.358,0.875 z m 19.451,22.3537 c 1.206,-1.062 3.098,-0.387 4.642,-0.58 0.099,-0.436 -0.385,-0.579 -0.582,-0.871 1.453,-1.018 3.631,-0.293 4.938,-1.742 -0.871,0.244 -1.354,-0.387 -2.028,-0.579 0.964,-0.921 2.513,-0.531 3.48,-1.454 l -0.87,-0.872 c 0.244,-0.823 1.354,-0.774 2.032,-1.159 l -0.872,-0.872 c 0.728,-0.431 1.454,-0.775 2.031,-1.452 -0.336,-0.725 -1.885,0.29 -2.321,-0.871 1.305,-0.677 2.757,-1.498 3.482,-2.903 -0.387,-0.436 -1.646,0.825 -2.32,0.292 l 2.32,-3.775 c -0.725,-0.338 -0.964,0.582 -1.449,0.87 -0.341,-1.014 1.16,-2.031 1.449,-3.193 l 0.295,-2.321 -2.905,3.483 c -0.146,-1.839 1.449,-3.675 0.872,-6.096 l -0.872,0.292 -0.29,-2.036 c -0.292,1.113 -1.162,1.939 -1.746,2.903 -0.626,-1.062 0.053,-2.708 -0.58,-3.772 l -0.579,1.161 c -0.921,-1.646 -1.695,-2.615 -2.321,-4.354 0.194,3.29 2.128,6.58 3.192,9.868 1.303,4.841 0.436,10.211 -2.613,13.935 -1.933,3.051 -5.708,3.58 -6.962,6.388 h 0.867 z m -0.5774,-3.7725 c 0.867,1.449 1.887,-0.243 2.903,-0.292 2.416,-1.693 4.589,-4.449 5.514,-7.26 2.805,-8.806 -6.388,-14.415 -3.198,-22.641 1.649,-10.645 13.019,-15.774 16.838,-25.544 3.146,-5.036 15.628,-9.245 9.293,-17.422 l -0.582,-0.58 c -0.097,0.58 0.246,1.354 -0.292,1.741 -1.255,-2.854 -4.062,-4.983 -6.965,-6.388 -0.336,0.436 0.626,1.939 0.287,2.614 -1.546,-1.352 -2.27,-2.757 -4.06,-3.483 l 0.29,0.869 c -1.597,-0.097 -3.193,-2.367 -4.352,-3.77 -0.392,3.726 3.239,6.339 6.091,9.289 -0.918,0.292 -1.98,-0.872 -3.192,-0.872 1.015,3 5.713,4.016 5.223,7.259 l -1.446,-1.161 c 0.823,2.513 2.077,5.224 1.159,8.129 -0.68,0.772 -0.916,1.985 -2.031,2.321 -1.693,-4.644 -5.029,-8.321 -9.868,-9.581 -0.733,-2.71 0,-5.562 1.159,-7.837 -3.728,-3.002 -9.05,-3.387 -13.065,-6.387 -1.014,-0.047 -1.837,-1.208 -2.319,-2.031 -0.392,-1.693 0.967,-3.58 -1.166,-4.067 -1.255,0.341 -1.929,-0.627 -3.191,-0.288 1.262,2.565 3.726,4.596 4.642,7.257 3.826,2.031 8.375,3.483 11.032,6.966 -1.449,4.792 -3.047,9.534 -6.096,13.647 -0.60562,1.02124 -0.75026,1.67483 -0.579,2.321 0.694,2.61846 3,4.936 2.903,7.547 -1.018,-0.726 -1.498,-2.37 -2.324,-3.193 -6.675,2.613 -12.921,6.096 -17.127,12.774 1.546,0 2.949,0.969 3.777,2.031 -0.779,0.438 -1.697,-0.482 -2.613,-0.578 -5.857,0.87 -9.875,6.242 -15.679,7.255 -1.645,-2.759 -0.679,-6.531 0.29,-9.288 -0.677,-2.177 1.453,-3.242 2.614,-4.647 1.113,-0.046 2.369,1.259 2.9,-0.287 -0.239,-0.969 0.394,-1.549 0.586,-2.323 -4.118,0.051 -5.665,3.631 -8.135,6.385 0.152,3.58 -0.142,6.97 -0.867,10.16 0.388,1.021 0.917,2.178 2.028,2.616 4.067,-0.921 8.713,-3.144 12.778,-1.454 0.048,1.162 -1.352,0.146 -1.744,0.874 l 3.195,5.226 c 2.416,1.206 5.66,1.109 7.837,2.321 -0.967,0.193 -1.739,0.819 -2.9,0.58 1.4,5.029 7.398,6.388 9.58,11.319 1.739,0.921 3.87,1.695 4.647,3.778 0.334,1.741 -0.872,2.854 -1.746,4.062 -0.531,-1.354 1.113,-3.29 -0.292,-4.647 -2.806,-3.58 -6.917,1.115 -9.579,-2.9 -1.349,-0.339 -0.431,-2.565 -2.321,-1.742 0.288,0.629 0.775,1.21 0.578,2.031 -0.916,0.195 -2.129,-0.774 -3.193,-1.159 -0.195,0.772 -0.821,1.354 -0.577,2.323 2.515,2.611 6.091,4.547 7.544,7.835 0.78644,0.67234 2.72351,2.4215 3.778,1.161 1.4,0.97 -0.246,2.129 0.287,3.485 1.21,-1.21 0.874,-3.049 1.746,-4.354"
           inkscape:label="horse-a" />
        <path
           id="path1015"
           style="fill:#000000;fill-opacity:1;fill-rule:nonzero;stroke:none"
           d="m 468.5474,767.4926 -0.288,-0.29 v 1.452 c 0.531,-0.193 0.191,-0.775 0.288,-1.162 m 8.4166,7.8371 c -0.382,-0.918 -1.303,-0.434 -2.031,-0.582 -0.241,1.164 1.546,1.646 2.031,0.582"
           inkscape:label="face" />
      </g>
      <g
         id="g64393"
         inkscape:label="ear"
         transform="matrix(5.1563531,0,0,-5.1563531,495.62713,336.12245)">
        <path
           d="m 506.8651,768.4087 c 1.14079,2.1349 -1.14842,8.02059 -1.15,11.238 0.87444,-2.90682 1.39074,-5.31342 1.83416,-7.46102 0.44698,-2.16493 2.14884,-3.92498 3.64184,-5.50898 1.157,1.92 2.5,4.276 3.168,6.629 1.347,-2.163 1.829,-4.758 3.174,-6.919 3.59978,3.77182 3.81789,7.40265 5.764,12.973 -0.40096,-5.7796 -2.884,-7.928 -1.73,-12.398 1.27118,3.52373 2.29627,7.85431 3.46,12.11 -0.53587,-6.50982 -3.46,-12.349 -4.037,-19.024 l 0.288,-0.29 c 1.97,5.477 3.076,11.341 4.616,17.007 -0.77,-8.217 -4.134,-15.421 -4.904,-23.633 l 0.288,-0.293 c 0.289,0.772 4.09675,16.12382 4.38875,16.88882 0.385,-2.592 -4.67675,-20.24782 -4.96175,-23.22782 l 0.573,-0.575 c 1.1922,4.44928 2.60709,9.05834 4.331,17.005 -0.6442,-8.87704 -4.29734,-16.96491 -4.619,-23.923 1.53862,5.04362 2.85405,10.73205 4.324,16.139 0.1434,-0.7923 0.32813,-1.56394 0,-2.592 -2.43995,-9.07541 -4.22201,-16.77995 -6.339,-25.078 -1.013,-2.544 -3.457,0.385 -4.616,-1.727 l -0.288,-5.479 h -0.575 c -0.816,1.922 0.531,4.758 -1.148,6.341 -1.924,-0.433 -3.798,0.531 -4.328,2.307 -1.586,2.785 -0.193,5.716 -1.438,8.649 -1.46196,5.32309 -3.55792,11.76684 -4.037,18.157 1.40594,-5.71332 2.83458,-11.61952 4.037,-16.14 l 0.573,0.577 c -1.007,7.492 -3.747,14.6 -4.32,21.904 0.958,-5.43 2.595,-10.617 4.03,-15.852 v 4.611 c -1.338,6.437 -3.311,12.632 -4.03,19.312 1.104,-5.576 2.595,-11.002 4.03,-16.432 0.053,7.879 -3.36,15.039 -3.74,23.061 1.243,-5.286 2.064,-10.763 3.74,-15.854 l 0.577,1.439 c -0.721,5.961 -3.169,11.531 -3.459,17.297 0.962,-3.749 1.637,-7.64 2.882,-11.238"
           style="fill:#000000;fill-opacity:1;fill-rule:nonzero;stroke:none"
           id="path911"
           sodipodi:nodetypes="ccscccccccccccccccccccccccccccccccccccccc"
           inkscape:label="ear-0"
           transform="translate(-517.5352,-727.4755)" />
        <path
           id="path987"
           style="fill:#fcdb00;fill-opacity:1;fill-rule:nonzero;stroke:none"
           d="M 0,0 C -0.767,0 -1.924,-0.19 -2.017,0.867 -1.679,3.172 -0.144,3.747 1.44,5.479 2.02,3.844 1.393,1.442 0,0 m -6.0563,0.2876 c -0.9146671,-0.84233317 -1.7562608,-0.009089 -2.302,0.58 -1.0024616,2.294044 -1.2824076,4.0720055 -1.442,5.764 2.258,-1.538 4.37,-3.65 3.744,-6.344 m 3.1742,2.307 c -1.725,-0.624 -2.4499355,0.9943226 -2.882,1.73 -0.197,2.404 1.343,4.036 2.022,6.054 0.716,-2.402 3.598,-5.382 0.86,-7.784 M 0,6.3394 c -1.781,-0.142 -1.1442581,2.2981936 -1.152,2.884 0.69163194,1.226474 1.87674289,2.354251 3.172,3.46 0.384,-1.92 0,-5.043 -2.02,-6.344 m -6.0563,0.867 c -0.331,-0.914 -1.486,-0.624 -2.017,-0.287 -1.584,1.442 -1.489,3.603 -1.44,5.766 1.637,-1.394 3.94,-2.741 3.457,-5.479 m 4.0392,2.8843 -1.444,3.167 c -1.297,-0.477 -0.863,-2.253 -1.726,-3.167 -1.296,2.595 1.246,4.271 1.44,6.627 0.816,-1.825 2.977,-4.032 1.73,-6.627 m 2.3094,2.8798 c -2.217,-0.67 -1.832,2.115 -1.444,3.172 0.45669998,0.656133 1.61937989,1.78292 3.171,3.169 0,-1.729 0.288,-4.852 -1.727,-6.341 m -6.3486,0.5797 c -0.331,-0.721 -1.296,-0.77 -1.73,-0.292 -1.342,1.78 -2.258,4.039 -1.437,6.344 2.061,-1.348 3.988,-3.604 3.167,-6.052 m 4.3291,3.1671 c -0.965,0.721 -0.965,2.404 -1.734,3.46 l -1.726,-3.168 c -0.774,2.402 1.148,4.417 1.726,6.627 1.11,-2.064 2.209,-4.515 1.734,-6.919 m 2.0195,3.4595 c -0.584,-0.097 -1.113,0.049 -1.444,0.579 -0.388,2.447 2.158,3.937 3.459,5.473 0.19,-2.013 -0.051,-4.802 -2.015,-6.052 m -6.0563,0.2921 c -0.624,-0.672 -1.686,-0.672 -2.309,0 -1.243,1.679 -1.197,3.84 -1.151,6.052 1.586,-1.828 4.037,-3.075 3.46,-6.052 m 4.0368,3.1672 c -0.772,0.96 -0.726,2.307 -1.734,3.172 l -1.44,-2.885 c -1.011,1.396 0.674,4.179 1.44,6.052 1.008,-1.679 2.307,-4.081 1.734,-6.339 M 1.44,27.383 C 0.911,26.711 0.292,26.33 -0.58,26.521 c -1.296,0.862 -0.4571104,2.203422 0,3.171 0.6411777,0.800422 1.51470164,1.717018 2.885,2.882 0.668,-1.539 0.097,-3.747 -0.865,-5.191 m -6.9188,0.8649 c -0.236,-0.914 -0.909,-2.261 -2.017,-1.44 -1.44,1.776 -2.017,3.891 -1.728,6.339 1.971,-1.055 2.787,-3.121 3.745,-4.899 m 4.0391,2.0196 c -1.394,0.477 -0.721,2.356 -2.024,3.167 -0.622,-1.006 -0.668,-2.207 -1.438,-3.167 -0.719,2.402 1.155,4.417 1.728,6.627 0.577,-2.21 2.453,-4.225 1.734,-6.627 m 2.3023,3.1673 c -0.80503181,-0.407123 -1.1055547,-0.18361 -1.438,0 -1.103,2.741 1.684,4.614 3.168,6.631 0.287,-2.546 -0.288,-4.753 -1.73,-6.631 M -5.764,36.319 c 0.2659671,-1.025247 0.3415221,-1.936247 0,-2.597 -1.73,-1.008 -2.453,1.586 -3.172,2.597 -0.7437937,1.896794 -0.490887,2.796887 -0.288,3.747 1.389,-0.628 2.305,-2.5 3.46,-3.747 m 4.3243,1.44 c -0.721,0.29 -1.108,1.778 -1.734,2.594 l -1.433,-2.879 c -0.731,1.966 0.665,3.744 1.433,5.472 1.013,-1.535 1.586,-3.265 1.734,-5.187"
           inkscape:label="ear-o"
           sodipodi:nodetypes="ccccccccccccccccccccccccccccccccccccccccccccccccccccccccccccccccccccccccccccccc" />
      </g>
    </g>
  </g>
</svg>
