<svg height="603.354" viewBox="-5 -5 499.99991 603.354" width="499.99991" xmlns="http://www.w3.org/2000/svg"><path d="m3.6578954 3.6475525h241.3419546 241.34198v337.4458975c1.49311 182.28621-156.20537 248.613-241.34198 248.613-83.64592 0-242.8374947-66.32679-241.3419546-248.613z" display="block" fill="#29d" stroke-width="1.21589"/><path d="m111.56435 4.472238 369.16708 394.578502-26.28652 75.30393-49.24656 54.2592-402.4600363-430.163176-.30741-95.918656z" fill="#fcdd09"/><g fill="#da121a" stroke="#000e00" transform="matrix(6.2373892 6.6667369 -6.6667369 6.2373892 758.48373 -1394.4973)"><path d="m412.76758 622.16211v22.76758h13.16992v-6.29297h-5.13477v-5.08984h5.13477v-5.13477h7.85547v5.13477h5.13476v5.08984h-5.13476v6.29297h13.17187v-22.76758z" stroke-width="1.438502" transform="scale(.26458333)"/><path d="m124.43945 90.162109c-7.91536.112056-15.81218 3.041398-22.01172 8.841797-13.225933 12.373904-13.923081 33.323194-1.54882 46.548824.004.005.008.009.0117.0137 2.59453 2.76577 6.43887 3.50896 9.76758 5.2207-9.58156 12.53043-9.5788 30.32063 1.53516 42.19922 12.37385 13.226 33.31345 13.93467 46.53906 1.56055.004-.004.008-.008.0117-.0117 3.7916-3.55359 6.21508-7.88325 7.5957-12.58008l239.46097 255.94527 14.62305-13.67969-239.45508-255.93945c4.77017-1.06782 9.24534-3.19746 13.03711-6.73633.005-.004.009-.008.0137-.0117 13.22605-12.37392 13.9231-33.32513 1.54883-46.55078h-.002c-11.11443-11.87988-28.88933-13.06777-42.0293-4.33789-1.4831-3.42941-1.96669-7.31013-4.54688-10.08008-.004-.004-.008-.008-.0117-.0117-6.57365-7.026278-15.56833-10.517617-24.53907-10.390621zm1.14844 12.816411c5.10968.1679 10.15569 2.30466 13.96484 6.36914 3.00126 3.22121 4.87175 7.33674 5.29883 11.71875.56373 5.69055 7.71031 7.88033 11.36524 3.48242.49858-.60162 1.03371-1.17597 1.5957-1.71289 8.14151-7.6174 20.72275-7.18661 28.33984.95508 7.61736 8.14142 7.20032 20.71095-.9414 28.32812-5.78612 5.39974-14.15212 6.89693-21.44727 3.82813-5.12533-2.14438-10.37968 2.77036-8.58203 8.02734 2.57799 7.48542.51876 15.74425-5.25781 21.1582-8.14141 7.61725-20.71101 7.20017-28.32813-.9414-7.61726-8.14147-7.21188-20.72473.92969-28.3418.57287-.52222 1.17333-1.01396 1.80273-1.4668 4.6474-3.34678 2.944-10.64007-2.70507-11.58203-4.34324-.72122-8.31784-2.84365-11.33008-6.05469-7.61733-8.14139-7.19821-20.71105.94336-28.32812 4.0685-3.80657 9.24188-5.60736 14.35156-5.43945z" stroke-width="3.475" transform="matrix(.07483334 -.07998446 .07998446 .07483334 54.00415 165.04756)"/></g><g stroke="#000"><path d="m404.77177 528.1579-401.5919963-429.235386z" fill="#0f0" stroke-linecap="square" stroke-linejoin="round" stroke-width="5.460363"/><path d="m109.86944 2.85185 369.97315 395.44008z" fill="#0f0" stroke-linecap="square" stroke-linejoin="round" stroke-width="5.460363"/><path d="m6.01 6h198.49 198.49v277.53c1.228 149.92-128.47 204.47-198.49 204.47-68.794 0-199.72-54.55-198.49-204.47z" display="block" fill="none" stroke-linecap="round" stroke-width="5.999758" transform="matrix(1.2158899 0 0 1.2158899 -3.649566 -3.647817)"/><path d="m99.610303 321.54554v47.62499h-47.62499v48.80587h47.62499v47.62499h48.805867v-47.62499h47.62499v-48.80587h-47.62499v-47.62499z" fill="#fff" stroke-linecap="square" stroke-width="3.816561"/><path d="m309.30838 56.545292h135.77773v135.777738h-135.77773z" fill="#fff" stroke-linecap="square" stroke-width="3.474776"/><g fill="none" stroke-width="3.5" transform="matrix(.99279323 0 0 .99279323 -106.42047 -25.477612)"><path d="m419.48802 218.64033 135.37996-135.379964"/><path d="m419.40452 83.276183 135.8628 135.862797"/></g><path d="m334.68814 81.925056h85.0182v85.018204h-85.0182z" fill="#fff" stroke-linecap="square" stroke-width="3.474776"/></g></svg>