<?xml version="1.0" encoding="UTF-8" standalone="no"?>
<svg id="svg2" xmlns:rdf="http://www.w3.org/1999/02/22-rdf-syntax-ns#" xmlns="http://www.w3.org/2000/svg" viewBox="0 0 550.00001 600.00001" height="600" width="550" version="1.1" xmlns:cc="http://creativecommons.org/ns#" xmlns:dc="http://purl.org/dc/elements/1.1/">
 <g stroke="#000000">
  <path id="path6073" d="m4.9295 6.6915 0.03 26.332 3.355 304.56s1.612 33.05 5.488 49.03c7.136 29.417 15.608 59.64 32.369 84.85 21.624 32.521 51.685 60.14 84.79 80.86 29.859 18.686 64.67 29.09 99.019 36.898 14.692 3.342 29.94 3.939 45.02 4.09 15.08-0.15 30.32-0.748 45.02-4.09 34.35-7.812 69.16-18.212 99.019-36.898 33.11-20.718 63.17-48.34 84.79-80.86 16.761-25.21 25.23-55.43 32.369-84.85 3.876-15.98 5.488-49.03 5.488-49.03l3.355-304.56 0.0299-26.332h-136.31-133.76-133.76z" stroke-width="11" fill="none"/>
  <path id="path6075" d="m9.3165 13.106v25.85l3.303 298.99s1.585 32.439 5.398 48.129c7.02 28.88 15.357 58.545 31.848 83.292 21.275 31.927 50.851 59.042 83.42 79.376 29.377 18.344 63.63 28.554 97.419 36.224 14.455 3.2801 29.457 3.8671 44.29 4.0151 14.832-0.148 29.834-0.73396 44.29-4.0151 33.793-7.6698 68.04-17.879 97.419-36.224 32.572-20.337 62.15-47.45 83.42-79.376 16.49-24.746 24.827-54.417 31.848-83.292 3.814-15.688 5.398-48.129 5.398-48.129l3.303-298.99v-25.85h-134.08-131.6-131.6-134.08z" fill="#ffffff"/>
  <g id="g6077" transform="matrix(.99999 0 0 .99999 -15.63 1.1915)" stroke-width="5">
   <path id="path6081" stroke-linejoin="bevel" d="m292.63 11.406-2 574.39c14.832-0.147 29.834-0.73 44.29-3.988 33.793-7.618 68.04-17.758 97.42-35.978 32.572-20.2 62.15-47.13 83.42-78.84 16.49-24.579 24.827-54.05 31.848-82.73 3.814-15.582 5.398-47.803 5.398-47.803 0.62826-107.55 3.303-221.49 3.303-329.05-87.914 0.9753-175.79 5.626-263.68 3.995z" stroke-linecap="square" fill="#000000"/>
   <path id="path6079" d="m290.63 7.806v577.99" fill="none"/>
  </g>
  <path id="path4619" stroke-linejoin="round" d="m425.8 199.53c-0.25676 3.7783 9.6362 4.8055 9.2496 0.874 0.57997-3.1098-9.6407-5.9889-9.2496-0.874z" fill-rule="evenodd" stroke-width="2" fill="#ffffff"/>
 </g>
 <g id="g4565" fill-rule="evenodd" fill="#ff0000">
  <path id="path3645" d="m277.58 134.25c2.9034-8.1492 15.21-8.4343 22.021-8.0089 0.7462 0.51852 3.7494-5.8608 2.5331-9.753-15.819-9.4661-28.139 5.2124-24.554 17.762z"/>
  <path id="path3649" d="m320.38 85.871c6.5172 1.3182 7.9922 9.3386 9.7353 14.213-1.0262 5.8437 16.655 6.6926 11.653-0.98663-0.33-24.034-21.79-17.326-21.39-13.226z"/>
  <path id="path3647" d="m367.6 122.73c0.55752 4.2955 4.2404 10.086 2.6941 10.195 22.452 0.56663 11.769-21.4 8.8604-26.992-2.2014 4.9355-1.622 12.294-11.555 16.797z"/>
  <path id="path3643" d="m306.32 165.8c-1.6637-5.0207-1.0607-3.4152-0.41601-13.701-7.5356-3.3799-8.1924-4.3165-20.178-12.105 3.8762 15.476 5.7388 18.229 20.594 25.806z"/>
  <path id="path3639" d="m278.22 387.47c10.817-1.8769 20.837 0.208 30.037 4.144 4.1103-5.3969 7.3751-9.3799 7.5619-16.596-12.304-8.2125-38.239 5.4956-37.599 12.452z"/>
  <path id="path3637" d="m359.06 415.18c3.1413 13.154-1.8932 15.699-0.36869 25.671 12.679-1.9767 16.429-12.609 17.442-27.686-0.30473-1.8575-13.729 2.2628-17.073 2.0156z"/>
  <path id="path3635" d="m292.14 448.02c3.3348-14.758 3.1231-13.876 9.3776-20.284 6.8001-6.7867-6.7833-7.653-5.6192-8.3694-6.185-0.73543-20.147 19.813-3.7584 28.654z"/>
  <path id="path6085" d="m323.87 438.63c-1.4687 14.539 7.3467 22.435 13.089 22.314-0.91616-14.493 0.59601-16.912 0.50919-24.108z"/>
  <path id="path3641" d="m375.02 170.96c1.71 5.335 4.1191 6.8704 8.6141 10.214 4.692 3.491 12.148 4.5969 17.761 6.2429 10.651 4.2685 15.684 7.2552 26.03 9.509 13.617 4.1322 18.247-1.7043 1.4017-6.0202-7.528-3.873-25.225-8.7586-30.895-15.046-4.359-4.3378-5.2651-10.499-10.305-15.187-8.0099-6.9014-14.814 2.5465-12.607 10.287z" stroke="#000000" stroke-width="2"/>
 </g>
 <g stroke-linejoin="round" stroke="#000000">
  <path id="path6091" d="m385.7 347.71c-12.667 5.4835-12.568 12.43-24.387 19.189-8.0835 5.8284-16.104 11.766-23.665 18.267-7.5119 3.4759-9.4233-7.0677-13.869-10.536-5.9453-2.5605-8.4774 5.6516-11.047 9.5008-4.2217 4.0842-19.024 12.923-5.7559 16.713 4.5121 0.55202 11.713 10.398 3.8878 11.463-4.9247 1.2444-15.925-6.3518-14.294 5.8175 3.5826 3.5832 9.3499 1.6602 6.8212 7.7905 4.2973 18.673 5.4319-1.4047 11.39-2.8714 11.176-0.29508 9.4446 7.2637 4.1405 12.071-0.26434 7.7433 12.622 3.6979 16.33 1.6085 5.2552 3.1401 13.977 2.5369 12.637-5.8659-2.3394-9.594-5.6434-17.16 2.5633-16.245 4.5482 0.67849 0.10322 5.5542 13.734 3.9126 12.19-1.2597 13.024-8.4754 16.94-15.307 6.9564-3.4516 4.5678 8.9906 4.7254 13.059-1.4671 4.9338 2.3766 11.149 8.5351 2.1669 2.9338-6.5818 7.0752-7.629 9.0786-14.514 0.61442-4.1616 4.1284-5.4742 3.6667-0.26461 0.42017 6.1465 1.2084 8.2725-0.0399 14.167 9.0991-13.146 16.034-23.154 24.175-37.25 2.1505-9.6982-0.35462-19.706 1.4036-29.449 7.2624-15.167 12.983-19.468-11.362-5.3968-8.055-0.24234-13.668 25.394-21.045 28.187-8.0365-3.5152-14.279-13.654-14.563-26.214z" fill-rule="evenodd" stroke-width="4" fill="#ffd700"/>
  <path id="path6119" d="m366.01 193.28c-3.9953-9.084-10.112-19.142-11.405-31.985-0.56286-5.5927 2.548-11.217 5.703-15.868 2.662-3.925 6.58-4.664 10.462-7.422 0.55222-4.8061-5.1381-20.072-8.973-22.083-1.951-0.23-4.01 0.489-5.703 1.488-1.964 1.159-3.427 3.075-4.711 4.959-4.6262 8.783-12.034 7.2862 1.488-11.902 0.52625-6.52 1.0528-8.1007-5.463-9.5089-3.118-0.427-5.05 0.45699-8.1739 0.83099-1.559 0.187-3.141 0.024-4.711 0-2.728-0.041-5.594-1.112-8.182-0.248-6.1081 3.3952-0.0709 6.6574 1.24 9.422 7.4265 13.723-1.435 15.281-7.686 5.703-1.8934-6.3114-10.357-5.9106-15.125-2.975-1.333 0.624-2.091 2.144-2.727 3.471-1.578 3.29-3.379 7.125-2.479 10.662 0.491 1.929 2.415 3.216 3.967 4.463 2.509 2.02 5.815 0.14998 8.63 1.711 3.4393 2.9464 9.7164 4.8397 4.263 7.959-2.927 0.458-7.572-0.70501-9.582 1.471-2.128 2.304 0.57202 7.609 0.22502 10.726-0.32622 4.1662-1.5445 9.3825 1.175 12.597 2.01 2.176 9.402-0.19 11.982 1.271 6.4274 5.5498 9.0278 11.266 8.5969 16.581-3.784 5.8922-16.339 4.4129-20.531-2.311 0 0 6.611 9.655 9.847 14.172 4.5 6.283 8.3239 9.1009 14.156 14.172 3.362 2.923 7.116 5.43 10.166 8.678 1.131 1.205 2.975 3.967 2.975 3.967s-8.2-6.347-12.893-8.43c-4.764-2.115-10.488-1.586-15.12-3.967-8.496-5.1924-11.847-6.7134-5.951 3.471 3.465 5.766 8.356 10.71 13.637 14.877 2.672 2.108 5.705 3.86 8.926 4.959 2.611 0.89099 21.382 2.84 21.382 2.84s-23.26-2.011-28.077-3.336c-10.878-5.7378-15.462-5.0484-8.87 7.892 4.269 5.515 8.838 9.3029 15.068 12.437 7.04 3.54 23.06 5.207 23.06 5.207s-12.986 1.088-19.34 0c-16.195-4.8494-23.556-5.8453-5.951 6.942 3.627 2.803 8.123 4.295 12.397 5.951 16.788 2.5574 24.575-7.5952 36.948-10.371-25.96-12.31-26.773-32.254-25.197-36.607 1.7034-4.7029 25.208 14.547 34.267 6.0459-8.4043-12.877-19.279-28.9-23.711-37.911z" fill-rule="evenodd" stroke-width="4" fill="#ffd700"/>
  <g id="g6121" transform="matrix(.99999 0 0 .99999 -21.63 5.1915)" stroke-width="2" fill="#ffffff">
   <path id="path6125" d="m438.24 192.86c-0.80763 2.8943 8.8356 4.8815 9.2497 0.874 0.65165-3.1306-9.7505-5.2539-9.2497-0.874z"/>
   <path id="path6573" d="m428.24 190.86c0.0925 5.0362 7.7609 4.8548 9.2497 0.874 0.45556-3.3658-9.6706-5.7207-9.2497-0.874z"/>
  </g>
 </g>
 <g fill-rule="evenodd">
  <path id="path6133" stroke-linejoin="round" d="m471.78 262.36c4.0718 13.904 15.124 15.704 33.433 15.894 6.6113-3.6599 25.129-12.388 9.4088-14.796-12.574-6.329-14.596-21.647-25.189-29.327-5.552-3.6728-8.4803-4.7259-1.3157-0.0497 9.5247 6.1972 21.052 8.9829 31.488 1.6275-7.4045-7.8308-15.045-19.289-17.807-29.458 1.3468-8.9802-5.3809-19.284-9.9396-24.402 9.2862 0.91151 10.111-15.217 10.288-16.938 0.8917-8.6455-5.7382-19.811-7.8903-10.637 7.8582-8.8217 13.309 12.779-6.7154 17.102-13.457 6.8109 15.418-5.2683 15.563-6.5008 14.276-9.1489 8.9067-13.766-0.98973-19.423-6.2986-3.8265-13.891-5.7575-20.752-7.5581-17.132-1.7226-34.102-7.0228-51.284-3.6279-5.2869 4.3593-15.738 1.4843-21.721 4.5754-8.2003 4.2366-11.311 6.4467-5.2611 12.569-1.4236 20.691 8.4903 15.817 19.092 21.275 8.4812 5.7082 29.553-1.0054 27.346 14.152-0.15748 7.6834-6.6968 15.099-14.11 16.46-0.86286 2.4195-24.093-4.1409-32.018-2.6297-8.7795-1.7706-2.8333 18.335 2.1798 16.955 2.6675-0.73438 3.6972-3.541 7.4072-5.5245 8.7233-2.7692 35.311 1.0015 17.603 13.018-19.103 4.4402-27.821 9.9232-40.895 10.593-12.869 2.2342-28.258-9.3293-34.316-10.825 1.0692 16.041 9.1558 27.391 24.665 32.976 5.8237 2.2439 39.18-3.4567 36.526-4.2814-14.091 6.6441-39.476 10.044-51.548 17.743-15.588 6.6346-31.999 10.837-46.764 3.3968-8.7456-3.8363-13.648-7.8813-20.526-13.824 1.1654 14.903 3.2487 26.494 14.582 37.405 13.176 9.454 31.447 8.9557 47.183 8.3681 19.934-5.6785-4.1864 9.5348-13.536 9.3033-8.18 1.6964-16.493 1.646-25.358-0.34709-18.953-4.6154-28.267-10.487-11.776 7.453 18.777 19.3 62.16 31.883 76.236 8.9946 8.6894-8.3747 15.728-13.58 26.765-18.699-23.189 11.222-28.956 50.775-12.118 53.983 5.5196-15.757 12.699-24.069 23.573-28.717 5.1612-3.9099 14.929-15.471 17.217-14.814 2.4583 3.0429-14.245 12.883-16.679 26.938 0.43898 15.548 20.207 33.365 32.385 39.416-4.0529-16.113-5.8952-12.112-5.5834-27.575-0.90166-9.342-0.54382-15.864 1.648-25.012 5.0848 13.256 12.871 24.326 28.732 26.478 10.518 0.26739 13.639-3.259 28.336-13.468-10.288-1.7066-15.449-8.1472-23.708-21.871-4.5396-5.8296-18.823-23.36-17.852-22.71 7.2501 10.966 19.671 20.462 33.171 17.308 7.6583-0.93123 20.638-11.471 11.092-13.204-15.747-12.865-28.452-29.727-40.269-47.764z" stroke="#000000" stroke-width="4" fill="#ffd700"/>
  <g id="g6135" transform="matrix(.99999 0 0 .99999 -21.63 5.1915)" stroke="#000000" stroke-width="2">
   <path id="path6137" d="m479.85 77.045c-0.33168 1.8493 1.5286 8.9907-1.575 4.3925-3.9161-4.108-8.0064 3.7823-8.572 7.1886 1.0514 5.0756 3.0743 8.702 6.3452 11.502 2.1124 11.236-23.332 1.6234-16.56-6.6911 3.5435-2.3419 3.7822-5.3188 3.3746-9.5172-0.18259-4.5313-5.4729-6.0581-9.0163-4.1839-4.311 2.0076-8.0595-1.3817-11.188-3.9012-4.3596-3.2411-10.538-0.89699-13.682 2.9565-3.6682 3.8367-2.5892 10.47 0.84524 14.068 5.941 2.9962 8.6402 9.7367 9.9412 15.943 3.2642 7.8195 5.3626 20.01 8.5002 19.454 21.011-4.9342 52.071 1.5851 68.39 6.7788l6.7582-12.906c3.3844-4.3836 5.8164-9.4441 9.1813-13.804 3.7767-3.2292 8.8871-7.1551 6.6362-12.828-2.124-5.4432-8.8594-6.731-14.043-6.719-4.5578 0.18173-9.5375-0.71356-13.433 2.3099-2.6765 1.1216-3.8207 5.3969-0.76602 7.1268 4.4506 3.4012 6.7739 7.3942 3.365 12.115-4.4332 5.1067-19.822 0.14896-18.264-6.4334 1.4188-4.8127 4.9011-3.6885 7.5064-6.9925 2.6971-2.7145 5.3581-9.4724-0.84967-8.6805-6.8345 0.29968-3.6214-7.6279-6.4816-10.989-1.9739-3.5784-6.3342-6.6313-10.443-4.5628-2.2948 0.9749-4.2228 2.6279-5.9696 4.3743z" fill="#ff0000"/>
   <g id="g6139" stroke-linejoin="round" fill="#ffd700">
    <path id="path6141" d="m452.59 147.24c-0.47532 0.90258 7.8384 0.86631 8.4213 1.6077 3.7753 3.1387 3.6121 6.5522 8.7536 9.096 3.2963 1.9618 8.8517 1.6454 12.02-0.1208 4.1698-2.0175 2.3955-6.8041 10.439-3.3314 0.66756 0.0485 4.1941 0.31174 2.298 0.16544-3.3185-0.0684-4.1571-1.7434-6.3743-4.1823-7.122-11.584-24.172-14.218-27.727-5.5079-0.7317 1.7928-5.7794 0.87744-7.8309 2.2734z" stroke-width="4"/>
    <path id="path6143" d="m446.46 389.83c-11.734 14.262-10.497 26.826-12.106 50.807 5.4996-1.0472 6.3714-5.9876 11.533-12.392 1.6203 4.7126-0.87298 10.969-2.4621 15.904-2.6212 6.7496-6.4414 17.503-9.996 23.82 7.4859 0.15215 11.262-1.7125 12.416-5.6365 1.9544-2.1399 5.7435-10.237 5.3837-3.0173-5.3441 10.536-7.9989 18.984-10.315 27.23 8.5648-3.4463 12.44-9.7413 14.814-12.424 5.0716-2.4041-9.695 27.417-10.791 29.432 0.8707 4.5195 8.497-2.4477 11.445-3.8985 24.153-24.994 53.85-68.412 64.79-97.33 3.4258-12.792-2.7249-25.481-8.4397-36.607-27.845 5.8535-27.663-12.225-35.802-15.094-0.41443 8.0874 3.156 23.697 7.0741 30.769 3.7266 3.6874 6.2265 9.1598-3.942 10.193-7.1086-0.52567-8.0765-2.422-12.503-7.5342-5.6267-5.0334-9.2997-12.194-21.098 5.7794z" stroke-width="2"/>
   </g>
  </g>
  <path id="path6151" d="m409.85 139.1c0.0962 5.7445-0.10051 16.599 7.1038 17.714 3.9824 0.72026 4.5887-4.9863 0.41034-5.0548-9.9904-8.1403 15.308-16.107 10.783-15.302-3.5185-1.4356-17.068 0.54418-18.297 2.6425z"/>
 </g>
 <g stroke-linecap="round" fill="none">
  <g stroke="#000000">
   <path id="path6159" d="m470.48 214.77c-0.9431 3.744 1.8302 11.213 3.5735 14.362" stroke-width="2"/>
   <g stroke-width="4">
    <path id="path6161" d="m385.04 246.17c18.045 5.1168 24.545-5.3728 36.443-2.928"/>
    <path id="path6165" d="m483.5 194.55c1.1193 14.037 7.799 18.45 9.8289 18.475"/>
    <path id="path6187" d="m431.39 277.04c-2.1501-0.53278-3.078-18.015-2.4796-20.133 0.78064-2.7638-4.0747 24.237-7.3884 23.823"/>
   </g>
  </g>
  <g id="g6191" transform="matrix(.99999 0 0 .99999 -22.03 5.1915)" stroke="#009900" stroke-width="2">
   <path id="path6195" d="m445.06 120.3c27.847-2.2161 49.073-1.5828 74.005 8.3623" stroke-width="3" stroke="#000000"/>
  </g>
 </g>
 <g stroke="#000000" fill="#000000">
  <path id="path6197" d="m449.67 145.1c-0.628 0.023-1.249 0.095-1.854 0.223-1.793 0.379-3.197 1.8-4.73 2.803-1.156 0.75599-2.197 1.697-3.291 2.547 1.678 1.309 5.0871-0.43009 6.6101 0.32691 1.918 0.95399 3.2507 2.4824 5.3807 2.7284 6.6907-2.3542 7.9556-2.0278 11.13-0.80908-1.055-1.333-1.8488-1.1032-3.0128-2.3412-1.472-1.565-2.78-3.478-4.73-4.379-1.682-0.777-3.618-1.168-5.502-1.1z" fill-rule="evenodd" stroke-width="3"/>
  <g stroke-linejoin="round" stroke-linecap="round">
   <g stroke-width="4">
    <path id="path4491" d="m363.07 309.34c14.189-3.8038 21.762-9.8833 29.178-15.377 7.38-5.46 14.96-10.65 29.35-12.96-14.543 1.6541-22.534 6.2705-30.48 11.317-7.9096 5.0236-15.354 10.157-28.994 13.14z"/>
    <path id="path4495" d="m465 329.2c-0.34384 0.69123-0.6738 1.3927-0.9904 2.105 4.6288 6.7146 10.556 11.37 16.19 15.895-4.921-5.5924-9.6287-10.877-12.915-17.8-0.75679-0.0449-1.5186-0.11102-2.2853-0.19994z"/>
    <path id="path4499" d="m437.35 344.96c-0.46799 0.28745-0.93603 0.57533-1.4034 0.86328 1.6806 7.9241 3.5393 14.472 5.7032 18.181-1.2-4.0118-2.0428-10.683-2.7082-18.623-0.53042-0.13806-1.061-0.27839-1.5915-0.42086z"/>
    <path id="path4537" d="m453.57 210.36c0.66623-0.0873 1.3164-0.16753 1.954-0.24242 6.3665-4.7371 9.4034-7.9321 11.102-11.683 1.7791-3.9289 2.0679-8.4758 3.4531-16.101-1.7219 7.6738-2.3045 12-4.3136 15.673-1.8334 3.3512-4.8835 6.1782-11.323 10.6-0.27064 0.57439-0.5616 1.1592-0.8727 1.7544z"/>
    <path id="path4541" d="m440.19 325.36c5.9832-9.2869 10.03-25.344 7.8823-39.634 1.6682 14.362-2.9076 30.108-9.0874 38.82z"/>
    <path id="path4545" d="m476 292.6c-0.14584 0.98314-0.28776 1.9369-0.41685 2.8726 2.0939 2.8618 4.0203 4.5712 6.0744 6.0904 2.0793 1.538 4.1801 2.8142 6.9424 5.0369-2.3366-2.6503-4.1265-4.4358-5.709-6.3361-1.561-1.8746-2.8423-3.773-4.2478-6.6539-0.85-0.26-1.74-0.6-2.64-1.01z"/>
    <path id="path4549" d="m479.8 242.6c-0.19158 0.65263-0.40245 1.2753-0.63131 1.8697 1.9845 3.5303 2.7904 5.3401 3.5495 6.5482 0.45967 0.73156 0.92041 1.286 1.634 1.934 0.68832 0.62498 1.6487 1.3691 3.0478 2.4481-1.2567-1.2799-2.0053-2.1694-2.4833-2.9238-0.47251-0.74566-0.66533-1.3345-0.84928-2.0524-0.33201-1.2958-0.68406-3.2626-2.3794-7.1978-0.61738-0.19299-1.2464-0.40096-1.888-0.62601z"/>
    <path id="path4553" d="m441.4 245.4c-0.2355 0.73143-0.50464 1.4304-0.80131 2.1016 1.695 2.957 2.6015 5.6976 3.7686 8.5421 1.3207 3.2189 2.81 6.081 5.8327 8.5563-2.5601-2.8541-3.4415-5.8846-4.1354-9.0862-0.60365-2.7852-1.1115-6.0092-2.4549-9.4398-0.73309-0.24726-1.4672-0.47202-2.2097-0.67397z"/>
    <path id="path4557" d="m454.6 229.4c-0.36236 0.61472-0.75751 1.1883-1.184 1.7188 1.5808 2.6841 1.6888 4.4024 1.9416 6.438 0.13719 1.1047 0.31768 2.1793 0.88631 3.2861 0.55828 1.0867 1.4611 2.1477 2.9562 3.3571-1.291-1.4566-1.8541-2.6463-2.0535-3.68-0.19475-1.0093-0.0518-1.9167 0.12788-2.9193 0.33147-1.8493 0.87083-4.3424-0.53897-8.0409-0.71159-0.0767-1.4227-0.12811-2.1354-0.15978z"/>
    <path id="path4561" d="m469.8 215.4c-0.33217 0.77837-0.72857 1.481-1.1839 2.1015 1.3433 2.3579 1.3633 3.7881 1.4488 5.644 0.0484 1.0517 0.13023 2.0973 0.64829 3.1833 0.50373 1.0559 1.3853 2.0779 2.8868 3.2712-1.2832-1.4733-1.7702-2.6258-1.8729-3.5784-0.0987-0.91535 0.15227-1.7064 0.43987-2.6096 0.5145-1.6159 1.2785-3.9264 0.10071-7.4766-0.81325-0.21629-1.6353-0.38928-2.4677-0.53533z"/>
   </g>
   <g stroke-width="2">
    <path id="path4588" d="m336.56 175.08c0.0738 0.50691 0.12535 1.0003 0.1575 1.4816 2.3643 1.4107 3.3932 2 4.5776 2.2065 1.0782 0.18801 2.8804 0.0345 6.8241 0.40617-4.1344-0.79147-5.4933-0.99874-6.4459-1.5374-0.76311-0.43149-1.3897-1.1642-3.6704-2.9482-0.46445 0.14034-0.94517 0.27102-1.4429 0.3914z"/>
    <path id="path4592" d="m330.63 162.93c0.0738 0.50707 0.12155 1.0012 0.14542 1.4834 2.1806 1.3557 3.6544 2.5595 4.8045 3.1661 1.5124 0.79769 3.2081 1.1272 7.3371 1.5164-4.1472-0.79392-5.5803-1.5141-6.6608-2.4988-0.83869-0.76438-1.9253-2.2273-4.1617-4.0329-0.47838 0.12297-0.9676 0.2456-1.4646 0.36581z"/>
    <path id="path4596" d="m344.07 187.67c-0.14127 0.37729-0.27053 0.7601-0.38721 1.1495 2.4809 1.4682 4.6765 1.1173 6.5712 1.4889-2.1136-1.2984-3.4359-1.3917-5.1741-3.28-0.32331 0.22819-0.65995 0.44213-1.0099 0.64157z"/>
   </g>
  </g>
 </g>
 <g stroke-linejoin="round" fill-rule="evenodd" stroke="#000000" stroke-width="2" fill="#ffffff">
  <path id="path6125-7" d="m435.94 186.86c-0.70246 4.8925 8.9252 6.5832 9.2496 0.874 1.5667-7.8521-8.8317-9.7914-9.2496-0.874z"/>
  <path id="path4615" d="m425.49 184.01c-0.70246 4.8925 8.9252 6.5832 9.2496 0.874 2.0129-9.2508-8.7252-9.7274-9.2496-0.874z"/>
  <path id="path4617" d="m415.98 181.16c-0.70246 4.8925 8.9252 6.5832 9.2496 0.874 1.9146-9.7827-8.8987-9.6988-9.2496-0.874z"/>
  <path id="path4621" d="m407.75 175.46c-2.4736 10.532 7.9965 9.5933 9.2496 0.874 1.7432-7.7319-8.6663-9.4394-9.2496-0.874z"/>
 </g>
 <g stroke-linejoin="round" stroke="#000000" stroke-linecap="round" fill="#000000">
  <path id="path4623" d="m452.19 446.82c0.84337-0.0696 1.6768-0.13405 2.5003-0.19504 5.8671-6.9876 8.4236-11.848 12.671-18.654-5.2181 6.2467-8.5533 10.286-15.088 16.359-0.008 0.81474-0.0351 1.6441-0.0836 2.4894z" stroke-width="3"/>
  <g stroke-width="2">
   <path id="path4627" d="m447.09 435.82c0.8441-0.0696 1.6573-0.11354 2.4472-0.13737 2.5038-3.0056 3.5674-4.7638 4.3945-6.4581 0.94205-1.9298 1.5403-3.6849 3.8297-7.3533-2.7251 3.2623-3.9571 4.883-5.3042 6.3594-1.1582 1.2694-2.5647 2.6174-5.3333 5.1541 0.0252 0.77881 0.0146 1.5903-0.034 2.4353z"/>
   <path id="path4631" d="m443.39 424.32c0.84374-0.0696 1.6445-0.0911 2.4061-0.0693 2.3472-2.7247 3.0616-3.6366 3.6202-4.5376 0.0934-0.15062 1.5538-2.9316 3.2452-5.6419-2.7874 3.3369-3.5287 3.8489-4.4887 4.3708-0.82388 0.44794-1.9498 1.0208-4.7395 3.459 0.018 0.76961 0.005 1.5738-0.0432 2.419z"/>
   <path id="path4635" d="m439.79 414.12c0.84374-0.0696 1.6445-0.0911 2.4061-0.0693 2.3472-2.7247 3.0616-3.6366 3.6202-4.5376 0.0934-0.15062 1.5538-2.9316 3.2452-5.6419-2.7874 3.3369-3.5287 3.8489-4.4887 4.3708-0.82388 0.44794-1.9498 1.0208-4.7395 3.459 0.018 0.76961 0.005 1.5738-0.0432 2.419z"/>
   <path id="path4639" d="m358.46 399.42c0.0858-0.43431 0.16843-0.86945 0.24863-1.3057-3.394-1.6112-6.6568-2.7276-9.5201-4.7432 2.3672 2.6798 5.3328 4.5861 8.2188 6.8543 0.34809-0.27102 0.69873-0.53965 1.0526-0.80549z"/>
   <path id="path4643" d="m366.96 392.62c0.0859-0.43476 0.16818-0.86852 0.24766-1.3045-3.3594-1.5617-5.4655-1.6356-8.3191-3.6443 2.3638 2.676 4.3042 3.6221 7.0315 5.7638 0.33971-0.27744 0.68595-0.54909 1.04-0.81502z"/>
   <path id="path4647" d="m373.56 383.52c0.0858-0.43431 0.18037-0.86433 0.28368-1.2905-3.1932-1.5724-4.7318-2.9301-7.7552-5.0584 2.2937 2.5966 3.4986 4.7547 6.4013 7.1362 0.35979-0.25911 0.71612-0.52143 1.0702-0.78737z"/>
   <path id="path4651" d="m380.66 374.32c-0.29287-0.34584-0.51367-0.64261-0.67945-0.90296-0.30529-0.15948-0.52145-0.25999-0.67758-0.32339-0.29709-0.12062-0.36354-0.10768-0.38942-0.0835-0.033 0.0308-0.10484-0.01-0.32423-0.17915-0.2197-0.16973-0.59029-0.47549-1.3008-1.0598 0.65749 0.64054 0.97759 1.0044 1.1351 1.2214 0.20348 0.28021 0.0933 0.20837 0.19882 0.37738 0.0511 0.0819 0.13806 0.17628 0.33991 0.32858 0.12842 0.0969 0.31529 0.22974 0.59291 0.42248 0.3027 0.0228 0.66616 0.0854 1.1047 0.19903z"/>
  </g>
  <path id="path4655" d="m350.04 328.16c2.2464 0.47128 4.4564 0.82347 6.6463 1.0614 14.265-2.8005 24.164-10.45 33.626-17.92-10.354 6.6994-20.429 12.97-34.155 14.528-1.889 0.87376-3.9227 1.6584-6.1176 2.3307z" stroke-width="4"/>
  <path id="path4659" d="m318.26 287.08c1.5091 2.9014 3.6792 5.3182 6.551 7.2297 3.0654 1.0651 6.3713 1.475 9.7707 1.4401 6.8484-0.0702 14.411-1.9547 21.799-4.382 7.4062-2.4333 14.861-5.4917 21.461-8.0081 6.6145-2.522 12.481-4.5461 16.826-4.9494-4.4115-0.0211-10.448 1.6048-17.246 3.7388-6.8202 2.1408-14.308 4.7576-21.774 6.7628-7.4795 2.0089-14.719 3.3393-20.986 2.9942-3.0788-0.16952-5.8404-0.74015-8.2425-1.7764-2.7443-0.2602-5.5246-1.1366-8.1586-3.0498z" stroke-width="4"/>
  <path id="path4663" d="m409.39 332.5c1.1278-0.0969 2.2421-0.18775 3.3452-0.27387 9.1975-10.277 13.134-17.142 15.917-23.046 2.9138-6.1811 4.5578-11.304 9.9145-18.492-5.9942 6.758-8.3544 11.601-11.932 17.4-3.3218 5.3842-7.6894 11.581-17.144 21.078-0.009 1.0922-0.0423 2.2035-0.10157 3.3337z" stroke-width="2"/>
 </g>
 <g id="g3739" transform="matrix(.98522 0 0 .98516 1.6783 3.658)">
  <path id="path3659" d="m145.29 46.095c-4.856 1.9071-3.9337 8.7764-6.8936 12.33-8.4672 18.988-21.817 35.459-29.702 54.688-6.4873 19.192-0.14204 41.303 13.928 55.486 8.8952 11.715 12.165 27.465 8.9098 41.727-10.6-3.6165-23.659-9.7472-25.328-22.293 3.0111-15.44-6.4129-30.558-18.281-39.785-10.398-8.8121-23.292-13.372-35.913-17.875-14.087-5.9383-22.988-14.139-37.853-18.127 9.5998 22.065 7.5551 47.373 17.803 69.225 6.6679 14.581 18.599 28.275 34.992 31.447 9.0867 4.6002 20.168-0.54432 29.229 3.4375-0.42288 4.0642-6.5026 4.757-9.8711 6.0527-13.379 3.3078-30.194 0.19336-40.361 11.715-14.094 17.793-11.087 42.033-13.092 63.192 0.72109 11.301-6.3631 21.381-6.6857 32.52 0.72513 4.9987 6.7958 2.9025 9.1465 0.37305 23.115-15.647 50.132-27.477 67.871-49.973 3.3622-5.261 9.8582-9.4206 8.8516-16.514-0.0182-8.0972-6.6716-15.246-5.1758-23.258 5.6336-5.3812 12.309 2.0287 15.226 6.8814 6.1688 6.7234 3.4596 16.534 4.6339 24.821 1.2985 38.277-2.9504 76.418-3.8018 114.64-1.0779 13.896-10.927 29.18-26.184 29.855-14.778 3.5428-32.328 6.7573-41.469 20.305-2.369 4.3277-3.9907 8.8773-6.2207 13.24-3.2783 8.6498 7.7273 18.103 15.486 12.537 5.1606-3.6525 4.1571-11.366 9.748-14.762 11.003-8.4795 25.616-5.1969 38.402-6.3086 3.1219-0.57166 6.4799 1.9164 4.4199 5.0293-8.8983 14.334-22.831 27.359-23.867 45.275-2.2798 7.877 7.8986 14.984 14.797 10.871 6.6644-4.2003 9.3286-12.807 8.8535-20.352 7.0762-11.242 14.333-24.591 27.365-29.67 6.6886-2.0189 11.869 4.5494 17.283 7.565 8.7462 6.1734 16.663 16.479 14.362 27.706 0.57064 9.6582 10.312 19.618 20.352 17.338 7.9714-3.363 6.1506-13.864 5.2686-20.717-2.3143-14.857-11.397-27.908-19.567-39.652 9.0858-4.4578 20.128-0.29629 28.562 4.2075 5.863 2.3062 5.566 10.29 11.657 12.369 7.7829 3.508 15.77-5.9126 12.443-13.33-2.6086-5.3902-6.4928-10.102-10.174-14.832-11.925-13.436-30.528-16.689-45.461-25.305-14.294-9.5566-21.114-27.587-17.806-44.226 1.6007-33.84 2.3994-67.793 2.5759-101.62-1.2078-10.627 4.9258-24.63 16.844-25.439 5.12-0.34236 7.9366 2.5769 3.8027 6.5527-5.8478 9.1562-12.675 21.174-6.6484 31.938 7.7984 14.811 20.597 27.221 36.518 32.914 14.686 5.0828 28.21 12.859 39.924 22.943 5.927-6.8137 1.6482-16.53 0.76801-24.337-3.1947-12.966-2.2595-26.247-2.7319-39.46 0.2552-11.602-2.1564-24.484-11.763-32.086-11.098-13.236-30.551-9.1652-44.211-17.598-4.0206-1.4201-5.0098-5.7703-1.7734-8.6856 9.3216-6.6064 21.72-2.4361 32.123-5.9492 20.27-8.1196 30.613-30.097 33.924-50.47 1.0377-12.359 6.1758-23.649 11.336-34.745 1.9394-3.6408 1.3898-10.93-4.5938-11.12-6.5786 2.4216-11.095 6.762-18.074 8.886-21.659 7.5801-45.8 14.898-60.209 34.092-4.8151 6.6961-7.4332 15.197-5.4336 23.35 0.7323 14.992-12.216 27.028-24.262 32.902-5.9147-7.019-3.1859-17.636-0.57615-25.546 3.0416-7.9805 10.823-12.853 13.988-20.859 11.103-20.463 7.7565-45.869-3.7561-65.394-6.2282-11.195-13.066-22.266-15.465-35.049-1.8547-4.0997-2.4424-12.746-8.1894-13.072z" fill="#000000"/>
  <path id="path6093" stroke-linejoin="round" d="m158.45 390.92c8.882 9.9804 25.016 25.745 43.203 27.853 10.502 5.0528 25.973 20.012 30.409 32.148 0.88253 2.4144-4.2241 2.3869-5.1461 4.8382-10.202-9.8871-16.868-21.544-38.445-21.798-10.572 1.4094-20.883-6.9621-22.877-8.4928 15.556 25.718 17.422 21.976 25.365 38.379 3.4775 7.7804 13.895 32.298 5.2662 32.207l-10.834-0.11392c-5.8334-13.366-1.9572-28.139-14.147-38.873-18.256-10.704-22.263-21.921-28.743-33.763 12.854 25.377-28.864 34.121-30.031 57.909-1.4353 4.7596-3.7906 14.712-4.4478 14.617l-9.9615-1.4353c-3.7637-0.54231-0.5136-16.134 3.4108-20.611 8.6245-13.74 15.724-14.145 24.245-45.814 15.585-26.231-4.8986 15.868-24.663 5.0529-30.939-3.5744-40.44 23.415-38.103 23.531l-9.5693-0.47765c-4.0197-15.268 16.932-37.418 36.445-36.758 34.413-7.5415 31.868-11.428 36.381-39.012 6.1097-40.699 3.5783-82 4.4768-122.96 3.3204-29.076-39.299-37.437-31.202-16.59 9.3909 14.282 8.1196 22.076-3.2341 35.141-18.653 22.606-48.289 36.985-66.856 51.689-5.5976 1.2837 9.3058-35.794 7.6572-43.785 2.4981-24.165-0.7235-37.524 17.458-55.819 11.419-10.36 25.77 4.3908 36.878-8.0717 7.1251-6.5739 32.761 3.8483 14.869-4.1566-10.444-20.807-36.08-4.1452-51.26-19.16-19.987-16.022-29.75-37.908-31.822-62.889-0.95629-8.4309-15.679-30.086-2.0034-13.631 15.011 7.9801 39.624 10.736 56.341 24.01 15.174 7.5914 26.431 22.532 26.004 40.009 0.8376 12.334 10.819 19.242 19.299 27.38 19.699 19.629 17.262 41.639 12.618-0.73555 1.2681-16.433 1.002-28.145 0.16492-30.921-1.4571-7.6068-10.332-16.367-10.332-16.367-19.081-23.7-16.199-43.229-6.8193-61.183 6.7634-16.674 19.091-27.809 23.158-45.908 2.7119-9.2633 4.8284-16.175 6.0647-2.5242 3.019 28.537 24.203 42.862 25.315 71.655 0.51876 14.74-6.437 32.771-13.614 39.635-4.5598 7.2141-8.2731 5.6708-8.1496 14.847 0.88364 20.535-4.6138 65.546-2.9973 48.652 3.8287-15.294 25.739-32.225 34.201-38.258 1.759-1.254 5.7292-11.246 5.5802-14.546-0.96791-36.397 28.043-48.998 57.877-57.216 9.0678-2.4498 28.839-18.949 15.112-1.8672-8.2916 16.07-0.80989 35.654-10.027 51.642-6.2203 15.458-18.038 30.458-36.454 29.093-18.504-9.717-32.368 13.782-48.989 24.108 21.285-20.338 28.398 1.8961 45.695 4.9245 22.576-5.621 40.561 24.626 37.207 45.939-2.2855 18.057 1.8686 35.87 6.0881 53.304-10.989-22.456-45.78-23.609-62.81-45.333-11.11-10.021-14.937-25.369-7.3782-34.035 26.339-18.212-14.884-26.978-21.376-9.2464-10.348 22.201-2.5651 45.36-4.6874 69.089 0.0845 26.202-4.6281 58.837 0.19 84.699z" fill-rule="evenodd" stroke="#000000" stroke-linecap="round" stroke-width="4.0601" fill="#ff0000"/>
  <g stroke-linejoin="round" stroke="#000000" stroke-linecap="round" stroke-width="2.0301" fill="#000000">
   <path id="path4317" d="m151.44 177.92c0.55236-0.90944 1.0988-1.8077 1.6403-2.6964 2.0003-27.163-0.92433-41.723-4.094-52.704-3.2522-11.266-6.7709-18.762-5.4424-32.593-1.8091 13.856 1.2669 21.549 4.0666 32.961 2.6846 10.943 5.1093 25.307 2.6783 52.107 0.38989 0.95598 0.7737 1.9312 1.1512 2.9257z"/>
   <path id="path4667" d="m100.2 232.27c-0.50667-0.37091-1.0177-0.73612-1.5336-1.0945-5.6716 2.2937-9.159 5.1652-11.565 8.5641-2.5008 3.5322-3.8012 7.6034-5.2807 11.968-2.9626 8.7398-6.9113 19.659-22.804 32.447 16.258-12.406 20.749-23.131 24.283-31.899 1.768-4.3864 3.2131-8.0271 5.6908-11.092 2.2919-2.8347 5.4965-5.1996 10.784-7.0812 0.12261-0.60165 0.26481-1.2063 0.42611-1.8133z"/>
   <path id="path4671" d="m104.78 191.81c-9.9234-3.0002-19.891-9.9691-29.789-18.253-9.9255-8.3074-19.509-17.688-28.941-25.6 9.1283 8.0912 18.628 17.836 28.292 26.358 9.6556 8.5142 19.638 15.964 29.828 19.4z"/>
   <path id="path4675" d="m98.594 205.51c-0.54625-2.7429-3.0588-5.2528-6.1914-7.6462-3.2011-2.4457-7.3739-4.9993-11.662-7.7259-8.596-5.4654-17.916-11.777-21.722-19.808 3.5316 8.2337 12.709 14.866 21.171 20.643 4.2376 2.8926 8.2437 5.5383 11.278 8.0638 3.1003 2.5808 4.9061 4.8187 5.1544 6.807z"/>
   <path id="path4679" d="m184.77 188.84c5.408 0.30336 9.7254-2.1748 13.556-6.0476 3.815-3.8571 7.281-9.2363 10.959-15.002 7.3673-11.551 15.805-25.039 30.036-32.157-14.44 6.8491-23.191 20.187-30.873 31.609-3.8458 5.7186-7.3685 10.866-11.172 14.479-3.7907 3.6003-7.7198 5.5393-12.363 5.1238z"/>
   <path id="path4683" d="m194 199.86c0.55-0.0638 1.1308-0.32985 1.681-0.64739 0.57704-0.33297 1.2197-0.78244 1.9134-1.3205 1.3867-1.0756 3.0457-2.559 4.8523-4.2965 3.6181-3.4796 7.9011-8.0488 11.918-12.601 4.019-4.5545 7.7818-9.1035 10.36-12.547 1.289-1.7217 2.2834-3.1691 2.8647-4.2026 0.29042-0.51624 0.47929-0.93181 0.54831-1.226 0.0344-0.14675 0.0397-0.26641 0.01-0.35054-0.0313-0.0882-0.0958-0.12484-0.17835-0.12471 0.0819 0.0209 0.11251 0.0726 0.11742 0.13862 0.005 0.0694-0.0168 0.16832-0.0683 0.29977-0.10302 0.26292-0.32023 0.64453-0.64231 1.1327-0.64335 0.975-1.6961 2.3614-3.0457 4.0254-2.6986 3.3271-6.5764 7.754-10.706 12.183-4.1316 4.4306-8.5076 8.8543-12.199 12.174-1.847 1.6613-3.5089 3.0336-4.8703 3.987-0.68064 0.47663-1.2713 0.83794-1.7552 1.0742-0.49944 0.24385-0.83199 0.32444-0.96037 0.30787z"/>
   <path id="path4687" d="m191.82 233.51c7.5466 10 11.21 15.399 13.247 18.796 2.0608 3.4373 2.4138 4.7275 3.5071 6.8714 1.0611 2.0807 2.7192 4.7116 7.198 10.485 4.4814 5.7768 11.798 14.713 24.195 29.403-12.267-14.795-19.458-23.841-23.799-29.708-4.3449-5.8732-5.8207-8.5442-6.6875-10.602-0.85237-2.0242-1.1751-3.6367-3.1112-7.1933-1.9408-3.5652-5.5158-9.1243-12.945-19.246z"/>
   <path id="path4691" d="m206.89 226.38c5.0631 13.62 11.683 28.361 20.105 36.695-7.873-8.7259-13.827-23.643-18.215-37.349z"/>
   <path id="path4699" d="m83.989 224.16-0.94072-0.33919c-5.454 16.103-8.9493 32.649-24.353 46.387 15.959-13.337 20.136-29.784 26.235-45.709l-0.941-0.34z"/>
   <path id="path4703" d="m137.49 182.91c3.824-29.632 2.6474-42.573 0.75984-50.157-1.8734-7.5273-4.4098-9.6209-3.3451-17.875-1.4043 8.2713 0.84029 10.578 2.3698 18.096 1.5172 7.4575 2.3707 20.209-1.7666 49.67z"/>
  </g>
 </g>
</svg>
