<?xml version="1.0" encoding="utf-8"?>
<!DOCTYPE svg PUBLIC "-//W3C//DTD SVG 1.1//EN" "http://www.w3.org/Graphics/SVG/1.1/DTD/svg11.dtd" [
	<!ENTITY st0 "fill:#0F47AF;">
	<!ENTITY st1 "fill:#FFFFFF;">
	<!ENTITY st2 "fill:#DA121A;">
	<!ENTITY st3 "fill:none;stroke:#000000;stroke-width:3;stroke-linecap:round;stroke-linejoin:round;stroke-miterlimit:10;">
	<!ENTITY st4 "fill:none;stroke:#000000;stroke-width:2;stroke-linecap:round;stroke-linejoin:round;">
	<!ENTITY st5 "fill:none;stroke:#000000;stroke-width:7.5227;">
	<!ENTITY st6 "fill:none;stroke:#000000;stroke-width:3;stroke-linecap:round;stroke-linejoin:round;">
	<!ENTITY st7 "fill:none;stroke:#000000;stroke-width:3;stroke-linejoin:round;">
]>
<svg version="1.1" id="Ebene_1" xmlns="http://www.w3.org/2000/svg" xmlns:xlink="http://www.w3.org/1999/xlink" x="0px" y="0px"
	 width="544.25px" height="581.1px" viewBox="0 0 544.25 581.1" style="enable-background:new 0 0 544.25 581.1;"
	 xml:space="preserve">
<path style="&st0;" d="M10.695,7.087l23.5,337.807c23.5,305.496,452.367,305.496,475.867,0l23.5-337.807H10.695z"/>
<path style="&st1;" d="M372.021,284.093c-2.26,8.38-8.5,27-40.59,27c-20.15,0-32.45-9.85-38.76-18.77
	c-2.76-3.88-4.38-7.59-5.02-10.23c-2.38-9.75-3.5-32.65-3.5-40.07c-3.68-0.33-7.3-0.74-10.84-1.21c0,8.84,1.05,29.18-2.7,48.18
	c-4.44,22.49-15.6,43.11-43.17,40.59c-3.26-0.3-5.36-3.15-4.04-7.9c1.24-4.5,9.31-33.71,10.67-45.5c0.14-1.18,0.74-2.18,1.67-2.62
	c11.66-5.6,13.57-21.77,14.67-36.79c-7.46-1.64-14.44-3.51-20.85-5.479c-3.52-1.08-6.88-2.19-10.04-3.31
	c-2.87,19-10.64,90.22-52.15,85.53c-3.25-0.37-5.35-3.15-4.04-7.9c1.24-4.5,9.31-33.71,10.67-45.5c0.14-1.17,0.79-2.09,1.67-2.62
	c12.72-7.63,20.01-23.33,21.12-39.16c-2.66-1.38-4.86-2.66-6.57-3.78c-2.92-1.91-3-4.61-3-7.44c0-2.24,0.18-4.58,0.51-6.97
	c1.15-8.52,4.14-17.66,7.28-25.19v-0.01c1.26-3.03,2.55-5.79,3.75-8.15c0.94-0.2,1.87-0.36,2.79-0.5
	c13.5-26.51,36.57-44.39,58.47-48.43l-0.67-18.83l18.82,0.32c29.02,0,56.58,9.01,71.75,18.2l-6.4,14.43
	c17.21,11.16,27.83,22.53,27.83,51.36c0,32.83-21.43,59-21.43,76c0,8.63,4.74,16.5,14.16,13.19
	C372.081,269.713,374.331,275.533,372.021,284.093z"/>
<path style="&st2;" d="M381.321,83.773c-12.93,9.07-23.54,22-31.4,33.78c-15.17-9.19-42.73-18.2-71.75-18.2l-18.82-0.32
	c0-16.19-2.75-40.11-6.55-53.36c2.11-0.67,4.57-1.25,7.28-1.73c7.63-1.14,17.8-1.36,23.12-0.86c7.06-0.43,15.35-0.01,24.31,1.53
	C330.811,48.613,358.651,60.153,381.321,83.773z"/>
<path d="M270.611,288.993c3.75-19,2.7-39.34,2.7-48.18c3.54,0.47,7.16,0.88,10.84,1.21c0,7.42,1.12,30.32,3.5,40.07
	c0.64,2.64,2.26,6.35,5.02,10.23C286.341,292.313,278.581,290.983,270.611,288.993z"/>
<path d="M250.411,236.773c-1.1,15.02-3.01,31.19-14.67,36.79c-0.93,0.44-1.53,1.44-1.67,2.62c-2.05-0.95-3.79-1.81-5.13-2.57
	c-11.38-6.44-1.79-36.85,0.62-42.32C235.971,233.263,242.951,235.133,250.411,236.773z"/>
<path style="&st1;" d="M501.393,397.487c-6.75,25.87-16.82,48.89-29.46,69.07c-12.06-12.01-22.32-26.32-43.9-26.32
	c-37.2,0-40.75,42.52-77.95,42.52c-37.21,0-40.75-42.52-77.96-42.52c-37.2,0-40.74,42.52-77.95,42.52
	c-37.2,0-40.75-42.52-77.95-42.52c-21.58,0-31.83,14.3-43.9,26.31c-12.65-20.18-22.71-43.2-29.46-69.06
	c32.97-3.33,37.74-42.29,73.36-42.29c37.2,0,40.75,42.52,77.95,42.52c37.21,0,40.75-42.52,77.95-42.52
	c37.21,0,40.75,42.52,77.96,42.52c37.2,0,40.75-42.52,77.95-42.52C463.653,355.197,468.423,394.157,501.393,397.487z"/>
<g>
	<path style="&st3;" d="M42.873,397.483c32.964-3.341,37.741-42.286,73.35-42.286c37.205,0,40.748,42.52,77.953,42.52
		s40.748-42.52,77.953-42.52c37.205,0,40.748,42.52,77.953,42.52c37.205,0,40.748-42.52,77.953-42.52
		c35.609,0,40.386,38.945,73.35,42.286"/>
	<path style="&st3;" d="M471.924,466.543c-12.062-12.013-22.318-26.307-43.889-26.307c-37.205,0-40.748,42.52-77.953,42.52
		c-37.205,0-40.748-42.52-77.953-42.52c-37.205,0-40.748,42.52-77.953,42.52s-40.748-42.52-77.953-42.52
		c-21.572,0-31.828,14.294-43.889,26.307"/>
</g>
<g>
	<path style="&st4;" d="M337.272,404.297c-21.534-6.91-29.897-30.458-50.819-38.142"/>
	<path style="&st4;" d="M338.801,413.258c-21.486-5.928-30.026-28.208-49.068-37.224"/>
	<path style="&st4;" d="M340.318,422.149c-21.24-4.953-30.02-25.644-47.153-35.784"/>
	<path style="&st4;" d="M341.823,430.973c-20.755-3.997-29.81-22.774-45.049-33.74"/>
	<path style="&st4;" d="M343.318,439.735c-19.984-3.079-29.316-19.611-42.723-30.997"/>
	<path style="&st4;" d="M344.803,448.439c-18.893-2.219-28.446-16.237-40.163-27.521"/>
	<path style="&st4;" d="M346.279,457.089c-17.502-1.448-27.147-12.82-37.404-23.419"/>
	<path style="&st4;" d="M347.746,465.688c-15.914-0.792-25.464-9.621-34.556-19.028"/>
	<path style="&st4;" d="M349.205,474.241c-14.294-0.262-23.56-7.442-31.776-15.382"/>
	<path style="&st4;" d="M181.367,404.297c-21.534-6.91-29.897-30.458-50.819-38.142"/>
	<path style="&st4;" d="M182.896,413.258c-21.486-5.928-30.026-28.208-49.068-37.224"/>
	<path style="&st4;" d="M184.412,422.149c-21.24-4.953-30.02-25.644-47.153-35.784"/>
	<path style="&st4;" d="M185.918,430.973c-20.755-3.997-29.81-22.774-45.049-33.74"/>
	<path style="&st4;" d="M187.413,439.735c-19.984-3.079-29.316-19.611-42.723-30.997"/>
	<path style="&st4;" d="M188.897,448.439c-18.893-2.219-28.446-16.237-40.163-27.521"/>
	<path style="&st4;" d="M190.373,457.089c-17.502-1.448-27.147-12.82-37.404-23.419"/>
	<path style="&st4;" d="M191.84,465.688c-15.914-0.792-25.464-9.621-34.556-19.028"/>
	<path style="&st4;" d="M193.299,474.241c-14.294-0.262-23.56-7.442-31.776-15.382"/>
	<path style="&st4;" d="M493.178,404.297c-21.534-6.91-29.897-30.458-50.819-38.142"/>
	<path style="&st4;" d="M445.639,376.034c19.041,9.016,27.582,31.296,49.068,37.224"/>
	<path style="&st4;" d="M449.07,386.365c16.487,9.757,25.245,29.278,44.808,35.15"/>
	<path style="&st4;" d="M452.68,397.233c13.482,9.702,22.13,25.51,38.317,31.795"/>
	<path style="&st4;" d="M456.501,408.738c10.605,9.006,18.666,21.227,31.46,27.468"/>
	<path style="&st4;" d="M460.546,420.917c7.903,7.611,14.826,16.461,24.29,22.101"/>
	<path style="&st4;" d="M464.781,433.669c5.384,5.563,10.601,11.337,16.872,15.78"/>
	<path style="&st4;" d="M469.095,446.66c2.993,3.097,6.042,6.125,9.346,8.83"/>
	<path style="&st4;" d="M470.832,457.082c0.612,0.592,1.233,1.173,1.859,1.748"/>
</g>
<path style="&st5;" d="M10.695,7.087l23.5,337.807c23.5,305.496,452.367,305.496,475.867,0l23.5-337.807H10.695z"/>
<g>
	<line style="&st6;" x1="260.021" y1="117.863" x2="259.352" y2="99.036"/>
	<path style="&st7;" d="M278.17,99.356c29.017,0,56.584,9.014,71.751,18.2"/>
	<line style="&st7;" x1="278.17" y1="99.356" x2="259.352" y2="99.036"/>
	<line style="&st6;" x1="278.17" y1="99.356" x2="275.772" y2="117.136"/>
	<path style="&st7;" d="M201.553,166.297c15.413-30.286,43.342-49.307,67.725-49.307c17.617,0,57.242,3.977,74.242,15
		c17.212,11.161,27.833,22.523,27.833,51.356c0,32.833-21.433,59-21.433,76c0,8.625,4.742,16.499,14.162,13.188
		c8-2.813,10.25,3,7.938,11.563c-2.262,8.377-8.5,27-40.587,27c-28.913,0-41.663-20.275-43.788-29
		c-2.375-9.75-3.5-32.667-3.5-40.074"/>
	<path style="&st6;" d="M187.73,200.151c17.291,18.589,72.041,37.7,119.457,37.7c14.667,0,24.247-8.838,24.247-24.888"/>
	<path style="&st6;" d="M381.321,83.773c-12.926,9.073-23.545,22-31.4,33.784"/>
	<line style="&st6;" x1="349.921" y1="117.557" x2="343.521" y2="131.99"/>
	<path style="&st6;" d="M283.204,43.09c25.417-1.567,66.717,7.983,98.118,40.683"/>
	<line style="&st7;" x1="283.204" y1="43.09" x2="278.17" y2="99.356"/>
	<path style="&st6;" d="M195.009,174.949c47.37-11.487,62.258,57.679,111.925,57.679c13.833,0,24.5-10.533,24.5-19.666"/>
	<path style="&st6;" d="M259.352,99.036c0-16.19-2.749-40.107-6.55-53.364"/>
	<path style="&st7;" d="M196.788,218.331c-1.102,15.833-8.392,31.533-21.113,39.164c-0.884,0.53-1.534,1.446-1.67,2.623
		c-1.36,11.788-9.429,40.998-10.672,45.496c-1.313,4.75,0.788,7.529,4.038,7.897c41.509,4.695,49.276-66.526,52.151-85.526"/>
	<path style="&st7;" d="M250.412,236.782c-1.106,15.017-3.014,31.186-14.671,36.784c-0.929,0.446-1.534,1.446-1.67,2.623
		c-1.36,11.788-9.429,40.998-10.672,45.496c-1.313,4.75,0.781,7.598,4.038,7.897c50.87,4.658,45.87-69.457,45.87-88.767"/>
	<path style="&st6;" d="M252.802,45.673c6.292-2.582,23.018-3.274,30.401-2.582"/>
	<path style="&st6;" d="M252.802,45.673c12.333-3.899,36.22-4.783,54.711-1.056"/>
	<path style="&st6;" d="M331.434,212.962c0-5.479-4.442-9.921-9.921-9.921c-5.479,0-9.921,4.442-9.921,9.921
		c0,3.029,1.101,5.35,3.331,5.35c1.703,0,3.429-1.357,4.748-5.35c0.368-1.115,0.952-2.126,2.126-2.126
		c1.174,0,2.099,0.822,2.126,2.126c0.054,2.623-1.37,7.04-5.527,10.509c-3.666,3.06-6.375,3.935-11.208,3.935
		c-46.333,0-58.966-70.917-108.431-60.606c-5.037,9.897-11.53,26.856-11.53,40.314c0,2.832,0.075,5.529,2.997,7.443
		c13.923,9.12,60.298,28.516,116.965,28.516c17.208,0,31.333-10.727,31.333-30.111c0-9.393-7.615-17.008-17.008-17.008
		s-17.008,7.615-17.008,17.008c0,5.752,3.516,15.384,13.891,10.509"/>
	<path style="&st7;" d="M270.614,288.993c8.004,2.001,15.697,3.332,22.046,3.332"/>
	<path style="&st7;" d="M229.557,231.299c-2.403,5.467-11.994,35.879-0.619,42.318c1.339,0.758,3.082,1.62,5.133,2.573"/>
	<g>
		<line style="&st4;" x1="245.531" y1="210.813" x2="245.531" y2="194.958"/>
		<line style="&st4;" x1="251.571" y1="216.801" x2="251.571" y2="200.945"/>
		<line style="&st4;" x1="239.49" y1="204.825" x2="239.49" y2="188.97"/>
		<line style="&st4;" x1="257.612" y1="222.821" x2="257.612" y2="206.965"/>
		<line style="&st4;" x1="263.728" y1="228.628" x2="263.728" y2="212.773"/>
		<line style="&st4;" x1="270.199" y1="218.311" x2="270.199" y2="234.166"/>
		<line style="&st4;" x1="277.128" y1="223.322" x2="277.128" y2="235.548"/>
		<line style="&st4;" x1="284.546" y1="227.483" x2="284.546" y2="236.52"/>
		<line style="&st4;" x1="292.475" y1="230.554" x2="292.475" y2="237.264"/>
		<line style="&st4;" x1="300.808" y1="232.258" x2="300.808" y2="237.726"/>
		<line style="&st4;" x1="309.308" y1="232.521" x2="309.308" y2="237.769"/>
		<line style="&st4;" x1="317.55" y1="230.45" x2="317.55" y2="236.055"/>
		<path style="&st4;" d="M309.294,127.162c2.726,4.559,4.31,12.809,4.31,18.734"/>
		<path style="&st4;" d="M317.828,129.055c2.726,4.559,4.568,12.603,3.873,19.44"/>
		<path style="&st4;" d="M326.37,131.549c2.726,4.559,3.9,13.797,3.107,20.389"/>
		<path style="&st4;" d="M335.259,135.243c1.561,5.047,2.449,14.973,1.35,21.326"/>
		<path style="&st4;" d="M342.933,140.131c1.15,5.776,1.837,15.778,0.302,22.758"/>
		<path style="&st4;" d="M349.47,145.386c0.72,5.541,1.022,17.181-1.058,24.742"/>
		<path style="&st4;" d="M355.719,152.077c0.72,5.541-0.882,18.669-3.923,26.253"/>
		<path style="&st4;" d="M360.889,164.176c0.067,6.082-3.594,18.438-7.57,25.638"/>
		<path style="&st4;" d="M363.602,177.494c-0.885,6.149-4.807,17.81-10.14,23.649"/>
		<path style="&st4;" d="M363.772,194.763c-1.958,5.678-5.097,11.858-11.603,17.688"/>
	</g>
	<g>
		<path style="&st4;" d="M210.021,244.908c2.431-7.731,3.089-14.244,3.792-18.986"/>
		<path style="&st4;" d="M198.354,240.023c2.499-5.921,3.638-12.408,4.092-18.928"/>
		<path style="&st4;" d="M204.021,242.437c2.29-6.505,3.507-12.101,4.411-18.716"/>
	</g>
	<path style="&st4;" d="M355.323,221.221c-1.74,6.563-5.74,14.834-8.802,19.063"/>
	<path style="&st4;" d="M360.639,278.479c6.143,0.909,7.122,9.889-4.315,19.076"/>
	<path style="&st4;" d="M295.646,254.132c0,16.839,8.375,35.097,21.516,46.318"/>
	<path style="&st4;" d="M304.677,254.643c0.719,12.952,8.219,32.202,21.756,46.993"/>
	<path style="&st4;" d="M313.446,254.022c0,13.073,8.292,32.948,23.065,46.933"/>
	<path style="&st4;" d="M321.738,252.458c0,16.637,10.532,35.512,24.327,45.567"/>
	<path style="&st4;" d="M329.762,249.746c-0.742,17.725,7.398,32.85,23.369,43.292"/>
	<path style="&st4;" d="M337.16,244.843c-1.264,17.503,5.861,33.636,21.3,40.15"/>
	<path style="&st4;" d="M369.854,81.093c-9.111,7.384-16.927,16.519-23.267,25.39"/>
	<path style="&st4;" d="M362.792,75.117c-8.055,6.617-15.087,14.583-20.964,22.496"/>
	<path style="&st4;" d="M337.099,88.799c5.233-6.772,11.302-13.477,18.125-19.236"/>
	<path style="&st4;" d="M332.4,80.041c4.389-5.455,9.318-10.794,14.744-15.562"/>
	<path style="&st4;" d="M327.732,71.34c3.331-3.971,6.948-7.844,10.837-11.44"/>
	<path style="&st4;" d="M323.096,62.699c2.041-2.331,4.181-4.612,6.418-6.813"/>
	<line style="&st4;" x1="276.639" y1="47.391" x2="275.411" y2="61.122"/>
	<line style="&st4;" x1="270.397" y1="47.524" x2="269.586" y2="56.595"/>
	<line style="&st4;" x1="264.128" y1="47.962" x2="263.76" y2="52.068"/>
</g>
<g>
</g>
<g>
</g>
<g>
</g>
<g>
</g>
<g>
</g>
<g>
</g>
</svg>
