<?xml version="1.0" encoding="UTF-8" standalone="no"?>
<!-- Created with Inkscape (http://www.inkscape.org/) -->

<svg
   xmlns:dc="http://purl.org/dc/elements/1.1/"
   xmlns:cc="http://creativecommons.org/ns#"
   xmlns:rdf="http://www.w3.org/1999/02/22-rdf-syntax-ns#"
   xmlns:svg="http://www.w3.org/2000/svg"
   xmlns="http://www.w3.org/2000/svg"
   xmlns:sodipodi="http://sodipodi.sourceforge.net/DTD/sodipodi-0.dtd"
   xmlns:inkscape="http://www.inkscape.org/namespaces/inkscape"
   width="1323.5625"
   height="1589"
   id="svg2"
   version="1.1"
   inkscape:version="0.48.3.1 r9886"
   sodipodi:docname="Wappen_Stolpen.svg">
  <defs
     id="defs4" />
  <sodipodi:namedview
     id="base"
     pagecolor="#ffffff"
     bordercolor="#666666"
     borderopacity="1.0"
     inkscape:pageopacity="0.0"
     inkscape:pageshadow="2"
     inkscape:zoom="0.21507171"
     inkscape:cx="-419.67711"
     inkscape:cy="885.92686"
     inkscape:document-units="px"
     inkscape:current-layer="layer5"
     showgrid="false"
     showborder="true"
     fit-margin-top="0"
     fit-margin-left="0"
     fit-margin-right="0"
     fit-margin-bottom="0"
     showguides="true"
     inkscape:guide-bbox="true"
     inkscape:window-width="1400"
     inkscape:window-height="966"
     inkscape:window-x="-8"
     inkscape:window-y="-8"
     inkscape:window-maximized="1" />
  <metadata
     id="metadata7">
    <rdf:RDF>
      <cc:Work
         rdf:about="">
        <dc:format>image/svg+xml</dc:format>
        <dc:type
           rdf:resource="http://purl.org/dc/dcmitype/StillImage" />
        <dc:title />
      </cc:Work>
    </rdf:RDF>
  </metadata>
  <g
     inkscape:groupmode="layer"
     id="layer5"
     inkscape:label="Color"
     style="display:inline"
     transform="translate(-43,-35.0618)">
    <path
       style="font-size:medium;font-style:normal;font-variant:normal;font-weight:normal;font-stretch:normal;text-indent:0;text-align:start;text-decoration:none;line-height:normal;letter-spacing:normal;word-spacing:normal;text-transform:none;direction:ltr;block-progression:tb;writing-mode:lr-tb;text-anchor:start;baseline-shift:baseline;color:#000000;fill:#3370b0;fill-opacity:1;fill-rule:nonzero;stroke:none;stroke-width:13.81406116000000000;marker:none;visibility:visible;display:inline;overflow:visible;enable-background:accumulate;font-family:Sans;-inkscape-font-specification:Sans"
       d="m 363.38138,78.458992 c -17.06597,0.383931 -14.64024,23.675408 -0.45172,23.886748 14.02292,0.20889 17.51769,-24.270679 0.45172,-23.886748 z M 1043.75,80.25 c -15.5527,4.491751 -17.06,26.86489 -1.7326,25.31598 13.3815,-1.35227 22.5128,-18.209406 1.7326,-25.31598 z m -0.2188,47.08641 -103.51691,222.77757 c -0.19199,0.41318 -18.13539,-5.16508 -21.61847,4.71518 -3.58348,10.16504 -5.32365,23.54824 1.34455,33.88199 1.98689,3.07909 12.57578,9.22021 14.16833,11.49066 7.43434,43.12789 -7.81261,73.03426 4.56005,116.23564 -25.87852,5.2798 -3.24627,39.15715 -1.23475,31.22375 l -3.91695,195.24475 -53.53855,3.74658 -2.52307,-37.45627 -68.63162,-2.41368 -1.35197,38.49842 -78.14684,1.40625 -1.07904,-37.80376 -64.76454,0.74104 0.81567,32.88128 -80.28459,1.58769 -3.53064,-36.55263 -56.21191,0.27686 0.91351,36.14827 -54.20221,-0.0598 1.13644,-203.38008 c 3.04496,0.0879 15.67013,-11.6361 12.11081,-20.73091 -3.11507,-4.3437 -6.71377,-4.61219 -8.07355,-8.26205 -2.38176,-6.39305 -2.39218,-13.04041 -1.15683,-24.56164 l 0.19715,-93.08993 c 0.013,-6.12579 6.18748,-4.45659 8.75473,-3.63164 25.40563,-7.02954 13.01276,-58.50762 -14.05835,-42.21851 C 445.03368,315.0115 366.60081,120.07558 366.60081,120.07558 c 0,0 -70.83228,152.99924 -109.41331,228.17442 -28.11022,-14.20055 -26.17658,30.65415 -13.3539,41.18298 11.42993,0.9655 12.74441,-0.92218 10.1039,10.39815 -4.37881,30.61212 7.42688,65.38901 0,92.5625 5.76677,11.96531 -2.88591,15.46769 -8.30753,20.7633 -4.64595,4.53797 -6.43241,10.68487 -0.22372,21.31182 6.5174,0.27915 8.66127,1.94685 8.92628,4.56869 l -0.83466,200.21137 -19.21662,0.78244 -1.07793,-34.125 L 176.5433,704.54556 172.86806,737 116.74679,737.93637 113.625,710.76676 54.61166,707.58061 c -9.601015,157.03138 -16.830522,312.29389 40.049869,476.70639 81.956601,232.1829 302.858351,409.5689 549.716091,428.1735 277.68839,28.1102 554.55958,-147.3259 663.14908,-401.7651 50.3019,-104.915 59.4292,-221.84933 55.5983,-336.25488 l -5.7677,-167.98409 -63.5974,1.34828 -1.9699,26.99354 -58.0038,-1.45489 -3.8822,-25.99686 -56.5165,0.0439 0.4595,26.67481 -22.472,-3.41501 3.7796,-183.88196 c 38.8949,-15.98906 -5.6075,-32.78711 -2.1902,-30.51487 l 1.2737,-121.27885 c 19.254,-3.32924 25.2822,-28.27263 15.9556,-38.82711 -3.7803,-4.27802 -11.4552,-7.36701 -18.9437,-8.3662 z"
       id="path4617"
       inkscape:connector-curvature="0"
       sodipodi:nodetypes="zszcsccssscccccccccccccccccccscscccccccscccccccccccccccccccccccccscc" />
    <path
       style="fill:#0000ff;fill-opacity:1;stroke:#0000ff;stroke-width:13.81406116;stroke-linecap:round;stroke-linejoin:round;stroke-miterlimit:4;stroke-dasharray:none"
       d=""
       id="path4827"
       inkscape:connector-curvature="0" />
    <path
       style="fill:#0000ff;fill-opacity:1;stroke:#0000ff;stroke-width:13.81406116;stroke-linecap:round;stroke-linejoin:round;stroke-miterlimit:4;stroke-dasharray:none"
       d=""
       id="path4829"
       inkscape:connector-curvature="0" />
    <path
       style="fill:#0000ff;fill-opacity:1;stroke:#0000ff;stroke-width:6.90703058;stroke-linecap:round;stroke-linejoin:round;stroke-miterlimit:4;stroke-dasharray:none"
       d=""
       id="path5023"
       inkscape:connector-curvature="0" />
    <path
       style="fill:#0000ff;fill-opacity:1;stroke:#0000ff;stroke-width:6.90703058;stroke-linecap:round;stroke-linejoin:round;stroke-miterlimit:4;stroke-dasharray:none"
       d=""
       id="path5025"
       inkscape:connector-curvature="0" />
    <path
       style="fill:#0000ff;fill-opacity:1;stroke:#0000ff;stroke-width:6.90703058;stroke-linecap:round;stroke-linejoin:round;stroke-miterlimit:4;stroke-dasharray:none"
       d=""
       id="path5027"
       inkscape:connector-curvature="0" />
  </g>
  <g
     inkscape:groupmode="layer"
     id="layer6"
     inkscape:label="Color2"
     style="display:inline"
     transform="translate(-43,-35.0618)">
    <path
       style="font-size:medium;font-style:normal;font-variant:normal;font-weight:normal;font-stretch:normal;text-indent:0;text-align:start;text-decoration:none;line-height:normal;letter-spacing:normal;word-spacing:normal;text-transform:none;direction:ltr;block-progression:tb;writing-mode:lr-tb;text-anchor:start;baseline-shift:baseline;color:#000000;fill:#fde003;fill-opacity:1;fill-rule:nonzero;stroke:none;stroke-width:19.53603363;marker:none;visibility:visible;display:inline;overflow:visible;enable-background:accumulate;font-family:Sans;-inkscape-font-specification:Sans"
       d="m 1343.125,40.6875 c -8.6465,0.07998 -18.5227,2.661285 -25.8438,0.78125 l -1258.62495,0 c -17.70855,3.26583 -6.742542,27.397841 -9.75,39.46875 0.295867,207.89044 -0.59453,415.90059 0.4375,623.71875 l 61.10645,1.81756 0.20605,31.24494 64.2931,0.0363 -1.32013,-30.89107 56.82519,-0.39018 2.68525,32.17914 22.57909,-4.09045 1.4375,-194.53125 c -22.05715,-7.74315 -18.58972,-22.98414 -2.21453,-35.09291 0.99504,-37.38071 6.22807,-74.64611 2.77703,-111.93834 -18.33889,-3.57002 -45.21437,-49.88236 2.96875,-44.90625 15.25246,-20.20055 22.09392,-46.91652 34.375,-69.40625 22.24725,-50.40371 48.90988,-99.59712 66.15625,-151.65625 -0.4872,-5.27232 0.7191,-10.64953 -1.9117,-19.68814 -1.37892,-4.73756 -7.48639,-13.290834 -7.52731,-17.307878 -0.10371,-10.179805 21.58974,-11.249004 23.17907,-3.307982 1.58934,7.941022 -6.19797,12.550168 -8.25633,18.74973 -1.77581,5.34853 2.16028,12.33802 2.91173,18.25671 3.62876,28.58125 21.06124,58.4602 30.66704,83.45381 22.49201,46.32233 41.84035,94.83781 66,140.03125 9.42134,-3.17169 28.01305,-5.9723 28.21731,2.25777 l 0.78021,31.43644 c 0.16682,6.72161 -11.31731,9.05764 -21.25597,10.26864 l 0.79223,120.76012 c 23.07174,15.8261 6.21022,20.26547 -1.7728,27.63378 l -0.81758,118.39662 c 14.37287,-2.4728 28.89084,-14.03624 40.4941,-23.37837 -0.86189,3.80416 0.3135,8.01728 4.8125,12.4375 35.19768,33.54708 86.1137,101.35743 137.0625,96.46875 4.9855,1.22014 11.43235,-1.66544 10.21875,-7.65625 l 0,-28.125 63.15625,0 c 0.32224,11.48049 -0.63695,23.12279 0.46875,34.5 3.01933,6.05026 10.88471,2.85565 16.1875,3.65625 21.5437,-0.009 40.0404,-12.55111 58.625,-21.9375 4.19839,-4.2216 1.43542,-10.90998 2.21875,-16.21875 7.44993,-0.63755 15.45569,1.30512 22.5625,-1.03125 22.34308,-17.76851 44.24313,-36.56328 62.78125,-58.28125 1.19931,-3.07146 1.42835,-5.891 0.96875,-8.5 8.07343,6.7018 15.67695,14.03625 22.625,22.3125 4.99018,12.12073 25.01953,10.00143 22.4375,-4.3125 -0.53394,-37.7396 2.36688,-76.00801 -0.125,-113.4375 -24.76351,-13.32983 -9.16825,-23.85447 1.0625,-33.90625 -1.41021,-38.2365 3.58574,-77.5414 -3.84375,-114.90625 -21.11031,-4.73142 -35.34645,-52.04492 5.28125,-42.15625 20.15534,-34.60831 34.41934,-73.46095 52.40625,-109.625 17.5626,-42.69159 45.6524,-84.66829 49.75,-129.84375 -7.5463,-11.18518 -14.1304,-33.230216 8.6518,-29.5807 -1.1465,3.219773 3.1583,4.31252 3.2515,12.436418 0.097,8.486152 -5.4834,16.271262 -5.6455,19.956712 -1.3134,29.874 11.4146,52.23579 25.836,79.59382 25.2437,52.13368 47.0965,106.58673 73.9687,157.625 35.3707,-7.28995 27.5676,13.84014 23.6554,35.40119 -6.0111,2.02978 -14.677,5.06672 -17.9605,8.8652 l -0.6636,119.20236 c 34.68,15.57288 6.1762,21.27519 3.8986,33.75084 l -3.6504,181.05829 19.1846,1.91829 2.8172,-25.94617 56.0372,-0.15288 -0.6622,23.71538 62.576,3.37669 1.2086,-24.11657 63.3851,-2.13259 c 5.5161,-204.64559 2.8984,-471.1162 2.049,-660.65878 -3.4668,-6.260135 -9.4624,-7.71846 -16.1875,-7.65625 z m -640.8125,71.09375 c 19.30696,10.77613 8.06785,22.75506 -1.40971,23.58784 -17.4902,-4.95273 -16.46697,-22.81775 1.40971,-23.58784 z m -20.53125,56.625 c 0.10575,3.3438 0.42809,6.74026 0.0937,9.875 l 0,153.28125 c -25.63684,3.77584 -51.67989,5.81878 -76.625,13.34375 -6.17526,1.23892 -14.60058,4.1169 -19.375,8.9375 -8.44898,-19.1294 -14.02031,-38.45182 3.5625,-57.71875 19.35507,-48.07186 54.56139,-94.16771 92.34375,-127.71875 z m 43.0625,1.53125 c 46.75041,43.93656 85.01502,98.12607 101.53125,160.65625 -2.9737,8.0761 -6.98631,15.97281 -11.125,23.84375 -6.42814,-6.60324 -19.80365,-5.88647 -28.0625,-9.1875 -20.19136,-4.91348 -40.81118,-7.51219 -61.21875,-11.25 -1.96602,-46.95507 -0.82931,-93.97912 -1.125,-140.96875 -0.12695,-7.68485 0.13481,-15.40937 0,-23.09375 z m 1.375,166.90625 c 0.79468,0.28354 -0.36109,2.84647 0,0 z m -29.5625,46.71875 c 26.37292,0.0522 52.77656,4.83783 77.53125,14 6.61673,2.72208 15.18919,5.86177 21.875,4.28125 -0.10193,0.70025 -0.20217,1.42046 -0.28125,2.125 29.38738,16.26634 10.73958,57.58378 3.15625,82.59375 -13.61233,19.04443 -58.14152,63.01843 -23.125,83.1875 -0.36656,0.2961 -0.73965,0.64335 -1.09375,1.0625 -48.19527,49.26606 -100.78085,51.14908 -143.5625,-4.75 -0.33411,-0.29014 -0.70354,-0.51131 -1.09375,-0.71875 5.86872,-7.93686 8.92698,-17.02014 7.6875,-27.75 -21.79347,-37.21249 -60.02301,-82.78605 -38.8125,-125.25 1.3982,-3.54619 2.14034,-7.1075 2.34375,-10.6875 5.49814,2.44286 12.46492,-1.79511 18.03125,-3.6875 24.63768,-9.7859 50.97083,-14.45849 77.34375,-14.40625 z M 818.625,594.34375 c 10.64736,5.77051 21.33467,11.46852 31.78125,17.5 -4.04992,4.46932 -8.96822,12.37546 -16.8125,20.3125 -22.57268,27.40129 -56.41984,42.16242 -88.8125,54.5625 -13.50574,5.38611 -7.1382,-23.41335 -10.0625,-31.5 28.95734,-16.46117 66.78509,-28.32248 84.59375,-56.4375 0.0381,-1.64838 -0.20367,-3.11098 -0.6875,-4.4375 z M 585.4375,596.875 c -0.15108,2.15848 0.58674,4.56219 2.625,7.3125 18.16322,26.74744 50.13568,38.27882 78.5,50.90625 5.47735,7.21716 2.01276,28.45991 -3.53125,33.28125 -32.38924,-11.86938 -65.56176,-25.9292 -88.9375,-52.3125 -6.04673,-9.31553 -13.63612,-20.70596 -23.46875,-22.90625 11.04001,-5.37171 23.17172,-10.62919 34.8125,-16.28125 z"
       id="path4525"
       inkscape:connector-curvature="0"
       sodipodi:nodetypes="ccccccccccccccccccsszssccssccccccccccccccccccccccccccsscccccccccccccccsccccccccccccscccccscccccccccccccscccccccccccccccc" />
    <path
       style="font-size:medium;font-style:normal;font-variant:normal;font-weight:normal;font-stretch:normal;text-indent:0;text-align:start;text-decoration:none;line-height:normal;letter-spacing:normal;word-spacing:normal;text-transform:none;direction:ltr;block-progression:tb;writing-mode:lr-tb;text-anchor:start;baseline-shift:baseline;color:#000000;fill:#e12b2e;fill-opacity:1;fill-rule:nonzero;stroke:none;stroke-width:13.81406116;marker:none;visibility:visible;display:inline;overflow:visible;enable-background:accumulate;font-family:Sans;-inkscape-font-specification:Sans"
       d="m 726.46875,166.96875 c -15.84784,17.03134 -2.30948,50.11726 -6.90827,73.28759 -0.13892,31.82072 -0.3522,63.64842 0.47077,95.46241 22.75783,9.53322 51.6015,7.81391 76.03134,17.06071 36.99709,15.98055 40.93929,-35.07287 24.1724,-56.42344 C 799.60657,247.49215 768.54147,203.0811 729.15625,167.5 z m -47.78125,0.375 c -33.2049,22.55422 -55.5292,57.67903 -76.33164,91.29565 -13.33871,25.03048 -28.14135,51.82936 -28.89606,80.66835 13.20196,34.01691 48.55437,-3.09324 73.61437,2.18189 21.89073,-0.22334 49.90995,-2.93323 40.61333,-31.80214 -0.75833,-45.75922 1.77983,-91.76523 -1.68774,-137.36299 -1.20901,-2.84087 -4.07381,-5.20532 -7.31226,-4.98076 z m 143.9375,425.9375 c -20.05669,21.47676 -26.8262,40.26245 -74.84146,54.4758 -27.49627,9.21789 -18.54952,58.38309 13.96511,35.52357 30.77311,-15.03555 65.58767,-30.88704 82.63482,-62.31938 6.72828,-14.65468 -9.64507,-25.17739 -21.75847,-27.67999 z m -240.5625,1.65625 c -27.93356,3.51406 -28.43219,30.32883 -8.18134,44.69245 23.21075,25.0066 55.28692,39.10453 86.93134,50.18255 11.92671,-8.92062 16.75287,-25.36605 10.16966,-31.5308 -9.20346,-8.61845 -21.88283,-12.64238 -38.9299,-22.6914 -20.91857,-8.13963 -34.92755,-27.29728 -49.98976,-40.6528 z m -75.59375,43.78125 c -25.3748,9.30785 -43.1732,34.14709 -35.48277,61.41666 1.44761,16.53977 -9.10693,52.43102 19.52136,44.7273 18.30253,2.40518 43.99131,2.64063 35.55914,-23.94652 -11.62714,-28.41139 61.18722,1.35505 34.55522,-30.12232 -18.75845,-15.70111 -32.41759,-37.47328 -52.02433,-51.68642 l -1.46514,-0.26754 z m 392,4.09375 c -18.41477,11.66142 -31.35338,30.77469 -48.75259,44.24611 -19.06071,9.67799 -9.75308,27.05931 10.14914,21.06117 33.32138,-10.77277 -2.03441,51.03015 34.58448,39.74872 22.30553,2.61034 50.74108,2.08281 40.30763,-29.23495 3.39656,-27.74444 0.93276,-53.54267 -25.85734,-68.36137 -3.71463,-1.71903 -5.71645,-7.76842 -10.43132,-7.45968 z M 588.0625,714.90625 c -11.32324,1.96006 -5.36787,16.84491 -6.61203,24.65357 3.40449,9.82696 16.39,3.95964 24.04885,5.4918 6.19524,1.3685 17.41354,-0.32237 14.80457,-9.17128 -7.21794,-9.04975 -19.74546,-12.97553 -28.89991,-20.1977 -1.02517,-0.53412 -2.18584,-0.80381 -3.34148,-0.77639 z M 799.03125,725.75 c -6.69126,2.39125 -16.60036,5.35664 -19.40266,12.73432 -0.57003,11.46506 15.71568,8.12339 22.15266,6.67193 7.07166,-3.76338 6.67683,-19.04517 -2.75,-19.40625 z m 2.25,13.40625 c 0.52707,-0.0358 -1.57866,0.64139 0,0 z"
       id="path4570"
       inkscape:connector-curvature="0"
       sodipodi:nodetypes="ccccccccccccccccccccccsccccccccccccccccccccccccccccc" />
    <path
       style="fill:#e12b2e;fill-opacity:1;stroke:#ff0000;stroke-width:13.81406116;stroke-linecap:round;stroke-linejoin:round;stroke-miterlimit:4;stroke-dasharray:none;display:inline"
       d="m 693.85543,126.13451 c -2.6899,-4.35236 4.94957,-13.68455 9.7077,-11.85868 3.18419,1.22189 2.74394,10.10474 -0.58922,11.88859 -3.44984,1.8463 -7.96808,1.83148 -9.11848,-0.0299 z"
       id="path4609"
       inkscape:connector-curvature="0" />
    <path
       style="font-size:medium;font-style:normal;font-variant:normal;font-weight:normal;font-stretch:normal;text-indent:0;text-align:start;text-decoration:none;line-height:normal;letter-spacing:normal;word-spacing:normal;text-transform:none;direction:ltr;block-progression:tb;writing-mode:lr-tb;text-anchor:start;baseline-shift:baseline;color:#000000;fill:#fcb439;fill-opacity:1;fill-rule:nonzero;stroke:none;stroke-width:19.53603362999999900;marker:none;visibility:visible;display:inline;overflow:visible;enable-background:accumulate;font-family:Sans;-inkscape-font-specification:Sans"
       d="m 607.40529,395.25997 c -9.035,3.45613 2.7971,23.65 -9.72779,14.36127 -14.65718,-0.0683 -12.24849,18.93281 -11.53082,28.95968 0.85539,17.81393 0.73119,37.72395 12.02281,52.51063 5.95179,2.47144 15.83283,0.25239 13.66194,10.21967 5.83789,19.34205 16.11678,37.35587 29.94982,52.09503 -14.24435,2.0963 -7.80521,18.56602 0.36329,24.19827 15.74338,16.83459 36.85169,32.47243 61.12904,30.36546 23.39012,1.29295 43.16348,-13.46737 60.664,-27.07787 9.81308,-4.74943 15.76651,-18.85135 2.63541,-23.71712 -8.79727,-3.86116 6.62717,-10.85628 8.0273,-16.77301 8.77092,-12.60273 16.1729,-26.76062 18.23648,-42.08841 1.55741,-9.49226 11.79691,-3.3596 12.43545,-15.29556 4.45596,-18.48691 16.04476,-37.42099 12.05484,-56.5949 -0.69282,-10.23994 -9.29349,-13.78042 -17.39592,-15.77907 2.74526,-11.09257 -9.14314,-15.0767 -17.39989,-17.89404 -55.43224,-18.30804 -122.52477,-23.10342 -175.12596,2.50997 z m -14.18654,64.45878 0.34666,0.41217 z"
       id="path4539"
       inkscape:connector-curvature="0"
       sodipodi:nodetypes="cccccccccccccccccccc" />
  </g>
  <g
     inkscape:label="Vector"
     inkscape:groupmode="layer"
     id="layer1"
     transform="translate(307,259.57602)"
     style="display:inline">
    <g
       id="g5348">
      <path
         style="font-size:medium;font-style:normal;font-variant:normal;font-weight:normal;font-stretch:normal;text-indent:0;text-align:start;text-decoration:none;line-height:normal;letter-spacing:normal;word-spacing:normal;text-transform:none;direction:ltr;block-progression:tb;writing-mode:lr-tb;text-anchor:start;baseline-shift:baseline;color:#000000;fill:#000000;fill-opacity:1;stroke:none;stroke-width:15.00000286;marker:none;visibility:visible;display:inline;overflow:visible;enable-background:accumulate;font-family:Sans;-inkscape-font-specification:Sans"
         d="m 43,35.0625 0,7.5 0,919.71875 0,0.0312 c 0.0047,101.17975 22.749595,197.07885 63.375,282.84375 l 0,0.3438 0.15625,0 c 80.06053,168.7697 229.43041,298.2684 411.3125,351.75 l 0,0.3438 3.59375,1.0312 c 0,0 7.93638,2.3588 21.6875,5.5625 0.0516,0.013 0.10466,0.018 0.15625,0.031 0.0594,0.014 0.12786,0.05 0.1875,0.062 51.63192,12.9386 105.67684,19.7813 161.3125,19.7813 365.39495,0 661.76415,-296.3591 661.78125,-661.75005 l 0,-0.0312 0,-919.71875 0,-7.5 -7.5,0 -1308.5625,0 -7.5,0 z m 15,15 1293.5625,0 0,652.00507 c -21,0 -42,0 -63,0 0,8.58333 0,18.0991 0,26.68243 l -51.625,0 c 0,-8.91667 0,-17.76576 0,-26.68243 -23.8257,0 -48.5952,0 -69.0937,0 0,8.91667 0,17.76576 0,26.68243 l -9.625,0 0,-181.03125 c 7.2522,-3.01255 12.4062,-10.16946 12.4062,-18.46875 0,-10.98626 -9.0137,-20 -20,-20 l -212.125,0 c -10.9863,0 -20,9.01374 -20,20 0,7.40849 4.11767,13.88839 10.15625,17.34375 0.0617,67.47735 0.0312,126.65127 0.0312,194.78125 l -46.375,0 0,-39.30743 -81.75,0 c -0.33641,9.40094 -0.18513,30.00282 -0.1875,38.80743 l -67.5625,0 0,-38.80743 c -25.33852,0.19792 -51.64996,-0.17829 -73.4375,0.0625 0.1225,9.5621 0.13174,26.58852 0.125,36.15118 l -58.58829,0 -13.06796,0 0,-36.21368 -68.5625,0 0.1875,36.93243 -42.21875,0 0,-197 c 6.99986,-3.12418 11.9375,-10.13378 11.9375,-18.25 0,-10.98626 -9.01374,-20 -20,-20 l -212.125,0 c -10.98626,0 -20,9.01374 -20,20 0,7.94336 4.73722,14.81164 11.5,18.03125 l -0.0937,191.5 -9.625,0 0,-31.21368 -69.09375,0 0,31.21368 -51.625,0 0,-31.21368 -60.125,0 z m 199.0625,463.5625 212.125,0 c 5.65404,0 10.125,4.47096 10.125,10.125 0,5.2258 -3.83227,9.42271 -8.875,10.03125 l -214.625,0 c -5.04273,-0.60854 -8.875,-4.80545 -8.875,-10.03125 0,-5.65404 4.47096,-10.125 10.125,-10.125 z m 681.4375,5.5 212.125,0 c 5.654,0 10.125,4.47096 10.125,10.125 0,5.65404 -4.471,10.125 -10.125,10.125 l -212.125,0 c -5.654,0 -10.125,-4.47096 -10.125,-10.125 0,-5.65404 4.471,-10.125 10.125,-10.125 z m -680.03125,24.65625 208.78125,0 c -0.0763,74.64074 0,149.53571 0,223.875 l -208.78125,0 z m 680.21875,6 209.5313,0 0,217.875 -209.5313,0 z M 1177.8438,712 l 49.0937,0 0,55.09375 0,0.5625 -49.0937,0 z m 120.7187,0.0676 53,0 0,55.58868 -53,0 z m -1118.8125,0 49.09375,0 0,55.58868 -49.09375,0 z m -121.75,0 50.125,0 0,55.58868 -50.125,0 z m 611.46875,0 53.34375,0 0,55.58868 -53.34375,0 z m -140,0 48.375,0 0,55.58868 -48.375,0 z m 281.375,0 61.46875,0 0,55.58868 -61.46875,0 z m 347.37505,26.68243 9.625,0 0,28.90625 -9.625,0 z m 78.7187,0 51.625,0 0,28.90625 -51.625,0 0,-0.5625 z m -1118.8125,4.53125 51.625,0 0,24.375 -51.625,0 z m 120.71875,0 9.625,0 0,24.375 -9.625,0 z m 349,5 71.65625,0 c -0.0137,6.45846 -0.0312,12.91641 -0.0312,19.375 l -71.625,0 0,-19.375 z M 477.25,749 l 42.21875,0 0,18.65625 -42.21875,0 z m 255.5625,1.875 67.5625,0 0,16.78125 -67.5625,0 z m 149.5,0.5 46.375,0 0,16.28125 -46.375,0 z M 58,782.65625 l 88.53125,0 0,43.0625 -88.53125,0 z m 98.53125,0 91.9375,0 0,42.8125 -91.9375,0 z m 101.9375,0 208.78125,0 0,781.43755 c -78.16841,-30.8652 -148.88973,-76.5074 -208.6875,-133.5 -0.002,-215.9792 -0.0571,-431.95837 -0.0937,-647.93755 z m 218.78125,0 73.53125,0 0,46.21875 -73.53125,0 z m 83.53125,0 97.6875,0 2.5,20.46875 c -24.01746,4.19834 -51.73087,12.10331 -73.53125,25.75 l -26.65625,0 z m 107.75,0 62.34375,0 c -3.28628,23.46018 -5.65842,46.24989 -9.5,68.34375 -6.15655,-0.61746 -12.40043,-0.9375 -18.71875,-0.9375 -8.71839,0 -17.28795,0.61643 -25.6875,1.78125 z m 72.40625,0 105.8125,0 0,51.25 -20.90625,0 c -4.26169,-2.54635 -8.61891,-4.95502 -13.0625,-7.15625 -18.35402,-9.09206 -37.89223,-15.03082 -57.0625,-20.65625 -5.10023,-1.49664 -13.44144,-3.24957 -17.3125,-4.03125 1.23881,-9.41753 2.06294,-15.7512 2.53125,-19.40625 z m 115.8125,0 71.9375,0 0,51.25 -71.9375,0 z m 81.9375,0 209.5313,0 c -0.091,215.96443 -0.063,447.89755 -0.063,650.59375 -60.1221,56.6203 -131.0936,101.8514 -209.4687,132.25 l 0,-782.84375 z m 219.5313,0 91.9374,0 0,38.28125 -91.9374,0 z m 101.9374,0 91.4063,0 0,38.53125 -91.4063,0 z m -523.06245,29.375 c 3.35069,0.68347 11.24332,2.31544 15.8125,3.65625 19.09269,5.60267 38.0591,11.42249 55.4375,20.03125 5.48195,2.71561 10.82919,5.75671 16.03125,9.03125 l -22.4375,34.09375 c -21.04173,-13.35351 -44.95614,-22.57875 -70.59375,-26.5625 1.99669,-12.46864 3.84372,-25.93925 5.40625,-37.5625 0.13351,-0.99463 0.21191,-1.70036 0.34375,-2.6875 z M 662.1875,813.125 667.125,853.5 C 637.2418,859.30052 609.91252,872.24681 587,890.53125 L 561.625,857.8125 c 29.71327,-24.85177 68.58782,-38.89623 100.5625,-44.6875 z m 495.9687,17.8125 48.8438,0 0,51.375 -48.8438,0 z m 58.8438,0 c 25.1394,0.11822 49.5358,0.25 74.8438,0.25 l 0,50.96875 -74.8438,0 z m 84.8438,0.25 49.7187,0 0,51.25 c -17.0467,0.39636 -34.0756,-0.28125 -49.7187,-0.28125 z m -1112.12505,4.28125 0,51.21875 -74.875,0 0,-50.96875 z m 10,0 48.84375,0 0,51.34375 -48.84375,0 z M 58,835.71875 l 46.84375,0 0,51.25 -46.84375,0 z m 244.96875,0.3125 c -2.61798,0.0328 -4.97017,2.44452 -4.9375,5.0625 l 0,70.46875 c -8.10211,2.22757 -14.125,9.65923 -14.125,18.4375 0,10.51269 8.61231,19.125 19.125,19.125 10.51269,0 19.15625,-8.61231 19.15625,-19.125 0,-8.77827 -6.04695,-16.20993 -14.15625,-18.4375 l 0,-70.46875 c 0.0332,-2.65964 -2.40286,-5.09569 -5.0625,-5.0625 z m 61.34375,0 c -2.61798,0.0328 -4.97017,2.44452 -4.9375,5.0625 l 0,70.46875 c -8.10211,2.2276 -14.125,9.6592 -14.125,18.4375 0,10.5127 8.61231,19.125 19.125,19.125 10.51269,0 19.15625,-8.6123 19.15625,-19.125 0,-8.7783 -6.04695,-16.2099 -14.15625,-18.4375 l 0,-70.46875 c 0.0332,-2.65964 -2.40286,-5.09569 -5.0625,-5.0625 z m 61.3125,0 c -2.61798,0.0328 -4.97017,2.44452 -4.9375,5.0625 l 0,70.46875 c -8.10211,2.2276 -14.125,9.6592 -14.125,18.4375 0,10.5127 8.61231,19.125 19.125,19.125 10.51269,0 19.15625,-8.6123 19.15625,-19.125 0,-8.7783 -6.04695,-16.2099 -14.15625,-18.4375 l 0,-70.46875 c 0.0332,-2.65964 -2.40286,-5.09569 -5.0625,-5.0625 z m 51.625,2.84375 26.03125,0 0,49.59375 -26.03125,0 z m 36.03125,0 57.28125,0 c -5.3634,3.55666 1.05821,-1.36006 -15.53125,11.40625 -16.58946,12.76631 -38.65625,38.1875 -38.65625,38.1875 l -3.09375,0 z m 467.75,1.1875 c -2.61798,0.0328 -4.97017,2.44452 -4.9375,5.0625 l 0,70.46875 c -8.10211,2.22757 -14.125,9.65923 -14.125,18.4375 0,10.51269 8.61231,19.125 19.125,19.125 10.51269,0 19.15625,-8.61231 19.15625,-19.125 0,-8.77827 -6.04695,-16.20993 -14.15625,-18.4375 l 0,-70.46875 c 0.0332,-2.65964 -2.40286,-5.09569 -5.0625,-5.0625 z m 61.31255,0 c -2.6181,0.0328 -4.9702,2.44452 -4.9376,5.0625 l 0,70.46875 c -8.102,2.2276 -14.125,9.6592 -14.125,18.4375 0,10.5127 8.6125,19.125 19.125,19.125 10.5127,0 19.1563,-8.6123 19.1563,-19.125 0,-8.7783 -6.0466,-16.2099 -14.1563,-18.4375 l 0,-70.46875 c 0.033,-2.65964 -2.403,-5.09569 -5.0624,-5.0625 z m 61.3437,0 c -2.618,0.0328 -4.9702,2.44452 -4.9375,5.0625 l 0,70.46875 c -8.1021,2.2276 -14.125,9.6592 -14.125,18.4375 0,10.5127 8.6123,19.125 19.125,19.125 10.5127,0 19.1562,-8.6123 19.1562,-19.125 0,-8.7783 -6.0469,-16.2099 -14.1562,-18.4375 l 0,-70.46875 c 0.033,-2.65964 -2.4029,-5.09569 -5.0625,-5.0625 z m -262.71875,3.84375 43.15625,0 0,41.4375 C 873.13217,873.48241 862.29855,860.87604 849.21875,850.25 c -2.6938,-2.18844 -5.44096,-4.29311 -8.25,-6.34375 z m 53.15625,0 34.5625,0 0,48.59375 -34.5625,0 z m -61.4375,6.40625 c 3.49932,2.47208 6.93401,5.02484 10.25,7.71875 14.12065,11.47165 26.039,26.06295 39.3125,39.875 2.86062,2.97668 5.55846,6.08048 8.125,9.25 L 855.65625,930.625 c -12.33686,-17.92318 -27.72699,-33.56742 -45.4375,-46.1875 z m -127.46875,9.8125 c 96.25928,6.62192 166.11527,73.68086 173.0625,175.5625 0,5.7218 -0.24943,11.3755 -0.78125,16.9375 l -0.0312,0.2188 0,0.25 0,51.5624 -172.25,0 0,-244.5312 z m -10,0.0937 0,244.4375 -167.375,0 0,-51.9062 0,-0.2188 -0.0312,-0.25 c -0.51275,-5.4719 -0.78125,-11.0048 -0.78125,-16.5937 0,-53.28751 23.67294,-100.99015 61.09375,-133.18755 l 4.96875,-4.125 c 28.2175,-22.53475 63.56828,-36.55051 102.125,-38.15625 z M 554.0625,864.34375 579.34375,897 c -18.78086,16.71224 -34.13214,37.18025 -44.90625,60.21875 l -40.78125,-18.6875 c 6.98733,-13.5771 16.35682,-28.12047 28.34375,-40.59375 10.93881,-11.38263 20.96585,-23.3274 32.0625,-33.59375 z m 696.0937,27.8125 0,51.75 -92,0 0,-51.59375 c 30.8533,0.0678 61.2218,-0.15625 92,-0.15625 z m 10,0 c 30.6395,0.10068 60.4758,0.28125 91.4063,0.28125 l 0,51.21875 -91.4063,0 z m -1113.62495,4.53125 0,51.5 -88.53125,0 0,-51.21875 z m 10,0 92.03125,0.125 0,51.625 -92,0 -0.0312,-51.75 z m 320.71875,1.78125 30.8125,0 C 493.77008,915.4223 483.7731,934.39934 477.25,950.125 z m 422.21875,4.03125 29.21875,0 0,51.78125 c -0.24706,-0.63236 -0.49079,-1.26103 -0.75,-1.90625 -6.00053,-14.93649 -15.2512,-33.15673 -28.46875,-49.875 z m -3.03125,12.625 c 9.93808,13.94299 17.26765,28.6445 22.21875,40.96875 3.5334,8.79533 6.1401,16.34431 7.09375,21.5 l 2.9375,10.9375 -0.0312,0.0625 0.0312,0.0312 0,9.3125 -43.15625,5.90625 C 881.47847,980.43931 873.07496,958.53079 861.125,939 z m -407.15625,32.40625 41.15625,18.875 c -5.18963,12.87422 -8.96054,26.44906 -11.15625,40.56255 L 477.25,1000.5 c 0.0236,-7.73292 -0.46364,-15.32982 1.25,-22.875 1.22113,-5.09896 3.56035,-12.70467 7.09375,-21.5 1.1058,-2.75256 2.34176,-5.63777 3.6875,-8.59375 z m 803.81255,6.125 0,55.28125 -74.8438,0 0,-55.03125 c 25.0026,-0.13097 49.778,-0.25 74.8438,-0.25 z m 10,0 48.4687,0 0,8.625 0,0.0312 c -7e-4,15.76095 -0.5792,31.39638 -1.6875,46.87505 l -46.7812,0 0,-55.5313 z m -144.9376,0.25 50.0938,0 0,55.15625 -50.0938,0 z M 58,958.1875 l 45.59375,0 0,55.5313 -43.59375,0 c -1.332855,-16.95715 -1.999191,-34.107 -2,-51.4063 l 0,-0.0312 0,-4.09375 z m 55.59375,0 74.84375,0.25 0,55.0313 -74.84375,0 z m 84.84375,0.25 49.96875,0 0.15625,0.46875 0,54.68755 -50.125,0 z m 730.25,49.5625 0,73.4062 -41.21875,0 0,-28.3124 c 0.53398,-5.7446 0.8125,-11.542 0.8125,-17.4063 0,-7.425 -0.46343,-14.7396 -1.3125,-21.9375 z m -451.4375,2.625 40.71875,6.2812 c -0.62156,6.1767 -0.9375,12.4418 -0.9375,18.7813 0,5.762 0.2999,11.4505 0.8125,17.0625 l 0,27.6562 -40.59375,0 z m 772.9062,8.3125 0,50.75 -92,0 0,-50.625 c 32.8479,0.1319 59.0743,-0.125 92,-0.125 z m 10,0 c 29.8462,0.068 58.8551,0.25 88.9376,0.25 -1.4837,17.0391 -3.628,33.8658 -6.4063,50.5 l -82.5313,0 z m -1113.62495,4.5313 0,50.75 -78.875,0 c -2.898873,-16.6276 -5.177501,-33.462 -6.78125,-50.5 29.313352,0.027 56.7584,-0.25 85.65625,-0.25 z m 10,0 c 30.75776,0.033 61.2053,0.125 92.03125,0.125 l 0,50.625 -92.03125,0 z m 1001.62495,56.2187 50.3438,0 0,56.6563 -50.3438,0 z m 60.3438,0 74.3438,0 0,56.5313 -74.3438,0 z m 84.3438,0 38.0937,0 c -3.5258,19.2422 -7.9081,38.1753 -13.0937,56.7813 l -25,0 z m -1151.1563,4.5 c 12.43125,0.01 24.64746,0.031 36.5,0.031 l 0,56.5312 -74.34375,0 0,-56.5312 c 12.7662,-0.034 25.4125,-0.04 37.84375,-0.031 z m -82.21875,0.031 34.375,0 0,56.7812 L 83,1141 c -5.33352,-18.6001 -9.861933,-37.5364 -13.53125,-56.7812 z m 128.71875,0 50.375,0 0,56.6562 -50.375,0 z m 279.0625,6.1874 40.59375,0 0,90 -40.59375,0 z m 410.21875,1 41.21875,0 0,93.0313 -41.21875,0 z m -359.625,23.25 167.375,0 0,13.2188 -167.375,0 z m 177.375,0 172.25,0 0,13.2188 -172.25,0 z m -177.375,23.2188 167.375,0 0,471.125 c -57.97016,-0.8407 -114.06578,-9.3378 -167.375,-24.4688 z m 177.375,0 172.25,0 0,447.875 c -54.837,15.1468 -112.59292,23.273 -172.25,23.3125 z m 544.43745,8.3438 0,52.75 -91.5,0 0,-52.625 c 30.6486,0.066 60.9232,-0.125 91.5,-0.125 z m 10,0 c 22.0663,0.058 43.2213,0.25 65.3438,0.25 -5.2857,17.8351 -11.3474,35.3449 -18.0938,52.5 l -47.25,0 z m -1112.62495,4.5312 0,52.75 -42.5625,0 c -6.893249,-17.1476 -13.101151,-34.6612 -18.53125,-52.5 20.6769,0.054 40.41027,-0.25 61.09375,-0.25 z m 10,0 c 30.58719,0.035 60.8723,0.125 91.53125,0.125 l 0,52.625 -91.53125,0 z m 320.21875,39.6562 40.59375,0 0,85.9688 -40.59375,0 z m 410.21875,4.0313 41.21875,0 0,81.9375 -41.21875,0 z m 270.68745,14.5313 47.3126,0 0,57.1874 -47.3126,0 z m 57.3126,0 74.8437,0 0,28.4687 c -4.546,9.6607 -9.341,19.2024 -14.3437,28.5937 l -60.5,0 z m 84.8437,0 2.5625,0 c -0.8489,2.0569 -1.6931,4.1099 -2.5625,6.1562 z M 116.375,1213.5 l 74.84375,0 0,57.0625 -55.21875,0 c -6.97173,-12.8408 -13.51616,-25.9649 -19.625,-39.3125 z m 84.84375,0 47.34375,0 0,57.1875 -47.34375,0 z m 1048.93745,62.5312 0,30.9688 2.0313,0 c -4.2742,6.7751 -8.6718,13.4604 -13.1875,20.0625 l 0,-1.8125 -80.8438,0 0,-49.0938 c 30.8154,0.045 61.2337,-0.125 92,-0.125 z m 10,0 10.4063,0 c -3.3653,6.058 -6.8521,12.0327 -10.4063,17.9688 z m -1118.5937,4.5313 4.96875,0 0,8.5937 c -1.67313,-2.852 -3.33831,-5.7138 -4.96875,-8.5937 z m 14.96875,0 c 30.77659,0.021 61.20563,0.125 92.03125,0.125 l 0,49.0937 -76.15625,0 c -5.46981,-7.9103 -10.75419,-15.9636 -15.875,-24.125 z m 320.71875,5.8125 40.59375,0 0,77.875 -40.59375,0 z m 410.21875,0 41.21875,0 0,78.875 -41.21875,0 z m 270.68745,48.875 48.5626,0 0,35.0312 c -7.4114,9.1078 -15.0506,18.001 -22.9376,26.6876 l -25.625,0 z m 58.5626,0 16.5937,0 c -5.3723,7.6006 -10.9086,15.084 -16.5937,22.4375 z m -1037.2188,4.5312 10.46875,0 0,14.1876 c -3.5588,-4.6712 -7.03546,-9.4175 -10.46875,-14.1876 z m 20.46875,0 48.59375,0 0,61.7188 -18.625,0 c -10.39555,-11.2341 -20.38286,-22.8313 -29.96875,-34.7812 z M 477.25,1374.25 l 40.59375,0 0,71.8125 -40.59375,0 z m 410.21875,1 41.21875,0 0,74.875 -41.21875,0 z m 270.68745,31.7188 16.375,0 c -5.3543,5.6547 -10.8205,11.1974 -16.375,16.6562 z m -918.7812,4.5312 9.1875,0 0,9.3125 c -3.09181,-3.0764 -6.1581,-6.1745 -9.1875,-9.3125 z m 237.875,44.5625 40.59375,0 0,87 -40.59375,0 z m 410.21875,4.0625 41.21875,0 -0.0625,87.9688 -41.15625,0 z m -410.21875,92.9375 40.59375,0 0,28.5937 c -13.73311,-4.1384 -27.26176,-8.7406 -40.59375,-13.75 z m 451.4375,4.7187 0,11.5 c -13.53557,4.9928 -27.27418,9.5293 -41.21875,13.625 l 0,-24.8124 z"
         transform="translate(-350,-294.63782)"
         id="rect3000"
         inkscape:connector-curvature="0"
         sodipodi:nodetypes="cccccccccccccscccccccccccccccccccsssscccccccccccccccccssssccccccccccsssccsssssssssccccccccccccccccccccccccccccccccccccccccccccccccccccccccccccccccccccccccccccccccccccccccccccccccccccccccccccccccccccccsccccccssccccccccccccccccccccccccsscccccccccccccccccccccccccccccccccccccccccccsssccccccsssccccccsssccccccccccsccccccsssccccccsssccccccsssccccccscccccccsscccccccccccccccccccsccccccccscccccccccccccccccccccccccccccsccscccccccccccccsccccccccccccccccccccccccccccccccccccccccccsccccscccccccccccccccccccccccccccccccccccccccccccccccccccccccccccccccccccccccccccccccccccccccccccccccccccccccccccccccccccccccccccccccccccccccccccccccccccccccccccccccccccccccccccccccccccccccccccccccccccccccccccccccccccccccccccccccccccccccc" />
    </g>
    <path
       style="font-size:medium;font-style:normal;font-variant:normal;font-weight:normal;font-stretch:normal;text-indent:0;text-align:start;text-decoration:none;line-height:normal;letter-spacing:normal;word-spacing:normal;text-transform:none;direction:ltr;block-progression:tb;writing-mode:lr-tb;text-anchor:start;baseline-shift:baseline;color:#000000;fill:#000000;fill-opacity:1;fill-rule:nonzero;stroke:none;stroke-width:10;marker:none;visibility:visible;display:inline;overflow:visible;enable-background:accumulate;font-family:Sans;-inkscape-font-specification:Sans"
       d="m 364.15625,73.09375 c -10.12504,0 -18.4375,8.34372 -18.4375,18.46875 0,7.025698 4.01067,13.17264 9.84375,16.28125 -3.53964,2.64956 -5.875,6.87577 -5.875,11.59375 0,4.11227 1.7685,7.82981 4.5625,10.46875 l -100.65625,217.875 9.0625,4.1875 81.71875,-176.84375 -46.28125,173.46875 9.65625,2.5625 56.375,-211.375 56.4375,211.375 9.65625,-2.5625 -46.3125,-173.5625 81.75,176.9375 9.0625,-4.1875 -100.65625,-217.875 c 2.79234,-2.63802 4.53125,-6.3647 4.53125,-10.46875 0,-4.71798 -2.3264,-8.94419 -5.875,-11.59375 5.8466,-3.10435 9.875,-9.245548 9.875,-16.28125 0,-10.12503 -8.31246,-18.46875 -18.4375,-18.46875 z m 0,10 c 4.72063,0 4.28871,2.471568 4.28871,7.192198 0,4.72063 -1.48291,5.246122 -6.20354,5.246122 -4.72063,0 -6.52267,0.75106 -6.52267,-3.96957 0,-4.72063 3.71687,-8.46875 8.4375,-8.46875 z"
       transform="translate(-350,-294.63782)"
       id="path5856"
       inkscape:connector-curvature="0"
       sodipodi:nodetypes="sscscccccccccccccscsssssss" />
    <path
       inkscape:connector-curvature="0"
       style="font-size:medium;font-style:normal;font-variant:normal;font-weight:normal;font-stretch:normal;text-indent:0;text-align:start;text-decoration:none;line-height:normal;letter-spacing:normal;word-spacing:normal;text-transform:none;direction:ltr;block-progression:tb;writing-mode:lr-tb;text-anchor:start;baseline-shift:baseline;color:#000000;fill:#000000;fill-opacity:1;stroke:none;stroke-width:10;marker:none;visibility:visible;display:inline;overflow:visible;enable-background:accumulate;font-family:Sans;-inkscape-font-specification:Sans"
       d="m -95.235162,47.316809 -17.874998,0.15625 -4.9375,5 0,33.75 1.46875,3.53125 8.5625,8.5625 3.53125,1.46875 4.687501,0 0,115.718751 9.999997,0 0,-22.59375 44.03125,0 0,22.96875 10,0 0,-22.96875 101.03125,0 0,22.21875 10,0 0,-22.21875 43.250002,0 0,22.96875 10,0 0,-116.093751 7.6875,0 3.53125,-1.46875 10.0625,-10.0625 1.46875,-3.53125 0,-32.40625 -5,-5 -23.84375,0 -3.53125,1.4375 -14.59375,14.59375 -14.312497,0.125 -14.718755,-14.71875 -3.53125,-1.4375 -27.5625,0 -3.53125,1.4375 -14.5625,14.5625 -33.8749995,0 -14.5312505,-14.5625 -3.53125,-1.4375 -19.75,0 -3.53125,1.4375 -14.5625,14.5625 -13.375,0 -14.5625,-14.5625 -3.59375,-1.4375 z m 51.6875,10 15.59375,0 14.5625,14.53125 3.5312504,1.46875 37.9999996,0 3.53125,-1.46875 14.5625,-14.53125 23.4375,0 14.75,14.71875 3.59375,1.46875 18.437502,-0.1875 3.46875,-1.46875 14.5625,-14.53125 16.78125,0 0,25.34375 -7.125,7.125 -236.5625,0 -5.625,-5.65625 0,-26.6875 10.843748,-0.0937 14.5,14.5 3.5625,1.46875 17.5,0 3.53125,-1.46875 14.5625,-14.53125 z m -46.25,42.46875 13.09375,0 0,18.312501 -13.09375,0 0,-18.312501 z m 23.09375,0 77.187501,0 0,18.312501 -58.937501,0 c -1.18536,-0.17056 -2.39449,-0.28125 -3.625,-0.28125 -1.23051,0 -2.43964,0.11069 -3.625,0.28125 l -11,0 0,-18.312501 z m 87.1875,0 74.187505,0 0,18.312501 -7.000005,0 c -1.18536,-0.17056 -2.39449,-0.28125 -3.625,-0.28125 -1.2284,0 -2.44158,0.11127 -3.625,0.28125 l -59.9375,0 0,-18.312501 z m 84.187502,0 13.84375,0 0,18.312501 -13.84375,0 0,-18.312501 z m -194.468752,28.312501 17.28125,0 c -3.19358,4.26295 -5.09375,9.5467 -5.09375,15.25 l 0.0625,7.90625 -12.25,0 0,-23.15625 z m 58.15625,0 95.25,0 c -3.19358,4.26295 -5.09375,9.5467 -5.09375,15.25 l 0.0625,7.90625 -85.1875,0 0.0625,-7.90625 c 0,-5.7033 -1.90017,-10.98705 -5.09375,-15.25 z m 136.125002,0 14.03125,0 0,23.15625 -9,0 0.0625,-7.90625 c 0,-5.7033 -1.90017,-10.98705 -5.09375,-15.25 z m -194.281252,33.15625 12.34375,0 0.21875,21.65625 -12.5625,0 0,-21.65625 z m 63.09375,0 37.937501,0 0,21.65625 -38.156251,0 0.21875,-21.65625 z m 47.9375,0 37.4375,0 0.21875,21.65625 -37.65625,0 0,-21.65625 z m 88.187502,0 9.09375,0 0,21.65625 -9.3125,0 0.21875,-21.65625 z"
       id="path5436" />
    <path
       inkscape:connector-curvature="0"
       style="font-size:medium;font-style:normal;font-variant:normal;font-weight:normal;font-stretch:normal;text-indent:0;text-align:start;text-decoration:none;line-height:normal;letter-spacing:normal;word-spacing:normal;text-transform:none;direction:ltr;block-progression:tb;writing-mode:lr-tb;text-anchor:start;baseline-shift:baseline;color:#000000;fill:#000000;fill-opacity:1;stroke:none;stroke-width:10;marker:none;visibility:visible;display:inline;overflow:visible;enable-background:accumulate;font-family:Sans;-inkscape-font-specification:Sans"
       d="m 583.5523,52.325009 -17.875,0.15625 -4.9375,5 0,33.75 1.46875,3.53125 8.5625,8.562501 3.53125,1.46875 4.6875,0 0,115.71875 10,0 0,-22.59375 44.03125,0 0,22.96875 10,0 0,-22.96875 101.03124,0 0,22.21875 10,0 0,-22.21875 43.25,0 0,22.96875 10,0 0,-116.09375 7.6875,0 3.5313,-1.46875 10.0625,-10.062501 1.4687,-3.53125 0,-32.40625 -5,-5 -23.8437,0 -3.5313,1.4375 -14.5937,14.59375 -14.3125,0.125 -14.7188,-14.71875 -3.5312,-1.4375 -27.5625,0 -3.5313,1.4375 -14.5625,14.5625 -33.875,0 -14.5312,-14.5625 -3.5313,-1.4375 -19.74999,0 -3.53125,1.4375 -14.5625,14.5625 -13.375,0 -14.5625,-14.5625 -3.59375,-1.4375 z m 51.6875,10 15.59379,0 14.5625,14.53125 3.5312,1.46875 38,0 3.5313,-1.46875 14.5625,-14.53125 23.4375,0 14.75,14.71875 3.5937,1.46875 18.4375,-0.1875 3.4688,-1.46875 14.5625,-14.53125 16.7812,0 0,25.34375 -7.125,7.125 -236.56249,0 -5.625,-5.65625 0,-26.6875 10.84375,-0.0937 14.5,14.5 3.5625,1.46875 17.5,0 3.53125,-1.46875 14.5625,-14.53125 z m -46.25,42.468751 13.09375,0 0,18.3125 -13.09375,0 0,-18.3125 z m 23.09375,0 77.18754,0 0,18.3125 -58.93754,0 c -1.18536,-0.17056 -2.39449,-0.28125 -3.625,-0.28125 -1.23051,0 -2.43964,0.11069 -3.625,0.28125 l -11,0 0,-18.3125 z m 87.18754,0 74.1875,0 0,18.3125 -7,0 c -1.1854,-0.17056 -2.3945,-0.28125 -3.625,-0.28125 -1.2284,0 -2.4416,0.11127 -3.625,0.28125 l -59.9375,0 0,-18.3125 z m 84.1875,0 13.8437,0 0,18.3125 -13.8437,0 0,-18.3125 z m -194.46879,28.3125 17.28125,0 c -3.19358,4.26295 -5.09375,9.5467 -5.09375,15.25 l 0.0625,7.90625 -12.25,0 0,-23.15625 z m 58.15625,0 95.25004,0 c -3.1936,4.26295 -5.0938,9.5467 -5.0938,15.25 l 0.062,7.90625 -85.1875,0 0.062,-7.90625 c 0,-5.7033 -1.9002,-10.98705 -5.09374,-15.25 z m 136.12504,0 14.0312,0 0,23.15625 -9,0 0.062,-7.90625 c 0,-5.7033 -1.9002,-10.98705 -5.0937,-15.25 z m -194.28129,33.15625 12.34375,0 0.21875,21.65625 -12.5625,0 0,-21.65625 z m 63.09379,0 37.9375,0 0,21.65625 -38.1563,0 0.2188,-21.65625 z m 47.9375,0 37.4375,0 0.2187,21.65625 -37.6562,0 0,-21.65625 z m 88.1875,0 9.0937,0 0,21.65625 -9.3125,0 0.2188,-21.65625 z"
       id="path5436-6" />
    <path
       inkscape:connector-curvature="0"
       style="font-size:medium;font-style:normal;font-variant:normal;font-weight:normal;font-stretch:normal;text-indent:0;text-align:start;text-decoration:none;line-height:normal;letter-spacing:normal;word-spacing:normal;text-transform:none;direction:ltr;block-progression:tb;writing-mode:lr-tb;text-anchor:start;baseline-shift:baseline;color:#000000;fill:#000000;fill-opacity:1;stroke:none;stroke-width:10;marker:none;visibility:visible;display:inline;overflow:visible;enable-background:accumulate;font-family:Sans;-inkscape-font-specification:Sans"
       d="m -46.141412,243.66056 0,42.5 -47.84375,0 0,10 15.71875,0 0,29.28125 -16.78125,0 0,10 49.28125,0 0,29.625 -49.65625,0 0,10 16.8125,0 0,28.21875 -15.625,0 0,10 18.125,0 0,25.71875 -21.8125,0 0,10 21.8125,0 0,30.71875 10,0 0,-64.28125 46.0625,0 0,64.625 10,0 0,-28.21875 44.625,0 0,28.59375 10,0 0,-64.28125 47.156255,0 0,65.34375 9.999997,0 0,-26.78125 19.625,0 0,-10 -19.625,0 0,-31.4375 23.46875,0 0,-10 -22.4375,0 0,-28.21875 14.3125,0 0,-10 -42.500002,0 0,-29.625 46.781252,0 0,-10 -17.53125,0 0,-29.28125 17.1875,0 0,-10 -47.156252,0 0,-42.5 -10,0 0,42.5 -100,0 0,-42.5 -10,0 z m -22.125,52.5 78.562501,0 0,29.28125 -78.562501,0 0,-29.28125 z m 88.5625,0 73.531255,0 0,29.28125 -73.531255,0 0,-29.28125 z m -56.0625,39.28125 100.34375,0 0,29.625 -100.34375,0 0,-29.625 z m -32.84375,39.625 78.5625005,0 0,28.21875 -78.5625005,0 0,-28.21875 z m 88.5625,0 72.812505,0 0,28.21875 -72.812505,0 0,-28.21875 z m -30,38.21875 44.625,0 0,28.5625 -44.625,0 0,-28.5625 z"
       id="path5567" />
    <path
       inkscape:connector-curvature="0"
       style="font-size:medium;font-style:normal;font-variant:normal;font-weight:normal;font-stretch:normal;text-indent:0;text-align:start;text-decoration:none;line-height:normal;letter-spacing:normal;word-spacing:normal;text-transform:none;direction:ltr;block-progression:tb;writing-mode:lr-tb;text-anchor:start;baseline-shift:baseline;color:#000000;fill:#000000;fill-opacity:1;stroke:none;stroke-width:10;marker:none;visibility:visible;display:inline;overflow:visible;enable-background:accumulate;font-family:Sans;-inkscape-font-specification:Sans"
       d="m 633.4254,246.56529 0,42.5 -47.84375,0 0,10 15.71875,0 0,29.28125 -16.78125,0 0,10 49.28125,0 0,29.625 -49.65625,0 0,10 16.8125,0 0,28.21875 -15.625,0 0,10 18.125,0 0,25.71875 -21.8125,0 0,10 21.8125,0 0,30.71875 10,0 0,-64.28125 46.06254,0 0,64.625 10,0 0,-28.21875 44.625,0 0,28.59375 10,0 0,-64.28125 47.1562,0 0,65.34375 10,0 0,-26.78125 19.625,0 0,-10 -19.625,0 0,-31.4375 23.4688,0 0,-10 -22.4375,0 0,-28.21875 22.4608,0 0,-10 -50.6483,0 0,-29.625 46.7812,0 0,-10 -17.5312,0 0,-29.28125 17.1875,0 0,-10 -47.1563,0 0,-42.5 -10,0 0,42.5 -99.99999,0 0,-42.5 z m -22.125,52.5 78.56249,0 0,29.28125 -78.56249,0 z m 88.56249,0 73.5313,0 0,29.28125 -73.5313,0 z m -56.06249,39.28125 100.34379,0 0,29.625 -100.34379,0 z m -32.84375,39.625 78.56254,0 0,28.21875 -78.56254,0 z m 88.56254,0 72.8125,0 0,28.21875 -72.8125,0 z m -30,38.21875 44.625,0 0,28.5625 -44.625,0 z"
       id="path5567-6"
       sodipodi:nodetypes="ccccccccccccccccccccccccccccccccccccccccccccccccccccccccccccccccccccccccccccccccccccccccccc" />
    <path
       style="font-size:medium;font-style:normal;font-variant:normal;font-weight:normal;font-stretch:normal;text-indent:0;text-align:start;text-decoration:none;line-height:normal;letter-spacing:normal;word-spacing:normal;text-transform:none;direction:ltr;block-progression:tb;writing-mode:lr-tb;text-anchor:start;baseline-shift:baseline;color:#000000;fill:#000000;fill-opacity:1;fill-rule:nonzero;stroke:none;stroke-width:10;marker:none;visibility:visible;display:inline;overflow:visible;enable-background:accumulate;font-family:Sans;-inkscape-font-specification:Sans"
       d="m 693.47293,-218.91257 c -10.12504,0 -18.4375,8.34372 -18.4375,18.46875 0,7.0257 4.01067,13.17264 9.84375,16.28125 -3.53964,2.64956 -5.875,6.87577 -5.875,11.59375 0,4.11227 1.7685,7.82981 4.5625,10.46875 l -100.65625,217.874998 9.0625,4.1875 81.71876,-176.843748 -46.28126,173.468748 9.65625,2.5625 56.375,-211.374998 56.4375,211.374998 9.65625,-2.5625 -46.3125,-173.562498 81.75001,176.937498 9.0625,-4.1875 -100.65626,-217.874998 c 2.79234,-2.63802 4.53125,-6.3647 4.53125,-10.46875 0,-4.71798 -2.3264,-8.94419 -5.875,-11.59375 5.8466,-3.10435 9.875,-9.24555 9.875,-16.28125 0,-10.12503 -8.31246,-18.46875 -18.4375,-18.46875 z m 0,10 c 4.72063,0 4.28871,2.47157 4.28871,7.1922 0,4.72063 -1.48291,5.24612 -6.20354,5.24612 -4.72063,0 -6.52267,0.75106 -6.52267,-3.96957 0,-4.72063 3.71687,-8.46875 8.4375,-8.46875 z"
       id="path5856-1"
       inkscape:connector-curvature="0"
       sodipodi:nodetypes="sscscccccccccccccscsssssss" />
    <path
       style="font-size:medium;font-style:normal;font-variant:normal;font-weight:normal;font-stretch:normal;text-indent:0;text-align:start;text-decoration:none;line-height:normal;letter-spacing:normal;word-spacing:normal;text-transform:none;direction:ltr;block-progression:tb;writing-mode:lr-tb;text-anchor:start;baseline-shift:baseline;color:#000000;fill:#000000;fill-opacity:1;fill-rule:nonzero;stroke:none;stroke-width:10;marker:none;visibility:visible;display:inline;overflow:visible;enable-background:accumulate;font-family:Sans;-inkscape-font-specification:Sans"
       d="m 614.97431,1001.7671 c -1.78281,-0.014 -3.53711,1.0059 -4.40625,2.5626 l -23.34375,40.4374 -65.375,0 c -2.64156,-0.037 -5.07121,2.3582 -5.07121,5 0,2.6418 2.42965,5.0374 5.07121,5 l 65.375,0 23.34375,40.4688 c 1.26486,2.3492 4.59363,3.294 6.90399,1.9595 2.31036,-1.3345 3.15521,-4.6901 1.75226,-6.9595 l -14.78125,-25.5938 29.78125,0 11.16496,-14.875 -11.16496,-15.125 -29.59375,0 14.59375,-25.3124 c 0.89678,-1.5029 0.92257,-3.4865 0.0652,-5.0122 -0.85742,-1.5257 -2.56508,-2.535 -4.31515,-2.5505 z"
       id="path3083"
       inkscape:connector-curvature="0"
       sodipodi:nodetypes="ccccscccscccccccscc"
       transform="translate(-350,-294.63782)" />
    <path
       style="font-size:medium;font-style:normal;font-variant:normal;font-weight:normal;font-stretch:normal;text-indent:0;text-align:start;text-decoration:none;line-height:normal;letter-spacing:normal;word-spacing:normal;text-transform:none;direction:ltr;block-progression:tb;writing-mode:lr-tb;text-anchor:start;baseline-shift:baseline;color:#000000;fill:#000000;fill-opacity:1;fill-rule:nonzero;stroke:none;stroke-width:10;marker:none;visibility:visible;display:inline;overflow:visible;enable-background:accumulate;font-family:Sans;-inkscape-font-specification:Sans"
       d="m 264.97431,1035.413 c -1.78281,-0.014 -3.53711,1.0059 -4.40625,2.5626 l -23.34375,40.4374 -65.375,0 c -2.64156,-0.037 -5.07121,2.3582 -5.07121,5 0,2.6418 2.42965,5.0374 5.07121,5 l 65.375,0 23.34375,40.4688 c 1.26486,2.3492 4.59363,3.294 6.90399,1.9595 2.31036,-1.3345 3.15521,-4.6901 1.75226,-6.9595 l -14.78125,-25.5938 29.78125,0 11.16496,-14.875 -11.16496,-15.125 -29.59375,0 14.59375,-25.3124 c 0.89678,-1.5029 0.92257,-3.4864 0.0652,-5.0121 -0.85742,-1.5257 -2.56508,-2.5351 -4.31515,-2.5505 z"
       id="path3083-4"
       inkscape:connector-curvature="0"
       sodipodi:nodetypes="ccccscccscccccccscc" />
    <path
       style="font-size:medium;font-style:normal;font-variant:normal;font-weight:normal;font-stretch:normal;text-indent:0;text-align:start;text-decoration:none;line-height:normal;letter-spacing:normal;word-spacing:normal;text-transform:none;direction:ltr;block-progression:tb;writing-mode:lr-tb;text-anchor:start;baseline-shift:baseline;color:#000000;fill:#000000;fill-opacity:1;fill-rule:nonzero;stroke:none;stroke-width:10;marker:none;visibility:visible;display:inline;overflow:visible;enable-background:accumulate;font-family:Sans;-inkscape-font-specification:Sans"
       d="m 436.99909,707.12923 c 1.78281,-0.014 3.53711,1.0059 4.40625,2.5626 l 23.34375,40.4374 65.375,0 c 2.64156,-0.037 5.07121,2.3582 5.07121,5 0,2.6418 -2.42965,5.0374 -5.07121,5 l -65.375,0 -23.34375,40.4688 c -1.26486,2.3492 -4.59363,3.294 -6.90399,1.9595 -2.31036,-1.3345 -3.15521,-4.6901 -1.75226,-6.9595 l 14.78125,-25.5938 -29.78125,0 -11.16496,-14.875 11.16496,-15.125 29.59375,0 -14.59375,-25.3124 c -0.89678,-1.5029 -0.92257,-3.4865 -0.0652,-5.0122 0.85742,-1.5257 2.56508,-2.535 4.31515,-2.5505 z"
       id="path3083-0"
       inkscape:connector-curvature="0"
       sodipodi:nodetypes="ccccscccscccccccscc" />
    <path
       style="font-size:medium;font-style:normal;font-variant:normal;font-weight:normal;font-stretch:normal;text-indent:0;text-align:start;text-decoration:none;line-height:normal;letter-spacing:normal;word-spacing:normal;text-transform:none;direction:ltr;block-progression:tb;writing-mode:lr-tb;text-anchor:start;baseline-shift:baseline;color:#000000;fill:#000000;fill-opacity:1;fill-rule:nonzero;stroke:none;stroke-width:10;marker:none;visibility:visible;display:inline;overflow:visible;enable-background:accumulate;font-family:Sans;-inkscape-font-specification:Sans"
       d="m 436.99909,1035.413 c 1.78281,-0.014 3.53711,1.0059 4.40625,2.5626 l 23.34375,40.4374 65.375,0 c 2.64156,-0.037 5.07121,2.3582 5.07121,5 0,2.6418 -2.42965,5.0374 -5.07121,5 l -65.375,0 -23.34375,40.4688 c -1.26486,2.3492 -4.59363,3.294 -6.90399,1.9595 -2.31036,-1.3345 -3.15521,-4.6901 -1.75226,-6.9595 l 14.78125,-25.5938 -29.78125,0 -11.16496,-14.875 11.16496,-15.125 29.59375,0 -14.59375,-25.3124 c -0.89678,-1.5029 -0.92257,-3.4864 -0.0652,-5.0121 0.85742,-1.5257 2.56508,-2.5351 4.31515,-2.5505 z"
       id="path3083-4-9"
       inkscape:connector-curvature="0"
       sodipodi:nodetypes="ccccscccscccccccscc" />
    <path
       style="font-size:medium;font-style:normal;font-variant:normal;font-weight:normal;font-stretch:normal;text-indent:0;text-align:start;text-decoration:none;line-height:normal;letter-spacing:normal;word-spacing:normal;text-transform:none;direction:ltr;block-progression:tb;writing-mode:lr-tb;text-anchor:start;baseline-shift:baseline;color:#000000;fill:#000000;fill-opacity:1;stroke:none;stroke-width:10;marker:none;visibility:visible;display:inline;overflow:visible;enable-background:accumulate;font-family:Sans;-inkscape-font-specification:Sans"
       d="m 702.4375,102.75 c -11.01787,0 -20.0625,9.04463 -20.0625,20.0625 0,8.77539 5.75392,16.26968 13.65625,18.96875 -1.19278,1.21548 -1.69549,3.06692 -1.28125,4.71875 -103.26753,77.97798 -126.5,183.78125 -126.5,183.78125 -0.7217,2.56121 -0.62181,5.41375 0.34375,7.59375 l 30.71875,68.34375 9.59375,-2.75 c 83.15012,-40.87439 165.94995,-5.64384 182.21875,2.09375 5.02659,3.90292 8.79077,2.6044 10.59375,-1.625 l 34.15656,-73.90625 c 0,0 -23.23418,-105.71497 -126.4375,-183.6875 0.24089,-1.53584 -0.28488,-3.17289 -1.375,-4.28125 8.32017,-2.44656 14.4375,-10.17537 14.4375,-19.25 0,-11.01787 -9.04463,-20.0625 -20.0625,-20.0625 z m 0,10.40625 c 5.3973,0 3.98235,2.42866 3.98235,7.82596 0,5.3973 -2.97774,7.09385 -8.37504,7.09385 -5.3973,0 -5.29481,0.13374 -5.29481,-5.26356 0,-5.3973 4.2902,-9.65625 9.6875,-9.65625 z m -0.21875,40.25 c 4.50876,3.37526 8.86079,6.8104 13.0625,10.28125 -0.002,0.0833 -0.002,0.16668 0,0.25 l 0,173.375 c 0.88948,3.89082 5.0161,6.45296 8.46875,6.46875 0,0 32.78276,-0.0479 87.75,16.78125 l -17.09375,35.53125 c -57.87849,-26.1251 -124.0197,-31.44342 -189.5,-1.75 l -15.71875,-35 c 28.45159,-11.94763 65.27433,-16.7938 90.6875,-18.03125 4.18904,-0.7094 9.46989,0.0324 11.21875,-6 l 0,-173.21875 c 3.6036,-2.92651 7.30048,-5.83127 11.125,-8.6875 z m -21.125,17.125 0,161 c -34.77734,3.2218 -65.70287,4.7398 -95.96875,18.71875 -0.80415,-4.68307 -7.20676,-13.58193 -7.0937,-17.8125 0,0 19.39211,-88.53772 103.0625,-161.90625 z m 44.1875,1.75 c 81.77043,72.96486 100.8125,159.875 100.8125,159.875 -4.29441,5.38124 -7.02929,12.71318 -10.1875,19.28125 -50.54158,-15.62229 -83.72173,-17.41491 -90.625,-17.625 z"
       id="path3959"
       inkscape:connector-curvature="0"
       sodipodi:nodetypes="sscccccccccccssscsssccccccccccccccccccccccccc"
       transform="translate(-350,-294.63782)" />
    <path
       style="fill:#000000;display:inline"
       d="m 702.96875,176.375 c -6.56193,0.006 -10.67859,10.06326 -2.65625,11.6875 9.63068,2.24704 15.32808,-9.86896 4.75,-11.34375 -0.72078,-0.23464 -1.41493,-0.34442 -2.09375,-0.34375 z m -1.4375,43.40625 c -0.19301,-0.002 -0.39844,0.0106 -0.59375,0.0312 -5.23632,9.34077 3.76518,14.36409 5.78125,5.5625 0.23966,-2.96806 -2.29237,-5.55621 -5.1875,-5.59375 z M 702.625,248.5 c -7.8797,0.20425 0.72727,17.29618 4.875,7.3125 1.53221,-3.3517 -1.18649,-7.44005 -4.875,-7.3125 z m 0.78125,28.84375 c -7.89092,0.007 -11.27459,15.06675 -1.40625,14.5625 6.22586,-2.27039 12.2095,-13.74544 1.40625,-14.5625 z m 0.3125,30.09375 c -9.00424,0.0602 -11.25093,17.33878 -0.4375,14.25 4.31417,-3.09817 10.06221,-13.25621 0.4375,-14.25 z m 1.5,37.65625 c -7.18584,0.63969 -15.43696,14.33632 -5,16.28125 6.83833,-0.13851 16.29944,-14.96646 5,-16.28125 z m -41.65625,3.75 c -6.78563,0.76707 -11.53898,16.42951 -0.84375,14.46875 5.81877,-2.39566 9.69123,-13.48288 0.84375,-14.46875 z M 748.5,357.5625 c -6.63172,0.36028 -15.21476,6.15951 -8.9375,11.84375 5.24667,0.8838 11.19573,-2.18739 15.15625,-5.4375 1.06189,-4.89678 -2.23972,-6.62242 -6.21875,-6.40625 z m -120.28125,1.875 c -6.86908,0.2643 -14.67483,12.87265 -4.875,14.53125 7.93821,-2.66981 13.74674,-14.13146 4.875,-14.53125 z m 150.0625,6.03125 c -9.50403,0.56139 -7.75047,18.29275 1.71875,11.5 6.88078,-2.04627 8.46108,-10.88541 0.34375,-11.375 -0.7347,-0.12754 -1.4289,-0.16243 -2.0625,-0.125 z M 804.5,397.5625 c -16.59889,1.15595 -10.16849,12.55119 -12.84375,22.59375 -3.14808,7.53274 6.03092,17.61947 8.34375,6.0625 2.03319,-0.58489 10.25166,3.82819 7.84375,-3.875 -12.13258,-0.0954 5.78251,-12.98961 3.625,-1.03125 1.87784,19.41319 -0.91443,39.19093 -6.9375,57.65625 -0.78365,4.19477 -10.89916,18.6295 -7.40625,6.375 1.5659,-5.429 2.24884,-25.46592 -5.84375,-17.90625 -2.0378,19.31117 -5.39376,39.07929 -15.5,56.03125 -4.21431,8.56689 -9.75337,16.25559 -16.15625,23.21875 -0.21696,-0.16882 -0.43948,-0.33095 -0.65625,-0.5 -2.48382,2.04048 -3.77237,3.85112 -4.21875,5.5 -5.18469,5.04542 -10.78234,9.6645 -16.59375,13.9375 C 729.0504,573.72764 718.71239,583.41686 705.5,582 694.12483,583.183 682.70068,579.84049 674.875,571.28125 657.97268,557.8127 640.03993,544.1907 630.5,524.15625 621.08292,507.97044 616.55866,489.52741 615.40625,470.96875 617.7785,463.51335 605.29793,451.38617 605,464.25 c 1.91405,8.6428 1.87909,18.81504 2.59375,27.46875 -10.66104,-7.83869 -11.08585,-22.33516 -14.15625,-34.125 -1.92602,-11.64154 -1.29409,-23.59055 1.03125,-35.125 0.75262,-14.80221 10.41617,7.65203 14.53125,10.59375 10.40422,-1.82541 4.49128,-18.40822 2.25,-25.46875 7.1587,-8.33279 -7.7469,-5.06395 -16.6875,-2.625 -13.36017,-3.71691 -9.90633,16.53838 -10,24.59375 0.21236,18.61517 1.46194,37.86477 8.4375,55.28125 2.45997,9.52138 13.52717,12.543 17.34375,19.375 6.36881,16.7027 15.10325,33.09427 26.78125,46.84375 -7.33533,5.44791 -19.49174,13.5061 -29.28125,20.78125 -23.36292,16.78032 -48.25749,31.80585 -75.375,41.625 -19.3378,7.52596 -33.77766,22.44168 -48.59375,36.25 -10.38795,2.22375 -19.33579,17.88371 -6.34375,16.5625 12.12212,-2.85833 22.99338,-25.96735 32.15625,-21.0625 33.19556,40.56381 73.35741,79.58435 122.0625,100.15625 l 31.46875,0 c -48.69692,-11.87882 -90.98098,-45.41132 -124.5,-81.90625 -7.52071,-11.95885 -37.55408,-29.56054 -10.59375,-36.65625 12.34862,-5.5224 28.51491,-18.42876 32.34375,1.5 25.00886,35.97935 67.55553,53.76582 107.6875,67.40625 1.67464,-6.63387 5.31088,-8.73656 4.75,-16.15625 l 2.5625,-25.0625 c -6.93848,-5.96873 -24.4876,-11.09726 -36.71875,-17.28125 -18.97168,-9.72505 -39.45042,-21.17071 -49.34375,-40.9375 13.15917,-8.2772 25.88523,-17.237 38.25,-26.65625 16.31013,24.03434 43.71683,43.75218 72.96875,45.09375 -1.73541,4.09411 0.86085,11.57188 -3.625,11.375 -8.16536,3.20603 -4.33662,16.74535 4.25,14.8125 8.72207,9.07701 11.85286,-6.48291 9.125,-12.875 -1.43378,-3.6113 0.66035,-9.94002 -1.15625,-13.4375 4.99863,-0.40299 10.02308,-1.36315 15.03125,-2.96875 21.80009,-6.56038 39.90186,-21.49156 55,-38.0625 10.93226,8.00604 25.69933,16.19532 35.8125,21.625 -13.02777,25.63412 -41.54918,38.13562 -66.65625,49.0625 -10.08447,4.70866 -20.69227,5.313 -18.96875,15.9375 l 2.875,28.15625 c 3.22724,11.33038 15.67072,2.26834 25.28125,-0.75 35.44725,-14.38434 73.6524,-33.38579 91.3125,-69.28125 9.95005,-11.27691 27.63214,12.13114 38.15625,19.9375 5.06921,10.50295 -17.38426,21.9303 -24.34375,32.125 -13.45496,12.90662 -28.01103,25.37712 -43.53125,36.46875 l 16.75,0 c 1.28506,-1.01483 2.54851,-2.03137 3.8125,-3.0625 20.97577,-16.70375 40.21346,-35.50286 58.1875,-55.375 12.19948,8.57669 24.99883,29.34303 37.09375,30.21875 11.21434,-10.7084 -17.25598,-19.51525 -21.84375,-29.6875 -16.63593,-14.53773 -31.31372,-32.48879 -51.34375,-42.375 -23.3124,-8.58993 -44.7627,-21.74822 -66.25,-34.09375 -10.01495,-6.44127 -19.70201,-13.36857 -29.1875,-20.5625 3.47216,-3.83905 6.67099,-7.91122 9.40625,-12.40625 8.10995,-12.0527 14.15915,-25.69025 19.375,-38.96875 13.3474,-4.80105 16.93646,-20.48094 20.3125,-32.71875 3.10327,-16.75566 4.60533,-33.93767 4.25,-50.9375 1.50719,-8.18493 -13.70045,-11.09043 -14.3125,-14.65625 -1.35929,-1.84378 -2.50045,-2.50009 -0.9375,-4.65625 z m -154.1875,9.625 c -11.36175,0.2388 -18.88811,2.97169 -22.75,4.84375 -9.22764,3.82867 0.16837,11.81504 6.28125,6.625 12.34527,-3.94451 29.79035,-3.15968 41.71875,1.75 4.03956,0.15703 17.84342,5.73887 9.75,7.625 -11.56258,-8.43958 -26.51411,-7.00274 -39.15625,-2.625 -3.87669,4.6468 -12.6842,2.99647 -11,10.84375 0.54563,8.65052 8.28044,11.92316 20.75,15.34375 10.33654,0.23373 16.2219,-5.73965 25.5,-6.3125 5.33342,-1.87885 14.0346,0.47153 12.28125,-6.21875 -0.82264,-0.30597 -8.4383,-7.8637 -1.4375,-5.09375 6.70772,-3.09574 0.29733,-13.40149 1.46875,-18.875 -7.99141,-6.15912 -19.20946,-6.32404 -29,-7.25 l -1.34375,-0.0312 -1.28125,0 c -3.39301,-0.40591 -6.54556,-0.59873 -9.46875,-0.625 -0.7917,-0.007 -1.55505,-0.0159 -2.3125,0 z m 43.375,31.875 c 0.10428,0.0388 0.0954,-0.0196 -0.0625,-0.25 0.0266,0.0908 0.0395,0.16234 0.0625,0.25 z m 49.28125,-29.90625 c -17.90808,1.15696 -32.55647,4.12467 -27.28125,17.4375 3.92879,1.79951 10.98776,-1.03965 4.09375,3.15625 -11.46874,1.97884 3.37097,12.84037 7.59375,16.4375 8.91834,5.40445 20.74444,5.66942 30.5625,0.5 4.73708,-6.37877 19.57101,-7.81349 8.53125,-15.5625 -5.9131,-7.52837 -18.82295,-8.50234 -29.25,-6.3125 -4.30968,0.17171 -14.80239,1.06458 -4.3125,-1.0625 12.35681,-1.44918 25.81705,-5.86747 37.40625,-0.65625 11.91979,5.89889 13.12309,-11.40734 1.15625,-10.3125 -9.29204,-2.39603 -18.88903,-3.80955 -28.5,-3.625 z M 800.875,432.75 c -10.01429,1.82109 2.33645,13.76785 2.9375,3.0625 -0.0457,-1.56605 -1.27787,-3.08952 -2.9375,-3.0625 z m -195.8125,8.4375 c -11.37168,2.9808 2.23853,24.59342 1.875,11.59375 -0.2929,-1.96872 0.27633,-11.45327 -1.875,-11.59375 z m 191.5625,1.375 c -9.32915,4.49501 5.79594,23.37112 6.40625,8.8125 -0.67432,-3.46878 -1.84152,-8.94165 -6.40625,-8.8125 z m -82.8125,0.125 c -4.12848,10.96197 1.53658,26.6824 0.8125,38.15625 0.0114,6.97667 11.24691,16.41822 -0.53125,15.59375 -7.19454,10.14629 -20.06719,-5.08895 -29.8125,-1.8125 -6.59759,0.39984 4.41708,-15.61255 -5.65625,-11.375 -0.64261,6.10281 -8.57694,19.76548 2.15625,21.375 5.73757,-3.0965 13.63608,7.16401 21.46875,4.375 8.82199,2.53814 13.51,-7.67927 21.3125,-3.875 7.31457,-7.84853 -1.95032,-18.49505 -1.78125,-27.59375 -1.07809,-10.34616 -0.9232,-26.20978 -7.96875,-34.84375 z m -14.53125,77.78125 c -10.8047,-0.20416 -20.6909,5.62 -31.25,5.9375 -8.38753,-4.30968 -16.40338,9.25037 -4.84375,8.71875 11.69415,-0.82846 17.38439,15.50352 31,14.34375 13.7349,1.76897 29.60654,-0.22905 40.0625,-9.9375 0.33407,-7.21547 19.97585,-2.69209 11.46875,-13.53125 -10.7247,-0.78537 -22.36078,-2.10193 -33.4375,-4.625 -3.59005,-0.49956 -7.21783,-0.77626 -10.84375,-0.78125 -0.72895,-0.0708 -1.43594,-0.11139 -2.15625,-0.125 z m 14.03125,14.34375 c 5.63748,0.23836 19.73276,-0.82841 7.6875,3.53125 -12.65274,6.20972 -27.36587,3.68428 -40.125,-0.46875 -3.03996,-3.95629 13.59467,-2.16947 18.25,-2.53125 4.73327,-0.10654 9.45296,-0.4658 14.1875,-0.53125 z M 643,557.5 c 5.1971,5.27506 10.91459,10.02864 17.1875,14.125 11.13177,9.37639 22.90176,20.51729 38.4375,20.53125 14.90972,2.13705 28.89313,-5.75932 39.28125,-15.78125 7.16633,-5.39396 14.41342,-10.88441 21.03125,-16.96875 3.11877,2.39554 7.28375,4.62611 10.4375,7.125 -20.71551,23.36981 -52.66898,44.2061 -84.90625,33.28125 -19.45253,-6.49095 -36.05945,-21.13528 -47.1875,-37.71875 1.43642,-1.51068 3.64466,-3.03629 5.71875,-4.59375 z m -28.84375,35.25 c -0.34121,0.008 -0.67927,0.0466 -1.03125,0.0937 -8.5747,0.79983 -5.50284,13.58895 2.0625,13.65625 14.72658,3.75344 9.5463,-14.00939 -1.03125,-13.75 z m 168.375,2.5 c -5.56381,1.61788 -12.06102,11.39824 -3.34375,13.9375 8.4955,1.326 15.46431,-13.7787 3.34375,-13.9375 z m 39.65625,3.6875 c 14.28202,5.36095 28.1925,12.88601 13.21875,27.09375 -23.16933,30.7917 -60.01218,46.88078 -95.34375,59.46875 L 737.15625,657 c 31.34232,-11.84271 66.31458,-25.80473 84.15625,-56.03125 l 0.875,-2.03125 z m -199.0625,1.15625 c 0.0722,0.44302 -0.40472,2.22161 0,0 z M 582.53125,600.5 c 15.20601,27.88077 46.36286,41.6996 74.40625,53.28125 13.93824,-0.18282 9.06276,11.31516 8.5,20.1875 1.88365,13.85075 -6.27331,12.1892 -16.5625,6.40625 -33.13394,-13.6783 -69.2865,-31.17781 -86.15625,-64.71875 -2.83048,-7.8247 14.9594,-9.55779 19.8125,-15.15625 z m 51,9.6875 c -8.85184,0.64733 -2.56374,15.27506 5.6875,14.40625 16.12162,0.46715 7.36356,-12.3744 -5.6875,-14.40625 z m 128.875,0 c -4.66392,1.98494 -15.76975,8.1583 -9.5,14.625 10.10289,2.6687 24.33465,-12.7182 9.5,-14.625 z m -98.09375,11.875 c -9.49858,0.92226 -3.47537,14.39117 4.8125,10.5 11.8099,-4.30623 1.93077,-10.69913 -4.8125,-10.5 z m 69.84375,1.5625 c -7.07224,0.37169 -15.48003,11.9525 -4.46875,13.875 7.66702,2.18959 15.56277,-12.0163 4.46875,-13.875 z m -193.9375,10 c -6.08668,0.59117 -6.57967,10.75512 0.8125,10.71875 7.26047,1.99585 9.30164,-10.12614 1.25,-10.5625 -0.7466,-0.16543 -1.43284,-0.21741 -2.0625,-0.15625 z m 322.71875,4.25 c -18.92941,12.039 -0.9456,18.07769 1.3125,13.21875 5.71032,-4.39085 3.31263,-13.16691 -1.3125,-13.21875 z m -157.65625,11.84375 c -7.92462,0.86634 -9.53611,11.10772 -8.9375,17.5 11.98709,18.331 25.77192,-16.62174 8.9375,-17.5 z M 555.875,656.25 c -13.91731,4.37335 8.00874,18.62258 9.375,6.03125 0.47496,-5.71974 -5.51896,-5.45577 -9.375,-6.03125 z m 281.3125,5.90625 c -9.56481,0.083 -10.68511,19.41084 0.15625,14.6875 3.08849,-4.2471 8.95612,-14.04327 -0.15625,-14.6875 z m -253.8125,14.0625 c -0.5873,0.033 -1.18839,0.14463 -1.8125,0.375 -9.02589,1.20831 -3.11853,13.92488 4.4375,9.8125 6.59292,-2.34206 3.05224,-10.50669 -2.625,-10.1875 z m 123.90625,0.75 c -7.20269,1.28348 -8.72401,8.389 -11.4375,13.875 -1.03204,7.69565 10.67293,11.48759 14.46875,4.59375 3.84379,-7.84845 6.76839,-17.84515 -3.03125,-18.46875 z m 103.90625,4.125 c -5.05237,0.93454 -11.65276,13.97741 -2.625,15.4375 7.64744,0.64537 13.05569,-15.63509 2.625,-15.4375 z m -202.0625,16.75 c -8.58138,0.68363 -4.11594,13.54612 3.65625,11.03125 17.47336,-2.89062 6.63609,-10.5019 -3.65625,-11.03125 z m 174.71875,1.03125 c -5.51675,4.38939 -2.35103,0.54568 -7.5625,7.65625 0.50166,11.71054 29.26336,-6.75227 7.5625,-7.65625 z m -26.8125,8.1875 c -0.25994,-0.004 -0.53741,0.017 -0.8125,0.0312 -9.8168,1.13741 -5.20876,18.50624 3.4375,12.65625 6.20526,-4.10332 5.43303,-12.57719 -2.625,-12.6875 z m -112.625,4.4375 c -5.61369,0.0912 -10.53589,6.08184 -6.53125,10.21875 5.77501,4.60617 18.92641,-2.20817 11.21875,-8.75 -1.50309,-1.0675 -3.11567,-1.49429 -4.6875,-1.46875 z m 160.53125,4.9375 c -20.63957,13.04935 -42.81773,23.36951 -66.28125,28.9375 l 24.96875,0 0,2.8125 c 14.3182,-5.25169 28.16492,-12.03913 41.3125,-19.90625 l 0,-11.84375 z"
       id="path4063"
       transform="translate(-350,-294.63782)"
       inkscape:connector-curvature="0" />
  </g>
</svg>
