<?xml version="1.0" encoding="UTF-8" standalone="no"?>
<svg
   xmlns:dc="http://purl.org/dc/elements/1.1/"
   xmlns:cc="http://creativecommons.org/ns#"
   xmlns:rdf="http://www.w3.org/1999/02/22-rdf-syntax-ns#"
   xmlns:svg="http://www.w3.org/2000/svg"
   xmlns="http://www.w3.org/2000/svg"
   xmlns:sodipodi="http://sodipodi.sourceforge.net/DTD/sodipodi-0.dtd"
   xmlns:inkscape="http://www.inkscape.org/namespaces/inkscape"
   height="607.99"
   viewBox="0 0 556.86951 607.98669"
   version="1.1"
   id="svg1129"
   sodipodi:docname="DEU_Stötten_am_Auerberg_COA.svg"
   inkscape:version="0.92.5 (2060ec1f9f, 2020-04-08)">
  <metadata
     id="metadata1135">
    <rdf:RDF>
      <cc:Work
         rdf:about="">
        <dc:format>image/svg+xml</dc:format>
        <dc:type
           rdf:resource="http://purl.org/dc/dcmitype/StillImage" />
        <dc:title></dc:title>
      </cc:Work>
    </rdf:RDF>
  </metadata>
  <defs
     id="defs1133" />
  <sodipodi:namedview
     pagecolor="#ffffff"
     bordercolor="#666666"
     borderopacity="1"
     objecttolerance="10"
     gridtolerance="10"
     guidetolerance="10"
     inkscape:pageopacity="0"
     inkscape:pageshadow="2"
     inkscape:window-width="1920"
     inkscape:window-height="1046"
     id="namedview1131"
     showgrid="false"
     inkscape:zoom="1.3043169"
     inkscape:cx="278.43524"
     inkscape:cy="304.00564"
     inkscape:window-x="-11"
     inkscape:window-y="-11"
     inkscape:window-maximized="1"
     inkscape:current-layer="svg1129" />
  <path
     style="fill:#ffffff"
     inkscape:connector-curvature="0"
     id="path1007"
     d="M 454.75,5.5 414.46,5.773 H 280.7 l -4.529,0.025 H 142.411 6.101 c 0,0 2.842,27.453 3.861,41.21 1.745,23.58 2.422,47.23 3.861,70.826 1.938,31.779 4.497,63.53 6.434,95.31 1.439,23.6 2.225,47.24 3.861,70.826 2.473,35.669 2.859,71.66 8.983,106.88 3.424,19.696 8.205,39.31 15.443,57.94 8.738,22.494 19.05,44.856 33.484,64.18 10.408,13.936 23.701,25.668 37.493,36.26 15.79,12.12 32.985,22.689 51.18,30.754 19.245,8.531 39.788,14.292 60.46,18.289 15.555,3.01 31.5,4.134 47.34,4.188 15.742,0.054 31.611,-0.866 47.07,-3.841 20.748,-3.993 41.28,-10.04 60.58,-18.661 18.17,-8.112 35.413,-18.632 51.2,-30.754 13.792,-10.588 27.09,-22.319 37.493,-36.26 14.435,-19.329 24.746,-41.691 33.484,-64.18 7.238,-18.632 12.02,-38.27 15.443,-57.965 6.124,-35.23 6.51,-71.21 8.983,-106.88 1.635,-23.588 2.422,-47.23 3.861,-70.826 1.938,-31.779 4.497,-63.51 6.434,-95.29 1.439,-23.6 2.115,-47.25 3.861,-70.826 1.018,-13.759 3.861,-41.21 3.861,-41.21 l -96.02,-0.273" />
  <path
     style="fill:#ed1c24;stroke:#000000;stroke-width:3;stroke-linecap:square;stroke-linejoin:round;fill-opacity:1"
     inkscape:connector-curvature="0"
     id="path1009"
     d="M 454.75,5.51 414.46,5.783 H 280.7 l -4.527,0.025 H 142.413 6.103 c 0,0 2.841,27.452 3.859,41.21 1.745,23.58 2.422,47.23 3.861,70.826 0.145,2.384 0.313,4.768 0.465,7.152 h 528.3 c 0.152,-2.392 0.321,-4.783 0.467,-7.176 1.439,-23.6 2.116,-47.25 3.861,-70.826 1.018,-13.759 3.859,-41.21 3.859,-41.21 l -96.02,-0.273 z" />
  <path
     d="m 10.7,50.36 c -0.171,0 -0.341,0 -0.512,0.012 0.512,7.33 0.921,14.667 1.299,22.01 30.25,0.355 58.16,20.951 88.46,20.951 30.558,0 58.688,-20.969 89.25,-20.969 30.558,0 58.686,20.969 89.24,20.969 30.558,0 58.686,-20.969 89.24,-20.969 30.558,0 58.688,20.969 89.25,20.969 30.29,0 58.2,-20.595 88.46,-20.951 0.377,-7.339 0.787,-14.676 1.299,-22.01 -0.17,0 -0.34,-0.012 -0.51,-0.012 -30.558,0 -58.686,20.969 -89.24,20.969 -30.558,0 -58.688,-20.969 -89.25,-20.969 -30.558,0 -58.686,20.969 -89.24,20.969 -30.558,0 -58.686,-20.969 -89.24,-20.969 -30.558,0 -58.688,20.969 -89.25,20.969 -30.558,0 -58.686,-20.969 -89.24,-20.969 z"
     id="path1011"
     inkscape:connector-curvature="0"
     style="fill:#ffffff;fill-rule:evenodd;stroke:#000000;stroke-width:3;stroke-linecap:round;stroke-linejoin:round" />
  <path
     d="m 244.69,141.25 c -9.776,0.174 -20.489,4.497 -26.768,11.992 -4.43,5.288 -6.169,13.273 -5.02,20.08 1.383,8.212 7.878,14.927 13.666,20.914 5.843,6.04 14.385,8.882 20.637,14.502 3.674,3.303 7.602,6.71 9.76,11.154 1.322,2.722 2.063,5.923 1.674,8.924 -0.215,1.652 -0.66,3.759 -2.145,4.516 -2.697,1.374 -6.204,-0.35 -8.926,-1.672 -4.444,-2.158 -7.851,-6.088 -11.154,-9.762 -5.62,-6.252 -8.458,-14.792 -14.502,-20.635 -5.987,-5.788 -12.7,-12.281 -20.912,-13.664 -1.276,-0.215 -2.593,-0.328 -3.926,-0.342 -5.777,-0.058 -11.854,1.762 -16.15,5.361 -7.495,6.279 -11.819,16.993 -11.992,26.77 -0.18,10.131 8.997,18.331 11.432,28.17 0.449,1.814 0.561,5.576 0.561,5.576 0,0 -0.112,3.765 -0.561,5.578 -2.434,9.835 -11.611,18.03 -11.432,28.16 0.174,9.776 4.497,20.491 11.992,26.77 5.288,4.43 13.273,6.165 20.08,5.02 8.212,-1.383 14.925,-7.876 20.912,-13.664 6.04,-5.843 8.882,-14.383 14.502,-20.635 3.303,-3.674 6.71,-7.602 11.154,-9.76 2.722,-1.322 5.974,-1 8.926,-1.674 2.815,-0.638 6.56,-0.438 8.363,1.77 5.202,6.367 0.325,22.29 0.193,24.666 -2.768,49.05 -14.5,146.68 -14.5,146.68 0,0 10.298,5.621 13.941,10.04 2.632,3.192 5.543,6.984 6.451,11 a 63.900181,63.900181 0 0 0 -56.22851,59.77734 49.39928,49.39928 0 0 0 -42.96485,-25.08789 49.39928,49.39928 0 0 0 -49.40039,49.40039 49.39928,49.39928 0 0 0 0.001,0.20117 c 15.01,11.226 31.22,21.04 48.34,28.631 19.245,8.531 39.788,14.292 60.46,18.289 15.555,3.01 31.502,4.134 47.34,4.188 15.742,0.054 31.611,-0.865 47.07,-3.84 20.748,-3.993 41.28,-10.05 60.58,-18.662 17.09,-7.628 33.35,-17.387 48.36,-28.604 a 49.39928,49.39928 0 0 0 0.008,-0.20312 49.39928,49.39928 0 0 0 -49.4004,-49.40039 49.39928,49.39928 0 0 0 -42.91406,25.05664 63.900181,63.900181 0 0 0 -56.27148,-59.7832 c 0.918,-4 3.819,-7.781 6.443,-10.963 3.644,-4.418 13.943,-10.04 13.943,-10.04 0,0 -11.734,-97.63 -14.502,-146.68 0.733,-4.465 -5.01,-18.299 0.193,-24.666 1.803,-2.207 5.549,-2.408 8.363,-1.77 2.951,0.669 6.204,0.352 8.926,1.674 4.444,2.158 7.851,6.086 11.154,9.76 5.62,6.252 8.458,14.792 14.502,20.635 5.987,5.788 12.7,12.281 20.912,13.664 6.803,1.146 14.788,-0.59 20.08,-5.02 7.495,-6.279 11.819,-16.993 11.992,-26.77 0.18,-10.131 -8.997,-18.329 -11.432,-28.16 -0.449,-1.814 -0.561,-5.578 -0.561,-5.578 0,0 0.112,-3.763 0.561,-5.576 2.434,-9.835 11.611,-18.04 11.432,-28.17 -0.174,-9.776 -4.497,-20.491 -11.992,-26.77 -4.297,-3.599 -10.374,-5.42 -16.15,-5.361 -1.333,0.014 -2.65,0.127 -3.926,0.342 -8.212,1.383 -14.925,7.876 -20.912,13.664 -6.04,5.843 -8.882,14.383 -14.502,20.635 -3.303,3.674 -6.71,7.604 -11.154,9.762 -2.722,1.322 -6.23,3.046 -8.926,1.672 -1.484,-0.757 -1.925,-2.864 -2.139,-4.516 -0.388,-3 0.35,-6.202 1.672,-8.924 2.158,-4.444 6.088,-7.851 9.762,-11.154 6.252,-5.62 14.792,-8.458 20.635,-14.502 5.788,-5.987 12.277,-12.702 13.66,-20.914 1.146,-6.803 -0.589,-14.788 -5.02,-20.08 -6.279,-7.495 -16.99,-11.819 -26.766,-11.992 -10.131,-0.18 -18.331,8.999 -28.17,11.434 -1.814,0.449 -5.58,0.559 -5.58,0.559 0,0 -3.759,-0.11 -5.572,-0.559 -9.835,-2.434 -18.04,-11.613 -28.17,-11.434 z"
     id="path1013"
     inkscape:connector-curvature="0"
     style="fill:#00a94f;stroke:#000000;stroke-width:3;stroke-linecap:round;stroke-linejoin:round;fill-opacity:1" />
  <path
     d="M 454.75,5.51 414.46,5.783 H 280.7 l -4.529,0.025 H 142.411 6.101 c 0,0 2.842,27.453 3.861,41.21 1.745,23.58 2.422,47.23 3.861,70.826 1.938,31.779 4.497,63.53 6.434,95.31 1.439,23.6 2.225,47.24 3.861,70.826 2.473,35.669 2.859,71.66 8.983,106.88 3.424,19.696 8.205,39.31 15.443,57.94 8.738,22.494 19.05,44.856 33.484,64.18 10.408,13.936 23.701,25.668 37.493,36.26 15.79,12.12 32.985,22.689 51.18,30.754 19.245,8.531 39.788,14.292 60.46,18.289 15.555,3.01 31.5,4.134 47.34,4.188 15.742,0.054 31.611,-0.866 47.07,-3.841 20.748,-3.993 41.28,-10.04 60.58,-18.661 18.17,-8.112 35.413,-18.632 51.2,-30.754 13.792,-10.588 27.09,-22.319 37.493,-36.26 14.435,-19.329 24.746,-41.691 33.484,-64.18 7.238,-18.632 12.02,-38.27 15.443,-57.965 6.124,-35.23 6.51,-71.21 8.983,-106.88 1.635,-23.588 2.422,-47.23 3.861,-70.826 1.938,-31.779 4.497,-63.51 6.434,-95.29 1.439,-23.6 2.115,-47.25 3.861,-70.826 1.018,-13.759 3.861,-41.21 3.861,-41.21 l -96.02,-0.273 z"
     id="path1019"
     inkscape:connector-curvature="0"
     style="fill:none;stroke:#000000;stroke-width:11" />
  <path
     style="fill-rule:evenodd"
     d="m 182.78,464.14 c -11.948,2.668 -22.612,-10.148 -32.03,-17.968 -19.841,-16.476 -37.767,-36.463 -49.608,-59.37 -8.903,-17.227 -11.859,-37.09 -14.843,-56.25 -5.498,-35.3 3.623,-72.48 -5.469,-107.03 -2.964,-11.262 -8.939,-21.714 -15.625,-31.25 -6.08,-8.672 -14.483,-15.46 -21.875,-23.05 -2.698,-2.77 -6.723,-4.63 -8.203,-8.203 -0.698,-1.684 -1.111,-4.02 0,-5.469 1.231,-1.603 3.839,-1.492 5.859,-1.562 7.554,-0.264 15.213,1.575 22.265,4.297 11.229,4.333 21.873,10.742 30.859,18.75 11.08,9.877 20.811,21.824 27.343,35.16 5.322,10.861 6.449,23.329 8.984,35.16 4.46,20.805 4.03,42.765 10.937,62.889 4.408,12.836 10.673,25.33 19.14,35.937 6.335,7.936 14.835,13.947 23.05,19.921 7.512,5.465 17.64,7.524 23.828,14.453 4.967,5.562 9.259,12.856 9.375,20.312 0.218,14 -9.561,26.456 -16.406,38.671 -4.928,8.794 -7.739,22.412 -17.578,24.609"
     id="path1023"
     inkscape:connector-curvature="0" />
  <path
     d="m 224.06,356.9 c -4.567,-1.502 -10.285,-0.417 -14.234,2.324 -5.131,3.561 -5.557,11.265 -9.296,16.268 -3.936,5.266 -10.759,8.331 -13.653,14.234 -3.49,7.119 -1.373,15.888 -3.486,23.53 -2.429,8.787 -8.478,16.373 -10.458,25.27 -0.926,4.163 0.314,8.612 -0.581,12.782 -1.158,5.397 -6.092,9.876 -6.1,15.396 -0.008,5.826 2.314,12.11 6.391,16.268 1.762,1.798 4.46,2.734 6.972,2.905 3.398,0.231 6.909,-0.944 9.877,-2.614 6.326,-3.56 10.18,-10.376 15.687,-15.11 4.716,-4.051 11.393,-6.139 14.815,-11.329 4.563,-6.921 3.335,-16.295 6.1,-24.11 2.775,-7.842 9.115,-14.449 10.458,-22.658 1.446,-8.843 -3.25,-17.771 -2.905,-26.725 0.182,-4.725 3.985,-9.418 2.614,-13.944 -1.687,-5.57 -6.672,-10.673 -12.201,-12.491 z"
     id="path1025"
     inkscape:connector-curvature="0"
     style="fill-rule:evenodd;stroke:#ffffff;stroke-width:3;stroke-linejoin:round" />
  <path
     style="fill:#ffffff"
     d="m 97.61,222.75 c -1.219,0.039 -2.402,0.479 -3.5,0.945 -0.298,0.126 -0.725,0.218 -0.816,0.492 -0.071,0.213 0.076,0.508 0.305,0.605 0.497,0.211 1.092,-0.202 1.627,-0.34 0.741,-0.191 1.458,-0.449 2.186,-0.676 0.434,-0.135 1,-0.107 1.303,-0.41 0.097,-0.098 0.163,-0.27 0.082,-0.377 -0.22,-0.292 -0.779,-0.253 -1.186,-0.24"
     id="path1029"
     inkscape:connector-curvature="0" />
  <path
     style="fill:#ffffff"
     d="m 100.34,231.22 c -1.538,0.051 -3.03,0.638 -4.418,1.256 -0.376,0.168 -0.916,0.291 -1.031,0.654 -0.089,0.282 0.096,0.674 0.385,0.803 0.627,0.28 1.379,-0.268 2.055,-0.451 0.935,-0.254 1.84,-0.595 2.758,-0.896 0.548,-0.18 1.265,-0.14 1.643,-0.543 0.122,-0.13 0.205,-0.36 0.104,-0.502 -0.278,-0.387 -0.981,-0.337 -1.494,-0.32"
     id="path1031"
     inkscape:connector-curvature="0" />
  <path
     style="fill:#ffffff"
     d="m 101.58,241.47 c -1.538,0.051 -3.03,0.638 -4.416,1.256 -0.376,0.168 -0.916,0.289 -1.031,0.652 -0.089,0.282 0.096,0.674 0.385,0.803 0.627,0.28 1.379,-0.268 2.055,-0.451 0.935,-0.254 1.84,-0.595 2.758,-0.896 0.548,-0.18 1.265,-0.14 1.643,-0.543 0.122,-0.13 0.205,-0.36 0.104,-0.502 -0.278,-0.387 -0.983,-0.336 -1.496,-0.318"
     id="path1033"
     inkscape:connector-curvature="0" />
  <path
     style="fill:#ffffff"
     d="m 106.45,248.88 c -0.198,0.002 -0.394,0.011 -0.572,0.018 -2.143,0.075 -4.224,0.935 -6.154,1.842 -0.524,0.246 -1.275,0.425 -1.436,0.959 -0.125,0.414 0.133,0.988 0.535,1.178 0.874,0.411 1.922,-0.393 2.863,-0.662 1.303,-0.372 2.562,-0.873 3.842,-1.314 0.764,-0.264 1.763,-0.206 2.289,-0.797 0.17,-0.191 0.284,-0.528 0.143,-0.736 -0.29,-0.426 -0.914,-0.491 -1.51,-0.486"
     id="path1035"
     inkscape:connector-curvature="0" />
  <path
     style="fill:#ffffff"
     d="m 105.68,259.71 c -0.223,0.002 -0.443,0.012 -0.645,0.019 -2.412,0.086 -4.753,1.068 -6.926,2.104 -0.59,0.281 -1.436,0.487 -1.617,1.096 -0.14,0.472 0.15,1.126 0.604,1.342 0.984,0.469 2.163,-0.447 3.223,-0.754 1.466,-0.425 2.882,-0.998 4.322,-1.502 0.859,-0.301 1.984,-0.236 2.576,-0.91 0.191,-0.218 0.322,-0.603 0.162,-0.84 -0.327,-0.486 -1.029,-0.56 -1.699,-0.555"
     id="path1037"
     inkscape:connector-curvature="0" />
  <path
     style="fill:#ffffff"
     d="m 108.32,270.69 c -0.267,0.002 -0.529,0.015 -0.77,0.023 -2.882,0.105 -5.68,1.299 -8.277,2.559 -0.705,0.342 -1.715,0.593 -1.932,1.334 -0.168,0.575 0.177,1.372 0.719,1.635 1.176,0.571 2.586,-0.544 3.852,-0.918 1.752,-0.517 3.447,-1.214 5.168,-1.828 1.027,-0.366 2.371,-0.287 3.078,-1.107 0.229,-0.266 0.384,-0.735 0.193,-1.023 -0.39,-0.591 -1.23,-0.68 -2.031,-0.674"
     id="path1039"
     inkscape:connector-curvature="0" />
  <path
     style="fill:#ffffff"
     d="m 108.55,282.18 c -0.298,0.002 -0.591,0.015 -0.859,0.025 -3.219,0.118 -6.342,1.466 -9.242,2.887 -0.787,0.386 -1.917,0.666 -2.158,1.502 -0.187,0.648 0.2,1.545 0.805,1.842 1.313,0.644 2.887,-0.612 4.301,-1.033 1.957,-0.583 3.848,-1.371 5.77,-2.063 1.147,-0.413 2.648,-0.321 3.438,-1.246 0.256,-0.299 0.428,-0.829 0.215,-1.154 -0.436,-0.667 -1.373,-0.767 -2.268,-0.76"
     id="path1041"
     inkscape:connector-curvature="0" />
  <path
     style="fill:#ffffff"
     d="m 107.25,293.65 c -0.298,0.002 -0.591,0.018 -0.859,0.027 -3.219,0.118 -6.344,1.466 -9.244,2.887 -0.787,0.386 -1.915,0.666 -2.156,1.502 -0.187,0.648 0.2,1.545 0.805,1.842 1.313,0.644 2.885,-0.612 4.299,-1.033 1.957,-0.583 3.848,-1.371 5.77,-2.063 1.147,-0.413 2.648,-0.323 3.438,-1.248 0.256,-0.299 0.43,-0.827 0.217,-1.152 -0.436,-0.667 -1.373,-0.769 -2.268,-0.762"
     id="path1043"
     inkscape:connector-curvature="0" />
  <path
     style="fill:#ffffff"
     d="m 108.99,305.27 c -0.298,0.002 -0.593,0.015 -0.861,0.025 -3.219,0.118 -6.342,1.466 -9.242,2.887 -0.787,0.386 -1.917,0.666 -2.158,1.502 -0.187,0.648 0.2,1.547 0.805,1.844 1.313,0.644 2.887,-0.614 4.301,-1.035 1.957,-0.583 3.848,-1.371 5.77,-2.063 1.147,-0.413 2.648,-0.321 3.438,-1.246 0.256,-0.299 0.428,-0.827 0.215,-1.152 -0.436,-0.667 -1.371,-0.769 -2.266,-0.762"
     id="path1045"
     inkscape:connector-curvature="0" />
  <path
     style="fill:#ffffff"
     d="m 110.07,314.85 c -0.298,0.002 -0.591,0.018 -0.859,0.027 -3.219,0.118 -6.344,1.464 -9.244,2.885 -0.787,0.386 -1.915,0.666 -2.156,1.502 -0.187,0.648 0.2,1.547 0.805,1.844 1.313,0.644 2.885,-0.614 4.299,-1.035 1.957,-0.583 3.848,-1.369 5.77,-2.061 1.147,-0.413 2.648,-0.323 3.438,-1.248 0.256,-0.299 0.43,-0.827 0.217,-1.152 -0.436,-0.667 -1.373,-0.769 -2.268,-0.762"
     id="path1047"
     inkscape:connector-curvature="0" />
  <path
     style="fill:#ffffff"
     d="m 113.48,322.5 c -0.91,-0.037 -1.957,0.276 -2.813,0.506 -4.102,1.103 -7.723,3.773 -11.04,6.473 -0.899,0.733 -2.268,1.43 -2.334,2.586 -0.051,0.896 0.709,1.95 1.572,2.156 1.875,0.449 3.531,-1.648 5.225,-2.611 2.344,-1.334 4.545,-2.914 6.813,-4.379 1.353,-0.874 3.308,-1.198 4.053,-2.633 0.241,-0.464 0.31,-1.201 -0.059,-1.561 -0.377,-0.368 -0.876,-0.515 -1.422,-0.537"
     id="path1049"
     inkscape:connector-curvature="0" />
  <path
     style="fill:#ffffff"
     d="m 116.5,334.5 c -0.91,-0.037 -1.957,0.278 -2.813,0.508 -4.102,1.103 -7.725,3.773 -11.04,6.473 -0.899,0.733 -2.266,1.43 -2.332,2.586 -0.051,0.896 0.707,1.948 1.57,2.154 1.875,0.449 3.531,-1.648 5.225,-2.611 2.344,-1.334 4.545,-2.912 6.813,-4.377 1.353,-0.874 3.308,-1.198 4.053,-2.633 0.241,-0.464 0.31,-1.201 -0.059,-1.561 -0.377,-0.368 -0.874,-0.517 -1.42,-0.539"
     id="path1051"
     inkscape:connector-curvature="0" />
  <path
     style="fill:#ffffff"
     d="m 121.2,343.86 c -0.691,-0.028 -1.484,0.208 -2.133,0.381 -3.112,0.828 -5.862,2.836 -8.375,4.863 -0.682,0.55 -1.719,1.073 -1.77,1.941 -0.039,0.673 0.536,1.464 1.191,1.619 1.423,0.337 2.68,-1.237 3.965,-1.961 1.779,-1 3.45,-2.189 5.17,-3.289 1.027,-0.657 2.509,-0.901 3.074,-1.979 0.183,-0.349 0.235,-0.902 -0.045,-1.172 -0.286,-0.277 -0.664,-0.388 -1.078,-0.404"
     id="path1053"
     inkscape:connector-curvature="0" />
  <path
     style="fill:#ffffff"
     d="m 118.59,359.03 c -0.96,0.08 -1.999,0.797 -2.828,1.33 -3.316,2.13 -5.768,5.508 -7.936,8.824 -0.588,0.9 -1.601,1.901 -1.334,2.939 0.207,0.805 1.174,1.518 1.996,1.457 1.784,-0.133 2.657,-2.449 3.883,-3.777 1.697,-1.838 3.199,-3.851 4.791,-5.783 0.95,-1.153 2.587,-1.991 2.842,-3.467 0.082,-0.477 -0.065,-1.148 -0.492,-1.361 -0.292,-0.146 -0.602,-0.189 -0.922,-0.162"
     id="path1055"
     inkscape:connector-curvature="0" />
  <path
     style="fill:#ffffff"
     d="m 127.1,366.84 c -1.134,0.094 -2.363,0.943 -3.344,1.572 -3.919,2.516 -6.817,6.504 -9.379,10.42 -0.695,1.063 -1.891,2.246 -1.576,3.473 0.245,0.951 1.386,1.793 2.357,1.721 2.108,-0.157 3.141,-2.893 4.59,-4.461 2.01,-2.171 3.781,-4.548 5.662,-6.83 1.123,-1.362 3.058,-2.353 3.359,-4.096 0.097,-0.564 -0.075,-1.353 -0.58,-1.605 -0.345,-0.172 -0.712,-0.225 -1.09,-0.193"
     id="path1057"
     inkscape:connector-curvature="0" />
  <path
     style="fill:#ffffff"
     d="m 132.49,375.93 c -1.294,-0.004 -2.587,1.257 -3.596,2.168 -3.455,3.122 -5.661,7.531 -7.549,11.813 -0.512,1.162 -1.5,2.525 -0.988,3.684 0.397,0.898 1.661,1.543 2.607,1.313 2.054,-0.5 2.626,-3.366 3.799,-5.15 1.624,-2.47 2.987,-5.106 4.471,-7.664 0.886,-1.527 2.632,-2.82 2.645,-4.588 0.004,-0.572 -0.295,-1.324 -0.834,-1.49 -0.184,-0.057 -0.37,-0.083 -0.555,-0.084"
     id="path1059"
     inkscape:connector-curvature="0" />
  <path
     style="fill:#ffffff"
     d="m 141.35,382.49 c -1.85,-0.097 -3.53,1.878 -4.832,3.289 -4.162,4.513 -6.518,10.553 -8.471,16.389 -0.53,1.584 -1.66,3.488 -0.842,4.939 0.635,1.126 2.382,1.813 3.6,1.395 2.644,-0.909 3.041,-4.732 4.363,-7.211 1.831,-3.432 3.295,-7.05 4.93,-10.58 0.976,-2.107 3.117,-4.01 2.912,-6.328 -0.066,-0.749 -0.556,-1.695 -1.287,-1.846 -0.125,-0.026 -0.25,-0.04 -0.373,-0.047"
     id="path1061"
     inkscape:connector-curvature="0" />
  <path
     style="stroke:#ffffff;stroke-width:3;stroke-linecap:round;stroke-linejoin:round"
     inkscape:connector-curvature="0"
     id="path1065"
     d="m 213.75301,387.41555 a 9.00523,39.18213 18.93577 0 0 -20.59766,34.25195 9.00523,39.18213 18.93577 0 0 -4.19727,39.98438 9.00523,39.18213 18.93577 0 0 21.23243,-34.13868 9.00523,39.18213 18.93577 0 0 4.19726,-39.98437 9.00523,39.18213 18.93577 0 0 -0.63476,-0.11328 z" />
  <path
     style="fill:#ffffff"
     d="m 149.17,390.34 c -1.851,0.09 -3.324,2.224 -4.477,3.76 -3.684,4.911 -5.417,11.159 -6.77,17.16 -0.367,1.629 -1.299,3.639 -0.338,5 0.746,1.056 2.553,1.563 3.723,1.023 2.539,-1.171 2.544,-5.02 3.609,-7.615 1.474,-3.599 2.567,-7.346 3.836,-11.02 0.758,-2.195 2.696,-4.31 2.258,-6.592 -0.142,-0.738 -0.724,-1.629 -1.467,-1.705 -0.127,-0.013 -0.252,-0.016 -0.375,-10e-4"
     id="path1067"
     inkscape:connector-curvature="0" />
  <path
     style="fill:#ffffff"
     d="m 159.47,397.02 c -2.096,0.102 -3.763,2.509 -5.068,4.242 -4.173,5.541 -6.136,12.59 -7.668,19.363 -0.416,1.838 -1.472,4.106 -0.383,5.643 0.844,1.191 2.892,1.763 4.217,1.154 2.875,-1.322 2.882,-5.658 4.088,-8.592 1.67,-4.061 2.908,-8.288 4.346,-12.438 0.858,-2.477 3.051,-4.863 2.555,-7.438 -0.161,-0.833 -0.819,-1.838 -1.66,-1.924 -0.144,-0.015 -0.286,-0.019 -0.426,-0.012"
     id="path1069"
     inkscape:connector-curvature="0" />
  <path
     style="fill:#ffffff"
     d="m 170.41,401.33 c -2.383,0.115 -4.28,2.844 -5.764,4.807 -4.743,6.276 -6.974,14.26 -8.715,21.932 -0.473,2.082 -1.673,4.651 -0.436,6.391 0.96,1.35 3.287,1.996 4.793,1.307 3.268,-1.497 3.277,-6.407 4.648,-9.73 1.898,-4.6 3.305,-9.389 4.939,-14.09 0.975,-2.806 3.468,-5.508 2.904,-8.424 -0.182,-0.944 -0.933,-2.081 -1.889,-2.178 -0.163,-0.016 -0.324,-0.021 -0.482,-0.014"
     id="path1071"
     inkscape:connector-curvature="0" />
  <path
     style="fill-rule:evenodd"
     d="m 374.08,464.14 c 11.948,2.668 22.612,-10.148 32.03,-17.968 19.841,-16.476 37.767,-36.463 49.608,-59.37 8.903,-17.227 11.859,-37.09 14.843,-56.25 5.498,-35.3 -3.623,-72.48 5.469,-107.03 2.964,-11.262 8.939,-21.714 15.625,-31.25 6.08,-8.672 14.483,-15.46 21.875,-23.05 2.698,-2.77 6.723,-4.63 8.203,-8.203 0.698,-1.684 1.111,-4.02 0,-5.469 -1.231,-1.603 -3.839,-1.492 -5.859,-1.562 -7.554,-0.264 -15.213,1.575 -22.265,4.297 -11.229,4.333 -21.873,10.742 -30.859,18.75 -11.08,9.877 -20.811,21.824 -27.343,35.16 -5.322,10.861 -6.449,23.329 -8.984,35.16 -4.46,20.805 -4.03,42.765 -10.937,62.889 -4.408,12.836 -10.673,25.33 -19.14,35.937 -6.335,7.936 -14.835,13.947 -23.05,19.921 -7.512,5.465 -17.64,7.524 -23.828,14.453 -4.967,5.562 -9.259,12.856 -9.375,20.312 -0.218,14 9.561,26.456 16.406,38.671 4.928,8.794 7.739,22.412 17.578,24.609"
     id="path1075"
     inkscape:connector-curvature="0" />
  <path
     d="m 332.8,356.9 c 4.567,-1.502 10.285,-0.417 14.234,2.324 5.131,3.561 5.557,11.265 9.296,16.268 3.936,5.266 10.759,8.331 13.653,14.234 3.49,7.119 1.373,15.888 3.486,23.53 2.429,8.787 8.478,16.373 10.458,25.27 0.926,4.163 -0.314,8.612 0.581,12.782 1.158,5.397 6.092,9.876 6.1,15.396 0.008,5.826 -2.314,12.11 -6.391,16.268 -1.762,1.798 -4.46,2.734 -6.972,2.905 -3.398,0.231 -6.909,-0.944 -9.877,-2.614 -6.326,-3.56 -10.18,-10.376 -15.687,-15.11 -4.716,-4.051 -11.393,-6.139 -14.815,-11.329 -4.563,-6.921 -3.335,-16.295 -6.1,-24.11 -2.775,-7.842 -9.115,-14.449 -10.458,-22.658 -1.446,-8.843 3.25,-17.771 2.905,-26.725 -0.182,-4.725 -3.985,-9.418 -2.614,-13.944 1.687,-5.57 6.672,-10.673 12.201,-12.491 z"
     id="path1077"
     inkscape:connector-curvature="0"
     style="fill-rule:evenodd;stroke:#ffffff;stroke-width:3;stroke-linejoin:round" />
  <path
     style="fill:#ffffff"
     d="m 459.25,222.75 c 1.219,0.039 2.402,0.479 3.5,0.945 0.298,0.126 0.725,0.218 0.816,0.492 0.071,0.213 -0.076,0.508 -0.305,0.605 -0.497,0.211 -1.092,-0.202 -1.627,-0.34 -0.741,-0.191 -1.458,-0.449 -2.186,-0.676 -0.434,-0.135 -1,-0.107 -1.303,-0.41 -0.097,-0.098 -0.163,-0.27 -0.082,-0.377 0.22,-0.292 0.779,-0.253 1.186,-0.24"
     id="path1081"
     inkscape:connector-curvature="0" />
  <path
     style="fill:#ffffff"
     d="m 456.52,231.22 c 1.538,0.051 3.03,0.638 4.418,1.256 0.376,0.168 0.916,0.291 1.031,0.654 0.09,0.282 -0.096,0.674 -0.385,0.803 -0.627,0.28 -1.379,-0.268 -2.055,-0.451 -0.935,-0.254 -1.84,-0.595 -2.758,-0.896 -0.548,-0.18 -1.265,-0.14 -1.643,-0.543 -0.122,-0.13 -0.205,-0.36 -0.104,-0.502 0.278,-0.387 0.981,-0.337 1.494,-0.32"
     id="path1083"
     inkscape:connector-curvature="0" />
  <path
     style="fill:#ffffff"
     d="m 455.28,241.47 c 1.538,0.051 3.03,0.638 4.416,1.256 0.376,0.168 0.916,0.289 1.031,0.652 0.09,0.282 -0.096,0.674 -0.385,0.803 -0.627,0.28 -1.379,-0.268 -2.055,-0.451 -0.935,-0.254 -1.84,-0.595 -2.758,-0.896 -0.548,-0.18 -1.265,-0.14 -1.643,-0.543 -0.122,-0.13 -0.205,-0.36 -0.104,-0.502 0.278,-0.387 0.983,-0.336 1.496,-0.318"
     id="path1085"
     inkscape:connector-curvature="0" />
  <path
     style="fill:#ffffff"
     d="m 450.41,248.88 c 0.198,0.002 0.394,0.011 0.572,0.018 2.143,0.075 4.223,0.935 6.154,1.842 0.524,0.246 1.275,0.425 1.436,0.959 0.125,0.414 -0.133,0.988 -0.535,1.178 -0.874,0.411 -1.922,-0.393 -2.863,-0.662 -1.303,-0.372 -2.562,-0.873 -3.842,-1.314 -0.764,-0.264 -1.763,-0.206 -2.289,-0.797 -0.17,-0.191 -0.284,-0.528 -0.143,-0.736 0.29,-0.426 0.914,-0.491 1.51,-0.486"
     id="path1087"
     inkscape:connector-curvature="0" />
  <path
     style="fill:#ffffff"
     d="m 451.18,259.71 c 0.223,0.002 0.443,0.012 0.645,0.019 2.412,0.086 4.753,1.068 6.926,2.104 0.59,0.281 1.436,0.487 1.617,1.096 0.14,0.472 -0.15,1.126 -0.604,1.342 -0.984,0.469 -2.163,-0.447 -3.223,-0.754 -1.466,-0.425 -2.882,-0.998 -4.322,-1.502 -0.859,-0.301 -1.984,-0.236 -2.576,-0.91 -0.191,-0.218 -0.322,-0.603 -0.162,-0.84 0.327,-0.486 1.029,-0.56 1.699,-0.555"
     id="path1089"
     inkscape:connector-curvature="0" />
  <path
     style="fill:#ffffff"
     d="m 448.55,270.69 c 0.267,0.002 0.529,0.015 0.77,0.023 2.882,0.105 5.68,1.299 8.277,2.559 0.705,0.342 1.715,0.593 1.932,1.334 0.168,0.575 -0.177,1.372 -0.719,1.635 -1.176,0.571 -2.586,-0.544 -3.852,-0.918 -1.752,-0.517 -3.447,-1.214 -5.168,-1.828 -1.027,-0.366 -2.371,-0.287 -3.078,-1.107 -0.229,-0.266 -0.384,-0.735 -0.193,-1.023 0.39,-0.591 1.23,-0.68 2.031,-0.674"
     id="path1091"
     inkscape:connector-curvature="0" />
  <path
     style="fill:#ffffff"
     d="m 448.31,282.18 c 0.298,0.002 0.591,0.015 0.859,0.025 3.219,0.118 6.342,1.466 9.242,2.887 0.787,0.386 1.917,0.666 2.158,1.502 0.187,0.648 -0.2,1.545 -0.805,1.842 -1.313,0.644 -2.887,-0.612 -4.301,-1.033 -1.957,-0.583 -3.848,-1.371 -5.77,-2.063 -1.147,-0.413 -2.648,-0.321 -3.438,-1.246 -0.256,-0.299 -0.428,-0.829 -0.215,-1.154 0.436,-0.667 1.373,-0.767 2.268,-0.76"
     id="path1093"
     inkscape:connector-curvature="0" />
  <path
     style="fill:#ffffff"
     d="m 449.62,293.65 c 0.298,0.002 0.591,0.018 0.859,0.027 3.219,0.118 6.344,1.466 9.244,2.887 0.787,0.386 1.915,0.666 2.156,1.502 0.187,0.648 -0.2,1.545 -0.805,1.842 -1.313,0.644 -2.885,-0.612 -4.299,-1.033 -1.957,-0.583 -3.848,-1.371 -5.77,-2.063 -1.147,-0.413 -2.648,-0.323 -3.438,-1.248 -0.256,-0.299 -0.43,-0.827 -0.217,-1.152 0.436,-0.667 1.373,-0.769 2.268,-0.762"
     id="path1095"
     inkscape:connector-curvature="0" />
  <path
     style="fill:#ffffff"
     d="m 447.87,305.27 c 0.298,0.002 0.593,0.015 0.861,0.025 3.219,0.118 6.342,1.466 9.242,2.887 0.787,0.386 1.917,0.666 2.158,1.502 0.187,0.648 -0.2,1.547 -0.805,1.844 -1.313,0.644 -2.887,-0.614 -4.301,-1.035 -1.957,-0.583 -3.848,-1.371 -5.77,-2.063 -1.147,-0.413 -2.648,-0.321 -3.438,-1.246 -0.256,-0.299 -0.428,-0.827 -0.215,-1.152 0.436,-0.667 1.371,-0.769 2.266,-0.762"
     id="path1097"
     inkscape:connector-curvature="0" />
  <path
     style="fill:#ffffff"
     d="m 446.79,314.85 c 0.298,0.002 0.591,0.018 0.859,0.027 3.219,0.118 6.344,1.464 9.244,2.885 0.787,0.386 1.915,0.666 2.156,1.502 0.187,0.648 -0.2,1.547 -0.805,1.844 -1.313,0.644 -2.885,-0.614 -4.299,-1.035 -1.957,-0.583 -3.848,-1.369 -5.77,-2.061 -1.147,-0.413 -2.648,-0.323 -3.438,-1.248 -0.256,-0.299 -0.43,-0.827 -0.217,-1.152 0.436,-0.667 1.373,-0.769 2.268,-0.762"
     id="path1099"
     inkscape:connector-curvature="0" />
  <path
     style="fill:#ffffff"
     d="m 443.39,322.5 c 0.91,-0.037 1.957,0.276 2.813,0.506 4.102,1.103 7.723,3.773 11.04,6.473 0.899,0.733 2.268,1.43 2.334,2.586 0.051,0.896 -0.709,1.95 -1.572,2.156 -1.875,0.449 -3.531,-1.648 -5.225,-2.611 -2.344,-1.334 -4.545,-2.914 -6.813,-4.379 -1.353,-0.874 -3.308,-1.198 -4.053,-2.633 -0.241,-0.464 -0.31,-1.201 0.059,-1.561 0.377,-0.368 0.876,-0.515 1.422,-0.537"
     id="path1101"
     inkscape:connector-curvature="0" />
  <path
     style="fill:#ffffff"
     d="m 440.36,334.5 c 0.91,-0.037 1.957,0.278 2.813,0.508 4.102,1.103 7.725,3.773 11.04,6.473 0.899,0.733 2.266,1.43 2.332,2.586 0.051,0.896 -0.707,1.948 -1.57,2.154 -1.875,0.449 -3.531,-1.648 -5.225,-2.611 -2.344,-1.334 -4.545,-2.912 -6.813,-4.377 -1.353,-0.874 -3.308,-1.198 -4.053,-2.633 -0.241,-0.464 -0.31,-1.201 0.059,-1.561 0.377,-0.368 0.874,-0.517 1.42,-0.539"
     id="path1103"
     inkscape:connector-curvature="0" />
  <path
     style="fill:#ffffff"
     d="m 435.66,343.86 c 0.691,-0.028 1.484,0.208 2.133,0.381 3.112,0.828 5.862,2.836 8.375,4.863 0.682,0.55 1.719,1.073 1.77,1.941 0.039,0.673 -0.536,1.464 -1.191,1.619 -1.423,0.337 -2.68,-1.237 -3.965,-1.961 -1.779,-1 -3.45,-2.189 -5.17,-3.289 -1.027,-0.657 -2.509,-0.901 -3.074,-1.979 -0.183,-0.349 -0.235,-0.902 0.045,-1.172 0.286,-0.277 0.664,-0.388 1.078,-0.404"
     id="path1105"
     inkscape:connector-curvature="0" />
  <path
     style="fill:#ffffff"
     d="m 438.27,359.03 c 0.96,0.08 1.999,0.797 2.828,1.33 3.316,2.13 5.768,5.508 7.936,8.824 0.588,0.9 1.601,1.901 1.334,2.939 -0.207,0.805 -1.174,1.518 -1.996,1.457 -1.784,-0.133 -2.657,-2.449 -3.883,-3.777 -1.697,-1.838 -3.199,-3.851 -4.791,-5.783 -0.95,-1.153 -2.587,-1.991 -2.842,-3.467 -0.082,-0.477 0.065,-1.148 0.492,-1.361 0.292,-0.146 0.602,-0.189 0.922,-0.162"
     id="path1107"
     inkscape:connector-curvature="0" />
  <path
     style="fill:#ffffff"
     d="m 429.76,366.84 c 1.134,0.094 2.363,0.943 3.344,1.572 3.919,2.516 6.817,6.504 9.379,10.42 0.695,1.063 1.891,2.246 1.576,3.473 -0.245,0.951 -1.386,1.793 -2.357,1.721 -2.108,-0.157 -3.141,-2.893 -4.59,-4.461 -2.01,-2.171 -3.781,-4.548 -5.662,-6.83 -1.123,-1.362 -3.058,-2.353 -3.359,-4.096 -0.097,-0.564 0.075,-1.353 0.58,-1.605 0.345,-0.172 0.712,-0.225 1.09,-0.193"
     id="path1109"
     inkscape:connector-curvature="0" />
  <path
     style="fill:#ffffff"
     d="m 424.37,375.93 c 1.294,-0.004 2.587,1.257 3.596,2.168 3.455,3.122 5.661,7.531 7.549,11.813 0.512,1.162 1.5,2.525 0.988,3.684 -0.397,0.898 -1.661,1.543 -2.607,1.313 -2.054,-0.5 -2.626,-3.366 -3.799,-5.15 -1.624,-2.47 -2.987,-5.106 -4.471,-7.664 -0.886,-1.527 -2.632,-2.82 -2.645,-4.588 -0.004,-0.572 0.295,-1.324 0.834,-1.49 0.184,-0.057 0.37,-0.083 0.555,-0.084"
     id="path1111"
     inkscape:connector-curvature="0" />
  <path
     style="fill:#ffffff"
     d="m 415.51,382.49 c 1.85,-0.097 3.53,1.878 4.832,3.289 4.162,4.513 6.518,10.553 8.471,16.389 0.53,1.584 1.66,3.488 0.842,4.939 -0.635,1.126 -2.382,1.813 -3.6,1.395 -2.644,-0.909 -3.041,-4.732 -4.363,-7.211 -1.831,-3.432 -3.295,-7.05 -4.93,-10.58 -0.976,-2.107 -3.117,-4.01 -2.912,-6.328 0.066,-0.749 0.556,-1.695 1.287,-1.846 0.125,-0.026 0.25,-0.04 0.373,-0.047"
     id="path1113"
     inkscape:connector-curvature="0" />
  <path
     style="stroke:#ffffff;stroke-width:3;stroke-linecap:round;stroke-linejoin:round"
     inkscape:connector-curvature="0"
     id="path1117"
     d="m 343.10769,387.41555 a 39.18213,9.00523 71.06423 0 1 20.59766,34.25195 39.18213,9.00523 71.06423 0 1 4.19727,39.98438 39.18213,9.00523 71.06423 0 1 -21.23243,-34.13868 39.18213,9.00523 71.06423 0 1 -4.19726,-39.98437 39.18213,9.00523 71.06423 0 1 0.63476,-0.11328 z" />
  <path
     style="fill:#ffffff"
     d="m 407.69,390.34 c 1.851,0.09 3.324,2.224 4.477,3.76 3.684,4.911 5.417,11.159 6.77,17.16 0.367,1.629 1.299,3.639 0.338,5 -0.746,1.056 -2.553,1.563 -3.723,1.023 -2.539,-1.171 -2.544,-5.02 -3.609,-7.615 -1.474,-3.599 -2.567,-7.346 -3.836,-11.02 -0.758,-2.195 -2.696,-4.31 -2.258,-6.592 0.142,-0.738 0.724,-1.629 1.467,-1.705 0.127,-0.013 0.252,-0.016 0.375,-10e-4"
     id="path1119"
     inkscape:connector-curvature="0" />
  <path
     style="fill:#ffffff"
     d="m 397.39,397.02 c 2.096,0.102 3.763,2.509 5.068,4.242 4.173,5.541 6.136,12.59 7.668,19.363 0.416,1.838 1.472,4.106 0.383,5.643 -0.844,1.191 -2.892,1.763 -4.217,1.154 -2.875,-1.322 -2.882,-5.658 -4.088,-8.592 -1.67,-4.061 -2.908,-8.288 -4.346,-12.438 -0.858,-2.477 -3.051,-4.863 -2.555,-7.438 0.161,-0.833 0.819,-1.838 1.66,-1.924 0.144,-0.015 0.286,-0.019 0.426,-0.012"
     id="path1121"
     inkscape:connector-curvature="0" />
  <path
     style="fill:#ffffff"
     d="m 386.45,401.33 c 2.383,0.115 4.28,2.844 5.764,4.807 4.743,6.276 6.974,14.26 8.715,21.932 0.473,2.082 1.673,4.651 0.436,6.391 -0.96,1.35 -3.287,1.996 -4.793,1.307 -3.268,-1.497 -3.277,-6.407 -4.648,-9.73 -1.898,-4.6 -3.305,-9.389 -4.939,-14.09 -0.975,-2.806 -3.468,-5.508 -2.904,-8.424 0.182,-0.944 0.933,-2.081 1.889,-2.178 0.163,-0.016 0.324,-0.021 0.482,-0.014"
     id="path1123"
     inkscape:connector-curvature="0" />
</svg>
