<?xml version="1.0" encoding="UTF-8" standalone="no"?>
<!-- Created with Inkscape (http://www.inkscape.org/) -->

<svg
   xmlns:dc="http://purl.org/dc/elements/1.1/"
   xmlns:cc="http://creativecommons.org/ns#"
   xmlns:rdf="http://www.w3.org/1999/02/22-rdf-syntax-ns#"
   xmlns:svg="http://www.w3.org/2000/svg"
   xmlns="http://www.w3.org/2000/svg"
   xmlns:sodipodi="http://sodipodi.sourceforge.net/DTD/sodipodi-0.dtd"
   xmlns:inkscape="http://www.inkscape.org/namespaces/inkscape"
   width="175.11195mm"
   height="209.34419mm"
   viewBox="0 0 175.11195 209.34419"
   version="1.1"
   id="svg3318"
   inkscape:version="0.92.4 (5da689c313, 2019-01-14)"
   sodipodi:docname="DEU Teschenmoschel COA.svg">
  <defs
     id="defs3312">
    <inkscape:path-effect
       effect="spiro"
       id="path-effect823"
       is_visible="true" />
    <inkscape:path-effect
       effect="spiro"
       id="path-effect819"
       is_visible="true" />
    <inkscape:path-effect
       effect="spiro"
       id="path-effect3463"
       is_visible="true" />
  </defs>
  <sodipodi:namedview
     id="base"
     pagecolor="#ffffff"
     bordercolor="#666666"
     borderopacity="1.0"
     inkscape:pageopacity="0.0"
     inkscape:pageshadow="2"
     inkscape:zoom="0.69259941"
     inkscape:cx="330.92024"
     inkscape:cy="395.61106"
     inkscape:document-units="mm"
     inkscape:current-layer="layer1"
     showgrid="false"
     inkscape:window-width="1366"
     inkscape:window-height="745"
     inkscape:window-x="-8"
     inkscape:window-y="-8"
     inkscape:window-maximized="1"
     inkscape:snap-nodes="false"
     fit-margin-top="0"
     fit-margin-left="0"
     fit-margin-right="0"
     fit-margin-bottom="0" />
  <metadata
     id="metadata3315">
    <rdf:RDF>
      <cc:Work
         rdf:about="">
        <dc:format>image/svg+xml</dc:format>
        <dc:type
           rdf:resource="http://purl.org/dc/dcmitype/StillImage" />
        <dc:title />
      </cc:Work>
    </rdf:RDF>
  </metadata>
  <g
     inkscape:label="Ebene 1"
     inkscape:groupmode="layer"
     id="layer1"
     transform="translate(-9.5261979,-11.376928)">
    <path
       style="fill:#ffd700;fill-opacity:1;fill-rule:evenodd;stroke:none;stroke-width:2.96300864;stroke-opacity:1"
       inkscape:connector-curvature="0"
       d="m 183.14562,12.858431 -0.87301,117.661659 c -1.90502,49.49345 -39.54439,88.69182 -85.190445,88.71953 -45.60497,-0.0607 -83.25842,-39.27318 -85.19043,-88.71954 l -0.873,-117.661649 h 86.06139 z"
       id="path10563-0-6-7-6-8"
       sodipodi:nodetypes="ccccccc" />
    <path
       style="fill:#ff0000;fill-opacity:1;stroke:#000000;stroke-width:11;stroke-linecap:round;stroke-linejoin:round;stroke-miterlimit:4;stroke-dasharray:none;stroke-opacity:1"
       d="M 8.3359375 368.66016 L 8.9414062 450.30469 C 16.243491 637.18857 158.55468 785.39363 330.91992 785.62305 C 503.44044 785.51832 645.70032 637.36655 652.90039 450.30469 L 653.50586 368.66016 L 8.3359375 368.66016 z "
       id="rect904"
       transform="matrix(0.26458333,0,0,0.26458333,9.5261979,11.376928)" />
    <path
       style="fill:none;fill-rule:evenodd;stroke:#000000;stroke-width:2.9630084;stroke-opacity:1"
       inkscape:connector-curvature="0"
       d="m 183.14562,12.858432 -0.87301,117.661658 c -1.90502,49.49345 -39.54439,88.69182 -85.190445,88.71953 -45.60497,-0.0607 -83.25842,-39.27318 -85.19043,-88.71954 l -0.873,-117.661648 h 86.06139 z"
       id="path10563-0-6-7-6"
       sodipodi:nodetypes="ccccccc" />
    <path
       style="fill:#ffffff;fill-opacity:1;stroke:#000000;stroke-width:2.11666667;stroke-linecap:round;stroke-linejoin:round;stroke-miterlimit:4;stroke-dasharray:none;stroke-opacity:1"
       d="m 25.649246,117.93373 v 9.09453 H 60.54634 v -9.09453 z m 53.984818,0 v 9.09453 h 34.896576 v -9.09453 z m 53.984296,0 v 9.09453 h 34.8971 v -9.09453 z"
       id="rect995"
       inkscape:connector-curvature="0" />
    <path
       style="fill:#ffffff;stroke:#000000;stroke-width:2.11666667;stroke-linecap:butt;stroke-linejoin:round;stroke-miterlimit:4;stroke-dasharray:none;stroke-opacity:1"
       d="m 83.202555,150.47324 c -0.425348,-2.1854 -1.005522,-4.34046 -1.734896,-6.444 -0.397306,-1.14587 -0.847667,-2.29248 -1.575203,-3.26281 -0.363769,-0.48516 -0.795973,-0.92255 -1.297048,-1.26406 -0.501075,-0.34152 -1.072649,-0.58595 -1.671972,-0.67825 -0.433542,-0.0668 -0.875962,-0.0542 -1.310068,-0.11717 -0.217052,-0.0315 -0.432531,-0.0821 -0.633986,-0.1688 -0.201457,-0.0867 -0.388871,-0.21064 -0.534181,-0.37493 -0.224557,-0.25387 -0.338353,-0.6016 -0.311569,-0.93948 0.02678,-0.33788 0.192317,-0.66167 0.447825,-0.88436 0.255889,-0.22303 0.599511,-0.34283 0.938614,-0.32763 l 21.562504,-0.079 21.562075,0.079 c 0.3391,-0.0152 0.68272,0.1046 0.93861,0.32763 0.25551,0.22269 0.42104,0.54648 0.44783,0.88436 0.0268,0.33788 -0.087,0.68561 -0.31157,0.93948 -0.14532,0.16429 -0.33273,0.28821 -0.53419,0.37493 -0.20145,0.0867 -0.41693,0.1373 -0.63398,0.1688 -0.43411,0.063 -0.87653,0.0504 -1.31007,0.11717 -0.59932,0.0923 -1.1709,0.33673 -1.67197,0.67825 -0.50107,0.34151 -0.93328,0.7789 -1.29705,1.26406 -0.72754,0.97033 -1.1779,2.11694 -1.5752,3.26281 -0.72938,2.10354 -1.30955,4.2586 -1.7349,6.444 H 97.082575 Z"
       id="path1499"
       inkscape:connector-curvature="0" />
    <path
       style="fill:#ffffff;fill-rule:evenodd;stroke:#000000;stroke-width:2.11666667;stroke-linejoin:round;stroke-miterlimit:4;stroke-dasharray:none"
       inkscape:connector-curvature="0"
       id="path116"
       d="m 93.590555,135.15964 c -2.132142,0.90371 -3.104316,3.36133 -4.733292,4.96645 -1.158806,1.14182 -2.187332,2.47753 -3.582283,3.31462 -4.753295,2.85239 -10.340449,4.07754 -15.709409,5.45747 -2.125288,0.54624 -4.321778,0.76521 -6.489533,1.1059 -2.289939,0.35989 -4.786675,-0.18848 -6.883178,0.99094 -1.245694,0.7008 -2.465711,1.87977 -3.014805,3.40806 -0.81286,2.26242 -0.01033,7.40542 -0.01033,7.40542 0,0 -2.400703,1.06995 -3.020479,2.11173 -0.560887,0.94321 -0.550245,2.18078 -0.335255,3.24902 0.229534,1.1414 1.678043,3.08656 1.678043,3.08656 0,0 -1.256936,4.03009 -0.83902,6.01096 0.612326,2.90279 2.769305,5.33604 4.698524,7.63566 1.198045,1.42787 4.194758,3.73677 4.194758,3.73677 0,0 -1.637957,1.84141 -1.510594,2.92442 0.188735,1.60511 1.943765,2.66029 3.187928,3.73677 1.145187,0.9906 2.362036,2.10624 3.859504,2.43668 1.264743,0.27924 3.859504,-0.48707 3.859504,-0.48707 l 4.697815,3.41149 c 0,0 1.027763,2.33156 2.013655,3.08655 1.484342,1.13694 3.544825,1.29974 5.367617,1.78714 1.046913,0.2796 3.188638,0.65023 3.188638,0.65023 l 1.677691,-2.27491 4.027309,0.48775 0.335252,2.5988 6.832091,0.50252 6.832094,-0.50252 0.33596,-2.5988 4.02731,-0.48775 1.67769,2.27491 c 0,0 2.14279,-0.37028 3.18793,-0.65023 1.82456,-0.4874 3.88575,-0.6502 5.37116,-1.78714 0.9859,-0.75499 2.01365,-3.08655 2.01365,-3.08655 l 4.69782,-3.41149 c 0,0 2.59441,0.76631 3.8595,0.48707 1.49747,-0.33044 2.71397,-1.44608 3.85951,-2.43668 1.24452,-1.07614 2.9992,-2.13166 3.18792,-3.73677 0.12737,-1.08266 -1.51059,-2.92442 -1.51059,-2.92442 0,0 2.99707,-2.3089 4.19476,-3.73677 1.92921,-2.29962 4.0862,-4.73321 4.69853,-7.63566 0.41791,-1.98087 -0.83903,-6.01096 -0.83903,-6.01096 0,0 1.44851,-1.9455 1.67805,-3.08656 0.21499,-1.06824 0.22492,-2.30581 -0.33596,-3.24902 -0.61978,-1.04213 -3.02048,-2.11173 -3.02048,-2.11173 0,0 0.80331,-5.143 -0.009,-7.40542 -0.54916,-1.52848 -1.76964,-2.70725 -3.01552,-3.40806 -2.09634,-1.17916 -4.58789,-0.66355 -6.88247,-0.99094 -2.60705,-0.37197 -5.27206,-0.45022 -7.82259,-1.1059 -4.96426,-1.27621 -10.0189,-2.75778 -14.37599,-5.45747 -1.3829,-0.85686 -2.42348,-2.1728 -3.58229,-3.31462 -1.62898,-1.60512 -2.60221,-4.06274 -4.73329,-4.96645 -2.132147,-0.90405 -4.850365,-0.90405 -6.982512,0 z"
       sodipodi:nodetypes="caaaaaacccccccccccccccccccccccccccccccccccccaaaaaaccc" />
    <path
       style="fill:none;fill-rule:evenodd;stroke:#000000;stroke-width:2.11666667;stroke-linecap:round;stroke-miterlimit:4;stroke-dasharray:none"
       d="m 53.168475,161.81055 c 1.59042,-0.16899 3.159195,-0.52759 4.658083,-1.06549 2.039552,-0.73127 3.951387,-1.7947 5.631208,-3.13188"
       id="path128"
       inkscape:connector-curvature="0" />
    <path
       style="fill:none;fill-rule:evenodd;stroke:#000000;stroke-width:2.11666667;stroke-linecap:round;stroke-miterlimit:4;stroke-dasharray:none"
       d="m 51.490433,170.25683 c 2.46669,-0.55403 4.828724,-1.54189 6.936035,-2.90107 2.318398,-1.49519 4.326377,-3.43827 5.870675,-5.68397"
       id="path130"
       inkscape:connector-curvature="0" />
    <path
       style="fill-rule:evenodd;stroke-width:0.22217706"
       d="m 115.63148,146.81831 c 3.45578,4.69783 6.47413,7.07837 11.60654,10.00864 4.23626,2.41812 10.45106,5.37208 15.28333,6.25415 l -1.876,-3.35137 c -4.32602,-1.13933 -8.5215,-2.73791 -12.49132,-4.75727 -5.10403,-2.59708 -8.36113,-4.28926 -12.52255,-8.15415 m -3.30004,-0.23097 c 1.28213,1.67688 2.61534,3.31736 3.99751,4.918 4.43884,5.14231 9.38676,9.87999 14.82249,14.02926 3.85525,2.94265 7.95316,5.58782 12.24157,7.90015 l -0.99902,-2.741 c -4.0344,-2.24948 -7.8829,-4.81565 -11.49195,-7.66004 -4.31324,-3.40016 -8.27705,-7.19085 -12.32458,-10.88433 -2.05871,-1.87852 -4.14119,-3.73334 -6.24566,-5.56342 m 0.72905,8.70664 c 3.28584,4.6652 6.72246,9.23114 10.30241,13.68853 4.49063,5.58952 9.20831,11.00868 14.13815,16.23993 l 1.07813,-1.04384 c -4.64744,-5.05781 -9.24166,-10.16199 -13.77841,-15.31185 -3.956,-4.48933 -7.86872,-9.01302 -11.74277,-13.57243 m -9.14552,3.948 c 2.95804,6.02953 5.9175,12.05975 8.8798,18.08651 3.32771,6.77558 6.65684,13.55115 9.98667,20.32397 l 2.12719,-1.07476 c -2.81047,-6.13943 -5.86536,-12.17445 -9.15546,-18.08651 -3.65977,-6.57772 -7.61045,-13.00123 -11.83749,-19.24885 z m -30.751148,5.56411 c -2.513169,3.22085 -5.193427,6.31943 -8.027302,9.28095 -3.169482,3.31119 -6.530892,6.44925 -10.063658,9.39566 l 1.078137,0.92844 c 3.620036,-3.14459 6.987835,-6.56055 10.063658,-10.208 2.518129,-2.98591 4.840786,-6.12639 6.949165,-9.39601 m 1.557778,0.81164 c -2.862967,3.57636 -5.697548,7.17264 -8.506943,10.78816 -2.66004,3.42385 -5.295597,6.86522 -7.90739,10.32514 l 1.238136,0.91229 c 3.327355,-4.15616 6.472358,-8.44766 9.424723,-12.86039 2.007269,-3.00033 3.923717,-6.05666 5.751121,-9.16416 m 42.419413,0.42936 c 1.95582,3.80579 4.11706,7.51405 6.47307,11.1014 3.47635,5.29447 7.3763,10.32858 11.65265,15.0422 l 1.01711,-1.43233 -0.27778,-1.52232 c -0.36682,-0.44996 -0.73649,-0.89752 -1.10935,-1.34301 -3.59591,-4.29632 -7.46074,-8.3793 -11.00485,-12.7158 -2.40142,-2.93576 -4.65454,-5.98453 -6.75121,-9.13256 m -11.28263,3.85012 c 2.06545,4.27054 4.06917,8.56821 6.0108,12.89269 2.71148,6.03913 5.30163,12.12841 7.76797,18.26649 l 1.11006,-1.79059 c -2.16691,-5.3508 -4.57471,-10.61057 -7.21382,-15.75872 -2.37374,-4.63119 -4.93479,-9.17206 -7.67537,-13.60918 m -25.98663,2.68536 c -2.663233,3.85045 -5.133116,7.82629 -7.398301,11.9086 -2.199907,3.96449 -4.206465,8.02997 -6.010803,12.17755 l 1.941632,-0.35826 c 1.619864,-3.60074 3.285137,-7.18295 4.995112,-10.74419 2.091348,-4.35813 4.249391,-8.68707 6.473069,-12.98336 m 10.450351,3.58185 c -1.384299,3.95384 -2.618531,7.9551 -3.6995,11.99791 -1.499603,5.60635 -2.703678,11.28758 -3.606557,17.01277 l 1.387137,-0.09 1.479376,-2.05884 c 0.312547,-4.25542 0.806735,-8.49814 1.480084,-12.71579 0.759556,-4.75656 1.747579,-9.47947 2.95946,-14.14811 m -8.970267,3.49187 c -1.896581,3.33454 -3.596265,6.77453 -5.086639,10.2973 -1.30164,3.07591 -2.443986,6.21364 -3.421723,9.40152 l 1.109355,1.07407 c 0.987312,-3.68387 2.128598,-7.32927 3.422076,-10.92383 1.197335,-3.32973 2.524166,-6.61585 3.976575,-9.84906 m 9.709603,0.5372 c -0.128427,4.15273 -0.374635,8.30545 -0.739335,12.44444 -0.313615,3.56021 -0.713079,7.11287 -1.202303,10.65487 l 1.479376,2.59641 c 0.614812,-4.3918 0.954677,-8.8193 1.017117,-13.25094 0.05853,-4.15273 -0.127005,-8.31232 -0.554855,-12.44443 m 8.599536,0.44756 c 0.725144,4.23894 1.218974,8.51497 1.479374,12.80508 0.25508,4.20288 0.28666,8.41846 0.093,12.62443 l 2.21942,-0.44756 c 0.067,-3.76906 -0.14971,-7.54327 -0.6478,-11.28209 -0.61872,-4.64562 -1.67202,-9.23698 -3.143589,-13.69918 m 2.219419,0.26895 c 0.74926,3.19131 1.48895,6.38502 2.21942,9.5808 0.94048,4.11529 1.86536,8.23401 2.77427,12.35616 l 1.66421,0.71583 c -0.48142,-3.47263 -1.19201,-6.91434 -2.12647,-10.29663 -1.16754,-4.22691 -2.68452,-8.36282 -4.53143,-12.35616"
       id="path136"
       inkscape:connector-curvature="0"
       sodipodi:nodetypes="cccccccccccccccccccccccccccccccccccccccccccccccccccccccccccccccccccccccccccccccccccccccccc" />
    <path
       style="fill:#ff0000;fill-rule:evenodd;stroke:#000000;stroke-width:1.14304352;stroke-linejoin:round"
       inkscape:connector-curvature="0"
       id="path14"
       d="m 49.36278,56.441249 c -0.84653,-0.727431 -1.98935,-1.099381 -3.10176,-1.009988 -1.29804,0.104471 -2.46898,0.794187 -3.5567,1.510411 -1.08771,0.716233 -2.17704,1.491903 -3.44056,1.807838 -0.85499,0.213753 -1.76189,0.204154 -2.61871,-0.0035 -0.85659,-0.207343 -1.66267,-0.610156 -2.35879,-1.149901 -1.56162,-1.213226 -2.54213,-3.144742 -2.59676,-5.121514 0.92975,0.625466 1.92214,1.158125 2.95751,1.586997 1.21277,0.50248 2.51241,0.865737 3.82325,0.793495 1.04246,-0.05763 2.04834,-0.38726 3.03638,-0.724683 0.98805,-0.337432 1.98387,-0.688109 3.0229,-0.790074 1.40045,-0.137623 2.84297,0.197294 4.03951,0.937755 l 0.7935,2.164001 z" />
    <path
       style="fill:#ffffff;fill-rule:evenodd;stroke:#000000;stroke-width:1.14304352;stroke-linejoin:round"
       inkscape:connector-curvature="0"
       id="path16"
       d="m 47.61393,45.58691 c -0.16849,-1.676158 -0.10128,-3.375864 0.19865,-5.033962 0.2956,-1.633638 0.83489,-3.259732 1.85448,-4.569888 0.43299,-0.556663 0.94804,-1.049314 1.52322,-1.457152 -1.10898,-0.122306 -2.25226,0.08779 -3.24533,0.595983 -1.49968,0.767668 -2.60957,2.189614 -3.17903,3.775244 -0.47871,1.33256 -0.59873,2.761592 -0.72858,4.172565 -0.10173,1.104638 -0.21215,2.208589 -0.33126,3.311626 l 3.90693,-0.794873 z" />
    <path
       inkscape:connector-curvature="0"
       style="fill-rule:evenodd;stroke-width:0.22860868"
       d="m 72.409006,29.577348 -0.0062,5.29e-4 c -0.121171,-0.0048 -0.242059,-0.0032 -0.362768,0.0041 -0.482592,0.02926 -0.955645,0.145791 -1.419037,0.283186 -1.00679,0.298791 -1.989976,0.702996 -2.862357,1.287777 -0.872369,0.583867 -1.632649,1.356255 -2.116148,2.288748 -0.47153,0.907579 -0.667666,1.957824 -0.556557,2.976046 -0.5985,-0.123677 -1.22207,-0.123677 -1.820561,0 -0.46133,0.0951 -0.908909,0.264523 -1.311031,0.510048 -0.750988,0.458589 -1.317935,1.166037 -1.779736,1.915644 -0.46087,0.750067 -0.828344,1.552895 -1.278474,2.308903 -0.64171,1.078118 -1.487252,2.086832 -2.622064,2.621547 -0.593468,0.278902 -1.243483,0.419285 -1.893424,0.510045 -2.4916,0.34817 -5.02621,0.01225 -7.50135,-0.437182 -1.049549,-0.190434 -2.096048,-0.401502 -3.132109,-0.655259 -0.570608,-0.139679 -1.141206,-0.293637 -1.674315,-0.540533 -0.531981,-0.247126 -1.028972,-0.592558 -1.382863,-1.061434 -0.152019,-0.201406 -0.275534,-0.422876 -0.419095,-0.630455 -0.14357,-0.207576 -0.311872,-0.405516 -0.528132,-0.535366 -0.236841,-0.142419 -0.520165,-0.194529 -0.796335,-0.182419 -0.276159,0.01212 -0.546626,0.08595 -0.805635,0.182419 -0.382921,0.142651 -0.756216,0.343493 -1.019577,0.655773 -0.30199,0.357772 -0.43385,0.83503 -0.451652,1.302763 -0.01783,0.468191 0.0692,0.932143 0.160198,1.391648 0.326458,1.646896 0.712366,3.284738 1.238168,4.879287 0.238209,0.721487 0.509598,1.443648 0.942578,2.069123 0.43299,0.625475 1.046535,1.153012 1.781286,1.350307 0.673719,0.180827 1.38897,0.07374 2.082559,0.148312 1.138941,0.122528 2.172859,0.730469 3.058729,1.456759 0.693359,0.56855 1.322938,1.220798 1.821077,1.966288 0.197519,0.295595 0.376502,0.612095 0.443902,0.961181 0.0337,0.174432 0.0385,0.355994 0.0031,0.530201 -0.03497,0.174196 -0.111141,0.341169 -0.228412,0.474906 -0.18769,0.214201 -0.468175,0.329988 -0.749824,0.37207 -0.281871,0.04223 -0.56896,0.01765 -0.852662,-0.0078 -0.753038,-0.06744 -1.505106,-0.140401 -2.257226,-0.218591 0.164369,0.90963 0.459618,1.795648 0.87385,2.622063 0.612899,1.220544 1.527876,2.342391 2.768306,2.912999 1.146019,0.527166 2.465382,0.540348 3.714501,0.364318 1.482529,-0.208949 2.947456,-0.6707 4.442106,-0.582909 1.831609,0.108133 3.502067,1.024567 5.243607,1.602486 1.892652,0.627989 3.936103,0.859359 5.899383,0.510045 1.8874,-0.335833 3.707622,-1.236855 4.952153,-2.694924 1.098238,-1.287068 1.705997,-2.96922 1.747695,-4.660698 0.01942,-0.785493 -0.0793,-1.573911 -0.291455,-2.330607 0.279591,0.172374 0.527918,0.395846 0.728639,0.655773 0.2965,0.384064 0.48681,0.843454 0.58601,1.318268 0.0995,0.475054 0.109646,0.965491 0.06925,1.449006 -0.193871,2.311234 -1.597428,4.45819 -3.568258,5.68079 -1.51751,0.941408 -3.315706,1.352687 -5.098397,1.456242 -0.630499,0.03655 -1.262398,0.03655 -1.892908,0 0.25628,0.589124 0.574082,1.15183 0.946713,1.67535 0.52946,0.744117 1.169874,1.408935 1.893425,1.966288 -0.360291,0.244843 -0.753354,0.441113 -1.165305,0.582393 -0.977299,0.33491 -2.029595,0.353023 -3.059245,0.437184 -2.7936,0.228156 -5.521372,0.96583 -8.302852,1.311029 -1.35291,0.167796 -2.715794,0.24221 -4.078303,0.290939 -0.51689,0.01852 -1.045147,0.03548 -1.529107,0.21859 -0.589349,0.223121 -1.060061,0.67151 -1.529622,1.091925 -1.064631,0.952159 -2.231655,1.826295 -3.568774,2.330606 -0.38521,0.145167 -0.781976,0.259234 -1.161685,0.418579 -0.379722,0.159337 -0.746286,0.368668 -1.022678,0.673862 -0.201859,0.222896 -0.351713,0.495218 -0.419613,0.788064 -0.06792,0.293074 -0.05214,0.606044 0.0553,0.88677 0.128939,0.33674 0.384484,0.615487 0.684197,0.815969 0.300389,0.200491 0.642686,0.327547 0.990637,0.422196 1.04336,0.283707 2.162061,0.283707 3.204972,0 -0.0722,0.115679 -0.09863,0.259522 -0.07183,0.393258 0.02675,0.133961 0.106219,0.25649 0.217559,0.335381 0.133961,0.09465 0.305771,0.124058 0.469222,0.112138 0.163701,-0.01167 0.32158,-0.06142 0.477491,-0.112138 0.798068,-0.259011 1.584886,-0.561801 2.330606,-0.94723 0.964729,-0.498824 1.853637,-1.134732 2.694927,-1.820561 0.41333,-0.336965 0.82282,-0.691718 1.307931,-0.914156 0.42681,-0.195916 0.898832,-0.281419 1.36839,-0.295587 0.469559,-0.01394 0.938372,0.04144 1.401982,0.117821 1.576491,0.259702 3.139242,0.762019 4.73356,0.655257 1.498291,-0.100357 2.907702,-0.733841 4.224033,-1.45624 1.469949,-0.80631 2.896926,-1.746867 4.515485,-2.184882 1.2338,-0.334002 2.528131,-0.361164 3.786849,-0.582909 1.218031,-0.21467 2.3954,-0.610073 3.571359,-0.993222 0.433681,-0.141279 0.876597,-0.285186 1.244886,-0.554487 0.184028,-0.134652 0.34752,-0.300408 0.464571,-0.496094 0.117078,-0.195921 0.186383,-0.422457 0.181383,-0.650608 -0.0071,-0.309763 -0.147884,-0.599059 -0.291455,-0.873847 -0.3532,-0.675762 -0.742153,-1.332648 -1.165304,-1.966804 0.378111,0.19363 0.743582,0.413221 1.092441,0.655772 0.243461,0.16963 0.480687,0.351481 0.685747,0.566376 0.20529,0.215119 0.37846,0.465071 0.479041,0.744656 0.149519,0.415843 0.130532,0.882113 -0.01188,1.300697 -0.142427,0.418357 -0.402574,0.79066 -0.716235,1.102257 -0.866428,0.860483 -2.090158,1.243118 -3.277319,1.529106 -1.935398,0.466363 -3.914437,0.755965 -5.826517,1.311032 -2.88001,0.836022 -5.549267,2.255456 -8.241358,3.577042 -3.27048,1.605523 -6.607606,3.079935 -9.819555,4.798155 -0.5178,0.276847 -1.032555,0.56043 -1.529106,0.87385 -0.952379,0.601919 -1.833695,1.310934 -2.656684,2.079977 -0.628452,0.587293 -1.228016,1.212911 -1.931665,1.707388 -0.533342,0.374915 -1.122484,0.670385 -1.742014,0.87385 -0.0846,0.226549 -0.09584,0.479732 -0.03204,0.713134 0.06378,0.233185 0.202237,0.445643 0.390157,0.597895 0.198199,0.160253 0.446619,0.252005 0.699698,0.282154 0.253061,0.03019 0.51062,2.01e-4 0.757061,-0.06408 0.570148,-0.148371 1.089617,-0.484929 1.456758,-0.946711 -0.0556,0.312505 -0.0556,0.634423 0,0.946711 0.04618,0.259919 0.133255,0.517406 0.291455,0.728638 0.152029,0.203005 0.365355,0.356108 0.599445,0.453719 0.23409,0.0976 0.488535,0.141795 0.742074,0.147796 0.50727,0.01236 1.004586,-0.121754 1.498616,-0.237197 1.46172,-0.342003 2.954613,-0.529296 4.442624,-0.728638 0.629359,-0.08436 1.262007,-0.171302 1.867585,-0.361733 0.605581,-0.190434 1.188485,-0.491559 1.628326,-0.94878 0.509338,-0.530146 0.795808,-1.233784 1.238168,-1.821077 0.351819,-0.467048 0.797406,-0.853871 1.238168,-1.238168 0.832818,-0.725834 1.679487,-1.46726 2.691307,-1.910995 1.271291,-0.557345 2.698313,-0.601509 4.081404,-0.710549 3.86828,-0.304972 7.700396,-1.182685 11.579656,-1.091925 2.147999,0.05006 4.313555,0.407286 6.262666,1.310515 1.178931,0.546148 2.266829,1.287587 3.205488,2.184879 -0.57518,-1.985243 -0.276444,-4.207041 0.800987,-5.971212 1.150358,-1.88351 3.060088,-3.156622 4.538739,-4.795054 1.521841,-1.685303 2.582251,-3.77308 3.107822,-5.982581 0.3283,-1.379881 0.451935,-2.808269 0.364834,-4.224033 0.17622,1.180073 0.248976,2.375371 0.218075,3.568258 -0.03749,1.448694 -0.237398,2.922336 -0.873847,4.224033 -0.662512,1.354736 -1.754971,2.443218 -2.836522,3.49436 -1.081547,1.050684 -2.190874,2.116151 -2.899563,3.447333 -0.611071,1.14762 -0.897654,2.465779 -0.818555,3.763595 0.985531,-1.00565 2.117985,-1.866966 3.350184,-2.548681 2.3389,-1.294384 4.995989,-1.920767 7.651728,-2.231906 2.65529,-0.310904 5.33556,-0.320543 8.00571,-0.462502 5.23422,-0.27822 10.44398,-1.066792 15.51223,-2.403473 2.41937,-0.637812 4.80584,-1.400175 7.14634,-2.283063 -1.6277,-0.655198 -3.2403,-1.353002 -4.83279,-2.091862 -1.87504,-0.870085 -3.7633,-1.826016 -5.19348,-3.318145 -1.4384,-1.500819 -2.33292,-3.492645 -2.59674,-5.554699 -0.13488,-1.053655 -0.1106,-2.127628 0.0718,-3.173965 -0.0601,1.624488 0.34142,3.263907 1.14567,4.676716 0.74275,1.305349 1.80871,2.398004 2.95176,3.369818 2.55561,2.170647 5.53612,3.790331 8.59947,5.154208 3.00598,1.337821 6.10939,2.444297 9.16017,3.67833 2.74856,1.111493 5.50323,2.357977 7.71891,4.327901 1.17367,1.043598 2.17118,2.269548 3.10162,3.534666 0.4451,0.605129 0.87931,1.226497 1.17925,1.914612 0.29994,0.688568 0.46049,1.455846 0.3359,2.196767 -0.0828,0.492879 -0.29032,0.961768 -0.57723,1.370976 -0.37446,0.534257 -0.87536,0.963221 -1.3472,1.413348 -0.47185,0.450128 -0.92847,0.941255 -1.17719,1.544093 -0.14334,0.347257 -0.21298,0.726077 -0.19172,1.101225 0.0215,0.374464 0.13472,0.745148 0.33589,1.062468 0.131,0.206198 0.30053,0.391777 0.50902,0.519348 0.20849,0.12758 0.45743,0.195514 0.70021,0.166915 0.19432,-0.02286 0.37756,-0.10578 0.54467,-0.20774 0.16712,-0.10196 0.32075,-0.222959 0.48215,-0.33383 0.24872,-0.171 0.5153,-0.316976 0.79375,-0.433565 -0.12323,0.245071 -0.12323,0.548691 0,0.79375 0.10835,0.21535 0.30027,0.37732 0.50487,0.504878 0.66297,0.413552 1.467,0.510966 2.23604,0.649057 0.36326,0.06513 0.7268,0.142529 1.09554,0.15503 0.36875,0.01257 0.74839,-0.04299 1.06867,-0.226343 0.24164,-0.1383 0.43954,-0.344302 0.60048,-0.571542 0.16094,-0.22747 0.28749,-0.476996 0.4098,-0.727088 0.32439,-0.662509 0.63756,-1.349595 1.15445,-1.875854 0.56489,-0.57518 1.35784,-0.918916 2.16369,-0.937926 -0.89706,-1.854245 -1.6921,-3.757256 -2.38022,-5.698361 -0.42567,-1.199972 -0.8123,-2.420294 -1.01027,-3.67833 -0.15866,-1.009303 -0.20675,-2.075069 -0.72089,-2.957957 -0.26496,-0.454932 -0.64214,-0.836424 -1.0573,-1.160137 -0.41515,-0.32371 -0.86987,-0.592883 -1.32343,-0.859896 -1.03537,-0.609473 -2.07741,-1.215448 -3.02979,-1.947685 -2.49252,-1.916194 -4.27626,-4.629174 -5.55418,-7.501866 -1.14487,-2.573451 -1.92264,-5.336587 -2.02003,-8.151442 -0.0144,-0.414393 0.0528,-0.832808 0.0941,-1.248502 1.49391,0.291483 3.03204,0.356097 4.54339,0.174667 2.5696,-0.30847 5.10418,-1.351391 6.90397,-3.211174 1.81699,-1.877552 2.78553,-4.535577 2.64893,-7.144782 -0.13955,-2.665658 -1.4241,-5.247785 -3.45198,-6.983555 -1.26699,-1.084477 -2.80789,-1.843781 -4.43694,-2.200899 -0.81453,-0.178557 -1.65048,-0.256866 -2.48409,-0.237194 -0.83361,0.01966 -1.66502,0.137657 -2.47116,0.350882 -1.33609,0.353396 -2.62032,0.980025 -3.60857,1.946135 -0.98825,0.96611 -1.6597,2.291456 -1.68982,3.67316 -0.0207,0.95145 0.25994,1.898142 0.73846,2.720766 0.47851,0.822622 1.14989,1.524159 1.91099,2.095479 1.62511,1.21988 3.66738,1.846567 5.6994,1.846397 0.94726,-7.6e-5 1.89978,-0.133061 2.79001,-0.456819 0.89022,-0.323757 1.7172,-0.842782 2.34766,-1.549775 0.61182,-0.686102 1.03526,-1.569498 1.04334,-2.488737 0.005,-0.525222 -0.12675,-1.050946 -0.37827,-1.512052 -0.25151,-0.461107 -0.62251,-0.856411 -1.0666,-1.136882 -0.23516,0.943147 -0.74234,1.816451 -1.44487,2.488221 -1.01867,0.974066 -2.44476,1.502883 -3.853,1.444873 -0.98691,-0.04066 -1.97643,-0.370625 -2.72645,-1.013375 -0.375,-0.321376 -0.68701,-0.717772 -0.89917,-1.163754 -0.21216,-0.445982 -0.32308,-0.941411 -0.30799,-1.435055 0.03,-0.979998 0.56324,-1.906177 1.32085,-2.528528 0.75762,-0.62235 1.72022,-0.960127 2.69286,-1.083654 1.87515,-0.238148 3.84402,0.317609 5.29839,1.524971 1.13536,0.942539 1.9606,2.302727 2.08721,3.772895 0.12883,1.495978 -0.4829,3.0138 -1.52549,4.094324 -0.77403,0.802193 -1.76672,1.374362 -2.81998,1.739429 -1.05327,0.365072 -2.16776,0.529648 -3.28094,0.588595 -2.01108,0.106497 -4.03925,-0.130112 -5.97276,-0.692981 -0.12611,-0.144661 -0.25564,-0.285819 -0.39326,-0.419613 -0.15491,-0.150604 -0.40904,-0.148222 -0.5917,-0.264584 -0.18265,-0.1159 -0.34512,-0.268959 -0.45165,-0.457334 -0.11339,-0.200258 -0.15892,-0.430448 -0.23254,-0.648539 -0.0368,-0.109051 -0.0807,-0.215943 -0.14314,-0.312642 -0.0622,-0.09669 -0.14373,-0.182666 -0.2434,-0.240298 -0.11088,-0.06421 -0.24095,-0.09043 -0.36897,-0.09043 -0.12802,1.7e-4 -0.25483,0.02609 -0.37827,0.05994 -0.24713,0.0679 -0.48913,0.170217 -0.74518,0.176216 -0.25901,0.0057 -0.52335,-0.09697 -0.69298,-0.291971 -0.15957,-0.18334 -0.22571,-0.428363 -0.26458,-0.668176 -0.0389,-0.239805 -0.0554,-0.486595 -0.13591,-0.715203 -0.0466,-0.132593 -0.11541,-0.259535 -0.21394,-0.359667 -0.0985,-0.100134 -0.22906,-0.172381 -0.36897,-0.186552 -0.10836,-0.01098 -0.21746,0.01307 -0.31988,0.05013 -0.10264,0.03704 -0.19947,0.08745 -0.29869,0.132292 -0.27364,0.123936 -0.57985,0.207248 -0.87384,0.145727 -0.27113,-0.0567 -0.50986,-0.237434 -0.65526,-0.473355 -0.1822,-0.299477 -0.21991,-0.67055 -0.18242,-1.020093 0.0176,-0.163685 0.0503,-0.326039 0.0475,-0.490408 -0.001,-0.08207 -0.012,-0.164471 -0.0367,-0.24288 -0.0247,-0.07841 -0.0641,-0.153075 -0.11989,-0.213423 -0.0551,-0.05945 -0.12478,-0.104122 -0.19998,-0.133842 -0.0752,-0.02972 -0.15627,-0.04416 -0.2372,-0.04806 -0.16437,-0.008 -0.32784,0.02924 -0.48421,0.08113 -0.15613,0.0519 -0.30728,0.118542 -0.4625,0.173633 -0.32668,0.115679 -0.68826,0.177337 -1.01906,0.07286 -0.17466,-0.05532 -0.33557,-0.156337 -0.46199,-0.289388 -0.12642,-0.133051 -0.21864,-0.297733 -0.26665,-0.474906 -0.0466,-0.171913 -0.0516,-0.352631 -0.0605,-0.530717 -0.009,-0.178086 -0.0226,-0.358439 -0.0848,-0.52555 -0.0523,-0.140594 -0.14062,-0.270264 -0.26407,-0.355534 -0.0615,-0.04276 -0.13177,-0.07402 -0.20515,-0.08888 -0.0736,-0.01484 -0.15049,-0.01289 -0.22273,0.0072 -0.0798,0.02217 -0.15204,0.06651 -0.21445,0.120923 -0.0626,0.05464 -0.11569,0.119274 -0.16485,0.186034 -0.0983,0.133508 -0.18485,0.27937 -0.31264,0.384989 -0.13214,0.109506 -0.30034,0.167553 -0.46974,0.194305 -0.1694,0.0268 -0.34169,0.02429 -0.51315,0.02429 -0.15751,0 -0.3159,0.0021 -0.47181,-0.02016 -0.15591,-0.02217 -0.31094,-0.07036 -0.43873,-0.162264 -0.16871,-0.121163 -0.27852,-0.311277 -0.3359,-0.51108 -0.0572,-0.199575 -0.0667,-0.409728 -0.0651,-0.617535 7.9e-4,-0.13785 0.007,-0.27704 -0.0196,-0.412377 -0.0263,-0.135337 -0.0887,-0.268993 -0.19844,-0.352432 -0.0674,-0.05121 -0.15025,-0.08089 -0.23461,-0.09095 -0.0844,-0.01005 -0.1704,-5.29e-4 -0.2527,0.02066 -0.16437,0.04252 -0.31195,0.131649 -0.4594,0.216008 -0.26519,0.151567 -0.54094,0.291399 -0.83768,0.364318 -0.34885,0.08573 -0.72746,0.07322 -1.05575,-0.07286 -0.25421,-0.11316 -0.47189,-0.302922 -0.62735,-0.533816 -0.15545,-0.230669 -0.2498,-0.500538 -0.28319,-0.776697 -0.0394,-0.325768 0.004,-0.657635 -0.0367,-0.983403 -0.0201,-0.161626 -0.0626,-0.325189 -0.16071,-0.455269 -0.0491,-0.06515 -0.11156,-0.121044 -0.18448,-0.157615 -0.0729,-0.03658 -0.15598,-0.05341 -0.23668,-0.04289 -0.0928,0.01188 -0.17827,0.05931 -0.2496,0.119888 -0.0713,0.06058 -0.13021,0.1339 -0.18759,0.20774 -0.14242,0.182431 -0.28154,0.370981 -0.4594,0.519348 -0.0889,0.0743 -0.18756,0.137779 -0.29455,0.181901 -0.10699,0.04412 -0.22281,0.06856 -0.33849,0.06356 -0.13327,-0.006 -0.26288,-0.05124 -0.37878,-0.117305 -0.11591,-0.06607 -0.21822,-0.152824 -0.31265,-0.247013 -0.11819,-0.117962 -0.22527,-0.248846 -0.30437,-0.39584 -0.0791,-0.146997 -0.12961,-0.311124 -0.13281,-0.47801 -0.003,-0.153395 0.0335,-0.304784 0.0661,-0.454752 0.0325,-0.149966 0.0614,-0.30353 0.0429,-0.455785 -0.0274,-0.225636 -0.16566,-0.435515 -0.36432,-0.545703 -0.12779,-0.07087 -0.27686,-0.100367 -0.42271,-0.09147 -0.14562,0.0092 -0.28809,0.0554 -0.41496,0.127643 -0.23982,0.136707 -0.41717,0.357388 -0.61857,0.546219 -0.2453,0.229751 -0.54191,0.420087 -0.87385,0.473355 -0.21215,0.03406 -0.43624,0.0092 -0.62942,-0.08475 -0.19317,-0.09419 -0.35347,-0.259609 -0.42685,-0.461471 -0.0565,-0.155225 -0.0611,-0.324321 -0.0579,-0.489376 0.003,-0.165055 0.0143,-0.331486 -0.0145,-0.494027 -0.0251,-0.14265 -0.0814,-0.279937 -0.16846,-0.39584 -0.0871,-0.115904 -0.20579,-0.209127 -0.34158,-0.259416 -0.17191,-0.06356 -0.36706,-0.05595 -0.53692,0.01241 -0.16986,0.06836 -0.31429,0.195779 -0.41031,0.351917 -0.0613,0.0999 -0.10323,0.209847 -0.14986,0.317294 -0.0466,0.107447 -0.0994,0.214175 -0.17777,0.301273 -0.08,0.0887 -0.18554,0.154035 -0.30076,0.186037 -0.11544,0.03179 -0.23997,0.03015 -0.3545,-0.0041 -0.13533,-0.03978 -0.25457,-0.124391 -0.35036,-0.228409 -0.0958,-0.104016 -0.16939,-0.226301 -0.23203,-0.352949 -0.14837,-0.299937 -0.23802,-0.624375 -0.32763,-0.946714 -0.0462,-0.166883 -0.0938,-0.335737 -0.17725,-0.487307 -0.0834,-0.151569 -0.2078,-0.287046 -0.36897,-0.350366 -0.12345,-0.04847 -0.2614,-0.05179 -0.39171,-0.02687 -0.1303,0.02492 -0.25422,0.07722 -0.3731,0.136427 -0.2677,0.133279 -0.51803,0.305853 -0.8015,0.400492 -0.13808,0.04596 -0.28352,0.07311 -0.42892,0.06511 -0.14539,-0.008 -0.29074,-0.05203 -0.40824,-0.137978 -0.14974,-0.109273 -0.24566,-0.278426 -0.31057,-0.452167 -0.0649,-0.173514 -0.10238,-0.355891 -0.16227,-0.531236 -0.10036,-0.293989 -0.26726,-0.57118 -0.51005,-0.76481 -0.17077,-0.136252 -0.38422,-0.229693 -0.60254,-0.221692 -0.10905,0.0041 -0.21811,0.03374 -0.31161,0.09043 -0.0933,0.05669 -0.17034,0.140912 -0.21446,0.240811 -0.045,0.101732 -0.0548,0.214974 -0.0615,0.326077 -0.007,0.110877 -0.0113,0.224248 -0.0481,0.329179 -0.0375,0.106762 -0.10755,0.201007 -0.19534,0.272336 -0.0878,0.07155 -0.19235,0.120528 -0.30231,0.147277 -0.21992,0.0535 -0.45391,0.01826 -0.66765,-0.05581 -0.19821,-0.06858 -0.38577,-0.171132 -0.54054,-0.312642 -0.15477,-0.141507 -0.27616,-0.322654 -0.33331,-0.524515 -0.0423,-0.149511 -0.0491,-0.306703 -0.0646,-0.461471 -0.0158,-0.154995 -0.0422,-0.312528 -0.11782,-0.44855 -0.069,-0.124363 -0.17964,-0.225907 -0.31109,-0.280088 -0.13145,-0.05418 -0.2833,-0.05983 -0.41703,-0.01138 -0.12665,0.04595 -0.2315,0.136178 -0.3266,0.23151 -0.0951,0.09533 -0.18384,0.198295 -0.29197,0.278535 -0.20872,0.154768 -0.47214,0.213384 -0.72864,0.254764 -0.17123,0.02743 -0.34399,0.04891 -0.51728,0.04341 -0.17305,-0.0055 -0.3473,-0.03854 -0.50229,-0.116271 -0.17009,-0.08527 -0.31135,-0.222091 -0.41445,-0.381889 -0.1031,-0.159798 -0.16875,-0.341876 -0.20464,-0.528651 -0.0293,-0.151109 -0.0399,-0.305419 -0.0703,-0.4563 -0.0304,-0.150882 -0.0833,-0.302099 -0.185,-0.417547 -0.0885,-0.100362 -0.21203,-0.169601 -0.34417,-0.19017 -0.13213,-0.02035 -0.27171,0.0082 -0.38395,0.08062 -0.13694,0.08847 -0.22669,0.233908 -0.30076,0.379304 -0.0741,0.145397 -0.13916,0.298519 -0.24546,0.422196 -0.10402,0.120936 -0.24218,0.207759 -0.38757,0.27337 -0.1454,0.06584 -0.2987,0.111628 -0.44959,0.163298 -0.17397,0.05943 -0.34806,0.127059 -0.53071,0.150376 -0.0912,0.01185 -0.18411,0.01222 -0.27441,-0.0052 -0.0905,-0.0176 -0.17794,-0.05326 -0.25114,-0.109038 -0.0711,-0.05418 -0.12689,-0.126285 -0.16899,-0.205155 -0.0418,-0.0791 -0.07046,-0.164793 -0.09146,-0.251664 -0.04205,-0.173971 -0.05555,-0.353695 -0.103351,-0.526065 -0.121851,-0.439616 -0.476419,-0.806575 -0.91054,-0.946714 -0.17649,-0.05692 -0.370475,-0.07783 -0.546735,-0.02066 -0.08801,0.02858 -0.170227,0.07657 -0.23513,0.142627 -0.0649,0.0663 -0.111974,0.151153 -0.128672,0.242363 -0.0236,0.128934 0.01349,0.260337 0.05529,0.384471 0.0418,0.123907 0.08997,0.24883 0.09043,0.379823 2.65e-4,0.09007 -0.02236,0.179692 -0.06305,0.259932 -0.04069,0.08001 -0.09916,0.150876 -0.168465,0.208256 -0.138311,0.114761 -0.317381,0.17381 -0.496612,0.187069 -0.127098,0.0096 -0.256757,-0.0034 -0.377238,-0.04496 -0.120478,-0.04161 -0.23191,-0.112877 -0.314709,-0.209807 -0.07129,-0.08344 -0.120195,-0.183594 -0.153995,-0.287838 -0.034,-0.104245 -0.0537,-0.21255 -0.0708,-0.32091 -0.03429,-0.216493 -0.06185,-0.441672 -0.1757,-0.628901 -0.08459,-0.139224 -0.217998,-0.251191 -0.374139,-0.297141 -0.07819,-0.02281 -0.160827,-0.02905 -0.241326,-0.01603 -0.08047,0.01302 -0.158226,0.04496 -0.222727,0.09457 -0.0754,0.05784 -0.131749,0.138153 -0.17105,0.22479 -0.0393,0.08664 -0.06205,0.179639 -0.07855,0.273371 -0.0331,0.187229 -0.04201,0.381561 -0.114205,0.557588 -0.0551,0.134194 -0.145084,0.252632 -0.253214,0.349332 -0.10813,0.09693 -0.23419,0.172252 -0.365868,0.233061 -0.154541,0.0711 -0.319757,0.12247 -0.489376,0.134358 -0.169633,0.01191 -0.344289,-0.01696 -0.494028,-0.09767 -0.18997,-0.102645 -0.326355,-0.278984 -0.473355,-0.437181 -0.249182,-0.268616 -0.540486,-0.494279 -0.837676,-0.708483 -0.12985,-0.09373 -0.261591,-0.186235 -0.40721,-0.253217 -0.145621,-0.06699 -0.306551,-0.107989 -0.466122,-0.09405 -0.17055,0.01487 -0.33534,0.09481 -0.450101,0.221691 -0.114771,0.126876 -0.177982,0.299485 -0.168981,0.470255 0.006,0.111334 0.04078,0.218633 0.07028,0.326078 0.0299,0.107217 0.05386,0.21876 0.03876,0.329178 -0.01349,0.09762 -0.05707,0.189045 -0.116272,0.267685 -0.05921,0.07864 -0.133656,0.145322 -0.211357,0.205673 -0.103788,0.0807 -0.2159,0.152644 -0.340029,0.195853 -0.12414,0.04343 -0.26121,0.05703 -0.388091,0.02273 -0.08618,-0.02331 -0.165811,-0.06814 -0.234611,-0.125058 -0.06859,-0.05692 -0.126934,-0.125918 -0.176734,-0.199988 -0.09967,-0.148138 -0.166211,-0.315228 -0.243911,-0.475941 -0.06493,-0.134419 -0.138679,-0.265922 -0.233577,-0.38137 -0.09487,-0.115448 -0.211648,-0.214964 -0.348816,-0.274402 -0.107442,-0.0467 -0.229063,-0.06728 -0.343133,-0.04031 -0.12459,0.02972 -0.231907,0.11499 -0.302308,0.22221 -0.07042,0.107217 -0.106587,0.234169 -0.119888,0.361736 -0.0268,0.254896 0.03321,0.510894 0.03721,0.767394 0.0021,0.146537 -0.01426,0.294053 -0.06046,0.433047 -0.04618,0.139681 -0.123314,0.268716 -0.230994,0.367937 -0.181049,0.166656 -0.438447,0.233968 -0.684197,0.219107 -0.245758,-0.01487 -0.481827,-0.104574 -0.699698,-0.219107 -0.399831,-0.21055 -0.750901,-0.504021 -1.092441,-0.800984 -0.149958,-0.130307 -0.305443,-0.265419 -0.496094,-0.321429 -0.09534,-0.0281 -0.197522,-0.03439 -0.293521,-0.0088 -0.09578,0.02561 -0.184129,0.08526 -0.235127,0.170532 -0.0334,0.05578 -0.0504,0.120245 -0.05839,0.184486 -0.0081,0.06447 -0.0068,0.129085 -0.0088,0.193786 -0.0082,0.326681 -0.06914,0.657125 -0.219106,0.94723 -0.06653,0.128704 -0.15135,0.249629 -0.262001,0.34313 -0.110649,0.09373 -0.248547,0.158197 -0.393259,0.166399 -0.183118,0.01029 -0.360256,-0.06956 -0.511595,-0.173117 -0.151339,-0.10356 -0.284409,-0.231023 -0.4346,-0.336412 -0.11317,-0.07933 -0.238622,-0.14636 -0.374652,-0.171051 -0.06789,-0.01238 -0.13829,-0.01384 -0.20619,-0.0011 -0.06789,0.01281 -0.133202,0.04011 -0.188103,0.08217 -0.05848,0.04481 -0.104476,0.105103 -0.134874,0.172083 -0.0306,0.06721 -0.04713,0.140837 -0.05013,0.214458 -0.0078,0.147222 0.0309,0.292732 0.0801,0.431498 0.06355,0.179459 0.145539,0.351835 0.207738,0.531749 0.062,0.179917 0.103999,0.371404 0.0832,0.560692 -0.0272,0.248496 -0.167601,0.481925 -0.375172,0.621149 -0.207581,0.139221 -0.47838,0.18035 -0.717269,0.106971 -0.23776,-0.07293 -0.433642,-0.251389 -0.563272,-0.463537 -0.129622,-0.211921 -0.19853,-0.455954 -0.23823,-0.701252 -0.144018,-0.88723 0.07095,-1.801357 0.437184,-2.62206 0.547748,-1.22786 1.440677,-2.298605 2.549197,-3.058728 -1.11379,-0.09739 -2.236394,-0.09739 -3.350184,0 -1.119258,0.09807 -2.239888,0.296965 -3.277317,0.728121 -0.895011,0.371944 -1.719701,0.91666 -2.403472,1.602487 -0.567629,0.570836 -1.037661,1.238626 -1.38286,1.966288 -0.331722,-0.643991 -0.436626,-1.402189 -0.291455,-2.112018 0.144478,-0.706858 0.536239,-1.361056 1.092438,-1.820559 0.46636,-0.385433 1.045104,-0.633087 1.645896,-0.704867 -0.191812,-0.600554 -0.643384,-1.114008 -1.214913,-1.380794 -0.328502,-0.153395 -0.688872,-0.226412 -1.052132,-0.240812 z m 77.797314,4.855518 c -0.89063,-5.6e-5 -1.78347,0.130342 -2.61844,0.437182 -0.95426,0.350676 -1.83083,0.938336 -2.45877,1.737878 -0.82529,1.050827 -1.18377,2.45505 -0.96324,3.772898 1.11148,-1.654054 2.92853,-2.815881 4.89634,-3.130558 1.61785,-0.258715 3.32541,0.05083 4.73666,0.88315 1.12356,0.662649 2.05346,1.649082 2.64893,2.809647 0.583,0.394266 1.12255,0.852914 1.60559,1.364774 0.41943,0.444458 0.79642,0.928941 1.12396,1.444874 0.18442,-2.629043 -0.91606,-5.318202 -2.89026,-7.064169 -1.55998,-1.379638 -3.61862,-2.162532 -5.6994,-2.247926 -0.12697,-0.0052 -0.25413,-0.0076 -0.38137,-0.0078 z M 64.437399,44.727327 c 0.06103,-0.0016 0.122584,0.0061 0.181385,0.02326 0.109508,0.03178 0.208904,0.09558 0.286803,0.1788 0.07791,0.08322 0.134467,0.185738 0.168466,0.294555 0.08387,0.268158 0.03055,0.557382 -0.02016,0.833544 -0.02529,0.138078 -0.05029,0.276661 -0.05529,0.417028 -0.0053,0.140364 0.0088,0.282993 0.0584,0.414443 0.07613,0.201634 0.234858,0.367144 0.425297,0.468189 0.190428,0.101041 0.410451,0.139752 0.6258,0.127643 0.459732,-0.02561 0.899819,-0.2895 1.138949,-0.683163 0.04846,0.334682 -0.03442,0.686234 -0.227375,0.963764 -0.21832,0.31388 -0.570357,0.52542 -0.946197,0.595831 -0.419029,0.07842 -0.873003,-0.01908 -1.209744,-0.280604 -0.171921,-0.133506 -0.312526,-0.307589 -0.404627,-0.504878 -0.09194,-0.197062 -0.134623,-0.416891 -0.120923,-0.634071 0.01876,-0.296048 0.139457,-0.575009 0.208256,-0.863513 0.0343,-0.144251 0.05636,-0.292891 0.04496,-0.440801 -0.01143,-0.14791 -0.05801,-0.295161 -0.148312,-0.412893 -0.111559,-0.145627 -0.289499,-0.238681 -0.472837,-0.24598 0.07041,-0.0999 0.172398,-0.177099 0.287838,-0.217559 0.05762,-0.02035 0.118316,-0.03147 0.179316,-0.03307 z m 68.958061,29.604396 c -0.78184,0.455623 -1.60402,0.842396 -2.45308,1.154451 -1.50196,0.552315 -3.09023,0.870016 -4.68912,0.937927 0.64376,1.252548 1.66656,2.3076 2.89853,2.989998 1.58198,0.876252 3.42343,1.119695 5.20796,1.412316 1.2354,0.202547 2.51717,0.458145 3.50728,1.224214 0.97089,0.75121 1.53949,1.90023 2.02003,3.029791 0.40395,0.948037 0.77197,1.92068 1.32291,2.792593 0.10242,0.161861 0.21085,0.320714 0.30024,0.489894 0.0894,0.16917 0.16023,0.350851 0.18035,0.541052 0.0233,0.219697 -0.0222,0.442103 -0.10128,0.648539 -0.0791,0.206203 -0.19094,0.398441 -0.30593,0.587044 -0.52214,0.856597 -1.11715,1.671246 -1.80092,2.405539 -0.23113,0.248272 -0.47534,0.490286 -0.64337,0.784963 -0.0839,0.147225 -0.14765,0.306761 -0.17622,0.473874 -0.0286,0.167113 -0.0203,0.342268 0.0357,0.502296 0.0864,0.24644 0.28176,0.4436 0.50694,0.576191 0.22518,0.132371 0.48017,0.206483 0.73484,0.264583 0.71532,0.163229 1.45064,0.213963 2.18333,0.248563 1.27404,0.05995 2.54967,0.07128 3.82303,0.144179 0.62935,0.0361 1.26837,0.08706 1.88515,-0.04393 0.30839,-0.06538 0.60877,-0.177191 0.87281,-0.349332 0.26405,-0.171921 0.49079,-0.406175 0.63253,-0.687813 0.15933,-0.316625 0.20667,-0.67758 0.22427,-1.031463 0.0176,-0.354115 0.008,-0.710914 0.0641,-1.060915 0.0988,-0.617017 0.39918,-1.200714 0.40308,-1.825728 0.002,-0.355942 -0.0933,-0.70675 -0.22686,-1.03663 -0.13351,-0.32988 -0.30523,-0.642443 -0.46457,-0.960665 -0.64445,-1.287068 -1.08531,-2.665611 -1.51464,-4.039547 -0.4163,-1.332333 -0.83771,-2.695128 -1.65933,-3.823539 -0.72241,-0.992164 -1.7247,-1.754486 -2.80396,-2.338358 -1.63547,-0.884711 -3.44759,-1.377556 -5.20331,-1.989543 -1.62906,-0.567869 -3.22006,-1.243221 -4.76043,-2.020032 z"
       id="path20" />
    <path
       style="fill:#ffffff;fill-rule:evenodd;stroke:#000000;stroke-width:1.14304352;stroke-linejoin:round"
       inkscape:connector-curvature="0"
       id="path22"
       d="m 56.14789,36.492857 c -1.57078,0.526943 -3.01193,1.436348 -4.16388,2.627171 -1.59021,1.643925 -2.60089,3.783245 -3.1724,5.998692 -0.51209,1.984324 -0.6904,4.052774 -0.54523,6.096994 0.12961,1.825671 0.51642,3.632591 1.14006,5.353559 0.29514,0.814526 0.64308,1.609403 1.04086,2.379354 1.03948,0.224493 2.11646,0.274789 3.1724,0.148596 0.93867,-0.112246 1.86065,-0.363482 2.72639,-0.743433 -0.53221,-0.661825 -0.99788,-1.376226 -1.38788,-2.131548 -1.41418,-2.735302 -1.79115,-5.892847 -1.78452,-8.972889 0.005,-2.452285 0.24576,-4.934976 1.09046,-7.237065 0.4595,-1.253233 1.09595,-2.44177 1.88374,-3.519431 z" />
  </g>
</svg>
