<svg xmlns="http://www.w3.org/2000/svg" width="874.97" height="933.91" viewBox="0 0 874.96842 933.91401" xmlns:xlink="http://www.w3.org/1999/xlink"><g transform="translate(18.199-25.387)"><g fill-rule="evenodd"><path d="m-12.32 30.887l38.08 570.03c18.15 198.6 189.89 352.73 393.52 352.88 203.72-.098 375.43-154.2 393.52-352.88l38.08-570.03h-431.61z" fill="#03f"/><path d="m293.37 498.83c-4.03 4.873-9.664 8.396-15.81 9.881-2.26.546-4.615.824-6.917.494-3.728-.534-7.101-2.649-9.696-5.378-2.595-2.729-4.482-6.05-6.114-9.444-8.867-18.432-10.756-39.36-11.858-59.782-1.702-31.551-1.83-63.5 4.941-94.37 3.242-14.78 8.05-29.21 14.328-42.984-.889-2.704-1.963-5.347-3.211-7.905-.657-1.346-1.37-2.692-1.658-4.162-.144-.735-.178-1.497-.039-2.233.139-.736.455-1.446.956-2 .772-.859 1.897-1.288 2.964-1.729.75-.31 1.491-.639 2.223-.988-.285-1.86-.783-3.688-1.482-5.435-1.904-4.759-5.248-8.833-7.164-13.587-1.757-4.36-2.244-9.134-2.223-13.834.007-1.659.078-3.334.494-4.941.518-2 1.559-3.836 2.834-5.461 1.275-1.625 2.783-3.051 4.33-4.421 1.444-1.28 2.928-2.515 4.447-3.705l-.247-5.682c-1.986-1.136-3.962-2.289-5.929-3.458-2.287-1.36-4.59-2.766-6.423-4.694-2.115-2.224-3.528-5.112-3.953-8.152-.547-3.922.518-7.932 0-11.858-.373-2.828-1.55-5.477-2.655-8.106-1.105-2.63-2.166-5.348-2.286-8.198-.134-3.19.967-6.402 2.964-8.893 1.773-2.212 4.18-3.831 6.67-5.188 1.91-1.041 3.893-1.95 5.929-2.717-2.813-4.545-5.371-9.249-7.658-14.08-1.343-2.838-2.607-5.774-2.964-8.893-.284-2.476.061-5.116 1.482-7.164.733-1.055 1.739-1.925 2.908-2.459 1.168-.534 2.497-.727 3.762-.505 1.574.275 2.99 1.17 4.119 2.301 1.129 1.131 1.997 2.493 2.798 3.875 1.201 2.072 2.274 4.219 3.211 6.423-.341-2.95-.424-5.929-.247-8.893.06-1.01.151-2.02.402-2.993.251-.976.67-1.924 1.327-2.689 1.035-1.205 2.614-1.875 4.2-1.976 1.751-.112 3.529.44 4.941 1.482 1.419 1.048 2.452 2.549 3.201 4.147.749 1.598 1.235 3.303 1.74 4.993 2.407 8.05 5.329 15.975 9.14 23.468.936 1.84 1.924 3.652 2.964 5.435 1.277-.833 2.378-1.934 3.211-3.211.475-.728.864-1.512 1.391-2.204.526-.692 1.222-1.302 2.068-1.501.555-.131 1.151-.075 1.676.148.525.223.977.609 1.289 1.087.488.748.618 1.682.549 2.571-.069.89-.322 1.753-.549 2.616-1.862 7.082-2 14.629-.247 21.739.557 2.259 1.302 4.479 1.63 6.782.328 2.303.207 4.753-.889 6.805-1.16 2.172-3.273 3.67-4.694 5.682-1.233 1.746-1.908 3.838-2.227 5.952-.319 2.114-.298 4.263-.244 6.4.052 2.06.135 4.119.247 6.176 1.079-.206 2.151-.453 3.211-.741.533-.145 1.068-.301 1.619-.342.551-.041 1.128.042 1.592.342.466.302.78.799.958 1.326.178.526.233 1.085.278 1.639.373 4.622.112 9.335 1.235 13.834.701 2.808 1.923 5.452 2.964 8.152 1.39 3.603 2.466 7.327 3.211 11.12 2.584-1.598 5.137-3.245 7.658-4.941 5-3.365 9.943-6.954 15.563-9.14 3.01-1.17 6.176-1.92 9.387-2.223-.499-2.85-.583-5.772-.247-8.646.358-3.068 1.195-6.08 2.47-8.893-.505-1.623-1.168-3.198-1.976-4.694-1.988-3.682-4.836-6.861-6.67-10.622-1.563-3.206-2.349-6.828-1.976-10.375.473-4.5 2.767-8.644 5.682-12.1 5.356-6.358 12.713-10.644 19.02-16.06 3.512-3.01 6.735-6.421 9.14-10.375.536-.882 1.031-1.789 1.482-2.717-.28-3.24-.776-6.46-1.482-9.634-1.582-7.105-4.224-14-4.941-21.245-.187-1.889-.24-3.799 0-5.682.492-3.855 2.201-7.465 4.323-10.721 2.122-3.256 4.664-6.213 7.04-9.288 5.528-7.154 10.227-15.04 16.798-21.245 4.528-4.279 9.823-7.645 14.822-11.363 1.084-.806 2.154-1.63 3.211-2.47 1.401.575 2.8 1.151 4.2 1.729 2.426 1 4.859 2.02 7.128 3.336 2.269 1.321 4.383 2.968 5.965 5.063.959 1.269 1.712 2.693 2.223 4.2.461-2.839 1.383-5.604 2.717-8.152 1.235-2.358 2.822-4.53 4.694-6.423 4.434 5.185 8.561 10.632 12.352 16.304 4.968 7.433 9.425 15.43 11.12 24.21 1.079 5.6 1 11.365.494 17.05-.495 5.554-1.434 11.195-4.094 16.09-1.239 2.283-2.825 4.355-4.253 6.524-1.428 2.169-2.718 4.486-3.263 7.03-.454 2.117-.368 4.347.247 6.423 3.55 3.052 7.175 6.02 10.869 8.893 3.831 2.982 7.755 5.884 11.12 9.387 4.307 4.488 7.619 9.925 9.634 15.81.246.717.473 1.444.588 2.193.115.749.113 1.525-.094 2.254-.364 1.282-1.318 2.3-1.976 3.458-.788 1.387-1.153 3-1.092 4.595.061 1.594.543 3.163 1.339 4.545.631 1.095 1.451 2.068 2.199 3.087.748 1.019 1.438 2.112 1.754 3.336.433 1.68.121 3.487-.578 5.075-.699 1.587-1.765 2.984-2.881 4.313-2.1 2.5-4.417 4.817-6.917 6.917 2.54 1.648 5.285 2.979 8.152 3.952 3.132 1.064 6.39 1.699 9.593 2.526 3.203.827 6.396 1.867 9.182 3.65 4.181 2.678 7.26 7.02 8.399 11.858 1.804-1.522 4.074-2.483 6.423-2.717 1.836-.183 3.715.073 5.435.741l-.247-5.929c-3.637-.444-7.08-2.345-9.387-5.188-2.214-2.723-3.358-6.175-3.953-9.634-.463-2.691-.62-5.424-.741-8.152-.473-10.631-.416-21.319.988-31.867.547-4.107 1.303-8.21 2.717-12.1 1.822-5.02 4.781-9.688 8.893-13.09 1.903-1.576 4.03-2.866 5.929-4.447 1.165-.97 2.242-2.046 3.211-3.211.352-8.407.846-16.807 1.482-25.2.374-4.927.797-9.866.569-14.801-.228-4.935-1.13-9.903-3.286-14.349-1.625-3.35-3.969-6.378-6.953-8.605-2.984-2.227-6.618-3.627-10.339-3.746-4.303-.138-8.694 1.526-11.611 4.694-2.972 3.228-4.244 7.721-4.447 12.1-.112 2.422.091 4.925 1.152 7.106.53 1.09 1.274 2.085 2.219 2.845.945.76 2.094 1.279 3.299 1.412 1.277.141 2.589-.157 3.71-.784 1.121-.627 2.052-1.573 2.713-2.675 1.269-2.116 1.517-4.713 1.235-7.164-.257-2.238-.931-4.427-1.976-6.423 4.806-1.016 10.08.517 13.587 3.953 2.167 2.121 3.655 4.878 4.501 7.79.846 2.912 1.07 5.979.934 9.01-.149 3.317-.742 6.663-2.223 9.634-1.211 2.429-3 4.564-5.188 6.176 2.879 2.497 4.557 6.32 4.447 10.128-.072 2.499-.878 4.948-2.126 7.115-1.248 2.167-2.927 4.064-4.791 5.731-4.258 3.809-9.458 6.434-14.822 8.399-2.667.977-5.391 1.803-8.152 2.47 2.781-2.18 4.543-5.61 4.694-9.14.141-3.299-1.058-6.532-2.717-9.387-4.938-8.494-13.716-14.05-19.516-21.986-4.708-6.439-7.323-14.554-6.423-22.48.423-3.725 1.607-7.362 3.458-10.622-4.13-1.831-7.379-5.545-8.646-9.881-.918-3.143-.82-6.535 0-9.705.82-3.17 2.339-6.129 4.2-8.823 2.897-4.192 6.638-7.783 10.869-10.622 1.961-1.316 4.03-2.474 6.176-3.458-1.629 2.66-2.804 5.597-3.458 8.646-.634 2.953-.756 6.143.494 8.893.274.602.614 1.181 1.064 1.665.45.485 1.016.874 1.654 1.052.628.175 1.305.14 1.931-.044.626-.183 1.203-.51 1.724-.903 1.04-.787 1.85-1.832 2.769-2.759 2.751-2.774 6.427-4.431 10.128-5.682 5.32-1.797 10.951-2.883 16.551-2.47 6.874.507 13.431 3.253 19.268 6.917 4.967 3.118 9.533 6.95 13.09 11.61 3.035 3.974 5.312 8.527 6.67 13.34 1.805-2.192 4.101-3.978 6.67-5.188 4.376-2.061 9.624-2.374 14.08-.494 2.597 1.096 4.884 2.902 6.589 5.146 1.706 2.244 2.831 4.918 3.292 7.699.711 4.293-.15 8.703-1.482 12.846-.872 2.71-1.946 5.355-3.211 7.905-.475-2.912-2.1-5.621-4.447-7.411-2.701-2.061-6.258-2.856-9.634-2.47-2.422.277-4.777 1.137-6.795 2.503-2.02 1.366-3.695 3.237-4.815 5.402-1.261 2.439-1.803 5.196-1.968 7.936-.165 2.741.032 5.488.168 8.23.456 9.186.232 18.406-.671 27.558 3.658 4.838 6.658 10.172 8.893 15.81 3.665 9.246 5.243 19.214 5.682 29.15.277 6.259.111 12.538-.494 18.774 1.443 2.195 2.844 4.419 4.2 6.67 1.478 2.454 2.911 4.953 3.916 7.636 1.01 2.682 1.575 5.573 1.271 8.421-.204 1.921-.797 3.775-1.289 5.643-.492 1.868-.888 3.8-.687 5.721.196 1.872.947 3.636 1.729 5.348.782 1.712 1.61 3.428 1.976 5.274.455 2.295.172 4.673-.299 6.965-.471 2.292-1.129 4.549-1.43 6.869-.694 5.354.539 10.742 1.482 16.06.86 4.843 1.461 9.962-.247 14.575-.63 1.703-1.565 3.29-2.717 4.694-1 1.219-2.168 2.303-3.458 3.211 1.019 2.061 1.532 4.371 1.482 6.67-.1 4.6-2.573 9.09-6.423 11.61-1.428.935-3.03 1.608-4.694 1.976 4.712 4.03 8.264 9.402 10.128 15.316 2.371 7.52 2.01 15.588 1.729 23.468-.265 7.517-.434 15.07-1.729 22.48-.909 5.198-2.366 10.284-3.953 15.316-4.08 12.942-9.05 25.643-15.563 37.549-4.358 7.968-9.388 15.55-13.834 23.468-4.713 8.393-8.764 17.16-12.1 26.19-45.649-.555-91.29-2.202-136.86-4.941-32.978-1.982-65.923-4.535-98.81-7.658z" stroke="#000"/><path d="m495.11 45.34c-3.113 2.179-5.428 5.474-6.424 9.141-.519 1.911-.688 3.925-.416 5.887.272 1.961.99 3.868 2.145 5.477 1.109 1.546 2.617 2.805 4.336 3.621 1.719.817 3.647 1.189 5.547 1.072-2.642 1.522-4.882 3.739-6.432 6.365-1.55 2.626-2.407 5.656-2.463 8.705-.056 3.056.686 6.099 1.936 8.889 1.249 2.79 2.998 5.336 4.982 7.662 5.335 6.254 12.366 10.957 17.291 17.539 1.751 2.34 3.22 4.905 4.201 7.658 1.291 3.622 1.717 7.549 1.234 11.363 3.285-1.028 6.391-2.623 9.141-4.693 1.367-1.029 2.657-2.188 3.627-3.598.97-1.409 1.604-3.091 1.561-4.801-.041-1.581-.653-3.106-1.494-4.445-.841-1.34-1.908-2.519-2.953-3.707-2.124-2.415-4.184-4.887-6.176-7.412 2.614-.029 5.222-.534 7.658-1.482 1.553-.605 3.05-1.397 4.295-2.504 1.245-1.107 2.231-2.547 2.623-4.166.352-1.455.214-2.994-.16-4.443-.374-1.45-.979-2.826-1.57-4.201-1.372-3.189-2.688-6.401-3.951-9.635.952 3.76.213 7.915-1.977 11.12-1.373 2.01-3.292 3.64-5.494 4.676-2.202 1.036-4.682 1.473-7.105 1.252-4.38-.399-8.457-2.993-10.869-6.67-1.937-2.952-2.832-6.528-2.783-10.06.048-3.53 1.01-7.01 2.537-10.197 2.178-4.545 5.548-8.551 9.801-11.256 4.253-2.705 9.393-4.066 14.408-3.566 3.71.369 7.303 1.742 10.367 3.865 3.064 2.123 5.599 4.984 7.418 8.238 3.326 5.95 4.19 12.951 4.447 19.764.348 9.233-.298 18.476-1.236 27.668-.615 6.03-1.356 12.04-2.223 18.03 2.073-.657 4.249-.992 6.424-.988 3.429.006 6.853.862 9.881 2.471.623-4.506 1.035-9.04 1.234-13.588.264-6.01.158-12.04.742-18.03.362-3.713.999-7.44 2.469-10.869 2.028-4.733 5.785-8.86 10.623-10.623 3.539-1.29 7.49-1.264 11.12-.246 2.785.781 5.408 2.134 7.658 3.951.215-3.336-.57-6.728-2.225-9.633-1.01-1.769-2.341-3.366-3.988-4.563-1.647-1.196-3.613-1.979-5.645-2.107-1.793-.113-3.594.281-5.254.969-1.659.688-3.188 1.663-4.629 2.736-3.237 2.41-6.083 5.341-8.398 8.646-.995-2.665-2.065-5.303-3.211-7.906-3.351-7.613-7.488-15.13-13.834-20.502-6.209-5.26-14.343-8.157-22.48-8.152-6.376.004-12.804 1.784-18.03 5.434-1.667 1.163-3.204 2.505-4.871 3.668-1.667 1.163-3.502 2.157-5.504 2.508-2.01.352-4.15.016-5.93-.988-2.256-1.273-3.87-3.623-4.25-6.186-.38-2.562.486-5.282 2.275-7.154m-37.549.494c-1.479 1.809-2.727 3.807-3.705 5.93-1.083 2.35-1.833 4.852-2.223 7.41 2.436 2.86 4.743 5.83 6.916 8.895 3.591 5.065 6.815 10.405 9.387 16.06 2.758 6.06 4.755 12.467 5.93 19.02 1.648-6.943 1.817-14.232.494-21.244-1.167-6.185-3.469-12.11-6.176-17.787-3.034-6.37-6.591-12.491-10.623-18.281m-27.42 4.201l-4.941 3.705-.494 3.459-1.393 58.688c-1.347.116-2.694.233-4.04.352-4.367.386-8.734.78-13.09 1.236-1.64.172-3.289.354-4.873.814-1.584.46-3.115 1.217-4.268 2.396-.992 1.014-1.673 2.319-1.975 3.705-.234 1.075-.241 2.218.117 3.258.358 1.04 1.104 1.967 2.105 2.424.849.387 1.825.42 2.746.271.921-.149 1.803-.47 2.688-.766 5.343-1.787 10.937-2.758 16.553-3.211 2.306-.186 4.618-.276 6.932-.289l.002.041c.614-.021 1.229-.026 1.844-.035.615.009 1.229.014 1.844.035l.002-.041c2.314.013 4.627.103 6.934.289 5.615.453 11.208 1.424 16.551 3.211.885.296 1.768.617 2.689.766.921.149 1.895.116 2.744-.271 1-.456 1.747-1.384 2.105-2.424.358-1.04.353-2.183.119-3.258-.302-1.386-.985-2.691-1.977-3.705-1.153-1.179-2.684-1.936-4.268-2.396-1.584-.46-3.233-.643-4.873-.814-4.275-.448-8.555-.834-12.836-1.213l.961-60.793-3.459-3.953-4.445-1.48m11.477 4.826l.895 55.58c3.663-.188 7.345-.022 10.977.494 5.097.725 10.1 2.141 14.814 4.199-.737-3.838-1.269-7.717-1.596-11.611-.374-4.46-.48-8.964-1.42-13.34-1.64-7.634-5.746-14.521-10.453-20.75-3.96-5.239-8.389-10.123-13.217-14.574m-21.357.361c-4.678 5.03-9.542 9.896-14.576 14.574-3.568 3.316-7.249 6.568-10.15 10.48-2.901 3.913-5 8.612-4.918 13.482.06 3.447 1.199 6.768 1.977 10.127.954 4.123 1.369 8.37 1.234 12.6 4.09-2.506 8.631-4.272 13.34-5.188 3.979-.773 8.08-.941 12.11-.494l.988-55.58m42.19 82.68c-.596 1.47-1.063 2.993-1.396 4.543-.448 2.082-.641 4.319.174 6.287.421 1.016 1.098 1.918 1.918 2.65.82.733 1.782 1.299 2.799 1.717 2.879 1.183 6.111 1.166 9.08 2.096 3.248 1.017 6.05 3.122 8.561 5.416 1.125 1.026 2.216 2.11 3.043 3.389.827 1.279 1.378 2.775 1.324 4.297-.048 1.352-.572 2.661-1.342 3.773-.769 1.113-1.777 2.043-2.852 2.865-1.52 1.163-3.213 2.134-5.064 2.619-.967.253-1.971.372-2.971.35 1.036 1.482 2.514 2.65 4.193 3.318 2.509.998 5.434.838 7.859-.35 2.836-1.389 4.923-4.117 5.766-7.16.975-3.52.349-7.36-1.225-10.656-2.699-5.652-7.965-9.715-13.623-12.402-3.608-1.714-7.487-2.984-10.656-5.414-2.469-1.893-4.42-4.455-5.59-7.338m-74.18 6.432c-.156.015-.312.053-.459.107-.294.109-.561.279-.824.449-2.869 1.85-5.553 3.969-8.209 6.113-4.241 3.424-8.467 6.967-11.703 11.354-2.163 2.933-3.864 6.24-4.717 9.783-.662 2.749-.801 5.673 0 8.385.807 2.731 2.568 5.164 4.891 6.813 2.313 1.641 5.228 2.503 8.04 2.096 2.266-.329 4.33-1.437 6.463-2.271 1.093-.428 2.213-.787 3.277-1.281 1.064-.495 2.083-1.137 2.836-2.037.662-.791 1.1-1.771 1.223-2.795.102-.85-.022-1.748-.48-2.471-.229-.361-.54-.674-.91-.889-.37-.215-.801-.328-1.229-.309-.503.023-.984.229-1.41.496-.427.267-.81.596-1.211.9-1.725 1.307-3.795 2.142-5.938 2.445-1.388.196-2.816.172-4.178-.16-1.362-.332-2.658-.98-3.684-1.936-1.741-1.623-2.601-4.087-2.445-6.463.14-2.14 1.048-4.179 2.305-5.916 1.257-1.737 2.854-3.199 4.508-4.564 4.225-3.489 8.876-6.416 13.449-9.434.624-.412 1.254-.828 1.773-1.365.52-.537.928-1.211 1.021-1.953.06-.474-.012-.955-.127-1.418-.115-.463-.275-.915-.396-1.377-.12-.453-.204-.919-.404-1.342-.1-.212-.228-.412-.395-.576-.166-.165-.371-.292-.598-.352-.152-.04-.309-.049-.465-.033m-.76 14.182c-1.32.177-2.615.529-3.842 1.047-2.096.885-3.973 2.243-5.59 3.844-1.842 1.823-3.377 4-4.191 6.463-.284.859-.482 1.762-.412 2.664.069.902.428 1.807 1.109 2.402.573.501 1.331.748 2.086.844.755.095 1.52.05 2.281.029 1.018-.028 2.041-.011 3.053-.129 1.012-.118 2.024-.379 2.887-.92.83-.521 1.49-1.285 1.971-2.139.481-.854.788-1.795.998-2.752.428-1.943.466-3.953.35-5.939-.106-1.818-.34-3.628-.699-5.414m81.23 1.043c-1.47 0-2.94.177-4.367.529.176 1.982.842 3.918 1.922 5.59.853 1.321 1.951 2.466 3.143 3.492 1.959 1.687 4.258 3.094 6.813 3.494 1.488.233 3.087.094 4.367-.699.752-.466 1.371-1.15 1.746-1.951.375-.802.506-1.718.352-2.59-.138-.78-.496-1.51-.965-2.148-.468-.638-1.046-1.191-1.656-1.695-2.023-1.674-4.437-2.863-6.986-3.492-1.427-.352-2.897-.529-4.367-.529m-.477 13.04c-.381-.035-.773.038-1.096.24-.373.234-.63.616-.807 1.02-.176.403-.281.833-.416 1.252-.195.603-.456 1.186-.605 1.803-.149.616-.18 1.287.08 1.865.139.308.357.58.617.797.26.217.561.379.879.496.635.234 1.322.28 1.998.279 1.722-.002 3.443-.299 5.066-.873-1.089-.911-1.988-2.048-2.621-3.318-.454-.91-.785-1.906-1.465-2.662-.34-.378-.767-.687-1.256-.828-.122-.035-.248-.059-.375-.07m24.23 8.102c-.254-.025-.512.026-.748.123-.236.097-.453.239-.65.4-.53.432-.935.995-1.328 1.555-.393.56-.784 1.131-1.291 1.59-.541.49-1.203.838-1.9 1.053-.698.215-1.432.298-2.162.295-1.46-.006-2.893-.352-4.322-.648-3.044-.63-6.154-1.036-9.258-.873-1.475.077-2.949.283-4.367.697-.415.121-.829.264-1.201.484-.372.22-.704.526-.895.914-.244.496-.237 1.091-.055 1.613.182.522.526.975.928 1.355.706.669 1.595 1.13 2.529 1.402.934.272 1.914.362 2.887.346 3.286-.054 6.503-1.284 9.781-1.049 1.173.084 2.322.355 3.48.557 1.158.202 2.346.335 3.506.143 1.674-.278 3.187-1.226 4.367-2.445.681-.703 1.269-1.503 1.678-2.393.408-.889.634-1.87.594-2.848-.021-.503-.115-1.015-.373-1.447-.129-.216-.299-.408-.504-.555-.205-.146-.445-.245-.695-.27m-103.32 6.557c-.265-.012-.532.016-.789.082-.868.222-1.568.841-2.271 1.396-1.052.832-2.184 1.556-3.318 2.271-1.136.717-2.331 1.445-3.668 1.572-1.057.1-2.108-.187-3.148-.398-.52-.106-1.047-.192-1.578-.203-.531-.011-1.069.057-1.563.252-.342.135-.662.332-.914.6-.252.268-.434.609-.484.973-.042.306.009.621.123.908.114.287.291.546.5.773.417.455.954.782 1.475 1.113 1.437.915 2.869 1.943 4.541 2.27 1.101.215 2.246.109 3.332-.174 1.086-.283 2.119-.737 3.131-1.223 1.351-.648 2.683-1.36 3.857-2.291 1.174-.931 2.192-2.097 2.781-3.475.227-.53.389-1.092.412-1.668.023-.576-.101-1.165-.412-1.65-.287-.448-.728-.792-1.227-.975-.25-.091-.514-.142-.779-.154m103.92 4.262c-.351-.007-.705.067-1.021.219-.317.152-.595.381-.801.666-.245.34-.379.746-.514 1.143-.134.397-.277.799-.535 1.129-.307.391-.761.651-1.242.773-.482.123-.99.115-1.48.037-.982-.156-1.899-.586-2.867-.811-.586-.136-1.204-.195-1.787-.045-.291.075-.571.204-.809.389-.238.185-.432.425-.547.703-.114.275-.149.581-.117.877.031.296.125.585.258.852.265.534.677.979 1.082 1.416.967 1.044 1.987 2.12 3.318 2.621.817.308 1.714.379 2.58.268.866-.112 1.703-.403 2.484-.793 1.846-.921 3.422-2.452 4.193-4.365.276-.685.45-1.422.418-2.16-.032-.738-.281-1.478-.768-2.033-.463-.528-1.144-.871-1.846-.885m57.34765 2.28516a15.810033 9.634239 0 0 0 -15.81054 9.63477 15.810033 9.634239 0 0 0 15.81054 9.63476 15.810033 9.634239 0 0 0 15.81055 -9.63476 15.810033 9.634239 0 0 0 -15.81055 -9.63477m-82.12.586c-.849-.011-1.703.044-2.549.109-.708.055-1.424.119-2.096.35-.449.154-.875.384-1.221.709-.346.325-.608.748-.701 1.213-.116.581.038 1.196.342 1.705.304.509.748.919 1.23 1.264.545.39 1.143.701 1.703 1.068.56.368 1.095.805 1.441 1.379.488.808.555 1.811.389 2.74-.167.929-.547 1.804-.912 2.674-1.597 3.809-2.979 7.803-5.59 11-2.594 3.18-6.203 5.33-9.434 7.861-3.884 3.044-7.301 6.712-11.527 9.258-1.17.705-2.405 1.325-3.428 2.23-.511.453-.967.977-1.295 1.576-.328.599-.526 1.274-.518 1.957.012.959.431 1.885 1.047 2.621.817.976 1.956 1.638 3.145 2.096.529.204 1.074.372 1.635.449.561.077 1.14.06 1.684-.1.622-.182 1.182-.547 1.648-.998.466-.451.843-.988 1.172-1.547.657-1.118 1.133-2.346 1.896-3.395 1.215-1.67 3.073-2.761 4.986-3.537 1.914-.776 3.928-1.282 5.844-2.053 4-1.61 7.48-4.354 10.34-7.582 2.86-3.228 5.13-6.937 7.129-10.758 1.641-3.136 3.13-6.436 3.492-9.957.265-2.575-.112-5.265-1.396-7.512-1.272-2.225-3.447-3.944-5.939-4.541-.825-.198-1.669-.274-2.518-.285m-96.73 6.688c-.304.016-.606.063-.898.146-.585.167-1.132.492-1.518.963-.369.45-.576 1.013-.689 1.584-.114.571-.139 1.154-.184 1.734-.072.93-.193 1.86-.145 2.791.048.931.279 1.879.842 2.623.376.497.894.888 1.479 1.105.584.218 1.235.262 1.842.117.718-.171 1.356-.594 1.891-1.104.535-.509 1.543-1.116 2.301-1.691.825-.627 1.687-1.215 2.447-1.92 1.391-1.288 2.516-3.623 3.842-4.193-2.309.069-4.631-.287-6.813-1.047-1.149-.401-2.277-.917-3.484-1.07-.302-.038-.608-.055-.912-.039m22.578 1.1c-1.182.048-2.326.568-3.295 1.264-1.107.795-2.032 1.814-3.01 2.764-1.551 1.506-3.304 2.919-4.191 4.891-.475 1.056-.674 2.225-.67 3.383.004 1.158.203 2.309.494 3.43 1.737 6.691 6.606 12.12 11.879 16.594 4.608 3.907 9.651 7.31 13.975 11.529.603.588 1.193 1.193 1.877 1.686.684.492 1.474.87 2.314.934.679.052 1.361-.104 1.998-.346.637-.242 1.238-.569 1.846-.877.849-.43 1.718-.826 2.52-1.34.801-.514 1.54-1.158 2.02-1.979.338-.577.542-1.233.576-1.9.034-.668-.1-1.346-.4-1.943-.309-.614-.783-1.131-1.307-1.576-.524-.445-1.101-.825-1.664-1.219-3.238-2.262-6.093-5.05-9.432-7.16-3.138-1.984-6.731-3.395-9.258-6.115-1.77-1.906-2.886-4.332-3.668-6.813-.463-1.469-.822-3.03-.525-4.541.267-1.362 1.04-2.562 1.572-3.844.275-.663.488-1.355.568-2.068.081-.713.027-1.449-.219-2.123-.263-.723-.745-1.363-1.361-1.822-.617-.459-1.366-.736-2.133-.797-.17-.013-.339-.016-.508 0m62.693.533c-.125 1.01-.36 2.01-.699 2.969-1.153 3.269-3.562 6.086-6.637 7.686-2.575 1.339-5.543 1.833-8.04 3.32-2.849 1.699-4.852 4.563-7.686 6.287-3.036 1.847-6.812 2.217-10.307 1.572-4.24-.782-8.118-2.953-11.529-5.59-3-2.323-5.712-5.03-8.04-8.04-.749.301-1.413.807-1.902 1.449-.489.642-.801 1.417-.893 2.219-.099.865.059 1.751.395 2.555.336.804.846 1.528 1.447 2.158 1.203 1.26 2.747 2.135 4.273 2.975 5.204 2.861 10.618 5.617 14.672 9.955 1.549 1.658 2.875 3.526 4.541 5.066.322.298.658.584 1.035.809.377.224.799.385 1.236.414.619.041 1.231-.183 1.752-.52.521-.337.962-.781 1.393-1.227 3.552-3.675 6.796-7.692 10.83-10.83 2.452-1.907 5.157-3.459 7.705-5.236 2.548-1.777 4.981-3.828 6.619-6.467.921-1.484 1.578-3.154 1.746-4.893.228-2.348-.475-4.773-1.922-6.637m-143.32 2.211c-2.719 1.81-5.436 3.62-8.152 5.434-3.037 2.028-6.082 4.065-9.348 5.701-3.265 1.636-6.776 2.871-10.414 3.193-2.312.205-4.658.037-6.918-.494-.849 2.136-1.27 4.44-1.232 6.738.05 3.041.893 6.02 2.066 8.83 1.173 2.806 2.675 5.463 4.107 8.146 1.193 2.234 2.344 4.499 3.207 6.879.562 1.55 1 3.144 1.309 4.764-1.114-.176-2.283.004-3.293.506-1.01.502-1.857 1.324-2.389 2.318-.526.982-.74 2.111-.748 3.225-.008 1.114.183 2.221.432 3.307 2.113 9.232 8.185 16.953 12.846 25.2 2.752 4.867 5.04 9.993 8.03 14.719 2.987 4.726 6.778 9.119 11.73 11.713 3.102 1.625 6.637 2.496 10.129 2.223 2.222-.174 4.396-.804 6.424-1.729 5.997-2.734 10.501-7.848 15.07-12.6 4.321-4.495 8.856-8.783 13.586-12.846-3.992-.042-7.978-.539-11.857-1.48-4.112-.998-8.103-2.496-11.857-4.447-.919 5.176-4.02 9.928-8.398 12.846-2.715 1.811-5.89 2.926-9.141 3.211 3.363-1.722 6.224-4.41 8.152-7.658 1.455-2.452 2.373-5.179 3.211-7.904.805-2.617 1.548-5.254 2.225-7.906-2.031 3.93-5.14 7.297-8.895 9.635-3.553 2.213-7.677 3.501-11.857 3.705 4.286-2.447 8.09-5.738 11.12-9.633 2.819-3.622 4.967-7.753 6.422-12.11 1.649-4.934 2.393-10.383.742-15.316-.768-2.295-2.042-4.418-3.705-6.176-.426 3.328-2.136 6.476-4.695 8.646-2.268 1.923-5.18 3.071-8.15 3.211 2.06-3.235 3.877-6.622 5.434-10.127 2.221-5 3.926-10.339 3.953-15.811.019-3.907-.831-7.817-2.471-11.363-1.138 4.316-4.179 8.095-8.152 10.129-1.988 1.018-4.191 1.611-6.422 1.729 3.118-4.288 6-8.743 8.645-13.34.914-1.59 1.804-3.21 2.367-4.955.564-1.745.789-3.639.352-5.42-.476-1.937-1.75-3.665-3.459-4.693m168.65 3.203c.434 1.528.496 3.161.176 4.717-.494 2.402-1.862 4.543-3.459 6.404-1.597 1.862-3.438 3.497-5.102 5.299-2.381 2.579-4.385 5.484-6.73 8.096-2.346 2.611-5.124 4.975-8.465 6.05-1.759.567-3.668.78-5.242 1.748-.327.202-.637.436-.889.727-.252.291-.443.641-.508 1.02-.049.287-.026.585.055.865.081.28.216.543.387.779.341.473.813.836 1.305 1.15 1.955 1.25 4.27 1.813 6.564 2.154 2.295.341 4.623.483 6.887.99 4.621 1.035 8.802 3.56 12.402 6.637 3.402 2.908 6.357 6.339 8.732 10.133 1.516-2.894 3.21-5.696 5.066-8.385 2.613-3.784 5.568-7.361 9.05-10.365 3.481-3 7.508-5.431 11.912-6.754 1.626-.488 3.318-.833 4.805-1.652.744-.409 1.43-.939 1.953-1.607.523-.669.876-1.483.928-2.33.04-.654-.097-1.309-.328-1.922-.231-.613-.555-1.186-.895-1.746-1.363-2.246-3.089-4.369-5.414-5.59-2.095-1.1-4.51-1.387-6.865-1.611-2.355-.225-4.762-.417-6.934-1.357-2.236-.968-4.122-2.727-5.242-4.891.028 2.251-.722 4.503-2.096 6.287-1.863 2.42-4.703 3.863-7.51 5.066-2.456 1.053-4.964 1.987-7.512 2.795 3.583-1.868 6.719-4.584 9.08-7.861.679-.942 1.302-1.939 1.688-3.035.386-1.096.525-2.303.234-3.428-.372-1.44-1.397-2.613-2.445-3.668-1.72-1.732-3.593-3.313-5.59-4.717m-105.85 4.893c-1.5 1.844-2.478 4.107-2.795 6.463-.367 2.727.138 5.484.523 8.209.311 2.203.545 4.419.699 6.639-1.496.266-3.089-.054-4.367-.875-1.384-.889-2.361-2.314-2.971-3.842-1.177-2.953-1.047-6.401.35-9.258-3.187.056-6.365.526-9.432 1.396-7.11 2.02-13.474 6.144-19.04 11.01-.668.584-1.328 1.181-1.891 1.867-.563.686-1.027 1.466-1.252 2.324-.254.966-.195 1.99 0 2.969.272 1.366.807 2.679 1.57 3.844 1.524.394 2.964 1.113 4.193 2.096 2.366 1.89 3.857 4.635 5.764 6.988 2.578 3.182 5.95 5.667 9.607 7.51 2.733 1.377 5.681 2.419 8.734 2.621 3.551.236 7.122-.682 10.307-2.271 3.514-1.754 6.572-4.291 9.955-6.287 3.952-2.332 8.313-3.905 12.752-5.066 2.133-.558 4.29-1.024 6.463-1.396-2.967-.854-5.841-2.028-8.559-3.494-8.55-4.612-15.52-12.304-18.691-21.486-1.107-3.206-1.755-6.568-1.92-9.955m184.24 4.256c-1.882 1.747-4.192 3.03-6.67 3.705-2.733.745-5.665.745-8.398 0l-15.713 227.84c-2.065.422-4.04 1.305-5.678 2.629-2.332 1.88-3.95 4.481-5.59 6.988-2.105 3.218-4.32 6.364-6.639 9.432.116-4.175.947-8.328 2.445-12.227 1.144-2.975 2.676-5.801 4.543-8.385-4.15 2.293-7.85 5.397-10.83 9.08-2.536 3.137-4.551 6.693-5.939 10.48-.308-3.153-.071-6.36.699-9.434.917-3.663 2.593-7.134 4.891-10.131-4.197 3.366-7.865 7.388-10.83 11.877-1.61 2.438-3.02 5.01-4.193 7.688-.774-3.347-.526-6.924.699-10.133 1.382-3.619 4.01-6.746 7.336-8.732-5.975 1.235-11.763 3.361-17.12 6.287-2.809 1.535-5.498 3.289-8.04 5.24.231-3.155 1.391-6.236 3.299-8.76 1.908-2.524 4.558-4.48 7.531-5.563 3.361-1.223 7.02-1.326 10.596-1.146 3.572.18 7.143.627 10.715.447 7.4-.373 14.625-3.542 19.912-8.734l2.445-51.705c-4.432 1.547-8.993 2.718-13.623 3.494-9.402 1.576-19.214 1.493-28.3-1.396-3.97-1.263-7.754-3.041-11.643-4.537-3.888-1.496-7.948-2.723-12.11-2.801-5.693-.107-11.18 1.922-16.549 3.818-5.369 1.897-10.973 3.716-16.641 3.17-5.775-.556-11.06-3.52-16.77-4.543-3.581-.641-7.293-.501-10.83.35-5.194 1.25-9.907 3.981-14.322 6.988-7.417 5.05-14.354 11.05-22.709 14.322-6.22 2.437-13.08 3.298-18.865 6.639-3.677 2.123-6.751 5.164-9.414 8.471-2.664 3.306-4.949 6.896-7.354 10.395-3.552 5.167-7.404 10.203-9.908 15.951-1.252 2.874-2.156 5.918-2.449 9.04-.293 3.121.04 6.325 1.178 9.246 1.82 4.671 5.751 8.471 10.48 10.131l70.57 3.844c34.35 1.871 68.785 6.452 103.06 3.494 10.847-.936 21.614-2.809 32.14-5.59 3.769-1.055 7-3.871 8.568-7.459 1.564-3.588 1.425-7.876-.367-11.355-.968-1.879-2.418-3.486-4.141-4.709l6.441.473 14.08-234.19m23.469 1.729c.035 2.823-1.04 5.645-2.943 7.73-1.904 2.085-4.617 3.411-7.432 3.633-1.126.089-2.258.008-3.387.039-1.129.031-2.28.185-3.283.703-1.076.556-1.921 1.516-2.418 2.621-.497 1.105-.656 2.348-.547 3.555.192 2.122 1.195 4.114 2.559 5.752 1.364 1.638 3.076 2.95 4.852 4.129 2.121 1.409 4.353 2.649 6.67 3.705-.15 1.301-.991 2.5-2.162 3.086-1.171.586-2.635.539-3.766-.121-.992-.579-1.678-1.551-2.375-2.465-.348-.457-.708-.909-1.127-1.303-.419-.394-.9-.729-1.439-.926-.711-.259-1.513-.263-2.223 0-.968.358-1.734 1.219-1.977 2.223l-3.459 75.59c3.578.825 7.383.652 10.871-.494 5.105-1.678 9.406-5.387 12.352-9.881 2.654-4.049 4.282-8.765 4.693-13.588-2.174 1.495-4.776 2.363-7.412 2.471-3.801.156-7.641-1.308-10.375-3.953 3.813-.157 7.597-.996 11.12-2.469 2.602-1.088 5.076-2.531 7.162-4.43 2.087-1.898 3.778-4.266 4.695-6.934.841-2.448 1.014-5.122.494-7.658-2.36 2.524-5.02 4.768-7.906 6.67-1.62 1.068-3.321 2.033-5.148 2.686-1.828.653-3.792.986-5.721.771-1.577-.175-3.122-.722-4.404-1.656-1.282-.934-2.29-2.262-2.76-3.777-.474-1.528-.384-3.224.248-4.693 2.319 2.031 5.321 3.266 8.398 3.457 4.43.275 8.774-1.573 12.352-4.199 2.35-1.725 4.517-3.904 5.436-6.67.344-1.034.5-2.166.203-3.215-.148-.524-.411-1.02-.785-1.416-.374-.396-.862-.689-1.395-.803-.661-.141-1.365 0-1.963.314-.598.315-1.096.795-1.504 1.334-.815 1.078-1.275 2.379-1.969 3.539-1.169 1.953-3.02 3.483-5.154 4.277-2.133.794-4.531.848-6.703.168-2.634-.824-4.909-2.735-6.176-5.188 4.716 1.158 9.867.436 14.08-1.975 4.867-2.784 8.35-7.7 9.881-13.09 1.067-3.761 1.238-7.772.494-11.609-1.427 2.589-3.173 4.999-5.188 7.162-.691.742-1.423 1.463-2.291 1.988-.868.526-1.889.848-2.896.73-1.053-.123-2.037-.742-2.604-1.639-.566-.896-.703-2.051-.361-3.055.874-.402 1.704-.9 2.471-1.482 1.879-1.427 3.35-3.346 4.445-5.436 2.516-4.801 3.052-10.553 1.73-15.811-.759-3.02-2.11-5.889-3.953-8.398m-42.531 11.641c-3.456.932-6.915 1.85-10.379 2.754-1.821.475-3.671.958-5.297 1.906-2.601 1.518-4.387 4.075-6.354 6.355-4.297 4.983-9.705 8.86-15.04 12.709-3.608 2.603-7.209 5.216-10.803 7.838 2.636.673 5.334 1.099 8.05 1.271 3.438.218 6.972.012 10.168-1.271 1.948-.782 3.756-1.976 5.084-3.602 1.544-1.889 2.386-4.338 2.33-6.777 1.212.474 2.288 1.291 3.068 2.332.781 1.041 1.266 2.301 1.381 3.598.161 1.809-.396 3.644-1.381 5.17-.985 1.526-2.379 2.761-3.916 3.729-2.594 1.633-5.594 2.529-8.623 3-3.03.471-6.105.531-9.17.6-5.781.13-10.927-.317-15.887-2.328-5.271-2.137-8.996-7-13.842-9.982-4.04-2.484-8.112-5.116-12.637-6.541-5.096-1.605-10.541-3.046-15.887-2.119.556 1.104.779 2.374.635 3.602-.223 1.892-1.345 3.657-2.965 4.66 1.883.168 3.74.598 5.506 1.271 3.616 1.379 6.64 3.941 9.613 6.381 2.991 2.455 5.403 5.54 8.182 8.234 3.813 3.698 8.04 6.993 12.709 9.533 5.388 2.934 11.45 4.855 17.582 4.66 5.591-.177 11.02-2.106 15.887-4.873 6.05-3.443 11.269-8.143 16.523-12.709 4.924-4.279 10.02-8.582 13.344-14.193 4.451-7.505 5.255-17.06 2.119-25.21m-114.09 13.11c-.449.028-.893.155-1.297.355-.932.461-1.626 1.282-2.445 1.922-1.016.794-2.218 1.308-3.355 1.916-1.137.608-2.257 1.353-2.934 2.451-.354.575-.576 1.247-.523 1.92.039.499.227.982.508 1.396.281.415.651.763 1.063 1.049 1.068.744 2.379 1.059 3.67 1.225 2.433.312 4.912.149 7.336.523 1.237.191 2.453.52 3.699.637 1.246.116 2.56.002 3.637-.637 1.052-.624 1.802-1.753 1.922-2.971.089-.9-.156-1.811-.584-2.607-.427-.797-1.031-1.486-1.688-2.107-1.834-1.737-4.077-2.97-6.287-4.193-.715-.396-1.457-.801-2.271-.873-.15-.013-.299-.015-.449-.006m-93.12 2.916c.838 2.875 1.093 5.918.742 8.893-.371 3.15-1.41 6.216-1.482 9.387-.08 3.528 1.084 7.07 3.211 9.883 1.709 2.262 3.996 4.04 6.475 5.418 2.479 1.376 5.154 2.362 7.854 3.227 5.05 1.615 10.265 2.826 15.563 2.965 5.979.157 12.04-1.093 17.293-3.951 6.797-3.697 11.984-9.876 18.773-13.588 2.145-1.173 4.424-2.083 6.59-3.215 2.166-1.132 4.254-2.52 5.762-4.443.468-.597.881-1.251 1.096-1.979.215-.727.218-1.536-.107-2.221-.287-.604-.805-1.07-1.379-1.412-.574-.342-1.208-.571-1.832-.811-1.359-.521-2.742-1.134-3.705-2.225-.722-.817-1.162-1.875-1.234-2.963-2.734 2.068-5.537 4.04-8.4 5.928-7.901 5.196-16.425 9.727-25.691 11.611-3 .611-6.081.938-9.141.74-3.25-.21-6.471-1.02-9.387-2.471-4.479-2.228-8.104-5.886-11.12-9.881-1.764-2.34-3.382-4.854-5.682-6.67-1.25-.987-2.682-1.744-4.201-2.223m94.37 15.813c-.796.027-1.589.127-2.369.316-2.135.517-4.057 1.662-5.939 2.795-4.126 2.482-8.243 4.983-12.227 7.688-2.53 1.718-5.01 3.516-7.5 5.287 0 .039-.023.078-.033.117-2.979 11.447-5.02 23.12-6.877 34.799-1.908 11.998-3.626 24.03-5.156 36.08-.677-11.675-.356-23.409.957-35.03 1.157-10.242 3.082-20.388 5.459-30.418.161-.677.335-1.351.5-2.027-.674.443-1.339.898-2.023 1.324-1.544.962-3.125 1.869-4.734 2.721-4.147 13.311-8.752 26.49-12.156 40.01-2.972 11.802-4.703 23.916-5.156 36.08-1.299-11.646-.976-23.47.957-35.03 2-11.982 5.711-23.601 9.172-35.25.285-.959.556-1.923.838-2.883-1.635.642-3.296 1.215-4.99 1.686-1.657.461-3.342.81-5.04 1.09-1.188 6.33-2.349 12.666-3.455 19.01-3.663 21.02-6.88 42.17-7.799 63.49-.333 7.715-.354 15.442-.084 23.16 5.142-1.517 10.204-3.171 14.631-6.141 4.114-2.759 7.448-6.505 11.06-9.891 3.617-3.385 7.727-6.522 12.563-7.6 4.973-1.109 10.158.078 15.02 1.596 6.232 1.945 12.466 4.472 18.994 4.365 7.262-.119 14.01-3.478 20.963-5.59 6.74-2.049 13.901-2.941 20.875-1.941 7.658 1.098 14.791 4.404 22.08 6.99 7.291 2.586 15.207 4.478 22.721 2.637 4.045-.991 7.82-3.062 10.83-5.939l2.096-17.816c-3.258.497-6.627.256-9.781-.699-4.091-1.239-7.769-3.653-10.83-6.637-4.047-3.944-7.081-8.92-8.734-14.324 2.445 4.446 5.795 8.393 9.783 11.529 1.612 1.268 3.336 2.409 5.213 3.236 1.877.827 3.916 1.334 5.967 1.305 3.672-.053 7.273-1.92 9.432-4.891-2.744-2.867-5.312-5.903-7.686-9.08-3.756-5.03-7.05-10.479-9.08-16.42-2.789-8.137-3.131-16.907-2.795-25.502.132-3.383.366-6.762.699-10.131-2.05 1.444-4.286 2.62-6.637 3.492-.208.077-.419.142-.629.215-.106 10.11-.609 20.236 1.52 30.08 1.632 7.548 4.81 14.759 9.281 21.05-6.177-4.611-11.05-10.947-13.932-18.1-3.967-9.858-4.068-20.689-4.662-31.359-1.033.105-2.071.175-3.107.207-3.127.096-6.255-.119-9.35-.58.212 7.539.228 15.08-.426 22.586-1.017 11.674-3.66 23.2-7.828 34.16 2.6-11.89 3.952-24.05 4.02-36.22.042-7.156-.249-14.306-.633-21.453-1.21-.281-2.414-.587-3.605-.934-2.02-.587-4.01-1.267-5.971-2.039.297 8.64.431 17.283-.318 25.889-1.017 11.674-3.66 23.2-7.828 34.16 2.6-11.89 3.95-24.05 4.02-36.22.051-8.694-.39-17.377-.893-26.06-1.251-.627-2.481-1.295-3.684-2.01-1.484-.885-2.92-1.841-4.33-2.836-.151 3.345-.293 6.69-.406 10.04-.412 12.141-.58 24.335-2.48 36.33-1.833 11.574-5.278 22.892-10.205 33.523 3.428-11.678 5.629-23.716 6.555-35.852 1.149-15.06.826-30.19 1.24-45.28l.074-2.693c-1.712-1.348-3.414-2.71-5.121-4.061-1.287-1.018-2.592-2.024-3.922-2.994-.213 7.07-.352 14.14-.398 21.21-.079 12.148.085 24.342-1.486 36.39-1.515 11.619-4.648 23.03-9.281 33.789 3.107-11.767 4.976-23.861 5.568-36.02.735-15.08 0-30.2 0-45.3v-13.699c-1.436-.8-2.912-1.523-4.453-2.111-2.251-.86-4.676-1.446-7.06-1.365m108.4 3.324c-1.963 3.543-4.39 6.828-7.201 9.744-3.445 3.573-7.468 6.589-11.863 8.896 1.089 2.611 1.669 5.433 1.695 8.262.047 4.981-1.593 9.848-1.695 14.828-.093 4.525 1.099 9.01 2.967 13.13 2.974 6.564 7.7 12.323 13.557 16.521-1.261-5.184-1.477-10.619-.635-15.887.643-4.02 1.89-7.919 2.568-11.932.679-4.01.753-8.274-.875-12-.747-1.711-1.827-3.253-2.754-4.873-1.296-2.265-2.318-4.812-2.117-7.414.185-2.398 1.385-4.589 2.678-6.617 1.293-2.028 2.724-4.02 3.465-6.305.662-2.043.735-4.271.211-6.354m-252.18 15.447c-4.809 11.328-8.617 23.08-11.363 35.08-5.546 24.22-6.737 49.27-5.93 74.11.609 18.725 2.346 37.442 5.93 55.83.992 5.09 2.133 10.181 4.098 14.98 1.964 4.799 4.798 9.327 8.748 12.688 2.554 2.172 5.594 3.843 8.893 4.445 1.776.324 3.626.332 5.369-.135 1.744-.467 3.375-1.426 4.512-2.828 1.539-1.898 2.065-4.545 1.482-6.918-.364-1.485-1.13-2.853-2.105-4.03-.976-1.177-2.159-2.17-3.414-3.043-2.51-1.746-5.317-3.03-7.82-4.785-5.326-3.733-9.03-9.447-11.311-15.537-2.284-6.09-3.259-12.586-4.01-19.05-2.538-21.951-2.633-44.12-1.975-66.21.497-16.688 1.47-33.624 6.916-49.41 2.143-6.21 4.964-12.185 8.398-17.785-.983-1.157-1.969-2.311-2.963-3.459-1.146-1.324-2.299-2.642-3.459-3.953m77.62 14.832c-2.504 3.31-5.112 6.543-7.824 9.686-.802.929-1.627 1.851-2.465 2.764-2.317 15.211-2.32 30.692-2.359 46.09-.031 12.148-.09 24.297-.176 36.445-1.665-11.563-2.946-23.18-3.842-34.83-1.058-13.75-1.566-27.627-.254-41.33-1.76 1.438-3.612 2.733-5.572 3.824-1.569 14.732-1.072 29.633-.604 44.46.384 12.142.74 24.286 1.068 36.43-2.058-11.5-3.734-23.07-5.03-34.678-1.614-14.498-2.619-29.16-1.498-43.68-1.174.333-2.365.586-3.568.773-2.044 15.83-1.504 31.878-1 47.838.384 12.142.74 24.286 1.068 36.43-2.058-11.5-3.734-23.07-5.03-34.678-1.815-16.302-2.862-32.812-.979-49.09-1.121.027-2.242.02-3.361.006-.708 3.346-1.309 6.714-1.775 10.1-2.231 16.218-1.669 32.675-1.152 49.04.384 12.142.74 24.286 1.068 36.43-2.058-11.5-3.736-23.07-5.03-34.68-1.905-17.11-2.971-34.451-.682-51.52.434-3.238 1-6.457 1.678-9.654-2.309-.259-4.567-.765-6.627-1.818-.286-.146-.551-.321-.824-.484-.775 3.575-1.429 7.176-1.928 10.801-2.231 16.218-1.669 32.675-1.152 49.04.384 12.142.74 24.286 1.068 36.43-2.058-11.5-3.734-23.07-5.03-34.68-1.905-17.11-2.973-34.451-.684-51.52.655-4.88 1.594-9.72 2.789-14.496-1.236-1.526-2.329-3.192-3.326-4.873-.253-.427-.487-.864-.732-1.295-1.715 6.253-3.03 12.614-3.918 19.04-2.331 16.9-1.743 34.05-1.203 51.1.401 12.654.772 25.309 1.115 37.965-2.15-11.984-3.903-24.04-5.254-36.14-1.991-17.832-3.104-35.905-.713-53.688 1.184-8.806 3.242-17.491 6.102-25.904-.591-1.322-1.159-2.654-1.684-4-2.244 5.254-4.227 10.62-5.939 16.07-3.704 11.793-6.14 24-6.988 36.33-1.168 16.98.669 34 1.398 51.01.336 7.831.438 15.695 1.607 23.445 1.169 7.75 3.462 15.459 7.824 21.971 4.105 6.128 10 11.04 16.77 13.975 3.914-5.672 7.2-11.776 9.781-18.17 2.977-7.369 5.04-15.166 9.08-22.01 4.999-8.466 12.927-15.1 22.01-18.865 2.307-.956 4.691-1.736 7.098-2.463.004-6 .02-12 .059-18 .086-13.374.257-26.755 1.113-40.1.964-15.04 2.806-30.01 5.494-44.84m212.15 33.34c-.444 5.47-1.188 10.914-2.225 16.303-.589 3.06-1.279 6.126-2.525 8.982-1.247 2.856-3.086 5.515-5.625 7.322-2.153 1.533-4.77 2.405-7.412 2.471l-1.234 46.44 5.682-3.951.494-23.469c1.554 3.589 2.795 7.314 3.705 11.12.391 1.634.721 3.281.988 4.939l2.471-.494c-.073-3.706-.157-7.41-.248-11.12-.142-5.765-.307-11.53-.494-17.293 2.365 2.946 4.214 6.306 5.436 9.881 1.299 3.801 1.888 7.844 1.729 11.857 1.49-4.13 2.406-8.466 2.717-12.846.394-5.561-.193-11.191-1.729-16.551 2.277 1.714 4.087 4.04 5.188 6.67 1.563 3.734 1.655 8.06.248 11.857 2.882-4.118 4.837-8.88 5.682-13.834 1.609-9.44-.861-19.255-5.436-27.668-2.067-3.801-4.557-7.369-7.41-10.621m-4.199 1.729c-2.53.072-5.05.576-7.412 1.482-1.655.635-3.233 1.466-4.693 2.471v20.504c1.381-.093 2.726-.668 3.748-1.602 1.022-.933 1.716-2.219 1.934-3.586.321-2.02-.367-4.04-.754-6.04-.194-1-.312-2.031-.191-3.045.121-1.014.497-2.02 1.193-2.768.595-.639 1.383-1.058 2.17-1.436.787-.378 1.597-.734 2.275-1.283.68-.551 1.209-1.286 1.512-2.107.303-.821.379-1.726.219-2.586m15.07 58.05c-2.295 5.27-6.111 9.867-10.869 13.09-3.069 2.08-6.52 3.596-10.129 4.447.816 4.563 1.23 9.198 1.234 13.834.005 5.137-.49 10.275-1.48 15.316 1.756-1.968 3.405-4.03 4.939-6.176 5.16-7.214 8.981-15.325 11.857-23.715 1.88-5.484 3.368-11.1 4.447-16.799m-183.61 5.258c1.797.017 3.589.404 5.197 1.199 1.994.986 3.663 2.576 4.887 4.434 1.223 1.858 2.01 3.979 2.473 6.156.694 3.293.632 6.75-.248 9.998-.881 3.248-2.586 6.28-4.957 8.668-3.339 3.363-7.806 5.327-12.217 7.06-4.411 1.733-8.957 3.353-12.73 6.221-2.027 1.54-3.781 3.405-5.727 5.05-1.945 1.642-4.156 3.09-6.656 3.566-1.979.377-4.02.126-6.02-.096-2-.221-4.058-.408-6.01.096-2.221.574-4.137 2.01-5.701 3.686-1.564 1.678-2.825 3.611-4.17 5.469-2.986 4.125-6.423 7.924-10.23 11.307 2.175-6.41 5.333-12.485 9.332-17.947 3.422-4.674 7.609-9 12.924-11.307 3.36-1.455 7.03-2.038 10.664-2.447 3.638-.409 7.31-.66 10.873-1.502 6.505-1.538 12.583-5.138 16.691-10.41.718-.921 1.371-1.896 1.932-2.92-2.372-.316-4.793-.252-7.137.229-4.829.989-9.288 3.702-12.385 7.537 1.808-3.61 4.726-6.654 8.256-8.613 1.91-1.06 3.983-1.805 6.102-2.334 2.205-.55 4.469-.856 6.74-.939.394-1.823.411-3.732-.1-5.521-.059-.205-.14-.404-.213-.605-1.763-.081-3.535.048-5.264.402-4.829.989-9.288 3.704-12.385 7.539 1.808-3.61 4.726-6.656 8.256-8.615 1.91-1.06 3.984-1.805 6.104-2.334.401-.1.807-.179 1.211-.264-1.087-1.029-2.5-1.73-3.99-1.867-1.814-.167-3.631.496-5.129 1.531-1.498 1.035-2.714 2.425-3.844 3.854-2.209 2.794-4.162 5.811-6.678 8.332-1.258 1.261-2.657 2.394-4.221 3.246-1.564.853-3.298 1.419-5.076 1.523-2.095.123-4.169-.391-6.199-.922-2.03-.531-4.086-1.089-6.184-1.053-2.142.037-4.268.711-6.04 1.914-1.773 1.203-3.184 2.93-4.01 4.906-.366-2.18-.083-4.465.803-6.49.886-2.026 2.373-3.785 4.223-4.996 2.174-1.424 4.767-2.067 7.34-2.436 2.573-.368 5.183-.486 7.736-.975 4.117-.788 8.05-2.562 11.307-5.205 4.311-3.503 7.374-8.448 12.03-11.486 2-1.308 4.277-2.228 6.65-2.529.593-.075 1.192-.111 1.791-.105m89.7 4.139c4.861 2.517 8.68 6.976 10.42 12.166 1.8 5.368 1.345 11.452-1.227 16.496-1.38 2.708-3.345 5.116-5.721 7.01 1.892-3.723 3.077-7.804 3.473-11.961.355-3.723.078-7.504-.816-11.135-1.124-4.563-3.228-8.881-6.129-12.578m-13.787 1.023c6.03 3.064 10.785 8.563 12.943 14.977 2.224 6.607 1.659 14.1-1.523 20.305-1.714 3.341-4.155 6.306-7.105 8.629 2.351-4.576 3.823-9.6 4.314-14.721.44-4.582.094-9.24-1.016-13.707-1.397-5.624-4.01-10.942-7.613-15.482m26.346 1.064c3.689 1.97 6.577 5.391 7.898 9.359 1.376 4.131 1.031 8.806-.93 12.693-1.046 2.075-2.534 3.927-4.336 5.395 1.434-2.87 2.332-6.01 2.633-9.203.27-2.864.061-5.771-.619-8.566-.852-3.503-2.446-6.822-4.646-9.678m13.32 2.234c2.627 1.473 4.671 3.955 5.613 6.816.991 3.01.746 6.405-.66 9.244-.744 1.502-1.801 2.848-3.082 3.928 1.019-2.097 1.657-4.379 1.871-6.701.193-2.085.045-4.203-.439-6.24-.605-2.542-1.737-4.955-3.303-7.05m-48.92 9.387c1.071.028 2.138.199 3.162.514 3.691 1.132 6.739 4.175 7.867 7.867.524 1.717.65 3.576.201 5.314-.448 1.738-1.494 3.344-2.992 4.332-1.208.797-2.666 1.171-4.113 1.207-1.447.036-2.887-.253-4.264-.699-1.819-.589-3.537-1.47-5.1-2.572-.355-.208-.696-.442-.992-.729.319.258.657.492.992.729.677.396 1.434.655 2.217.715 1.193.092 2.414-.245 3.391-.936.933-.66 1.638-1.638 1.961-2.734.323-1.096.26-2.304-.184-3.357-.29-.69-.741-1.313-1.311-1.799-.57-.486-1.259-.832-1.99-.992-1.165-.255-2.402-.028-3.48.48-1.079.508-2.01 1.282-2.84 2.141-1.656 1.716-2.951 3.8-4.848 5.246-1.567 1.195-3.5 1.896-5.467 2.02-1.967.122-3.961-.33-5.701-1.256-3.191-1.697-5.448-5.04-5.836-8.629 1.349 1.535 3.154 2.664 5.125 3.201 1.971.538 4.1.482 6.04-.156 2.5-.822 4.593-2.543 6.574-4.275 1.982-1.732 3.964-3.542 6.371-4.607 1.633-.723 3.43-1.069 5.215-1.021m90.51 2.092c-2.326 1.652-3.894 4.328-4.199 7.164-.274 2.548.424 5.096.494 7.658.118 4.293-1.625 8.604-4.693 11.609 2.808-1.163 5.358-2.947 7.412-5.188 1.813-1.978 3.245-4.32 4.057-6.877.812-2.557.991-5.331.389-7.945-.552-2.398-1.761-4.641-3.459-6.422m-136.18 4.951c.358 10.04-4.677 20.11-12.922 25.844-7.547 5.251-16.984 6.768-26.03 8.436-4.582.845-9.246 1.799-13.281 4.129-4.235 2.445-7.588 6.379-9.332 10.947-.339-5.563 1.887-11.231 5.922-15.08 3.03-2.889 6.939-4.714 10.949-5.922 8.366-2.519 17.423-2.553 25.484-5.924 9.42-3.939 16.766-12.519 19.21-22.434m-.539 24.588c.448 3.183-.354 6.525-2.197 9.158-1.843 2.633-4.709 4.531-7.854 5.199-2.467.525-5.03.313-7.533.029-2.507-.284-5.03-.636-7.543-.387-4.077.405-7.853 2.382-11.127 4.846-2.917 2.195-5.522 4.8-7.717 7.717-.082-4.45 2.133-8.882 5.742-11.486 3.732-2.693 8.518-3.358 13.1-3.77 3.535-.318 7.092-.536 10.568-1.252 3.476-.716 6.905-1.96 9.713-4.131 2.035-1.574 3.706-3.617 4.846-5.924" transform="translate(-18.199 25.387)" fill="#ffd700"/></g><g stroke="#000" stroke-linecap="round" stroke-width="5" fill="#ffd700" stroke-linejoin="round"><path d="m377.66 660.14c-2.258 0-4.076 2.314-4.076 5.188v110.85c0 2.874 1.818 5.188 4.076 5.188 2.258 0 4.076-2.314 4.076-5.188v-110.85c0-2.874-1.818-5.188-4.076-5.188zm20.813 0c-2.258 0-4.076 2.314-4.076 5.188v110.85c0 2.874 1.818 5.188 4.076 5.188 2.258 0 4.076-2.314 4.076-5.188v-110.85c0-2.874-1.818-5.188-4.076-5.188zm20.813 0c-2.258 0-4.076 2.314-4.076 5.188v110.85c0 2.874 1.818 5.188 4.076 5.188 2.258 0 4.074-2.314 4.074-5.188v-110.85c0-2.874-1.816-5.188-4.074-5.188zm20.813 0c-2.258 0-4.076 2.314-4.076 5.188v110.85c0 2.874 1.818 5.188 4.076 5.188 2.258 0 4.074-2.314 4.074-5.188v-110.85c0-2.874-1.816-5.188-4.074-5.188zm20.813 0c-2.258 0-4.076 2.314-4.076 5.188v110.85c0 2.874 1.818 5.188 4.076 5.188 2.258 0 4.074-2.314 4.074-5.188v-110.85c0-2.874-1.816-5.188-4.074-5.188z"/><path d="m363.86 712.61c-2.874 0-5.188 1.818-5.188 4.076 0 2.258 2.314 4.076 5.188 4.076h110.85c2.874 0 5.188-1.818 5.188-4.076 0-2.258-2.314-4.076-5.188-4.076h-110.85zm0 30.553c-2.874 0-5.188 1.818-5.188 4.076 0 2.258 2.314 4.076 5.188 4.076h110.85c2.874 0 5.188-1.818 5.188-4.076 0-2.258-2.314-4.076-5.188-4.076h-110.85z"/></g><g transform="translate(909.47)"><path d="m-220.98 95.33l-96.63 188.99 96.63 27.451 96.63-27.451-96.63-188.99z" fill="#f00" fill-rule="evenodd" stroke="#000" stroke-linejoin="round" stroke-width="8" id="0"/><path fill="#fff" stroke="#000" stroke-linecap="round" stroke-width="8" d="m-292.73 346.55h143.49v298.69h-143.49z" id="1"/><path d="m-247.88939 397.52344a12.445283 10.52358 0 0 0 -12.44531 10.52539v44.29h24.891v-44.29a12.445283 10.52358 0 0 0 -12.44532 -10.52539zm53.8086 0a12.445283 10.52358 0 0 0 -12.44532 10.52539v44.29h24.893v-44.29a12.445283 10.52358 0 0 0 -12.44726 -10.52539z" stroke="#000" stroke-linecap="round" id="2"/><path d="m-317.62 311.78c8.02 2.998 14.975 8.772 19.398 16.11 3.387 5.616 5.3 12.11 5.492 18.668h71.74 71.74c.193-6.555 2.103-13.05 5.49-18.668 4.423-7.334 11.378-13.11 19.4-16.11h-96.63-96.63z" fill="#fff" fill-rule="evenodd" stroke="#000" stroke-linejoin="round" stroke-width="8" id="3"/><rect rx="10.432" y="337.4" x="-304.99" height="20.864" width="168.01" fill="#fff" stroke="#000" stroke-linecap="round" stroke-width="8" id="4"/><path transform="translate(-18.199 25.387)" d="m-299.42 231.49v54.904h193.27v-54.904h-34.22v31.11h-38.07v-31.11h-48.682v31.11h-38.07v-31.11h-34.22z" fill="#fff" stroke="#000" stroke-linejoin="round" stroke-linecap="round" stroke-width="8" id="5"/><circle r="19.5" cy="95.5" cx="-220.98" fill="#ffd700" stroke="#000" stroke-linejoin="round" stroke-linecap="round" stroke-width="8"/><path d="m-203.78 241.31h45.04" fill="none" fill-rule="evenodd" stroke="#000" stroke-linecap="round" stroke-width="5" id="6"/><path d="m-203.78 230.36h39.15" fill="none" fill-rule="evenodd" stroke="#000" stroke-linecap="round" stroke-width="5" id="7"/><path d="m-203.78 219.41h34.36" fill="none" fill-rule="evenodd" stroke="#000" stroke-linecap="round" stroke-width="5" id="8"/><path d="m-203.78 208.45h28.81" fill="none" fill-rule="evenodd" stroke="#000" stroke-linecap="round" stroke-width="5" id="9"/><path d="m-203.78 197.5h25.394" fill="none" fill-rule="evenodd" stroke="#000" stroke-linecap="round" stroke-width="5" id="A"/><path d="m-203.78 186.55h20.483" fill="none" fill-rule="evenodd" stroke="#000" stroke-linecap="round" stroke-width="5" id="B"/><path d="m-203.78 175.6h15.786" fill="none" fill-rule="evenodd" stroke="#000" stroke-linecap="round" stroke-width="5" id="C"/><path d="m-203.78 164.64h11.729" fill="none" fill-rule="evenodd" stroke="#000" stroke-linecap="round" stroke-width="5" id="D"/><path d="m-203.78 153.69h8.318" fill="none" fill-rule="evenodd" stroke="#000" stroke-linecap="round" stroke-width="5" id="E"/><path d="m-203.78 142.74h5.111" fill="none" fill-rule="evenodd" stroke="#000" stroke-linecap="round" stroke-width="5" id="F"/></g><g transform="translate(371.07)"><use xlink:href="#0"/><use xlink:href="#1"/><use xlink:href="#2"/><use xlink:href="#3"/><use xlink:href="#4"/><use xlink:href="#5"/><circle r="19.5" cy="95.5" cx="-220.98" fill="#ffd700" stroke="#000" stroke-linejoin="round" stroke-linecap="round" stroke-width="8"/><use xlink:href="#6"/><use xlink:href="#7"/><use xlink:href="#8"/><use xlink:href="#9"/><use xlink:href="#A"/><use xlink:href="#B"/><use xlink:href="#C"/><use xlink:href="#D"/><use xlink:href="#E"/><use xlink:href="#F"/></g><g stroke="#000"><g stroke-linecap="round"><g fill="#fff"><g stroke-width="5"><path d="m171.69 700.26h84.78v28.993h-84.78z"/><path d="m86.91 700.26h84.78v28.993h-84.78z"/><path d="m256.47 700.26h84.78v28.993h-84.78z"/></g><path d="m22.578 553.26l3.184 47.662c.6 6.566 1.373 13.08 2.305 19.545h782.44c.929-6.464 1.699-12.979 2.297-19.545l3.184-47.662h-62.969v42h-45.738v-42h-49.805v42h-45.738v-42h-49.805v42h-45.738v-42h-193.82v42h-45.738v-42h-49.805v42h-45.738v-42h-49.805v42h-45.738v-42h-62.971z" stroke-width="8"/><g stroke-width="5"><path d="m31.859 642.27c2.01 9.806 4.399 19.474 7.146 28.992h47.902v-28.992h-55.05z"/><path d="m751.66 642.27v28.992h47.93c2.744-9.518 5.129-19.19 7.131-28.992h-55.06z"/><path d="m48.662 700.26c3.734 9.862 7.868 19.531 12.379 28.992h25.867v-28.992h-38.25z"/><path d="m751.66 700.26v28.992h25.922c4.506-9.461 8.634-19.13 12.363-28.992h-38.29z"/><path d="m76.42 758.24c3.354 5.718 6.851 11.342 10.488 16.871v-16.871h-10.488z"/><path d="m751.66 758.24v16.99c3.662-5.566 7.182-11.232 10.557-16.99h-10.557z"/><path d="m118.03 816.23c8.771 10.126 18.06 19.802 27.818 28.994h25.836v-28.994h-53.654z"/><path d="m666.88 816.23v28.994h25.945c9.756-9.192 19.04-18.868 27.805-28.994h-53.75z"/><path d="m180.34 874.22c14.183 10.613 29.1 20.305 44.666 28.992h31.459v-28.992h-76.12z"/><path d="m582.1 874.22v28.992h31.59c15.559-8.686 30.477-18.38 44.656-28.992h-76.25z"/><path d="m289.94 932.2c16.649 5.717 33.782 10.367 51.31 13.867v-13.867h-51.31z"/><path d="m497.32 932.2v13.893c17.573-3.503 34.75-8.162 51.44-13.893h-51.44z"/><path d="m214.08 671.27h84.78v28.993h-84.78z"/><path d="m129.3 671.27h84.78v28.993h-84.78z"/><g transform="translate(-18.199 25.387)"><path d="m317.06 645.88v28.994h42.39v-28.994h-42.39zm196.27 0v28.994h44.576v-28.994h-44.576zm-196.27 57.986v28.992h42.39v-28.992h-42.39zm196.27 0v28.992h44.578v-28.992h-44.578zm-196.27 57.986v28.992h42.39v-28.992h-42.39zm196.27 0v28.992h44.578v-28.992h-44.578zm-196.27 57.986v28.992h42.39v-28.992h-42.39zm196.27 0v28.992h44.578v-28.992h-44.578zm-196.27 57.986v28.992h42.39v-28.992h-42.39zm196.27 0v28.992h44.578v-28.992h-44.578z"/><path d="m46.27 595.08c1.057 7.339 2.321 14.612 3.793 21.811h774.86c1.47-7.198 2.732-14.471 3.787-21.811h-782.44zm16.451 50.803v17.492c1.321 3.862 2.703 7.696 4.145 11.502h80.64v-28.994h-84.78zm664.75 0v28.994h80.67c1.427-3.774 2.796-7.576 4.105-11.404v-17.59h-84.78zm-648.23 57.986c4.72 9.9 9.853 19.572 15.379 28.992h52.879v-28.992h-68.26zm648.23 0v28.992h52.945c5.521-9.421 10.65-19.09 15.365-28.992h-68.31zm-614.05 57.986c7.148 10.02 14.764 19.696 22.816 28.992h11.266v-28.992h-34.08zm614.05 0v28.992h11.359c8.05-9.296 15.659-18.971 22.803-28.992h-34.16zm-563.42 57.986c10.925 10.29 22.441 19.975 34.492 28.992h33.734v-28.992h-68.23zm478.64 0v28.992h33.855c12.05-9.02 23.559-18.702 34.48-28.992h-68.34zm-399.48 57.986c20.598 11.498 42.32 21.23 64.93 28.992h8.918v-28.992h-73.848zm314.7 0v28.992h9.05c22.614-7.764 44.33-17.494 64.928-28.992h-73.977z"/></g><path d="m171.69 642.27h84.78v28.993h-84.78z"/><path d="m86.91 642.27h84.78v28.993h-84.78z"/><path d="m256.47 642.27h84.78v28.993h-84.78z"/><path d="m171.69 758.25h84.78v28.993h-84.78z"/><path d="m105.11 732.86v16.871c2.694 4.095 5.464 8.136 8.309 12.12h76.47v-28.994h-84.78zm579.97 0v28.994h76.55c2.816-3.95 5.56-7.952 8.229-12.01v-16.986h-84.78z" transform="translate(-18.199 25.387)"/><path d="m256.47 758.25h84.78v28.993h-84.78z"/><path d="m214.08 729.25h84.78v28.993h-84.78z"/><path d="m129.3 729.25h84.78v28.993h-84.78z"/><path d="m171.69 816.23h84.78v28.993h-84.78z"/><path d="m256.47 816.23h84.78v28.993h-84.78z"/><path d="m214.08 787.24h84.78v28.993h-84.78z"/><path d="m129.3 787.24h84.78v28.993h-84.78z"/><path d="m256.47 874.22h84.78v28.993h-84.78z"/><path d="m214.08 845.22h84.78v28.993h-84.78z"/><g transform="scale(-1 1)"><path d="m-666.88 700.26h84.78v28.993h-84.78z"/><path d="m-751.66 700.26h84.78v28.993h-84.78z"/><path d="m-582.1 700.26h84.78v28.993h-84.78z"/><path d="m-624.49 671.27h84.78v28.993h-84.78z"/><path d="m-709.27 671.27h84.78v28.993h-84.78z"/><path d="m-666.88 642.27h84.78v28.993h-84.78z"/><path d="m-751.66 642.27h84.78v28.993h-84.78z"/><path d="m-582.1 642.27h84.78v28.993h-84.78z"/><path d="m-666.88 758.25h84.78v28.993h-84.78z"/><path d="m-582.1 758.25h84.78v28.993h-84.78z"/><path d="m-624.49 729.25h84.78v28.993h-84.78z"/><path d="m-709.27 729.25h84.78v28.993h-84.78z"/><path d="m-666.88 816.23h84.78v28.993h-84.78z"/><path d="m-582.1 816.23h84.78v28.993h-84.78z"/><path d="m-624.49 787.24h84.78v28.993h-84.78z"/><path d="m-709.27 787.24h84.78v28.993h-84.78z"/><path d="m-582.1 874.22h84.78v28.993h-84.78z"/><path d="m-624.49 845.22h84.78v28.993h-84.78z"/></g></g><path d="m329.28 521.87v391.56c9.91 2.797 19.972 5.214 30.17 7.25v.008c.212.042.425.081.637.123.584.116 1.169.227 1.754.34 1.342.26 2.687.512 4.03.758.646.118 1.291.237 1.938.352 1.507.268 3.02.525 4.529.775.434.072.866.148 1.301.219 1.914.311 3.832.605 5.754.889.144.021.286.045.43.066v-.006c2.129.311 4.263.601 6.402.879v-242.14-2.389h.143a51.25684 42.989269 0 0 1 51.11524 -40.59961 51.25684 42.989269 0 0 1 51.15429 40.59961h.102v2.389 242.16c.518-.067 1.039-.126 1.557-.195.046-.006.093-.011.139-.018.028-.004.056-.008.084-.012 2.566-.344 5.124-.715 7.676-1.107.227-.035.453-.07.68-.105 5.104-.794 10.177-1.684 15.219-2.67.182-.035.363-.07.545-.105.387-.076.777-.147 1.164-.225v-.016c10.09-2.02 20.06-4.407 29.879-7.174v-391.6h-216.4z" transform="translate(-18.199 25.387)" stroke-linejoin="round" stroke-width="8"/></g><path d="m361.91 600.92v27.504h27.504v-27.504h-27.504zm87.25 0v27.504h27.502v-27.504h-27.502z"/></g><g fill="#fff" stroke-linejoin="round" stroke-width="8"><path d="m284.55 517.3c6.347 5.628 12.263 11.739 17.68 18.268 3.122 3.762 6.078 7.663 8.857 11.686h108.2 108.2c2.779-4.02 5.736-7.923 8.857-11.686 5.417-6.528 11.333-12.64 17.68-18.268h-134.74-134.74z" fill-rule="evenodd"/><g stroke-linecap="round"><rect width="247.82" height="31.824" x="295.38" y="529.67" rx="14.439"/><path d="m284.55 465.48v51.816h269.47v-51.816h-39.471v27.09h-71.26v-27.09h-48.01v27.09h-71.26v-27.09h-39.471z"/></g></g><path d="m-12.32 30.887l38.08 570.03c18.15 198.6 189.89 352.73 393.52 352.88 203.72-.098 375.43-154.2 393.52-352.88l38.08-570.03h-431.61z" fill="none" fill-rule="evenodd" stroke-width="11"/></g><g fill="#fff" fill-rule="evenodd"><path d="m273.86 132.12c-.292.004-.584.046-.867.115-.944.231-1.83.783-2.348 1.605-.464.738-.606 1.644-.551 2.514.056.87.296 1.717.551 2.551.818 2.679 1.791 5.308 2.842 7.904 2.024 5 4.366 9.968 5.063 15.316.442 3.396.203 6.843-.123 10.252-.098 1.021-.203 2.045-.168 3.07.035 1.025.214 2.06.662 2.982.442.91 1.166 1.71 2.1 2.1.6.25 1.27.324 1.914.23.644-.093 1.259-.35 1.791-.725.625-.44 1.132-1.037 1.51-1.701.378-.664.63-1.393.797-2.139.334-1.491.329-3.03.412-4.559.14-2.555.536-5.1.494-7.658-.08-4.924-1.773-9.676-3.707-14.205-2.091-4.896-4.486-9.654-6.793-14.451-.306-.637-.613-1.28-1.043-1.842-.43-.561-.997-1.042-1.674-1.246-.279-.084-.57-.119-.861-.115"/><path d="m256.07 135.9c-.084.007-.167.022-.248.047-.232.07-.438.216-.598.398-.16.183-.275.401-.352.631-.153.46-.157.956-.162 1.441-.017 1.693-.063 3.4.248 5.064.51 2.734 1.951 5.197 3.457 7.535 2.804 4.355 5.968 8.612 7.412 13.586 1.349 4.647 1.101 9.621 2.223 14.328.191.802.423 1.598.773 2.344.351.746.824 1.441 1.449 1.979.562.483 1.251.833 1.986.926.735.092 1.514-.089 2.09-.555.463-.375.774-.91.973-1.471.198-.561.292-1.153.387-1.74.415-2.577.863-5.174.74-7.781-.159-3.38-1.272-6.643-2.594-9.758-1.964-4.629-4.406-9.04-6.793-13.465-2.537-4.706-5.142-9.595-9.387-12.846-.269-.206-.548-.405-.861-.533-.235-.096-.493-.151-.744-.131"/><path d="m259.95 164.42c-.361.038-.709.157-1.041.305-1.031.459-1.95 1.223-2.471 2.225-.334.643-.497 1.367-.523 2.092-.026.724.082 1.45.268 2.15.371 1.402 1.045 2.7 1.615 4.03 1.163 2.718 1.903 5.595 2.842 8.398.324.967.685 1.95 1.357 2.717.571.651 1.366 1.119 2.225 1.236.646.088 1.316-.025 1.902-.311.586-.285 1.087-.743 1.432-1.297.571-.919.696-2.056.586-3.133-.11-1.077-.436-2.119-.709-3.166-.757-2.908-1.128-5.959-2.471-8.646-.809-1.618-1.948-3.056-2.717-4.693-.153-.327-.293-.661-.482-.969-.189-.307-.436-.589-.754-.76-.32-.172-.697-.22-1.059-.182"/><path d="m297.7 165.54c-.118.006-.234.025-.348.059-.226.066-.437.182-.625.324-.376.284-.663.669-.947 1.045-1.836 2.425-3.857 4.723-5.414 7.336-1.384 2.323-2.4 4.999-2.096 7.686.077.683.239 1.356.277 2.043.038.687-.06 1.41-.453 1.975-.208.299-.492.541-.811.719-.318.178-.671.293-1.029.357-.717.129-1.454.061-2.178-.027-1.314-.161-2.621-.392-3.943-.467-1.322-.075-2.672.013-3.916.467-1.01.368-1.913.964-2.795 1.572-1.211.835-2.406 1.709-3.434 2.762-1.028 1.053-1.891 2.298-2.332 3.701-.444 1.41-.444 2.957 0 4.367-.532-.103-1.033-.359-1.432-.727-.399-.368-.692-.849-.838-1.371-.136-.489-.144-1.01-.068-1.508.075-.502.232-.989.418-1.461.393-.997.922-1.941 1.57-2.795-.624-.679-1.475-1.144-2.383-1.301-.908-.157-1.867-.003-2.682.428-.573.303-1.067.732-1.561 1.152-.493.421-.998.84-1.584 1.117-1.125.532-2.431.488-3.668.35-.491-.055-.985-.123-1.477-.074-.246.025-.49.081-.717.178-.227.097-.437.238-.602.422-.225.252-.359.579-.402.914-.043.335 0 .677.1 1 .198.646.606 1.206 1 1.754.955 1.324 1.902 2.746 2.096 4.367.108.9-.026 1.808-.141 2.707-.115.899-.212 1.818-.035 2.707.149.748.489 1.451.945 2.063.456.612 1.024 1.135 1.643 1.582 1.237.893 2.665 1.48 4.051 2.119 2.385 1.1 4.739 2.389 7.334 2.795 1.155.181 2.339.181 3.494 0-1.063 2.917-1.712 5.986-1.922 9.08-.142 2.095-.082 4.205.176 6.289 2.608.96 5.478 1.203 8.211.697 2.326-.431 4.524-1.385 6.639-2.445 1-.502 1.994-1.034 2.867-1.734.873-.701 1.625-1.586 2.02-2.633.322-.852.397-1.779.373-2.689-.024-.911-.143-1.815-.199-2.725-.219-3.562.548-7.102.875-10.656.134-1.454.193-2.921.506-4.348.313-1.426.901-2.833 1.938-3.861.772-.765 1.749-1.281 2.676-1.85.927-.568 1.847-1.228 2.393-2.168.421-.725.593-1.577.588-2.416-.005-.839-.184-1.669-.416-2.475-.45-1.56-1.114-3.048-1.746-4.543-.481-1.138-.946-2.288-1.223-3.492-.564-2.454-.327-5.02 0-7.512.178-1.362.385-2.734.873-4.02.539-1.418 1.418-2.711 1.75-4.191.115-.511.159-1.053.004-1.553-.078-.25-.205-.486-.385-.676-.18-.19-.413-.334-.668-.393-.115-.027-.234-.035-.352-.029"/><path d="m538.88 166.33c-1.545.037-3.111.269-4.66.242-1.735-.03-3.495-.382-5.188 0-1.029.232-1.983.728-2.838 1.346-.855.617-1.616 1.356-2.35 2.113-.736.759-1.456 1.548-1.977 2.469-.294.519-.526 1.092-.527 1.688 0 .298.058.599.188.867.129.268.33.505.586.658.327.196.723.248 1.104.221.38-.027.752-.127 1.121-.221 1.628-.415 3.285-.698 4.939-.988 1.56-.274 3.122-.556 4.695-.742 1.314-.156 2.651-.244 3.951 0 .86.161 1.706.474 2.393 1.016.687.542 1.203 1.327 1.313 2.195.031.246.03.496 0 .742-.056.46-.211.909-.465 1.297-.253.388-.603.714-1.016.926-.64.328-1.395.37-2.107.271-.713-.098-1.4-.327-2.094-.518-2.644-.728-5.438-.9-8.15-.494-2.51.376-4.923 1.234-7.412 1.729-.817.162-1.648.287-2.434.564-.786.278-1.539.727-2.01 1.412-.539.776-.663 1.787-.492 2.717.162.878.575 1.708 1.184 2.361.608.653 1.408 1.127 2.273 1.344 1.037.26 2.139.153 3.172-.121 1.033-.274 2.01-.709 3-1.113 2.749-1.122 5.692-2.025 8.646-1.729 2.188.22 4.26 1.087 6.424 1.482.762.139 1.546.223 2.254.537.354.157.685.373.947.658.262.285.451.644.504 1.027.044.325-.011.659-.145.959-.133.299-.343.563-.598.77-.317.257-.699.426-1.098.516-.398.089-.812.101-1.219.063-.813-.077-1.593-.349-2.377-.578-3.431-1-7.05-1.215-10.621-.988-3.555.226-7.204.931-10.129 2.965-1.512 1.051-2.812 2.475-3.459 4.199-.412 1.1-.546 2.324-.246 3.459.133.504.353.99.686 1.391.333.401.782.712 1.289.832.418.099.863.067 1.275-.053.413-.12.797-.325 1.152-.566.712-.483 1.315-1.111 2.02-1.604 1.441-1.01 3.216-1.391 4.941-1.729 1.887-.369 3.78-.708 5.682-.988.811-.119 1.632-.229 2.449-.156.817.073 1.639.343 2.244.896.633.579.97 1.407 1.234 2.223.118.365.226.738.25 1.121.024.383-.042.781-.25 1.104-.134.209-.323.379-.537.504-.214.125-.453.206-.697.252-.488.091-.99.044-1.482-.016-2.142-.259-4.265-.756-6.422-.74-2.429.018-4.798.686-7.164 1.234-1.012.235-2.037.45-2.996.85-.959.4-1.862 1-2.439 1.867-.504.754-.734 1.677-.711 2.584.023.907.291 1.801.711 2.605.352.676.816 1.298 1.402 1.785.587.487 1.301.833 2.057.932.588.077 1.189.003 1.758-.162.569-.166 1.108-.422 1.623-.715 1.03-.587 1.974-1.322 3.041-1.84 1.803-.875 3.864-1.078 5.867-1.01 2 .068 3.99.393 5.99.516 2.078.128 4.214.045 6.176.74 1.485.526 2.795 1.48 3.887 2.615 1.092 1.136 1.979 2.454 2.783 3.809 1.5 2.526 2.748 5.249 3.213 8.15.208 1.299.256 2.635.002 3.926-.253 1.291-.822 2.537-1.732 3.486-.881.918-2.032 1.518-3.123 2.172-1.091.654-2.18 1.414-2.807 2.521h.002c-.476.841-.65 1.823-.672 2.789-.021.966.102 1.929.178 2.893.089 1.125.115 2.268.439 3.35.162.541.399 1.063.736 1.516.337.453.777.833 1.293 1.063.538.24 1.144.308 1.729.24.585-.068 1.149-.268 1.67-.543 1.041-.55 1.899-1.382 2.777-2.166 3.01-2.687 6.488-4.992 8.646-8.4 1.345-2.123 2.103-4.575 2.5-7.06.397-2.481.446-5 .465-7.518.097-12.954-.651-26.16-5.188-38.29-2.916-7.8-7.583-15.239-14.574-19.764-1.15-.744-2.375-1.411-3.707-1.729-.904-.215-1.823-.264-2.75-.242"/><path d="m252.07 171.7c-.414-.015-.834.099-1.195.307-.455.261-.822.663-1.084 1.117-.262.455-.424.961-.523 1.477-.346 1.801.061 3.654.494 5.436.644 2.648 1.354 5.295 2.471 7.781.202.45.418.895.695 1.303.277.408.619.78 1.035 1.045.465.296 1.01.451 1.559.512.548.061 1.103.031 1.652-.018.349-.031.698-.07 1.037-.16.339-.09.669-.236.939-.459.315-.26.54-.62.66-1.01.121-.39.139-.809.08-1.213-.155-1.069-.823-1.984-1.482-2.84-1.327-1.723-2.739-3.467-3.334-5.559-.421-1.48-.405-3.046-.617-4.57-.09-.643-.226-1.29-.535-1.861-.155-.285-.352-.551-.596-.766-.243-.215-.532-.379-.846-.461-.134-.035-.272-.055-.41-.06"/><path d="m292.05 106.74c-.292.004-.584.046-.867.115-.944.231-1.83.783-2.348 1.605-.464.738-.606 1.644-.551 2.514.056.87.296 1.717.551 2.551.818 2.679 1.791 5.308 2.842 7.904 2.024 5 4.366 9.968 5.063 15.316.442 3.396.203 6.843-.123 10.252-.098 1.021-.203 2.045-.168 3.07.035 1.025.214 2.06.662 2.982.442.91 1.166 1.71 2.1 2.1.6.25 1.27.324 1.914.23.644-.093 1.259-.35 1.791-.725.625-.44 1.132-1.037 1.51-1.701.378-.664.63-1.393.797-2.139.334-1.491.329-3.03.412-4.559.14-2.555.536-5.1.494-7.658-.08-4.924-1.773-9.676-3.707-14.205-2.091-4.896-4.486-9.653-6.793-14.451-.306-.637-.613-1.28-1.043-1.842-.43-.561-.997-1.042-1.674-1.246-.279-.084-.57-.119-.861-.115m-17.789 3.773c-.084.007-.167.022-.248.047-.232.07-.438.216-.598.398-.16.183-.275.401-.352.631-.153.46-.157.956-.162 1.441-.017 1.693-.063 3.4.248 5.064.51 2.734 1.951 5.197 3.457 7.535 2.804 4.355 5.968 8.612 7.412 13.586 1.349 4.647 1.101 9.621 2.223 14.328.191.802.423 1.598.773 2.344.351.746.824 1.441 1.449 1.979.562.483 1.251.833 1.986.926.735.092 1.514-.089 2.09-.555.463-.375.774-.91.973-1.471.198-.561.292-1.153.387-1.74.415-2.577.863-5.174.74-7.781-.159-3.38-1.272-6.643-2.594-9.758-1.964-4.629-4.406-9.04-6.793-13.465-2.537-4.706-5.142-9.595-9.387-12.846-.269-.206-.548-.405-.861-.533-.235-.096-.493-.151-.744-.131m152.9 23.08c-4.4 0-8.8.393-13.09 1.176-4.589.837-9.361 2.168-13.09 4.941-3.793 2.818-6.483 7.06-6.807 11.609-.265 3.718 1.01 7.391 1.047 11.12.051 5.181-2.282 10.144-2.619 15.316-.357 5.487 1.559 10.906 4.189 15.811 3.534 6.589 8.395 12.524 14.14 17.539 2.784 2.43 5.802 4.638 8.904 6.67.752.492 1.509 1 2.344 1.332.839.334 1.736.536 2.633.645 1.559.188 3.153.188 4.713 0 .897-.108 1.793-.311 2.633-.645.835-.332 1.592-.84 2.344-1.332 3.102-2.032 6.118-4.24 8.902-6.67 5.746-5.01 10.609-10.95 14.14-17.539 2.631-4.905 4.547-10.324 4.189-15.811-.337-5.172-2.67-10.135-2.619-15.316.037-3.726 1.313-7.399 1.049-11.12-.323-4.544-3.02-8.791-6.811-11.609-3.733-2.774-8.504-4.104-13.09-4.941-4.294-.783-8.694-1.176-13.09-1.176m-149.02 5.441c-.361.038-.709.157-1.041.305-1.031.459-1.95 1.223-2.471 2.225-.334.643-.497 1.367-.523 2.092-.026.724.082 1.45.268 2.15.371 1.402 1.045 2.7 1.615 4.03 1.163 2.718 1.903 5.595 2.842 8.398.324.967.685 1.95 1.357 2.717.571.651 1.366 1.119 2.225 1.236.646.088 1.316-.025 1.902-.311.586-.285 1.087-.743 1.432-1.297.571-.919.696-2.056.586-3.133-.11-1.077-.436-2.119-.709-3.166-.757-2.908-1.128-5.959-2.471-8.646-.809-1.618-1.948-3.056-2.717-4.693-.153-.327-.293-.661-.482-.969-.189-.307-.436-.589-.754-.76-.32-.172-.697-.22-1.059-.182m37.75 1.117c-.118.006-.234.025-.348.059-.226.066-.437.182-.625.324-.376.284-.663.669-.947 1.045-1.836 2.425-3.857 4.723-5.414 7.336-1.384 2.323-2.4 4.999-2.096 7.686.077.683.239 1.356.277 2.043.038.687-.06 1.41-.453 1.975-.208.299-.492.541-.811.719-.318.178-.671.293-1.029.357-.717.129-1.454.061-2.178-.027-1.314-.161-2.621-.392-3.943-.467-1.322-.075-2.672.013-3.916.467-1.01.368-1.913.964-2.795 1.572-1.211.835-2.406 1.709-3.434 2.762-1.028 1.053-1.891 2.298-2.332 3.701-.444 1.41-.444 2.957 0 4.367-.532-.103-1.033-.359-1.432-.727-.399-.368-.692-.849-.838-1.371-.136-.489-.144-1.01-.068-1.508.075-.502.232-.989.418-1.461.393-.997.922-1.941 1.57-2.795-.624-.679-1.475-1.144-2.383-1.301-.908-.157-1.867-.003-2.682.428-.573.303-1.067.732-1.561 1.152-.493.421-.998.84-1.584 1.117-1.125.532-2.431.488-3.668.35-.491-.055-.985-.123-1.477-.074-.246.025-.49.081-.717.178-.227.097-.437.238-.602.422-.225.252-.359.579-.402.914-.043.335 0 .677.1 1 .198.646.606 1.206 1 1.754.955 1.324 1.902 2.746 2.096 4.367.108.9-.026 1.808-.141 2.707-.115.899-.212 1.818-.035 2.707.149.748.491 1.451.947 2.063.456.612 1.024 1.135 1.643 1.582 1.237.893 2.663 1.48 4.049 2.119 2.385 1.1 4.741 2.389 7.336 2.795 1.155.181 2.339.181 3.494 0-1.063 2.917-1.712 5.986-1.922 9.08-.142 2.095-.082 4.205.176 6.289 2.608.96 5.476 1.203 8.209.697 2.326-.431 4.524-1.385 6.639-2.445 1-.502 1.994-1.034 2.867-1.734.873-.701 1.627-1.586 2.023-2.633.322-.852.397-1.779.373-2.689-.024-.911-.143-1.815-.199-2.725-.219-3.562.546-7.103.873-10.656.134-1.454.195-2.921.508-4.348.313-1.426.901-2.833 1.938-3.861.772-.765 1.749-1.281 2.676-1.85.927-.568 1.845-1.228 2.391-2.168.421-.725.593-1.577.588-2.416-.005-.839-.182-1.669-.414-2.475-.45-1.56-1.114-3.048-1.746-4.543-.481-1.138-.946-2.288-1.223-3.492-.564-2.454-.327-5.02 0-7.512.178-1.362.385-2.734.873-4.02.539-1.418 1.416-2.711 1.748-4.191.115-.511.159-1.053.004-1.553-.078-.25-.205-.486-.385-.676-.18-.19-.413-.334-.668-.393-.115-.027-.234-.035-.352-.029m241.19.799c-1.545.037-3.111.269-4.66.242-1.735-.03-3.495-.382-5.188 0-1.029.232-1.983.728-2.838 1.346-.855.617-1.616 1.356-2.35 2.113-.736.759-1.456 1.548-1.977 2.469-.294.519-.524 1.092-.525 1.688 0 .298.058.599.188.867.129.268.33.505.586.658.327.196.723.248 1.104.221.38-.027.75-.127 1.119-.221 1.628-.415 3.287-.698 4.941-.988 1.56-.274 3.12-.556 4.693-.742 1.314-.156 2.653-.244 3.953 0 .86.161 1.704.474 2.391 1.016.687.542 1.205 1.327 1.314 2.195.031.246.03.496 0 .742-.056.46-.211.909-.465 1.297-.253.388-.605.714-1.018.926-.64.328-1.395.37-2.107.271-.713-.098-1.398-.327-2.092-.518-2.644-.728-5.44-.9-8.152-.494-2.51.376-4.921 1.234-7.41 1.729-.817.162-1.648.287-2.434.564-.786.278-1.539.727-2.01 1.412-.539.776-.665 1.787-.494 2.717.162.878.577 1.708 1.186 2.361.608.653 1.408 1.127 2.273 1.344 1.037.26 2.137.153 3.17-.121 1.033-.274 2.02-.709 3.01-1.113 2.749-1.122 5.692-2.025 8.646-1.729 2.188.22 4.258 1.087 6.422 1.482.762.139 1.546.223 2.254.537.354.157.687.373.949.658.262.285.45.644.502 1.027.044.325-.009.659-.143.959-.133.299-.343.563-.598.77-.317.257-.701.426-1.1.516-.398.089-.812.101-1.219.063-.813-.077-1.591-.349-2.375-.578-3.431-1-7.06-1.215-10.623-.988-3.555.226-7.204.931-10.129 2.965-1.512 1.051-2.81 2.475-3.457 4.199-.412 1.1-.548 2.324-.248 3.459.133.504.353.99.686 1.391.333.401.784.712 1.291.832.418.099.861.067 1.273-.053.413-.12.798-.325 1.154-.566.712-.483 1.315-1.111 2.02-1.604 1.441-1.01 3.214-1.391 4.939-1.729 1.887-.369 3.78-.708 5.682-.988.811-.119 1.632-.229 2.449-.156.817.073 1.639.343 2.244.896.633.579.972 1.407 1.236 2.223.118.365.226.738.25 1.121.024.383-.043.781-.25 1.104-.134.209-.325.379-.539.504-.214.125-.451.206-.695.252-.488.091-.992.044-1.484-.016-2.142-.259-4.265-.756-6.422-.74-2.429.018-4.798.686-7.164 1.234-1.012.235-2.035.45-2.994.85-.959.4-1.864 1-2.441 1.867-.504.754-.732 1.677-.709 2.584.023.907.289 1.801.709 2.605.352.676.818 1.298 1.404 1.785.587.487 1.299.833 2.055.932.588.077 1.189.004 1.758-.162.569-.166 1.11-.422 1.625-.715 1.03-.587 1.974-1.322 3.041-1.84 1.803-.875 3.864-1.078 5.867-1.01 2 .068 3.99.393 5.99.516 2.078.128 4.214.045 6.176.74 1.485.526 2.793 1.48 3.885 2.615 1.092 1.136 1.981 2.454 2.785 3.809 1.5 2.526 2.746 5.249 3.211 8.15.208 1.299.255 2.635.002 3.926-.253 1.291-.82 2.537-1.73 3.486-.881.918-2.032 1.518-3.123 2.172-1.091.654-2.18 1.414-2.807 2.521-.476.841-.648 1.823-.67 2.789-.021.966.1 1.929.176 2.893.089 1.125.117 2.268.441 3.35.162.541.399 1.063.736 1.516.337.453.777.833 1.293 1.063.538.24 1.144.308 1.729.24.585-.068 1.149-.268 1.67-.543 1.041-.55 1.899-1.382 2.777-2.166 3.01-2.687 6.488-4.992 8.646-8.4 1.345-2.123 2.101-4.575 2.498-7.06.397-2.481.446-5 .465-7.518.097-12.954-.651-26.16-5.188-38.29-2.916-7.8-7.583-15.239-14.574-19.764-1.15-.744-2.373-1.411-3.705-1.729-.904-.215-1.825-.264-2.752-.242m-286.81 5.369c-.414-.015-.834.099-1.195.307-.455.261-.822.663-1.084 1.117-.262.455-.424.961-.523 1.477-.346 1.801.061 3.654.494 5.436.644 2.648 1.354 5.295 2.471 7.781.202.45.418.895.695 1.303.277.408.619.78 1.035 1.045.465.296 1.01.451 1.559.512.548.061 1.103.031 1.652-.018.349-.031.698-.07 1.037-.16.339-.09.669-.236.939-.459.315-.26.54-.62.66-1.01.121-.39.139-.809.08-1.213-.155-1.069-.823-1.984-1.482-2.84-1.327-1.723-2.739-3.467-3.334-5.559-.421-1.48-.405-3.046-.617-4.57-.09-.643-.226-1.29-.535-1.861-.155-.285-.352-.551-.596-.766-.243-.215-.532-.379-.846-.461-.134-.035-.272-.056-.41-.061m170.03 2.756c.521-.014 1.044-.009 1.563.012 1.104.044 2.213.15 3.273.461 1.06.311 2.074.838 2.84 1.635.811.844 1.316 1.977 1.398 3.145-.487-.921-1.218-1.713-2.098-2.271-1.145-.727-2.517-1.05-3.873-1.059-1.356-.009-2.699.282-3.986.709-1.183.393-2.378.938-3.145 1.922-.361.463-.613 1.013-.711 1.592-.097.579-.037 1.186.188 1.729.248.599.698 1.112 1.264 1.43.565.317 1.241.434 1.879.316.528-.098 1.015-.347 1.49-.598.475-.251.956-.508 1.48-.625.563-.126 1.155-.083 1.715.059.559.141 1.089.379 1.604.641.53.269 1.052.569 1.494.967.442.398.803.903.951 1.479.094.364.101.752.012 1.117-.089.366-.274.708-.535.979-.306.318-.711.531-1.137.646-.426.115-.874.136-1.314.107-.881-.058-1.737-.313-2.615-.404-1.023-.106-2.052.014-3.08.057-1.028.042-2.088 0-3.03-.406-.654-.281-1.227-.728-1.713-1.248-.486-.52-.888-1.113-1.256-1.723-.831-1.378-1.509-2.935-1.398-4.541.081-1.174.59-2.302 1.35-3.201.759-.9 1.761-1.578 2.844-2.039 1.433-.61 2.987-.841 4.551-.885m-29.918.525c1.564.044 3.12.277 4.553.887 1.083.461 2.084 1.14 2.844 2.039.759.9 1.267 2.027 1.348 3.201.11 1.606-.566 3.163-1.396 4.541-.367.609-.77 1.203-1.256 1.723-.486.52-1.061.967-1.715 1.248-.945.406-2 .447-3.03.404-1.028-.042-2.059-.163-3.082-.057-.878.091-1.735.348-2.615.406-.44.029-.887.006-1.313-.109-.426-.116-.832-.327-1.139-.645-.261-.271-.444-.615-.533-.98-.089-.366-.084-.753 0-1.117.148-.576.511-1.081.953-1.479.442-.398.962-.698 1.492-.967.515-.261 1.046-.497 1.605-.639.559-.142 1.152-.186 1.715-.061.524.117 1 .376 1.479.627.475.251.962.5 1.49.598.638.118 1.313 0 1.879-.316.565-.317 1.018-.833 1.266-1.432.224-.542.283-1.148.186-1.727-.098-.579-.35-1.129-.711-1.592-.766-.983-1.959-1.529-3.143-1.922-1.287-.427-2.632-.718-3.988-.709-1.356.009-2.728.331-3.873 1.059-.879.559-1.609 1.35-2.096 2.271.083-1.167.585-2.301 1.396-3.145.766-.796 1.78-1.325 2.84-1.637 1.06-.311 2.171-.415 3.275-.459.519-.02 1.039-.028 1.561-.014m12.11 14.281c.373 1.211.373 2.535 0 3.746-.45 1.462-1.406 2.706-2.311 3.939-.904 1.234-1.796 2.54-2.088 4.04-.111.573-.131 1.168-.006 1.738.125.57.399 1.115.82 1.52.518.498 1.223.757 1.93.891.706.134 1.43.156 2.143.25 1.027.135 2.03.421 3.063.508.516.044 1.041.038 1.549-.063.508-.1 1-.298 1.414-.609.386-.291.695-.676.932-1.098.237-.422.405-.88.535-1.346.295-1.056.404-2.162.324-3.256.704 1.367 1.149 2.866 1.303 4.396.049.488.07.984-.018 1.467-.087.482-.289.954-.633 1.303-.269.272-.615.461-.98.572-.366.111-.752.148-1.135.143-.765 0-1.52-.182-2.283-.227-1.932-.113-3.804.584-5.699.977-.894.185-1.817.303-2.719.162-.902-.141-1.787-.569-2.33-1.303-.289-.392-.471-.853-.588-1.326-.117-.473-.171-.958-.227-1.441-.154-1.356-.315-2.745 0-4.072.247-1.043.779-1.999 1.402-2.871.624-.872 1.343-1.671 2.02-2.504 1.387-1.711 2.591-3.571 3.584-5.537m1.352 27.305c.454-.049.901.117 1.32.297.419.18.843.379 1.299.402.448.023.886-.127 1.311-.271.424-.145.864-.287 1.311-.252.394.031.764.198 1.102.402.338.204.653.446.994.645.991.576 2.173.764 3.318.699.572-.032 1.146-.125 1.715-.057.284.034.566.11.818.246.252.136.472.336.611.586.105.19.163.404.176.621.029.48-.155.959-.453 1.336-.298.377-.706.657-1.143.859-.872.404-1.849.504-2.771.775-1.352.398-2.564 1.157-3.844 1.746-1.367.629-2.875 1.068-4.367.873-1.201-.157-2.316-.716-3.318-1.396-1.527-1.036-2.864-2.375-4.541-3.145-.93-.427-1.948-.667-2.971-.699 1.289-.254 2.572-.545 3.844-.873 1.298-.335 2.625-.729 3.668-1.572.3-.243.572-.52.879-.754.307-.234.659-.427 1.043-.469m1.049 14.498c1.069-.042 2.14.152 3.143.525 1.234.46 2.362 1.192 3.32 2.096.171.162.341.333.451.541.055.104.094.217.109.334.015.117.005.237-.037.348-.048.125-.136.233-.244.313-.108.079-.235.131-.367.154-.264.047-.539-.015-.787-.117-.734-.304-1.267-.945-1.92-1.398-.657-.457-1.446-.725-2.246-.758-.8-.032-1.61.172-2.297.584-.82.492-1.447 1.258-2.27 1.746-.362.215-.771.374-1.191.371-.21 0-.422-.043-.611-.135-.19-.091-.356-.232-.469-.41-.13-.205-.182-.453-.174-.695.009-.242.076-.481.174-.703.195-.443.51-.827.877-1.143.367-.315.785-.565 1.219-.779 1.033-.51 2.169-.828 3.32-.873" transform="translate(-18.199 25.387)"/></g></g></svg>