<svg xmlns="http://www.w3.org/2000/svg" viewBox="0 0 858.76948 939.24087"><g fill-rule="evenodd"><path d="m429.38 9.587c-23.324 21.84-50.24 39.945-79.37 53.39-33.427 15.426-70.02 24.727-106.92 24.855-35.548.124-70.936-8.277-103.19-23.01-15.912-7.27-31.1-16.07-45.29-26.23-11.09 26.723-25.73 52.01-43.42 75.02-13.06 16.986-27.779 32.731-43.889 46.947 16.804 24.409 31.07 50.52 42.488 77.79 17.16 40.952 27.862 84.41 33.15 128.41 5.759 47.899 5.146 96.29 5.136 144.52-.009 45.861.555 91.96 8.405 137.16 5.065 29.16 13.164 57.851 24.745 85.15 15.275 36.01 37.15 70.1 68.17 94.36 14.416 11.271 30.608 20.257 47.626 27.15 46.92 19.02 99.13 21.98 146.61 39.584 11.01 4.081 21.877 9.03 30.816 16.568 6.095 5.138 11.194 11.421 14.941 18.41 3.748-6.99 8.846-13.272 14.941-18.41 8.938-7.535 19.809-12.487 30.818-16.568 47.48-17.604 99.69-20.567 146.61-39.584 17.02-6.897 33.21-15.884 47.626-27.15 31.02-24.25 52.895-58.35 68.17-94.36 11.581-27.3 19.68-55.985 24.745-85.15 7.85-45.2 8.414-91.3 8.405-137.16 0-48.23-.623-96.62 5.136-144.52 5.29-43.999 15.995-87.46 33.15-128.41 11.423-27.27 25.684-53.38 42.488-77.79-16.11-14.216-30.828-29.962-43.889-46.947-17.693-23.01-32.33-48.3-43.42-75.02-14.187 10.165-29.38 18.964-45.29 26.23-32.25 14.736-67.64 23.14-103.19 23.01-36.908-.129-73.5-9.429-106.92-24.855-29.14-13.446-56.05-31.55-79.38-53.39" fill="#fff"/><path d="m429.38 55.44c0 0-49.42 26.555-75.912 35.35-34.27 11.38-69.973 20.676-106.06 22.1-37.836 1.488-75.54-7.03-112.69-14.361-9.728-1.92-28.725-7.734-28.725-7.734 0 0-25.336 35.587-43.08 47.5-16.378 10.997-55.625 20.21-55.625 20.21 16.804 24.409 31.07 50.52 42.488 77.79 17.16 40.952 27.862 84.41 33.15 128.41 5.759 47.899 5.145 96.29 5.135 144.52-.009 45.861.556 91.96 8.406 137.16 5.065 29.16 13.163 57.851 24.744 85.15 15.275 36.01 37.15 70.1 68.17 94.36 14.416 11.271 30.609 20.257 47.627 27.15 46.92 19.02 99.13 21.98 146.61 39.584 11.01 4.081 21.878 9.03 30.816 16.568 6.095 5.138 11.192 11.421 14.939 18.41 3.748-6.99 8.846-13.272 14.941-18.41 8.938-7.535 19.81-12.487 30.818-16.568 47.48-17.604 99.69-20.567 146.61-39.584 17.02-6.897 33.21-15.884 47.627-27.15 31.02-24.25 52.894-58.35 68.17-94.36 11.581-27.3 19.679-55.985 24.744-85.15 7.85-45.2 8.415-91.3 8.406-137.16 0-48.23-.624-96.62 5.135-144.52 5.29-43.999 15.996-87.46 33.15-128.41 11.422-27.27 25.683-53.37 42.486-77.78v-.002c0 0-39.25-9.212-55.625-20.21-17.748-11.917-43.09-47.5-43.09-47.5 0 0-18.995 5.814-28.723 7.734-37.15 7.333-74.849 15.85-112.69 14.361-36.08-1.419-71.785-10.715-106.06-22.1-26.492-8.797-75.914-35.35-75.914-35.35z" fill="#09f" stroke="#000" stroke-linejoin="bevel" stroke-width="11"/></g><g stroke="#000"><path d="m359.08 479.43h137.01v245.5h-137.01z" fill="#fff" stroke-linecap="square" stroke-width="3"/><path d="m427.58 102.37l-74.51 180.47 29.373 34.654 45.13 1.614 45.13-1.614 29.373-34.654-74.5-180.47z" fill="#f00" fill-rule="evenodd" stroke-linejoin="bevel" stroke-width="5"/><g transform="translate(21.14-54.34)" stroke-linecap="square"><g stroke-width="3"><path d="m340.72 380.89h131.44v142.26h-131.44z" fill="#fff"/><g fill="none"><path d="m452.11 547.46h22.835v13.688h-22.835z"/><path transform="scale(-1 1)" d="m-360.77 547.46h22.835v13.688h-22.835z"/><path d="m360.77 547.46h22.835v13.688h-22.835z"/><path d="m429.28 547.46h22.835v13.688h-22.835z"/><path d="m383.61 547.46h22.835v13.688h-22.835z"/><path d="m406.44 547.46h22.835v13.688h-22.835z"/><path d="m440.69 533.77h22.835v13.688h-22.835z"/><path d="m337.94 533.77v13.688h11.416v-13.688h-11.416zm125.59 0v13.688h11.418v-13.688h-11.418zm-125.59 27.377v13.688h11.416v-13.688h-11.416zm125.59 0v13.688h11.418v-13.688h-11.418zm-125.59 27.377v13.688h11.416v-13.688h-11.416zm125.59 0v13.688h11.418v-13.688h-11.418zm-125.59 27.375v13.689h11.416v-13.689h-11.416zm125.59 0v13.689h11.418v-13.689h-11.418zm-125.59 27.377v13.689h11.416v-13.689h-11.416zm125.59 0v13.689h11.418v-13.689h-11.418zm-125.59 27.377v13.688h11.416v-13.688h-11.416zm125.59 0v13.688h11.418v-13.688h-11.418zm-125.59 27.377v13.688h11.416v-13.688h-11.416zm125.59 0v13.688h11.418v-13.688h-11.418zm-125.59 27.377v13.688h11.416v-13.688h-11.416zm125.59 0v13.688h11.418v-13.688h-11.418zm-125.59 27.375v13.689h11.416v-13.689h-11.416zm125.59 0v13.689h11.418v-13.689h-11.418z"/><path d="m349.35 533.77h22.834v13.689h-22.834z"/><path d="m417.86 533.77h22.835v13.689h-22.835z"/><path d="m372.19 533.77h22.835v13.689h-22.835z"/><path d="m395.02 533.77h22.835v13.689h-22.835z"/><path d="m452.11 574.84h22.834v13.688h-22.834z"/><path transform="scale(-1 1)" d="m-360.77 574.84h22.835v13.688h-22.835z"/><path d="m360.77 574.84h22.835v13.689h-22.835z"/><path d="m429.28 574.84h22.835v13.688h-22.835z"/><path d="m383.61 574.84h22.835v13.689h-22.835z"/><path d="m406.44 574.84h22.835v13.689h-22.835z"/><path d="m440.69 561.15h22.835v13.689h-22.835z"/><path d="m349.35 561.15h22.834v13.688h-22.834z"/><path d="m417.86 561.15h22.835v13.688h-22.835z"/><path d="m372.19 561.15h22.835v13.688h-22.835z"/><path d="m395.02 561.15h22.835v13.688h-22.835z"/><path d="m452.11 602.21h22.834v13.688h-22.834z"/><path transform="scale(-1 1)" d="m-360.77 602.21h22.835v13.689h-22.835z"/><path d="m360.77 602.21h22.835v13.688h-22.835z"/><path d="m429.28 602.21h22.835v13.688h-22.835z"/><path d="m383.61 602.21h22.835v13.688h-22.835z"/><path d="m406.44 602.21h22.835v13.688h-22.835z"/><path d="m440.69 588.52h22.835v13.688h-22.835z"/><path d="m349.35 588.53h22.834v13.688h-22.834z"/><path d="m417.86 588.53h22.835v13.688h-22.835z"/><path d="m372.19 588.53h22.835v13.688h-22.835z"/><path d="m395.02 588.53h22.835v13.688h-22.835z"/><path d="m452.11 629.59h22.834v13.688h-22.834z"/><path transform="scale(-1 1)" d="m-360.77 629.59h22.835v13.688h-22.835z"/><path d="m360.77 629.59h22.835v13.688h-22.835z"/><path d="m429.28 629.59h22.835v13.689h-22.835z"/><path d="m383.61 629.59h22.835v13.688h-22.835z"/><path d="m406.44 629.59h22.835v13.688h-22.835z"/><path d="m440.69 615.9h22.835v13.689h-22.835z"/><path d="m349.35 615.9h22.834v13.688h-22.834z"/><path d="m417.86 615.9h22.835v13.688h-22.835z"/><path d="m372.19 615.9h22.835v13.688h-22.835z"/><path d="m395.02 615.9h22.835v13.688h-22.835z"/><path d="m452.11 656.97h22.834v13.689h-22.834z"/><path transform="scale(-1 1)" d="m-360.77 656.97h22.835v13.689h-22.835z"/><path d="m360.77 656.97h22.835v13.688h-22.835z"/><path d="m429.28 656.97h22.835v13.688h-22.835z"/><path d="m383.61 656.97h22.835v13.688h-22.835z"/><path d="m406.44 656.97h22.835v13.688h-22.835z"/><path d="m440.69 643.28h22.835v13.688h-22.835z"/><path d="m349.35 643.28h22.834v13.688h-22.834z"/><path d="m417.86 643.28h22.835v13.688h-22.835z"/><path d="m372.19 643.28h22.835v13.688h-22.835z"/><path d="m395.02 643.28h22.835v13.688h-22.835z"/><path d="m452.11 684.34h22.834v13.688h-22.834z"/><path transform="scale(-1 1)" d="m-360.77 684.34h22.835v13.688h-22.835z"/><path d="m360.77 684.34h22.835v13.688h-22.835z"/><path d="m429.28 684.34h22.835v13.688h-22.835z"/><path d="m383.61 684.34h22.835v13.688h-22.835z"/><path d="m406.44 684.34h22.835v13.688h-22.835z"/><path d="m440.69 670.65h22.835v13.688h-22.835z"/><path d="m349.35 670.65h22.834v13.689h-22.834z"/><path d="m417.86 670.65h22.835v13.689h-22.835z"/><path d="m372.19 670.65h22.835v13.689h-22.835z"/><path d="m395.02 670.65h22.835v13.689h-22.835z"/><path d="m452.11 711.72h22.834v13.688h-22.834z"/><path transform="scale(-1 1)" d="m-360.77 711.72h22.835v13.688h-22.835z"/><path d="m360.77 711.72h22.835v13.689h-22.835z"/><path d="m429.28 711.72h22.835v13.688h-22.835z"/><path d="m383.61 711.72h22.835v13.689h-22.835z"/><path d="m406.44 711.72h22.835v13.689h-22.835z"/><path d="m440.69 698.03h22.835v13.689h-22.835z"/><path d="m349.35 698.03h22.834v13.688h-22.834z"/><path d="m417.86 698.03h22.834v13.688h-22.834z"/><path d="m372.19 698.03h22.835v13.688h-22.835z"/><path d="m395.02 698.03h22.835v13.688h-22.835z"/><path d="m452.11 739.1h22.835v13.688h-22.835z"/><path transform="scale(-1 1)" d="m-360.77 739.1h22.835v13.689h-22.835z"/><path d="m360.77 739.1h22.835v13.688h-22.835z"/><path d="m429.28 739.1h22.835v13.688h-22.835z"/><path d="m383.61 739.1h22.835v13.688h-22.835z"/><path d="m406.44 739.1h22.835v13.688h-22.835z"/><path d="m440.69 725.41h22.835v13.688h-22.835z"/><path d="m349.35 725.41h22.834v13.688h-22.834z"/><path d="m417.86 725.41h22.834v13.689h-22.834z"/><path d="m372.19 725.41h22.835v13.688h-22.835z"/><path d="m395.02 725.41h22.835v13.688h-22.835z"/><path d="m452.11 766.47h22.835v13.688h-22.835z"/><path transform="scale(-1 1)" d="m-360.77 766.47h22.835v13.688h-22.835z"/><path d="m360.77 766.47h22.835v13.689h-22.835z"/><path d="m429.28 766.47h22.835v13.689h-22.835z"/><path d="m383.61 766.47h22.835v13.689h-22.835z"/><path d="m406.44 766.47h22.835v13.689h-22.835z"/><path d="m440.69 752.78h22.835v13.689h-22.835z"/><path d="m349.35 752.78h22.834v13.688h-22.834z"/><path d="m417.86 752.78h22.834v13.688h-22.834z"/><path d="m372.19 752.78h22.835v13.688h-22.835z"/><path d="m395.02 752.78h22.835v13.688h-22.835z"/></g><path d="m406.44193 587.11562a34.25319 42.474022 0 0 0 -34.25391 42.47461v136.88h68.51v-136.88a34.25319 42.474022 0 0 0 -34.25195 -42.47461z"/><rect rx="9.128" width="156.81" height="18.256" x="328.04" y="515.52" fill="#fff"/><path d="m406.45 416.89c-5.01 2.824-17.18 20.369-16.789 24.766v34.883h33.578v-34.883c-1.865-5.536-11.667-23.916-16.789-24.766"/></g><g stroke-width="5"><path d="m406.44 156.71v-19.321" fill="none" fill-rule="evenodd"/><circle cx="406.44" cy="130.89" r="6.5" fill="#fff"/></g></g><g stroke-width="5"><g fill-rule="evenodd"><g fill="#f00"><path d="m361.52 296.1h132.12"/><path d="m366.99 284.78h121.19"/></g><g fill="none"><path d="m373.06 273.46h109.04"/><path d="m361.62 262.14h131.92"/><path d="m366.3 250.82h122.57"/><path d="m370.97 239.5h113.22"/><path d="m375.64 228.18h103.88"/><path d="m380.32 216.86h94.53"/><path d="m384.99 205.54h85.19"/><path d="m389.66 194.22h75.84"/><path d="m394.34 182.9h66.49"/><path d="m399.01 171.58h57.15"/><path d="m403.68 160.26h47.801"/><path d="m408.66 148.94h37.844"/><path d="m413.03 137.62h29.11"/><path d="m417.7 126.3h19.761"/><path d="m422.37 114.98h10.415"/></g></g><g stroke-linecap="square"><path d="m596.14 560.68h65.62v144.52h-65.62z"/><path d="m192.95 562.71h65.62v144.52h-65.62z"/></g><g stroke-linecap="round"><path d="m185.73 418.33v314.27h85.87v-314.27h-85.87zm42.9336 152.8711a23.326675 24.583248 0 0 1 23.32617 24.58398v124.79h-46.654v-124.79a23.326675 24.583248 0 0 1 23.32813 -24.58398" fill="#fff"/><path d="m180.8 403.15h95.73v15.179h-95.73z" fill="#f00"/><path d="m220.22 481.87h16.887v30.912h-16.887z"/><path d="m220.22 430.38h16.887v30.912h-16.887z"/></g><g fill-rule="evenodd"><path d="m204.45 319.01c-.914 20.486-5.696 40.793-14.02 59.53-1.334 3-2.759 5.965-4.293 8.871-2.886 5.467-6.161 10.728-9.791 15.732h51.865 51.863c-3.63-5-6.905-10.266-9.791-15.732-1.534-2.906-2.959-5.868-4.293-8.871-8.327-18.74-13.11-39.05-14.02-59.53h-23.756-23.758z" fill="#f00"/><path d="m204.9 319.01v-19.321" fill="none" stroke-linecap="square"/></g><g stroke-linecap="square"><circle cx="204.9" cy="293.19" r="6.5" fill="#fff"/><path d="m252.42 319.01v-19.321" fill="none" fill-rule="evenodd"/><circle cx="252.42" cy="293.19" r="6.5" fill="#fff"/></g><g stroke-linecap="round"><path d="m584.03 418.33v314.27h85.87v-314.27h-85.87zm42.9336 152.8711a23.326675 24.583248 0 0 1 23.32617 24.58398v124.79h-46.654v-124.79a23.326675 24.583248 0 0 1 23.32813 -24.58398" fill="#fff"/><path d="m579.09 403.15h95.73v15.179h-95.73z" fill="#f00"/><path d="m618.51 481.87h16.887v30.912h-16.887z"/><path d="m618.51 430.38h16.887v30.912h-16.887z"/></g><g fill-rule="evenodd"><path d="m607.2 319.01c-5.82 19.9-10.481 40.22-18.02 59.53-1.195 3.06-2.707 5.994-4.293 8.871-2.981 5.41-6.161 10.728-9.791 15.732h51.865 51.863c-3.63-5-6.81-10.323-9.791-15.732-1.586-2.877-3.098-5.811-4.293-8.871-7.543-19.313-12.203-39.633-18.02-59.53-6.806-23.27-19.756-70-19.756-70 0 0-12.952 46.73-19.758 70z" fill="#f00"/><path d="m626.96 249.01v-19.321" fill="none" stroke-linecap="square"/></g><circle r="6.5" cy="223.19" cx="626.96" fill="#fff" stroke-linecap="square"/><g fill-rule="evenodd"><path d="m182.34 394.11h91.74" fill="#f00"/><g fill="none"><path d="m186.13 386.5h84.15"/><path d="m190.35 378.88h75.71"/><path d="m193.83 371.26h68.74"/><path d="m195.5 363.64h65.4"/><path d="m198.56 356.03h59.28"/><path d="m200.54 348.41h55.32"/><path d="m202.22 340.79h51.973"/><path d="m203.26 333.17h49.896"/><path d="m203.57 325.56h49.28"/></g><g fill="#f00"><path d="m581.09 394.95h91.74"/><path d="m584.89 387.33h84.15"/></g><g fill="none"><path d="m589.1 379.72h75.71"/><path d="m592.59 372.1h68.74"/><path d="m594.26 364.48h65.4"/><path d="m597.32 356.86h59.28"/><path d="m599.3 349.25h55.32"/><path d="m600.97 341.63h51.973"/><path d="m602.01 334.01h49.896"/><path d="m605.09 326.39h43.736"/><path d="m607.27 318.78h39.38"/><path d="m609.48 311.16h34.964"/><path d="m611.66 303.54h30.603"/><path d="m613.82 295.92h26.28"/><path d="m615.97 288.31h21.971"/><path d="m618.12 280.69h17.685"/><path d="m620.25 273.07h13.413"/></g></g><g stroke-linecap="round"><path d="m214.17188 692.01562a153.1604 157.40768 0 0 0 -95.13282 34.25391C119.75 728.03 120.48 729.78 121.22 731.53c15.28 36.01 37.15 70.1 68.17 94.35 14.42 11.28 30.61 20.26 47.63 27.16 40.2 16.3 84.29 20.81 125.96 32.84a153.1604 157.40768 0 0 0 4.35203 -36.45617 153.1604 157.40768 0 0 0 -153.16015 -157.40821zm427.32617 0a153.1604 157.40768 0 0 0 -153.16016 157.40821 153.1604 157.40768 0 0 0 4.55078 37.30469C535.41 874.05 580.61 869.71 621.75 853.04c17.02-6.9 33.21-15.88 47.63-27.16 31.02-24.25 52.89-58.34 68.17-94.35.48-1.12.94-2.25 1.4-3.38a153.1604 157.40768 0 0 0 -97.45195 -36.13438z" fill="#090"/><g fill="none" fill-rule="evenodd"><path d="m366.91 836.06h-31.31"/><path d="m365.51 822.69h-29.12"/><path d="m367.33 849.42h-31.31"/><path d="m362.72 809.32h-26.422"/><path d="m358.22 795.95h-22.1"/><path d="m351.96 780.69h-17.349"/><path d="m345.03 767.63h-15.954"/><path d="m336.61 754.85h-14.08"/><path d="m326.78 742.74h-11.291"/><path d="m316.29 731.53h-7.912"/><path d="m488.25 836.06h31.31"/><path d="m489.65 822.69h29.12"/><path d="m487.83 849.42h31.31"/><path d="m492.44 809.32h26.422"/><path d="m496.94 795.95h22.1"/><path d="m503.21 780.69h17.349"/><path d="m510.14 767.63h15.954"/><path d="m518.56 754.85h14.08"/><path d="m528.38 742.74h11.291"/><path d="m538.87 731.53h7.912"/></g></g></g><g transform="translate(21.14-54.34)" fill="none" fill-rule="evenodd" stroke-width="11"><path d="m84.86 145.13l-11.397-52.2"/><path d="m408.24 109.78v-45.85"/><path d="m731.62 145.13l11.4-52.2"/></g><g transform="translate(21.14-54.34)" stroke-linecap="round" stroke-width="5"><path d="m427.88281 687.33594a181.62425 157.40768 0 0 0 -181.625 157.4082 181.62425 157.40768 0 0 0 .57813 12.01758C291.14 872.53 339.43 876.24 383.63 892.62c11.01 4.08 21.87 9.04 30.81 16.57 6.1 5.14 11.2 11.42 14.94 18.41 3.75-6.99 8.85-13.27 14.94-18.41 8.94-7.53 19.81-12.49 30.82-16.57 43.14-15.99 90.18-19.9 133.61-34.75a181.62425 157.40768 0 0 0 .75586 -13.12586 181.62425 157.40768 0 0 0 -181.62305 -157.4082z" transform="translate(-21.14 54.34)" fill="#090"/><g fill="none" fill-rule="evenodd"><path d="m225.02 885.72h37.13"/><path d="m226.67 872.35h34.531"/><path d="m224.52 899.08h37.13"/><path d="m229.98 858.98h31.33"/><path d="m235.32 845.61h26.21"/><path d="m242.75 830.35h20.574"/><path d="m250.97 817.29h18.919"/><path d="m260.95 804.51h16.696"/><path d="m272.6 792.4h13.389"/><path d="m285.04 781.19h9.383"/><path d="m587.86 885.72h-37.13"/><path d="m586.21 872.35h-34.531"/><path d="m588.36 899.08h-37.13"/><path d="m582.9 858.98h-31.33"/><path d="m577.56 845.61h-26.21"/><path d="m570.13 830.35h-20.574"/><path d="m561.91 817.29h-18.919"/><path d="m551.93 804.51h-16.696"/><path d="m540.28 792.4h-13.389"/><path d="m527.84 781.19h-9.383"/></g></g><g stroke-linecap="square"><path d="m429.38 7.535c-23.324 21.84-50.24 39.945-79.37 53.39-33.427 15.426-70.02 24.727-106.92 24.855-35.548.124-70.936-8.277-103.19-23.01-15.912-7.27-31.1-16.07-45.29-26.23-11.09 26.723-25.73 52.01-43.42 75.02-13.06 16.986-27.779 32.731-43.889 46.947 16.804 24.409 31.07 50.52 42.488 77.79 17.16 40.952 27.862 84.41 33.15 128.41 5.759 47.899 5.146 96.29 5.136 144.52-.009 45.861.555 91.96 8.405 137.16 5.065 29.16 13.164 57.851 24.745 85.15 15.275 36.01 37.15 70.1 68.17 94.36 14.416 11.271 30.608 20.257 47.626 27.15 46.92 19.02 99.13 21.98 146.61 39.584 11.01 4.081 21.877 9.03 30.816 16.568 6.095 5.138 11.194 11.421 14.941 18.41 3.748-6.99 8.846-13.272 14.941-18.41 8.938-7.535 19.809-12.487 30.818-16.568 47.48-17.604 99.69-20.567 146.61-39.584 17.02-6.897 33.21-15.884 47.626-27.15 31.02-24.25 52.895-58.35 68.17-94.36 11.581-27.3 19.68-55.985 24.745-85.15 7.85-45.2 8.414-91.3 8.405-137.16 0-48.23-.623-96.62 5.136-144.52 5.29-43.999 15.995-87.46 33.15-128.41 11.423-27.27 25.684-53.38 42.488-77.79-16.11-14.216-30.828-29.962-43.889-46.947-17.693-23.01-32.33-48.3-43.42-75.02-14.187 10.165-29.38 18.964-45.29 26.23-32.25 14.736-67.64 23.14-103.19 23.01-36.908-.129-73.5-9.429-106.92-24.855-29.14-13.446-56.05-31.55-79.38-53.39" fill="none" fill-rule="evenodd" stroke-linejoin="round" stroke-width="11"/><g transform="translate(21.14-54.34)" fill="#fff" stroke-width="3"><path d="m322.43 314.52v43.06l18.289 23.307h131.45l18.287-23.307v-43.06h-30.855v32.359h-38.832v-32.359h-28.648v32.359h-38.83v-32.359h-30.855z"/><rect rx="9.128" width="145.51" height="14.67" x="333.69" y="373.56" ry="7.335"/></g></g></g></svg>