<svg xmlns="http://www.w3.org/2000/svg" xmlns:xlink="http://www.w3.org/1999/xlink" height="962.69" viewBox="0 0 892.22917 962.69138"><g transform="translate(-92.45-95.54)"><g fill-rule="evenodd"><path d="m98.31 101.04l37.1 583.71c7.617 204.94 186.1 367.86 403.15 367.98 216.89-.235 395.43-163.2 403.15-367.98l37.1-583.71h-440.25z" fill="#fff"/><g fill="#f00" stroke="#000" stroke-width="5"><path d="m510.52 570.39l-12.203 7.477c4.728.769 9.233 2.854 12.881 5.959 2.781 2.367 5.05 5.291 6.977 8.393 1.641 2.639 3.054 5.422 4.215 8.305 1.913-6.261 1.345-13.242-1.551-19.11-2.259-4.58-5.897-8.465-10.318-11.02zm3.236 37.26l-11.135 4.777c3.868 1.22 7.391 3.514 10.07 6.559 2.043 2.321 3.587 5.05 4.826 7.879 1.055 2.41 1.901 4.911 2.523 7.467 2.363-5.01 2.737-10.924 1.023-16.193-1.337-4.11-3.914-7.811-7.309-10.488zm-62.938 29.381c-2.567 4.414-3.791 9.595-3.475 14.691.406 6.534 3.385 12.872 8.156 17.354-.426-3.079-.583-6.195-.471-9.301.132-3.65.644-7.312 1.881-10.748 1.622-4.507 4.493-8.557 8.213-11.574l-14.305-.422zm53.29 4.807l-7.06 7.252c4.784-.245 6.338 3.474 10.559 5.74 3.218 1.728 6.05 4.107 8.588 6.732 2.161 2.234 4.128 4.655 5.871 7.229.549-6.523-1.476-13.227-5.545-18.355-3.174-4-7.549-7.03-12.41-8.598z"/><path d="m347.4 510.76c2.831 3.075 5.986 5.846 8.727 9 2.742 3.155 5.1 6.79 5.946 10.883.407 1.968.454 3.99.671 5.987.217 1.998.622 4.02 1.663 5.743 1.341 2.213 3.621 3.713 6.01 4.702 2.391.989 4.938 1.536 7.41 2.301 4.491 1.391 8.724 3.505 12.839 5.777 22.735 12.556 42.3 30.1 60.696 48.44 4.047 4.03 8.127 8.228 10.505 13.423.967 2.113 1.642 4.434 1.386 6.744-.128 1.155-.492 2.291-1.122 3.267-.63.976-1.532 1.787-2.599 2.245-.82.352-1.718.493-2.611.524-.892.032-1.784-.043-2.675-.103-.891-.06-1.786-.106-2.675-.019-.888.087-1.775.313-2.545.765-.83.487-1.503 1.231-1.934 2.092-.431.861-.623 1.836-.583 2.798.079 1.924 1.084 3.744 2.517 5.03 1.692 1.52 3.891 2.323 5.836 3.502 3.01 1.824 5.467 4.584 8.754 5.836 1.749.666 3.72.86 5.501.284.891-.288 1.723-.765 2.397-1.414.674-.649 1.187-1.471 1.44-2.372.259-.923.243-1.907.07-2.85-.173-.943-.497-1.851-.851-2.742-.708-1.781-1.552-3.58-1.554-5.497 0-1.586.609-3.165 1.676-4.339 1.067-1.174 2.581-1.931 4.16-2.081-.632.814-1.029 1.809-1.132 2.834-.103 1.026.09 2.079.548 3 .526 1.059 1.386 1.929 2.368 2.588.982.659 2.085 1.117 3.208 1.489 2.245.743 4.628 1.167 6.679 2.343.875.502 1.68 1.14 2.306 1.93.626.79 1.069 1.738 1.195 2.739.122.973-.054 1.955-.172 2.929-.118.974-.174 1.99.172 2.908.331.877 1.019 1.598 1.841 2.048.822.451 1.771.643 2.708.639 1.875-.009 3.654-.769 5.373-1.52 1.65-.721 3.318-1.456 4.735-2.567.708-.556 1.349-1.204 1.851-1.951.502-.747.864-1.595 1-2.485.242-1.567-.225-3.181-1.025-4.55-.8-1.369-1.914-2.525-3.061-3.62-3.02-2.883-6.335-5.456-9.921-7.587-1.567-.931-3.186-1.779-4.709-2.781-1.523-1-2.962-2.172-4.045-3.639-1.361-1.843-2.114-4.128-2.114-6.42 0-2.291.753-4.577 2.114-6.42-.284 1-.273 2.085.031 3.081.304.996.9 1.9 1.695 2.573.795.672 1.786 1.11 2.818 1.245 1.032.135 2.102-.034 3.043-.479 1.443-.683 2.506-1.952 3.753-2.947.624-.498 1.309-.935 2.071-1.174.761-.239 1.608-.267 2.346.035.442.181.835.476 1.152.834.317.358.559.779.733 1.224.348.89.424 1.864.416 2.82-.008.956-.096 1.912-.059 2.867.037.955.206 1.927.676 2.76.362.642.895 1.183 1.52 1.573.625.39 1.34.631 2.072.72 1.463.179 2.963-.251 4.21-1.037 1.247-.786 2.255-1.91 3.058-3.146.803-1.236 1.412-2.587 1.98-3.947.743-1.779 1.428-3.607 1.657-5.521.229-1.914-.035-3.943-1.074-5.567-.797-1.247-2.01-2.192-3.342-2.836-1.332-.644-2.785-1-4.245-1.249-3.476-.586-7.03-.55-10.505-1.167-1.809-.322-3.599-.825-5.231-1.669-1.632-.844-3.104-2.044-4.107-3.583-1.33-2.04-1.764-4.642-1.167-7 .273.727.743 1.38 1.346 1.869.603.49 1.338.816 2.106.934.768.118 1.567.028 2.289-.258.722-.286 1.367-.767 1.846-1.378.574-.732.9-1.625 1.38-2.422.24-.399.522-.777.876-1.079.354-.302.784-.525 1.246-.585.36-.047.729.008 1.069.136.339.128.649.329.919.57.541.483.919 1.12 1.247 1.768.327.647.613 1.319 1.01 1.926.397.607.922 1.157 1.591 1.436.507.212 1.078.257 1.617.152.539-.105 1.046-.357 1.471-.705.851-.696 1.354-1.75 1.551-2.831.197-1.081.113-2.194-.049-3.281-.161-1.087-.398-2.163-.506-3.257-.217-2.196.091-4.407.073-6.613-.009-1.103-.101-2.211-.378-3.279-.276-1.068-.743-2.097-1.446-2.947-1.06-1.281-2.623-2.095-4.256-2.407-1.633-.312-3.333-.146-4.935.299-3.204.892-5.984 2.846-8.902 4.442-2.206 1.206-4.532 2.229-6.531 3.753-.999.762-1.912 1.65-2.621 2.688-.709 1.038-1.209 2.232-1.353 3.48-.241 2.074.493 4.118 1.063 6.127.285 1 .531 2.026.596 3.068.065 1.042-.06 2.111-.491 3.061-.49 1.08-1.366 1.968-2.408 2.534-1.042.566-2.242.817-3.427.788-2.371-.059-4.603-1.215-6.421-2.738-3.995-3.348-6.188-8.302-8.754-12.839-6.02-10.649-14.62-19.618-23.721-27.795-9.101-8.177-18.799-15.687-27.637-24.15-8.803-8.426-16.84-17.961-21.594-29.18-3.402-8.03-5.05-16.738-8.72-24.647-1.837-3.954-4.199-7.711-7.332-10.743-3.133-3.03-7.08-5.314-11.378-6.05-4.719-.804-9.695.322-13.75 2.868-4.054 2.546-7.189 6.456-9.03 10.874-1.845 4.417-2.428 9.319-1.933 14.08.495 4.762 2.047 9.385 4.29 13.614 2.02 3.802 4.589 7.297 7.504 10.464z"/></g></g><g stroke="#000"><g stroke-linecap="round" stroke-width="8" transform="translate(92.45 95.54)"><path d="m446.12 5.5v951.69c216.89-.235 395.43-163.2 403.15-367.98l37.1-583.71h-440.25z" fill="#fff"/><path d="m446.12 5.5v951.69c216.89-.235 395.43-163.2 403.15-367.98l37.1-583.71h-440.25z" fill="#f00"/></g><g fill-rule="evenodd"><path d="m98.31 101.04l37.1 583.71c7.617 204.94 186.1 367.86 403.15 367.98 216.89-.235 395.43-163.2 403.15-367.98l37.1-583.71h-440.25z" fill="none" stroke-width="11"/><path d="m309.66 412.17c-22.831-28.582-42.985-59.3-60.11-91.63-18.319-34.574-33.37-71.823-35.6-110.89-.679-11.885-.158-23.85 1.751-35.6.992-6.106 2.357-12.152 4.085-18.09-3.869-1.545-8.257-1.754-12.256-.584-5.887 1.723-10.643 6.29-13.689 11.614-3.046 5.324-4.555 11.383-5.633 17.421-2.147 12.03-2.712 24.326-1.896 36.518 1.553 23.21 8.07 45.828 16.258 67.6 9.747 25.904 21.896 50.84 34.724 75.37 15.526 29.683 32.07 58.832 49.607 87.38l22.761-39.1z" fill="#f00" stroke-width="5"/><path d="m286.26 430.11l10.131-11.257c-18.848-23.295-35.459-48.4-49.53-74.856-11.173-21.01-20.744-42.865-28.704-65.29-7.118-20.05-12.949-40.555-17.448-61.35 1.027 17.453 3.669 34.811 7.88 51.78 7.153 28.827 18.784 56.37 32.07 82.936 13.488 26.962 28.73 53.05 45.597 78.03z"/><path d="m275.87 428.96c-26.42-27.22-49.678-57.51-69.16-90.07-16.862-28.18-31.09-58.742-34.728-91.38-1.106-9.936-1.216-19.992-.159-29.934.549-5.165 1.413-10.297 2.584-15.357-3.296-1.115-6.965-1.092-10.246.065-4.851 1.71-8.618 5.763-10.911 10.367-2.293 4.604-3.263 9.749-3.88 14.856-1.231 10.188-1.154 20.523.079 30.71 2.348 19.385 8.839 38.05 16.631 55.953 9.267 21.295 20.412 41.731 32.382 61.63 18.19 30.24 38.31 59.31 60.2 86.978l17.201-33.821z" fill="#f00" stroke-width="5"/><path d="m263.94 447.76l7.936-9.898c-25.905-22.877-48.35-49.669-66.33-79.19-10.388-17.05-19.286-34.996-26.904-53.45-6.813-16.509-12.607-33.438-17.339-50.659 1.71 14.58 4.7 29.01 8.925 43.07 7.177 23.88 17.887 46.601 30.516 68.1 17.526 29.839 38.811 57.47 63.19 82.03z"/><path d="m290.76 477.39c-25.742-16.674-49.926-35.752-72.13-56.906-23.779-22.651-45.668-48.29-57.898-78.77-3.723-9.279-6.518-18.939-8.157-28.802-.852-5.124-1.392-10.299-1.617-15.489-3.474-.193-7 .81-9.856 2.802-4.217 2.945-6.763 7.857-7.742 12.907-.979 5.05-.537 10.267.234 15.352 1.539 10.145 4.379 20.08 8.288 29.571 7.44 18.05 18.662 34.32 30.986 49.47 14.656 18.01 30.954 34.624 47.683 50.73 20.239 19.485 41.15 38.27 62.68 56.32l7.531-37.19z" fill="#f00" stroke-width="5"/><path d="m277.05 497.9l5-11.66c-21.17-13.527-41.04-29.08-59.26-46.38-14.479-13.747-27.91-28.592-40.22-44.31-11.01-14.06-21.12-28.829-30.25-44.18 5.49 13.616 12.233 26.727 20.12 39.11 13.383 21.03 29.971 39.855 47.614 57.46 17.896 17.859 36.95 34.557 57 49.955z"/><path d="m325.69 497.21c-27.786-5.63-55.05-13.853-81.31-24.529-28.12-11.428-55.622-26.06-76.46-48.13-6.342-6.716-12.01-14.07-16.763-21.997-2.466-4.116-4.682-8.381-6.631-12.765-3.054 1.01-5.751 3.062-7.531 5.739-2.63 3.956-3.158 9.04-2.292 13.71.866 4.671 3.01 9.01 5.394 13.11 4.757 8.201 10.563 15.782 17.14 22.613 12.512 13 27.669 23.19 43.4 32.04 18.704 10.528 38.35 19.297 58.19 27.484 24.01 9.906 48.35 18.987 72.981 27.22l-6.104-34.507z" fill="#f00" stroke-width="5"/><path d="m320.84 519.47l.356-11.711c-22.788-4.47-45.15-11.12-66.68-19.831-17.11-6.921-33.685-15.14-49.593-24.493-14.229-8.365-27.924-17.638-40.975-27.744 9.331 9.848 19.569 18.837 30.54 26.817 18.631 13.551 39.27 24.12 60.41 33.29 21.44 9.301 43.482 17.212 65.942 23.668z"/><path d="m311.97 498.23c-14.358 3.489-29.07 5.525-43.835 6.068-26.576.976-53.653-3.02-77.71-14.368-7.302-3.444-14.303-7.553-20.728-12.442-3.337-2.539-6.515-5.287-9.511-8.221-2.16 1.801-3.69 4.342-4.273 7.093-.86 4.06.351 8.358 2.563 11.871 2.211 3.513 5.352 6.339 8.614 8.905 6.514 5.124 13.68 9.404 21.23 12.822 14.376 6.509 29.992 9.845 45.627 11.993 18.604 2.555 37.41 3.489 56.18 3.512 12.651.015 25.303-.381 37.929-1.19l-16.1-26.04z" fill="#f00" stroke-width="5"/><path d="m332.42 518.67l-3.488-9.623c-15.707 2.851-31.667 4.308-47.631 4.349-16.15.041-32.28-1.365-48.23-3.86-14.262-2.231-28.387-5.334-42.27-9.285 10.767 4.98 21.992 8.97 33.486 11.903 19.526 4.984 39.72 6.899 59.863 7.511 16.09.489 32.21.156 48.27-.996z"/><path d="m281.89 522.21c-13.817 5.398-28.11 9.588-42.649 12.506-15.536 3.117-31.682 4.769-47.18 1.457-4.658-.995-9.227-2.436-13.573-4.385-2.237-1-4.415-2.141-6.516-3.405-1.061 1.225-1.67 2.831-1.689 4.451-.014 1.195.285 2.385.803 3.462.518 1.077 1.252 2.043 2.105 2.881 1.705 1.676 3.853 2.824 6.03 3.822 4.442 2.04 9.124 3.549 13.911 4.535 9.215 1.899 18.73 1.852 28.11 1.116 11.197-.878 22.297-2.724 33.32-4.867 13.344-2.593 26.603-5.624 39.749-9.08l-12.42-12.489z" fill="#f00" stroke-width="5"/><path d="m286.05 532.71l-3.148-4.913c-11.288 4.496-22.982 7.972-34.893 10.371-9.465 1.907-19.06 3.135-28.702 3.709-8.601.513-17.233.505-25.833-.022 6.904 1.454 13.935 2.305 20.987 2.539 12.04.401 24.08-.992 35.937-3.095 12.04-2.136 23.958-5.01 35.654-8.59z"/><path d="m317.11 402.67c-15.851-23.06-29.544-47.604-40.84-73.2-12.08-27.37-21.518-56.6-21.07-86.51.137-9.1 1.193-18.19 3.297-27.04 1.093-4.599 2.468-9.131 4.115-13.562-2.867-1.396-6.205-1.801-9.323-1.13-4.583.986-8.463 4.2-11.08 8.09-2.619 3.888-4.109 8.421-5.265 12.963-2.305 9.05-3.411 18.392-3.458 27.73-.09 17.781 3.636 35.387 8.688 52.43 6.01 20.294 13.915 39.979 22.356 59.39 10.218 23.496 21.245 46.64 33.06 69.38l19.527-28.532z" fill="#f00" stroke-width="5"/><path d="m298.27 415.04l8.353-8.01c-13.1-18.807-24.4-38.872-33.685-59.83-7.371-16.637-13.474-33.831-18.316-51.37-4.329-15.679-7.651-31.635-9.94-47.739-.176 13.363.884 26.742 3.164 39.91 3.873 22.379 11.236 44.02 19.916 65.01 8.813 21.308 19.01 42.04 30.509 62.03z"/><g fill="#f00" stroke-width="5"><path d="m290.74 35.33c-5.771.305-11.417 2.605-15.758 6.42-3.346 2.94-5.875 6.688-8.17 10.506-6.125 10.19-10.853 21.22-14.01 32.682l26.26 3.502c-1.309-7.315-1.309-14.863 0-22.18 1.151-6.433 3.298-12.653 5.836-18.676 1.757-4.171 3.705-8.262 5.836-12.256zm18.34 108.44c-13.365.504-32.802 1.821-39.482 7.139l-.412 2.889c8.104-3.677 28.324-3.307 41.756.343 6.525 1.773 11.596 6.97 17.578 10.121 2.99 1.575 5.895 3.444 9.141 4.385 3.227.935 6.67 1.542 10.01 1.176 3.344-.366 6.493-1.871 9.529-3.318 3.054-1.456 5.616-3.807 8.629-5.348 2.252-1.151 4.474-2.65 7.02-2.889 1.717-.161 3.478.186 5.01.986 1.527.8 2.815 2.05 3.66 3.553-.19-2.165-.997-4.273-2.301-6.01-1.304-1.739-3.102-3.104-5.127-3.893-2.599-1.013-5.489-.852-8.254-.826-5.818.055-11.525 1.702-17.332 2.064-4.242.265-8.621 1.084-12.75.077-6.66-1.623-11.64-7.585-18.201-9.57-2.715-.821-5.63-.986-8.465-.879zm89.21 28.908c-2.553-.024-5.108.323-7.559 1.041l-3.01 13.99c3.82-2.89 8.439-4.711 13.203-5.207 3.632-.378 7.312 0 10.887.746 3.043.635 6.03 1.535 8.918 2.686-3.209-5.705-8.652-10.117-14.898-12.07-2.436-.764-4.986-1.158-7.539-1.182zm15.42 25.457l-10.352 9.883c4.784-.245 9.627.844 13.848 3.109 3.218 1.728 6.05 4.107 8.588 6.732 2.161 2.234 4.128 4.655 5.871 7.229.549-6.523-1.476-13.227-5.545-18.355-3.174-4-7.55-7.03-12.41-8.598zm-1.871 28.941l-11.133 8.992c4.788.152 9.525 1.636 13.543 4.244 3.063 1.988 5.687 4.595 8 7.422 1.968 2.405 3.727 4.982 5.25 7.691 1.088-6.455-.374-13.306-4-18.754-2.831-4.25-6.942-7.634-11.656-9.596zm-23.645 456.36c-2.553-.024-5.108.323-7.559 1.041l-3.01 13.99c3.82-2.89 8.439-4.711 13.203-5.207 3.632-.378 7.312 0 10.887.746 3.043.635 6.03 1.535 8.918 2.686-3.209-5.705-8.652-10.117-14.898-12.07-2.436-.764-4.986-1.158-7.539-1.182zm8.619 38.12l-6.898 12.539c4.489-1.672 9.436-2.093 14.14-1.201 3.588.68 7 2.1 10.213 3.84 2.733 1.481 5.338 3.199 7.773 5.129-1.438-6.386-5.386-12.172-10.809-15.84-4.23-2.861-9.316-4.436-14.422-4.467zm-58.05 19.807l-11.816 8.07c.521 5.08 2.578 9.993 5.832 13.928 4.172 5.04 10.312 8.418 16.807 9.234-2.156-2.239-4.117-4.667-5.854-7.244-2.04-3.03-3.781-6.291-4.803-9.797-1.34-4.599-1.399-9.565-.166-14.193zm36.67 8.477l-13.252 5.398c4.54 1.527 8.647 4.315 11.742 7.971 2.36 2.787 4.12 6.04 5.52 9.412 1.191 2.871 2.131 5.848 2.809 8.881 2.904-5.867 3.48-12.848 1.576-19.11-1.485-4.886-4.447-9.312-8.395-12.551z" transform="translate(92.45 95.54)"/><path d="m364.97 472.05c19.516.371 38.6 10.54 49.793 26.531 2.315 3.307 4.304 6.834 6.677 10.1 2.373 3.265 5.189 6.309 8.731 8.244 2.257 1.233 4.774 1.988 7.337 2.201.393-4.41 2.897-8.584 6.604-11.01 2.612-1.707 5.709-2.542 8.805-2.935 2.919-.371 5.886-.371 8.805 0l4.402-7.337c.725-5.102 1.093-10.255 1.101-15.409.014-10.05-1.341-20.05-1.834-30.08-1.272-25.874 3.275-52.02 13.207-75.942 4 1.327 8.398 1.457 12.474.367 4.512-1.206 8.61-3.909 11.496-7.582 2.885-3.672 4.542-8.294 4.647-12.963-3.632 3.288-8.333 5.377-13.207 5.87-2.4.243-4.856.104-7.164-.597-2.308-.701-4.464-1.982-6.04-3.805-2.398-2.768-3.31-6.629-2.935-10.272.528-5.13 3.445-9.823 7.337-13.207 1.018-.885 2.124-1.704 3.389-2.175 1.264-.472 2.713-.568 3.949-.026 1.086.476 1.91 1.385 2.715 2.254.806.869 1.67 1.753 2.788 2.148.694.246 1.452.286 2.178.169.727-.117 1.423-.387 2.068-.742 1.289-.711 2.36-1.749 3.458-2.729 1.754-1.564 3.661-3.064 4.769-5.136.509-.951.833-2 .908-3.08.076-1.076-.1-2.173-.541-3.157-.614-1.368-1.73-2.481-3.038-3.213-1.309-.732-2.803-1.097-4.299-1.189-2.225-.137-4.44.309-6.616.794-2.175.485-4.363 1.012-6.592 1.04-2.549.032-5.103-.607-7.337-1.834.96-2.566 2.192-5.03 3.669-7.337 1.214-1.897 2.64-3.73 4.561-4.906.96-.588 2.037-1 3.156-1.129 1.119-.129 2.28.033 3.29.532 1.184.585 2.098 1.586 3.02 2.527.927.94 1.945 1.87 3.212 2.242.724.213 1.5.229 2.239.076.739-.153 1.439-.472 2.056-.906 1.234-.868 2.113-2.172 2.675-3.573.788-1.963.988-4.137.734-6.237-.369-3.053-1.737-6.03-4.04-8.07-1.422-1.263-3.162-2.144-4.991-2.667-1.829-.523-3.747-.695-5.648-.635-2.82.089-5.678.708-8.07 2.201-1.39.868-2.588 2-3.853 3.047-1.265 1.042-2.64 2.01-4.218 2.456-2.261.636-4.825.067-6.604-1.467.6-3.162 2.152-6.137 4.402-8.438 2.13-2.178 4.841-3.732 7.704-4.769.878-.318 1.783-.595 2.568-1.101.717-.461 1.312-1.104 1.74-1.841.428-.737.69-1.566.791-2.413.202-1.692-.245-3.423-1.063-4.918-.781-1.427-1.92-2.682-3.35-3.458-1.43-.775-3.162-1.042-4.721-.578-.931.277-1.777.8-2.505 1.443-.728.643-1.344 1.404-1.9 2.199-1.113 1.592-2.01 3.344-3.299 4.796-1.786 2.01-4.239 3.337-6.792 4.186-2.553.848-5.228 1.254-7.883 1.684-2.818.457-5.631.946-8.438 1.467.853.623 1.544 1.465 1.991 2.422.447.957.647 2.028.577 3.081-.09 1.357-.614 2.643-1.168 3.885-.554 1.242-1.15 2.483-1.4 3.82-.24 1.283-.15 2.612.125 3.888.275 1.276.73 2.506 1.222 3.714.984 2.418 2.139 4.836 2.322 7.44.137 1.95-.283 3.897-.845 5.77-.561 1.872-1.266 3.703-1.723 5.603-1.378 5.728-.441 11.719-.367 17.61.156 12.345-3.496 24.372-6.604 36.32-3.273 12.586-5.973 25.321-8.07 38.15-1.928 11.796-3.356 23.717-6.604 35.22-1.304 4.619-2.898 9.155-4.769 13.574 1.051-5.219.119-10.813-2.568-15.409-3.508-6-9.622-9.975-15.775-13.207-9.274-4.872-19.16-8.579-29.35-11.01l-13.473 49.41z"/><path d="m239.37 593.42c22.547 12.802 48.21 20.08 74.12 21.01 21.02.758 42.23-2.574 63.03.584 6.918 1.05 14.01 2.96 19.259 7.587 3.662 3.228 6.155 7.54 8.754 11.672 2.863 4.552 5.962 9.05 7.662 14.15 2.173 6.522 1.901 13.683.177 20.338-2.533 9.781-8.01 18.488-13.04 27.25-5.03 8.765-9.766 18.07-10.558 28.14-.541 6.879.823 13.861 3.635 20.16 2.813 6.301 7.05 11.928 12.12 16.605 4.461 4.113 9.598 7.546 13.423 12.256 3.51 4.321 5.754 9.522 8.919 14.1 1.582 2.29 3.411 4.438 5.631 6.117 2.22 1.679 4.855 2.874 7.627 3.125 2.294.208 4.631-.238 6.734-1.179 2.103-.941 3.975-2.367 5.522-4.074 1.731-1.909 3.051-4.146 4.443-6.315 1.392-2.169 2.894-4.316 4.895-5.941 2.196-1.784 4.963-2.869 7.79-2.994 2.827-.125 5.697.722 7.968 2.41 2.716 2.02 4.454 5.081 5.836 8.171.968 2.163 1.81 4.427 1.979 6.79.085 1.182-.002 2.381-.32 3.523-.318 1.142-.871 2.224-1.659 3.11-1.446 1.625-3.591 2.488-5.741 2.82-2.15.332-4.341.185-6.515.098-3.111-.124-6.227-.124-9.338 0 .388 3.33 2.096 6.488 4.672 8.634 2.575 2.146 5.99 3.257 9.335 3.038 2.18-.143 4.286-.821 6.438-1.198 1.076-.188 2.171-.301 3.261-.231 1.09.07 2.179.327 3.14.846 1.664.898 2.848 2.536 3.471 4.321.623 1.785.726 3.713.614 5.601-.121 2.035-.497 4.088-1.431 5.9-.933 1.812-2.474 3.37-4.405 4.02-1.074.362-2.241.435-3.355.226-1.114-.208-2.172-.696-3.065-1.394-1.257-.981-2.156-2.336-3.084-3.632-.928-1.297-1.945-2.593-3.336-3.371-1.467-.82-3.213-.984-4.892-.918-1.679.066-3.349.344-5.03.335-4.506-.024-8.949-2.246-11.672-5.836-.481 2.717-.188 5.566.837 8.128 1.025 2.562 2.777 4.827 4.999 6.463 3.51 2.584 7.981 3.517 11.672 5.836 1.692 1.063 3.224 2.437 4.238 4.159 1.014 1.722 1.473 3.817 1.014 5.762-.307 1.304-1.012 2.497-1.93 3.473-.918.976-2.044 1.74-3.245 2.335-2.401 1.189-5.069 1.7-7.664 2.363-1.752.448-3.499.973-5.301 1.121-1.803.149-3.702-.112-5.204-1.121-1-.675-1.783-1.655-2.324-2.738-.541-1.083-.856-2.267-1.047-3.462-.382-2.39-.284-4.841-.714-7.223-.614-3.401-2.328-6.595-4.823-8.987-2.495-2.391-5.759-3.968-9.184-4.437 1.861.539 3.455 1.936 4.231 3.711.777 1.775.722 3.894-.146 5.626-.707 1.413-1.906 2.536-3.251 3.365-1.345.83-2.837 1.387-4.336 1.887-2.175.725-4.402 1.344-6.686 1.543-2.284.2-4.639-.035-6.737-.959-1.872-.824-3.516-2.211-4.516-3.995-1-1.784-1.321-3.967-.737-5.927.451-1.511 1.394-2.818 2.324-4.09.93-1.273 1.879-2.574 2.345-4.08.601-1.946.325-4.105-.551-5.944-.875-1.839-2.315-3.372-3.972-4.557-3.312-2.371-7.377-3.367-11.235-4.672-10.602-3.586-20.13-9.756-29.18-16.341-3.781-2.752-7.516-5.6-10.804-8.926-3.287-3.326-6.131-7.16-7.872-11.501-.898-2.239-1.494-4.585-2.227-6.883-.733-2.298-1.619-4.58-3.03-6.54-1.908-2.658-4.757-4.626-7.918-5.469-3.161-.843-6.612-.555-9.59.8 5.286-2.701 11.04-4.486 16.925-5.253 4.449-.58 8.974-.58 13.423 0-.21-2.74-1.238-5.412-2.918-7.587-1.568-2.03-3.664-3.6-5.892-4.87-2.229-1.27-4.603-2.258-6.947-3.301-4.374-1.945-8.659-4.088-12.839-6.42 3.87 1.31 8.191 1.241 12.02-.192 3.826-1.433 7.129-4.22 9.185-7.75 2.4-4.12 3.055-8.989 4.478-13.54 2.212-7.08 6.356-13.584 7.344-20.931.717-5.331-.313-10.835-2.61-15.699-2.297-4.864-5.826-9.1-9.987-12.506-6.601-5.407-14.715-8.734-23.03-10.639-8.317-1.905-16.882-2.451-25.408-2.784-20.426-.798-40.898-.408-61.28 1.167l-2.918-54.28z"/></g><path d="m379.77 761.77c-.754 6.421 1.483 13.13 5.939 17.816 4.876 5.127 11.841 7.594 17.816 11.383 11.524 7.307 19.412 20.08 20.786 33.653-3.461-11.649-11.383-21.911-21.775-28.21-4.69-2.843-9.83-4.891-14.496-7.773-2.333-1.441-4.55-3.096-6.434-5.089-1.884-1.993-3.43-4.336-4.31-6.933-1.676-4.949-.716-10.709 2.474-14.847z"/><g fill="#f00" stroke-width="5"><path d="m247.54 731.16c21.307 6.873 41.14 18.289 57.778 33.27 18.203 16.382 32.353 36.672 46.752 56.48 14.399 19.809 29.467 39.584 48.961 54.41 12.09 9.195 25.76 16.377 36.768 26.846 6.083 5.786 11.256 12.49 17.508 18.09 8.77 7.858 19.538 13.437 27.43 22.18 7.079 7.84 11.499 18.06 12.256 28.597.733 10.204-1.976 20.626-7.587 29.18 2.431-7.509 2.637-15.724.584-23.344-2.123-7.881-6.658-15.1-12.839-20.426-1.434.852-2.649 2.068-3.502 3.502-1.186 1.994-1.649 4.364-1.579 6.684.07 2.319.652 4.598 1.437 6.781 1.358 3.775 3.338 7.325 5.836 10.464-3.48-.452-6.814-1.974-9.435-4.307-2.621-2.334-4.518-5.469-5.368-8.874-1.04-4.164-.488-8.705 1.521-12.498-3.74.944-7.117 3.266-9.338 6.42-1.576 2.237-2.574 4.872-2.918 7.587-.493 3.887.373 7.932 2.415 11.276 2.042 3.344 5.245 5.963 8.928 7.299-4.999-2.025-9.447-5.393-12.753-9.656-3.305-4.263-5.46-9.409-6.177-14.755-.621-4.634-.18-9.334 0-14.01.25-6.506-.038-13.167-2.334-19.259-1.998-5.301-5.452-9.962-9.477-13.948-4.03-3.985-8.627-7.338-13.283-10.564-14.791-10.249-30.415-19.455-43.771-31.515-27.857-25.16-44.05-61.04-71.2-86.958-16.549-15.797-36.96-27.519-58.945-33.85l2.334-25.1z"/><path d="m335.17 878.95c-1.276.019-2.551.132-3.811.34l-4.684 13.52c4.143-2.405 8.947-3.652 13.736-3.566 3.652.065 7.256.889 10.715 2.063 2.943.999 5.801 2.256 8.527 3.748-2.493-6.05-7.361-11.09-13.324-13.793-3.489-1.58-7.331-2.367-11.16-2.311zm-54.34 32.891l-12.863 6.268c-.223 5.101 1.098 10.261 3.746 14.627 3.394 5.597 8.978 9.828 15.285 11.58-1.807-2.528-3.397-5.215-4.74-8.02-1.578-3.293-2.825-6.775-3.326-10.393-.658-4.745.006-9.664 1.898-14.06zm64.857 3.404l-13.25 5.398c4.54 1.527 8.647 4.315 11.742 7.971 2.36 2.787 4.12 6.04 5.52 9.412 1.191 2.871 2.131 5.848 2.809 8.881 2.904-5.867 3.478-12.848 1.574-19.11-1.485-4.886-4.447-9.312-8.395-12.551zm-23.51 22.881l-12.04 7.725c4.743.673 9.29 2.666 13 5.695 2.829 2.31 5.153 5.185 7.145 8.246 1.695 2.605 3.162 5.362 4.381 8.221 1.785-6.298 1.077-13.267-1.938-19.08-2.352-4.533-6.07-8.345-10.543-10.809z"/><path d="m319.4 130.65c-7.39.165-14.711 2.831-20.457 7.484-6.572 5.322-11.03 13.263-11.871 21.678-.883 8.797 2.08 17.606 6.451 25.291 3.155 5.547 7.07 10.657 11.578 15.172-2.519 1.598-5.103 3.105-7.635 4.684-4.629 2.887-9.166 6.107-12.527 10.404-3.688 4.716-5.781 10.527-6.795 16.428-1.014 5.901-1 11.927-.838 17.912.516 18.817 2.51 37.614 6.42 56.03 3.942 18.565 9.81 36.654 15.174 54.859 1.708 5.795 3.367 11.609 4.67 17.508 2.158 9.771 3.333 19.759 3.502 29.764-3.269-3.153-5.383-3.588-7.715-5.807-4.402-4.189-9.299-8.411-11.672-14.01-2.678-6.314-4.525-15.13-2.207-20.455-3.111 6.656-8.37 11.544-9.51 18.803-.552 3.513 2.25 9.451 3.672 12.711 1.181 2.709 3.411 4.791 5.266 7.092.927 1.15 1.777 2.38 2.34 3.746.563 1.366.828 2.882.566 4.336-.125.698-.37 1.362-.695 1.988-.867.069-1.736.12-2.605.133-6.478.094-12.956-1.384-18.814-4.15-5.37-2.536-10.229-6.15-14.201-10.564.013 5.406 1.25 10.805 3.594 15.678 3.48 7.236 9.382 13.197 16.387 17.14-.296.605-.583 1.215-.85 1.832-.705 1.632-1.297 3.309-1.809 5.01-4.02-.65-7.947-1.878-11.629-3.617-5.37-2.536-10.229-6.15-14.201-10.564.013 5.406 1.252 10.805 3.596 15.678 3.8 7.901 10.484 14.289 18.342 18.18.468.232.945.444 1.422.658.046 2.912.213 5.824.449 8.736-2.989.273-6.01.183-8.98-.281-4.899-.767-12.198-6.165-16.424-8.76 1.286 4.316 6.102 11.99 9.123 15.33 4.668 5.161 11.1 8.601 17.922 10.01.036.368.08.736.115 1.104.072.756.134 1.513.199 2.27-3.95.705-8.02.734-11.988.113-4.899-.767-9.643-2.515-13.869-5.109 1.286 4.316 3.549 8.34 6.57 11.68 4.909 5.427 11.77 8.957 18.979 10.219.411.072.825.12 1.238.178.079 3.471.095 6.944.039 10.416 4.725-1.157 9.399-2.521 14.01-4.086 3.637-1.235 7.262-2.612 10.506-4.67 4.586-2.91 8.302-7.168 10.564-12.11.447-.976.822-1.983 1.154-3 1.01-4.215 1.402-8.577 1.121-12.902.633 4.311.226 8.76-1.121 12.902-.469 1.962-1.06 3.896-1.799 5.773-2.733 6.944-7.265 13.13-12.838 18.09-7.142 6.362-15.828 10.673-23.93 15.758-8.372 5.255-16.219 11.404-25.09 15.756-6.989 3.428-14.49 5.677-21.67 8.684-7.18 3.01-14.216 6.917-19.18 12.91-4.493 5.421-6.994 12.228-8.238 19.18-4.806 3.483-9.313 7.376-13.443 11.639-15.208 15.694-25.312 36.906-25.18 58.76.132 22.15 10.698 43.39 25.912 59.49 12.288 13 27.663 23.05 44.48 29.14-2.382 6.218-5.293 12.196-9.523 17.297-3.551 4.282-7.956 7.836-12.838 10.504-2.604 1.423-5.345 2.598-8.172 3.502.991 2.998 2.59 5.794 4.67 8.17 3.411 3.897 8.254 6.663 13.422 7 4.677.309 9.454-1.427 12.84-4.668-1.672 5.069-4.253 9.836-7.586 14.01-1.918 2.4-4.166 4.659-7 5.836-2.293.951-4.899 1.13-7.301.504-2.402-.627-4.587-2.056-6.123-4.01 2.797 4.657 6.879 8.535 11.674 11.09 3.409 1.817 7.225 2.977 11.09 2.918 2.615-.04 5.218-.642 7.586-1.752-3.876 1.926-7.166 5.01-9.338 8.754-2.237 3.855-3.276 8.397-2.918 12.84.397 4.937 2.45 9.58 4.67 14.01 4.123 8.22 8.963 16.13 15.02 23.05 6.06 6.92 13.37 12.841 21.748 16.633 5.878 2.66 12.238 4.249 18.676 4.668-3.218.742-6.161 2.632-8.172 5.252-2.87 3.739-3.735 8.782-2.918 13.424.299 1.699.815 3.375 1.678 4.869.863 1.495 2.088 2.806 3.607 3.623 1.52.817 3.344 1.114 5.01.662.833-.226 1.618-.636 2.266-1.205.648-.57 1.157-1.301 1.447-2.113.529-1.482.312-3.119.584-4.668.344-1.958 1.5-3.754 3.113-4.916 1.613-1.162 3.661-1.689 5.641-1.504 2.056.193 4.01 1.134 5.549 2.51 1.539 1.376 2.675 3.17 3.414 5.098 1.478 3.856 1.379 8.127.959 12.234-.213 2.083-.504 4.17-.445 6.264.059 2.094.488 4.224 1.611 5.992.934 1.469 2.316 2.628 3.867 3.418 1.551.79 3.268 1.223 5 1.402 3.463.359 6.942-.271 10.393-.734 2.046-.275 4.137-.502 6.02-1.35.941-.424 1.823-1 2.521-1.764.699-.76 1.21-1.705 1.381-2.723.23-1.372-.175-2.803-.926-3.975-.751-1.171-1.828-2.104-2.99-2.869-2.325-1.53-5.04-2.454-7.174-4.244-1.646-1.383-2.876-3.255-3.494-5.314-.618-2.059-.621-4.299-.008-6.359 1.541-.996 3.344-1.582 5.176-1.684 1.832-.102 3.688.281 5.33 1.1 1.738.867 3.208 2.198 4.502 3.646 1.294 1.449 2.432 3.03 3.668 4.525 1.061 1.285 2.206 2.52 3.563 3.488 1.357.968 2.944 1.662 4.607 1.764 1.852.113 3.712-.521 5.221-1.602 1.509-1.08 2.683-2.586 3.535-4.234 1.353-2.618 1.919-5.648 1.527-8.568-.392-2.921-1.753-5.716-3.863-7.773-1.676-1.634-3.779-2.782-5.988-3.555-2.209-.772-4.528-1.182-6.85-1.477-5.416-.688-10.91-.762-16.342-.221.894-2.472 2.596-4.644 4.783-6.102 2.187-1.458 4.847-2.194 7.473-2.068 1.421.068 2.817.379 4.227.572 1.41.193 2.869.266 4.234-.135 1.943-.57 3.541-2.096 4.379-3.939 1.01-2.224.954-4.834.209-7.16-.745-2.326-2.133-4.399-3.711-6.264-1.443-1.705-3.068-3.271-4.926-4.512-1.857-1.241-3.956-2.15-6.164-2.49-3.968-.612-8.183.729-11.09 3.5-2.631 2.51-4.108 5.959-6.084 9.01-.988 1.526-2.125 2.978-3.545 4.113-1.42 1.135-3.146 1.94-4.961 2.049-2.346.14-4.674-.915-6.344-2.568-1.67-1.654-2.723-3.857-3.277-6.141-1.108-4.568-.315-9.351-.301-14.05.027-8.894-2.772-17.601-6.691-25.584-3.92-7.983-8.951-15.358-13.734-22.855-3.664-5.742-7.209-11.609-9.699-17.949-2.49-6.34-3.897-13.217-3.141-19.986 1.075-9.628 6.407-18.282 12.639-25.699 6.232-7.417 13.477-13.954 19.459-21.574 2.632-3.353 5.03-6.932 6.676-10.863 1.649-3.931 2.531-8.242 2.08-12.48-.439-4.126-2.112-8.02-4.086-11.672-6.857-12.68-17.402-22.976-25.1-35.17-7.903-12.518-12.62-26.729-17.506-40.703-1.909-5.46-3.854-10.908-5.836-16.342 5.191 7.083 12.654 12.473 21.01 15.174 4.809 1.555 9.885 2.241 14.59 4.086 4.092 1.605 7.823 4.062 11.09 7 6.06 5.449 10.553 12.609 12.838 20.428 2.101-6.92.517-14.848-4.084-20.428-4.162-5.05-10.31-7.971-16.342-10.504-6.279-2.637-12.772-5.085-18.09-9.338-3.773-3.02-6.912-7.01-8.17-11.672-.921-3.415-.798-7.06 0-10.506 1.243-5.367 4.104-10.306 7.922-14.277 3.818-3.971 8.569-6.992 13.672-9.07 7.183-2.919 15.09-3.274 22.76-4.086 5.745-.608 11.627.398 17.32-.578 2.838-.487 5.717-1.21 8.236-2.605 2.506-1.388 4.745-3.34 6.543-5.57 2.463-3.056 4.21-6.696 5.556-10.383.94-2.576 1.535-5.312 1.705-8.05.552-8.902.741-18.265-2.268-26.661-2.609-7.28-13.165-19.1-13.165-19.1 0 0 12.87 5.65 16.441 11.248 4.85 7.602 7.327 20.762 4.44 26.686 6.15-5.366 5-14.185 5.382-21.594.352-6.869-2.334-13.563-2.918-20.426-.612-7.201.818-14.563 4.084-21.01 2.855 4.28 5.394 8.771 7.588 13.424 1.867 3.959 3.486 8.04 4.668 12.256 1.595 5.688 2.385 11.601 2.336 17.508 3.87-7.257 6.451-15.198 7.586-23.344 1.104-7.92.847-15.978 0-23.93-.732-6.874-1.903-13.701-3.502-20.426 4.398 4.449 7.81 9.869 9.922 15.758 2.601 7.255 3.211 15.06 3.502 22.76.286 7.583.286 15.178 0 22.762 3.176-10.294 5.521-20.845 7-31.516 1.344-9.669 1.98-19.424 2.334-29.18.226-6.237.333-12.525-.725-18.676-1.057-6.151-3.353-12.215-7.447-16.926-4.503-5.18-10.805-8.362-16.777-11.744-5.973-3.383-12.01-7.336-15.32-13.35-2.201-4-3.02-8.747-2.285-13.254.734-4.507 3.01-8.746 6.371-11.842-.408 8.458 3.107 17.03 9.338 22.76 3.29 3.03 7.223 5.249 11.05 7.561 3.828 2.312 7.645 4.792 10.543 8.197 2.802 3.293 4.646 7.391 5.252 11.672.716-1.778 1.494-3.53 2.334-5.252 2.446-5.01 5.43-9.821 7-15.174 2.863-9.735.667-20.55-4.67-29.18-5.518-8.922-14.02-15.558-22.676-21.48-8.658-5.922-17.738-11.396-25.18-18.789-11.644-11.569-18.624-27.456-20.426-43.771-.814-7.373-.619-14.858.582-22.18.568 3.27 2.459 6.289 5.152 8.229 2.693 1.939 6.158 2.776 9.439 2.277.794-.121 1.577-.316 2.334-.584 2.038-.72 3.885-1.973 5.309-3.6 1.423-1.627 2.418-3.623 2.861-5.738.32 3.315.71 6.623 1.168 9.922.333 2.401.707 4.814 1.518 7.098 1.101 3.101 3.01 5.91 5.486 8.08-.663-4 .184-8.233 2.334-11.672.808-1.292 1.793-2.474 2.918-3.502.755 2.73 1.533 5.453 2.334 8.17.966 3.278 2.01 6.626 4.086 9.338 2.01 2.621 4.951 4.512 8.17 5.252-1.771-2.492-3.155-5.258-4.086-8.17-1.319-4.126-1.719-8.543-1.166-12.84.383 1.764 1.245 3.422 2.469 4.748 1.224 1.326 2.806 2.317 4.533 2.84 2.251.681 4.652.564 7 .584 3.202.027 6.42.319 9.598-.08 1.589-.2 3.164-.575 4.629-1.223 1.465-.647 2.817-1.573 3.865-2.783 1.227-1.416 2.01-3.209 2.219-5.07.207-1.862-.165-3.785-1.051-5.436-3.623.961-10.415 2.933-15.757 2.919-4.159-.011-8.473-.608-12.256-2.335-4.284-1.956-6.874-4.619-11.09-8.754-1.615-1.584-3.081-3.317-4.717-4.879-2.075-1.981-4.432-3.657-6.963-5.01 1.754.823 3.705 1.227 5.641 1.143 2.374-.103 4.71-.929 6.621-2.342 2.075-1.534 3.6-3.692 4.973-5.877 1.373-2.185 2.644-4.456 4.365-6.379 2.939-3.284 7.08-5.376 11.396-6.246 4.32-.87 8.819-.571 13.12.41 2.344.535 4.656 1.276 6.779 2.404 2.123 1.129 4.057 2.657 5.477 4.598 1.729 2.362 2.638 5.259 2.92 8.172.305 3.148-.098 6.362-1.168 9.338 1.818-2.974 4.476-5.429 7.586-7 1.622-.821 3.353-1.406 5.02-2.141 1.663-.735 3.29-1.646 4.51-2.994 1.246-1.378 2-3.148 2.396-4.963.395-1.815.447-3.685.428-5.543-.022-2.155-.139-4.319-.576-6.43-.437-2.111-1.203-4.175-2.436-5.943-1.254-1.799-2.969-3.254-4.889-4.314-1.919-1.06-4.04-1.733-6.199-2.105-2.345-.404-4.734-.461-7.104-.682-2.369-.221-4.76-.618-6.902-1.652-2.339-1.129-4.277-2.973-5.854-5.04-1.577-2.064-2.822-4.356-4.068-6.635-1.985-3.629-3.998-7.265-6.514-10.549-2.515-3.284-5.57-6.227-9.244-8.127-3.35-1.733-7.111-2.547-10.869-2.867-1.879-.16-3.764-.201-5.65-.188-1.886.013-3.773.08-5.658.135-5.904.173-11.826.232-17.678 1.033-5.851.801-11.675 2.377-16.756 5.389-4.225 2.504-7.756 5.89-11.156 9.455-.132-.193-.27-.382-.4-.576-4.572-6.839-7.527-14.676-9.291-22.711-1.518-6.913-2.132-14.339.518-20.902 1.42-3.516 3.753-6.659 6.709-9.03-.493-.011-.986-.011-1.479 0zm-126.72 501.91c0 0 .806 8.01 2.338 11.662 4.558 10.878 12.03 20.351 19.852 29.29 7.821 8.942 15.64 18.611 18.08 30.24 1.417 6.74 1.495 19.436.115 26.22-8.285-2.584-18.948-9.258-27.398-15.469-7.644-5.619-15.418-11.632-20.75-19.478-5.605-8.248-10.774-17.666-11-27.82-.23-10.137 4.859-19.665 10.584-27.736 2.065-2.911 8.179-6.909 8.179-6.909z"/></g><path d="m207.49 615.01c-4.04 8.151-3.897 18.241.365 26.28 2.35 4.431 5.811 8.166 9.418 11.65 3.607 3.484 7.413 6.786 10.656 10.611 8.623 10.173 12.816 23.975 11.313 37.23 3.447-5.596 5.365-12.12 5.492-18.695.128-6.571-1.535-13.168-4.762-18.895-4.884-8.666-12.995-14.972-19.344-22.629-6.161-7.43-10.679-16.214-13.14-25.547zm33.645 205.19c-4.724 1.399-8.683 5.16-10.322 9.807-1.3 3.686-1.17 7.788-.039 11.529 1.131 3.741 3.216 7.141 5.715 10.146 5.378 6.468 12.586 11.134 18.582 17.03 6.728 6.62 11.895 14.817 14.967 23.742 3.283-6.696 3.478-14.833.518-21.678-2.439-5.639-6.803-10.231-11.494-14.199-4.691-3.968-9.794-7.444-14.313-11.607-2.351-2.167-4.558-4.541-6.133-7.324-1.574-2.783-2.489-6.01-2.127-9.191.367-3.223 2.083-6.271 4.646-8.258z"/><path d="m233.07 729.97c-.289 3.225-1.148 6.398-2.525 9.328-.711 1.514-1.557 2.959-2.379 4.416-1.731 3.071-3.358 6.2-4.876 9.382" fill="none" stroke-width="5"/></g></g><g fill-rule="evenodd"><path d="m307.44 405.12c6.895-2.49 14.622-2.607 21.589-.326 4.831 1.582 9.309 4.31 12.774 8.03 2.904 3.118 5.097 6.976 5.841 11.171.687 3.876.098 7.975-1.69 11.482-1.788 3.507-4.77 6.4-8.347 8.04-4.74 2.178-10.297 2.159-14.927 4.56-4.166 2.161-7.274 6.317-8.03 10.949-.732 4.495.79 9.3 3.977 12.553-2.684-.165-5.32-1.053-7.556-2.546-2.236-1.493-4.067-3.588-5.247-6-1.18-2.416-1.708-5.147-1.511-7.829.196-2.682 1.116-5.307 2.636-7.526 2.328-3.399 5.971-5.739 9.854-7.117 4.16-1.476 8.687-1.955 12.591-4.01 1.731-.913 3.313-2.133 4.544-3.655 1.231-1.522 2.102-3.351 2.391-5.287.283-1.895 0-3.86-.724-5.634-.725-1.774-1.885-3.358-3.299-4.651-2.828-2.586-6.597-3.965-10.393-4.496-3.958-.553-8.03-.24-11.861.912l-2.611-8.616"/><path d="m359.85 201.36c2.31.73 4.633 1.418 6.968 2.065 1.87.518 3.782 1.023 5.419 2.065 1.124.715 2.081 1.659 3.132 2.477 1.051.818 2.252 1.529 3.578 1.652 1.097.102 2.209-.213 3.163-.764.955-.551 1.763-1.327 2.465-2.176 1.404-1.699 2.414-3.709 3.92-5.318 2.052-2.193 4.998-3.523 8-3.613-2.535-.227-4.996-1.23-6.968-2.839-2.74-2.236-4.469-5.526-7.226-7.742-1.258-1.012-2.729-1.784-4.311-2.104-1.582-.32-3.279-.169-4.721.556-1.118.561-2.052 1.444-2.798 2.449-.746 1-1.312 2.13-1.814 3.275-1.01 2.29-1.799 4.732-3.388 6.664-1.374 1.67-3.311 2.869-5.419 3.355z" fill="#fff" stroke="#000" stroke-width="5"/></g><ellipse cx="377.65" cy="196.97" rx="5.419" ry="10.839"/><g stroke="#000"><g fill-rule="evenodd"><path d="m305.1 200.27c4.133-2.326 7.97-5.177 11.39-8.463 2.524-2.426 4.822-5.087 6.852-7.939" fill="none" stroke-width="5"/><path d="m322.54 248.53c1.528.427 3.17.44 4.704.037 1.535-.403 2.958-1.22 4.08-2.341 1.122-1.122 1.939-2.546 2.341-4.08.403-1.535.39-3.176-.037-4.704-.512-1.833-1.585-3.448-2.605-5.05-1.02-1.606-2.02-3.286-2.356-5.159-.241-1.346-.123-2.746.271-4.055.394-1.309 1.059-2.529 1.889-3.616 1.659-2.174 3.941-3.79 6.303-5.168 6.382-3.723 13.637-5.94 21.01-6.42-4.74 2.152-9.105 5.127-12.839 8.754-1.248 1.212-2.439 2.513-3.285 4.03-.846 1.521-1.332 3.289-1.092 5.01.157 1.13.618 2.2 1.194 3.185.576.985 1.268 1.896 1.934 2.823.665.927 1.308 1.879 1.771 2.922.463 1.043.742 2.188.646 3.325-.146 1.735-1.159 3.311-2.474 4.452-1.315 1.141-2.916 1.898-4.529 2.551-5.369 2.176-11.134 3.368-16.925 3.502z"/><path d="m741.31 723.96c10.345 14.599 18.953 30.427 25.586 47.05 9.327 23.367 14.729 48.31 15.682 73.46.821 21.671-1.662 43.47-7.428 64.38-1.516 5.496-3.261 10.942-5.578 16.15-1.409 3.168-3.037 6.259-5.135 9.02-2.099 2.76-4.688 5.189-7.749 6.818-1.677.893-3.477 1.537-5.17 2.399-1.694.861-3.32 1.982-4.352 3.579-.936 1.449-1.319 3.277-.903 4.952.324 1.305 1.115 2.473 2.143 3.34 1.028.867 2.285 1.441 3.592 1.754 2.616.626 5.362.225 7.991-.341 4.332-.933 8.559-2.309 12.685-3.927 4.02-1.575 7.961-3.391 11.555-5.777 6.516-4.326 11.678-10.382 16.458-16.573 4.779-6.191 9.3-12.637 14.906-18.09 5.885-5.726 12.839-10.235 18.983-15.682 2.045-1.813 4.01-3.743 5.574-5.983 1.564-2.241 2.716-4.818 2.993-7.536.298-2.93-.432-5.891-1.625-8.583-1.193-2.692-2.838-5.156-4.466-7.61-4.947-7.454-9.865-15.03-12.979-23.418-4.04-10.87-4.879-22.668-4.695-34.26.184-11.593 1.351-23.17 1.167-34.76-.273-17.195-3.558-34.36-9.904-50.35-7.438-18.735-19.09-35.784-33.839-49.52l-35.49 49.52z" fill="#fff" stroke-width="5"/><path d="m819.43 816.93c2.084 10.263 1.746 21.01-.977 31.12-1.755 6.516-4.493 12.824-5.164 19.538-.393 3.929-.059 7.925.927 11.749.171.662.371 1.34.81 1.864.219.262.497.48.816.601.319.121.682.142 1 .027.309-.11.569-.338.744-.616.175-.277.269-.601.302-.927.066-.652-.103-1.302-.241-1.943-1-4.666-.367-9.522.536-14.209 1.366-7.084 3.337-14.05 5.884-20.802l-2.152-7.01c-.551-2.298-1.012-4.617-1.382-6.95-.653-4.117-1.022-8.28-1.104-12.448z"/><path d="m643.64 835.47l300.97-683.74c0 0 1.888-4.143 1.962-6.212.126-3.517-.805-7.04-2.626-9.292-2.43-3.01-6.247-4.69-10.11-4.451-2.891.179-6.117 1.87-8.625 4.338-1.476 1.452-3.256 5.642-3.256 5.642l-300.97 683.74 11.325 4.987z" fill="#fff" stroke-width="5"/></g><g stroke-width="5"><g fill="#fff"><path d="m577.26 955.56l73.57-88.53-14.489-6.38 11.04-25.08c1.589-3.609-.038-7.794-3.646-9.383l-15.957-7.03c-3.608-1.589-7.792.038-9.381 3.646l-11.04 25.08-14.489-6.38-15.606 114.06z" stroke-linecap="round"/><path d="m862.61 338l-25.1 57.03c2.678 8.303 7.15 16.02 13.02 22.477 12.545 13.79 30.55 21.12 45.38 32.414 5.259 4.01 10.207 8.571 16.207 11.345 2.447 1.131 5.058 1.95 7.742 2.206 2.684.256 5.446-.065 7.925-1.126 3.751-1.606 6.644-4.815 8.566-8.414 1.922-3.599 2.966-7.594 3.86-11.575 4.21-18.749 5.444-38.25 2.701-57.27-3.525-24.446-13.562-48.33-11.345-72.933.645-7.163 2.327-14.191 3.278-21.32.951-7.129 1.146-14.533-1.117-21.359-3.109-9.379-10.475-16.674-15.13-25.391-1.643-3.079-2.944-6.333-4.628-9.389-1.684-3.057-3.811-5.966-6.717-7.898-3.387-2.253-7.583-3-11.651-2.967-4.068.037-8.09.805-12.12 1.346-2.737.368-5.522.64-8.104 1.621-1.244.473-2.438 1.115-3.416 2.02-.978.902-1.73 2.08-1.987 3.385-.187.954-.109 1.938-.012 2.905.096.967.209 1.944.087 2.908-.217 1.719-1.17 3.274-2.354 4.539-1.454 1.553-3.283 2.758-4.527 4.484-1.636 2.271-2.078 5.247-1.676 8.02.271 1.867.912 3.698 1.999 5.241 1.626 2.307 4.129 3.83 6.651 5.096 2.522 1.267 5.164 2.361 7.396 4.088 2.782 2.153 4.763 5.165 6.49 8.23 1.727 3.065 3.264 6.259 5.395 9.06 2.567 3.37 6.117 6.164 10.265 7.02 2.895.6 5.985.213 8.644-1.08-.316 5.982-1.038 11.943-2.161 17.828-2.47 12.947-6.894 25.723-6.483 38.897.197 6.316 1.511 12.604 1.08 18.908-.224 3.282-.918 6.511-1.621 9.724-.709 3.244-1.43 6.485-2.161 9.724-2.738-5.3-5.621-10.524-8.644-15.667-4.865-8.276-10.11-16.358-16.207-23.771-2.982-3.623-6.165-7.081-9.53-10.352z" fill-rule="evenodd"/></g><g fill-rule="evenodd"><path d="m897 387.79c-1.403 4.802-1.774 9.902-1.08 14.857.452 3.228 1.347 6.38 2.431 9.454 1.01 2.856 2.181 5.653 3.512 8.374" fill="none" stroke-linecap="round"/><path d="m837.51 395.03l-119.34 271.11c1.247 14.78-.15 29.78-4.104 44.08-3.44 12.435-8.766 24.25-14.03 36.03-4.343 9.716-8.729 19.747-9.11 30.383-.279 7.806 1.623 15.504 2.507 23.265 1.189 10.443.531 20.994.185 31.499-.986 29.926.498 60.5-8.254 89.14-1.01 3.308-2.156 6.576-3.486 9.768-2.513 6.03-5.681 11.772-9.186 17.285-3.03 4.761-6.31 9.361-9.875 13.734-4.801 5.89-10.326 11.517-17.348 14.422-5.173 2.14-10.845 2.674-16.414 3.255-2.514.262-5.05.545-7.429 1.412-2.374.867-4.601 2.387-5.823 4.6-.526.951-.855 2.02-.891 3.106-.036 1.086.231 2.19.813 3.108.777 1.223 2.058 2.047 3.398 2.601 1.339.553 2.762.872 4.139 1.323 2.049.672 3.998 1.639 5.793 2.834 2.049 1.364 3.909 3.03 6.105 4.142 3.343 1.694 7.258 1.984 10.972 1.485 3.714-.5 7.282-1.743 10.814-2.996 5.387-1.911 10.786-3.872 15.79-6.634 4.408-2.433 8.456-5.459 12.714-8.147 4.258-2.687 8.813-5.068 13.759-6.01 3.566-.678 7.226-.588 10.853-.73 3.627-.141 7.331-.54 10.606-2.105 3.997-1.91 7.132-5.584 8.3-9.858.813-2.973.697-6.114.467-9.188-.713-9.516-2.468-18.938-2.99-28.467-.545-9.956.267-19.99 2.476-29.713 4.897-21.553 16.591-41.582 17.908-63.65 1-16.778-4.125-33.523-2.693-50.27 1.021-11.948 5.367-23.419 11.135-33.933 15.04-27.424 39.41-48.595 56.19-74.998 13-20.467 21.14-43.615 28.06-66.854 3.996-13.418 7.657-27.394 5.777-41.27-2.078-15.34-10.669-28.867-17.426-42.794-3.379-6.964-6.353-14.193-7.816-21.794-1.464-7.6-1.356-15.632 1.307-22.899 1.555-4.244 3.933-8.127 6.076-12.11 2.143-3.98 4.087-8.169 4.654-12.653.52-4.116-.144-8.276-.709-12.386-.565-4.11-1.027-8.328-.117-12.375 1.192-5.3 4.614-9.801 6.603-14.856 2.742-6.972 2.609-15.03-.362-21.904z" fill="#fff"/><path d="m820.09 600.08c-1.075 7.735-2.98 15.354-5.671 22.685-2.714 7.392-6.219 14.475-8.912 21.874-2.154 5.917-3.782 12.02-4.861 18.229" fill="none" stroke-linecap="round"/></g></g></g><g fill-rule="evenodd"><path d="m714.36 920.91c-2.88 4.01-4.588 8.846-4.861 13.773-.277 4.998.884 10.06 0 14.988-.884 4.929-3.892 9.44-8.102 12.152 2.839-1.944 5.678-3.889 8.516-5.834 1.852-1.269 3.717-2.55 5.281-4.16 1.564-1.61 2.826-3.592 3.216-5.803.381-2.158-.089-4.382-.818-6.448-.729-2.066-1.716-4.04-2.423-6.109-1.369-4.02-1.652-8.398-.81-12.558"/><g stroke="#000"><g stroke-width="5"><path d="m772.29 565.65c1.382-4.748 4.251-9.05 8.102-12.152 3.034-2.444 6.48-4.32 9.722-6.481l14.583-9.722" fill="none" stroke-linecap="round"/><g fill="#fff"><path d="m688.61 539.4c-3.055 8.917-5.304 18.11-6.712 27.43-1.4 9.27-1.963 18.741-.584 28.01 1.217 8.181 3.928 16.08 7.295 23.636 3.194 7.166 6.982 14.06 10.209 21.21.678 1.502 1.331 3.01 1.958 4.538 6.28-14.267 12.56-28.533 18.839-42.8 3.083-7 6.167-14.01 9.25-21.01 1.532-3.481 3.065-6.962 4.597-10.443l-44.853-30.567"/><path d="m735.29 127.88c-2.055.057-4.101.483-6.03 1.195-2.576.95-4.953 2.399-7.086 4.127-6.548 5.305-10.623 12.99-14.59 20.426-6.594 12.361-13.373 24.638-19.26 37.35-2.927 6.321-5.798 12.976-11.09 17.508-.739.633-1.521 1.22-2.336 1.752 2.051-.293 4.199.129 5.984 1.18 1.786 1.05 3.198 2.721 3.938 4.656.748 1.957.809 4.095.939 6.186.13 2.091.36 4.249 1.395 6.07.973 1.714 2.592 2.99 4.352 3.879 1.76.889 3.672 1.424 5.57 1.957 1.931.542 3.879 1.09 5.881 1.227 2 .136 4.087-.169 5.791-1.227 1.313-.815 3.551-1.699 4.115-3.138.065 2.528-1.133 4.693-1.197 7.221-.193 7.552-.96 15.08-1.326 22.623-.133 2.738-.214 5.486-.648 8.193-.434 2.707-1.239 5.393-2.715 7.703-2.388 3.737-6.292 6.174-9.9 8.754-8.375 5.988-15.979 13.47-25.678 16.924-6.586 2.345-13.73 2.666-20.428 4.67-3.516 1.052-6.907 2.574-9.922 4.668-5.426 3.768-9.455 9.256-12.551 15.09-3.096 5.835-5.342 12.07-7.875 18.18-7.482 18.02-17.527 34.968-23.918 53.41-5.503 15.877-8.197 32.593-9.932 49.31-.747 7.202-1.321 14.425-2.334 21.594-.439 3.11-.952 6.345 0 9.338.843 2.649 2.769 4.837 4.953 6.557 2.184 1.72 4.648 3.041 7 4.521 9.909 6.232 17.744 15.199 25.375 24.08 7.631 8.877 15.351 17.921 25.12 24.375 6.814 4.503 14.429 7.612 21.781 11.17 7.352 3.558 14.619 7.694 20.08 13.77 5.971 6.645 9.4 15.177 14.75 22.332 1.969 3.897 5.391 6.868 9.02 9.293.044.029.089.057.133.086 2.393 1.894 4.948 3.584 7.643 5.02 3.842 2.923 6.955 6.676 10.389 10.07 2.21 2.185 4.583 4.245 7.309 5.738 2.725 1.494 5.837 2.402 8.936 2.166 1.197-.091 2.409-.364 3.416-1.018.503-.327.948-.748 1.277-1.25.329-.502.54-1.084.574-1.684.052-.899-.283-1.769-.518-2.639-.117-.435-.212-.878-.219-1.328-.006-.45.08-.909.299-1.303.273-.491.742-.852 1.256-1.078.514-.226 1.075-.327 1.633-.391.558-.064 1.12-.091 1.674-.182.554-.091 1.108-.247 1.584-.545.476-.297.86-.728 1.133-1.219.272-.491.435-1.039.508-1.596.145-1.113-.06-2.241-.324-3.332-.494-2.04-1.2-4.051-1.316-6.146-.157-2.838.824-5.71 2.633-7.902.619-.75 1.329-1.424 1.924-2.193.595-.77 1.081-1.666 1.15-2.637.043-.607-.08-1.221-.322-1.779-.243-.559-.603-1.063-1.027-1.5-.849-.874-1.938-1.471-3.041-1.988-4.449-2.085-9.325-3.041-14.05-4.391-1.577-.45-3.15-.951-4.605-1.705-1.456-.754-2.8-1.779-3.736-3.125-.464-.667-.816-1.396-1.078-2.162l28.11-63.859 75.25-170.95 3.557-8.08c-1.867-6.38-5.937-12.09-11.355-15.945-4.741-3.37-10.523-5.314-16.34-5.252-2.925.031-5.881.554-8.754 0-2.311-.446-4.446-1.574-6.35-2.957-1.904-1.383-3.603-3.02-5.324-4.629-3.766-3.514-7.712-6.911-12.256-9.338-2.33-1.245-4.793-2.222-7.141-3.434-2.348-1.211-4.613-2.69-6.281-4.738-1.383-1.698-2.307-3.733-2.918-5.836-.884-3.042-1.121-6.375 0-9.338.698-1.845 1.917-3.495 3.502-4.668 1.016-.752 2.164-1.304 3.229-1.986 1.064-.683 2.074-1.537 2.607-2.684.421-.905.513-1.923.582-2.918.271-3.884.271-7.787 0-11.672.611 2.739 1.814 5.346 3.502 7.588 1.225 1.627 2.738 3.086 4.59 3.934.926.424 1.93.689 2.947.73 1.017.041 2.048-.145 2.969-.58 1.384-.655 2.444-1.823 3.477-2.953 1.033-1.13 2.12-2.281 3.527-2.883 1.516-.648 3.325-.567 4.777.215.918.495 1.68 1.263 2.191 2.172-.632-2.088-.83-4.309-.551-6.473.138-1.072.389-2.125.553-3.193.164-1.068.241-2.164.031-3.225-.249-1.258-.889-2.41-1.646-3.445-.757-1.035-1.635-1.974-2.438-2.975-1.423-1.776-2.605-3.745-3.502-5.836 1.399.379 2.917.3 4.27-.221 1.353-.52 2.532-1.481 3.316-2.699 1.211-1.881 1.434-4.204 1.752-6.418.484-3.367 1.266-6.692 2.334-9.922 1.131.239 2.175.865 2.918 1.75.937 1.118 1.373 2.642 1.168 4.086 1.397-1.23 2.424-2.875 2.918-4.67.827-3 .153-6.221-.932-9.141-1.084-2.919-2.574-5.686-3.459-8.672-1.278-4.311-1.24-8.882-1.449-13.373-.209-4.491-.719-9.123-2.936-13.04-2.577-4.549-7.189-7.642-9.922-12.1-1.132-1.846-1.915-3.886-3-5.76-.543-.937-1.164-1.834-1.918-2.611-.754-.777-1.645-1.434-2.648-1.84-1.01-.409-2.112-.556-3.201-.523-1.089.033-2.167.241-3.219.523-2.135.573-4.18 1.45-6.328 1.971-2.148.52-4.482.662-6.51-.219-1.168-.507-2.17-1.325-3.172-2.111-1-.786-2.042-1.564-3.248-1.975-1.206-.41-2.511-.429-3.781-.332-1.27.097-2.533.306-3.807.332-3.13.065-6.169-.963-9.1-2.064-2.93-1.101-5.877-2.302-8.992-2.605-.683-.067-1.37-.087-2.055-.068zm68.55 116.84c.175.577.376 1.147.617 1.699-.108-.596-.32-1.172-.617-1.699zm-136.38 141.33c-1.268 5.907-1.858 11.959-1.756 18 .118 6.973 1.16 13.93 3.072 20.637 2.45 8.592 6.302 16.719 10.537 24.586 6.277 11.661 13.485 22.963 17.563 35.563.967 2.989 1.758 6.077 1.756 9.219-.002 3.185-.829 6.343-2.195 9.221-1.161 2.446-2.701 4.689-4.072 7.02-2.657 4.524.82 8.496-.515 13.57.214-4.711-6.259-8.552-8.284-12.81-1.389-2.921-3.256-5.585-5.129-8.223-7.833-11.03-16.02-21.983-26.344-30.732-5.743-4.869-12.1-9.01-18.877-12.293 7.607-3.61 13.622-10.44 16.244-18.441 2.146-6.548 2.061-13.584 2.072-20.475.011-6.891.173-13.967 2.756-20.355 2.498-6.179 7.258-11.415 13.172-14.488z"/></g></g><path d="m782.28 461.09c-1.529-.485-2.946-1.319-4.113-2.419-1.827-1.722-2.988-4.02-4.01-6.315-1.023-2.293-1.96-4.658-3.457-6.673-2.046-2.755-5.104-4.727-8.443-5.52-3-.713-6.222-.484-9.09.649 1.912-.73 4.114-.664 5.979.178 1.865.842 3.37 2.451 4.087 4.368.726 1.941.65 4.081.463 6.144-.187 2.063-.473 4.151-.138 6.195.249 1.522.851 2.994 1.806 4.205.955 1.211 2.268 2.151 3.747 2.585 1.394.409 2.891.366 4.314.075 1.423-.29 2.786-.819 4.128-1.374 1.594-.659 3.171-1.359 4.729-2.099z"/><path d="m766.83 135.44c.693 2.853.693 5.872 0 8.725-.329 1.353-.814 2.675-1.529 3.869-.716 1.194-1.667 2.259-2.833 3.02-2.034 1.327-4.575 1.648-7 1.53-2.426-.118-4.815-.636-7.235-.841-3.51-.296-7.05.071-10.562-.23-1.457-.125-2.946-.362-4.363 0-1.072.274-2.047.888-2.796 1.702-.749.814-1.276 1.823-1.566 2.89-.386 1.416-.362 2.914-.194 4.371.168 1.458.477 2.897.653 4.354.164 1.356.214 2.736-.011 4.083-.224 1.347-.733 2.665-1.597 3.723-.724.887-1.668 1.564-2.609 2.216-.941.652-1.901 1.3-2.672 2.147-1.38 1.514-2.054 3.572-2.206 5.615-.152 2.043.18 4.09.599 6.095.469 2.243 1.05 4.467 1.34 6.74.29 2.273.278 4.624-.421 6.807-.368 1.149-.928 2.243-1.701 3.169-.773.926-1.765 1.68-2.891 2.112-1.163.445-2.436.539-3.677.441-1.241-.098-2.459-.381-3.67-.671-2.148-.514-4.292-1.05-6.429-1.607-.21 1.615.102 3.294.879 4.725.777 1.431 2.01 2.608 3.483 3.311 1.444.692 3.058.921 4.592 1.378 1.249.371 2.463.903 3.494 1.7 1.03.797 1.87 1.874 2.246 3.121.274.905.298 1.875.152 2.809-.145.935-.457 1.837-.841 2.701-1.231 2.766-3.242 5.179-5.74 6.888" fill="none" stroke-width="5"/></g></g><path d="m769.12 136.13c.936 2.894 1.478 5.916 1.607 8.955.082 1.931 0 3.879.33 5.784.165.952.436 1.891.867 2.756.431.865 1.028 1.655 1.788 2.252 1 .787 2.233 1.209 3.44 1.614 1.207.405 2.441.821 3.448 1.601 1.252.968 2.039 2.405 2.749 3.819.71 1.414 1.401 2.881 2.532 3.987.972.951 2.21 1.576 3.454 2.125 1.244.548 2.523 1.039 3.664 1.779 2.066 1.339 3.544 3.406 4.822 5.511 2.31 3.806 4.126 7.887 5.97 11.94 2.099 4.613 4.242 9.205 6.429 13.776" fill="none" fill-rule="evenodd" stroke="#000" stroke-width="5" id="0"/><g fill-rule="evenodd" stroke="#000"><path d="m818.38 385.76c-3.584 3.02-7.734 5.371-12.169 6.888-6.38 2.183-13.241 2.627-19.976 2.296-5.504-.27-10.994-1.048-16.302-2.526-4.541-1.264-8.941-3.039-13.09-5.281 1.19 3.535 3.46 6.697 6.429 8.955 4.068 3.094 9.202 4.395 14.236 5.281 7.69 1.354 15.744 1.888 23.19-.459 4.46-1.406 8.604-3.84 11.94-7.118 2.36-2.319 4.312-5.05 5.74-8.04z"/><path d="m766.83 135.44c.693 2.853.693 5.872 0 8.725-.329 1.353-.814 2.675-1.529 3.869-.716 1.194-1.667 2.259-2.833 3.02-2.034 1.327-4.575 1.648-7 1.53-2.426-.118-4.815-.636-7.235-.841-3.51-.296-7.05.071-10.562-.23-1.457-.125-2.946-.362-4.363 0-1.072.274-2.047.888-2.796 1.702-.749.814-1.276 1.823-1.566 2.89-.386 1.416-.362 2.914-.194 4.371.168 1.458.477 2.897.653 4.354.164 1.356.214 2.736-.011 4.083-.224 1.347-.733 2.665-1.597 3.723-.724.887-1.668 1.564-2.609 2.216-.941.652-1.901 1.3-2.672 2.147-1.38 1.514-2.054 3.572-2.206 5.615-.152 2.043.18 4.09.599 6.095.469 2.243 1.05 4.467 1.34 6.74.29 2.273.278 4.624-.421 6.807-.368 1.149-.928 2.243-1.701 3.169-.773.926-1.765 1.68-2.891 2.112-1.163.445-2.436.539-3.677.441-1.241-.098-2.459-.381-3.67-.671-2.148-.514-4.292-1.05-6.429-1.607-.21 1.615.102 3.294.879 4.725.777 1.431 2.01 2.608 3.483 3.311 1.444.692 3.058.921 4.592 1.378 1.249.371 2.463.903 3.494 1.7 1.03.797 1.87 1.874 2.246 3.121.274.905.298 1.875.152 2.81-.145.935-.457 1.837-.841 2.701-1.231 2.766-3.242 5.179-5.74 6.888" fill="none" stroke-width="5"/></g><use xlink:href="#0"/><path d="m667.18 385.25c3.584 3.02 7.734 5.371 12.169 6.888 6.38 2.183 13.241 2.627 19.976 2.296 5.504-.27 10.994-1.048 16.302-2.526 4.541-1.264 8.941-3.039 13.09-5.281-1.19 3.535-3.46 6.697-6.429 8.955-4.068 3.094-9.202 4.395-14.236 5.281-7.69 1.354-15.744 1.888-23.19-.459-4.46-1.406-8.604-3.84-11.94-7.118-2.36-2.319-4.312-5.05-5.74-8.04z" fill-rule="evenodd" stroke="#000"/><ellipse cx="698.52" cy="382.04" rx="6.085" ry="5.74"/><ellipse cx="791.67" cy="377.45" rx="6.085" ry="5.74"/><g fill-rule="evenodd"><path d="m705.95 312.36c-3.606.182-6.925 1.91-10.391 2.922-5.03 1.469-10.402 1.422-15.586.65-2.522-.375-5.02-.919-7.469-1.625 2.376 2.497 5.27 4.5 8.443 5.846 4.706 1.995 9.877 2.513 14.936 3.246 2.412.349 4.841.754 7.273.611 2.433-.143 4.914-.889 6.689-2.559 1.066-1 1.85-2.344 2.027-3.797.089-.726.026-1.474-.205-2.168-.231-.694-.632-1.334-1.172-1.828-.597-.547-1.35-.907-2.135-1.104-.785-.197-1.604-.236-2.412-.195zm68.23 2.58c-.808-.041-1.627-.002-2.412.195-.785.197-1.538.557-2.135 1.104-.54.495-.941 1.134-1.172 1.828-.231.694-.294 1.442-.205 2.168.178 1.453.961 2.794 2.027 3.797 1.775 1.67 4.257 2.416 6.689 2.559 2.433.143 4.862-.262 7.273-.611 5.058-.733 10.23-1.251 14.936-3.246 3.173-1.345 6.067-3.349 8.443-5.846-2.45.706-4.947 1.248-7.469 1.623-5.184.771-10.555.821-15.586-.648-3.466-1.012-6.785-2.74-10.391-2.922zm-93.23 97.43c.505 7.966 1.59 15.896 3.246 23.705 1.366 6.443 3.131 12.831 5.846 18.832 2.496 5.518 5.786 10.675 9.74 15.262-3.123-5.319-5.633-10.996-7.467-16.885-2.053-6.594-3.252-13.419-4.871-20.13-1.703-7.06-3.874-14.01-6.494-20.781zm58.641 25.902c-1.157.003-2.313.137-3.439.4-3.344.783-6.423 2.742-8.443 5.52-1.48 2.034-2.366 4.425-3.371 6.73-1.01 2.305-2.193 4.616-4.098 6.258-2.029 1.749-4.807 2.596-7.467 2.273 2.394 1.922 5.02 3.561 7.793 4.871 1.32.622 2.684 1.173 4.115 1.457 1.431.284 2.938.293 4.326-.158 1.874-.609 3.425-2.034 4.396-3.748.971-1.714 1.395-3.7 1.449-5.67.057-2.076-.282-4.141-.424-6.213-.142-2.072-.074-4.217.748-6.125.799-1.855 2.311-3.393 4.152-4.225 1.841-.831 3.994-.949 5.914-.322-1.796-.702-3.725-1.055-5.652-1.049zm-129.76 48.598c3.431 2.091 6.505 4.767 9.05 7.879 6.109 7.478 9.05 17.272 15.758 24.22 5.436 5.634 13.181 8.968 21.01 9.04-8.092-1.312-15.6-5.922-20.428-12.547-2.514-3.449-4.296-7.364-6.195-11.186-1.9-3.822-3.97-7.63-6.936-10.699-3.286-3.401-7.62-5.776-12.256-6.713zm109.76.51c-.573 3.98-2.151 7.81-4.547 11.04-1.486 2-3.27 3.766-4.822 5.717-1.553 1.951-2.898 4.161-3.295 6.623-.362 2.244.099 4.578 1.076 6.631.977 2.053 2.45 3.839 4.119 5.383 3.754 3.471 8.578 5.768 13.639 6.494-3.815-.617-7.356-2.788-9.637-5.908-2.28-3.121-3.274-7.154-2.703-10.977.634-4.248 3.052-7.988 4.547-12.01 1.533-4.127 2.093-8.611 1.623-12.988z" stroke="#fff"/><g stroke="#000"><g fill="none" stroke-linecap="round" stroke-width="5"><path d="m689.61 518.25c3.259 4.81 6.384 9.71 9.371 14.694 1.735 2.894 3.445 5.847 5.787 8.277 1.171 1.215 2.496 2.292 3.98 3.095 1.484.803 3.13 1.329 4.814 1.428 2.524.149 5.01-.652 7.347-1.607 3.146-1.283 6.177-2.866 8.955-4.822 1.41-.992 2.772-2.09 4.363-2.755 1.658-.693 3.484-.88 5.281-.918 2.862-.061 5.731.236 8.52.882"/><path d="m741.83 549.61c-1.901 1.01-3.639 2.32-5.125 3.875-.801.838-1.533 1.753-2.064 2.783-.531 1.03-.855 2.184-.811 3.342.035.928.302 1.834.664 2.689.362.855.818 1.666 1.252 2.487.376.712.736 1.433 1.078 2.162"/></g><path d="m742.01 392.91c-1.875 6.765-4.217 13.4-7 19.843-2.246 5.193-4.78 10.262-7.587 15.174 5.917-4.61 10.441-10.985 12.839-18.09 1.829-5.418 2.432-11.247 1.751-16.925z"/><path d="m749.34 392.04c1.512 5.489 3.401 10.873 5.649 16.1 1.811 4.213 3.855 8.326 6.12 12.314-4.775-3.754-8.423-8.925-10.357-14.682-1.478-4.399-1.964-9.128-1.412-13.735z"/><path d="m736.76 305.96c-.763 1.107-1.18 2.449-1.18 3.793 0 1.345.417 2.686 1.18 3.793.888 1.29 2.213 2.235 3.647 2.866 1.433.631 2.978.967 4.524 1.219 2.699.44 5.437.636 8.171.584-1.972 1.444-4.138 2.625-6.42 3.502-2.472.949-5.133 1.544-7.768 1.275-1.317-.135-2.617-.487-3.797-1.089-1.179-.602-2.236-1.457-3.03-2.52-.792-1.067-1.305-2.335-1.5-3.65-.195-1.314-.073-2.672.333-3.937.874-2.72 3.116-4.963 5.836-5.836z"/><g fill="none" stroke-linecap="round" stroke-width="5"><path d="m710.34 260.88c.32 7.654.189 15.327-.393 22.966-.248 3.252-.578 6.504-1.238 9.698-.719 3.479-1.829 6.878-3.301 10.111"/><path d="m765.94 269.77c.014 5.05.401 10.11 1.159 15.11.881 5.813 2.264 11.55 4.127 17.13"/><path d="m745.22 256.64c1.01 1.087 2.266 1.942 3.648 2.48 2.299.896 4.831.898 7.295 1.021 1.898.095 3.809.269 5.69 0 2.182-.312 4.275-1.231 5.982-2.626"/><path d="m714.15 230.38c.172 2.076.883 4.106 2.043 5.836 1.15 1.716 2.761 3.148 4.669 3.939 2.115.878 4.56.931 6.712.146"/><path d="m727.75 240.73c-.565 3.469-.006 7.112 1.573 10.251.738 1.468 1.701 2.835 2.918 3.939 1.661 1.507 3.788 2.495 6.01 2.792 2.223.297 4.534-.097 6.533-1.115"/></g></g><path d="m730.63 176.69c.376 1.601 1.467 3.02 2.918 3.793 1.502.801 3.291.903 4.976.665 1.685-.238 3.306-.793 4.945-1.248 1.817-.504 3.677-.89 5.561-.954 1.884-.065 3.799.201 5.527.954 1.605.699 3.03 1.816 4.085 3.21 1.351-1.064 2.131-2.815 2.02-4.531-.114-1.716-1.119-3.348-2.6-4.223-1.227-.725-2.681-.926-4.085-1.167-2.387-.41-4.753-.976-7.165-1.193-2.413-.217-4.913-.068-7.133.902-1.638.715-3.061 1.848-4.669 2.626-1.367.662-2.862 1.06-4.377 1.167"/><path d="m734.72 191.86c1.33-.548 2.604-1.234 3.793-2.043 1.305-.887 2.557-1.944 4.085-2.334 1.045-.267 2.15-.199 3.21 0 1.855.349 3.622 1.091 5.253 2.043 1.632.952 3.133 2.11 4.669 3.21 1.426 1.021 2.886 1.994 4.377 2.918-2.835-.914-5.987-.809-8.754.292-1.82.724-3.454 1.851-5.253 2.626-.888.383-1.827.681-2.793.73-.966.05-1.967-.165-2.752-.73-.906-.652-1.439-1.687-2.043-2.626-1.01-1.571-2.301-2.962-3.793-4.085z" stroke="#000"/><path d="m797.55 191.79c-1.054 1.262-2.666 2.04-4.31 2.08-1.701.042-3.346-.67-4.745-1.639-1.399-.969-2.598-2.192-3.859-3.335-1.397-1.266-2.887-2.445-4.542-3.348-1.655-.903-3.485-1.525-5.368-1.628-1.748-.095-3.519.265-5.091 1.035-.73-1.557-.641-3.472.232-4.954.872-1.482 2.503-2.49 4.219-2.607 1.422-.097 2.811.376 4.175.79 2.317.705 4.685 1.261 6.939 2.149 2.253.889 4.421 2.145 5.97 4.01 1.142 1.374 1.906 3.02 2.994 4.442.925 1.205 2.081 2.232 3.388 3.01"/><g stroke="#000"><path d="m790.84 200.73c-1.052-.982-2-2.072-2.831-3.248-.909-1.289-1.709-2.72-3-3.623-.884-.618-1.942-.943-3-1.13-1.859-.327-3.774-.254-5.635.062-1.863.316-3.675.872-5.5 1.36-1.694.454-3.404.851-5.124 1.19 2.975.143 5.888 1.351 8.091 3.355 1.449 1.318 2.581 2.949 3.991 4.307.697.671 1.47 1.28 2.357 1.667.887.387 1.899.538 2.833.285 1.078-.291 1.941-1.072 2.837-1.739 1.499-1.115 3.197-1.962 4.989-2.488z"/><path d="m765.36 185.73c-1.597 2.633-2.51 5.677-2.626 8.754-.14 3.719.859 7.38 1.167 11.09.234 2.813.07 5.641 0 8.462-.024.947-.039 1.909-.316 2.815-.139.453-.343.889-.631 1.265-.288.376-.662.691-1.095.881-.581.255-1.248.275-1.865.128-.617-.147-1.188-.452-1.702-.824-1.028-.743-1.843-1.747-2.853-2.515-1.477-1.123-3.362-1.699-5.214-1.593-1.853.106-3.659.892-4.999 2.176 1.891.126 3.763.52 5.544 1.167 2.21.803 4.261 1.986 6.42 2.918 1.212.523 2.473.97 3.787 1.097 1.313.127 2.693-.088 3.8-.805.983-.637 1.697-1.632 2.147-2.713.45-1.081.653-2.249.771-3.415.508-5.02-.502-10.08-2.043-14.882-.708-2.206-1.535-4.404-1.751-6.712-.235-2.504.279-5.074 1.459-7.295z"/><path d="m783.45 217.54c.321 3.11.613 6.223.875 9.338.215 2.553.395 5.219-.584 7.587-.457 1.106-1.16 2.11-2.043 2.918" fill="none" stroke-linecap="round" stroke-width="5"/></g></g><path d="m739.37 225.91c0 0-1.042 1.455-.788 2.753.095.488-.139.749.021 1.219.16.47.302.953.32 1.449.019.541-.115 1.089-.383 1.559-.267.472-.668.864-1.143 1.129.905.734 2.049 1.172 3.213 1.227 1.503.071 2.973-.475 4.475-.533 1.415-.055 2.811.325 4.148.793 1.337.468 2.647 1.03 4.02 1.369 1.703.42 3.52.502 5.08 1.301 1.158.593 2.114 1.57 2.68 2.742.812-.534 1.574-1.142 2.277-1.811.757-.719.94-1.522 1.392-2.465.422-.88.36-1.197.308-2.171-.287-.371-.353-.991-.815-1.078-.461-.088-.539-.312-.943-.071-.359.214-.637.534-.908.852-.272.317-.547.644-.9.865-.41.259-.914.361-1.395.301-.481-.059-.941-.28-1.299-.605-.339-.308-.584-.703-.82-1.096-.236-.392-.467-.793-.781-1.127-.647-.689-1.585-1.024-2.512-1.207-.926-.184-1.878-.24-2.789-.488-.765-.208-1.489-.547-2.236-.811-.748-.264-1.54-.453-2.324-.348-.721.098-1.385.436-2.072.672-.344.118-.699.214-1.063.236-.363.023-.735-.027-1.063-.186-.363-.175-.656-.477-.869-.818-.213-.343-.35-.727-.457-1.115-.214-.777-.315-1.603-.717-2.301-.381-.661-.927-.025-1.66-.236m5.284 9.865c-.627.02-1.252.121-1.854.299.732 1.301 1.732 2.45 2.918 3.355 1.24.947 2.695 1.629 4.232 1.896 1.699.295 3.46.079 5.105-.438 1.124-.353 2.206-.844 3.211-1.459-1.017-.555-2.097-.998-3.211-1.314-1.487-.422-3.03-.619-4.521-1.02-1.748-.469-3.447-1.219-5.254-1.314-.209-.011-.418-.013-.627-.006"/></g></svg>