<?xml version="1.0" encoding="UTF-8" standalone="no"?>
<svg
   xmlns:dc="http://purl.org/dc/elements/1.1/"
   xmlns:cc="http://creativecommons.org/ns#"
   xmlns:rdf="http://www.w3.org/1999/02/22-rdf-syntax-ns#"
   xmlns:svg="http://www.w3.org/2000/svg"
   xmlns="http://www.w3.org/2000/svg"
   xmlns:sodipodi="http://sodipodi.sourceforge.net/DTD/sodipodi-0.dtd"
   xmlns:inkscape="http://www.inkscape.org/namespaces/inkscape"
   height="923.09082"
   viewBox="0 0 869.93856 923.08609"
   version="1.1"
   id="svg995"
   sodipodi:docname="DEU_Ursensollen_COA.svg"
   inkscape:version="0.92.5 (2060ec1f9f, 2020-04-08)"
   width="869.93854">
  <metadata
     id="metadata1001">
    <rdf:RDF>
      <cc:Work
         rdf:about="">
        <dc:format>image/svg+xml</dc:format>
        <dc:type
           rdf:resource="http://purl.org/dc/dcmitype/StillImage" />
        <dc:title></dc:title>
      </cc:Work>
    </rdf:RDF>
  </metadata>
  <defs
     id="defs999" />
  <sodipodi:namedview
     pagecolor="#ffffff"
     bordercolor="#666666"
     borderopacity="1"
     objecttolerance="10"
     gridtolerance="10"
     guidetolerance="10"
     inkscape:pageopacity="0"
     inkscape:pageshadow="2"
     inkscape:window-width="1920"
     inkscape:window-height="1046"
     id="namedview997"
     showgrid="false"
     inkscape:zoom="0.85906952"
     inkscape:cx="434.96926"
     inkscape:cy="461.54493"
     inkscape:window-x="-11"
     inkscape:window-y="-11"
     inkscape:window-maximized="1"
     inkscape:current-layer="svg995"
     fit-margin-top="0"
     fit-margin-left="0"
     fit-margin-right="0"
     fit-margin-bottom="0"
     inkscape:snap-midpoints="true"
     inkscape:snap-smooth-nodes="true"
     inkscape:snap-nodes="true" />
  <path
     style="fill:#da121a;fill-opacity:1;fill-rule:evenodd;stroke:none;stroke-width:11;stroke-linecap:round;stroke-linejoin:round;stroke-miterlimit:4;stroke-dasharray:none;stroke-opacity:1"
     inkscape:connector-curvature="0"
     d="M 864.43862,5.4976166 820.47502,525.49709 C 810.91512,744.2308 664.03182,917.46598 434.96923,917.58848 206.11267,917.31998 59.158701,744.02262 49.463451,525.49709 L 5.4999208,5.4976166 H 434.95894 Z"
     id="path10563-0-6-2-8"
     sodipodi:nodetypes="ccccccc" />
  <path
     inkscape:connector-curvature="0"
     style="fill:#ffffff;fill-opacity:1;stroke:#020000;stroke-width:5;stroke-linecap:round;stroke-linejoin:round;stroke-miterlimit:4;stroke-dasharray:none;stroke-opacity:1"
     d="M 203.4015,5.4976252 300.0519,107.68708 400.4054,12.774969 393.5226,5.4976252 Z M 300.0519,107.68708 199.6945,202.6031 316.1046,325.68513 416.4601,230.77107 Z M 416.4601,230.77107 532.8702,353.8531 633.2238,258.93904 516.8156,135.85701 Z M 532.8702,353.8531 432.5148,448.76716 548.923,571.84919 649.2804,476.93513 Z"
     id="rect2114" />
  <path
     inkscape:connector-curvature="0"
     style="fill:#000000;fill-opacity:1;stroke:#020000;stroke-width:5;stroke-linecap:round;stroke-linejoin:round;stroke-miterlimit:4;stroke-dasharray:none;stroke-opacity:1"
     d="M 13.27454,5.4976252 83.28431,79.521063 h 0.002 L 199.6945,202.6031 300.0519,107.68708 203.4015,5.4976252 Z M 300.0519,107.68708 416.4601,230.77107 516.8156,135.85701 400.4054,12.774969 Z M 416.4601,230.77107 316.1046,325.68513 432.5148,448.76716 532.8702,353.8531 Z M 532.8702,353.8531 649.2804,476.93513 v 0 L 548.925,571.84919 665.3332,694.93122 v 0.002 l 71.959,76.08398 c 28.8594,-38.66299 50.7827,-83.4237 64.9336,-132.36719 l -36.5371,-38.63281 53.1445,-50.26367 c 0.7349,-8.01847 1.2864,-16.10441 1.6426,-24.25586 l 5.3223,-62.94531 -76.166,-80.53125 v 0 L 633.2238,258.93904 Z"
     id="rect2114-9" />
  <g
     id="g2244">
    <path
       id="rect1959"
       transform="translate(0,-0.00237704)"
       d="M 43.798828 458.51172 L 49.462891 525.5 C 59.158139 744.02551 206.11221 917.3233 434.96875 917.5918 L 434.96875 458.51172 L 43.798828 458.51172 z M 820.47461 525.5 C 820.37635 527.74809 820.25806 529.99016 820.13086 532.22852 C 820.25807 529.99013 820.37635 527.74814 820.47461 525.5 z M 820.02148 534.08203 C 819.88574 536.32706 819.74095 538.56789 819.57617 540.80273 C 819.74095 538.56816 819.88575 536.3268 820.02148 534.08203 z M 819.57617 540.80273 C 819.40886 543.07202 819.22056 545.33525 819.02344 547.59375 C 819.22063 545.33482 819.4088 543.07247 819.57617 540.80273 z M 818.87891 549.22656 C 818.67558 551.47174 818.46318 553.71314 818.23047 555.94727 C 818.46314 553.71377 818.6756 551.47111 818.87891 549.22656 z M 818.23047 555.94727 C 817.99636 558.19483 817.74223 560.43385 817.47852 562.66992 C 817.74228 560.4337 817.99632 558.19498 818.23047 555.94727 z M 817.2832 564.29492 C 817.01473 566.50837 816.73882 568.71812 816.44141 570.91992 C 816.73881 568.71836 817.01473 566.50812 817.2832 564.29492 z M 816.44141 570.91992 C 816.14757 573.09523 815.83367 575.26212 815.51172 577.42578 C 815.8337 575.26209 816.14755 573.09525 816.44141 570.91992 z M 815.23242 579.2793 C 814.90402 581.42928 814.56705 583.57675 814.21094 585.71484 C 814.56704 583.57678 814.90402 581.42924 815.23242 579.2793 z M 812.48242 595.47266 C 812.00471 598.01523 811.49955 600.54587 810.98242 603.07031 C 811.49962 600.54556 812.00465 598.01555 812.48242 595.47266 z M 810.6875 604.51953 C 810.1947 606.88746 809.68167 609.24621 809.1543 611.59766 C 809.68162 609.24643 810.19474 606.88724 810.6875 604.51953 z M 808.76562 613.31641 C 808.23492 615.64156 807.68942 617.95907 807.125 620.26758 C 807.6894 617.95915 808.23494 615.64148 808.76562 613.31641 z M 806.73438 621.83984 C 806.14654 624.20805 805.54705 626.56979 804.92383 628.91992 C 805.54709 626.56963 806.1465 624.20821 806.73438 621.83984 z M 804.63867 629.9707 C 804.04391 632.19213 803.43291 634.40454 802.80664 636.60938 C 803.43286 634.40472 804.04396 632.19195 804.63867 629.9707 z M 802.46484 637.82031 C 801.79219 640.16363 801.09681 642.49628 800.38867 644.82031 C 801.0969 642.49597 801.7921 640.16394 802.46484 637.82031 z M 799.94141 646.28516 C 799.23535 648.57422 798.51382 650.85325 797.77344 653.12305 C 798.51365 650.85376 799.23551 648.5737 799.94141 646.28516 z M 797.28711 654.5957 C 796.53418 656.87682 795.76799 659.15103 794.98047 661.41211 C 795.76817 659.15052 796.53401 656.87733 797.28711 654.5957 z M 794.57031 662.57227 C 793.83035 664.67772 793.07651 666.7737 792.30664 668.86133 C 793.07631 666.77421 793.83053 664.67721 794.57031 662.57227 z M 791.90039 669.9707 C 791.06895 672.20652 790.21526 674.42969 789.34961 676.64453 C 790.21533 674.42949 791.06888 672.20673 791.90039 669.9707 z M 788.77148 678.12109 C 787.90682 680.30954 787.02494 682.48692 786.12695 684.6543 C 787.02488 682.48705 787.90688 680.30941 788.77148 678.12109 z M 785.57422 685.97852 C 784.65469 688.17684 783.72131 690.36691 782.76758 692.54297 C 783.72145 690.36658 784.65456 688.17717 785.57422 685.97852 z M 782.23242 693.74609 C 781.3056 695.84284 780.3667 697.93032 779.4082 700.00586 C 780.36664 697.93043 781.30566 695.84272 782.23242 693.74609 z M 779.09375 700.69531 C 778.08035 702.87928 777.04249 705.04707 775.99414 707.20703 C 777.04243 705.04718 778.08041 702.87917 779.09375 700.69531 z M 775.40234 708.42969 C 774.38133 710.51578 773.3426 712.58922 772.28906 714.65234 C 773.34259 712.58923 774.38135 710.51577 775.40234 708.42969 z M 771.56641 716.05859 C 770.50719 718.11313 769.43518 720.15831 768.34375 722.18945 C 769.43507 720.15849 770.50729 718.11295 771.56641 716.05859 z M 767.68359 723.4043 C 766.54447 725.50688 765.39233 727.60086 764.21875 729.67773 C 765.39264 727.6003 766.54417 725.50746 767.68359 723.4043 z M 763.97656 730.10352 C 762.79051 732.19648 761.58418 734.27352 760.36328 736.33984 C 761.58388 734.27399 762.79079 732.196 763.97656 730.10352 z M 759.875 737.17188 C 758.65889 739.21871 757.42207 741.25139 756.17188 743.27148 C 757.42243 741.25081 758.65855 739.2193 759.875 737.17188 z M 755.4668 744.40625 C 754.21003 746.4216 752.93907 748.42404 751.64844 750.41211 C 752.93868 748.42462 754.2104 746.42101 755.4668 744.40625 z M 751.08789 751.26953 C 749.75095 753.3171 748.40011 755.35313 747.02734 757.37109 C 748.40007 755.35318 749.75099 753.31706 751.08789 751.26953 z M 746.64844 757.92188 C 745.31585 759.87348 743.96558 761.81104 742.59961 763.73438 C 743.96565 761.81093 745.31579 759.87359 746.64844 757.92188 z M 742.17383 764.33594 C 740.80627 766.25367 739.41822 768.15391 738.01758 770.04297 C 739.41829 768.1538 740.8062 766.25379 742.17383 764.33594 z M 737.1582 771.19922 C 735.79482 773.0235 734.41766 774.83399 733.02344 776.63086 C 734.4175 774.83416 735.79496 773.02332 737.1582 771.19922 z M 732.12109 777.78516 C 730.6845 779.62182 729.23638 781.44854 727.76758 783.25586 C 729.23658 781.44827 730.6843 779.62211 732.12109 777.78516 z M 727.26562 783.86523 C 725.75733 785.71315 724.23327 787.54668 722.69141 789.36328 C 724.23324 787.54669 725.75736 785.71314 727.26562 783.86523 z M 722.38086 789.73242 C 720.8208 791.56563 719.24059 793.37896 717.64648 795.17969 C 719.24053 793.379 720.82086 791.56558 722.38086 789.73242 z M 716.84961 796.08008 C 715.30616 797.81216 713.74484 799.52913 712.16992 801.23047 C 713.74512 799.52882 715.30589 797.81249 716.84961 796.08008 z M 711.32227 802.14258 C 709.70161 803.88142 708.06757 805.60458 706.41406 807.31055 C 708.06722 805.60492 709.70195 803.88106 711.32227 802.14258 z M 705.91992 807.81641 C 704.21268 809.57097 702.48993 811.31215 700.74805 813.03125 C 702.49016 811.31191 704.21246 809.57122 705.91992 807.81641 z M 700.49609 813.28125 C 698.74183 815.00918 696.96683 816.71476 695.17773 818.40625 C 696.96692 816.71467 698.74174 815.00928 700.49609 813.28125 z M 694.60938 818.94531 C 692.90762 820.54722 691.188 822.12871 689.45508 823.69727 C 691.18758 822.12906 692.90803 820.54685 694.60938 818.94531 z M 688.38281 824.66406 C 686.65194 826.21812 684.90799 827.75879 683.14648 829.2793 C 684.90822 827.75857 686.65172 826.21835 688.38281 824.66406 z M 682.44922 829.875 C 680.57538 831.48408 678.68935 833.07968 676.78125 834.65039 C 678.68933 833.07968 680.5754 831.48409 682.44922 829.875 z M 676.63281 834.77148 C 674.78622 836.2899 672.91945 837.78557 671.04102 839.26758 C 672.91966 837.78539 674.78602 836.29008 676.63281 834.77148 z M 670.20703 839.92773 C 668.37947 841.36073 666.53507 842.77367 664.67773 844.17188 C 666.53493 842.77376 668.3796 841.36064 670.20703 839.92773 z M 663.60156 844.98047 C 661.73905 846.3715 659.86274 847.74583 657.9707 849.10156 C 659.86256 847.74593 661.73923 846.37139 663.60156 844.98047 z M 657.01953 849.77734 C 655.05845 851.17278 653.08421 852.55494 651.0918 853.91211 C 653.08492 852.55445 655.05775 851.1733 657.01953 849.77734 z M 650.65039 854.20898 C 648.66288 855.55844 646.65901 856.88632 644.64062 858.19727 C 646.65891 856.88638 648.66298 855.55837 650.65039 854.20898 z M 644.04883 858.58398 C 642.04514 859.87968 640.02404 861.1528 637.99023 862.41016 C 640.02388 861.15289 642.0453 859.87958 644.04883 858.58398 z M 636.92383 863.07031 C 634.92875 864.29394 632.91822 865.49914 630.89453 866.68555 C 632.91849 865.49898 634.92849 864.29412 636.92383 863.07031 z M 629.76172 867.34375 C 627.67857 868.55467 625.58378 869.74879 623.4707 870.91992 C 625.58362 869.74887 627.67872 868.55458 629.76172 867.34375 z M 622.98438 871.1875 C 620.72582 872.43464 618.45256 873.66209 616.16016 874.86328 C 618.45233 873.66219 620.72605 872.43453 622.98438 871.1875 z M 616.11523 874.88672 C 613.90532 876.04429 611.67669 877.17471 609.43555 878.28906 C 611.67659 877.17474 613.90541 876.04425 616.11523 874.88672 z M 608.38281 878.8125 C 606.27208 879.85333 604.1459 880.87285 602.00781 881.875 C 604.14594 880.87281 606.27204 879.85336 608.38281 878.8125 z M 600.70898 882.48047 C 598.54965 883.48205 596.37827 884.46787 594.19141 885.42969 C 596.37864 884.46771 598.54929 883.48223 600.70898 882.48047 z M 593.24023 885.84375 C 590.98053 886.82983 588.70869 887.79895 586.41992 888.74219 C 588.70857 887.79899 590.98064 886.82978 593.24023 885.84375 z M 586.15234 888.85352 C 583.8172 889.81367 581.46475 890.74507 579.09961 891.66016 C 581.4643 890.74522 583.81764 889.8135 586.15234 888.85352 z M 578.10156 892.04688 C 575.83564 892.91592 573.5529 893.76254 571.25977 894.58984 C 573.55342 893.76235 575.83513 892.91613 578.10156 892.04688 z M 569.9668 895.05469 C 567.66996 895.87361 565.3609 896.67251 563.03711 897.44922 C 565.36086 896.67252 567.67 895.8736 569.9668 895.05469 z M 562.00781 897.78906 C 559.57048 898.59579 557.12289 899.38465 554.65625 900.14453 C 557.12251 899.38475 559.57085 898.59567 562.00781 897.78906 z M 554.3125 900.24805 C 551.89636 900.98983 549.46355 901.70596 547.01953 902.40234 C 549.46378 901.70589 551.89613 900.98991 554.3125 900.24805 z M 546.07227 902.67383 C 543.66627 903.35257 541.2452 904.00627 538.8125 904.64062 C 541.24507 904.00629 543.6664 903.35254 546.07227 902.67383 z M 537.49805 904.98242 C 535.07435 905.6052 532.63738 906.20679 530.1875 906.78516 C 532.63767 906.20672 535.07406 905.60527 537.49805 904.98242 z M 529.04883 907.04883 C 526.50179 907.64198 523.94414 908.21697 521.36914 908.76172 C 523.94385 908.21703 526.50208 907.64191 529.04883 907.04883 z M 520.8418 908.86914 C 518.35818 909.39098 515.86095 909.88884 513.35156 910.36523 C 515.86091 909.88885 518.35822 909.39097 520.8418 908.86914 z M 512.33789 910.56055 C 509.778 911.03958 507.20163 911.49053 504.61523 911.92188 C 507.20196 911.49048 509.77769 911.03965 512.33789 910.56055 z M 503.46289 912.11523 C 500.91045 912.53325 498.34554 912.92568 495.76758 913.29688 C 498.34514 912.92573 500.91084 912.53319 503.46289 912.11523 z M 494.41797 913.48828 C 491.76655 913.86097 489.10386 914.21239 486.42578 914.53516 C 489.10418 914.21235 491.76623 913.86102 494.41797 913.48828 z M 485.86523 914.60156 C 483.01163 914.94152 480.14529 915.25631 477.26172 915.53906 C 480.14494 915.25634 483.01197 914.94149 485.86523 914.60156 z M 477.26172 915.53906 C 474.49978 915.80989 471.72085 916.04782 468.93164 916.26562 C 471.72086 916.04781 474.49976 915.8099 477.26172 915.53906 z M 467.70508 916.36328 C 465.0498 916.56291 462.38086 916.73553 459.70117 916.88672 C 462.381 916.73551 465.04967 916.56292 467.70508 916.36328 z M 458.18555 916.96875 C 455.50236 917.11072 452.80891 917.23117 450.10156 917.32422 C 452.80918 917.23116 455.5021 917.11073 458.18555 916.96875 z M 448.95312 917.35938 C 446.08854 917.45037 443.21359 917.52085 440.32227 917.55664 C 443.21345 917.52085 446.08868 917.45036 448.95312 917.35938 z "
       style="fill:#ffffff;fill-opacity:1;stroke:#020000;stroke-width:11;stroke-linecap:round;stroke-linejoin:round;stroke-miterlimit:4;stroke-dasharray:none;stroke-opacity:1" />
    <path
       id="rect1983"
       transform="translate(0,-0.00237704)"
       d="M 434.96875 458.51172 L 434.96875 917.5918 C 436.7583 917.59084 438.54277 917.57867 440.32227 917.55664 C 641.40502 915.06746 778.10595 778.43938 812.48242 595.47266 C 813.09086 592.23431 813.66682 588.98174 814.21094 585.71484 C 817.47563 566.11348 819.57837 546.00628 820.47461 525.5 L 826.13867 458.51172 L 434.96875 458.51172 z "
       style="fill:#0f47af;fill-opacity:1;stroke:#020000;stroke-width:11;stroke-linecap:round;stroke-linejoin:round;stroke-miterlimit:4;stroke-dasharray:none;stroke-opacity:1" />
    <path
       sodipodi:nodetypes="ccccccc"
       id="path10563-0-6-2"
       d="M 864.43859,5.4976283 820.47506,525.49709 C 810.91516,744.2308 664.03187,917.46597 434.96925,917.58847 206.11269,917.31997 59.158732,744.02262 49.463482,525.49709 L 5.4999516,5.4976283 H 434.95896 Z"
       inkscape:connector-curvature="0"
       style="fill:none;fill-rule:evenodd;stroke:#020000;stroke-width:11;stroke-linecap:round;stroke-linejoin:round;stroke-miterlimit:4;stroke-dasharray:none;stroke-opacity:1" />
  </g>
</svg>
