<?xml version="1.0" encoding="utf-8"?>
<!-- Generator: Adobe Illustrator 15.0.0, SVG Export Plug-In . SVG Version: 6.00 Build 0)  -->
<!DOCTYPE svg PUBLIC "-//W3C//DTD SVG 1.1//EN" "http://www.w3.org/Graphics/SVG/1.1/DTD/svg11.dtd">
<svg version="1.1" id="Coat_of_arms" xmlns="http://www.w3.org/2000/svg" xmlns:xlink="http://www.w3.org/1999/xlink" x="0px"
	 y="0px" width="558.43px" height="615.119px" viewBox="0 0 558.43 615.119" enable-background="new 0 0 558.43 615.119"
	 xml:space="preserve">
<g>
	<polygon fill="#0071BC" stroke="#000000" stroke-width="4" stroke-miterlimit="10" points="555.282,3 545.174,213.6 13.255,213.6 
		3.146,3.01 	"/>
	<path fill="#FFFFFF" stroke="#000000" stroke-width="4" stroke-miterlimit="10" d="M545.174,213.6h-265.96v398.52
		c134.06,0,244.359-101.606,258.161-236.047L545.174,213.6z"/>
	<path fill="#FFDE00" stroke="#000000" stroke-width="4" stroke-miterlimit="10" d="M13.257,213.601h265.958v398.521
		c-134.057,0-244.359-101.606-257.962-231.939L13.257,213.601z"/>
	<g>
		<g>
			<path fill="#008D36" stroke="#000000" stroke-width="3" stroke-miterlimit="10" d="M346.318,415.392L168.732,290.29
				c14.641-5.969,21.299-23.995,12.417-32.625c-7.637-7.417-7.11-17.004-7.11-17.004s-8.838,3.771-18.428-0.862
				c-13.262-6.403-24.028,5.558-17.68,25.228l-4.19-0.426c0,0,2.877-15.721-7.783-23.178c-21.748-15.215-49.116-0.083-49.116-0.083
				s-4.872,30.868,16.877,46.083c10.66,7.458,24.463-0.622,24.463-0.622l1.834,3.788c-20.672,0.769-28.24,14.968-17.681,25.227
				c7.635,7.418,7.111,17.007,7.111,17.007s8.835-3.771,18.427,0.858c10.645,5.142,24.489-5.936,26.262-20.678l172.931,127.176
				L346.318,415.392z"/>
			<path fill="#008D36" stroke="#000000" stroke-width="3" stroke-miterlimit="10" d="M320.286,518.072
				c-1.026,11.737,7.662,22.084,19.408,23.108c11.746,1.026,22.104-7.655,23.129-19.392c0.172-1.938,0.056-3.838-0.28-5.668
				l58.221-10.258c1.881,8.961,9.433,16.022,19.031,16.864c11.745,1.025,22.104-7.653,23.131-19.393
				c1.026-11.734-7.662-22.082-19.41-23.107c-1.969-0.174-3.896-0.051-5.748,0.291l-10.192-57.754
				c9.192-1.707,16.511-9.332,17.365-19.096c1.024-11.734-7.664-22.08-19.412-23.107c-11.746-1.023-22.104,7.654-23.129,19.393
				c-0.168,1.924-0.054,3.801,0.271,5.611l-79.25,13.961l14.026,79.484C328.348,500.793,321.135,508.381,320.286,518.072z
				 M349.793,437.979c11.229-8.769,23-4.105,27.846,6.209c1.22-0.354,2.47-0.572,3.731-0.658
				c1.022-11.349,10.49-19.748,24.039-15.347c8.774,11.218,4.108,22.978-6.211,27.818c0.353,1.215,0.576,2.465,0.658,3.725
				c11.354,1.023,19.771,10.479,15.36,24.021c-11.229,8.769-23,4.107-27.847-6.204c-1.217,0.354-2.469,0.573-3.729,0.657
				c-1.022,11.347-10.489,19.75-24.043,15.349c-8.774-11.22-4.11-22.979,6.213-27.822c-0.352-1.213-0.573-2.463-0.657-3.725
				C353.797,460.977,345.387,451.52,349.793,437.979z"/>
			<path fill="#008D36" stroke="#000000" stroke-width="3" stroke-miterlimit="10" d="M328.766,422.592
				c-4.909,7.194-7.437,14.326-7.437,14.326s-2.047,1.604-4.928-0.408c-2.642-1.851-2.063-4.485-2.063-4.485
				s0.918-4.728,7.577-14.226c6.658-9.5,10.789-11.983,10.789-11.983s2.285-1.438,4.927,0.408c2.877,2.014,2.067,4.485,2.067,4.485
				S333.855,415.519,328.766,422.592z"/>
			<path fill="#008D36" stroke="#000000" stroke-width="3" stroke-miterlimit="10" d="M336.051,428.236
				c-5.457,7.991-8.263,15.918-8.263,15.918s-2.276,1.78-5.473-0.455c-2.938-2.056-2.304-4.983-2.304-4.983s1.026-5.25,8.425-15.808
				c7.399-10.558,11.987-13.313,11.987-13.313s2.537-1.6,5.476,0.453c3.194,2.238,2.299,4.983,2.299,4.983
				S341.706,420.375,336.051,428.236z"/>
			<g>
				<path d="M164.748,315.965l151.008,111.717l1.412-1.905c0,0-65.962-49.301-129.461-96.239L164.748,315.965z"/>
			</g>
		</g>
		<g>
			<path d="M438.336,403.33c0.725-8.285-4.273-15.744-11.714-18.521c8.687,1.549,14.906,9.485,14.121,18.435
				c-0.688,7.877-6.59,14.03-14.008,15.405C433.012,416.252,437.709,410.467,438.336,403.33z"/>
			<path d="M434.055,403.024c0.485-5.566-1.515-10.453-4.664-12.152c3.713,0.852,6.229,6.039,5.703,12.047
				c-0.463,5.291-3.14,9.535-6.369,10.612C431.484,411.795,433.633,407.815,434.055,403.024z"/>
		</g>
		<g>
			<path d="M456.079,502.984c0.728-8.293-4.271-15.746-11.715-18.521c8.687,1.545,14.908,9.479,14.125,18.433
				c-0.688,7.875-6.592,14.028-14.01,15.405C450.758,515.904,455.456,510.116,456.079,502.984z"/>
			<path d="M451.799,502.68c0.483-5.567-1.515-10.457-4.664-12.16c3.713,0.855,6.231,6.044,5.707,12.052
				c-0.465,5.289-3.142,9.537-6.369,10.612C449.229,511.445,451.379,507.471,451.799,502.68z"/>
		</g>
		<g>
			<path d="M355.881,521.57c0.726-8.291-4.271-15.746-11.713-18.521c8.686,1.549,14.905,9.485,14.122,18.435
				c-0.69,7.877-6.59,14.03-14.01,15.405C350.557,534.49,355.256,528.706,355.881,521.57z"/>
			<path d="M351.6,521.264c0.486-5.565-1.512-10.453-4.664-12.155c3.716,0.854,6.23,6.041,5.705,12.049
				c-0.463,5.289-3.141,9.535-6.368,10.61C349.031,530.031,351.18,526.057,351.6,521.264z"/>
		</g>
	</g>
	<polygon points="460.293,349.431 457.266,351.293 457.323,351.381 	"/>
	<polygon points="485.764,290.85 485.73,290.87 487.611,293.918 	"/>
	<polygon points="398.766,351.438 398.799,351.42 396.913,348.365 	"/>
	<g>
		<polygon fill="#E30613" stroke="#000000" stroke-width="3" stroke-miterlimit="10" points="394.932,346.476 412.448,333.744 
			416.635,339.496 399.148,352.201 417.389,376.707 457.381,346.987 432.579,315.646 423.973,321.947 419.766,316.213 
			442.518,299.553 446.725,305.288 438.323,311.438 463.031,342.658 460.234,344.865 502.282,313.623 484.684,290.043 
			466.646,303.152 462.459,297.402 480.465,284.315 465.76,264.559 380.861,327.64 		"/>
		<g>
			<path fill="#E30613" stroke="#000000" stroke-width="3" stroke-miterlimit="10" d="M212.626,412.474l243.49-171.528
				c0,0,6.606-6.129,14.627,3.875c9.742,12.15,1.763,15.478,1.763,15.478L231.881,437.266L212.626,412.474z"/>
			<path fill="#E30613" stroke="#000000" stroke-width="3" stroke-miterlimit="10" d="M221.498,496.094l14.028-79.479
				l-79.251-13.963c0.325-1.813,0.44-3.688,0.272-5.612c-1.027-11.738-11.383-20.416-23.131-19.392
				c-11.746,1.026-20.437,11.373-19.409,23.106c0.854,9.763,8.169,17.39,17.363,19.099l-10.193,57.754
				c-1.854-0.347-3.778-0.468-5.75-0.296c-11.745,1.025-20.436,11.371-19.408,23.109c1.027,11.737,11.383,20.416,23.13,19.391
				c9.6-0.838,17.149-7.899,19.031-16.86l58.219,10.258c-0.332,1.828-0.451,3.726-0.28,5.669
				c1.026,11.733,11.384,20.413,23.13,19.389c11.749-1.026,20.437-11.373,19.409-23.106
				C237.81,505.467,230.598,497.872,221.498,496.094z M193.79,459.081c-0.084,1.263-0.305,2.511-0.657,3.728
				c10.322,4.841,14.988,16.601,6.212,27.818c-13.552,4.401-23.019-4.003-24.041-15.349c-1.264-0.084-2.515-0.304-3.731-0.656
				c-4.846,10.313-16.616,14.976-27.845,6.209c-4.407-13.54,4.004-23,15.362-24.021c0.084-1.264,0.305-2.514,0.657-3.727
				c-10.321-4.847-14.987-16.604-6.212-27.82c13.553-4.401,23.019,3.998,24.042,15.347c1.264,0.086,2.514,0.306,3.729,0.655
				c4.847-10.313,16.618-14.971,27.846-6.204C213.559,448.604,205.146,458.061,193.79,459.081z"/>
			<path fill="#E30613" stroke="#000000" stroke-width="3" stroke-miterlimit="10" d="M230.179,419.674
				c4.911,7.194,7.438,14.326,7.438,14.326s2.048,1.604,4.926-0.406c2.643-1.853,2.068-4.485,2.068-4.485s-0.92-4.728-7.58-14.228
				c-6.659-9.504-10.788-11.983-10.788-11.983s-2.285-1.438-4.928,0.408c-2.877,2.014-2.068,4.487-2.068,4.487
				S225.089,412.601,230.179,419.674z"/>
			<path fill="#E30613" stroke="#000000" stroke-width="3" stroke-miterlimit="10" d="M222.895,425.316
				c5.456,7.993,8.264,15.918,8.264,15.918s2.274,1.782,5.474-0.453c2.937-2.056,2.299-4.983,2.299-4.983s-1.022-5.25-8.423-15.808
				c-7.398-10.558-11.988-13.315-11.988-13.315s-2.538-1.598-5.474,0.455c-3.196,2.24-2.299,4.984-2.299,4.984
				S217.239,417.455,222.895,425.316z"/>
			<g>
				<path d="M243.19,424.764l-1.412-1.903c0,0,155.684-116.227,208.766-154.446c10.991-7.916,19.577-11.537,19.577-11.537
					L243.19,424.764z"/>
			</g>
			<g>
				<path d="M120.611,400.414c-0.726-8.291,4.27-15.746,11.712-18.521c-8.686,1.547-14.905,9.483-14.122,18.435
					c0.688,7.877,6.591,14.028,14.011,15.403C125.933,413.334,121.235,407.549,120.611,400.414z"/>
				<path d="M124.892,400.11c-0.487-5.568,1.512-10.459,4.664-12.158c-3.715,0.852-6.23,6.038-5.705,12.049
					c0.463,5.291,3.14,9.537,6.367,10.611C127.459,408.875,125.312,404.899,124.892,400.11z"/>
			</g>
			<g>
				<path d="M102.866,500.066c-0.727-8.291,4.27-15.748,11.712-18.521c-8.686,1.545-14.905,9.481-14.123,18.435
					c0.689,7.872,6.591,14.028,14.01,15.405C108.188,512.986,103.49,507.198,102.866,500.066z"/>
				<path d="M107.147,499.76c-0.486-5.567,1.513-10.457,4.664-12.158c-3.713,0.855-6.229,6.041-5.705,12.052
					c0.463,5.291,3.14,9.535,6.368,10.61C109.715,508.525,107.567,504.551,107.147,499.76z"/>
			</g>
			<g>
				<path d="M203.064,518.654c-0.726-8.291,4.271-15.748,11.713-18.521c-8.686,1.547-14.906,9.483-14.123,18.433
					c0.689,7.875,6.592,14.032,14.01,15.407C208.388,531.573,203.689,525.786,203.064,518.654z"/>
				<path d="M207.347,518.348c-0.488-5.563,1.51-10.455,4.663-12.155c-3.715,0.854-6.232,6.037-5.705,12.047
					c0.463,5.293,3.138,9.537,6.368,10.61C209.915,527.113,207.765,523.137,207.347,518.348z"/>
			</g>
		</g>
	</g>
	<polygon fill="#FFFFFF" stroke="#000000" stroke-width="3" stroke-miterlimit="10" points="151.161,74.442 249.577,92.931 
		213.896,7.448 313.229,24.519 302.54,3.004 121.345,3.008 	"/>
	<polygon fill="#FFFFFF" stroke="#000000" stroke-width="3" stroke-miterlimit="10" points="411.98,43.165 313.229,24.519 
		349.629,111.727 448.34,130.272 	"/>
	<polygon fill="#FFFFFF" stroke="#000000" stroke-width="3" stroke-miterlimit="10" points="89.066,143.921 9.186,128.818 
		13.255,213.6 118.152,213.6 	"/>
	<polygon fill="#FFFFFF" stroke="#000000" stroke-width="3" stroke-miterlimit="10" points="187.967,162.62 209.246,213.6 
		300.025,213.6 287.33,181.406 	"/>
	<polygon fill="#FFFFFF" stroke="#000000" stroke-width="3" stroke-miterlimit="10" points="30.251,3.01 3.146,3.01 5.259,47.031 
		52.315,55.872 	"/>
	<polygon fill="#FFFFFF" stroke="#000000" stroke-width="3" stroke-miterlimit="10" points="386.17,199.27 392.991,213.6 
		458.377,213.6 	"/>
	<polygon fill="#FFFFFF" stroke="#000000" stroke-width="3" stroke-miterlimit="10" points="552.086,69.619 510.868,61.836 
		547.184,148.842 448.34,130.272 483.12,213.6 545.174,213.6 	"/>
	<polygon fill="#FFFFFF" stroke="#000000" stroke-width="3" stroke-miterlimit="10" points="411.98,43.165 510.868,61.836 
		486.311,3 395.217,3.002 	"/>
	<polygon fill="#FFFFFF" stroke="#000000" stroke-width="3" stroke-miterlimit="10" points="52.315,55.872 89.066,143.921 
		187.967,162.62 151.161,74.442 	"/>
	<polygon fill="#FFFFFF" stroke="#000000" stroke-width="3" stroke-miterlimit="10" points="249.577,92.931 287.33,181.406 
		386.17,199.27 349.629,111.727 	"/>
	<g>
		<path d="M279.214,615.118c-65.278,0-127.84-24.104-176.163-67.87c-47.983-43.462-78.092-102.683-84.78-166.756l-0.013-0.168
			L0.002,0.011l558.426-0.01l-18.071,376.38c-6.761,65.846-36.925,126.342-84.938,170.342
			C407.284,590.829,344.709,615.118,279.214,615.118z M24.242,379.953C37.926,510.6,147.524,609.122,279.215,609.122
			c131.795,0,241.482-100.276,255.172-233.271L552.141,5.998L6.29,6.008L24.242,379.953z"/>
	</g>
</g>
</svg>
