<svg xmlns="http://www.w3.org/2000/svg" height="687" width="580"><path style="fill:#0f47af;stroke:#000;stroke-width:8;stroke-linecap:round;stroke-linejoin:round;stroke-miterlimit:4;stroke-dasharray:none" d="M10 436c40 330 530 330 570 0V256H10Z" transform="translate(-5 -1.25)"/><path style="fill:#fcdd09;stroke:#000;stroke-width:8;stroke-linecap:round;stroke-linejoin:round;stroke-miterlimit:4;stroke-dasharray:none" d="M10 6v250h570V6Z" transform="translate(-5 -1.25)"/><path style="fill:#fcdd09;stroke:#000;stroke-width:5;stroke-linecap:round;stroke-linejoin:round;stroke-miterlimit:4;stroke-dasharray:none" d="m308.81 279.57-35.465-.414c6.49 10.137 9.386 20.273 10.045 30.41-10.25-.838-20.5-2.793-30.75-9.102l-.41 37.029c9.87-4.436 19.51-11.077 30.954-10.136l-.41 42.614 19.27.207-.615-42.407c11.048-.772 21.623 3.12 28.494 8.895l-.205-36.615c-10.318 7.08-20.636 9.593-30.954 9.516 1.697-9.999 3.048-19.997 10.045-29.995h0zM233.99 441.13l-66.009.414c-9.386 3.468-9.233 13.989.41 16.135h63.959-11.89l-102.91 136.94c-.07 8.049 4.857 14.073 13.53 10.343l104.14-139.84-1.23-23.997zM346.94 440.15l66.009.414c9.386 3.468 9.233 13.989-.41 16.135H348.58h11.89l102.91 136.94c.07 8.049-4.857 14.073-13.53 10.343l-104.14-139.84 1.23-23.996z" transform="translate(-5 -1.25)"/><path style="fill:#fcdd09;stroke:#000;stroke-width:5;stroke-linecap:round;stroke-linejoin:round;stroke-miterlimit:4;stroke-dasharray:none" d="m232.35 500.71.82-117.09c-.162-8.577 4.72-12.062 11.07-14.067h93.48c6.47 2.053 13.414 3.466 13.53 14.067l-.82 117.5 56.169 105.5c-8.134 6.686-17.742 11.885-32.39 11.998l-171.38.827c-10.915-1.199-19.285-6.252-25.83-14.067l55.35-104.67z" transform="translate(-5 -1.25)"/><path style="fill:#da121a;stroke:#000;stroke-width:5;stroke-linecap:round;stroke-linejoin:round;stroke-miterlimit:4;stroke-dasharray:none" d="m60.789 92.433 17.974-9.362c9.783-22.705 35.492-18.416 41.45-.43 2.64 7.972 1.021 18.316 4.355 26.76 27.763 23.994 52.2 53.026 84.072 70.798-7.537-.439-15.075-1.359-22.613-3.097 7.787 10.142 16.645 19.87 31.31 30.012-30.446 17.218-50.533-15.578-57.402-23.404-10.35-9.574-9.698 2.01-8.697 14.627 1.18-14.738-20.22-34.454-28.411-1.755l1.16-14.628c-22.267-7.423-49.802-25.212-40.008-60.266 1.72-8.737 1.952-14.47.58-16.968L60.79 92.432z" transform="translate(-6.812 -7.918)"/><path style="fill:none;stroke:#000;stroke-width:5;stroke-linecap:butt;stroke-linejoin:miter;stroke-miterlimit:4;stroke-dasharray:none" d="M124.86 109.7c-48.942 21.389 2.826 58.284 60.578 67.272" transform="translate(-6.812 -7.918)"/><path style="fill:#da121a;stroke:#000;stroke-width:5;stroke-linecap:round;stroke-linejoin:round;stroke-miterlimit:4;stroke-dasharray:none" d="m212.7 90.705 17.974-9.362c9.783-22.705 35.492-18.416 41.45-.43 2.64 7.972 1.021 18.316 4.355 26.76 27.763 23.994 52.2 53.026 84.072 70.798-7.537-.439-15.075-1.359-22.613-3.097 7.787 10.142 16.645 19.87 31.31 30.012-30.446 17.218-50.533-15.578-57.402-23.404-10.35-9.574-9.698 2.01-8.697 14.627 1.18-14.738-20.22-34.454-28.411-1.755l1.16-14.628c-22.267-7.423-49.802-25.212-40.008-60.266 1.72-8.737 1.952-14.47.58-16.968l-23.773-12.287z" transform="translate(-6.812 -7.918)"/><path style="fill:none;stroke:#000;stroke-width:5;stroke-linecap:butt;stroke-linejoin:miter;stroke-miterlimit:4;stroke-dasharray:none" d="M276.77 107.96c-48.942 21.389 2.826 58.284 60.578 67.272" transform="translate(-6.812 -7.918)"/><path style="fill:#da121a;stroke:#000;stroke-width:5;stroke-linecap:round;stroke-linejoin:round;stroke-miterlimit:4;stroke-dasharray:none" d="m372.15 90.705 17.974-9.362c9.783-22.705 35.492-18.416 41.45-.43 2.64 7.972 1.021 18.316 4.355 26.76 27.763 23.994 52.2 53.026 84.072 70.798-7.537-.439-15.075-1.359-22.613-3.097 7.787 10.142 16.645 19.87 31.31 30.012-30.446 17.218-50.533-15.578-57.402-23.404-10.35-9.574-9.698 2.01-8.697 14.627 1.18-14.738-20.22-34.454-28.411-1.755l1.16-14.627c-22.267-7.423-49.802-25.212-40.008-60.266 1.72-8.737 1.952-14.47.58-16.968l-23.768-12.296z" transform="translate(-6.812 -7.918)"/><path style="fill:none;stroke:#000;stroke-width:5;stroke-linecap:butt;stroke-linejoin:miter;stroke-miterlimit:4;stroke-dasharray:none" d="M436.22 107.96c-48.942 21.389 2.826 58.284 60.578 67.272" transform="translate(-6.812 -7.918)"/><path transform="matrix(3.83326 0 0 2.5555 -285.854 -137.578)" d="M99.654 83.467c0 .864-.467 1.565-1.044 1.565-.576 0-1.043-.7-1.043-1.565 0-.864.467-1.565 1.044-1.565.576 0 1.043.7 1.043 1.565z" style="fill:#000"/><path transform="matrix(3.83326 0 0 2.5555 -133.851 -137.752)" d="M99.654 83.467c0 .864-.467 1.565-1.044 1.565-.576 0-1.043-.7-1.043-1.565 0-.864.467-1.565 1.044-1.565.576 0 1.043.7 1.043 1.565z" style="fill:#000"/><path transform="matrix(3.83326 0 0 2.5555 26.326 -137.752)" d="M99.654 83.467c0 .864-.467 1.565-1.044 1.565-.576 0-1.043-.7-1.043-1.565 0-.864.467-1.565 1.044-1.565.576 0 1.043.7 1.043 1.565z" style="fill:#000"/></svg>