<?xml version="1.0" encoding="UTF-8" standalone="no"?>
<!-- Created with Inkscape (http://www.inkscape.org/) -->

<svg
   xmlns:dc="http://purl.org/dc/elements/1.1/"
   xmlns:cc="http://creativecommons.org/ns#"
   xmlns:rdf="http://www.w3.org/1999/02/22-rdf-syntax-ns#"
   xmlns:svg="http://www.w3.org/2000/svg"
   xmlns="http://www.w3.org/2000/svg"
   xmlns:sodipodi="http://sodipodi.sourceforge.net/DTD/sodipodi-0.dtd"
   xmlns:inkscape="http://www.inkscape.org/namespaces/inkscape"
   width="178.31648mm"
   height="209.34358mm"
   viewBox="0 0 178.31648 209.34358"
   version="1.1"
   id="svg7879"
   inkscape:version="0.92.4 (5da689c313, 2019-01-14)"
   sodipodi:docname="DEU Verbandsgemeinde Ulmen2 COA.svg">
  <defs
     id="defs7873">
    <inkscape:path-effect
       effect="spiro"
       id="path-effect3940-4-5-7-1-9-7-0-0"
       is_visible="true" />
    <inkscape:path-effect
       effect="spiro"
       id="path-effect3940-4-5-7-1-99-3-1"
       is_visible="true" />
    <inkscape:path-effect
       effect="spiro"
       id="path-effect3940-4-5-7-2-5-6-8"
       is_visible="true" />
    <inkscape:path-effect
       effect="spiro"
       id="path-effect3940-4-5-7-8-0-9"
       is_visible="true" />
    <inkscape:path-effect
       effect="spiro"
       id="path-effect3940-4-5-73-2-8"
       is_visible="true" />
    <inkscape:path-effect
       effect="spiro"
       id="path-effect3940-4-8-5-1"
       is_visible="true" />
    <inkscape:path-effect
       effect="spiro"
       id="path-effect3940-2-0-5-9"
       is_visible="true" />
    <inkscape:path-effect
       effect="spiro"
       id="path-effect3940-6-04-0-6-8-9"
       is_visible="true" />
    <inkscape:path-effect
       effect="spiro"
       id="path-effect3940-6-04-2-9-0"
       is_visible="true" />
    <inkscape:path-effect
       effect="spiro"
       id="path-effect3940-6-5-8-5-5"
       is_visible="true" />
    <inkscape:path-effect
       effect="spiro"
       id="path-effect3940-6-3-3-1-6"
       is_visible="true" />
    <inkscape:path-effect
       effect="spiro"
       id="path-effect3940-6-0-3-5-0"
       is_visible="true" />
    <inkscape:path-effect
       effect="spiro"
       id="path-effect3940-6-55-4-2"
       is_visible="true" />
    <inkscape:path-effect
       effect="spiro"
       id="path-effect3940-66-3-1"
       is_visible="true" />
    <inkscape:path-effect
       effect="spiro"
       id="path-effect3936-1-6-5"
       is_visible="true" />
    <inkscape:path-effect
       effect="spiro"
       id="path-effect3940-4-5-7-1-9-7-6"
       is_visible="true" />
    <inkscape:path-effect
       effect="spiro"
       id="path-effect3940-4-5-7-1-99-8"
       is_visible="true" />
    <inkscape:path-effect
       effect="spiro"
       id="path-effect3940-4-5-7-2-5-5"
       is_visible="true" />
    <inkscape:path-effect
       effect="spiro"
       id="path-effect3940-4-5-7-8-4"
       is_visible="true" />
    <inkscape:path-effect
       effect="spiro"
       id="path-effect3940-4-5-73-1"
       is_visible="true" />
    <inkscape:path-effect
       effect="spiro"
       id="path-effect3940-4-8-3"
       is_visible="true" />
    <inkscape:path-effect
       effect="spiro"
       id="path-effect3940-2-0-9"
       is_visible="true" />
    <inkscape:path-effect
       effect="spiro"
       id="path-effect3940-6-04-0-6-7"
       is_visible="true" />
    <inkscape:path-effect
       effect="spiro"
       id="path-effect3940-6-04-2-3"
       is_visible="true" />
    <inkscape:path-effect
       effect="spiro"
       id="path-effect3940-6-5-8-3"
       is_visible="true" />
    <inkscape:path-effect
       effect="spiro"
       id="path-effect3940-6-3-3-4"
       is_visible="true" />
    <inkscape:path-effect
       effect="spiro"
       id="path-effect3940-6-0-3-9"
       is_visible="true" />
    <inkscape:path-effect
       effect="spiro"
       id="path-effect3940-6-55-5"
       is_visible="true" />
    <inkscape:path-effect
       effect="spiro"
       id="path-effect3940-66-6"
       is_visible="true" />
    <inkscape:path-effect
       effect="spiro"
       id="path-effect3936-1-2"
       is_visible="true" />
    <inkscape:path-effect
       effect="spiro"
       id="path-effect3940-4-5-7-1-9-8-7"
       is_visible="true" />
    <inkscape:path-effect
       effect="spiro"
       id="path-effect3940-4-5-7-1-4-1"
       is_visible="true" />
    <inkscape:path-effect
       effect="spiro"
       id="path-effect3940-4-5-7-2-6-9"
       is_visible="true" />
    <inkscape:path-effect
       effect="spiro"
       id="path-effect3940-4-5-7-5-5"
       is_visible="true" />
    <inkscape:path-effect
       effect="spiro"
       id="path-effect3940-4-5-0-5"
       is_visible="true" />
    <inkscape:path-effect
       effect="spiro"
       id="path-effect3940-4-57-3"
       is_visible="true" />
    <inkscape:path-effect
       effect="spiro"
       id="path-effect3940-2-5-7"
       is_visible="true" />
    <inkscape:path-effect
       effect="spiro"
       id="path-effect3940-6-04-0-2-7"
       is_visible="true" />
    <inkscape:path-effect
       effect="spiro"
       id="path-effect3940-6-04-3-8"
       is_visible="true" />
    <inkscape:path-effect
       effect="spiro"
       id="path-effect3940-6-5-6-9"
       is_visible="true" />
    <inkscape:path-effect
       effect="spiro"
       id="path-effect3940-6-3-1-3"
       is_visible="true" />
    <inkscape:path-effect
       effect="spiro"
       id="path-effect3940-6-0-1-8"
       is_visible="true" />
    <inkscape:path-effect
       effect="spiro"
       id="path-effect3940-6-7-0"
       is_visible="true" />
    <inkscape:path-effect
       effect="spiro"
       id="path-effect3940-7-6"
       is_visible="true" />
    <inkscape:path-effect
       effect="spiro"
       id="path-effect3936-2-6"
       is_visible="true" />
    <inkscape:path-effect
       effect="spiro"
       id="path-effect3940-4-5-7-1-9-9"
       is_visible="true" />
    <inkscape:path-effect
       effect="spiro"
       id="path-effect3940-4-5-7-1-2"
       is_visible="true" />
    <inkscape:path-effect
       effect="spiro"
       id="path-effect3940-4-5-7-2-9"
       is_visible="true" />
    <inkscape:path-effect
       effect="spiro"
       id="path-effect3940-4-5-7-3"
       is_visible="true" />
    <inkscape:path-effect
       effect="spiro"
       id="path-effect3940-4-5-4"
       is_visible="true" />
    <inkscape:path-effect
       effect="spiro"
       id="path-effect3940-4-4"
       is_visible="true" />
    <inkscape:path-effect
       effect="spiro"
       id="path-effect3940-2-7"
       is_visible="true" />
    <inkscape:path-effect
       effect="spiro"
       id="path-effect3940-6-04-0-4"
       is_visible="true" />
    <inkscape:path-effect
       effect="spiro"
       id="path-effect3940-6-04-9"
       is_visible="true" />
    <inkscape:path-effect
       effect="spiro"
       id="path-effect3940-6-5-5"
       is_visible="true" />
    <inkscape:path-effect
       effect="spiro"
       id="path-effect3940-6-3-4"
       is_visible="true" />
    <inkscape:path-effect
       effect="spiro"
       id="path-effect3940-6-0-0"
       is_visible="true" />
    <inkscape:path-effect
       effect="spiro"
       id="path-effect3940-6-1"
       is_visible="true" />
    <inkscape:path-effect
       effect="spiro"
       id="path-effect3940-5"
       is_visible="true" />
    <inkscape:path-effect
       effect="spiro"
       id="path-effect3936-9"
       is_visible="true" />
    <inkscape:path-effect
       effect="spiro"
       id="path-effect3790-2"
       is_visible="true" />
  </defs>
  <sodipodi:namedview
     id="base"
     pagecolor="#ffffff"
     bordercolor="#666666"
     borderopacity="1.0"
     inkscape:pageopacity="0.0"
     inkscape:pageshadow="2"
     inkscape:zoom="0.69260143"
     inkscape:cx="336.97603"
     inkscape:cy="395.60992"
     inkscape:document-units="mm"
     inkscape:current-layer="layer1"
     showgrid="false"
     fit-margin-top="0"
     fit-margin-left="0"
     fit-margin-right="0"
     fit-margin-bottom="0"
     inkscape:window-width="1366"
     inkscape:window-height="745"
     inkscape:window-x="-8"
     inkscape:window-y="-8"
     inkscape:window-maximized="1" />
  <metadata
     id="metadata7876">
    <rdf:RDF>
      <cc:Work
         rdf:about="">
        <dc:format>image/svg+xml</dc:format>
        <dc:type
           rdf:resource="http://purl.org/dc/dcmitype/StillImage" />
        <dc:title></dc:title>
      </cc:Work>
    </rdf:RDF>
  </metadata>
  <g
     inkscape:label="Ebene 1"
     inkscape:groupmode="layer"
     id="layer1"
     transform="translate(260.00348,-119.75678)">
    <path
       style="fill:#ffffff;fill-rule:evenodd;stroke:none;stroke-width:3.10444427;stroke-opacity:1"
       inkscape:connector-curvature="0"
       d="m -83.250996,121.309 -0.88854,117.58067 c -1.9389,49.45939 -40.247754,88.63079 -86.705744,88.65847 -46.41613,-0.0607 -84.73931,-39.24615 -86.70568,-88.65847 L -258.43948,121.309 h 87.59212 z"
       id="path10563-0-6-7-7-5"
       sodipodi:nodetypes="ccccccc" />
    <path
       inkscape:connector-curvature="0"
       style="fill:#ff0000;fill-opacity:1;stroke:#000000;stroke-width:1.32291663;stroke-linecap:round;stroke-linejoin:round;stroke-miterlimit:4;stroke-dasharray:none;stroke-opacity:1"
       d="m -257.49717,240.06003 c 0.009,0.166 0.0211,0.33085 0.0305,0.49661 v -0.49454 z m 9.88984,0.72037 v 11.9171 h -8.41241 c 2.34261,12.80739 7.16126,24.65896 13.89631,34.97823 l 9.75858,-6.72104 5.45909,4.60902 10.08001,-10.07949 -3.79564,-32.73908 z"
       id="path3550" />
    <path
       inkscape:connector-curvature="0"
       style="fill:#ff0000;fill-opacity:1;stroke:#000000;stroke-width:1.32291663;stroke-linecap:round;stroke-linejoin:round;stroke-miterlimit:4;stroke-dasharray:none;stroke-opacity:1"
       d="m -109.32586,280.95469 -28.01482,23.65334 0.80615,1.64434 0.63665,-0.0703 6.00687,10.33942 c -0.41837,0.24017 -0.83955,0.47597 -1.26194,0.709 l 0.015,0.031 c 12.64996,-6.96868 23.50773,-17.15742 31.598594,-29.56667 z"
       id="path3424-9" />
    <path
       style="fill:#ff0000;fill-opacity:1;stroke:#000000;stroke-width:1.32291663;stroke-linecap:round;stroke-linejoin:round;stroke-miterlimit:4;stroke-dasharray:none;stroke-opacity:1"
       d="m -205.7925,306.182 -6.00687,10.33943 c 12.22433,7.01736 26.17744,11.00738 40.95409,11.02671 v -17.49867 z"
       id="path3389"
       inkscape:connector-curvature="0" />
    <path
       inkscape:connector-curvature="0"
       style="fill:#ff0000;fill-opacity:1;stroke:#000000;stroke-width:1.32291663;stroke-linecap:round;stroke-linejoin:round;stroke-miterlimit:4;stroke-dasharray:none;stroke-opacity:1;paint-order:markers fill stroke"
       d="m -258.43923,121.30914 8.3969,9.85935 h 35.39887 v -9.85935 z m 87.59207,0.97307 v 9.85934 h 43.79629 v -9.85934 z"
       id="rect3276-0" />
    <path
       inkscape:connector-curvature="0"
       style="fill:#ff0000;fill-opacity:1;stroke:#000000;stroke-width:1.32291663;stroke-linecap:round;stroke-linejoin:round;stroke-miterlimit:4;stroke-dasharray:none;stroke-opacity:1;paint-order:markers fill stroke"
       d="m -83.250956,121.30914 c -3.0443,3.63707 -6.11967,7.248 -9.22579,10.83241 -0.2106,0.24303 -0.42268,0.48483 -0.63356,0.72761 v 32.23576 h 9.5281 z m -10.83241,87.59207 v 43.79629 h 8.42636 c 0.71761,-3.94106 1.20063,-7.97262 1.43298,-12.07833 v -31.71796 z"
       id="rect3276-0-9" />
    <rect
       style="fill:#ff0000;fill-opacity:1;stroke:#000000;stroke-width:1.32291663;stroke-linecap:round;stroke-linejoin:round;stroke-miterlimit:4;stroke-dasharray:none;stroke-opacity:1;paint-order:markers fill stroke"
       id="rect3362"
       width="10.832418"
       height="43.796299"
       x="-258.43924"
       y="165.10492" />
    <path
       style="fill:#ffffff;fill-rule:evenodd;stroke:none;stroke-width:2.11666656;stroke-linejoin:round;stroke-miterlimit:4;stroke-dasharray:none;stroke-opacity:1"
       inkscape:connector-curvature="0"
       d="m -92.476856,132.14148 -0.79496,105.22909 c -1.73469,44.26378 -36.008674,79.32032 -77.573434,79.34509 -41.52735,-0.0543 -75.81417,-35.12343 -77.57343,-79.34509 l -0.79494,-105.22909 h 78.36651 z"
       id="path10563-0-6-7-6-4"
       sodipodi:nodetypes="ccccccc" />
    <rect
       style="fill:#ffd700;fill-opacity:1;stroke:#000000;stroke-width:0.26458332;stroke-linecap:round;stroke-linejoin:round;stroke-miterlimit:4;stroke-dasharray:none;stroke-opacity:1;paint-order:markers fill stroke"
       id="rect7727"
       width="75.769951"
       height="41.599186"
       x="-207.86943"
       y="264.13541" />
    <path
       style="fill:none;fill-rule:evenodd;stroke:#000000;stroke-width:3.10444427;stroke-opacity:1"
       inkscape:connector-curvature="0"
       d="m -83.250996,121.309 -0.88854,117.58067 c -1.9389,49.45939 -40.247754,88.63079 -86.705744,88.65847 -46.41613,-0.0607 -84.73931,-39.24615 -86.70568,-88.65847 L -258.43948,121.309 h 87.59213 z"
       id="path10563-0-6-7-7"
       sodipodi:nodetypes="ccccccc" />
    <path
       inkscape:connector-curvature="0"
       style="fill:#000000;fill-opacity:1;stroke:none;stroke-width:0.26458332;stroke-linecap:round;stroke-linejoin:round;stroke-miterlimit:4;stroke-dasharray:none;stroke-opacity:1;paint-order:markers fill stroke"
       d="m -170.8451,256.71896 a 75.631477,52.423171 0 0 0 -63.75683,24.33237 c 14.06879,21.55019 37.45898,35.6301 63.75683,35.66449 26.34356,-0.0157 49.75404,-14.10717 63.81213,-35.6924 a 75.631477,52.423171 0 0 0 -63.81213,-24.30446 z m 15.56339,9.42837 c 0.26108,0.0141 0.54775,0.20317 0.63821,0.43821 0.0576,0.15 -0.0948,0.30729 -0.14831,0.45889 -0.0269,0.0763 -0.0664,0.14846 -0.0868,0.22686 -0.0209,0.0783 -0.0288,0.1606 -0.015,0.2403 0.0239,0.13586 0.11636,0.25801 0.24081,0.31781 0.12447,0.0599 0.27763,0.0558 0.39894,-0.0103 -0.0486,0.21216 -0.15991,0.40955 -0.31678,0.56069 -0.16439,0.15829 -0.3782,0.26519 -0.60358,0.30179 0.21093,0.16314 0.4556,0.2825 0.71417,0.3483 0.31645,0.0805 0.65369,0.0806 0.96997,-10e-4 -0.0761,0.27441 -0.22393,0.52856 -0.42478,0.73071 -0.31178,0.31393 -0.75273,0.49602 -1.19528,0.49402 0.29062,0.18312 0.60834,0.32368 0.93948,0.41548 0.27371,0.0759 0.55678,0.11913 0.84078,0.12712 -0.076,0.27444 -0.2239,0.5286 -0.42479,0.73071 -0.26063,0.2622 -0.61074,0.43439 -0.97771,0.48059 0.18696,0.17256 0.40707,0.30928 0.64492,0.39998 0.27446,0.10469 0.57258,0.14809 0.86558,0.12609 -0.0703,0.29801 -0.23103,0.57406 -0.45527,0.78289 -0.32284,0.30076 -0.77728,0.45435 -1.21646,0.41135 0.19285,0.21583 0.42755,0.39392 0.68781,0.5209 0.26057,0.12712 0.54618,0.20301 0.83561,0.22221 -0.0899,0.31166 -0.23739,0.60669 -0.43305,0.86558 -0.24798,0.3281 -0.57381,0.59718 -0.94258,0.77979 0.18968,0.12923 0.3995,0.22916 0.6196,0.29456 0.24701,0.0734 0.50746,0.10327 0.76481,0.0884 -0.15897,0.37869 -0.41637,0.7156 -0.74,0.96893 -0.29222,0.22871 -0.63809,0.38949 -1.00149,0.46509 0.15667,0.18747 0.35012,0.3445 0.56585,0.4594 0.26191,0.13948 0.5569,0.21573 0.8537,0.22273 -0.20318,0.34367 -0.46367,0.65364 -0.76688,0.91364 -0.30729,0.2635 -0.65854,0.47591 -1.03508,0.62476 0.14486,0.21168 0.3193,0.40293 0.51625,0.56741 0.23095,0.19287 0.49282,0.34844 0.77308,0.45837 -0.30485,0.31375 -0.71376,0.52501 -1.14619,0.59221 -0.34253,0.0532 -0.69806,0.0168 -1.02267,-0.10438 -0.1752,0.25214 -0.22159,0.58867 -0.12092,0.87849 0.10067,0.28979 0.34592,0.52555 0.63975,0.61495 -0.36033,0.4239 -0.8353,0.7503 -1.36064,0.93431 -0.51668,0.18099 -1.08085,0.22383 -1.61902,0.12403 0.0224,0.30157 0.13441,0.59597 0.31832,0.83612 0.21612,0.2822 0.53117,0.48733 0.87695,0.57103 -0.55602,0.25155 -1.16024,0.39613 -1.76992,0.42323 -0.51845,0.0231 -1.04069,-0.0384 -1.53943,-0.18139 -0.0134,0.17798 0.0149,0.35891 0.0827,0.524 0.11684,0.28489 0.35309,0.51894 0.63923,0.63356 -0.47928,0.0746 -0.96225,0.12643 -1.44642,0.15502 -0.51401,0.0303 -1.02969,0.0342 -1.54409,0.0124 0.0938,0.28149 0.21663,0.55351 0.36535,0.81029 0.13237,0.22855 0.28497,0.44542 0.4563,0.64647 -0.6097,0.0859 -1.25388,-0.1293 -1.6893,-0.56379 -0.19238,-0.19202 -0.34514,-0.42369 -0.44493,-0.67644 -0.17886,0.11313 -0.3248,0.27793 -0.41496,0.46922 -0.0901,0.1913 -0.12439,0.4084 -0.0977,0.61805 0.0251,0.19198 0.10065,0.37764 0.21755,0.53227 0.11683,0.15467 0.27488,0.27768 0.4532,0.35398 -0.27047,0.18612 -0.60033,0.28557 -0.92862,0.27957 -0.44956,-0.008 -0.89144,-0.21922 -1.18081,-0.56276 -0.38934,0.4733 -0.86852,0.87281 -1.40456,1.17047 -0.4131,0.2294 -0.85939,0.3984 -1.32085,0.50023 -0.14032,-0.45055 -0.21506,-0.92133 -0.22066,-1.39319 -0.007,-0.61229 0.10208,-1.22599 0.32039,-1.79835 -0.44234,-0.0803 -0.84439,-0.3587 -1.07487,-0.74414 -0.16845,-0.28141 -0.24614,-0.61631 -0.21859,-0.94309 0.15485,0.1167 0.3403,0.19244 0.53279,0.21704 0.19249,0.0246 0.39173,-0.002 0.57102,-0.0765 0.19559,-0.0809 0.36727,-0.21863 0.48886,-0.39171 0.1216,-0.17309 0.19297,-0.38103 0.20257,-0.59221 -0.26937,0.0386 -0.54676,0.0219 -0.80925,-0.0496 -0.5939,-0.16171 -1.10147,-0.61377 -1.32912,-1.18494 0.25989,0.0487 0.52412,0.0739 0.78858,0.0749 0.29708,0.001 0.59438,-0.0275 0.88574,-0.0858 -0.27432,-0.435 -0.52627,-0.88355 -0.75499,-1.34411 -0.21508,-0.43397 -0.40991,-0.87828 -0.58291,-1.33066 0.24167,0.19111 0.56193,0.27946 0.86764,0.23926 0.17722,-0.0232 0.34905,-0.0881 0.49713,-0.1881 -0.37184,-0.36132 -0.68458,-0.78308 -0.92191,-1.24386 -0.27896,-0.54185 -0.45332,-1.13734 -0.51056,-1.74408 0.2444,0.25815 0.57908,0.42926 0.93172,0.47646 0.30009,0.0401 0.61182,-0.009 0.88522,-0.13901 -0.354,-0.41684 -0.59653,-0.92741 -0.69556,-1.46502 -0.10072,-0.54665 -0.0528,-1.11958 0.13694,-1.64228 0.22353,0.21032 0.5502,0.30568 0.85214,0.24908 0.30198,-0.0566 0.57208,-0.26405 0.70435,-0.54105 -0.26644,-0.22121 -0.47519,-0.51132 -0.59892,-0.83458 -0.15622,-0.40813 -0.17524,-0.86735 -0.0537,-1.28726 0.23467,0.18832 0.50002,0.33844 0.78238,0.44287 0.24077,0.089 0.49382,0.14477 0.74982,0.16536 -0.0574,-0.40023 -0.0477,-0.81007 0.0289,-1.20716 0.0756,-0.39184 0.21597,-0.77108 0.41393,-1.11776 0.15305,0.25396 0.36674,0.47117 0.61805,0.6289 0.207,0.12995 0.43928,0.21972 0.68006,0.26252 -0.11471,-0.35245 -0.14688,-0.73187 -0.093,-1.09864 0.0597,-0.40622 0.22502,-0.79668 0.47543,-1.12242 0.11473,0.23045 0.26988,0.44093 0.4563,0.61857 0.16613,0.15829 0.35726,0.29044 0.56379,0.39068 -0.0243,-0.41024 0.0481,-0.82578 0.21032,-1.20355 0.12802,-0.29809 0.31154,-0.57204 0.53795,-0.8046 0.16034,0.24132 0.36783,0.45067 0.60772,0.6134 0.2396,0.16253 0.5114,0.27796 0.79478,0.33796 -0.25541,-0.3593 -0.3477,-0.82978 -0.2465,-1.25884 0.0703,-0.298 0.2305,-0.57407 0.45476,-0.78289 0.12634,0.26486 0.31224,0.50138 0.5395,0.6873 0.19694,0.16111 0.42481,0.2843 0.66766,0.3607 -0.14199,-0.34097 -0.16587,-0.7297 -0.0672,-1.08573 0.076,-0.27443 0.22336,-0.52859 0.42426,-0.7307 0.14826,0.24193 0.32628,0.46554 0.52813,0.66508 0.24423,0.24142 0.52383,0.44672 0.82734,0.60771 -0.22142,-0.38258 -0.28198,-0.85454 -0.16381,-1.28054 0.0761,-0.27441 0.22394,-0.52855 0.42478,-0.73071 0.0865,0.31449 0.25351,0.60648 0.48059,0.84078 0.18555,0.19144 0.41075,0.34412 0.65733,0.44597 -0.08,-0.21352 -0.0928,-0.45126 -0.0367,-0.67232 0.0535,-0.21096 0.16986,-0.40601 0.33021,-0.55345 0.003,0.13793 0.0748,0.27278 0.18861,0.35088 0.11377,0.0783 0.26591,0.0981 0.39585,0.0512 0.0763,-0.0275 0.14405,-0.0752 0.20205,-0.13177 0.0579,-0.0566 0.1069,-0.12179 0.154,-0.18759 0.0942,-0.13161 0.16634,-0.33172 0.32504,-0.35656 0.0355,-0.005 0.0724,-0.007 0.10956,-0.005 z m -36.24016,1.99006 c 0.24699,0.13256 0.45912,0.32972 0.60978,0.56637 0.23399,0.36739 0.31361,0.82977 0.21601,1.25419 0.23864,-0.23929 0.44228,-0.51385 0.60203,-0.81184 0.13207,-0.2463 0.23436,-0.50847 0.30386,-0.77928 0.24703,0.13251 0.45917,0.32968 0.60978,0.56638 0.19539,0.30707 0.28511,0.67999 0.25012,1.04231 0.20607,-0.14208 0.38445,-0.3236 0.52296,-0.53227 0.15983,-0.24079 0.26579,-0.5175 0.30799,-0.80357 0.27091,0.13209 0.5017,0.34612 0.65371,0.60668 0.21894,0.37515 0.26796,0.84498 0.13177,1.25729 0.2489,-0.13834 0.47037,-0.32545 0.64854,-0.54777 0.17839,-0.22259 0.31329,-0.47974 0.39429,-0.75344 0.27978,0.15385 0.53117,0.35909 0.73743,0.60306 0.26139,0.30921 0.44907,0.68022 0.54467,1.07384 0.16507,-0.15408 0.30666,-0.3336 0.41702,-0.53072 0.12387,-0.22123 0.20882,-0.4649 0.25012,-0.7152 0.3292,0.23473 0.59673,0.55525 0.76998,0.92087 0.15641,0.33013 0.23596,0.69669 0.22996,1.06195 0.21385,-0.10974 0.40632,-0.26119 0.56327,-0.44338 0.19055,-0.22119 0.32793,-0.48751 0.39843,-0.77101 0.28602,0.26957 0.52752,0.58633 0.71158,0.93379 0.18655,0.35214 0.31471,0.73537 0.37621,1.12913 0.23454,-0.0932 0.45581,-0.21866 0.65629,-0.37207 0.23509,-0.1799 0.44107,-0.39815 0.60719,-0.64337 0.23533,0.3607 0.34991,0.79915 0.32092,1.22886 -0.0229,0.34037 -0.13495,0.67376 -0.32143,0.95912 0.20419,0.22289 0.51751,0.34076 0.81752,0.30696 0.29998,-0.0338 0.57931,-0.21841 0.72864,-0.48111 0.32906,0.43784 0.53944,0.96472 0.60254,1.50895 0.0621,0.53527 -0.0188,1.08629 -0.23099,1.5813 0.29438,0.0439 0.60146,-5e-5 0.87178,-0.12454 0.31765,-0.14629 0.58283,-0.40397 0.73794,-0.71779 0.12129,0.58833 0.129,1.19994 0.0233,1.79111 -0.0899,0.50274 -0.26189,0.99034 -0.50695,1.43815 0.16798,0.0515 0.34826,0.0634 0.52142,0.0341 0.29877,-0.0504 0.5738,-0.22608 0.74569,-0.47594 -0.032,0.4763 -0.0861,0.9506 -0.1633,1.42162 -0.082,0.50004 -0.18978,0.99607 -0.32194,1.48518 0.29053,-0.029 0.57812,-0.0876 0.85679,-0.17467 0.24804,-0.0775 0.48928,-0.17728 0.71934,-0.29817 -0.0493,0.60396 -0.39514,1.17585 -0.9064,1.49965 -0.22594,0.14306 -0.48147,0.2396 -0.74569,0.2806 0.0699,0.19625 0.19654,0.37169 0.3607,0.49972 0.16417,0.12803 0.36552,0.20809 0.57257,0.22789 0.18975,0.0175 0.38386,-0.0143 0.55759,-0.093 0.17375,-0.0786 0.32644,-0.20346 0.43821,-0.35812 0.1202,0.30002 0.1446,0.63754 0.0677,0.95137 -0.10532,0.42975 -0.40343,0.80851 -0.79581,1.01182 0.37023,0.4764 0.65021,1.02282 0.8201,1.60197 0.13093,0.44633 0.19682,0.91156 0.19482,1.37666 -0.46289,0.037 -0.9312,0.006 -1.38544,-0.0904 -0.58941,-0.1258 -1.15497,-0.36343 -1.65726,-0.69712 -0.1727,0.40726 -0.52685,0.73306 -0.94672,0.87075 -0.3066,0.1007 -0.64462,0.10247 -0.9524,0.005 0.14552,-0.12334 0.25778,-0.2851 0.32298,-0.46457 0.0652,-0.17947 0.0831,-0.37661 0.0506,-0.56482 -0.0354,-0.20531 -0.1309,-0.39972 -0.27078,-0.55398 -0.13989,-0.15426 -0.32385,-0.26797 -0.52452,-0.32297 -0.0211,0.26698 -0.0974,0.52934 -0.22272,0.76584 -0.28364,0.5351 -0.82715,0.92436 -1.42472,1.01906 0.10296,-0.23893 0.18396,-0.48691 0.24236,-0.74052 0.0656,-0.2849 0.10204,-0.57685 0.10904,-0.8692 -0.47693,0.16903 -0.96205,0.31384 -1.45366,0.43356 -0.46313,0.11238 -0.93181,0.20331 -1.40353,0.27131 0.23571,-0.19058 0.39005,-0.47914 0.41754,-0.78135 0.016,-0.17517 -0.009,-0.35395 -0.0734,-0.5178 -0.42727,0.27863 -0.90003,0.48754 -1.39371,0.61547 -0.58052,0.15032 -1.18952,0.18822 -1.78439,0.11162 0.30067,-0.17866 0.5373,-0.46287 0.65888,-0.79117 0.1034,-0.27939 0.12378,-0.58934 0.0579,-0.88005 -0.47672,0.24947 -1.01946,0.37187 -1.55701,0.35037 -0.54659,-0.0218 -1.0864,-0.19232 -1.5472,-0.48783 0.25023,-0.169 0.41234,-0.46162 0.42323,-0.76378 0.0109,-0.30217 -0.12956,-0.60618 -0.3669,-0.79323 -0.26997,0.20783 -0.59411,0.34507 -0.93121,0.39378 -0.4256,0.0615 -0.87059,-0.0197 -1.24747,-0.22738 0.23153,-0.18446 0.43298,-0.40683 0.59428,-0.65526 0.13754,-0.21184 0.24633,-0.44288 0.32143,-0.68419 -0.39665,-0.0317 -0.78823,-0.12975 -1.1529,-0.28939 -0.35984,-0.15752 -0.69389,-0.37505 -0.98392,-0.64027 0.2769,-0.0919 0.53166,-0.24925 0.73742,-0.45631 0.16951,-0.17055 0.30584,-0.37393 0.39895,-0.59582 -0.36317,0.0337 -0.73388,-0.0181 -1.07436,-0.14935 -0.3771,-0.14535 -0.71603,-0.38868 -0.97462,-0.6997 0.24604,-0.0602 0.48162,-0.16341 0.69247,-0.30385 0.18788,-0.12518 0.35573,-0.27977 0.49661,-0.45631 -0.39911,-0.0656 -0.78239,-0.22538 -1.11001,-0.46302 -0.25851,-0.18754 -0.48196,-0.42312 -0.65629,-0.69091 0.26634,-0.1016 0.51228,-0.25561 0.72037,-0.45062 0.20784,-0.19478 0.37775,-0.43033 0.49661,-0.68937 -0.40015,0.1673 -0.87191,0.1535 -1.26194,-0.0367 -0.27091,-0.1321 -0.50119,-0.34611 -0.65319,-0.60668 0.28159,-0.0639 0.54856,-0.19059 0.77618,-0.36845 0.19726,-0.15413 0.36458,-0.34669 0.49041,-0.56327 -0.35804,0.0624 -0.7363,10e-4 -1.05679,-0.17054 -0.24702,-0.13251 -0.45917,-0.32916 -0.60978,-0.56585 0.26432,-0.0899 0.51773,-0.21224 0.75293,-0.36277 0.28458,-0.18212 0.54206,-0.40602 0.76223,-0.66249 -0.41516,0.1296 -0.88159,0.0854 -1.26504,-0.12041 -0.24699,-0.13256 -0.45911,-0.32972 -0.60978,-0.56637 0.32063,-0.0148 0.63702,-0.11186 0.91105,-0.27905 0.22391,-0.13664 0.41942,-0.31919 0.57051,-0.53382 -0.22229,0.0305 -0.45363,-0.009 -0.65371,-0.11059 -0.19097,-0.0971 -0.35252,-0.25127 -0.4594,-0.43718 0.13301,0.0273 0.27815,-0.0131 0.37775,-0.10542 0.0997,-0.0923 0.15125,-0.23407 0.13436,-0.36897 -0.01,-0.0792 -0.0414,-0.15421 -0.0832,-0.22221 -0.0418,-0.0679 -0.0938,-0.12912 -0.14676,-0.18862 -0.10599,-0.11894 -0.28228,-0.2314 -0.27182,-0.38912 v -5.3e-4 c 0.0197,-0.28288 0.29767,-0.58276 0.57775,-0.62374 0.15646,-0.0228 0.27426,0.15816 0.40824,0.24236 0.0675,0.0424 0.12816,0.0957 0.19896,0.1323 0.0708,0.0366 0.14787,0.0621 0.22737,0.0661 0.13561,0.006 0.27279,-0.0552 0.35709,-0.16175 0.0844,-0.10651 0.11368,-0.25471 0.0765,-0.3855 0.19318,0.0926 0.35855,0.24244 0.46973,0.42581 0.11643,0.19214 0.17328,0.4201 0.15969,0.64441 0.20222,-0.16713 0.36929,-0.37582 0.48834,-0.60979 0.14568,-0.28634 0.21877,-0.60986 0.20877,-0.93121 z m 51.16845,12.469 c -0.0258,0.33204 0.0226,0.66973 0.14056,0.98134 0.10224,0.27004 0.25686,0.52056 0.45217,0.73329 0.0535,-0.41575 0.24979,-0.8117 0.54829,-1.10588 0.23006,-0.22676 0.51918,-0.39311 0.83095,-0.478 0.009,0.32191 0.0563,0.64231 0.1416,0.95291 0.10324,0.3758 0.26169,0.73681 0.4687,1.06712 -7.9e-4,-0.50168 0.20706,-1.00043 0.56431,-1.35238 0.2301,-0.22669 0.51922,-0.393 0.83096,-0.478 -0.0931,0.35826 -0.0945,0.74008 -0.004,1.09915 0.0739,0.29341 0.2087,0.57144 0.39326,0.81133 0.0423,-0.25531 0.16439,-0.49659 0.34468,-0.68213 0.17202,-0.17712 0.39671,-0.30299 0.63769,-0.35709 -0.0754,0.13719 -0.0809,0.31087 -0.0134,0.45217 0.0675,0.14137 0.20602,0.2468 0.36018,0.2744 0.0905,0.0162 0.18375,0.007 0.27285,-0.0155 0.089,-0.0228 0.17437,-0.0586 0.25787,-0.0966 0.16703,-0.0761 0.35094,-0.23202 0.5209,-0.1664 h 5.3e-4 c 0.30453,0.1184 0.53933,0.52697 0.48886,0.84956 -0.0284,0.18014 -0.26733,0.24813 -0.40567,0.3669 -0.0696,0.0598 -0.14902,0.10865 -0.21342,0.17415 -0.0644,0.0655 -0.1194,0.14169 -0.15089,0.22789 -0.0534,0.14716 -0.0316,0.31924 0.0568,0.44855 0.0884,0.12947 0.24134,0.21201 0.39791,0.21601 -0.16782,0.18109 -0.38924,0.31237 -0.6289,0.37207 -0.2511,0.0625 -0.52166,0.0467 -0.76378,-0.045 0.11486,0.27995 0.2876,0.53551 0.50436,0.74673 0.26529,0.25847 0.596,0.4498 0.95291,0.5488 -0.2301,0.22671 -0.5187,0.39301 -0.83044,0.47801 -0.484,0.13202 -1.02007,0.061 -1.45365,-0.19172 0.1818,0.34477 0.41451,0.66307 0.68781,0.94103 0.22589,0.22978 0.47924,0.43227 0.75344,0.60151 -0.23006,0.22677 -0.51919,0.39311 -0.83096,0.47801 -0.40446,0.11016 -0.84533,0.0809 -1.23196,-0.0816 0.086,0.27563 0.22492,0.53462 0.40721,0.75861 0.21035,0.25847 0.47794,0.47003 0.77825,0.61443 -0.23776,0.25321 -0.55189,0.43381 -0.89039,0.51212 -0.4874,0.11278 -1.02072,0.006 -1.42782,-0.28526 0.0673,0.32152 0.19709,0.62992 0.38086,0.90227 0.18399,0.27268 0.42159,0.50905 0.69504,0.69195 -0.26472,0.25553 -0.57694,0.46194 -0.9157,0.60565 -0.42934,0.18214 -0.90123,0.26246 -1.36684,0.23306 0.11317,0.23457 0.26264,0.45175 0.44183,0.64079 0.2011,0.21215 0.43948,0.38922 0.70073,0.52038 -0.37055,0.2823 -0.81405,0.4676 -1.27537,0.5333 -0.41654,0.0593 -0.84718,0.021 -1.24695,-0.11059 0.0478,0.27313 0.14923,0.53681 0.2961,0.77205 0.17831,0.28559 0.42429,0.52862 0.7121,0.70331 -0.39414,0.2228 -0.82517,0.38026 -1.27021,0.46406 -0.45103,0.085 -0.9163,0.0944 -1.37045,0.0274 0.0225,0.29024 0.0851,0.57725 0.18552,0.85059 0.11767,0.32055 0.28714,0.62243 0.50022,0.88935 -0.47709,0.13573 -0.99807,0.11131 -1.46089,-0.0677 -0.3666,-0.14176 -0.69591,-0.37905 -0.94619,-0.68213 -0.31487,0.14866 -0.55079,0.45377 -0.61599,0.79582 -0.0652,0.34201 0.0421,0.71247 0.28009,0.96687 -0.59393,0.21258 -1.24478,0.26404 -1.865,0.14728 -0.61002,-0.1148 -1.18873,-0.39215 -1.66089,-0.7953 -0.14865,0.30926 -0.20541,0.66215 -0.16071,1.00252 0.0525,0.39998 0.24566,0.78059 0.53795,1.05885 -0.68859,-0.0677 -1.36391,-0.26823 -1.97817,-0.58705 -0.52236,-0.27112 -1.00022,-0.62788 -1.40922,-1.0511 -0.11397,0.16741 -0.18817,0.36199 -0.21497,0.56276 -0.0465,0.34636 0.0525,0.70959 0.26871,0.98444 -0.51304,-0.19824 -1.01609,-0.42039 -1.50791,-0.66663 -0.5221,-0.26144 -1.0315,-0.5495 -1.52446,-0.86248 -0.0672,0.32997 -0.10046,0.66678 -0.0997,1.00356 7.9e-4,0.29976 0.0282,0.59921 0.0827,0.894 -0.64756,-0.26104 -1.15874,-0.83754 -1.34049,-1.51153 -0.0802,-0.29785 -0.0994,-0.61216 -0.0543,-0.91726 -0.23974,0.01 -0.47648,0.0888 -0.67334,0.22583 -0.19686,0.13702 -0.35357,0.33163 -0.44597,0.55293 -0.0837,0.20302 -0.11463,0.42816 -0.0873,0.64648 0.0272,0.21829 0.11243,0.42907 0.24443,0.60513 -0.37106,0.0297 -0.75123,-0.0596 -1.07022,-0.25167 -0.43682,-0.26311 -0.75149,-0.72034 -0.84129,-1.22214 -0.6504,0.24477 -1.34719,0.36559 -2.04226,0.35449 -0.53566,-0.009 -1.06981,-0.0949 -1.58078,-0.25631 0.11723,-0.52257 0.31047,-1.02779 0.57206,-1.495 0.33951,-0.6062 0.79427,-1.14789 1.33273,-1.58698 -0.38909,-0.32961 -0.6271,-0.83138 -0.6351,-1.34101 -0.006,-0.3722 0.10783,-0.74538 0.31988,-1.05109 0.0861,0.20249 0.22531,0.38197 0.40049,0.51521 0.17518,0.13325 0.38543,0.21996 0.60358,0.24856 0.23792,0.0313 0.48485,-0.007 0.70228,-0.108 0.21744,-0.1013 0.40485,-0.26545 0.53382,-0.46767 -0.28648,-0.11467 -0.54897,-0.28843 -0.76636,-0.50746 -0.49187,-0.49558 -0.73429,-1.22758 -0.63459,-1.91823 0.22772,0.19518 0.47268,0.36976 0.73174,0.52089 0.29104,0.16971 0.5996,0.30978 0.91881,0.41755 -0.0232,-0.58321 -0.0165,-1.16778 0.0196,-1.75028 0.0344,-0.54862 0.0941,-1.09577 0.18035,-1.63866 0.12922,0.32487 0.39369,0.59337 0.71676,0.72709 0.18723,0.0776 0.39271,0.11103 0.59479,0.0966 -0.16077,-0.56602 -0.22924,-1.15803 -0.20154,-1.74563 0.0327,-0.69091 0.19852,-1.37495 0.48576,-2.00401 0.094,0.39235 0.32628,0.75003 0.64596,0.99632 0.27206,0.20952 0.60597,0.33794 0.94826,0.36484 -0.11177,-0.61051 -0.0613,-1.24974 0.14573,-1.83452 0.21053,-0.59462 0.58222,-1.13091 1.06453,-1.53737 0.10053,0.33347 0.36742,0.61218 0.69608,0.7276 0.32869,0.11548 0.71111,0.0646 0.99787,-0.13281 -0.13654,-0.3685 -0.17664,-0.77213 -0.11523,-1.16013 0.0776,-0.48986 0.31835,-0.95249 0.67541,-1.29656 0.12391,0.31817 0.29954,0.61631 0.51779,0.87901 0.18611,0.22401 0.40355,0.42225 0.64337,0.58756 0.17022,-0.42608 0.41154,-0.82341 0.71159,-1.17047 0.29607,-0.34248 0.64901,-0.63582 1.03973,-0.86454 0.007,0.33647 0.0931,0.6709 0.25063,0.96841 0.12978,0.2451 0.30703,0.46489 0.51935,0.64337 0.0868,-0.41157 0.27068,-0.8026 0.53123,-1.13274 0.28858,-0.36564 0.67188,-0.65566 1.10226,-0.83406 -0.0178,0.29162 0.0151,0.58628 0.0977,0.86661 0.0736,0.2498 0.18667,0.48823 0.3328,0.70384 0.20834,-0.41719 0.51459,-0.78446 0.8878,-1.06402 0.29451,-0.22057 0.62985,-0.3864 0.98392,-0.48679 0.0209,0.32816 0.10659,0.65178 0.25011,0.94774 0.14335,0.29561 0.34471,0.56331 0.58911,0.7829 -0.0475,-0.49805 0.12796,-1.01315 0.47026,-1.37769 0.23776,-0.25321 0.55187,-0.43392 0.89038,-0.51212 z m -46.78009,7.7618 c 0.39829,0.16386 0.74107,0.45994 0.96067,0.83044 0.17396,0.29346 0.27054,0.63176 0.27854,0.97255 0.29454,0.068 0.61944,-0.0125 0.84749,-0.21032 0.22801,-0.19785 0.35396,-0.50818 0.32815,-0.80925 0.51923,0.1743 0.99095,0.48908 1.35133,0.90175 0.35447,0.40586 0.60025,0.90591 0.7059,1.43402 0.26741,-0.13068 0.49531,-0.34059 0.64751,-0.59634 0.17883,-0.30053 0.25103,-0.6633 0.20102,-1.00976 0.43332,0.41603 0.78671,0.91541 1.03456,1.46244 0.21077,0.46521 0.34505,0.96443 0.39688,1.47226 0.16758,-0.0528 0.32299,-0.1449 0.44907,-0.26716 0.21761,-0.21083 0.34463,-0.51166 0.34468,-0.81494 0.24354,0.41058 0.46747,0.83217 0.67076,1.264 0.21579,0.45847 0.40845,0.92822 0.57671,1.40612 0.22294,-0.18854 0.42693,-0.39974 0.60719,-0.62942 0.16045,-0.20442 0.30217,-0.42322 0.42323,-0.65319 0.30159,0.52559 0.34062,1.19275 0.10284,1.74925 -0.1051,0.2459 -0.26079,0.47021 -0.45527,0.65371 0.16883,0.1221 0.37303,0.19523 0.58084,0.20774 0.20782,0.0125 0.41866,-0.0359 0.60048,-0.13695 0.16627,-0.0931 0.30815,-0.22945 0.4067,-0.39274 0.0986,-0.16323 0.15363,-0.35287 0.15813,-0.54363 0.26904,0.17908 0.48033,0.44405 0.59479,0.7462 0.15673,0.41379 0.12594,0.8943 -0.0822,1.28416 0.57501,0.18275 1.11521,0.47431 1.58337,0.85525 0.36079,0.29357 0.67861,0.63988 0.94051,1.02422 -0.36043,0.2928 -0.76351,0.53301 -1.19269,0.71056 -0.55694,0.23032 -1.15767,0.35431 -1.76062,0.36431 0.0885,0.43342 -0.0184,0.90231 -0.28629,1.25367 -0.19556,0.25671 -0.47365,0.44996 -0.78238,0.54416 0.05,-0.18408 0.0511,-0.38104 0.003,-0.56586 -0.048,-0.18482 -0.14459,-0.35684 -0.27802,-0.49351 -0.14548,-0.14912 -0.33425,-0.25606 -0.53692,-0.30386 -0.20267,-0.0478 -0.41895,-0.0369 -0.61546,0.0315 0.13385,0.23196 0.21991,0.49167 0.25063,0.75757 0.0695,0.60163 -0.15815,1.23029 -0.59687,1.64693 -0.0506,-0.25521 -0.12403,-0.5057 -0.21962,-0.74776 -0.10742,-0.27189 -0.24267,-0.53287 -0.40256,-0.77773 -0.29719,0.40953 -0.61517,0.8036 -0.9524,1.18081 -0.31792,0.35502 -0.65237,0.69521 -1.00252,1.01854 0.0862,-0.2906 0.0499,-0.61546 -0.0987,-0.88005 -0.0861,-0.1534 -0.2084,-0.28629 -0.35398,-0.38499 -0.19417,0.47169 -0.46515,0.91141 -0.79943,1.29656 -0.39316,0.45281 -0.8736,0.82933 -1.40715,1.1033 0.14651,-0.31759 0.18042,-0.68585 0.0946,-1.02526 -0.0731,-0.2888 -0.23211,-0.55538 -0.45114,-0.75758 -0.25144,0.47569 -0.62906,0.88359 -1.08417,1.17047 -0.46275,0.29173 -1.0042,0.4573 -1.55133,0.4749 0.11041,-0.28103 0.078,-0.61406 -0.0842,-0.86919 -0.1622,-0.25519 -0.45034,-0.42637 -0.75189,-0.44597 -0.10468,0.32422 -0.29399,0.621 -0.54415,0.85214 -0.31584,0.29183 -0.72831,0.47696 -1.15652,0.51935 0.0862,-0.28317 0.12624,-0.58033 0.11834,-0.87643 -0.007,-0.25247 -0.0481,-0.50431 -0.12299,-0.74569 -0.34479,0.19864 -0.72321,0.33987 -1.11414,0.41496 -0.38577,0.0742 -0.78379,0.0842 -1.17306,0.03 0.17611,-0.23262 0.29712,-0.50707 0.34933,-0.79427 0.0431,-0.23658 0.0397,-0.48116 -0.009,-0.71675 -0.28013,0.23356 -0.61505,0.40095 -0.96996,0.48575 -0.39309,0.094 -0.81011,0.0855 -1.19941,-0.0243 0.16862,-0.189 0.30427,-0.40765 0.39842,-0.64286 0.0839,-0.20959 0.13485,-0.43202 0.1509,-0.65732 -0.36602,0.17211 -0.77259,0.25773 -1.17719,0.24753 -0.31927,-0.008 -0.63686,-0.0755 -0.93224,-0.19741 0.16188,-0.23463 0.27752,-0.50119 0.33848,-0.7798 0.0609,-0.27826 0.0669,-0.56824 0.0181,-0.84904 -0.23492,0.3646 -0.63126,0.62042 -1.0604,0.68471 -0.29808,0.0447 -0.60923,-5.2e-4 -0.88212,-0.12919 0.19584,-0.21218 0.34421,-0.46861 0.43098,-0.74414 0.0752,-0.23878 0.10431,-0.4918 0.0853,-0.74156 -0.25966,0.25429 -0.6064,0.41847 -0.9679,0.45838 -0.27863,0.0308 -0.56499,-0.0113 -0.8232,-0.12093 0.16686,-0.22383 0.30646,-0.46772 0.41496,-0.72502 0.13128,-0.31132 0.21712,-0.64215 0.25321,-0.97823 -0.26864,0.34203 -0.67847,0.56983 -1.11104,0.61753 -0.27863,0.0307 -0.56496,-0.0113 -0.82321,-0.12092 0.25579,-0.1939 0.46168,-0.45316 0.59273,-0.74621 0.10707,-0.23945 0.16453,-0.50132 0.16743,-0.76378 -0.16587,0.15109 -0.37895,0.25007 -0.60151,0.27957 -0.2124,0.0281 -0.43291,-0.007 -0.62632,-0.0997 0.12505,-0.0529 0.2219,-0.16827 0.25166,-0.30076 0.0298,-0.1325 -0.008,-0.27877 -0.0982,-0.38034 -0.053,-0.0596 -0.12133,-0.10361 -0.1943,-0.13591 -0.073,-0.0322 -0.15051,-0.0533 -0.22789,-0.0723 -0.15466,-0.0379 -0.36359,-0.0307 -0.44442,-0.1664 -0.14398,-0.24423 -0.0855,-0.64887 0.12196,-0.8413 0.11602,-0.1074 0.31576,-0.025 0.47387,-0.032 0.0796,-0.004 0.15966,0.006 0.23875,-0.004 0.0791,-0.01 0.15753,-0.0321 0.2253,-0.0739 0.11541,-0.0715 0.19296,-0.20088 0.20206,-0.33641 0.009,-0.13559 -0.0508,-0.274 -0.15555,-0.3607 0.21167,-0.0332 0.43338,-0.003 0.6289,0.0847 0.20481,0.0924 0.3802,0.24827 0.4961,0.4408 0.0719,-0.2523 0.0918,-0.51956 0.0574,-0.7798 -0.0422,-0.31849 -0.16521,-0.62611 -0.35554,-0.88522 0.27863,-0.0307 0.56498,0.0113 0.82321,0.12092 0.40098,0.17013 0.72824,0.50605 0.88832,0.91106 0.061,-0.33239 0.0734,-0.67371 0.0362,-1.00976 -0.0307,-0.27778 -0.095,-0.5519 -0.19121,-0.81442 0.27863,-0.0308 0.565,0.0112 0.82321,0.12092 0.33499,0.14229 0.62038,0.39942 0.79685,0.71779 0.0893,-0.23384 0.13329,-0.48493 0.12919,-0.73535 -0.005,-0.28897 -0.0742,-0.57703 -0.20154,-0.83665 0.29807,-0.0447 0.60974,0.001 0.88264,0.12971 0.39298,0.18505 0.69973,0.54428 0.82113,0.96118 0.1267,-0.25502 0.20294,-0.53441 0.22377,-0.81855 0.0208,-0.28449 -0.014,-0.57298 -0.10232,-0.84439 0.3177,-0.0318 0.64162,-0.005 0.94981,0.0791 0.39059,0.10667 0.75549,0.30552 1.0573,0.57568 0.0487,-0.22049 0.0631,-0.44839 0.0424,-0.67335 -0.0233,-0.25247 -0.0911,-0.50106 -0.19895,-0.7307 0.40425,0.007 0.80659,0.11885 1.15651,0.32194 0.31595,0.18339 0.58914,0.44082 0.79117,0.74518 0.11401,-0.2116 0.18631,-0.44567 0.21239,-0.68472 0.0317,-0.29023 -0.006,-0.5879 -0.10852,-0.86144 0.38842,0.06 0.76715,0.18438 1.11569,0.36638 0.35325,0.18444 0.67551,0.42819 0.9493,0.71779 0.14046,-0.20967 0.25195,-0.43903 0.33021,-0.67903 0.0918,-0.28145 0.13801,-0.57767 0.13591,-0.87385 z"
       id="path3572" />
    <path
       inkscape:connector-curvature="0"
       style="fill:#ff0000;fill-opacity:1;stroke:#000000;stroke-width:1.32291663;stroke-linecap:round;stroke-linejoin:round;stroke-miterlimit:4;stroke-dasharray:none;stroke-opacity:1"
       d="m -238.02239,134.26494 -11.15332,2.88613 0.2713,35.88153 9.87536,-2.5554 v 27.27534 l 33.81138,-8.74934 v 27.27534 l 33.81137,-8.74934 v 27.27534 l 33.81189,-8.74934 v 27.27482 l 1.00614,-0.26045 13.47979,-3.48816 20.33158,-5.26117 h 5.3e-4 v 27.27482 l 1.19993,-0.31058 c 4.880654,-10.24922 7.826974,-21.73122 8.304404,-33.91369 l 0.0315,-4.19509 -8.529714,2.2071 v -27.27482 l -34.81804,9.00978 v -27.27482 l -33.81135,8.74882 v -27.27482 l -33.81138,8.74882 v -27.27482 l -33.81137,8.74882 z"
       id="path3607-6-5-9" />
    <path
       style="fill:none;fill-rule:evenodd;stroke:#000000;stroke-width:2.11666656;stroke-linejoin:round;stroke-miterlimit:4;stroke-dasharray:none;stroke-opacity:1"
       inkscape:connector-curvature="0"
       d="m -92.476856,132.14148 -0.79496,105.22909 c -1.73469,44.26378 -36.008674,79.32032 -77.573434,79.34509 -41.52736,-0.0543 -75.81417,-35.12343 -77.57343,-79.34509 l -0.79494,-105.22909 h 78.36651 z"
       id="path10563-0-6-7-6"
       sodipodi:nodetypes="ccccccc" />
    <path
       inkscape:connector-curvature="0"
       style="fill:#ffd700;fill-opacity:1;stroke:#000000;stroke-width:0.52916676;stroke-linecap:round;stroke-linejoin:round;stroke-miterlimit:4;stroke-dasharray:none;stroke-opacity:1"
       d="m -173.25115,287.28764 -0.14263,1.80144 -1.24023,-0.0444 c 0.55627,0.72549 1.09862,1.46171 1.62057,2.21227 2.72446,3.91771 5.01359,8.30221 5.49941,13.04933 0.10362,1.01256 0.12407,2.03946 -0.0351,3.04477 -0.15921,1.00532 -0.50315,1.9913 -1.08314,2.82774 -0.28909,0.41692 -0.635,0.79408 -1.02526,1.11828 l 2.33009,3.07578 c 1.15938,-1.42693 1.96681,-3.13755 2.33061,-4.93975 0.65991,-3.26907 -0.13981,-6.66281 -1.30535,-9.78752 -1.158,-3.10451 -2.6799,-6.06914 -4.47414,-8.85476 -0.77443,-1.20232 -1.60161,-2.37049 -2.47479,-3.50314 z"
       id="path3784-5" />
    <path
       transform="translate(-70.526476,103.47949)"
       style="fill:#ffd700;fill-opacity:1;stroke:#000000;stroke-width:0.5291667;stroke-linecap:round;stroke-linejoin:round;stroke-miterlimit:4;stroke-dasharray:none;stroke-opacity:1"
       d="m -98.875036,208.12499 c -0.20841,0.70961 -0.07593,1.51127 0.349712,2.11609 0.192135,0.27302 0.445596,0.50984 0.752204,0.64193 0.306608,0.13209 0.6693,0.15093 0.972196,0.0105 0.21537,-0.0998 0.392497,-0.27613 0.502891,-0.48628 0.110394,-0.21014 0.155059,-0.45261 0.1376,-0.68935 -0.01746,-0.23674 -0.09587,-0.46748 -0.216931,-0.67167 -0.121059,-0.20419 -0.284085,-0.38219 -0.47017,-0.52957 -0.560792,-0.44416 -1.341626,-0.595 -2.027502,-0.39169 z"
       id="path3788-2"
       inkscape:connector-curvature="0"
       inkscape:path-effect="#path-effect3790-2"
       inkscape:original-d="m -98.875036,208.12499 c 0,0 -0.103395,1.56308 0.349712,2.11609 0.389501,0.47538 1.222201,1.00672 1.7244,0.65247 0.647548,-0.45678 0.463764,-1.77067 -0.04661,-2.37687 -0.44332,-0.52656 -2.027502,-0.39169 -2.027502,-0.39169 z"
       sodipodi:nodetypes="caaacc" />
    <path
       style="fill:none;stroke:#000000;stroke-width:0.26458332;stroke-linecap:round;stroke-linejoin:miter;stroke-miterlimit:4;stroke-dasharray:none;stroke-opacity:1"
       d="m -104.55655,183.52908 c -1.70481,-2.56428 -3.66291,-4.96008 -5.83654,-7.14119 -2.38763,-2.39585 -5.02842,-4.52726 -7.75918,-6.5232 -0.99464,-0.72699 -2.00193,-1.43668 -3.02127,-2.12862"
       id="path3934-1"
       inkscape:connector-curvature="0"
       inkscape:path-effect="#path-effect3936-9"
       inkscape:original-d="m -104.55655,183.52908 c -1.94525,-2.38066 -3.67781,-4.95231 -5.83654,-7.14119 -2.37267,-2.4058 -5.08242,-4.46106 -7.75918,-6.5232 -0.97592,-0.75184 -2.15124,-1.46512 -3.02127,-2.12862"
       sodipodi:nodetypes="caac"
       transform="translate(-70.526486,103.47949)" />
    <path
       style="fill:none;stroke:#000000;stroke-width:0.26458332px;stroke-linecap:round;stroke-linejoin:miter;stroke-opacity:1"
       d="m -120.93474,172.92978 c 0.61162,0.22658 1.23963,0.40891 1.8775,0.54508 1.50899,0.32214 3.07321,0.38389 4.6029,0.18169"
       id="path3938-6"
       inkscape:connector-curvature="0"
       inkscape:path-effect="#path-effect3940-5"
       inkscape:original-d="m -120.93474,172.92978 c 0.6261,0.18143 1.23425,0.44061 1.8775,0.54508 1.51564,0.24615 3.06887,0.12086 4.6029,0.18169"
       sodipodi:nodetypes="cac"
       transform="rotate(6.7080859,-1033.548,-378.0369)" />
    <path
       transform="rotate(-5.1151339,1019.8711,1003.344)"
       style="fill:none;stroke:#000000;stroke-width:0.26458332px;stroke-linecap:round;stroke-linejoin:miter;stroke-opacity:1"
       d="m -120.93474,172.92978 c 0.61162,0.22658 1.23963,0.40891 1.8775,0.54508 1.50899,0.32214 3.07321,0.38389 4.6029,0.18169"
       id="path3938-7-23"
       inkscape:connector-curvature="0"
       inkscape:path-effect="#path-effect3940-6-1"
       inkscape:original-d="m -120.93474,172.92978 c 0.6261,0.18143 1.23425,0.44061 1.8775,0.54508 1.51564,0.24615 3.06887,0.12086 4.6029,0.18169"
       sodipodi:nodetypes="cac"
       inkscape:transform-center-x="-3.3530696"
       inkscape:transform-center-y="0.26187405" />
    <path
       transform="rotate(-10.243783,440.01604,609.50144)"
       style="fill:none;stroke:#000000;stroke-width:0.26458332px;stroke-linecap:round;stroke-linejoin:miter;stroke-opacity:1"
       d="m -120.93474,172.92978 c 0.61162,0.22658 1.23963,0.40891 1.8775,0.54508 1.50899,0.32214 3.07321,0.38389 4.6029,0.18169"
       id="path3938-7-7-8"
       inkscape:connector-curvature="0"
       inkscape:path-effect="#path-effect3940-6-0-0"
       inkscape:original-d="m -120.93474,172.92978 c 0.6261,0.18143 1.23425,0.44061 1.8775,0.54508 1.51564,0.24615 3.06887,0.12086 4.6029,0.18169"
       sodipodi:nodetypes="cac"
       inkscape:transform-center-x="-3.3483887"
       inkscape:transform-center-y="-0.097728917" />
    <path
       transform="rotate(-15.181886,253.08434,479.42252)"
       style="fill:none;stroke:#000000;stroke-width:0.26458332px;stroke-linecap:round;stroke-linejoin:miter;stroke-opacity:1"
       d="m -120.93474,172.92978 c 0.61162,0.22658 1.23963,0.40891 1.8775,0.54508 1.50899,0.32214 3.07321,0.38389 4.6029,0.18169"
       id="path3938-7-1-9"
       inkscape:connector-curvature="0"
       inkscape:path-effect="#path-effect3940-6-3-4"
       inkscape:original-d="m -120.93474,172.92978 c 0.6261,0.18143 1.23425,0.44061 1.8775,0.54508 1.51564,0.24615 3.06887,0.12086 4.6029,0.18169"
       sodipodi:nodetypes="cac"
       inkscape:transform-center-x="-3.3185455"
       inkscape:transform-center-y="-0.46250998" />
    <path
       transform="rotate(-19.971058,159.73928,414.08041)"
       style="fill:none;stroke:#000000;stroke-width:0.26458332px;stroke-linecap:round;stroke-linejoin:miter;stroke-opacity:1"
       d="m -120.93474,172.92978 c 0.61162,0.22658 1.23963,0.40891 1.8775,0.54508 1.50899,0.32214 3.07321,0.38389 4.6029,0.18169"
       id="path3938-7-4-1"
       inkscape:connector-curvature="0"
       inkscape:path-effect="#path-effect3940-6-5-5"
       inkscape:original-d="m -120.93474,172.92978 c 0.6261,0.18143 1.23425,0.44061 1.8775,0.54508 1.51564,0.24615 3.06887,0.12086 4.6029,0.18169"
       sodipodi:nodetypes="cac"
       inkscape:transform-center-x="-3.2660646"
       inkscape:transform-center-y="-0.76502067" />
    <path
       transform="matrix(0.50843111,-0.37013153,0.37725472,0.49883108,-186.48177,153.84682)"
       style="fill:none;stroke:#000000;stroke-width:0.42191529px;stroke-linecap:round;stroke-linejoin:miter;stroke-opacity:1"
       d="m -120.93474,172.92978 c 0.61162,0.22658 1.23963,0.40891 1.8775,0.54508 1.50899,0.32214 3.07321,0.38389 4.6029,0.18169"
       id="path3938-7-2-6"
       inkscape:connector-curvature="0"
       inkscape:path-effect="#path-effect3940-6-04-9"
       inkscape:original-d="m -120.93474,172.92978 c 0.6261,0.18143 1.23425,0.44061 1.8775,0.54508 1.51564,0.24615 3.06887,0.12086 4.6029,0.18169"
       sodipodi:nodetypes="cac"
       inkscape:transform-center-x="-1.8431146"
       inkscape:transform-center-y="-1.0351836" />
    <path
       transform="matrix(0.21913116,-0.26160295,0.26936621,0.19931295,-199.76426,219.27881)"
       style="fill:none;stroke:#000000;stroke-width:0.78313828px;stroke-linecap:round;stroke-linejoin:miter;stroke-opacity:1"
       d="m -120.93474,172.92978 c 0.61162,0.22658 1.23963,0.40891 1.8775,0.54508 1.50899,0.32214 3.07321,0.38389 4.6029,0.18169"
       id="path3938-7-2-9-9"
       inkscape:connector-curvature="0"
       inkscape:path-effect="#path-effect3940-6-04-0-4"
       inkscape:original-d="m -120.93474,172.92978 c 0.6261,0.18143 1.23425,0.44061 1.8775,0.54508 1.51564,0.24615 3.06887,0.12086 4.6029,0.18169"
       sodipodi:nodetypes="cac"
       inkscape:transform-center-x="-0.83669271"
       inkscape:transform-center-y="-0.792398" />
    <path
       transform="rotate(16.773265,-496.97412,-18.267568)"
       style="fill:none;stroke:#000000;stroke-width:0.26458332px;stroke-linecap:round;stroke-linejoin:miter;stroke-opacity:1"
       d="m -120.93474,172.92978 c 0.61162,0.22658 1.23963,0.40891 1.8775,0.54508 1.50899,0.32214 3.07321,0.38389 4.6029,0.18169"
       id="path3938-0-7"
       inkscape:connector-curvature="0"
       inkscape:path-effect="#path-effect3940-2-7"
       inkscape:original-d="m -120.93474,172.92978 c 0.6261,0.18143 1.23425,0.44061 1.8775,0.54508 1.51564,0.24615 3.06887,0.12086 4.6029,0.18169"
       sodipodi:nodetypes="cac" />
    <path
       transform="matrix(0.59316326,0.80508221,0.80508221,-0.59316326,-256.05651,470.9857)"
       style="fill:none;stroke:#000000;stroke-width:0.26458332px;stroke-linecap:round;stroke-linejoin:miter;stroke-opacity:1"
       d="m -120.93474,172.92978 c 0.61162,0.22658 1.23963,0.40891 1.8775,0.54508 1.50899,0.32214 3.07321,0.38389 4.6029,0.18169"
       id="path3938-4-8"
       inkscape:connector-curvature="0"
       inkscape:path-effect="#path-effect3940-4-4"
       inkscape:original-d="m -120.93474,172.92978 c 0.6261,0.18143 1.23425,0.44061 1.8775,0.54508 1.51564,0.24615 3.06887,0.12086 4.6029,0.18169"
       sodipodi:nodetypes="cac"
       inkscape:transform-center-x="-2.2412161"
       inkscape:transform-center-y="2.3011413" />
    <path
       transform="matrix(0.20592573,0.82529836,0.81523427,-0.20846788,-300.79422,407.77)"
       style="fill:none;stroke:#000000;stroke-width:0.31274092px;stroke-linecap:round;stroke-linejoin:miter;stroke-opacity:1"
       d="m -120.93474,172.92978 c 0.61162,0.22658 1.23963,0.40891 1.8775,0.54508 1.50899,0.32214 3.07321,0.38389 4.6029,0.18169"
       id="path3938-4-1-61"
       inkscape:connector-curvature="0"
       inkscape:path-effect="#path-effect3940-4-5-4"
       inkscape:original-d="m -120.93474,172.92978 c 0.6261,0.18143 1.23425,0.44061 1.8775,0.54508 1.51564,0.24615 3.06887,0.12086 4.6029,0.18169"
       sodipodi:nodetypes="cac"
       inkscape:transform-center-x="-1.0134823"
       inkscape:transform-center-y="2.534509" />
    <path
       transform="matrix(0.03212366,0.84999462,0.84066671,-0.03667762,-323.91055,381.95957)"
       style="fill:none;stroke:#000000;stroke-width:0.31274092px;stroke-linecap:round;stroke-linejoin:miter;stroke-opacity:1"
       d="m -120.93474,172.92978 c 0.61162,0.22658 1.23963,0.40891 1.8775,0.54508 1.50899,0.32214 3.07321,0.38389 4.6029,0.18169"
       id="path3938-4-1-0-9"
       inkscape:connector-curvature="0"
       inkscape:path-effect="#path-effect3940-4-5-7-3"
       inkscape:original-d="m -120.93474,172.92978 c 0.6261,0.18143 1.23425,0.44061 1.8775,0.54508 1.51564,0.24615 3.06887,0.12086 4.6029,0.18169"
       sodipodi:nodetypes="cac"
       inkscape:transform-center-x="-0.49622988"
       inkscape:transform-center-y="2.6885819" />
    <path
       transform="matrix(-0.07497516,0.80470558,0.77010694,0.07207189,-322.71367,359.38078)"
       style="fill:none;stroke:#000000;stroke-width:0.33464414px;stroke-linecap:round;stroke-linejoin:miter;stroke-opacity:1"
       d="m -120.93474,172.92978 c 0.61162,0.22658 1.23963,0.40891 1.8775,0.54508 1.50899,0.32214 3.07321,0.38389 4.6029,0.18169"
       id="path3938-4-1-0-5-8"
       inkscape:connector-curvature="0"
       inkscape:path-effect="#path-effect3940-4-5-7-2-9"
       inkscape:original-d="m -120.93474,172.92978 c 0.6261,0.18143 1.23425,0.44061 1.8775,0.54508 1.51564,0.24615 3.06887,0.12086 4.6029,0.18169"
       sodipodi:nodetypes="cac"
       inkscape:transform-center-x="-0.23584858"
       inkscape:transform-center-y="2.5922566" />
    <path
       transform="matrix(-0.14095414,0.46223044,0.38974427,0.12839229,-263.03661,311.13454)"
       style="fill:none;stroke:#000000;stroke-width:0.59423316px;stroke-linecap:round;stroke-linejoin:miter;stroke-opacity:1"
       d="m -120.93474,172.92978 c 0.61162,0.22658 1.23963,0.40891 1.8775,0.54508 1.50899,0.32214 3.07321,0.38389 4.6029,0.18169"
       id="path3938-4-1-0-0-0"
       inkscape:connector-curvature="0"
       inkscape:path-effect="#path-effect3940-4-5-7-1-2"
       inkscape:original-d="m -120.93474,172.92978 c 0.6261,0.18143 1.23425,0.44061 1.8775,0.54508 1.51564,0.24615 3.06887,0.12086 4.6029,0.18169"
       sodipodi:nodetypes="cac"
       inkscape:transform-center-x="0.27717964"
       inkscape:transform-center-y="1.5272426" />
    <path
       transform="matrix(-0.12895304,0.33149789,0.27851161,0.11198022,-241.21384,300.83952)"
       style="fill:none;stroke:#000000;stroke-width:0.80974001px;stroke-linecap:round;stroke-linejoin:miter;stroke-opacity:1"
       d="m -120.93474,172.92978 c 0.61162,0.22658 1.23963,0.40891 1.8775,0.54508 1.50899,0.32214 3.07321,0.38389 4.6029,0.18169"
       id="path3938-4-1-0-0-6-26"
       inkscape:connector-curvature="0"
       inkscape:path-effect="#path-effect3940-4-5-7-1-9-9"
       inkscape:original-d="m -120.93474,172.92978 c 0.6261,0.18143 1.23425,0.44061 1.8775,0.54508 1.51564,0.24615 3.06887,0.12086 4.6029,0.18169"
       sodipodi:nodetypes="cac"
       inkscape:transform-center-x="0.28794773"
       inkscape:transform-center-y="1.1040355" />
    <path
       style="fill:none;stroke:#000000;stroke-width:0.26458332;stroke-linecap:round;stroke-linejoin:miter;stroke-miterlimit:4;stroke-dasharray:none;stroke-opacity:1"
       d="m -104.55655,183.52908 c -1.70481,-2.56428 -3.66291,-4.96008 -5.83654,-7.14119 -2.38763,-2.39585 -5.02842,-4.52726 -7.75918,-6.5232 -0.99464,-0.72699 -2.00193,-1.43668 -3.02127,-2.12862"
       id="path3934-7-9"
       inkscape:connector-curvature="0"
       inkscape:path-effect="#path-effect3936-2-6"
       inkscape:original-d="m -104.55655,183.52908 c -1.94525,-2.38066 -3.67781,-4.95231 -5.83654,-7.14119 -2.37267,-2.4058 -5.08242,-4.46106 -7.75918,-6.5232 -0.97592,-0.75184 -2.15124,-1.46512 -3.02127,-2.12862"
       sodipodi:nodetypes="caac"
       transform="rotate(-34.516369,45.467325,353.14472)" />
    <path
       style="fill:none;stroke:#000000;stroke-width:0.26458332px;stroke-linecap:round;stroke-linejoin:miter;stroke-opacity:1"
       d="m -120.93474,172.92978 c 0.61162,0.22658 1.23963,0.40891 1.8775,0.54508 1.50899,0.32214 3.07321,0.38389 4.6029,0.18169"
       id="path3938-5-8"
       inkscape:connector-curvature="0"
       inkscape:path-effect="#path-effect3940-7-6"
       inkscape:original-d="m -120.93474,172.92978 c 0.6261,0.18143 1.23425,0.44061 1.8775,0.54508 1.51564,0.24615 3.06887,0.12086 4.6029,0.18169"
       sodipodi:nodetypes="cac"
       transform="rotate(-27.808284,95.971052,383.65735)" />
    <path
       transform="rotate(-39.631503,19.320749,334.94046)"
       style="fill:none;stroke:#000000;stroke-width:0.26458332px;stroke-linecap:round;stroke-linejoin:miter;stroke-opacity:1"
       d="m -120.93474,172.92978 c 0.61162,0.22658 1.23963,0.40891 1.8775,0.54508 1.50899,0.32214 3.07321,0.38389 4.6029,0.18169"
       id="path3938-7-49-1"
       inkscape:connector-curvature="0"
       inkscape:path-effect="#path-effect3940-6-7-0"
       inkscape:original-d="m -120.93474,172.92978 c 0.6261,0.18143 1.23425,0.44061 1.8775,0.54508 1.51564,0.24615 3.06887,0.12086 4.6029,0.18169"
       sodipodi:nodetypes="cac"
       inkscape:transform-center-x="-3.3530696"
       inkscape:transform-center-y="0.26187405" />
    <path
       transform="rotate(-44.760152,-0.67796426,321.1246)"
       style="fill:none;stroke:#000000;stroke-width:0.26458332px;stroke-linecap:round;stroke-linejoin:miter;stroke-opacity:1"
       d="m -120.93474,172.92978 c 0.61162,0.22658 1.23963,0.40891 1.8775,0.54508 1.50899,0.32214 3.07321,0.38389 4.6029,0.18169"
       id="path3938-7-7-4-4"
       inkscape:connector-curvature="0"
       inkscape:path-effect="#path-effect3940-6-0-1-8"
       inkscape:original-d="m -120.93474,172.92978 c 0.6261,0.18143 1.23425,0.44061 1.8775,0.54508 1.51564,0.24615 3.06887,0.12086 4.6029,0.18169"
       sodipodi:nodetypes="cac"
       inkscape:transform-center-x="-3.3483887"
       inkscape:transform-center-y="-0.097728917" />
    <path
       transform="rotate(-49.698255,-15.895018,309.64342)"
       style="fill:none;stroke:#000000;stroke-width:0.26458332px;stroke-linecap:round;stroke-linejoin:miter;stroke-opacity:1"
       d="m -120.93474,172.92978 c 0.61162,0.22658 1.23963,0.40891 1.8775,0.54508 1.50899,0.32214 3.07321,0.38389 4.6029,0.18169"
       id="path3938-7-1-3-8"
       inkscape:connector-curvature="0"
       inkscape:path-effect="#path-effect3940-6-3-1-3"
       inkscape:original-d="m -120.93474,172.92978 c 0.6261,0.18143 1.23425,0.44061 1.8775,0.54508 1.51564,0.24615 3.06887,0.12086 4.6029,0.18169"
       sodipodi:nodetypes="cac"
       inkscape:transform-center-x="-3.3185455"
       inkscape:transform-center-y="-0.46250998" />
    <path
       transform="rotate(-54.487426,-28.215293,300.24151)"
       style="fill:none;stroke:#000000;stroke-width:0.26458332px;stroke-linecap:round;stroke-linejoin:miter;stroke-opacity:1"
       d="m -120.93474,172.92978 c 0.61162,0.22658 1.23963,0.40891 1.8775,0.54508 1.50899,0.32214 3.07321,0.38389 4.6029,0.18169"
       id="path3938-7-4-5-4"
       inkscape:connector-curvature="0"
       inkscape:path-effect="#path-effect3940-6-5-6-9"
       inkscape:original-d="m -120.93474,172.92978 c 0.6261,0.18143 1.23425,0.44061 1.8775,0.54508 1.51564,0.24615 3.06887,0.12086 4.6029,0.18169"
       sodipodi:nodetypes="cac"
       inkscape:transform-center-x="-3.2660646"
       inkscape:transform-center-y="-0.76502067" />
    <path
       transform="matrix(0.20919716,-0.59307341,0.59350291,0.19725076,-259.10542,195.13572)"
       style="fill:none;stroke:#000000;stroke-width:0.42191529px;stroke-linecap:round;stroke-linejoin:miter;stroke-opacity:1"
       d="m -120.93474,172.92978 c 0.61162,0.22658 1.23963,0.40891 1.8775,0.54508 1.50899,0.32214 3.07321,0.38389 4.6029,0.18169"
       id="path3938-7-2-95-2"
       inkscape:connector-curvature="0"
       inkscape:path-effect="#path-effect3940-6-04-3-8"
       inkscape:original-d="m -120.93474,172.92978 c 0.6261,0.18143 1.23425,0.44061 1.8775,0.54508 1.51564,0.24615 3.06887,0.12086 4.6029,0.18169"
       sodipodi:nodetypes="cac"
       inkscape:transform-center-x="-1.8431146"
       inkscape:transform-center-y="-1.0351836" />
    <path
       transform="matrix(0.03232113,-0.33972034,0.33488717,0.01159265,-232.97323,256.57576)"
       style="fill:none;stroke:#000000;stroke-width:0.78313828px;stroke-linecap:round;stroke-linejoin:miter;stroke-opacity:1"
       d="m -120.93474,172.92978 c 0.61162,0.22658 1.23963,0.40891 1.8775,0.54508 1.50899,0.32214 3.07321,0.38389 4.6029,0.18169"
       id="path3938-7-2-9-2-6"
       inkscape:connector-curvature="0"
       inkscape:path-effect="#path-effect3940-6-04-0-2-7"
       inkscape:original-d="m -120.93474,172.92978 c 0.6261,0.18143 1.23425,0.44061 1.8775,0.54508 1.51564,0.24615 3.06887,0.12086 4.6029,0.18169"
       sodipodi:nodetypes="cac"
       inkscape:transform-center-x="-0.83669271"
       inkscape:transform-center-y="-0.792398" />
    <path
       transform="rotate(-17.743105,238.1858,475.45845)"
       style="fill:none;stroke:#000000;stroke-width:0.26458332px;stroke-linecap:round;stroke-linejoin:miter;stroke-opacity:1"
       d="m -120.93474,172.92978 c 0.61162,0.22658 1.23963,0.40891 1.8775,0.54508 1.50899,0.32214 3.07321,0.38389 4.6029,0.18169"
       id="path3938-0-9-4"
       inkscape:connector-curvature="0"
       inkscape:path-effect="#path-effect3940-2-5-7"
       inkscape:original-d="m -120.93474,172.92978 c 0.6261,0.18143 1.23425,0.44061 1.8775,0.54508 1.51564,0.24615 3.06887,0.12086 4.6029,0.18169"
       sodipodi:nodetypes="cac" />
    <path
       transform="matrix(0.94493847,0.32724802,0.32724802,-0.94493847,-136.72842,495.8708)"
       style="fill:none;stroke:#000000;stroke-width:0.26458332px;stroke-linecap:round;stroke-linejoin:miter;stroke-opacity:1"
       d="m -120.93474,172.92978 c 0.61162,0.22658 1.23963,0.40891 1.8775,0.54508 1.50899,0.32214 3.07321,0.38389 4.6029,0.18169"
       id="path3938-4-0-5"
       inkscape:connector-curvature="0"
       inkscape:path-effect="#path-effect3940-4-57-3"
       inkscape:original-d="m -120.93474,172.92978 c 0.6261,0.18143 1.23425,0.44061 1.8775,0.54508 1.51564,0.24615 3.06887,0.12086 4.6029,0.18169"
       sodipodi:nodetypes="cac"
       inkscape:transform-center-x="-2.2412161"
       inkscape:transform-center-y="2.3011413" />
    <path
       transform="matrix(0.63732389,0.56333033,0.55359739,-0.63371579,-209.41135,469.13357)"
       style="fill:none;stroke:#000000;stroke-width:0.31274092px;stroke-linecap:round;stroke-linejoin:miter;stroke-opacity:1"
       d="m -120.93474,172.92978 c 0.61162,0.22658 1.23963,0.40891 1.8775,0.54508 1.50899,0.32214 3.07321,0.38389 4.6029,0.18169"
       id="path3938-4-1-6-9"
       inkscape:connector-curvature="0"
       inkscape:path-effect="#path-effect3940-4-5-0-5"
       inkscape:original-d="m -120.93474,172.92978 c 0.6261,0.18143 1.23425,0.44061 1.8775,0.54508 1.51564,0.24615 3.06887,0.12086 4.6029,0.18169"
       sodipodi:nodetypes="cac"
       inkscape:transform-center-x="-1.0134823"
       inkscape:transform-center-y="2.534509" />
    <path
       transform="matrix(0.5081111,0.68216264,0.67189633,-0.50657784,-243.08365,460.96535)"
       style="fill:none;stroke:#000000;stroke-width:0.31274092px;stroke-linecap:round;stroke-linejoin:miter;stroke-opacity:1"
       d="m -120.93474,172.92978 c 0.61162,0.22658 1.23963,0.40891 1.8775,0.54508 1.50899,0.32214 3.07321,0.38389 4.6029,0.18169"
       id="path3938-4-1-0-08-2"
       inkscape:connector-curvature="0"
       inkscape:path-effect="#path-effect3940-4-5-7-5-5"
       inkscape:original-d="m -120.93474,172.92978 c 0.6261,0.18143 1.23425,0.44061 1.8775,0.54508 1.51564,0.24615 3.06887,0.12086 4.6029,0.18169"
       sodipodi:nodetypes="cac"
       inkscape:transform-center-x="-0.49622988"
       inkscape:transform-center-y="2.6885819" />
    <path
       transform="matrix(0.39420284,0.70553276,0.6753796,-0.37699,-254.89155,441.68305)"
       style="fill:none;stroke:#000000;stroke-width:0.33464414px;stroke-linecap:round;stroke-linejoin:miter;stroke-opacity:1"
       d="m -120.93474,172.92978 c 0.61162,0.22658 1.23963,0.40891 1.8775,0.54508 1.50899,0.32214 3.07321,0.38389 4.6029,0.18169"
       id="path3938-4-1-0-5-0-2"
       inkscape:connector-curvature="0"
       inkscape:path-effect="#path-effect3940-4-5-7-2-6-9"
       inkscape:original-d="m -120.93474,172.92978 c 0.6261,0.18143 1.23425,0.44061 1.8775,0.54508 1.51564,0.24615 3.06887,0.12086 4.6029,0.18169"
       sodipodi:nodetypes="cac"
       inkscape:transform-center-x="-0.23584858"
       inkscape:transform-center-y="2.5922566" />
    <path
       transform="matrix(0.14577784,0.4607319,0.3938878,-0.11505467,-233.05811,368.11435)"
       style="fill:none;stroke:#000000;stroke-width:0.59423316px;stroke-linecap:round;stroke-linejoin:miter;stroke-opacity:1"
       d="m -120.93474,172.92978 c 0.61162,0.22658 1.23963,0.40891 1.8775,0.54508 1.50899,0.32214 3.07321,0.38389 4.6029,0.18169"
       id="path3938-4-1-0-0-7-5"
       inkscape:connector-curvature="0"
       inkscape:path-effect="#path-effect3940-4-5-7-1-4-1"
       inkscape:original-d="m -120.93474,172.92978 c 0.6261,0.18143 1.23425,0.44061 1.8775,0.54508 1.51564,0.24615 3.06887,0.12086 4.6029,0.18169"
       sodipodi:nodetypes="cac"
       inkscape:transform-center-x="0.27717964"
       inkscape:transform-center-y="1.5272426" />
    <path
       transform="matrix(0.08158781,0.34621261,0.29293627,-0.06554857,-220.91051,347.26593)"
       style="fill:none;stroke:#000000;stroke-width:0.80974001px;stroke-linecap:round;stroke-linejoin:miter;stroke-opacity:1"
       d="m -120.93474,172.92978 c 0.61162,0.22658 1.23963,0.40891 1.8775,0.54508 1.50899,0.32214 3.07321,0.38389 4.6029,0.18169"
       id="path3938-4-1-0-0-6-9-7"
       inkscape:connector-curvature="0"
       inkscape:path-effect="#path-effect3940-4-5-7-1-9-8-7"
       inkscape:original-d="m -120.93474,172.92978 c 0.6261,0.18143 1.23425,0.44061 1.8775,0.54508 1.51564,0.24615 3.06887,0.12086 4.6029,0.18169"
       sodipodi:nodetypes="cac"
       inkscape:transform-center-x="0.28794773"
       inkscape:transform-center-y="1.1040355" />
    <path
       style="fill:none;stroke:#000000;stroke-width:0.22954746;stroke-linecap:round;stroke-linejoin:miter;stroke-miterlimit:4;stroke-dasharray:none;stroke-opacity:1"
       d="m -104.55655,183.52908 c -1.70481,-2.56428 -3.66291,-4.96008 -5.83654,-7.14119 -2.38763,-2.39585 -5.02842,-4.52726 -7.75918,-6.5232 -0.99464,-0.72699 -2.00193,-1.43668 -3.02127,-2.12862"
       id="path3934-4-9"
       inkscape:connector-curvature="0"
       inkscape:path-effect="#path-effect3936-1-2"
       inkscape:original-d="m -104.55655,183.52908 c -1.94525,-2.38066 -3.67781,-4.95231 -5.83654,-7.14119 -2.37267,-2.4058 -5.08242,-4.46106 -7.75918,-6.5232 -0.97592,-0.75184 -2.15124,-1.46512 -3.02127,-2.12862"
       sodipodi:nodetypes="caac"
       transform="matrix(-0.34121712,1.1015454,-1.1000692,-0.34224595,6.4823737,475.78707)" />
    <path
       style="fill:none;stroke:#000000;stroke-width:0.22954746px;stroke-linecap:round;stroke-linejoin:miter;stroke-opacity:1"
       d="m -120.93474,172.92978 c 0.61162,0.22658 1.23963,0.40891 1.8775,0.54508 1.50899,0.32214 3.07321,0.38389 4.6029,0.18169"
       id="path3938-01-36"
       inkscape:connector-curvature="0"
       inkscape:path-effect="#path-effect3940-66-6"
       inkscape:original-d="m -120.93474,172.92978 c 0.6261,0.18143 1.23425,0.44061 1.8775,0.54508 1.51564,0.24615 3.06887,0.12086 4.6029,0.18169"
       sodipodi:nodetypes="cac"
       transform="matrix(-0.46738127,1.0540264,-1.0526804,-0.4685755,-16.229856,492.02019)" />
    <path
       transform="matrix(-0.24177895,1.1276723,-1.1261103,-0.24267207,20.966134,462.33769)"
       style="fill:none;stroke:#000000;stroke-width:0.22954746px;stroke-linecap:round;stroke-linejoin:miter;stroke-opacity:1"
       d="m -120.93474,172.92978 c 0.61162,0.22658 1.23963,0.40891 1.8775,0.54508 1.50899,0.32214 3.07321,0.38389 4.6029,0.18169"
       id="path3938-7-3-0"
       inkscape:connector-curvature="0"
       inkscape:path-effect="#path-effect3940-6-55-5"
       inkscape:original-d="m -120.93474,172.92978 c 0.6261,0.18143 1.23425,0.44061 1.8775,0.54508 1.51564,0.24615 3.06887,0.12086 4.6029,0.18169"
       sodipodi:nodetypes="cac"
       inkscape:transform-center-x="-3.3530696"
       inkscape:transform-center-y="0.26187405" />
    <path
       transform="matrix(-0.14014537,1.1448507,-1.143215,-0.14089527,34.074784,447.11209)"
       style="fill:none;stroke:#000000;stroke-width:0.22954746px;stroke-linecap:round;stroke-linejoin:miter;stroke-opacity:1"
       d="m -120.93474,172.92978 c 0.61162,0.22658 1.23963,0.40891 1.8775,0.54508 1.50899,0.32214 3.07321,0.38389 4.6029,0.18169"
       id="path3938-7-7-45-5"
       inkscape:connector-curvature="0"
       inkscape:path-effect="#path-effect3940-6-0-3-9"
       inkscape:original-d="m -120.93474,172.92978 c 0.6261,0.18143 1.23425,0.44061 1.8775,0.54508 1.51564,0.24615 3.06887,0.12086 4.6029,0.18169"
       sodipodi:nodetypes="cac"
       inkscape:transform-center-x="-3.3483887"
       inkscape:transform-center-y="-0.097728917" />
    <path
       transform="matrix(-0.04121781,1.1527295,-1.1510354,-0.04182414,44.761364,431.90775)"
       style="fill:none;stroke:#000000;stroke-width:0.22954746px;stroke-linecap:round;stroke-linejoin:miter;stroke-opacity:1"
       d="m -120.93474,172.92978 c 0.61162,0.22658 1.23963,0.40891 1.8775,0.54508 1.50899,0.32214 3.07321,0.38389 4.6029,0.18169"
       id="path3938-7-1-4-1"
       inkscape:connector-curvature="0"
       inkscape:path-effect="#path-effect3940-6-3-3-4"
       inkscape:original-d="m -120.93474,172.92978 c 0.6261,0.18143 1.23425,0.44061 1.8775,0.54508 1.51564,0.24615 3.06887,0.12086 4.6029,0.18169"
       sodipodi:nodetypes="cac"
       inkscape:transform-center-x="-3.3185455"
       inkscape:transform-center-y="-0.46250998" />
    <path
       transform="matrix(0.05502549,1.1521968,-1.150458,0.05456272,53.821624,416.48892)"
       style="fill:none;stroke:#000000;stroke-width:0.22954746px;stroke-linecap:round;stroke-linejoin:miter;stroke-opacity:1"
       d="m -120.93474,172.92978 c 0.61162,0.22658 1.23963,0.40891 1.8775,0.54508 1.50899,0.32214 3.07321,0.38389 4.6029,0.18169"
       id="path3938-7-4-3-1"
       inkscape:connector-curvature="0"
       inkscape:path-effect="#path-effect3940-6-5-8-3"
       inkscape:original-d="m -120.93474,172.92978 c 0.6261,0.18143 1.23425,0.44061 1.8775,0.54508 1.51564,0.24615 3.06887,0.12086 4.6029,0.18169"
       sodipodi:nodetypes="cac"
       inkscape:transform-center-x="-3.2660646"
       inkscape:transform-center-y="-0.76502067" />
    <path
       transform="matrix(0.23368489,0.68673596,-0.67747446,0.2448403,-9.3592363,330.81905)"
       style="fill:none;stroke:#000000;stroke-width:0.36604568px;stroke-linecap:round;stroke-linejoin:miter;stroke-opacity:1"
       d="m -120.93474,172.92978 c 0.61162,0.22658 1.23963,0.40891 1.8775,0.54508 1.50899,0.32214 3.07321,0.38389 4.6029,0.18169"
       id="path3938-7-2-4-6"
       inkscape:connector-curvature="0"
       inkscape:path-effect="#path-effect3940-6-04-2-3"
       inkscape:original-d="m -120.93474,172.92978 c 0.6261,0.18143 1.23425,0.44061 1.8775,0.54508 1.51564,0.24615 3.06887,0.12086 4.6029,0.18169"
       sodipodi:nodetypes="cac"
       inkscape:transform-center-x="-1.8431146"
       inkscape:transform-center-y="-1.0351836" />
    <path
       transform="matrix(0.21301004,0.33091546,-0.3111704,0.22850506,-76.806746,293.79395)"
       style="fill:none;stroke:#000000;stroke-width:0.67943585px;stroke-linecap:round;stroke-linejoin:miter;stroke-opacity:1"
       d="m -120.93474,172.92978 c 0.61162,0.22658 1.23963,0.40891 1.8775,0.54508 1.50899,0.32214 3.07321,0.38389 4.6029,0.18169"
       id="path3938-7-2-9-0-8"
       inkscape:connector-curvature="0"
       inkscape:path-effect="#path-effect3940-6-04-0-6-7"
       inkscape:original-d="m -120.93474,172.92978 c 0.6261,0.18143 1.23425,0.44061 1.8775,0.54508 1.51564,0.24615 3.06887,0.12086 4.6029,0.18169"
       sodipodi:nodetypes="cac"
       inkscape:transform-center-x="-0.83669271"
       inkscape:transform-center-y="-0.792398" />
    <path
       transform="matrix(-0.64416334,0.95591225,-0.95479579,-0.64557439,-51.650486,510.97367)"
       style="fill:none;stroke:#000000;stroke-width:0.22954746px;stroke-linecap:round;stroke-linejoin:miter;stroke-opacity:1"
       d="m -120.93474,172.92978 c 0.61162,0.22658 1.23963,0.40891 1.8775,0.54508 1.50899,0.32214 3.07321,0.38389 4.6029,0.18169"
       id="path3938-0-93-2"
       inkscape:connector-curvature="0"
       inkscape:path-effect="#path-effect3940-2-0-9"
       inkscape:original-d="m -120.93474,172.92978 c 0.6261,0.18143 1.23425,0.44061 1.8775,0.54508 1.51564,0.24615 3.06887,0.12086 4.6029,0.18169"
       sodipodi:nodetypes="cac" />
    <path
       transform="matrix(-1.0880436,0.37786014,0.3778128,1.0898423,-334.49387,145.63982)"
       style="fill:none;stroke:#000000;stroke-width:0.22954746px;stroke-linecap:round;stroke-linejoin:miter;stroke-opacity:1"
       d="m -120.93474,172.92978 c 0.61162,0.22658 1.23963,0.40891 1.8775,0.54508 1.50899,0.32214 3.07321,0.38389 4.6029,0.18169"
       id="path3938-4-9-4"
       inkscape:connector-curvature="0"
       inkscape:path-effect="#path-effect3940-4-8-3"
       inkscape:original-d="m -120.93474,172.92978 c 0.6261,0.18143 1.23425,0.44061 1.8775,0.54508 1.51564,0.24615 3.06887,0.12086 4.6029,0.18169"
       sodipodi:nodetypes="cac"
       inkscape:transform-center-x="-2.2412161"
       inkscape:transform-center-y="2.3011413" />
    <path
       transform="matrix(-0.97815069,-0.05561848,-0.0488428,0.96936486,-249.68695,117.99452)"
       style="fill:none;stroke:#000000;stroke-width:0.27132806px;stroke-linecap:round;stroke-linejoin:miter;stroke-opacity:1"
       d="m -120.93474,172.92978 c 0.61162,0.22658 1.23963,0.40891 1.8775,0.54508 1.50899,0.32214 3.07321,0.38389 4.6029,0.18169"
       id="path3938-4-1-2-37"
       inkscape:connector-curvature="0"
       inkscape:path-effect="#path-effect3940-4-5-73-1"
       inkscape:original-d="m -120.93474,172.92978 c 0.6261,0.18143 1.23425,0.44061 1.8775,0.54508 1.51564,0.24615 3.06887,0.12086 4.6029,0.18169"
       sodipodi:nodetypes="cac"
       inkscape:transform-center-x="-1.0134823"
       inkscape:transform-center-y="2.534509" />
    <path
       transform="matrix(-0.94601403,-0.25552155,-0.24650195,0.9385853,-213.406,101.36435)"
       style="fill:none;stroke:#000000;stroke-width:0.27132806px;stroke-linecap:round;stroke-linejoin:miter;stroke-opacity:1"
       d="m -120.93474,172.92978 c 0.61162,0.22658 1.23963,0.40891 1.8775,0.54508 1.50899,0.32214 3.07321,0.38389 4.6029,0.18169"
       id="path3938-4-1-0-7-81"
       inkscape:connector-curvature="0"
       inkscape:path-effect="#path-effect3940-4-5-7-8-4"
       inkscape:original-d="m -120.93474,172.92978 c 0.6261,0.18143 1.23425,0.44061 1.8775,0.54508 1.51564,0.24615 3.06887,0.12086 4.6029,0.18169"
       sodipodi:nodetypes="cac"
       inkscape:transform-center-x="-0.49622988"
       inkscape:transform-center-y="2.6885819" />
    <path
       transform="matrix(-0.85964903,-0.35799578,-0.34205775,0.82364146,-188.97616,110.41026)"
       style="fill:none;stroke:#000000;stroke-width:0.29033089px;stroke-linecap:round;stroke-linejoin:miter;stroke-opacity:1"
       d="m -120.93474,172.92978 c 0.61162,0.22658 1.23963,0.40891 1.8775,0.54508 1.50899,0.32214 3.07321,0.38389 4.6029,0.18169"
       id="path3938-4-1-0-5-6-1"
       inkscape:connector-curvature="0"
       inkscape:path-effect="#path-effect3940-4-5-7-2-5-5"
       inkscape:original-d="m -120.93474,172.92978 c 0.6261,0.18143 1.23425,0.44061 1.8775,0.54508 1.51564,0.24615 3.06887,0.12086 4.6029,0.18169"
       sodipodi:nodetypes="cac"
       inkscape:transform-center-x="-0.23584858"
       inkscape:transform-center-y="2.5922566" />
    <path
       transform="matrix(-0.4603895,-0.31346389,-0.27422782,0.38537925,-156.2648,192.65934)"
       style="fill:none;stroke:#000000;stroke-width:0.51554537px;stroke-linecap:round;stroke-linejoin:miter;stroke-opacity:1"
       d="m -120.93474,172.92978 c 0.61162,0.22658 1.23963,0.40891 1.8775,0.54508 1.50899,0.32214 3.07321,0.38389 4.6029,0.18169"
       id="path3938-4-1-0-0-74-8"
       inkscape:connector-curvature="0"
       inkscape:path-effect="#path-effect3940-4-5-7-1-99-8"
       inkscape:original-d="m -120.93474,172.92978 c 0.6261,0.18143 1.23425,0.44061 1.8775,0.54508 1.51564,0.24615 3.06887,0.12086 4.6029,0.18169"
       sodipodi:nodetypes="cac"
       inkscape:transform-center-x="0.27717964"
       inkscape:transform-center-y="1.5272426" />
    <path
       transform="matrix(-0.32066963,-0.25550144,-0.21821892,0.2684684,-152.38586,220.22153)"
       style="fill:none;stroke:#000000;stroke-width:0.70251501px;stroke-linecap:round;stroke-linejoin:miter;stroke-opacity:1"
       d="m -120.93474,172.92978 c 0.61162,0.22658 1.23963,0.40891 1.8775,0.54508 1.50899,0.32214 3.07321,0.38389 4.6029,0.18169"
       id="path3938-4-1-0-0-6-2-0"
       inkscape:connector-curvature="0"
       inkscape:path-effect="#path-effect3940-4-5-7-1-9-7-6"
       inkscape:original-d="m -120.93474,172.92978 c 0.6261,0.18143 1.23425,0.44061 1.8775,0.54508 1.51564,0.24615 3.06887,0.12086 4.6029,0.18169"
       sodipodi:nodetypes="cac"
       inkscape:transform-center-x="0.28794773"
       inkscape:transform-center-y="1.1040355" />
    <path
       style="fill:none;stroke:#000000;stroke-width:0.26039061;stroke-linecap:round;stroke-linejoin:miter;stroke-miterlimit:4;stroke-dasharray:none;stroke-opacity:1"
       d="m -104.55655,183.52908 c -1.70481,-2.56428 -3.66291,-4.96008 -5.83654,-7.14119 -2.38763,-2.39585 -5.02842,-4.52726 -7.75918,-6.5232 -0.99464,-0.72699 -2.00193,-1.43668 -3.02127,-2.12862"
       id="path3934-4-4-5"
       inkscape:connector-curvature="0"
       inkscape:path-effect="#path-effect3936-1-6-5"
       inkscape:original-d="m -104.55655,183.52908 c -1.94525,-2.38066 -3.67781,-4.95231 -5.83654,-7.14119 -2.37267,-2.4058 -5.08242,-4.46106 -7.75918,-6.5232 -0.97592,-0.75184 -2.15124,-1.46512 -3.02127,-2.12862"
       sodipodi:nodetypes="caac"
       transform="matrix(0.22386603,0.99119177,-0.99122725,0.22319733,36.809894,352.20719)" />
    <path
       style="fill:none;stroke:#000000;stroke-width:0.26039061px;stroke-linecap:round;stroke-linejoin:miter;stroke-opacity:1"
       d="m -120.93474,172.92978 c 0.61162,0.22658 1.23963,0.40891 1.8775,0.54508 1.50899,0.32214 3.07321,0.38389 4.6029,0.18169"
       id="path3938-01-3-6"
       inkscape:connector-curvature="0"
       inkscape:path-effect="#path-effect3940-66-3-1"
       inkscape:original-d="m -120.93474,172.92978 c 0.6261,0.18143 1.23425,0.44061 1.8775,0.54508 1.51564,0.24615 3.06887,0.12086 4.6029,0.18169"
       sodipodi:nodetypes="cac"
       transform="matrix(0.10654734,1.0104781,-1.0105915,0.10588736,26.595204,374.60198)" />
    <path
       transform="matrix(0.31134971,0.96734471,-0.96732042,0.31068052,41.961194,335.56131)"
       style="fill:none;stroke:#000000;stroke-width:0.26039061px;stroke-linecap:round;stroke-linejoin:miter;stroke-opacity:1"
       d="m -120.93474,172.92978 c 0.61162,0.22658 1.23963,0.40891 1.8775,0.54508 1.50899,0.32214 3.07321,0.38389 4.6029,0.18169"
       id="path3938-7-3-6-9"
       inkscape:connector-curvature="0"
       inkscape:path-effect="#path-effect3940-6-55-4-2"
       inkscape:original-d="m -120.93474,172.92978 c 0.6261,0.18143 1.23425,0.44061 1.8775,0.54508 1.51564,0.24615 3.06887,0.12086 4.6029,0.18169"
       sodipodi:nodetypes="cac"
       inkscape:transform-center-x="-3.3530696"
       inkscape:transform-center-y="0.26187405" />
    <path
       transform="matrix(0.39657425,0.93569949,-0.93561548,0.39590991,45.280234,318.16505)"
       style="fill:none;stroke:#000000;stroke-width:0.26039061px;stroke-linecap:round;stroke-linejoin:miter;stroke-opacity:1"
       d="m -120.93474,172.92978 c 0.61162,0.22658 1.23963,0.40891 1.8775,0.54508 1.50899,0.32214 3.07321,0.38389 4.6029,0.18169"
       id="path3938-7-7-45-4-7"
       inkscape:connector-curvature="0"
       inkscape:path-effect="#path-effect3940-6-0-3-5-0"
       inkscape:original-d="m -120.93474,172.92978 c 0.6261,0.18143 1.23425,0.44061 1.8775,0.54508 1.51564,0.24615 3.06887,0.12086 4.6029,0.18169"
       sodipodi:nodetypes="cac"
       inkscape:transform-center-x="-3.3483887"
       inkscape:transform-center-y="-0.097728917" />
    <path
       transform="matrix(0.47563958,0.8981467,-0.89800581,0.47498495,46.757694,301.85172)"
       style="fill:none;stroke:#000000;stroke-width:0.26039061px;stroke-linecap:round;stroke-linejoin:miter;stroke-opacity:1"
       d="m -120.93474,172.92978 c 0.61162,0.22658 1.23963,0.40891 1.8775,0.54508 1.50899,0.32214 3.07321,0.38389 4.6029,0.18169"
       id="path3938-7-1-4-3-1"
       inkscape:connector-curvature="0"
       inkscape:path-effect="#path-effect3940-6-3-3-1-6"
       inkscape:original-d="m -120.93474,172.92978 c 0.6261,0.18143 1.23425,0.44061 1.8775,0.54508 1.51564,0.24615 3.06887,0.12086 4.6029,0.18169"
       sodipodi:nodetypes="cac"
       inkscape:transform-center-x="-3.3185455"
       inkscape:transform-center-y="-0.46250998" />
    <path
       transform="matrix(0.54895303,0.85535468,-0.85515963,0.54831245,46.897974,286.09084)"
       style="fill:none;stroke:#000000;stroke-width:0.26039061px;stroke-linecap:round;stroke-linejoin:miter;stroke-opacity:1"
       d="m -120.93474,172.92978 c 0.61162,0.22658 1.23963,0.40891 1.8775,0.54508 1.50899,0.32214 3.07321,0.38389 4.6029,0.18169"
       id="path3938-7-4-3-7-6"
       inkscape:connector-curvature="0"
       inkscape:path-effect="#path-effect3940-6-5-8-5-5"
       inkscape:original-d="m -120.93474,172.92978 c 0.6261,0.18143 1.23425,0.44061 1.8775,0.54508 1.51564,0.24615 3.06887,0.12086 4.6029,0.18169"
       sodipodi:nodetypes="cac"
       inkscape:transform-center-x="-3.2660646"
       inkscape:transform-center-y="-0.76502067" />
    <path
       transform="matrix(0.4807049,0.42134036,-0.41000042,0.48526954,-39.074016,248.51512)"
       style="fill:none;stroke:#000000;stroke-width:0.41522941px;stroke-linecap:round;stroke-linejoin:miter;stroke-opacity:1"
       d="m -120.93474,172.92978 c 0.61162,0.22658 1.23963,0.40891 1.8775,0.54508 1.50899,0.32214 3.07321,0.38389 4.6029,0.18169"
       id="path3938-7-2-4-7-9"
       inkscape:connector-curvature="0"
       inkscape:path-effect="#path-effect3940-6-04-2-9-0"
       inkscape:original-d="m -120.93474,172.92978 c 0.6261,0.18143 1.23425,0.44061 1.8775,0.54508 1.51564,0.24615 3.06887,0.12086 4.6029,0.18169"
       sodipodi:nodetypes="cac"
       inkscape:transform-center-x="-1.8431146"
       inkscape:transform-center-y="-1.0351836" />
    <path
       transform="matrix(0.30836399,0.15881192,-0.13726248,0.3114797,-106.90549,249.95388)"
       style="fill:none;stroke:#000000;stroke-width:0.77072829px;stroke-linecap:round;stroke-linejoin:miter;stroke-opacity:1"
       d="m -120.93474,172.92978 c 0.61162,0.22658 1.23963,0.40891 1.8775,0.54508 1.50899,0.32214 3.07321,0.38389 4.6029,0.18169"
       id="path3938-7-2-9-0-9-1"
       inkscape:connector-curvature="0"
       inkscape:path-effect="#path-effect3940-6-04-0-6-8-9"
       inkscape:original-d="m -120.93474,172.92978 c 0.6261,0.18143 1.23425,0.44061 1.8775,0.54508 1.51564,0.24615 3.06887,0.12086 4.6029,0.18169"
       sodipodi:nodetypes="cac"
       inkscape:transform-center-x="-0.83669271"
       inkscape:transform-center-y="-0.792398" />
    <path
       transform="matrix(-0.0717119,1.0134322,-1.0136591,-0.07234191,7.8657437,404.67025)"
       style="fill:none;stroke:#000000;stroke-width:0.26039061px;stroke-linecap:round;stroke-linejoin:miter;stroke-opacity:1"
       d="m -120.93474,172.92978 c 0.61162,0.22658 1.23963,0.40891 1.8775,0.54508 1.50899,0.32214 3.07321,0.38389 4.6029,0.18169"
       id="path3938-0-93-8-7"
       inkscape:connector-curvature="0"
       inkscape:path-effect="#path-effect3940-2-0-5-9"
       inkscape:original-d="m -120.93474,172.92978 c 0.6261,0.18143 1.23425,0.44061 1.8775,0.54508 1.51564,0.24615 3.06887,0.12086 4.6029,0.18169"
       sodipodi:nodetypes="cac" />
    <path
       transform="matrix(-0.66523031,0.76763073,0.76819014,0.6655984,-369.00615,250.33777)"
       style="fill:none;stroke:#000000;stroke-width:0.26039061px;stroke-linecap:round;stroke-linejoin:miter;stroke-opacity:1"
       d="m -120.93474,172.92978 c 0.61162,0.22658 1.23963,0.40891 1.8775,0.54508 1.50899,0.32214 3.07321,0.38389 4.6029,0.18169"
       id="path3938-4-9-8-9"
       inkscape:connector-curvature="0"
       inkscape:path-effect="#path-effect3940-4-8-5-1"
       inkscape:original-d="m -120.93474,172.92978 c 0.6261,0.18143 1.23425,0.44061 1.8775,0.54508 1.51564,0.24615 3.06887,0.12086 4.6029,0.18169"
       sodipodi:nodetypes="cac"
       inkscape:transform-center-x="-2.2412161"
       inkscape:transform-center-y="2.3011413" />
    <path
       transform="matrix(-0.77195844,0.38831628,0.38914231,0.76152404,-316.36027,191.88455)"
       style="fill:none;stroke:#000000;stroke-width:0.30778506px;stroke-linecap:round;stroke-linejoin:miter;stroke-opacity:1"
       d="m -120.93474,172.92978 c 0.61162,0.22658 1.23963,0.40891 1.8775,0.54508 1.50899,0.32214 3.07321,0.38389 4.6029,0.18169"
       id="path3938-4-1-2-3-1"
       inkscape:connector-curvature="0"
       inkscape:path-effect="#path-effect3940-4-5-73-2-8"
       inkscape:original-d="m -120.93474,172.92978 c 0.6261,0.18143 1.23425,0.44061 1.8775,0.54508 1.51564,0.24615 3.06887,0.12086 4.6029,0.18169"
       sodipodi:nodetypes="cac"
       inkscape:transform-center-x="-1.0134823"
       inkscape:transform-center-y="2.534509" />
    <path
       transform="matrix(-0.83534644,0.22155724,0.22455258,0.82507558,-295.95122,163.21101)"
       style="fill:none;stroke:#000000;stroke-width:0.30778506px;stroke-linecap:round;stroke-linejoin:miter;stroke-opacity:1"
       d="m -120.93474,172.92978 c 0.61162,0.22658 1.23963,0.40891 1.8775,0.54508 1.50899,0.32214 3.07321,0.38389 4.6029,0.18169"
       id="path3938-4-1-0-7-8-2"
       inkscape:connector-curvature="0"
       inkscape:path-effect="#path-effect3940-4-5-7-8-0-9"
       inkscape:original-d="m -120.93474,172.92978 c 0.6261,0.18143 1.23425,0.44061 1.8775,0.54508 1.51564,0.24615 3.06887,0.12086 4.6029,0.18169"
       sodipodi:nodetypes="cac"
       inkscape:transform-center-x="-0.49622988"
       inkscape:transform-center-y="2.6885819" />
    <path
       transform="matrix(-0.81443049,0.10529338,0.10096116,0.77940993,-273.30257,159.35782)"
       style="fill:none;stroke:#000000;stroke-width:0.3293412px;stroke-linecap:round;stroke-linejoin:miter;stroke-opacity:1"
       d="m -120.93474,172.92978 c 0.61162,0.22658 1.23963,0.40891 1.8775,0.54508 1.50899,0.32214 3.07321,0.38389 4.6029,0.18169"
       id="path3938-4-1-0-5-6-8-3"
       inkscape:connector-curvature="0"
       inkscape:path-effect="#path-effect3940-4-5-7-2-5-6-8"
       inkscape:original-d="m -120.93474,172.92978 c 0.6261,0.18143 1.23425,0.44061 1.8775,0.54508 1.51564,0.24615 3.06887,0.12086 4.6029,0.18169"
       sodipodi:nodetypes="cac"
       inkscape:transform-center-x="-0.23584858"
       inkscape:transform-center-y="2.5922566" />
    <path
       transform="matrix(-0.48973026,-0.03654398,-0.04001544,0.41496811,-212.11992,207.7408)"
       style="fill:none;stroke:#000000;stroke-width:0.58481663px;stroke-linecap:round;stroke-linejoin:miter;stroke-opacity:1"
       d="m -120.93474,172.92978 c 0.61162,0.22658 1.23963,0.40891 1.8775,0.54508 1.50899,0.32214 3.07321,0.38389 4.6029,0.18169"
       id="path3938-4-1-0-0-74-2-6"
       inkscape:connector-curvature="0"
       inkscape:path-effect="#path-effect3940-4-5-7-1-99-3-1"
       inkscape:original-d="m -120.93474,172.92978 c 0.6261,0.18143 1.23425,0.44061 1.8775,0.54508 1.51564,0.24615 3.06887,0.12086 4.6029,0.18169"
       sodipodi:nodetypes="cac"
       inkscape:transform-center-x="0.27717964"
       inkscape:transform-center-y="1.5272426" />
    <path
       transform="matrix(-0.35745796,-0.05382775,-0.04864856,0.3010521,-197.02984,227.07353)"
       style="fill:none;stroke:#000000;stroke-width:0.79690844px;stroke-linecap:round;stroke-linejoin:miter;stroke-opacity:1"
       d="m -120.93474,172.92978 c 0.61162,0.22658 1.23963,0.40891 1.8775,0.54508 1.50899,0.32214 3.07321,0.38389 4.6029,0.18169"
       id="path3938-4-1-0-0-6-2-9-5"
       inkscape:connector-curvature="0"
       inkscape:path-effect="#path-effect3940-4-5-7-1-9-7-0-0"
       inkscape:original-d="m -120.93474,172.92978 c 0.6261,0.18143 1.23425,0.44061 1.8775,0.54508 1.51564,0.24615 3.06887,0.12086 4.6029,0.18169"
       sodipodi:nodetypes="cac"
       inkscape:transform-center-x="0.28794773"
       inkscape:transform-center-y="1.1040355" />
  </g>
</svg>
