<svg xmlns="http://www.w3.org/2000/svg" height="547" width="420"><path d="M10 50C140 0 290 0 420 50v310c0 120-110 190-205 190S10 480 10 360Z" style="fill:#0f47af;stroke:#000;stroke-width:8;stroke-linecap:round;stroke-linejoin:round;stroke-miterlimit:4;stroke-dasharray:none" transform="translate(-5 -7.745)"/><path d="M239.63 216.54c-11.745-2.263-20.289-6.193-26.942-18.073-5.529-9.874-14.215 5.942-20.763-.424-12.359-12.015-13.304-2.932-14.586 2.704l-5.663-24.892c-8.029-22.117-20.152-24.595-36.913-38.194-.004-25.918 21.155-36.48 21.812-61.853-2.742-16.143-12.517-16.304-24.749-20.74-37.098-6.107-60.478 7.742-83.474 33.606-13.397 24.995 13.065 59.639 35.865 44.023-.603 9.053 2.647 4.985 6.277 7.158-1.993 2.069-4.456 2.26-5.742 7.16-16.15 7.508-28.939 18.966-41.433 31.332-10.27 63.599-8.727 133.2-9.228 189.31 4.136 25.177 9.429 50.096 23.49 73.067 28.527 58.61 90.089 90.635 155.2 92.994l39.85-2.055c93.35-36.56 129.14-83.86 146.4-175.65 6.48-60.19-4.03-116.03-5.87-178.51-14.38-27.63-23.16-27.52-46.15-46.5 2.377-.884 4.754-2.754 7.13-9.176 42.705-17.498 34.81-43.063 5.035-65.166-42.78-13.751-84.822-10.246-96.06 25.346 2.974 20.689 11.413 26.959 26.847 31.945 3.362 15.465-14.033 31.855-31.46 49.853l-5.454 25.32z" style="fill:#fcdd09" transform="translate(-5 -7.745)"/><path style="opacity:.98000004;fill:#000;fill-rule:nonzero;stroke-miterlimit:4;stroke-opacity:0" d="M214.46 252.25h5.453v265.94h-5.453z" transform="translate(-5 -7.745)"/><path d="M102.02 270.83 99.676 396C100 475 147 518 216.796 518.87l-.23-268.21c-39.919-1.039-76.648 9.407-114.55 20.169z" style="fill:#fff" transform="translate(-5 -7.745)"/><path d="M131 263v81h-30v20h51V258l8-2v108h57v7h-57v135l-9-5 1-130h-51v26l27.889-.03.42 86.83c20.64 18.6 25.54 23.7 50.69 30.2l.484-116.61 34.816.839.7-54.23h-35v-91z" style="fill:#000" transform="translate(-5 -7.745)"/><path d="M330 270v135c0 75-50 115-115 115V250c39.918-1.039 77.096 9.237 115 20z" style="fill:#0f47af" transform="translate(-5 -7.745)"/><path style="opacity:.98000004;fill:#fcdd09;fill-rule:nonzero" d="M215 335h115v70H215z" transform="translate(-5 -7.745)"/><path d="M82.118 82.997c-.669 1.778-.703 4.19-2.307 5.034-6.096 3.946-11.901 7.718-15.52 14.052-1.054 2.077 2.862 7.643 5.453 11.326 1.708 2.037 1.975 4.435 2.727 6.711 1.277 3.672 7.292 2.34 7.97 3.775.707 3.85.577 9.41-.84 9.858l2.727 1.258.84 4.195c1.012 2.303 1.21 2.727 3.565 2.727-2.943 1.584-2.136 2.82-1.678 5.872l.839 3.985c2.184 2.043 3.48 4.405 6.501 4.405-.477 5.216 3.621 9.905 7.76 12.584 2.002 1.708 3.807 2.344 6.293 2.726 3.049-2.918 4.388-6.69 6.92-9.857 4.76-4.032.031-7.646-1.677-11.745-.696 3.378-.404 5.781-2.517 8.599-1.564.208-2.772-.096-4.194-.63.106-1.848-.616-3.051-1.469-4.614-4.576 1.072-1.772 5.591-4.404 8.6-4.401-2.12-3.413-6.273-2.307-10.697 1.375-.193 2.345.107 3.565.63.86 3.643.416 4.391 3.15 1.468-.155-1.871-1.069-3.389-1.891-5.034-1.862-1.727-3.862-3.277-5.873-4.824l-2.097-1.048-3.146.629-.21 2.097c1.562 1.987 1.678 4.29 1.678 6.712-3.966.262-4.586-3.886-5.453-6.922 2.223-1.848 4.618-1.558 7.117-2.543l-.196-1.651c-.631-1.776-.95-3.604-1.258-5.453-2.952-.302-3.985.759-3.985 3.565h-1.468c-.395-2.02-.42-4.037-.42-6.082h1.678c1.19-5.064-2.216-8.124-4.824-10.906-1.126-1.452-1.049-2.653-1.049-4.405 2.025-2.024 4.914-4.758 2.937-7.13-.335-2.916 1.253-4.255 3.146-6.293.75-1.419.818-2.474.629-3.985-2.19 6.915-9.353 6.147-10.067 10.067-1.704.837-1.477-.38-1.888-1.887l.42-3.566c5.02-2.793 7.59-5.939 10.487-10.696l-2.937 2.937c-3.433 1.68-6.776 6.856-9.857 3.775 2.836-3.652 7.96-6.141 7.76-9.858z" style="fill:#000" transform="translate(-5 -7.745)"/><path d="M116.93 88.03c2.537-2.593 1.53-5.55 0-8.39-1.185-1.128-3.315-2.273-4.614 0 1.242 4.296 1.948 11.746-3.985 11.746 4.849-3.492 2.472-10.508-.63-12.165-1.77-.647-1.798-.227-2.726 1.258.652 3.788.318 7.22-.42 10.906-.314 2.432-1.265 2.601-3.355 3.566l1.887-3.146c.252-2.996-.165-5.87-.629-8.81-2.2-2.641-4.901-2.572-6.292.21.777 2.627 2.542 4.823 3.985 7.131.184 2.478-.8 3.435-2.307 5.244.565-2.448.973-2.821-.63-4.824-1.713-2.544-2.567-5.02-5.243-5.244-3.703.03-5.731-.706-5.033-2.726 2.249-3.745 5.809-6.721 9.018-7.76 5.807-1.059 12.24-1.45 17.618-.42 4.16 1.727 7.341 4.498 7.341 8.81-1.041 2.711-1.257 4.068-3.985 4.613zM125.11 77.963l-.63 6.502c.027 4.25-.063 12.31 3.776 15.1 1.049.63 2.517 2.518 2.517 2.518-6.053-.862-12.424 1.955-14.052 4.824-3.28 6.414-1.401 12.123-.42 18.665-.183 1.806-3.371 1.94-5.453 2.517 3.588 1.745 8.735 1.731 8.81-.629-.35-7.502-4.915-12.884.209-19.715 1.64-2.343 5.298-3.596 9.018-4.404 1.602-.38 3.194-.42 4.824-.42 1.946 2.332 4.234 4.29 6.502 6.292.44-4.557 1.888-7.302 1.888-11.745-4.006.589-9.019-2.372-9.019 2.517-2.105-.37-2.294-.57-2.726-2.517 1.523-1.148 1.883-.562 3.355.42l8.403-.295c.316-3.113-.932-5.104-1.575-7.479l-5.779-.196-.42 2.307c-2.236.54-3.492-.278-5.453-1.258.156-1.518-.124-2.931-.419-4.405 4.15 3.625 7.237 3.566 11.955 3.566l-3.146-3.356c-3.937-3.99-7.968-5.662-12.165-8.809zM107.08 110.93c-5.53-4.732-12.659-6.274-16.462 0 5.84-3.744 10.293-2.202 16.462 0z" style="fill:#000;stroke-opacity:0" transform="translate(-5 -7.745)"/><path style="opacity:.98000004;fill:#000;fill-rule:nonzero;stroke-miterlimit:4;stroke-opacity:0" d="M94.915 115.97h8.009v2.225h-8.009zM122.65 112.56h5.784v1.631h-5.784z" transform="translate(-5 -7.745)"/><path style="opacity:.98000004;fill:#000;fill-rule:nonzero;stroke-miterlimit:4;stroke-opacity:0" d="M124.43 113.75h2.225v1.928h-2.225z" transform="translate(-5 -7.745)"/><path d="M120.87 136.14c-5.191-.262-9.965 1.434-13.644 3.56l2.373.89c4.33-2.61 7.736-2.522 12.903-2.522z" style="fill:#000;stroke-opacity:0" transform="translate(-5 -7.745)"/><path d="M128.88 133.77c-.59 6.582-3.704 10.972-8.898 14.682l-4.45 1.483 4.153 1.483c4.008 6.658 9.445 10.451 16.61 12.903.22-4.074 1.675-8.175 2.225-11.716.476-5.22-1.003-9.67-5.043-12.903l-2.818-2.521z" style="fill:#000" transform="translate(-5 -7.745)"/><path d="m156.31 150.23-2.076 2.966c-3.714-1.915-7.112-4.292-10.53-6.674-8.101-6.028-9.144-6.99-10.381-15.869l-2.07-2.08c3.553.141 4.41-.35 4.746-3.707-2.867-1.92-3.48-3.837-4.005-7.119 1.701 2.361 2.619 2.373 5.34 2.373.028-1.55.011-2.834-.742-4.152-4.678-1.139-4.004-3.994-4.004-8.306.869 2.794 3.267 4.15 5.339 5.488l6.822-7.564c7.094-9.739 13.055-19.874 8.75-31.886-4.09-9.645-14.677-16.203-24.174-17.352-9.39-1.703-20.04-2.16-28.326-.148-8.94 1.005-19.99 6.576-26.992 12.013-7.305 5.179-25.852 22.004-26.551 30.505-1.356 8.67.237 17.853 3.711 23.775 3.258 6.294 20.364 14.645 28.623 10.975l4.598-.593-2.521 2.52-6.229 1.484c-10.194 1.2-17.951-3.094-25.212-9.047-4.096-3.241-5.321-9.979-7.119-15.572-1.291-11.695 2.245-19.577 7.86-28.475 3.317-5.716 15.436-16.88 26.25-22.839 8.349-4.66 19.565-7.935 29.81-8.601 12.072-.892 37.16-.467 47.16 14.534l2.225 5.19c4.398 18.537-.142 23.34-12.903 38.114l-4.152 5.043.148 6.228-1.186 6.526c-1.449 4.641-1.387 7.159.593 11.27 5.464 4.068 11.949 7.907 17.203 10.976z" style="fill:#000;stroke-opacity:0" transform="translate(-5 -7.745)"/><path d="M154.24 153.13c11.285 9.345 15.332 26.586 17.203 37.588l3.56 6.53c3.355 4.049-1.003 6.986-3.56 10.678h-4.745l-14.831-44.492-39.45 10.975 1.187 5.636-5.932 2.67-.593-2.67-5.636 4.745 14.237 35.593c-2.721 5.006-2.13 11.594-7.415 14.237-5.665-.397-10.504-.071-15.72 2.077 4.529-18.353-11.883-32.922-12.16-48.644-2.48 13.82 6.816 27.126 6.228 45.38v10.679c2.087 2.703 2.99 1.724 5.932.593 4.253-4.612 8.466-4.497 14.237-3.856l5.042 12.754c7.153-3.42 14.471-6.31 21.95-8.898 11.507 2.163 17.89-1.435 28.177-2.67l2.67-4.152-1.483-2.077c-3.618-1.548-5.757-4.548-8.305-7.415-.047-3.562.16-7.12.296-10.678 3.498-3.366 7.66-5.673 11.864-8.008-2.277-1.772-4.835.698-7.118 1.78l-3.56 2.669-2.669 2.966-.593 12.16c1.857 3.27 4.195 5.976 6.822 8.603-5.5 7.272-20.341.14-26.398 3.856-5.175 2.227-12.201 3.987-17.5 1.78l-.593-4.45c10.47-24.517 5.34-20.396-6.526-50.72l6.229-2.373 10.085 26.102-6.525 4.746c-.431 11.617 4.659 4.008 10.085-2.67 4.812-2.505 15.172-7.336 16.314-3.262.72 1.554-4.918 4.793-6.526 8.008.73.998 1.434.173 2.373-.296 4.614-1.96 9.03-2.014 13.941-1.78l3.263-2.373 2.373-2.373h-10.678c.078-2.77-1.182-3.853-3.263-5.339-6.644-1.226-12.081 2.986-18.39 3.56l-10.975-32.925 30.847-7.711 16.017 39.746 2.966.89c6.54-.144 9.533-5.688 10.975-10.976l-.296-5.042c-4.14-21.741-5.464-31.54-21.653-44.492zM64.958 175.3c.951 8.645-4.85 16.466-9.492 21.949-.181 27.112-2.35 54.177-2.966 81.271 12.248 24.688 17.163 18.249 35.89 6.822-3.262 12.229-21.184 25.358-28.77 18.39-4.054-5.175-11.87-8.336-12.162-18.686-.852-29.625 2.24-59.992 3.56-89.873 5.488-6.254 6.642-15.616 13.94-19.873zM111.53 482.88c-26.72-37.27-31.447-80.14-32.038-122.8l-8.305-4.45c-2.198 42.142 11.758 97.512 40.339 127.25z" style="fill:#000" transform="translate(-5 -7.745)"/><path d="m50.127 338.14 10.381 6.525c-3.4 59.816 17.053 127.31 66.144 158.98-44.935-22.26-79.02-101.19-76.523-165.51z" style="fill:#000" transform="translate(-5 -7.745)"/><path d="m33.372 322.97 9.913 7.217c-7.465 59.446 8.346 128.17 55.166 163.12-43.319-25.26-71.95-106.33-65.079-170.33zM34.555 294.98l30.699 29.809c5.413 1.392 9.621-2.778 14.237-1.483l-12.309 13.792-32.775-28.623Z" style="fill:#000" transform="translate(-5 -7.745)"/><path d="M86.017 149.94c-10.271 5.948-33.658 15.528-36.928 25.953-14.946 36.251-11.746 85.178-12.161 123.69l-1.78 10.678c.025 71.796 24.048 141.73 64.81 181.53 36.418 28.591 87.234 39.338 123.09 40.339l.593 5.042c-52.1-1.78-82.47-12.29-122.2-37.38-48.64-40.59-65.06-84.68-69.703-148.9v-37.076c-2.578-50.66-1.114-92.999 11.568-141.19 10.122-11.123 27.97-21.864 42.712-26.992zM343.24 71.461c-10.129-5.053-13.335-5.453-24.749-5.453 4.795 1.779 9.423 3.922 14.052 6.082 1.325.82-.332 2.737-2.097 3.146-1.539.08-3.424.094-4.615-1.468-2.163-2.296-4.426-3.821-7.55-4.404-.645 3.195.334 4.856 4.195 5.453 2.088 2.272-1.045 6.63-3.146 4.404-3.024-3.695-7.257-4.013-11.955-4.404 3.398-3.505 8.3-2.94 11.745-1.259 3.915-7.888-11.715-3.68-16.15-2.936-4.69 1.302-8.365 3.121-11.745 6.502l2.529 3.418c3.92-2.32 10.894-1.52 15.508-.692.177 2.468.563 3.28-2.308 2.308-2.313-2.283-8.577-1.951-9.857-1.05-2.092 1.24-3.356 2.294-3.356-.628 3.97-2.001.024-4.561-2.586-3.216-3.194 1.637-6.752 3.823-7.271 5.733-1.272 6.933 1.868 9.713 8.389 8.18.523 2.556.631 5.164.839 7.76-4.403 2.668-5.79 4.044-1.468 7.13 2.103 4.373-2.622 5.485-4.195 6.502-1.46.494-1.678 2.098-1.678 2.098-.514 4.167-.596 5.366 2.517 7.76l-1.049 3.985c-2.005 4.856-5.611 8.697-8.809 12.794l-2.726 3.565c-5.14-1.374-7.27 4.205-10.277 7.76l-5.453 6.922-3.146 4.824-4.615 5.453-.42 5.872-.209 7.97-2.726 7.131-1.469 2.937v7.34l5.034-6.501 3.146-5.663.42-4.195 9.647-.42 29.782 6.502c1.657 16.69-.339 33.896-7.55 49.078l-3.566-15.73-3.146-12.165-1.468-9.018c-2.996-2.507-7.66-.869-11.326-.63-1.17 6.106 4.255 7.74 7.97 9.648 3.66 7.49 3.219 16.79 4.404 23.91h-2.517c-2.97-7.78-5.147-11.005-13.843-13.423.854 7.349-.007 13.45-3.355 19.925-8.535-4.163-12.077-10.907-20.974-13.213h-3.566l5.034 2.307c3.809 6.29 10.644 10.133 16.359 14.681.599 2.808.88 2.727 3.565 2.727 3.45-3.843 5.586-8.745 8.18-13.213 2.35 4.697 4.748 8.194 9.019 11.326l-.21-11.326h1.258c3.08.175 2.307 7.337 2.307 9.858 2.73 2.449 5.607 3.43 9.019 4.404 2.683-2.161 2.627-5.83 3.356-9.019 3.839-13.557 1.328-29.055 6.082-42.366l3.985 1.05c3.094 6.226 6.87 11.893 11.326 17.197-1.846 11.522-7.974 19.565-13.843 28.734-.462 4.231.053 6.292 4.404 6.292l15.94-32.719c9.601-11.195 23.1-7.778 34.606-1.468 2.177 1.953 16.501-.258 20.554-5.663-7.123-.416-17.535 2.568-20.974 1.049-13.613-6.255-26.108-11.655-34.606-.84-6.184-2.14-9.401-8.748-13.843-13.422l44.254-15.52c3.828-1.473 9.276 19.699 16.57 23.28 4.702 2.211 7.3.93 11.325 0 .245-4.441-.512-8.818-1.048-13.212 5.076-1.862 9.64-4.597 14.262-7.34v-5.873l-16.78 7.55-5.033 2.307c2.445 4.229 4.541 9.269 2.936 12.794-6.885-2.517-11.287-15.02-15.73-22.65-1.801-3.252-5.959-3.628-9.018-2.518l-45.303 18.457h-3.985l.63-5.872 1.677-3.356-42.157-13.423.42-2.517 3.145-5.033 16.36-18.037c3.494-7.244 9.913-12.927 16.778-16.36-3.233-3.081-3-6.948-3.565-11.325l-2.097 2.726c-1.689-.835-1.926-1.43-2.308-3.146 1.013-2.961 3.092-4.77 5.244-6.921-.331-4.828-1.62-7.576 1.678-10.906-.3-5.407 4.903-10.28 7.13-10.906 7.738.068 15.138-1.37 22.652-2.936 9.817.427 7.907-1.059 15.52-5.034 2.789-4.253 4.817-7.7 1.678-9.438z" style="fill:#000" transform="translate(-5 -7.745)"/><path d="M301.61 95.895c4.744.287 10.202 2.844 10.382 5.663.9 6.607-4.984 11.382-8.284 17.513-1.361 2.885.988 2.327 3.25 6.921l-4.614.42c2.912 2.682 7.053 2.722 10.801 3.04 9.636 3.136 13.128 9.145 12.374 18.563-.97 4.206-.564 5.772-4.719 6.187-1.804-7.051.44-16.162-7.55-17.303-2.822.611-4.33-2.43-2.415.355l2.52 1.113c3.864 1.743 5.775 15.264 5.243 19.191-1.685 1.946-2.657 1.76-4.3 0-1.31-6.415.08-14.343-6.606-17.408-4.513 2.533-6.19 9.249-8.285 12.584-5.247 5.112-5.832-.485-4.195-4.509 6.438-9.54 7.839-9.03 3.042-16.569 2.528 7.549-.844 11.018-5.349 16.464-3.75 6.031-2.258 14.889-8.494 14.681-2.248-10.194 5.424-18.799 7.026-25.483-4.283 2.914-6.32 7.248-7.13 12.374-1.768 1.58-2.023 1.773-3.986.734l-.21-5.977-1.782 1.782c-.154 12.38 3.192 16.425-4.405 25.483 0 0 6.607-1.363 7.026-1.573 6.388-3.651 13.313-6.81 18.352-12.27 1.763-1.495 2.505-1.937 4.615-1.468.423 4.164.943 8.295.943 12.48-1.795 2.523-1.768 3.259.21 5.452 5.174 1.76 5.062 7.39 5.663 11.745l48.763-17.408c2.563-.236 3.25 3.182 4.51 5.349l8.808 15.416 3.67-1.678-8.494-17.723c-3.694-5.2-8.167-6.561-14.262-5.244l-33.348 12.794c-3.612 1.073-7.509-1.112-6.292-3.88l21.393-25.063.84-5.558c6.625-.93 5.817-4.25 5.452-9.543 2.331-.151 4.152-.708 6.083-1.887l.943-2.098c-.272-7.495-6.189-13.047-9.018-18.352-1.019 9.365-.966 5.683 4.404 13.738 1.708 2.769-.095 6.208-1.887 5.768-4.652-1.67-6.405-7.029-6.292-11.011-2.164 2.058-2.925 5.089-2.937 7.55 3.475 4.395 11.89 19.506 1.154 10.906-.687-2.57-2.193-6.272-2.69-9.91-.74-3.875-.857-1.257-1.295 1.206-2.734 3.754 1.447 6.038 2.202 9.963.437 2.86-1.044 3.802-3.146 3.146-7.615-12.86-3.541-13.397-20.659-14.996-1.268-.794-1.136-1.224-1.049-2.622 2.237-.095 4.23.082 6.083-1.154-3.49.28-8.764-2.13-7.341-4.614 3.57-5.094 9.027-14.71 8.599-17.303-2.228-6.174-8.007-7.305-13.318-5.977z" style="fill:#000" transform="translate(-5 -7.745)"/><path d="m321.3 103.29 3.04-.742c4.229-.533 6.246 2.67 10.307 2.67l1.187-.89c-4.14-1.398-8.849-4.26-11.864-2.966-1.166.505-1.847 1.252-2.67 1.928zM303.21 103.81c-1.456-2.048-3.269-1.498-3.782.148-.366 1.493 2.365 1.182 3.56 1.187l.074 1.112c1.319 1.273 1.545-.814 3.114-1.038.29-2.029-1.243-1.409-2.966-1.409zM322.71 109.75c2.243.69 1.307 2.136 1.928 3.708 1.058.452 1.51.356 2.447-.149.908-1.97 3.131-1.102 4.894-1.631-2.065-.9-4.766-1.393-5.858-2.225-1.256-.64-2.197-.31-3.41.297z" style="fill:#000;stroke-opacity:0" transform="translate(-5 -7.745)"/><path d="M346.59 78.305c-1.824 5.936-3.327 10.494-6.229 15.572-.835 7.164 2.79 14.905 8.899 18.835 1.853 2.547.882 5.341.593 8.305.094 2.122.586 3.55 1.78 5.19-1.096.93-2.182 1.872-3.263 2.819l-1.038 3.856 3.707 2.966c15.24 7.979 29.757 28.392 39.153 43.453 0 .593 3.411 4.152 3.411 4.152 3.255.182 5.806.31 4.598-2.521-5.249-14.817-16.231-22.665-24.62-34.407-.114-4.114-2.385-6.092-5.042-8.602-6.955-3.818-10.312-.096-17.5-5.487 1.47-4.208 3.18-8.561 5.636-9.343 4.875-1.025 9.446-.529 14.654-3.216 42.83-30.716-1.86-65.262-34.38-72.57-12.11-2.347-23.92-1.976-35.89-.149-17.78 2.672-29.56 9.554-38.56 24.47-4.48 11.317-2.847 13.854.148 25.212 3.459 10.362 16.376 15.91 25.212 18.39l.89-2.372c-6.939-2.378-13.968-6.036-17.945-11.42-6.376-10.46-6.691-23.436-1.186-31.885 15.953-18.34 36.168-19.693 58.953-18.51 7.886.502 18.366 4.042 25.877 8.128 20.389 12.564 33.387 17.862 28.03 42.712-5.423 11.35-17.29 16.738-28.92 19.13l.89-5.931.098-2.424-2.47-2.174c-5.185-4.058-8.827-9.417-9.047-16.017 3.425 3.386 6.676 7.278 7.86 12.013l.148 4.301c2.524 1.275 3.35 3.389 4.301.297l.297-5.488-1.631-2.224c-2.583-2.139-4.642-4.738-6.822-7.267-2.054-4.256-.032-8.234 1.334-12.458 8.286 7.434 4.486 16.588 5.932 25.508 5.825-7.283.597-23.393-3.41-26.992z" style="fill:#000" transform="translate(-5 -7.745)"/><path d="m392.12 185.38 1.78 29.958c2.805 9.465 3.152 19.01 3.559 28.771l-.593 25.212c-4.72-.605-11.017-20.531-13.347-25.805.522 21.184 7.454 41.343 13.644 61.398 1.05 9.464 2.075 16.188-4.45 22.246-8.507-16.134-10.6-39.058-14.236-57.246l-10.381-31.144c1.245 8.499 13.489 75.239 9.788 75.042l-11.568-16.907c-2.574-20.321-3.492-44.802-5.933-61.102-.965-5.363-3.427-9.228-5.339-13.644 2.711 17.27 4.214 32.535 5.34 48.941l.296 24.619c-8.403 4.239-9.32-4.594-10.975-8.602-.636-18.232-3.38-36.074-6.525-53.983 1.015 21.544 1.518 43.102 2.076 64.661.426 12.847 6.28 10.183 15.72 8.602l35.297 35c2.214 2.024 1.83 8.085 1.186 10.381-3.681 3.963-7.1 1.167-10.975 5.042 2.355 44.466-9.242 75.56-32.627 110.04-40.217 42.763-78.359 60.524-131.42 65.292l.076 4.727c55.625-1.741 108.71-36.82 138.76-67.349 25.884-35.298 33.41-61.213 40.34-103.22l1.482-37.966c.773-31.35-.43-62.687-1.186-94.025-.299-8.935-3.296-17.885-4.746-25.805l-3.56-26.992z" style="fill:#000" transform="translate(-5 -7.745)"/><path d="m350.59 323.6 8.008 5.932c-2.741 44.712 8.773 104.7-40.042 156.31 31.857-46.422 37.19-102.44 32.035-162.25z" style="fill:#000" transform="translate(-5 -7.745)"/><path d="m367.2 338.14 8.602 6.822c-2.713 64.934-10.201 127.3-73.56 159.58 68.74-47.156 62.809-105.13 64.959-166.4z" style="fill:#000" transform="translate(-5 -7.745)"/><path d="M159 78h7v15h-7v12h7v15h-7v18h9v-9h10v9h13V63c-.093 40.201 1.111 67.584 0 120h-9c-2 0-2.119 9.39 0 9h4l-.322 3.466-12.68 19.53c-15 0-15 15-2 15l15 17h19l14-17c9 1 13-14 0-15l-12.56-19.24-.44-3.76h5c3 0 4-9 0-9h-7v-5h-13 13v-124c0-5-13-5-13 0v9h-5v70-70h-8v10h-9v-10h-10z" style="fill:#fff;stroke:#000;stroke-width:3;stroke-linecap:round;stroke-linejoin:round;stroke-miterlimit:4;stroke-dasharray:none" transform="translate(-5 -7.745)"/><path d="m175 222 16-21h11l13 21-14 18h-11z" style="fill:none;stroke:#000;stroke-width:3;stroke-linecap:round;stroke-linejoin:round;stroke-miterlimit:4;stroke-dasharray:none" transform="translate(-5 -7.745)"/><path d="M199 209h-5l-10 13 8 10h6l8-10z" style="fill:none;stroke:#000;stroke-width:3;stroke-linecap:round;stroke-linejoin:round;stroke-miterlimit:4;stroke-dasharray:none" transform="translate(-5 -7.745)"/><path d="M720.76 226.17c0 1.556-1.328 2.818-2.966 2.818-1.638 0-2.966-1.262-2.966-2.818s1.328-2.818 2.966-2.818c1.638 0 2.966 1.262 2.966 2.818z" transform="translate(-553.797 -12.092)" style="opacity:.98000004;fill:#000;fill-rule:nonzero;stroke-miterlimit:4;stroke-opacity:0"/><path d="M720.76 226.17c0 1.556-1.328 2.818-2.966 2.818-1.638 0-2.966-1.262-2.966-2.818s1.328-2.818 2.966-2.818c1.638 0 2.966 1.262 2.966 2.818z" transform="translate(-501.797 -12.092)" style="opacity:.98000004;fill:#000;fill-rule:nonzero;stroke-miterlimit:4;stroke-opacity:0"/><path d="M186 196h21M186 192h20M192 183h12" style="fill:none;stroke:#000;stroke-width:3;stroke-linecap:butt;stroke-linejoin:miter;stroke-miterlimit:4;stroke-dasharray:none" transform="translate(-5 -7.745)"/><path d="m225.58 227.08-.21 11.745c.219 8.794 14.684 4.729 16.57.63 1.774-4.05 2.027-9.988-4.615-12.375zM212.78 199.19c.84-.63 10.22-2.19 10.22-2.19l3-142 9-9 9 9 2 142 13.764 1.98 1.888-.21v4.824l-1.888.42v12.794l-13.213-4.614c-7.48 4.4-14.961 2.52-22.442-.84-5.575-4.054-8.488-8.11-11.326-12.164z" style="fill:#fff;stroke:#000;stroke-width:3;stroke-linecap:round;stroke-linejoin:round;stroke-miterlimit:4;stroke-dasharray:none" transform="translate(-5 -7.745)"/><path d="m235 72 2 125c2.333.148 5.667-.339 8 1 1.56 1.176 1.137 2.437 2.39 3.916.166 3.376 1.649 10.603-.63 10.067-1.25-.018-.409-10.18-6.921-11.745l-9.648-.21c-1.774 1.026-3.88 2.215-4.404 3.986-1.749 11.904-1.172 8.75-6.502 2.936 3.11-3.048 3.775-6.533 3.775-10.696l1.049 2.307c2.64-1 5.21-2.1 8.88-1.57z" style="fill:#000" transform="translate(-5 -7.745)"/><path d="M100 270c38.333-11.346 76.667-17.533 115-20v270c-60 0-115-40-115-120ZM330 270c-38.33-11.35-76.67-17.53-115-20v270c60 0 115-40 115-120z" style="fill:none;stroke:#000;stroke-width:3;stroke-linecap:butt;stroke-linejoin:round;stroke-miterlimit:4;stroke-dasharray:none" transform="translate(-5 -7.745)"/><path d="M215 405h115M215 335h115" style="fill:none;stroke:#000;stroke-width:3;stroke-linecap:butt;stroke-linejoin:miter;stroke-miterlimit:4;stroke-dasharray:none" transform="translate(-5 -7.745)"/></svg>