<?xml version="1.0" encoding="UTF-8" standalone="no"?>
<svg
   xmlns:dc="http://purl.org/dc/elements/1.1/"
   xmlns:cc="http://creativecommons.org/ns#"
   xmlns:rdf="http://www.w3.org/1999/02/22-rdf-syntax-ns#"
   xmlns:svg="http://www.w3.org/2000/svg"
   xmlns="http://www.w3.org/2000/svg"
   version="1.1"
   id="svg4171"
   viewBox="0 0 1284.5638 1431.912"
   height="404.1174mm"
   width="362.53244mm">
  <defs
     id="defs4173" />
  <metadata
     id="metadata4176">
    <rdf:RDF>
      <cc:Work
         rdf:about="">
        <dc:format>image/svg+xml</dc:format>
        <dc:type
           rdf:resource="http://purl.org/dc/dcmitype/StillImage" />
        <dc:title></dc:title>
      </cc:Work>
    </rdf:RDF>
  </metadata>
  <g
     style="display:inline"
     transform="translate(-0.50000007,380.0499)"
     id="layer1">
    <path
       id="path4140-7"
       d="M 1.111843,-377.46396 C 13.910125,-90.874815 24.759845,138.32031 40.762525,528.01929 70.737101,720.3944 153.26922,841.1465 272.78261,929.7295 c 103.19076,76.4847 239.00094,122.1298 368.28235,121.6286 129.84507,-0.5034 264.22867,-49.299 368.92974,-125.0233 122.8708,-88.8654 201.9671,-205.9404 230.9844,-399.6933 23.1896,-302.50771 31.7848,-634.17729 43.5625,-906.1914 l -1283.5196008,0 z"
       style="display:inline;fill:#000000;stroke:#000000;stroke-width:1;stroke-linecap:round;stroke-miterlimit:4;stroke-dasharray:none" />
    <path
       id="path4140-7-0"
       d="M 62.111935,534.88607 C 79.684801,643.57 121.75709,750.8683 196.30698,833.3605 c 118.10412,132.1279 297.80876,206.7073 474.67987,196.822 137.7862,-8.911 270.86494,-67.3745 374.71875,-157.832 105.7119,-95.9589 164.4487,-229.9393 172.9778,-337.69737 22.832,-262.38376 9.9663,-607.721175 21.0046,-874.20303 l -1193.751938,0 c 14.799749,307.527645 3.146653,609.35832 16.175873,874.43597 z"
       style="display:inline;fill:#ffffff;stroke:#000000;stroke-width:1;stroke-linecap:round;stroke-miterlimit:4;stroke-dasharray:none" />
    <path
       id="path4259-0-9-2-5-6-5-0"
       d="m 404.85196,-93.095465 c -23.55568,19.39838 -52.0695,31.70922 -73.4074,21.35254 -11.47047,-3.94062 -32.03683,-17.29082 -37.80173,-8.20774 -7.59587,16.1349 10.24385,36.24471 21.49961,44.34559 11.44911,8.124 24.01032,17.17019 37.14643,21.26123 -3.56543,12.0862197 -4.48739,22.5069097 -8.8585,34.31628 -28.06971,-9.07229 -63.87063,-18.0797303 -86.81261,6.05048 -35.63853,35.4731 -37.13922,99.387165 -7.52092,139.469115 30.35446,48.32821 68.76754,58.12841 88.84061,84.00616 16.12211,8.10558 20.4938,36.95321 23.67698,37.96429 10.49928,3.33491 34.31034,-19.88643 53.86467,-37.20693 12.28422,-10.8809 20.53425,-14.12034 30.10112,-23.57559 12.77293,-12.62389 27.99636,-26.62667 38.67607,-41.9966 8.71059,-12.53599 16.11765,-23.51752 20.35004,-37.10738 7.25776,-23.30405 9.85074,-48.150135 7.7119,-73.179605 -2.70459,-28.15592 -21.95986,-51.42381 -47.55435,-60.11203 -20.53151,-6.0154903 -40.69611,-3.80509 -63.86192,-1.90817 17.70665,-54.24792 66.8874,-84.75427 114.25512,-97.29835 26.68495,-7.06679 61.00945,4.20051 81.06626,16.29972 -51.62216,54.96329 -74.21967,144.89073 -45.64163,217.570225 10.733,30.44442 28.44552,57.32641 46.58208,83.23965 -19.45205,13.15087 -43.64768,29.08245 -67.53226,38.88829 -19.78221,8.12163 -43.24477,13.42318 -61.78956,16.12228 -9.107,1.32547 -5.72507,-0.60845 -17.27652,1.20072 -7.91834,1.24016 -15.73167,7.2454 -20.31903,13.03609 -2.46395,3.11029 -7.26141,16.37802 -10.17759,22.84353 -2.55981,5.67542 -1.80206,5.08018 -3.34232,7.19646 -8.68953,11.9393 -32.24406,29.61121 -32.24406,29.61121 0,0 5.41218,6.51508 9.14082,7.65978 22.22749,6.82399 46.38856,-2.67584 69.02938,-7.74057 18.18908,-4.06887 36.08221,-8.9429 53.12053,-14.28783 25.46157,-7.98733 49.68454,-20.21755 73.27345,-33.15514 17.13765,-9.39932 37.24313,-22.2573 49.31083,-32.15426 6.79599,1.65339 23.46184,15.05797 34.2307,21.62699 14.22519,8.63977 29.70365,17.21756 42.61909,23.75418 33.49512,15.62319 46.69232,19.40805 70.34551,26.50563 17.56727,5.27141 45.50972,12.42285 53.40512,12.88156 10.81143,3.11498 12.90566,4.03096 19.55067,4.91666 7.70614,1.02714 15.71984,2.2388 23.29641,0.42536 4.64856,-1.1126 12.80596,-6.74713 12.80596,-6.74713 0,0 -10.93661,-9.4326 -15.67208,-14.93431 -5.67487,-6.59313 -10.48668,-14.00054 -15.10171,-21.46834 -4.13629,-6.69311 -7.13013,-14.12938 -11.23667,-20.84312 -3.98331,-6.51229 -6.62885,-14.91369 -12.96277,-18.79453 -14.5168,-8.89449 -32.18647,-1.72496 -49.98648,-5.75473 -15.14137,-3.42786 -47.57821,-14.70496 -64.74421,-23.16868 -8.74622,-5.99273 -39.54682,-23.99581 -34.65533,-31.71838 40.48962,-63.92401 66.20975,-136.570045 42.08713,-211.613005 -9.71811,-30.38061 -29.56583,-57.54002 -45.89261,-82.98694 61.37268,-31.53504 150.81134,-11.90461 186.22599,52.42582 5.45406,9.5024297 9.27594,21.8827997 11.92462,32.95532 -30.04001,-8.83528 -71.77996,-6.28807 -91.41778,22.86651 -32.9266,44.16708 -25.52748,113.743865 9.87563,154.886785 16.91342,23.63174 37.30522,38.26255 61.60157,52.58537 8.79959,11.86536 13.13009,23.5218 22.94703,31.9179 7.15967,6.1234 16.28591,8.21413 24.9837,12.40281 18.71929,-32.23339 37.83631,-46.10359 62.84644,-59.15933 16.74207,-12.80069 34.18861,-26.50259 48.03971,-43.25753 10.6319,-12.86067 21.3893,-26.80443 26.2284,-43.12801 7.6044,-25.65133 13.0568,-54.308285 2.7763,-80.623385 -9.8051,-16.26318 -18.1301,-31.22913 -32.354,-40.42718 -12.361,-7.99341 -27.63835,-9.82816 -42.29813,-10.40214 -12.88401,-0.50445 -20.04349,1.66022 -38.62627,2.12995 -2.23164,-9.5571303 -5.9265,-23.2844403 -6.61429,-32.08478 25.34829,-7.01253 55.13389,-28.15244 63.16351,-65.30961 1.59955,-7.40186 -19.35923,-5.51146 -28.58966,0.87816 -9.20799,6.37409 -21.88026,13.92904 -34.10792,14.41038 -19.7121,0.77597 -36.96634,-4.62557 -56.45371,-18.84406 -8.32111,-6.07128 -43.62847,-28.548055 -67.74179,-36.996255 -24.82564,-8.69778 -51.31204,-15.33359 -77.39436,-13.46104 -31.12962,2.2349 -52.55181,6.02732 -89.49448,29.12269 -33.71474,-23.40406 -73.43831,-36.62567 -112.59296,-35.66532 -43.95515,1.0781 -86.95717,15.25738 -124.52178,46.192285 z m 237.14607,62.52327 c 10.54298,12.84352 20.66515,27.3859297 27.77069,42.95499 12.8008,28.04798 18.17644,61.71506 11.88534,92.496445 -5.05734,32.0117 -20.91836,64.16034 -41.43668,87.77726 -15.44932,-20.00611 -23.91101,-36.37552 -31.08743,-56.95259 -6.58233,-18.87363 -11.07873,-39.245625 -10.40655,-59.359405 0.75716,-22.65714 7.29517,-45.18836 16.15636,-65.81467 8.11319,-17.2627703 15.25078,-28.24987 27.11827,-41.10203 z"
       style="display:inline;fill:#000000;fill-opacity:1;fill-rule:evenodd;stroke:#303030;stroke-width:2.16484618;stroke-linecap:butt;stroke-linejoin:miter;stroke-miterlimit:4;stroke-dasharray:none;stroke-opacity:1" />
    <path
       id="path4259-0-9-2-5-0-0-4-9"
       d="m 629.11715,-97.832335 c -17.3001,-10.317745 -38.95402,-21.011595 -48.97998,-24.052665 -17.82084,-5.44491 -36.13174,-7.57492 -54.34305,-6.62421 -21.16535,1.10491 -42.44549,5.94014 -62.14239,14.23994 -31.01354,13.06835 -68.3568,51.569185 -85.70172,54.921015 -16.55656,3.19949 -27.58078,2.54822 -37.69013,-0.30353 -13.30888,-3.75426 -36.20469,-12.53847 -37.58643,-9.71969 -2.05994,4.20233 9.07101,17.71618 23.10154,25.32945 17.87039,9.69685 39.71374,14.73826 39.71374,14.73826 L 348.011,33.230645 c 0,0 -59.84807,-23.8195403 -82.28816,-1.57089 -34.72559,29.80202 -37.98284,84.796875 -12.54228,122.399825 23.45674,43.08152 69.45083,56.17883 98.74905,92.87651 6.47647,8.11213 11.68267,23.7653 16.547,23.64185 6.74668,-0.17133 11.8677,-3.58799 21.38993,-13.08196 22.2953,-28.88557 33.07031,-34.24387 53.42158,-49.05822 38.62446,-33.15648 60.24089,-104.16655 46.53135,-148.106905 -7.73512,-24.79175 -32.50469,-39.8106 -63.08433,-40.63355 -15.8739,-0.42717 -47.42728,14.39327 -47.42728,14.39327 0,0 2.47258,-35.6996403 26.8125,-67.35716 18.56518,-24.14665 34.06734,-36.12816 71.9381,-53.94173 38.47584,-15.056935 74.09177,-16.747075 126.18651,8.91065 z m -0.29157,298.195715 c -0.0147,-3.29551 -14.22077,-15.92717 -19.51575,-25.25234 -9.60778,-16.92057 -17.99038,-41.05626 -21.63338,-54.643 -7.58216,-28.277985 -6.65056,-52.793505 -2.01747,-78.505145 3.53055,-19.59307 11.61695,-37.4445503 22.22688,-54.99434 10.81127,-17.88286 26.15639,-33.14876 41.43283,-45.19856 18.77202,-14.80708 40.89605,-28.12444 64.3639,-33.92063 17.16777,-4.24018 35.2549,-3.17956 52.27645,-2.09507 31.33522,1.99648 63.89474,16.08508 86.73872,38.94958 45.66447,45.7053897 43.62704,91.14899 43.62704,91.14899 0,0 -33.0983,-10.79989 -49.60935,-9.81516 -14.69999,0.87674 -38.20458,5.25126 -52.49886,36.71194 -11.79457,27.00472 -13.81358,52.290005 -7.54805,77.665425 7.11574,28.81891 36.6696,64.77401 60.37328,84.40083 24.86285,15.30541 23.52135,8.84934 38.85073,40.47468 9.52223,9.49397 24.21469,15.67859 24.21469,15.67859 0,0 9.2416,-18.93739 15.71804,-27.04952 16.55733,-20.73899 43.47001,-29.93575 60.63819,-50.12174 22.30243,-26.22272 49.64233,-54.67303 53.00253,-89.82724 1.12,-11.7186 1.6273,-25.034905 -2.2208,-36.533545 -4.3061,-12.86727 -12.6519,-24.43184 -22.3668,-33.37861 -7.9626,-7.33294 -17.78552,-13.08519 -28.09727,-15.40042 -19.37342,-4.34979 -59.29906,3.76766 -59.29906,3.76766 l -15.78959,-55.67837 c 0,0 17.9647,-2.60498 34.94135,-10.86713 18.09988,-8.80879 35.1753,-23.6289 31.45058,-34.594 -8.26071,-0.62982 -22.14414,9.54008 -33.80613,11.89763 -10.89458,2.20239 -22.37039,4.43407 -33.21814,1.98488 -35.14607,-7.93524 -62.88024,-38.82108 -95.85179,-52.371615 -37.30282,-15.33057 -60.83354,-14.26427 -80.75708,-12.95409 -32.43987,2.13324 -63.10426,9.67574 -107.0719,40.306155 -24.3988,16.99762 -47.41728,43.62563 -59.41258,68.27557 -20.11761,41.15923 -23.45046,85.81058 -16.26129,128.273175 6.70949,39.62951 21.98674,60.51822 53.4934,106.60398 0,0 10.24789,-5.70369 14.4288,-9.84384 3.75034,-3.71374 9.21748,-8.80148 9.19788,-13.09472 z M 808.9096,302.05697 c -16.57464,-2.125 -36.92699,-5.90509 -50.61351,-10.84236 -25.54367,-9.21455 -72.26362,-38.69758 -72.26362,-38.69758 l -15.81809,-0.45673 -4.13858,4.81552 15.15349,16.37255 -26.41411,-6.32039 -6.84187,6.00311 c 0,0 45.40611,30.29566 69.59305,42.42526 20.46785,10.26448 41.81198,18.68899 63.52287,25.48846 14.98186,4.6921 33.4481,7.80294 48.83413,10.76502 0,0 -11.47779,-15.02818 -15.11747,-23.77465 -3.3657,-8.08808 -4.45764,-15.80957 -5.89629,-25.77821 z m 36.00641,50.20282 c 4.4948,3.36153 10.10506,4.84694 15.49382,6.00289 4.16009,0.89236 12.71719,0.65949 12.71719,0.65949 0,0 -14.35709,-15.72885 -20.60583,-24.41105 -4.98434,-6.92538 -8.86894,-14.6703 -13.37822,-21.9536 -3.01162,-4.8643 -10.6982,-9.68936 -15.05484,-6.31013 -4.93384,3.82689 1.81076,18.3896 5.57009,26.5193 3.50706,7.58418 8.75259,14.62809 15.25779,19.49312 z M 451.74777,300.92647 c -3.63078,-2.00594 -9.00669,2.37504 -12.24673,5.60739 -4.44213,4.43157 -5.48118,11.56246 -8.27283,17.31596 -2.72167,5.60927 -4.79831,11.64759 -8.26423,16.7731 -3.96103,5.85778 -14.08648,15.62988 -14.08648,15.62988 0,0 16.03284,0.0714 26.28598,-8.47049 8.26056,-6.8818 14.20233,-13.66802 17.12082,-22.91205 2.38979,-7.56941 2.65569,-22.18013 -0.53653,-23.94379 z m 2.56836,43.8195 c 0,0 24.24047,-3.34962 28.92056,-4.7252 26.95951,-7.92393 48.60731,-13.39562 71.11762,-24.83394 34.27337,-17.41553 69.12664,-36.94 95.6609,-65.81899 16.51954,-17.9793 33.97079,-37.88333 46.96758,-60.42559 11.21429,-19.45059 27.21024,-66.82885 28.8165,-102.418955 1.57208,-34.83225 -1.02324,-49.48384 -14.19818,-85.3932803 -8.11817,-22.1267497 -17.63473,-34.5975597 -35.96323,-60.1390197 l -25.93915,19.37562 c 23.82639,27.09541 36.67734,58.40014 42.93944,90.83165 4.22718,33.33419 1.55337,60.687365 -14.54441,102.099165 -9.75575,25.09684 -30.75459,52.34528 -52.56409,71.97848 -28.48331,25.64105 -63.83152,41.97463 -98.56699,56.52571 -19.23866,8.05929 -44.24545,11.13873 -64.07025,16.79965 0,0 1.83998,14.0563 0.73795,20.94367 -1.4235,8.89667 -9.31425,25.20103 -9.31425,25.20103 z"
       style="display:inline;fill:#078930;fill-opacity:1;fill-rule:evenodd;stroke:#078930;stroke-width:4.32969236;stroke-linecap:butt;stroke-linejoin:miter;stroke-miterlimit:4;stroke-dasharray:none;stroke-opacity:1" />
    <path
       id="path4336-1"
       d="m 406.0298,182.17563 c 0,0 9.19246,3.87038 12.99985,7.09971 3.91405,3.31979 9.65702,12.22728 9.65702,12.22728"
       style="display:inline;fill:none;fill-rule:evenodd;stroke:#000000;stroke-width:7.57696104;stroke-linecap:round;stroke-linejoin:round;stroke-miterlimit:4;stroke-dasharray:none;stroke-opacity:1" />
    <path
       id="path4338-6"
       d="m 415.50938,155.07187 c 0,0 13.37394,3.86627 19.12009,7.77679 4.94983,3.36858 12.61187,13.09278 12.61187,13.09278"
       style="display:inline;fill:none;fill-rule:evenodd;stroke:#000000;stroke-width:7.57696104;stroke-linecap:round;stroke-linejoin:round;stroke-miterlimit:4;stroke-dasharray:none;stroke-opacity:1" />
    <path
       id="path4340-8"
       d="m 424.54011,128.92782 c 0,0 18.48699,3.85061 26.80345,8.28301 5.10896,2.72292 13.6818,10.97932 13.6818,10.97932"
       style="display:inline;fill:none;fill-rule:evenodd;stroke:#000000;stroke-width:7.57696104;stroke-linecap:round;stroke-linejoin:round;stroke-miterlimit:4;stroke-dasharray:none;stroke-opacity:1" />
    <path
       id="path4342-2"
       d="m 428.89195,102.10671 c 0,0 22.07513,1.1584 32.10863,5.522 5.55611,2.41638 14.69248,11.06469 14.69248,11.06469"
       style="display:inline;fill:none;fill-rule:evenodd;stroke:#000000;stroke-width:7.57696104;stroke-linecap:round;stroke-linejoin:round;stroke-miterlimit:4;stroke-dasharray:none;stroke-opacity:1" />
    <path
       id="path4344-2"
       d="m 423.69203,74.402495 c 0,0 21.71742,-2.6288 32.10862,0.0942 7.26145,1.90287 19.89077,11.02642 19.89077,11.02642"
       style="display:inline;fill:none;fill-rule:evenodd;stroke:#000000;stroke-width:7.57696104;stroke-linecap:round;stroke-linejoin:round;stroke-miterlimit:4;stroke-dasharray:none;stroke-opacity:1" />
    <path
       id="path4350-5"
       d="m 417.43386,48.382675 c 0,0 21.2265,-3.37748 31.68114,-1.69647 8.01813,1.28925 22.84586,8.88137 22.84586,8.88137"
       style="display:inline;fill:none;fill-rule:evenodd;stroke:#000000;stroke-width:7.57696104;stroke-linecap:round;stroke-linejoin:round;stroke-miterlimit:4;stroke-dasharray:none;stroke-opacity:1" />
    <path
       id="path4478-4"
       d="m 359.8748,47.446575 c 9.40567,18.89133 12.53123,33.7054 15.97023,51.30547 4.12463,21.109035 5.23364,42.814325 5.44116,64.340145 0.13928,14.4471 -1.5952,28.85387 -2.81866,43.24734 -0.72746,8.55807 -0.91481,17.2274 -2.68789,25.624 -0.60395,2.86003 -2.70729,5.4101 -2.68788,8.33608 0.0168,2.51159 -0.0494,6.99642 2.40192,7.12283 4.64783,0.23971 4.56911,-8.39204 5.85786,-12.96789 2.86071,-10.15712 2.69368,-20.96084 3.96247,-31.45134 1.40832,-11.64401 3.47879,-23.23534 4.05165,-34.95352 0.64597,-13.21423 0.51074,-26.51335 -0.70199,-39.68577 -1.34972,-14.6601 -3.59244,-29.310385 -7.29372,-43.539935 -2.0994,-8.07112 -4.81742,-16.03234 -8.40793,-23.53294 -2.61644,-5.46576 -3.80694,-10.38984 -9.48533,-15.46534 -1.214,-1.08511 -4.44852,-0.0797 -3.60189,1.62087 z"
       style="display:inline;fill:#000000;fill-opacity:1;fill-rule:evenodd;stroke:#000000;stroke-width:2.1276958px;stroke-linecap:butt;stroke-linejoin:miter;stroke-opacity:1" />
    <path
       id="path4336-0-2"
       d="m 931.06392,197.44528 c 0,0 9.197,4.03327 12.97706,7.34789 3.93972,3.45461 9.64011,12.65468 9.64011,12.65468"
       style="display:inline;fill:none;fill-rule:evenodd;stroke:#000000;stroke-width:7.57696104;stroke-linecap:round;stroke-linejoin:round;stroke-miterlimit:4;stroke-dasharray:none;stroke-opacity:1" />
    <path
       id="path4338-9-0"
       d="m 946.03925,173.69176 c 0,0 14.27823,3.22567 20.16836,7.47427 4.84981,3.49819 11.50799,14.1248 11.50799,14.1248"
       style="display:inline;fill:none;fill-rule:evenodd;stroke:#000000;stroke-width:7.57696104;stroke-linecap:round;stroke-linejoin:round;stroke-miterlimit:4;stroke-dasharray:none;stroke-opacity:1" />
    <path
       id="path4340-2-4"
       d="m 959.25569,146.63385 c 0,0 18.22519,2.45321 26.21559,6.84939 5.56439,3.06143 14.1987,13.08626 14.1987,13.08626"
       style="display:inline;fill:none;fill-rule:evenodd;stroke:#000000;stroke-width:7.57696104;stroke-linecap:round;stroke-linejoin:round;stroke-miterlimit:4;stroke-dasharray:none;stroke-opacity:1" />
    <path
       id="path4342-9-9"
       d="m 970.50589,120.02399 c 0,0 22.03643,1.19889 32.05241,5.71504 5.5463,2.50083 14.6667,11.45143 14.6667,11.45143"
       style="display:inline;fill:none;fill-rule:evenodd;stroke:#000000;stroke-width:7.57696104;stroke-linecap:round;stroke-linejoin:round;stroke-miterlimit:4;stroke-dasharray:none;stroke-opacity:1" />
    <path
       id="path4344-5-6"
       d="m 971.68018,91.925805 c 0,0 21.30291,-1.44119 31.47422,1.32539 8.2019,2.2309 22.7387,12.019435 22.7387,12.019435"
       style="display:inline;fill:none;fill-rule:evenodd;stroke:#000000;stroke-width:7.57696104;stroke-linecap:round;stroke-linejoin:round;stroke-miterlimit:4;stroke-dasharray:none;stroke-opacity:1" />
    <path
       id="path4350-8-6"
       d="m 962.72853,63.689445 c 0,0 20.03778,-4.22502 30.00296,-2.90456 7.96211,1.05505 22.70001,8.50513 22.70001,8.50513"
       style="display:inline;fill:none;fill-rule:evenodd;stroke:#000000;stroke-width:7.57696104;stroke-linecap:round;stroke-linejoin:round;stroke-miterlimit:4;stroke-dasharray:none;stroke-opacity:1" />
    <path
       id="path4478-3-8"
       d="m 922.03881,49.626635 c -9.40751,18.56242 -12.72307,33.08161 -15.97336,50.412225 -3.89182,20.75138 -3.73009,42.10545 -4.05104,63.21998 -0.21541,14.1712 -0.2627,28.42377 1.42804,42.49435 1.01161,8.41862 3.92079,16.51527 5.19251,24.89818 0.68,4.48222 2.24814,9.10734 1.29723,13.53945 -0.49642,2.31394 -1.17084,6.38051 -3.51531,6.15972 -5.93088,-0.55856 -4.29109,-11.19472 -5.85903,-16.9718 -2.75134,-10.13741 -4.45094,-18.95056 -6.18912,-30.90378 -1.73816,-11.9532 -3.45003,-28.53131 -3.72819,-40.7858 -0.27816,-12.2545 0.25768,-19.92518 1.49085,-32.55398 1.23311,-12.62878 3.22012,-32.092885 6.46043,-43.061615 3.24029,-10.96869 6.40976,-15.47609 10.3572,-22.84348 2.82107,-5.26516 3.80769,-10.20895 9.4872,-15.19608 1.21424,-1.06624 4.44937,-0.078 3.60259,1.59263 z"
       style="display:inline;fill:#000000;fill-opacity:1;fill-rule:evenodd;stroke:#000000;stroke-width:2.10929847px;stroke-linecap:butt;stroke-linejoin:miter;stroke-opacity:1" />
    <path
       id="rect4976"
       d="m 578.95386,377.39409 21.13311,184.79089 -184.7909,-21.13311 0,128.47233 184.7909,-21.1332 -21.13311,184.7909 128.47222,0 -21.13311,-184.7909 184.7909,21.1332 0,-128.47233 -186.7121,21.13311 23.05431,-184.79089 z"
       style="display:inline;fill:#da121a;fill-opacity:1;stroke:#000000;stroke-width:10.56655598;stroke-linecap:round;stroke-linejoin:miter;stroke-miterlimit:4;stroke-dasharray:none;stroke-opacity:1" />
    <path
       id="path4140-7-0-6-5"
       d="m 138.87753,-229.74854 c 9.98291,261.530355 0.6248,523.85272 23.15129,784.80576 26.36321,133.39488 117.00669,253.62508 240.73138,315.21918 135.38136,71.2789 304.77292,77.9877 443.91232,13.122 96.52551,-42.6301 181.89558,-114.0341 232.08118,-206.4011 40.8709,-75.25174 54.4011,-161.50218 55.2713,-245.79483 10.8526,-224.0676 11.2276,-448.444705 16.3243,-672.68002 -337.31171,0 -674.62341,0 -1011.93511,0 0.15444,3.90967 0.30889,7.81934 0.46334,11.72901 z"
       style="display:inline;fill:none;stroke:#000000;stroke-width:20;stroke-linecap:round;stroke-linejoin:round;stroke-miterlimit:4;stroke-dasharray:none" />
    <path
       id="path5132-9"
       d="m 453.69864,-240.19098 c -0.14679,34.63124 -38.54985,33.90509 -86.1035,33.90509 -47.55363,0 -86.57941,-1.68635 -86.10348,-33.90509 0.47594,-32.21874 38.54985,-33.90508 86.10348,-33.90508 47.55365,0 86.25027,-0.72616 86.1035,33.90508 z"
       style="display:inline;fill:#ffffff;fill-opacity:1;stroke:#000000;stroke-width:20;stroke-linecap:round;stroke-linejoin:round;stroke-miterlimit:4;stroke-dasharray:none;stroke-opacity:1" />
    <path
       id="path5132-4-6"
       d="m 731.65725,-240.19098 c -0.14678,34.63124 -38.54984,33.90509 -86.10349,33.90509 -47.55364,0 -86.57941,-1.68635 -86.10348,-33.90509 0.47594,-32.21874 38.54984,-33.90508 86.10348,-33.90508 47.55365,0 86.25027,-0.72616 86.10349,33.90508 z"
       style="display:inline;fill:#ffffff;fill-opacity:1;stroke:#000000;stroke-width:20;stroke-linecap:round;stroke-linejoin:round;stroke-miterlimit:4;stroke-dasharray:none;stroke-opacity:1" />
    <path
       id="path5132-4-5-4"
       d="m 1009.6159,-240.19098 c -0.1468,34.63124 -38.54988,33.90509 -86.10353,33.90509 -47.55364,0 -86.57941,-1.68635 -86.10348,-33.90509 0.47594,-32.21874 38.54984,-33.90508 86.10348,-33.90508 47.55365,0 86.25033,-0.72616 86.10353,33.90508 z"
       style="display:inline;fill:#ffffff;fill-opacity:1;stroke:#000000;stroke-width:20;stroke-linecap:round;stroke-linejoin:round;stroke-miterlimit:4;stroke-dasharray:none;stroke-opacity:1" />
    <path
       id="path5132-7-44"
       d="m 142.5793,-104.98603 c -35.2646,-0.14416 -34.52517,-37.85748 -34.52517,-84.55706 0,-46.69956 1.71719,-85.02442 34.52517,-84.55704 32.80797,0.46739 34.52516,37.85748 34.52516,84.55704 0,46.69958 0.73944,84.7012 -34.52516,84.55706 z"
       style="display:inline;fill:#ffffff;fill-opacity:1;stroke:#000000;stroke-width:20;stroke-linecap:round;stroke-linejoin:round;stroke-miterlimit:4;stroke-dasharray:none;stroke-opacity:1" />
    <path
       id="path5132-7-4-7"
       d="m 1148.5248,-104.98603 c -35.2646,-0.14416 -34.5252,-37.85748 -34.5252,-84.55706 0,-46.69956 1.7172,-85.02442 34.5252,-84.55704 32.808,0.46739 34.5251,37.85748 34.5251,84.55704 0,46.69958 0.7395,84.7012 -34.5251,84.55706 z"
       style="display:inline;fill:#ffffff;fill-opacity:1;stroke:#000000;stroke-width:20;stroke-linecap:round;stroke-linejoin:round;stroke-miterlimit:4;stroke-dasharray:none;stroke-opacity:1" />
    <path
       id="path5132-7-49-42"
       d="m 148.38325,194.95995 c -35.26042,0.5522 -35.2933,-37.16811 -36.24945,-83.85824 -0.95615,-46.690105 -0.024,-85.041135 32.78693,-85.221655 32.81091,-0.18052 35.29329,37.1681 36.24944,83.858225 0.95614,46.69012 2.4735,84.66947 -32.78692,85.22167 z"
       style="display:inline;fill:#ffffff;fill-opacity:1;stroke:#000000;stroke-width:20;stroke-linecap:round;stroke-linejoin:round;stroke-miterlimit:4;stroke-dasharray:none;stroke-opacity:1" />
    <path
       id="path5132-7-49-4-60"
       d="m 1141.4401,194.93326 c -35.2507,-0.98757 -33.5761,-38.67203 -32.4179,-85.35775 1.1582,-46.685705 3.8254,-84.958125 36.6121,-83.706175 32.7866,1.25196 33.5759,38.67203 32.4177,85.357735 -1.1581,46.68572 -1.3614,84.69376 -36.6119,83.70619 z"
       style="display:inline;fill:#ffffff;fill-opacity:1;stroke:#000000;stroke-width:20;stroke-linecap:round;stroke-linejoin:round;stroke-miterlimit:4;stroke-dasharray:none;stroke-opacity:1" />
    <path
       id="path5132-7-49-2-5"
       d="m 155.88995,470.87973 c -35.25468,0.83393 -35.60009,-36.88486 -36.94306,-83.56581 -1.34297,-46.68092 -0.72865,-85.03813 32.07973,-85.48083 32.80832,-0.44269 35.60008,36.88486 36.94306,83.5658 1.34296,46.68093 3.17496,84.6469 -32.07973,85.48084 z"
       style="display:inline;fill:#ffffff;fill-opacity:1;stroke:#000000;stroke-width:20;stroke-linecap:round;stroke-linejoin:round;stroke-miterlimit:4;stroke-dasharray:none;stroke-opacity:1" />
    <path
       id="path5132-7-49-4-6-2"
       d="m 1135.3311,470.89929 c -35.2506,-0.98756 -33.5761,-38.67203 -32.4179,-85.35775 1.1583,-46.6857 3.8254,-84.95812 36.6121,-83.70618 32.7866,1.25196 33.5759,38.67203 32.4177,85.35775 -1.1581,46.68571 -1.3613,84.69375 -36.6119,83.70618 z"
       style="display:inline;fill:#ffffff;fill-opacity:1;stroke:#000000;stroke-width:20;stroke-linecap:round;stroke-linejoin:round;stroke-miterlimit:4;stroke-dasharray:none;stroke-opacity:1" />
    <path
       id="path5132-7-49-2-8-7"
       d="m 252.4964,751.6539 c -31.40582,15.7523 -48.3585,-18.0953 -70.16434,-59.5957 -21.80587,-41.5004 -38.17525,-76.33178 -8.80163,-90.69047 29.37364,-14.35858 48.35853,18.09545 70.16436,59.59587 21.80585,41.5004 40.2074,74.9381 8.80161,90.6903 z"
       style="display:inline;fill:#ffffff;fill-opacity:1;stroke:#000000;stroke-width:20;stroke-linecap:round;stroke-linejoin:round;stroke-miterlimit:4;stroke-dasharray:none;stroke-opacity:1" />
    <path
       id="path5132-7-49-2-8-4-2"
       d="m 1030.7194,751.6539 c 31.4058,15.7523 48.3585,-18.0953 70.1643,-59.5957 21.8059,-41.5004 38.1752,-76.33178 8.8016,-90.69047 -29.3736,-14.35858 -48.3585,18.09545 -70.1643,59.59587 -21.8059,41.5004 -40.20751,74.9381 -8.8016,90.6903 z"
       style="display:inline;fill:#ffffff;fill-opacity:1;stroke:#000000;stroke-width:20;stroke-linecap:round;stroke-linejoin:round;stroke-miterlimit:4;stroke-dasharray:none;stroke-opacity:1" />
    <path
       id="path5132-7-49-2-8-1-4"
       d="m 501.33641,911.721 c -14.53977,31.5509 -49.29022,15.4821 -92.69507,-3.5951 -43.4049,-19.0772 -78.32441,-36.2724 -64.48775,-65.4893 13.83679,-29.2168 49.29038,-15.482 92.6952,3.5952 43.40484,19.077 79.02742,33.9382 64.48762,65.4892 z"
       style="display:inline;fill:#ffffff;fill-opacity:1;stroke:#000000;stroke-width:20;stroke-linecap:round;stroke-linejoin:round;stroke-miterlimit:4;stroke-dasharray:none;stroke-opacity:1" />
    <path
       id="path5132-7-49-2-8-1-8-9"
       d="m 778.21538,911.721 c 14.53977,31.5509 49.29023,15.4821 92.69507,-3.5951 43.40491,-19.0772 78.32441,-36.2724 64.48776,-65.4893 -13.83679,-29.2168 -49.29038,-15.482 -92.69521,3.5952 -43.40483,19.077 -79.02742,33.9382 -64.48762,65.4892 z"
       style="display:inline;fill:#ffffff;fill-opacity:1;stroke:#000000;stroke-width:20;stroke-linecap:round;stroke-linejoin:round;stroke-miterlimit:4;stroke-dasharray:none;stroke-opacity:1" />
    <path
       id="path5303-9"
       d="m 686.20538,926.0937 a 42.163696,40.667022 0 0 1 -42.16369,40.667 42.163696,40.667022 0 0 1 -42.1637,-40.667 42.163696,40.667022 0 0 1 42.1637,-40.667 42.163696,40.667022 0 0 1 42.16369,40.667 z"
       style="display:inline;fill:#ffffff;fill-opacity:1;stroke:#000000;stroke-width:20;stroke-linecap:round;stroke-linejoin:round;stroke-miterlimit:4;stroke-dasharray:none;stroke-opacity:1" />
  </g>
</svg>
