<?xml version="1.0"?>
<svg xmlns="http://www.w3.org/2000/svg" height="100%" width="100%" viewBox="0 0 1840 1980">
<path d="m30 25 82 1177a810 810 0 0 0 1616 0l82-1177z" stroke="#000" stroke-width="40" fill="#e21"/>
<g clip-rule="evenodd" fill-rule="evenodd">
<path d="m1368 1221c-54-38-93-40-115-3 4 0 7 2 12 2 34-9 69-6 103 1zm-330-19c0 38 20 68 58 89 1 6 1 11 2 16-13 13-11 22-8 30 2 0 5 0 7 1-5-22 24-46 51-71-36-31-71-67-110-65zm-58.5 73c2 0 4.1 0 6.1-1 16.4 25 30.4 50 31.4 75 11 5 28 9 58 7 2 32-10 50-31 58-6-17-12-33-28-49-9-32-22.1-61-36.5-90zm314.5 166c-8 11-19 35-35 35-12 0-58 57-46 68 11 11 25 0 34-4 8-4 25 0 30-5 10-10 37-2 44-9 8-8 8-21 16-29 10-10 26-17 10-33-7-7-14-12-23-15 0 0-31-11-30-8zm-939-1220c33.1 3.4 40.7 16.4 41.9 39.1-19.3 11-30.9 23.8-19.5 40 2.7 16 5.7 21.4 16.7 32.6 4.2 2.7 3.2 9.2-2.8 19.5-33.7 3.8-26.3-11.5-29.3-20.1-2.1-5.9-10.3-7.1-15.4-10.6 3.5-22.5-10.9-22.6-27.9-19.6 23.5-39-8-36.4-41.8-39-25.2-35-51.7-24.6-68.9 9.3-43.4 10.5-69.7 49.8-49 106.3 12.6-33.1 25.5-28.9 35.9-43.8 5.6 9.3 9.3 11 14.9 20.3 13.9 6.4 27.9 6.4 41.8 0 8.4 3.7 16.8 7.5 25.2 11.2 16.7 14 33.5 27.9 50.3 41.9-6.5 11.8-16.7 10.8-30.8-2.9-14-13.7-47.7-9.4-63.4-3.6-55.6-8.3-62.4 12.7-65.8 32.6-45.8 59.9-26 91.9 27.8 136.4-11.6-74.7 9.3-70.1 19.6-74 9.6 10.2 16 21.7 31.6-1.9 19.7 13.4 33.6 11.4 41.9 0 5.5-1.9 11.1-3.8 16.7-5.6-4.2 26.7 35.9 5.8 67-5.6-15.1 13.1-22.5 36.3-22.3 69.8-18.1 7-38.2 13.3-25.1 30.7-17.2 13.1-29.6 25.6-8.4 33.5 11.1 27.7 1.8 42.6-27.9 44.7 44.1 36.5 70.7 23.8 89.3-11.1 48.5-24.1 27.8-42.6 11.2-61.5 23.6-5.7 30.3-27.2 33.4-55.9 20 21.3 41.2 47.3 56 83.8 4.3 42.3 14.1 83 36.3 120.1 7.6 18.3 11.1 34.7 4.6 49.1 7.8 51.1 24 75.9 51.2 65.4v33.6c-28.8-4.7-57.7-9.4-86.5-14-11.4 38.8-29 64.9-53.1 78.2 39.1 17.9 66.2 34.9 67 50.3 27.2-11 53-48.1 69.3-42.6 13.9 4.7 21.4 15.7 22.6 33.2 0.7 10.4-67.3 47.4-108.6 62.4-52.3 21-82.3 0-109-28 14.4-18 7.1-30-47.4-27.8-13.9-17.3-28.5-28.8-47.5 0-60.1 6.8-95.4 34.8-86.6 97.8 30.7-31 57.5-41 75.4-3 7.5-3 17.8-3 25.2-5 9.3-4 15.8-11 25.1-14-4 15 6 19 22.3 16 44.4 1 34.4 28 8.4 39-12.1 0-24.2-1-36.3-2-37.2-10-62.5-6-61.4 30-33.3-15-53.8-5-61.5 28-10 48-17.9 95 39.1 106-9.1-30-1.7-47 22.4-50 16.8 16 29.9 8 39.1-22 41.4-12 65-22 47.8-35 14.8-1 25.9 0 40.8-2-21.3 23-54 41-41.2 65-17.6 14-53.5 22-53 49-57.8 51-14.3 90 47.5 79-20.1-8-15.4-29 0-53 42.2 23 59 16 50.2-19 16.1-12 24.6-23 28-34 4.6-5 9.3-11 13.9-17 13.6-26 31.3-46 78.2-19 5.3 5 11.8 5 19.6 3-12.7 31-2.5 47 30.7 47 15.7 21 15.6 41 8.4 62 45.6-25 79-55 53-115 0.8-23-5.7-38-27.9-34-4.8-34-25.3-48-53.1-53 26.1-11 53.1-26 79.2-37 6.5 12 12.1 28 18.6 40-10.6 24-17.1 45 5.6 56 10.2 26 20.5 52 30.7 78-14.2 33-6.8 55 22.3 67 13.1 26 26.1 52 39.1 78 4.3 39 12.5 72 47.5 68 4.9 27 27.7 47 53.1 67 6.7 22 4.1 52 46.5 44 18.5-3 31.5 25 54 37-2.3 14-5.4 28-33.5 25-20.1 9-31.3 18-33.5 28-9.3 6-18.6 13-27.9 19-26.1 0-41.9 4-47.5 14-9.3 1-18.6 2-27.9 3-24.1-7-56.3-16-57 0-14.9-8-23.1-17-38-25 5.2-22-8.8-29-41.9-20-7.4-9-14.9-18-22.3-28-9.3-9-18.7-18-28-28-11.1-18-22.3-37-33.5-55 38.4-3 71.9-12 95-37-62.5-22-105.2-96-139.7-190-25.3 89-68.3 155-139.6 187 14.7 39 51.8 35 92.2 26 8.3 15 16.7 31 25.1 47 56 110 111.4 215 296.8 235 12-7 26.5-8 40.6 3 11.1 1 21.9 2 31.3 2 35.4-3 64-16 95.8-22 14.5-3 31.6-8 47.3-17 21.7-11 45.7-30 61.7-53 25 3 36-8 33-33 12 13 34 22 67 27 5 2 13-1 17 4 10 10 23 10 40 0 6-4 14-1 20-1 46-1 83 2 124-16 46 1 65-7 56-26 38-24 75-53 108-111 13-9 24-21 26-53 17-60 22-123-14-196-12-7-6-27-6-42 9-14 19-28 28-42-265-146 2-275.9 20-83 28 7 52 20 75 33-4-34 19-63 61-89-47-20-94-56-139-137.2 25-6.8 35 9.4 52 23.2 12 9 38 14 73 10-12-16-20-33.8-25-52.7 10-13.4 14-25.2 6-33.5-41-7.9-77-30.1-101-83.8 13-44.2 43-86.7 109-125.7-6-20.6-2-44.4 20-72.6-43 4.8-67 2.6-84-2.8-37 51.6-75 91.4-117 89.4-11-80.1 26-121.9 123-112.6 5-11.6 30-36.3 61-60.6-38-9.4-63-27.8-87-47.5-11 33.4-35 50.1-72 50.3-59 19-108 41.4-138 72.2-21 21.5-56 26.9-88 36.7 1-18.6 6-46.9 25-55.8 21-10.3 27-30.4 25-55.9 27 2.4 42-5.5 31-36.3 58-55.3 38-88 16-120.1 30-6.8 32-21.6-6-59.5-16-16.8-34-47.3-72-85.7 17-11.2 15-22.4 11-33.5-29 25.8-57 7.4-86-8.4 56-51.9 147-141.3 74-121-67 18-92 6.2-133 15.1-29 6.5-55 16.3-73 33.3-14-13.5-30 8.8-47 36.3-12 2.6-20 1.5-17-11.2 8-9.3 15-18.6 23-27.9 23-23.7 39-33.4 53-39.1-23-12.31-56-15.82-112 0-48.6 3.2-70.8 27.5-81.1 61.4-11.7 21-25 31.7-41.9 19.6-43.5 0.9-44 12.3-70.3 10.3-53.6-22-100.8-41.1-111.3 6.4-3.7 18.6-2.6 36.3-8.3 55.9-13.9 20.6-18.5 40.2 41.9 53-3.7 3.8-9.4 7.5-13.1 11.2-30.7-5-59.5-16.1-90.2-69.8 39.7-21.1 10.2-49.2-45.3-79-22.9-12.3-44.5-29.3-55.3-57.9-2.1 20.5-6 37.8-11.4 54.4-25.4 77.2 4.5 124.2 75.7 102 8.1 72.2 93.5 92.1 181.5 115.4-11.7 16.2-29.5 38.6-16.7 49.4-20.6 10.3-31.1 20.5-36.4 30.8 51.4 9.1 78.1 23 50.3 47.4 26.6 4.8 43.9-1.8 47.5-25.1 14 12.6 27.4 19.8 36.3-11.2 17.8 13.7 42 14.6 72.6 2.8h22.4c20.4-1.8 43.8-0.8 64.1-2.7 42 9.8 53-34.8 62-83.9 18-18.6 51-15.4 103 19.6-11 10.1-18 21.3-6 39.1-26 13.5-53 26.6-64 53.1-11 4.6-22 9.3-33 13.9-67-5.8-95.3-0.6-92.6 14-30.6 4.5-63.1 1.8-91.7 13.4-34.3 14-66.3 16.2-114.3 10.2 4.1 30.6-13.4 47-45.4 35-32.2 21-62.3 46.7-77.2 75.6-21.4-5.9-43.5-39.2-66.2-91.2-27.8-63.6-53.8-104.9-121.9-168.7 6.5-12.8 9-24.1 12.9-78.1 12.4-3.5 17.2-17.6 6.6-36.4 13.8-22.5 12.4-40.3-22.3-47.5-26.9-63.2-80-59.2-108.9-30.7zm581.6 116.3c-3.4 0-12 2.4-14.9 3.8-1.4 0.5-3.8 3.9-3.8 5.8 0 2.9 15.3 2.9 16.7 2.9 3.4 0 38.9 4.8 30.8-3.4-6.3-6.2-10.1-3.8-18.3-6.2-2.9-1-9.1-2-10.5-2.9zm-105.1-7.7c-2.8 7.5-4 15 4.8 22.6 14.5 2.8 29.1 1.5 43.6 0.4-0.4-2.4-6.2-10.9-8.1-10.5-10.6 2.4-40.8 3.5-40.3-12.5zm-57.1-5.7-8.7 21.5 21.6 1-12.9-22.5zm23.5 75.3-0.5 26.9 8.2-1 12.4-12.5v-13.4h-20.1zm43.7 4.3c13.1-7 25.6-7 37.4 0-6.6 7.7-13.1 15.4-19.7 23-5.9-7.6-11.8-15.3-17.7-23zm59-1c3.8 0.5 7.7 1 11.5 1 3.3 0 3.8 0 4.3 2.4 0.5 1.4 1 2.9 1 4.8 0 2.4 0 5.8-1.5 7.2l-0.4 0.5c-0.5 2.4-4.4 1.9-5.8 0.5-2.9-2.9-6.2-6.8-7.7-10.1-0.5-1.5-0.9-2.9-0.9-4.3 0-1.5-0.5-2-0.5-2z"/>
<path d="m866.9 318.1-23.5 1.9 6.3 15.3 7.2 0.9 10-18.1zm62.6 6.8c0.3 1.9 2.2 2.7 3.9 2.7 1.8 0.4 3.7 0.8 5.4 0.1 1.5-0.8 2.7-2.3 2-4 0.9-1.8 5.3-0.5 6.8-0.9 3.9 3.2 6.9 4.2 11.4 5.3 1.4 0.3 2.9 0.1 2.6-1.5 0-1.4 0.2-3.2-0.7-5.5-5.3-4.4-9.4-8.1-14-12.5-0.9-0.9-3.5-1.2-4.8-1.1h-12.7c-1.8 3-0.6 11.4 0.1 17.4zm-38.6-7.6c-3.3 0.2-6.4 1.6-9.4 3-1.7 0.8-3.1 2.1-3.1 4.4v7.6s0.3 1.2 2.9 1.4c4.3 0.3 11.3-2.4 17.6-2 3.3-1.7 4.7-1.6 6.5-1.7 0-3.6-0.7-5.9 0.5-7.7 1.4-2.2 2.8-3 5.4-4.4l-0.1-1.5s-11.2-0.2-16.9 0.2c-0.2 0-3.1 0.7-3.4 0.7zm-101.2 3.6c4.8 12.4 9.8 21.4 22.1 25.7 6.9-6.8 11.7-24 12.3-30.3-9.6 2.4-22.3 5.4-34.4 4.6zm-51.9-7.1c1.2 7.7 3.6 15.7 14.4 25.9 0.3-9.6 4.9-16.9 10-24.1l-24.4-1.8zm39.5 92.2c-8.4 10.1-15.3 20.5-11.7 33.1 7.5-0.6 15-1.2 22.4-1.8-11.9-7.1-11-19.4-10.7-31.3zm53.7 6.2-9 24.2h17l-8-24.2zm56.4 3.6-7.2 15.2 14.3-0.9-7.1-14.3zm43.8-3.6-2.7 15.2 14.4-1.7-11.7-13.5zm-398.3-249.7c2.1 61.5-27 109 42.1 103.8 5 0 14.6-2.7 19.7-2.7 57.2 129.7 285.4 128.5 386.6 121.8 6.3-9.3 3.6-18.5-13.4-25.1-177.5 7.7-326.1-5.7-355.3-105.6 20.1-34-10.8-42.4-41.1-62-11.4-7.3-24.8-16.1-38.6-30.2z" fill="#eee"/>
<path d="m707.8 255.8c-1.6 4-3.5 9.5-4.5 16.6-3.3 3.3-5.7 7.2-4 12.9 2.9 8 5.4 5.4 16.4 4.9 0.8-0.7 0.9-7.7 1.1-8.8-6.2-12.7-9.2-15.2-9-25.6zm-217.4 1143c-19 66-50.5 115-100 140 19.2 11 45.4 13 89.1-7-2.3 7 1.1 17-3.7 21-8.2 6-4.7 21-3.6 32-5 28 9.3-2 32.1 18 1 3 0.4 3-0.6 5-3.6 1-11.5 0-15.1 0 4.8 14 11.2 30 27.3 44 5.7 4 7.6 10-1.5 16 0.7 5 14.5 9 36 13-6.2 25 11.1 37 40.6 48-2.4 19 10.3 24 32.3 22-5.4 12-0.1 20 9.9 26 10 5 53.4 25 44.6 10 5.8-1 12.2 0 16.9 1 1.2 8-0.2 16-17 20 11.7-1 33.5 2 33.2-15h11c-0.3 11-0.9 17 2.3 21 8.5 3 25.4-6 35.3 3 19.4 5 41.7-1 55.5-22 0.8-2 2.9-1 4.3-2-0.4 8-0.6 15-0.2 20-5.3 3-8.2 7 1.5 7 7.9 22 14.8 9 15.2-31 1.9 0 8.4 0 10.2-1 0.8 24 2.1 43 29.8 29-5.9-4 11.8-2 24.3-3-1.5-3 2.1-5 10.9-6 17-2 8.2-19 13-25 3.1-1 9.4 0 12.4 0 1.2 8 1.2 18 2.4 26 6.7 2 11-1 17.7 1-0.8-16-0.4-30-0.3-44 0.1-9-7.6 7-8.1-3 3.6 0-0.7-10 2.9-10 0 8 12.4-5 11.3 13 3.3 11 12.3 13 20.5 10 21.2-11 33.2-22 35.2-35 13 1 10-24-2-27v-7c21-5 31 12 31 39 17-6 20-15 16-29-10-14-16-29-26-43h13c5-5-7-13-14-20 2-2 0-4 2-6 17-5 24 15 27 41 5 1 4 0 9 0 7-8 4-19 11-23 3-11 0-15-5-26-2 2-4-1-6 1-1 5 1 10 0 15h-5c1-12-12-15-15-22-1-5-1-9-2-13 7-3 12-1 23 11v-26c2 1 2 2 4 2 7 21 16 36 28 47 6 3 25 6 21-8-15-8-32-40-39-57-9-14-4-16 10-7 18 35 25 24 31 14 22-26 25-51 6-74 4 0 8 1 12 2 13 17 25 35 37 52 21-5 26-10 14-16-15-11-27-26-29-44-2-12-11-20-18-31-2-6-4-14 2-12 12-3 22 15 31 47 14-16 22-42 43-49 4-2 7-5 8-9-18-14-25-29-27-48 11-3 14 7 25 36h31c0-22-7-23-12-24-1-11 2-24 1-35h10c1 34 6 49 33 31-1-14 1-38 1-52 4 1 10-8 14-7 1 16 1 46 2 61 13-1 18-16 17-27 7-6 11-16 17-22 37-18-45 83 17 59 8-5 77-83 53-32-14 17-26 35-48 47-2 10-7 21 18 13 21-2 40-7 59-6 7 1 7 5 0 11-28 12-57 17-80 17 0 32 32 54 82 74 11 9 3 12-10 9-44-15-78-34-91-59-7 25 13 43 55 57 2 0 0 3 1 4-18 0-37-3-54-16-16-25-23-3-38-5 2 19 5 64-4 63-16-12-12-45-13-64-6 5-9 8-15 13 2 12-1 54 11 65 8 7 0 18-8 13-26-21-18-53-13-78-33-7-53 5-68 30-41-7-75 40-54 37 15 17-2 30-21 44-47-3-56 48-15 51 0-6 3-14-2-18-7-4-2-14-4-21 4-5 8-3 11-4 0 9 2 17 7 23 6 6 2 17 6 25h10c-4-24 1-41 5-43 3 0 9-1 12-1-12 30-7 49 23 59 5-2 5-3 8-6-15-15-19-26-20-41 2 1 11-2 13-1 0 49 57 41 118 36 21-3 35-12 14-28-11-8-15-17-20-27-3-10 4-7 10-4 15 22 34 41 54 43 12 1 22 4 11-9-23-15-40-31-49-49-1-6 3-7 11-3 8 15 27 29 51 41 42-28 79-58 97-92 14-3-14-14-21-11-9 3-15-2-19-11 15-1 31-3 38 7 6 7 26-12 33-28-3-1-8 0-11-1 26-81 42-172-22-227-10-5-19-14-28 2 4 9-3 20-26 24-1 0-4-3-5-2 15-21 15-33 2-42-7 19-13 35-22 32-13-23 65-88-66-110-9 0-21-4-24 2-26 1-62-7-53 16 9 26 29 49 50 74 6 10-1 20-19 26v29c-9-2-18 7-26-3-8-11-38-9-57-13 0-33-6-60-36-85-3-2-13 1-16 7 11 13 31 22 28 37-3-3-8 1-11-2-22-23-53-22-57 10 34-6 61 6 61 28-50-26-80-15-84 41 9 3 19 7 29 11 3 3 3 8 0 12-42-13-68-12-66 15 23-4 43 1 62 13v12c-5 1-9 3-14 2-12-3-38-28-42 4-12 20-13 40 6 54 1 1 0 4 0 6-15-1-32-3-48-4-15.3 0-9 17 9 16 18-2 33-9 40 31-7 2-9-5-15-8-19-11-33-12-36 7-19.4 17-28.5 35 0 52 1 3 1 5 2 8h-14.6c-8.2-17-25.2-24-50.9-20 0.6 4 1.2 8 1.9 12 21.2-1 38.5 13 52.6 39-2 8-18.7-3-34.5-13-8.2-6-15.2-2-21.8 7-7.1 3-13 8-14.5 20-8.9 3-0.8 7 4 11 5.1 5 9.6 15 6.9 20-12.3 4-14.2-9-21.7-12-5.8-3-10.7-10-16.5-13-19.7-4-25.7 5-14.5 14 10.7 4 20.6 9 25.4 22l1.8 18c-4.2 2-10.6 3-14.9-1-6.1-25-12.6-27-20.4-27-3.5 0-6.8 0-10.6 2-6.5 1-11.9 5-25.8 14 1.9 1 0.1 4 1.7 5 4.6 4 4.5 10 4.4 22-22.2-3-16.5-15-16.2-28-10.8-1-25.2-4-21.8 6 3.2 8 3.8 22 13.2 27 4.7 2 0.2 9 1.9 12-19.4-4-20.7-9-18.7-17-18.7-11-39-10-60-4-1.2 5-0.6 14-1.8 20-3.7 0-6.1-1-9.8 0-7.8-11 13.8-35-22.4-32-0.6 9 0.8 27-6 25-5.4 3-7.9-2-9.1-9 0-5 4.6-10 4.6-15-10.1 1-19.6-1-22.5-5-4.7-8-14.4-5-22.3-7 3.3 6 0.5 14-8.9 21-4.1 1-5-1-5.4-3v-19c12.4-19 5.5-28-14.6-31 5.2 18 1 30-20 33 6.7-32 5.7-48-23.6-45h-9.1c5.9-13 4.1-25-5.2-41-4.6 24-6.6 35-31.4 30-1.5-11 30.1-35 11.2-37-28.1-23-36.8-64-41.9-96 24.1 15 51.3 19 85.5-4-64.3-37-93.8-84-107.3-136zm368.9 382c4.3-1 5.6-1 9.9-1 2.2 9 1.5 18-2.3 27-2.3 0-4.6 1-6.8 1 4.4-9 4.9-19-0.8-27zm25.4-5h9.5c3.5 10 4.8 21 1.2 32h-8.4c4.6-13 1.3-22-2.3-32zm19.8-10c3.3-3 3.9-1 8.7-1 2.3 3 6.2 14 3.5 31h-8.4c1-17-0.7-24-3.8-30zm58.1-33c2.4 0 4.8 0 7.2-1 5.5 9 9.9 19 7.2 31-3.9 1-4.8 1-8.7 2 4.2-14-1.7-23-5.7-32zm11.8-18c-0.3 3-0.5 6-0.8 9 10.9 4 18 13 19.8 27 1.1-2 2.3-3 3.4-5 0.5-15-8.7-24-22.4-31zm13.3-9l-0.4 4c10 4 16.7 12 25.7 27 1-3 1-5 2-7-7-17-16.4-23-27.3-24zm413.3-116c0 4 0 8 1 12 17 8 36 11 57 8v-5c-23 2-42-4-58-15zm41 35c0 3-1 6-2 10-23-1-41-8-52-22 1-1 2-3 3-4 18 11 35 16 51 16zm-57-4c-5 4-11 7-16 10 14 16 31 22 50 24l3-6c-26-8-37-17-37-28zm-31 25c3-4 5-7 8-10 5 14 20 22 39 28-21 2-37-2-47-18zm-83 24h-4c12 19 25 37 41 45-2 3-3 5-5 8-28-12-35-32-38-53h6zm-33 4c3 0 5 1 7 1 3 20 13 37 27 52h-8c-18-19-27-37-26-53zm-11 2c-4 1-8 2-12 4 0 16 6 30 22 42 3 0 5 0 8-1-13-13-19-28-18-45zm-38 6c5-1 10-1 15-1-3 13-1 26 7 38-16-8-21-21-22-37zm-74-161v5c10 3 19 15 26 33 1-2 1-4 2-7-9-18-18-30-28-31zm-9 19c-1 3-2 6-2 9 10 8 17 18 17 32h8c2-17-10-29-23-41zm67-100c-3 4-6 8-9 11 12 0 23 14 35 31 0-18-9-31-26-42zm18-31c-2 5-5 10-7 15 9 5 19 20 29 41 1-2 2-3 4-4-6-23-16-38-26-52zm91-151c-10-5-6-14 9-9 19 5 23 22 20 44-7-18-16-31-29-35zm37-18c-7-7-13 4-7 8 16 12 23 29 20 52 15-23 9-42-13-60zm43 14c-10-9-18-2-11 5 12 11 16 26 14 45 10-16 14-32-3-50zm20 14c-4-6 10-7 13 2 7 31 0 48-14 59 2-19 8-37 1-61zm80 73c3 3 5 6 8 9-4 12-11 22-27 25-3-3-7-6-11-8 15-1 25-9 30-26zm18 14c3 5 6 6 9 11-12 17-25 27-39 29 13-9 22-21 30-40zm17 27c4 5 8 10 12 16-23 22-47 32-72 29-1-1-1-3-1-5 25-4 47-15 61-40zm10 35c2 7 2 9 3 16-16 14-33 20-49 16v-5c18 0 33-8 46-27zm5 40v8c-19 11-37 16-54 12v-6c17 3 35-2 54-14zm-55 40v8c17 3 35-1 52-14 0-2-1-4-1-6-20 10-37 14-51 12zm-5 23c-1 2-1 4-2 5 15 8 32 8 52 2v-5c-18 4-34 3-50-2zm-5 20c-1 3-2 5-2 8 12 10 27 12 45 8 0-3 1-6 1-9-17 2-31-1-44-7zm-728.1-194c-12.2-17-13.3-30 2.1-39 18.9-19 37.8-31 58.3-39 13.8-5 28.3-12 50 11 3.5 3 9.3 2 12.5 2 0-11-0.6-20-0.6-31 24.5-22 18-43-2.4-59-15.7-17-12.9-40-9.4-63 6 12 17.6 13 23.3 22 17.5 28 45 44 70.3 65 15.2 3 25.7 22 31.5 53 27.4 50 54.5 99 82.5 149-1 8-2 15-3 22 1 8 1 16 2 24v23c-12 9-16 30-31 30-15.5 17-22.9 32-14.7 42 6.5 8-8 16-11.6 31-1 12-11.9 17-32.6 14-10.1 9-14.3 16-12.6 22-1.8-2-4.1 0-5.3-2-11.1-14-26-16-38.3-23-13.8-8-6.8-19 1.5-31 35.3-54 80-88 133.6-107-1-3-1-3-1-5-54.8 2-128 55-150.5 111-4.2 27-29.4 25-27.3 2 5.5-21 16-39 31.8-51 1.1 0-1.4-2-0.7-3-13.2 2-22.9 8-31.3 27-1.8 0-6.5-1-8.2-1-1.4-3-2.9-7-4.3-10-18.5-18-34-38-46.2-61-3.2-11 6.1-24 21-38 53.5-54 105.5-79 151.1-92 0.4-1 0.7-2 1.1-4-70.8 4-138.8 53-195.3 122-11.3 14-23.7 4-15.7-16 14.8-20 27.6-45 47.2-49 1.1-2 0.7-6 1.7-7-11.5-8-23.1-2-38.5 18-8 7-14.6 9-17.9-3-4.7-20-12.1-39-23.1-56zm149.4-128c0.1 3 0.2 7 0.3 10 16.6-7 32-4 47.2 0l0.3-9c-15.9-6-31.9-7-47.8-1zm0 27c0.1 4 0.2 7 0.3 11 19.7-9 40.5-10 61.7-7l-0.3-6c-20-5-40.3-7-61.7 2zm-5.9 38c0.2 2 0.4 3 0.6 5 22.2-9 46.9-14 75-13-0.1-3-0.2-5-0.3-8-24.5-7-49.4-6-75.3 16zm7.4 30c0.2 3 0.4 5 0.5 8 23.7-18 48.2-23 73.3-18v-7c-26-9-50.8-5-73.8 17zm3.8 21v10c27.7-15 55-24 81.2-19 0.2-3 0.4-5 0.6-8-24.2-7-51.8 0-81.8 17zm17.4 54c0.4 1 0.8 3 1.2 4 31.5-17 59.2-28 76.2-25-0.2-3-0.4-6-0.6-10-24.8-4-50.5 8-76.8 31zm15.4 24c0.4 2 0.8 5 1.2 8 26.8-21 53.2-35 78.6-33 0.3-2 0.6-5 0.9-7-28.4-9-55.2 3-80.7 32zm10.6 23 0.6 7c24.8-17 50-35 70.3-31l0.6-6c-11.5-16-36.7-3-71.5 30zm19.8 14v8c21-14 42.6-26 68.2-24 0-4 0-7-1-11-27.2-5-48.2 8-67.2 27zm19.2 13c0.8 2 1.6 5 2.4 8 18.1-10 36.3-20 55.6-20v-6c-18.4-4-37.9 4-58 18zm26.3 38c0.2 2 0.4 5 0.6 7 15-16 30.1-25 47.1-25 0-2-1-4-1-6-16-6-31.9 0-46.7 24zm-303.9-550.4c34.1 9 35.7 39.8 22.5 80.4h8.3c4.3-9 8.6-17 13-26h3.5c4.4 16 6.4 30-8.2 37-37.3 3-76.7 19-117.1 41-11.1 14-24.1 24-41.4 22-30.4 22-58.8 35-82.8 28 0 5 1.3 13 1.3 18 50.3 6 85.2 16 81.7 48-0.9 9 14.8 9 22.2 13 14.1-4 15.6 6 15.4 19-21.6-5-34 13-46.1 31-13.1-1-18.3-11-10.6-22 2.6-4 2.3-13-2.4-15-25 7-34.2-8-39-30-44.2-17-94.3 13-98.2 49-5.1 0-10.2 1-15.4 1 0 12 0.5 23-2.6 35-9.5-5-16.3-8-24.6-7 1.2 6-1.3 14 3.6 17 8.4 5 10.4 14 5.9 27-22.2-22-44-36-65.1-34 3.2-9 14.6-12 29.6-12 8.8-2 22.1-15 21-26-2-18 13.6-33 36-46 7.5-4 11.7-13 17.5-19 10.3-21 12.4-37-42.6-19-2.6 7-19.4 5-34.3 4-1.7 18-10.1 33-42.5 34 0.7-9-2-14-8.3-17-2 0-4 0-5.9-1-0.8 7-7.7 16-2.4 20 10.8 8 6.9 18-3.6 29-4.4 1-11.5-6-13.1-11-6.7-22-24-34-47.2-40 8.5-19 19.9-19 34.3-3 11.8 2 18.9-3 21.2-14s15.1-25 27.3-19c4.5 0 6.8 0 11.3-1 4.5 0 9.9-3 13.6 0 12.2 9 29.1 9 47.3-3 9.8-5 19.7-9 29.5-13 15.2-2 13.2-9 3.6-18-21.4 0-26.2-17-32-33-0.3-8-7.9-9-18.9-7-16.5 8-22.4 4-17.7-13 1.2-4-7.1-5-10.7-7-10.4 9-22.2 28-35.5 19 7.1-19 9.9-40 6.3-58 27.3-25.3 18.8 15 30.3 23 1.3 3 12.9 5 14.6 1 10.8-26 22.1-24 34 6 20.7 45 67.6 53 132.5 35 62.2-36 121.8-78.7 180.9-123.4zm-179.8 154.4c-6.8 6-13.5 13-20.3 19 6.8 1 11.8 1 18.6 1 5.4-7 12.6-13 18.1-20h-16.4zm23.7 3h6.9c10.8-5 18.6-16 25.9-29-4.5 0-8.9-1-13.4-1-5.5 15-11.6 26-19.4 30zm29.8-10h10.3c12.1-8 18.1-25 23.3-42-3 0-6 0-9.1 1-4.7 17-10.6 33-24.5 41zm47-63c2.7-1 5.4-1 8.2-2 2.8 12-0.1 26-13.4 45h-7.3c13-15 14.4-30 12.5-43zm13.8 25c3.3 0 6.6 0 9.9-1 12.5-7 15-24 18.1-41-2.9 0-5.7 0-8.6-1-4.2 16-6.7 31-19.4 43zm27.6-12h9c18.7-13 20.2-32 18.2-52.5-3.5 0.3-7 0.5-10.4 0.8 0.8 17.7 1 34.7-16.8 51.7zm34.1-16c2.8 0 5.7 1 8.6 1 11.1-12 12.1-30 11.6-48.3-4.1 0.2-8.3 0.5-12.5 0.8 2.6 15.5 3.5 31.5-7.7 46.5zm-79.1 208c-10.2 2-20.3 5-29.3 22-5 5-4.7 8 0.9 10 12.4 10 16.4 22 14.6 36 20.8-17 20.2-42 13.8-68zm-298.6 120c-36.1-18-22.4-40 5.4-62 18.1 0 28.9 5 23.4 16-17.5 13-30.1 27-28.8 46zm-22.1-341c3.2 13 2.6 26-3.5 36-18.9-10-39.6-9-62.1 2 9.2-32 35.1-39 65.6-38zm-63.8 177c12.9 1 40.8 17 22.2 28-15.4 4-21 19-22.2 39-24.9-20-28.2-42 0-67zm225-715.1c-0.8 1.3-4.9 5.5-4.9 6.8 0 3.6 4.4 5.9 7.5 7.5 1.3 0.5 1 2.1 1.3 2.3 2.3 1.6 4.1 3.4 6.2 5.5 3.6 3.6 6.9-0.8 9.3-3.2 0.5-0.5-1.3-2-1.6-2-1.8 0-4.6-6.8-4.6-8.3 0-6 0.7-6.8-3.1-8-1.3-0.3-3.4-0.8-5-0.8-0.2 0-4.6-0.5-5.1 0.2zm32.6 9.9c0 8-5.2 16-6.5 23.8-0.5 4.4-1 14.3 4.9 14.3 3.1 0 3.4-1.1 4.4-3.4 3.4-8 7.5-14.8 6-24.1-0.8-4.9-3.9-10.4-8.8-10.6zm17 22.5c-2.6 5.2-4.6 12.4-6.4 17.6-0.8 2.4-7 13.8-4.7 16.1 3.6 3.6 7 0.3 8-3.4 2.9-9 11.7-15.3 11.7-26.1 0-6.5-8.6-6-8.6-4.2zm20.7 22.8c-4.1 6.2-7.5 13.5-11.4 19.4-1.8 2.6-5.7 9.4-6.2 12.5s-0.5 4.4 2.6 4.6c3.9 0.6 7-3.9 8.3-6.4 3.1-6.5 9.3-16.4 10.3-23.1 0.3-2.3 1.6-5.2 0-7.5-1.3-1.8-2.8 0.5-3.6 0.5zm128.8 225.4c1.2 0.4 2.4 0.7 3.7 1 15.5-5.6 36.9-7.1 59 1.4l1.5-7.2c-27.9-9.9-51.5-8.5-64.2 4.8zm-22.3 42.3h4.8c17.8-15.7 43-16 71.6-9.1l-0.4-8.8c-37.9-12.5-65.9-10.3-76 17.9zm-15.5 52.4c3.4 1.7 0.4-1 0.7-0.7 4.4 4.4 9.8-1.6 13.5-3 12.8-5.1 22-4.1 35.8-4.1 4.4 0 11.5-3.7 5.7-7.4-11.8-7.8-24.9 0.7-37.1 0.7-6.8 0-18.6 9.5-18.6 14.5zm76.3-163.7c-0.1 1.5-0.2 3.1-0.3 4.7 22.8-8.9 46.2-6.4 69.9 5.4v-9.8c-24-13.6-47.4-16.5-69.6-0.3zm31.5-29.5v7.5c18.4-5.4 37-3.8 56.4 15.2h3.7c-6.8-18.2-20-28.8-60.1-22.7zm43.5-18.2c0.1 2.4 0.3 4.9 0.4 7.4 13.9-4.6 24.3-1.3 39.1 11.2-0.2-1.9 3.6-3.2 3.4-5.1-7.5-11.3-20.9-16.7-42.9-13.5zm40.6-12.6v8.2c3.7 0 7.4 1.3 11.1 2 3 0.7 8.8 4.4 11.5 6.1 1 0.7 3 2 3.7 3 0 0.4 1 1.4 1.3 1.7l6.1-5.7c-4.4-5.9-25.5-17.3-33.7-15.3zm29.7-5.7c0 1 0.3 4.7 0.7 5.7 0 0.4-0.4 1.1 0.3 1.1 1.7 0 3.7 1.7 5.4 1.7 1.3 0 4.1 2 5.4 2 1.7 0 2.4 1.7 4.1 1.7 1 0 1-2.4 1-3.1 0-1-2.4-3.3-3.1-3.7-1.7-0.7-6.7-4.4-8.4-4.4-1 0-2-0.6-2.7-0.6-0.7-0.1-1.7-0.1-2.7-0.4zm281.1-73.1c5 4.5 11 9.9 13 15.6 3 5.8 2 12.5 10 12.5 11 0-4-20.1-6-22.3-3-2-8-7.7-12-7.7h-4s0 0.6-1 0.6v1.3zm-23 6.4c4 3.5 12 10.2 14 15.6 1 4.5 8 9.6 13 6.1 4-3.2 3-3.5-1-8-4-3.5-6-6.1-8-8.3-2-1.6 0-1.3-1-2.2-2-3.2-8-9.6-12-7.7-2 1-6 1.9-5 4.5zm2 15.6c-3-6.7-9-12.7-16-15.9l-5 3.8c3 1.9 6 4.1 9 6.1 2 1.9 10 13.4 10 16.9 8-2.9 4-3.1 2-10.9zm150 34.8c10 7 19 15.6 23 26.5 1 3.2 4 16.9 10 14.3 6-3.2-13-36.7-16-41.4-3-4.5-7-5.8-12-5.8s-3 4.5-5 6.4zm12-18.5c16 9.2 18 17.5 25 32.5 2 3.2 3 8.7 9 8 9-1.3-9-38.9-16-42.7-5-3.2-17-3.6-18 2.2zm18-25.2c14 10.2 20 23.3 27 37.3 3 5.8 10 5.4 10-1.6 0-10.5-13-33.5-21-39.5-8-6.1-15-8.7-16 3.8zm-104-43.1c4 6.4 9 14.4 17 16 2 0.3 8 0.9 8-1.6 0-8.6-9-10.9-15-15-4-2.9-10-6.4-10 0.6zm21-18.8c0 4.1 3 8.6 5 12.1 2 2.6 3 4.8 6 5.4 2 0.4 10 2.3 10-0.6 0-4.5-7-9.6-11-13.1-2-1.9-10-8.9-10-1.6zm12-11.5c7 3.8 15 8 24 8 1 0 7 0 7-1.9 0-6.4-11-8-16-8.6-3-0.4-7-0.4-11-0.4-1 0-4 2.3-2 2.3zm31-20.1c5 2.9 9 6.4 14 9.9 1 0.6 7 6.7 2 6.7-4 0-20-5.1-23-8-2-2.2 1-6.7 2-7.6 3-1.6 3-1.6 5-1zm121 56.5c-17-8.9-29-21.8-32-43.4 12 6 23 18.7 32 43.4zm-26-69.9v9.6c17 9.4 30 26.3 43 44.3 0-3.8-1-7.6-1-11.5-10-23.5-25-36.8-42-42.4zm6-22v8.6c17 4.1 33 19.3 48 39.6v-9.6c-11-22.6-26-38.2-48-38.6zm-61-50.4c-17 3.8-34 7.9-39 22h9c3-8.7 17-13 30-16.6v-5.4zm-37 35.7c0 1.4 1 2.8 1 4.2 16-9.3 26-12.2 30-8.7 0-2.5 1-5.1 1-7.6-9-3.5-19-0.5-32 12.1zm7 10.9c0 2 0 4 1 6 9-6.9 18-8.7 28-5.4-1-2.2-1-4.5-2-6.7-9-1.4-19 0.6-27 6.1zm67-93.2c1 2.7 1 5.3 2 8 17-3.3 36 0.6 54 5.1v-1.9c-18-8.6-36-15.5-56-11.2zm13 17.5v7.7c9-7.9 34 4.5 58 15.6v-2.2c-16-11.6-30-24.2-58-21.1zm-572.4-150.1c-11.4 4.4-21.5 12.7-6.9 18.9 3.2 1 9.1-0.5 9.6 2.8 4.6 29.3 21.1 12.9 51.6 14.9-20.4-13-31.5-37.4-54.3-36.6zm246.7 43.6c-10.7-14.8-24.8-31.9-32.2-8.9-7.9 12.1-11.1 13.9-15.7 5.7-7.6-3.1-10.7-0.8-8.2 4.5 2.5 4 5.6 6.7 8.2 10.7-0.9 1.5-1.7 2.9-2.5 4.4-14.4-2.1-26.2-6.9-20.2-30.9 9.1-1.3 21.7 3.4 27.4-3.8 13.6-17.3 28.8-19.4 45.8-6.4 14.1 24.9 35.1 35.4 61.1 31.6 1 12.7-15 17.3-42 16.5-22.7 37.9-74.7-18.6-21.7-23.4zm-116.7 204.1c0.4 2.8 0.8 5.5 1.3 8.3 81.8-7.6 147.1-14.7 158.1-48.2 16-29.1-28.1-110.1 4-110.5 0-2.9 0-5.9-1-8.8-17 3.8-28 13.5-26 27.4 7 42.2 26 87.3-6.6 112.6-15.8 2.4-55.4 13.9-129.8 19.2zm243.4-277.4c-9 3.6-20 5.1-18 22.9 1 7.1-8 10.8-13 15.6-13 27.9-2 29.2 19 18.4 22 1.6 37-12.3 53-23.6 13-9.6 33-4.8 41-17.5-22 1.6-34 3.7-30-3.2 49-17.5 63-26.4 69-36.6-39 9.6-78 18.9-121 24zm-560.6 626.5c-1.4 10.2 4 28.8 11.1 35.9 2 2 9.1 2.7 10.1-0.7 1.4-4.4 4.1-7.1 4.1-13.2 0-7.8-7.4-5.8-12.2-9.1-2.7-2.1-13.1-10.5-13.1-12.9zm522.6-693.5c-23 1.8-48-0.9-58 18.9-46.8 3.4-68.8 20.7-79.9 44.3 12.6 1.2 25.3 2.5 37.9 3.8 1.6 10.1 7.7 8.4 14.5 5 31.5-7 52.5-18.5 45.5-32.7-3-7.2 63-18.2 40-39.3zm-844.6 156.3c19.9 27.8 18.1 55.7-5.5 83.5 10 1.2 20.1 6.2 30.1-8.2 10.4-11.6 15.8-11.2 16.5 1.4-4.6 3.2-9.2 6.4-13.7 9.6 11.4 1.3 22.8 2.7 34.2 4.1 1.7 9.3 8.7 15.5 27.4 15.1 24.2 20.5 48.4 41.1 72.7 61.6-8.3 0.9-13.8 0.9-22 1.9-3.7-19.5-41.5-10.6-49.3-4.2-0.7 0.2-1.5 0.4-2.4 0.5-6.4 0.8-17.5 0.6-22.3 1.8-15.5-20.5-31-35.9-46.6-15 0.2 15.9-5.8 20.9-17.8 15-20.9-29.1-34.6-29.1-41.1 0 18.7 7.8 29.1 27.3 35.7 52.1 16.5 9.4 23.4 3 20.5-19.2 5-0.9 10.1-1.8 15.1-2.7 9.1 19.1 18.9 31.9 32.9 0h8.2c6 19.4 21.1 25.9 56.2 4.1 20.8 0.5 39.6 6.5 63 6.8-0.9 5.5-1.8 9.2-2.7 14.7-22 1.1-37.6-1.6-45 11.3-3.8 11.5-5.4 28.7-4.4 52.1-4.5 6-9.1 11.9-13.7 17.9-10.2-3-14.3 2.4-12.3 16.4 0.9 2.7 4.5 5.5 5.5 8.2-8.8 2.6-14.3 7.6-11 15.1 12.2-6.2 26.5 4.6 41.1 17.8 14.1-13.2 13.6-22.8-1.4-28.8-3.9-10.5-3-14.6 2.8-25.1 17.3 8.9 21.8-33.9 28.8-61.2 15.8-45 55.6 33.5 90.3 80 4.6-15.9 11.8-26.7 19.3-34 4.2 4.7 3.1 4.5 4.9 10.4-7.7 10.1-15 25.4-22.7 35.4-3.8 18.4 19.7-13.8 24.7-21.3 6.5-2.5 11.3-2.5 8.2 9-10.5 11.4-21.1 22.8-31.6 34.2 5.2 3.4 10.5 7.5 13.7 0 5.1-7.7 10.5-14.2 15.5-22 2.2-1.9 13.9-1.5 6.2 6.8-7.6 17.5-19.2 37-25.8 37.2-2.4 7.5-2.5 13.3 2.8 15 11.7-7.5 22.4-19 25.4-37.1h10.8c1.8 2.7 3.1 7.3 1.5 10.2-6.4 8.7-16.2 15.5-22.6 24.2v12.3c7.3-0.5 16.7-13.6 26-26 9.7 2.4 8.1 9.1 1.4 17.8-6 5.5-11.9 11-17.8 16.5-1.9 4.1-3.7 8.2-5.5 12.3 7.6 4.8 17.7-8.3 27.4-17.8 7.4-4.2 9.8-2.7 1.3 10.9-14.2 11.1-23.5 25-21.9 45.3 1.8-1.4 3-0.2 4.8-1.6-0.6-13.1 15.7-23 23.9-34.5 1.9 2.8 6.4-1.5 8.2 1.2-1.1 2.9 0.6 6.3-2.6 8.8-23.5 17.9-28.8 45-24.7 65.8 1.2-2.4 4.4 2 4.9-0.6 3-15.5 9.6-37 19.8-51.5 2 0 6.7-4.6 7.3-0.4 0.6 27.4-39.7 88.4 5 84 11.8-45 39.6-69.6 72.6-87.7 4.9-5.5 13.7-5.1 24.9-1.4 2.3 10.1 16.9 13.2 34.1 15.1 4.7 4.8 4.8 9.8-3.6 9.5-13.3-3.2-35.6-0.7-39.8-14.9-4.1-0.9-10.1 0.9-14.2 0-33.9 28.9-63 69-63.1 110.2 18.9-23.1 44-26.4 68-22.1 1.4 3.7 2.8 7.3 4.1 11-25.5-4.7-53.9-0.4-75.4 20.3-0.4 10.5-1.7 15.3-2.1 25.8 16.3 1.6 31.2-3.9 44.5-16.4 17 3.1 31.6-3.4 44.5-16.5 25.6-2.5 40.3-16.1 45.4-37 3.2-12.7 18.1-19.4 27.3-28.8 19.5 5.8 31.2-1.8 35.6-22.9 3.1-15.1 25.5-16.6 38.4-25 48.5-5.7 66.3-51.4 71.2-113.8 40.3-31 92.8-13.6 111.6 19.7 40 1.5 106 30.2 178 73.3 0-8.7-3-18.5-3-27.2 11 2.6 22 12.7 34 42.6 10-14.5-3-33.6-22-52.2 10-3.4 21 5.1 33 21.9 11-16.5-6-34.8-26-53.4 28-1.3 49 10.9 51 60.3h12c-3-10-2-19.1 10-26-4-25.3 14-41.6 34-57.6 0-3.2 1-6.4 1-9.6-2 0.9-4 1.9-7 2.8 1-27.2-11-49.5-32-68.5 24-2.1 37 17.6 42 52h5c1-23.6-4-46.6-34-67.1-1-3.7-2-7.3-3-11 4-3.8 19 7.3 38 25.1-1 10.5 6 17.8 23 21.5 15 3.3 16-14 13-37 17-13.3 24-29 25-43.8-4-0.5-5-1-9-1.4 3-15.2-14-39.7-46-50.1-5-1.7-3-5.8-7-8.3 28-3.8 47 12.1 64 44.7-4-26.5-13-49.2-46-58.4-5-1.7-13-7.6-11-14.2 26 9.5 54 22.8 62 8.2-11-22.9-28-43.2-45-63-8-0.4-17-0.6-26-0.8-6-5.4-13-7-19-0.3-5-0.2-13 1.2-18 1 3-4.4 4-13.1 10-14.4 13-2.8 15-8.1 9-14.3-3 7.5-12 9.6-25 9.2-11 5.5-17 1.7-14-4.4 5-4.1 11-4.8 16-8.9 8-0.8 8-2.7 0-5.5-31 3.9-46 0.7-46-9.6 20 2.5 15-7.5 22-4.9 21 6.8 41-6.3 43-20.7-21 5.1-50-4.7-57-18.2-18-1.9-38 5.4-61 24.8-22 1.3-44 1.2-66 2.6-4 15.5-22-9.9 2-16.5h54c-4-13.9 1-23.2 32-22.9 12-2.2 19-6.9 11-10.1 0-11.1 3-12.4 16-19.4 25 4 35-11.5 26-33.9 33-10.8 49-28.5 58-49.4-37 17.5-74 27.8-108 17.9-11 5-22 6.6-30 19.6-9-19.9-41-10.3-62 13.3-21-16.6-42 14.7-52 41.1-6 17.8-13 10.6-19 0-18-4.5-35-9.7-51.1-2.8-9.3 4.6-17.8 1.4-26.1-4.1-20.6-9.7-36.5-2.9-62.2 16.8-4.7-1.3-7.1 2.2-12.6 1.2-5.5-1.1-12.1 1.7-20.3-6.3-11.8 0.6-25 4.7-39.1 15.7-12.8 1-23.8 3.5-27.4-6.6-18.8-19.2-130.4-45.3-72.7 16.2 5.5 8.7 6.4 17.4 2.8 26-21 18.6 58.7 64.4 60.3 26.1 7.7 0.3 15.3 0.6 23 0.9 33.2 20.6 83.9 15.3 124.2 1.4 112.2 72.7 89.2 170.2-169.2 159.4 0.9 3.6-0.8 7.3-8.2 10.9 3.6 3.5 10 3.5 19.2 0 19.5 14.2 28.6 25.6 27.4 34.3 12-8.6 10-16.1 4.1-23.3 10.2-15.1 20-16.8 28.8 11 1.8 0.1 3.9 0 6.3-0.5 0.3-12.1 8.9-18.9 32.1-16 32.6-0.5 59.2-2.3 80.8-5 90.9 8.8 95.9-42 99.9-71.7-12-7.5-18-17.1-9-31.5 42 11.7 59 5.4 41-27.4-33-23.8-35-47.6-7-71.3 7 1.6 8 7.3 4 17.1-17 5.4-14 18.1 10 37.4 19 15.1 20 43.1 12 50.4 16-3.4 17-18.3 4-39.9-7-13-28-20.2 3-42.5 9 1.7 8 4.8 4 10.6-8 6.5 0 13.9 7 21 12 11.8 9 40.2 8 55.5 6 3.9 14-3.4 23-26.9 6-14.3 20-23.2 30-34.7 7 3.7 7 11.4 0 23.3-26 25.1-29 48.5 2 65.5 15-13.4 37-20.6 67-26.9v8.2c-46 8.1-66 34-63 73.4 34 0.3 56 3.4 52 25-9-9.6-27-20-33-9.5-9 0.8-20 3-33 6.8-18 12.8-35 26.6-51 42.4 7 4.6 14 9.6 16 17.6 1 7.5 7 12 16 18.1v15c-3 3.9-6 6.7-12 1.4-21-34.7-44-45-70-26-26-0.9-52-1.8-78-2.8 21 10.3 34 25.9 43 45.3 0 2.7 1 9.2 1 12h-11c-29-54.1-95.6-41.3-169.5-13.2-9-0.7-18.7-1.2-28.5-1.6-6.7 4.7-13.2 7.8-17.8-0.7-6.6-0.2-13-0.5-19.1-0.9-19.5 4.5-19.1 8.8-4.1 15.3 17.4 1.9 34.7 3.7 52.1 5.5 5.6 2.3 5.6 4.6 0 6.9-69.8-1-139.3 5.2-204.2 94.5-5.9 0.9-11.9 1.8-17.8 2.8v9.5c0.9 4.2 1.8 8.3 2.7 12.4-13-2.4-36.5 4.3-8.2-34.3v-8.2c-32.5-47.2-48.5-99.8-73.4-147-29-46.2-63.5-89.1-106.1-127.1 5-26 10.1-52 15.1-78.1 16-14.1 26.1-27.1-4.1-31.5v-6.8c29.8-2.4 31.2-28.3 12.3-26.1-8.2 11-42.3 9-71.2 9.6-1.1 6.4 3.9 12.8 15 19.2l31.5 2.7c0.5 2.3 5.5 5.5 6 7.8 6 8.3-9.6 9.7-37.5 5.9 0.4 3.2 0.9 6.3 1.3 9.5 12.8 6 13.7 17.4 2.8 20.7-4.5 22.4 10.2 42 9.6 67.1-11.9 4.4-25.7-24.1-38.5-34.1-14.6-11.2-29.1-20.8-43.7-28.9-7.8-36-17.2-38.6-27.4-26-13.8 7.7-13.4-0.1-7.8-14.2 0-36.4-11.9-39.1-26.5-17.3-5.9 5-11.8 8.2-17.8-1.4 0-26-11-33.8-32.8-23.3zm159.7-50.5c27.8-7.1 49.6 10.4 64.4 37.3 2.7 14.3-17.3 15.5-33.8 14.4-1.8-16-9-33.5-30.6-51.7zm-218.2 127.3c10.2-20.2 24.2-27.3 42.1-21.2 1.7 5.4 5.7 4.8 10.7 1.4 8.6-31.6 1.6-43.6-26.1-29.6-18.3 9.5-29.9 24-26.7 49.4zm4.9 188.4c-23.8-29-18.9-57.6 0.6-86 22.6 9 28.6 23.1 23.3 40.8-14.3 9.9-21.7 25.4-23.9 45.2zm167.4 88.3c1.8 18.4-2.2 35.5-24.8 48.3 32.1 1.2 50.6-7.2 49.2-29.7-4.2-12.7-12.8-18.2-24.4-18.6zm510 326c0-7.5 19.5-29.9 21.8-40.7 5.1-22.4 20-35.6 28.1-55.1 6.3-14.4 2.8-16.1 2.8-29.8 0-13.8-16.6-8.1-21.2-3.5-12.6 12.6-33.8 9.2-51.6 12.1-8.6 1.1-12.6 10.9-20.7 13.2-20 9.7-40.1 24-61.3 32.7-19.5 8-66.6 33.2-86.1 29.8-12-2.3 5.2-18.4 10.3-19 17.8 0 41.9-10.3 58-17.7 11.4-5.2 26.4-9.8 36.7-16.1 5.7-3.4 13.8-10.3 18.9-12.6 10.3-9.8 17.2-16.7 30.4-22.4 8.1-2.3 16.1-3.4 16.1-12.6 0-2.9-8-27-1.2-27 3.5 0 10.9 20.1 13.8 23 8 8 28.1-1.2 28.1-11.5 0-2.3-4-5.2-4.6-6.9-1.1-2.9-1.1-14.9-1.1-19.5 0-4 2.3-9.7 2.3-11.5 16-2.3 14.3 13.2 16.6 23 1.2 5.7 2.9 10.3 6.9 14.3s21.2 4 21.2-3.4c0-10.9-19.5-16.7-19.5-31 0-9.2 2.3-15.5 8.6-21.8 4.6-4.6 9.8 22.4 11.5 24.7 5.2 6.9 25.2 35.5 36.7 20 5.7-8-11.5-24-16.1-28.6-10.3-10.4 2.9-20.7 6.4-28.1 52.6-42.1 137-7.8 230 45.1 52 30.2 131 38.4 178 35.2 156-9.8 175-36 223-59.5 1 3.5-1 5.5 1 9-91 52.6-198 85.5-353 56.8 45 35.5 99 45.6 155 50.5-82 14.7-185-40.6-247-89.6-16-13.3-36-19.3-52-26.3-98-56.9-177.3-4.8-79.4 39 2.4 1.1 4.4 2.3 6.4 3.4-2-7.2 5-7.2 19 0 23 20.8 42 43.7 54 69.9 24 52.6 70 92.1 105 138.1 0 3.7 0 7.4 1 11.3-37-27.9-80-76.8-102-117.5-22-41-39-67.6-60-85.9 27 38.9 47 75.9 53 109.3 5 31 27 56.7 41 85 12 48.1 36 99.1 79 154.1 0 5-1 10-1 15-6-6-11-11-17-16-37-48-87-121-103-192.2-22-94.5-58-143.6-94.5-174.5-7.5-6.5-10.5-4.1-9 7.4 7.5 0.4 12.9 10.2 22.6 26 9.9 15.8 35.9 40.3 34.9 85.9-1 47.9 18 101.4 51 177.4-37-33-62-94.1-67-197-9-33.9-21.5-62.7-41.5-80.4-5.2-9.8-8.7-8.8-10.4 3 24.6 16.3 31.3 65.4 21.9 148.3-7 60.1-6.3 133.1 7.9 170.1-13.9 16-19.3 6-24.2-19-0.3-51-13.3-102.1-3.9-151.5 9.8-51.5 6.6-96.8-4.7-138.9-4.9-4.5-9.9-9-14.8-13.4-12.4 0.3-23 2.7-20.9 19.3-5 31.7-14.6 63.9-34.1 97.4-18.2 31.2-32.7 58.6-35.9 102.1-13.3-13-10.4-39.4-0.2-70.9zm146.7-194.5c5.1-0.6 10.1-1.3 15.1-1.9 50 36.8 100 76.3 137 128.9 47 65.7 113 133.4 180 201.4v6c-4 0-9 1-13 2-11-19-29-40-50-56-50-38.1-89-88.7-115-119.5-50-60-94-120.2-154.1-160.9zm45.1-1.9c10 0.6 20 1.3 30 1.9 66 41.5 134 85 177 101.4 68 51.1 131 79.1 192 97.6v7.6c-7 0.6-14 1.2-21 1.9-68-23.2-134-58.2-197-102.8-48-20.2-117-75.9-181-107.6zm16 19c2-0.3 5-0.6 7-0.9 25 18.3 50 35.4 72 65.2 50 42.7 100 81.3 150 111.8v6.7c-5-0.6-10-1.3-15-1.9-39-21.1-87-58.7-144-111.7-18-23.5-42-46-70-69.2zm-207.7 73.3c-3.8 4.8-7.6 11.5-11.4 15.3-2.9 2.8-4.8 9.5-8.6 13.3-7.6 7.6-21.9 11.4-26.6 21.9 0 0.9-4.8 23.8-1.9 24.7 6.6 2.9 15.2-5.7 17.1-9.5 6.7-13.3 16.2-27.6 22.8-41.9 2.9-5.7 9.6-16.2 8.6-23.8zm21 9.6c-14.3 14.2-19.1 35.2-29.6 51.4-1.9 3.8-20 33.3-15.2 38 2.9 2.9 2.9 7.7 7.6 2.9 2.9-2.9 3.8-8.6 4.8-12.4 1.9-7.6 10.5-16.2 12.4-21.9s39.9-56.1 20-58zm57.1-15.3c-9.4 33.2-11.9 71.5-32 99.5-8 11.3-8.5 26.3-9 45.2h9.6c-2.1-21 2.1-36.9 12.7-47.8 22-22.5 16.3-60.8 24.4-91.2l-5.7-5.7zm17.1 18.1c0 5.7 1 20 0 25.7-1.9 9.5-9.5 22.9-9.5 32.4 0 18.1-8.6 36.2-8.6 55.2 0 17.1 8.6 4.8 10.5-4.8 0.9-8.5 4.8-19 5.7-25.7 1.9-7.6 4.8-20 7.6-26.6 2.9-5.7 1-23.8 1-31.4 0-8.6 0.9-26.7-6.7-24.8zm-251.3 59.3c-0.1 3.4-0.2 6.8-0.3 10.3 45.4 10.3 66.8 45.8 66.4 104h8.9c5.5-66.2-21.3-102.5-75-114.3zm38.3-5.9v5.6c-2.1 0.2-4.2 0.4-6.4 0.6 0.1 1.6 0.2 3.3 0.3 5 23.9 1.8 43.1 18.5 49.1 76.7 3.6-0.4 7.3-0.7 10.9-1.1 1.5-45.7-17.7-73.6-53.9-86.8zm276.5 244.2c22-5 46 2 72 16h10c-1-3-1-6-2-9-30-16-60-29-81-23-6 7-6 12 1 16zm-1 6c-5 4-3 7 0 10 26-2 72 15 119 33 7 0 7-3 0-11-63-24-111-40-119-32zm202 16h10c-1-19 33-26 65-33v-5c-46 3-82 10-75 38zm0 37c-1 6 4 8 11 7 16-46 49-58 91-56 5-6 5-10-1-14-47-2-85 13-101 63zm146-150c-6 18 4 18 16 16 2-21 16-26 29-34 0-3 3-6 3-10-5 0-9 3-14 3-14 6-27 12-34 25zm4 38c1 10 5 13 11 9 14-37 33-55 55-59 2-1 4-3 0-5-21-1-43 16-66 55zm34 37h-17c7-72 50-92 110-87v12c-54-2-93 14-93 75zm110-294c3 0.3 5 0.7 8 1-20 31.1-31 63.8-21 99.9-5 0.4-10 0.7-15 1-4-42.3 4-77.4 28-101.9zm22-10.4c3-0.4 6-0.7 9-1-1 4.5-1 8.9-1 13.3-22 35-33 78.3-6 151.4h-13c-26-50.4-17-105.7 11-163.7zm-1034 61.9c1.5 22.6-8 41.7-28.7 57.3 22.3 4.8 34.9 13.2 43 23.3 27.2-24.8 72.6-43.2 139.7-53.8 94.5 1.2 112.4 75.8 105.7 173.7-4.4 21 0.5 39 11.7 55 17.1 25 23.5 67 18.8 88 15 0 30.5 5 46.6 15 5.9-20 4.6-31 0-40-38.3-33-30.9-81-10.7-134 5.3-5 11.5 0 17.9 7 0-14-2.5-27-10.8-36 6-1 12-1 17.9 4 6 36 28.7 74 87.8 116-27.1-4-58.3-34-94.8-78-0.6 3-1.2 5-1.8 7 19.7 23 41.9 44 61.3 67 69.9 45 119.2 100 137.2 167 8 10 27 13 47 15-10-15-8-29 0-43-56-29-71-72-61-124 82 3 129 41 160 86 29 20 42 49 42 88 13-4 31 2 43 9 3-10 11-19 22-29-164-150 87-264 159-21 7-5 22-6 43 3 0-14 12-31 26-46-132-74-171-222 8-206 28 17 43 52 56 104 12 1 28 6 38 18 8-29 21-45 41-51-213-152.9-126-348.5-7-413.5-3-20-2-37.6 9-50.2-17 3.5-31 4-42-1.8-9 36-32 59.4-65 72.9-120 57.9-272 56.3-436-52.1-26-8.6-54-17.9-83-28-29-9.1-45.9-2.3-58.9 9-34.6 10.1-43.7-0.2-41.2-19.7h9c63.1 49.5 21.6-103.7-28.7-28.7-0.7 48.1-10 92.4-60.9 118.3-33.7 7.3-62.7 17-59.1 43-1.4 18.8-9.2 23.8-23.6 14.9-10.1-6.4-27.8 5.8-30.2 19.1-15.7 24-32.6 34-50.2 37.6-76.5 36.6-150 66.4-197 37.7zm152.6 45.5v8.4c-0.7 0.6-4.2 2-4.8 3.4l-6.3 4.2-2.7 2.1c-2.1 1.4-6.3 5.5-7.7 6.9-2 2.1-7.6 8.3-10.3 8.3-2.8 0-7.7 1.4-11.1 0-6.2-2.1-2.1-10.4-3.5-15.2-0.7-2.8-4.1-7.7-4.1-10.4 0-4.9 22.8-6.3 26.3-6.3 7.6 0 17.3-0.7 24.2-1.4zm85.1 120c0 10-2.7 23-2.7 34s11.7 36-4.2 38c-15.2 2-30.4 12-42.9 20-3.5 2-42.2 51-47.8 29-3.4-16 18-33 28.4-38 3.5-1 4.9-9 2.1-12-10.4-10-11.1 7-18.7-18-0.7-3-8.3-13-6.2-18 6.2-13 36.7-13 50.5-16 11.8-2 20.8-7 29.1-11 4.1-2 7.6-8 12.4-8zm2.8 80c-11.1 18-49.8 28-66.4 45-11.8 12 4.1 47 4.1 63 0 17 29.1-1 32.5 7 6.3 12-29 34-29 54 0 24 38.1-11 49.8-23 4.9-5 40.2-28 40.2-28 0-11-18-7-9.7-20 2.1-3 8.3-18 8.3-23 0-4 10.4-14 1.4-16-15.3-5-22.2-56-31.2-59zm816.3-260.2c-8 44-14 83.2 18 95.9 18-8.9 38 5.6 52 27.3 8-2.7 16-4 24 0-2-9.9-7-20.8-2-28.9 10-15.6 8-22.7-1-23.9-32-4.6-62-32.7-91-70.4zm-189-200c-12 7.7-34 15.4-65 23.1-35 10.3-60 20.2-45 28.7 34 19.5 73 27.4 115 30.1 26 1.1 48 0.7 67-1.2 18-1.9 32-5.2 42-10.1 3-17.5-2-38 3-55.9-7-19.8-67-14.8-117-14.7zm-42 33.6c14 4.9 27-6.3 40-6.3 24 0 53-1.2 76 2.1 6 0.9 17 11.2 17-0.7 0-16.8-48-15.4-68-15.4-10 0-21 5.6-30 5.6-2 0-60 6.9-35 14.7zm68 21.7h-38c-9 0-17 4.2-25 4.2-14 0-43 2.1-53-7.7-8-8.4-6-12.6 6-12.6 9 3.1 30 16.4 64 8.4 28-6.6 81-8.4 109 0.7 5 1.4 0 8.4-3 9.1-18 4.2-42-3.5-60-2.1zm13-82.3c-5 0.7-15 7.2-15 11.1-3 15 43 7.5 52 7.5 8 0 38 5.9 44-2 18-23.1-75-16.6-84-16.6h3zm92-3.3s-6 0.4-9-0.3l-15-3.3c-15-3.2-34 2.3-47-3.2-11-4.6 1-9.8 6-10.8 13-4.2 25 0.4 38 0.4s52 4.2 27 17.2zm3-34.8c-4 0-20 2.9-21-0.4-3-3.9 8-4.2 2-8.1-7-5.6-18 4.5-25 7.1-16 6.6 9 7.2 15 7.2 10 0 48 15.3 51 9.8 6-9.5-19-10.1-22-15.6zm42-26.8c-3 6.2-15 6.9-22 5.9-5-0.7-10-1-14-1-3 0-3 4.2-6 4.2-9 0-7 8.5 3 8.5 3 0 39-12 39-3.6 0 4-21 2.3-24 3-11 2.6 11 6.2 12 6.5 2 3.6 5 6.2 10 4.9 2-0.3 4-5.6 4-6.9 0-1.6 9-3.9 11-4.5 4-2-5-8.2-5-11.4 0-6.2-8-5.9-8-5.6zm55-36.8c-2 10.8-10 22.9-40 39.8 9 6.7 23 17.4 58 14.6 1-8.1 19-25.1 31-33.2-17-2.6-37-10-49-21.2zm36 22.5c-6-1.7-12-0.7-19-0.7-8 0-5 5.2-10 7.5-6 2.9-10 10.1-17 3.6-3-3.6-12 0.6-15 2-4 1.9 11 11 13 11.4 6 0.6 12 3.9 17 1.3 4-1.7 4-4.6 7-6.9 4-3.2 10-13 15-13 2 0 9-3.6 9-5.2z" fill="#fd1"/>
</g>
</svg>