<svg xmlns="http://www.w3.org/2000/svg" height="525" width="470"><path d="M5 5h460v295c0 145-125 220-230 220S5 445 5 300z" fill="#0081c9" fill-rule="evenodd"/><path d="M48.449 45.65c33.623 30.584 69.307 70.267 86.253 158.193 6.577 34.123 25.648 42.244 38.15 43.147 21.402 1.546 34.283-10.904 22.411-36.907 12.137-4.71 24.44-6.873 49.183 5.872-18.647 10.288-23.396 23.735-20.554 38.906-29.282 14.834-32.822 27.754-22.634 40.627 4.516 5.706 27.143 12.101 50.162-11.264 27.31 7.878 55.022 17.324 73.774-8.075-9.445-3.67-15.78-7.34-23.49-11.01-21.238-10.112-19.407-14.733 2.936-13.214 15.22 1.035 30.561-.266 44.779-15.049-8.32-7.34-16.64-10.786-24.959-14.314-7.184-3.047-20.054-7.555 0-8.075 28.511-.738 50.268-12.91 60.194-42.576-17.393 2.927-24.727 1.544-35.97 1.835 21.275-20.781 24.61-40.747 24.592-60.56-18.519 24.213-40.857 28.562-64.231 27.527 10.952-32.013 17.165-62.932-9.543-86.254-6.039 32.786-18.335 51.67-31.198 62.03 2.033-41.362-8.09-68.287-36.337-82.217 5.487 31.964.337 55.226-14.681 71.572-9.934-43.448-34.956-63.186-65.333-74.508 8.499 19.972 16.183 40.921 10.277 78.179C138.447 55.845 81.896 34.597 48.45 45.65z" fill="#fff" fill-rule="evenodd" stroke="#000" stroke-width="5" stroke-linecap="round" stroke-linejoin="round"/><path d="M168.528 49.735c10.787 17.632 16.572 41.38 21.188 66.555 6.006-26.107-2.805-55.153-21.188-66.555" fill-rule="evenodd" stroke="#000" stroke-linecap="round" stroke-linejoin="round"/><path d="M373.276 113.185c3.19 21.048-7.33 42.558-20.276 60.815l-40 25-40-25-40 25-40-25-40 25-22.524-14.078c-5.338-18.823-8.424-34.595-16.413-50.258L153 159l40-25 40 25 40-25 40 25 38.092-23.808c8.443-5.276 14.79-9.752 22.184-22.007" fill="#0081c9" fill-rule="evenodd" stroke="#000" stroke-width="5" stroke-linecap="round" stroke-linejoin="round"/><path d="M243.338 115.79c14.082-18.377 10.667-45.08-.48-63.864 4.546 20.165 4.204 38.542.48 63.865zM137.167 116.802c-4.974-29.53-43.186-61.29-66.092-65.557 16.72 12.154 51.145 40.438 66.092 65.557zM303.793 74.958c-.475 20.665-4.316 28.191-12.766 51.598 12.435-11.692 21.012-34.135 12.766-51.598" fill-rule="evenodd" stroke="#000" stroke-linecap="round" stroke-linejoin="round"/><path d="M443.91 395.214L394.336 420l-80-40-80 40-80-40-80 40-49.351-24.676c-13.61-26.945-19.301-57.059-19.077-89.538L74.337 340l80-40 80 40 80-40 80 40 69.687-34.843c-2.532 30.019-5.392 60.038-20.115 90.057" fill="#fff" fill-rule="evenodd" stroke="#000" stroke-width="5" stroke-linecap="round" stroke-linejoin="round"/><path d="M5 5h460v295c0 145-125 220-230 220S5 445 5 300z" fill="none" stroke="#000" stroke-width="8" stroke-linecap="round" stroke-linejoin="round"/></svg>