<?xml version="1.0" encoding="UTF-8" standalone="no"?>
<svg
   xmlns:dc="http://purl.org/dc/elements/1.1/"
   xmlns:cc="http://creativecommons.org/ns#"
   xmlns:rdf="http://www.w3.org/1999/02/22-rdf-syntax-ns#"
   xmlns:svg="http://www.w3.org/2000/svg"
   xmlns="http://www.w3.org/2000/svg"
   xmlns:sodipodi="http://sodipodi.sourceforge.net/DTD/sodipodi-0.dtd"
   xmlns:inkscape="http://www.inkscape.org/namespaces/inkscape"
   viewBox="0 0 710.75 738"
   version="1.1"
   id="svg883"
   sodipodi:docname="DEU_Wehringen_COA.svg"
   inkscape:version="0.92.5 (2060ec1f9f, 2020-04-08)">
  <metadata
     id="metadata889">
    <rdf:RDF>
      <cc:Work
         rdf:about="">
        <dc:format>image/svg+xml</dc:format>
        <dc:type
           rdf:resource="http://purl.org/dc/dcmitype/StillImage" />
        <dc:title></dc:title>
      </cc:Work>
    </rdf:RDF>
  </metadata>
  <defs
     id="defs887" />
  <sodipodi:namedview
     pagecolor="#ffffff"
     bordercolor="#666666"
     borderopacity="1"
     objecttolerance="10"
     gridtolerance="10"
     guidetolerance="10"
     inkscape:pageopacity="0"
     inkscape:pageshadow="2"
     inkscape:window-width="1920"
     inkscape:window-height="1046"
     id="namedview885"
     showgrid="false"
     inkscape:zoom="1.0745255"
     inkscape:cx="355.38854"
     inkscape:cy="369.00009"
     inkscape:window-x="-11"
     inkscape:window-y="-11"
     inkscape:window-maximized="1"
     inkscape:current-layer="svg883" />
  <path
     style="fill:#da121a;stroke:#000000;stroke-width:11;fill-opacity:1"
     inkscape:connector-curvature="0"
     id="path853"
     d="M 5.5,5.5 41.25,460.72 C 61.738,612.79 196.1,732.5 355.37,732.5 514.65,732.5 646.19,615.19 666.68,463.13 L 705.243,5.51 h -349.87 z" />
  <path
     style="fill:#ffffff;stroke:#000000;stroke-width:8;stroke-linecap:round;stroke-linejoin:round"
     inkscape:connector-curvature="0"
     id="path855"
     d="m 97.797,350.28 257.59,361.13 257.56,-361.13 h -257.56 z m 81.979,49.52 h 88.17 v 36.605 l 26.516,23.843 24.684,-23.843 V 399.8 h 36.25 36.25 v 36.605 l 26.516,23.843 24.684,-23.843 V 399.8 h 88.17 L 355.406,632.62 179.796,399.8 Z" />
  <path
     d="m 259.687,149.77 c 0,0 -33.3,28.348 -45.938,45.1 -4.984,6.607 -11.469,21.441 -11.469,21.441 0,0 2.837,0.141 4.219,0.401 2.173,0.409 6.313,1.818 6.313,1.818 l 22.281,-20.639 24.594,-48.12 z m 191.37,0 24.594,48.12 22.25,20.639 c 0,0 4.171,-1.409 6.344,-1.818 1.381,-0.26 4.219,-0.401 4.219,-0.401 0,0 -6.517,-14.834 -11.5,-21.441 -12.636,-16.753 -45.906,-45.1 -45.906,-45.1 z"
     id="path857"
     inkscape:connector-curvature="0"
     style="fill:#fcdd09;stroke:#000000;stroke-width:7.39900017;fill-opacity:1;stroke-linecap:round;stroke-linejoin:round" />
  <path
     style="fill:#fcdd09;stroke:#000000;stroke-width:8;stroke-linecap:round;stroke-linejoin:round;fill-opacity:1"
     inkscape:connector-curvature="0"
     id="path859"
     d="m 450.47155,280.69711 a 95.10057,23.857983 0 0 1 -95.10057,23.85798 95.10057,23.857983 0 0 1 -95.10057,-23.85798 95.10057,23.857983 0 0 1 95.10057,-23.85799 95.10057,23.857983 0 0 1 95.10057,23.85799 z" />
  <path
     style="fill:#fcdd09;stroke:#000000;stroke-width:8;fill-opacity:1;stroke-linecap:round;stroke-linejoin:round"
     inkscape:connector-curvature="0"
     id="path861"
     d="m 279.207,265.59 c -0.475,15.352 -8.954,30.24 -21.916,38.475 -6.893,4.381 -14.837,6.915 -22.89,8.279 -21.05,3.567 -43.668,-1.022 -60.746,-13.832 -8.539,-6.405 -15.631,-14.767 -20.365,-24.334 -4.734,-9.567 -7.083,-20.331 -6.553,-30.992 0.507,-10.202 3.602,-20.15 7.904,-29.41 4.301,-9.265 9.798,-17.918 15.359,-26.486 11.12,-17.14 22.881,-34.878 25.44,-55.15 1.365,-10.814 -0.027,-21.945 -3.86,-32.15 -3.833,-10.204 -10.09,-19.469 -18,-26.961 C 157.747,58.045 135.39,50.57 113.624,51.78 c -14.61,0.813 -28.996,5.382 -41.4,13.15 1.269,3.7 3.465,7.078 6.331,9.74 3.668,3.407 8.314,5.581 12.176,8.766 4.503,3.714 7.857,8.803 9.494,14.405 1.638,5.603 1.553,11.696 -0.241,17.251 6.696,-3.047 13.735,-5.339 20.942,-6.818 6.094,-1.251 12.452,-1.913 18.507,-0.487 7.306,1.721 13.758,6.497 17.932,12.735 4.174,6.238 6.121,13.853 5.932,21.356 -0.314,12.508 -6.284,24.18 -13.27,34.561 -6.987,10.379 -15.16,20.03 -20.822,31.19 -6.365,12.534 -9.356,26.764 -8.556,40.799 0.799,14.03 5.388,27.838 13.168,39.546 7.779,11.709 18.73,21.291 31.376,27.43 12.646,6.139 26.954,8.818 40.962,7.649 11.339,-0.946 22.307,-4.332 33.409,-6.827 11.1,-2.494 22.733,-4.094 33.801,-1.453 3.069,0.732 6.05,1.783 9.128,2.496 3.073,0.712 6.292,1.08 9.379,0.427 3.233,-0.685 6.149,-2.459 8.666,-4.6 2.517,-2.141 4.684,-4.655 6.919,-7.089 8.761,-9.543 18.858,-18.217 24.838,-29.708 2.837,-5.451 4.663,-11.427 5.357,-17.533 l -61.852,-7.792 3.409,14.611 z" />
  <path
     style="fill:#fcdd09;stroke:#000000;stroke-width:8;fill-opacity:1;stroke-linecap:round;stroke-linejoin:round"
     inkscape:connector-curvature="0"
     id="path863"
     d="m 431.547,265.59 c 0.475,15.352 8.954,30.24 21.916,38.475 6.893,4.381 14.837,6.915 22.89,8.279 21.05,3.567 43.668,-1.022 60.746,-13.832 8.539,-6.405 15.631,-14.767 20.365,-24.334 4.734,-9.567 7.083,-20.331 6.553,-30.992 -0.507,-10.202 -3.602,-20.15 -7.904,-29.41 -4.301,-9.265 -9.798,-17.918 -15.359,-26.486 -11.12,-17.14 -22.882,-34.878 -25.44,-55.15 -1.365,-10.814 0.027,-21.945 3.86,-32.15 3.833,-10.204 10.09,-19.469 18,-26.961 15.834,-14.984 38.19,-22.459 59.956,-21.249 14.61,0.813 28.996,5.382 41.4,13.15 -1.269,3.7 -3.465,7.078 -6.331,9.74 -3.668,3.407 -8.314,5.581 -12.176,8.766 -4.503,3.714 -7.857,8.803 -9.494,14.405 -1.638,5.603 -1.553,11.696 0.241,17.251 -6.696,-3.047 -13.735,-5.339 -20.942,-6.818 -6.094,-1.251 -12.452,-1.913 -18.507,-0.487 -7.306,1.721 -13.758,6.497 -17.932,12.735 -4.174,6.238 -6.121,13.853 -5.932,21.356 0.314,12.508 6.284,24.18 13.27,34.561 6.987,10.379 15.16,20.03 20.822,31.19 6.365,12.534 9.356,26.764 8.556,40.799 -0.799,14.03 -5.388,27.838 -13.168,39.546 -7.779,11.709 -18.73,21.291 -31.376,27.43 -12.646,6.139 -26.954,8.818 -40.962,7.649 -11.339,-0.946 -22.307,-4.332 -33.409,-6.827 -11.1,-2.494 -22.733,-4.094 -33.801,-1.453 -3.069,0.732 -6.05,1.783 -9.128,2.496 -3.073,0.712 -6.292,1.08 -9.379,0.427 -3.233,-0.685 -6.149,-2.459 -8.666,-4.6 -2.517,-2.141 -4.684,-4.655 -6.919,-7.089 -8.761,-9.543 -18.858,-18.217 -24.838,-29.708 -2.837,-5.451 -4.663,-11.427 -5.357,-17.533 l 61.852,-7.792 -3.409,14.611 z" />
  <path
     style="fill:#fcdd09;stroke:#000000;stroke-width:8;stroke-linejoin:round;fill-opacity:1;stroke-linecap:round"
     inkscape:connector-curvature="0"
     id="path865"
     d="m 355.387,30.15 c 0,0 -35.598,24.927 -50.25,40.75 -33.03,35.672 -61.1,76.53 -82.938,119.97 -4.371,8.694 -9.375,27.656 -9.375,27.656 0,0 14.321,8.316 20.16,14.06 9.328,9.187 17.361,20.01 22.969,31.844 2.402,5.067 4.344,16.25 4.344,16.25 0,0 30.366,-6.753 45.781,-8.75 13.509,-1.75 27.18,-2.111 40.781,-2.813 2.84,-0.147 8.531,-0.281 8.531,-0.281 0,0 5.691,0.135 8.531,0.281 13.604,0.702 27.24,1.062 40.75,2.813 15.416,1.997 45.813,8.75 45.813,8.75 0,0 1.942,-11.183 4.344,-16.25 5.608,-11.831 13.641,-22.657 22.969,-31.844 5.835,-5.747 20.12,-14.06 20.12,-14.06 0,0 -4.972,-18.962 -9.344,-27.656 C 466.734,147.44 438.635,106.57 405.604,70.9 390.952,55.077 355.384,30.15 355.384,30.15 Z" />
  <path
     style="fill:#fcdd09;stroke:#000000;stroke-width:8;fill-opacity:1"
     d="M 355.38672 30.150391 C 355.38672 30.150391 341.11497 40.170391 326.91797 51.525391 C 329.03097 54.059391 332.46022 58.309141 334.19922 61.369141 C 335.67022 63.957141 337.73047 69.869141 337.73047 69.869141 L 337.73047 112.80664 L 298.35938 112.80664 C 295.59337 112.16164 290.33988 110.77364 287.79688 108.93164 C 284.63887 106.64664 282.06788 103.42734 280.29688 99.902344 C 266.25687 117.57734 253.35213 136.21259 241.70312 155.55859 C 246.16712 153.60859 251.56288 151.41484 255.29688 150.33984 C 265.48388 147.40684 286.64062 144.93359 286.64062 144.93359 L 337.73047 144.93359 L 337.73047 172.40234 C 337.61847 182.51234 337.00797 204.22409 333.79297 216.12109 C 332.85997 219.57309 331.31197 222.91534 329.16797 225.77734 C 326.04797 229.94334 317.54297 236.24609 317.54297 236.24609 L 393.23242 236.24609 C 393.23242 236.24609 384.75867 229.94434 381.63867 225.77734 C 379.49467 222.91434 377.91442 219.57309 376.98242 216.12109 C 373.76842 204.22409 373.14892 182.51034 373.04492 172.40234 C 373.01092 169.03334 373.04492 166.96484 373.04492 166.96484 L 373.04492 144.93359 L 424.20312 144.93359 C 424.20312 144.93359 445.36483 147.40784 455.54883 150.33984 C 459.26583 151.40984 464.62712 153.58334 469.07812 155.52734 C 457.44013 136.21234 444.53862 117.61675 430.51562 99.96875 C 428.74563 103.47075 426.18687 106.6655 423.04688 108.9375 C 420.50988 110.7735 415.25838 112.1645 412.48438 112.8125 L 373.01562 112.8125 L 373.01562 69.873047 C 373.01562 69.873047 375.07687 63.961047 376.54688 61.373047 C 378.29287 58.300047 381.74238 54.027047 383.85938 51.498047 C 369.67638 40.147047 355.39062 30.154297 355.39062 30.154297 L 355.38672 30.150391 z "
     id="path867" />
  <path
     style="fill:none;stroke:#000000;stroke-width:8"
     d="m 165.187,315.41 c -13.544,-9.47 -22.917,-24.696 -25.27,-41.05 -1.092,-7.583 -0.736,-15.327 0.487,-22.89 2.158,-13.347 7.03,-26.25 14.235,-37.689"
     id="path873"
     inkscape:connector-curvature="0" />
  <path
     style="fill:none;stroke:#000000;stroke-width:8"
     d="m 545.557,315.41 c 13.544,-9.47 22.917,-24.696 25.27,-41.05 1.092,-7.583 0.736,-15.327 -0.487,-22.89 -2.158,-13.347 -7.03,-26.25 -14.235,-37.689"
     id="path875"
     inkscape:connector-curvature="0" />
  <path
     style="stroke:#000000"
     inkscape:connector-curvature="0"
     id="path879"
     d="m 355.377,229.28 c 0,0 -20.641,0.258 -30.906,1.156 -20.621,1.805 -41.16,4.648 -61.5,8.5 -5.419,1.026 -13.326,2.92 -20.12,4.625 3.232,4.069 6.183,8.347 8.813,12.813 5.137,-1.367 10.483,-2.719 14.406,-3.5 19.533,-3.889 39.33,-6.602 59.19,-8.125 10.01,-0.768 30.12,-0.5 30.12,-0.5 0,0 20.11,-0.268 30.12,0.5 19.858,1.523 39.655,4.236 59.19,8.125 3.93,0.783 9.265,2.13 14.406,3.5 2.631,-4.469 5.609,-8.741 8.844,-12.813 -6.805,-1.707 -14.73,-3.597 -20.16,-4.625 -20.339,-3.852 -40.91,-6.695 -61.53,-8.5 -10.265,-0.899 -30.875,-1.156 -30.875,-1.156 z" />
</svg>
