<?xml version="1.0" encoding="UTF-8" standalone="no"?>
<!-- Created with Inkscape (http://www.inkscape.org/) -->
<svg
   xmlns:svg="http://www.w3.org/2000/svg"
   xmlns="http://www.w3.org/2000/svg"
   xmlns:xlink="http://www.w3.org/1999/xlink"
   version="1.0"
   width="562.51031"
   height="635.82385"
   id="svg2"
   xml:space="preserve"><defs
     id="defs5"><clipPath
       id="clipPath91"><path
         d="M 1819,5835.67 L 1893,5835.67 L 1893,5806.67 L 1819,5806.67 L 1819,5835.67 z"
         id="path93" /></clipPath><clipPath
       id="clipPath23"><path
         d="M 0.029999,841.95 L 595.29,841.95 L 595.29,0.03 L 0.029999,0.03 L 0.029999,841.95 z"
         id="path25" /></clipPath><clipPath
       id="clipPath17"><path
         d="M 0,841.89 L 595.276,841.89 L 595.276,0 L 0,0 L 0,841.89 z"
         id="path19" /></clipPath><linearGradient
       id="linearGradient3315"><stop
         id="stop3317"
         style="stop-color:#d8201f;stop-opacity:1"
         offset="0" /><stop
         id="stop3319"
         style="stop-color:#d8201f;stop-opacity:0"
         offset="1" /></linearGradient><linearGradient
       id="linearGradient3305"><stop
         id="stop3307"
         style="stop-color:#ffffff;stop-opacity:1"
         offset="0" /><stop
         id="stop3313"
         style="stop-color:#000000;stop-opacity:1"
         offset="0.5" /><stop
         id="stop3309"
         style="stop-color:#ffffff;stop-opacity:0"
         offset="1" /></linearGradient><linearGradient
       id="linearGradient5734"><stop
         id="stop5736"
         style="stop-color:#150000;stop-opacity:1"
         offset="0" /><stop
         id="stop5738"
         style="stop-color:#0a0000;stop-opacity:0.49803901"
         offset="1" /><stop
         id="stop5740"
         style="stop-color:#000000;stop-opacity:0"
         offset="1" /></linearGradient><linearGradient
       id="linearGradient5570"><stop
         id="stop5742"
         style="stop-color:#0000ff;stop-opacity:1"
         offset="0" /><stop
         id="stop5754"
         style="stop-color:#00007f;stop-opacity:1"
         offset="0.5" /><stop
         id="stop5756"
         style="stop-color:#00003f;stop-opacity:0.49803901"
         offset="0.75" /><stop
         id="stop5574"
         style="stop-color:#000000;stop-opacity:0"
         offset="1" /></linearGradient><linearGradient
       id="linearGradient5556"><stop
         id="stop5558"
         style="stop-color:#000000;stop-opacity:1"
         offset="0" /><stop
         id="stop5560"
         style="stop-color:#000000;stop-opacity:0"
         offset="1" /></linearGradient><linearGradient
       id="linearGradient3635"><stop
         id="stop3637"
         style="stop-color:#00a43f;stop-opacity:1"
         offset="0" /><stop
         id="stop3643"
         style="stop-color:#000000;stop-opacity:0.49803901"
         offset="0.97266543" /><stop
         id="stop3639"
         style="stop-color:#00a43f;stop-opacity:0"
         offset="1" /></linearGradient><linearGradient
       id="linearGradient3599"><stop
         id="stop3601"
         style="stop-color:#f9d100;stop-opacity:1"
         offset="0" /><stop
         id="stop3613"
         style="stop-color:#f9d100;stop-opacity:0.69019598"
         offset="0.63930351" /><stop
         id="stop3607"
         style="stop-color:#ffffff;stop-opacity:0.58823502"
         offset="0.95555556" /><stop
         id="stop3609"
         style="stop-color:#fce87f;stop-opacity:0.29411799"
         offset="0.97949618" /><stop
         id="stop3603"
         style="stop-color:#f9d100;stop-opacity:0"
         offset="1" /></linearGradient><linearGradient
       id="linearGradient3587"><stop
         id="stop3589"
         style="stop-color:#f9d100;stop-opacity:1"
         offset="0" /><stop
         id="stop3597"
         style="stop-color:#f9d100;stop-opacity:0.74901998"
         offset="0.02831276" /><stop
         id="stop3595"
         style="stop-color:#f9d100;stop-opacity:0.49803901"
         offset="0.95555556" /><stop
         id="stop3591"
         style="stop-color:#f9d100;stop-opacity:0"
         offset="1" /></linearGradient><linearGradient
       id="linearGradient3980"><stop
         id="stop3982"
         style="stop-color:#f9d100;stop-opacity:1"
         offset="0" /><stop
         id="stop3988"
         style="stop-color:#f9d100;stop-opacity:1"
         offset="0.5" /><stop
         id="stop3984"
         style="stop-color:#f9d100;stop-opacity:0"
         offset="1" /></linearGradient><linearGradient
       id="linearGradient3770"><stop
         id="stop3772"
         style="stop-color:#f9d100;stop-opacity:1"
         offset="0" /><stop
         id="stop3585"
         style="stop-color:#f9d100;stop-opacity:1"
         offset="0.14814815" /><stop
         id="stop3780"
         style="stop-color:#ffffff;stop-opacity:1"
         offset="0.5" /><stop
         id="stop3774"
         style="stop-color:#ffffff;stop-opacity:0"
         offset="1" /></linearGradient><linearGradient
       id="linearGradient5353"><stop
         id="stop5355"
         style="stop-color:#f9d100;stop-opacity:1"
         offset="0" /><stop
         id="stop5357"
         style="stop-color:#f9d100;stop-opacity:0"
         offset="1" /></linearGradient><radialGradient
       cx="-941.50446"
       cy="516.53778"
       r="209.29175"
       fx="-941.50446"
       fy="516.53778"
       id="radialGradient5359"
       xlink:href="#linearGradient5353"
       gradientUnits="userSpaceOnUse"
       gradientTransform="matrix(0.419625,-8.89134,9.91717,0.464332,-4258.93,-7979.38)" /><radialGradient
       cx="-941.50446"
       cy="516.53778"
       r="209.29175"
       fx="-941.50446"
       fy="516.53778"
       id="radialGradient2893"
       xlink:href="#linearGradient5353"
       gradientUnits="userSpaceOnUse"
       gradientTransform="matrix(0.462344,-9.46235,10.9268,0.494152,-4923.85,-8781.59)" /><radialGradient
       cx="-941.50446"
       cy="516.53778"
       r="209.29175"
       fx="-941.50446"
       fy="516.53778"
       id="radialGradient3442"
       xlink:href="#linearGradient5353"
       gradientUnits="userSpaceOnUse"
       gradientTransform="matrix(0.374389,-7.59531,8.84811,0.39665,-3880.78,-7030.1)" /><radialGradient
       cx="-941.50446"
       cy="516.53778"
       r="209.29175"
       fx="-941.50446"
       fy="516.53778"
       id="radialGradient2822"
       xlink:href="#linearGradient5353"
       gradientUnits="userSpaceOnUse"
       gradientTransform="matrix(0.371124,-7.59544,8.77096,0.396656,-4730.55,-7040.28)" /><radialGradient
       cx="-941.50446"
       cy="516.53778"
       r="209.29175"
       fx="-941.50446"
       fy="516.53778"
       id="radialGradient2820"
       xlink:href="#linearGradient5353"
       gradientUnits="userSpaceOnUse"
       gradientTransform="matrix(0.419625,-8.89134,9.91717,0.464332,-4258.93,-7979.38)" /><linearGradient
       id="linearGradient2814"><stop
         id="stop2816"
         style="stop-color:#ffffff;stop-opacity:1"
         offset="0" /><stop
         id="stop2818"
         style="stop-color:#f9d100;stop-opacity:0"
         offset="1" /></linearGradient><linearGradient
       id="linearGradient3448"><stop
         id="stop3450"
         style="stop-color:#f9d100;stop-opacity:0"
         offset="0" /><stop
         id="stop3452"
         style="stop-color:#000000;stop-opacity:0"
         offset="1" /></linearGradient><radialGradient
       cx="-941.50446"
       cy="516.53778"
       r="209.29175"
       fx="-941.50446"
       fy="516.53778"
       id="radialGradient3022"
       xlink:href="#linearGradient5353"
       gradientUnits="userSpaceOnUse"
       gradientTransform="matrix(0.374389,-7.59531,8.84811,0.39665,-3880.78,-7030.1)" /><radialGradient
       cx="-941.50446"
       cy="516.53778"
       r="209.29175"
       fx="-941.50446"
       fy="516.53778"
       id="radialGradient3977"
       xlink:href="#linearGradient5353"
       gradientUnits="userSpaceOnUse"
       gradientTransform="matrix(0.376423,-7.70388,8.89618,0.40232,-3870.8,-7107.54)" /><radialGradient
       cx="263.01483"
       cy="254.59929"
       r="203.21964"
       fx="263.01483"
       fy="254.59929"
       id="radialGradient3778"
       xlink:href="#linearGradient3770"
       gradientUnits="userSpaceOnUse"
       gradientTransform="matrix(1.5414,1.50847,-1.36488,1.39468,210.613,-496.552)" /><linearGradient
       x1="-645.16986"
       y1="187.53987"
       x2="-343.18796"
       y2="141.64441"
       id="linearGradient4044"
       xlink:href="#linearGradient3980"
       gradientUnits="userSpaceOnUse"
       gradientTransform="translate(-220.872,-28.6847)" /><linearGradient
       x1="-645.16986"
       y1="187.53987"
       x2="-343.18796"
       y2="141.64441"
       id="linearGradient4074"
       xlink:href="#linearGradient3980"
       gradientUnits="userSpaceOnUse"
       gradientTransform="translate(-220.872,-28.6847)" /><radialGradient
       cx="273.57806"
       cy="340.00235"
       r="203.21964"
       fx="273.57806"
       fy="340.00235"
       id="radialGradient3605"
       xlink:href="#linearGradient3599"
       gradientUnits="userSpaceOnUse"
       gradientTransform="matrix(1.45268,-1.43692,1.59896,1.6165,-589.551,205.65)" /><linearGradient
       x1="229.79128"
       y1="478.81622"
       x2="197.77997"
       y2="164.03363"
       id="linearGradient4270"
       xlink:href="#linearGradient3635"
       gradientUnits="userSpaceOnUse"
       gradientTransform="translate(0.706332,3.28038)" /><linearGradient
       x1="1353.5381"
       y1="330.39435"
       x2="283.87616"
       y2="-155.14601"
       id="linearGradient4987"
       xlink:href="#linearGradient4981"
       gradientUnits="userSpaceOnUse"
       gradientTransform="matrix(1.5748,0,0,1.5748,-1858.36,-202.978)" /><linearGradient
       id="linearGradient4981"><stop
         id="stop4983"
         style="stop-color:#f8f8f8;stop-opacity:1"
         offset="0" /><stop
         id="stop4985"
         style="stop-color:#f8f8f8;stop-opacity:0"
         offset="1" /></linearGradient><radialGradient
       cx="177.13411"
       cy="266.59695"
       r="203.71964"
       fx="177.13411"
       fy="266.59695"
       id="radialGradient5568"
       xlink:href="#linearGradient5734"
       gradientUnits="userSpaceOnUse"
       gradientTransform="matrix(0.165271,-0.457358,3.62128,1.3086,-1110.27,12.5148)" /><radialGradient
       cx="327.93924"
       cy="447.43021"
       r="101.12995"
       fx="327.93924"
       fy="447.43021"
       id="radialGradient5746"
       xlink:href="#linearGradient5570"
       gradientUnits="userSpaceOnUse"
       gradientTransform="matrix(-2.14506,-5.5443,0.490506,-0.189774,805.038,2283.76)" /><radialGradient
       cx="334.13028"
       cy="290.4928"
       r="101.12995"
       fx="334.13028"
       fy="290.4928"
       id="radialGradient3311"
       xlink:href="#linearGradient3305"
       gradientUnits="userSpaceOnUse"
       gradientTransform="matrix(7.33687,-4.08012,4.34637,7.81564,-3400.38,-549.811)" /><radialGradient
       cx="269.32611"
       cy="315.90021"
       r="203.71964"
       fx="269.32611"
       fy="315.90021"
       id="radialGradient3323"
       xlink:href="#linearGradient3315"
       gradientUnits="userSpaceOnUse"
       gradientTransform="matrix(2.4044,-1.90981,2.93309,3.69267,-1383.83,-329.274)" /><style
       type="text/css"
       id="style6" /><style
       type="text/css"
       id="style4838" /><clipPath
       id="clipPath3859"><path
         d="M 0.029999,841.95 L 595.29,841.95 L 595.29,0.03 L 0.029999,0.03 L 0.029999,841.95 z"
         id="path3861" /></clipPath><clipPath
       id="clipPath3855"><path
         d="M 0,841.89 L 595.276,841.89 L 595.276,0 L 0,0 L 0,841.89 z"
         id="path3857" /></clipPath></defs><g
     transform="matrix(1.25,0,0,-1.25,-351.68136,578.24813)"
     id="g11"><g
       transform="scale(0.12,0.12)"
       id="g87"><g
         clip-path="url(#clipPath91)"
         id="g89"><g
           transform="scale(8.33333,8.33333)"
           id="g95" /></g></g><g
       transform="matrix(2.09,0,0,-2.06193,-1257.4861,432.51551)"
       id="g148" /><path
       d="M 506.57371,-44.110966 C 547.0045,3.1601337 661.61251,6.4252937 695.81685,120.08743 C 709.01266,196.57107 688.41222,258.6784 729.40374,358.63914 C 715.33164,369.4654 680.26472,406.90554 680.26472,438.55367 C 610.30056,417.67835 612.18501,489.33459 506.57371,447.01779 C 409.78943,489.33459 409.69172,417.67835 334.98483,438.55367 C 332.83162,406.92811 304.51751,369.56324 283.29468,358.63914 C 324.68412,259.22988 297.32696,196.88882 310.86752,120.08743 C 363.79454,-10.100096 471.87086,1.9541837 506.57371,-44.110966 z"
       id="path3735"
       style="fill:#231f20;fill-opacity:1;fill-rule:evenodd;stroke:#231f20;stroke-width:3.89918685px;stroke-linecap:butt;stroke-linejoin:miter;stroke-opacity:0.98039216" /><path
       d="M 503.07457,122.76153 C 535.67378,121.14604 547.94958,107.61068 551.77043,94.141314 C 556.4867,77.515374 544.00002,61.105004 542.03299,49.465414 C 541.63853,47.131234 549.40634,52.891044 558.62547,55.923694 C 569.89045,59.629334 583.14208,60.388064 586.67766,59.582924 C 592.24903,58.314174 606.89576,54.829414 610.99623,48.406394 C 619.43968,39.475134 625.49464,32.195984 627.02783,34.659714 C 654.58742,54.128794 679.09816,80.992674 691.98511,123.8164 C 704.94203,198.9154 684.71453,259.89835 724.96395,358.04941 C 711.14661,368.67968 676.71453,405.44201 676.71453,436.51718 C 608.01699,416.01979 609.86733,486.37877 506.168,444.82807 C 411.13588,486.37877 411.03994,416.01979 337.68553,436.51718 C 335.57131,405.46417 307.76979,368.77575 286.93117,358.04941 C 327.57131,260.43984 300.70942,199.22739 314.00484,123.8164 C 331.02573,81.949184 353.85538,55.064014 378.06013,36.249004 C 380.51846,34.338074 384.90626,39.057794 386.14403,40.777734 C 395.16412,53.311524 405.05315,61.741514 419.74513,66.514644 C 444.24834,74.475254 467.30316,45.043554 466.85103,46.609304 C 463.64902,57.697824 453.14469,73.472624 454.10228,89.127804 C 455.28255,108.42364 477.34915,122.29358 503.07457,122.76153 z"
       id="path2392"
       style="fill:#0066b3;fill-opacity:1;fill-rule:evenodd;stroke:#1b1a1c;stroke-width:3.82859659px;stroke-linecap:butt;stroke-linejoin:miter;stroke-opacity:1" /><g
       transform="translate(983.75439,-308.35)"
       id="g3953"><path
         d="M -580.68723,599.68293 C -574.01143,598.65543 -570.40362,594.8539 -565.10392,594.01829 C -559.83481,593.1875 -554.46059,593.40771 -548.97815,594.71027 C -547.16926,553.62378 -577.75775,548.62045 -581.23507,512.74264 C -593.9666,513.74264 -606.69814,520.82949 -619.42967,524.93617 C -627.3677,531.92998 -633.96626,520.31824 -635.11143,513.59283 C -642.38835,497.74219 -648.30835,487.47438 -656.40636,475.72924 C -660.53107,463.54068 -656.61451,458.05317 -656.24099,449.61314 C -656.2961,437.74419 -656.18435,429.54692 -653.30059,423.3234 C -649.37462,417.16777 -638.90942,432.19807 -631.05433,442.54468 C -629.63533,444.41376 -627.62589,446.09896 -628.23611,448.38788 C -634.23752,455.74815 -641.69407,462.81739 -639.60789,471.79517 C -631.47887,484.44031 -625.75506,509.35067 -618.07483,505.29103 L -585.41765,491.2951 C -572.62635,485.87463 -573.38906,487.02214 -585.40773,487.76295 C -595.77435,486.85906 -603.85607,487.91939 -609.46962,484.52179 C -620.37491,480.6592 -615.30156,473.10923 -616.31352,466.96358 C -615.00289,445.03267 -621.99927,424.73832 -618.08959,404.97621 C -615.16499,394.01064 -612.51378,387.34246 -608.28233,381.60431 C -606.86435,379.68143 -603.22719,375.85349 -599.6402,379.75264 C -594.48493,384.78601 -589.69595,391.65084 -585.38597,400.91064 C -580.74233,408.95256 -597.86775,406.45163 -605.88131,418.58147 C -600.81262,419.35504 -595.5224,419.99568 -594.55786,423.23173 C -593.24479,427.10099 -601.26866,430.01891 -603.84905,434.83951 C -601.09181,445.58709 -605.13711,455.64247 -595.63363,464.14129 C -563.99671,473.93506 -519.16617,460.57102 -517.13948,481.58139 C -491.36024,469.74879 -480.04266,481.53074 -459.53047,482.48953 C -451.05846,474.38415 -442.45332,467.87625 -433.43479,466.32923 C -428.57387,466.33873 -428.18012,465.21111 -426.03279,461.16325 C -418.16594,446.59499 -405.67743,435.11356 -407.35449,421.82423 C -412.23437,399.48943 -424.13743,398.97949 -426.77439,385.76563 C -430.14422,380.50183 -430.22976,380.81246 -433.76686,378.11568 C -438.12931,374.76683 -441.60987,371.07367 -443.21447,365.65644 C -450.95675,358.79051 -418.05583,358.90565 -409.01169,363.71058 C -407.65685,370.25895 -416.97175,376.80734 -408.75252,383.35571 C -402.12372,388.6125 -402.47138,397.50823 -399.33081,403.74382 C -394.34236,413.64837 -391.57369,421.95898 -386.58524,425.67277 C -380.22592,435.7535 -392.60285,449.64784 -395.02507,460.60672 C -386.03403,456.7288 -368.98172,453.71345 -365.99638,437.45523 L -365.11177,402.92186 C -362.90054,395.67995 -376.32466,386.4182 -381.85921,379.95087 C -389.72119,373.84562 -391.82503,367.74037 -393.90726,361.63512 C -396.01032,356.32524 -371.62458,353.99658 -363.99971,357.90247 C -360.23166,360.10459 -361.10761,370.43372 -360.43074,378.04539 C -357.09743,387.89167 -345.48465,380.68602 -346.02769,396.57636 C -345.61663,413.07398 -348.78234,428.37934 -341.42892,447.19107 C -338.92707,458.08421 -369.09246,464.66696 -365.81599,493.60215 C -367.92201,511.76293 -352.94911,525.46799 -374.0314,546.08048 C -344.56927,561.58685 -355.36305,581.99932 -352.94087,593.16731 C -353.35266,605.64939 -319.99809,612.79868 -325.28682,589.57123 C -327.45251,583.70788 -334.05069,575.51209 -339.78743,569.99315 C -364.45447,546.26263 -322.11667,507.68595 -300.76907,518.27788 C -309.90581,524.74805 -320.26764,527.54298 -325.43005,545.93615 C -319.34729,539.09427 -313.26452,534.7973 -307.18176,533.48918 C -301.49632,532.23862 -303.55851,533.54648 -305.70639,537.02074 C -323.96616,567.12983 -288.60253,577.48988 -294.7178,600.42431 C -302.93714,626.33619 -318.80821,633.56188 -347.35754,629.67399 C -409.14799,614.58153 -335.39617,572.72187 -385.04287,552.03291 C -408.4786,559.61493 -427.47477,544.40016 -455.35007,546.7579 C -468.04616,546.86373 -488.07043,555.57185 -496.81692,567.61354 C -494.05078,570.46059 -487.34746,567.00815 -480.43507,563.2212 C -476.33651,562.06591 -472.38747,561.09003 -472.42986,564.90387 C -476.0631,602.67355 -481.99894,638.42259 -523.92735,642.58631 C -525.09795,642.34529 -525.7899,642.65571 -525.39774,645.05128 C -525.41643,652.13283 -528.96662,656.86559 -534.52883,658.86829 C -538.78827,659.90905 -539.73333,661.53341 -539.30569,656.86666 C -538.82835,649.97229 -540.58987,641.7291 -544.70083,648.40287 C -547.3584,652.74811 -550.3399,655.68973 -553.5201,657.77029 C -559.4506,660.25284 -566.61707,665.05195 -562.5664,655.36311 C -560.00469,649.33321 -554.89616,644.01309 -557.97212,640.09731 C -582.41951,639.91283 -577.85953,632.00872 -595.04261,627.90379 C -612.12987,625.82123 -624.47707,629.28539 -625.36909,617.89751 C -625.5117,616.07699 -624.35191,611.52504 -620.49563,608.41923 C -612.20299,601.35197 -609.79992,605.91513 -613.21415,598.93356 C -620.25938,588.01319 -603.49022,587.1479 -596.94528,588.88743 C -591.05358,590.69699 -581.91313,595.48536 -580.68723,599.68293 z"
         id="path2507"
         style="fill:#231f20;fill-opacity:1;fill-rule:evenodd;stroke:#231f03;stroke-width:0.80000001px;stroke-linecap:butt;stroke-linejoin:miter;stroke-opacity:0.00784314" /><path
         d="M -457.59731,497.99233 C -455.3439,486.60275 -471.76371,482.99658 -481.75251,480.62965 C -492.97127,477.97127 -505.74394,479.29265 -517.07319,483.4646 L -520.64032,499.63693 C -522.76064,500.04885 -524.16258,499.56279 -523.38132,496.34773 C -521.63987,485.79213 -519.37239,474.97353 -533.24892,472.22692 L -587.71658,468.82276 C -596.72589,467.18544 -602.08749,464.13479 -603.14571,459.89029 C -603.59459,451.35168 -606.03434,437.93516 -605.1793,433.30829 C -602.61104,429.20274 -596.60802,426.85723 -597.67565,423.71931 C -596.81338,418.38868 -611.53251,421.59307 -606.73553,415.80391 C -602.86779,413.04904 -598.81036,410.29418 -598.48474,407.53931 C -597.51355,403.78083 -608.06111,392.63781 -611.91351,395.48061 C -625.18458,412.33773 -612.14894,442.35387 -614.38255,471.13052 C -614.744,476.03695 -614.25643,480.71184 -606.7086,483.46119 C -594.32084,484.36754 -581.29348,483.99468 -570.24433,487.57823 C -565.00939,490.53487 -562.21723,495.62895 -551.60979,493.88467 C -549.45816,494.47025 -551.92563,496.87152 -553.26095,496.97101 C -558.60872,497.36947 -563.35566,495.96539 -567.23733,491.96554 C -570.43299,494.89911 -574.40159,499.50613 -576.27879,509.24365 C -580.44216,540.29402 -541.41158,556.76085 -546.1312,595.84136 C -541.57099,601.01305 -536.33706,606.75315 -535.21511,611.35179 C -534.60227,613.86367 -534.28939,616.5536 -537.07951,614.75811 C -541.56949,606.47023 -547.17725,598.48773 -554.90496,596.94373 C -562.16053,594.20996 -570.78447,599.55083 -578.04003,601.44286 L -577.38117,605.16674 C -577.36919,607.72408 -580.11508,606.32843 -580.33636,605.47593 C -581.95467,599.24139 -587.79859,594.17267 -593.32441,591.95927 C -608.62014,585.8325 -616.73071,593.16995 -608.89969,598.58407 C -605.54989,600.56556 -600.64225,600.68157 -597.26719,601.45667 C -593.23766,602.38206 -593.27225,605.2094 -594.09403,606.26484 C -595.86212,609.19855 -601.00699,608.75547 -607.152,607.31226 C -609.8794,606.37179 -612.5603,607.72807 -615.07605,608.86324 C -618.22215,610.42402 -621.04293,613.03894 -621.50574,618.05072 C -625.72603,626.70055 -601.54027,622.69721 -592.17319,626.82107 C -577.89331,630.43948 -572.08642,643.94653 -545.95402,635.93884 C -543.31687,634.53911 -542.00383,636.37018 -540.7293,638.65004 C -537.58744,644.42847 -536.09887,648.94404 -537.38374,653.6158 C -537.0522,656.42798 -536.41167,656.24876 -533.98659,655.40007 C -524.45633,651.45535 -525.05645,634.22888 -535.54108,621.33736 C -532.10903,624.15715 -529.34459,627.70485 -526.87832,634.8812 C -525.50337,637.8489 -525.00878,637.11166 -524.18787,636.83211 C -496.53284,624.32592 -500.82449,597.77657 -500.46644,573.9102 C -500.30967,570.69111 -499.15895,566.38766 -497.14597,563.80395 C -485.08929,554.13953 -472.86337,546.33672 -460.09996,544.44634 C -426.8159,541.33095 -413.28678,558.53053 -386.79607,550.61955 C -362.69741,541.05138 -361.84299,521.22175 -367.10854,505.54797 C -372.39095,464.11999 -349.19002,463.18463 -343.61936,450.44193 C -343.63624,443.86964 -347.14215,438.35741 -347.58263,432.55531 C -348.35727,422.35171 -347.17025,412.50477 -348.04071,402.28374 C -345.30932,380.78315 -360.74403,387.30815 -362.73484,378.10335 C -364.21071,376.38432 -372.37299,376.69162 -378.08444,377.09038 C -391.19373,375.56302 -363.59687,390.561 -362.53225,401.04433 C -363.08393,413.8183 -362.69911,423.78278 -364.23643,439.51367 C -364.84035,450.6049 -381.11759,459.20568 -401.9755,466.58431 C -420.73905,471.27151 -446.26403,476.7485 -454.46587,499.49809 C -456.00905,501.99242 -456.75605,499.70959 -457.59731,497.99233 z"
         id="path2509"
         style="fill:#ffffff;fill-rule:evenodd;stroke:#231f20;stroke-width:0.80000001px;stroke-linecap:butt;stroke-linejoin:miter;stroke-opacity:1" /><path
         d="M -570.57207,631.73849 C -579.07021,618.95693 -563.62582,618.93652 -558.37889,622.06972 C -557.11877,622.45663 -552.84828,620.64489 -552.34018,620.52649 C -546.42711,619.14857 -547.82357,620.37385 -548.03626,621.27819 C -553.27783,625.73539 -558.72631,632.71307 -564.34203,634.27666 C -567.25294,634.57779 -569.70635,632.81562 -570.57207,631.73849 z"
         id="path2511"
         style="fill:#231f20;fill-opacity:1;fill-rule:evenodd;stroke:#231f20;stroke-width:0.80000001px;stroke-linecap:butt;stroke-linejoin:miter;stroke-opacity:1" /><path
         d="M -559.65117,631.32139 C -561.36855,632.44996 -560.97417,630.33511 -561.11544,629.31502 C -561.54609,626.20547 -562.61733,624.654 -564.84596,623.50403 C -568.88427,621.31396 -566.95191,620.74559 -564.67933,620.6754 C -561.21334,620.48095 -557.77968,622.40235 -556.3153,624.59585 C -555.59319,626.51978 -556.41336,629.11984 -559.65117,631.32139 z"
         id="path2513"
         style="fill:#ffffff;fill-rule:evenodd;stroke:#231f20;stroke-width:0.80000001px;stroke-linecap:butt;stroke-linejoin:miter;stroke-opacity:1" /><path
         d="M -704.52563,262.94 A 1.889653,1.8266646 0 1 1 -708.30494,262.94 A 1.889653,1.8266646 0 1 1 -704.52563,262.94 z"
         transform="matrix(0.6356305,-0.4533415,-0.7172566,-1.0056662,70.846015,573.97037)"
         id="path3285"
         style="fill:#ffffff;fill-opacity:1;fill-rule:nonzero;stroke:#231f20;stroke-width:0.40000001;stroke-linecap:round;stroke-linejoin:miter;stroke-miterlimit:4;stroke-dasharray:none;stroke-opacity:1" /><path
         d="M -614.00527,618.61859 C -615.82247,617.98208 -615.06967,616.45931 -614.00527,616.52522 C -613.89827,616.68981 -609.24935,616.79263 -607.4261,617.52206 C -606.77018,617.36002 -607.01801,618.34324 -607.62547,618.61859 C -610.84045,618.89255 -611.58468,618.44738 -614.00527,618.61859 z"
         id="path3287"
         style="fill:#231f20;fill-opacity:1;fill-rule:evenodd;stroke:#231f20;stroke-width:0.80000001px;stroke-linecap:butt;stroke-linejoin:miter;stroke-opacity:1" /><path
         d="M -453.90354,490.04471 C -457.73854,488.36223 -458.73609,485.70075 -456.84291,483.28415 C -449.54166,475.86375 -441.21325,470.32811 -430.68251,467.99943 C -425.17851,467.17152 -421.22539,454.71635 -413.73334,445.61032 C -407.38851,437.89865 -404.27874,427.75063 -405.69787,424.20281 C -405.78739,416.8166 -408.99716,410.46449 -412.73239,404.31779 C -417.17263,397.01091 -428.32602,390.10452 -424.6017,380.51641 C -423.81961,379.97848 -428.51655,375.47818 -424.76259,376.9335 C -422.29366,377.89064 -417.99401,377.80054 -416.86748,379.23044 C -415.38058,386.09569 -407.76352,378.07835 -399.3931,407.30262 C -397.63322,413.447 -393.26372,421.00212 -388.94346,426.55431 C -383.77324,433.99115 -394.77514,445.54512 -397.76157,457.71163 C -396.8177,461.39311 -399.02034,464.11035 -405.40394,465.06006 C -436.62806,472.79182 -442.94207,480.812 -453.90354,490.04471 z"
         id="path3309"
         style="fill:#ffffff;fill-rule:evenodd;stroke:#231f20;stroke-width:0.80000001px;stroke-linecap:butt;stroke-linejoin:miter;stroke-opacity:1" /><path
         d="M -578.87038,503.91331 C -579.08784,506.10359 -579.96855,508.29389 -585.12835,510.48418 C -594.95857,512.40501 -605.96241,516.28188 -618.2956,522.37433 C -623.13803,523.8344 -627.51062,524.19819 -629.87285,519.87114 C -633.50636,508.93666 -642.28532,493.79543 -652.08866,479.19432 C -656.14073,473.25549 -656.52793,468.7826 -656.46923,464.48808 C -656.24696,458.49339 -654.96703,456.72939 -653.96605,453.84952 C -650.67107,444.79089 -645.20272,453.95354 -641.22661,455.32463 C -639.38442,456.90673 -637.4166,459.49879 -640.51141,463.54939 C -643.08834,466.45134 -641.27594,474.90943 -639.25981,477.31692 C -631.85294,486.70388 -632.68021,494.83924 -623.92778,506.10359 C -623.32991,507.4624 -619.38675,509.98523 -612.03763,506.1036 C -593.22999,497.22127 -588.90725,495.5814 -577.61878,490.45867 C -573.87584,489.92903 -569.92786,490.17624 -571.9866,492.96186 C -574.28119,496.32178 -576.57579,496.11605 -578.87038,503.91331 z"
         id="path3311"
         style="fill:#ffffff;fill-rule:evenodd;stroke:#231f20;stroke-width:0.80000001px;stroke-linecap:butt;stroke-linejoin:miter;stroke-opacity:1" /><path
         d="M -560.06725,655.68471 C -560.42558,658.42391 -558.81657,657.9662 -556.78231,656.81745 C -548.12623,651.22455 -546.77559,646.72972 -543.07614,641.41219 C -542.01261,639.42807 -543.33251,638.30495 -544.32216,637.78741 C -547.37523,638.31247 -550.07562,638.60241 -554.85664,640.27944 C -556.27409,640.69094 -554.63247,643.90511 -555.82777,645.39145 L -560.06725,655.68471 z"
         id="path3313"
         style="fill:#ffffff;fill-rule:evenodd;stroke:#231f20;stroke-width:0.80000001px;stroke-linecap:butt;stroke-linejoin:miter;stroke-opacity:1" /><path
         d="M -531.86519,646.38201 C -532.03286,641.40907 -532.49515,636.52677 -534.33799,632.06926 C -534.83469,630.52167 -536.51947,629.38161 -534.82448,628.47247 C -533.98482,628.38817 -533.05495,629.29615 -532.09438,630.54192 C -527.76019,635.42336 -531.08919,659.79071 -531.86519,646.38201 z"
         id="path3315"
         style="fill:#231f20;fill-opacity:1;fill-rule:evenodd;stroke:#231f20;stroke-width:0.80000001px;stroke-linecap:butt;stroke-linejoin:miter;stroke-opacity:1" /><path
         d="M -518.96943,635.59104 C -520.01463,636.99659 -523.05653,640.50485 -519.19187,639.88241 C -516.87308,639.50894 -508.93524,637.82559 -503.06434,634.38306 C -500.04609,632.39967 -497.54043,630.03889 -494.96139,627.94175 C -491.92792,625.47511 -498.23367,627.29211 -500.98786,627.11719 C -502.3541,627.03043 -503.63815,626.84659 -503.24982,626.38464 C -502.79079,625.83861 -499.59027,625.7835 -496.28017,624.63151 C -492.66182,623.37225 -488.91253,621.00991 -488.47015,620.38257 C -486.20033,617.16382 -484.32606,613.74248 -482.77953,610.15463 C -481.9713,608.27958 -487.57443,610.4238 -491.73163,610.63835 C -496.17483,610.86764 -499.73456,610.40985 -499.47324,609.71551 C -499.09135,608.70085 -482.26293,609.89714 -480.1145,602.97119 C -479.81961,602.02055 -478.00513,598.79722 -479.41236,597.33116 C -480.59827,596.09568 -487.9543,599.09459 -488.39783,598.10894 C -488.80804,597.1973 -486.76458,596.35463 -484.86518,595.60051 C -481.78393,594.37714 -477.78751,593.66435 -477.667,593.05233 C -477.04423,589.88943 -476.52447,586.60831 -476.13864,583.42153 C -475.85839,580.86929 -475.06227,579.11629 -478.25213,580.53896 C -478.82579,580.83543 -479.48316,581.25108 -480.20758,581.82063 C -485.08578,585.6559 -485.28426,586.80319 -491.61235,588.58502 C -492.43436,588.81647 -483.6921,582.1091 -478.82819,577.67594 C -475.8204,574.93452 -474.95727,572.62158 -474.9263,572.30578 C -474.77095,570.72179 -474.62213,569.13296 -474.47543,567.5414 C -472.71163,562.71616 -476.94091,565.21579 -479.71002,565.93076 C -484.47825,567.47486 -491.93595,570.78917 -495.41028,569.68903 C -497.64875,568.49396 -498.45895,569.50358 -498.03107,572.57466 C -500.33794,589.89194 -492.32192,620.79007 -518.96943,635.59104 z"
         id="path3317"
         style="fill:#ffdd00;fill-opacity:1;fill-rule:evenodd;stroke:#231f20;stroke-width:0.80000001px;stroke-linecap:butt;stroke-linejoin:miter;stroke-opacity:1" /><path
         d="M -380.35013,552.19855 L -381.48691,549.92497 L -376.37136,547.93559 L -373.24519,549.35658 C -339.15775,565.99986 -368.19367,596.61237 -344.82545,605.05927 C -321.73966,610.94307 -319.8337,593.37175 -326.35262,582.32347 C -338.89999,568.89128 -346.24253,562.63068 -344.46003,549.37666 C -342.39983,534.05783 -327.94323,522.63623 -308.73238,518.66326 C -304.94734,519.70248 -310.59105,522.42789 -312.40955,523.79584 C -325.58726,533.70863 -328.35721,543.43751 -330.62738,555.10582 C -332.56312,566.94063 -312.95655,577.84699 -312.14275,592.27039 C -312.02385,571.1374 -327.82761,569.90582 -327.70112,554.16499 C -326.90713,546.76309 -319.44053,542.37626 -311.47863,537.79251 C -304.05439,533.36743 -306.03483,534.19796 -309.28498,540.55656 C -324.59227,571.36201 -293.9629,580.9981 -296.51189,595.39655 C -299.9962,618.11931 -312.67755,631.36635 -341.13088,628.36346 C -367.65989,625.26216 -374.19199,614.74638 -371.10227,602.79903 C -366.29429,584.20749 -356.84359,563.72618 -380.35013,552.19855 z"
         id="path3319"
         style="fill:#ffdd00;fill-opacity:1;fill-rule:evenodd;stroke:#000000;stroke-width:0.80000001px;stroke-linecap:butt;stroke-linejoin:miter;stroke-opacity:1" /><path
         d="M -643.8293,454.75979 C -639.59651,456.11976 -639.06616,455.31371 -637.15747,454.34331 C -635.33775,453.07547 -634.39489,452.57917 -633.36612,450.53977 C -632.19161,448.43175 -631.42119,446.93614 -632.55041,444.87215 C -635.39886,439.04794 -638.33728,434.97512 -644.21382,429.24829 C -646.90186,425.81435 -654.35106,424.12399 -653.92519,431.08042 C -654.28278,436.7252 -655.52214,439.86348 -654.44685,446.46659 C -654.0796,448.01616 -654.51493,450.28091 -650.15574,451.83047 L -643.8293,454.75979 z"
         id="path3321"
         style="fill:#ffdd00;fill-opacity:1;fill-rule:evenodd;stroke:#231f20;stroke-width:2.4000001;stroke-linecap:butt;stroke-linejoin:miter;stroke-miterlimit:4;stroke-dasharray:none;stroke-opacity:1" /><path
         d="M -593.54773,407.19745 C -589.99769,406.36449 -584.96511,404.56013 -586.44603,401.47887 C -589.29448,396.15739 -590.17064,394.40461 -595.38584,386.63877 C -598.07388,383.20483 -603.67875,375.92764 -607.54399,383.24165 C -608.97436,384.77413 -610.94111,391.3781 -611.11991,392.18147 C -610.75267,393.73103 -611.18799,395.99578 -606.8288,397.54535 C -602.25315,399.805 -601.08168,402.37842 -599.27066,404.98364 C -597.81236,407.59252 -596.33893,407.78784 -593.54773,407.19745 z"
         id="path3323"
         style="fill:#ffdd00;fill-opacity:1;fill-rule:evenodd;stroke:#231f20;stroke-width:2.4000001;stroke-linecap:butt;stroke-linejoin:miter;stroke-miterlimit:4;stroke-dasharray:none;stroke-opacity:1" /><path
         d="M -377.41112,377.87558 L -382.86713,376.66314 C -388.42619,372.62165 -388.84534,368.58016 -390.95011,364.53867 C -392.11445,360.90517 -391.13204,360.45399 -389.73766,359.89096 C -382.35479,356.33107 -374.58075,358.33111 -367.71155,358.88059 L -365.28667,360.09303 C -361.25586,361.69297 -363.12327,368.59035 -364.07422,374.03617 C -364.41171,376.56842 -367.15653,376.60547 -368.51986,377.26935 L -377.41112,377.87558 z"
         id="path3325"
         style="fill:#ffdd00;fill-opacity:1;fill-rule:evenodd;stroke:#231f20;stroke-width:2.4000001;stroke-linecap:butt;stroke-linejoin:miter;stroke-miterlimit:4;stroke-dasharray:none;stroke-opacity:1" /><path
         d="M -439.65003,368.17601 C -440.7995,366.3557 -440.94002,363.75182 -437.83135,363.52831 C -430.44292,361.58081 -423.36078,363.31939 -416.05164,364.34499 C -414.45064,365.19937 -411.64634,364.97892 -411.39601,368.79939 C -412.33118,370.83427 -413.42448,372.91467 -413.73599,375.76054 C -414.34655,379.52604 -416.8418,379.62551 -418.83087,379.80311 C -421.75987,379.61946 -425.29595,379.10211 -427.52556,379.08803 C -434.09584,377.01211 -437.96607,371.47656 -439.65003,368.17601 z"
         id="path3327"
         style="fill:#ffdd00;fill-opacity:1;fill-rule:evenodd;stroke:#231f20;stroke-width:2.4000001;stroke-linecap:butt;stroke-linejoin:miter;stroke-miterlimit:4;stroke-dasharray:none;stroke-opacity:1" /><path
         d="M -654.07698,716.78708 C -653.23602,717.14914 -653.32895,716.07924 -644.61192,711.86752 C -636.26029,707.83234 -625.66181,699.38023 -615.43767,698.58428 C -579.74823,695.80587 -579.4573,730.27884 -527.41072,714.61582 C -508.21822,708.83999 -503.14948,699.32822 -480.16405,699.26259 C -461.45303,699.61052 -445.7465,714.61582 -423.05764,714.61582 C -395.39714,714.61582 -383.12342,697.89949 -358.55442,698.54738 C -340.67098,696.7759 -314.98304,704.42965 -298.71765,715.07643 C -298.21225,713.74641 -296.04328,706.22671 -291.3123,700.69345 C -284.91103,693.20665 -279.24992,685.74206 -281.49295,684.57901 C -299.34129,665.66989 -343.75695,653.72806 -359.42531,656.80572 C -386.265,656.43439 -403.00201,671.1656 -423.05764,670.23071 C -445.00442,670.51693 -459.77915,655.21511 -478.9563,656.80572 C -499.28027,654.78593 -519.06959,679.36891 -553.97632,676.40986 C -581.29564,674.00645 -590.24527,661.06485 -619.04392,660.14076 C -642.94506,660.04946 -658.67019,672.65775 -675.07114,684.56675 C -663.38133,696.4798 -660.20247,706.26511 -654.07698,716.78708 z"
         id="path3190"
         style="fill:#ffffff;fill-opacity:1;fill-rule:evenodd;stroke:#231f20;stroke-width:4;stroke-linecap:butt;stroke-linejoin:miter;stroke-miterlimit:4;stroke-dasharray:none;stroke-opacity:1" /><path
         d="M -601.86693,341.88793 C -592.4343,361.47847 -570.99422,374.00171 -554.88598,373.58641 C -534.28783,373.06734 -524.41511,359.84821 -508.3801,336.25087 C -508.34703,353.58499 -529.41103,367.97661 -527.21963,398.66911 C -526.67895,415.46638 -504.62919,428.95249 -479.09405,428.65494 C -449.22486,430.40552 -431.51907,409.37698 -432.79968,394.95299 C -434.32451,377.77816 -449.77391,358.44479 -446.05554,339.50663 C -440.17016,362.47846 -401.71011,378.35016 -375.13031,355.00196 C -370.90215,351.28787 -366.97461,346.58132 -363.52664,340.75304 C -386.66615,313.75747 -448.84619,303.59399 -478.14804,274.44719 C -507.28068,302.93607 -557.07775,309.94223 -601.86693,341.88793 z"
         id="path3733"
         style="fill:#ffffff;fill-rule:evenodd;stroke:#000000;stroke-width:0.80000001px;stroke-linecap:butt;stroke-linejoin:miter;stroke-opacity:1" /></g></g></svg>