<?xml version="1.0" encoding="UTF-8" standalone="no"?>
<!-- Created with Inkscape (http://www.inkscape.org/) -->
<svg
   xmlns:svg="http://www.w3.org/2000/svg"
   xmlns="http://www.w3.org/2000/svg"
   version="1.0"
   width="294.96399"
   height="377.61716"
   id="svg2472">
  <defs
     id="defs2475" />
  <g
     transform="translate(-9.8004729,-2.5204254)"
     id="g3854">
    <path
       d="M 302.19947,5.0854255 L 302.19947,220.59849 C 302.19947,307.47489 237.24171,377.57258 157.1368,377.57258 C 77.323248,377.57258 12.365473,307.47489 12.365473,220.59849 L 12.365473,5.0854255 L 302.19947,5.0854255"
       id="path523"
       style="opacity:1;fill:#e7e7e7;fill-opacity:1;fill-rule:evenodd;stroke:#000000;stroke-width:5.13000011;stroke-miterlimit:4;stroke-dasharray:none;stroke-opacity:1" />
    <path
       d="M 117.53992,227.39319 C 117.54178,227.39541 55.872285,287.31351 55.888677,287.29319 C 55.930282,287.24162 136.50129,259.21134 136.4818,259.19047 C 136.47089,259.17879 156.93781,346.92214 156.90991,346.84476 C 156.89765,346.81075 176.31197,258.80017 176.33447,258.89428 C 176.34791,258.95053 258.434,284.47325 258.41131,284.52313 C 258.36634,284.62196 194.04679,227.95425 194.0333,227.85054 C 194.02814,227.81082 257.86836,169.59568 257.88741,169.55934 C 257.90296,169.52971 177.94006,195.34458 177.95852,195.33223 C 178.00246,195.30283 157.12834,113.07032 157.14901,113.06981 C 157.1697,113.06931 138.41866,193.84891 138.40549,193.83608 C 138.35638,193.78825 57.325212,171.02835 57.30544,171.03641 C 57.276088,171.04799 117.65767,227.38826 117.53992,227.39319 z"
       id="path3822"
       style="fill:#da121a;fill-opacity:1;fill-rule:nonzero;stroke:#000000;stroke-width:4.98400021;marker-mid:none;stroke-miterlimit:4;stroke-dasharray:none;stroke-opacity:1" />
    <path
       d="M 13.02629,93.99351 C 13.02815,93.99573 301.83272,94.01438 301.81323,93.99351 C 301.80232,93.98183 301.76476,50.20725 301.73686,50.12987 C 301.7246,50.09586 267.72258,89.72191 267.74508,89.81602 C 267.75852,89.87227 231.20392,50.07999 231.18123,50.12987 C 231.13626,50.2287 193.97039,89.91973 193.9569,89.81602 C 193.95174,89.7763 157.53222,50.341832 157.55127,50.305492 C 157.56682,50.275862 120.21431,89.82837 120.23277,89.81602 C 120.27671,89.78662 83.52813,50.13038 83.5488,50.12987 C 83.56949,50.12937 45.602,89.82885 45.58883,89.81602 C 45.53972,89.76819 13.385174,50.12181 13.365402,50.12987 C 13.33605,50.14145 13.14404,93.98858 13.02629,93.99351 z"
       id="path3846"
       style="opacity:1;fill:#da121a;fill-opacity:1;fill-rule:nonzero;stroke:#000000;stroke-width:4.58400011;marker-mid:none;stroke-miterlimit:4;stroke-dasharray:none;stroke-opacity:1" />
    <path
       d="M 13.097871,6.0622291 C 13.099731,6.0600091 301.85626,6.0620506 301.88481,6.0622291 C 303.5449,6.0739091 265.70542,54.40147 265.72792,54.30736 C 265.74136,54.25111 230.02225,10.4936 229.99956,10.44372 C 229.95459,10.34489 192.78872,54.20365 192.77523,54.30736 C 192.77007,54.34708 158.4393,10.40738 158.45835,10.44372 C 158.4739,10.47335 120.28589,54.29501 120.30435,54.30736 C 120.34829,54.33676 84.01746,10.44321 84.03813,10.44372 C 84.05882,10.44422 46.09133,54.29453 46.07816,54.30736 C 46.02905,54.35519 11.7535,5.8582846 13.097871,6.0622291 z"
       id="path3852"
       style="opacity:1;fill:#da121a;fill-opacity:1;fill-rule:nonzero;stroke:#000000;stroke-width:4.58400011;stroke-linecap:butt;marker-mid:none;stroke-miterlimit:4;stroke-dasharray:none;stroke-opacity:1" />
  </g>
</svg>
