<?xml version="1.0" encoding="UTF-8" standalone="no"?>
<svg
   xmlns:dc="http://purl.org/dc/elements/1.1/"
   xmlns:cc="http://creativecommons.org/ns#"
   xmlns:rdf="http://www.w3.org/1999/02/22-rdf-syntax-ns#"
   xmlns:svg="http://www.w3.org/2000/svg"
   xmlns="http://www.w3.org/2000/svg"
   xmlns:sodipodi="http://sodipodi.sourceforge.net/DTD/sodipodi-0.dtd"
   xmlns:inkscape="http://www.inkscape.org/namespaces/inkscape"
   version="1.1"
   width="644"
   height="723.31042"
   id="svg48"
   viewBox="0 0 644 723.31043"
   sodipodi:docname="Alvesse.svg"
   inkscape:version="0.92.3 (2405546, 2018-03-11)">
  <metadata
     id="metadata54">
    <rdf:RDF>
      <cc:Work
         rdf:about="">
        <dc:format>image/svg+xml</dc:format>
        <dc:type
           rdf:resource="http://purl.org/dc/dcmitype/StillImage" />
        <dc:title></dc:title>
      </cc:Work>
    </rdf:RDF>
  </metadata>
  <defs
     id="defs52" />
  <sodipodi:namedview
     pagecolor="#ffffff"
     bordercolor="#666666"
     borderopacity="1"
     objecttolerance="10"
     gridtolerance="10"
     guidetolerance="10"
     inkscape:pageopacity="0"
     inkscape:pageshadow="2"
     inkscape:window-width="1600"
     inkscape:window-height="850"
     id="namedview50"
     showgrid="false"
     inkscape:zoom="0.8112701"
     inkscape:cx="166.39368"
     inkscape:cy="368.92784"
     inkscape:window-x="-8"
     inkscape:window-y="-8"
     inkscape:window-maximized="1"
     inkscape:current-layer="svg48" />
  <g
     id="Layer1000"
     transform="matrix(2.2383145,0,0,2.2383145,-293.76557,-792.78637)">
    <path
       d="m 416.8346,533.4803 c 0,78.0633 -63.6689,141.7323 -141.7322,141.7323 -78.0633,0 -141.7323,-63.669 -141.7323,-141.7323 V 356.315 h 283.4645 z"
       style="fill:#ffe600;fill-rule:evenodd"
       id="path10"
       inkscape:connector-curvature="0" />
    <path
       d="m 133.3701,504.5953 h 283.4645 v 28.885 c 0,78.0633 -63.6689,141.7323 -141.7322,141.7323 -78.0633,0 -141.7323,-63.669 -141.7323,-141.7323 z"
       style="fill:#1b1918;fill-rule:evenodd"
       id="path12"
       inkscape:connector-curvature="0" />
    <path
       d="m 275.1029,504.5953 -87.5922,140.1769 c 24.1381,19.0491 54.5765,30.4404 87.5917,30.4404 33.0154,0 63.4538,-11.3913 87.5922,-30.4407 z"
       style="fill:#ffe600;fill-rule:evenodd"
       id="path14"
       inkscape:connector-curvature="0" />
    <path
       d="M 275.1026,504.8969 182.2584,356.315 h 185.688 z"
       style="fill:#1b1918;fill-rule:evenodd"
       id="path16"
       inkscape:connector-curvature="0" />
    <g
       id="Layer1001">
      <path
         d="m 186.6047,513.6236 a 37.3465,37.3465 0 0 1 37.3465,37.3465 37.3465,37.3465 0 1 1 -37.3465,-37.3465 z"
         style="fill:#ffe600;fill-rule:evenodd;stroke:#1b1918;stroke-width:0.21600001;stroke-linecap:butt;stroke-linejoin:miter;stroke-dasharray:none"
         id="path18"
         inkscape:connector-curvature="0" />
      <path
         d="m 219.7803,556.9228 c -2.825,15.7411 -16.6431,27.7506 -33.1756,27.7506 -5.824,0 -9.9096,-1.3217 -14.8308,-4.4685 5.3577,1.6107 9.8997,2.4843 14.8308,2.4843 15.4894,0 28.4468,-11.2008 31.1859,-25.9172 0.6446,-3.4656 1.1039,-5.3736 1.3978,-9.9887 1.065,4.4751 1.2713,6.353 0.5919,10.1395 z"
         style="fill:#1b1918;fill-rule:evenodd;stroke:#1b1918;stroke-width:0.28349999;stroke-linecap:round;stroke-linejoin:round;stroke-dasharray:none"
         id="path20"
         inkscape:connector-curvature="0" />
      <path
         d="m 214.628,558.6157 c -1.3541,4.9269 -3.998,9.3455 -7.5362,12.8704 -5.2752,5.2543 -12.5407,8.5218 -20.4871,8.5218 -4.6766,0 -7.3701,-0.9068 -11.4335,-3.4529 4.8027,1.3329 7.7272,1.4687 11.4335,1.4687 7.4058,0 14.1764,-3.0447 19.0919,-7.9407 3.2179,-3.2055 5.6413,-7.2057 6.9271,-11.6655 0.4997,-1.7336 1.3507,-4.5507 2.0267,-8.3301 0.8629,3.2717 0.3226,7.2728 -0.0224,8.5283 z"
         style="fill:#1b1918;fill-rule:evenodd;stroke:#1b1918;stroke-width:0.28349999;stroke-linecap:round;stroke-linejoin:round;stroke-dasharray:none"
         id="path22"
         inkscape:connector-curvature="0" />
      <path
         d="m 207.5783,563.7872 c -1.4576,2.3652 -3.3061,4.4572 -5.4445,6.1954 -3.2111,2.6099 -7.0767,4.4238 -11.2564,5.1676 -3.6723,0.6525 -5.946,0.2678 -9.3969,-1.1231 3.6584,-0.0703 6.1342,-0.3118 9.0553,-0.8308 3.8449,-0.6835 7.3993,-2.3503 10.3502,-4.7484 1.9663,-1.5981 3.666,-3.5212 5.0059,-5.6942 1.0214,-1.6568 2.6535,-4.1632 4.0147,-7.969 0.1826,3.5549 -1.6401,7.8854 -2.3283,9.0025 z"
         style="fill:#1b1918;fill-rule:evenodd;stroke:#1b1918;stroke-width:0.28349999;stroke-linecap:round;stroke-linejoin:round;stroke-dasharray:none"
         id="path24"
         inkscape:connector-curvature="0" />
    </g>
    <g
       id="Layer1002">
      <path
         d="M 363.6,513.6236 A 37.3465,37.3465 0 0 1 400.9465,550.9701 37.3465,37.3465 0 1 1 363.6,513.6236 Z"
         style="fill:#ffe600;fill-rule:evenodd;stroke:#1b1918;stroke-width:0.21600001;stroke-linecap:butt;stroke-linejoin:miter;stroke-dasharray:none"
         id="path27"
         inkscape:connector-curvature="0" />
      <path
         d="m 396.7756,556.9228 c -2.825,15.7411 -16.6431,27.7506 -33.1756,27.7506 -5.8241,0 -9.9096,-1.3217 -14.8309,-4.4685 5.3578,1.6107 9.8998,2.4843 14.8309,2.4843 15.4894,0 28.4468,-11.2008 31.1859,-25.9172 0.6446,-3.4656 1.1038,-5.3736 1.3978,-9.9887 1.065,4.4751 1.2713,6.353 0.5919,10.1395 z"
         style="fill:#1b1918;fill-rule:evenodd;stroke:#1b1918;stroke-width:0.28349999;stroke-linecap:round;stroke-linejoin:round;stroke-dasharray:none"
         id="path29"
         inkscape:connector-curvature="0" />
      <path
         d="m 391.6233,558.6157 c -1.3541,4.9269 -3.998,9.3455 -7.5362,12.8704 -5.2753,5.2543 -12.5407,8.5218 -20.4871,8.5218 -4.6766,0 -7.3701,-0.9068 -11.4335,-3.4529 4.8027,1.3329 7.7272,1.4687 11.4335,1.4687 7.4058,0 14.1763,-3.0447 19.0919,-7.9407 3.2179,-3.2055 5.6412,-7.2057 6.927,-11.6655 0.4998,-1.7336 1.3507,-4.5507 2.0268,-8.3301 0.8629,3.2717 0.3226,7.2728 -0.0224,8.5283 z"
         style="fill:#1b1918;fill-rule:evenodd;stroke:#1b1918;stroke-width:0.28349999;stroke-linecap:round;stroke-linejoin:round;stroke-dasharray:none"
         id="path31"
         inkscape:connector-curvature="0" />
      <path
         d="m 384.5735,563.7872 c -1.4575,2.3652 -3.306,4.4572 -5.4445,6.1954 -3.211,2.6099 -7.0767,4.4238 -11.2563,5.1676 -3.6723,0.6525 -5.946,0.2678 -9.3969,-1.1231 3.6584,-0.0703 6.1342,-0.3118 9.0553,-0.8308 3.8449,-0.6835 7.3993,-2.3503 10.3501,-4.7484 1.9664,-1.5981 3.6661,-3.5212 5.006,-5.6942 1.0213,-1.6568 2.6535,-4.1632 4.0147,-7.969 0.1826,3.5549 -1.6401,7.8854 -2.3284,9.0025 z"
         style="fill:#1b1918;fill-rule:evenodd;stroke:#1b1918;stroke-width:0.28349999;stroke-linecap:round;stroke-linejoin:round;stroke-dasharray:none"
         id="path33"
         inkscape:connector-curvature="0" />
    </g>
    <g
       id="Layer1003">
      <path
         d="m 275.1024,369.7087 a 37.3465,37.3465 0 0 1 37.3464,37.3464 37.3465,37.3465 0 1 1 -37.3464,-37.3464 z"
         style="fill:#ffe600;fill-rule:evenodd;stroke:#1b1918;stroke-width:0.21600001;stroke-linecap:butt;stroke-linejoin:miter;stroke-dasharray:none"
         id="path36"
         inkscape:connector-curvature="0" />
      <path
         d="m 308.2779,413.0079 c -2.825,15.741 -16.643,27.7506 -33.1755,27.7506 -5.8241,0 -9.9097,-1.3218 -14.8309,-4.4685 5.3578,1.6106 9.8997,2.4842 14.8309,2.4842 15.4893,0 28.4468,-11.2008 31.1859,-25.9171 0.6446,-3.4657 1.1038,-5.3737 1.3977,-9.9888 1.065,4.4751 1.2714,6.3531 0.5919,10.1396 z"
         style="fill:#1b1918;fill-rule:evenodd;stroke:#1b1918;stroke-width:0.28349999;stroke-linecap:round;stroke-linejoin:round;stroke-dasharray:none"
         id="path38"
         inkscape:connector-curvature="0" />
      <path
         d="m 303.1257,414.7007 c -1.3541,4.9269 -3.998,9.3456 -7.5362,12.8704 -5.2753,5.2543 -12.5408,8.5218 -20.4871,8.5218 -4.6766,0 -7.3701,-0.9068 -11.4336,-3.4528 4.8028,1.3328 7.7273,1.4686 11.4336,1.4686 7.4058,0 14.1763,-3.0447 19.0919,-7.9407 3.2179,-3.2054 5.6412,-7.2057 6.927,-11.6654 0.4997,-1.7337 1.3507,-4.5508 2.0268,-8.3302 0.8628,3.2718 0.3225,7.2729 -0.0224,8.5283 z"
         style="fill:#1b1918;fill-rule:evenodd;stroke:#1b1918;stroke-width:0.28349999;stroke-linecap:round;stroke-linejoin:round;stroke-dasharray:none"
         id="path40"
         inkscape:connector-curvature="0" />
      <path
         d="m 296.0759,419.8723 c -1.4576,2.3652 -3.306,4.4571 -5.4445,6.1954 -3.2111,2.6098 -7.0767,4.4237 -11.2564,5.1675 -3.6723,0.6525 -5.9459,0.2679 -9.3968,-1.1231 3.6584,-0.0703 6.1341,-0.3118 9.0552,-0.8308 3.845,-0.6834 7.3993,-2.3502 10.3502,-4.7483 1.9664,-1.5982 3.666,-3.5212 5.006,-5.6943 1.0213,-1.6568 2.6535,-4.1632 4.0147,-7.969 0.1825,3.5549 -1.6401,7.8854 -2.3284,9.0026 z"
         style="fill:#1b1918;fill-rule:evenodd;stroke:#1b1918;stroke-width:0.28349999;stroke-linecap:round;stroke-linejoin:round;stroke-dasharray:none"
         id="path42"
         inkscape:connector-curvature="0" />
    </g>
    <path
       d="m 416.8346,533.4803 c 0,78.0633 -63.6689,141.7323 -141.7322,141.7323 -78.0633,0 -141.7323,-63.669 -141.7323,-141.7323 V 356.315 h 283.4645 z"
       style="fill:none;stroke:#1b1918;stroke-width:4.25199986;stroke-linecap:butt;stroke-linejoin:miter;stroke-dasharray:none"
       id="path45"
       inkscape:connector-curvature="0" />
  </g>
</svg>
