<svg xmlns:rdf="http://www.w3.org/1999/02/22-rdf-syntax-ns#" xmlns="http://www.w3.org/2000/svg" xml:space="preserve" height="1056px" viewBox="-202.796 -284.234 908 1056" width="908px" version="1.1" y="0px" x="0px" xmlns:cc="http://creativecommons.org/ns#" xmlns:xlink="http://www.w3.org/1999/xlink" xmlns:dc="http://purl.org/dc/elements/1.1/"><metadata><rdf:RDF><cc:Work rdf:about=""><dc:format>image/svg+xml</dc:format><dc:type rdf:resource="http://purl.org/dc/dcmitype/StillImage"/><dc:title/></cc:Work></rdf:RDF></metadata>
<path stroke="#000" stroke-width="10" fill="#FFF" d="m701.26-265.16h-888.77v491.55c0,360.85,447.48,544.37,447.48,544.37s441.28-183.52,441.28-544.37v-491.55z"/><path stroke="#020202" stroke-width="6" fill="#da121a" d="M562.89,384.77,312.26,198.12c-2.711-2.012-5.522-3.554-8.291-4.684,2.746-6.271,4.279-13.193,4.279-20.478,0-8.765-2.207-17.011-6.093-24.218,3.55-2.116,7.104-5.288,10.121-9.353l1.005-1.356c46.623,27.698,76.806,69.405,76.806,69.405,20.264-22.024,171.36-203.95,183.69-218.05,12.334-14.096,7.048-21.144,7.048-21.144-55.927-43.926-76.613-66.375-83.113-77.862l1.215-1.621c7.683-10.324,9.092-22.273,3.137-26.695l-8.969-6.693c-5.938-4.426-16.986,0.351-24.668,10.675l-186.66,250.64c-2.186,2.942-3.841,6.007-4.987,9.004-6.201-2.662-13.003-4.142-20.175-4.142-0.054,0-0.107,0.003-0.16,0.004-0.054-0.001-0.106-0.004-0.16-0.004-0.49,0-0.974,0.031-1.461,0.044-0.318,0.011-0.637,0.013-0.953,0.029-7.665,0.359-14.891,2.395-21.303,5.775-2.115-3.646-5.357-7.312-9.533-10.412l-1.356-1.005c27.69-46.61,69.39-76.793,69.39-76.793-22.02-20.262-203.95-171.36-218.05-183.69-14.096-12.334-21.144-7.048-21.144-7.048-43.927,55.926-66.375,76.612-77.863,83.113l-1.621-1.215c-10.324-7.683-22.273-9.092-26.695-3.137l-6.693,8.968c-4.426,5.938,0.351,16.987,10.675,24.668l250.63,186.65c2.942,2.186,6.007,3.841,9.004,4.987-2.662,6.202-4.142,13.003-4.142,20.175,0,0.077,0.005,0.152,0.006,0.229,0,0.031-0.002,0.062-0.002,0.093,0,8.727,2.19,16.938,6.045,24.123-3.429,2.114-6.842,5.201-9.756,9.127l-1.005,1.356c-46.62-27.7-76.8-69.41-76.8-69.41-20.27,22.03-171.36,203.95-183.69,218.05-12.334,14.097-7.048,21.145-7.048,21.145,55.926,43.926,76.612,66.374,83.114,77.863l-1.216,1.621c-7.682,10.32-9.092,22.27-3.136,26.69l8.969,6.695c5.938,4.424,16.986-0.351,24.668-10.677l186.65-250.63c2.112-2.845,3.718-5.804,4.858-8.703,5.997,2.47,12.563,3.84,19.452,3.84,0.13,0,0.258-0.011,0.387-0.012,0.156,0.002,0.31,0.012,0.465,0.012,8.308,0,16.142-1.993,23.074-5.509,2.118,3.534,5.277,7.068,9.323,10.072l1.355,1.005c-27.698,46.623-69.405,76.806-69.405,76.806,22.025,20.263,203.96,171.36,218.05,183.69,14.096,12.334,21.145,7.048,21.145,7.048,43.926-55.927,66.374-76.613,77.861-83.114l1.621,1.215c10.324,7.684,22.273,9.093,26.695,3.138l6.693-8.969c4.426-5.938-0.35-16.987-10.675-24.668z"/>
<path id="path3114" d="m106.39,315.67-55.415-46.78c-1.075-0.917-2.185-1.304-3.295-1.304-2.502,0-5.04,2.024-7.331,4.721-3.312,3.931-4.863,7.771-1.338,10.75l55.415,46.78c1.092,0.916,2.202,1.322,3.312,1.322,2.503,0,5.04-2.027,7.313-4.741,3.313-3.911,4.863-7.77,1.339-10.747zm67.73-90.02-51.239-43.275c-0.952-0.792-1.938-1.145-2.942-1.145-2.449,0-5.022,2.097-7.365,4.864-3.295,3.911-4.916,7.717-1.674,10.466l51.257,43.275c0.952,0.793,1.938,1.146,2.942,1.146,2.449,0,5.004-2.097,7.348-4.864,3.312-3.913,4.933-7.718,1.673-10.467zm-23.03,30.73-52.751-44.55c-0.987-0.829-2.026-1.199-3.066-1.199-2.484,0-5.022,2.062-7.348,4.811-3.312,3.912-4.898,7.735-1.55,10.572l52.754,44.543c0.987,0.829,2.026,1.199,3.065,1.199,2.485,0,5.022-2.062,7.348-4.812,3.312-3.911,4.898-7.734,1.551-10.571zm-92.204,121.8-58.111-49.07c-1.18-0.987-2.36-1.409-3.541-1.409-2.555,0-5.075,1.974-7.33,4.651-3.295,3.911-4.793,7.805-1.11,10.925l58.128,49.071c1.164,0.987,2.361,1.409,3.542,1.409,2.538,0,5.057-1.972,7.313-4.651,3.312-3.911,4.81-7.804,1.109-10.924zm24.51-32.19-56.543-47.75c-1.127-0.951-2.255-1.355-3.4-1.355-2.537,0-5.057,2.008-7.33,4.704-3.313,3.911-4.845,7.788-1.251,10.818l56.542,47.751c1.128,0.952,2.256,1.356,3.401,1.356,2.537,0,5.057-2.009,7.33-4.705,3.313-3.911,4.845-7.787,1.251-10.817zm46.094-61.44-53.036-44.77c-1.005-0.846-2.044-1.215-3.083-1.215-2.485,0-5.04,2.062-7.365,4.81-3.295,3.912-4.881,7.735-1.515,10.572l53.036,44.79c1.005,0.847,2.044,1.217,3.083,1.217,2.485,0,5.04-2.062,7.348-4.812,3.312-3.911,4.897-7.735,1.532-10.589z" stroke="#000" stroke-dasharray="none" stroke-miterlimit="4" stroke-width="3" fill="#FFF"/><use xlink:href="#path3114" transform="matrix(0,1,-1,0,429.254,-84.50799)" height="1056" width="908" y="0" x="0"/><use xlink:href="#path3114" transform="matrix(-1,0,0,-1,513.75946,345.6015)" height="1056" width="908" y="0" x="0"/><use xlink:href="#path3114" transform="matrix(0,-1,1,0,83.330001,430.11006)" height="1056" width="908" y="0" x="0"/></svg>
