<svg height="554.17035" width="500" xmlns="http://www.w3.org/2000/svg"><g transform="matrix(1.0705429 0 0 1.0705429 7.254392 -579.58333)"><g stroke="#000"><path d="m0 548.0625 15.5625 301.65625v.21875c4.700198 112.58826 97.44369 202.4375 211.1875 202.4375s206.4873-89.84924 211.1875-202.4375v-.21875l15.5625-301.65625h-226.75z" fill="#fcdd09" stroke-width="4"/><path d="m0 548.0625 13.125 254.46875c7.595772 4.24664 17.742152 8.40625 28.59375 8.40625 22.250116 0 30.046393-17.5125 47.0625-17.4375 17.0161.075 27.5751 17.4375 45.625 17.4375s25.61597-17.4375 45.40625-17.4375 26.22676 17.4375 46.9375 17.4375 27.14722-17.4375 46.9375-17.4375 27.35635 17.4375 45.40625 17.4375 28.6089-17.3625 45.625-17.4375c17.01611-.075 24.81238 17.4375 47.0625 17.4375 10.8516 0 20.99798-4.15961 28.59375-8.40625l13.125-254.46875h-226.75z" fill="#29d" stroke-width="3"/><path d="m199.75766 911.44592h26.992334v39.14341h-26.992334z" fill="#00a43f" stroke-linecap="round" stroke-width="3"/><path d="m199.75766 912.77173c-29.7995 4.29315-26.6773-27.73098-26.6773-27.73098 14.14721 0 27.63492.58248 29.0625-19.55357s-20-18.03571-20-18.03571l-125.714288.625s1.294642 4.73214 8.571428 8.75h-7.142857s3.839286 14.15178 9.821429 18.03571h-4.85971s3.936324 16.12813 10.543467 18.65351h-6.47129s3.242889 13.46592 13.064318 17.93021h-6.065083s6.355281 15.79024 19.234726 20.33593l-6.517857.17857s9.419647 18.62891 20.669647 16.47321c0 0 9.07635 24.81527 55.66964 4.10714 0 0 13.8648 2.23215 36.81123-9.10714z" fill="#00a43f" stroke-width="3"/><path d="m199.75766 921.24611c-41.32922 3.5281-33.84643-30.2558-36.11927-45.64732h16.00447c9.4912 0 13.04542-4.20544 12.9806-9.42035-.0648-5.21491-3.09275-8.64943-12.56377-8.64943-100.086219 0-115.775082-.70254-115.775082-.70254" fill="none" stroke-width="3"/><path d="m163.63839 875.59879c-74.4645 0-97.07589-.73661-97.07589-.73661" fill="none" stroke-width="3"/><path d="m112.05346 857.38322s2.4966 18.08622 20.09068 18.16633" fill="none" stroke-width="3"/><path d="m164.55866 891.92765c-51.25 8.39286-49.18192-8.9366-50.80691-16.46297" fill="none" stroke-width="3"/><path d="m125.21166 892.00165c-18.66071 5.44643-54.157147 1.2872-54.157147 1.2872" fill="none" stroke-width="3"/><path d="m167.62219 906.83708c-46.90896 14.96288-46.71956-13.57392-46.71956-13.57392" fill="none" stroke-width="3"/><path d="m132.1875 909.1479c-15.9099 8.20749-54.595157 1.98233-54.595157 1.98233" fill="none" stroke-width="3"/><path d="m178.73387 919.08518c-46.53015 18.75096-50.76017-8.39689-50.76017-8.39689" fill="none" stroke-width="3"/><path d="m140.85315 924.32535c-13.76333 6.31345-52.197251 7.71219-52.197251 7.71219" fill="none" stroke-width="3"/><path d="m199.75766 928.9973c-37.58929 14.55357-49.13266 11.4006-49.13266 11.4006-8.83929-5.26786-12.89706-14.85333-12.89706-14.85333" fill="none" stroke-width="3"/><path d="m149.11205 939.42451-41.83526 9.0091" fill="none" stroke-width="3"/><path d="m162.94643 952.54075c-8.46003-4.48255-14.88395-12.89022-14.88395-12.89022" fill="none" stroke-width="3"/><path d="m253.74232 912.7717c29.7995 4.29315 26.6773-27.73098 26.6773-27.73098-14.14721 0-27.63492.58248-29.0625-19.55357s20-18.03571 20-18.03571l125.71429.625s-1.29464 4.73214-8.57143 8.75h7.14286s-3.83929 14.15178-9.82143 18.03571h4.85971s-3.93632 16.12813-10.54347 18.65351h6.47129s-3.24289 13.46592-13.06431 17.93021h6.06508s-6.35528 15.79024-19.23473 20.33593l6.51786.17857s-9.41965 18.62891-20.66965 16.47321c0 0-9.07635 24.81527-55.66964 4.10714 0 0-13.8648 2.23215-36.81123-9.10714z" fill="#00a43f" stroke-width="3"/><path d="m253.74232 921.24608c41.32922 3.5281 33.84643-30.2558 36.11927-45.64732h-16.00447c-9.4912 0-13.04542-4.20544-12.9806-9.42035.0648-5.21491 3.09275-8.64943 12.56377-8.64943 100.08622 0 115.77508-.70254 115.77508-.70254" fill="none" stroke-width="3"/><path d="m289.86159 875.59876c74.4645 0 97.07589-.73661 97.07589-.73661" fill="none" stroke-width="3"/><path d="m341.44652 857.38319s-2.4966 18.08622-20.09068 18.16633" fill="none" stroke-width="3"/><path d="m288.94132 891.92762c51.25 8.39286 49.18192-8.9366 50.80691-16.46297" fill="none" stroke-width="3"/><path d="m328.28832 892.00162c18.66071 5.44643 54.15715 1.2872 54.15715 1.2872" fill="none" stroke-width="3"/><path d="m285.87779 906.83705c46.90896 14.96288 46.71956-13.57392 46.71956-13.57392" fill="none" stroke-width="3"/><path d="m321.31248 909.14787c15.9099 8.20749 54.59516 1.98233 54.59516 1.98233" fill="none" stroke-width="3"/><path d="m274.76611 919.08515c46.53015 18.75096 50.76017-8.39689 50.76017-8.39689" fill="none" stroke-width="3"/><path d="m312.64683 924.32532c13.76333 6.31345 52.19725 7.71219 52.19725 7.71219" fill="none" stroke-width="3"/><path d="m253.74232 928.99727c37.58929 14.55357 49.13266 11.4006 49.13266 11.4006 8.83929-5.26786 12.89706-14.85333 12.89706-14.85333" fill="none" stroke-width="3"/><path d="m304.38793 939.42448 41.83526 9.0091" fill="none" stroke-width="3"/><path d="m290.55355 952.54072c8.46003-4.48255 14.88395-12.89022 14.88395-12.89022" fill="none" stroke-width="3"/><path d="m226.75 911.44592h26.992334v39.14341h-26.992334z" fill="#00a43f" stroke-linecap="round" stroke-width="3"/><path d="m226.75 872.80756h13.918844v116.92516h-13.918844z" fill="#00a43f" stroke-width="3"/><path d="m210.86934 890.9903h15.880656v79.549515h-15.880656z" fill="#00a43f" stroke-linecap="round" stroke-width="3"/><path d="m226.75 569.5c-19.57822 0-26.5 5.3125-26.5 5.3125l-.125 132.34375c1.89404 16.54125 16.63087 11.56234 19.15625 20.90625l-.0937 51.0625h7.5625 7.5625l-.0937-51.0625c2.52538-9.34391 17.26221-4.365 19.15625-20.90625l-.1251-132.34375s-6.92178-5.3125-26.5-5.3125z" fill="#fcdd09" stroke-width="3"/></g><path d="m226.75 602.25c-7.67857 5.71428-15.59375 21.96875-15.59375 21.96875l-10.9375-10.34375v6.5s8.89381 8.16689 14.4375 9.59375 8.65625 9.875 8.65625 9.875c3.26319-6.875-6.00746-11.057-5.375-16.5625.63245-5.5055 8.8125-14.375 8.8125-14.375s8.18005 8.8695 8.8125 14.375c.63246 5.5055-8.63819 9.6875-5.375 16.5625 0 0 3.11256-8.44814 8.65625-9.875s14.4375-9.59375 14.4375-9.59375v-6.5l-10.9375 10.34375s-7.91518-16.25447-15.59375-21.96875z"/><path d="m210.71429 570.93361v54.64286" fill="none" stroke="#000" stroke-width="3"/><path d="m221.83036 569.28182v40.38101" fill="none" stroke="#000" stroke-width="3"/><path d="m200.21035 629.74628-.009 9.35136s7.06244 6.99289 11.62 8.3845 9.25947 6.5309 9.25947 6.5309 1.16335-9.11572-7.8309-10.88358c-8.99425-1.76785-13.03965-13.38318-13.03965-13.38318z"/><path d="m200.1832 658.20391s9.37386 8.23507 13.31643 9.72379c3.94256 1.48871 7.56304 5.19161 7.56304 5.19161s1.87764-9.74072-7.65233-11.41929c-9.52996-1.67858-13.21541-15.79381-13.21541-15.79381z"/><path d="m200.16536 676.90227s7.06244 6.99289 11.62 8.3845 9.43804 4.47733 9.43804 4.47733.003-7.59786-8.99161-9.36572c-8.99425-1.76785-12.05479-15.7047-12.05479-15.7047z"/><path d="m200.14734 695.7851s8.22315 8.06432 12.78071 9.45593 8.63447 8.04876 8.63447 8.04876 2.68157-10.09786-9.34875-13.83001c-12.03032-3.73214-12.05078-20.07978-12.05078-20.07978z"/><path d="m220.10396 727.08358c-2.27679-4.15178 2.56127-5.53001 2.56127-5.53001-10.64417-.2423-20.47048-7.47629-20.47048-7.47629z"/><path d="m242.78571 570.9336v54.64286" fill="none" stroke="#000" stroke-width="3"/><path d="m231.66964 569.28181v40.38101" fill="none" stroke="#000" stroke-width="3"/><path d="m253.28965 629.74627.009 9.35136s-7.06244 6.99289-11.62 8.3845-9.25947 6.5309-9.25947 6.5309-1.16335-9.11572 7.8309-10.88358c8.99425-1.76785 13.03965-13.38318 13.03965-13.38318z"/><path d="m253.3168 658.2039s-9.37386 8.23507-13.31643 9.72379c-3.94256 1.48871-7.56304 5.19161-7.56304 5.19161s-1.87764-9.74072 7.65233-11.41929c9.52996-1.67858 13.21541-15.79381 13.21541-15.79381z"/><path d="m253.33464 676.90226s-7.06244 6.99289-11.62 8.3845-9.43804 4.47733-9.43804 4.47733-.003-7.59786 8.99161-9.36572c8.99425-1.76785 12.05479-15.7047 12.05479-15.7047z"/><path d="m253.35266 695.78509s-8.22315 8.06432-12.78071 9.45593-8.63447 8.04876-8.63447 8.04876-2.68157-10.09786 9.34875-13.83001c12.03032-3.73214 12.05078-20.07978 12.05078-20.07978z"/><path d="m233.39604 727.08357c2.27679-4.15178-2.56127-5.53001-2.56127-5.53001 10.64417-.2423 20.47048-7.47629 20.47048-7.47629z"/><path d="m95.042388 569.5c-19.57822 0-26.5 5.3125-26.5 5.3125l-.125 132.34375c1.89404 16.54125 16.63087 11.56234 19.15625 20.90625l-.0937 51.0625h7.5625 7.562502l-.0937-51.0625c2.52538-9.34391 17.26221-4.365 19.15625-20.90625l-.1251-132.34375s-6.92178-5.3125-26.500002-5.3125z" fill="#fcdd09" stroke="#000" stroke-width="3"/><path d="m95.042388 602.25c-7.67857 5.71428-15.59375 21.96875-15.59375 21.96875l-10.9375-10.34375v6.5s8.89381 8.16689 14.4375 9.59375 8.65625 9.875 8.65625 9.875c3.26319-6.875-6.00746-11.057-5.375-16.5625.63245-5.5055 8.8125-14.375 8.8125-14.375s8.180052 8.8695 8.812502 14.375c.63246 5.5055-8.638192 9.6875-5.375002 16.5625 0 0 3.112562-8.44814 8.656252-9.875s14.4375-9.59375 14.4375-9.59375v-6.5l-10.9375 10.34375s-7.91518-16.25447-15.593752-21.96875z"/><path d="m79.006678 570.93361v54.64286" fill="none" stroke="#000" stroke-width="3"/><path d="m90.122748 569.28182v40.38101" fill="none" stroke="#000" stroke-width="3"/><path d="m68.502738 629.74628-.009 9.35136s7.06244 6.99289 11.62 8.3845 9.25947 6.5309 9.25947 6.5309 1.16335-9.11572-7.8309-10.88358c-8.99425-1.76785-13.03965-13.38318-13.03965-13.38318z"/><path d="m68.475588 658.20391s9.37386 8.23507 13.31643 9.72379c3.94256 1.48871 7.56304 5.19161 7.56304 5.19161s1.87764-9.74072-7.65233-11.41929c-9.52996-1.67858-13.21541-15.79381-13.21541-15.79381z"/><path d="m68.457748 676.90227s7.06244 6.99289 11.62 8.3845 9.43804 4.47733 9.43804 4.47733.003-7.59786-8.99161-9.36572c-8.99425-1.76785-12.05479-15.7047-12.05479-15.7047z"/><path d="m68.439728 695.7851s8.22315 8.06432 12.78071 9.45593 8.63447 8.04876 8.63447 8.04876 2.68157-10.09786-9.34875-13.83001c-12.03032-3.73214-12.05078-20.07978-12.05078-20.07978z"/><path d="m88.396348 727.08358c-2.27679-4.15178 2.56127-5.53001 2.56127-5.53001-10.64417-.2423-20.47048-7.47629-20.47048-7.47629z"/><path d="m111.0781 570.9336v54.64286" fill="none" stroke="#000" stroke-width="3"/><path d="m99.962033 569.28181v40.38101" fill="none" stroke="#000" stroke-width="3"/><path d="m121.58204 629.74627.009 9.35136s-7.06244 6.99289-11.62 8.3845-9.25947 6.5309-9.25947 6.5309-1.163347-9.11572 7.8309-10.88358c8.99425-1.76785 13.03965-13.38318 13.03965-13.38318z"/><path d="m121.60919 658.2039s-9.37386 8.23507-13.31643 9.72379c-3.94256 1.48871-7.56304 5.19161-7.56304 5.19161s-1.877642-9.74072 7.65233-11.41929c9.52996-1.67858 13.21541-15.79381 13.21541-15.79381z"/><path d="m121.62703 676.90226s-7.06244 6.99289-11.62 8.3845-9.43804 4.47733-9.43804 4.47733-.003-7.59786 8.99161-9.36572c8.99425-1.76785 12.05479-15.7047 12.05479-15.7047z"/><path d="m121.64505 695.78509s-8.22315 8.06432-12.78071 9.45593-8.63447 8.04876-8.63447 8.04876-2.681572-10.09786 9.34875-13.83001c12.03032-3.73214 12.05078-20.07978 12.05078-20.07978z"/><path d="m101.68843 727.08357c2.27679-4.15178-2.561267-5.53001-2.561267-5.53001 10.644167-.2423 20.470477-7.47629 20.470477-7.47629z"/><path d="m358.4576 569.49998c19.57822 0 26.5 5.3125 26.5 5.3125l.125 132.34376c-1.89404 16.54125-16.63087 11.56234-19.15625 20.90625l.0937 51.0625h-7.5625-7.5625l.0937-51.0625c-2.52538-9.34391-17.26221-4.365-19.15625-20.90625l.1251-132.34376s6.92178-5.3125 26.5-5.3125z" fill="#fcdd09" stroke="#000" stroke-width="3"/><path d="m358.4576 602.24998c7.67857 5.71428 15.59375 21.96875 15.59375 21.96875l10.9375-10.34375v6.5s-8.89381 8.16689-14.4375 9.59375-8.65625 9.875-8.65625 9.875c-3.26319-6.875 6.00746-11.057 5.375-16.5625-.63245-5.5055-8.8125-14.375-8.8125-14.375s-8.18005 8.8695-8.8125 14.375c-.63246 5.5055 8.63819 9.6875 5.375 16.5625 0 0-3.11256-8.44814-8.65625-9.875s-14.4375-9.59375-14.4375-9.59375v-6.5l10.9375 10.34375s7.91518-16.25447 15.59375-21.96875z"/><path d="m374.49331 570.93359v54.64286" fill="none" stroke="#000" stroke-width="3"/><path d="m363.37724 569.2818v40.38101" fill="none" stroke="#000" stroke-width="3"/><path d="m384.99725 629.74626.009 9.35136s-7.06244 6.99289-11.62 8.38451c-4.55756 1.39161-9.25947 6.5309-9.25947 6.5309s-1.16335-9.11573 7.8309-10.88359c8.99425-1.76785 13.03965-13.38318 13.03965-13.38318z"/><path d="m385.0244 658.2039s-9.37386 8.23507-13.31643 9.72379c-3.94256 1.48871-7.56304 5.19161-7.56304 5.19161s-1.87764-9.74072 7.65233-11.41929c9.52996-1.67858 13.21541-15.79382 13.21541-15.79382z"/><path d="m385.04224 676.90226s-7.06244 6.99289-11.62 8.3845-9.43804 4.47733-9.43804 4.47733-.003-7.59786 8.99161-9.36572c8.99425-1.76785 12.05479-15.7047 12.05479-15.7047z"/><path d="m385.06026 695.78509s-8.22315 8.06432-12.78071 9.45593-8.63447 8.04876-8.63447 8.04876-2.68157-10.09786 9.34875-13.83001c12.03032-3.73214 12.05078-20.07978 12.05078-20.07978z"/><path d="m365.10364 727.08357c2.27679-4.15178-2.56127-5.53001-2.56127-5.53001 10.64417-.2423 20.47048-7.47629 20.47048-7.47629z"/><path d="m342.42189 570.93358v54.64286" fill="none" stroke="#000" stroke-width="3"/><path d="m353.53796 569.28179v40.38101" fill="none" stroke="#000" stroke-width="3"/><path d="m331.91795 629.74625-.009 9.35136s7.06244 6.99289 11.62 8.38451c4.55756 1.39161 9.25947 6.5309 9.25947 6.5309s1.16335-9.11573-7.8309-10.88359c-8.99425-1.76785-13.03965-13.38318-13.03965-13.38318z"/><path d="m331.8908 658.20389s9.37386 8.23507 13.31643 9.72379c3.94256 1.48871 7.56304 5.19161 7.56304 5.19161s1.87764-9.74072-7.65233-11.41929c-9.52996-1.67858-13.21541-15.79382-13.21541-15.79382z"/><path d="m331.87296 676.90225s7.06244 6.99289 11.62 8.3845 9.43804 4.47733 9.43804 4.47733.003-7.59786-8.99161-9.36572c-8.99425-1.76785-12.05479-15.7047-12.05479-15.7047z"/><path d="m331.85494 695.78508s8.22315 8.06432 12.78071 9.45593 8.63447 8.04876 8.63447 8.04876 2.68157-10.09786-9.34875-13.83001c-12.03032-3.73214-12.05078-20.07978-12.05078-20.07978z"/><path d="m351.81156 727.08356c-2.27679-4.15178 2.56127-5.53001 2.56127-5.53001-10.64417-.2423-20.47048-7.47629-20.47048-7.47629z"/></g></svg>