<?xml version="1.0" encoding="UTF-8" standalone="no"?>
<svg
   xmlns:dc="http://purl.org/dc/elements/1.1/"
   xmlns:cc="http://creativecommons.org/ns#"
   xmlns:rdf="http://www.w3.org/1999/02/22-rdf-syntax-ns#"
   xmlns:svg="http://www.w3.org/2000/svg"
   xmlns="http://www.w3.org/2000/svg"
   xmlns:sodipodi="http://sodipodi.sourceforge.net/DTD/sodipodi-0.dtd"
   xmlns:inkscape="http://www.inkscape.org/namespaces/inkscape"
   width="167.94mm"
   height="172.78999mm"
   id="svg2445"
   sodipodi:version="0.32"
   inkscape:version="0.45.1+0.46pre1+devel"
   inkscape:output_extension="org.inkscape.output.svg.inkscape"
   sodipodi:docname="Beuren.svg">
  <metadata
     id="metadata2474">
    <rdf:RDF>
      <cc:Work
         rdf:about="">
        <dc:format>image/svg+xml</dc:format>
        <dc:type
           rdf:resource="http://purl.org/dc/dcmitype/StillImage" />
      </cc:Work>
    </rdf:RDF>
  </metadata>
  <defs
     id="defs2472">
    <inkscape:perspective
       sodipodi:type="inkscape:persp3d"
       inkscape:vp_x="-50 : 600 : 1"
       inkscape:vp_y="0 : 1000 : 0"
       inkscape:vp_z="700 : 600 : 1"
       inkscape:persp3d-origin="300 : 400 : 1"
       id="perspective2476" />
  </defs>
  <sodipodi:namedview
     inkscape:window-height="664"
     inkscape:window-width="640"
     inkscape:pageshadow="2"
     inkscape:pageopacity="0.0"
     guidetolerance="10.0"
     gridtolerance="10.0"
     objecttolerance="10.0"
     borderopacity="1.0"
     bordercolor="#666666"
     pagecolor="#ffffff"
     id="base"
     showgrid="false"
     inkscape:zoom="0.79052935"
     inkscape:cx="297.53149"
     inkscape:cy="306.12399"
     inkscape:window-x="110"
     inkscape:window-y="70"
     inkscape:current-layer="svg2445" />
<!-- EMR_GDICOMMENT --><!-- EMR_SETMAPMODE --><!-- EMR_SETVIEWPORTEXTEX --><!-- EMR_SETWINDOWEXTEX --><!-- EMR_SETWINDOWEXTEX --><!-- EMR_SETWINDOWEXTEX --><!-- EMR_SETWINDOWEXTEX -->  <path
     style="fill:#131516;fill-rule:evenodd;fill-opacity:1;stroke:none;"
     d="  M 280.96158 612.05668   L 279.20126 611.86535   L 277.40268 611.67403   L 275.6041 611.52096   L 273.84378 611.32964   L 272.0452 611.13831   L 270.28489 610.98525   L 268.4863 610.79392   L 266.72599 610.64086   L 264.92741 610.44953   L 263.16709 610.29647   L 261.40678 610.10514   L 259.60819 609.95208   L 257.84788 609.79902   L 256.08756 609.60769   L 254.32725 609.45463   L 248.8167 608.45972   L 243.34441 607.42655   L 237.98693 606.31686   L 232.66772 605.16889   L 227.42504 603.94439   L 222.2589 602.64337   L 219.6567 601.99285   L 217.09276 601.30407   L 214.52882 600.6153   L 212.00315 599.88825   L 209.43922 599.16121   L 206.91355 598.3959   L 204.38788 597.59232   L 201.90048 596.82701   L 199.37481 595.98517   L 196.8874 595.14333   L 194.36174 594.30149   L 191.87433 593.42138   L 189.38693 592.54127   L 186.89953 591.6229   L 184.41213 590.66627   L 181.92473 589.70963   L 179.39906 588.71472   L 176.91166 587.71982   L 174.42425 586.68665   L 171.93685 585.61522   L 167.84221 583.58715   L 164.62772 582.01826   L 161.94898 580.67897   L 159.53811 579.45447   L 157.08898 578.15345   L 154.29544 576.69936   L 150.88961 574.86261   L 146.52709 572.52842   L 142.85339 570.23249   L 139.21795 567.93656   L 135.62079 565.60236   L 132.10016 563.26817   L 128.6178 560.85744   L 125.21197 558.48498   L 121.80614 556.03599   L 118.47685 553.587   L 115.14756 551.06147   L 111.8948 548.57421   L 108.64205 546.01043   L 105.42756 543.40837   L 102.25134 540.80632   L 99.113387 538.166   L 96.013702 535.48741   L 92.914017 532.77056   L 89.01071 528.75269   L 85.949293 525.61491   L 83.461891 523.01286   L 81.318899 520.7552   L 79.214174 518.49753   L 76.956379 515.97201   L 74.201103 512.91077   L 70.757009 509.04595   L 68.422678 506.02298   L 66.126615 503   L 63.907088 499.97703   L 61.68756 496.95405   L 59.544568 493.93108   L 57.439843 490.90811   L 55.373387 487.88513   L 53.383465 484.86216   L 51.393544 481.83918   L 49.480158 478.77794   L 47.566772 475.75497   L 45.729922 472.69373   L 43.969607 469.59422   L 42.209292 466.49472   L 40.487245 463.39521   L 38.841733 460.25744   L 37.693701 457.73192   L 36.583938 455.20639   L 35.435906 452.68087   L 34.326142 450.19361   L 33.216378 447.66809   L 32.106615 445.14257   L 30.996851 442.61704   L 29.887087 440.09152   L 29.00693 437.41294   L 28.126772 434.73435   L 27.246615 432.05577   L 26.404725 429.41545   L 25.601103 426.73686   L 24.797481 424.09654   L 23.993859 421.45622   L 23.228504 418.8159   L 22.46315 416.21385   L 21.774331 413.57353   L 21.047244 410.97148   L 20.396693 408.36942   L 19.707874 405.80563   L 19.095591 403.24184   L 18.483307 400.67806   L 17.909292 398.11427   L 17.411811 394.63211   L 16.952599 391.57087   L 16.569922 388.89228   L 16.225512 386.51982   L 15.91937 384.49175   L 15.651496 382.69327   L 15.460158 381.08612   L 15.268819 379.6703   L 15.115748 378.36927   L 14.962677 377.18304   L 14.847874 375.99681   L 14.694803 374.84884   L 14.58 373.66261   L 14.465197 372.36159   L 14.350394 370.94576   L 14.197323 369.37688   L 12.092599 316.03477   L 10.255748 269.27433   L 8.6485041 228.52157   L 7.2708662 193.24078   L 6.0462993 162.89624   L 5.0513387 136.91396   L 4.1711812 114.83477   L 3.4440945 96.046406   L 2.8318111 80.013162   L 2.3343307 66.237581   L 1.8751181 54.107418   L 1.492441 43.163485   L 1.1097638 32.831799   L 0.76535434 22.53838   L 0.38267717 11.785774   L 0 0   L 37.196221 0   L 74.392442 0   L 111.58866 0   L 148.74662 0   L 185.94284 0   L 223.13906 0   L 260.33528 0   L 297.5315 0   L 334.72772 0   L 371.92394 0   L 409.12016 0   L 446.27812 0   L 483.47434 0   L 520.67056 0   L 557.86678 0   L 595.063 0   L 594.14458 23.456752   L 593.22615 46.913504   L 592.30773 70.370255   L 591.35103 93.865273   L 590.43261 117.32202   L 589.51418 140.77878   L 588.59576 164.23553   L 587.67733 187.69228   L 586.75891 211.14903   L 585.84048 234.64405   L 584.92206 258.1008   L 583.96536 281.55755   L 583.04694 305.0143   L 582.12851 328.47106   L 581.21009 351.92781   L 580.29166 375.42283   L 579.90898 378.10141   L 579.52631 380.78   L 579.14363 383.45858   L 578.76095 386.17543   L 578.37828 388.85402   L 578.03387 391.57087   L 577.65119 394.28772   L 577.26851 397.00457   L 576.35009 401.02245   L 575.39339 405.00206   L 574.39843 408.98167   L 573.32694 412.96128   L 572.17891 416.94089   L 571.03087 420.88224   L 569.80631 424.82359   L 568.50521 428.76493   L 567.2041 432.66801   L 565.7882 436.60936   L 564.37229 440.51244   L 562.87985 444.41552   L 561.31087 448.28034   L 559.70363 452.18342   L 558.05812 456.04823   L 556.33607 459.91305   L 555.03497 462.24725   L 553.73387 464.61971   L 552.43276 466.9539   L 551.13166 469.32636   L 549.83056 471.69882   L 548.52946 474.07129   L 547.22835 476.44375   L 545.92725 478.81621   L 544.43481 481.11214   L 542.9041 483.40807   L 541.37339 485.66573   L 539.84269 487.88513   L 538.27371 490.10453   L 536.70473 492.28566   L 535.13576 494.42853   L 533.52851 496.60967   L 531.92127 498.71427   L 530.27576 500.81887   L 528.63024 502.92347   L 526.94646 504.98981   L 525.26268 507.05615   L 523.57891 509.08422   L 521.85686 511.11229   L 520.13481 513.14036   L 518.3745 515.13017   L 516.61418 517.11997   L 514.8156 519.07151   L 513.01702 521.06132   L 511.18016 522.9746   L 509.34331 524.92614   L 507.50646 526.83941   L 505.63135 528.75269   L 503.71796 530.66596   L 501.80457 532.54097   L 499.89119 534.45425   L 497.93953 536.32925   L 493.99796 540.04101   L 489.94158 543.75276   L 487.33938 545.66604   L 484.77544 547.61758   L 482.17324 549.56912   L 479.6093 551.55892   L 477.04536 553.51046   L 474.48142 555.462   L 471.91749 557.45181   L 469.35355 559.40335   L 465.22064 562.00541   L 461.08772 564.56919   L 456.91654 567.05645   L 452.74536 569.50544   L 448.53591 571.8779   L 444.36473 574.2121   L 440.11701 576.46976   L 435.90757 578.68916   L 431.65985 580.8703   L 427.37386 582.9749   L 423.08788 585.04124   L 418.76363 587.03104   L 414.40111 588.98258   L 410.03859 590.85759   L 405.6378 592.69434   L 401.19875 594.45455   L 397.37197 595.67905   L 393.5452 596.86528   L 389.7567 597.97498   L 385.92993 599.08468   L 382.14142 600.15611   L 378.35292 601.18928   L 374.56441 602.18418   L 370.77591 603.14082   L 366.98741 604.05919   L 363.1989 604.9393   L 359.4104 605.78114   L 355.62189 606.58471   L 351.83339 607.35002   L 348.08315 608.07707   L 344.29465 608.76585   L 340.50615 609.45463   L 336.87071 609.83728   L 333.23528 610.18167   L 329.59985 610.48779   L 325.96441 610.75565   L 322.32898 611.02351   L 318.69355 611.2531   L 315.09638 611.44443   L 311.46095 611.59749   L 307.86378 611.75056   L 304.26662 611.86535   L 300.66945 611.98015   L 297.07229 612.05668   L 293.47512 612.13321   L 289.91622 612.17148   L 286.31906 612.20974   L 282.76016 612.24801  z "
     id="path2447" />
  <path
     style="fill:#fcdb00;fill-rule:evenodd;fill-opacity:1;stroke:none;"
     d="  M 284.36741 598.58722   L 281.53559 598.35763   L 279.00993 598.20457   L 276.82867 598.01324   L 274.83874 597.86018   L 273.07843 597.70712   L 271.47119 597.59232   L 269.97874 597.47752   L 268.52457 597.32446   L 267.0704 597.1714   L 265.61622 597.0566   L 264.08552 596.86528   L 262.40174 596.71221   L 260.56489 596.52089   L 258.5367 596.29129   L 256.24063 596.02344   L 253.02615 595.44945   L 249.84992 594.8372   L 246.71197 594.22496   L 243.61229 593.61271   L 240.5126 592.9622   L 237.45118 592.31168   L 234.42803 591.58464   L 231.44315 590.89586   L 228.45827 590.16881   L 225.51166 589.4035   L 222.56504 588.63819   L 219.6567 587.83462   L 216.74835 586.99278   L 213.87827 586.15094   L 211.00819 585.3091   L 208.13811 584.39072   L 205.3063 583.47235   L 202.43622 582.51571   L 199.64268 581.55908   L 196.81087 580.52591   L 193.97906 579.49274   L 191.18551 578.45957   L 188.3537 577.34987   L 185.56016 576.24017   L 182.76662 575.09221   L 179.93481 573.90598   L 177.14126 572.68148   L 174.30945 571.45698   L 171.51591 570.15596   L 168.6841 568.85493   L 165.81402 567.51564   L 162.98221 566.13808   L 161.29843 565.21971   L 159.61465 564.30134   L 157.93087 563.3447   L 156.24709 562.42633   L 154.60158 561.50795   L 152.9178 560.58958   L 151.23402 559.67121   L 149.55024 558.75284   L 146.79496 556.99263   L 144.11622 555.27068   L 141.47575 553.51046   L 138.87355 551.75025   L 136.27134 549.99004   L 133.74567 548.19156   L 131.25827 546.43135   L 128.80914 544.5946   L 126.36 542.79612   L 123.9874 540.95938   L 121.6148 539.08437   L 119.28047 537.24763   L 116.98441 535.33435   L 114.68835 533.45934   L 112.43055 531.5078   L 110.21103 529.55626   L 108.02977 527.60472   L 105.81024 525.61491   L 103.66725 523.62511   L 101.52425 521.55877   L 99.381261 519.5307   L 97.276537 517.4261   L 95.171812 515.32149   L 93.067088 513.17863   L 91.000631 510.99749   L 88.934175 508.81636   L 86.867718 506.59696   L 84.839529 504.3393   L 82.773072 502.04337   L 80.744883 499.70917   L 78.716694 497.33671   L 76.688505 494.96425   L 75.463938 493.28057   L 74.239371 491.59688   L 73.014804 489.9132   L 71.790237 488.22952   L 70.603938 486.54584   L 69.379371 484.86216   L 68.154804 483.17847   L 66.930237 481.53306   L 64.787245 478.0509   L 62.682521 474.607   L 60.654332 471.16311   L 58.702678 467.75748   L 56.82756 464.35185   L 54.990709 460.94622   L 53.230394 457.50232   L 51.508347 454.09669   L 49.824568 450.69106   L 48.217324 447.24717   L 46.610079 443.80327   L 45.079371 440.32111   L 43.548662 436.83895   L 42.056221 433.28026   L 40.602048 429.72157   L 39.186142 426.12461   L 38.535591 423.75215   L 37.923308 421.41796   L 37.311024 419.12203   L 36.698741 416.86436   L 36.086457 414.6067   L 35.474174 412.3873   L 34.900158 410.20617   L 34.326142 407.98677   L 33.752126 405.80563   L 33.216378 403.6245   L 32.68063 401.48163   L 32.144882 399.3005   L 31.647402 397.15763   L 31.149922 394.9765   L 30.690709 392.79536   L 30.231497 390.61423   L 29.925355 388.28003   L 29.619213 385.94584   L 29.351339 383.61164   L 29.045197 381.31571   L 28.777323 378.98152   L 28.509449 376.68559   L 28.241575 374.35139   L 27.973701 372.05546   L 27.093544 349.63188   L 26.175118 327.20829   L 25.294961 304.82298   L 24.376536 282.39939   L 23.458111 259.97581   L 22.577953 237.55223   L 21.659528 215.16691   L 20.77937 192.74333   L 19.899213 170.31974   L 18.980788 147.89616   L 18.10063 125.51084   L 17.182205 103.08726   L 16.302047 80.663675   L 15.42189 58.240092   L 14.541732 35.854774   L 13.661575 13.431191   L 49.135749 13.431191   L 84.609922 13.431191   L 120.0841 13.431191   L 155.52 13.431191   L 190.99418 13.431191   L 226.46835 13.431191   L 261.94252 13.431191   L 297.4167 13.431191   L 332.89087 13.431191   L 368.36504 13.431191   L 403.83922 13.431191   L 439.31339 13.431191   L 474.78757 13.431191   L 510.22347 13.431191   L 545.69765 13.431191   L 581.17182 13.431191   L 580.29166 35.663446   L 579.4115 57.895702   L 578.53135 80.089693   L 577.65119 102.32195   L 576.77103 124.5542   L 575.89087 146.78646   L 575.01072 169.01872   L 574.13056 191.21271   L 573.2504 213.44496   L 572.40851 235.67722   L 571.52835 257.90947   L 570.6482 280.14173   L 569.76804 302.33572   L 568.92615 324.56798   L 568.04599 346.80023   L 567.2041 369.03249   L 566.93623 371.7876   L 566.63009 374.54272   L 566.32395 377.25957   L 565.97954 379.93815   L 565.59686 382.655   L 565.21418 385.29532   L 564.79324 387.97391   L 564.33402 390.61423   L 563.87481 393.21628   L 563.37733 395.8566   L 562.84158 398.45866   L 562.30583 401.02245   L 561.69355 403.6245   L 561.08127 406.18829   L 560.43072 408.75208   L 559.78017 411.31586   L 559.05308 413.87965   L 558.32599 416.44344   L 557.56064 418.96896   L 556.79528 421.53275   L 555.95339 424.05828   L 555.1115 426.62206   L 554.23135 429.14759   L 553.31292 431.67311   L 552.35623 434.2369   L 551.36127 436.80069   L 550.36631 439.32621   L 549.33308 441.89   L 548.22332 444.45379   L 547.11355 447.01758   L 545.96552 449.61963   L 544.81749 452.18342   L 543.17198 455.24466   L 541.4882 458.26763   L 539.84269 461.25234   L 538.15891 464.19879   L 536.43686 467.10696   L 534.71481 470.01514   L 532.91623 472.84679   L 531.15591 475.7167   L 529.31906 478.54835   L 527.48221 481.38   L 525.56883 484.17338   L 523.65544 487.00502   L 521.66552 489.79841   L 519.63733 492.63005   L 517.57087 495.4617   L 515.46615 498.29335   L 513.05528 501.12499   L 510.64442 503.88011   L 508.19528 506.59696   L 505.70788 509.27555   L 503.22048 511.91587   L 500.73308 514.51792   L 498.16914 517.04344   L 495.64347 519.56897   L 493.04127 522.01796   L 490.47733 524.46695   L 487.83686 526.83941   L 485.19639 529.21187   L 482.51764 531.5078   L 479.8389 533.76547   L 477.1219 536.02313   L 474.36662 538.20426   L 471.57308 540.3854   L 468.77953 542.52827   L 465.94772 544.63287   L 463.11591 546.69921   L 460.20757 548.72728   L 457.29922 550.71708   L 454.35261 552.70689   L 451.36772 554.62016   L 448.38284 556.53344   L 445.32142 558.44671   L 442.26001 560.28346   L 439.16032 562.1202   L 435.9841 563.91868   L 432.84615 565.67889   L 429.63166 567.43911   L 426.3789 569.16105   L 422.82001 570.76821   L 419.22284 572.33709   L 415.66394 573.82945   L 412.10505 575.3218   L 408.50788 576.77589   L 404.94898 578.19171   L 401.35182 579.56927   L 397.79292 580.90856   L 394.19575 582.20959   L 390.59859 583.47235   L 387.00142 584.69685   L 383.40426 585.84481   L 379.80709 586.99278   L 376.20993 588.06421   L 372.57449 589.09738   L 368.93906 590.09228   L 365.5715 590.81933   L 362.16567 591.50811   L 358.79812 592.19689   L 355.43056 592.80913   L 352.10126 593.42138   L 348.73371 593.9571   L 345.40441 594.49282   L 342.07512 595.02853   L 338.74583 595.48772   L 335.45481 595.9469   L 332.12552 596.36783   L 328.79623 596.78875   L 325.5052 597.1714   L 322.17591 597.55406   L 318.88489 597.89845   L 315.5556 598.24283   L 313.79528 598.2811   L 312.03497 598.31937   L 310.27465 598.31937   L 308.51434 598.35763   L 306.75402 598.3959   L 305.03197 598.43416   L 303.27166 598.47243   L 301.51134 598.51069   L 299.7893 598.54896   L 298.02898 598.58722   L 296.26867 598.62549   L 294.54662 598.66376   L 292.7863 598.70202   L 291.06426 598.74029   L 289.30394 598.77855   L 287.58189 598.81682  z "
     id="path2449" />
  <path
     style="fill:#131516;fill-rule:evenodd;fill-opacity:1;stroke:none;"
     d="  M 281.34426 571.53352   L 281.03811 571.41872   L 280.65544 571.34219   L 280.11969 571.22739   L 279.3926 571.11259   L 278.39764 570.95953   L 277.09654 570.76821   L 275.41276 570.57688   L 273.30804 570.30902   L 270.70583 570.0029   L 267.52961 569.62024   L 263.74111 569.16105   L 259.30205 568.6636   L 254.13591 568.05135   L 248.16615 567.36258   L 241.35449 566.59727   L 239.0967 566.09981   L 236.87717 565.60236   L 234.65764 565.10491   L 232.47638 564.56919   L 230.25685 564.03348   L 228.03733 563.49776   L 225.85607 562.92378   L 223.71307 562.3498   L 221.53181 561.77581   L 219.38882 561.20183   L 217.2841 560.58958   L 215.17937 560.0156   L 213.07465 559.40335   L 211.00819 558.82937   L 208.98 558.21712   L 206.99008 557.64314   L 205.15323 556.91609   L 203.35465 556.15078   L 201.55607 555.38547   L 199.79575 554.62016   L 198.03544 553.81659   L 196.27512 553.01301   L 194.55307 552.17117   L 192.83103 551.32933   L 189.4252 549.60738   L 186.09591 547.8089   L 182.76662 546.01043   L 179.47559 544.13542   L 176.2611 542.22214   L 173.00835 540.30887   L 169.83213 538.35733   L 166.65591 536.40579   L 163.47969 534.41598   L 160.34173 532.46444   L 157.16551 530.47463   L 154.02756 528.52309   L 152.38205 527.1838   L 150.39213 525.53838   L 148.09607 523.66337   L 145.60866 521.59704   L 142.92992 519.33937   L 140.13638 516.92865   L 137.34284 514.40312   L 134.54929 511.80107   L 133.20992 510.50004   L 131.87055 509.16075   L 130.56945 507.85972   L 129.34488 506.52043   L 128.15858 505.2194   L 127.01055 503.91838   L 125.97732 502.65561   L 124.98236 501.39285   L 124.10221 500.13009   L 123.29858 498.9056   L 122.5715 497.75763   L 121.99748 496.60967   L 121.53827 495.49997   L 121.19386 494.42853   L 120.96425 493.43363   L 120.88772 492.47699   L 122.30362 489.64534   L 123.79606 486.8137   L 125.36504 484.05858   L 126.97229 481.34173   L 128.6178 478.66315   L 130.33984 476.02283   L 132.13843 473.42077   L 133.97528 470.85698   L 135.8504 468.29319   L 137.76378 465.80594   L 139.71544 463.31868   L 141.74362 460.86969   L 143.77181 458.45896   L 145.83827 456.0865   L 147.94299 453.71404   L 150.08599 451.34158   L 152.22898 449.00738   L 154.41024 446.71145   L 156.62977 444.41552   L 158.84929 442.11959   L 163.32662 437.60426   L 167.84221 433.1272   L 172.3578 428.65014   L 176.87339 424.21134   L 181.38898 419.73427   L 185.82803 415.25721   L 186.78473 413.91792   L 187.74142 412.57863   L 188.65985 411.23933   L 189.57827 409.86178   L 190.4967 408.48422   L 191.37685 407.10666   L 192.25701 405.69084   L 193.0989 404.27501   L 193.94079 402.85919   L 194.78268 401.44337   L 195.54803 399.98928   L 196.35166 398.53519   L 197.11701 397.0811   L 197.8441 395.62701   L 198.57118 394.13465   L 199.26 392.6423   L 199.94882 391.14995   L 200.63764 389.65759   L 201.24992 388.16524   L 201.90048 386.63462   L 202.47449 385.14226   L 203.04851 383.61164   L 203.62252 382.08102   L 204.15827 380.5504   L 204.65575 379.01978   L 205.11496 377.4509   L 205.57418 375.92028   L 206.03339 374.35139   L 206.45433 372.82077   L 206.83701 371.25189   L 207.18142 369.683   L 207.52583 368.11411   L 207.7937 365.81818   L 208.06158 363.36919   L 208.32945 360.8054   L 208.59733 358.16508   L 208.8652 355.4865   L 209.13307 352.80791   L 209.36268 350.20586   L 209.59229 347.68034   L 209.82189 345.26961   L 210.01323 343.01195   L 210.20457 340.98387   L 210.39591 339.1854   L 210.54898 337.65478   L 210.66378 336.43028   L 210.77859 335.58844   L 210.89339 335.12925   L 213.45733 333.78996   L 216.02126 332.5272   L 218.54693 331.22617   L 221.03433 330.00168   L 223.48347 328.77718   L 225.97087 327.55268   L 228.42 326.36645   L 230.86914 325.18022   L 233.35654 324.03226   L 235.84394 322.92256   L 238.36961 321.81286   L 240.93355 320.70316   L 243.53575 319.63173   L 246.17622 318.59856   L 248.89323 317.56539   L 251.64851 316.53222   L 254.17418 316.45569   L 256.66158 316.37916   L 259.18725 316.26436   L 261.71292 316.18783   L 264.23859 316.1113   L 266.76426 316.03477   L 269.25166 315.95824   L 271.77733 315.88171   L 275.10662 315.53732   L 278.55071 315.19293   L 282.03307 314.81027   L 285.5537 314.35109   L 287.31402 314.08323   L 289.1126 313.81537   L 290.91119 313.54751   L 292.6715 313.20312   L 294.47008 312.85873   L 296.26867 312.51434   L 298.02898 312.13169   L 299.82756 311.71077   L 301.58788 311.25158   L 303.34819 310.75413   L 305.07024 310.25668   L 306.79229 309.6827   L 308.51434 309.10871   L 310.23638 308.49646   L 311.88189 307.84595   L 313.56567 307.15717   L 315.17292 306.39186   L 316.78016 305.62655   L 318.34914 304.78471   L 319.91811 303.94287   L 321.41056 303.0245   L 322.903 302.0296   L 324.3189 301.03469   L 325.73481 299.96326   L 327.72473 297.82039   L 329.59985 295.75405   L 331.36016 293.72598   L 333.08221 291.73618   L 334.68945 289.74637   L 336.22016 287.79483   L 336.98552 286.79993   L 337.67434 285.80502   L 338.40142 284.81012   L 339.09024 283.77695   L 339.74079 282.74378   L 340.39134 281.71061   L 341.00363 280.67745   L 341.61591 279.60601   L 342.22819 278.53458   L 342.80221 277.42488   L 343.37623 276.31518   L 343.91197 275.12895   L 344.44772 273.98098   L 344.98347 272.75649   L 345.48095 271.53199   L 345.97843 270.26923   L 346.43764 268.9682   L 346.89686 267.62891   L 347.35607 266.25135   L 347.77701 264.83553   L 348.31276 261.96562   L 348.77197 259.05744   L 349.15465 256.18753   L 349.46079 253.35588   L 349.6904 250.52423   L 349.88174 247.80738   L 349.99654 245.1288   L 350.03481 242.56501   L 349.49906 240.61347   L 348.81024 238.20274   L 347.96835 235.48589   L 347.08819 232.73077   L 346.62898 231.39148   L 346.1315 230.12872   L 345.67229 228.94249   L 345.17481 227.87106   L 344.7156 226.91442   L 344.21812 226.14911   L 343.98851 225.84298   L 343.7589 225.57513   L 343.5293 225.34553   L 343.29969 225.19247   L 343.18489 229.8226   L 343.03182 234.41446   L 342.84048 238.92979   L 342.5726 243.36858   L 342.38126 245.58798   L 342.18993 247.76912   L 341.96032 249.95025   L 341.73071 252.09312   L 341.42457 254.23599   L 341.08016 256.37885   L 340.69749 258.48346   L 340.23827 260.58806   L 339.74079 262.6544   L 339.20504 264.68247   L 338.59276 266.7488   L 337.94221 268.77688   L 337.17686 270.76668   L 336.37323 272.75649   L 335.49308 274.70803   L 334.49812 276.65957   L 333.46489 278.61111   L 332.31686 280.52438   L 331.09229 282.39939   L 329.79119 284.2744   L 328.37528 286.14941   L 326.84457 287.94789   L 325.23733 289.78464   L 323.51528 291.58311   L 321.90804 292.88414   L 320.30079 294.10864   L 318.73182 295.29487   L 317.16284 296.44283   L 315.59386 297.55253   L 314.06315 298.62397   L 312.49418 299.65713   L 310.9252 300.61377   L 309.31796 301.57041   L 307.71071 302.48878   L 306.0652 303.40715   L 304.38142 304.28726   L 302.69764 305.1291   L 300.93733 305.97094   L 299.13874 306.77452   L 297.30189 307.57809   L 292.70977 308.573   L 289.15087 309.33831   L 286.31906 309.95055   L 283.98473 310.40974   L 281.88 310.79239   L 279.73701 311.17505   L 277.21134 311.5577   L 274.14993 312.05516   L 271.35638 312.09342   L 268.60111 312.13169   L 265.84583 312.16995   L 263.05229 312.24648   L 260.29701 312.28475   L 257.54174 312.36128   L 254.82473 312.43781   L 252.06945 312.51434   L 249.88819 313.05006   L 247.70693 313.62404   L 245.60221 314.27456   L 243.53575 315.0016   L 241.46929 315.76691   L 239.47937 316.57049   L 237.48945 317.41233   L 235.49953 318.29243   L 233.54788 319.21081   L 231.63449 320.16744   L 229.72111 321.12408   L 227.80772 322.11898   L 225.89433 323.15215   L 223.98095 324.18532   L 222.10583 325.21849   L 220.19244 326.28992   L 217.43717 327.43789   L 214.68189 328.58585   L 211.92662 329.73382   L 209.20961 330.88178   L 206.45433 332.02975   L 203.73733 333.21598   L 200.98205 334.36394   L 198.26504 335.51191   L 195.50977 336.69814   L 192.79276 337.8461   L 190.07575 338.99407   L 187.32048 340.1803   L 184.60347 341.32826   L 181.88646 342.51449   L 179.13118 343.66246   L 176.41418 344.84869   L 176.41418 346.80023   L 176.41418 348.71351   L 176.41418 350.66505   L 176.41418 352.57832   L 176.45244 354.52986   L 176.45244 356.4814   L 176.49071 358.43294   L 176.52898 360.42275   L 176.1463 362.71868   L 175.72536 365.01461   L 175.22788 367.19574   L 174.65386 369.37688   L 174.00331 371.48148   L 173.31449 373.50955   L 172.54914 375.53762   L 171.74551 377.48916   L 170.86536 379.40244   L 169.94693 381.27745   L 168.95197 383.11419   L 167.91874 384.91267   L 166.84725 386.67288   L 165.69922 388.39483   L 164.51292 390.07851   L 163.28835 391.76219   L 161.98725 393.36934   L 160.68614 394.9765   L 159.30851 396.58365   L 157.8926 398.11427   L 156.43843 399.68315   L 154.98425 401.17551   L 153.45355 402.66786   L 151.88457 404.16022   L 150.31559 405.65257   L 148.67008 407.10666   L 147.02457 408.56075   L 145.34079 409.97657   L 141.89669 412.84648   L 138.3378 415.7164   L 135.65906 418.77764   L 132.98032 421.83888   L 130.30158 424.90012   L 127.62284 427.96136   L 124.90583 431.0226   L 122.22709 434.08384   L 119.54835 437.14508   L 116.86961 440.20632   L 116.4104 441.00989   L 115.98945 441.69867   L 115.56851 442.31092   L 115.14756 442.84664   L 114.91795 443.03796   L 114.68835 443.26756   L 114.42047 443.45889   L 114.11433 443.61195   L 113.80819 443.72674   L 113.42551 443.84154   L 113.04284 443.95634   L 112.62189 444.03287   L 112.69843 442.50225   L 112.81323 441.00989   L 113.00457 439.5558   L 113.19591 438.10172   L 113.42551 436.68589   L 113.65512 435.27007   L 113.96126 433.89251   L 114.2674 432.51495   L 114.65008 431.17566   L 115.03276 429.87463   L 115.41543 428.53534   L 115.87465 427.27258   L 116.33386 425.97155   L 116.83134 424.70879   L 117.32882 423.44603   L 117.86457 422.22153   L 118.43858 420.95877   L 119.0126 419.73427   L 119.62488 418.50978   L 120.23717 417.32355   L 121.57654 414.91282   L 122.95418 412.5021   L 124.44662 410.09137   L 125.93906 407.68064   L 127.5463 405.26992   L 129.19181 402.82092   L 129.07701 402.4   L 129.03874 401.97908   L 128.96221 401.55816   L 128.96221 401.13724   L 127.62284 402.32347   L 126.32173 403.54797   L 125.09717 404.81073   L 123.91087 406.11176   L 122.76284 407.45105   L 121.65307 408.82861   L 120.58158 410.24443   L 119.58662 411.66025   L 118.62992 413.15261   L 117.7115 414.64496   L 116.83134 416.17558   L 115.95118 417.74447   L 115.14756 419.35162   L 114.38221 420.95877   L 113.65512 422.56592   L 112.9663 424.2496   L 112.31575 425.89502   L 111.70347 427.61697   L 111.09118 429.30065   L 110.51717 431.0226   L 110.01969 432.74454   L 109.48394 434.50476   L 109.02473 436.26497   L 108.56551 438.02518   L 108.18284 439.7854   L 107.76189 441.54561   L 107.41748 443.34409   L 107.07307 445.1043   L 106.72866 446.86451   L 106.42252 448.66299   L 106.15465 450.42321   L 105.88677 452.18342   L 105.15969 452.10689   L 104.47087 452.03036   L 103.78205 451.99209   L 103.09323 451.95383   L 101.40945 449.46657   L 99.763938 446.94105   L 98.080159 444.41552   L 96.434647 441.89   L 94.789135 439.40274   L 93.143623 436.91548   L 91.536379 434.42823   L 89.890867 431.94097   L 88.857639 429.87463   L 88.015749 427.88483   L 87.288663 425.89502   L 86.676379 423.94348   L 86.217167 421.99194   L 85.911025 420.07866   L 85.719686 418.20365   L 85.604883 416.32865   L 85.643151 414.4919   L 85.796222 412.69342   L 86.025828 410.89494   L 86.370237 409.13473   L 86.82945 407.37452   L 87.32693 405.65257   L 87.939214 403.93062   L 88.666301 402.24694   L 89.431655 400.56326   L 90.273545 398.91784   L 91.19197 397.27243   L 92.148663 395.66527   L 93.181891 394.05812   L 94.253387 392.48924   L 95.401419 390.92035   L 96.54945 389.38973   L 97.774017 387.82085   L 98.998584 386.32849   L 100.29969 384.79787   L 101.56252 383.30552   L 104.20299 380.32081   L 106.88173 377.41263   L 106.07811 377.56569   L 105.31276 377.75702   L 104.50914 377.98661   L 103.74378 378.29274   L 103.01669 378.63713   L 102.28961 379.05805   L 101.56252 379.51723   L 100.8737 380.01469   L 100.18488 380.5504   L 99.496064 381.12438   L 98.845513 381.73663   L 98.194962 382.38715   L 97.544411 383.07593   L 96.932127 383.7647   L 96.358112 384.49175   L 95.745828 385.21879   L 94.597797 386.74941   L 93.526301 388.3183   L 92.454804 389.92545   L 91.459844 391.49434   L 89.584726 394.51731   L 87.862678 397.23416   L 87.67134 397.80814   L 87.17386 399.3005   L 86.82945 400.33367   L 86.408505 401.44337   L 85.949293 402.66786   L 85.413545 403.89236   L 84.877797 405.15512   L 84.303781 406.34135   L 83.691497 407.45105   L 83.117482 408.48422   L 82.81134 408.90514   L 82.505198 409.32606   L 82.199056 409.67045   L 81.892915 409.97657   L 81.586773 410.20617   L 81.280631 410.39749   L 80.974489 410.51229   L 80.706615 410.55055   L 80.323938 409.97657   L 80.017796 409.32606   L 79.711655 408.67555   L 79.405513 407.9485   L 79.175907 407.18319   L 78.984568 406.37962   L 78.793229 405.57604   L 78.601891 404.69593   L 78.487088 403.81583   L 78.372285 402.89745   L 78.295749 401.97908   L 78.219214 401.02245   L 78.142678 399.10917   L 78.104411 397.11936   L 78.142678 395.16782   L 78.257481 393.21628   L 78.372285 391.34127   L 78.525355 389.50453   L 78.678426 387.78258   L 78.831497 386.17543   L 78.984568 384.72134   L 79.137639 383.45858   L 79.78819 381.35398   L 80.438741 379.32591   L 81.12756 377.37437   L 81.854647 375.46109   L 82.620001 373.62435   L 83.385356 371.82587   L 84.227245 370.02739   L 85.069135 368.22891   L 85.719686 367.3488   L 86.33197 366.43043   L 86.982521 365.58859   L 87.633072 364.74675   L 88.972442 363.1396   L 90.35008 361.60898   L 91.727718 360.15489   L 93.143623 358.73907   L 94.597797 357.39977   L 96.090238 356.09875   L 97.620946 354.83599   L 99.151655 353.57322   L 100.7589 352.34873   L 102.40441 351.12423   L 105.81024 348.71351   L 109.36914 346.18798   L 109.63701 345.46094   L 109.82835 344.84869   L 109.98142 344.35124   L 110.09622 343.85379   L 110.28756 342.66756   L 110.4789 340.83081   L 109.79008 339.83591   L 109.06299 338.76448   L 108.33591 337.65478   L 107.64709 336.50681   L 106.95827 335.32058   L 106.34599 334.09608   L 105.7337 332.87159   L 105.23622 331.60883   L 105.00662 330.99658   L 104.81528 330.38433   L 104.62394 329.73382   L 104.47087 329.12157   L 104.3178 328.50932   L 104.24126 327.89707   L 104.16473 327.28483   L 104.12646 326.67258   L 104.08819 326.0986   L 104.12646 325.52461   L 104.20299 324.95063   L 104.27953 324.37665   L 104.4326 323.80267   L 104.62394 323.26695   L 104.85354 322.7695   L 105.12142 322.23378   L 105.6189 322.23378   L 106.19291 322.23378   L 106.76693 322.23378   L 107.34095 322.31031   L 108.60378 322.46337   L 109.94315 322.69297   L 111.32079 322.96082   L 112.73669 323.30521   L 114.19087 323.68787   L 115.68331 324.10879   L 118.66819 325.02716   L 121.65307 325.9838   L 124.52315 326.90217   L 127.16362 327.74401   L 128.38819 327.70575   L 129.53622 327.70575   L 130.68425 327.66748   L 131.79402 327.59095   L 132.86551 327.51442   L 133.97528 327.39962   L 135.04677 327.28483   L 136.11827 327.0935   L 137.18977 326.94044   L 138.29953 326.71084   L 139.40929 326.48125   L 140.55732 326.21339   L 143.00646 325.60114   L 145.64693 324.79757   L 151.31055 323.7644   L 156.32362 322.88429   L 160.57134 322.15725   L 164.16851 321.545   L 167.00032 321.04755   L 169.14331 320.66489   L 169.94693 320.51183   L 170.55922 320.35877   L 171.01843 320.24397   L 171.24803 320.12918   L 171.24803 319.51693   L 171.24803 318.94295   L 171.24803 318.40723   L 171.24803 317.87151   L 170.90362 317.60365   L 170.36788 317.41233   L 169.75559 317.25926   L 168.95197 317.18273   L 168.07181 317.14447   L 167.07685 317.18273   L 166.00536 317.221   L 164.81906 317.3358   L 163.55622 317.48886   L 162.21685 317.68018   L 160.83921 317.87151   L 159.38504 318.13937   L 156.40016 318.67509   L 153.33874 319.3256   L 150.23906 320.01438   L 147.17764 320.70316   L 144.26929 321.4302   L 141.55229 322.11898   L 139.10315 322.73123   L 137.03669 323.30521   L 135.35292 323.72613   L 134.20488 324.03226   L 133.24819 324.03226   L 132.2915 323.99399   L 131.33481 323.91746   L 130.41638 323.84093   L 128.54126 323.6496   L 126.70441 323.34348   L 124.86756 322.99909   L 123.06898 322.61643   L 121.2704 322.19551   L 119.51008 321.73633   L 117.78803 321.23888   L 116.06599 320.74143   L 114.34394 320.24397   L 112.66016 319.74652   L 110.97638 319.24907   L 109.2926 318.78988   L 107.64709 318.36896   L 106.00158 317.98631   L 105.65717 316.87661   L 105.38929 315.84344   L 105.12142 314.8868   L 104.93008 314.0067   L 104.77701 313.16486   L 104.70047 312.36128   L 104.62394 311.59597   L 104.62394 310.83066   L 104.66221 310.06535   L 104.73874 309.33831   L 104.89181 308.61126   L 105.08315 307.80769   L 105.31276 307.00411   L 105.6189 306.16227   L 105.96331 305.28216   L 106.34599 304.32553   L 106.34599 303.75154   L 106.34599 303.21583   L 106.34599 302.71837   L 106.34599 302.22092   L 105.38929 301.68521   L 104.47087 301.11122   L 103.55244 300.53724   L 102.63402 299.96326   L 101.71559 299.35101   L 100.8737 298.73876   L 99.993545 298.12651   L 99.189923 297.476   L 98.386301 296.86375   L 97.659214 296.21324   L 96.932127 295.56273   L 96.281576 294.91221   L 95.669293 294.2617   L 95.095277 293.61119   L 94.597797 292.99894   L 94.138584 292.34842   L 94.176852 291.08566   L 94.215119 289.86117   L 94.329923 288.7132   L 94.444726 287.6035   L 94.636064 286.53207   L 94.827403 285.53716   L 95.095277 284.54226   L 95.363151 283.54736   L 95.669293 282.59072   L 95.975434 281.63408   L 96.358112 280.63918   L 96.740789 279.64428   L 97.582679 277.57794   L 98.501104 275.35854   L 100.95024 270.80495   L 103.47591 266.25135   L 106.03984 261.77429   L 108.68032 257.33549   L 111.35906 252.89669   L 114.11433 248.49616   L 116.94614 244.17216   L 119.81622 239.84816   L 122.72457 235.56242   L 125.67118 231.31495   L 128.65606 227.06748   L 131.71748 222.89654   L 134.81717 218.76387   L 137.91685 214.63119   L 141.09307 210.53678   L 144.26929 206.51891   L 145.95307 204.18471   L 147.63685 201.85052   L 149.32063 199.51632   L 151.00441 197.18212   L 152.68819 194.84793   L 154.37197 192.552   L 156.05575 190.2178   L 157.73953 187.88361   L 159.42331 185.54941   L 161.10709 183.25348   L 162.79087 180.91929   L 164.47465 178.58509   L 166.15843 176.28916   L 167.88047 173.95497   L 169.56425 171.65904   L 171.24803 169.36311   L 171.4011 167.33503   L 171.51591 165.34523   L 171.66898 163.47022   L 171.86032 161.63347   L 171.97512 160.75337   L 172.16646 159.87326   L 172.39607 159.03142   L 172.66394 158.18958   L 172.97008 157.386   L 173.35276 156.58243   L 173.7737 155.77885   L 174.27118 155.01354   L 176.10803 153.67425   L 177.94488 152.33496   L 179.85827 151.0722   L 181.77166 149.80943   L 183.76158 148.58494   L 185.7515 147.39871   L 187.77969 146.21248   L 189.80788 145.06451   L 191.83607 143.87828   L 193.90252 142.73032   L 195.96898 141.58235   L 197.99717 140.43439   L 200.06362 139.24816   L 202.09181 138.10019   L 204.08174 136.8757   L 206.07166 135.6512   L 207.44929 134.61803   L 208.8652 133.5466   L 210.24284 132.51343   L 211.62048 131.44199   L 212.99811 130.40883   L 214.37575 129.37566   L 215.79166 128.30422   L 217.16929 127.27105   L 216.82489 123.29144   L 216.55701 120.03888   L 216.44221 118.66132   L 216.44221 117.39856   L 216.44221 116.82457   L 216.48048 116.25059   L 216.55701 115.71487   L 216.67181 115.17916   L 216.78662 114.6817   L 216.93969 114.18425   L 217.13103 113.6868   L 217.36063 113.22762   L 217.62851 112.76843   L 217.93465 112.30924   L 218.31733 111.85006   L 218.7 111.39087   L 219.15922 110.93169   L 219.6567 110.4725   L 220.19244 110.01331   L 220.80473 109.51586   L 221.49355 109.01841   L 222.22063 108.52096   L 223.02426 107.98524   L 223.86614 107.44953   L 224.05748 105.72758   L 224.24882 104.0439   L 224.40189 102.32195   L 224.6315 100.63827   L 224.82284 98.954584   L 225.01418 97.270902   L 225.24378 95.58722   L 225.43512 93.903538   L 225.89433 92.028529   L 226.39181 90.153519   L 226.92756 88.316775   L 227.53985 86.480031   L 228.15213 84.681553   L 228.84095 82.883074   L 229.56803 81.084596   L 230.37166 79.324382   L 231.17528 77.602435   L 232.01717 75.880487   L 232.93559 74.15854   L 233.85402 72.474858   L 234.84898 70.829441   L 235.84394 69.184025   L 236.87717 67.538608   L 237.94866 65.931457   L 239.05843 64.362572   L 240.20646 62.793686   L 241.39276 61.263066   L 242.57906 59.732446   L 243.80363 58.240092   L 245.06646 56.786003   L 246.36756 55.331914   L 247.66867 53.91609   L 248.96977 52.500267   L 250.30914 51.122709   L 251.68678 49.783416   L 253.06441 48.482389   L 254.48032 47.181362   L 255.89622 45.880335   L 257.3504 44.655839   L 258.80457 43.431343   L 260.18221 42.666033   L 261.55985 41.900723   L 262.97575 41.173679   L 264.35339 40.408369   L 265.7693 39.681324   L 267.14693 38.954279   L 268.56284 38.227235   L 269.97874 37.50019   L 271.81559 36.773146   L 273.61418 36.084367   L 275.41276 35.433853   L 277.17307 34.821605   L 278.93339 34.247623   L 280.65544 33.711906   L 282.41575 33.176189   L 284.09953 32.678737   L 285.82158 32.219551   L 287.54363 31.798631   L 289.22741 31.415976   L 290.91119 31.033321   L 292.59496 30.688931   L 294.31701 30.382807   L 296.00079 30.076683   L 297.68457 29.84709   L 299.40662 29.579232   L 301.12867 29.387904   L 302.81245 29.196577   L 304.57276 29.043515   L 306.29481 28.928718   L 308.05512 28.813922   L 309.81544 28.699125   L 311.61402 28.66086   L 313.4126 28.622594   L 315.24945 28.584329   L 317.0863 28.584329   L 318.96142 28.622594   L 322.78819 28.699125   L 326.72977 28.890453   L 329.52331 29.42617   L 332.39339 30.000152   L 335.2252 30.6124   L 338.13355 31.224648   L 341.04189 31.913427   L 343.95024 32.640472   L 345.40441 33.023127   L 346.85859 33.444047   L 348.27449 33.864968   L 349.72867 34.324154   L 351.18284 34.821605   L 352.59875 35.319057   L 354.01465 35.816508   L 355.43056 36.352225   L 356.84646 36.926208   L 358.2241 37.538456   L 359.60174 38.150704   L 360.97938 38.839483   L 362.31875 39.528262   L 363.65812 40.255307   L 364.99749 40.982351   L 366.29859 41.785927   L 367.56142 42.627768   L 368.82426 43.469609   L 370.08709 44.387981   L 371.31166 45.344618   L 371.46473 45.918601   L 371.65607 46.530849   L 371.84741 47.143097   L 372.07701 47.79361   L 371.84741 47.984938   L 371.65607 48.214531   L 371.46473 48.444124   L 371.31166 48.673717   L 368.74772 49.783416   L 366.26032 50.893116   L 363.92599 52.002815   L 361.62993 53.189046   L 359.44867 54.375276   L 357.34394 55.638038   L 355.27749 56.939065   L 353.28756 58.278357   L 351.29764 59.694181   L 349.38426 61.14827   L 347.47087 62.67889   L 345.59575 64.286041   L 343.68237 65.931457   L 341.80725 67.69167   L 339.89386 69.490149   L 337.94221 71.403424   L 337.10032 71.403424   L 336.25843 71.441689   L 335.41654 71.441689   L 334.57465 71.51822   L 332.50819 70.676379   L 330.44174 69.911069   L 328.41355 69.260556   L 326.46189 68.724839   L 324.51024 68.265653   L 322.59686 67.921263   L 320.76 67.653405   L 318.92315 67.500343   L 317.12457 67.423812   L 315.32599 67.423812   L 313.60394 67.538608   L 311.88189 67.729936   L 310.19811 68.03606   L 308.5526 68.380449   L 306.90709 68.839635   L 305.33811 69.375352   L 303.73087 69.9876   L 302.20016 70.714645   L 300.66945 71.479955   L 299.17701 72.360061   L 297.68457 73.278433   L 296.2304 74.311602   L 294.77622 75.383036   L 293.36032 76.531001   L 291.94441 77.793762   L 290.56678 79.094789   L 289.18914 80.434082   L 287.8115 81.888171   L 286.47213 83.418791   L 285.17103 84.987677   L 283.83166 86.594828   L 282.53056 88.316775   L 281.80347 89.656068   L 281.11465 91.033626   L 280.4641 92.411184   L 279.89008 93.865273   L 279.62221 94.592317   L 279.35433 95.357627   L 279.12473 96.122937   L 278.93339 96.888247   L 278.78032 97.691823   L 278.62725 98.495398   L 278.47418 99.337239   L 278.39764 100.17908   L 279.00993 100.90612   L 279.54567 101.63317   L 280.00489 102.32195   L 280.38756 103.04899   L 280.73197 103.73777   L 280.99985 104.42655   L 281.26772 105.1536   L 281.45906 105.88064   L 281.61213 106.68422   L 281.7652 107.48779   L 281.88 108.3679   L 281.99481 109.28627   L 282.18615 111.35261   L 282.41575 113.72507   L 284.32914 114.22252   L 286.20426 114.71997   L 288.11764 115.21742   L 290.03103 115.75314   L 291.98268 116.25059   L 293.89607 116.74804   L 295.80945 117.24549   L 297.76111 117.74294   L 298.79434 115.98273   L 299.7893 114.45211   L 300.66945 113.11282   L 301.51134 111.92659   L 301.93229 111.39087   L 302.35323 110.93169   L 302.73591 110.4725   L 303.15685 110.05158   L 303.5778 109.66892   L 303.96048 109.28627   L 304.41969 108.94188   L 304.84063 108.63576   L 305.29985 108.3679   L 305.79733 108.06177   L 306.29481 107.83218   L 306.79229 107.56432   L 307.90205 107.1434   L 309.16489 106.72248   L 310.58079 106.30156   L 312.14977 105.91891   L 313.91008 105.45972   L 315.9 105.00053   L 316.35922 104.57961   L 316.89497 104.0439   L 317.69859 103.08726   L 318.92315 101.55664   L 320.79827 99.107646   L 323.47701 95.58722   L 327.18898 90.689236   L 332.12552 84.184101   L 334.15371 81.964702   L 336.18189 79.8601   L 338.24835 77.793762   L 340.31481 75.765691   L 342.38126 73.81415   L 344.48599 71.939141   L 346.62898 70.102397   L 348.77197 68.342184   L 350.95323 66.620236   L 353.13449 64.936554   L 355.35402 63.329403   L 357.61182 61.798783   L 359.86961 60.306429   L 362.16567 58.85234   L 364.50001 57.474782   L 366.83434 56.135489   L 369.2452 54.834462   L 371.65607 53.609966   L 374.06693 52.423736   L 376.55434 51.275771   L 379.08001 50.204337   L 381.60567 49.171168   L 384.20788 48.176265   L 386.81008 47.219628   L 389.45056 46.301256   L 392.1293 45.459415   L 394.88457 44.617574   L 397.63985 43.852264   L 400.43339 43.125219   L 403.30347 42.43644   L 406.21182 41.785927   L 409.12016 41.173679   L 411.5693 40.982351   L 414.09497 40.791024   L 416.6589 40.599696   L 419.29938 40.408369   L 421.97812 40.293572   L 424.65686 40.178776   L 427.37386 40.102245   L 430.0526 40.063979   L 431.69812 40.217041   L 433.34363 40.370103   L 435.02741 40.599696   L 436.67292 40.829289   L 438.31843 41.058882   L 439.96394 41.365006   L 441.60946 41.67113   L 443.25497 42.01552   L 444.86221 42.398175   L 446.50772 42.78083   L 448.15323 43.20175   L 449.79875 43.660936   L 451.40599 44.120122   L 453.0515 44.617574   L 454.65875 45.153291   L 456.30426 45.727273   L 457.9115 46.301256   L 459.51875 46.875238   L 461.12599 47.525752   L 462.69497 48.176265   L 464.30221 48.826779   L 465.87119 49.515558   L 467.47843 50.242602   L 469.04741 50.969647   L 470.61638 51.734957   L 472.14709 52.538532   L 473.71607 53.342108   L 475.24678 54.145683   L 476.77749 54.987524   L 478.3082 55.867631   L 479.8389 56.747737   L 481.33135 57.627844   L 483.24473 59.847243   L 485.08158 61.990111   L 486.9567 64.132979   L 488.75528 66.275847   L 490.55387 68.380449   L 492.31418 70.523317   L 494.0745 72.666185   L 495.83481 74.847319   L 497.55686 77.066718   L 499.2789 79.286117   L 500.96268 81.582047   L 502.64646 83.916243   L 504.33024 86.288704   L 505.97576 88.737696   L 507.65953 91.301484   L 509.30505 93.903538   L 510.79749 98.916319   L 512.21339 103.96736   L 513.59103 109.01841   L 514.9304 114.10772   L 516.19324 119.2353   L 517.49434 124.36288   L 518.71891 129.52872   L 519.94347 134.69456   L 521.16804 139.89867   L 522.39261 145.10278   L 523.65544 150.30689   L 524.91828 155.54926   L 526.18111 160.79163   L 527.48221 166.03401   L 528.85985 171.27638   L 530.23749 176.51875   L 531.23245 178.08764   L 532.15087 179.50346   L 532.99276 180.72796   L 533.79639 181.76113   L 534.21733 182.25858   L 534.60001 182.71776   L 534.98268 183.13869   L 535.40363 183.52134   L 535.82457 183.86573   L 536.24552 184.21012   L 536.66646 184.51624   L 537.12568 184.82237   L 537.58489 185.09023   L 538.0441 185.35808   L 538.57985 185.58768   L 539.1156 185.81727   L 540.3019 186.23819   L 541.603 186.65911   L 543.09544 187.04177   L 544.77922 187.42442   L 546.69261 187.80708   L 548.8356 188.26626   L 549.10347 188.76371   L 549.40961 189.26117   L 549.71576 189.75862   L 550.06017 190.29433   L 549.67749 190.98311   L 549.21828 191.63363   L 548.7208 192.20761   L 548.18505 192.74333   L 547.57276 193.24078   L 546.92221 193.6617   L 546.27166 194.04435   L 545.54457 194.35048   L 544.81749 194.6566   L 544.05213 194.92446   L 543.24851 195.11579   L 542.40662 195.30711   L 541.56473 195.46018   L 540.72284 195.57497   L 539.84269 195.6515   L 538.96253 195.68977   L 537.16394 195.7663   L 535.36536 195.72803   L 533.56678 195.6515   L 531.80646 195.53671   L 528.51544 195.26885   L 525.64536 195.07752   L 524.38253 194.46527   L 523.15796 193.81476   L 521.89513 193.20251   L 520.63229 192.59026   L 519.40772 191.93975   L 518.14489 191.3275   L 516.92032 190.67699   L 515.69576 190.06474   L 514.27985 188.84024   L 512.86394 187.61575   L 511.44804 186.39125   L 510.0704 185.20502   L 508.6545 183.98053   L 507.27686 182.75603   L 505.89922 181.53153   L 504.52158 180.30704   L 503.06741 178.2407   L 501.72804 176.17436   L 500.38867 174.06976   L 499.1641 171.96516   L 497.93953 169.82229   L 496.75324 167.67942   L 495.64347 165.53656   L 494.53371 163.39369   L 493.50048 161.21255   L 492.46725 159.03142   L 491.51056 156.81202   L 490.55387 154.63089   L 489.59717 152.41149   L 488.71701 150.19209   L 487.83686 147.97269   L 486.9567 145.75329   L 485.27292 141.27623   L 483.62741 136.79916   L 482.02016 132.28384   L 480.41292 127.80677   L 478.80568 123.29144   L 477.1219 118.81438   L 476.28001 116.59498   L 475.39985 114.33732   L 474.51969 112.11792   L 473.60127 109.89852   L 472.68284 108.3679   L 471.76442 106.83728   L 470.88426 105.30666   L 470.0041 103.77604   L 469.08568 102.24542   L 468.20552 100.75306   L 467.32536 99.222443   L 466.4452 97.730088   L 465.33544 96.811716   L 464.26394 95.893344   L 463.15418 94.974972   L 462.08268 94.094866   L 460.97292 93.214759   L 459.90142 92.296387   L 458.79166 91.416281   L 457.72016 90.536174   L 455.76851 89.349944   L 453.85512 88.27851   L 451.98001 87.245341   L 450.14316 86.326969   L 448.30631 85.485128   L 446.50772 84.719818   L 444.70914 84.031039   L 442.87229 83.418791   L 441.07371 82.844809   L 439.23686 82.347357   L 437.36174 81.888171   L 435.44835 81.505516   L 433.53497 81.161127   L 431.54505 80.855003   L 429.47859 80.587144   L 427.37386 80.357551   L 424.54205 80.740206   L 422.32253 81.04633   L 420.56221 81.275923   L 418.99323 81.543782   L 417.46253 81.81164   L 415.77875 82.117764   L 413.78882 82.538685   L 411.26316 83.036136   L 409.73245 83.839712   L 408.24001 84.643287   L 406.74756 85.446863   L 405.21686 86.250438   L 403.72442 87.054014   L 402.23197 87.895855   L 400.73953 88.69943   L 399.28536 89.541271   L 397.02756 90.99536   L 394.8463 92.449449   L 392.74158 93.903538   L 390.63686 95.395893   L 388.60867 96.888247   L 386.61875 98.380602   L 384.66709 99.949487   L 382.71544 101.48011   L 380.84032 103.08726   L 378.9652 104.69441   L 377.09008 106.33983   L 375.25323 108.06177   L 373.41638 109.78372   L 371.57953 111.5822   L 369.78095 113.41894   L 367.9441 115.29395   L 366.94914 116.63325   L 365.95418 117.97254   L 364.95922 119.31183   L 363.96426 120.68939   L 363.00756 122.02868   L 362.05087 123.40624   L 361.05591 124.74553   L 360.09922 126.16136   L 359.86961 128.57208   L 359.60174 130.67668   L 359.48693 131.63332   L 359.33386 132.55169   L 359.18079 133.35527   L 359.02772 134.15884   L 358.83638 134.84762   L 358.64504 135.5364   L 358.41544 136.14865   L 358.14756 136.72263   L 357.87969 137.22008   L 357.57355 137.71754   L 357.22914 138.13846   L 356.84646 138.52111   L 356.42552 138.8655   L 355.9663 139.20989   L 355.43056 139.51601   L 354.89481 139.74561   L 354.28252 140.01347   L 353.63197 140.20479   L 352.90489 140.39612   L 352.13953 140.58745   L 351.29764 140.74051   L 350.37922 140.89357   L 349.42252 141.00837   L 348.35103 141.12317   L 346.05497 141.35276   L 343.41449 141.58235   L 342.53434 142.1946   L 341.53938 142.84511   L 340.54441 143.45736   L 339.54945 144.10787   L 339.09024 144.45226   L 338.63103 144.79665   L 338.24835 145.17931   L 337.86567 145.56196   L 337.55953 145.94462   L 337.29166 146.36554   L 337.06205 146.82473   L 336.94725 147.28391   L 339.35812 146.74819   L 341.76898 146.21248   L 344.14158 145.67676   L 346.51418 145.17931   L 348.88678 144.68186   L 351.22111 144.22267   L 353.59371 143.76349   L 356.00457 143.34256   L 358.37717 142.92164   L 360.8263 142.53899   L 363.27544 142.1946   L 365.76284 141.85021   L 368.28851 141.54409   L 370.89071 141.27623   L 373.53119 141.04663   L 376.20993 140.81704   L 380.53418 140.77878   L 384.85843 140.77878   L 389.22095 140.89357   L 393.58347 141.04663   L 397.98426 141.23796   L 402.38505 141.50582   L 406.78583 141.81194   L 411.18662 142.11807   L 415.62568 142.46246   L 420.06473 142.84511   L 424.54205 143.1895   L 428.98111 143.57216   L 433.45843 143.95481   L 437.89749 144.2992   L 442.37481 144.64359   L 446.85213 144.94972   L 448.76552 145.02625   L 450.6789 145.06451   L 452.59229 145.14104   L 454.50568 145.21757   L 456.41906 145.25584   L 458.37072 145.33237   L 460.2841 145.4089   L 462.19749 145.44717   L 464.14914 145.5237   L 466.06253 145.60023   L 467.97591 145.67676   L 469.92757 145.75329   L 471.84095 145.82982   L 473.79261 145.90635   L 475.70599 145.98288   L 477.65764 146.05942   L 477.92552 146.48034   L 478.15513 146.78646   L 478.34646 147.09258   L 478.46127 147.36044   L 478.5378 147.6283   L 478.61434 147.97269   L 478.69087 148.43188   L 478.76741 148.96759   L 476.24174 151.41659   L 473.71607 153.86558   L 471.1904 156.31457   L 468.703 158.80183   L 466.17733 161.25082   L 463.65166 163.73808   L 461.12599 166.18707   L 458.60032 168.67433   L 456.6104 171.31465   L 454.54394 173.95497   L 453.47245 175.25599   L 452.40095 176.55702   L 451.29119 177.85805   L 450.14316 179.15907   L 448.99512 180.4601   L 447.84709 181.72286   L 446.66079 182.98562   L 445.47449 184.21012   L 444.24993 185.43462   L 443.02536 186.65911   L 441.76253 187.84534   L 440.49969 189.03157   L 439.23686 190.17954   L 437.93575 191.3275   L 436.59638 192.4372   L 435.25701 193.5469   L 433.91764 194.58007   L 432.57827 195.61324   L 431.20064 196.64641   L 429.78473 197.60304   L 428.40709 198.55968   L 426.99119 199.47805   L 425.53701 200.39643   L 424.12111 201.23827   L 422.62867 202.04184   L 421.17449 202.80715   L 419.68205 203.57246   L 418.18961 204.26124   L 413.98016 205.25614   L 410.68914 206.02145   L 408.08694 206.6337   L 405.90568 207.09289   L 403.91575 207.47554   L 401.8493 207.8582   L 399.4767 208.27912   L 396.49182 208.73831   L 394.96111 208.81484   L 393.4304 208.89137   L 391.93796 208.89137   L 390.48379 208.81484   L 389.02961 208.73831   L 387.57544 208.62351   L 386.15953 208.47045   L 384.7819 208.27912   L 383.40426 208.04953   L 382.02662 207.78167   L 380.68725 207.43728   L 379.34788 207.09289   L 378.04678 206.71023   L 376.74567 206.32758   L 375.44457 205.86839   L 374.18174 205.37094   L 372.95717 204.87349   L 371.69434 204.29951   L 370.50804 203.72552   L 369.28347 203.11328   L 368.09717 202.46276   L 366.91087 201.81225   L 365.76284 201.08521   L 364.61481 200.35816   L 363.46678 199.59285   L 362.35701 198.78928   L 361.24725 197.9857   L 360.13749 197.14386   L 359.06599 196.26375   L 357.95623 195.38365   L 356.923 194.46527   L 355.8515 193.50864   L 355.58363 193.50864   L 355.35402 193.5469   L 355.08615 193.58517   L 354.85654 193.62343   L 356.11938 195.11579   L 357.38221 196.45508   L 358.64504 197.75611   L 359.94615 198.94234   L 361.20898 200.0903   L 362.54835 201.16174   L 363.88772 202.15664   L 365.30363 203.15154   L 366.7578 204.06991   L 368.25024 204.95002   L 369.81922 205.79186   L 371.46473 206.6337   L 373.22504 207.43728   L 375.0619 208.24085   L 376.97528 209.04443   L 379.00347 209.848   L 381.06993 210.42199   L 383.02158 210.99597   L 384.97323 211.49342   L 386.81008 212.02914   L 388.64693 212.56486   L 390.40725 213.10057   L 392.16756 213.71282   L 393.88961 214.32507   L 395.57339 215.01385   L 397.25717 215.77916   L 398.09906 216.16181   L 398.97922 216.621   L 399.82111 217.04192   L 400.663 217.53937   L 401.50489 218.03682   L 402.34678 218.57254   L 403.18867 219.10826   L 404.06882 219.7205   L 404.91071 220.33275   L 405.79087 220.98327   L 406.67103 221.67204   L 407.55119 222.39909   L 407.85733 222.82001   L 408.24001 223.35573   L 408.77575 224.08277   L 409.57938 225.11594   L 410.65087 226.60829   L 412.10505 228.63637   L 413.9419 231.35322   L 416.31449 234.83538   L 417.30945 237.13131   L 418.30442 239.38897   L 419.33764 241.6849   L 420.3326 243.98083   L 421.32757 246.27676   L 422.36079 248.57269   L 423.35575 250.83036   L 424.38898 253.12629   L 425.38394 255.42222   L 426.41717 257.71815   L 427.41213 260.01408   L 428.44536 262.31001   L 429.44032 264.60594   L 430.47355 266.94013   L 431.50678 269.23606   L 432.54001 271.53199   L 432.54001 272.02944   L 432.61654 272.52689   L 432.65481 273.06261   L 432.76961 273.56006   L 432.15733 273.56006   L 431.58331 273.56006   L 430.97103 273.59833   L 430.39701 273.67486   L 428.71323 271.3024   L 426.18757 267.9733   L 424.69512 266.06002   L 423.08788 264.07022   L 421.4041 262.04215   L 419.68205 260.01408   L 418.8019 259.01917   L 417.92174 258.06254   L 417.04158 257.14416   L 416.16142 256.22579   L 415.31953 255.38395   L 414.43938 254.58037   L 413.63575 253.81506   L 412.79386 253.12629   L 412.02851 252.51404   L 411.26316 251.97832   L 410.4978 251.51913   L 409.80898 251.17475   L 409.15843 250.90689   L 408.54615 250.71556   L 407.97213 250.67729   L 407.43638 250.71556   L 409.3115 253.16455   L 411.18662 255.57528   L 413.02347 258.02427   L 414.89859 260.47326   L 416.81197 262.88399   L 418.68709 265.33298   L 420.56221 267.74371   L 422.43733 270.1927   L 424.15938 273.5218   L 425.88142 276.8509   L 427.60347 280.17999   L 429.28725 283.50909   L 430.93276 286.87646   L 432.54001 290.24382   L 434.10898 293.61119   L 435.63969 297.05508   L 436.40505 298.77703   L 437.09386 300.49898   L 437.82095 302.25919   L 438.50977 303.98114   L 439.19859 305.77961   L 439.84914 307.53983   L 440.46142 309.33831   L 441.07371 311.13678   L 441.64772 312.97353   L 442.22174 314.77201   L 442.75749 316.64702   L 443.29323 318.52203   L 443.75245 320.39704   L 444.21166 322.31031   L 444.67087 324.22359   L 445.05355 326.17513   L 444.36473 326.13686   L 443.75245 326.06033   L 443.25497 325.90727   L 442.79575 325.75421   L 442.41308 325.52461   L 442.10694 325.29502   L 441.76253 325.06543   L 441.49465 324.79757   L 440.07875 322.57817   L 438.66284 320.35877   L 437.2852 318.13937   L 435.90757 315.95824   L 434.49166 313.81537   L 433.07575 311.71077   L 431.62158 309.64443   L 430.16741 307.65462   L 429.40205 306.65972   L 428.6367 305.70308   L 427.87134 304.78471   L 427.06772 303.86634   L 426.2641 302.94797   L 425.46048 302.06786   L 424.61859 301.22602   L 423.73843 300.38418   L 422.85827 299.54234   L 421.97812 298.77703   L 421.05969 298.01172   L 420.103 297.28467   L 419.14631 296.55763   L 418.15134 295.86885   L 417.11812 295.21834   L 416.08489 294.60609   L 416.08489 294.72088   L 416.12316 294.83568   L 416.23796 294.98874   L 416.35276 295.21834   L 416.81197 295.83058   L 417.53906 296.74896   L 418.64882 298.12651   L 420.14127 300.00152   L 422.09292 302.52705   L 424.58032 305.77961   L 425.69008 307.50156   L 426.72331 309.18524   L 427.75654 310.86893   L 428.7515 312.51434   L 429.7082 314.23629   L 430.66489 315.91997   L 431.58331 317.60365   L 432.50174 319.36387   L 433.42016 321.08581   L 434.30032 322.88429   L 435.18048 324.68277   L 436.0989 326.51952   L 436.97906 328.39453   L 437.85922 330.34607   L 438.77764 332.29761   L 439.69607 334.32568   L 440.38489 336.43028   L 441.07371 338.57315   L 441.76253 340.71602   L 442.41308 342.89715   L 443.1019 345.07828   L 443.75245 347.29768   L 444.44127 349.51708   L 445.13009 351.77475   L 445.8189 354.03241   L 446.54599 356.29007   L 447.27308 358.54774   L 448.0767 360.84367   L 448.88032 363.1396   L 449.72221 365.43553   L 450.60237 367.73146   L 451.55906 370.02739   L 451.7504 371.02229   L 451.98001 371.97893   L 452.17135 372.97383   L 452.40095 373.96874   L 452.59229 374.96364   L 452.8219 375.95854   L 453.01323 376.99171   L 453.24284 377.98661   L 452.59229 377.91008   L 451.98001 377.83355   L 451.36772 377.79529   L 450.79371 377.75702   L 450.25796 376.91518   L 449.79875 376.07334   L 449.33953 375.2315   L 448.95686 374.38966   L 448.61245 373.54782   L 448.26804 372.66771   L 447.9619 371.86413   L 447.65575 371.02229   L 447.12001 369.37688   L 446.58426 367.76973   L 446.31638 367.00442   L 446.01024 366.23911   L 445.74237 365.51206   L 445.39796 364.78502   L 443.25497 361.60898   L 441.07371 358.35641   L 438.85418 355.14211   L 436.55812 351.92781   L 434.30032 348.79004   L 432.00426 345.7288   L 430.85623 344.27471   L 429.74646 342.85888   L 428.59843 341.48133   L 427.48867 340.14203   L 426.3789 339.1854   L 424.8482 337.88437   L 423.08788 336.43028   L 421.21276 334.93793   L 420.25607 334.24915   L 419.33764 333.6369   L 418.45749 333.06292   L 417.65386 332.60373   L 417.30945 332.4124   L 416.92678 332.25934   L 416.62064 332.10628   L 416.31449 332.02975   L 416.04662 331.99148   L 415.77875 331.99148   L 415.58741 332.02975   L 415.39607 332.10628   L 416.92678 334.13435   L 418.61056 336.23895   L 420.37087 338.42009   L 422.24599 340.60122   L 424.23591 342.82062   L 426.30237 345.04002   L 428.44536 347.25942   L 430.62662 349.44055   L 431.46851 350.74158   L 432.3104 352.0426   L 433.19056 353.34363   L 434.07071 354.64466   L 434.9126 355.94569   L 435.79276 357.24671   L 436.67292 358.54774   L 437.55308 359.84877   L 438.85418 362.41256   L 440.15528 364.97634   L 441.37985 367.5784   L 442.64268 370.14219   L 445.05355 375.38456   L 447.46442 380.6652   L 449.79875 385.94584   L 452.13308 391.26474   L 454.46741 396.58365   L 456.84001 401.90255   L 459.21261 407.25972   L 461.70001 412.57863   L 462.92457 415.21895   L 464.22568 417.89753   L 465.52678 420.53785   L 466.82788 423.17817   L 468.16725 425.81849   L 469.54489 428.42054   L 470.96079 431.0226   L 472.41497 433.62465   L 473.86914 436.22671   L 475.39985 438.79049   L 476.93056 441.35428   L 478.5378 443.91807   L 479.18835 444.53032   L 480.03024 445.33389   L 480.98694 446.25227   L 481.94363 447.3237   L 482.40284 447.85942   L 482.82379 448.47167   L 483.1682 449.04565   L 483.47434 449.69616   L 483.62741 450.00229   L 483.74221 450.30841   L 483.81875 450.6528   L 483.89528 450.95892   L 483.93355 451.30331   L 483.97182 451.6477   L 483.93355 451.95383   L 483.89528 452.29822   L 483.1682 452.25995   L 482.40284 452.18342   L 481.63749 452.03036   L 480.87213 451.83903   L 480.14505 451.60944   L 479.37969 451.30331   L 478.61434 450.95892   L 477.84898 450.57627   L 477.08363 450.19361   L 476.31827 449.73443   L 475.59119 449.23698   L 474.82583 448.73952   L 474.09875 448.20381   L 473.37166 447.66809   L 472.64457 447.09411   L 471.91749 446.52013   L 470.53985 445.29563   L 469.20048 444.07113   L 467.89938 442.84664   L 466.67481 441.62214   L 464.49355 439.40274   L 462.6567 437.52773   L 461.77654 436.07364   L 460.66678 434.08384   L 459.28914 431.63485   L 457.6819 428.87973   L 455.92158 425.81849   L 453.96993 422.60419   L 451.94174 419.27509   L 449.79875 415.90772   L 448.68898 414.26231   L 447.61749 412.65516   L 446.50772 411.08627   L 445.39796 409.55565   L 444.2882 408.10156   L 443.17843 406.68574   L 442.06867 405.38471   L 440.99717 404.16022   L 439.96394 403.05052   L 438.93072 402.05561   L 437.89749 401.17551   L 436.94079 400.4102   L 435.9841 399.83621   L 435.10394 399.37703   L 434.22379 399.10917   L 433.42016 399.03264   L 433.42016 399.14744   L 433.42016 399.26223   L 433.4967 399.45356   L 433.6115 399.75968   L 433.84111 400.21887   L 434.18552 400.83112   L 434.683 401.67296   L 435.33355 402.82092   L 436.17544 404.23675   L 437.24694 405.95869   L 438.54804 408.10156   L 440.11701 410.66535   L 441.95386 413.68833   L 444.09686 417.20875   L 446.58426 421.26489   L 449.41607 425.89502   L 451.71213 428.65014   L 453.96993 431.44352   L 456.22772 434.19863   L 458.48552 436.95375   L 460.78158 439.74713   L 463.03938 442.50225   L 465.29717 445.29563   L 467.55497 448.05075   L 469.96583 449.92575   L 472.41497 451.7625   L 474.94064 453.59924   L 477.50457 455.43599   L 480.14505 457.27273   L 482.86205 459.10947   L 485.69387 460.94622   L 488.60221 462.82123   L 492.12284 464.31358   L 494.76331 465.42328   L 496.6767 466.26512   L 498.01607 466.83911   L 498.85796 467.26003   L 499.39371 467.56615   L 499.73812 467.83401   L 500.04426 468.10187   L 500.12079 468.86718   L 500.19733 469.67075   L 500.27387 470.47433   L 500.3504 471.31617   L 498.39875 473.6121   L 496.40883 475.86976   L 494.45717 478.16569   L 492.46725 480.46162   L 490.5156 482.75755   L 488.56394 485.05348   L 486.61229 487.38768   L 484.6989 489.68361   L 482.90032 491.48209   L 481.06347 493.2423   L 479.22662 495.00251   L 477.38977 496.72446   L 475.55292 498.44641   L 473.6778 500.13009   L 471.80268 501.81377   L 469.8893 503.49746   L 466.10079 506.78829   L 462.23575 510.00259   L 458.33245 513.17863   L 454.39087 516.35466   L 450.4493 519.45417   L 446.43119 522.51541   L 442.41308 525.53838   L 438.3567 528.56136   L 434.30032 531.54607   L 430.20568 534.49251   L 426.11103 537.43895   L 422.01638 540.3854   L 418.8019 541.87775   L 415.62568 543.33184   L 412.44945 544.8242   L 409.23497 546.35482   L 406.05875 547.84717   L 402.88253 549.33952   L 399.66804 550.87014   L 396.49182 552.3625   L 393.88961 553.16607   L 391.28741 553.96965   L 388.72347 554.77323   L 386.15953 555.5768   L 383.5956 556.34211   L 381.06993 557.14569   L 378.54426 557.911   L 376.05686 558.63804   L 373.53119 559.40335   L 371.00552 560.1304   L 368.51812 560.85744   L 365.99245 561.58449   L 363.46678 562.27326   L 360.94111 562.96204   L 358.41544 563.65082   L 355.8515 564.3396   L 354.05292 564.68399   L 352.25434 565.06665   L 350.41749 565.41104   L 348.6189 565.79369   L 346.82032 566.13808   L 345.02174 566.52073   L 343.22315 566.90339   L 341.42457 567.28604   L 339.62599 567.63043   L 337.82741 568.01309   L 336.02882 568.39574   L 334.23024 568.7784   L 332.43166 569.16105   L 330.67134 569.50544   L 328.87276 569.8881   L 327.07418 570.27075   L 324.24237 570.34728   L 321.37229 570.46208   L 318.54048 570.53861   L 315.6704 570.61514   L 312.83859 570.69167   L 310.00678 570.76821   L 307.17497 570.84474   L 304.30489 570.95953   L 301.47308 571.03606   L 298.64126 571.11259   L 295.80945 571.18913   L 292.97764 571.26566   L 290.14583 571.38045   L 287.31402 571.45698   L 284.48221 571.53352   L 281.6504 571.61005  z "
     id="path2451" />
  <path
     style="fill:#ffffff;fill-rule:evenodd;fill-opacity:1;stroke:none;"
     d="  M 439.00725 316.41742   L 439.00725 316.07303   L 439.35166 316.07303   L 439.81087 316.07303   L 439.81087 316.41742   L 439.81087 316.76181   L 439.46646 316.76181   L 439.00725 316.76181  z "
     id="path2453" />
  <path
     style="fill:#fcdb00;fill-rule:evenodd;fill-opacity:1;stroke:none;"
     d="  M 155.63481 295.10354   L 155.48173 294.79742   L 155.4052 294.52956   L 155.32866 294.2617   L 155.25213 293.53465   L 155.25213 292.34842   L 156.05575 291.46832   L 156.8211 290.58821   L 157.58646 289.7081   L 158.27528 288.828   L 158.88756 287.94789   L 159.46158 287.02952   L 159.95906 286.14941   L 160.38 285.19278   L 160.57134 284.73359   L 160.72441 284.2744   L 160.87748 283.81522   L 160.99229 283.31777   L 161.06882 282.82031   L 161.10709 282.36113   L 161.14536 281.86368   L 161.14536 281.36623   L 161.14536 280.86877   L 161.06882 280.33306   L 160.99229 279.83561   L 160.87748 279.29989   L 160.72441 278.76417   L 160.53307 278.22845   L 160.34173 277.69274   L 160.07386 277.11875   L 160.30347 276.7361   L 160.64788 276.39171   L 161.03055 276.12385   L 161.4515 275.89426   L 161.94898 275.7412   L 162.48473 275.6264   L 163.09701 275.54987   L 163.67103 275.54987   L 164.32158 275.6264   L 164.97213 275.7412   L 165.62268 275.89426   L 166.27323 276.12385   L 166.92378 276.39171   L 167.53607 276.69783   L 168.14835 277.08049   L 168.76063 277.50141   L 169.29638 277.9606   L 169.79386 278.49631   L 170.29134 279.0703   L 170.67402 279.68254   L 171.01843 280.33306   L 171.32457 281.02184   L 171.51591 281.78715   L 171.63071 282.59072   L 171.66898 283.43256   L 171.59244 284.31267   L 171.4011 285.23104   L 171.09496 286.18768   L 170.71229 287.18258   L 170.17654 288.25402   L 169.48772 289.32545   L 168.6841 290.47341   L 166.77071 291.65964   L 165.08693 292.61628   L 164.35984 293.0372   L 163.63276 293.41986   L 162.94394 293.76425   L 162.25512 294.07037   L 161.5663 294.33823   L 160.87748 294.56782   L 160.1504 294.75915   L 159.38504 294.95048   L 158.61969 295.10354   L 157.73953 295.2566   L 156.8211 295.3714   L 155.82614 295.48619  z "
     id="path2455" />
  <path
     style="fill:#fcdb00;fill-rule:evenodd;fill-opacity:1;stroke:none;"
     d="  M 160.72441 258.17733   L 160.72441 257.33549   L 160.72441 256.49365   L 160.72441 255.65181   L 161.6811 253.8916   L 162.6378 252.16965   L 163.63276 250.4477   L 164.66599 248.72575   L 165.69922 247.00381   L 166.77071 245.28186   L 167.84221 243.55991   L 168.95197 241.87623   L 170.1 240.19255   L 171.24803 238.50886   L 172.43433 236.82518   L 173.62063 235.1415   L 174.80693 233.49608   L 176.06977 231.85067   L 177.29433 230.20525   L 178.55717 228.55983   L 181.1211 225.34553   L 183.72331 222.1695   L 186.40205 219.03172   L 189.08079 215.97048   L 191.83607 212.94751   L 194.59134 210.00107   L 197.34662 207.09289   L 200.14016 204.26124   L 200.71418 204.29951   L 201.32646 204.33777   L 201.90048 204.4143   L 202.51276 204.49083   L 202.32142 205.10308   L 202.09181 205.67707   L 201.86221 206.28931   L 201.59433 206.90156   L 201.28819 207.51381   L 200.94378 208.12606   L 200.59937 208.73831   L 200.2167 209.35055   L 199.41307 210.57505   L 198.57118 211.79955   L 197.61449 212.98578   L 196.6578 214.17201   L 195.62457 215.35824   L 194.59134 216.54447   L 193.55811 217.69243   L 192.52488 218.80213   L 190.4967 220.945   L 188.62158 222.97307   L 186.09591 226.41697   L 183.87638 229.47821   L 181.88646 232.19506   L 180.12614 234.60578   L 178.59544 236.74865   L 177.14126 238.66193   L 175.84016 240.46041   L 174.57733 242.14409   L 173.35276 243.7895   L 172.12819 245.43492   L 170.82709 247.15687   L 169.44945 248.95535   L 167.95701 250.94515   L 166.27323 253.12629   L 164.43638 255.57528   L 162.29339 258.33039   L 161.91071 258.48346   L 161.48977 258.67478   L 161.10709 258.82785   L 160.72441 259.01917  z "
     id="path2457" />
  <path
     style="fill:#ffffff;fill-rule:evenodd;fill-opacity:1;stroke:none;"
     d="  M 250.27087 198.06223   L 248.85496 197.52651   L 247.47733 196.9908   L 246.21449 196.41681   L 245.02819 195.80457   L 243.88016 195.11579   L 242.80866 194.42701   L 241.77544 193.69996   L 240.81874 192.89639   L 239.93859 192.05455   L 239.05843 191.17444   L 238.29307 190.2178   L 237.52772 189.2229   L 236.80063 188.15147   L 236.15008 187.0035   L 235.49953 185.81727   L 235.5378 184.66931   L 235.57607 183.6744   L 235.69087 182.75603   L 235.80567 181.95245   L 235.99701 181.22541   L 236.18835 180.61316   L 236.41796 180.07745   L 236.64756 179.65652   L 236.9537 179.31214   L 237.25985 179.04428   L 237.60426 178.81468   L 237.94866 178.69989   L 238.33134 178.62336   L 238.75229 178.62336   L 239.17323 178.69989   L 239.63244 178.81468   L 240.09166 178.96775   L 240.55087 179.15907   L 241.04835 179.42693   L 241.54583 179.69479   L 242.61733 180.38357   L 243.68882 181.14888   L 245.90835 182.83256   L 248.16615 184.55451   L 248.85496 184.82237   L 249.54378 185.01369   L 250.19433 185.20502   L 250.88315 185.35808   L 251.5337 185.51115   L 252.18426 185.62594   L 252.83481 185.70247   L 253.44709 185.74074   L 254.09764 185.74074   L 254.70992 185.74074   L 255.32221 185.70247   L 255.89622 185.66421   L 256.50851 185.54941   L 257.08252 185.43462   L 257.65654 185.28155   L 258.19229 185.09023   L 258.72804 184.86063   L 259.30205 184.63104   L 259.79953 184.32492   L 260.33528 184.01879   L 260.83276 183.6744   L 261.33024 183.29175   L 261.82772 182.90909   L 262.28693 182.44991   L 262.74615 181.95245   L 263.20536 181.455   L 263.6263 180.91929   L 264.04725 180.30704   L 264.46819 179.69479   L 264.85087 179.04428   L 265.27181 178.3555   L 265.61622 177.62845   L 265.7693 176.63355   L 265.80756 175.48559   L 265.84583 174.18456   L 265.8841 172.84527   L 265.8841 171.42944   L 265.92237 170.01362   L 265.96063 169.32484   L 266.03717 168.67433   L 266.07544 168.02381   L 266.19024 167.3733   L 266.30504 166.76105   L 266.45811 166.22533   L 266.61118 165.68962   L 266.84079 165.19217   L 267.0704 164.77125   L 267.33827 164.38859   L 267.64441 164.08247   L 268.02709 163.81461   L 268.40977 163.66155   L 268.86898 163.54675   L 269.40473 163.50848   L 269.94048 163.58501   L 270.55276 163.73808   L 271.24158 163.96767   L 271.96867 164.31206   L 272.81056 164.77125   L 273.49937 165.72788   L 274.11166 166.72279   L 274.68567 167.67942   L 275.18315 168.67433   L 275.64237 169.70749   L 275.98678 170.7024   L 276.29292 171.6973   L 276.56079 172.73047   L 276.75213 173.76364   L 276.86693 174.75854   L 276.94347 175.79171   L 276.98174 176.78661   L 276.94347 177.81978   L 276.82867 178.81468   L 276.71386 179.84785   L 276.48426 180.84276   L 276.25465 181.83766   L 275.94851 182.83256   L 275.6041 183.7892   L 275.22142 184.7841   L 274.76221 185.74074   L 274.303 186.69738   L 273.76725 187.61575   L 273.19323 188.53412   L 272.58095 189.45249   L 271.9304 190.3326   L 271.20331 191.21271   L 270.47622 192.09281   L 269.71087 192.93465   L 268.90725 193.73823   L 268.06536 194.5418   L 267.1852 195.30711   L 266.15197 195.80457   L 265.11874 196.26375   L 264.12378 196.64641   L 263.12882 196.9908   L 262.17213 197.25865   L 261.21544 197.52651   L 260.25874 197.71784   L 259.30205 197.90917   L 258.34536 198.06223   L 257.42693 198.17703   L 256.47024 198.29182   L 255.55181 198.36835   L 253.6767 198.48315   L 251.76331 198.55968  z "
     id="path2459" />
  <path
     style="fill:#131516;fill-rule:evenodd;fill-opacity:1;stroke:none;"
     d="  M 129.68929 189.49076   L 128.57953 188.99331   L 127.46977 188.53412   L 126.43654 188.03667   L 124.37008 187.04177   L 122.45669 186.04686   L 120.61984 184.97543   L 118.85953 183.904   L 117.13748 182.7943   L 115.49197 181.64633   L 113.88473 180.49837   L 112.31575 179.27387   L 110.74677 178.04937   L 109.1778 176.78661   L 107.57055 175.48559   L 105.96331 174.14629   L 104.35606 172.76873   L 102.63402 171.35291   L 101.52425 169.32484   L 100.6441 167.67942   L 99.955277 166.34013   L 99.342994 165.11563   L 98.768978 163.85287   L 98.118427 162.43705   L 97.353072 160.63857   L 96.396379 158.38091   L 95.937167 156.35283   L 95.516222 154.32476   L 95.133545 152.29669   L 94.750868 150.26862   L 94.406458 148.27881   L 94.062049 146.28901   L 93.717639 144.2992   L 93.37323 142.3094   L 92.990553 140.35786   L 92.646143 138.44458   L 92.263466 136.49304   L 91.880789 134.61803   L 91.459844 132.74302   L 91.000631 130.86801   L 90.503151 129.06953   L 90.005671 127.27105   L 89.929135 126.42921   L 89.8526 125.58737   L 89.776064 124.74553   L 89.776064 123.90369   L 91.957324 124.82206   L 93.717639 125.58737   L 95.248348 126.27615   L 96.664253 126.96493   L 98.23323 127.73024   L 100.07008 128.68688   L 102.36614 129.91137   L 105.35103 131.51853   L 107.18788 131.82465   L 109.02473 132.16904   L 110.86158 132.47516   L 112.69843 132.81955   L 114.53528 133.12568   L 116.37213 133.4318   L 118.20898 133.69966   L 120.0841 134.00578   L 121.92095 134.23538   L 123.83433 134.50323   L 125.70945 134.69456   L 127.62284 134.88589   L 129.57449 135.00069   L 131.52614 135.11548   L 133.55433 135.19201   L 135.54425 135.19201   L 139.40929 134.50323   L 143.27433 133.73792   L 147.13937 132.93435   L 151.00441 132.13077   L 154.86945 131.3272   L 158.73449 130.52362   L 162.59953 129.75831   L 166.50284 128.993   L 170.36788 128.30422   L 174.27118 127.65371   L 176.2611 127.34759   L 178.21276 127.07973   L 180.16441 126.81187   L 182.15433 126.58228   L 184.10599 126.35268   L 186.09591 126.16136   L 188.04756 125.97003   L 190.03748 125.85523   L 192.0274 125.74043   L 194.01733 125.6639   L 196.00725 125.58737   L 198.03544 125.58737   L 199.22174 125.81697   L 200.4463 126.00829   L 201.67087 126.23789   L 202.89544 126.50574   L 204.12 126.73534   L 205.38284 127.0032   L 206.6074 127.23279   L 207.87024 127.50065   L 207.94677 128.07463   L 207.87024 128.68688   L 207.5641 129.37566   L 207.10488 130.06444   L 206.4926 130.82975   L 205.72725 131.59506   L 204.84709 132.39863   L 203.81386 133.20221   L 202.66583 134.04405   L 201.44126 134.92415   L 200.10189 135.766   L 198.72425 136.6461   L 197.23181 137.52621   L 195.73937 138.40632   L 194.1704 139.28642   L 192.60142 140.12826   L 189.4252 141.81194   L 186.28725 143.4191   L 183.2641 144.87318   L 180.50882 146.21248   L 178.05969 147.36044   L 176.06977 148.31708   L 174.57733 149.00586   L 173.73544 149.42678   L 172.77874 150.19209   L 171.86032 150.99566   L 170.90362 151.83751   L 169.9852 152.67935   L 169.10504 153.59772   L 168.26315 154.51609   L 167.88047 154.97528   L 167.4978 155.43446   L 167.15339 155.93191   L 166.80898 156.42937   L 166.50284 156.96508   L 166.23496 157.5008   L 165.96709 158.03652   L 165.73748 158.57223   L 165.54614 159.14622   L 165.39307 159.7202   L 165.27827 160.29418   L 165.20173 160.90643   L 165.16347 161.51868   L 165.16347 162.16919   L 165.20173 162.8197   L 165.27827 163.47022   L 165.39307 164.159   L 165.58441 164.88604   L 165.81402 165.57482   L 166.12016 166.34013   L 166.08189 166.91411   L 166.00536 167.44983   L 165.92882 167.98555   L 165.85229 168.52126   L 165.62268 169.51617   L 165.31654 170.4728   L 164.93386 171.39118   L 164.51292 172.27128   L 164.0537 173.11312   L 163.55622 173.95497   L 163.02047 174.79681   L 162.40819 175.60038   L 161.79591 176.44222   L 161.14536 177.2458   L 159.80599 178.96775   L 158.39008 180.76622   L 157.8926 181.64633   L 157.39512 182.52644   L 156.89764 183.40654   L 156.40016 184.28665   L 155.90268 185.16676   L 155.4052 186.04686   L 154.94599 186.92697   L 154.48677 187.80708   L 151.46362 188.15147   L 148.47874 188.49586   L 145.45559 188.80198   L 142.47071 189.1081   L 139.48583 189.37596   L 136.53921 189.60555   L 133.66914 189.79688   L 130.83732 189.94994  z "
     id="path2461" />
  <path
     style="fill:#fcdb00;fill-rule:evenodd;fill-opacity:1;stroke:none;"
     d="  M 219.92457 187.04177   L 219.80977 186.39125   L 219.69496 185.74074   L 219.61843 185.12849   L 222.79465 182.22031   L 226.0474 179.3504   L 227.65465 177.93458   L 229.30016 176.55702   L 230.98394 175.1412   L 232.62945 173.76364   L 234.31323 172.42435   L 236.03528 171.08505   L 237.71906 169.74576   L 239.47937 168.483   L 241.20142 167.22024   L 243 165.99574   L 244.76032 164.80951   L 246.59717 163.66155   L 248.39575 162.55185   L 250.27087 161.48041   L 252.14599 160.44724   L 254.02111 159.45234   L 255.93449 158.4957   L 257.88615 157.6156   L 259.87607 156.77376   L 261.86599 156.00845   L 263.89418 155.2814   L 265.92237 154.59262   L 267.98882 154.01864   L 270.09355 153.48292   L 272.23654 152.98547   L 274.4178 152.60282   L 276.59906 152.25843   L 278.85685 151.99057   L 279.50741 152.02883   L 280.19622 152.0671   L 280.88504 152.14363   L 281.6504 152.22016   L 281.53559 152.64108   L 281.45906 153.062   L 281.38252 153.48292   L 281.30599 153.90384   L 277.78536 155.3962   L 274.11166 156.92682   L 270.39969 158.45744   L 266.57292 160.02632   L 262.74615 161.67174   L 258.88111 163.31716   L 256.96772 164.19726   L 255.05433 165.0391   L 253.14095 165.95748   L 251.22756 166.87585   L 249.35244 167.79422   L 247.47733 168.75086   L 245.64048 169.74576   L 243.80363 170.74066   L 242.04331 171.77383   L 240.283 172.84527   L 238.56095 173.9167   L 236.87717 175.06466   L 235.23166 176.21263   L 233.62441 177.39886   L 232.05544 178.62336   L 230.563 179.88612   L 229.10882 181.18714   L 227.69292 182.52644   L 226.39181 183.94226   L 225.09071 185.35808   L 223.86614 185.93207   L 222.60331 186.54431   L 221.34048 187.1183   L 220.07764 187.69228  z "
     id="path2463" />
  <path
     style="fill:#fcdb00;fill-rule:evenodd;fill-opacity:1;stroke:none;"
     d="  M 356.54032 169.21004   L 356.19591 167.98555   L 356.08111 167.41156   L 355.9663 166.87585   L 355.88977 166.3784   L 355.8515 165.88094   L 355.8515 165.38349   L 355.8515 164.88604   L 355.88977 164.38859   L 356.00457 163.89114   L 356.11938 163.39369   L 356.27245 162.85797   L 356.50205 162.32225   L 356.73166 161.74827   L 357.61182 161.09776   L 358.45371 160.44724   L 359.33386 159.87326   L 360.25229 159.29928   L 361.13245 158.76356   L 362.05087 158.26611   L 363.00756 157.80692   L 363.92599 157.386   L 364.88268 156.96508   L 365.83938 156.58243   L 366.79607 156.19977   L 367.79103 155.85538   L 368.74772 155.54926   L 369.78095 155.24314   L 370.77591 154.97528   L 371.77087 154.74568   L 372.8041 154.51609   L 373.83733 154.32476   L 374.87056 154.13344   L 375.94205 153.94211   L 378.04678 153.67425   L 380.22804 153.44466   L 382.4093 153.29159   L 384.59056 153.1768   L 386.84835 153.13853   L 389.10615 153.10027   L 392.05276 153.32986   L 394.99938 153.55945   L 397.98426 153.75078   L 400.93087 153.98037   L 403.87749 154.20997   L 406.86237 154.40129   L 409.80898 154.63089   L 412.7556 154.86048   L 415.74048 155.09007   L 418.68709 155.31967   L 421.63371 155.54926   L 424.61859 155.77885   L 427.5652 156.00845   L 430.51182 156.23804   L 433.4967 156.46763   L 436.44331 156.69722   L 436.51985 157.23294   L 436.59638 157.76866   L 436.71119 158.34264   L 436.78772 158.95489   L 432.65481 158.95489   L 428.48363 158.95489   L 424.31245 158.91662   L 420.14127 158.91662   L 415.93182 158.91662   L 411.76064 158.91662   L 407.58945 158.99315   L 403.41827 159.10795   L 399.28536 159.26101   L 395.15245 159.49061   L 393.08599 159.64367   L 391.0578 159.79673   L 388.99134 159.98806   L 386.96316 160.17939   L 384.93497 160.40898   L 382.94504 160.67684   L 380.91686 160.9447   L 378.92693 161.28908   L 376.93701 161.63347   L 374.98536 162.01613   L 373.03371 162.39878   L 371.08205 162.85797   L 369.43654 163.9294   L 367.71449 165.0391   L 365.91591 166.22533   L 364.11733 167.33503   L 363.1989 167.87075   L 362.28048 168.40647   L 361.36205 168.86565   L 360.4819 169.32484   L 359.56347 169.70749   L 358.68331 170.05188   L 357.80315 170.35801   L 356.96127 170.5876  z "
     id="path2465" />
  <path
     style="fill:#fcdb00;fill-rule:evenodd;fill-opacity:1;stroke:none;"
     d="  M 161.87244 149.7329   L 160.57134 149.12066   L 159.11717 148.6232   L 157.50992 148.20228   L 155.78788 147.85789   L 153.95103 147.6283   L 151.9611 147.43697   L 149.93292 147.32218   L 147.78992 147.24565   L 145.60866 147.20738   L 143.35087 147.24565   L 141.05481 147.28391   L 136.42441 147.43697   L 131.83229 147.59004   L 129.53622 147.66657   L 127.31669 147.7431   L 125.13543 147.78136   L 123.03071 147.78136   L 121.00252 147.7431   L 119.08914 147.66657   L 117.29055 147.55177   L 115.56851 147.36044   L 114.0378 147.09258   L 112.62189 146.74819   L 111.39732 146.28901   L 110.32583 145.79156   L 109.44567 145.14104   L 108.79512 144.414   L 108.33591 143.57216   L 108.14457 142.61552   L 111.47386 142.80685   L 114.80315 142.95991   L 118.17071 143.07471   L 121.53827 143.1895   L 124.90583 143.26603   L 128.31166 143.3043   L 131.67921 143.34256   L 135.08504 143.38083   L 138.49087 143.38083   L 141.89669 143.34256   L 145.30252 143.3043   L 148.74662 143.26603   L 152.19071 143.22777   L 155.63481 143.15124   L 159.0789 143.11297   L 162.52299 143.03644   L 163.05874 143.11297   L 163.55622 143.22777   L 164.01544 143.34256   L 164.47465 143.53389   L 164.85733 143.68695   L 165.24 143.91655   L 165.58441 144.10787   L 165.89055 144.33747   L 166.15843 144.60533   L 166.38803 144.87318   L 166.57937 145.14104   L 166.77071 145.44717   L 166.92378 145.75329   L 167.00032 146.02115   L 167.07685 146.32727   L 167.11512 146.67166   L 167.11512 146.97779   L 167.11512 147.28391   L 167.03859 147.59004   L 166.92378 147.89616   L 166.80898 148.16402   L 166.61764 148.47014   L 166.4263 148.738   L 166.1967 149.00586   L 165.92882 149.23545   L 165.58441 149.46504   L 165.24 149.69464   L 164.85733 149.88597   L 164.43638 150.07729   L 164.01544 150.19209   L 163.51796 150.34515   L 162.98221 150.42168  z "
     id="path2467" />
  <path
     style="fill:#131516;fill-rule:evenodd;fill-opacity:1;stroke:none;"
     d="  M 430.39701 137.71754   L 427.79481 136.91396   L 425.23087 136.03385   L 422.74347 135.15375   L 420.29434 134.19711   L 417.92174 133.20221   L 415.54914 132.13077   L 413.29134 131.02107   L 412.14331 130.44709   L 411.03355 129.83484   L 409.92379 129.2226   L 408.81402 128.61035   L 407.74253 127.95983   L 406.67103 127.30932   L 405.59953 126.62054   L 404.56631 125.8935   L 403.53308 125.20472   L 402.49985 124.47767   L 401.46662 123.71236   L 400.47166 122.94705   L 399.43843 122.14348   L 398.44347 121.3399   L 397.44851 120.49806   L 396.49182 119.65622   L 395.19071 118.2404   L 393.88961 116.82457   L 392.58851 115.40875   L 391.28741 114.03119   L 389.9863 112.61537   L 388.6852 111.23781   L 387.3841 109.86025   L 386.083 108.44443   L 386.12127 107.60259   L 386.3126 106.72248   L 386.58048 105.84237   L 386.92489 104.96227   L 387.3841 104.08216   L 387.95812 103.20205   L 388.5704 102.32195   L 389.29749 101.48011   L 390.06284 100.6   L 390.90473 99.75816   L 391.78489 98.954584   L 392.77985 98.151009   L 393.77481 97.347433   L 394.80804 96.582123   L 395.9178 95.816813   L 397.02756 95.128034   L 398.1756 94.439255   L 399.3619 93.750476   L 400.54819 93.138228   L 401.73449 92.564246   L 402.92079 92.028529   L 404.14536 91.531077   L 405.33166 91.071891   L 406.51796 90.650971   L 407.70426 90.268316   L 408.85229 89.962192   L 409.96205 89.694333   L 411.03355 89.503006   L 412.10505 89.349944   L 413.10001 89.273413   L 414.0567 89.273413   L 414.93686 89.311678   L 417.34772 92.985166   L 419.72032 96.505592   L 420.86835 98.22754   L 422.05465 99.911222   L 423.27922 101.5949   L 424.54205 103.20205   L 425.84316 104.80921   L 427.18253 106.41636   L 428.6367 107.98524   L 430.12914 109.51586   L 430.93276 110.28117   L 431.73638 111.04648   L 432.57827 111.81179   L 433.45843 112.53884   L 434.33859 113.30415   L 435.29528 114.03119   L 436.25197 114.75824   L 437.24694 115.52355   L 438.96898 116.17406   L 440.65276 116.86284   L 442.37481 117.55162   L 444.09686 118.27866   L 445.8189 118.96744   L 447.54095 119.69449   L 449.263 120.38326   L 450.98505 121.11031   L 452.8219 121.11031   L 454.62048 121.11031   L 456.41906 121.14857   L 458.21764 121.18684   L 460.05449 121.22511   L 461.89135 121.26337   L 463.68993 121.30164   L 465.56505 121.3399   L 465.52678 122.33481   L 465.37371 123.29144   L 465.18237 124.20981   L 464.95276 125.08992   L 464.60835 125.93176   L 464.22568 126.69707   L 463.76646 127.46238   L 463.23072 128.15116   L 462.69497 128.80167   L 462.08268 129.45219   L 461.39386 130.06444   L 460.70505 130.60015   L 459.97796 131.13587   L 459.17434 131.67159   L 458.37072 132.13077   L 457.52883 132.58996   L 456.68694 133.01088   L 455.80678 133.4318   L 454.88835 133.81446   L 453.96993 134.19711   L 452.13308 134.88589   L 450.25796 135.5364   L 446.58426 136.72263   L 443.17843 137.90886   L 441.9156 137.94713   L 440.65276 137.98539   L 439.38993 138.06193   L 438.12709 138.13846   L 436.86426 138.21499   L 435.60142 138.29152   L 434.33859 138.36805   L 433.07575 138.44458  z "
     id="path2469" />
<!-- EMR_SELECTPALETTE --><!-- EMR_EXTSELECTCLIPRGN --></svg>
