<?xml version="1.0" encoding="UTF-8" standalone="no"?>
<!-- Created with Inkscape (http://www.inkscape.org/) -->

<svg
   xmlns:dc="http://purl.org/dc/elements/1.1/"
   xmlns:cc="http://creativecommons.org/ns#"
   xmlns:rdf="http://www.w3.org/1999/02/22-rdf-syntax-ns#"
   xmlns:svg="http://www.w3.org/2000/svg"
   xmlns="http://www.w3.org/2000/svg"
   xmlns:sodipodi="http://sodipodi.sourceforge.net/DTD/sodipodi-0.dtd"
   xmlns:inkscape="http://www.inkscape.org/namespaces/inkscape"
   width="181.77885mm"
   height="209.34361mm"
   viewBox="0 0 644.0983 741.7687"
   id="svg5467"
   version="1.1"
   inkscape:version="0.91 r13725"
   sodipodi:docname="DEU Biebelsheim COA.svg">
  <defs
     id="defs5469" />
  <sodipodi:namedview
     id="base"
     pagecolor="#ffffff"
     bordercolor="#666666"
     borderopacity="1.0"
     inkscape:pageopacity="0.0"
     inkscape:pageshadow="2"
     inkscape:zoom="0.72798892"
     inkscape:cx="322.04916"
     inkscape:cy="370.88394"
     inkscape:document-units="px"
     inkscape:current-layer="layer1"
     showgrid="false"
     inkscape:window-width="1366"
     inkscape:window-height="745"
     inkscape:window-x="-8"
     inkscape:window-y="-8"
     inkscape:window-maximized="1"
     fit-margin-top="0"
     fit-margin-left="0"
     fit-margin-right="0"
     fit-margin-bottom="0"
     inkscape:snap-midpoints="true"
     inkscape:snap-smooth-nodes="true"
     inkscape:object-nodes="true"
     inkscape:snap-nodes="false" />
  <metadata
     id="metadata5472">
    <rdf:RDF>
      <cc:Work
         rdf:about="">
        <dc:format>image/svg+xml</dc:format>
        <dc:type
           rdf:resource="http://purl.org/dc/dcmitype/StillImage" />
        <dc:title></dc:title>
      </cc:Work>
    </rdf:RDF>
  </metadata>
  <g
     inkscape:label="Ebene 1"
     inkscape:groupmode="layer"
     id="layer1"
     transform="translate(-7.2915303,-15.134847)">
    <path
       style="fill:#ff0000;fill-opacity:1;fill-rule:evenodd;stroke:none;stroke-width:11;stroke-opacity:1"
       inkscape:connector-curvature="0"
       d="m 645.8473,20.63485 -3.21054,416.62447 C 635.63084,612.50914 497.20842,751.30544 329.34069,751.40354 161.62396,751.18864 23.149758,612.34234 16.044618,437.25932 l -3.21054,-416.62447 316.499062,0 z"
       id="path10563-0-6-7-5-6"
       sodipodi:nodetypes="ccccccc" />
    <path
       style="opacity:1;fill:#ffd700;fill-opacity:1;fill-rule:nonzero;stroke:#000000;stroke-width:11;stroke-linecap:round;stroke-linejoin:round;stroke-miterlimit:4;stroke-dasharray:none;stroke-dashoffset:0;stroke-opacity:1"
       d="M 8.3027344 363.70117 L 8.7539062 422.125 C 15.859046 597.20802 154.3321 736.05463 322.04883 736.26953 C 489.91656 736.17143 628.33978 597.37482 635.3457 422.125 L 635.79688 363.70117 L 8.3027344 363.70117 z "
       transform="translate(7.2915303,15.134847)"
       id="rect6747" />
    <path
       style="fill:none;fill-rule:evenodd;stroke:#000000;stroke-width:11;stroke-opacity:1"
       inkscape:connector-curvature="0"
       d="M 645.8473,20.634847 642.63676,437.25932 C 635.63084,612.50914 497.20842,751.30544 329.34069,751.40354 161.62396,751.18864 23.149757,612.34234 16.044617,437.25932 l -3.21054,-416.624473 316.499063,0 z"
       id="path10563-0-6-7-5"
       sodipodi:nodetypes="ccccccc" />
    <path
       style="opacity:1;fill:#ff0000;fill-opacity:1;fill-rule:nonzero;stroke:#000000;stroke-width:4.99999952;stroke-linecap:round;stroke-linejoin:round;stroke-miterlimit:4;stroke-dasharray:none;stroke-dashoffset:0;stroke-opacity:1"
       d="M 161.56055 406.0918 L 137.88281 447.98438 L 89.603516 447.45898 L 114.20312 488.82422 L 89.603516 530.18945 L 137.88281 529.66406 L 161.56055 571.55664 L 185.24219 529.66406 L 233.51758 530.18945 L 208.92188 488.82422 L 233.51758 447.45898 L 185.24219 447.98438 L 161.56055 406.0918 z M 482.53906 406.0918 L 458.85938 447.98438 L 410.58008 447.45898 L 435.17773 488.82422 L 410.58008 530.18945 L 458.85938 529.66406 L 482.53906 571.55664 L 506.2168 529.66406 L 554.49609 530.18945 L 529.89844 488.82422 L 554.49609 447.45898 L 506.2168 447.98438 L 482.53906 406.0918 z M 322.04883 522.56055 L 298.36914 564.45312 L 250.0918 563.92773 L 274.68945 605.29297 L 250.0918 646.66016 L 298.36914 646.13281 L 322.04883 688.02539 L 345.73047 646.13281 L 394.00781 646.66016 L 369.41016 605.29297 L 394.00781 563.92773 L 345.73047 564.45312 L 322.04883 522.56055 z "
       transform="translate(7.2915303,15.134847)"
       id="path6804" />
    <path
       style="fill:#ffd700;fill-rule:evenodd;stroke:#000000;stroke-width:5;stroke-linecap:round;stroke-linejoin:round;stroke-miterlimit:4;stroke-dasharray:none;stroke-opacity:1;fill-opacity:1"
       d="m 370.7472,51.6993 c -0.78711,0.0024 -1.57096,0.01246 -2.34961,0.03125 -43.87534,1.058478 -82.79044,35.626326 -126.67774,35.892578 -13.48655,0.08182 -39.05859,-10.55664 -39.05859,-10.55664 L 194.21595,95.0118 c 0,0 8.70515,2.510091 12.14062,5.2793 2.15414,1.73638 3.91359,4.13068 4.84961,6.73437 0.73003,2.03071 0.42774,6.46094 0.42774,6.46094 l 0,190.01563 c 0,0 -0.34596,3.54741 -0.8418,5.24804 -1.29089,4.42741 -2.98403,8.82915 -5.49219,12.69922 -3.11537,4.80699 -11.61133,12.66797 -11.61133,12.66797 l 16.36328,14.25 c 0,0 28.07089,-14.56037 43.41016,-15.55664 29.08915,-1.88931 56.30446,19.18051 85.44922,18.60547 34.86734,-0.68794 75.21606,-3.09329 101.27148,-26.27344 17.06329,-15.18032 24.99372,-41.02748 24.80664,-63.86523 -0.16808,-20.51742 -9.70665,-41.57026 -23.22461,-57.00586 -11.21449,-12.80537 -44.33593,-25.33594 -44.33593,-25.33594 0,0 22.15628,-13.13673 28.50195,-23.75195 8.56905,-14.33455 13.30126,-32.71101 10.0293,-49.08789 C 432.3366,87.959439 420.06761,70.639665 404.81751,60.175863 395.18399,53.565859 382.55382,51.663696 370.7472,51.6993 Z m -94.71289,42.980469 44.28125,0 c 25.01943,0 45.16015,19.128701 45.16015,42.888671 0,23.76 -20.14072,42.88868 -45.16015,42.88868 l -44.28125,0 0,-85.777351 z m 0,105.244141 56.71484,0 c 32.04462,0 57.8418,25.79913 57.8418,57.84375 0,32.04462 -25.79718,57.8418 -57.8418,57.8418 l -56.71484,0 0,-115.68555 z"
       id="path6838"
       inkscape:connector-curvature="0" />
  </g>
</svg>
