<?xml version="1.0" encoding="UTF-8"?>
<!-- Created with Inkscape (http://www.inkscape.org/) -->
<svg width="203mm" height="236.17mm" version="1.1" viewBox="0 0 203 236.17" xmlns="http://www.w3.org/2000/svg">
 <title>Wappen der ehemaligen Gemeinde Bliesdalheim</title>
 <g transform="translate(-4.3333 -30.748)">
  <path d="m5.8333 32.248 2.12e-4 133.24c-2.8e-5 26.503 10.536 51.921 29.289 70.662 18.754 18.741 44.189 29.269 70.71 29.269 26.522 3e-5 51.957-10.528 70.711-29.269 18.754-18.741 29.289-44.158 29.289-70.662l-7.8e-4 -133.24z"/>
  <path d="m5.8333 117.25s8.0485 4.1184 16.545 4.0632c8.4962-0.0551 18.891-2.8131 25.608-2.7403 6.7173 0.0728 70.411 3.8877 83.06 3.7798 12.65-0.10793 23.733-3.7331 32.6-3.7798 8.867-0.0467 17.748 4.8576 24.077 5 4.0138 0.0903 11.496-0.74777 18.016-3.4881l0.0699 49.511c-5.9531 3.1183-10.225 5.2901-18.255 5.5379-7.2781 0.22463-17.202-5.1374-23.722-5.188-5.6695-0.0439-12.458 2.6913-18.033 2.5968l-61.335 3.8239c-7.7485-0.18899-19.563-5.5166-26.178-5.6256-8.031-0.13228-23.528 4.4682-29.577 4.436-4.1582-0.0221-18.796-2.2737-22.765-6.526z" fill="#fff" fill-opacity=".99061" stroke="#fff" stroke-linecap="round" stroke-linejoin="round"/>
  <g fill="#da121a" stroke="#000" stroke-width="1.5">
   <path d="m50.045 161.21c-0.72039 5.8932-0.8042 5.4918-5.5684 8.9039 1.4106-3.8888 0.82161-5.2946-0.63714-8.8095z" stroke-miterlimit="12"/>
   <g>
    <path d="m27.099 133.33c-8.3541-0.95164-7.8362 0.38814-11.198 2.8348 2.9264-8.9412 2.6957-7.1603 10.772-8.0792z"/>
    <path d="m23.588 150.22c-3.5332-2.5576-6.9604 1.2857-9.4494 3.9215-0.99875-5.4567-1.3259-7.5308 4.583-9.7329z"/>
    <path d="m43.517 215.24c-2.4777 0.0407-5.104 1.4796-7.7013 3.0711 1.4791-6.9514 4.5631-7.5099 8.599-8.1737z"/>
    <path d="m45.249 229.14c-2.227-0.22755-3.9537 0.47005-6.5201 3.0238-0.95325-4.0317 0.34381-6.4695 3.26-8.1265z"/>
    <path d="m55.524 236.95c-1.4661 2.6286-2.0036 4.9618-3.898 6.7324-3.5506-1.8699-1.3392-5.7276 0.36512-9.4777z"/>
    <path d="m79.111 235.35c1.0694 6.4526-1.9803 9.7421-6.2366 9.8728 1.4484-2.537 2.0037-5.3829 0.96648-8.275z"/>
   </g>
  </g>
  <path d="m116.49 154.45c-3.1905 5.8396-11.864 10.129-20.848 11.464-14.645 2.1761-18.573 1.8605-23.281-4.4717-0.25176 7.6226-1.9534 8.016 8.3758 11.122-7.2526 4.866-13.573 3.9974-22.644 1.824 1.6024 3.6181 3.2949 3.8345 5.5772 5.2792-4.1314 0.39466-8.4481 2.8489-13.23 4.0235-12.115 2.976-12.588 2.5992-17.199-3.9166-0.67957 10.197 4.5111 8.4465 13.92 12.012 1.6083 0.60947 1.4258 0.47184 3.4037-0.23231 4.3064-1.5332 9.3553-2.9261 12.829-4.4613 4.5223-1.9986 10.269-1.6426 15.11-2.4047 3.0906-0.48647 1.5073 0.21734 0.64233 1.0639-4.5982 4.5003-7.5583 5.4831-9.8147 6.6228-1.5845 0.80032-7.2494 0.24824-9.5732 0.24378 10.432 8.0739 8.7234 3.1144 19.691 1.708-8.852 15.057-8.6573 15.828-15.261 17.25-1.4963 0.32218-2.9541 1.0445-5.1201 0.53097-2.4012-0.56926-5.3137-0.37168-7.9674-1.339-4.7819-3.9994-7.2811-2.3794-8.4402 2.506-1.3148 5.5415 4.9169 7.733 7.9579 4.1188 0.79912 1.2842 2.9859 0.27965 5.9629 1.5962-2.9082 1.7503-5.0969 2.186-7.7534 1.9225-4.8448-3.1403-8.9199 3.0543-5.671 7.0045 3.5314 4.2937 6.1814 1.3862 6.5738-0.44 3.057 0.37233 5.5283-0.61997 9.1185-1.7779-0.59094 1.6108-1.8712 3.2724-4.5337 3.8171-4.6983 0.9613-4.7326 5.4944-1.6454 7.9087 3.1991 2.5018 8.9034 1.9042 8.1977-3.5644 2.287-3.5174 6.0932-5.5888 8.0923-5.5156 0.82549 0.0302 1.2978 1.87 2.5552 2.971-4.3376 2.4208-0.76424 8.3201 4.948 6.4164 4.1613-0.26681 5.5157-5.2612 2.0148-7.6235-1.9374-1.3073-2.4883-4.3312-0.4777-6.5563 1.6525-1.8288 1.8011-2.2902 5.33-0.70387 3.9091 1.7573 3.9183 1.8056 1.7882 8.6145 3.1645-2.7869 7.8048-7.0743 6.1032-9.4054-2.1843-2.9923-5.5237-6.026-4.1177-8.6555 1.8333 3.2262 1.8312 4.7229 4.6826 5.5494 3.6714 1.0642 5.4025 1.2099 9.3014-0.90664-1.9206-1.1964-4.1065-2.4304-6.7524-3.3851-0.69002-1.3962-0.85998-3.0523-1.0614-4.6928 4.4053 4.9428 5.448 3.392 11.027 1.0853l-3.7685-1.4722c-2.9995-0.45934-2.1747-3.8677-3.2671-7.6601 2.7649 1.687 3.8129 3.0902 9.6339 1.8203 1.3878-0.30276 2.7078-0.41934 5.3966-0.71389 1.4113-1.8806 3.7394-5.4339 5.6123-8.605-2.5734 0.53636-5.0496 1.5457-6.566 3.188-1.5205 1.6467-2.2025 1.4163-4.2108 1.3101-2.677-0.1416-3.2236-0.82785-6.6347-7.1205 2.0693-4.5633 4.3515-8.5274 7.6201-9.736 6.0873-2.2509 8.7015-4.1044 14.989-4.7449 7.1367-9.067 3.2273-15.995-6.6146-22.868z" fill="#fcdd09" stroke="#000" stroke-width="2"/>
  <g fill="#da121a" stroke="#000" stroke-width="1.5">
   <path d="m111.58 232.17c-2.6282-1.3692-4.3834-0.34508-8.475 2.8569 0.30889-4.979 2.5393-8.2886 9.5191-8.6424z"/>
   <path d="m114.95 246.06c-2.3305 1.0281-3.9072 2.6618-5.5684 6.131-3.2099-5.8252-1.6089-8.0936 2.4365-10.38z"/>
   <path d="m126.43 253.19c0.064 2.0377-0.86821 3.7917-1.4258 5.563-2.8624-2.5468-2.9317-4.5163-2.7419-7.6736z"/>
   <path d="m148.32 245.17c0.0679 3.914-1.2112 6.5448-4.5996 8.2023 0.44208-2.0473 0.79165-4.2454 0.49875-6.5043z"/>
  </g>
  <path d="m170.83 40.015c-2.1555-0.04029-4.5095 0.78287-7.1732 2.4097-6.8042 4.1556-6.3049 14.976-4.2282 22.711 1.4492 5.3976 1.5921 8.6524 0.78342 10.628-0.98925 2.4171-6.41 1.4978-9.0713 2.1797 8.0267 4.4389 13.257 3.9793 16.249-5.4219 1.7711 2.1813 3.6753 4.0478 5.58 5.2012-0.12074-5.0009 0.0139-5.7455 2.1394-6.9143 1.5629-0.85944 3.0263-0.9856 3.4675-2.0908 0.18746 3.0002-0.23346 6.5155-1.694 10.056-1.0867 2.6339-2.8859 5.2816-4.7082 7.7412-1.1668 1.5748-2.432 3.3524-3.7109 5.2183-2.1696-0.2118-4.8934-0.35662-8.7116-0.185-7.1162 0.31986-9.4465 8.0989-4.5455 14.319 0.92983 1.18 1.6702 2.0342 3.1817 3.5321-0.3072 0.90241-0.49306 1.6857-0.51986 2.3053-6e-3 0.14483-4e-3 0.286-6e-3 0.42892-1.2573 0.026-2.5927 0.0468-4.1103 0.062-6.5505 0.0657-8.1506 14.836-1.1912 15.973 4.1027 0.66986 6.8474 1.4058 10.286 2.9848 0.25601 0.72183 0.51758 1.4419 0.78238 2.1601-2.0768 0.33773-7.734 3.1469-9.6273 4.718-1.2557 1.042-1.1114 7.0894-0.28732 7.4316 5.5131 2.2895 10.293 4.3261 15.051 6.7753 2e-3 0.0402 6e-3 0.0802 8e-3 0.1204 0.0802 1.626-0.71462 3.0742-1.9875 4.0892-1.3041 1.0398-3.2644 1.2725-4.9227 1.0945-3.4524-0.37055-6.6353-1.5512-9.2868-3.793-4.2523-3.5954-7.5042-12.171-14.02-14.522-5.2298-1.8864-7.4036-8.5611-13.684-17.782l-12.89-20.505-22.82 40.134c6.1531 3.5226 8.9895 4.1488 11.95 5.9722 1.8525 1.1411 6.3788 2.0206 11.007 4.4623 1.396 0.73657 2.9719 1.6464 4.4726 2.835 8.8319 6.9952 14.138 12.581 6.7784 22.813 0.66046 8.4642-0.39622 7.5166 4.5951 12.381 4.4331 4.3205 3.5867 8.2692 0.59738 11.192-2.8307 2.7672-3.853 3.8662-11.519 3.7093 1.9949 3.1051 7.3282 4.5989 10.014 2.7239 1.9402-1.3546 0.7432-1.0358 4.2773-2.4526-1.8496 1.5109-1.7646 2.0675-1.3534 5.257 0.33301 2.5834-0.71772 3.7589-2.6154 7.5308 2.7872-0.99745 5.3908-2.8046 6.0275-5.0431 1.2758-4.4849 4.186-5.6438 7.243-6.8544 2.8087 1.7603 0.94954 2.7101-3.0169 14.775-0.64769 1.9702-1.8836 3.3933-9.4191 8.1313-3.1538 0.0169-6.6102 0.10477-7.6404-1.7663-2.1806-3.9608-9.1782-2.348-9.357 3.1316-0.12492 3.8275 5.1062 5.9684 6.5221 3.5776 0.63549 1.6766 3.4442 0.75819 5.8751 1.0428-1.3958 0.53653-3.6991 1.4559-5.5919 2.7368-1.828-1.7064-9.9297 0.40466-5.1082 7.1892 3.531 4.9686 7.3991 1.4149 7.4709-0.9524 0.7356 0.83638 1.8074 0.42188 2.9197-0.58291 1.0958-0.9899 2.3413-1.2028 3.2799-1.9725-0.41462 1.5272-0.42092 4.085-2.1363 4.5393-3.1246 0.82734-4.2443 7.5379 0.95343 7.7044 2.1747 1.7153 4.3291 0.89197 6.5371-2.0598 1.348-1.8021 1.9654-2.3877-0.78187-4.5579 1.9963-0.24111 0.059-4.538 4.1119-6.4838 1.2822-0.6156 3.0246-0.91871 4.055 0.12506 0.93874 0.95087 0.94742 1.3903 0.14728 2.3626-1.9408 2.3585 1.6914 6.6975 5.0596 4.9454 0.83671-0.43525 2.1696-1.1436 3.3734-1.4139 1.7124-0.38438 3.4944-6.4058-2.1477-7.0001 1.6457-1.5355-1.943-3.2515 1.7482-6.8983 1.0331-1.0207 1.9886 3.8882 4.4747 3.8576 2.7113-0.0333 3.1256 0.56222 9.9353-2.8179-5.0178-2.3544-6.8884 0.12452-8.1075-2.9063-0.31611-0.78588-0.75974-2.4861-1.0583-3.5667 1.5812 0.2666 2.9918 0.73214 5.4369 1.7849 1.7896 0.77052 4.5864 0.68533 9.5405-3.4861-2.2506-0.3101-5.5621-0.17955-7.615-0.69867-2.6641-0.67366-1.7924-3.5893-2.8267-7.0022 1.8599 1.7671 3.5087 2.4815 4.4964 3.3435 2.4188 2.1109 3.2968 2.1838 9.5834-0.22531-2.4281-0.98463-5.0062-1.9925-7.274-2.959-1.5979-0.68102-1.1321-2.783-1.6082-4.1279 6.7149 3.6214 5.3142 4.806 12.189-1.7012-6.4601-0.55201-5.601 0.5128-9.7327-4.9134 2.322 0.18104 7.1106 1.2629 10.175 1.4945 2.1678 0.16383 3.4643-1.6496 4.0582-3.2003 0.43998-1.1489 1.0792-1.3034 2.0397-3.6241 0.68942-1.6658 1.6576-2.5408 3.343-2.7259 2.1306-0.23405 5.769 0.58852 7.3153-2.1497-2.41-0.88497-5.4421-1.3133-8.4227-1.9652-1.756-0.38411-2.8022 0.18076-3.7806 1.1157-3.2048 3.0623-4.7057 4.7474-7.8031 4.3372-3.5132-0.46521-3.092-0.23767-4.4416-0.68006 0.92374-0.39431 4.0546-0.75781 6.9345-1.7715 2.445-0.86058 1.9127-3.8933 1.6681-6.4647-0.45497-4.7828 0.24698-4.4891 4.223-8.9819-3.7817 0.30459-7.4756 1.3143-8.1044 9.0232-0.19273 2.363-2.7431 2.2964-9.185 1.7761 0.64809-0.80172 2.9824-2.2077 4.5258-3.1311 2.6758-1.6009 2.317-4.4939 1.4712-9.6051-1.8134 4.7354-2.3056 5.7185-4.1786 6.965-3.8742 2.5784-8.2607 2.0737-10.966 0.24702-5.0152-3.3861-5.4964-6.5609-2.2779-11.898 2.5121-4.1656 3.6026-8.4929 2.8236-12.937 3.5413 2.2718 8.4957 3.5324 13.962 2.0784 4.8233-1.283 6.5337-2.9329 7.83-6.0529 1.5212-3.6612 1.2585-7.141 9e-3 -11.285-0.96367-3.1952-1.8981-6.0273-2.7822-8.586 3.796 0.0514 8.2024 0.14807 13.726-0.31264 2.0764-0.1732 5.1454-1.0147 6.1805-3.6737 0.69299-1.8213 1.4739-3.3786 2.0552-5.5351-2.978 3.124-4.4881 4.3242-6.842 4.5971-3.9204 0.45468-7.7908 0.80433-11.686 0.90072 1.448-1.4501 2.8214-3.393 3.13-5.209-2.7004 2.5143-5.6969 3.4186-8.5302 3.7155-2.3802-6.51-4.1154-10.926-4.5475-15.124 4.8893 0.0377 10.277 0.25358 15.093 0.20154 8.2009-0.0886 11.238-3.1641 12.839-9.926-5.5655 4.7144-7.274 5.4772-20 5.0033 2.7003-2.07 5.5406-5.3671 7.382-8.0915-7.3249 3.7383-10.157 5.4216-14.875 6.2063 0.98609-4.3563 3.2153-8.764 5.8911-13.222 2.9834 0.35352 6.2255 0.72637 9.9441 1.0361 8.012 0.66735 11.286-3.9198 12.367-10.634-5.471 4.9979-7.4159 7.0836-12.913 5.9009 2.2696-1.2135 2.664-3.3333 3.9806-6.2963-4.4722 3.7475-6.661 4.5464-9.8614 4.3997 1.5494-2.393 3.1318-4.7994 4.6307-7.2207 2.2174-3.582 5.7253-11.299 4.6364-18.662 2.7977-0.55612 4.6148-1.3634 5.703-2.3585 1.7138-1.5671 1.8369-2.2355 1.3777-4.0153-0.24738-0.95883-0.42668-2.2874-1.1529-4.146-2.6319-6.7356-2.2074-7.6749 0.46199-6.0234 2.3306 1.4419 4.36 1.5135 6.0394 0-2.4256-1.6625-4.2746-2.5432-5.4519-4.2292-3.967-5.681-10.921-3.4232-11.156 4.0819-3.4424-6.7816-6.8344-10.005-10.949-10.082zm-9.185 57.126c1.0558-0.05624 2.2024 0.1265 3.1238 0.20516-1.324 2.1007-3.233 4.9677-2.887 7.3238-3.762-4.1938-2.7441-7.3954-0.23682-7.5289zm-2.7373 21.167c-0.0273 0.72085 1.0344 3.8572 1.7979 5.7841-2.2259-0.40471-5.0085 0.0641-5.931-1.3525-1.8282-2.8076 0.3875-4.221 4.1331-4.4316zm6.7898 20.64c0.72928 2.0588 1.4726 4.8927 2.89 6.8034-2.1849-0.89008-5.5168-2.1465-6.6727-2.6806-2.465-1.139-2.5779-2.5724 5e-3 -3.36 1.226-0.37396 2.475-0.61232 3.7781-0.76275z" fill="#fcdd09" stroke="#000" stroke-miterlimit="12" stroke-width="2"/>
  <g fill="#da121a" stroke="#000" stroke-width="1.5">
   <g>
    <path d="m51.766 48.004-6.103-0.11644c0.79929-2.5356 0.02611-4.8373-0.23624-7.3729 3.6933 0.14879 5.8363 2.1825 6.3392 7.4893z"/>
    <path d="m33.742 46.821-4.8334 4.7612c-0.64127-2.5712-2.4906-4.6591-4.4457-6.7047 3.1265-1.0042 6.1527-0.43293 9.2792 1.9435z"/>
    <path d="m22.483 66.298c-3.7214-0.8479-5.1524 0.86792-7.4059 3.4583-0.34088-4.5942 0.44311-8.7431 7.3475-8.7427z"/>
    <path d="m30.568 79.661c-3.7373 2.4766-8.1095 2.4896-12.384 1.2533 2.166-1.2745 6.8638-3.7922 7.9823-6.8718z"/>
   </g>
   <path d="m31.441 161.05c-3.3131 2.9509-3.6488 3.638-4.1749 7.7153-5.1576-6.16-4.0457-6.2714-1.5008-12.164z" stroke-miterlimit="12"/>
  </g>
  <path d="m68.869 119.11c-5.69 3.6741-8.2356 6.3675-21.361 14.587-3.5263 2.2083-9.9894 1.6247-13.035-3.1534-0.19972-5.1373-5.3644-6.1194-9.0066-1.9799-2.9012 5.9098 2.8086 10.177 5.8883 5.8542 1.4275 3.2627 7.2966 4.0316 1.4149 6.2575-1.3546 0.51262-3.5167 0.93231-6.612 1.302-1.9816-1.7112-3.2346-1.7209-5.8302-0.3916-1.9436 0.99541-2.7117 3.2367-1.2618 5.2652 2.4525 3.4311 8.2941 5.5833 9.2654-0.43234 0.41015 0.18002 2.0975 0.50555 3.6009 0.10607 3.9925-1.0608 5.237-1.4823 2.7076 2.6281-0.70285 1.1422-2.6254 2.4495-4.4186 2.5575-3.3542 0.20216-6.5428 4.7791-2.8094 8.2751 3.3638 3.1499 10.832 1.3615 7.4396-4.4953 1.6965-0.0983 2.5481-1.4732 4.6167-4.0037 3.068-3.753 5.9894 0.59159 5.2107 3.0588-4.7781 3.1792-2.6898 7.6659 2.4565 7.5494 7.8238-0.17708 6.6258-6.9206 2.8352-7.7384 0.08738-4.5614-0.11071-8.5693 4.1482-8.4684 4.9871 0.17679 4.7276 3.9859 3.2224 8.6574 2.1337-1.5004 5.2177-4.0682 5.2771-6.6364 1.1603 1.4313 0.58654 6.0031 0.29802 8.4318 5.7024-6.2166 5.9406-4.3161 4.0632-10.867 3.4053 4.3571 9.5045 2.5275 11.15 9.6384 2.0639-6.7356 1.3983-6.6851-2.2263-8.9604-2.8641-1.7978-3.5903-1.9559-3.0653-6.2532 2.7191 3.5234 8.3951 5.9685 9.9219 9.7329 1.1488-2.8962-0.25433-4.6531-1.0403-6.3304-1.3126-2.8012-2.6122-2.8544 1.6073-7.4657-0.07097 3.2235 1.2557 6.4988 2.129 8.3931 2.1459 4.6546 2.1872 5.4442 5.2013 5.9466 2.2185 0.36984 3.9786 0.72156 7.2218 1.8187-2.0068-2.3631-3.5396-4.4435-6.0496-6.555-0.31861-2.5691-0.65042-4.7063-0.47052-7.5246 4.1195-4.0429 8.1939-8.1398 11.812-10.678l-9.9161-16.647-21.132-25.53c-8.3681-4.9885-16.35-11.974-21.472-21.91-3.0896-5.993-0.17322-5.9125-1.0966-8.2364 5.2933 0.59754 5.4089-7.7855 0.47204-7.1676-0.66546 0.08328-2.1018-0.08654-3.282-0.3457-3.4159-0.75008-4.897 3.5424-2.3456 6.7315 1.3252 1.6565-2.5745 4.6033-3.9743 2.6202-0.97592-1.3825-2.665-1.9892-2.3102-4.2965 0.58524-3.806-2.2027-8.4922-7.196-4.0678-5.6912 5.0428-0.8046 8.5158 2.2399 6.69-0.3734 1.5001 2.509 2.9049 1.4246 4.1918-0.80429 0.95452-1.8303 1.6796-2.6766 1.4428-1.073-0.3003-2.4326-0.31931-3.3369-0.16743-1.2754-2.0597-7.4319-3.5618-7.8391 2.4997-0.33661 5.011 5.4616 7.2016 7.1464 1.9141 1.3566 3.0311 4.6845-0.24919 5.8664 2.7919 0.95124 2.4476 0.13172 3.7178-3.192 3.3367-4.6351-0.53154-5.7676 3.8168-3.6853 6.8048 2.5209 3.6175 7.3596 2.9471 6.6299-1.3536 2.0627 0.465 5.8812-3.8925 6.6992 0.58952 0.85128 4.6644-0.70245 4.8656-2.7019 6.9266l-4.7249 2.363c3.0411 1.4025 6.144 1.5562 7.5782 1.4085 1.8712-1.3222 3.6906-2.7995 5.8017-3.402 1.5243 3.3084-0.27589 3.3002-4.5115 6.923-0.99966 0.85502-6.7995 0.52924-10.744 0.75544 6.484 3.6216 8.6095 5.6952 12.086 3.0268 6.5943-5.0613 6.915-4.4081 8.8385-2.1573-0.42372 1.3146-2.5899 3.1612-4.22 5.0448-1.5366 1.7756-3.0809 1.4526-8.5639 0.73825-1.8684-0.24343-2.7318 0.83262-3.2879 2.1304l-5.1502 12.02c7.3553-5.3625 9.9254-8.4066 15.564-7.3485 2.3118 0.43383 5.9228-0.0953 8.2699-1.1742-6.2066 5.7198-6.3479 5.0071-14.349 4.9299 4.7686 6.4386 8.3596 3.9319 21.615 2.328-7.7171 5.4795-8.8167 6.0684-13.392 6.1558-4.6307 0.0884-8.5545-2.6964-13.453-0.94383 3.3442 1.3949 8.7722 4.4806 11.613 7.385 8.8956-2.6061 14.698-4.1395 22.406-5.1268z" fill="#fcdd09" stroke="#000" stroke-miterlimit="12" stroke-width="2"/>
  <g fill="none">
   <g stroke="#000" stroke-width="2">
    <path d="m163.52 133.33c2.6154-0.35924 5.1697 0.23091 7.6785-0.0956"/>
    <path d="m165.2 138.9c2.6321-0.29242 5.2312 0.21839 7.7341-0.0668"/>
    <path d="m158.73 118.32c2.8575-0.26474 4.963-0.24156 7.7494-0.23143"/>
    <path d="m157.81 112.13c2.5918-0.0344 6.5576-0.0578 9.1845-0.59697"/>
    <path d="m164.91 97.363c3.2744 0.23708 5.7248 0.6207 8.399 0.91431"/>
    <path d="m168.42 91.732c2.6449 0.3731 5.6363 0.96324 8.4935 0.94975"/>
   </g>
   <path d="m124.68 74.934c0.37972-4.6863 0.53364-8.9197 3.0202-13.248" stroke="#fff" stroke-linecap="round" stroke-width=".5"/>
  </g>
  <g stroke="#000" stroke-width="2">
   <g stroke-linecap="round">
    <path d="m125.85 75.177c0.5034-1.3246 0.89823-2.7959 2.6273-4.2956 1.1062 1.7229 1.6749 2.4662 1.5925 4.2981 0.6646-1.7201 0.87675-3.5544 2.3978-4.932 0.91416 1.4312 1.674 2.5183 2.0713 4.8109l-4.8771 2.1337z" fill="#fff"/>
    <path d="m128.05 60.745c-0.0311 1.4582 0.11264 2.8451-0.16282 5.1466 2.1085-0.92105 3.5964-2.0477 5.1844-4.815-0.13721 1.8538-0.69919 2.3193-1.049 4.0309 3.1191-0.29529 4.8536-1.5504 4.6496-3.9766z" fill="#fff"/>
    <path d="m119.16 70.499c5.2288-1.0771 8.2504-1.387 12.712-1.8559 8.1446-0.85587 11.578 3.4012 16.03 1.3907 5.6217-2.539 4.4849-8.3653 0.79422-12.549-1.3091 5.1516-5.9653 7.7022-11.271 7.3785-7.9692-0.48628-15.398 1.7129-18.329 2.2432z" fill="#da121a"/>
   </g>
   <path d="m104.99 136.81c2.749-0.72674 10.682-2.0409 13.158-2.1335-11.745-6.2149-10.846-9.2115-9.2077-16.64 0.90325 10.12 3.9322 7.9928 12.886 11.143-7.184-7.2386-6.9198-9.176-8.2769-17.999 1.9118 3.6858 3.1902 5.8071 7.2684 10.408 0.37296 0.42074 1.1241 0.3025 1.512 0.0546 8.3146-5.313 9.7241-3.5795 18.081-0.98915-1.2109-1.8316-1.7803-3.1487-2.9757-4.0745-0.55619-0.43074-1.9842-1.2149-2.938-2.3116-1.2829-1.4751-2.7546-1.752-5.9018-1.1575-3.7465 0.70765-4.4723-3.9186-5.8687-6.4276 3.5557 3.4874 3.5388 3.8981 7.479 5.3793 1.8837 0.70812 2.4382 1.3378 6.7206-0.35804 2.9912-1.1845 3.9868-1.1745 6.0819-6.0754 1.9038-4.4533 2.97-6.6813 8.2606-11.267-5.599-0.33639-8.2027 3.2456-12.347 9.119-1.1101 1.5733-2.0691 3.1113-3.8721 2.6555-4.9659-1.2555-5.7295 0.19608-6.4328-2.9165-0.65442-2.8961-1.9826-5.5873-2.988-8.3762 0.78631-3.1833 3.9423-2.0752 5.5638-6.3692-1.6609-0.45999-3.4099-0.05856-5.3664 0.51518-2.8371 0.83197-4.2966-3.548-3.5986-4.2463 2.3172-2.3182 3.541-4.0658 1.1108-4.8387 2.9454-0.12692 3.7258 2.7372 9.3548 0.70184 4.9468-1.7887 2.3307-6.054 0.69503-5.3482-2.5447 1.0979-9.8654 0.47559-12.353-0.9203-2.3176-1.3004-2.4838-3.2931-0.80535-6.5836 3.2964-6.4623 3.0097-6.1473 15.592-6.3807 4.1862-0.07766 3.611-6.7645-0.41838-8.9647-2.7158-1.4829-7.108-3.1633-7.3935-5.3116-0.4954-3.7272-5.7283-4.6007-8.9938-6.5545-0.15175-3.2373-2.7264-4.1741-6.0673-4.295-3.5392-0.12802-7.9587 0.68002-12.02 1.3904-4.8435 0.84714-5.7445 2.6863-8.0769-2.4226-2.0534 3.1973-1.925 5.9259 0.53018 7.2942-1.7186 2.2629-6.6269 0.0021-9.3156-2.1849-1.3757 6.1931 1.2593 5.5442 5.5735 8.1322-6.1925 0.48387-5.1087 3.0007-14.133-4.3336 4.7324 11.378 5.3163 9.6366 11.746 11.459-6.7133 2.9511-5.8935 3.3206-12.194-0.66931 1.8407 9.5698 3.1724 6.181 12.661 10.621-2.6255 0.41559-5.7144 1.202-10.377 0.29298-4.4461-0.8669-1.0083-2.9619-6.8639-4.0749 0.83552 2.8306 0.94141 3.8611 0.85103 5.3868-0.22819 3.8521 3.352 2.5437 9.3851 5.3712-2.3192 0.4783-7.487 2.0919-10.041 0.59864-1.5959-0.9329-3.231-1.9435-2.91-3.9667 0.48141-3.0342-3.0317-2.7797-7.6611-2.5734 2.3048 2.0247 4.19 2.4639 4.9775 6.2373 0.51371 2.4616 1.1726 4.8121 3.8082 5.8875 2.5373 1.0353 4.0347 3.5448 8.0161 3.5407-2.1379 0.52115-4.5474 2.1014-6.0859 3.4455-2.4002 2.097-4.74 3.0403-9.8172 1.2915 3.8847 4.4806 5.4037 4.28 13.273 3.202-6.1714 4.7211-5.9036 5.7282-15.003 3.9661 0.6006 4.8186 0.71123 5.4206 7.0583 6.2319 7.7232 0.98711 8.9082 0.0405 10.623-1.5129-2.311 3.2328-5.5923 6.2831-8.7152 9.2754 4.4723-0.2811 8.317-0.35949 12.179-2.5311-4.0796 3.3778-4.8297 4.0996-6.7483 12.382-0.96813 4.1793-1.1075 6.136-7.9788 11.392 3.1605-1.0885 10.013-2.2509 10.464-4.9086 0.62494-3.6836 2.6822-7.4886 4.6935-10.437-2.5503 4.696 0.02527 12.003 0.84388 16.667 1.3561-5.9342 2.7284-11.071 5.4601-12.465 3.2164-1.6423 4.6685-1.5046 5.4313-3.9601-0.32744 4.1156-0.63579 6.0868-5.4503 12.036 7.5416-2.2254 9.2167-3.689 11.257-9.9472-0.99629 11.402-0.72548 12.038 6.6007 20.45z" fill="#fcdd09" stroke-miterlimit="12"/>
  </g>
  <g stroke="#000" stroke-linecap="round" stroke-miterlimit="12">
   <path d="m186.63 51.503c-1.8621 2.4775-1.3026 6.9704-1.4504 10.564-0.1085 2.6387 2.0838 0.31452 2.0713-0.2382-0.11074-4.9134-0.7862-7.1583-0.62091-10.326z"/>
   <path d="m175.96 64.094c-4.3898-0.64081-5.2005 2.8835-4.3088 6.0045 1.5837-3.8162 3.1981-5.5554 4.3088-6.0045z"/>
   <path d="m176.14 59.582c-1.4558-1.0707-2.8008-2.9123-5.0475-1.8821-0.91402 0.41914-1.7701 1.6197-3.349 2.9049-0.0319-2.1244 0.36685-3.8592 1.4297-6.4477 1.6673-4.0609 5.058-1.7446 6.1127-0.83276-3.1153-4.8526-6.4748-2.859-8.6419-0.43078-1.6723 1.8738-1.0825 6.5883-0.83679 12.362 1.4892-5.2809 7.4503-5.8389 10.333-5.6738z"/>
  </g>
  <g fill="none" stroke="#000">
   <path d="m126.09 172.37c1.5-4.0258 3.6212-6.9152 3.3454-11.06-0.11129-1.6724-1.8-3.3763-3.5338-4.8711-2.0328-1.7526-3.42-3.3682-5.5261-3.816-8.0218-1.7057-18.239-4.6758-19.273-5.5586-3.8774-3.31-6.4434-6.1319-9.6793-9.1976" stroke-width="2"/>
   <g stroke-linecap="round" stroke-width="1.5">
    <path d="m106.05 43.603c-5.7225-3.7853-7.1688 1.6513-12.457 1.6918 0.05456 4.3057 1.8085 7.2184 5.7829 7.9606-2.3868 1.2698-4.0202 1.994-5.9838 0.57078 0.70496 4.1629 0.68541 4.1894 6.8327 4.406-2.3776 1.1947-3.8247 3.8664-6.0378 6.3312 2.706-0.43211 5.3119-0.84608 8.1181-2.0659-1.4279 1.7914-1.9351 2.7712-2.5935 3.9718-2.1937 4.0004-6.1621 2.4002-12.095 5.2773 7.7755 1.7421 7.2438 4.3697 13.828 1.6622-3.3545 2.3201-7.2997 6.574-8.7417 10.003 4.2233-3.6825 7.6359-4.919 10.773-6.2753-1.8827 1.4796-2.6446 5.7296-3.7977 8.8457-1.5547 4.2014-4.3131 3.8078-10.093 6.0749 2.166 0.5609 6.4523 0.82396 8.9298 0.90547 2.363 0.07774 3.9623-0.39571 5.3341-2.7953 2.6564-4.6464 4.7299-7.3994 7.1435-8.8582-2.4664 2.959-2.0735 7.054-5.3943 12.652 3.2901-2.1652 8.7819-2.961 10.438-6.8966-0.56359 5.0266 5.5028 5.2254 9.5906 8.0051" stroke-miterlimit="12"/>
    <g>
     <path d="m99.672 49.697c-2.3524-1.1019-2.6395-1.8374-1.547-2.7736 1.1109-0.95208 1.924-2.8148 5.9891-0.08002 0.74245 0.49947-0.13739 0.862-0.54248 0.59375-1.9939-1.3204-3.5922-1.0704-5.5043-0.25986"/>
     <path d="m114.91 73.045c-0.58157-2.3826-0.56421-4.0607-1.2757-5.9295"/>
     <path d="m125.8 61.871c-1.5348-0.92171-3.5365-1.3774-5.5751-0.66146"/>
    </g>
   </g>
  </g>
  <path d="m120.86 45.405c1.8299 4.3029-5.897 3.4792-7.4178 2.3624-0.55336-0.40637-0.8524 0.19272-0.28578 0.47136 3.8167 1.8769 1.5114 4.2936 5.3176 3.9935 4.1456-0.3269 3.07-6.1839 2.386-6.8272z" stroke="#000" stroke-linecap="round" stroke-linejoin="round" stroke-width=".8"/>
  <g fill="none" stroke="#000" stroke-linecap="round" stroke-width="1.5">
   <path d="m112.22 51.878c1.2455-0.68383 2.264-1.1609 3.449-2.2679"/>
   <path d="m119.57 64.753 3.6853-3.0711"/>
   <path d="m126.56 54.784c-2.4373-0.11778-1.1203-1.0823-2.4096-1.8899"/>
   <path d="m138.46 57.997c-0.31153-1.2863-0.9614-1.5708-2.9765-0.99219"/>
  </g>
  <g stroke="#000" stroke-linecap="round">
   <ellipse cx="131.42" cy="57.17" rx="1.2757" ry=".85045" fill-opacity=".99061" stroke-linejoin="round" stroke-width=".8"/>
   <path d="m133.93 61.021c0.26918-0.70527 0.71466-1.5359 0.37799-2.3624" fill="none" stroke-width="1.5"/>
   <path d="m114.62 55.065c0.91661-0.95026 1.4991-0.07374 2.7498-0.86608" fill="none" stroke-width="1.5"/>
  </g>
  <g stroke="#000">
   <g>
    <path d="m62.399 93.8c-1.3309-0.21697-5.2131-3.1999-8.2006-6.935-3.1186-3.8989-6.1156-8.7228-9.0648-11.473 2.3022 4.071 5.3034 8.4427 8.2365 12.464 2.1419 2.9363 4.6881 5.7004 5.3156 8.4405z" stroke-miterlimit="14" stroke-width=".26458"/>
    <path d="m81.522 114.63c3.1831-4.9109 4.6758-2.4755 6.7131-6.267 1.1285-2.1003 2.1253-4.0783 2.9787-5.8062-1.8911 1.8042-2.63 2.6711-6.0402 6.1968-1.6814 1.7383-3.8141 2.9413-5.1591 4.9626z" stroke-miterlimit="12" stroke-width=".26458"/>
    <path d="m56.13 141.27c1.4588-2.0506 13.093-6.3317 19.979-9.5382 1.2907 0.26114 2.5529 0.56989 3.5803 1.2699-7.8923 1.8411-15.581 5.142-23.559 8.2682z" stroke-linejoin="round" stroke-width=".265"/>
    <path d="m77.988 216.3c0.46801-1.4824 7.0175-8.5609 11.765-17.529 0.65857 0.0466 1.2143 0.35029 1.7481 0.70869-3.8821 6.2508-8.3978 11.309-13.513 16.82z" stroke-linejoin="round" stroke-width=".7"/>
   </g>
   <path d="m147.77 223.8c0.50574-1.1701 2.1539-4.3274 3.7863-7.7127 1.9779-4.1018 4.01-8.4831 4.9553-9.3581 0.61361-0.56802 2.0918-0.52355 1.1832 0.9044-3.389 5.3256-6.4182 10.322-9.9248 16.166z" stroke-linecap="round" stroke-linejoin="round" stroke-width=".5"/>
  </g>
  <path d="m91.548 140.75 4.0632 2.4568" fill="none" stroke="#000" stroke-width="2"/>
  <path d="m5.8333 32.248 2.12e-4 133.24c-2.8e-5 26.503 10.536 51.921 29.289 70.662 18.754 18.741 44.189 29.269 70.71 29.269 26.522 3e-5 51.957-10.528 70.711-29.269 18.754-18.741 29.289-44.158 29.289-70.662l-7.8e-4 -133.24z" fill="none" stroke="#000" stroke-linecap="square" stroke-miterlimit="8" stroke-width="3"/>
 </g>
</svg>
