<?xml version="1.0" encoding="UTF-8"?>
<!-- Created with Inkscape (http://www.inkscape.org/) -->
<svg width="203.08mm" height="253.19mm" version="1.1" viewBox="0 0 203.08 253.19" xmlns="http://www.w3.org/2000/svg">
 <title>Wappen der ehemaligen Gemeinde Bredelar</title>
 <g transform="translate(17.874 -10.494)">
  <path d="m183.47 162.12v-149.82h-199.75l0.04115 149.82c0.04983 55.514 44.776 100.42 99.885 100.42s99.827-45.09 99.827-100.42z"/>
  <g fill-rule="evenodd" stroke="#000" stroke-width="1.5">
   <path d="m66.301 73.447 92.535 83.489-7.436 8.6601-92.401-83.994c-4.9766 5.5161-6.8825 0.81786-5.1044-1.9171-4.8322 5.0003-10.952 0.41602-7.2515-5.3527-3.6376 3.2694-8.5015 0.0804-2.7724-6.2373-9.535-7.9722-13.122 4.0133-30.09 1.1667-11.063-1.856-8.9387 3.3924-10.419 2.1745-1.458-2.3286-1.4747-4.1827 0.94708-6.2043-7.6557-4.3429-9.5126-13.855-9.5114-17.475 2e-3 -4.8738-2.2419-7.403-6.3242-8.6887 1.9597-3.0529 5.0934-3.8394 7.6665-1.7177-0.10241-7.6987 6.1306-12.157 13.558-16.254 3.6153-1.9944 5.5399-5.0996 6.6933-6.6774 3.5859 1.5503 3.0441 3.0296 2.4213 5.0601 5.711-2.968 13.407 1.8456 16.839 6.6404 2.182 3.0488 6.8286 2.8032 8.84 2.8026-1.2208 2.439-1.388 6.0806-4.2552 4.5127-0.0497 6.4548-1.621 9.1432-4.4699 12.454-6.8176 7.9241-18.245 5.707-18.375-2.7337-0.14776-9.6379 12.484-8.7637 12.273-0.01328 6.2398-5.1122 3.5232-11.666-0.49784-13.066-0.47118 1.6304-1.3722 2.5485-2.3539 3.1276 0.4441-6.2913-8.4668-9.1773-14.972-4.1838 1.5338 0.70092 2.7711 1.1436 2.77 3.0864-9.4621-1.3362-11.251 6.2996-9.1271 13.013 1.3028-2.0288 2.5881-1.842 4.4008-2.11-8.6405 15.509 8.8846 17.579 18.217 14.057 12.694-4.7907 18.742-2.5945 23.249 2.734 3.9189-4.6692 7.6793-1.3584 6.0497 2.0049 3.6117-3.738 10.086 0.22761 6.7927 5.7696 1.744-1.6825 6.9991 0.39064 2.1072 5.8714z" fill="#fcdd09" stroke-linejoin="round"/>
   <path d="m-12.19 162.29 168.29-150.26 27.277 0.06858-0.25973 28.504s-131.77 117.65-169.6 151.43z" fill="#da121a"/>
   <path d="m184.46 13.201-37.038 32.792-12.738-14.974-36.631 32.844 12.767 14.948-36.786 32.844-12.796-14.922-36.912 32.818 12.922 14.948-36.786 32.844 13.058 14.688 36.65-32.584-12.922-14.948 36.786-32.844 12.854 14.87 36.786-32.844-12.854-14.87 36.602-32.818 12.854 14.87 23.274-20.606 0.90963-27.056" fill="#fff"/>
  </g>
  <path d="m-2.9092 160.91c-7.141 8e-3 -10.213 0.71803-13.419 4.2137 0.74747 25.456 11.184 49.713 29.244 67.773 18.754 18.754 44.189 29.29 70.71 29.29 26.522 0 51.957-10.536 70.711-29.29 12.242-12.242 20.98-27.331 25.574-43.71 1.7474-7.1261 2.8789-13.824 3.3063-19.857-4.1606-3.7381-9.5274-7.3059-14.151-7.3024-14.359 0.0108-22.759 23.667-37.986 23.507-14.495-0.15458-25.922-24.304-45.713-24.355-17.985-0.0463-25.889 23.665-45.14 23.478-18.112-0.17867-26.928-23.764-43.137-23.747z" fill="#fff" stroke="#000" stroke-linecap="square" stroke-width="1.5"/>
  <g fill="none" stroke="#000">
   <g stroke-width="1.5">
    <path d="m43.857 68.163 7.7414-8.5078"/>
    <path d="m45.946 75.21 12.173-14.268"/>
    <path d="m53.121 80.585 11.471-13.565"/>
    <path d="m58.773 81.806 7.7739-8.6653"/>
   </g>
   <path d="m183.63 11.995-200 0.18707-2.12e-4 150c-2.8e-5 26.522 10.536 51.957 29.29 70.71 18.754 18.754 44.189 29.289 70.71 29.29 26.522 0 51.957-10.536 70.711-29.289s29.289-44.189 29.289-70.711z" stroke-linecap="square" stroke-miterlimit="8" stroke-width="3"/>
  </g>
 </g>
</svg>
