<svg xmlns="http://www.w3.org/2000/svg" width="701.33" height="741.77" viewBox="0 0 701.3341 741.76859"><g transform="translate(21.5-87.76)"><path d="m-15.82 93.26l13.398 416.62c7.415 175.25 153.92 314.05 331.59 314.14 177.51-.215 324.07-139.06 331.59-314.14l13.398-416.62h-344.98z" fill="#f00" fill-rule="evenodd"/><g stroke="#000"><g stroke-linejoin="round" stroke-linecap="round" stroke-width="8"><g fill="#ffd700"><path d="m126.85 139.57v41.492h-41.492v34.29h41.492v41.492h34.29v-41.492h41.492v-34.29h-41.492v-41.492h-34.29z"/><circle cx="144" cy="321.48" r="76.23"/></g><path d="m143.99712 245.24996a76.23302 76.23302 0 0 0 -7.05469 .39062 76.23302 76.23302 0 0 0 -1.58984 .19336 76.23302 76.23302 0 0 0 -8.5 1.46485v57.49h-57.17a76.23302 76.23302 0 0 0 -1.91406 16.68945 76.23302 76.23302 0 0 0 2.15039 17.59766h56.938 34.29 56.943a76.23302 76.23302 0 0 0 2.14648 -17.59766 76.23302 76.23302 0 0 0 -1.94727 -16.68945h-57.14v-57.51a76.23302 76.23302 0 0 0 -.004 0 76.23302 76.23302 0 0 0 -6.48633 -1.18945 76.23302 76.23302 0 0 0 -1.46875 -.2207 76.23302 76.23302 0 0 0 -5.04687 -.41211 76.23302 76.23302 0 0 0 -4.13672 -.20703z" fill="#f00"/><g transform="translate(-21.5 87.76)"><path d="m574.37 5.5l-532.49 523.03c22.786 56.997 61.25 106.1 110.05 142.24l539.37-529.79 4.357-135.48h-121.29z" fill="#ffd700"/><path d="m487.53 90.79l-86.3 84.77 122.95 4.406 2.201 123.01 86.3-84.77-.627-35.09-1.572-87.92-87.88-3.15-35.07-1.258zm-172.61 169.54l-86.3 84.77 122.95 4.406 2.201 123.01 86.3-84.77-.627-35.09-1.574-87.92-87.88-3.15-35.07-1.258zm-183.6 180.34l-86.3 84.77 122.95 4.406 2.201 123.01 86.3-84.77-.627-35.09-1.572-87.92-87.88-3.148-35.07-1.258z"/></g></g><g fill-rule="evenodd"><path d="m-15.82 93.26l13.398 416.62c7.415 175.25 153.92 314.05 331.59 314.14 177.51-.215 324.07-139.06 331.59-314.14l13.398-416.62h-344.98z" fill="none" stroke-width="11"/><path d="m480.97 500.9c-19.2 0-38.72 6.976-54.26 19.291-9.612 7.617-17.831 17.26-23.593 28.383-5.761 11.123-9.02 23.737-8.965 36.408.023 4.947.821 9.854 2.024 14.637l14.857 59.04-12.06 5.4 10.25 29.22 43.713-17.15-20.396-72.28c-1.664-7.852-1.701-16.08-.104-23.951 2.749-13.544 10.344-26.785 22.01-33.03 15.592-8.347 37.465-8.347 53.06 0 11.664 6.244 19.259 19.485 22.01 33.03 1.597 7.868 1.561 16.1-.104 23.951l-20.396 72.28 43.713 17.15 10.248-29.22-12.06-5.4 14.855-59.04c1.203-4.782 2-9.689 2.026-14.637.059-12.671-3.204-25.285-8.965-36.408-5.761-11.123-13.98-20.766-23.593-28.383-15.541-12.315-35.07-19.291-54.26-19.291z" fill="#ffd700" stroke-linejoin="round" stroke-width="8"/><path d="m459.18 514.37c-.359.004-.72.024-1.082.064-5.57.616-11.672 2.81-14.984 7.623 4.335-1.941 9.285-2.245 13.934-1.709 6.955.801 12.826 6.01 19.719 7.23 2.761.49 5.653.49 8.414 0 6.892-1.224 12.763-6.429 19.717-7.23 4.649-.536 9.6-.233 13.936 1.709-3.312-4.813-9.416-7.01-14.986-7.623-5.8-.641-11.17 3.609-16.959 4.338-3.912.492-7.918.492-11.83 0-5.427-.683-10.487-4.461-15.877-4.402zm-37.04 27.82l-7.932 11.816 11.816 7.932 7.932-11.814-11.816-7.934zm117.66 0l-11.816 7.934 7.932 11.814 11.816-7.932-7.932-11.816zm-132.52 27.854l-.281 14.227 14.229.283.281-14.229-14.229-.281zm147.39 0l-14.229.281.281 14.229 14.229-.283-.281-14.227zm-132.87 27.654l-14.04 2.303 2.305 14.04 14.04-2.305-2.305-14.04zm118.36 0l-2.305 14.04 14.04 2.305 2.305-14.04-14.04-2.303zm-112.76 28.332l-13.609 4.162 4.162 13.609 13.609-4.162-4.162-13.609zm107.16 0l-4.162 13.609 13.609 4.162 4.162-13.609-13.609-4.162z"/></g></g></g></svg>