<?xml version="1.0" encoding="UTF-8" standalone="no"?>
<!-- Created with Inkscape (http://www.inkscape.org/) -->
<svg
   xmlns:dc="http://purl.org/dc/elements/1.1/"
   xmlns:cc="http://web.resource.org/cc/"
   xmlns:rdf="http://www.w3.org/1999/02/22-rdf-syntax-ns#"
   xmlns:svg="http://www.w3.org/2000/svg"
   xmlns="http://www.w3.org/2000/svg"
   xmlns:sodipodi="http://sodipodi.sourceforge.net/DTD/sodipodi-0.dtd"
   xmlns:inkscape="http://www.inkscape.org/namespaces/inkscape"
   width="219"
   height="273"
   id="svg2"
   sodipodi:version="0.32"
   inkscape:version="0.44.1"
   version="1.0"
   sodipodi:docbase="C:\Dokumente und Einstellungen\Andre\Eigene Dateien\Wikipedia\Bilder"
   sodipodi:docname="Wappen_Crailsheim.svg">
  <defs
     id="defs4" />
  <sodipodi:namedview
     id="base"
     pagecolor="#ffffff"
     bordercolor="#666666"
     borderopacity="1.0"
     inkscape:pageopacity="0.0"
     inkscape:pageshadow="2"
     inkscape:zoom="0.98994949"
     inkscape:cx="350"
     inkscape:cy="59.36102"
     inkscape:document-units="px"
     inkscape:current-layer="g1902"
     width="219px"
     height="273px"
     inkscape:window-width="1280"
     inkscape:window-height="972"
     inkscape:window-x="-4"
     inkscape:window-y="-4" />
  <metadata
     id="metadata7">
    <rdf:RDF>
      <cc:Work
         rdf:about="">
        <dc:format>image/svg+xml</dc:format>
        <dc:type
           rdf:resource="http://purl.org/dc/dcmitype/StillImage" />
      </cc:Work>
    </rdf:RDF>
  </metadata>
  <g
     inkscape:label="Ebene 1"
     inkscape:groupmode="layer"
     id="layer1">
    <g
       id="g1902"
       transform="translate(79.80205,-18.18275)">
      <path
         d="M -80.161416,154.8574 L -80.161416,18.357399 L 29.338584,18.357399 L 138.83858,18.357399 L 138.83858,154.8574 L 138.83858,291.3574 L 29.338584,291.3574 L -80.161416,291.3574 L -80.161416,154.8574 z "
         id="path1908"
         style="fill:black;fill-opacity:0" />
      <path
         style="fill:#faf901"
         d="M 11.838584,282.32248 C -4.6902856,279.19809 -18.856926,272.92788 -32.689156,262.61431 C -46.820316,252.07786 -56.556646,239.89223 -63.256456,224.3574 C -70.150596,208.37199 -70.008386,210.56424 -70.472166,113.11711 C -70.797426,44.773219 -70.619456,25.152499 -69.667126,24.362139 C -68.854026,23.687329 -35.822806,23.432859 28.947034,23.602429 L 126.33858,23.857399 L 126.33858,108.8574 C 126.33858,187.3203 126.19849,194.50746 124.51709,202.30999 C 117.26974,235.94124 99.158504,259.91422 70.445134,273.88245 C 59.852164,279.03563 54.509784,280.58211 39.710244,282.77941 C 26.894334,284.68219 24.077844,284.63602 11.838584,282.32248 z "
         id="path1906" />
      <path
         style="fill:black"
         d="M 11.838584,282.32248 C -4.6902856,279.19809 -18.856926,272.92788 -32.689156,262.61431 C -46.820316,252.07786 -56.556646,239.89223 -63.256456,224.3574 C -70.150596,208.37199 -70.008386,210.56424 -70.472166,113.11711 C -70.797426,44.773219 -70.619456,25.152499 -69.667126,24.362139 C -68.854026,23.687329 -35.822806,23.432859 28.947034,23.602429 L 126.33858,23.857399 L 126.33858,108.8574 C 126.33858,187.3203 126.19849,194.50746 124.51709,202.30999 C 117.26974,235.94124 99.158504,259.91422 70.445134,273.88245 C 59.852164,279.03563 54.509784,280.58211 39.710244,282.77941 C 26.894334,284.68219 24.077844,284.63602 11.838584,282.32248 z M 50.338584,272.44726 C 84.565714,263.46008 110.81714,234.84204 116.00821,200.8574 C 117.12309,193.55853 117.28424,176.73622 116.86076,111.8574 L 116.33858,31.857399 L 27.843964,32.199569 C -20.828076,32.387759 -60.990576,32.751809 -61.406036,33.008579 C -61.821496,33.265349 -62.151676,70.236379 -62.139776,115.16642 C -62.119196,192.85739 -62.021176,197.29601 -60.137976,205.81498 C -54.109426,233.08613 -33.555846,257.09684 -6.6525256,268.29672 C 10.859454,275.58698 32.405224,277.15611 50.338584,272.44726 z M -20.741216,231.21285 C -23.246176,229.99736 -26.161416,225.32221 -26.161416,222.5205 C -26.161416,221.38561 -27.023036,220.21871 -28.117496,219.87134 C -31.642866,218.75243 -35.161416,213.52959 -35.161416,209.41553 C -35.161416,204.20417 -32.174866,200.67511 -26.880286,199.63009 L -22.661416,198.79739 L -22.379856,187.09715 L -22.098286,175.39692 L -25.476046,171.71115 C -29.430516,167.39607 -31.644926,167.65132 -32.665276,172.53983 C -33.519566,176.6327 -35.796946,180.36084 -37.434466,180.34712 C -39.106626,180.3331 -39.672546,157.6782 -38.049586,155.72265 C -35.765686,152.97072 -27.536226,154.791 -24.225276,158.78045 C -21.787666,161.71759 -21.161426,159.21434 -21.165156,146.54838 C -21.168336,135.74632 -21.458046,133.38317 -23.111646,130.67122 C -26.802946,124.61736 -32.161416,123.79299 -32.161416,129.27896 C -32.161416,133.44332 -34.146766,137.3574 -36.259056,137.3574 C -37.734046,137.3574 -37.938366,136.75777 -37.462536,133.82555 C -37.147306,131.88304 -37.465226,126.92738 -38.169016,122.81298 C -39.342616,115.95203 -39.299616,115.1676 -37.650036,113.34483 C -35.109756,110.53785 -31.173366,110.87563 -26.061896,114.3392 C -23.641636,115.97919 -21.323916,117.32919 -20.911416,117.3392 C -20.498916,117.34921 -20.161416,112.9384 -20.161416,107.5374 C -20.161416,97.719319 -20.162116,97.716579 -23.739336,93.537399 C -28.849446,87.567389 -32.161416,88.144489 -32.161416,95.004929 C -32.161416,98.312049 -33.875586,101.3574 -35.737106,101.3574 C -36.838946,101.3574 -37.198686,100.35224 -37.079236,97.607399 C -36.989476,95.544899 -37.259006,90.362189 -37.678206,86.090269 C -38.339816,79.347979 -38.203606,78.061509 -36.645916,76.340269 C -35.658956,75.249689 -34.228256,74.357399 -33.466586,74.357399 C -31.494056,74.357399 -24.769676,77.919559 -23.222076,79.784309 C -20.483816,83.083709 -19.350916,81.562889 -18.620766,73.607399 C -17.717406,63.764769 -14.835536,54.311999 -11.546476,50.403179 C -8.7133856,47.036239 -5.4363356,46.160969 -6.6950156,49.107399 C -9.9247556,56.667819 -10.160846,61.003719 -10.028456,110.32533 C -9.9553156,137.56797 -9.6178156,168.62578 -9.2784556,179.34268 L -8.6614156,198.82796 L -4.8896656,199.4388 C 5.6507844,201.14583 7.6402944,213.73676 -1.7545656,219.27986 C -3.9378856,220.56805 -5.1614156,222.05625 -5.1614156,223.42367 C -5.1614156,224.59722 -6.6914156,227.0874 -8.5614156,228.9574 C -12.147956,232.54394 -16.382136,233.32802 -20.741216,231.21285 z M -11.767396,224.1074 C -10.268276,221.71319 -12.096366,218.94944 -15.445016,218.54747 C -18.770716,218.14825 -20.775266,221.3419 -19.129346,224.41733 C -17.791376,226.91734 -13.411356,226.73295 -11.767396,224.1074 z M -22.207096,212.91244 C -20.607116,210.98458 -21.241476,207.3249 -23.411416,205.96464 C -27.328916,203.5089 -31.315026,210.30948 -27.565256,213.05137 C -25.250956,214.74363 -23.693326,214.70324 -22.207096,212.91244 z M -4.2133256,213.38518 C -1.4882356,211.92676 -0.88752561,209.31753 -2.7922956,207.21278 C -4.7189256,205.08388 -7.2219756,204.81796 -8.9614156,206.5574 C -10.622286,208.21827 -10.461506,210.91445 -8.5899856,212.78597 C -6.7426356,214.63333 -6.5856656,214.65482 -4.2133256,213.38518 z M 29.027654,229.86304 C 27.248844,228.36627 25.800444,225.96765 25.406084,223.86553 C 24.936064,221.36011 23.912054,219.92964 21.810664,218.84296 C 18.646304,217.20661 15.838584,212.74705 15.838584,209.3574 C 15.838584,203.97215 20.181794,199.94342 26.838584,199.15391 C 29.305754,198.86129 29.342354,198.72014 29.625804,188.40437 C 29.932934,177.2271 29.153644,173.94147 25.347394,170.36567 C 21.845084,167.07543 19.529544,168.06302 18.648724,173.22269 C 17.250824,181.4113 12.848874,183.47567 13.563704,175.6074 C 13.801054,172.9949 13.548574,168.1574 13.002634,164.8574 C 11.774064,157.43112 13.210994,154.3574 17.911294,154.3574 C 21.268074,154.3574 25.789104,156.38793 27.783864,158.79146 C 28.498644,159.65273 29.478374,160.3574 29.961024,160.3574 C 30.443684,160.3574 30.838584,154.00446 30.838584,146.23975 L 30.838584,132.12211 L 26.835964,128.11948 C 22.151014,123.43454 20.420874,123.9794 19.558164,130.41144 C 19.261284,132.62486 18.472824,135.09319 17.806034,135.89662 C 15.318004,138.89451 14.339524,137.4364 14.257114,130.60815 C 14.212314,126.89524 13.987314,121.68025 13.757114,119.0193 C 13.396304,114.84845 13.668124,113.91432 15.727964,112.24615 C 18.571104,109.9436 20.660724,110.36661 26.648774,114.45687 C 29.019374,116.07616 31.381874,117.13966 31.898774,116.8202 C 32.415674,116.50074 32.838584,112.28344 32.838584,107.44842 C 32.838584,99.288329 32.625554,98.363389 29.869964,94.559419 C 24.597764,87.281359 21.636454,87.061869 20.398214,93.857399 C 19.631524,98.065009 17.174194,101.68285 15.701264,100.77253 C 15.222754,100.4768 15.110524,99.122089 15.451864,97.762069 C 15.793214,96.402049 15.515474,91.708649 14.834674,87.332279 C 13.738544,80.285989 13.785024,79.088089 15.240774,76.866329 C 16.144934,75.486419 17.796664,74.357399 18.911294,74.357399 C 21.447924,74.357399 26.614934,76.929239 29.641254,79.698169 C 31.603194,81.493239 32.081834,81.586909 32.875944,80.331199 C 33.388554,79.520609 33.814854,77.424319 33.823274,75.672779 C 33.845904,70.964899 36.587994,58.753519 38.449984,55.068519 C 40.533864,50.944389 43.819334,47.357399 45.512894,47.357399 C 47.166804,47.357399 47.242094,46.865619 44.594264,53.357399 L 42.350944,58.857399 L 42.344764,128.8397 L 42.338584,198.822 L 46.110334,199.43582 C 56.793504,201.1744 58.910854,213.57712 49.474934,219.14445 C 47.192014,220.4914 45.812114,222.20141 45.364864,224.23776 C 44.994534,225.92383 43.340104,228.4405 41.688344,229.83037 C 37.738054,233.15432 32.953794,233.16666 29.027654,229.86304 z M 38.827804,224.87039 C 40.358634,223.02585 39.404814,218.78866 37.274774,217.97129 C 34.641314,216.96073 31.838584,219.15429 31.838584,222.22592 C 31.838584,223.7649 32.138584,225.32407 32.505254,225.69073 C 33.705434,226.89091 37.566714,226.38991 38.827804,224.87039 z M 30.671164,209.93988 C 31.502444,205.74429 24.871894,203.55813 22.838584,207.3574 C 21.668114,209.54444 22.829444,212.81261 25.077124,213.65698 C 26.796114,214.30274 30.263194,211.99896 30.671164,209.93988 z M 48.342264,212.35334 C 49.840834,210.69743 49.958344,209.91567 49.018684,207.85334 C 47.616894,204.77673 43.397244,204.44502 41.873764,207.29166 C 40.467374,209.91954 40.567284,210.94324 42.410014,212.78597 C 44.510184,214.88614 46.158924,214.7659 48.342264,212.35334 z M 80.137614,230.8543 C 78.957334,230.02759 77.439834,227.66509 76.765404,225.6043 C 76.087344,223.53243 73.532464,219.98031 71.050344,217.65851 C 66.775064,213.65936 66.588964,213.2551 67.138224,209.16008 C 67.791244,204.29144 71.444464,200.3574 75.312564,200.3574 C 80.665444,200.3574 80.838584,199.96643 80.838584,187.87902 L 80.838584,176.61462 L 77.018534,172.30996 C 72.417174,167.12487 70.362964,167.4112 69.566584,173.34866 C 69.008714,177.50791 66.283744,181.75056 64.770784,180.8155 C 64.330504,180.54339 64.212144,178.8303 64.507754,177.00864 C 64.803374,175.18697 64.535534,170.41139 63.912554,166.39623 C 62.945864,160.16572 63.007364,158.74875 64.332284,156.72667 C 66.733814,153.06147 73.947334,154.16873 77.783864,158.79146 C 78.498644,159.65273 79.703374,160.3574 80.461024,160.3574 C 81.563274,160.3574 81.838584,157.65159 81.838584,146.81868 L 81.838584,133.27995 L 77.989664,129.15371 C 73.792544,124.65417 70.838584,124.45717 70.838584,128.67679 C 70.838584,131.84785 68.872404,137.3574 67.740754,137.3574 C 65.805024,137.3574 65.561354,136.64416 65.349324,130.3574 C 65.228744,126.7824 64.789914,121.99448 64.374144,119.71759 C 63.737174,116.22928 63.950304,115.24568 65.728394,113.46759 C 68.754604,110.44138 72.021964,110.85099 77.360254,114.9258 C 79.931424,116.88842 82.296874,118.23244 82.616814,117.91251 C 82.936744,117.59257 83.394824,113.59057 83.634764,109.01917 C 84.120954,99.755999 83.178514,96.911989 77.987554,91.977499 C 74.659044,88.813439 71.838584,88.988029 71.838584,92.358129 C 71.838584,95.872719 69.050934,101.3574 67.264614,101.3574 C 65.929074,101.3574 65.712684,100.73691 66.199434,98.303129 C 66.535404,96.623289 66.312504,91.901949 65.704084,87.811279 C 64.744624,81.360319 64.815884,80.040979 66.241284,77.865549 C 68.485144,74.440989 72.512494,74.614159 77.679884,78.357399 C 83.925914,82.881999 84.007264,82.812939 85.335654,71.857399 C 86.809394,59.703169 91.861034,48.357399 95.798914,48.357399 C 97.678634,48.357399 97.671744,48.512839 95.544104,54.107399 C 93.371754,59.819509 93.357284,60.314279 93.347964,129.19915 L 93.338584,198.54089 L 98.338584,200.19915 C 108.71271,203.63973 109.42541,214.89986 99.590944,219.98546 C 97.678944,220.97419 96.838584,222.18771 96.838584,223.96 C 96.838584,225.44646 95.618614,227.73122 93.915504,229.43432 C 91.579794,231.77004 90.117454,232.3574 86.638014,232.3574 C 84.243084,232.3574 81.317904,231.681 80.137614,230.8543 z M 89.792904,225.91244 C 92.637164,222.48532 88.714374,216.69176 85.088584,218.96464 C 81.520244,221.20151 82.803834,227.3574 86.838584,227.3574 C 87.803894,227.3574 89.133334,226.70717 89.792904,225.91244 z M 80.798714,212.90544 C 82.427944,210.94234 81.783994,208.39158 79.232224,206.70028 C 77.379454,205.47228 76.841994,205.53405 74.768184,207.21333 C 72.683574,208.90134 72.548634,209.42561 73.603104,211.73993 C 74.947384,214.6903 78.799574,215.31426 80.798714,212.90544 z M 98.904324,213.32222 C 101.60123,211.87887 101.31677,208.71683 98.312964,206.74865 C 95.947904,205.19901 95.661824,205.20739 93.812964,206.88059 C 89.225824,211.03189 93.374984,216.28143 98.904324,213.32222 z "
         id="path1904" />
    </g>
  </g>
</svg>
