<?xml version="1.0" encoding="UTF-8"?>
<svg width="203mm" height="242.649mm" version="1.1" viewBox="0 0 203 242.649" xmlns="http://www.w3.org/2000/svg">
 <title>Wappen von Dreifelden</title>
 <g transform="translate(-3.58258 -27.1757)">
  <g>
   <path d="m5.08263 28.6758 3.17e-4 139.766c6.01e-5 26.4903 10.5358 51.8959 29.2893 70.6275 18.7535 18.7316 44.1887 29.255 70.7103 29.2551 26.5216 8e-5 51.957-10.5233 70.7107-29.2549 18.7536-18.7316 29.2894-44.1373 29.2894-70.6277l1e-5 -139.766z" fill="#0066b3"/>
   <path d="m5.08263 28.9102v139.766c1.34202e-5 5.91524 0.529042 11.7755 1.55391 17.5204 68.747-22.8851 98.4457-145.531 98.4457-157.286z" fill="#fd0"/>
   <path d="m205.082 28.6758v139.766c-1.34202e-5 5.91524-0.529042 11.7755-1.55391 17.5204-68.747-22.8851-98.4457-145.531-98.4457-157.286z" fill="#fd0"/>
   <path d="m31.1007 28.6758-26.0181 27.1642v25.7865l50.7163-52.9508zm49.3903 0-75.4083 78.7311v25.786l99.9954-104.401c4.91854e-4 -0.0356497 0.00413411-0.082453 0.00413411-0.116272zm16.4238 34.4987-91.8321 95.8784v9.38857c1.16025e-5 5.11402 0.396942 10.1867 1.16634 15.1794l73.7914-77.0423c7.23683-15.2997 12.829-30.4959 16.8744-43.4041z" fill="#ed1c24" stroke="#000" stroke-width="1.5"/>
   <path d="m179.114 28.6758 26.0181 27.1642v25.7865l-50.7163-52.9508zm-49.3903 0 75.4083 78.7311v25.786l-99.9954-104.401c-4.91854e-4 -0.0356497-0.00413411-0.082453-0.00413411-0.116272zm-16.4238 34.4987 91.8321 95.8784v9.38857c-1.16025e-5 5.11402-0.396942 10.1867-1.16634 15.1794l-73.7914-77.0423c-7.23683-15.2997-12.829-30.4959-16.8744-43.4041z" fill="#ed1c24" stroke="#000" stroke-width="1.5"/>
  </g>
  <g fill="#fff" stroke="#000">
   <path d="m201.84 195.388c-4.78405 4.13541-13.9525 9.13342-21.6958 9.41564-8.0762 0.294354-15.3751-6.67404-31.0356-7.34857-16.8703-0.726644-28.4004 12.153-43.7267 11.9471-13.9691-0.187625-26.3111-11.6484-40.2783-11.9471-11.7754-0.251834-22.7371 8.80384-34.484 7.92225-7.30488-0.548224-12.5211-2.67805-20.5316-8.07705l2.1784 6.6383c0.00135466 0.00367155 0.00747041 0.00544905 0.00881943 0.00909147 1.34687 3.65624 2.89094 7.21226 4.61256 10.6541 3.91044 3.21468 10.1926 5.73383 14.8431 5.70948 11.9559-0.0625708 21.1661-8.43739 32.3761-8.04063 14.4183 0.510314 26.8482 12.7237 41.2749 12.7484 15.5771 0.0266625 28.1508-12.723 43.7267-12.5208 15.126 0.196329 19.3598 6.265 29.254 6.54724 5.44903 0.155438 11.9124-1.41002 16.5629-5.10849 0.337483-0.686653 0.673643-1.38074 0.996595-2.07618z" stroke-width="1.5"/>
   <g stroke-width=".5">
    <path d="m107.739 230.678c-5.18868 0.0114253-9.17258 1.14442-12.4595 2.76046 6.3935 0.823104 13.2504 2.15987 19.651 3.22329 0.823491-1.55869 1.68243-3.13366 2.93839-4.79361-3.82562-0.841863-7.17492-1.19665-10.1299-1.19014z" stroke-linejoin="round"/>
    <path d="m127.919 247.389c-1.69958 0.400269-3.36272 1.04416-4.98555 1.77694-0.812854 0.367038-1.60623 0.71012-2.3913 1.0331 4.76147 3.02451 9.73243 4.418 11.6124-0.157032-1.74275-0.814471-3.06076-1.67226-4.23551-2.65301z"/>
    <path d="m65.3002 239.343c0.0414035-2.64378 2.9488-1.76923 3.72249 0.0471506 10.5548-4.5166 17.9619-7.0096 26.1108-5.969 11.7902 1.50558 25.2027 4.7838 34.378 4.87413 6.84649 0.0673988 10.4021-2.22197 14.1834-5.21309 1.17311 3.32232 1.21195 5.99025-1.21203 9.5566 2.85732 3.713 3.46708 6.86095 0.738083 10.1869-7.501-7.88573-14.1443-6.43422-20.285-3.66142-10.3811 4.68753-18.3519 5.67845-27.5999 5.62705-7.05931-0.0392401-17.5274-2.06485-21.3404-5.30726-0.0246789 1.75825 1.58174 4.12232 3.08164 5.67863-3.06062-0.639043-5.31434-4.30219-6.24004-7.04254-1.95424-0.667315-3.88206-1.51226-5.38102-3.30504-0.909514-1.0878 0.654734-2.50911 2.25093-1.642-1.09188-1.10842-2.42757-2.51979-2.40705-3.83014z"/>
   </g>
  </g>
  <path d="m69.0826 239.543c0.627951 1.54947 3.41127 4.9895 6.86621 7.00718 1.76426 1.03033 0.975444 2.3718-2.0755 2.86789" fill="none" stroke="#000" stroke-width=".5"/>
  <path d="m67.8358 242.952c1.70463 1.54613 3.12752 2.62548 5.81069 3.87264 0.327634 0.152287 0.200331 0.286659-0.0152196 0.217531-2.33891-0.750138-4.54772-2.44449-6.10046-3.69604z" stroke-width="0"/>
  <g stroke="#000">
   <ellipse cx="79.9335" cy="240.478" rx="2.7894" ry="2.62527" fill="none" stroke-width=".5"/>
   <ellipse cx="79.9335" cy="240.465" rx="1.25321" ry="1.19904" stroke-width=".25"/>
   <g stroke-width=".5">
    <path d="m103.883 234.768c1.55096 1.32459 2.00732 2.48479 2.02882 3.58405 0.0449388 2.29701-2.2407 3.69403-4.18438 3.79102 2.81474-0.196574 4.09623 0.693263 4.10914 2.80675 0.0146831 2.40155-1.75919 4.07096-4.31447 4.12334 2.09245-0.0106319 4.02154 0.186812 3.61902 3.35431" fill="none" stroke-linecap="round"/>
    <path d="m88.9425 235.311c1.82799 2.77372 3.3844 7.50171 1.67617 10.9325" fill="none" stroke-linecap="round"/>
    <path d="m88.6757 245.557c3.47179 1.54816 6.94357 3.4099 10.4154 6.28528-2.61847 2.68561-6.0178 5.2628-8.69238 3.42449-1.84178-1.2659-2.47275-2.87164-4.27747-4.8104" fill="#fff" stroke-linejoin="round"/>
   </g>
  </g>
  <g fill="none" stroke="#000" stroke-linecap="round">
   <path d="m87.0368 236.346c4.41554 8.95465 0.404977 14.9404-5.45116 16.4301" stroke-width=".5"/>
   <g stroke-width=".25">
    <path d="m86.9224 249.662c1.4976 1.05479 2.82116 2.1668 4.57284 3.47141"/>
    <path d="m87.6847 248.52c1.61194 0.983394 3.43099 2.18465 5.1255 3.40001"/>
    <path d="m88.3326 247.306c1.72628 0.911997 4.11704 2.48809 5.7925 3.8284"/>
    <path d="m114.03 233.833c-0.513239 0.82902-0.915924 1.64078-1.21356 2.43614"/>
    <path d="m112.13 233.555c-0.55305 0.816661-0.890542 1.59532-1.15966 2.38566"/>
    <path d="m109.813 233.189c-0.399858 0.686318-0.764298 1.47215-1.09228 2.36041"/>
    <path d="m107.468 232.874c-0.473728 0.71039-0.825165 1.36815-1.14619 2.2342"/>
    <path d="m105.366 232.874c-0.372485 0.607009-0.601999 1.20417-0.836254 1.93129"/>
    <path d="m102.832 232.823c-0.379863 0.444236-0.642792 0.891389-0.890155 1.5274"/>
    <path d="m100.353 232.798c-0.326699 0.353174-0.526793 0.75378-0.674547 1.174"/>
   </g>
   <g stroke-width=".5">
    <path d="m94.5802 233.458c0.711687 0.629281-0.352942 3.85184-4.00382 4.89641 3.36023-0.289055 7.56604 4.74129 0.972394 8.48145"/>
    <path d="m94.7958 234.468c5.79692 2.30081 3.56458 5.81996 0.385206 7.80158l-0.0418694 0.672977c2.82688 0.811906 3.58145 4.28222 0.371392 6.14021"/>
    <path d="m102.126 234.493c0.503102 1.83347-1.6158 3.89036-3.60944 4.03275 4.76212 0.766956 3.89146 7.59804-0.701864 7.41812 2.39654 0.0470501 3.52538 0.356234 3.64771 2.3436 0.0812399 1.31982-0.622795 2.41451-2.45224 3.46438 0.840969-0.405472 1.90196 0.829142 2.10573 1.40742"/>
    <path d="m131.532 243.282c0.745472 0.602048 1.34045 1.13758 1.65801 2.14474"/>
    <path d="m109.62 235.821c-0.76004 1.41533-1.87483 2.3987-3.64911 2.57907 2.52001-0.1105 3.58152 1.53067 3.47598 3.39496-0.101234 1.78827-1.27171 3.79894-3.46945 3.87647 4.5089-0.03403 4.44906 6.30958-0.83546 6.7737"/>
    <path d="m113.66 236.607c0.493084 1.78526-2.39802 4.48336-4.09944 4.65274 2.20827 0.517128 3.33492 2.22963 3.28883 4.02157-0.0460005 1.78869-1.26077 3.65731-3.43084 3.64152 3.01939-0.145739 4.7416 2.333 3.99408 3.64793"/>
    <path d="m114.841 237.57c3.14581 2.22727 0.659455 6.4902-1.94159 6.67469 2.2526-0.113195 3.66795 1.63947 3.75215 3.34209 0.0759201 1.53522-1.00897 2.64388-3.04889 3.80505"/>
    <path d="m119.27 239.192c-0.473016 0.640352-1.26266 1.27759-2.78671 1.16489 4.94946 0.838076 3.68217 5.71274 0.132975 6.38133 1.05481 0.0846716 2.09795 0.757768 2.93726 1.91898"/>
    <path d="m122.558 239.596c0.37556 1.42651-1.0897 3.29191-2.75531 3.61693 2.19525-0.438573 4.39712 3.06155 1.69129 6.47935"/>
    <path d="m126.209 239.622c-0.439468 1.36051-1.23723 2.2633-3.61535 1.11316 1.9248 0.89662 3.48189 1.91057 3.05326 3.44663-0.191705 0.687018-1.16894 1.90493-2.81504 2.27979 1.67932-0.401914 2.04409-0.552559 2.73084 0.202294"/>
   </g>
   <g stroke-width=".25">
    <path d="m123.308 249.162c0.715101 0.741826 1.53991 1.38002 2.55973 1.88281"/>
    <path d="m125.08 248.395c0.571311 0.684569 1.21386 1.26905 1.98802 1.66862"/>
    <path d="m126.452 247.895c0.412222 0.505195 0.896497 0.942903 1.5116 1.25808"/>
   </g>
   <path d="m129.096 239.641c0.424474 1.35634-1.21001 3.56869-3.22811 3.82688 2.3267-0.321927 3.20191 1.87166 2.75205 2.71237" stroke-width=".5"/>
   <path d="m129.215 240.581c2.96493 1.68736 3.21374 3.26804-0.390251 5.04768" stroke-width=".5"/>
   <path d="m133.581 239.899c-0.218358 1.0381-0.950065 2.08141-2.1151 2.54862" stroke-width=".484148"/>
   <g stroke-width=".25">
    <path d="m135.697 245.699c2.38526 0.385919 4.50747 1.335 6.38968 2.7979"/>
    <path d="m136.478 244.109c1.69428 0.157817 3.66207 0.740069 5.31165 1.56099"/>
    <path d="m135.373 242.569 4.74569 0.0211844"/>
    <path d="m136.451 240.979c2.01456-0.282557 3.74554-0.697923 5.04214-1.31671"/>
    <path d="m136.047 239.54c2.16173-0.448097 4.01018-1.38526 5.74286-2.50313"/>
   </g>
  </g>
  <g fill="#fff" stroke="#000" stroke-linejoin="round">
   <path d="m85.2227 195.34-20.4829-5.57933v-26.6384l20.196-20.5048 39.2968-0.665756 21.1928 20.3415v26.6821l-21.4226 7.58551"/>
   <path d="m124.919 118.156v79.9273l-39.6737-2.23703e-4v-79.9271" stroke-linecap="round"/>
   <path d="m81.3873 118.734 9.79089-12.8429 13.9134-42.3416 13.9134 42.3416 9.79089 12.8429z"/>
  </g>
  <g fill="none" stroke="#000">
   <g stroke-linejoin="round">
    <path d="m105.092 63.5499v-10.9567" stroke-linecap="round"/>
    <path d="m81.4875 118.734 16.905-11.4382 6.69903-43.7463" stroke-linecap="round" stroke-width=".5"/>
    <path d="m105.092 63.5499 6.69903 43.7463 16.905 11.4382" stroke-width=".5"/>
   </g>
   <path d="m102.538 55.8888h5.10801" stroke-linecap="round"/>
  </g>
  <path d="m90.6629 189.04v9.04234c9.27558 4.90081 19.5818 4.95734 28.8574 0v-19.147l-14.4287-15.0503-14.4287 15.0503v10.1047" fill="#fff" stroke="#000"/>
  <path d="m90.6629 178.936c9.14881 1.46736 19.4566 1.51069 28.8574 0" fill="none" stroke="#000"/>
  <g stroke="#000" stroke-linecap="round">
   <ellipse cx="105.092" cy="188.969" rx="3.86482" ry="3.76258" stroke-linejoin="round"/>
   <rect x="104.091" y="137.497" width="2.11751" height="5.33423" stroke-width=".38249"/>
   <rect x="104.115" y="151.68" width="2.06866" height="6.94412" stroke-width=".431345"/>
  </g>
  <g fill="none" stroke="#000">
   <path d="m91.1802 105.693 7.26761 1.61204 13.4595 0.111631 7.26761-1.66786" stroke-width=".5"/>
   <rect x="97.9481" y="123.679" width="4.70685" height="6.13422" stroke-linecap="round" stroke-width=".7"/>
   <rect x="107.57" y="123.679" width="4.70685" height="6.13422" stroke-linecap="round" stroke-width=".7"/>
   <path d="m5.08263 28.6758 3.17e-4 139.766c6.01e-5 26.4903 10.5358 51.8959 29.2893 70.6275 18.7535 18.7316 44.1887 29.255 70.7103 29.2551 26.5216 8e-5 51.957-10.5233 70.7107-29.2549 18.7536-18.7316 29.2894-44.1373 29.2894-70.6277l1e-5 -139.766z" stroke-linecap="square" stroke-miterlimit="8" stroke-width="3.00011"/>
   <path d="m203.528 185.962c-68.747-22.8851-98.4457-145.531-98.4458-157.286-1.0376e-4 11.7551-29.6987 134.401-98.4458 157.286" stroke-width="2"/>
  </g>
 </g>
</svg>
