<svg xmlns="http://www.w3.org/2000/svg" height="580" width="530"><path style="fill:none;fill-opacity:1;stroke:none;stroke-width:10;stroke-linecap:round;stroke-linejoin:round;stroke-miterlimit:4;stroke-dasharray:none;stroke-opacity:1" d="M6.32 6.454V325.37c0 138.214 120.612 248.176 258.68 248.176S523.68 463.584 523.68 325.37V6.454Z"/><path d="M6.32 6.454V325.37c0 138.214 120.612 248.176 258.68 248.176S523.68 463.584 523.68 325.37V6.454Z" style="fill:#da251d;fill-opacity:1;stroke:none;stroke-width:10;stroke-linecap:round;stroke-linejoin:round;stroke-miterlimit:4;stroke-dasharray:none;stroke-opacity:1"/><path style="fill:#000;stroke:#000;stroke-width:3;stroke-linecap:round;stroke-linejoin:round;stroke-miterlimit:4;stroke-dasharray:none;stroke-opacity:1" d="m245.931 427.58 5.153-148.954 25.688 1.448 9.768 147.25z" transform="translate(.38)"/><path d="M275.299 286.107c7.517 21.347 19.637 30.931 33.256 36.684-5.383-6.617-12.512-22.84-19.165-36.443 13.576 23.51 33.52 35.876 55.22 45.17-9.452-12.339-19.609-25.03-34.447-40.06 20.161 21.27 44.942 35.035 70.495 47.544-11.472-9.218-23.4-21.176-35.551-34.476 21.422 17.9 43.849 25.76 66.628 30.09-10.4-8.557-18.69-15.895-44.833-32.305 24.868 13.546 48.495 18.402 72.022 22.563-29.66-16.914-57.256-30.834-86.181-52.572-24.87-18.69-48.983-39.14-66.05-62.465 17.525 26.594 42.299 36.711 67.156 46.64-13.18-9.22-25.58-23.895-38.11-37.67 24.008 19.795 48.015 27.992 72.023 30.09-15.204-8.14-30.48-15.955-44.358-30.054 21.021 12.014 40.72 15.424 60.408 18.777-22.005-12.318-42.447-23.554-64.221-39.018-20.09-14.269-39.141-32.37-53.38-54.714 14.43 19.922 31.178 31.737 48.305 42.225-6.075-4.32-12.706-14.768-19.456-26.516 15.98 12.31 33.07 17.971 50.402 22.175-13.758-8.14-27.658-16.027-38.101-30.135 16.072 10.931 33.614 13.046 51.002 16.087-35.679-20.255-71.794-39.708-99.527-74.53 13.814 11.348 28.414 18.758 43.591 23.287-9.726-5.943-20.887-18.34-31.933-30.222 14.046 11.008 29.46 13.812 44.834 16.854-30.446-18.32-53.64-40.245-70.707-76.824-17.068 36.579-40.261 58.504-70.707 76.824 15.373-3.042 30.787-5.846 44.833-16.854-11.046 11.881-22.207 24.279-31.933 30.222 15.177-4.529 29.777-11.94 43.59-23.286-27.732 34.82-63.847 54.274-99.526 74.529 17.388-3.041 34.93-5.156 51.002-16.087-10.443 14.108-24.343 21.994-38.101 30.135 17.332-4.204 34.421-9.865 50.402-22.175-6.75 11.748-13.381 22.197-19.456 26.516 17.127-10.488 33.874-22.303 48.306-42.225-14.24 22.344-33.29 40.445-53.38 54.714-21.775 15.464-42.217 26.7-64.222 39.018 19.689-3.353 39.387-6.763 60.408-18.777-13.879 14.1-29.154 21.914-44.358 30.054 24.008-2.098 48.015-10.295 72.023-30.09-12.53 13.775-24.93 28.45-38.11 37.67 24.858-9.929 49.632-20.046 67.156-46.64-17.066 23.324-41.18 43.774-66.05 62.465-28.925 21.738-56.52 35.658-86.181 52.572 23.527-4.16 47.154-9.017 72.022-22.563-26.143 16.41-34.434 23.748-44.833 32.306 22.78-4.33 45.206-12.192 66.628-30.091-12.151 13.3-24.08 25.258-35.55 34.476 25.552-12.51 50.333-26.275 70.495-47.545-14.84 15.032-24.996 27.722-34.448 40.06 21.7-9.293 41.644-21.659 55.22-45.169-6.653 13.604-13.782 29.826-19.165 36.443 13.62-5.753 25.74-15.337 33.256-36.684.405 18.449 2.332 35.5 10.679 46.514 8.346-11.013 10.273-28.065 10.678-46.514z" style="fill:#fff;stroke:#000;stroke-width:4;stroke-linecap:round;stroke-linejoin:round;stroke-miterlimit:4;stroke-dasharray:none;stroke-opacity:1" transform="translate(.38)"/><path style="fill:none;stroke:#000;stroke-width:5;stroke-linecap:round;stroke-linejoin:round;stroke-miterlimit:4;stroke-dasharray:none;stroke-opacity:1" d="M335.673 259.642c-18.075-4.137-36.657-12.515-52.027-29.496 11.678 16.149 23.29 32.462 37.626 41.968-26.512-5.69-41.943-14.137-51.312-38.968 5.41 22.842.9 39.07-5.128 53.802-6.028-14.733-10.538-30.96-5.127-53.802-9.37 24.83-24.8 33.278-51.312 38.968 14.335-9.506 25.948-25.82 37.626-41.968-15.37 16.981-33.953 25.359-52.027 29.496m113.662-88.952c3.938 4.739 7.467 10.704 10.724 17.488-11.332-6.042-22.896-11.388-32.923-21.346l20.26 32.562c-13.644-6.532-26.482-15.079-34.732-35.094 7.427 20.466.767 37.09-6.15 53.545-6.918-16.455-13.579-33.079-6.151-53.545-8.25 20.015-21.088 28.562-34.732 35.094l20.26-32.562c-10.027 9.958-21.59 15.304-32.923 21.346 3.257-6.784 6.786-12.75 10.724-17.488m85.565-47.758c-8.142-2.396-15.172-5.146-24.654-12.901 6.9 7.412 12.38 15.061 15.195 23.155-9.526-5.792-18.896-11.946-26.41-22.431 4.713 18.215.636 32.035-6.875 44.138-7.51-12.103-11.587-25.923-6.874-44.138-7.514 10.485-16.884 16.64-26.41 22.43 2.815-8.093 8.295-15.742 15.195-23.154-9.482 7.755-17.712 10.505-25.854 12.9" transform="translate(.38)"/><path style="fill:#fff;stroke:#000;stroke-width:1px;stroke-linecap:butt;stroke-linejoin:miter;stroke-opacity:1" d="m278.76 422.879-3.49-69.285c-.84-16.67-21.897-11.354-22.514-.512l-3.742 70.612c9.562-2.387 19.5-2.52 29.745-.815z" transform="translate(.38)"/><path style="fill:#00973f;fill-opacity:1;stroke:#000;stroke-width:4;stroke-linecap:round;stroke-linejoin:round;stroke-miterlimit:4;stroke-dasharray:none;stroke-opacity:1" d="M374.915 549.59c51.002-54.408-30.858-109.551-58.54-52.079 13.383-29.58-4.742-75.976-51.375-75.976s-64.758 46.395-51.375 75.976c-27.682-57.472-109.542-2.33-58.54 52.08 36.18 15.521 72.58 23.955 109.915 23.955 37.334 0 73.735-8.434 109.915-23.956z"/><path style="fill:none;fill-opacity:1;stroke:#000;stroke-width:10;stroke-linecap:round;stroke-linejoin:round;stroke-miterlimit:4;stroke-dasharray:none;stroke-opacity:1" d="M6.32 6.454V325.37c0 138.214 120.612 248.176 258.68 248.176S523.68 463.584 523.68 325.37V6.454Z"/></svg>