<?xml version="1.0" encoding="UTF-8" standalone="no"?>
<svg
   xmlns:dc="http://purl.org/dc/elements/1.1/"
   xmlns:cc="http://creativecommons.org/ns#"
   xmlns:rdf="http://www.w3.org/1999/02/22-rdf-syntax-ns#"
   xmlns:svg="http://www.w3.org/2000/svg"
   xmlns="http://www.w3.org/2000/svg"
   xmlns:sodipodi="http://sodipodi.sourceforge.net/DTD/sodipodi-0.dtd"
   xmlns:inkscape="http://www.inkscape.org/namespaces/inkscape"
   viewBox="0 0 624.42106 768.40175"
   version="1.1"
   id="svg979"
   sodipodi:docname="Wappen_von_Dürrlauingen.svg"
   inkscape:version="0.92.5 (2060ec1f9f, 2020-04-08)"
   width="624.42108"
   height="768.40173">
  <metadata
     id="metadata985">
    <rdf:RDF>
      <cc:Work
         rdf:about="">
        <dc:format>image/svg+xml</dc:format>
        <dc:type
           rdf:resource="http://purl.org/dc/dcmitype/StillImage" />
        <dc:title />
      </cc:Work>
    </rdf:RDF>
  </metadata>
  <defs
     id="defs983">
    <inkscape:path-effect
       effect="spiro"
       id="path-effect1368"
       is_visible="true" />
    <inkscape:path-effect
       effect="spiro"
       id="path-effect1364"
       is_visible="true" />
    <inkscape:path-effect
       effect="spiro"
       id="path-effect1324"
       is_visible="true" />
    <inkscape:path-effect
       effect="spiro"
       id="path-effect1320"
       is_visible="true" />
    <inkscape:path-effect
       effect="spiro"
       id="path-effect1280"
       is_visible="true" />
    <inkscape:path-effect
       effect="spiro"
       id="path-effect1208"
       is_visible="true" />
    <inkscape:path-effect
       effect="spiro"
       id="path-effect1168"
       is_visible="true" />
    <inkscape:path-effect
       effect="spiro"
       id="path-effect3377"
       is_visible="true" />
    <inkscape:path-effect
       effect="spiro"
       id="path-effect3377-3"
       is_visible="true" />
    <inkscape:path-effect
       effect="spiro"
       id="path-effect1168-6"
       is_visible="true" />
    <inkscape:path-effect
       effect="spiro"
       id="path-effect1208-8"
       is_visible="true" />
    <inkscape:path-effect
       effect="spiro"
       id="path-effect1280-5"
       is_visible="true" />
  </defs>
  <sodipodi:namedview
     pagecolor="#ffffff"
     bordercolor="#666666"
     borderopacity="1"
     objecttolerance="10"
     gridtolerance="10"
     guidetolerance="10"
     inkscape:pageopacity="0"
     inkscape:pageshadow="2"
     inkscape:window-width="1920"
     inkscape:window-height="1046"
     id="namedview981"
     showgrid="false"
     inkscape:zoom="1.0320122"
     inkscape:cx="312.21053"
     inkscape:cy="384.20086"
     inkscape:window-x="-11"
     inkscape:window-y="-11"
     inkscape:window-maximized="1"
     inkscape:current-layer="svg979"
     inkscape:snap-global="true"
     fit-margin-top="0"
     fit-margin-left="0"
     fit-margin-right="0"
     fit-margin-bottom="0"
     inkscape:snap-midpoints="true"
     inkscape:snap-smooth-nodes="true"
     inkscape:snap-nodes="false" />
  <path
     style="fill:#0f47af;fill-opacity:1;fill-rule:evenodd;stroke:none;stroke-width:8;stroke-linecap:round;stroke-linejoin:round;stroke-miterlimit:4;stroke-dasharray:none;stroke-opacity:1"
     inkscape:connector-curvature="0"
     d="M 620.42107,4.0000025 619.01192,481.51879 C 612.15122,663.87506 476.59833,764.29964 312.21054,764.40175 147.97063,764.17782 12.367009,663.70151 5.4091594,481.51879 L 3.9999994,4.0000025 H 312.20316 Z"
     id="path10563-0-6-2-6-2"
     sodipodi:nodetypes="ccccccc" />
  <path
     inkscape:connector-curvature="0"
     style="fill:#ffffff;stroke:#000000;stroke-width:5;stroke-linecap:round;stroke-linejoin:round;stroke-miterlimit:4;stroke-dasharray:none;stroke-opacity:1"
     d="M 3.99907,4.000006 5.40923,481.51953 c 1.65945,43.45077 10.65173,82.24074 25.58985,116.14453 23.19111,-13.75369 45.98583,-28.1779 68.33203,-43.26562 68.01917,-45.92522 134.06544,-100.5666 169.07813,-174.79492 29.01404,-61.51096 34.2502,-131.21104 37.7207,-199.13282 3.00362,-58.78438 5.02802,-117.618891 6.07227,-176.470694 z"
     id="path3375-4" />
  <path
     inkscape:connector-curvature="0"
     style="fill:#ffffff;stroke:#000000;stroke-width:5;stroke-linecap:round;stroke-linejoin:round;stroke-miterlimit:4;stroke-dasharray:none;stroke-opacity:1"
     d="m 312.20221,4.000006 c 1.04424,58.851804 3.0706,117.686314 6.07422,176.470694 3.47049,67.92178 8.70666,137.62186 37.7207,199.13282 35.01268,74.22832 101.05896,128.8697 169.07812,174.79492 22.37526,15.10734 45.19956,29.5505 68.42188,43.32031 14.91335,-33.91364 23.87988,-72.72153 25.51562,-116.19922 l 1.4082,-477.519524 z"
     id="path3375-0-2" />
  <path
     style="opacity:1;fill:#da121a;fill-opacity:1;fill-rule:evenodd;stroke:#000000;stroke-width:5.00031471;stroke-linecap:round;stroke-linejoin:round;stroke-miterlimit:4;stroke-dasharray:none;stroke-opacity:1;paint-order:markers fill stroke"
     d="M 4.0703125 4 L 4.5058594 151.52539 L 4.5292969 159.5957 L 252.98633 407.97266 C 258.61821 398.83779 263.79158 389.39508 268.41016 379.60352 C 281.74413 351.33495 290.04609 321.33447 295.47266 290.57422 L 8.8125 4 L 4.0703125 4 z M 168.74023 4 L 307.89648 143.11328 C 309.93699 96.763342 311.38003 50.387506 312.20312 4 L 168.74023 4 z M 5.0039062 319.94727 L 5.4707031 477.90234 C 5.5029731 478.74646 5.5562177 479.57527 5.59375 480.41602 L 87.494141 562.29102 C 91.451855 559.67848 95.401782 557.05207 99.332031 554.39844 C 126.80699 535.84788 153.95712 515.87296 178.87305 493.76172 L 5.0039062 319.94727 z "
     id="rect1008-7" />
  <path
     style="fill:none;fill-rule:evenodd;stroke:#090000;stroke-width:8;stroke-linecap:round;stroke-linejoin:round;stroke-miterlimit:4;stroke-dasharray:none;stroke-opacity:1"
     inkscape:connector-curvature="0"
     d="m 620.42107,4 -1.40915,477.51879 C 612.15122,663.87506 476.59833,764.29964 312.21054,764.40175 147.97063,764.17782 12.367009,663.70151 5.4091588,481.51879 L 3.9999988,4 H 312.20316 Z"
     id="path10563-0-6-2-6"
     sodipodi:nodetypes="ccccccc" />
  <path
     style="fill:#fcdd09;stroke:#000000;stroke-width:5;stroke-linecap:round;stroke-linejoin:round;stroke-miterlimit:4;stroke-dasharray:none;stroke-opacity:1;fill-opacity:1"
     d="m 312.21033,411.65973 c -6.15809,1.5e-4 -11.90989,4.10236 -16.61718,8.07269 -7.39233,6.235 -12.77748,14.83439 -16.89649,23.58399 -4.15447,8.82493 -6.39986,18.59648 -7.47461,28.29101 -2.86383,25.83265 -2.75026,52.55354 2.92188,77.91797 2.11698,9.46664 9.01424,17.37299 11.40039,26.77539 4.71797,18.59072 6.81801,38.15332 5.43164,57.2832 -1.00431,13.85805 -8.21894,26.70098 -9.87695,40.4961 -0.86428,7.19108 -0.95777,14.54928 0,21.72851 0.755,5.65931 1.86498,11.45921 4.49023,16.5293 2.60394,5.02894 6.07318,10.00865 10.81836,13.09961 4.58507,2.98666 10.33071,4.44531 15.80273,4.44531 5.47202,0 11.21754,-1.45885 15.80274,-4.44531 4.74566,-3.09097 8.21623,-8.07028 10.82031,-13.09961 2.62512,-5.06997 3.73361,-10.87012 4.48828,-16.5293 0.95738,-7.17928 0.86412,-14.53741 0,-21.72851 -1.65767,-13.795 -8.87101,-26.63818 -9.875,-40.4961 -1.38594,-19.12991 0.71367,-38.69248 5.43164,-57.2832 2.38615,-9.4024 9.28352,-17.30872 11.40039,-26.77539 5.67182,-25.36448 5.78325,-52.08529 2.91993,-77.91797 -1.07454,-9.69439 -3.31854,-19.4661 -7.47266,-28.29101 -4.11873,-8.74973 -9.50401,-17.34916 -16.89648,-23.58399 -4.70784,-3.9706 -10.46047,-8.07283 -16.61915,-8.07269 z"
     id="path1166"
     inkscape:connector-curvature="0"
     sodipodi:nodetypes="aaaaaaaaaaaaaaaaaaaaaaa" />
  <path
     style="fill:#fcdd09;stroke:#000000;stroke-width:5;stroke-linecap:butt;stroke-linejoin:miter;stroke-miterlimit:4;stroke-dasharray:none;stroke-opacity:1;fill-opacity:1"
     d="M 312.21053,436.31085 V 592.15694"
     id="path1189"
     inkscape:connector-curvature="0" />
  <path
     style="fill:#fcdd09;stroke:#000000;stroke-width:5;stroke-linecap:butt;stroke-linejoin:miter;stroke-miterlimit:4;stroke-dasharray:none;stroke-opacity:1;fill-opacity:1"
     d="m 312.21053,655.88767 v 56.30041"
     id="path1189-2"
     inkscape:connector-curvature="0" />
  <path
     style="fill:#fcdd09;fill-opacity:1;stroke:#000000;stroke-width:5;stroke-linecap:round;stroke-linejoin:round;stroke-miterlimit:4;stroke-dasharray:none;stroke-opacity:1"
     d="m 233.73593,522.74219 c -7.05605,0.002 -14.14433,1.02311 -20.64258,3.73047 -11.37954,4.74104 -20.41907,14.74499 -24.07031,26.51953 -2.04442,6.59283 -2.4577,13.55813 -3.16993,20.42383 -0.71222,6.86569 -1.785,13.85161 -4.99023,19.96484 -3.999,7.62716 -11.05667,13.29973 -18.76758,17.13476 -5.64437,2.80725 -11.72045,4.74037 -17.94922,5.71094 6.48267,3.49643 13.84947,5.3391 21.21485,5.30469 6.46165,-0.0302 12.93131,-1.5052 18.69336,-4.42969 5.76204,-2.92449 10.79834,-7.308 14.35156,-12.70508 3.44675,-5.23534 5.44,-11.26496 7.6543,-17.1289 2.21429,-5.86394 4.76977,-11.76794 9.07226,-16.32617 5.78742,-6.13144 14.42043,-9.24043 22.84766,-8.97461 9.28053,0.29273 18.26137,4.50834 24.88476,11.01562 7.55619,7.42372 12.01739,17.49144 14.6875,27.74219 3.14455,12.0721 4.02594,24.70511 2.85547,37.125 -0.92859,9.85335 -3.30145,19.934 -9.38281,27.74219 -6.07838,7.80436 -15.8094,12.73537 -25.70117,12.64843 -5.84989,-0.0514 -11.61127,-1.7772 -16.8125,-4.45507 -5.20124,-2.67788 -9.875,-6.28797 -14.19531,-10.23243 -4.76921,-4.35429 -9.14406,-9.14002 -13.05469,-14.27929 -2.51536,12.99763 1.19279,27.05842 9.79101,37.125 8.58262,10.0483 21.52618,15.84393 34.67774,17.13476 9.09253,0.89244 18.61005,-0.32171 26.51953,-4.89453 8.11373,-4.6909 13.95607,-12.53331 18.35937,-20.80664 6.45852,-12.13485 10.27939,-25.55977 12.23829,-39.16601 2.76974,-19.23834 1.86376,-38.97907 -2.44727,-57.93164 -3.3354,-14.66344 -8.98317,-29.31641 -19.58398,-39.98243 -11.44631,-11.51671 -27.83569,-17.31357 -44.06055,-17.95117 -1.00489,-0.0395 -2.01153,-0.0588 -3.01953,-0.0586 z m 156.94922,0 c -1.00801,-2.4e-4 -2.01464,0.0191 -3.01954,0.0586 -16.22486,0.6376 -32.61619,6.43446 -44.0625,17.95117 -10.60081,10.66602 -16.24662,25.31899 -19.58203,39.98243 -4.31102,18.95257 -5.21701,38.6933 -2.44726,57.93164 1.95889,13.60624 5.77977,27.03116 12.23828,39.16601 4.4033,8.27333 10.24565,16.11574 18.35937,20.80664 7.90948,4.57282 17.42505,5.78697 26.51758,4.89453 13.15156,-1.29083 26.09512,-7.08646 34.67774,-17.13476 8.59822,-10.06658 12.30637,-24.12737 9.79101,-37.125 -3.91063,5.13927 -8.28548,9.925 -13.05469,14.27929 -4.32031,3.94446 -8.99407,7.55455 -14.19531,10.23243 -5.20123,2.67787 -10.96065,4.40366 -16.81054,4.45507 -9.89178,0.0869 -19.62475,-4.84407 -25.70313,-12.64843 -6.08136,-7.80819 -8.45422,-17.88884 -9.38281,-27.74219 -1.17047,-12.41989 -0.28907,-25.0529 2.85547,-37.125 2.67011,-10.25075 7.13131,-20.31847 14.6875,-27.74219 6.62339,-6.50728 15.60618,-10.72289 24.88672,-11.01562 8.42722,-0.26582 17.05828,2.84317 22.8457,8.97461 4.30249,4.55823 6.85992,10.46223 9.07422,16.32617 2.21429,5.86394 4.20755,11.89356 7.65429,17.1289 3.55323,5.39708 8.58952,9.78059 14.35157,12.70508 5.76204,2.92449 12.23171,4.3995 18.69336,4.42969 7.36537,0.0344 14.73217,-1.80826 21.21484,-5.30469 -6.22876,-0.97057 -12.3068,-2.90369 -17.95117,-5.71094 -7.71091,-3.83503 -14.76662,-9.5076 -18.76563,-17.13476 -3.20523,-6.11323 -4.27996,-13.09915 -4.99218,-19.96484 -0.71223,-6.8657 -1.12356,-13.831 -3.16797,-20.42383 -3.65124,-11.77454 -12.69078,-21.77849 -24.07032,-26.51953 -6.49824,-2.70736 -13.58653,-3.72878 -20.64257,-3.73047 z"
     id="path1206"
     inkscape:connector-curvature="0"
     sodipodi:nodetypes="csccscccscccsscsscsccssssssscccccsssssssccscsssssccsscccccsccc" />
  <rect
     style="opacity:1;fill:#fcdd09;fill-opacity:1;fill-rule:evenodd;stroke:#000000;stroke-width:5;stroke-linecap:round;stroke-linejoin:round;stroke-miterlimit:4;stroke-dasharray:none;stroke-opacity:1;paint-order:markers fill stroke"
     id="rect1229"
     width="95.057953"
     height="24.886417"
     x="264.68155"
     y="609.69983"
     ry="6.527585"
     rx="6.527585" />
  <path
     style="fill:#fcdd09;fill-opacity:1;stroke:#000000;stroke-width:5;stroke-linecap:round;stroke-linejoin:round;stroke-miterlimit:4;stroke-dasharray:none;stroke-opacity:1"
     d="m 484.37334,78.943539 -4.22117,-48.442981 19.09578,19.497797 12.2615,-20.904855 12.26151,21.708888 27.94014,-11.25646 -22.51292,48.040965 -11.45747,-6.030247 z"
     id="path1240-1"
     inkscape:connector-curvature="0" />
  <path
     style="fill:#000000;stroke:#001200;stroke-width:1px;stroke-linecap:round;stroke-linejoin:round;stroke-opacity:1"
     d="M 548.0293 52.570312 C 544.55336 52.546453 541.07422 52.990121 537.7168 53.890625 C 531.23615 55.628819 525.21325 59.094159 520.52734 63.896484 C 517.68104 66.813482 515.32998 70.211432 513.60156 73.902344 C 510.05132 73.139908 506.44789 72.625412 502.82617 72.363281 C 494.27863 71.744631 485.69699 72.534798 477.16992 73.390625 C 467.36467 74.374739 457.46092 75.470716 448.17773 78.777344 C 446.08218 79.523768 444.02705 80.381374 442.02148 81.34375 C 442.61033 84.041913 442.95343 86.792644 443.04688 89.552734 C 443.08907 90.798122 443.08118 92.05054 443.26367 93.283203 C 443.44619 94.515866 443.83198 95.744204 444.58594 96.736328 C 445.32069 97.703172 446.37015 98.39612 447.49023 98.865234 C 448.6103 99.334348 449.80603 99.592942 451 99.814453 C 458.33491 101.17525 465.91686 101.2404 473.08789 103.29688 C 476.68489 104.3284 480.15133 105.85594 483.83984 106.48633 C 485.21929 106.72209 486.62111 106.8293 487.99023 107.11914 C 489.35934 107.40898 490.71896 107.89771 491.79297 108.79492 C 492.31748 109.23309 492.76886 109.76877 493.05664 110.38867 C 493.34442 111.00857 493.46196 111.71574 493.33203 112.38672 C 493.21017 113.01606 492.87398 113.59441 492.42383 114.05078 C 491.97368 114.50716 491.41397 114.84503 490.81836 115.08203 C 489.62715 115.55603 488.32163 115.62753 487.04297 115.7207 C 482.80809 116.02927 478.59212 116.62973 474.34766 116.74805 C 468.44838 116.9125 462.37478 116.16721 456.76758 118.00781 C 455.29207 118.49216 453.8317 119.18189 452.79688 120.33984 C 451.98737 121.24567 451.4764 122.42349 451.41406 123.63672 C 451.35176 124.84995 451.74909 126.08853 452.54102 127.00977 C 453.21916 127.79864 454.15434 128.3355 455.13672 128.67773 C 456.1191 129.01997 457.15265 129.17925 458.18359 129.31836 C 466.75731 130.47524 475.45387 130.23908 484.0957 129.83203 C 493.07601 129.40904 502.10365 128.80585 511.03516 129.83203 C 511.67901 129.90603 512.32485 129.98861 512.94531 130.17578 C 513.56578 130.36295 514.16457 130.66113 514.62695 131.11523 C 514.99077 131.47254 515.26278 131.9205 515.42969 132.40234 C 515.5966 132.88419 515.65971 133.39888 515.63477 133.9082 C 515.58487 134.92685 515.18414 135.90556 514.62695 136.75977 C 513.93053 137.82744 512.99687 138.71702 512.06055 139.58203 C 502.50606 148.40891 491.68673 155.76976 480.50391 162.41406 C 478.13005 163.8245 475.71047 165.21648 473.06445 166.00586 C 470.21804 166.85503 467.20061 166.97894 464.23438 166.82227 C 461.26812 166.66559 458.32283 166.23536 455.36133 166.00586 C 451.90347 165.73789 448.32596 165.76069 445.09961 167.0332 C 442.3069 168.13469 439.9397 170.11617 437.91211 172.33008 C 435.88452 174.54398 434.15293 177.00829 432.27148 179.34766 C 427.74142 184.98023 422.32898 189.88647 416.36523 193.9707 C 415.48134 194.57603 414.58335 195.16659 413.76953 195.86328 C 412.95571 196.55997 412.22334 197.37194 411.74805 198.33203 C 411.11173 199.61741 410.97045 201.08298 410.77539 202.50391 C 410.58033 203.92484 410.29801 205.39406 409.43945 206.54297 C 408.85875 207.32006 408.04012 207.9045 407.14453 208.27734 C 406.24895 208.65019 405.27615 208.81773 404.30664 208.85156 C 400.97177 208.96792 397.74817 207.50922 395.07227 205.51562 C 390.2144 201.89643 386.84699 196.56075 381.98633 192.94531 C 378.13569 190.08115 373.43362 188.40808 368.64648 188.07031 C 363.58643 187.71329 358.55264 188.80488 353.50977 189.35352 C 351.38159 189.58505 349.23755 189.7198 347.13477 190.12109 C 345.03198 190.52239 342.94974 191.20496 341.19531 192.43164 C 338.48762 194.32483 336.75906 197.41294 336.0625 200.64258 C 335.35493 203.92329 335.63414 207.35405 336.40234 210.62109 C 337.17053 213.88814 338.41522 217.02158 339.6543 220.14062 C 343.02705 228.63064 346.44621 237.43882 346.06836 246.56641 C 345.9548 249.30972 345.49935 252.08933 346.06836 254.77539 C 346.78946 258.17941 349.06026 261.01096 351.20117 263.75391 C 352.59954 265.54551 353.97607 267.36451 355.58789 268.9668 C 357.19971 270.56908 359.06803 271.96088 361.20508 272.73438 C 362.00246 273.02297 362.84148 273.22424 363.68945 273.2168 C 364.53743 273.2098 365.39823 272.98269 366.08008 272.47852 C 366.65993 272.04977 367.09164 271.43345 367.34375 270.75781 C 367.59586 270.08217 367.67288 269.34804 367.61914 268.62891 C 367.52034 267.30602 366.96986 266.02103 366.08008 265.03711 C 367.55022 265.55282 368.88821 266.44481 369.92969 267.60352 C 370.7006 268.4612 371.3209 269.46915 372.23828 270.16797 C 372.99756 270.74635 373.93707 271.08288 374.89062 271.125 C 375.84416 271.1671 376.80681 270.9173 377.625 270.42578 C 378.43735 269.93777 379.09913 269.22074 379.59961 268.41602 C 380.1001 267.61129 380.44651 266.71835 380.70508 265.80664 C 380.93103 265.00995 381.09342 264.19105 381.11719 263.36328 C 381.14099 262.53551 381.02289 261.69831 380.70508 260.93359 C 380.20551 259.73136 379.24099 258.7739 378.17578 258.02539 C 377.11057 257.27688 375.93081 256.70849 374.80273 256.05859 C 373.81591 255.49009 372.83241 254.82179 372.26562 253.83398 C 371.98223 253.34008 371.81435 252.77208 371.83789 252.20312 C 371.86149 251.63419 372.08456 251.06551 372.49414 250.66992 C 372.7455 250.42715 373.05836 250.25567 373.38477 250.13086 C 373.71118 250.00605 374.05301 249.92561 374.39453 249.85156 C 375.07758 249.70347 375.79311 249.5613 376.34375 249.13086 C 376.68237 248.86616 376.94026 248.49954 377.07617 248.0918 C 377.21209 247.68406 377.22537 247.23719 377.11328 246.82227 C 375.98322 246.65617 374.86591 246.39863 373.77734 246.05273 C 372.787 245.73805 371.8156 245.34847 370.92773 244.80859 C 370.03985 244.26872 369.23559 243.57279 368.64648 242.7168 C 367.72448 241.37714 367.37729 239.72177 367.26172 238.09961 C 367.14615 236.47745 367.24152 234.84534 367.10742 233.22461 C 367.03132 232.30457 366.88002 231.38797 366.89062 230.46484 C 366.90123 229.54172 367.08652 228.58999 367.61914 227.83594 C 368.13738 227.10225 368.95828 226.60827 369.83398 226.4082 C 370.70967 226.20814 371.63574 226.2901 372.49414 226.55469 C 373.93246 226.99802 375.16513 227.92724 376.34375 228.86328 C 381.46759 232.93258 386.21605 237.44802 390.9668 241.94727 C 399.2007 249.74527 407.56187 257.58861 417.39258 263.24219 C 420.69628 265.14212 424.18558 266.7962 427.91016 267.60352 C 431.36302 268.35193 434.97682 268.35193 438.42969 267.60352 C 438.72946 270.37443 439.24435 273.1212 439.96875 275.8125 C 443.138 287.58701 450.16824 297.89163 457.1582 307.88281 C 467.9436 323.29904 478.93858 338.60406 488.45898 354.83203 C 495.14724 366.23251 501.16478 378.27159 503.5957 391.26367 C 504.13001 394.11929 504.49007 397.01774 505.33008 399.79883 C 506.17008 402.57992 507.54053 405.28586 509.75195 407.16992 C 511.45543 408.62123 513.56375 409.50934 515.68945 410.20898 C 517.81515 410.90863 519.9991 411.44385 522.06641 412.30078 C 527.53598 414.568 531.87788 418.94903 537.20312 421.53711 C 540.39732 423.08949 543.91786 423.97012 547.4668 424.10352 C 547.65381 426.43197 547.99608 428.74663 548.49219 431.0293 C 548.73599 432.15106 549.0189 433.27287 549.06445 434.41992 C 549.10995 435.56697 548.8985 436.7615 548.23633 437.69922 C 547.64257 438.54006 546.73949 439.109 545.82227 439.57617 C 544.90504 440.04334 543.9427 440.43633 543.10547 441.03516 C 541.64241 442.0816 540.65485 443.70587 540.1543 445.43359 C 539.65375 447.16132 539.60943 448.99352 539.76953 450.78516 C 539.94915 452.79527 540.38162 454.78228 541.05273 456.68555 C 536.47785 457.03281 531.92863 457.71975 527.45508 458.73828 C 520.03976 460.42659 512.71235 463.09363 506.67383 467.7168 C 502.77512 470.7017 499.38552 474.50825 494.87109 476.43945 C 493.37848 477.07797 491.80258 477.49343 490.25391 477.98047 C 489.37591 478.25659 488.50026 478.55725 487.69336 479 C 486.88646 479.44275 486.1466 480.03453 485.63672 480.80078 C 485.01865 481.72963 484.77039 482.87549 484.81641 483.99023 C 484.86241 485.10498 485.18863 486.19309 485.63672 487.21484 C 486.25858 488.63283 487.13524 489.96054 488.32031 490.95703 C 489.50539 491.95353 491.01414 492.60197 492.5625 492.60352 C 493.8096 492.60452 495.02944 492.19235 496.13086 491.60742 C 497.23228 491.02249 498.23253 490.26809 499.23438 489.52539 C 501.00739 488.21098 502.8027 486.92667 504.62109 485.67578 C 503.81451 486.50145 503.23617 487.54949 502.9668 488.67188 C 502.69743 489.79426 502.73804 490.98804 503.08203 492.08984 C 503.28733 492.74741 503.60148 493.37531 504.0332 493.91211 C 504.46493 494.44891 505.01515 494.89233 505.64648 495.16797 C 506.77051 495.65873 508.08438 495.58368 509.23828 495.16797 C 510.28217 494.79189 511.21433 494.15735 512.07812 493.46094 C 512.94191 492.76452 513.75064 492.00091 514.62695 491.32031 C 516.23659 490.07017 518.06946 489.10945 520.01367 488.49805 C 519.18686 489.47333 518.6616 490.70134 518.52539 491.97266 C 518.38918 493.24397 518.64271 494.55333 519.24414 495.68164 C 520.09453 497.277 521.6262 498.47151 523.34961 499.01758 C 525.60039 499.73074 528.07961 499.36682 530.27734 498.50391 C 534.3415 496.90814 537.58457 493.72731 540.2832 490.29492 C 542.05521 488.04111 543.64397 485.64634 545.45508 483.42383 C 547.26619 481.20131 549.33011 479.12964 551.82812 477.72266 C 553.57897 476.73651 555.50906 476.09679 557.47266 475.66992 C 560.49808 475.01223 563.62622 474.85109 566.70703 475.1582 C 567.8382 475.27097 568.96676 475.446 570.10352 475.43945 C 571.24027 475.43245 572.40572 475.23204 573.37891 474.64453 C 574.66659 473.86717 575.4915 472.48739 575.94336 471.05273 C 576.52359 469.21052 576.56192 467.22753 576.26953 465.31836 C 575.97715 463.40919 575.36306 461.56266 574.66016 459.76367 C 574.26676 458.75682 573.84162 457.74877 573.69531 456.67773 C 573.62221 456.14222 573.62147 455.59384 573.73047 455.06445 C 573.83946 454.53507 574.06075 454.02468 574.4043 453.60742 C 574.82211 453.09997 575.39864 452.74951 575.98633 452.45508 C 576.57402 452.16065 577.1876 451.9106 577.74023 451.55469 C 578.96967 450.76288 579.82729 449.48712 580.35938 448.125 C 580.89144 446.76288 581.12571 445.30515 581.33203 443.85742 C 583.37902 429.49395 583.07917 414.73119 586.97656 400.75586 C 588.42281 395.56989 590.44831 390.47618 590.82422 385.10547 C 590.95573 383.22655 590.88032 381.31855 590.41211 379.49414 C 589.94394 377.66973 589.06877 375.92884 587.74609 374.58789 C 586.54354 373.36874 584.99524 372.5087 583.3457 372.04883 C 581.69617 371.58896 579.94697 371.52193 578.25195 371.76562 C 576.78836 371.97605 575.36972 372.41307 573.92773 372.74023 C 572.48573 373.0674 570.98887 373.28557 569.5293 373.04883 C 567.39724 372.70301 565.45314 371.34194 564.39844 369.45703 C 570.07656 366.69079 575.00072 362.39228 578.50977 357.14062 C 582.69913 350.87081 584.80293 343.45919 586.46289 336.10352 C 587.22498 332.72655 587.90407 329.17712 586.97656 325.8418 C 586.18592 322.99862 584.30106 320.59611 583.12695 317.88867 C 581.88698 315.02934 581.46214 311.88014 581.34766 308.76562 C 581.23318 305.65112 581.41683 302.53148 581.33203 299.41602 C 581.21029 294.94667 580.51993 290.44449 578.76562 286.33203 C 577.9772 284.48379 576.9805 282.72881 576.19141 280.88086 C 575.40231 279.03291 574.81855 277.04989 574.91797 275.04297 C 575.00307 273.32474 575.59115 271.6545 576.45703 270.16797 C 577.81999 267.82807 579.85406 265.91548 581.07422 263.49805 C 582.68807 260.30062 582.71926 256.54182 582.35742 252.97852 C 581.97717 249.23385 581.20224 245.53011 580.04883 241.94727 C 582.1872 242.15157 584.3992 241.38175 585.94922 239.89453 C 586.85699 239.02354 587.53365 237.93394 588.05078 236.78711 C 588.56792 235.64027 588.93318 234.43241 589.28516 233.22461 C 590.26346 229.86758 591.15899 226.45498 591.33789 222.96289 C 591.42569 221.2497 591.3383 219.52793 591.08008 217.83203 C 589.04698 218.97903 586.99524 220.08974 584.92383 221.16602 C 583.16737 222.07864 581.39182 222.96854 579.74219 224.0625 C 578.09256 225.15646 576.5618 226.4687 575.43164 228.09375 C 574.75208 229.07089 574.20849 230.16939 573.31445 230.95508 C 572.86743 231.34792 572.33279 231.6531 571.74805 231.76367 C 571.1633 231.87424 570.52643 231.77477 570.04297 231.42773 C 569.73802 231.20885 569.50309 230.90092 569.35352 230.55664 C 569.20394 230.21236 569.13865 229.83433 569.14258 229.45898 C 569.15058 228.70829 569.42917 227.98413 569.78711 227.32422 C 570.88958 225.29165 572.71616 223.77353 574.4043 222.19336 C 578.37996 218.47196 581.79148 214.13988 584.41016 209.36523 C 588.65919 201.61796 590.74352 192.90867 593.39062 184.47852 C 594.55758 180.76215 595.84051 177.08311 597.23828 173.44727 C 592.61032 173.92668 588.06876 175.2358 583.89648 177.29492 C 573.68136 182.33632 566.15725 191.54658 560.03711 201.1543 C 553.74715 211.0286 548.57982 221.61148 541.82227 231.17188 C 540.86762 232.52248 539.87697 233.86002 539.1582 235.34961 C 538.43943 236.8392 538.00158 238.51432 538.23047 240.15234 C 538.38078 241.22806 538.81248 242.24819 539.37109 243.17969 C 539.92971 244.11119 540.61398 244.9599 541.30859 245.79492 C 542.47145 247.19283 543.66922 248.56226 544.90039 249.90039 C 544.81509 256.91607 544.98689 263.93432 545.41406 270.9375 C 545.75543 276.53356 546.26327 282.13948 547.4668 287.61523 C 549.23857 295.67638 552.48664 303.32587 554.90625 311.2168 C 557.01306 318.0876 558.48989 325.14401 559.52344 332.25586 C 559.76216 333.89847 559.97867 335.5538 559.92773 337.21289 C 559.87673 338.87198 559.54731 340.54594 558.75391 342.00391 C 558.36371 342.72094 557.85591 343.38688 557.19727 343.86914 C 556.53863 344.3514 555.71961 344.63987 554.90625 344.57031 C 554.08576 344.50011 553.3253 344.07346 552.73242 343.50195 C 552.13955 342.93044 551.69842 342.22068 551.31445 341.49219 C 549.40098 337.8618 548.78636 333.71295 547.97852 329.68945 C 543.89607 309.35667 534.31039 290.63325 526.42773 271.45117 C 522.62199 262.19009 519.19793 252.77294 516.16602 243.23047 C 527.35329 233.68775 537.22509 222.6037 545.41406 210.39062 C 558.88133 190.30549 567.83619 166.5787 567.2207 142.4043 C 566.90344 129.94293 563.97175 117.37929 557.47266 106.74219 C 554.29675 101.54417 550.29692 96.850575 545.66992 92.888672 C 544.88245 87.266589 544.28434 81.617266 543.875 75.955078 C 543.50177 70.792437 543.30211 65.485676 544.90039 60.5625 C 545.85412 57.624729 547.43896 54.893984 549.51758 52.609375 C 549.02151 52.586785 548.52586 52.573723 548.0293 52.570312 z M 407.99219 81.222656 C 407.66043 83.284237 407.78625 85.419267 408.35742 87.427734 C 409.48414 91.389707 412.2564 94.677605 415.29102 97.462891 C 421.39684 103.06703 428.81853 107.13208 436.64062 109.87109 C 445.99926 113.14814 455.9287 114.56839 465.83594 114.98047 C 467.55439 115.05197 469.28077 115.09314 470.98828 114.88672 C 472.6958 114.68035 474.39284 114.21707 475.87109 113.33789 C 476.47731 112.97735 477.04988 112.54276 477.48828 111.99023 C 477.92668 111.4377 478.22389 110.75782 478.24219 110.05273 C 478.26299 109.25137 477.91921 108.46986 477.4043 107.85547 C 476.8894 107.24107 476.21378 106.78041 475.50586 106.4043 C 472.90309 105.02146 469.87345 104.72488 466.92969 104.58008 C 462.85032 104.37943 458.74944 104.4194 454.70508 103.84961 C 447.69625 102.86217 441.05805 100.0665 434.81445 96.732422 C 429.20998 93.739629 423.85947 90.299779 418.39258 87.0625 C 414.9712 85.036494 411.50341 83.088631 407.99219 81.222656 z M 490.46484 83.880859 C 494.96642 83.776233 499.47787 84.113141 503.91406 84.884766 C 503.92926 87.008139 503.1247 89.12791 501.70508 90.707031 C 500.16484 92.420321 498.01462 93.442001 495.88477 94.320312 C 494.41827 94.925071 492.92428 95.484725 491.37305 95.816406 C 489.82181 96.148087 488.204 96.246174 486.65039 95.925781 C 484.23058 95.426754 482.03533 93.866667 480.82812 91.710938 C 479.67831 89.6577 479.45405 87.107621 480.22656 84.884766 C 483.6079 84.296622 487.03366 83.960607 490.46484 83.880859 z M 337.80078 102.54102 C 335.66421 102.52312 333.46661 102.98314 331.7207 104.21484 C 330.13511 105.33344 329.01871 107.02075 328.2832 108.81641 C 327.5477 110.61206 327.16241 112.52863 326.79297 114.43359 C 325.31859 122.03597 324.04171 130.00018 326.24609 137.42383 C 328.10366 143.67952 332.28591 148.98062 336.83008 153.66406 C 338.51491 155.40053 340.28005 157.09108 342.34766 158.34766 C 344.41526 159.60423 346.82524 160.40895 349.23828 160.23242 C 351.51697 160.06572 353.71762 158.99833 355.25977 157.3125 C 352.95185 156.62653 350.77347 155.50761 348.87305 154.0293 C 348.0633 153.39941 347.29473 152.69459 346.73633 151.83398 C 346.17793 150.97338 345.84089 149.93965 345.95312 148.91992 C 346.05865 147.96107 346.56569 147.05946 347.30469 146.43945 C 348.04369 145.81945 349.00252 145.47953 349.9668 145.45312 C 350.45939 145.43963 350.95074 145.50488 351.44336 145.51758 C 351.93598 145.53018 352.4437 145.48528 352.88672 145.26953 C 353.1851 145.12419 353.44435 144.90473 353.65039 144.64453 C 353.85643 144.38433 354.00968 144.08354 354.11719 143.76953 C 354.3322 143.14152 354.36312 142.4663 354.3457 141.80273 C 354.3225 140.91927 354.21585 140.03311 353.95898 139.1875 C 353.7021 138.34189 353.29267 137.53709 352.70508 136.87695 C 351.73295 135.78479 350.35474 135.16179 349.12109 134.37695 C 348.50427 133.98453 347.91329 133.54166 347.43555 132.98828 C 346.95781 132.4349 346.59708 131.7617 346.5 131.03711 C 346.4235 130.46588 346.5131 129.87591 346.73438 129.34375 C 346.95565 128.81159 347.30649 128.33728 347.73438 127.95117 C 348.59013 127.17895 349.73232 126.77648 350.87891 126.6582 C 352.27502 126.51419 353.69358 126.76795 355.01172 127.25 C 356.32986 127.73205 357.55678 128.43735 358.72656 129.21289 C 366.85005 134.59859 372.17808 143.16039 378.06836 150.92578 C 385.7364 161.03486 394.78582 170.25921 400.51172 181.58203 C 401.3761 183.29132 402.16727 185.05222 403.29883 186.59766 C 404.43039 188.14309 405.95945 189.48244 407.81055 189.97461 C 408.91758 190.26894 410.09467 190.24655 411.21289 189.99805 C 412.33111 189.74958 413.39294 189.28038 414.37891 188.69727 C 417.61656 186.78248 419.98014 183.72441 422.4082 180.85156 C 427.38671 174.96107 432.95771 169.57324 439.01172 164.79492 C 434.74322 161.82632 430.6586 158.59353 426.78711 155.12305 C 416.79065 146.16199 408.25044 135.64176 397.95703 127.02344 C 390.64363 120.90017 382.47171 115.77781 373.6875 112.06055 C 364.22534 108.05639 354.15891 105.71255 344.12891 103.48438 C 342.04311 103.02101 339.93736 102.55886 337.80078 102.54102 z M 468.36133 339.16211 C 465.75954 339.1999 463.16245 339.52493 460.63281 340.13477 C 456.19408 341.20484 451.90558 343.19282 448.59375 346.33594 C 446.54666 348.27874 444.88779 350.6661 443.98438 353.33984 C 443.08096 356.01358 442.96114 358.98011 443.85156 361.6582 C 444.58888 363.87581 445.97355 365.81521 447.41797 367.65234 C 448.86239 369.48948 450.39632 371.27843 451.51172 373.33203 C 453.08521 376.22904 453.75557 379.53435 454.06641 382.81641 C 454.30781 385.36532 454.34272 387.95115 453.87695 390.46875 C 453.41118 392.98635 452.42388 395.44265 450.7832 397.4082 C 449.32162 399.1592 447.385 400.47185 445.31055 401.41992 C 440.56662 403.588 435.20529 403.88156 429.99023 403.97461 C 423.73778 404.08617 417.36698 403.97514 411.38477 405.79688 C 407.66596 406.92934 404.17297 408.801 401.16992 411.26953 C 402.95801 411.84042 404.81109 412.20769 406.68164 412.36328 C 408.19081 412.48881 409.76052 412.48875 411.13477 413.125 C 411.82189 413.44313 412.44602 413.92574 412.84961 414.56641 C 413.2532 415.20707 413.41779 416.01436 413.20898 416.74219 C 413.08591 417.17116 412.83838 417.56085 412.51758 417.87109 C 412.19677 418.18134 411.80407 418.4136 411.38477 418.56641 C 410.61371 418.84741 409.77639 418.85866 408.95898 418.93164 C 408.14158 419.00462 407.29141 419.15766 406.64258 419.66016 C 406.00466 420.1542 405.63629 420.95393 405.5957 421.75977 C 405.55511 422.5656 405.82371 423.36985 406.27734 424.03711 C 406.99994 425.09997 408.16074 425.81049 409.39062 426.18359 C 410.62052 426.55669 411.92405 426.61949 413.20898 426.5918 C 415.17269 426.54947 417.13122 426.30368 419.04492 425.86133 C 417.10867 427.37892 415.5827 429.41354 414.66797 431.69727 C 414.2855 432.65214 414.0071 433.66477 414.01562 434.69336 C 414.02416 435.72195 414.34189 436.77347 415.0332 437.53516 C 415.77575 438.35329 416.88913 438.77073 417.99219 438.83398 C 419.09524 438.89724 420.19356 438.6344 421.23438 438.26367 C 424.58472 437.0703 427.41247 434.79278 430.35352 432.79297 C 440.29711 426.03165 452.25474 422.19141 464.2793 422.21289 C 466.87895 422.21753 469.49649 422.39795 472.06641 422.00586 C 473.35137 421.80981 474.62137 421.46902 475.79492 420.91016 C 476.96847 420.35129 478.04469 419.5697 478.87109 418.56641 C 479.49211 417.81246 479.96828 416.93507 480.23047 415.99414 C 480.49266 415.05321 480.53784 414.04818 480.33008 413.09375 C 480.04445 411.78159 479.30232 410.61762 478.51562 409.5293 C 477.72893 408.44097 476.87747 407.38307 476.31836 406.16211 C 475.40042 404.15754 475.34455 401.84596 475.74414 399.67773 C 476.14373 397.50951 476.97219 395.447 477.77734 393.39453 C 479.65775 388.60111 481.52099 383.62688 485.07227 379.89844 C 487.35663 377.50011 490.28328 375.71859 493.46289 374.79102 C 491.41622 372.35697 489.6936 369.65056 488.35547 366.76562 C 485.77788 361.20849 484.63835 355.04199 481.78906 349.61914 C 479.68562 345.61579 476.6697 342.09722 473.03516 339.40625 C 471.48494 339.22082 469.9224 339.13944 468.36133 339.16211 z "
     id="path1278-0" />
</svg>
