<?xml version="1.0" encoding="UTF-8" standalone="no"?>
<svg
   xmlns:dc="http://purl.org/dc/elements/1.1/"
   xmlns:cc="http://creativecommons.org/ns#"
   xmlns:rdf="http://www.w3.org/1999/02/22-rdf-syntax-ns#"
   xmlns:svg="http://www.w3.org/2000/svg"
   xmlns="http://www.w3.org/2000/svg"
   xmlns:sodipodi="http://sodipodi.sourceforge.net/DTD/sodipodi-0.dtd"
   xmlns:inkscape="http://www.inkscape.org/namespaces/inkscape"
   viewBox="0 0 717.93965 826.01944"
   version="1.1"
   id="svg1527"
   sodipodi:docname="Wappen_von_Ehingen_am_Ries.svg"
   inkscape:version="0.92.5 (2060ec1f9f, 2020-04-08)"
   width="717.93964"
   height="826.01947">
  <metadata
     id="metadata1533">
    <rdf:RDF>
      <cc:Work
         rdf:about="">
        <dc:format>image/svg+xml</dc:format>
        <dc:type
           rdf:resource="http://purl.org/dc/dcmitype/StillImage" />
        <dc:title />
      </cc:Work>
    </rdf:RDF>
  </metadata>
  <defs
     id="defs1531">
    <inkscape:path-effect
       effect="spiro"
       id="path-effect990"
       is_visible="true" />
    <inkscape:path-effect
       effect="spiro"
       id="path-effect986"
       is_visible="true" />
    <inkscape:path-effect
       effect="spiro"
       id="path-effect939"
       is_visible="true" />
    <inkscape:path-effect
       effect="spiro"
       id="path-effect934"
       is_visible="true" />
    <inkscape:path-effect
       effect="spiro"
       id="path-effect929"
       is_visible="true" />
    <inkscape:path-effect
       effect="spiro"
       id="path-effect924"
       is_visible="true" />
    <inkscape:path-effect
       effect="spiro"
       id="path-effect919"
       is_visible="true" />
    <inkscape:path-effect
       effect="spiro"
       id="path-effect4251"
       is_visible="true" />
    <inkscape:path-effect
       effect="spiro"
       id="path-effect4213"
       is_visible="true" />
    <inkscape:path-effect
       effect="spiro"
       id="path-effect4175"
       is_visible="true" />
    <inkscape:path-effect
       effect="spiro"
       id="path-effect4110"
       is_visible="true" />
    <inkscape:path-effect
       effect="spiro"
       id="path-effect4106"
       is_visible="true" />
    <inkscape:path-effect
       effect="spiro"
       id="path-effect4102"
       is_visible="true" />
    <inkscape:path-effect
       effect="spiro"
       id="path-effect4097"
       is_visible="true" />
    <inkscape:path-effect
       effect="spiro"
       id="path-effect4092"
       is_visible="true" />
    <inkscape:path-effect
       effect="spiro"
       id="path-effect4087"
       is_visible="true" />
    <inkscape:path-effect
       effect="spiro"
       id="path-effect4082"
       is_visible="true" />
    <inkscape:path-effect
       effect="spiro"
       id="path-effect4077"
       is_visible="true" />
    <inkscape:path-effect
       effect="spiro"
       id="path-effect4073"
       is_visible="true" />
    <inkscape:path-effect
       effect="spiro"
       id="path-effect4069"
       is_visible="true" />
    <inkscape:path-effect
       effect="spiro"
       id="path-effect4037"
       is_visible="true" />
    <inkscape:path-effect
       effect="spiro"
       id="path-effect4014"
       is_visible="true" />
    <inkscape:path-effect
       effect="spiro"
       id="path-effect3982"
       is_visible="true" />
    <inkscape:path-effect
       effect="spiro"
       id="path-effect3937"
       is_visible="true" />
    <inkscape:path-effect
       effect="spiro"
       id="path-effect3710"
       is_visible="true" />
    <inkscape:path-effect
       effect="spiro"
       id="path-effect2748"
       is_visible="true" />
    <inkscape:path-effect
       effect="spiro"
       id="path-effect2748-8"
       is_visible="true" />
    <inkscape:path-effect
       effect="spiro"
       id="path-effect3710-7"
       is_visible="true" />
    <inkscape:path-effect
       effect="spiro"
       id="path-effect3937-2"
       is_visible="true" />
    <inkscape:path-effect
       effect="spiro"
       id="path-effect3982-7"
       is_visible="true" />
    <inkscape:path-effect
       effect="spiro"
       id="path-effect4014-9"
       is_visible="true" />
    <inkscape:path-effect
       effect="spiro"
       id="path-effect4037-8"
       is_visible="true" />
    <inkscape:path-effect
       effect="spiro"
       id="path-effect4175-6"
       is_visible="true" />
    <inkscape:path-effect
       effect="spiro"
       id="path-effect4213-6"
       is_visible="true" />
    <inkscape:path-effect
       effect="spiro"
       id="path-effect4251-2"
       is_visible="true" />
  </defs>
  <sodipodi:namedview
     pagecolor="#ffffff"
     bordercolor="#666666"
     borderopacity="1"
     objecttolerance="10"
     gridtolerance="10"
     guidetolerance="10"
     inkscape:pageopacity="0"
     inkscape:pageshadow="2"
     inkscape:window-width="1920"
     inkscape:window-height="1046"
     id="namedview1529"
     showgrid="false"
     inkscape:zoom="0.96002578"
     inkscape:cx="358.9698"
     inkscape:cy="413.00973"
     inkscape:window-x="-11"
     inkscape:window-y="-11"
     inkscape:window-maximized="1"
     inkscape:current-layer="svg1527"
     inkscape:snap-midpoints="true"
     inkscape:snap-smooth-nodes="true"
     fit-margin-top="0"
     fit-margin-left="0"
     fit-margin-right="0"
     fit-margin-bottom="0"
     inkscape:snap-nodes="false" />
  <path
     style="fill:#fcdd09;fill-opacity:1;stroke:none;stroke-width:8;stroke-linecap:round;stroke-linejoin:round;stroke-miterlimit:4;stroke-dasharray:none;stroke-opacity:1"
     d="M 358.96981,3.999981 C 334.08764,13.991703 308.29837,21.899255 281.98929,27.603496 225.31448,39.891526 166.26724,41.861592 108.78057,33.761699 82.320429,30.033455 56.183599,24.190191 30.729729,16.314434 L 3.999899,47.101543 c 6.28257,9.419764 11.65967,19.396908 16.03871,29.761723 17.04569,40.345754 18.48628,84.938404 20.37701,128.437504 3.30156,75.95745 8.66315,151.8318 15.92476,227.53515 1.47229,15.34878 2.9336,31.35697 -2.91797,45.71094 -3.17801,7.79565 -8.46914,14.78808 -15.2085,20.10156 3.00833,66.99889 29.8393,137.18438 69.915511,192.41992 32.6387,44.98469 81.21391,78.68386 131.31109,102.75 36.90007,17.72639 78.1011,23.14956 119.5293,28.20117 41.42819,-5.05161 82.62922,-10.47478 119.52928,-28.20117 50.09718,-24.06614 98.67239,-57.76531 131.31109,-102.75 40.07621,-55.23554 66.90719,-125.42103 69.91551,-192.41992 -6.73935,-5.31348 -12.03049,-12.30591 -15.20849,-20.10156 -5.85157,-14.35397 -4.39026,-30.36216 -2.91798,-45.71094 7.26161,-75.70335 12.6232,-151.5777 15.92476,-227.53515 1.89073,-43.4991 3.33132,-88.09175 20.37702,-128.437504 4.37903,-10.364815 9.75613,-20.341959 16.03871,-29.761723 L 687.20988,16.314434 c -25.45387,7.875757 -51.5907,13.719021 -78.05085,17.447265 -57.48667,8.099893 -116.5339,6.129827 -173.20871,-6.158203 C 409.64123,21.899255 383.85196,13.991703 358.96981,3.999981 Z"
     id="path2746-0-1"
     inkscape:connector-curvature="0"
     sodipodi:nodetypes="cssccsssccaacaacssssccssc" />
  <path
     style="fill:#da121a;fill-opacity:1;fill-rule:evenodd;stroke:#000000;stroke-width:8;stroke-linecap:round;stroke-linejoin:round;stroke-miterlimit:4;stroke-dasharray:none;stroke-opacity:1;paint-order:fill markers stroke"
     d="M 358.9707 389.375 L 358.9707 822.01953 C 400.39889 816.96792 441.59994 811.54475 478.5 793.81836 C 528.59718 769.75222 577.17185 736.05305 609.81055 691.06836 C 649.88676 635.83282 676.71824 565.64733 679.72656 498.64844 C 672.98721 493.33496 667.69558 486.34253 664.51758 478.54688 C 658.66601 464.1929 660.12733 448.18472 661.59961 432.83594 C 662.98858 418.35569 664.28438 403.86715 665.5332 389.375 L 358.9707 389.375 z "
     id="rect3887" />
  <path
     style="fill:#da121a;fill-opacity:1;fill-rule:evenodd;stroke:#000000;stroke-width:8;stroke-linecap:round;stroke-linejoin:round;stroke-miterlimit:4;stroke-dasharray:none;stroke-opacity:1;paint-order:fill markers stroke"
     d="M 358.9707 4 C 334.08853 13.991722 308.29931 21.899275 281.99023 27.603516 C 225.31542 39.891546 166.26792 41.861612 108.78125 33.761719 C 82.321109 30.033475 56.184339 24.19021 30.730469 16.314453 L 4 47.101562 C 10.28257 56.521327 15.660023 66.49847 20.039062 76.863281 C 37.084753 117.20903 38.525286 161.80168 40.416016 205.30078 C 43.086066 266.72938 47.126174 328.1016 52.40625 389.375 L 358.9707 389.375 L 358.9707 4 z "
     id="rect3917" />
  <path
     style="fill:none;fill-opacity:1;stroke:#000000;stroke-width:8;stroke-linecap:round;stroke-linejoin:round;stroke-miterlimit:4;stroke-dasharray:none;stroke-opacity:1"
     d="M 358.96981,3.999969 C 334.08764,13.991691 308.29837,21.899243 281.98929,27.603484 225.31448,39.891514 166.26724,41.86158 108.78057,33.761687 82.320428,30.033443 56.183598,24.190179 30.729728,16.314422 L 3.999898,47.101531 c 6.28257,9.419764 11.65967,19.396908 16.03871,29.761719 17.04569,40.34575 18.48628,84.9384 20.37701,128.4375 3.30156,75.95745 8.66315,151.8318 15.92476,227.53515 1.47229,15.34878 2.9336,31.35697 -2.91797,45.71094 -3.17801,7.79565 -8.46914,14.78808 -15.2085,20.10156 3.00833,66.99889 29.839302,137.18438 69.915512,192.41992 32.6387,44.98469 81.21391,78.68386 131.31109,102.75 36.90007,17.72639 78.1011,23.14956 119.5293,28.20117 41.42819,-5.05161 82.62922,-10.47478 119.52928,-28.20117 50.09718,-24.06614 98.67239,-57.76531 131.31109,-102.75 40.07621,-55.23554 66.90719,-125.42103 69.91551,-192.41992 -6.73935,-5.31348 -12.03049,-12.30591 -15.20849,-20.10156 -5.85157,-14.35397 -4.39026,-30.36216 -2.91798,-45.71094 7.26161,-75.70335 12.6232,-151.5777 15.92476,-227.53515 1.89073,-43.4991 3.33132,-88.09175 20.37702,-128.4375 4.37903,-10.364811 9.75613,-20.341955 16.03871,-29.761719 L 687.20988,16.314422 C 661.75601,24.190179 635.61918,30.033443 609.15903,33.761687 551.67236,41.86158 492.62513,39.891514 435.95032,27.603484 409.64123,21.899243 383.85196,13.991691 358.96981,3.999969 Z"
     id="path2746-0"
     inkscape:connector-curvature="0"
     sodipodi:nodetypes="cssccsssccaacaacssssccssc" />
  <path
     inkscape:connector-curvature="0"
     style="fill:#000000;stroke:#000000;stroke-width:1px;stroke-linecap:butt;stroke-linejoin:miter;stroke-opacity:1"
     d="m 358.96981,279.24219 c -18.34904,14.47688 -38.15754,27.10273 -59.02735,37.625 -6.86258,3.46001 -14.0657,6.86611 -18.98437,12.77148 -1.73802,2.08667 -3.13794,4.42943 -4.65821,6.67969 -1.52026,2.25026 -3.19557,4.44507 -5.35351,6.09375 -1.28514,0.98185 -2.71565,1.74975 -4.10352,2.58008 -1.38786,0.83033 -2.75456,1.7388 -3.83593,2.9414 -1.25565,1.39642 -2.06865,3.12313 -2.93165,4.79102 -0.86299,1.66789 -1.82568,3.34272 -3.28125,4.5293 -1.14571,0.93398 -2.53252,1.51097 -3.8789,2.12109 -1.34638,0.61012 -2.70358,1.28907 -3.71485,2.36719 -1.04649,1.11567 -1.6389,2.57082 -2.21875,3.98633 -0.57984,1.4155 -1.19476,2.86466 -2.26953,3.95312 -0.73081,0.74013 -1.63832,1.27487 -2.54687,1.78125 -0.90855,0.50638 -1.83718,0.99765 -2.63086,1.66992 -1.03972,0.88067 -1.80557,2.03477 -2.51953,3.19531 -0.71396,1.16055 -1.39715,2.35396 -2.3125,3.36329 -1.23888,1.36606 -2.8489,2.33551 -4.48242,3.1914 -1.63353,0.85589 -3.3241,1.62447 -4.83789,2.67774 -3.05275,2.12404 -5.22149,5.28666 -7.02149,8.54101 -1.8,3.25435 -3.30762,6.68231 -5.4043,9.75391 -3.37234,4.94044 -8.24838,8.83931 -13.80859,11.04492 l -0.68945,9.66602 c 4.43173,2.83882 8.1446,6.79028 10.70117,11.39062 3.11004,5.59628 4.46529,11.98025 5.52148,18.29492 2.91443,17.42447 3.84306,35.18106 2.76172,52.81446 l 141.52735,10.00976 141.52734,-10.00976 c -1.08134,-17.6334 -0.15271,-35.38999 2.76172,-52.81446 1.05619,-6.31467 2.41339,-12.69864 5.52344,-18.29492 2.55656,-4.60034 6.26748,-8.5518 10.69921,-11.39062 l -0.68945,-9.66602 c -5.56021,-2.20561 -10.43429,-6.10448 -13.80664,-11.04492 -2.09668,-3.0716 -3.60625,-6.49956 -5.40625,-9.75391 -1.8,-3.25435 -3.96874,-6.41697 -7.02148,-8.54101 -1.5138,-1.05327 -3.20241,-1.82185 -4.83594,-2.67774 -1.63353,-0.85589 -3.24549,-1.82534 -4.48438,-3.1914 -0.91535,-1.00933 -1.59854,-2.20274 -2.3125,-3.36329 -0.71396,-1.16054 -1.47981,-2.31464 -2.51953,-3.19531 -0.79368,-0.67227 -1.72231,-1.16354 -2.63086,-1.66992 -0.90855,-0.50638 -1.81606,-1.04112 -2.54687,-1.78125 -1.07477,-1.08846 -1.68969,-2.53762 -2.26953,-3.95312 -0.57985,-1.41551 -1.17226,-2.87066 -2.21875,-3.98633 -1.01127,-1.07812 -2.36847,-1.75707 -3.71485,-2.36719 -1.34638,-0.61012 -2.73319,-1.18711 -3.8789,-2.12109 -1.45557,-1.18658 -2.4163,-2.86141 -3.2793,-4.5293 -0.863,-1.66789 -1.67795,-3.3946 -2.93359,-4.79102 -1.08137,-1.2026 -2.44808,-2.11107 -3.83594,-2.9414 -1.38786,-0.83033 -2.81838,-1.59823 -4.10352,-2.58008 -2.15794,-1.64868 -3.83325,-3.84349 -5.35351,-6.09375 -1.52027,-2.25026 -2.92019,-4.59302 -4.65821,-6.67969 -4.91867,-5.90537 -12.12179,-9.31147 -18.98437,-12.77148 -20.86981,-10.52227 -40.67831,-23.14812 -59.02734,-37.625 z"
     id="path3935" />
  <path
     style="fill:#ffffff;stroke:none;stroke-width:1px;stroke-linecap:butt;stroke-linejoin:miter;stroke-opacity:1"
     d="M 346.36914 299.26367 L 224.17383 419.04297 L 226.58984 500.85352 L 352.58398 493.25781 L 346.36914 299.26367 z M 371.56836 299.26367 L 365.35547 493.25781 L 491.34961 500.85352 L 493.76562 419.04297 L 371.56836 299.26367 z M 430.80273 337.86328 C 430.14372 338.92414 429.90419 340.23774 430.14648 341.46289 C 430.36676 342.57678 430.96429 343.58925 431.70117 344.45312 C 432.43806 345.317 433.3152 346.04812 434.18555 346.77734 C 442.16908 353.46632 450.0394 360.36061 456.80273 368.28125 C 463.15514 375.72066 468.53292 384.06447 475.84375 390.56445 C 480.23083 394.46496 485.38412 397.79415 488.25586 402.91406 C 488.72821 403.75619 489.13619 404.64247 489.73438 405.40039 C 490.08319 405.84235 490.49919 406.23913 490.99609 406.50391 C 491.49298 406.76868 492.0763 406.89496 492.62891 406.78711 C 493.18451 406.67867 493.68594 406.33296 494.00195 405.86328 C 494.31795 405.3936 494.44994 404.806 494.38086 404.24414 C 494.29506 403.54664 493.91582 402.91133 493.4375 402.39648 C 492.95918 401.88164 492.38271 401.47204 491.81445 401.05859 C 490.43939 400.05816 489.09131 399.01734 487.8125 397.89648 C 484.50097 394.99399 481.68386 391.58103 478.67773 388.36328 C 472.15196 381.37812 464.71132 375.29186 458.23828 368.25781 C 452.82381 362.37406 448.12547 355.86945 442.85156 349.85938 C 439.11092 345.59657 435.08162 341.58549 430.80273 337.86328 z M 264.51367 366.45703 C 260.97394 369.64408 257.65029 373.06986 254.57031 376.70312 C 250.22785 381.82565 246.37442 387.35459 241.91211 392.37305 C 236.57739 398.37264 230.41681 403.59149 225.03711 409.55078 C 222.55892 412.29596 220.24307 415.20267 217.50391 417.6875 C 216.44613 418.64706 215.32783 419.54056 214.1875 420.40039 C 213.71625 420.75573 213.23803 421.10768 212.84375 421.54688 C 212.44948 421.98606 212.14014 422.52439 212.07812 423.11133 C 212.02812 423.58413 212.14583 424.07692 212.41797 424.4668 C 212.69007 424.85667 213.11782 425.13761 213.58594 425.2207 C 214.05153 425.3033 214.53772 425.1904 214.95117 424.96094 C 215.36463 424.73147 215.70951 424.39176 215.99609 424.01562 C 216.48754 423.37059 216.81661 422.62019 217.20117 421.90625 C 219.53923 417.56569 223.81925 414.6977 227.44727 411.35938 C 233.49317 405.79622 237.88958 398.71131 243.11719 392.37305 C 248.68296 385.62479 255.19465 379.72368 261.80273 373.99219 C 262.52313 373.36735 263.24712 372.7399 263.85352 372.00391 C 264.45991 371.26791 264.94819 370.40924 265.11719 369.4707 C 265.30307 368.43842 265.08229 367.33841 264.51367 366.45703 z "
     id="path3962" />
  <path
     style="fill:#000000;stroke:none;stroke-width:1.00558519px;stroke-linecap:butt;stroke-linejoin:miter;stroke-opacity:1"
     d="M 358.96993,17.623047 C 351.84085,35.638974 344.77938,53.681713 337.78712,71.75 c -8.79796,22.734297 -17.48731,45.51022 -25.76288,68.43555 -5.5536,15.38477 -10.92313,30.84206 -17.07175,46.0039 -4.08132,10.06413 -8.60302,20.1528 -15.70279,28.41602 -1.39718,1.62613 -2.90518,3.19773 -3.89136,5.0957 -0.49308,0.94899 -0.84906,1.97574 -0.95911,3.03711 -0.11006,1.06137 0.0328,2.15868 0.49435,3.12305 0.52611,1.09927 1.43566,1.97889 2.42945,2.69531 0.99379,0.71642 2.0849,1.29099 3.12028,1.94727 3.70045,2.34549 6.69986,5.75928 8.53482,9.70898 0.71933,12.50888 1.14615,25.03412 1.28022,37.5625 0.2153,20.11755 -0.32437,40.2351 -0.42674,60.35352 -0.083,16.31918 0.1217,32.63808 0,48.95703 -0.13961,18.7205 -0.70868,37.43784 -1.70697,56.13281 h 70.84529 70.84529 c -0.99829,-18.69497 -1.56736,-37.41231 -1.70698,-56.13281 -0.12169,-16.31895 0.083,-32.63785 0,-48.95703 -0.10235,-20.11842 -0.64204,-40.23597 -0.42673,-60.35352 0.13407,-12.52838 0.56089,-25.05362 1.28021,-37.5625 1.83496,-3.9497 4.83438,-7.36349 8.53483,-9.70898 1.03538,-0.65628 2.12437,-1.23085 3.11816,-1.94727 0.99378,-0.71642 1.90334,-1.59604 2.42946,-2.69531 0.46155,-0.96437 0.6065,-2.06168 0.49645,-3.12305 -0.11005,-1.06137 -0.46602,-2.08812 -0.9591,-3.03711 -0.98619,-1.89797 -2.49421,-3.46957 -3.89138,-5.0957 -7.09975,-8.26322 -11.62146,-18.35189 -15.70278,-28.41602 -6.14861,-15.16184 -11.51815,-30.61913 -17.07174,-46.0039 C 397.64004,117.26022 388.9507,94.484297 380.15274,71.75 373.16048,53.681713 366.09901,35.638974 358.96993,17.623047 Z"
     id="path4012"
     inkscape:connector-curvature="0"
     sodipodi:nodetypes="csscccccsccscsccccccccccscssssc" />
  <path
     style="fill:#ffffff;stroke:#ffffff;stroke-width:1.01149511px;stroke-linecap:butt;stroke-linejoin:miter;stroke-opacity:1"
     d="M 351.4082 59.109375 C 351.00995 59.102375 350.62082 59.266949 350.31445 59.521484 C 350.00808 59.776019 349.77974 60.115766 349.61523 60.478516 C 349.28621 61.204015 349.19949 62.014111 348.96484 62.775391 C 348.74025 63.504065 348.38297 64.182002 348.0918 64.886719 C 347.80062 65.591435 347.57316 66.345305 347.63281 67.105469 C 347.70931 68.079653 348.24896 68.961519 348.89648 69.693359 C 349.54401 70.4252 350.30884 71.047232 350.96484 71.771484 C 351.50803 72.371191 351.97446 73.039455 352.54688 73.611328 C 353.1193 74.183201 353.82651 74.665251 354.62891 74.769531 C 355.26028 74.851581 355.89458 74.69493 356.51562 74.554688 C 357.13668 74.414446 357.78669 74.29082 358.40625 74.4375 C 358.90323 74.55516 359.34163 74.837399 359.8125 75.035156 C 360.04794 75.134036 360.29446 75.211893 360.54883 75.234375 C 360.80319 75.256855 361.06678 75.222035 361.29297 75.103516 C 361.54269 74.972665 361.73593 74.745644 361.85938 74.492188 C 361.98282 74.238727 362.04093 73.95832 362.06836 73.677734 C 362.12326 73.116563 362.05676 72.543993 362.18164 71.994141 C 362.32642 71.356463 362.71541 70.804915 363.06445 70.251953 C 363.23897 69.975472 363.40609 69.692676 363.53125 69.390625 C 363.6564 69.088574 363.7377 68.766404 363.73633 68.439453 C 363.73533 68.099141 363.64282 67.762911 363.50195 67.453125 C 363.36107 67.143339 363.1718 66.858527 362.9707 66.583984 C 362.56851 66.034898 362.10918 65.513956 361.84961 64.884766 C 361.5413 64.137442 361.54363 63.305294 361.45312 62.501953 C 361.40792 62.100283 361.33762 61.697905 361.19336 61.320312 C 361.0491 60.942721 360.82698 60.589811 360.51562 60.332031 C 360.25896 60.119523 359.94674 59.976883 359.62109 59.90625 C 359.29544 59.83562 358.95609 59.834699 358.62695 59.886719 C 357.89907 60.001749 357.23893 60.366086 356.55664 60.644531 C 356.21549 60.783754 355.86427 60.90163 355.5 60.957031 C 355.13573 61.012431 354.75793 61.002699 354.4082 60.886719 C 353.84724 60.700683 353.41054 60.267038 352.96484 59.878906 C 352.74199 59.68484 352.51073 59.498145 352.25195 59.355469 C 351.99317 59.212793 351.70366 59.114535 351.4082 59.109375 z M 347.54492 75.904297 C 346.45182 75.931017 345.36763 76.297962 344.52344 76.990234 C 343.51674 77.815768 342.89344 79.04632 342.63477 80.322266 C 342.59727 80.507291 342.56657 80.695103 342.52344 80.878906 C 342.25645 82.017571 341.52744 82.980381 340.9375 83.990234 C 340.64253 84.495161 340.37796 85.023583 340.22461 85.587891 C 340.07126 86.152198 340.0337 86.757206 340.19141 87.320312 C 340.36449 87.93835 340.75909 88.47003 341.18164 88.953125 C 341.60419 89.43622 342.06488 89.889909 342.41211 90.429688 C 342.88328 91.162141 343.12328 92.01813 343.54297 92.78125 C 343.75281 93.16281 344.01149 93.525163 344.34375 93.806641 C 344.676 94.088119 345.08713 94.287309 345.52148 94.318359 C 345.98249 94.351319 346.44081 94.194146 346.83984 93.960938 C 347.23887 93.727728 347.5879 93.419177 347.93945 93.119141 C 348.29101 92.819104 348.65256 92.522185 349.06641 92.316406 C 349.48025 92.110628 349.95582 92.001033 350.4082 92.095703 C 350.80739 92.179243 351.1633 92.418795 351.4375 92.720703 C 351.71169 93.022611 351.91076 93.385275 352.07227 93.759766 C 352.39531 94.508747 352.58839 95.329166 353.07422 95.984375 C 353.44403 96.483129 353.96988 96.857654 354.54883 97.082031 C 355.12777 97.306408 355.75925 97.383143 356.37891 97.34375 C 357.61821 97.26496 358.78484 96.732766 359.84961 96.09375 C 360.54312 95.677542 361.21198 95.208976 361.76953 94.623047 C 362.3271 94.037118 362.77081 93.327641 362.95898 92.541016 C 363.11319 91.896391 363.09247 91.220213 363.22266 90.570312 C 363.28776 90.245363 363.39228 89.926505 363.56641 89.644531 C 363.74053 89.362558 363.98939 89.119256 364.29297 88.986328 C 364.65734 88.826779 365.08237 88.835118 365.45703 88.96875 C 365.8317 89.102386 366.15765 89.353531 366.41797 89.654297 C 366.9386 90.255828 367.19965 91.032717 367.51367 91.763672 C 367.84406 92.532728 368.26914 93.300287 368.96094 93.771484 C 369.30683 94.007083 369.71641 94.159035 370.13477 94.169922 C 370.55314 94.180812 370.97949 94.043348 371.28906 93.761719 C 371.51814 93.553318 371.678 93.274721 371.76172 92.976562 C 371.84542 92.678404 371.85455 92.361777 371.81445 92.054688 C 371.73435 91.440506 371.45833 90.870535 371.17773 90.318359 C 369.96547 87.932798 368.58703 85.588971 367.95703 82.988281 C 367.6643 81.779868 367.53575 80.521528 367.05469 79.375 C 366.81415 78.801736 366.48257 78.259764 366.03516 77.828125 C 365.58776 77.396486 365.0176 77.079379 364.40234 76.990234 C 363.9586 76.925944 363.50442 76.981034 363.07422 77.107422 C 362.64402 77.233805 362.23716 77.430226 361.84766 77.652344 C 361.06867 78.09658 360.34434 78.647597 359.51562 78.990234 C 358.61386 79.363077 357.61529 79.474191 356.64453 79.375 C 355.67378 79.27581 354.72985 78.97209 353.85156 78.546875 C 352.97561 78.122792 352.16349 77.579754 351.32031 77.09375 C 350.47714 76.607746 349.58904 76.173209 348.63281 75.992188 C 348.27525 75.924498 347.90929 75.895387 347.54492 75.904297 z M 368.25781 96.519531 C 367.59739 96.487291 366.92944 96.583121 366.29102 96.761719 C 364.43502 97.280924 362.84946 98.460019 361.18164 99.425781 C 359.63106 100.32366 357.95654 101.05539 356.18359 101.31445 C 355.08128 101.47552 353.95712 101.45147 352.85156 101.31445 C 350.87704 101.06975 348.94857 100.46298 347.1875 99.537109 C 345.59434 98.699523 344.08078 97.583459 342.30078 97.316406 C 341.19653 97.150737 340.04089 97.337156 339.04883 97.849609 C 338.05676 98.362064 337.23475 99.198185 336.74805 100.20312 C 336.26279 101.20511 336.11621 102.33527 336.03125 103.44531 C 335.94625 104.55536 335.91418 105.6777 335.63672 106.75586 C 335.05732 109.00728 333.45819 110.87361 332.75 113.08789 C 332.59402 113.5756 332.48251 114.08029 332.45898 114.5918 C 332.43548 115.1033 332.50089 115.62236 332.69141 116.09766 C 332.88189 116.57295 333.20014 117.00232 333.62305 117.29102 C 334.04595 117.57971 334.57614 117.7198 335.08203 117.64062 C 335.42603 117.58683 335.74982 117.43617 336.0293 117.22852 C 336.30877 117.02087 336.54459 116.75855 336.74609 116.47461 C 337.1491 115.90674 337.41686 115.25512 337.74805 114.64258 C 338.04809 114.08764 338.40833 113.55432 338.89453 113.15234 C 339.38075 112.75037 340.00542 112.48966 340.63477 112.5332 C 341.08402 112.5643 341.51533 112.74797 341.87891 113.01367 C 342.24248 113.27937 342.54208 113.62419 342.79883 113.99414 C 343.31232 114.73405 343.66058 115.5796 344.18945 116.30859 C 344.65465 116.94983 345.26417 117.49584 345.98242 117.83008 C 346.70068 118.16431 347.53024 118.27799 348.29883 118.08594 C 349.02473 117.90455 349.66884 117.45954 350.16602 116.90039 C 350.66321 116.34124 351.02085 115.67201 351.29688 114.97656 C 351.49482 114.47788 351.65335 113.96166 351.89844 113.48438 C 352.14353 113.00709 352.4884 112.561 352.96289 112.31055 C 353.3695 112.09592 353.84961 112.03986 354.30469 112.10547 C 354.75976 112.17107 355.19215 112.35251 355.58594 112.58984 C 356.3735 113.06452 357.00933 113.7506 357.74023 114.30859 C 358.38443 114.80039 359.11036 115.19413 359.89258 115.40625 C 360.67479 115.61837 361.5142 115.6443 362.29297 115.41992 C 362.93937 115.23363 363.52704 114.88249 364.06641 114.48047 C 364.60577 114.07845 365.10343 113.62407 365.625 113.19922 C 366.10202 112.81065 366.60458 112.44345 367.16406 112.1875 C 367.72354 111.93155 368.34646 111.78951 368.95703 111.86523 C 369.4556 111.92703 369.92933 112.13122 370.35352 112.40039 C 370.77772 112.66956 371.15646 113.00274 371.52539 113.34375 C 372.26325 114.02576 373.00232 114.76683 373.95508 115.08594 C 374.58913 115.2983 375.28825 115.30522 375.93164 115.12305 C 376.57503 114.94089 377.16023 114.57424 377.61914 114.08789 C 378.30021 113.36609 378.68942 112.4025 378.8418 111.42188 C 379.029 110.21712 378.8772 108.96872 378.45703 107.82422 C 378.03682 106.67971 377.35323 105.63818 376.50977 104.75781 C 375.8638 104.08357 375.12649 103.50266 374.43164 102.87891 C 373.73679 102.25515 373.07544 101.5766 372.62305 100.75977 C 372.09995 99.815272 371.86549 98.703361 371.17773 97.871094 C 370.61468 97.189735 369.78271 96.759215 368.91406 96.595703 C 368.6969 96.554823 368.47795 96.530271 368.25781 96.519531 z M 370.26758 118.04883 C 369.90943 118.04783 369.54817 118.14713 369.22852 118.3125 C 368.80233 118.53302 368.44257 118.86592 368.13281 119.23242 C 367.5133 119.96542 367.0784 120.8481 366.40234 121.5293 C 365.76998 122.16647 364.94274 122.6014 364.06445 122.78711 C 363.18616 122.97282 362.25975 122.91084 361.4043 122.63867 C 360.01334 122.19613 358.85322 121.22944 357.51758 120.64062 C 356.16292 120.04346 354.59536 119.8548 353.18555 120.30664 C 351.74743 120.76755 350.58258 121.83973 349.1875 122.41797 C 348.03707 122.8948 346.76596 123.01873 345.52148 122.97266 C 342.5254 122.86173 339.63053 121.79966 336.63672 121.63867 C 335.26229 121.56477 333.86509 121.68607 332.56055 122.125 C 331.256 122.56395 330.04598 123.33395 329.19531 124.41602 C 328.02742 125.90159 327.62278 127.8249 327.08594 129.63672 C 326.49319 131.6372 325.70176 133.5857 325.30859 135.63477 C 325.09665 136.73936 325.01037 137.91866 325.44727 138.95508 C 325.66573 139.47328 326.01488 139.9424 326.48047 140.25781 C 326.94606 140.57323 327.52963 140.72745 328.08398 140.63281 C 328.53895 140.55511 328.95828 140.31543 329.29883 140.00391 C 329.63938 139.69238 329.90593 139.30986 330.13672 138.91016 C 330.59829 138.11076 330.92709 137.22276 331.52734 136.52148 C 332.08397 135.87118 332.86463 135.41435 333.70508 135.25195 C 334.54552 135.08956 335.44138 135.22575 336.19336 135.63477 C 337.018 136.08325 337.6399 136.82977 338.13867 137.625 C 338.63745 138.42023 339.03279 139.2771 339.52539 140.07617 C 340.02338 140.88397 340.64504 141.6512 341.48242 142.09766 C 341.90111 142.32088 342.36932 142.4579 342.84375 142.46484 C 343.31818 142.47184 343.79816 142.34454 344.18945 142.07617 C 344.51895 141.85019 344.77821 141.53154 344.97461 141.18359 C 345.171 140.83565 345.30692 140.45763 345.42578 140.07617 C 345.66348 139.31326 345.84088 138.51032 346.29883 137.85547 C 346.73014 137.2387 347.40248 136.79336 348.14062 136.64648 C 348.87878 136.49961 349.67611 136.65548 350.29883 137.07812 C 351.04873 137.58713 351.50127 138.41845 351.9375 139.21289 C 352.15561 139.61011 352.37758 140.00779 352.64844 140.37109 C 352.9193 140.7344 353.24066 141.06511 353.62891 141.29883 C 354.23076 141.66114 354.96505 141.77081 355.66211 141.68359 C 356.35917 141.59639 357.02371 141.32155 357.62891 140.96484 C 359.03833 140.13411 360.13977 138.86711 361.07031 137.52148 C 361.65408 136.6773 362.18919 135.78422 362.94141 135.08594 C 363.31751 134.7368 363.74892 134.43962 364.22656 134.25195 C 364.7042 134.06428 365.23109 133.98819 365.73633 134.07812 C 366.44963 134.20514 367.07011 134.64751 367.58789 135.1543 C 368.10567 135.66108 368.54621 136.24186 369.06836 136.74414 C 369.92731 137.5704 371.00967 138.17326 372.17773 138.41016 C 373.64382 138.7075 375.18904 138.42046 376.54883 137.79688 C 377.90862 137.17333 379.09812 136.22902 380.17383 135.18945 C 381.17624 134.22071 382.09848 133.15347 382.78711 131.94141 C 383.47573 130.72935 383.92603 129.3645 383.95117 127.9707 C 383.98677 125.99611 383.18362 124.11708 382.72852 122.19531 C 382.55781 121.47445 382.43195 120.73228 382.11133 120.06445 C 381.95102 119.73054 381.74262 119.41768 381.47266 119.16406 C 381.20272 118.91045 380.87001 118.71816 380.50781 118.64062 C 380.21741 118.57842 379.91446 118.5918 379.625 118.6582 C 379.33554 118.7246 379.05987 118.84359 378.80273 118.99219 C 378.28846 119.28938 377.85015 119.6983 377.39844 120.08398 C 376.96081 120.45763 376.49856 120.81581 375.9707 121.04492 C 375.44285 121.27404 374.83861 121.36597 374.28906 121.19531 C 373.89847 121.07402 373.55527 120.82782 373.26562 120.53906 C 372.97598 120.25031 372.73335 119.91727 372.48828 119.58984 C 372.2432 119.26242 371.99306 118.93614 371.68945 118.66211 C 371.38584 118.38808 371.02373 118.16793 370.62305 118.08594 C 370.50551 118.06194 370.38696 118.04923 370.26758 118.04883 z M 386.72656 137.52148 C 385.26431 139.68253 383.36397 141.54655 381.17383 142.96484 C 380.23439 143.5732 379.23366 144.10416 378.1582 144.41406 C 377.08275 144.72396 375.92604 144.80463 374.84375 144.51953 C 373.74319 144.22962 372.77756 143.58277 371.79883 143.00195 C 370.82009 142.42114 369.76073 141.88428 368.62305 141.85352 C 367.89008 141.83372 367.16167 142.0296 366.50195 142.34961 C 365.84223 142.66962 365.24772 143.11106 364.69922 143.59766 C 363.60221 144.57086 362.67434 145.73006 361.51562 146.62891 C 360.56522 147.36616 359.45995 147.91848 358.28125 148.1582 C 357.10255 148.39793 355.84943 148.31684 354.74023 147.85156 C 353.70657 147.41797 352.83781 146.67755 351.94336 146.00195 C 351.04891 145.32636 350.07275 144.68986 348.96484 144.51953 C 348.27403 144.41332 347.5656 144.49593 346.88867 144.66992 C 346.21174 144.84392 345.56024 145.10754 344.91211 145.36914 C 344.26398 145.63074 343.61386 145.89203 342.93555 146.06055 C 342.25723 146.22907 341.54643 146.30292 340.85742 146.18555 C 339.82904 146.01036 338.92064 145.42618 338.07422 144.81641 C 337.22779 144.20664 336.39446 143.54738 335.41602 143.18555 C 334.59196 142.8808 333.68765 142.80118 332.82031 142.94141 C 331.95297 143.08163 331.12388 143.44175 330.41797 143.96484 C 329.32172 144.77718 328.53706 145.95968 327.41797 146.74023 C 326.18804 147.59809 324.6678 147.8948 323.23828 148.34766 C 322.52351 148.57408 321.81737 148.84549 321.18359 149.24609 C 320.54981 149.6467 319.98957 150.18395 319.64453 150.84961 C 319.30594 151.50283 319.18804 152.25253 319.19141 152.98828 C 319.19441 153.72403 319.31342 154.45392 319.42188 155.18164 C 319.58103 156.24949 319.72727 157.34456 320.22852 158.30078 C 320.47915 158.77889 320.81909 159.21651 321.25195 159.53906 C 321.68481 159.86161 322.2141 160.06509 322.75391 160.06836 C 323.22684 160.07136 323.68973 159.92331 324.11133 159.70898 C 324.53293 159.49466 324.91899 159.2159 325.30273 158.93945 C 325.68647 158.663 326.07339 158.38595 326.49805 158.17773 C 326.9227 157.96952 327.39061 157.83112 327.86328 157.84766 C 328.34954 157.86466 328.81987 158.0445 329.22852 158.30859 C 329.63718 158.57269 329.98885 158.91816 330.31055 159.2832 C 330.95394 160.01329 331.50464 160.8464 332.30469 161.40039 C 333.07613 161.93458 334.0374 162.16712 334.97461 162.12109 C 335.91182 162.07509 336.82546 161.76255 337.63672 161.29102 C 339.20385 160.38013 340.41101 158.89127 342.07812 158.17969 C 343.19531 157.70284 344.46043 157.61392 345.6543 157.83789 C 346.84817 158.06186 347.97304 158.58971 348.96484 159.29102 C 349.74734 159.84432 350.4493 160.50366 351.20898 161.08789 C 351.96866 161.67213 352.80554 162.18875 353.74023 162.40039 C 354.82133 162.64518 355.97047 162.45989 356.99023 162.02539 C 358.01 161.5909 358.91268 160.91933 359.73828 160.17969 C 360.67256 159.34268 361.5261 158.40713 362.55078 157.68359 C 363.06311 157.32183 363.61916 157.01464 364.21484 156.81836 C 364.81053 156.62207 365.44707 156.53916 366.06836 156.625 C 366.98531 156.75169 367.81609 157.235 368.55469 157.79297 C 369.29328 158.35093 369.96848 158.99381 370.73438 159.51367 C 371.97915 160.35858 373.44662 160.85788 374.94336 161.00977 C 376.4401 161.16165 377.96341 160.96957 379.39648 160.51172 C 380.74602 160.08058 382.05369 159.38722 382.95117 158.29102 C 383.44044 157.69342 383.794 156.99573 384.27148 156.38867 C 384.51023 156.08514 384.78084 155.80392 385.09961 155.58594 C 385.41837 155.36795 385.78713 155.21472 386.17188 155.18164 C 386.69549 155.13664 387.22098 155.31683 387.66016 155.60547 C 388.09935 155.89411 388.46186 156.286 388.78906 156.69727 C 389.11626 157.10853 389.4135 157.54295 389.75391 157.94336 C 390.0943 158.34376 390.48204 158.71257 390.94727 158.95703 C 391.27004 159.12663 391.62831 159.23468 391.99219 159.25781 C 392.35606 159.28091 392.72629 159.21841 393.05859 159.06836 C 393.65223 158.8003 394.0962 158.26032 394.33984 157.65625 C 394.58349 157.05218 394.64185 156.38705 394.61328 155.73633 C 394.55468 154.40125 394.14281 153.10597 393.63672 151.86914 C 393.13063 150.63232 392.52699 149.43518 392.05859 148.18359 C 391.17917 145.83371 390.77728 143.2999 389.61523 141.07617 C 388.90349 139.71417 387.91402 138.49696 386.72656 137.52148 z M 389.38281 161.68555 C 389.09685 161.67385 388.81039 161.67636 388.52539 161.69336 C 388.14539 161.71606 387.76805 161.76646 387.39453 161.8457 C 385.13418 162.32504 383.24806 163.82563 381.17383 164.84375 C 379.68582 165.57413 378.05604 166.06557 376.39844 166.06641 C 373.9329 166.06741 371.61347 165.00547 369.29102 164.17773 C 368.36239 163.84676 367.41395 163.54986 366.4375 163.41406 C 365.46104 163.27826 364.45022 163.30933 363.51562 163.62305 C 362.115 164.09321 360.98696 165.1552 359.62695 165.73242 C 358.17139 166.35019 356.54396 166.37568 354.96289 166.39844 C 353.39941 166.42094 351.81509 166.44844 350.29883 166.06641 C 349.35842 165.82949 348.46344 165.43953 347.55664 165.0957 C 346.64984 164.75187 345.71265 164.45035 344.74414 164.40039 C 343.45907 164.33409 342.19438 164.71451 340.98438 165.15234 C 339.77436 165.59017 338.57458 166.09364 337.30273 166.28906 C 335.89866 166.5048 334.45792 166.33366 333.08398 165.97266 C 331.71005 165.61175 330.3925 165.06466 329.08398 164.51172 C 327.72001 163.93535 326.33463 163.34432 324.86328 163.17773 C 323.27337 162.99772 321.64319 163.33167 320.20703 164.03711 C 318.77086 164.74254 317.52551 165.81122 316.5332 167.06641 C 315.16433 168.79791 314.27822 170.85701 313.54102 172.9375 C 312.80383 175.01798 312.19942 177.14983 311.31445 179.17188 C 311.04291 179.79228 310.74381 180.40411 310.5625 181.05664 C 310.38119 181.70917 310.3237 182.41585 310.53711 183.05859 C 310.75179 183.70508 311.23143 184.24534 311.81445 184.59766 C 312.39747 184.94998 313.07812 185.12454 313.75781 185.16992 C 314.89251 185.24572 316.06572 184.95954 316.97852 184.28125 C 317.64765 183.78403 318.15182 183.10283 318.69531 182.4707 C 319.2388 181.83857 319.85726 181.22895 320.64258 180.94922 C 321.2938 180.71726 322.0186 180.73415 322.68555 180.91602 C 323.35251 181.09786 323.96768 181.43753 324.53125 181.83789 C 325.876 182.7932 326.94369 184.08831 328.25586 185.08789 C 328.91195 185.58769 329.63432 186.01534 330.42383 186.25391 C 331.21334 186.49247 332.07678 186.53373 332.86133 186.2793 C 333.82987 185.96523 334.61092 185.22773 335.19336 184.39258 C 335.72006 183.63735 336.10993 182.79142 336.6543 182.04883 C 336.92648 181.67753 337.23874 181.33235 337.60742 181.05664 C 337.9761 180.78092 338.40267 180.57566 338.85742 180.50391 C 339.34107 180.42761 339.84306 180.50384 340.30078 180.67773 C 340.75849 180.85163 341.17422 181.12103 341.55273 181.43164 C 342.30974 182.05285 342.91761 182.83709 343.63477 183.50391 C 345.04581 184.81591 346.86055 185.64408 348.74219 186.05859 C 349.99961 186.33559 351.31443 186.43438 352.57617 186.17773 C 353.8379 185.92107 355.047 185.2865 355.85156 184.28125 C 356.2635 183.76656 356.55957 183.17096 356.86719 182.58789 C 357.1748 182.00482 357.50156 181.42205 357.96094 180.94922 C 358.23424 180.66792 358.55462 180.42694 358.91797 180.2793 C 359.28131 180.13165 359.69069 180.0812 360.07227 180.17188 C 360.47734 180.26808 360.83431 180.51805 361.10547 180.83398 C 361.37663 181.14991 361.56727 181.52987 361.71289 181.91992 C 362.00413 182.70001 362.12948 183.54351 362.51562 184.28125 C 362.87689 184.97144 363.45779 185.53748 364.13867 185.91602 C 364.81954 186.29456 365.59636 186.4892 366.375 186.51367 C 367.93228 186.56257 369.45289 185.94477 370.73438 185.05859 C 371.94428 184.22192 372.9713 183.15207 374.06641 182.16992 C 374.85725 181.46065 375.69461 180.79002 376.64648 180.31836 C 377.59834 179.84669 378.67799 179.58238 379.73047 179.72656 C 380.85754 179.88095 381.87113 180.48457 382.79492 181.14844 C 383.71872 181.81231 384.59732 182.55463 385.61719 183.05859 C 386.28525 183.38871 387.00992 183.61134 387.75195 183.67969 C 388.49398 183.74799 389.2539 183.66059 389.94922 183.39258 C 390.75471 183.08215 391.44912 182.54263 392.0957 181.9707 C 392.74228 181.39876 393.35652 180.78546 394.05859 180.2832 C 394.69743 179.82618 395.40948 179.46391 396.16797 179.25977 C 396.92647 179.05564 397.73101 179.0118 398.5 179.17188 C 399.6422 179.40971 400.64076 180.07622 401.60938 180.72656 C 402.82842 181.54504 404.051 182.35944 405.27539 183.16992 C 405.30729 180.74901 405.08394 178.32533 404.60938 175.95117 C 404.18235 173.81486 403.54079 171.6908 402.38867 169.8418 C 400.86381 167.3946 398.52522 165.55642 396.05664 164.06641 C 394.74905 163.27716 393.38268 162.5663 391.91992 162.12695 C 391.09711 161.87982 390.24071 161.72068 389.38281 161.68555 z M 400.97852 184.53516 C 400.30576 184.52816 399.63204 184.58406 398.9707 184.69922 C 397.24651 184.99956 395.60514 185.68828 394.10156 186.58398 C 393.0179 187.22954 391.99623 187.98497 390.85742 188.52734 C 389.71861 189.06972 388.41815 189.39115 387.19141 189.09766 C 386.45836 188.92228 385.79174 188.53839 385.16406 188.12109 C 384.53638 187.7038 383.9322 187.24654 383.26367 186.89844 C 381.50209 185.98118 379.40207 185.88726 377.45312 186.26953 C 375.17615 186.71614 373.06682 187.76588 370.85547 188.46875 C 369.80568 188.80242 368.72374 189.06025 367.62305 189.10352 C 366.52236 189.14682 365.3982 188.96746 364.41602 188.46875 C 363.75104 188.13109 363.16551 187.65678 362.54297 187.24609 C 361.92043 186.83541 361.2322 186.48048 360.48828 186.42773 C 359.79654 186.37873 359.11063 186.59643 358.49219 186.91016 C 357.87374 187.22388 357.30794 187.63233 356.71875 187.99805 C 355.04677 189.03584 353.16467 189.73324 351.2207 190.03906 C 348.7183 190.43273 346.06347 190.1529 343.83984 188.93945 C 343.28573 188.63707 342.76143 188.28125 342.19727 187.99805 C 341.63312 187.71484 341.01367 187.5031 340.38281 187.52539 C 339.63568 187.55179 338.9377 187.90159 338.31445 188.31445 C 337.6912 188.72732 337.11439 189.21229 336.45703 189.56836 C 335.58582 190.04027 334.59776 190.26846 333.60938 190.33789 C 332.62101 190.40729 331.62727 190.32349 330.64453 190.19727 C 327.54381 189.79891 324.49819 188.99101 321.37891 188.7832 C 318.91272 188.6189 316.43151 188.8323 313.99609 189.25391 C 311.04653 189.76453 308.07817 190.6159 305.67188 192.39648 C 304.67854 193.13153 303.79193 194.0215 303.12305 195.06055 C 302.45416 196.0996 302.00564 197.29025 301.90039 198.52148 C 301.76607 200.09282 302.19769 201.692 303.02734 203.0332 C 303.857 204.3744 305.07357 205.46166 306.45703 206.21875 C 307.56112 206.82296 308.78521 207.22501 310.04102 207.30859 C 311.29684 207.39219 312.58374 207.14663 313.68164 206.53125 C 314.65517 205.98558 315.44999 205.17424 316.17773 204.32812 C 316.90547 203.48201 317.58446 202.58796 318.39453 201.82031 C 319.47151 200.79973 320.83789 199.9981 322.32031 199.93555 C 323.62333 199.88055 324.89571 200.40207 325.97461 201.13477 C 327.05351 201.86747 327.9728 202.80644 328.91797 203.70508 C 329.62324 204.37563 330.3517 205.03146 331.18555 205.5332 C 332.0194 206.03494 332.9702 206.3783 333.94336 206.375 C 334.89966 206.372 335.83117 206.03339 336.66016 205.55664 C 337.48917 205.0799 338.23027 204.46654 338.9707 203.86133 C 339.76655 203.21083 340.5738 202.56118 341.49023 202.0957 C 342.40667 201.63022 343.44974 201.35709 344.4668 201.50586 C 345.51315 201.65892 346.4481 202.24186 347.2832 202.89062 C 348.1183 203.5394 348.89556 204.27115 349.80859 204.80469 C 351.03812 205.52317 352.46954 205.85025 353.89258 205.9043 C 356.48021 206.0026 359.11411 205.18795 361.11719 203.54688 C 362.08227 202.75618 362.89213 201.79125 363.85352 200.99609 C 364.33422 200.59851 364.85512 200.24414 365.42578 199.99219 C 365.99643 199.74023 366.619 199.59331 367.24219 199.62109 C 368.26646 199.66679 369.22349 200.17755 370.00781 200.83789 C 370.79214 201.49823 371.43318 202.30719 372.11133 203.07617 C 373.11093 204.20966 374.22472 205.2846 375.58203 205.94922 C 376.26069 206.28153 376.99486 206.50551 377.74805 206.56641 C 378.50124 206.62731 379.27268 206.52191 379.96484 206.21875 C 380.75384 205.87316 381.41554 205.28548 381.98438 204.63867 C 382.55322 203.99187 383.04176 203.27944 383.57812 202.60547 C 384.54787 201.38696 385.69644 200.28229 387.07227 199.55273 C 388.44811 198.82318 390.06909 198.49183 391.58789 198.83594 C 392.72096 199.09266 393.74627 199.7074 394.65625 200.42969 C 395.56623 201.15197 396.37994 201.98524 397.24414 202.76172 C 398.07125 203.50487 398.95504 204.20247 399.96484 204.66797 C 400.97465 205.13346 402.12648 205.356 403.21289 205.11914 C 404.19676 204.90464 405.06685 204.33165 405.83594 203.68164 C 406.60502 203.03163 407.29763 202.29355 408.08203 201.66211 C 408.78611 201.09534 409.55866 200.61899 410.25195 200.03906 C 410.94524 199.45914 411.57051 198.75163 411.85156 197.89258 C 412.14793 196.98671 412.03646 196.00142 411.85156 195.06641 C 411.56167 193.60042 411.09705 192.16517 410.4375 190.82422 C 409.55807 189.03624 408.30912 187.39951 406.66797 186.26953 C 405.00923 185.12744 402.9968 184.55521 400.97852 184.53516 z M 416.40625 202.29102 C 416.13698 202.26662 415.8634 202.31242 415.61133 202.41016 C 415.35925 202.50796 415.12837 202.65665 414.92773 202.83789 C 414.52647 203.20037 414.2484 203.68224 414.04102 204.18164 C 413.83365 204.68104 413.6906 205.20387 413.51367 205.71484 C 413.33674 206.22582 413.12255 206.73146 412.79297 207.16016 C 412.15291 207.9927 411.135 208.456 410.10938 208.68164 C 409.08377 208.90728 408.02579 208.92592 406.98242 209.04492 C 405.34874 209.23126 403.75289 209.66601 402.13086 209.93555 C 400.50883 210.20508 398.81858 210.30417 397.24414 209.83008 C 396.3437 209.55894 395.50526 209.10714 394.73047 208.57422 C 393.87101 207.98306 393.08198 207.28924 392.19141 206.74609 C 391.30083 206.20294 390.27133 205.81048 389.23242 205.9043 C 388.53084 205.9676 387.86265 206.24998 387.26758 206.62695 C 386.6725 207.00393 386.14431 207.47365 385.62109 207.94531 C 384.11345 209.30439 382.59988 210.72311 380.75 211.55859 C 378.34181 212.64624 375.47248 212.6247 373.05469 211.55859 C 371.73522 210.97679 370.56165 210.10922 369.44141 209.20117 C 368.95613 208.80782 368.47617 208.40377 367.93164 208.09766 C 367.38711 207.79155 366.76567 207.58641 366.14258 207.63086 C 365.72184 207.66086 365.31452 207.80383 364.94531 208.00781 C 364.5761 208.2118 364.24377 208.47604 363.93164 208.75977 C 363.30739 209.32722 362.75378 209.98107 362.05859 210.45898 C 360.77927 211.33847 359.1494 211.53407 357.59766 211.48633 C 356.04593 211.43863 354.50012 211.17448 352.94922 211.24414 C 352.06368 211.28394 351.1833 211.43243 350.29688 211.43555 C 349.41046 211.43855 348.49136 211.28243 347.76562 210.77344 C 347.24716 210.40981 346.8629 209.89174 346.4707 209.39453 C 346.0785 208.89732 345.65506 208.40042 345.0957 208.10352 C 344.54044 207.80879 343.88484 207.73527 343.26172 207.81836 C 342.6386 207.90146 342.0431 208.13173 341.48242 208.41602 C 340.14251 209.0954 338.96259 210.08587 337.55664 210.61523 C 336.06664 211.17624 334.43458 211.1802 332.84375 211.24414 C 331.98889 211.27854 331.13261 211.33123 330.2793 211.26953 C 329.42598 211.20783 328.56893 211.02585 327.81836 210.61523 C 326.8609 210.09144 326.12208 209.22352 325.14844 208.73047 C 324.21301 208.25678 323.11264 208.16543 322.08008 208.34766 C 321.04751 208.52988 320.07611 208.97172 319.17969 209.51562 C 317.99303 210.23565 316.89356 211.15211 315.56641 211.55859 C 314.00534 212.03672 312.32949 211.75203 310.69727 211.71484 C 309.62053 211.69034 308.54138 211.77542 307.4668 211.70312 C 306.39221 211.63082 305.29824 211.38841 304.41406 210.77344 C 303.52925 210.15802 302.92672 209.22524 302.21484 208.41602 C 301.32909 207.40914 300.2157 206.55633 298.91992 206.21094 C 298.27203 206.03824 297.58618 205.99642 296.92773 206.12305 C 296.26929 206.24969 295.63955 206.54951 295.14648 207.00391 C 294.42849 207.66559 294.03608 208.6168 293.86523 209.57812 C 293.69439 210.53947 293.72622 211.52364 293.73438 212.5 C 293.74797 214.1243 293.69437 215.74909 293.57617 217.36914 C 295.13098 217.08688 296.70914 216.92965 298.28906 216.89844 C 302.9834 216.80574 307.61674 217.82446 312.26758 218.46875 C 327.6451 220.59903 343.25037 218.63385 358.76172 217.99805 C 373.36027 217.39966 387.97686 217.98425 402.58398 218.3125 C 411.32618 218.50895 420.07006 218.61398 428.81445 218.62695 C 428.54112 217.70222 428.17191 216.80611 427.71484 215.95703 C 426.35114 213.42373 424.25333 211.38044 422.375 209.20117 C 421.00663 207.61357 419.74289 205.93623 418.60547 204.17578 C 418.33361 203.75501 418.06633 203.32572 417.71289 202.9707 C 417.35945 202.61569 416.90516 202.33616 416.40625 202.29102 z M 335.1875 221.73633 C 334.29811 221.77353 333.40556 221.9432 332.54297 222.16992 C 331.00946 222.57299 329.52268 223.15318 327.97461 223.49609 C 323.61577 224.46163 319.08949 223.50209 314.625 223.49609 C 310.08746 223.49009 305.61359 224.47142 301.11523 225.06641 C 298.666 225.39036 296.20313 225.60071 293.73438 225.69531 C 293.37791 226.0909 293.12728 226.58048 293.01758 227.10156 C 292.90788 227.62264 292.93877 228.17395 293.10547 228.67969 C 293.29892 229.26654 293.67226 229.7858 294.13672 230.19336 C 294.60118 230.60091 295.1547 230.89878 295.73633 231.10742 C 296.89958 231.52471 298.15519 231.58778 299.38867 231.66406 C 302.21536 231.83886 305.03716 232.11033 307.86914 232.13477 C 315.3703 232.19947 322.87565 230.52861 330.33203 231.34961 C 335.44071 231.91211 340.42763 233.63819 345.56641 233.54883 C 347.67192 233.51223 349.7586 233.16939 351.84961 232.91992 C 355.96609 232.42881 360.11528 232.29633 364.25781 232.13477 C 378.70554 231.57129 393.17598 230.65057 407.60938 231.50586 C 412.53346 231.79765 417.50561 232.29376 422.375 231.50586 C 423.8794 231.26244 425.41432 230.87379 426.61523 229.93555 C 427.52319 229.22619 428.19501 228.21852 428.5 227.10742 C 428.6818 226.4451 428.73657 225.74875 428.6582 225.06641 C 422.58481 225.04841 416.51089 225.04841 410.4375 225.06641 C 399.33733 225.09931 388.23529 225.19304 377.13867 224.91016 C 369.17997 224.70727 361.2249 224.31046 353.26367 224.28125 C 352.94953 224.28025 352.63445 224.27925 352.32031 224.28125 C 348.29563 224.30345 344.11788 224.68092 340.38281 223.18164 C 339.33485 222.76098 338.33827 222.19736 337.24219 221.92578 C 336.85742 221.83048 336.46719 221.77245 336.07422 221.74609 C 335.77949 221.72629 335.48396 221.72433 335.1875 221.73633 z "
     id="path4149" />
  <path
     style="fill:#ffffff;stroke:#000000;stroke-width:1.01149511px;stroke-linecap:butt;stroke-linejoin:miter;stroke-opacity:1"
     d="M 356.58789 237.27539 C 352.14258 237.27939 347.38031 237.53114 341.6543 238.35156 C 335.02938 239.31863 318.31333 239.58553 311.61523 239.52344 C 309.77389 239.50634 306.14914 239.8565 304.31641 240.03125 C 302.39218 240.21472 300.5047 240.7683 298.79492 241.65039 L 298.79492 251.36328 C 298.79492 266.1119 298.81972 280.86077 298.79492 295.60938 C 298.75282 320.61077 298.51958 345.61136 298.24219 370.61133 C 298.07456 385.71985 297.89181 400.82741 297.69141 415.93555 L 358.96875 421.33203 L 420.24805 415.93555 C 420.04766 400.82741 419.86491 385.71985 419.69727 370.61133 C 419.41988 345.61136 419.1847 320.61075 419.14258 295.60938 C 419.11778 280.86077 419.14258 266.1119 419.14258 251.36328 L 419.14258 241.65039 C 417.43279 240.7683 415.54727 240.21472 413.62305 240.03125 C 411.79032 239.8565 409.94486 240.01415 408.10352 240.03125 C 401.40541 240.09335 394.8554 238.30105 388.23047 237.33398 C 374.61659 238.44241 366.36756 237.26559 356.58789 237.27539 z M 341.83984 282.13477 L 373.60938 282.13477 L 373.60938 315.17383 L 341.83984 315.17383 L 341.83984 282.13477 z "
     id="path4131" />
  <path
     style="fill:#000000;stroke:#000000;stroke-width:1.01149511px;stroke-linecap:butt;stroke-linejoin:miter;stroke-opacity:1"
     d="m 358.9707,243.63672 a 5.4642701,5.203104 0 0 1 5.46289,5.20312 v 16.01172 h -10.92773 v -16.01172 a 5.4642701,5.203104 0 0 1 5.46484,-5.20312 z"
     id="path4129" />
  <path
     style="fill:#ffffff;stroke:#000000;stroke-width:1.01149511px;stroke-linecap:butt;stroke-linejoin:miter;stroke-opacity:1"
     d="m 348.70508,286.47852 c -0.71969,-6.8e-4 -1.44063,0.20763 -2.03711,0.61132 l -0.38086,0.63477 c -0.2707,1.38307 -0.44024,2.78567 -0.50781,4.19336 -0.13208,2.75152 0.12679,5.51874 -0.12696,8.26172 -0.16462,1.77955 -0.54373,3.57245 -0.2539,5.33593 0.14167,0.86206 0.43957,1.68949 0.63476,2.54102 0.2287,0.9977 0.31432,2.02899 0.25391,3.05078 l 25.0332,1.90625 c 0.55072,-0.96471 0.86031,-2.06731 0.89063,-3.17773 0.0187,-0.68538 -0.067,-1.37352 -0.25391,-2.03321 -0.91355,0.0748 -1.84783,-0.10242 -2.66992,-0.50781 -0.38835,-0.1915 -0.76001,-0.44168 -1.00195,-0.80078 -0.12098,-0.17955 -0.20732,-0.38506 -0.23633,-0.59961 -0.029,-0.21455 2.8e-4,-0.43847 0.0957,-0.63281 0.14014,-0.2854 0.4059,-0.48495 0.66992,-0.66211 0.26402,-0.17716 0.54377,-0.35061 0.72852,-0.60938 0.15714,-0.2201 0.23513,-0.48963 0.24805,-0.75976 0.0129,-0.27013 -0.0377,-0.54094 -0.11914,-0.79883 -0.1629,-0.51577 -0.44946,-0.98353 -0.63868,-1.49023 -0.20459,-0.54791 -0.29227,-1.15337 -0.1582,-1.72266 0.067,-0.28464 0.18921,-0.55702 0.36719,-0.78906 0.17797,-0.23204 0.41318,-0.42311 0.68164,-0.53907 0.28634,-0.12367 0.60072,-0.15956 0.90039,-0.24609 0.14983,-0.0433 0.2979,-0.10021 0.42969,-0.18359 0.13179,-0.0834 0.24849,-0.19463 0.32226,-0.33203 0.0715,-0.13325 0.0996,-0.28477 0.11133,-0.43555 0.0117,-0.15078 0.008,-0.30209 0.0156,-0.45313 0.0177,-0.34203 0.0994,-0.67725 0.15235,-1.01562 0.053,-0.33837 0.0763,-0.69052 -0.0254,-1.01758 -0.11287,-0.36309 -0.36762,-0.66498 -0.63477,-0.93555 -0.26714,-0.27056 -0.5566,-0.52485 -0.76367,-0.84375 -0.36166,-0.55698 -0.43782,-1.24584 -0.50781,-1.90625 -0.0809,-0.76287 -0.16533,-1.52508 -0.25391,-2.2871 l -5.21094,-0.76368 c 0.42019,0.82237 0.42019,1.84756 0,2.66992 -0.21317,0.41723 -0.53221,0.78503 -0.93554,1.02344 -0.40334,0.23842 -0.8925,0.33976 -1.35156,0.2461 -0.34058,-0.0695 -0.66143,-0.2465 -0.89063,-0.50782 -0.16059,-0.18308 -0.27398,-0.40241 -0.40234,-0.60937 -0.12837,-0.20696 -0.27778,-0.40939 -0.48633,-0.53516 -0.14177,-0.0855 -0.30527,-0.13069 -0.4707,-0.13672 -0.16544,-0.006 -0.33228,0.0265 -0.48438,0.0918 -0.30421,0.1307 -0.54649,0.38687 -0.69727,0.68164 -0.22564,0.44115 -0.25452,0.95776 -0.20898,1.45117 0.0455,0.49341 0.16044,0.97758 0.20898,1.47071 0.0997,1.01256 -0.0857,2.03693 0,3.05078 0.0637,0.75311 0.28019,1.49373 0.63672,2.16015 0.37137,0.69415 0.89426,1.30614 1.52344,1.7793 l -9.5293,0.38086 c -0.0987,-0.31729 -0.0768,-0.67094 0.0625,-0.97266 0.13926,-0.30171 0.39371,-0.54898 0.69922,-0.67968 0.22717,-0.0972 0.47753,-0.13002 0.72461,-0.12891 0.24708,0.001 0.49163,0.0341 0.73633,0.0684 0.2447,0.0342 0.4912,0.0686 0.73828,0.0684 0.24708,-2.2e-4 0.49655,-0.0351 0.72266,-0.13477 0.24515,-0.10801 0.45586,-0.28808 0.61719,-0.50195 0.16131,-0.21387 0.27491,-0.46193 0.35742,-0.7168 0.165,-0.50974 0.20325,-1.04863 0.29687,-1.57617 0.18858,-1.06257 0.60553,-2.07499 0.79883,-3.13672 0.0967,-0.53086 0.13557,-1.07698 0.0605,-1.61133 -0.075,-0.53434 -0.26887,-1.05874 -0.60547,-1.48046 -0.40151,-0.50305 -1.01027,-0.8439 -1.65235,-0.88868 -0.31874,-0.0222 -0.63693,0.0251 -0.95507,0.0547 -0.31815,0.0296 -0.64624,0.0407 -0.95118,-0.0547 -0.2908,-0.091 -0.54477,-0.27259 -0.76757,-0.48047 -0.2228,-0.20786 -0.41765,-0.44448 -0.62891,-0.66406 -0.46813,-0.48656 -1.02168,-0.90142 -1.65234,-1.14258 -0.40365,-0.15434 -0.83577,-0.23006 -1.26758,-0.23046 z"
     id="path4035" />
  <path
     style="fill:#000000;stroke:#000000;stroke-width:1.01386607px;stroke-linecap:butt;stroke-linejoin:miter;stroke-opacity:1"
     d="m 358.9698,345.53906 c -1.72981,0.32524 -3.37544,1.06519 -4.75213,2.13477 -2.26249,1.75778 -3.70741,4.29765 -5.11754,6.75781 -0.55583,0.96971 -1.1185,1.94178 -1.81895,2.81836 -0.70044,0.87658 -1.54889,1.65998 -2.5678,2.16016 -1.39948,0.68699 -3.01116,0.79658 -4.5594,1.03515 -0.77413,0.11929 -1.54739,0.27346 -2.2767,0.55274 -0.72932,0.27928 -1.41719,0.68922 -1.93941,1.25781 -0.56675,0.61709 -0.91342,1.39024 -1.2588,2.14648 -0.34537,0.75625 -0.70834,1.52557 -1.29896,2.1211 -0.85697,0.86409 -2.09536,1.264 -3.30864,1.48437 -1.21326,0.22038 -2.45904,0.29279 -3.63788,0.64844 -0.89825,0.27099 -1.74899,0.70851 -2.45537,1.3125 -0.70641,0.60399 -1.26512,1.37731 -1.56599,2.24414 -0.35881,1.03379 -0.34153,2.14973 -0.37945,3.24023 -0.0379,1.09051 -0.1476,2.2219 -0.71673,3.16211 -0.35876,0.59269 -0.888,1.08022 -1.48968,1.44141 -0.60169,0.36119 -1.27587,0.59847 -1.96551,0.75 -1.3793,0.30306 -2.80854,0.26354 -4.22212,0.29883 -1.07992,0.027 -2.16973,0.10107 -3.20222,0.41015 -1.0325,0.30909 -2.01418,0.87171 -2.64812,1.72266 -0.66477,0.89234 -0.89578,2.0115 -1.15641,3.08399 -0.13032,0.53624 -0.27137,1.07284 -0.48787,1.58203 -0.21648,0.50918 -0.51089,0.99326 -0.91348,1.38086 -0.55864,0.53783 -1.30184,0.86385 -2.06187,1.05859 -0.76003,0.19474 -1.54516,0.26724 -2.32488,0.36328 -2.31779,0.2855 -4.67823,0.81614 -6.58113,2.13477 -2.25788,1.56461 -3.61835,4.04929 -5.48293,6.04492 -1.6473,1.76308 -3.69228,3.14106 -5.85034,4.26758 -1.40593,0.73391 -2.89709,1.38881 -4.02135,2.49023 -0.77609,0.76031 -1.33853,1.69709 -1.87516,2.63281 -0.53661,0.93573 -1.06212,1.88921 -1.7808,2.70118 -1.05033,1.18667 -2.48436,2.02488 -4.02135,2.49023 -1.35911,0.4115 -2.79544,0.54264 -4.14582,0.98047 -0.6752,0.21891 -1.32946,0.51631 -1.89123,0.9414 -0.56176,0.4251 -1.03033,0.98455 -1.27486,1.63477 -0.25661,0.68235 -0.25801,1.42624 -0.28509,2.15234 -0.0271,0.7261 -0.0899,1.47642 -0.4457,2.11524 -0.27124,0.48695 -0.70267,0.88033 -1.19858,1.15234 -0.49592,0.27202 -1.05319,0.42605 -1.61818,0.49414 -1.12998,0.1362 -2.27028,-0.0646 -3.39697,-0.22461 -1.42375,-0.20216 -2.87712,-0.33907 -4.29841,-0.12109 -1.42128,0.21798 -2.8224,0.8257 -3.7443,1.90039 -0.70117,0.81739 -1.08621,1.84995 -1.31702,2.89063 -0.23081,1.04067 -0.32132,2.10595 -0.51196,3.15429 -0.18468,1.01561 -0.46828,2.02808 -0.9938,2.92383 -0.5255,0.89575 -1.3125,1.67337 -2.29676,2.05664 -0.97019,0.37779 -2.05109,0.35069 -3.09381,0.2832 -1.04272,-0.0675 -2.10457,-0.16833 -3.11992,0.0723 -1.22785,0.29095 -2.31043,1.09033 -2.96732,2.14062 -0.65689,1.0503 -0.8907,2.33522 -0.68863,3.54883 0.15919,0.95606 0.57472,1.85755 1.10421,2.67774 0.52949,0.82018 1.17307,1.56541 1.82096,2.30078 3.75739,4.2648 7.78928,8.30012 11.44168,12.65039 2.59341,3.08893 5.01816,6.38172 6.4707,10.11133 0.88256,2.26609 1.38944,4.77623 0.73079,7.11328 -0.33493,1.18843 -0.96669,2.29667 -1.82697,3.20117 -6.82353,0.95249 -13.64743,1.90141 -20.47216,2.8457 -29.05282,4.01984 -58.18297,7.97606 -86.64281,14.93555 -10.84757,2.65264 -21.58315,5.73959 -32.17081,9.24805 -0.0315,4.62334 -0.0315,9.24579 0,13.86914 0.23667,34.74015 2.2508,69.47265 1.46157,104.20508 -0.46989,20.67902 -1.93413,41.33681 -4.38674,61.88281 10.07592,-3.66129 20.32751,-6.86581 30.70925,-9.60156 44.664,-11.76968 91.22804,-14.73604 137.45679,-16.7168 26.43227,-1.13254 52.87854,-1.96122 79.33087,-2.48828 26.45235,0.52706 52.89862,1.35574 79.33088,2.48828 46.22877,1.98076 92.79277,4.94712 137.4568,16.7168 10.38174,2.73575 20.63331,5.94027 30.70924,9.60156 -2.45261,-20.546 -3.91686,-41.20379 -4.38675,-61.88281 -0.78922,-34.73243 1.22491,-69.46493 1.46159,-104.20508 0.0315,-4.62335 0.0315,-9.2458 0,-13.86914 -10.58767,-3.50846 -21.32325,-6.59541 -32.17084,-9.24805 -28.45983,-6.95949 -57.58797,-10.91571 -86.64078,-14.93555 -6.82473,-0.94429 -13.64862,-1.89321 -20.47215,-2.8457 -0.86029,-0.9045 -1.49406,-2.01274 -1.82899,-3.20117 -0.65865,-2.33705 -0.15177,-4.84719 0.7308,-7.11328 1.45253,-3.72961 3.8793,-7.0224 6.4727,-10.11133 3.6524,-4.35027 7.68428,-8.38559 11.44169,-12.65039 0.64789,-0.73537 1.28945,-1.4806 1.81894,-2.30078 0.52949,-0.82019 0.94502,-1.72168 1.10421,-2.67774 0.20208,-1.21361 -0.0297,-2.49853 -0.68662,-3.54883 -0.65689,-1.05029 -1.73946,-1.84967 -2.96733,-2.14062 -1.01533,-0.2406 -2.07919,-0.13975 -3.12191,-0.0723 -1.04272,0.0675 -2.12363,0.0946 -3.09382,-0.2832 -0.98425,-0.38327 -1.77125,-1.16089 -2.29676,-2.05664 -0.52551,-0.89575 -0.80911,-1.90822 -0.9938,-2.92383 -0.19064,-1.04834 -0.28114,-2.11362 -0.51196,-3.15429 -0.23079,-1.04068 -0.61384,-2.07324 -1.31502,-2.89063 -0.92188,-1.07469 -2.32501,-1.68241 -3.7463,-1.90039 -1.42128,-0.21798 -2.87265,-0.0811 -4.29639,0.12109 -1.12669,0.15999 -2.267,0.36081 -3.39698,0.22461 -0.56499,-0.0681 -1.12427,-0.22212 -1.62018,-0.49414 -0.49592,-0.27201 -0.92734,-0.66539 -1.19858,-1.15234 -0.35583,-0.63882 -0.4166,-1.38914 -0.4437,-2.11524 -0.0271,-0.7261 -0.0305,-1.46999 -0.2871,-2.15234 -0.24451,-0.65022 -0.71108,-1.20967 -1.27285,-1.63477 -0.56177,-0.42509 -1.21602,-0.72249 -1.89122,-0.9414 -1.35039,-0.43783 -2.78871,-0.56897 -4.14783,-0.98047 -1.53699,-0.46535 -2.97103,-1.30356 -4.02136,-2.49023 -0.71868,-0.81197 -1.24419,-1.76545 -1.7808,-2.70118 -0.53662,-0.93572 -1.09907,-1.8725 -1.87516,-2.63281 -1.12426,-1.10142 -2.61541,-1.75632 -4.02135,-2.49023 -2.15804,-1.12652 -4.20103,-2.5045 -5.84833,-4.26758 -1.86458,-1.99563 -3.22706,-4.48031 -5.48494,-6.04492 -1.9029,-1.31863 -4.26132,-1.84927 -6.57912,-2.13477 -0.77972,-0.096 -1.56685,-0.16854 -2.32688,-0.36328 -0.76002,-0.19474 -1.50123,-0.52076 -2.05987,-1.05859 -0.40258,-0.3876 -0.69699,-0.87168 -0.91348,-1.38086 -0.21649,-0.50919 -0.35956,-1.04579 -0.48987,-1.58203 -0.26063,-1.07249 -0.49165,-2.19165 -1.15641,-3.08399 -0.63394,-0.85095 -1.61362,-1.41357 -2.64611,-1.72266 -1.0325,-0.30908 -2.12231,-0.38319 -3.20222,-0.41015 -1.41358,-0.0353 -2.84484,0.004 -4.22413,-0.29883 -0.68966,-0.15153 -1.36381,-0.38881 -1.96551,-0.75 -0.60169,-0.36119 -1.12892,-0.84872 -1.48767,-1.44141 -0.56914,-0.94021 -0.67884,-2.0716 -0.71674,-3.16211 -0.038,-1.0905 -0.0226,-2.20644 -0.38146,-3.24023 -0.30087,-0.86683 -0.85959,-1.64015 -1.56598,-2.24414 -0.70639,-0.60399 -1.55712,-1.04151 -2.45537,-1.3125 -1.17885,-0.35565 -2.42463,-0.42806 -3.6379,-0.64844 -1.21325,-0.22037 -2.44964,-0.62028 -3.30662,-1.48437 -0.59062,-0.59553 -0.95558,-1.36485 -1.30096,-2.1211 -0.34538,-0.75624 -0.69206,-1.52939 -1.25882,-2.14648 -0.52219,-0.56859 -1.21009,-0.97853 -1.93939,-1.25781 -0.72932,-0.27928 -1.50257,-0.43345 -2.27669,-0.55274 -1.54827,-0.23857 -3.15793,-0.34816 -4.5574,-1.03515 -1.01892,-0.50018 -1.86938,-1.28358 -2.56981,-2.16016 -0.70045,-0.87658 -1.26112,-1.84865 -1.81694,-2.81836 -1.41014,-2.46016 -2.85706,-5.00003 -5.11955,-6.75781 -1.37669,-1.06958 -3.02231,-1.80953 -4.75215,-2.13477 z"
     id="path4173-1"
     inkscape:connector-curvature="0" />
  <path
     style="fill:#ffffff;stroke:none;stroke-width:1px;stroke-linecap:butt;stroke-linejoin:miter;stroke-opacity:1"
     d="m 251.12411,491.58789 c -2.41685,0.55755 -4.83544,1.10661 -7.25586,1.64844 -19.00425,4.25424 -38.12314,8.02373 -57.38672,10.88281 -15.37095,2.28134 -30.89875,3.99648 -45.84571,8.24609 -5.15309,1.4651 -10.22188,3.22832 -15.17187,5.27735 -1.22715,5.54491 -2.10713,11.16598 -2.63672,16.82031 -1.81747,19.40463 0.51932,38.92014 1.64844,58.37695 1.04496,18.00662 1.05296,36.05488 1.31836,54.08985 0.0841,5.71725 0.19433,11.43413 0.33008,17.15039 6.91664,-1.05433 13.84411,-2.04425 20.77929,-2.96875 22.19502,-2.95874 44.47774,-5.25088 66.6211,-8.57422 8.08969,-1.21412 16.24928,-2.56945 24.4082,-1.97852 1.5038,0.10892 3.00612,0.28366 4.51367,0.25977 1.50755,-0.0239 3.03691,-0.25606 4.39063,-0.91992 1.69608,-0.83176 3.01825,-2.29965 3.94922,-3.94336 0.93096,-1.64372 1.49984,-3.46569 1.98632,-5.29102 4.4968,-16.87225 2.42239,-34.68492 1.32032,-52.11133 -1.74257,-27.55402 -0.96251,-55.20441 0.33007,-82.7832 0.0824,-1.75866 0.16679,-3.52467 0,-5.27734 -0.30327,-3.18689 -1.45304,-6.28872 -3.29882,-8.9043 z m 215.69139,0 c -1.84579,2.61558 -2.99555,5.71741 -3.29883,8.9043 -0.16679,1.75267 -0.0824,3.51868 0,5.27734 1.29259,27.57879 2.07265,55.22918 0.33008,82.7832 -1.10207,17.42641 -3.17648,35.23908 1.32032,52.11133 0.48648,1.82533 1.05536,3.6473 1.98632,5.29102 0.93097,1.64371 2.25314,3.1116 3.94922,3.94336 1.35372,0.66386 2.88308,0.89603 4.39063,0.91992 1.50755,0.0239 3.00987,-0.15085 4.51367,-0.25977 8.15893,-0.59093 16.31657,0.7644 24.40626,1.97852 22.14336,3.32334 44.42803,5.61548 66.62305,8.57422 6.93518,0.9245 13.86265,1.91442 20.77929,2.96875 0.13575,-5.71626 0.24595,-11.43314 0.33008,-17.15039 0.2654,-18.03497 0.27339,-36.08323 1.31836,-54.08985 1.12912,-19.45681 3.4659,-38.97232 1.64844,-58.37695 -0.5296,-5.65433 -1.40957,-11.2754 -2.63672,-16.82031 -4.94999,-2.04903 -10.01878,-3.81225 -15.17188,-5.27735 -14.94695,-4.24961 -30.47475,-5.96475 -45.8457,-8.24609 -19.26359,-2.85908 -38.38247,-6.62857 -57.38673,-10.88281 -2.42042,-0.54183 -4.83901,-1.09089 -7.25586,-1.64844 z"
     id="path4211-6"
     inkscape:connector-curvature="0" />
  <path
     inkscape:connector-curvature="0"
     style="fill:#ffffff;stroke:none;stroke-width:1px;stroke-linecap:butt;stroke-linejoin:miter;stroke-opacity:1"
     d="m 355.73852,364.85768 c -0.31265,0.0224 -0.61492,0.13021 -0.88281,0.29296 -0.2679,0.16276 -0.50164,0.3797 -0.69922,0.62305 -0.39515,0.4867 -0.64623,1.07063 -0.88477,1.65039 -0.22905,0.55672 -0.45228,1.12391 -0.53125,1.7207 -0.079,0.5968 -0.003,1.23395 0.33203,1.73438 0.18939,0.28324 0.45452,0.51348 0.75196,0.67969 0.29743,0.1662 0.62717,0.26991 0.96289,0.32812 0.67143,0.11642 1.35922,0.05 2.03711,-0.0195 1.21838,-0.12503 2.43734,-0.25628 3.6543,-0.39453 -1.09509,1.36532 -2.71359,2.29959 -4.44336,2.56641 -2.09594,0.32329 -4.21314,-0.30287 -6.22071,-0.98633 -0.7731,-0.2632 -1.55426,-0.53969 -2.36914,-0.59375 -1.31903,-0.0875 -2.6135,0.41404 -3.75195,1.08594 -1.76065,1.0391 -3.26445,2.50979 -4.34375,4.24609 -1.68506,1.05958 -3.19353,2.4 -4.44336,3.94922 -0.56418,0.69931 -1.08137,1.45227 -1.37695,2.30078 -0.29559,0.84851 -0.35149,1.8062 -0.004,2.63476 0.3353,0.79929 1.02376,1.41954 1.81055,1.78321 0.78678,0.36366 1.66644,0.48899 2.5332,0.48828 0.64393,-5.3e-4 1.29302,-0.0693 1.90039,-0.2832 0.60737,-0.21391 1.17255,-0.58133 1.55469,-1.09961 0.41473,-0.5625 0.59009,-1.25909 0.76562,-1.93555 0.17554,-0.67646 0.37166,-1.37338 0.81446,-1.91406 0.38335,-0.46809 0.93499,-0.78704 1.52343,-0.92774 0.58845,-0.1407 1.21054,-0.10786 1.79493,0.0488 1.16878,0.31339 2.15312,1.10052 3,1.96484 1.01402,1.03492 1.91145,2.22605 3.16015,2.96094 0.59303,0.34902 1.25632,0.58599 1.94141,0.65039 0.68509,0.0644 1.39174,-0.047 2.00781,-0.35351 0.76761,-0.38191 1.35788,-1.04124 1.87305,-1.72657 0.51517,-0.68532 0.97843,-1.4165 1.58203,-2.02539 0.71525,-0.7215 1.63392,-1.25712 2.63476,-1.43164 1.00085,-0.17451 2.0816,0.0332 2.89454,0.64258 0.67297,0.50444 1.12771,1.24128 1.54296,1.97266 0.41526,0.73137 0.81575,1.48712 1.41797,2.07422 0.68955,0.67223 1.63857,1.08633 2.60157,1.08398 0.96299,-0.002 1.92652,-0.43377 2.5332,-1.18164 0.37709,-0.46485 0.60825,-1.02846 0.83594,-1.58203 0.22768,-0.55357 0.46168,-1.11575 0.84179,-1.57813 0.41953,-0.51032 0.99192,-0.86706 1.49024,-1.30078 0.24915,-0.21686 0.4832,-0.4567 0.66211,-0.73437 0.1789,-0.27767 0.30106,-0.59583 0.3164,-0.92578 0.0129,-0.27692 -0.051,-0.55442 -0.16601,-0.80664 -0.11502,-0.25223 -0.28098,-0.48138 -0.47266,-0.68164 -0.38336,-0.40053 -0.86381,-0.68981 -1.33594,-0.98047 -2.70543,-1.66561 -5.30358,-3.4989 -7.89843,-5.33203 -1.38006,-0.97495 -2.76416,-1.95193 -4.2461,-2.76368 -1.46699,-0.80355 -3.07513,-1.48111 -4.14648,-2.76562 -0.53244,-0.63838 -0.90469,-1.39776 -1.4336,-2.03906 -0.26445,-0.32066 -0.56993,-0.61216 -0.92968,-0.82032 -0.35976,-0.20815 -0.77684,-0.32858 -1.19141,-0.29882 z m -31.19922,22.90429 -6.21875,5.13477 c -2.34799,2.19931 -4.75113,4.33985 -7.20703,6.41797 -0.61611,0.52134 -1.25278,1.05919 -1.62109,1.77734 -0.18415,0.35907 -0.29488,0.75874 -0.28321,1.16211 0.0117,0.40338 0.15116,0.80816 0.42188,1.10742 0.30013,0.33177 0.74662,0.51738 1.19336,0.54102 0.44675,0.0236 0.89312,-0.10478 1.28515,-0.32032 0.78406,-0.43107 1.33427,-1.1797 1.86719,-1.89843 0.41456,-0.5591 0.83814,-1.11875 1.3711,-1.56641 0.53296,-0.44767 1.19108,-0.77946 1.88671,-0.80273 0.42196,-0.0141 0.84278,0.0861 1.22852,0.25781 0.38575,0.17161 0.73736,0.41353 1.05859,0.6875 0.64245,0.54796 1.16431,1.21966 1.75977,1.81836 0.97253,0.97783 2.19022,1.77414 3.55469,1.97461 1.02348,0.15037 2.08293,-0.0447 3.02734,-0.4668 0.94442,-0.42213 1.77902,-1.0628 2.50195,-1.80273 0.83715,-0.85682 1.53473,-1.85189 2.44141,-2.63477 0.45333,-0.39144 0.95929,-0.72762 1.51953,-0.93945 0.56024,-0.21183 1.17802,-0.29373 1.76563,-0.17774 0.84163,0.16613 1.55839,0.71989 2.13672,1.35352 0.57832,0.63362 1.04976,1.35683 1.61523,2.00195 0.52698,0.6012 1.13942,1.13543 1.84375,1.51367 0.70434,0.37824 1.50408,0.59684 2.30273,0.56055 0.99072,-0.045 1.93247,-0.47689 2.72852,-1.06836 0.79606,-0.59147 1.46323,-1.33943 2.10937,-2.0918 0.77809,-0.90602 1.54516,-1.83733 2.5,-2.55468 0.95484,-0.71734 2.13525,-1.21012 3.32422,-1.09766 0.68815,0.0651 1.34676,0.32931 1.93555,0.69141 0.58879,0.3621 1.11298,0.81983 1.61133,1.29882 0.9967,0.95799 1.93264,2.02981 3.16797,2.6504 0.75036,0.37696 1.59205,0.57199 2.43164,0.55664 0.83958,-0.0154 1.67554,-0.24248 2.40625,-0.65625 0.91104,-0.51588 1.63316,-1.3004 2.36328,-2.05079 0.73011,-0.75038 1.5083,-1.49547 2.47461,-1.89843 0.71249,-0.29712 1.50712,-0.39252 2.26953,-0.27149 0.76241,0.12103 1.48983,0.4585 2.07422,0.96289 0.60535,0.52247 1.04562,1.20658 1.47851,1.87891 0.4329,0.67232 0.87478,1.35326 1.48243,1.87305 0.89868,0.76874 2.10645,1.12057 3.28906,1.11718 1.18261,-0.003 2.34534,-0.33946 3.42578,-0.82031 1.82533,-0.81236 3.44289,-2.02937 4.93555,-3.35742 0.6595,-0.58677 1.30868,-1.20408 2.08984,-1.61523 0.39057,-0.20557 0.81219,-0.35808 1.25,-0.41407 0.4378,-0.056 0.89212,-0.0124 1.30078,0.1543 0.66642,0.27196 1.15684,0.84224 1.62305,1.39062 0.46621,0.54839 0.96301,1.11453 1.63476,1.37305 0.40134,0.15446 0.85213,0.18647 1.26563,0.0684 0.4135,-0.1181 0.78626,-0.39002 1.00586,-0.75976 0.26558,-0.44716 0.29495,-1.00746 0.16015,-1.50977 -0.13479,-0.50231 -0.42007,-0.9531 -0.75195,-1.35352 -0.67692,-0.81672 -1.54829,-1.45083 -2.45703,-1.99804 -0.90875,-0.54722 -1.86455,-1.01621 -2.77734,-1.55664 -1.84476,-1.09221 -3.55853,-2.49695 -5.62696,-3.06055 -1.6681,-0.45452 -3.44532,-0.32406 -5.13476,-0.69141 -0.6753,-0.14684 -1.32956,-0.37162 -1.99805,-0.54687 -0.66848,-0.17526 -1.36024,-0.30071 -2.04883,-0.24219 -1.06984,0.0909 -2.05166,0.61768 -2.96289,1.18555 -1.4828,0.92406 -2.92843,2.01183 -4.63867,2.36914 -1.69875,0.35491 -3.45553,-0.0561 -5.13477,-0.49414 -1.87563,-0.48924 -3.81622,-1.01994 -5.72656,-0.69141 -1.59414,0.27415 -3.02142,1.12534 -4.54101,1.67969 -2.13581,0.77915 -4.49118,0.96553 -6.71485,0.49219 -1.43758,-0.30601 -2.80652,-0.87778 -4.24414,-1.1836 -1.2668,-0.26948 -2.59805,-0.32574 -3.85156,0 -1.00768,0.26186 -1.93413,0.75894 -2.87109,1.21289 -0.93697,0.45395 -1.91546,0.87407 -2.95313,0.95899 -0.98721,0.0808 -1.9833,-0.14818 -2.89258,-0.54102 -0.90929,-0.39283 -1.74118,-0.94626 -2.53906,-1.5332 -0.75829,-0.55781 -1.49045,-1.14936 -2.26953,-1.67774 -1.13567,-0.77021 -2.36662,-1.40275 -3.6543,-1.87695 z m 84.80469,12.48242 c -0.42427,-0.0212 -0.85133,0.0172 -1.26172,0.12696 -0.64484,0.17245 -1.23388,0.51032 -1.79297,0.875 -0.55908,0.36467 -1.09819,0.76071 -1.6875,1.07422 -1.92993,1.0267 -4.23138,1.07513 -6.4043,0.83593 -1.85254,-0.20393 -3.68361,-0.59883 -5.54296,-0.72656 -1.85936,-0.12773 -3.78981,0.0283 -5.45508,0.86524 -0.89894,0.45176 -1.69039,1.08722 -2.5293,1.64257 -0.83891,0.55536 -1.76056,1.04321 -2.76172,1.14258 -0.6649,0.066 -1.33769,-0.0441 -1.97461,-0.24609 -0.63692,-0.20196 -1.24068,-0.49346 -1.83398,-0.80078 -1.18659,-0.61466 -2.38139,-1.30637 -3.70899,-1.45899 -1.3721,-0.15773 -2.74446,0.27925 -4.00586,0.8418 -1.26139,0.56254 -2.47079,1.25839 -3.79101,1.66406 -2.47651,0.76096 -5.25249,0.42165 -7.51758,-0.83594 -0.84892,-0.47132 -1.62669,-1.062 -2.48828,-1.50976 -0.86159,-0.44776 -1.84526,-0.75073 -2.80078,-0.57813 -0.57688,0.10421 -1.1149,0.37826 -1.58203,0.73242 -0.46714,0.35418 -0.86836,0.78708 -1.24024,1.24024 -0.74375,0.90632 -1.39534,1.91337 -2.33008,2.62109 -0.95467,0.72284 -2.16006,1.08369 -3.35742,1.09961 -1.19736,0.0159 -2.38624,-0.30016 -3.46484,-0.82031 -0.88503,-0.4268 -1.69669,-0.98739 -2.54883,-1.47656 -0.85214,-0.48917 -1.76456,-0.91318 -2.74023,-1.0293 -1.00811,-0.11998 -2.03227,0.0962 -2.98047,0.45899 -0.94821,0.36274 -1.83496,0.86769 -2.72852,1.3496 -1.13805,0.61378 -2.30424,1.19631 -3.54883,1.54688 -1.24458,0.35056 -2.58156,0.46129 -3.83007,0.125 -0.90631,-0.24411 -1.73215,-0.71163 -2.55664,-1.16016 -0.8245,-0.44853 -1.67248,-0.88884 -2.59375,-1.06836 -1.35159,-0.26337 -2.74534,0.0541 -4.06446,0.44922 -1.31911,0.39509 -2.63452,0.87371 -4.00976,0.94336 -1.44422,0.0731 -2.89003,-0.31663 -4.17774,-0.97461 -1.15556,-0.59045 -2.19963,-1.39794 -3.0625,-2.36719 -2.01385,2.0762 -4.15396,4.03047 -6.40429,5.84766 -1.28138,1.03474 -2.60168,2.03011 -3.75782,3.20313 -0.5916,0.60024 -1.14374,1.25247 -1.52148,2.00586 -0.37774,0.75339 -0.57262,1.61898 -0.42774,2.44921 0.10655,0.61052 0.39862,1.18989 0.84375,1.6211 0.44514,0.4312 1.04348,0.70703 1.66211,0.74414 0.80085,0.048 1.58418,-0.2968 2.22071,-0.78516 0.63653,-0.48836 1.15142,-1.11518 1.67773,-1.7207 0.91891,-1.05721 1.90356,-2.08096 3.0957,-2.81641 1.19215,-0.73545 2.62094,-1.16387 4.00391,-0.9414 1.36096,0.21892 2.54654,1.0341 3.61719,1.90234 1.07065,0.86824 2.09775,1.82446 3.34375,2.41406 0.69414,0.32847 1.44971,0.53601 2.2168,0.57227 0.76708,0.0363 1.5455,-0.10225 2.23828,-0.4336 0.92464,-0.44224 1.65447,-1.2004 2.34375,-1.95898 0.68927,-0.75858 1.37401,-1.54596 2.25,-2.07812 0.7021,-0.42653 1.51178,-0.67319 2.33203,-0.71875 0.82024,-0.0456 1.65047,0.10844 2.40234,0.43945 1.30914,0.57634 2.32467,1.64341 3.38672,2.60156 0.53102,0.47908 1.08494,0.93779 1.70117,1.30078 0.61623,0.36299 1.29941,0.62731 2.01172,0.69141 0.89409,0.0805 1.80057,-0.16128 2.58399,-0.59961 0.7834,-0.43833 1.44916,-1.06449 2.00976,-1.76563 0.58249,-0.7285 1.05913,-1.54191 1.67969,-2.23828 0.31028,-0.34818 0.65721,-0.66695 1.05273,-0.91406 0.39553,-0.24711 0.84075,-0.4212 1.30469,-0.46875 0.59663,-0.0611 1.2036,0.0897 1.74219,0.35352 0.53858,0.26387 1.01562,0.63732 1.46094,1.03906 0.8383,0.75627 1.57352,1.61901 2.38281,2.40625 0.80929,0.78724 1.71161,1.51061 2.76758,1.91015 1.20796,0.45707 2.57222,0.45874 3.80273,0.0664 1.23051,-0.39233 2.32556,-1.16699 3.1582,-2.1543 0.93821,-1.11248 1.54121,-2.47108 2.43555,-3.61914 0.44717,-0.57402 0.97336,-1.09765 1.60156,-1.46484 0.62821,-0.36719 1.36721,-0.57155 2.08985,-0.48633 0.65856,0.0777 1.27412,0.39147 1.7832,0.81641 0.50908,0.42494 0.91842,0.95821 1.27148,1.51953 0.70613,1.12264 1.21411,2.38222 2.09571,3.37305 0.59848,0.67264 1.36665,1.2039 2.22656,1.4707 0.85991,0.2668 1.81194,0.25977 2.64648,-0.0781 0.59273,-0.23998 1.11198,-0.63801 1.56055,-1.09375 0.44857,-0.45573 0.83193,-0.97038 1.20703,-1.48828 0.7502,-1.03578 1.52263,-2.12826 2.66211,-2.70898 1.05037,-0.53531 2.30387,-0.56412 3.45117,-0.29297 1.1473,0.27115 2.20727,0.82069 3.23047,1.40625 0.81223,0.46483 1.61202,0.95772 2.46094,1.35156 0.84892,0.39385 1.75681,0.68826 2.69141,0.73633 1.20112,0.0618 2.39524,-0.28999 3.46289,-0.84375 1.06764,-0.55376 2.0224,-1.30227 2.9414,-2.07812 0.81074,-0.68446 1.60743,-1.39903 2.52735,-1.92774 0.91991,-0.52871 1.99018,-0.86548 3.04101,-0.71875 1.16389,0.16252 2.16224,0.88647 3.0918,1.60547 0.92956,0.719 1.88681,1.47781 3.0332,1.73633 0.77871,0.1756 1.59887,0.10455 2.3711,-0.0977 0.77222,-0.2022 1.50483,-0.53178 2.2246,-0.87695 0.8828,-0.42335 1.76303,-0.87985 2.49219,-1.5332 0.72916,-0.65336 1.30004,-1.53042 1.4043,-2.50391 0.10798,-1.00818 -0.28446,-1.99685 -0.69531,-2.92383 -0.68854,-1.55348 -1.47579,-3.11064 -2.71485,-4.27344 -0.61953,-0.5814 -1.34863,-1.0545 -2.15429,-1.32421 -0.40284,-0.13487 -0.82378,-0.21709 -1.24805,-0.23829 z m 15.39258,11.8418 c -0.91067,0.0276 -1.8025,0.29366 -2.625,0.68555 -0.8225,0.3919 -1.58023,0.90712 -2.3125,1.44922 -1.2459,0.92234 -2.42788,1.93118 -3.70313,2.8125 -1.27525,0.88132 -2.66219,1.64025 -4.17187,1.99218 -0.8676,0.20225 -1.77266,0.2676 -2.65235,0.12696 -0.87969,-0.14063 -1.73213,-0.492 -2.41796,-1.06055 -0.3658,-0.30323 -0.68025,-0.66346 -1.01368,-1.00195 -0.33344,-0.33849 -0.69481,-0.66135 -1.12304,-0.86719 -0.50378,-0.24215 -1.07959,-0.30907 -1.63477,-0.24414 -0.55517,0.0649 -1.09063,0.25645 -1.58789,0.51172 -0.99452,0.51055 -1.84208,1.26384 -2.7832,1.86719 -1.32579,0.84996 -2.84269,1.3978 -4.4043,1.60156 -2.32581,0.30347 -4.68591,-0.15036 -6.93945,-0.80078 -0.93877,-0.27095 -1.86903,-0.57705 -2.82813,-0.76368 -0.9591,-0.18663 -1.95676,-0.25104 -2.91015,-0.0371 -1.18322,0.26548 -2.22913,0.94138 -3.21289,1.65039 -0.98377,0.709 -1.94779,1.47119 -3.06055,1.95312 -1.79011,0.77528 -3.85036,0.75882 -5.73828,0.26758 -1.30301,-0.33904 -2.53915,-0.89201 -3.80469,-1.35156 -1.26554,-0.45955 -2.5919,-0.8295 -3.9375,-0.78321 -1.12355,0.0387 -2.21752,0.36604 -3.26758,0.76758 -1.05006,0.40154 -2.07182,0.87986 -3.13867,1.23438 -2.40652,0.7997 -5.07097,0.94689 -7.47266,0.13281 -0.87636,-0.29705 -1.70622,-0.71472 -2.55468,-1.08399 -0.84846,-0.36926 -1.72953,-0.69435 -2.65039,-0.78515 -1.1706,-0.11543 -2.35049,0.15288 -3.45313,0.5625 -1.10263,0.40962 -2.14697,0.95913 -3.2207,1.43945 -0.86068,0.38501 -1.7475,0.72845 -2.67383,0.9043 -0.92633,0.17585 -1.89913,0.17853 -2.79883,-0.10352 -0.89915,-0.28188 -1.68495,-0.83198 -2.43945,-1.39648 -0.75451,-0.56449 -1.50391,-1.15691 -2.36524,-1.53906 -1.20598,-0.53506 -2.59901,-0.62458 -3.86914,-0.26758 -0.95617,0.26875 -1.82868,0.77621 -2.64648,1.33984 -0.81781,0.56363 -1.59322,1.18886 -2.42578,1.73047 -1.25784,0.81827 -2.65603,1.44417 -4.13477,1.69922 -1.47875,0.25505 -3.04127,0.12529 -4.40625,-0.49805 -0.60921,-0.2782 -1.17113,-0.64898 -1.75195,-0.98242 -0.58083,-0.33343 -1.19245,-0.63315 -1.85156,-0.75195 -0.57126,-0.10296 -1.15961,-0.0658 -1.73633,0 -1.49272,0.17025 -2.95763,0.52818 -4.4043,0.93359 -1.23712,0.34669 -2.46801,0.72857 -3.73633,0.93359 -2.08645,0.33727 -4.32842,0.15729 -6.13867,-0.93359 -0.8426,-0.50777 -1.56415,-1.19187 -2.36328,-1.76562 -0.79914,-0.57376 -1.72529,-1.04898 -2.70898,-1.03711 -0.78294,0.009 -1.53671,0.33083 -2.17579,0.7832 -0.63909,0.45236 -1.17745,1.03187 -1.69531,1.61914 -1.64674,1.86747 -3.16624,3.86838 -5.07031,5.47266 -0.58179,0.49019 -1.197,0.93967 -1.76367,1.44726 -0.56667,0.50759 -1.08909,1.08058 -1.43946,1.75586 -0.16982,0.3273 -0.29892,0.6783 -0.35351,1.04297 -0.0546,0.36466 -0.0337,0.74299 0.0859,1.0918 0.20057,0.58521 0.67915,1.0593 1.25195,1.29297 0.57279,0.23366 1.23043,0.23342 1.81836,0.041 0.9279,-0.30375 1.63737,-1.03675 2.33984,-1.71484 0.35123,-0.33905 0.71284,-0.67274 1.11914,-0.94336 0.40631,-0.27061 0.86209,-0.47834 1.34571,-0.54492 0.53961,-0.0743 1.09189,0.0319 1.60351,0.21875 0.51162,0.18691 0.98781,0.45389 1.46484,0.71679 1.5517,0.85512 3.12262,1.67563 4.67188,2.53516 0.49935,0.27704 0.99916,0.55832 1.53125,0.76562 0.53209,0.2073 1.10206,0.34006 1.67187,0.30274 0.81987,-0.0537 1.58334,-0.45415 2.22852,-0.96289 0.64517,-0.50874 1.19306,-1.12741 1.77539,-1.70703 0.78099,-0.77736 1.64465,-1.4961 2.6543,-1.9375 1.00965,-0.4414 2.18629,-0.58232 3.21875,-0.19727 0.58339,0.21757 1.09603,0.5898 1.56445,1 0.46843,0.41019 0.89964,0.86087 1.37109,1.26758 0.83774,0.7227 1.8078,1.30544 2.86524,1.63086 1.05745,0.32542 2.20368,0.38778 3.27344,0.10547 1.38356,-0.36512 2.57424,-1.28704 3.4707,-2.40235 0.98072,-1.22014 1.66222,-2.69195 2.83008,-3.73437 0.58394,-0.52121 1.29396,-0.92535 2.06836,-1.03906 0.38721,-0.0569 0.78696,-0.0403 1.16406,0.0644 0.3771,0.10467 0.73095,0.29768 1.01172,0.57031 0.51778,0.50279 0.74769,1.2216 1.0664,1.86914 0.56741,1.1528 1.49043,2.16033 2.66993,2.66992 0.84374,0.36453 1.78918,0.46265 2.70312,0.36524 0.91394,-0.0974 1.79844,-0.38441 2.63477,-0.76563 2.09174,-0.95346 3.87134,-2.47318 5.87304,-3.60351 0.8861,-0.50037 1.83345,-0.92938 2.8418,-1.06641 1.00835,-0.13703 2.09008,0.0453 2.89649,0.66602 0.71503,0.55036 1.14862,1.38074 1.55273,2.1875 0.4041,0.80676 0.82139,1.64278 1.51758,2.21679 0.59667,0.49196 1.36474,0.75317 2.13672,0.79883 0.77198,0.0457 1.54774,-0.11577 2.26758,-0.39843 1.11056,-0.43611 2.09453,-1.15564 2.93554,-2.00196 0.8759,-0.88143 1.60661,-1.90379 2.52735,-2.73828 0.46036,-0.41724 0.96963,-0.78759 1.53515,-1.04492 0.56552,-0.25733 1.1908,-0.39955 1.81055,-0.35547 0.63141,0.0449 1.23959,0.28289 1.77344,0.62305 0.53385,0.34016 0.9978,0.78069 1.41601,1.25586 0.83643,0.95036 1.50624,2.04539 2.41602,2.92578 0.73268,0.70901 1.62198,1.27 2.60156,1.55273 0.97959,0.28274 2.05074,0.27797 3.00391,-0.084 1.04039,-0.39505 1.8829,-1.18184 2.61328,-2.02149 0.73038,-0.83966 1.38099,-1.75292 2.1914,-2.51562 0.52359,-0.49276 1.11458,-0.92061 1.77149,-1.21289 0.65692,-0.29228 1.38288,-0.44569 2.09961,-0.38867 1.01948,0.0811 1.96139,0.57774 2.79101,1.17578 0.82962,0.59803 1.57795,1.30367 2.41407,1.89258 0.88512,0.62342 1.87568,1.11504 2.93554,1.33593 1.76402,0.36765 3.63998,-0.0426 5.20508,-0.93554 1.79516,-1.02422 3.1899,-2.63291 4.9375,-3.73633 0.73199,-0.46217 1.52978,-0.83436 2.375,-1.02149 0.84521,-0.18712 1.74213,-0.18262 2.56445,0.0879 0.88422,0.29091 1.64169,0.86988 2.34766,1.47657 0.70597,0.60669 1.38595,1.25661 2.18945,1.72656 1.19819,0.70079 2.61617,0.96431 4.00391,0.93359 1.27246,-0.0282 2.57839,-0.31398 3.60352,-1.06836 0.58652,-0.43162 1.05845,-0.99815 1.58984,-1.49609 0.5314,-0.49793 1.1591,-0.94222 1.88086,-1.03906 0.39386,-0.0528 0.79723,0.002 1.17383,0.1289 0.3766,0.12687 0.72756,0.32349 1.05078,0.55469 0.64642,0.4624 1.18496,1.05826 1.77929,1.58594 1.08929,0.96714 2.41937,1.72539 3.86914,1.86719 0.95126,0.093 1.91265,-0.0815 2.82227,-0.375 0.90963,-0.2935 1.77727,-0.70293 2.65039,-1.0918 1.05287,-0.46892 2.12436,-0.91152 3.24805,-1.16797 1.12368,-0.25644 2.30968,-0.3209 3.42578,-0.0332 1.39099,0.35853 2.58179,1.22991 3.86914,1.86718 0.83856,0.41511 1.73879,0.73719 2.67187,0.80664 0.93311,0.0695 1.90606,-0.12874 2.66797,-0.67187 0.88151,-0.62839 1.41921,-1.71064 1.39649,-2.79297 -0.0205,-0.97866 -0.47558,-1.91503 -1.13477,-2.63867 -0.6592,-0.72365 -1.5113,-1.24943 -2.40429,-1.65039 -1.78598,-0.80192 -3.77158,-1.14428 -5.46485,-2.12695 -2.30127,-1.33551 -3.79027,-3.67907 -5.49414,-5.72266 -0.85193,-1.02179 -1.78548,-1.99384 -2.89844,-2.72266 -1.11295,-0.72882 -2.42415,-1.20429 -3.7539,-1.16406 z m 25.99414,17.09961 c -0.65714,-0.003 -1.31388,0.0799 -1.94531,0.26172 -0.64343,0.18551 -1.26209,0.47447 -1.78516,0.89258 -0.55009,0.43971 -0.97983,1.00791 -1.40625,1.56836 -0.42642,0.56045 -0.86185,1.12515 -1.41992,1.55468 -0.61814,0.47575 -1.36873,0.76668 -2.14063,0.87891 -0.7719,0.11224 -1.56444,0.05 -2.32226,-0.13477 -0.88706,-0.21628 -1.72489,-0.59553 -2.57227,-0.93554 -0.84738,-0.34002 -1.7234,-0.64564 -2.63476,-0.70117 -1.63911,-0.0999 -3.21997,0.61606 -4.61133,1.48828 -1.68321,1.05518 -3.26887,2.39011 -5.20703,2.82617 -1.02588,0.23081 -2.11565,0.18974 -3.11329,-0.14258 -0.99763,-0.33231 -1.89991,-0.95753 -2.54101,-1.79102 -0.4822,-0.62689 -0.81162,-1.35555 -1.23828,-2.02148 -0.21333,-0.33297 -0.45142,-0.65164 -0.73828,-0.92383 -0.28686,-0.27219 -0.62363,-0.49779 -0.99805,-0.625 -0.54773,-0.18609 -1.15259,-0.15393 -1.70898,0.004 -0.5564,0.15831 -1.07152,0.43749 -1.56446,0.74023 -1.18419,0.72726 -2.26885,1.60318 -3.42187,2.37891 -1.16063,0.78084 -2.42058,1.46982 -3.79883,1.70898 -0.68913,0.11957 -1.40151,0.12366 -2.08398,-0.0293 -0.68248,-0.153 -1.33433,-0.46689 -1.85352,-0.93555 -0.52598,-0.47479 -0.89946,-1.08946 -1.30859,-1.66797 -0.40914,-0.57852 -0.88083,-1.14423 -1.51758,-1.45508 -0.69379,-0.3387 -1.52494,-0.33262 -2.25586,-0.084 -0.73091,0.24863 -1.36772,0.72213 -1.90821,1.27344 -0.58066,0.59231 -1.05797,1.27698 -1.58203,1.91992 -0.52405,0.64295 -1.11006,1.25614 -1.83984,1.65039 -0.6245,0.33738 -1.33245,0.50095 -2.03906,0.56836 -0.7066,0.0674 -1.41732,0.0427 -2.12696,0.0273 -0.99356,-0.0217 -1.99119,-0.0272 -2.97656,-0.15625 -0.98538,-0.12912 -1.96627,-0.38656 -2.82617,-0.88476 -0.55216,-0.3199 -1.04422,-0.732 -1.56445,-1.10157 -0.52023,-0.36957 -1.08414,-0.70442 -1.70899,-0.83398 -0.77842,-0.1614 -1.59671,0.009 -2.32031,0.33789 -0.7236,0.32922 -1.36493,0.81044 -1.99219,1.29883 -1.32659,1.0329 -2.67685,2.14851 -4.31445,2.5293 -1.65672,0.38522 -3.37822,-0.0332 -5.05859,-0.29688 -1.17174,-0.18382 -2.39235,-0.30366 -3.42188,-0.89258 -0.47725,-0.273 -0.89509,-0.63843 -1.3418,-0.95898 -0.4467,-0.32056 -0.93963,-0.60315 -1.48437,-0.67774 -0.58595,-0.0802 -1.18089,0.0897 -1.7168,0.33985 -0.53592,0.25014 -1.03067,0.57918 -1.55664,0.84961 -1.11809,0.57488 -2.35501,0.86942 -3.57031,1.1914 -1.58047,0.41872 -3.15723,0.895 -4.78516,1.04688 -1.62793,0.15188 -3.3408,-0.0465 -4.73633,-0.89844 -0.71192,-0.43459 -1.31477,-1.02232 -1.96484,-1.54492 -0.65007,-0.5226 -1.3788,-0.99348 -2.20117,-1.13281 -0.95663,-0.16207 -1.93813,0.14514 -2.78906,0.61132 -0.85092,0.46619 -1.60681,1.08677 -2.41797,1.61914 -0.64158,0.42107 -1.32234,0.78986 -2.04883,1.03711 -0.72649,0.24725 -1.50132,0.37168 -2.26563,0.30274 -1.05362,-0.095 -2.03855,-0.54812 -2.97461,-1.04102 -0.7466,-0.39314 -1.4815,-0.81763 -2.27539,-1.10351 -0.79388,-0.28587 -1.66279,-0.42864 -2.48437,-0.23633 -0.64108,0.15006 -1.21954,0.49454 -1.76367,0.86523 -0.54414,0.3707 -1.06925,0.77404 -1.65821,1.06836 -1.3281,0.6637 -2.86527,0.71821 -4.31445,1.04102 -1.33289,0.2969 -2.60829,0.82835 -3.95117,1.07617 -0.67144,0.1239 -1.36176,0.1761 -2.03906,0.0898 -0.6773,-0.0863 -1.34277,-0.31658 -1.89453,-0.71875 -0.49168,-0.35839 -0.87718,-0.8405 -1.30469,-1.27343 -0.42751,-0.43294 -0.92613,-0.8335 -1.52149,-0.95899 -0.48385,-0.10198 -0.99682,-0.009 -1.44726,0.19531 -0.45044,0.20401 -0.84386,0.51358 -1.19922,0.85743 -0.71073,0.68769 -1.29252,1.52344 -2.11523,2.07226 -0.72308,0.48236 -1.58935,0.71164 -2.45313,0.8086 -0.86378,0.097 -1.73639,0.0693 -2.60547,0.084 -1.26038,0.0213 -2.51956,0.12951 -3.7793,0.084 -1.25974,-0.0455 -2.53639,-0.25317 -3.6582,-0.82812 -0.67576,-0.34634 -1.27958,-0.81625 -1.89453,-1.26172 -0.61496,-0.44546 -1.25579,-0.8744 -1.97461,-1.11914 -0.72756,-0.24772 -1.5133,-0.29626 -2.27734,-0.21289 -0.76404,0.0834 -1.50839,0.2959 -2.22852,0.56445 -1.44026,0.5371 -2.79751,1.29625 -4.27148,1.73242 -1.85173,0.54795 -3.91651,0.5493 -5.65235,-0.29687 -0.60158,-0.29325 -1.15086,-0.68085 -1.72461,-1.02539 -0.57375,-0.34455 -1.18538,-0.65272 -1.8457,-0.76172 -0.54634,-0.0902 -1.11124,-0.0397 -1.64453,0.10937 -0.53329,0.14907 -1.03652,0.39533 -1.50195,0.69532 -0.93085,0.59997 -1.70817,1.4057 -2.50782,2.17187 -0.81202,0.77803 -1.65426,1.52164 -2.52734,2.23047 4.52135,0.44369 9.05199,0.7937 13.58789,1.04883 24.84335,1.39734 49.74827,-0.0398 74.63086,-0.006 22.71516,0.0309 45.42809,1.28935 68.13672,0.74414 12.76441,-0.30646 25.50946,-1.18329 38.23437,-2.23242 5.60655,-0.46224 11.20995,-0.95679 16.81055,-1.48633 -1.46285,-1.7651 -2.90129,-3.55034 -4.31445,-5.35547 -1.62036,-2.06979 -3.24051,-4.19874 -5.3711,-5.73828 -1.06529,-0.76977 -2.25413,-1.38292 -3.52734,-1.70898 -0.63661,-0.16304 -1.29403,-0.25096 -1.95117,-0.25391 z m 0.33984,19.47461 c -0.62902,-0.0105 -1.25521,0.0976 -1.82812,0.35742 -1.14875,0.52091 -1.95968,1.57076 -2.98828,2.30078 -1.57774,1.11977 -3.60274,1.43612 -5.53516,1.3418 -1.93242,-0.0943 -3.82418,-0.56382 -5.73242,-0.88281 -10.75738,-1.79828 -21.81565,1.23333 -32.65235,0 -3.39362,-0.38623 -6.72782,-1.18747 -10.11718,-1.60938 -9.22413,-1.14821 -18.53675,0.53807 -27.82422,0.91992 -5.51471,0.22674 -11.03728,-0.007 -16.55664,0 -12.03966,0.0163 -24.06476,1.18274 -36.10157,0.91993 -12.59311,-0.27497 -25.29218,-2.10638 -37.71093,0 -4.20148,0.71262 -8.39533,1.87643 -12.64844,1.60937 -0.87129,-0.0547 -1.74149,-0.16899 -2.61328,-0.12305 -0.87179,0.046 -1.76368,0.26706 -2.44531,0.8125 -0.37182,0.29753 -0.67468,0.69186 -0.81641,1.14649 -0.14174,0.45462 -0.11118,0.97042 0.12695,1.38281 0.13809,0.23915 0.34115,0.43782 0.57422,0.58594 0.23307,0.14811 0.49586,0.24759 0.76563,0.30664 0.53952,0.1181 1.09859,0.0794 1.64843,0.0273 1.38208,-0.13092 2.75696,-0.34615 4.14063,-0.45898 2.21699,-0.18078 4.44566,-0.0953 6.66797,0 11.04048,0.47348 22.07075,1.18641 33.11328,1.60937 9.65657,0.36988 19.33794,0.51672 28.97265,-0.23047 6.69305,-0.51905 13.34438,-1.46762 20.00586,-2.29882 12.88987,-1.60836 25.89082,-2.77832 38.86133,-2.07032 10.98108,0.59941 21.8854,2.54144 32.88281,2.5293 7.83918,-0.009 15.63686,-1.01046 23.45313,-1.60937 3.06566,-0.23491 6.13753,-0.40752 9.19922,-0.68946 0.45843,-0.0422 0.91993,-0.0879 1.36133,-0.21875 0.44139,-0.13082 0.86612,-0.35356 1.16797,-0.70117 0.18984,-0.21862 0.32723,-0.48591 0.375,-0.77148 0.0478,-0.28558 0.003,-0.58877 -0.14454,-0.83789 -0.16115,-0.27208 -0.43231,-0.46563 -0.71875,-0.59961 -0.28643,-0.13399 -0.59415,-0.21571 -0.89257,-0.32032 -1.45776,-0.51098 -2.68948,-1.53554 -4.13868,-2.07031 -0.59016,-0.21778 -1.22254,-0.34692 -1.85156,-0.35742 z"
     id="path4249-2" />
  <path
     inkscape:connector-curvature="0"
     style="fill:#ffffff;stroke:none;stroke-width:1px;stroke-linecap:butt;stroke-linejoin:miter;stroke-opacity:1"
     d="m 399.60961,463.0625 c -11.37866,0.0356 -22.75772,0.22795 -34.13281,0.51367 -23.32281,0.58584 -46.63563,1.56099 -69.96094,2.03711 -10.63979,0.21718 -21.28181,0.33062 -31.92382,0.33984 -1.42304,13.08354 -2.21635,26.23482 -2.37696,39.39454 -0.48819,40.00034 4.85602,80.22031 -0.33984,119.88476 -0.90482,6.90729 -2.10772,14.07701 0,20.7168 0.43335,1.36516 1.02536,2.72056 2.03711,3.73437 1.06155,1.06372 2.51465,1.67193 3.99414,1.93555 1.47949,0.26362 2.99691,0.20762 4.49609,0.10352 5.91244,-0.41057 11.75285,-1.56043 17.66016,-2.03907 3.44834,-0.2794 7.00158,-0.34854 10.1875,-1.69726 2.3287,-0.98584 4.37286,-2.64841 5.77344,-4.75391 1.64452,-2.47223 2.36781,-5.46051 2.58398,-8.42187 0.21618,-2.96136 -0.0431,-5.93362 -0.20508,-8.89844 -1.31673,-24.10732 3.83056,-48.26134 2.03711,-72.33789 -0.5994,-8.04678 -1.96611,-16.20979 -0.33984,-24.11328 1.33904,-6.50762 4.66627,-12.48282 8.83008,-17.66016 6.54144,-8.13373 15.40116,-14.57215 25.4707,-17.32031 10.71439,-2.92415 22.34667,-1.54301 32.60352,2.7168 13.80441,5.73316 25.56191,17.04236 30.22461,31.24414 4.37395,13.32232 2.37805,27.75555 2.03906,41.77343 -0.39707,16.41965 1.55241,32.82086 1.35742,49.24414 -0.0834,7.02208 -0.55938,14.03511 -0.67969,21.05664 -0.0407,2.37707 -0.0407,4.7538 0,7.13086 4.69895,0.59955 9.44415,0.84208 14.17969,0.72266 7.20374,-0.18167 14.60257,-1.1732 21.48047,0.97656 1.68874,0.52784 3.33055,1.24074 5.07617,1.5293 0.87281,0.14428 1.76926,0.18011 2.64062,0.0273 0.87137,-0.15276 1.7178,-0.49975 2.4004,-1.0625 0.57084,-0.47062 1.01713,-1.08248 1.33203,-1.75195 0.3149,-0.66946 0.50208,-1.39502 0.5957,-2.12891 0.18723,-1.46776 0.007,-2.9554 -0.1582,-4.42578 -1.59756,-14.19503 -1.90264,-28.50784 -1.69727,-42.79101 0.52119,-36.24845 4.31909,-72.57424 1.01758,-108.67578 -0.59215,-6.47504 -1.41162,-12.92938 -2.37695,-19.35938 -0.3233,-2.15342 -0.66362,-4.3029 -1.01953,-6.45117 -6.22305,-0.32113 -12.44926,-0.57748 -18.67774,-0.76563 -11.37349,-0.34355 -22.75025,-0.46336 -34.12891,-0.42773 z m -61.72656,43.20703 c -3.91213,1.26191 -7.59684,3.22761 -10.82422,5.77344 -3.838,3.0275 -7.03443,6.89334 -9.14062,11.30469 -2.2824,4.7804 -3.25267,10.09662 -3.56445,15.38476 -0.31179,5.28814 0.0118,10.58874 0.19726,15.88281 0.70183,20.03463 -0.58371,40.08617 -0.48047,60.13282 0.0571,11.07726 0.53877,22.15099 1.44336,33.1914 0.0862,-1.79822 0.87535,-3.55347 2.16406,-4.81054 0.97871,-0.95467 2.22018,-1.62129 3.12696,-2.64453 0.9293,-1.04867 1.45399,-2.44848 1.44336,-3.84961 -1.47436,-1.05325 -2.59066,-2.5974 -3.12696,-4.32813 -0.6694,-2.1603 -0.43823,-4.48337 -0.24023,-6.73633 1.36314,-15.51096 0.8503,-31.1296 -0.24024,-46.66211 -1.20211,-17.12173 -3.07578,-34.60995 1.20118,-51.23242 0.92719,-3.60355 2.15371,-7.16427 4.08984,-10.3418 3.15338,-5.17523 8.19379,-9.17252 13.95117,-11.06445 z"
     id="path984-6" />
</svg>
