<svg height="611.8252" viewBox="0 0 400 489.46016" width="500" xmlns="http://www.w3.org/2000/svg"><path d="m0 0h1.81491c-.4935732.70437-1.11568121 1.32133-1.81491 1.82005z" fill="#fff"/><path d="m1.81491 0h396.32391l1.86118 1.82005v294.09768c-1.09512 34.18509-11.05398 68.08741-28.87918 97.30077-12.76606 21.08998-29.52699 39.72751-49.02313 54.79692-20.94088 16.13882-45.10026 28.11311-70.67867 34.82776-14.82776 3.97944-30.12339 6.13368-45.45501 6.61697h-11.93316c-35.35733-.99743-70.4216-11.56298-100.349616-30.44216-31.81491-19.9126-57.840617-48.96658-74.061697-82.81234-12.2467864-25.43959-19.06426708-53.53213-19.619537-81.76864v-292.61696z" fill="#060203"/><path d="m398.13882 0h1.86118v1.82005c-.72494-.49358-1.29563-1.1671-1.86118-1.82005z" fill="#fff"/><path d="m5.1413882 5.14138c129.9074518-.005 259.8149118-.005 389.7172218 0 .005 85.00257 0 170.01029.005 255.018-.1491 18.86375.70951 37.84576-2.03085 56.57583-4.56555 33.05399-17.97943 64.8072-38.34447 91.2288-14.86375 19.35732-33.38303 35.90745-54.30334 48.473-26.93059 16.26221-57.90231 25.80977-89.32134 27.43959-34.35475 2.00514-69.23393-5.32648-99.80977-21.15681-32.123249-16.48843-59.501141-42.09254-78.046128-73.07969-17.11054-28.26735-26.7455012-61.01285-27.6606683-94.04113-.4215938-11.98458-.1079691-23.97944-.2056555-35.96401 0-84.83291 0-169.66581 0-254.49358z" fill="#e22"/><path d="m180.25193 37.29048c.73522-.1491 1.491-.15938 2.24164-.1748 11.32134.0154 22.63754.0154 33.95373.005 1.08998 0 2.17481.0874 3.25964.20051.0206.47301.0566 1.41903.0771 1.89203-3.95887 5.13111-7.86632 10.30335-11.75835 15.48586-.7198.79178-.56041 1.89718-.59126 2.87404.0257 3.1671.0103 6.33933.0154 9.50643 3.52185.0154 7.0437.072 10.56555.0874 1.2288.16453 2.1491-.76092 3.0797-1.39332 4.7455-3.53727 9.61953-6.88946 14.31362-10.48843.47301-.0308 1.41388-.0874 1.88689-.11825.26735.78149.55527 1.57327.51928 2.41645.0309 11.48586-.0668 22.97173-.0206 34.45759.0154 1.00257-.15938 1.99486-.37018 2.97686-.82262-.0977-1.77377.16967-2.473-.37018-5.28021-3.84062-10.52442-7.73265-15.82005-11.55784-3.89204-.036-7.78921.0514-11.68124.0463-.0463 6.16453-.37018 12.32391-.40617 18.48843 7.36761 1.24422 14.60154 3.91774 20.51414 8.58098 5.65553 4.31877 10.05141 10.64782 11.01285 17.80463 1.11054 7.26478-1.79434 14.70437-6.72493 20.01542-6.31877 6.83291-15.30077 10.66324-24.37018 12.11311.0411 2.84833 0 5.69666.0823 8.54499 9.91774.3856 19.79949 2.40103 29.03856 6.05656 10.17481 4.02056 19.32648 10.45244 26.84319 18.37018 12.49357 13.44987 20.509 30.3239 26.52956 47.48586 7.43445 21.51671 12.07712 43.8766 16.02057 66.25707 1.52185 8.75064 2.89974 17.52699 4.20051 26.31876.40617 3.30591 1.44987 6.49358 2.02571 9.77378 1.84576 9.72237 4.13882 19.37275 7.14139 28.81234 2.64781 8.49357 5.83033 16.8689 10.21593 24.62725 2.84833 4.67352 6.10797 9.76864 11.44473 11.82005.0411.47815.12854 1.42931.16967 1.90231-.75064.30335-1.54242.51929-2.35476.48844-10.982.0206-21.96401.0617-32.94601.0771-3.11054-.0566-6.22622.15938-9.32134-.15939-5.56812-11.38817-8.93573-23.70179-11.96915-35.96401-56.73522.22108-113.47558.20566-170.2108.005-2.54498 10.75064-5.61953 21.40874-9.88174 31.61953-.60669 1.48586-1.31106 2.93059-2.06684 4.34962-7.73265.34961-15.491005.0514-23.233935.11311-6.771208-.0463-13.552699.0411-20.323908-.10797-1.192802-.0206-.946015-1.491-.966581-2.30334 3.48072-1.19281 6.030849-4.01029 8.236504-6.82777 4.154242-5.64524 7.064268-12.0874 9.645244-18.57069 5.316196-13.70694 8.81234-28.04627 11.521851-42.47301 1.372751-4.86375 1.840617-9.89717 2.647815-14.86889 3.557841-22.97173 7.727507-45.89718 13.89203-68.32905 3.5527-12.62211 7.82005-25.09512 13.56812-36.89974 4.60669-9.50129 10.31877-18.51929 17.43445-26.34448 9.54756-10.52956 22.13368-18.25707 35.85604-21.97943 6.93574-1.96915 14.11311-2.91517 21.29049-3.41388-.0463-2.8072-.005-5.6144.0206-8.42674-8.18509-1.46015-16.22108-4.72493-22.34448-10.47301-4.1748-3.97943-7.34704-9.18252-8.22622-14.94087-1.19794-7.17224 1.34705-14.67866 6.1234-20.07198 6.04113-6.89974 14.86889-11.018 23.86118-12.28792.10797-6.39589.036-12.79177.0411-19.18766-3.88689-.005-7.77378-.0771-11.66067-.0411-5.27506 3.83548-10.53984 7.69152-15.80463 11.54242-.77635.64781-1.83547.25707-2.74036.2365-.25192-11.57326-.0668-23.16195-.14395-34.74036.0154-1.66581-.17995-3.38817.48843-4.96144.48329.0308 1.45501.0874 1.9383.11825 4.77121 3.71209 9.78406 7.1054 14.62211 10.73522.69923.4473 1.35218 1.15167 2.25193 1.12597 3.68123.0617 7.36761-.0823 11.05398-.0514-.0154-3.69666.0566-7.39331-.0154-11.08997.036-.7198-.49872-1.26993-.85861-1.83548-3.49101-4.76092-6.91517-9.56812-10.41132-14.32391-.58097-.69408-.81748-1.99485.0514-2.55527z" fill="#060203"/><path d="m183.17738 39.71722c11.02313-.072 22.05141-.0874 33.07969.005-3.60926 4.37018-6.88946 9.01285-10.37018 13.48586-1.39846 1.4653-1.00257 3.58355-1.05399 5.42417.0617 3.42416-.12339 6.85347.13368 10.27249.26221.18509.78663.54499 1.04884.72494 4.69409 0 9.45502.41131 14.11311-.0925 5.10026-3.49614 10.09255-7.18766 15.03857-10.89974.0668 10.99743-.0103 21.99486-.005 32.99229-4.70437-3.47044-9.42416-6.9306-14.14396-10.37533-1.14138-.982-2.68894-.78663-4.07712-.80205-3.26478.0617-6.52956.0308-9.79434.11311-.8946.0411-2.28278.30334-2.2365 1.47044-.31363 6.23136.0206 12.48329-.3599 18.71465-.0925 1.08997.20565 2.1491.42673 3.20308 8.87404 1.09512 17.67095 4.59126 24.06684 10.98201 4.20566 4.28277 7.29563 10.0617 7.15681 16.19023.11311 6.23136-3.05912 12.10797-7.43444 16.38046-6.14396 5.80463-14.32905 9.15681-22.6581 10.18509-.27249.15424-.82776.46273-1.1054.61697-.25707 3.80463-.0771 7.62468-.0463 11.43959.14396.28792.43187.85861.57583 1.14653 9.62468.76092 19.31106 2.07712 28.37533 5.55784 10.31362 3.78406 19.61439 10.09768 27.22879 17.98457 13.491 14.33419 21.69151 32.67867 27.81491 51.15682 9.50642 29.37275 14.48329 59.94858 19.09511 90.39588 1.78921 7.41388 3.01286 14.95116 4.87918 22.35476 3.36761 13.16709 7.3419 26.32905 13.8509 38.32905 2.3599 4.1748 5.05398 8.29306 8.8329 11.32648-12.49357-.005-24.98714.15424-37.48072.0925-4.04627-9.23907-7.18251-18.86375-9.66581-28.63239-.67352-2.4473-1.02827-4.99229-2-7.34704-10.63753-.33419-21.29562-.0154-31.94344-.0668-21.08997-.0617-42.16967.34961-63.25964.26221-21.24422-.28278-42.49871-.2108-63.74807-.32391-5.00257.0977-10.01028-.22108-15.00257.12339-.88946 2.26222-1.26993 4.67353-1.89203 7.018-2.49872 9.88689-5.59898 19.65039-9.75322 28.97686-12.519277-.005-25.04884-.0308-37.56812-.15938 3.357326-2.35476 5.62982-5.89203 7.794344-9.30077 4.508998-7.6144 7.712083-15.92288 10.447301-24.31363 3.583548-10.94601 6.1491-22.19023 8.303342-33.49614 1.336761-4.71979 1.794344-9.6144 2.570694-14.44216 3.547558-22.94601 7.696659-45.84062 13.825189-68.25193 2.92031-10.31876 6.26221-20.53984 10.56556-30.37018 5.26478-12.21594 12.11311-23.89717 21.31105-33.58354 5.78406-5.87661 12.42674-10.96659 19.84062-14.61697 10-5.05399 21.13624-7.53213 32.26735-8.32905 1.48072-.32905 3.62982.32391 4.37018-1.42416-.0514-3.50643.12853-7.018-.0154-10.52443.11311-1.27506-1.29563-1.77377-2.31877-1.82519-7.96401-1.30077-15.75321-4.67866-21.52185-10.42159-3.99486-4.10797-6.94088-9.55784-6.9563-15.39332-.25193-6.28792 2.60154-12.45244 7.09512-16.77121 5.9383-6.05141 14.2365-9.20822 22.50899-10.38046.16967-.25707.51414-.76607.68381-1.02314.0617-7.08483.0977-14.17994-.0103-21.25964.0308-1.71722-2.11826-1.69151-3.33677-1.69665-3.91773.12339-7.88689-.34448-11.76349.1491-5.18252 3.46529-10.14396 7.28534-15.1671 10.982.0257-11.00257-.10797-22 .005-33.00257 4.29306 3.33676 8.79178 6.40103 13.15168 9.65553.91002.64267 1.82005 1.49614 3.02313 1.43959 4.32391.0206 8.65296.036 12.97687-.1234.25706-.17995.77635-.53984 1.03341-.71979.26222-4.27764.0977-8.57584.11826-12.85861.11311-1.71723-1.18766-2.99743-2.07712-4.30849-2.98715-3.97429-5.71723-8.15424-8.84319-12.01542z" fill="#fff"/><path d="m172.66838 200.12853c10.48329-5.21337 22.52442-6.3599 34.0617-5.40874 9.31619.92545 18.51928 3.91774 26.19537 9.36247 9.32134 6.56555 16.20566 16.01542 21.30077 26.09768 7.76864 15.40874 12.31877 32.17995 16.07198 48.94602.40103 2.26221 1.36761 4.52956.9563 6.86375-.47815.79692-1.57327.53471-2.34962.66324-43.01799.15424-86.03599.18509-129.05398.0257-4.01542-.0411-8.03599.10283-12.04627-.15938-.17481-1.21337-.25193-2.45759.0617-3.65553 2.22622-10.07198 4.58612-20.12854 7.71209-29.96401 3.25449-10.07712 7.08483-20.0617 12.61182-29.13625 5.83548-9.86118 14.05142-18.61696 24.47815-23.63496z" fill="#060203"/><path d="m174.77121 201.97943c10.52956-4.94602 22.56041-5.75321 33.97943-4.43188 10.74036 1.35733 21.12083 6.08227 28.82262 13.75322 7.13111 6.75578 12.24679 15.31619 16.37018 24.15424 7.02314 15.47044 11.27507 32.01542 14.79178 48.58098-13.48586.0668-26.96658.0514-40.45244.16452-14.73522-.0668-29.47558.52956-44.2108.0154-17.9383-.0308-35.87661-.13367-53.81491-.18509 2.38046-10.97686 4.9563-21.9383 8.509-32.60668 3.46529-10.46272 7.73779-20.77121 13.91773-29.94859 5.59383-8.1748 12.97173-15.39331 22.08741-19.49614z" fill="#e22"/><path d="m122.7455 312.37532c2.24679-.31877 4.51928-.19023 6.78149-.20566 44.56555-.005 89.13625-.005 133.70694 0 4.33419.0977 8.68895-.22108 13.00772.20052 1.86632 8.35475 2.73007 16.91002 4.14395 25.35218.33934 3.35219 1.42931 6.6581 1.07455 10.05141-2.12339.29821-4.27249.2108-6.40617.2108-50.21593 0-100.43187 0-150.64781 0-2.2982-.0154-4.60154.11311-6.87918-.22108-.10797-1.26478-.0925-2.5347.15939-3.77892 1.72236-10.52956 2.88431-21.16195 5.05912-31.60925z" fill="#060203"/><path d="m124.82776 314.57583c49.78921-.0154 99.57327 0 149.35733-.005 1.74807 10.31362 3.21851 20.67352 4.78149 31.01799-52.97686-.0103-105.95373.005-158.93059-.0103 1.60411-10.33419 3.01799-20.69923 4.79177-31.00257z" fill="#e22"/></svg>