<svg xmlns="http://www.w3.org/2000/svg" xmlns:xlink="http://www.w3.org/1999/xlink" version="1.0" width="680" height="777" id="svg2"><defs id="defs5"><linearGradient x1="51.5" y1="714.862" x2="51.5" y2="-245.192" id="linearGradient3658" gradientUnits="userSpaceOnUse" gradientTransform="matrix(1.0361 0 0 1.18745 2.944 46.03)"><stop id="stop3654" offset="0" stop-color="#3398ff" stop-opacity="1"/><stop id="stop3656" offset="1" stop-color="#fff" stop-opacity="1"/></linearGradient><linearGradient id="linearGradient2654"><stop id="stop2656" offset="0" stop-color="#fff" stop-opacity=".314"/><stop id="stop2658" offset=".19" stop-color="#fff" stop-opacity=".251"/><stop id="stop2660" offset=".6" stop-color="#6b6b6b" stop-opacity=".125"/><stop id="stop2662" offset="1" stop-color="#000" stop-opacity=".125"/></linearGradient><linearGradient x1="107.75" y1="191.963" x2="139.396" y2="166.385" id="linearGradient2605" xlink:href="#linearGradient1732" gradientUnits="userSpaceOnUse"/><linearGradient x1="82.143" y1="264.167" x2="113.69" y2="258.413" id="linearGradient2607" xlink:href="#linearGradient1732" gradientUnits="userSpaceOnUse"/><linearGradient x1="84.127" y1="260.595" x2="115.675" y2="257.619" id="linearGradient2609" xlink:href="#linearGradient1732" gradientUnits="userSpaceOnUse"/><linearGradient x1="88.492" y1="297.103" x2="118.056" y2="280.635" id="linearGradient2611" xlink:href="#linearGradient1732" gradientUnits="userSpaceOnUse"/><linearGradient x1="118.452" y1="312.778" x2="136.325" y2="294.722" id="linearGradient2613" xlink:href="#linearGradient1732" gradientUnits="userSpaceOnUse"/><linearGradient x1="131.151" y1="395.317" x2="166.667" y2="415.357" id="linearGradient2615" xlink:href="#linearGradient1732" gradientUnits="userSpaceOnUse"/><linearGradient x1="107.143" y1="225.278" x2="130.357" y2="242.341" id="linearGradient2617" xlink:href="#linearGradient1732" gradientUnits="userSpaceOnUse"/><linearGradient x1="143.651" y1="488.968" x2="163.889" y2="454.048" id="linearGradient2619" xlink:href="#linearGradient1732" gradientUnits="userSpaceOnUse"/><linearGradient x1="186.508" y1="491.746" x2="186.508" y2="458.413" id="linearGradient2621" xlink:href="#linearGradient1732" gradientUnits="userSpaceOnUse"/><linearGradient x1="292.857" y1="493.73" x2="321.825" y2="513.175" id="linearGradient2623" xlink:href="#linearGradient1732" gradientUnits="userSpaceOnUse"/><linearGradient x1="266.27" y1="534.206" x2="312.302" y2="534.603" id="linearGradient2625" xlink:href="#linearGradient1732" gradientUnits="userSpaceOnUse"/><linearGradient x1="300" y1="566.746" x2="319.151" y2="547.595" id="linearGradient2627" xlink:href="#linearGradient1732" gradientUnits="userSpaceOnUse"/><linearGradient x1="337.302" y1="571.111" x2="341.27" y2="546.905" id="linearGradient2629" xlink:href="#linearGradient1732" gradientUnits="userSpaceOnUse"/><linearGradient x1="241.143" y1="51.421" x2="243.124" y2="48.303" id="linearGradient2631" xlink:href="#linearGradient1732" gradientUnits="userSpaceOnUse" gradientTransform="translate(75.924 47.102)"/><linearGradient id="linearGradient2633"><stop id="stop2635" offset="0" stop-color="#fff" stop-opacity="1"/><stop id="stop2637" offset="1" stop-color="#fff" stop-opacity="1"/></linearGradient><linearGradient x1="177.338" y1="217.778" x2="211.83" y2="213.55" id="linearGradient2639" xlink:href="#linearGradient1732" gradientUnits="userSpaceOnUse"/><linearGradient x1="124.585" y1="115.64" x2="157.2" y2="137.971" id="linearGradient2641" xlink:href="#linearGradient1732" gradientUnits="userSpaceOnUse"/><linearGradient x1="87.547" y1="139.21" x2="124.361" y2="137.971" id="linearGradient2643" xlink:href="#linearGradient1732" gradientUnits="userSpaceOnUse"/><linearGradient x1="112.239" y1="75.234" x2="137.605" y2="90.412" id="linearGradient2645" xlink:href="#linearGradient1732" gradientUnits="userSpaceOnUse"/><linearGradient x1="179.583" y1="75.234" x2="193.021" y2="101.814" id="linearGradient2647" xlink:href="#linearGradient1732" gradientUnits="userSpaceOnUse"/><linearGradient x1="270.496" y1="176.249" x2="296.929" y2="185.716" id="linearGradient2649" xlink:href="#linearGradient1732" gradientUnits="userSpaceOnUse"/><linearGradient x1="94.281" y1="496.131" x2="124.137" y2="467.622" id="linearGradient2651" xlink:href="#linearGradient1732" gradientUnits="userSpaceOnUse"/><linearGradient x1="171" y1="92.5" x2="180" y2="96.5" id="linearGradient2653" xlink:href="#linearGradient1732" gradientUnits="userSpaceOnUse"/><linearGradient x1="107.75" y1="191.963" x2="139.396" y2="166.385" id="linearGradient1800" xlink:href="#linearGradient1732" gradientUnits="userSpaceOnUse"/><linearGradient x1="82.143" y1="264.167" x2="113.69" y2="258.413" id="linearGradient1590" xlink:href="#linearGradient1732" gradientUnits="userSpaceOnUse"/><linearGradient x1="84.127" y1="260.595" x2="115.675" y2="257.619" id="linearGradient1598" xlink:href="#linearGradient1732" gradientUnits="userSpaceOnUse"/><linearGradient x1="88.492" y1="297.103" x2="118.056" y2="280.635" id="linearGradient1606" xlink:href="#linearGradient1732" gradientUnits="userSpaceOnUse"/><linearGradient x1="118.452" y1="312.778" x2="136.325" y2="294.722" id="linearGradient1614" xlink:href="#linearGradient1732" gradientUnits="userSpaceOnUse"/><linearGradient x1="131.151" y1="395.317" x2="166.667" y2="415.357" id="linearGradient1622" xlink:href="#linearGradient1732" gradientUnits="userSpaceOnUse"/><linearGradient x1="107.143" y1="225.278" x2="130.357" y2="242.341" id="linearGradient1582" xlink:href="#linearGradient1732" gradientUnits="userSpaceOnUse"/><linearGradient x1="143.651" y1="488.968" x2="163.889" y2="454.048" id="linearGradient1642" xlink:href="#linearGradient1732" gradientUnits="userSpaceOnUse"/><linearGradient x1="186.508" y1="491.746" x2="186.508" y2="458.413" id="linearGradient1650" xlink:href="#linearGradient1732" gradientUnits="userSpaceOnUse"/><linearGradient x1="292.857" y1="493.73" x2="321.825" y2="513.175" id="linearGradient1658" xlink:href="#linearGradient1732" gradientUnits="userSpaceOnUse"/><linearGradient x1="266.27" y1="534.206" x2="312.302" y2="534.603" id="linearGradient1666" xlink:href="#linearGradient1732" gradientUnits="userSpaceOnUse"/><linearGradient x1="300" y1="566.746" x2="319.151" y2="547.595" id="linearGradient1674" xlink:href="#linearGradient1732" gradientUnits="userSpaceOnUse"/><linearGradient x1="337.302" y1="571.111" x2="341.27" y2="546.905" id="linearGradient1682" xlink:href="#linearGradient1732" gradientUnits="userSpaceOnUse"/><linearGradient x1="241.143" y1="51.421" x2="243.124" y2="48.303" id="linearGradient1397" xlink:href="#linearGradient1732" gradientUnits="userSpaceOnUse" gradientTransform="translate(75.924 47.102)"/><linearGradient id="linearGradient1732"><stop id="stop1734" offset="0" stop-color="#fff" stop-opacity="1"/><stop id="stop1736" offset="1" stop-color="#fff" stop-opacity="1"/></linearGradient><linearGradient x1="177.338" y1="217.778" x2="211.83" y2="213.55" id="linearGradient1549" xlink:href="#linearGradient1732" gradientUnits="userSpaceOnUse"/><linearGradient x1="124.585" y1="115.64" x2="157.2" y2="137.971" id="linearGradient1551" xlink:href="#linearGradient1732" gradientUnits="userSpaceOnUse"/><linearGradient x1="87.547" y1="139.21" x2="124.361" y2="137.971" id="linearGradient1553" xlink:href="#linearGradient1732" gradientUnits="userSpaceOnUse"/><linearGradient x1="112.239" y1="75.234" x2="137.605" y2="90.412" id="linearGradient1555" xlink:href="#linearGradient1732" gradientUnits="userSpaceOnUse"/><linearGradient x1="179.583" y1="75.234" x2="193.021" y2="101.814" id="linearGradient1557" xlink:href="#linearGradient1732" gradientUnits="userSpaceOnUse"/><linearGradient x1="270.496" y1="176.249" x2="296.929" y2="185.716" id="linearGradient1559" xlink:href="#linearGradient1732" gradientUnits="userSpaceOnUse"/><linearGradient x1="94.281" y1="496.131" x2="124.137" y2="467.622" id="linearGradient1561" xlink:href="#linearGradient1732" gradientUnits="userSpaceOnUse"/><linearGradient x1="171" y1="92.5" x2="180" y2="96.5" id="linearGradient2433" xlink:href="#linearGradient1732" gradientUnits="userSpaceOnUse"/><linearGradient id="linearGradient2955"><stop id="stop2965" offset="0" stop-color="#fff" stop-opacity="0"/><stop id="stop2959" offset="1" stop-color="#000" stop-opacity=".646"/></linearGradient><linearGradient id="linearGradient2893"><stop id="stop2895" offset="0" stop-color="#fff" stop-opacity=".314"/><stop id="stop2897" offset=".19" stop-color="#fff" stop-opacity=".251"/><stop id="stop2901" offset=".6" stop-color="#6b6b6b" stop-opacity=".125"/><stop id="stop2899" offset="1" stop-color="#000" stop-opacity=".125"/></linearGradient><clipPath id="clipPath23"><path d="M.03 841.95h595.26V.03H.03z" id="path25"/></clipPath><clipPath id="clipPath17"><path d="M0 841.89h595.276V0H0z" id="path19"/></clipPath><clipPath id="clipPath2506"><path d="M0 841.89h595.276V0H0z" id="path2508"/></clipPath><clipPath id="clipPath2510"><path d="M.03 841.95h595.26V.03H.03z" id="path2512"/></clipPath><clipPath id="clipPath3292"><path d="M0 841.89h595.276V0H0z" id="path3294"/></clipPath><clipPath id="clipPath3296"><path d="M.03 841.95h595.26V.03H.03z" id="path3298"/></clipPath><clipPath id="clipPath3316"><path d="M0 841.89h595.276V0H0z" id="path3318"/></clipPath><clipPath id="clipPath3320"><path d="M.03 841.95h595.26V.03H.03z" id="path3322"/></clipPath><clipPath id="clipPath3916"><path d="M-.138 841.445h595.276V-.445H-.138z" id="path3918"/></clipPath><clipPath id="clipPath3922"><path d="M.03 841.95h595.26V.03H.03z" id="path3924"/></clipPath><clipPath id="clipPath3335"><path d="M.03 841.95h595.26V.03H.03z" id="path3337"/></clipPath><clipPath id="clipPath3329"><path d="M-.138 841.445h595.276V-.445H-.138z" id="path3331"/></clipPath><clipPath id="clipPath2450"><path d="M-.138 841.445h595.276V-.445H-.138z" id="path2452"/></clipPath><clipPath id="clipPath2456"><path d="M.03 841.95h595.26V.03H.03z" id="path2458"/></clipPath><clipPath id="clipPath3523"><path d="M-.138 841.445h595.276V-.445H-.138z" id="path3525"/></clipPath><clipPath id="clipPath3529"><path d="M.03 841.95h595.26V.03H.03z" id="path3531"/></clipPath><clipPath id="clipPath2512"><path d="M0 841.89h595.276V0H0z" id="path2514"/></clipPath><clipPath id="clipPath2508"><path d="M.03 841.95h595.26V.03H.03z" id="path2510"/></clipPath><clipPath id="clipPath3383"><path d="M.03 841.95h595.26V.03H.03z" id="path3385"/></clipPath><clipPath id="clipPath3379"><path d="M0 841.89h595.276V0H0z" id="path3381"/></clipPath><clipPath id="clipPath3517"><path d="M.03 841.95h595.26V.03H.03z" id="path3519"/></clipPath><clipPath id="clipPath3513"><path d="M0 841.89h595.276V0H0z" id="path3515"/></clipPath><clipPath id="clippath"><path d="M360 4140c0 1789.403 1450.597 3240 3240 3240s3240-1450.597 3240-3240V270H360z" id="path3582"/></clipPath><clipPath id="clip"><path d="M0-200v800h300v-800z" id="path10"/></clipPath><clipPath id="clipPath3725"><path d="M404.161 505.122v-166.41h155.181v166.41" id="path3727"/></clipPath><clipPath id="clipPath3993"><path d="M360 4140c0 1789.403 1450.597 3240 3240 3240s3240-1450.597 3240-3240V270H360z" id="path2835"/></clipPath><clipPath id="clipPath223"><path d="M404.161 505.122v-166.41h155.181v166.41" id="path225"/></clipPath><path d="M5760 4050H4230v360h-360v1530h-360V4050h360v-540h-360V1620h360v1530h360v360h1530z" id="mühlrad-10"/><path d="M1440 4050h1530v360h360v1530h360V4050h-360v-540h360V1620h-360v1530h-360v360H1440z" id="mühlrad-9"/><path d="M4050 810h-900l180 855h540z" id="mühlrad-8"/><path d="M6018 1998l-636-636-477 732 381 381z" id="mühlrad-7"/><path d="M6570 4230v-900l-855 180v540z" id="mühlrad-6"/><path d="M5382 6198l636-636-732-477-381 381z" id="mühlrad-5"/><path d="M3150 6750h900l-180-855h-540z" id="mühlrad-4"/><path d="M1182 5562l636 636 477-732-381-381z" id="mühlrad-3"/><path d="M630 3330v900l855-180v-540z" id="mühlrad-2"/><path d="M1818 1362l-636 636 732 477 381-381z" id="mühlrad-1"/><path d="M3600 1980v-540c1292.346 0 2340 1047.654 2340 2340S4892.346 6120 3600 6120v-540c994.112 0 1800-805.888 1800-1800s-805.888-1800-1800-1800z" id="kreis2-1"/><path d="M3600 1980v-540c-1292.346 0-2340 1047.654-2340 2340s1047.654 2340 2340 2340v-540c-994.112 0-1800-805.888-1800-1800s805.888-1800 1800-1800z" id="kreis1-1"/><path transform="scale(53)" id="star" d="M-.951-.309H.95L-.588.809 0-1 .588.809z"/><radialGradient cx="285.186" cy="200.448" r="300" fx="285.186" fy="200.448" id="radialGradient2773" xlink:href="#linearGradient2893" gradientUnits="userSpaceOnUse" gradientTransform="matrix(1.55128 0 0 1.35034 559.677 145.571)"/><radialGradient cx="285.186" cy="200.448" r="300" fx="285.186" fy="200.448" id="radialGradient2770" xlink:href="#linearGradient2893" gradientUnits="userSpaceOnUse" gradientTransform="matrix(1.55128 0 0 1.35034 -227.894 -51.264)"/><radialGradient cx="285.186" cy="200.448" r="300" fx="285.186" fy="200.448" id="radialGradient2721" xlink:href="#linearGradient2893" gradientUnits="userSpaceOnUse" gradientTransform="matrix(1.55128 0 0 1.35034 -227.894 -51.264)"/><radialGradient cx="285.186" cy="200.448" r="300" fx="285.186" fy="200.448" id="radialGradient2664" xlink:href="#linearGradient2893" gradientUnits="userSpaceOnUse" gradientTransform="matrix(1.55128 0 0 1.35034 -227.894 -51.264)"/><radialGradient cx="285.186" cy="200.448" r="300" fx="285.186" fy="200.448" id="radialGradient11919" xlink:href="#linearGradient2893" gradientUnits="userSpaceOnUse" gradientTransform="matrix(1.55128 0 0 1.35034 -227.894 -51.264)"/><radialGradient cx="-483.508" cy="153.928" r="300" fx="-483.508" fy="153.928" id="radialGradient2928" xlink:href="#linearGradient2955" gradientUnits="userSpaceOnUse" gradientTransform="matrix(0 2.34248 -2.29135 0 562.913 1323.77)"/><radialGradient cx="225.524" cy="218.901" r="300" fx="225.524" fy="218.901" id="radialGradient1911" xlink:href="#linearGradient2955" gradientUnits="userSpaceOnUse" gradientTransform="matrix(-.00042 2.18287 -1.88423 -.00036 1395.6 -309.121)"/><radialGradient cx="225.524" cy="218.901" r="300" fx="225.524" fy="218.901" id="radialGradient2961" xlink:href="#linearGradient2955" gradientUnits="userSpaceOnUse" gradientTransform="matrix(-.00042 2.18287 -1.88423 -.00036 615.597 -289.121)"/><radialGradient cx="203.198" cy="218.01" r="300" fx="203.198" fy="218.01" id="radialGradient2883" xlink:href="#linearGradient2893" gradientUnits="userSpaceOnUse" gradientTransform="matrix(1.36002 0 0 1.35509 -79.528 -87.645)"/><style type="text/css" id="style3584"/><style type="text/css" id="style2837"/></defs><g id="g1296" transform="translate(-7.75 15.525)"><path d="M680.96 50.186L656.278 441.33c-14.514 230.014-163.07 313.295-308.528 313.295-145.458 0-294.015-83.28-308.529-313.295L14.54 50.186C145.11 2.572 238.07-8.675 347.75-8.675c109.68 0 202.64 11.247 333.21 58.861z" id="path1119" fill="#fff" stroke="none" stroke-width="10" stroke-linecap="round" stroke-linejoin="round" stroke-miterlimit="4" stroke-dasharray="none" stroke-opacity="1"/><use height="525.886" width="505.769" y="0" x="0" id="use3591" transform="matrix(.06667 0 0 .06667 1444.49 39.774)" fill-rule="evenodd" stroke="#202020" stroke-width="60" stroke-linecap="butt" stroke-linejoin="miter" stroke-miterlimit="10"/><use height="525.886" width="505.769" y="0" x="0" id="use3593" transform="matrix(.06667 0 0 .06667 1444.49 39.774)" fill-rule="evenodd" stroke="#202020" stroke-width="60" stroke-linecap="butt" stroke-linejoin="miter" stroke-miterlimit="10"/><use height="525.886" width="505.769" y="0" x="0" id="use3595" transform="matrix(.06667 0 0 .06667 1444.49 39.774)" fill-rule="evenodd" stroke="#202020" stroke-width="60" stroke-linecap="butt" stroke-linejoin="miter" stroke-miterlimit="10"/><use height="525.886" width="505.769" y="0" x="0" id="use3597" transform="matrix(.06667 0 0 .06667 1444.49 39.774)" fill-rule="evenodd" stroke="#202020" stroke-width="60" stroke-linecap="butt" stroke-linejoin="miter" stroke-miterlimit="10"/><use height="525.886" width="505.769" y="0" x="0" id="use3599" transform="matrix(.06667 0 0 .06667 1444.49 39.774)" fill-rule="evenodd" stroke="#202020" stroke-width="60" stroke-linecap="butt" stroke-linejoin="miter" stroke-miterlimit="10"/><use height="525.886" width="505.769" y="0" x="0" id="use3601" transform="matrix(.06667 0 0 .06667 1444.49 39.774)" fill-rule="evenodd" stroke="#202020" stroke-width="60" stroke-linecap="butt" stroke-linejoin="miter" stroke-miterlimit="10"/><use height="525.886" width="505.769" y="0" x="0" id="use3603" transform="matrix(.06667 0 0 .06667 1444.49 39.774)" fill-rule="evenodd" stroke="#202020" stroke-width="60" stroke-linecap="butt" stroke-linejoin="miter" stroke-miterlimit="10"/><use height="525.886" width="505.769" y="0" x="0" id="use3605" transform="matrix(.06667 0 0 .06667 1444.49 39.774)" fill-rule="evenodd" stroke="#202020" stroke-width="60" stroke-linecap="butt" stroke-linejoin="miter" stroke-miterlimit="10"/><use height="525.886" width="505.769" y="0" x="0" id="use3607" transform="matrix(.06667 0 0 .06667 1444.49 39.774)" fill-rule="evenodd" stroke="#202020" stroke-width="60" stroke-linecap="butt" stroke-linejoin="miter" stroke-miterlimit="10"/><use height="525.886" width="505.769" y="0" x="0" id="use3609" transform="matrix(.06667 0 0 .06667 1444.49 39.774)" fill-rule="evenodd" stroke="#202020" stroke-width="60" stroke-linecap="butt" stroke-linejoin="miter" stroke-miterlimit="10"/><use height="525.886" width="505.769" y="0" x="0" id="use3611" transform="matrix(.06667 0 0 .06667 1444.49 39.774)" fill-rule="evenodd" stroke="#202020" stroke-width="60" stroke-linecap="butt" stroke-linejoin="miter" stroke-miterlimit="10"/><use height="525.886" width="505.769" y="0" x="0" id="use3613" transform="matrix(.06667 0 0 .06667 1444.49 39.774)" fill-rule="evenodd" stroke="#202020" stroke-width="60" stroke-linecap="butt" stroke-linejoin="miter" stroke-miterlimit="10"/><use height="525.886" width="505.769" y="0" x="0" id="use3615" transform="matrix(.06667 0 0 .06667 1444.49 39.774)" fill="#ffef00" fill-rule="evenodd" stroke-width="10" stroke-linecap="butt" stroke-linejoin="miter" stroke-miterlimit="10"/><use height="525.886" width="505.769" y="0" x="0" id="use3617" transform="matrix(.06667 0 0 .06667 1444.49 39.774)" fill="#ffef00" fill-rule="evenodd" stroke-width="10" stroke-linecap="butt" stroke-linejoin="miter" stroke-miterlimit="10"/><use height="525.886" width="505.769" y="0" x="0" id="use3619" transform="matrix(.06667 0 0 .06667 1444.49 39.774)" fill="#ffef00" fill-rule="evenodd" stroke-width="10" stroke-linecap="butt" stroke-linejoin="miter" stroke-miterlimit="10"/><use height="525.886" width="505.769" y="0" x="0" id="use3621" transform="matrix(.06667 0 0 .06667 1444.49 39.774)" fill="#ffef00" fill-rule="evenodd" stroke-width="10" stroke-linecap="butt" stroke-linejoin="miter" stroke-miterlimit="10"/><use height="525.886" width="505.769" y="0" x="0" id="use3623" transform="matrix(.06667 0 0 .06667 1444.49 39.774)" fill="#ffef00" fill-rule="evenodd" stroke-width="10" stroke-linecap="butt" stroke-linejoin="miter" stroke-miterlimit="10"/><use height="525.886" width="505.769" y="0" x="0" id="use3625" transform="matrix(.06667 0 0 .06667 1444.49 39.774)" fill="#ffef00" fill-rule="evenodd" stroke-width="10" stroke-linecap="butt" stroke-linejoin="miter" stroke-miterlimit="10"/><use height="525.886" width="505.769" y="0" x="0" id="use3627" transform="matrix(.06667 0 0 .06667 1444.49 39.774)" fill="#ffef00" fill-rule="evenodd" stroke-width="10" stroke-linecap="butt" stroke-linejoin="miter" stroke-miterlimit="10"/><use height="525.886" width="505.769" y="0" x="0" id="use3629" transform="matrix(.06667 0 0 .06667 1444.49 39.774)" fill="#ffef00" fill-rule="evenodd" stroke-width="10" stroke-linecap="butt" stroke-linejoin="miter" stroke-miterlimit="10"/><use height="525.886" width="505.769" y="0" x="0" id="use3631" transform="matrix(.06667 0 0 .06667 1444.49 39.774)" fill="#ffef00" fill-rule="evenodd" stroke-width="10" stroke-linecap="butt" stroke-linejoin="miter" stroke-miterlimit="10"/><use height="525.886" width="505.769" y="0" x="0" id="use3633" transform="matrix(.06667 0 0 .06667 1444.49 39.774)" fill="#ffef00" fill-rule="evenodd" stroke-width="10" stroke-linecap="butt" stroke-linejoin="miter" stroke-miterlimit="10"/><use height="525.886" width="505.769" y="0" x="0" id="use3635" transform="matrix(.06667 0 0 .06667 1444.49 39.774)" fill="#ffef00" fill-rule="evenodd" stroke-width="10" stroke-linecap="butt" stroke-linejoin="miter" stroke-miterlimit="10"/><use height="525.886" width="505.769" y="0" x="0" id="use3637" transform="matrix(.06667 0 0 .06667 1444.49 39.774)" fill="#ffef00" fill-rule="evenodd" stroke-width="10" stroke-linecap="butt" stroke-linejoin="miter" stroke-miterlimit="10"/><g transform="translate(811 21)" id="g1155" stroke-linecap="round" stroke-linejoin="round" stroke-miterlimit="4" stroke-dasharray="none" stroke-opacity="1"><path d="M-566.02 694.544c-11.098 4.674-22.079-3.09-6.146-7.823 13.307-3.952 14.288-19.162 13.968-35.76-.29-15.118-5.103-28.964-16.475-37.94-34.4 12.277-56.46 11.469-74.003-12.077 17.719-6.707 35.03-22.546 37.86-40.254-20.368 1.122-41.023-2.21-53.314-19.437 25.42-9.572 48.253-27.092 67.378-53.449l-19.19-20.115c19.192-10.181 47.978-29.415 58.439-56.243-10.998.954-19.515-.258-26.301-7.726 20.358-19.382 32.13-38.128 45.141-68.552 13.011 30.424 24.783 49.17 45.141 68.552-6.786 7.468-15.303 8.68-26.3 7.726 10.46 26.828 39.246 46.062 58.437 56.243l-19.19 20.115c19.126 26.357 41.96 43.877 67.379 53.449-12.291 17.227-32.946 20.559-53.314 19.437 2.83 17.708 20.141 33.547 37.86 40.254-17.542 23.546-39.603 24.354-74.003 12.078-11.372 8.975-16.185 22.821-16.476 37.939-.319 16.598.662 31.808 13.97 35.76 15.932 4.732 4.951 12.497-6.147 7.823-10.408-4.384-17.559-5.911-27.357-5.911-9.798 0-16.949 1.527-27.357 5.91z" id="path1125" fill="#000" stroke="#000" stroke-width="5"/><path d="M-576.637 403.99c12.03 4.118 24.462 3.811 37.974-8.38 13.512 12.191 25.944 12.498 37.974 8.38-13.347-12.258-26.116-27.982-37.974-49.17-11.858 21.188-24.627 36.912-37.974 49.17z" id="path1129" fill="#090" stroke="#090" stroke-width="2"/><path id="path1133" d="M-571.174 490.982l-16.059-1.382c-23.686 27.353-39.712 41.475-67.63 54.621 24.541 13.884 51.281 9.071 78.785-2.235 10.501 21.919 22.573 47.828 37.415 50.403 14.842-2.575 26.914-28.484 37.415-50.403 27.504 11.306 54.244 16.119 78.784 2.235-27.917-13.146-43.943-27.268-67.63-54.621l-16.058 1.382c-9.327 15.294-18.807 30.181-32.511 33.802-13.704-3.62-23.184-18.508-32.51-33.802z" fill="#090" stroke="#090" stroke-width="2"/><path d="M-573.843 602.545c-18.564 11.865-41.951 15.56-63.14 1.676 16.184-6.441 31.093-28.386 37.457-43.446 7.122-.562 17.484-2.462 21.647-.853 7.651 19.206 25.512 39.241 39.216 42.862 13.704-3.62 31.565-23.656 39.216-42.862 4.163-1.61 14.525.291 21.647.853 6.364 15.06 21.273 37.005 37.456 43.446-21.188 13.884-44.575 10.189-63.14-1.676-17.555 14.288-23.33 41.627-35.179 49.844-11.85-8.217-17.624-35.556-35.18-49.844z" id="path1135" fill="#090" stroke="#090" stroke-width="2"/><path id="path1139" d="M-507.395 471.6c12.516 3.387 24.723 4.923 35.76-.559-26.4-16.1-41.41-30.76-54.492-58.339l-12.536-5.918-12.536 5.918c-13.082 27.578-28.092 42.238-54.493 58.34 11.038 5.48 23.245 3.945 35.76.558 8.248 19.194 19.72 40.642 31.269 40.79 11.549-.148 23.02-21.596 31.268-40.79z" fill="#090" stroke="#090" stroke-width="2"/><path id="path1147" d="M-524.157 680.016c-9.733-1.581-19.275-.75-29.012 0 .453-8.202 8.06-16.527 14.506-16.527s14.053 8.325 14.506 16.527z" fill="#090" stroke="#090" stroke-width="2"/></g><g transform="translate(811 21)" id="g1175" stroke="#000" stroke-linecap="round" stroke-linejoin="round" stroke-miterlimit="4" stroke-dasharray="none" stroke-opacity="1"><path d="M-745.38 11.744l-50.153 18.399 3.217 68.033c20.585 13.046 38.257 38.067 59.228 63.314 21.542 25.937 66.928 33.09 82.64 47.726 19.41 18.082 23.268 37.313 45.603 53.042 21.81 15.36 75.875 36.422 99.425 58.924 21.01 20.076 29.64 54.1 56.666 72.695 30.2 20.778 66.959 34.482 93.385 65.99 14.945 17.818 26.834 43.921 50.288 56.992 22.486 12.532 76.5 28.652 96.8 85.45 16.85-30.162 32.274-59.766 40.937-102.212-18.434-12.45-53.058-28.522-73.768-43.583-28.745-20.907-34.9-47.945-66.204-79.344-19.56-19.618-59.869-32.72-89.401-50.288-34.056-20.26-41.512-60.351-68.168-84.93-23.188-21.382-61.93-29.839-90.519-48.054-36.737-23.406-29.937-46.928-51.733-66.78-36.763-33.484-79.268-29.147-92.585-54.262-16.197-30.546-28.398-46.864-45.659-61.112z" id="path1123" fill="#09f" stroke-width="8"/><path id="path1170" d="M-201.711 531.387c5.588 4.673 11.175 12.75 16.204 19.557m-35.202-17.322c12.107 9.208 21.978 22.456 27.938 31.29m-46.377-30.731c16.403 11.003 30.33 28.344 39.672 43.583M-328.549 412.93c8.382 8.025 16.204 16.103 24.027 27.938m-50.288-29.056c12.106 9.208 25.889 21.898 37.995 38.554m-66.492-36.319c17.52 7.092 47.65 29.462 60.346 50.288m-143.042-169.862c8.382 8.026 15.087 16.662 25.144 27.938m-54.758-34.643c12.107 9.208 32.594 28.044 44.7 44.7m-78.225-48.611c17.52 7.092 56.59 36.726 68.168 65.933m-162.04-172.097c11.176 9.143 18.44 16.103 28.497 27.38M-647.04 174.9c12.107 9.207 29.242 24.132 41.348 40.789m-63.14-37.996c15.555 9.714 43.484 28.313 57.553 54.2m-122.368-143.6c8.381 8.584 16.763 17.22 25.144 30.172m-46.936-31.29c12.107 9.208 24.213 22.456 36.32 39.113m-51.965-32.967c15.554 12.095 30.632 27.046 44.7 48.053" fill="none" stroke-width="5"/></g><path id="path1121" d="M680.96 50.186L656.278 441.33c-14.514 230.014-163.07 313.295-308.528 313.295-145.458 0-294.015-83.28-308.529-313.295L14.54 50.186C145.11 2.572 238.07-8.675 347.75-8.675c109.68 0 202.64 11.247 333.21 58.861z" fill="none" stroke="#000" stroke-width="12" stroke-linecap="round" stroke-linejoin="round" stroke-miterlimit="4" stroke-dasharray="none" stroke-opacity="1"/><g transform="translate(802 10)" id="g1244" stroke="#000" stroke-linecap="round" stroke-linejoin="round" stroke-miterlimit="4" stroke-dasharray="none" stroke-opacity="1"><g id="g1189" transform="translate(.6 -.191)" stroke-width="5"><path id="path1181" d="M-399 162.95l-23 3v23l23 3 5.866 23.283-18.42 14.098 11.5 19.918 21.42-8.901 16.72 17.23-8.901 21.42 19.919 11.5 14.098-18.42 23.096 6.563 3 23h23l3-23 23.283-5.866 14.099 18.419 19.918-11.5-8.902-21.419 17.231-16.721 21.419 8.902 11.5-19.919-18.419-14.098 6.562-23.097 23-3v-23l-23-3-5.865-23.283 18.418-14.098-11.5-19.919-21.418 8.902-16.722-17.23 8.902-21.42-19.918-11.5-14.098 18.42-23.097-6.563-3-23h-23l-3 23-23.283 5.866-14.098-18.419-19.919 11.5 8.902 21.419-17.231 16.721-21.419-8.902-11.5 19.919 18.419 14.098z" fill="#09f" stroke="#000" stroke-width="8" stroke-linecap="round" stroke-linejoin="round" stroke-miterlimit="4" stroke-dasharray="none" stroke-opacity="1"/></g><path id="path1223" d="M-278.128 108.85v32c10.254 3.672 17.62 11.748 20 20h32c-5.713-24.805-24.02-44.596-52-52z" fill="#fff" stroke-width="8"/><path d="M-318 108.85v32c-10.254 3.672-17.621 11.748-20 20h-32c5.713-24.805 24.02-44.596 52-52z" id="path1229" fill="#fff" stroke-width="8"/><path d="M-278.128 246.7v-32c10.254-3.672 17.62-11.749 20-20h32c-5.713 24.804-24.02 44.595-52 52z" id="path1231" fill="#fff" stroke-width="8"/><path id="path1233" d="M-318 246.7v-32c-10.254-3.672-17.621-11.749-20-20h-32c5.713 24.804 24.02 44.595 52 52z" fill="#fff" stroke-width="8"/><circle id="path1235" cx="-298.106" cy="178.05" r="20.856" opacity=".97" fill="#fff" fill-opacity="1" stroke-width="8"/></g></g></svg>