<?xml version="1.0" encoding="UTF-8"?>
<!-- Created with Inkscape (http://www.inkscape.org/) -->
<svg width="203mm" height="242.65mm" version="1.1" viewBox="0 0 203 242.65" xmlns="http://www.w3.org/2000/svg">
 <title>Gemeindewappen Gersheim</title>
 <g transform="translate(-4.3333 -27.509)">
  <path d="m5.8333 109.01 3.175e-4 59.766c-2.9e-5 26.49 10.536 51.896 29.289 70.628 18.754 18.732 44.189 29.255 70.71 29.255 26.522 3e-5 51.957-10.523 70.711-29.255 18.754-18.732 29.289-44.137 29.289-70.628l2e-5 -59.766z" fill="#fff"/>
  <path d="m205.83 109.01-1e-5 -80h-200v80z" fill="#da121a"/>
  <path d="m73.932 44.624c-6.7328 14.304-5.5027 29.096 1.0121 40.658 5.9988 10.646 19.841 18.813 32.397 19.211 13.865 0.43945 22.731-5.9104 28.552-13.159 5.2-6.4758 8.2558-13.587 8.1978-18.512-0.30541-25.893-19.525-32.55-29.667-33.275-7.1186-0.50895-16.036 5.3454-21.114 10.424-2.4099-0.76394-4.5602-1.3818-9.0203-1.8041-2.9815-2.0106-6.6654-2.9504-10.357-3.5413z" fill="#fcdd09" stroke="#000" stroke-width="1.5"/>
  <g fill="none" stroke="#000">
   <path d="m97.973 59.081c-4.4305 10.273-1.323 20.414 8.9769 21.072 4.666-0.43967 12.746-4.4266 13.324-11.434 0.39973-4.8469-0.44516-7.0211-1.9844-8.5045-3.683-3.5493-9.5432-4.8646-13.229-1.3229"/>
   <path d="m104.04 61.022c-2.5585 2.1753-2.2457 12.365 3.9226 12.365 3.6437-3.4e-5 6.2957-3.5838 6.2842-5.8523-0.0143-2.8167-1.1825-4.6599-3.8282-4.5355-1.0298 0.04842-2.053 0.79692-2.5687 1.8756-0.73781 1.5431-0.0759 3.5538 0.93169 3.6034 1.3279 0.06537 2.1692-0.30464 2.1716-2.2718 1e-3 -1.0692-0.11881-1.9904-0.50114-3.1404"/>
   <path d="m83.954 48.099c2.4385 2.2218 5.4969 5.8211 9.1895 8.3641 5.4137 3.7283 11.857 5.2478 12.526 4.1641 0.49592-0.80341-1.9488-2.3325-4.2677-4.4798-3.1329-2.9011-7.1338-5.724-8.3942-6.2778"/>
   <path d="m69.531 61.301c1.1904 0.11697 1.5742-0.25221 2.8014-1.1417 3.7988-2.7535 7.9909-0.97224 10.483 0.92443 3.4388 2.6176 12.495 5.6499 14.732-0.20152 1.4087 2.4735 3.3914 3.4457 5.6801 1.3686 0.98838 2.184 2.5048 3.6223 4.6208 2.9244"/>
   <path d="m71.09 76.609c0.52898-1.017 1.1363-1.7819 2.3762-2.6536 3.0429-2.1393 7 0.34474 10.01 1.2079 6.8052 1.9514 8.4794 1.4921 13.268-2.6111 3.3931 4.8358 7.9271 1.225 6.5305-3.4033 2.7838 2.2785 4.4419 0.50403 4.5736-1.4695"/>
   <path d="m75.956 87.334c1.3322-1.9619 4.054-3.3498 8.9908-3.1261 3.803 0.17233 6.2397-0.677 7.6006-1.2962 3.8457-1.7497 6.6842-2.2401 7.409-5.3514 4.5742 2.8042 9.2028 0.32735 7.8062-4.301"/>
   <path d="m87.862 98.437c1.3322-1.9619 3.5202-3.8244 7.9986-5.9137 3.3777-1.5758 4.5118-3.8114 5.38-5.0287 1.7196-2.4111 4.5581-7.0121 7.409-7.6666 4.9874-3.1717 4.5271-6.3232 1.8989-7.159 1.3477-1.5831 0.8619-3.7246-0.42378-4.5598"/>
   <path d="m108.18 104.67c0.1358-8.1861 9.6315-11.954 4.0632-26.033"/>
   <path d="m122.68 101.79c0.51377-6.9576 4.5288-20.223-4.3467-28.065 0.60279-4.8813-2.4796-5.0448-4.4412-4.9137"/>
   <path d="m137.76 89.082c-2.1015-9.3765-9.5215-19.355-17.718-18.048-0.0461-3.72-2.2509-6.0054-5.9589-4.6245"/>
   <path d="m144.13 73.869c-8.2712-8.7258-18.417-11.395-23.671-7.276-0.62161-3.9398-5.2532-5.178-6.8508-1.8899"/>
   <path d="m142.53 61.159c-3.0602-3.9869-16.726-4.9523-23.104 0.47247-4.2948-4.1518-8.9809-2.6353-7.0398 1.7954"/>
   <path d="m116.21 58.797c3.8304-4.8069 11.708-11.176 19.796-9.1659"/>
   <path d="m110.21 63.03c-4.1535-2.2448-1.8591-6.3388 3.3097-5.6501 3.8962-9.7763 10.14-13.138 15.564-13.377"/>
   <path d="m109.43 57.093c-0.37192-1.9612-0.3697-4.0968 0.429-6.1559 2.0991-5.4114 8.6615-10.628 11.75-10.093"/>
   <path d="m101.61 56.358c-2.061-1.7696-0.0998-7.2256 3.6077-11.182 2.939-3.1363 6.9697-5.4533 9.908-5.5677"/>
   <path d="m102.53 65.973c-0.71385 4.4478-5.7861 3.1977-6.3517-0.18962"/>
   <path d="m115.8 76.436c2.0402-3.5525-1.1227-6.2756-3.0117-5.3574"/>
  </g>
  <g fill="#0f47af" stroke="#000" stroke-width="1.5">
   <path d="m65.845 254.49c-1.4679-5.8788-0.99828-13.945 2.8672-19.068l63.551-84.228 5.6863-3.9098 17.057-22.807 6.2683 4.9841-15.276 22.649-2.3096 6.9679-58.363 86.047c-4.8513 7.1524-10.86 10.046-19.48 9.365z"/>
   <path d="m131.8 142.33 20.978 14.552-3.7798 5.6696-21.167-14.836z" stroke-linejoin="round"/>
   <path d="m150.13 122.2 15.214 10.394c1.4342-3.3061-0.0823-8.2257-3.4963-11.245-2.5302-2.2376-8.7512-2.3733-11.717 0.85045z"/>
  </g>
  <g fill="none" stroke="#000">
   <path d="m138.32 154.99-72.004 99.502"/>
   <g stroke-linecap="round">
    <g>
     <path d="m158.14 134.11-3.3309-2.2915"/>
     <path d="m155.4 138.34-3.3309-2.2915"/>
     <path d="m152.31 142.73-3.3309-2.2915"/>
     <path d="m149.76 146.82-3.3309-2.2915"/>
    </g>
    <circle cx="159.51" cy="124.81" r="1.4133" stroke-linejoin="round"/>
   </g>
  </g>
  <g fill="#da121a" stroke="#000" stroke-linejoin="round">
   <path d="m143.12 255.45-68.048-94.426c-1.4953-2.0749-2.449-4.1239 5e-3 -7.8929 4.084-6.2724 7.4411-13.338 3.8036-19.903-5.9236-10.691-16.249-11.853-23.52-8.0181-5.7308 3.0226-10.4 12.435-6.2808 20.78 3.0507 6.1807 8.7507 9.0974 12.707 8.7225 2.7288-0.2586 5.6112-6.8931 2.7403-9.9219-2.4274 4.5864-4.78 9.6973-8.3157 5.4915-0.68043-0.80937-1.5654-1.3791-2.8818-1.4283 0.72717-1.0687 1.7061-1.7598 1.9758-3.5146 0.42975-2.7961 1.299-2.278 2.5294-2.5159 4.531-0.87618 3.3505-4.6178 0.08932-4.3597-2.2171 0.17546-2.2756-1.3604-1.1986-3.0557 1.2151-1.9128 0.4137-3.5077-0.75005-4.9804 1.1906 1.3798 2.5755 1.9798 4.9406 1.3803 1.6447-0.41685 1.8538 0.47127 1.9059 1.4602 0.17858 3.386 4.574 3.343 4.5922 0.77481 0.0055-0.77935 0.45502-1.6321 1.7917-0.69789 2.5435 1.7776 4.4912 1.5107 6.3771-0.79139-1.5211 1.8902-1.669 3.2393-1.3282 5.2662 0.58349 3.47-0.7097 5.0664-3.5855 4.8919-0.09351 3.5176-0.15252 7.0747-2.1734 9.9219-1.0139 1.4284-0.66762 2.3101-0.0168 3.1838 1.6212 5.2474-0.7444 7.977-3.8574 10.234 2.0398-4.7145 0.6116-6.4057-2.2422-6.8541-1.9654 2.5881-4.2971 2.4751-6.1047 0.2548-1.8952 1.1132-3.7903 1.8568-5.6855 1.5911 1.7763-2.5588 1.7874-4.7837-1.0916-6.4618-1.6412 1.7532-5.2537 2.3963-5.2303-1.5642-2.2478 0.19244-4.3869-0.70017-4.3087-5.0614 1.0001 1.9222 2.5419 2.4227 4.5498 1.6993-0.90553-3.0118-1.8951-5.9921-1.8257-9.3695-3.0536 0.31984-3.7406-3.7606-0.90936-5.0627-2.0102-0.91778-2.3774-3.9982-1.1533-7.3471 0.72827 2.6577 1.5895 3.9281 3.7208 4.8957 1.6-3.6058 2.8249-7.6075 6.5958-8.9218-3.19-2.0641-1.3785-4.5022 1.5689-4.6319-0.48126-1.7344 0.33253-4.7654 3.4697-5.1854-0.15045 2.6696-0.66592 5.8598 2.6742 4.9909 2.1962-0.57133 3.8894-0.3532 5.5479 0.18563 0.76103-3.238 3.3415-4.9764 5.4419-0.70654 0.83467-2.9251 5.9838-5.0115 8.4948 0.53822-3.4686-1.2631-7.6444 0.63574-4.2588 1.8788 2.1447 0.78748 3.8592 2.2492 5.3952 5.1085 1.2406-1.2374 4.8612-0.9826 3.7831 3.5373 2.3749-1.1957 6.9763 1.4595 5.9473 6.6732-0.78547-2.8333-2.5903-3.1919-4.6265-3.0235 1.4093 3.1291 0.84568 6.5698-0.11354 10.073 2.7808-0.0508 3.1516 2.6159 1.3012 4.4108 2.2356-0.0202 3.8759 3.2286 1.8796 6.3519-4.0714-5.2576-10.547 0.77063-7.2288 5.3862l66.949 93.124z" stroke-width="1.5"/>
   <path d="m77.751 170.44 9.1187-6.4728 5.4472 7.5261-9.174 6.7067z"/>
   <path d="m77.429 174.52 12.89-9.2766 1.9314 2.8095-12.751 9.4136z"/>
  </g>
  <g fill="none" stroke="#000">
   <g>
    <path d="m68.706 151.56c-2.1197-16.225-7.5691-10.326-7.674-16.123" stroke-linecap="round"/>
    <path d="m59.285 147.89c3.9015-8.336 9.9689-5.018 11.102-11.379" stroke-linecap="round"/>
    <path d="m205.83 109.01h-200" stroke-width="2"/>
   </g>
   <path d="m5.8333 29.009 3.175e-4 139.77c-2.9e-5 26.49 10.536 51.896 29.289 70.628 18.754 18.732 44.189 29.255 70.71 29.255 26.522 3e-5 51.957-10.523 70.711-29.255 18.754-18.732 29.289-44.137 29.289-70.628l1e-5 -139.77z" stroke-linecap="square" stroke-miterlimit="8" stroke-width="3.0001"/>
  </g>
 </g>
</svg>
