<?xml version="1.0" encoding="UTF-8" standalone="no"?>
<!-- Created with Inkscape (http://www.inkscape.org/) -->

<svg
   width="147.67688mm"
   height="161.53026mm"
   viewBox="0 0 147.67688 161.53026"
   version="1.1"
   id="svg4362"
   inkscape:version="1.2.2 (732a01da63, 2022-12-09)"
   sodipodi:docname="DEU Grafenrheinfeld COA.svg"
   xmlns:inkscape="http://www.inkscape.org/namespaces/inkscape"
   xmlns:sodipodi="http://sodipodi.sourceforge.net/DTD/sodipodi-0.dtd"
   xmlns="http://www.w3.org/2000/svg"
   xmlns:svg="http://www.w3.org/2000/svg">
  <sodipodi:namedview
     id="namedview4364"
     pagecolor="#ffffff"
     bordercolor="#666666"
     borderopacity="1.0"
     inkscape:showpageshadow="2"
     inkscape:pageopacity="0.0"
     inkscape:pagecheckerboard="0"
     inkscape:deskcolor="#d1d1d1"
     inkscape:document-units="mm"
     showgrid="false"
     inkscape:zoom="0.90689156"
     inkscape:cx="278.97492"
     inkscape:cy="305.99028"
     inkscape:current-layer="layer1" />
  <defs
     id="defs4359" />
  <g
     inkscape:label="Ebene 1"
     inkscape:groupmode="layer"
     id="layer1"
     transform="translate(-559.17427,-53.891654)">
    <g
       id="g4234"
       transform="translate(528.67771,-9.77147)">
      <path
         id="path4120"
         style="fill:#006aff;fill-opacity:1;stroke:#000000;stroke-width:3.1;stroke-dasharray:none"
         d="m 92.948332,65.216174 c -3.214596,-0.05093 -6.999098,0.523137 -11.207068,2.301152 -13.465505,5.68965 -24.275938,11.379119 -31.862138,13.65498 -7.586199,2.275859 -17.258378,2.27583 -17.258378,2.27583 0,0 6.258511,19.534874 7.965405,48.362424 1.706894,28.82756 -1.608979,54.18145 20.959961,73.90557 22.568944,19.72411 42.788606,17.88728 42.788606,17.88728 0,0 20.22017,1.83683 42.78912,-17.88728 22.56893,-19.72412 19.25255,-45.07801 20.95944,-73.90557 1.7069,-28.82755 7.96592,-48.362424 7.96592,-48.362424 0,0 -9.67269,2.9e-5 -17.25889,-2.27583 -7.5862,-2.275861 -18.39663,-7.96533 -31.86214,-13.65498 -13.46551,-5.689647 -22.59345,0.948262 -22.59345,0.948262 0,0 -4.31428,-3.137361 -11.386388,-3.249414 z" />
      <g
         id="g4061"
         transform="translate(-210.89655,-6.3686795)">
        <g
           id="g3899"
           transform="rotate(5.4884832,308.20813,-2232.7604)">
          <path
             id="path3889"
             style="fill:#ffd500;fill-opacity:1;stroke:#000000;stroke-width:1.1;stroke-dasharray:none"
             d="m 492.10365,147.85263 c 0,0 1.07278,7.10697 1.87741,15.75682 0.80465,8.64984 -1.67607,15.08749 -1.67607,15.08749 l 2.49098,3.50783 c -0.13703,0.23048 -0.21547,0.49984 -0.21547,0.78852 l -1.1e-4,3.22442 c 0,0.85368 0.68722,1.54072 1.54091,1.54072 l 0.37953,3.9e-4 c 0.85369,0 1.54072,-0.68722 1.54072,-1.54091 l 1.1e-4,-3.22442 c 0,-0.28859 -0.079,-0.55816 -0.21595,-0.78859 l 2.49124,-3.50791 c 0,0 -2.48067,-6.43742 -1.67602,-15.08726 0.80462,-8.64986 1.8775,-15.75733 1.8775,-15.75733 l -4.20767,-1.2e-4 z" />
          <path
             id="path3600"
             style="fill:#ffd500;fill-opacity:1;stroke:#000000;stroke-width:1.1;stroke-dasharray:none"
             d="m 496.31079,84.671834 a 2.3596396,2.3006489 0 0 0 -2.35954,2.300635 2.3596396,2.3006489 0 0 0 1.38957,2.095479 l -2.23759,7.798491 1.74615,8.849071 a 3.4608049,2.5562763 0 0 0 -1.99936,2.31666 3.4608049,2.5562763 0 0 0 1.98076,2.30631 c -0.1104,2.31875 -0.45931,9.61794 -0.91674,18.53789 -0.53642,10.46029 -1.39785,14.34021 -1.39785,14.34021 l 3.7946,1.15187 3.7946,-1.15187 c 0,0 -0.86143,-3.87992 -1.39785,-14.34021 -0.45725,-8.91651 -0.80615,-16.21111 -0.91674,-18.53375 a 3.4608049,2.5562763 0 0 0 1.98076,-2.31045 3.4608049,2.5562763 0 0 0 -1.99936,-2.31718 l 1.74615,-8.848551 -2.23759,-7.798491 a 2.3596396,2.3006489 0 0 0 1.38958,-2.095479 2.3596396,2.3006489 0 0 0 -2.35955,-2.300635 z" />
          <rect
             style="fill:#ffd500;fill-opacity:1;stroke:#000000;stroke-width:1.10001;stroke-dasharray:none"
             id="rect3708"
             width="8.5650558"
             height="3.1979914"
             x="492.02838"
             y="142.76947"
             ry="1.5989957"
             rx="1.5989957" />
          <rect
             style="fill:#ffd500;fill-opacity:1;stroke:#000000;stroke-width:1.10001;stroke-dasharray:none"
             id="rect3710"
             width="10.567276"
             height="3.1979914"
             x="491.02725"
             y="145.96747"
             ry="1.5989957"
             rx="1.5989957" />
        </g>
        <g
           id="g1586"
           transform="translate(0,-2.6551724)">
          <g
             id="g1233">
            <path
               id="path1478"
               style="fill:#ffd500;fill-opacity:1;stroke:#000000;stroke-width:1.4;stroke-dasharray:none"
               d="m 315.71975,81.436373 c -8.80395,0.03215 -2.26085,14.280782 -2.26085,14.280782 h 2.26085 2.26084 c 0,0 6.54311,-14.248632 -2.26084,-14.280782 z" />
            <path
               style="fill:#ffd500;fill-opacity:1;stroke:#000000;stroke-width:1.4;stroke-dasharray:none"
               d="m 323.32006,96.829622 c 0,0 12.49954,-6.557372 5.95106,-11.90209 -7.56394,-6.173514 -11.2903,10.789745 -11.2903,10.789745 z"
               id="path1422"
               sodipodi:nodetypes="cscc"
               inkscape:transform-center-x="-8.8551065"
               inkscape:transform-center-y="15.932739" />
            <path
               style="fill:#ffd500;fill-opacity:1;stroke:#000000;stroke-width:1.4;stroke-dasharray:none"
               d="m 308.11954,96.829622 c 0,0 -12.49954,-6.557372 -5.95106,-11.90209 7.56394,-6.173514 11.2903,10.789745 11.2903,10.789745 z"
               id="path1420"
               sodipodi:nodetypes="cscc" />
            <g
               id="g1418"
               transform="matrix(-1,0,0,1,631.60067,0)">
              <path
                 style="fill:#ffffff;stroke:#000000;stroke-width:1.4;stroke-dasharray:none"
                 d="m 307.28528,97.163325 c 0,0 -5.50611,3.503885 -6.06229,6.952155 -0.55618,3.44827 0.94549,4.89432 0.27808,7.95327 -0.66739,3.05894 -4.00445,3.67073 -4.22691,5.95104 -0.22246,2.28031 1.16798,8.23135 1.16798,8.23135 l 15.35036,-8.84314 -1.39044,-16.62955 z"
                 id="path1414" />
              <path
                 style="fill:none;stroke:#000000;stroke-width:1.4;stroke-dasharray:none"
                 d="m 307.45213,102.33573 c 0,0 -2.11347,2.11345 -2.44716,4.67185 -0.33372,2.55839 0.66741,5.28364 0.61179,6.72968 -0.0556,1.44605 -1.55728,7.11901 -1.55728,7.11901"
                 id="path1416" />
            </g>
            <g
               id="g1412">
              <path
                 style="fill:#ffffff;stroke:#000000;stroke-width:1.4;stroke-dasharray:none"
                 d="m 307.28528,97.163325 c 0,0 -5.50611,3.503885 -6.06229,6.952155 -0.55618,3.44827 0.94549,4.89432 0.27808,7.95327 -0.66739,3.05894 -4.00445,3.67073 -4.22691,5.95104 -0.22246,2.28031 1.16798,8.23135 1.16798,8.23135 l 15.35036,-8.84314 -1.39044,-16.62955 z"
                 id="path1406" />
              <path
                 style="fill:none;stroke:#000000;stroke-width:1.4;stroke-dasharray:none"
                 d="m 307.45213,102.33573 c 0,0 -2.11347,2.11345 -2.44716,4.67185 -0.33372,2.55839 0.66741,5.28364 0.61179,6.72968 -0.0556,1.44605 -1.55728,7.11901 -1.55728,7.11901"
                 id="path1408" />
            </g>
            <path
               style="fill:#ffffff;stroke:#000000;stroke-width:1.4;stroke-dasharray:none"
               d="m 311.67903,114.23782 c 0,0 -12.34702,6.7853 -19.02111,16.24023 -6.67406,9.45494 -9.34368,21.69073 -12.0133,25.139 -2.66964,3.44827 -11.34594,16.129 -13.45938,17.35258 -2.11346,1.22358 -1.94265,0.99831 -3.77802,2.66683 -1.83537,1.66852 -3.84154,3.61792 -3.73031,4.11847 0.11124,0.50056 1.05673,1.05673 3.33704,-0.0556 2.28029,-1.11234 3.17019,-2.61401 3.17019,-2.61401 l 2.11344,0.88988 c 0,0 -2.11344,5.11679 -0.50054,5.61734 1.6129,0.50056 2.1095,-2.02525 2.44319,-3.08198 0.33372,-1.05673 0.89384,-2.75783 0.89384,-2.75783 l 9.31589,-7.64737 c 0,0 1.16796,0.52835 8.42601,4.75526 9.20565,5.36115 17.13011,8.89876 17.13011,8.89876 l 37.15232,-0.55618 c 0,0 -1.39043,-4.33814 -3.61512,-7.45271 -2.22469,-3.11456 -4.78309,-6.50722 -4.78309,-6.50722 l 8.09548,-1.0796 c 0,0 4.05071,3.10685 9.00596,6.92161 4.95524,3.81475 9.39923,7.51152 9.39923,7.51152 0,0 4.20316,-15.76522 -7.98012,-38.21443 -7.30963,-13.4689 -12.5695,-17.24135 -14.68296,-18.46493 -2.11345,-1.22358 -6.4516,-3.2258 -9.12122,-6.1179 -2.66963,-2.89209 -8.56506,-5.45049 -8.56506,-5.45049 z"
               id="path1404"
               sodipodi:nodetypes="cssssssccssccsccsccscssscc" />
            <path
               style="fill:#ffffff;stroke:#000000;stroke-width:1.4;stroke-dasharray:none"
               d="m 309.45433,109.2984 c 0,0 -0.94547,4.16077 0.66743,7.27534 1.6129,3.11457 5.57332,7.95327 5.57332,7.95327 0,0 6.60684,-7.8545 6.99617,-9.26651 0.38931,-1.412 -0.21672,-4.93876 -0.21672,-4.93876 z"
               id="path1402"
               sodipodi:nodetypes="cscscc" />
            <path
               id="path920"
               style="fill:#ffffff;stroke:#000000;stroke-width:1.4;stroke-dasharray:none"
               d="m 315.68254,94.660889 v 5.16e-4 c -5.48211,0.007 -8.53591,1.53324 -8.53591,1.53324 0,0 0.51092,12.348725 2.16266,14.944305 1.63864,2.57504 4.84385,3.42134 6.37325,3.42098 v 5.2e-4 c 0.005,4e-5 0.0101,-3e-5 0.015,0 0.007,-3e-5 0.0151,7e-5 0.0222,0 v -5.2e-4 c 1.52939,3.6e-4 4.73461,-0.84594 6.37325,-3.42098 1.65174,-2.59558 2.16266,-14.944305 2.16266,-14.944305 0,0 -3.0538,-1.526265 -8.53591,-1.53324 v -5.16e-4 c -0.006,0 -0.0116,-4e-6 -0.0176,0 -0.007,-5e-6 -0.013,0 -0.0196,0 z" />
            <path
               style="fill:none;stroke:#000000;stroke-width:1.2;stroke-dasharray:none"
               d="m 307.47821,101.26498 c 0,0 1.36434,-2.349712 4.31206,-2.572181 2.0799,-0.156973 3.91087,1.557281 3.91087,1.557281 0,0 1.83097,-1.714254 3.91087,-1.557281 2.94772,0.222469 4.31206,2.572181 4.31206,2.572181"
               id="path1194"
               sodipodi:nodetypes="cscsc" />
            <path
               style="fill:none;stroke:#000000;stroke-width:1.2;stroke-dasharray:none"
               d="m 315.7198,100.23304 -0.0188,6.27398"
               id="path1198" />
            <path
               style="fill:#000000;stroke:#000000;stroke-width:0.1;stroke-dasharray:none"
               d="m 313.91074,102.84097 c 0.0363,-0.42514 -1.03906,-1.17283 -1.80906,-1.15673 -0.736,0.0154 -2.26812,0.8616 -2.26232,1.15195 0.008,0.39232 1.53781,0.60289 2.26809,0.577 0.64464,-0.0229 1.77378,-0.2268 1.80329,-0.57222 z"
               id="path1320"
               sodipodi:nodetypes="sssss"
               inkscape:transform-center-x="3.6181832"
               inkscape:transform-center-y="-7.7864202" />
            <path
               style="fill:#000000;stroke:#000000;stroke-width:0.1;stroke-dasharray:none"
               d="m 317.93689,109.55546 c 0.0363,-0.42514 -1.48866,-1.15281 -2.24166,-1.13706 -0.753,0.0157 -2.24846,0.82227 -2.24266,1.11262 0.008,0.39232 1.3543,0.61771 2.26809,0.64582 0.9138,0.0281 2.18672,-0.27596 2.21623,-0.62138 z"
               id="path1322"
               sodipodi:nodetypes="szszs"
               inkscape:transform-center-x="3.6181832"
               inkscape:transform-center-y="-7.7864202" />
            <path
               id="path1324"
               style="fill:#000000;stroke:#000000;stroke-width:0.1;stroke-dasharray:none"
               d="m 315.71975,105.63386 -0.14728,0.0109 c 0,0 -1.53734,0.75033 -1.50172,1.1958 0.0278,0.3476 0.82171,0.38935 1.649,0.3824 0.82729,0.007 1.62119,-0.0348 1.64899,-0.3824 0.0356,-0.44547 -1.50172,-1.1958 -1.50172,-1.1958 z" />
            <path
               style="fill:#000000;stroke:#000000;stroke-width:0.1;stroke-dasharray:none"
               d="m 317.52886,102.84097 c -0.0363,-0.42514 1.03906,-1.17283 1.80906,-1.15673 0.736,0.0154 2.26812,0.8616 2.26232,1.15195 -0.008,0.39232 -1.53781,0.60289 -2.26809,0.577 -0.64464,-0.0229 -1.77378,-0.2268 -1.80329,-0.57222 z"
               id="path1346"
               sodipodi:nodetypes="sssss"
               inkscape:transform-center-x="-3.8443115"
               inkscape:transform-center-y="-8.9269128" />
            <circle
               style="fill:#000000;stroke:none;stroke-width:1.4;stroke-dasharray:none"
               id="path1538"
               cx="305.55374"
               cy="89.371353"
               r="1.1601562" />
            <circle
               style="fill:#000000;stroke:none;stroke-width:1.4;stroke-dasharray:none"
               id="circle1696"
               cx="-325.88586"
               cy="89.371353"
               r="1.1601562"
               inkscape:transform-center-x="-10.166065"
               inkscape:transform-center-y="9.9891419"
               transform="scale(-1,1)" />
            <circle
               style="fill:#000000;stroke:none;stroke-width:1.4;stroke-dasharray:none"
               id="circle1698"
               cx="-315.71976"
               cy="86.646111"
               r="1.1601562"
               inkscape:transform-center-x="-10.166065"
               inkscape:transform-center-y="9.9891419"
               transform="scale(-1,1)" />
            <path
               style="fill:none;stroke:#000000;stroke-width:1.7;stroke-dasharray:none"
               d="m 296.88095,125.2895 c 0,0 4.79864,3.39074 10.23746,2.68578 5.07813,-0.65821 8.60139,-3.4777 8.60139,-3.4777 0,0 5.80139,3.23325 11.03151,3.31084 4.50346,0.0668 10.76309,-2.49198 10.76309,-2.49198"
               id="path1782"
               sodipodi:nodetypes="cscsc" />
            <path
               style="fill:none;stroke:#000000;stroke-width:1.7;stroke-dasharray:none"
               d="m 289.68512,135.12871 c 0,0 6.02174,2.05514 9.75317,14.23649 3.31367,10.81756 2.28098,17.14672 2.28098,17.14672 0,0 -1.02251,2.51694 -2.98887,5.11255 -1.96636,2.5956 -4.87659,5.50583 -4.87659,5.50583"
               id="path1784"
               sodipodi:nodetypes="cscsc" />
            <path
               style="fill:none;stroke:#000000;stroke-width:1.7;stroke-dasharray:none"
               d="m 281.66234,154.00583 c 0,0 3.93274,1.88771 9.3599,7.00026 5.42716,5.11255 8.73067,8.65201 8.73067,8.65201"
               id="path1786" />
            <path
               style="fill:none;stroke:#000000;stroke-width:1.7;stroke-dasharray:none"
               d="m 278.20154,158.96107 c 0,0 4.09003,4.09004 7.86545,8.73066 3.77542,4.64063 6.9685,9.19387 6.9685,9.19387"
               id="path1788"
               sodipodi:nodetypes="csc" />
            <path
               style="fill:none;stroke:#000000;stroke-width:1.7;stroke-dasharray:none"
               d="m 357.01351,153.29793 c 0,0 -13.29264,4.71928 -21.39408,7.55085 -8.10144,2.83157 -12.58475,5.50583 -13.68592,7.31488 -1.10114,1.80906 -2.51695,4.56197 -2.51695,4.56197"
               id="path1790"
               sodipodi:nodetypes="cssc" />
            <path
               style="fill:none;stroke:#000000;stroke-width:1.7;stroke-dasharray:none"
               d="m 342.4624,158.17452 c 0,0 5.74178,3.46081 9.83181,9.51721 4.09006,6.05641 8.65204,14.31515 8.65204,14.31515"
               id="path1792" />
            <path
               style="fill:none;stroke:#000000;stroke-width:1.7;stroke-dasharray:none"
               d="m 350.95709,166.43326 -7.81068,1.83727"
               id="path1794"
               sodipodi:nodetypes="cc" />
            <path
               style="fill:none;stroke:#000000;stroke-width:1.4;stroke-dasharray:none"
               d="m 307.14645,128.3644 c 0,0 1.65174,9.43856 2.28098,20.37156 0.62923,10.933 0.94387,19.84961 0.94387,19.84961"
               id="path1796"
               sodipodi:nodetypes="csc" />
            <path
               style="fill:none;stroke:#000000;stroke-width:1.4;stroke-dasharray:none"
               d="m 302.05725,165.73938 c 0,0 5.50611,0.38933 8.17573,2.72525 2.66964,2.33592 6.22913,6.81311 6.22913,6.81311"
               id="path1798"
               sodipodi:nodetypes="csc" />
            <path
               style="fill:none;stroke:#000000;stroke-width:1.4;stroke-dasharray:none"
               d="m 325.55164,127.81382 c 0,0 -1.88773,14.31515 -1.96636,22.65254 -0.0787,8.3374 -1.23545,16.94415 -1.23545,16.94415"
               id="path1800"
               sodipodi:nodetypes="csc" />
            <path
               style="fill:none;stroke:#000000;stroke-width:1.4;stroke-dasharray:none"
               d="m 315.56251,124.58898 1.0225,56.94598"
               id="path1802" />
            <path
               style="fill:none;stroke:#000000;stroke-width:1.4;stroke-dasharray:none"
               d="m 307.06279,128.42022 8.6763,6.17351 9.89986,-6.39598"
               id="path1804" />
            <path
               style="fill:none;stroke:#000000;stroke-width:1.4;stroke-dasharray:none"
               d="m 308.56446,137.31897 7.39709,4.67185 8.50945,-4.89431"
               id="path1806" />
            <path
               style="fill:none;stroke:#000000;stroke-width:1.4;stroke-dasharray:none"
               d="m 309.28749,145.16101 6.84093,4.39376 7.50832,-3.72636"
               id="path1808" />
            <path
               style="fill:none;stroke:#000000;stroke-width:1.4;stroke-dasharray:none"
               d="m 310.06613,154.05976 6.17352,3.50389 7.11901,-3.8932"
               id="path1810" />
            <path
               style="fill:none;stroke:#000000;stroke-width:1.4;stroke-dasharray:none"
               d="m 310.39985,161.62371 5.72857,3.44827 6.67406,-3.33703"
               id="path1812" />
            <path
               style="fill:none;stroke:#000000;stroke-width:1.4;stroke-dasharray:none"
               d="m 280.06958,170.46432 4.50297,-4.34568"
               id="path1858"
               sodipodi:nodetypes="cc" />
            <path
               style="fill:#000000;stroke:#000000;stroke-width:0.12;stroke-dasharray:none"
               d="m 313.31974,170.91179 c 0,0 1.97442,1.14015 4.00444,0.0834 2.03004,-1.05673 4.64405,-3.80979 4.64405,-3.80979 l 0.91768,-0.0278 -2.75305,5.86761 c 0,0 -0.0278,0.38933 -1.19578,0.72303 -1.16795,0.3337 -2.2247,1.6129 -2.2247,1.6129 l -2.91988,-3.25361 z"
               id="path992"
               sodipodi:nodetypes="cscccsccc" />
            <path
               style="fill:#000000;stroke:#000000;stroke-width:0.12;stroke-dasharray:none"
               d="m 319.77134,172.35784 c 0,0.30589 1.52947,1.16796 2.14127,0.86206 0.6118,-0.30589 1.25137,-1.08453 1.6129,-2.36373 0.3615,-1.27919 0.6118,-2.47497 1.08453,-2.36373 0.47276,0.11123 -2.44055,8.48054 -1.92929,8.75584 0.51125,0.27529 1.53376,-1.41579 2.39895,-3.85408 0.86521,-2.4383 1.14051,-3.50013 1.53376,-3.34282 0.39328,0.1573 -2.79275,7.04929 -2.31048,7.31488 0.67842,0.37361 0.81606,0.11803 1.05202,-0.0394 0.23595,-0.15731 2.63493,-6.64632 2.91023,-6.3317 0.27527,0.31462 -2.66922,6.12808 -2.24166,6.3317 0.82587,0.3933 0.94385,-0.70789 1.17981,-1.02251 0.23598,-0.31462 2.20234,-5.38784 2.67427,-4.95524 0.47191,0.4326 -2.73416,5.43363 -2.20233,5.70246 0.81655,0.41274 2.94954,-3.57879 3.93274,-5.38785 0.98316,-1.80905 1.41578,-3.14618 1.41578,-3.14618 0,0 0.82587,-0.15731 1.14049,-0.11798 0.31461,0.0393 1.2978,0.70789 1.2978,0.70789 0,0 -1.5731,1.14049 -2.28099,2.55627 -0.7079,1.41579 -2.08434,3.7361 -2.67425,4.64063 -0.58992,0.90453 -4.444,3.50013 -4.444,3.50013 h -9.6352 c 0,0 1.51411,-1.61242 1.67143,-1.82872 0.15729,-0.2163 3.2445,-1.57309 3.55912,-1.78939 0.31462,-0.2163 0.70789,-1.84839 0.39328,-2.26132 -0.31465,-0.41294 -2.73325,-0.68823 -2.73325,-0.68823 z"
               id="path1144"
               sodipodi:nodetypes="csssssssssssssscscssccssscc" />
          </g>
          <g
             id="g1540"
             transform="translate(-156.78664,2.5826703)">
            <path
               id="path1285"
               style="fill:#e80000;fill-opacity:1;stroke:#000000;stroke-width:1.7;stroke-dasharray:none"
               d="m 461.34858,171.92542 c -0.39105,-0.005 -0.78218,0.008 -1.1715,0.0429 -6.22908,0.55617 -9.52522,3.5233 -13.45241,5.50251 -3.6028,1.81572 -9.79578,3.28507 -9.79578,3.28507 0,0 5.22821,1.00132 6.4518,8.67647 1.22357,7.67518 1.22354,22.24709 6.67401,25.9178 5.45046,3.67073 10.78952,0.66715 10.78952,0.66715 0,0 2.44595,8.49097 12.23595,8.34264 9.79,0.14833 12.23594,-8.34264 12.23594,-8.34264 0,0 5.33905,3.00358 10.78953,-0.66715 5.45047,-3.67071 5.45044,-18.24262 6.67401,-25.9178 1.22359,-7.67515 6.4518,-8.67647 6.4518,-8.67647 0,0 -6.19299,-1.46935 -9.79579,-3.28507 -3.22042,-1.62302 -6.01786,-3.90936 -10.35492,-4.98677 -1.29191,1.77889 -3.20158,3.29944 -5.9893,3.48867 -2.86395,0.1944 -5.09362,-0.52667 -6.80165,-1.59318 -1.93879,1.00041 -3.20962,1.92701 -3.20962,1.92701 0,0 -5.8657,-4.3017 -11.73159,-4.38113 z" />
            <path
               id="path1411"
               style="fill:#ffffff;stroke:#000000;stroke-width:1.7;stroke-dasharray:none"
               d="m 455.66934,183.42291 -9.2971,25.94105 c 0.83989,2.68369 2.00151,4.85414 3.68246,5.9862 5.45046,3.67073 10.78952,0.66715 10.78952,0.66715 0,0 2.44595,8.49097 12.23595,8.34264 9.79,0.14833 12.23594,-8.34264 12.23594,-8.34264 0,0 5.33905,3.00358 10.78953,-0.66715 1.66646,-1.1223 2.82154,-3.26626 3.65972,-5.91798 l -9.32139,-26.00927 -8.68164,24.2254 -8.70542,-24.2254 -8.70593,24.2254 z" />
          </g>
        </g>
        <path
           id="rect1640"
           style="fill:#ffd500;fill-opacity:1;stroke:#000000;stroke-width:1.4"
           d="m 357.71614,90.785367 -5.89804,13.308903 -13.66465,-6.055702 -3.04532,6.871782 13.66464,6.0557 -22.68122,50.99397 10.28325,-4.27571 19.26927,-43.67314 13.66464,6.05569 3.04534,-6.87178 -13.66465,-6.05569 5.89804,-13.308902 z"
           sodipodi:nodetypes="ccccccccccccc" />
      </g>
    </g>
  </g>
</svg>
