<?xml version="1.0" encoding="UTF-8" standalone="no"?>
<!-- Created with Inkscape (http://www.inkscape.org/) -->

<svg
   width="105.65306mm"
   height="117.49421mm"
   viewBox="0 0 105.65306 117.49421"
   version="1.1"
   id="svg5"
   inkscape:version="1.2.2 (732a01da63, 2022-12-09)"
   sodipodi:docname="DEU Guderhandviertel COA.svg"
   xmlns:inkscape="http://www.inkscape.org/namespaces/inkscape"
   xmlns:sodipodi="http://sodipodi.sourceforge.net/DTD/sodipodi-0.dtd"
   xmlns="http://www.w3.org/2000/svg"
   xmlns:svg="http://www.w3.org/2000/svg">
  <sodipodi:namedview
     id="namedview7"
     pagecolor="#9e9e9e"
     bordercolor="#666666"
     borderopacity="1.0"
     inkscape:showpageshadow="2"
     inkscape:pageopacity="0"
     inkscape:pagecheckerboard="0"
     inkscape:deskcolor="#8c8c8c"
     inkscape:document-units="mm"
     showgrid="false"
     inkscape:zoom="1.2053881"
     inkscape:cx="200.35041"
     inkscape:cy="222.74983"
     inkscape:current-layer="layer1" />
  <defs
     id="defs2">
    <inkscape:path-effect
       effect="powerstroke"
       id="path-effect1555"
       is_visible="true"
       lpeversion="1"
       offset_points="0.28096271,0.22297563 | 1.0041498,0.36324823 | 1.7424548,0.20710855"
       not_jump="false"
       sort_points="true"
       interpolator_type="CentripetalCatmullRom"
       interpolator_beta="0.2"
       start_linecap_type="zerowidth"
       linejoin_type="round"
       miter_limit="4"
       scale_width="1"
       end_linecap_type="zerowidth" />
    <inkscape:path-effect
       effect="powerstroke"
       id="path-effect4148"
       is_visible="true"
       lpeversion="1"
       offset_points="0.28096271,0.22297563 | 1.0041498,0.36324823 | 1.7424548,0.20710855"
       not_jump="false"
       sort_points="true"
       interpolator_type="CentripetalCatmullRom"
       interpolator_beta="0.2"
       start_linecap_type="zerowidth"
       linejoin_type="round"
       miter_limit="4"
       scale_width="1"
       end_linecap_type="zerowidth" />
    <inkscape:path-effect
       effect="powerstroke"
       id="path-effect4192"
       is_visible="true"
       lpeversion="1"
       offset_points="0.28096271,0.22297563 | 1.0041498,0.36324823 | 1.7424548,0.20710855"
       not_jump="false"
       sort_points="true"
       interpolator_type="CentripetalCatmullRom"
       interpolator_beta="0.2"
       start_linecap_type="zerowidth"
       linejoin_type="round"
       miter_limit="4"
       scale_width="1"
       end_linecap_type="zerowidth" />
  </defs>
  <g
     inkscape:label="Ebene 1"
     inkscape:groupmode="layer"
     id="layer1"
     transform="translate(-449.30483,-218.1173)">
    <g
       id="g4385"
       transform="translate(396.24325,122.54411)">
      <path
         id="path4310"
         style="fill:#0060ff;fill-opacity:1;stroke:#000000;stroke-width:1.4;stroke-dasharray:none;stroke-opacity:1"
         d="m 53.761576,96.273193 v 64.968647 a 52.12664,51.12553 0 0 0 52.126534,51.12556 52.12664,51.12553 0 0 0 52.12653,-51.12556 V 96.273193 Z" />
      <g
         id="g4254"
         transform="translate(-169.16025,-3.8665254)">
        <g
           id="g4104">
          <path
             style="fill:#ffffff;fill-opacity:1;stroke:#000000;stroke-width:0.7;stroke-dasharray:none;stroke-opacity:1"
             d="m 291.8088,118.1393 c 0,0 -12.50609,2.28098 -29.65282,1.57309 -17.14671,-0.70789 -29.73146,-3.69677 -29.73146,-3.69677 0,0 4.04118,12.5876 15.73094,17.22538 14.47245,5.74179 44.63652,3.2445 44.63652,3.2445 l -0.86647,-4.82461 z"
             id="path4020"
             sodipodi:nodetypes="cscsccc" />
          <g
             id="g3995">
            <path
               style="color:#000000;fill:#e7b725;stroke-width:0.7;-inkscape-stroke:none"
               d="m 291.69082,133.28032 c 0,0 -1.12552,-9.8391 -1.49445,-12.38811 -0.43259,-2.98887 0.35394,-5.1912 2.32032,-4.6013 1.95587,0.58676 4.24735,1.1405 6.29237,1.02252 2.04502,-0.11798 3.14618,-0.55059 5.03388,-0.55059 1.88772,0 4.37769,0.63402 6.61934,0.35872 2.24166,-0.27529 3.56646,-1.85315 5.17886,-0.71266 1.61242,1.14049 0.78656,4.48332 0.82589,6.88228 0.031,1.89114 0.27524,3.38215 0.86519,4.24735 0.58992,0.8652 1.02251,2.08435 0.15732,2.94955 -0.86521,0.8652 -1.76974,0 -3.06755,-1.14049 -1.29778,-1.14049 -2.59559,-2.67426 -5.23052,-2.20233 -2.63493,0.47193 -3.85043,1.01936 -6.33171,1.10116 -3.57877,0.11798 -5.70246,-1.84838 -7.35421,-0.74722 -1.65174,1.10117 -0.15729,4.32601 -1.14048,5.11256 -0.98319,0.78654 -2.67425,0.66856 -2.67425,0.66856 z"
               id="path3974" />
            <path
               style="fill:#fff200;fill-opacity:1;stroke:none;stroke-width:0.1;stroke-dasharray:none"
               d="m 310.5667,117.24115 c 0,0 -1.93271,0.47275 -1.76586,1.25139 0.16685,0.77864 1.39044,0.68131 2.75304,0.27808 1.36263,-0.40322 2.05785,-1.37652 2.98945,-0.82035 0.93157,0.55617 0.61177,1.08453 1.09844,1.25139 0.48665,0.16685 0.82034,-0.45884 0.82034,-0.45884 l -0.22246,-1.77976 -1.54339,-0.9733 -2.75304,0.70912 z"
               id="path1497" />
            <path
               id="path1384"
               style="fill:#fff200;fill-opacity:1;stroke:none;stroke-width:0.1;stroke-dasharray:none"
               d="m 291.8349,116.19653 c -1.46195,0.0672 -2.01718,2.08057 -1.63866,4.69583 0.36893,2.54901 1.49448,12.38788 1.49448,12.38788 0,0 0.89238,0.0607 1.75752,-0.20671 -0.26462,-2.02967 -1.68519,-12.96371 -1.73581,-14.33091 -0.0556,-1.50167 4.7414,0.82035 5.63129,-0.12514 0.4653,-0.49436 -1.11255,-1.32053 -1.11255,-1.32053 l -0.90369,-0.17754 c -1.14968,-0.1972 -1.7643,-0.51432 -2.81097,-0.82832 -0.2458,-0.0737 -0.47276,-0.10417 -0.68161,-0.0946 z"
               sodipodi:nodetypes="ssccssccss" />
            <g
               id="g1218">
              <g
                 id="g1195">
                <circle
                   style="fill:#fff200;fill-opacity:1;stroke:#fff200;stroke-width:1.3;stroke-dasharray:none;stroke-opacity:1"
                   id="circle1191"
                   cx="296.86237"
                   cy="121.89506"
                   r="1.3289841" />
                <circle
                   style="fill:#ffffff;stroke:#000000;stroke-width:0.6;stroke-dasharray:none"
                   id="path1185"
                   cx="296.86237"
                   cy="121.89506"
                   r="1.3289841" />
              </g>
              <g
                 id="g1201"
                 transform="translate(6.555594)">
                <circle
                   style="fill:#fff200;fill-opacity:1;stroke:#fff200;stroke-width:1.3;stroke-dasharray:none;stroke-opacity:1"
                   id="circle1197"
                   cx="296.86237"
                   cy="121.89506"
                   r="1.3289841" />
                <circle
                   style="fill:#ffffff;stroke:#000000;stroke-width:0.6;stroke-dasharray:none"
                   id="circle1199"
                   cx="296.86237"
                   cy="121.89506"
                   r="1.3289841" />
              </g>
              <g
                 id="g1207"
                 transform="translate(13.111188)">
                <circle
                   style="fill:#fff200;fill-opacity:1;stroke:#fff200;stroke-width:1.3;stroke-dasharray:none;stroke-opacity:1"
                   id="circle1203"
                   cx="296.86237"
                   cy="121.89506"
                   r="1.3289841" />
                <circle
                   style="fill:#ffffff;stroke:#000000;stroke-width:0.6;stroke-dasharray:none"
                   id="circle1205"
                   cx="296.86237"
                   cy="121.89506"
                   r="1.3289841" />
              </g>
            </g>
            <path
               style="fill:#000000;fill-rule:nonzero;stroke:none;stroke-width:0.1;stroke-dasharray:none"
               d="m 295.47306,125.15817 c -0.0135,0.0321 -5.2e-4,0.18899 0.49019,0.40579 0.68879,0.30432 2.86982,0.97194 6.56968,1.05793 0.0246,5.7e-4 0.0491,0.001 0.0735,0.002 2.88802,0.0612 4.89692,-0.26112 6.1689,-0.6322 0.69061,-0.20148 1.11216,-0.40169 1.33429,-0.53245 0.40328,-0.2374 0.37425,-0.3874 0.35936,-0.41024 -0.026,-0.0399 -0.10947,-0.0847 -0.5228,0.0296 -0.18929,0.0524 -0.68998,0.20435 -1.31708,0.34178 -1.24797,0.27349 -3.16153,0.54031 -6.00691,0.47716 1e-4,0 -0.0721,-0.002 -0.072,-0.002 -3.56746,-0.086 -5.79661,-0.63831 -6.45513,-0.75761 -0.50367,-0.0912 -0.60299,-0.0247 -0.62194,0.0203 z"
               id="path1499"
               inkscape:path-effect="#path-effect1555"
               inkscape:original-d="m 295.47306,125.15817 c 0,0 2.34489,0.98871 7.06847,1.10054 5.85851,0.13869 7.92741,-1.21008 7.92741,-1.21008"
               sodipodi:nodetypes="csc" />
            <path
               style="color:#000000;fill:#000000;-inkscape-stroke:none"
               d="m 314.48633,115.66211 c -0.44869,-0.0121 -0.89,0.0927 -1.31446,0.24219 -0.8489,0.29897 -1.70314,0.74034 -2.75195,0.86914 -2.14599,0.26355 -4.61008,-0.36133 -6.57617,-0.36133 -1.94117,0 -3.05157,0.43717 -5.05469,0.55273 -1.96714,0.11349 -4.23002,-0.42721 -6.17187,-1.00976 -0.55516,-0.16654 -1.0783,-0.14154 -1.50977,0.0723 -0.43147,0.21381 -0.7508,0.59889 -0.96875,1.07618 -0.4359,0.95456 -0.51141,2.30163 -0.28906,3.83789 0.36509,2.52251 1.49414,12.3789 1.49414,12.3789 l 0.0332,0.28906 0.28907,0.0195 c 0,0 1.76857,0.17535 2.91796,-0.74414 0.37068,-0.29654 0.46608,-0.75977 0.49219,-1.22852 0.0261,-0.46875 -0.0193,-0.98648 -0.041,-1.49805 -0.0217,-0.51157 -0.0204,-1.01481 0.0742,-1.42773 0.0946,-0.41293 0.26279,-0.72141 0.58985,-0.93945 0.34413,-0.22942 0.6934,-0.29816 1.1289,-0.27344 0.43551,0.0247 0.94751,0.15402 1.53516,0.32226 1.1753,0.3365 2.65215,0.81704 4.50781,0.75586 2.52891,-0.0834 3.77574,-0.63852 6.38282,-1.10547 1.24287,-0.2226 2.12038,0.0199 2.88086,0.45508 0.76048,0.43522 1.39276,1.08261 2.05664,1.66602 0.64622,0.56789 1.19834,1.08267 1.76953,1.37109 0.28559,0.14421 0.5882,0.23267 0.90234,0.20117 0.31415,-0.0315 0.61456,-0.18878 0.87305,-0.44726 0.51134,-0.51135 0.65133,-1.17134 0.5664,-1.77149 -0.0849,-0.60014 -0.366,-1.16012 -0.68164,-1.62304 -0.50984,-0.74772 -0.77413,-2.19261 -0.80468,-4.05664 -0.019,-1.15667 0.17773,-2.59222 0.17773,-3.90625 0,-1.31404 -0.18956,-2.57625 -1.15039,-3.25586 -0.45261,-0.32015 -0.90873,-0.44886 -1.35742,-0.46094 z m -0.0391,0.67773 c 0.32324,0.004 0.63859,0.10537 0.99218,0.35547 0.65159,0.46088 0.85547,1.44136 0.85547,2.6836 1e-5,1.24224 -0.1981,2.67567 -0.17773,3.91797 0.0314,1.91824 0.25572,3.45676 0.92578,4.43945 0.27429,0.40228 0.50385,0.88414 0.5664,1.32617 0.0626,0.44203 -0.0133,0.82388 -0.36718,1.17773 -0.17412,0.17412 -0.30987,0.23213 -0.44922,0.2461 -0.13935,0.014 -0.30666,-0.0224 -0.51758,-0.12891 -0.42183,-0.213 -0.97146,-0.70084 -1.62305,-1.27344 -0.6339,-0.55707 -1.29832,-1.24728 -2.16992,-1.74609 -0.8716,-0.49881 -1.96147,-0.78643 -3.35351,-0.53711 -2.66278,0.47692 -3.84761,1.01547 -6.28125,1.0957 -1.72311,0.0568 -3.09684,-0.38661 -4.29102,-0.72851 -0.59709,-0.17095 -1.15037,-0.31902 -1.68945,-0.34961 -0.53908,-0.0306 -1.0749,0.0675 -1.55664,0.38867 -0.49881,0.33254 -0.76233,0.84117 -0.88282,1.36719 -0.12048,0.52601 -0.11627,1.08268 -0.0937,1.61328 0.0225,0.5306 0.0648,1.03815 0.043,1.42969 -0.0218,0.39153 -0.10954,0.62396 -0.23047,0.7207 -0.68901,0.5512 -1.76988,0.57816 -2.14648,0.57813 -0.0559,-0.48893 -1.09401,-9.56607 -1.45703,-12.07422 -0.21024,-1.45261 -0.10839,-2.70093 0.23242,-3.44727 0.17041,-0.37317 0.389,-0.61361 0.64453,-0.74023 0.25553,-0.12663 0.56806,-0.15575 0.9961,-0.0274 1.96988,0.59097 4.29116,1.15763 6.41406,1.03516 2.08692,-0.1204 3.17945,-0.54883 5.01367,-0.54883 1.80935,0 4.32481,0.64252 6.66211,0.35547 1.19284,-0.14649 2.12143,-0.63064 2.89844,-0.9043 0.3885,-0.13682 0.71972,-0.22884 1.04297,-0.22461 z"
               id="path3976" />
          </g>
          <path
             style="fill:#000000;fill-opacity:1;stroke:#000000;stroke-width:0.0499999;stroke-dasharray:none;stroke-opacity:1"
             d="m 279.22405,120.5186 c 0,0 2.0039,-0.39211 4.15988,-0.40361 1.62004,-0.009 3.28812,0.39318 4.45281,1.76041 0.75406,0.8852 1.28226,2.7814 1.95162,4.73726 1.50492,4.39736 2.84631,9.81385 2.84631,9.81385 h -1.06186 c 0,0 -2.26131,-8.14076 -3.04786,-10.18578 -0.78653,-2.04502 -1.55991,-4.57794 -3.91306,-5.15188 -2.41863,-0.58991 -5.38784,-0.57025 -5.38784,-0.57025 z"
             id="path4026"
             sodipodi:nodetypes="csssccssc" />
          <path
             id="rect4080"
             style="fill:#0060ff;fill-opacity:1;stroke:#000000;stroke-width:0.5;stroke-dasharray:none;stroke-opacity:1"
             d="m 272.08623,121.02982 v 1.88774 h -1.88774 v 1.88774 h 1.88774 v 1.88774 h 1.88774 v -1.88774 h 1.88774 v -1.88774 h -1.88774 v -1.88774 z" />
        </g>
        <g
           id="g4144"
           transform="translate(0,27.474558)">
          <path
             style="fill:#ffffff;fill-opacity:1;stroke:#000000;stroke-width:0.7;stroke-dasharray:none;stroke-opacity:1"
             d="m 291.8088,118.1393 c 0,0 -12.50609,2.28098 -29.65282,1.57309 -17.14671,-0.70789 -29.73146,-3.69677 -29.73146,-3.69677 0,0 4.04118,12.5876 15.73094,17.22538 14.47245,5.74179 44.63652,3.2445 44.63652,3.2445 l -0.86647,-4.82461 z"
             id="path4106"
             sodipodi:nodetypes="cscsccc" />
          <g
             id="g4138">
            <path
               style="color:#000000;fill:#e7b725;stroke-width:0.7;-inkscape-stroke:none"
               d="m 291.69082,133.28032 c 0,0 -1.12552,-9.8391 -1.49445,-12.38811 -0.43259,-2.98887 0.35394,-5.1912 2.32032,-4.6013 1.95587,0.58676 4.24735,1.1405 6.29237,1.02252 2.04502,-0.11798 3.14618,-0.55059 5.03388,-0.55059 1.88772,0 4.37769,0.63402 6.61934,0.35872 2.24166,-0.27529 3.56646,-1.85315 5.17886,-0.71266 1.61242,1.14049 0.78656,4.48332 0.82589,6.88228 0.031,1.89114 0.27524,3.38215 0.86519,4.24735 0.58992,0.8652 1.02251,2.08435 0.15732,2.94955 -0.86521,0.8652 -1.76974,0 -3.06755,-1.14049 -1.29778,-1.14049 -2.59559,-2.67426 -5.23052,-2.20233 -2.63493,0.47193 -3.85043,1.01936 -6.33171,1.10116 -3.57877,0.11798 -5.70246,-1.84838 -7.35421,-0.74722 -1.65174,1.10117 -0.15729,4.32601 -1.14048,5.11256 -0.98319,0.78654 -2.67425,0.66856 -2.67425,0.66856 z"
               id="path4108" />
            <path
               style="fill:#fff200;fill-opacity:1;stroke:none;stroke-width:0.1;stroke-dasharray:none"
               d="m 310.5667,117.24115 c 0,0 -1.93271,0.47275 -1.76586,1.25139 0.16685,0.77864 1.39044,0.68131 2.75304,0.27808 1.36263,-0.40322 2.05785,-1.37652 2.98945,-0.82035 0.93157,0.55617 0.61177,1.08453 1.09844,1.25139 0.48665,0.16685 0.82034,-0.45884 0.82034,-0.45884 l -0.22246,-1.77976 -1.54339,-0.9733 -2.75304,0.70912 z"
               id="path4110" />
            <path
               id="path4112"
               style="fill:#fff200;fill-opacity:1;stroke:none;stroke-width:0.1;stroke-dasharray:none"
               d="m 291.8349,116.19653 c -1.46195,0.0672 -2.01718,2.08057 -1.63866,4.69583 0.36893,2.54901 1.49448,12.38788 1.49448,12.38788 0,0 0.89238,0.0607 1.75752,-0.20671 -0.26462,-2.02967 -1.68519,-12.96371 -1.73581,-14.33091 -0.0556,-1.50167 4.7414,0.82035 5.63129,-0.12514 0.4653,-0.49436 -1.11255,-1.32053 -1.11255,-1.32053 l -0.90369,-0.17754 c -1.14968,-0.1972 -1.7643,-0.51432 -2.81097,-0.82832 -0.2458,-0.0737 -0.47276,-0.10417 -0.68161,-0.0946 z"
               sodipodi:nodetypes="ssccssccss" />
            <g
               id="g4132">
              <g
                 id="g4118">
                <circle
                   style="fill:#fff200;fill-opacity:1;stroke:#fff200;stroke-width:1.3;stroke-dasharray:none;stroke-opacity:1"
                   id="circle4114"
                   cx="296.86237"
                   cy="121.89506"
                   r="1.3289841" />
                <circle
                   style="fill:#ffffff;stroke:#000000;stroke-width:0.6;stroke-dasharray:none"
                   id="circle4116"
                   cx="296.86237"
                   cy="121.89506"
                   r="1.3289841" />
              </g>
              <g
                 id="g4124"
                 transform="translate(6.555594)">
                <circle
                   style="fill:#fff200;fill-opacity:1;stroke:#fff200;stroke-width:1.3;stroke-dasharray:none;stroke-opacity:1"
                   id="circle4120"
                   cx="296.86237"
                   cy="121.89506"
                   r="1.3289841" />
                <circle
                   style="fill:#ffffff;stroke:#000000;stroke-width:0.6;stroke-dasharray:none"
                   id="circle4122"
                   cx="296.86237"
                   cy="121.89506"
                   r="1.3289841" />
              </g>
              <g
                 id="g4130"
                 transform="translate(13.111188)">
                <circle
                   style="fill:#fff200;fill-opacity:1;stroke:#fff200;stroke-width:1.3;stroke-dasharray:none;stroke-opacity:1"
                   id="circle4126"
                   cx="296.86237"
                   cy="121.89506"
                   r="1.3289841" />
                <circle
                   style="fill:#ffffff;stroke:#000000;stroke-width:0.6;stroke-dasharray:none"
                   id="circle4128"
                   cx="296.86237"
                   cy="121.89506"
                   r="1.3289841" />
              </g>
            </g>
            <path
               style="fill:#000000;fill-rule:nonzero;stroke:none;stroke-width:0.1;stroke-dasharray:none"
               d="m 295.47306,125.15817 c -0.0135,0.0321 -5.2e-4,0.18899 0.49019,0.40579 0.68879,0.30432 2.86982,0.97194 6.56968,1.05793 0.0246,5.7e-4 0.0491,0.001 0.0735,0.002 2.88802,0.0612 4.89692,-0.26112 6.1689,-0.6322 0.69061,-0.20148 1.11216,-0.40169 1.33429,-0.53245 0.40328,-0.2374 0.37425,-0.3874 0.35936,-0.41024 -0.026,-0.0399 -0.10947,-0.0847 -0.5228,0.0296 -0.18929,0.0524 -0.68998,0.20435 -1.31708,0.34178 -1.24797,0.27349 -3.16153,0.54031 -6.00691,0.47716 1e-4,0 -0.0721,-0.002 -0.072,-0.002 -3.56746,-0.086 -5.79661,-0.63831 -6.45513,-0.75761 -0.50367,-0.0912 -0.60299,-0.0247 -0.62194,0.0203 z"
               id="path4134"
               inkscape:path-effect="#path-effect4148"
               inkscape:original-d="m 295.47306,125.15817 c 0,0 2.34489,0.98871 7.06847,1.10054 5.85851,0.13869 7.92741,-1.21008 7.92741,-1.21008"
               sodipodi:nodetypes="csc" />
            <path
               style="color:#000000;fill:#000000;-inkscape-stroke:none"
               d="m 314.48633,115.66211 c -0.44869,-0.0121 -0.89,0.0927 -1.31446,0.24219 -0.8489,0.29897 -1.70314,0.74034 -2.75195,0.86914 -2.14599,0.26355 -4.61008,-0.36133 -6.57617,-0.36133 -1.94117,0 -3.05157,0.43717 -5.05469,0.55273 -1.96714,0.11349 -4.23002,-0.42721 -6.17187,-1.00976 -0.55516,-0.16654 -1.0783,-0.14154 -1.50977,0.0723 -0.43147,0.21381 -0.7508,0.59889 -0.96875,1.07618 -0.4359,0.95456 -0.51141,2.30163 -0.28906,3.83789 0.36509,2.52251 1.49414,12.3789 1.49414,12.3789 l 0.0332,0.28906 0.28907,0.0195 c 0,0 1.76857,0.17535 2.91796,-0.74414 0.37068,-0.29654 0.46608,-0.75977 0.49219,-1.22852 0.0261,-0.46875 -0.0193,-0.98648 -0.041,-1.49805 -0.0217,-0.51157 -0.0204,-1.01481 0.0742,-1.42773 0.0946,-0.41293 0.26279,-0.72141 0.58985,-0.93945 0.34413,-0.22942 0.6934,-0.29816 1.1289,-0.27344 0.43551,0.0247 0.94751,0.15402 1.53516,0.32226 1.1753,0.3365 2.65215,0.81704 4.50781,0.75586 2.52891,-0.0834 3.77574,-0.63852 6.38282,-1.10547 1.24287,-0.2226 2.12038,0.0199 2.88086,0.45508 0.76048,0.43522 1.39276,1.08261 2.05664,1.66602 0.64622,0.56789 1.19834,1.08267 1.76953,1.37109 0.28559,0.14421 0.5882,0.23267 0.90234,0.20117 0.31415,-0.0315 0.61456,-0.18878 0.87305,-0.44726 0.51134,-0.51135 0.65133,-1.17134 0.5664,-1.77149 -0.0849,-0.60014 -0.366,-1.16012 -0.68164,-1.62304 -0.50984,-0.74772 -0.77413,-2.19261 -0.80468,-4.05664 -0.019,-1.15667 0.17773,-2.59222 0.17773,-3.90625 0,-1.31404 -0.18956,-2.57625 -1.15039,-3.25586 -0.45261,-0.32015 -0.90873,-0.44886 -1.35742,-0.46094 z m -0.0391,0.67773 c 0.32324,0.004 0.63859,0.10537 0.99218,0.35547 0.65159,0.46088 0.85547,1.44136 0.85547,2.6836 1e-5,1.24224 -0.1981,2.67567 -0.17773,3.91797 0.0314,1.91824 0.25572,3.45676 0.92578,4.43945 0.27429,0.40228 0.50385,0.88414 0.5664,1.32617 0.0626,0.44203 -0.0133,0.82388 -0.36718,1.17773 -0.17412,0.17412 -0.30987,0.23213 -0.44922,0.2461 -0.13935,0.014 -0.30666,-0.0224 -0.51758,-0.12891 -0.42183,-0.213 -0.97146,-0.70084 -1.62305,-1.27344 -0.6339,-0.55707 -1.29832,-1.24728 -2.16992,-1.74609 -0.8716,-0.49881 -1.96147,-0.78643 -3.35351,-0.53711 -2.66278,0.47692 -3.84761,1.01547 -6.28125,1.0957 -1.72311,0.0568 -3.09684,-0.38661 -4.29102,-0.72851 -0.59709,-0.17095 -1.15037,-0.31902 -1.68945,-0.34961 -0.53908,-0.0306 -1.0749,0.0675 -1.55664,0.38867 -0.49881,0.33254 -0.76233,0.84117 -0.88282,1.36719 -0.12048,0.52601 -0.11627,1.08268 -0.0937,1.61328 0.0225,0.5306 0.0648,1.03815 0.043,1.42969 -0.0218,0.39153 -0.10954,0.62396 -0.23047,0.7207 -0.68901,0.5512 -1.76988,0.57816 -2.14648,0.57813 -0.0559,-0.48893 -1.09401,-9.56607 -1.45703,-12.07422 -0.21024,-1.45261 -0.10839,-2.70093 0.23242,-3.44727 0.17041,-0.37317 0.389,-0.61361 0.64453,-0.74023 0.25553,-0.12663 0.56806,-0.15575 0.9961,-0.0274 1.96988,0.59097 4.29116,1.15763 6.41406,1.03516 2.08692,-0.1204 3.17945,-0.54883 5.01367,-0.54883 1.80935,0 4.32481,0.64252 6.66211,0.35547 1.19284,-0.14649 2.12143,-0.63064 2.89844,-0.9043 0.3885,-0.13682 0.71972,-0.22884 1.04297,-0.22461 z"
               id="path4136" />
          </g>
          <path
             style="fill:#000000;fill-opacity:1;stroke:#000000;stroke-width:0.0499999;stroke-dasharray:none;stroke-opacity:1"
             d="m 279.22405,120.5186 c 0,0 2.0039,-0.39211 4.15988,-0.40361 1.62004,-0.009 3.28812,0.39318 4.45281,1.76041 0.75406,0.8852 1.28226,2.7814 1.95162,4.73726 1.50492,4.39736 2.84631,9.81385 2.84631,9.81385 h -1.06186 c 0,0 -2.26131,-8.14076 -3.04786,-10.18578 -0.78653,-2.04502 -1.55991,-4.57794 -3.91306,-5.15188 -2.41863,-0.58991 -5.38784,-0.57025 -5.38784,-0.57025 z"
             id="path4140"
             sodipodi:nodetypes="csssccssc" />
          <path
             id="path4142"
             style="fill:#0060ff;fill-opacity:1;stroke:#000000;stroke-width:0.5;stroke-dasharray:none;stroke-opacity:1"
             d="m 272.08623,121.02982 v 1.88774 h -1.88774 v 1.88774 h 1.88774 v 1.88774 h 1.88774 v -1.88774 h 1.88774 v -1.88774 h -1.88774 v -1.88774 z" />
        </g>
        <g
           id="g4188"
           transform="translate(0,54.949117)">
          <path
             style="fill:#ffffff;fill-opacity:1;stroke:#000000;stroke-width:0.7;stroke-dasharray:none;stroke-opacity:1"
             d="m 291.8088,118.1393 c 0,0 -12.50609,2.28098 -29.65282,1.57309 -17.14671,-0.70789 -29.73146,-3.69677 -29.73146,-3.69677 0,0 4.04118,12.5876 15.73094,17.22538 14.47245,5.74179 44.63652,3.2445 44.63652,3.2445 l -0.86647,-4.82461 z"
             id="path4150"
             sodipodi:nodetypes="cscsccc" />
          <g
             id="g4182">
            <path
               style="color:#000000;fill:#e7b725;stroke-width:0.7;-inkscape-stroke:none"
               d="m 291.69082,133.28032 c 0,0 -1.12552,-9.8391 -1.49445,-12.38811 -0.43259,-2.98887 0.35394,-5.1912 2.32032,-4.6013 1.95587,0.58676 4.24735,1.1405 6.29237,1.02252 2.04502,-0.11798 3.14618,-0.55059 5.03388,-0.55059 1.88772,0 4.37769,0.63402 6.61934,0.35872 2.24166,-0.27529 3.56646,-1.85315 5.17886,-0.71266 1.61242,1.14049 0.78656,4.48332 0.82589,6.88228 0.031,1.89114 0.27524,3.38215 0.86519,4.24735 0.58992,0.8652 1.02251,2.08435 0.15732,2.94955 -0.86521,0.8652 -1.76974,0 -3.06755,-1.14049 -1.29778,-1.14049 -2.59559,-2.67426 -5.23052,-2.20233 -2.63493,0.47193 -3.85043,1.01936 -6.33171,1.10116 -3.57877,0.11798 -5.70246,-1.84838 -7.35421,-0.74722 -1.65174,1.10117 -0.15729,4.32601 -1.14048,5.11256 -0.98319,0.78654 -2.67425,0.66856 -2.67425,0.66856 z"
               id="path4152" />
            <path
               style="fill:#fff200;fill-opacity:1;stroke:none;stroke-width:0.1;stroke-dasharray:none"
               d="m 310.5667,117.24115 c 0,0 -1.93271,0.47275 -1.76586,1.25139 0.16685,0.77864 1.39044,0.68131 2.75304,0.27808 1.36263,-0.40322 2.05785,-1.37652 2.98945,-0.82035 0.93157,0.55617 0.61177,1.08453 1.09844,1.25139 0.48665,0.16685 0.82034,-0.45884 0.82034,-0.45884 l -0.22246,-1.77976 -1.54339,-0.9733 -2.75304,0.70912 z"
               id="path4154" />
            <path
               id="path4156"
               style="fill:#fff200;fill-opacity:1;stroke:none;stroke-width:0.1;stroke-dasharray:none"
               d="m 291.8349,116.19653 c -1.46195,0.0672 -2.01718,2.08057 -1.63866,4.69583 0.36893,2.54901 1.49448,12.38788 1.49448,12.38788 0,0 0.89238,0.0607 1.75752,-0.20671 -0.26462,-2.02967 -1.68519,-12.96371 -1.73581,-14.33091 -0.0556,-1.50167 4.7414,0.82035 5.63129,-0.12514 0.4653,-0.49436 -1.11255,-1.32053 -1.11255,-1.32053 l -0.90369,-0.17754 c -1.14968,-0.1972 -1.7643,-0.51432 -2.81097,-0.82832 -0.2458,-0.0737 -0.47276,-0.10417 -0.68161,-0.0946 z"
               sodipodi:nodetypes="ssccssccss" />
            <g
               id="g4176">
              <g
                 id="g4162">
                <circle
                   style="fill:#fff200;fill-opacity:1;stroke:#fff200;stroke-width:1.3;stroke-dasharray:none;stroke-opacity:1"
                   id="circle4158"
                   cx="296.86237"
                   cy="121.89506"
                   r="1.3289841" />
                <circle
                   style="fill:#ffffff;stroke:#000000;stroke-width:0.6;stroke-dasharray:none"
                   id="circle4160"
                   cx="296.86237"
                   cy="121.89506"
                   r="1.3289841" />
              </g>
              <g
                 id="g4168"
                 transform="translate(6.555594)">
                <circle
                   style="fill:#fff200;fill-opacity:1;stroke:#fff200;stroke-width:1.3;stroke-dasharray:none;stroke-opacity:1"
                   id="circle4164"
                   cx="296.86237"
                   cy="121.89506"
                   r="1.3289841" />
                <circle
                   style="fill:#ffffff;stroke:#000000;stroke-width:0.6;stroke-dasharray:none"
                   id="circle4166"
                   cx="296.86237"
                   cy="121.89506"
                   r="1.3289841" />
              </g>
              <g
                 id="g4174"
                 transform="translate(13.111188)">
                <circle
                   style="fill:#fff200;fill-opacity:1;stroke:#fff200;stroke-width:1.3;stroke-dasharray:none;stroke-opacity:1"
                   id="circle4170"
                   cx="296.86237"
                   cy="121.89506"
                   r="1.3289841" />
                <circle
                   style="fill:#ffffff;stroke:#000000;stroke-width:0.6;stroke-dasharray:none"
                   id="circle4172"
                   cx="296.86237"
                   cy="121.89506"
                   r="1.3289841" />
              </g>
            </g>
            <path
               style="fill:#000000;fill-rule:nonzero;stroke:none;stroke-width:0.1;stroke-dasharray:none"
               d="m 295.47306,125.15817 c -0.0135,0.0321 -5.2e-4,0.18899 0.49019,0.40579 0.68879,0.30432 2.86982,0.97194 6.56968,1.05793 0.0246,5.7e-4 0.0491,0.001 0.0735,0.002 2.88802,0.0612 4.89692,-0.26112 6.1689,-0.6322 0.69061,-0.20148 1.11216,-0.40169 1.33429,-0.53245 0.40328,-0.2374 0.37425,-0.3874 0.35936,-0.41024 -0.026,-0.0399 -0.10947,-0.0847 -0.5228,0.0296 -0.18929,0.0524 -0.68998,0.20435 -1.31708,0.34178 -1.24797,0.27349 -3.16153,0.54031 -6.00691,0.47716 1e-4,0 -0.0721,-0.002 -0.072,-0.002 -3.56746,-0.086 -5.79661,-0.63831 -6.45513,-0.75761 -0.50367,-0.0912 -0.60299,-0.0247 -0.62194,0.0203 z"
               id="path4178"
               inkscape:path-effect="#path-effect4192"
               inkscape:original-d="m 295.47306,125.15817 c 0,0 2.34489,0.98871 7.06847,1.10054 5.85851,0.13869 7.92741,-1.21008 7.92741,-1.21008"
               sodipodi:nodetypes="csc" />
            <path
               style="color:#000000;fill:#000000;-inkscape-stroke:none"
               d="m 314.48633,115.66211 c -0.44869,-0.0121 -0.89,0.0927 -1.31446,0.24219 -0.8489,0.29897 -1.70314,0.74034 -2.75195,0.86914 -2.14599,0.26355 -4.61008,-0.36133 -6.57617,-0.36133 -1.94117,0 -3.05157,0.43717 -5.05469,0.55273 -1.96714,0.11349 -4.23002,-0.42721 -6.17187,-1.00976 -0.55516,-0.16654 -1.0783,-0.14154 -1.50977,0.0723 -0.43147,0.21381 -0.7508,0.59889 -0.96875,1.07618 -0.4359,0.95456 -0.51141,2.30163 -0.28906,3.83789 0.36509,2.52251 1.49414,12.3789 1.49414,12.3789 l 0.0332,0.28906 0.28907,0.0195 c 0,0 1.76857,0.17535 2.91796,-0.74414 0.37068,-0.29654 0.46608,-0.75977 0.49219,-1.22852 0.0261,-0.46875 -0.0193,-0.98648 -0.041,-1.49805 -0.0217,-0.51157 -0.0204,-1.01481 0.0742,-1.42773 0.0946,-0.41293 0.26279,-0.72141 0.58985,-0.93945 0.34413,-0.22942 0.6934,-0.29816 1.1289,-0.27344 0.43551,0.0247 0.94751,0.15402 1.53516,0.32226 1.1753,0.3365 2.65215,0.81704 4.50781,0.75586 2.52891,-0.0834 3.77574,-0.63852 6.38282,-1.10547 1.24287,-0.2226 2.12038,0.0199 2.88086,0.45508 0.76048,0.43522 1.39276,1.08261 2.05664,1.66602 0.64622,0.56789 1.19834,1.08267 1.76953,1.37109 0.28559,0.14421 0.5882,0.23267 0.90234,0.20117 0.31415,-0.0315 0.61456,-0.18878 0.87305,-0.44726 0.51134,-0.51135 0.65133,-1.17134 0.5664,-1.77149 -0.0849,-0.60014 -0.366,-1.16012 -0.68164,-1.62304 -0.50984,-0.74772 -0.77413,-2.19261 -0.80468,-4.05664 -0.019,-1.15667 0.17773,-2.59222 0.17773,-3.90625 0,-1.31404 -0.18956,-2.57625 -1.15039,-3.25586 -0.45261,-0.32015 -0.90873,-0.44886 -1.35742,-0.46094 z m -0.0391,0.67773 c 0.32324,0.004 0.63859,0.10537 0.99218,0.35547 0.65159,0.46088 0.85547,1.44136 0.85547,2.6836 1e-5,1.24224 -0.1981,2.67567 -0.17773,3.91797 0.0314,1.91824 0.25572,3.45676 0.92578,4.43945 0.27429,0.40228 0.50385,0.88414 0.5664,1.32617 0.0626,0.44203 -0.0133,0.82388 -0.36718,1.17773 -0.17412,0.17412 -0.30987,0.23213 -0.44922,0.2461 -0.13935,0.014 -0.30666,-0.0224 -0.51758,-0.12891 -0.42183,-0.213 -0.97146,-0.70084 -1.62305,-1.27344 -0.6339,-0.55707 -1.29832,-1.24728 -2.16992,-1.74609 -0.8716,-0.49881 -1.96147,-0.78643 -3.35351,-0.53711 -2.66278,0.47692 -3.84761,1.01547 -6.28125,1.0957 -1.72311,0.0568 -3.09684,-0.38661 -4.29102,-0.72851 -0.59709,-0.17095 -1.15037,-0.31902 -1.68945,-0.34961 -0.53908,-0.0306 -1.0749,0.0675 -1.55664,0.38867 -0.49881,0.33254 -0.76233,0.84117 -0.88282,1.36719 -0.12048,0.52601 -0.11627,1.08268 -0.0937,1.61328 0.0225,0.5306 0.0648,1.03815 0.043,1.42969 -0.0218,0.39153 -0.10954,0.62396 -0.23047,0.7207 -0.68901,0.5512 -1.76988,0.57816 -2.14648,0.57813 -0.0559,-0.48893 -1.09401,-9.56607 -1.45703,-12.07422 -0.21024,-1.45261 -0.10839,-2.70093 0.23242,-3.44727 0.17041,-0.37317 0.389,-0.61361 0.64453,-0.74023 0.25553,-0.12663 0.56806,-0.15575 0.9961,-0.0274 1.96988,0.59097 4.29116,1.15763 6.41406,1.03516 2.08692,-0.1204 3.17945,-0.54883 5.01367,-0.54883 1.80935,0 4.32481,0.64252 6.66211,0.35547 1.19284,-0.14649 2.12143,-0.63064 2.89844,-0.9043 0.3885,-0.13682 0.71972,-0.22884 1.04297,-0.22461 z"
               id="path4180" />
          </g>
          <path
             style="fill:#000000;fill-opacity:1;stroke:#000000;stroke-width:0.0499999;stroke-dasharray:none;stroke-opacity:1"
             d="m 279.22405,120.5186 c 0,0 2.0039,-0.39211 4.15988,-0.40361 1.62004,-0.009 3.28812,0.39318 4.45281,1.76041 0.75406,0.8852 1.28226,2.7814 1.95162,4.73726 1.50492,4.39736 2.84631,9.81385 2.84631,9.81385 h -1.06186 c 0,0 -2.26131,-8.14076 -3.04786,-10.18578 -0.78653,-2.04502 -1.55991,-4.57794 -3.91306,-5.15188 -2.41863,-0.58991 -5.38784,-0.57025 -5.38784,-0.57025 z"
             id="path4184"
             sodipodi:nodetypes="csssccssc" />
          <path
             id="path4186"
             style="fill:#0060ff;fill-opacity:1;stroke:#000000;stroke-width:0.5;stroke-dasharray:none;stroke-opacity:1"
             d="m 272.08623,121.02982 v 1.88774 h -1.88774 v 1.88774 h 1.88774 v 1.88774 h 1.88774 v -1.88774 h 1.88774 v -1.88774 h -1.88774 v -1.88774 z" />
        </g>
      </g>
    </g>
  </g>
</svg>
