<?xml version="1.0" encoding="UTF-8" standalone="no"?>
<svg
   xmlns:dc="http://purl.org/dc/elements/1.1/"
   xmlns:cc="http://creativecommons.org/ns#"
   xmlns:rdf="http://www.w3.org/1999/02/22-rdf-syntax-ns#"
   xmlns:svg="http://www.w3.org/2000/svg"
   xmlns="http://www.w3.org/2000/svg"
   xmlns:sodipodi="http://sodipodi.sourceforge.net/DTD/sodipodi-0.dtd"
   xmlns:inkscape="http://www.inkscape.org/namespaces/inkscape"
   viewBox="0 0 984.26709 1066.6236"
   version="1.1"
   id="svg1023"
   sodipodi:docname="Wappen_Hunding.svg"
   inkscape:version="0.92.5 (2060ec1f9f, 2020-04-08)"
   width="984.26709"
   height="1066.6235">
  <metadata
     id="metadata1027">
    <rdf:RDF>
      <cc:Work
         rdf:about="">
        <dc:format>image/svg+xml</dc:format>
        <dc:type
           rdf:resource="http://purl.org/dc/dcmitype/StillImage" />
        <dc:title></dc:title>
      </cc:Work>
    </rdf:RDF>
  </metadata>
  <sodipodi:namedview
     pagecolor="#ffffff"
     bordercolor="#666666"
     borderopacity="1"
     objecttolerance="10"
     gridtolerance="10"
     guidetolerance="10"
     inkscape:pageopacity="0"
     inkscape:pageshadow="2"
     inkscape:window-width="1920"
     inkscape:window-height="1046"
     id="namedview1025"
     showgrid="false"
     inkscape:zoom="0.74346757"
     inkscape:cx="492.13354"
     inkscape:cy="533.31176"
     inkscape:window-x="-11"
     inkscape:window-y="-11"
     inkscape:window-maximized="1"
     inkscape:current-layer="svg1023"
     inkscape:snap-midpoints="true"
     inkscape:snap-smooth-nodes="true"
     inkscape:snap-nodes="true"
     inkscape:snap-center="true"
     inkscape:snap-object-midpoints="true"
     fit-margin-top="0"
     fit-margin-left="0"
     fit-margin-right="0"
     fit-margin-bottom="0" />
  <defs
     id="defs946">
    <inkscape:path-effect
       effect="spiro"
       id="path-effect1357"
       is_visible="true" />
    <path
       id="0"
       d="m -940.69,139.89 -68.2,-77.43"
       inkscape:connector-curvature="0"
       style="fill:none;stroke:#000000;stroke-width:33;stroke-linecap:round" />
    <path
       id="1"
       d="m -924,139.89 68.2,-77.43"
       inkscape:connector-curvature="0"
       style="fill:none;stroke:#000000;stroke-width:33;stroke-linecap:round" />
    <inkscape:path-effect
       effect="spiro"
       id="path-effect1357-9"
       is_visible="true" />
  </defs>
  <path
     style="fill:#fcdd09"
     inkscape:connector-curvature="0"
     id="path948"
     d="m 801.95653,8.5890209 c -26.17,0.053 -51.02,0.198 -70.798,0.478 -79.11,1.1220001 -156.7,-0.214 -235.05,0 -2.653,0.007 -5.305,0.036 -7.958,0.043 -78.35,0.214 -155.94,1.1220001 -235.05,0 -79.11,-1.122 -239.529998,0 -239.529998,0 0,0 4.995,48.1800001 6.784,72.3200001 3.067,41.379999 4.256,82.869999 6.784,124.289999 3.405,55.766 7.902,111.49 11.307,167.25 2.529,41.41 3.91,82.9 6.784,124.29 4.346,62.59 5.02,125.75 15.786,187.56 6.02,34.562 14.418,68.979 27.14,101.67 15.354998,39.473 33.472998,78.71 58.838998,112.63 18.288,24.456 41.648,45.04 65.884,63.62 27.747,21.272 57.962,39.81598 89.93,53.96798 33.818,14.97 69.917,25.08 106.24,32.09 27.334,5.278 55.35,7.255 83.19,7.349 27.662,0.094 55.55,-1.52 82.71,-6.741 36.46,-7.01 72.54,-17.626 106.46,-32.746 31.934,-14.235 62.23,-32.69598 89.98,-53.96798 24.24,-18.58 47.595,-39.17 65.884,-63.62 25.365,-33.919 43.484,-73.16 58.839,-112.63 12.718,-32.695 21.12,-67.16 27.14,-101.72 10.762,-61.814 11.44,-124.97 15.786,-187.56 2.874,-41.39 4.256,-82.87 6.784,-124.29 3.405,-55.766 7.902,-111.44 11.307,-167.21 2.529,-41.41 3.717,-82.909 6.784,-124.289999 1.79,-24.14 6.784,-72.3200001 6.784,-72.3200001 0,0 -90.24,-0.636 -168.73,-0.478" />
  <path
     style="fill:#078930;stroke:#000000;stroke-width:14;stroke-linecap:round;stroke-linejoin:round;stroke-miterlimit:4;stroke-dasharray:none"
     d="m 492.10364,495.14324 0.002,0.006 c -72.55,0 -134.15984,46.63454 -156.58984,111.56054 -28.491,-32.13999 -70.08016,-52.37109 -116.41016,-52.37109 -82.46,0 -149.939449,64.17055 -155.189449,145.31055 h -0.15625 -2.632812 c 11.83816,199.50303 201.103421,357.22866 431.005861,357.36136 229.75318,-0.2153 419.06715,-157.98882 431,-357.36136 h -2.64453 c 3.9e-4,-0.002 0.002,-0.004 0.002,-0.006 h -0.125 c -5.251,-81.14 -72.72141,-145.3086 -155.19141,-145.3086 -46.32,0 -87.92015,20.23515 -116.41015,52.36915 -22.438,-64.929 -84.10016,-111.56055 -156.66016,-111.56055 z"
     id="path950"
     inkscape:connector-curvature="0" />
  <path
     d="m 587.23698,644.29759 c -8.03133,0.0141 -15.66046,0.0538 -21.73007,0.12919 -24.28062,0.30365 -48.0979,-0.0585 -72.15114,0 -0.81408,0.002 -1.62814,9.5e-4 -2.44222,0.0123 -24.04895,0.0575 -47.86515,0.30365 -72.15114,0 -24.28062,-0.30364 -73.52401,0 -73.52401,0 0,0 1.53269,13.04628 2.08184,19.58497 0.94171,11.20556 1.30637,22.44224 2.08184,33.65817 1.04468,15.09727 2.42506,30.19455 3.47081,45.29183 0.77653,11.21499 1.20019,22.44883 2.08184,33.65816 1.33426,16.95026 1.54234,34.05139 4.84475,50.79325 1.84695,9.35918 4.42538,18.6797 8.32951,27.53532 4.71282,10.68974 10.27405,21.3163 18.05977,30.50574 5.61377,6.6198 12.78384,12.19759 20.22204,17.22939 8.51721,5.76072 17.79057,10.78215 27.60343,14.61541 10.38023,4.05391 21.46192,6.79141 32.60905,8.69154 8.38957,1.42957 16.99043,1.96425 25.53445,1.99065 8.49038,0.0255 17.04941,-0.41208 25.3875,-1.82563 11.19109,-1.89541 22.26421,-4.77342 32.67554,-8.86788 9.80214,-3.85495 19.10016,-8.85468 27.61737,-14.61447 7.4382,-5.0318 14.60933,-10.60676 20.22204,-17.22938 7.78572,-9.18567 13.34694,-19.81223 18.05978,-30.50574 3.90411,-8.85374 6.47826,-18.18652 8.32949,-27.54476 3.30349,-16.73996 3.51157,-33.84204 4.84583,-50.79324 0.88164,-11.20933 1.30638,-22.44223 2.08184,-33.65816 1.04468,-15.09728 2.42506,-30.1757 3.47081,-45.28241 0.77653,-11.21498 1.1412,-22.4526 2.08184,-33.65816 0.54915,-6.5387 2.08184,-19.58497 2.08184,-19.58497 0,0 -27.69673,-0.17257 -51.79393,-0.12919 z"
     id="path1001-9"
     inkscape:connector-curvature="0"
     style="fill:#ffffff;stroke:#000000;stroke-width:8;stroke-linecap:round;stroke-linejoin:round;stroke-miterlimit:4;stroke-dasharray:none;stroke-opacity:1" />
  <path
     style="fill:#000000;fill-opacity:1;fill-rule:evenodd;stroke:none;stroke-width:1.01180947;stroke-linecap:round;stroke-linejoin:round;stroke-miterlimit:4;stroke-dasharray:none;stroke-opacity:1;paint-order:fill markers stroke"
     d="m 448.55372,665.18425 c -7.62883,5.69137 -14.97642,11.75573 -22.05469,18.10938 -5.02956,4.51468 -9.90122,9.20052 -14.69922,13.96289 -4.79801,4.76236 -9.52234,9.60023 -14.25391,14.42578 -3.15482,3.21747 -6.29626,6.45492 -9.27343,9.83789 -6.28393,7.1405 -12.41801,14.42781 -18.10938,22.05664 l 27.19727,26.36719 c 4.1864,-6.68706 8.58178,-13.28103 13.66211,-19.30469 4.05064,-4.80276 8.24237,-9.49243 12.53711,-14.08984 0.70379,1.68837 1.74705,3.27635 3.13085,4.66015 l 46.63477,46.63282 -63.38086,63.38086 c -5.53342,5.53341 -5.64062,14.3379 -0.24023,19.73828 5.40038,5.40039 14.2029,5.29122 19.73632,-0.24219 l 63.38086,-63.38086 64.70118,64.70117 c 5.53342,5.53341 14.33593,5.64062 19.73632,0.24024 5.40038,-5.40039 5.29319,-14.20292 -0.24023,-19.73633 l -64.70117,-64.70117 45.30273,-45.30274 21.2168,21.2168 35.25,5.08008 -5.08008,-35.25 -67.08398,-67.08203 -30.16993,30.16797 26.3711,26.37109 -45.30274,45.30273 -46.63476,-46.63476 c -1.3838,-1.3838 -2.9699,-2.427 -4.65821,-3.13086 4.59782,-4.29519 9.28855,-8.48612 14.0918,-12.53711 6.02323,-5.07991 12.61568,-9.47571 19.30274,-13.66211 z"
     id="rect1353"
     inkscape:connector-curvature="0" />
  <path
     style="fill:#000000;fill-opacity:1;fill-rule:evenodd;stroke:none;stroke-width:1;stroke-linecap:round;stroke-linejoin:round;stroke-miterlimit:4;stroke-dasharray:none;stroke-opacity:1;paint-order:fill markers stroke"
     d="m 492.13451,36.358083 -22.48828,34.976563 v 65.261714 l -38.23633,-38.236323 -39.63282,-8.617188 8.61329,39.636721 69.25586,69.25586 v 32.01562 h -32.01368 l -69.25586,-69.25586 -39.63672,-8.61523 8.61719,39.63672 38.23438,38.23437 h -65.25977 l -34.97656,22.48633 34.97656,22.48633 h 65.25977 l -38.23438,38.23633 -8.61719,39.63476 39.63672,-8.61523 69.25586,-69.25586 h 32.01368 v 32.01562 l -69.25586,69.25391 -8.61329,39.63672 39.63282,-8.61524 38.23633,-38.23632 v 65.26171 l 22.48828,34.97657 22.48437,-34.97657 V 369.6784 l 38.23438,38.23632 39.63671,8.61524 -8.61523,-39.63672 -69.25586,-69.25391 v -32.01562 h 32.01758 l 69.25391,69.25586 39.63671,8.61523 -8.61718,-39.63476 -38.23438,-38.23633 h 65.25977 l 34.97656,-22.48633 -34.97656,-22.48633 h -65.25977 l 38.23438,-38.23437 8.61718,-39.63672 -39.63671,8.61523 -69.25391,69.25586 h -32.01758 v -32.01562 l 69.25586,-69.25586 8.61523,-39.636721 -39.63671,8.617188 -38.23438,38.236323 V 71.334646 Z"
     id="rect1452"
     inkscape:connector-curvature="0" />
  <path
     d="M 10.349436,9.6129999 60.741253,691.66435 C 67.926872,894.92847 259.16999,1056.876 492.13203,1057.0105 724.94488,1056.7923 916.24319,894.79392 923.52275,691.66435 L 973.91759,9.6129999 H 492.1365 Z"
     id="path1193"
     inkscape:connector-curvature="0"
     style="fill:none;fill-rule:evenodd;stroke:#000600;stroke-width:19.22599983;stroke-miterlimit:4;stroke-dasharray:none;stroke-opacity:1" />
</svg>
