<?xml version="1.0" encoding="UTF-8" standalone="no"?>
<svg
   xmlns:dc="http://purl.org/dc/elements/1.1/"
   xmlns:cc="http://creativecommons.org/ns#"
   xmlns:rdf="http://www.w3.org/1999/02/22-rdf-syntax-ns#"
   xmlns:svg="http://www.w3.org/2000/svg"
   xmlns="http://www.w3.org/2000/svg"
   xmlns:sodipodi="http://sodipodi.sourceforge.net/DTD/sodipodi-0.dtd"
   xmlns:inkscape="http://www.inkscape.org/namespaces/inkscape"
   viewBox="0 0 1065.28 1280.59"
   version="1.1"
   id="svg945"
   sodipodi:docname="Wappen_Hurlach.svg"
   inkscape:version="0.92.5 (2060ec1f9f, 2020-04-08)">
  <metadata
     id="metadata951">
    <rdf:RDF>
      <cc:Work
         rdf:about="">
        <dc:format>image/svg+xml</dc:format>
        <dc:type
           rdf:resource="http://purl.org/dc/dcmitype/StillImage" />
        <dc:title></dc:title>
      </cc:Work>
    </rdf:RDF>
  </metadata>
  <defs
     id="defs949" />
  <sodipodi:namedview
     pagecolor="#ffffff"
     bordercolor="#666666"
     borderopacity="1"
     objecttolerance="10"
     gridtolerance="10"
     guidetolerance="10"
     inkscape:pageopacity="0"
     inkscape:pageshadow="2"
     inkscape:window-width="1920"
     inkscape:window-height="1046"
     id="namedview947"
     showgrid="false"
     inkscape:zoom="0.61924643"
     inkscape:cx="532.6525"
     inkscape:cy="640.29541"
     inkscape:window-x="-11"
     inkscape:window-y="-11"
     inkscape:window-maximized="1"
     inkscape:current-layer="svg945" />
  <path
     d="m 382.07,87.69 c -59.09,17 -183.81,15.5 -183.81,15.5 0,0 -55.667,57.49 -88.59,79.72 -30.647,20.688 -99.66,48.719 -99.66,48.719 v 427.41 c 0,0 3.266,123.06 19.938,181.62 9.853,34.615 26.29,67.66 46.5,97.44 23.18,34.14 51.573,65.46 84.16,90.78 68.33,53.11 150.25,86.2 228.09,124.03 46.99,22.836 143.97,62 143.97,62 0,0 96.95,-39.16 143.94,-62 77.84,-37.829 159.76,-70.923 228.09,-124.03 32.583,-25.323 60.979,-56.638 84.16,-90.78 20.21,-29.778 36.678,-62.822 46.531,-97.44 16.671,-58.57 19.906,-181.62 19.906,-181.62 v -427.41 c 0,0 -69.01,-28.03 -99.66,-48.719 -32.926,-22.23 -88.56,-79.72 -88.56,-79.72 0,0 -124.72,1.504 -183.81,-15.5 C 628.985,72.07 532.675,10 532.675,10 c 0,0 -96.31,62.07 -150.59,77.69 z"
     id="path919"
     inkscape:connector-curvature="0"
     style="fill:#ffffff;stroke:#000000;stroke-width:20;stroke-linejoin:round" />
  <path
     style="fill:#ffffff"
     d="m 382.07,143.37 c -59.09,17 -183.81,15.5 -183.81,15.5 0,0 -55.667,57.49 -88.59,79.72 -30.647,20.688 -99.66,48.719 -99.66,48.719 v 427.41 c 0,0 3.266,123.06 19.938,181.62 9.853,34.615 26.29,67.66 46.5,97.44 23.18,34.14 51.573,65.46 84.16,90.78 68.33,53.11 150.25,86.2 228.09,124.03 46.99,22.836 143.97,62 143.97,62 0,0 96.95,-39.16 143.94,-62 77.84,-37.829 159.76,-70.923 228.09,-124.03 32.583,-25.323 60.979,-56.638 84.16,-90.78 20.21,-29.778 36.678,-62.822 46.531,-97.44 16.671,-58.57 19.906,-181.62 19.906,-181.62 v -427.41 c 0,0 -69.01,-28.03 -99.66,-48.719 -32.926,-22.23 -88.56,-79.72 -88.56,-79.72 0,0 -124.72,1.504 -183.81,-15.5 -54.28,-15.62 -150.59,-77.69 -150.59,-77.69 0,0 -96.31,62.07 -150.59,77.69"
     id="path921"
     inkscape:connector-curvature="0" />
  <path
     style="fill:#da121a"
     inkscape:connector-curvature="0"
     id="path925"
     d="M 143.84,488.53 14.25,618.15 143.84,747.71 273.43,618.15 143.84,488.53 M 273.43,618.15 403.02,747.71 532.64,618.15 403.02,488.53 273.43,618.15 m 259.22,0 L 662.24,747.71 791.83,618.15 662.24,488.53 532.65,618.15 m 259.19,0 L 921.46,747.71 1051.02,618.15 921.46,488.53 791.84,618.15 m 129.62,129.56 -129.62,129.62 129.62,129.59 115.12,-115.16 c 1.871,-7.212 3.567,-15.234 5.094,-23.781 l -120.22,-120.28 m 0,259.22 -129.62,129.59 11.25,11.219 c 35.604,-18.424 70.04,-38.667 101.59,-63.19 17.532,-13.626 33.834,-29.02 48.781,-45.625 l -32,-32 m -129.62,129.59 -129.59,-129.59 -129.59,129.59 94.47,94.5 c 18.288,-7.95 35.951,-15.868 49.47,-22.438 27.1,-13.168 54.691,-25.779 82.03,-38.844 l 33.22,-33.22 m -259.19,0 -129.62,-129.59 -129.59,129.59 33.19,33.19 c 27.357,13.07 54.948,25.698 82.06,38.875 13.513,6.567 31.18,14.489 49.47,22.438 l 94.5,-94.5 m -259.22,0 -129.59,-129.59 -32.03,32.03 c 14.945,16.599 31.25,31.97 48.781,45.594 31.553,24.522 66.02,44.763 101.62,63.19 l 11.219,-11.219 m -129.59,-129.59 129.59,-129.59 -129.59,-129.62 -120.22,120.25 c 1.532,8.571 3.217,16.615 5.094,23.844 l 115.12,115.12 m 129.59,-129.59 129.59,129.59 129.62,-129.59 -129.62,-129.62 -129.59,129.62 m 259.22,0 129.59,129.59 129.59,-129.59 -129.59,-129.62 -129.59,129.62" />
  <path
     d="m 532.66,65.69 c 0,0 -96.31,62.07 -150.59,77.69 -59.09,17 -183.81,15.5 -183.81,15.5 0,0 -55.668,57.49 -88.59,79.72 -30.647,20.688 -99.66,48.719 -99.66,48.719 v 198.72 h 1045.28 v -198.72 c 0,0 -69.01,-28.03 -99.66,-48.719 -32.926,-22.23 -88.56,-79.72 -88.56,-79.72 0,0 -124.72,1.504 -183.81,-15.5 C 628.98,127.76 532.67,65.69 532.67,65.69 Z"
     id="path927"
     inkscape:connector-curvature="0"
     style="stroke:#000000;stroke-width:5;stroke-linecap:round;stroke-linejoin:round" />
  <path
     d="m 382.07,143.37 c -59.09,17 -183.81,15.5 -183.81,15.5 0,0 -55.667,57.49 -88.59,79.72 -30.647,20.688 -99.66,48.719 -99.66,48.719 v 427.41 c 0,0 3.266,123.06 19.938,181.62 9.853,34.615 26.29,67.66 46.5,97.44 23.18,34.14 51.573,65.46 84.16,90.78 68.33,53.11 150.25,86.2 228.09,124.03 46.99,22.836 143.97,62 143.97,62 0,0 96.95,-39.16 143.94,-62 77.84,-37.829 159.76,-70.923 228.09,-124.03 32.583,-25.323 60.979,-56.638 84.16,-90.78 20.21,-29.778 36.678,-62.822 46.531,-97.44 16.671,-58.57 19.906,-181.62 19.906,-181.62 v -427.41 c 0,0 -69.01,-28.03 -99.66,-48.719 -32.926,-22.23 -88.56,-79.72 -88.56,-79.72 0,0 -124.72,1.504 -183.81,-15.5 -54.28,-15.62 -150.59,-77.69 -150.59,-77.69 0,0 -96.31,62.07 -150.59,77.69 z"
     id="path929"
     inkscape:connector-curvature="0"
     style="fill:none;stroke:#000000;stroke-width:20;stroke-linejoin:round" />
</svg>
