<?xml version="1.0" encoding="UTF-8" standalone="no"?>
<svg
   xmlns:dc="http://purl.org/dc/elements/1.1/"
   xmlns:cc="http://creativecommons.org/ns#"
   xmlns:rdf="http://www.w3.org/1999/02/22-rdf-syntax-ns#"
   xmlns:svg="http://www.w3.org/2000/svg"
   xmlns="http://www.w3.org/2000/svg"
   xmlns:xlink="http://www.w3.org/1999/xlink"
   xmlns:sodipodi="http://sodipodi.sourceforge.net/DTD/sodipodi-0.dtd"
   xmlns:inkscape="http://www.inkscape.org/namespaces/inkscape"
   viewBox="0 0 942.435 1052.177"
   version="1.1"
   id="svg939"
   sodipodi:docname="DEU_Jetzendorf_COA.svg"
   inkscape:version="0.92.5 (2060ec1f9f, 2020-04-08)"
   width="942.435"
   height="1052.177">
  <metadata
     id="metadata943">
    <rdf:RDF>
      <cc:Work
         rdf:about="">
        <dc:format>image/svg+xml</dc:format>
        <dc:type
           rdf:resource="http://purl.org/dc/dcmitype/StillImage" />
        <dc:title></dc:title>
      </cc:Work>
    </rdf:RDF>
  </metadata>
  <sodipodi:namedview
     pagecolor="#ffffff"
     bordercolor="#666666"
     borderopacity="1"
     objecttolerance="10"
     gridtolerance="10"
     guidetolerance="10"
     inkscape:pageopacity="0"
     inkscape:pageshadow="2"
     inkscape:window-width="1920"
     inkscape:window-height="1046"
     id="namedview941"
     showgrid="false"
     inkscape:zoom="0.75367497"
     inkscape:cx="471.21778"
     inkscape:cy="526.08815"
     inkscape:window-x="-11"
     inkscape:window-y="-11"
     inkscape:window-maximized="1"
     inkscape:current-layer="svg939"
     inkscape:snap-global="true"
     fit-margin-top="0"
     fit-margin-left="0"
     fit-margin-right="0"
     fit-margin-bottom="0"
     inkscape:snap-midpoints="true"
     inkscape:snap-smooth-nodes="true" />
  <defs
     id="defs881">
    <path
       id="0"
       d="m -480.57,636.11 c 0,54.29 -40.75,98.3 -91.02,98.3 -50.27,0 -91.02,-44.01 -91.02,-98.3 0,-54.29 40.75,-98.3 91.02,-98.3 50.27,0 91.02,44.01 91.02,98.3 z"
       inkscape:connector-curvature="0"
       style="fill:#fcdd09;stroke:#000000;stroke-width:4.93400002;stroke-linecap:round" />
  </defs>
  <path
     style="opacity:1;fill:#ed1c24;fill-opacity:1;fill-rule:evenodd;stroke:none;stroke-width:11;stroke-linecap:round;stroke-linejoin:miter;stroke-miterlimit:4;stroke-dasharray:none;stroke-opacity:1;paint-order:fill markers stroke"
     d="M 5.5,5.4999964 V 576.31426 c 0,274.28498 207.70732,470.36274 465.71574,470.36274 258.00852,0 465.71929,-196.07776 465.71929,-470.36274 V 5.4999964 Z"
     id="rect953-1-5-2"
     inkscape:connector-curvature="0"
     sodipodi:nodetypes="cssscc" />
  <path
     style="opacity:1;fill:#ffffff;fill-opacity:1;fill-rule:evenodd;stroke:#000000;stroke-width:10.99999905;stroke-linecap:round;stroke-linejoin:miter;stroke-miterlimit:4;stroke-dasharray:none;stroke-dashoffset:0;stroke-opacity:1;paint-order:fill markers stroke"
     d="M 471.21484 5.5 L 471.21484 1046.6777 C 729.22336 1046.6777 936.93555 850.59943 936.93555 576.31445 L 936.93555 5.5 L 471.21484 5.5 z "
     id="rect1925" />
  <path
     style="opacity:1;fill:#0066b3;fill-opacity:1;fill-rule:evenodd;stroke:#000000;stroke-width:11;stroke-linecap:round;stroke-linejoin:miter;stroke-miterlimit:4;stroke-dasharray:none;stroke-dashoffset:0;stroke-opacity:1;paint-order:fill markers stroke"
     d="M 471.21484 486.62109 L 471.21484 1046.6777 C 698.98735 1046.6777 887.56103 893.8625 928.63086 669.33203 C 928.63097 669.3314 928.63074 669.33071 928.63086 669.33008 C 932.99207 645.48664 935.69094 620.83448 936.5957 595.4707 C 936.59573 595.47005 936.59568 595.4694 936.5957 595.46875 C 936.82188 589.12763 936.93555 582.74301 936.93555 576.31445 L 936.93555 486.62109 L 471.21484 486.62109 z "
     id="rect1943" />
  <g
     id="g2016"
     transform="translate(-1049.9887)">
    <use
       style="fill:#ffdd00;fill-opacity:1"
       y="0"
       x="0"
       id="use911"
       transform="matrix(1.05315,0,0,0.97514,2449.5989,24.98657)"
       xlink:href="#0"
       width="977.12"
       height="1068.16" />
    <use
       style="fill:#ffdd00;fill-opacity:1"
       y="0"
       x="0"
       id="use913"
       transform="matrix(1.05315,0,0,0.97514,2238.4689,24.98657)"
       xlink:href="#0"
       width="977.12"
       height="1068.16" />
    <use
       style="fill:#ffdd00;fill-opacity:1"
       height="1068.16"
       width="977.12"
       xlink:href="#0"
       transform="matrix(1.05315,0,0,0.97514,2344.0319,200.93257)"
       id="use917"
       x="0"
       y="0" />
  </g>
  <g
     id="g2025"
     transform="translate(-1062.6988)">
    <path
       style="stroke-width:0.95868999"
       d="m 1443.1153,259.02702 c 1.0996,-5.26417 8.4316,-7.08472 10.9779,-11.82161 2.2625,-4.2096 3.5778,-9.15836 3.3775,-13.93264 -0.187,-4.4464 -1.3671,-9.25232 -4.2221,-12.66621 -2.2625,-2.70542 -9.2887,-5.06668 -9.2887,-5.06668 0,0 3.6919,-4.45311 4.222,-7.17771 0.7344,-3.77053 -0.095,-7.9044 -1.6892,-11.39978 -1.0766,-2.36126 -3.0208,-4.31411 -5.0667,-5.91129 -4.2163,-3.29214 -9.0816,-6.27462 -14.3554,-7.17771 -3.3554,-0.57425 -10.1333,1.26643 -10.1333,1.26643 0,0 0.01,-4.82221 -0.4219,-7.17771 -1.1044,-6.08864 -1.5454,-12.96436 -5.4885,-17.73289 -4.7752,-5.77131 -12.4725,-9.19767 -19.8439,-10.55518 -4.4636,-0.82255 -13.5079,1.68922 -13.5079,1.68922 0,0 -4.525,-7.02337 -6.7588,-10.55518 -3.0247,-4.79153 -4.3697,-11.14381 -8.9848,-14.42829 -4.5519,-3.24228 -10.7594,-3.64973 -16.3457,-3.72451 -4.3055,-0.0575 -8.3626,2.41399 -12.6662,2.53286 -4.9737,0.13805 -9.8064,-1.88286 -14.7773,-2.11103 -2.8156,-0.12943 -5.6668,0.89829 -8.4441,0.42182 -5.847,-1.00183 -10.5743,-6.04358 -16.4703,-6.75876 -5.6515,-0.68259 -11.1956,2.56066 -16.8883,2.53286 -7.1259,-0.0345 -14.0208,-4.0984 -21.1103,-3.37747 -6.7396,0.68451 -13.3124,3.50497 -18.9993,7.17771 -2.508,1.61923 -6.3332,6.33311 -6.3332,6.33311 0,0 -16.3936,-5.24404 -24.4226,-3.48676 -8.6953,1.90204 -16.9563,7.45669 -22.4429,14.46664 -3.2107,4.10031 -5.0667,14.77724 -5.0667,14.77724 0,0 -6.8613,-3.38992 -10.5552,-3.37746 -8.5898,0.0297 -18.6935,1.68154 -24.4878,8.02232 -3.8002,4.15783 -4.362,10.861 -3.8002,16.47029 0.3393,3.38418 4.222,9.28875 4.222,9.28875 0,0 -12.0737,-3.02563 -17.7328,-1.26643 -5.7714,1.79371 -11.2321,6.0292 -14.1609,11.3135 -2.367,4.27 -2.1407,9.69236 -1.6892,14.55004 0.419,4.51063 4.0275,12.9797 4.0275,12.9797 0,0 -9.8074,0.94143 -13.508,3.80025 -3.7446,2.89524 -6.5047,7.56119 -7.1777,12.24439 -0.9893,6.89298 5.0667,20.2667 5.0667,20.2667 0,0 -5.4022,7.73663 -5.9113,12.24439 -0.5675,5.02066 3.1503,9.72975 3.3775,14.77725 0.3768,8.37128 -3.5539,16.53261 -3.3775,24.9106 0.2522,12.00663 1.092,24.66134 6.3331,35.46578 2.2194,4.57391 5.175,10.2762 10.1334,11.39978 2.83,0.64137 6.1337,-1.17439 8.0223,-3.37746 4.154,-4.85097 3.4954,-12.29904 4.6439,-18.5775 2.1686,-11.84845 1.6346,-24.12064 4.2221,-35.8876 3.2816,-14.91722 14.2365,-43.55329 14.2365,-43.55329 0,0 -1.6221,16.07148 -1.5703,24.13023 0.059,9.0347 -3.5462,19.97718 2.111,27.02547 2.1187,2.63832 6.3667,3.47238 9.7106,2.95564 2.7006,-0.41799 5.2038,-2.3948 6.7588,-4.64389 6.7491,-9.77768 4.5173,-23.41025 8.4441,-34.6183 5.7454,-16.40318 12.2521,-32.87348 21.955,-47.29217 9.4517,-14.04385 20.1996,-28.28903 34.6182,-37.15499 9.4863,-5.83172 20.9541,-9.42776 32.0884,-9.28875 14.9095,0.18694 29.6503,6.19505 42.6425,13.50794 14.3401,8.07409 38.0111,16.07627 37.155,32.51014 -0.1525,2.92496 -4.2825,4.62568 -7.1777,5.06667 -9.5035,1.44667 -18.1413,-6.44239 -27.4435,-8.86596 -13.1944,-3.43882 -27.5134,-13.23951 -40.1097,-8.02232 -1.4064,0.58288 -2.0918,2.34304 -2.5328,3.80025 -0.8159,2.69392 0,8.44414 0,8.44414 0,0 10.5839,14.72164 16.0437,21.95496 5.3782,7.12211 9.7824,15.19619 16.4702,21.11035 1.2291,1.08812 4.2221,2.53286 4.2221,2.53286 0,0 -25.1944,27.5633 -35.4658,43.06532 -17.6283,26.60556 -31.4057,55.68071 -44.3298,84.86323 -9.0481,20.42681 -8.0482,46.42936 -23.1428,62.89966 -14.0639,15.33904 -38.2565,16.54794 -56.5032,26.55667 -4.3496,2.38618 -9.5342,4.038 -12.578,7.95617 -2.113,2.72076 -2.5952,6.43664 -3.1934,9.82944 -2.1024,11.92707 -1.1418,24.19734 -1.2665,36.31039 -0.2023,19.70395 0.02,39.42133 0.8446,59.11282 0.6788,16.20953 1.2789,32.467 3.3775,48.55382 0.4822,3.69479 -1.0402,8.98963 2.111,10.97796 5.6582,3.57016 13.0957,-2.88566 19.4221,-5.06668 9.7144,-3.34775 18.3014,-9.83712 28.2881,-12.24439 4.2499,-1.02388 13.088,-0.84461 13.088,-0.84461 0,0 -0.5474,6.25066 1.2665,8.44415 3.5174,4.2537 10.3644,3.80887 15.6218,5.4885 16.4607,5.25937 32.768,11.51386 49.8212,14.35542 19.7375,3.28447 39.9448,2.89524 59.9565,2.95564 19.5803,0.0604 39.1558,-3.92392 58.691,-2.53286 4.5701,0.32596 10.026,-0.44195 13.5079,2.53286 1.5915,1.35847 2.437,3.84435 2.1111,5.91128 -1.7966,11.40075 -13.2673,18.97727 -21.1104,27.44346 -8.8727,9.57732 -17.1663,20.95697 -29.1326,26.17703 -1.4247,0.62124 -3.1129,0.6893 -4.6439,0.42183 -2.2951,-0.40073 -4.1272,-2.20595 -6.3331,-2.95564 -2.4572,-0.83502 -5.0399,-2.11487 -7.5996,-1.68921 -2.9288,0.48701 -5.7512,2.32098 -7.5995,4.64389 -1.3853,1.74098 -1.8973,4.11853 -2.1111,6.33311 -0.3125,3.249 1.4966,6.45486 1.2665,9.71057 -0.186,2.62297 -0.072,5.94004 -2.1111,7.59953 -1.6412,1.33546 -4.2316,0.17448 -6.3331,0.42183 -8.3645,0.98553 -16.825,1.86561 -24.9106,4.22207 -9.3855,2.73514 -18.9619,5.86718 -27.0254,11.39978 -8.8622,6.08385 -15.7379,14.76766 -22.3768,23.21947 -3.087,3.93063 -6.1845,8.01848 -8.0223,12.66621 -1.1054,2.79842 -3.7428,6.66865 -1.6893,8.86597 3.1944,3.41773 9.3904,-0.56946 13.9327,-1.68921 4.2384,-1.04402 7.9504,-3.85394 12.2444,-4.6439 0.8302,-0.15243 2.5328,0 2.5328,0 0,0 0.4104,3.85394 -0.4218,5.4885 -2.2654,4.44832 -8.3789,5.7368 -11.3998,9.71057 -2.6287,3.45896 -4.5518,7.57941 -5.4885,11.82161 -0.4851,2.19923 -1.8081,5.41276 0,6.75876 5.0763,3.76861 12.1428,-3.53373 18.1547,-5.4885 9.354,-3.04288 18.311,-7.37232 27.8692,-9.71057 13.2615,-3.24612 27.1309,-3.3209 40.5334,-5.91128 4.1223,-0.79667 8.5822,-0.90213 12.2444,-2.95564 2.7773,-1.55787 4.5039,-4.50393 6.7587,-6.75877 2.3929,-2.39289 4.5519,-5.04462 7.1777,-7.17771 3.3938,-2.75623 6.7876,-5.92949 10.978,-7.17771 3.2375,-0.96828 6.9054,0.99608 10.1334,0 3.5807,-1.10441 6.057,-4.4349 9.2887,-6.33311 1.8992,-1.11591 3.8635,-2.14075 5.9113,-2.95564 5.8748,-2.33728 12.1888,-3.39759 18.1547,-5.4885 3.5759,-1.253 7.6455,-1.79466 10.5552,-4.22207 5.4866,-4.57774 7.8612,-11.94719 11.3998,-18.15471 7.9168,-13.8895 13.2452,-29.23621 21.9549,-42.64253 11.9971,-18.46916 26.8817,-34.92987 41.3771,-51.50946 7.798,-8.91773 20.4383,-14.62194 24.4878,-25.7552 0.7717,-2.12063 0.3327,-4.62952 -0.4218,-6.75877 -1.2157,-3.42252 -4.3678,-5.80966 -6.3331,-8.86596 -2.2856,-3.55291 -3.0976,-8.26199 -6.3331,-10.97796 -1.2617,-1.0584 -3.0947,-1.1303 -4.6439,-1.68921 -3.9364,-1.41886 -8.0262,-2.46096 -11.8216,-4.22207 -14.7591,-6.84601 -28.2085,-16.22104 -42.2208,-24.48782 -6.3609,-3.75327 -13.0295,-7.05117 -18.9993,-11.39979 -2.4187,-1.76207 -6.7587,-5.91128 -6.7587,-5.91128 0,0 5.0532,-10.43917 6.3331,-16.04368 1.2875,-5.64093 2.0266,-11.57138 1.2664,-17.31394 -0.3921,-2.9566 -1.5186,-5.83075 -2.9556,-8.44414 -3.7178,-6.75876 -10.1641,-11.6778 -14.3555,-18.15471 -10.7718,-16.64765 -19.7106,-34.52243 -27.4434,-52.77589 -5.5547,-13.11392 -11.0873,-26.49819 -13.508,-40.53341 -2.3708,-13.73227 -2.1474,-27.92664 -0.8446,-41.79888 0.256,-2.72076 -0.7113,-6.72042 1.6892,-8.02232 1.7218,-0.93664 3.6325,1.48022 5.4885,2.11103 3.7524,1.27506 7.7463,1.83685 11.3998,3.37747 3.7149,1.56746 9.9666,1.91738 10.5552,5.91128 0.7995,5.41564 -8.5851,7.1269 -11.3998,11.82161 -2.5856,4.31314 -3.8635,9.38749 -4.6439,14.35542 -0.9213,5.83842 -1.5981,12.04211 0,17.73289 1.8273,6.50663 6.6773,11.77559 10.5552,17.31394 2.5856,3.69 6.9524,6.30339 8.4441,10.55518 0.9319,2.65653 -2.3708,6.92749 0,8.44414 3.3948,2.17239 7.9284,-2.43124 10.978,-5.06668 2.924,-2.5271 5.6927,-5.89977 6.3331,-9.71057 0.673,-4.0054 -2.459,-7.79031 -2.9556,-11.8216 -0.464,-3.77149 -2.9547,-9.01073 0,-11.39979 1.5674,-1.26643 4.3821,-0.046 5.9112,1.26643 3.3114,2.84444 4.1128,7.91111 4.6439,12.24439 0.7248,5.90841 -4.3678,12.22426 -2.111,17.73289 0.6836,1.66812 2.5396,2.73131 4.2221,3.37747 2.2376,0.85898 4.8318,0.92609 7.1777,0.42182 3.2615,-0.70176 6.033,-2.88566 8.866,-4.64389 5.4741,-3.40527 11.4227,-6.50855 15.6218,-11.39979 2.7879,-3.24804 4.9957,-7.21797 5.9113,-11.39978 0.6327,-2.89524 0.6011,-6.09056 -0.4218,-8.86597 -1.9088,-5.17692 -7.1969,-8.41729 -10.1334,-13.08899 -1.6748,-2.6642 -4.5049,-5.31018 -4.2221,-8.44414 0.1266,-1.40161 1.1591,-3.0726 2.5329,-3.37747 2.3354,-0.51865 4.6286,1.6988 6.3331,3.37747 8.7049,8.57644 7.3196,25.69193 17.7329,32.08831 3.3602,2.06406 8.2351,2.05927 11.8216,0.42183 5.0983,-2.3277 7.867,-8.16996 10.5552,-13.089 2.9882,-5.46741 1.8838,-12.97874 5.9113,-17.73289 1.7496,-2.06597 5.7157,-1.52144 7.1777,-3.80025 2.6642,-4.15208 1.7697,-9.93106 0.8446,-14.77724 -2.0066,-10.51491 -8.4375,-19.70683 -13.508,-29.13267 -7.9964,-14.85682 -17.6178,-28.77988 -26.5988,-43.06532 -2.2232,-3.53661 -5.3351,-6.62646 -6.7588,-10.55517 -1.9269,-5.33511 -0.8273,-11.3624 -2.111,-16.88829 -0.9769,-4.20481 -2.8051,-8.16612 -4.2221,-12.24439 -0.9788,-2.81663 -3.5654,-5.52493 -2.9556,-8.44414"
       id="path921"
       inkscape:connector-curvature="0" />
    <path
       inkscape:connector-curvature="0"
       id="path923"
       d="m 1383.3889,507.44277 c -0.8849,1.62211 0.1697,3.69383 0.1735,5.54123 0,2.13692 -0.4285,4.2863 -0.1735,6.40788 0.3144,2.61435 1.6144,5.02833 2.0784,7.61967 0.3471,1.93943 0.7171,3.92776 0.5196,5.88828 -0.2234,2.21745 -1.5607,4.20577 -1.9049,6.40788 -0.8389,5.36195 0.9261,11.00289 -0.3461,16.27856 -0.5263,2.18389 -1.9116,4.06676 -2.9441,6.06083 -0.6059,1.17057 -1.5339,2.19924 -1.9049,3.46375 -0.7171,2.44274 -0.9338,5.1079 -0.5196,7.61967 0.2444,1.48118 0.6595,3.10616 1.7313,4.15592 1.2406,1.21562 3.1148,1.80809 4.8491,1.90492 1.5521,0.0863 3.1829,-0.39211 4.503,-1.21179 3.2653,-2.02954 5.4722,-5.47028 7.6196,-8.65697 2.74,-4.06868 4.387,-8.77393 6.5805,-13.16185 1.6163,-3.2327 3.9642,-6.19314 4.849,-9.69811 0.9185,-3.64015 1.0508,-7.56886 0.3461,-11.25694 -0.4362,-2.28551 -1.6422,-4.37258 -2.7706,-6.40788 -1.4284,-2.57696 -3.3832,-4.82221 -5.0226,-7.27358 -2.1829,-3.25955 -4.0159,-6.75877 -6.4079,-9.87068 -0.997,-1.29614 -1.8847,-2.80225 -3.2902,-3.63631 -1.276,-0.75736 -2.8473,-0.95677 -4.3294,-1.03922 -0.929,-0.0518 -1.8906,0.0422 -2.7706,0.34609 -0.3183,0.11025 -0.7047,0.22433 -0.8657,0.51961"
       style="fill:#ffffff;stroke-width:0.95868999" />
    <path
       inkscape:connector-curvature="0"
       id="path925"
       d="m 1146.9951,299.11944 c 0.6816,0.78516 1.7525,1.45912 2.7898,1.39489 2.0918,-0.13038 4.0562,-1.75153 5.2306,-3.48676 1.2655,-1.86848 0.927,-4.41764 1.3949,-6.6255 2.3133,-10.92907 3.1253,-22.28955 6.9745,-32.77761 4.1396,-11.27803 11.046,-21.34907 17.0867,-31.73264 4.6228,-7.94467 8.8171,-16.25747 14.6459,-23.36424 3.6507,-4.45024 9.7959,-6.80382 12.5492,-11.85612 0.907,-1.66045 1.8225,-3.85393 1.046,-5.57957 -0.5561,-1.23671 -2.136,-1.9797 -3.4877,-2.09186 -3.4849,-0.29049 -6.7588,2.04201 -9.7643,3.83476 -9.4162,5.62655 -17.9045,12.99887 -25.1081,21.27333 -6.4165,7.36945 -11.8427,15.77812 -15.6928,24.75913 -4.3428,10.13143 -5.7713,21.2925 -8.0204,32.08256 -1.1514,5.53835 -2.5875,11.08533 -2.7898,16.73872 -0.1342,3.73314 0.2761,7.50367 1.046,11.15916 0.4544,2.15801 0.6471,4.61034 2.0918,6.27654"
       style="fill:#ffffff;stroke-width:0.95868999" />
    <path
       inkscape:connector-curvature="0"
       id="path927"
       d="m 1387.6167,250.30294 c 5.0024,-0.58384 9.8659,-2.48972 14.2979,-4.88165 3.4983,-1.88862 6.9198,-4.22782 9.4153,-7.32343 2.0238,-2.50889 3.4695,-5.57478 4.1847,-8.71449 0.7219,-3.17327 1.2003,-6.73959 0,-9.76426 -0.9999,-2.52232 -3.5069,-4.17606 -5.5796,-5.92854 -1.6001,-1.35271 -3.3362,-2.59134 -5.2306,-3.48676 -2.5262,-1.19452 -5.2441,-2.12541 -8.0204,-2.44082 -3.3573,-0.38156 -6.7684,0.19557 -10.1132,0.69697 -3.5414,0.53207 -6.9179,1.92696 -10.4613,2.44082 -1.9586,0.28377 -4.269,1.42749 -5.9285,0.34896 -0.8321,-0.54166 -1.5636,-1.9423 -1.0459,-2.78978 1.5866,-2.59614 6.1864,-0.0671 9.0663,-1.04593 1.2837,-0.43621 2.6901,-0.99608 3.4868,-2.09187 0.9117,-1.25396 1.4054,-3.02466 1.0459,-4.53364 -0.4209,-1.76591 -2.1504,-2.95564 -3.4868,-4.18468 -2.089,-1.91738 -5.476,-2.47246 -6.9744,-4.88165 -0.8073,-1.29807 -1.1735,-3.08027 -0.697,-4.53365 0.3068,-0.9376 1.4984,-1.30477 2.0919,-2.09186 2.1618,-2.86648 4.9717,-5.83459 5.2306,-9.41529 0.2607,-3.59605 -1.7295,-7.18634 -3.8348,-10.11322 -1.927,-2.68146 -4.6151,-5.02162 -7.6695,-6.27655 -3.4561,-1.41886 -7.427,-0.87145 -11.1592,-1.04593 -4.5288,-0.21187 -9.1881,-1.04114 -13.5999,0 -1.5176,0.35855 -2.8224,1.33258 -4.1847,2.09186 -2.507,1.39873 -4.6775,5.6486 -7.3235,4.53365 -0.9874,-0.41607 -1.0162,-2.11487 -0.6969,-3.13875 0.6605,-2.12063 4.1406,-2.43987 4.8816,-4.53365 0.8226,-2.32482 -1.0459,-7.32343 -1.0459,-7.32343 0,0 4.4176,0.69505 6.6255,1.04593 2.9048,0.46209 5.7809,1.2137 8.7145,1.39489 3.2509,0.20037 6.5076,-0.29048 9.7643,-0.34896 2.4408,-0.0441 5.36,-1.4505 7.3234,0 1.2722,0.93952 0.1227,3.59413 1.3949,4.53365 1.2156,0.89733 3.5097,1.11208 4.5336,0 0.9482,-1.02964 0.2598,-2.92401 -0.3489,-4.18469 -1.1792,-2.4437 -4.6113,-3.20681 -5.9286,-5.57957 -0.8628,-1.555 -0.6682,-3.49347 -1.0459,-5.23061 -0.4314,-1.98353 -0.095,-4.36875 -1.3949,-5.92854 -3.899,-4.67841 -10.6779,-6.72042 -16.7387,-7.32344 -2.7227,-0.27131 -5.5115,0.65383 -8.0204,1.74386 -1.6854,0.73244 -3.2452,1.82726 -4.5337,3.13875 -1.1753,1.19549 -1.113,4.17222 -2.7898,4.18468 -2.2567,0.0163 -1.9519,-4.33711 -3.8347,-5.57957 -0.9894,-0.65287 -2.3306,-0.43716 -3.4868,-0.69697 -3.2729,-0.73627 -6.4155,-2.23854 -9.7642,-2.44082 -1.8714,-0.11313 -3.7955,0.12271 -5.5796,0.69696 -4.1588,1.34025 -8.0089,3.65932 -11.5043,6.27655 -2.1062,1.57608 -3.1177,4.65444 -5.5796,5.57957 -1.6355,0.61452 -5.2306,-0.34896 -5.2306,-0.34896 0,0 -1.1188,-6.04454 0.697,-8.0204 2.3152,-2.51848 6.8767,-0.6337 10.1132,-1.74386 1.8695,-0.64136 3.922,-1.30957 5.2306,-2.78979 1.0728,-1.21274 2.4341,-3.06876 1.7439,-4.53364 -0.9415,-1.99408 -4.1368,-1.56075 -6.2766,-2.09186 -2.0583,-0.51098 -4.1607,-1.19549 -6.2765,-1.04593 -2.3105,0.16297 -4.6458,0.89062 -6.6255,2.09186 -1.5454,0.93856 -2.8406,2.32674 -3.8348,3.83476 -0.6893,1.04497 -0.1812,3.17997 -1.3949,3.48675 -1.7601,0.44484 -2.646,-2.52327 -4.1847,-3.48675 -4.5403,-2.84539 -9.2877,-6.59771 -14.6459,-6.62551 -6.3494,-0.0326 -11.997,4.39559 -17.4385,7.66952 -3.0477,1.83589 -6.4079,3.65644 -8.3694,6.62551 -2.1916,3.31802 -1.8752,7.73663 -3.1387,11.50428 -0.3979,1.18686 -1.3949,3.48675 -1.3949,3.48675 0,0 -0.3548,-5.29005 -1.3949,-7.66952 -1.1629,-2.66324 -2.8243,-5.34565 -5.2306,-6.97447 -2.5914,-1.7544 -6.0513,-1.60388 -9.0664,-2.44082 -1.6307,-0.4525 -3.1905,-1.45433 -4.8816,-1.3949 -4.0793,0.14381 -8.2678,1.70264 -11.5043,4.18469 -5.2987,4.05909 -8.2994,10.536 -11.5043,16.3936 -1.0267,1.87423 -1.3728,4.0773 -2.4408,5.92853 -0.953,1.65183 -1.8369,3.57975 -3.4877,4.53365 -1.5234,0.88008 -3.5548,1.23288 -5.2306,0.69697 -2.2721,-0.72573 -3.0314,-3.95939 -5.2307,-4.88165 -2.4676,-1.03539 -5.3744,-0.74778 -8.0204,-0.34897 -3.4177,0.51578 -6.9025,1.54925 -9.7642,3.48676 -2.182,1.4783 -4.2441,3.48484 -5.2306,5.92854 -1.9605,4.85481 -0.6951,10.45643 -0.697,15.6928 0,2.6757 0.349,8.0204 0.349,8.0204 0,0 -4.8711,-0.69218 -7.3235,-0.69697 -3.8539,-0.009 -7.8545,-0.17448 -11.5042,1.04593 -2.7227,0.9098 -5.5336,2.28839 -7.3235,4.53364 -2.9106,3.6507 -3.8951,8.6263 -4.5336,13.25102 -0.5724,4.15208 -1.0134,8.72791 0.6969,12.54925 1.2751,2.85114 6.6256,6.62551 6.6256,6.62551 0,0 -2.5837,2.6479 -4.1847,2.44082 -1.7937,-0.232 -2.0507,-3.54619 -3.8348,-3.83476 -2.5654,-0.41607 -4.8126,2.03818 -6.9745,3.48676 -2.0516,1.37763 -4.1626,2.85785 -5.5795,4.88165 -2.2156,3.16559 -4.1128,6.94666 -4.1847,10.81018 -0.066,3.56537 1.6633,7.04925 3.4867,10.11323 0.9683,1.62593 3.8214,2.29222 3.8348,4.18468 0.01,1.39968 -1.9663,2.00654 -2.7898,3.13875 -1.3489,1.85315 -2.9259,3.70534 -3.4877,5.92854 -0.7689,3.0448 0.117,6.28325 0.349,9.41529 0.2329,3.1493 0.5455,6.29764 1.0459,9.4153 0.3576,2.22895 1.8062,4.40614 1.3949,6.6255 -0.4295,2.31428 -3.0851,3.69767 -3.8348,5.92854 -1.972,5.85472 -1.5713,12.30671 -1.3949,18.48259 0.2014,7.03295 1.161,14.07836 2.7898,20.92341 0.6558,2.75335 1.2386,5.65339 2.7898,8.0204 1.1274,1.71989 2.5568,3.61617 4.5337,4.18468 1.8186,0.52344 4.2939,0.34321 5.5795,-1.04593 2.9375,-3.17518 0.8907,-8.60616 1.3949,-12.90301 1.0786,-9.19288 1.8848,-18.43273 3.4868,-27.54892 1.9174,-10.91468 4.1549,-21.81115 7.3234,-32.43056 4.0802,-13.67572 8.6052,-27.34184 14.9949,-40.10296 5.0101,-10.00393 10.6414,-19.93405 18.1336,-28.24589 8.47,-9.39995 18.6024,-17.52869 29.6408,-23.71319 11.6442,-6.52293 24.6824,-10.48616 37.6573,-13.59998 8.2016,-1.96723 16.6803,-3.48676 25.1081,-3.13875 14.1225,0.5848 28.684,2.75144 41.5017,8.71449 16.0629,7.4797 29.334,20.23795 41.8468,32.77761 8.9484,8.97238 13.4696,22.06904 23.3643,29.98782 5.3188,4.25563 11.9146,6.91024 18.4825,8.7145 3.4906,0.95869 7.2142,1.46583 10.8102,1.04593"
       style="fill:#ffffff;stroke-width:0.95868999" />
    <path
       inkscape:connector-curvature="0"
       id="path929"
       d="m 1390.8954,154.18468 c -1.9174,-0.093 -3.9498,-0.48126 -5.7617,0.15531 -2.0276,0.71231 -3.5194,2.48205 -5.1396,3.8942 -0.6087,0.53111 -1.3853,0.97499 -1.7131,1.71318 -0.8235,1.85314 -0.6203,4.07059 -0.3116,6.07426 0.4295,2.79266 2.1225,5.24499 2.9595,7.9437 0.5704,1.83973 1.6556,3.69767 1.4016,5.60738 -0.2665,2.00462 -2.2827,3.38993 -2.9595,5.2958 -0.7056,1.98641 -1.4908,4.16072 -1.09,6.23053 0.3365,1.74002 1.6806,3.14642 2.8032,4.51735 1.4438,1.76111 3.2566,3.1886 4.9842,4.67265 1.4026,1.20412 2.5961,2.87607 4.3611,3.42636 2.4331,0.75928 5.0973,-0.73436 7.6321,-0.46688 2.8953,0.30486 5.6697,1.35942 8.4106,2.33633 2.1897,0.78037 4.4244,1.55691 6.3858,2.8032 1.8628,1.18399 3.529,2.70159 4.9843,4.36109 1.3575,1.54828 2.7351,3.2001 3.4263,5.13953 0.5426,1.52336 0.6069,3.21737 0.4669,4.8318 -0.2195,2.52231 -1.2156,4.92191 -2.0247,7.32056 -0.7143,2.11966 -2.3642,3.99678 -2.4926,6.23052 -0.1017,1.77262 0.4295,3.65453 1.4016,5.13954 1.4965,2.28648 4.1262,3.60372 6.3858,5.13954 1.8273,1.2415 3.6526,2.61914 5.7617,3.27105 2.9863,0.92322 6.2823,1.40064 9.3453,0.77845 2.299,-0.46592 4.2787,-1.9701 6.2306,-3.27105 1.9643,-1.30861 4.2422,-2.49067 5.4511,-4.51734 1.3565,-2.27306 1.461,-5.14242 1.5578,-7.78744 0.092,-2.50985 -0.01,-5.1405 -0.9347,-7.47587 -0.7794,-1.9701 -2.0286,-3.88844 -3.7379,-5.13953 -1.9874,-1.45434 -4.6573,-1.60485 -7.009,-2.33633 -2.3219,-0.7219 -5.1395,-0.4688 -7.009,-2.02475 -0.4458,-0.37102 -1.0239,-1.03156 -0.7784,-1.55788 0.5637,-1.20986 2.7102,-0.31732 3.8942,-0.93472 1.6623,-0.86761 3.3583,-2.06502 4.2057,-3.73793 0.7536,-1.48885 0.4247,-3.31611 0.4669,-4.98423 0.062,-2.44178 0.4659,-5.00532 -0.3115,-7.32056 -0.5225,-1.55595 -1.602,-2.93071 -2.8033,-4.0495 -2.1637,-2.01421 -4.8222,-3.59893 -7.6321,-4.51735 -2.0334,-0.66437 -4.2499,-0.51865 -6.3858,-0.62315 -2.8004,-0.13613 -5.6707,0.59343 -8.4106,0 -1.2262,-0.26556 -2.3277,-0.95198 -3.4264,-1.55787 -1.577,-0.86857 -2.9892,-2.0075 -4.5173,-2.95948 -1.3824,-0.86186 -3.9632,-0.88103 -4.2058,-2.49259 -0.115,-0.76312 0.9242,-1.27218 1.5579,-1.71318 1.6997,-1.1859 4.4675,-0.71902 5.7617,-2.33633 0.5925,-0.73915 0.4046,-1.85794 0.4669,-2.80321 0.1026,-1.55499 0.2339,-3.16367 -0.1553,-4.67265 -0.6855,-2.6527 -2.0794,-5.1405 -3.7379,-7.32056 -2.0469,-2.69008 -4.6142,-5.05421 -7.4759,-6.85367 -2.367,-1.48789 -5.0801,-2.41686 -7.7875,-3.11479 -0.811,-0.20899 -1.6556,-0.27035 -2.4925,-0.31157"
       style="fill:#ffffff;stroke-width:0.95868999" />
    <path
       inkscape:connector-curvature="0"
       id="path931"
       d="m 1278.2493,221.70522 c -0.9347,0.0451 -1.8617,0.24063 -2.7562,0.59918 -1.3067,0.52344 -2.1973,1.98449 -2.5166,3.35541 -0.5205,2.23088 0.3509,4.66691 1.2588,6.76836 2.274,5.27375 6.6428,9.36544 10.1266,13.93072 3.8262,5.01491 7.2535,10.43246 11.8341,14.76958 2.6374,2.49739 5.7522,4.47804 8.8679,6.35132 1.0785,0.64903 2.8598,0.53399 3.3851,1.67771 0.2426,0.52728 -0.012,1.26451 -0.4199,1.6777 -1.5329,1.55692 -4.5173,0.52057 -6.3513,1.70743 -2.4351,1.57705 -3.7734,4.39655 -5.4827,6.73959 -15.3372,21.03941 -30.4308,42.46038 -42.633,65.45935 -16.1683,30.47964 -27.337,63.36941 -40.1154,95.41842 -2.9528,7.40588 -6.7885,14.58168 -8.448,22.37966 -0.4995,2.344 0.8638,5.1357 -0.4199,7.16046 -5.6659,8.93594 -18.3685,10.55517 -27.8595,15.2192 -13.5176,6.63797 -28.9333,9.65401 -41.3771,18.15567 -1.4792,1.01046 -2.8626,2.251 -3.805,3.77532 -1.1696,1.89246 -1.7448,4.1588 -2.1274,6.35132 -2.0333,11.64905 -0.9989,23.64705 -0.8388,35.47153 0.3001,22.12657 2.5309,44.15726 3.3851,66.26466 0.2071,5.34565 0.4832,10.70856 0.4199,16.05805 -0.034,2.81759 -0.4199,8.44894 -0.4199,8.44894 0,0 5.8298,2.12925 8.8679,2.09761 6.6907,-0.0719 13.042,-3.02275 19.4135,-5.06284 7.891,-2.52711 15.6333,-5.53356 23.2194,-8.86788 2.0162,-0.88679 4.5231,-1.24726 5.9017,-2.96619 2.1791,-2.71597 2.1475,-6.66769 2.5463,-10.12664 1.0479,-9.08838 0.092,-18.31098 -0.4199,-27.4425 -0.2454,-4.37642 -0.5531,-8.76626 -1.2587,-13.09187 -0.302,-1.85315 -1.2885,-5.48275 -1.2885,-5.48275 0,0 5.6927,9.79014 7.1902,15.18948 2.2673,8.17763 2.0937,16.86911 2.5165,25.34585 0.4554,9.13631 -4.965,19.75956 0,27.4425 5.9487,9.20534 19.4394,10.53984 29.9878,13.50794 25.9422,7.30714 53.3377,8.33773 80.2328,10.12664 19.6599,1.30766 39.4213,-0.30678 59.1128,0.41991 8.4576,0.31157 17.4386,-1.38051 25.3152,1.70743 3.5404,1.38722 8.2351,3.41102 8.8679,7.16045 1.0191,6.04646 -6.1107,10.6731 -9.7068,15.63911 -7.9695,11.00385 -17.196,21.02887 -26.1847,31.21783 -5.336,6.04933 -9.8917,13.03626 -16.4511,17.73576 -3.6353,2.60572 -7.8469,4.74552 -12.253,5.51247 -3.6152,0.6289 -7.2995,-1.05744 -10.9655,-0.86857 -3.1426,0.16201 -7.2707,-0.70848 -9.2878,1.70742 -2.2548,2.70159 -0.6001,7.07897 0,10.54559 0.3567,2.06119 1.74,3.84435 2.0976,5.9017 0.4803,2.77349 0,8.44893 0,8.44893 0,0 -4.803,-1.3738 -7.1901,-2.09761 -2.2578,-0.68451 -4.4244,-1.68154 -6.7396,-2.12733 -1.8024,-0.34609 -3.7073,-0.88296 -5.4828,-0.41991 -0.9817,0.25693 -2.0132,0.84461 -2.5463,1.70743 -2.3861,3.86352 -2.2011,9.00305 -1.6777,13.50794 0.6059,5.21911 3.0237,10.12568 5.4828,14.76958 3.6363,6.86805 6.5382,15.56433 13.5079,18.99452 3.2864,1.61635 7.5305,0.85036 10.9655,-0.4199 4.0409,-1.49364 6.6725,-5.49522 10.1564,-8.02903 3.6929,-2.68625 7.2697,-5.62751 11.3844,-7.61008 3.3286,-1.60293 7.4049,-1.41024 10.5456,-3.35542 6.0072,-3.72068 10.7335,-9.44022 14.8003,-15.2192 12.3498,-17.55458 17.7261,-39.13277 28.2813,-57.8186 7.9102,-14.00454 15.9728,-28.10879 26.1847,-40.53341 3.7284,-4.53652 9.5428,-7.28413 12.6729,-12.25302 0.9492,-1.5061 1.3413,-3.31515 1.6778,-5.06284 0.4534,-2.35358 0.9836,-4.86056 0.4199,-7.19017 -0.8466,-3.49539 -3.5079,-6.28134 -5.4828,-9.28779 -2.1024,-3.20011 -4.0524,-6.59196 -6.7683,-9.28779 -1.7199,-1.70455 -3.7456,-3.12341 -5.9017,-4.22399 -20.4939,-10.46123 -43.7192,-14.342 -65.4306,-21.95975 -18.5277,-6.50088 -36.5645,-14.48581 -55.3347,-20.24754 -4.4377,-1.36325 -9.6731,-0.7727 -13.5079,-3.38513 -2.0017,-1.3623 -4.7129,-3.53661 -4.1943,-5.9017 0.2426,-1.10824 1.951,-1.11495 2.9365,-1.6777 1.9701,-1.12551 4.6496,-1.49268 5.9017,-3.38514 1.3287,-2.00941 0.5723,-4.80303 0.8686,-7.19017 0.4017,-3.23942 1.2674,-6.4424 1.2587,-9.70674 -0.01,-3.12533 -1.8157,-6.21231 -1.2587,-9.28779 0.37,-2.04488 1.6412,-3.85393 2.9364,-5.48275 0.9328,-1.1696 2.0037,-3.53852 3.3852,-2.96618 1.9547,0.81009 0.2579,4.2422 0.4199,6.35132 0.4975,6.47883 1.4256,12.92122 1.7074,19.41347 0.1889,4.35916 -1.5943,9.03086 0,13.09187 0.9827,2.50314 3.2701,4.37355 5.4828,5.9017 10.1266,6.99748 22.858,9.10851 34.183,13.93072 5.1012,2.17239 9.9455,5.05997 15.2192,6.76835 4.5164,1.46488 9.7748,5.23062 13.9307,2.93647 2.4945,-1.37764 2.4361,-5.19322 2.9365,-7.99931 0.4947,-2.77061 0,-5.63326 0,-8.44893 0,-3.65932 0.9712,-7.46724 0,-10.99522 -2.0439,-7.42314 -7.5296,-13.43125 -11.8043,-19.83338 -4.1876,-6.27462 -9.8285,-11.57139 -13.508,-18.15567 -1.4802,-2.64598 -2.4792,-5.55561 -3.3851,-8.44893 -0.5618,-1.7918 -1.2588,-5.48275 -1.2588,-5.48275 0,0 7.218,9.90998 10.9655,14.76958 3.3017,4.28151 6.1826,8.97333 10.1267,12.67292 2.506,2.35071 5.0177,6.08768 8.4489,5.90169 1.4936,-0.0805 2.6306,-1.64415 3.3851,-2.93646 1.74,-2.97961 1.4831,-6.75877 2.0976,-10.15636 0.6596,-3.64303 1.4256,-7.27359 1.7075,-10.9655 0.2463,-3.22791 0.6039,-6.52676 0,-9.70674 -0.9309,-4.9037 -3.8204,-9.22355 -5.4828,-13.93072 -4.8605,-13.76775 -9.0222,-27.80201 -13.0919,-41.82285 -5.1577,-17.76932 -11.9376,-35.25199 -14.3506,-53.59653 -2.0554,-15.6276 0.6049,-31.55432 0,-47.30176 -0.1409,-3.66699 1.0603,-7.84304 -0.8686,-10.9655 -1.7256,-2.79266 -5.8786,-3.02083 -8.4489,-5.06284 -4.4406,-3.53085 -9.2111,-7.20743 -11.8043,-12.25302 -3.923,-7.63596 -4.6947,-16.76077 -4.6439,-25.34584 0.039,-6.59675 1.5828,-13.20212 3.805,-19.41347 1.3997,-3.91338 4.1674,-7.18826 5.9017,-10.9655 0.8178,-1.78125 1.6202,-3.58071 2.0976,-5.48275 0.2761,-1.10057 -0.3739,-2.60476 0.4496,-3.38513 1.4333,-1.35943 5.9017,-0.41991 5.9017,-0.41991 0,0 0.8945,2.89524 0.4199,4.22399 -0.8695,2.43699 -4.0054,3.35829 -5.4827,5.48275 -2.1216,3.05055 -3.5136,6.5862 -4.6439,10.12664 -1.8301,5.73201 -3.4599,11.71903 -3.3851,17.73576 0.066,5.32744 1.8272,10.51396 3.3851,15.60844 1.5512,5.07338 2.4773,10.74787 5.9017,14.80025 6.2794,7.42889 16.3744,10.55518 24.9259,15.18949 6.3082,3.42156 13.0756,5.92183 19.4135,9.28779 4.178,2.2184 12.2233,7.19017 12.2233,7.19017 0,0 -3.9565,2.49259 -5.4827,4.22399 -5.7119,6.48458 -10.514,14.13205 -13.0919,22.37966 -1.0948,3.50305 -1.4917,7.35411 -0.8389,10.96549 0.7737,4.2748 2.763,8.4451 5.4828,11.83407 1.8848,2.34879 5.5863,2.9336 7.1902,5.48275 1.8378,2.92017 -0.5417,7.90344 2.0976,10.12664 3.1234,2.63065 9.6156,3.54141 12.253,0.41991 2.6872,-3.18573 -2.252,-8.09422 -2.5166,-12.25302 -0.3039,-4.78961 0.5752,-9.58114 1.1083,-14.35063 0.3633,-3.25091 -1.4352,-8.08846 1.4083,-9.70673 2.2491,-1.27985 5.4329,1.06702 7.1902,2.96618 3.4158,3.69192 3.8635,9.3827 4.6439,14.35063 0.7238,4.58734 -0.9837,9.39229 0,13.93073 0.7199,3.32378 1.1178,7.90344 4.2239,9.28779 2.5617,1.14084 5.5595,-1.16481 7.9993,-2.54628 5.7253,-3.24325 10.3405,-8.22365 14.8003,-13.06215 1.9078,-2.06982 4.1732,-4.10032 5.0628,-6.76836 0.7565,-2.27017 0.7191,-4.90849 0,-7.19017 -1.5492,-4.9152 -5.8748,-8.44702 -8.8678,-12.6432 -2.2242,-3.11671 -3.0352,-8.44702 -6.7684,-9.28779 -1.7208,-0.38731 -2.8856,2.68816 -4.6439,2.51656 -1.0938,-0.10738 -2.505,-0.998 -2.5165,-2.09762 -0.045,-4.28917 6.2247,-5.94292 9.7067,-8.44893 4.5058,-3.24229 14.3506,-8.44894 14.3506,-8.44894 0,0 2.6125,7.69828 4.224,11.41417 2.7543,6.35228 3.3976,14.93447 9.2878,18.57462 0.2397,0.14763 0.5848,-0.12176 0.8389,0 4.2441,2.02763 4.3304,9.72686 8.8678,10.96549 2.3201,0.63274 4.9929,-0.92705 6.7684,-2.54628 3.8146,-3.47717 5.4003,-8.94649 6.7396,-13.93072 0.9893,-3.67945 0,-7.66761 0.8388,-11.38445 0.3452,-1.52815 0.3998,-3.51168 1.7075,-4.3745 1.2894,-0.85036 3.108,0.31253 4.6439,0.14956 1.7313,-0.18311 3.9354,0.0681 5.0628,-1.25876 1.0977,-1.29136 0.7679,-3.40431 0.4199,-5.06285 -2.669,-12.69497 -12.0133,-23.01814 -18.5746,-34.21372 -7.0694,-12.05937 -15.2211,-23.4649 -22.3797,-35.47153 -2.646,-4.43778 -4.4866,-9.39421 -7.6101,-13.50795 -0.9586,-1.26834 -3.3554,-3.35541 -3.3554,-3.35541 0,0 2.5166,-5.79049 2.5166,-8.86788 0,-3.07356 -1.208,-6.08673 -2.5166,-8.86789 -2.5424,-5.40413 -6.6092,-9.99434 -10.1563,-14.80025 -3.0937,-4.19139 -5.6237,-8.98868 -9.7068,-12.2233 -2.0727,-1.64224 -4.5796,-2.80896 -7.1604,-3.38513 -2.1973,-0.49085 -4.6008,-0.6011 -6.7684,0 -2.3727,0.6567 -4.0974,2.74952 -6.3216,3.80504 -3.3784,1.60293 -6.9534,2.87415 -10.5743,3.80504 -3.7734,0.96827 -7.6427,2.00462 -11.5331,1.82726 -5.128,-0.23296 -10.2397,-1.694 -14.9201,-3.80504 -4.8624,-2.19348 -9.1449,-5.5652 -13.2117,-9.01744 -3.2633,-2.76965 -5.9381,-6.16629 -8.8679,-9.28779 -1.7045,-1.81576 -2.6344,-4.93342 -5.0628,-5.48275 -2.2174,-0.50139 -4.7139,0.93952 -6.3513,2.51657 -0.998,0.95869 -1.6106,2.42069 -1.6777,3.80504 -0.064,1.33353 0.348,2.82813 1.2587,3.80504 3.0113,3.23174 8.8152,2.29031 12.2531,5.06284 3.4637,2.79458 5.3581,7.1384 7.5794,10.99521 1.3201,2.29127 2.7015,4.60651 3.3851,7.16046 0.7324,2.73323 0.719,8.47865 0.719,8.47865 0,0 -2.761,-2.76006 -4.524,-3.41581 -1.9836,-0.73723 -4.6094,0.82448 -6.3216,-0.4199 -1.2262,-0.89063 -1.8762,-2.72172 -1.6778,-4.22399 0.1841,-1.3949 1.7439,-2.1791 2.5166,-3.35542 0.6232,-0.94814 1.8388,-1.83876 1.7074,-2.96618 -0.3336,-2.8684 -3.6986,-4.49051 -5.9323,-6.32161 -7.0368,-5.77131 -14.9757,-10.52258 -23.2195,-14.38035 -9.2715,-4.33903 -19.1834,-7.23906 -29.1202,-9.70673 -4.0505,-1.00567 -8.4144,-3.31132 -12.463,-3.11574 m 132.2705,62.13557 c 1.3153,0.0278 2.622,0.15531 3.8951,0.44963 1.7899,0.41319 3.4062,1.36325 5.0331,2.21745 1.742,0.91459 4.0706,1.36996 5.0332,3.08602 0.5934,1.05743 0.7545,2.70638 0,3.65548 -0.7747,0.97403 -2.4591,1.18207 -3.6555,0.83886 -1.2674,-0.36335 -1.7736,-1.97107 -2.786,-2.81663 -1.1322,-0.94527 -2.2299,-2.03818 -3.6248,-2.51656 -1.5904,-0.5455 -3.4465,-0.73053 -5.0628,-0.2694 -1.0948,0.31158 -1.7333,1.51473 -2.786,1.9471 -3.063,1.25972 -6.4855,1.60197 -9.7968,1.67771 -1.5033,0.0345 -3.7092,0.7612 -4.4637,-0.53974 -0.6088,-1.04881 0.5628,-2.51656 1.4083,-3.38514 1.4256,-1.46679 3.6344,-1.86369 5.5729,-2.51656 2.3584,-0.79379 4.803,-1.43995 7.2803,-1.67771 1.3009,-0.12463 2.6393,-0.17735 3.9546,-0.14955 m -2.9662,16.5374 c 1.3556,-0.0585 2.7332,0.14093 4.0447,0.41991 0.8983,0.19078 1.7889,0.54741 2.5166,1.10824 0.4726,0.36431 0.9539,0.83982 1.1389,1.40832 0.6356,1.95285 0.5292,4.26233 -0.3001,6.14137 -0.4256,0.96827 -1.2003,1.96531 -2.2174,2.24717 -1.4822,0.41032 -3.0304,-0.63561 -4.4944,-1.10825 -1.9116,-0.61835 -4.3428,-0.68163 -5.6025,-2.24717 -1.0671,-1.32587 -1.4716,-3.4532 -0.8389,-5.03312 0.5206,-1.29807 2.0286,-2.07461 3.3554,-2.51656 0.7631,-0.25406 1.5838,-0.38444 2.3967,-0.41991"
       style="fill:#ffffff;stroke-width:0.95868999" />
    <path
       inkscape:connector-curvature="0"
       id="path933"
       d="m 1401.8724,576.07539 c -1.1907,-0.54262 -2.5952,-0.83885 -3.8808,-0.59726 -2.1474,0.40456 -3.9833,1.8982 -5.6725,3.28447 -3.3794,2.77349 -6.1098,6.29955 -8.657,9.85245 -1.741,2.42741 -3.0237,5.15296 -4.478,7.76252 -0.7152,1.28368 -1.7305,2.45616 -2.09,3.88077 -0.6816,2.70159 -1.3728,5.9343 0,8.35978 1.1437,2.01996 3.8261,2.69392 5.9707,3.58263 3.412,1.4131 7.1883,1.70455 10.7479,2.6872 4.3093,1.18974 8.541,2.64599 12.8378,3.88078 4.3621,1.25397 8.6953,2.63352 13.136,3.58263 3.1522,0.67395 6.6389,0.11791 9.5533,1.49268 3.251,1.5339 5.8864,4.3026 8.0607,7.16524 3.1503,4.14634 4.4493,9.42009 6.8661,14.03139 1.324,2.52519 2.7352,5.00532 4.1799,7.4634 0.7689,1.30957 2.4466,2.36317 2.3881,3.88078 -0.052,1.35271 -1.5339,2.23471 -2.3881,3.28447 -7.564,9.28491 -16.9582,17.01867 -24.1781,26.57105 -9.5438,12.6202 -17.8154,26.24606 -25.0794,40.30333 -6.1413,11.88872 -10.8178,24.49357 -15.524,37.01982 -1.6605,4.4186 -3.7217,8.77489 -4.4781,13.43124 -0.207,1.27698 -0.766,2.83868 0,3.88078 0.9884,1.34408 3.111,1.578 4.7772,1.49268 4.5413,-0.232 9.0289,-2.48301 12.5396,-5.37346 6.6898,-5.51055 10.097,-14.10712 14.6287,-21.49574 8.3138,-13.55588 14.3554,-28.44434 22.9884,-41.79697 7.1001,-10.98084 15.1387,-21.36537 23.5857,-31.34725 8.7759,-10.3711 18.3014,-20.10852 28.0609,-29.55641 1.7227,-1.6662 3.7715,-2.99399 5.3734,-4.77715 1.717,-1.90971 4.1588,-3.72164 4.4781,-6.26983 0.2387,-1.90684 -1.3719,-3.59126 -2.09,-5.37346 -0.9682,-2.40056 -1.4457,-5.08585 -2.9853,-7.16525 -1.7669,-2.38522 -4.3419,-4.1099 -6.8662,-5.67257 -3.3333,-2.06406 -7.1863,-3.13779 -10.7478,-4.77715 -4.2058,-1.93656 -8.4356,-3.82805 -12.5397,-5.97072 -9.4431,-4.93055 -18.7108,-10.21197 -27.7646,-15.82318 -6.522,-4.04184 -12.6538,-8.68573 -19.1067,-12.83782 -2.5549,-1.64319 -5.3016,-2.99399 -7.7625,-4.77715 -1.3729,-0.99416 -2.3392,-2.58175 -3.8808,-3.28447"
       style="fill:#ffffff;stroke-width:0.95868999" />
  </g>
  <path
     style="opacity:1;fill:none;fill-opacity:1;fill-rule:evenodd;stroke:#000000;stroke-width:11;stroke-linecap:round;stroke-linejoin:miter;stroke-miterlimit:4;stroke-dasharray:none;stroke-opacity:1;paint-order:fill markers stroke"
     d="m 5.5,5.5 v 570.81427 c 0,274.28498 207.70732,470.36273 465.71574,470.36273 258.00852,0 465.71929,-196.07775 465.71929,-470.36273 V 5.5 Z"
     id="rect953-1-5"
     inkscape:connector-curvature="0"
     sodipodi:nodetypes="cssscc" />
</svg>
