<svg enable-background="new 0 0 300 300" height="300" viewBox="0 0 300 300" width="300" xmlns="http://www.w3.org/2000/svg"><path d="m30.035 70.005c2.76-1.741 5.309-3.813 7.998-5.671 6.939-4.793 12.409-10.882 15.913-18.558.81-1.771 1.603-2.402 3.472-2.379 5.208.063 10.521.597 15.603-.235 10.765-1.762 20.768-5.959 30.235-11.372 7.45-4.257 15.356-6.846 24.015-7.107 7.609-.229 14.421 2.591 21.282 5.234 1.339.516 2.294.444 3.593-.06 5.82-2.262 11.65-4.634 17.962-5.116 10.898-.831 20.529 3.102 29.789 8.267 12.667 7.068 26.009 11.54 40.747 10.384 3.082-.242 5.152.367 6.363 3.606.66 1.762.367 2.227-1.181 2.308-3.787.197-7.55.828-11.359.604-1.802-.107-3.615-.019-5.422-.019-.012.272-.021.546-.029.819 5.529.584 10.92 2.514 16.651 1.178 2.342-.546 4.23-.024 5.665 2.19 1.252 1.932.656 2.391-1.307 2.382-4.397-.021-8.796-.007-13.193-.007.701.718 1.483 1.061 2.302 1.293 3.819 1.092 7.761.799 11.613.569 3.462-.207 5.916 1.015 8.293 3.939-5.553.71-10.891.009-16.229.416.309.78.883.934 1.466 1.066 4.39 1.001 8.826 1.604 13.326 1.214 3.612-.314 6.893.189 9.603 2.857.4.394 1.266.501 1.133 1.196-.12.633-.829.742-1.465.771-3.58.166-7.121.823-10.734.63-2.796-.148-5.606-.029-8.41-.029 7.532 3.349 15.359 2.305 23.115 2.25-.423 3.053-1.685 4.868-5.391 4.442-3.361-.387-6.803-.112-10.209-.062-.955.014-2.046-.349-3.218.633 4.751 1.601 9.268 1.903 13.854 1.785.789-.021 1.878-.443 2.188.917.473 2.079-1.249 4.374-3.426 4.396-3.876.041-7.749.011-11.771.011.555 1.06 1.39 1.015 2.122 1.268 2.88.993 5.987.051 8.837 1.114.896.333 2.967-.565 2.209 1.655-.58 1.697.393 4.612-3.12 4.412-2.682-.154-5.377-.031-8.066-.031 2.257 1.598 4.696 1.763 7.15 1.939 2.669.193 2.52 2.123 2.53 4.097.012 2.389-1.649 1.785-2.924 1.811-2.48.055-4.963.016-7.444.016-.002.251-.004.502-.004.753 2.451.609 4.921 1.237 7.483 1.086 2.617-.153 2.196 1.579 2.229 3.178.034 1.642.009 3.002-2.296 2.828-2.065-.158-4.151-.034-6.229-.034 2.188 1.957 4.809 1.531 7.109 2.376.63.232 1.228.066 1.189 1.205-.166 5.231-.104 5.232-5.283 5.454-.182.007-.358.104-.563.168.517.948 1.398 1.051 2.309.997 3.016-.176 3.27 1.623 3.24 4.042-.03 2.856-2.007 1.825-3.379 1.965-1.116.115-2.254.022-3.382.022 1.475 1.479 3.149 1.824 4.907 1.812 1.271-.009 1.683.561 1.784 1.813.31 3.817.146 4.052-3.7 4.096-.785.008-1.572.069-3.171.145 1.673.534 2.594 1.099 3.492 1.066 3.698-.128 3.521 2.285 3.401 4.805-.149 3.256-2.61 1.481-4.045 1.857-.815.214-1.736.039-3.075.039 1.891 1.687 3.945 1.17 5.654 1.782.662.236 1.332.133 1.388 1.148.206 3.83-.732 4.816-4.777 4.886-.396.007-.791.048-1.74.111 1.509.698 2.51 1.196 3.739 1.103 1.702-.127 2.198.789 2.276 2.387.12 2.401-.109 4.217-3.258 3.632-.705-.131-1.469.045-2.344.085.854 1.321 2.056 1.022 3.095 1.151 3.131.389 2.415 2.729 2.491 4.736.093 2.407-1.647 1.729-2.914 1.803-1.087.063-2.181.013-3.731.013 1.323 1.603 2.719 1.585 3.726 1.657 4.04.285 2.183 3.272 2.149 4.943-.037 1.787-1.895 1.907-3.439 1.498-1.022-.271-2.004-.602-2.996.426 1.354.713 2.521 1.229 3.859 1.095 2.126-.216 2.759.79 2.784 2.825.03 2.281-1.109 2.728-3.005 2.594-.999-.069-2.008-.012-3.855-.012 6.576 2.634 6.671 2.66 6.17 6.504-.502 3.865-3.878.736-5.356 2.1 1.133 2.125 5.38-.52 5.404 3.614.028 4.319-2.927 4.34-6.346 4.003.956 1.133 1.728 1.293 2.539 1.211 2.209-.221 3.563.449 3.191 2.961-.324 2.166-.046 4.773-3.654 4.296-1.795-.242-3.646-.045-5.472-.045 1.815 1.459 3.901 1.374 5.832 1.89 1.217.326 3.021.243 2.676 2.396-.28 1.775-.74 3.248-3.129 2.969-1.722-.203-3.486-.042-5.808-.042 2.447 1.565 4.751 1.142 6.798 1.776.798.246 1.51.16 1.469 1.357-.199 5.81-.173 5.807-6.101 5.891-.339.005-.674.07-1.316.144 1.242.731 2.229 1.024 3.35 1.082 2.859.144 3.428.951 2.833 3.765-.164.771-.324 1.543-.485 2.315-2.672 1.214-5.497.276-8.229.603-1.224.146-1.829.469-.114 1.008 1.57.851 3.288.648 4.979.724 1.311.058 3.173.317 2.603 1.956-.563 1.609.796 4.756-2.805 4.635-1.793-.057-3.59-.009-5.684-.009 1.322 1.726 2.926 1.11 4.209 1.575 1.364.492 3.076.146 2.605 2.519-.864 4.375-1.212 4.655-7.313 5.064.711.68 1.553.937 2.408 1.045 2.188.274 3.051 1.097 1.844 3.342-1.224 2.276-2.292 4.646-3.265 7.04-.847 2.088-2.018 3.448-4.7 2.791 2.319 2.107 2.319 2.107-.028 4.063l-6.092 7.572c.067 1.633-2.248 2.598-3.448 3.926-1.027 1.137-2.45.93-3.648.537-1.555-.508-3.032-.384-5.027-.328 1.717 1.508 3.673 1.293 5.162 2.133-2.821 3.526-6.787 2.26-10.36 2.752.541 1.603 2.566.439 2.959 2.363-3.858 1.057-7.854.12-11.777.616.984 1.388 2.901.599 4.154 2.002-5.304 2.81-10.146-.688-15.469-.84 1.379 1.7 3.319 1.836 5.008 3.198-5.132 1.074-9.229-1.645-13.705-1.936.284 1.36 2.051.989 2.253 2.311-.854.82-1.953.693-2.855.502-5.414-1.158-11.001-1.521-16.227-3.598-8.156-3.242-15.587-7.902-23.349-11.914-.719-.371-1.438-.813-1.963-.813s-1.075.353-1.646.677c-3.378 1.91-6.721 3.889-10.167 5.663-5.458 2.817-10.754 6.017-16.761 7.632-7.943 2.133-15.915 2.799-24.192 1.924-9.938-1.055-19.146-3.906-27.329-9.453-14.791-10.025-22.215-24.883-25.937-41.812-3.563-16.218-4.072-32.812-5.458-49.292-.777-9.25-.563-18.537-1.088-27.808-.564-9.965-.319-19.98-.565-29.976-.231-9.395-.286-18.816-.893-28.179-.628-9.714-2.974-19.196-6.847-28.201-.61-1.417-.369-1.952.913-2.76z" fill="#00ab4e"/><path d="m.235 59.509c1.163 3.398 2.347 6.792 3.601 10.157.469 1.257 1.359 2.167 2.773 2.5 10.688 2.51 15.625 7.936 16.921 18.815 1.751 14.708 2.51 29.5 3.519 44.268 1.923 28.135 3.515 56.293 5.604 84.417.997 13.415 3.644 26.636 10.167 38.581 12.802 23.44 33.566 33.992 53.961 35.718 19.993.145 33.138-4.589 45.315-11.716 2.848-1.668 7.907-4.447 7.907-4.447s5.008 2.697 7.905 4.454c9.42 5.709 19.734 9.594 30.784 11.145 17.763 2.496 33.556-2.441 48.228-12.279 15.607-10.467 23.481-25.693 27.604-43.395 2.71-11.652 3.401-23.539 4.184-35.416 1.778-27.041 3.536-54.082 5.277-81.125.659-10.281 1.278-20.566 2.559-30.793 1.161-9.287 6.461-16.323 14.204-17.696 3.982-.706 5.653-2.659 6.644-6.087.689-2.393 1.646-4.709 2.404-7.083.574-1.805.018-2.893-2.063-2.984-3.712-.164-7.299-1.112-10.927-1.805-8.839-1.688-15.141-6.875-19.87-14.254-2.001-3.122-2.938-6.661-2.841-10.274.083-3.197-1.08-5.347-3.611-7.045-1.158-.776-2.207-1.725-3.279-2.625-1.198-1.008-2.525-1.214-3.909-.542-11.537 5.602-23.045 4.627-34.536-.127-6.548-2.709-13.182-5.23-19.612-8.194-15.426-7.111-31.148-7.104-47.12-2.403-1.425.419-2.617.42-4.04.003-16.082-4.713-31.861-4.67-47.397 2.519-8.139 3.767-16.463 7.154-25.005 10.013-9.631 3.224-18.908 2.439-28.046-1.451-2.146-.912-3.771-.826-5.453.718-1.177 1.082-2.441 2.075-3.724 3.035-1.645 1.234-2.351 2.793-2.397 4.882-.25 11.033-8.349 21.492-19.016 24.675-4.796 1.431-9.664 2.538-14.673 2.869-2.05.136-2.673 1.13-2.042 2.972zm29.8 10.496c2.76-1.741 5.309-3.813 7.998-5.671 6.939-4.793 12.409-10.882 15.913-18.558.81-1.771 1.603-2.402 3.472-2.379 5.208.063 10.521.597 15.603-.235 10.765-1.762 20.768-5.959 30.235-11.372 7.45-4.257 15.356-6.846 24.015-7.107 7.609-.229 14.421 2.591 21.282 5.234 1.339.516 2.294.444 3.593-.06 5.82-2.262 11.65-4.634 17.962-5.116 10.898-.831 20.529 3.102 29.789 8.267 12.667 7.068 26.009 11.54 40.747 10.384 3.082-.242 5.152.367 6.363 3.606.66 1.762.367 2.227-1.181 2.308-3.787.197-7.55.828-11.359.604-1.802-.107-3.615-.019-5.422-.019-.012.272-.021.546-.029.819 5.529.584 10.92 2.514 16.651 1.178 2.342-.546 4.23-.024 5.665 2.19 1.252 1.932.656 2.391-1.307 2.382-4.397-.021-8.796-.007-13.193-.007.701.718 1.483 1.061 2.302 1.293 3.819 1.092 7.761.799 11.613.569 3.462-.207 5.916 1.015 8.293 3.939-5.553.71-10.891.009-16.229.416.309.78.883.934 1.466 1.066 4.39 1.001 8.826 1.604 13.326 1.214 3.612-.314 6.893.189 9.603 2.857.4.394 1.266.501 1.133 1.196-.12.633-.829.742-1.465.771-3.58.166-7.121.823-10.734.63-2.796-.148-5.606-.029-8.41-.029 7.532 3.349 15.359 2.305 23.115 2.25-.423 3.053-1.685 4.868-5.391 4.442-3.361-.387-6.803-.112-10.209-.062-.955.014-2.046-.349-3.218.633 4.751 1.601 9.268 1.903 13.854 1.785.789-.021 1.878-.443 2.188.917.473 2.079-1.249 4.374-3.426 4.396-3.876.041-7.749.011-11.771.011.555 1.06 1.39 1.015 2.122 1.268 2.88.993 5.987.051 8.837 1.114.896.333 2.967-.565 2.209 1.655-.58 1.697.393 4.612-3.12 4.412-2.682-.154-5.377-.031-8.066-.031 2.257 1.598 4.696 1.763 7.15 1.939 2.669.193 2.52 2.123 2.53 4.097.012 2.389-1.649 1.785-2.924 1.811-2.48.055-4.963.016-7.444.016-.002.251-.004.502-.004.753 2.451.609 4.921 1.237 7.483 1.086 2.617-.153 2.196 1.579 2.229 3.178.034 1.642.009 3.002-2.296 2.828-2.065-.158-4.151-.034-6.229-.034 2.188 1.957 4.809 1.531 7.109 2.376.63.232 1.228.066 1.189 1.205-.166 5.231-.104 5.232-5.283 5.454-.182.007-.358.104-.563.168.517.948 1.398 1.051 2.309.997 3.016-.176 3.27 1.623 3.24 4.042-.03 2.856-2.007 1.825-3.379 1.965-1.116.115-2.254.022-3.382.022 1.475 1.479 3.149 1.824 4.907 1.812 1.271-.009 1.683.561 1.784 1.813.31 3.817.146 4.052-3.7 4.096-.785.008-1.572.069-3.171.145 1.673.534 2.594 1.099 3.492 1.066 3.698-.128 3.521 2.285 3.401 4.805-.149 3.256-2.61 1.481-4.045 1.857-.815.214-1.736.039-3.075.039 1.891 1.687 3.945 1.17 5.654 1.782.662.236 1.332.133 1.388 1.148.206 3.83-.732 4.816-4.777 4.886-.396.007-.791.048-1.74.111 1.509.698 2.51 1.196 3.739 1.103 1.702-.127 2.198.789 2.276 2.387.12 2.401-.109 4.217-3.258 3.632-.705-.131-1.469.045-2.344.085.854 1.321 2.056 1.022 3.095 1.151 3.131.389 2.415 2.729 2.491 4.736.093 2.407-1.647 1.729-2.914 1.803-1.087.063-2.181.013-3.731.013 1.323 1.603 2.719 1.585 3.726 1.657 4.04.285 2.183 3.272 2.149 4.943-.037 1.787-1.895 1.907-3.439 1.498-1.022-.271-2.004-.602-2.996.426 1.354.713 2.521 1.229 3.859 1.095 2.126-.216 2.759.79 2.784 2.825.03 2.281-1.109 2.728-3.005 2.594-.999-.069-2.008-.012-3.855-.012 6.576 2.634 6.671 2.66 6.17 6.504-.502 3.865-3.878.736-5.356 2.1 1.133 2.125 5.38-.52 5.404 3.614.028 4.319-2.927 4.34-6.346 4.003.956 1.133 1.728 1.293 2.539 1.211 2.209-.221 3.563.449 3.191 2.961-.324 2.166-.046 4.773-3.654 4.296-1.795-.242-3.646-.045-5.472-.045 1.815 1.459 3.901 1.374 5.832 1.89 1.217.326 3.021.243 2.676 2.396-.28 1.775-.74 3.248-3.129 2.969-1.722-.203-3.486-.042-5.808-.042 2.447 1.565 4.751 1.142 6.798 1.776.798.246 1.51.16 1.469 1.357-.199 5.81-.173 5.807-6.101 5.891-.339.005-.674.07-1.316.144 1.242.731 2.229 1.024 3.35 1.082 2.859.144 3.428.951 2.833 3.765-.164.771-.324 1.543-.485 2.315-2.672 1.214-5.497.276-8.229.603-1.224.146-1.829.469-.114 1.008.804-.439 1.636-.543 2.479-.539-.843-.004-1.675.1-2.479.539 1.57.851 3.288.648 4.979.724 1.311.058 3.173.317 2.603 1.956-.563 1.609.796 4.756-2.805 4.635-1.793-.057-3.59-.009-5.684-.009 1.322 1.726 2.926 1.11 4.209 1.575 1.364.492 3.076.146 2.605 2.519-.864 4.375-1.212 4.655-7.313 5.064.711.68 1.553.937 2.408 1.045 2.188.274 3.051 1.097 1.844 3.342-1.224 2.276-2.292 4.646-3.265 7.04-.847 2.088-2.018 3.448-4.7 2.791 2.319 2.107 2.319 2.107-.028 4.063 0 0-6.092 7.572-6.088 7.57.005.016.005.03-.004.002.067 1.633-2.248 2.598-3.448 3.926-1.027 1.137-2.45.93-3.648.537-1.555-.508-3.032-.384-5.027-.328 1.717 1.508 3.673 1.293 5.162 2.133-2.821 3.526-6.787 2.26-10.36 2.752.541 1.603 2.566.439 2.959 2.363-3.858 1.058-7.854.12-11.777.616.984 1.388 2.901.599 4.154 2.002-5.304 2.81-10.146-.688-15.469-.84 1.379 1.7 3.319 1.836 5.008 3.198-5.132 1.074-9.229-1.645-13.705-1.936.284 1.36 2.051.989 2.253 2.311-.854.82-1.953.693-2.855.502-5.414-1.158-11.001-1.521-16.227-3.598-8.156-3.241-15.587-7.902-23.349-11.914-.753-.39-1.3-.827-1.963-.813-.497.011-1.11.374-1.646.677-3.378 1.91-6.721 3.889-10.167 5.663-5.458 2.817-10.754 6.017-16.761 7.632-7.943 2.133-15.915 2.799-24.192 1.924-9.938-1.055-19.146-3.906-27.329-9.453-14.791-10.025-22.215-24.883-25.937-41.812-3.563-16.218-4.072-32.812-5.458-49.292-.777-9.25-.563-18.537-1.088-27.808-.564-9.965-.319-19.98-.565-29.976-.231-9.395-.286-18.816-.893-28.179-.628-9.714-2.974-19.196-6.847-28.201-.61-1.417-.369-1.952.913-2.76z"/><path d="m45.579 117.275c.826-.109 2.377.121 2.076-.924-.421-1.464-2.367-.952-3.605-1.43-.559-.216-1.32.121-1.239.88.185 1.753 1.621 1.391 2.768 1.474z"/><path d="m47.444 171.371c1.061-.032 2.251.027 2.21-1.137-.041-1.117-1.259-.493-1.94-.688-.092-.028-.203-.032-.295-.009-.927.229-2.416-1.566-2.684.189-.247 1.635 1.636 1.519 2.709 1.645z"/><path d="m44.673 199.771c.122.511.115.646.168.678 1.697.957 3.471 1.361 5.356.633.088-.035.116-.656-.019-.762-1.679-1.31-3.542-.591-5.505-.549z"/><path d="m47.475 186.396c.819-.073 1.88.09 1.702-.854-.27-1.424-1.772-1.301-2.848-1.508-.665-.125-1.971-.222-1.634.952.357 1.244 1.864 1.101 2.78 1.41z"/><path d="m46.35 176.729c-.741.297-2.208-.486-2.135.772.084 1.429 1.64 1.097 2.65 1.039.832-.049 2.42.578 2.24-.931-.169-1.443-1.797-.591-2.755-.88z"/><path d="m69.676 49.338c-3.097-.004-6.194-.008-9.291-.013 3.097.867 6.194.837 9.291.013z"/><path d="m51.518 93.211c-3.063-.004-6.125-.007-9.187-.01 3.062.921 6.124.846 9.187.01z"/><path d="m44.472 208.077c2.082.517 3.281.862 4.502 1.096.694.138 1.414.037 1.601-.858.272-1.306-.804-.86-1.304-.86-1.302-.002-2.663-.293-4.799.622z"/><path d="m45.926 161.072c-.889.34-2.516-.543-2.391.98.106 1.289 1.764 1.309 2.898 1.465.92.125 2.078-.014 2.011-1.175-.092-1.629-1.627-.971-2.518-1.27z"/><path d="m47.859 131.895c-1.241-.283-2.373-.604-3.525-.777-.655-.1-1.5-.121-1.532.894-.025.793.472 1.334 1.246 1.406 1.36.127 2.819.41 3.811-1.523z"/><path d="m63.462 70.372c-7.334-1.106-14.671-1.339-22.02-1.277-.626.005-1.655-.17-1.477.9.156.933 1.111.994 1.943.995 5.588.008 11.178.065 16.767.005 1.596-.016 3.272.284 4.787-.623z"/><path d="m49.482 78.793c1.695-.003 3.391-.021 5.086.004.957.014 1.603-.437 1.637-1.345.033-.896-.768-1.015-1.486-1.057-3.46-.205-6.919-.441-10.382-.587-.896-.037-2.181-.39-2.175 1.24.004 1.488 1.014 1.759 2.234 1.751 1.695-.011 3.391-.002 5.086-.006z"/><path d="m54.672 61.966c-1.748 0-3.044-.019-4.34.008-.672.015-1.513-.099-1.51.95.002.814.535 1.365 1.298 1.374 4.223.048 8.44 1.463 12.678.059.581-.192 1.251-.281 1.165-1.017-.062-.515-.624-.753-1.159-.746-2.88.04-5.67-1.133-8.132-.628z"/><path d="m61.969 56.574c1.694-.002 3.389.02 5.082-.015.553-.011 1.362.058 1.25-.807-.047-.355-.649-.878-1.032-.908-3.554-.276-7.114-.475-10.674-.663-.657-.035-1.153.286-1.204 1.029-.056.848.346 1.345 1.196 1.358 1.794.028 3.589.009 5.382.006z"/><path d="m93.224 281.327c-1.729.78-3.715.622-5.681.634-.917.004-1.555.293-1.519 1.344.033.913.496 1.57 1.417 1.59 2.674.055 5.23-.555 7.694-1.572.483-.2.789-.478.532-1.125-.469-1.18-1.459-.736-2.443-.871z"/><path d="m78.022 276.54c-.899 0-1.8-.017-2.698.005-.899.02-1.923-.066-1.906 1.281.014 1.066.618 1.588 1.677 1.723 2.327.294 4.508-.658 6.792-.752.617-.023.969-.688.985-1.334.02-.852-.647-.891-1.25-.9-1.2-.026-2.398-.008-3.6-.008 0-.006 0-.01 0-.015z"/><path d="m48.393 85.979c1.399 0 2.798.008 4.198-.004.542-.003 1.102-.254 1.152-.762.07-.729-.578-1.007-1.192-.978-2.898.14-5.693-1.032-8.605-.634-.733.099-1.773-.22-1.719 1.046.043.984.793 1.325 1.669 1.341 1.499.028 2.999.007 4.499.007-.002-.006-.002-.011-.002-.016z"/><path d="m70.828 271.135c-.795-.002-1.607-.102-2.38.028-.729.119-2.041-.61-2.018.871.019 1.083 1.077 2.096 1.947 1.877 1.963-.495 3.961-.08 5.868-.575.595-.154 1.439-.376 1.409-1.295-.031-1.057-.896-.871-1.547-.895-1.09-.039-2.185-.007-3.279-.011z"/><path d="m125.77 281.277c1.56-1.145 3.325-2.401 5.032-3.74.206-.161.233-.814.085-1.105-.331-.644-1.09-.634-1.58-.387-1.683.852-3.323 1.794-4.934 2.775-.578.352-.595 1.016-.319 1.609.276.592.761.907 1.716.848z"/><path d="m106.294 282.406c-1.962.588-4.034 1.193-6.1 1.828-.633.195-1.147.589-.62 1.285.454.6.913 1.393 1.921 1 1.836-.713 3.675-1.424 5.5-2.162.558-.226 1.163-.567.977-1.275-.205-.793-1.004-.357-1.678-.676z"/><path d="m69.676 49.338c.883-.38 1.594-1.095.154-1.364-2.845-.532-5.756-.858-8.648-.926-1.431-.033-1.036 1.322-.796 2.277 3.096.005 6.193.009 9.29.013z"/><path d="m119.612 280.852c-.111-.938-.392-1.305-1.19-.977-1.903.786-3.843 1.486-5.718 2.332-.93.422-1.067 1.262-.151 1.818 1.35.816 2.64.154 3.906-.445 1.37-.65 2.452-1.569 3.153-2.728z"/><path d="m139.333 272.424c-1.737 1.124-3.661 2.335-5.529 3.621-.214.146-.268.764-.162 1.089.233.722 1 .759 1.501.579 2.16-.783 4.063-2.02 5.345-3.957.468-.706.067-1.344-1.155-1.332z"/><path d="m52.669 240.575c1.194-.541 3.422.789 3.573-.878.174-1.943-2.196-.694-3.352-1.256-1.398-.684-3.063-.701-4.526.132-.188.106-.258.854-.088 1.092 1.173 1.634 2.937.388 4.393.91z"/><path d="m66.941 265.342c-2.239-.273-4.479-.585-6.728-.797-.751-.072-1.762-.148-1.745 1.042.016.985.795 1.313 1.663 1.325 1.792.025 3.588 0 5.381.009 1.048.011 1.35-.648 1.429-1.579z"/><path d="m51.518 93.211c.375-.208.745-.729.4-.898-2.995-1.469-6.185-.969-9.315-.653-.668.067-.412.972-.271 1.541 3.061.003 6.123.007 9.186.01z"/><path d="m54.018 253.646c1.285-.691 2.881-.532 4.453-.559.651-.012 1.282-.258 1.321-.913.027-.462-.53-.832-1.064-.84-2.174-.022-4.35-.021-6.523-.002-.729.006-1.228.476-.877 1.122.489.916 1.406 1.332 2.69 1.192z"/><path d="m49.461 224.848c.895-.521 3.136.973 3.176-.965.034-1.586-2.123-.518-3.256-.847-.661-.19-1.322-.44-1.999-.511-.845-.086-2.02-.395-2.131.896-.101 1.135.914 1.389 1.872 1.422.697.025 1.395.005 2.338.005z"/><path d="m47.358 101.71c.979-.546 3.019.867 3.111-.998.07-1.421-2.076-1.219-3.185-1.359-1.169-.148-3.407-.968-3.529.792-.155 2.267 2.211 1.181 3.603 1.565z"/><path d="m49.704 154.879c-1.946-1.477-3.904-.801-5.749-.928-.501-.036-1.014.086-1.128.713-.125.682.209 1.359.784 1.418 2.065.205 4.326 1.121 6.093-1.203z"/><path d="m51.048 232.674c1.232-.015 2.049.08 2.702-.494.275-.244.664-.529.703-.836.069-.546-.391-.894-.897-.958-.78-.1-1.6-.235-2.354-.096-1.202.221-3.383-.819-3.383.916.001 1.548 2.292 1.23 3.229 1.468z"/><path d="m49.016 217.686c1.012-.334 2.899.629 3.045-.787.189-1.851-1.846-.66-2.776-1.146-.088-.043-.188-.063-.28-.1-1.235-.475-2.492-.795-3.675.05-.167.118-.121.813.059 1.094.895 1.396 2.36.633 3.627.889z"/><path d="m47.853 194.205c.299 0 .607.047.896-.01.796-.149 2.119.474 2.197-.816.083-1.367-1.264-.837-2.057-.986-.968-.186-1.927-.467-2.903-.543-.716-.058-1.785-.408-1.947.75-.161 1.156.731 1.521 1.717 1.582.697.043 1.396.008 2.097.008z"/><ellipse cx="44.74" cy="147.765" rx="2.179" ry=".713"/><ellipse cx="44.713" cy="139.464" rx="2.152" ry=".807"/><path d="m48.443 108.507c0 1.243-1.222 1.243-2.729 1.243-1.506 0-2.327 0-2.728-1.243-.21-.653.89-1.425 2.728-1.243 1.777.175 2.729.556 2.729 1.243z"/><path d="m169.607 146.11c.352 2.448 2.322 3.498 4.662 3.896 1.57.27 2.957.621 3.521 2.6.342 1.199 1.883 2.113 3.171 1.849 3.274-.677 6.429-.642 9.735-.081 1.326.225 2.814-.311 4.214.486.891.507 2.323.664 2.799-.139 1.808-3.063 4.601-1.967 7.125-1.982 4.155-.026 4.425.172 4.347 4.404-.164 8.985.718 18.019-.66 26.943-.624 4.035-.224 8.52-4.379 11.492-2.099 1.503-1.148 4.096 1.571 4.498 1.767.262 2.374.717 2.322 2.533-.351 11.897.484 23.814-.618 35.705-.35 3.748-2.229 6.235-5.682 7.599-4.11 1.626-7.368-.245-10.618-2.267-1.893-1.174-3.781-2.373-6.058-1.266-3.933 1.91-7.715 4.204-12.399 3.614-.669-.085-1.607.353-1.832 1.274-.247 1.023.402 1.578 1.122 2.229 2.634 2.375 5.748 2.132 8.785 1.533 3.095-.609 5.916-.413 8.578 1.32.381.248 1.114.139 1.056.838-.062.684-.603.998-1.235 1.092-2.278.338-3.326 1.924-4.083 3.882-.589 1.53-1.771 2.634-2.915 3.762-.712.7-2.202.919-1.685 2.448.437 1.288 1.522 1.624 2.718 2.042 2.188.765 3.795.121 5.35-1.39.992-.963 2.083-1.898 3.29-2.551 2.479-1.336 4.142-.27 4.169 2.514.019 1.4-.13 2.83.096 4.195.192 1.15.679 2.323 2.171 2.537 1.37.192 2.406-.344 3-1.505 1.035-2.034 2.034-4.067 1.998-6.491-.03-2.08.398-4.162 1.243-6.082.913-2.086 2.863-2.945 4.888-2.615 2.114.346 1.508 2.435 1.642 3.949.112 1.281-.479 2.297-1.099 3.34-.816 1.373-1.577 2.781-2.29 4.211-1.021 2.051-.935 4.063.679 5.767 1.798 1.899 2.617-.994 4.254-1.007-.143 1.197-.094 2.391-.462 3.438-.382 1.086-.405 2.039.46 2.685.845.638 1.854.374 2.829-.071 3.954-1.798 6.383-7.395 4.682-11.363-.752-1.768-.615-3.517-.615-5.293-.002-1.803.94-2.975 2.778-2.67 1.857.311 2.318 1.537 1.563 3.36-1.078 2.606-.853 5.235.387 7.769.788 1.607 2.066 3.09 3.799 2.941 1.5-.129 2.229-1.862 2.556-3.377.204-.962.182-1.971.329-2.948.279-1.86 1.018-3.253 3.268-3.028 1.28.127 4.138 3.258 3.807 4.45-.517 1.876-2.231.525-3.301 1.015-.148.065-.266.194-.417.308.982 1.577 3.771.937 4.079 2.179 3.465-.705 5.451-4.395 6.042-7.339l.05-.233c-.116-.28-.243-.543-.329-.818-.976-3.07-1.885-6.042-5.919-6.534-1.636-.198-1.666-1.56-.277-2.533 1.452-1.018 2.911-1.459 4.662-.374 2.492 1.545 4.941 1.258 7.113-.787.677-.638 1.014-1.201.626-2.32-1.348-3.928-8.3-7.689-12.21-6.283-2.613.939-5.069 2.324-7.69 3.23-3.273 1.131-7.457-.974-7.658-4.022-.272-4.149-.642-8.457 1.271-12.356 1.371-2.797 1.786-5.212-.847-7.457-.969-.826-.677-2.033-.68-3.113-.015-9.314.04-18.633-.046-27.948-.023-2.177.236-4.065 1.772-5.752 1.572-1.729 2.041-4.005.455-5.743-2.218-2.434-2.272-5.152-2.22-8.087.073-4.006.206-8.022-.037-12.017-.213-3.461-.062-6.168 4.399-6.442 1.38-.084 2.971-1.813 4.18-.756 2.45 2.144 6.037.809 8.376 3.254.977 1.022 2.672.676 3.502-.821.875-1.568 1.972-1.695 3.46-.93.876.451 1.842.762 2.796 1.023 3.159.865 5.456-.926 5.097-4.188-.155-1.443-.046-2.544 1.081-3.444 3.372-2.694 2.027-4.447-.646-6.335-1.522-1.075-2.335-2.13-1.749-4.208.837-2.99-.294-4.225-3.413-4.463-1.759-.134-3.832-.079-4.817 1.107-2.347 2.827-5.368 1.352-8.046 1.885-1.129.225-2.188-.39-2.346-1.392-.169-1.088 1.192-1.304 1.935-1.43 1.405-.239 2.67-.348 3.614-1.691 2.416-3.445 2.835-3.474 6.104-1.115 2.819 2.034 4.206 1.588 5.473-1.782.524-1.39 1.173-2.369 2.699-3.181 1.841-.979 3.893-3.125 1.976-5.385-2.209-2.605-2.671-5.319-2.385-8.464.139-1.52-1.011-2.412-2.152-2.977-1.122-.554-2.603-.479-3.213.741-1.642 3.275-4.154 4.467-7.696 3.939-.5-.075-1.133.362-1.624.689-2.233 1.494-3.328.182-4.517-1.569-1.413-2.08.222-2.837 1.369-3.874 1.313-1.186 2.732-.677 4.223-.384 2.033.4 4.45 1.049 5.111-1.898.435-1.937 1.339-3.403 2.657-4.793 1.091-1.15 2.122-2.405 2.929-3.765.901-1.522 1.07-3.338-.135-4.734-1.446-1.675-2.854-.392-4.212.472-1.496.949-3.074 2.712-4.747 2.142-3.61-1.226-7.075-2.724-11.58-1.308 2.23-2.524 2.23-2.524 5.409-2.693 2.546-.136 4.212-1.831 3.688-4.29-.377-1.777.037-2.957 1.105-4.29 1.548-1.934.617-4.162-1.847-4.621-1.091-.204-2.104-.289-2.754-1.415-2.271-3.96-4.384-4.765-8.744-3.601-.752.202-1.598.938-2.614.015 1.18-1.616 2.871-1.532 4.529-1.624 2.503-.139 4.9-2.639 4.04-4.691-1.224-2.917-1.349-5.982-1.976-8.969-.318-1.521-1.024-1.869-2.412-2.022-2.553-.279-3.876 1.602-5.644 3.015-1.063-1.786-2.259-3.341-1.85-5.517.397-2.126-.18-3.965-2.038-5.18-1.646-1.077-3.476-1.017-5.124-.059-1.978 1.147-2.057 3.347-1.533 5.046.746 2.423-.267 3.879-1.783 5.462-.521-.448-1.003-.973-1.584-1.338-2.546-1.6-5.085-.677-7.372.464-2.099 1.046-1.371 3.064-.719 4.75.454 1.16-.273 1.777-.702 2.666-.934 1.947-1.168 4.021.382 5.853 1.185 1.401 2.6 2.222 4.424 1.104 1.17-.717 2.293-.74 3.276.228.555.547.557 1.417.038 1.917-.908.88-1.861 1.716-3.397.942-1.634-.822-3.866-1.421-5.182-.439-2.562 1.909-5.256 1.525-7.993 1.549-2.277.021-3.489 1.26-3.966 3.326-.471 2.038.447 3.583 2.193 4.445 1.568.775 2.713 1.554 2.479 3.555-.148 1.259.74 1.946 1.804 2.472 1.595.791 2.977.406 4.505-.346 1.651-.814 2.745.727 3.955 1.492.645.406.376 1.01-.05 1.54-1.028 1.284-2.228 1.093-3.496.465-.086-.042-.201-.026-.289-.065-2.573-1.151-5.181-.833-7.487.443-1.883 1.041-3.039.64-4.506-.645-1.039-.913-2.096-1.926-3.967-1.475-3.784.915-3.574 5.913-.991 8.168 1.724 1.506 2.215 3.027 2.102 5.12-.104 1.92 1.026 3.816 2.745 3.7 3.539-.241 6.925 3.306 10.523.361.403-.331 1.237-.221 1.544.429.132.278.021.969-.168 1.055-2.229 1.022-3.889 3.661-6.965 2.386-.88-.366-1.963-.353-2.95-.329-2.218.056-4.123.178-5.041-2.718-.748-2.356-3.236-2.442-5.384-2.025-2.21.428-2.429 2.303-2.103 4.018.531 2.808-1.199 4.372-2.775 6.168-1.984 2.262-1.695 5.993.693 6.881 2.192.816 3.75 2.218 5.244 3.816 1.455 1.553 3.121 1.785 4.845.719 2.284-1.419 4.203-.399 5.608 1.111 1.229 1.323 2.533 2.1 4.143 2.727.584.228 2.319-.108 1.669 1.36-.486 1.092-1.457 2.536-3.021 1.729-3.552-1.831-8.08-.06-11.353-3.601-1.205-1.304-4.222-.76-6.065.917-1.564 1.424-1.612 3.111-.683 4.854.893 1.676-.574 1.714-1.411 2.256-1.974 1.279-3.852 2.835-3.48 5.421z"/><path d="m178.051 247.247c.751 1.087 1.885 1.043 2.554.864 6.214-1.654 11.66 1.674 17.467 2.561 1.453.225.813 1.042.241 1.627-1.438 1.473-3.172 2.396-5.243 2.641-2.948.35-5.206 1.598-6.72 4.354-.979 1.781-2.552 3.235-4.02 5.037 3.091.251 4.539-1.954 6.113-3.562 1.788-1.821 3.685-2.582 6.152-2.274 2.185.271 3.638 1.106 3.237 3.637-.296 1.87-.544 3.751-.919 5.608-.196.972-.223 2.06.664 2.375 1.177.419 1.722-.762 2.082-1.66 1.008-2.514.771-5.178.193-7.674-.695-3.022.166-4.997 2.789-6.489 1.908-1.087 3.677-2.417 5.558-3.562 2.091-1.271 3.443-.738 3.896 1.662.798 4.217.927 8.33-1.958 12.021-1.507 1.928-2.326 4.125-.827 6.616 1.424-.86 1.134-2.396 1.78-3.479.975-1.628 1.827-1.618 2.875-.104.951 1.38.925 2.795.34 4.273-.568 1.436-1.193 2.854-1.237 4.607 3.783-1.778 5.142-6.342 3.453-10.971-1.717-4.695.782-8.738 2.02-12.949.331-1.122 1.438-.481 1.898.15 1.43 1.956 3.281 3.463 4.996 5.129 1.48 1.438.136 2.99-.438 4.402-1.038 2.55-1.293 4.951 1.016 7.564.622-2.353 1.019-4.336 1.675-6.231 1.412-4.086 6.389-5.123 9.297-2.005.409.438.737.953 1.16 1.376.652.649 1.257 1.954 2.332 1.099 1.026-.816.025-1.871-.438-2.654-1.537-2.615-3.735-4.396-6.818-4.903-2.832-.468-4.857-2.213-6.688-4.256-.427-.474-.691-1.067-.384-1.638.128-.23.83-.422 1.056-.283 3.881 2.389 7.348-.217 10.884-1.022 2.381-.541 4.417-.901 6.367.884.475.434 1.195 1.043 1.797.235.411-.553-.13-1.124-.453-1.616-2.271-3.455-5.74-4.121-9.622-2.359-3.549 1.611-7.476 2.143-11.308 2.703-2.259.33-4.331-2.117-4.915-5.189-.223-1.173-.144-2.402-.365-3.574-.205-1.089.126-2.333-.899-3.729-.866 2.158.162 4.388-1.65 6.169 0-3.152-.255-6.038.091-8.854.238-1.954 2.412-2.927 3.53-4.522 1.291-1.842 2.422-3.189-.164-4.793-1.283-.795-1.072-2.254-1.072-3.56.005-11.116-.014-22.235.021-33.354.005-1.594.213-3.137-2.758-1.318 1.767-1.919 1.698-5.433 5.032-3.063.335.238.787-.014 1.018-.381.353-.568.418-1.35-.154-1.609-4.074-1.862-2.709-5.512-2.964-8.646-.092-1.133.401-2.365-.584-3.563-1.466 1.068-.121 2.886-1.324 4.17-1.029-2.946-.028-5.719-.595-8.559 1.723.156.693 1.638 1.837 1.777.923-.518.411-1.521.421-2.303.042-4.107-.042-8.213-.005-12.319.01-1.436-.112-3.604-.869-3.93-3.881-1.686-3.358-4.995-3.341-8.543-2.801 4.13-5.207 7.505-4.849 12.702.745 10.871-.006 21.802-.478 32.707-.194 4.432-1.754 8.322-4.478 12.306 3.901-.276 4.488 1.954 4.448 4.697-.178 12.308-.374 24.614-.503 36.923-.028 2.667-1.218 4.613-3.309 6.035-4.612 3.13-9.663 4.564-14.543 1.167-5.172-3.602-9.07-.889-13.398 1.422zm39.254-72.832c.025-.088.048-.176.073-.265.139.082.287.151.41.248.023.021-.043.149-.065.229-.139-.068-.28-.141-.418-.212zm.179-25.546v13.501c-.047-4.323-2.053-8.899 0-13.501zm.188 39.003c.54 1.565.313 30.323-.267 33.813-1.573-6.049-1.381-30.548.267-33.813z" fill="#fcbd1f"/><path d="m240.408 100.153c1.583-.7 2.981-.285 4.34-.319 1.76-.046 2.787-.989 3.369-2.492.311-.797.11-1.617-.643-2.134-.764-.523-1.304.013-1.803.527-2.592 2.665-5.561 2.309-8.506.864-1.767-.867-3.097-1.101-4.909.204-1.901 1.364-5.005.376-6.323 3.689-.688-1.88 1.875-4.995-2.199-3.73-.759.236-.57-.6-.46-1.031.531-2.062-1.053-3.467-1.936-4.813-1.146-1.741-2.324-.193-3.204.952-.555.722-.781 2.378-1.984 1.688-1.111-.638-.405-1.917.165-2.912.335-.587.59-1.275.663-1.943.074-.638.312-1.607-.563-1.81-.904-.209-1.011.741-1.196 1.379-.229.807-.678 1.395-1.41 1.83-.99-.818-.701-1.854-.303-2.481 1.27-2.002 1.584-3.833-.178-5.694-.268-.281-.41-.757-.037-1.071.624-.525 1.671-.501 1.867.055.714 2.025 4.606-1.575 4.026 2.369-.086.585-.337 1.194-.248 1.75.182 1.126.709 2.314 1.964 2.307 1.168-.008 1.504-1.106 1.516-2.213.006-.479.138-.955.209-1.417 1.324-.158 1.304.864 1.539 1.531.297.833.336 1.759.654 2.582.438 1.13 1.165 2.532 2.497 2.057 1.468-.521 1.223-2.044.796-3.375-.35-1.09-1.425-1.934-1.113-3.607 1.785 1.631 4.654 1.25 5.433 4.115.152.566 1.212.968 1.929 1.271.599.253 1.215-.067 1.537-.635.576-1.015-.302-1.443-.916-1.879-.805-.57-2.005-.966-1.612-2.192.366-1.157 1.551-.472 2.362-.562.84-.092 1.555-.353 2.177-.89.471-.406.871-.905.619-1.557-.281-.734-1.057-.667-1.532-.475-2.298.917-4.537-.235-6.806-.079-.67.046-1.502.078-1.72-.818-.209-.854.439-1.222 1.08-1.574.759-.417 1.883-.816 1.42-1.883-.428-.983-1.612-.437-2.464-.541-1.06-.128-1.922.439-2.832.842-1.563.692-3.021.9-4.366-.562-.521-.566-1.198-1.443-2.085-.029-.496.796-1.026-.005-.977-.629.217-2.547-.36-4.926-1.195-7.307-.271-.775-.344-2.119.733-2.31 1.43-.252.936 1.146 1.048 1.899.171 1.133.372 2.417 1.668 2.514 1.706.128 1.113-1.524 1.464-2.443.164-.433.377-.847.666-1.484 1.39 1.89 2.135 4.394 4.98 3.747.775-.176 1.433-.86 1.354-1.784-.171-2.076-1.926-1.957-3.419-2.138.242-1.695 2.058-1.954 2.502-3.378.433-1.383.678-2.802-.678-3.448-1.543-.736-2.131.855-2.403 1.933-.722 2.874-2.951 2.515-5.016 2.592-1.139.042-1.193-.824-1.309-1.629-.416-3.035-1.394-5.993-1.086-9.133.108-1.117.318-2.761-1.273-2.9-1.245-.11-1.774 1.344-1.798 2.403-.063 2.876-1.734 5.392-1.668 8.289.025 1.067.691 2.735-1.138 2.889-1.783.15-3.896.838-5.15-1.299-.298-.505-.393-1.126-.627-1.673-.317-.741-.652-1.557-1.652-1.47-.813.071-1.56.395-1.965 1.191-.471.921-.405 1.912.462 2.407 2.144 1.229 1.541 2.3.063 3.554-.83.706-1.7 1.504-1.304 2.805.166.546.698.712 1.193.756 1.36.122 1.897-.827 2.384-1.876.235-.512.609-.961.964-1.506 1.672 1.166 1.506 4.134 3.758 4.002 2.172-.126.741-2.688 1.626-4.018 1.604 2.708 1.113 6.619-1.056 9.208-1.962 2.34-4.439 3.025-7.271 1.855-2.013-.834-3.635-1.276-4.104 1.667-.228 1.409-1.359.815-2.176.658-1.364-.261-2.506-1.26-3.984-1.202-1.119.044-2.345-.032-2.711 1.323-.421 1.551.771 2.139 1.924 2.563.733.269 1.548.316 2.635.522-.671 1.639-2.215 3.78.081 4.858 3.446 1.618 3.094-2.722 4.917-3.826.837.714.813 1.663 1.063 2.477.413 1.337.645 3.062 2.511 2.703 1.672-.322 1.77-1.937 1.716-3.408-.032-.88-.007-1.764-.007-2.763 1.695-.04 3.441 5.384 4.574-.176 1.771.593 1.706 1.989 1.616 3.247-.338 4.841-6.579 10.31-11.347 9.958-.874-.065-1.801-.262-2.578-.651-1.637-.82-3.088-.632-4.478.458-2.56 2.008-4.884 1.715-7.217-.494-.772-.732-1.511-2.24-2.924-1.462-.771.425-.738 1.528-.63 2.465.187 1.57 1.237 2.512 2.579 2.438 2.944-.165 2.791 1.084 1.896 3.151-.623 1.44-.815 3.3.914 3.881 1.5.504 1.87-1.398 2.533-2.431.314-.49.541-1.037 1.288-1.556 0 .99.008 1.979 0 2.967-.009 1.399.297 2.798 1.851 3 1.563.204 2.479-1.171 2.551-2.436.216-3.691 4.006-3.413 5.627-6.266.543 2.346-1.016 2.72-1.57 3.642-.867 1.439-.972 2.771.596 3.572 1.496.766 2.021-.61 2.585-1.666.512-.956.34-2.19 1.389-3.149.339 2.063.882 3.935 2.724 5.029.744.442 1.48 1.22 2.388.319.746-.742 1.137-1.545.68-2.684-.594-1.487-2.023-2.5-2.329-4.3.941-.587 1.832-.27 2.758.059 1.236.44 2.463.454 3.063-.946.572-1.332-.219-2.339-1.241-3.044-.946-.652-2.029-1.108-3.412-1.843 1.643-1.054 2.923-.738 4.121-.089 1.976 1.069 3.534 3.194 6.641 1.611-2.405 4.221-2.405 4.221 3.237 4.812-.603.942-1.226 1.832-1.753 2.774-.756 1.359-.553 2.547.919 3.258 1.496.722 2.497-.017 3.189-1.311.628-1.17.436-3.555 1.747-3.399 2.129.254.438 2.536 1.006 3.791.703 1.559 1.414 3.46 3.545 2.958 2-.47 1.436-2.238 1.215-3.742-.146-.971-.028-1.982-.028-3.183 1.482.563.977 1.908 1.432 2.747.322.59.466 1.436 1.428 1.201.773-.188.583-.908.712-1.467.158-.677-.526-1.782.731-1.924.789-.087 1.104.738 1.501 1.308.861 1.254 1.07 4.09 3.238 2.812 2.52-1.483.172-3.199-.783-4.69-.157-.241-.273-.513-.543-1.034z" fill="#fcbd1f"/><path d="m192.963 146.708c-.055.996-.176 1.991-.152 2.983.037 1.521.617 2.889 2.229 3.142 1.492.233 2.269-.956 2.895-2.173 1.008-1.964-.006-4.147.671-6.149 1.322-.252 1.158.941 1.407 1.519.438 1.017.78 2.079 1.575 2.866 1.12 1.107 2.623 2.021 4.031 1.212 1.529-.879.646-2.507.156-3.767-.393-1.018-.97-1.976-1.549-2.907-.456-.733-.776-1.416-.146-2.182.711-.863 1.384-.369 2.103.038 1.376.78 2.739 1.839 4.422.714.615-.413 1.096-.985.803-1.761-.728-1.919-2.602-1.96-4.194-2.426-.469-.137-.968-.161-1.512-.248.295-1.658 1.589-2.296 2.717-3.085.482-.339 1.242-.659 1.078-1.292-.196-.764-1.017-.793-1.749-.814-3.776-.108-3.778-.124-3.486-3.902-1.393.011-1.649 1.228-2.038 2.092-1.332 2.975-4.382 4.287-6.345 6.672-.837 1.019-2.617 1.329-4.217.926-2.253-.567-4.521-.742-6.779.063-1.063.378-1.942.121-2.533-.945-.765-1.369-1.952-2.238-3.422-2.774-.953-.348-1.898-.815-2.705.208-.837 1.067-.576 2.215.336 2.949 2.888 2.327 1.377 3.115-1.146 3.734-.664.163-1.316.513-1.88.911-1.169.824-3.172 1.573-2.499 3.185.661 1.592 2.703 1.865 4.465 1.568 1.67-.281 3.202-.978 4.507-2.34.759 2.1-.382 3.383-1.041 4.782-.467.997-.602 1.933.439 2.658.965.672 1.694-.013 2.42-.505 1.604-1.094 1.963-2.903 2.467-4.833 1.361.852.813 2.322 1.525 3.221.978 1.228 1.83 3.081 3.65 2.181 1.636-.806 1.59-2.618.828-4.241-.422-.897-.873-1.782-1.421-2.896 1.795-.152 2.354 2.398 4.125 1.646.058-.061.113-.12.171-.18-.07.052-.138.101-.206.15z" fill="#fcbd1f"/><path d="m203.798 110.051c-1.774.842-3.339 2.084-5.379 2.416-1.396.227-1.67 1.518-1.98 2.717-.296 1.147-.638 1.754-2.287 1.308-2.69-.729-5.239-2.188-8.143-2.03-2.35.127-4.089-.383-4.581-3.121-.227-1.258-1.165-2.652-2.689-2.091-1.764.647-1.853 2.422-1 3.79 1.208 1.937.992 2.979-1.213 3.762-1.842.655-2.979 2.234-1.851 3.987 1.359 2.117 2.666.363 3.857-.656.443-.378 1.004-.62 1.602-.975.3 1.405-.212 2.515-.885 3.449-.916 1.27-.573 2.189.396 3.15.574.565 1.095 1.334 2.004 1.001 1.305-.478 1.634-1.662 1.688-2.909.048-1.074.011-2.152.011-3.59 1.569 1.09 1.401 2.688 2.118 3.778.759 1.145 1.572 2.704 3.235 1.855 1.716-.876 1.024-2.316.213-3.576-.215-.336-.46-.684-.551-1.061-.169-.713-.943-1.645-.022-2.125.938-.491 1.28.549 1.684 1.233.828 1.411 2.304 5.631 2.344 6.967.024.914-.044 2.046.986 2.266 1.119.236 2.09-.403 2.659-1.504.918-1.771.312-3.736.68-5.751 1.656.361 2.066 1.892 3.045 2.77.729.653 1.433 1.604 2.508.521.845-.854.702-1.8.082-2.716-.161-.242-.432-.414-.646-.621-.782-.75-2.047-1.594-1.229-2.694 1.011-1.362 1.902.17 2.722.692 1.279.818 2.505 1.99 3.876.278.673-.839-.391-4.475-1.344-4.986-3.704-1.994-3.704-1.994-1.917-5.542z" fill="#fcbd1f"/><path d="m228.886 140.552c.088-.286.13-.596.272-.85.444-.787 1.83-1.609.597-2.448-1.119-.759-1.667.539-2.113 1.43-.389.779-.691 2.021-1.813 1.344-.79-.477-.523-1.635-.091-2.465.271-.519.615-1.03 1.031-1.438 1.594-1.556 1.781-3.299.664-5.146-.932-1.536-1.382-3.237-2.151-4.915.197 2.607-1.424 5.144.484 7.833.788 1.115-1.005 2.393-1.45 3.672-.365 1.053-1.211.866-1.979.498-2.156-1.034-3.483.129-4.406 1.821-.685 1.25-1.781 2.862-.188 4.04 1.422 1.052 2.231-.668 3.208-1.386.681-.498 1.221-1.674 2.213-.976.857.603-.025 1.485-.245 2.164-.676 2.102-1.462 4.167-.775 6.412.2.653.336 1.533 1.11 1.654.833.129 1.529-.415 1.912-1.185.797-1.591 1.974-3.027 2.049-4.925.022-.573-.078-1.317.787-1.333.713-.014.967.563 1.133 1.18.39 1.442.759 2.891 1.227 4.309.478 1.448 1.384 2.607 3.069 2.18 1.54-.392 1.676-1.807 1.618-3.168-.074-1.778-.734-3.359-2.025-4.53-1.27-1.151-1.105-2.124-.208-3.359.475-.653 1.682-1.396.849-2.252-.894-.921-1.807.16-2.59.676-.658.434-1.227 1.002-1.838 1.51-.198.076-.395.155-.593.233.08-.192.161-.385.242-.58z" fill="#fcbd1f"/><path d="m246.504 145.726c1.581-.855 2.775.235 4.087.479 1.181.22 2.587.48 3.089-.925.501-1.412-.733-2.137-1.809-2.707-1.282-.677-2.708-.569-4.107-.615-.764-.024-1.713.119-1.896-.989-.139-.85.498-1.208 1.151-1.536.81-.407 1.617-.853 1.783-1.868.154-.948.069-1.844-.99-2.233-.861-.317-1.606-.048-2.019.782-.396.8-.682 1.654-1.011 2.485-.361.901-1.207 1.947-1.937 1.317-2.197-1.898-3.11.146-4.371 1.193-.168-.189-.339-.292-.365-.423-.198-.958 1.347-2.158-.2-2.864-1.229-.559-2.158.365-2.634 1.391-.557 1.202-2.45 2.173-.917 3.862.396.438.869.834 1.376 1.139 2.111 1.27 2.771 2.881 1.91 5.343-.521 1.493.039 3.332 1.922 3.376 1.82.043 1.361-1.783 1.518-3.021.112-.9-.712-2.266.622-2.597 1.121-.278 1.501 1.129 2.12 1.853.973 1.133 1.721 2.47 3.061 3.25.74.433 1.469 1.242 2.377.324.803-.813.772-1.687.345-2.744-.672-1.675-2.627-2.424-3.105-4.272z" fill="#fcbd1f"/><path d="m217.079 129.138c.937 1.177 1.391 1.833 1.931 2.404.679.718 1.442 1.685 2.522 1.142 1.164-.586 1.519-1.813 1.292-3.088-.325-1.854-1.574-3.185-2.724-4.575-.647-.789-1.41-1.756.16-2.32 1.54-.555 1.441-1.907 1.789-3.07-1.26.163-2.628-.312-3.77.461-.646.439-1.161 1.096-1.672 1.706-1.883 2.258-3.969 3.103-6.813 1.554-1.898-1.035-4.141.596-4.094 2.716.01.486.127.789.627.715 1.981-.298.96.839.771 1.582-.186.735-.858 1.475-.183 2.225.713.786 1.552.276 2.19-.1 2.173-1.278 2.438-.195 2.579 1.728.142 1.884-.002 4.702 2.648 4.554 2.617-.148 2.632-2.807 2.607-4.975-.001-.676.071-1.349.14-2.659z" fill="#fcbd1f"/><path d="m214.202 118.338c-.123 1.773-.543 3.78-2.757 3.426-2.104-.336-2.556-2.272-2.146-4.264.1-.483.292-.949.458-1.416.757-2.105-.114-2.775-2.125-2.376-.93.186-2.074.944-2.52-.47-.421-1.337.737-2.004 1.743-2.415 3.09-1.258 5.245-2.878 4.883-6.828-.188-2.055 2.301-3.389 3.781-3.31 1.7.091 3.425 1.732 2.467 4.154-.272.69-.643 1.461.106 1.868 2.789 1.515 2.077 2.523-1.454 3.354 1.439 1.059 2.432 1.504 3.007 2.266 1.314 1.744 1.143 3.876-.415 5.103-1.735 1.369-2.441-.777-3.344-1.842-.185-.218-.377-.435-.819-.942-.858 1.342-.783 2.524-.865 3.692zm-1.327-6.113c.581-2.671 1.609-5.116 3.328-7.273-2.715 1.648-3.864 4.074-3.328 7.273z" fill="#fcbd1f"/><path d="m243.537 120.815c1.414 1.352.92 2.976 1.284 4.375.325 1.252.854 2.907 2.4 2.536 1.851-.443.976-2.003.566-3.209-.246-.729-.445-1.476-.728-2.417 1.927-.153 4.256 2.128 5.188-.388 1.147-3.102-2.436-2.884-4.13-4.332 1.686-1.258 2.833-2.747 2.838-4.777.002-.66-.096-1.504-.877-1.732-.698-.203-.997.501-1.327.977-1.67 2.394-4.045 3.417-6.873 3.652-1.585.131-5.155 3.557-5.388 5.004-.094.586.148.981.542 1.288.431.337.977.351 1.369-.038.619-.613 1.165-1.301 1.928-2.163.273 2.125-1.578 3.602-.877 5.442.224.591.156 1.57 1.084 1.564.649-.004.846-.723 1.092-1.271.641-1.418.454-3.175 1.909-4.511z" fill="#fcbd1f"/><path d="m226.046 114.878c-2.684-1.147-3 .405-2.841 2.547.87.313 1.6-1.53 2.497-.256.734 1.047-.388 1.591-.771 2.323-.229.439-.538.841-.818 1.256-.548.812-.751 1.667-.08 2.48.8.971 1.621.195 2.438-.06 1.182-.367 1.47-1.899 3.224-2.225-.593 3.014-4.438 5.778-.475 8.838 1.712-1.451 1.365-3.956 2.586-5.854 1.313 1.766.521 4.2 2.027 5.813.536.572.854 1.496 1.796 1.365.978-.137.997-1.076 1.211-1.844.577-2.044.642-4.303-.923-5.629-2.323-1.965-1.611-3.454-.078-5.223.376-.437.823-.877.681-1.77-2.676.134-4.041 2.059-5.312 4.103-1.481-2.039 1.049-3.322.699-5.324-1.681.947-2.578 2.204-3.298 3.604-.271.527-.381 1.257-1.162 1.064-.688-.171-.976-.844-.618-1.422.976-1.583-.36-2.588-.817-3.815z" fill="#fcbd1f"/><path d="m226.013 114.846c.513-.307.947.01 1.378.199 1.126.499 2.271.569 2.701-.751.434-1.322-.984-1.416-1.683-1.497-1.499-.172-2.366-2.805-3.642-1.632-1.165 1.074 1.765 2.089 1.277 3.714z" fill="#fcbd1f"/><path d="m203.791 110.043c1.426-.239 2.762-.922 4.191-1.118-1.686-1.085-2.984-.237-4.186 1.126z" fill="#fcbd1f"/><path d="m106.728 222.218c3.031 3.3 6.743 5.851 10.501 8.296 1.762 1.144 3.381 1.285 5.25.032 4.623-3.104 9.366-6.026 14.02-9.086.792-.521 1.465-1.026 2.493-.632.105.979-.705 1.299-1.318 1.672-1.888 1.148-2.96 2.498-3.154 4.979-.238 3.041-3.043 4.426-5.43 5.908-.672.42-2.14.479-1.729 1.59.375 1.018 1.671 1.303 2.817 1.299.992-.002 1.316.148 1.927-.866.37-.615-.091-1.89.216-2.542.35-.74 1.771-1.624 2.138-2.338.402-.791.821-1.563 1.27-2.313.446-.749.511-1.878 1.075-2.537 1.413-1.642 2.987-3.173 5.01-4.508.579-.382.901-.68 1.128-.525.353.242.76 1.364.747 1.98-.043 2.04 1.071 6.461 2.031 10.339.657 2.648 1.31 4.935 1.766 6.353.359 1.113-.187 1.313.396 2.98-.264 1.766.496 3.203 2.163 3.36 1.491.143 2.189-1.327 2.74-2.697 2.411-6.004 2.807-12.497 4.609-18.655.345-1.176.233-2.336.536-2.346.303-.007 1.018 1.139 1.909 1.646 2.374 1.359 3.841 3.832 4.399 6.729.216 1.114.563 2.389 1.603 3.143 1.35.977 1.415 2.229.767 3.602 1.008.504 1.803-.307 2.731.182 1.226.645 1.825-.728 2.214-1.463.551-1.044-.706-1.212-1.325-1.56-2.222-1.249-5.161-3.681-5.198-6.19-.052-3.521-1.523-4.424-3.907-6.29-.751-.586-1.293-1.528-1.5-2.854 3.548.534 6.127 2.767 8.788 4.645 3.822 2.696 7.445 5.683 11.111 8.597 1.43 1.134 2.766 1.293 4.354.306 6.704-4.167 11.86-9.545 14.618-17.147 2.552-7.035.755-9.08-4.079-13.13-3.776-3.165-3.913-2.995-1.775-7.278 3.057-6.133 6.146-12.267 7.689-19.002.701-3.063 1.732-6.112.435-9.334-1.565-3.886-4.401-5.34-8.563-4.444-7.083 1.521-11.932 6.479-17.092 10.938-5.595 4.832-10.351 10.477-15.156 16.063-1.22 1.421-2.34 1.047-2.827-.631-.874-2.985-1.294-4.978-3.065-7.846-.534-.863-.401-2.854-.178-3.857.354-1.592 1.079-3.406 1.794-4.895.595-1.24 1.696-2.733 2.179-4.059-2.541 1.833-3.764 5.004-4.507 7.938-.388 1.525-.697 3.364-1.314 4.873-.339.826-.86 1.584-2.146 1.465-1.346-.123-1.516-1.334-1.577-2.231-.262-3.837-1.988-7.015-4.192-10.007-.344-.467-.795-.856-1.485-1.586.884 2.666 3.025 4.593 3.864 7.188.752 2.321 1.541 4.768-.953 6.896-1.481 1.265-1.235 3.631-1.306 5.633-.037 1.053.782 2.594-.871 3.09-1.583.475-1.937-1.186-2.617-2.02-5.166-6.321-10.439-12.541-16.915-17.577-4.161-3.237-8.607-6.113-13.285-8.519-4.972-2.558-8.164-2.147-9.363 3.977-.614 3.134-.021 6.227 1.104 9.205-.003-.006-.01-.008-.014-.014-.261 2.578.539 4.771 2.373 6.592l-.001-.002c.15.886.521 1.557 1.024 2.104-.016.027-.023.061-.008.102.267.776.813 1.467 1.205 2.182.019.035.044.078.066.119.084.203.169.406.255.606-.002.035-.002.069.013.108.025.076.051.148.073.223.009.051.016.104.021.154-.306 2.607.903 4.552 2.121 6.475 1.432 2.258 1.613 3.631-1.341 5.268-11.272 6.239-7.578 15.367-1.352 22.144z"/><g fill="#fff"><path d="m187.411 171.861c1.441 0 1.779.815 1.013 1.947-1.417 2.076-.755 3.229 1.646 3.612-2.643 3.46-2.839 3.693-1.487 4.853 1.551 1.33.712 1.76-.452 2.213-1.104.433-2.727.578-2.377 2.128.345 1.545 2.104 1.181 3.321 1.405.565.102 1.188-.096 1.78-.146.994-.086 2.309-.235 2.436.969.125 1.185-1.181 1.075-2.055 1.078-1.561.009-2.321.61-1.669 2.224.938 2.311.124 5.342-1.876 6.551-.805.486-2.309.935-2.24-.256.058-1.039-.833-2.817 1.089-3.535.72-.269 1.552-1.452.871-1.883-2.088-1.322-.051-2.387.245-3.621-3.648 1.054-3.971 1.455-4.253 4.955-.021.266-.16.646-.361.752-1.844.966-1.495 2.582-1.367 4.186.06.768.068 1.537-.66 2.176-3.426 3.002-7.518 1.813-8.498-2.547-.125-.552-.431-.6-.798-.598-1.705.009-3.152 2.355-2.27 3.816.436.721 1.082 1.334.247 2.028-.634.529-1.517.46-2.306.231-1.143-.334-.889-1.166-.585-1.933.701-1.771-.302-1.834-1.616-1.707-.626.063-1.26.78-1.971-.03.615-1.885 2.111-3.025 3.628-4.151.737-.547 1.544-1.154 1.209-2.19-.325-1.018-1.257-1.158-2.225-1.078-.776.065-1.738.358-2.146-.541-.483-1.072.319-1.863.945-2.651.676-.847 2.098-1.411 1.242-2.913-1.344-.059-1.517 1.697-2.885 1.816.63-2.527 2.584-3.279 4.531-4.043h.002c.204-.263.422-.429.703-.09-.144.116-.289.233-.433.352-.744 2.184-2.047 4.6 2.159 4.427.898-.037.959.729.891 1.529-.116 1.353.301 2.686-.238 4.084-.49 1.271.367 2.114 1.633 2.276 1.334.174 1.32-.769 1.67-1.82.762-2.312.017-4.738.854-6.977.285-.757 1.532-1.402.591-2.267-.801-.733-1.654.166-2.447.506-.366.158-.717.392-1.101.469-.75.146-1.655.696-2.231-.054-.527-.688-.128-1.563.354-2.209.591-.798 1.285-1.518 1.95-2.258.847-.94 2.188-1.495 2.573-2.918-1.169-.412-2.292 1.033-2.967-.125-.637-1.086.662-1.703 1.2-2.478.169-.245.381-.466.595-.673 1.084-1.055 2.504-2.533 3.782-1.229 1.119 1.14 1.34 3.41.56 4.92-1.896 3.654-1.98 3.74 2.147 4.55-1.837 1.53 1.367 4.069-1.379 5.42-1.956 1.003-4.115 1.875-1.418 4.451.772.735-.301 1.188-.778 1.579-1.391 1.138-2.788 2.599-1.751 4.287.994 1.617 3.076.793 4.716.679.629-.043 1.192-.433 1.146-1.134-.063-.895-.854-.605-1.386-.642-.938-.057-2.324.577-2.64-.573-.343-1.256 1.186-1.629 2.036-2.232.481-.344 1.074-.53 1.593-.826.689-.395 1.542-.803 1.504-1.688-.041-.955-.95-1.209-1.749-1.338-1.388-.226-1.754-.768-.691-1.869 1.057-.545 2.061-1.383 3.182-1.582 2.23-.398 2.606-1.184 1.079-2.864-.646-.708-.561-1.396.041-2.138.478-.582 1.536-1.021 1.14-1.912-.418-.937-1.407-.268-2.141-.303-.794-.039-1.753.135-2.088-.777-.35-.942.578-1.354 1.147-1.885 1.02-.943 2.77-1.08 3.28-2.906-.956-.079-1.741-.118-2.522-.217-.793-.094-1.372-.34-.894-1.348.309-.646 1.558-1.154.762-1.957-.716-.721-1.663.098-2.5.324-.451.12-.953.298-1.531-.398 1.423-1.73 3.143-3.19 5.034-4.437.864-.569 2.103-.535 1.888.751-.403 2.42.913 2.403 2.567 2.403z"/><path d="m138.981 205.279c.729.341 2.178-.984 2.087.488-.082 1.342-1.559.771-2.481.592-.879-.172-1.766-.392-2.585-.737-1.434-.606-1.602-1.642-.772-2.903 2.168-3.299 1.194-6.215-2.711-8.003-.545 1.104.265 1.914.624 2.787.453 1.089.464 2.039-.787 2.438-1.854.593-1.335 1.363-.287 2.238.567.473 1.116.963.684 1.758-.422.772-1.211.563-1.883.481-3.103-.378-5.973-1.61-8.955-2.428-3.543-.972-5.668-3.253-5.075-6.689.789-4.571-4.581-6.866-3.526-11.284.014-.055-.125-.145-.188-.223-.942-1.213-4.167-2.002-.696-4.051.438-.26-.057-1.087-.338-1.629-1.064-2.061 1.305-4.149-.002-6.241-.007-.015.42-.351.678-.466 2.547-1.146 4.594-.16 5.65 2.766-.292.041-.569.117-.845.113-.717-.014-1.628-.93-2.083.179-.324.785.696 1.063 1.144 1.543 1.091 1.167 2.218 2.3 3.279 3.491.452.51 1.062 1.165.665 1.859-.422.732-1.236.367-1.923.242-.731-.133-1.6-.873-2.176.076-.653 1.077.364 1.621 1.03 2.146 1.116.877.975 1.577-.103 2.346-.596.424-1.894-.176-1.848 1.035.042 1.151 1.284 1.071 2.055 1.431 1.063.493 2.155.926 3.234 1.381 2.165 3.225-1.637 2.051-2.39 2.965.617 2.33 3.763 2.127 4.178 4.547-1.324.633-2.832-.313-4.1.772 1.688 1.867 3.78 2.123 5.452.94 1.831-1.297.088-2.458-.824-3.637-1.191-1.537.146-2.879 1.184-3.429.896-.475 2.236.418 3.098 1.259.28.273.085.93-.317.969-3.213.32-2.336 1.789-1.045 3.457.325.421.265.957-.089 1.389-.407.493-1.303.848-.54 1.671.533.579 1.274.573 1.961.345.919-.306 1.962-1.515 1.675-1.843-1.776-2.032.208-3.731.255-5.562.048-1.904-1.304-3.477-1.365-5.264.828-.5 1.347-.037 1.899.102.935.232 1.793.24 2.38-.698.526-.84.575-1.651 0-2.519-.466-.705-1.37-1.457-.5-2.348.657-.672 1.742-.406 2.135.205.535.835 2.602 1.141 1.364 2.663-.688.847-.198 1.243.143 1.781.698 1.108 1.718 2.368.749 3.526-.884 1.061-2.217.252-3.308-.252-.354-.164-.728-.382-1.095-.019-.342.333-.271.651-.055 1.049 1.321 2.422 3.771 2.792 5.865.894.886-.805 1.786-1.705 3.146-.899 1.16.688 2.179 1.46 1.641 3.039-1.102.161-.856-1.713-2.168-1.244-.763 1.073 1.042 3.149-1.248 3.673-.585.135-1.5-.509-1.412.758.067.984.724 1.373 1.644 1.353 1.115-.028 2.333-.296 2.898 1.053.075.175.435 1.853.146 1.815-.302-.041-.592-1.203-.845-1.412-.646-.531-1.813-.438-1.538 1.438.075.512-.371.922-.962.912-.766-.016-1.989-.98-1.974.686.011 1.264 1.358.788 2.096 1.129z"/><path d="m167.453 216.631c1.306 1.124 14.433 9.939 17.114 9.771 1.156-.071 2.733 1.32 3.281-.642.483-1.735.405-3.577-1.429-4.799-.661-.442-5.699-2.142-5.699-2.142-3.11-.821-11.461-4.354-16.634-4.334.768 1.516 2.421 1.333 3.367 2.146z"/><path d="m194.452 211.668c-.617-.275-1.27-.482-2-.755.862-.953 2.865-.821 2.325-2.405-.346-1.015-1.819-.984-2.906-1.005-4.396-.082-10.433.66-15.387 1.216 2.409.872 7.331.493 9.808 1.786-6.28 0-13.854-.188-19.387-.188 3.746 1.906 10.604.369 14.391 2.517-3.428 0-8.296-.337-11.724-.337-.075.146-1.613-.114-1.689.036 3.665 1.436 11.98 4.644 16.295 6.36 0 0 4.14 1.989 6.036 1.736.792-.107 1.718 1.037 2.458.073.701-.909-.567-1.587-.604-2.438-.061-1.287-1.438-1.574-1.998-2.686 1.488-.379 2.866-.721 4.238-1.085.734-.196 1.819-.144 1.767-1.214-.044-.82-.88-1.281-1.623-1.611z"/><path d="m120.894 189.965c-.013.021-.016.037-.031.059-.005-.002-.01-.004-.016-.006-.004-.009-.009-.016-.015-.023.021-.015.042-.02.062-.03z"/><path d="m120.247 188.656c-.796-1.486.024-4.324 1.475-4.385 3.098-.127 1.93-1.697 1.241-3.103-.392-.795-.971-1.512-1.531-2.214-1.151-1.441.413-2.104.843-3.091.451-1.034 1.192-1.193 2.203-.806 2.27.871 4.238 2.088 5.537 4.356-1.771.592-2.655-1.341-4.423-1.274 1.193 2.094 2.857 3.558 3.797 5.53 1.07 2.245.301 2.804-1.928 2.763-1.196-.018-2.317-1.238-3.776-.271.936 1.461 2.675 3.077 2.986 4.668-2.164-.614-3.956-1.819-5.777-.867.437-.732-.417-.873-.647-1.306z"/><path d="m195.595 178.182c-.604 3.631-3.202 2.602-5.837 2.668 1.123-2.188 3.133-2.541 4.589-3.599.699-.51 1.689-.999 1.188-2.101-.467-1.02-1.488-.82-2.38-.688-.953.144-1.841.815-2.88.351.043-1.09.933-1.459 1.646-1.971 1.014-.728 2.727-1.236 2.188-2.773-.493-1.418-2.131-1.096-3.424-1.01-.254.021-.52-.146-.784-.225.069-.982 1.736-1.355 1.114-2.268-1.17-1.721-2.59 1.194-4.077-.108 1.16-1.707 2.713-2.188 4.558-1.384 1.214.529 2.281.615 3.369-.16.743-.533 1.542-1.18 2.367-.28.985 1.068-.287 1.487-.768 2.104-.759.974-1.024 1.922.564 2.068.854.077 1.999-1.099 2.391.514.304 1.24-.553 1.978-1.638 2.521-.963.484-1.871 1.588-.639 2.237 2.806 1.481 1.033 2.047-.303 2.899-.485.315-1.166.744-1.244 1.205z"/><path d="m179.526 226.195c.711.673 1.772 1.439.816 2.465-.979 1.051-1.807-.069-2.512-.668-4.647-3.94-9.576-7.471-14.939-10.381-.585-.316-1.475-.975-1.228-1.924 3.609.317 17.165 9.847 17.863 10.508z"/><path d="m185.69 201.691c.938-.373 2.071-.467 2.414.89.241.948-.373 1.556-1.254 1.705-4.355.729-9.048 1.313-13.295 1.748 3.963-1.759 8.186-2.77 12.135-4.343z"/><path d="m108.745 171.682c.642.463 1.373 1.016 1.042 1.938-.347.962-1.266.752-2.057.755-1.318.002-2.294-.452-2.777-1.786-.301-.827-.686-1.562-1.557-2.081-1.744-1.041-1.411-1.895.408-2.527.613-.213 1.82-2.141 2.151-1.533.332.605 1.109 4.017 2.79 5.234z"/><path d="m159.592 193.029c.974-.563 1.341-.229 1.763.685.608 1.32 2.254 1.146 3.333 2.021-.979 1.498-2.019 2.897-3.563 3.848-.535-1.288.958-2.061.909-3.5-.541.172-1.002.26-1.411.452-1.042.485-1.465-.132-1.775-.946-.394-1.03-.383-1.907.744-2.56z"/><path d="m187.97 185.886c1.839-.731 2.97-1.672 3.842-3.127.678-1.129 2.321-.833 3.604-.715.223.021.612.392.587.544-.205 1.212-1.409 1.249-2.2 1.795-.566.391-1.1.855-1.573 1.356-1.133 1.197-2.348 1.411-4.26.147z"/><path d="m161.104 199.632c0-.011 0-.024 0-.036h-.001c.008-.005.014-.01.021-.014.005.014.008.023.013.039-.011.004-.022.009-.033.011z"/><path d="m163.231 203.131c1.146.12 1.44 1.133 1.04 1.993-.409.875-1.313.853-1.995.17-.514-.517-.789-1.062-1.621-.272-1.368 1.297-1.782-.084-1.77-.992.028-1.752.077-3.653 2.219-4.396.005 1.583-.226 3.257 2.127 3.497z"/><path d="m102.997 173.021c1.097 1.783 2.592 3.047 4.755 3.396.729.117 1.25.848.976 1.605-.39 1.082-1.131.209-1.729.143-1.772-.202-2.982-.906-4.358-2.027 0 .001-1.059-2.147.356-3.117z"/><path d="m102.292 176.152-.017-.014z"/><path d="m110.345 168.706c-.895-.37-1.965-.41-2.885-1.593 1.122-.49 1.974-1.066 2.893-1.204.879-.134 1.717.394 2.225 1.219.283.461.28.952-.067 1.378-.639.785-1.46.495-2.166.2z"/><path d="m191.925 205.938c.377.097 1.078.567.027 1.059-.753.326-5.318.018-8.817.018-2.278-.016-6.217.614-7.869.393 1.625-.292 5.188-.733 6.213-.918 3.477-.376 6.949-1.427 10.446-.552z"/><path d="m104.648 182.727c.007.002.015.004.021.008 0 .001-.021-.008-.021-.008z"/><path d="m105.185 179.993c2.397-.328 2.46 2.338 3.605 3.76-2.629.755-2.741-.43-3.773-1.272 0-.002-1.447-2.266.168-2.488z"/><path d="m119.606 171.326c.019.004.032.011.052.013l-.045.062c-.001-.027-.006-.049-.007-.075z"/><path d="m116.274 168.563c1.434.535 3.213.66 3.332 2.764-1.557-.377-2.551-1.44-3.332-2.764z"/><path d="m119.657 171.339c.02.032.037.065.057.099-.035-.016-.067-.025-.101-.037 0-.003.044-.062.044-.062z"/><path d="m119.785 171.529c-.029-.026-.052-.062-.071-.094.069.025.14.049.209.076-.046.007-.115.039-.138.018z"/><circle cx="152.955" cy="183.13" r="1.103"/><circle cx="147.297" cy="183.13" r="1.103"/><path d="m114.275 190.145c-.186.518-1.86-.021-3.58-.635-1.719-.613-3.112-1.877-2.926-2.398.186-.518 1.878-.1 3.598.515 1.718.611 3.094 1.996 2.908 2.518z"/><path d="m113.186 193.146c1.302 1.049 1.209 1.383.752 1.953-.459.569-1.139.861-2.204-.427-1.059-1.278-2.156-1.368-1.698-1.94.458-.568 1.851-.632 3.15.414z"/><path d="m114.887 197.255c.705.565.55.442.302.751s-.645.424-1.088.076c-.709-.555-1.168-.741-.92-1.052.249-.307 1.003-.342 1.706.225z"/><path d="m194.78 215.837c-.002.002-.007.005-.009.007-.015-.031.009-.007.009-.007z"/><path d="m194.771 215.844c.08.162.274.233.502.201.185.98-.994 1.88-1.836 1.839-.145-.718.692-1.739 1.334-2.04z"/><path d="m195.983 209.716c.483-.333.813.479.751.862-.033.203-.288.558-.563.408-.147-.078-.186-.526-.228-.67z"/><path d="m194.668 205.507c.217-.233 1.13.806.641 1.156-.65.467-.857-.921-.641-1.156z"/><path d="m104.47 205.521c-.008-.002-.019.002-.027 0-.003-.037-.012-.071-.021-.103z"/><path d="m104.443 205.521c.058.479-.496 1.531-.968 1.043-.292-.304.578-1.089.968-1.043z"/><path d="m190.373 222.352c.198-.078.426-.053.643-.045.097 1.064-1.494 2.471-2.29 1.588-.043-1.036 1.647-1.543 1.647-1.543z"/><path d="m182.709 228.011c.367-.608 1.492-.224 2.104-.2l-.149.049c.651.033.658.502.149.854-.352.244-.999.176-1.416.151-.536-.034-1.035-.28-.688-.854z"/><path d="m115.29 226.104c.508-.168 1.101.261 1.402.555h-.201c.295.171 1.186.584.537 1.092-.461.359-1.172-.234-1.538-.492-.418-.294-.948-.904-.2-1.155z"/><path d="m109.418 221.344c.33-.422 1.175-.281 1.563.004l.149.199c.438.268.524.706.141 1.092-.355.358-.924.291-1.34.074-.462-.238-.887-.891-.513-1.369z"/><path d="m105.632 216.648c.349-.222 1.195.152 1.493.291l-.251-.103c.834.294-.483 1.952-1.344 1.054-.194-.202-.197-1.049.102-1.242z"/><path d="m102.879 210.648c.177-.305.138-.377.542-.332.252.025.608.229.646.463l-.25-.053c.405.31 1.126.412.689 1.053-.326.479-1.182.971-1.679.543-.515-.447-.228-1.186.052-1.674z"/><path d="m108.036 201.964c.182-.296.421-.162.691-.1v-.052c.432.154-.101.901-.554.654-.196-.107-.279-.271-.137-.502z"/><path d="m190.355 202.583c.137-.028.332-.117.332-.117.367-.013.608.032.723.394.078.256.071.639-.197.771-.48.233-.943-.629-.858-1.048z"/><path d="m154.873 201.477c.146-.457.484-.402.838-.552.338-.141.45-.452.49-.827.063-.617-.146-1.25.226-1.765l.074-.076c.516.117.587.905.716 1.315.1.316.368.656.336 1.013-.049.536-.655.66-.97 1.092-.224.304-.236.837-.571 1.036-.356.211-.749.646-.979.203-.19-.372-.291-1.029-.16-1.439z"/><path d="m104.64 163.471c.315-.294.621-.626 1.072-.477.159.055.356.178.481.293.037.033.063.068.086.105l-.007-.018c.075.063.07.146.125.229.058.086.141.133.214.198.091.077.275.265.297.4.06.428-1.05.347-1.299.356-.287.012-1.034.188-1.23-.078-.222-.295.024-.788.261-1.008z"/><path d="m108.09 219.311c-.055.138-.112.275-.167.414.126-.066.253-.132.378-.199.799-.006 1.613.086 2.392-.041 2.083-.338 2.718.693 2.311 2.49-.589 2.601.321 3.228 2.775 2.56 1.123-.308 2.371-.159 3.514-.216.61.556.013.929-.027 1.349-.111 1.124-.93 2.548.234 3.274.999.625 2.135-.407 2.896-1.119 5.354-5.012 11.89-8.293 18.599-12.582-4.532-.012-8.348 2.088-11.993 2.775 2.702-2.029 6.534-2.933 10.155-4.552-4.084-.935-9 .595-12.108.91.861-1.38 3.469-1.167 4.674-2.133-1.34-.826-5.389.278-6.44-.211.323-1.089 4.57-.565 4.843-2.079-2.187 0-4.548-.324-7.271-.324 1.883-1.277 3.933-.117 5.533-1.479-2.546-.295-5.813-.635-8.113-.9.207-1.088 2.616-.086 2.938-1.381-2.006-.362-5.179-1.244-7.295-1.626.897-1.494 3.371.821 4.275-.392-2.207-1.689-4.921-2.356-7.447-3.384-.763-.312-1.424.155-1.454 1.019-.01.269-.071.428-.113.66-.023.125 1.625.375 1.793.498.046.032.179.15-.061.354-.097.083-1.92-.013-1.975.095-.462.911-1.374 1.295-2.771.969-1.597-.365-2.3-.254-2.114 1.529.101.98-.288 1.756-1.137 2.277-.515.316-.764.902-.252 1.176 3.479 1.877 1.043 3.79-.283 5.883 1.698.184 3.038.326 4.425.475-.252 1.368-.484 2.638-.714 3.911zm5.997-15.896c0-.173.18-.312.4-.312.222 0 .401.139.401.312 0 .175-.18.315-.401.315-.22 0-.4-.14-.4-.315z"/><path d="m152.219 202.239-.075-.226c.021.036.036.073.053.107.006.042.019.082.022.119z"/><path d="m142.934 206.205c1.5 3.427.803 7.121 1.387 10.645.212 1.271.712 2.433.358 3.786-.402 1.548-.381 5.169.295 6.556.342.707 1.699 7.787 2.917 11.289.384 1.102.396 2.33.576 3.504.37.774.291 2.186 1.29 2.135 1.373-.069 1.248-1.583 1.509-2.604.263-1.029.896-2.369-.729-2.699-1.693-.346-2.146-1.256-1.908-2.758.298-1.873 1.594-1.322 2.771-1.123.667.112 1.229-.182 1.32-.892.114-.881-.396-1.253-1.256-1.253-.597.002-1.213.011-1.79-.119-1.256-.287-2.275-.871-2.137-2.406.158-1.752 1.469-1.16 2.498-1.238 1.5-.106 3.49.927 4.343-.809.651-1.334.414-3.105.57-4.684-1.408-.105-3.051-.477-1.559 1.972.441.726.256 1.884-.797 2.271-1.052.391-2.161.32-3.165-.313-.924-.588-.869-1.506-.794-2.41.018-.229-.015-.702.443-.545 1.905.654 2.042-.591 1.972-1.89-.07-1.288.457-2.861-1.754-3.162-1.238-.166-1.077-1.68-.502-2.113 1.394-1.055 2.984-1.977 4.64-2.51 1.165-.374.813 1.352 1.953 2.243 1.319-3.906 1.609-7.636 1.165-11.581-.774.918-1.131 1.861-2.669 1.689-1.952-.22-3.971.166-5.962.271-.858.043-1.65-.086-1.667-1.201-.019-1.063.742-1.355 1.593-1.386 1.599-.058 3.204 0 4.8-.06 1.771-.067 2.439-.856 1.384-2.486-1.075-1.665-1.182-3.33-.271-5.09.455-.879.357-1.758-.262-2.53-1.244-1.552-.69-2.753.867-3.925.563 1.054 1.128 2.105 2.043 3.817.035-3.202-.438-5.569-1.223-7.75-.864-2.391-3.641-2.368-5.337-2.021-1.879.387-4.13 1.143-4.356 4.371-.191 2.705-.095 5.754-1.874 8.277-.7.991-.594 2.381-.219 3.504.482 1.439.308 2.739-.174 4.084-.132.378-.413.859-.289 1.144zm11.031-18.717c.161-.313.252-.539.553-.379.185.098.19.291.19.291-.063.516.488.594.225 1.156-.162.35-.644.569-.978.225-.333-.345-.173-.933.01-1.293zm-2.985 13.8c.572-.519 1.267.243 1.378.834.217.463.237.889-.241 1.196-.62.393-1.286.406-1.578-.346-.174-.445.107-1.379.441-1.684zm.65-8.479c-.854-.297.065-2.05.523-1.5l.074.075c.691.246.274 1.723-.597 1.425zm-2.53-4.414c1.385-.6 3.674.437 3.394 1.166s-2.255 1.107-3.639.336c-.498-.282-.38-1.233.245-1.502zm5.345 22.899c.001-.374.104-1.444.678-.789l.037.073c.222.109.2.376.312.555.149.236.265.273.29.571.035.448-.342 1.353-.932.933-.312-.223-.385-.987-.385-1.343zm-1.427-1.805v.075c-.38-.149-1.008-.834-.668-1.277.248-.327 1.109-.234 1.417-.077.373.188.813.761.49 1.169-.248.307-.938.309-1.239.11zm-4.846 1.316h-.15c.374-.076.563-.173.861.076.231.191.414.523.501.821.044.155.065.467.051.812.308-1.248.982-1.658 2.271-1.966.694-.166 1.421.013 1.747.688.236.492.423 1.193.248 1.656-.318.851-1.102.476-1.777.368-1.044-.165-1.524-.485-2.554-.151-.08.428-.23.789-.483.853-.646.162-.754-1.343-.788-1.69-.057-.568-.459-1.084.073-1.467zm-1.694 14.118c.058-.258.325-.784.595-.858.323-.086.438.188.386.49l.111.035c0 .542.132 1.088.076 1.616-.042.401-.503 1.319-.969.856-.277-.277-.28-1.771-.199-2.139z"/></g><path d="m85.868 108.748c-1.563 1.737-2.808 4.334-4.9 2.824-1.733-1.25.174-2.959 1.503-4.441-2.723-.004-3.393 1.874-3.763 3.579-.338 1.553-.123 3.317 2.114 3.561 1.703.188 1.889 1.504 2.215 2.771.124.479.392.983 1.026.745.199-.075.462-.545.394-.682-1.403-2.78.146-4.885 1.527-7.049.121-.192-.039-.56-.116-1.308z"/><path d="m92.944 120.574c-3.145-1.801-4.671-4.069-4.682-7.86-1.404 2.177-2.795 5.184-2.157 5.582 1.782 1.114 3.551 3.189 6.839 2.278z"/><path d="m90.592 88.753c-.848-.167-1.189.429-1.671.739-1.333.856-2.389 1.251-1.848-1.086.114-.494.209-1.026-.469-1.183-.57-.133-.955.209-1.187.678-.549 1.112-.842 2.241-.02 3.37.977 1.338 2.382.965 3.543.628 1.47-.426 2.214-1.54 1.652-3.146z"/><path d="m88.919 77.608c-.785 2.041-3.047.973-4.217 1.802-1.433 1.012.03 2.881.75 3.844.814 1.092.962-.5 1.359-1.009.847-1.08 2.468-1.273 3.03-2.735.351-.91.34-1.513-.922-1.902z"/><path d="m89.821 110.931c-1.399-2.331-2.321-4.437-2.181-6.841.022-.365-.237-1.007-.843-.993-.21.006-.499.321-.606.562-.564 1.262 1.771 6.458 3.63 7.272z"/><path d="m80.918 119.665c.622-1.961.379-3.405-1.024-4.516-.542-.429-1.231-.839-1.886-.251-.773.696-.063 1.251.346 1.758.739.92 1.528 1.799 2.564 3.009z"/><path d="m101.455 136.326c-.434.277-1.228.562-.733 1.134.51.588.914-.151 1.247-.556-.17-.19-.341-.384-.514-.578z"/><path d="m98.02 267.511c.004.005.008.013.011.019-.008.002-.013.002-.021.002-.182 2.375 1.846 2.49 3.226 2.643 1.242.137 2.019-1.171 2.189-2.455.188-1.419.602-2.941.276-4.265-.593-2.413.704-2.47 2.392-2.55 2.288-.11 3.618 1.166 4.937 2.82 1.173 1.467 2.306 4.112 4.589 2.914 2.021-1.063 1.047-3.508.579-5.432-.687-2.818-1.294-5.656-4.212-7.178-.546-.283-.926-.827-.688-1.496.258-.727.953-.565 1.532-.625 3.313-.352 6.594.214 9.804.766 2.666.453 4.582-.125 6.346-2.023 2.025-2.184 1.83-3.592-1.175-3.852-3.909-.335-6.927-2.391-10.161-4.045-2.921-1.494-5.325-1.4-7.983.68-4.801 3.75-8.66 4.101-12.229 1.221-3.065-2.477-3.405-6.285-3.536-9.771-.287-7.674-.246-15.366-.01-23.041.092-3.032.717-6.046.593-9.13-.061-1.555.552-2.9 2.309-3.795 3.239-1.65 3.247-3.704.216-5.813-1.029-.715-2.045-1.297-1.984-2.717.276-6.396-1.625-12.647-1.217-19.051 1.123-3.541.267-7.169.483-10.751.041-.698.015-1.409.139-2.093.293-1.618-1.017-3.869 1.49-4.646 2.255-.699 4.688-2.053 6.698.642.277.372.835.776 1.254.766 4.132-.096 8.253 1.289 12.348.336 1.512-.352 3.003-.758 4.366-.208 2.42.979 3.98-.099 4.963-1.966.913-1.737 2.192-3.046 3.497-4.422 2.677-2.828 2.579-6.2-.279-8.849-.978-.905-1.188-1.925-1.365-3.145-.225-1.551-.448-3.464-2.262-3.877-1.987-.452-4.051-.719-5.907.982-3.082 2.821-4.057 2.773-7.595.47-.433-.281-.976-.65-.552-1.126.7-.786.826-2.225 2.175-2.289 2.896-.137 5.578-2.039 8.698-.751 1.438.593 2.942-.091 3.717-1.721.391-.824 1.001-1.382 1.892-1.797 4.367-2.038 4.874-7.681.859-10.233-1.329-.845-1.907-1.814-1.493-3.157.613-1.989.924-3.649-1.453-4.736-2.37-1.083-4.277-.285-5.994 1.245-1.205 1.072-2.387 2.022-3.98 2.537-5.726 1.847-6.111 1.789-10.69-3.009 4.135.515 7.197-2.703 11.282-2.023 1.909.318 2.743-1.81 2.893-3.542.146-1.68.475-3.024 1.916-4.136 1.217-.939 1.543-2.582 1.679-4.032.229-2.469-1.788-3.812-4.2-2.815-3.052 1.265-5.989 1.301-8.881-.354-1.546-.886-3.04-.793-4.528.109-.848.514-1.665.669-2.441-.142-.425-.446-.77-.834-.431-1.559.529-1.137 1.505-.81 2.341-.803.884.007 1.778.142 2.646.322 2.557.524 5.136-1.222 5.315-3.813.11-1.605.142-3.133.989-4.613.539-.938.699-2.701-.074-3.099-3.202-1.641-5.141-5.125-8.645-6.066-1.608-.432-3.511.274-5.284.403-.763.056-1.847.239-1.821-.925.027-1.189 1.174-.883 1.88-.839 2.207.142 4.215-.189 5.627-2.072.839-1.115 1.447-2.267.905-3.817-.696-1.982-.945-4.064-.762-6.188.188-2.193-1.308-3.375-2.999-4.009-1.668-.627-3.384-.167-4.573 1.354-.723.926-1.214 2.309-2.695 1.933-1.577-.403-.867-2.014-1.297-3.037-.737-1.759-.457-3.564-.411-5.335.07-2.698-1.421-3.847-3.783-4.066-2.695-.248-4.735 1.336-4.595 3.898.151 2.782-1.47 5.455-.303 8.263.382.923-.438 1.488-1.057 1.941-.634.464-1.313.255-1.925-.23-.801-.636-1.457-1.38-1.805-2.345-.813-2.265-2.688-2.202-4.47-1.854-1.979.387-2.714 1.9-2.532 3.828.267 2.846 1.01 5.621.254 8.569-.315 1.23 1.104 1.946 2.468 1.935 1.695-.014 3.375-.038 5.007.619 1.214.488 2.358 1.026 1.707 2.545-.56 1.303-1.555 2.066-3.125 1.218-.866-.468-1.869-.685-2.73-1.162-2.734-1.509-5.715-.934-7.119 1.745-.76 1.454-1.717 1.7-3.116 1.663-1.25-.033-2.899-.447-3.349 1.196-.434 1.591-.748 3.405.724 4.782 1.111 1.038 1.813 2.266 2.458 3.654 1.011 2.176 2.82 3.239 5.333 2.369 1.128-.391 2.454-1.15 3.413-.386.914.728 3.232.603 2.619 2.157-.533 1.346-2.346 3.248-4.014 2.243-4.385-2.641-9.441-.502-13.888-2.433-1.506-.654-2.65.524-2.835 2.159-.134 1.188-.35 2.508.018 3.582 1.075 3.152 2.397 6.221 3.698 9.292.163.383.769.801 1.188.821 3.322.163 5.633 3.617 9.502 2.472-4.108 5.055-4.572 5.022-9.415 2.16-1.857-1.099-3.859-1.814-5.113-3.736-1.117-1.71-2.55-.458-3.765-.126-1.297.354-2.567 1.232-2.125 2.793 1.441 5.08-3.89 8.29-3.501 13.121.079.97-1.346.613-2.252.346-.885-.262-2.265-.75-2.507.598-.247 1.368 1.401 1.087 2.193 1.476.548.27 1.518.251 2.022-.07 2.861-1.815 4.771-.081 6.295 1.857 1.891 2.404 3.697 3.408 6.55 1.528 1.41-.93 3.313-.99 4.15.737 1.032 2.12 2.615 3.13 4.95 3.427-2.269 2.231-7.324 2.339-9.354.323-1.32-1.312-2.663-2.292-4.666-2.293-4.118-.002-5.314 1.316-4.59 5.426.233 1.321-.18 2.288-1.155 3.178-2.492 2.272-2.494 4.962-.136 7.56 1.129 1.245 1.197 2.852 1.357 4.415.462 4.511 2.963 5.974 7.091 4.136 1.612-.717 3.103-.301 4.799-.096 3.563.43 7.244-.095 10.872-.316.379-.022.751-.627 1.077-1.004.932-1.082 1.501-2.862 3.465-2.069 1.959.787 4.127 1.297 4.335 4.139.415 5.699.201 11.396.122 17.093-.017 1.334-1.214 2.205-2.567 2.61-3.203.955-3.813 2.963-1.563 5.622 1.909 2.247 3.555 4.533 3.15 7.693.003 5.576.007 11.148.01 16.726-.606 3.63.63 7.287-.133 10.92-.041.192.074.453-.02.593-1.688 2.485-2.246 4.728-2.035 7.272.287 3.463 1.757 7.241 1.527 10.688-.22 3.308-.191 6.607-3.512 8.284-3.458 1.743-6.986.765-10.323-.771-.805-.37-1.516-.956-2.234-1.489-2.34-1.743-4.521-1.528-6.83.206-1.902 1.43-3.708 3.048-5.945 3.99-.693.295-1.231.714-1.225 1.525.008.975.776 1.285 1.505 1.652 1.531.777 3.229.768 4.668.24 3.239-1.188 5.616.455 8.025 2.025 1.421.926.708 1.521-.54 1.9-2.345.718-4.385 1.945-5.922 3.891-1.04 1.315-1.809 2.76-.55 4.336 1.243 1.551 2.797 1.602 4.553.797 1.873-.86 3.58-2.141 5.872-1.955 1.424.113 2.395.343 2.144 2.01-.23 1.543.415 2.941.641 4.406.412 2.681 1.808 3.215 3.795 1.439 2.433-2.168 3.123-4.941 2.655-8.129-.292-1.986-.171-3.846 1.981-5.029 1.602-.882 2.315-.428 2.321 1.184.006 1.856.26 3.473 1.541 4.99.804.953.424 2.385-.318 3.375-3.634 4.865-.24 8.592 2.007 12.453.864 1.487 2.489 1.696 4.009 1.256 1.738-.504 1.374-2.115 1.124-3.293-.318-1.498-.655-2.354 1.494-1.65 1.975.646 2.834-.866 2.876-2.439.064-2.328.25-4.701-.931-6.947-1.148-2.184-2.468-4.289-2.929-6.826-.324-1.786-.007-3.34 1.443-4.139 1.485-.815 2.521.771 3.455 1.644 1.438 1.334 1.543 3.12 1.077 4.998-.584 2.35-.843 4.721.396 6.979.344.623.786 1.166 1.633.975.001-.008 0-.016.001-.021.003-.001.007-.001.009.001"/><path d="m47.822 143.336c.391 1.802 2.045 1.627 3.461 1.48.864-.09 1.717-.311 3.006-.556-.745 1.585-1.311 2.81-1.896 4.023-.755 1.567-.786 3.09.294 4.521.561.741 1.386.906 2.146.467 1.487-.86 1.707-2.353 1.694-3.909-.007-.948-.001-1.897-.001-3.417 1.679 1.535 1.117 3.276 1.992 4.491.935 1.297 2.005 2.26 3.452 1.441 1.398-.788 1.496-2.242.565-3.652-.331-.497-.594-1.041-.866-1.575-.281-.544-.572-1.18.062-1.601.44-.292.934.051 1.359.352 1.117.79 2.314 2.095 3.657.675 1.394-1.477.75-2.891-.694-4.087-.506-.42-.693-1.094.263-1.272 1.718-.319 1.878 1.556 2.939 2.198.913.553.731 1.346.063 2.009-1.066 1.061-1.506 2.39-1.478 3.815.024 1.222-.308 2.925 1.458 3.164 1.688.229 3-.895 3.176-2.524.247-2.267.063-4.578.62-6.982.75 1.843 1.45 3.708 2.269 5.521.597 1.323 1.51 2.626 3.153 2.169 1.516-.42 1.332-1.958 1.495-3.27.276-2.223-1.507-3.749-2.067-5.676.996-.348 1.469.093 1.933.382.922.576 1.847 1.576 2.912.574.834-.785.922-1.999.565-3.105-.643-1.995-1.76-3.773-1.178-6.144.312-1.267-1.295-2.068-2.526-2.615-1.141-.508-1.644-1.438-1.479-2.672.163-1.238.669-2.21 2.334-2.523-.118 1.425-2.045 2.547-.416 3.839 1.605 1.274 2.1-.985 3.461-1.103-.174 2.71.347 5.069 2.571 6.937.798.67-.953 2.537 1.148 3.426.468-2.454 1.756-4.758.898-7.388-.313-.957-.36-1.879.455-2.436.856-.584 1.404.397 2.042.8 1.044.661 2.117 2.128 3.354.864 1.162-1.184 1.451-2.855.201-4.366-1.196-1.448-1.308-2.391.029-4.246.872-1.21.868-4.198-.658-6.125-.602-.759-1.681-1.669-.579-2.524 1.274-.986 2.275.178 2.926 1.17 1.163 1.772.856 3.837.88 5.828.014.956-.176 2.512 1.13 2.362 2.628-.301 2.656 1.089 2.476 2.921-.117 1.181.524 1.976 1.575 2.251 1.325.347 1.684-.718 2-1.7.184-.566.31-1.168.969-1.461.681 1.248-.445 2.473.038 3.778.625 1.681 1.503 3.122 3.408 2.5 1.865-.609 1.148-2.395.608-3.549-.912-1.95-2.171-3.736-3.251-5.534 1.88-2.069 4.07 5.095 5.916-.432.104 1.518.081 3.058.359 4.541.146.777.2 1.977 1.364 2.078 1.07.093 1.427-.956 1.958-1.652.874-1.153.559-2.618.769-4.073 1.851 1.092 1.522 3.25 2.85 4.355.908.756 1.896 1.938 3.106 1.067 1.093-.789-.1-1.784-.423-2.64-.492-1.293-1.235-2.525-.637-4.067 1.917.373 2.619 2.426 4.333 3.063.887.331 1.756.762 2.461-.084.729-.874.112-1.705-.442-2.424-.689-.894-1.628-1.481-2.661-1.895-2.335-.93-2.713-2.413-1.358-4.471.701-1.066 1.766-2.201.189-3.355-1.433-1.045-2.829-.402-3.722.718-1.604 2.011-3.644 3.108-6.083 3.407-2.273.279-2.794 2.779-4.719 3.449-.683-1.029 1.175-2.501-.513-3.204-1.472-.616-2.729.063-3.749 1.177-1.136 1.238-2.194 2.339-3.895.618-.719-.727-1.635.39-2.799.285 1.308-3.269-1.674-4.344-3.141-6.235-.292-.374-.765-.703-1.219-.844-2.615-.815.61-3.291-1.229-4.254-1.34-.7-3.519-.578-2.398-3.253.504-1.209-.802-2.15-1.382-3.176-1.212-2.137-.849-3.613 1.232-4.925.527 1.355-1.54 3.436.789 4.086 1.926.539 1.521-2.019 2.707-2.727 1.213 1.355.975 2.645-.021 3.972-.548.731-.954 1.55-.688 2.516.285 1.036 1.249 1.34 2.068 1.533 1.044.248 1.228-.72 1.484-1.49.271-.812.615-1.595.985-2.539 1.464 1.181 1.43 2.846 2.237 4.046.449.667.941 1.466 1.875 1.167.771-.248.723-1.073.788-1.792.063-.721-.421-1.846.631-2.039 1.079-.199 1.352.961 1.784 1.718.295.517.521 1.087.883 1.549.425.545.954 1.173 1.754.779 1.003-.496.586-1.336.335-2.089-.356-1.067-1.938-2.332-.783-3.137 1.366-.953 2.361.863 3.428 1.668.635.48 1.277.955 1.958 1.366.875.528 1.708.583 2.287-.465.479-.866.655-1.715-.316-2.366-.576-.386-1.356-.647-1.058-1.547.358-1.08 1.346-.599 2.06-.646 1.184-.079 2.325-.155 3.36-1.129-.849-.947-1.758-.558-2.579-.531-.895.031-1.933.434-2.654.111-5.06-2.252-10.279-2.416-15.625-1.542-.739.121-.6-.436-.729-.929-.603-2.294-1.604-2.691-4.296-1.61.869-2.975 2.981-5.951-1.141-8.75 2.721-.202 4.815-1.792 5.75 1.766.466 1.779 3.039 1.636 3.978-.075.366-.668.526-1.45.906-2.544 1.286 1.208 1.979 2.713 3.463 3.362 1.072.47 1.987.472 2.667-.478.847-1.185-.351-1.582-1.023-2.005-1.945-1.221-1.301-1.906.43-2.39 1.082-.304 2.508-.656 2.073-1.966-.413-1.243-2.008-1.282-3.163-.933-2.018.609-3.944 1.149-6.31-.354 1.594-.812 3.174.01 4.177-1.171.554-.651 1.083-1.246.561-2.101-.446-.729-1.077-.626-1.83-.367-3.541 1.218-6.916 1.352-10.307-.839-1.843-1.191-2.054-.866-2.271-2.782-.848-.57-.972.266-1.309.676-.367.445-.888.714-1.172.104-.7-1.505.613-2.602 1.026-3.868.41-1.255 1.154-.438 1.847-.079 1.491.775 2.919 1.152 4.187-.556 1.199-1.613 2.275-.029 3.371.348 1.008.347 2.107 1.206 2.881-.176.63-1.123-.23-1.898-1.091-2.461-1.91-1.254-1.972-2.211.395-2.807 1.166-.294 1.671-1.002 1.61-2.162-.053-1.058-.371-2.042-1.438-2.428-1.237-.449-1.759.64-2.382 1.376-1.537 1.821-3.146 3.417-5.861 2.671-1.734-.476-2.814-1.851-2.25-3.308.965-2.498.037-4.955.477-7.405.273-1.527-.55-2.922-2.185-3.05-1.91-.15-2.527 1.413-2.621 2.993-.13 2.189-.014 4.392-.072 6.587-.041 1.584.862 3.596-1.532 4.287-2.313.667-4.327.096-5.852-1.841-.556-.703-.995-1.499-1.57-2.181-.443-.525-.994-1.083-1.796-.704s-.604 1.164-.647 1.847c-.061.953.292 1.792.805 2.531.739 1.067 1.114 2.062.197 3.234-.454.578-.627 1.288.039 1.883.693.622 1.593.68 2.204.105 2.094-1.973 2.852-.892 3.882 1.185 1.412 2.844 2.422-.722 3.758-.499 1.704 3.045-3.333 9.957-6.149 9.958-1.71 0-2.695-1.137-3.876-2.032-2.328-1.768-3.64-1.42-4.185 1.419-.352 1.826-1.171 2.167-2.659 1.644-.774-.271-1.505-.608-2.302-.242-.624.289-1.349.578-1.272 1.464.068.78.718.837 1.315.932 1.816.286 3.541.584 1.355 2.836-.515.53-.542 1.396-.027 1.936.711.75 1.73.595 2.5.135 1.208-.725 2.113-1.814 2.901-2.996.398-.6 1.003-1.077 1.773-.887.882.219.722 1.094.851 1.741.097.486.074.998.097 1.497.047 1.084.74 1.723 1.687 1.771 1.007.049 1.086-.941 1.319-1.706.371-1.219-.223-2.636.923-3.921.918 2.046 2.708 3.056 5.396 4.473-3.68.023-4.304 1.803-4.874 4.208-.896 3.785-6.567 6.164-10.328 4.548-1.91-.822-3.638-1.431-5.692-.521-1.141.505-2.346-.055-3.5-.406-1.119-.342-2.447-.998-2.997.717-.448 1.396-.068 2.736 1.501 3.084 1.836.407 2.11 1.661 2.054 3.119-.056 1.446-.255 3.209 1.485 3.415 1.483.174 1.339-1.647 1.692-2.729.114-.351.374-.655.887-1.525.481 2.392-.391 4.802 2.392 5.503.979.247 1.939.137 2.316-.823.96-2.444.05-4.382-2.218-5.888 2.366.045 4.112.508 4.346 3.071.106 1.174-.566 2.883 1.397 3.119 1.894.228 1.729-1.527 2.199-2.646.187-.443.479-.84.85-1.479 1.241 1.939 2.485 3.615 5.016 3.038.559-.127.993.334.907.897-.14.91-.948 1.079-1.624.884-2.597-.749-5.092.193-5.64 2.41-.953 3.863-5.221 4.263-6.584 7.427-.292.675-.843 1.293-1.602 1.157-4.384-.788-8.528-2.171-11.676-5.538-.638-.682-1.108-1.571-2.149-1.119-1.109.481-1.763 1.448-1.292 2.684.828 2.173.496 4.024-.993 5.823-.775.939-2.014 2.162-1.018 3.407 1.297 1.622 2.074-.844 3.476-.777-.191 1.46-.235 2.925.109 4.368.395 1.652 1.281 2.818 3.108 2.501 2.104-.365 1.767-2.114 1.635-3.588-.052-.566-.44-1.1-.649-1.656-.187-.499-.192-.999.308-1.322.42-.271.729.021 1.037.294.297.262.595.571.949.708 1.163.446 2.497 1.565 3.564.463 1.045-1.077.127-2.388-.531-3.53-.354-.613-1.521-1.309-.625-1.979.993-.741 1.524.518 2.029 1.159.751.952 1.184 2.067 1.2 3.322.005.486.07 1.374.216 1.397 4 .626 1.317 2.13.53 3.479-.543.931-.552 2.05.473 2.66.946.563 1.97.25 2.702-.587.317-.363.585-.854.665-1.324.377-2.179-.427-6.124 3.688-2.26.489.459 1.15.027 1.576-.442.597-.659.542-1.438.419-2.262-.168-1.117-1.625-1.565-1.385-3.141 2.381.438 3.398 3.23 6.242 3.181-3.178 2.073-4.877 4.667-5.961 7.793-1.581 4.558-5.205 6.554-9.994 7.088-3.658.408-6.517.124-9.014-2.803-1.004-1.177-2.896-1.377-4.061-.157-1.327 1.39.087 2.508.994 3.548.482.555 1.633.737 1.259 1.771-.333.923-1.383.608-2.106.861-.471.165-.962.274-1.446.396-1.415.355-2.943.832-2.549 2.652zm36.207-50.093c2.642.211 3.411 1.796 1.988 4.091-.814 1.314-2.219 2.404-1.048 4.225.134.209-.076.853-.319 1.042-.472.364-1.03.09-1.238-.386-.753-1.725-2.634-1.922-4.36-3.139 1.716-.714 3.264-.488 4.3-1.569.802-.834 1.669-1.714-.095-2.47-.622-.267-1.58-.453-1.312-1.304.314-.991 1.386-.546 2.084-.49zm5.813-13.734c-.563 1.462-2.184 1.655-3.03 2.735-.397.51-.544 2.101-1.359 1.009-.72-.963-2.183-2.832-.75-3.844 1.17-.829 3.432.238 4.217-1.802 1.261.39 1.272.993.922 1.902zm-4.443 11.762c-.822-1.129-.53-2.258.02-3.37.23-.469.616-.811 1.187-.678.679.157.583.689.468 1.183-.542 2.337.516 1.942 1.849 1.086.481-.31.824-.905 1.671-.739.562 1.606-.182 2.72-1.649 3.146-1.163.337-2.57.711-3.546-.628zm4.422 19.66c-1.858-.814-4.193-6.01-3.629-7.272.107-.241.396-.556.606-.562.604-.014.865.628.843.993-.141 2.404.78 4.51 2.18 6.841zm-1.558 1.783c.011 3.791 1.537 6.059 4.682 7.86-3.289.911-5.058-1.164-6.839-2.279-.639-.397.753-3.404 2.157-5.581zm-7.441 1.557c-2.237-.244-2.453-2.008-2.114-3.561.37-1.705 1.04-3.583 3.763-3.579-1.329 1.482-3.236 3.191-1.503 4.441 2.093 1.51 3.338-1.087 4.9-2.824.077.748.237 1.116.116 1.307-1.381 2.165-2.931 4.27-1.527 7.049.068.137-.194.607-.394.682-.635.239-.902-.266-1.026-.745-.327-1.266-.512-2.583-2.215-2.77zm.096 5.394c-1.037-1.21-1.825-2.089-2.564-3.008-.408-.507-1.119-1.063-.346-1.758.654-.588 1.344-.178 1.886.251 1.404 1.109 1.646 2.554 1.024 4.515z" fill="#fcbd1f"/><path d="m98.01 267.509.01.002.011.016z" fill="#fcbd1f"/><path d="m54.873 246.068c.359.484.971.529 1.328.289 2.876-1.924 5.109-.569 7.19 1.375 1.891 1.764 4.198 2.182 6.633 2.332.548.033 1.3-.19 1.512.59.191.707-.425 1.018-.883 1.404-2.108 1.786-4.598 2.756-7.226 3.459-1.755.469-3.457 1.063-4.528 2.688-.254.385-.739.819-.195 1.276.46.389.983.16 1.319-.235.711-.843 1.361-1.661 2.521-2.008 5.734-1.729 8.469-.073 9.05 6.485.091 1.03-.794 2.896.799 2.936 1.402.031.942-1.934 1.153-3.03.308-1.614-.203-3.182-.779-4.667-.846-2.175-.265-3.798 1.5-5.229 1.952-1.584 3.933-3.036 6.383-3.81 1.257-.397 1.905-.397 1.791 1.154-.289 3.928-.015 7.759 1.748 11.396.497 1.027.027 2.111-.466 3.154-2.038 4.305-1.131 8.116 2.584 11.27 1.346-1.145.5-2.424.121-3.594-.431-1.328-1.021-2.59-1.068-4.023-.05-1.508.558-2.604 2.051-2.865 1.538-.27 2.486.624 2.752 2.104.178.994.344 1.963.99 2.987 1.413-1.325 1.758-2.729 1.01-4.499-.599-1.41-1.368-2.766-2.474-3.725-5.047-4.383-2.963-9.633-1.93-14.746.309-1.523 1.796-1.25 2.218-.5 1.199 2.123 3.471 2.632 5.184 3.938 2.415 1.844 3.532 3.823 2.348 6.948-1.078 2.843-1.378 5.83.51 8.586.826.238 1.645 1.156 2.479.488.973-.782.289-1.836.012-2.767-.224-.766-.569-1.508-.699-2.285-.518-3.114 1.424-5.283 4.574-5.032 3.034.246 5.501 1.669 7.431 4.008.692.841 1.331 1.729 2.383 3.101.489-3.274-.546-5.262-2.6-6.871-2.084-1.637-4.629-2.305-6.979-3.387-1.6-.731-4.084-1.525-3.755-3.294.286-1.553 2.821-.75 4.343-.753 2.77-.002 5.325-.07 7.266-2.596 1.21-1.573 2.977-1.359 4.604-.332 2.168 1.367 4.489 1.998 7.934 1.413-3.893-1.929-7.057-3.653-10.353-5.076-2.373-1.022-4.177.726-6.016 1.881-2.179 1.371-4.126 3.065-7.012 3.005-6.068-.123-10.134-3.688-10.208-9.792-.147-12.313-.075-24.634.004-36.95.014-2.205.516-4.406 2.658-5.713 1.389-.846.764-1.628-.076-2.334-1.6-1.353-2-3.119-2.021-5.104-.106-10.309-.225-20.613-.4-30.92-.043-2.492.36-4.941.168-7.473-.299-3.961-.752-7.693-4.262-10.458-.786 1.771.099 3.802-.487 5.652-3.251-1.641-3.993-1.145-3.996 2.716-.007 8.514-.023 17.024.082 25.535.028 2.367-.289 4.174-3.136 4.359-1.857.119-1.613 1.373-.868 2.268 3.422 4.126 3.43 8.969 3.331 13.936-.128 6.408-.038 12.818-.043 19.227 0 .503-.119 1.039.02 1.497 1.135 3.753-3.257 6.841-1.512 10.431 1.747 3.59 1.129 7.321 1.113 10.877-.041 8.651-4.762 11.143-13.985 9.219-1.499-.313-2.858-1.389-4.229-2.202-3.858-2.288-6.279-1.684-8.911 2.286zm33.446-65.459c.119-12.24-.307-23.797.693-35.964 1.852 3.257 1.336 32.899-.693 35.964zm.304 6.916c1.418 2.896 1.477 3.529.379 5.379-.031-1.908-1.253-3.502-.379-5.379zm-.333 29.882c.46.007.92.015 1.379.021-1.362 7.614-.047 15.254-1.379 22.764 0-7.594 0-15.19 0-22.785zm2.134-20.639c-1.966 5.103.07 10.58-1.348 15.762-.263-5.301-2.378-10.723 1.348-15.762z" fill="#fcbd1f"/><path d="m119.029 145.254c1.014 1.59 2.657 2.396 3.201 4.107.382 1.204.439 2.131-.65 2.901-1.265.891-1.976.016-2.77-.816-1.54-1.611-1.54-3.922-2.738-6.333-.673 2.438-1.152 4.322-1.727 6.179-.287.927-.916 1.552-2.017 1.39-1.329-.195-1.104-1.244-1.078-2.097.07-2.298 1.229-4.163 2.473-5.997.519-.766 2.15-1.453 1.352-2.29-1.031-1.081-1.791.565-2.611 1.147-.243.171-.45.401-.638.635-1.363 1.688-2.685 1.995-3.99-.068-.265-.418-.601-.814-1.483-.673.403 1.619.926 3.212 1.169 4.847.251 1.674.539 3.809-1.726 4.156-2.042.313-2.44-1.813-2.813-3.271-.417-1.641-.396-3.393-.645-5.914-.93 1.98-1.333 3.237-2.05 4.279-1.167 1.692-2.634 4.248-4.804 3.034-2.542-1.423-.595-3.615.544-5.345.493-.749 1.119-1.498.69-2.468-.486-1.095-1.529-.723-2.38-.746-1.76-.05-4.425.293-4.438-1.756-.013-2.188 2.721-2.066 4.59-2.212.69-.053 1.394-.003 2.078-.093.598-.078 1.271-.27 1.383-.961.378-2.327 2.047-4.825-.847-6.767-1.139-.764-1.025-1.86-.528-2.939.23-.503.134-1.352.911-1.384.95-.042 1.081.786 1.068 1.473-.027 1.478.679 2.404 1.89 3.151 3.055 1.885 3.165 2.667 1.008 5.901-.434.277-1.228.562-.733 1.134.51.588.914-.151 1.247-.556.646-.135 1.121-1.218 1.793-.643.555.472.185 1.266-.138 1.938-.367.762-1.56 1.036-1.248 2.389 1.862-.573 2.728-2.626 4.66-2.951 1.964-.33 3.961-.92 3.698 2.407.937-.903 1.584-2.153 2.871-1.446 2.737 1.504 4.732 1.014 6.13-1.836.375-.766 1.23-1 1.993-1.238.975-.303 1.812-.029 2.307.884.526.968.007 1.741-.683 2.372-2.557 2.338-2.564 2.325.506 3.905.533.274 1.046.59 1.563.894 1.112.652 2.656 1.263 1.775 2.876-.825 1.515-2.203.749-3.438.249-1.437-.582-2.582-2.194-4.727-1.448z" fill="#fcbd1f"/><path d="m99.92 112.893c-1.75-.444-1.215-2.257-1.878-3.188.082-.82.382-1.726.946-1.359 1.172.757 1.316 2.29 1.788 3.532.147.385-.415 1.127-.856 1.015z" fill="#fcbd1f"/><path d="m102.98 116.238c-.658.025-1.062-.749-1.138-1.576.383-.613.684-1.425 1.589-1.482.867-.055 1.229.652 1.193 1.354-.048.959-.773 1.671-1.644 1.704z" fill="#fcbd1f"/><path d="m91.039 136.016c-.723-.275-.857-.814-.563-1.42.313-.642.287-1.709 1.405-1.552.777.11.795.812.619 1.379-.226.733-.527 1.486-1.461 1.593z" fill="#fcbd1f"/><path d="m96.612 44.45c3.499-.359 6.562-2.192 9.5-3.781 6.706-3.627 13.74-6.182 21.122-7.826 4.292-.956 8.484-.153 12.617 1.278 2.921 1.012 5.888 1.903 8.553 3.488 1.377.819 2.441.609 3.852-.008 5.791-2.538 11.501-5.71 18.124-4.996 5.74.619 11.349 2.013 16.625 4.455 4.43 2.05 8.796 4.233 13.238 6.254 1.137.518 2.322 1.563 4.019.536-12.426-6.625-24.368-13.911-39.099-12.536-4.602.429-8.968 1.746-13.032 3.926-1.472.788-2.654.881-4.16.017-8.952-5.143-18.375-4.894-28.009-2.327-6.619 1.762-12.563 4.951-18.454 8.305-1.673.953-3.479 1.673-5.221 2.5.109.238.215.476.325.715z"/><path d="m165.217 48.23c-3.951-.862-9.655 2.246-12.527 4.018-2.054 1.268-3.383 1.186-5.25-.1-2.748-1.89-7.127-4.677-11.638-3.918 4.697 1.225 10.118 4.476 13.521 7.172.269.213.633.437.877.437.122 0 .556-.126.806-.354 3.328-3.034 9.777-6.443 14.211-7.255z"/><path d="m136.552 39.725c4.247.864 8.685 4.208 11.555 6.336.653.484 1.897 1.065 1.897 1.065s1.516-.525 2.356-1.225c2.646-2.201 6.732-5.237 10.79-6.276-2.251-.831-5.824.674-7.063 1.791-4.396 3.965-8.271 2.566-12.548-.188-2.044-1.316-4.393-1.901-6.987-1.503z"/><path d="m247.409 37.469c-1.43 2.446-3.407 3.252-6.139 3.428-10.423.666-20.229-1.869-29.71-5.736-8.219-3.351-16.192-7.296-24.384-10.717-5.827-2.433-11.832-3.957-18.352-2.914-5.153.827-10.151 2.063-14.998 3.911-1.767.672-2.343.389-2.271-1.519.096-2.498.064-5.003.003-7.503-.033-1.356.294-2.153 1.771-2.626 11.056-3.553 22.124-4.753 33.468-1.188 10.417 3.272 20.118 8.193 30.124 12.418 9.089 3.837 18.542 5.268 28.404 4.102 2.429-.287 4.865-1.137 7.878-.531-2.111 3.206-4.096 5.958-5.794 8.875z" fill="#fcbd1f"/><path d="m48.352 28.36c.698.018 1.401.073 2.087.194 10.149 1.801 20.162 1.292 29.785-2.478 7.804-3.057 15.434-6.569 23.112-9.942 11.825-5.194 23.962-7.43 36.75-4.193 8.327 2.107 8.334 2.079 8.333 10.533-.002 3.743-.025 3.801-3.688 2.391-11.914-4.587-23.593-4.838-35.365.852-7.275 3.516-14.523 7.16-22.134 9.964-9.253 3.41-18.654 5.932-28.657 5.172-1.594-.121-3.391.045-4.422-1.388-2.488-3.455-4.81-7.031-7.367-10.81.837-.165 1.203-.304 1.566-.295z" fill="#fcbd1f"/><path d="m44.311 30.617c-1.057.767-1.305 1.662-1.597 2.488-4.681 13.315-14.61 21.333-27.088 26.7-2.916 1.255-6.028 2.05-9.031 3.11-.595.211-1.593.121-1.574 1.076.014.75.684 1.317 1.361 1.433 7.889 1.344 15.655 3.742 23.644-.33 8.9-4.536 15.476-11.119 20.197-19.799 1.373-2.523 1.249-4.687-.424-6.944-1.84-2.482-3.581-5.037-5.488-7.734z" fill="#fcbd1f"/><path d="m256.851 32.098c1.695 4.154 3.188 8.396 6.135 11.922 7.875 9.429 17.753 15.632 29.653 18.675.842.215 2.336.055 2.295 1.38-.035 1.11-1.278 1.383-2.263 1.64-4.173 1.095-8.446 1.4-12.727 1.628-2.302.123-4.633.163-6.801-.76-10.603-4.515-18.685-11.743-23.781-22.184-.818-1.679-.9-3.28.135-4.825 1.993-2.979 4.054-5.914 6.372-9.289.524.961.799 1.368.982 1.813z" fill="#fcbd1f"/><path d="m164.553 18.462c-2.669-.176-5.086.575-7.457 1.513-.494.194-.827.581-.738 1.139.105.664.705.744 1.13.55 2.346-1.07 5.081-1.263 7.065-3.202z"/><path d="m161.682 15.22c-2.017-.433-3.519.012-4.928.816-.581.333-1.358.766-.818 1.605.488.759 1.017.08 1.503-.176 1.292-.686 2.588-1.37 4.243-2.245z"/><path d="m69.996 31.96c-4.311-.429-8.564.294-12.805-.408-.499-.082-1.054.104-1.165.681-.115.6.369.883.869.989 4.502.96 8.903.797 13.101-1.262z"/><path d="m69.041 35.505c-2.695 0-5.392-.014-8.086.015-.442.005-1.103-.124-1.176.582-.074.706.401 1.175 1.043 1.201 2.844.113 5.742.464 8.219-1.798z"/><path d="m258.724 50.014c-1.977-3.577-4.42-6.274-5.756-9.621-.188-.471-.625-.828-1.184-.69-.707.175-.824.795-.826 1.41-.009 2.229 4.731 7.951 7.766 8.901z"/><path d="m259.767 45.382c-1.899-3.653-3.378-6.544-4.375-9.631-.13-.404-.536-.685-.923-.509-.59.266-.735.846-.816 1.486-.369 2.917 2.192 7.047 6.114 8.654z"/></svg>