<svg fill-rule="evenodd" height="8.07087in" image-rendering="optimizeQuality" shape-rendering="geometricPrecision" text-rendering="geometricPrecision" viewBox="0 0 7480 8070" width="7.48031in" xmlns="http://www.w3.org/2000/svg"><path d="m3727 7967c1483-9 3136-1117 3064-3650 39-1039 57-1579 108-2618 41-385 211-518 456-500 65 2 72-29 43-60-145-135-309-336-669-814-9-9-29-9-28 0 19 167-68 212-247 153-883-276-1797-414-2727-414-929 0-1844 138-2727 414-179 59-266 14-247-153 1-9-14-9-22 0-310 478-499 694-651 828-19 22-22 50 28 49 244-18 406 112 447 497 71 1039 103 1579 173 2618 1 266 20 515 56 749 130 1915 1869 2901 2943 2901z"/><path d="m3727 7811c1529 0 2806-1190 2909-3064 29-1056 65-2112 93-3169 4-317 131-507 341-608-79-167-184-306-293-442-22-18-48-30-62 7-35 52-115 45-216 12-917-266-1790-395-2772-395s-1855 129-2772 395c-101 33-181 40-216-12-14-37-40-25-62-7-108 136-214 275-293 442 211 101 337 291 341 608 29 1057 65 2113 93 3169 16 1892 1380 3064 2909 3064z" fill="#078930"/><path d="m7070 970c-79-167-184-306-293-442-22-18-48-30-62 7-35 52-115 45-216 12-917-266-1790-395-2772-395s-1855 129-2772 395c-101 33-181 40-216-12-14-37-40-25-62-7-108 136-214 275-293 442 884-503 2229-756 3343-756s2339 253 3343 756z" fill="#fff"/><path d="m384 970c884-503 2229-756 3343-756s2339 253 3343 756" fill="none" stroke="#000" stroke-linecap="round" stroke-linejoin="round" stroke-width="20"/><path d="m725 1591 125-143 480 553h-240l480 552 481-552h-240l480-553 480 553h-240l481 552 480-552h-240l480-553 481 553h-241l481 552 480-552h-240l480-553 481 553h-240l480 552 480-552h-240l481-553 114 130c4-317 131-507 341-608-1004-503-2229-756-3343-756s-2459 253-3343 756c207 100 333 284 341 593v15z" fill="#fcdd09"/><path d="m725 1591 125-143 480 553h-240l480 552 481-552h-240l480-553 480 553h-240l481 552 480-552h-240l480-553 481 553h-241l481 552 480-552h-240l480-553 481 553h-240l480 552 480-552h-240l481-553 114 130" fill="none" stroke="#000" stroke-width="28"/><path d="m6439 5792-5660-2401c-7-224-14-449-21-673l5830 2472c-34 212-85 412-149 602zm-309 660c103-169 193-351 268-546l-5615-2382c6 223 13 446 20 668z" fill="#fff"/><g fill="none" stroke="#000" stroke-width="28"><path d="m732 2707 5880 2494"/><path d="m6460 5801-5700-2418"/><path d="m6408 5910-5639-2392"/><path d="m6150 6460-5355-2271"/></g></svg>