<svg xmlns="http://www.w3.org/2000/svg" height="556" width="474"><path class="st0" d="M3.6 3.8v307.874C3.6 444.564 104.058 552.2 237 552.2s232.337-107.64 233.4-240.526V3.8z" fill="#fff"/><path d="M342.282 179.146c24.315 32.005 39.387 60.642 35.23 79.142-11.232-17.23-23.082-25.06-33.698-34.72-19.863-18.072-8.977-37.154-1.532-44.422zm17.36 127.05c11.497-18.738 16.196-35.91 5.106-52.627-15.223-22.948-46.1-26.369-35.231-1.919-4.72-.97-8.525-3.35-11.233-10.467-3.063 4-3.007 7.351-1.021 12.51-7.865-3.31-12.909-8.905-11.233-18.892-4.992.115-9.187 2.222-12.255 7.148-.386-5.045 1.598-25.863 14.297-20.424-2.811-6.03-.325-11.97 3.574-16.083 5.087 7.185 10.03 13.998 17.025 12.597-4.309-15.194-9.485-24.974 6.718-45.02-5.294-9.557-7.112-19.087-3.32-30.636-9.742-11.648.4-30.437-3.573-45.953 3.898.891 7.164 3.364 9.701 7.659 1.003-6.912 1.619-12.928.51-19.403 3.915-.34 7.49 2.043 10.723 7.149 1.808-5.992.827-10.91.766-15.573 4.322 2.157 7.677 5.927 9.957 11.488 1.897-3.17 2.498-9.583 3.063-16.084 3.87 4.096 5.46 8.762 6.638 13.531 2.455-3.866 4.715-9.509 4.595-17.36 3.413 6.127 7.767 12.254 6.638 18.381 3.413-1.845 5.584-7.417 7.659-13.275 1.584 5.95 3.994 11.78 1.02 18.381 3.263-.341 6.099-3.239 8.681-7.659 2.617 8.892 1.795 17.045-6.893 22.466 3.17 8.393 1.834 14.406-.255 20.169-3.196-7.654-6.848-10.281-10.723-10.467 1.675 7.147 1.202 12.162-1.276 19.657-4.904-8.267-8.99-10.466-14.552-11.488 3.615 5.907 4.616 9.183 3.063 15.318-5.52-1.4-11.948-2.227-14.807 2.808-4.33 7.626-9.637 3.108-12.985 5.164-3.548 2.178-2.796 6.99-1.822 10.41 1.532 5.378 3.064 9.084 4.595 11.743 12.191-6.709 24.658-6.809 37.529 2.808 17.392-7.96 24.201 15.155 38.55 7.914-.703 3.893-2.202 6.99-5.617 8.17 7.246 3.842 12.489 9.185 14.297 17.105-3.458-2.784-9.51-5.127-12.254-4.34 4.796 8.406.996 20.075-6.128 26.295-2.53-7.684-5.167-15.117-9.7-18.126-3.782 1.213-6.13 4.075-8.17 10.212-1.604-17.917-20.402-26.311-15.063-41.103-8.765-7.318-18.471-7.11-28.593-3.574 7.292 9.23 14.365 17.345 22.21 28.338 8.73 12.23 17.326 39.245 14.808 59.74-1.907 15.518-5.83 30.236-15.318 42.89z" fill="#da121a" fill-rule="evenodd" stroke="#000" stroke-width="3" stroke-linecap="round" stroke-linejoin="round"/><path d="M278.458 74.985c-15.783-7.498-38.95-10.642-57.47-10.928 1.5-7.47-.833-18.238-4.312-29.409-3.937-12.637 8.703-6.786 8.17-1.531 2.813-3.53 13.969.033 6.637 9.19-1.875 2.343 1.886 6.882 6.638 6.638 3.74-.192 8.608-1.204 6.127-5.106-4.022-6.324.975-13.093 8.17-7.404-1.555-5.38 3.353-8.166 6.382-7.403 6.509 1.64 7.705 6.611 4.85 10.978 6.35.195 7.839 10.266 1.787 10.211-.062 7.629 3.923 6.279 6.894 7.404 4.68 1.773 6.369-1.439 6.127-4.085-.725-7.923 3.99-9.248 9.7-5.361 4.806-7.335 18.015-2.245 6.128 7.914-5.283 4.516-10.552 10.298-15.828 18.892z" fill="#0f47af" fill-rule="evenodd" stroke="#000" stroke-width="3"/><path d="M338.197 303.73l-80.674 3.575c-16.253-18.686-35.312-34.606-66.377-46.464-3.92-1.497-2.008-6.861 0-10.722-10.104 4.951-15.151 8.638-19.913 12.254.815-5.399-.95-7.357-2.042-10.212-14.897 6.426-29.875 12.126-45.443 12.51-1.452 2.887-2.248 5.155-10.212 1.531-2.117 2.796 15.492 10.39-3.574 15.573-8.072 2.195-11.13 4.792-12-9.7-.192-3.212-7.523-3.677-10.466 5.616-4.684 14.784-4.947 13.768-16.084 3.063-4.415-4.244-6.22-7.89-5.23-10.033 1.782-3.863 11.043 2.323 7.528-7.327-1.453-3.987-13.971 4.225-11.489-11.744 1.98-12.732 2.948-11.13 6.638-10.467 3.06.815 8.027 7.264 10.467 2.553 1.911-3.688-14.998-5.29 3.064-17.615 12.393-8.457 11.956-4.567 14.35 7.947 1.184 6.185 7.102 8.82 8.627 8.902 8.036.43 35.125-15.814 39.826-19.913 5.352-4.666-.054-9.037-4.34-11.488-6.6-3.773-13.51-7.04-20.935-5.872.325-1.803 1.158-3.22.766-5.616-.454-2.779-4.247-2.39-7.403-2.553 3.688-4.25 1.588-8.6-9.702-11.489-1.041 9.162 1.636 12.431-10.977 7.66-9.903-3.748-7.019-3.523-6.638-11.49-6.212 2.753-10.776 17.456-18.637 0-7.928-17.603 12.294-13.528 12.51-18.125.195-4.155-13.648 1.175-6.127-15.573 8.19-18.239 16.339 2.08 19.147-2.553-4.35-17.98-1.755-16.868 8.935-18.892 17.28-3.272 6.509 12.434 8.68 20.934 4.088 15.999 15.761 23.06 28.594 27.827 9.391 3.49 21.365 7.886 32.167 11.233 4.375.326 5.787-3.489 6.893-6.127-8.159-.606-14.22-3.31-17.615-8.68 9.948.3 19.99-4.665 26.806-13.02 6.693-8.204 20.454-13.362 15.573-21.445-2.695-4.463-7.912-6.088-12.765-6.638-10.735-1.215-8.625-10.53-1.276-10.977 4.244-.259 8.273-.204 13.02 4.34 4.1 3.924 12.219 11.454 12.254-3.574.012-5.048 1.885-12.558-5.617-13.786-7.413-1.214-15.028-.556-22.466-2.043-3.676-.735-9.22-6.944-6.637-15.573 2.317-7.74.207-17.29 10.722-16.594 4.963.328 10.542 1.095 15.318-3.574 2.356-2.304 5.804-4.412 9.701-5.106 6.413-1.143 43.992 2.247 47.996 6.127 5.18-2.272 10.203-4.148 14.041-3.064.024 4.96.897 6.579 1.277 7.66 3.063 8.729 6.611 12.555 11.488 13.785l-6.893 4.34c3.36 5.134 8.047 7.88 14.807 6.893 0 0-2.042 4.85-6.638 8.17 7.79 5.168-.08 25.698 11.744 35.23 0 1.225-7.148.595-10.212-2.297-2.471 3.482 3.013 16.587 8.17 22.21-3.97-.906-5.757.048-9.957-2.552-.653 11.406.824 22.547 4.595 29.104-4.084.059-6.637-1.125-9.956-3.575-.403 12.04.404 21.658 2.042 29.615-5.339-.672-10.02-2.713-14.807-6.127 2.594 6.601 5.407 12.11 8.68 15.318-5.625 10.035 3.722 24.62 10.467 33.954 13.802 19.098 29.002 33.787 46.209 44.677z" fill="#da121a" fill-rule="evenodd" stroke="#000" stroke-width="3" stroke-linecap="round" stroke-linejoin="round"/><path d="M3.6 308.61C5.219 434.937 96.783 554.768 237 552.2c158.338-2.9 233.4-126.818 233.4-245.603-22.904.88-28.664-11.98-55.562-11.615-26.898.365-36.794 11.863-63.723 11.615-26.93-.249-23.604-9.246-50.575-10.252-26.97-1.005-25.234 10.388-54.892 10.872-29.659.484-44.186-9.718-68.613-10.426-24.428-.708-33.38 9.506-57.117 9.808-23.737.302-25.55-8.777-54.873-8.868-29.323-.092-30.757 10.264-61.445 10.88z" fill="#0f47af" stroke="#000" stroke-width="3" stroke-linecap="round" stroke-linejoin="round"/><path d="M186.726 369.21c.148 1.804 2.979 5.657 4.036 9.088 1.383 2.524 1.298 8.256 2.212 9.147 2.81-2.686 3.725-6.395 2.424-10.486-.952-2.992-6.067-8.045-8.672-7.75z"/><path d="M59.045 379.716c32.433-16.032 71.453-23.83 114.594-26.474 60.666.657 122.935 16.997 183.623 23.123 3.657 11.433 2.683 21.94 2.01 32.506-35.014-.47-67.864 6.634-101.194 12.064-41.638 4.942-82.5 14.535-126.656 4.357-27.365-4.803-42.557-13.396-61.83-22.245 10.902-6.437-3.893-16.378-10.546-23.33z" fill="#fff" stroke="#000" stroke-width="2.64" stroke-linejoin="round"/><path d="M189.225 430.644c5.017 4.161 8.785 8.322 12.732 12.483 17.07-2.73 33.18-6.615 51.266-8.126-5.285-3.485-8.77-7.484-12.565-11.394-1.038.291-1.993.247-3.03 1.78 1.59 5.077 3.541 5.07 2.778 5.22-.756.15-7.097-5.81-9.204-4.848-.51.749 2.275 5.573 1.91 5.922-.295.282-5.182-5.521-7.617-5.17-1.226 1.072 2.337 5.837 2.095 6.246-.4.676-6.696-5.394-8.876-5.034-1.032.547 2.02 6.042 1.901 6.128-.995.715-6.359-6.272-7.943-5.969-.952 1.138.975 7.1.7 7.017-.378-.114-4.497-5.664-8.017-6.735-.71 2.507 3.548 8.734 3.672 8.69.13-.047-8.84-7.841-10.247-7.183-1.955.26 5.322 8.431 4.068 8.563 0 0-5.924-5.483-9.132-7.786-1.458-.594-3.246-.487-4.492.196zM289.575 365.805c4.688-3.854 8.578-7.121 15.33-10.975 5.104 3.596 12.09 3.658 18.177 5.78-4.938 2.534-8.682 5.465-11.728 8.63l-3.105-.556c-3.623-.648 3.331-5.2 3.331-5.2s-7.005 5.813-9.862 4.301c-3.348.111 3.82-5.284 3.82-5.284.057-.186-7.203 4.3-7.203 4.3-7.346.468 1.778-4.923 1.781-4.924 0 0 .137.138-6.999 4.418z" fill="#da121a" stroke="#000" stroke-width="1.76" stroke-linejoin="round"/><path d="M415.395 364.467c-3.64 16.705-7.237 21.609-16.257 28.63 6.997 7.428 7.536 17.593 8.993 28.218-12.105-6.85-28.577-11.124-49.614-11.943.278-1.036 1.35-3.446 1.545-4.539.079-.44 24.179 2.636 23.635 1.91-.712-.952-17.394-2.068-23.04-3.208-1.184-.24-.56-3.563-.56-3.563.103-2.274 24.737 1.234 24.584.618-.127-.51-20.614-1.639-24.591-3.449 0 0-.347-2.654-.113-2.855 2.074-1.784 21.747-1.234 22.496-1.586 1.52-.714-21.558.818-22.651-1.422-.312-.637-.658-2.227-.267-2.519 1.552-1.158 21.325-2.537 21.797-2.61.483-.074-20.4 2.091-22.095-.065-.264-.335-.403-2.448-.403-2.448 7.069-2.432 16.397-2.099 24.595-3.148-8.376.226-20.154 2.044-25.13.678 0 0-1.176-4.204-1.645-5.473 24.132-1.428 39.898-2.996 58.721-11.226z" fill="#da121a" stroke="#000" stroke-width="1.76" stroke-linecap="round" stroke-linejoin="round"/><path d="M139.014 390.626c16.583 1.25 33.727-1.721 49.87-4.879l-10.22 20.442-39.54-2.178s-.706-1.785-.047-1.824c14.764-.874 33-1.426 27.112-1.72-.931-.046-16.547.12-27.107-.087-.867-.017-.421-4.16-.421-4.16s29.392-.358 28.57-.87c-.736-.46-28.478-.411-28.478-.411s-.224-2.912.26-4.313z" fill="#dc281e" stroke="#000" stroke-width="1.76" stroke-linejoin="round"/><path d="M177.303 351.832l13.27-15.62 61.317 5.123-13.787 15.348c-1.254-.26-2.377-.114-3.746-1.916 1.41-6.45 3.715-6.63 2.8-6.743-.908-.112-7.846 7.894-10.425 6.904-.672-.88 2.17-7.133 1.708-7.53-.375-.322-5.61 7.35-8.52 7.15-1.547-1.212 2.22-7.467 1.896-7.95-.535-.8-7.41 7.337-10.018 7.102-1.27-.58 1.826-7.69 1.677-7.785-1.242-.79-6.93 8.394-8.83 8.171-1.23-1.32.493-8.9.177-8.77-.436.177-4.788 7.46-8.848 9.128-1.071-3.041 3.381-11.176 3.532-11.133.16.045-9.714 10.58-11.439 9.9-2.333-.134 5.506-10.973 4.012-11.015 0 0-6.49 7.373-10.066 10.54-1.668.879-3.175-.176-4.71-.904zM286.337 415.818c4.988 4.675 9.04 8.215 16.32 12.992 5.883-3.893 13.651-3.619 20.54-5.765-5.049-3.074-8.796-6.8-12.536-10.529l-3.484.487c-4.065.568 3.402 6.16 3.402 6.16s-7.034-5.317-9.272-5.246c-3.044 1.127 1.715 5.908 1.715 5.908-.363.131-5.35-5.908-7.757-5.313-1.874.21 2.478 5.937 2.478 5.937s-2.858-3.33-7.523-5.44z" fill="#da121a" stroke="#000" stroke-width="1.76" stroke-linejoin="round"/><path d="M62.236 382.294c16 1.99 34.277 5.31 36.682 21.545" fill="none" stroke="#000" stroke-width="2.64" stroke-linecap="round" stroke-linejoin="round"/><path d="M91.163 402.074l-15.683-1.302c10.527-2.998-.557-9.2-1.215-13.459 7.346 3.142 17.909 6.246 16.898 14.761zM124.383 364.3c6.68 16.962 7.432 38.094 7.707 52.612 2.139-1.572 3.348-18.777 3.016-36.862-.452-8.893-4.944-13.072-10.723-15.75z"/><path d="M115.673 360.613c12.813 22.965 13.424 39.832 9.718 56.969" fill="none" stroke="#000" stroke-width="2.64" stroke-linecap="round" stroke-linejoin="round"/><path d="M143.264 369.826c-.088 1.808 2.793 5.48 3.33 9.518.964 3.939-.294 8.372.496 9.374 3.136-2.298 4.525-5.857 3.765-10.082-.555-3.09-4.97-8.765-7.591-8.81zM148.718 404.045c-.863 1.56.363 5.923-.851 9.695-.757 3.85-3.891 7.27-3.552 8.462 4.044-.805 6.929-3.403 8.008-7.426.789-2.943-1.07-9.67-3.604-10.731zM167.458 408.013c-1.293 1.266-1.678 5.918-4.03 9.243-1.973 3.544-5.91 5.938-6.01 7.21 3.86.448 7.299-1.217 9.615-4.83 1.695-2.644 2.317-9.808.425-11.623zM184.007 404.098c-1.092 1.443-.783 6.1-2.616 9.738-1.426 3.797-4.965 6.748-4.877 8.02 3.885-.128 7.04-2.284 8.794-6.201 1.285-2.865.838-10.042-1.3-11.557zM158.29 371.946c.149 1.804 3.482 5.07 4.54 9.005 1.466 3.781.795 8.34 1.709 9.23 2.81-2.686 3.725-6.395 2.423-10.485-.952-2.993-6.067-8.046-8.671-7.75zM147.047 355.527c.802 1.623 5.105 3.431 7.537 6.699 2.757 2.974 3.812 7.46 4.99 7.95 1.623-3.532 1.107-7.318-1.61-10.64-1.988-2.43-8.605-5.243-10.917-4.008zM172.702 362.558c.148 1.804 3.481 5.07 4.539 9.005 1.467 3.78.795 8.34 1.709 9.23 2.81-2.686 3.725-6.395 2.424-10.486-.952-2.992-6.067-8.045-8.672-7.75zM186.77 369.764c.148 1.804 3.482 5.07 4.539 9.005 1.467 3.78.795 8.34 1.709 9.23 2.81-2.686 3.725-6.395 2.424-10.486-.952-2.992-6.067-8.045-8.672-7.749zM190.333 358.466c.75 1.648 4.99 3.595 7.316 6.94 2.658 3.063 3.567 7.58 4.728 8.11 1.737-3.48 1.344-7.28-1.263-10.688-1.908-2.494-8.43-5.52-10.781-4.361zM203.662 380.059c-.04 1.81 2.934 5.406 3.575 9.429 1.064 3.913-.08 8.377.736 9.358 3.076-2.378 4.373-5.971 3.505-10.175-.635-3.075-5.195-8.634-7.816-8.612zM218.03 387.908c-.25 1.792 2.288 5.709 2.46 9.779.603 4.01-1.05 8.311-.352 9.38 3.33-2.006 5.034-5.425 4.658-9.701-.274-3.128-4.16-9.179-6.767-9.46zM206.9 403.359c-.781 1.632.452 6.134-.617 10.065-.638 4.004-3.515 7.604-3.174 8.834 3.78-.904 6.44-3.647 7.376-7.835.686-3.065-1.186-10.007-3.585-11.064zM193.975 394.137c-.612 1.704 1.068 6.058.4 10.077-.231 4.049-2.73 7.919-2.268 9.108 3.67-1.28 6.04-4.276 6.55-8.538.373-3.118-2.188-9.836-4.682-10.647zM209.891 366.579c.148 1.804 3.482 5.07 4.54 9.005 1.466 3.78.794 8.34 1.708 9.23 2.81-2.686 3.725-6.395 2.424-10.486-.952-2.992-6.067-8.045-8.672-7.75zM225.807 374.964c.148 1.804 3.481 5.07 4.539 9.005 1.466 3.781.795 8.34 1.709 9.23 2.81-2.686 3.725-6.395 2.423-10.485-.952-2.993-6.067-8.046-8.671-7.75zM250.265 373.117c.148 1.804 3.482 5.07 4.54 9.004 1.466 3.781.794 8.34 1.708 9.23 2.81-2.685 3.725-6.395 2.424-10.485-.952-2.992-6.067-8.046-8.672-7.75zM244.142 384.502c-.454 1.753 1.62 5.934 1.324 9.997.14 4.053-1.993 8.137-1.423 9.278 3.538-1.611 5.622-4.813 5.738-9.104.086-3.139-3.082-9.593-5.64-10.171zM235.317 402.743c-.94 1.547-.16 6.148-1.615 9.954-1.034 3.921-4.255 7.216-4.039 8.474 3.853-.523 6.772-2.987 8.12-7.062.988-2.98-.184-10.076-2.466-11.366zM218.223 407.96c-.901 1.57-.006 6.151-1.366 9.992-.935 3.946-4.073 7.32-3.825 8.572 3.838-.62 6.694-3.156 7.941-7.263.912-3.005-.437-10.068-2.75-11.3zM228.578 362.127c.586 1.713 4.618 4.062 6.607 7.617 2.348 3.307 2.814 7.891 3.918 8.53 2.067-3.292 2.045-7.113-.219-10.759-1.656-2.667-7.853-6.313-10.306-5.388zM260.18 394.612c-.387 1.769 1.842 5.87 1.7 9.94.293 4.045-1.686 8.206-1.074 9.326 3.475-1.744 5.437-5.022 5.392-9.314-.032-3.14-3.44-9.471-6.018-9.953zM270.879 388.365c.148 1.804 3.482 5.07 4.54 9.005 1.466 3.78.794 8.34 1.708 9.23 2.81-2.686 3.725-6.395 2.424-10.486-.952-2.992-6.067-8.045-8.672-7.749zM264.175 367.925c.148 1.804 3.481 5.07 4.539 9.005 1.467 3.78.795 8.34 1.709 9.23 2.81-2.686 3.725-6.395 2.424-10.486-.952-2.992-6.068-8.045-8.672-7.749zM280.258 377.806c.148 1.805 3.481 5.07 4.539 9.005 1.466 3.781.795 8.34 1.709 9.23 2.81-2.686 3.725-6.395 2.423-10.485-.952-2.992-6.067-8.046-8.671-7.75zM300 385.69c-.167 1.803 2.55 5.598 2.908 9.656.788 3.978-.665 8.351.08 9.387 3.235-2.157 4.78-5.651 4.207-9.905-.418-3.112-4.578-8.977-7.195-9.137zM313.84 382.426c-.217 1.797 2.395 5.665 2.643 9.731.68 3.999-.892 8.33-.175 9.386 3.292-2.068 4.931-5.519 4.475-9.787-.333-3.122-4.332-9.098-6.943-9.33zM329.095 387.96c-.542 1.727 1.316 6.009.815 10.051-.065 4.055-2.404 8.025-1.893 9.194 3.615-1.43 5.86-4.52 6.194-8.8.245-3.13-2.591-9.738-5.116-10.446zM342.83 387.512c-.456 1.752 1.613 5.935 1.313 9.998.137 4.053-2 8.135-1.432 9.277 3.54-1.609 5.627-4.808 5.748-9.099.088-3.138-3.073-9.597-5.63-10.176zM330.098 375.633c.477 1.746 4.354 4.345 6.116 8.017 2.136 3.447 2.314 8.052 3.376 8.76 2.269-3.157 2.487-6.971.456-10.753-1.485-2.766-7.442-6.793-9.948-6.024zM296.34 371.084c.605 1.706 4.663 4.012 6.69 7.544 2.385 3.28 2.902 7.86 4.013 8.487 2.03-3.316 1.966-7.136-.338-10.757-1.685-2.65-7.922-6.226-10.365-5.274zM291.642 396.478c-.748 1.648.575 6.124-.416 10.075-.558 4.017-3.363 7.673-2.998 8.895 3.762-.978 6.366-3.774 7.22-7.98.624-3.077-1.386-9.982-3.806-10.99zM251.127 402.285c-.82 1.614.307 6.143-.855 10.048-.733 3.988-3.694 7.518-3.383 8.756 3.801-.814 6.525-3.493 7.56-7.658.758-3.047-.948-10.033-3.322-11.146zM344.272 374.815c.384 1.769 4.119 4.568 5.685 8.329 1.95 3.555 1.885 8.162 2.908 8.924 2.433-3.032 2.852-6.83 1.023-10.713-1.337-2.841-7.073-7.177-9.616-6.54zM193.808 419.311c-1.622.802-4.938 6.613-8.205 9.046-.564 1.335 3.655 2.303 4.197 1.872 2.43-1.988 5.243-8.605 4.008-10.918zM140.633 415.351c-1.753.452-6.43 6.877-10.13 8.585-.826 1.19 3.34 1.584 3.96 1.274 2.788-1.444 6.902-7.341 6.17-9.858zM314.957 401.15c-1.424 1.118-3.48 7.484-6.18 10.535-.279 1.422 4.05 1.505 4.492.973 1.972-2.444 3.37-9.497 1.688-11.508zM323.042 382.206c-1.622-.802-6.123-7.798-9.39-10.23-.564-1.336 4.84-1.119 5.382-.688 2.43 1.988 5.243 8.605 4.008 10.918zM277.301 407.881c-1.622.803-5.886 7.798-9.153 10.23-.564 1.336 4.603 1.119 5.145.688 2.43-1.988 5.243-8.605 4.008-10.918zM287.19 376.346c-1.622-.803-5.175-7.68-8.442-10.113-.564-1.335 3.892-1.236 4.434-.805 2.43 1.987 5.243 8.605 4.008 10.917zM255.025 370.987c-1.623-.802-5.65-8.272-8.917-10.705-.564-1.334 4.366-.644 4.908-.213 2.43 1.988 5.243 8.605 4.008 10.918zM216.692 364.863c-1.735-.515-6.936-6.864-10.57-8.707-.782-1.22 4.16-1.705 4.768-1.372 2.732 1.546 6.626 7.59 5.802 10.08zM182.327 362.505c-1.778-.337-7.48-6.229-11.28-7.694-.903-1.135 3.85-2.016 4.487-1.746 2.875 1.262 7.362 6.88 6.793 9.44zM140.923 366.746c-1.748-.469-6.138-5.518-9.818-7.263-.815-1.198 3.133-2.974 3.75-2.658 2.772 1.473 6.826 7.411 6.068 9.92z"/><path d="M111.531 374.773c0 3.533-3.5 6.397-7.819 6.397-4.318 0-7.819-2.864-7.819-6.397 0-3.534 3.501-6.398 7.82-6.398 4.318 0 7.818 2.864 7.818 6.398z" fill="none" stroke="#000" stroke-width="1.76" stroke-linecap="round" stroke-linejoin="round"/><path d="M105.608 374.304a1.422 1.422 0 11-2.843 0 1.422 1.422 0 012.843 0z" fill="none" stroke="#000" stroke-width="1.76" stroke-linecap="round" stroke-linejoin="round"/><path d="M191.565 343.2c-1.623.802-5.886 6.376-9.154 8.81-.564 1.335 4.603 1.828 5.145 1.398 1.01-2.699 5.244-7.895 4.009-10.207zM198.911 343.913c-1.622.802-4.701 5.902-7.968 8.335-1.75.624 2.47.17 3.96.924 2.43-1.988 2.044-5.05 4.008-9.26zM204.357 346.042c-1.622.803-2.569 5.192-5.836 7.624-.564 1.335 3.892-1.014 4.908 1.398 2.43-1.987 2.163-6.71.928-9.022zM211.941 347.23c-1.623.802-3.635 3.888-6.547 7.15-.564 1.335 5.55-.303 5.619.214.061-2.936 1.097-4.222.928-7.364zM220.704 346.755c-1.623.802-5.294 4.362-8.206 7.387-.564 1.335 6.38 1.948 6.922 1.517-.592.485 2.426-6.516 1.284-8.904z"/><path d="M227.936 348.172c-1.623.802-4.82 3.77-8.087 6.202-.565 1.335 5.55 2.303 6.092 1.872 1.6.504 1.43-4.155 1.995-8.074z"/><path d="M237.174 348.532c-1.623.803-6.952 4.718-10.22 7.15-.564 1.336 8.699 1.872 8.699 1.872-1.716-2.106.741-6.235 1.52-9.022zM202.319 437.188c-1.672-.693-6.211-4.549-9.633-6.76-.65-1.295 4.472-2.13 5.042-1.735 1.185 2.626 5.67 6.106 4.59 8.495zM208.429 435.99c-1.672-.694-5.835-4.825-9.256-7.036-1.787-.507 3.542.253 4.98-.598 2.556 1.823 2.038 3.564 4.276 7.634zM213.215 434.508c-1.672-.693-3.325-4.256-6.746-6.467-.651-1.295 3.364 1.676 4.219-.798.965 2.409 3.607 4.876 2.527 7.265zM220.287 433.572c-1.672-.693-3.885-3.64-7.006-6.702-.651-1.294 2.598 1.076 3.415.086 1.867-2.265 3.551 3.47 3.59 6.616zM227.392 432.88c-1.672-.693-4.9-3.164-8.006-5.99-.652-1.295 4.31-1.276 4.88-.882-.623-.445 4.108 4.414 3.126 6.873zM239.701 430.23c-1.672-.693-2.796-2.94-6.217-5.151-.652-1.295 1.867-1.157 2.437-.763 1.563-.609 2.958 2.04 3.78 5.914zM233.188 431.753c-1.672-.694-3.898-3.913-7.319-6.124-.651-1.295 6.21-1.773 6.21-1.773-1.572 2.215.148 5.168 1.11 7.897z"/><path d="M214.253 117.882c-15.957-7.304-32.13-9.034-47.87-5.624-22.839 4.949-50.197-5.253-38.04-29.87-12.697 5.511-22.231 12.293-17.87 27.318 4.664 16.072 23.274 16.823 38.039 15.828 12.065-.814 26.587-5.795 39.57-8.448 7.831-1.6 19.302 2.899 25.457 9.425 1.007-2.998 1.066-4.951.714-8.629zM56.86 150.042c4.662-4.995 13-10.29 19.658-6.382 4.739 2.782-2.432 11.06-4.533 9.51-4.728-3.487-10.36-3.744-15.125-3.128z" fill="#0f47af" fill-rule="evenodd" stroke="#000" stroke-width="3" stroke-linecap="round" stroke-linejoin="round"/><g fill="#fff" fill-rule="evenodd"><path d="M217.825 82.389c9.001 1.115 1.62-6.76-1.022-6.893-2.64-.133-7.98 5.778 1.022 6.893z"/><path d="M226.888 82.772c6.32.221 3.918-5.356.255-5.617-3.663-.26-6.576 5.395-.255 5.617z"/></g><path d="M200.103 178.175c-3.454-10.882-.74-19.937 14.142-25.386l-1.444 19.496c9.323-16.186 12.492-8.702 12.998 9.026 5.887-10.76 12.396-10.559 15.886-19.857.412 6.147 4.199 13.678 5.054 17.33 6.237-10.314 16.88-12.448 11.554-36.827-.61 13.055-3.982 18.746-8.665 20.94-2.011-1.83-4.022-6.102-6.032-14.054-4.268 8.377-9.076 13.513-14.02 17.84-1.203-3.156-2.406-4.325-3.61-15.215-3.95 4.556-7.901 8.688-11.852 9.22-5.046-1.072-9.836.953-15.137 6.95m-6.307 26.689c-1.615 13.744-16.907 13.559-20.667 21.644-3.332-8.352-1.783-18.35-.77-28.91 5.379 4.928 4.735 11.864 5.103 15.552 5.97-.66 11.711-2.237 16.334-8.286m88.851 30.773c-8.878-2.712-17.837-4.816-25.395-17.433 3.614 11.115.498 17.743-3.971 23.468-3.016-2.595-4.031-8.526-5.055-14.442-8.61 13.755 2.68 19.686 7.01 31.032-.822-7.648 9.436-16.14 11.412-29.432m-66.24 1.175c-2.347-2.458-3.655-7.685-3.96-15.589m4.12-3.794c-10.097 6.636-7.598 18.67-8.894 29.077 9.625-17.113 23.868-10.81 30.408-23.767-1.236 17.54 6.976 22.06 10.196 30.178-.06-13.795 12.836-19.356 17.031-33.321-6.876 5.547-16.828 9.202-15.463 19.82-4.533-2.191-8.59-7.011-11.764-16.677M211.059 78.56c5.803-8.216 10.397-2.853 12.255 4.596-1.289-10.758 5.791-6.623 11.233-2.298-5.007-6.605-11.099-10.6-20.169-10.433m6.127 34.941c1.298 9.851 3.845 16.786 3.32 30.891 11.142-9.272 6.509-9.235-3.32-30.89m50.804 27.827c-4.17.418-8.34-4.874-12.51-8.17 2.569 6.45 10.774 22.45 9.957 29.104 11.044-16.573 5.885-31.635 3.32-43.145-.236 7.445 1.614 17.27-.767 22.21m5.872-65.866c3.062 8.907-9.172 14.502-13.53 20.935 6.25-14.993 3.44-13.76-9.702-8.17 4.405-7.116 10.11-13.117 23.232-12.765" fill="none" stroke="#000" stroke-width="3" stroke-linecap="round" stroke-linejoin="round"/><path d="M84.011 119.559c6.488-2.143 16.345-2.783 20.308 3.843 2.821 4.715-7.445 8.533-8.543 6.164-2.472-5.33-7.289-8.259-11.765-10.007zM57.618 195.413c-.29-6.827 1.786-16.484 9.242-18.487 5.306-1.426 6.176 9.493 3.597 9.902-5.802.923-9.935 4.756-12.84 8.585zM81.896 206.474c6.795-.72 16.04-4.195 16.924-11.864.629-5.459-10.298-4.711-10.324-2.1-.058 5.875-3.241 10.527-6.6 13.964zM66.553 219.922c6.102-3.075 15.756-5.16 20.653.809 3.484 4.248-6.107 9.537-7.542 7.356-3.23-4.907-8.426-7.095-13.11-8.165zM49.29 261.153c.945-6.767 4.727-15.892 12.422-16.519 5.476-.446 4.364 10.45 1.754 10.389-5.874-.138-10.63 2.887-14.177 6.13zM68.672 294.691c-2.712-6.271-4.228-16.031 2.018-20.57 4.445-3.229 9.163 6.656 6.902 7.961-5.089 2.937-7.578 7.995-8.92 12.61zM112.077 297.723c4.165-5.416 8.025-14.508 3.08-20.437-3.518-4.22-10.513 4.209-8.64 6.028 4.214 4.094 5.388 9.607 5.56 14.41z" fill="#0f47af" fill-rule="evenodd" stroke="#000" stroke-width="3" stroke-linecap="round" stroke-linejoin="round"/><path d="M3.6 3.8v307.874C3.6 444.564 104.058 552.2 237 552.2s232.337-107.64 233.4-240.526V3.8z" class="st0" fill="none" stroke="#000" stroke-width="6" stroke-linecap="round" stroke-linejoin="round"/></svg>