<svg height="910.22827" width="744.05426" xmlns="http://www.w3.org/2000/svg"><g transform="translate(15.766781 -77.282177)"><g transform="translate(-15.766781 -64.851733)"><path d="m347.71941 1042.2557c-40.79279-3.2525-79.32222-10.6529-113.23516-24.6323-43.40229-17.89112-81.1647-42.62102-115.957-75.59401-9.37837-8.88799-23.554665-26.05135-23.554665-27.82945 0-1.41508 12.705935-13.41162 199.588965-203.32205 87.2189-88.63171 198.73944-202.71965 249.02766-253.8297 133.14588-135.32183 190.03281-191.74319 191.02034-192.12417 1.26976-.48986 2.35456 424.34834 1.08015 438.20027-3.62342 39.3855-8.14698 62.44768-18.52519 93.30344-6.22365 18.50348-16.16426 42.66284-21.60433 52.2171-22.1476 38.8975-40.51459 62.96372-66.73997 89.19576-38.40954 38.41931-88.38643 70.34201-139.04709 87.55431-38.5149 13.0856-77.65002 21.1127-117.93319 20.7917-11.11168-.0885-21.89818-3.7537-24.12052-3.9309z" fill="#da121a"/><path d="m9.2227333 731.9245c-2.2899048-6.95137-1.1232669-46.35435-.3844452-304.25859v-276.58638l292.4041019.12313 290.92646.49255-51.02149 52.07532c-210.59357 210.87446-527.725523 527.83547-528.107361 526.67633z" fill="#fcdd09"/><path d="m87.085177 904.75281c-3.956677-4.28279-15.78528-21.49167-24.846288-36.14766-11.619492-18.79424-20.338825-36.68583-31.260483-64.14469-4.756122-11.9577-15.480457-52.27127-15.480457-58.19223 0-2.26943.312865-2.45607 3.282996-1.95865 1.805648.3024 48.512576 6.2891 103.793175 13.30378 55.2806 7.01468 100.706 12.93094 100.94532 13.14725.51226.46303-5.06873 6.19919-78.24717 80.42247l-55.588718 56.38237z" fill="#fff"/><path d="m231.21687 756.73076c-.31758-2.36123-2.1554-21.33948-4.08401-42.17387-12.05688-130.24784-14.65516-159.09203-14.65516-162.69038 0-3.64384.21434-3.97713 2.27284-3.53392 1.25006.26913 8.40952 1.22145 15.9099 2.11621 17.8831 2.13338 159.93977 20.25176 174.1888 22.2166 6.07703.83799 11.28321 1.75765 11.56926 2.04372.28606.28606-7.22804 8.34491-16.69804 17.90855-9.47001 9.56365-46.94037 47.61724-83.26753 84.56357-62.84169 63.91278-82.83148 83.84267-84.09473 83.84267-.31012 0-.82368-1.93192-1.1413-4.29315z" fill="#fff"/><path d="m427.20731 560.83292c-.27904-1.28953-1.44601-12.79968-2.59324-25.57811-1.1472-12.77843-5.25407-57.50958-9.12632-99.40255-3.87229-41.893-7.04046-77.88897-7.04046-79.99109 0-3.73892.07139-3.81139 3.28299-3.33295 1.80565.26899 35.33009 4.52834 74.49875 9.46524 118.59909 14.94846 123.23862 15.56517 123.23862 16.38155 0 1.27556-178.92236 183.80401-180.83362 184.47822-.50562.17836-1.14765-.73077-1.4267-2.02031z" fill="#fff"/><path d="m623.14198 361.76111c-.37901-1.18356-19.74757-205.86385-19.73919-208.5965.00313-.99716 13.81141-1.26269 65.66386-1.26269h65.65991v50.29642 50.29641l-54.6343 55.26453c-30.04891 30.39549-55.06443 55.26452-55.59011 55.26452s-1.13773-.56821-1.36017-1.26269z" fill="#fff"/><path d="m390.83035 855.67844c-4.01134-31.80508 4.56662-71.00677 19.66519-102.85799 5.85361-12.3485 24.42093-39.82445 28.34361-43.07998 1.64384-1.36431 4.8018-.77411 21.59031 16.10999l14.76944 11.79864-5.47971 6.30005c-24.56836 23.09793-42.44737 48.68688-58.49421 77.90513-2.79447 5.08819-7.24802 16.6002-10.13387 25.46136-2.88588 8.86113-7.43381 22.42231-7.99953 22.61088-.61101.20369-.73651-9.92284-1.02988-14.49435z" fill="#fff"/><path d="m450.19776 709.15696c-2.89455-2.32186-5.16537-5.97099-5.04629-6.60415.1191-.63316 6.48684-7.63908 12.64557-13.46171 19.56586-18.49802 46.01491-34.11449 70.33696-41.8537 13.01955-4.14277 35.06939-10.89343 29.9118-6.47278-2.41711 2.07174-10.00998 8.36005-16.22434 11.39561-25.16968 12.29468-49.32879 28.64862-70.2817 49.12219l-14.10901 12.83499c4.27506-.89551-4.81841-3.86369-7.23299-4.96045z" fill="#fff"/></g><path d="m362.47304 987.10509-21.03764.40536-11.47506-.86962c-6.3113-.47822-17.71466-1.76123-25.3408-2.85108-7.62614-1.08984-17.09308-2.63477-21.03764-3.43295-3.94456-.79829-12.24459-2.71051-18.44454-4.24952-6.19993-1.5389-17.28776-4.76397-24.6396-7.16675-7.35185-2.40279-18.63116-6.52311-25.06513-9.15625-6.43396-2.63324-17.47705-7.63609-24.54021-11.11744-7.06314-3.48135-18.2616-9.58433-24.88545-13.56221-6.62385-3.97789-16.81469-10.58346-22.64629-14.67908-5.83161-4.09561-15.28829-11.19146-21.01484-15.76857l-10.41193-8.322-16.804819-16.74415c-9.242667-9.20928-18.709604-18.91032-21.037648-21.55786-2.328054-2.64756-8.140121-9.96292-12.915703-16.25636-4.775592-6.29346-10.99604-14.88516-13.823221-19.09268-2.827181-4.20753-8.092854-12.59868-11.701478-18.647-3.608634-6.04832-9.71499-17.45168-13.569678-25.34079-3.854689-7.88911-9.039319-19.50763-11.521406-25.81892-2.4820871-6.31129-5.9871198-15.99339-7.7889651-21.51577-1.80183521-5.52237-4.7487581-15.70484-6.5487006-22.62769-1.7999516-6.92285-4.3504213-18.54136-5.6677118-25.81892-1.3172905-7.27755-3.1526905-19.04117-4.0786525-26.14137l-1.683576-12.90946-.279561-280.92352-.279571-280.923498 2.367413-2.367406 2.367403-2.367407h367.289345 367.2893l2.37046 2.370398 2.37036 2.370402-.33344 280.920511-.33355 280.92052-1.14166 9.08444c-.62798 4.99643-2.24663 15.75431-3.59706 23.9064l-2.45528 14.82197-3.76287 14.99213-3.76278 14.99214-4.67695 13.69554c-2.57233 7.53256-6.94835 19.0745-9.72445 25.64877-2.77621 6.57426-7.69787 17.11699-10.9371 23.42828-3.23921 6.31128-8.70861 16.20854-12.1542 21.99389-3.44568 5.78535-9.64251 15.33172-13.77085 21.21417-4.12835 5.88243-11.32724 15.50079-15.99751 21.37412l-8.49146 10.67878-14.70846 15.09222-14.70836 15.09221-12.22948 10.2204c-6.72622 5.62122-17.58689 14.05074-24.13485 18.73226-6.54795 4.68153-17.2843 11.72279-23.85856 15.64724s-16.90183 9.66172-22.95015 12.74957c-6.04832 3.08784-16.37589 7.887-22.95015 10.66493-6.57426 2.77783-18.11621 7.15519-25.64877 9.72752l-13.69554 4.67696-15.47026 3.8868-15.47026 3.8867-14.34385 2.31968c-7.88911 1.27584-18.64699 2.76721-23.90641 3.3142l-9.56256.99441zm-8.55838-9.16428 16.30426.13474 12.86155-1.00063c7.07385-.55033 18.88596-1.85753 26.24913-2.90491l13.38759-1.90429 14.82197-3.39022 14.82197-3.39012 18.21749-6.04622 18.21748-6.04621 12.38272-5.44741c6.81049-2.99605 17.33134-8.05812 23.37966-11.24906s16.37589-9.13192 22.95015-13.20216c6.57426-4.07026 17.11699-11.22577 23.42828-15.90113s16.02954-12.41201 21.59611-17.19255 13.95771-12.50969 18.64699-17.17586c4.68925-4.66618 12.33088-12.76094 16.98135-17.98835 4.65046-5.22742 12.19934-14.4778 16.77513-20.55642 4.57587-6.07862 11.20436-15.4268 14.72997-20.77374 3.52562-5.34694 9.83586-15.88692 14.02273-23.42217l7.61267-13.70047 6.31492-14.19921 6.31502-14.1992 6.07826-18.31351 6.07824-18.31351 3.39012-14.82197 3.39022-14.82198 1.89674-13.38758c1.04317-7.36317 2.35038-18.89755 2.90491-25.63194l1.00818-12.24436v-214.90392-214.90392l-27.9705 28.21231c-15.38377 15.51677-28.18565 28.45893-28.44862 28.76034s-13.8201 14.0871-30.12704 30.63486-43.2017 43.85924-59.76606 60.69217-44.07459 44.80343-61.13383 62.15665c-17.05925 17.35323-44.15824 44.89111-60.21999 61.19528s-42.32575 42.98371-58.36444 59.28789c-16.03868 16.30417-42.08363 42.77514-57.87766 58.82441-15.79402 16.04926-41.85492 42.51365-57.91311 58.80976-16.05819 16.2961-54.78656 55.66159-86.06306 87.47885s-68.91519 70.03571-83.64153 84.92991c-14.72636 14.8942-26.775188 27.45679-26.775188 27.91687 0 .46007 4.21357 5.54342 9.363489 11.29629 5.149918 5.75289 10.959189 11.9171 12.909469 13.69826 1.95029 1.78116 7.63397 6.89172 12.63041 11.35682 4.99643 4.4651 12.95727 11.17442 17.69074 14.90961s12.6943 9.60119 17.69074 13.03557c4.99643 3.43436 12.95727 8.57881 17.69074 11.43211 4.73347 2.85331 12.6943 7.38942 17.69074 10.08027 4.99643 2.69084 14.24822 7.22091 20.55951 10.06692 6.31128 2.84591 16.23165 6.9669 22.04525 9.15768 5.81361 2.19079 16.14117 5.65521 22.95015 7.69882 6.80898 2.04352 18.18923 5.03421 25.28943 6.64598 7.1002 1.61187 19.09265 3.82809 26.64989 4.92511 7.55723 1.09691 18.31512 2.34684 23.9064 2.77754 5.59129.43079 17.50291.84389 26.47026.918zm24.87103-146.18709c-.5569-.00805-1.48602-.33079-2.06471-.71719-.57869-.38641-1.50266-1.56319-2.05326-2.61507-.5506-1.05187-2.09728-6.86114-3.43706-12.90946l-2.43597-10.99694-1.00925-9.28582c-.55507-5.10719-1.00924-12.69969-1.00924-16.87222s.43836-12.04275.97412-17.48937c.53577-5.44661 1.85065-14.63641 2.92198-20.42176 1.07131-5.78535 3.23767-15.03713 4.81411-20.55951 1.57645-5.52238 4.82081-14.98932 7.20971-21.03763 2.38888-6.04833 6.71072-15.51526 9.60408-21.03764 2.89337-5.52238 7.94399-14.12869 11.2236-19.12514 3.27961-4.99643 8.69368-12.50928 12.03127-16.69523 3.33758-4.18594 9.54179-11.23198 13.78715-15.65787 4.24535-4.42588 11.59165-11.30327 16.32512-15.28307l8.60631-7.23601 10.04069-6.55433 10.04069-6.55433 10.51882-5.12306c5.78535-2.81768 14.33031-6.46007 18.9888-8.09422 4.65851-1.63415 12.61934-4.01164 17.69074-5.28334 5.07142-1.2717 14.5997-3.19416 21.17396-4.27215s16.68667-2.43788 22.47202-3.02199l10.51882-1.06202 13.22765.32319 13.22766.3232 1.35525 1.85622c.7454 1.02091 1.35526 2.62468 1.35526 3.56391v1.7077l-2.15158 1.36813-2.15158 1.36812-11.9532 1.12316-11.9532 1.12316-10.99696 2.83142-10.99694 2.83142-10.99694 4.35289c-6.04833 2.39407-15.43833 6.6823-20.8667 9.52938-5.42834 2.84707-13.94358 7.73697-18.92273 10.86643-4.97916 3.12946-13.23208 8.82245-18.33982 12.65109l-9.28682 6.96115-13.15839 12.9207-13.1584 12.92069.00987 1.16032.00987 1.16032 8.36724 7.28559 8.36725 7.28558.83614 1.77294.83615 1.77294-.59801 2.2125-.59802 2.21247-4.51732 3.3469c-2.48452 1.84079-9.317 7.98014-15.18329 13.64297l-10.66596 10.29607-7.65775 9.78531c-4.21174 5.38192-10.09433 13.65815-13.07239 18.39162-2.97807 4.73346-7.94002 13.77009-11.02654 20.08138-3.08654 6.31129-7.17085 15.69856-9.07624 20.86058-1.90541 5.16204-4.7421 14.41382-6.30377 20.55952l-2.8394 11.17399-1.79055 11.8838-1.79055 11.8838-1.72962 1.26472c-.95129.6956-2.18526 1.25814-2.74217 1.25009zm-.73165-31.98209c.31681-.31682 1.98301-5.72321 3.70267-12.0142 1.71964-6.29101 4.91911-16.02275 7.1099-21.62608s6.42878-14.96578 9.41774-20.80544c2.98895-5.83965 8.23154-14.92071 11.65019-20.18012 3.41866-5.25941 9.69266-13.86572 13.94221-19.12512l7.72648-9.56256 8.46643-8.16556c4.65655-4.49105 10.34703-9.69337 12.64553-11.56072l4.17908-3.39519-16.04827-14.07944-16.04826-14.07944-2.23556 2.69002c-1.22956 1.47952-5.70566 7.83887-9.9469 14.13191l-7.71135 11.44189-6.56013 13.42077-6.56013 13.42078-3.44427 9.96593c-1.89436 5.48126-4.49058 14.09356-5.76939 19.13844-1.27882 5.0449-3.00355 13.25453-3.83273 18.24364l-1.50761 9.07111-.58019 13.38758-.58021 13.38759.70436 8.43512.70438 8.43513zm63.57252-152.59116c.40727.01674 4.92558-4.33203 10.04068-9.66393l9.3002-9.69437 9.08443-7.6141c4.99644-4.18777 12.98437-10.344 17.75093-13.68053 4.76658-3.33653 13.15772-8.74847 18.647-12.02654 5.48928-3.27804 14.92861-8.2507 20.97628-11.05033l10.99578-5.09022-1.43322.00123c-.78827.00069-5.73637 1.0471-10.99577 2.32537-5.25942 1.27825-13.3404 3.66102-17.95776 5.29504-4.61735 1.63402-11.61464 4.4381-15.54954 6.23128-3.93489 1.79319-11.1301 5.60833-15.98934 8.4781-4.85925 2.86975-12.49268 7.94832-16.96318 11.28568l-8.12817 6.06794-10.37142 10.01519-10.37143 10.01517 5.11202 4.5373c2.8116 2.4955 5.44524 4.55098 5.85251 4.56772zm-367.565936 195.10671c.454929 0 2.416009-1.82884 4.357955-4.06409 1.941957-2.23524 16.528469-17.1887 32.414471-33.2299 15.886-16.04121 44.34996-44.86903 63.25326-64.06184l34.36964-34.89601-1.40447-.23729c-.77245-.1305-35.18421-4.54555-76.47057-9.81123-41.286378-5.26567-87.441733-11.14673-102.567469-13.06899l-27.50132643-3.49503-.57393572.57392-.57392556.57394 2.52249871 11.76874c1.3873744 6.47281 4.2632096 17.79316 6.3907458 25.15634l3.8682572 13.38759 5.313084 13.86571c2.922195 7.62614 7.772595 19.06161 10.778663 25.41214 3.006068 6.35054 7.960393 16.03263 11.009608 21.51576 3.049214 5.48315 9.968014 16.63924 15.375109 24.79132 5.407084 8.15209 11.806618 17.29628 14.221166 20.32044 2.414557 3.02417 4.762309 5.49848 5.217239 5.49848zm142.608676-145.35095c.31604 0 9.79898-9.35963 21.07321-20.79917s46.73605-47.47844 78.80403-80.08646c32.06799-32.60801 64.27763-65.3741 71.57699-72.81353l13.27155-13.52624-3.68279-.5828c-2.02553-.32054-32.51392-4.25245-67.75195-8.73757-35.23805-4.48512-79.04431-10.0773-97.34722-12.42707-18.30293-2.34978-33.90186-4.27231-34.6643-4.27231h-1.38623l-.03368 2.15158c-.01852 1.18337 4.37621 49.16352 9.76606 106.62257l9.79975 104.471zm-219.1369092-32.51305c.3338578-.00018 130.5612692-129.95542 289.3942492-288.78939l288.78723-288.789053h-290.93881-290.9388098l.0081763 272.772103.0081855 272.77209.9413197 10.99695c.5177357 6.04832 1.2091095 13.25611 1.5363881 16.01729l.5950684 5.02034zm223.8928592-266.8364c-.26297-.00658-2.19939-1.31869-4.30315-2.9158-2.10377-1.5971-6.95547-4.39306-10.78159-6.21321l-6.95656-3.3094-9.77793-2.33102c-5.37785-1.28205-13.42431-2.77728-17.88101-3.32273l-8.10309-.99172h-58.95682-58.956835l-1.222956-1.47358-1.222946-1.47355 2.956591-3.06866c1.626123-1.68775 4.503632-5.64703 6.394457-8.7984l3.437875-5.72975 2.749619-8.6141 2.74963-8.61408 1.763403-10.0407 1.763404-10.04068v-77.45676-77.45675l-2.50521-5.34212-2.505219-5.3421-3.462089-3.46211-3.462096-3.46208-3.879226-1.16224-3.879236-1.16225.28398-1.98677.28397-1.98675h36.337738 36.337746l.29109 2.0411.2911 2.04107-4.34441 2.1031-4.34442 2.1031-3.80391 4.32146-3.80391 4.32146-1.94439 5.19689-1.944402 5.19688v96.59158 96.59159l33.708032-.28463 33.70803-.28465 9.08444-3.15057c4.99643-1.73281 12.95727-5.03463 17.69074-7.33738l8.60631-4.18681 10.17155-7.24552c5.59436-3.98505 10.65057-7.24554 11.23601-7.24554h1.06446l.03735 1.19532c.02055.65743.00402 14.95023-.03674 31.76179l-.07409 30.56647-1.15859.73629c-.63722.40494-1.37373.73089-1.6367.72431zm202.97384 88.97308c6.9537-7.10021 37.60562-38.28697 68.11538-69.30394 30.50976-31.01695 65.6581-66.73312 78.10743-79.36926 12.44931-12.63614 22.77688-23.38946 22.95015-23.89625l.315-.92144-12.90946-1.66119c-7.10019-.91367-51.79502-6.63102-99.32182-12.70522s-87.00823-11.044-87.73651-11.044h-1.32414v2.94874c0 1.6218 4.30315 48.57591 9.56256 104.34244s9.57062 102.09701 9.58044 102.95664l.01789 1.56294zm214.2569-217.96917c16.9264-17.11852 41.85131-42.31527 55.38874-55.99275l24.61337-24.86817.01023-50.44252.01014-50.442513h-65.57231-65.57238l.57191 5.020342c.31454 2.761196 4.64485 48.697361 9.62288 102.080361 4.97805 53.383 9.29876 99.01972 9.60158 101.41493l.55057 4.35493z"/></g></svg>