<svg height="556.25891" width="500" xmlns="http://www.w3.org/2000/svg"><g transform="translate(4.415795 -500.2544)"><path d="m3.9790912 533.16753h241.6055688 241.60563v266.07748c1.49473 182.48534-156.37602 248.88459-241.60563 248.88459-83.73731 0-243.1027554-66.39925-241.6055688-248.88459z" display="block" fill="#0f0" stroke-width="6.767649"/><path d="m33.756109 508.63822-29.7776543 24.52877v35.8117 230.2666c-1.4971783 182.48533 157.8690853 248.88421 241.6063753 248.88421 85.22961 0 243.09981-66.39888 241.60506-248.88421v-230.2666-35.8117l-29.77765-24.52877z" display="block" fill="#da121a" stroke="#000" stroke-linecap="round" stroke-width="6.767649"/><g transform="matrix(.67676487 0 0 .67676487 23.792665 188.33195)"><path d="m333.84587 933.33794c-52.54043-7.48539-92.58303-22.66902-134.24463-50.9038-54.92971-37.22689-97.18893-97.5472-114.785655-163.84388-6.632258-24.98761-8.607072-37.56071-9.662958-61.5228-2.260357-51.29638 7.500272-96.57178 30.915813-143.40517 20.52846-41.05893 48.49664-75.04104 82.91414-100.74293 29.75118-22.21727 49.78692-32.93305 83.43472-44.62385 30.56871-10.62096 59.30486-15.36457 92.81971-15.32212 26.71457.0339 40.32229 1.61576 66.79772 7.76546 87.39971 20.3011 160.48628 80.75937 198.68157 164.35201 25.89757 56.67843 32.159 123.4413 17.41728 185.71429-8.00371 33.8109-21.74514 64.9158-42.58985 96.40694-10.65515 16.09712-16.37172 22.8705-34.38186 40.73736-24.44771 24.25334-33.15614 31.1759-56.89743 45.22896-25.75814 15.24691-54.62857 27.01073-81.703 33.29163-12.49228 2.89805-28.24214 5.85111-35 6.56244-12.149 1.27879-55.42728 1.48626-63.71557.30543zm72.85714-45.3506c39.65572-6.56418 74.84929-22.27833 111.87057-49.95095 40.92258-30.5888 75.34715-84.01171 86.71643-134.57388 3.20729-14.26339 7.81129-41.22463 7.83315-45.87165.007-1.42172-50.40915-1.78571-247.33986-1.78571h-247.3482l.95581 11.46144c3.20695 38.45387 18.50487 81.56322 40.79765 114.96713 14.32974 21.47197 44.79508 52.02647 65.88292 66.07576 33.7831 22.50717 71.74125 36.797 111.11282 41.82966 13.16471 1.68275 53.98628.41922 69.51871-2.15185zm-53.57143-377.18219v-113.57143h-8.49885c-12.70972 0-36.96386 5.04882-58.644 12.20749-54.7252 18.06998-105.06047 59.3305-134.4398 110.20218-9.33097 16.15699-18.75279 38.05073-23.24667 54.0189-3.92009 13.92936-9.45639 41.57176-9.45639 47.21537v3.49892h117.14286 117.14285zm258.56686 109.64286c-.007-6.08546-4.10014-28.05365-7.76014-41.65053-20.40243-75.7932-77.50414-139.07289-149.86857-166.08322-21.92015-8.18177-54.10586-15.45942-68.43815-15.4748l-5.35714-.006v113.57143 113.57143h115.71429 115.71428z" fill="#dcdcdc" transform="translate(-34.877444 223.93908)"/><g stroke="#000"><g fill="#fff" transform="translate(-1.555391 5.918575)"><path d="m364.75391 102.50977c-162.92091 0-295.529301 132.61033-295.529301 295.53125 0 162.92087 132.608391 295.53125 295.529301 295.53125 162.92092 0 295.53125-132.61038 295.53125-295.53125 0-162.92092-132.61033-295.53125-295.53125-295.53125zm20 50.80859c119.89748 9.60537 215.11627 104.82546 224.72265 224.72266h-224.72265zm-40 .002v224.72066h-224.71875c9.60615-119.89649 104.82242-215.11439 224.71875-224.72071zm-224.72071 264.72066h489.44532c-10.13387 126.49432-115.56106 225.53125-244.72461 225.53125-129.16356 0-234.58701-99.03693-244.72071-225.53125z" stroke-linecap="square" stroke-width="10" transform="translate(-34.877444 468.38213)"/><path d="m300.10516 909.74 12.23423 66.98966-66.98966-12.23423 22.8457 29.3814-22.8457 29.38127 66.98966-12.2341-12.23423 66.9895 29.38136-22.8456 29.38138 22.8456-12.23423-66.9895 66.98967 12.2341-26.50523-29.38127 26.50523-29.3814-66.98967 12.23423 12.23423-66.98966-29.38138 22.84569z" stroke-width="5"/></g><path d="m684.72475 509.53528h-714.0016" fill="none" stroke-width="10"/></g></g></g></svg>