<?xml version="1.0" encoding="UTF-8" standalone="no"?>
<!-- Created with Inkscape (http://www.inkscape.org/) -->

<svg
   width="552"
   height="593"
   version="1.0"
   id="svg2428"
   sodipodi:docname="Coat_of_Arms_of_City_of_Markgroeningen.svg"
   inkscape:version="1.2 (dc2aeda, 2022-05-15)"
   xmlns:inkscape="http://www.inkscape.org/namespaces/inkscape"
   xmlns:sodipodi="http://sodipodi.sourceforge.net/DTD/sodipodi-0.dtd"
   xmlns="http://www.w3.org/2000/svg"
   xmlns:svg="http://www.w3.org/2000/svg">
  <sodipodi:namedview
     id="namedview2430"
     pagecolor="#ffffff"
     bordercolor="#000000"
     borderopacity="0.25"
     inkscape:showpageshadow="2"
     inkscape:pageopacity="0.0"
     inkscape:pagecheckerboard="0"
     inkscape:deskcolor="#d1d1d1"
     showgrid="false"
     inkscape:current-layer="svg2428" />
  <defs
     id="defs2400">
    <style
       type="text/css"
       id="style2388">.fil8 {fill:none;fill-rule:nonzero}
    .fil0 {fill:black;fill-rule:nonzero}
    .fil7 {fill:white;fill-rule:nonzero}
    .fil1 {fill:#000099;fill-rule:nonzero}
    .fil6 {fill:#660000;fill-rule:nonzero}
    .fil4 {fill:#8A8A01;fill-rule:nonzero}
    .fil3 {fill:#939301;fill-rule:nonzero}
    .fil5 {fill:red;fill-rule:nonzero}
    .fil2 {fill:#FFCC00;fill-rule:nonzero}</style>
    <style
       type="text/css"
       id="style2390">.str4 {stroke:black;stroke-width:1.13778}
    .str3 {stroke:black;stroke-width:1.13808}
    .str2 {stroke:black;stroke-width:1.13818}
    .str8 {stroke:black;stroke-width:1.13828}
    .str6 {stroke:black;stroke-width:1.13848}
    .str5 {stroke:black;stroke-width:1.13858}
    .str7 {stroke:black;stroke-width:1.13878}
    .str1 {stroke:black;stroke-width:1.13888}
    .str0 {stroke:black;stroke-width:2.40736}
    .fil0 {fill:#0000DC}
    .fil2 {fill:red}
    .fil1 {fill:#FFF000}
    .fil4 {fill:#FFF020}
    .fil3 {fill:#FFF02D}
    .fil5 {fill:black;fill-rule:nonzero}</style>
    <style
       type="text/css"
       id="style2392">.fil8 {fill:none;fill-rule:nonzero}
    .fil0 {fill:black;fill-rule:nonzero}
    .fil7 {fill:white;fill-rule:nonzero}
    .fil1 {fill:#000099;fill-rule:nonzero}
    .fil6 {fill:#660000;fill-rule:nonzero}
    .fil4 {fill:#8A8A01;fill-rule:nonzero}
    .fil3 {fill:#939301;fill-rule:nonzero}
    .fil5 {fill:red;fill-rule:nonzero}
    .fil2 {fill:#FFCC00;fill-rule:nonzero}</style>
    <style
       type="text/css"
       id="style2394">.str4 {stroke:black;stroke-width:1.13778}
    .str3 {stroke:black;stroke-width:1.13808}
    .str2 {stroke:black;stroke-width:1.13818}
    .str8 {stroke:black;stroke-width:1.13828}
    .str6 {stroke:black;stroke-width:1.13848}
    .str5 {stroke:black;stroke-width:1.13858}
    .str7 {stroke:black;stroke-width:1.13878}
    .str1 {stroke:black;stroke-width:1.13888}
    .str0 {stroke:black;stroke-width:2.40736}
    .fil0 {fill:#0000DC}
    .fil2 {fill:red}
    .fil1 {fill:#FFF000}
    .fil4 {fill:#FFF020}
    .fil3 {fill:#FFF02D}
    .fil5 {fill:black;fill-rule:nonzero}</style>
    <style
       type="text/css"
       id="style2396">.str4 {stroke:black;stroke-width:1.13778}
    .str3 {stroke:black;stroke-width:1.13808}
    .str2 {stroke:black;stroke-width:1.13818}
    .str8 {stroke:black;stroke-width:1.13828}
    .str6 {stroke:black;stroke-width:1.13848}
    .str5 {stroke:black;stroke-width:1.13858}
    .str7 {stroke:black;stroke-width:1.13878}
    .str1 {stroke:black;stroke-width:1.13888}
    .str0 {stroke:black;stroke-width:2.40736}
    .fil0 {fill:#0000DC}
    .fil2 {fill:red}
    .fil1 {fill:#FFF000}
    .fil4 {fill:#FFF020}
    .fil3 {fill:#FFF02D}
    .fil5 {fill:black;fill-rule:nonzero}</style>
    <style
       type="text/css"
       id="style2398">.fil8 {fill:none;fill-rule:nonzero}
    .fil0 {fill:black;fill-rule:nonzero}
    .fil7 {fill:white;fill-rule:nonzero}
    .fil1 {fill:#000099;fill-rule:nonzero}
    .fil6 {fill:#660000;fill-rule:nonzero}
    .fil4 {fill:#8A8A01;fill-rule:nonzero}
    .fil3 {fill:#939301;fill-rule:nonzero}
    .fil5 {fill:red;fill-rule:nonzero}
    .fil2 {fill:#FFCC00;fill-rule:nonzero}</style>
  </defs>
  <path
     d="m2.25 2.25h547.21l-0.61769 114.12-545.36 0.14905z"
     fill="#00f"
     id="path2402"
     style="fill:#0f47af" />
  <path
     d="m258.33 589.26c-71.719-4.3546-132.8-30.466-176.47-74.031-25.632-25.568-44.977-56.99-58.069-93.471-7.9916-22.268-14.963-48.713-18.15-74.709-2.8945-23.609-3.5366-24.427-3.0584-128.46l0.46198-100.51c181.59 1.0697 363.32 0.40401 544.92 0.40401 0 51.454 5.0692 178.94-2.498 229.74-13.124 84.062-44.843 148.77-102.66 189.89-37.952 26.994-85.879 44.519-138.47 50.258-11.739 1.2808-36.262 1.4816-46.005 0.8899z"
     fill="#fcd40f"
     id="path2404"
     style="fill:#ffd42a" />
  <path
     d="m275.85 590.36c-91.983-0.44283-273.61-45.09-273.6-300.87 5.292e-4 -255.78 0-287.23 0-287.23h547.21v287.23c0 255.78-182.26 300.39-273.6 300.87z"
     fill="none"
     stroke="#000"
     stroke-width="4.5"
     id="path2406"
     style="stroke:#000000" />
  <path
     d="m2.8547 117.2h545v0"
     fill="none"
     stroke="#000"
     stroke-linecap="round"
     stroke-linejoin="round"
     stroke-width="3.5"
     id="path2408" />
  <g
     transform="translate(.54704 .547)"
     id="g2414">
    <circle
       cx="280"
       cy="161.51"
       r="10"
       fill="#fff"
       stroke="#fff"
       stroke-linecap="round"
       stroke-linejoin="round"
       stroke-width="2.406"
       id="circle2410" />
    <path
       d="m267.35 569.2c-0.5152-0.28253-1.0657-0.86221-1.2232-1.2882-0.67186-1.8162-2.2925-11.301-3.7415-21.898-2.786-20.375-3.918-24.632-7.1054-26.721-0.7671-0.50263-2.5479-0.78694-7.1559-1.1425-9.501-0.7331-13.517-2.4397-19.293-8.1981-2.6737-2.6657-3.5684-3.8809-5.0508-6.8602-0.99089-1.9914-2.0631-4.6497-2.3826-5.9074-0.85154-3.3511-1.0836-8.5129-0.62147-13.823 0.68012-7.8146 2.0496-11.141 4.5872-11.141 1.855 0 3.3083 1.6314 5.7901 6.4992 2.5306 4.9635 4.8376 7.8371 7.785 9.6969 6.1929 3.9077 11.112 3.3882 15.951-1.6846 1.1852-1.2425 2.1548-2.445 2.1548-2.6721 0-0.41096-0.63052-0.87895-5.3138-3.944-4.3553-2.8503-6.1198-6.5087-6.1198-12.689 0-7.6201 2.312-11.348 9.5551-15.406 5.1797-2.9023 7.8644-6.559 8.7718-11.948 0.59466-3.5322 0.24139-15.748-0.53368-18.448-0.71897-2.5056-1.6885-4.1819-2.9717-5.1383-0.98782-0.73622-1.0062-0.73591-2.5359 0.0445-3.0916 1.5772-7.7548 7.0471-11.297 13.251-2.1134 3.7018-3.4185 6.8116-4.6874 11.169-1.7318 5.9471-3.1438 7.7659-5.8769 7.5695-2.026-0.14554-2.5329-0.97059-2.88-4.6884-0.12876-1.3785-0.35518-2.5812-0.50322-2.6726-0.58254-0.36004-3.919 2.2213-9.0516 7.003-2.9578 2.7555-6.1186 5.8448-7.0238 6.8651-0.90536 1.0203-5.2478 5.6085-9.6497 10.196-12.969 13.516-17.722 19.177-17.722 21.107 0 1.3728 1.6524 2.6024 7.3031 5.4345 6.4468 3.2311 9.5589 5.4701 11.339 8.158 1.0411 1.5717 1.176 2.0907 1.176 4.5243 0 2.4519-0.16711 3.0828-1.5465 5.8387-2.9698 5.9336-9.5868 13.631-13.79 16.041-1.6201 0.92909-2.4468 1.1503-4.3103 1.1532-1.29 2e-3 -2.5073-0.19792-2.7631-0.45376-0.68958-0.68961-0.5463-3.3951 0.24825-4.6878 0.38652-0.62884 1.931-2.492 3.4323-4.1404s2.8376-3.4275 2.9696-3.9535c0.72328-2.8818-7.7684-14.342-12.153-16.402-2.1956-1.0314-3.1994-1.0612-4.602-0.13635-2.3843 1.572-3.2112 3.6865-4.9906 12.762-1.0991 5.6056-3.2749 8.9429-7.5058 11.513-2.4159 1.4676-3.3931 2.5571-3.3875 3.777 1e-3 0.42499 0.94521 2.7213 2.0962 5.1029 1.151 2.3816 2.0927 4.7398 2.0927 5.2404 0 1.7549-1.5962 1.1218-5.2055-2.0648-5.766-5.0906-7.7109-8.7056-8.037-14.938-0.3809-7.2795 1.3184-10.949 8.4598-18.268 2.7747-2.8438 5.2626-5.5814 5.5286-6.0836 0.48292-0.91144 0.48078-0.91264-1.1519-0.65157-3.9814 0.63665-14.62 5.559-22.085 10.218-5.586 3.4865-7.7069 5.3131-10.048 8.6538-2.7727 3.957-3.7125 4.6745-5.933 4.5298-1.7337-0.11297-1.7373-0.11621-2.4761-2.2093-0.64513-1.8279-0.74269-3.1938-0.76224-10.671-0.0326-12.452-0.0121-12.482 8.8383-12.981 9.7917-0.55209 17.056-2.6821 22.078-6.4735 2.4553-1.8538 2.8858-3.0447 1.5989-4.4236-2.378-2.5481-7.5642-3.5218-11.956-2.245-2.8307 0.8229-4.2238 1.7887-6.3458 4.3994-1.5426 1.8978-1.8459 2.0962-3.2054 2.0962-1.4033 0-1.5555-0.11217-2.3264-1.715-2.501-5.2001-1.9426-10.455 1.4333-13.491 2.8974-2.605 4.7457-3.089 11.778-3.0844 6.6451 4e-3 8.9633 0.48759 15.387 3.2073 5.3474 2.264 7.091 2.7712 9.6456 2.8059 6.4003 0.087 13.246-6.1137 30.417-27.55 7.852-9.8028 10.499-13.453 12.072-16.65 1.0244-2.081 1.1109-2.4818 0.65382-3.0329-0.96897-1.1684-2.8998-1.6593-6.7076-1.7054-5.9493-0.072-6.6521-0.41006-6.0273-2.8996 0.13511-0.53833 2.2571-3.0545 4.7154-5.5914 9.3439-9.6425 13.042-14.122 19.13-23.167 6.2734-9.3223 10.087-13.475 17.367-18.912 3.424-2.5571 5.472-4.4869 6.999-6.5949 1.0566-1.4585 1.0566-1.4585 0.16762-5.1355-0.48891-2.0224-1.8391-8.159-3.0006-13.637-1.1614-5.478-2.4784-11.504-2.9268-13.39-0.8419-3.542-1.9788-6.2885-2.6032-6.2885-1.1873 0-4.5138 5.8353-10.863 19.056-10.404 21.664-16.417 33.151-23.739 45.353-9.6243 16.039-17.936 27.06-27.886 36.976-11.842 11.801-23.734 18.626-37.205 21.355-7.1623 1.4506-21.829 1.4177-25.064-0.0563-1.1779-0.53668-1.6034-2.0513-1.0148-3.6121 0.60839-1.6132 2.1913-3.1557 8.1865-7.9773 2.9346-2.3602 6.8999-5.8977 8.8118-7.861 17.7-18.177 42.78-57.504 57.738-90.535 4.5521-10.053 9.5861-23.569 10.389-27.894 0.2164-1.166 0.17968-1.2366-0.39603-0.76224-0.89952 0.74123-2.5966 3.467-7.6298 12.254-32.385 56.54-59.789 82.39-97.038 91.534-8.1551 2.0021-11.934 2.5216-20.086 2.7617-13.918 0.4099-21.724-1.3665-21.724-4.9438 0-1.9187 1.7522-3.1051 7.1681-4.8533 6.3645-2.0544 10.606-4.5418 18.748-10.995 18.278-14.486 42.484-39.786 58.942-61.606 7.9866-10.589 25.711-37.624 25.08-38.254-0.46706-0.46706-10.723 8.6859-22.576 20.148-12.5 12.088-19.438 18.556-24.287 22.644-18.861 15.901-32.092 22.689-49.165 25.223-8.1542 1.2104-25.638 1.0578-31.932-0.27865-4.5663-0.96956-6.3576-2.6286-5.8366-5.4056 0.53888-2.8725 4.1635-6.0898 13.377-11.874 10.363-6.5056 26.276-19.456 48.212-39.234 17.707-15.965 37.206-35.214 38.924-38.424 0.40658-0.75972 0.36927-0.75641-1.0526 0.0935-3.5534 2.1241-7.8999 5.1862-12.146 8.5565-12.152 9.6466-18.952 14.428-27.436 19.291-11.388 6.5275-24.361 11.397-35.64 13.377-4.199 0.73717-15.844 0.64535-19.334-0.15243-3.6322-0.83033-10.611-3.798-12.401-5.2735-1.2336-1.0168-1.4231-1.3873-1.4231-2.783 0-2.7309 2.1094-4.3081 14.859-11.11 18.867-10.065 36.135-21.83 68.798-46.874 5.2404-4.018 11.88-9.0549 14.755-11.193 2.8749-2.1382 5.3403-4.0708 5.4787-4.2946 0.17086-0.27644-0.16106-0.32141-1.0348-0.14017-3.3498 0.69484-8.4927 2.7472-14.817 5.9131-8.4445 4.2272-14.903 6.8699-25.153 10.292-20.778 6.9373-34.322 9.4708-41.775 7.8141-6.7888-1.5091-15.712-5.3106-20.522-8.7436-2.0399-1.4557-2.4454-1.9377-2.6564-3.1585-0.60609-3.5056-0.15949-5.1208 1.7057-6.1691 2.0738-1.1656 5.2991-2.2274 9.5098-3.1308 8.9686-1.9242 31.066-10.39 54.31-20.808 9.8329-4.4069 23.992-11.397 28.358-13.999 3.2475-1.9358 8.579-5.8944 8.3062-6.1672-0.0607-0.0607-1.6781 0.39384-3.5943 1.01-11.755 3.7801-27.774 6.9301-40.803 8.0235-7.985 0.6701-21.618 0.26891-26.569-0.78183-10.142-2.1528-23.32-8.2533-28.957-13.406-2.1042-1.9231-2.1042-1.9231-2.1042-4.3388 0-2.7913-0.89099-2.4554 8.5752-3.233 11.92-0.97916 26.562-3.5119 53.929-9.3283 8.2799-1.7598 17.701-3.7374 20.935-4.3946 6.731-1.3676 9.4469-2.2785 10.667-3.5778 0.68975-0.73421 0.77834-1.0612 0.45248-1.67-0.73107-1.366-2.702-2.7136-7.6448-5.227-2.6791-1.3623-5.6744-3.184-6.6562-4.0482-1.6973-1.494-1.7794-1.6579-1.6709-3.3326 0.10574-1.6315 0.22653-1.8175 1.6386-2.5236 1.4394-0.71971 2.3114-0.76348 15.626-0.78442 16.638-0.0262 21.83-0.58259 35.444-3.7984 8.8387-2.0878 15.284-3.2304 18.201-3.2264 1.5184 2e-3 5.282-0.19811 8.3638-0.44489 5.7954-0.46409 17.009-0.0141 20.885 0.83811 2.6176 0.57553 7.5819 3.172 9.795 5.1231 4.4775 3.9473 7.6441 10.661 8.022 17.009 0.40163 6.746-2.2388 13.521-7.4136 19.022-7.8643 8.3598-17.418 11.884-27.467 10.133-3.2084-0.55927-3.665-0.56136-4.9546-0.0227-1.9713 0.82345-3.3212 2.2223-4.2676 4.4224-3.551 8.2546 0.70091 25.529 9.5585 38.834 9.0399 13.579 26.216 22.272 42.644 21.583 5.9451-0.2494 9.6416-1.171 14.703-3.6659 4.0577-1.9999 7.9443-5.184 10.92-8.9458 1.4205-1.796 1.4529-1.8992 0.79194-2.5184-1.0402-0.97437-3.0614-1.6503-12.541-4.1941-4.771-1.2802-9.1583-2.5779-9.7496-2.8837-1.3449-0.69543-1.4534-2.1804-0.21772-2.9778 0.47159-0.30436 4.1161-1.4396 8.0989-2.5228 11.19-3.0434 17.254-5.5019 22.166-8.9862 4.3933-3.1163 6.6337-6.8253 5.7314-9.4885-2.2897-6.7585-12.797-11.544-31.853-14.507-4.4324-0.68928-6.4339-1.3016-8.0755-2.4705-0.94728-0.67457-1.1181-1.0529-1.1181-2.4765 0-2.7484 0.78163-3.0373 8.133-3.006 6.0627 0.0258 6.0627 0.0258 4.1231-0.83013-3.9236-1.7316-7.6245-4.6928-8.8596-7.0888-0.97803-1.8975-0.99556-5.2772-0.0321-6.1493 0.86234-0.78039 2.4257-0.80929 3.853-0.0712 0.5951 0.30773 1.8954 1.8084 2.8897 3.3348 2.5208 3.8702 3.0882 4.42 5.8953 5.7128 2.4729 1.1389 2.4729 1.1389 8.5753 0.98337 6.7297-0.17152 6.2787-0.0346 11.384-3.4561 2.0095-1.3467 2.15-1.5398 2.15-2.9537 0-1.8591-0.80545-2.7429-3.7548-4.1202-2.7952-1.3053-7.6666-1.4571-9.2059-0.28692-1.2485 0.94908-3.2331 3.598-3.915 5.2252-0.91778 2.1904-2.5296 3.8237-3.6435 3.6922-0.97993-0.11567-0.97993-0.11567-0.87877-10.978 0.0555-5.9741 0.26643-11.496 0.46845-12.271 0.64031-2.4558 1.7628-3.0205 8.5073-4.2799 3.9645-0.74027 10.212-2.7028 15.192-4.7725 4.8765-2.0265 7.1959-2.6585 10.748-2.9288 12.287-0.93497 22.331 5.9209 37.28 25.447 4.6916 6.1281 9.0681 11.085 11.631 13.175 1.8476 1.5061 2.1851 1.6378 4.1968 1.6378 2.9596 0 3.8818 0.67016 3.8818 2.821 0 2.3268-1.7525 3.5949-6.8602 4.9636-5.584 1.4964-6.5192 3.0652-5.7652 9.6717 1.0143 8.8876 3.6358 19.101 6.7317 26.226 1.8472 4.2512 2.6194 7.0968 2.2861 8.4247-0.18872 0.75192-0.46195 0.86923-2.0243 0.86923-2.0092 0-3.9146-0.8776-8.2791-3.8131-5.0001-3.363-7.0912-4.1211-9.078-3.291-2.6619 1.1122-3.2095 4.7297-1.5715 10.382 3.3773 11.654 11.272 17.47 22.819 16.809 13.001-0.74398 26.858-6.9052 35.566-15.814 9.1074-9.3166 13.816-22.037 13.816-37.324 0-6.3869-0.53024-9.3443-1.9693-10.983-1.478-1.6834-3.4722-2.2921-10.608-3.238-3.249-0.43066-6.9364-1.0479-8.1941-1.3716-14.726-3.7901-23.757-14.36-22.915-26.819 0.12044-1.7818 0.49986-4.1825 0.84299-5.3351 2.1307-7.1558 7.9944-14.17 14.577-17.436 2.5338-1.2574 3.2118-1.4158 7.2414-1.6919 2.4451-0.16757 7.8758-0.20479 12.068-0.0827 10.192 0.29674 15.323 1.4028 35.444 7.64 18.83 5.837 25.825 6.7394 39.318 5.0722 3.4771-0.42964 7.1152-0.72978 8.0846-0.66696 1.6682 0.1081 1.7688 0.17825 1.8788 1.3098 0.10313 1.0605-0.17675 1.4473-2.4772 3.4239-4.7115 4.0481-7.3576 6.8924-7.3576 7.9087 0 2.1668 5.3084 5.211 17.722 10.163 22.615 9.0214 37.611 12.936 49.58 12.942 5.4417 3e-3 8.9081-0.75256 12.924-2.8157 1.8252-0.93768 3.1796-1.3712 4.2876-1.3725 1.5745-2e-3 1.6197 0.0328 1.616 1.2368 0 0.68126-0.67719 3.2962-1.5004 5.8111-1.7084 5.2193-1.742 5.2592-7.0952 8.4097-12.754 7.5061-21.456 9.6842-36.737 9.1954-11.595-0.37093-20.792-2.1899-35.93-7.1064-8.5546-2.7783-12.84-3.9849-13.129-3.6964-0.22072 0.22067 3.715 3.0308 7.7087 5.5041 8.2718 5.1228 30.729 17.31 44.026 23.892 13.703 6.7828 21.947 9.9415 33.316 12.764 8.2244 2.042 9.1483 2.4946 9.5183 4.6625 0.373 2.1857 0.36285 2.7955-0.0879 5.2586-0.33268 1.8182-0.62826 2.3109-2.2358 3.7277-3.651 3.2178-11.475 6.5763-18.05 7.7479-3.9744 0.70821-13.418 0.61544-17.913-0.17597-9.8276-1.7304-17.671-4.7328-35.063-13.422-14.202-7.0952-21.724-10.245-21.724-9.0975 0 1.1886 7.9185 8.2664 26.678 23.846 25.942 21.544 42.076 33.6 58.312 43.574 3.6683 2.2534 7.3985 4.691 8.2894 5.417 1.5068 1.2278 1.6198 1.4507 1.6198 3.1924 0 1.7808-0.0701 1.9078-1.4292 2.5967-2.378 1.2052-9.621 3.3851-12.863 3.8713-1.6769 0.25153-5.45 0.44706-8.3847 0.43452-10.513-0.0449-19.063-2.3824-31.109-8.5042-11.916-6.0561-24.884-15.39-40.161-28.908-2.5154-2.2258-5.9672-5.1918-7.6707-6.5911-3.3778-2.7748-9.7134-7.2112-9.9543-6.9703-0.29222 0.29224 1.5634 3.5162 4.5161 7.8467 7.2468 10.628 22.776 29.434 39.183 47.45 5.8558 6.4301 19.984 20.694 34.36 34.692 4.7309 4.6062 9.1472 9.2189 9.8139 10.251 1.4179 2.1941 1.6143 4.1708 0.47496 4.7806-1.6958 0.9075-13.286 0.0987-21.873-1.5264-14.874-2.815-29.482-9.4515-43.149-19.603-5.9165-4.3946-9.7712-7.7615-16.512-14.422-8.8596-8.7541-11.662-12.018-26.625-31.006-3.7519-4.7613-8.034-9.2722-8.8021-9.2722-1.2017 0 3.4194 9.937 8.5959 18.484 1.6503 2.725 8.1615 12.672 14.469 22.105 22.685 33.924 31.901 46.921 45.252 63.82 8.9354 11.31 11.639 15.794 11.646 19.313 7e-3 2.3176-0.45962 2.8268-2.8185 3.0927-3.2979 0.37171-9.809-1.2594-20.97-5.2533-19.98-7.1498-34.151-17.885-52.049-39.43-9.821-11.823-23.129-30.823-36.973-52.785-4.1142-6.5269-7.5116-10.638-8.3587-10.114-1.1954 0.73876 1.1182 6.7866 7.0037 18.308 8.7846 17.197 35.534 65.82 39.628 72.032 7.3358 11.131 17.409 23.402 28.626 34.873 14.719 15.051 15.578 16.081 15.352 18.413-0.11481 1.1856-0.16718 1.2174-2.2138 1.3417-4.6052 0.27983-15.843-1.7881-23.737-4.3682-16.036-5.2408-28.89-13.464-42.785-27.371-15.704-15.718-28.784-34.504-46.175-66.325-7.1218-13.031-14.395-27.293-15.347-30.093-0.7725-2.2725-2.0014-3.2838-4.3064-3.5436-2.5794-0.29074-3.1077 0.17002-3.0022 2.6187 0.13526 3.1396-0.94619 10.408-2.7985 18.81-2.2633 10.266-2.5548 12.227-2.0792 13.993 0.53916 2.0022 2.6006 3.9846 6.838 6.5757 8.4713 5.1801 13.933 10.566 20.304 20.02 6.0485 8.9764 11.615 16.102 19.503 24.963 2.0524 2.3058 4.2256 4.9548 4.8295 5.8867 1.153 1.7796 1.4257 3.5762 0.62139 4.093-0.26206 0.16839-2.7404 0.3929-5.5075 0.4989-2.9781 0.1141-5.2068 0.36864-5.4618 0.62381-0.5626 0.56287 0.425 2.5044 3.9487 7.763 14.019 20.921 31.807 43.192 36.194 45.316 2.1527 1.0421 2.9784 0.79932 11.038-3.2458 10.873-5.457 15.683-7.0009 21.817-7.0019 4.02-5.7e-4 5.4923 0.34721 7.8806 1.8618 3.3022 2.0942 5.1756 7.9641 4.3336 13.579-0.36956 2.4644-1.8642 3.9918-3.9061 3.9918-1.8991 0-2.8787-0.71696-3.8747-2.836-0.44362-0.9437-1.2551-2.0097-1.8033-2.3689-0.88374-0.57901-1.2984-0.60137-3.6558-0.19714-1.4624 0.25077-6.1175 1.5997-10.345 2.9975-8.9588 2.9625-8.9921 2.8699 1.2705 3.5387 14.669 0.95596 20.158 2.4626 23.122 6.3475 0.9613 1.2597 1.0934 1.7803 1.212 4.7767 0.10473 2.6442-0.0453 3.954-0.7005 6.1284-1.1984 3.9753-5.0708 11.268-7.3284 13.801-1.8592 2.086-1.9708 2.1479-3.6681 2.0372-1.624-0.10594-1.777-0.20676-2.1156-1.3936-0.24599-0.86217-0.20735-2.57 0.11861-5.2369 0.46466-3.8019 0.45122-4.0246-0.34269-5.6644-0.93187-1.9249-2.9299-3.541-7.2583-5.8705-3.3879-1.8233-9.2826-3.8633-11.163-3.8633-3.4301 0-3.3679 1.1447 0.26615 4.9031 4.0837 4.2233 4.6139 5.4112 4.6163 10.342 0 4.955-0.69465 6.9942-3.3506 9.8024-2.4918 2.6347-4.8515 3.5368-9.2508 3.5368-2.5281 0-3.2853-0.12542-3.4569-0.57252-0.49694-1.295 0.34218-2.4976 3.4751-4.9804 1.7771-1.4084 3.3362-2.8915 3.4646-3.296 0.18025-0.56787-0.53514-1.4882-3.142-4.042-3.6512-3.577-6.1399-6.9738-9.264-12.644-3.9025-7.0835-4.5418-7.5348-8.0354-5.6727-3.9585 2.1098-7.5974 6.2891-7.5974 8.7254 0 2.5861-2.8253 5.0176-7.3855 6.3562-2.4567 0.7211-4.3217 1.8477-4.6213 2.7916-0.30025 0.94611 0.29711 2.035 2.4018 4.3784 1.9804 2.2049 2.7448 3.8006 2.7448 5.7296 0 2.2703-0.52703 2.8456-2.6066 2.8456-2.8151 0-5.7173-2.13-8.7834-6.4466-1.7296-2.435-2.7114-5.9659-2.7114-9.751 0-8.6193 4.9603-15.25 15.245-20.378 3.4601-1.7253 5.3357-3.202 5.3357-4.201 0-1.6811-3.5247-5.9696-14.142-17.206-15.294-16.186-24.062-26.643-25.721-30.676-0.74972-1.8223-2.3535-3.5727-3.2734-3.5727-0.3787 0-1.1947 0.69868-1.8133 1.5526-1.0833 1.4955-1.6583 3.4657-2.1332 7.3084-0.19281 1.5609-0.34261 1.8103-1.0866 1.8103-1.7259 0-3.2222-2.5335-6.5129-11.027-1.1017-2.8438-2.8913-7.852-3.977-11.129-1.4951-4.5139-2.2839-6.3161-3.2529-7.4319-1.2791-1.473-1.2791-1.473-2.3214-0.52019-1.585 1.4488-2.2951 3.4387-3.6041 10.1-2.3726 12.073-3.1769 19.494-2.2923 21.147 0.20801 0.38867 1.0008 0.91216 1.7619 1.1633 2.5163 0.83044 7.2516 6.3743 10.209 11.952 0.75848 1.4304 0.98811 2.411 0.98168 4.1923-0.0102 2.8654-0.64615 4.3092-3.8772 8.8043-4.5429 6.3202-5.7596 9.1201-4.883 11.236 0.691 1.6682 3.4331 3.9474 5.8718 4.8807 2.4751 0.94718 3.5428 0.75568 7.6607-1.374 3.5006-1.8104 9.0392-7.2864 10.671-10.551 1.585-3.1701 2.0156-3.6206 3.4599-3.6206 3.6265 0 6.4989 6.2796 6.9066 15.099 0.16361 3.5414 0.0657 5.2832-0.4212 7.4706-1.7158 7.7123-6.949 14.044-14.4 17.422-4.6619 2.1138-6.2667 2.374-16.316 2.6458-12.482 0.33755-12.15 0.13617-12.922 7.8371-0.86906 8.6684-7.8649 34.317-11.061 40.553-1.0447 2.0384-4.0314 2.8981-6.1094 1.7586zm-10.518-380.67c1.1508-0.75402 1.2791-1.9973 0.24014-2.3271-0.40382-0.12818-1.39 0.051-2.1915 0.39822-1.1427 0.49508-2.6905 0.63094-7.174 0.62972-5.8489-2e-3 -5.8836 0.0534-0.76221 1.2089 4.9571 1.1184 8.272 1.1487 9.8875 0.0902zm-15.342-1.6435c-0.27513-0.11009-0.60379-0.0966-0.73051 0.0301-0.12657 0.12665 0.0985 0.21672 0.50023 0.20017 0.44399-0.0183 0.53433-0.10859 0.23028-0.23026zm44.444-17.347c0.25154-0.25154 0.45736-0.75081 0.45736-1.1095 0-0.97079-2.1107-2.5645-3.7271-2.8142-4.3025-0.66466-4.4625-0.72519-4.5799-1.7331-0.0912-0.78201 0.14425-1.0918 1.2199-1.6047 0.73314-0.34961 1.6098-1.0581 1.9481-1.5745 0.56567-0.86333 0.56582-1.0343 0-2.1256-0.7587-1.4671-2.9942-2.6417-3.9346-2.0674-0.91822 0.56073-1.9791 2.7979-1.9797 4.175 0 1.9356 1.1134 5.0742 2.2556 6.3525 1.8334 2.0518 7.1836 3.6568 8.3389 2.5015z"
       id="path2412"
       style="fill:#000000" />
  </g>
  <g
     transform="translate(.54704 .547)"
     fill="#fcd40f"
     stroke="#000"
     stroke-linecap="round"
     stroke-linejoin="round"
     stroke-width="3"
     id="g2426">
    <path
       d="m92.08 33.65-12.557 22 12.557 22-25.331 0.12505-12.774 21.875-12.774-21.875-25.331-0.12505 12.557-22-12.557-22 25.331-0.12505 12.774-21.875 12.774 21.875z"
       stop-color="#000000"
       style="paint-order:stroke fill markers;fill:#ffd42a"
       id="path2416" />
    <path
       d="m534.32 33.65-12.557 22 12.557 22-25.331 0.12505-12.774 21.875-12.774-21.875-25.331-0.12505 12.557-22-12.557-22 25.331-0.12505 12.774-21.875 12.774 21.875z"
       stop-color="#000000"
       style="paint-order:stroke fill markers;fill:#ffd42a"
       id="path2418" />
    <path
       transform="translate(110.56)"
       d="m92.08 33.65-12.557 22 12.557 22-25.331 0.12505-12.774 21.875-12.774-21.875-25.331-0.12505 12.557-22-12.557-22 25.331-0.12505 12.774-21.875 12.774 21.875z"
       stop-color="#000000"
       style="paint-order:stroke fill markers;fill:#ffd42a"
       id="path2420" />
    <path
       transform="translate(221.12)"
       d="m92.08 33.65-12.557 22 12.557 22-25.331 0.12505-12.774 21.875-12.774-21.875-25.331-0.12505 12.557-22-12.557-22 25.331-0.12505 12.774-21.875 12.774 21.875z"
       stop-color="#000000"
       style="paint-order:stroke fill markers;fill:#ffd42a"
       id="path2422" />
    <path
       transform="translate(331.68)"
       d="m92.08 33.65-12.557 22 12.557 22-25.331 0.12505-12.774 21.875-12.774-21.875-25.331-0.12505 12.557-22-12.557-22 25.331-0.12505 12.774-21.875 12.774 21.875z"
       stop-color="#000000"
       style="paint-order:stroke fill markers;fill:#ffd42a"
       id="path2424" />
  </g>
</svg>
