<!-- Created with Inkscape (http://www.inkscape.org/) -->
<svg xmlns:rdf="http://www.w3.org/1999/02/22-rdf-syntax-ns#" xmlns="http://www.w3.org/2000/svg" height="604" width="508" version="1.1" xmlns:cc="http://creativecommons.org/ns#" xmlns:dc="http://purl.org/dc/elements/1.1/">
 <metadata>
  <rdf:RDF>
   <cc:Work rdf:about="">
    <dc:format>image/svg+xml</dc:format>
    <dc:type rdf:resource="http://purl.org/dc/dcmitype/StillImage"/>
    <dc:title/>
   </cc:Work>
  </rdf:RDF>
 </metadata>
 <g transform="translate(0,-448.36217)">
  <g transform="translate(-2.9283726,213.01619)">
   <path stroke-linejoin="miter" style="enable-background:accumulate;" d="M10,242.36,9.9284,585.67c-0.0285,136.67,109.84,246.68,246.31,246.68,136.46,0,246.31-110.01,246.31-246.66v-341.14z" stroke-dashoffset="0" stroke="#000" stroke-linecap="butt" stroke-miterlimit="4" stroke-dasharray="none" stroke-width="8" fill="#dc281e"/>
   <path stroke-linejoin="miter" d="M12.591,282.48,500,282.36v35h-51v50h-45v-50h-70v50h-45v-50h-65v50h-45v-50h-70v50h-45v-50h-51.409z" stroke="#000" stroke-linecap="butt" stroke-miterlimit="4" stroke-dasharray="none" stroke-width="3" fill="#ffd200"/>
   <path stroke-linejoin="miter" d="m170.3,781.61c-1.8252-6.427-6.6275-10.38,0.73556-18.438l1.0506-30.394c0.25815-4.3413,9.1481-12.292,23.209-8.0024,6.0422-7.6282,11.342-3.0279,16.503,0.43827-2.3743-4.3752-4.2166-9.0163-13.496-9.939-7.5952,0.91343-13.579,0.52396-15.872-2.8492,9.1357-15.278,16.168-30.556,29.368-45.834,2.6104-2.8401,8.5637,4.9238,12.846,11.299-2.698-32.181,2.4894-62.592,9.5936-84.08l-15.878-15.439c-4.9803,60.77-20.582,89.37-53.837,138.33-8.9379-9.3341-25.517-6.8475-27.488-3.7519-2.3439-2.8127-14.192-0.90387-12.778,8.7089,4.6683-5.0149,13.107-5.1596,13.107-1.8578,1.3144-0.26287,14.18,3.0977,8.2484,7.3015-5.9421,0.41679-9.598,8.1187-8.4188,11.656,0,0-6.9182,7.0153-1.0838,11.982,1.7388-3.638,2.5522-9.5385,8.6149-8.8525,2.7498-4.8999,7.4722-10.028,13.179-7.2213,3.0858,3.3734-0.2243,32.555,3.7128,30.586-2.6028,5.7263,3.5379,16.144,8.6838,16.355z" stroke="#000" stroke-linecap="butt" stroke-miterlimit="4" stroke-dasharray="none" stroke-width="3" fill="#ffd200"/>
   <path stroke-linejoin="miter" d="m186.76,545.34c2.8,45.97-7.3971,72.444-14.679,103.29,15.219-17.806,30.853-29.598,44.382-71.917-11.246-10.382-11.469-22.181-15.993-32.563-3.7821-0.26607-9.9279,0.61841-13.71,1.1889z" stroke="#000" stroke-linecap="butt" stroke-miterlimit="4" stroke-dasharray="none" stroke-width="3" fill="#ffd200"/>
   <path stroke-linejoin="miter" d="m154.56,558.03c0.93703,55.602-35.984,102.37-76.195,139.33,49.165-12.373,91.149-63.754,107.36-151.83-16.095,1.0165-23.046,8.448-31.164,12.507z" stroke="#000" stroke-linecap="butt" stroke-miterlimit="4" stroke-dasharray="none" stroke-width="3" fill="#ffd200"/>
   <path stroke-linejoin="miter" d="m56.893,651.63c26.113-27.381,58.348-49.514,66.97-91.887,9.8468,1.8013,19.694-0.073,29.54-2.0058-27.353,74.648-62.268,81.245-96.51,93.893z" stroke="#000" stroke-linecap="butt" stroke-miterlimit="4" stroke-dasharray="none" stroke-width="3" fill="#ffd200"/>
   <path stroke-linejoin="miter" d="m30.973,587.11c28.589-2.3756,56.881-5.6448,75.871-36.818l15.291,9.7895c-38.963,59.038-74.774,40.685-91.161,27.028z" stroke="#000" stroke-linecap="butt" stroke-miterlimit="4" stroke-dasharray="none" stroke-width="3" fill="#ffd200"/>
   <path stroke-linejoin="miter" d="m29.473,538.28c21.029,3.9771,42.806,11.984,66.024-2.168l11.463,15.52c-53.483,28.47-66.512,3.97-77.487-13.35z" stroke="#000" stroke-linecap="butt" stroke-miterlimit="4" stroke-dasharray="none" stroke-width="3" fill="#ffd200"/>
   <path stroke-linejoin="miter" d="m30.533,475.09c15.703,15.751,32.082,30.713,58.288,34.211l4.2786,24.813c-52.071-1.57-59.164-33.32-62.567-59.02z" stroke="#000" stroke-linecap="butt" stroke-miterlimit="4" stroke-dasharray="none" stroke-width="3" fill="#ffd200"/>
   <path stroke-linejoin="miter" d="m52.949,407.74c11.372,27.83,20.769,56.253,49.329,78.927l-13.459,21.7c-28.41-23.05-48.974-51.09-35.872-100.63z" stroke="#000" stroke-linecap="butt" stroke-miterlimit="4" stroke-dasharray="none" stroke-width="3" fill="#ffd200"/>
   <path stroke-linejoin="round" d="m91.751,440.33c-3.1255-23.637,1.8201-36.863,8.7506-52.783,4.6541,30.547,18.024,50.286,32.701,67.246,19.894,18.033,17.287,50.154,7.3544,50.724-7.3843-0.42212-11.579-0.96729-16.189,3.5051-8.2239,7.2106,12.82,30.393,22.348,18.461,15.137-25.09,54.811-19.93,54.458-8.8341l-1.4756,27.744c-15.572-1.837-27.482-0.73766-41.717,8.9013-20.346,12.568-42.944,4.5006-53.202-7.1725-14.924-11.799-20.733-34.7-10.286-51.841,4.3057-6.0664,9.8292-12.262,12.511-14.011-9.4821-12.661-15.021-24.934-15.255-41.94z" stroke="#000" stroke-linecap="round" stroke-miterlimit="4" stroke-dasharray="none" stroke-width="3" fill="#ffd200"/>
   <path stroke-linejoin="round" d="m106.97,482.73c4.9096-6.0953,11.981-1.3808,17.717-1.3372-14.958-18.128-19.574-37.409-21.395-58.167" stroke="#000" stroke-linecap="round" stroke-miterlimit="4" stroke-dasharray="none" stroke-width="3" fill="none"/>
   <path stroke-linejoin="miter" d="m201.66,549.09c-1.5732,23.84-4.8887,50.354-13.453,70.698" stroke="#000" stroke-linecap="round" stroke-miterlimit="4" stroke-dasharray="none" stroke-width="3" fill="none"/>
   <path stroke-linejoin="miter" d="m169.15,549.09c-1.2389,31.194-11.159,59.217-31.758,92.933" stroke="#000" stroke-linecap="round" stroke-miterlimit="4" stroke-dasharray="none" stroke-width="3" fill="none"/>
   <path stroke-linejoin="miter" d="m134.72,562.46c-3.9132,25.845-24.865,49.857-34.766,60.172" stroke="#000" stroke-linecap="round" stroke-miterlimit="4" stroke-dasharray="none" stroke-width="3" fill="none"/>
   <path stroke-linejoin="miter" d="m114.61,556.25c-14.349,21.849-29.374,28.231-42.678,33.469" stroke="#000" stroke-linecap="round" stroke-miterlimit="4" stroke-dasharray="none" stroke-width="3" fill="none"/>
   <path stroke-linejoin="miter" d="M98.78,543.87c-14.851,9.69-27.676,12.12-43.786,8.09" stroke="#000" stroke-linecap="round" stroke-miterlimit="4" stroke-dasharray="none" stroke-width="3" fill="none"/>
   <path stroke-linejoin="miter" d="M88.582,522.13c-16.38-0.39-30.91-6.52-39.363-19.13" stroke="#000" stroke-linecap="round" stroke-miterlimit="4" stroke-dasharray="none" stroke-width="3" fill="none"/>
   <path stroke-linejoin="miter" d="M95.314,494.83c-21.602-12.56-31.011-27.75-35.517-47.93" stroke="#000" stroke-linecap="round" stroke-miterlimit="4" stroke-dasharray="none" stroke-width="3" fill="none"/>
   <g transform="matrix(-1,0,0,1,506.51556,-1.1937754)" stroke="#000" stroke-miterlimit="4" stroke-dasharray="none" stroke-width="3">
    <path stroke-linejoin="miter" d="m170.3,781.61c-1.8252-6.427-6.6275-10.38,0.73556-18.438l1.0506-30.394c0.25815-4.3413,9.1481-12.292,23.209-8.0024,6.0422-7.6282,11.342-3.0279,16.503,0.43827-2.3743-4.3752-4.2166-9.0163-13.496-9.939-7.5952,0.91343-13.579,0.52396-15.872-2.8492,9.1357-15.278,16.168-30.556,29.368-45.834,2.6104-2.8401,8.5637,4.9238,12.846,11.299-2.698-32.181,0.12563-58.338,7.2298-79.825l-13.52-19.71c-4.9803,60.77-20.582,89.37-53.837,138.33-8.9379-9.3341-25.517-6.8475-27.488-3.7519-2.3439-2.8127-14.192-0.90387-12.778,8.7089,4.6683-5.0149,13.107-5.1596,13.107-1.8578,1.3144-0.26287,14.18,3.0977,8.2484,7.3015-5.9421,0.41679-9.598,8.1187-8.4188,11.656,0,0-6.9182,7.0153-1.0838,11.982,1.7388-3.638,2.5522-9.5385,8.6149-8.8525,2.7498-4.8999,7.4722-10.028,13.179-7.2213,3.0858,3.3734-0.2243,32.555,3.7128,30.586-2.6028,5.7263,3.5379,16.144,8.6838,16.355z" stroke-linecap="butt" fill="#ffd200"/>
    <path stroke-linejoin="miter" d="m186.76,545.34c2.8,45.97-7.3971,72.444-14.679,103.29,15.219-17.806,30.853-29.598,44.382-71.917-8.9888-11.284-9.8873-22.341-18.356-31.145-3.7821-0.26607-7.5641-0.79987-11.346-0.22942z" stroke-linecap="butt" fill="#ffd200"/>
    <path stroke-linejoin="miter" d="m154.56,558.03c0.93703,55.602-35.984,102.37-76.195,139.33,49.165-12.373,92.094-64.227,108.31-152.31-13.258,0.18701-23.992,4.323-32.11,12.98z" stroke-linecap="butt" fill="#ffd200"/>
    <path stroke-linejoin="miter" d="m56.893,651.63c26.113-27.381,58.348-49.514,66.97-91.887,10.074,2.2819,20.633-0.36937,29.54-2.0058-27.353,74.648-62.268,81.245-96.51,93.893z" stroke-linecap="butt" fill="#ffd200"/>
    <path stroke-linejoin="miter" d="m30.973,587.11c28.589-2.3756,56.881-5.6448,75.871-36.818l15.291,9.7895c-38.963,59.038-74.774,40.685-91.161,27.028z" stroke-linecap="butt" fill="#ffd200"/>
    <path stroke-linejoin="miter" d="m29.473,538.28c21.029,3.9771,42.806,11.984,66.024-2.168l11.463,15.52c-53.483,28.47-66.512,3.97-77.487-13.35z" stroke-linecap="butt" fill="#ffd200"/>
    <path stroke-linejoin="miter" d="m30.533,475.09c15.703,15.751,32.082,30.713,58.288,34.211l4.2786,24.813c-52.071-1.57-59.164-33.32-62.567-59.02z" stroke-linecap="butt" fill="#ffd200"/>
    <path stroke-linejoin="miter" d="m52.949,407.74c11.372,27.83,20.769,56.253,49.329,78.927l-13.459,21.7c-28.41-23.05-48.974-51.09-35.872-100.63z" stroke-linecap="butt" fill="#ffd200"/>
    <path stroke-linejoin="round" d="m91.751,440.33c-3.1255-23.637,1.8201-36.863,8.7506-52.783,4.6541,30.547,18.024,50.286,32.701,67.246,19.894,18.033,17.287,50.154,7.3544,50.724-7.3843-0.42212-11.579-0.96729-16.189,3.5051-8.2239,7.2106,12.82,30.393,22.348,18.461,15.137-25.09,53.865-19.458,53.513-8.3613l-0.53006,26.799c-15.572-1.837-27.955-0.2649-42.19,9.3741-20.346,12.568-42.472,4.5006-52.729-7.1725-14.924-11.799-20.733-34.7-10.286-51.841,4.3057-6.0664,9.8292-12.262,12.511-14.011-9.4821-12.661-15.021-24.934-15.255-41.94z" stroke-linecap="round" fill="#ffd200"/>
    <path stroke-linejoin="round" d="m106.97,482.73c4.9096-6.0953,11.981-1.3808,17.717-1.3372-14.958-18.128-19.574-37.409-21.395-58.167" stroke-linecap="round" fill="none"/>
    <path stroke-linejoin="miter" d="m200.24,551.93c-1.5732,23.84-3.4704,47.517-12.034,67.861" stroke-linecap="round" fill="none"/>
    <path stroke-linejoin="miter" d="m169.15,549.09c-1.2389,31.194-11.159,59.217-31.758,92.933" stroke-linecap="round" fill="none"/>
    <path stroke-linejoin="miter" d="m134.72,562.46c-3.9132,25.845-24.865,49.857-34.766,60.172" stroke-linecap="round" fill="none"/>
    <path stroke-linejoin="miter" d="m114.61,556.25c-14.349,21.849-29.374,28.231-42.678,33.469" stroke-linecap="round" fill="none"/>
    <path stroke-linejoin="miter" d="M98.78,543.87c-14.851,9.69-27.676,12.12-43.786,8.09" stroke-linecap="round" fill="none"/>
    <path stroke-linejoin="miter" d="M88.582,522.13c-16.38-0.39-30.91-6.52-39.363-19.13" stroke-linecap="round" fill="none"/>
    <path stroke-linejoin="miter" d="M95.314,494.83c-21.602-12.56-31.011-27.75-35.517-47.93" stroke-linecap="round" fill="none"/>
   </g>
   <path stroke-linejoin="miter" d="m253.91,473.82c-6.3705-24.711-14.2-48.135-35.49-59.682,19.102-2.6082,25.151-12.178,31.202-21.747-20.242,16.427-44.196,0.53648-58.622,0.94552-22.735,3.2177-34.911,13.268-42.548,26.255,10.153-3.022,26.332-1.0225,41.603,0.21959-12.768,3.906-24.288,8.3115-28.251,15.74,30.43,3.1009,53.675,19.845,66.072,64.629-13.572,6.4883-30.944,8.1212-29.311,34.039,2.6836,35.236,20.54,45.545,34.984,61.459,17.857,21.452,8.7736,80.872-9.742,110.52l20.649-2.7317c-12.119,38.068-32.601,57.737-53.455,76.587,16.927-4.218,33.854-4.3747,50.781-27.258-3.5917,22.368-0.0604,42.062,14.068,55.738,14.056-14.267,19.506-31.023,13.953-55.461,11.214,19.155,27.198,20.907,50.666,24.307-21.688-19.803-39.973-25.111-53.388-74.696l20.362,1.8435c-22.841-27.254-27.631-58.895-12.846-105.56,4.2873-14.205,31.054-30.502,35.318-67.361-1.179-26.563-17.01-26.961-30.037-32.367,8.9342-30.782,23.651-57.343,65.241-64.295-3.9965-9.3711-15.145-12.385-27.038-14.737,13.702-0.85771,27.404-4.1981,41.106-0.17206-8.7004-19.229-28.268-26.084-41.488-26.914-15.839-0.94318-42.82,15.92-57.123-0.44899,8.07,7.8745,1.5371,21.365,30.257,21.298-25.475,12.171-30.428,36.468-36.923,59.854z" stroke="#000" stroke-linecap="butt" stroke-miterlimit="4" stroke-dasharray="none" stroke-width="3" fill="#ffd200"/>
   <path stroke-linejoin="miter" d="m189.54,419.55c3.673,2.7959,2.0118,17.2-3.0086,21.729" stroke="#000" stroke-linecap="round" stroke-miterlimit="4" stroke-dasharray="none" stroke-width="3" fill="none"/>
   <path d="m173.16,409.86c6.0268-1.9147,8.4134-7.6329,14.709-8.023,7.8596-0.28849,8.2483,6.184,14.375,8.3573-5.512,3.6764-18.45,5.3253-29.083-0.33429z" fill="#000"/>
   <path stroke-linejoin="miter" d="m318.41,420.14c-3.673,2.7959-2.0118,17.2,3.0086,21.729" stroke="#000" stroke-linecap="round" stroke-miterlimit="4" stroke-dasharray="none" stroke-width="3" fill="none"/>
   <path d="m332.79,408.78c-6.0268-1.9147-8.4134-7.6329-14.709-8.023-7.8596-0.28849-8.2483,6.184-14.375,8.3573,5.512,3.6764,18.45,5.3253,29.083-0.33429z" fill="#000"/>
  </g>
 </g>
</svg>
