<?xml version="1.0" encoding="UTF-8" standalone="no"?>
<!-- Created with Inkscape (http://www.inkscape.org/) -->

<svg
   xmlns:dc="http://purl.org/dc/elements/1.1/"
   xmlns:cc="http://creativecommons.org/ns#"
   xmlns:rdf="http://www.w3.org/1999/02/22-rdf-syntax-ns#"
   xmlns:svg="http://www.w3.org/2000/svg"
   xmlns="http://www.w3.org/2000/svg"
   xmlns:sodipodi="http://sodipodi.sourceforge.net/DTD/sodipodi-0.dtd"
   xmlns:inkscape="http://www.inkscape.org/namespaces/inkscape"
   version="1.0"
   width="500"
   height="529.88971"
   id="svg2"
   inkscape:version="0.48.4 r9939"
   sodipodi:docname="Wappen_Neckargemuend.svg">
  <metadata
     id="metadata23">
    <rdf:RDF>
      <cc:Work
         rdf:about="">
        <dc:format>image/svg+xml</dc:format>
        <dc:type
           rdf:resource="http://purl.org/dc/dcmitype/StillImage" />
      </cc:Work>
    </rdf:RDF>
  </metadata>
  <sodipodi:namedview
     pagecolor="#ffffff"
     bordercolor="#666666"
     borderopacity="1"
     objecttolerance="10"
     gridtolerance="10"
     guidetolerance="10"
     inkscape:pageopacity="0"
     inkscape:pageshadow="2"
     inkscape:window-width="1280"
     inkscape:window-height="972"
     id="namedview21"
     showgrid="false"
     fit-margin-top="5"
     fit-margin-bottom="5"
     fit-margin-left="5"
     fit-margin-right="5"
     inkscape:zoom="0.4603509"
     inkscape:cx="136.08342"
     inkscape:cy="97.933347"
     inkscape:window-x="-4"
     inkscape:window-y="-4"
     inkscape:window-maximized="1"
     inkscape:current-layer="g14631" />
  <defs
     id="defs4" />
  <g
     id="layer1"
     transform="translate(-10.54974,170.90634)">
    <g
       transform="translate(-196.4991,-112.4412)"
       id="g14631">
      <path
         d="m 331.80568,399.69249 c -3.68239,-5.62004 -1.831,-10.09612 8.9568,-21.65458 l 9.54747,-10.22954 -8.96366,1.0425 c -10.00754,1.1639 -13.71104,2.75115 -18.43174,7.89952 -4.09294,4.46374 -14.70435,6.64498 -14.70435,3.02258 0,-8.05191 7.81037,-14.90437 19.18916,-16.83568 13.42864,-2.27922 14.31825,-4.12391 3.32698,-6.8988 -13.72307,-3.46457 -19.45434,-5.28485 -19.45434,-6.17877 0,-0.51142 1.69507,-2.52227 3.76684,-4.4686 4.99314,-4.6908 11.61953,-3.61734 23.70041,3.8394 l 9.10719,5.62128 5.82447,-2.84509 c 3.67636,-1.79581 8.47488,-6.51501 13.01098,-12.79594 12.85406,-17.7984 16.20441,-20.13069 19.6553,-13.68263 1.42846,2.66908 0.48994,5.15781 -6.06973,16.09567 -4.2677,7.11613 -7.75945,13.85544 -7.75945,14.97628 0,2.89898 4.25029,6.24588 12.47556,9.82387 11.74439,5.10883 16.3002,12.00405 12.20267,18.46878 -1.01672,1.6041 -2.1646,1.1869 -5.26512,-1.91362 -2.18072,-2.18072 -5.1024,-3.96494 -6.49261,-3.96494 -1.39021,0 -4.65837,-1.79287 -7.26257,-3.98415 -4.20487,-3.53817 -5.58738,-3.87108 -12.35028,-2.97396 -4.18845,0.55562 -8.91088,1.70355 -10.49428,2.55097 -3.71546,1.98845 -8.82559,10.37914 -8.83295,14.50344 -0.003,1.764 -1.36595,4.43825 -3.02845,5.94279 -1.66249,1.50454 -3.43117,4.02247 -3.93041,5.59541 -1.26822,3.99577 -4.7627,3.56317 -7.72389,-0.95619 z m 242.78116,0.93036 c 0,-1.58714 -1.72227,-4.0142 -3.82725,-5.39344 -2.44079,-1.59927 -3.82725,-3.93447 -3.82725,-6.44619 0,-4.59472 -3.80827,-11.60445 -7.58637,-13.96391 -1.45034,-0.90575 -6.48157,-2.12718 -11.18051,-2.71427 -7.56903,-0.94568 -8.86241,-0.695 -11.33929,2.19778 -1.53767,1.79587 -5.37024,3.95845 -8.51683,4.80574 -3.14656,0.84728 -6.4697,2.9394 -7.38474,4.64916 -1.32958,2.48436 -2.10342,2.74371 -3.85329,1.29145 -5.84752,-4.85301 0.50698,-13.81083 14.13442,-19.92506 12.04897,-5.40601 12.28603,-7.31827 2.81225,-22.68429 -7.30598,-11.84994 -8.23702,-15.51353 -4.69056,-18.45684 3.33215,-2.76543 7.67592,0.2807 13.59496,9.53366 9.2545,14.46708 19.05791,22.21954 25.14484,19.88434 1.4808,-0.5681 5.65118,-3.02965 9.26751,-5.47012 9.12164,-6.15569 17.23163,-7.08997 21.52657,-2.47989 1.80496,1.9374 3.28174,3.94315 3.28174,4.45723 0,1.1868 -7.6318,3.79293 -18.05908,6.16686 -4.45953,1.01528 -7.86405,2.57847 -7.56563,3.47375 0.29843,0.89527 4.71926,2.47974 9.82406,3.52103 5.10482,1.04129 10.73818,2.80298 12.51861,3.91488 3.71936,2.32277 8.19546,12.17333 6.39147,14.06572 -2.05628,2.15704 -12.70324,-1.73521 -16.03021,-5.86022 -2.34568,-2.90834 -5.60184,-4.3608 -12.70909,-5.66909 -5.25549,-0.96742 -10.01755,-1.29684 -10.58237,-0.73202 -0.56481,0.56481 3.21846,5.44805 8.40727,10.85164 10.22396,10.64719 12.02918,16.45214 6.63455,21.33421 -3.70934,3.35691 -6.38578,3.20933 -6.38578,-0.35211 z M 424.42856,41.833402 c -1.87018,-2.736484 -6.86273,-8.566474 -11.09457,-12.95555 -6.19436,-6.424499 -7.20731,-8.16697 -5.19636,-8.938635 1.4153,-0.543102 6.01256,0.924985 10.6076,3.387423 9.43687,5.05713 14.57071,12.75618 12.91224,19.364051 -1.35578,5.401842 -3.09196,5.195952 -7.22891,-0.857289 z M 368.50902,20.195061 c -1.77845,-1.293274 -4.05707,-4.339566 -5.06361,-6.769549 -2.10541,-5.0829257 -1.63771,-20.4985706 0.64264,-21.1813827 0.842,-0.2521239 3.128,2.104896 5.08001,5.2378221 6.4374,10.3318773 9.66008,11.7022779 29.60488,12.5891436 14.63646,0.650816 18.42123,1.314982 21.04988,3.693879 3.39332,3.070909 4.29211,7.01855 1.59797,7.01855 -0.88381,0 -3.81165,-1.143935 -6.50633,-2.542076 -6.15191,-3.191927 -18.46749,-3.041898 -23.54783,0.286845 -5.55783,3.641645 -18.8127,4.608163 -22.85761,1.666768 z m 57.27646,-2.827542 c -4.51552,-9.3015051 -12.10543,-18.24063062 -17.34706,-20.4307212 -6.7472,-2.8191528 -10.53834,-2.7481956 -17.00027,0.3181823 -2.89384,1.3732175 -5.61081,2.14748563 -6.0377,1.7205788 -2.1836,-2.1835996 -2.24497,-11.8054449 -0.10793,-16.9201069 2.24294,-5.368101 2.73962,-5.668035 9.38632,-5.668035 8.74991,0 19.99533,5.475984 26.53042,12.919053 4.85974,5.5349234 11.72898,24.301479 10.74769,29.362299 -0.87268,4.500571 -3.63797,3.917497 -6.17147,-1.30125 z"
         style="fill:#c4060f;fill-opacity:1;display:inline"
         id="path1354"
         inkscape:connector-curvature="0" />
      <path
         d="M 429.1513,465.31309 C 335.26152,455.29418 250.25752,384.53511 227.93551,292.09795 c -10.97776,-47.33304 -6.91236,-96.49009 -9.64148,-144.67972 -1.72711,-66.708642 -3.51445,-133.415814 -5.47974,-200.117918 162.82304,0 325.64607,0 488.4691,0 -3.8816,107.741667 -4.05018,215.656568 -10.81408,323.270578 -13.54234,100.39238 -102.05903,183.3965 -202.22737,193.70166 -19.63876,1.49426 -39.41207,1.67685 -59.09064,1.04054 z"
         style="fill:#000000;fill-opacity:1;stroke:#000000;stroke-width:1.53090024;stroke-opacity:1;display:inline"
         id="path1352"
         inkscape:connector-curvature="0" />
      <path
         d="m 486.05501,453.3249 c 97.58136,-10.82159 183.2425,-92.812 193.86239,-191.12144 5.08037,-84.6002 4.75497,-169.462803 7.86657,-254.162063 0.45641,-16.6831078 1.27108,-33.35279 2.01243,-50.024798 -154.7516,0 -309.50322,0 -464.25482,0 0.67243,96.399195 4.70239,192.760351 7.90315,289.099731 2.25312,85.67368 62.68744,163.73261 142.25061,193.23176 35.24034,12.36923 73.14874,18.36867 110.35967,12.97681 z"
         style="fill:#fcdd09;fill-opacity:1;stroke:#000000;stroke-width:1.53090024;stroke-opacity:1;display:inline"
         id="path4038"
         inkscape:connector-curvature="0" />
      <path
         d="m 451.09842,444.46018 c -11.61505,-13.04809 -10.37433,-39.95109 -33.86824,-25.27447 -32.05569,5.71091 10.29163,-27.5261 8.353,-43.49779 10.51234,-33.86278 19.53098,-69.84296 14.34148,-105.36766 -20.48913,22.65589 -33.29848,52.70231 -32.16071,83.60778 2.81911,19.3052 -8.74054,0.96589 -13.93067,-6.20336 -4.16668,-21.40121 -27.37316,15.24257 -6.81987,14.54428 22.95369,-0.61355 15.78476,45.59399 0.37766,22.41131 -15.56413,-12.90154 -37.56817,-9.77706 -39.98891,12.89863 -14.34115,30.77448 -30.32274,-15.82882 -12.57993,-23.15742 -9.87851,8.93698 -37.6003,25.64766 -29.19552,-1.99792 3.07841,-9.26406 25.52756,-15.57065 5.29757,-15.10663 -18.93956,2.95021 11.57716,-33.3305 23.86315,-15.43764 10.24797,17.1625 36.84406,-3.33927 29.31071,-14.47369 -12.50704,0.58233 -24.28542,-6.28851 -7.28186,-13.05527 22.21264,-16.9596 48.57346,-38.01176 52.16271,-67.3977 -17.71492,4.28432 -34.81291,28.33438 -52.72373,39.01584 -22.05272,16.63923 -56.08774,30.55484 -80.61785,11.52166 -10.13077,-8.49155 -26.5289,-32.07383 -0.8203,-26.10814 40.15406,-7.70446 74.59691,-35.27807 98.83129,-67.17777 -15.87251,6.15676 -33.99976,24.46668 -50.97705,34.63772 -8.35681,9.02329 -27.71038,9.78579 -7.27303,-0.10788 17.61114,-12.40123 37.17051,-24.21836 52.2738,-38.74358 -28.67278,14.90648 -53.9428,44.38519 -89.02702,42.23689 -19.41534,-2.60979 -34.92521,-20.72618 -36.51387,-39.8775 23.58056,8.82369 46.51836,-2.85043 65.62453,-16.36686 10.68246,-8.07537 31.87373,-20.21529 32.59258,-30.35597 -21.54346,13.36545 -43.32041,28.61647 -68.23691,34.71379 9.26028,-8.2367 30.48538,-15.05321 43.62831,-24.16926 7.96617,-2.05447 33.85381,-24.39267 11.03515,-11.78996 -19.5806,10.98093 -43.36447,22.86442 -65.76432,12.95614 -10.94153,-6.13585 -33.49093,-40.1609 -5.89394,-32.29732 22.70272,-3.45747 45.00075,-13.39097 62.27897,-28.49561 -16.00521,2.80369 -36.60815,14.32025 -55.68423,15.1005 -7.38805,-3.95583 24.67993,-7.45185 31.37936,-11.54027 11.71387,0.98469 33.16765,-19.834102 10.10096,-10.768555 -21.34732,7.480105 -57.62465,12.661845 -64.76023,-16.34432 -10.91082,-21.738278 27.64045,-7.860774 38.30092,-19.545187 11.25877,-2.76577 39.0509,-23.766185 11.47151,-15.310548 -10.00056,0.819261 -36.42768,11.564451 -38.12045,2.239431 12.9377,-2.545474 48.74814,-1.258094 48.08962,-15.056067 -20.9472,-1.294315 -46.03695,-3.471699 -56.27307,-25.214355 -8.2095,-10.70256992 -15.94441,-50.804027 4.19771,-27.228255 21.57263,12.1624204 46.4168,-1.795011 68.91891,-4.123189 29.46854,-7.91973 36.13691,27.2517693 21.38213,45.750326 -0.29109,32.615952 20.16021,64.228047 47.3687,81.266579 25.43229,8.13161 41.20827,-21.950104 43.61587,-42.973177 -0.58683,-19.754399 -22.06992,-46.302659 -43.79252,-37.925006 -25.50659,15.912177 -31.86476,-45.616587 -15.68882,-35.513043 3.75432,21.793727 37.4064,20.1676507 45.61646,15.1493138 -10.14469,-18.0100458 -35.84319,14.4531062 -31.80159,-12.530495 -4.0174,-27.1822968 24.15955,-15.9142288 38.2071,-13.7574198 22.35357,-19.362505 39.93494,13.9324476 59.74933,20.5653944 11.11801,6.0864154 47.37913,-1.9056646 20.98593,14.5395566 -29.79075,4.435921 -10.62042,32.781121 -11.36517,52.547232 0.31607,21.256535 18.37821,49.472324 42.50413,39.409794 26.33229,-18.159138 47.29141,-49.781704 45.31174,-82.712654 -17.20013,-19.7311305 -2.85299,-53.242828 25.28161,-43.539324 22.89482,2.901852 50.04483,18.4886367 70.25382,0.209948 10.83821,-12.885281 7.58951,3.080386 6.54425,11.7848395 -3.62528,21.7910485 -20.82031,42.0164145 -44.16909,42.3408425 -10.07576,-1.3518 -33.50207,4.919135 -11.92192,10.156972 11.63969,5.388631 34.04572,3.524178 40.58859,9.383745 -16.83598,3.314246 -36.8349,-7.907237 -50.82782,-5.492748 16.25847,16.318126 40.66111,23.747509 63.44983,24.25093 5.49824,20.67095 -22.66188,40.939959 -44.43109,32.355609 -10.71232,-2.07759 -48.15705,-12.352683 -21.8812,2.09381 13.35934,7.48153 34.66387,8.12071 44.7721,15.29123 -18.69993,1.6474 -42.86933,-13.65811 -56.43208,-13.1443 20.14382,15.4361 45.5057,27.87981 71.42868,26.53596 6.31875,21.08574 -24.38352,44.45128 -46.87801,35.03218 -15.03667,-0.39699 -37.74211,-21.05912 -45.71114,-17.66351 19.38818,16.1066 44.05937,24.24273 64.61668,38.19866 -25.46188,-4.18326 -47.46285,-25.65886 -69.28801,-32.96032 15.27468,18.83467 37.67907,31.09648 58.65778,42.91235 11.85668,15.90991 52.73588,-12.78 37.07581,15.81444 -8.66572,20.57316 -32.9175,32.53174 -54.14507,23.61138 -25.63099,-8.3391 -45.58568,-27.45253 -68.35585,-40.99095 13.9182,14.63931 32.99078,25.69884 49.69618,37.83436 8.32754,3.12081 21.58762,16.08087 4.39314,7.21317 -20.32994,-11.54444 -37.74437,-27.59515 -57.94149,-39.22338 5.95202,15.92968 31.24514,33.43125 47.8368,45.99694 19.47408,11.99436 41.26517,23.70971 64.94375,21.14741 -5.32371,23.18178 -29.74898,40.51594 -53.76346,34.01641 -39.05706,-6.49133 -63.37892,-40.98058 -95.16197,-60.70409 -2.17686,23.9144 21.98959,42.30089 37.60902,58.14344 6.91714,8.50573 36.80158,21.49897 10.96351,23.73641 -20.26719,-1.89522 7.94111,30.4691 17.35852,19.30972 11.83346,-18.31312 45.93566,-1.13126 34.50449,12.37411 -27.11269,-6.53933 19.73398,19.45527 -0.79636,31.0267 -8.36587,-3.13614 -40.27122,-26.40338 -20.24545,-4.74497 13.18899,14.44094 -16.55177,37.14506 -19.11879,12.0477 -2.50544,-28.94521 -34.4492,-21.04948 -46.45328,-4.82633 -26.17817,-14.0764 11.59271,-28.89833 16.40421,-38.036 -5.02517,-12.02481 -13.10881,-19.76854 -17.99163,-2.92654 -5.73702,11.06214 -14.12126,15.03063 -11.58382,-1.02329 0.61541,-29.49791 -12.96666,-58.28984 -32.46099,-79.74517 -5.67648,24.06602 0.9242,50.22231 5.87285,74.30573 5.6423,24.82413 13.41869,49.80478 29.34071,70.10467 -1.00249,17.07492 -38.70599,-15.08289 -36.50926,13.23155 -3.01151,6.88911 -11.63525,27.57934 -21.53603,16.44948 z"
         style="fill:#000000;fill-opacity:1;stroke:#000000;stroke-width:1.53090024;stroke-opacity:1;display:inline"
         id="path4036"
         inkscape:connector-curvature="0" />
      <path
         d="m 339.52958,400.64868 c 2.02866,-4.87898 7.72036,-7.83536 7.31124,-13.74325 1.59719,-4.73019 4.28683,-9.4385 8.48056,-12.29839 5.36913,-2.01566 11.23112,-3.08945 16.96797,-2.85674 5.24295,1.05144 8.19772,6.9083 13.72784,7.3448 4.28569,0.81384 6.25706,6.02936 10.35345,6.61138 3.81603,-3.50408 2.39002,-9.81558 -1.28455,-12.89836 -6.11168,-6.4066 -16.09573,-7.0835 -21.78545,-13.9532 -2.16203,-3.73352 2.04595,-7.4023 3.27607,-10.8301 3.28894,-6.41733 7.95632,-12.20571 10.19733,-19.11498 1.15867,-4.40264 -4.5711,-9.19387 -7.87414,-4.7384 -9.06416,8.34536 -13.89641,20.74434 -24.52686,27.46462 -2.15513,1.1121 -4.3533,2.13944 -6.52663,3.21572 -7.63924,-4.44114 -14.81025,-10.20734 -23.61527,-12.09628 -4.40438,-1.0393 -8.6447,1.37735 -11.2946,4.76999 -4.46545,4.05826 4.65141,4.46017 7.19678,5.72479 5.75528,1.84634 11.92043,2.53996 17.39652,5.15879 1.52209,3.56663 -6.23284,3.38133 -8.90826,4.31578 -8.0815,1.1496 -17.04957,5.10252 -19.85551,13.37583 -3.02038,5.70837 3.97204,6.50599 7.69728,4.5228 3.94794,-1.0267 6.62021,-4.12391 9.47978,-6.77335 6.43203,-5.08781 15.03133,-4.70935 22.76907,-5.85594 2.72474,-0.78752 0.46211,0.94475 -0.42618,1.98266 -6.26794,6.94065 -13.35621,13.37397 -17.87909,21.65444 -1.34878,4.42894 1.14317,10.07232 5.62781,11.57283 1.74616,0.45971 3.09281,-1.01885 3.49484,-2.55544 z"
         style="color:#000000;fill:#da121a;fill-opacity:1;fill-rule:nonzero;stroke:none;stroke-width:2;marker:none;visibility:visible;display:inline;overflow:visible"
         id="path4034"
         inkscape:connector-curvature="0" />
      <path
         d="m 580.9726,400.97496 c 3.5276,-2.63156 3.69622,-7.70882 1.38005,-11.19226 -4.2779,-7.78346 -12.08174,-12.88193 -16.43558,-20.58678 3.30835,-1.72807 8.54051,0.25384 12.4959,0.69804 4.31755,0.83546 8.83972,2.33851 11.51499,6.06555 3.89888,3.29396 8.9942,5.7854 14.1818,5.62762 3.61631,-2.09718 -0.16454,-7.35498 -1.43074,-10.16753 -2.09222,-4.53946 -7.03935,-6.11485 -11.52973,-7.20431 -4.78002,-1.38989 -9.97565,-1.73603 -14.33253,-4.30085 1.00813,-3.569 7.62101,-3.44127 11.03693,-4.73727 4.78251,-1.41842 10.01326,-2.21507 14.20109,-5.03021 -1.28768,-3.57173 -4.79121,-7.0967 -8.86118,-7.49782 -8.87604,-0.84513 -15.79153,5.7565 -23.04915,9.72295 -4.55928,3.26351 -10.17946,0.19684 -13.87251,-2.94244 -7.13704,-5.74187 -11.70889,-13.80241 -17.01369,-21.09839 -2.29264,-3.34826 -7.7285,-7.96298 -11.04716,-3.1962 -2.41844,4.1351 1.07492,8.6329 2.84189,12.32121 3.28745,6.22121 8.1957,11.82685 9.64726,18.84523 0.33226,4.71751 -4.92342,6.59507 -8.39946,8.32551 -6.56252,3.0155 -13.72222,6.74851 -16.92013,13.59722 -2.16234,2.94295 2.14307,10.27979 5.06843,6.36183 2.84139,-5.48947 9.93206,-5.05249 14.35416,-8.54351 2.75221,-3.1413 6.39494,-5.55587 10.80344,-4.23323 4.86852,0.69856 10.13338,0.95226 14.44711,3.50516 4.4385,3.76522 6.91647,9.55366 7.13333,15.31069 1.16226,4.67944 7.91592,5.78556 7.52197,11.17303 0.95584,3.41449 4.8425,0.51204 6.26351,-0.82324 z"
         style="color:#000000;fill:#da121a;fill-opacity:1;fill-rule:nonzero;stroke:#000000;stroke-width:1.53090024;stroke-linecap:butt;stroke-linejoin:miter;stroke-miterlimit:4;stroke-opacity:1;stroke-dasharray:none;stroke-dashoffset:0;marker:none;visibility:visible;display:inline;overflow:visible"
         id="path4032"
         inkscape:connector-curvature="0" />
      <path
         d="M 431.65747,42.690691 C 433.31594,36.08282 428.1821,28.38377 418.74523,23.32664 c -4.59504,-2.462438 -9.1923,-3.930525 -10.6076,-3.387423 -2.01095,0.771665 -0.998,2.514136 5.19636,8.938635 4.23184,4.389076 9.22439,10.219066 11.09457,12.95555 4.13695,6.053241 5.87313,6.259131 7.22891,0.857289 z"
         style="color:#000000;fill:#da121a;fill-opacity:1;fill-rule:nonzero;stroke:#000000;stroke-width:1.53090024;stroke-linecap:butt;stroke-linejoin:miter;stroke-miterlimit:4;stroke-opacity:1;stroke-dasharray:none;stroke-dashoffset:0;marker:none;visibility:visible;display:inline;overflow:visible"
         id="path4018"
         inkscape:connector-curvature="0" />
      <path
         d="m 431.95693,18.668769 c 0.17373,-7.383211 -3.20224,-14.1598171 -5.75029,-20.9014884 -2.61856,-6.0872115 -6.90987,-11.5195196 -12.61452,-14.9778836 -7.02166,-4.678508 -15.70716,-7.4305 -24.16369,-6.014295 -3.35887,1.354051 -4.17981,5.275605 -5.0345,8.402775 -0.96581,4.224702 -0.94648,8.7043003 0.27467,12.8753298 2.26463,1.97588702 5.11356,-0.051683 7.28406,-1.1292226 5.31807,-2.6608883 11.93133,-2.7112703 17.09777,0.3528112 6.38085,3.51408968 10.59762,9.7469204 14.38929,15.7626386 1.59808,2.603801 2.78738,5.496789 4.58969,7.947791 1.57923,1.215535 4.42092,-0.234044 3.92752,-2.318456 z"
         style="fill:#da121a;fill-opacity:1;stroke:#000000;stroke-width:1.53090024;stroke-opacity:1;display:inline"
         id="path4014"
         inkscape:connector-curvature="0" />
      <path
         d="m 441.77682,0.11637044 c -0.51383,-4.55874534 -0.1913,-6.88905104 0.9535,-6.88905104 0.9515,0 1.73,1.7222627 1.73,3.8272506 0,2.66489924 0.83689,3.82725056 2.75562,3.82725056 1.51559,0 3.57082,0.81520434 4.56718,1.81156014 5.23915,5.239154 3.78014,-5.5417823 -1.59286,-11.7698978 -3.39342,-3.9334799 -14.24989,-7.6659059 -15.66024,-5.3839469 -1.64887,2.667946 0.50816,15.6050483 3.07473,18.4410716 4.12184,4.5545966 5.02654,3.716643 4.17207,-3.86423716 z"
         style="fill:#ffffff;fill-opacity:1;stroke:#000000;stroke-width:1.53090024;stroke-opacity:1;display:inline"
         id="path4012"
         inkscape:connector-curvature="0" />
      <path
         d="m 391.36663,18.528293 c 6.69975,-3.478603 14.76396,-3.187257 21.82378,-1.033082 2.59539,1.011895 4.9629,2.614058 7.71003,3.22256 2.84156,-0.588998 1.92695,-4.200928 0.40774,-5.713687 -3.16796,-3.304861 -7.89276,-4.143136 -12.27724,-4.333136 -10.28582,-1.0699004 -20.99916,0.07527 -30.85716,-3.6492224 -5.53843,-2.7745117 -8.23337,-8.6423146 -11.69628,-13.4299448 -2.75999,-2.5102631 -4.87881,2.0181552 -4.08005,4.3985826 -0.60902,6.5827944 -0.74613,13.8822646 3.24794,19.5191006 2.43821,3.254388 6.63584,4.71231 10.60492,4.440146 5.21387,0.06286 10.43574,-1.12564 15.11632,-3.421317 z"
         style="fill:#da121a;fill-opacity:1;stroke:#000000;stroke-width:1.53090024;stroke-opacity:1;display:inline"
         id="path4016"
         inkscape:connector-curvature="0" />
      <path
         d="m 519.99103,200.1918 c 4.39783,-20.13358 2.54523,-53.07591 2.54523,-84.49248 l -131.80861,0 c 0,29.95044 -1.00014,60.03369 4.23033,84.49248 7.32288,34.24327 28.23388,55.71344 61.67397,55.71344 33.4401,0 56.49341,-24.28188 63.35908,-55.71344 z"
         style="fill:#ffffff;fill-opacity:1;stroke:#000000;stroke-width:3.82725048;stroke-miterlimit:4;stroke-opacity:1;stroke-dasharray:none;display:inline"
         id="path4030"
         inkscape:connector-curvature="0" />
      <path
         d="m 458.41348,214.65264 c -14.96729,0 -35.72281,8.133 -35.72281,-8.43299 0,-16.2572 10.45845,-26.49741 20.19162,-33.0903 5.34251,-3.61882 8.60513,-2.30722 9.5676,-3.07577 l 0,-13.49627 -20.39777,0 -0.15437,-11.7643 20.55214,0 0,-20.21708 8.97063,0 0,20.06267 c 0,0 20.54685,0.15441 20.54685,0.15441 l -0.1544,11.7643 -20.39245,-0.1544 0,13.58498 c 5.86731,1.05504 3.29619,0.44579 7.69886,2.18276 12.08787,4.769 20.85664,14.85667 21.46656,34.049 0.55772,17.54984 -16.58448,8.43299 -32.17246,8.43299 z"
         style="fill:#fcdd09;fill-opacity:1;stroke:#000000;stroke-width:3.82725048000000000;stroke-miterlimit:4;stroke-opacity:1;stroke-dasharray:none;display:inline"
         id="path4028"
         inkscape:connector-curvature="0" />
      <path
         d="m 456.28921,239.11672 c 26.25164,0 33.9831,-24.44462 33.9831,-27.67422 l -67.0538,-0.0947 c -0.15441,3.24246 6.66467,27.76894 33.0707,27.76894 z"
         style="color:#000000;fill:#0f47af;fill-opacity:1;fill-rule:nonzero;stroke:#000000;stroke-width:3.82725048000000000;stroke-linecap:butt;stroke-linejoin:miter;stroke-miterlimit:4;stroke-opacity:1;stroke-dasharray:none;stroke-dashoffset:0;marker:none;visibility:visible;display:inline;overflow:visible"
         id="path4026"
         inkscape:connector-curvature="0" />
      <path
         d="m 489.945,201.58182 c 0.0297,-8.98507 -9.2294,-30.69651 -28.52976,-31.47752 l 0,31.47752 28.52976,0 z"
         style="color:#000000;fill:#0f47af;fill-opacity:1;fill-rule:nonzero;stroke:#000000;stroke-width:3.82725048000000000;stroke-linecap:butt;stroke-linejoin:miter;stroke-miterlimit:4;stroke-opacity:1;stroke-dasharray:none;stroke-dashoffset:0;marker:none;visibility:visible;display:inline;overflow:visible"
         id="path4020"
         inkscape:connector-curvature="0" />
      <path
         d="m 452.45645,170.00818 c -13.37484,-0.55595 -30.98318,17.64691 -29.62253,31.6088 l 29.62253,0 z"
         style="fill:#0f47af;fill-opacity:1;stroke:#000000;stroke-width:3.82725048000000000;stroke-miterlimit:4;stroke-opacity:1;stroke-dasharray:none;display:inline"
         id="path4022"
         inkscape:connector-curvature="0"
         sodipodi:nodetypes="cccc" />
    </g>
  </g>
</svg>
