<svg xmlns="http://www.w3.org/2000/svg" height="480" width="430"><g style="stroke:#000;stroke-linejoin:miter;stroke-miterlimit:4;stroke-dasharray:none"><path style="fill:#fcdd09;stroke-width:8;stroke-linecap:round;stroke-linejoin:round;stroke-miterlimit:4;stroke-dasharray:none" d="M20 572.36h420v300c0 80-90 170-210 170s-210-90-210-170z" transform="translate(-15 -567.36)"/><path style="fill:#da121a;stroke-width:3;stroke-linecap:round;stroke-dashoffset:0" d="M22.02 712.36h416.46v160H22.02z" transform="translate(-15 -567.36)"/><path style="fill:#fcdd09;stroke-width:3;stroke-linecap:round;stroke-linejoin:round;stroke-dashoffset:0" transform="rotate(-2.899 -10508.621 -309.927)" d="m97.985 796.79-42.738-10.5-18.1 40.12-12.272-42.27-43.791 4.383 30.466-31.76-25.692-35.732 42.738 10.505 18.099-40.116 12.272 42.264 43.791-4.384-30.466 31.76z"/><path style="fill:#fcdd09;stroke-width:3;stroke-linecap:round;stroke-linejoin:round;stroke-dashoffset:0" transform="rotate(-2.899 -10423.761 -2874.004)" d="m97.985 796.79-42.738-10.5-18.1 40.12-12.272-42.27-43.791 4.383 30.466-31.76-25.692-35.732 42.738 10.505 18.099-40.116 12.272 42.264 43.791-4.384-30.466 31.76z"/><path style="fill:#fcdd09;stroke-width:3;stroke-linecap:round;stroke-linejoin:round;stroke-dashoffset:0" transform="rotate(-2.899 -10389.553 -5409.406)" d="m97.985 796.79-42.738-10.5-18.1 40.12-12.272-42.27-43.791 4.383 30.466-31.76-25.692-35.732 42.738 10.505 18.099-40.116 12.272 42.264 43.791-4.384-30.466 31.76z"/><path d="m361.93 778.77 9.169-13.451m-21 13-9.169-13.451m-.831 51.451 9.169-13.451m20.83 13.451-9.168-13.451m24.169-12.549h-14m-31 0h-14m-92.458-10.034 9.169-13.451m-21 13-9.17-13.451m-.83 51.451 9.169-13.451m20.83 13.451-9.168-13.451m24.169-12.549h-14m-31 0h-14m-93.98-12.56 9.17-13.45m-21 13-9.17-13.451m-.83 51.45 9.169-13.45m20.83 13.45-9.17-13.45m24.17-12.55h-14m-31 0H68" style="fill:#ffd200;stroke-width:3;stroke-linecap:round" transform="translate(-15 -567.36)"/></g></svg>