<svg xmlns="http://www.w3.org/2000/svg" height="560" width="470"><path d="M6 496.36h460c0 310-60 470-230 550C66 966.32 6 806.32 6 496.32Z" style="fill:#da121a" transform="translate(-1.88 -494.07)"/><path d="M9.07 590.94C22.787 586.01 41 576.36 66 576.36c30 0 55 20 85 20s50-20 80-20 70 20 100 20 50-20 80-20 41.325 11.766 51.786 16.429c-.801 11.041-1.911 59.149-5.49 66.205-13.8-8.43-27.95-12.64-46.3-12.64-20 0-50 20-80 20s-70-20-100-20-45 20-80 20c-30 0-55-20-85-20s-45 10-51.817 14.929c-1.66-23.414-5.203-46.065-5.112-70.354z" style="fill:#fcdd09;stroke:#000;stroke-width:3;stroke-linecap:butt;stroke-linejoin:miter;stroke-miterlimit:4;stroke-dasharray:none" transform="translate(-1.88 -494.07)"/><path d="M372.49 798.56c.11-15.29-6.63-14.1-6.314-18.183-2.715-6.712-3.196-18.002-3.535-28.032-2.364-15.709-13.617-23.656-21.213-26.769-23.166-8.954-24.749-31.141-15.152-36.113 6.03-3.03 16.759-7.115 18.183-13.89 1.857-12.056 12.637-14.783 29.294-11.364 13.608-5.31 26.966-1.826 30.052 8.586 2.137 7.939 12.903 6.818 21.213 7.577 11.662.728 21.84 18.129 15.152 22.476-15.639 12.459-19.685 23.149-28.537 35.608-6.597 8.317-8.613 19.813-10.607 30.051-.52 4.799-9.072 12.88-10.354 25.001-1.38 10.39-17.635 8.49-18.183 5.051z" style="fill:#000" transform="translate(-5.88 -480.07)"/><path d="M372.24 746.29c-6.102-1.494-5.508 4.38-5.05 10.102.331 7.082-.498 18.966 2.02 21.213 6.564 4.546 3.905 8.081 6.566 14.647 3.53 8.637 14.046.221 10.354-4.798-3.835-3.788-1.377-6.566 1.767-7.829 4.147-2.111 10.425-7.396 9.597-14.647-1.39-11.819 7.683-17.339 4.798-18.688-6.987-4.333-14.226-4.531-19.951 1.515-2.782 2.087-6.95-1.242-10.102-1.515zM358.38 685.5c4.079-7.155 13.391-10.932 21.502-4.207 3.127 1.678-2.633 11.926 4.62 21.996 4.218 5.676 5.618 17.805 3.357 28.228-1.06 9.203-7.12 11.693-10.323 1.01-3.573-11.188-10.003-17.296-15.54-23.171-7.606-7.95-6.418-18.608-3.615-23.856z" style="fill:#fcdd09" transform="translate(-5.88 -480.07)"/><path d="M344.03 686.29c9.824-6.273 9.664-.95 9.257 5.29.257 6.684.887 15.51 6.579 21.122 3.967 5.293 9.766 8.753 11.617 16.162 1.586 4.537-.269 9.27-3.597 4.293-4.754-5.552-8.503-12.353-14.992-16.655-5.984-5.012-13.018-10.563-13.78-15.87-2.338-7.342 1.082-11.267 4.916-14.343z" style="fill:#fcdd09" transform="translate(-5.88 -480.07)"/><path d="M325.65 696.75c1.302-4.81 7.947-7.055 9.632 3.492.621 4.56 10.016 15.855 18.41 20.604 4.435 1.846 9.426 14.336 1.24 7.528-6.259-4.693-15.741-8.695-23.017-13.698-6.237-4.168-8.5-12.118-6.265-17.925zM414.67 684.67c9.622-2.087 16.747 4.355 4.798 9.849-8.353 5.077-12.668 22.066-16.668 32.83-3.514 11.166-12.275 9.603-10.859 2.778 2.376-13.49-5.508-27.573-3.283-30.81 5.727-10.034 15.665-15.034 26.011-14.647z" style="fill:#fcdd09" transform="translate(-5.88 -480.07)"/><path d="M429.06 693.25c4.655-4.629 13.394 3.768 8.839 7.324-6.65 6.878-14.058 11.4-19.951 22.476-3.562 7.86-12.925 14.778-10.607 7.828 4.345-14.1 9.32-29.903 21.718-37.628zM378.81 673.81c-4.924-3.76-3.156-6.257 4.546-7.324 5.731-.94 11.902 1.03 16.668 8.082 2.326 3.694.829 7.682-9.85 12.374-7.89 5.406-6.209-8.31-11.363-13.132zM352.14 670.24c4.305-2.868 10.44-2.146 14.543-1.485 5.939 1.258 5.59 6.306 1.01 6.566-6.721 1.396-12.144 1.393-16.224.432-3.145-.609-2.598-3.837.671-5.513z" style="fill:#fcdd09" transform="translate(-5.88 -480.07)"/><path d="M372.49 798.56c.11-15.29-6.63-14.1-6.314-18.183-2.715-6.712-3.196-18.002-3.535-28.032-2.364-15.709-13.617-23.656-21.213-26.769-23.166-8.954-24.749-31.141-15.152-36.113 6.03-3.03 16.759-7.115 18.183-13.89 1.857-12.056 12.637-14.783 29.294-11.364 13.608-5.31 26.966-1.826 30.052 8.586 2.137 7.939 12.903 6.818 21.213 7.577 11.662.728 21.84 18.129 15.152 22.476-15.639 12.459-19.685 23.149-28.537 35.608-6.597 8.317-8.613 19.813-10.607 30.051-.52 4.799-9.072 12.88-10.354 25.001-1.38 10.39-17.635 8.49-18.183 5.051z" style="fill:#000" transform="translate(-145.619 -479.587)"/><path d="M372.24 746.29c-6.102-1.494-5.508 4.38-5.05 10.102.331 7.082-.498 18.966 2.02 21.213 6.564 4.546 3.905 8.081 6.566 14.647 3.53 8.637 14.046.221 10.354-4.798-3.835-3.788-1.377-6.566 1.767-7.829 4.147-2.111 10.425-7.396 9.597-14.647-1.39-11.819 7.683-17.339 4.798-18.688-6.987-4.333-14.226-4.531-19.951 1.515-2.782 2.087-6.95-1.242-10.102-1.515zM358.38 685.5c4.079-7.155 13.391-10.932 21.502-4.207 3.127 1.678-2.633 11.926 4.62 21.996 4.218 5.676 5.618 17.805 3.357 28.228-1.06 9.203-7.12 11.693-10.323 1.01-3.573-11.188-10.003-17.296-15.54-23.171-7.606-7.95-6.418-18.608-3.615-23.856z" style="fill:#fcdd09" transform="translate(-145.619 -479.587)"/><path d="M344.03 686.29c9.824-6.273 9.664-.95 9.257 5.29.257 6.684.887 15.51 6.579 21.122 3.967 5.293 9.766 8.753 11.617 16.162 1.586 4.537-.269 9.27-3.597 4.293-4.754-5.552-8.503-12.353-14.992-16.655-5.984-5.012-13.018-10.563-13.78-15.87-2.338-7.342 1.082-11.267 4.916-14.343z" style="fill:#fcdd09" transform="translate(-145.619 -479.587)"/><path d="M325.65 696.75c1.302-4.81 7.947-7.055 9.632 3.492.621 4.56 10.016 15.855 18.41 20.604 4.435 1.846 9.426 14.336 1.24 7.528-6.259-4.693-15.741-8.695-23.017-13.698-6.237-4.168-8.5-12.118-6.265-17.925zM414.67 684.67c9.622-2.087 16.747 4.355 4.798 9.849-8.353 5.077-12.668 22.066-16.668 32.83-3.514 11.166-12.275 9.603-10.859 2.778 2.376-13.49-5.508-27.573-3.283-30.81 5.727-10.034 15.665-15.034 26.011-14.647z" style="fill:#fcdd09" transform="translate(-145.619 -479.587)"/><path d="M429.06 693.25c4.655-4.629 13.394 3.768 8.839 7.324-6.65 6.878-14.058 11.4-19.951 22.476-3.562 7.86-12.925 14.778-10.607 7.828 4.345-14.1 9.32-29.903 21.718-37.628z" style="fill:#ffd200" transform="translate(-145.619 -479.587)"/><path d="M378.81 673.81c-4.924-3.76-3.156-6.257 4.546-7.324 5.731-.94 11.902 1.03 16.668 8.082 2.326 3.694.829 7.682-9.85 12.374-7.89 5.406-6.209-8.31-11.363-13.132zM352.14 670.24c4.305-2.868 10.44-2.146 14.543-1.485 5.939 1.258 5.59 6.306 1.01 6.566-6.721 1.396-12.144 1.393-16.224.432-3.145-.609-2.598-3.837.671-5.513z" style="fill:#fcdd09" transform="translate(-145.619 -479.587)"/><path d="M372.49 798.56c.11-15.29-6.63-14.1-6.314-18.183-2.715-6.712-3.196-18.002-3.535-28.032-2.364-15.709-13.617-23.656-21.213-26.769-23.166-8.954-24.749-31.141-15.152-36.113 6.03-3.03 16.759-7.115 18.183-13.89 1.857-12.056 12.637-14.783 29.294-11.364 13.608-5.31 26.966-1.826 30.052 8.586 2.137 7.939 12.903 6.818 21.213 7.577 11.662.728 21.84 18.129 15.152 22.476-15.639 12.459-19.685 23.149-28.537 35.608-6.597 8.317-8.613 19.813-10.607 30.051-.52 4.799-9.072 12.88-10.354 25.001-1.38 10.39-17.635 8.49-18.183 5.051z" style="fill:#000" transform="translate(-278.476 -477.087)"/><path d="M372.24 746.29c-6.102-1.494-5.508 4.38-5.05 10.102.331 7.082-.498 18.966 2.02 21.213 6.564 4.546 3.905 8.081 6.566 14.647 3.53 8.637 14.046.221 10.354-4.798-3.835-3.788-1.377-6.566 1.767-7.829 4.147-2.111 10.425-7.396 9.597-14.647-1.39-11.819 7.683-17.339 4.798-18.688-6.987-4.333-14.226-4.531-19.951 1.515-2.782 2.087-6.95-1.242-10.102-1.515zM358.38 685.5c4.079-7.155 13.391-10.932 21.502-4.207 3.127 1.678-2.633 11.926 4.62 21.996 4.218 5.676 5.618 17.805 3.357 28.228-1.06 9.203-7.12 11.693-10.323 1.01-3.573-11.188-10.003-17.296-15.54-23.171-7.606-7.95-6.418-18.608-3.615-23.856z" style="fill:#fcdd09" transform="translate(-278.476 -477.087)"/><path d="M344.03 686.29c9.824-6.273 9.664-.95 9.257 5.29.257 6.684.887 15.51 6.579 21.122 3.967 5.293 9.766 8.753 11.617 16.162 1.586 4.537-.269 9.27-3.597 4.293-4.754-5.552-8.503-12.353-14.992-16.655-5.984-5.012-13.018-10.563-13.78-15.87-2.338-7.342 1.082-11.267 4.916-14.343z" style="fill:#fcdd09" transform="translate(-278.476 -477.087)"/><path d="M325.65 696.75c1.302-4.81 7.947-7.055 9.632 3.492.621 4.56 10.016 15.855 18.41 20.604 4.435 1.846 9.426 14.336 1.24 7.528-6.259-4.693-15.741-8.695-23.017-13.698-6.237-4.168-8.5-12.118-6.265-17.925zM414.67 684.67c9.622-2.087 16.747 4.355 4.798 9.849-8.353 5.077-12.668 22.066-16.668 32.83-3.514 11.166-12.275 9.603-10.859 2.778 2.376-13.49-5.508-27.573-3.283-30.81 5.727-10.034 15.665-15.034 26.011-14.647z" style="fill:#fcdd09" transform="translate(-278.476 -477.087)"/><path d="M429.06 693.25c4.655-4.629 13.394 3.768 8.839 7.324-6.65 6.878-14.058 11.4-19.951 22.476-3.562 7.86-12.925 14.778-10.607 7.828 4.345-14.1 9.32-29.903 21.718-37.628zM378.81 673.81c-4.924-3.76-3.156-6.257 4.546-7.324 5.731-.94 11.902 1.03 16.668 8.082 2.326 3.694.829 7.682-9.85 12.374-7.89 5.406-6.209-8.31-11.363-13.132zM352.14 670.24c4.305-2.868 10.44-2.146 14.543-1.485 5.939 1.258 5.59 6.306 1.01 6.566-6.721 1.396-12.144 1.393-16.224.432-3.145-.609-2.598-3.837.671-5.513z" style="fill:#fcdd09" transform="translate(-278.476 -477.087)"/><path d="M50.527 838.72A89.117 89.117 0 0 1 71 836.36c30 0 55 20 85 20s50-20 80-20 70 20 100 20c36.8-.815 48.585-20.895 87.13-19.791-9.159 25.763-21.678 51.526-36.547 77.289-15.532 5.676-33.058 12.502-50.583 12.502-30 0-70-20-100-20s-45 20-80 20c-26.245 0-48.664-15.307-73.951-19.139-14.197-23.07-25.793-47.96-31.522-68.5z" style="fill:#fcdd09;stroke:#000;stroke-width:3;stroke-linecap:butt;stroke-linejoin:miter;stroke-miterlimit:4;stroke-dasharray:none" transform="translate(-1.88 -494.07)"/><path d="M6.88 499.07h460c0 310-60 470-230 550-170-80.03-230-240.03-230-550.03z" style="fill:none;stroke:#000;stroke-width:8;stroke-linecap:butt;stroke-linejoin:round;stroke-miterlimit:4;stroke-dasharray:none" transform="translate(-1.88 -494.07)"/></svg>