<svg xmlns="http://www.w3.org/2000/svg" width="701.33" height="741.77" viewBox="0 0 701.3341 741.76859"><g transform="translate(-16.02-66.906)"><path d="m21.698 72.41l13.398 416.62c7.415 175.25 153.92 314.05 331.59 314.14 177.51-.215 324.07-139.06 331.59-314.14l13.398-416.62h-344.98z" fill="#fff" fill-rule="evenodd"/><g stroke="#000" stroke-width="11"><path d="m5.68 5.5l13.398 416.62c7.415 175.25 153.92 314.05 331.59 314.14v-730.77h-344.99z" transform="translate(16.02 66.906)" fill="#f00" stroke-linejoin="round" stroke-linecap="round"/><path d="m21.698 72.41l13.398 416.62c7.415 175.25 153.92 314.05 331.59 314.14 177.51-.215 324.07-139.06 331.59-314.14l13.398-416.62h-344.98z" fill="none" fill-rule="evenodd"/><path d="m188.21 248.15c-1.999 0-3.996.247-5.992.339-34.962 1.608-68.986 17.974-92.16 44.21-20.832 23.584-32.753 54.708-33.715 86.16-.822 26.856 6.02 53.34 14.09 78.967 5.04 15.982 10.583 31.801 16.611 47.44l-19.725 7.84 18.809 47.32 71.879-28.57-18.809-47.32c-12.48-24.429-20.06-51.35-22.17-78.7-.786-10.192-.816-20.49.799-30.584 1.615-10.09 4.917-20 10.44-28.605 6.01-9.36 14.54-16.979 24.17-22.545 9.63-5.566 20.366-9.281 31.27-11.17 6.89-1.193 14.09-1.193 20.977 0 10.907 1.889 21.644 5.604 31.27 11.17 9.63 5.566 18.16 13.185 24.17 22.545 5.523 8.602 8.824 18.512 10.439 28.605 1.615 10.09 1.585 20.392.799 30.584-2.109 27.351-9.692 54.27-22.17 78.7l-18.809 47.32 71.879 28.57 18.809-47.32-19.725-7.84c6.03-15.634 11.575-31.454 16.611-47.44 8.08-25.626 14.915-52.11 14.09-78.967-.962-31.452-12.883-62.58-33.715-86.16-23.17-26.23-57.19-42.597-92.16-44.21-1.996-.092-3.993-.339-5.992-.339-4.12.183-8.159.003-11.988 0z" fill="#ffd700" stroke-linejoin="round" stroke-linecap="round"/></g><path d="m155.87 272.77c-4.509.071-8.96 1.6-12.881 3.871-3.701 2.144-7.02 4.953-9.736 8.254 4.977-2.859 10.775-4.271 16.51-4.02 5.698.248 11.198 2.084 16.539 4.086 5.341 2 10.641 4.345 16.267 5.227 7.667 1.201 15.615 1.202 23.281 0 5.626-.882 10.925-3.225 16.266-5.227 5.341-2 10.841-3.838 16.539-4.086 5.734-.25 11.533 1.162 16.51 4.02-2.72-3.301-6.03-6.11-9.736-8.254-4.481-2.595-9.655-4.222-14.816-3.811-4.466.356-8.657 2.191-12.91 3.6-5.937 1.966-12.208 2.643-18.414 3.174-3.374.289-6.784.289-10.158 0-6.206-.531-12.477-1.208-18.414-3.174-4.254-1.408-8.444-3.244-12.91-3.6-.645-.051-1.291-.071-1.936-.061m-58.08 44.648l-11.11 17.818 17.818 11.11 11.11-17.818-17.818-11.11m192.84 0l-17.818 11.11 11.11 17.818 17.818-11.11-11.11-17.818m-212.95 44.672l-1.225 20.965 20.965 1.223 1.223-20.965-20.963-1.223m233.05 0l-20.963 1.223 1.223 20.965 20.965-1.223-1.225-20.965m-212.22 44.39l-20.488 4.613 4.615 20.486 20.486-4.613-4.613-20.486m191.39 0l-4.613 20.486 20.486 4.613 4.615-20.486-20.488-4.613m-179.19 44.846l-19.346 8.168 8.168 19.346 19.348-8.168-8.17-19.346m166.98 0l-8.17 19.346 19.348 8.168 8.168-19.346-19.346-8.168"/><path d="m463.27 46.42c-16.729-.283-34 4.072-46.871 14.768-13.337 11.09-20.92 28.567-20.545 45.906.269 12.42 4.531 24.836 12.52 34.35 7.305 8.699 17.888 14.883 29.21 15.73 7.998.599 16.337-1.575 22.471-6.742 3.797-3.199 6.653-7.432 8.555-12.02 2.208-5.322 3.148-11.385 1.396-16.875-1.51-4.733-4.923-8.702-8.988-11.557-3.722-2.614-8.03-4.383-12.52-5.137 1.26 1.984 2.439 4.02 3.531 6.1 1.16 2.21 2.248 4.567 2.248 7.06 0 2.507-1.142 4.946-2.891 6.742-1.942 1.994-4.616 3.231-7.383 3.531-3.18.345-6.501-.558-8.988-2.568-1.808-1.462-3.15-3.464-3.941-5.65-.791-2.186-1.045-4.55-.875-6.869.328-4.474 2.238-8.776 5.137-12.199 4.064-4.8 10.1-7.877 16.373-8.346 7.867-.588 15.78 2.923 21.19 8.666 4.726 5.02 7.613 11.558 9.143 18.281 1.529 6.723 1.774 13.67 1.771 20.564-.007 18.08-1.681 36.12-3.807 54.08-1.683 14.221-3.65 28.407-5.9 42.549h33.465c1.271-25.552 1.7-51.15 1.283-76.73-.306-18.814-1.213-38.23-9.311-55.22-4.138-8.681-10.223-16.607-18.299-21.828-7.657-4.95-16.887-7.286-26-7.06-8.857.217-17.901 2.966-24.398 8.988-4.951 4.588-8.169 10.826-9.951 17.336-1.483 5.418-2.029 11.09-1.605 16.693-2.135-4.811-3.03-10.167-2.568-15.41.825-9.422 6.06-18.216 13.482-24.08 9.526-7.518 22.279-10.247 34.35-8.99 12.156 1.265 24.03 6.526 32.424 15.41 10.41 11.02 14.705 26.43 17.02 41.41 3.318 21.518 3.287 43.4 2.889 65.17-.27 14.772-.707 29.541-1.309 44.3h32.424c0 0-1.026-20.41-1.878-30.591-3.051-36.429-1.832-81.65-11.581-109.06-3.824-10.751-9.391-21.02-17.336-29.21-13.827-14.256-34.07-21.17-53.932-21.508m5.713 198.37v14.07h38.59v-14.07zm46.59 0v14.07h38.588v-14.07zm-69.74 11.953v17.252 17.252c4.406-1.943 8.965-3.539 13.621-4.768 3.805-1 7.674-1.762 11.576-2.27h36.547v-10.215-10.215h-36.547c-3.902-.507-7.771-1.266-11.576-2.27-4.656-1.228-9.216-2.824-13.621-4.768m131.49 0c-4.406 1.943-8.963 3.539-13.619 4.768-3.805 1-7.674 1.762-11.576 2.27h-36.547v10.215 10.215h36.547c3.902.507 7.771 1.266 11.576 2.27 4.656 1.228 9.214 2.824 13.619 4.768v-17.252zm-108.33 32.383v14.07h38.59v-14.07zm46.59 0v14.07h38.588v-14.07zm-39.463 20.537c-1.687 13.516-3.613 27-5.777 40.449-8.262 51.33-20.09 102.4-40.449 150.24-7.125 16.744-15.279 33.05-24.398 48.797 9.185-2.084 18.21-4.878 26.967-8.348 8.64-3.424 17.02-7.504 25.04-12.197 2.451 12.1 6.114 23.944 10.916 35.31 9.178 21.731 22.55 41.679 39.16 58.43v-312.68zm39.461 0v312.68c16.614-16.746 29.988-36.695 39.17-58.43 4.802-11.369 8.463-23.22 10.914-35.31 8.02 4.693 16.401 8.774 25.04 12.197 8.756 3.47 17.781 6.264 26.967 8.348-9.12-15.746-17.273-32.05-24.398-48.797-20.358-47.841-32.19-98.91-40.449-150.24-2.164-13.448-4.092-26.933-5.779-40.449z" transform="translate(16.02 66.906)" fill-rule="evenodd"/></g></svg>