<?xml version="1.0" encoding="UTF-8" standalone="no"?><svg xmlns="http://www.w3.org/2000/svg" width="979.3" height="1067.61" viewBox="0 0 979.29685 1067.6059"><g transform="translate(124.12 9.381)"><path d="m675.35.633l-70.798.478h-235.05l-7.958.043h-235.05-239.53c0 0 4.995 48.18 6.784 72.32 3.067 41.38 4.256 82.87 6.784 124.29 3.405 55.766 7.902 111.49 11.307 167.25 2.529 41.41 3.91 82.9 6.784 124.29 4.346 62.59 5.02 125.75 15.786 187.56 6.02 34.562 14.418 68.979 27.14 101.67 15.355 39.473 33.473 78.71 58.839 112.63 18.288 24.456 41.648 45.04 65.884 63.62 27.747 21.272 57.962 39.816 89.93 53.968 33.818 14.97 69.917 25.08 106.24 32.09 27.334 5.278 55.35 7.255 83.19 7.349 27.662.094 55.55-1.52 82.71-6.741 36.46-7.01 72.54-17.626 106.46-32.746 31.934-14.235 62.23-32.696 89.98-53.968 24.24-18.58 47.595-39.17 65.884-63.62 25.365-33.919 43.484-73.16 58.839-112.63 12.718-32.695 21.12-67.16 27.14-101.72 10.762-61.814 11.44-124.97 15.786-187.56 2.874-41.39 4.256-82.87 6.784-124.29 3.405-55.766 7.902-111.44 11.307-167.21 2.529-41.41 3.717-82.909 6.784-124.29 1.79-24.14 6.784-72.32 6.784-72.32l-168.73-.478" fill="#fff"/><g stroke="#000"><path d="m675.36.646l-70.797.479h-235.05l-7.959.045h-235.05-239.53c0 0 4.994 48.17 6.783 72.32 3.067 41.38 4.257 82.87 6.785 124.29 3.405 55.766 7.902 111.49 11.307 167.25 2.529 41.41 3.91 82.9 6.783 124.29 4.125 59.41 4.954 119.34 14.23 178.13 14.07-14.434 29.97-31.716 39-44.77 35.31-51.03 83.25-166.5 83.25-166.5 0 0 23.678 7.995 33.568 2.686 25.24-13.551 24.763-52.04 41.627-75.2 11.556-15.871 22.267-35.16 40.28-42.967 2.875-1.245 6.91-1.902 9.4 0 8.111 6.195 2.675 20.866 8.05 29.539 5.682 9.16 16.596 13.815 24.17 21.484 6.243 6.321 13.13 12.386 17.457 20.14 8.01 14.337 4.915 33.861 14.77 46.996 6.779 9.04 19.935 11.09 28.2 18.797 18.203 16.973 29.21 40.4 45.654 59.08 13.381 15.206 26.841 30.71 42.967 42.967 9.414 7.156 19.17 19.05 30.883 17.457 5.02-.684 7.543-6.817 10.742-10.742 13.882-17.03 22.372-38.02 36.25-55.05 9.998-12.266 21.379-23.48 33.57-33.568 10.425-8.627 24.558-12.733 33.568-22.828 19.864-22.255 24.983-54.46 41.625-79.22 12.405-18.454 29.416-33.396 42.967-51.03 3.329-4.332 3.958-12.951 9.4-13.428 6.306-.552 8.579 9.359 13.428 13.428 12.556 10.535 29.574 15.787 40.28 28.2 9.807 11.367 16.5 25.719 20.14 40.28 4.126 16.506-1.089 34.19 1.344 51.03 1.987 13.754 2.921 28.794 10.742 40.28 13.15 19.313 39.81 25.17 56.39 41.625 15.885 15.764 26.453 36.12 40.28 53.711 5.574 7.091 13.02 16.241 20.639 25.516 4.523-45.19 5.765-90.81 8.912-136.14 2.874-41.39 4.255-82.87 6.783-124.29 3.405-55.766 7.902-111.45 11.307-167.21 2.529-41.41 3.718-82.909 6.785-124.29 1.79-24.14 6.783-72.32 6.783-72.32l-168.73-.479" fill="#0f47af" fill-rule="evenodd" stroke-linejoin="round" stroke-width="5"/><path d="m675.36.647l-70.798.478h-235.05l-7.958.043h-235.05-239.53c0 0 4.995 48.18 6.784 72.32 3.067 41.38 4.256 82.87 6.784 124.29 3.405 55.766 7.902 111.49 11.307 167.25 2.529 41.41 3.91 82.9 6.784 124.29 4.346 62.59 5.02 125.75 15.786 187.56 6.02 34.562 14.418 68.979 27.14 101.67 15.355 39.473 33.473 78.71 58.839 112.63 18.288 24.456 41.648 45.04 65.884 63.62 27.747 21.272 57.962 39.816 89.93 53.968 33.818 14.97 69.917 25.08 106.24 32.09 27.334 5.278 55.35 7.255 83.19 7.349 27.662.094 55.55-1.52 82.71-6.741 36.46-7.01 72.54-17.626 106.46-32.746 31.934-14.235 62.23-32.696 89.98-53.968 24.24-18.58 47.595-39.17 65.884-63.62 25.365-33.919 43.484-73.16 58.839-112.63 12.718-32.695 21.12-67.16 27.14-101.72 10.762-61.814 11.44-124.97 15.786-187.56 2.874-41.39 4.256-82.87 6.784-124.29 3.405-55.766 7.902-111.44 11.307-167.21 2.529-41.41 3.717-82.909 6.784-124.29 1.79-24.14 6.784-72.32 6.784-72.32l-168.73-.478" fill="none" stroke-width="20"/><g stroke-width="5"><g stroke-linejoin="round"><g fill="#fff"><ellipse cx="365.53" cy="321.18" rx="103.5" ry="8.939" stroke-linecap="round"/><path d="m315.59 207.1c0 0 2.2 37.18-2.02 55.05-3.724 15.791-11.361 30.667-20.14 44.31-6.266 9.737-22.826 26.18-22.826 26.18 0 0 26.742 12.474 40.953 16.11 13.768 3.524 28.11 4.474 42.3 5.371 7.762.491 15.57.491 23.332 0 14.183-.897 28.527-1.847 42.29-5.371 14.212-3.637 40.955-16.11 40.955-16.11 0 0-16.562-16.446-22.828-26.18-8.78-13.643-16.417-28.519-20.14-44.31-4.215-17.873-2.01-55.05-2.01-55.05l-49.934 3.328z" fill-rule="evenodd"/><g stroke-linecap="round"><path d="M469.02515 320.26367A114.80488 30.715343 0 0 1 365.5283 337.77344 114.80488 30.715343 0 0 1 262.03146 320.2832a114.80488 30.715343 0 0 0 -11.30784 13.20508 114.80488 30.715343 0 0 0 114.80468 30.7168 114.80488 30.715343 0 0 0 114.80466 -30.7168 114.80488 30.715343 0 0 0 -11.30781 -13.22461z"/><path d="M365.49997 103.13477A344.83667 67.953102 0 0 0 28.2129 157.06641 344.83667 98.88699 0 0 0 365.49997 235.91016 344.83667 98.88699 0 0 0 702.84372 157.36523 344.83667 67.953102 0 0 0 365.49997 103.13477"/></g></g><g stroke-linecap="round"><g fill="none" fill-rule="evenodd"><path d="m28.21 157.07c0 0 82.58 14.362 124.25 18.353 39.673 3.799 79.61 4.11 119.45 5.292 33.504.994 100.55 1.512 100.55 1.512"/><path d="m702.84 157.37c0 0-82.58 14.362-124.25 18.353-39.673 3.799-79.61 4.11-119.45 5.292-33.504.994-100.55 1.512-100.55 1.512"/></g><path d="M365.50758 152.98187A252.08788 19.976851 0 0 0 118.9387 168.83669 252.08788 29.07079 0 0 0 365.50758 192.01518 252.08788 29.07079 0 0 0 612.11787 168.92454 252.08788 19.976851 0 0 0 365.50758 152.98187"/><g transform="matrix(.49077-.87129.87129.49077 0 0)"><path d="m-621.6 392.11h178.95v84.08h-178.95z"/><rect width="52.37" height="592.15" x="-547.07" y="352.1" rx="26.18" fill="#fcdd09"/></g><path d="m526.96 894.65c-6.594 11.706-3.263 26.21 7.306 33.942 12.09 5.03 26.22.362 32.814-11.344 6.593-11.706 3.263-26.21-7.306-33.942-12.09-5.03-26.22-.362-32.814 11.344z" fill="#fcdd09"/><path transform="matrix(.49077-.87129.87129.49077 0 0)" d="m-604.28 374.07h178.95v84.08h-178.95z"/></g></g><g fill-rule="evenodd"><path d="m29.365 710.09l7.214 23.942 73.26 41.26 87.82-155.92-7.214-23.942z"/><path d="m553.81 595.92l-58.976 44.42c0 0 1.493 16.303-1.598 23.533-6.293 14.72-19.826 25.54-32.39 35.461-51.18 40.42-117.46 57.791-171.12 94.85-45.705 31.565-95.56 62.01-127.16 107.69-2.524 3.648-4.467 12.537-4.467 12.537 0 0 22.17 10.191 34.04 12.351 14.501 2.638 44.21.525 44.21.525 0 0 44.15-59.765 71.979-83.921 61.56-53.43 139.44-84.69 206.18-131.5 19.06-13.369 41.528-23.859 55.37-42.578 6.448-8.717 10.338-19.671 11.413-30.46.947-9.505.685-20.307-4.56-28.29-4.978-7.576-22.926-14.629-22.926-14.629z" fill="#fcdd09" stroke-linejoin="round"/></g><g stroke-linejoin="round"><ellipse cx="889.96" cy="-299.11" rx="17.336" ry="40.12" transform="matrix(-.11139.99378-.99318-.11658 0 0)" fill="#fcdd09" stroke-linecap="round"/><path d="m524.94 608.59l65.22-54.43c0 0 44.95 42.14 62.728 67.06 20.1 28.17 43.493 57.5 48.621 91.72 4.198 28.01-16.04 83.44-16.04 83.44 0 0-9.839-63.04-26.958-88.8-13.772-20.729-34.77-37.438-57.45-47.679-7.989-3.607-18.382.299-25.98-4.072-12.259-7.05-16.1-23.627-26.745-32.939-6.879-6.02-23.394-14.299-23.394-14.299z" fill-rule="evenodd"/></g></g></g></g></svg>