<?xml version="1.0" encoding="UTF-8" standalone="no"?><svg xmlns="http://www.w3.org/2000/svg" width="979.3" height="1067.61" viewBox="0 0 979.29685 1067.6061"><g transform="translate(134.65 21.406)"><path d="m664.83-11.391l-70.798.478h-235.05l-7.958.043h-235.05-239.53c0 0 4.995 48.18 6.784 72.32 3.067 41.38 4.256 82.87 6.784 124.29 3.405 55.766 7.902 111.49 11.307 167.25 2.529 41.41 3.91 82.9 6.784 124.29 4.346 62.59 5.02 125.75 15.786 187.56 6.02 34.562 14.418 68.979 27.14 101.67 15.355 39.473 33.473 78.71 58.839 112.63 18.288 24.456 41.648 45.04 65.884 63.62 27.747 21.272 57.962 39.816 89.93 53.968 33.818 14.97 69.917 25.08 106.24 32.09 27.334 5.278 55.35 7.255 83.19 7.349 27.662.094 55.55-1.52 82.71-6.741 36.46-7.01 72.54-17.626 106.46-32.746 31.934-14.235 62.23-32.696 89.98-53.968 24.24-18.58 47.595-39.17 65.884-63.62 25.365-33.919 43.484-73.16 58.839-112.63 12.718-32.695 21.12-67.16 27.14-101.72 10.762-61.814 11.44-124.97 15.786-187.56 2.874-41.39 4.256-82.87 6.784-124.29 3.405-55.766 7.902-111.44 11.307-167.21 2.529-41.41 3.717-82.909 6.784-124.29 1.79-24.14 6.784-72.32 6.784-72.32l-168.73-.478" fill="#078930"/><g stroke="#000"><path d="m664.83-11.377l-70.798.478h-235.05l-7.958.043h-235.05-239.53c0 0 4.995 48.18 6.784 72.32 3.067 41.38 4.256 82.87 6.784 124.29 3.405 55.766 7.902 111.49 11.307 167.25 2.528 41.41 3.91 82.9 6.784 124.29 4.346 62.59 5.02 125.75 15.786 187.56 6.02 34.562 14.418 68.979 27.14 101.67 15.355 39.474 33.473 78.71 58.839 112.63 18.288 24.456 41.648 45.04 65.884 63.62 27.747 21.272 57.962 39.816 89.93 53.968 33.818 14.97 69.917 25.08 106.24 32.09 27.334 5.278 55.35 7.255 83.19 7.349 27.662.094 55.55-1.52 82.71-6.741 36.46-7.01 72.54-17.626 106.46-32.746 31.934-14.235 62.23-32.696 89.98-53.968 24.24-18.58 47.595-39.17 65.884-63.62 25.365-33.919 43.484-73.16 58.839-112.63 12.718-32.695 21.12-67.16 27.14-101.72 10.762-61.814 11.44-124.97 15.786-187.56 2.874-41.39 4.256-82.87 6.784-124.29 3.405-55.766 7.902-111.44 11.307-167.21 2.529-41.41 3.717-82.909 6.784-124.29 1.79-24.14 6.784-72.32 6.784-72.32l-168.73-.478z" fill="none" stroke-width="20"/><g transform="translate(1006.66)"><path d="m-277.27 34.1l-21.498.142h-71.37l-2.417.013h-71.37-72.73c0 0 1.517 14.341 2.06 21.529.931 12.318 1.292 24.67 2.06 36.999 1.034 16.601 2.399 33.19 3.433 49.789.768 12.329 1.187 24.677 2.06 36.999 1.32 18.633 1.526 37.434 4.793 55.835 1.827 10.289 4.378 20.534 8.24 30.27 4.663 11.751 10.164 23.432 17.867 33.529 5.553 7.28 12.647 13.409 20.01 18.94 8.425 6.332 17.6 11.853 27.308 16.07 10.269 4.456 21.23 7.466 32.26 9.554 8.3 1.571 16.808 2.16 25.26 2.188 8.4.028 16.867-.452 25.12-2.01 11.07-2.086 22.03-5.247 32.33-9.748 9.697-4.238 18.896-9.733 27.322-16.07 7.359-5.531 14.453-11.659 20.01-18.94 7.702-10.1 13.204-21.779 17.867-33.529 3.862-9.733 6.413-19.991 8.24-30.28 3.268-18.401 3.474-37.2 4.793-55.835.873-12.322 1.292-24.67 2.06-36.999 1.034-16.601 2.399-33.18 3.433-49.776.768-12.329 1.129-24.681 2.06-36.999.543-7.187 2.06-21.529 2.06-21.529l-51.24-.142z" fill="#fcdd09" stroke-width="5"/><g fill="#da121a"><g stroke-linejoin="round" stroke-linecap="round"><path d="m-516.66 34.26c0 0 1.517 14.342 2.061 21.529.931 12.318 1.293 24.669 2.061 36.998.138 2.218.293 4.435.441 6.652l214.78 226.04c3.707-2.292 7.309-4.744 10.773-7.348 7.359-5.531 14.452-11.659 20.01-18.939 7.702-10.1 13.205-21.779 17.867-33.529 2.667-6.722 4.699-13.696 6.309-20.756l-200.15-210.65h-1.41-72.73z" stroke-width="7"/><path d="m-516.66 34.26c0 0 1.517 14.342 2.061 21.529.562 7.436.918 14.884 1.279 22.332l227.51 239.44c7.092-5.384 13.9-11.336 19.266-18.371 7.702-10.1 13.205-21.779 17.867-33.529.696-1.753 1.335-3.528 1.949-5.313l-214.82-226.09h-55.11z" stroke-width="3"/></g><path d="m-837.9 34.1l-21.498.142h-71.37l-2.417.013h-71.37-72.73c0 0 1.517 14.341 2.06 21.529.931 12.318 1.292 24.67 2.06 36.999 1.034 16.601 2.399 33.19 3.433 49.789.768 12.329 1.187 24.677 2.06 36.999 1.32 18.633 1.526 37.434 4.793 55.835 1.827 10.289 4.378 20.534 8.24 30.27 4.663 11.751 10.164 23.432 17.867 33.529 5.553 7.28 12.647 13.409 20.01 18.94 8.425 6.332 17.6 11.853 27.308 16.07 10.269 4.456 21.23 7.466 32.26 9.554 8.3 1.571 16.808 2.16 25.26 2.188 8.4.028 16.867-.452 25.12-2.01 11.07-2.086 22.03-5.247 32.33-9.748 9.697-4.238 18.896-9.733 27.322-16.07 7.359-5.531 14.453-11.659 20.01-18.94 7.702-10.1 13.204-21.779 17.867-33.529 3.862-9.733 6.413-19.991 8.24-30.28 3.268-18.401 3.474-37.2 4.793-55.835.873-12.322 1.292-24.67 2.06-36.999 1.034-16.601 2.399-33.18 3.433-49.776.768-12.329 1.129-24.681 2.06-36.999.543-7.187 2.06-21.529 2.06-21.529l-51.24-.142z" stroke-width="5"/></g><g stroke-width="5"><path d="m-1017.52 85.6l-41.14 168.26c1.157 3.999 2.479 7.948 4.01 11.814 4.663 11.751 10.163 23.432 17.865 33.529 5.553 7.28 12.647 13.41 20.01 18.941 8.425 6.332 17.601 11.852 27.309 16.06 10.269 4.456 21.23 7.467 32.26 9.555 8.3 1.571 16.808 2.159 25.26 2.188 8.4.028 16.868-.454 25.12-2.01 11.07-2.086 22.03-5.247 32.33-9.748 9.697-4.238 18.895-9.732 27.32-16.06 7.359-5.531 14.452-11.659 20.01-18.939 7.702-10.1 13.205-21.779 17.867-33.529 1.533-3.864 2.853-7.813 4.01-11.813l-41.14-168.25-42.77 174.9-42.768-174.9-42.77 174.9-42.77-174.9" fill="#fff" fill-rule="evenodd" stroke-linejoin="round"/><g fill="none"><path d="m-277.27 34.1l-21.498.142h-71.37l-2.417.013h-71.37-72.73c0 0 1.517 14.341 2.06 21.529.931 12.318 1.292 24.67 2.06 36.999 1.034 16.601 2.399 33.19 3.433 49.789.768 12.329 1.187 24.677 2.06 36.999 1.32 18.633 1.526 37.434 4.793 55.835 1.827 10.289 4.378 20.534 8.24 30.27 4.663 11.751 10.164 23.432 17.867 33.529 5.553 7.28 12.647 13.409 20.01 18.94 8.425 6.332 17.6 11.853 27.308 16.07 10.269 4.456 21.23 7.466 32.26 9.554 8.3 1.571 16.808 2.16 25.26 2.188 8.4.028 16.867-.452 25.12-2.01 11.07-2.086 22.03-5.247 32.33-9.748 9.697-4.238 18.896-9.733 27.322-16.07 7.359-5.531 14.453-11.659 20.01-18.94 7.702-10.1 13.204-21.779 17.867-33.529 3.862-9.733 6.413-19.991 8.24-30.28 3.268-18.401 3.474-37.2 4.793-55.835.873-12.322 1.292-24.67 2.06-36.999 1.034-16.601 2.399-33.18 3.433-49.776.768-12.329 1.129-24.681 2.06-36.999.543-7.187 2.06-21.529 2.06-21.529l-51.24-.142z"/><path d="m-837.9 34.1l-21.498.142h-71.37l-2.417.013h-71.37-72.73c0 0 1.517 14.341 2.06 21.529.931 12.318 1.292 24.67 2.06 36.999 1.034 16.601 2.399 33.19 3.433 49.789.768 12.329 1.187 24.677 2.06 36.999 1.32 18.633 1.526 37.434 4.793 55.835 1.827 10.289 4.378 20.534 8.24 30.27 4.663 11.751 10.164 23.432 17.867 33.529 5.553 7.28 12.647 13.409 20.01 18.94 8.425 6.332 17.6 11.853 27.308 16.07 10.269 4.456 21.23 7.466 32.26 9.554 8.3 1.571 16.808 2.16 25.26 2.188 8.4.028 16.867-.452 25.12-2.01 11.07-2.086 22.03-5.247 32.33-9.748 9.697-4.238 18.896-9.733 27.322-16.07 7.359-5.531 14.453-11.659 20.01-18.94 7.702-10.1 13.204-21.779 17.867-33.529 3.862-9.733 6.413-19.991 8.24-30.28 3.268-18.401 3.474-37.2 4.793-55.835.873-12.322 1.292-24.67 2.06-36.999 1.034-16.601 2.399-33.18 3.433-49.776.768-12.329 1.129-24.681 2.06-36.999.543-7.187 2.06-21.529 2.06-21.529l-51.24-.142z"/></g></g></g><path d="m476.7 618.8l-27.81.185h-92.33l-3.126.017h-92.33-94.09c0 0 1.962 18.601 2.665 27.924 1.205 15.977 1.672 31.998 2.665 47.989 1.337 21.532 3.104 43.05 4.441 64.58.993 15.991 1.536 32.01 2.665 47.989 1.707 24.17 1.974 48.553 6.201 72.42 2.364 13.345 5.663 26.634 10.659 39.26 6.03 15.241 13.149 30.392 23.11 43.489 7.184 9.443 16.36 17.391 25.879 24.565 10.899 8.213 22.768 15.373 35.33 20.838 13.284 5.78 27.464 9.684 41.732 12.392 10.737 2.038 21.743 2.801 32.678 2.838 10.866.036 21.82-.587 32.49-2.603 14.322-2.705 28.493-6.806 41.817-12.644 12.544-5.496 24.444-12.624 35.34-20.838 9.52-7.174 18.696-15.12 25.879-24.565 9.964-13.1 17.08-28.25 23.11-43.489 4.996-12.624 8.296-25.93 10.659-39.27 4.227-23.867 4.494-48.25 6.201-72.42 1.129-15.982 1.672-31.998 2.665-47.989 1.337-21.532 3.104-43.03 4.441-64.56.993-15.991 1.46-32.01 2.665-47.989.703-9.322 2.665-27.924 2.665-27.924l-66.28-.185z" fill="#fff" stroke-width="5"/></g><path d="m360.8 632.79c-3.773 0-7.548.338-11.229 1.016-3.09.569-8.807 3.355-8.807 3.355 0 0 3.739 2.686 5.242 4.402 2.403 2.742 5.871 9.229 5.871 9.229v13.41h-.264-17.195c0 0-6.486-3.469-9.229-5.871-1.716-1.504-4.402-5.242-4.402-5.242 0 0-2.787 5.717-3.355 8.807-1.355 7.361-1.355 15.09 0 22.455.569 3.09 3.355 8.807 3.355 8.807 0 0 2.686-3.739 4.402-5.242 2.742-2.403 9.229-5.871 9.229-5.871h17.195.264v32.705c-11.544 2.037-22.836 5.926-33.73 10.219-5.06 1.992-12.275 5.912-18.08 9.236v-54.02l-96.04 82.98 42.06-11.521v172.01c0 0-5.514 12.03-8.764 17.777-3.188 5.641-10.5 16.355-10.5 16.355h43.21 6.09 43.21c0 0-7.312-10.715-10.5-16.355-3.25-5.751-8.762-17.777-8.762-17.777v-168.01c7.566-4.539 22.05-12.859 31.371-15.795 9.631-3.03 19.987-5.04 30.03-3.986 12.901 1.354 26.53 4.934 36.672 13.02 7.845 6.257 16.13 25.416 16.13 25.416v144.21 41.82c0 0 36.03-13.222 52.22-23.27 14.517-9.01 39.48-32.684 39.48-32.684 0 0-15.762 8.817-24.316 11.504-5.04 1.582-15.621 2.629-15.621 2.629v-144.21c0 0-10.382-25.767-19.801-35.514-8.699-9-20.305-15.37-32.16-19.4-14.11-4.799-29.362-6.615-44.36-6.273v-31.07h2.01 17.195c0 0 6.486 3.469 9.229 5.871 1.716 1.504 4.402 5.242 4.402 5.242 0 0 2.787-5.717 3.355-8.807 1.355-7.361 1.355-15.09 0-22.455-.569-3.09-3.355-8.807-3.355-8.807 0 0-2.686 3.739-4.402 5.242-2.742 2.403-9.229 5.871-9.229 5.871h-17.195-2.01v-13.41c0 0 3.469-6.486 5.871-9.229 1.504-1.716 5.242-4.402 5.242-4.402 0 0-5.717-2.787-8.807-3.355-3.681-.677-7.453-1.016-11.227-1.016"/><g fill-rule="evenodd"><g stroke="#fff" stroke-linecap="round" stroke-width="5"><path d="m260.72 730.77v206.55"/><path d="m428.96 756.06v187.88"/></g><path d="m354.02 31.662c-13.1.152-26.04 3.807-38.555 7.709-5.242 1.635-10.259 3.982-15.12 6.525-10.624 5.553-21.525 11.08-30.545 18.98-10.885 9.53-20.19 21.07-27.582 33.512-6.207 10.448-10.92 21.965-13.641 33.809-2.928 12.747-2.613 26.07-2.67 39.15-.044 10-.296 20.17 1.779 29.953 2.454 11.567 6.648 22.915 12.457 33.21 3.527 6.253 8.511 11.595 13.344 16.904 8.096 8.893 16.452 17.729 26.1 24.912 8.487 6.32 17.944 11.348 27.582 15.717 2.477 1.123 6.509.23 7.711 2.67.415.841-.462 1.834-.891 2.668-.615 1.196-1.241 2.538-2.373 3.264-2.971 1.903-6.974 1.149-10.379 2.074-15.446 4.199-30.885 8.918-45.37 15.719-12.447 5.841-24.634 12.666-35.29 21.354-2.819 2.298-5.765 4.764-7.414 8.01-5.802 11.404-3.357 25.529-7.414 37.664-3.309 9.896-9.755 18.491-13.643 28.17-5.149 12.823-10.322 25.841-12.752 39.443-1.705 9.545-.059 19.432-1.186 29.06-.421 3.601.609 8.242-2.076 10.678-6.178 5.605-16.62 1.464-24.912 2.371-18.417 2.02-36.668 5.683-55.16 6.822-4.341.267-8.907 1.327-13.05 0-1.62-.519-3.082-1.645-4.152-2.967-3.735-4.609-4.473-11-7.117-16.311-1.618-3.249-3.702-6.25-5.338-9.49-.977-1.935-2.504-3.77-2.67-5.932-.737-9.613 4.82-18.679 7.711-27.877 1.069-3.4 1.284-7.338 3.559-10.08 2.261-2.728 6.42-3.132 9.193-5.338 6.787-5.398 13.697-11.337 17.795-18.98 2.447-4.565 2.326-10.09 3.559-15.12 1.238-5.05 4.216-9.935 3.855-15.12-.163-2.344-.841-5.05-2.67-6.525-1.328-1.071-3.338-1-5.04-.889-2.277.152-4.258 1.82-6.525 2.076-1.183.134-2.677.503-3.559-.297-1.637-1.486.117-4.74-1.186-6.525-1.981-2.715-5.584-4.187-8.898-4.744-1.875-.315-3.898.114-5.635.889-1.861.83-2.851 3.1-4.744 3.855-1.197.478-2.617.653-3.855.297-2.717-.781-4-4.834-6.82-5.04-1.676-.123-3.277 1.169-4.449 2.373-2.468 2.534-3.487 6.184-4.744 9.49-2.838 7.464-5.266 15.204-6.229 23.13-.56 4.613-1.312 9.58.297 13.939 1.459 3.954 6.347 5.913 8.01 9.787.942 2.198 1.083 4.734.889 7.117-.511 6.266-3.557 12.06-5.338 18.09-1.284 4.35-2.192 8.829-3.855 13.05-.324.823-.353 2.074-1.186 2.373-1.833.658-3.699-1.325-5.34-2.373-2.657-1.697-5.212-3.717-7.117-6.229-3.047-4.02-4.993-8.838-6.523-13.641-.883-2.772-1.496-5.692-1.482-8.602.001-2.21.441-4.442 1.186-6.523 1.371-3.833 4.193-6.995 5.932-10.676 1.497-3.17 3.627-6.288 3.855-9.787.478-7.321-3.608-14.224-5.338-21.354-1.221-5.03-2.305-10.1-3.561-15.12-.843-3.373.561-8.792-2.668-10.08-2.802-1.12-5.39 2.815-7.711 4.744-2.153 1.79-4.01 3.952-5.635 6.229-1.185 1.655-.987 4.858-2.965 5.338-.693.168-1.32-.641-1.779-1.186-1.883-2.233-1.356-6.092-3.561-8.01-2.716-2.36-6.94-4.03-10.379-2.967-1.476.455-2.243 2.196-2.965 3.561-1.682 3.181-.454 7.803-2.967 10.379-1.157 1.186-3.094 1.636-4.744 1.482-3.567-.332-5.965-4.407-9.49-5.04-1.472-.265-3.358-.429-4.449.594-2.207 2.068-2.038 5.883-1.779 8.896 1.031 12.04 7.438 23.11 13.05 33.809 2.611 4.978 4.826 10.801 9.49 13.938 3.523 2.37 8.558.984 12.455 2.67 1.435.621 2.925 1.412 3.855 2.668 4.446 6.01 5.204 14.06 6.822 21.354.842 3.795 3.936 8.552 1.482 11.566-.814 1-2.714-.301-3.855.297-1.805.946-2.936 2.925-3.856 4.744-1.244 2.461-1.026 5.458-2.076 8.01-.523 1.27-1.063 2.631-2.076 3.559-1.37 1.254-4.01.825-5.04 2.373-1.367 2.061-.247 4.941-.297 7.414-.051 2.57 1.266 5.474 0 7.711-1.136 2.01-4.445 1.796-5.932 3.559-1.231 1.459-2.218 3.434-2.076 5.338.236 3.179 3.683 5.297 4.746 8.303 1.236 3.493 1.387 7.288 1.779 10.973.408 3.839-1.072 8.08.594 11.566 1.087 2.274 3.634 3.51 5.635 5.04 4.309 3.302 9.891 4.97 13.641 8.896 1.347 1.41 2.63 3.121 2.967 5.04 1.025 5.844-1.769 11.756-3.264 17.498-2.496 9.59-6.605 18.693-9.488 28.17-3.398 11.174-6.428 22.462-9.195 33.809-.887 3.636.759 8.921-2.371 10.973-1.265.829-3.134-.144-4.449-.891-4.869-2.764-6.862-9-11.27-12.455-2.298-1.8-4.845-4.707-7.711-4.152-1.516.293-2.489 2.09-2.965 3.559-1.344 4.147.166 8.749.889 13.05 1.189 7.07 4.067 13.763 5.635 20.76 2.349 10.483 4.197 21.09 5.635 31.732 1.143 8.461.239 17.237 2.373 25.504.431 1.672.568 3.906 2.076 4.746 1.832 1.021 4.419.17 6.229-.891 9.552-5.599 13.309-17.699 20.17-26.393 6.788-8.607 14.614-16.429 20.76-25.506 2.853-4.214 7.433-8.257 7.414-13.346-.001-2.612-1.472-5.753-3.855-6.82-2.123-.951-4.594.813-6.822 1.482-3.147.945-6.241 2.115-9.193 3.559-1.036.506-2.02 2.44-2.965 1.779-2.145-1.5.913-5.156 1.482-7.711 4.195-18.815 9.268-37.425 14.236-56.05 3.122-11.703 5.561-23.642 9.785-34.994.648-1.741.65-4.349 2.373-5.04 1.278-.513 2.846.546 3.855 1.482 1.524 1.413 1.921 3.696 2.67 5.635 4.539 11.757 7.05 24.21 10.973 36.18 5.093 15.539 11.283 30.704 16.311 46.26 1.077 3.334 1.871 6.756 2.965 10.08.722 2.199 4 4.882 2.373 6.523-2.072 2.084-5.423-2.378-8.303-2.965-3.299-.672-6.735-.937-10.08-.594-2.648.271-6.128-.064-7.711 2.076-1.705 2.307-.839 5.966.297 8.6 4.843 11.233 17.214 17.385 25.801 26.1 5.545 5.626 11.34 11.02 16.607 16.904 3.655 4.085 6.18 9.232 10.381 12.752 1.56 1.307 3.322 3.249 5.338 2.967 2.631-.368 4.505-3.231 5.635-5.635 7.222-15.366 3.382-33.79 4.744-50.713.707-8.79 3.155-17.684 1.779-26.395-.249-1.578-.369-3.7-1.779-4.449-2.055-1.091-4.746.43-6.82 1.484-3.183 1.618-4.987 5.212-8.01 7.117-1.724 1.087-3.642 2.799-5.635 2.373-1.983-.424-3.094-2.719-4.152-4.449-5.156-8.429-6.854-18.538-10.08-27.877-6.496-18.791-14.08-37.3-18.684-56.645-.463-1.945-1.649-4.082-.891-5.932.75-1.829 3.091-2.477 4.746-3.559 2.186-1.429 4.252-3.381 6.82-3.855 1.966-.363 3.96.563 5.932.891 10.309 1.714 20.501 4.118 30.842 5.635 12.4 1.819 24.884 3.043 37.37 4.152 4.441.395 8.889.775 13.346.889 6.424.164 12.927.685 19.277-.297 6.12-.946 12.374-2.341 17.793-5.338 8.276-4.577 15.237-11.47 21.354-18.684 6.919-8.16 12.07-17.74 16.904-27.28 2.987-5.895 5.205-12.158 7.414-18.387.899-2.534 1.153-5.315 2.373-7.711.673-1.321 2.668-3.559 2.668-3.559 0 0 .1 4.553.297 6.82 1.651 18.971 6.04 37.652 7.414 56.645 1.492 20.609 1.578 41.33.891 61.982-.122 3.668-.891 10.973-.891 10.973h161.04c0 0 1.989 9.687 3.855 14.234.992 2.416 1.935 5.05 3.855 6.82 3.123 2.877 7.492 4.145 11.566 5.34 3.448 1.01 7.083 1.536 10.676 1.482 6.516-.097 12.762-3.415 19.277-3.264 2.326.054 4.496 1.374 6.82 1.484 2.486.118 5.316.448 7.414-.891 2.058-1.313 3.804-3.788 3.855-6.229.038-1.814-1.866-3.117-2.67-4.744-1-2.025-2.972-3.99-2.668-6.229.17-1.254 1.365-2.199 2.373-2.965 7.02-5.332 16.415-6.479 24.318-10.381 10.52-5.194 20.854-10.844 30.652-17.297 8.265-5.444 15.368-12.528 23.619-17.994 4.651-3.081 9.312-6.332 14.531-8.303 12.841-4.849 26.899-5.483 40.33-8.305 12.466-2.619 24.899-5.398 37.37-8.01 4.839-1.012 9.613-2.47 14.531-2.967 1.475-.149 3.02-.406 4.449 0 2.348.668 4.218 2.471 6.229 3.855 3.892 2.68 6.772 7.151 11.27 8.6 3.295 1.061 6.971.308 10.379-.295 4.925-.872 9.519-3.083 14.236-4.746 7.759-2.735 17.15-2.949 23.13-8.6 1.255-1.186 2.314-3.036 2.076-4.746-.3-2.156-2.297-3.903-4.152-5.04-1.554-.953-4.253.279-5.338-1.186-.767-1.036-.095-2.627.297-3.855.7-2.197 2.897-3.723 3.559-5.932.681-2.275.989-4.846.297-7.117-.536-1.759-1.638-3.587-3.262-4.449-2.272-1.207-6.212 1.793-7.711-.297-1.622-2.262 1.972-5.251 2.371-8.01.568-3.913 2.717-8.991 0-11.863-1.225-1.295-3.565-.479-5.338-.297-9.159.943-17.791 4.75-26.689 7.117-4.843 1.288-10.289 1.19-14.533 3.855-.772.485-1.244 1.339-1.779 2.076-2.789 3.841-4.861 8.158-7.414 12.16-1.15 1.803-2.02 3.851-3.559 5.338-1.755 1.697-3.955 2.959-6.227 3.855-10.784 4.256-22.868 3.968-34.11 6.82-5.516 1.4-10.684 4.191-16.311 5.04-.782.118-1.855.597-2.373 0-.458-.528.001-1.439.297-2.076.69-1.536 2.127-2.612 3.262-3.855 6.175-6.762 13.04-12.868 19.277-19.572 2.958-3.179 6.762-5.852 8.6-9.787 1.1-2.356 1.53-5.133 1.186-7.711-1.16-8.685-6.37-16.39-10.676-24.02-5.094-9.03-12.01-16.902-17.793-25.504-8.217-12.218-15.15-25.319-24.02-37.07-13.213-17.501-28.319-33.511-43.3-49.53-5.825-6.229-12.247-11.88-18.09-18.09-6.336-6.731-10.977-15.233-18.387-20.76-6.381-4.76-13.977-7.958-21.648-10.08-3.64-1.01-8.07.816-11.27-1.186-.791-.494-1.935-1.557-1.482-2.373.863-1.556 3.558 0 5.338 0 1.878 0 3.932.792 5.635 0 6.679-3.107 10.08-10.819 14.234-16.904 4.437-6.505 11.967-12.917 11.27-20.76-.168-1.891-1.877-3.564-3.559-4.447-1.228-.645-3.108.616-4.152-.297-1.825-1.595-.775-4.799-1.482-7.117-.841-2.757-1.01-6.214-3.262-8.01-2.429-1.932-6.153-.858-9.193-1.482-1.996-.41-4.392-.147-5.932-1.482-2.177-1.888-.699-6.689-3.262-8.01-1.898-.976-4.447.307-6.229 1.482-5.957 3.931-8.244 11.668-12.752 17.201-3.936 4.831-9.136 8.665-12.457 13.938-1.37 2.175-2.566 4.58-2.965 7.119-.554 3.528.579 7.118.889 10.676.095 1.088 1.199 2.646.297 3.262-1.826 1.246-3.816-2.324-5.932-2.965-2.288-.693-5.091.378-7.117-.891-1.999-1.251-4.03-3.58-3.855-5.932.314-4.332 5.618-6.629 8.602-9.785 5.906-6.248 12.9-11.472 18.387-18.09 6.911-8.339 13.408-17.221 18.09-26.986 7.434-15.506 12.207-32.34 15.422-49.23 1.019-5.355 1.268-10.86 1.186-16.311-.145-9.639-.422-19.469-2.965-28.768-4.305-15.744-11.189-31.05-20.463-44.484-10.01-14.496-22.19-28.24-37.07-37.664-14.949-9.469-32.996-13.03-50.12-17.498-10.49-2.735-21.19-5.759-32.03-5.633m159.02 414.09c0 0 2.713 3.253 4.135 4.822 3.344 3.691 6.663 7.425 10.332 10.793 10.788 9.902 22.317 19.02 34.21 27.555.811.582 2.045.733 2.525 1.607.626 1.141.447 2.682 0 3.904-1.1 3.01-4.124 4.905-6.199 7.348-6.327 7.447-13.01 14.6-19.06 22.273-7.668 9.727-14 20.471-21.814 30.08-2.871 3.532-5.558 7.355-9.186 10.1-1.501 1.137-3.269 1.923-5.05 2.525-1.55.524-3.224.566-4.822.918-2.158.475-4.268 1.15-6.43 1.607-1.748.37-5.281.918-5.281.918 0 0-.422-1.978-.459-2.984-.07-1.918.227-3.835.459-5.74 1.144-9.393 2.662-18.752 4.594-28.02 4.127-19.791 10.02-39.17 14.926-58.783 2.409-9.635 7.117-28.934 7.117-28.934z"/><path d="m345.5 114.59c-.848-.022-1.72.171-2.514.451-2.244.793-3.922 2.708-5.994 3.879-2.563 1.449-5.27 2.625-7.934 3.879-3.736 1.759-7.348 3.863-11.283 5.113-4.449 1.414-10.08-.238-13.752 2.645-1.22.958-1.92 2.681-1.939 4.232-.022 1.79 1.784 3.176 2.115 4.936.338 1.791-.115 3.645-.176 5.467-.057 1.704-.106 3.408-.178 5.111-.05 1.176-.781 2.518-.176 3.527.568.947 1.894 1.441 2.998 1.41 1.603-.045 2.899-1.399 4.23-2.293 1.387-.931 2.278-2.693 3.879-3.172 2.152-.643 4.486 1.086 6.699.705 1.477-.254 2.631-1.48 4.057-1.939 2.216-.714 4.547-1.288 6.875-1.234 1.326.03 2.636.42 3.879.881 1.06.393 2.125.87 2.998 1.588.936.769 1.634 1.802 2.291 2.82.641.994.725 2.365 1.588 3.174.884.828 2.176 1.109 3.35 1.41.912.234 1.854.288 2.799.334.249.754.467 1.486.551 2.135.259 2.01 1.03 3.965 1.057 5.994.083 6.358-1.578 12.63-2.82 18.865-.521 2.614-1.111 5.224-1.939 7.758-.532 1.629-1.245 3.193-1.939 4.76-.66 1.49-2.181 2.78-2.115 4.408.066 1.632 1.15 3.268 2.469 4.23 1.313.959 3.164.749 4.76 1.059 1.404.273 2.897.193 4.232.705 1.431.548 2.385 2.821 3.877 2.469 1-.236 1.313-1.654 1.588-2.645.251-.906-.665-2.157 0-2.822.582-.582 1.649-.066 2.469 0 2.196.177 4.515 1.964 6.523 1.059 1.204-.543 2.183-2.031 2.115-3.35-.054-1.045-1.044-1.927-1.939-2.469-1.381-.835-3.508.137-4.76-.881-1.084-.881-1.523-2.483-1.588-3.879-.022-.477.121-.933.301-1.383 1.257.33 2.64-.237 3.932-.027 1.834.298 3.55 1.107 5.289 1.762 1.134.427 2.406.65 3.35 1.41 1.511 1.217 2.65 2.952 3.35 4.762.512 1.326.991 2.886.529 4.23-.539 1.572-2.135 2.619-3.527 3.527-.951.62-2.038 1.285-3.172 1.232-.919-.043-1.594-.948-2.469-1.232-1.02-.332-2.102-.547-3.174-.529-.899.014-1.75.441-2.645.529-1.17.116-2.39-.298-3.527 0-1.044.273-2.276.655-2.82 1.586-.326.558-.224 1.333 0 1.939.188.508.855.732 1.059 1.234.127.313.157.647.166.986-.054-.039-.106-.08-.166-.105-1.844-.789-3.994.676-5.994.529-2.772-.204-5.63-.686-8.111-1.939-2.196-1.11-3.91-3.01-5.641-4.76-1.233-1.246-2.758-2.405-3.352-4.055-.557-1.548-.56-3.39 0-4.938.625-1.726 2.769-2.558 3.527-4.23.934-2.059.457-4.521 1.057-6.701.504-1.831 1.587-3.466 2.117-5.289.534-1.837 1.266-3.739 1.057-5.641-.049-.445-.162-.978-.529-1.234-.917-.64-2.305.22-3.35-.178-.703-.268-1.331-.793-1.762-1.41-.85-1.22-.287-3.256-1.41-4.23-.372-.323-.955-.539-1.465-.492-.17.016-.331.059-.475.139-1.108.613-1.142 2.291-1.412 3.527-.503 2.299.246 4.774-.352 7.05-.367 1.398-.71 3.119-1.939 3.879-1.5.927-3.538-.208-5.289 0-1.741.207-3.376 1-5.113 1.234-1.865.251-4.604 1.745-5.643.176-.465-.702.494-1.667 1.059-2.291.778-.859 2.55-.695 2.998-1.764.469-1.117-.125-2.58-.883-3.525-.576-.718-1.552-1.157-2.469-1.234-1.408-.119-3.113.181-4.055 1.234-1.713 1.916-1.156 5.02-1.41 7.58-.407 4.094-.516 8.242-.176 12.342.326 3.929.794 7.922 2.115 11.637 1.102 3.098 2.933 5.905 4.76 8.639 1.673 2.503 3.161 5.348 5.643 7.05.811.557 1.782.831 2.764 1.029-.012.194-.013.387.008.58.108.987 1.033 1.822.979 2.813-.052.946-.652 1.81-1.223 2.566-.556.738-1.56 1.069-2.078 1.834-.34.502-.674 1.108-.611 1.711.241 2.329 2.543 3.939 3.668 5.992 1.655 3.02 2.805 6.305 4.523 9.291 1.714 2.978 3.462 5.992 5.746 8.559 2.46 2.764 5.352 5.168 8.436 7.213 2.43 1.612 4.982 3.261 7.824 3.912 2.94.673 6.03-.088 9.05-.121 4.687-.052 9.634 1.417 14.06-.123 3.072-1.069 5.135-3.994 7.703-5.99 3.463-2.691 7.523-4.754 10.393-8.07 5.03-5.811 8.265-13.02 11.369-20.05.901-2.039 1.522-4.198 2.078-6.357.652-2.531 1.136-5.109 1.467-7.701.393-3.079.681-6.19.611-9.293-.009-.395.044-.827.031-1.236.692-1.717 1.39-3.431 1.711-5.244.451-2.547.539-5.197.178-7.758-.275-1.951-1.752-3.672-1.764-5.643-.017-3.068.87-6.312 2.645-8.814.462-.652 1.252-1.01 1.939-1.412.95-.562 2.652-.362 2.998-1.41.543-1.648-1.881-2.951-2.469-4.584-.508-1.41-1.317-2.972-.883-4.406.458-1.511 2.963-1.821 3.352-3.352.407-1.604-.651-3.29-1.412-4.76-.655-1.263-2.08-2.044-2.645-3.35-.636-1.473-.474-3.172-.705-4.76-.239-1.645-.171-3.363-.705-4.938-.179-.526-.428-1.025-.713-1.506.474-.023.947-.053 1.418-.08 1-.059 2.488.514 2.998-.354.548-.931-.567-2.147-1.234-2.996-.988-1.257-2.625-1.831-3.879-2.822-1.275-1.01-2.807-1.818-3.703-3.174-.646-.977-1.386-2.226-1.057-3.35.516-1.762 3.619-1.794 4.23-3.525.399-1.13.094-2.634-.705-3.527-1.81-2.02-5.291-1.336-7.758-2.467-2.446-1.122-4.444-3.078-6.875-4.232-3.71-1.763-7.601-3.289-11.637-4.055-4.392-.833-8.943-.194-13.4-.529-5.837-.439-11.901-.082-17.453-1.939-1.749-.585-2.96-2.427-4.762-2.82-.274-.06-.553-.092-.836-.1m41.582 29.691c1.535 0 3.064.099 4.566.381 3.691.692 7.04 2.622 10.578 3.879 1.874.666 3.681 1.612 5.643 1.939.039.007.08.006.119.012-.052.407-.107.816-.119 1.223-.041 1.41.859 3.112 0 4.23-.556.723-1.738.806-2.645.705-1.385-.154-2.502-1.234-3.703-1.939-1.757-1.032-3.18-2.705-5.113-3.35-4.357-1.454-9.161-.734-13.752-.881-2.408-.077-4.888-.571-7.229 0-1.737.423-3.261 1.492-4.76 2.467-.631.41-1.298.821-1.764 1.412-.684.867-.735 2.122-1.41 2.996-.561.726-1.417 1.168-2.115 1.764-.199.17-.337.296-.592.518-.119-.282-.393-.511-.643-.693-.661-.483-1.488-.733-2.293-.883-.343-.064-.696-.045-1.051 0 1.397-1.731.891-4.472 2.109-6.336 1.343-2.055 3.252-3.874 5.465-4.938 4.293-2.063 9.354-1.953 14.11-2.291 1.524-.108 3.066-.206 4.602-.205m-57.29 10.05c-1.935.022-3.918.623-5.844.91-4.275.637-8.766.841-12.693 2.645-1.752.805-3.221 2.162-4.584 3.525-.682.682-1.188 1.52-1.764 2.293-.78 1.046-2.02 1.897-2.293 3.174-.237 1.116-.037 2.484.707 3.35.654.762 1.827 1.21 2.82 1.059 1.325-.202 2.246-1.502 3.174-2.469 1.05-1.094 1.519-2.686 2.645-3.703 1.758-1.588 4.01-2.548 6.17-3.525 1.812-.82 3.676-1.643 5.643-1.939 1.802-.271 3.704-.296 5.465.176 1.803.484 3.429 1.545 4.938 2.645 1.915 1.395 3.034 3.803 5.113 4.938.901.492 2.095 1.196 2.996.705.767-.418.833-1.596.883-2.469.103-1.808-.113-3.868-1.234-5.289-1.221-1.547-3.576-1.669-5.289-2.645-1.7-.968-3.037-2.708-4.938-3.174-.63-.155-1.269-.212-1.914-.205m49.682 3.01c1.948.029 3.9.179 5.83.365 2.145.207 4.322.499 6.348 1.234 1.83.664 3.667 1.517 5.113 2.82 1.223 1.102 1.893 2.694 2.82 4.055.716 1.051 2.314 1.918 2.115 3.174-.223 1.405-2.498 1.505-3.35 2.645-.947 1.268-1 3.02-1.764 4.408-.485.887-.815 2.114-1.762 2.469-1.188.445-3.133.251-3.703-.883-.603-1.2 1.099-2.45 1.586-3.701.451-1.161 1.471-2.305 1.234-3.527-.237-1.227-1.329-2.304-2.467-2.82-1.124-.51-2.572-.493-3.703 0-1.029.449-1.752 1.485-2.293 2.469-.556 1.012-.763 2.201-.881 3.35-.114 1.112.391 2.252.176 3.35-.212 1.084-.65 2.197-1.41 2.998-1.285 1.354-3.125 2.19-4.936 2.645-1.368.343-2.822 0-4.232 0-.94 0-2.117.624-2.82 0-1.462-1.296-.215-3.927-.705-5.818-.43-1.659-.336-4.158-1.939-4.762-.861-.324-1.723.696-2.469 1.234-.674.486-1.159 1.193-1.764 1.764-.515.485-1.01.997-1.586 1.41-.461.331-1.032.517-1.551.764-.013-.254-.018-.51-.037-.764-.171-2.298-.64-4.572-.705-6.875-.037-1.294-.39-2.716.178-3.879.475-.974 1.817-1.25 2.467-2.117.589-.786 1.294-1.679 1.525-2.625.99-.38 2.108-.804 2.883-1.076 1.981-.696 3.92-1.612 5.994-1.939 1.916-.302 3.859-.394 5.807-.365m-25.19 9.254c.388-.013.828.2 1.219.279.601.123 1.321.105 1.764.529 1.034.99 1.26 2.631 1.41 4.055.199 1.885.246 4-.705 5.641-.59 1.017-2.258 1.085-2.82 2.117-.79 1.448-.186 3.294-.354 4.936-.271 2.654-.456 5.334-1.057 7.934-.293 1.268-1.234 3.703-1.234 3.703 0 0-1.604-1.98-1.939-3.174-.414-1.471-.137-3.062 0-4.584.177-1.963.668-3.886 1.059-5.818.322-1.593.879-3.144 1.057-4.76.282-2.57-.502-5.221 0-7.758.21-1.06.305-2.445 1.234-2.996.114-.068.238-.099.367-.104m22.605.559c-.764-.002-1.534.13-2.27.324-1.073.284-2.756.304-3.03 1.379-.171.667.988 1.01 1.24 1.652.474 1.203-.53 2.972.412 3.857.737.693 2.159.651 3.03.139.531-.312.59-1.085.826-1.654.333-.805.105-1.99.826-2.479.648-.438 1.627.455 2.342.137.269-.12.499-.4.551-.689.102-.572-.147-1.235-.551-1.652-.647-.668-1.695-.843-2.617-.965-.251-.033-.505-.048-.76-.049m-53.41 3.465c-.602-.015-1.227.041-1.619.441-.587.598.043 1.777-.412 2.48-.36.556-1.535.45-1.654 1.102-.142.777.715 1.499 1.379 1.928.983.636 2.371 1.159 3.443.689.887-.388.994-1.662 1.516-2.479.356-.558 1.014-.998 1.102-1.654.077-.576-.14-1.242-.551-1.652-.103-.103-.276-.094-.414-.139-.733-.237-1.435-.642-2.203-.688-.187-.011-.385-.024-.586-.029m75.47 28.2c.878 0 1.879.534 2.311 1.234.892 1.45.089 3.569-.744 5.05-.568 1.013-1.973 1.304-2.676 2.229-1.677 2.207-1.743 5.373-3.418 7.582-1.445 1.906-3.147 5.04-5.5 4.607-1.396-.256-2.035-2.296-2.082-3.715-.038-1.152 1.209-2 1.486-3.123.286-1.155-.23-2.438.148-3.566.498-1.486 1.368-3 2.676-3.865 1.646-1.087 4.384.185 5.799-1.189 1.241-1.206-.322-4.211 1.189-5.05.239-.134.518-.193.811-.193m-41.76 18.07c.224.012.43.079.607.234.621.543.564 1.741.176 2.469-.223.418-.806.502-1.234.705-.739.351-1.473.862-2.291.881-.929.021-2.045-.171-2.645-.881-.498-.591-.627-1.57-.354-2.293.162-.429.622-.74 1.059-.881.785-.253 1.644.172 2.469.176.707.003 1.541-.447 2.213-.41m1.844 2.252c.098.44.176.882.174 1.332-.003.499.002 1.059-.209 1.504.196-.884.004-1.908.035-2.836m8.461 5.04c4.895.063 9.758.783 14.633 1.232 1.157.107 2.313.241 3.469.369-.004.185 0 .371.014.547.096 1.337 1.326 2.449 1.346 3.789.018 1.198-.197 2.638-1.102 3.424-1.811 1.573-4.848.37-7.09 1.223-1.659.631-2.836 2.26-4.523 2.813-2.02.661-4.242.286-6.357.488-1.429.137-2.846.409-4.279.49-1.465.083-3.276-.94-4.402 0-.7.584-.839 1.849-.488 2.689.361.866 1.426 1.313 2.322 1.59 1.791.554 3.809-.465 5.625 0 1.396.358 2.536 1.366 3.789 2.078 1.398.794 2.774 1.624 4.156 2.445.817.485 1.856.721 2.445 1.467.584.738 1.32 1.871.855 2.689-.702 1.238-2.735.899-4.156.979-1.025.057-2.149.112-3.057-.367-1.532-.809-1.97-2.966-3.422-3.912-1.145-.746-2.576-.946-3.914-1.223-1.525-.315-3.088-.519-4.645-.49-1.441.027-2.976-.002-4.279.611-1.096.516-2.01 1.442-2.689 2.445-.391.576-.168 1.552-.734 1.957-1.161.829-3.133.973-4.279.123-.747-.553-1.048-1.817-.732-2.691.507-1.403 2.406-1.77 3.668-2.566.911-.574 2-.879 2.811-1.59.612-.538 1.332-1.151 1.467-1.955.219-1.309.013-3.306-1.223-3.791-1.087-.427-1.935 1.381-3.055 1.711-1.88.554-4.209 1.408-5.869.367-.821-.515-.622-1.847-1.1-2.689-.704-1.241-1.651-2.331-2.568-3.424-.575-.685-.942-1.891-1.834-1.955-.781-.056-1.202 1-1.834 1.467-.83.607-1.538 1.711-2.566 1.711-.735 0-1.487-.575-1.834-1.223-.615-1.15-.121-2.614 0-3.912.123-1.321.394-2.629.732-3.912.031-.118.076-.233.117-.35.009-.002.018-.007.027 0 1.63-.418 3.253-1.047 4.936-1.059 1.798-.012 3.537.664 5.291 1.059 1.418.319 2.781 1.173 4.23 1.057 1.338-.107 2.458-1.082 3.703-1.586 1.224-.495 2.502-.858 3.701-1.41.152-.07.32-.126.48-.189 1.1.29 2.9.029 2.9.029 0 0 6.205-.585 9.314-.545m-4.793 5.682c-.674.006-1.345.025-1.994.025-.974 0-1.925.298-2.893.414-1.42.17-2.867.14-4.271.412-1.598.309-3.169.781-4.684 1.377-.478.188-1.08.27-1.377.689-.428.604-.708 1.604-.275 2.205.274.38.911.229 1.377.275 2.33.231 4.687.123 7.03 0 1.752-.092 3.49-.384 5.236-.551 1.606-.153 3.222-.194 4.82-.414.972-.134 1.995-.154 2.893-.551.42-.185 1.02-.374 1.102-.826.135-.752-.595-1.517-1.238-1.93-1.639-1.052-3.698-1.146-5.721-1.127m47.52 10.889c-.09-.008-.184-.008-.281.004-2.679.321-2.036 5.02-3.424 7.336-3.772 6.292-7.812 12.63-13.203 17.605-4.04 3.727-8.659 7.275-13.938 8.803-3.602 1.042-7.512-.317-11.248 0-3.378.286-6.655 1.35-10.03 1.713-1.785.192-4.241-1.142-5.381.244-1.047 1.273.388 3.279.734 4.891.569 2.649 1.544 5.196 2.201 7.824 1.477 5.909 4.528 11.79 3.912 17.85-.162 1.597-.611 3.526-1.957 4.4-.912.593-2.116.181-3.248.043 0-1.01-.017-2.02-.084-3.02-.347-5.221-.847-10.476-2.076-15.563-.646-2.676-1.464-5.354-2.766-7.779-.409-.762-.749-1.768-1.557-2.076-.137-.052-.283-.075-.432-.076-.446-.004-.92.195-1.297.424-2.522 1.535-3.424 4.85-5.533 6.916-3.113 3.049-6.814 5.442-10.375 7.953-1.907 1.345-3.859 2.63-5.877 3.803-1.516.881-3.799.901-4.67 2.422-.545.952-.443 2.378.174 3.285 1.247 1.834 4.03 1.849 6.05 2.766 2.302 1.044 4.542 2.245 6.916 3.113 1.576.576 3.241.88 4.842 1.383.53.166 1.074.308 1.615.453.032.522-.009 1.02-.232 1.447-.61 1.164-1.797 2.451-3.111 2.422-2.044-.046-2.768-3.221-4.668-3.977-2.091-.831-4.544.131-6.744-.346-1.998-.433-3.753-1.64-5.705-2.248-2.429-.757-4.893-1.644-7.436-1.729-6.421-.213-12.94 1.036-19.02 3.111-6.882 2.349-12.666 7.165-19.19 10.375-8.774 4.316-18.234 7.212-26.799 11.93-5.825 3.208-11.217 7.161-16.6 11.07-1.96 1.422-4.265 2.548-5.705 4.494-3.125 4.225-4.203 9.662-5.707 14.697-1.265 4.235-1.641 8.693-2.766 12.967-.538 2.045-1.192 4.061-1.902 6.05-.29.814-.61 1.619-.959 2.41-1.582.932-2.546 3.097-3.563 4.709-6.06 9.615-9.82 20.618-12.959 31.543-3.997 13.909-5.12 28.49-7.336 42.791-1.273 8.213-3.778 16.394-3.422 24.697.079 1.837 1.018 3.551 1.223 5.379.091.81.461 1.773 0 2.445-.643.936-2.201.648-3.18 1.223-1.098.645-1.67 2.286-2.934 2.445-1.881.237-3.289-2.01-5.135-2.445-4.364-1.028-8.975-.528-13.449-.244-7.316.465-14.492 2.229-21.762 3.178-14.156 1.847-28.447 2.656-42.547 4.891-6.078.964-12.178 1.971-18.09 3.668-2.01.576-3.813 1.828-5.869 2.201-.962.175-2.094.502-2.934 0-1.033-.617-1.538-1.989-1.713-3.18-.533-3.622 2.932-7.171 2.201-10.758-.573-2.813-3.551-4.552-4.891-7.092-2.119-4.02-2.544-8.827-4.891-12.715-1.343-2.225-3.201-4.132-5.135-5.869-5.703-5.122-12-9.719-18.828-13.203-2.227-1.136-4.601-2.229-7.092-2.445-2.056-.179-4.414-.195-6.111.979-1.081.748-2.131 2.121-1.957 3.424.337 2.513 3.558 3.614 5.379 5.379 3.934 3.812 7.637 7.913 11.982 11.248 2.207 1.694 5.435 2.166 7.092 4.4 2.261 3.049 2.254 7.269 2.934 11 1.027 5.641.567 11.498 1.711 17.12 2.077 10.206 5.758 20.03 9.293 29.83 1.017 2.819 1.467 6.04 3.422 8.314.93 1.081 2.266 2.459 3.668 2.201 3.368-.618 4.145-5.457 6.357-8.07 1.566-1.849 2.571-4.677 4.891-5.379.965-.292 2.313-.062 2.934.732.752.964-.756 2.707 0 3.668 3.01 3.821 9.425 2.421 14.184 3.424 10.779 2.271 21.577 4.619 32.521 5.869 16.54 1.89 33.24 2.878 49.881 2.445 6.47-.168 13.548.974 19.318-1.957 5.764-2.927 8.106-10.156 12.959-14.426 3.123-2.748 7.452-4.03 10.27-7.092 5.095-5.533 7.861-12.845 11.248-19.561 1.282-2.542 2.272-5.223 3.424-7.826 2.746-6.206 5.83-12.266 8.313-18.582 4.346-11.06 10.883-21.877 11.492-33.744.579-11.275-3.842-22.357-7.58-33.01-1.619-4.613-3.215-9.469-6.275-13.27.437-.046.875-.057 1.313 0 1.486.193 2.835 1.01 4.148 1.729 1.849 1.017 4.051 1.852 5.188 3.631.882 1.382.537 3.236.865 4.842.925 4.52.339 9.798 3.111 13.486 2.418 3.217 6.801 4.407 10.547 5.879 2.706 1.063 5.618 1.522 8.473 2.074 6.402 1.238 12.853 2.442 19.365 2.766 5.416.269 10.839-.375 16.252-.691 5.423-.317 11.06.39 16.254-1.209 3.307-1.019 6.05-3.362 8.99-5.188.53-.329 1.048-.677 1.557-1.037.469-.332 1.01-.613 1.527-.906.007.072.022.143.027.215.093 1.302-.005 2.616-.09 3.928-.349.106-.694.226-1.023.379-4.03 1.87-5.257 7.686-9.291 9.535-8.462 3.88-18.578 2.196-27.875 1.713-8.417-.437-16.665-2.567-24.941-4.158-4.506-.866-8.903-2.315-13.449-2.934-1.456-.198-3.464-1.377-4.4-.244-.642.777.594 1.935.732 2.934.748 5.412-.217 10.965.488 16.383 1.622 12.449 6.135 24.36 8.559 36.678 1.785 9.07 3.562 18.18 4.402 27.387.652 7.145-1.178 14.539.488 21.518.483 2.02 1.897 3.704 2.689 5.625 1.318 3.193 1.466 6.934 3.424 9.779.787 1.144 2.596 1.432 3.18 2.691.446.961.749 2.428 0 3.178-.634.634-1.874.367-2.691 0-1.791-.804-2.723-2.838-3.912-4.4-.999-1.313-1.121-4.672-2.689-4.158-1.319.432.203 2.771.244 4.158.213 7.251-.137 14.509 0 21.762.082 4.322.482 8.636.49 12.959.009 4.812-.49 14.428-.49 14.428l150.38.732c0 0 1.758-8.373 3.912-11.98 3.636-6.088 8.775-11.468 14.672-15.406 7.918-5.287 17.292-8.529 26.652-10.27 2.644-.492 6.155 1.89 8.07 0 4.697-4.64-.811-13.287.244-19.805.943-5.827 3.625-11.237 5.381-16.873 2.332-7.483 4.768-14.938 6.846-22.496 5.429-19.747 11.247-39.47 14.672-59.662 1.15-6.781 2.505-13.684 1.955-20.539-.155-1.931-.659-3.864-1.467-5.625-1.075-2.342-2.881-4.276-4.4-6.357-.788-1.08-1.189-2.722-2.445-3.178-.706-.256-1.561.094-2.201.488-.986.607-1.388 1.865-2.201 2.689-4.264 4.325-8.433 9.169-13.938 11.736-10.723 5-23.14 5.739-34.967 6.113-10.409.329-20.654-2.85-31.05-3.422-1.628-.089-3.63 1.033-4.891 0-1.607-1.317-1.2-4.04-1.223-6.113-.013-1.18.201-2.343.482-3.5.44.769.928 1.455 1.529 1.906 2.227 1.673 4.983 2.525 7.607 3.459 4.267 1.519 8.643 2.924 13.14 3.457 5.381.638 10.849.065 16.252-.346 7.07-.537 14.183-1.176 21.09-2.766 4.618-1.062 9.455-2 13.486-4.496 4.299-2.657 7.313-6.987 10.721-10.719 2.428-2.659 4.02-6.163 6.916-8.301 1.206-.889 2.681-1.435 4.15-1.729 1.36-.272 2.781-.11 4.201.086-.91 1.371-2.141 2.564-2.818 4.064-.737 1.631-1.524 3.402-1.383 5.186.179 2.263 1.681 4.23 2.766 6.225 4.737 8.706 9.824 17.354 16.252 24.898 7.779 9.13 17.517 16.404 26.627 24.21 3.487 2.986 6.943 6.04 10.721 8.645 4.507 3.111 9.07 6.317 14.178 8.299 1.538.597 3.201.863 4.842 1.037 1.376.146 3-.775 4.148 0 1.028.696 1.774 2.28 1.385 3.459-.552 1.671-2.771 2.417-4.496 2.766-1.486.3-3.124-1.336-4.496-.691-1.825.857-1.834 3.627-3.111 5.188-4.446 5.429-10.741 9.08-15.561 14.178-6.528 6.909-11.927 14.804-17.982 22.13-6.619 8.01-12.845 16.382-20.06 23.861-2.266 2.35-6.728 3.35-7.262 6.57-.194 1.171 1.239 2.03 1.729 3.111.343.758.681 1.527.977 2.309-4.629.525-9.08 2.479-13.744 2.658-4.222.162-8.382-1.629-12.6-1.381-5.364.316-10.625 1.881-15.707 3.625-5.819 1.997-11.395 4.729-16.744 7.768-6.48 3.681-13.554 6.998-18.469 12.6-3.699 4.216-6.21 9.58-7.594 15.02-.469 1.841-.371 3.808-.172 5.697.329 3.122 1.197 6.189 2.244 9.148.721 2.038 1.266 4.306 2.762 5.867.944.985 2.259 1.886 3.623 1.898 1.158.011 2.638-.494 3.107-1.553 1.21-2.731-1.903-5.688-2.416-8.631-.822-4.717-1.851-9.608-1.035-14.326.535-3.097 2.073-6 3.797-8.629 1.719-2.621 3.822-5.101 6.387-6.904 1.687-1.186 3.932-3.485 5.695-2.416 1.234.748.039 2.905.346 4.314.013.061.018.137.029.201-.627.34-1.24.696-1.756 1.18-2.552 2.393-4.583 5.362-6.213 8.457-1.221 2.318-2.091 4.85-2.59 7.422-.921 4.75-1.5 9.73-.691 14.5.643 3.792 1.458 8.128 4.316 10.701 1.245 1.121 3.164 1.22 4.832 1.381 2.01.195 4.832 1.102 6.04-.518 1.195-1.601-.387-4.048-1.207-5.869-.709-1.574-2.477-2.536-3.107-4.143-.867-2.208-.628-4.708-.742-7.078-.099-2.068-.289-4.17.051-6.213.359-2.154 1.175-4.222 2.072-6.213 1.038-2.303 2.166-4.629 3.797-6.559 1.688-1.997 3.499-4.393 6.04-5.01 1.031-.249 2.762-.314 3.107.689.825 2.396-3.368 3.802-4.834 5.869-1.284 1.811-2.51 3.685-3.451 5.695-.826 1.763-1.729 3.584-1.898 5.523-.193 2.205.543 4.4 1.035 6.559.534 2.343 1.723 4.527 2.072 6.904.259 1.765-.819 3.767 0 5.352.777 1.503 2.521 2.45 4.143 2.934 1.49.444 3.463.82 4.66-.172.999-.828 1.129-2.526.863-3.797-.337-1.611-2.421-2.408-2.936-3.971-1.26-3.825-.472-8.08 0-12.08.319-2.702.327-5.718 1.898-7.939.673-.951 1.818-1.568 2.936-1.898 1.237-.365 2.643.283 3.904.17.071 1.508.232 3.03.004 4.508-.255 1.661-.58 3.383-1.424 4.836-.859 1.479-2.85 2.142-3.557 3.699-.688 1.517-.812 3.358-.426 4.979.439 1.843 2.143 3.139 2.986 4.836.702 1.411.725 3.177 1.707 4.41 1.106 1.389 2.742 2.381 4.41 2.988 1.299.473 2.762.657 4.125.426.878-.149 2.01-.348 2.42-1.137.804-1.533.045-3.642-.854-5.121-.985-1.621-3.497-1.839-4.553-3.414-.736-1.099-.764-2.54-.996-3.842-.335-1.876-.624-3.784-.568-5.689.034-1.172.165-2.344.367-3.504.651-.658 1.293-1.481 1.945-1.932 1.629-1.125 2.994-2.72 4.834-3.451 2.752-1.094 5.94-.45 8.803-1.209 9.408-2.493 18.399-6.509 27.1-10.875 8.378-4.205 17.02-8.401 23.992-14.67 2.319-2.086 6.339-4.37 5.697-7.422-.419-1.991-3.428-2.274-5.352-2.936-2.37-.816-4.929-.943-7.422-1.207-.072-.008-.145-.016-.217-.023-.54-1.01-.948-2.025-.953-3.045-.009-1.932.816-3.828 1.729-5.531 1.47-2.745 3.288-5.536 5.879-7.264 1.699-1.133 3.882-1.298 5.879-1.729 8.988-1.936 18.304-1.996 27.318-3.803 4.441-.89 8.958-1.721 13.14-3.459 3.578-1.487 7.123-3.314 10.03-5.879 3.266-2.885 4.98-7.188 7.953-10.373 7.133-7.642 16.11-13.37 23.516-20.748 1.967-1.959 4.41-3.686 5.533-6.225 1.314-2.968 1.613-6.489 1.037-9.684-.458-2.537-2.052-4.756-3.459-6.916-6.121-9.399-15.12-16.666-21.439-25.936-3.486-5.117-6.01-10.823-8.99-16.252-5.108-9.317-8.977-19.409-15.215-28.01-10.245-14.13-23.662-25.665-35.965-38.04-7.76-7.805-16.455-14.679-23.859-22.822-1.877-2.064-2.819-5.096-5.188-6.57-1.051-.654-2.326-1.01-3.59-1.07-.421-.021-.842-.009-1.252.033-2.034.211-4.337.821-5.773 2.264-.196-.657-.359-1.321-.105-1.918.225-.531.935-.676 1.385-1.037.829-.665 2.097-1.064 2.42-2.076.577-1.811-.37-3.924-1.383-5.533-3.27-5.196-9-8.456-14.178-11.756-6.131-3.907-12.877-6.858-19.711-9.338-3.02-1.096-6.164-1.907-9.338-2.42-1.711-.276-3.454-.288-5.186-.346-.389-.013-.804-.114-1.201-.143-.133-.009-.264-.011-.391.002-.169.017-.332.059-.484.141-.733.392-.896 1.4-1.383 2.074-6.25 8.655-13.14 16.832-19.711 25.24-9.909 12.683-19.926 25.281-29.738 38.04-10.133 13.176-18.421 27.924-30.09 39.766-4.207 4.271-10.327 6.471-14.178 11.07-.183.219-.354.448-.516.682-.63.144-1.265.266-1.904.355-1.598.224-3.339.588-4.842 0-1.899-.743-3.34-2.469-4.496-4.148-.704-1.023-1.148-2.24-1.383-3.459-.523-2.717-1.101-5.761 0-8.299 1.948-4.489 7.323-6.508 10.721-10.03 12.311-12.758 23.666-26.419 34.926-40.11 10.748-13.07 19.698-27.629 31.12-40.11 1.487-1.625 3.648-2.643 4.84-4.494 1.184-1.839 2.649-4.114 2.076-6.225-.321-1.183-1.609-2.02-2.768-2.42-1.965-.677-4.15.221-6.225.346-3.574.215-7.14.576-10.719.691-4.263.137-8.594-.733-12.795 0-3.02.527-5.629 2.585-8.646 3.111-2.157.377-4.481.655-6.57 0-.734-.23-1.392-.612-2.02-1.066.447-.262.878-.546 1.283-.85 1.254-.938 1.868-2.521 2.934-3.668 1.06-1.141 2.01-2.538 3.424-3.18 3.657-1.655 7.966-1.246 11.98-1.223 6.481.038 12.843 1.928 19.318 2.201 5.621.238 12.631 3.21 16.871-.488.747-.652.808-1.995.488-2.934-.503-1.474-2.202-2.212-3.422-3.18-4-3.174-9.268-4.788-12.715-8.559-5.02-5.492-8.11-12.607-10.76-19.561-2.858-7.501-3.368-15.703-5.379-23.475-.957-3.696-1.424-7.614-3.18-11-.675-1.303-1.296-3.549-2.652-3.672m-2.408 19.965c.825-.035 2.127 1.068 2.127 1.068l.734-.734c0 0-1.341 2.204-1.713 3.424-.743 2.437.892 5.851-.979 7.58-1.198 1.108-3.662 1.319-4.891.244-1.477-1.293-1.342-4.1-.488-5.867.511-1.059 1.867-1.464 2.934-1.957.539-.249 1.338-.029 1.713-.488.672-.823-.658-2.618.244-3.18.093-.058.201-.085.318-.09m-109.39 57.57c.324 0 .652-.004.979.006.435.013.866.035 1.277.039 5.285.056 10.513 1.352 15.627 2.686 5.43 1.416 11.973 1.58 15.873 5.615 1.127 1.166 2.264 3.23 1.465 4.641-.866 1.529-3.38 1.388-5.129 1.221-2.756-.263-4.987-2.42-7.568-3.42-3.432-1.329-6.885-2.726-10.5-3.418-5.05-.966-11.867 2.77-15.383-.977-.835-.89-.218-2.461 0-3.662.124-.684.192-1.516.732-1.953.72-.583 1.654-.748 2.627-.777m115.02 3.086c.45-.014.903-.004 1.355.039 2.472.235 5.938.485 6.916 2.768.245.571-.389 1.187-.693 1.729-.565 1-1.094 2.16-2.074 2.766-2.193 1.355-5.071.926-7.607 1.383-3.227.581-6.411 1.509-9.682 1.73-2.763.187-6.226 1.488-8.301-.346-1.051-.928-1.345-2.909-.691-4.15.889-1.688 3.381-1.806 5.188-2.42 2.01-.684 4.144-.952 6.225-1.385 3.118-.648 6.213-2.01 9.365-2.113m-52.44 1.652c.813.055 1.687.394 2.445.635 1.206.383 2.063 1.574 3.285 1.902.891.239 1.916.353 2.768 0 .602-.25.739-1.278 1.383-1.383.254-.041.574.116.691.346.477.937-.362 2.071-.518 3.111-.129.863.078 1.831-.346 2.594-.617 1.109-1.772 1.922-2.939 2.42-1.815.774-3.953 1.119-5.879.691-1.39-.309-2.938-1-3.631-2.246-.673-1.208-.25-2.79 0-4.15.234-1.274.284-2.945 1.383-3.631.405-.253.87-.322 1.357-.289m3.559 19.928c.996.038 2.093 1.37 3.037.936.234-.108.095-.751.346-.691 1.571.371 0 3.228 0 4.842 0 1.037-.038 2.077 0 3.113.058 1.559.468 3.112.346 4.668-.079 1-.077 2.142-.691 2.939-.598.776-1.965.631-2.594 1.383-1.204 1.44-1.236 3.548-1.729 5.359-.279 1.026.313 2.767-.691 3.113-1.2.413-2.398-1.274-2.939-2.422-1.033-2.189-.213-4.85 0-7.262.231-2.624.843-5.201 1.383-7.779.352-1.683.553-3.427 1.211-5.02.465-1.123.777-2.651 1.902-3.111.137-.056.278-.078.42-.072m-95.36 5.383c.237-.016.475-.009.717.029.981.156 2.041.8 2.441 1.709.761 1.727.516 4.199-.732 5.615-1.28 1.451-4.149.203-5.615 1.465-1.879 1.617-1.719 4.674-2.93 6.838-1.996 3.567-3.187 8.773-7.082 10.01-1.398.445-3.425-.189-4.15-1.465-.821-1.443.474-3.303.977-4.885.486-1.528 1.527-2.849 1.953-4.395.544-1.976.188-4.13.732-6.105.639-2.318.969-5.199 2.93-6.592 1.598-1.135 3.936-.119 5.861-.488 1.682-.322 3.24-1.624 4.898-1.738m-28.438 1.201c.918-.016 1.875.624 2.539 1.27 1.28 1.244 2.136 3.099 2.197 4.883.08 2.342-1.634 4.394-2.441 6.594-.656 1.789-.277 4.465-1.953 5.371-1.251.676-3.115-.002-4.15-.977-1.237-1.165-1.302-3.191-1.465-4.883-.235-2.443-.228-5.068.732-7.326.836-1.966 2.073-4.384 4.15-4.883.129-.031.259-.047.391-.049m259.73 5.797c.569-.019 1.175.096 1.676.25.778.239 1.421.888 1.875 1.564 1.157 1.725 1.561 3.887 1.877 5.939.254 1.648.154 3.343 0 5-.157 1.689.178 3.723-.938 5-.65.745-2.01 1.518-2.814.939-.846-.609.033-2.085 0-3.127-.052-1.67.161-3.402-.313-5-.542-1.835-2.33-3.151-2.814-5-.423-1.613-1.119-3.767 0-5 .351-.388.882-.543 1.451-.563m55.688 41.2c1.745.08 3.03 1.751 4.453 2.764 3.706 2.638 7.474 5.291 10.596 8.6 7.097 7.522 13.176 16.1 18.12 25.18 1.208 2.221 4 4.861 2.764 7.06-.586 1.041-2.392.974-3.531.613-1.38-.437-2.127-1.972-3.07-3.07-2.647-3.084-4.832-6.539-7.219-9.828-3.663-5.05-6.762-10.538-10.902-15.201-3.776-4.253-8.584-7.479-12.59-11.518-.97-.978-3.158-1.75-2.766-3.07.226-.762 1.562-.334 2.305-.615.642-.243 1.156-.951 1.842-.92m-345.71 13.906c.96-.032 2.01.396 2.744.973 1.067.836 1.66 2.309 1.773 3.66.255 3.03-1.511 5.902-2.551 8.76-3.231 8.881-6.99 17.602-11.422 25.949-1.27 2.391-4.324 6.875-4.324 6.875 0 0-.596-1.899-.666-2.883-.307-4.33.182-8.734 1.109-12.975 1.796-8.213 4.927-16.14 8.539-23.73 1.076-2.261 1.584-5.435 3.881-6.432.286-.124.596-.187.916-.197m247.67 7.379c.301.021.595.115.881.305 1.654 1.095 1.31 4.228.313 5.941-.821 1.41-2.812 1.725-4.377 2.188-1.81.535-3.746.498-5.629.627-4.057.277-9.283 3.151-12.195.313-1.269-1.237-.882-3.78 0-5.316.721-1.256 2.328-1.928 3.752-2.189 1.247-.229 2.491.496 3.752.627 2.49.258 5.03.695 7.506.313 1.959-.303 3.933-2.654 5.695-2.803.102-.009.203-.011.303-.004m59.42 2.49c.351-.02.691.032.998.178 2.501 1.187 1.561 5.339 2.764 7.832 3.226 6.69 7.198 13.08 11.824 18.887 3.111 3.908 6.849 7.293 10.596 10.596 2.381 2.099 5.613 3.301 7.523 5.836.664.88 1.722 2.084 1.229 3.07-.616 1.233-2.632 1.297-3.992 1.074-.911-.149-1.583-.958-2.303-1.535-3.982-3.194-7.561-6.876-11.06-10.596-4.179-4.446-8.03-9.196-11.822-13.973-2.344-2.949-4.931-5.766-6.758-9.06-1.093-1.97-2.193-4.058-2.457-6.295-.176-1.488-.328-3.289.615-4.453.642-.792 1.788-1.501 2.84-1.561m-235.68 4.24c2.524-.124 4.843 1.483 7.326 1.953 2.817.534 5.721 1.476 8.545.977.896-.158 1.57-1.484 2.441-1.221.628.19 1.017 1.054.977 1.709-.076 1.219-1.164 2.281-2.197 2.932-2.107 1.328-4.834 1.425-7.324 1.465-2.475.04-5.079-.183-7.326-1.221-1.836-.847-3.901-2.026-4.639-3.908-.239-.611-.162-1.438.244-1.953.431-.546 1.259-.698 1.953-.732m210.64 16.385c.078.003.158.017.234.027.984.14 2.068.232 2.861.83.784.591 1.298 1.551 1.57 2.494.461 1.597-.069 3.326 0 4.986.123 2.962 1.177 5.931.738 8.863-.393 2.623-1.169 5.427-2.955 7.387-.955 1.048-2.369 1.864-3.785 1.939-.856.046-1.867-.253-2.4-.924-1.102-1.387-.801-3.493-.738-5.264.115-3.24 1.748-6.28 2.031-9.51.15-1.718-.195-3.445-.186-5.17.007-1.325-.434-2.8.186-3.971.432-.816 1.339-1.37 2.215-1.662.073-.024.15-.031.229-.027m-249.62 5.199c.377-.026.732.05.959.303 2.21 2.469-.589 6.606-1.098 9.881-.245 1.58-.762 3.116-.939 4.705-.232 2.079.91 4.473-.158 6.271-.802 1.349-2.701 3.109-4.076 2.354-2.11-1.158-.209-4.81-.314-7.215-.156-3.555-1.798-7.363-.471-10.664.593-1.475 2.388-2.111 3.451-3.293.573-.638.799-1.66 1.568-2.039.305-.15.701-.277 1.078-.303m-226.45 21.559c-.263 0-.523.027-.775.09-1.051.261-1.993 1.052-2.598 1.949-2.128 3.157-1.695 7.438-2.924 11.04-.36 1.056-1.21 1.972-1.299 3.084-.165 2.054.77 4.066 1.461 6.01.885 2.486 1.649 5.18 3.41 7.145 1.785 1.991 4.585 2.756 6.82 4.223 1.983 1.301 3.92 2.67 5.844 4.059 1.755 1.267 3.078 3.456 5.197 3.896 1.144.238 2.658.083 3.41-.811 1.118-1.328.726-3.509.324-5.197-.422-1.77-1.59-3.315-2.76-4.709-1.827-2.176-4.731-3.293-6.496-5.52-1.399-1.764-2.508-3.832-3.084-6.01-.638-2.409-.176-4.981-.326-7.469-.17-2.818.634-5.929-.648-8.443-.645-1.266-1.957-2.167-3.248-2.76-.71-.326-1.521-.578-2.309-.578m256.61 4.805c.076.002.15.015.225.043 1.078.398.958 2.109 1.201 3.232.829 3.83.214 7.855.83 11.725.419 2.632.857 5.323 1.939 7.758.874 1.966 2.645 3.429 3.602 5.355 1.142 2.302 1.76 4.83 2.492 7.293.606 2.039 1.286 4.079 1.57 6.188.206 1.525.972 3.355.092 4.617-.484.695-1.554.866-2.4.83-.909-.039-1.798-.52-2.492-1.107-1.831-1.549-2.939-3.836-3.971-6-1.457-3.058-2.279-6.396-3.047-9.695-.826-3.549-1.236-7.184-1.662-10.803-.574-4.876-1.86-9.816-1.201-14.682.18-1.332.512-2.764 1.385-3.785.36-.422.908-.981 1.438-.967m216.22 7.754c.085 0 .169.012.248.045.654.273 1.043 1.063 1.201 1.754.278 1.213-.074 2.545-.555 3.693-.416.994-1.553 1.58-1.939 2.586-1.098 2.856-.331 6.122-.83 9.141-.449 2.718-.021 6.06-1.939 8.03-.489.503-1.336.648-2.031.555-1.203-.161-2.596-.763-3.141-1.848-.639-1.273.012-2.895.463-4.246.42-1.257 1.627-2.156 2.031-3.418.565-1.765.342-3.69.461-5.539.087-1.353-.427-2.853.186-4.063.554-1.094 2.188-1.284 2.861-2.309.632-.961.242-2.399.924-3.324.304-.412.816-.642 1.293-.83.24-.095.512-.227.768-.23m-485.47 4.348c-.16-.003-.321.019-.48.07-1.733.555-1.905 3.225-2.109 5.03-.322 2.838 1.647 5.593 1.461 8.443-.166 2.545-2.747 4.8-2.273 7.307.514 2.724 3.062 4.726 5.195 6.496 2.925 2.427 6.617 3.764 10.07 5.357 2.01.927 4.307 1.245 6.17 2.436 1.323.845 1.923 2.747 3.41 3.248 1.393.47 3.205.392 4.383-.488 1.788-1.335 2.67-3.94 2.598-6.17-.059-1.814-1.206-3.536-2.436-4.871-3.389-3.68-9.08-4.476-12.826-7.793-3.405-3.01-6.365-6.672-8.443-10.717-.978-1.905-.493-4.464-1.787-6.17-.707-.932-1.811-2.162-2.93-2.182m477.38 22.557c.104-.007.207-.004.309 0 .764.105 1.572.488 2.031 1.107.636.859.811 2.085.646 3.141-.174 1.117-.687 2.385-1.662 2.955-.664.388-1.56.177-2.309 0-.737-.174-1.625-.377-2.031-1.016-.612-.961-.482-2.348-.092-3.418.381-1.045 1.259-1.925 2.215-2.492.265-.157.581-.266.893-.287m-482.24 3.01c0 0 .18 5.23.648 7.795.354 1.938.725 3.929 1.625 5.682.915 1.782 2.257 3.356 3.734 4.709 2.103 1.926 4.73 3.19 7.145 4.709 1.87 1.176 3.532 2.903 5.682 3.41 1.374.324 3.02.409 4.223-.324 1.142-.695 1.711-2.135 2.111-3.41.601-1.913.947-4.102.324-6.01-.478-1.462-1.737-2.593-2.924-3.572-2.372-1.958-5.436-2.879-8.117-4.385-2.623-1.472-5.12-3.172-7.795-4.547-1.53-.786-3.291-1.133-4.707-2.109-.756-.521-1.949-1.949-1.949-1.949m367.19.172c.508.037 1.018.189 1.459.406.91.448 1.622 1.313 2.086 2.215 1.336 2.599 1.427 5.693 1.695 8.604.379 4.11.306 8.278-.131 12.383-.23 2.161.443 5.093-1.303 6.387-2.243 1.663-6.484 1.3-8.344-.783-1.476-1.653-.189-4.453.131-6.646.423-2.9 2.229-5.545 2.346-8.473.146-3.67-3.123-7.296-2.084-10.818.409-1.385 1.643-2.629 2.998-3.129.205-.076.421-.121.643-.141.166-.015.335-.016.504-.004m93.65 5.178c1.366.03 3.166.772 3.525 2.09.379 1.391-1.154 2.688-2.09 3.785-1.469 1.723-3.347 3.131-5.354 4.18-2.867 1.499-6.04 2.82-9.271 2.873-2.302.038-5.264.002-6.66-1.828-.369-.485-.399-1.368 0-1.828.807-.93 2.45-.276 3.656-.523 1.148-.236 2.339-.409 3.396-.914 1.941-.926 3.4-2.646 5.223-3.787 2.427-1.518 4.712-4.11 7.574-4.047m152.8.373c.376.019.709.127.871.422.62 1.124-.827 2.462-1.535 3.533-.739 1.117-1.85 1.936-2.764 2.916-3.408 3.657-6.637 7.484-10.135 11.06-3.419 3.492-6.524 7.432-10.596 10.135-1.394.926-2.967 1.656-4.605 1.996-.902.187-1.995.507-2.764 0-.325-.215-.572-.701-.461-1.074.368-1.238 2.232-1.323 3.225-2.15 4.976-4.15 9.04-9.28 13.512-13.973 3.096-3.252 5.714-7.02 9.215-9.828 1.485-1.193 3.042-2.555 4.912-2.918.33-.064.749-.134 1.125-.115m-524.06 10.455c1.456-.028 2.633 1.386 4.078 1.568 1.801.228 3.601-.775 5.41-.627 1.328.108 2.794.276 3.842 1.098.663.52 1.139 1.36 1.254 2.195.118.854.017 1.936-.627 2.51-.905.807-2.395.471-3.607.471-1.608 0-3.205-.321-4.783-.629-1.22-.238-2.447-.491-3.605-.939-1.101-.426-2.024-1.25-3.137-1.646-1.231-.439-2.62-.321-3.842-.785-.536-.204-1.554-.293-1.49-.863.146-1.306 2.531-.72 3.764-1.176.934-.345 1.749-1.157 2.744-1.176m378.11.031c.204.011.412.059.602.109.678.18 1.334.546 1.828 1.045 1.193 1.204 2.69 2.757 2.48 4.439-.399 3.208-3.832 5.485-6.66 7.05-1.359.753-3.118.363-4.57.914-2.261.858-4 2.804-6.268 3.656-1.494.562-3.112 1.064-4.701.914-1.4-.132-3.257-.325-3.918-1.566-.586-1.1.173-2.57.785-3.656 1.028-1.824 2.653-3.467 4.57-4.309 1.678-.737 3.692-.012 5.484-.393 2.128-.452 4.446-.852 6.137-2.221 1.793-1.452 1.64-4.755 3.656-5.875.171-.095.371-.121.574-.109m-462.05 5.822c-1.085-.013-2.253.149-2.551 1.025-.546 1.609 1.792 2.957 3.086 4.059 2.195 1.867 5.475 2.149 7.631 4.061 2.124 1.882 2.355 5.67 4.871 6.982 1.632.851 4.22 1.301 5.521 0 1.493-1.493 1.101-4.533 0-6.334-1.237-2.024-4.27-2.073-6.332-3.246-2.833-1.611-5.405-3.666-8.281-5.197-.941-.501-1.861-1.218-2.924-1.299-.308-.023-.66-.046-1.021-.051m85.973 2.643c.953.08 1.956.687 2.91.914.58.138 1.133.398 1.725.471 1.142.14 2.374-.484 3.451-.08.762.286 1.539.878 1.803 1.648.249.728.218 1.804-.391 2.273-1.454 1.122-3.72.019-5.49-.471-1.149-.318-2.146-1.04-3.215-1.568-.943-.466-2.552-.395-2.822-1.412-.169-.638.488-1.395 1.098-1.646.302-.124.614-.155.932-.129m65.979 4.496c.921.029 1.884.26 2.799.26 3.293 0 6.587-.082 9.879 0 1.046.026 2.091.101 3.137.156 4.705.248 9.582-.499 14.12.785 1.373.389 3.063.796 3.764 2.039.54.957.623 2.518-.156 3.293-1.743 1.734-4.912.276-7.371.313-4.03.059-8.05-.101-12.08-.156-3.607-.05-7.246.33-10.82-.156-2.249-.306-5.252.108-6.588-1.727-.555-.762-.206-1.953.158-2.822.3-.717.858-1.41 1.568-1.725.502-.222 1.039-.277 1.592-.26m310.51 3.104c1.432.069 2.938.667 3.59 1.805 1.303 2.274.27 5.833-1.566 7.703-1.687 1.718-4.663 1.861-7.05 1.566-1.256-.155-2.729-.621-3.395-1.697-.595-.963-.515-2.387 0-3.395.709-1.388 2.601-1.731 3.787-2.742.141-.12.259-.264.391-.393.947-.925 1.58-2.458 2.873-2.742.427-.094.896-.129 1.373-.105m-85.961.348c.732.049 1.406.75 2.029 1.193 2.177 1.55 3.907 3.655 5.734 5.605 1.095 1.169 2.678 2.113 3.129 3.65.53 1.81.77 4.531-.781 5.604-1.136.785-2.767-.38-4.04-.912-1.713-.715-3.407-1.66-4.693-2.998-1.431-1.488-2.471-3.387-3.127-5.344-.473-1.41-.945-3.01-.521-4.432.29-.976.959-2.137 1.955-2.346.107-.022.212-.029.316-.021m31.77 17.602c1.179-.002 2.363.123 3.525.309 2 .319 3.856 1.385 5.875 1.566 2.653.238 5.304-.744 7.967-.652 1.738.06 3.961-.48 5.156.783.946 1 1.122 2.945.393 4.113-.985 1.577-3.395 1.618-5.223 1.959-2.054.384-4.179.131-6.268.064-4.428-.14-9.161.711-13.256-.979-1.298-.536-2.601-1.472-3.199-2.742-.501-1.063-.794-2.606-.064-3.527.829-1.048 2.586-.742 3.918-.848.391-.031.783-.046 1.176-.047m-73.07 2.223c1.162-.03 2.28.192 3.316.791.714.413 1.051 1.569.781 2.348-.647 1.867-3.288 2.193-4.953 3.258-1.595 1.02-3.088 2.24-4.822 2.998-2.56 1.118-5.427 1.346-8.08 2.215-3.01.984-5.7 3.409-8.863 3.391-2.243-.013-6.139-.237-6.256-2.477-.059-1.126 1.973-1.096 2.998-1.564 1.827-.835 3.78-1.373 5.604-2.217 3.263-1.511 6.132-3.865 9.516-5.084 3.379-1.217 7.275-3.569 10.762-3.658" fill="#f2a772"/><path d="m374.17 82.65c-2.301-.011-4.61.225-6.844.645-2.548.478-4.771 2.035-7.207 2.922-2.181.794-4.467 1.29-6.625 2.143-1.135.448-2.554.602-3.311 1.559-.782.989-1.018 2.465-.779 3.703.221 1.15 1.842 1.756 1.947 2.922.235 2.607-2.694 4.624-3.117 7.207-.253 1.543-.351 3.299.391 4.676.548 1.018 1.731 1.554 2.727 2.143 2.855 1.689 5.853 3.592 9.156 3.896 4.173.384 8.195-1.764 12.273-2.727 3.648-.861 7.19-2.271 10.91-2.729 3.996-.492 8.05 0 12.08 0 2.143 0 4.348-.51 6.43 0 1.636.401 3.607.897 4.48 2.338.741 1.222 1.071 3.342 0 4.287-1.57 1.386-4.149-.969-6.234-.779-1.289.117-3.332-.072-3.701 1.168-.264.885.959 1.675 1.754 2.145 2.16 1.276 5.153.252 7.402 1.363 3.298 1.629 6.529 4.116 8.182 7.402.909 1.807 1.7 4.351.586 6.04-.826 1.251-3.704-.018-4.287 1.363-.508 1.204 1.081 2.388 1.754 3.508 2.423 4.03 5.426 7.683 8.182 11.494 2.314 3.199 5.446 5.921 7.01 9.545.708 1.637 1.998 3.801.975 5.262-.68.97-2.477 1.169-3.508.584-1.395-.792-.15-4.396-1.752-4.48-1.972-.104-2.816 3.287-2.729 5.26.075 1.692 2.086 2.718 2.729 4.285 1.058 2.581 1.846 5.394 1.752 8.182-.095 2.835-2.256 5.348-2.338 8.184-.112 3.858 2.564 7.439 2.533 11.299-.044 5.544-2.716 10.753-3.896 16.17-1.155 5.301-2.464 10.589-3.117 15.975-.321 2.646-1.948 5.826-.389 7.988 1.696 2.351 5.629 3.26 8.377 2.338 3.251-1.091 3.715-5.858 6.234-8.184.794-.733 1.647-1.71 2.727-1.752 1.916-.074 3.288 3.444 5.066 2.727 1.581-.638 1.103-3.228 1.557-4.871.762-2.764-.539-6.953 1.949-8.377.945-.541 2.362.191 3.117.975 1.028 1.066-.125 3.563 1.168 4.285 2.01 1.122 4.92-.401 6.625-1.947 2.957-2.682 4.331-7.115 4.48-11.1.295-7.901-4.712-15.1-7.209-22.6-4.319-12.978-9.912-25.553-13.441-38.768-1.433-5.365-1.856-10.957-3.117-16.365-1.714-7.349-2.138-15.36-6.04-21.82-3.823-6.332-10.436-10.523-16.17-15.195-1.662-1.354-3.286-2.863-5.26-3.701-3.165-1.344-6.835-.967-10.131-1.947-2.959-.88-5.78-2.192-8.572-3.508-2.733-1.288-5.061-3.528-7.986-4.285-2.2-.57-4.494-.829-6.795-.84m-29.691 5.592c-1.786.073-3.852.826-5.596.896-4.817.195-9.609.803-14.416 1.17-1.818.139-3.729-.198-5.455.389-4.348 1.478-8.271 4.326-11.494 7.598-2.706 2.746-4.626 6.239-6.234 9.742-1.414 3.081-1.744 6.562-2.922 9.74-1.111 2.999-2.928 5.72-3.896 8.768-.401 1.262-.704 2.574-.779 3.896-.089 1.561.391 4.674.391 4.674 0 0 1.182-3.859 2.533-5.26 1.936-2.01 5.05-2.406 7.402-3.896 1.646-1.041 2.9-2.705 4.676-3.506 1.753-.791 3.735-.974 5.648-1.17 2.132-.218 4.293.168 6.43 0 2.491-.195 5.081-.244 7.402-1.168 3.732-1.486 7.172-3.903 9.936-6.818 3.088-3.258 5.04-7.463 7.01-11.494.886-1.809 1.779-3.669 2.143-5.65.421-2.299 1.653-5.361 0-7.01-.74-.74-1.71-.94-2.781-.896m12.762 7.223c1.115.05 2.367.48 3.463.492 2.923.032 5.951-.586 8.768.195.504.14.953.454 1.363.779.972.771 2.884 1.539 2.531 2.729-.457 1.54-3.464.112-4.674 1.168-.79.69-1.331 1.885-1.17 2.922.22 1.413 2.867 1.889 2.727 3.313-.09.919-1.306 1.365-2.143 1.754-1.917.892-4.132 1.387-6.234 1.168-2.867-.299-6.929-.629-7.986-3.311-.288-.73.325-1.704.975-2.145 1.13-.766 3.11.758 4.09-.193.607-.59.632-1.808.195-2.533-.84-1.395-3.726-.506-4.48-1.949-.614-1.174-.245-3.057.779-3.896.508-.417 1.128-.522 1.797-.492m-63.2 43.17c-1.549.121-3.072 1.483-3.938 2.787-2.1 3.162-.992 7.528-1.609 11.273-2.105 12.777-5.309 25.369-7.133 38.19-.662 4.653-.723 9.379-1.379 14.03-.414 2.934-.185 6.145-1.611 8.742-.705 1.284-2.635 1.647-3.221 2.99-1.379 3.163-2.378 7.851 0 10.352 1.058 1.113 3.41 1.199 4.602.23 3.435-2.79 1.481-8.728 2.07-13.11.463-3.441-1.64-8.285 1.15-10.352 1-.743 2.903-.286 3.682.689 2.538 3.178-.034 8.149-.461 12.193-.515 4.877-1.223 9.766-2.531 14.492-.855 3.088-3.376 5.769-3.449 8.973-.05 2.182.469 4.728 2.07 6.211.928.859 2.416.866 3.68.922 1.474.065 3.428.443 4.371-.691 3.629-4.365-.779-11.356-.459-17.02.31-5.49 1.914-10.849 2.299-16.334.198-2.83-.475-5.714 0-8.512.272-1.602-.004-4.427 1.611-4.602 1.164-.126 1.475 1.878 1.84 2.99 1.174 3.583.686 7.511.92 11.273.444 7.124.967 14.256.922 21.395-.026 4.147-.455 8.283-.691 12.424-.224 3.911-2.916 8.509-.689 11.732.731 1.058 2.468 1.579 3.68 1.15 1.303-.461 1.871-2.137 2.301-3.451 1.6-4.888-1.64-10.83.691-15.414 1.113-2.188 3.528-5.645 5.75-4.602 3.888 1.826.192 8.59.23 12.885.037 4.141-2.297 8.976 0 12.422 1.659 2.488 5.458 2.464 8.281 3.451 3.162 1.106 6.333 2.406 9.664 2.76 2.293.244 5.754 1.542 6.9-.459 1.193-2.083-2.05-4.346-3.221-6.441-4.399-7.878-9.824-15.15-14.264-23.01-4.878-8.628-11.59-16.746-13.572-26.457-.431-2.109.346-4.292.459-6.441.361-6.896 2.461-14.03.691-20.703-.9-3.394-4.139-5.744-5.521-8.973-1.779-4.155-3.499-8.594-3.451-13.11.035-3.349 2.359-6.337 2.762-9.662.499-4.114 1.022-8.554-.461-12.424-.429-1.119-1.12-2.56-2.301-2.76-.22-.037-.443-.045-.664-.027" fill="#fcdd09"/><path d="m361.22 40.996c-8.95.044-17.952 1.53-26.549 3.957-16.282 4.597-32.991 10.37-46.28 20.842-17.668 13.922-32.1 32.831-41.33 53.34-7.819 17.376-10.715 37.12-10.598 56.17.103 16.697 3.139 33.832 9.891 49.1 4.905 11.09 13.262 20.465 21.549 29.322 7.365 7.872 15.827 14.764 24.73 20.842 8.965 6.12 19.41 9.789 28.613 15.545 1.718 1.074 2.934 3.311 4.947 3.533 3.304.365 6.691-1.687 9.184-3.887 1.938-1.711 2.688-4.423 3.887-6.713 1.026-1.96 3.483-3.893 2.826-6.01-.486-1.562-2.689-1.948-4.238-2.473-7.195-2.434-15.16-1.327-22.609-2.826-5.994-1.207-12.278-2.051-17.664-4.945-5.074-2.726-8.652-7.61-13.07-11.305-3.02-2.524-7.137-4.056-9.184-7.418-2.438-4-1.651-9.239-2.826-13.777-1.083-4.182-3.823-8.05-3.887-12.365-.071-4.771 2.785-9.135 3.887-13.777 3.294-13.887 5.348-28.04 8.125-42.04 4.138-20.863 4.473-42.922 12.717-62.53 1.709-4.065 4.194-7.945 7.42-10.951 3.783-3.525 8.529-6.106 13.424-7.771 5.96-2.028 12.437-2.127 18.723-2.475 5.645-.312 11.325.852 16.957.354 2.991-.265 5.985-.814 8.832-1.766 3.097-1.035 5.619-3.657 8.832-4.24 5.235-.949 10.786-.064 15.896 1.414 4.705 1.361 8.382 5.3 13.07 6.713 4.084 1.23 8.756-.171 12.717 1.412 6.867 2.745 12.698 7.944 17.664 13.424 4.828 5.327 8.42 11.785 11.305 18.371 4.712 10.756 5.899 22.749 9.539 33.914 3.35 10.273 8.352 19.987 11.305 30.381 2.133 7.509 4.02 15.178 4.592 22.963.336 4.586 1.235 9.609-.707 13.777-2.991 6.42-10.607 9.406-15.543 14.484-2.733 2.812-4.786 6.289-7.771 8.832-2.86 2.436-6.994 3.242-9.539 6.01-2.248 2.441-4.17 5.539-4.592 8.83-.537 4.194 2.229 8.18 2.826 12.365.283 1.985-1.107 4.63.352 6.01 1.714 1.616 4.922.973 7.07 0 3.42-1.552 4.979-5.623 7.418-8.479 5.973-6.994 12.617-13.509 17.664-21.2 8.468-12.899 16.256-26.6 20.844-41.33 3.853-12.37 5.522-25.551 5.299-38.506-.274-15.892-1.48-32.548-8.125-46.986-9.651-20.969-25.794-39.36-44.16-53.34-12.12-9.227-27.21-13.974-41.686-18.723-9.04-2.967-18.401-5.603-27.908-6.01-1.275-.054-2.553-.077-3.832-.07m74.28 194.96c-.837-.055-1.726.679-2.391 1.24-.629.531-.842 1.419-1.332 2.08-.585.79-1.124 1.657-1.912 2.246-1.313.981-2.889 1.656-4.492 1.996-1.085.23-2.402-.611-3.328 0-.705.465-1.266 1.529-.998 2.33.426 1.272 2.154 1.936 3.494 1.996 3.322.148 6.492-2.055 9.07-4.16 1.275-1.043 2.337-2.449 2.912-3.992.233-.626.292-1.34.166-1.996-.117-.609-.25-1.45-.832-1.664-.117-.043-.234-.068-.354-.076m46.615 17.607c-.318-.028-.632.003-.928.107-.989.351-1.26 1.703-1.668 2.67-.728 1.724-.169 3.991-1.336 5.453-.776.972-2.383.871-3.338 1.668-.712.594-1.219 1.415-1.668 2.227-.25.452-.348.973-.557 1.445-.536 1.214-1.403 2.289-1.781 3.561-.372 1.253.435 2.929-.445 3.895-1.098 1.204-3.711-.225-4.783 1-1.027 1.176-.382 3.113-.334 4.674.051 1.683.73 3.323.668 5.01-.06 1.628-.52 3.229-1 4.785-.285.921-.693 1.802-1.113 2.67-.333.687-1.113 2-1.113 2 0 0 3.592-1.604 4.896-3.01 1.481-1.591 1.685-4.058 3-5.785.796-1.043 2.072-1.648 2.895-2.67 1.564-1.942 2.331-4.426 3.783-6.453 1.057-1.475 2.178-2.942 3.561-4.117 1.294-1.1 3.236-1.38 4.338-2.672 1.068-1.253 1.653-2.932 1.893-4.561.32-2.176-.128-4.434-.668-6.566-.355-1.402-.615-3.02-1.67-4.01-.686-.644-1.68-1.246-2.633-1.33m14.51 9.371c-1.493-.031-3.01 1.129-4.242 2.043-10.195 7.569-15.83 19.858-23.777 29.762-27.25 33.952-54.25 68.1-81.959 101.68-6.978 8.457-15.993 15.493-21.22 25.13-.852 1.569-1.406 3.349-1.549 5.129-.065.815-.371 2 .324 2.432 2.568 1.588 6.05-1.278 8.57-2.936 5.204-3.418 8.547-9.07 12.578-13.811 24.09-28.359 46.21-58.34 69.3-87.52 12.695-16.05 26.21-31.475 38.07-48.15 2.457-3.458 7.03-6.499 6.832-10.736-.058-1.235-1.084-2.604-2.277-2.928-.211-.057-.425-.085-.639-.09m9.416 11.924c-.165.003-.328.024-.484.065-.518.134-.899.801-.891 1.336.005.319.45.476.557.777.21.596-.147 1.316.111 1.893.301.67.932 1.173 1.557 1.559.399.247.932.682 1.336.443 1.234-.729 1.41-2.94.779-4.227-.499-1.016-1.806-1.866-2.965-1.846m-3.65 7.59c-.616.012-1.235.075-1.842.152-1.178.15-2.777-.088-3.449.891-.549.8-.316 2.171.334 2.893.687.762 1.979.632 3 .668 1.499.052 3.144.068 4.451-.668.505-.284.916-.791 1.113-1.336.189-.523.305-1.202 0-1.668-.355-.542-1.147-.647-1.781-.779-.599-.125-1.214-.164-1.83-.152m-7.07 5.05c-.793.073-.544 1.556-1.113 2.113-.474.464-1.173.625-1.781.891-.871.38-2.198.177-2.67 1-.43.751-.186 1.966.445 2.559 1.01.944 2.738.512 4.117.445 1.097-.053 2.309-.064 3.227-.668.756-.498 1.65-1.326 1.559-2.227-.098-.966-1.46-1.285-2.115-2-.606-.663-.774-2.196-1.668-2.113m-2.246 7.43c-1.049.032-2.298.48-3.318.469-.816-.009-1.756-.433-2.447 0-1.082.679-1.283 2.234-1.67 3.451-.273.86-.749 1.82-.445 2.67.265.743 1.01 1.413 1.781 1.557 1.165.216 2.361-.552 3.338-1.223.65-.446.982-1.243 1.559-1.781.715-.669 1.833-.939 2.336-1.779.482-.806 1.046-2.062.445-2.783-.392-.47-.949-.6-1.578-.58m-497.99 67.4c-.807.009-1.646.264-2.148.83-1.26 1.421-.795 3.748-.762 5.646.09 5.176 1.441 10.267 2.607 15.311 2.457 10.622 6.04 20.953 9.229 31.379 3.287 10.749 5.859 21.775 10.207 32.14 1.077 2.568 1.974 5.379 3.908 7.383.957.992 2.213 1.917 3.584 2.063 1.059.112 2.383-.138 3.039-.977 1.654-2.115.84-5.367.543-8.04-.787-7.06-3.797-13.689-6.08-20.412-.847-2.495-1.897-4.918-2.822-7.385-2.91-7.763-6.067-15.443-8.578-23.344-2.906-9.145-4.322-18.74-7.492-27.797-.6-1.714-1.052-3.565-2.172-4.994-.59-.752-1.343-1.55-2.279-1.738-.247-.05-.514-.073-.783-.07m22.09 1.412c-.959-.006-1.948.346-2.385 1.057-.321.522.48 1.146.549 1.756.108.948.134 1.969-.219 2.855-.731 1.837-3.052 2.754-3.734 4.609-.518 1.409-1.158 3.428-.109 4.502.997 1.021 3.411-1.131 4.281 0 .785 1.02-.398 2.589-.988 3.732-.656 1.27-3.088 1.906-2.744 3.293.323 1.306 2.573.854 3.732 1.537.807.476 2.111.822 2.195 1.756.1 1.111-2.206 1.41-2.195 2.525.014 1.529 2.039 2.278 3.074 3.402 1.123 1.219 3.346 1.967 3.404 3.623.045 1.274-2.182 1.712-2.416 2.965-.304 1.627.426 3.494 1.537 4.721 1.1 1.214 2.952 2.51 4.5 1.975 2.274-.787 2.833-4.03 3.404-6.367.747-3.057 1.186-6.571-.109-9.439-.832-1.842-3.45-2.337-4.502-4.063-1.418-2.327-1.618-5.22-2.086-7.904-.36-2.063-.145-4.203-.549-6.258-.524-2.669-1.602-5.197-2.414-7.793-.218-.696-.039-1.705-.66-2.086-.427-.262-.991-.395-1.566-.398m63.965 2.121c-1.042.052-2.174.581-2.898 1.24-4.694 4.267-3.702 12.137-5.488 18.225-4.051 13.803-8.09 27.612-11.855 41.496-1.463 5.396-2.498 10.911-4.172 16.246-1.192 3.8-3.3 7.311-4.172 11.197-.756 3.368-2.197 7.13-.879 10.32.476 1.152 1.618 2.266 2.855 2.414 1.3.156 2.721-.713 3.512-1.756 2.567-3.385 4.464-15.858 5.49-19.98 2.052-8.245 1.717-3.501 4.172-11.635 3.265-10.818 6.607-26.95 9.879-37.766 1.729-5.717 4-11.288 5.27-17.12.484-2.236.947-4.518.877-6.805-.06-1.937.511-4.628-1.098-5.709-.31-.208-.669-.32-1.053-.355-.144-.013-.291-.015-.439-.008m-14.381 5.05c-.501.003-1.017.108-1.471.252-1.668.528-3.03 1.858-4.172 3.184-1.09 1.266-2.24 2.729-2.416 4.391-.202 1.9 1.186 3.637 1.648 5.49.271 1.086.209 2.268.658 3.293.4.912.849 2 1.756 2.414.736.334 1.659.065 2.416-.219.761-.285 1.554-.732 1.975-1.428 1.071-1.772.324-4.152.879-6.146.352-1.264 1.257-2.341 1.537-3.623.273-1.252.361-2.586.109-3.842-.245-1.22-.505-2.709-1.537-3.404-.395-.266-.881-.364-1.383-.361m-89.21 6.836c-.812.061-1.579.27-2.172.771-.645.546-.778 1.569-.77 2.414.019 1.932.515 4.109 1.867 5.49 1.199 1.224 3.301.982 4.83 1.756.942.476 2.08.858 2.635 1.756.465.753.876 1.938.33 2.635-.773.986-2.814-.413-3.732.439-.847.786-1.093 2.333-.66 3.404.787 1.949 3.851 1.978 5.16 3.621.665.834 1.57 1.962 1.207 2.965-.423 1.17-3.03.54-3.293 1.756-.253 1.173 1.175 2.224 2.195 2.855 1.459.903 3.421.452 5.05.986 1.307.428 3.751.383 3.732 1.758-.018 1.278-2.725.531-3.514 1.537-.664.848-.766 2.129-.549 3.184.352 1.71 1.462 3.336 2.854 4.391 1.466 1.112 3.468 1.272 5.269 1.646 1.01.21 2.181.845 3.074.33.937-.54 1.315-1.884 1.318-2.965 0-2.556-2.094-4.665-3.074-7.03-.92-2.215-1.874-4.423-2.635-6.697-1.518-4.538-2.444-9.255-3.842-13.832-.642-2.103-.826-4.456-2.086-6.258-1.581-2.263-4.081-3.787-6.476-5.158-1.327-.76-2.764-1.475-4.283-1.646-.771-.087-1.626-.174-2.438-.113m117.82 2.268c-.647.012-1.297.114-1.875.26-1.32.333-2.415 1.376-3.293 2.416-.844 1-1.732 2.203-1.758 3.512-.025 1.244 1.141 2.224 1.537 3.404.263.783 1.014 1.732.549 2.414-.688 1.01-2.757-.313-3.623.549-.84.836-.794 2.354-.549 3.514.126.596.755.974.988 1.537.33.796 1.078 1.846.549 2.525-.698.895-2.317-.224-3.402.109-.786.241-1.882.52-2.086 1.316-.28 1.095.83 2.183 1.646 2.965.827.792 2.536.526 3.074 1.537.398.749.273 1.926-.33 2.523-.655.648-1.884 0-2.744.33-.711.273-1.334.773-1.865 1.318-.368.378-.879.789-.879 1.316 0 .792.618 1.603 1.316 1.977 1.613.863 3.965 1.01 5.49 0 1.094-.724 1.135-2.375 1.537-3.623.61-1.893.879-3.878 1.316-5.818.478-2.122.506-4.397 1.428-6.367.84-1.797 2.583-3.03 3.623-4.721 1.193-1.937 2.6-3.901 2.963-6.146.318-1.967.635-4.514-.768-5.93-.699-.706-1.767-.938-2.846-.918m-38.758 6.402c-.415 0-.776.125-.99.445-.637.952.986 2.068 1.537 3.072.821 1.496 2.025 2.798 2.633 4.393.557 1.462 1.518 3.182.879 4.609-.174.389-.681.752-1.098.658-1.03-.232-.999-1.898-1.756-2.633-.991-.962-2.148-2.399-3.514-2.197-1.539.227-2.635 2.02-3.074 3.514-.711 2.413.078 5.166 1.098 7.465.653 1.473 1.649 2.979 3.074 3.732 1.429.756 3.492 1.348 4.83.439 2.778-1.886 2.073-6.395 2.855-9.66.468-1.954 1.63-3.99 1.098-5.928-.412-1.5-2.137-2.272-3.074-3.514-.893-1.183-1.14-2.978-2.416-3.732-.553-.327-1.391-.665-2.082-.664m-28.463 90.37c-.32-.024-.612.061-.852.313-1.245 1.31 1.361 3.351 1.977 5.05 1.182 3.264 1.083 7.202 3.293 9.879.855 1.036 2.172 1.913 3.514 1.977 1.44.068 3.485-.392 3.951-1.756.699-2.045-2.143-3.758-3.072-5.709-.818-1.718-1.058-3.745-2.197-5.27-.903-1.209-2.189-2.127-3.512-2.854-.913-.501-2.141-1.559-3.102-1.631m696.5 27.05c-2.383.165-4.17 2.414-6.451 3.123-3.425 1.064-7.172.691-10.635 1.623-1.745.47-3.34 1.383-5.04 1.982-2.671.939-5.658 1.11-8.111 2.523-1.768 1.019-3.22 2.56-4.506 4.145-1.408 1.736-1.569 4.52-3.424 5.768-1.01.678-2.607-.152-3.605.541-.508.352-1.058 1.023-.9 1.621.323 1.225 2 1.718 3.244 1.982 1.836.392 4.01.302 5.586-.721 1.356-.881 1.794-2.701 2.523-4.145.644-1.275.497-3.087 1.623-3.965 1.01-.784 3-1.546 3.785-.541.878 1.126-1.347 2.564-1.623 3.965-.22 1.12-.823 2.633 0 3.424 1.084 1.041 3.348.779 4.506-.18 1.234-1.023.447-3.214 1.082-4.686.258-.597.447-1.765 1.082-1.623 1.186.265-.658 3.395.539 3.605 1.615.284.705-4.395 2.344-4.326 1.049.044.831 1.928 1.262 2.885.353.784.24 2.169 1.082 2.342 1.583.325 2.738-1.879 3.604-3.244.336-.529.236-1.253.541-1.801.662-1.191 1.665-2.183 2.703-3.064.432-.367.914-1.111 1.441-.902 1.098.435-.169 2.929.902 3.426 1.268.588 2.746-.869 3.785-1.803.682-.613.947-1.571 1.441-2.344.701-1.094 1.748-2.01 2.162-3.244.633-1.883 1.481-4.307.361-5.947-.256-.376-.845-.451-1.299-.42m-681.84 5.32c-1.1-.006-1.638 1.523-2.174 2.484-.686 1.23-1.247 2.629-1.242 4.04.008 2.062 1.256 3.928 1.863 5.898 3.281 10.639 6.246 21.375 9.625 31.982 7.589 23.826 16.396 47.25 23.91 71.1 3.307 10.496 5.828 21.235 9.314 31.672 1.121 3.355 2.606 6.581 3.727 9.936.581 1.74 2.575 3.756 1.551 5.277-1.162 1.726-4.129.652-6.209.621-2.4-.036-4.758-.657-7.143-.932-2.067-.238-5.252-2.466-6.209-.619-.945 1.824 2.699 3.098 4.04 4.656 4.162 4.846 8.207 9.793 12.42 14.594 3.867 4.406 7.946 8.622 11.799 13.04 2.221 2.547 4.142 5.36 6.52 7.762.671.678 1.223 1.783 2.174 1.863 1.203.101 2.43-.863 3.105-1.863 3.695-5.472 2.633-12.975 3.105-19.561.518-7.227-.259-14.489-.311-21.734-.013-1.863 1.559-4.57 0-5.59-1.513-.989-3.383 1.307-4.969 2.174-1.965 1.074-4.02 2.127-5.59 3.727-.944.964-.825 3.5-2.172 3.414-1.941-.123-1.747-3.478-2.484-5.277-3.786-9.238-6.71-18.807-9.936-28.26-10.955-32.09-21.702-64.25-31.982-96.56-3.117-9.796-4.053-20.488-9-29.498-.919-1.673-1.818-4.338-3.727-4.348m684.8 14.06c-.85.013-1.702.09-2.541.191-8.868 1.078-17.307 4.439-26.02 6.42-23.17 5.268-46.725 8.774-69.775 14.529-9.164 2.288-18.01 5.782-27.2 7.941-9.636 2.263-19.58 3.03-29.23 5.236-5.701 1.306-11.154 3.615-16.895 4.73-2 .389-4.585-.71-6.082.676-.884.818-1.288 2.512-.676 3.549 1.386 2.346 5.05 2.346 7.771 2.535 6.733.469 13.305-2.286 19.936-3.549 15.862-3.02 31.67-6.322 47.47-9.631 16.974-3.554 33.925-7.217 50.854-10.98 10.602-2.357 21.1-5.224 31.764-7.266 5.429-1.039 11.04-1.119 16.387-2.533 2.447-.648 5.02-1.257 7.096-2.703 1.474-1.026 2.447-2.637 3.549-4.055.671-.863 2.182-1.659 1.857-2.703-.609-1.957-3.728-1.825-5.744-2.197-.831-.153-1.678-.204-2.527-.191m-691.82 1.568c-1.133.086-2.303.682-3.053 1.48-6.788 7.227-5.04 19.18-7.621 28.752-6.809 25.2-12.535 50.744-20.783 75.51-2.195 6.591-5.394 12.818-7.621 19.398-1.078 3.185-1.633 6.533-2.771 9.697-.683 1.897-.539 4.827-2.424 5.543-1.546.587-3.463-.794-4.504-2.078-1.64-2.024-.719-5.221-1.73-7.621-.908-2.154-2.255-4.144-3.811-5.889-1.692-1.898-4.01-3.14-5.889-4.85-.846-.768-1.409-2.947-2.426-2.424-1.873.964.61 4.171 1.039 6.234 1.454 6.991 3.645 13.812 5.195 20.783 2.094 9.417 4.615 18.802 5.543 28.404.278 2.873-.611 5.839 0 8.66.295 1.364.491 3.174 1.732 3.811 1.048.537 2.552.05 3.465-.693 3.892-3.168 3.184-9.628 5.889-13.855 3.613-5.646 8.641-10.285 13.508-14.895 1.728-1.637 4.01-2.68 5.543-4.504.764-.911 2.125-1.995 1.732-3.117-.701-2-3.859-1.801-5.889-2.424-2.706-.831-6.461.407-8.315-1.732-2.424-2.798-1.248-7.424-.691-11.08.779-5.131 3.85-9.643 5.541-14.549 5.986-17.368 10.961-35.07 16.281-52.652 4.359-14.407 8.651-28.835 12.816-43.3 1.659-5.761 6.161-11.47 4.85-17.32-.501-2.236-2.294-4.59-4.504-5.195-.352-.096-.726-.124-1.104-.096m690.91 13.248c-.268 0-.611.061-.748.291-.992 1.664 1.499 3.993.721 5.768-.415.946-1.501 1.95-2.523 1.801-1.356-.198-1.278-2.673-2.523-3.244-1.093-.501-2.775-.69-3.604.182-.993 1.045.984 3.271 0 4.324-.617.66-1.81.309-2.705.182-.696-.099-1.38-.359-1.982-.723-.764-.462-1.257-1.28-1.982-1.801-1.01-.721-2.109-2.295-3.244-1.803-1.136.493-.889 2.365-.9 3.604-.007.802.875 1.615.541 2.344-.538 1.173-2.201 1.396-3.426 1.803-1.097.364-2.512-.169-3.424.541-.722.562-1.397 1.664-1.082 2.523.462 1.261 2.262 1.78 3.605 1.801 1.72.027 3.073-1.564 4.686-2.162 2.05-.761 4.143-1.499 6.309-1.803 2.558-.358 5.278.749 7.75 0 1.451-.439 2.44-1.823 3.785-2.523 1.316-.686 2.833-.927 4.145-1.621 1.223-.647 2.882-1.071 3.424-2.344.43-1.01.016-2.299-.539-3.244-.779-1.327-2.269-2.121-3.605-2.883-.828-.472-1.722-1.016-2.676-1.012" fill="#fff"/></g></g></svg>