<?xml version="1.0" encoding="UTF-8" standalone="no"?>
<!-- Created with Inkscape (http://www.inkscape.org/) -->

<svg
   xmlns:dc="http://purl.org/dc/elements/1.1/"
   xmlns:cc="http://creativecommons.org/ns#"
   xmlns:rdf="http://www.w3.org/1999/02/22-rdf-syntax-ns#"
   xmlns:svg="http://www.w3.org/2000/svg"
   xmlns="http://www.w3.org/2000/svg"
   xmlns:sodipodi="http://sodipodi.sourceforge.net/DTD/sodipodi-0.dtd"
   xmlns:inkscape="http://www.inkscape.org/namespaces/inkscape"
   version="1.1"
   width="342.22971"
   height="474.2709"
   id="svg2"
   inkscape:version="0.48.1 "
   sodipodi:docname="1.svg">
  <sodipodi:namedview
     pagecolor="#ffffff"
     bordercolor="#666666"
     borderopacity="1"
     objecttolerance="10"
     gridtolerance="10"
     guidetolerance="10"
     inkscape:pageopacity="0"
     inkscape:pageshadow="2"
     inkscape:window-width="1366"
     inkscape:window-height="706"
     id="namedview62"
     showgrid="false"
     inkscape:zoom="0.87915674"
     inkscape:cx="256.89303"
     inkscape:cy="232.44782"
     inkscape:window-x="-8"
     inkscape:window-y="-8"
     inkscape:window-maximized="1"
     inkscape:current-layer="svg2" />
  <metadata
     id="metadata8">
    <rdf:RDF>
      <cc:Work
         rdf:about="">
        <dc:format>image/svg+xml</dc:format>
        <dc:type
           rdf:resource="http://purl.org/dc/dcmitype/StillImage" />
        <dc:title />
      </cc:Work>
    </rdf:RDF>
  </metadata>
  <defs
     id="defs6">
    <clipPath
       id="clipPath4257">
      <path
         d="m 0.029999,841.95 595.260001,0 0,-841.92 -595.260001,0 0,841.92 z"
         id="path4259" />
    </clipPath>
    <clipPath
       id="clipPath4251">
      <path
         d="m 0,841.89 595.276,0 L 595.276,0 0,0 0,841.89 z"
         id="path4253" />
    </clipPath>
  </defs>
  <path
     d="m 19.177998,115.65303 -0.03561,216.96063 c -0.0055,33.26568 16.252371,72.31897 46.129916,102.21796 21.421967,21.43734 64.381486,41.45788 102.106456,38.68044 42.83095,-0.30863 73.85914,-13.76046 97.83783,-35.08432 29.78607,-26.48826 50.91616,-62.41426 53.02733,-102.71517 l 1.4239,-218.01539 c -0.21307,-4.07659 7.75133,0.22601 8.61327,-8.5442 0.7115,-7.23947 -9.24777,-5.98024 -6.57897,-11.552307 l 4.09814,-17.72024 c 0.934,-3.2496 8.89666,3.78341 11.31189,-6.25783 2.85359,-9.213273 -6.54152,-10.389955 -4.60762,-13.713704 l 8.91036,-30.256788 c 0.86657,-1.772676 -0.21762,-3.108304 -1.29574,-3.665549 L 296.14268,12.741675 c -1.77724,-0.699152 -3.13567,-0.02884 -3.1025,0.493877 l -4.85009,18.071885 c -0.56092,0.636463 0.0802,2.474945 -2.00354,1.588604 L 272.1093,30.258929 c -2.79578,-0.748332 -1.37053,-1.112934 -1.77087,-1.643499 l 1.99202,-17.514966 c 0.26819,-2.5415044 -0.31162,-3.2174334 -1.26605,-3.0691664 -15.88668,-2.149983 -30.76827,-4.377281 -49.64142,-6.297535 -0.64547,-0.07082 -0.86367,0.926561 -1.02526,2.065465 l -2.22978,18.0822544 c -0.12303,0.593605 0.0986,1.531858 -0.93795,1.211949 l -13.30881,-0.384026 c -0.98768,-0.350301 -2.91266,0.611615 -2.81044,-1.26455 l -0.009,-17.5569094 c 0.19998,-3.42026699 0.2147,-3.38105399 -3.03679,-3.37816099 l -52.73141,0.04691 c -2.83423,-0.246348 -2.46103,0.240615 -2.41821,2.84824999 l 0.24189,14.7316414 c -0.41636,1.329338 1.04319,4.065603 -1.59128,3.731363 l -11.91919,1.007356 c -3.38891,-0.126694 -4.25443,-0.596828 -4.31216,-2.889188 L 123.38306,4.9170916 c -0.2264,-2.334354 -0.55779,-4.49373399 -2.62381,-3.762066 l -46.179039,4.535939 c -2.84163,0.833288 -3.05762,1.666575 -2.81108,2.499862 l 2.75572,18.9979284 c 0.68965,1.080116 0.49695,2.04994 -3.76371,2.511268 L 58.075844,31.830432 C 56.299062,32.164166 54.433823,32.71904 53.86777,30.025951 L 49.881601,14.332898 C 48.982108,12.620642 49.358687,10.033303 45.146504,11.499457 L 3.0395948,22.409916 c -3.83499003,1.234966 -2.26278903,3.242389 -1.990521,5.064106 l 8.54617,31.984488 c 0.5923352,3.266031 -7.589854,5.475904 -5.642268,11.169293 1.633911,9.28577 9.6034922,5.27904 12.1587892,10.27471 l 3.652425,13.29933 c 1.262843,3.54653 0.148303,4.12132 -1.035355,4.60972 -5.513186,2.416297 -8.027952,6.161367 -7.14745,9.892137 2.039389,8.64112 7.452401,4.4357 7.596613,6.94933 z"
     id="path2987"
     style="fill:#231f20;fill-opacity:1;stroke:#231f20;stroke-width:1px;stroke-linecap:butt;stroke-linejoin:miter;stroke-opacity:1" />
  <path
     d="m 27.961178,116.72324 134.483462,-0.90562 -0.4528,350.01926 C 85.048091,466.18251 21.620081,393.12251 27.686498,316.34242 z"
     id="path2989"
     style="fill:#ffdd00;fill-opacity:1;stroke:#231f20;stroke-width:1px;stroke-linecap:butt;stroke-linejoin:miter;stroke-opacity:1" />
  <path
     d="m 308.58915,117.40184 -137.6531,-1.81123 0.4528,350.01926 c 76.94375,0.34563 143.5414,-70.45034 137.47498,-147.23043 z"
     id="path2989-3"
     style="fill:#ed1c24;fill-opacity:1;stroke:#231f20;stroke-width:1px;stroke-linecap:butt;stroke-linejoin:miter;stroke-opacity:1" />
  <path
     d="M 13.148105,65.402941 C 7.2344898,69.043053 9.4871908,73.199653 15.190238,73.279743 55.979094,59.93445 113.15112,53.055891 168.35131,53.167721 c 49.99916,0.101293 104.94203,5.224632 156.6598,21.278952 5.91601,1.18727 11.98846,-3.13037 1.17127,-9.043732 C 280.57551,50.992922 222.19146,45.284179 168.63873,44.984569 117.51773,44.698563 60.784861,49.47798 13.148105,65.402941 z"
     id="path3009"
     style="fill:#a76535;fill-opacity:1;stroke:#231f20;stroke-width:1px;stroke-linecap:butt;stroke-linejoin:miter;stroke-opacity:1" />
  <path
     d="m 20.149706,103.91175 c -8.419533,3.98669 -1.593236,8.75201 3.209068,6.70987 51.539177,-13.674167 96.951956,-18.087657 148.491136,-17.792557 48.42734,0.27729 98.31493,5.61864 145.2844,18.376017 4.19283,1.18728 6.5492,-1.41591 6.73904,-2.42138 0.25685,-1.36035 -0.92536,-3.87537 -4.40517,-4.58022 C 273.76323,91.124133 222.02573,85.970903 172.14267,85.386683 118.17203,84.754583 67.799451,90.054383 20.149706,103.91175 z"
     id="path3011"
     style="fill:#a76535;fill-opacity:1;stroke:#231f20;stroke-width:1px;stroke-linecap:butt;stroke-linejoin:miter;stroke-opacity:1" />
  <path
     d="m 10.230771,26.310666 c -2.7206922,0.766143 -1.8786462,2.1256 -1.4586672,3.792534 l 2.6256002,10.078063 c 0.543004,1.693619 1.627558,2.845687 5.251201,1.458667 L 45.530512,34.479201 C 49.549047,33.283628 49.588958,31.72098 49.031313,30.1032 L 46.113979,19.892531 c -0.711147,-2.304838 -2.30783,-2.743692 -5.198158,-1.883006 z"
     id="path3013"
     style="fill:#a76535;fill-opacity:1;stroke:#231f20;stroke-width:1px;stroke-linecap:butt;stroke-linejoin:miter;stroke-opacity:1" />
  <path
     d="m 80.910131,9.9206416 c -2.81776,0.2221514 -2.5256,1.4501684 -2.43797,3.1669594 l 1.42247,10.934906 c 0.2031,1.766902 1.44673,3.646557 5.27098,2.991077 l 31.069359,-3.424243 c 4.17435,-0.390861 5.05613,-2.185174 4.8239,-3.880535 l -1.41354,-9.7752714 c -0.24911,-2.399155 -3.21101,-4.082809 -6.21355,-3.800925 z"
     id="path3013-1"
     style="fill:#a76535;fill-opacity:1;stroke:#231f20;stroke-width:1px;stroke-linecap:butt;stroke-linejoin:miter;stroke-opacity:1" />
  <path
     d="m 334.32494,28.821152 c 2.89463,0.788371 1.99876,2.18727 1.55193,3.902566 l -2.38242,9.274343 c -0.57773,1.742755 -1.73161,2.928248 -5.58692,1.500987 l -30.18001,-8.464587 c -4.27545,-1.230259 -4.31792,-2.838243 -3.72461,-4.502959 l 2.55579,-9.410798 c 0.75661,-2.371707 2.45537,-2.823293 5.53048,-1.937636 z"
     id="path3013-19"
     style="fill:#a76535;fill-opacity:1;stroke:#231f20;stroke-width:1.0463264px;stroke-linecap:butt;stroke-linejoin:miter;stroke-opacity:1" />
  <path
     d="m 266.01293,11.742056 c 2.80599,0.339938 2.18234,1.812427 2.02291,3.524044 l -1.04935,10.361467 c -0.27692,1.75685 -2.11454,3.465523 -5.908,2.650493 l -32.86954,-3.859647 c -4.15433,-0.565299 -5.10659,-2.237998 -4.80358,-3.922151 l 0.77871,-10.402588 c 0.34935,-2.3866214 1.85987,-3.6036824 4.84799,-3.1963294 z"
     id="path3013-8"
     style="fill:#a76535;fill-opacity:1;stroke:#231f20;stroke-width:1px;stroke-linecap:butt;stroke-linejoin:miter;stroke-opacity:1" />
  <path
     d="m 151.22347,4.8794866 c -3.79786,0.09291 -4.43694,1.048427 -4.01696,2.715361 l 0.3366,9.0008894 c 0.54301,1.693619 -2.0079,5.807915 5.78979,5.363423 l 39.92265,-0.02445 c 3.47995,-0.253046 3.78916,-1.681047 3.90474,-3.298827 l 0.0449,-10.0760244 c -0.0379,-2.170191 -0.69207,-3.282279 -3.85169,-3.36412 z"
     id="path3013-4"
     style="fill:#a76535;fill-opacity:1;stroke:#231f20;stroke-width:1px;stroke-linecap:butt;stroke-linejoin:miter;stroke-opacity:1" />
  <path
     d="m 38.57192,42.337303 c -2.402336,0.12943 -1.878248,2.124803 -1.458667,3.792534 l 0.694683,3.802583 c 0.543004,2.538395 1.989605,2.121593 5.975295,1.458667 15.885778,-2.944281 30.08616,-5.640011 50.76284,-8.116187 3.48443,-0.417284 3.1601,-2.033484 3.34238,-3.058496 l -0.74505,-4.779965 c -0.71115,-2.304839 -1.101,-2.864376 -3.38792,-2.727783 -19.88175,2.094129 -37.862029,5.614357 -55.183561,9.628647 z"
     id="path3013-41"
     style="fill:#a76535;fill-opacity:1;stroke:#231f20;stroke-width:1px;stroke-linecap:butt;stroke-linejoin:miter;stroke-opacity:1" />
  <path
     d="m 17.248603,48.106456 c -1.483253,0.596885 -3.264278,0.796741 -2.896375,3.861834 l 1.810234,5.310021 c 0.571906,0.735105 0.8787,1.659575 3.62047,0.844777 l 9.171855,-2.413647 c 1.813965,-0.764321 3.194407,-1.528642 2.775693,-2.292963 l -1.448187,-6.75821 C 29.873124,43.757292 27.613085,45.050942 25.455,45.572128 z"
     id="path3077"
     style="fill:#a76535;fill-opacity:1;stroke:#231f20;stroke-width:1px;stroke-linecap:butt;stroke-linejoin:miter;stroke-opacity:1" />
  <path
     d="m 270.82254,211.53173 c 1.62741,0.20491 1.15604,-5.97439 6.48676,-8.80545 5.95167,-3.16083 14.96217,-0.99564 18.60111,2.71023 5.30106,5.39859 7.16518,19.47229 -2.03815,26.57322 -23.19289,13.47491 -41.33195,-2.30218 -44.20347,-16.55995 -1.62155,-8.05136 -0.3783,-18.51348 1.31028,-25.56559 -0.79,-4.46986 -9.44284,-9.4435 -15.30197,-15.18063 -1.75019,-2.25006 -2.64506,-1.81653 -4.66838,-0.25789 -17.3279,23.62594 3.5643,44.44114 25.5249,70.15567 14.46163,16.93371 29.38659,35.99204 34.16529,59.3768 5.11239,34.84232 -10.23421,63.22412 -43.09407,101.84391 -3.59318,4.04286 -2.50143,3.94958 -6.24705,0.23391 l -37.11461,-43.59492 -4.2061,3.80126 c -2.85916,3.00787 -2.69752,2.87483 -5.44877,-1.06284 l -7.01469,-9.72014 c 14.41721,-10.06574 29.88863,-32.10727 29.73163,-46.36821 -21.31068,5.18006 -22.74206,-8.79022 -23.27662,-12.82438 -0.61778,-4.66209 4.92224,-17.0495 18.19847,-15.37003 25.04273,3.6714 23.51024,31.7772 19.1088,50.74399 l 24.05254,26.39098 c 10.73573,-9.11289 9.6375,-31.2296 3.1625,-45.87424 -18.30455,-41.39976 -82.35964,-73.93567 -59.52867,-124.36602 2.09728,-5.09318 4.76132,-8.48208 8.20187,-12.84052 l 30.52551,-38.66926 c 1.53849,-2.00975 3.07697,-2.69248 4.61546,-0.35153 l 29.55914,25.83982 5.24484,-5.87938 c 0.95902,-1.62568 7.62552,4.90218 12.62785,9.05266 0.93308,0.94023 -1.6674,2.82144 -2.41421,3.77078 -7.04249,8.95236 -16.35195,16.36884 -20.38473,24.67627 -3.07678,6.33808 -3.95839,20.05843 3.82454,18.12148 z"
     id="path3079"
     style="fill:#231f20;fill-opacity:1;stroke:#231f20;stroke-width:1px;stroke-linecap:butt;stroke-linejoin:miter;stroke-opacity:1" />
  <path
     d="m 272.94388,216.73522 c -0.26788,-16.30401 13.573,-13.16454 17.00636,-12.21379 4.70966,1.30418 14.11221,17.49029 -0.63275,27.18396 -13.80175,8.05143 -25.84464,1.19318 -32.95337,-6.71529 -4.83717,-5.38135 -6.3067,-15.68942 -1.19731,-35.6222 L 233.6472,168.0822 c -6.70983,6.96885 -10.50402,13.55205 -10.94932,21.06828 -1.70364,28.75549 35.33806,55.7505 56.79544,91.67576 7.63829,15.9485 10.05852,29.28797 9.17033,40.97323 -2.51764,33.12279 -26.063,60.95334 -43.38549,81.84933 -1.4673,2.19473 -1.76344,1.10704 -3.29369,-0.73106 l -36.87414,-44.66769 -7.71899,6.78335 -5.61382,-9.35635 c 10.22608,-8.46913 18.61251,-20.98147 22.87271,-29.01072 4.66762,-8.79712 5.78601,-15.86291 4.96244,-21.9814 -17.19088,9.659 -21.59427,-2.5906 -22.39809,-5.96838 -0.60353,-2.53614 -0.74126,-17.95636 15.38083,-13.67996 7.43089,1.37445 13.42025,4.8311 16.2044,12.9175 2.48686,7.22297 2.41645,18.13979 -1.46815,34.56599 l 21.60084,24.53245 c 1.51251,2.20363 2.94841,4.02423 4.26411,5.24383 2.20107,2.24864 2.97796,0.95317 4.38852,-1.01553 9.87121,-13.80649 9.82324,-26.17428 6.68471,-38.69671 -10.4352,-43.79841 -64.68258,-68.43863 -66.7902,-112.1769 -0.28015,-12.49411 4.42278,-25.24376 16.0514,-38.34857 l 24.31157,-32.05685 c 2.03563,-3.03894 1.98315,-2.91677 4.57774,-0.62084 l 30.05571,26.59606 6.08163,-7.25117 6.12881,5.13495 c 2.66211,1.84965 2.48593,2.17641 0.68798,4.19923 -11.17764,12.57219 -18.96875,19.67747 -22.18088,28.92962 -3.3393,9.61847 0.1158,18.86868 9.75028,19.74557 z"
     id="path3081"
     style="fill:#ffffff;stroke:#231f20;stroke-width:1px;stroke-linecap:butt;stroke-linejoin:miter;stroke-opacity:1" />
  <path
     d="m 306.37624,43.361704 c 2.40234,0.12943 1.87825,2.124803 1.45867,3.792534 l -1.06572,4.730178 c -0.54301,2.538395 -1.98961,2.121593 -5.9753,1.458667 -15.88578,-2.944281 -29.71512,-6.567606 -50.3918,-9.043782 -3.48443,-0.417284 -3.1601,-2.033484 -3.34238,-3.058496 l 0.74505,-4.779965 c 0.71115,-2.304839 1.101,-2.864376 3.38792,-2.727783 19.88175,2.094129 37.86203,5.614357 55.18356,9.628647 z"
     id="path3013-41-1"
     style="fill:#a76535;fill-opacity:1;stroke:#231f20;stroke-width:1px;stroke-linecap:butt;stroke-linejoin:miter;stroke-opacity:1" />
  <path
     d="m 327.69956,49.130857 c 1.48325,0.596885 3.26428,0.796741 2.89637,3.861834 l -1.81023,5.310021 c -0.57191,0.735105 -0.8787,1.659575 -3.62047,0.844777 l -9.17185,-2.413647 c -1.81397,-0.764321 -3.19441,-1.528642 -2.7757,-2.292963 l 1.44819,-6.75821 c 0.40917,-2.900976 2.66921,-1.607326 4.82729,-1.08614 z"
     id="path3077-4"
     style="fill:#a76535;fill-opacity:1;stroke:#231f20;stroke-width:1px;stroke-linecap:butt;stroke-linejoin:miter;stroke-opacity:1" />
  <path
     d="m 106.76735,34.333448 0.16251,4.157304 c 0.18701,3.769899 2.12014,2.523793 6.1592,2.418031 16.14024,-0.720689 30.1341,-1.870934 50.95458,-1.46593 3.50866,0.06825 3.4108,-1.577262 3.73298,-2.567249 l -0.0773,-4.837063 c -0.38581,-2.381002 -0.6946,-2.989046 -2.97845,-3.169805 -19.98038,-0.67353 -38.12702,-0.409881 -55.83711,1.172137 -2.25776,0.294687 -2.37381,1.885596 -2.11641,4.292575 z"
     id="path3013-41-4"
     style="fill:#a76535;fill-opacity:1;stroke:#231f20;stroke-width:1px;stroke-linecap:butt;stroke-linejoin:miter;stroke-opacity:1" />
  <path
     d="m 239.25359,35.773406 -0.28096,4.151297 c -0.29633,3.763344 -2.28886,2.463735 -6.51852,2.245299 -16.89398,-1.170833 -31.52735,-2.711174 -53.35566,-2.887317 -3.67849,-0.02969 -3.53215,-1.671884 -3.8434,-2.670511 l 0.20974,-4.833192 c 0.46767,-2.369392 0.80743,-2.968604 3.20546,-3.085567 20.95513,-0.115731 39.96375,0.654213 58.47982,2.729877 2.35803,0.357587 2.43729,1.95117 2.10349,4.350114 z"
     id="path3013-41-4-9"
     style="fill:#a76535;fill-opacity:1;stroke:#231f20;stroke-width:1.02384531px;stroke-linecap:butt;stroke-linejoin:miter;stroke-opacity:1" />
  <path
     d="m 24.347135,75.702743 c 13.529263,-3.48798 27.283922,-6.953801 43.037065,-9.206289 0.851838,0.02614 2.159001,0.262141 2.014511,4.176119 -0.13328,0.99328 1.0106,3.49207 -0.696324,3.88446 -15.038669,3.09709 -29.697404,6.38326 -43.500859,9.97444 -1.370819,0.46685 -2.267989,-0.81963 -2.701758,-4.03587 -0.160037,-1.18662 -0.331473,-2.31758 -0.29987,-2.98717 0.04066,-0.86154 0.615338,-1.5177 2.147235,-1.80569 z"
     id="path3140"
     style="fill:#a76535;fill-opacity:1;stroke:#231f20;stroke-width:1px;stroke-linecap:butt;stroke-linejoin:miter;stroke-opacity:1" />
  <path
     d="m 79.915621,64.381583 c 13.52926,-3.48798 29.324629,-3.985496 50.086779,-4.939353 0.85184,0.0261 2.159,0.26215 2.01451,4.17612 -0.13328,0.99328 1.0106,4.234147 -2.55151,4.441018 -17.07938,0.870862 -33.407789,2.301841 -48.695389,5.150945 -1.37082,0.46685 -2.26799,-0.81963 -2.70176,-4.03587 -0.16004,-1.18662 -0.33147,-2.31758 -0.29987,-2.98717 0.0407,-0.86154 0.61534,-1.5177 2.14724,-1.80569 z"
     id="path3140-0"
     style="fill:#a76535;fill-opacity:1;stroke:#231f20;stroke-width:1px;stroke-linecap:butt;stroke-linejoin:miter;stroke-opacity:1" />
  <path
     d="m 144.03704,59.011018 c 18.52513,-1.43485 35.80797,-0.314902 53.80829,0.438909 0.84909,0.07323 2.14118,0.381297 1.78018,4.281261 -0.18807,0.984376 0.7746,4.28361 -2.7935,4.292922 -18.40003,-0.818276 -33.66952,-1.221229 -52.43076,-0.150594 -1.39457,0.390228 -2.21913,-0.943956 -2.47414,-4.179281 -0.0941,-1.193665 -0.20263,-2.332382 -0.13401,-2.999195 0.0883,-0.857965 0.69844,-1.481299 2.24394,-1.684022 z"
     id="path3140-0-4"
     style="fill:#a76535;fill-opacity:1;stroke:#231f20;stroke-width:1px;stroke-linecap:butt;stroke-linejoin:miter;stroke-opacity:1" />
  <path
     d="m 211.58821,60.02942 c 18.58034,-0.101659 34.43961,2.626774 52.33942,4.670467 2.69683,0.133978 3.59244,1.276056 2.95248,5.140056 0.29833,4.57511 -3.24519,2.844 -5.50612,2.96826 -18.29386,-2.13668 -31.26884,-3.634434 -50.05854,-3.913004 -1.41898,0.28914 -2.14566,-1.10077 -2.16783,-4.346061 -0.008,-1.19734 -0.0347,-2.340909 0.0816,-3.001078 0.14965,-0.849416 0.80295,-1.427355 2.35901,-1.51864 z"
     id="path3140-0-4-3"
     style="fill:#a76535;fill-opacity:1;stroke:#231f20;stroke-width:1px;stroke-linecap:butt;stroke-linejoin:miter;stroke-opacity:1" />
  <path
     d="m 278.55094,67.387878 c 4.66642,1.196973 23.67951,5.224035 40.09517,9.308445 2.69683,0.13397 3.59244,1.27605 2.95248,5.14005 -1.37134,6.05926 -8.81076,2.844 -12.37032,1.66963 -12.72829,-3.06428 -22.36393,-5.86066 -30.95009,-7.25234 -2.71761,-0.26742 -2.88773,-2.39941 -2.16783,-4.34606 0.25838,-2.347783 0.17254,-4.899641 3.73924,-4.148687 z"
     id="path3140-0-4-3-0"
     style="fill:#a76535;fill-opacity:1;stroke:#231f20;stroke-width:1px;stroke-linecap:butt;stroke-linejoin:miter;stroke-opacity:1" />
  <path
     d="m 179.29829,72.396893 c 18.58034,-0.10166 32.21338,0.58607 50.11319,2.62976 2.69683,0.13398 3.59244,1.27606 2.95248,5.14006 0.29833,4.57511 -3.24519,2.844 -5.50612,2.96826 -18.29386,-2.13668 -29.04261,-2.70684 -47.83231,-2.98541 -1.41898,0.28914 -2.14566,0.0123 -2.16783,-3.23296 -0.008,-1.19734 -0.0347,-2.3409 0.0816,-3.00107 0.14965,-0.84942 0.80295,-1.42736 2.35901,-1.51864 z"
     id="path3140-0-4-3-8"
     style="fill:#a76535;fill-opacity:1;stroke:#231f20;stroke-width:1px;stroke-linecap:butt;stroke-linejoin:miter;stroke-opacity:1" />
  <path
     d="m 243.3513,76.876323 c 18.5121,1.59415 31.09793,4.26505 48.73659,7.9335 2.67335,0.3795 4.01757,1.78405 3.39874,4.64595 -0.12037,4.58324 -3.49115,2.53602 -5.75399,2.45346 -18.02258,-3.79701 -28.67447,-5.34558 -47.36037,-7.33747 -1.43944,0.15846 -2.13783,-0.18354 -1.86379,-3.41728 0.10129,-1.19308 0.17905,-2.3343 0.3551,-2.98111 0.22653,-0.83222 0.92984,-1.34814 2.48774,-1.29705 z"
     id="path3140-0-4-3-8-1"
     style="fill:#a76535;fill-opacity:1;stroke:#231f20;stroke-width:1px;stroke-linecap:butt;stroke-linejoin:miter;stroke-opacity:1" />
  <path
     d="m 114.73768,74.162773 c 14.49892,-1.02925 29.4306,-1.26912 49.37111,-1.26614 2.69683,0.13398 3.59244,1.27606 2.95248,5.14006 0.29833,4.57511 -3.24519,2.844 -5.50612,2.96826 -12.54277,-0.83805 -33.68058,1.00354 -47.09023,0.91049 -1.41898,0.28914 -2.14566,0.0123 -2.16783,-3.23296 -0.008,-1.19734 -0.0347,-2.3409 0.0816,-3.00107 0.14965,-0.84942 0.80295,-1.42736 2.35901,-1.51864 z"
     id="path3140-0-4-3-8-3"
     style="fill:#a76535;fill-opacity:1;stroke:#231f20;stroke-width:1px;stroke-linecap:butt;stroke-linejoin:miter;stroke-opacity:1" />
  <path
     d="m 49.602718,82.969383 c 18.224508,-3.62031 31.740903,-5.52815 49.703693,-6.91304 2.673359,-0.37942 3.769149,0.57227 3.872909,4.48754 1.15979,4.43571 -2.64754,3.40736 -4.843969,3.95776 -18.36733,1.36823 -29.02941,2.84502 -47.531522,6.13165 -1.338492,0.55277 -2.104462,0.41863 -2.741123,-2.76364 -0.234721,-1.17414 -0.477612,-2.29193 -0.488504,-2.96217 -0.01396,-0.8624 0.517958,-1.55365 2.028536,-1.93811 z"
     id="path3140-0-4-3-8-8"
     style="fill:#a76535;fill-opacity:1;stroke:#231f20;stroke-width:1px;stroke-linecap:butt;stroke-linejoin:miter;stroke-opacity:1" />
  <path
     d="m 305.81334,88.542203 10.94562,2.22623 c 0.77294,0.22694 0.93054,0.89341 0.76876,1.788 -0.29135,1.61113 -0.50548,5.63185 -2.25291,5.81828 L 302.474,95.220893 c -1.79128,-1.75259 -0.22715,-4.85578 0.2646,-6.24598 0.32527,-0.91957 1.73514,-1.25198 3.07474,-0.43271 z"
     id="path3286"
     style="fill:#a76535;fill-opacity:1;stroke:#231f20;stroke-width:1px;stroke-linecap:butt;stroke-linejoin:miter;stroke-opacity:1" />
  <path
     d="m 36.910409,86.863593 -10.94562,2.22623 c -0.77294,0.22694 -0.93054,0.89341 -0.76876,1.788 0.29135,1.61113 0.50548,5.63185 2.25291,5.81828 l 12.80081,-3.15382 c 1.79128,-1.75259 0.22715,-4.85578 -0.2646,-6.24598 -0.32527,-0.91957 -1.73514,-1.25198 -3.07474,-0.43271 z"
     id="path3286-1"
     style="fill:#a76535;fill-opacity:1;stroke:#231f20;stroke-width:1px;stroke-linecap:butt;stroke-linejoin:miter;stroke-opacity:1" />
  <path
     d="m 153.0634,410.39076 c -2.66242,-7.03602 -5.44928,-14.1487 -6.75441,-29.12106 -2.93886,-33.71462 -1.59122,-87.92166 0.58415,-120.69869 4.55964,-68.70166 -13.18468,-54.98033 -0.43907,-80.87031 5.14792,-22.47135 -0.99879,-20.70852 -3.58377,-27.38628 -0.76213,-9.69771 -3.50758,-20.26375 -19.50421,-25.48834 0,0 4.07757,16.75856 1.9761,16.24421 -7.25432,-1.77553 -13.98324,10.46284 -22.96518,5.67152 -3.920219,-1.21263 -5.576939,-9.17044 -9.273329,-9.32142 -3.65797,-0.14941 -6.11242,3.55585 -9.09211,5.64833 -8.91567,0.80108 -16.190318,-0.97774 -22.666357,1.06326 -6.039103,1.9033 -11.014793,5.46818 -14.578098,11.23991 6.375918,-1.39284 11.502695,-0.67511 16.081093,-0.52251 6.354472,0.21179 7.777802,5.70459 11.718272,4.48587 -0.1138,3.11715 0.13779,5.5818 0.66802,7.5489 2.16822,8.04402 14.2988,1.61635 14.54906,9.76709 l -0.88355,5.46226 c -12.15007,4.24152 -13.26971,-12.86064 -19.904565,-10.1848 -2.196891,0.78555 -3.755636,3.18071 -5.928114,4.45835 -1.922895,1.13085 -4.464427,1.15652 -6.337385,1.77808 -12.225687,4.05726 -19.170924,10.07547 -20.982098,22.42259 4.481831,-1.91621 6.456673,-3.51905 15.010777,-5.9443 7.611532,-1.71354 4.843943,0.0645 6.873398,2.65863 6.483896,13.4496 24.958397,-2.99096 22.271037,14.02583 -4.53391,1.44992 -5.93644,-2.73498 -15.981237,-2.68482 -3.232988,0.0161 -5.52223,0.63566 -5.647184,5.3554 0.243858,1.72493 -0.575913,1.40512 -1.955963,1.56821 -1.76453,0.39931 -2.775291,1.61358 -4.142539,2.26447 -12.093858,5.75743 -14.135858,14.86542 -13.291091,24.9357 4.498581,-4.55506 8.613984,-11.2176 14.167628,-9.96981 3.29762,-1.20415 4.405865,3.32999 6.922101,4.30081 10.677975,4.11977 23.791575,1.36975 22.462605,10.39154 1.32524,23.77168 -10.33363,23.07891 -18.36544,33.0578 4.875762,0.70737 13.3562,-1.469 13.19611,3.26706 -10.763505,7.30887 -12.495013,12.53343 -16.344471,18.24675 2.709871,-1.64822 10.713941,-1.99567 9.085381,1.60278 -2.092196,4.56187 -9.873362,13.59901 -14.857378,20.43575 4.473356,0.11123 13.839475,-2.60084 12.299542,0.98029 -5.112578,9.18278 -14.634112,11.54545 -22.269354,23.68188 7.652199,-2.35116 22.998119,-5.92916 19.548524,-0.73993 2.07358,6.51498 -10.856615,17.95337 -15.350709,21.20428 9.442146,3.35824 21.900445,-6.38253 18.998002,1.36253 -4.34148,6.57658 -6.84557,10.09084 -9.552916,13.94386 7.823198,1.66153 10.19857,-3.83426 13.115139,-1.40082 0.17095,7.88322 0.80059,14.61972 2.10194,19.67695 2.87875,-2.6901 5.75751,-10.58441 8.63626,-7.95862 2.71834,9.66928 5.43667,17.98173 8.15501,23.70043 2.58689,-5.93605 3.32272,-22.97847 7.93875,-16.73974 3.018849,12.89685 5.310209,14.88141 7.803049,19.8881 1.24778,-5.34378 1.28693,-16.1264 3.74334,-16.0313 3.91291,4.64256 3.00921,11.49782 11.48491,23.38865 -0.46537,-7.02369 -1.2506,-14.52717 0.45688,-18.29159 4.41007,-0.90261 5.06531,9.81626 15.27377,19.32988 l -0.10039,-15.38964 c 3.88146,-2.76025 5.85381,8.64836 11.64438,13.29073 -1.30937,-8.62126 -3.55268,-17.71049 -2.97119,-21.45712 0.51184,-3.29794 2.55497,-3.27809 6.95688,1.85242 z"
     id="path3306"
     style="fill:#231f20;fill-opacity:1;stroke:#231f20;stroke-width:1px;stroke-linecap:butt;stroke-linejoin:miter;stroke-opacity:1" />
  <path
     d="m 129.0376,311.2397 c 1.06812,0.59905 3.17455,-0.70547 1.06062,5.72734 -1.11326,3.97008 -11.26364,1.49434 -11.45468,4.66672 -1.88503,1.60564 -3.01754,0.2012 -3.97219,-1.91465 -0.80839,-1.79168 -3.18625,-3.03286 -2.39152,-5.50968 3.36927,-1.83041 7.87605,-5.21198 5.3031,1.06062 1.25753,4.07143 3.06944,1.4904 4.87884,-1.06062 -0.74151,-3.61307 0.78526,-9.87247 -2.96973,-9.96981 -4.3217,0.097 -6.96095,-1.18263 -5.09097,-6.15159 2.93175,-4.2773 -4.59738,-2.09268 -5.51522,-5.09097 -3.30671,-4.55238 5.95824,-3.24318 5.72735,-5.09097 -0.32662,-1.41616 -1.05316,-2.29541 -4.03035,-2.12123 -4.12232,0.18578 -9.34086,7.5582 -11.878929,1.48486 -2.7341,-4.35086 -0.8361,-10.55457 -1.06062,-15.90927 1.16555,-9.66201 5.237049,-7.28724 7.424329,-13.36379 0.78437,-10.28967 -1.24572,-9.79059 -3.81823,-7.21221 -2.416109,5.14418 -6.341239,5.1173 -6.575829,7.63646 -2.6869,1.97982 -4.24248,1.41416 -4.66672,-1.69699 0.17108,-9.632 8.78698,-4.64237 16.121399,-14.84866 3.11763,-5.50248 1.19947,-11.23536 0.54302,-18.00087 -0.34656,-3.57167 1.1434,-7.43114 0.94184,-11.69644 l -1.90911,-2.12124 c -1.31605,-0.88311 -3.20422,-1.28946 -1.27274,-4.87885 2.21868,-4.57598 2.77449,-7.94277 2.50756,-12.30084 -0.27347,-4.46473 -2.8953,-5.72737 -2.50756,-18.88133 -0.90298,-1.37807 -2.93119,-0.9247 -3.47539,-2.44007 -0.77521,-2.15862 -0.69131,-5.29907 -1.403459,-7.52975 -1.25029,-2.36466 -1.28291,-3.40097 -0.69083,-3.75577 0.86074,-0.51579 3.041709,-0.65195 4.721179,0.78604 -0.75951,1.90593 1.36476,2.05849 1.29803,5.12169 -0.0289,1.32857 0.28744,2.93389 2.5202,3.15114 7.28847,-2.33891 4.11528,2.00923 8.48495,6.36371 0.64169,1.16961 1.70187,1.64172 4.03035,0 10.25842,-8.37746 5.89501,-13.96218 10.8183,-13.15167 4.13422,0.7654 11.92741,-1.39638 11.03043,3.39398 -0.15357,2.1644 -1.33176,3.9861 -3.07027,5.62038 -2.72225,2.55907 -5.33348,5.93136 -10.50564,6.89491 -0.59397,-4.38369 -1.83629,-2.28379 -2.96973,-1.27274 l -7.00008,5.51522 c -1.15034,0.91058 -1.97858,1.76749 0.21212,2.12123 2.04574,-1.01053 4.8624,-3.25453 4.24247,0 l -5.09096,10.39406 c 0,0 2.95677,-2.01679 3.93958,-2.51309 4.36582,-2.20466 2.35369,2.18123 -4.15171,11.21016 0.0348,1.20225 8.62553,-7.49503 9.83505,-5.03606 -0.10282,0.71051 -4.88585,7.03727 -7.50169,10.7634 0.40395,1.43007 7.17162,-8.27779 10.75742,-5.92794 -0.76426,2.53056 -4.1576,6.12717 -6.61896,9.15776 -1.53747,1.89303 -4.19616,4.20158 -2.65359,4.61876 4.2725,-3.18161 8.20864,-5.93511 6.37688,-1.34767 -4.24086,4.82311 -6.98987,7.15979 -9.55874,9.19624 1.30552,-0.68405 1.00374,0.62627 2.07082,0.10827 6.08798,-2.95533 9.88451,-5.18983 9.6095,-3.71379 -0.3672,1.97085 -7.04303,7.78976 -12.10456,13.57534 -1.8016,4.64723 9.61552,-7.05435 11.37703,-4.36575 l -6.71031,9.45671 c -0.90585,1.2686 4.14014,-3.43632 6.18722,-1.15055 l -7.45996,8.15063 c -1.26163,1.36194 8.39975,-4.7402 10.20685,-3.23033 1.32333,1.10567 -6.89891,7.77227 -7.23712,8.53343 -0.53477,1.13989 4.30796,-1.95394 6.48658,-2.78068 1.79458,-0.68102 3.6526,-0.9752 5.70328,-0.0946 -0.47729,2.09113 -4.8853,6.42839 -9.22013,10.72383 0.43296,2.63912 7.86601,-6.26899 9.57172,-0.99088 -2.37199,2.71804 -6.17598,4.4816 -7.66261,6.08185 4.85975,2.52356 2.98225,4.04453 -0.45257,5.25998 -3.97568,1.40684 -10.03775,0.071 -10.15361,4.07346 0.82443,3.40053 4.05048,-1.36185 5.39995,-1.0285 1.78797,0.44167 2.40328,3.27927 3.9673,2.30916 3.18226,-1.97386 6.28633,-3.22755 8.0228,-1.1864 -0.44667,0.84873 -2.63463,1.50304 -4.76717,3.02612 -1.05474,0.7533 -0.81406,1.87935 -2.86519,3.03121 -0.3111,1.58088 4.06783,1.59139 4.25962,2.9688 0.1631,1.17136 -2.98225,2.50551 -3.83538,4.87977 -0.63473,1.82458 3.40448,1.72587 3.38656,2.99355 -0.0167,1.18197 -1.16316,2.62977 -3.8108,4.43078 -1.49436,3.34648 3.66234,2.62161 2.70685,7.41574 -1.11933,2.29912 -6.90707,4.6228 -5.04021,6.3723 1.21413,0.16876 0.70379,2.79924 3.39397,1.06062 z"
     id="path3308"
     style="fill:#ffffff;stroke:#231f20;stroke-width:1px;stroke-linecap:butt;stroke-linejoin:miter;stroke-opacity:1" />
  <path
     d="m 83.006771,153.41969 c 0.71704,-0.67494 1.39146,-2.11691 2.07367,-3.4189 1.28896,-2.45999 2.60568,-4.42024 4.29004,0.23705 2.56395,2.46747 4.20672,4.17396 5.20918,5.35149 3.55738,4.17868 -0.73658,3.60534 -2.6637,2.92133 -3.69513,-4.27843 -10.79742,0.72556 -8.90919,-5.09097 z"
     id="path3310"
     style="fill:#ffffff;stroke:#231f20;stroke-width:1px;stroke-linecap:butt;stroke-linejoin:miter;stroke-opacity:1" />
  <path
     d="m 61.721314,219.19726 0.497336,1.88988 c 3.836377,2.69044 8.361011,0.0253 13.088201,1.11685 8.59019,1.98358 17.14877,5.16496 18.94247,3.12562 0.99848,-0.30389 1.23574,-1.83704 2.07017,-1.3355 1.01316,0.60897 1.50046,-2.06509 0.69569,-3.1252 -1.17288,-1.54502 -3.93892,0.3162 -7.85682,-1.903 -0.99395,-0.563 -18.87901,-3.60611 -18.87901,-3.60611 -2.647232,-0.27217 -4.261361,-0.2344 -5.348266,-0.0385 -2.792747,0.89418 -3.942383,1.09201 -3.209771,3.87593 z"
     id="path3312"
     style="fill:#ffffff;stroke:#231f20;stroke-width:1px;stroke-linecap:butt;stroke-linejoin:miter;stroke-opacity:1" />
  <path
     d="m 91.703841,193.51106 c 0.45162,2.03029 0.79385,3.96486 -3.18186,2.12124 -1.11903,-0.41356 -2.33569,-3.80681 -4.0591,-4.36596 -2.31194,-0.7501 -5.19659,1.22546 -6.74475,-0.31617 -2.85297,-2.84094 -2.92427,-7.29772 -5.58177,-6.03357 -1.07452,0.51114 -2.12102,1.61079 -3.129753,3.5035 -2.802402,3.22313 -3.44113,1.03708 -4.03035,-1.27275 0.320032,-4.13859 2.212681,-7.31537 4.124573,-8.85311 1.22302,-0.98368 2.88792,-0.86265 5.42099,1.42878 3.95342,7.93961 10.29031,7.31619 14.01369,9.33548 1.31004,0.71048 2.0702,2.52941 3.16833,4.45256 z"
     id="path3314"
     style="fill:#ffffff;stroke:#231f20;stroke-width:1px;stroke-linecap:butt;stroke-linejoin:miter;stroke-opacity:1" />
  <path
     d="m 96.794811,196.69292 -0.8485,4.03035 c -0.5975,-2.59507 1.79097,1.6952 5.939469,0.42425 -1.81049,-2.13924 -1.988499,-6.24919 -5.090969,-4.4546 z"
     id="path3316"
     style="fill:#ffffff;stroke:#231f20;stroke-width:1px;stroke-linecap:butt;stroke-linejoin:miter;stroke-opacity:1" />
  <path
     d="m 54.582198,230.20846 c 1.233777,-2.13044 3.201338,-11.57961 -1.484865,-9.12132 -8.363563,2.94357 -12.846224,11.48239 -12.72742,19.51538 8.695038,-9.55618 13.639424,-6.45488 14.212285,-10.39406 z"
     id="path3318"
     style="fill:#ed1c24;fill-opacity:1;stroke:#231f20;stroke-width:1px;stroke-linecap:butt;stroke-linejoin:miter;stroke-opacity:1" />
  <path
     d="m 56.887064,193.00524 c 1.611161,-1.86149 2.769141,-11.19879 -2.294721,-9.66224 -8.767014,1.3241 -14.770423,8.8716 -16.159094,16.78454 10.331811,-7.75744 17.152907,-3.36026 18.453815,-7.1223 z"
     id="path3318-7"
     style="fill:#ed1c24;fill-opacity:1;stroke:#231f20;stroke-width:1px;stroke-linecap:butt;stroke-linejoin:miter;stroke-opacity:1" />
  <path
     d="m 73.212221,156.51579 c 2.37374,-0.65296 8.4951,-6.85586 3.43079,-8.39096 -8.025609,-3.76873 -21.028284,1.71811 -26.578384,7.52668 14.597291,-1.77227 19.976154,3.26995 23.147594,0.86428 z"
     id="path3318-75"
     style="fill:#ed1c24;fill-opacity:1;stroke:#231f20;stroke-width:1px;stroke-linecap:butt;stroke-linejoin:miter;stroke-opacity:1" />
  <path
     d="m 129.35649,150.91516 c 1.43329,2.00166 11.56702,3.44357 11.25678,-1.83917 0.76198,-8.83364 -6.87004,-16.43503 -14.23912,-19.63498 5.12733,11.85895 -0.37137,19.32986 2.98234,21.47415 z"
     id="path3318-3"
     style="fill:#ed1c24;fill-opacity:1;stroke:#231f20;stroke-width:1px;stroke-linecap:butt;stroke-linejoin:miter;stroke-opacity:1" />
  <rect
     width="3.9878662"
     height="5.1515284"
     x="111.02141"
     y="102.23738"
     id="rect4133"
     style="fill:#ed1c24;fill-opacity:1;stroke:#ed1c24;stroke-width:1.42886198;stroke-linecap:round;stroke-linejoin:round;stroke-miterlimit:4;stroke-opacity:1;stroke-dasharray:none" />
  <rect
     width="3.9268267"
     height="5.639843"
     x="119.91777"
     y="101.74905"
     id="rect4133-6"
     style="fill:#ed1c24;fill-opacity:1;stroke:#ed1c24;stroke-width:1.42886198;stroke-linecap:round;stroke-linejoin:round;stroke-miterlimit:4;stroke-opacity:1;stroke-dasharray:none" />
  <rect
     width="3.8657873"
     height="5.8229609"
     x="128.53778"
     y="101.56593"
     id="rect4133-8"
     style="fill:#ed1c24;fill-opacity:1;stroke:#ed1c24;stroke-width:1.42886198;stroke-linecap:round;stroke-linejoin:round;stroke-miterlimit:4;stroke-opacity:1;stroke-dasharray:none" />
  <rect
     width="3.8047481"
     height="5.8229609"
     x="136.63403"
     y="101.56593"
     id="rect4133-68"
     style="fill:#ed1c24;fill-opacity:1;stroke:#ed1c24;stroke-width:1.42886198;stroke-linecap:round;stroke-linejoin:round;stroke-miterlimit:4;stroke-opacity:1;stroke-dasharray:none" />
  <rect
     width="3.7437088"
     height="5.8229609"
     x="145.58482"
     y="101.56593"
     id="rect4133-1"
     style="fill:#ed1c24;fill-opacity:1;stroke:#ed1c24;stroke-width:1.42886198;stroke-linecap:round;stroke-linejoin:round;stroke-miterlimit:4;stroke-opacity:1;stroke-dasharray:none" />
  <rect
     width="3.7482073"
     height="7.5767446"
     x="153.78336"
     y="99.812149"
     id="rect4133-9"
     style="fill:#ed1c24;fill-opacity:1;stroke:#ed1c24;stroke-width:1.62989509;stroke-linecap:round;stroke-linejoin:round;stroke-miterlimit:4;stroke-opacity:1;stroke-dasharray:none" />
  <rect
     width="4.1332908"
     height="8.0964203"
     x="161.87956"
     y="99.29248"
     id="rect4133-80"
     style="fill:#ed1c24;fill-opacity:1;stroke:#ed1c24;stroke-width:1.68486404;stroke-linecap:round;stroke-linejoin:round;stroke-miterlimit:4;stroke-opacity:1;stroke-dasharray:none" />
  <rect
     width="4.1679239"
     height="8.4043608"
     x="170.23567"
     y="98.984543"
     id="rect4133-2"
     style="fill:#ed1c24;fill-opacity:1;stroke:#ed1c24;stroke-width:1.54464126;stroke-linecap:round;stroke-linejoin:round;stroke-miterlimit:4;stroke-opacity:1;stroke-dasharray:none" />
  <rect
     width="3.8093719"
     height="7.7983427"
     x="178.75337"
     y="99.590546"
     id="rect4133-0"
     style="fill:#ed1c24;fill-opacity:1;stroke:#ed1c24;stroke-width:1.65430069;stroke-linecap:round;stroke-linejoin:round;stroke-miterlimit:4;stroke-opacity:1;stroke-dasharray:none" />
  <rect
     width="4.2594547"
     height="7.2421818"
     x="186.86755"
     y="100.14671"
     id="rect4133-3"
     style="fill:#ed1c24;fill-opacity:1;stroke:#ed1c24;stroke-width:1.67142594;stroke-linecap:round;stroke-linejoin:round;stroke-miterlimit:4;stroke-opacity:1;stroke-dasharray:none" />
  <rect
     width="4.6592989"
     height="6.1891971"
     x="195.49519"
     y="101.19971"
     id="rect4133-69"
     style="fill:#ed1c24;fill-opacity:1;stroke:#ed1c24;stroke-width:1.42886198;stroke-linecap:round;stroke-linejoin:round;stroke-miterlimit:4;stroke-opacity:1;stroke-dasharray:none" />
  <rect
     width="4.1709838"
     height="5.8229609"
     x="204.43611"
     y="101.56593"
     id="rect4133-20"
     style="fill:#ed1c24;fill-opacity:1;stroke:#ed1c24;stroke-width:1.42886198;stroke-linecap:round;stroke-linejoin:round;stroke-miterlimit:4;stroke-opacity:1;stroke-dasharray:none" />
  <rect
     width="3.440227"
     height="5.5293717"
     x="212.98433"
     y="101.85953"
     id="rect4133-02"
     style="fill:#ed1c24;fill-opacity:1;stroke:#ed1c24;stroke-width:1.37600029;stroke-linecap:round;stroke-linejoin:round;stroke-miterlimit:4;stroke-opacity:1;stroke-dasharray:none" />
  <rect
     width="4.8212404"
     height="5.3233624"
     x="220.59091"
     y="102.06554"
     id="rect4133-64"
     style="fill:#ed1c24;fill-opacity:1;stroke:#ed1c24;stroke-width:1.32217145;stroke-linecap:round;stroke-linejoin:round;stroke-miterlimit:4;stroke-opacity:1;stroke-dasharray:none" />
  <path
     style="fill:#231f20;stroke:#231f20;stroke-width:1px;stroke-linecap:butt;stroke-linejoin:miter;stroke-opacity:1;fill-opacity:1"
     d="m 104.71682,274.93216 c -0.13553,-2.10566 -2.00347,-1.53692 -2.64418,-1.1501 -0.65511,0.39552 -1.63645,1.21158 -0.83927,3.21173 1.32176,2.324 -0.0323,4.92373 1.49464,6.91418 0.65094,0.84851 2.52738,1.04956 3.97936,-1.36909 1.97118,-2.66434 3.34851,-0.31203 4.20614,-1.59534 1.27125,-1.90225 -0.39065,-5.01998 2.4764,-5.72702 1.19986,-0.61462 0.66175,-1.40304 0,-2.20382 -0.53495,-0.17943 -0.5976,-1.33475 -0.83505,-1.78253 -0.87494,-1.64989 -1.22762,-1.41498 -1.4226,-0.43253 -0.27966,1.40918 -0.23487,4.35633 -0.94144,5.48524 -3.31556,0.51446 -5.37757,0.21779 -5.474,-1.35072 z"
     id="path3050"
     inkscape:connector-curvature="0"
     sodipodi:nodetypes="cscscsccsscc" />
</svg>
