<?xml version="1.0" encoding="UTF-8" standalone="no"?>
<svg
   xmlns:dc="http://purl.org/dc/elements/1.1/"
   xmlns:cc="http://creativecommons.org/ns#"
   xmlns:rdf="http://www.w3.org/1999/02/22-rdf-syntax-ns#"
   xmlns:svg="http://www.w3.org/2000/svg"
   xmlns="http://www.w3.org/2000/svg"
   xmlns:sodipodi="http://sodipodi.sourceforge.net/DTD/sodipodi-0.dtd"
   xmlns:inkscape="http://www.inkscape.org/namespaces/inkscape"
   width="168.7mm"
   height="173.58mm"
   id="svg2631"
   sodipodi:version="0.32"
   inkscape:version="0.45.1+0.46pre1+devel"
   inkscape:output_extension="org.inkscape.output.svg.inkscape"
   sodipodi:docname="Suessen.svg">
  <metadata
     id="metadata2664">
    <rdf:RDF>
      <cc:Work
         rdf:about="">
        <dc:format>image/svg+xml</dc:format>
        <dc:type
           rdf:resource="http://purl.org/dc/dcmitype/StillImage" />
      </cc:Work>
    </rdf:RDF>
  </metadata>
  <defs
     id="defs2662">
    <inkscape:perspective
       sodipodi:type="inkscape:persp3d"
       inkscape:vp_x="-50 : 600 : 1"
       inkscape:vp_y="0 : 1000 : 0"
       inkscape:vp_z="700 : 600 : 1"
       inkscape:persp3d-origin="300 : 400 : 1"
       id="perspective2666" />
  </defs>
  <sodipodi:namedview
     inkscape:window-height="664"
     inkscape:window-width="640"
     inkscape:pageshadow="2"
     inkscape:pageopacity="0.0"
     guidetolerance="10.0"
     gridtolerance="10.0"
     objecttolerance="10.0"
     borderopacity="1.0"
     bordercolor="#666666"
     pagecolor="#ffffff"
     id="base"
     showgrid="false"
     inkscape:zoom="0.78693142"
     inkscape:cx="298.87796"
     inkscape:cy="307.52362"
     inkscape:window-x="132"
     inkscape:window-y="70"
     inkscape:current-layer="svg2631" />
<!-- EMR_GDICOMMENT --><!-- EMR_SETMAPMODE --><!-- EMR_SETVIEWPORTEXTEX --><!-- EMR_SETWINDOWEXTEX --><!-- EMR_SETWINDOWEXTEX --><!-- EMR_SETWINDOWEXTEX --><!-- EMR_SETWINDOWEXTEX -->  <path
     style="fill:#131516;fill-rule:evenodd;fill-opacity:1;stroke:none;"
     d="  M 282.23304 614.85505   L 280.46476 614.66285   L 278.65804 614.47064   L 276.85132 614.31688   L 275.08303 614.12468   L 273.27631 613.93248   L 271.50803 613.77872   L 269.70131 613.58651   L 267.93303 613.43275   L 266.12631 613.24055   L 264.35802 613.08679   L 262.58974 612.89459   L 260.78302 612.74082   L 259.01474 612.58706   L 257.24646 612.39486   L 255.47818 612.2411   L 249.94269 611.24165   L 244.44564 610.20375   L 239.06392 609.08898   L 233.72063 607.93577   L 228.45423 606.70567   L 223.26471 605.3987   L 220.65073 604.74521   L 218.07519 604.05328   L 215.49965 603.36135   L 212.96255 602.63098   L 210.38701 601.90062   L 207.84991 601.13181   L 205.31281 600.32456   L 202.81415 599.55575   L 200.27706 598.71006   L 197.7784 597.86437   L 195.2413 597.01868   L 192.74264 596.13455   L 190.24398 595.25042   L 187.74532 594.32785   L 185.24667 593.36683   L 182.74801 592.40582   L 180.21091 591.40637   L 177.71225 590.40692   L 175.21359 589.36903   L 172.71493 588.2927   L 168.60176 586.25535   L 165.37272 584.67929   L 162.68186 583.33388   L 160.26009 582.10378   L 157.79987 580.79681   L 154.99368 579.33607   L 151.57244 577.49093   L 147.19018 575.14606   L 143.49986 572.83963   L 139.84797 570.53321   L 136.23453 568.18834   L 132.69796 565.84347   L 129.19984 563.42172   L 125.7786 561.03841   L 122.35736 558.57822   L 119.01301 556.11804   L 115.66865 553.58097   L 112.40117 551.08234   L 109.1337 548.50683   L 105.90466 545.89288   L 102.71407 543.27892   L 99.561914 540.62653   L 96.448202 537.9357   L 93.33449 535.20643   L 89.413518 531.17018   L 86.338247 528.01806   L 83.839589 525.40411   L 81.686899 523.13613   L 79.57265 520.86814   L 77.304637 518.33107   L 74.536893 515.25583   L 71.077212 511.37335   L 68.732318 508.33655   L 66.425864 505.29976   L 64.196292 502.26296   L 61.96672 499.22617   L 59.81403 496.18937   L 57.699781 493.15257   L 55.623973 490.11578   L 53.625047 487.07898   L 51.62612 484.04219   L 49.704075 480.96695   L 47.782031 477.93015   L 45.936868 474.85492   L 44.168587 471.74124   L 42.400306 468.62756   L 40.670465 465.51389   L 39.017507 462.36177   L 37.86428 459.8247   L 36.749494 457.28763   L 35.596267 454.75056   L 34.481482 452.25193   L 33.366696 449.71486   L 32.25191 447.17779   L 31.137124 444.64072   L 30.022338 442.10365   L 29.138197 439.41282   L 28.254057 436.72199   L 27.369916 434.03116   L 26.524217 431.37877   L 25.716958 428.68793   L 24.909699 426.03554   L 24.10244 423.38315   L 23.333622 420.73076   L 22.564805 418.11681   L 21.872868 415.46442   L 21.142491 412.85047   L 20.488996 410.23652   L 19.79706 407.66101   L 19.182006 405.0855   L 18.566952 402.50999   L 17.990338 399.93447   L 17.490607 396.43639   L 17.029316 393.36116   L 16.644907 390.67033   L 16.298939 388.28702   L 15.991412 386.24967   L 15.722325 384.44297   L 15.530121 382.82847   L 15.337917 381.40618   L 15.184153 380.0992   L 15.030389 378.90755   L 14.915067 377.71589   L 14.799744 376.56268   L 14.64598 375.37103   L 14.530658 374.06405   L 14.415335 372.64175   L 14.261572 371.06569   L 12.147322 317.4797   L 10.302159 270.50547   L 8.6876419 229.56639   L 7.3037698 194.12429   L 6.0736612 163.64101   L 5.0741979 137.53994   L 4.1900574 115.3598   L 3.4596804 96.485537   L 2.8446261 80.378988   L 2.3448945 66.540424   L 1.8836038 54.354801   L 1.4991948 43.360831   L 1.1147859 32.981909   L 0.76881787 22.641427   L 0.38440894 11.83966   L 0 0   L 37.364549 0   L 74.729097 0   L 112.09365 0   L 149.41975 0   L 186.7843 0   L 224.14885 0   L 261.5134 0   L 298.87795 0   L 336.2425 0   L 373.60704 0   L 410.97159 0   L 448.2977 0   L 485.66225 0   L 523.0268 0   L 560.39135 0   L 597.75589 0   L 596.83331 23.563998   L 595.91073 47.127996   L 594.98815 70.730434   L 594.02713 94.294432   L 593.10455 117.85843   L 592.18197 141.42243   L 591.25938 164.98642   L 590.3368 188.55042   L 589.41422 212.11442   L 588.49164 235.71686   L 587.56906 259.28086   L 586.60804 282.84485   L 585.68545 306.40885   L 584.76287 329.97285   L 583.84029 353.53685   L 582.91771 377.13929   L 582.5333 379.83012   L 582.14889 382.52095   L 581.76448 385.21178   L 581.38007 387.94105   L 581.03411 390.63189   L 580.6497 393.36116   L 580.26529 396.09043   L 579.88088 398.8197   L 578.9583 402.85595   L 577.99728 406.85376   L 576.99781 410.85156   L 575.92147 414.84937   L 574.76824 418.84718   L 573.61501 422.80654   L 572.3849 426.76591   L 571.07791 430.72528   L 569.77092 434.6462   L 568.34861 438.60557   L 566.9263 442.5265   L 565.4271 446.44742   L 563.85103 450.32991   L 562.23651 454.25084   L 560.58355 458.13332   L 558.85371 462.01581   L 557.54672 464.36067   L 556.23973 466.74398   L 554.93274 469.08885   L 553.62575 471.47216   L 552.31876 473.85547   L 551.01177 476.23877   L 549.70478 478.62208   L 548.39779 481.00539   L 546.89859 483.31182   L 545.36096 485.61824   L 543.82332 487.88623   L 542.28569 490.11578   L 540.70961 492.34532   L 539.13353 494.53643   L 537.55746 496.6891   L 535.94294 498.8802   L 534.32842 500.99443   L 532.67546 503.10865   L 531.0225 505.22288   L 529.3311 507.29866   L 527.6397 509.37444   L 525.94831 511.41179   L 524.21847 513.44913   L 522.48863 515.48648   L 520.72034 517.48538   L 518.95206 519.48428   L 517.14534 521.44475   L 515.33862 523.44365   L 513.49346 525.36567   L 511.64829 527.32614   L 509.80313 529.24816   L 507.91953 531.17018   L 505.99748 533.0922   L 504.07544 534.97579   L 502.15339 536.89781   L 500.19291 538.78139   L 496.23349 542.51012   L 492.15876 546.23884   L 489.54478 548.16086   L 486.96924 550.12133   L 484.35526 552.08179   L 481.77972 554.08069   L 479.20418 556.04115   L 476.62864 558.00162   L 474.0531 560.00052   L 471.47756 561.96098   L 467.32594 564.57494   L 463.17433 567.15045   L 458.98427 569.64908   L 454.79421 572.10926   L 450.56571 574.49257   L 446.37566 576.83744   L 442.10872 579.10543   L 437.88022 581.33497   L 433.61328 583.52608   L 429.3079 585.6403   L 425.00252 587.71609   L 420.6587 589.71499   L 416.27644 591.67546   L 411.89417 593.55904   L 407.47347 595.40418   L 403.01433 597.17244   L 399.17024 598.40253   L 395.32615 599.59419   L 391.5205 600.70896   L 387.67641 601.82373   L 383.87076 602.90007   L 380.06511 603.93796   L 376.25947 604.93741   L 372.45382 605.89842   L 368.64817 606.82099   L 364.84252 607.70512   L 361.03687 608.55081   L 357.23122 609.35806   L 353.42558 610.12687   L 349.65837 610.85724   L 345.85272 611.54917   L 342.04707 612.2411   L 338.39519 612.6255   L 334.7433 612.97147   L 331.09142 613.27899   L 327.43953 613.54807   L 323.78765 613.81716   L 320.13576 614.0478   L 316.52232 614.24   L 312.87043 614.39376   L 309.25699 614.54752   L 305.64354 614.66285   L 302.0301 614.77817   L 298.41666 614.85505   L 294.80321 614.93193   L 291.22821 614.97037   L 287.61477 615.00881   L 284.03976 615.04725  z "
     id="path2633" />
  <path
     style="fill:#ffffff;fill-rule:evenodd;fill-opacity:1;stroke:none;"
     d="  M 285.65428 601.32401   L 282.80965 601.09337   L 280.27255 600.90116   L 278.08142 600.7474   L 276.0825 600.59364   L 274.31422 600.43988   L 272.6997 600.32456   L 271.2005 600.20924   L 269.73975 600.05547   L 268.279 599.90171   L 266.81824 599.78639   L 265.28061 599.59419   L 263.58921 599.44043   L 261.78249 599.20978   L 259.70668 599.01758   L 257.40022 598.7485   L 254.17119 598.17189   L 250.98059 597.55684   L 247.82844 596.9418   L 244.71473 596.32675   L 241.60102 595.67326   L 238.52574 594.98133   L 235.48891 594.28941   L 232.49052 593.59748   L 229.49213 592.86711   L 226.53219 592.0983   L 223.57224 591.32949   L 220.65073 590.52224   L 217.72922 589.67655   L 214.84615 588.83086   L 211.96309 587.94673   L 209.08002 587.0626   L 206.23539 586.14003   L 203.35233 585.17902   L 200.5077 584.21801   L 197.70152 583.18011   L 194.85689 582.14222   L 192.0507 581.10433   L 189.20608 579.98956   L 186.39989 578.87478   L 183.59371 577.72157   L 180.74908 576.52992   L 177.9429 575.29982   L 175.09827 574.06973   L 172.29208 572.76275   L 169.44746 571.45578   L 166.56439 570.11036   L 163.71977 568.7265   L 162.02837 567.80393   L 160.33697 566.88136   L 158.64557 565.92035   L 156.95417 564.99778   L 155.30121 564.07521   L 153.60981 563.15264   L 151.91841 562.23007   L 150.22701 561.3075   L 147.45927 559.57768   L 144.76841 557.80942   L 142.11598 556.04115   L 139.502 554.27289   L 136.88802 552.50463   L 134.35092 550.69793   L 131.85226 548.92967   L 129.39205 547.08453   L 126.93183 545.27783   L 124.5485 543.43269   L 122.16516 541.5491   L 119.82027 539.70396   L 117.51381 537.78194   L 115.20736 535.89836   L 112.93935 533.93789   L 110.70977 531.97743   L 108.4802 530.01697   L 106.28907 528.01806   L 104.13638 526.01916   L 101.98369 523.94338   L 99.831001 521.90603   L 97.716751 519.79181   L 95.602502 517.67758   L 93.488253 515.52492   L 91.412445 513.33381   L 89.336637 511.14271   L 87.260828 508.91316   L 85.223461 506.64517   L 83.147653 504.33875   L 81.110285 501.99388   L 79.072918 499.61057   L 77.035551 497.22726   L 74.652215 493.88294   L 72.345762 490.6155   L 70.11619 487.38651   L 67.925059 484.19595   L 65.81081 481.00539   L 63.735002 477.85327   L 61.736075 474.70116   L 59.81403 471.58748   L 89.682605 471.58748   L 119.58962 471.58748   L 149.45819 471.58748   L 179.32677 471.58748   L 209.23378 471.58748   L 239.10236 471.62592   L 269.00937 471.62592   L 298.87795 471.62592   L 328.78496 471.66436   L 358.69198 471.66436   L 388.56055 471.7028   L 418.46757 471.7028   L 448.37458 471.74124   L 478.24316 471.74124   L 508.15017 471.77968   L 538.05719 471.77968   L 535.86606 475.08556   L 533.63648 478.31456   L 531.40691 481.54356   L 529.17734 484.69567   L 526.90933 487.84779   L 524.60287 490.96147   L 522.25798 494.0367   L 519.91309 497.11194   L 517.52975 500.14874   L 515.10797 503.14709   L 512.64776 506.14545   L 510.11066 509.1438   L 507.57356 512.14216   L 504.95958 515.10207   L 502.30716 518.06199   L 499.57785 521.06034   L 497.50204 522.94392   L 495.42624 524.82751   L 493.35043 526.71109   L 491.23618 528.51779   L 489.16037 530.36293   L 487.04612 532.13119   L 484.93187 533.89945   L 482.81762 535.66771   L 480.66493 537.39754   L 478.55068 539.08892   L 476.39799 540.7803   L 474.2453 542.43323   L 472.05417 544.08617   L 469.90148 545.70067   L 467.71035 547.31517   L 465.51922 548.89123   L 463.28965 550.46729   L 461.06008 552.00491   L 458.83051 553.54253   L 456.56249 555.0417   L 454.33292 556.50244   L 452.02647 558.00162   L 449.72001 559.42391   L 447.41356 560.88465   L 445.10711 562.30695   L 442.76221 563.69081   L 440.37888 565.07466   L 437.99554 566.45852   L 435.61221 567.80393   L 433.19043 569.14935   L 430.76865 570.45632   L 428.30844 571.7633   L 424.73343 573.3778   L 421.11999 574.95386   L 417.54499 576.45304   L 413.96998 577.95221   L 410.35654 579.41295   L 406.78154 580.83525   L 403.16809 582.2191   L 399.59309 583.56452   L 395.97964 584.87149   L 392.3662 586.14003   L 388.75276 587.37012   L 385.13931 588.52334   L 381.52587 589.67655   L 377.91242 590.75288   L 374.26054 591.79078   L 370.60865 592.79023   L 367.22586 593.5206   L 363.80462 594.21252   L 360.42182 594.90445   L 357.03902 595.5195   L 353.69466 596.13455   L 350.31186 596.67271   L 346.96751 597.21088   L 343.62315 597.74905   L 340.27879 598.21033   L 336.97287 598.67162   L 333.62852 599.09446   L 330.28416 599.51731   L 326.97824 599.90171   L 323.63388 600.28612   L 320.32797 600.63208   L 316.98361 600.97804   L 315.21533 601.01649   L 313.44705 601.05493   L 311.67876 601.05493   L 309.91048 601.09337   L 308.1422 601.13181   L 306.41236 601.17025   L 304.64408 601.20869   L 302.8758 601.24713   L 301.14596 601.28557   L 299.37768 601.32401   L 297.6094 601.36245   L 295.87956 601.40089   L 294.11128 601.43933   L 292.38144 601.47777   L 290.61316 601.51621   L 288.88332 601.55465  z "
     id="path2635" />
  <path
     style="fill:#ffffff;fill-rule:evenodd;fill-opacity:1;stroke:none;"
     d="  M 26.67798 339.31388   L 26.562657 335.31607   L 26.447335 332.2024   L 26.408894 329.81909   L 26.370453 327.78174   L 26.370453 325.85972   L 26.370453 323.7455   L 26.408894 321.24687   L 28.523143 322.66916   L 30.637392 324.05302   L 32.751641 325.47532   L 34.86589 326.89761   L 36.98014 328.31991   L 39.13283 329.74221   L 41.247079 331.20294   L 43.361328 332.62524   L 45.475577 334.04754   L 47.628267 335.46983   L 49.742516 336.89213   L 51.856765 338.35287   L 54.009455 339.77517   L 56.123705 341.19746   L 58.237954 342.61976   L 60.390644 344.0805   L 58.276395 344.0805   L 56.162145 344.11894   L 54.086337 344.11894   L 51.972088 344.15738   L 49.857839 344.15738   L 47.782031 344.19582   L 45.667782 344.23426   L 43.591973 344.23426   L 41.477724 344.2727   L 39.401916 344.31114   L 37.326108 344.34958   L 35.211858 344.34958   L 33.13605 344.38802   L 31.060242 344.42646   L 28.945993 344.4649   L 26.870185 344.50334  z "
     id="path2637" />
  <path
     style="fill:#da251d;fill-rule:evenodd;fill-opacity:1;stroke:none;"
     d="  M 70.039308 342.50444   L 67.079359 340.50553   L 64.11941 338.50663   L 61.197903 336.50773   L 58.237954 334.54726   L 55.316446 332.54836   L 52.356497 330.54946   L 49.434989 328.55055   L 46.513481 326.59009   L 43.553532 324.59119   L 40.632024 322.59228   L 37.710517 320.63182   L 34.750568 318.63292   L 31.82906 316.67245   L 28.907552 314.67355   L 25.986044 312.71309   L 23.487386 259.39618   L 29.099756 263.1249   L 34.673686 266.85363   L 40.247616 270.58235   L 45.859986 274.31107   L 51.433916 278.0398   L 57.007845 281.80696   L 62.620216 285.53569   L 68.194145 289.26441   L 73.768075 292.99313   L 79.380445 296.72186   L 84.954375 300.45058   L 90.528304 304.17931   L 96.140675 307.90803   L 101.7146 311.63675   L 107.28853 315.36548   L 112.9009 319.0942   L 118.6286 315.36548   L 124.35629 311.63675   L 130.12242 307.90803   L 135.85012 304.17931   L 141.57781 300.45058   L 147.34394 296.72186   L 153.11008 292.99313   L 158.83777 289.26441   L 164.60391 285.53569   L 170.3316 281.80696   L 176.09773 278.07824   L 181.86387 274.38795   L 187.59156 270.65923   L 193.35769 266.93051   L 199.12383 263.24022   L 204.88996 259.5115   L 206.77357 260.66471   L 208.58029 261.74105   L 210.38701 262.81738   L 212.3475 264.04747   L 214.61551 265.46977   L 217.34481 267.16115   L 220.65073 269.23693   L 224.64858 271.774   L 229.53058 274.84924   L 235.37359 278.57796   L 242.36983 282.99862   L 250.63463 288.26496   L 260.28329 294.41543   L 271.50803 301.52691   L 284.38573 309.75317   L 299.10859 319.0942   L 304.72096 315.36548   L 310.33333 311.63675   L 315.9457 307.90803   L 321.55807 304.17931   L 327.17045 300.45058   L 332.78282 296.72186   L 338.39519 292.99313   L 344.046 289.26441   L 349.65837 285.53569   L 355.27074 281.80696   L 360.92155 278.07824   L 366.53392 274.38795   L 372.18473 270.65923   L 377.7971 266.93051   L 383.44791 263.24022   L 389.06028 259.5115   L 394.9033 263.24022   L 400.74632 266.93051   L 406.58933 270.65923   L 412.43235 274.38795   L 418.27536 278.07824   L 424.07994 281.80696   L 429.92295 285.53569   L 435.76597 289.26441   L 441.60899 292.99313   L 447.452 296.72186   L 453.29502 300.45058   L 459.13803 304.17931   L 464.98105 307.90803   L 470.82406 311.63675   L 476.66708 315.36548   L 482.5101 319.0942   L 488.19935 315.21172   L 493.8886 311.36767   L 499.57785 307.48518   L 505.2671 303.6027   L 510.95636 299.72021   L 516.64561 295.87617   L 522.3733 291.99368   L 528.06255 288.14964   L 533.75181 284.26715   L 539.44106 280.42311   L 545.16875 276.54062   L 550.858 272.69657   L 556.54726 268.85253   L 562.27495 264.97004   L 567.9642 261.126   L 573.6919 257.28195   L 573.6919 260.47251   L 573.65345 263.66307   L 573.61501 266.89207   L 573.53813 270.12106   L 573.46125 273.3885   L 573.38437 276.65594   L 573.26905 279.96182   L 573.15372 283.2677   L 572.99996 286.57358   L 572.88464 289.9179   L 572.73087 293.26222   L 572.61555 296.60654   L 572.46179 299.95086   L 572.30802 303.33362   L 572.15426 306.71638   L 572.0005 310.09914   L 568.84834 312.2518   L 565.69619 314.36603   L 562.54404 316.48025   L 559.39188 318.63292   L 556.23973 320.74714   L 553.08758 322.89981   L 549.93542 325.01403   L 546.78327 327.1667   L 543.63112 329.28092   L 540.47896 331.43359   L 537.32681 333.58625   L 534.2131 335.70048   L 531.06094 337.85314   L 527.90879 340.00581   L 524.75664 342.15847   L 521.64293 344.2727   L 516.56873 344.2727   L 511.49453 344.2727   L 506.45877 344.31114   L 501.38457 344.31114   L 496.34882 344.31114   L 491.27462 344.31114   L 486.20042 344.31114   L 481.16466 344.31114   L 476.09047 344.31114   L 471.01627 344.31114   L 465.98051 344.31114   L 460.90631 344.34958   L 455.83212 344.34958   L 450.79636 344.34958   L 445.72216 344.38802   L 440.6864 344.38802   L 437.45737 342.31224   L 434.22833 340.23645   L 430.9993 338.16067   L 427.77026 336.08488   L 424.54123 334.0091   L 421.31219 331.93331   L 418.08316 329.85753   L 414.85412 327.78174   L 411.62509 325.70596   L 408.39605 323.63018   L 405.20546 321.55439   L 401.97642 319.51705   L 398.74739 317.44126   L 395.51835 315.36548   L 392.28932 313.28969   L 389.06028 311.25235   L 385.94657 313.28969   L 382.8713 315.32704   L 379.75759 317.36438   L 376.64388 319.40173   L 373.5686 321.47751   L 370.45489 323.51485   L 367.37962 325.5522   L 364.26591 327.58954   L 361.15219 329.62689   L 358.07692 331.70267   L 354.96321 333.74001   L 351.8495 335.77736   L 348.77423 337.8147   L 345.66051 339.85205   L 342.58524 341.92783   L 339.47153 343.96517   L 334.28201 343.96517   L 329.09249 343.96517   L 323.90297 343.96517   L 318.71345 343.96517   L 313.52393 343.96517   L 308.33441 344.00362   L 303.18333 344.00362   L 297.99381 344.04206   L 292.80429 344.04206   L 287.61477 344.04206   L 282.42524 344.0805   L 277.23572 344.0805   L 272.0462 344.11894   L 266.85668 344.11894   L 261.66716 344.15738   L 256.47764 344.19582   L 253.24861 342.12003   L 249.98113 340.04425   L 246.7521 337.96846   L 243.52306 335.93112   L 240.29403 333.85534   L 237.06499 331.77955   L 233.79751 329.74221   L 230.56848 327.66642   L 227.33944 325.59064   L 224.11041 323.55329   L 220.88137 321.47751   L 217.65234 319.44017   L 214.4233 317.36438   L 211.19427 315.32704   L 208.00367 313.28969   L 204.77464 311.25235   L 201.58405 313.28969   L 198.39345 315.36548   L 195.20286 317.44126   L 192.01226 319.51705   L 188.86011 321.55439   L 185.66952 323.63018   L 182.47892 325.70596   L 179.28833 327.78174   L 176.13617 329.81909   L 172.94558 331.89487   L 169.79343 333.97066   L 166.60283 336.04644   L 163.45068 338.08379   L 160.26009 340.15957   L 157.10793 342.23535   L 153.95578 344.2727   L 148.88158 344.31114   L 143.80738 344.31114   L 138.77163 344.31114   L 133.69743 344.31114   L 128.62323 344.31114   L 123.58747 344.34958   L 118.51327 344.34958   L 113.43908 344.34958   L 108.40332 344.38802   L 103.32912 344.38802   L 98.293365 344.42646   L 93.219167 344.42646   L 88.144969 344.4649   L 83.109212 344.4649   L 78.035014 344.50334   L 72.960816 344.50334  z "
     id="path2639" />
  <path
     style="fill:#ffffff;fill-rule:evenodd;fill-opacity:1;stroke:none;"
     d="  M 168.98617 342.96572   L 171.33106 341.38966   L 173.67596 339.85205   L 176.02085 338.27599   L 178.36575 336.69993   L 180.71064 335.16231   L 183.09398 333.58625   L 185.43887 332.04863   L 187.78376 330.47258   L 190.1671 328.89652   L 192.51199 327.3589   L 194.85689 325.78284   L 197.24022 324.24522   L 199.58512 322.66916   L 201.96845 321.13155   L 204.31335 319.55549   L 204.7362 319.63237   L 205.31281 319.78613   L 206.00475 320.05521   L 206.85045 320.43962   L 207.81147 320.93934   L 208.84937 321.47751   L 210.0026 322.131   L 211.23271 322.86137   L 213.92357 324.47587   L 216.84508 326.32101   L 219.95879 328.31991   L 223.18783 330.39569   L 226.41686 332.54836   L 229.60746 334.70103   L 232.68273 336.77681   L 235.60424 338.73727   L 238.21822 340.50553   L 240.52467 342.08159   L 242.44672 343.35013   L 243.90747 344.2727   L 239.06392 344.31114   L 234.22036 344.31114   L 229.41525 344.31114   L 224.5717 344.31114   L 219.76659 344.31114   L 214.92304 344.34958   L 210.07948 344.34958   L 205.27437 344.34958   L 200.43082 344.38802   L 195.62571 344.38802   L 190.78215 344.42646   L 185.9386 344.42646   L 181.13349 344.4649   L 176.28994 344.4649   L 171.48483 344.50334   L 166.64127 344.50334  z "
     id="path2641" />
  <path
     style="fill:#ffffff;fill-rule:evenodd;fill-opacity:1;stroke:none;"
     d="  M 353.80998 342.96572   L 356.11644 341.38966   L 358.38445 339.85205   L 360.6909 338.27599   L 362.99736 336.73837   L 365.30381 335.16231   L 367.57182 333.62469   L 369.87828 332.04863   L 372.18473 330.51102   L 374.49118 328.93496   L 376.79764 327.39734   L 379.06565 325.85972   L 381.3721 324.28366   L 383.67856 322.74604   L 385.98501 321.20843   L 388.25302 319.67081   L 388.52211 319.59393   L 388.7912 319.55549   L 389.06028 319.55549   L 389.40625 319.55549   L 391.75115 321.09311   L 394.13448 322.59228   L 396.47938 324.1299   L 398.86271 325.62908   L 401.24605 327.1667   L 403.59094 328.70431   L 405.97428 330.24193   L 408.35761 331.77955   L 410.74095 333.31717   L 413.12428 334.85479   L 415.50762 336.39241   L 417.89095 337.93002   L 420.27429 339.46764   L 422.61918 341.00526   L 425.00252 342.54288   L 427.38585 344.0805   L 422.65762 344.0805   L 417.92939 344.11894   L 413.16272 344.11894   L 408.43449 344.15738   L 403.66782 344.15738   L 398.93959 344.19582   L 394.21136 344.23426   L 389.44469 344.23426   L 384.71646 344.2727   L 379.94979 344.31114   L 375.22156 344.34958   L 370.49333 344.34958   L 365.72666 344.38802   L 360.99843 344.42646   L 356.23176 344.4649   L 351.50353 344.50334  z "
     id="path2643" />
  <path
     style="fill:#ffffff;fill-rule:evenodd;fill-opacity:1;stroke:none;"
     d="  M 534.05933 344.38802   L 534.17466 344.23426   L 534.4053 344.04206   L 534.78971 343.73453   L 535.36632 343.31169   L 536.21202 342.69664   L 537.40369 341.85095   L 538.94133 340.77462   L 540.94025 339.4292   L 543.40047 337.73782   L 546.4373 335.66204   L 550.05075 333.24029   L 554.27924 330.31881   L 559.27656 326.97449   L 565.00425 323.09201   L 571.53921 318.67136   L 571.42388 321.86191   L 571.30856 325.09091   L 571.23168 328.31991   L 571.11636 331.54891   L 571.03947 334.77791   L 570.92415 338.0069   L 570.84727 341.27434   L 570.77039 344.50334   L 568.46393 344.50334   L 566.15748 344.50334   L 563.88947 344.50334   L 561.58301 344.50334   L 559.27656 344.50334   L 556.97011 344.50334   L 554.66365 344.50334   L 552.39564 344.50334   L 550.08919 344.50334   L 547.78273 344.50334   L 545.47628 344.50334   L 543.20827 344.50334   L 540.90181 344.50334   L 538.59536 344.50334   L 536.28891 344.50334   L 533.98245 344.50334  z "
     id="path2645" />
  <path
     style="fill:#ffffff;fill-rule:evenodd;fill-opacity:1;stroke:none;"
     d="  M 292.80429 307.36986   L 286.92283 303.6027   L 281.07981 299.87398   L 275.19836 296.14525   L 269.35534 292.37809   L 263.47388 288.64936   L 257.63087 284.92064   L 251.78785 281.15347   L 245.9064 277.42475   L 240.06338 273.69603   L 234.22036 269.9673   L 228.37735 266.23858   L 222.53433 262.50985   L 216.65288 258.78113   L 210.80986 255.05241   L 205.00529 251.28524   L 199.27759 254.97553   L 193.58834 258.66581   L 187.89909 262.35609   L 182.20984 266.04638   L 176.52058 269.73666   L 170.83133 273.46538   L 165.14208 277.15567   L 159.45283 280.84595   L 153.76357 284.53623   L 148.07432 288.22652   L 142.38507 291.9168   L 136.65738 295.60708   L 130.96812 299.33581   L 125.27887 303.02609   L 119.58962 306.75482   L 113.90037 310.4451   L 113.40064 310.36822   L 112.9009 310.29134   L 112.40117 310.2529   L 111.90144 310.21446   L 106.36595 306.48573   L 100.83046 302.75701   L 95.294975 299.02829   L 89.797927 295.29956   L 84.262439 291.60928   L 78.72695 287.88055   L 73.229902 284.15183   L 67.694414 280.42311   L 62.158925 276.73282   L 56.661877 273.0041   L 51.126388 269.31381   L 45.5909 265.58509   L 40.055411 261.85637   L 34.558363 258.16608   L 29.022875 254.43736   L 23.487386 250.74708   L 21.488459 197.66081   L 27.177712 201.50486   L 32.905405 205.3489   L 38.633098 209.19295   L 44.32235 213.03699   L 50.050043 216.8426   L 55.739296 220.68664   L 61.466989 224.53069   L 67.194682 228.37473   L 72.883934 232.21878   L 78.611627 236.06282   L 84.33932 239.90687   L 90.028573 243.75091   L 95.756266 247.59496   L 101.48396 251.47744   L 107.17321 255.32149   L 112.9009 259.16554   L 118.6286 255.43681   L 124.35629 251.70809   L 130.08398 247.97936   L 135.85012 244.25064   L 141.57781 240.52192   L 147.3055 236.79319   L 153.0332 233.06447   L 158.79933 229.33574   L 164.52702 225.60702   L 170.25472 221.8783   L 176.02085 218.14957   L 181.74854 214.45929   L 187.51468 210.73056   L 193.24237 207.00184   L 199.00851 203.31156   L 204.77464 199.58283   L 205.27437 199.58283   L 205.7741 199.58283   L 211.61712 203.31156   L 217.46013 207.00184   L 223.30315 210.73056   L 229.14617 214.45929   L 234.98918 218.14957   L 240.8322 221.8783   L 246.63677 225.60702   L 252.47979 229.33574   L 258.3228 233.06447   L 264.16582 236.79319   L 270.00884 240.52192   L 275.85185 244.25064   L 281.69487 247.97936   L 287.53788 251.70809   L 293.3809 255.43681   L 299.22392 259.16554   L 304.72096 255.51369   L 310.25645 251.82341   L 315.79194 248.17157   L 321.32743 244.51972   L 326.82448 240.82944   L 332.35997 237.1776   L 337.89545 233.48731   L 343.3925 229.83547   L 348.92799 226.14519   L 354.46348 222.49334   L 359.96053 218.8415   L 365.49602 215.15122   L 371.0315 211.49937   L 376.56699 207.80909   L 382.06404 204.15725   L 387.59953 200.46696   L 388.1377 200.23632   L 388.67587 200.00568   L 389.25249 199.77504   L 389.8291 199.58283   L 395.63368 203.31156   L 401.43825 207.00184   L 407.24283 210.73056   L 413.0474 214.45929   L 418.85198 218.14957   L 424.65655 221.8783   L 430.49957 225.60702   L 436.30414 229.33574   L 442.10872 233.06447   L 447.91329 236.79319   L 453.75631 240.52192   L 459.56088 244.25064   L 465.36546 247.97936   L 471.20847 251.70809   L 477.01305 255.43681   L 482.85606 259.16554   L 488.66064 255.20617   L 494.50365 251.2468   L 500.34667 247.28744   L 506.18969 243.32807   L 512.0327 239.3687   L 517.87572 235.40934   L 523.71873 231.41153   L 529.56175 227.45216   L 535.40477 223.49279   L 541.24778 219.53343   L 547.12924 215.57406   L 552.97225 211.61469   L 558.81527 207.65533   L 564.65829 203.69596   L 570.53974 199.73659   L 576.38276 195.77723   L 576.22899 201.15889   L 576.03679 205.92551   L 575.92147 210.15396   L 575.80614 213.84424   L 575.69082 217.15012   L 575.5755 220.11003   L 575.46018 222.83931   L 575.38329 225.37638   L 575.26797 227.83657   L 575.15265 230.25831   L 575.03733 232.7185   L 574.922 235.33245   L 574.76824 238.13861   L 574.61448 241.25228   L 574.46071 244.71192   L 574.26851 248.59441   L 568.50237 252.51534   L 562.73624 256.39782   L 557.00855 260.31875   L 551.24241 264.20123   L 545.51472 268.12216   L 539.74859 272.00465   L 534.02089 275.92557   L 528.2932 279.80806   L 522.52707 283.69054   L 516.79937 287.61147   L 511.07168 291.49396   L 505.34399 295.41488   L 499.57785 299.29737   L 493.85016 303.21829   L 488.12247 307.10078   L 482.39477 311.02171   L 476.55176 307.29298   L 470.70874 303.56426   L 464.86573 299.79709   L 459.02271 296.06837   L 453.17969 292.33965   L 447.33668 288.61092   L 441.5321 284.8822   L 435.68909 281.15347   L 429.84607 277.42475   L 424.00306 273.69603   L 418.19848 269.9673   L 412.35547 266.23858   L 406.51245 262.50985   L 400.70787 258.78113   L 394.86486 255.05241   L 389.06028 251.28524   L 383.40947 255.05241   L 377.75866 258.78113   L 372.10785 262.50985   L 366.45704 266.23858   L 360.80623 269.9673   L 355.15542 273.69603   L 349.5046 277.42475   L 343.85379 281.15347   L 338.20298 284.92064   L 332.55217 288.64936   L 326.90136 292.37809   L 321.25055 296.14525   L 315.59974 299.87398   L 309.94892 303.6027   L 304.29811 307.36986   L 298.6473 311.13703  z "
     id="path2647" />
  <path
     style="fill:#da251d;fill-rule:evenodd;fill-opacity:1;stroke:none;"
     d="  M 107.36542 247.28744   L 101.59928 243.40495   L 95.833148 239.48402   L 90.105454 235.60154   L 84.33932 231.68061   L 78.573186 227.79813   L 72.845493 223.91564   L 67.079359 219.99471   L 61.313225 216.11223   L 55.547091 212.22974   L 49.819398 208.30882   L 44.053264 204.42633   L 38.28713 200.54384   L 32.520996 196.66136   L 26.793303 192.77887   L 21.027169 188.89639   L 18.682274 137.96279   L 24.563731 141.92215   L 30.483629 145.84308   L 36.365085 149.80245   L 42.284983 153.72337   L 48.16644 157.68274   L 54.086337 161.60367   L 60.006235 165.56303   L 65.887692 169.5224   L 71.807589 173.44332   L 77.689046 177.40269   L 83.608943 181.32362   L 89.4904 185.28298   L 95.410298 189.20391   L 101.3302 193.16328   L 107.21165 197.0842   L 113.13155 201.04357   L 118.85924 197.31485   L 124.58694 193.58612   L 130.31463 189.8574   L 136.08076 186.12867   L 141.80846 182.39995   L 147.57459 178.67123   L 153.30228 174.9425   L 159.06842 171.21378   L 164.83455 167.48505   L 170.56224 163.75633   L 176.32838 160.02761   L 182.09451 156.29888   L 187.82221 152.6086   L 193.58834 148.87988   L 199.35447 145.15115   L 205.08217 141.46087   L 299.22392 201.04357   L 388.82964 141.46087   L 389.06028 141.53775   L 389.40625 141.69151   L 390.02131 141.99903   L 390.98233 142.57564   L 392.48152 143.49821   L 394.63421 144.84363   L 397.59416 146.68877   L 401.47669 149.14896   L 406.43557 152.30108   L 412.58611 156.222   L 420.08208 161.02706   L 429.03881 166.79313   L 439.6485 173.55865   L 451.98803 181.47738   L 466.21116 190.62621   L 482.5101 201.04357   L 497.96334 190.54933   L 511.49453 181.36206   L 523.25744 173.36644   L 533.40584 166.52404   L 542.05504 160.64265   L 549.32037 155.72228   L 555.43247 151.60915   L 560.42979 148.22639   L 564.50452 145.49712   L 567.81044 143.26757   L 570.46286 141.49931   L 572.61555 140.11545   L 574.38383 138.96224   L 575.95991 137.96279   L 577.42066 137.00178   L 578.9583 136.04076   L 578.84298 139.23132   L 578.68921 142.42188   L 578.53545 145.61244   L 578.42013 148.80299   L 578.26636 151.99355   L 578.15104 155.18411   L 577.99728 158.37467   L 577.88195 161.60367   L 577.72819 164.79422   L 577.61287 167.98478   L 577.4591 171.17534   L 577.34378 174.40434   L 577.22846 177.59489   L 577.07469 180.78545   L 576.95937 184.01445   L 576.84405 187.20501   L 571.00103 191.16437   L 565.15802 195.0853   L 559.315 199.04467   L 553.47199 203.00403   L 547.62897 206.9634   L 541.78595 210.92277   L 535.94294 214.88213   L 530.13836 218.8415   L 524.29535 222.80087   L 518.45233 226.76023   L 512.60932 230.7196   L 506.7663 234.67897   L 500.92328 238.63833   L 495.08027 242.5977   L 489.23725 246.55707   L 483.39424 250.51643   L 389.06028 191.27969   L 299.56988 250.74708   L 299.10859 250.74708   L 298.76262 250.74708   L 205.42814 191.27969   L 113.13155 251.20836  z "
     id="path2649" />
  <path
     style="fill:#ffffff;fill-rule:evenodd;fill-opacity:1;stroke:none;"
     d="  M 481.97192 192.81731   L 481.58751 192.50979   L 480.93402 192.0485   L 479.93456 191.35658   L 478.43536 190.35712   L 476.28267 188.93483   L 473.32272 187.05125   L 469.47863 184.55262   L 464.5582 181.4005   L 458.4461 177.47957   L 451.027 172.71296   L 442.14716 167.02377   L 431.69123 160.29669   L 419.46703 152.45484   L 405.35922 143.45977   L 389.29093 133.11929   L 383.67856 136.84801   L 378.06619 140.5383   L 372.45382 144.26702   L 366.87989 147.9573   L 361.26752 151.68603   L 355.69359 155.37631   L 350.08122 159.10504   L 344.50729 162.79532   L 338.89492 166.52404   L 333.32099 170.25277   L 327.70862 173.94305   L 322.13469 177.67177   L 316.52232 181.36206   L 310.94839 185.09078   L 305.37446 188.78107   L 299.76209 192.50979   L 299.26236 192.39447   L 298.76262 192.31759   L 298.30133 192.24071   L 297.87848 192.16383   L 292.07391 188.47354   L 286.26933 184.78326   L 280.46476 181.09297   L 274.66018 177.40269   L 268.89405 173.71241   L 263.08948 170.02212   L 257.2849 166.33184   L 251.48033 162.64156   L 245.67575 158.98971   L 239.87118 155.29943   L 234.10504 151.60915   L 228.30047 147.91886   L 222.49589 144.26702   L 216.69132 140.57674   L 210.88674 136.92489   L 205.08217 133.23461   L 113.78504 192.50979   L 113.28531 192.39447   L 112.78558 192.31759   L 112.32429 192.24071   L 111.90144 192.16383   L 106.05843 188.2429   L 100.21541 184.32197   L 94.372394 180.40105   L 88.529378 176.48012   L 82.686362 172.55919   L 76.843346 168.63827   L 71.00033 164.71734   L 65.157315 160.79642   L 59.314299 156.87549   L 53.471283 152.95456   L 47.628267 149.03364   L 41.785251 145.11271   L 35.942235 141.19178   L 30.137661 137.27086   L 24.294645 133.34993   L 18.451629 129.42901   L 18.144102 122.81725   L 17.913456 116.9743   L 17.721252 111.90016   L 17.529047 107.44107   L 17.375284 103.55858   L 17.22152 100.17582   L 17.144639 97.177466   L 17.029316 94.525074   L 16.952434 92.103326   L 16.875552 89.835339   L 16.837111 87.682674   L 16.79867 85.530008   L 16.76023 83.300462   L 16.721789 80.955594   L 16.683348 78.341644   L 16.644907 75.45861   L 22.641686 79.456417   L 28.676907 83.492664   L 34.673686 87.528912   L 40.670465 91.565159   L 46.705686 95.601407   L 52.702465 99.599214   L 58.699244 103.63546   L 64.734465 107.67171   L 70.731244 111.70796   L 76.766464 115.7442   L 82.763244 119.78045   L 88.798464 123.8167   L 94.833684 127.85295   L 100.83046 131.88919   L 106.86568 135.92544   L 112.9009 140.00013   L 203.19856 81.301558   L 203.69829 81.032475   L 204.27491 80.801833   L 204.85152 80.57119   L 205.42814 80.378988   L 211.27115 84.107712   L 217.07573 87.836435   L 222.91874 91.526719   L 228.72332 95.255443   L 234.56633 98.984167   L 240.40935 102.71289   L 246.21392 106.44161   L 252.05694 110.1319   L 257.89995 113.86062   L 263.74297 117.58935   L 269.58599 121.31807   L 275.39056 125.04679   L 281.23358 128.77552   L 287.07659 132.54268   L 292.91961 136.27141   L 298.76262 140.00013   L 304.33655 136.27141   L 309.94892 132.58112   L 315.52285 128.8524   L 321.09678 125.16212   L 326.70915 121.43339   L 332.28308 117.74311   L 337.89545 114.01438   L 343.46938 110.28566   L 349.08175 106.59538   L 354.65568 102.86665   L 360.26805 99.176369   L 365.84198 95.447645   L 371.45435 91.757362   L 377.06672 88.028638   L 382.6791 84.338354   L 388.25302 80.60963   L 388.52211 80.532749   L 388.7912 80.455868   L 389.06028 80.417428   L 389.40625 80.378988   L 395.21083 84.107712   L 401.0154 87.836435   L 406.85842 91.526719   L 412.66299 95.255443   L 418.50601 98.984167   L 424.31058 102.71289   L 430.11516 106.44161   L 435.95817 110.1319   L 441.76275 113.86062   L 447.56732 117.58935   L 453.41034 121.31807   L 459.21491 125.04679   L 465.05793 128.77552   L 470.86251 132.54268   L 476.66708 136.27141   L 482.5101 140.00013   L 488.66064 135.81012   L 494.81118 131.58167   L 500.96172 127.39166   L 507.15071 123.20165   L 513.30125 119.01164   L 519.49024 114.82163   L 525.64078 110.63162   L 531.82976 106.44161   L 537.98031 102.21316   L 544.16929 98.023156   L 550.35827 93.833146   L 556.50882 89.643137   L 562.6978 85.453127   L 568.88678 81.263118   L 575.03733 77.073109   L 581.22631 72.844659   L 581.14943 76.188978   L 581.07255 79.533298   L 581.03411 82.916057   L 580.99567 86.337258   L 580.95722 89.720018   L 580.91878 93.179658   L 580.88034 96.600859   L 580.8419 100.0605   L 580.72658 103.52014   L 580.61126 106.97978   L 580.45749 110.43942   L 580.22685 113.89906   L 579.95776 117.3587   L 579.65023 120.7799   L 579.45803 122.50972   L 579.22738 124.2011   L 578.99674 125.93092   L 578.76609 127.6223   L 572.73087 131.69699   L 566.69565 135.81012   L 560.66043 139.88481   L 554.62521 143.99794   L 548.58999 148.07263   L 542.55477 152.14731   L 536.55799 156.26044   L 530.52277 160.33513   L 524.48755 164.44826   L 518.45233 168.52295   L 512.41711 172.59763   L 506.38189 176.71076   L 500.34667 180.78545   L 494.34989 184.89858   L 488.31467 188.97327   L 482.27945 193.04796  z "
     id="path2651" />
  <path
     style="fill:#da251d;fill-rule:evenodd;fill-opacity:1;stroke:none;"
     d="  M 16.183616 66.771067   L 13.723399 13.492599   L 14.492217 13.53104   L 15.261035 13.56948   L 16.029853 13.646361   L 16.875552 13.723242   L 22.833891 17.759489   L 28.792229 21.757296   L 34.750568 25.793544   L 40.747347 29.829792   L 46.705686 33.866039   L 52.664024 37.863846   L 58.622363 41.900094   L 64.619142 45.936342   L 70.577481 49.972589   L 76.57426 53.970396   L 82.532598 58.006644   L 88.529378 62.042891   L 94.487716 66.079139   L 100.4845 70.076946   L 106.44283 74.113194   L 112.43961 78.149441   L 119.51274 73.613468   L 125.7786 69.615661   L 131.39097 66.040699   L 136.46517 62.8117   L 141.11652 59.813345   L 145.53722 56.968752   L 149.80416 54.239479   L 154.10954 51.471767   L 158.53024 48.627173   L 163.22003 45.590377   L 168.33267 42.246058   L 173.98348 38.594215   L 180.32623 34.481086   L 187.47624 29.829792   L 195.54883 24.525009   L 204.77464 18.566739   L 210.6561 22.257022   L 216.53755 25.985746   L 222.41901 29.71447   L 228.30047 33.404754   L 234.18192 37.133478   L 240.06338 40.862202   L 245.94484 44.590926   L 251.82629 48.31965   L 257.70775 52.048374   L 263.62765 55.777098   L 269.5091 59.505821   L 275.39056 63.234545   L 281.27202 66.963269   L 287.19192 70.691993   L 293.07337 74.420717   L 298.99327 78.149441   L 304.52876 74.459158   L 310.10269 70.768874   L 315.63818 67.078591   L 321.17367 63.388307   L 326.7476 59.698024   L 332.28308 56.00774   L 337.85701 52.317457   L 343.43094 48.627173   L 348.96643 44.93689   L 354.54036 41.246606   L 360.11429 37.556323   L 365.68822 33.866039   L 371.22371 30.175756   L 376.79764 26.485472   L 382.37157 22.795189   L 387.9455 19.104905   L 388.36835 19.066465   L 388.82964 19.028024   L 389.32937 18.989584   L 389.8291 18.989584   L 395.63368 22.679867   L 401.39981 26.370151   L 407.16594 30.060434   L 412.97052 33.750718   L 418.73665 37.441001   L 424.50279 41.131285   L 430.30736 44.821568   L 436.0735 48.550292   L 441.83963 52.240576   L 447.64421 55.930859   L 453.41034 59.621143   L 459.21491 63.311426   L 465.01949 67.04015   L 470.78562 70.730434   L 476.5902 74.420717   L 482.39477 78.149441   L 488.31467 74.113194   L 494.23457 70.076946   L 500.15447 66.079139   L 506.07436 62.042891   L 511.99426 58.006644   L 517.9526 53.970396   L 523.8725 49.972589   L 529.79239 45.936342   L 535.71229 41.900094   L 541.67063 37.863846   L 547.59053 33.866039   L 553.51043 29.829792   L 559.46876 25.793544   L 565.38866 21.757296   L 571.347 17.759489   L 577.30534 13.723242   L 578.07416 13.684801   L 578.88142 13.646361   L 579.68867 13.60792   L 580.49593 13.56948   L 581.34163 13.53104   L 582.14889 13.53104   L 582.95615 13.492599   L 583.80185 13.492599   L 583.64809 16.644716   L 583.53276 19.835274   L 583.379 22.987391   L 583.22524 26.139508   L 583.10991 29.291625   L 582.95615 32.482183   L 582.84083 35.6343   L 582.68706 38.824858   L 582.57174 41.976975   L 582.45642 45.129092   L 582.30266 48.31965   L 582.18733 51.471767   L 582.07201 54.662324   L 581.91825 57.852882   L 581.80292 61.004999   L 581.6876 64.195557   L 575.49862 68.385566   L 569.30963 72.575576   L 563.15909 76.804025   L 556.97011 80.994035   L 550.81956 85.184044   L 544.66902 89.374054   L 538.48004 93.564063   L 532.32949 97.754072   L 526.17895 101.94408   L 519.98997 106.17253   L 513.83942 110.36254   L 507.68888 114.55255   L 501.53834 118.74256   L 495.3878 122.93257   L 489.23725 127.12258   L 483.04827 131.31259   L 482.58698 131.31259   L 482.12569 131.31259   L 481.70284 131.31259   L 481.27999 131.31259   L 475.47541 127.6223   L 469.70928 123.89358   L 463.94314 120.2033   L 458.17701 116.47457   L 452.41088 112.78429   L 446.64474 109.05557   L 440.87861 105.36528   L 435.11247 101.675   L 429.34634 97.946275   L 423.58021 94.255991   L 417.85251 90.565708   L 412.08638 86.836984   L 406.32024 83.1467   L 400.55411 79.456417   L 394.82642 75.766133   L 389.06028 72.07585   L 383.40947 75.804574   L 377.75866 79.533298   L 372.10785 83.262022   L 366.45704 86.990746   L 360.80623 90.719469   L 355.15542 94.448193   L 349.5046 98.176917   L 343.85379 101.94408   L 338.20298 105.67281   L 332.55217 109.40153   L 326.90136 113.13025   L 321.25055 116.85898   L 315.59974 120.5877   L 309.94892 124.31643   L 304.29811 128.04515   L 298.6473 131.77387   L 292.80429 128.04515   L 286.92283 124.31643   L 281.07981 120.5877   L 275.2368 116.85898   L 269.39378 113.13025   L 263.51233 109.40153   L 257.66931 105.67281   L 251.82629 101.94408   L 245.98328 98.176917   L 240.14026 94.448193   L 234.29725 90.719469   L 228.45423 86.990746   L 222.61121 83.262022   L 216.7682 79.533298   L 210.92518 75.804574   L 205.08217 72.07585   L 112.67026 132.00452  z "
     id="path2653" />
  <path
     style="fill:#ffffff;fill-rule:evenodd;fill-opacity:1;stroke:none;"
     d="  M 107.4423 66.655746   L 102.21434 63.119224   L 96.986374 59.582702   L 91.758413 56.084621   L 86.530451 52.548099   L 81.30249 49.050018   L 76.074528 45.513497   L 70.846567 42.015415   L 65.618605 38.478894   L 60.390644 34.942372   L 55.201123 31.444291   L 49.973162 27.907769   L 44.7452 24.409688   L 39.555679 20.873166   L 34.327718 17.336644   L 29.138197 13.838563   L 39.786325 13.800123   L 50.434452 13.800123   L 61.08258 13.761682   L 71.730707 13.761682   L 82.378835 13.761682   L 93.065403 13.761682   L 103.71353 13.723242   L 114.36166 13.723242   L 125.04823 13.723242   L 135.69635 13.723242   L 146.34448 13.723242   L 157.03105 13.723242   L 167.67918 13.723242   L 178.36575 13.723242   L 189.05231 13.723242   L 199.70044 13.723242   L 194.28028 17.221323   L 188.82167 20.757845   L 183.4015 24.294366   L 177.9429 27.792448   L 172.52273 31.328969   L 167.06412 34.865491   L 161.64396 38.363572   L 156.18535 41.900094   L 150.72674 45.436616   L 145.30658 48.934697   L 139.84797 52.471219   L 134.4278 56.00774   L 128.9692 59.544262   L 123.54903 63.080784   L 118.09042 66.617305   L 112.67026 70.153827  z "
     id="path2655" />
  <path
     style="fill:#ffffff;fill-rule:evenodd;fill-opacity:1;stroke:none;"
     d="  M 293.11181 66.655746   L 287.61477 63.119224   L 282.07928 59.582702   L 276.54379 56.084621   L 271.04674 52.548099   L 265.51125 49.050018   L 259.97576 45.513497   L 254.47872 42.015415   L 248.94323 38.478894   L 243.40774 34.942372   L 237.87225 31.444291   L 232.3752 27.907769   L 226.83971 24.409688   L 221.30422 20.873166   L 215.80718 17.336644   L 210.27169 13.838563   L 221.11202 13.800123   L 231.95235 13.800123   L 242.79268 13.761682   L 253.63302 13.761682   L 264.47335 13.761682   L 275.27524 13.761682   L 286.11557 13.723242   L 296.9559 13.723242   L 307.79623 13.723242   L 318.63657 13.723242   L 329.4769 13.723242   L 340.31723 13.723242   L 351.15756 13.723242   L 361.99789 13.723242   L 372.83823 13.723242   L 383.67856 13.723242   L 378.33527 17.221323   L 373.03043 20.757845   L 367.72559 24.294366   L 362.42074 27.792448   L 357.07746 31.328969   L 351.77262 34.865491   L 346.46777 38.363572   L 341.16293 41.900094   L 335.85809 45.436616   L 330.5148 48.934697   L 325.20996 52.471219   L 319.90512 56.00774   L 314.60027 59.544262   L 309.29543 63.080784   L 303.95215 66.617305   L 298.6473 70.153827  z "
     id="path2657" />
  <path
     style="fill:#ffffff;fill-rule:evenodd;fill-opacity:1;stroke:none;"
     d="  M 476.47488 66.617305   L 470.97783 63.080784   L 465.48078 59.544262   L 460.02217 56.00774   L 454.52513 52.471219   L 449.02808 48.934697   L 443.56947 45.436616   L 438.07242 41.900094   L 432.61382 38.363572   L 427.11677 34.865491   L 421.61972 31.328969   L 416.16111 27.792448   L 410.66407 24.294366   L 405.20546 20.757845   L 399.70841 17.221323   L 394.2498 13.723242   L 404.93637 13.723242   L 415.62294 13.723242   L 426.30951 13.723242   L 436.99608 13.723242   L 447.72109 13.723242   L 458.40766 13.723242   L 469.09422 13.723242   L 479.81923 13.723242   L 490.5058 13.723242   L 501.23081 13.723242   L 511.91738 13.723242   L 522.64239 13.723242   L 533.3674 13.723242   L 544.05397 13.723242   L 554.77898 13.723242   L 565.46554 13.723242   L 560.23758 17.221323   L 555.00962 20.757845   L 549.78166 24.294366   L 544.5537 27.792448   L 539.32574 31.328969   L 534.13622 34.865491   L 528.90825 38.363572   L 523.68029 41.900094   L 518.45233 45.436616   L 513.22437 48.934697   L 507.99641 52.471219   L 502.76845 56.00774   L 497.57893 59.544262   L 492.35096 63.080784   L 487.16144 66.617305   L 481.93348 70.153827  z "
     id="path2659" />
<!-- EMR_SELECTPALETTE --><!-- EMR_EXTSELECTCLIPRGN --></svg>
