<svg xmlns="http://www.w3.org/2000/svg" width="794.19" height="888.89" viewBox="0 0 794.19333 888.88867" xmlns:xlink="http://www.w3.org/1999/xlink"><defs><path id="0" d="m235.51 414.06c3 .048 5.998.354 8.947.915 5.6 1.066 10.993 3.041 16.199 5.362 4.556 2.031 8.987 4.331 13.416 6.625 5.242 2.715 10.495 5.429 15.949 7.689 3.487 1.444 7.06 2.703 10.728 3.586 3.9.938 7.904 1.448 11.915 1.518" stroke="#000" stroke-miterlimit="4.3" fill-rule="evenodd" fill="none" stroke-linecap="round" stroke-width="5"/><path id="1" d="m240.11 437.89c2.287.034 4.572.259 6.822.671 4.259.78 8.372 2.226 12.352 3.932 3.47 1.488 6.851 3.175 10.23 4.858 4 1.993 8.01 3.984 12.162 5.638 2.663 1.061 5.387 1.983 8.18 2.629 2.978.689 6.03 1.063 9.09 1.113" stroke="#000" stroke-miterlimit="4.3" fill-rule="evenodd" fill="none" stroke-linecap="round" stroke-width="5"/><path id="2" d="m245.19 460.93c1.567.021 3.133.163 4.679.425 2.907.492 5.73 1.405 8.472 2.489 2.375.939 4.696 2.01 7.02 3.076 2.748 1.264 5.502 2.526 8.341 3.569 1.832.674 3.701 1.256 5.61 1.665 2.047.438 4.138.674 6.231.705" stroke="#000" stroke-miterlimit="4.3" fill-rule="evenodd" fill="none" stroke-linecap="round" stroke-width="5"/><path id="3" d="m242.93 449.43c1.986.029 3.97.219 5.925.568 3.693.66 7.266 1.882 10.728 3.328 3.01 1.258 5.949 2.687 8.885 4.112 3.477 1.688 6.96 3.374 10.563 4.772 2.316.899 4.681 1.679 7.104 2.226 2.588.584 5.237.901 7.89.943" stroke="#000" stroke-miterlimit="4.3" fill-rule="evenodd" fill="none" stroke-linecap="round" stroke-width="5"/><path id="4" d="m237.89 425.62c2.607.04 5.211.301 7.775.78 4.86.908 9.547 2.591 14.08 4.573 3.957 1.731 7.808 3.693 11.659 5.65 4.557 2.317 9.124 4.632 13.86 6.558 3.03 1.233 6.136 2.306 9.322 3.058 3.392.801 6.869 1.236 10.354 1.295" stroke="#000" stroke-miterlimit="4.3" fill-rule="evenodd" fill="none" stroke-linecap="round" stroke-width="5"/></defs><g transform="translate(7.273-54.12)"><path d="m-1.773 59.62v542.71 18.229c11.682 177.46 183.94 316.88 391.6 316.96 207.41-.217 379.76-139.72 391.6-316.96v-18.229-542.71h-391.6z" fill="#03f" fill-rule="evenodd"/><path d="m668.35 5.5l-645.46 642.68c18.624 50.67 50.885 96.07 92.99 133.17l672.8-669.91v-105.94h-120.34z" transform="translate(-7.273 54.12)" fill="#ffd700" stroke="#000" stroke-linejoin="round" stroke-linecap="round" stroke-width="8"/><path d="m-648.42 149.24l-36.38 9.514 9.949 36.26-26.429-26.747-26.429 26.747 9.949-36.26-36.38-9.514 36.38-9.514-9.949-36.26 26.429 26.747 26.429-26.747-9.949 36.26z" transform="matrix(3.16078 0 0 3.18429 2403.5-235.43)" fill="#ffd700" stroke="#000" stroke-linejoin="round" stroke-linecap="round" stroke-width="2.522" id="5"/><use transform="translate(345.71 455.92)" xlink:href="#5"/><g fill-rule="evenodd" stroke="#000"><path d="m85.92 345.85c-12.761-.177-25.22 4.477-36.84 9.904-12.396 5.789-24.482 12.589-37.758 15.893-1.923.479-3.868.871-5.822 1.195v99.56c1.955-.324 3.899-.717 5.822-1.195 13.276-3.303 25.362-10.1 37.758-15.893 12.396-5.789 25.745-10.7 39.4-9.805 13.648.895 26.17 7.475 38.37 13.666 12.196 6.191 25.11 12.268 38.783 12.03 13.687-.237 26.374-6.76 38.525-13.06 12.151-6.304 24.942-12.695 38.631-12.633 13.693.062 26.423 6.57 38.562 12.904 12.14 6.334 24.899 12.808 38.592 12.793 13.694-.015 26.437-6.518 38.574-12.859 12.137-6.341 24.888-12.838 38.582-12.838 13.694 0 26.443 6.496 38.58 12.838 12.137 6.341 24.88 12.844 38.574 12.859 13.693.015 26.452-6.459 38.592-12.793 12.14-6.334 24.87-12.842 38.563-12.904 13.689-.062 26.48 6.329 38.631 12.633 12.151 6.304 24.838 12.828 38.525 13.06 13.676.237 26.587-5.84 38.783-12.03 12.196-6.191 24.723-12.771 38.37-13.666 13.652-.895 27 4.02 39.4 9.805 12.396 5.789 24.482 12.589 37.758 15.893 1.923.479 3.868.871 5.822 1.195v-99.56c-1.955-.324-3.899-.717-5.822-1.195-13.276-3.303-25.362-10.1-37.758-15.893-12.396-5.789-25.745-10.698-39.4-9.803-13.648.895-26.17 7.473-38.37 13.664-12.196 6.191-25.11 12.268-38.783 12.03-13.687-.237-26.374-6.76-38.525-13.06-12.151-6.304-24.942-12.693-38.631-12.631-13.693.062-26.423 6.568-38.563 12.902-12.14 6.334-24.899 12.808-38.592 12.793-13.694-.015-26.437-6.518-38.574-12.859-12.137-6.341-24.886-12.836-38.58-12.836-13.694 0-26.445 6.495-38.582 12.836-12.137 6.341-24.88 12.844-38.574 12.859-13.693.015-26.452-6.459-38.592-12.793-12.14-6.334-24.87-12.84-38.562-12.902-13.689-.062-26.48 6.327-38.631 12.631-12.151 6.304-24.838 12.828-38.525 13.06-13.676.237-26.587-5.84-38.783-12.03-12.196-6.191-24.723-12.769-38.37-13.664-.853-.056-1.706-.09-2.557-.102z" transform="translate(-7.273 54.12)" fill="#fff" stroke-width="8"/><path d="m-1.773 59.62v542.71 18.229c11.682 177.46 183.94 316.88 391.6 316.96 207.41-.217 379.76-139.72 391.6-316.96v-18.229-542.71h-391.6z" fill="none" stroke-width="11"/></g><g><use xlink:href="#0"/><use xlink:href="#4"/><use xlink:href="#1"/><use xlink:href="#3"/><use xlink:href="#2"/></g><g transform="translate(154.31)"><use xlink:href="#0"/><use xlink:href="#4"/><use xlink:href="#1"/><use xlink:href="#3"/><use xlink:href="#2"/></g><g transform="translate(-156.87)"><use xlink:href="#0"/><use xlink:href="#4"/><use xlink:href="#1"/><use xlink:href="#3"/><use xlink:href="#2"/></g><g transform="translate(342.48 24.415)"><g transform="translate(123.01-24.415)"><use xlink:href="#0"/><use id="6" xlink:href="#4"/><use xlink:href="#1"/><use xlink:href="#3"/><use xlink:href="#2"/></g><g transform="translate(-33.858-24.415)"><use xlink:href="#0"/><use xlink:href="#6"/><use xlink:href="#1"/><use xlink:href="#3"/><use xlink:href="#2"/></g></g></g></svg>