<svg height="209.34361mm" viewBox="0 0 658.17913 741.7687" width="185.75278mm" xmlns="http://www.w3.org/2000/svg"><g transform="translate(-5.168849 -19.401636)"><path d="m326.45791-42.952295.602 416.624475c-7.415 175.24982-145.9199 314.04612-323.5894023 314.14422-177.5096977-.2149-316.0693977-139.0612-323.5893977-314.14422l.602-416.624475h322.9793977z" fill="#fd0" fill-rule="evenodd" transform="translate(330.78791 67.853932)"/><path d="m606.67161 73.036715.50774 361.739105c-6.25394 152.16273-123.07138 272.67425-272.92092 272.75943-149.71477-.18659-266.57844-120.74152-272.92094-272.75943l.50774-361.739105h272.40645z" fill="#fff" fill-rule="evenodd"/><path d="m329.08203 65.414062v610.939458c.00261 0 .0052-.00001.00781 0 144.28555-.08202 256.76538-116.11801 262.78711-262.63086l-.48828-348.308598h-262.30469z" fill-rule="evenodd" transform="translate(5.168849 19.401636)"/><path d="m56.675781 53.634766-.507812 361.740234c6.342389 152.01526 123.203051 272.56703 272.914061 272.75781v-634.498044z" fill="#0066b3" fill-rule="evenodd" stroke="#000" stroke-linejoin="round" stroke-width="8" transform="translate(5.168849 19.401636)"/><path d="m168.87305 53.634766v282.785154h-112.593753l-.082031 57.42578h112.675784v240.9961c17.61359 13.21687 36.86142 24.28029 57.42383 32.8457v-273.8418h102.78515v-57.42578h-102.78515v-282.785154z" fill="#fff" stroke="#000" stroke-linecap="round" stroke-linejoin="round" stroke-width="8" transform="translate(5.168849 19.401636)"/><path d="m61.844629 73.036403-.50781 361.740237c6.34239 152.01526 123.203051 272.56703 272.914061 272.75781v-634.498047z" fill="none" stroke="#000" stroke-linejoin="round" stroke-width="8"/><path d="m6.1015625 5.5-.2558594 177.22656h50.8300779v-129.091794z" fill="#0066b3" stroke="#000" stroke-linecap="round" stroke-linejoin="round" stroke-width="8" transform="translate(5.168849 19.401636)"/><path d="m187.45117 5.5v48.134766h141.63086v-48.134766z" fill="#0066b3" stroke="#000" stroke-linecap="round" stroke-linejoin="round" stroke-width="8" transform="translate(5.168849 19.401636)"/><path d="m601.68359 182.72656.19922 141.63086h50.44922v-141.63086z" fill="#0066b3" stroke="#000" stroke-linecap="round" stroke-linejoin="round" stroke-width="8" transform="translate(5.168849 19.401636)"/><path d="m470.71289 5.5v48.134766h130.78906l50.57422-48.134766z" fill="#0066b3" fill-rule="evenodd" stroke="#000" stroke-linejoin="round" stroke-width="8" transform="translate(5.168849 19.401636)"/><path d="m8.5410156 324.35742-2.9003906.25391-.1152344 80.16601-.0253906 17.34766c.8632779 20.09911 3.4745741 39.71206 7.652344 58.70117l49.24414-15.51367c-3.39526-16.16564-5.515613-32.85057-6.228515-49.9375l.03125-22.29297.095703-68.71875c-15.916142.29704-31.837854.29595-47.7539064-.00586z" fill="#0066b3" fill-rule="evenodd" stroke="#000" stroke-linejoin="round" stroke-width="8" transform="translate(5.168849 19.401636)"/><path d="m450.40234 659.23242c-36.29892 18.48807-77.38231 28.87542-121.3125 28.90039v48.13672c50.53638-.0279 97.89495-11.29209 139.97852-31.41015z" fill="#0066b3" fill-rule="evenodd" stroke="#000" stroke-linejoin="round" stroke-width="8" transform="translate(5.168849 19.401636)"/><path d="m108.10742 571.7168-39.363279 32.80273c31.140801 42.64263 72.337099 77.21564 120.412109 100.23047l18.62109-45.51758c11.58679 5.90148 23.66336 10.97326 36.16211 15.15039l.0293-.06054c-55.51264-18.58966-102.65586-54.92132-135.86133-102.60547z" fill="#0066b3" fill-rule="evenodd" stroke="#000" stroke-linejoin="round" stroke-width="8" transform="translate(5.168849 19.401636)"/><path d="m61.844631 73.036395-.50781 361.740245c6.342389 152.01526 123.203049 272.56703 272.914059 272.75781v-634.498055z" fill="none" stroke="#000" stroke-linejoin="round" stroke-width="8"/><path d="m511.69141 264.08398c-4.82128-.082-9.20078 4.24725-10.02735 10.14258-.0825.58885-.0625 1.20103.0156 1.81836-.61475-.18038-1.24391-.31824-1.88086-.41211-6.28719-.88024-11.97316 2.61283-12.70117 7.80274-.72851 5.19136 3.77948 10.11473 10.06836 10.99609 3.49863.48536 6.98641-.38389 9.45898-2.35742-.003.0239-.007.0464-.01.0703-.54229 2.89426-1.04583 5.87-2.51171 8.42383-1.88857 3.29028-5.35335 5.60719-9.10547 6.16797-1.25786.18799-2.56083.18721-3.78321-.16406-1.22228-.35125-2.3621-1.0726-3.07617-2.125-.46642-.68742-.73811-1.48796-1.13672-2.2168-.19936-.36444-.43253-.71444-.72656-1.00781-.29404-.29337-.65305-.52956-1.05273-.64258-.50244-.1421-1.04651-.0804-1.53516.10351-.48866.18398-.92578.48643-1.32227.82618-.79296.67949-1.45369 1.52466-2.34765 2.06445-1.07376.64836-2.40471.78839-3.63672.55273-1.23202-.23565-2.37489-.82238-3.4043-1.53906-1.78713-1.24419-3.28913-2.91034-4.28711-4.8457-.99829-1.9354-1.48364-4.13853-1.32812-6.31055.12808-1.78813.69594-3.55702 1.71875-5.0293 1.023-1.47225 2.5106-2.63546 4.21875-3.17968 1.4399-.45878 3.01856-.47142 4.46484-.0332 1.44638.43826 2.75215 1.325 3.69531 2.50586.43291-.94056.61841-1.99363.53125-3.02539-.0872-1.03176-.44473-2.03991-1.02929-2.89453-.65898-.96343-1.59005-1.72135-2.61524-2.2793-1.0253-.55796-2.14648-.92564-3.27929-1.20703-1.62988-.40488-3.32333-.63619-4.99024-.43164-2.29735.28189-4.48047 1.42103-6.02539 3.14453.064-2.63286-.69421-5.28084-2.14258-7.48047-1.21234-1.84113-2.93658-3.38582-5.00195-4.15625-1.8271-.68155-3.83272-.73622-5.77344-.54492-2.9886.29459-5.9186 1.15497-8.59375 2.51953 2.98296 2.1986 5.58364 4.91115 7.6543 7.98438 3.95065 5.86347 5.87279 12.82707 7.61328 19.67969 1.11552 4.39191 2.18091 8.79548 3.19922 13.21093 7.65871.08 15.29535.81455 22.9082 1.61524 11.65141 1.22545 23.27022 2.79138 34.83789 4.66015 2.64942-3.07176 5.88479-5.68635 9.68164-7.07421 1.03504-.37835 2.10526-.66236 3.19141-.84961-.0344-.0548-.062-.11407-.0977-.16797-.28783-.43563-.6237-.84699-1.04296-1.15821-.41927-.31118-.92903-.52001-1.45118-.52148-.41536-.001-.82435.1288-1.1875.33008-.36354.20123-.68276.47198-.97461.76758-.58359.59121-1.06572 1.28561-1.70312 1.81836-.97582.8156-2.26927 1.19744-3.54102 1.19921-1.27185.002-2.5239-.35438-3.68164-.88086-3.45348-1.57047-6.14907-4.7529-7.06054-8.43554-.70749-2.85838-.37179-5.85527-.0977-8.78711.003-.0239.007-.0484.01-.0723 1.83397 2.57669 4.94711 4.37127 8.44335 4.86719 6.28952.88223 11.97841-2.61245 12.70508-7.80469.72701-5.19124-3.78172-10.11358-10.07031-10.99414-.63625-.0853-1.27717-.12647-1.91602-.12304.2441-.57167.42868-1.1539.51172-1.74219.88055-6.28755-2.61251-11.97143-7.80273-12.69922l-.008-.002c-.32444-.0455-.64734-.0707-.96875-.0762zm54.42773 18.45508c-.24269-.00037-.48551.008-.72852.0274-2.19758.17308-4.27948 1.18409-5.95117 2.62109-1.99716 1.71681-3.45504 4.05448-4.11718 6.60352-1.0117-2.08175-2.79635-3.77721-4.92774-4.67969-1.54649-.65483-3.23958-.89638-4.91797-.95508-1.16653-.0408-2.34326.005-3.48242.25977-1.13907.25469-2.24418.72745-3.14258 1.47265-.79695.66104-1.41775 1.52999-1.78515 2.49805-.36739.96806-.47999 2.03136-.32227 3.05469 1.2314-.87615 2.73301-1.36875 4.24414-1.39258 1.51103-.0238 3.02684.42269 4.28516 1.25976 1.49278.99275 2.60095 2.5201 3.17968 4.2168.57885 1.69672.63787 3.55218.26954 5.30664-.44747 2.13111-1.52013 4.11663-3.01172 5.70313s-3.39285 2.7754-5.45313 3.48046c-1.18674.40614-2.44597.65502-3.69531.54297-1.08064-.0969-2.15504-.48468-2.97852-1.18164-.74237 2.43682-.8136 5.08146-.12304 7.53516.0117.0418.0289.0814.041.12305 5.43056 1.01401 10.84091 2.14264 16.16797 3.60546 2.19272-3.9655 4.43123-7.90612 6.71094-11.82226 3.55695-6.11031 7.31646-12.27829 12.72656-16.83008 2.83561-2.38572 6.08427-4.28019 9.55664-5.57422-2.19705-2.04729-4.78169-3.68047-7.57422-4.78515-1.58671-.62769-3.27187-1.08724-4.9707-1.08985zm-194.77148 1.92969s2.61556 2.29877 3.55664 3.73828c1.31601 2.01306 1.13784 4.90739 2.79297 6.65235.92302.97311 2.29322 1.5633 3.62109 1.75195 1.19441.16964 2.60625.12233 3.56836-.60547 1.0533-.7968 1.68442-2.25944 1.70117-3.58008.0156-1.2298-.71564-2.42217-1.49805-3.37109-1.16488-1.41272-2.80308-2.46345-4.50195-3.14649-2.89213-1.16281-9.24023-1.43945-9.24023-1.43945zm-23.54102 10.47461c-.92983.006-1.86314.12504-2.75586.32812-3.03947.69147-8.41406 4.07813-8.41406 4.07813s3.45932.39966 5.05273 1.04687c2.22825.90509 3.7297 3.38539 6.08399 3.87696 1.31291.27414 2.77767-.0218 3.97656-.62305 1.07837-.54085 2.20966-1.3831 2.58594-2.5293.41194-1.25484.0997-2.81511-.63867-3.91015-.68759-1.01973-1.96876-1.58366-3.15235-1.91797-.88105-.24886-1.80844-.35548-2.73828-.34961zm-6.32226 32.01367c-.92985.006-1.86315.12504-2.75586.32813-3.03947.69147-8.41407 4.07812-8.41407 4.07812s3.45737.39967 5.05078 1.04688c2.22825.90509 3.73165 3.38733 6.08594 3.8789 1.31291.27414 2.77572-.0238 3.97461-.625 1.07837-.54085 2.21161-1.38309 2.58789-2.52929.41194-1.25484.0978-2.81512-.64062-3.91016-.68759-1.01973-1.96876-1.58366-3.15235-1.91797-.88105-.24886-1.8065-.35548-2.73632-.34961zm67.01953 18.62695s-6.96145 1.29829-9.42188 3.5879c-2.939 2.73493-4.60836 6.93179-5.08594 10.91796-.39312 3.28119.23886 6.89269 1.94532 9.72266 1.95802 3.24716 5.41905 5.50957 8.82421 7.17773 2.57378 1.26087 5.51187 1.81651 8.375 1.94532 7.59265.34158 15.10259-1.80137 22.58399-3.14063 6.17974-1.10625 12.12772-3.6648 18.39453-4.03906 5.14988-.30756 10.33364.55564 15.40625 1.49609 2.39036.44317 4.69775 2.6319 7.0293 1.94336.57574-.17002 1.00762-.77548 1.19531-1.3457.34433-1.04609.0795-2.25479-.29883-3.28906-.41812-1.143-1.1224-2.25887-2.09375-2.99219-2.18944-1.6529-5.09176-2.13161-7.77734-2.69141-3.76933-.78571-7.67052-1.09933-11.51563-.89843-3.84737.20102-7.56131 1.49542-11.36718 2.09375-5.71156.89792-11.42065 2.0535-17.19922 2.24414-4.69321.15484-9.8718 1.22779-14.0586-.89844-2.77733-1.41044-5.02709-4.21291-5.98242-7.17774-1.50221-4.66204 1.04688-14.65625 1.04688-14.65625zm-68.22657 8.13868s1.45094 6.18679 3.13086 8.8125c.98683 1.54237 2.32513 2.95579 3.92969 3.83789 1.07777.59251 2.38437 1.09151 3.58984.84765 1.29454-.26184 2.61397-1.15292 3.20118-2.33593.53635-1.08059.3203-2.47703-.0684-3.61915-.43209-1.26969-1.26492-2.50824-2.39258-3.23437-2.0221-1.30209-4.83411-.58875-7.05664-1.50781-1.5893-.65722-4.33399-2.80078-4.33399-2.80078zm10.30469 256.65039c-1.22691-.0857-2.45921.57761-3.45117 1.30468-1.47682 1.08247-2.61966 2.65923-3.39844 4.31641-1.32576 2.82114-1.96289 9.14258-1.96289 9.14258s2.44278-2.48039 3.93359-3.33789c2.08479-1.19914 4.96433-.85521 6.80079-2.40821 1.02413-.86603 1.69108-2.20258 1.95507-3.51757.23745-1.18279.2714-2.59562-.40039-3.59766-.73546-1.097-2.15903-1.81035-3.47656-1.90234zm59.25 12.75c-.34026.003-.67439.0471-.99219.13672-1.16116.32724-2.05249 1.42215-2.63867 2.47656-.65168 1.17226-1.00911 2.62194-.79101 3.94531.3911 2.37305 2.80564 3.97944 3.61523 6.24414.57892 1.61947.83203 5.0918.83203 5.0918s3.61164-5.22508 4.43164-8.23242c.48166-1.76656.63529-3.70858.21289-5.49024-.28372-1.19672-.7936-2.50017-1.7832-3.23047-.797-.58821-1.86593-.94903-2.88672-.9414zm-50.7168 21.1582c-1.02079-.008-2.08971.3532-2.88671.94141-.9896.7303-1.49949 2.0357-1.78321 3.23242-.42239 1.78166-.27073 3.72172.21094 5.48828.81999 3.00734 4.43359 8.23437 4.43359 8.23437s.25312-3.47428.83204-5.09375c.80959-2.2647 3.22413-3.87109 3.61523-6.24414.2181-1.32337-.13934-2.7711-.79102-3.94336-.58618-1.05441-1.47751-2.15127-2.63867-2.47851-.3178-.0896-.65193-.13418-.99219-.13672zm26.8418 3.49414c-.70848.0391-1.39727.21151-1.95117.60352-1.07805.76298-1.75387 2.20399-1.8125 3.52343-.0546 1.22868.63869 2.44276 1.39062 3.41602 1.11948 1.44897 2.72404 2.55245 4.4004 3.28906 2.85376 1.25398 9.18945 1.73242 9.18945 1.73242s-2.54061-2.38096-3.43555-3.84961c-1.25148-2.0538-.98309-4.94169-2.58203-6.73828-.89167-1.00189-2.2432-1.63458-3.56445-1.86523-.29711-.0519-.60891-.0914-.92383-.10938-.23619-.0135-.47478-.015-.71094-.002z" fill="#ed1c24" fill-rule="evenodd" stroke="#da121a" stroke-linecap="round" stroke-linejoin="round" transform="translate(5.168849 19.401636)"/><ellipse cx="377.069" cy="360.07449" fill="#ed1c24" rx="4.180904" ry="6.612981" stroke="#000" stroke-linecap="round" stroke-linejoin="round" stroke-width="2.008033" transform="matrix(.99352984 -.11357141 .23796852 .97127287 0 0)"/><ellipse cx="-656.9516" cy="81.383736" fill="#ed1c24" rx="4.180904" ry="6.612981" stroke="#000" stroke-linecap="round" stroke-linejoin="round" stroke-width="2.008033" transform="matrix(-.92404842 -.38227545 -.49576396 .86845731 0 0)"/><ellipse cx="552.16809" cy="229.43605" fill="#ed1c24" rx="5.709991" ry="6.404449" stroke="#000" stroke-linecap="round" stroke-linejoin="round" stroke-width="2" transform="matrix(.9903245 .13877097 -.13877097 .9903245 0 0)"/><path d="m649.98916 499.97391c-1.97707 9.05513-4.33725 18.02661-7.07211 26.88239-1.34522 4.35596-2.78104 8.68392-4.30526 12.98051-2.28058 6.42866-4.75911 12.78713-7.43254 19.0626-2.91189 6.83524-6.055 13.57199-9.42302 20.19438-3.65265 7.18205-7.56984 14.22958-11.74206 21.12278-2.61542 4.3211-5.33103 8.58157-8.14431 12.77654-2.41927 3.60744-4.91076 7.16645-7.47249 10.67416l-39.36328-32.80273c2.95716-4.23039 5.79561-8.54376 8.5109-12.93332 1.76801-2.85818 3.48379-5.74864 5.14859-8.66814 1.14573-2.00924 2.26733-4.03224 3.36426-6.06853 2.50608-4.65216 4.88342-9.37364 7.12963-14.15669 2.26218-4.81705 4.39135-9.69654 6.38531-14.63066 1.45647-3.60407 2.8408-7.23729 4.15222-10.89663 1.67035-4.66089 3.2224-9.36416 4.65565-14.10333.97512-3.22433 1.89527-6.46529 2.75904-9.72121 1.33756-5.04183 2.53991-10.11952 3.60534-15.22579z" style="fill:#0066b3;fill-rule:evenodd;stroke:#000;stroke-width:8;stroke-linecap:round;stroke-linejoin:round"/><path d="m657.24582 24.901636.602 416.624474c-7.415 175.24982-145.9199 314.04612-323.5894 314.14422-177.5097-.2149-316.0694-139.0612-323.5894-314.14422l.602-416.624474h322.9794z" fill="none" stroke="#000" stroke-width="11"/><path d="m606.67161 73.036717.50774 361.739103c-6.25394 152.16273-123.07138 272.67425-272.92092 272.75943-149.71477-.18659-266.57844-120.74152-272.92094-272.75943l.50774-361.739103h272.40645z" fill="none" stroke="#000" stroke-linejoin="round" stroke-width="8"/><path d="m518.33487 345.01686c1.36968-3.30864 3.26213-6.40024 5.58567-9.125 1.07814-1.2643 2.25087-2.45222 3.54787-3.49079 1.85412-1.48468 3.94853-2.65242 6.13377-3.58342 1.00054-.42627 2.02699-.80568 3.09371-1.01758 1.1252-.22352 2.28784-.25734 3.42413-.0996-.57578.96692-1.03583 2.00269-1.36719 3.07817-.39244 1.27372-.60411 2.60491-.60109 3.93772.003 1.21269.18258 2.42129.47805 3.59744.39256 1.56265.99012 3.07368 1.77253 4.48216" fill="none" stroke="#000" stroke-linejoin="round" stroke-width="3"/><path d="m370.9043 294.83398c-.10948.00482-.21916.01919-.32618.04297-.42804.0951-.81989.34391-1.08984.68946-.23554.3015-.37756.67035-.43359 1.04882-.056.37846-.02903.76562.04687 1.14063.15163.75001.49525 1.44457.78125 2.1543.36858.91464.64591 1.86579 1.04492 2.76757.399.90178.93673 1.76904 1.72071 2.36719.5342.40758 1.16562.67649 1.81836.83594.65274.15946 1.32808.21376 2 .21875 1.74887.013 3.49957-.3015 5.13476-.92188-.33601.8588-.88339 1.6341-1.58008 2.23829-.46368.40212-.99673.73103-1.58007.92187-.60413.19764-1.24929.24278-1.85743.42773-.30406.0925-.60013.22092-.85546.41016-.25534.18924-.46959.44225-.58008.74024-.10833.29215-.11193.6194-.03711.92187.0748.30246.22605.58224.41992.82617.38775.48785.92873.82426 1.46094 1.14844.95783.58343 1.92338 1.15531 2.89648 1.71289 2.28267-1.31493 4.37538-2.96092 6.18945-4.87109 2.05445-2.16327 3.75071-4.66476 5.00196-7.37305-2.34569-.26452-4.677-.66092-6.97852-1.18555-2.97753-.67873-5.93833-1.58827-8.55664-3.16015-1.34339-.80649-2.58607-1.78205-3.6875-2.89649-.29317-.14902-.6247-.21951-.95312-.20508zm-12.03321 4.26563c-.1035 1.15338-.43411 2.28529-.96875 3.3125-1.12976 2.17061-3.09813 3.77827-5.13476 5.13477-1.46298.9744-3.02233 1.86606-4.74024 2.23828-1.1364.24622-2.32419.25696-3.46484.03125.0115 1.94547.37527 3.88843 1.06641 5.70703.28942.76156.63971 1.50875 1.13671 2.15429.49701.64553 1.15055 1.18716 1.91993 1.45508.61818.21527 1.29111.24647 1.93945.15625.64835-.0902 1.27513-.2979 1.87891-.55078 1.24078-.51967 2.39881-1.23396 3.42187-2.10742-.54391 1.71138-.44824 3.61899.26367 5.26758.51373 1.18966 1.34112 2.24099 2.3711 3.02734 1.15475.8816 2.56287 1.44036 3.55468 2.50195.80392.86047 1.27677 2.02384 1.30079 3.20118.024 1.17733-.40179 2.35745-1.16993 3.25-.18082-1.13398-.80484-2.19108-1.71093-2.89649-.77728-.60513-1.72273-.94261-2.625-1.33789s-1.81065-.88483-2.37891-1.68945c-.59038-.83593-.74601-1.91594-1.31641-2.76563-.45598-.67924-1.17172-1.17834-1.96679-1.37109-.79508-.19274-1.66055-.07669-2.37696.31836.37655 1.3768.60843 2.79185.69141 4.2168.10906 1.87279-.04271 3.77121-.57422 5.57031-.30096 1.01877-.72544 2.00863-1.32617 2.88476-.60073.87612-1.38217 1.63725-2.31445 2.14649-.78301.4277-1.6671.67149-2.5586.70703-.24248.80232-.18661 1.69242.15235 2.45898s.95818 1.40512 1.71484 1.76563c.56979.27148 1.20884.38505 1.83984.37109.63101-.014 1.25548-.15273 1.84766-.37109 1.66526-.61406 3.06219-1.84036 4.08203-3.29297.67217-.95741 1.19798-2.02167 1.97461-2.89648.98395-1.10834 2.35605-1.86414 3.81836-2.10547-.90362 1.33853-1.61614 2.8053-2.10742 4.34375-.26589.83265-.46729 1.69183-.51758 2.56445-.0503.87263.05536 1.76148.38672 2.57031.32494.7932.85523 1.48754 1.44726 2.10742.98125 1.02741 2.1469 1.87916 3.42383 2.50196-.66129.41627-1.46204.60786-2.24023.53711-.7782-.0707-1.53008-.4049-2.10547-.9336-.29828-.27407-.54605-.59555-.81055-.90234s-.55115-.60337-.90039-.80859c-.60782-.35716-1.36407-.40366-2.05078-.24415-.6867.15952-1.31338.50902-1.89844.90235-1.21207.81487-2.32204 1.89948-2.76562 3.29101-.37293 1.16991-.22611 2.49518.39453 3.55469 1.46904-.13083 2.97825.24793 4.21289 1.05469 1.51218.98811 2.58022 2.59407 3.0293 4.34375.34074 1.32757.34077 2.7276.13086 4.08203-.22211 1.43312-.67682 2.82941-1.34375 4.11719.90175.8863 2.18955 1.36493 3.45117 1.28125.93869-.0623 1.83981-.41897 2.64453-.90625s1.52227-1.10287 2.22656-1.72656c1.53784-1.36184 3.0405-2.78984 4.21289-4.47657 1.28044-1.84218 2.14247-3.97497 2.50196-6.18945.62591 1.49629.8494 3.15889.64257 4.76758s-.84406 3.15993-1.82812 4.44922c-1.22459 1.60444-2.92862 2.76237-4.60352 3.88867s-3.38168 2.27836-4.61133 3.8789c-1.3543 1.76282-2.03267 3.93873-3.02929 5.92579-.43321.86373-.93437 1.70321-1.60547 2.39843s-1.5268 1.24199-2.47656 1.41993c-.5219.0978-1.06762.08238-1.57618-.07032-.50853-.15272-.97811-.44556-1.32031-.85156-.27295-.32384-.46045-.71344-.58203-1.11914-.12158-.40571-.17823-.82745-.20703-1.25-.15919-2.33567.55602-4.72164 1.97461-6.58398-2.17268.51692-4.24282 1.46262-6.05664 2.76562-1.82441 1.31061-3.41957 3.03315-4.21289 5.13477-.83706 2.21749-.72004 4.71836 0 6.97656.46802 1.4678 1.1862 2.86224 2.16406 4.05273.97786 1.1905 2.21865 2.17472 3.62891 2.79493 2.30015 1.01152 4.97404 1.01111 7.37304.26367 3.13522-.97682 5.80216-3.1622 7.76758-5.79297 1.41497-1.89398 2.50582-4.03285 4.08203-5.79492 1.46698-1.63996 3.33709-2.91592 5.39844-3.68555-1.42501 1.89034-2.66287 3.92259-3.6875 6.05664-1.30179 2.71132-2.26019 5.59338-2.76367 8.55859-.38463 2.26527-.50347 4.56608-.79102 6.84571-.16632 1.3185-.39953 2.66103-1.05273 3.81836-.24011.42542-.53715.82399-.91406 1.13476-.3769.31077-.83791.52991-1.32422.57617-.65285.0621-1.31117-.19601-1.81055-.62109-.49937-.42508-.85052-1.00511-1.08594-1.61719-.37049-.96327-.46977-2.02756-.28515-3.04297.18463-1.01541.65204-1.9788 1.33789-2.75-1.31437.35493-2.56621.93593-3.68555 1.71094-1.51659 1.05005-2.78889 2.4641-3.61523 4.11328-.82634 1.64919-1.19905 3.53398-.99414 5.36719.22007 1.96882 1.11005 3.85464 2.47851 5.28711 1.36846 1.43248 3.20635 2.40507 5.1582 2.74414 2.90975.50548 6.03861-.45144 8.16407-2.50195 1.224-1.18084 2.10449-2.66842 2.88086-4.18164.77638-1.51321 1.46612-3.07651 2.38476-4.50782 1.73979-2.71072 4.29338-4.8916 7.24219-6.1875-1.92134 2.38608-3.5598 4.99892-4.87109 7.76758-1.25074 2.64082-2.20529 5.42712-2.76563 8.29492-.69304 3.54699-.78124 7.18284-.79101 10.79688-.003 1.11455-.0001 2.24458-.29883 3.31836-.14937.53689-.37493 1.05711-.69727 1.51172-.32233.4546-.7448.84243-1.24219 1.09375-.30385.15353-.63531.25545-.97461.2832-.3393.0278-.68607-.01867-1-.15039-.43673-.18321-.79541-.52427-1.05273-.92188-.43429-.67107-.58878-1.51795-.41797-2.29882.17082-.78087.66504-1.48561 1.33984-1.91407-1.31796-.17499-2.69376.12841-3.81445.84375-1.12068.71533-1.97686 1.83634-2.37305 3.10547-.33868 1.08493-.34478 2.26109-.09179 3.36914.25298 1.10804.7584 2.14954 1.4082 3.08203.95272 1.3672 2.22815 2.51481 3.71485 3.26758 1.48669.75276 3.18287 1.10312 4.84179.94532 2.50645-.23841 4.82647-1.63295 6.45313-3.55469 1.47554-1.7432 2.40992-3.87679 3.16211-6.03321.7522-2.15643 1.34257-4.37207 2.23437-6.4746 1.27785-3.01273 3.17275-5.76261 5.53125-8.03126-.0372 1.18798-.12542 2.37419-.26367 3.55469-.60239 5.14383-2.15231 10.12016-3.42383 15.14063-.4095 1.61685-.79273 3.2522-1.45898 4.78125s-1.64221 2.96467-3.01758 3.9082c-1.30728.89681-2.89855 1.29708-4.47656 1.44922-2.77367.26741-5.61317-.19051-8.16211-1.31641.6752 2.63538 2.16455 5.05534 4.21289 6.84571 1.75548 1.53439 3.9888 2.62365 6.32031 2.63476 1.62142.008 3.2203-.50567 4.62109-1.32226 1.4008-.81659 2.61326-1.92782 3.67383-3.1543 1.9766-2.28581 3.44167-4.96369 5.26563-7.37305.99541-1.31489 2.09684-2.55006 3.29101-3.6875.10884 1.59471-.26188 3.21835-1.05273 4.60742-.60871 1.06916-1.45095 1.98878-2.10742 3.0293-1.03683 1.64341-1.59219 3.58619-1.58008 5.5293 3.09901-1.63663 5.98441-3.6784 8.55859-6.05664 2.61895-2.4196 4.98411-5.23285 8.16406-6.84571 2.89797-1.46984 6.3517-1.80597 9.47852-.92187-2.51025-1.44033-4.85669-3.16659-6.97852-5.13477-1.22197-1.13348-2.37355-2.354-3.31054-3.73242-.93698-1.37841-1.65575-2.92287-1.95508-4.5625-.31348-1.71716-.15918-3.50135.30664-5.18359.46581-1.68223 1.23729-3.26819 2.15039-4.75586.9892-1.61167 2.16964-3.13787 3.69336-4.25781 1.38595-1.01868 3.10443-1.68548 4.81445-1.5 1.10536.11989 2.16889.59845 2.99219 1.3457-.39994 1.33429-.68041 2.70561-.83594 4.08984-.1519 1.35184-.18482 2.71748-.08593 4.07422.0484.66404.12913 1.3287.3125 1.96875s.47343 1.2558.90625 1.76172c.48415.56591 1.13615.97867 1.84375 1.21094.70761.23227 1.46896.28894 2.20898.20508 1.04961-.11895 2.05375-.51516 2.96875-1.04297.91501-.52782 1.74605-1.18558 2.55469-1.86524.85668-.72004 1.69144-1.46663 2.50195-2.23828-1.30307-1.5203-2.53278-3.10303-3.68555-4.74023-2.52464-3.58558-4.68227-7.44166-7.50586-10.79688-3.44534-4.09403-7.77965-7.32312-11.8496-10.79687-4.67791-3.99265-9.03795-8.34138-13.27735-12.79688-2.67237-2.80859-5.37614-5.79266-6.53515-9.49219-.65988-2.10628-.78177-4.33899-.85743-6.54492-.10252-2.98922-.13-5.98732-.50195-8.95508-.37195-2.96775-1.10261-5.92484-2.52734-8.55468-1.02207-1.88658-2.40053-3.61006-3.02735-5.66211-.64254-2.10349-.43479-4.37038-.03515-6.53321.39969-2.16282.98591-4.30488 1.08789-6.50195.11113-2.39422-.35698-4.77519-.92578-7.10351-.29728-1.21688-.62549-2.43715-1.17969-3.56055-.82199-1.66622-2.10815-3.05666-3.46289-4.32813s-2.80056-2.45254-4.04297-3.83398c-2.05079-2.28028-3.5083-5.05896-5.66211-7.24219-1.83645-1.86153-4.15461-3.24225-6.66602-3.9707zm176.08008 9.19922c-2.2159-.0241-4.43624.35639-6.51758 1.11719-4.25161 1.55409-7.80565 4.64249-10.61328 8.19336-1.92206 2.43087-3.54365 5.11276-4.65429 8.00585-1.36029 3.5434-1.9366 7.38532-1.67579 11.17188-1.18289-2.07368-2.005-4.35212-2.41992-6.70313-.52228-2.9594-.39557-6.03179.3711-8.9375-7.30084-1.87614-14.69894-3.36845-22.15625-4.46875-8.57174-1.26472-17.22115-2.01132-25.88282-2.23437-2.15999 1.10304-3.77681 3.21364-4.28125 5.58594-.32832 1.54402-.19852 3.1821.3711 4.65429-4.03838-.54066-8.27052.55314-11.54297 2.98047-1.72212 1.27739-3.22444 2.92536-5.21484 3.72266-1.61573.64721-3.40186.6697-5.14063.74805-.7736.0349-1.55017.0831-2.30273.26562-.75257.18254-1.48609.50734-2.05274 1.03516-.42837.39902-.75033.9057-.96289 1.45117-.21255.54547-.31705 1.12986-.33984 1.71484-.0196.50318.02119 1.01228.17968 1.49024.15851.47795.44135.92383.84375 1.22656.27688.20831.60173.34467.93555.4375.33383.0928.67707.14452 1.01953.19726 1.48086.22814 2.97481.48572 4.46875.3711 1.16341-.0893 2.3088-.40612 3.35157-.92969-2.18284 1.26543-4.09837 2.98941-5.58594 5.02735-.8581 1.17556-1.58428 2.48132-1.86133 3.91015-.24728 1.2753-.12261 2.61387.3125 3.83789s1.175 2.33182 2.10742 3.23633c1.9543 1.89579 4.6324 2.83197 7.26172 3.53906 2.48962.66952 5.06955 1.18676 7.63477.92969 3.86971-.3878 7.41316-2.54407 10.05468-5.39844 1.62096-1.75158 2.94831-3.77485 3.91016-5.95898.0476 2.56551.8315 5.11321 2.23437 7.26172 1.98964 3.04717 5.09081 5.17402 8.19336 7.07617 1.33153.81635 2.68248 1.61058 3.90235 2.58594s2.31392 2.14889 2.98633 3.55859c.90017 1.8872.98646 4.06772.74414 6.14453-.1255 1.07554-.33591 2.14746-.74414 3.15039-.40824 1.00293-1.02164 1.93739-1.86133 2.6211-.84138.68507-1.87712 1.09616-2.93164 1.35156s-2.13777.36361-3.21289.50976c-1.56918.21333-3.13065.50692-4.65625.93164-2.96953.82671-5.78251 2.14454-8.75 2.97852-3.26243.91687-6.66656 1.23651-10.05469 1.30469-2.23564.045-4.47343-.0185-6.70313-.1875-1.20344 1.55526-1.56562 3.72444-.93164 5.58593.32133.94352.88155 1.80269 1.59375 2.5.71219.69734 1.57344 1.23527 2.50196 1.59766 1.52546.59538 3.20276.71323 4.83593.59375 1.63316-.11947 3.24017-.46906 4.84766-.78125 1.42247-.27626 2.84904-.52393 4.28125-.74414-.25116 1.22434-.25116 2.50027 0 3.72461.37152 1.81106 1.32454 3.53106 2.79297 4.6543.78326.59913 1.70485 1.02282 2.67578 1.19531s1.98995.0908 2.91016-.26367c1.26698-.4881 2.33163-1.516 2.79296-2.79297.29954-.82915.34585-1.72624.37305-2.60742.0479-1.55116.0479-3.10314 0-4.6543-.20424.2883-.49226.51527-.82031.64648-.32804.13122-.6943.16553-1.04102.09766-.38147-.0747-.73527-.27002-1.01953-.53516-.28425-.26513-.50079-.5988-.65625-.95507-.19979-.45783-.30045-.96418-.24804-1.46094.0524-.49676.26252-.98226.61914-1.33203.32416-.31795.75722-.51195 1.20312-.59766.4459-.0857.90689-.06649 1.35547.00391.89717.14066 1.75523.48039 2.65625.59375 1.45196.18267 2.90877-.23636 4.28125-.74414 2.21716-.82029 4.34551-1.88447 6.33203-3.16602.0718 3.29301-.05331 6.59091-.37305 9.86914-.29233 2.99699-.76331 6.02893-2.04882 8.75196-.72942 1.54509-1.70893 2.96055-2.79297 4.28124-1.61897 1.97242-3.55508 3.79479-5.95703 4.65626-2.18276.78284-4.58955.71224-6.86914.2871-2.2796-.42513-4.4813-1.1901-6.72461-1.77734-3.94783-1.03344-8.02379-1.51757-12.10157-1.67578-2.25958-.0877-4.54401-.0742-6.75195.41406-2.20793.48827-4.35323 1.48313-5.91016 3.12305-1.97907 2.08455-2.82634 4.97138-4.2832 7.44922-1.33109 2.26394-3.23377 4.23227-5.58594 5.40039-2.11493 1.0503-4.57912 1.42169-6.88867.92969-1.72026-.36647-3.36946-1.23245-4.46875-2.60547-.6973-.87095-1.15455-1.91984-1.41015-3.00586-.25561-1.08603-.31487-2.21156-.26563-3.32617.12076-2.73336.89287-5.43575 2.23438-7.82032-2.14496 1.16243-4.05578 2.75412-5.58594 4.6543-.8509 1.05667-1.58853 2.21434-2.0957 3.47266-.50717 1.25831-.77947 2.62237-.69727 3.97656.0986 1.62481.70693 3.1967 1.61328 4.54883s2.10279 2.4925 3.41406 3.45703c2.948 2.16846 6.58274 3.47672 10.24024 3.35156 1.39195-.0476 2.77802-.29876 4.09765-.74414.1208 1.14017-.07449 2.3122-.55859 3.35156-.84371 1.81159-2.55194 3.15935-4.46875 3.72461-1.43538.4233-2.9577.43364-4.45312.37696-1.49543-.0567-2.99782-.17796-4.48438-.00586-2.02739.23489-3.9687 1.01258-5.70703 2.08203-1.73833 1.06944-3.28469 2.42665-4.7207 3.87695-2.3504 2.37379-4.42063 5.00811-6.70313 7.44727-4.869 5.20317-10.78477 9.53896-17.50195 11.91796-3.10187 1.09859-6.4055 1.77557-9.6836 1.48829-3.98276-.34905-7.82018-2.16678-10.61328-5.02735-.139 2.98174.80137 6.0023 2.60742 8.37891 1.54078 2.02754 3.6716 3.56748 6.00391 4.58984 2.33232 1.02236 4.86349 1.54427 7.40234 1.74219 3.37242.2629 6.79207-.0385 10.05469-.93164 5.20385-1.42449 9.89852-4.3135 14.15039-7.63477 4.08931-3.1943 7.84083-6.82011 11.17188-10.79882-.39253 2.70062-1.35003 5.31843-2.79297 7.63476-2.62729 4.21756-6.73425 7.29292-10.98438 9.86719-6.74509 4.08544-14.05178 7.1487-21.04101 10.80078-2.814 1.4704-5.59067 3.04424-8.0918 5s-4.73058 4.3116-6.24609 7.10156c-1.29648 2.38674-2.05264 5.11093-1.86133 7.82031.20197 2.86027 1.48535 5.63172 3.53711 7.63477 1.22696-3.20771 3.14519-6.14834 5.58594-8.56445 3.07685-3.0458 6.91423-5.2139 10.84375-7.03125 3.92952-1.81736 8.00071-3.32159 11.87304-5.25782 6.02486-3.01253 11.52954-7.06324 16.19922-11.91796-.55377 3.12345-1.91291 6.10193-3.91015 8.5664-1.61415 1.99176-3.61334 3.62878-5.49219 5.37305s-3.67999 3.65375-4.74805 5.98437c-.96985 2.11635-1.28305 4.46595-1.56055 6.77735-.27751 2.31139-.54049 4.65896-1.41992 6.81445-.59468 1.45751-1.47183 2.80869-2.61523 3.89063-1.1434 1.08193-2.55668 1.88873-4.08789 2.2539-1.33526.31845-2.72763.30009-4.09571.1875-1.82271-.15-3.6327-.4626-5.40039-.93164-.18797 1.67956-.06029 3.39382.37305 5.02734.55532 2.09317 1.62683 4.06262 3.16602 5.58594 2.0083 1.98761 4.80725 3.16068 7.63281 3.16602 3.51426.007 6.80859-1.70363 9.68359-3.72461 5.07005-3.56399 9.34842-8.2407 12.47461-13.5918 3.20302-5.48259 5.24123-11.69798 9.31055-16.57226 3.54486-4.24608 8.55014-7.24925 13.96484-8.37891-2.9806 2.66921-5.72626 5.60202-8.19336 8.75195-2.5671 3.27761-4.85697 6.83968-6.14453 10.79883-.99206 3.05053-1.36842 6.29815-1.11719 9.4961.12241 1.55813.39153 3.1003.5586 4.65429.28581 2.65839.27183 5.34796 0 8.00781-.15985 1.56409-.40798 3.11843-.74414 4.6543-.35742 1.633-.81451 3.24362-1.30469 4.8418-.2013.65633-.40973 1.31991-.4375 2.00586-.0139.34297.0196.68908.11914 1.01758.0996.32849.26774.63949.50586.88671.39064.40558.95189.61951 1.51367.65821s1.12382-.0876 1.65039-.28711c1.29341-.49019 2.39088-1.41655 3.23828-2.50977.84739-1.09322 1.46107-2.35123 1.97657-3.63476 2.18839-5.44888 2.69123-11.4623 2.23437-17.31641-.35433-4.54041-1.26364-9.16655-.1875-13.5918.46036-1.89304 1.32057-3.75157 2.79297-5.02734 1.60545-1.39105 3.88779-1.96213 5.95898-1.49023-1.87048.95862-3.405 2.55919-4.2832 4.46875-1.31821 2.86633-1.12653 6.17888-.74414 9.31054.45401 3.71815 1.1415 7.4262 1.11719 11.17188-.0226 3.48657-.66806 6.96413-1.86133 10.24023-.5426 1.48972-1.20065 2.94371-2.04883 4.2832-1.81699 2.86956-4.51564 5.17337-7.63476 6.51758 1.60962.99556 3.508 1.51777 5.40039 1.48828 2.7496-.0428 5.37543-1.22531 7.63476-2.79296 6.037-4.1888 9.73107-10.94868 12.66016-17.6875 2.13511-4.91215 4.00877-10.09988 3.91015-15.45508-.0316-1.71868-.26552-3.42772-.35156-5.14453-.0861-1.71681-.01729-3.46927.53906-5.09571.6561-1.91797 1.9955-3.59512 3.72266-4.65625-.66071 2.23713-1.03708 4.55935-1.11719 6.89063-.21994 6.40021 1.79426 12.70471 4.65625 18.43359.99127 1.98425 2.09241 3.92542 3.48438 5.65235 1.39198 1.72692 3.08836 3.23867 5.08008 4.21484 2.17637 1.06667 4.67703 1.46141 7.07617 1.11719-.20149-2.32347-.83755-4.60862-1.86328-6.70313-1.01225-2.06698-2.388-3.92784-3.6836-5.83008-1.29561-1.90223-2.53057-3.88545-3.20507-6.08593-1.1289-3.68293-.5645-7.80263 1.30273-11.17188 1.24704-2.25016 3.05592-4.18686 5.21484-5.58594-.77266 2.8429-1.0889 5.81013-.93164 8.75196.15573 2.91335.77203 5.79045 1.67578 8.56445 2.35329 7.22332 6.64661 13.78869 8.19336 21.22656.68809 3.30887.80738 6.77289 0 10.05469-.83536 3.39551-2.67034 6.53898-5.21484 8.9375 1.77293-.0256 3.54261-.34206 5.21484-.93164 3.30954-1.16687 6.1947-3.39792 8.37891-6.14453 3.08019-3.8733 4.80036-8.83077 4.6543-13.77735-.19162-6.48955-3.43256-12.45407-6.70313-18.0625-1.3732-2.35479-2.77299-4.71029-3.74805-7.25585-.97505-2.54559-1.51348-5.3183-1.09374-8.01172.56128-3.60172 2.91259-6.87865 6.14453-8.56446-1.7092 2.68187-2.44573 5.96795-2.04688 9.12305.51665 4.08687 2.8135 7.69795 5.02735 11.17187 2.81619 4.41915 5.75177 9.02612 10.24023 11.73047 2.09838 1.26431 4.46602 2.056 6.88867 2.41993 2.72053.40866 5.52113.28269 8.19336-.3711-.21208-1.82479-.78491-3.60823-1.67578-5.21484-2.26075-4.07711-6.34335-6.74968-10.24024-9.3086-2.78248-1.82713-5.65316-3.7888-7.26171-6.70312-1.54061-2.79122-1.72957-6.13138-1.49024-9.31055.23817-3.1637.86436-6.2986 1.86133-9.31054-.14143 5.04693 1.31127 10.12747 4.09766 14.33789 2.59928 3.92768 6.24778 7.01663 9.68164 10.24023 3.3473 3.14234 6.60296 6.56702 8.3789 10.80078 1.0338 2.46454 1.53192 5.14806 1.49024 7.82031-.0561 3.59747-1.09807 7.17406-2.98047 10.24024 2.21821-.0482 4.41346-.84651 6.14453-2.23438 1.58929-1.27419 2.76945-3.01125 3.56445-4.88672.79499-1.87545 1.2196-3.88968 1.46289-5.9121.48088-3.99749.25341-8.13213-1.11718-11.91797-1.73972-4.80545-5.21995-8.80236-9.12305-12.10157-1.65742-1.40098-3.4065-2.70209-4.9375-4.24023s-2.85503-3.35386-3.44141-5.44336c-.62775-2.2369-.37037-4.63285.18555-6.88867.76859-3.11879 2.09973-6.09867 3.91016-8.75195-.20047 5.08358.96864 10.21597 3.35156 14.71093 2.16225 4.07872 5.31867 7.62812 9.125 10.24024 2.0665 1.41815 4.39117 2.58303 6.88867 2.79297 2.21841.18647 4.49446-.41619 6.33008-1.67579-1.56336-1.41472-3.11442-2.84295-4.6543-4.2832-3.58776-3.35564-7.21992-6.94054-8.9375-11.54297-1.102-2.95294-1.34356-6.15894-1.30273-9.31054.0619-4.7794.75112-9.54958 2.04687-14.15039.11204 4.90597 1.54181 9.77571 4.09766 13.96484 2.00299 3.28296 4.80138 6.22172 8.3789 7.63281 2.14559.84629 4.51821 1.1109 6.79688.75391s4.45662-1.33368 6.23633-2.80078c2.07969-1.71439 3.60161-4.09552 4.2832-6.70313-2.65683 2.44673-6.51657 3.51887-10.05469 2.79297-2.11033-.43297-4.0841-1.47116-5.68554-2.91211s-2.83332-3.27771-3.625-5.28125c-1.79922-4.55339-1.29295-9.64081-.93164-14.52344.4034-5.45152.5898-10.91842.55859-16.38476 1.11184 3.28881 3.30053 6.20317 6.14648 8.1914 2.47023 1.72576 5.39494 2.74628 8.37891 3.16602 2.30939.32485 4.68375.29772 6.94922-.25586 2.26548-.55358 4.41925-1.648 6.08398-3.28125 1.58908-1.55904 2.70572-3.59539 3.16602-5.77344-.98801 1.14528-2.2871 2.02171-3.71875 2.50977s-2.99277.58648-4.47461.2832c-2.46147-.50377-4.55606-2.04669-6.70312-3.35156-1.12568-.68412-2.28712-1.31152-3.36524-2.06836-1.07811-.75684-2.08093-1.65461-2.7793-2.77148-.74683-1.19436-1.11743-2.60145-1.19726-4.00782-.0798-1.40636.12213-2.81635.45312-4.18554.36608-1.5144.88942-2.98761 1.27149-4.49805s.62223-3.0823.40429-4.625c-.18771-1.32868-.70919-2.58872-1.28906-3.79883-.57986-1.21011-1.22559-2.39196-1.6914-3.65039-1.19108-3.2178-1.1219-6.88319.1875-10.05469 3.09073 2.99359 6.07251 6.10026 8.9375 9.31055 2.98258 3.34206 5.93158 6.98145 6.88867 11.35742.91934 4.20337-.21309 8.80717-2.97852 12.10352 1.80892.17945 3.66323-.12379 5.32031-.8711 1.65707-.7473 3.11282-1.9375 4.17579-3.41211 1.53553-2.13018 2.21873-4.79986 2.20898-7.42578-.01-2.62592-.67914-5.21653-1.65039-7.65625-2.16331-5.4341-5.78655-10.16196-9.68359-14.52343-1.66769-1.86643-3.39636-3.68393-4.9043-5.68164-1.50794-1.99773-2.8001-4.19708-3.47461-6.60743-.94438-3.37474-.60583-7.09112.93164-10.24023.95965 3.88658 3.05443 7.48523 5.95898 10.24023 2.35816 2.23675 5.33165 3.9472 8.56446 4.28321 3.18906.33145 6.47944-.73435 8.9375-2.79297 1.61283-1.35075 2.8737-3.10337 3.72461-5.02735.90325-2.04232 1.35099-4.28495 1.30273-6.51757-.24519 1.51844-.95559 2.95807-2.00976 4.07812s-2.44841 1.91527-3.94922 2.25195c-1.33325.2991-2.73365.23992-4.0625-.07812-1.32885-.31807-2.58911-.88975-3.75782-1.59766-2.91504-1.76568-5.30736-4.44609-6.51562-7.63281-1.15434-3.04453-1.2082-6.40601-2.23438-9.49609-1.17963-3.55215-3.67388-6.65281-6.89062-8.56641 2.57396 1.09963 5.39707 1.61346 8.19336 1.49023 3.37776-.14884 6.71863-1.23804 9.49609-3.16601 2.72048-1.8884 4.88117-4.57162 6.14453-7.63281-2.57399-.4885-5.30869-.0884-7.63476 1.11718-1.07301.55614-2.05314 1.27332-3.10352 1.8711-1.0504.59777-2.20381 1.08222-3.41211 1.10742-1.01416.0212-2.02197-.28804-2.89257-.80859-.87063-.52056-1.60853-1.24638-2.21094-2.0625-1.20482-1.63225-1.86451-3.59176-2.53125-5.50782-.74874-2.1517-1.53175-4.29879-2.04883-6.51757-.98052-4.20748-.98052-8.64019 0-12.84766-1.02259 1.46503-1.78297 3.11315-2.23438 4.8418-.8324 3.1876-.62216 6.62906-1.86132 9.68164-1.08515 2.67317-3.28581 4.87384-5.95899 5.95898.86107-3.08887 1.66743-6.19344 2.41992-9.31055 1.04807-4.34151 1.98733-8.92846.7461-13.21875-1.05997-3.66375-3.623-6.75635-4.65625-10.42773-.99599-3.53898-.44148-7.48521 1.49023-10.61328zm-7.06836 6.49023c-1.22189 1.30121-2.31243 2.72597-3.24804 4.2461-1.47279 2.39292-2.55916 5.01957-3.2461 7.74414-.41819 1.6586-.69017 3.37822-.5 5.07812.16574 1.48152.698 2.9447 1.66406 4.08008.33023.38811.70785.73581 1.02735 1.13281s.58497.85848.63867 1.36524c.0411.38792-.04811.78664-.24219 1.125-.19412.33837-.491.61641-.83984.79101-.43984.22029-.95158.27539-1.43945.21289-.48786-.0625-.95523-.23786-1.39258-.46289-1.8978-.97649-3.22633-2.86695-3.83008-4.91406-.81959-2.77894-.40242-5.77404.33398-8.57617.77135-2.93513 1.93132-5.85207 3.9961-8.07617 1.85071-1.99352 4.38904-3.33619 7.07812-3.7461zm-49.9414 4.66016c.29549-.007.59121-.00398.88671.01172 1.18201.0612 2.36363.32182 3.41407.86718 1.36214.70721 2.45563 1.87263 3.2207 3.20313s1.21737 2.82365 1.49023 4.33398c.20891 1.15625.32245 2.35163.82422 3.41407.53934 1.14199 1.48582 2.03802 2.47266 2.82617 1.2441.99361 2.58776 1.86211 4.00391 2.58984-1.52465-.16582-3.05818-.24336-4.5918-.23437-1.62686.01-3.27005.11975-4.82813.58789-.90455.27178-1.77269.64912-2.64648 1.00976-.20089 1.6256-.97235 3.18128-2.18164 4.28907-.9589.87841-2.16085 1.47555-3.42578 1.77734-1.26492.30179-2.59118.31456-3.875.10742-2.61828-.42244-5.07645-1.77795-6.83008-3.76758 1.8449 1.28627 4.11156 1.95643 6.35938 1.88282 1.8039-.0591 3.57717-.58551 5.18164-1.41211 1.18893-.61252 2.27561-1.40647 3.2539-2.31836-1.76988.56171-3.64097.81034-5.49219.66992-1.45712-.11052-2.90574-.45428-4.21875-1.0957-1.31302-.64143-2.48825-1.58838-3.31836-2.79102-1.01859-1.47573-1.48039-3.26192-2.35351-4.82812-.93083-1.66971-2.3342-3.07308-4.00391-4.00391 1.52852.7649 3.4168.7649 4.94532 0 1.2535-.62728 2.21946-1.70486 3.06054-2.82617.6871-.91605 1.32872-1.89417 2.23828-2.58985 1.07603-.82301 2.43372-1.17549 3.76758-1.41211.87405-.15505 1.76001-.26983 2.64649-.29101zm.51953 2.20117c-.16935.002-.33898.0119-.50782.0332-1.08681.13739-2.09573.67905-2.92187 1.39844-.28035.24413-.54962.51967-.68164.86719-.066.17376-.09601.36279-.07031.54687.0257.18409.10935.36225.24414.49024.16104.15291.38286.22693.60351.25195.22065.025.44398.00691.66602.00391.70804-.0113 1.43319.13174 2.0332.50781.81138.50855 1.31837 1.38893 1.65039 2.28711.18229.49316.32255 1.00598.34571 1.53125.0232.52526-.07641 1.066-.34571 1.51758-.35252.59117-.97882.99179-1.65039 1.14258-.66013.14822-1.36128.0674-1.99414-.17188-.63286-.23923-1.19979-.63273-1.68945-1.09961-.73766-.70333-1.30906-1.57939-1.65235-2.53906-.53777.5501-.89851 1.27092-1.01562 2.03125-.10237.66465-.0212 1.35377.20703 1.98633.22826.63257.60043 1.20866 1.0625 1.69726 1.25226 1.32415 3.13321 1.95456 4.95508 1.90625 1.41939-.0376 2.85509-.47949 3.9375-1.39844.96928-.8229 1.60616-1.97816 2.0332-3.17578.50629-1.41987.74558-2.95675.50781-4.44531-.26034-1.62983-1.11567-3.17243-2.41406-4.19141-.93717-.73547-2.11731-1.19001-3.30273-1.17773zm-20.53711 19.95117a1.9429363 1.9429363 0 0 1 1.94336 1.94336 1.9429363 1.9429363 0 0 1 -1.94336 1.94141 1.9429363 1.9429363 0 0 1 -1.94336-1.94141 1.9429363 1.9429363 0 0 1 1.94336-1.94336zm-10.00977.23438a1.4719214 1.4719214 0 0 1 1.47266 1.47265 1.4719214 1.4719214 0 0 1 -1.47266 1.47266 1.4719214 1.4719214 0 0 1 -1.4707-1.47266 1.4719214 1.4719214 0 0 1 1.4707-1.47265zm38.62891 2.96289c1.40656-.037 2.82314.34851 4.01367 1.09961-.91612.15165-1.82302.35652-2.71484.61523-.97261.28214-1.93238.63009-2.80469 1.14453-.55781.32896-1.07368.72398-1.61328 1.08203s-1.11205.68331-1.73633.85547c-.34808.096-.7143.14236-1.07031.08203-.35601-.0603-.70085-.2364-.91992-.52343-.20039-.26252-.28422-.60441-.25782-.9336s.15729-.6442.34766-.91406c.29564-.41907.72585-.72772 1.18555-.95508.45971-.22735.95277-.37928 1.43945-.54101 1.16015-.38554 2.31454-.83111 3.5293-.96875.19981-.0226.40062-.03767.60156-.04297zm-43.2168.25781a1.4719214 1.4719214 0 0 1 1.47071 1.47266 1.4719214 1.4719214 0 0 1 -1.47071 1.4707 1.4719214 1.4719214 0 0 1 -1.47265-1.4707 1.4719214 1.4719214 0 0 1 1.47265-1.47266zm28.66992 1.03711c.35119.003.7021.0838 1.02344.22656.42846.19042.80313.49066 1.09766.85547.6155.76236.85553 1.7609.96679 2.73438.11126.97347.11376 1.96234.33008 2.91796.24953 1.10236.78036 2.12745 1.45117 3.03711s1.47885 1.71075 2.32422 2.46094c1.69076 1.5004 3.56145 2.8355 4.9375 4.62891 2.16929 2.82723 2.89211 6.70871 1.88477 10.12695-.60309-3.59445-2.21169-7.0149-4.59375-9.77344-2.74703-3.18119-6.41861-5.41883-9.41992-8.36132-.96859-.94961-1.88127-1.9945-2.41797-3.24024-.26834-.62288-.43834-1.29091-.46094-1.96875-.0226-.67785.10551-1.36477.40625-1.97266.20653-.41746.49477-.79757.85742-1.08984.36264-.29226.8004-.49645 1.26172-.56055.1161-.0161.23449-.02258.35156-.02148zm48.74219.38672c1.95254.93908 3.72013 2.25831 5.17774 3.86133 1.09904 1.20868 2.02547 2.58371 2.6582 4.08984.61667 1.46789.94958 3.04147 1.13281 4.62305.13835 1.19417.19394 2.39997.39063 3.58593.19669 1.18595.54248 2.36801 1.21093 3.36719.82991 1.24053 2.15075 2.14356 3.60743 2.46875-1.94404.45233-3.92257.75984-5.91211.91992-1.27052.1022-2.55039.14375-3.81836.01368-.90649-.093-1.81113-.27552-2.64258-.64844-.83144-.37292-1.59036-.94556-2.08789-1.70899-.40989-.62895-.63118-1.36661-.74024-2.10937-.10931-.74277-.10937-1.49536-.10937-2.24609 1.05687 1.75576 2.82702 3.06664 4.81445 3.5664 1.41207.35508 2.92378.30701 4.31055-.13672-1.04663-.66312-1.90032-1.62678-2.43164-2.74609-.6668-1.40473-.81651-2.99334-.88281-4.54688-.0984-2.3059-.0421-4.65986-.72266-6.86523-.67691-2.19341-2.08819-4.15262-3.95508-5.48828zm-68.05469 1.83203a1.7663057 1.7663057 0 0 1 1.76758 1.76758 1.7663057 1.7663057 0 0 1 -1.76758 1.76562 1.7663057 1.7663057 0 0 1 -1.76562-1.76562 1.7663057 1.7663057 0 0 1 1.76562-1.76758zm-7.41601 1.86719a1.5896752 1.5896752 0 0 1 1.58984 1.58789 1.5896752 1.5896752 0 0 1 -1.58984 1.58984 1.5896752 1.5896752 0 0 1 -1.58985-1.58984 1.5896752 1.5896752 0 0 1 1.58985-1.58789zm46.97265.01953c1.67668-.0433 3.36725.42159 4.7793 1.32812-1.09095.18416-2.1711.43356-3.23242.7461-1.1594.34142-2.30426.76159-3.33984 1.38476-.66357.39931-1.27659.87844-1.91797 1.3125s-1.32136.82884-2.06836 1.03321c-.41475.1135-.85377.16578-1.27735.09179-.42357-.074-.83221-.2837-1.09375-.625-.24312-.31731-.3442-.73235-.3125-1.13086.0318-.3985.18981-.78052.41993-1.10742.35274-.50109.86512-.87219 1.41211-1.14844.54698-.27625 1.133-.464 1.71289-.6621 1.37906-.47112 2.75322-1.00692 4.20117-1.17188.23818-.0271.47726-.04458.71679-.05078zm4.78125 6.51367c1.67668-.0433 3.36725.42159 4.7793 1.32813-1.09095.18416-2.1711.43355-3.23242.74609-1.1594.34142-2.30426.76159-3.33984 1.38477-.66357.39931-1.27659.87844-1.91797 1.3125-.64138.43405-1.32136.82688-2.06836 1.03124-.41475.1135-.85377.16771-1.27735.09376-.42357-.07401-.83221-.28371-1.09375-.625-.24312-.31732-.3442-.73235-.3125-1.13086.0318-.3985.18981-.78053.41993-1.10743.35274-.50109.86512-.87218 1.4121-1.14843.54699-.27625 1.13301-.46597 1.7129-.66407 1.37906-.47112 2.75322-1.00691 4.20117-1.17187.23818-.0271.47726-.04273.71679-.04883zm-54.42382 3.9082c.33956.83482.84828 1.59986 1.48828 2.23438.54062.53599 1.17462.97823 1.86328 1.30273.83316.21707 1.76613.002 2.41992-.55859.54116-.4637.88538-1.15018.93164-1.86133-.84882-.31253-1.72161-.56301-2.60742-.74609-1.34558-.27811-2.72203-.402-4.0957-.3711zm57.53515 4.8125c1.14499.0664 2.27223.42151 3.24414 1.03125-.87143.14335-1.73354.3371-2.58203.58204-.92486.26699-1.83935.59735-2.66992 1.08398-1.06154.62196-1.99971 1.50418-3.18555 1.83203-.33104.0915-.67883.13686-1.01757.08008-.33873-.0568-.66679-.22294-.875-.49609-.1894-.24852-.26915-.57329-.24415-.88477.025-.31147.14988-.60996.33008-.86523.28104-.39811.68956-.68945 1.12696-.9043.43739-.21485.90628-.35929 1.36914-.51172 1.10419-.36364 2.20226-.78536 3.35742-.91602.38002-.043.76482-.05345 1.14648-.03125zm17.39649 4.64844c.8559 2.27818 1.26823 4.72142 1.20703 7.1543-.0461 1.83327-.36187 3.66825-1.01758 5.38086-.63878 1.66838-1.59121 3.20096-2.66992 4.625-.81447 1.07521-1.70411 2.09512-2.46485 3.20898-.76075 1.11387-1.39544 2.34142-1.6289 3.66992-.2902 1.6514.07899 3.41003 1.00976 4.80469-1.92026-1.15903-3.76283-2.44722-5.51172-3.85156-1.11757-.89741-2.20193-1.84758-3.10937-2.95703-.64324-.78643-1.19619-1.65465-1.56445-2.60157-.36827-.94688-.54916-1.97565-.44532-2.98632.17601-1.71308 1.20707-3.31828 2.69141-4.19141-.50365 2.24591-.08531 4.68548 1.13867 6.63477.87022 1.38595 2.13324 2.5216 3.60352 3.24023-.33526-1.35026-.27979-2.79472.1582-4.11523.54926-1.65597 1.66058-3.06075 2.8125-4.3711 1.70969-1.94482 3.58264-3.80575 4.74219-6.12109 1.15402-2.30431 1.52843-4.99133 1.04883-7.52344zm-63.94727 3.75781c-.81016-.005-1.62008.0585-2.41992.1875-.27079.79007-.64761 1.54371-1.11719 2.23438-.87373 1.28512-2.06449 2.34995-2.79297 3.72266-.33817.6372-.57048 1.34163-.59765 2.0625-.0272.72086.16155 1.46052.59765 2.03515.45225.59592 1.14312.98185 1.86719 1.16992.72408.18808 1.48271.19133 2.22852.13282 1.75085-.13736 3.46362-.61158 5.21484-.74415.82734-.06259 1.66205-.0497 2.47852-.19726.81647-.14759 1.63421-.47885 2.17578-1.10742.39726-.46108.62304-1.06717.62304-1.67578 0-.60862-.22578-1.21471-.62304-1.67578-.99237.44303-2.17364.44303-3.16602 0-1.02863-.45923-1.82688-1.36973-2.23437-2.41993-.43648-1.1249-.43648-2.4122 0-3.53711-.73857-.11912-1.48628-.18273-2.23438-.1875zm82.12305.98047c.99578 2.22061 1.56039 4.63442 1.65039 7.06641.0678 1.83259-.13359 3.6816-.68164 5.43164-.5339 1.70484-1.3888 3.2949-2.37695 4.7832-.7461 1.12373-1.57164 2.1965-2.26172 3.35547-.69009 1.15897-1.24796 2.42323-1.39844 3.76367-.18705 1.66624.29107 3.39828 1.30664 4.73242-1.98856-1.03748-3.90748-2.20896-5.74024-3.50195-1.17116-.82625-2.31445-1.70687-3.28906-2.75781-.69085-.74495-1.29627-1.57781-1.72265-2.5-.42637-.92219-.66981-1.93797-.62891-2.95313.0692-1.7207.99856-3.38594 2.42578-4.34961-.36315 2.27288.20615 4.68131 1.54883 6.55079.95465 1.32921 2.28674 2.38581 3.79883 3.01171-.41851-1.32681-.45273-2.77397-.09766-4.11914.44532-1.68689 1.46686-3.15774 2.53516-4.5371 1.58557-2.04728 3.34004-4.0214 4.35351-6.4043 1.00864-2.37155 1.21411-5.07484.57813-7.57227zm-29.91797 28.72657c.21088 2.51299-.0671 5.06607-.81445 7.4746-.56321 1.81498-1.39421 3.55547-2.53125 5.07813-1.10774 1.48343-2.49123 2.74377-3.96875 3.85937-1.11559.84233-2.29036 1.60787-3.36328 2.50391-1.07293.89603-2.05255 1.9403-2.66016 3.19922-.75521 1.56473-.88429 3.42109-.34961 5.07422-1.58809-1.69727-3.06216-3.50095-4.41016-5.39453-.86138-1.21001-1.67558-2.46395-2.26757-3.82618-.41961-.96555-.72604-1.98713-.82618-3.03515-.10013-1.04803.0118-2.12311.40039-3.10156.6588-1.65866 2.13864-2.96825 3.86524-3.41993-1.13582 2.09728-1.40701 4.6467-.73633 6.93555.47688 1.62747 1.41808 3.11691 2.68164 4.24805.0466-1.44093.50908-2.86549 1.31836-4.0586 1.01496-1.49634 2.51866-2.58482 4.03711-3.5664 2.25373-1.45689 4.64742-2.78393 6.45703-4.76563 1.80082-1.97207 2.93177-4.54499 3.16797-7.20507zm19.85742 1.80468c.81697 3.04345 1.0404 6.24389.65235 9.3711-.29247 2.35692-.93389 4.67949-1.99805 6.80273-1.03744 2.06992-2.46257 3.92745-4.03711 5.625-1.18893 1.28182-2.46926 2.4816-3.59375 3.82031-1.12448 1.33871-2.10217 2.83951-2.57227 4.52344-.58381 2.09126-.3295 4.40422.69532 6.31836-2.33382-1.7363-4.55061-3.62895-6.63282-5.66016-1.33003-1.29745-2.61257-2.65799-3.64453-4.20312-.7308-1.0942-1.33375-2.28396-1.68945-3.55078-.35569-1.26681-.45719-2.61482-.19531-3.9043.44435-2.18796 1.97948-4.1256 4.00781-5.05859-.93415 2.83023-.70155 6.02541.63086 8.6914.94856 1.89795 2.43573 3.52304 4.24414 4.63282-.26118-1.78249-.00401-3.63945.72851-5.28516.92003-2.06591 2.53487-3.73372 4.18946-5.27539 2.45633-2.28869 5.11196-4.44824 6.90429-7.28711 1.78171-2.82205 2.60699-6.23631 2.31055-9.56055zm-84.7168 16.97071c.86029-.0266 1.72589.1411 2.50586.50585-2.13662.85594-3.90991 2.58106-4.82421 4.69336-.65009 1.50186-.87056 3.18583-.63086 4.80469.92343-1.04061 2.14587-1.81293 3.48242-2.19922 1.67609-.48443 3.46307-.36233 5.19531-.15429 2.57099.30877 5.16538.7998 7.73047.44531 2.55287-.3528 4.9808-1.56406 6.79687-3.39258-1.39375 1.99503-3.17643 3.71842-5.21679 5.04492-1.53749.99956-3.22674 1.77636-5.00977 2.20508-1.73698.41765-3.54163.50127-5.32617.41797-1.34739-.0629-2.69021-.2198-4.03906-.2168-1.34886.003-2.72184.17298-3.94922.73242-1.52569.69541-2.76566 1.99608-3.38867 3.55274-.13132-2.23909-.11326-4.48797.05468-6.72461.10731-1.42927.27668-2.86029.67774-4.23633.28429-.9754.68755-1.92219 1.25976-2.76172.57221-.83952 1.31896-1.57023 2.21094-2.05664.75596-.41223 1.6104-.63357 2.4707-.66015zm20.23243 11.10546c.469.008.93629.0702 1.39062.18946-2.12552 1.34043-3.69047 3.54222-4.25781 5.99023-.40356 1.7413-.31111 3.5946.26367 5.28711.78645-1.29917 1.94741-2.36949 3.30664-3.04687 1.70366-.84903 3.64695-1.06902 5.54688-1.18555 2.81978-.17295 5.69954-.15524 8.38281-1.03906 2.67166-.88 5.03959-2.65769 6.62891-4.97852-1.10436 2.41674-2.67917 4.6173-4.60938 6.44336-1.45389 1.37544-3.11541 2.5429-4.94531 3.35352-1.78212.78945-3.7012 1.23135-5.63281 1.49218-1.45842.19694-2.93192.29422-4.37891.5625-1.447.26829-2.8863.71921-4.09375 1.56055-1.50211 1.04665-2.57707 2.68784-2.93945 4.48242-.57988-2.38016-1.00175-4.80018-1.25977-7.23633-.16486-1.5568-.26211-3.12828-.10156-4.68554.11378-1.10362.35915-2.20049.80859-3.21485s1.10811-1.94677 1.9707-2.64453c1.09557-.88627 2.51291-1.35294 3.91993-1.33008zm45.66601 12.75391c-.57612 3.11087-1.75641 6.1095-3.45703 8.77734-1.28122 2.00991-2.8633 3.84001-4.74219 5.30664-1.82997 1.42845-3.91848 2.496-6.07422 3.35743-1.62765.6504-3.30074 1.18851-4.89453 1.91797-1.59378.72946-3.12628 1.66837-4.27734 2.99023-1.43148 1.64388-2.20002 3.84987-2.09961 6.02734-1.35898-2.57973-2.54533-5.25061-3.54883-7.98828-.6413-1.74954-1.20925-3.53648-1.47461-5.38086-.18836-1.3074-.2217-2.64384.00391-3.94531.22551-1.30148.71576-2.56941 1.50976-3.625 1.34513-1.78829 3.5671-2.88297 5.80469-2.85937-2.06735 2.16308-3.23749 5.15874-3.18359 8.15039.0383 2.12717.68218 4.24178 1.83594 6.02929.53257-1.72827 1.56382-3.30032 2.9375-4.47656 1.72206-1.47455 3.90157-2.29284 6.0625-2.97851 3.20713-1.01766 6.53933-1.83201 9.38281-3.63086 2.83086-1.79086 5.05043-4.53101 6.21484-7.67188zm-77.90039.58789c.86042.0222 1.71461.23812 2.47266.64649-2.18168.7335-4.04953 2.35499-5.08203 4.4121-.73411 1.46261-1.04995 3.13188-.90235 4.76172.9809-.98662 2.24527-1.68809 3.60156-1.99804 1.70085-.38868 3.47765-.16523 5.19532.14062 2.54937.45394 5.11231 1.09139 7.69336.88281 2.56876-.20759 5.0598-1.28121 6.97656-3.0039-1.50455 1.91286-3.37995 3.53342-5.49219 4.74219-1.59165.91085-3.32445 1.59095-5.1289 1.91796-1.75785.31857-3.5629.29954-5.33985.11524-1.34166-.13915-2.67461-.37211-4.02148-.44531-1.34688-.0732-2.72532.0188-3.98242.50781-1.56264.60786-2.87573 1.83661-3.58594 3.35547-.004-2.24293.14116-4.48741.43554-6.71094.18813-1.42089.43959-2.84031.91797-4.19141.3391-.95773.79521-1.88175 1.41407-2.6875.61885-.80576 1.4061-1.49264 2.32422-1.92773.77809-.36874 1.64348-.53978 2.5039-.51758zm87.59766 6.62109c.56261 2.49566.63787 5.10064.22265 7.625-.3129 1.90229-.90553 3.76465-1.83593 5.45313-.9065 1.64511-2.11975 3.10474-3.44922 4.43164-1.00381 1.00187-2.07781 1.93446-3.03125 2.98438-.95345 1.04991-1.79343 2.23609-2.22852 3.58593-.54073 1.67759-.4106 3.56198.35742 5.14844-1.83302-1.48402-3.56635-3.0899-5.18554-4.80469-1.03462-1.09571-2.02738-2.24297-2.8125-3.52929-.55643-.91165-1.00704-1.89448-1.25391-2.9336-.24684-1.03912-.28537-2.13644-.03125-3.17383.43074-1.75877 1.73581-3.28042 3.4082-3.97461-.84887 2.26577-.76477 4.86404.22852 7.07032.70639 1.56902 1.85728 2.93434 3.28516 3.89453-.15412-1.45438.11284-2.95006.75976-4.26172.81143-1.64522 2.17321-2.9466 3.5625-4.14453 2.06209-1.77805 4.28175-3.44569 5.82422-5.68945 1.53477-2.23255 2.31326-4.97573 2.17969-7.68165zm-43.23047 1.0586c-.44099 2.90229-1.44602 5.71717-2.94336 8.24219-1.12821 1.90254-2.53948 3.64791-4.23828 5.06445-1.65478 1.37984-3.56122 2.43326-5.53516 3.29687-1.49039.65206-3.02582 1.20141-4.48242 1.92579-1.45661.72437-2.85081 1.64161-3.87891 2.90234-1.27822 1.56744-1.9239 3.63599-1.76562 5.65234-1.33825-2.35135-2.51988-4.79221-3.5332-7.30078-.64755-1.60307-1.22772-3.24289-1.5293-4.94531-.21383-1.20677-.28536-2.44646-.11524-3.66016.17011-1.2137.58832-2.40352 1.29297-3.40625 1.19413-1.69928 3.22242-2.78117 5.29883-2.82617-1.8528 2.06771-2.84897 4.88145-2.70898 7.6543.0995 1.97153.7607 3.91239 1.88476 5.53515.44228-1.6188 1.35106-3.10818 2.58985-4.24023 1.55327-1.41944 3.55112-2.24257 5.53515-2.94336 2.94465-1.0401 6.01185-1.89642 8.59571-3.65039 2.5719-1.74585 4.54695-4.3529 5.5332-7.30078zm-56.5332 15.47461c.42987.007.85898.0645 1.27539.17383-1.94809 1.22585-3.3824 3.24218-3.90235 5.48437-.36968 1.59421-.28639 3.29038.24024 4.83985.72146-1.18958 1.78584-2.16895 3.03125-2.78907 1.56179-.77765 3.34255-.9794 5.08398-1.08593 2.58464-.15815 5.22392-.14165 7.6836-.95118 2.44796-.80568 4.61813-2.43356 6.07617-4.55859-1.01267 2.21296-2.45575 4.22892-4.22461 5.90039-1.3329 1.25951-2.85621 2.32824-4.53321 3.07031-1.63369.7229-3.39359 1.12857-5.16406 1.36719-1.33677.18016-2.68539.2662-4.01172.51172-1.32632.24551-2.64505.6608-3.75195 1.43164-1.37594.95819-2.36405 2.46026-2.69727 4.10352-.53142-2.17908-.91573-4.39459-1.15234-6.625-.1512-1.4253-.24113-2.86532-.09375-4.29102.10444-1.0106.33011-2.01469.74219-2.94336.41208-.92866 1.0146-1.78118 1.80469-2.41992 1.0044-.81198 2.30413-1.23998 3.59375-1.21875zm80.07226 4.42187c-.43606 2.83646-1.42449 5.5869-2.89258 8.05274-1.10617 1.85794-2.48921 3.55953-4.15234 4.9414-1.62004 1.34606-3.48487 2.37398-5.41602 3.21485-1.45809.63488-2.96153 1.16936-4.38671 1.875-1.42519.70564-2.78772 1.59938-3.79493 2.83008-1.25224 1.5301-1.88762 3.55008-1.73633 5.52148-1.30421-2.30091-2.45509-4.68854-3.4414-7.14258-.6303-1.56824-1.19638-3.17313-1.48828-4.83789-.20692-1.18008-.27385-2.38999-.10547-3.57617.16837-1.18619.57897-2.34909 1.26953-3.32813 1.17026-1.65913 3.15563-2.7135 5.18555-2.7539-1.8148 2.01817-2.79422 4.76759-2.66211 7.47851.0939 1.92749.7379 3.82578 1.83398 5.41407.43515-1.58175 1.32611-3.03608 2.53906-4.14063 1.52087-1.38495 3.47529-2.18551 5.41602-2.86719 2.8804-1.01174 5.87927-1.84446 8.4082-3.55468 2.51721-1.7023 4.45464-4.24688 5.42383-7.12696zm-56.79297 6.85742c.522.008 1.04118.0784 1.54688.21094-2.36582 1.49563-4.10674 3.94708-4.73828 6.67383-.44944 1.94051-.34704 4.00632.29296 5.89258.87447-1.4476 2.16827-2.63959 3.68165-3.39453 1.8958-.94571 4.05728-1.19221 6.17187-1.32227 3.13823-.19302 6.344-.17377 9.33008-1.1582 2.97463-.98066 5.60985-2.96086 7.37695-5.54688-1.22852 2.69272-2.98017 5.14425-5.1289 7.17969-1.61776 1.53246-3.46692 2.83482-5.50391 3.73828-1.98314.87957-4.11968 1.37313-6.26953 1.66406-1.62318.21966-3.26262.32588-4.87305.625-1.61043.29913-3.21302.80342-4.55664 1.74024-1.673 1.16647-2.86961 2.99462-3.27148 4.99414-.64551-2.65249-1.11533-5.34772-1.40235-8.0625-.18344-1.73491-.29173-3.48918-.11328-5.22461.12644-1.2296.40036-2.44965.90039-3.58008.50004-1.13044 1.23258-2.16956 2.19336-2.94726 1.21905-.98679 2.79727-1.50747 4.36328-1.48243zm8.44532 46.0879c-.99354 4.68597-2.78133 9.20325-5.26563 13.29882-3.71212 6.11973-9.00477 11.29143-15.27344 14.7461-1.29393.71309-2.63412 1.35539-4.04883 1.78125-1.41471.42585-2.90982.63109-4.37695.45703-2.56158-.3039-4.8781-1.74544-6.71484-3.55664-2.18431-2.15394-3.83499-4.97353-4.08203-8.03125-.16303-2.01788.28905-4.04973 1.05468-5.92383.6335-1.55068 1.49575-3.06726 1.58008-4.74023.0604-1.19805-.29637-2.40025-.92187-3.42383-.68967-1.12858-1.70748-2.05351-2.89649-2.63282-2.00506 6.44796-3.85053 12.94633-5.53125 19.48633-.55758 2.16966-1.09867 4.35444-1.3164 6.58399-.34157 3.49762.11934 7.03792-.26368 10.53125-.77098 7.03172-4.89692 13.27966-9.74218 18.43359-3.52016 3.74442-7.56187 7.19575-9.74219 11.84961-1.50404 3.21036-2.0149 6.77893-2.63477 10.26953-.70675 3.97982-1.59498 7.98025-3.42187 11.58594-2.42709 4.79029-6.49271 8.71659-11.32422 11.06055-1.40446.68136-2.86728 1.23264-4.27734 1.90234-1.41006.66971-2.78131 1.47007-3.88477 2.57422-.8163.81681-1.47904 1.8008-1.84375 2.89648-.30892.92809-.40016 1.9279-.26367 2.89649 1.97638-.56791 4.13701-.47363 6.05664.26367 2.48596.95482 4.49299 2.94146 5.79297 5.26562 1.16554 2.08379 1.80553 4.45841 1.84375 6.84571.99572.23167 2.05553.18266 3.02539-.14063.96985-.32329 1.84633-.9184 2.5039-1.70117 1.15837-1.3789 1.57928-3.22256 1.84376-5.00391.34915-2.35166.49126-4.74286.26367-7.10937-.16349-1.69998-.51695-3.38231-1.05274-5.00391.90757.37266 1.6985 1.02448 2.23828 1.84375.60883.92408.89141 2.05829.78907 3.16016.90514-.64996 1.60409-1.58189 1.97461-2.63281.55967-1.5874.36418-3.32866.52734-5.00391.20316-2.08597.98614-4.11229 2.23828-5.79297-.53367 1.55725-.67035 3.24822-.39453 4.8711.263 1.54748.89218 3.03995.91992 4.60937.032 1.81028-.75257 3.55567-1.8418 5.00195-.96321 1.27894-2.17782 2.38763-2.89648 3.81836-.60805 1.21054-.82324 2.62726-.52734 3.94922.33165 1.48167 1.31209 2.80566 2.63281 3.55469.088-1.14187.53387-2.25321 1.25781-3.14063.72395-.88742 1.7233-1.54575 2.82422-1.86132 1.06358-.30486 2.19618-.29242 3.29102-.13282 2.54456.37093 4.96883 1.53728 6.84765 3.29297 1.46717-.81542 2.64637-2.13768 3.29102-3.6875.2924-.70297.47715-1.45956.45898-2.2207-.0182-.76114-.24936-1.52667-.72265-2.12305-.37398-.47124-.88498-.82149-1.4336-1.06836-.54861-.24687-1.13633-.3953-1.72656-.51172-1.22138-.24092-2.51515-.36972-3.55469-1.05468-.6498-.42815-1.16049-1.06142-1.4414-1.78711-.28092-.7257-.33084-1.5389-.13868-2.29297.7819 1.47753 2.20159 2.60247 3.81836 3.02734.94482.24829 1.95561.26282 2.89649 0 .9031-.25227 1.73462-.75868 2.37109-1.44726-.95228-.0216-1.89864-.3056-2.70508-.8125-.80644-.50691-1.47194-1.23524-1.90429-2.08399-.50935-.99992-.69041-2.1438-.66211-3.26562s.25857-2.22982.53125-3.31836c.50635-2.02132 1.16689-4.00296 1.97461-5.92383.37944 1.83026.68721 3.67491.92187 5.5293.10513.83075.19493 1.66625.39844 2.47851.2035.81227.52577 1.60781 1.04883 2.26172.6635.82948 1.62245 1.38922 2.63476 1.71094 1.05812.33628 2.19289.42745 3.29102.26367-.0921-1.8711.17675-3.75883.78906-5.5293.55663-1.60948 1.42819-3.16055 2.76563-4.21484 1.15317-.90903 2.6143-1.40337 4.08203-1.44727 1.1281-.0337 2.26266.19318 3.29101.65821 1.20569-1.14444 1.89401-2.81496 1.84375-4.47657-.0338-1.11644-.39221-2.22099-1.01758-3.14648s-1.51522-1.67009-2.53711-2.12109c-1.51134-.66703-3.22121-.68139-4.87304-.65821-2.37152.0333-4.7419.12144-7.10938.26368.52267-1.52635 1.45539-2.90928 2.67383-3.9668 1.21845-1.05752 2.71998-1.78716 4.30469-2.08984 1.75576-.33538 3.58527-.14941 5.29883.35937 1.71356.50879 3.32066 1.33344 4.83984 2.27539 3.02705 1.87689 5.74999 4.24131 8.03125 6.97656 1.05022-2.94338.80541-6.32276-.6582-9.08398-1.51709-2.86211-4.18866-4.9378-6.97852-6.58399-3.12631-1.84472-6.5016-3.26579-10.00586-4.21289 3.20132-1.33789 6.57179-2.26809 10.00586-2.76367 4.4316-.63954 9.02189-.54231 13.29688.78906 4.02256 1.25276 7.69971 3.59688 10.5332 6.71485 1.71059-2.0951 2.36558-5.01193 1.71289-7.63672-.64287-2.58531-2.47645-4.78308-4.74023-6.1875-2.02847-1.25844-4.37043-1.91967-6.71485-2.36914-4.11322-.78859-8.34286-.96738-12.50781-.52734 2.87142-1.96601 6.40017-2.95467 9.875-2.76563 4.12325.22432 8.00867 2.0332 12.11133 2.50195 4.82813.55164 9.67639-.7802 14.2207-2.50195 2.18855-.8292 4.34137-1.75072 6.45117-2.76367-2.00142-.52452-3.98004-1.14026-5.92578-1.84375-5.61507-2.03015-11.0561-4.81793-16.98437-5.5293-5.04313-.60516-10.26474.37267-14.7461 2.76367 1.38554-2.48885 3.48846-4.57381 5.98828-5.93945 2.49983-1.36564 5.38952-2.00698 8.23243-1.82813 3.29049.20705 6.41292 1.47353 9.42578 2.8125 3.01286 1.33899 6.02665 2.78008 9.26953 3.375 3.4539.63365 7.12599.24855 10.26953-1.3164 2.1392-1.06496 4.011-2.66183 5.39844-4.60742-3.34597.0564-6.69612-.16391-10.00586-.65821-3.84002-.5735-7.61802-1.51441-11.45508-2.10742-1.41231-.21827-2.83565-.3908-4.2168-.75781s-2.73296-.94084-3.81445-1.875c-1.43762-1.24178-2.31901-3.1049-2.36914-5.00391 2.34951 2.92084 5.8851 4.85924 9.61133 5.26758 2.05389.22508 4.1258.00286 6.1875-.13281.92073-.0608 1.84328-.10388 2.76562-.13086.0508-.94605-.13234-1.90449-.52734-2.76563-.47891-1.04405-1.27139-1.94033-2.24805-2.54492-.97665-.6046-2.13319-.91383-3.28125-.87695 2.38665-.73108 5.06737-.43943 7.24024.78906 2.48276 1.40369 4.24352 4.01717 4.60937 6.8457.98559-2.03061 1.9942-4.04784 3.02735-6.05468 1.35658-2.63512 2.78278-5.34137 3.02929-8.29492.16973-2.03366-.24669-4.11385-1.18555-5.92579-1.54023 1.23781-3.55911 1.86415-5.52929 1.71289-1.66731-.128-3.26321-.79086-4.66211-1.70703-1.39891-.91617-2.61745-2.08114-3.76563-3.29687-2.98597-3.16164-5.56024-6.71217-7.63671-10.5332zm43.82617 5.5625c2.14019 4.76259 2.34505 10.36328.55859 15.26953-1.77012 4.86139-5.29941 8.83443-8.56445 12.84765-3.49298 4.29338-6.94634 8.92098-11.91602 11.35742-.77739.38113-1.58643.70444-2.42187.93165-1.20933.3289-2.47215.454-3.72266.37109.21356 1.17233.14794 2.39563-.1875 3.53906-.36159 1.23258-1.03199 2.36235-1.87891 3.32813-.84692.96579-1.86642 1.771-2.96093 2.44336-1.38094.84832-2.89052 1.49277-4.46875 1.86132-2.0731.48412-4.25893.48412-6.33203 0 .17973 1.13033.71324 2.2017 1.50586 3.02735.79261.82565 1.84083 1.4032 2.96289 1.6289 1.00646.20245 2.05594.12573 3.05664-.10351 1.0007-.22923 1.95951-.60746 2.90234-1.01367 3.84197-1.65526 7.47771-3.78825 10.79883-6.33203-1.06611 2.67663-2.73124 5.11283-4.83985 7.07617-2.4035 2.23792-5.38112 3.85483-8.5664 4.65429.8376 1.36919 2.08551 2.48523 3.53906 3.16602 2.07245.97066 4.51212 1.03387 6.70313.37305 2.56142-.77254 4.74778-2.4572 6.70312-4.28321 1.60654-1.50028 3.10158-3.12055 4.46875-4.84179.0213 2.59832-.84581 5.19586-2.42187 7.26172-1.42606 1.86923-3.37546 3.27074-5.39844 4.46875-1.67322.99088-3.41821 1.86337-5.21485 2.60742 2.04937 1.66887 4.85561 2.36945 7.44922 1.86133 2.00007-.39184 3.79871-1.44032 5.58594-2.41993 1.66404-.91209 3.36471-1.78481 4.83984-2.97851 1.16717-.9445 2.17932-2.0817 2.98047-3.35156.10166 1.97995-.50102 3.9889-1.67578 5.58593-1.25183 1.7018-3.14692 2.91925-5.21484 3.35157 1.87756.91518 3.8944 1.54459 5.95898 1.86132 1.53816.23597 3.1022.29791 4.6543.18555 4.60226-3.81349 9.01673-7.85301 13.2207-12.10156 6.8546-6.9273 13.15097-14.40735 18.80664-22.34375-3.30166-2.79223-6.19585-6.06598-8.56445-9.6836-1.89148-2.8889-3.47118-6.07108-3.91016-9.49609-.16615-1.29632-.16615-2.61384 0-3.91016-1.44343-.005-2.88678-.19317-4.2832-.55859-1.99868-.52302-3.90127-1.40959-5.58594-2.60547 2.82036.50119 5.86474-.51425 7.82032-2.60742.99427-1.06423 1.70559-2.36757 2.23437-3.72461.6034-1.54852.981-3.1835 1.11719-4.83984-3.35611 1.90168-7.35943 2.63431-11.17188 2.04687-3.14143-.48405-6.14283-1.85366-8.5664-3.91015zm-128.48438 69.61718c-2.75571-.0567-5.51358 1.12555-7.37305 3.16016.42418 1.86562.73243 3.75633.92188 5.66016.30037 3.01843.2822 6.16899-.92188 8.95312-1.20409 2.78417-3.59658 5.03061-6.45117 6.05664 1.07048 1.22378 2.59958 2.03629 4.21289 2.23828 1.58759.19877 3.21516-.18148 4.64454-.90039 1.42934-.71892 2.67318-1.76379 3.78124-2.91797 1.3388-1.39451 2.5041-2.97537 3.29297-4.74023 1.20866-2.70404 1.49031-5.81178.78907-8.68945.75975 1.89316 1.24994 3.89562 1.44922 5.92578.1374 1.39991.1374 2.81298 0 4.21289.88839-1.33947 1.80919-2.65601 2.76367-3.94922.66274-.89793 1.34362-1.78871 1.88672-2.76367.54309-.97495.94753-2.04783 1.00976-3.16211.0558-.99872-.16602-2.00196-.57226-2.91602-.40624-.91407-.99303-1.7424-1.66602-2.48242-1.98245-2.17993-4.82164-3.62496-7.76758-3.68555z" fill="#fd0" fill-rule="evenodd" transform="translate(5.168849 19.401636)"/><g stroke="#000"><circle cx="464.0484" cy="261.98929" fill="#fd0" r="11.597857" stroke-linecap="round" stroke-linejoin="round" stroke-width="2"/><path d="m457.97615 264.62342c.46074.95144 1.13756 1.79746 1.96465 2.45582.82356.65554 1.79617 1.12455 2.8242 1.3507 1.13177.24897 2.32565.20156 3.43816-.12279 1.21419-.35399 2.33118-1.03859 3.19256-1.96466.85828-.92274 1.45947-2.08218 1.71907-3.31535" fill="none" stroke-linecap="round" stroke-linejoin="round" stroke-width="3"/><circle cx="442.7287" cy="270.83371" fill="#fd0" r="12.435749" stroke-linecap="round" stroke-linejoin="round" stroke-width="2"/><path d="m436.21774 273.65814c.49402 1.02018 1.21974 1.92733 2.10659 2.63325.88306.7029 1.92593 1.2058 3.02823 1.44828 1.21353.26695 2.49367.21612 3.68655-.13166 1.30191-.37957 2.4996-1.11363 3.42321-2.1066.92029-.98941 1.56492-2.23261 1.84327-3.55487" fill="none" stroke-linecap="round" stroke-linejoin="round" stroke-width="3"/><circle cx="429.97409" cy="250.44501" fill="#fd0" r="11.597857" stroke-linecap="round" stroke-linejoin="round" stroke-width="2"/><path d="m423.90184 253.07912c.46074.95144 1.13756 1.79746 1.96465 2.45582.82356.65554 1.79617 1.12455 2.8242 1.3507 1.13177.24897 2.32565.20156 3.43816-.12279 1.21419-.35399 2.33118-1.03859 3.19256-1.96466.85828-.92274 1.45947-2.08218 1.71907-3.31535" fill="none" stroke-linecap="round" stroke-linejoin="round" stroke-width="3"/><circle cx="472.61353" cy="242.06607" fill="#fd0" r="10.294468" stroke-linecap="round" stroke-linejoin="round" stroke-width="2"/><path d="m467.22369 244.40416c.40896.84452 1.00971 1.59547 1.74386 2.17984.73101.58187 1.5943.99817 2.5068 1.1989 1.00458.22099 2.06429.17891 3.05178-.10899 1.07774-.31421 2.0692-.92188 2.83377-1.74387.76183-.81904 1.29545-1.84818 1.52588-2.94276" fill="none" stroke-linecap="round" stroke-linejoin="round" stroke-width="3"/><circle cx="451.85242" cy="247.37273" fill="#fd0" r="11.318559" stroke-linecap="round" stroke-linejoin="round" stroke-width="2"/><path d="m445.92639 249.94341c.44964.92853 1.11016 1.75419 1.91734 2.39669.80373.63976 1.75291 1.09747 2.75618 1.31817 1.10451.24297 2.26964.1967 3.35536-.11984 1.18495-.34547 2.27505-1.01359 3.11568-1.91735.83762-.90052 1.42433-2.03204 1.67768-3.23551" fill="none" stroke-linecap="round" stroke-linejoin="round" stroke-width="3"/><circle cx="420.17712" cy="232.02165" fill="#fd0" r="11.318559" stroke-linecap="round" stroke-linejoin="round" stroke-width="2"/><path d="m414.25111 234.59234c.44964.92853 1.11016 1.75418 1.91734 2.39668.80373.63975 1.75291 1.09747 2.75618 1.31817 1.10451.24297 2.26964.19671 3.35536-.11983 1.18495-.34547 2.27505-1.01358 3.11568-1.91735.83762-.90052 1.42433-2.03204 1.67768-3.23551" fill="none" stroke-linecap="round" stroke-linejoin="round" stroke-width="3"/><circle cx="482.10965" cy="224.56343" fill="#fd0" r="10.294468" stroke-linecap="round" stroke-linejoin="round" stroke-width="2"/><path d="m476.7198 226.90151c.40896.84452 1.00972 1.59547 1.74386 2.17984.731.58187 1.5943.99818 2.5068 1.19891 1.00458.22099 2.06429.17891 3.05178-.10899 1.07774-.31421 2.0692-.92188 2.83377-1.74387.76183-.81904 1.29546-1.84818 1.52588-2.94277" fill="none" stroke-linecap="round" stroke-linejoin="round" stroke-width="3"/><circle cx="442.7287" cy="230.42868" fill="#fd0" r="12.435749" stroke-linecap="round" stroke-linejoin="round" stroke-width="2"/><path d="m436.21774 233.2531c.49402 1.02018 1.21974 1.92733 2.10659 2.63325.88306.7029 1.92593 1.2058 3.02823 1.44828 1.21353.26695 2.49367.21612 3.68655-.13166 1.30191-.37957 2.4996-1.11363 3.42321-2.1066.92029-.98941 1.56492-2.23261 1.84327-3.55487" fill="none" stroke-linecap="round" stroke-linejoin="round" stroke-width="3"/><circle cx="460.23132" cy="223.35313" fill="#fd0" r="12.435749" stroke-linecap="round" stroke-linejoin="round" stroke-width="2"/><path d="m453.72039 226.17756c.49402 1.02018 1.21974 1.92733 2.10659 2.63325.88306.7029 1.92593 1.2058 3.02823 1.44828 1.21353.26695 2.49367.21612 3.68655-.13166 1.30191-.37957 2.4996-1.11363 3.42321-2.1066.92029-.98941 1.56492-2.23261 1.84327-3.55487" fill="none" stroke-linecap="round" stroke-linejoin="round" stroke-width="3"/><circle cx="415.72992" cy="211.25024" fill="#fd0" r="12.994345" stroke-linecap="round" stroke-linejoin="round" stroke-width="2"/><path d="m408.92651 214.20154c.51622 1.06601 1.27453 2.0139 2.20122 2.75153.92272.73447 2.01244 1.25995 3.16425 1.51333 1.26804.27895 2.60567.22583 3.85214-.13757 1.36039-.39662 2.61188-1.16365 3.57698-2.20123.96163-1.03385 1.63521-2.33289 1.92607-3.71454" fill="none" stroke-linecap="round" stroke-linejoin="round" stroke-width="3"/><circle cx="441.42529" cy="205.1057" fill="#fd0" r="12.435749" stroke-linecap="round" stroke-linejoin="round" stroke-width="2"/><path d="m434.91435 207.93012c.49402 1.02018 1.21974 1.92733 2.10659 2.63325.88306.7029 1.92593 1.2058 3.02823 1.44828 1.21353.26695 2.49367.21612 3.68655-.13166 1.30191-.37957 2.4996-1.11363 3.42321-2.1066.92029-.98941 1.56492-2.23261 1.84327-3.55487" fill="none" stroke-linecap="round" stroke-linejoin="round" stroke-width="3"/><circle cx="408.28198" cy="187.78925" fill="#fd0" r="12.435749" stroke-linecap="round" stroke-linejoin="round" stroke-width="2"/><path d="m401.77104 190.61367c.49402 1.02018 1.21974 1.92733 2.10659 2.63325.88306.7029 1.92593 1.2058 3.02823 1.44828 1.21353.26695 2.49367.21612 3.68655-.13166 1.30191-.37957 2.4996-1.11363 3.42321-2.1066.92029-.98941 1.56492-2.23261 1.84327-3.55487" fill="none" stroke-linecap="round" stroke-linejoin="round" stroke-width="3"/><circle cx="411.44736" cy="166.37643" fill="#fd0" r="10.946162" stroke-linecap="round" stroke-linejoin="round" stroke-width="2"/><path d="m405.71631 168.86254c.43485.89798 1.07364 1.69647 1.85426 2.31783.77728.61871 1.69524 1.06136 2.6655 1.2748 1.06817.23498 2.19497.19023 3.24497-.11589 1.14596-.3341 2.20019-.98023 3.01317-1.85426.81006-.87089 1.37746-1.96518 1.62247-3.12906" fill="none" stroke-linecap="round" stroke-linejoin="round" stroke-width="3"/><circle cx="433.04639" cy="182.01711" fill="#fd0" r="12.435749" stroke-linecap="round" stroke-linejoin="round" stroke-width="2"/><path d="m426.53543 184.84152c.49402 1.02018 1.21974 1.92733 2.10659 2.63325.88306.7029 1.92593 1.2058 3.02823 1.44828 1.21353.26695 2.49367.21612 3.68655-.13166 1.30191-.37957 2.4996-1.11363 3.42321-2.1066.92029-.98941 1.56492-2.23261 1.84327-3.55487" fill="none" stroke-linecap="round" stroke-linejoin="round" stroke-width="3"/><circle cx="454.4592" cy="163.95586" fill="#fd0" r="12.435749" stroke-linecap="round" stroke-linejoin="round" stroke-width="2"/><path d="m447.94824 166.78028c.49402 1.02018 1.21974 1.92733 2.10659 2.63325.88306.7029 1.92593 1.2058 3.02823 1.44828 1.21353.26695 2.49367.21612 3.68655-.13166 1.30191-.37957 2.4996-1.11363 3.42321-2.1066.92029-.98941 1.56492-2.23261 1.84327-3.55487" fill="none" stroke-linecap="round" stroke-linejoin="round" stroke-width="3"/><circle cx="430.9982" cy="164.88686" fill="#fd0" r="12.435749" stroke-linecap="round" stroke-linejoin="round" stroke-width="2"/><path d="m424.48724 167.71127c.49402 1.02018 1.21974 1.92733 2.10659 2.63325.88306.7029 1.92593 1.2058 3.02823 1.44828 1.21353.26695 2.49367.21612 3.68655-.13166 1.30191-.37957 2.4996-1.11363 3.42321-2.1066.92029-.98941 1.56492-2.23261 1.84327-3.55487" fill="none" stroke-linecap="round" stroke-linejoin="round" stroke-width="3"/><g stroke-width="3" transform="translate(672.17914 -.000002)"><path d="m-183.63464 152.10131c-.58604.21806-1.24397.1784-1.84327 0-.81638-.24302-1.54664-.73343-2.14176-1.34284-.59511-.60941-1.06072-1.33542-1.44304-2.09658-.76464-1.52233-1.20555-3.18891-1.94501-4.72363-1.53257-3.18081-4.29225-5.64832-7.37308-7.37308-2.86807-1.60565-6.02813-2.62371-9.21635-3.42322-5.42727-1.361-10.99986-2.11649-16.58943-2.36992-1.30476-.0592-2.62246-.0902-3.90653.14867-1.28406.23892-2.54568.76836-3.46655 1.6946-.50798.51095-.90293 1.1356-1.13476 1.81778-.23182.68218-.2991 1.4212-.18186 2.13209.12106.73402.43586 1.42924.86581 2.03635.42996.60711.97303 1.12867 1.5663 1.57753 1.18656.8977 2.56208 1.50353 3.88767 2.17925 1.19091.60707 2.34937 1.27537 3.51148 1.9359 1.19498.67922 2.39444 1.35056 3.59828 2.01396-2.05837.55098-4.02457 1.44471-5.79314 2.63325-1.57568 1.05891-3.04587 2.42613-3.68654 4.21319-.42356 1.18146-.44948 2.51469 0 3.68653.32925.85839.90298 1.61413 1.60715 2.20522s1.53597 1.02095 2.40965 1.30715c1.74738.5724 3.62911.5726 5.46288.4375 2.7954-.20595 5.59427-.72165 8.16305-1.84327.5249-.22919 1.05034-.48643 1.61897-.5551.28431-.0343.57724-.0195.84954.0692s.52312.2542.69138.48594c.16628.22901.24622.51503.24599.79804-.00024.283-.0778.56288-.2024.817-.24913.50825-.67396.90535-1.09689 1.28153-2.69817 2.39992-5.71015 4.45966-8.16305 7.10975-3.77293 4.07624-6.02898 9.3569-7.37308 14.74616-.41249 1.6539-.7457 3.32658-1.05329 5.00316-.15347.83653-.30076 1.69555-.14927 2.53244.0757.41844.22791.82668.47443 1.17317.24653.3465.59062.62892.99146.7709.38931.1379.82022.13942 1.22066.0383.40044-.10113.77159-.30145 1.09933-.55279.65548-.50267 1.13277-1.19571 1.62987-1.85542.33929-.45028.6998-.89685 1.16449-1.21612.23235-.15964.48963-.28562.76313-.35393.2735-.0683.56366-.0777.83728-.01.29587.0733.56604.23539.78714.44523.22109.20984.39465.46635.52949.73973.31694.64257.42126 1.37667.37463 2.09164-.0466.71496-.23878 1.41385-.48961 2.08499-.50165 1.34228-1.24163 2.59814-1.59663 3.98643-.5689 2.22482-.10195 4.56194.13166 6.84643.0433.4235.0789.85023.18752 1.26185s.29613.81242.60245 1.10806c.38439.37099.9285.54575 1.46253.56013.53403.0144 1.06188-.11916 1.5657-.2968 1.53451-.54104 2.91628-1.50828 3.94987-2.76491.41743.80524.60226 1.7294.52664 2.63325-.12454 1.48858-.92812 2.85633-1.05329 4.34485-.13413 1.595.53122 3.16464 1.44828 4.47651.69613.99582 1.53748 1.87986 2.36992 2.7649.47668.5068.95996 1.02216 1.55699 1.37939.29852.17862.62421.31569.96596.38066.34176.065.70015.0562 1.03193-.0484.30248-.0954.57686-.26793.81552-.4768.23867-.20887.44329-.45382.63276-.70816 1.53529-2.06093 2.06864-4.6892 2.36992-7.24141.51593-4.37053.47156-8.80688-.13166-13.16622 1.32943 1.97434 2.43587 4.0987 3.29155 6.31978 1.27772 3.31656 1.99314 6.84895 2.10659 10.40131 1.76615-1.21633 3.19326-2.91965 4.08153-4.8715 1.55204-3.4104 1.41223-7.31388 1.31662-11.05961-.0626-2.45345-.10739-4.97678-1.0533-7.24142-.36959-.88486-.86893-1.70848-1.30747-2.56127-.43855-.85278-.82144-1.75253-.93078-2.70522-.14514-1.26455.21007-2.55931.87241-3.64625.66235-1.08694 1.61812-1.97546 2.68247-2.67353.85344-.55974 1.79241-1.00796 2.79359-1.20625s2.06933-.13537 2.99954.28462c.99138.44761 1.78111 1.2825 2.27853 2.24984.49743.96734.71641 2.06107.7497 3.1483.0891 2.90945-1.09757 5.68473-2.17826 8.3875-.54035 1.35138-1.06106 2.71645-1.39351 4.13338s-.47312 2.89423-.24643 4.33188c.23753 1.50641.87499 2.93413 1.73975 4.19027.86477 1.25614 1.95295 2.34693 3.13175 3.31447.42397.34799.86103.68155 1.25679 1.06131.39575.37977.75213.81036.98146 1.30861.28048.60939.35921 1.29632.32463 1.96626-.0346.66995-.17791 1.329-.32463 1.9836-.48428 2.16056-1.01106 4.3116-1.57994 6.45144.77984.93044 1.91206 1.55806 3.11437 1.72638 1.20231.16833 2.46335-.12423 3.46873-.80474 1.28744-.87142 2.08871-2.28667 2.76491-3.68654.64199-1.32905 1.21359-2.6921 1.7116-4.08153.95153.31747 1.71945 1.13659 1.97494 2.1066.13379.50796.1333 1.04626.0365 1.56255s-.28783 1.01175-.52833 1.47874c-.48098.93399-1.15452 1.75227-1.74647 2.62018-.74578 1.09345-1.36559 2.27274-1.84327 3.5071.75431.66932 1.69034 1.13183 2.68024 1.32435s2.03105.11454 2.98123-.22328c1.64466-.58474 2.94474-1.91196 3.8182-3.42321 1.18487-2.05006 1.6585-4.41901 2.23826-6.71477.27901-1.10482.58635-2.20249.92163-3.29155 1.31539.96706 2.40539 2.23872 3.1599 3.68654.72726 1.39552 1.13881 2.93359 1.44828 4.47651.65062 3.24376.87259 6.57324.65831 9.87466 1.93588-.24699 3.76397-1.25725 5.00316-2.76491 1.14344-1.39117 1.76609-3.13373 2.23826-4.8715.49249-1.81255.84498-3.66313 1.05329-5.52981 1.56211 1.24892 2.90517 2.77106 3.94987 4.47652 1.43446 2.34175 2.29995 5.0293 2.50158 7.76806.93233-1.8412 1.94295-3.64274 3.02823-5.39814.80936-1.30911 1.66626-2.6044 2.21692-4.04162s.77526-3.05761.28466-4.51642c-.30714-.9133-.87635-1.71609-1.50254-2.44844-.6262-.73234-1.31666-1.40899-1.92068-2.15974-2.0007-2.48672-2.96904-5.7791-2.63324-8.95302 2.1137 1.4821 4.22033 2.97429 6.31978 4.47651 1.73395 1.24069 3.50004 2.50725 5.52981 3.15989 1.86456.59952 3.90326.64585 5.79314.13166-1.80703-.94974-3.36437-2.36965-4.47652-4.08152-.99781-1.53587-1.62932-3.27581-2.23825-5.00316-.90903-2.57861-1.78686-5.16822-2.63325-7.76807 2.15816 1.01573 4.47886 1.68516 6.84643 1.97493 2.3639.28932 4.77373.20007 7.10976-.26332-1.70006-1.35773-3.28726-2.85674-4.73984-4.47651-2.32198-2.58923-4.28845-5.47171-6.31978-8.29472-2.36747-3.29016-4.98967-6.63947-8.6897-8.29471-2.27877-1.01943-4.80126-1.31634-7.24142-1.84327-1.86877-.40354-3.72544-.95538-5.38884-1.89785-1.66339-.94247-3.13215-2.30324-3.95917-4.02695-.60735-1.26587-.85003-2.67931-.92163-4.08152-.039-.76343-.0282-1.53791.15914-2.27903.18733-.74111.56424-1.45207 1.15748-1.93416.38863-.31582.85972-.52466 1.35046-.62443.49073-.0998 1.00063-.0922 1.49321-.002.98517.18043 1.88527.68332 2.68614 1.28476 3.01965 2.2677 4.72893 5.86189 7.37308 8.55804 2.28102 2.32588 5.21833 3.93142 8.29471 5.00316 3.12116 1.08734 6.44433 1.65496 9.743 1.44828 1.6965-.1063 3.38014-.41644 5.00316-.92163-.93502-.77067-1.81567-1.60728-2.63324-2.50158-1.41136-1.54381-2.66781-3.33771-3.02823-5.39815-.1978-1.13078-.1164-2.2888-.0754-3.43602s.0375-2.31941-.31961-3.41041c-.38883-1.188-1.17116-2.20256-1.97493-3.15989-.83926-.9996-1.71791-1.96613-2.63324-2.89657 1.28096-1.06694 2.83792-1.79963 4.47651-2.10659 1.94701-.36474 3.94844-.13379 5.9248 0 1.09569.0742 2.19343.11808 3.29155.13166-.0732-1.60522-.7399-3.17667-1.84327-4.34485-1.23962-1.31244-2.94088-2.07263-4.60818-2.76491-2.64287-1.09734-5.32194-2.10749-8.03139-3.02823 1.08606-1.45574 2.05569-2.99832 2.89657-4.60817.84102-1.61011 1.56275-3.32441 1.71161-5.13482.12202-1.48398-.1534-2.99879-.78997-4.34485-1.62373 1.20365-3.29305 2.34581-5.00316 3.42321-1.78315 1.12341-3.63477 2.18687-5.66148 2.76491-2.57502.73442-5.37933.64094-7.89972-.26333 1.19479-1.27251 2.10152-2.81395 2.63324-4.47651.46052-1.43992.64041-2.96902.52665-4.47651-1.24016.45743-2.51891.81019-3.8182 1.05329-1.19512.22361-2.41852.35754-3.55488.78998-1.14967.43751-2.17398 1.17127-3.02946 2.05519-.85549.88391-1.54733 1.91601-2.12753 3.00068-1.16041 2.16934-1.87984 4.54351-2.8744 6.79372-.37025.8377-.7813 1.66265-1.31595 2.40627s-1.19912 1.40663-1.99904 1.85266-1.74242.66441-2.64634.51692c-.45196-.0737-.89028-.23806-1.27237-.49047-.3821-.25241-.70697-.59351-.92935-.99383-.2214-.39855-.33916-.85119-.36302-1.30648-.0239-.45529.0446-.91318.17867-1.34895.26807-.87153.79019-1.64342 1.36931-2.34773 1.93547-2.35386 4.53255-4.061 6.71476-6.18812 1.00917-.9837 1.93704-2.0686 2.60129-3.31152.66425-1.24293 1.05564-2.65597.95359-4.06156-.0663-.91387-.33648-1.79949-.48798-2.70315-.15151-.90366-.17538-1.87067.22466-2.695.29037-.59834.7842-1.07672 1.32491-1.46396.54072-.38725 1.13375-.69423 1.70332-1.03762 1.49942-.904 2.84192-2.0675 3.94986-3.42321-2.96921-.91655-6.16206-1.099-9.21635-.52665-2.68818.50374-5.26585 1.58908-7.50474 3.15989.9153-1.14301 1.52715-2.52679 1.75671-3.97301.22956-1.44621.0763-2.95144-.44009-4.3217-.47228-1.25327-1.24636-2.39163-2.23826-3.29156-1.57424 3.55428-3.71617 6.85642-6.31978 9.743-1.52077 1.68605-3.19802 3.23089-5.00316 4.60818.44675-2.24198-.14777-4.66962-1.57994-6.45145-.91976-1.14432-2.16723-2.02216-3.55488-2.50158-.62052 2.41225-1.23495 4.82607-1.84327 7.24142-.3737 1.48379-.7506 2.98304-1.44828 4.34485-1.231 2.40281-3.36839 4.20878-4.8715 6.45144-1.72024 2.56661-2.56657 5.69778-2.43053 8.78456.13604 3.08679 1.24509 6.11546 3.08884 8.59484.94981 1.27726 2.11203 2.45444 2.61912 3.96322.25354.75439.32713 1.58564.0979 2.34775-.11463.38106-.30432.74095-.56526 1.04138-.26093.30043-.59381.54028-.96676.67905z" fill="#fd0" fill-rule="evenodd" stroke-linejoin="round"/><g fill="none" stroke-linecap="round"><path d="m-181.62408 143.89584c3.02348-1.16748 5.82842-2.89819 8.22799-5.07684 1.90949-1.7337 3.56199-3.74836 4.90179-5.95217 1.54352-2.53891 2.67171-5.32969 3.32621-8.22799"/><path d="m-214.71111 144.07091c3.70564.17439 7.39739.64318 11.02901 1.40051 2.61442.54521 5.28661 1.28379 7.35268 2.97608 1.52754 1.25118 2.64706 2.99266 3.15114 4.90178"/><path d="m-175.32179 148.4475c3.69927-1.03323 7.5383-1.56479 11.37914-1.57557 5.73113-.0161 11.44335 1.12953 16.80611 3.15114 4.01533 1.51367 7.8457 3.51725 11.37914 5.95217"/><path d="m-205.6078 193.2638c-.11085-3.47833.30377-6.97294 1.22545-10.32876 1.53147-5.57604 4.44512-10.71155 8.05293-15.23054 3.4392-4.30779 7.52553-8.09801 12.07939-11.20407"/><path d="m-174.2714 158.42613c3.42154 4.524 6.80625 9.07586 10.15369 13.65496 2.85254 3.9021 5.69721 7.85662 7.7028 12.25446 2.14836 4.71089 3.28992 9.87797 3.32621 15.05548"/></g></g><path d="m356.65463 119.99734c-.54018-.005-1.07942.0249-1.61523.0918-1.7069.21319-3.36839.78809-4.8418 1.67578 1.38018 1.06685 2.48184 2.49103 3.16601 4.0957 1.17088 2.74617 1.09134 5.84402.95313 8.82618-.13821 2.98215-.30188 6.05923.72266 8.86328.68596 1.87739 1.88833 3.55018 3.38671 4.87304 1.49839 1.32287 3.28622 2.3013 5.17774 2.94727 1.58254.54045 3.27648.85387 4.93164.61523.82758-.11932 1.63901-.37857 2.36523-.79296.72623-.4144 1.36508-.98609 1.82618-1.6836.70565-1.06745.96689-2.38064.95117-3.66015-.0157-1.27952-.29066-2.54216-.57813-3.78907-.83023-3.60113-1.7856-7.18517-3.16601-10.61328-.86133-2.13901-1.89498-4.22524-3.29102-6.06054-1.39604-1.83531-3.17189-3.41615-5.27344-4.36524-1.47636-.66674-3.09428-1.0076-4.71484-1.02344zm.0605 5.11914c2.67065.32002 5.21581 1.59261 7.07422 3.53711 2.12466 2.22309 3.28288 5.17056 4.46875 8.00782.6255 1.49654 1.28432 3.03242 1.30468 4.65429.009.70763-.10836 1.42079-.38476 2.07227-.2764.65147-.71583 1.24006-1.29102 1.65234-.58471.4191-1.30054.64762-2.01953.67188-.71898.0243-1.44043-.15333-2.07812-.48633-.88237-.46077-1.59398-1.2097-2.10743-2.0625-.51344-.85279-.83651-1.80852-1.05664-2.7793-.67836-2.99154-.40336-6.13978-1.11718-9.12304-.32534-1.35971-.85323-2.66563-1.49024-3.91016-.39307-.76793-.82775-1.51423-1.30273-2.23438z" fill="#fd0" fill-rule="evenodd" stroke-linejoin="round"/><path d="m453.72299 99.235618c-2.36143-.0823-4.59724.975272-6.70312 2.046872-7.78893 3.96346-15.34664 8.45964-23.54297 11.49219-7.7087 2.85213-15.8606 4.36327-23.57813 7.19141-3.05097 1.11805-6.03414 2.44151-9.16406 3.31446-3.12992.87296-6.46713 1.2826-9.62891.5332-1.44884-.3434-2.82821-.92158-4.22851-1.42773-1.40031-.50617-2.84771-.94695-4.33594-.99415-1.55442-.0493-3.1204.34221-4.46875 1.11719 2.10865 1.37457 3.9527 3.15572 5.40039 5.21485 2.10496 2.994 3.35865 6.58468 3.53711 10.24023.1395 2.85738-.37447 5.74469-1.49023 8.37891 3.56483-.45046 7.108-1.07142 10.61328-1.86133 7.07217-1.5937 14.01891-3.87826 21.22656-4.65625 2.3911-.25809 4.92212-.3235 7.07617.74609 1.62622.8075 2.88186 2.18684 4.0957 3.53711 2.61541 2.90938 5.2222 5.82712 7.82032 8.75195 1.11977.0317 2.24218-.032 3.35156-.1875 2.00173-.28061 3.95379-.86252 5.95898-1.11718 1.54339-.19601 3.11091-.19601 4.6543 0-3.67198-.53569-7.21177-1.95122-10.24023-4.09571-2.19718-1.55585-4.18595-3.58712-5.02735-6.14453-.47942-1.45716-.56286-3.03555-.28906-4.54492s.90094-2.94939 1.7793-4.20703c1.34803-1.93012 3.32341-3.4449 5.58593-4.0957 2.16045-.62144 4.45635-.44865 6.70313-.37305 6.96742.23457 14.03401-.51554 20.85351.93164 4.15949.88269 8.1325 2.57573 11.73047 4.8418.8185.51551 1.62051 1.06131 2.47657 1.51172.85605.4504 1.77448.80541 2.73632.9082.60605.0648 1.24304.0228 1.78711-.25195.27203-.13737.51648-.3328.69727-.57813s.29449-.54128.30859-.8457c.0167-.36031-.10693-.71865-.31445-1.01367-.20752-.29503-.49496-.52887-.80859-.70704-.62725-.35634-1.34946-.49389-2.04102-.69921-3.054-.90671-5.5006-3.13942-8.19336-4.8418-4.14181-2.61848-8.94998-4.01187-13.7793-4.8418-3.01522-.51817-6.0653-.82818-9.12304-.92969 3.94932-1.86958 7.75034-4.05152 11.35742-6.51758 2.18873-1.49638 4.31655-3.10688 6.14453-5.02734.43318-.4551.85278-.92949 1.18164-1.46485.32886-.53537.56598-1.13715.61328-1.76367.0442-.58581-.0796-1.17894-.32031-1.71484-.2407-.53591-.59601-1.01658-1.00781-1.43555-.82361-.83795-1.86313-1.42316-2.88672-2-2.03953-1.14937-4.1779-2.338372-6.51758-2.419922zm-2.55664 5.310552c.16261.0137.32154.0608.4707.12695.29832.13244.55363.3445.79297.56641.59208.54897 1.12209 1.18985 1.39649 1.94921.23123.6399.27052 1.3363.23242 2.01563-.0556.99101-.27327 1.97244-.64063 2.89453-.24095-.83175-.45312-1.67175-.63867-2.51758-.12084-.55088-.23937-1.12628-.58203-1.57422-.3137-.41008-.78115-.66622-1.20508-.96093-.21196-.14736-.41739-.30812-.58789-.50196s-.30432-.42356-.35937-.67578c-.0547-.25058-.0276-.52001.0859-.75s.31286-.41899.55274-.50976c.15263-.0577.3198-.0763.48242-.0625zm-6.84375 2.84375c.18575.0148.37022.0642.54101.13867.34159.14892.63446.38991.91016.64062.67564.61438 1.28449 1.33429 1.59961 2.19141.26386.7177.30891 1.49828.26563 2.26172-.0632 1.11443-.3114 2.21818-.73243 3.25195-.27526-.93419-.51921-1.87784-.73242-2.82812-.13905-.61974-.27532-1.2668-.66601-1.76758-.3607-.46233-.89687-.74603-1.38282-1.07422-.24297-.16409-.47872-.34364-.67382-.5625s-.34941-.4788-.41016-.76563c-.0599-.28278-.025-.58778.10547-.8457.1305-.25791.35855-.46608.6289-.56836.17427-.0659.36113-.0871.54688-.0723zm-7.04492 3.60742c.18575.0148.37022.0642.54101.13867.34159.14892.63641.38796.91211.63867.67564.61438 1.28254 1.33429 1.59766 2.19141.26386.7177.31086 1.50023.26758 2.26367-.0632 1.11443-.31139 2.21818-.73243 3.25196-.27526-.9342-.52116-1.87785-.73437-2.82813-.13905-.61974-.27533-1.2668-.66602-1.76758-.3607-.46233-.8949-.74603-1.38085-1.07422-.24298-.16409-.47873-.34364-.67383-.5625s-.34941-.48075-.41016-.76758c-.0599-.28278-.025-.58583.10547-.84375.1305-.25791.3566-.46803.62695-.57031.17427-.0659.36113-.0851.54688-.0703zm-7.36914 2.98242c.22311.0169.44464.0742.65039.16211.41148.17581.76725.46039 1.10156.75781.81079.72132 1.54689 1.56781 1.92773 2.58399.31657.8447.37197 1.76738.32032 2.66797-.0755 1.31563-.37508 2.61793-.88282 3.83398-.33069-1.1013-.62493-2.21339-.88281-3.33398-.16845-.73196-.33443-1.49676-.80273-2.08399-.43652-.54738-1.08386-.87478-1.66992-1.25781-.29304-.19151-.57569-.40251-.81055-.66211-.23485-.25959-.42013-.57109-.49024-.91406-.0685-.33518-.0231-.69455.13477-.99805.15788-.3035.42803-.54896.74805-.66992.20928-.0791.43313-.10284.65625-.0859zm-9.40821 6.0293c.24349.0181.48615.0805.71094.17578.44959.19045.8388.4994 1.20508.82227.88448.77964 1.68878 1.69392 2.10547 2.79687.34529.91395.4058 1.91329.34961 2.88868-.0821 1.42536-.40983 2.83497-.96485 4.15039-.3609-1.19244-.68258-2.39592-.96484-3.60938-.1845-.79316-.36637-1.62147-.87695-2.25586-.47789-.59377-1.1855-.94451-1.82618-1.35742-.32033-.20646-.63017-.43498-.88671-.7168-.25655-.28182-.45802-.62053-.53321-.99414-.0732-.36377-.0224-.75366.15039-1.08203.17281-.32836.46734-.59154.81446-.72266.22838-.0862.4733-.11375.71679-.0957zm-8.90234 2.02539c.30045.0213.59892.0991.87695.21485.55605.23156 1.03862.6059 1.49414 1v.002c1.0905.94347 2.08865 2.05029 2.60547 3.39648.42552 1.10838.5025 2.32452.4336 3.50977-.10075 1.73323-.50622 3.44661-1.19336 5.04102-.44532-1.4482-.84299-2.91071-1.19336-4.38477-.22933-.96482-.4572-1.97334-1.08594-2.74023-.59341-.72384-1.46855-1.13977-2.26172-1.63672-.39658-.24848-.78245-.52502-1.09961-.86914-.31717-.34413-.5648-.76136-.65429-1.22071-.0865-.44391-.0172-.91823.19726-1.3164.21447-.39817.57292-.71738.99609-.87696.2818-.10626.58432-.14044.88477-.11914zm-8.89258 2.78125c.20885.0161.41695.0716.60938.1543.38486.16542.71722.4315 1.02929.71094.75917.6798 1.44689 1.47674 1.80274 2.43164.29645.7955.34727 1.66417.29883 2.51172-.0707 1.23787-.35145 2.46201-.82618 3.60742-.30954-1.03665-.58331-2.082-.82421-3.13672-.15728-.68861-.31331-1.40926-.75196-1.96289-.40772-.51459-1.01258-.82392-1.56054-1.18555-.27398-.18082-.53812-.37916-.75782-.62304-.2197-.2439-.39256-.53595-.45898-.85743-.0651-.31499-.0244-.65362.12305-.93945.14748-.28584.40031-.5171.70117-.63086.19591-.0741.40638-.0962.61523-.0801zm-9.11133 2.01758c.18575.0148.37022.0662.54102.14063.34159.14892.63446.38796.91016.63867.67564.61438 1.28449 1.33428 1.59961 2.1914.26386.7177.31085 1.49828.26757 2.26172-.0632 1.11443-.31334 2.21819-.73437 3.25196-.27526-.93419-.51921-1.87785-.73242-2.82813-.13905-.61974-.27533-1.2668-.66602-1.76758-.3607-.46233-.89686-.74603-1.38281-1.07422-.24297-.16409-.47678-.34364-.67188-.5625s-.3494-.47879-.41015-.76562c-.0599-.28278-.025-.58583.10547-.84375.1305-.25791.3566-.46803.62695-.57031.17426-.0659.36112-.0871.54687-.0723zm-10.11914.10156c.20886.0161.41695.0716.60938.1543.38486.16541.71527.43149 1.02734.71094.75917.6798 1.44689 1.47674 1.80274 2.43164.29645.7955.34922 1.66417.30078 2.51172-.0708 1.23787-.35145 2.46201-.82617 3.60742-.30955-1.03665-.58528-2.082-.82618-3.13672-.15728-.68861-.31135-1.40926-.75-1.96289-.40771-.51459-1.01259-.82392-1.56054-1.18555-.27398-.18081-.54007-.37914-.75977-.62304-.2197-.24391-.39256-.53596-.45898-.85743-.0651-.31499-.0225-.65361.125-.93945.14748-.28583.40031-.5171.70117-.63086.19591-.0741.40638-.0962.61523-.0801z" fill="#fd0" fill-rule="evenodd"/></g></g></svg>