<?xml version="1.0" encoding="UTF-8" standalone="no"?>
<!-- Created with Inkscape (http://www.inkscape.org/) -->
<svg
   xmlns:svg="http://www.w3.org/2000/svg"
   xmlns="http://www.w3.org/2000/svg"
   version="1.0"
   width="758.74243"
   height="915.75122"
   id="svg2">
  <defs
     id="defs4" />
  <g
     transform="translate(-8.4855126,-26.629106)"
     id="layer1">
    <g
       id="g6957">
      <path
         d="M 388.63011,32.21126 C 388.63011,32.21126 389.1084,936.96641 388.63011,936.94708 C 191.77717,928.96773 21.619831,790.0409 14.24222,559.37727 C 14.794094,553.26543 13.603254,54.447153 14.002221,32.21126 C 32.24052,32.458402 388.63011,31.777459 388.63011,32.21126 z"
         id="path4398"
         style="fill:#fcdd09;fill-opacity:1;stroke:#000000;stroke-width:10.86646366;stroke-linecap:round" />
      <path
         d="M 390.06236,32.187688 C 390.06236,32.187688 389.58661,936.30022 390.06236,936.29319 C 589.41735,933.33359 754.25884,789.48931 761.57933,558.98641 C 761.03108,552.87882 761.60963,58.973331 761.81748,32.187688 C 735.05759,32.435109 390.06236,31.754189 390.06236,32.187688 z"
         id="path3648"
         style="fill:#078930;fill-opacity:1;stroke:#000000;stroke-width:10.82094765;stroke-linecap:round" />
      <path
         d="M 564.25546,571.82667 C 552.8275,571.51937 551.31866,573.08155 551.0947,572.75591 C 549.52257,570.47002 549.96825,572.6495 550.67511,564.06424 C 551.68189,564.04186 563.69589,564.75131 563.69244,564.93812 C 563.62082,568.81517 564.22959,572.45797 564.25546,571.82667 z"
         id="path6404"
         style="fill:#fcdd09;fill-opacity:1;fill-rule:nonzero;stroke:#000000;stroke-width:3;marker-mid:none;stroke-miterlimit:4;stroke-dasharray:none;stroke-opacity:1" />
      <g
         id="g5691">
        <path
           d="M 234.35312,559.68887 C 234.21931,559.50127 200.9449,559.06785 200.52658,559.52661 C 200.10205,559.99223 199.57137,475.63545 199.75112,475.65336 C 201.50858,475.82852 233.87976,475.87719 233.93426,475.95704 C 233.75856,476.0842 233.82895,559.20245 234.35312,559.68887 z"
           id="path7213"
           style="opacity:1;fill:#000000;fill-opacity:1;fill-rule:nonzero;stroke:#000000;stroke-width:3.60873795;marker-mid:none;stroke-miterlimit:4;stroke-dasharray:none;stroke-opacity:1" />
        <path
           d="M 314.98545,267.58117 C 315.44802,268.00956 331.49547,295.92713 319.77677,312.10803 C 318.32431,314.11354 283.11395,291.0518 283.19429,290.99806 C 307.00849,293.23922 314.52971,267.15905 314.98545,267.58117 z"
           id="path7221"
           style="opacity:1;fill:#000000;fill-opacity:1;fill-rule:nonzero;stroke:#000000;stroke-width:3.60873795;marker-mid:none;stroke-miterlimit:4;stroke-dasharray:none;stroke-opacity:1" />
        <path
           d="M 212.02742,238.88615 C 212.63317,239.06189 246.00526,259.26069 236.97089,277.85197 C 235.69576,280.47597 198.2864,277.87702 198.33409,277.793 C 222.33116,268.57425 211.43057,238.71296 212.02742,238.88615 z"
           id="path7223"
           style="opacity:1;fill:#000000;fill-opacity:1;fill-rule:nonzero;stroke:#000000;stroke-width:3.60873795;marker-mid:none;stroke-miterlimit:4;stroke-dasharray:none;stroke-opacity:1" />
        <path
           d="M 116.85437,274.20679 C 117.45928,274.02819 150.86471,269.08081 156.45779,287.92423 C 156.81103,289.11433 120.9619,308.50269 120.95665,308.40624 C 134.60468,288.0312 116.25831,274.38274 116.85437,274.20679 z"
           id="path7225"
           style="opacity:1;fill:#000000;fill-opacity:1;fill-rule:nonzero;stroke:#000000;stroke-width:3.60873795;marker-mid:none;stroke-miterlimit:4;stroke-dasharray:none;stroke-opacity:1" />
        <path
           d="M 43.398279,347.82144 C 43.824689,347.35713 79.74209,324.52752 94.066434,341.2238 C 95.684406,343.10969 73.220453,372.91245 73.166225,372.83248 C 71.752644,349.91759 42.978104,348.2789 43.398279,347.82144 z"
           id="path7227"
           style="opacity:1;fill:#000000;fill-opacity:1;fill-rule:nonzero;stroke:#000000;stroke-width:3.60873795;marker-mid:none;stroke-miterlimit:4;stroke-dasharray:none;stroke-opacity:1" />
        <path
           d="M 24.47853,445.36291 C 24.64904,444.75629 38.325085,410.17135 62.806399,416.96454 C 63.48632,417.1532 61.264868,456.61327 61.18033,456.56638 C 48.302221,432.55808 24.310496,445.96062 24.47853,445.36291 z"
           id="path7229"
           style="opacity:1;fill:#000000;fill-opacity:1;fill-rule:nonzero;stroke:#000000;stroke-width:3.60873795;marker-mid:none;stroke-miterlimit:4;stroke-dasharray:none;stroke-opacity:1" />
        <path
           d="M 49.37579,537.0764 C 49.220371,536.46573 50.1393,503.53972 73.407538,491.16713 C 74.966933,490.33794 95.351965,530.61655 95.255284,530.61808 C 74.851569,518.35107 49.52891,537.67808 49.37579,537.0764 z"
           id="path7231"
           style="opacity:1;fill:#000000;fill-opacity:1;fill-rule:nonzero;stroke:#000000;stroke-width:3.60873795;marker-mid:none;stroke-miterlimit:4;stroke-dasharray:none;stroke-opacity:1" />
        <path
           d="M 132.96741,610.76518 C 132.56212,610.28237 108.82003,580.9675 120.27562,558.55104 C 121.07895,556.97908 154.07644,580.96714 153.98999,581.01042 C 133.04738,583.57071 133.36673,611.24092 132.96741,610.76518 z"
           id="path7233"
           style="opacity:1;fill:#000000;fill-opacity:1;fill-rule:nonzero;stroke:#000000;stroke-width:3.60873795;marker-mid:none;stroke-miterlimit:4;stroke-dasharray:none;stroke-opacity:1" />
        <path
           d="M 233.06823,630.27446 C 232.45941,630.10957 198.05692,619.02141 200.66457,593.71076 C 200.84541,591.95544 236.33717,594.29216 236.29099,594.37701 C 217.54441,613.18409 233.66808,630.43695 233.06823,630.27446 z"
           id="path7235"
           style="opacity:1;fill:#000000;fill-opacity:1;fill-rule:nonzero;stroke:#000000;stroke-width:3.60873795;marker-mid:none;stroke-miterlimit:4;stroke-dasharray:none;stroke-opacity:1" />
        <path
           d="M 325.78072,601.90846 C 325.62694,601.60059 293.9037,606.40568 279.98686,586.13302 C 277.73675,582.85528 312.91579,567.29164 312.91537,567.38822 C 307.9121,593.22075 326.38607,601.76775 325.78072,601.90846 z"
           id="path7237"
           style="opacity:1;fill:#000000;fill-opacity:1;fill-rule:nonzero;stroke:#000000;stroke-width:3.60873795;marker-mid:none;stroke-miterlimit:4;stroke-dasharray:none;stroke-opacity:1" />
        <path
           d="M 346.79105,337.55982 C 347.0012,337.41999 342.13402,335.06533 342.4306,339.56199 C 342.57976,341.82349 351.55293,349.29904 350.47848,350.35825 C 349.24394,351.5753 337.74645,342.60926 335.99491,343.68749 C 334.32387,344.71617 343.20157,352.53146 341.80345,354.00327 C 340.35805,355.52485 334.75493,352.16138 332.58487,353.14536 C 331.02004,353.8549 344.52114,367.18621 343.27751,368.10611 C 341.77873,369.21474 333.80273,361.31569 329.683,360.26378 C 323.82259,358.76741 322.5775,361.35809 322.57469,361.36365 C 322.50672,361.49788 274.65062,312.28155 213.48282,311.92433 C 144.5657,311.52645 94.790276,376.62269 93.415521,436.38482 C 92.11397,492.48426 150.6566,561.2101 212.20221,559.5307 C 212.49544,559.52271 269.20085,566.76139 320.54915,506.91377 C 320.60168,506.85254 321.90406,507.66723 325.51913,505.47884 C 328.91712,503.42188 334.57464,498.34253 336.57845,498.62106 C 338.0533,498.82606 330.10419,509.27315 332.09501,509.08359 C 334.77791,508.82813 343.17434,502.17864 344.75912,502.96682 C 346.10181,503.6346 334.1856,514.61226 335.63509,515.17481 C 337.66284,515.96176 343.2189,512.37327 344.70434,513.45897 C 346.32306,514.64209 336.59812,521.10014 338.40983,522.04389 C 340.74713,523.26142 350.70891,518.60562 352.46316,519.67126 C 354.40795,520.85266 345.5343,526.25286 344.41718,528.64194 C 342.62667,532.47115 345.99884,535.04344 345.94962,534.82331 C 345.68938,533.65937 303.55029,597.98931 211.14872,595.92554 C 135.8323,594.24888 57.92801,516.83512 59.49854,436.03734 C 62.161013,354.06538 118.08693,275.03511 214.00456,275.09354 C 291.7399,275.14091 346.67843,335.6889 346.79105,337.55982 z"
           id="path6116"
           style="opacity:1;fill:#000000;fill-opacity:1;fill-rule:nonzero;stroke:#000000;stroke-width:4.00132513;marker-mid:none;stroke-miterlimit:4;stroke-dasharray:none;stroke-opacity:1" />
        <path
           d="M 303.07021,370.87092 C 303.04667,370.91881 308.08717,370.77655 309.35244,373.23398 C 310.02836,374.54675 303.89851,379.81633 304.59316,381.57487 C 305.07303,382.78967 313.27143,378.89516 313.95039,380.10952 C 315.37196,382.65203 307.01621,390.104 308.82621,392.50671 C 310.18637,394.31227 319.37887,390.79542 320.85901,392.11692 C 322.36526,393.46172 314.04372,396.3794 313.07205,398.32779 C 312.29644,399.88306 318.93716,400.66414 319.00218,400.68029 C 319.61405,400.83223 245.56098,441.37567 245.49133,441.20917 C 244.81044,439.58121 229.47004,411.10502 229.51447,411.01918 C 229.70998,411.1132 302.89084,371.56275 303.07021,370.87092 z"
           id="path7211"
           style="opacity:1;fill:#000000;fill-opacity:1;fill-rule:nonzero;stroke:#000000;stroke-width:3.60873795;marker-mid:none;stroke-miterlimit:4;stroke-dasharray:none;stroke-opacity:1" />
        <path
           d="M 215.08609,478.8968 C 191.26534,478.65276 172.15286,459.16614 172.39717,435.37222 C 172.64149,411.5783 192.15009,392.48736 215.97085,392.7314 C 239.79159,392.97545 258.90408,412.46206 258.65977,436.25598 C 258.41545,460.0499 238.90684,479.14085 215.08609,478.8968 L 215.08609,478.8968 z"
           id="path6157"
           style="opacity:1;fill:#000000;fill-opacity:1;fill-rule:nonzero;stroke:#000000;stroke-width:3.60873795;stroke-linecap:round;stroke-linejoin:miter;stroke-miterlimit:4;stroke-dasharray:none;stroke-opacity:1" />
        <path
           d="M 215.34916,453.277 C 206.19736,453.18324 198.85864,445.28883 198.95767,435.64433 C 199.05671,425.99984 206.55598,418.25744 215.70778,418.3512 C 224.85957,418.44496 232.19829,426.33937 232.09926,435.98387 C 232.00022,445.62837 224.50095,453.37076 215.34916,453.277 L 215.34916,453.277 z"
           id="path6159"
           style="opacity:1;fill:#fcdd09;fill-opacity:1;fill-rule:nonzero;stroke:#000000;stroke-width:3.60873795;stroke-linecap:round;stroke-linejoin:miter;stroke-miterlimit:4;stroke-dasharray:none;stroke-opacity:1" />
        <path
           d="M 326.05901,475.79724 C 326.00571,475.79981 328.56934,480.14201 327.03106,482.43844 C 326.20931,483.66521 318.63153,480.85084 317.42874,482.30971 C 316.59785,483.3175 323.97327,488.60751 323.23911,489.78931 C 321.70202,492.26369 311.13725,488.55746 309.91046,491.30411 C 308.98857,493.36814 316.51454,499.71085 316.07431,501.64564 C 315.62634,503.61454 309.04617,497.74408 306.8709,497.83659 C 305.13453,497.91044 307.66448,504.09984 307.68181,504.16455 C 307.84493,504.77354 236.52984,459.58741 236.64185,459.44588 C 237.73702,458.06224 255.2338,430.85776 255.33042,430.8551 C 255.34275,431.07169 325.36678,475.97505 326.05901,475.79724 z"
           id="path5683"
           style="opacity:1;fill:#000000;fill-opacity:1;fill-rule:nonzero;stroke:#000000;stroke-width:3.60873795;marker-mid:none;stroke-miterlimit:4;stroke-dasharray:none;stroke-opacity:1" />
        <path
           d="M 237.02717,396.86961 C 236.89336,396.68201 203.61895,396.24859 203.20063,396.70735 C 202.7761,397.17297 202.24542,312.81619 202.42517,312.8341 C 204.18263,313.00926 236.55381,313.05793 236.60831,313.13778 C 236.43261,313.26494 236.503,396.38319 237.02717,396.86961 z"
           id="path5685"
           style="opacity:1;fill:#000000;fill-opacity:1;fill-rule:nonzero;stroke:#000000;stroke-width:3.60873795;marker-mid:none;stroke-miterlimit:4;stroke-dasharray:none;stroke-opacity:1" />
        <path
           d="M 195.23019,397.69585 C 195.00171,397.7258 178.98203,426.89332 179.19039,427.47815 C 179.40188,428.07171 104.69109,388.89716 104.79137,388.74691 C 105.77189,387.27793 121.02749,358.72689 121.12359,358.7163 C 121.15326,358.93114 194.5545,397.92995 195.23019,397.69585 z"
           id="path5687"
           style="opacity:1;fill:#000000;fill-opacity:1;fill-rule:nonzero;stroke:#000000;stroke-width:3.60873795;marker-mid:none;stroke-miterlimit:4;stroke-dasharray:none;stroke-opacity:1" />
        <path
           d="M 173.41651,437.70541 C 173.32028,437.91479 189.48976,466.99953 190.09578,467.13435 C 190.71086,467.27116 117.7859,509.6775 117.71206,509.51264 C 116.99015,507.90076 100.93599,479.79098 100.97817,479.70398 C 101.17585,479.79319 173.25513,438.40206 173.41651,437.70541 z"
           id="path5689"
           style="opacity:1;fill:#000000;fill-opacity:1;fill-rule:nonzero;stroke:#000000;stroke-width:3.60873795;marker-mid:none;stroke-miterlimit:4;stroke-dasharray:none;stroke-opacity:1" />
      </g>
      <path
         d="M 588.06148,574.45775 C 579.13352,575.93617 575.48182,574.28406 575.25786,573.95842 C 573.68573,571.67253 573.77427,575.28058 574.48113,566.69532 C 575.48791,566.67294 587.50191,567.38239 587.49846,567.5692 C 587.42684,571.44625 588.03561,575.08905 588.06148,574.45775 z"
         id="path6402"
         style="fill:#fcdd09;fill-opacity:1;fill-rule:nonzero;stroke:#000000;stroke-width:3;marker-mid:none;stroke-miterlimit:4;stroke-dasharray:none;stroke-opacity:1" />
      <path
         d="M 641.21265,600.47651 C 634.78468,601.24064 627.02165,583.21106 621.62331,581.40575 C 614.92953,579.16723 613.32583,577.83077 595.32857,576.6997 C 595.00425,576.67931 594.78258,577.72791 595.48944,569.14265 C 596.49622,569.12027 620.13915,569.90976 627.0782,573.9451 C 648.07056,586.15303 650.47249,600.03638 641.21265,600.47651 z"
         id="path6069"
         style="fill:#fcdd09;fill-opacity:1;fill-rule:nonzero;stroke:#000000;stroke-width:3;marker-mid:none;stroke-miterlimit:4;stroke-dasharray:none;stroke-opacity:1" />
      <path
         d="M 575.13156,243.38135 C 573.59833,244.74154 584.57337,244.93381 584.68192,260.55424 C 584.68294,260.70075 597.78732,250.14666 602.94812,242.22375 C 606.62857,236.57349 609.31314,230.86381 609.32731,227.84453 C 609.35345,221.69144 607.80547,207.80629 602.7918,208.66257 C 597.88769,209.50013 593.04465,223.45248 582.1424,220.93121 C 581.59571,220.80478 586.83067,233.00261 575.13156,243.38135 z"
         id="path5556"
         style="opacity:0.9702;fill:#fcdd09;fill-opacity:1;fill-rule:nonzero;stroke:#000000;stroke-width:3.17767024;marker-mid:none;stroke-miterlimit:4;stroke-dasharray:none;stroke-opacity:1" />
      <path
         d="M 575.56807,280.45128 C 574.27919,281.974 581.93495,281.37009 583.1966,291.28757 C 583.21514,291.43329 596.68637,285.94928 601.84717,278.02636 C 605.52762,272.37611 609.74965,267.93375 609.76382,264.91447 C 609.78996,258.76138 609.43967,235.7158 607.45634,237.49492 C 607.19754,237.72706 595.21544,252.1455 583.73201,260.85262 C 583.31412,261.16947 586.49845,267.5379 575.56807,280.45128 z"
         id="path5560"
         style="opacity:0.98000004;fill:#fcdd09;fill-opacity:1;fill-rule:nonzero;stroke:#000000;stroke-width:3.17767024;marker-mid:none;stroke-miterlimit:4;stroke-dasharray:none;stroke-opacity:1" />
      <path
         d="M 575.56697,318.50012 C 574.27809,320.02283 578.85892,319.41892 580.12057,329.3364 C 580.13911,329.48212 593.22597,323.68128 598.38677,315.75836 C 602.06722,310.10811 607.44235,302.18062 608.60962,297.57719 C 610.13684,291.55421 606.36364,272.81414 604.38031,274.59326 C 604.12151,274.8254 597.13617,286.07553 584.11527,291.29752 C 583.6047,291.50229 586.49735,305.58674 575.56697,318.50012 z"
         id="path5564"
         style="opacity:0.98000004;fill:#fcdd09;fill-opacity:1;fill-rule:nonzero;stroke:#000000;stroke-width:3.17767024;marker-mid:none;stroke-miterlimit:4;stroke-dasharray:none;stroke-opacity:1" />
      <path
         d="M 573.25428,679.22018 C 565.84588,678.04671 571.85246,678.65658 564.19631,678.83883 C 563.86915,678.84662 560.70382,362.64888 561.09764,362.82247 C 567.4164,365.60765 568.87626,364.94368 575.23149,362.64752 C 575.27273,362.63262 574.46602,679.41211 573.25428,679.22018 z"
         id="path4930"
         style="opacity:0.98000004;fill:#fcdd09;fill-opacity:1;fill-rule:nonzero;stroke:#000000;stroke-width:3.17767024;marker-mid:none;stroke-miterlimit:4;stroke-dasharray:none;stroke-opacity:1" />
      <path
         d="M 575.73614,317.76494 C 569.09647,314.69049 566.15463,314.47845 558.49848,320.9973 C 558.37486,321.10257 552.86714,310.68946 552.14761,301.71631 C 551.54209,294.16507 555.65179,286.52823 555.76194,286.38661 C 558.31837,283.09983 563.3295,278.73842 568.4473,278.61054 C 572.96705,278.49761 578.7958,281.4318 581.57924,285.9545 C 582.31781,287.15457 584.73748,295.01915 583.33121,302.28506 C 581.74132,310.49968 576.307,318.02927 575.73614,317.76494 z"
         id="path4932"
         style="opacity:0.98000004;fill:#fcdd09;fill-opacity:1;fill-rule:nonzero;stroke:#000000;stroke-width:3.17767024;marker-mid:none;stroke-miterlimit:4;stroke-dasharray:none;stroke-opacity:1" />
      <path
         d="M 575.42041,280.75111 C 568.78074,277.67666 565.8389,277.46462 558.18275,283.98347 C 558.05913,284.08873 552.55141,273.67563 551.83188,264.70248 C 551.22636,257.15124 555.33606,249.51439 555.44621,249.37278 C 558.00264,246.08599 563.01377,241.72459 568.13157,241.59671 C 572.65132,241.48378 578.48007,244.41796 581.26351,248.94066 C 582.00208,250.14073 584.42175,258.00531 583.01548,265.27122 C 581.42559,273.48585 575.99127,281.01544 575.42041,280.75111 z"
         id="path4934"
         style="opacity:0.98000004;fill:#fcdd09;fill-opacity:1;fill-rule:nonzero;stroke:#000000;stroke-width:3.17767024;marker-mid:none;stroke-miterlimit:4;stroke-dasharray:none;stroke-opacity:1" />
      <path
         d="M 575.42041,354.88935 C 569.16511,361.63663 565.45453,363.64241 557.41402,358.75538 C 557.27097,358.66843 557.54817,348.13071 556.82864,339.15756 C 556.22312,331.60632 557.25789,322.70215 557.36804,322.56054 C 559.92447,319.27375 563.01377,315.86283 568.13157,315.73495 C 572.65132,315.62202 575.40514,318.55621 578.18858,323.07891 C 578.92715,324.27898 581.73119,332.14356 580.32492,339.40947 C 578.73503,347.62409 575.81798,354.46051 575.42041,354.88935 z"
         id="path4936"
         style="opacity:0.98000004;fill:#fcdd09;fill-opacity:1;fill-rule:nonzero;stroke:#000000;stroke-width:3.17767024;marker-mid:none;stroke-miterlimit:4;stroke-dasharray:none;stroke-opacity:1" />
      <path
         d="M 570.50937,292.95664 C 568.99729,299.90465 573.43774,309.71933 570.08955,315.28899"
         id="path3740"
         style="opacity:0.98000004;fill:#fcdd09;fill-opacity:1;fill-rule:evenodd;stroke:#000000;stroke-width:1.81581151;stroke-linecap:round;stroke-linejoin:miter;stroke-miterlimit:4;stroke-dasharray:none;stroke-opacity:1" />
      <path
         d="M 568.5403,255.4247 C 567.02822,262.3727 571.85304,272.82104 568.50485,278.3907"
         id="path5532"
         style="opacity:0.98000004;fill:#fcdd09;fill-opacity:1;fill-rule:evenodd;stroke:#000000;stroke-width:1.81581151;stroke-linecap:round;stroke-linejoin:miter;stroke-miterlimit:4;stroke-dasharray:none;stroke-opacity:1" />
      <path
         d="M 572.16946,329.56295 C 574.11667,339.67926 570.48544,352.34541 560.60303,358.86555"
         id="path5534"
         style="opacity:0.98000004;fill:#fcdd09;fill-opacity:1;fill-rule:evenodd;stroke:#000000;stroke-width:1.81581151;stroke-linecap:round;stroke-linejoin:miter;stroke-miterlimit:4;stroke-dasharray:none;stroke-opacity:1" />
      <path
         d="M 574.65169,243.68199 C 568.01202,240.60754 566.22327,239.76184 558.56712,246.28069 C 558.4435,246.38595 552.55142,237.24018 551.83189,228.26702 C 551.22637,220.71578 555.72043,214.97992 555.83058,214.8383 C 558.38701,211.55152 559.93885,203.38815 565.05665,203.26027 C 569.5764,203.14734 573.09895,209.24983 575.88239,213.77252 C 576.62096,214.97259 584.42176,221.25303 583.01549,228.51894 C 581.4256,236.73356 575.22255,243.94632 574.65169,243.68199 z"
         id="path5536"
         style="opacity:0.98000004;fill:#fcdd09;fill-opacity:1;fill-rule:nonzero;stroke:#000000;stroke-width:3.17767024;marker-mid:none;stroke-miterlimit:4;stroke-dasharray:none;stroke-opacity:1" />
      <path
         d="M 564.8665,217.40509 C 566.42935,224.35309 568.94797,234.48461 566.75288,240.68792"
         id="path5538"
         style="opacity:0.98000004;fill:#fcdd09;fill-opacity:1;fill-rule:evenodd;stroke:#000000;stroke-width:1.81581151;stroke-linecap:round;stroke-linejoin:miter;stroke-miterlimit:4;stroke-dasharray:none;stroke-opacity:1" />
      <path
         d="M 557.48388,245.89894 C 557.7628,245.99279 556.74278,247.99857 552.16155,255.78474 C 552.08399,255.91656 539.05615,250.44644 533.89535,242.52352 C 530.2149,236.87327 526.37723,231.48042 526.36306,228.46115 C 526.33692,222.30805 529.038,208.10608 534.05167,208.96236 C 538.95578,209.79991 541.87699,219.63346 552.39487,220.2805 C 552.9611,220.31533 556.87768,245.69496 557.48388,245.89894 z"
         id="path5540"
         style="opacity:0.98000004;fill:#fcdd09;fill-opacity:1;fill-rule:nonzero;stroke:#000000;stroke-width:3.17767024;marker-mid:none;stroke-miterlimit:4;stroke-dasharray:none;stroke-opacity:1" />
      <path
         d="M 538.17716,230.55354 C 542.81494,236.55105 551.09905,240.34597 558.12874,244.6483"
         id="path5542"
         style="opacity:0.98000004;fill:#fcdd09;fill-opacity:1;fill-rule:evenodd;stroke:#000000;stroke-width:1.81581151;stroke-linecap:round;stroke-linejoin:miter;stroke-miterlimit:4;stroke-dasharray:none;stroke-opacity:1" />
      <path
         d="M 555.47383,279.18314 C 555.75275,279.277 558.19202,284.13424 553.61079,291.92041 C 553.53323,292.05223 538.58356,282.78015 533.42276,274.85724 C 529.74231,269.20698 528.59521,264.76463 528.58104,261.74535 C 528.5549,255.59226 522.41556,240.75663 532.04162,242.24655 C 536.96386,243.00842 539.86694,252.91767 550.38482,253.56471 C 550.95105,253.59954 554.86763,278.97916 555.47383,279.18314 z"
         id="path5544"
         style="opacity:0.98000004;fill:#fcdd09;fill-opacity:1;fill-rule:nonzero;stroke:#000000;stroke-width:3.17767024;marker-mid:none;stroke-miterlimit:4;stroke-dasharray:none;stroke-opacity:1" />
      <path
         d="M 534.18678,255.10787 C 536.47937,264.32726 545.87592,269.33974 553.36963,273.0046"
         id="path5546"
         style="opacity:0.98000004;fill:#fcdd09;fill-opacity:1;fill-rule:evenodd;stroke:#000000;stroke-width:1.81581151;stroke-linecap:round;stroke-linejoin:miter;stroke-miterlimit:4;stroke-dasharray:none;stroke-opacity:1" />
      <path
         d="M 556.59939,320.88049 C 556.87831,320.97434 543.93715,318.14089 538.77635,310.21798 C 535.0959,304.56772 534.33317,302.97684 533.55027,298.05658 C 532.57951,291.95571 530.45971,273.89956 532.39845,274.75582 C 536.81297,276.70554 543.68307,287.01109 552.66348,290.5096 C 552.94724,290.62014 550.56073,298.22379 551.90976,305.60439 C 553.00131,311.57629 556.32827,320.78925 556.59939,320.88049 z"
         id="path5548"
         style="opacity:0.98000004;fill:#fcdd09;fill-opacity:1;fill-rule:nonzero;stroke:#000000;stroke-width:3.17767024;marker-mid:none;stroke-miterlimit:4;stroke-dasharray:none;stroke-opacity:1" />
      <path
         d="M 539.95227,295.34529 C 546.08852,301.39638 544.72282,300.07226 552.21653,303.73711"
         id="path5550"
         style="opacity:0.98000004;fill:#fcdd09;fill-opacity:1;fill-rule:evenodd;stroke:#000000;stroke-width:1.81581151;stroke-linecap:round;stroke-linejoin:miter;stroke-miterlimit:4;stroke-dasharray:none;stroke-opacity:1" />
      <path
         d="M 556.46377,360.00308 C 556.74269,360.09694 547.26082,352.82787 542.10002,344.90496 C 538.41957,339.2547 534.19755,333.2282 533.41465,328.30794 C 532.44389,322.20707 536.6424,308.98545 538.02832,310.3933 C 542.44284,314.87766 546.62237,317.57928 555.60278,321.07778 C 555.88654,321.18833 555.42186,332.91077 556.77089,340.29137 C 557.86244,346.26327 556.19265,359.91185 556.46377,360.00308 z"
         id="path5552"
         style="opacity:0.98000004;fill:#fcdd09;fill-opacity:1;fill-rule:nonzero;stroke:#000000;stroke-width:3.17767024;marker-mid:none;stroke-miterlimit:4;stroke-dasharray:none;stroke-opacity:1" />
      <path
         d="M 542.64283,336.21638 C 548.77908,342.26747 548.95085,341.577 556.44456,345.24185"
         id="path5554"
         style="opacity:0.98000004;fill:#fcdd09;fill-opacity:1;fill-rule:evenodd;stroke:#000000;stroke-width:1.81581151;stroke-linecap:round;stroke-linejoin:miter;stroke-miterlimit:4;stroke-dasharray:none;stroke-opacity:1" />
      <path
         d="M 598.37589,232.61293 C 597.63255,238.61044 584.0078,244.94 582.58144,249.55916"
         id="path5558"
         style="opacity:0.98000004;fill:#fcdd09;fill-opacity:1;fill-rule:evenodd;stroke:#000000;stroke-width:1.81581151;stroke-linecap:round;stroke-linejoin:miter;stroke-miterlimit:4;stroke-dasharray:none;stroke-opacity:1" />
      <path
         d="M 598.18371,264.77119 C 597.44037,270.7687 584.19999,278.68241 580.8518,282.98474"
         id="path5562"
         style="opacity:0.98000004;fill:#fcdd09;fill-opacity:1;fill-rule:evenodd;stroke:#000000;stroke-width:1.81581151;stroke-linecap:round;stroke-linejoin:miter;stroke-miterlimit:4;stroke-dasharray:none;stroke-opacity:1" />
      <path
         d="M 600.4899,292.01858 C 599.74656,298.01609 583.04689,316.70202 577.77687,320.37069"
         id="path5566"
         style="opacity:0.98000004;fill:#fcdd09;fill-opacity:1;fill-rule:evenodd;stroke:#000000;stroke-width:1.81581151;stroke-linecap:round;stroke-linejoin:miter;stroke-miterlimit:4;stroke-dasharray:none;stroke-opacity:1" />
      <path
         d="M 574.85388,355.42137 C 573.98189,357.13331 573.14908,356.97383 567.10777,363.72301 C 567.04483,363.79333 575.22268,364.11979 582.30792,361.15641 C 587.10177,359.1514 590.97863,354.60961 593.06129,351.41229 C 596.74174,345.76203 601.73251,340.68602 602.89978,336.08259 C 604.427,330.05961 604.11309,309.41855 602.12976,311.19767 C 601.87096,311.42982 594.00713,325.33472 580.32726,327.90194 C 579.70396,328.0189 582.26942,340.86277 574.85388,355.42137 z"
         id="path5568"
         style="opacity:0.98000004;fill:#fcdd09;fill-opacity:1;fill-rule:nonzero;stroke:#000000;stroke-width:3.17767024;marker-mid:none;stroke-miterlimit:4;stroke-dasharray:none;stroke-opacity:1" />
      <path
         d="M 592.41821,336.05796 C 590.90614,342.37231 578.81886,354.72163 573.54884,358.39031"
         id="path5570"
         style="opacity:0.98000004;fill:#fcdd09;fill-opacity:1;fill-rule:evenodd;stroke:#000000;stroke-width:1.81581151;stroke-linecap:round;stroke-linejoin:miter;stroke-miterlimit:4;stroke-dasharray:none;stroke-opacity:1" />
      <path
         d="M 530.79012,209.89495 L 523.21398,131.60813"
         id="path6084"
         style="opacity:0.98000004;fill:#da121a;fill-opacity:1;fill-rule:evenodd;stroke:#000000;stroke-width:3;stroke-linecap:butt;stroke-linejoin:miter;stroke-miterlimit:4;stroke-dasharray:none;stroke-opacity:1" />
      <path
         d="M 603.46576,209.15592 L 610.14245,130.83194"
         id="path6088"
         style="opacity:0.98000004;fill:#da121a;fill-opacity:1;fill-rule:evenodd;stroke:#000000;stroke-width:3;stroke-linecap:butt;stroke-linejoin:miter;stroke-miterlimit:4;stroke-dasharray:none;stroke-opacity:1" />
      <path
         d="M 590.08124,219.25744 L 595.74777,133.35732"
         id="path6090"
         style="opacity:0.98000004;fill:#da121a;fill-opacity:1;fill-rule:evenodd;stroke:#000000;stroke-width:3;stroke-linecap:butt;stroke-linejoin:miter;stroke-miterlimit:4;stroke-dasharray:none;stroke-opacity:1" />
      <path
         d="M 577.95941,214.9643 L 580.0904,126.03372"
         id="path6092"
         style="opacity:0.98000004;fill:#da121a;fill-opacity:1;fill-rule:evenodd;stroke:#000000;stroke-width:3;stroke-linecap:butt;stroke-linejoin:miter;stroke-miterlimit:4;stroke-dasharray:none;stroke-opacity:1" />
      <path
         d="M 565.58504,203.85262 L 565.69573,126.5388"
         id="path6094"
         style="opacity:0.98000004;fill:#da121a;fill-opacity:1;fill-rule:evenodd;stroke:#000000;stroke-width:3;stroke-linecap:butt;stroke-linejoin:miter;stroke-miterlimit:4;stroke-dasharray:none;stroke-opacity:1" />
      <path
         d="M 555.98859,213.19652 C 556.02549,185.08387 554.04208,150.04017 554.07897,127.29641"
         id="path6096"
         style="opacity:0.98000004;fill:#da121a;fill-opacity:1;fill-rule:evenodd;stroke:#000000;stroke-width:3;stroke-linecap:butt;stroke-linejoin:miter;stroke-miterlimit:4;stroke-dasharray:none;stroke-opacity:1" />
      <path
         d="M 541.34138,213.95413 C 541.37828,185.84148 539.89995,152.81809 539.93684,130.07433"
         id="path6098"
         style="opacity:0.98000004;fill:#da121a;fill-opacity:1;fill-rule:evenodd;stroke:#000000;stroke-width:3;stroke-linecap:butt;stroke-linejoin:miter;stroke-miterlimit:4;stroke-dasharray:none;stroke-opacity:1" />
      <path
         d="M 646.42857,285.21932 L 668.57143,205.21932"
         id="path5988"
         style="opacity:0.98000004;fill:#da121a;fill-opacity:1;fill-rule:evenodd;stroke:#000000;stroke-width:3;stroke-linecap:butt;stroke-linejoin:miter;stroke-miterlimit:4;stroke-dasharray:none;stroke-opacity:1" />
      <path
         d="M 595.73093,677.29337 C 588.73053,676.23887 592.74462,680.10353 586.19828,678.48309 C 586.04692,678.44562 582.13337,610.89485 590.3845,547.22056 C 598.09661,487.70587 617.97065,431.75829 618.89554,432.48065 C 625.78991,437.86531 625.06814,438.62789 633.44822,437.11067 C 633.46759,437.10716 603.91008,490.19807 598.05498,546.52919 C 591.47563,609.82816 596.3325,677.38398 595.73093,677.29337 z"
         id="path4928"
         style="opacity:0.98000004;fill:#fcdd09;fill-opacity:1;fill-rule:nonzero;stroke:#000000;stroke-width:3.05100012;marker-mid:none;stroke-miterlimit:4;stroke-dasharray:none;stroke-opacity:1" />
      <path
         d="M 650.88425,396.26198 C 645.98876,391.8373 643.43411,390.96667 634.41507,395.40059 C 634.26944,395.47219 632.84468,384.35155 635.21085,375.68534 C 637.20207,368.39241 643.43056,362.09179 643.57635,361.98269 C 646.96004,359.4503 652.89495,356.4585 657.50573,357.5024 C 661.5777,358.42432 665.79642,362.5315 666.76447,367.45058 C 667.02134,368.75583 666.5443,376.75865 662.85311,383.32324 C 658.67997,390.74496 651.30515,396.64241 650.88425,396.26198 z"
         id="path5650"
         style="opacity:0.98000004;fill:#fcdd09;fill-opacity:1;fill-rule:nonzero;stroke:#000000;stroke-width:3.05130672;marker-mid:none;stroke-miterlimit:4;stroke-dasharray:none;stroke-opacity:1" />
      <path
         d="M 663.01193,361.1181 C 658.11644,356.69342 655.56179,355.82279 646.54274,360.25672 C 646.39711,360.32831 644.97235,349.20767 647.33852,340.54147 C 649.32974,333.24853 655.55823,326.94792 655.70402,326.83881 C 659.08771,324.30643 665.02263,321.31462 669.6334,322.35852 C 673.70537,323.28045 677.92409,327.38762 678.89214,332.3067 C 679.14901,333.61195 678.67197,341.61478 674.98078,348.17936 C 670.80765,355.60108 663.43282,361.49853 663.01193,361.1181 z"
         id="path5652"
         style="opacity:0.98000004;fill:#fcdd09;fill-opacity:1;fill-rule:nonzero;stroke:#000000;stroke-width:3.05130672;marker-mid:none;stroke-miterlimit:4;stroke-dasharray:none;stroke-opacity:1" />
      <path
         d="M 638.1559,431.36689 C 630.31059,436.33616 626.32625,437.392 620.78813,430.93091 C 620.68961,430.81596 624.46996,420.89418 626.83614,412.22798 C 628.82735,404.93504 632.7362,396.73357 632.88199,396.62447 C 636.26568,394.09209 640.1666,391.5634 644.77737,392.6073 C 648.84934,393.52922 650.32354,396.93639 651.29159,401.85547 C 651.54846,403.16072 651.41448,411.25104 647.7233,417.81563 C 643.55016,425.23735 638.65453,431.05106 638.1559,431.36689 z"
         id="path5654"
         style="opacity:0.98000004;fill:#fcdd09;fill-opacity:1;fill-rule:nonzero;stroke:#000000;stroke-width:3.05130672;marker-mid:none;stroke-miterlimit:4;stroke-dasharray:none;stroke-opacity:1" />
      <path
         d="M 654.53647,371.5653 C 650.85744,377.80458 651.53023,388.11523 646.67449,392.63047"
         id="path5656"
         style="opacity:0.98000004;fill:#fcdd09;fill-opacity:1;fill-rule:evenodd;stroke:#000000;stroke-width:1.74360383;stroke-linecap:round;stroke-linejoin:miter;stroke-miterlimit:4;stroke-dasharray:none;stroke-opacity:1" />
      <path
         d="M 665.36216,335.55411 C 661.68312,341.79338 662.48654,352.79196 657.6308,357.3072"
         id="path5658"
         style="opacity:0.98000004;fill:#fcdd09;fill-opacity:1;fill-rule:evenodd;stroke:#000000;stroke-width:1.74360383;stroke-linecap:round;stroke-linejoin:miter;stroke-miterlimit:4;stroke-dasharray:none;stroke-opacity:1" />
      <path
         d="M 643.74534,406.62908 C 642.09167,416.65795 634.60409,427.83295 623.59755,431.76129"
         id="path5660"
         style="opacity:0.98000004;fill:#fcdd09;fill-opacity:1;fill-rule:evenodd;stroke:#000000;stroke-width:1.74360383;stroke-linecap:round;stroke-linejoin:miter;stroke-miterlimit:4;stroke-dasharray:none;stroke-opacity:1" />
      <path
         d="M 674.75382,325.81872 C 669.85833,321.39404 668.54531,320.18549 659.52627,324.61942 C 659.38063,324.69102 657.18792,314.68371 659.55409,306.0175 C 661.54531,298.72457 667.47953,294.3127 667.62532,294.20359 C 671.00902,291.67121 675.131,284.28939 679.74178,285.33329 C 683.81375,286.25521 684.91184,292.83946 685.8799,297.75854 C 686.13677,299.06379 690.99376,306.7906 687.30259,313.35519 C 683.12944,320.77691 675.17471,326.19914 674.75382,325.81872 z"
         id="path5662"
         style="opacity:0.98000004;fill:#fcdd09;fill-opacity:1;fill-rule:nonzero;stroke:#000000;stroke-width:3.05130672;marker-mid:none;stroke-miterlimit:4;stroke-dasharray:none;stroke-opacity:1" />
      <path
         d="M 656.78571,294.50504 L 683.21428,207.36218"
         id="path5990"
         style="opacity:0.98000004;fill:#da121a;fill-opacity:1;fill-rule:evenodd;stroke:#000000;stroke-width:3;stroke-linecap:butt;stroke-linejoin:miter;stroke-miterlimit:4;stroke-dasharray:none;stroke-opacity:1" />
      <path
         d="M 674.82978,298.69275 C 673.89528,305.63204 672.74652,315.8054 668.70754,321.18355"
         id="path5664"
         style="opacity:0.98000004;fill:#fcdd09;fill-opacity:1;fill-rule:evenodd;stroke:#000000;stroke-width:1.74360383;stroke-linecap:round;stroke-linejoin:miter;stroke-miterlimit:4;stroke-dasharray:none;stroke-opacity:1" />
      <path
         d="M 670.35715,290.93361 L 697.5,210.9336"
         id="path5992"
         style="opacity:0.98000004;fill:#da121a;fill-opacity:1;fill-rule:evenodd;stroke:#000000;stroke-width:3;stroke-linecap:butt;stroke-linejoin:miter;stroke-miterlimit:4;stroke-dasharray:none;stroke-opacity:1" />
      <path
         d="M 658.6874,324.01109 C 658.90489,324.16352 657.322,325.83186 650.62258,332.16662 C 650.50917,332.27387 640.7151,324.12492 638.7651,315.4428 C 637.37445,309.25111 635.75718,303.26754 636.75679,300.40343 C 638.79638,294.56719 645.96867,281.72519 650.15654,283.67791 C 654.25291,285.58796 653.56338,295.57063 662.7342,298.57814 C 663.22791,298.74005 658.21473,323.67981 658.6874,324.01109 z"
         id="path5666"
         style="opacity:0.98000004;fill:#fcdd09;fill-opacity:1;fill-rule:nonzero;stroke:#000000;stroke-width:3.05130672;marker-mid:none;stroke-miterlimit:4;stroke-dasharray:none;stroke-opacity:1" />
      <path
         d="M 683.15301,285.72441 L 708.86729,213.58154"
         id="path5994"
         style="opacity:0.98000004;fill:#da121a;fill-opacity:1;fill-rule:evenodd;stroke:#000000;stroke-width:3;stroke-linecap:butt;stroke-linejoin:miter;stroke-miterlimit:4;stroke-dasharray:none;stroke-opacity:1" />
      <path
         d="M 646.59996,305.07554 C 648.72866,311.81422 654.85035,317.29593 659.68227,322.97287"
         id="path5668"
         style="opacity:0.98000004;fill:#fcdd09;fill-opacity:1;fill-rule:evenodd;stroke:#000000;stroke-width:1.74360383;stroke-linecap:round;stroke-linejoin:miter;stroke-miterlimit:4;stroke-dasharray:none;stroke-opacity:1" />
      <path
         d="M 688.18873,304.55524 L 722.4893,219.28039"
         id="path5996"
         style="opacity:0.98000004;fill:#da121a;fill-opacity:1;fill-rule:evenodd;stroke:#000000;stroke-width:3;stroke-linecap:butt;stroke-linejoin:miter;stroke-miterlimit:4;stroke-dasharray:none;stroke-opacity:1" />
      <path
         d="M 645.73428,355.09154 C 645.95176,355.24396 646.50046,360.40169 639.80105,366.73646 C 639.68763,366.84371 629.4529,354.65474 627.5029,345.97262 C 626.11226,339.78093 626.57777,335.3105 627.5774,332.4464 C 629.61698,326.61016 629.11119,311.15521 637.20342,314.75836 C 641.34134,316.60081 640.61025,326.65108 649.78106,329.65859 C 650.27477,329.82049 645.2616,354.76025 645.73428,355.09154 z"
         id="path5670"
         style="opacity:0.98000004;fill:#fcdd09;fill-opacity:1;fill-rule:nonzero;stroke:#000000;stroke-width:3.05130672;marker-mid:none;stroke-miterlimit:4;stroke-dasharray:none;stroke-opacity:1" />
      <path
         d="M 634.80611,327.43329 C 633.76143,336.69091 640.46781,343.57957 645.92763,348.75811"
         id="path5672"
         style="opacity:0.98000004;fill:#fcdd09;fill-opacity:1;fill-rule:evenodd;stroke:#000000;stroke-width:1.74360383;stroke-linecap:round;stroke-linejoin:miter;stroke-miterlimit:4;stroke-dasharray:none;stroke-opacity:1" />
      <path
         d="M 632.75919,394.85758 C 632.97668,395.01 622.376,389.37913 620.426,380.69701 C 619.03535,374.50532 618.88795,372.82426 619.83876,367.9839 C 621.01772,361.98211 625.17931,344.39064 626.62265,345.64335 C 629.90916,348.49575 632.58598,359.82463 639.42852,365.184 C 639.64473,365.35335 634.9654,372.0148 633.69502,379.3153 C 632.66711,385.22239 632.5478,394.70941 632.75919,394.85758 z"
         id="path5674"
         style="opacity:0.98000004;fill:#fcdd09;fill-opacity:1;fill-rule:nonzero;stroke:#000000;stroke-width:3.05130672;marker-mid:none;stroke-miterlimit:4;stroke-dasharray:none;stroke-opacity:1" />
      <path
         d="M 626.46187,366.87228 C 629.91007,374.00284 629.13504,372.43728 634.59486,377.61582"
         id="path5676"
         style="opacity:0.98000004;fill:#fcdd09;fill-opacity:1;fill-rule:evenodd;stroke:#000000;stroke-width:1.74360383;stroke-linecap:round;stroke-linejoin:miter;stroke-miterlimit:4;stroke-dasharray:none;stroke-opacity:1" />
      <path
         d="M 619.52168,431.89684 C 619.73916,432.04926 613.71318,423.00299 611.76319,414.32087 C 610.37254,408.12917 608.62465,401.4577 609.57547,396.61733 C 610.75443,390.61554 618.93457,379.04335 619.69957,380.69284 C 622.1363,385.94691 624.96099,389.45827 631.80353,394.81764 C 632.01973,394.98699 627.67485,405.98866 626.40446,413.28916 C 625.37655,419.19625 619.31028,431.74867 619.52168,431.89684 z"
         id="path5678"
         style="opacity:0.98000004;fill:#fcdd09;fill-opacity:1;fill-rule:nonzero;stroke:#000000;stroke-width:3.05130672;marker-mid:none;stroke-miterlimit:4;stroke-dasharray:none;stroke-opacity:1" />
      <path
         d="M 615.16066,406.21168 C 618.60884,413.34224 618.99365,412.7271 624.45347,417.90564"
         id="path5680"
         style="opacity:0.98000004;fill:#fcdd09;fill-opacity:1;fill-rule:evenodd;stroke:#000000;stroke-width:1.74360383;stroke-linecap:round;stroke-linejoin:miter;stroke-miterlimit:4;stroke-dasharray:none;stroke-opacity:1" />
      <path
         d="M 675.28292,325.6431 C 673.45841,326.58289 683.18973,329.26356 678.04961,344.08921 C 678.0014,344.22827 693.23616,337.2111 700.49872,330.8787 C 705.67804,326.36272 709.98841,321.56373 711.01333,318.70608 C 713.09958,312.88175 716.37315,299.37265 711.61111,299.04263 C 706.95314,298.71983 697.95273,310.83768 689.06722,305.96677 C 688.62166,305.72252 689.2046,318.47217 675.28292,325.6431 z"
         id="path5682"
         style="opacity:0.9702;fill:#fcdd09;fill-opacity:1;fill-rule:nonzero;stroke:#000000;stroke-width:3.05130672;marker-mid:none;stroke-miterlimit:4;stroke-dasharray:none;stroke-opacity:1" />
      <path
         d="M 700.05802,304.80778 L 734.86367,230.64461"
         id="path5998"
         style="opacity:0.98000004;fill:#da121a;fill-opacity:1;fill-rule:evenodd;stroke:#000000;stroke-width:3;stroke-linecap:butt;stroke-linejoin:miter;stroke-miterlimit:4;stroke-dasharray:none;stroke-opacity:1" />
      <path
         d="M 714.20016,304.05016 L 751.02611,232.91745"
         id="path6000"
         style="opacity:0.98000004;fill:#da121a;fill-opacity:1;fill-rule:evenodd;stroke:#000000;stroke-width:3;stroke-linecap:butt;stroke-linejoin:miter;stroke-miterlimit:4;stroke-dasharray:none;stroke-opacity:1" />
      <path
         d="M 699.63994,320.73121 C 696.96572,326.24486 682.68285,329.14066 679.8611,333.19278"
         id="path5684"
         style="opacity:0.98000004;fill:#fcdd09;fill-opacity:1;fill-rule:evenodd;stroke:#000000;stroke-width:1.74360383;stroke-linecap:round;stroke-linejoin:miter;stroke-miterlimit:4;stroke-dasharray:none;stroke-opacity:1" />
      <path
         d="M 663.24424,360.86763 C 661.58334,362.01704 668.61896,363.18766 666.42005,372.87207 C 666.38775,373.01436 680.25011,370.88479 687.51266,364.5524 C 692.69199,360.03642 697.94974,356.78827 698.97464,353.93062 C 701.0609,348.10628 708.47465,326.18998 706.10795,327.42426 C 705.79912,327.58531 690.27048,338.51958 677.10173,344.15568 C 676.62252,344.36078 677.32957,351.12003 663.24424,360.86763 z"
         id="path5686"
         style="opacity:0.98000004;fill:#fcdd09;fill-opacity:1;fill-rule:nonzero;stroke:#000000;stroke-width:3.05130672;marker-mid:none;stroke-miterlimit:4;stroke-dasharray:none;stroke-opacity:1" />
      <path
         d="M 688.68685,351.15863 C 686.01262,356.67228 671.54171,361.15662 667.11086,364.47102"
         id="path5688"
         style="opacity:0.98000004;fill:#fcdd09;fill-opacity:1;fill-rule:evenodd;stroke:#000000;stroke-width:1.74360383;stroke-linecap:round;stroke-linejoin:miter;stroke-miterlimit:4;stroke-dasharray:none;stroke-opacity:1" />
      <path
         d="M 650.48678,396.92008 C 648.82587,398.0695 653.11697,398.5401 650.91807,408.2245 C 650.88576,408.3668 664.51127,405.84951 671.77383,399.51712 C 676.95315,395.00115 684.40855,388.71321 686.99377,384.61702 C 690.37619,379.2577 693.29132,360.64179 690.92462,361.87607 C 690.6158,362.03712 680.60925,371.10682 667.23668,373.09062 C 666.71231,373.16842 664.57212,387.17248 650.48678,396.92008 z"
         id="path5690"
         style="opacity:0.98000004;fill:#fcdd09;fill-opacity:1;fill-rule:nonzero;stroke:#000000;stroke-width:3.05130672;marker-mid:none;stroke-miterlimit:4;stroke-dasharray:none;stroke-opacity:1" />
      <path
         d="M 681.61012,377.50156 C 678.93589,383.01521 657.76583,396.91913 651.83209,399.1956"
         id="path5692"
         style="opacity:0.98000004;fill:#fcdd09;fill-opacity:1;fill-rule:evenodd;stroke:#000000;stroke-width:1.74360383;stroke-linecap:round;stroke-linejoin:miter;stroke-miterlimit:4;stroke-dasharray:none;stroke-opacity:1" />
      <path
         d="M 637.47187,431.74202 C 636.11963,433.16563 635.42977,432.82494 627.77482,437.84472 C 627.69507,437.89703 634.88476,440.06806 642.20223,438.87311 C 647.15318,438.06462 652.13618,434.64367 655.06702,432.08821 C 660.24635,427.57223 666.40268,423.89868 668.9879,419.80248 C 672.37032,414.44316 679.01038,394.81352 676.64368,396.04779 C 676.33485,396.20884 664.65415,407.59404 651.58347,406.91234 C 650.98793,406.88128 648.97162,419.63536 637.47187,431.74202 z"
         id="path5694"
         style="opacity:0.98000004;fill:#fcdd09;fill-opacity:1;fill-rule:nonzero;stroke:#000000;stroke-width:3.05130672;marker-mid:none;stroke-miterlimit:4;stroke-dasharray:none;stroke-opacity:1" />
      <path
         d="M 659.64083,417.393 C 656.17424,423.03186 641.24542,431.98163 635.31167,434.2581"
         id="path5696"
         style="opacity:0.98000004;fill:#fcdd09;fill-opacity:1;fill-rule:evenodd;stroke:#000000;stroke-width:1.74360383;stroke-linecap:round;stroke-linejoin:miter;stroke-miterlimit:4;stroke-dasharray:none;stroke-opacity:1" />
      <path
         d="M 551.58992,675.7075 C 544.2616,678.41509 545.47553,674.60759 539.26368,678.21241 C 539.13386,678.28774 547.71347,610.76319 539.69797,549.424 C 532.64443,495.44628 508.86549,446.71419 508.86704,446.71418 C 516.29539,446.64918 516.34989,450.18504 521.12212,446.01027 C 521.1359,445.99821 543.00952,492.37984 550.13493,545.97916 C 558.21585,606.76614 551.6642,675.68005 551.58992,675.7075 z"
         id="path4926"
         style="opacity:0.96040009;fill:#fcdd09;fill-opacity:1;fill-rule:nonzero;stroke:#000000;stroke-width:3.04637194;marker-mid:none;stroke-miterlimit:4;stroke-dasharray:none;stroke-opacity:1" />
      <path
         d="M 507.97004,398.83724 C 501.52391,397.92666 499.10614,398.67393 495.50857,407.69293 C 495.45049,407.83856 487.10678,399.21651 483.1155,390.47354 C 479.75669,383.11602 480.11095,374.13507 480.14449,373.95746 C 480.92267,369.83531 483.24129,363.83745 487.25805,362.04043 C 490.80544,360.45342 496.55392,361.48814 500.48866,365.10533 C 501.53271,366.06513 506.45208,373.1445 508.10402,380.87266 C 509.97165,389.60989 508.52425,398.91553 507.97004,398.83724 z"
         id="path5600"
         style="opacity:0.98000004;fill:#fcdd09;fill-opacity:1;fill-rule:nonzero;stroke:#000000;stroke-width:3.04637194;marker-mid:none;stroke-miterlimit:4;stroke-dasharray:none;stroke-opacity:1" />
      <path
         d="M 493.61316,361.90792 C 487.16703,360.99734 484.74927,361.74462 481.15169,370.76362 C 481.0936,370.90926 472.7499,362.28719 468.75862,353.54423 C 465.39981,346.1867 465.75407,337.20576 465.7876,337.02815 C 466.56579,332.90599 468.88441,326.90813 472.90117,325.11112 C 476.44856,323.52411 482.19705,324.55882 486.13178,328.17602 C 487.17584,329.13581 492.0952,336.21518 493.74714,343.94334 C 495.61477,352.68057 494.16738,361.98621 493.61316,361.90792 z"
         id="path5602"
         style="opacity:0.98000004;fill:#fcdd09;fill-opacity:1;fill-rule:nonzero;stroke:#000000;stroke-width:3.04637194;marker-mid:none;stroke-miterlimit:4;stroke-dasharray:none;stroke-opacity:1" />
      <path
         d="M 521.86744,436.08312 C 519.46973,444.87381 517.28651,448.09072 509.03679,445.8235 C 508.89002,445.78317 505.09427,435.14979 501.103,426.40683 C 497.74418,419.0493 495.17278,409.80322 495.20632,409.62561 C 495.9845,405.50346 497.13869,401.08334 501.15546,399.28632 C 504.70283,397.69931 508.00865,399.73685 511.94339,403.35405 C 512.98744,404.31384 518.21214,411.26786 519.86408,418.99602 C 521.73171,427.73325 522.01983,435.52441 521.86744,436.08312 z"
         id="path5604"
         style="opacity:0.98000004;fill:#fcdd09;fill-opacity:1;fill-rule:nonzero;stroke:#000000;stroke-width:3.04637194;marker-mid:none;stroke-miterlimit:4;stroke-dasharray:none;stroke-opacity:1" />
      <path
         d="M 494.36347,375.72118 C 495.8102,383.16579 503.07802,391.53719 502.54088,398.20157"
         id="path5606"
         style="opacity:0.98000004;fill:#fcdd09;fill-opacity:1;fill-rule:evenodd;stroke:#000000;stroke-width:1.74078393;stroke-linecap:round;stroke-linejoin:miter;stroke-miterlimit:4;stroke-dasharray:none;stroke-opacity:1" />
      <path
         d="M 478.49574,338.8127 C 479.94248,346.25731 487.75712,355.13733 487.21999,361.80171"
         id="path5608"
         style="opacity:0.98000004;fill:#fcdd09;fill-opacity:1;fill-rule:evenodd;stroke:#000000;stroke-width:1.74078393;stroke-linecap:round;stroke-linejoin:miter;stroke-miterlimit:4;stroke-dasharray:none;stroke-opacity:1" />
      <path
         d="M 509.63298,411.80434 C 515.03516,421.29064 516.97767,435.14736 511.61209,444.8937"
         id="path5610"
         style="opacity:0.98000004;fill:#fcdd09;fill-opacity:1;fill-rule:evenodd;stroke:#000000;stroke-width:1.74078393;stroke-linecap:round;stroke-linejoin:miter;stroke-miterlimit:4;stroke-dasharray:none;stroke-opacity:1" />
      <path
         d="M 478.87536,325.07103 C 472.42923,324.16044 470.68597,323.89769 467.08841,332.9167 C 467.03032,333.06233 458.86426,325.83358 454.87299,317.09061 C 451.51417,309.73308 452.89823,302.52871 452.93176,302.3511 C 453.70994,298.22895 451.83162,289.55541 455.84839,287.75839 C 459.39576,286.17138 464.5197,291.1281 468.45443,294.74529 C 469.49849,295.70509 478.08881,299.44458 479.74075,307.17274 C 481.60838,315.90997 479.42958,325.14932 478.87536,325.07103 z"
         id="path5612"
         style="opacity:0.98000004;fill:#fcdd09;fill-opacity:1;fill-rule:nonzero;stroke:#000000;stroke-width:3.04637194;marker-mid:none;stroke-miterlimit:4;stroke-dasharray:none;stroke-opacity:1" />
      <path
         d="M 461.08796,301.97228 C 464.97737,308.41406 470.83927,317.72923 471.45963,324.65152"
         id="path5614"
         style="opacity:0.98000004;fill:#fcdd09;fill-opacity:1;fill-rule:evenodd;stroke:#000000;stroke-width:1.74078393;stroke-linecap:round;stroke-linejoin:miter;stroke-miterlimit:4;stroke-dasharray:none;stroke-opacity:1" />
      <path
         d="M 466.08241,332.88803 C 466.33974,332.89096 466.29386,335.2304 465.62194,344.51453 C 465.61056,344.67171 453.17677,343.44763 446.05767,337.20386 C 440.98065,332.7511 435.87683,328.60714 434.71493,325.59098 C 432.34921,319.44335 429.08249,304.35339 433.3916,303.57498 C 437.60654,302.81358 443.67469,311.69933 452.27652,308.9165 C 452.7396,308.76669 465.52311,332.88165 466.08241,332.88803 z"
         id="path5616"
         style="opacity:0.98000004;fill:#fcdd09;fill-opacity:1;fill-rule:nonzero;stroke:#000000;stroke-width:3.04637194;marker-mid:none;stroke-miterlimit:4;stroke-dasharray:none;stroke-opacity:1" />
      <path
         d="M 444.89728,323.83149 C 450.86713,328.31946 458.89414,329.41458 466.11806,331.42646"
         id="path5618"
         style="opacity:0.98000004;fill:#fcdd09;fill-opacity:1;fill-rule:evenodd;stroke:#000000;stroke-width:1.74078393;stroke-linecap:round;stroke-linejoin:miter;stroke-miterlimit:4;stroke-dasharray:none;stroke-opacity:1" />
      <path
         d="M 477.17035,366.84436 C 477.42769,366.84729 481.21652,370.91145 480.54459,380.19558 C 480.53321,380.35275 465.12382,375.95159 458.00472,369.70782 C 452.9277,365.25505 450.32347,361.18458 449.16155,358.16843 C 446.79583,352.0208 436.26493,339.17999 444.47954,337.53131 C 448.68004,336.68827 454.76264,345.65567 463.36446,342.87283 C 463.82755,342.72302 476.61106,366.83798 477.17035,366.84436 z"
         id="path5620"
         style="opacity:0.98000004;fill:#fcdd09;fill-opacity:1;fill-rule:nonzero;stroke:#000000;stroke-width:3.04637194;marker-mid:none;stroke-miterlimit:4;stroke-dasharray:none;stroke-opacity:1" />
      <path
         d="M 451.0851,349.69944 C 456.41983,358.17573 465.79458,360.12622 473.14415,361.34898"
         id="path5622"
         style="opacity:0.98000004;fill:#fcdd09;fill-opacity:1;fill-rule:evenodd;stroke:#000000;stroke-width:1.74078393;stroke-linecap:round;stroke-linejoin:miter;stroke-miterlimit:4;stroke-dasharray:none;stroke-opacity:1" />
      <path
         d="M 493.95545,408.19541 C 494.21279,408.19835 482.85269,409.58398 475.73359,403.34021 C 470.65658,398.88745 469.44438,397.54453 466.94734,392.87714 C 463.85113,387.08982 455.28594,369.716 457.15237,369.94041 C 461.40224,370.45139 470.78721,378.52153 479.25439,379.093 C 479.52194,379.11105 480.5239,387.49681 484.40832,394.44113 C 487.55134,400.06001 493.70531,408.19255 493.95545,408.19541 z"
         id="path5624"
         style="opacity:0.98000004;fill:#fcdd09;fill-opacity:1;fill-rule:nonzero;stroke:#000000;stroke-width:3.04637194;marker-mid:none;stroke-miterlimit:4;stroke-dasharray:none;stroke-opacity:1" />
      <path
         d="M 470.99971,388.07661 C 478.18033,392.1295 476.59081,391.25011 483.94038,392.47287"
         id="path5626"
         style="opacity:0.98000004;fill:#fcdd09;fill-opacity:1;fill-rule:evenodd;stroke:#000000;stroke-width:1.74078393;stroke-linecap:round;stroke-linejoin:miter;stroke-miterlimit:4;stroke-dasharray:none;stroke-opacity:1" />
      <path
         d="M 508.75744,447.38174 C 509.01478,447.38467 498.71226,443.20431 491.59317,436.96053 C 486.51615,432.50776 480.86553,427.8552 478.36848,423.1878 C 475.27226,417.40049 473.5687,402.80302 475.20619,403.75957 C 480.42201,406.80646 484.77176,408.14636 493.23894,408.71783 C 493.50649,408.73588 497.6048,420.61572 501.48923,427.56004 C 504.63224,433.17892 508.5073,447.37888 508.75744,447.38174 z"
         id="path5628"
         style="opacity:0.98000004;fill:#fcdd09;fill-opacity:1;fill-rule:nonzero;stroke:#000000;stroke-width:3.04637194;marker-mid:none;stroke-miterlimit:4;stroke-dasharray:none;stroke-opacity:1" />
      <path
         d="M 488.71312,428.0906 C 495.89375,432.14348 495.76706,431.39665 503.11663,432.61941"
         id="path5630"
         style="opacity:0.98000004;fill:#fcdd09;fill-opacity:1;fill-rule:evenodd;stroke:#000000;stroke-width:1.74078393;stroke-linecap:round;stroke-linejoin:miter;stroke-miterlimit:4;stroke-dasharray:none;stroke-opacity:1" />
      <path
         d="M 479.14198,324.61375 C 478.44238,326.47464 487.23406,323.08772 493.27327,338.68054 C 493.32992,338.82679 499.71765,323.9937 500.79786,314.38375 C 501.56823,307.53037 501.52483,300.94233 500.38543,297.91692 C 498.06124,291.75224 491.53988,278.36501 487.88342,280.85682 C 484.30687,283.29418 485.77692,298.83294 476.15548,299.86597 C 475.67302,299.91777 484.48021,310.4144 479.14198,324.61375 z"
         id="path5632"
         style="opacity:0.98000004;fill:#fcdd09;fill-opacity:1;fill-rule:nonzero;stroke:#000000;stroke-width:3.04637194;marker-mid:none;stroke-miterlimit:4;stroke-dasharray:none;stroke-opacity:1" />
      <path
         d="M 493.50304,306.25928 C 495.19822,312.50221 486.78714,323.27836 487.41443,328.36501"
         id="path5634"
         style="opacity:0.98000004;fill:#fcdd09;fill-opacity:1;fill-rule:evenodd;stroke:#000000;stroke-width:1.74078393;stroke-linecap:round;stroke-linejoin:miter;stroke-miterlimit:4;stroke-dasharray:none;stroke-opacity:1" />
      <path
         d="M 493.61619,361.5598 C 493.17264,363.50362 499.0241,360.40263 503.80591,369.91359 C 503.87618,370.05334 512.48754,360.17322 513.56775,350.56326 C 514.33812,343.70989 515.99903,337.88838 514.85963,334.86297 C 512.53544,328.6983 503.47444,305.75547 502.57695,308.1823 C 502.45983,308.49896 498.43634,326.8323 492.6324,339.28885 C 492.42118,339.74215 497.37779,345.07526 493.61619,361.5598 z"
         id="path5636"
         style="opacity:0.98000004;fill:#fcdd09;fill-opacity:1;fill-rule:nonzero;stroke:#000000;stroke-width:3.04637194;marker-mid:none;stroke-miterlimit:4;stroke-dasharray:none;stroke-opacity:1" />
      <path
         d="M 505.60597,338.49625 C 507.30115,344.73918 499.79913,356.97492 498.77901,362.37133"
         id="path5638"
         style="opacity:0.98000004;fill:#fcdd09;fill-opacity:1;fill-rule:evenodd;stroke:#000000;stroke-width:1.74078393;stroke-linecap:round;stroke-linejoin:miter;stroke-miterlimit:4;stroke-dasharray:none;stroke-opacity:1" />
      <path
         d="M 508.11583,399.62796 C 507.67228,401.57178 511.08106,399.47361 515.86287,408.98457 C 515.93313,409.12432 524.11841,399.05256 525.19863,389.44261 C 525.96899,382.58923 527.21772,372.9048 526.39061,367.9184 C 525.30844,361.39435 515.16917,343.87548 514.27168,346.30231 C 514.15456,346.61898 512.89297,360.15284 504.53949,369.62394 C 504.21194,369.99532 511.87743,383.14341 508.11583,399.62796 z"
         id="path5640"
         style="opacity:0.98000004;fill:#fcdd09;fill-opacity:1;fill-rule:nonzero;stroke:#000000;stroke-width:3.04637194;marker-mid:none;stroke-miterlimit:4;stroke-dasharray:none;stroke-opacity:1" />
      <path
         d="M 517.82203,365.0051 C 519.51719,371.24803 513.3725,395.38953 510.58422,400.77875"
         id="path5642"
         style="opacity:0.98000004;fill:#fcdd09;fill-opacity:1;fill-rule:evenodd;stroke:#000000;stroke-width:1.74078393;stroke-linecap:round;stroke-linejoin:miter;stroke-miterlimit:4;stroke-dasharray:none;stroke-opacity:1" />
      <path
         d="M 521.62014,436.80017 C 521.57987,438.79734 520.85753,438.9094 518.63053,447.63219 C 518.60734,447.72307 525.22811,445.38265 529.72716,440.10708 C 532.7712,436.53766 534.12004,430.72924 534.55596,426.8511 C 535.32632,419.99773 537.35643,413.29154 536.52931,408.30514 C 535.44714,401.78109 527.33141,381.23212 526.43391,383.65895 C 526.3168,383.97561 525.36909,400.45207 515.48039,407.48199 C 515.02982,407.80229 521.96262,419.81589 521.62014,436.80017 z"
         id="path5644"
         style="opacity:0.98000004;fill:#fcdd09;fill-opacity:1;fill-rule:nonzero;stroke:#000000;stroke-width:3.04637194;marker-mid:none;stroke-miterlimit:4;stroke-dasharray:none;stroke-opacity:1" />
      <path
         d="M 528.19353,411.69886 C 529.39878,418.50948 524.5032,434.80699 521.71491,440.1962"
         id="path5646"
         style="opacity:0.98000004;fill:#fcdd09;fill-opacity:1;fill-rule:evenodd;stroke:#000000;stroke-width:1.74078393;stroke-linecap:round;stroke-linejoin:miter;stroke-miterlimit:4;stroke-dasharray:none;stroke-opacity:1" />
      <path
         d="M 435.9303,327.8513 L 391.2113,243.85019"
         id="path6214"
         style="opacity:0.98000004;fill:#da121a;fill-opacity:1;fill-rule:evenodd;stroke:#000000;stroke-width:3;stroke-linecap:butt;stroke-linejoin:miter;stroke-miterlimit:4;stroke-dasharray:none;stroke-opacity:1" />
      <path
         d="M 437.00235,304.71987 L 399.78335,229.64734"
         id="path6250"
         style="opacity:0.98000004;fill:#da121a;fill-opacity:1;fill-rule:evenodd;stroke:#000000;stroke-width:3;stroke-linecap:butt;stroke-linejoin:miter;stroke-miterlimit:4;stroke-dasharray:none;stroke-opacity:1" />
      <path
         d="M 450.75236,308.11273 L 411.74764,218.75449"
         id="path6252"
         style="opacity:0.98000004;fill:#da121a;fill-opacity:1;fill-rule:evenodd;stroke:#000000;stroke-width:3;stroke-linecap:butt;stroke-linejoin:miter;stroke-miterlimit:4;stroke-dasharray:none;stroke-opacity:1" />
      <path
         d="M 455.21665,288.46987 L 422.99764,213.0402"
         id="path6254"
         style="opacity:0.98000004;fill:#da121a;fill-opacity:1;fill-rule:evenodd;stroke:#000000;stroke-width:3;stroke-linecap:butt;stroke-linejoin:miter;stroke-miterlimit:4;stroke-dasharray:none;stroke-opacity:1" />
      <path
         d="M 469.32379,294.00559 L 436.74763,210.71878"
         id="path6256"
         style="opacity:0.98000004;fill:#da121a;fill-opacity:1;fill-rule:evenodd;stroke:#000000;stroke-width:3;stroke-linecap:butt;stroke-linejoin:miter;stroke-miterlimit:4;stroke-dasharray:none;stroke-opacity:1" />
      <path
         d="M 483.07379,292.93416 L 448.71192,205.71878"
         id="path6258"
         style="opacity:0.98000004;fill:#da121a;fill-opacity:1;fill-rule:evenodd;stroke:#000000;stroke-width:3;stroke-linecap:butt;stroke-linejoin:miter;stroke-miterlimit:4;stroke-dasharray:none;stroke-opacity:1" />
      <path
         d="M 489.3238,280.96987 L 467.46193,205.89735"
         id="path6260"
         style="opacity:0.98000004;fill:#da121a;fill-opacity:1;fill-rule:evenodd;stroke:#000000;stroke-width:3;stroke-linecap:butt;stroke-linejoin:miter;stroke-miterlimit:4;stroke-dasharray:none;stroke-opacity:1" />
      <path
         d="M 608.38081,537.66039 C 614.61761,532.3685 607.99982,525.71137 610.63549,522.97296 C 612.10565,521.4455 614.67764,520.10314 617.94963,520.49307 C 620.34773,520.77886 620.6544,526.64905 620.72699,530.27503 C 620.84891,536.36472 614.59326,547.41311 611.7755,548.76933 C 595.65072,556.53034 580.37014,553.72501 570.55964,553.49162 C 554.5093,553.1098 530.35136,550.73354 530.22004,554.30392 C 530.04284,559.12216 536.68612,558.42796 540.65672,561.97848 C 540.92841,562.22143 541.82764,569.73874 541.4253,569.95501 C 541.13907,570.10887 521.5936,571.34036 520.87189,553.11225 C 521.87867,548.80415 518.38848,540.4789 537.81779,541.12898 C 560.65767,541.90749 601.21208,544.36312 608.38081,537.66039 z"
         id="path6406"
         style="fill:#fcdd09;fill-opacity:1;fill-rule:nonzero;stroke:#000000;stroke-width:3;marker-mid:none;stroke-miterlimit:4;stroke-dasharray:none;stroke-opacity:1" />
      <path
         d="M 595.96186,511.65511 C 587.0339,513.13353 576.23934,510.76713 576.01538,510.44149 C 574.44325,508.1556 575.60322,511.76365 576.31008,503.17839 C 577.31686,503.15601 597.54514,503.50832 597.54169,503.69513 C 597.47007,507.57218 595.93599,512.28641 595.96186,511.65511 z"
         id="path6408"
         style="fill:#fcdd09;fill-opacity:1;fill-rule:nonzero;stroke:#000000;stroke-width:3;marker-mid:none;stroke-miterlimit:4;stroke-dasharray:none;stroke-opacity:1" />
      <path
         d="M 561.00411,509.93164 C 551.78019,508.90394 552.89875,509.87526 542.4862,508.71802 C 541.89305,508.6521 542.78833,508.25447 540.63804,501.45492 C 543.78768,501.0754 561.15882,501.78485 561.15537,501.97166 C 561.08375,505.84871 560.97824,510.56294 561.00411,509.93164 z"
         id="path6410"
         style="fill:#fcdd09;fill-opacity:1;fill-rule:nonzero;stroke:#000000;stroke-width:3;marker-mid:none;stroke-miterlimit:4;stroke-dasharray:none;stroke-opacity:1" />
      <path
         d="M 535.15222,530.70999 C 525.25401,528.7511 524.27696,525.16144 522.64557,522.49937 C 519.84799,517.93432 518.72809,506.79185 528.14705,504.49611 C 535.53529,502.69533 528.76272,520.43743 529.46672,513.23931 C 530.05959,507.17733 527.46666,521.37026 538.73459,522.40151 C 555.31241,523.91873 575.7031,526.07405 585.38262,524.45936 C 600.70975,521.90255 619.46616,511.83631 619.6588,508.26871 C 619.91874,503.45423 611.83594,503.31992 607.92692,499.70171 C 607.65944,499.45413 609.74662,492.27963 610.15262,492.07031 C 610.44145,491.92139 626.43376,497.81154 626.84224,508.9065 C 625.7616,516.41096 599.46541,533.00923 580.05014,532.02548 C 557.227,530.85474 542.79218,533.4171 535.15222,530.70999 z"
         id="path6412"
         style="fill:#fcdd09;fill-opacity:1;fill-rule:nonzero;stroke:#000000;stroke-width:3;marker-mid:none;stroke-miterlimit:4;stroke-dasharray:none;stroke-opacity:1" />
      <path
         d="M 598.819,495.94082 C 589.89104,497.41924 576.23934,494.33856 576.01538,494.01292 C 574.44325,491.72703 574.88893,494.26365 575.59579,485.67839 C 576.60257,485.65601 600.40228,488.15117 600.39883,488.33798 C 600.32721,492.21503 598.79313,496.57212 598.819,495.94082 z"
         id="path6414"
         style="fill:#fcdd09;fill-opacity:1;fill-rule:nonzero;stroke:#000000;stroke-width:3;marker-mid:none;stroke-miterlimit:4;stroke-dasharray:none;stroke-opacity:1" />
      <path
         d="M 561.8584,492.65104 C 552.5733,492.34375 538.00024,492.18943 537.98335,491.79457 C 537.83979,488.43725 537.21404,488.83101 535.06376,483.46004 C 536.07054,483.43766 560.94168,484.86139 560.93823,485.0482 C 560.86661,488.92525 561.83253,493.28234 561.8584,492.65104 z"
         id="path6416"
         style="fill:#fcdd09;fill-opacity:1;fill-rule:nonzero;stroke:#000000;stroke-width:3;marker-mid:none;stroke-miterlimit:4;stroke-dasharray:none;stroke-opacity:1" />
      <path
         d="M 526.61161,492.99855 C 517.32651,492.69126 503.08808,485.53699 502.73656,485.35636 C 497.593,482.71333 498.39582,479.17852 503.3884,476.30755 C 504.39518,476.28517 523.55203,484.13747 523.54858,484.32428 C 523.47696,488.20133 526.58574,493.62985 526.61161,492.99855 z"
         id="path6418"
         style="fill:#fcdd09;fill-opacity:1;fill-rule:nonzero;stroke:#000000;stroke-width:3;marker-mid:none;stroke-miterlimit:4;stroke-dasharray:none;stroke-opacity:1" />
    </g>
  </g>
</svg>
