<?xml version="1.0" encoding="UTF-8" standalone="no"?>
<!-- Created with Inkscape (http://www.inkscape.org/) -->

<svg
   width="106.65225mm"
   height="126.30325mm"
   viewBox="0 0 106.65225 126.30325"
   version="1.1"
   id="svg5"
   inkscape:version="1.2.2 (732a01da63, 2022-12-09)"
   sodipodi:docname="DEU Warberg COA.svg"
   xmlns:inkscape="http://www.inkscape.org/namespaces/inkscape"
   xmlns:sodipodi="http://sodipodi.sourceforge.net/DTD/sodipodi-0.dtd"
   xmlns="http://www.w3.org/2000/svg"
   xmlns:svg="http://www.w3.org/2000/svg">
  <sodipodi:namedview
     id="namedview7"
     pagecolor="#9e9e9e"
     bordercolor="#666666"
     borderopacity="1.0"
     inkscape:showpageshadow="2"
     inkscape:pageopacity="0"
     inkscape:pagecheckerboard="0"
     inkscape:deskcolor="#8c8c8c"
     inkscape:document-units="mm"
     showgrid="false"
     inkscape:zoom="1.1213181"
     inkscape:cx="201.54852"
     inkscape:cy="239.45034"
     inkscape:current-layer="layer1" />
  <defs
     id="defs2" />
  <g
     inkscape:label="Ebene 1"
     inkscape:groupmode="layer"
     id="layer1"
     transform="translate(-171.94082,-56.40346)">
    <g
       id="g3123"
       transform="translate(123.553,-25.80607)">
      <path
         id="path2906"
         style="fill:#f00000;fill-opacity:1;stroke:none;stroke-width:1.7;stroke-dasharray:none"
         d="m 49.237821,83.05953 v 71.90465 a 52.476154,52.698624 0 0 0 52.476379,52.6986 52.476154,52.698624 0 0 0 52.47587,-52.69808 52.476154,52.698624 0 0 0 0,-5.2e-4 V 83.05953 Z" />
      <g
         id="g2850"
         transform="translate(-173.67727,-5.7414354)">
        <rect
           style="fill:#ffffff;stroke:#000000;stroke-width:1.3;stroke-dasharray:none"
           id="rect2811"
           width="33.349575"
           height="31.147245"
           x="258.68616"
           y="133.25972" />
        <rect
           style="fill:#ffffff;stroke:#000000;stroke-width:1.3;stroke-dasharray:none"
           id="rect2809"
           width="25.305889"
           height="26.585041"
           x="262.70801"
           y="104.94974" />
        <path
           id="rect2637"
           style="fill:#ffffff;stroke:#000000;stroke-width:1.3;stroke-dasharray:none"
           d="m 258.06383,94.048523 v 13.348537 h 34.59428 V 94.048523 h -6.91896 v 6.117977 h -6.91896 v -6.117977 h -6.91844 v 6.117977 h -6.91896 v -6.117977 z" />
        <rect
           style="fill:#ffffff;stroke:#000000;stroke-width:1.3;stroke-dasharray:none"
           id="rect2807"
           width="38.153427"
           height="6.1735139"
           x="256.28424"
           y="129.6438" />
        <path
           id="path2831"
           style="fill:none;stroke:#000000;stroke-width:0.9;stroke-dasharray:none"
           d="m 270.04967,112.01332 c 0,0 -0.69653,0.81657 -1.12913,1.89807 -0.43257,1.0815 -0.4837,1.80047 -0.4837,3.30213 v 6.86831 h 1.61283 1.61282 v -6.86831 c 0,-1.50166 -0.0511,-2.22063 -0.48369,-3.30213 -0.4326,-1.0815 -1.12913,-1.89807 -1.12913,-1.89807 z" />
        <path
           id="path2836"
           style="fill:none;stroke:#000000;stroke-width:0.9;stroke-dasharray:none"
           d="m 280.67225,112.01332 c 0,0 0.69653,0.81657 1.12913,1.89807 0.43257,1.0815 0.4837,1.80047 0.4837,3.30213 v 6.86831 h -1.61283 -1.61282 v -6.86831 c 0,-1.50166 0.0511,-2.22063 0.48369,-3.30213 0.4326,-1.0815 1.12913,-1.89807 1.12913,-1.89807 z"
           inkscape:transform-center-x="-5.3112957"
           inkscape:transform-center-y="4.9589648" />
        <path
           id="path2838"
           style="fill:none;stroke:#000000;stroke-width:1.1;stroke-dasharray:none"
           d="m 268.74266,141.71883 c 0,0 0.93023,1.04036 1.50797,2.41825 0.5777,1.3779 0.64599,2.29391 0.64599,4.20711 v 12.4548 h -2.15396 -2.15394 v -12.4548 c 0,-1.9132 0.0682,-2.82921 0.64597,-4.20711 0.57775,-1.37789 1.50797,-2.41825 1.50797,-2.41825 z"
           inkscape:transform-center-x="-7.093311"
           inkscape:transform-center-y="6.3180082"
           sodipodi:nodetypes="csscccssc" />
        <path
           id="path2840"
           style="fill:none;stroke:#000000;stroke-width:1.1;stroke-dasharray:none"
           d="m 281.97926,141.71883 c 0,0 -0.93023,1.04036 -1.50797,2.41825 -0.5777,1.3779 -0.64599,2.29391 -0.64599,4.20711 v 12.4548 h 2.15396 2.15394 v -12.4548 c 0,-1.9132 -0.0682,-2.82921 -0.64597,-4.20711 -0.57775,-1.37789 -1.50797,-2.41825 -1.50797,-2.41825 z"
           inkscape:transform-center-x="-6.6182907"
           inkscape:transform-center-y="6.2786808"
           sodipodi:nodetypes="csscccssc" />
      </g>
      <path
         id="path3103"
         style="fill:#ffffff;stroke:#000000;stroke-width:1.70001;stroke-dasharray:none"
         d="M 101.71369,151.16752 A 58.731812,65.183411 0 0 0 54.436471,177.75401 52.476154,52.698624 0 0 0 101.7142,207.66278 52.476154,52.698624 0 0 0 149.01003,177.7137 58.731812,65.183411 0 0 0 101.71369,151.16752 Z" />
      <path
         id="path3108"
         style="fill:none;stroke:#000000;stroke-width:1.7;stroke-dasharray:none"
         d="m 49.237821,83.05953 v 71.90465 a 52.476154,52.698624 0 0 0 52.476379,52.6986 52.476154,52.698624 0 0 0 52.47587,-52.69808 52.476154,52.698624 0 0 0 0,-5.2e-4 V 83.05953 Z" />
      <path
         style="fill:#f00000;fill-opacity:1;stroke:#000000;stroke-width:1.3;stroke-dasharray:none"
         d="m 104.22024,189.47779 c 0,0 3.52017,0.21736 5.00555,3.72636 1.10805,2.61761 2.59873,5.33113 4.8387,7.23024 1.27919,1.08453 5.36347,1.36705 5.42267,0.36152 0.0556,-0.9455 -0.19465,-1.39044 -3.2536,-2.11346 -2.27651,-0.53808 -3.18895,-3.59865 -4.505,-7.81423 -1.14155,-3.65664 -3.94882,-4.17129 -3.94882,-4.17129 0,0 0,-2.55839 0.38932,-5.22802 0.38932,-2.66963 7.78641,0.66741 11.01221,-1.77975 3.2258,-2.44716 2.19366,-8.77627 2.19366,-8.77627 0,0 7.78638,3.70814 8.96663,-3.46081 1.06184,-6.44969 -5.97775,-6.60699 -7.66883,-7.07892 -1.69107,-0.47193 -3.10686,-2.63493 -3.10686,-2.63493 0,0 -1.17982,1.92703 -2.98888,2.5956 -1.80905,0.66856 -7.71697,-0.1614 -7.94411,5.54516 -0.31464,7.90479 9.83183,4.83726 9.83183,4.83726 0,0 0.91122,5.80272 -1.48031,6.49794 -2.35049,0.68329 -7.64738,-0.41713 -10.48386,0.58398 -2.83648,1.00111 -2.52459,4.39377 -4.33441,4.39378 -1.80983,0 -1.49793,-3.39263 -4.33441,-4.39374 -2.83648,-1.00111 -8.13337,0.0993 -10.48386,-0.58398 -2.39153,-0.69522 -1.48031,-6.49794 -1.48031,-6.49794 0,0 10.14647,3.06753 9.83183,-4.83726 -0.22714,-5.70656 -6.13506,-4.8766 -7.94411,-5.54516 -1.80906,-0.66857 -2.98888,-2.5956 -2.98888,-2.5956 0,0 -1.41579,2.163 -3.10686,2.63493 -1.69108,0.47193 -8.73067,0.62923 -7.66883,7.07892 1.18025,7.16895 8.96663,3.46081 8.96663,3.46081 0,0 -1.03214,6.32911 2.19366,8.77627 3.2258,2.44716 10.62289,-0.88988 11.01221,1.77975 0.38932,2.66963 0.38932,5.16903 0.38932,5.16903 0,0 -2.74827,0.57364 -3.94882,4.23028 -1.37759,4.19588 -2.22849,7.27615 -4.505,7.81423 -3.05895,0.72302 -3.3092,1.16796 -3.2536,2.11346 0.0592,1.00553 4.14348,0.72301 5.42267,-0.36152 2.23997,-1.89911 3.73065,-4.61263 4.8387,-7.23024 1.48538,-3.509 5.00555,-3.72636 5.00555,-3.72636 0,0 -0.59788,4.12697 0.34598,6.13266 0.94385,2.00569 2.20234,4.95524 1.49445,6.05641 -0.70791,1.10116 -1.57311,1.61242 -0.9832,2.47762 0.58991,0.8652 4.36535,-0.78655 3.77544,-4.48332 -0.58991,-3.69677 -1.96637,-5.07322 -1.5731,-7.00026 0.39328,-1.92704 1.04865,-3.18315 1.04865,-3.18315 z"
         id="path2581"
         sodipodi:nodetypes="csscsscsscssssscsszsscssssscsscsscsscsssssc" />
    </g>
  </g>
</svg>
