<svg xmlns="http://www.w3.org/2000/svg" width="834.02" height="889.5" viewBox="0 0 834.01834 889.50194"><g transform="translate(19.11-69.38)"><g fill-rule="evenodd"><path d="m-13.232 74.883l37 560.06c11.587 178.39 176.06 318.38 374.13 318.44 197.83-.215 362.39-140.28 374.13-318.44l37-560.06h-411.13z" fill="#fff"/><g fill="none" stroke="#000"><path d="m-13.232 74.883l37 560.06c11.587 178.39 176.06 318.38 374.13 318.44 197.83-.215 362.39-140.28 374.13-318.44l37-560.06h-411.13z" stroke-width="11"/><path d="m13.438 478.54h768.93" stroke-width="8"/></g></g><g stroke-width="8"><g stroke="#000"><g fill="#f00"><path d="m5.875 5.477l411.13 206.83 411.13-206.83h-822.27zm411.13 206.83l-384.46 196.85h768.93l-384.46-196.85z" transform="translate(-19.11 69.38)" stroke-linejoin="round" stroke-linecap="round"/><path d="m302.07 556.07c-3.868-4.512-2.886-12.12-3.775-18.285-.352-2.447-.843-4.947-.612-7.392.345-3.658 1.505-7.19 2.942-10.446 1.53-3.468 2.546-10.194 5.942-9.435 4.1.922 2.383 9.186 3.523 13.8.971 3.926 1.449 8.03 2.822 11.803 2.269 6.244 8.462 10.96 8.839 17.645.15 2.674-.647 6.141-2.728 7.292-5.151 2.841-12.832-.179-16.952-4.984z"/><path d="m323.34 520.65c.654.027 1.273.352 1.84 1.039 2.18 2.644-5.696 4.175-6.32 7.654-.944 5.262.963 12.05 4.747 15.431 3.858 3.439 9.69.744 14.479 1.514 14.914 2.395 29.443 9.1 44.45 9.644 9.12.332 17.935-3.449 27.03-3.888 2.45-.118 5.01-.705 7.329.297 2.481 1.07 3.836 4.613 6.29 5.754 4.905 2.283 11.264-1.747 15.666 1.662 3.191 2.471 3.346 7.916 5.282 11.722 1.473 2.897 2.497 6.416 4.807 8.487 3.325 2.981 7.85 3.748 11.958 4.659 4.261.945 8.93-1.321 12.907.742 6.628 3.438 10.713 11.395 15.305 17.894 4.072 5.754 6.481 12.911 10.741 18.487 2.994 3.918 6.646 7.223 10.296 10.327 5.602 4.767 13.227 6.519 17.713 12.642 4.806 6.56 6.694 15.438 8.337 23.71.934 4.695-1.072 10.05.801 14.396 2.574 5.967 9.128 8.327 13.08 13.235 5.397 6.695 11.254 13.516 14.327 21.869 1.602 4.347 2.627 9.341 1.84 13.888-.365 2.106-2.768 3.249-2.877 5.401-.286 5.601 4.143 10.403 6.082 15.639 2.235 6.04 4.839 11.966 6.409 18.25.749 2.999 1.727 6.137 1.424 9.2-.388 3.932-2.79 7.168-4.095 10.802-1.757 4.893-2.496 10.438-5.074 14.808-2.474 4.195-5.918 7.606-9.643 10.387-4.154 3.096-12.729 9.971-12.729 9.971 0 0-15.296 30.812-25.794 44.29-14.393 18.481-30.23 36.938-50.21 49.16-12.986 7.944-28.13 13.349-43.3 14.505-27.739 2.113-63.43 1.498-82.24-14.216-4.316-3.606 1.206-11.925 2.226-17.775.866-4.969 1.899-9.879 3.323-14.66.936-3.152 2.49-6.01 3.412-9.169 1.317-4.506 2.553-9.164 2.997-13.917 1.024-10.974-1.434-22.18-.801-33.21.548-9.553 2.401-18.942 3.976-28.31 1.121-6.666 2.354-13.276 3.887-19.823 2.756-11.769 9.411-22.592 9.523-34.868.074-8.04-3.907-15.577-5.815-23.383-1.343-5.49-.839-11.961-3.917-16.499-1.671-2.464-4.467-5-7.121-4.629-7.356 1.027-8.651 14.742-15.518 17.775-3.594 1.587-7.804-1.311-11.631-.623-3.341.601-6.623 2.086-9.495 4.065-2.726 1.879-5.881 3.937-7.121 7.3-1.699 4.607 1.896 10.444.504 15.193-1.224 4.177-4.03 7.795-7.3 10.09-2.402 1.686-5.744.782-8.308 2.137-3.699 1.956-5.796 7.158-9.732 8.428-3.79 1.222-8.349.855-11.928-1.247-2.53-1.486-3.079-5.971-5.638-7.389-2.238-1.239-4.916-.736-7.329-.297-3.526.642-6.527 3.265-9.969 4.303-3.695 1.115-7.779 3.764-11.364 2.02-3.623-1.765-5.694-6.765-6.913-11.04-.959-3.349.447-6.956-.06-10.416-.534-3.647-1.663-7.302-3.086-10.653-3.326-7.835-11.997-13.304-12.522-21.897-.372-6.116 4.331-11.03 7-16.228 2.041-3.974 4.371-7.773 6.854-11.395 4.26-6.215 9.683-11.325 13.708-17.746 4.707-7.509 7.795-16.247 12.08-24.1 2.27-4.159 6.458-7.266 7.21-12.137.66-4.279-3.354-8.546-2.671-12.819.487-3.047 2.63-5.449 4.57-7.567 2.057-2.247 4.869-3.471 7.269-5.223 2.247-1.64 4.678-2.982 6.703-4.956 2.216-2.157 3.941-4.93 5.845-7.449 1.252-1.656 2.295-3.528 3.65-5.075 2.496-2.849 4.848-6.127 8.13-7.654 3.945-1.837 8.631-.443 12.847-1.306 4.084-.836 13.07.91 11.987-3.739-1.237-5.328-9.196 3.63-13.975 3.234-2.949-.244-5.658-2.142-8.427-3.413-3.01-1.38-5.636-4.459-8.842-4.6-4.157-.182-7.576 3.68-11.542 4.956-1.097.353-2.381 1.393-3.383.712-2.639-1.796-3.322-6.502-2.877-9.912.361-2.773 2.341-5.088 4.273-6.766 5.333-4.632 12.149-7.399 18.9-8.101 5.211-.541 11.591 6.917 15.548 3.116 2.296-2.21-.019-6.957 0-10.445.019-3.289-1.064-6.912.148-9.852 1.644-3.983 5.369-10.845 8.664-12.167.412-.165.794-.254 1.187-.237z"/></g><g stroke-linecap="round"><g fill="none"><path d="m395.98 933.08c0 0 2.171-11.598 2.765-14.895.893-4.963 2.071-9.937 4.063-14.426 1.33-2.997 3.406-5.463 5.175-8.137 2.281-3.447 7.01-10.194 7.01-10.194"/><path d="m378.74 872.63c0 0-.773-8.389-.38-12.522.351-3.7 1.386-7.264 2.427-10.765.825-2.77 1.736-5.534 3.01-8.06 2.052-4.052 4.894-7.492 7.384-11.199 1.352-2.01 4.105-5.987 4.105-5.987"/><path d="m377.72 833.33c0 0 2.6-4.888 4.04-7.226 1.13-1.841 2.32-3.639 3.599-5.348 1.374-1.835 4.363-5.252 4.363-5.252"/><path d="m371.46 931.28c0 0-4.211-9.743-5.268-12.256-1.205-2.862-2.469-5.706-3.414-8.685-1.069-3.369-2.024-6.814-2.531-10.332-.513-3.562-.435-7.19-.499-10.78-.048-2.693.073-5.38.087-8.07.024-4.509-3.678-16.672-3.678-16.672"/><path d="m403.01 567.36c0 0 6.237 2.545 9.424 2.379 1.903-.099 3.724-1 5.396-1.991 1.105-.655 1.903-1.847 2.98-2.56 1.629-1.077 3.379-1.966 5.2-2.549 3.132-1 9.695-1.587 9.695-1.587"/><path d="m432.86 580.57c0 0 3.439.405 5.073 1.035 1.233.475 2.4 1.204 3.486 2.036 1.079.827 1.95 1.968 2.959 2.904 1.044.967 1.965 2.215 3.2 2.801 1.738.824 3.697.922 5.559.829 2.53-.126 7.375-1.877 7.375-1.877"/><path d="m455.65 601.28c0 0 5.443 1.458 8.114 1.015 2.05-.34 3.672-2.21 5.682-2.756 2.356-.64 4.857-.917 7.286-.555 2.331.347 6.722 2.575 6.722 2.575"/><path d="m458.65 613.79c0 0 4.766 1.721 7.151 1.428 2.662-.327 4.751-2.87 7.368-3.478 2.508-.583 5.163-.523 7.723-.1 3.255.539 6.481 1.687 9.477 3.319 1.647.898 4.555 3.503 4.555 3.503"/><path d="m469.86 626c0 0 6.428 3.591 9.869 4.435 3.056.75 6.248.923 9.32.5 2.49-.343 4.675-2.224 7.181-2.435 2.545-.213 7.632 1.222 7.632 1.222"/><path d="m490.03 645.58c0 0 3.33 2.348 5.179 2.915 2.492.763 5.117.443 7.677.561 1.674.076 3.348.123 5.02.095 1.999-.034 3.987-.532 5.984-.318 3.119.334 6.225 1.228 9.184 2.483 2.209.936 6.294 3.721 6.294 3.721"/><path d="m493.19 659.31c0 0 3.643 3.812 5.864 4.867 1.485.706 3.145.867 4.735.86 1.853-.009 3.608-.886 5.449-1.051 1.936-.174 3.928-.423 5.841.064 1.325.337 2.653.961 3.724 1.933 1.725 1.562 2.876 3.837 4.04 5.972 1.257 2.311 2.162 4.844 3.125 7.324.498 1.283.914 2.603 1.371 3.905.326.93.979 2.789.979 2.789"/><path d="m507.11 679.99c0 0 3.984 3.96 6.301 5.322 2.39 1.404 4.99 2.601 7.641 2.823 1.41.118 2.737-.811 4.147-.815 2.095-.005 4.153.805 6.233 1.18 2.848.514 8.551 1.471 8.551 1.471"/><path d="m529.71 703.35c0 0 5.907-.432 8.596.81 2.438 1.125 4.361 3.488 6.158 5.704 1.844 2.274 3.342 4.921 4.628 7.645.79 1.68 1.312 3.504 1.862 5.299.64 2.086 1.233 4.196 1.672 6.343.367 1.791.243 3.7.799 5.433.58 1.808 1.481 3.52 2.583 4.99 1.976 2.636 7.03 6.613 7.03 6.613"/><path d="m518.44 707.54c0 0 3.13 5.753 5.301 7.997 1.49 1.539 3.256 2.804 5.134 3.576 2.248.925 4.692.902 7.05 1.15 2.249.235 4.561-.33 6.759.313 1.853.542 3.524 1.786 5.179 2.915 1.361.928 3.877 3.152 3.877 3.152"/><path d="m522.54 726.31c0 0 3.877 7.384 6.807 9.918 2.582 2.233 5.789 3.594 8.951 4.187 2.42.453 4.848-.51 7.286-.555 2.058-.038 4.126-.014 6.179.24 4.223.523 12.563 2.639 12.563 2.639"/><path d="m527.36 765.32c0 0 2.904 6.131 5.158 8.379 1.881 1.872 4.281 3.01 6.632 3.896 2.01.761 4.195.544 6.233 1.18 2.029.633 4.262 1.07 5.902 2.605 2.498 2.337 3.737 6.05 5.21 9.319 1.286 2.856 2.089 5.951 3.133 8.925.816 2.324 2.448 6.973 2.448 6.973"/><path d="m530.68 752.67c0 0 4.452 4.862 6.889 6.996 2.502 2.19 5.079 4.335 7.897 5.922 2.963 1.668 6.438 1.88 9.334 3.701 1.966 1.236 3.665 3.01 5.285 4.795 1.543 1.702 2.987 3.555 4.179 5.589 1.574 2.685 2.738 5.658 3.856 8.616.87 2.303 2.207 7.08 2.207 7.08"/><path d="m528.08 782.35c0 0 2.866 4.759 4.954 6.219 1.934 1.353 4.484.901 6.526 2.02 2.744 1.498 5.531 3.38 7.412 6.131 1.41 2.06 1.697 4.834 2.546 7.252.522 1.488 1.012 2.989 1.566 4.463.693 1.844 1.25 3.753 2.199 5.475.776 1.409 1.301 2.233 2.826 3.913"/><path d="m488.14 759.34c0 0 1.714-9.1 2.104-13.736.252-2.995.192-6.03.148-9.05-.034-2.414-.203-4.827-.325-7.241-.191-3.76-.635-11.284-.635-11.284"/><path d="m478.99 734.06c0 0 .817-5.403 1.021-8.138.201-2.689.195-5.402.201-8.108 0-3.076-.288-6.151-.19-9.227.075-2.344.593-6.992.593-6.992"/><path d="m468.85 714.66c0 0 .552-6.689.915-10.02.508-4.653 1.461-9.227 1.765-13.912.118-1.812.263-3.654.021-5.464-.343-2.566-2.064-7.458-2.064-7.458"/><path d="m456.75 698.35c0 0 1.458-7.629 2.067-11.475.715-4.523 1.785-9.02 1.862-13.633.031-1.849-.325-3.696-.559-5.536-.472-3.728-1.696-11.146-1.696-11.146"/></g><path d="m370.63 589.58c2.747-.718 5.462-2.599 7.02-5.254 1.65-2.81 1.564-6.626 1.736-10.05.214-4.247.221-8.667-.883-12.777-2.074-7.717-6.323-14.592-10.483-21.18-2.315-3.665-5.4-6.619-7.966-10.06-2.69-3.611-5.55-7.11-7.778-11.11-2.415-4.338-3.528-9.483-5.957-13.812-1.247-2.22-2.216-5.249-4.374-6.151-1.081-.45-2.417.031-3.327.783-2.213 1.832-2.798 5.38-4.063 8.158-1.509 3.315-3.676 6.421-4.197 10.141-.622 4.439.651 9.05 1.419 13.51.881 5.123 2.748 10.01 3.647 15.12.604 3.437.388 7.01 1.162 10.411.771 3.382 1.93 6.692 3.428 9.762 1.328 2.723 3.049 5.206 4.864 7.541 1.752 2.255 3.643 4.416 5.775 6.189 3.735 3.107 7.741 6.02 12.1 7.648 2.529.943 5.323 1.785 7.874 1.119z" fill="#f00"/></g></g><path d="m345.63 530.98c-1.961.064-2.118 4.045-1.948 6.29.303 3.99 4.23 6.746 5.121 10.64.477 2.081-.241 4.282.031 6.404.254 1.98.902 3.884 1.477 5.785.545 1.796 1.174 3.563 1.862 5.299 1.2 3.03 1.181 9.647 3.954 8.895 1.773-.482-.001-4.213-.273-6.301-.251-1.992-2.332-4.365-1.236-5.887.826-1.147 2.871-.665 3.959.229 1.214.998 1.11 3.161 1.665 4.742.457 1.302 1.206 2.525 1.371 3.905.148 1.235-.516 2.452-.368 3.687.095.788.102 2.057.784 2.231.838.215 1.41-1.175 1.776-2.047 1.228-2.921 1.45-6.48 1.014-9.739-.356-2.659-1.693-5.08-2.885-7.427-1.552-3.055-3.389-5.961-5.497-8.555-1.636-2.01-3.879-3.304-5.481-5.353-1.082-1.384-2.061-2.922-2.726-4.607-.546-1.383-.531-2.968-.987-4.39-.424-1.319-.398-3.841-1.611-3.802"/><g stroke="#000" stroke-linecap="round"><g fill="none"><path d="m383.19 736.61c0 0 5.963-8.355 8.141-13.11 1.01-2.209 1.411-4.739 2.234-7.05 1.163-3.275 3.814-9.656 3.814-9.656"/><path d="m390.38 746.04c0 0 2.992-3.87 4.266-6 .922-1.548 1.955-3.091 2.437-4.895.561-2.1.45-6.611.45-6.611"/><path d="m376.43 677.9c0 0 3.959-.924 5.637-2.095 1.273-.888 2.38-2.155 3.168-3.603.832-1.53 1.215-3.361 1.519-5.143.42-2.465.564-5.02.397-7.551-.113-1.71-.644-3.364-.942-5.05-.702-3.986-1.99-11.982-1.99-11.982"/><path d="m373.35 671.51c0 0 1.853-3.439 2.58-5.276.427-1.073.986-2.147 1.045-3.335.124-2.5-1.149-4.895-1.484-7.386-.265-1.96-.209-3.95-.416-5.918-.138-1.318-.55-3.935-.55-3.935"/><path d="m329.52 709.22c0 0 5.345-1.831 7.172-4.04 2.074-2.502 2.69-6.23 3.573-9.553.416-1.564.787-3.185.797-4.833.013-2.331-.486-4.668-1.048-6.931-.812-3.268-1.778-6.563-3.329-9.483-.967-1.82-2.586-3.102-3.644-4.856-1.257-2.085-3.17-6.664-3.17-6.664"/><path d="m355.7 704.1c0 0 7.644-1.242 11.282-2.588 3.602-1.332 6.99-3.32 10.303-5.377 2.608-1.619 5.164-3.382 7.503-5.461 2.69-2.39 5.473-4.82 7.44-8 2.964-4.79 5.568-10.276 6.244-16.15.337-2.919-.749-5.876-1.154-8.81-.682-4.939-1.123-9.929-2.149-14.802-1.086-5.157-3.818-9.935-4.227-15.195-.062-.798.278-2.365.278-2.365"/><path d="m274.29 766.58c.963-.412 7.01-3.948 9.716-7.05 1.939-2.224 3.267-5.112 4.401-7.982 1.078-2.731 1.547-5.747 2.225-8.655.382-1.634.554-3.341 1.037-4.936.736-2.426 1.824-4.683 2.814-6.981.697-1.619 3.134-3.278 2.197-4.792-.678-1.095-2.311.189-3.425.505-1.67.474-3.276 1.212-4.817 2.063-.861.477-1.741.966-2.453 1.693-1.113 1.137-1.733 2.79-2.732 4.058-1.049 1.332-2.468 2.27-3.409 3.706-1.559 2.381-2.59 5.188-3.581 7.952-.462 1.288-.513 2.774-1.091 3.996-.838 1.771-2.114 3.227-3.356 4.646-.572.654-1.874 1.765-1.874 1.765"/><path d="m253.8 722.41c0 0 3.665-3.482 5.282-5.472 1.483-1.826 3.215-3.57 4.03-5.896.681-1.955.445-4.211.548-6.332.099-2.036.323-4.094.066-6.121-.437-3.461-1.982-6.665-2.705-10.07-.399-1.883-.989-3.795-.897-5.712.091-1.897.686-3.741 1.422-5.422 1.444-3.302 3.947-5.825 5.749-8.881 1.433-2.428 2.678-4.998 4.02-7.497 1.339-2.499 4.02-7.497 4.02-7.497"/><path d="m244.55 726.06c0 0 .434-4.293 1.127-6.258.872-2.473 2.732-4.328 3.732-6.733 1.303-3.136 2.852-6.392 2.896-9.904.026-2.089-.098-4.778-1.575-6.06-.975-.848-2.487-.488-3.62-.053-1.106.424-1.976 1.458-2.739 2.457-1.28 1.674-1.896 3.9-2.964 5.762-.61 1.065-1.334 2.037-1.964 3.086-.831 1.385-1.873 2.655-2.392 4.234-.772 2.345-.976 7.477-.976 7.477"/><path d="m323.09 609.62c-.972-1.188-4.53-4.706-7.318-5.849-2.175-.892-4.581-.771-6.857-.592-1.829.144-3.632.649-5.352 1.33-2.605 1.033-5.04 2.561-7.412 4.139-1.595 1.059-3.273 2.065-4.568 3.561-.949 1.096-1.772 2.4-2.249 3.852-.487 1.48-.409 3.147-.556 4.731-.143 1.537-.315 4.627-.315 4.627"/><path d="m333.89 617.52c0 0 3.14-2.786 4.176-4.678.837-1.526 1.275-3.347 1.519-5.143.256-1.882.134-3.836-.077-5.743-.22-1.996-1.144-3.883-1.236-5.887-.073-1.598.556-4.731.556-4.731"/><path d="m290.79 637.58c0 0 1.512-2.393 2.01-3.749.45-1.229.455-2.638.849-3.893.513-1.634 1.127-3.244 1.955-4.689 1.216-2.117 2.378-4.589 4.364-5.72 1.672-.953 3.782-.938 5.646-.494 1.027.245 1.888 1.088 2.808 1.684 2.123 1.38 3.956 3.451 6.249 4.382 1.77.719 3.697.846 5.559.829 1.682-.016 3.518.078 4.967-.845.936-.596 2.061-2.809 2.061-2.809"/><path d="m299.72 636.97c0 0 3.425 1.448 5.172 1.314 1.121-.087 2.107-.84 3.131-1.341.869-.426 1.769-.811 2.551-1.414.985-.761 2.641-2.735 2.641-2.735"/></g><path d="m306.49 623.14c.649 1.848-.012 3.856-1.475 4.483-1.463.627-3.176-.364-3.825-2.212-.649-1.848.012-3.856 1.475-4.483 1.463-.627 3.176.364 3.825 2.212z" fill="#00de00" stroke-linejoin="round"/><g fill="none"><path d="m518.97 806.14c0 0-.084-13.178-.291-19.77-.211-6.708-.243-13.44-.968-20.12-1-9.257-2.455-18.505-4.674-27.518-3.646-14.816-8.659-29.24-14.12-43.37-3.697-9.582-7.43-19.28-12.592-27.975-11.12-18.743-24.946-35.36-39.06-51.29-9.144-10.315-18.947-19.953-29.392-28.478-7.134-5.822-14.335-12.09-22.57-15.358-3.549-1.409-11.11-1.657-11.11-1.657"/><path d="m448.03 653c0 0-.703-6.06-1.493-8.987-1.754-6.499-4.295-12.753-7.14-18.759-2.05-4.329-4.915-8.116-7.109-12.353-3.332-6.436-9.173-19.814-9.173-19.814"/></g></g><path d="m355.71 574.73l-7.157 16.911 18.511 13.823 10.995-2.733-7.955-24.281-6.945-.321z" fill="#f00" stroke="#f00"/></g></g></svg>