<?xml version="1.0" encoding="utf-8"?>
<!-- Generator: Adobe Illustrator 16.0.3, SVG Export Plug-In . SVG Version: 6.00 Build 0)  -->
<!DOCTYPE svg PUBLIC "-//W3C//DTD SVG 1.1//EN" "http://www.w3.org/Graphics/SVG/1.1/DTD/svg11.dtd">
<svg version="1.1" id="Wappen_Wurzen" xmlns="http://www.w3.org/2000/svg" xmlns:xlink="http://www.w3.org/1999/xlink" x="0px"
	 y="0px" width="510px" height="610px" viewBox="0 0 510 610" enable-background="new 0 0 510 610" xml:space="preserve">
<path fill-rule="evenodd" clip-rule="evenodd" d="M505,351.323C505,491.425,393.071,605,255.001,605C116.93,605,5,491.425,5,351.323
	V5h500V351.323z"/>
<path fill-rule="evenodd" clip-rule="evenodd" fill="#FFDD11" d="M279.635,371.736c-0.282,1.4,0.314,2.742-0.586,4.244
	c-2.861-0.604-5.666-1.976-8.56-2.297c-2.897-0.323-5.697-1.426-8.449-0.875c-1.006-1.32-0.116-2.307-0.11-3.321
	c0.045-6.656-1.564-12.893-4.905-18.573c-2.544-4.323-4.888-8.782-6.553-13.459c-2.81-7.894-4.314-16.09-3.334-24.599
	c0.341-2.961,0.368-5.96,1.074-9.131c1.96-0.992,4.227-0.557,6.41-0.512c2.413,0.05,4.845,0.213,7.229,0.582
	c2.817,0.437,5.592,1.153,8.387,1.733c1.104,0.229,1.506,0.882,1.627,2.025c0.691,6.476,1.413,12.946,0.908,19.475
	c-0.104,1.334,0.686,11.167,0.727,12.594c0.125,4.482,0.233,8.982,0.966,13.403c0.59,3.559,0.512,7.194,1.431,10.71
	c0.507,1.937,1.067,3.885,1.14,5.916C277.094,371.281,278.442,371.402,279.635,371.736z"/>
<path fill-rule="evenodd" clip-rule="evenodd" fill="#FFDD11" d="M217.593,96.009c1.913,2.626,3.166,6.151,4.61,9.026
	c-0.216,0.704-0.547,0.824-0.872,0.951c-2.62,1.03-3.035,1.8-2.481,4.604c0.332,1.678,0.332,1.762-1.374,1.955
	c-1.397,0.158-2.489,0.56-2.882,1.973c0.607,1.104,1.784,0.345,2.497,1.211c0.298,1.244-0.047,2.645-0.108,4.024
	c-0.053,1.191-1.237,1.813-2.825,1.593c-1.373-0.19-2.726-0.537-4.085-0.822c-1.021-0.214-2.028-0.529-3.059-0.643
	c-1.205-0.133-2.088-0.628-2.853-1.601c-0.607-0.771-1.197-1.809-2.551-1.524c-0.872,2.009,1.011,3.241,1.086,4.952
	c-0.658,0.372-1.33,0.177-1.99,0.014c-4.153-1.031-7.875-3.14-11.79-4.779c-2.712-1.135-4.341-2.563-4.594-5.801
	c-0.185-2.366-3.085-3.17-4.899-1.688c-1.518,1.241-3.262,0.9-4.967,0.794c-3.192-0.2-6.044-1.447-8.78-3.024
	c-1.345-0.776-1.729-2.53-0.985-4.423c0.532-1.354,1.474-2.459,2.559-3.289c2.582-1.972,4.954-4.292,8.428-4.808
	c1.675-0.249,3.256-1.162,4.873-1.792c7.23-2.813,14.823-4.165,22.361-5.757c6.632-1.401,13.404-1.784,20.063-3.035
	c4.169-0.784,8.467-0.539,12.712-0.131c1.144,0.11,2.202,0.496,3.24,0.935c2.78,1.177,3.516,3.744,1.684,6.179
	c-2.198,2.923-5.177,4.922-8.303,6.662c-2.129,1.185-4.398,2.105-6.728,2.818c-1.962,0.6-2.375,0.396-3.422-1.322
	c-0.457-0.748-0.87-1.508-1.121-2.371c-0.27-0.924-0.622-1.839-1.057-2.695c-1.168-2.293-3.02-3.42-5.61-3.561
	c-4.627-0.251-9.215,0.154-13.75,0.911c-3.913,0.652-7.877,1.188-11.658,2.498c-1.967,0.682-3.894,1.489-5.823,2.28
	c-1.151,0.472-2.082,1.275-2.815,2.285c-0.388,0.534-0.5,1.141,0.014,1.682c0.427,0.45,0.91,0.413,1.411,0.094
	c0.434-0.276,0.816-0.677,1.773-0.613c1.233,4.225,1.782,8.944,4.77,12.879c1.521-1.346,1.531-2.875,1.788-4.301
	c0.128-0.712,0.297-1.375,1.141-1.582c0.931-0.228,1.487,0.222,1.915,0.975c0.131,0.229,0.253,0.464,0.407,0.676
	c0.718,0.988,2.122,1.328,3.181,0.781c0.95-0.491,1.06-1.412,0.237-2.094c-0.199-0.165-0.446-0.269-0.671-0.401
	c-1.85-1.086-3.388-3.923-3.032-5.915c0.207-1.154,0.921-2.074,2.128-2.583c1.917,0.686,3.404,1.864,4.001,3.973
	c0.379,1.338,0.941,2.412,2.529,2.594c0.542,0.063,0.753,0.975,1.608,0.927c1.045-0.589,1.024-1.512,0.673-2.638
	c-0.498-1.592-0.9-3.217-1.295-4.84c-0.353-1.45,1.015-4.364,2.416-4.678c4.002-0.897,8.03-0.986,11.858-0.072
	C217.775,94.482,217.756,95.31,217.593,96.009z"/>
<path fill-rule="evenodd" clip-rule="evenodd" fill="#FFDD11" d="M123.879,86.704c1.635-0.437,2.706,0.545,3.769,1.545l0.062,0.038
	c0.301,0.39,0.603,0.78,0.905,1.169c0.016,0.195,0.047,0.388,0.094,0.578c-0.337,0.119-0.673,0.237-1.01,0.356
	c-0.235,0.057-0.473,0.064-0.711,0.022c-0.626-0.006-1.252-0.012-1.878-0.018c-0.241,0.083-0.502,0.057-0.742,0.148
	c-0.294,0.099-0.588,0.199-0.882,0.298l-0.216,0.134c-3.617,4.503-3,11.289,1.481,15.426c1.335,1.233,2.685,2.535,4.609,2.833
	c0.737,0.114,1.124,0.806,1.726,1.138c0.618,0.342,1.305,0.64,1.902-0.007c0.499-0.541,0.325-1.169-0.055-1.692
	c-2.236-3.068-1.354-4.836,3.192-6.48c0.789,0.708,0.379,1.667,0.389,2.479c0.064,5.652,4.299,7.244,8.865,5.855
	c0.982-0.299,1.87-0.921,2.802-1.392c4.216-2.133,6.888-0.99,9.315,1.199c1.417,1.279,0.998,3.065,1.787,4.66
	c-1.95,1.233-13.936,3.786-19.79,3.601c-15.91-0.502-27.423-11.463-27.423-25.388c0-18.336,12.892-27.304,21.573-29.117
	c14.397-3.006,23.364,2.508,26.232,9.45c3.294,7.973,3.771,11.69,1.295,17.779c-1.854,4.439-7.56,6.989-11.158,6.436
	c-1.782-0.683-3.214-1.654-3.632-3.644c0.44-0.756,1.114-0.502,1.687-0.583c3.612-0.508,6.325-2.292,7.865-5.728
	c1.095-2.443,1.88-4.916,1.043-7.651c-0.789-2.575-1.933-3.558-4.657-3.545c-1.55,0.007-2.034-0.875-2.411-2.181
	c-0.546-1.892-1.48-3.563-3.36-4.454c-0.562-0.266-1.142-0.541-1.651,0.079c-0.484,0.586-0.273,1.132,0.136,1.665
	c0.48,0.624,0.975,1.24,1.402,1.9c1.27,1.965,0.346,4.687-1.861,5.549c-1.609,0.629-2.159,0.365-2.491-1.385
	c-0.422-2.217-0.906-4.387-3.278-5.306c-2.692-1.042-5.402-1.158-8.116,0.03c-3.841,1.681-6.247,4.625-7.522,8.601
	c-0.242,0.753-0.477,1.508-0.742,2.35c-0.864,0.286-1.768,0.569-2.663,0.884c-1.754,0.618-2.862,1.929-3.638,3.574
	c-0.371,0.79-0.336,1.591,0.274,2.21c0.575,0.584,1.274,0.316,1.946,0.058c1.508-0.58,2.578-1.76,3.775-2.769
	c0.266-0.224,0.574-0.397,0.862-0.594C123.278,86.765,123.595,86.867,123.879,86.704z"/>
<path fill-rule="evenodd" clip-rule="evenodd" fill="#FFDD11" d="M215.097,153.858c1.754,3.23,2.94,6.421,3.97,9.525
	c-0.141,0.781-0.629,1.057-1.112,1.197c-2.829,0.818-5.53,2.047-8.477,2.494c-1.618,0.246-3.202,0.752-4.782,1.21
	c-1.612,0.468-1.893,1.102-1.249,2.728c2.465,6.224,3.358,12.747,3.047,19.372c-0.196,4.173,0.049,8.457-1.5,12.49
	c-0.47,1.225-0.78,2.519-1.312,3.713c-0.754,1.693-1.314,1.939-3.071,1.694c-4.049-0.567-4-0.588-5.613-4.481
	c-1.979-4.772-3.455-9.723-5.185-14.583c-0.318-0.893-0.347-1.648,0.012-2.527c2.547-6.238,2.974-12.789,2.675-19.432
	c-0.046-1.046-0.321-2.082-0.385-3.128c-0.065-1.074,0.32-1.804,1.536-2.042c2.12-0.414,4.223-0.938,6.311-1.5
	c4.968-1.338,9.683-3.291,14.014-6.136C214.258,154.267,214.573,154.133,215.097,153.858z"/>
<path fill-rule="evenodd" clip-rule="evenodd" fill="#FFDD11" d="M207.993,212.299c0.556,4.185-0.363,9.814-2.25,13.837
	c-2.516,0.152-4.944,1.11-7.58,1.272c-3.686,0.227-7.281-0.382-10.888-0.732c-6.289-0.608-12.428-2.137-18.481-3.996
	c-0.799-4.076,1.687-12.222,5.638-18.444c0.856-0.309,1.749-0.153,2.514,0.217c6.178,2.99,12.965,3.841,19.467,5.67
	c2.724,0.766,5.597,1.215,8.469,1.318C205.946,211.479,206.934,211.736,207.993,212.299z"/>
<path fill-rule="evenodd" clip-rule="evenodd" fill="#FFDD11" d="M232.443,315.247c2.537,5.789,4.135,11.937,6.636,17.751
	c1.059,2.462,2.228,5.054,2.744,7.576c0.618,3.02,1.713,5.87,2.659,8.696c1.158,3.466,2.616,6.874,3.795,10.359
	c1.772,5.236,3.934,10.333,5.416,15.672c0.088,0.316,0.389,0.564,0.526,0.874c0.827,1.857,0.64,2.267-1.581,3.353
	c-1.067-1.213-1.998-2.478-2.595-4.098c-2.394-6.497-4.822-12.985-7.167-19.497c-1.269-3.522-2.394-7.156-3.612-10.702
	c-1.334-3.884-2.56-7.853-4.229-11.615c-1.46-3.298-2.241-6.822-3.62-10.15c-1.235-2.981-2.32-6.061-3.303-9.131
	c-0.934-2.916-2.08-5.748-2.989-8.665c-1.852-5.939-3.841-11.852-6.35-17.515c-2.399-5.414-3.936-11.109-6.075-16.597
	c-1.976-5.072-3.762-10.22-5.632-15.334l-0.089-0.192c-1.534-4.382-2.994-8.793-4.632-13.135c-0.957-2.537-1.688-5.159-2.884-7.616
	c-0.37-0.759-0.751-1.809-0.215-2.871c0.861-0.414,1.783-0.268,2.737-0.129c1.795,3.51,3.06,7.201,4.42,10.86
	c2.414,6.49,4.607,13.061,7.115,19.519c1.678,4.32,2.982,8.793,4.644,13.131c1.223,3.195,2.578,6.366,3.459,9.662
	c1.453,5.43,4.232,10.326,5.784,15.723c0.716,2.489,1.561,5.021,2.724,7.384C230.621,309.557,232,314.234,232.443,315.247z"/>
<path fill-rule="evenodd" clip-rule="evenodd" fill="#FFDD11" d="M171.214,197.174c-5.791-1.35-11.565-2.695-17.605-4.102
	c0.027-5.07,1.023-9.966,1.697-14.854c0.671-4.872,1.674-9.755,3.748-14.324c2.434-0.316,4.5,0.784,6.672,1.206
	c0.929,0.181,1.803,0.429,2.788,0.416c2.261-0.032,3.616,1.117,4.385,3.302c0.963,2.731,1.949,5.454,2.985,8.157
	c0.39,1.017,0.503,1.934,0.237,3.049c-0.876,3.662-1.601,7.361-2.35,11.053c-0.228,1.12-0.434,2.145-1.279,3.075
	C171.848,194.86,171.678,196.011,171.214,197.174z"/>
<path fill-rule="evenodd" clip-rule="evenodd" fill="#FFDD11" d="M155.432,238.707c1.099-1.577,2.222-3.138,3.292-4.735
	c1.502-2.243,2.985-4.505,2.903-7.722c2.922,0.541,5.836,0.952,8.516,2.098c4.258,1.822,8.632,3.095,13.167,3.951
	c2.808,0.53,5.576,1.322,8.32,2.145c1.021,0.307,2.019,0.438,3.056,0.49c1.091,0.056,2.129,0.336,2.554,1.473
	c0.943,2.527,1.802,5.086,2.619,7.416c-0.426,0.735-0.858,0.777-1.287,0.859c-6.343,1.221-12.716,1.351-19.118,0.562
	c-2.67-0.329-5.362-0.31-8.042-0.463c-5.442-0.313-10.846-0.979-15.996-2.97l-0.196-0.069c-0.453-0.169-0.906-0.338-1.458-0.544
	c0.248-1.073,1.185-1.511,1.575-2.31L155.432,238.707z"/>
<path fill-rule="evenodd" clip-rule="evenodd" fill="#FFDD11" d="M179.3,132.797c1.512-0.864,2.681-2.17,3.822-3.247
	c6.731,3.131,13.428,5.599,20.772,5.68c0.871,0.01,1.735,0.124,2.569-0.211c1.099-0.442,1.776-0.135,2.213,1.033
	c1.291,3.451,2.715,6.851,3.971,10.315c0.926,2.554,0.521,3.184-1.758,4.736c-4.814,3.277-10.202,5.175-15.644,6.973
	c-1.176,0.388-2.398,0.382-3.608,0.413c-2.024,0.051-2.946-0.877-2.647-2.896c0.259-1.751,0.436-3.49,0.311-5.248
	c-0.316-4.424-2.57-7.724-5.957-10.265c-0.178-1.349,0.689-2.022,1.492-2.659c0.955-0.757,1.408-1.759,1.678-2.892
	c0.219-0.919-0.067-1.543-0.99-1.75c-0.785,0.066-0.963,0.729-1.305,1.213c-0.252,0.358-0.451,0.769-0.751,1.077
	c-2.975,3.047-3.868,3.951-8.3,1.102c0.8-1.803,2.636-2.299,4.05-3.302L179.3,132.797z"/>
<path fill-rule="evenodd" clip-rule="evenodd" fill="#FFDD11" d="M212.368,209.478c1.264,0.603,2.67,1.105,3.899,1.893
	c3.671,2.352,7.585,4.245,11.375,6.371c0.451,0.253,0.94,0.56,1.43,0.598c2.853,0.223,4.062,2.234,4.647,4.631
	c1.02,4.171,0.892,8.39-0.221,12.542c-0.52,1.938-2.68,3.282-4.688,3.345c-2.136,0.067-4.25,0.476-6.405,0.026
	c-2.299-0.481-2.632-0.935-1.924-3.165c0.738-2.323,0.216-2.858-2.308-2.851c-3.119,0.01-6.24-0.177-9.359-0.276
	c-1.193-0.038-1.708-0.679-1.668-1.865c0.024-0.716,0.183-1.385,0.445-2.05c1.351-3.441,2.047-7.072,2.987-10.633
	c0.544-2.06,0.1-4.227,0.818-6.257C211.655,211.059,211.592,210.211,212.368,209.478z"/>
<path fill-rule="evenodd" clip-rule="evenodd" fill="#FFDD11" d="M247.478,298.903c6.291-2.862,12.399-5.7,17.89-9.695
	c0.119-0.087,0.015-0.492,0.015-0.807c-1.331-0.625-2.537-0.072-3.753,0.34c-3.38,1.145-6.494,2.876-9.646,4.525
	c-1.67,0.874-3.227,2.048-5.468,2.17c0.988-1.784,1.966-3.363,3.159-4.81c2.771-3.363,5.399-6.86,8.348-10.055
	c2.41-2.612,5.172-4.896,7.83-7.267c1.031-0.919,2.176-0.557,3.067,0.264c0.756,0.698,1.545,1.512,1.938,2.441
	c2.153,5.07,4.36,10.158,4.324,15.831c-0.021,3.393-0.948,6.579-2.532,9.58c-0.601,1.14-1.526,1.268-2.622,1.249
	c-2.683-0.043-5.313-0.561-7.965-0.886c-0.854-0.104-1.696-0.33-2.566-0.271c-3.31,0.225-6.462-0.946-9.725-1.113
	C248.812,300.35,248.121,299.962,247.478,298.903z"/>
<path fill-rule="evenodd" clip-rule="evenodd" fill="#FFDD11" d="M206.648,208.988c-0.142-1.448-0.23-2.819,0.244-4.187
	c1.016-2.922,1.465-5.953,1.758-9.028c0.74-7.759,0.277-15.415-1.679-22.969c-0.437-1.691-0.16-2.47,1.194-2.588
	c3.253-0.283,6.156-1.712,9.224-2.588c0.418-0.12,0.835-0.24,1.256-0.348c1.011-0.258,1.588,0.108,1.988,1.128
	c0.807,2.062,1.084,4.248,1.571,6.378c1.165,5.099,1.339,10.288,0.546,15.444c-0.533,3.461-1.175,6.927-2.307,10.264
	c-0.762,2.246-0.765,4.691-1.778,6.876c-0.22,0.476-0.289,1.015-0.878,1.331c-1.156,0.15-2.035-0.698-3.023-1.172
	c-2.742-1.315-4.091-1.149-6.204,0.962C208.093,208.961,207.633,209.271,206.648,208.988z"/>
<path fill-rule="evenodd" clip-rule="evenodd" fill="#FFDD11" d="M170.929,203.84c-0.173,1.295-0.695,2.154-1.225,3.123
	c-1.018,1.86-1.753,3.785-2.14,5.883c-0.254,1.377-0.738,2.711-1.117,4.065c-0.379,1.354-0.84,2.697-0.568,4.144
	c0.193,1.034-0.271,1.875-0.807,2.842c-1.888,0.005-3.664-0.562-5.436-1.263c-3.141-1.244-6.348-2.305-9.382-3.833
	c-2.364-1.191-3.737-2.984-4.112-5.656c-0.866-6.155,1.146-11.388,4.899-16.069c0.714-0.89,1.849-1.132,2.865-0.936
	c4.674,0.899,9.399,1.575,13.94,3.09c0.229,0.077,0.506,0.16,0.479,0.745c-2.096,1.53-4.697,2.563-6.821,4.336
	c-1.205,1.006-2.475,1.933-3.669,2.95c-0.469,0.399-0.847,0.969-0.344,1.609c0.493,0.627,1.086,0.347,1.646,0.072
	c0.234-0.115,0.481-0.225,0.677-0.393c2.839-2.423,6.353-3.559,9.605-5.194C170.525,202.674,171.612,202.571,170.929,203.84z"/>
<path fill-rule="evenodd" clip-rule="evenodd" fill="#FFDD11" d="M256.048,264.801c-3.27,3.185-6.13,6.465-9.49,9.248
	c-3.427,2.839-6.32,6.224-9.201,9.612c-0.454,0.532-0.935,1.048-1.328,1.624c-0.581,0.852-1.344,1.014-2.277,0.821
	c-2.633-0.545-5.262-1.116-7.907-1.592c-1.427-0.256-2.471-0.797-2.591-2.427c-0.006-0.085-0.057-0.166-0.085-0.249
	c-1.426-4.174-1.5-4.264,1.875-7.102c3.238-2.723,6.743-5.119,9.957-7.867c3.023-2.584,6.418-4.401,9.994-6.003
	c2.076-0.93,3.916-1.147,5.824,0.383C252.358,262.483,254.43,262.939,256.048,264.801z"/>
<path fill-rule="evenodd" clip-rule="evenodd" fill="#FFDD11" d="M202.25,251.26c1.354,1.565,1.466,3.51,2.234,5.166
	c0.808,1.74,1.379,3.596,2.021,5.414c0.764,2.164,0.578,2.979-1.134,4.363c-3.792,3.063-7.619,6.081-11.424,9.127
	c-0.51,0.409-0.973,0.489-1.656,0.346c-1.13-0.234-2.127-0.752-3.136-1.222c-3.445-1.604-7.208-2.483-10.383-4.712
	c-0.64-0.449-1.375-0.747-1.7-1.53C179.313,264.398,197.496,252.104,202.25,251.26z"/>
<path fill-rule="evenodd" clip-rule="evenodd" fill="#FFDD11" d="M179.544,90.591c-0.631-0.892-0.458-1.69-0.346-2.457
	c0.341-2.354,0.697-4.708,0.56-7.094c-0.081-1.394,0.422-2.223,1.693-2.907c4.256-2.292,8.923-3.313,13.445-4.805
	c3.294-1.087,6.704-0.595,10.022-1.183c0.869-0.154,1.66,0.54,2.206,1.233c1.784,2.269,3.585,4.528,5.236,6.894
	c1.166,1.67,0.614,2.886-1.32,3.114c-8.888,1.047-17.552,3.195-26.195,5.44C183.028,89.298,181.273,90.009,179.544,90.591z"/>
<path fill-rule="evenodd" clip-rule="evenodd" fill="#FFDD11" d="M159.985,124.465c0.981-1.043,1.907-0.881,2.825-0.668
	c1.458,2.22,27.639,73.613,30.185,82.286c-2.311,0.317-3.613-0.322-4.444-2.328c-1.041-2.512-2.063-5.036-2.987-7.594
	c-4.956-13.705-9.872-27.424-14.816-41.133c-3.246-8.999-6.527-17.985-9.766-26.987C160.57,126.897,160.322,125.691,159.985,124.465
	z"/>
<path fill-rule="evenodd" clip-rule="evenodd" fill="#FFDD11" d="M195.153,251.514c-5.427,2.965-9.724,7.449-15.092,10.323
	c-1.666,0.892-2.795,2.548-4.585,3.341c-1.982,0.878-1.951,0.99-3.543-0.516c-1.204-1.138-2.407-2.281-3.55-3.481
	c-3.311-3.471-4.459-7.788-4.542-12.461c-0.029-1.608,0.466-1.992,2.12-1.822c1.201,0.122,2.417,0.334,3.563,0.707
	c3.986,1.296,8.054,1.868,12.235,2.087C186.233,249.925,190.693,250.526,195.153,251.514z"/>
<path fill-rule="evenodd" clip-rule="evenodd" fill="#FFDD11" d="M220.933,274.646c-0.529-1.1-1.191-2.155-1.558-3.308
	c-1.01-3.167-2.552-6.156-3.163-9.514c0.987-1.175,2.212-2.062,3.507-2.699c2.824-1.391,5.393-3.163,7.921-5.007
	c2.511-1.832,4.99-1.805,7.743-0.452c2.797,1.374,5.621,2.667,8.619,4.488c-8.232,4.807-15.362,10.602-22.452,16.449
	C221.348,274.675,221.142,274.692,220.933,274.646z"/>
<path fill-rule="evenodd" clip-rule="evenodd" fill="#FFDD11" d="M246.544,290.663c-1.295-1.148-2.56-1.883-3.888-2.527
	c-1.306-0.634-2.907-0.539-4.063-1.683c0.422-1.529,1.603-2.529,2.524-3.637c2.561-3.077,5.328-5.975,8.632-8.26
	c1.46-1.011,2.588-2.352,3.705-3.681c1.076-1.28,2.427-2.224,3.599-3.381c1.353-1.335,1.985-1.271,3.558,0.023
	c1.189,0.978,2.843,1.409,3.609,3.194c-1.212,2.771-4.246,3.882-6.053,6.191c-1.827,2.338-3.756,4.6-5.73,6.813
	C250.476,285.916,249.036,288.577,246.544,290.663z"/>
<path fill-rule="evenodd" clip-rule="evenodd" fill="#FFDD11" d="M180.86,164.256c-3.239-7.752-5.512-15.579-8.385-23.175
	c-0.211-0.56-0.365-1.193,0.099-1.801c0.595-0.478,1.271-0.313,1.947-0.122c2.78,0.786,5.41,1.928,7.834,3.52
	c3.627,2.381,5.386,7.757,4.016,12.455C185.375,158.547,183.47,161.421,180.86,164.256z"/>
<path fill-rule="evenodd" clip-rule="evenodd" fill="#FFDD11" d="M276.399,387.839c-4.171,1.029-8.083,0.183-11.969,0.411
	c-0.915,0.054-1.881-0.756-2.836-1.174c0.412-0.636,1.327-0.622,1.484-1.549c-0.648-1.906-2.412-1.058-3.79-1.388
	c-0.025-1.234,0.938-1.361,1.72-1.508c1.017-0.189,2.074-0.152,3.104-0.299c1.085-0.153,1.96-0.607,2.051-1.984
	c-1.749-1.34-3.811-0.009-5.689-0.898c-0.425-1.437,0.043-2.792,0.839-4.455c6.004,0.442,11.779,2.06,17.563,3.962
	C279.812,382.499,277.551,384.991,276.399,387.839z"/>
<path fill-rule="evenodd" clip-rule="evenodd" fill="#FFDD11" d="M282.626,369.444c2.584-0.077,3.287,0.325,4.096,2.46
	c0.781,2.06,1.297,4.205,1.463,6.404c0.32,4.28,0.972,8.578-0.403,13.065c-2.987,0.409-5.881-0.382-8.606-0.847
	c-0.548-0.711-0.527-1.314-0.276-1.736c1.836-3.119,1.718-6.79,2.821-10.114c0.476-1.433,0.183-2.971,0.123-4.468
	C281.781,372.635,281.629,371.034,282.626,369.444z"/>
<path fill-rule="evenodd" clip-rule="evenodd" fill="#FFDD11" d="M163.247,143.689c1.644,2.501,6.756,16.627,6.884,18.854
	c-4.359,0.689-8.192-1.39-12.578-2.344C158.288,154.315,159.13,148.63,163.247,143.689z"/>
<path fill-rule="evenodd" clip-rule="evenodd" fill="#FFDD11" d="M210.679,246.376c2.826-0.562,5.192-1.05,7.668,0.085
	c2.577,1.182,5.271,2.103,7.924,3.109c0.771,0.292,1.33,0.761,1.753,1.728c-2.332,0.962-3.986,2.966-6.197,4.097
	c-2.223,1.139-4.443,2.274-6.754,3.794C213.476,254.951,211.776,250.958,210.679,246.376z"/>
<path fill-rule="evenodd" clip-rule="evenodd" fill="#FFDD11" d="M196.508,276.559c3.358-3.935,7.514-6.257,11.413-9.404
	c2.489,4.271,3.573,8.797,5.121,13.127c0.161,0.45-0.017,0.857-0.568,1.329C207.372,280.21,201.997,279.263,196.508,276.559z"/>
<path fill-rule="evenodd" clip-rule="evenodd" fill="#FFDD11" d="M290.664,377.394c3.195,2.244,6.632,3.063,9.961,4.064
	c2.069,0.623,4.049,1.517,6.19,1.96c1.53,0.317,2.356,1.631,2.698,3.29c-6.021,1.172-12.008,0.4-17.978,0.416
	C290.337,383.953,290.853,380.749,290.664,377.394z"/>
<path fill-rule="evenodd" clip-rule="evenodd" fill="#FFDD11" d="M255.833,383.784c-0.354,0.823-1.226,0.905-1.898,1.036
	c-3.821,0.752-7.582,1.84-11.476,2.2c-0.432,0.041-0.897,0.02-1.285,0.183c-2.605,1.095-4.046,1.146-2.857,4.602
	c0.469,1.363,0.703,2.889,0.308,4.393c-0.796,0.195-1.186-0.3-1.311-0.929c-0.292-1.465-0.919-2.824-1.104-4.334
	c-0.303-2.478-1.083-3.126-3.547-3.29c-0.859-0.058-1.726-0.008-2.505-0.008c-0.562-0.709,0.068-1.041,0.237-1.476
	c0.158-0.407,0.359-0.798,0.537-1.188c0.963-0.601,2.08-0.018,3.165-0.5c0.486-1.019,0.479-2.104-0.072-3.182
	c-0.402-0.784-0.216-1.422,0.538-1.74c0.983-0.418,1.337,0.261,1.661,1.097c1.379,3.552,2.501,4.222,6.267,3.879
	c4.135-0.377,8.272-0.749,12.408-1.122C255.241,383.375,255.598,383.345,255.833,383.784z"/>
<path fill-rule="evenodd" clip-rule="evenodd" fill="#FFDD11" d="M185.145,204.132c-3.094-0.484-5.88-1.08-8.37-2.614
	c-2.899-1.787-3.357-3.382-2.078-6.055c0.789-1.647,1.698-3.261,2.752-4.745c0.996-1.401,2.599-1.243,3.358,0.293
	c1.866,3.78,3.241,7.762,4.416,11.813C185.312,203.128,185.191,203.495,185.145,204.132z"/>
<path fill-rule="evenodd" clip-rule="evenodd" fill="#FFDD11" d="M182.565,168.67c3.125-1.219,4.503-3.745,6.151-6.044
	c2.172,4.297,1.843,15.311-0.733,20.647C185.6,178.517,184.089,173.723,182.565,168.67z"/>
<path fill-rule="evenodd" clip-rule="evenodd" fill="#FFDD11" d="M204.25,130.805c0.064,0.517,0.128,1.034,0.193,1.55
	c0,0-0.008,0.442-0.171,0.558l-0.61-0.082c-0.861-0.075-1.722-0.215-2.583-0.21c-1.749,0.008-3.423-0.241-5.106-0.789
	c-3.686-1.2-7.404-2.287-10.857-4.12c-0.977-0.519-1.396-1.176-0.947-2.307c0.395-0.992,0.964-1.447,1.996-0.951
	c5.041,2.423,10.401,3.765,15.84,4.845c0.68,0.135,1.369,0.261,1.924,0.736C204.169,130.259,204.17,130.595,204.25,130.805z"/>
<path fill-rule="evenodd" clip-rule="evenodd" fill="#FFDD11" d="M207.388,236.086c2.73,1.389,5.75,1.103,8.857,1.416
	c0.701,1.646,1.803,3.055,3.907,3.883c-2.156,1.121-4.16,1.414-6.124,1.829c-0.083,0.018-0.173,0.003-0.259,0.01
	c-4.561,0.379-4.751,0.248-5.982-4.296c-0.226-0.836-0.391-1.689-0.571-2.537C207.203,236.329,207.294,236.245,207.388,236.086z"/>
<path fill-rule="evenodd" clip-rule="evenodd" fill="#FFDD11" d="M205.133,126.69c-0.548,0.213-0.806,0.422-1.006,0.375
	c-4.119-0.959-8.411-1.137-12.343-2.964c-1.718-0.799-3.649-1.097-5.164-2.389c-0.778-0.663-1.134-1.304-0.364-2.331
	c1.809,0.01,3.608,0.672,5.032,1.648c3.343,2.293,7.291,2.736,10.902,4.172C203.135,125.58,204.219,125.619,205.133,126.69z"/>
<path fill-rule="evenodd" clip-rule="evenodd" fill="#FFDD11" d="M158.227,119.178c0.824-0.695,1.667-0.833,2.456-1.085
	c0.723,0.542,1.017,1.185,0.798,2.027C159.151,120.916,159.151,120.916,158.227,119.178z"/>
<path fill-rule="evenodd" clip-rule="evenodd" d="M217.289,96.112c0.451,1.266-1.08,2.995-0.918,4.849
	c0.085,0.974-1.042,1.441-1.898,1.377c-1.443-0.107-2.881-0.421-4.295-0.762c-0.878-0.212-1.501-0.789-1.61-1.817
	c-0.102-0.965,0.482-1.418,1.162-1.849C214.988,94.534,217.289,96.112,217.289,96.112z"/>
<path fill-rule="evenodd" clip-rule="evenodd" d="M213.6,161.489c-0.724-0.13-1.563-0.214-1.65-1.252
	c-0.066-0.781,0.996-1.624,2.032-1.665c0.772-0.03,1.38,0.247,1.528,1.089C215.649,160.46,214.638,161.423,213.6,161.489z"/>
<path fill-rule="evenodd" clip-rule="evenodd" d="M208.185,149.028c-0.616-0.007-1.281,0.016-1.429-0.791
	c-0.147-0.799,1.049-1.743,2.216-1.82c0.761-0.051,1.139,0.337,1.191,1.061C210.233,148.438,209.494,149.004,208.185,149.028z"/>
<path fill-rule="evenodd" clip-rule="evenodd" d="M206.573,139.023c0.706,0.148,1.501,0.461,1.4,1.427
	c-0.116,1.105-1.077,1.226-1.963,1.243c-0.801,0.016-1.305-0.404-1.363-1.235C204.596,139.714,205.54,138.993,206.573,139.023z"/>
<path fill-rule="evenodd" clip-rule="evenodd" d="M213.562,200.491c0.675-1.297,1.88-1.274,3.075-1.224
	c0.567,0.024,0.965,0.345,1.044,0.945c0.073,0.56-0.125,1.011-0.616,1.322C216.009,202.203,214.715,201.839,213.562,200.491z"/>
<path fill-rule="evenodd" clip-rule="evenodd" d="M216.175,173.554c0.356-1.878,1.381-2.667,2.573-1.977
	c0.461,0.267,0.799,0.679,0.78,1.241c-0.02,0.588-0.413,0.959-0.948,1.061C217.755,174.036,216.899,174.22,216.175,173.554z"/>
<path fill-rule="evenodd" clip-rule="evenodd" d="M220.855,179.417c-0.281,1-0.897,1.538-1.894,1.464
	c-0.941-0.069-1.417-0.739-1.287-1.603c0.145-0.956,0.962-1.112,1.801-1.054C220.244,178.277,220.794,178.576,220.855,179.417z"/>
<path fill-rule="evenodd" clip-rule="evenodd" d="M220.779,187.282c-0.022,0.874-0.683,0.99-1.27,1.072
	c-0.894,0.126-1.833,0.063-2.136-0.992c-0.213-0.746,0.381-1.1,1.038-1.216C219.42,185.969,220.711,186.62,220.779,187.282z"/>
<path fill-rule="evenodd" clip-rule="evenodd" d="M215.803,193.198c0.608-0.694,1.207-0.725,1.811-0.584
	c0.625,0.145,1.165,0.442,0.995,1.249c-0.157,0.743-0.71,0.966-1.369,0.881C216.404,194.635,215.752,194.278,215.803,193.198z"/>
<path fill-rule="evenodd" clip-rule="evenodd" fill="#FFDD11" d="M391.303,313.572c4.762-0.479,7.63-0.27,11.422-0.853
	c2.883-0.443,5.653,0.106,8.341,1.42c2.259,1.104,4.696,1.831,7.049,2.741c2.501,0.968,4.078,2.752,5.031,5.321
	c2.465,6.641,5.469,13.034,8.646,19.358c1.559,3.104,3.017,6.271,4.573,9.382c3.142,6.279,6.785,12.225,11.553,17.384
	c1.401,1.515,2.973,2.863,4.436,4.319c2.689,2.676,4.15,5.706,4.053,9.566c-0.098,3.817,0.872,7.51,1.604,11.222
	c0.202,1.022,0.461,2.033,0.754,3.304c-4.756,0.035-9.324,0.317-13.755-0.469c-0.613-0.991-0.344-1.9-0.391-2.76
	c-0.223-4.227-2.195-6.59-6.14-8.007c-2.545-0.914-4.496-2.736-4.866-5.691c-0.811-6.497-3.133-12.408-6.723-17.801
	c-1.654-2.485-2.743-5.263-4.308-7.793c-2.486-4.016-5.036-7.99-7.326-12.133c-0.898-1.622-2.667-2.583-4.208-3.473
	c-3.006-1.738-6.118-3.285-9.415-4.477c-3.056-1.103-6.062-0.722-8.97-0.082c-2.087,0.459-4.253,0.722-6.284,1.491
	c-0.96,0.364-9.612,3.223-12.477,4.575c-0.854,0.403-5.478,1.902-7.485,2.478c-5.702,1.635-11.545,2.419-17.398,3.087
	c-5.513,0.629-11.012,1.355-16.488,2.221c-2.448,0.386-4.85-0.023-7.268-0.058c-1.219-0.02-2.413-0.05-3.626,0.097
	c-2.751,0.332-5.32-0.564-7.903-1.314c-0.537-0.157-0.773-0.685-1.134-1.058c-0.837-0.872-2.165-3.773-2.401-4.81
	c-1.409-6.163-2.673-12.359-3.97-18.547c-0.694-3.306-0.276-6.685-0.599-10.017c-0.06-0.622,0-1.244-0.743-1.754
	c-2.15,2.354-0.266,5.773-1.93,8.291c-4.912-4.68-8.021-10.817-13.292-15.368c-0.049-3.234,0.238-3.729,3.443-4.984
	c2.189-0.857,4.273-1.964,6.369-2.992c4.526-2.22,9.364-3.04,14.184-4.098c2.163-0.475,4.398-0.757,6.464-1.668
	c0.394-0.173,0.837-0.351,1.249-0.334c4.312,0.169,8.281-1.87,12.508-2.042c5.821-0.238,11.492-1.837,17.283-1.981
	c4.49-0.112,8.921-0.942,13.422-0.798c2.509,0.081,2.622,0.111,3.279,2.694c0.81,3.172,0.898,6.444,1.361,9.663
	c0.387,2.692,0.445,5.431,0.671,8.147c0.163,1.96-0.495,3.768-0.678,5.697c-3.382,0.081-6.267-0.764-9.054-1.984
	c-2.311-1.011-4.566-2.146-6.852-3.218c-1.033-0.484-2.076-0.911-3.105-0.153c-0.318,0.876,0.187,1.288,0.734,1.552
	c5.398,2.586,10.61,5.506,16.74,6.31c5.294,0.694,10.555,0.405,15.83,0.409C384.866,313.589,389.749,313.644,391.303,313.572z"/>
<path fill-rule="evenodd" clip-rule="evenodd" fill="#FFDD11" d="M385.036,311.107c-2.253-0.346-4.509,0.027-6.766,0.017
	c-2.202-0.01-2.886-0.206-3.644-2.116c-1.779-4.488-3.505-8.991-3.163-13.995c0.117-1.729,0.271-2.16,1.966-2.476
	c3.573-0.667,7.169-1.206,10.685-2.173c1.005-0.275,4.31-1.142,5.302-1.348c3.762-0.782,7.258-2.388,10.903-3.534
	c2.146-0.675,4.263-1.43,6.328-2.391c2.206-1.026,4.68-1.241,7.112-1.42c5.046-0.37,10.055-0.041,14.992,1.012
	c4.244,0.905,7.564,3.394,10.317,6.733c0.758,0.92,3.372,4.3,4.085,5.404c2.902,4.492,5.769,9,9.617,12.76
	c0.615,0.601,0.993,1.444,1.543,2.124c2.268,2.808,4.276,5.896,6.995,8.238c2.707,2.332,4.788,5.215,7.301,7.706
	c1.486,1.475,1.669,3.865,1.862,5.943c0.231,2.484,0.117,4.987,2.541,6.547c0.866,2.858,3.136,4.573,5.167,6.46
	c1.074,1,1.438,2.357,2.351,3.822c-5.136,0.851-10.178,0.204-15.113,1.538c-1.047-2.295-0.729-5.347-3.819-6.217
	c-0.013-2.023-1.065-3.169-2.541-4.46c-1.892-1.656-4.06-2.813-6.015-4.314c-1.214-0.933-1.677-2.197-2.188-3.471
	c-0.977-2.432-1.821-4.946-3.273-7.121c-1.618-2.656-10.518-13.436-13.451-17.089c-1.043-1.3-2.752-1.731-3.788-3.125
	c-0.496-0.668-1.647-0.284-2.503-0.188c-3.819,0.426-7.625,0.406-11.366-0.555c-1.783-0.458-3.227-0.237-4.906,0.74
	c-2.617,1.521-6.124,2.985-8.723,3.871c-2.155,0.802-1.476,1.874-3.518,2.304C394.23,311.409,386.322,311.305,385.036,311.107z"/>
<path fill-rule="evenodd" clip-rule="evenodd" fill="#FFDD11" d="M153.85,462.571c1.415,1.693,2.514,3.583,3.348,5.629
	c0.702,1.724,1.717,3.242,2.867,4.688c2.87,3.606,6.46,6.486,10.033,10.295c-5.129-1.318-9.415,0.829-13.91,1.409
	c-0.942,0.12-1.86,0.443-3.089-0.127c-0.247-2.131-1.343-4.091-2.686-5.936c-0.781-1.072-1.646-2.044-2.751-2.776
	c-1.052-0.695-2.078-0.991-3.426-0.661c-3.731,0.913-5.287,0.073-7.169-3.374c-0.716-1.31-1.32-2.645-1.829-4.061
	c-0.633-1.762-2.015-3.044-3.359-4.308c-7.7-7.243-15.95-13.783-24.361-20.15c-3.814-2.889-7.951-5.355-11.496-8.576
	c-3.682-3.343-6.789-7.244-9.456-11.483c-0.743-1.183-0.938-2.357-0.532-3.762c0.758-2.621,1.68-5.148,2.779-7.658
	c1.47-3.354,2.483-6.917,3.697-10.387c0.925-2.65,1.941-5.27,2.771-7.947c1.686-5.441,2.061-11.021,1.457-16.68
	c-0.533-4.987-2.213-9.627-4.697-13.873c-1.368-2.337-2.438-4.78-3.625-7.187c-1.261-2.555-1.083-3.78,1.128-5.463
	c1.862-1.417,13.529-9.112,18.142-11.458c0.633-0.523,1.502-0.364,2.278-0.248c1.736,0.257,3.487,0.212,5.2-0.021
	c2.297-0.314,4.893-1.612,5.753-2.991c0.693-1.11,1.62-2.222,2.21-3.563c0.462-0.94,4.392-2.203,7.504-2.959
	c6.375-1.551,10.525-3.854,17.092-4.587c1.454-0.031,3.9,0.218,4.618,0.771c0.505,0.549,1.235,1.32,1.592,2.165
	c0.332,0.784,0.432,1.892,1.628,1.64c1.301-0.272,1.063-1.392,0.973-2.35c-0.04-0.426-0.269-0.843,0.176-1.6
	c1.976,0.34,4.12-0.313,6.322-0.112c1.143,2.282,0.007,4.064-1.071,5.682c-0.471,0.706-1.088,1.37-1.356,2.169
	c-1.612,4.798-4.474,8.85-7.338,12.912c-1.39,1.969-2.499,3.929-4.275,5.838c-0.282,0.527-0.171,1.527,0.707,1.797
	c0.573,0.177,7.585,1.14,9.624,1.14c-0.577,1.068-1.093,1.945-1.598,2.888c-1.052,1.664-1.704,2.416-2.795,4.421
	c-1.808,3.326-3.03,6.892-4.611,10.3c-2.435,5.254-5.101,10.417-9.058,14.685c-1.947,2.101-4.526,3.591-6.158,6.021
	c-2.21,3.296-4.885,6.154-7.725,8.875c-0.94,0.9-1.996,1.583-3.133,2.253c-3.288,1.943-5.651,4.896-7.383,8.307
	c-2.086,4.108-2.023,8.18,0.337,12.24c1.593,2.74,3.589,5.145,5.484,7.649c2.995,3.955,6.401,7.544,9.604,11.31
	c4.535,5.329,9.495,10.254,15.79,13.53c2.465,1.284,4.127,3.451,5.752,5.638l-0.159,0.105L153.85,462.571z"/>
<path fill-rule="evenodd" clip-rule="evenodd" fill="#FFDD11" d="M321.984,174.895c-0.193,1.328,0.863,1.965,1.74,2.602
	c0.958-0.56,0.904-1.404,0.868-2.173c-0.241-5.342,1.949-10.111,3.405-15.052c0.121-0.417,0.444-0.811,0.452-1.22
	c0.064-2.846,2.206-3.66,4.257-4.573c0.469-0.209,0.951-0.388,1.528-0.622c1.678,2.277,3.159,4.678,4.273,7.217
	c1.208,2.748,2.906,5.207,4.14,7.894c2.233,4.857,5.41,9.133,7.849,13.85c0.727,1.403,0.654,3.054,1.582,4.425
	c1.662,2.457,3.096,5.073,4.724,7.556c1.499,2.284,2.722,4.717,3.897,7.167c0.826,1.723,2.148,3.217,2.488,5.351
	c-1.134,1.058-2.492,2.063-2.641,3.928c-2.809-1.682-4.819-3.911-7.076-5.826c-1.649-1.4-3.259-2.624-5.689-2.432
	c0.512-2.228,3.129-3.194,2.66-5.659c-1.155-0.626-2.145-0.207-3.195,0.313c-3.059,1.518-6.25,2.556-9.721,2.38
	c-0.516-0.026-1.114,0.118-1.503-0.279c-1.703-1.746-4.081-2.819-5.314-4.984c-1.904-3.342-4.065-6.578-4.948-10.438
	c-0.235-1.027-0.658-2.019-0.633-3.091c0.036-1.607-0.658-2.481-2.299-2.522c-0.497,0.21-0.465,0.696-0.446,1.102
	c0.249,5.391,1.221,10.548,3.698,15.452c2.102,4.16,5.015,7.515,8.303,10.663c3.649,3.493,6.494,7.526,7.794,12.549
	c0.456,1.769,1.11,3.311,2.573,4.701c1.496,1.421,2.467,3.534,2.706,5.771c-6.659,2.36-74.505,2.71-82.285,0.411
	c-0.595-7.709,0.354-15.194,3.463-22.527c1.076,0.893,1.042,1.91,1.201,2.803c0.713,3.975,1.467,7.929,0.308,11.996
	c-0.499,1.752-0.471,3.657-1.118,5.406c-0.383,1.036,0.114,1.668,0.997,2.152c1.966-0.382,2.324-2.095,2.465-3.59
	c0.407-4.36,1.223-8.72,0.518-13.131c-0.085-0.52-0.017-1.071-0.146-1.574c-1.371-5.319-0.879-10.68-0.217-16.009
	c0.332-2.676,1.052-5.318,2.871-7.722c0.834,1.083,0.738,2.284,0.87,3.314c0.664,5.172,1.987,10.176,3.684,15.07
	c1.025,2.957,0.766,5.918,0.526,8.884c-0.306,3.8-1.472,7.408-2.935,10.903c-0.416,0.996-0.912,1.914-0.154,2.986
	c1.318,0.394,1.993-0.423,2.38-1.446c1.237-3.28,2.467-6.553,3.01-10.068c0.387-2.496,0.486-5.017,0.803-8.162
	c1.053,2.412,1.284,4.385,1.403,6.301c0.215,3.479,0.839,7.006-0.463,10.433c-0.342,0.902-0.146,1.703,0.767,2.42
	c1.554-1.066,2.575-2.553,3.403-4.186c2.337-4.608,3.4-9.579,3.878-14.689c0.153-1.632,0.146-3.272,0.89-4.956
	c0.763,1.033,1.185,2.172,1.293,3.223c0.367,3.571,1.138,7.162,0.125,10.755c-0.18,0.646-0.172,1.243,0.486,1.604
	c0.79,0.433,1.365,0.02,1.747-0.627c1.938-3.272,3.441-6.73,3.915-10.55c0.21-1.696,0.618-3.106,1.864-4.453
	c2.46-2.662,3.398-6.105,3.726-9.673c0.427-4.663-0.104-9.279-0.684-13.913c-0.76-6.083-2.429-12.045-2.25-18.258
	c0.229-7.903,2.254-15.078,7.699-21.001c1.548-1.682,3.316-2.942,5.633-3.744c-2.559,5.052-5.626,9.568-7.271,14.833
	c-1.774,5.687-2.558,11.451-2.023,17.407c0.419,4.65,0.771,9.31,0.387,13.986c-0.036,0.43-0.121,0.951,0.063,1.29
	c0.773,1.411,0.253,2.75-0.146,4.073c-0.154,0.507-0.416,0.958-0.27,1.509c2.166,0.678,2.264,0.626,2.898-1.374
	c0.639-2.003,1.348-3.984,1.717-6.068c0.134-0.745,0.211-1.546,0.873-2.063c0.581,0.262,0.647,0.775,0.783,1.3
	c0.233,0.904,0.97,1.294,1.794,1.146c0.85-0.153,1.24-0.857,1.308-1.749c0.228-2.966,0.658-5.894,1.335-8.801
	c0.631-2.708,1.463-4.176,3.011-6.684c0.839-1.699,1.02-1.748,1.561-2.091c0.304,1.176,0.228,2.223-0.302,3.718
	C322.043,170.037,322.323,172.552,321.984,174.895z"/>
<path fill-rule="evenodd" clip-rule="evenodd" fill="#FFDD11" d="M59.01,332.668c-1.189-2.328,5.831,9.727,5.73,15.732
	c-0.02,1.176-0.354,2.278-0.696,3.345c-0.697,2.174-1.423,4.367-2.442,6.394c-1.828,3.641-2.961,7.506-3.724,11.456
	c-1.34,6.938,0.031,13.466,3.48,19.573c1.839,3.257,3.719,6.492,5.479,9.793c2.398,4.5,2.113,8.955-0.489,13.287
	c-0.53,0.883-1.351,1.642-1.069,2.839c0.814,0.775,1.442,0.323,1.98-0.327c1.285-1.556,2.417-3.171,2.989-5.194
	c1.29-4.554,0.655-8.686-1.545-12.905c-2.305-4.42-5.286-8.471-7.079-13.166c-0.913-2.394-1.483-4.91-1.484-7.44
	c-0.001-3.785,0.558-7.495,1.776-11.152c1.359-4.08,3.453-7.846,4.634-11.997c0.54-1.897,0.934-3.725,0.669-5.7
	c-0.221-1.649-0.265-3.321-0.475-4.974c-0.515-4.052-2.932-7.247-4.844-10.644c-1.465-2.604-2.844-5.183-3.479-8.166
	c-0.979-4.595,0.343-8.514,3.233-11.923c3.062-3.613,7.366-5.297,11.558-7.425c0.516,1.516-0.15,2.051-1.166,2.369
	c-2.165,0.678-4.21,1.626-5.995,3.038c-2.824,2.231-4.699,4.967-4.585,8.844c0.078,2.666,0.699,5.176,1.28,7.754
	c0.669,2.968,3.274,8.037,3.809,9.058c2.99,4.232,4.707,8.989,5.232,14.127c0.414,4.052-0.753,7.826-2.676,11.374
	c-0.959,1.769-2.299,3.348-2.898,5.288c-2.028,6.584-2.476,13.108,0.853,19.477c1.298,2.481,2.307,5.114,3.799,7.496
	c0.816,1.304,0.929,2.842,1.249,4.289c1.674,7.592,0.815,14.684-4.203,20.904c-3.913,4.852-8.824,8.117-14.841,9.6
	c-1.182,0.29-5.474,1.087-6.831,0.681c1.332-0.678,2.614-1.128,2.954-1.297c1.732-1.227,2.869-2.867,4.237-4.3
	c2.325-2.437,3.481-5.33,3.305-8.74l-0.024-0.222c-0.303-1.731-0.182-3.507-0.676-5.23c-0.847-2.955-2.8-5.245-4.451-7.682
	c-0.849-1.254-2.024-2.389-3.038-3.569c-3.844-4.47-5.383-9.813-4.694-15.674c0.328-2.79,1.935-5.239,2.849-7.88
	c1.176-3.399,1.964-6.81,0.683-10.474c-1.667-4.771-4.2-8.994-6.86-13.239c-3.135-5.002-6.078-10.175-6.616-16.359
	c-0.405-4.645-0.675-9.291-0.396-13.925c0.343-5.688,1.911-11.063,5.081-15.876c3.175-4.822,7.015-8.659,12.903-9.899
	c1.758-0.371,3.49-0.275,5.16-0.103c3.167,0.326,6.291,0.921,9.233,2.451c1.987,1.033,4.363,0.867,6.582,0.599
	c1.543-0.185,3.053-0.659,4.573-1.023c1.583-0.379,2.75-1.308,3.811-2.578c4.738-5.673,10.256-10.464,16.33-14.619
	c1.357-0.928,2.622-2,3.891-3.054c2.357-1.956,5.056-3.333,7.875-5.042c0.371,1.32,0.199,2.417,0.002,3.493
	c-1.318,7.192-2.07,14.463-2.85,21.726c-0.404,3.758-0.712,7.539-0.686,11.331c0.023,3.424-0.847,6.817-0.274,10.269
	c0.166,0.998-0.476,1.922-1.058,2.641c-0.989,1.222-1.494,2.646-1.597,4.096c-0.112,1.576-0.953,2.387-2.102,3.071
	c-3.365,2.004-6.757,3.958-10.114,5.972c-2.236,1.345-4.425,2.766-6.645,4.136c-0.44,0.271-0.922,0.493-1.722,0.23
	c-1.292-3.92-3.312-7.709-4.098-11.979c-1.267-6.881-1.287-13.782-0.592-20.719c0.146-1.462,0.021-2.951,0.021-4.308
	c-0.961-0.562-1.565-0.164-2.074,0.322c-2.053,2.178-6.078,3.212-6.355,3.427c-0.844,0.658-2.484,1.533-6.412,2.742
	c-2.262,0.696-6.746,5.091-7.161,13.159c0.065,1.597,0.745,4.409,0.207,3.082S60.2,334.997,59.01,332.668z"/>
<path fill-rule="evenodd" clip-rule="evenodd" fill="#FFDD11" d="M54.819,324.896c-0.619,0.123-0.442-1.745-0.826-2.188
	c-1.916-4.669-0.802-9.22,1.022-14.169c-2.371,1.385-2.989,3.063-3.152,5.094c-0.443,5.518,0.498,10.826,2.207,16.029
	c0.273,0.831,0.649,1.633,0.664,2.535c-0.072,0.586-0.231,1.099-0.941,1.146c-3.113-3.591-5.726-7.521-6.339-12.351
	c-0.386-3.032-0.323-6.126,1.007-9.088c1.883-4.191,4.892-6.683,9.393-7.484c4.141-0.737,8.518-0.602,12.21-3.238
	c-4.448,1.234-9.066,0.86-13.566,1.601c-5.326,0.877-10.021,6.796-10.344,13.093c-0.064,1.233,0.014,2.471-0.062,3.704
	c-0.086,1.402-0.454,2.497-2.563,1.648c0.518,4.216,1.233,7.976,2.335,11.655c1.013,3.38,2.388,6.626,3.77,9.864
	c1.299,3.044,1.641,6.299,2.123,9.519c0.141,0.944,0.162,1.956-0.726,2.658c-0.841-0.14-1.147-0.844-1.337-1.483
	c-1.956-6.558-5.9-12.161-8.537-18.382c-4.762-11.233-3.165-21.717,4.125-31.292c2.106-2.766,5.26-4.275,8.453-5.538
	c0.389-0.153,0.855-0.199,1.046-0.686c-0.254-0.698-0.857-0.57-1.297-0.438c-3.893,1.171-7.542,2.782-9.941,6.347
	c-4.129,6.135-5.931,12.769-5.98,20.355c-0.051,7.946,3.343,14.349,6.868,20.751c4.323,7.85,6.078,16.108,5.268,24.924
	c-0.434,4.724-1.561,9.37-1.508,14.166c0.022,1.999,0.445,3.789,1.326,5.577c2.694,5.461,6.439,10.243,9.559,15.428
	c1.987,3.303,2.01,6.607,1.001,10.15c-0.849,2.983-2.35,5.634-4.218,8.759c1.981-0.82,2.55-2.197,3.336-3.366
	c0.757-1.125,1.241-2.59,3.11-2.247c0.838,0.15,1.132-0.67,1.374-1.34c0.276-0.77,0.254-1.568,0.073-2.351
	c-2.14-9.256-3.789-18.681-8.933-26.912c-4.425-7.081-3.659-14.302-0.279-21.43c2.608-5.502,3.466-11.456,4.636-17.303
	c0.741-3.702-0.233-7.537-0.875-11.268c-0.194-1.127-0.598-2.215-0.37-3.389c0.157-0.605-2.152-4.142-1.53-4.347"/>
<path fill-rule="evenodd" clip-rule="evenodd" fill="#FFDD11" d="M186.718,473.81c-0.358-0.497-0.334-0.938-0.298-1.365
	c0.318-3.699-1.602-6.306-4.052-8.677c-1.584-1.534-3.584-1.89-5.56-1.614c-3.889,0.545-8.096-2.475-9.234-6.329
	c-1.446-4.904-4.245-8.866-8.137-12.22c-1.794-1.545-3.236-3.603-5.055-5.225c-5.599-4.993-11.167-9.897-17.077-14.814
	c-2.605-1.874-7.037-5.726-9.461-9.267c-0.639-0.933-1.626-1.547-2.029-2.71c-0.624-1.801-0.613-2.176,0.732-3.458
	c0.822-0.784,1.691-1.497,2.704-2.074c0.177,0.243,0.452,0.446,0.462,0.661c0.154,3.151,1.941,5.336,4.081,7.365
	c0.728,0.691,1.538,1.17,2.433,1.474c1.01,0.343,1.778-0.379,1.509-1.411c-0.173-0.663-0.534-1.301-0.925-1.872
	c-0.444-0.644-1.056-1.17-1.524-1.801c-1.801-2.426-1.749-5.23-0.02-7.669c1.313-1.851,2.268-4.011,3.674-5.728
	c2.277-2.781,3.789-6.077,6.032-8.8c3.729-4.528,7.653-8.901,10.361-14.155c1.413-2.742,3.304-5.17,4.651-7.919
	c0.826-1.685,2.021-2.178,3.726-2.279c4.486-0.265,8.835,0.573,13.133,1.654c2.338,0.589,4.786,0.933,6.917,2.226
	c0.075,0.045,4.931,2.197,7.334,3.091c1.271,0.473,1.473,1.357,1.326,2.501c-0.347,2.71-1.63,4.899-4.026,6.125
	c-3.672,1.881-6.655,4.73-10.045,6.975c-3.18,2.107-6.141,4.509-9.326,6.597c-3.006,1.969-5.745,4.347-7.879,7.221
	c-2.55,3.436-3.53,7.551-4.034,11.824c-0.612,5.198,2.115,8.843,5.092,12.473c4.779,5.827,10.518,10.722,15.434,16.421
	c2.107,2.441,4.514,4.623,6.836,6.866c1.277,1.234,2.223,2.69,3.167,4.175c2.17,3.41,4.536,6.624,8.017,8.854
	c2.977,1.906,5.387,4.407,6.856,7.994C197.46,470.947,191.797,471.201,186.718,473.81z"/>
<path fill-rule="evenodd" clip-rule="evenodd" fill="#FFDD11" d="M278.958,283.301c-1.741-1.799-2.839-4.124-3.96-6.372
	c-2.32-4.652-5.307-8.884-7.905-13.359c-0.713-1.23-1.019-2.606-1.771-3.802c-0.401-0.642-0.188-1.393,0.37-1.931
	c0.881-0.85,1.686-1.853,2.713-2.458c3.986-2.345,7.746-4.952,10.68-8.621c0.797-0.997,1.824-0.866,2.864-0.728
	c4.889,0.648,9.762,1.498,14.67,1.92c6.816,0.585,13.652,0.897,20.501,0.241c3.273-0.314,6.575-0.101,9.854-0.673
	c6.405-1.117,12.789-2.394,19.285-2.939c1.924-0.161,3.777,0.65,5.588,0.027c2.273,2.835,3.159,6.085,3.97,9.311
	c0.468,1.856,1.295,3.416,2.387,4.914c1.488,2.047,3.169,3.964,4.21,6.325c0.356,0.81,0.753,1.589,0.575,2.476
	c-0.408,0.586-0.953,0.828-1.584,0.869c-6.657,0.434-13.301,1.034-19.92,1.856c-5.854,0.727-11.704,1.484-17.548,2.279
	c-4.038,0.548-8.089,1.047-12.089,1.812c-6.122,1.169-12.26,2.212-18.298,3.901c-4.785,1.338-9.413,2.989-13.96,4.943
	C279.444,283.355,279.249,283.301,278.958,283.301z"/>
<path fill-rule="evenodd" clip-rule="evenodd" fill="#FFDD11" d="M136.985,312.708c-4.301,1.368-8.59,2.78-12.844,4.289
	c-1.398,0.496-2.846,0.713-4.193,1.191c-1.041-0.633-0.735-1.627-0.65-2.429c0.32-3.053,0.796-6.087,1.129-9.139
	c0.178-1.636,0.102-3.288,0.233-4.941c0.417-5.262,1.403-10.438,2.021-15.665c0.526-4.451,1.662-8.781,2.299-13.21
	c0.295-2.052,1.431-3.937,1.674-6.067c0.103-0.901,0.958-1.062,1.754-1.298c3.114-0.926,6.333-0.998,9.519-1.222
	c4.053-0.284,8.115-0.762,12.188-0.325c0.976,0.105,1.815-0.671,2.809-0.366c0.875,0.71,0.889,1.881,1.444,2.766
	c1.259,2.005,2.814,3.635,4.625,5.215c3.325,2.903,6.857,5.644,10.84,7.106c4.886,1.794,4.212,5.32,3.975,8.918
	c-0.267,4.051-1.485,7.941-2.487,11.845c-0.521,2.032-0.444,4.212-1.353,6.086c-1.69,0.908-3.489,0.633-5.176,0.969
	c-3.741,0.743-7.504,1.38-11.272,1.969c-2.058,0.322-2.621-0.157-3.174-2.125c-0.931-3.309-1.521-6.64-1.135-10.112
	c0.181-1.624,0.899-3.008,1.488-4.468c0.274-0.678,0.976-1.431,0.179-2.166c-0.857-0.792-1.807-0.483-2.592,0.127
	c-2.743,2.133-4.581,4.703-4.219,8.501c0.175,1.84,0.394,3.667,0.638,5.497c0.111,0.838,0.605,1.416,1,2.097
	c0.956,1.647,1.657,2.233,1.613,4.021C145.639,310.234,138.456,312.24,136.985,312.708z"/>
<path fill-rule="evenodd" clip-rule="evenodd" fill="#FFDD11" d="M380.671,190.736c-2.899,2.056-5.97,3.868-8.992,5.791
	c-1.344-0.658-2.007-1.86-2.55-2.997c-2.729-5.704-6.496-10.742-9.789-16.084c-2.533-4.105-5.295-8.084-7.346-12.465
	c-0.675-1.441-1.908-2.352-2.601-3.796c-0.639-1.334-1.297-2.61-1.599-4.065c0.896-1.264,2.136-1.659,3.483-2.751l-0.031,0.014
	c3.609-2.165,7.774-3.15,11.301-5.489c0.465-2.01,0.371-4.046-0.018-6.026c-0.465-2.357-0.393-4.675,0.076-7.113
	c1.353,2.303,3.563,4.105,3.781,6.945c-0.597,0.587-0.959,0.164-1.333,0.058c-0.356-0.101-0.673-0.098-1.036,0.166
	c-0.579,0.863-0.441,1.837,0.062,2.68c1.387,2.329,2.329,3.882,3.622,7.25c1.237,3.733,3.863,7.962,5.458,12.118
	c1.125,2.926,2.73,5.676,4.255,8.429c1.698,3.068,2.702,6.483,4.683,9.404c0.351,0.515,3.917,3.463,3.577,4.841
	C384.741,188.986,381.692,190.013,380.671,190.736z"/>
<path fill-rule="evenodd" clip-rule="evenodd" fill="#FFDD11" d="M189.544,355.448c8.215,0.063,16.405-0.629,24.449-1.019
	c3.049,3.959,3.048,8.718,4.389,13.016c0.227,0.726,0.268,1.519,0.509,2.281c0.421,1.327-0.055,2.006-1.48,2.087
	c-1.467,0.087-2.998,0.198-4.41-0.118c-5.311-1.191-10.76-1.808-15.833-4.03c-2.616-1.146-5.502-1.478-8.188-2.524
	c-5.23-2.04-10.569-3.796-15.609-6.323c-1.107-0.556-2.156-1.14-2.706-2.339c1.354-1.077,2.951-0.752,4.479-0.778
	C179.944,355.616,184.753,356.075,189.544,355.448z"/>
<path fill-rule="evenodd" clip-rule="evenodd" fill="#FFDD11" d="M37.445,422.978c0.646-0.331,1.251-0.188,1.841-0.066
	c4.276,0.872,8.085-1.724,9.181-5.967c1.474-5.718-0.318-10.429-3.6-15.007c-2.43-3.386-4.654-7.048-5.98-11.019
	c-1.373-4.11-1.103-8.457-0.532-12.791c0.365-2.772,0.938-5.525,0.955-8.365c0.024-4.155-1.821-7.63-3.484-11.19
	c-0.591-1.267-1.418-2.417-2.061-3.662c-2.305-4.464-3.733-9.289-5.18-14.061c-1.061-3.498-1.028-7.279-1.295-10.956
	c-0.375-5.148,1.089-12.152,3.579-16.762c0.58,0.001,0.415,0.476,0.364,0.729c-0.905,4.447-0.36,8.944-0.501,13.417
	c-0.144,4.544,0.597,8.96,1.646,13.32c0.509,2.113,1.508,4.108,2.668,5.972c2.034,3.27,4.047,6.555,6.138,9.786
	c1.39,2.147,2.432,4.491,3.345,6.835c1.422,3.651,0.485,7.256-1.136,10.677c-3.534,7.457-2.925,14.82,0.57,22.069
	c0.997,2.065,2.583,3.737,4.204,5.338c2.134,2.106,3.716,4.584,5.024,7.29c2.029,4.194,0.843,7.891-1.603,11.38
	c-1.055,1.506-2.283,2.897-3.922,3.803c-0.99,0.549-2.001,1.107-3.185,1.027c-2.235-0.15-4.449-0.477-6.625-1.025
	C37.61,423.688,37.41,423.488,37.445,422.978z"/>
<path fill-rule="evenodd" clip-rule="evenodd" fill="#FFDD11" d="M283.446,358.374c-0.918-2.947-0.962-5.961-1.521-8.88
	c-0.378-1.983-0.593-4.002-0.985-5.984c-0.273-1.381,0.081-2.442,1.195-3.221c1.427-0.995,2.826-2.057,4.346-2.882
	c4.023-2.178,7.509-5.066,10.677-8.328c1.378-1.42,3.059-2.211,4.632-3.407c1.083,0.972,0.858,2.154,0.855,3.238
	c-0.015,4.051,0.474,8.04,1.181,12.021c0.385,2.163,0.618,4.341,1.385,6.422c0.303,0.824,0.019,1.546-0.833,1.971
	c-1.089,0.545-2.154,1.14-3.239,1.693c-5.033,2.562-10.042,5.185-15.4,7.012C285.093,358.247,284.45,358.581,283.446,358.374z"/>
<path fill-rule="evenodd" clip-rule="evenodd" fill="#FFDD11" d="M286.27,164.311c0.344,1.176-0.318,2.217-0.393,3.329
	c-0.482,7.183-0.403,14.31,1.492,21.334c0.937,3.468,1.832,6.954,2.435,10.51c0.737,4.333,0.629,12.93-1.498,16.987
	c-0.871-2.584-1.068-5.399-1.678-8.129c-0.152-0.681-0.273-1.366-0.651-1.99c-0.656-1.084-1.331-1.963-2.624-0.872
	C275.421,190.043,279.3,171.042,286.27,164.311z"/>
<path fill-rule="evenodd" clip-rule="evenodd" fill="#FFDD11" d="M306.519,143.017c-2.951,3.993-4.06,8.702-4.711,13.33
	c-0.792,5.633-0.716,11.384,0.478,17.059c1.32,6.287,2.396,12.618,1.962,19.107c-0.173,2.567-0.446,5.092-1.565,7.445
	c-0.221,0.467-0.365,1-0.974,1.15c-0.714-0.458-0.569-1.26-0.612-1.905c-0.223-3.264-0.993-6.432-1.536-9.64
	c-0.342-2.005-1.347-3.778-1.917-5.717c-1.486-5.032-2.121-10.138-2.175-15.331c-0.038-3.611,0.799-7.163,1.132-10.746
	c0.313-3.344,1.87-6.161,3.023-9.162c0.063-0.163,0.091-0.362,0.199-0.482C301.746,146.039,303.971,144.36,306.519,143.017z"/>
<path fill-rule="evenodd" clip-rule="evenodd" fill="#FFDD11" d="M180.948,499.707c-3.712,0.575-7.097,0.278-10.344-0.519
	c-4.699-1.157-9.443-2.18-14.033-3.78c-0.907-0.314-1.715-0.957-2.581-1.136c-2.428-0.502-2.745-2.277-2.968-4.268
	c-0.119-1.06,0.255-1.731,1.227-1.997c0.915-0.252,1.858-0.525,2.794-0.543c3.13-0.058,6.222-0.488,9.287-1.029
	c2.602-0.461,5.171-0.205,7.757-0.138c0.705,0.02,1.392,0.088,1.727,0.888c0.902,2.154,1.983,3.352,3.164,5.424
	C178.203,494.757,180.413,497.57,180.948,499.707z"/>
<path fill-rule="evenodd" clip-rule="evenodd" fill="#FFDD11" d="M380.875,209.986c-0.401-1.042-0.747-2.113-1.221-3.12
	c-0.49-1.04-0.356-1.815,0.622-2.426c1.36-0.849,2.505-1.789,4.108-2.559c1.443-0.827,3.037-1.86,4.335-2.564
	c0.52-0.283,0.827-0.514,1.734-0.503c6.227,2.413,5.615,4.704,5.621,8.669c0.005,3.532-2.038,10.123-3.23,12.928
	c-1.191,2.805-1.943,3.811-3.503,5.055c-4.21,3.357-7.932,1.732-8.751,0.37c-0.383-2.989-0.698-5.987-1.07-8.977
	c-0.125-1,0.079-1.859,0.58-2.727C380.833,212.862,381.323,211.503,380.875,209.986z"/>
<path fill-rule="evenodd" clip-rule="evenodd" fill="#FFDD11" d="M464.499,353.101c3.392-1.095,6.653-2.094,10.205-1.763
	c2.144,0.203,4.315,0.093,6.477,0.108c1.132,0.009,2.078,0.424,2.573,1.465c1.89,3.98,4.373,7.688,5.443,12.05
	c0.04,0.164,0.004,0.345,0.004,0.523c-0.769,0.771-1.556,0.1-2.15-0.154c-6.093-2.583-12.515-4.05-18.837-5.855
	C465.017,358.56,464.391,357.579,464.499,353.101z"/>
<path fill-rule="evenodd" clip-rule="evenodd" fill="#FFDD11" d="M443.281,399.443c3.884-0.275,7.552,0.064,11.199,0.894
	c2.193,0.5,4.42,0.868,6.645,1.194c1.425,0.206,2.51,0.94,3.089,2.153c1.537,3.226,3.045,6.474,4.152,9.673
	c-0.315,1.053-0.93,1.038-1.543,0.868c-3.841-1.058-7.606-2.331-11.343-3.729c-3.011-1.124-5.987-2.307-8.93-3.604
	C443.776,405.669,442.481,403.831,443.281,399.443z"/>
<path fill-rule="evenodd" clip-rule="evenodd" fill="#FFDD11" d="M297.984,208.422c-0.506-1.798-0.905-3.203-1.291-4.613
	c-0.604-2.207-1.958-4.065-2.635-6.281c-1.361-4.464-2.921-8.821-2.322-13.635c0.244-1.951-0.363-2.237-2.495-1.514
	c-0.131-0.107-0.365-0.204-0.38-0.326c-0.409-3.646-1.157-7.234-0.537-10.983c0.397-2.411,0.537-4.869,1.136-7.263
	c0.468-1.865,1.204-3.638,1.629-5.527c0.324-1.435,1.462-2.556,2.838-3.619c0.369,0.762,0.208,1.493,0.143,2.212
	c-0.295,3.211-0.425,6.45-0.928,9.626c-0.452,2.848-0.02,5.615,0.308,8.375c0.514,4.343,1.314,8.624,2.998,12.738
	c1.295,3.165,1.547,6.675,1.889,10.071c0.272,2.689,0.694,5.396,0.501,8.131C298.782,206.607,298.829,207.404,297.984,208.422z"/>
<path fill-rule="evenodd" clip-rule="evenodd" fill="#FFDD11" d="M213.208,482.748c-0.599,0.42-1.211,0.316-1.81,0.243
	c-3.001-0.362-6.055-0.332-8.986-1.232c-0.411-0.125-0.856-0.213-1.281-0.198c-3.66,0.132-7.223-0.359-10.759-1.353
	c-2.384-0.668-2.425-0.518-3.411-3.24c0.47-0.818,1.324-1.09,2.115-1.406c4.93-1.967,9.983-3.385,15.299-3.833
	c1.253-0.107,1.769,0.595,2.329,1.286c2.088,2.57,4.105,5.203,6.121,7.831c0.254,0.332,0.389,0.779,0.492,1.195
	C213.371,482.265,213.245,482.539,213.208,482.748z"/>
<path fill-rule="evenodd" clip-rule="evenodd" fill="#FFDD11" d="M348.933,119.93c-0.722-0.133-3.764,9.014-3.819,14.376
	c-0.021,2.079,0.427,4.539,1.595,6.303c0.868,1.145,0.11,3.457-1.862,3.585c-1.339,0.008-1.766-0.305-2.178-1.419
	c-1.465-3.956-2.231-8.13-1.045-12.254c0.463-1.608,1.412-3.049,2.276-4.463c1.471-2.406,2.709-4.562,3.458-7.259
	c0.438-1.576,2.385-4.773,2.669-4.574c0.664,0.571,0.45,2.519,0.679,3.086c0.394,0.976,1.149,3.768,1.234,5.518
	c0.152,3.157-0.224,6.318-0.71,9.451c-0.259,1.662-1.123,2.97-2.214,4.174c-0.235,0.282-0.051-5.294,0.857-7.821
	c0.807-2.235,0.647-4.552,0.569-6.927C350.417,120.957,350.317,120.096,348.933,119.93z"/>
<path fill-rule="evenodd" clip-rule="evenodd" fill="#FFDD11" d="M245.29,370.521c-2.693,0.476-5.058,0.395-7.354,0.129
	c-1.982-4.793-2.724-9.761-4.245-14.491c-0.265-0.827-0.359-1.719-0.447-2.589c-0.091-0.902,0.333-1.504,1.229-1.743
	c1.08-0.286,2.153-0.599,3.36-0.935c2.386,2.729,2.686,6.376,4.023,9.543C243.175,363.563,244.42,366.741,245.29,370.521z"/>
<path fill-rule="evenodd" clip-rule="evenodd" fill="#FFDD11" d="M247.95,348.908c2.714-1.236,2.675-1.21,4.121,1.107
	c1.017,1.631,2.151,3.184,2.743,5.054c0.1,0.314,0.339,0.618,0.588,0.84c1.347,1.196,2.642,3.178,2.979,4.73
	c0.203,0.941,0.333,1.9,0.494,2.853c0.429,2.514,0.429,2.514-1.987,3.278c-2.347,0.741-2.764,0.625-3.58-1.546
	c-1.758-4.677-3.432-9.389-5.14-14.084C247.927,350.479,247.657,349.822,247.95,348.908z"/>
<path fill-rule="evenodd" clip-rule="evenodd" fill="#FFDD11" d="M336.989,136.055c-0.051,2.791,0.148,5.6-0.55,8.346
	c-0.822,3.229-2.356,5.988-5.145,7.898c-0.369,0.253-0.778,0.379-1.303-0.098c1.071-5.604,1.049-11.53,3.53-16.928
	c0.72-1.569,1.306-3.267,2.883-4.266c0.378-0.24,0.726-0.469,1.363-0.21c0.45,1.78-0.316,3.464-0.771,5.183l-0.181,0.02
	L336.989,136.055z"/>
<path fill-rule="evenodd" clip-rule="evenodd" fill="#FFDD11" d="M328.962,130.519c-2.437,2.154-3.265,5.378-5.402,7.681
	c-0.971,1.045-0.803,2.628-1.478,3.867c-0.448,0.826-0.663,1.822-0.815,2.769c-0.268,1.67-0.945,2.573-2.649,3.372
	c-1.917,0.898-3.98,2.205-4.849,4.546c-0.175,0.468-1.374,3.006-2.403,3.835c0.208-2.194,1.866-7.27,2.732-9.198
	c1.651-3.674,3.903-7.188,6.67-10.177c1.471-1.589,2.993-3.108,4.227-4.939C325.822,131.042,327.497,130.932,328.962,130.519z"/>
<path fill-rule="evenodd" clip-rule="evenodd" fill="#FFDD11" d="M320.196,150.709c1.316,6.279-0.87,15.561-5.205,22.717
	c-0.478-3.583-0.329-6.861,1.095-10.039c0.349-0.781,0.425-1.696-0.027-2.441c-0.906-0.451-2.463,3.227-3.807,4.556
	c-0.494-2.203,1.622-8.64,2.852-10.289C316.322,153.575,317.271,150.779,320.196,150.709z"/>
<path fill-rule="evenodd" clip-rule="evenodd" fill="#FFDD11" d="M361.881,212.765c3.017-1.028,4.649,1.451,6.693,2.858
	c0.359,0.247,0.302,0.796,0.283,1.241c-0.032,0.792-0.011,1.589-0.101,2.374c-0.288,2.524,0.682,4.625,2.179,6.521
	c-1.701,1.226-2.431,1.371-4.785,1.021C364.293,222.254,362.879,217.602,361.881,212.765z"/>
<path fill-rule="evenodd" clip-rule="evenodd" fill="#FFDD11" d="M327.818,144.125c1.105,4.63-1.524,12.262-5.145,14.782
	c0.499-3.325,0.356-6.454,0.414-9.581c0.009-0.497,0.189-1.127,0.521-1.458C324.88,146.597,325.895,145.004,327.818,144.125z"/>
<path fill-rule="evenodd" clip-rule="evenodd" fill="#FFDD11" d="M355.272,129.783c1.774,2.664,3.237,5.138,3.711,8.053
	c-0.777,0.901-1.586-0.215-2.146,0.22c-1.123,0.749-0.174,3.243-2.713,2.695c0.953-2.286,0.594-4.537-0.02-6.827
	C353.729,132.526,354.361,131.252,355.272,129.783z"/>
<path fill-rule="evenodd" clip-rule="evenodd" fill="#FFDD11" d="M276.2,245.899c-0.649,1.619-1.924,2.684-3.299,3.583
	c-1.353,0.883-2.809,1.601-4.315,2.446c-0.852-1.413,0.398-2.45,0.231-3.631c-0.157-1.104,0.038-2.261,0.08-3.395
	C271.171,243.718,274.705,244.201,276.2,245.899z"/>
<path fill-rule="evenodd" clip-rule="evenodd" fill="#FFDD11" d="M263.531,244.294c-0.183,2.537-2.007,3.732-3.909,4.799
	c-1.187,0.665-2.465,1.155-3.713,1.729c-0.475-0.283-0.938-0.876-0.501-1.24c1.637-1.37,1.662-3.347,2.145-5.162
	C259.517,242.985,261.514,243.155,263.531,244.294z"/>
<path fill-rule="evenodd" clip-rule="evenodd" fill="#FFDD11" d="M263.785,255.514c-1.35-1.538-1.991-2.743-2.284-4.189
	c1.461-1.624,2.898-3.22,4.618-5.129C266.183,249.635,264.696,252.257,263.785,255.514z"/>
<path fill-rule="evenodd" clip-rule="evenodd" fill="#FFDD11" d="M330.79,133.085c-0.601,4.007-2.843,6.98-5.874,9.456
	c1.063-3.716,2.596-7.136,5.901-9.431L330.79,133.085z"/>
<path fill-rule="evenodd" clip-rule="evenodd" fill="#FFDD11" d="M360.705,128.966c0.764-1.71,1.668-3.268,2.362-4.774
	c0.021,2.731,1.336,4.929,0.569,7.686C362.078,131.542,361.518,129.8,360.705,128.966z"/>
<polygon fill-rule="evenodd" clip-rule="evenodd" fill="#FFDD11" points="330.817,133.11 330.875,133.042 330.79,133.085 "/>
<path fill-rule="evenodd" clip-rule="evenodd" d="M97.209,399.691c0.214,2.199,0.395,4.334-0.79,6.264
	c-0.246,0.401-0.274,0.811-0.296,1.25c-0.152,3.1-1.033,6.038-1.928,8.977c-0.31,1.019-0.411,1.964,0.224,3.012
	c0.969,1.603,0.869,1.665-0.437,3.377c0.666,1.654,1.725,2.94,3.107,4.104c2.592,2.175,4.74,4.879,7.615,6.735
	c0.143,0.093,0.26,0.235,0.368,0.371c0.331,0.413,0.668,0.849,0.36,1.415c-0.306,0.566-0.831,0.605-1.348,0.403
	c-0.642-0.253-1.319-0.487-1.869-0.888c-3.566-2.596-7.278-5.034-10.009-8.621c-0.948-1.247-1.843-2.547-2.636-3.897
	c-1.138-1.94-1.573-3.73-0.41-6.126c1.207-2.481,2.423-4.914,3.872-7.267c1.184-1.924,1.915-4.114,2.596-6.29
	C95.958,401.464,96.359,400.46,97.209,399.691z"/>
<path fill-rule="evenodd" clip-rule="evenodd" d="M103.105,397.003c-2.518-1.125-3.079-3.505-3.954-5.371
	c-1.167-2.485-0.49-5.101,0.85-7.735c2.053,1.76,1.431,4.332,2.379,6.267C103.363,392.171,103.663,394.275,103.105,397.003z"/>
<path fill-rule="evenodd" clip-rule="evenodd" d="M328.276,202.247c0.136,0.52,0.212,1.034-0.14,1.483
	c-0.614,0.339-1.058,0.006-1.372-0.404c-2.433-3.172-5.273-6.094-6.821-9.851c-1.241-3.014-1.855-6.214-0.925-9.499
	c0.06-0.212,0.322-0.366,0.469-0.524c0.944,0.094,0.928,0.773,0.86,1.364c-0.607,5.248,1.857,9.319,4.927,13.121
	c1.102,1.365,1.93,2.905,2.991,4.287L328.276,202.247z"/>
<path fill-rule="evenodd" clip-rule="evenodd" d="M54.387,322.868c0.47,2.942,1.63,5.665,2.643,8.432
	c0.349,0.952,0.872,1.838,1.313,2.751c1.355,4.041,1.569,8.238,1.796,12.462c0.151,2.818-1.036,5.313-1.379,8.003
	c-0.719,5.634-3.301,10.695-5.064,16.01c-0.58,1.747-1.046,3.548-1.379,5.362c-0.537,2.916,0.715,5.534,1.762,8.1
	c1.323,3.239,3.472,6.144,4.662,9.388c1.428,3.895,3.222,7.699,3.686,11.983c0.324,2.997,1.414,5.918,2.263,8.841
	c0.566,1.95-0.284,3.494-1.307,4.884c-0.856,1.161-1.404-0.134-1.995-0.629c-1.894,2.229-2.525,5.738-6.19,6.303
	c-0.659-1.363,0.12-2.251,0.776-3.147c1.784-2.438,2.915-5.187,3.779-8.064c1.282-4.268-0.521-7.76-2.844-11.043
	c-2.675-3.776-5.097-7.705-7.438-11.701c-2.213-3.78-2.343-7.846-1.943-11.99c0.269-2.794,1.002-5.573,1.228-8.33
	c0.417-5.102,0.534-10.188-0.907-15.336c-1.466-5.236-4.172-9.758-6.393-14.568c-1.319-2.856-2.596-5.736-3.825-8.634
	c-0.555-1.308-0.59-2.726-0.605-4.15c-0.043-4.031-0.555-8.035,0.373-12.083c0.635-2.771,1.372-5.495,2.723-7.924
	c0.919-1.652,1.738-3.378,2.836-4.974c1.863-2.708,4.447-4.103,7.244-5.338c0.795-0.352,1.623-0.628,2.418-0.979
	c1.119-0.496,2.208-0.293,3.296,0.08c0.352,0.12,0.59,0.38,0.637,0.758c0.063,0.494-0.167,0.849-0.619,1.022
	c-0.404,0.155-0.825,0.266-1.236,0.401c-4.672,1.541-8.437,4.109-11.084,8.544c-3.565,5.972-4.66,12.287-4.191,19.144
	c0.32,4.678,2.463,8.564,4.461,12.527c1.525,3.027,3.093,6.023,4.56,9.082c0.942,1.965,1.172,4.178,2.401,5.95
	c0.244-3.688-0.845-8.623-3.206-13.959c-2.325-5.252-3.673-10.801-4.643-16.443c-0.186-1.081-0.477-2.259,0.025-3.287
	c1.077-0.826,1.517,0.46,2.445,0.658c0-1.585-0.027-3.082,0.004-4.578c0.143-6.833,3.909-12.402,10.271-14.254
	c2.262-0.658,4.753-0.68,7.139-0.673c2.732,0.008,5.262-1.146,7.968-1.131c0.504,0.002,1.029-0.219,1.677,0.268
	c-1.273,1.541-3.101,2.077-4.77,2.8c-1.679,0.727-3.525,1-5.32,1.115c-1.745,0.112-3.47,0.425-5.128,0.792
	c-3.101,0.686-5.844,2.214-7.38,5.29c-2.953,5.913-2.79,11.676,0.893,17.229c0.624,0.941,1.385,1.714,1.378,3.024
	c-0.005,1.103,1.43,1.479,1.721,2.542c2.132,2.021,2.035,4.877,2.705,7.442c0.443,2.737,0.014,5.404-0.725,8.028
	c-0.611,2.172-1.091,4.348-0.818,6.805c0.291-3.325,1.923-6.228,1.642-9.47c-0.005-0.26,0.002-0.519,0.008-0.777
	c-0.049-0.918,0.234-1.81,0.176-2.728c-0.009-0.385-0.084-0.762-0.208-1.128c-0.045-0.377-0.021-0.763-0.138-1.129
	c-0.258-2.779-1.406-5.306-2.172-7.942c-0.567-1.898-1.815-3.598-1.616-5.724c0.051-0.554-0.292-0.995-0.511-1.473
	c-2.048-4.462-1.174-9.116-0.791-13.719c0.135-1.625,1.551-2.628,2.416-3.887c0.318-0.463,0.88-0.534,1.397-0.199
	c0.482,0.313,0.753,0.783,0.595,1.341c-0.165,0.585-0.455,1.135-0.711,1.69C53.319,314.538,53.29,318.666,54.387,322.868z"/>
<path fill-rule="evenodd" clip-rule="evenodd" d="M367.979,168.903c-1.527,0.808-3.106,1.487-4.938,1.12
	c-2.732-0.546-5.136-1.334-6.082-4.521c-0.514-1.733-1.658-3.269-2.47-4.919c-0.263-0.538-0.503-1.174,0.081-1.699
	c0.544-0.49,1.159-0.383,1.682-0.015c1.291,0.91,3.31,0.924,3.503,3.054c1.851,0.358,3.358-0.07,4.845-0.945
	c1.241-0.73,2.534-0.589,3.22,0.6c1.255,2.167,3.013,4.123,3.262,6.796c0.031,0.348,0.125,0.699,0.095,1.041
	c-0.049,0.556-0.326,1.035-0.853,1.225c-0.6,0.216-0.99-0.182-1.264-0.665C368.849,169.596,368.755,169.135,367.979,168.903z"/>
<path fill-rule="evenodd" clip-rule="evenodd" d="M384.548,202.479c2.308-1.756,4.416-0.821,6.431,0.564
	c1.375,0.947,1.53,2.289,0.185,3.204c-1.465,0.995-1.618,2.388-1.261,3.676c0.437,1.59-0.141,3.085,0.089,4.616
	c0.093,0.623-0.123,1.263-0.765,1.532c-0.718,0.302-1.134-0.197-1.454-0.754c-1.168-2.034-2.758-3.758-3.817-5.906
	c-1.282-2.598-1.335-4.817,0.642-6.98L384.548,202.479z"/>
<path fill-rule="evenodd" clip-rule="evenodd" fill="#FFDD11" d="M56.867,397.412c-1.639-2.741-4.914-7.587-6.353-10.588
	c-0.586-1.224-0.456-2.565-0.35-4.173c1.333,1.047,1.396,2.542,1.997,3.68c1.09,2.065,1.55,4.446,3.189,6.262
	c0.584,0.648,1.297,2.31,1.491,3.251L56.867,397.412z"/>
<path fill-rule="evenodd" clip-rule="evenodd" fill="#FFDD11" d="M52.751,345.403c-2.449-6.001-5.155-11.88-6.055-18.37
	C50.307,332.612,54.631,337.939,52.751,345.403z"/>
<path fill-rule="evenodd" clip-rule="evenodd" fill="#FFDD11" d="M56.505,340.555c0,0,0.172-0.03,0.172-0.032
	c0.079,0.495,0.158,0.99,0.238,1.486l-0.006,0.023c0.097,1.183,0.194,2.367,0.29,3.55l0.032,0.11
	c0.253,1.409,0.063,2.766-0.218,4.168c-0.41,2.053-1.308,3.981-1.407,6.118c-0.027,0.604-0.231,1.351-1.178,2.062
	c-0.217-2.815-0.198-5.291,0.528-7.69C55.925,347.148,56.369,343.883,56.505,340.555z"/>
<path fill-rule="evenodd" clip-rule="evenodd" fill="#FFDD11" d="M279.678,368.076c-2.72-6.969-2.586-14.198-3.692-21.197
	c1.177-0.396,1.501,0.218,1.499,0.821c-0.034,6.103,1.947,11.947,2.188,18.011C279.703,366.497,279.678,367.288,279.678,368.076z"/>
<path fill-rule="evenodd" clip-rule="evenodd" fill="#FFDD11" d="M260.758,228.998c0.126-2.482,0.126-2.482,1.151-3.943
	C262.611,226.951,262.372,227.912,260.758,228.998z"/>
<path fill-rule="evenodd" clip-rule="evenodd" fill="#DD2222" d="M176.915,337.352c2.408-0.209,21.909-1.267,30.159-2.394
	s19.501-3.473,22.423-4.395c0.924-0.293,1.839,0.007,2.245,1.226c1.185,3.563,4.057,11.644,4.133,12.158
	c0.167,1.136-0.27,1.803-1.459,2.051c-7.59,2.098-30.387,5.248-38.967,5.128c-8.573-0.119-24.783,0.271-38.946-1.121
	c-1.524-0.425-1.885-1.081-1.14-2.494c4.876-7.422,9.996-17.567,13.363-30.257c0.618-2.328,3.583-10.9,4.966-16.479
	c0.782-3.157,1.096-6.412,2.036-9.538c0.687-2.283,0.362-4.682,0.565-7.024c0.21-2.411,0.446-2.638,2.666-1.975
	c2.407,0.719,4.822,1.417,7.212,2.193c1.861,0.604,2.545,1.448,2.182,3.329c-0.72,3.723-1.012,16.146-3.204,24.951
	c-2.192,8.805-6.312,18.744-7.305,22.025C177.619,335.481,177.325,336.203,176.915,337.352z"/>
<path fill-rule="evenodd" clip-rule="evenodd" fill="#DD2222" d="M190.991,286.421c1.694-0.905,3.081-0.204,4.265,0.294
	c2.515,1.055,5.13,1.649,7.76,2.128c3.836,0.699,7.523,2.039,11.406,2.536c1.708,0.219,3.053,1.188,3.666,2.947
	c0.893,2.564,1.942,5.089,2.612,7.713c0.422,1.654,1.149,3.154,1.869,4.613c1.013,3.098,5.723,15.517,6.933,19.167
	c0.512,1.545,0.229,1.894-1.282,2.598c-1.87,0.872-14.239,3.634-21.349,4.541s-23.344,1.411-25.399,1.383
	c-0.14-1.013,0.104-1.758,0.454-2.464c1.21-2.447,5.019-14.395,6.467-22.517C189.84,301.24,190.566,291.424,190.991,286.421z"/>
<path fill-rule="evenodd" clip-rule="evenodd" fill="#DD2222" d="M235.963,236.492c0.426-1.706,1.083-3.35,0.979-5.222
	c2.652-0.83,5.208-0.432,7.739-0.003c0.862,0.146,1.711,0.275,2.579,0.262c5.981-0.091,11.913,0.724,17.874,0.979
	c2.431,0.104,4.869,0.02,7.3,0.131c10.4,0.478,20.808,0.437,31.217,0.549c8.147,0.088,16.291-0.184,24.438-0.194
	c1.203-0.001,2.407-0.252,3.613-0.375c5.241-0.538,10.523-0.336,15.759-0.759c5.069-0.41,10.139-1.006,15.198-1.545
	c4.207-0.448,8.269-1.563,12.451-1.977c0.592-0.058,1.216-0.151,1.94,0.288c0.655,2.769,0.668,5.695,0.445,8.938
	c-2.724,0.885-5.526,2.022-8.518,2.456c-5.225,0.758-10.457,1.483-15.705,2.042c-2.497,0.266-5.036,0.09-7.554,0.163
	c-4.836,0.141-9.67,0.433-14.504,0.449c-7.518,0.025-15.033,0.01-22.548-0.354c-4.597-0.223-9.214,0.072-13.811-0.126
	c-6.664-0.287-13.323-0.753-19.981-1.159c-2.116-0.129-4.475,0.118-6.522-1.005c-0.217-0.119-0.501-0.167-0.752-0.158
	c-6.568,0.251-13.058-0.56-19.566-1.299c-3.354-0.38-6.714-0.761-10.08-1.063C237.256,237.445,236.557,237.426,235.963,236.492z"/>
<path fill-rule="evenodd" clip-rule="evenodd" fill="#DD2222" d="M280.694,286.085c1.168-1.161,2.416-1.887,3.803-2.465
	c6.677-2.792,13.631-4.568,20.703-5.934c4.509-0.872,8.995-2.014,13.546-2.482c5.172-0.531,10.31-1.33,15.481-1.842
	c4.307-0.427,8.594-1.112,12.907-1.445c5.182-0.4,10.317-1.47,15.54-1.221c1.501,0.071,2.911-0.441,4.391-0.441
	c1.257,0,1.894,0.41,2.473,1.73c1.313,2.983,0.69,6.269,1.886,9.084c-0.51,0.89-1.204,0.953-1.909,0.904
	c-5.541-0.386-11.016,0.302-16.499,0.953c-2.408,0.286-4.843,0.426-7.255,0.567c-6.489,0.378-12.969,0.991-19.376,1.933
	c-4.462,0.655-9.012,0.58-13.366,1.558c-4.14,0.928-8.384,1.184-12.479,2.443c-2.62,0.804-5.324,1.481-8.024,2.089
	c-2.191,0.494-4.056,1.959-6.244,2.581c-1.932,0.549-2.754,0.377-3.592-1.031c-0.175-0.292-0.436-0.724-0.34-0.958
	c0.868-2.109-0.624-3.484-1.441-5.074C280.786,286.812,280.786,286.53,280.694,286.085z"/>
<path fill-rule="evenodd" clip-rule="evenodd" fill="#DD2222" d="M275.924,322.663c1.557-1.542,2.754-3.241,4.942-3.794
	c1.096-0.276,1.87-1.217,2.28-2.261c-3.312-3.668-5.303-8.118-7.976-12.102c-0.484-0.722-0.735-1.458-0.313-2.453
	c1.478-3.476,2.783-7.018,2.382-10.933c-0.047-0.464,0.242-0.828,0.812-1.112c0.807,0.4,1.416,1.215,1.836,1.991
	c1.53,2.835,3.409,5.423,5.21,8.074c0.989,1.46,2.161,2.739,3.28,4.082c1.666,2.002,3.147,4.163,4.806,6.187
	c2.193,2.681,4.172,5.542,6.32,8.264c1.448,1.833,1.501,2.251-0.155,3.979c-2.14,2.234-4.764,3.819-7.442,5.225
	c-1.009,0.529-1.945,1.138-2.835,1.788c-2.125,1.547-4.655,2.283-6.833,3.727c-1.421,0.941-2.197,0.609-2.855-0.95
	c-0.618-1.467-1-3.001-0.877-4.623c0.112-1.482-0.076-2.777-1.584-3.587C276.468,323.922,276.264,323.199,275.924,322.663z"/>
<path fill-rule="evenodd" clip-rule="evenodd" fill="#DD2222" d="M116.15,316.877c-2.488-0.443-4.698-0.759-6.954-0.66
	c-1.176,0.052-1.685-0.887-1.604-2.481c0.142-2.79,0.383-5.569,0.435-8.368c0.065-3.506-0.146-7.032,0.504-10.518
	c0.847-4.552,0.996-9.193,1.834-13.765c0.88-4.798,1.987-9.546,2.832-14.346c0.388-2.197,1.53-3.181,3.601-3.447
	c1.884-0.243,3.748-0.645,5.627-0.93c0.494-0.075,1.045-0.152,1.612,0.379c0.208,1.38-0.249,2.804-0.568,4.221
	c-1.118,4.954-2.39,9.875-3.382,14.854c-0.336,1.687-0.268,3.483-0.484,5.226c-0.416,3.356-0.562,6.758-1.16,10.077
	c-0.818,4.538-0.997,9.132-1.548,13.69C116.666,312.709,116.429,314.607,116.15,316.877z"/>
<path fill-rule="evenodd" clip-rule="evenodd" fill="#DD2222" d="M160.51,251.771c1.021,1.713,1.507,3.578,2.271,5.285
	c1.509,3.373,3.496,6.193,6.536,8.304c2.051,1.424,3.534,3.533,5.63,4.975c2.089,1.437,4.146,2.867,6.512,3.798
	c3.063,1.205,6.188,2.252,9.119,3.791c1.407,0.738,3.033,0.698,4.515,1.183c2.964,0.971,5.903,2.03,8.89,2.923
	c2.565,0.768,5.186,1.345,7.776,2.03c1.173,0.31,2.262,0.764,2.786,2.243c-1.188,0.571-2.358,0.602-3.372,0.311
	c-6.494-1.863-13.25-2.391-19.784-4.057c-1.269-0.324-2.456-0.847-3.662-1.269c-1.99-0.695-4.063-0.746-6.042-1.271
	c-3.67-0.972-7.242-2.308-10.564-4.194c-1.504-0.854-3.146-1.35-4.673-2.185c-2.598-1.421-4.583-3.458-6.506-5.534
	c-3.246-3.504-4.246-7.713-2.873-12.425C157.603,253.849,158.892,252.8,160.51,251.771z"/>
<path fill-rule="evenodd" clip-rule="evenodd" fill="#DD2222" d="M149.213,312.348c5.565-0.827,11.006-2.37,16.618-2.902
	c0.676-0.064,1.382-0.25,2.189,0.282c0.21,2.126-0.622,4.175-1.161,6.239c-0.266,1.017-1.41,1.346-2.351,1.39
	c-5.065,0.234-9.791,2.156-14.709,2.975c-5.193,0.865-10.046,2.724-15.01,4.245c-3.289,1.009-6.626,1.981-9.754,3.497
	c-0.639,0.31-1.298,0.521-2.18,0.153c-0.385-1.755-0.779-3.624-1.208-5.485c-0.235-1.021,0.079-1.719,1.046-2.105
	c2.012-0.808,3.971-1.736,6.063-2.349c3.665-1.073,7.292-2.271,10.948-3.375C141.089,314.493,147.111,312.659,149.213,312.348z"/>
<path fill-rule="evenodd" clip-rule="evenodd" fill="#DD2222" d="M371.471,203.185c-0.701,0.599-1.633,0.495-2.444,0.769
	c-0.908,0.307-1.704,0.038-2.35-0.693c-0.98-1.113-8.583-11.065-14.479-21.643c-5.584-10.021-15.067-26.954-15.804-29.042
	c-0.416-1.179-0.384-1.998,0.521-2.878c0.968,0.023,1.917,0.504,2.991-0.029c1.208-0.599,1.624,0.392,1.917,1.25
	c-0.488,0.975-1.399,0.983-1.996,1.468c-0.639,0.52-0.827,1.155-0.344,1.841c0.408,0.578,0.998,0.649,1.613,0.282
	c0.508-0.301,0.877-0.892,1.765-0.744c2.085,2.231,7.672,13.781,14.417,25.885c4.819,8.649,8.872,12.75,10.901,16.631
	c0.834,1.592,1.807,3.193,2.854,4.699C371.504,201.66,371.861,202.327,371.471,203.185z"/>
<path fill-rule="evenodd" clip-rule="evenodd" fill="#DD2222" d="M232.249,307.757c-1.543-4.179-2.903-8.428-4.319-12.654
	c-0.303-0.904-0.549-1.829-0.838-2.804c0.979-0.653,1.958-0.526,2.802-0.188c2.192,0.879,4.451,1.532,6.781,1.642
	c2.131,0.1,3.012,1.451,3.736,3.096c0.979,2.227,1.501,4.686,3.354,6.455c0.624,0.596,0.227,1.327,0.059,1.991
	c-0.43,1.697-1.216,3.38-1.258,5.085c-0.104,4.178-1.405,8.264-0.859,12.48c0.099,0.769,0.196,1.606-0.623,2.139
	c-0.981,0.638-2.436,0.309-2.758-0.921c-0.893-3.405-3.035-6.325-3.615-9.824C234.46,312.749,232.725,309.047,232.249,307.757z"/>
<path fill-rule="evenodd" clip-rule="evenodd" fill="#DD2222" d="M229.89,353.004c0.836,2.794,1.66,5.377,2.378,7.989
	c0.97,3.524,1.883,7.066,2.771,10.614c0.372,1.483-0.447,3.189-1.774,3.282c-2.684,0.188-5.214,1.261-7.936,1.213
	c-1.297-0.021-2.053-0.353-2.514-1.688c-1.131-3.279-2.632-6.467-2.571-10.03c0.021-1.245-1.736-6.654-1.946-8.877
	c-0.159-1.687,0.012-2.063,1.604-2.253c2.48-0.291,4.965-0.552,7.445-0.854C228.256,352.288,229.045,352.588,229.89,353.004z"/>
<path fill-rule="evenodd" clip-rule="evenodd" fill="#DD2222" d="M84.791,348.772c-1.549-1.801-2.006-3.944-3.291-5.588
	c-0.447-0.57,0.073-1.217,0.833-1.601c4.324-2.19,16.453-10.556,19.083-11.771c0.649-0.3,1.329-0.114,1.622,0.391
	c0.956,1.641,2.475,2.951,3.011,5.138c-3.116,2.878-7.225,4.155-10.674,6.501C91.963,344.16,88.477,346.364,84.791,348.772z"/>
<path fill-rule="evenodd" clip-rule="evenodd" fill="#DD2222" d="M119.069,326.922c0.306,3.226-2.305,4.613-4.941,5.878
	c-2.1,1.008-5.194,0.258-6.902-1.706c-1.286-1.48-1.663-3.461-1.84-5.346c-0.139-1.488,0.461-2.936,1.591-4.044
	c0.437-0.43,0.831-0.905,1.281-1.318c2.696-2.466,5.398-2.304,7.887,0.507c0.693,0.782,1.427,1.52,2.055,2.379
	C118.934,324.274,119.16,325.307,119.069,326.922z"/>
<path fill-rule="evenodd" clip-rule="evenodd" fill="#DD2222" d="M387.571,189.301c0.889,0.414,1.798,2.82,2.772,4.656
	c-1.276,2.475-3.399,3.579-5.541,4.367c-1.973,0.726-3.584,1.841-5.282,3.005c-1.414,0.967-3.167,1.631-4.928,1.691
	c-1.161-1.242-0.772-2.793-1.449-4.133c2.042-1.835,4.067-3.581,6.487-4.701c1.032-0.478,1.915-1.183,2.94-1.628
	C383.85,192.003,386.183,189.637,387.571,189.301z"/>
<path fill-rule="evenodd" clip-rule="evenodd" fill="#DD2222" d="M233.874,249.483c2.039-1.107,4.16-0.929,6.134-1.369
	c1.089-0.242,2.161-0.362,3.221-0.854c1.994-0.925,2.683-0.395,3.716,1.601c1.015,1.962,1.744,4.054,3.718,5.551
	c1.225,0.929,2.258,2.574,2.918,4.33c-0.964,0.814-1.861,0.36-2.604-0.145c-4.804-3.266-10.413-4.991-15.228-8.229
	C235.244,250.03,234.521,250.286,233.874,249.483z"/>
<path fill-rule="evenodd" clip-rule="evenodd" fill="#DD2222" d="M346.035,149.216c1.968-1.91,4.044-3.4,6.254-4.484
	c1.622-0.795,3.599-0.919,5.405-1.429c1.518-0.428,2.329,1.102,2.087,3.515c-3.044,1.764-6.465,2.768-9.339,4.901
	c-2.04,1.514-3.1,1.099-4.051-1.328C346.267,150.07,346.19,149.73,346.035,149.216z"/>
<path fill-rule="evenodd" clip-rule="evenodd" fill="#DD2222" d="M259.145,252.686c2.616,5.188,5.201,10.321,7.789,15.454
	c-5.961-3.08-9.256-8.491-13.304-13.872C255.716,253.669,257.251,253.229,259.145,252.686z"/>
<path fill-rule="evenodd" clip-rule="evenodd" fill="#DD2222" d="M373.939,214.522c-2.431,0.059-5.348-2.225-5.463-4.277
	c-0.127-2.234,2.434-4.616,4.989-4.643c2.518-0.027,4.165,1.726,4.293,4.568C377.873,212.671,376.298,214.466,373.939,214.522z"/>
<path fill-rule="evenodd" clip-rule="evenodd" fill="#DD2222" d="M256.168,227.647c-0.967,1.283-1.98,1.308-3.029,1.316
	c-3.099,0.024-6.177-0.229-9.303,0.147c-1.969,0.237-4.047-0.677-6.118-0.829c-0.939-0.069-1.302-0.752-1.208-1.682
	c0.099-0.982,0.69-1.338,1.598-1.316c2.57,0.061,5.116,0.38,7.657,0.748c0.426,0.062,0.86,0.229,1.275,0.188
	C250.119,225.915,252.937,227.166,256.168,227.647z"/>
<path fill-rule="evenodd" clip-rule="evenodd" fill="#DD2222" d="M240.507,328.315c1.452-0.532,2.088,0.023,2.212,1.031
	c0.425,3.444,2.592,6.283,3.193,9.663c0.07,0.396,0.429,0.743,0.671,1.101c1.373,2.021,1.231,2.363-1.634,3.098
	C243.951,338.107,240.764,333.659,240.507,328.315z"/>
<path fill-rule="evenodd" clip-rule="evenodd" fill="#DD2222" d="M374.095,225.361c0.31-2.606-0.618-5.309,0.673-7.873
	c0.902-0.385,1.726-0.328,2.762-0.038c-0.595,2.202-0.989,4.366-0.499,6.646C377.258,225.157,376.151,225.613,374.095,225.361z"/>
<path fill-rule="evenodd" clip-rule="evenodd" fill="#DD2222" d="M363.509,227.115c-3.358,0.741-9.203,0.844-13.64,1.579
	c-0.331-0.536-0.675-1.226,0.106-1.497c0.861-0.299,4.588-0.724,5.842-0.724c1.308,0.017,4.284-1.109,6.454-0.914
	C363.573,225.678,363.594,226.547,363.509,227.115z"/>
<path fill-rule="evenodd" clip-rule="evenodd" fill="#DD2222" d="M253.488,247.303c-0.165,1.743-1.343,2.132-2.369,2.676
	c-1.074-0.431-1.576-1.179-1.806-2.191C250.614,247.079,251.899,246.751,253.488,247.303z"/>
<path fill-rule="evenodd" clip-rule="evenodd" fill="#DD2222" d="M276.62,312.583c1.848,0.556,2.807,1.511,2.928,3.01
	c0.081,0.99-0.713,1.483-1.776,1.58C276.75,315.904,276.676,314.413,276.62,312.583z"/>
<path fill-rule="evenodd" clip-rule="evenodd" fill="#DD2222" d="M220.933,274.646c0.195-0.181,0.403-0.193,0.619-0.044
	C221.369,275.002,221.163,275.01,220.933,274.646z"/>
<path fill-rule="evenodd" clip-rule="evenodd" fill="#DD2222" d="M151.673,353.574"/>
<polygon fill-rule="evenodd" clip-rule="evenodd" fill="#DD2222" points="206.978,256.032 207.091,256.098 207.068,256.227 
	206.902,256.182 "/>
<polygon fill-rule="evenodd" clip-rule="evenodd" fill="#DD2222" points="336.989,136.055 336.836,136.013 336.998,135.978 "/>
<polygon fill-rule="evenodd" clip-rule="evenodd" fill="#DD2222" points="179.3,132.797 179.312,132.905 179.214,132.868 
	179.203,132.762 "/>
<polygon fill-rule="evenodd" clip-rule="evenodd" fill="#DD2222" points="155.432,238.707 155.445,238.834 155.334,238.89 
	155.267,238.731 "/>
<polygon fill-rule="evenodd" clip-rule="evenodd" fill="#DD2222" points="155.219,241.742 155.344,241.704 155.417,241.812 
	155.271,241.903 "/>
<polygon fill-rule="evenodd" clip-rule="evenodd" fill="#DD2222" points="153.843,462.593 153.738,462.617 153.819,462.546 "/>
<polygon fill-rule="evenodd" clip-rule="evenodd" fill="#DD2222" points="328.276,202.247 328.266,202.222 328.43,202.196 "/>
<polygon fill-rule="evenodd" clip-rule="evenodd" fill="#DD2222" points="57.231,345.692 57.074,345.671 57.199,345.58 "/>
<polygon fill-rule="evenodd" clip-rule="evenodd" fill="#DD2222" points="56.909,342.032 56.916,342.009 57.039,341.989 "/>
</svg>
