<?xml version="1.0" encoding="UTF-8" standalone="no"?>
<svg
   xmlns:dc="http://purl.org/dc/elements/1.1/"
   xmlns:cc="http://creativecommons.org/ns#"
   xmlns:rdf="http://www.w3.org/1999/02/22-rdf-syntax-ns#"
   xmlns:svg="http://www.w3.org/2000/svg"
   xmlns="http://www.w3.org/2000/svg"
   xmlns:sodipodi="http://sodipodi.sourceforge.net/DTD/sodipodi-0.dtd"
   xmlns:inkscape="http://www.inkscape.org/namespaces/inkscape"
   width="474.6781"
   height="548.73541"
   viewBox="0 0 474.68172 548.73744"
   version="1.1"
   id="svg1257"
   sodipodi:docname="DEU_Zachenberg_COA.svg"
   inkscape:version="0.92.5 (2060ec1f9f, 2020-04-08)">
  <metadata
     id="metadata1263">
    <rdf:RDF>
      <cc:Work
         rdf:about="">
        <dc:format>image/svg+xml</dc:format>
        <dc:type
           rdf:resource="http://purl.org/dc/dcmitype/StillImage" />
        <dc:title></dc:title>
      </cc:Work>
    </rdf:RDF>
  </metadata>
  <defs
     id="defs1261" />
  <sodipodi:namedview
     pagecolor="#ffffff"
     bordercolor="#666666"
     borderopacity="1"
     objecttolerance="10"
     gridtolerance="10"
     guidetolerance="10"
     inkscape:pageopacity="0"
     inkscape:pageshadow="2"
     inkscape:window-width="1920"
     inkscape:window-height="1046"
     id="namedview1259"
     showgrid="false"
     inkscape:zoom="1.4450008"
     inkscape:cx="237.33971"
     inkscape:cy="274.39091"
     inkscape:window-x="-11"
     inkscape:window-y="-11"
     inkscape:window-maximized="1"
     inkscape:current-layer="svg1257"
     fit-margin-top="0"
     fit-margin-left="0"
     fit-margin-right="0"
     fit-margin-bottom="0" />
  <path
     style="fill:#ed1c24;fill-opacity:1;stroke:#000000;stroke-width:7.00005341;stroke-linecap:round;stroke-linejoin:miter;stroke-miterlimit:4;stroke-dasharray:none"
     inkscape:connector-curvature="0"
     id="path1203"
     d="M 3.5000267,3.4989516 V 326.46895 A 233.84027,218.76913 0 0 0 237.33988,545.23848 233.84027,218.76913 0 0 0 471.18168,326.46895 V 3.4989516 H 3.5016767 Z" />
  <path
     style="fill:#ffffff;stroke:#000000;stroke-width:7;stroke-linecap:round;stroke-linejoin:round"
     inkscape:connector-curvature="0"
     id="path1205"
     d="M 125.35003,3.4999516 V 490.54995 h 111.99 V 3.4999516 Z" />
  <path
     d="M 237.34303,3.4989516 V 543.80895"
     id="path1209"
     inkscape:connector-curvature="0"
     style="fill:none;fill-rule:evenodd;stroke:#000000;stroke-width:7;stroke-linecap:round" />
  <path
     style="fill:#ffdd00;fill-opacity:1;stroke:#000000;stroke-width:7;stroke-linecap:round;stroke-linejoin:round"
     inkscape:connector-curvature="0"
     id="path1211"
     d="m 3.5000267,137.38895 v 109.79 H 237.34003 v -109.79 z" />
  <path
     style="fill:#ffffff;stroke:#000000;stroke-width:7;stroke-linecap:round;stroke-linejoin:round"
     inkscape:connector-curvature="0"
     id="path1213"
     d="m 237.34303,137.38895 v 109.79 h 233.84 v -109.79 z" />
  <path
     style="fill:#009bdf;fill-opacity:1;fill-rule:evenodd;stroke:#000000;stroke-width:5"
     d="m 237.34363,137.38837 v 36.00027 h 36.42801 l -31.59985,-36.00027 z m 36.42801,36.00027 32.28735,36.78153 h 64.98683 l 32.28539,36.77958 h 64.99269 l -32.28736,-36.77958 h -64.98681 l -32.28541,-36.78153 h 64.99073 L 372.1552,137.38837 h -64.99268 l 31.59985,36.00027 z m 163.37819,-36.00027 31.5979,36.00027 h 2.41994 v -36.00027 z m -33.39282,36.00223 32.28344,36.77957 h 35.12722 v -34.02173 l -2.41994,-2.75784 z m -162.6946,36.77957 32.28344,36.77958 h 64.99269 l -32.28541,-36.77958 z"
     id="path1219"
     inkscape:connector-curvature="0" />
  <path
     style="fill:none;stroke:#000000;stroke-width:7;stroke-linecap:round;stroke-linejoin:round"
     inkscape:connector-curvature="0"
     id="path1221"
     d="m 237.34303,137.38895 v 109.79 h 233.84 v -109.79 z" />
  <path
     style="fill:#ffdd00;fill-opacity:1;stroke:#000000;stroke-width:7;stroke-linecap:round;stroke-linejoin:round"
     inkscape:connector-curvature="0"
     id="path1223"
     d="m 237.14847,325.08176 a 61.20547,67.15175 0 0 0 -61.20508,67.15039 61.20547,67.15175 0 0 0 2.40039,18.52344 69.43665,63.30415 78.3543 0 0 -63.29492,-26.10742 69.43665,63.30415 78.3543 0 0 -47.810553,80.91211 69.43665,63.30415 78.3543 0 0 5.35352,16.00781 233.84027,218.76913 0 0 0 164.748043,63.67383 233.84027,218.76913 0 0 0 164.80469,-63.78516 63.30415,69.43665 11.645696 0 0 5.29883,-15.89648 63.30415,69.43665 11.645696 0 0 -47.80859,-80.91211 63.30415,69.43665 11.645696 0 0 -63.92188,27.03516 61.20547,67.15175 0 0 0 2.64063,-19.45118 61.20547,67.15175 0 0 0 -61.20508,-67.15039 z" />
  <path
     style="opacity:1;fill:#000000;fill-opacity:1;fill-rule:evenodd;stroke:none;stroke-width:1.00000763;stroke-linecap:round;stroke-linejoin:round;stroke-miterlimit:4;stroke-dasharray:none;stroke-dashoffset:0;stroke-opacity:1;paint-order:normal"
     d="m 237.31843,340.75346 a 33.095206,23.550894 0 0 0 -31.9729,17.58216 36.813769,24.046702 0 0 1 31.9729,-12.16415 36.813769,24.046702 0 0 1 32.01782,12.23838 33.095206,23.550894 0 0 0 -32.01782,-17.65639 z m 0.01,20.14078 a 20.017481,13.868942 0 0 0 -19.33804,10.35359 22.266637,14.16092 0 0 1 19.33804,-7.16216 22.266637,14.16092 0 0 1 19.36733,7.20709 20.017481,13.868942 0 0 0 -19.36733,-10.39852 z m 103.77813,42.19955 a 33.095206,23.550895 35.686813 0 0 -0.48634,0.01 33.095206,23.550895 35.686813 0 0 -12.36728,3.68752 36.813768,24.046702 35.686813 0 1 33.14479,8.7364 36.813768,24.046702 35.686813 0 1 18.87319,28.53147 33.095206,23.550895 35.686813 0 0 -15.71301,-32.93189 33.095206,23.550895 35.686813 0 0 -23.45135,-8.03326 z m -207.04455,0.01 a 23.550894,33.095206 54.313187 0 0 -23.93768,8.0235 23.550894,33.095206 54.313187 0 0 -15.713007,32.93189 24.046702,36.813768 54.313187 0 1 18.873197,-28.53147 24.046702,36.813768 54.313187 0 1 33.14478,-8.7364 23.550894,33.095206 54.313187 0 0 -12.36729,-3.68752 z m 204.6207,19.42397 a 20.01748,13.868941 35.686813 0 0 -0.29297,0.002 20.01748,13.868941 35.686813 0 0 -7.38482,2.09963 22.266636,14.16092 35.686813 0 1 19.93374,5.4434 22.266636,14.16092 35.686813 0 1 11.52939,17.09779 20.01748,13.868941 35.686813 0 0 -9.66804,-19.6896 20.01748,13.868941 35.686813 0 0 -14.1173,-4.95317 z m -202.39021,0.002 a 13.868941,20.01748 54.313187 0 0 -14.41222,4.95122 13.868941,20.01748 54.313187 0 0 -9.66609,19.6896 14.16092,22.266636 54.313187 0 1 11.52744,-17.09779 14.16092,22.266636 54.313187 0 1 19.9357,-5.4434 13.868941,20.01748 54.313187 0 0 -7.38483,-2.09963 z"
     id="path2088"
     inkscape:connector-curvature="0" />
</svg>
