<?xml version="1.0" encoding="UTF-8" standalone="no"?>
<svg
   xmlns:dc="http://purl.org/dc/elements/1.1/"
   xmlns:cc="http://creativecommons.org/ns#"
   xmlns:rdf="http://www.w3.org/1999/02/22-rdf-syntax-ns#"
   xmlns:svg="http://www.w3.org/2000/svg"
   xmlns="http://www.w3.org/2000/svg"
   xmlns:sodipodi="http://sodipodi.sourceforge.net/DTD/sodipodi-0.dtd"
   xmlns:inkscape="http://www.inkscape.org/namespaces/inkscape"
   width="725.70654"
   height="811.97382"
   viewBox="0 0 725.70407 811.97065"
   version="1.1"
   id="svg4754"
   sodipodi:docname="DEU_Zeitlofs_COA.svg"
   inkscape:version="0.92.5 (2060ec1f9f, 2020-04-08)">
  <metadata
     id="metadata4760">
    <rdf:RDF>
      <cc:Work
         rdf:about="">
        <dc:format>image/svg+xml</dc:format>
        <dc:type
           rdf:resource="http://purl.org/dc/dcmitype/StillImage" />
        <dc:title></dc:title>
      </cc:Work>
    </rdf:RDF>
  </metadata>
  <defs
     id="defs4758" />
  <sodipodi:namedview
     pagecolor="#ffffff"
     bordercolor="#666666"
     borderopacity="1"
     objecttolerance="10"
     gridtolerance="10"
     guidetolerance="10"
     inkscape:pageopacity="0"
     inkscape:pageshadow="2"
     inkscape:window-width="1920"
     inkscape:window-height="1046"
     id="namedview4756"
     showgrid="false"
     inkscape:zoom="0.97663244"
     inkscape:cx="362.85326"
     inkscape:cy="405.98692"
     inkscape:window-x="-11"
     inkscape:window-y="-11"
     inkscape:window-maximized="1"
     inkscape:current-layer="svg4754"
     fit-margin-top="0"
     fit-margin-left="0"
     fit-margin-right="0"
     fit-margin-bottom="0" />
  <path
     d="m 10.985986,10.999827 61.41,527.690003 0.732,0.66 A 290.44943,281.56387 0 0 0 362.84674,800.97092 290.44943,281.56387 0 0 0 652.25104,539.63108 l 1.043,-0.941 61.41,-527.690003 h -351.86 -351.860004 z"
     id="path4726"
     inkscape:connector-curvature="0"
     style="fill-rule:evenodd;stroke:#000000;stroke-width:21.99991989;stroke-linecap:round;stroke-linejoin:round;stroke-miterlimit:4;stroke-dasharray:none;stroke-opacity:1" />
  <path
     d="m 10.985986,10.999827 61.41,527.690003 0.732,0.66 A 290.44943,281.56387 0 0 0 362.84674,800.97092 290.44943,281.56387 0 0 0 652.25104,539.63108 l 1.043,-0.941 61.41,-527.690003 h -351.86 -351.860004 z"
     id="path4728"
     inkscape:connector-curvature="0"
     style="fill:#ffffff;fill-rule:evenodd;stroke:#000000;stroke-width:7.99997091;stroke-linecap:round;stroke-linejoin:round;stroke-miterlimit:4;stroke-dasharray:none" />
  <path
     style="fill:#fcdd09;fill-opacity:1;stroke:#000000;stroke-width:8;stroke-linecap:square"
     inkscape:connector-curvature="0"
     id="path4732"
     d="m 24.370986,126.01983 20.58,176.84 H 680.74099 l 20.58,-176.84 z" />
  <path
     style="fill:#da121a;fill-opacity:1;stroke:#000000;stroke-width:8;stroke-linecap:square"
     inkscape:connector-curvature="0"
     id="path4734"
     d="m 53.491986,376.25983 18.902,162.43 0.732,0.66 A 290.44943,281.56387 0 0 0 362.84474,800.97092 290.44943,281.56387 0 0 0 652.24904,539.63108 l 1.043,-0.941 18.902,-162.43 H 53.494036 Z" />
  <path
     d="m 116.77999,125.61983 c -0.166,5.833 0.224,11.681 1.215,17.438 2.091,12.15 6.638,23.715 10.666,35.37 4.03,11.652 7.594,23.689 7.594,36.02 0,12.329 -3.565,24.365 -7.594,36.02 -4.03,11.652 -8.575,23.22 -10.666,35.37 -0.945,5.49 -1.349,11.06 -1.24,16.627 h 94.54 c -0.109,-5.564 0.296,-11.137 1.24,-16.627 2.091,-12.15 6.639,-23.715 10.668,-35.37 4.03,-11.652 7.594,-23.689 7.594,-36.02 0,-12.329 -3.565,-24.365 -7.594,-36.02 -4.03,-11.652 -8.577,-23.22 -10.668,-35.37 -0.991,-5.757 -1.381,-11.604 -1.215,-17.438 z m 189.08,0 c -0.166,5.833 0.224,11.681 1.215,17.438 2.091,12.15 6.638,23.715 10.666,35.37 4.03,11.652 7.594,23.689 7.594,36.02 0,12.329 -3.565,24.365 -7.594,36.02 -4.03,11.652 -8.575,23.22 -10.666,35.37 -0.945,5.49 -1.349,11.06 -1.24,16.627 h 94.54 c -0.109,-5.564 0.296,-11.137 1.24,-16.627 2.091,-12.15 6.638,-23.715 10.666,-35.37 4.03,-11.652 7.594,-23.689 7.594,-36.02 0,-12.329 -3.565,-24.365 -7.594,-36.02 -4.03,-11.652 -8.575,-23.22 -10.666,-35.37 -0.991,-5.757 -1.381,-11.604 -1.215,-17.438 z m 189.08,0 c -0.166,5.833 0.224,11.681 1.215,17.438 2.091,12.15 6.638,23.715 10.666,35.37 4.03,11.652 7.594,23.689 7.594,36.02 0,12.329 -3.565,24.365 -7.594,36.02 -4.03,11.652 -8.575,23.22 -10.666,35.37 -0.945,5.49 -1.349,11.06 -1.24,16.627 h 94.54 c -0.109,-5.564 0.296,-11.137 1.24,-16.627 2.091,-12.15 6.638,-23.715 10.666,-35.37 4.03,-11.652 7.594,-23.689 7.594,-36.02 0,-12.329 -3.565,-24.365 -7.594,-36.02 -4.03,-11.652 -8.575,-23.22 -10.666,-35.37 -0.991,-5.757 -1.381,-11.604 -1.215,-17.438 z"
     id="path4738"
     inkscape:connector-curvature="0"
     style="fill:#da121a;fill-opacity:1;fill-rule:evenodd;stroke:#000000;stroke-width:8" />
  <path
     d="m 329.54599,394.33983 c -3.397,-0.035 -6.798,0.365 -10.09,1.188 7.853,3.241 14.245,9.854 17.219,17.813 2.186,5.851 2.557,12.258 1.949,18.475 -0.608,6.216 -2.16,12.296 -3.73,18.342 -1.581,6.089 -3.187,12.175 -4.801,18.262 -0.45,-0.428 -0.91,-0.847 -1.389,-1.244 -3.702,-3.072 -8.119,-5.145 -12.553,-7.01 -0.585,-0.246 -1.176,-0.48 -1.764,-0.721 -1.632,-3.258 -3.39,-6.453 -5.277,-9.57 -1.493,-2.466 -3.081,-4.905 -5.102,-6.961 -2.02,-2.057 -4.517,-3.729 -7.328,-4.369 -2.306,-0.525 -4.707,-0.34 -7.07,-0.178 -2.359,0.162 -4.771,0.296 -7.05,-0.324 -3.407,-0.926 -6.186,-3.459 -8.199,-6.359 -2.01,-2.9 -3.373,-6.191 -4.887,-9.381 -0.97,-2.044 -2.02,-4.075 -3.492,-5.793 -1.472,-1.718 -3.412,-3.115 -5.629,-3.564 -1.468,-0.297 -2.996,-0.172 -4.449,0.189 -1.453,0.361 -2.842,0.951 -4.201,1.58 -2.717,1.259 -5.453,2.72 -8.443,2.885 -2.587,0.143 -5.15,-0.716 -7.412,-1.98 -2.262,-1.265 -4.268,-2.928 -6.293,-4.545 -2.025,-1.617 -4.104,-3.208 -6.453,-4.303 -1.762,-0.821 -3.703,-1.348 -5.635,-1.34 -0.644,0.003 -1.287,0.065 -1.922,0.195 -2.853,0.587 -5.236,2.461 -7.592,4.174 -1.178,0.857 -2.384,1.691 -3.693,2.328 -1.309,0.637 -2.735,1.075 -4.191,1.102 -1.526,0.028 -3.035,-0.398 -4.42,-1.041 -1.385,-0.643 -2.658,-1.499 -3.908,-2.375 -1.251,-0.876 -2.488,-1.776 -3.82,-2.521 -1.332,-0.745 -2.774,-1.336 -4.287,-1.537 -2.027,-0.269 -4.096,0.174 -5.994,0.936 -1.898,0.761 -3.652,1.833 -5.408,2.881 -1.756,1.048 -3.537,2.081 -5.467,2.758 -1.93,0.677 -4.04,0.983 -6.03,0.537 -2.063,-0.461 -3.858,-1.676 -5.689,-2.732 -0.916,-0.528 -1.858,-1.025 -2.857,-1.369 -1,-0.344 -2.064,-0.533 -3.117,-0.439 -1.29,0.114 -2.515,0.651 -3.592,1.371 -1.077,0.72 -2.023,1.617 -2.943,2.529 -0.92,0.912 -1.826,1.844 -2.846,2.643 -1.02,0.799 -2.167,1.467 -3.426,1.773 -1.255,0.305 -2.576,0.175 -3.846,-0.004 -1.278,-0.18 -2.478,-0.723 -3.723,-1.064 -1.244,-0.342 -2.458,-0.86 -3.742,-0.984 -1.274,-0.124 -2.609,-0.134 -3.832,0.244 -0.995,0.308 -1.869,0.951 -2.688,1.596 -0.823,0.648 -1.428,1.533 -2.191,2.25 -1.515,1.423 -2.833,3.214 -4.729,4.064 -1.572,0.706 -3.519,0.057 -5.123,0.688 -2.158,0.849 -3.737,2.749 -5.678,4.02 -2.107004,1.379 -5.103004,1.79 -6.469004,3.906 -1.257,1.948 -1.587,4.719 -0.824,6.908 0.83,2.376 3.644,3.479 5.367,5.314 1.587004,1.691 2.675004,3.911 4.572004,5.244 1.41,0.991 3.456,0.819 4.818,1.875 1.642,1.273 2.502,3.323 3.639,5.063 0.573,0.876 0.955,1.88 1.602,2.703 0.644,0.819 1.34,1.65 2.234,2.184 1.099,0.655 2.399,0.961 3.666,1.141 1.278,0.181 2.581,-0.037 3.871,-0.076 1.29,-0.039 2.583,-0.286 3.867,-0.16 1.276,0.125 2.591,0.309 3.738,0.904 1.151,0.594 2.109,1.511 2.912,2.527 0.804,1.016 1.465,2.137 2.145,3.24 0.68,1.103 1.386,2.197 2.264,3.15 0.878,0.953 1.941,1.763 3.168,2.178 1,0.339 2.082,0.406 3.135,0.307 1.052,-0.099 2.083,-0.359 3.098,-0.656 2.029,-0.595 4.062,-1.358 6.176,-1.32 2.045,0.037 4.02,0.831 5.734,1.943 1.716,1.112 3.204,2.537 4.664,3.969 1.46,1.432 2.915,2.886 4.58,4.072 1.665,1.186 3.572,2.103 5.605,2.318 1.518,0.161 3.057,-0.072 4.527,-0.482 1.47,-0.411 2.885,-0.996 4.307,-1.553 1.422,-0.557 2.862,-1.089 4.359,-1.389 1.497,-0.299 3.062,-0.357 4.539,0.029 1.409,0.369 2.692,1.131 3.814,2.059 1.123,0.928 2.098,2.02 3.041,3.129 1.886,2.219 3.764,4.601 6.398,5.844 2.344,1.106 5.071,1.18 7.611,0.67 2.541,-0.51 4.934,-1.568 7.283,-2.662 2.349,-1.094 4.692,-2.238 7.188,-2.936 2.496,-0.698 5.188,-0.929 7.67,-0.184 2.868,0.861 5.186,2.921 7.531,4.783 1.173,0.931 2.382,1.828 3.709,2.521 1.327,0.694 2.783,1.182 4.279,1.242 2.262,0.091 4.48,-0.803 6.318,-2.125 1.838,-1.322 3.338,-3.053 4.748,-4.824 2.208,-2.773 4.261,-5.707 6.895,-8.08 1.317,-1.187 2.778,-2.226 4.387,-2.971 1.609,-0.744 3.37,-1.185 5.143,-1.164 2.371,0.029 4.646,0.87 6.891,1.633 2.245,0.763 4.593,1.464 6.949,1.199 2.814,-0.316 5.283,-1.966 7.541,-3.674 2.258,-1.708 4.505,-3.564 7.207,-4.412 1.904,-0.597 3.96,-0.655 5.92,-0.277 1.96,0.377 3.824,1.183 5.506,2.258 3.363,2.15 5.951,5.319 8.18,8.631 0.101,0.15 0.193,0.306 0.293,0.457 -6.906,25.952 -13.784,51.931 -19.527,78.11 -0.61,-0.641 -1.244,-1.259 -1.928,-1.822 -2.975,-2.454 -6.523,-4.109 -10.09,-5.6 -0.47,-0.197 -0.946,-0.384 -1.418,-0.576 -1.311,-2.603 -2.725,-5.155 -4.242,-7.645 -1.2,-1.97 -2.475,-3.916 -4.1,-5.559 -1.624,-1.643 -3.629,-2.979 -5.889,-3.49 -1.853,-0.42 -3.782,-0.272 -5.678,-0.143 -1.896,0.13 -3.834,0.235 -5.668,-0.26 -2.738,-0.739 -4.972,-2.761 -6.59,-5.078 -1.618,-2.317 -2.711,-4.947 -3.928,-7.494 -0.779,-1.632 -1.624,-3.255 -2.807,-4.627 -1.183,-1.372 -2.742,-2.487 -4.523,-2.846 -1.179,-0.238 -2.406,-0.138 -3.574,0.15 -1.168,0.288 -2.285,0.759 -3.377,1.262 -2.184,1.01 -4.382,2.173 -6.785,2.305 -2.079,0.114 -4.14,-0.572 -5.957,-1.582 -1.818,-1.01 -3.429,-2.34 -5.057,-3.631 -1.628,-1.291 -3.298,-2.561 -5.186,-3.436 -1.416,-0.656 -2.977,-1.077 -4.529,-1.07 -0.517,0.002 -1.035,0.052 -1.545,0.156 -2.293,0.469 -4.206,1.966 -6.1,3.334 -0.947,0.684 -1.916,1.35 -2.969,1.859 -1.052,0.509 -2.199,0.858 -3.369,0.879 -1.227,0.022 -2.438,-0.316 -3.551,-0.83 -1.113,-0.514 -2.136,-1.199 -3.141,-1.898 -1.01,-0.699 -2,-1.418 -3.07,-2.01 -1.071,-0.595 -2.229,-1.066 -3.445,-1.227 -1.629,-0.215 -3.293,0.138 -4.818,0.746 -1.525,0.608 -2.934,1.464 -4.346,2.301 -1.411,0.837 -2.842,1.662 -4.393,2.203 -1.551,0.541 -3.246,0.786 -4.85,0.43 -1.658,-0.368 -3.1,-1.34 -4.572,-2.184 -0.736,-0.422 -1.492,-0.819 -2.295,-1.094 -0.803,-0.275 -1.66,-0.424 -2.506,-0.35 -1.037,0.091 -2.02,0.519 -2.887,1.094 -0.866,0.575 -1.626,1.293 -2.365,2.02 -0.739,0.728 -1.467,1.472 -2.287,2.109 -0.82,0.638 -1.74,1.173 -2.752,1.418 -1.01,0.244 -2.072,0.139 -3.092,-0.004 -1.027,-0.144 -1.99,-0.577 -2.99,-0.85 -1,-0.273 -1.976,-0.687 -3.01,-0.787 -1.024,-0.099 -2.098,-0.107 -3.08,0.195 -0.8,0.246 -1.503,0.761 -2.16,1.275 -0.661,0.518 -1.146,1.224 -1.76,1.797 -1.217,1.137 -2.277,2.566 -3.801,3.246 -1.263,0.564 -2.828,0.045 -4.117,0.549 -1.734,0.678 -3,2.196 -4.563,3.211 -1.693,1.102 -4.102,1.429 -5.199,3.119 -1.01,1.556 -1.275,3.771 -0.662,5.52 0.667,1.898 2.93,2.778 4.314,4.244 1.275,1.351 2.149,3.125 3.674,4.189 1.133,0.791 2.777,0.653 3.871,1.496 1.32,1.017 2.01,2.656 2.926,4.045 0.46,0.7 0.767,1.5 1.287,2.158 0.517,0.654 1.076,1.318 1.795,1.744 0.883,0.523 1.927,0.769 2.945,0.912 1.027,0.144 2.075,-0.031 3.111,-0.063 1.037,-0.032 2.075,-0.228 3.107,-0.127 1.025,0.1 2.084,0.247 3.01,0.723 0.925,0.474 1.694,1.206 2.34,2.02 0.646,0.812 1.176,1.707 1.723,2.588 0.546,0.881 1.115,1.756 1.82,2.518 0.705,0.761 1.559,1.407 2.545,1.738 0.805,0.27 1.674,0.325 2.52,0.246 0.846,-0.079 1.673,-0.288 2.488,-0.525 1.63,-0.476 3.266,-1.085 4.965,-1.055 1.643,0.029 3.228,0.664 4.607,1.553 1.379,0.888 2.575,2.026 3.748,3.17 1.173,1.143 2.343,2.306 3.682,3.254 1.338,0.948 2.87,1.679 4.504,1.852 1.22,0.129 2.457,-0.059 3.639,-0.387 1.182,-0.328 2.319,-0.795 3.461,-1.24 1.142,-0.445 2.301,-0.868 3.504,-1.107 1.203,-0.239 2.459,-0.285 3.646,0.023 1.132,0.294 2.164,0.902 3.066,1.643 0.902,0.741 1.685,1.614 2.443,2.5 1.516,1.773 3.03,3.675 5.143,4.668 1.883,0.883 4.074,0.942 6.115,0.535 2.042,-0.407 3.966,-1.253 5.854,-2.127 1.888,-0.874 3.772,-1.787 5.777,-2.344 2.01,-0.557 4.168,-0.742 6.162,-0.146 2.305,0.688 4.168,2.333 6.05,3.82 0.942,0.744 1.914,1.459 2.98,2.01 1.066,0.554 2.237,0.944 3.439,0.992 1.818,0.073 3.601,-0.641 5.078,-1.697 1.477,-1.056 2.681,-2.439 3.814,-3.854 1.775,-2.215 3.425,-4.557 5.541,-6.453 1.058,-0.948 2.233,-1.778 3.525,-2.373 1.293,-0.595 2.708,-0.947 4.133,-0.93 1.905,0.023 3.733,0.694 5.537,1.303 1.804,0.609 3.693,1.17 5.586,0.959 2.261,-0.252 4.246,-1.571 6.06,-2.936 1.815,-1.364 3.62,-2.846 5.791,-3.523 1.53,-0.477 3.183,-0.522 4.758,-0.221 1.575,0.301 3.072,0.944 4.424,1.803 2.703,1.717 4.784,4.249 6.574,6.895 0.494,0.73 0.966,1.477 1.424,2.23 -1.022,4.991 -2,9.988 -2.924,14.996 -3.916,-1.796 -8.117,-2.968 -12.402,-3.414 -0.913,-0.095 -1.827,-0.157 -2.744,-0.188 -6.418,-0.211 -12.887,1.154 -18.662,3.965 9.254,2 17.803,7.133 23.926,14.355 2.364,2.789 4.361,5.884 5.951,9.176 -0.956,6.633 -1.803,13.283 -2.51,19.957 -0.243,2.294 -0.462,4.592 -0.668,6.891 -2.591,-1.82 -5.589,-2.995 -8.592,-4.04 -0.408,-0.141 -0.82,-0.275 -1.229,-0.412 -1.242,-2.12 -2.565,-4.191 -3.975,-6.205 -1.115,-1.594 -2.293,-3.164 -3.75,-4.461 -1.457,-1.297 -3.221,-2.317 -5.156,-2.631 -1.587,-0.257 -3.211,-0.033 -4.807,0.174 -1.596,0.207 -3.227,0.396 -4.803,0.074 -2.352,-0.48 -4.344,-2.066 -5.83,-3.93 -1.486,-1.864 -2.545,-4.02 -3.703,-6.094 -0.742,-1.332 -1.538,-2.652 -2.607,-3.744 -1.07,-1.092 -2.445,-1.95 -3.969,-2.16 -1.01,-0.139 -2.043,0.008 -3.02,0.311 -0.972,0.302 -1.892,0.756 -2.789,1.234 -1.794,0.957 -3.591,2.053 -5.615,2.287 -1.752,0.203 -3.527,-0.268 -5.115,-1.023 -1.588,-0.756 -3.02,-1.79 -4.461,-2.791 -1.442,-1 -2.918,-1.984 -4.559,-2.621 -1.23,-0.478 -2.571,-0.751 -3.883,-0.666 -0.437,0.029 -0.871,0.097 -1.297,0.211 -1.914,0.512 -3.456,1.868 -4.986,3.115 -0.765,0.624 -1.549,1.235 -2.412,1.717 -0.863,0.482 -1.815,0.834 -2.803,0.912 -1.036,0.082 -2.076,-0.141 -3.043,-0.516 -0.967,-0.374 -1.867,-0.896 -2.752,-1.432 -0.885,-0.536 -1.764,-1.09 -2.699,-1.535 -0.936,-0.445 -1.938,-0.783 -2.975,-0.855 -1.388,-0.097 -2.773,0.288 -4.03,0.877 -1.258,0.589 -2.407,1.382 -3.557,2.158 -1.15,0.776 -2.317,1.542 -3.6,2.076 -1.283,0.534 -2.702,0.828 -4.076,0.611 -1.42,-0.224 -2.689,-0.966 -3.977,-1.6 -0.644,-0.317 -1.303,-0.611 -1.996,-0.801 -0.693,-0.19 -1.423,-0.272 -2.135,-0.166 -0.872,0.13 -1.683,0.541 -2.385,1.068 -0.702,0.528 -1.307,1.17 -1.895,1.82 -0.588,0.65 -1.166,1.312 -1.826,1.891 -0.66,0.578 -1.411,1.074 -2.254,1.332 -0.84,0.257 -1.742,0.226 -2.611,0.158 -0.875,-0.068 -1.713,-0.383 -2.572,-0.561 -0.859,-0.178 -1.705,-0.475 -2.582,-0.506 -0.87,-0.03 -1.777,0.018 -2.592,0.322 -0.663,0.248 -1.232,0.715 -1.762,1.182 -0.532,0.469 -0.907,1.089 -1.396,1.602 -0.971,1.018 -1.792,2.274 -3.045,2.924 -1.039,0.539 -2.388,0.184 -3.451,0.674 -1.431,0.659 -2.426,1.999 -3.691,2.932 -1.375,1.013 -3.393,1.414 -4.234,2.891 -0.774,1.36 -0.885,3.232 -0.277,4.67 0.661,1.561 2.618,2.185 3.863,3.346 1.147,1.069 1.977,2.516 3.32,3.332 0.998,0.607 2.379,0.406 3.348,1.059 1.168,0.787 1.836,2.128 2.68,3.248 0.425,0.565 0.724,1.222 1.197,1.748 0.471,0.523 0.978,1.052 1.607,1.373 0.773,0.394 1.669,0.545 2.537,0.613 0.875,0.068 1.751,-0.131 2.625,-0.211 0.875,-0.08 1.744,-0.299 2.621,-0.268 0.872,0.031 1.772,0.101 2.576,0.453 0.806,0.351 1.493,0.925 2.08,1.574 0.587,0.649 1.083,1.376 1.59,2.088 0.507,0.712 1.031,1.416 1.666,2.02 0.635,0.603 1.39,1.104 2.24,1.332 0.694,0.186 1.432,0.186 2.143,0.076 0.711,-0.11 1.399,-0.327 2.076,-0.568 1.354,-0.484 2.703,-1.08 4.141,-1.143 1.39,-0.06 2.764,0.391 3.975,1.066 1.211,0.676 2.28,1.57 3.33,2.471 1.05,0.901 2.098,1.817 3.277,2.545 1.18,0.727 2.512,1.264 3.902,1.324 1.038,0.045 2.073,-0.175 3.055,-0.512 0.982,-0.337 1.919,-0.788 2.861,-1.221 0.943,-0.433 1.9,-0.849 2.904,-1.111 1,-0.263 2.065,-0.366 3.084,-0.168 0.972,0.189 1.875,0.646 2.676,1.223 0.8,0.576 1.507,1.269 2.193,1.975 1.372,1.412 2.744,2.933 4.584,3.658 1.637,0.645 3.493,0.582 5.197,0.135 1.705,-0.447 3.287,-1.256 4.838,-2.088 1.551,-0.832 3.095,-1.696 4.762,-2.268 1.667,-0.572 3.487,-0.839 5.203,-0.441 1.983,0.46 3.642,1.748 5.311,2.9 0.835,0.576 1.692,1.128 2.621,1.539 0.929,0.411 1.938,0.678 2.957,0.656 1.54,-0.032 3.01,-0.724 4.205,-1.688 1.194,-0.963 2.142,-2.188 3.03,-3.436 1.387,-1.953 2.662,-4.01 4.354,-5.709 0.846,-0.851 1.795,-1.61 2.857,-2.176 1.062,-0.566 2.241,-0.935 3.445,-0.994 1.611,-0.079 3.19,0.392 4.746,0.811 1.556,0.419 3.18,0.793 4.77,0.518 1.898,-0.328 3.509,-1.537 4.973,-2.777 1.464,-1.24 2.914,-2.579 4.715,-3.26 1.269,-0.48 2.661,-0.604 4.01,-0.432 1.347,0.172 2.646,0.637 3.832,1.289 2.372,1.304 4.261,3.324 5.91,5.455 0.047,0.06 0.09,0.123 0.137,0.184 -0.57,9.805 -0.627,19.629 0.23,29.406 0.184,2.1 0.412,4.2 0.688,6.295 -4.844,-0.909 -9.879,-0.815 -14.678,0.316 -0.797,0.188 -1.586,0.405 -2.367,0.648 -5.469,1.705 -10.519,4.751 -14.559,8.811 8.386,-1.029 17.09,0.778 24.375,5.059 6.174,3.63 11.306,9.01 14.639,15.344 l -0.057,-1.475 c 1.7,4.176 3.681,8.235 5.996,12.12 7.295,12.241 17.97,22.733 31.09,28.29 5.228,2.216 10.797,3.602 16.447,4.162 v 16.705 h 14.707 v -16.705 c 5.649,-0.56 11.218,-1.946 16.445,-4.162 13.12,-5.562 23.795,-16.05 31.09,-28.29 2.316,-3.886 4.297,-7.947 5.998,-12.12 l -0.057,1.48 c 3.333,-6.334 8.464,-11.714 14.639,-15.344 7.281,-4.28 15.99,-6.088 24.375,-5.059 -4.04,-4.06 -9.09,-7.105 -14.559,-8.811 -0.781,-0.244 -1.57,-0.461 -2.367,-0.648 -4.799,-1.132 -9.835,-1.225 -14.68,-0.316 0.275,-2.095 0.505,-4.195 0.689,-6.295 0.858,-9.777 0.8,-19.6 0.23,-29.404 0.047,-0.061 0.09,-0.125 0.137,-0.186 1.649,-2.131 3.536,-4.151 5.908,-5.455 1.186,-0.652 2.485,-1.117 3.832,-1.289 1.347,-0.172 2.741,-0.048 4.01,0.432 1.8,0.681 3.251,2.02 4.715,3.26 1.464,1.24 3.072,2.449 4.971,2.777 1.589,0.275 3.214,-0.098 4.77,-0.518 1.556,-0.419 3.135,-0.889 4.746,-0.811 1.205,0.059 2.383,0.428 3.445,0.994 1.062,0.566 2.01,1.325 2.857,2.176 1.691,1.702 2.967,3.756 4.354,5.709 0.885,1.247 1.833,2.472 3.03,3.436 1.194,0.963 2.665,1.655 4.205,1.688 1.019,0.021 2.028,-0.245 2.957,-0.656 0.929,-0.411 1.787,-0.963 2.621,-1.539 1.669,-1.153 3.329,-2.441 5.313,-2.9 1.716,-0.398 3.535,-0.13 5.201,0.441 1.666,0.571 3.211,1.436 4.762,2.268 1.551,0.832 3.133,1.64 4.838,2.088 1.705,0.447 3.56,0.51 5.197,-0.135 1.84,-0.725 3.212,-2.246 4.584,-3.658 0.686,-0.706 1.393,-1.398 2.193,-1.975 0.801,-0.576 1.704,-1.034 2.676,-1.223 1.019,-0.198 2.079,-0.095 3.084,0.168 1,0.263 1.962,0.679 2.904,1.111 0.943,0.433 1.879,0.884 2.861,1.221 0.982,0.336 2.02,0.557 3.055,0.512 1.39,-0.061 2.723,-0.597 3.902,-1.324 1.18,-0.728 2.227,-1.644 3.277,-2.545 1.05,-0.901 2.119,-1.795 3.33,-2.471 1.211,-0.676 2.584,-1.127 3.975,-1.066 1.437,0.062 2.787,0.659 4.141,1.143 0.677,0.242 1.365,0.458 2.076,0.568 0.711,0.11 1.449,0.11 2.143,-0.076 0.851,-0.228 1.605,-0.729 2.24,-1.332 0.635,-0.603 1.159,-1.307 1.666,-2.02 0.507,-0.712 1,-1.439 1.59,-2.088 0.587,-0.649 1.276,-1.223 2.082,-1.574 0.804,-0.352 1.705,-0.422 2.576,-0.453 0.878,-0.032 1.745,0.188 2.619,0.268 0.874,0.08 1.752,0.279 2.627,0.211 0.868,-0.068 1.762,-0.219 2.535,-0.613 0.63,-0.321 1.137,-0.85 1.607,-1.373 0.473,-0.526 0.774,-1.183 1.199,-1.748 0.843,-1.121 1.51,-2.461 2.678,-3.248 0.968,-0.652 2.351,-0.452 3.35,-1.059 1.343,-0.816 2.173,-2.263 3.32,-3.332 1.245,-1.161 3.2,-1.785 3.861,-3.346 0.608,-1.438 0.497,-3.31 -0.277,-4.67 -0.841,-1.477 -2.858,-1.878 -4.232,-2.891 -1.266,-0.933 -2.262,-2.273 -3.693,-2.932 -1.063,-0.49 -2.412,-0.135 -3.451,-0.674 -1.253,-0.65 -2.074,-1.906 -3.045,-2.924 -0.489,-0.513 -0.864,-1.133 -1.396,-1.602 -0.529,-0.466 -1.097,-0.934 -1.76,-1.182 -0.815,-0.304 -1.724,-0.353 -2.594,-0.322 -0.877,0.031 -1.723,0.328 -2.582,0.506 -0.859,0.178 -1.697,0.493 -2.572,0.561 -0.869,0.067 -1.771,0.099 -2.611,-0.158 -0.842,-0.258 -1.594,-0.754 -2.254,-1.332 -0.66,-0.578 -1.237,-1.24 -1.824,-1.891 -0.588,-0.65 -1.194,-1.293 -1.896,-1.82 -0.702,-0.528 -1.511,-0.938 -2.383,-1.068 -0.711,-0.106 -1.444,-0.024 -2.137,0.166 -0.693,0.19 -1.352,0.484 -1.996,0.801 -1.287,0.633 -2.556,1.376 -3.977,1.6 -1.374,0.217 -2.791,-0.077 -4.074,-0.611 -1.283,-0.534 -2.452,-1.3 -3.602,-2.076 -1.15,-0.776 -2.297,-1.569 -3.555,-2.158 -1.258,-0.589 -2.645,-0.974 -4.03,-0.877 -1.036,0.072 -2.039,0.41 -2.975,0.855 -0.935,0.445 -1.812,0.999 -2.697,1.535 -0.885,0.536 -1.785,1.057 -2.752,1.432 -0.967,0.375 -2.01,0.597 -3.045,0.516 -0.988,-0.078 -1.939,-0.43 -2.803,-0.912 -0.863,-0.482 -1.647,-1.093 -2.412,-1.717 -1.53,-1.247 -3.073,-2.603 -4.986,-3.115 -0.426,-0.114 -0.86,-0.182 -1.297,-0.211 -1.312,-0.086 -2.653,0.188 -3.883,0.666 -1.64,0.637 -3.117,1.62 -4.559,2.621 -1.442,1 -2.871,2.035 -4.459,2.791 -1.588,0.755 -3.364,1.226 -5.115,1.023 -2.024,-0.234 -3.823,-1.33 -5.617,-2.287 -0.897,-0.479 -1.817,-0.932 -2.789,-1.234 -0.972,-0.302 -2,-0.449 -3.01,-0.311 -1.524,0.21 -2.899,1.068 -3.969,2.16 -1.07,1.092 -1.867,2.412 -2.609,3.744 -1.158,2.078 -2.217,4.23 -3.703,6.094 -1.486,1.864 -3.476,3.449 -5.828,3.93 -1.575,0.322 -3.209,0.132 -4.805,-0.074 -1.596,-0.207 -3.219,-0.431 -4.807,-0.174 -1.936,0.314 -3.7,1.334 -5.156,2.631 -1.457,1.297 -2.633,2.867 -3.748,4.461 -1.409,2.01 -2.735,4.085 -3.977,6.205 -0.409,0.137 -0.819,0.271 -1.227,0.412 -3,1.04 -6,2.215 -8.592,4.04 -0.206,-2.299 -0.425,-4.597 -0.668,-6.891 -0.707,-6.674 -1.553,-13.324 -2.51,-19.957 1.591,-3.292 3.587,-6.387 5.951,-9.176 6.123,-7.222 14.672,-12.352 23.926,-14.355 -5.775,-2.811 -12.244,-4.176 -18.662,-3.965 -0.917,0.03 -1.832,0.093 -2.744,0.188 -4.285,0.446 -8.487,1.618 -12.402,3.414 -0.92,-5.01 -1.9,-10 -2.922,-14.994 0.457,-0.753 0.926,-1.497 1.42,-2.227 1.791,-2.645 3.871,-5.177 6.574,-6.895 1.351,-0.859 2.849,-1.501 4.424,-1.803 1.575,-0.302 3.227,-0.256 4.758,0.221 2.171,0.677 3.976,2.159 5.791,3.523 1.815,1.364 3.799,2.683 6.06,2.936 1.893,0.211 3.782,-0.35 5.586,-0.959 1.804,-0.609 3.632,-1.28 5.537,-1.303 1.424,-0.017 2.84,0.335 4.133,0.93 1.293,0.595 2.467,1.425 3.525,2.373 2.116,1.896 3.766,4.238 5.541,6.453 1.133,1.415 2.337,2.798 3.814,3.854 1.477,1.056 3.26,1.77 5.078,1.697 1.202,-0.048 2.373,-0.438 3.439,-0.992 1.066,-0.554 2.038,-1.27 2.98,-2.01 1.885,-1.487 3.748,-3.132 6.05,-3.82 1.994,-0.596 4.157,-0.411 6.162,0.146 2.01,0.557 3.89,1.47 5.777,2.344 1.888,0.874 3.812,1.72 5.854,2.127 2.042,0.407 4.232,0.348 6.115,-0.535 2.117,-0.993 3.627,-2.895 5.143,-4.668 0.758,-0.886 1.541,-1.759 2.443,-2.5 0.902,-0.741 1.934,-1.348 3.066,-1.643 1.187,-0.308 2.443,-0.262 3.646,-0.023 1.203,0.239 2.361,0.663 3.504,1.107 1.142,0.445 2.279,0.912 3.461,1.24 1.182,0.328 2.419,0.515 3.639,0.387 1.634,-0.172 3.165,-0.904 4.504,-1.852 1.338,-0.948 2.508,-2.11 3.682,-3.254 1.173,-1.143 2.369,-2.281 3.748,-3.17 1.379,-0.888 2.964,-1.522 4.607,-1.551 1.699,-0.03 3.334,0.577 4.965,1.053 0.815,0.238 1.642,0.446 2.488,0.525 0.846,0.079 1.715,0.024 2.52,-0.246 0.986,-0.331 1.84,-0.977 2.545,-1.738 0.705,-0.761 1.274,-1.637 1.82,-2.518 0.546,-0.881 1.077,-1.776 1.723,-2.588 0.646,-0.812 1.415,-1.543 2.34,-2.02 0.922,-0.476 1.981,-0.623 3.01,-0.723 1.032,-0.101 2.071,0.096 3.107,0.127 1.037,0.032 2.085,0.207 3.111,0.063 1.018,-0.143 2.062,-0.389 2.945,-0.912 0.719,-0.426 1.278,-1.09 1.795,-1.744 0.52,-0.658 0.827,-1.458 1.287,-2.158 0.914,-1.389 1.606,-3.03 2.926,-4.045 1.094,-0.843 2.738,-0.705 3.871,-1.496 1.525,-1.065 2.398,-2.839 3.674,-4.189 1.384,-1.466 3.647,-2.346 4.314,-4.244 0.613,-1.749 0.348,-3.964 -0.662,-5.52 -1.098,-1.69 -3.506,-2.02 -5.199,-3.119 -1.559,-1.014 -2.828,-2.533 -4.563,-3.211 -1.289,-0.504 -2.854,0.015 -4.117,-0.549 -1.524,-0.68 -2.584,-2.109 -3.801,-3.246 -0.613,-0.573 -1.099,-1.279 -1.76,-1.797 -0.658,-0.515 -1.361,-1.03 -2.16,-1.275 -0.983,-0.302 -2.056,-0.294 -3.08,-0.195 -1.032,0.1 -2.01,0.514 -3.01,0.787 -1,0.273 -1.963,0.706 -2.99,0.85 -1.02,0.143 -2.083,0.248 -3.092,0.004 -1.012,-0.245 -1.932,-0.78 -2.752,-1.418 -0.82,-0.638 -1.548,-1.381 -2.287,-2.109 -0.739,-0.728 -1.5,-1.447 -2.365,-2.02 -0.866,-0.575 -1.85,-1 -2.887,-1.094 -0.846,-0.075 -1.703,0.075 -2.506,0.35 -0.803,0.275 -1.559,0.672 -2.295,1.094 -1.472,0.844 -2.914,1.815 -4.572,2.184 -1.604,0.356 -3.299,0.111 -4.85,-0.43 -1.551,-0.541 -2.981,-1.366 -4.393,-2.203 -1.411,-0.837 -2.82,-1.693 -4.346,-2.301 -1.525,-0.608 -3.189,-0.963 -4.818,-0.748 -1.216,0.16 -2.374,0.633 -3.445,1.229 -1.071,0.595 -2.065,1.314 -3.07,2.01 -1,0.7 -2.028,1.385 -3.141,1.898 -1.113,0.514 -2.324,0.852 -3.551,0.83 -1.17,-0.021 -2.317,-0.37 -3.369,-0.879 -1.052,-0.509 -2.02,-1.175 -2.969,-1.859 -1.893,-1.368 -3.807,-2.865 -6.1,-3.334 -0.51,-0.104 -1.027,-0.154 -1.545,-0.156 -1.552,-0.006 -3.114,0.415 -4.529,1.07 -1.888,0.874 -3.558,2.144 -5.186,3.436 -1.628,1.291 -3.239,2.62 -5.057,3.631 -1.818,1.01 -3.878,1.696 -5.957,1.582 -2.403,-0.132 -4.601,-1.299 -6.785,-2.305 -1.092,-0.503 -2.209,-0.973 -3.377,-1.262 -1.168,-0.288 -2.395,-0.388 -3.574,-0.15 -1.782,0.359 -3.341,1.473 -4.523,2.846 -1.183,1.372 -2.027,2.995 -2.807,4.627 -1.216,2.548 -2.31,5.178 -3.928,7.494 -1.618,2.317 -3.852,4.339 -6.59,5.078 -1.834,0.495 -3.772,0.389 -5.668,0.26 -1.896,-0.13 -3.825,-0.277 -5.678,0.143 -2.259,0.512 -4.265,1.848 -5.889,3.49 -1.624,1.643 -2.9,3.589 -4.1,5.559 -1.517,2.49 -2.931,5.04 -4.242,7.645 -0.472,0.192 -0.948,0.379 -1.418,0.576 -3.563,1.491 -7.111,3.146 -10.09,5.6 -0.682,0.563 -1.316,1.179 -1.926,1.818 -5.744,-26.18 -12.623,-52.16 -19.529,-78.11 0.1,-0.152 0.193,-0.308 0.295,-0.459 2.228,-3.312 4.816,-6.481 8.18,-8.631 1.682,-1.075 3.546,-1.88 5.506,-2.258 1.96,-0.377 4.02,-0.32 5.92,0.277 2.702,0.848 4.949,2.704 7.207,4.412 2.258,1.708 4.727,3.358 7.541,3.674 2.356,0.265 4.704,-0.436 6.949,-1.199 2.245,-0.763 4.52,-1.604 6.891,-1.633 1.772,-0.021 3.534,0.42 5.143,1.164 1.609,0.744 3.068,1.784 4.385,2.971 2.633,2.374 4.686,5.307 6.895,8.08 1.41,1.771 2.91,3.502 4.748,4.824 1.838,1.322 4.058,2.216 6.32,2.125 1.496,-0.061 2.951,-0.548 4.277,-1.242 1.327,-0.694 2.538,-1.591 3.711,-2.521 2.345,-1.862 4.661,-3.922 7.529,-4.783 2.482,-0.746 5.174,-0.514 7.67,0.184 2.496,0.698 4.839,1.841 7.188,2.936 2.349,1.094 4.743,2.152 7.283,2.662 2.541,0.51 5.27,0.436 7.613,-0.67 2.634,-1.243 4.51,-3.624 6.396,-5.844 0.943,-1.11 1.92,-2.201 3.043,-3.129 1.123,-0.928 2.403,-1.69 3.813,-2.059 1.477,-0.386 3.044,-0.329 4.541,-0.029 1.497,0.299 2.938,0.832 4.359,1.389 1.422,0.557 2.836,1.142 4.307,1.553 1.47,0.411 3.01,0.643 4.525,0.482 2.034,-0.216 3.942,-1.132 5.607,-2.318 1.665,-1.187 3.118,-2.641 4.578,-4.072 1.46,-1.432 2.948,-2.856 4.664,-3.969 1.716,-1.112 3.692,-1.907 5.736,-1.943 2.114,-0.038 4.145,0.725 6.174,1.32 1.014,0.298 2.045,0.557 3.098,0.656 1.052,0.099 2.133,0.032 3.135,-0.307 1.227,-0.415 2.292,-1.225 3.17,-2.178 0.878,-0.953 1.582,-2.048 2.262,-3.15 0.68,-1.103 1.343,-2.224 2.146,-3.24 0.804,-1.016 1.761,-1.933 2.912,-2.527 1.148,-0.595 2.461,-0.779 3.736,-0.904 1.284,-0.126 2.579,0.121 3.869,0.16 1.29,0.039 2.593,0.257 3.871,0.076 1.267,-0.18 2.567,-0.485 3.666,-1.141 0.895,-0.534 1.591,-1.364 2.234,-2.184 0.647,-0.823 1.029,-1.827 1.602,-2.703 1.137,-1.739 1.996,-3.789 3.639,-5.063 1.362,-1.056 3.406,-0.884 4.816,-1.875 1.898,-1.333 2.987,-3.553 4.574,-5.244 1.723,-1.836 4.537,-2.938 5.367,-5.314 v -0.002 c 0.763,-2.189 0.431,-4.958 -0.826,-6.906 -1.366,-2.116 -4.36,-2.527 -6.467,-3.906 -1.94,-1.27 -3.52,-3.171 -5.678,-4.02 -1.604,-0.631 -3.553,0.018 -5.125,-0.688 -1.896,-0.851 -3.212,-2.641 -4.727,-4.064 -0.763,-0.717 -1.371,-1.602 -2.193,-2.25 -0.818,-0.644 -1.691,-1.288 -2.686,-1.596 -1.223,-0.378 -2.558,-0.368 -3.832,-0.244 -1.284,0.125 -2.5,0.643 -3.744,0.984 -1.244,0.342 -2.445,0.885 -3.723,1.064 -1.269,0.179 -2.589,0.309 -3.844,0.004 -1.259,-0.306 -2.406,-0.975 -3.426,-1.773 -1.02,-0.799 -1.927,-1.731 -2.848,-2.643 -0.92,-0.912 -1.864,-1.81 -2.941,-2.529 -1.077,-0.72 -2.301,-1.257 -3.592,-1.371 -1.053,-0.094 -2.12,0.095 -3.119,0.439 -1,0.344 -1.94,0.841 -2.855,1.369 -1.832,1.056 -3.628,2.271 -5.691,2.732 -1.996,0.446 -4.102,0.14 -6.03,-0.537 -1.93,-0.677 -3.711,-1.71 -5.467,-2.758 -1.756,-1.048 -3.51,-2.12 -5.408,-2.881 -1.898,-0.761 -3.969,-1.205 -5.996,-0.936 -1.513,0.201 -2.953,0.792 -4.285,1.537 -1.332,0.745 -2.57,1.646 -3.82,2.521 -1.251,0.876 -2.526,1.732 -3.91,2.375 -1.385,0.643 -2.893,1.069 -4.42,1.041 -1.456,-0.027 -2.882,-0.464 -4.191,-1.102 -1.31,-0.637 -2.513,-1.471 -3.691,-2.328 -2.356,-1.713 -4.741,-3.587 -7.594,-4.174 -0.635,-0.131 -1.276,-0.193 -1.92,-0.195 -1.932,-0.008 -3.875,0.519 -5.637,1.34 -2.349,1.094 -4.426,2.686 -6.451,4.303 -2.025,1.617 -4.03,3.28 -6.295,4.545 -2.262,1.265 -4.823,2.123 -7.41,1.98 -2.99,-0.165 -5.728,-1.626 -8.445,-2.885 -1.359,-0.629 -2.746,-1.219 -4.199,-1.58 -1.453,-0.361 -2.982,-0.487 -4.449,-0.189 -2.217,0.449 -4.157,1.847 -5.629,3.564 -1.472,1.718 -2.524,3.749 -3.494,5.793 -1.514,3.189 -2.874,6.481 -4.887,9.381 -2.01,2.9 -4.792,5.434 -8.199,6.359 -2.282,0.62 -4.692,0.487 -7.05,0.324 -2.359,-0.162 -4.761,-0.348 -7.07,0.178 -2.811,0.641 -5.307,2.313 -7.328,4.369 -2.02,2.056 -3.608,4.494 -5.102,6.961 -1.887,3.117 -3.647,6.312 -5.279,9.57 -0.588,0.24 -1.177,0.474 -1.762,0.721 -4.434,1.866 -8.851,3.94 -12.553,7.01 -0.479,0.398 -0.94,0.817 -1.391,1.246 -1.614,-6.087 -3.219,-12.174 -4.801,-18.264 -1.57,-6.05 -3.123,-12.13 -3.73,-18.342 -0.608,-6.216 -0.237,-12.624 1.949,-18.475 2.973,-7.959 9.367,-14.571 17.221,-17.813 -3.296,-0.822 -6.699,-1.222 -10.1,-1.188 -5.936,0.061 -12.05,1.561 -16.625,5.344 -2.528,2.09 -4.503,4.81 -5.885,7.785 -1.382,2.975 -2.184,6.2 -2.553,9.459 -0.737,6.519 0.237,13.1 1.311,19.57 6.919,41.696 18.09,82.55 28.504,123.51 9.569,37.623 18.58,76.26 14.924,114.89 -2.031,-1.569 -4.228,-2.923 -6.553,-4.01 -4.446,-2.086 -9.334,-3.219 -14.244,-3.332 -1.637,-0.038 -3.276,0.039 -4.902,0.23 7.208,4.401 12.904,11.222 15.941,19.1 2.575,6.677 3.246,14.08 1.912,21.11 -4.494,10.134 -11.437,19.371 -20.736,25.406 -7.231,4.693 -15.782,7.29 -24.395,7.533 -8.612,-0.244 -17.16,-2.841 -24.393,-7.533 -9.299,-6.03 -16.24,-15.272 -20.734,-25.406 -1.334,-7.03 -0.663,-14.43 1.912,-21.11 3.037,-7.874 8.733,-14.694 15.941,-19.1 -1.626,-0.192 -3.266,-0.268 -4.902,-0.23 -4.91,0.113 -9.798,1.246 -14.244,3.332 -2.325,1.091 -4.523,2.446 -6.555,4.02 -3.657,-38.63 5.356,-77.27 14.926,-114.9 10.418,-40.962 21.583,-81.82 28.502,-123.51 1.074,-6.472 2.047,-13.05 1.311,-19.57 -0.368,-3.259 -1.171,-6.484 -2.553,-9.459 -1.382,-2.975 -3.355,-5.695 -5.883,-7.785 -4.575,-3.783 -10.691,-5.283 -16.627,-5.344 z"
     id="path4742"
     inkscape:connector-curvature="0"
     style="fill:#ffffff;fill-rule:evenodd;stroke:#000000;stroke-width:5" />
  <path
     style="fill-rule:evenodd;stroke:#000000"
     d="m 187.85599,432.70983 c 1.12,3.113 2.865,6 5.1,8.441 2.045,2.233 4.514,4.06 7.217,5.424 -8.06,0.153 -16.13,0.274 -24.18,0.172 -1.374,-0.682 -2.719,-1.423 -4.02,-2.234 -3.665,-2.282 -7.02,-5.063 -9.939,-8.242 0.93,2.559 2.37,4.929 4.213,6.934 1.221,1.328 2.625,2.48 4.148,3.445 -7.408,-0.202 -14.802,-0.639 -22.17,-1.471 -10.708,-1.209 -21.321,-3.25 -31.713,-6.102 9.657,4.083 19.734,7.173 30.02,9.209 4.897,0.969 9.818,1.695 14.76,2.238 -0.462,0.259 -0.915,0.534 -1.355,0.828 -2.263,1.514 -4.223,3.481 -5.729,5.75 3.587,-2.402 7.502,-4.315 11.602,-5.67 0.388,-0.128 0.781,-0.247 1.172,-0.365 7.721,0.639 15.484,0.889 23.268,0.953 -0.739,0.393 -1.465,0.81 -2.16,1.277 -2.746,1.845 -5.12,4.24 -6.941,7 4.343,-2.926 9.09,-5.259 14.06,-6.912 1.594,-0.53 3.211,-0.98 4.846,-1.369 12.23,-0.076 24.488,-0.352 36.695,-0.037 -2.027,0.794 -3.976,1.787 -5.781,3 -3.286,2.215 -6.125,5.089 -8.299,8.402 5.187,-3.512 10.856,-6.311 16.797,-8.297 3.286,-1.098 6.656,-1.939 10.07,-2.531 4.627,0.321 9.241,0.77 13.84,1.398 3.891,0.532 7.765,1.202 11.613,1.984 -5.225,0.781 -10.282,2.719 -14.66,5.678 -3.889,2.628 -7.245,6.04 -9.813,9.967 6.131,-4.166 12.832,-7.49 19.859,-9.848 4.788,-1.606 9.727,-2.752 14.729,-3.445 6.897,1.816 13.691,4.03 20.328,6.643 l -7.02,-7.789 c -7.242,-2.576 -14.654,-4.674 -22.17,-6.297 -0.481,-0.281 -0.959,-0.566 -1.432,-0.861 -4.44,-2.776 -8.501,-6.157 -12.03,-10.02 1.12,3.113 2.863,6 5.098,8.439 0.325,0.354 0.673,0.685 1.018,1.02 -0.654,-0.112 -1.306,-0.232 -1.961,-0.338 -8.01,-1.289 -16.07,-2.01 -24.15,-2.408 -2.109,-0.987 -4.162,-2.094 -6.137,-3.328 -4.44,-2.776 -8.501,-6.159 -12.03,-10.03 1.12,3.113 2.865,6 5.1,8.439 1.674,1.828 3.636,3.382 5.771,4.639 -9.518,-0.249 -19.07,-0.128 -28.625,0.051 -2.405,-1.079 -4.737,-2.321 -6.973,-3.719 -4.44,-2.776 -8.501,-6.159 -12.03,-10.03 z m 349.97,0 c -3.532,3.866 -7.593,7.249 -12.03,10.03 -2.235,1.397 -4.57,2.639 -6.975,3.719 -9.557,-0.179 -19.11,-0.3 -28.623,-0.051 2.136,-1.257 4.097,-2.811 5.771,-4.639 2.234,-2.44 3.978,-5.326 5.098,-8.439 -3.532,3.866 -7.593,7.249 -12.03,10.03 -1.974,1.234 -4.03,2.341 -6.135,3.328 -8.08,0.398 -16.14,1.119 -24.15,2.408 -0.655,0.106 -1.307,0.226 -1.961,0.338 0.345,-0.335 0.691,-0.665 1.016,-1.02 2.234,-2.44 3.98,-5.326 5.1,-8.439 -3.532,3.866 -7.593,7.247 -12.03,10.02 -0.472,0.295 -0.951,0.58 -1.432,0.861 -7.514,1.623 -14.926,3.721 -22.17,6.297 l -7.02,7.789 c 6.637,-2.612 13.429,-4.826 20.326,-6.643 5,0.693 9.943,1.839 14.73,3.445 7.03,2.357 13.729,5.681 19.859,9.848 -2.567,-3.929 -5.924,-7.339 -9.813,-9.967 -4.378,-2.959 -9.435,-4.897 -14.66,-5.678 3.849,-0.782 7.722,-1.452 11.613,-1.984 4.599,-0.628 9.213,-1.077 13.84,-1.398 3.414,0.592 6.784,1.433 10.07,2.531 5.941,1.986 11.61,4.785 16.797,8.297 -2.174,-3.313 -5.01,-6.187 -8.299,-8.402 -1.806,-1.217 -3.754,-2.21 -5.781,-3 12.207,-0.315 24.463,-0.039 36.693,0.037 1.634,0.389 3.253,0.839 4.848,1.369 4.969,1.653 9.712,3.986 14.05,6.912 -1.821,-2.762 -4.195,-5.157 -6.941,-7 -0.695,-0.467 -1.419,-0.884 -2.158,-1.277 7.784,-0.064 15.546,-0.314 23.268,-0.953 0.391,0.118 0.782,0.237 1.17,0.365 4.099,1.355 8.01,3.267 11.602,5.67 -1.506,-2.269 -3.464,-4.236 -5.727,-5.75 -0.44,-0.295 -0.894,-0.569 -1.355,-0.828 4.941,-0.543 9.863,-1.269 14.76,-2.238 10.285,-2.036 20.363,-5.126 30.02,-9.209 -10.392,2.851 -21.01,4.893 -31.715,6.102 -7.364,0.831 -14.756,1.269 -22.16,1.471 1.523,-0.965 2.928,-2.118 4.148,-3.445 1.843,-2 3.283,-4.374 4.213,-6.934 -2.921,3.179 -6.276,5.96 -9.941,8.242 -1.302,0.811 -2.647,1.552 -4.02,2.234 -8.05,0.102 -16.11,-0.019 -24.18,-0.172 2.703,-1.364 5.172,-3.191 7.217,-5.424 2.234,-2.44 3.98,-5.328 5.1,-8.441 z"
     id="path4744"
     inkscape:connector-curvature="0" />
  <path
     style="fill-rule:evenodd;stroke:#000000"
     d="m 191.86599,530.65983 c 0.9,2.486 2.304,4.794 4.1,6.742 1.644,1.784 3.626,3.243 5.799,4.332 -6.481,0.122 -12.962,0.218 -19.432,0.137 -1.104,-0.545 -2.184,-1.135 -3.23,-1.783 -2.945,-1.823 -5.641,-4.045 -7.988,-6.584 0.747,2.044 1.904,3.936 3.385,5.537 0.981,1.06 2.11,1.981 3.334,2.752 -5.953,-0.161 -11.894,-0.51 -17.813,-1.174 -8.605,-0.965 -17.14,-2.596 -25.486,-4.873 7.761,3.261 15.859,5.729 24.12,7.355 3.935,0.774 7.89,1.353 11.861,1.787 -0.371,0.207 -0.736,0.427 -1.09,0.662 -1.819,1.21 -3.393,2.78 -4.604,4.592 2.883,-1.919 6.03,-3.447 9.324,-4.529 0.312,-0.102 0.627,-0.197 0.941,-0.291 6.205,0.51 12.444,0.71 18.699,0.762 -0.594,0.314 -1.178,0.647 -1.736,1.02 -2.207,1.474 -4.115,3.388 -5.578,5.594 3.49,-2.337 7.304,-4.201 11.297,-5.521 1.281,-0.424 2.579,-0.783 3.893,-1.094 9.829,-0.061 19.68,-0.281 29.49,-0.029 -1.629,0.634 -3.195,1.426 -4.646,2.398 -2.64,1.769 -4.921,4.067 -6.668,6.713 4.169,-2.805 8.724,-5.04 13.498,-6.627 2.641,-0.877 5.348,-1.55 8.092,-2.023 3.718,0.257 7.427,0.615 11.123,1.117 3.127,0.425 6.239,0.961 9.332,1.586 -4.199,0.624 -8.263,2.172 -11.781,4.535 -3.125,2.099 -5.822,4.822 -7.885,7.961 4.927,-3.328 10.311,-5.984 15.959,-7.867 3.847,-1.283 7.816,-2.198 11.836,-2.752 5.543,1.451 11,3.221 16.338,5.307 l -5.639,-6.221 c -5.82,-2.058 -11.776,-3.735 -17.814,-5.03 -0.386,-0.225 -0.771,-0.452 -1.15,-0.688 -3.568,-2.217 -6.833,-4.918 -9.672,-8.01 0.9,2.486 2.302,4.792 4.098,6.74 0.261,0.283 0.541,0.547 0.818,0.814 -0.526,-0.09 -1.05,-0.185 -1.576,-0.27 -6.438,-1.03 -12.912,-1.606 -19.408,-1.924 -1.695,-0.789 -3.345,-1.672 -4.932,-2.658 -3.568,-2.217 -6.831,-4.92 -9.67,-8.01 0.9,2.486 2.302,4.794 4.098,6.742 1.345,1.46 2.922,2.701 4.639,3.705 -7.649,-0.199 -15.324,-0.102 -23,0.041 -1.933,-0.862 -3.807,-1.854 -5.604,-2.971 -3.568,-2.217 -6.833,-4.92 -9.672,-8.01 z m 341.96,0 c -2.838,3.088 -6.103,5.79 -9.672,8.01 -1.796,1.116 -3.671,2.108 -5.604,2.971 -7.68,-0.143 -15.355,-0.24 -23,-0.041 1.716,-1 3.293,-2.245 4.639,-3.705 1.796,-1.949 3.198,-4.256 4.098,-6.742 -2.838,3.088 -6.102,5.79 -9.67,8.01 -1.587,0.986 -3.237,1.87 -4.932,2.658 -6.496,0.318 -12.971,0.894 -19.408,1.924 -0.526,0.085 -1.051,0.18 -1.576,0.27 0.277,-0.267 0.558,-0.531 0.818,-0.814 1.796,-1.949 3.198,-4.254 4.098,-6.74 -2.838,3.088 -6.103,5.789 -9.672,8.01 -0.38,0.236 -0.764,0.463 -1.15,0.688 -6.04,1.296 -11.994,2.973 -17.814,5.03 l -5.639,6.221 c 5.334,-2.086 10.795,-3.854 16.338,-5.305 4.02,0.553 7.988,1.467 11.836,2.75 5.648,1.883 11.03,4.539 15.959,7.867 -2.063,-3.139 -4.759,-5.862 -7.885,-7.961 -3.519,-2.363 -7.582,-3.912 -11.781,-4.535 3.093,-0.625 6.205,-1.161 9.332,-1.586 3.696,-0.502 7.405,-0.861 11.123,-1.117 2.744,0.473 5.451,1.146 8.092,2.023 4.775,1.586 9.329,3.822 13.498,6.627 -1.747,-2.646 -4.03,-4.944 -6.668,-6.713 -1.451,-0.972 -3.02,-1.764 -4.646,-2.398 9.81,-0.252 19.662,-0.032 29.49,0.029 1.313,0.311 2.611,0.67 3.893,1.094 3.993,1.32 7.807,3.184 11.297,5.521 -1.464,-2.206 -3.371,-4.12 -5.578,-5.594 -0.559,-0.373 -1.143,-0.705 -1.736,-1.02 6.255,-0.051 12.494,-0.251 18.699,-0.762 0.314,0.095 0.63,0.19 0.941,0.293 3.294,1.083 6.441,2.608 9.324,4.527 -1.21,-1.812 -2.785,-3.382 -4.604,-4.592 -0.354,-0.235 -0.719,-0.455 -1.09,-0.662 3.971,-0.434 7.926,-1.013 11.861,-1.787 8.266,-1.626 16.364,-4.094 24.12,-7.355 -8.351,2.277 -16.881,3.908 -25.486,4.873 -5.918,0.664 -11.859,1.012 -17.813,1.174 1.224,-0.771 2.353,-1.692 3.334,-2.752 1.481,-1.601 2.638,-3.493 3.385,-5.537 -2.347,2.539 -5.04,4.761 -7.988,6.584 -1.047,0.648 -2.126,1.239 -3.23,1.783 -6.469,0.081 -12.95,-0.015 -19.432,-0.137 2.172,-1.089 4.155,-2.548 5.799,-4.332 1.796,-1.949 3.2,-4.256 4.1,-6.742 z"
     id="path4746"
     inkscape:connector-curvature="0" />
  <path
     style="fill-rule:evenodd;stroke:#000000"
     d="m 222.58599,618.08983 c 0.888,2.043 2.191,3.91 3.809,5.455 1.212,1.158 2.607,2.12 4.109,2.875 -6.475,0.227 -12.956,0.703 -19.439,1.219 -1.678,-0.625 -3.313,-1.363 -4.889,-2.209 -3.129,-1.68 -6.03,-3.781 -8.582,-6.23 0.888,2.043 2.191,3.91 3.809,5.455 1.48,1.414 3.231,2.538 5.123,3.342 -5.471,0.436 -10.944,0.851 -16.416,1.115 -0.961,-0.401 -1.905,-0.842 -2.822,-1.332 -2.583,-1.38 -4.974,-3.11 -7.088,-5.123 0.736,1.68 1.811,3.211 3.145,4.48 0.883,0.841 1.885,1.556 2.959,2.141 -5.04,0.171 -10.08,0.183 -15.12,-0.07 -7.322,-0.368 -14.614,-1.299 -21.789,-2.783 6.726,2.341 13.697,3.999 20.766,4.939 3.366,0.448 6.739,0.732 10.117,0.893 -0.303,0.193 -0.6,0.395 -0.887,0.611 -1.475,1.11 -2.726,2.512 -3.656,4.098 2.338,-1.761 4.92,-3.208 7.648,-4.287 0.258,-0.102 0.52,-0.197 0.781,-0.293 5.27,0.109 10.552,-0.043 15.842,-0.322 -0.486,0.295 -0.963,0.603 -1.416,0.945 -1.79,1.352 -3.304,3.059 -4.428,4.988 2.83,-2.144 5.958,-3.908 9.266,-5.223 1.061,-0.422 2.14,-0.79 3.234,-1.119 8.304,-0.557 16.618,-1.25 24.922,-1.543 -1.344,0.617 -2.626,1.364 -3.803,2.256 -2.141,1.623 -3.952,3.669 -5.293,5.982 3.38,-2.572 7.114,-4.685 11.07,-6.264 2.187,-0.873 4.442,-1.576 6.736,-2.115 3.156,0.024 6.308,0.134 9.457,0.365 2.665,0.196 5.323,0.486 7.969,0.852 -3.517,0.74 -6.872,2.251 -9.725,4.418 -2.534,1.925 -4.675,4.352 -6.258,7.096 3.994,-3.05 8.409,-5.558 13.09,-7.432 3.186,-1.276 6.494,-2.25 9.863,-2.922 4.759,0.934 9.463,2.139 14.08,3.617 l -5.084,-4.938 c -5.02,-1.43 -10.143,-2.53 -15.313,-3.309 -0.338,-0.169 -0.675,-0.341 -1.01,-0.52 -3.129,-1.68 -6.03,-3.781 -8.584,-6.23 0.888,2.043 2.191,3.91 3.809,5.455 0.235,0.224 0.485,0.43 0.732,0.641 -0.449,-0.048 -0.896,-0.101 -1.346,-0.145 -5.494,-0.534 -10.996,-0.684 -16.502,-0.617 -1.473,-0.575 -2.913,-1.234 -4.305,-1.98 -3.129,-1.68 -6.02,-3.783 -8.582,-6.232 z m 280.53,0 c -2.557,2.449 -5.453,4.553 -8.582,6.232 -1.391,0.747 -2.832,1.405 -4.305,1.98 -5.506,-0.067 -11.01,0.083 -16.502,0.617 -0.449,0.044 -0.897,0.096 -1.346,0.145 0.248,-0.21 0.499,-0.416 0.734,-0.641 1.617,-1.545 2.919,-3.412 3.807,-5.455 -2.557,2.449 -5.453,4.551 -8.582,6.23 -0.333,0.179 -0.67,0.35 -1.01,0.52 -5.17,0.778 -10.29,1.879 -15.314,3.309 l -5.084,4.938 c 4.615,-1.478 9.319,-2.683 14.08,-3.617 3.369,0.672 6.677,1.646 9.863,2.922 4.677,1.873 9.09,4.381 13.09,7.432 -1.583,-2.744 -3.724,-5.171 -6.258,-7.096 -2.853,-2.167 -6.208,-3.678 -9.725,-4.418 2.646,-0.366 5.304,-0.655 7.969,-0.852 3.149,-0.232 6.301,-0.341 9.457,-0.365 2.295,0.539 4.549,1.242 6.736,2.115 3.954,1.579 7.691,3.692 11.07,6.264 -1.341,-2.314 -3.152,-4.36 -5.293,-5.982 -1.177,-0.892 -2.46,-1.639 -3.805,-2.256 8.304,0.293 16.618,0.986 24.922,1.543 1.094,0.329 2.175,0.697 3.236,1.119 3.307,1.315 6.434,3.079 9.264,5.223 -1.124,-1.929 -2.638,-3.636 -4.428,-4.988 -0.453,-0.342 -0.93,-0.651 -1.416,-0.945 5.29,0.279 10.573,0.432 15.844,0.322 0.261,0.096 0.523,0.191 0.781,0.293 2.729,1.079 5.308,2.526 7.646,4.287 -0.93,-1.585 -2.179,-2.987 -3.654,-4.098 -0.287,-0.216 -0.584,-0.418 -0.887,-0.611 3.378,-0.16 6.75,-0.445 10.115,-0.893 7.07,-0.941 14.04,-2.598 20.766,-4.939 -7.175,1.484 -14.467,2.415 -21.789,2.783 -5.04,0.253 -10.08,0.241 -15.12,0.07 1.074,-0.585 2.076,-1.3 2.959,-2.141 1.334,-1.269 2.408,-2.801 3.145,-4.48 -2.114,2.01 -4.505,3.743 -7.088,5.123 -0.918,0.49 -1.861,0.931 -2.822,1.332 -5.472,-0.265 -10.945,-0.679 -16.416,-1.115 1.892,-0.804 3.643,-1.928 5.123,-3.342 1.617,-1.545 2.921,-3.412 3.809,-5.455 -2.557,2.449 -5.453,4.551 -8.582,6.23 -1.575,0.846 -3.211,1.584 -4.889,2.209 -6.484,-0.516 -12.965,-0.992 -19.439,-1.219 1.502,-0.755 2.898,-1.717 4.109,-2.875 1.617,-1.545 2.921,-3.412 3.809,-5.455 z"
     id="path4748"
     inkscape:connector-curvature="0" />
</svg>
