<svg xmlns="http://www.w3.org/2000/svg" height="561" width="500"><path d="M5.79 51.257L22.64 331.67C30.374 460.345 118.6 554.945 250 555.139c131.4.193 219.627-94.408 227.36-223.083l16.85-280.413C421.36 22.056 341.36 6.056 250 5.863 158.64 5.67 78.64 21.67 5.79 51.257z" fill="red" fill-rule="evenodd"/><path d="M5.79 51.257C84.095 23.733 163.496.592 250 5.863c81.403 1.952 162.806 10.87 244.21 45.78l-1.914 16.95-484.768.003zM10.037 114.596l478-.006-3.705 45.997-470.767.009z" fill="#fff" fill-rule="evenodd" stroke="#000" stroke-width="5" stroke-linecap="round"/><path d="M159.264 535.965c-22.643-25.798-25.812-51.066-5.643-63.396 11.466-7.01 29.846-10.138 41.104 5.171 8.072 10.977 12.777 3.902 13.585-5.495 2.255-26.251 19.34-39.245 41.375-38.384 22.036-.582 39.1 12.439 41.314 38.693.792 9.399 5.486 16.48 13.576 5.517 11.282-15.29 29.657-12.134 41.112-5.106 20.15 12.363 16.94 37.626-5.744 63.387-33.8 14.96-60.62 20.005-90.357 20.174-29.738-.46-56.547-5.548-90.322-20.56z" fill="gold" fill-rule="evenodd" stroke="#000" stroke-width="5" stroke-linecap="round" stroke-linejoin="round"/><path d="M157.01 430.38c16.711-10.048 3.232-27.614-1.053-25.038 1.19-16.79 8.954-31.683 19.08-45.893 3.091 5.142 14.232-1.557 11.14-6.7 2.577 4.286 12.861-1.898 10.285-6.183l130.266-78.325 25.764 42.85 38.566-23.187-15.459-25.71-12.855 7.729 7.73 12.855-12.856 7.73-18.035-29.996 62.562-37.617 18.035 29.996-12.855 7.73-7.73-12.856-12.855 7.73 15.46 25.71 38.565-23.189L415 215.166l17.14-10.306c8.57-5.153-2.251-23.15-10.821-17.997L185.64 328.569c-2.06-3.428-12.345 2.756-10.284 6.184-2.576-4.285-13.717 2.413-11.14 6.698-18.826 6.143-34.65 2.373-49.483-4.67 4.286-2.576-4.908-22.719-21.62-12.67-16.712 10.048-3.233 27.614 1.052 25.038-.929 15.747-3.354 31.371-19.079 45.893-2.577-4.285-23.492 3.624-13.444 20.335 10.049 16.712 26.842 1.948 24.265-2.337 16.762-2.305 33.528-4.655 49.482 4.67-4.285 2.576 4.909 22.719 21.62 12.67zm-44.574-74.131c-2.724 13.53-8.417 26.323-16.513 38.517 13.345-.141 26.844.066 41.763 3.476 3.001-13.438 9.092-25.802 15.657-38.001-14.42 1.82-27.991.23-40.907-3.992z" fill="#fff" fill-rule="evenodd" stroke="#000" stroke-width="5" stroke-linecap="round" stroke-linejoin="round"/><path d="M155.957 405.342c-5.78 5.912-12.648 10.015-20.568 12.368m-60.303-22.668c2.413 6.717 5.465 13.05 10.821 17.998m28.826-76.259c-6.999 2.284-13.926 5.495-20.568 12.368m70.05-7.698l10.821 17.998m.32-24.696l10.822 17.997m-.537-24.18l10.82 17.996" fill="none" stroke="#000" stroke-width="5" stroke-linecap="round" stroke-linejoin="round"/><path d="M342.969 430.115c-16.74-10-3.312-27.605.98-25.04-1.237-16.787-9.043-31.658-19.21-45.84-3.076 5.151-14.236-1.516-11.16-6.667-2.564 4.293-12.865-1.861-10.301-6.154L172.79 268.461l-25.643 42.923-38.632-23.078 15.386-25.754 12.877 7.693-7.693 12.877 12.878 7.692 17.95-30.046-62.67-37.438-17.95 30.046 12.878 7.693 7.693-12.877 12.877 7.693-15.386 25.754-38.631-23.078 25.642-42.924-17.169-10.257c-8.585-5.129 2.185-23.157 10.77-18.028l236.08 141.034c2.052-3.434 12.354 2.72 10.303 6.154 2.564-4.292 13.724 2.375 11.16 6.668 18.842 6.088 34.655 2.273 49.468-4.811-4.292-2.565 4.844-22.733 21.585-12.733 16.74 10.001 3.31 27.605-.982 25.041.974 15.745 3.445 31.362 19.21 45.84 2.565-4.293 23.503 3.556 13.502 20.296-10 16.74-26.836 2.024-24.272-2.269-16.768-2.256-33.54-4.558-49.468 4.811 4.293 2.564-4.844 22.733-21.584 12.732zm44.362-74.258c2.763 13.524 8.492 26.3 16.623 38.47-13.346-.103-26.845.142-41.753 3.596-3.04-13.43-9.166-25.777-15.765-37.957 14.425 1.779 27.991.15 40.895-4.109z" fill="#fff" fill-rule="evenodd" stroke="#000" stroke-width="5" stroke-linecap="round" stroke-linejoin="round"/><path d="M343.95 405.075c5.797 5.895 12.677 9.978 20.603 12.308m60.238-22.839c-2.394 6.724-5.427 13.066-10.77 18.028m-29.043-76.175c7.006 2.263 13.942 5.454 20.603 12.308m-70.071-7.497l-10.77 18.028m-.39-24.696l-10.77 18.028m.468-24.182l-10.77 18.028" fill="none" stroke="#000" stroke-width="5" stroke-linecap="round" stroke-linejoin="round"/><path d="M5.79 51.257L22.64 331.67C30.374 460.345 118.6 554.945 250 555.139c131.4.193 219.627-94.408 227.36-223.083l16.85-280.413C421.36 22.056 341.36 6.056 250 5.863 158.64 5.67 78.64 21.67 5.79 51.257z" fill="none" stroke="#000004" stroke-width="10" stroke-linecap="round" stroke-linejoin="round"/><path d="M244.179 505.488c2.447-.14 4.894-.565 7.34 1.652m-6.055-10.277c2.493-.143 5.308-3.088 7.34 1.835m2.277-7.605c-2.746-2.58-5.739-2.88-8.864-1.958m11.652-7.037c-4.432-1.882-6.854-1.493-9.935-.78m10.94-6.351c-2.725-2.801-6.454-2.416-10.416-1.293m14.004-7.699c-3.425-1.68-7.005-2.87-11.661-.644m14.557-8.064c-4.524-1.822-8.585-2.4-11.739-.532m14.006-8.806c-4.615-1.84-9.333-2.384-14.309.357m63.513 71.446c-1.244-3.557-3.76-5.204-6.957-5.83m13.585-.86c-3.062-3.716-5.39-4.49-8.452-5.28m12.636-.582c-1.124-3.743-4.609-5.123-8.641-5.956m15.976-.362c-2.262-3.073-4.887-5.78-10.046-5.956m16.636-.43c-3.17-3.706-6.507-6.093-10.166-5.894m16.49-1.342c-3.244-3.764-7.177-6.425-12.856-6.292m-142.942 32.728c1.244-3.557 3.76-5.204 6.957-5.83m-13.584-.86c3.062-3.716 5.39-4.49 8.451-5.28m-12.635-.582c1.123-3.743 4.608-5.123 8.64-5.957m-15.976-.361c2.262-3.073 4.888-5.78 10.046-5.956m-16.636-.43c3.171-3.706 6.507-6.094 10.166-5.894m-16.49-1.342c3.244-3.764 7.177-6.425 12.857-6.292" fill="none" stroke="#000" stroke-width="3" stroke-linecap="round" stroke-linejoin="round"/></svg>