<?xml version="1.0" encoding="UTF-8" standalone="no"?>
<!-- Created with Inkscape (http://www.inkscape.org/) -->
<svg
   xmlns:svg="http://www.w3.org/2000/svg"
   xmlns="http://www.w3.org/2000/svg"
   version="1.0"
   width="665.63019"
   height="728.99652"
   id="svg3962">
  <defs
     id="defs3964">
    <clipPath
       id="clipPath23">
      <path
         d="M 0.029999,841.95 L 595.29,841.95 L 595.29,0.03 L 0.029999,0.03 L 0.029999,841.95 z"
         id="path25" />
    </clipPath>
    <clipPath
       id="clipPath17">
      <path
         d="M 0,841.89 L 595.276,841.89 L 595.276,0 L 0,0 L 0,841.89 z"
         id="path19" />
    </clipPath>
    <clipPath
       id="clipPath3529">
      <path
         d="M 0.029999,841.95 L 595.29,841.95 L 595.29,0.03 L 0.029999,0.03 L 0.029999,841.95 z"
         id="path3531" />
    </clipPath>
    <clipPath
       id="clipPath3523">
      <path
         d="M -0.138,841.445 L 595.138,841.445 L 595.138,-0.445 L -0.138,-0.445 L -0.138,841.445 z"
         id="path3525" />
    </clipPath>
    <clipPath
       id="clipPath2456">
      <path
         d="M 0.029999,841.95 L 595.29,841.95 L 595.29,0.03 L 0.029999,0.03 L 0.029999,841.95 z"
         id="path2458" />
    </clipPath>
    <clipPath
       id="clipPath2450">
      <path
         d="M -0.138,841.445 L 595.138,841.445 L 595.138,-0.445 L -0.138,-0.445 L -0.138,841.445 z"
         id="path2452" />
    </clipPath>
    <clipPath
       id="clipPath3329">
      <path
         d="M -0.138,841.445 L 595.138,841.445 L 595.138,-0.445 L -0.138,-0.445 L -0.138,841.445 z"
         id="path3331" />
    </clipPath>
    <clipPath
       id="clipPath3335">
      <path
         d="M 0.029999,841.95 L 595.29,841.95 L 595.29,0.03 L 0.029999,0.03 L 0.029999,841.95 z"
         id="path3337" />
    </clipPath>
    <clipPath
       id="clipPath3922">
      <path
         d="M 0.029999,841.95 L 595.29,841.95 L 595.29,0.03 L 0.029999,0.03 L 0.029999,841.95 z"
         id="path3924" />
    </clipPath>
    <clipPath
       id="clipPath3916">
      <path
         d="M -0.138,841.445 L 595.138,841.445 L 595.138,-0.445 L -0.138,-0.445 L -0.138,841.445 z"
         id="path3918" />
    </clipPath>
    <clipPath
       id="clipPath3320">
      <path
         d="M 0.029999,841.95 L 595.29,841.95 L 595.29,0.03 L 0.029999,0.03 L 0.029999,841.95 z"
         id="path3322" />
    </clipPath>
    <clipPath
       id="clipPath3316">
      <path
         d="M 0,841.89 L 595.276,841.89 L 595.276,0 L 0,0 L 0,841.89 z"
         id="path3318" />
    </clipPath>
  </defs>
  <path
     d="M 651.05527,5.3437697 C 651.05527,5.3437697 634.42357,337.38589 627.75157,415.01027 C 621.41547,488.75489 588.14787,558.39727 534.07907,611.10564 C 478.13337,665.64889 405.54767,695.67914 329.68259,695.67914 C 253.82165,695.67914 181.22329,665.64889 125.28599,611.10564 C 71.21722,558.39727 37.9538,488.75489 31.62191,415.01027 C 24.94571,337.38589 8.3014397,5.3437697 8.3014397,5.3437697 L 651.05527,5.3437697 z"
     id="path3395"
     style="fill:#ffffff;stroke:none;stroke-width:4.68708754;stroke-linecap:butt;stroke-linejoin:miter;stroke-miterlimit:4;stroke-dasharray:none;stroke-opacity:1" />
  <path
     d="M 665.63017,38.66114 C 665.63017,38.66114 648.99847,370.70314 642.32647,448.32752 C 635.99037,522.07227 602.72277,591.71464 548.65397,644.42302 C 492.70827,698.96627 420.12247,728.99652 344.25747,728.99652 C 268.39651,728.99652 195.79816,698.96627 139.86089,644.42302 C 85.79211,591.71464 52.52869,522.07227 46.1968,448.32752 C 39.52059,370.70314 22.87631,38.66114 22.87631,38.66114 L 665.63017,38.66114 z"
     id="path149"
     style="fill:none;stroke:none;stroke-width:3.24617004;stroke-linecap:butt;stroke-linejoin:miter;stroke-miterlimit:4;stroke-dasharray:none;stroke-opacity:1" />
  <path
     d="M 650.14697,7.9342797 C 650.14697,7.9342797 633.51517,339.97641 626.84317,417.60079 C 620.50717,491.34541 587.23957,560.98779 533.17077,613.69616 C 477.22507,668.23941 404.63927,698.26966 328.77418,698.26966 C 252.9133,698.26966 180.31493,668.23941 124.37768,613.69616 C 70.30893,560.98779 37.04543,491.34541 30.71355,417.60079 C 24.0373,339.97641 7.3930497,7.9342797 7.3930497,7.9342797 L 650.14697,7.9342797 z"
     id="path3840"
     style="fill:#0066b3;fill-opacity:1;stroke:none;stroke-width:12.96235943;stroke-linecap:butt;stroke-linejoin:miter;stroke-miterlimit:4;stroke-dasharray:none;stroke-opacity:1" />
  <path
     d=""
     id="path4230"
     style="fill:none;stroke:#231f20;stroke-width:1.17145002;stroke-linecap:butt;stroke-linejoin:miter;stroke-miterlimit:3.86400008;stroke-dasharray:none;stroke-opacity:1" />
  <path
     d="M 5.2711497,5.8123797 L 25.61448,332.75864 L 627.76937,333.51574 L 647.35557,8.1447897 L 5.2711497,5.8123797 z"
     id="path3256"
     style="fill:#ffdd00;fill-opacity:1;fill-rule:evenodd;stroke:none;stroke-width:1px;stroke-linecap:butt;stroke-linejoin:miter;stroke-opacity:1" />
  <path
     d="M 22.70829,332.75864 L 633.00797,332.75864"
     id="path3264"
     style="fill:none;fill-rule:evenodd;stroke:#231f20;stroke-width:8;stroke-linecap:butt;stroke-linejoin:miter;stroke-miterlimit:4;stroke-dasharray:none;stroke-opacity:1" />
  <path
     d="M 649.23507,6.4811797 C 649.23507,6.4811797 632.60327,338.52331 625.93127,416.14769 C 619.59527,489.89231 586.32767,559.53469 532.25897,612.24306 C 476.31317,666.78631 403.72747,696.81656 327.86231,696.81656 C 252.00144,696.81656 179.40307,666.78631 123.46582,612.24306 C 69.39706,559.53469 36.13356,489.89231 29.80168,416.14769 C 23.12543,338.52331 6.4811797,6.4811797 6.4811797,6.4811797 L 649.23507,6.4811797 z"
     id="path3364"
     style="fill:none;fill-opacity:1;stroke:#231f20;stroke-width:12.96235943;stroke-linecap:butt;stroke-linejoin:miter;stroke-miterlimit:4;stroke-dasharray:none;stroke-opacity:1" />
  <path
     d="M 133.9461,236.55208 C 176.51755,212.47065 202.34992,222.65077 236.68899,216.88315 C 348.61477,198.08359 462.81627,195.95764 592.04517,291.62009 C 586.61037,287.00685 556.66597,218.80404 502.10917,211.81713 C 495.10257,212.23472 485.48327,186.8605 502.10917,186.07428 C 530.62217,182.95938 563.32917,190.30352 583.77927,167.08104 C 544.48487,171.84955 520.06817,151.52524 481.56447,161.16324 C 467.48377,170.40102 453.84797,179.18279 432.59737,181.20838 C 417.76097,181.28446 410.45957,168.54295 419.85067,156.46995 C 430.58917,122.84593 491.20087,145.96494 499.71517,91.48476 C 481.63827,133.34276 423.75747,68.35236 374.88257,153.89569 C 366.48567,163.09926 358.96367,173.94577 345.26955,173.20279 C 327.65181,169.34999 313.74003,162.74263 328.81783,134.58845 C 340.6533,85.29957 401.64657,85.40911 403.63977,57.84647 C 392.47317,64.01815 386.92897,63.6997 378.58337,65.60535 C 280.86603,87.91845 311.92329,144.89632 258.6239,171.91572 C 228.16321,186.69632 224.55187,171.09294 224.62369,151.32142 C 233.99568,103.50858 274.22412,115.0101 299.20477,72.80564 C 254.74691,92.89265 235.77585,79.5016 215.84944,104.98425 L 188.42995,162.9057 C 169.91527,193.6287 146.87083,200.42987 123.71989,206.66859 C 113.18292,162.66841 68.82475,153.84388 74.36477,216.96568 C 45.48804,238.70345 56.25636,271.72676 93.01004,268.45152 C 120.93908,318.64854 155.91197,273.42076 133.9461,236.55208 z"
     id="path5477"
     style="fill:#d8201f;fill-opacity:1;fill-rule:evenodd;stroke:#231f20;stroke-width:7.57503176;stroke-linecap:butt;stroke-linejoin:miter;stroke-miterlimit:3.89120007;stroke-dasharray:none;stroke-opacity:1" />
  <path
     d="M -270.27557,309.50912 C -270.77981,309.50912 -290.18222,263.62362 -290.6189,263.3715 C -291.05558,263.11938 -340.49479,269.25916 -340.74691,268.82248 C -340.99903,268.3858 -310.96222,228.64007 -310.96222,228.13583 C -310.96222,227.6316 -340.99903,187.88587 -340.74691,187.44919 C -340.49479,187.01251 -291.05558,193.15228 -290.6189,192.90017 C -290.18222,192.64805 -270.77981,146.76254 -270.27558,146.76254 C -269.77134,146.76254 -250.36893,192.64805 -249.93225,192.90017 C -249.49557,193.15228 -200.05636,187.01251 -199.80424,187.44919 C -199.55212,187.88587 -229.58893,227.6316 -229.58893,228.13583 C -229.58893,228.64007 -199.55212,268.3858 -199.80424,268.82248 C -200.05635,269.25916 -249.49557,263.11938 -249.93225,263.3715 C -250.36893,263.62362 -269.77134,309.50912 -270.27557,309.50912 z"
     transform="matrix(1.1968886,0,0,1.1968886,491.27407,179.56712)"
     id="path3250"
     style="fill:#ffdd00;fill-opacity:1;fill-rule:nonzero;stroke:#231f20;stroke-width:7;stroke-linecap:round;stroke-linejoin:round;stroke-miterlimit:3.89120007;stroke-dasharray:none;stroke-opacity:1" />
  <path
     d="M -270.27557,309.50912 C -270.77981,309.50912 -290.18222,263.62362 -290.6189,263.3715 C -291.05558,263.11938 -340.49479,269.25916 -340.74691,268.82248 C -340.99903,268.3858 -310.96222,228.64007 -310.96222,228.13583 C -310.96222,227.6316 -340.99903,187.88587 -340.74691,187.44919 C -340.49479,187.01251 -291.05558,193.15228 -290.6189,192.90017 C -290.18222,192.64805 -270.77981,146.76254 -270.27558,146.76254 C -269.77134,146.76254 -250.36893,192.64805 -249.93225,192.90017 C -249.49557,193.15228 -200.05636,187.01251 -199.80424,187.44919 C -199.55212,187.88587 -229.58893,227.6316 -229.58893,228.13583 C -229.58893,228.64007 -199.55212,268.3858 -199.80424,268.82248 C -200.05635,269.25916 -249.49557,263.11938 -249.93225,263.3715 C -250.36893,263.62362 -269.77134,309.50912 -270.27557,309.50912 z"
     transform="matrix(1.1968886,0,0,1.1968886,660.34647,306.35362)"
     id="path3252"
     style="fill:#ffdd00;fill-opacity:1;fill-rule:nonzero;stroke:#231f20;stroke-width:7;stroke-linecap:round;stroke-linejoin:round;stroke-miterlimit:3.89120007;stroke-dasharray:none;stroke-opacity:1" />
  <path
     d="M -270.27557,309.50912 C -270.77981,309.50912 -290.18222,263.62362 -290.6189,263.3715 C -291.05558,263.11938 -340.49479,269.25916 -340.74691,268.82248 C -340.99903,268.3858 -310.96222,228.64007 -310.96222,228.13583 C -310.96222,227.6316 -340.99903,187.88587 -340.74691,187.44919 C -340.49479,187.01251 -291.05558,193.15228 -290.6189,192.90017 C -290.18222,192.64805 -270.77981,146.76254 -270.27558,146.76254 C -269.77134,146.76254 -250.36893,192.64805 -249.93225,192.90017 C -249.49557,193.15228 -200.05636,187.01251 -199.80424,187.44919 C -199.55212,187.88587 -229.58893,227.6316 -229.58893,228.13583 C -229.58893,228.64007 -199.55212,268.3858 -199.80424,268.82248 C -200.05635,269.25916 -249.49557,263.11938 -249.93225,263.3715 C -250.36893,263.62362 -269.77134,309.50912 -270.27557,309.50912 z"
     transform="matrix(1.1968886,0,0,1.1968886,826.90547,177.38749)"
     id="path3254"
     style="fill:#ffdd00;fill-opacity:1;fill-rule:nonzero;stroke:#231f20;stroke-width:7;stroke-linecap:round;stroke-linejoin:round;stroke-miterlimit:3.89120007;stroke-dasharray:none;stroke-opacity:1" />
</svg>
