<?xml version="1.0" encoding="UTF-8"?>
<!-- Created with Inkscape (http://www.inkscape.org/) -->
<svg width="203mm" height="242.65mm" version="1.1" viewBox="0 0 203 242.65" xmlns="http://www.w3.org/2000/svg">
 <title>Wappen Gersheim 1967-1976</title>
 <g transform="translate(-4.3333 -27.509)">
  <g>
   <path d="m205.31 179.03c0.35027-3.3912 0.52794-6.813 0.52794-10.253l1e-5 -139.77h-100v150" fill="#0f47af"/>
   <path d="m105.83 179.01-99.44 0.31988c2.4047 22.611 12.484 43.847 28.73 60.074 18.754 18.732 44.188 29.255 70.71 29.255 26.522 3e-5 51.957-10.523 70.711-29.255 16.318-16.299 26.415-37.651 28.762-60.375z" fill="#fff"/>
   <path d="m105.83 179.01v-150h-100l3.175e-4 139.77c-3.9e-6 3.5418 0.18833 7.0642 0.55947 10.554" fill="#fcdd09"/>
  </g>
  <path d="m126.79 118.61c0.28598-1.0422 1.563-0.62289 1.5575 0.3728-0.0626 11.425 15.75 8.3044 16.32-0.94468l7.8788-7.9794-7.9025-8.7323c-3.5268-24.721-19.673-18.329-24.235-6.7051-1.4813 3.7744-3.8444 7.1338-7.9821 9.2476-1.5581 0.79599-2.4519-0.99326-0.66465-2.0497 2.2576-1.3344 3.9451-19.704 5.5312-30.059 0.63598-4.1521 6.6739-8.8365 11.195-9.0423 6.0212-0.27416 14.56 4.6593 19.752 19.417-1.8939-6.5838-4.8161-13.833-4.7331-20.789 0.0738-6.1846 2.5914-11.985 8.8712-19.548 1.1235-1.353 1.328-2.6504 1.3425-3.9813 9e-3 -0.80728 1.245-0.8864 1.5273-0.01554 0.8875 2.738 2.2069 5.0899 3.7748 7.129 7.6334 9.9285 5.8845 26.166 2.2575 34.653 5.1003-11.076 12.678-15.977 18.814-15.836 4.9551 0.11364 9.5414 4.9214 9.4498 12.566-0.1254 10.465-9e-3 20.176 5.1869 26.327 0.83295 0.98608-0.5385 1.9318-1.3278 1.4636-5.4643-3.2414-7.6339-7.7329-10.456-12.396-2.2389-3.699-3.8667-7.2022-7.9341-7.2402-3.9757-0.03714-10.26 4.254-11.299 15.888l-7.3358 9.9425 8.1067 8.0298c0.48134 10.895 11.337 8.4114 15.506 0.28179 0.53752-1.0483 1.8628-1.1514 1.9655 0.25408 1.5054 20.589-16.776 25.897-21.195 12.408 0.44788 5.3178-0.4255 9.9769-3.7461 15.317-0.97055 1.5608-1.252 3.2138-1.2148 4.9046 0.0477 2.1636-2.769 2.8376-3.8548-0.76796-0.66164-2.197-1.4019-4.2794-2.2615-5.5321-2.5656-3.7392-3.1499-9.3088-1.963-13.922-12.511 19.436-23.855-2.0042-20.93-12.662z" fill="#fff" stroke="#000" stroke-miterlimit="14"/>
  <g fill="none" stroke="#000" stroke-linecap="round">
   <path d="m154.51 145.52 0.26727-33.409"/>
   <path d="m147.52 132.15c2.986-7.5474 4.1569-33.127 0.64525-50.276"/>
   <path d="m128.99 126.68c6.1563 13.358 18.118 1.6217 18.211-8.5321 0.0357-3.9029-0.99531-13.774-0.99963-17.534-0.0128-11.184-6.7959-24.914-15.341-24.683-3.5442 0.09587-6.8279 2.4505-9.4812 6.7294-1.7754 2.8633-2.5496 6.5583-4.6836 11.012"/>
   <path d="m161.16 132.21c-1.2102-3.6639-3.277-8.1131-2.645-14.068 0.51385-4.8423-0.13343-10.871-0.40832-17.261-0.34593-8.0416 1.1222-15.213 3.293-21.582"/>
   <path d="m178.1 125.82c-7.8446 14.617-17.431 4.9059-17.008-7.4651l-0.31561-17.506c1.0344-15.032 5.7852-21.9 10.681-24.048 6.0318-2.6468 10.458 0.20294 13.934 11.527 0.68752 2.2398 1.2128 4.532 2.6601 6.6778"/>
  </g>
  <g stroke="#000" stroke-linecap="round">
   <path d="m144.24 118.02c-1.7892-2.7e-4 -2.3499-3.0809 1.1498-2.9996-2.233 5e-3 -3.9278-2.8051-3.8671-5.6478 0.0592-2.7769 0.97885-5.5157 3.3899-5.544-1.5035-0.0536-1.405-3.0641-0.0192-3.0785l19.305-0.20045c2.026-0.021 1.5949 3.3031-0.84709 3.2936 2.4652 0.0744 3.574 2.7065 3.5301 5.5574-0.0419 2.7263-2.074 5.5849-3.9668 5.5505 3.4322 0.0609 2.695 3.0724 1.4957 3.0722z" fill="#fff"/>
   <path d="m163.73 114.98-18.442-0.0668" fill="none"/>
   <path d="m163.3 103.92-18.609-0.10021" fill="none"/>
  </g>
  <g fill-opacity=".99061">
   <path d="m49.687 163.22c-10.817 0.027-18.709 7.4109-27.781 7.276-6.9087-0.10267-11.037-3.1294-16.072-5.2477v3.5243c-5.6e-6 4.8513 0.35502 9.6658 1.0475 14.41 6.7573 1.8483 11.314 4.8215 19.182 4.8865 11.559 0.0955 16.599-5.764 24.852-5.764 9.7014 0 8.913 5.812 29.01 5.764 11.254-0.0269 15.439-5.6504 24.379-5.6208 8.8236 0.0291 15.208 5.6156 27.782 5.8084 12.412 0.19039 17.402-6.0542 25.797-6.0673 9.0521-0.0141 11.715 6.486 25.418 5.9919 13.73-0.49506 14.604-3.3101 21.455-4.7873 0.71295-4.8125 1.0775-9.698 1.0775-14.621v-4.1248c-8.0226 2.8271-14.029 8.8219-22.173 8.6031-9.3049-0.24994-16.755-9.8346-26.061-10.031-8.5742-0.18086-15.803 8.1735-24.379 8.2212-11.798 0.0657-18.614-8.0927-27.386-8.2212-9.485-0.13893-16.233 6.9442-27.609 6.8983-11.771-0.0475-18.751-6.9227-28.537-6.8983z"/>
   <path d="m49.687 197.09c-10.148-0.10666-14.3 6.2078-28.182 6.073-4.612-0.0448-7.5221-1.124-10.389-2.3596 2.2971 6.7768 5.3183 13.296 9.017 19.441 1.1557 0.13201 2.4057 0.21334 3.792 0.2248 11.559 0.0955 20.074-5.0958 28.326-5.0958 9.7014 0 17.465 6.2308 27.673 6.566 7.7725 0.2552 16.909-5.7782 25.85-5.7547 11.095 0.0291 13.738 5.7489 26.312 5.9418 12.412 0.19039 17.535-6.8557 25.93-6.8688 9.0521-0.0141 12.643 6.0287 24.483 5.9919 3.6982-0.0115 6.5858-0.83487 9.5622-1.8929 3.6124-6.1442 6.5544-12.653 8.7772-19.411-5.2889 2.1801-10.23 4.8196-17.713 4.9036-13.981 0.15687-16.756-7.3743-26.061-7.6254-6.7033-0.18086-11.394 6.8368-25.315 7.0182-11.797 0.15366-17.144-7.023-25.916-7.1515-9.485-0.13893-15.966 6.5432-27.342 6.4973-11.771-0.0475-19.019-6.3944-28.804-6.4973z"/>
   <path d="m51.346 59.538v5.78a39.399 39.399 0 0 0-21.056 8.43l-0.13952-0.17984-6.41-1.602-3.2008 3.2008 4.0959 4.0959a39.399 39.399 0 0 0-8.9498 20.893l-0.31163-0.0393-5.6653 3.3998v4.5264h5.8767a39.399 39.399 0 0 0 8.386 21.014l-0.23254 0.18036-1.602 6.4104 3.2008 3.2003 4.1388-4.1388a39.399 39.399 0 0 0 20.917 8.9545l-0.04805 0.38396 2.9998 5.4901h4.9263v-5.78a39.399 39.399 0 0 0 21.072-8.4429l0.24651 0.31676 6.0038 1.7606 3.483-3.4835-4.0959-4.0959a39.399 39.399 0 0 0 8.9374-20.808l0.29974 0.0372 5.4901-2.9998v-4.9263h-5.6736a39.399 39.399 0 0 0-8.4413-21.156l0.20878-0.16226 1.7606-6.0032-3.4835-3.4835-4.0054 4.0054a39.399 39.399 0 0 0-20.83-8.8976l0.02738-0.21497-3.4003-5.6653zm6.9262 14.155a31.059 31.059 0 0 1 27.369 27.423h-24.582v-2.928h-2.7869zm-6.9262 0.02016v24.474h-2.9869v2.928h-24.405a31.059 31.059 0 0 1 27.392-27.402zm0.91313 28.374h4.9v4.9h-4.9zm-28.272 5.9547h24.372v2.8453h2.9869v24.494a31.059 31.059 0 0 1-27.359-27.339zm37.072 0h24.592a31.059 31.059 0 0 1-27.379 27.319v-24.474h2.7869z"/>
  </g>
  <path d="m5.8333 29.009 3.175e-4 139.77c-2.9e-5 26.49 10.536 51.896 29.289 70.628 18.754 18.732 44.189 29.255 70.71 29.255 26.522 3e-5 51.957-10.523 70.711-29.255 16.224-16.205 26.298-37.406 28.72-59.983 0.37755-3.5193 0.56916-7.0721 0.56916-10.645l1e-5 -139.77z" fill="none" stroke="#000" stroke-linecap="square" stroke-miterlimit="8" stroke-width="3.0001"/>
  <path d="m105.83 29.009v140" fill="none" stroke="#000" stroke-width="2"/>
 </g>
</svg>
