<?xml version="1.0" encoding="UTF-8" standalone="no"?>
<!-- Created with Inkscape (http://www.inkscape.org/) -->
<svg
   xmlns:dc="http://purl.org/dc/elements/1.1/"
   xmlns:cc="http://creativecommons.org/ns#"
   xmlns:rdf="http://www.w3.org/1999/02/22-rdf-syntax-ns#"
   xmlns:svg="http://www.w3.org/2000/svg"
   xmlns="http://www.w3.org/2000/svg"
   xmlns:sodipodi="http://sodipodi.sourceforge.net/DTD/sodipodi-0.dtd"
   xmlns:inkscape="http://www.inkscape.org/namespaces/inkscape"
   id="svg1322"
   sodipodi:version="0.32"
   inkscape:version="0.46"
   width="1000"
   height="1177"
   version="1.0"
   sodipodi:docbase="Y:\Documents\texte\wikipedia\wappen"
   sodipodi:docname="Wappen_Kochersteinsfeld.svg"
   inkscape:export-filename="C:\Dokumente und Einstellungen\Martin\Desktop\Wappen Rostock.png"
   inkscape:export-xdpi="150"
   inkscape:export-ydpi="150"
   inkscape:output_extension="org.inkscape.output.svg.inkscape">
  <metadata
     id="metadata1327">
    <rdf:RDF>
      <cc:Work
         rdf:about="">
        <dc:format>image/svg+xml</dc:format>
        <dc:type
           rdf:resource="http://purl.org/dc/dcmitype/StillImage" />
      </cc:Work>
    </rdf:RDF>
  </metadata>
  <defs
     id="defs1325">
    <inkscape:perspective
       sodipodi:type="inkscape:persp3d"
       inkscape:vp_x="0 : 588.5 : 1"
       inkscape:vp_y="0 : 1000 : 0"
       inkscape:vp_z="1000 : 588.5 : 1"
       inkscape:persp3d-origin="500 : 392.33333 : 1"
       id="perspective2475" />
    <style
       id="style6"
       type="text/css">
   
    .fil8 {fill:none;fill-rule:nonzero}
    .fil0 {fill:black;fill-rule:nonzero}
    .fil7 {fill:white;fill-rule:nonzero}
    .fil1 {fill:#000099;fill-rule:nonzero}
    .fil6 {fill:#660000;fill-rule:nonzero}
    .fil4 {fill:#8A8A01;fill-rule:nonzero}
    .fil3 {fill:#939301;fill-rule:nonzero}
    .fil5 {fill:red;fill-rule:nonzero}
    .fil2 {fill:#FFCC00;fill-rule:nonzero}
   
  </style>
    <style
       type="text/css"
       id="style2978">
   
    .str4 {stroke:black;stroke-width:1.13778}
    .str3 {stroke:black;stroke-width:1.13808}
    .str2 {stroke:black;stroke-width:1.13818}
    .str8 {stroke:black;stroke-width:1.13828}
    .str6 {stroke:black;stroke-width:1.13848}
    .str5 {stroke:black;stroke-width:1.13858}
    .str7 {stroke:black;stroke-width:1.13878}
    .str1 {stroke:black;stroke-width:1.13888}
    .str0 {stroke:black;stroke-width:2.40736}
    .fil0 {fill:#0000DC}
    .fil2 {fill:red}
    .fil1 {fill:#FFF000}
    .fil4 {fill:#FFF020}
    .fil3 {fill:#FFF02D}
    .fil5 {fill:black;fill-rule:nonzero}
   
  </style>
    <style
       id="style2181"
       type="text/css">
   
    .str4 {stroke:black;stroke-width:1.13778}
    .str3 {stroke:black;stroke-width:1.13808}
    .str2 {stroke:black;stroke-width:1.13818}
    .str8 {stroke:black;stroke-width:1.13828}
    .str6 {stroke:black;stroke-width:1.13848}
    .str5 {stroke:black;stroke-width:1.13858}
    .str7 {stroke:black;stroke-width:1.13878}
    .str1 {stroke:black;stroke-width:1.13888}
    .str0 {stroke:black;stroke-width:2.40736}
    .fil0 {fill:#0000DC}
    .fil2 {fill:red}
    .fil1 {fill:#FFF000}
    .fil4 {fill:#FFF020}
    .fil3 {fill:#FFF02D}
    .fil5 {fill:black;fill-rule:nonzero}
   
  </style>
    <style
       id="style2183"
       type="text/css">
   
    .str4 {stroke:black;stroke-width:1.13778}
    .str3 {stroke:black;stroke-width:1.13808}
    .str2 {stroke:black;stroke-width:1.13818}
    .str8 {stroke:black;stroke-width:1.13828}
    .str6 {stroke:black;stroke-width:1.13848}
    .str5 {stroke:black;stroke-width:1.13858}
    .str7 {stroke:black;stroke-width:1.13878}
    .str1 {stroke:black;stroke-width:1.13888}
    .str0 {stroke:black;stroke-width:2.40736}
    .fil0 {fill:#0000DC}
    .fil2 {fill:red}
    .fil1 {fill:#FFF000}
    .fil4 {fill:#FFF020}
    .fil3 {fill:#FFF02D}
    .fil5 {fill:black;fill-rule:nonzero}
   
  </style>
    <style
       type="text/css"
       id="style2054">
   
    .fil8 {fill:none;fill-rule:nonzero}
    .fil0 {fill:black;fill-rule:nonzero}
    .fil7 {fill:white;fill-rule:nonzero}
    .fil1 {fill:#000099;fill-rule:nonzero}
    .fil6 {fill:#660000;fill-rule:nonzero}
    .fil4 {fill:#8A8A01;fill-rule:nonzero}
    .fil3 {fill:#939301;fill-rule:nonzero}
    .fil5 {fill:red;fill-rule:nonzero}
    .fil2 {fill:#FFCC00;fill-rule:nonzero}
   
  </style>
    <style
       id="style1367"
       type="text/css">
   
    .str4 {stroke:black;stroke-width:1.13778}
    .str3 {stroke:black;stroke-width:1.13808}
    .str2 {stroke:black;stroke-width:1.13818}
    .str8 {stroke:black;stroke-width:1.13828}
    .str6 {stroke:black;stroke-width:1.13848}
    .str5 {stroke:black;stroke-width:1.13858}
    .str7 {stroke:black;stroke-width:1.13878}
    .str1 {stroke:black;stroke-width:1.13888}
    .str0 {stroke:black;stroke-width:2.40736}
    .fil0 {fill:#0000DC}
    .fil2 {fill:red}
    .fil1 {fill:#FFF000}
    .fil4 {fill:#FFF020}
    .fil3 {fill:#FFF02D}
    .fil5 {fill:black;fill-rule:nonzero}
   
  </style>
    <style
       type="text/css"
       id="style1365">
   
    .fil8 {fill:none;fill-rule:nonzero}
    .fil0 {fill:black;fill-rule:nonzero}
    .fil7 {fill:white;fill-rule:nonzero}
    .fil1 {fill:#000099;fill-rule:nonzero}
    .fil6 {fill:#660000;fill-rule:nonzero}
    .fil4 {fill:#8A8A01;fill-rule:nonzero}
    .fil3 {fill:#939301;fill-rule:nonzero}
    .fil5 {fill:red;fill-rule:nonzero}
    .fil2 {fill:#FFCC00;fill-rule:nonzero}
   
  </style>
  </defs>
  <sodipodi:namedview
     inkscape:window-height="979"
     inkscape:window-width="1680"
     inkscape:pageshadow="2"
     inkscape:pageopacity="0.0"
     borderopacity="1.0"
     bordercolor="#666666"
     pagecolor="#ffffff"
     id="base"
     inkscape:zoom="0.51690576"
     inkscape:cx="1064.4329"
     inkscape:cy="749.91691"
     inkscape:window-x="-4"
     inkscape:window-y="-4"
     inkscape:current-layer="svg1322"
     width="1000px"
     height="1177px"
     showgrid="false" />
  <g
     id="g1372"
     transform="translate(188.002,3.11543)">
    <g
       style="fill-rule:evenodd"
       id="g2190"
       transform="matrix(3.248992,0,0,3.19535,-708.5078,-52.19496)">
      <g
         id="Layer_x0020_1"
         transform="translate(-57.86415,0)">
        <metadata
           id="CorelCorpID_0Corel-Layer" />
      </g>
    </g>
  </g>
  <path
     id="path12399"
     style="fill:#0072bc;fill-opacity:1;stroke:#000000;stroke-width:18.58499908;stroke-linecap:round;stroke-linejoin:miter;stroke-miterlimit:4;stroke-dasharray:none;stroke-dashoffset:0;stroke-opacity:1"
     d="M 8.0610754,674.11614 C 8.0543754,675.17198 8.0610754,676.24632 8.0610754,677.30375 M 989.47008,9.61896 L 8.0610754,9.61896 L 8.0610754,677.30375 C 8.0610754,948.00667 227.89668,1167.7075 498.76558,1167.7075 C 769.63448,1167.7075 989.46998,948.00665 989.47008,677.30375 C 989.47008,676.24632 989.47688,675.17198 989.47008,674.11614 L 989.47008,9.61896 z"
     sodipodi:nodetypes="cscccsscc" />
  <path
     style="fill:#ffffff;fill-opacity:1"
     d="M 435.88746,268.07572 C 428.77396,261.27678 416.64856,252.93177 408.94226,249.53126 C 395.90516,243.77846 389.48516,232.51965 399.24196,232.51965 C 407.81636,232.51965 403.78506,211.61809 394.65156,208.71924 C 383.85146,205.29142 377.60636,190.38787 382.03656,178.61418 C 383.82416,173.86357 384.84476,162.69824 384.30466,153.80235 C 383.73426,144.40615 385.75496,135.6094 389.12676,132.81111 C 392.31896,130.16182 394.93076,125.65986 394.93076,122.80675 C 394.93076,116.42311 413.09956,98.871341 419.70766,98.871341 C 422.35906,98.871341 425.75986,94.991231 427.26496,90.248871 C 428.77016,85.506511 432.61936,81.626401 435.81866,81.626401 C 439.01816,81.626401 442.28246,80.171361 443.07286,78.392971 C 443.86326,76.614591 450.73656,70.794421 458.34686,65.459271 C 482.18006,48.751251 528.57906,53.835861 528.57906,73.155621 C 528.57906,77.814551 530.81696,81.626401 533.55206,81.626401 C 541.55056,81.626401 583.91266,102.74761 587.66336,108.60556 C 589.54906,111.55087 596.91216,117.25653 604.02566,121.28481 C 616.86606,128.55614 616.95916,128.88267 616.93186,166.55846 C 616.90636,201.74496 615.96466,205.83711 603.99816,222.76374 C 596.89976,232.80442 587.41056,242.23873 582.91116,243.72886 C 578.41176,245.219 568.16176,253.00681 560.13346,261.0351 C 544.06076,277.10781 532.95466,278.9845 513.60866,268.8968 C 502.24726,262.97254 500.25856,262.94686 496.07336,268.6704 C 493.47716,272.22103 481.78326,276.32114 470.08706,277.78176 C 450.76116,280.19516 447.64126,279.30972 435.88746,268.07572 z"
     id="path3412"
     sodipodi:nodetypes="csssssssssssssssssssssssc" />
  <path
     style="fill:#000000"
     d="M 435.88746,268.07572 C 428.77396,261.27678 416.64856,252.93177 408.94226,249.53126 C 395.90516,243.77846 389.48516,232.51965 399.24196,232.51965 C 407.81636,232.51965 403.78506,211.61809 394.65156,208.71924 C 383.85146,205.29142 377.60636,190.38787 382.03656,178.61418 C 383.82416,173.86357 384.84476,162.69824 384.30466,153.80235 C 383.73426,144.40615 385.75496,135.6094 389.12676,132.81111 C 392.31896,130.16182 394.93076,125.65986 394.93076,122.80675 C 394.93076,116.42311 413.09956,98.871341 419.70766,98.871341 C 422.35906,98.871341 425.75986,94.991231 427.26496,90.248871 C 428.77016,85.506511 432.61936,81.626401 435.81866,81.626401 C 439.01816,81.626401 442.28246,80.171361 443.07286,78.392971 C 443.86326,76.614591 450.73656,70.794421 458.34686,65.459271 C 482.18006,48.751251 528.57906,53.835861 528.57906,73.155621 C 528.57906,77.814551 530.81696,81.626401 533.55206,81.626401 C 541.55056,81.626401 583.91266,102.74761 587.66336,108.60556 C 589.54906,111.55087 596.91216,117.25653 604.02566,121.28481 C 616.86606,128.55614 616.95916,128.88267 616.93186,166.55846 C 616.90636,201.74496 615.96466,205.83711 603.99816,222.76374 C 596.89976,232.80442 587.41056,242.23873 582.91116,243.72886 C 578.41176,245.219 568.16176,253.00681 560.13346,261.0351 C 544.06076,277.10781 532.95466,278.9845 513.60866,268.8968 C 502.24726,262.97254 500.25856,262.94686 496.07336,268.6704 C 493.47716,272.22103 481.78326,276.32114 470.08706,277.78176 C 450.76116,280.19516 447.64126,279.30972 435.88746,268.07572 z M 490.83086,254.42358 C 509.93926,244.6376 511.68866,244.43785 519.14986,251.19016 C 527.85326,259.06662 541.51276,260.87939 541.51276,254.15796 C 541.51276,251.83196 546.22006,248.74739 551.97356,247.30337 C 557.72706,245.85935 565.78786,240.97225 569.88666,236.44314 C 573.98546,231.91404 579.46336,228.14745 582.05986,228.07293 C 593.92796,227.73234 602.05826,206.56306 603.37106,172.58404 L 604.69896,138.21151 L 588.29716,126.08609 C 579.27606,119.41711 571.84936,111.53559 571.79336,108.57162 C 571.73726,105.60764 569.52006,103.18257 566.86636,103.18257 C 561.30676,103.18257 511.98056,73.974831 503.48146,65.650251 C 496.99486,59.296831 485.46666,58.163111 485.46666,63.878631 C 485.46666,65.973261 482.07156,68.931611 477.92206,70.452761 C 463.91106,75.588881 444.56846,87.001091 434.29006,96.195821 C 420.63436,108.41172 406.69506,141.44963 409.42336,155.13314 C 410.99746,163.02814 409.18696,167.64347 403.00026,171.50714 C 397.66906,174.83654 394.90006,180.50593 395.73586,186.38072 C 396.81096,193.93871 400.38236,196.14693 413.25346,197.21219 C 425.65396,198.23852 429.42066,200.41636 429.42066,206.55988 C 429.42066,210.96517 430.57366,218.12326 431.98296,222.46676 C 434.09006,228.96103 433.73896,229.22155 430.00686,223.93321 C 426.25196,218.61268 424.50706,218.48452 419.89986,223.19096 C 415.32706,227.86226 417.41516,231.56314 431.57626,243.88644 C 447.98376,258.16458 463.48676,267.35793 468.26516,265.64309 C 469.47466,265.20904 479.62916,260.16027 490.83086,254.42358 z M 440.58366,233.14244 C 439.32986,231.11379 443.09546,230.36993 448.95166,231.48941 C 454.80786,232.60889 459.59926,234.26869 459.59926,235.17786 C 459.59926,238.51367 442.79136,236.71457 440.58366,233.14244 z M 525.14616,189.21172 C 515.84896,174.32448 522.85376,152.75879 541.09176,140.11983 C 559.39656,127.43461 568.34076,126.28486 576.08916,135.62103 C 583.15236,144.13171 577.74386,149.52731 568.25126,143.44034 C 562.64846,139.8477 557.09046,140.66906 544.74616,146.91387 C 530.80906,153.96451 528.57906,157.12678 528.57906,169.83991 C 528.57906,177.9509 530.51906,185.78619 532.89026,187.25167 C 537.94316,190.37451 538.67976,198.02975 533.92736,198.02975 C 532.12656,198.02975 528.17506,194.06164 525.14616,189.21172 z M 431.47696,160.80799 C 433.32696,156.38257 435.79376,148.36316 436.95866,142.98706 C 439.67726,130.44078 463.91046,111.95267 463.91046,122.42487 C 463.91046,126.21752 461.11896,130.39181 457.70716,131.70107 C 454.29526,133.01033 450.25746,139.75578 448.73416,146.69095 C 447.21096,153.62612 441.94816,161.44996 437.03896,164.07727 C 429.20176,168.27161 428.52336,167.8729 431.47696,160.80799 z M 478.19706,106.36555 C 488.52096,98.103781 493.92926,96.983071 514.50316,98.842301 C 539.06896,101.06226 549.14346,108.80393 532.97036,113.03329 C 528.07806,114.31264 518.22826,112.44248 511.08186,108.87738 C 499.42816,103.06375 497.00866,103.10277 487.61796,109.25583 C 471.73096,119.66542 464.39136,117.41368 478.19706,106.36555 z"
     id="path3347"
     sodipodi:nodetypes="csssssssssssssssssssssssccssssscccssssssssssssssssccssccsssssssccsssssccssssc" />
  <path
     style="opacity:1;fill:#ffffff;fill-opacity:1;fill-rule:evenodd;stroke:#000000;stroke-width:11.53100014000000000;stroke-linecap:butt;stroke-linejoin:miter;stroke-miterlimit:4;stroke-dasharray:none;stroke-opacity:1"
     d="M 496.875 866.78125 C 495.74219 866.7777 494.61248 866.79394 493.46875 866.8125 C 458.33085 867.38265 428.05095 877.66458 400.875 885.96875 C 373.69905 894.27292 349.63717 900.61691 335.65625 900.84375 C 323.16906 901.0464 296.99054 894.76354 269.28125 886.28125 C 241.57196 877.79896 213.27061 866.81248 178.625 866.8125 C 144.28825 866.8125 112.33064 877.04593 83.5 886.09375 C 74.444683 888.93555 66.064797 891.7513 58.65625 894.3125 C 73.87407 925.05647 92.218793 953.96926 113.28125 980.65625 C 138.59468 972.71044 157.86102 965.96875 178.625 965.96875 C 199.39295 965.96875 211.75164 972.36991 240.25 981.09375 C 268.74836 989.81759 300.61669 1000.5633 337.25 999.96875 C 372.38778 999.39864 402.66782 989.11667 429.84375 980.8125 C 457.01968 972.50833 481.11245 966.19561 495.09375 965.96875 C 507.61393 965.76556 531.60484 971.82113 558.78125 980.375 C 585.95763 988.92887 616.1414 999.96875 652.09375 999.96875 C 688.03127 999.96877 719.79114 989.47395 748.375 980.875 C 776.95883 972.27605 786.84656 965.96875 809.9375 965.96875 C 832.06466 965.96875 853.23705 972.99459 881.75 981.09375 C 882.34682 981.26328 882.90754 981.42428 883.5 981.59375 C 904.80217 954.73724 923.35265 925.61283 938.71875 894.625 C 929.97121 891.89586 919.78521 888.79544 908.84375 885.6875 C 877.48438 876.77982 844.11251 866.81248 809.9375 866.8125 C 775.78466 866.8125 747.76124 877.49836 719.8125 885.90625 C 691.86373 894.31414 665.02661 900.81251 652.09375 900.8125 C 640.17837 900.8125 616.02021 894.46475 588.53125 885.8125 C 561.90129 877.43063 531.99213 866.8912 496.875 866.78125 z "
     id="path3264" />
  <path
     id="path3391"
     style="opacity:1;fill:#ffffff;fill-opacity:1;fill-rule:evenodd;stroke:none;stroke-width:11.53100000000000100;stroke-linecap:butt;stroke-linejoin:miter;stroke-miterlimit:4;stroke-dasharray:none;stroke-opacity:1"
     d="M 989.4375,682.40625 C 992.88229,683.4157 989.46875,517.63381 989.46875,439.03125 C 652.50091,331.44305 333.19896,326.85784 8.0625,438.9375 C 8.0625,524.12238 6.6544505,681.58418 8.09375,681.125 C 9.5330495,680.66582 10.90925,680.20999 12.375,679.75 C 46.006903,669.19539 83.684114,657.46875 121.71875,657.46875 C 160.05852,657.46875 193.18583,669.99328 225.875,680 C 258.56417,690.00672 289.88048,697.80449 306.71875,697.53125 C 325.05217,697.23375 353.94607,689.43187 385.9375,679.65625 C 417.92893,669.88063 453.01021,658.10955 492.5,657.46875 C 493.77972,657.44798 495.04265,657.43311 496.3125,657.4375 C 535.67792,657.57362 570.33446,669.57884 601.65625,679.4375 C 633.98842,689.61418 662.93836,697.5 679.09375,697.5 C 696.35677,697.5 728.38643,689.5084 761.34375,679.59375 C 794.30107,669.6791 827.12119,657.46875 864.875,657.46875 C 902.66351,657.46875 942.27361,668.96054 978.9375,679.375 C 982.52663,680.3945 985.99271,681.3968 989.4375,682.40625 z"
     sodipodi:nodetypes="ccccsssssscsssssc" />
  <path
     style="opacity:1;fill:#ffffff;fill-opacity:1;fill-rule:evenodd;stroke:#000000;stroke-width:11.53100000000000100;stroke-linecap:butt;stroke-linejoin:miter;stroke-miterlimit:4;stroke-dasharray:none;stroke-opacity:1"
     d="M 465.09375 308.96875 C 307.60557 309.80408 151.12724 333.65286 8.0625 386.1875 L 8.0625 438.9375 C 333.19896 326.85784 652.50091 331.44305 989.46875 439.03125 L 989.46875 387.625 C 825.63348 337.03308 644.71252 308.01603 465.09375 308.96875 z "
     id="path3336" />
  <path
     style="fill:#0072bc;fill-opacity:1;fill-rule:evenodd;stroke:none;stroke-width:11.53100014000000000;stroke-linecap:butt;stroke-linejoin:miter;stroke-miterlimit:4;stroke-dasharray:none;stroke-opacity:1"
     d="M 185.3688,448.21875 C 147.9764,448.21875 115.5981,468.15361 93.7438,509.03125 C 71.8893,549.90889 59.65,611.5379 59.65,697.21875 L 96.3375,691.40625 C 116.31934,691.40625 222.35977,718.5 290.8375,718.5 L 302.3688,718.5 C 302.3687,642.15729 298.5778,578.01724 284.8062,532.0625 C 277.9205,509.08513 268.5153,490.54448 255.3375,477.53125 C 252.7845,475.01018 250.0839,472.72743 247.2438,470.65625 L 247.275,470.59375 C 235.6723,460.67521 213.3688,448.21875 185.3688,448.21875 z"
     id="path3406"
     sodipodi:nodetypes="csccccssccc" />
  <path
     style="fill:#000000;fill-opacity:1;fill-rule:evenodd;stroke:none;stroke-width:11.53100014;stroke-linecap:butt;stroke-linejoin:miter;stroke-miterlimit:4;stroke-dasharray:none;stroke-opacity:1"
     d="M 185.3688,448.21875 C 147.9764,448.21875 115.5981,468.15361 93.7438,509.03125 C 71.8893,549.90889 59.65,611.5379 59.65,697.21875 L 96.3375,691.40625 C 96.3375,618.88359 106.0638,562.55789 124.525,525.0625 C 142.9862,487.56711 169.1055,468.90625 204.7125,468.90625 C 222.5086,468.90625 236.0318,474.6468 247.2438,485.71875 C 258.4557,496.7907 267.2339,513.54765 273.775,535.375 C 286.8572,579.0297 290.8375,642.54902 290.8375,718.5 L 302.3688,718.5 C 302.3687,642.15729 298.5778,578.01724 284.8062,532.0625 C 277.9205,509.08513 268.5153,490.54448 255.3375,477.53125 C 252.7845,475.01018 250.0839,472.72743 247.2438,470.65625 L 247.275,470.59375 C 235.6723,460.67521 213.3688,448.21875 185.3688,448.21875 z"
     id="path3362"
     sodipodi:nodetypes="csccssssccssccc" />
  <path
     style="fill:#0072bc;fill-opacity:1;fill-rule:evenodd;stroke:none;stroke-width:11.53100014000000000;stroke-linecap:butt;stroke-linejoin:miter;stroke-miterlimit:4;stroke-dasharray:none;stroke-opacity:1"
     d="M 812.1624,448.21875 C 849.5548,448.21875 881.9331,468.15361 903.7874,509.03125 C 925.6419,549.90889 937.8812,611.5379 937.8812,697.21875 L 901.1937,691.40625 C 844.34423,691.40625 743.95577,718.5 706.6937,718.5 L 695.1624,718.5 C 695.1625,642.15729 698.9534,578.01724 712.725,532.0625 C 719.6107,509.08513 729.0159,490.54448 742.1937,477.53125 C 744.7467,475.01018 747.4473,472.72743 750.2874,470.65625 L 750.2562,470.59375 C 761.8589,460.67521 784.1624,448.21875 812.1624,448.21875 z"
     id="path3410"
     sodipodi:nodetypes="csccccssccc" />
  <path
     style="fill:#000000;fill-opacity:1;fill-rule:evenodd;stroke:none;stroke-width:11.53100014;stroke-linecap:butt;stroke-linejoin:miter;stroke-miterlimit:4;stroke-dasharray:none;stroke-opacity:1"
     d="M 812.1624,448.21875 C 849.5548,448.21875 881.9331,468.15361 903.7874,509.03125 C 925.6419,549.90889 937.8812,611.5379 937.8812,697.21875 L 901.1937,691.40625 C 901.1937,618.88359 891.4674,562.55789 873.0062,525.0625 C 854.545,487.56711 828.4257,468.90625 792.8187,468.90625 C 775.0226,468.90625 761.4994,474.6468 750.2874,485.71875 C 739.0755,496.7907 730.2973,513.54765 723.7562,535.375 C 710.674,579.0297 706.6937,642.54902 706.6937,718.5 L 695.1624,718.5 C 695.1625,642.15729 698.9534,578.01724 712.725,532.0625 C 719.6107,509.08513 729.0159,490.54448 742.1937,477.53125 C 744.7467,475.01018 747.4473,472.72743 750.2874,470.65625 L 750.2562,470.59375 C 761.8589,460.67521 784.1624,448.21875 812.1624,448.21875 z"
     id="path3376"
     sodipodi:nodetypes="csccssssccssccc" />
  <path
     style="opacity:1;fill:#0072bc;fill-opacity:1;fill-rule:evenodd;stroke:none;stroke-width:11.53100014000000000;stroke-linecap:butt;stroke-linejoin:miter;stroke-miterlimit:4;stroke-dasharray:none;stroke-opacity:1"
     d="M 494.88005,395.375 C 464.21245,395.375 440.84705,403.47755 423.81755,418.9375 C 406.78805,434.39745 396.34385,456.6933 389.72385,484.125 C 387.34345,493.98842 385.44025,504.56721 383.91125,515.78125 C 376.00185,561.00189 375.34125,616.41349 376.63005,678.4375 C 376.48435,687.58009 376.33115,696.84659 376.13005,706.3125 L 377.31755,706.34375 C 377.31985,706.42771 377.31525,706.50977 377.31755,706.59375 L 382.63005,706.4375 L 387.66125,706.53125 C 387.66305,706.44715 387.65955,706.36532 387.66125,706.28125 L 388.84885,706.25 C 425.17737,706.25 538.26266,706.25 608.69255,706.25 L 609.88005,706.28125 C 609.88185,706.36532 609.87825,706.44715 609.88005,706.53125 L 614.91125,706.4375 L 620.22385,706.59375 C 620.22615,706.50977 620.22155,706.42771 620.22385,706.34375 L 621.41125,706.3125 C 621.21025,696.84659 621.05695,687.58009 620.91125,678.4375 C 622.18225,617.06623 621.49995,562.17512 613.81755,517.21875 C 613.79935,517.08157 613.77335,516.94949 613.75505,516.8125 C 612.20255,505.21201 610.27115,494.29183 607.81755,484.125 C 601.19735,456.6933 590.75315,434.39745 573.72385,418.9375 C 556.69435,403.47755 533.32905,395.375 502.66125,395.375 C 501.34335,395.375 500.04915,395.40677 498.75505,395.4375 C 497.47135,395.40727 496.18735,395.375 494.88005,395.375 z"
     id="path3408"
     sodipodi:nodetypes="cssccccccccccccccccccsssscc" />
  <path
     style="opacity:1;fill:#000000;fill-opacity:1;fill-rule:evenodd;stroke:none;stroke-width:11.53100014;stroke-linecap:butt;stroke-linejoin:miter;stroke-miterlimit:4;stroke-dasharray:none;stroke-opacity:1"
     d="M 494.88005,395.375 C 464.21245,395.375 440.84705,403.47755 423.81755,418.9375 C 406.78805,434.39745 396.34385,456.6933 389.72385,484.125 C 387.34345,493.98842 385.44025,504.56721 383.91125,515.78125 C 376.00185,561.00189 375.34125,616.41349 376.63005,678.4375 C 376.48435,687.58009 376.33115,696.84659 376.13005,706.3125 L 377.31755,706.34375 C 377.31985,706.42771 377.31525,706.50977 377.31755,706.59375 L 382.63005,706.4375 L 387.66125,706.53125 C 387.66305,706.44715 387.65955,706.36532 387.66125,706.28125 L 388.84885,706.25 C 388.58975,696.80588 388.37745,687.52875 388.19255,678.375 C 389.23145,615.49277 389.54535,560.70319 395.38005,517.375 C 397.12165,507.40107 399.21635,498.00733 401.72385,489.25 C 409.29845,462.79543 420.52275,442.28602 436.59885,428.40625 C 451.93605,415.16432 471.88115,407.63419 498.75505,406.96875 C 525.64465,407.62915 545.59935,415.15922 560.94255,428.40625 C 577.01865,442.28602 588.24295,462.79543 595.81755,489.25 C 598.32495,498.00733 600.41965,507.40107 602.16125,517.375 C 607.99605,560.70319 608.30985,615.49277 609.34885,678.375 C 609.16395,687.52875 608.95165,696.80588 608.69255,706.25 L 609.88005,706.28125 C 609.88185,706.36532 609.87825,706.44715 609.88005,706.53125 L 614.91125,706.4375 L 620.22385,706.59375 C 620.22615,706.50977 620.22155,706.42771 620.22385,706.34375 L 621.41125,706.3125 C 621.21025,696.84659 621.05695,687.58009 620.91125,678.4375 C 622.18225,617.06623 621.49995,562.17512 613.81755,517.21875 C 613.79935,517.08157 613.77335,516.94949 613.75505,516.8125 C 612.20255,505.21201 610.27115,494.29183 607.81755,484.125 C 601.19735,456.6933 590.75315,434.39745 573.72385,418.9375 C 556.69435,403.47755 533.32905,395.375 502.66125,395.375 C 501.34335,395.375 500.04915,395.40677 498.75505,395.4375 C 497.47135,395.40727 496.18735,395.375 494.88005,395.375 z"
     id="path3349" />
  <path
     style="opacity:1;fill:#ffffff;fill-opacity:1;fill-rule:evenodd;stroke:#000000;stroke-width:11.531;stroke-linecap:butt;stroke-linejoin:miter;stroke-miterlimit:4;stroke-dasharray:none;stroke-opacity:1"
     d="M 496.3125 657.4375 C 495.04265 657.43311 493.77972 657.44798 492.5 657.46875 C 453.01021 658.10955 417.92893 669.88063 385.9375 679.65625 C 353.94607 689.43187 325.05217 697.23375 306.71875 697.53125 C 289.88048 697.80449 258.56417 690.00672 225.875 680 C 193.18583 669.99328 160.05852 657.46875 121.71875 657.46875 C 83.684114 657.46875 46.006903 669.19539 12.375 679.75 C 10.90925 680.20999 9.5330495 680.66582 8.09375 681.125 C 8.3584277 715.66205 12.212626 749.35126 19.28125 781.84375 C 26.228379 779.4686 33.897964 776.93725 42.0625 774.375 C 72.224896 764.90922 97.670935 756.625 121.71875 756.625 C 144.80009 756.625 163.3656 764.59551 196.84375 774.84375 C 230.3219 785.09199 267.32767 797.32131 308.3125 796.65625 C 347.80229 796.01544 382.91483 784.24437 414.90625 774.46875 C 446.89767 764.69313 475.79159 756.92249 494.125 756.625 C 510.99693 756.35122 539.85542 763.92172 571.875 774 C 603.89458 784.07828 638.90084 796.65625 679.09375 796.65625 C 719.36125 796.65625 756.31373 784.63699 789.90625 774.53125 C 823.49877 764.42551 846.01077 756.625 864.875 756.625 C 884.70652 756.625 918.02629 765.14407 951.84375 774.75 C 961.23837 777.41856 970.08702 780.06438 978.125 782.53125 C 985.20047 750.23079 989.08599 716.73604 989.4375 682.40625 C 985.99271 681.3968 982.52663 680.3945 978.9375 679.375 C 942.27361 668.96054 902.66351 657.46875 864.875 657.46875 C 827.12119 657.46875 794.30107 669.6791 761.34375 679.59375 C 728.38643 689.5084 696.35677 697.5 679.09375 697.5 C 662.93836 697.5 633.98842 689.61418 601.65625 679.4375 C 570.33446 669.57884 535.67792 657.57362 496.3125 657.4375 z "
     id="path3258" />
  <path
     id="path3414"
     style="fill:none;fill-opacity:1;stroke:#000000;stroke-width:18.58499907999999900;stroke-linecap:round;stroke-linejoin:miter;stroke-miterlimit:4;stroke-dasharray:none;stroke-dashoffset:0;stroke-opacity:1"
     d="M 8.0610754,674.11614 C 8.0543754,675.17198 8.0610754,676.24632 8.0610754,677.30375 M 989.47008,9.61896 L 8.0610754,9.61896 L 8.0610754,677.30375 C 8.0610754,948.00667 227.89668,1167.7075 498.76558,1167.7075 C 769.63448,1167.7075 989.46998,948.00665 989.47008,677.30375 C 989.47008,676.24632 989.47688,675.17198 989.47008,674.11614 L 989.47008,9.61896 z"
     sodipodi:nodetypes="cscccsscc" />
</svg>
