<!-- Created with Inkscape (http://www.inkscape.org/) -->
<svg xmlns:rdf="http://www.w3.org/1999/02/22-rdf-syntax-ns#" xmlns="http://www.w3.org/2000/svg" height="532" width="432" version="1.1" xmlns:cc="http://creativecommons.org/ns#" xmlns:dc="http://purl.org/dc/elements/1.1/">
 <metadata>
  <rdf:RDF>
   <cc:Work rdf:about="">
    <dc:format>image/svg+xml</dc:format>
    <dc:type rdf:resource="http://purl.org/dc/dcmitype/StillImage"/>
    <dc:title/>
   </cc:Work>
  </rdf:RDF>
 </metadata>
 <path style="enable-background:accumulate;color:#000000;" d="m87.368,112,38.947,26.316,167.37,132.63c-10.725,14.77-32.037,19.222-58.067,24.253-8.1885,19.421-3.4434,25.651-6.143,23.116-7.9798,5.8421-14.422-8.3048-21.053-20-150.04-80.72-121.14-131.07-121.06-186.32z" fill-rule="nonzero" fill="#ffd200"/>
 <path fill="#f4f0e8" d="m6,5.8279,420,0,0,320c0,100-90,200-210,200s-210-100-210-200z"/>
 <g transform="translate(414.40832,-465.08102)" stroke="#000" stroke-miterlimit="4" stroke-dasharray="none">
  <g stroke-linejoin="miter" stroke-width="4" transform="translate(274.44882,89.977476)">
   <path stroke-linecap="butt" fill="#009a3d" d="m-676.74,739.47c14.221-6.6559,29.649-14.882,50.255-15.152l-0.50508-11.112c1.2627-6.4436,19.698-10.13,22.728-2.0203l1.5152,14.142c24.749,1.1858,49.497,6.7321,74.246-2.0203l-1.0102-10.607c6.1273-6.3004,11.262-11.521,21.213,0v11.112l81.317,0.50508,1.0102-10.607c1.0102-7.2572,25.759-8.1205,25.759,1.0102v18.183c19.186,4.4868,38.712,5.1322,56.569-1.0102l1.0102-15.152c0.50507-8.1315,19.193-9.7694,19.698-2.5254l1.5152,16.668c19.307-4.9462,37.852-2.1736,54.548,2.0203-13.914,84.415-86.737,168.37-201.02,169.2-123.98-14.069-190.55-73.258-208.85-162.63z"/>
   <path stroke-linecap="round" fill="none" d="m-507.62,724.91-1.0101,28.789m-19.193-28.284-1.0102,27.274m0.50508,94.954-0.50508,19.193m21.718-17.173,0.50509,21.213m-115.66-61.619,0.50508,16.668m20.708,3.5355-1.0102-18.688m280.82-37.881,1.0102,14.647m-167.69,62.629c99.346,68.734,140.05,8.5314,184.61-31.82m-217.94,74.246c24.244,0.1744,48.487,0.7608,72.731-18.688m-95.964-14.142c19.418,9.7561,38.48,20.021,76.267,3.5355m-118.69,3.0305c19.155-2.0461,42.125-0.5425,57.579-19.193m-84.853,0.50504c24.876,2.3999,50.791,6.2552,62.629-9.5964m-85.105-14.395c15.481,5.9212,43.88,9.2565,58.841,1.2627m119.7,19.698c54.77,30.858,92.228,10.797,124.25-25.254m-65.66-10.607,0,31.82m1.5152-17.678c12.266-2.1599,18.511,0.38043,36.871-9.0914m-76.772,23.234c22.061,6.4671,51.075,11.405,85.863-21.213m-37.881-10.607c30.41,10.455,59.335,15.787,88.388,10.607m-62.629-21.213c19.588,6.9467,39.187,13.881,73.236,5.0508m-60.609-15.657c18.15,8.049,40.794,7.0472,69.701-6.566m-139.91,30.81,0.50508,31.82m-87.378-46.467,1.0102,23.739m-22.223-24.749,0,18.183m23.234-7.5762c16.262-0.96321,32.435-1.2202,50.003-12.627m-140.92,20.203c42.433,26.59,85.137,62.179,176.78,17.173m-152.03-24.244c55.985,42.253,101.05,37.173,140.92,9.5964m31.315-26.264c46.903,3.557,80.562-25.618,120.71-15.152m-179.81,18.688c32.412,20.247,67.194,28.903,111.62-9.5964m-206.58,17.173c26.487,19.043,57.366,30.897,113.14,2.0203m14.142-74.751c7.4665,2.8621,13.415,5.7242,27.274,8.5863m-21.213,16.162-0.50508,40.406m-179.3-20.203c8.5678,4.0406,15.996,8.0812,32.325,12.122m-86.368-5.0508c20.078,13.239,44.94,26.002,84.608,4.609,41.26,12.539,86.291,15.686,132.89,2.7037,13.231,7.6093,25.384,9.8269,37.281,10.763l0.28996-42.824m-261.12,26.264c9.7334-8.144,20.773-13.676,35.86-11.112m-44.952-6.566c11.123-7.1647,27.773-12.693,42.931-13.132m229.81,20.203c40.009,6.7243,75.668-24.56,124-19.193m-328.05,5.0508c54.058,30.596,116.45,15.494,179.81,13.132m-179.81-33.335c23.488,9.0555,44.076,24.944,91.757,20.465,37.303-2.5408,72.254-7.8925,115.83-2.9419,26.233,1.2217,46.49-22.515,72.734-20.049m-329.31,72.984c35.86,8.6139,72.984,7.9184,108.84-15.657m-84.853-64.65,2.5254,52.528c7.4078,5.4455,22.897,1.7975,22.223-1.5152l-1.5152-51.518"/>
  </g>
  <path stroke-linejoin="round" d="m-175.01,931.14c6.9403,4.0052,13.453,8.2006,26.264,9.5964m-20.961-11.617c7.1476,2.5348,11.24,5.6034,24.496,7.0711m-129.8,23.234c5.4446,1.3468,7.4169,2.6937,9.5964,4.0405m20.203-73.489,11.364,1.5152m-11.617-8.3338c-0.89526,9.0641-0.21053,16.724,10.859,15.152m55.053,31.062c10.522-12.994,21.045-13.721,31.567-23.991m-194.96-76.772,13.132-0.50507m-12.627,72.478c5.0508,4.1507,10.102,7.1582,15.152,5.3033m0.75762-64.65c10.414-1.1065,11.742,4.5182,22.476,3.5355m-68.69-24.244c6.4818,2.3166,12.964,5.1584,19.445,2.2728m2.2728-15.405c5.8308,3.4124,12.268,3.4886,19.445-0.50507m77.529-2.0203c5.6839,4.1102,11.094,1.5752,17.425,0.50507m87.378-1.2627c7.2298,3.312,14.764,5.7095,23.991,3.0305m57.831-1.5152c6.0104,3.2101,14.53,3.7483,19.951,0.25253m-14.142,94.702c14.459-2.792,29.327-1.8962,43.184-10.102m-34.598-5.0508c17.699-1.6053,38.825-2.077,42.426-16.668m-216.93,75.761c5.5883,0.706,9.2328,1.1648,16.162-2.0202m-13.637,9.0913c7.7384,1.9988,13.711-2.1825,20.203-4.5457m-39.143,5.5559,10.607,0.2526m-10.607-6.3135,10.859,0m11.617,19.698c10.607-1.4442,21.213-3.6846,31.82-11.112m-22.728,17.425c10.338-3.9675,22.907-4.8681,28.284-15.657m18.183,27.527c4.7982-4.4053,11.617-7.7307,16.415-15.91m-29.8,14.142c6.5671-3.7114,14.991-7.2921,22.223-15.657m-22.981,7.3236c5.0508-0.8027,10.102-4.5198,15.152-9.3439m-38.133-28.032c12.211,11.345,25.935,16.638,40.154,19.951m-31.31-21.97c6.6321,5.5558,15.599,11.112,28.284,16.667m43.437,4.5457c8.7377-1.5554,17.289-2.8132,29.294-9.5964m18.183-12.627c10.744-9.1086,20.36-18.076,25.759-26.517m-56.569,26.769c17.406-2.7538,20.035-17.761,37.628-18.688m-44.194,3.5355c8.9808-3.4514,11.226-6.9027,14.395-10.354m-35.355,15.657,8.0812-0.25254m-11.364-6.0609,10.607-0.50508m-13.637-6.3134,13.637,0.25253m-12.374-6.566,11.869-0.25254m-69.701,4.2932c11.701-4.8195,23.402-7.6125,35.103-17.425m-20.456,17.425c5.4501-2.2133,9.6148-2.8842,18.183-8.8388m24.496-60.357c-0.0251,5.7552,5.7551,6.2856,12.374,6.0609m-12.879,5.3033,13.385,0m-11.869,5.8084,11.112,0.25253m-12.122,6.3135c3.1978,1.0528,5.359,2.6238,12.374,1.7678m-11.112,5.5558c3.031,1.4722,5.075,4.6717,10.607,1.7678m0.25254,16.415c19.261-1.3803,21.867-8.3124,30.052-13.385m-75.509,0.75761c8.4876,4.4536,16.735,8.9758,29.8,12.122m-71.721,7.0711c15.981-0.15485,26.82-4.9374,36.113-11.112m15.152-17.425c2.31,2.9463,7.4979,5.8926,13.132,8.8388m113.39-29.294c13.637-1.1666,25.759-5.5099,39.396-3.0305m-51.013,9.0914c17.596-3.371,30.848,0.40488,46.72-1.0102m-122.46,18.68c10.689-0.66042,18.756,1.6281,34.345-4.5457m-35.103-0.50507c8.6352-1.0904,16.168,0.57466,26.011-3.5355m-11.869-30.81c9.0914,3.9832,18.183,2.2276,27.274,1.0102m45.204-0.50508,13.385-0.50508m-13.637-5.8084c12.908-3.1834,33.605,4.0329,34.85-3.0305m-120.46,29.83c14.865-0.20343,29.321-0.81488,38.891-6.3134m-39.143-2.7779c20.516,3.8649,32.775,1.1665,34.598-5.5558m-120.71,33.588c17.93-1.4298,35.231-1.6034,55.053-5.5558m-23.739-13.89c14.5-1.4156,21.773-0.20363,29.042,1.0102m-22.728-34.85c-3.0533,9.4081,13.695,6.9354,22.728,9.0914m-36.871,10.859c-0.12164-4.7167-2.4759-5.7123-4.5367-7.1971l44.198,1.2446-0.51769,5.7m-99.247-1.0102c5.5582,0.33729,8.7094,0.0729,11.617-0.25254m-12.374-5.5558,11.869,0m-11.112-5.8084c4.1248,0.64758,8.2496,0.20488,12.374,0m-54.548,130.81c8.049,5.4847,14.882,7.698,25.254,10.859m-23.234-24.749c3.0098,0.47998,7.4145-1.5126,7.3236-3.7881m-5.5558,9.0913c10.514-2.2787,16.604-7.5061,23.234-12.374m-48.74-3.5356c12.118,0.0603,18.014-4.546,25.001-8.3338m-38.638,3.5355c11.072-0.20731,21.074-1.9117,28.789-6.8185m-8.5863-24.496c7.7445,8.4429,15.742,13.607,23.234,16.92m-6.0609-21.718c5.7052,4.0406,8.8765,8.0812,18.183,12.122m-42.174-5.3033c7.2168,9.0775,17.482,15.607,27.274,20.203m-55.811-13.637c2.3345,6.6862,5.5624,9.8216,11.869,8.0812m7.5762-23.991c11.73-2.0477,22.401-5.4185,28.789-14.142m-4.5457,11.112c5.0994-0.63403,9.7129-4.1835,14.142-8.8388m-53.538-2.5254c8.2629-0.651,16.627-0.49456,24.244-6.3135m-72.984,11.112c9.6226,0.40927,19.327,8.8877,30.557,11.364m13.132-33.335,11.112-0.50508m-12.627-6.0609,12.122,0m-13.132-7.5762,14.142-0.50507m-15.405-6.3135,13.89,0.25254m-11.617-11.617,10.607-0.50508m-12.879-6.0609,15.152,0m1.7678,13.385c6.2104,3.3672,10.417,6.7344,20.961,10.102m-19.698,13.637c8.7274,3.2421,15.766,6.4771,21.718,5.9346-5.8926-3.052-11.785-6.5479-17.678-13.258m-43.184,4.7982c3.9326-1.4423,7.7924-3.1757,12.374-2.0203m-21.971-2.5254c8.5933-0.36178,14.344-4.2493,21.213-3.283m133.85,5.3033c22.628-3.5383,43.159-2.3991,66.418-3.283m-73.994-16.162,13.385-2.2728m-82.58,6.8185c8.5225-0.87094,16.499,3.1983,26.264-0.50508m-43.437-6.0609c9.2597-3.9564,12.328,2.6586,23.234-0.50508m-94.702,6.3134c10.49-4.6099,19.121-1.5293,31.315-3.283" stroke-linecap="round" stroke-width="3" fill="none"/>
 </g>
 <path stroke-linejoin="round" d="m66.887,61.63c2.2451-2.0083,16.132,2.7768,24.286,4.2857,41.557-24.154,62.609-1.0172,70.714,44.286,63.66,49.144,109.37,101.26,140.71,158.48,36.281,9.4298,76.64,18.18,105.59,28.831-5.6176,4.7041-11.076,9.4083-12.735,14.112-0.24262,8.2385,4.8068,16.652,7.8571,25-40.738-13.839-79.293-24.95-125-45-11.804,7.4455-25.514,9.1734-40,8.5714l-7.1428-12.857c2.5566,10.93,15.906,19.186,8.6581,31.342l-7.612,2.5254c-2.8446,9.9014-9.9288,19.803-15.332,29.704l22.14,4.29c-11.767,4.7004-20.763,5.937-27.143,3.9032-7.8893,7.7748-15.885,10.09-26.638,20.808,3.3441-10.498,6.7522-12.78,15.923-18.997l-2.14-3.56c-4.847-0.44457-8.751-1.428-20,1.7857l-0.35714-6.7857c12.072-2.0765,20.889-2.2,28.214-1.4286,5.9163-11.429,14.762-22.857,16.429-34.286-5.7773,4.538-7.3266-7.8363-10.714-12.857l-0.71429,17.857-30.714,26.429-27.15,13.93-11.429,8.5714c-0.21261-6.0204,2.0102-7.1701,3.5714-9.6428l7.1428-5-19.28,8.57c8.8629-13.342,13.69-11.607,18.929-15l-15.357,2.1429-8.1813,7.7637c2.4143-4.8661,4.2061-12.845,7.467-13.478l20.714-3.5714c13.87,0.752,43.416-16.896,39.372-25.974-8.5052-17.821-11.351-29.589-17.821-34.062-30.891-15.237-52.08-32.467-74.408-59.964-40.764-54.044-11.559-84.595-25-130-3.8138-7.4746-14.775-26.429-12.857-30.714z" stroke="#000" stroke-linecap="butt" stroke-miterlimit="4" stroke-dasharray="none" stroke-width="4" fill="#ffd200"/>
 <path style="enable-background:accumulate;color:#000000;" d="m181.89,282.84c14.456,6.6213,23.31,13.243,31.123,19.864l-1.4419,19.214c-17.364,18.218-44.601,32.117-69.408,47.078l2.9773-8.5597-7.8154,0.74433,5.9546-8.7458s-10.793,3.9077-10.793,3.1634c0-0.74433,3.5355-9.4901,3.5355-9.4901l47.264-12.095c10.356-6.1644,20.808-12.289,9.8623-27.168z" fill-rule="nonzero" fill="#000"/>
 <path style="enable-background:accumulate;color:#000000;" fill-rule="nonzero" fill="#000" d="m224.23,315.4,8.5597,5.2103-15.445,29.959,20.841,5.3963c-8.6255,1.5201-16.616,4.733-26.61,2.6051,0,0-24.636,21.162-25.307,20.841-2.2188-1.0613,10.15-19.072,14.7-18.422l-2.419-4.4659-17.306,2.233v-8.9319l25.307-0.37216z"/>
 <path style="enable-background:accumulate;color:#000000;" fill-rule="nonzero" fill="#0039a6" d="m119.84,134.53c2.9773,0.74432,35.728-17.864,35.728-17.864-0.24-34.267,151.73,129.59,145.14,151.84-76.51,14.26-169.66-66.51-180.87-133.98z"/>
 <path d="m84.74,175.92c4.5599,1.6559,5.1933-8.4677,7.1428-14.643,2.1429,5.3571-2.0604,20.192,4.6429,16.429,0.59523-12.738-2.856-29.523,1.7857-38.214,1.5828,8.7039,2.6875,18.842,6.0714,22.143-0.65229-10.59-2.2527-25.934-0.35714-30.714,2.4625,2.2925,1.5794,21.398,7.5359,19.401,3.7881,9.8086,6.7227,27.299,11.393,29.171,0.83093-9.5238-4.9715-21.548-6.7857-31.071l6.4286,13.929-1.7857-16.429c1.5476,3.5494,3.5142,12.488,5.0618,10.79,3.7734-1.7958-1.6742-16.355-0.41895-17.219,3.4335-1.5659,2.8248,5.6143,5.2092,8.2756,1.3892-2.149,0.11059-8.7134,1.9336-10.418,1.3818,2.4716,1.3649,7.2745,4.5382,6.7603,2.6663-4.8058-3.8802-12.368-1.5586-16.01,2.2975-0.38298,3.0195,7.4306,7.4494,4.379l2.8031,5.1234c2.2721-1.2454,1.5775-6.1993,1.2627-10.678l6.2194,6.1401-4.1198-12.525,7.7346,11.436c2.4098-1.6341,3.3044-6.772,4.9567-5.3392,0.11135-0.66808,0.5558,3.0277,4.6175,4.5383,3.2881,1.2228,1.7678-6.7678,1.7678-6.7678,9.3002,7.4098,15.133,10.197,27.9,22.23-5.2384,3.5698-13.84-8.4956-20.296-12.23l2.2728,10.758c-5.5312-7.0209-4.9236-9.828-13.319-10.671l5.6276,8.5714c-4.1-3.28-9.12-8.32-11.4-7.88l11.429,15.714c-5.3583,1.7411-8.5702-9.1869-12.735-9.7041,0.62981,6.2975,9.4402,14.515,17.446,15.584,7.4875,4.9983,15.217,13.875,22.431,14.495-4.1212-7.9396-14.932-14.541-22.403-21.811,4.3724,2.7176,8.4922,2.9116,12.865,1.6019-4.9854,7.9921,13.499,14.738,20.253,19.834,0.007-6.71-13.769-13.927-14.372-20.13,3.4312-0.87068,14.033,8.758,21.515,17.273,25.655,30.866,16.269,37.484-12.857,12.143-3.281-1.8263-5.2922-0.10627-3.2756,3.1097,13.642,13.595,35.569,21.698,37.561,19.033,2.0814-5.2866-2.2221-16.277-5.1808-28.456-21.64-25.654-46.025-44.443-70.281-63.557-8.951-44.683-26.206-72.288-70.61-44.059l-23.929-4.2857,15.357,34.643c0.81506,26.447-3.8194,58.343,2.5,79.286z" fill="#000"/>
 <path stroke-linejoin="round" d="m124.57,61.781c12.093,4.3902,21.229,12.97,25.254,28.789" stroke="#0f47af" stroke-linecap="round" stroke-miterlimit="4" stroke-dasharray="none" stroke-width="3" fill="none"/>
 <path fill="#f4f0e8" d="m103.23,82.87c-3.283,0.86282-1.8474,7.9777,1.0102,13.385-4.9387-1.727-12.304-1.7365-6.3134,10.859,1.9361,5.6576,10.186,10.81,15.405,18.94,5.1349,10.877,5.4717,0.14698,8.8388-2.2728,13.469-16.514-0.76179-25.336-6.566-27.022-4.3773-2.6334-8.2496-1.3138-12.374-13.89z"/>
 <path style="enable-background:accumulate;color:#000000;" fill-rule="nonzero" fill="#000" d="m256.79,281.91,36.472-11.909s119.09,27.54,116.11,27.54c-2.9773,0-13.398,14.142-13.398,14.142l5.2103,24.563z"/>
 <path stroke-linejoin="round" d="m127.47,157.12c16.184,38.359,32.718,76.621,101.52,100.51" stroke="#000" stroke-linecap="round" stroke-miterlimit="4" stroke-dasharray="none" stroke-width="5" fill="none"/>
 <path stroke-linejoin="round" d="m127.47,157.12c28.877,58.746,75.311,102.57,148.32,113.03,0.87241,0.12493,26.222-0.80754,27.102-0.69218" stroke="#000" stroke-linecap="round" stroke-miterlimit="4" stroke-dasharray="none" stroke-width="5" fill="none"/>
 <path stroke-linejoin="round" d="m268.55,278.42,125.59,38.301m-117.4-26.366,119.87,42.286m-112.81-58.382,112.37,34.378m-100.51-38.383c35.524,8.802,71.047,16.221,106.57,28.789m-322.47-230.32c5.8943,1.7499,11.559,3.6373,10.859,9.3439m19.813,2.1423c2.6596,3.1264,7.6932,4.8371,11.112-1.5152m-15.153-12.88c3.6177-2.77,6.6421-3.6717,9.5964-3.7881m-37.628,12.374,4.5457,3.7881m17.425-8.5863,2.0203-1.0102m-11.869,70.205c-3.4102,13.807-3.1056,21.67-3.283,30.305m5.5559-42.679c-0.83433,2.7705-1.0176,4.8898-0.50507,6.3135" stroke="#f4f0e8" stroke-linecap="round" stroke-miterlimit="4" stroke-dasharray="none" stroke-width="3" fill="none"/>
 <path stroke-linejoin="round" d="m175.71,257.88,3.0304,2.2728m-11.364-9.0914,3.0304,2.2728m-8.5863-16.162,4.0406,3.7881m5.5558,1.7678,4.5457,3.0305m0.25255,6.3134,4.7982,2.7779m22.223,2.0203c6.566,5.1069,13.132,6.7402,19.698,9.3439m-30.305-11.869,4.7982,2.2728m-14.647-9.5964,5.5558,3.5355m-51.487-78.465c9.4671,10.621,15.81,25.975,23.79,17.564,2.1954,7.194,12.619,22.477,20.626,25.799m-13.964-24.761c7.0602,13.604,15.431,19.365,27.853,30.065m-14.9-31.567c4.7822,6.5614,9.8932,11.16,16.162,15.657m-59.599,13.132,4.0406,4.7982m-7.3236-27.022c2.8921,6.0978,5.652,12.139,13.132,20.203m-23.739-25.001,6.0609,11.364m-14.395-21.718,3.0304,5.5558" stroke="#000" stroke-linecap="round" stroke-miterlimit="4" stroke-dasharray="none" stroke-width="3" fill="none"/>
 <path stroke-linejoin="miter" d="m180.76,353.1-1.0768-16.668c-2.692-7.7816-19.651-9.7267-20.189,1.7678l1.0768,22.728" stroke="#000" stroke-linecap="butt" stroke-miterlimit="4" stroke-dasharray="none" stroke-width="4" fill="#009a3d"/>
 <path stroke-linejoin="round" d="m168.08,352.84c3.1146,2.2688,6.9869,3.1115,10.102,2.0203" stroke="#000" stroke-linecap="round" stroke-miterlimit="4" stroke-dasharray="none" stroke-width="3" fill="none"/>
 <path stroke-linejoin="round" d="m159.49,337.94c6.8009,3.2947,13.228,4.157,18.688-1.2627" stroke="#000" stroke-linecap="round" stroke-miterlimit="4" stroke-dasharray="none" stroke-width="3" fill="none"/>
 <path stroke-linejoin="round" d="m169.6,346.78c3.0844,1.9767,5.9217,2.2246,8.3338-0.50507" stroke="#000" stroke-linecap="round" stroke-miterlimit="4" stroke-dasharray="none" stroke-width="3" fill="none"/>
 <path stroke-linejoin="miter" d="m6,5.8279,420,0,0,320c0,100-90,200-210,200s-210-100-210-200z" stroke="#000" stroke-linecap="butt" stroke-miterlimit="4" stroke-dasharray="none" stroke-width="6" fill="none"/>
 <path stroke-linejoin="round" d="m286.65,271.02c-9.2463,1.5783-25.06,5.5246-27.045,10.553-1.9731,4.9992,11.925,7.3167,18.065,7.4225m-135.06-142.25c11.804,14.052,18.165,36.698,42.11,34.627,34.768,30.864,83.655,66.867,56.127,3.0015m-89.651-45.962c10.607,17.176,21.213,31.647,31.82,32.83m-46.471-16.669c10.589,16.403,19.862,38.067,36.871,28.789m6.579,14.652c32.017,36.109,80.569,48.882,115.16,60.609m-64.652-34.85c25.371,12.867,45.315,19.138,25.506-22.476m-75.007,14.9c36.029,30.069,71.047,40.226,108.09,49.497m-47.973,18.709c5.4413,8.5938,15.135,11.065,33.335,9.5964m-10.1-53.539c28.677,16.026,20.301-0.35183-0.50507-26.769m-38.89,101.52c3.0307,0.75847,8.4689,9.9432,6.566-6.566" stroke="#000" stroke-linecap="round" stroke-miterlimit="4" stroke-dasharray="none" stroke-width="5" fill="none"/>
</svg>
