<?xml version="1.0" encoding="UTF-8" standalone="no"?>
<!-- Created with Inkscape (http://www.inkscape.org/) -->

<svg
   xmlns:dc="http://purl.org/dc/elements/1.1/"
   xmlns:cc="http://creativecommons.org/ns#"
   xmlns:rdf="http://www.w3.org/1999/02/22-rdf-syntax-ns#"
   xmlns:svg="http://www.w3.org/2000/svg"
   xmlns="http://www.w3.org/2000/svg"
   xmlns:sodipodi="http://sodipodi.sourceforge.net/DTD/sodipodi-0.dtd"
   xmlns:inkscape="http://www.inkscape.org/namespaces/inkscape"
   width="189.38152mm"
   height="210.21799mm"
   viewBox="0 0 189.38152 210.21799"
   version="1.1"
   id="svg3145"
   inkscape:version="0.92.5 (2060ec1f9f, 2020-04-08)"
   sodipodi:docname="DEU Reutern COA.svg">
  <defs
     id="defs3139">
    <inkscape:path-effect
       effect="spiro"
       id="path-effect1142"
       is_visible="true" />
    <inkscape:path-effect
       effect="spiro"
       id="path-effect2926"
       is_visible="true" />
    <inkscape:path-effect
       effect="spiro"
       id="path-effect4168"
       is_visible="true" />
    <inkscape:path-effect
       effect="spiro"
       id="path-effect4164"
       is_visible="true" />
    <inkscape:path-effect
       effect="spiro"
       id="path-effect4160"
       is_visible="true" />
    <inkscape:path-effect
       effect="spiro"
       id="path-effect4156"
       is_visible="true" />
    <inkscape:path-effect
       effect="spiro"
       id="path-effect4113"
       is_visible="true" />
    <inkscape:path-effect
       effect="spiro"
       id="path-effect4168-2"
       is_visible="true" />
    <inkscape:path-effect
       effect="spiro"
       id="path-effect4168-4"
       is_visible="true" />
    <inkscape:path-effect
       effect="spiro"
       id="path-effect4168-8"
       is_visible="true" />
    <inkscape:path-effect
       effect="spiro"
       id="path-effect4168-6"
       is_visible="true" />
    <inkscape:path-effect
       effect="spiro"
       id="path-effect1142-2"
       is_visible="true" />
  </defs>
  <sodipodi:namedview
     id="base"
     pagecolor="#ffffff"
     bordercolor="#666666"
     borderopacity="1.0"
     inkscape:pageopacity="0.0"
     inkscape:pageshadow="2"
     inkscape:zoom="0.99808103"
     inkscape:cx="357.88634"
     inkscape:cy="397.26234"
     inkscape:document-units="mm"
     inkscape:current-layer="layer1"
     showgrid="false"
     inkscape:window-width="1920"
     inkscape:window-height="1046"
     inkscape:window-x="-11"
     inkscape:window-y="-11"
     inkscape:window-maximized="1"
     fit-margin-top="0"
     fit-margin-left="0"
     fit-margin-right="0"
     fit-margin-bottom="0"
     inkscape:snap-nodes="false"
     inkscape:snap-midpoints="true"
     inkscape:snap-smooth-nodes="true"
     inkscape:snap-center="true"
     inkscape:snap-object-midpoints="true"
     inkscape:object-paths="true"
     inkscape:snap-others="true" />
  <metadata
     id="metadata3142">
    <rdf:RDF>
      <cc:Work
         rdf:about="">
        <dc:format>image/svg+xml</dc:format>
        <dc:type
           rdf:resource="http://purl.org/dc/dcmitype/StillImage" />
        <dc:title />
      </cc:Work>
    </rdf:RDF>
  </metadata>
  <g
     inkscape:label="Ebene 1"
     inkscape:groupmode="layer"
     id="layer1"
     transform="translate(-17.319114,-78.200492)">
    <path
       inkscape:connector-curvature="0"
       style="fill:#000000;fill-rule:evenodd;stroke:#000000;stroke-width:0.80285364;stroke-linecap:round;stroke-linejoin:round;stroke-miterlimit:4;stroke-dasharray:none;stroke-opacity:1"
       d="m 26.10556,78.601919 -8.38502,9.01599 5.29218,110.375691 c 2.13833,50.17324 38.52149,89.96183 88.99715,90.02345 50.52106,-0.0281 86.88866,-39.80241 88.99715,-90.02345 l 5.29219,-110.375691 -8.38502,-9.01599 h -85.9069 z"
       id="path10563-0-6-2-9" />
    <path
       style="fill:#ffffff;fill-rule:evenodd;stroke:none;stroke-width:2.89639521;stroke-linecap:round;stroke-linejoin:round;stroke-miterlimit:4;stroke-dasharray:none;stroke-opacity:1"
       d="M 35.966797 409.18945 L 38.357422 459.51758 C 46.034701 641.39566 176.66236 785.63015 357.88672 785.85352 C 539.27407 785.7517 669.84585 641.56899 677.41602 459.51758 L 679.80664 409.18945 L 35.966797 409.18945 z "
       transform="matrix(0.26458333,0,0,0.26458333,17.319114,78.200492)"
       id="path10563-0-6-2-4-5" />
    <path
       style="fill:#da121a;fill-opacity:1;fill-rule:evenodd;stroke:none;stroke-width:2.89639521;stroke-linecap:round;stroke-linejoin:round;stroke-miterlimit:4;stroke-dasharray:none;stroke-opacity:1"
       d="M 17.802734 26.724609 L 35.25 394.10156 L 680.52344 394.10156 L 697.96875 26.724609 L 357.87891 26.724609 L 17.802734 26.724609 z "
       transform="matrix(0.26458333,0,0,0.26458333,17.319114,78.200492)"
       id="path10563-0-6-2-4-5-2" />
    <path
       style="fill:#ffffff;stroke:#000000;stroke-width:1.32291663;stroke-linecap:round;stroke-linejoin:round;stroke-miterlimit:4;stroke-dasharray:none;stroke-opacity:1"
       d="m 53.127522,90.071602 13.401249,18.032488 v 25.85011 c -0.03418,-0.0172 -0.169497,-0.0848 -0.169497,-0.0848 0,0 -4.497914,-3.09685 -7.012493,-4.10207 -2.608808,-1.04288 -5.37949,-1.82167 -8.20415,-1.93218 v 16.48736 c 1.344986,0.42274 2.670318,0.90883 3.969782,1.45573 2.866149,1.20624 5.698934,2.78824 7.542175,5.2927 1.838913,2.49857 2.507044,5.65687 2.910936,8.7328 0.748609,5.70122 0.748609,11.5003 0,17.20153 h 46.444196 46.44419 c -0.74861,-5.70123 -0.74861,-11.5003 0,-17.20153 0.40389,-3.07593 1.07202,-6.23423 2.91093,-8.7328 1.84325,-2.50445 4.67603,-4.08645 7.54218,-5.2927 1.29946,-0.54689 2.6248,-1.03299 3.96978,-1.45573 v -16.48736 c -2.82466,0.11051 -5.59534,0.8893 -8.20415,1.93218 -2.51458,1.00522 -7.01249,4.10207 -7.01249,4.10207 0,0 -0.1353,0.0676 -0.1695,0.0848 v -25.85011 l 13.40125,-18.032488 -23.75152,10.453108 -23.75101,-10.453108 13.40125,18.032488 v 33.52457 L 112.00972,112.56584 87.2288,141.62866 V 108.10409 L 100.63005,90.071602 76.879043,100.52471 Z"
       id="path4111"
       inkscape:connector-curvature="0" />
    <path
       style="fill:#0f47af;stroke:#000000;stroke-width:1.32291663;stroke-linecap:round;stroke-linejoin:round;stroke-miterlimit:4;stroke-dasharray:none;stroke-opacity:1;fill-opacity:1"
       d="m -121.5724,243.69522 c 0.73248,-4.30266 2.11932,-8.49332 4.09814,-12.38352 3.66651,-7.20806 9.29853,-13.27252 15.59078,-18.35257 3.156273,-2.54822 6.493448,-4.87232 9.978092,-6.94903 -0.98148,-2.00383 -1.991303,-3.99377 -3.029064,-5.96904 -1.069273,-2.03525 -2.168207,-4.05491 -3.296335,-6.05813 -2.956103,0.73579 -5.850233,1.7204 -8.641743,2.93998 -7.88097,3.44311 -14.94138,8.80369 -20.22346,15.59077 -2.45204,3.15068 -4.5211,6.59913 -6.14722,10.24536 1.57074,3.28325 3.23465,6.52193 4.98905,9.71083 2.09938,3.81595 4.32834,7.56061 6.68176,11.22535 z"
       id="path4154"
       inkscape:connector-curvature="0"
       inkscape:path-effect="#path-effect4156"
       inkscape:original-d="m -121.5724,243.69522 c 0,0 1.96833,-8.59287 4.09814,-12.38352 3.93189,-6.99802 9.64936,-12.95519 15.59078,-18.35257 3.000062,-2.72535 9.978092,-6.94903 9.978092,-6.94903 0,0 -1.990913,-3.99406 -3.029064,-5.96904 -1.069672,-2.03494 -3.296335,-6.05813 -3.296335,-6.05813 0,0 -5.960413,1.50172 -8.641743,2.93998 -7.50086,4.02346 -14.56478,9.23227 -20.22346,15.59077 -2.64769,2.97514 -6.14722,10.24536 -6.14722,10.24536 0,0 3.226,6.52726 4.98905,9.71083 2.10961,3.80935 6.68176,11.22535 6.68176,11.22535 z"
       sodipodi:nodetypes="caacacaacac"
       transform="translate(208.04286)" />
    <path
       inkscape:connector-curvature="0"
       style="fill:#000000;stroke:#000000;stroke-width:0.26458332px;stroke-linecap:butt;stroke-linejoin:miter;stroke-opacity:1"
       d="m 110.17779,196.51833 c -1.16088,0.14463 -2.31465,0.3481 -3.45509,0.60875 -1.68549,0.38522 -3.34195,0.89605 -4.95163,1.52704 l 1.09605,2.11718 c 1.09653,-0.9625 2.28913,-1.81525 3.55431,-2.54196 1.19475,-0.68627 2.45442,-1.26005 3.75636,-1.71101 z m 0.27957,2.60398 c -1.16087,0.14463 -2.31465,0.3481 -3.45509,0.60875 -1.68548,0.38523 -3.34246,0.89605 -4.95215,1.52704 l 1.09657,2.11718 c 1.09652,-0.96251 2.28914,-1.81526 3.55431,-2.54197 1.19476,-0.68627 2.45442,-1.26004 3.75636,-1.711 z m 0.48782,2.40088 c -1.16087,0.14464 -2.31464,0.34759 -3.45508,0.60824 -1.68549,0.38522 -3.34195,0.89605 -4.95164,1.52704 l 0.94258,1.82159 c -0.26958,0.0981 -0.54011,0.19451 -0.80719,0.29921 l 1.09606,2.1177 c 1.09652,-0.9625 2.28964,-1.81577 3.55482,-2.54248 1.19476,-0.68628 2.45391,-1.26005 3.75584,-1.71101 -1.16087,0.14462 -2.31464,0.34758 -3.45508,0.60823 -1.10706,0.25302 -2.19973,0.56616 -3.2768,0.92604 0.89444,-0.72029 1.8443,-1.37155 2.84013,-1.94355 1.19476,-0.68626 2.45442,-1.26004 3.75636,-1.71101 z m -12.535665,0.68472 c -1.495574,0.86747 -2.926398,1.84619 -4.276744,2.92592 -0.913672,0.73057 -1.790626,1.50719 -2.626196,2.32595 1.163146,-0.73858 2.395606,-1.36759 3.676264,-1.87585 1.35613,-0.53821 2.766036,-0.94097 4.201808,-1.20044 z m 1.864485,1.83865 c -1.495574,0.86747 -2.926399,1.8467 -4.276742,2.92643 -0.913678,0.73058 -1.790628,1.5072 -2.626196,2.32596 1.163146,-0.73858 2.396122,-1.3676 3.676777,-1.87586 1.356135,-0.53821 2.76552,-0.94096 4.201291,-1.20044 z m 1.57561,1.87585 c -1.49557,0.86747 -2.926394,1.84671 -4.276737,2.92644 -0.913678,0.73057 -1.790629,1.50719 -2.626196,2.32595 1.163145,-0.73858 2.396122,-1.36759 3.676777,-1.87585 1.067419,-0.42363 2.168266,-0.76191 3.288686,-1.01389 -0.95192,0.61921 -1.87672,1.27984 -2.763652,1.98902 -0.913678,0.73057 -1.790631,1.5072 -2.626196,2.32596 1.163143,-0.73858 2.39612,-1.36708 3.676778,-1.87534 1.35613,-0.53821 2.76604,-0.94148 4.20181,-1.20096 l -0.97565,-2.17558 c -0.24815,0.14393 -0.49188,0.29543 -0.73639,0.44545 z m 10.41074,0.0961 c -1.16087,0.14463 -2.31464,0.3481 -3.45509,0.60875 -1.68548,0.38522 -3.34247,0.89605 -4.95215,1.52703 l 1.09657,2.11771 c 1.09652,-0.96249 2.28914,-1.81577 3.55431,-2.54249 1.19476,-0.68625 2.45442,-1.26004 3.75636,-1.711 z m -7.70961,3.73052 c -1.49557,0.86747 -2.9264,1.84671 -4.27674,2.92644 -0.913679,0.73057 -1.79063,1.50719 -2.626197,2.32595 1.163145,-0.73858 2.396127,-1.36759 3.676777,-1.87585 1.35614,-0.53821 2.76604,-0.94097 4.20181,-1.20044 z"
       id="path4166" />
    <path
       style="fill:#da121a;stroke:#000000;stroke-width:1.32291663;stroke-linecap:round;stroke-linejoin:round;stroke-miterlimit:4;stroke-dasharray:none;stroke-opacity:1;fill-opacity:1"
       d="m -88.876324,219.28453 c 3.913272,4.03343 8.305766,7.58524 12.94559,10.75608 2.748138,1.87807 5.612,3.63814 8.743619,4.76613 1.457916,0.52513 2.969983,0.91187 4.37235,1.57115 1.402367,0.65928 2.721405,1.63813 3.417952,3.02237 0.496608,0.9869 0.645443,2.12576 0.543865,3.22588 -0.22372,2.42295 -1.678262,4.67962 -3.741787,5.96904 -1.145847,0.716 -2.479748,1.14959 -3.830876,1.15817 -1.448646,0.009 -2.867005,-0.46445 -4.14734,-1.14224 -1.280334,-0.6778 -2.441224,-1.55662 -3.603502,-2.42136 -5.888955,-4.38139 -12.004174,-8.5297 -17.194394,-13.71988 -6.4928,-6.49275 -11.341333,-14.41814 -15.947133,-22.36162 -1.22589,-2.11426 -2.44474,-4.24737 -3.30314,-6.53561 -0.8584,-2.28825 -1.34769,-4.75704 -1.06228,-7.18427 0.0808,-0.68746 0.22423,-1.37099 0.47963,-2.01435 0.25541,-0.64335 0.62586,-1.24681 1.12399,-1.72744 0.49383,-0.47649 1.11288,-0.82689 1.78181,-0.97999 0.65091,-0.14898 1.34171,-0.1092 1.97653,0.0979 0.63482,0.20709 1.21289,0.57938 1.67616,1.06028 0.65102,0.6758 1.06599,1.547 1.35461,2.43988 0.28862,0.89289 0.46093,1.8185 0.69447,2.72735 0.81671,3.17826 2.37303,6.11753 4.098142,8.90901 2.753447,4.45548 5.974587,8.6244 9.621734,12.38353 z"
       id="path4158"
       inkscape:connector-curvature="0"
       inkscape:path-effect="#path-effect4160"
       inkscape:original-d="m -88.876324,219.28453 c 3.901634,4.0315 8.303114,7.60598 12.94559,10.75608 2.746781,1.8638 5.856261,3.12854 8.743619,4.76613 2.622197,1.48721 6.081867,2.10979 7.790302,4.59352 0.617995,0.89845 0.756721,2.15639 0.543865,3.22588 -0.45838,2.30312 -1.87551,4.54373 -3.741787,5.96904 -1.060211,0.8097 -2.499981,1.24972 -3.830876,1.15817 -2.836901,-0.19515 -5.329893,-2.07192 -7.750842,-3.5636 -6.242593,-3.84639 -12.151386,-8.39703 -17.194394,-13.71988 -6.296615,-6.64603 -11.851783,-14.17351 -15.947133,-22.36162 -2.14682,-4.29227 -4.5977,-8.92629 -4.36542,-13.71988 0.0657,-1.35539 0.69221,-2.73644 1.60362,-3.74179 0.45527,-0.5022 1.10721,-0.91374 1.78181,-0.97999 1.27119,-0.12485 2.71824,0.28737 3.65269,1.15817 1.35555,1.26322 1.32014,3.46374 2.04908,5.16723 1.28597,3.00521 2.40119,6.1152 4.098142,8.90901 2.71373,4.46779 5.986413,8.62721 9.621734,12.38353 z"
       sodipodi:nodetypes="aaaaaaaaaaaaaaaaa"
       transform="translate(208.04286)" />
    <path
       style="fill:#000000;stroke:#000000;stroke-width:0.26458332px;stroke-linecap:butt;stroke-linejoin:miter;stroke-opacity:1"
       d="m -107.6077,195.00473 c 2.72143,5.88709 6.01123,11.51128 9.808778,16.76891 3.624796,5.01846 7.714646,9.7056 12.250376,13.91882 3.489696,3.24156 7.257276,6.21169 11.40473,8.55355 3.156223,1.78216 6.511723,3.18963 9.679014,4.95205 0.542477,0.30186 1.081464,0.61553 1.56745,1.00182 0.485985,0.38628 0.91999,0.84959 1.208701,1.39918 0.383293,0.72963 0.492022,1.59946 0.300125,2.40099 -1.335408,-1.61675 -2.908063,-3.03721 -4.65193,-4.20174 -2.653373,-1.77188 -5.660227,-2.93112 -8.478517,-4.42684 -5.290948,-2.80802 -9.8807,-6.78539 -14.030818,-11.1046 -4.942697,-5.14409 -9.333252,-10.82595 -12.980389,-16.95704 -2.34116,-3.93565 -4.37519,-8.05394 -6.07752,-12.3051 z"
       id="path4162"
       inkscape:connector-curvature="0"
       inkscape:path-effect="#path-effect4164"
       inkscape:original-d="m -107.6077,195.00473 c 0,0 6.01726,11.51927 9.808778,16.76891 3.618793,5.01048 7.712433,9.72267 12.250376,13.91882 3.488975,3.22619 7.37407,6.0366 11.40473,8.55355 3.07398,1.91955 6.673642,2.92677 9.679014,4.95205 1.014592,0.68372 2.199229,1.3221 2.776151,2.401 0.380331,0.71126 0.300125,2.40099 0.300125,2.40099 0,0 -2.936734,-3.00833 -4.65193,-4.20174 -2.617054,-1.82091 -5.803596,-2.69205 -8.478517,-4.42684 -5.00423,-3.24543 -9.847509,-6.85313 -14.030818,-11.1046 -4.992557,-5.07391 -9.223108,-10.91113 -12.980389,-16.95704 -2.41469,-3.88552 -6.07752,-12.3051 -6.07752,-12.3051 z"
       sodipodi:nodetypes="caaaaacaaaac"
       transform="translate(208.04286)" />
    <g
       id="g1418"
       transform="translate(-0.18262723)">
      <g
         transform="matrix(0.98545513,0,0,1.064392,1.8000131,-18.186998)"
         id="g1188">
        <path
           inkscape:connector-curvature="0"
           style="fill:#da121a;fill-opacity:1;stroke:#000000;stroke-width:4.48073626;stroke-linecap:round;stroke-linejoin:round;stroke-miterlimit:4;stroke-dasharray:none;stroke-opacity:1"
           d="m 358.26562,702.33594 c -0.14471,0 -0.28722,0.007 -0.43164,0.008 -0.10722,-6e-4 -0.21292,-0.006 -0.32031,-0.006 v 0.002 0.0117 c -24.1765,0.31617 -44.01927,15.76232 -44.01953,34.78321 2.6e-4,19.02089 19.84302,34.46703 44.01953,34.7832 v 0.0176 c 0.14472,0 0.28723,-0.007 0.43164,-0.008 0.10723,6e-4 0.21293,0.006 0.32031,0.006 v -0.0137 c 24.17649,-0.31617 44.01537,-15.76231 44.01563,-34.7832 -2.6e-4,-19.02089 -19.83913,-34.46704 -44.01563,-34.7832 z m -0.44335,11.6914 c 18.37827,0.11469 33.59416,10.41439 33.59375,23.10938 3.3e-4,12.66607 -15.14675,22.94678 -33.46875,23.10742 -18.3738,-0.11832 -33.58823,-10.41668 -33.58789,-23.10937 -3.8e-4,-12.66382 15.14527,-22.94317 33.46289,-23.10743 z"
           id="path1149"
           transform="matrix(0.26458333,0,0,0.26458333,17.319114,78.200492)" />
        <path
           style="fill:#da121a;fill-opacity:1;stroke:#000000;stroke-width:1.18552816;stroke-linecap:round;stroke-linejoin:round;stroke-miterlimit:4;stroke-dasharray:none;stroke-opacity:1"
           inkscape:connector-curvature="0"
           id="path1153"
           d="m 96.751229,261.89489 a 11.816864,9.1516993 18.960317 0 1 9.167321,12.12886 11.816864,9.1516993 18.960317 0 1 -13.543609,5.67392 11.816864,9.1516993 18.960317 0 1 -9.167321,-12.12885 11.816864,9.1516993 18.960317 0 1 13.543609,-5.67393 z m -0.734631,2.98848 a 8.9208479,6.0814857 17.654969 0 0 -10.029692,3.47538 8.9208479,6.0814857 17.654969 0 0 7.122666,8.35044 8.9208479,6.0814857 17.654969 0 0 10.029688,-3.47537 8.9208479,6.0814857 17.654969 0 0 -7.122662,-8.35045 z" />
        <path
           style="fill:#da121a;fill-opacity:1;stroke:#000000;stroke-width:1.18552816;stroke-linecap:round;stroke-linejoin:round;stroke-miterlimit:4;stroke-dasharray:none;stroke-opacity:1"
           inkscape:connector-curvature="0"
           id="path1155"
           d="m 81.310019,256.09244 a 11.916959,9.0748313 29.553037 0 1 7.308774,13.50978 11.916959,9.0748313 29.553037 0 1 -14.19767,3.34882 11.916959,9.0748313 29.553037 0 1 -7.308774,-13.50978 11.916959,9.0748313 29.553037 0 1 14.19767,-3.34882 z m -1.156418,2.82999 a 8.9927184,6.032882 27.806806 0 0 -10.409374,1.76229 8.9927184,6.032882 27.806806 0 0 5.833306,9.43633 8.9927184,6.032882 27.806806 0 0 10.409373,-1.7623 8.9927184,6.032882 27.806806 0 0 -5.833305,-9.43632 z" />
        <path
           style="fill:#da121a;fill-opacity:1;stroke:#000000;stroke-width:1.18552816;stroke-linecap:round;stroke-linejoin:round;stroke-miterlimit:4;stroke-dasharray:none;stroke-opacity:1"
           d="m 68.72336,247.47307 a 12.174581,8.8828019 48.079717 0 1 3.181784,15.2503 12.174581,8.8828019 48.079717 0 1 -14.476093,-1.40853 12.174581,8.8828019 48.079717 0 1 -3.181792,-15.2503 12.174581,8.8828019 48.079717 0 1 14.476101,1.40853 z m -1.895941,2.32357 a 9.1840596,5.9071926 46.260107 0 0 -10.419243,-1.69344 9.1840596,5.9071926 46.260107 0 0 2.916808,10.88808 9.1840596,5.9071926 46.260107 0 0 10.419243,1.69344 9.1840596,5.9071926 46.260107 0 0 -2.916808,-10.88808 z"
           id="path1189"
           inkscape:connector-curvature="0" />
        <path
           style="fill:#da121a;fill-opacity:1;stroke:#000000;stroke-width:1.18552816;stroke-linecap:round;stroke-linejoin:round;stroke-miterlimit:4;stroke-dasharray:none;stroke-opacity:1"
           d="m 57.15514,234.87037 a 12.297959,8.7936858 55.867658 0 1 1.120562,15.58285 12.297959,8.7936858 55.867658 0 1 -14.139915,-3.62038 12.297959,8.7936858 55.867658 0 1 -1.120562,-15.58284 12.297959,8.7936858 55.867658 0 1 14.139915,3.62037 z m -2.185513,2.0081 a 9.2783551,5.847158 54.24797 0 0 -10.086876,-3.27845 9.2783551,5.847158 54.24797 0 0 1.43854,11.22473 9.2783551,5.847158 54.24797 0 0 10.086885,3.27845 9.2783551,5.847158 54.24797 0 0 -1.438549,-11.22473 z"
           id="path1191"
           inkscape:connector-curvature="0" />
        <path
           style="fill:#da121a;fill-opacity:1;stroke:none;stroke-width:1.18552816;stroke-linejoin:round;stroke-miterlimit:4;stroke-dasharray:none;stroke-opacity:1"
           inkscape:connector-curvature="0"
           id="path1229"
           d="m 68.496237,257.3085 a 11.916959,9.0748313 29.553037 0 0 -1.383551,2.13215 11.916959,9.0748313 29.553037 0 0 0.994569,7.91677 l 3.040166,-0.68907 a 8.9927184,6.032882 27.806806 0 1 -1.402952,-5.98444 8.9927184,6.032882 27.806806 0 1 0.475178,-0.84613 l -1.722356,-2.52964" />
        <path
           style="fill:#da121a;fill-opacity:1;fill-rule:evenodd;stroke:#000000;stroke-width:1.18552816;stroke-linecap:round;stroke-linejoin:round;stroke-miterlimit:4;stroke-dasharray:none;stroke-opacity:1"
           d="m 68.414975,267.86573 c -0.233,-0.342 -0.446339,-0.69925 -0.638635,-1.06903 -0.248322,-0.47749 -0.461895,-0.9761 -0.645047,-1.48751 -0.114551,-0.31865 -0.217678,-0.64246 -0.300452,-0.97241 -0.09992,-0.39806 -0.17012,-0.80448 -0.211507,-1.21434 -0.0649,-0.64467 -0.05782,-1.29844 0.03085,-1.94015 0.08279,-0.59919 0.236656,-1.1873 0.461887,-1.74247 0.126218,-0.31102 0.274612,-0.61147 0.444732,-0.89743 0.267075,-0.4487 0.586963,-0.8598 0.93887,-1.23425 0.228653,-0.24464 0.47332,-0.47453 0.728954,-0.68745"
           id="path1231"
           inkscape:connector-curvature="0" />
        <path
           style="fill:none;fill-opacity:1;fill-rule:evenodd;stroke:#000000;stroke-width:1.18552816;stroke-linecap:round;stroke-linejoin:round;stroke-miterlimit:4;stroke-dasharray:none;stroke-opacity:1"
           d="m 71.778512,267.4035 c -0.220193,-0.2353 -0.431017,-0.48067 -0.631549,-0.73539 -0.201447,-0.25595 -0.392836,-0.52125 -0.569584,-0.7976 -0.194586,-0.30439 -0.371568,-0.62205 -0.526141,-0.952 -0.137193,-0.29332 -0.256774,-0.59624 -0.353497,-0.9075 -0.07112,-0.22867 -0.129649,-0.46199 -0.173784,-0.69827 -0.04822,-0.25866 -0.07907,-0.521 -0.08872,-0.78457 -0.01141,-0.31619 0.0078,-0.6336 0.05626,-0.94586 0.04822,-0.30979 0.125994,-0.61614 0.25381,-0.8984 0.134221,-0.29651 0.320804,-0.56131 0.475152,-0.84603 0.158462,-0.29234 0.282848,-0.60632 0.369278,-0.93185"
           id="path1233"
           inkscape:connector-curvature="0" />
        <path
           style="fill:#da121a;fill-opacity:1;stroke:none;stroke-width:1.18552816;stroke-linejoin:round;stroke-miterlimit:4;stroke-dasharray:none;stroke-opacity:1"
           inkscape:connector-curvature="0"
           id="path1245"
           d="m 83.713071,266.20011 a 11.816864,9.1516993 18.960317 0 0 -0.505097,1.36812 11.816864,9.1516993 18.960317 0 0 2.205736,7.75734 l 3.075036,-1.05251 0.0069,-0.007 a 8.9208479,6.0814857 17.654969 0 1 -2.508468,-5.90751 8.9208479,6.0814857 17.654969 0 1 0.120134,-0.3981 l -2.395162,-1.75888" />
        <path
           style="fill:#da121a;fill-opacity:1;fill-rule:evenodd;stroke:#000000;stroke-width:1.18552816;stroke-linecap:round;stroke-linejoin:round;stroke-miterlimit:4;stroke-dasharray:none;stroke-opacity:1"
           d="m 86.131299,276.11216 c -0.385516,-0.37888 -0.746566,-0.78678 -1.079486,-1.21951 -0.228662,-0.29774 -0.444741,-0.6073 -0.644132,-0.92865 -0.243517,-0.39265 -0.462794,-0.80324 -0.6519,-1.22934 -0.147253,-0.33192 -0.276211,-0.67318 -0.384142,-1.02207 -0.113869,-0.36856 -0.204187,-0.74498 -0.266843,-1.1278 -0.07544,-0.46002 -0.110895,-0.92766 -0.104725,-1.39481 0.0069,-0.5473 0.07225,-1.09461 0.207852,-1.62224 0.121871,-0.47355 0.299769,-0.9289 0.505105,-1.36801 0.08227,-0.17629 0.169204,-0.35012 0.260439,-0.52149"
           id="path1247"
           inkscape:connector-curvature="0" />
        <path
           style="fill:none;fill-opacity:1;fill-rule:evenodd;stroke:#000000;stroke-width:1.18552816;stroke-linecap:round;stroke-linejoin:round;stroke-miterlimit:4;stroke-dasharray:none;stroke-opacity:1"
           d="m 88.948351,274.64678 c -0.329722,-0.25103 -0.644589,-0.52443 -0.942293,-0.81824 -0.350074,-0.3457 -0.676599,-0.7199 -0.966767,-1.12486 -0.154573,-0.21562 -0.298619,-0.4401 -0.429409,-0.67343 -0.163492,-0.29184 -0.305724,-0.59722 -0.423706,-0.9134 -0.11799,-0.31643 -0.211731,-0.64442 -0.260672,-0.98126 -0.08556,-0.58837 -0.03249,-1.19025 0.05989,-1.77739 0.07683,-0.4873 0.180871,-0.9697 0.311436,-1.44374"
           id="path1249"
           inkscape:connector-curvature="0" />
        <path
           style="fill:#da121a;fill-opacity:1;stroke:none;stroke-width:1.18552816;stroke-linejoin:round;stroke-miterlimit:4;stroke-dasharray:none;stroke-opacity:1"
           inkscape:connector-curvature="0"
           id="path1261"
           d="m 100.35768,272.17202 a 11.745636,9.2071971 0 0 0 -0.0929,1.06127 11.745636,9.2071971 0 0 0 3.48568,6.54001 l 1.47367,-1.34014 0.4596,-0.91463 a 8.8707146,6.1158555 0 0 1 -2.54422,-4.28524 8.8707146,6.1158555 0 0 1 0.0616,-0.68958 l -2.84282,-0.37282" />
        <path
           style="fill:#da121a;fill-opacity:1;fill-rule:evenodd;stroke:#000000;stroke-width:1.18552816;stroke-linecap:round;stroke-linejoin:round;stroke-miterlimit:4;stroke-dasharray:none;stroke-opacity:1"
           d="m 104.13115,280.06081 c -0.12827,-0.0937 -0.25517,-0.18957 -0.38048,-0.28791 -0.38826,-0.30513 -0.76143,-0.63336 -1.10807,-0.99085 -0.20877,-0.21612 -0.40769,-0.44281 -0.59634,-0.67934 -0.21905,-0.27439 -0.42439,-0.56181 -0.61097,-0.8625 -0.2442,-0.39364 -0.4564,-0.81064 -0.62972,-1.24533 -0.2394,-0.60066 -0.40472,-1.23672 -0.48704,-1.8836 -0.0371,-0.29061 -0.0574,-0.58394 -0.0535,-0.87726 0.004,-0.35553 0.0449,-0.70957 0.0928,-1.06116 0.0201,-0.14728 0.0416,-0.29407 0.0645,-0.44084"
           id="path1263"
           inkscape:connector-curvature="0" />
        <path
           style="fill:none;fill-opacity:1;fill-rule:evenodd;stroke:#000000;stroke-width:1.18552816;stroke-linecap:round;stroke-linejoin:round;stroke-miterlimit:4;stroke-dasharray:none;stroke-opacity:1"
           d="m 106.36742,277.95371 c -0.23369,-0.1335 -0.46189,-0.27832 -0.68346,-0.43395 -0.29131,-0.20456 -0.57164,-0.42806 -0.83368,-0.67417 -0.18087,-0.16965 -0.35305,-0.35012 -0.51357,-0.5419 -0.21448,-0.25619 -0.40815,-0.53231 -0.57872,-0.82439 -0.28834,-0.4942 -0.51196,-1.04175 -0.57302,-1.62102 -0.0457,-0.43567 8.7e-4,-0.87529 0.0153,-1.31343 0.0155,-0.48043 -0.009,-0.96232 -0.0716,-1.43808"
           id="path1265"
           inkscape:connector-curvature="0" />
        <path
           style="fill:#da121a;fill-opacity:1;stroke:#000000;stroke-width:1.18552816;stroke-linecap:round;stroke-linejoin:round;stroke-miterlimit:4;stroke-dasharray:none;stroke-opacity:1"
           d="m 57.472174,234.94601 a 12.174581,8.882802 57.155806 0 1 0.73627,15.56128 12.174581,8.882802 57.155806 0 1 -14.072657,-3.67445 12.174581,8.882802 57.155806 0 1 -0.736281,-15.56127 12.174581,8.882802 57.155806 0 1 14.072668,3.67444 z m -2.238739,1.9954 a 9.1840598,5.9071925 55.336196 0 0 -10.021658,-3.31583 9.1840598,5.9071925 55.336196 0 0 1.162738,11.21187 9.1840598,5.9071925 55.336196 0 0 10.021657,3.31583 9.1840598,5.9071925 55.336196 0 0 -1.162737,-11.21187 z"
           id="path1189-6"
           inkscape:connector-curvature="0" />
        <path
           style="fill:#da121a;fill-opacity:1;stroke:none;stroke-width:1.18552816;stroke-linecap:round;stroke-linejoin:round;stroke-miterlimit:4;stroke-dasharray:none;stroke-opacity:1"
           inkscape:connector-curvature="0"
           id="path1209"
           d="m 56.195666,244.46043 a 12.174581,8.8828019 48.079717 0 0 -1.948044,1.60343 12.174581,8.8828019 48.079717 0 0 -1.348274,7.55181 l 2.932649,-0.0251 a 9.1840596,5.9071926 46.260107 0 1 0.576697,-5.48825 9.1840596,5.9071926 46.260107 0 1 0.798514,-0.72848 l -1.011645,-2.91237 z" />
        <path
           style="fill:none;fill-opacity:1;fill-rule:evenodd;stroke:#000000;stroke-width:1.18552816;stroke-linejoin:round;stroke-miterlimit:4;stroke-dasharray:none;stroke-opacity:1"
           d="m 53.120128,254.49294 c -0.08227,-0.28987 -0.156171,-0.5827 -0.221117,-0.87774 -0.0942,-0.42708 -0.169887,-0.85883 -0.222707,-1.29426 -0.05263,-0.43347 -0.08227,-0.87037 -0.08003,-1.30752 0.0017,-0.31643 0.02014,-0.63263 0.05462,-0.94685 0.07726,-0.70712 0.235748,-1.40514 0.485894,-2.06431 0.153199,-0.40323 0.340474,-0.79145 0.560666,-1.15705 0.165548,-0.2744 0.349392,-0.536 0.549924,-0.78212 0.187499,-0.23013 0.389396,-0.44698 0.605025,-0.64688 0.407692,-0.37789 0.863408,-0.69384 1.342898,-0.95667 0.227288,-0.12465 0.459597,-0.23726 0.697402,-0.33782"
           id="path1215"
           inkscape:connector-curvature="0" />
        <path
           d="m 56.138395,254.45361 c -0.112952,-0.28251 -0.215163,-0.57017 -0.305939,-0.86202 -0.09741,-0.31323 -0.182012,-0.63114 -0.246724,-0.95397 -0.05851,-0.2916 -0.100836,-0.58664 -0.127817,-0.88365 -0.02333,-0.25619 -0.035,-0.51362 -0.0293,-0.77104 0.0061,-0.26456 0.03042,-0.52837 0.07432,-0.78875 0.0407,-0.24046 0.09832,-0.47773 0.172402,-0.70884 0.108156,-0.3366 0.251753,-0.6604 0.433307,-0.95815 0.09078,-0.14875 0.190697,-0.29111 0.300227,-0.42437 0.174925,-0.21342 0.373166,-0.40371 0.543744,-0.62082 0.222258,-0.28274 0.395809,-0.60975 0.50922,-0.95914"
           id="path1217"
           inkscape:connector-curvature="0"
           style="fill:none;fill-opacity:1;fill-rule:evenodd;stroke:#000000;stroke-width:1.18552816;stroke-linecap:round;stroke-linejoin:round;stroke-miterlimit:4;stroke-dasharray:none;stroke-opacity:1" />
        <path
           style="fill:#da121a;fill-opacity:1;stroke:#000000;stroke-width:1.32291663;stroke-linecap:round;stroke-linejoin:round;stroke-miterlimit:4;stroke-dasharray:none;stroke-opacity:1"
           inkscape:connector-curvature="0"
           id="path1207-55"
           d="m 57.155127,234.87039 a 12.297959,8.7936858 55.867656 0 1 1.120559,15.58285 12.297959,8.7936858 55.867656 0 1 -14.1399,-3.62039 12.297959,8.7936858 55.867656 0 1 -1.12057,-15.58284 12.297959,8.7936858 55.867656 0 1 14.139911,3.62038 z m -2.185511,2.0081 a 9.2783552,5.8471581 54.247968 0 0 -10.08687,-3.27846 9.2783552,5.8471581 54.247968 0 0 1.43854,11.22473 9.2783552,5.8471581 54.247968 0 0 10.08688,3.27845 9.2783552,5.8471581 54.247968 0 0 -1.43855,-11.22472 z" />
        <path
           style="fill:#da121a;fill-opacity:1;stroke:none;stroke-width:1.18552816;stroke-linejoin:round;stroke-miterlimit:4;stroke-dasharray:none;stroke-opacity:1"
           inkscape:connector-curvature="0"
           id="path1221-8"
           d="m 56.195146,244.46129 a 12.174581,8.882802 48.079715 0 0 -1.94805,1.60343 12.174581,8.882802 48.079715 0 0 -1.34827,7.55181 l 2.93275,-0.0246 a 9.1840595,5.9071925 46.260105 0 1 0.576551,-5.48883 9.1840595,5.9071925 46.260105 0 1 0.798519,-0.72848 l -1.011579,-2.91354" />
        <path
           d="m 56.137016,254.45362 c -0.11296,-0.2825 -0.21517,-0.57016 -0.30595,-0.86201 -0.0974,-0.31324 -0.182009,-0.63115 -0.24672,-0.95397 -0.0585,-0.2916 -0.10084,-0.58664 -0.12782,-0.88365 -0.0233,-0.2562 -0.035,-0.51362 -0.0293,-0.77105 0.006,-0.26455 0.0304,-0.52837 0.0743,-0.78874 0.0407,-0.24046 0.0983,-0.47773 0.1724,-0.70884 0.10815,-0.3366 0.251751,-0.6604 0.433311,-0.95815 0.0908,-0.14875 0.19069,-0.29111 0.300219,-0.42437 0.17493,-0.21342 0.373171,-0.40372 0.543751,-0.62083 0.22225,-0.28273 0.395809,-0.60975 0.50922,-0.95913"
           id="path1225-0"
           inkscape:connector-curvature="0"
           style="fill:none;fill-opacity:1;fill-rule:evenodd;stroke:#000000;stroke-width:1.18552816;stroke-linecap:round;stroke-linejoin:round;stroke-miterlimit:4;stroke-dasharray:none;stroke-opacity:1" />
        <path
           style="fill:none;fill-opacity:1;fill-rule:evenodd;stroke:#000000;stroke-width:1.18552816;stroke-linejoin:round;stroke-miterlimit:4;stroke-dasharray:none;stroke-opacity:1"
           d="m 53.121036,254.49295 c -0.0823,-0.28986 -0.15618,-0.5827 -0.22111,-0.87773 -0.0942,-0.42708 -0.1699,-0.85883 -0.222719,-1.29426 -0.0525,-0.43347 -0.0823,-0.87037 -0.08,-1.30752 0.002,-0.31643 0.0201,-0.63263 0.0546,-0.94685 0.0773,-0.70712 0.235749,-1.40514 0.485899,-2.06431 0.153201,-0.40323 0.34047,-0.79146 0.56066,-1.15705 0.16555,-0.27441 0.34939,-0.536 0.549931,-0.78213 0.187499,-0.23012 0.3894,-0.44697 0.605019,-0.64687 0.40769,-0.37789 0.86341,-0.69385 1.3429,-0.95667 0.227291,-0.12466 0.459611,-0.23726 0.697401,-0.33782"
           id="path1223-0"
           inkscape:connector-curvature="0" />
        <path
           style="fill:#da121a;fill-opacity:1;stroke:#000000;stroke-width:1.18552816;stroke-linecap:round;stroke-linejoin:round;stroke-miterlimit:4;stroke-dasharray:none;stroke-opacity:1"
           d="m 50.34856,221.50868 a 12.174581,8.882802 75.40237 0 1 -4.173098,15.00936 12.174581,8.882802 75.40237 0 1 -12.214555,-7.89594 12.174581,8.882802 75.40237 0 1 4.173075,-15.00936 12.174581,8.882802 75.40237 0 1 12.214578,7.89594 z m -2.75095,1.1941 a 9.1840598,5.9071925 73.58276 0 0 -8.479536,-6.28696 9.1840598,5.9071925 73.58276 0 0 -2.406239,11.01218 9.1840598,5.9071925 73.58276 0 0 8.479535,6.28696 9.1840598,5.9071925 73.58276 0 0 2.40624,-11.01218 z"
           id="path1189-4"
           inkscape:connector-curvature="0" />
        <path
           style="fill:#da121a;fill-opacity:1;stroke:#000000;stroke-width:1.18552816;stroke-linecap:round;stroke-linejoin:round;stroke-miterlimit:4;stroke-dasharray:none;stroke-opacity:1"
           d="m 45.855589,205.00216 a 12.297959,8.7936858 83.190311 0 1 -6.156995,14.3587 12.297959,8.7936858 83.190311 0 1 -10.900654,-9.70671 12.297959,8.7936858 83.190311 0 1 6.156991,-14.35869 12.297959,8.7936858 83.190311 0 1 10.900658,9.7067 z m -2.863414,0.78092 a 9.2783552,5.8471581 81.570623 0 0 -7.456725,-7.54258 9.2783552,5.8471581 81.570623 0 0 -3.87411,10.63275 9.2783552,5.8471581 81.570623 0 0 7.456734,7.54257 9.2783552,5.8471581 81.570623 0 0 3.874101,-10.63274 z"
           id="path1191-8"
           inkscape:connector-curvature="0" />
        <path
           style="fill:#da121a;fill-opacity:1;stroke:#000000;stroke-width:1.18552816;stroke-linecap:round;stroke-linejoin:round;stroke-miterlimit:4;stroke-dasharray:none;stroke-opacity:1"
           d="m 46.102531,205.21488 a 12.174581,8.882802 84.478459 0 1 -6.488512,14.16315 12.174581,8.882802 84.478459 0 1 -10.816079,-9.72388 12.174581,8.882802 84.478459 0 1 6.488498,-14.16314 12.174581,8.882802 84.478459 0 1 10.816093,9.72387 z m -2.904867,0.7452 a 9.1840598,5.9071925 82.658849 0 0 -7.381633,-7.54585 9.1840598,5.9071925 82.658849 0 0 -4.113238,10.49473 9.1840598,5.9071925 82.658849 0 0 7.381633,7.54585 9.1840598,5.9071925 82.658849 0 0 4.113238,-10.49473 z"
           id="path1189-6-9"
           inkscape:connector-curvature="0" />
        <path
           style="fill:#da121a;fill-opacity:1;stroke:none;stroke-width:1.18552816;stroke-linecap:round;stroke-linejoin:round;stroke-miterlimit:4;stroke-dasharray:none;stroke-opacity:1"
           inkscape:connector-curvature="0"
           id="path1209-8"
           d="m 40.601307,213.08191 a 12.174581,8.882802 75.40237 0 0 -2.466684,0.5304 12.174581,8.882802 75.40237 0 0 -4.664148,6.09043 l 2.616993,1.32379 a 9.1840598,5.9071925 73.58276 0 1 3.031472,-4.61125 9.1840598,5.9071925 73.58276 0 1 1.043798,-0.28069 l 0.438003,-3.0518 z" />
        <path
           style="fill:#da121a;fill-opacity:1;fill-rule:evenodd;stroke:#000000;stroke-width:1.18552816;stroke-linejoin:round;stroke-miterlimit:4;stroke-dasharray:none;stroke-opacity:1"
           d="m 33.263957,220.58348 c 0.05993,-0.29531 0.128712,-0.58937 0.206441,-0.88131 0.112339,-0.42267 0.243267,-0.84099 0.396203,-1.25209 0.152231,-0.40925 0.326382,-0.81104 0.529078,-1.19836 0.147018,-0.28021 0.308235,-0.55283 0.483113,-0.81616 0.393245,-0.59275 0.85441,-1.14017 1.379203,-1.61098 0.321191,-0.28793 0.66577,-0.54687 1.029206,-0.77062 0.27303,-0.1678 0.556435,-0.31583 0.847562,-0.44245 0.272212,-0.11839 0.551121,-0.21838 0.834449,-0.297 0.535658,-0.1486 1.085557,-0.22013 1.632193,-0.23355 0.259138,-0.006 0.517219,1.7e-4 0.774655,0.02"
           id="path1215-3"
           inkscape:connector-curvature="0" />
        <path
           d="m 35.963548,221.93393 c 0.02932,-0.30284 0.07055,-0.60532 0.12386,-0.90628 0.05724,-0.32299 0.12799,-0.64427 0.218678,-0.96079 0.08187,-0.28591 0.179679,-0.56747 0.292037,-0.84373 0.09689,-0.2383 0.204656,-0.47238 0.327876,-0.69847 0.126764,-0.23229 0.269531,-0.45547 0.428048,-0.66665 0.146531,-0.19495 0.306612,-0.37931 0.478525,-0.55063 0.250593,-0.2494 0.526796,-0.47116 0.824759,-0.65236 0.148947,-0.0905 0.303045,-0.1711 0.461522,-0.23922 0.253365,-0.10932 0.516832,-0.18739 0.768035,-0.30198 0.327241,-0.14918 0.631527,-0.36005 0.892655,-0.6184"
           id="path1217-5"
           inkscape:connector-curvature="0"
           style="fill:none;fill-opacity:1;fill-rule:evenodd;stroke:#000000;stroke-width:1.18552816;stroke-linecap:round;stroke-linejoin:round;stroke-miterlimit:4;stroke-dasharray:none;stroke-opacity:1" />
        <path
           style="fill:#da121a;fill-opacity:1;stroke:#000000;stroke-width:1.18552816;stroke-linecap:round;stroke-linejoin:round;stroke-miterlimit:4;stroke-dasharray:none;stroke-opacity:1"
           inkscape:connector-curvature="0"
           id="path1207-55-4"
           d="m 45.855562,205.00217 a 12.297959,8.7936858 83.190309 0 1 -6.156995,14.3587 12.297959,8.7936858 83.190309 0 1 -10.900632,-9.70671 12.297959,8.7936858 83.190309 0 1 6.156982,-14.35869 12.297959,8.7936858 83.190309 0 1 10.900645,9.7067 z m -2.863405,0.78092 a 9.2783554,5.8471581 81.570621 0 0 -7.45672,-7.54258 9.2783554,5.8471581 81.570621 0 0 -3.874111,10.63274 9.2783554,5.8471581 81.570621 0 0 7.456735,7.54258 9.2783554,5.8471581 81.570621 0 0 3.874096,-10.63274 z" />
        <path
           style="fill:#da121a;fill-opacity:1;stroke:none;stroke-width:1.18552816;stroke-linejoin:round;stroke-miterlimit:4;stroke-dasharray:none;stroke-opacity:1"
           inkscape:connector-curvature="0"
           id="path1221-8-5"
           d="m 40.60045,213.08244 a 12.174581,8.882802 75.402368 0 0 -2.466693,0.53039 12.174581,8.882802 75.402368 0 0 -4.664138,6.09044 l 2.616851,1.32428 a 9.1840595,5.9071925 73.582758 0 1 3.031606,-4.61184 9.1840595,5.9071925 73.582758 0 1 1.043806,-0.28068 l 0.438594,-3.05281" />
        <path
           d="m 35.962318,221.9333 c 0.02931,-0.30283 0.07054,-0.60531 0.123846,-0.90627 0.05724,-0.323 0.127994,-0.64428 0.218678,-0.96079 0.08187,-0.28592 0.179679,-0.56747 0.292036,-0.84373 0.0969,-0.23831 0.204657,-0.47238 0.327882,-0.69848 0.126759,-0.23228 0.269531,-0.45547 0.428043,-0.66664 0.146531,-0.19495 0.306612,-0.37931 0.478525,-0.55063 0.250584,-0.2494 0.526787,-0.47117 0.824759,-0.65236 0.148947,-0.0905 0.303036,-0.17111 0.461513,-0.23923 0.253374,-0.10931 0.516845,-0.18739 0.768048,-0.30198 0.327228,-0.14918 0.631528,-0.36005 0.892651,-0.6184"
           id="path1225-0-2"
           inkscape:connector-curvature="0"
           style="fill:none;fill-opacity:1;fill-rule:evenodd;stroke:#000000;stroke-width:1.18552816;stroke-linecap:round;stroke-linejoin:round;stroke-miterlimit:4;stroke-dasharray:none;stroke-opacity:1" />
        <path
           style="fill:none;fill-opacity:1;fill-rule:evenodd;stroke:#000000;stroke-width:1.18552816;stroke-linejoin:round;stroke-miterlimit:4;stroke-dasharray:none;stroke-opacity:1"
           d="m 33.264761,220.58391 c 0.05993,-0.2953 0.128703,-0.58938 0.206436,-0.8813 0.11234,-0.42267 0.243259,-0.841 0.396194,-1.2521 0.152321,-0.4092 0.326383,-0.81104 0.529078,-1.19836 0.147019,-0.28021 0.308236,-0.55283 0.483114,-0.81616 0.393245,-0.59275 0.854409,-1.14016 1.379211,-1.61098 0.321191,-0.28792 0.665766,-0.54688 1.029197,-0.77062 0.273035,-0.1678 0.556435,-0.31583 0.847576,-0.44245 0.272207,-0.11838 0.551117,-0.21837 0.834435,-0.297 0.535659,-0.1486 1.085562,-0.22013 1.632193,-0.23355 0.259152,-0.006 0.517237,1.8e-4 0.774655,0.02"
           id="path1223-0-1"
           inkscape:connector-curvature="0" />
        <path
           style="fill:#da121a;fill-opacity:1;stroke:none;stroke-width:1.18552816;stroke-linejoin:round;stroke-miterlimit:4;stroke-dasharray:none;stroke-opacity:1"
           inkscape:connector-curvature="0"
           id="path1229-5"
           d="m 45.632295,230.14258 c -0.813117,0.28391 -1.556346,0.7078 -2.207854,1.25923 -1.952883,1.67203 -2.951802,4.39255 -2.750193,7.49005 l 3.01728,0.78325 c -0.493739,-2.52333 0.64926,-4.09702 1.500427,-5.96076 0.272755,-0.59723 0.837185,-1.46873 1.128745,-1.6142 l 0.547741,-2.4329"
           sodipodi:nodetypes="ccccacc" />
        <path
           style="fill:none;fill-opacity:1;fill-rule:evenodd;stroke:#000000;stroke-width:1.18552816;stroke-linecap:round;stroke-linejoin:round;stroke-miterlimit:4;stroke-dasharray:none;stroke-opacity:1"
           d="m 43.914776,240.61791 c -0.08762,-0.31013 -0.162887,-0.62553 -0.223248,-0.9428 -0.06109,-0.3211 -0.112234,-0.64483 -0.14023,-0.97049 -0.03106,-0.36124 -0.0445,-0.72499 -0.03047,-1.08729 0.01256,-0.3244 0.04782,-0.64851 0.102481,-0.96851 0.04039,-0.23643 0.09554,-0.47089 0.166101,-0.70013 0.07743,-0.25154 0.166766,-0.5008 0.281318,-0.73776 0.13747,-0.28436 0.294469,-0.56197 0.48417,-0.8145 0.186903,-0.24881 0.407217,-0.47276 0.63786,-0.68167 0.26705,-0.24188 0.587266,-0.41965 0.85829,-0.65706 0.412684,-0.36152 0.937601,-0.91432 1.163807,-1.16386"
           id="path1233-7"
           inkscape:connector-curvature="0"
           sodipodi:nodetypes="caaaaaaaaac" />
        <path
           style="fill:none;stroke:#000000;stroke-width:1.32291663;stroke-linecap:round;stroke-linejoin:round;stroke-miterlimit:4;stroke-dasharray:none;stroke-opacity:1"
           d="m 41.161306,241.1229 c -0.276108,-0.92501 -0.449221,-1.88073 -0.515116,-2.84382 -0.06648,-0.97166 -0.02349,-1.95327 0.166405,-2.9085 0.230477,-1.15936 0.683249,-2.284 1.395372,-3.22745 0.667475,-0.8843 1.560521,-1.59983 2.57677,-2.04114 0.882654,-0.38329 1.85479,-0.5587 2.815742,-0.50807"
           id="path1140"
           inkscape:connector-curvature="0"
           inkscape:path-effect="#path-effect1142"
           inkscape:original-d="m 41.161306,241.1229 c -0.171441,-0.94821 -0.456367,-1.88225 -0.515116,-2.84382 -0.05922,-0.96928 -0.05745,-1.96357 0.166405,-2.9085 0.270184,-1.14049 0.681891,-2.29758 1.395372,-3.22745 0.667028,-0.86933 1.578148,-1.59012 2.57677,-2.04114 0.869198,-0.39257 2.086497,-0.35843 2.815742,-0.50807"
           sodipodi:nodetypes="caaaac" />
      </g>
      <path
         d="m 127.21814,260.57183 a 9.6341216,11.77417 64.078781 0 0 -9.03399,12.90986 9.6341216,11.77417 64.078781 0 0 13.34662,6.03927 9.6341216,11.77417 64.078781 0 0 9.03398,-12.90985 9.6341216,11.77417 64.078781 0 0 -13.34661,-6.03928 z m 0.72394,3.18091 a 6.4169911,8.867942 68.210199 0 1 9.88381,3.69917 6.4169911,8.867942 68.210199 0 1 -7.01906,8.88814 6.4169911,8.867942 68.210199 0 1 -9.88381,-3.69916 6.4169911,8.867942 68.210199 0 1 7.01906,-8.88815 z"
         id="path1153-8"
         inkscape:connector-curvature="0"
         style="fill:#da121a;fill-opacity:1;stroke:#000000;stroke-width:1.21417451;stroke-linecap:round;stroke-linejoin:round;stroke-miterlimit:4;stroke-dasharray:none;stroke-opacity:1" />
      <path
         d="m 142.43476,254.39575 a 9.4352161,12.022384 52.343292 0 0 -7.20247,14.3797 9.4352161,12.022384 52.343292 0 0 13.99116,3.56446 9.4352161,12.022384 52.343292 0 0 7.20247,-14.37971 9.4352161,12.022384 52.343292 0 0 -13.99116,-3.56445 z m 1.13959,3.01222 a 6.2958625,9.0385558 56.873674 0 1 10.25797,1.87576 6.2958625,9.0385558 56.873674 0 1 -5.74846,10.04396 6.2958625,9.0385558 56.873674 0 1 -10.25797,-1.87578 6.2958625,9.0385558 56.873674 0 1 5.74846,-10.04394 z"
         id="path1155-8"
         inkscape:connector-curvature="0"
         style="fill:#da121a;fill-opacity:1;stroke:#000000;stroke-width:1.21417451;stroke-linecap:round;stroke-linejoin:round;stroke-miterlimit:4;stroke-dasharray:none;stroke-opacity:1" />
      <path
         inkscape:connector-curvature="0"
         id="path1189-9"
         d="m 154.83834,245.22136 a 9.0181606,12.578374 35.038741 0 0 -3.1355,16.2323 9.0181606,12.578374 35.038741 0 0 14.26554,-1.49923 9.0181606,12.578374 35.038741 0 0 3.13551,-16.2323 9.0181606,12.578374 35.038741 0 0 -14.26555,1.49923 z m 1.86837,2.47319 a 6.0184844,9.455122 38.51518 0 1 10.26769,-1.80249 6.0184844,9.455122 38.51518 0 1 -2.87438,11.58919 6.0184844,9.455122 38.51518 0 1 -10.2677,1.80248 6.0184844,9.455122 38.51518 0 1 2.87439,-11.58918 z"
         style="fill:#da121a;fill-opacity:1;stroke:#000000;stroke-width:1.21417451;stroke-linecap:round;stroke-linejoin:round;stroke-miterlimit:4;stroke-dasharray:none;stroke-opacity:1" />
      <path
         inkscape:connector-curvature="0"
         id="path1191-1"
         d="m 166.2383,231.80714 a 8.8465567,12.822366 28.354908 0 0 -1.10426,16.58627 8.8465567,12.822366 28.354908 0 0 13.93425,-3.85351 8.8465567,12.822366 28.354908 0 0 1.10427,-16.58625 8.8465567,12.822366 28.354908 0 0 -13.93426,3.85349 z m 2.15373,2.13741 a 5.8984474,9.6475394 31.172679 0 1 9.94016,-3.48956 5.8984474,9.6475394 31.172679 0 1 -1.41761,11.94752 5.8984474,9.6475394 31.172679 0 1 -9.94018,3.48955 5.8984474,9.6475394 31.172679 0 1 1.41763,-11.94751 z"
         style="fill:#da121a;fill-opacity:1;stroke:#000000;stroke-width:1.21417451;stroke-linecap:round;stroke-linejoin:round;stroke-miterlimit:4;stroke-dasharray:none;stroke-opacity:1" />
      <path
         d="m 155.06216,255.69011 a 9.4352161,12.022384 52.343292 0 1 1.36343,2.26944 9.4352161,12.022384 52.343292 0 1 -0.9801,8.42655 l -2.99595,-0.73344 a 6.2958625,9.0385558 56.873674 0 0 1.38255,-6.36979 6.2958625,9.0385558 56.873674 0 0 -0.46827,-0.90061 l 1.6973,-2.69253"
         id="path1229-58"
         inkscape:connector-curvature="0"
         style="fill:#da121a;fill-opacity:1;stroke:none;stroke-width:1.21417451;stroke-linejoin:round;stroke-miterlimit:4;stroke-dasharray:none;stroke-opacity:1" />
      <path
         inkscape:connector-curvature="0"
         id="path1231-9"
         d="m 155.14224,266.92714 c 0.22961,-0.36402 0.43985,-0.74427 0.62935,-1.13786 0.24471,-0.50824 0.45518,-1.03896 0.63566,-1.5833 0.11289,-0.33917 0.21452,-0.68383 0.29609,-1.03502 0.0985,-0.4237 0.16764,-0.85629 0.20843,-1.29254 0.064,-0.68618 0.057,-1.38205 -0.0304,-2.06508 -0.0816,-0.63777 -0.23321,-1.26375 -0.45516,-1.85467 -0.12439,-0.33105 -0.27062,-0.65084 -0.43827,-0.95522 -0.26319,-0.47759 -0.57842,-0.91516 -0.92521,-1.31372 -0.22533,-0.2604 -0.46644,-0.50509 -0.71835,-0.73172"
         style="fill:#da121a;fill-opacity:1;fill-rule:evenodd;stroke:#000000;stroke-width:1.21417451;stroke-linecap:round;stroke-linejoin:round;stroke-miterlimit:4;stroke-dasharray:none;stroke-opacity:1" />
      <path
         inkscape:connector-curvature="0"
         id="path1233-1"
         d="m 151.82763,266.43515 c 0.21699,-0.25045 0.42475,-0.51162 0.62236,-0.78275 0.19852,-0.27243 0.38712,-0.55481 0.5613,-0.84895 0.19176,-0.32399 0.36616,-0.66211 0.51849,-1.01331 0.1352,-0.3122 0.25304,-0.63463 0.34835,-0.96593 0.0701,-0.2434 0.12777,-0.49174 0.17126,-0.74323 0.0475,-0.27532 0.0779,-0.55455 0.0874,-0.83509 0.0112,-0.33655 -0.008,-0.6744 -0.0554,-1.00677 -0.0475,-0.32974 -0.12416,-0.65581 -0.25012,-0.95625 -0.13227,-0.3156 -0.31614,-0.59745 -0.46824,-0.90051 -0.15616,-0.31116 -0.27873,-0.64536 -0.36391,-0.99185"
         style="fill:none;fill-opacity:1;fill-rule:evenodd;stroke:#000000;stroke-width:1.21417451;stroke-linecap:round;stroke-linejoin:round;stroke-miterlimit:4;stroke-dasharray:none;stroke-opacity:1" />
      <path
         d="m 140.06666,265.15427 a 9.6341216,11.77417 64.078781 0 1 0.49775,1.45622 9.6341216,11.77417 64.078781 0 1 -2.17366,8.25685 l -3.03031,-1.12029 -0.007,-0.007 a 6.4169911,8.867942 68.210199 0 0 2.47199,-6.2879 6.4169911,8.867942 68.210199 0 0 -0.11839,-0.42374 l 2.36032,-1.87214"
         id="path1245-5"
         inkscape:connector-curvature="0"
         style="fill:#da121a;fill-opacity:1;stroke:none;stroke-width:1.21417451;stroke-linejoin:round;stroke-miterlimit:4;stroke-dasharray:none;stroke-opacity:1" />
      <path
         inkscape:connector-curvature="0"
         id="path1247-3"
         d="m 137.6836,275.70458 c 0.37991,-0.40328 0.73571,-0.83745 1.06379,-1.29804 0.22533,-0.31691 0.43827,-0.64641 0.63476,-0.98845 0.23997,-0.41793 0.45606,-0.85496 0.64242,-1.3085 0.14511,-0.35329 0.27219,-0.71653 0.37855,-1.08788 0.11221,-0.39229 0.20122,-0.79295 0.26296,-1.20042 0.0744,-0.48964 0.10929,-0.9874 0.10321,-1.48463 -0.007,-0.58254 -0.0712,-1.16509 -0.20483,-1.7267 -0.1201,-0.50404 -0.29541,-0.98871 -0.49776,-1.45609 -0.0811,-0.18765 -0.16675,-0.37267 -0.25665,-0.55507"
         style="fill:#da121a;fill-opacity:1;fill-rule:evenodd;stroke:#000000;stroke-width:1.21417451;stroke-linecap:round;stroke-linejoin:round;stroke-miterlimit:4;stroke-dasharray:none;stroke-opacity:1" />
      <path
         inkscape:connector-curvature="0"
         id="path1249-5"
         d="m 134.90752,274.14484 c 0.32493,-0.2672 0.63522,-0.5582 0.92859,-0.87093 0.34498,-0.36796 0.66676,-0.76626 0.95271,-1.19729 0.15232,-0.22951 0.29427,-0.46844 0.42316,-0.7168 0.16111,-0.31063 0.30128,-0.63567 0.41754,-0.97221 0.11628,-0.33681 0.20865,-0.68592 0.25688,-1.04445 0.0843,-0.62625 0.032,-1.26689 -0.059,-1.89184 -0.0757,-0.51868 -0.17824,-1.03214 -0.3069,-1.5367"
         style="fill:none;fill-opacity:1;fill-rule:evenodd;stroke:#000000;stroke-width:1.21417451;stroke-linecap:round;stroke-linejoin:round;stroke-miterlimit:4;stroke-dasharray:none;stroke-opacity:1" />
      <path
         d="m 123.66414,271.51072 a 11.574797,9.8000669 0 0 1 0.0915,1.12961 11.574797,9.8000669 0 0 1 -3.43498,6.96113 l -1.45224,-1.42643 -0.45291,-0.97352 a 8.7416911,6.5096677 0 0 0 2.50721,-4.56118 8.7416911,6.5096677 0 0 0 -0.0607,-0.73398 l 2.80147,-0.39683"
         id="path1261-0"
         inkscape:connector-curvature="0"
         style="fill:#da121a;fill-opacity:1;stroke:none;stroke-width:1.21417451;stroke-linejoin:round;stroke-miterlimit:4;stroke-dasharray:none;stroke-opacity:1" />
      <path
         inkscape:connector-curvature="0"
         id="path1263-8"
         d="m 119.94556,279.90749 c 0.1264,-0.0997 0.25145,-0.20178 0.37494,-0.30645 0.38261,-0.32478 0.75036,-0.67414 1.09195,-1.05465 0.20574,-0.23004 0.40176,-0.47133 0.58767,-0.72309 0.21586,-0.29206 0.41822,-0.59798 0.60208,-0.91804 0.24065,-0.41898 0.44977,-0.86284 0.62056,-1.32552 0.23592,-0.63933 0.39884,-1.31635 0.47996,-2.00488 0.0366,-0.30933 0.0566,-0.62155 0.0527,-0.93375 -0.004,-0.37843 -0.0442,-0.75526 -0.0914,-1.12949 -0.0198,-0.15677 -0.041,-0.31301 -0.0636,-0.46923"
         style="fill:#da121a;fill-opacity:1;fill-rule:evenodd;stroke:#000000;stroke-width:1.21417451;stroke-linecap:round;stroke-linejoin:round;stroke-miterlimit:4;stroke-dasharray:none;stroke-opacity:1" />
      <path
         inkscape:connector-curvature="0"
         id="path1265-7"
         d="m 117.74181,277.66471 c 0.23029,-0.1421 0.45517,-0.29624 0.67352,-0.4619 0.28707,-0.21773 0.56333,-0.45562 0.82155,-0.71758 0.17824,-0.18057 0.34792,-0.37266 0.5061,-0.57679 0.21137,-0.27269 0.40222,-0.56659 0.57031,-0.87747 0.28414,-0.52603 0.50451,-1.10884 0.56468,-1.72541 0.045,-0.46372 -8.5e-4,-0.93165 -0.0151,-1.398 -0.0153,-0.51137 0.009,-1.02429 0.0705,-1.53068"
         style="fill:none;fill-opacity:1;fill-rule:evenodd;stroke:#000000;stroke-width:1.21417451;stroke-linecap:round;stroke-linejoin:round;stroke-miterlimit:4;stroke-dasharray:none;stroke-opacity:1" />
      <path
         inkscape:connector-curvature="0"
         id="path1189-6-3"
         d="m 165.92588,231.88766 a 8.9218163,12.714204 26.927251 0 0 -0.72556,16.5633 8.9218163,12.714204 26.927251 0 0 13.86797,-3.91106 8.9218163,12.714204 26.927251 0 0 0.72557,-16.56329 8.9218163,12.714204 26.927251 0 0 -13.86798,3.91105 z m 2.20618,2.12388 a 5.9507259,9.5627836 30.002747 0 1 9.87589,-3.52934 5.9507259,9.5627836 30.002747 0 1 -1.14582,11.93383 5.9507259,9.5627836 30.002747 0 1 -9.8759,3.52934 5.9507259,9.5627836 30.002747 0 1 1.14583,-11.93383 z"
         style="fill:#da121a;fill-opacity:1;stroke:#000000;stroke-width:1.21417451;stroke-linecap:round;stroke-linejoin:round;stroke-miterlimit:4;stroke-dasharray:none;stroke-opacity:1" />
      <path
         d="m 167.18382,242.01473 a 9.0181606,12.578374 35.038741 0 1 1.91971,1.70668 9.0181606,12.578374 35.038741 0 1 1.32867,8.03808 l -2.89,-0.0267 a 6.0184844,9.455122 38.51518 0 0 -0.56831,-5.84165 6.0184844,9.455122 38.51518 0 0 -0.7869,-0.77539 l 0.99693,-3.09991 z"
         id="path1209-6"
         inkscape:connector-curvature="0"
         style="fill:#da121a;fill-opacity:1;stroke:none;stroke-width:1.21417451;stroke-linecap:round;stroke-linejoin:round;stroke-miterlimit:4;stroke-dasharray:none;stroke-opacity:1" />
      <path
         inkscape:connector-curvature="0"
         id="path1215-6"
         d="m 170.21463,252.69325 c 0.0811,-0.30853 0.1539,-0.62022 0.2179,-0.93426 0.0928,-0.45458 0.16741,-0.91413 0.21947,-1.3776 0.0519,-0.46138 0.0811,-0.92641 0.0789,-1.39171 -0.002,-0.33681 -0.0198,-0.67337 -0.0538,-1.00782 -0.0761,-0.75265 -0.23232,-1.49562 -0.47883,-2.19724 -0.15097,-0.42919 -0.33552,-0.84241 -0.55251,-1.23155 -0.16314,-0.29207 -0.34431,-0.57052 -0.54193,-0.83248 -0.18477,-0.24495 -0.38373,-0.47577 -0.59622,-0.68854 -0.40176,-0.40222 -0.85085,-0.73852 -1.32337,-1.01827 -0.22398,-0.13268 -0.45291,-0.25254 -0.68726,-0.35957"
         style="fill:none;fill-opacity:1;fill-rule:evenodd;stroke:#000000;stroke-width:1.21417451;stroke-linejoin:round;stroke-miterlimit:4;stroke-dasharray:none;stroke-opacity:1" />
      <path
         style="fill:none;fill-opacity:1;fill-rule:evenodd;stroke:#000000;stroke-width:1.21417451;stroke-linecap:round;stroke-linejoin:round;stroke-miterlimit:4;stroke-dasharray:none;stroke-opacity:1"
         inkscape:connector-curvature="0"
         id="path1217-8"
         d="m 167.24026,252.65139 c 0.11131,-0.3007 0.21203,-0.60689 0.30149,-0.91753 0.096,-0.3334 0.17937,-0.67178 0.24314,-1.0154 0.0577,-0.31037 0.0994,-0.62441 0.12595,-0.94055 0.023,-0.27268 0.0345,-0.54669 0.0289,-0.82069 -0.006,-0.28159 -0.03,-0.56239 -0.0732,-0.83953 -0.0401,-0.25595 -0.0969,-0.5085 -0.1699,-0.75449 -0.10658,-0.35827 -0.24809,-0.70292 -0.427,-1.01985 -0.0895,-0.15832 -0.18792,-0.30985 -0.29586,-0.45169 -0.17238,-0.22716 -0.36774,-0.42971 -0.53584,-0.6608 -0.21902,-0.30094 -0.39005,-0.64901 -0.50181,-1.0209" />
      <path
         d="m 166.23832,231.80717 a 8.8465568,12.822366 28.35491 0 0 -1.10426,16.58626 8.8465568,12.822366 28.35491 0 0 13.93423,-3.85352 8.8465568,12.822366 28.35491 0 0 1.10428,-16.58625 8.8465568,12.822366 28.35491 0 0 -13.93425,3.85351 z m 2.15372,2.1374 a 5.8984475,9.6475395 31.17268 0 1 9.94016,-3.48956 5.8984475,9.6475395 31.17268 0 1 -1.41762,11.94751 5.8984475,9.6475395 31.17268 0 1 -9.94017,3.48955 5.8984475,9.6475395 31.17268 0 1 1.41763,-11.9475 z"
         id="path1207-55-48"
         inkscape:connector-curvature="0"
         style="fill:#da121a;fill-opacity:1;stroke:#000000;stroke-width:1.35488272;stroke-linecap:round;stroke-linejoin:round;stroke-miterlimit:4;stroke-dasharray:none;stroke-opacity:1" />
      <path
         d="m 167.18434,242.01564 a 9.0181607,12.578373 35.038743 0 1 1.91971,1.70668 9.0181607,12.578373 35.038743 0 1 1.32866,8.03809 l -2.89009,-0.0262 a 6.0184843,9.4551219 38.515182 0 0 -0.56817,-5.84226 6.0184843,9.4551219 38.515182 0 0 -0.7869,-0.77539 l 0.99686,-3.10115"
         id="path1221-8-3"
         inkscape:connector-curvature="0"
         style="fill:#da121a;fill-opacity:1;stroke:none;stroke-width:1.21417451;stroke-linejoin:round;stroke-miterlimit:4;stroke-dasharray:none;stroke-opacity:1" />
      <path
         style="fill:none;fill-opacity:1;fill-rule:evenodd;stroke:#000000;stroke-width:1.21417451;stroke-linecap:round;stroke-linejoin:round;stroke-miterlimit:4;stroke-dasharray:none;stroke-opacity:1"
         inkscape:connector-curvature="0"
         id="path1225-0-9"
         d="m 167.24162,252.6514 c 0.11132,-0.30069 0.21204,-0.60687 0.3015,-0.91752 0.096,-0.33341 0.17936,-0.67179 0.24313,-1.0154 0.0576,-0.31037 0.0994,-0.62441 0.12596,-0.94055 0.023,-0.27269 0.0345,-0.54669 0.0289,-0.82069 -0.006,-0.28159 -0.03,-0.5624 -0.0732,-0.83953 -0.0401,-0.25595 -0.0969,-0.5085 -0.1699,-0.75449 -0.10657,-0.35827 -0.24808,-0.70292 -0.427,-1.01984 -0.0895,-0.15833 -0.18792,-0.30986 -0.29586,-0.4517 -0.17238,-0.22716 -0.36774,-0.42972 -0.53584,-0.66081 -0.21902,-0.30093 -0.39005,-0.64901 -0.50181,-1.02089" />
      <path
         inkscape:connector-curvature="0"
         id="path1223-0-7"
         d="m 170.21373,252.69326 c 0.0811,-0.30852 0.15391,-0.62022 0.2179,-0.93425 0.0928,-0.45458 0.16743,-0.91413 0.21948,-1.3776 0.0517,-0.46138 0.0811,-0.92641 0.0788,-1.39171 -0.002,-0.33681 -0.0198,-0.67337 -0.0538,-1.00782 -0.0762,-0.75265 -0.23232,-1.49562 -0.47883,-2.19724 -0.15098,-0.42919 -0.33552,-0.84242 -0.55251,-1.23155 -0.16314,-0.29208 -0.34431,-0.57051 -0.54193,-0.83249 -0.18477,-0.24494 -0.38374,-0.47575 -0.59622,-0.68853 -0.40176,-0.40222 -0.85085,-0.73852 -1.32337,-1.01827 -0.22398,-0.13269 -0.45292,-0.25254 -0.68726,-0.35957"
         style="fill:none;fill-opacity:1;fill-rule:evenodd;stroke:#000000;stroke-width:1.21417451;stroke-linejoin:round;stroke-miterlimit:4;stroke-dasharray:none;stroke-opacity:1" />
      <path
         inkscape:connector-curvature="0"
         id="path1189-4-4"
         d="m 172.94588,217.58507 a 8.7881886,12.907528 11.690021 0 0 4.1124,15.97584 8.7881886,12.907528 11.690021 0 0 12.0369,-8.40437 8.7881886,12.907528 11.690021 0 0 -4.11238,-15.97585 8.7881886,12.907528 11.690021 0 0 -12.03692,8.40438 z m 2.71094,1.27099 a 5.8518543,9.7243542 13.896314 0 1 8.3562,-6.69179 5.8518543,9.7243542 13.896314 0 1 2.37124,11.72128 5.8518543,9.7243542 13.896314 0 1 -8.3562,6.69179 5.8518543,9.7243542 13.896314 0 1 -2.37124,-11.72128 z"
         style="fill:#da121a;fill-opacity:1;stroke:#000000;stroke-width:1.21417451;stroke-linecap:round;stroke-linejoin:round;stroke-miterlimit:4;stroke-dasharray:none;stroke-opacity:1" />
      <path
         inkscape:connector-curvature="0"
         id="path1191-8-7"
         d="m 177.37351,200.01566 a 8.6733724,13.078395 5.4915753 0 0 6.06744,15.28329 8.6733724,13.078395 5.4915753 0 0 10.7421,-10.33175 8.6733724,13.078395 5.4915753 0 0 -6.06744,-15.28327 8.6733724,13.078395 5.4915753 0 0 -10.7421,10.33173 z m 2.82176,0.83121 a 5.7702225,9.8619256 7.1448605 0 1 7.34827,-8.02827 5.7702225,9.8619256 7.1448605 0 1 3.81776,11.31742 5.7702225,9.8619256 7.1448605 0 1 -7.34828,8.02825 5.7702225,9.8619256 7.1448605 0 1 -3.81775,-11.3174 z"
         style="fill:#da121a;fill-opacity:1;stroke:#000000;stroke-width:1.21417451;stroke-linecap:round;stroke-linejoin:round;stroke-miterlimit:4;stroke-dasharray:none;stroke-opacity:1" />
      <path
         inkscape:connector-curvature="0"
         id="path1189-6-9-7"
         d="m 177.13015,200.24208 a 8.7585898,12.951148 4.4006544 0 0 6.39414,15.07514 8.7585898,12.951148 4.4006544 0 0 10.65876,-10.35002 8.7585898,12.951148 4.4006544 0 0 -6.39412,-15.07513 8.7585898,12.951148 4.4006544 0 0 -10.65878,10.35001 z m 2.86262,0.79318 a 5.827456,9.7650682 6.182299 0 1 7.27427,-8.03174 5.827456,9.7650682 6.182299 0 1 4.05341,11.17051 5.827456,9.7650682 6.182299 0 1 -7.27427,8.03174 5.827456,9.7650682 6.182299 0 1 -4.05341,-11.17051 z"
         style="fill:#da121a;fill-opacity:1;stroke:#000000;stroke-width:1.21417451;stroke-linecap:round;stroke-linejoin:round;stroke-miterlimit:4;stroke-dasharray:none;stroke-opacity:1" />
      <path
         d="m 182.55136,208.61568 a 8.7881886,12.907528 11.690021 0 1 2.43081,0.56456 8.7881886,12.907528 11.690021 0 1 4.59631,6.4826 l -2.57893,1.40903 a 5.8518543,9.7243542 13.896314 0 0 -2.98738,-4.90818 5.8518543,9.7243542 13.896314 0 0 -1.02862,-0.29876 l -0.43163,-3.24831 z"
         id="path1209-8-3"
         inkscape:connector-curvature="0"
         style="fill:#da121a;fill-opacity:1;stroke:none;stroke-width:1.21417451;stroke-linecap:round;stroke-linejoin:round;stroke-miterlimit:4;stroke-dasharray:none;stroke-opacity:1" />
      <path
         inkscape:connector-curvature="0"
         id="path1215-3-1"
         d="m 189.78199,216.60029 c -0.0591,-0.31432 -0.12684,-0.62732 -0.20344,-0.93806 -0.1107,-0.44988 -0.23972,-0.89514 -0.39044,-1.33271 -0.15001,-0.4356 -0.32163,-0.86326 -0.52138,-1.27553 -0.14488,-0.29825 -0.30375,-0.58842 -0.47608,-0.86871 -0.38753,-0.63092 -0.84199,-1.21359 -1.35915,-1.71471 -0.31652,-0.30647 -0.65608,-0.58209 -1.01423,-0.82025 -0.26906,-0.1786 -0.54834,-0.33616 -0.83524,-0.47094 -0.26825,-0.12601 -0.5431,-0.23244 -0.82231,-0.31612 -0.52787,-0.15817 -1.06977,-0.2343 -1.60845,-0.24859 -0.25537,-0.006 -0.5097,1.8e-4 -0.76339,0.0213"
         style="fill:#da121a;fill-opacity:1;fill-rule:evenodd;stroke:#000000;stroke-width:1.21417451;stroke-linejoin:round;stroke-miterlimit:4;stroke-dasharray:none;stroke-opacity:1" />
      <path
         style="fill:none;fill-opacity:1;fill-rule:evenodd;stroke:#000000;stroke-width:1.21417451;stroke-linecap:round;stroke-linejoin:round;stroke-miterlimit:4;stroke-dasharray:none;stroke-opacity:1"
         inkscape:connector-curvature="0"
         id="path1217-5-2"
         d="m 187.12167,218.0377 c -0.0289,-0.32234 -0.0695,-0.6443 -0.12206,-0.96464 -0.0564,-0.34378 -0.12613,-0.68575 -0.2155,-1.02265 -0.0807,-0.30432 -0.17706,-0.60401 -0.28779,-0.89806 -0.0955,-0.25365 -0.20168,-0.5028 -0.3231,-0.74345 -0.12493,-0.24725 -0.26562,-0.4848 -0.42183,-0.70958 -0.1444,-0.2075 -0.30215,-0.40373 -0.47156,-0.58608 -0.24695,-0.26546 -0.51914,-0.5015 -0.81276,-0.69437 -0.14679,-0.0963 -0.29864,-0.18212 -0.45481,-0.25462 -0.24968,-0.11636 -0.50932,-0.19946 -0.75687,-0.32143 -0.32248,-0.15878 -0.62234,-0.38323 -0.87967,-0.65822" />
      <path
         d="m 177.37353,200.01567 a 8.6733724,13.078395 5.4915769 0 0 6.06744,15.28329 8.6733724,13.078395 5.4915769 0 0 10.74209,-10.33175 8.6733724,13.078395 5.4915769 0 0 -6.06743,-15.28327 8.6733724,13.078395 5.4915769 0 0 -10.7421,10.33173 z m 2.82176,0.83121 a 5.7702225,9.8619258 7.1448622 0 1 7.34826,-8.02827 5.7702225,9.8619258 7.1448622 0 1 3.81776,11.31741 5.7702225,9.8619258 7.1448622 0 1 -7.34827,8.02826 5.7702225,9.8619258 7.1448622 0 1 -3.81775,-11.3174 z"
         id="path1207-55-4-3"
         inkscape:connector-curvature="0"
         style="fill:#da121a;fill-opacity:1;stroke:#000000;stroke-width:1.21417451;stroke-linecap:round;stroke-linejoin:round;stroke-miterlimit:4;stroke-dasharray:none;stroke-opacity:1" />
      <path
         d="m 182.55221,208.61625 a 8.7881886,12.907528 11.690022 0 1 2.43081,0.56454 8.7881886,12.907528 11.690022 0 1 4.5963,6.48261 l -2.57879,1.40956 a 5.8518544,9.7243539 13.896316 0 0 -2.98751,-4.90881 5.8518544,9.7243539 13.896316 0 0 -1.02862,-0.29875 l -0.43222,-3.24939"
         id="path1221-8-5-9"
         inkscape:connector-curvature="0"
         style="fill:#da121a;fill-opacity:1;stroke:none;stroke-width:1.21417451;stroke-linejoin:round;stroke-miterlimit:4;stroke-dasharray:none;stroke-opacity:1" />
      <path
         style="fill:none;fill-opacity:1;fill-rule:evenodd;stroke:#000000;stroke-width:1.21417451;stroke-linecap:round;stroke-linejoin:round;stroke-miterlimit:4;stroke-dasharray:none;stroke-opacity:1"
         inkscape:connector-curvature="0"
         id="path1225-0-2-1"
         d="m 187.12288,218.03703 c -0.0289,-0.32233 -0.0695,-0.64429 -0.12205,-0.96463 -0.0564,-0.34379 -0.12613,-0.68576 -0.21549,-1.02265 -0.0807,-0.30433 -0.17707,-0.60401 -0.28779,-0.89806 -0.0955,-0.25366 -0.20168,-0.5028 -0.32311,-0.74346 -0.12492,-0.24724 -0.26561,-0.4848 -0.42182,-0.70956 -0.1444,-0.20751 -0.30215,-0.40374 -0.47157,-0.58609 -0.24694,-0.26546 -0.51912,-0.50151 -0.81276,-0.69437 -0.14678,-0.0963 -0.29863,-0.18213 -0.4548,-0.25463 -0.24969,-0.11635 -0.50933,-0.19946 -0.75688,-0.32143 -0.32246,-0.15878 -0.62234,-0.38323 -0.87966,-0.65822" />
      <path
         inkscape:connector-curvature="0"
         id="path1223-0-1-5"
         d="m 189.7812,216.60075 c -0.0591,-0.31431 -0.12683,-0.62733 -0.20343,-0.93805 -0.11071,-0.44988 -0.23972,-0.89515 -0.39043,-1.33272 -0.15011,-0.43555 -0.32164,-0.86327 -0.52139,-1.27553 -0.14488,-0.29825 -0.30375,-0.58843 -0.47608,-0.86871 -0.38753,-0.63092 -0.84199,-1.21358 -1.35915,-1.71472 -0.31652,-0.30646 -0.65609,-0.58209 -1.01423,-0.82024 -0.26907,-0.1786 -0.54834,-0.33616 -0.83525,-0.47094 -0.26825,-0.126 -0.5431,-0.23243 -0.8223,-0.31612 -0.52787,-0.15817 -1.06977,-0.23431 -1.60845,-0.24859 -0.25538,-0.006 -0.50971,1.9e-4 -0.76339,0.0213"
         style="fill:none;fill-opacity:1;fill-rule:evenodd;stroke:#000000;stroke-width:1.21417451;stroke-linejoin:round;stroke-miterlimit:4;stroke-dasharray:none;stroke-opacity:1" />
      <path
         sodipodi:nodetypes="ccccacc"
         d="m 177.59355,226.77492 c 0.80129,0.30219 1.53371,0.75338 2.17574,1.34032 1.92448,1.77969 2.90887,4.67539 2.71019,7.97235 l -2.97339,0.83368 c 0.48656,-2.68581 -0.63982,-4.36083 -1.4786,-6.34458 -0.26879,-0.63569 -0.82501,-1.56331 -1.11233,-1.71815 l -0.53978,-2.58955"
         id="path1229-5-9"
         inkscape:connector-curvature="0"
         style="fill:#da121a;fill-opacity:1;stroke:none;stroke-width:1.21417451;stroke-linejoin:round;stroke-miterlimit:4;stroke-dasharray:none;stroke-opacity:1" />
      <path
         sodipodi:nodetypes="caaaaaaaaac"
         inkscape:connector-curvature="0"
         id="path1233-7-7"
         d="m 179.28609,237.92478 c 0.0863,-0.3301 0.16052,-0.66581 0.22,-1.00351 0.0602,-0.34177 0.1106,-0.68635 0.13819,-1.03298 0.0306,-0.3845 0.0438,-0.77167 0.03,-1.1573 -0.0124,-0.34529 -0.0471,-0.69027 -0.10099,-1.03088 -0.0398,-0.25165 -0.0941,-0.50121 -0.16369,-0.74521 -0.0763,-0.26774 -0.16434,-0.53305 -0.27722,-0.78527 -0.13548,-0.30267 -0.29019,-0.59815 -0.47713,-0.86694 -0.18419,-0.26483 -0.4013,-0.50321 -0.62858,-0.72557 -0.26317,-0.25745 -0.57873,-0.44667 -0.84581,-0.69937 -0.40668,-0.3848 -0.92396,-0.97319 -1.14688,-1.2388"
         style="fill:none;fill-opacity:1;fill-rule:evenodd;stroke:#000000;stroke-width:1.21417451;stroke-linecap:round;stroke-linejoin:round;stroke-miterlimit:4;stroke-dasharray:none;stroke-opacity:1" />
      <path
         transform="matrix(-0.98545512,0,0,1.064392,222.56213,-18.186998)"
         sodipodi:nodetypes="caaaac"
         inkscape:original-d="m 41.161306,241.1229 c -0.171441,-0.94821 -0.456367,-1.88225 -0.515116,-2.84382 -0.05922,-0.96928 -0.05745,-1.96357 0.166405,-2.9085 0.270184,-1.14049 0.681891,-2.29758 1.395372,-3.22745 0.667028,-0.86933 1.578148,-1.59012 2.57677,-2.04114 0.869198,-0.39257 2.086497,-0.35843 2.815742,-0.50807"
         inkscape:path-effect="#path-effect1142-2"
         inkscape:connector-curvature="0"
         id="path1140-9"
         d="m 41.161306,241.1229 c -0.276108,-0.92501 -0.449221,-1.88073 -0.515116,-2.84382 -0.06648,-0.97166 -0.02349,-1.95327 0.166405,-2.9085 0.230477,-1.15936 0.683249,-2.284 1.395372,-3.22745 0.667475,-0.8843 1.560521,-1.59983 2.57677,-2.04114 0.882654,-0.38329 1.85479,-0.5587 2.815742,-0.50807"
         style="fill:none;stroke:#000000;stroke-width:1.32291663;stroke-linecap:round;stroke-linejoin:round;stroke-miterlimit:4;stroke-dasharray:none;stroke-opacity:1" />
    </g>
  </g>
</svg>
