<?xml version="1.0" encoding="UTF-8" standalone="no"?>
<!-- Created with Inkscape (http://www.inkscape.org/) -->
<svg
   xmlns:dc="http://purl.org/dc/elements/1.1/"
   xmlns:cc="http://creativecommons.org/ns#"
   xmlns:rdf="http://www.w3.org/1999/02/22-rdf-syntax-ns#"
   xmlns:svg="http://www.w3.org/2000/svg"
   xmlns="http://www.w3.org/2000/svg"
   xmlns:sodipodi="http://sodipodi.sourceforge.net/DTD/sodipodi-0.dtd"
   xmlns:inkscape="http://www.inkscape.org/namespaces/inkscape"
   width="719.42151"
   height="825.59058"
   id="svg3203"
   sodipodi:version="0.32"
   inkscape:version="0.46"
   version="1.0"
   sodipodi:docname="Wappen Saalhausen (fertig).svg"
   inkscape:output_extension="org.inkscape.output.svg.inkscape">
  <defs
     id="defs3205">
    <inkscape:perspective
       sodipodi:type="inkscape:persp3d"
       inkscape:vp_x="0 : 526.18109 : 1"
       inkscape:vp_y="0 : 1000 : 0"
       inkscape:vp_z="744.09448 : 526.18109 : 1"
       inkscape:persp3d-origin="372.04724 : 350.78739 : 1"
       id="perspective3211" />
  </defs>
  <sodipodi:namedview
     id="base"
     pagecolor="#ffffff"
     bordercolor="#666666"
     borderopacity="1.0"
     inkscape:pageopacity="0.0"
     inkscape:pageshadow="2"
     inkscape:zoom="0.35"
     inkscape:cx="350"
     inkscape:cy="520"
     inkscape:document-units="px"
     inkscape:current-layer="layer1"
     showgrid="false"
     inkscape:window-width="640"
     inkscape:window-height="675"
     inkscape:window-x="198"
     inkscape:window-y="198" />
  <metadata
     id="metadata3208">
    <rdf:RDF>
      <cc:Work
         rdf:about="">
        <dc:format>image/svg+xml</dc:format>
        <dc:type
           rdf:resource="http://purl.org/dc/dcmitype/StillImage" />
      </cc:Work>
    </rdf:RDF>
  </metadata>
  <g
     inkscape:label="Ebene 1"
     inkscape:groupmode="layer"
     id="layer1"
     transform="translate(9.7107433,-119.56691)">
    <g
       id="g3221">
      <path
         sodipodi:nodetypes="cccscs"
         d="M 704.39308,372.91337 C 704.64938,284.33069 686.67655,213.46455 651.24348,124.88187 L 48.88127,124.88187 C 13.448201,213.46455 -2.380488,285.27462 -4.268335,372.91337 C -11.13619,691.73705 261.4797,904.40943 350.06237,939.8425 C 438.64505,904.40943 703.47042,691.80967 704.39308,372.91337 z"
         style="fill:#000000;fill-opacity:1;fill-rule:nonzero;stroke:none;stroke-width:10.62992096;stroke-linecap:square;stroke-linejoin:miter;stroke-miterlimit:4;stroke-dasharray:none;stroke-opacity:1;display:inline"
         id="path2494" />
      <path
         sodipodi:nodetypes="cscccccczssssssscssz"
         id="path3296"
         d="M 616.37802,213.40029 C 613.26663,220.60229 583.03818,229.79747 564.23626,239.39322 C 536.51765,253.5397 494.7675,293.37489 462.10243,331.16966 C 424.21598,369.99746 398.62153,418.60137 358.5513,456.8913 L 360.94969,461.04091 L 341.56211,477.92751 L 326.43,489.65086 L 267.71679,515.41548 C 258.18782,519.79371 232.5172,532.11381 227.1038,524.43588 C 221.74508,516.83557 237.46017,503.50998 244.58933,496.24941 C 254.44526,486.2118 271.84491,457.18199 290.6494,435.36885 C 312.60975,409.89492 327.31402,387.83159 348.29893,362.73362 C 395.12703,306.72718 433.26947,233.7401 478.27224,200.82151 C 499.02769,185.6393 532.76601,184.03523 541.68911,190.11663 C 547.74741,194.24556 531.21062,197.63911 516.63775,204.95291 C 479.4375,223.6229 442.9199,278.64834 420.86352,311.74861 C 383.91241,367.20159 371.45649,397.16122 305.21476,461.26558 C 378.79704,390.52293 397.5867,362.14384 447.69519,308.63968 C 502.74415,249.86026 512.23421,237.23782 560.53162,216.39115 C 589.19418,204.0195 619.57629,205.99719 616.37802,213.40029 z"
         style="fill:#fff200;fill-opacity:1;fill-rule:evenodd;stroke:#000000;stroke-width:5.31496048;stroke-linecap:butt;stroke-linejoin:round;stroke-miterlimit:4;stroke-dasharray:none;stroke-opacity:1;display:inline" />
      <path
         sodipodi:nodetypes="csscscccccscc"
         id="path3292"
         d="M 258.17916,478.67778 C 269.72854,495.37817 278.72951,496.68812 258.85167,533.26852 C 245.49868,557.84149 228.76573,589.28153 207.18833,616.58503 C 176.10816,655.91309 162.11647,653.95401 145.26142,669.37602 C 204.79946,690.96545 282.76057,686.36142 353.41205,646.34096 C 384.82835,628.54523 432.51479,619.36289 465.3195,609.56806 C 457.38828,549.35068 428.25137,534.17342 387.31701,522.47582 C 378.28731,515.91294 365.91865,486.8121 354.85352,466.51009 L 344.9584,475.05332 C 353.58963,493.47496 356.12733,502.09177 362.7028,513.03479 C 343.09591,504.26049 328.6345,493.51823 321.67381,482.97585 C 310.25936,465.68797 292.94367,455.61311 278.67851,450.20096 L 258.17916,478.67778 z"
         style="fill:#fff200;fill-opacity:1;fill-rule:evenodd;stroke:#000000;stroke-width:5.31496048;stroke-linecap:butt;stroke-linejoin:round;stroke-miterlimit:4;stroke-dasharray:none;stroke-opacity:1;display:inline" />
      <path
         sodipodi:nodetypes="csssscsssc"
         id="path3294"
         d="M 155.1581,665.08658 C 160.14522,660.81678 180.5046,661.50086 203.53654,647.63869 C 222.75236,636.07331 239.38673,615.02983 253.99648,598.4787 C 267.11172,583.62066 273.93775,569.75659 283.51219,559.02306 C 298.46571,542.25926 317.24889,532.82705 358.77598,536.81555 C 364.60222,537.37513 373.80531,539.14979 378.0684,544.43445 C 368.53396,546.03545 361.6002,545.68277 349.513,546.2012 C 326.17685,547.2021 308.97515,555.44521 294.34527,568.73537 C 283.36144,578.71336 274.38415,591.81605 262.27345,605.30143 C 238.99708,631.21989 207.70645,665.21779 155.1581,665.08658 z"
         style="fill:#000000;fill-rule:evenodd;stroke:#000000;stroke-width:1px;stroke-linecap:butt;stroke-linejoin:miter;stroke-opacity:1;display:inline" />
      <path
         sodipodi:nodetypes="ccc"
         style="fill:none;fill-rule:evenodd;stroke:#000000;stroke-width:3.54330707;stroke-linecap:butt;stroke-linejoin:miter;stroke-miterlimit:4;stroke-dasharray:none;stroke-opacity:1;display:inline"
         d="M 299.09024,425.51252 C 308.24691,427.63548 319.22047,438.58046 319.85668,447.55799 C 328.59182,454.70034 335.14593,465.32988 340.33638,479.34613"
         id="path3300" />
      <path
         sodipodi:nodetypes="cccss"
         id="path3302"
         d="M 430.61797,293.47685 L 450.38837,303.76514 L 460.87749,293.67638 L 436.21283,281.30569 C 429.09279,277.7346 422.94942,289.48622 430.61797,293.47685 z"
         style="fill:#fff200;fill-opacity:1;fill-rule:evenodd;stroke:#000000;stroke-width:3.54330707;stroke-linecap:butt;stroke-linejoin:round;stroke-miterlimit:4;stroke-dasharray:none;stroke-opacity:1;display:inline" />
      <path
         id="path3201"
         d="M 313.55524,407.10251 C 322.71191,409.22547 333.68547,420.17045 334.32168,429.14798 C 343.49515,437.167 349.61093,444.94737 358.52721,456.99112"
         style="fill:none;fill-rule:evenodd;stroke:#000000;stroke-width:3.54330707;stroke-linecap:butt;stroke-linejoin:miter;stroke-miterlimit:4;stroke-dasharray:none;stroke-opacity:1;display:inline"
         sodipodi:nodetypes="ccc" />
      <path
         id="path3185"
         style="fill:none;fill-opacity:1;fill-rule:nonzero;stroke:#000000;stroke-width:10.62992096;stroke-linecap:square;stroke-linejoin:miter;stroke-miterlimit:4;stroke-dasharray:none;stroke-opacity:1;display:inline"
         d="M 704.39308,372.91337 C 704.64938,284.33069 686.67655,213.46455 651.24348,124.88187 L 48.88127,124.88187 C 13.448201,213.46455 -2.380488,285.27462 -4.268335,372.91337 C -11.13619,691.73705 261.4797,904.40943 350.06237,939.8425 C 438.64505,904.40943 703.47042,691.80967 704.39308,372.91337 z"
         sodipodi:nodetypes="cccscs" />
    </g>
  </g>
</svg>
