<?xml version="1.0" encoding="UTF-8" standalone="no"?>
<!-- Created with Inkscape (http://www.inkscape.org/) -->
<svg
   xmlns:svg="http://www.w3.org/2000/svg"
   xmlns="http://www.w3.org/2000/svg"
   version="1.0"
   width="585.68732"
   height="658.69525"
   id="svg5574">
  <defs
     id="defs5576">
    <clipPath
       id="clipPath161">
      <path
         d="M 315.7285,746.9727 L 316.5219,745.4805 L 317.8782,742.998 L 318.8116,741.459 L 319.5864,740.1406 L 320.4911,738.5869 L 325.7222,735.3477 L 382.0814,737.96 L 383.6508,738.4678 L 385.4174,740.9756 L 386.4459,743.1885 L 387.1696,745.0732 L 387.6898,747.0186 L 388.3216,749.0195 L 388.8148,751.6846 L 389.1595,754.1719 L 389.345,756.5332 L 389.3262,759.2773 L 389.6421,761.5195 L 379.482,764.6885 L 336.1362,757.8213"
         id="path163" />
    </clipPath>
  </defs>
  <path
     d="M 585.30974,405.03157 C 567.44744,514.00657 488.22896,617.28216 378.40072,647.04298 C 277.45319,676.02014 162.02773,650.07629 90.23593,578.96573 C 35.38804,522.3987 2.34809,456.96802 0,376.23022 L 0.35115,7.574272e-15 L 585.68734,0.5424948"
     id="path149"
     style="fill:#231f20;fill-opacity:1;fill-rule:nonzero;stroke:none" />
  <path
     d="M 567.63604,312.16081 L 16.21065,311.65447 L 15.67621,18.575201 L 567.90944,19.093355"
     id="path151"
     style="fill:#ffffff;fill-opacity:1;fill-rule:nonzero;stroke:none" />
  <g
     transform="matrix(6.43176,3.42677,3.42677,-6.43176,-4573.8908,4046.7155)"
     clip-path="url(#clipPath161)"
     id="g159">
    <path
       d="M 343.1908,755.8896 L 351.2968,756.1318 L 351.8438,748.6924 L 343.7376,748.4492"
       id="path165"
       style="fill:#ffffff;fill-opacity:1;fill-rule:nonzero;stroke:none" />
    <path
       d="M 343.1908,755.8896 L 351.2968,756.1318 L 351.8438,748.6924 L 343.7376,748.4492 L 343.1908,755.8896 z"
       id="path167"
       style="fill:none;stroke:#ffffff;stroke-width:0.61680001;stroke-linecap:butt;stroke-linejoin:round;stroke-miterlimit:5;stroke-dasharray:none;stroke-opacity:1" />
    <path
       d="M 352.8488,756.1299 L 360.9547,756.3721 L 361.5018,748.9307 L 353.3956,748.6885"
       id="path169"
       style="fill:#918f90;fill-opacity:1;fill-rule:nonzero;stroke:none" />
    <path
       d="M 352.8488,756.1299 L 360.9547,756.3721 L 361.5018,748.9307 L 353.3956,748.6885 L 352.8488,756.1299 z"
       id="path171"
       style="fill:#ed1c24;fill-opacity:1;stroke:none;stroke-width:0.61680001;stroke-linecap:butt;stroke-linejoin:round;stroke-miterlimit:5;stroke-dasharray:none;stroke-opacity:1" />
    <path
       d="M 362.615,756.3467 L 370.7209,756.5889 L 371.2677,749.1504 L 363.1618,748.9053"
       id="path173"
       style="fill:#ffffff;fill-opacity:1;fill-rule:nonzero;stroke:none" />
    <path
       d="M 362.615,756.3467 L 370.7209,756.5889 L 371.2677,749.1504 L 363.1618,748.9053 L 362.615,756.3467 z"
       id="path175"
       style="fill:none;stroke:#ffffff;stroke-width:0.61680001;stroke-linecap:butt;stroke-linejoin:round;stroke-miterlimit:5;stroke-dasharray:none;stroke-opacity:1" />
    <path
       d="M 372.2461,756.6875 L 380.3523,756.9307 L 380.8995,749.4893 L 372.7933,749.2471"
       id="path177"
       style="fill:#918f90;fill-opacity:1;fill-rule:nonzero;stroke:none" />
    <path
       d="M 372.2461,756.6875 L 380.3523,756.9307 L 380.8995,749.4893 L 372.7933,749.2471 L 372.2461,756.6875 z"
       id="path179"
       style="fill:#ed1c24;fill-opacity:1;stroke:none;stroke-width:0.61680001;stroke-linecap:butt;stroke-linejoin:round;stroke-miterlimit:5;stroke-dasharray:none;stroke-opacity:1" />
    <path
       d="M 333.3233,755.6943 L 341.4295,755.9365 L 341.9765,748.4961 L 333.8704,748.2529"
       id="path181"
       style="fill:#ed1c24;fill-opacity:1;fill-rule:nonzero;stroke:none" />
    <path
       d="M 333.3233,755.6943 L 341.4295,755.9365 L 341.9765,748.4961 L 333.8704,748.2529 L 333.3233,755.6943 z"
       id="path183"
       style="fill:none;stroke:none;stroke-width:0.61680001;stroke-linecap:butt;stroke-linejoin:round;stroke-miterlimit:5;stroke-dasharray:none;stroke-opacity:1" />
    <path
       d="M 323.6255,755.4199 L 331.7318,755.6631 L 332.2785,748.2227 L 324.1726,747.9795"
       id="path185"
       style="fill:#ffffff;fill-opacity:1;fill-rule:nonzero;stroke:none" />
    <path
       d="M 323.6255,755.4199 L 331.7318,755.6631 L 332.2785,748.2227 L 324.1726,747.9795 L 323.6255,755.4199 z"
       id="path187"
       style="fill:none;stroke:#ffffff;stroke-width:0.61680001;stroke-linecap:butt;stroke-linejoin:round;stroke-miterlimit:5;stroke-dasharray:none;stroke-opacity:1" />
    <path
       d="M 313.9452,755.0898 L 322.0511,755.333 L 322.5977,747.8936 L 314.4917,747.6504"
       id="path189"
       style="fill:#918f90;fill-opacity:1;fill-rule:nonzero;stroke:none" />
    <path
       d="M 313.9452,755.0898 L 322.0511,755.333 L 322.5977,747.8936 L 314.4917,747.6504 L 313.9452,755.0898 z"
       id="path191"
       style="fill:#ed1c24;fill-opacity:1;stroke:none;stroke-width:0.61680001;stroke-linecap:butt;stroke-linejoin:round;stroke-miterlimit:5;stroke-dasharray:none;stroke-opacity:1" />
    <path
       d="M 381.8507,756.873 L 389.9567,757.1152 L 390.5037,749.6748 L 382.3978,749.4307"
       id="path193"
       style="fill:#ffffff;fill-opacity:1;fill-rule:nonzero;stroke:none" />
    <path
       d="M 381.8507,756.873 L 389.9567,757.1152 L 390.5037,749.6748 L 382.3978,749.4307 L 381.8507,756.873 z"
       id="path195"
       style="fill:none;stroke:#ffffff;stroke-width:0.61680001;stroke-linecap:butt;stroke-linejoin:round;stroke-miterlimit:5;stroke-dasharray:none;stroke-opacity:1" />
    <path
       d="M 343.9567,746.8242 L 352.0629,747.0674 L 352.6102,739.626 L 344.504,739.3838"
       id="path197"
       style="fill:#918f90;fill-opacity:1;fill-rule:nonzero;stroke:none" />
    <path
       d="M 343.9567,746.8242 L 352.0629,747.0674 L 352.6102,739.626 L 344.504,739.3838 L 343.9567,746.8242 z"
       id="path199"
       style="fill:#ed1c24;fill-opacity:1;stroke:none;stroke-width:0.61680001;stroke-linecap:butt;stroke-linejoin:round;stroke-miterlimit:5;stroke-dasharray:none;stroke-opacity:1" />
    <path
       d="M 353.6149,747.0635 L 361.7211,747.3066 L 362.2679,739.8662 L 354.1617,739.624"
       id="path201"
       style="fill:#ffffff;fill-opacity:1;fill-rule:nonzero;stroke:none" />
    <path
       d="M 353.6149,747.0635 L 361.7211,747.3066 L 362.2679,739.8662 L 354.1617,739.624 L 353.6149,747.0635 z"
       id="path203"
       style="fill:none;stroke:#ffffff;stroke-width:0.61680001;stroke-linecap:butt;stroke-linejoin:round;stroke-miterlimit:5;stroke-dasharray:none;stroke-opacity:1" />
    <path
       d="M 363.3811,747.2803 L 371.4871,747.5234 L 372.0341,740.082 L 363.9279,739.8398"
       id="path205"
       style="fill:#918f90;fill-opacity:1;fill-rule:nonzero;stroke:none" />
    <path
       d="M 363.3811,747.2803 L 371.4871,747.5234 L 372.0341,740.082 L 363.9279,739.8398 L 363.3811,747.2803 z"
       id="path207"
       style="fill:#ed1c24;fill-opacity:1;stroke:none;stroke-width:0.61680001;stroke-linecap:butt;stroke-linejoin:round;stroke-miterlimit:5;stroke-dasharray:none;stroke-opacity:1" />
    <path
       d="M 373.0125,747.6211 L 381.1186,747.8652 L 381.6652,740.4238 L 373.5592,740.1807"
       id="path209"
       style="fill:#ffffff;fill-opacity:1;fill-rule:nonzero;stroke:none" />
    <path
       d="M 373.0125,747.6211 L 381.1186,747.8652 L 381.6652,740.4238 L 373.5592,740.1807 L 373.0125,747.6211 z"
       id="path211"
       style="fill:none;stroke:#ffffff;stroke-width:0.61680001;stroke-linecap:butt;stroke-linejoin:round;stroke-miterlimit:5;stroke-dasharray:none;stroke-opacity:1" />
    <path
       d="M 334.0899,746.627 L 342.1959,746.8711 L 342.7424,739.4307 L 334.6365,739.1875"
       id="path213"
       style="fill:#ffffff;fill-opacity:1;fill-rule:nonzero;stroke:none" />
    <path
       d="M 334.0899,746.627 L 342.1959,746.8711 L 342.7424,739.4307 L 334.6365,739.1875 L 334.0899,746.627 z"
       id="path215"
       style="fill:none;stroke:#ffffff;stroke-width:0.61680001;stroke-linecap:butt;stroke-linejoin:round;stroke-miterlimit:5;stroke-dasharray:none;stroke-opacity:1" />
    <path
       d="M 324.3922,746.3545 L 332.4984,746.5967 L 333.0449,739.1563 L 324.9387,738.9131"
       id="path217"
       style="fill:#918f90;fill-opacity:1;fill-rule:nonzero;stroke:none" />
    <path
       d="M 324.3922,746.3545 L 332.4984,746.5967 L 333.0449,739.1563 L 324.9387,738.9131 L 324.3922,746.3545 z"
       id="path219"
       style="fill:#ed1c24;fill-opacity:1;stroke:none;stroke-width:0.61680001;stroke-linecap:butt;stroke-linejoin:round;stroke-miterlimit:5;stroke-dasharray:none;stroke-opacity:1" />
    <path
       d="M 314.7113,746.0244 L 322.8172,746.2676 L 323.3643,738.8271 L 315.2583,738.583"
       id="path221"
       style="fill:#ffffff;fill-opacity:1;fill-rule:nonzero;stroke:none" />
    <path
       d="M 314.7113,746.0244 L 322.8172,746.2676 L 323.3643,738.8271 L 315.2583,738.583 L 314.7113,746.0244 z"
       id="path223"
       style="fill:none;stroke:#ffffff;stroke-width:0.61680001;stroke-linecap:butt;stroke-linejoin:round;stroke-miterlimit:5;stroke-dasharray:none;stroke-opacity:1" />
    <path
       d="M 382.6173,747.8057 L 390.723,748.0498 L 391.2701,740.6084 L 383.1639,740.3662"
       id="path225"
       style="fill:#918f90;fill-opacity:1;fill-rule:nonzero;stroke:none" />
    <path
       d="M 382.6173,747.8057 L 390.723,748.0498 L 391.2701,740.6084 L 383.1639,740.3662 L 382.6173,747.8057 z"
       id="path227"
       style="fill:#ed1c24;fill-opacity:1;stroke:none;stroke-width:0.61680001;stroke-linecap:butt;stroke-linejoin:round;stroke-miterlimit:5;stroke-dasharray:none;stroke-opacity:1" />
  </g>
  <g
     transform="translate(-570.33325,2.0891306)"
     id="g3280">
    <path
       d="M 812.13286,311.69985 L 812.36761,231.10977 C 813.55937,217.01765 830.23128,211.81449 852.08322,207.8005 L 852.04255,142.87185 L 735.82273,110.61576 L 735.17698,128.51271 C 757.5851,129.01069 764.97626,147.80846 765.83251,164.42436 L 758.33006,243.44104 C 748.14835,262.14454 709.55651,272.25203 685.36981,245.60548 L 682.97815,171.22678 C 686.30699,141.7302 706.99926,131.72882 727.0472,128.74911 L 726.64705,110.23402 L 694.31828,103.11331 C 678.60054,90.767387 692.18199,76.618024 710.68733,79.42395 L 852.76097,119.16409 L 852.80164,86.266124 C 851.68722,77.610022 869.30638,61.339432 874.99682,54.853925 C 879.96803,48.366567 883.44229,48.451576 886.61743,53.369201 L 902.31814,76.77749 C 903.67845,78.916825 903.81231,81.581566 903.57747,83.492643 L 903.68723,135.72836 L 1071.006,180.02983 C 1085.853,185.19667 1086.2963,210.46461 1058.1467,200.20294 L 903.83632,163.13663 L 903.7279,207.57005 C 920.26857,209.57019 939.68102,212.41839 948.07998,228.621 L 948.14773,310.41211 L 812.13286,311.69985 z"
       id="path2470"
       style="fill:#231f20;fill-opacity:1;fill-rule:evenodd;stroke:#231f20;stroke-width:6;stroke-linecap:round;stroke-linejoin:round;stroke-miterlimit:4;stroke-dasharray:none;stroke-opacity:1" />
    <path
       d="M 816.99693,250.85799 L 816.84373,309.90752 L 934.04153,309.90752 L 933.66965,255.46104 C 934.21639,249.60368 932.77045,250.67671 927.8553,251.66293 C 903.05999,256.65036 862.23003,265.44545 821.1455,246.36391 C 818.32893,244.27767 816.33122,247.26288 816.99693,250.85799 z"
       id="path2472"
       style="fill:#ed1c24;fill-opacity:1;fill-rule:evenodd;stroke:#231f20;stroke-width:2;stroke-linecap:round;stroke-linejoin:round;stroke-miterlimit:4;stroke-dasharray:none;stroke-opacity:1" />
    <path
       d="M 939.56455,233.79422 A 58.924416,21.064768 0 1 1 821.71572,233.79422 A 58.924416,21.064768 0 1 1 939.56455,233.79422 z"
       transform="matrix(1.0966184,0,0,1,-85.086006,-1.1386361)"
       id="path2474"
       style="opacity:1;fill:#ed1c24;fill-opacity:1;fill-rule:nonzero;stroke:#231f20;stroke-width:0.95493156;stroke-linecap:round;stroke-linejoin:round;stroke-miterlimit:4;stroke-dasharray:none;stroke-opacity:1" />
    <path
       d="M 1075.9472,189.38222 A 6.2740021,6.2740021 0 1 1 1063.3992,189.38222 A 6.2740021,6.2740021 0 1 1 1075.9472,189.38222 z"
       transform="matrix(1.3943662,0,0,1.3943662,-421.13603,-71.858226)"
       id="path3246"
       style="opacity:1;fill:#ed1c24;fill-opacity:1;fill-rule:nonzero;stroke:#231f20;stroke-width:0.71717173;stroke-linecap:round;stroke-linejoin:round;stroke-miterlimit:4;stroke-dasharray:none;stroke-opacity:1" />
    <path
       d="M 902.57264,138.04145 C 880.65723,131.67873 876.30076,152.18145 897.80086,158.01221 L 1055.0927,197.42355 C 1056.1767,197.85479 1058.9123,197.38046 1058.6274,195.83296 C 1057.9208,190.57042 1059.3419,186.19439 1064.2828,183.28495 C 1066.8008,181.17901 1064.1632,180.47913 1061.6318,179.7503 L 902.57264,138.04145 z"
       id="path3248"
       style="fill:#ed1c24;fill-opacity:1;fill-rule:evenodd;stroke:#231f20;stroke-width:1px;stroke-linecap:butt;stroke-linejoin:miter;stroke-opacity:1" />
    <path
       d="M 864.24706,207.38821 C 874.58532,206.62202 882.07004,206.65236 892.23797,206.78115 C 897.99637,207.33289 897.27954,201.85308 897.34579,199.0844 L 896.83409,171.68498 C 897.26185,163.75726 895.70176,161.46832 894.03838,161.2116 C 882.91056,159.49418 878.3322,151.42016 880.3638,141.48034 C 881.60019,135.43116 883.33506,132.20489 891.0832,132.51424 C 893.95668,132.71304 896.80249,130.27961 895.59645,125.58299 L 895.59645,86.90682 C 897.82675,72.914668 887.79004,63.422144 885.8389,60.297619 C 883.05422,56.687824 879.03188,56.894135 875.31898,60.297618 C 871.69423,64.210388 856.25426,77.015477 856.6832,86.732061 L 856.75623,198.90291 C 856.40115,203.1341 859.64532,207.75843 864.24706,207.38821 z"
       id="path3250"
       style="fill:#ed1c24;fill-opacity:1;fill-rule:evenodd;stroke:#231f20;stroke-width:1px;stroke-linecap:butt;stroke-linejoin:miter;stroke-opacity:1" />
    <path
       d="M 690.24592,165.71962 C 716.94613,155.67673 739.02946,156.84625 758.27015,164.91933 C 761.28284,150.79387 754.76568,137.72626 731.06046,134.10835 C 698.70636,136.93393 690.30554,155.0185 690.24592,165.71962 z"
       id="path3252"
       style="fill:#ffffff;fill-rule:evenodd;stroke:#231f20;stroke-width:1px;stroke-linecap:butt;stroke-linejoin:miter;stroke-opacity:1" />
    <path
       d="M 711.85362,85.290961 C 693.25331,79.780176 683.43512,96.850287 706.25162,102.49709 L 853.10394,138.10978 L 853.50408,125.70536 L 711.85362,85.290961 z"
       id="path3254"
       style="fill:#ed1c24;fill-opacity:1;fill-rule:evenodd;stroke:#231f20;stroke-width:1px;stroke-linecap:butt;stroke-linejoin:miter;stroke-opacity:1" />
    <path
       d="M 686.24885,190.114 L 688.1307,239.87854 C 690.15195,245.70124 692.1732,246.95832 694.19445,248.45142 C 714.60596,259.54529 731.14393,259.10016 747.09541,248.45142 C 750.09279,246.70932 751.54875,243.21671 752.32278,239.25126 L 757.96834,196.80503 C 759.2143,191.40071 753.15034,192.08628 750.4289,192.55338 C 731.277,195.84056 709.67595,200.12746 686.24885,190.114 z"
       id="path3256"
       style="fill:#ed1c24;fill-opacity:1;fill-rule:evenodd;stroke:#231f20;stroke-width:1px;stroke-linecap:butt;stroke-linejoin:miter;stroke-opacity:1" />
    <path
       d="M 718.44316,191.90813 C 740.32173,192.22471 763.90579,186.9266 760.26838,176.94103 C 756.68242,166.19017 736.54019,164.2414 723.6768,163.76806 C 700.82564,165.38331 689.75816,171.99629 687.68161,178.73741 C 684.60119,191.76449 708.70894,191.38738 718.44316,191.90813 z"
       id="path3258"
       style="fill:#ed1c24;fill-opacity:1;fill-rule:evenodd;stroke:none;stroke-width:1px;stroke-linecap:butt;stroke-linejoin:miter;stroke-opacity:1" />
    <path
       d="M 743.60323,172.19085 C 714.96254,174.52299 687.91761,177.05448 720.54243,187.04 C 708.87542,185.54278 692.81641,185.63476 696.43342,178.60715 C 702.93026,169.20714 720.37208,168.42088 743.60323,172.19085 z"
       id="path3260"
       style="fill:#231f20;fill-opacity:1;fill-rule:evenodd;stroke:#231f20;stroke-width:1.87514985;stroke-linecap:round;stroke-linejoin:round;stroke-miterlimit:4;stroke-dasharray:none;stroke-opacity:1" />
    <path
       d="M 685.41247,203.28697 L 685.83066,211.23257 C 707.15505,215.19789 739.64729,218.15965 756.29558,208.93252 C 730.02881,212.31154 701.29472,212.50971 685.41247,203.28697 z"
       id="path3262"
       style="fill:#231f20;fill-opacity:1;fill-rule:evenodd;stroke:#231f20;stroke-width:2;stroke-linecap:butt;stroke-linejoin:round;stroke-miterlimit:4;stroke-dasharray:none;stroke-opacity:1" />
    <path
       d="M 686.98068,224.38727 L 687.39887,233.79653 C 704.33227,238.18004 749.37019,244.48732 757.86379,225.43274 C 743.51542,236.96645 697.63556,236.53734 686.98068,224.38727 z"
       id="path3264"
       style="fill:#231f20;fill-opacity:1;fill-rule:evenodd;stroke:#231f20;stroke-width:2;stroke-linecap:butt;stroke-linejoin:round;stroke-miterlimit:4;stroke-dasharray:none;stroke-opacity:1" />
    <path
       d="M 716.35849,200.98692 C 714.21694,217.92989 715.20375,233.62153 715.7312,249.4969 C 716.96582,238.4942 718.36567,229.14371 719.07672,212.90532 C 718.52432,207.34097 717.99686,201.66438 716.35849,200.98692 z"
       id="path3266"
       style="fill:#231f20;fill-opacity:1;fill-rule:evenodd;stroke:#231f20;stroke-width:0.5;stroke-linecap:round;stroke-linejoin:miter;stroke-miterlimit:4;stroke-dasharray:none;stroke-opacity:1" />
    <path
       d="M 696.70358,192.41404 L 700.25819,193.04132 L 700.25819,233.8148 L 697.74906,233.81479 L 696.70358,192.41404 z"
       id="path3268"
       style="fill:#231f20;fill-opacity:1;fill-rule:evenodd;stroke:#231f20;stroke-width:1px;stroke-linecap:butt;stroke-linejoin:miter;stroke-opacity:1" />
    <path
       d="M 736.86708,197.45558 C 735.57836,214.2251 732.31651,227.88418 731.26036,241.36327 C 731.14051,242.89287 732.37723,244.22003 732.30342,245.75449 C 734.42725,234.88835 736.58163,225.68238 738.6087,209.55532 C 738.50989,203.96449 738.44504,198.26382 736.86708,197.45558 z"
       id="path3270"
       style="fill:#231f20;fill-opacity:1;fill-rule:evenodd;stroke:#231f20;stroke-width:0.5;stroke-linecap:round;stroke-linejoin:miter;stroke-miterlimit:4;stroke-dasharray:none;stroke-opacity:1" />
  </g>
</svg>
