<?xml version="1.0" encoding="UTF-8" standalone="no"?>
<!-- Created with Inkscape (http://www.inkscape.org/) -->

<svg
   xmlns:dc="http://purl.org/dc/elements/1.1/"
   xmlns:cc="http://creativecommons.org/ns#"
   xmlns:rdf="http://www.w3.org/1999/02/22-rdf-syntax-ns#"
   xmlns:svg="http://www.w3.org/2000/svg"
   xmlns="http://www.w3.org/2000/svg"
   version="1.1"
   width="260"
   height="300"
   id="svg2">
  <metadata
     id="metadata76">
    <rdf:RDF>
      <cc:Work
         rdf:about="">
        <dc:format>image/svg+xml</dc:format>
        <dc:type
           rdf:resource="http://purl.org/dc/dcmitype/StillImage" />
        <dc:title></dc:title>
      </cc:Work>
    </rdf:RDF>
  </metadata>
  <defs
     id="defs4" />
  <path
     d="M 6.5,6.5 6.5,168.83333 C 6.5,237.68483 61.792834,293.5 130,293.5 c 68.20717,0 123.5,-55.81517 123.5,-124.66667 L 253.5,6.5 6.5,6.5 z"
     id="rect2834"
     style="fill:#ffffff;fill-opacity:1;stroke:#000000;stroke-width:3;stroke-miterlimit:4;stroke-dasharray:none" />
  <path
     d="m 39.09608910221894,190.0599312464768 c -2.63369240567755,-1.2986979040847 -5.32295907952387,-1.9065730973473 -7.12778263946056,-0.2125856881662 -1.6019690959892,1.503590455456 -2.51944363571678,3.1681507157981 -1.51321470185069,5.1411871101463 -0.0929034805817,-1.1440058064501 1.03744742522727,-1.9343921513234 2.0361623319239,-2.3349898020055 3.41972238124047,-1.3716955086224 4.02557747381171,2.126479332809 3.63047654403239,3.7822492210281 l 2.63938850858661,0.2502996074413 2.42085131853677,-3.6409197308029 0.67333019493659,-2.1494569443095 z"
     id="path79"
     style="fill:#ffd200;stroke:#000000;stroke-width:1;stroke-miterlimit:4;stroke-dasharray:none" />
  <path
     d="m 37.18134284028978,194.9122266886383 c -3.83902136058159,3.9198175230064 2.27135130252219,5.8951357827214 6.55863574777382,2.9097227030599 0.96628781445168,1.2072075925192 4.85046759770897,2.790332156007 7.66327704171671,2.0770948075192 3.3570853036234,0.5031180853682 5.39472111352825,3.4334211367259 8.35461436583072,2.5688706489418 -0.005497596344,0.6203041128462 0.55377796528422,1.0160670000039 1.37347048890281,1.5184868099982 l 4.01811577461866,1.9256634367489 3.13803778955761,-1.4653836528746 c -1.5248304559808,-1.0541006606661 1.23998475999667,-1.4459788086802 -0.83541689012758,-2.1152132818332 -0.92501757208589,-0.8635464426855 -5.26244254167082,-1.9582658959868 -10.93097690795204,-3.7428774399902 -2.27124292066066,-0.7150501476286 -3.4738199854972,-1.9731351153182 -4.01492249634254,-2.2993012526023 -0.47344056623438,-0.2853808245706 -2.68740741555475,-3.0430828566476 -3.70730504949373,-3.1743766640666 -1.40159363924586,-0.1804304267677 -2.59766918022709,-1.4779947340737 -3.37863397493178,-1.9305155776389 -2.10622244844626,-1.2204257676778 -0.26486377589765,-3.2062345667314 -4.07211633042805,-3.738547659554 -1.22499093261142,-0.1712727754931 -2.23964434262947,0.2907618955177 -2.34603210238808,2.3421484894311 0.68034112910439,1.495133870399 -1.14148809794471,4.1483649921372 -1.82074745673657,5.1242286328607 z"
     id="path77"
     style="fill:#ffd200;stroke:#000000;stroke-width:1;stroke-miterlimit:4;stroke-dasharray:none" />
  <path
     d="m 31.5170257557082,211.777611042623 c -2.34655929714667,0.9769739827077 -3.95818214738899,1.9738248916103 -4.50113613625394,4.3529925342955 -0.53811866225154,2.3579797467377 -0.0160007525143,3.9929431815231 2.46718778482499,4.3301663162235 -0.80352453378666,-0.8195905474679 -0.74600284250635,-1.9398057137635 -0.23497026522143,-2.8867775441489 1.74983824749811,-3.242547739159 3.60186883586662,-2.6125624951193 5.77590070494494,0.09056522926 l 1.92776727624329,-1.2150657842486 -0.46994053044286,-4.3469499065964 -3.75952424354283,-1.1077169646152 z"
     id="path71"
     style="fill:#ffd200;stroke:#000000;stroke-width:1;stroke-miterlimit:4;stroke-dasharray:none" />
  <path
     d="m 34.20126016773219,216.7288705648739 c 0.4044746827057,4.7644370971702 6.53277365942798,2.2428517815366 6.28781524814946,-1.4383935180554 1.51507515933246,0.3092079775292 3.13716981479854,-0.879856990812 4.84205854684137,-3.2280390312276 3.07613096349025,-0.3356636315795 6.24340304612494,-1.3988216427115 8.11756874029289,-3.2280390312276 l 5.36424133130467,-1.0918367311505 4.31987576237808,-1.0918367311505 5.12688552018496,-5.126885520185 c -1.84627072046646,0.1658931856697 -3.62604796555524,0.087976961621 -5.64906830464827,0.9019520822548 -1.29660760433953,0.4469138961557 -6.61634886176089,3.8479177014515 -11.01330963595292,3.5603371667952 -0.862839857592,-0.056433514037 -4.22574488679555,0.098309959708 -4.84205854684139,0.2373558111196 -0.54643667088019,0.1232809802392 -3.69973263357047,0.9914408928832 -4.41481808697624,1.48347381926 -0.99809376178194,0.6867640672442 -0.79706188587421,1.7710348184825 -1.70896183991137,1.8869786986394 -2.25050643180055,0.2861415299624 -2.49301972920916,-4.057863117193 -6.97942760920039,-1.742014440038 -0.98755725552605,0.5097693355134 -2.68512378660478,2.2465902834806 -2.13503553764486,3.9256879027148 1.78693158205872,-1.0218213295046 3.60960716589745,1.1575072805878 2.68423441202401,4.9512595222509 z"
     id="path69"
     style="fill:#ffd200;stroke:#000000;stroke-width:1;stroke-miterlimit:4;stroke-dasharray:none" />
  <path
     d="m 46.13406015735487,221.9906272879768 c -1.6842601405237,1.5167374321175 -2.76516510430083,3.5644134339189 -2.08541784446102,5.6370924251142 0.65780433678697,2.0057708353204 1.97104530270627,2.8193616327365 3.94354345298567,2.4580279137335 -1.01950610252331,-0.3342502021804 -1.47510567873404,-1.2409570136 -1.48502443199592,-2.1874187995329 -0.028174887137,-2.6884884918582 1.31314717487328,-3.8711472979077 3.43021587498621,-3.2664968812393 0.43492249613236,0.1242170688607 1.0082445078328,-0.7743673989428 1.51545224408335,-0.5549085418405 l 0.8013023206067,-0.064732400766 -2.33039569083126,-3.2486496753476 -3.54735064006042,0.5888375969686 z"
     id="path73"
     style="fill:#ffd200;stroke:#000000;stroke-width:1;stroke-miterlimit:4;stroke-dasharray:none" />
  <path
     d="m 90.66609385802654,209.3565817572045 c 2.04166919353949,0.9842822578383 3.65284431854913,2.6472456566001 3.58084298432125,4.8273535313787 -0.0696770589714,2.1097318068348 -1.43935737685918,3.017084819144 -3.4341096310728,3.2226923424835 0.88507852697509,-0.6064255039388 1.06848194729473,-1.6044492517191 0.81290856876076,-2.5158056814886 -0.72597340666698,-2.588769361672 -4.81336563996889,-3.1212015056528 -5.03858355298003,-0.4524402899169 -0.0380357276166,0.4507113724581 -0.83232574695468,-0.2260020713434 -1.25776337837669,0.1267367831128 l -0.78735997415247,0.16229591437 c -0.57559769486947,-2.2679646991688 0.3320442835891,-4.0845086281943 1.80549808124606,-5.7288489600725 l 3.57029070219249,-0.4283113131568 z"
     id="path75"
     style="fill:#ffd200;stroke:#000000;stroke-width:1;stroke-miterlimit:4;stroke-dasharray:none" />
  <path
     d="m 103.2947082362503,172.506529043856 -11.86907578304157,3.335412200934 c -7.50229527184298,10.1830695743526 -15.93876952572344,16.6294232205552 -23.92546574823919,24.8748889922169 -2.07673114544859,0.8083120007104 -3.39296346074174,2.1871415132549 -4.88952970475717,3.7502218140879 -2.46538783836132,2.5075874955516 -3.48783230635486,4.6807679111309 -5.17435668140698,6.2187222476785 -2.02206728212965,1.8439384519695 -3.66198856342604,2.844337253795 -5.72335930053156,4.8295519825075 -2.54698707974068,1.2200941274841 -6.07482187714681,1.0753917174432 -6.66731274339307,4.1940412169623 -0.19926296492473,1.0488454442721 -0.32494936852373,1.8592201163959 1.08845188247409,2.2812597897337 1.22649295298389,-0.8016139230831 3.63814910616946,0.6486619264733 3.30491243294842,2.5293777736618 -0.0148268614252,0.4664674751614 0.39347307032844,0.8991859924093 1.16146037266391,0.9530362622634 4.67288863167001,0.3276568675659 5.51815060890077,-2.9595929447572 3.51286600191614,-6.1475155049313 0.97495956527875,-1.0256682610003 2.03038872680041,-2.1586293169911 2.75332740753545,-2.8482697319332 2.4732091515407,-2.3592941295835 5.18369887853853,-4.4858419975863 7.01997278764847,-7.5177212807847 1.04228079411994,-1.7209140375466 2.28245526407114,-1.8873280523818 3.42368289610672,-2.8309920785727 1.57909228539286,1.472798606026 3.44925886903553,2.6869381988923 6.26619341025315,3.3229813539221 2.0293878787611,1.2614228472817 4.31608715659471,1.3682431891305 6.55102038344643,2.0887311367511 1.49565252917481,0.4821618866066 1.51856170777261,2.8930029635054 2.31766541520928,3.7891798446456 0.71868280672788,0.8059866451235 2.17694370040532,1.4182139354084 3.60808509603864,1.008781209509 0.50913261935284,-0.155425793156 1.70203669088724,-1.7059337516595 0.71171586003626,-2.6090956522406 -1.03164344254299,-0.367779279335 -0.75523467746962,-2.2238153774715 -0.12753786595744,-3.163454746986 0.56812507414907,-0.8504626384716 1.24370686606859,-1.3355765407664 4.02866950282633,-1.2090841160768 1.05031380382,-0.027152724037 1.16367929251548,-1.6220492957734 0.47471162198889,-2.5634427587399 -1.9514395783319,-2.6664131584164 -4.64175647175746,-1.2364478298016 -6.93078968103757,0.3797692975912 -2.13416503409708,-1.2837778121813 -4.42673730746051,-0.9901158594376 -6.83584735663976,-1.0443655683755 -2.36265018692681,-0.053203499361 -4.95614754678914,0.2301219880902 -6.17125108585536,-1.8039041635577 -1.02357610844734,-1.7134182444929 0.89565603505322,-2.544726471649 3.32298135392212,-5.2218278418777 8.84264161927794,-4.379770683151 16.95214409363136,-11.8365359926651 24.32216636126804,-16.2074459560569 l 5.86949279722423,-6.2938849262158 z"
     id="path67"
     style="fill:#ffd200;stroke:#000000;stroke-width:1;stroke-miterlimit:4;stroke-dasharray:none" />
  <path
     d="m 220.9039108977811,190.0599312464768 c 2.6336924056775,-1.2986979040847 5.3229590795239,-1.9065730973473 7.1277826394606,-0.2125856881662 1.6019690959891,1.503590455456 2.5194436357167,3.1681507157981 1.5132147018506,5.1411871101463 0.092903480582,-1.1440058064501 -1.0374474252272,-1.9343921513234 -2.0361623319238,-2.3349898020055 -3.4197223812405,-1.3716955086224 -4.0255774738118,2.126479332809 -3.6304765440324,3.7822492210281 l -2.6393885085866,0.2502996074413 -2.4208513185368,-3.6409197308029 -0.6733301949366,-2.1494569443095 z"
     id="path98"
     style="fill:#ffd200;stroke:#000000;stroke-width:1;stroke-miterlimit:4;stroke-dasharray:none" />
  <path
     d="m 222.8186571597103,194.9122266886383 c 3.8390213605816,3.9198175230064 -2.2713513025222,5.8951357827214 -6.5586357477738,2.9097227030599 -0.9662878144517,1.2072075925192 -4.850467597709,2.790332156007 -7.6632770417168,2.0770948075192 -3.3570853036233,0.5031180853682 -5.3947211135282,3.4334211367259 -8.3546143658307,2.5688706489418 0.00549759634,0.6203041128462 -0.5537779652842,1.0160670000039 -1.3734704889028,1.5184868099982 l -4.0181157746187,1.9256634367489 -3.1380377895576,-1.4653836528746 c 1.5248304559808,-1.0541006606661 -1.2399847599966,-1.4459788086802 0.8354168901276,-2.1152132818332 0.9250175720859,-0.8635464426855 5.2624425416708,-1.9582658959868 10.930976907952,-3.7428774399902 2.2712429206607,-0.7150501476286 3.4738199854972,-1.9731351153182 4.0149224963426,-2.2993012526023 0.4734405662344,-0.2853808245706 2.6874074155547,-3.0430828566476 3.7073050494937,-3.1743766640666 1.4015936392459,-0.1804304267677 2.5976691802271,-1.4779947340737 3.3786339749318,-1.9305155776389 2.1062224484462,-1.2204257676778 0.2648637758976,-3.2062345667314 4.072116330428,-3.738547659554 1.2249909326114,-0.1712727754931 2.2396443426295,0.2907618955177 2.3460321023881,2.3421484894311 -0.6803411291044,1.495133870399 1.1414880979447,4.1483649921372 1.8207474567366,5.1242286328607 z"
     id="path100"
     style="fill:#ffd200;stroke:#000000;stroke-width:1;stroke-miterlimit:4;stroke-dasharray:none" />
  <path
     d="m 228.4829742442918,211.777611042623 c 2.3465592971467,0.9769739827077 3.958182147389,1.9738248916103 4.501136136254,4.3529925342955 0.5381186622515,2.3579797467377 0.016000752514,3.9929431815231 -2.467187784825,4.3301663162235 0.8035245337866,-0.8195905474679 0.7460028425063,-1.9398057137635 0.2349702652214,-2.8867775441489 -1.7498382474981,-3.242547739159 -3.6018688358666,-2.6125624951193 -5.7759007049449,0.09056522926 l -1.9277672762433,-1.2150657842486 0.4699405304429,-4.3469499065964 3.7595242435428,-1.1077169646152 z"
     id="path102"
     style="fill:#ffd200;stroke:#000000;stroke-width:1;stroke-miterlimit:4;stroke-dasharray:none" />
  <path
     d="m 225.7987398322678,216.7288705648739 c -0.4044746827057,4.7644370971702 -6.5327736594279,2.2428517815366 -6.2878152481494,-1.4383935180554 -1.5150751593325,0.3092079775292 -3.1371698147985,-0.879856990812 -4.8420585468414,-3.2280390312276 -3.0761309634902,-0.3356636315795 -6.2434030461249,-1.3988216427115 -8.1175687402929,-3.2280390312276 l -5.3642413313046,-1.0918367311505 -4.3198757623781,-1.0918367311505 -5.126885520185,-5.126885520185 c 1.8462707204665,0.1658931856697 3.6260479655552,0.087976961621 5.6490683046483,0.9019520822548 1.2966076043395,0.4469138961557 6.6163488617609,3.8479177014515 11.0133096359529,3.5603371667952 0.862839857592,-0.056433514037 4.2257448867956,0.098309959708 4.8420585468414,0.2373558111196 0.5464366708802,0.1232809802392 3.6997326335704,0.9914408928832 4.4148180869762,1.48347381926 0.998093761782,0.6867640672442 0.7970618858743,1.7710348184825 1.7089618399114,1.8869786986394 2.2505064318006,0.2861415299624 2.4930197292092,-4.057863117193 6.9794276092004,-1.742014440038 0.987557255526,0.5097693355134 2.6851237866048,2.2465902834806 2.1350355376448,3.9256879027148 -1.7869315820587,-1.0218213295046 -3.6096071658974,1.1575072805878 -2.684234412024,4.9512595222509 z"
     id="path104"
     style="fill:#ffd200;stroke:#000000;stroke-width:1;stroke-miterlimit:4;stroke-dasharray:none" />
  <path
     d="m 213.8659398426452,221.9906272879768 c 1.6842601405237,1.5167374321175 2.7651651043008,3.5644134339189 2.085417844461,5.6370924251142 -0.657804336787,2.0057708353204 -1.9710453027063,2.8193616327365 -3.9435434529857,2.4580279137335 1.0195061025233,-0.3342502021804 1.4751056787341,-1.2409570136 1.4850244319959,-2.1874187995329 0.028174887137,-2.6884884918582 -1.3131471748732,-3.8711472979077 -3.4302158749862,-3.2664968812393 -0.4349224961323,0.1242170688607 -1.0082445078328,-0.7743673989428 -1.5154522440833,-0.5549085418405 l -0.8013023206067,-0.064732400766 2.3303956908312,-3.2486496753476 3.5473506400605,0.5888375969686 z"
     id="path106"
     style="fill:#ffd200;stroke:#000000;stroke-width:1;stroke-miterlimit:4;stroke-dasharray:none" />
  <path
     d="m 169.3339061419735,209.3565817572045 c -2.0416691935395,0.9842822578383 -3.6528443185491,2.6472456566001 -3.5808429843213,4.8273535313787 0.069677058971,2.1097318068348 1.4393573768592,3.017084819144 3.4341096310728,3.2226923424835 -0.8850785269751,-0.6064255039388 -1.0684819472947,-1.6044492517191 -0.8129085687607,-2.5158056814886 0.725973406667,-2.588769361672 4.8133656399689,-3.1212015056528 5.03858355298,-0.4524402899169 0.038035727617,0.4507113724581 0.8323257469547,-0.2260020713434 1.2577633783767,0.1267367831128 l 0.7873599741525,0.16229591437 c 0.5755976948694,-2.2679646991688 -0.3320442835891,-4.0845086281943 -1.8054980812461,-5.7288489600725 l -3.5702907021925,-0.4283113131568 z"
     id="path108"
     style="fill:#ffd200;stroke:#000000;stroke-width:1;stroke-miterlimit:4;stroke-dasharray:none" />
  <path
     d="m 156.7052917637498,172.506529043856 11.8690757830415,3.335412200934 c 7.502295271843,10.1830695743526 15.9387695257235,16.6294232205552 23.9254657482392,24.8748889922169 2.0767311454486,0.8083120007104 3.3929634607417,2.1871415132549 4.8895297047572,3.7502218140879 2.4653878383613,2.5075874955516 3.4878323063548,4.6807679111309 5.1743566814069,6.2187222476785 2.0220672821297,1.8439384519695 3.6619885634261,2.844337253795 5.7233593005316,4.8295519825075 2.5469870797407,1.2200941274841 6.0748218771468,1.0753917174432 6.6673127433931,4.1940412169623 0.1992629649247,1.0488454442721 0.3249493685237,1.8592201163959 -1.0884518824741,2.2812597897337 -1.2264929529839,-0.8016139230831 -3.6381491061695,0.6486619264733 -3.3049124329484,2.5293777736618 0.014826861425,0.4664674751614 -0.3934730703285,0.8991859924093 -1.1614603726639,0.9530362622634 -4.67288863167,0.3276568675659 -5.5181506089008,-2.9595929447572 -3.5128660019162,-6.1475155049313 -0.9749595652787,-1.0256682610003 -2.0303887268004,-2.1586293169911 -2.7533274075354,-2.8482697319332 -2.4732091515407,-2.3592941295835 -5.1836988785386,-4.4858419975863 -7.0199727876485,-7.5177212807847 -1.0422807941199,-1.7209140375466 -2.2824552640711,-1.8873280523818 -3.4236828961067,-2.8309920785727 -1.5790922853929,1.472798606026 -3.4492588690356,2.6869381988923 -6.2661934102532,3.3229813539221 -2.0293878787611,1.2614228472817 -4.3160871565947,1.3682431891305 -6.5510203834464,2.0887311367511 -1.4956525291748,0.4821618866066 -1.5185617077726,2.8930029635054 -2.3176654152093,3.7891798446456 -0.7186828067279,0.8059866451235 -2.1769437004053,1.4182139354084 -3.6080850960386,1.008781209509 -0.5091326193529,-0.155425793156 -1.7020366908873,-1.7059337516595 -0.7117158600363,-2.6090956522406 1.031643442543,-0.367779279335 0.7552346774696,-2.2238153774715 0.1275378659574,-3.163454746986 -0.568125074149,-0.8504626384716 -1.2437068660685,-1.3355765407664 -4.0286695028263,-1.2090841160768 -1.05031380382,-0.027152724037 -1.1636792925155,-1.6220492957734 -0.4747116219889,-2.5634427587399 1.9514395783319,-2.6664131584164 4.6417564717575,-1.2364478298016 6.9307896810376,0.3797692975912 2.1341650340971,-1.2837778121813 4.4267373074605,-0.9901158594376 6.8358473566398,-1.0443655683755 2.3626501869268,-0.053203499361 4.9561475467891,0.2301219880902 6.1712510858553,-1.8039041635577 1.0235761084474,-1.7134182444929 -0.8956560350532,-2.544726471649 -3.3229813539221,-5.2218278418777 -8.8426416192779,-4.379770683151 -16.9521440936313,-11.8365359926651 -24.322166361268,-16.2074459560569 l -5.8694927972242,-6.2938849262158 z"
     id="path110"
     style="fill:#ffd200;stroke:#000000;stroke-width:1;stroke-miterlimit:4;stroke-dasharray:none" />
  <path
     d="m 63.91048981924846,11.99997221658232 c -0.91452842865894,-0.0522486362896 -1.78020566734277,0.96626555250747 -1.27903134549554,2.98751847123047 4.01821883015565,16.20561186890942 10.63080075504495,23.15532592233094 17.51432703758862,31.7237117663786 L 80.84598515303619,42.7807484654788 C 69.72080498284734,35.13775614649819 67.94962861363407,23.90708045467284 65.44159303575405,13.6244353853139 65.18491686201568,12.57209385731063 64.53621979675193,12.03572128351733 63.91048981924846,11.99997221658232 z m 132.17902036150323,0 c -0.6257299775035,0.035749066935 -1.2744270427672,0.57212164072831 -1.5311032165056,1.62446316873158 -2.5080355778798,10.28264506935894 -4.2792119470933,21.51332076118429 -15.4043921172821,29.1563130801649 l 0.7001996416946,3.9304539887126 c 6.8835262825437,-8.56838584404766 13.496108207433,-15.51809989746919 17.5143270375886,-31.72371176637861 0.5011743218472,-2.021252918723 -0.3645029168365,-3.03976710752006 -1.2790313454955,-2.98751847123046 z M 36.72407173105115,20.2716639838017 c -0.83635517846461,0.0551807677387 -1.27641579645994,1.06331128984921 -0.26140786623267,2.97818247600787 8.59004233810917,16.20561186890941 17.15742599983348,23.15532592233094 26.45821046083488,31.72371176637859 L 62.51009053585917,51.04310423747558 C 51.63246445657267,43.19497712810861 44.5231683850812,32.14950326678613 38.88068662747065,21.88679115731067 38.26114559687904,20.75995167246991 37.3745702031903,20.22874560889383 36.72407173105115,20.2716639838017 z m 186.41181660955896,0 c -0.6329926532402,0.0365271400274 -1.4412868682455,0.56877622329971 -2.0165749680806,1.61512717350897 -5.6424817576106,10.26271210947547 -12.751777829102,21.30818597079794 -23.6294039083885,29.15631308016491 l -0.4107837897942,3.9304539887126 c 9.3007844610013,-8.56838584404766 17.8681681227256,-15.51809989746917 26.4582104608349,-31.7237117663786 1.0713972596843,-2.02125291872302 0.5236953140099,-3.03156829604785 -0.4014477945716,-2.97818247600787 z M 20.16201620616721,51.82732783617358 c -1.40138608993914,0.10344270454565 -1.9993215790521,1.71396551337777 0.22406388534229,3.17423837568237 14.11243304434665,9.26874953793207 24.14027732485161,10.23686957264795 35.46744585063928,12.21148175115454 L 53.78093500273264,63.9361136398796 C 41.49008713019743,63.577709927937 30.86014947084796,58.02996937841427 21.758471389231,52.28479160208074 21.18740929674536,51.92432475044802 20.6291449028136,51.79284693465836 20.16201620616721,51.82732783617358 z m 219.4892476832139,0 c -0.4272548027411,0.007184212744 -0.910055947687,0.14205527072855 -1.4097352786119,0.45746376590716 -9.1016780816171,5.74517777633353 -19.7316157409665,11.29291832585626 -32.0224636135017,11.65132203779886 l -2.0725909394161,3.2769343231309 c 11.3271685257877,-1.97461217850659 21.3550128062926,-2.94273221322247 35.4674458506394,-12.21148175115454 2.3160265254107,-1.52111756490064 1.5632539906794,-3.19989627834014 0.03734398089,-3.17423837568237 z M 52.98737540881204,79.40585772371987 c -10.08039634772332,7.04123597952405 -21.92497663968075,8.93154618316051 -32.65731128863811,9.74677901238943 -2.69349428838548,0.20459900301803 -3.02733443448154,3.2015632304367 0.51347973724274,2.99685446645304 16.85588387207869,-0.97450670550853 25.48634066535846,-6.1740720107352 35.75686170253973,-11.34323419545318 l -3.61303015114435,-1.40039928338929 z m 154.02524918237605,0 -3.6130301511443,1.40039928338929 c 10.2705210371813,5.16916218471798 18.900977830461,10.36872748994465 35.7568617025397,11.34323419545318 3.5408141717242,0.20470876398366 3.2069740256282,-2.79225546343501 0.5134797372427,-2.99685446645304 -10.7323346489574,-0.81523282922892 -22.5769149409148,-2.70554303286538 -32.6573112886381,-9.74677901238943 z M 70.78178230307854,81.12368084467739 65.82436883988046,85.87570241297837 C 55.54024002769661,104.3569398219409 36.6543372829573,123.9045164258393 18.37884111865152,134.6562774510385 c -2.32822129788197,1.369729105221 -1.34436480884818,4.3417847175792 1.69915113051234,2.5207187101007 22.80228323081626,-13.6435831820421 33.57739819271606,-28.5874821113372 46.01712045217188,-48.3044392817077 l 4.68666960174281,-7.74887603475403 z m 118.43643539384306,0 4.6866696017428,7.74887603475405 c 12.4397222594557,19.71695717037056 23.2148372213557,34.66085609966565 46.0171204521719,48.30443928170775 3.0435159393605,1.8210660074785 4.0273724283942,-1.1509896048797 1.6991511305123,-2.5207187101007 -18.2754961643058,-10.7517610251992 -37.161398909045,-30.2993376290976 -47.4455277212289,-48.78057503806019 l -4.9574134631981,-4.75202156830099 z m -98.16798976558882,18.87738234008761 -2.06325494419356,6.5445326510392 c -0.12237397593897,21.149573664782 -7.26476429581875,47.3849474823923 -18.1118307318347,65.6040384291767 -1.38187061346099,2.3210355105543 0.90599568621451,4.4517206386413 2.69810261933,1.3910632881667 13.42013271530901,-22.919630006704 15.41387679296426,-40.2787653402555 17.10354324779445,-64.4837190024653 l 0.37343980890381,-9.0559153659173 z m 77.8995441373346,0 0.3734398089038,9.0559153659173 c 1.6896664548302,24.2049536622098 3.6834105324855,41.5640889957613 17.1035432477945,64.4837190024653 1.7921069331154,3.0606573504746 4.079973232791,0.9299722223876 2.69810261933,-1.3910632881667 -10.847066436016,-18.2190909467844 -17.9894567558957,-44.4544647643947 -18.1118307318348,-65.6040384291767 l -2.0632549441935,-6.5445326510392 z m -94.87238345201268,5.4242132243278 -3.49166221325062,5.9096849759028 c -4.91070568773505,20.5719326083008 -17.81530497594444,44.4997855719804 -32.50793536507656,59.7877134054998 -1.87177927681642,1.9476176658887 -0.12358614088821,4.5449628103644 2.31532681520362,1.9698949919676 18.26371794396121,-19.283309067796 24.13679394255163,-35.7453450081091 31.26624800047139,-58.9381378402437 l 2.41802276265217,-8.7291555331265 z m 111.84522276669079,0 2.4180227626522,8.7291555331265 c 7.1294540579198,23.1927928321346 13.0025300565101,39.6548287724477 31.2662480004714,58.9381378402437 2.4389129560918,2.5750678183968 4.18710609202,-0.022277326079 2.3153268152036,-1.9698949919676 -14.692630389132,-15.2879278335194 -27.5972296773416,-39.215780797199 -32.5079353650766,-59.7877134054998 l -3.4916622132506,-5.9096849759028 z m -76.7512167249554,9.1772833038111 -2.8288065524463,2.651422643217 c 3.0153254556681,8.6210016800026 -1.0866747943857,22.2921675052596 -5.4148772291052,33.6375907870107 -0.96282570581208,2.5238341652788 1.8286275514625,4.2141754370215 2.9221665046723,0.8402395700335 5.3599367316095,-16.5372095163892 4.8521510522743,-26.1991697093058 5.3215172768792,-37.1292530002612 z m 41.6572106832199,0 c 0.4693662246049,10.9300832909554 -0.03841945473,20.592043483872 5.3215172768793,37.1292530002612 1.0935389532098,3.373935866988 3.8849922104844,1.6835945952453 2.9221665046723,-0.8402395700335 -4.3282024347195,-11.3454232817511 -8.4302026847733,-25.0165891070081 -5.4148772291052,-33.6375907870107 l -2.8288065524464,-2.651422643217 z"
     id="path3317"
     style="fill:#dc281e;stroke:#000000;stroke-width:1;stroke-miterlimit:4;stroke-dasharray:none" />
  <path
     d="m 53.27679126071249,11.62653240767853 c -2.94035272785158,0.0132242172968 -5.71571919051476,3.47909743878101 -5.64827710967011,7.88891596309295 0.14911114261234,9.74989310291283 4.79618478196437,21.51876378589811 13.60254503932125,28.53080140025102 -0.76984842958474,1.42262017148177 -2.05489158069463,2.33982447096402 -2.20329487253246,4.10783789794192 -0.002874273489,0.0342428665733 -0.006443883099,0.0684678434092 -0.009335995223,0.10269594744856 C 43.4152738902923,43.96341025654035 35.3358512262803,36.00008936093014 26.00634921551183,25.83591713646845 c -1.35386741696805,-1.47499208202826 -4.7495887582079,-0.16888628727069 -6.0777328899095,2.37134278653919 -1.96725310976795,3.76259882169045 0.081423111646,9.40096995543364 0.76555160825281,10.91377841521383 3.09553274754818,6.84512946214692 9.41982337277739,13.08245098561806 17.28092715702377,18.23319866972848 8.53220241473187,5.59046452434735 14.04328263971663,7.56449706872259 16.34732763476426,8.77583550923951 -0.24687963583673,0.27186876120112 -0.50326896290009,0.52505442869844 -0.75621561303021,0.78422359869801 -14.22671590667268,2.4479212915605 -24.02462133685905,0.68949338227232 -35.56080580286523,-0.96160750792731 -1.75181134761879,-0.25072564365091 -3.34277695690721,2.54179867799347 -2.82880655244634,5.02276542975622 0.76129529346257,3.67481920157502 5.32295595332977,6.39708937191631 6.6378926032652,7.04867639305941 5.94980253127176,2.94828964416752 13.76324715367623,3.6703191398704 22.02361273010215,2.79146257155597 3.19541480729126,-0.33997421371902 5.86874460601884,-0.78560550141376 8.09430785799006,-1.23235136938257 0.376576494317,0.97079564692599 0.77099462037139,1.97170453378035 1.12031942671144,2.99685446645307 -12.2875084572232,12.45794484496757 -25.45336480543039,21.68726888194975 -37.38132487127132,26.47688245128005 -7.690140894280109,3.0879381699799 -0.73649200470828,14.0987044314092 12.00608985625746,9.3733392034856 5.42784065683804,-2.0128204615346 14.70251489105932,-6.7632750468798 21.41677304063347,-12.7342974836198 2.74477606797857,-2.4409427103673 5.16107783054094,-4.7442653593174 7.28207627362427,-6.82461250771718 0.58620590479809,1.07468858475229 1.25777391289353,2.15544229481917 1.98856698241278,3.21158235657278 -10.75585731730271,21.3829538639295 -29.00391552685205,48.3265986847429 -42.4507702771405,59.3769296157056 -8.500702238718574,6.9856910502733 3.6268580601673,14.6555242874961 17.86909485604726,3.575686170254 6.06663490715319,-4.7195769632978 20.74776588031053,-22.7760278997423 26.85965825540648,-33.0214151023193 4.22294310291901,-7.0789347338889 7.10161452427825,-13.4062602133815 9.33599522259522,-18.2145266792833 0.43605632015458,0.2816009736829 0.87507328943782,0.5522195946856 1.31637532638594,0.8122315843658 0.45708949848256,0.8042405953673 0.20449193760533,2.5026730260701 -0.76555160825284,7.3754362258502 -3.32148427363795,16.6846183414519 -13.59618707373342,46.1603176688424 -21.71552488775649,57.2109787240636 -6.30640652095387,8.5832074654087 7.17468833652968,11.2516488177066 15.92720784974745,-3.8651020221544 3.85132700066768,-6.6517476006768 14.37040669098828,-27.2475781526989 17.71971893248576,-38.6977001976573 1.84322769576885,-6.3013480235466 2.9895201250912,-11.9759856424144 3.86510202215442,-16.6647514723324 1.0894152144661,0.259707931509 2.40431244994093,1.8139795681363 3.3142783040213,0.5694957085783 2.74210451285954,5.7836463358444 -2.6144287014277,26.373656669872 -5.89101298545758,37.2599569333775 -0.51003587009971,1.6945706704773 2.11932541776811,4.2740084473363 4.54662967340387,3.5476781845862 9.33852006852544,-2.7943961781143 17.04601433676912,-25.7385991483849 15.95521583541532,-39.1551639635644 0.3537159954287,0.034450022306 0.6780828682801,0.067569906694 1.036295469708,0.1026959474486 4.70748858698,2.6628660780955 5.2817411429503,-1.7823394295158 6.9926604217238,-2.5673986862137 l 17.7197189324858,-14.2373927144578 -19.2041421728784,-4.2292058358356 -4.9013974918625,-4.49994969729086 c -0.6084507214857,-1.21012994302291 -2.021029077992,-1.43362950145135 -5.1534693628726,0.44812777068456 -1.07806205376249,-0.0689205199844 -1.12443341294333,-0.545707727993 -1.28836734071812,-0.98027949837251 1.50331164146613,-1.41500446332051 -0.63147743396016,-2.65878092498717 -1.78317508751567,-3.3236142992439 -3.43713159927925,-1.9578826454983 -6.11869389933736,-0.26199161164071 -9.91482692639615,2.34333480087139 -2.64919236771914,1.81816885716249 -4.93158717503408,6.03723846343942 -8.06629987232226,4.39725374984235 -1.62965196216537,-0.85258349473199 -2.94171549507209,-4.21390642746793 -1.06430345537588,-6.47918068448111 3.23947142921087,-3.90872705605329 5.88905077741156,-5.56397002599861 1.68981513528975,-10.37229069230328 1.75459031294109,-5.72556454627312 -1.21330229617777,-7.0160502101771 -3.8931100078222,-8.38372370989049 -2.1327190250194,-1.0884599220232 -4.78561793536474,-1.14341449982362 -6.17109284213544,-4.29455780239384 -0.76366102393504,-1.73688120170695 0.10593673137895,-2.53399164306343 0.53215172768792,-3.49166221325062 2.81306914303147,0.86617266276727 3.90546518075044,0.00802865167 5.57358914788935,-0.27074386145523 1.74576551153261,2.93390340916193 5.08044004933619,3.61882075519567 7.72086804908625,1.47508724517003 2.12937113114164,-1.72881224162964 2.68304968250136,-3.46107789850052 3.15556638523719,-5.09745339153695 1.39894934932747,5.93674761140827 -3.90018153407377,9.13817366421876 -2.88482252378192,13.69590499154719 2.97761751478541,13.36589372860199 15.79141555287929,4.24847596383189 10.87643443432343,-2.28731882953588 -4.0625567361417,8.31271434164094 -8.54811161936513,2.28506253790978 -7.11402835961756,-2.81947055722374 1.21435453922177,-4.32242193230401 3.69868914955353,-7.83897788036395 4.29455780239381,-11.54862609035027 0.57562135906458,-8.90324909831246 -4.89620733321253,-13.67880694345272 -11.10049831966573,-18.84003835919716 -4.32794085083285,-3.60033150179045 -3.20925207664364,-5.5025297373784 -2.69810261933002,-8.35571572422273 -3.86998763781476,-1.04365047691184 -7.30458137633319,2.1127790132185 -4.64932562085242,6.2644527943614 C 65.31130510723622,32.08665620791409 61.09686331441756,22.673850730764 58.16885275735239,15.87441023395938 56.86839296278093,12.85447611167999 55.04100289742346,11.61859787730039 53.27679126071249,11.62653240767856 z m 76.72320873928762,93.86409596797237 17.7197189324857,14.2373927144578 c 1.7109192787735,0.7850592566979 2.2851718347439,5.2302647643092 6.9926604217239,2.5673986862137 0.3582126014278,-0.035126040754 0.6825794742793,-0.068245925143 1.036295469708,-0.1026959474486 -1.0907985013539,13.4165648151795 6.6166957668898,36.3607677854501 15.9552158354153,39.1551639635644 2.4273042556358,0.7263302627501 5.0566655435036,-1.8531075141089 4.5466296734038,-3.5476781845862 -3.2765842840298,-10.8863002635055 -8.633117498317,-31.4763105975331 -5.8910129854575,-37.2599569333775 0.9099658540803,1.244483859558 2.2248630895552,-0.3097877770693 3.3142783040213,-0.5694957085783 0.8755818970632,4.688765829918 2.0218743263856,10.3634034487858 3.8651020221544,16.6647514723324 3.3493122414975,11.4501220449584 13.868391931818,32.0459525969805 17.7197189324857,38.6977001976573 8.7525195132178,15.116750839861 22.2336143707014,12.4483094875631 15.9272078497475,3.8651020221544 -8.1193378140232,-11.0506610552212 -18.3940406141186,-40.5263603826117 -21.7155248877565,-57.2109787240636 -0.9700435458581,-4.8727631997801 -1.2226411067354,-6.5711956304829 -0.7655516082528,-7.3754362258502 0.4413020369481,-0.2600119896802 0.8803190062313,-0.5306306106829 1.3163753263859,-0.8122315843658 2.234380698317,4.8082664659018 5.1130521196762,11.1355919453944 9.3359952225953,18.2145266792833 6.1118923750959,10.245387202577 20.7930233482532,28.3018381390215 26.8596582554064,33.0214151023193 14.24223679588,11.0798381172421 26.3697970947658,3.4100048800193 17.8690948560473,-3.575686170254 -13.4468547502885,-11.0503309309627 -31.6949129598379,-37.9939757517761 -42.4507702771405,-59.3769296157056 0.7307930695192,-1.0561400617536 1.4023610776145,-2.13689377182054 1.9885669824128,-3.21158235657282 2.1209984430833,2.08034714839981 4.5373002056456,4.38366979734991 7.2820762736243,6.82461250771722 6.7142581495741,5.97102243674 15.9889323837953,10.7214770220852 21.4167730406334,12.7342974836198 12.7425818609657,4.7253652279236 19.6962307505376,-6.2854010335057 12.0060898562575,-9.3733392034856 -11.9279600658411,-4.7896135693303 -25.0938164140481,-14.01893760631251 -37.3813248712713,-26.47688245128007 0.3493248063399,-1.02514993267273 0.7437429323944,-2.02605881952708 1.1203194267114,-2.9968544664531 2.2255632519712,0.44674586796883 4.8988930506988,0.89237715566358 8.0943078579901,1.23235136938257 8.2603655764258,0.87885656831446 16.0738101988303,0.15682707261158 22.0236127301021,-2.79146257155594 1.3149366499354,-0.65158702114311 5.8765973098025,-3.3738571914844 6.6378926032652,-7.04867639305941 0.5139704044609,-2.48096675176275 -1.0769952048276,-5.27349107340714 -2.8288065524463,-5.02276542975622 -11.5361844660063,1.65110089019963 -21.3340898961927,3.40952879948779 -35.5608058028655,0.9616075079273 -0.25294665013,-0.25916916999955 -0.5093359771935,-0.51235483749687 -0.7562156130302,-0.78422359869799 2.3040449950476,-1.21133844051694 7.8151252200323,-3.18537098489215 16.3473276347643,-8.77583550923951 7.8611037842463,-5.15074768411043 14.1853944094756,-11.38806920758156 17.2809271570238,-18.23319866972848 0.6841284966068,-1.51280845978019 2.7328047180207,-7.15117959352339 0.7655516082527,-10.91377841521384 -1.3281441317016,-2.54022907380988 -4.7238654729414,-3.84633486856745 -6.0777328899095,-2.37134278653919 -9.3295020107684,10.16417222446169 -17.4089246747803,18.1274931200719 -33.0120791070967,26.42086647994452 -0.00289211213,-0.0342281040393 -0.00646172173,-0.0684530808752 -0.00933599522,-0.10269594744855 -0.1484032918379,-1.76801342697789 -1.4334464429478,-2.68521772646014 -2.2032948725325,-4.10783789794192 8.8063602573568,-7.01203761435291 13.4534338967087,-18.78090829733819 13.6025450393212,-28.53080140025102 0.067442080845,-4.40981852431194 -2.7079243818184,-7.87569174579619 -5.64827710967,-7.88891596309295 -1.764211636711,-0.007934530378 -3.5916017020685,1.22794370400143 -4.89206149664,4.24787782628082 -2.9280105570652,6.79944049680462 -7.142452349884,16.21224597395471 -15.7871679214085,22.96654824758427 2.6552557554808,-4.15167378114289 -0.7793379830376,-7.30810327127324 -4.6493256208525,-6.26445279436141 0.5111494573136,2.85318598684433 1.6298382315028,4.75538422243227 -2.69810261933,8.35571572422274 -6.2042909864532,5.16123141574446 -11.6761196787302,9.93678926088473 -11.1004983196656,18.84003835919716 0.5958686528403,3.70964820998634 3.080203263172,7.22620415804629 4.2945578023938,11.54862609035028 1.4340832597475,5.10453309513349 -3.0514716234759,11.13218489886468 -7.1140283596177,2.81947055722375 -4.9149811185558,6.53579479336776 7.8988169195381,15.65321255813784 10.8764344343235,2.28731882953585 1.0153590102919,-4.55773132732844 -4.2837718731094,-7.75915738013893 -2.8848225237819,-13.6959049915472 0.4725167027357,1.63637549303645 1.0261952540956,3.36864114990733 3.1555663852372,5.09745339153697 2.6404279997501,2.14373351002564 5.9751025375537,1.45881616399191 7.7208680490863,-1.47508724517003 1.668123967139,0.27877251312529 2.7605200048578,1.13691652422247 5.5735891478893,0.27074386145523 0.4262149963088,0.95767057018719 1.295812751623,1.75478101154367 0.5321517276879,3.49166221325062 -1.3854749067707,3.15114330257019 -4.0383738171161,3.20609788037062 -6.1710928421355,4.29455780239381 -2.6798077116444,1.36767349971342 -5.6477003207633,2.6581591636174 -3.8931100078222,8.38372370989052 -4.1992356421218,4.80832066630465 -1.549656293921,6.46356363624997 1.6898151352897,10.37229069230328 1.8774120396964,2.26527425701316 0.5653485067895,5.62659718974912 -1.0643034553758,6.47918068448112 -3.1347126972882,1.63998471359713 -5.4171075046032,-2.57908489267987 -8.0662998723223,-4.39725374984235 -3.7961330270588,-2.60532641251211 -6.4776953271169,-4.30121744636969 -9.9148269263961,-2.3433348008714 -1.1516976535555,0.66483337425673 -3.2864867289816,1.90860983592337 -1.7831750875156,3.3236142992439 -0.1639339277747,0.43457177037949 -0.2103052869557,0.91135897838812 -1.2883673407181,0.98027949837248 -3.1324402848805,-1.8817572721359 -4.5450186413869,-1.65825771370747 -5.1534693628725,-0.44812777068455 l -4.9013974918625,4.49994969729094 -19.2041421728784,4.2292058358356 z"
     id="path3264"
     style="fill:#dc281e;stroke:#000000;stroke-width:1;stroke-miterlimit:4;stroke-dasharray:none" />
  <path
     d="m 105.0001037487396,43.11257166059895 c -2.9378815249656,-7.93879141047541 -16.27656926874914,-2.08516030950558 -7.50698380529279,7.01612121307627 3.75275686585118,3.89469911254526 8.97277823979609,2.45193417070787 16.33325100228109,1.0364058360296 8.5474011055226,-1.64379230018953 14.9615049394923,-0.18435245120203 17.8525259728645,8.84720670261583 l 0.9019520822548,4.84205854684164 0.9494232444787,-2.8007985712123 c -0.7528614240403,-11.61855419271054 -8.7675069680422,-16.97092945476196 -17.1845607250653,-15.66548353389935 -4.8109875187531,0.74616180589751 -15.4637632410324,3.61033669835837 -15.0483584249881,-3.22803903122782 0.077004310864,-1.26764156347808 2.4685004356447,-0.59121218445426 3.7027506534671,-0.0474711622239 z"
     id="path3483"
     style="fill:#dc281e;stroke:#000000;stroke-width:1;stroke-miterlimit:4;stroke-dasharray:none" />
  <path
     d="m 128.0954569745907,16.30386601419873 c -3.3068747667587,-0.0121763562268 -6.0126999177006,0.45542326236192 -7.8328999917574,1.51243122606043 -1.9272397796599,1.11916696636371 -2.2346936535338,2.28873026945243 -3.1555663852372,3.49166221325061 l 0.4667997611297,1.68047914006713 6.1804288373581,3.41697425146986 8.1223158436578,8.12231584365786 0.8028955891432,6.31113277047438 2.4180227626522,6.4511726988133 -0.2614078662327,8.92521143280104 -4.1638538692775,6.58187663192965 c -1.8826227632594,-0.18841557708542 -2.4059965347384,1.04821357347064 -2.4180227626521,2.81947055722373 -0.8260792690734,-0.16620278557663 -1.6567487526043,-0.26540019926605 -2.5487266957685,-0.14003992833889 -6.5805983172307,0.9248497614014 -8.1388582153942,4.82408130965329 -11.6139780569085,10.21357877351917 -1.5690581553334,2.43342253921884 -5.1430003168569,4.0726789381699 -8.140987834103,2.73544660022037 -1.810413720672,-0.80752296613096 -3.6316298826192,-4.81523843244588 -1.0643034553759,-6.16175684691285 0.9509146343144,-0.49873831862713 1.6164404053557,0.29504541104312 2.2219668629777,0.80289558914319 0.3693955619845,-0.99020573526478 0.8509583881815,-2.09488333837605 0.4014477945716,-3.09021441867901 -0.7312423194823,-1.61915696350667 -2.1046627294247,-2.1685589687803 -3.3609582801343,-1.94188700629981 -1.7991870091503,0.32462524443649 -3.0635401793193,1.26180066065317 -3.7530700794833,2.61407866232669 -1.30719619732132,2.56362002733809 -1.39227450975817,5.40374077423643 0.9335995222595,8.32770773855494 1.8797621197878,1.44876062613189 3.5257791140949,2.54912358146088 5.4055412338827,2.88482252378189 2.9410772859293,0.38865394271902 4.975929597793,-0.62306591567851 7.5808281207473,-2.63275065277182 -1.1476072198722,2.46106851647842 -3.0932533793366,4.14943943111753 -2.8848225237819,6.94598044561083 -1.7882180162925,2.41888513532278 -3.9200101161248,5.29836624534798 -1.8485270540739,8.93454742802362 -0.8019683879143,-0.91216588795578 -1.6007399231345,-1.8495902985633 -2.5580626909911,-1.81118307318344 -0.2120152904745,0.008505928532 -0.4238202406573,0.0621285522379 -0.6535196655816,0.17738390922931 -4.4412965291434,2.22849150423248 -3.5237462509381,6.23015301303489 -3.3609582801343,8.0569638770997 0.8923334994132,10.0137898583556 8.272833746701,18.6095230453332 12.0340978419252,28.0079856677857 1.0288489628919,2.3041412135615 1.5709299050701,3.9104271163023 2.0352469585258,7.9075879535381 0.2412643493674,2.0769696084507 -0.783348610753,3.6894292125748 -0.9149275318144,4.8360455253043 l -0.2333998805648,2.0445829537484 c -0.3202518187324,2.7907658504712 -2.0925218456043,4.5156242445885 -3.5196701989184,6.0777328899095 -7.7384714092964,5.9393706072986 -10.159909401073,10.2476097598121 -16.24463168731573,18.3265586219544 -6.03985366940282,8.0193748595977 -11.44235591549895,5.630144867025 -13.6959049915472,1.6804791400672 -1.19195747471312,7.829775588102 6.5963839163035,10.5975050533244 13.25711321608522,5.3401892673245 -0.62428179355459,0.6493497570209 -1.17962513794105,1.50847782968 -1.30703933116334,2.2406388534228 -1.85082240870604,6.2483716093558 -8.37467464876012,3.8056210308723 -9.33599522259523,0.9429355174822 -0.79693530875596,3.7868817100057 3.83901576512966,10.0880068336113 10.26959474485477,5.7042930810056 0.86511904639201,-0.5897500478988 1.71592893565183,-1.214025254532 1.74583110662529,-2.744782595443 0.50743053741145,0.046985178767 0.82819488511305,0.3381318161763 1.68047914006715,-0.074687961781 0.3342378531252,-0.4097875573572 0.51931241467369,-0.7647607431298 0.66285566080424,-1.1109834314888 -0.30201302276954,0.7939755136589 -0.50281702007743,1.4384604077554 -0.59750369424607,2.1846228820873 -2.08644277639158,8.4719994278546 4.49817084884239,9.9912864074421 7.0486763930594,8.9345474280236 -1.2043244553122,-0.4551060906349 -2.5976127791375,-1.7361292713124 -2.8194705572237,-4.1638538692775 -0.093282656495,-1.0207647515894 0.13411047819,-1.7129067943558 0.6721916560268,-2.2126308677549 0.5700609747359,-0.5294241912089 1.3962340976628,-0.6029134942659 2.0165749680806,-0.9429355174822 3.2975121875289,-1.8074365547273 4.8566094871772,-4.361313528391 4.9013974918625,-7.9262599439834 0.027833861407,-2.2154642778011 1.2103349185774,-2.9214742099243 1.9979029776354,-4.0704939170515 0.84894903236,-1.2385712667106 5.3912184043959,-4.5446205577938 7.6835240681958,-7.4127802067406 1.7491414071551,-2.1885461801757 3.8536828619314,-6.737022375455 4.0798299122741,-7.3754362258501 0.2378118488908,-0.6713436142099 0.5224267686792,-1.3452313538708 0.2707438614553,-2.0165749680806 0.4471238210402,-0.1168441503919 0.5573966721655,0.2240649367944 0.9055915365917,0.5508237181331 0.04586456703,3.4872782518405 0.00474095709,6.9691412523124 0.028007985668,10.5963545776456 0.055671012349,8.6788322449614 1.0389058630632,15.3092104347149 -1.0736394505984,20.2030936616961 -2.3210056456467,5.3767985593035 -6.3132307739455,4.0612642410723 -7.6461800873055,0.2053918948971 -2.6411277762114,2.9721702404543 -3.0023107410571,7.703723406431 -1.1483274123792,10.1388908117384 3.6898743652799,4.8465709723596 8.1206792980259,2.5826899524159 10.2695947448547,-2.8194705572238 -0.8148033311448,9.4147950141217 -6.8176329916998,9.9457687991165 -11.4459301429018,10.0548668547351 -7.7486729342083,0.1826514424484 -13.0480213074655,-0.057981869074 -15.87119187841184,8.6077875952328 -0.63655719602431,3.4758550042462 0.0773814097428,6.5908332753748 2.48337472921034,9.2613072608145 4.7305151196979,4.4188303681104 10.4587723857989,3.8592053855749 13.5558650632083,-0.9709435031499 -2.9221835847188,1.9204513220138 -9.7089127235619,2.4695258212995 -7.9542679296512,-3.1555663852372 0.6615081644715,-2.1206824500562 4.3174928992669,-2.812053273779 6.6192206128201,-2.4553667435426 6.0379739012749,0.9356727765071 5.2184479273975,1.2067335908787 10.3349467114129,-1.6711431448445 3.3563312782734,-1.8878354341253 3.1706486637826,-4.4575801291416 3.967797969603,-6.8806284790527 0.01235688461,0.715850742752 0.037448382001,1.4189668727236 0.205391894897,1.9792309871902 l -1.2790313454955,3.1368943947919 c -0.6631016617035,4.066883052062 -1.9400721296303,8.3636556614658 -4.1825258597227,12.0060898562575 -3.3056912345131,5.3694587444253 -6.5322233691936,9.9981202830667 -12.7156254931747,11.9220658992541 -2.158256505894,0.494393101442 -4.3626305742559,0.6700773836002 -6.6472285984878,0.2800798566779 -1.4272728535547,-0.2436458743401 -3.48669150572537,-0.958636355698 -4.80803753963652,-2.0912629298613 -2.33025367819333,-1.9974383490229 -1.04488348366533,-2.2477295646298 -4.44393372595532,-5.9376929615706 -4.84330551123279,-5.2578275643875 -9.25168376344375,-8.9249755038777 -15.00294432271056,-8.0662998723223 -3.76380356524112,0.5619440069059 -7.09182355052846,1.329429466492 -10.68971452987151,8.3557157242228 -1.36819844880463,4.3174441186494 1.73633972569006,8.2367627266588 3.04353444256606,8.3090357481096 0.50895811430793,-0.445233127897 1.51860058775597,-0.9985506540838 2.10993492030651,-1.2790313454956 -2.99072831849827,-1.0201137196215 -4.223067458125,-4.1587777669387 -1.42840726905706,-6.2644527943613 0.78202323513344,-0.3718766193742 1.41382414333563,-0.5354746706219 1.98856698241275,-0.5321517276879 1.26443424596971,0.00731047445 2.27177197832363,0.8115402672168 4.11717389316449,1.9045430254094 0.66361825507829,1.8574384172168 0.82744118053833,3.9952914516208 2.89415851900452,4.8453815205269 -3.23252204168611,-0.4156408857278 -5.39638863026174,-0.8372669520641 -7.5714921255247,0.046679976113 -0.53952537732566,0.266050938182 -1.54268697631157,0.8220998601957 -2.10993492030651,1.2790313454957 -2.71719860807693,2.1887670268128 -4.11777400534865,5.0158218170369 -6.57254063670705,7.8142280013121 -2.80320044558769,3.1956167899983 -4.79671158078555,4.2772171374688 -8.9625554136914,3.5663501750314 -1.5587968985228,-0.2659958608041 -2.97140156769624,-1.6273928337112 -3.93045398871259,-3.3049423087987 -1.1925328346273,-2.2816600166983 -1.54015192819079,-5.0960117551618 0.66285566080426,-6.5071886701489 1.18402042005451,-0.758445995375 2.47758832656741,-0.6046439095563 3.98646996004815,1.0923114410436 0.67364353578174,0.7576094619198 0.19212202591794,1.895244926096 -0.18671990445191,2.7541185906656 -0.33268782776879,0.7542375615989 0.36704920077381,0.7298777416465 0.83090357481096,1.1203194267115 2.56832570132439,-0.8211975819829 4.08077975973943,-5.0659086617829 1.73649511140272,-7.5808281207474 -1.36863461111215,-1.4682542148371 -3.48487630347139,-1.5727625589677 -5.98437293768354,-0.8495755652561 -7.5626545977371,2.1881259483031 -5.82578563671577,11.989632972274 -0.75621561303022,16.6087355009968 3.16159808576934,2.880667521023 7.64405499162511,4.7355575102838 13.17308925908186,3.9864699600482 3.2246696378174,-0.4368864004932 6.15700431926834,-1.1399251411908 9.00923538980439,-3.043534442566 1.96765913393034,-1.3132365985278 3.58379392058012,-3.0914429000155 5.82566101889941,-4.0704939170515 3.03402743832534,-1.3249972094396 3.59022253160842,-0.747807580849 4.35990976895198,-0.093359952226 -3.70046337735208,2.0085304350176 -3.81584888059095,2.8360993950435 -3.22091835179535,8.6357955809006 -1.04168247948661,2.2390414146599 -3.54837304817971,3.61106709545 -6.15242085169025,1.4377432642797 -1.09407773723197,-0.9131112018273 -0.5970422482295,-2.2912549078401 -0.21472789011969,-3.1462303900147 -4.10907718096564,1.6252121323258 -0.62792984663413,6.8540924314168 2.95017449034009,8.2623557719969 2.79902104639352,0.7030058269467 5.5389962584986,0.6550074807114 8.1596598245482,-1.1389914171567 3.88071604846256,-2.3569313276607 5.13261288889319,-4.1024532061971 5.82566101889945,-8.6824755570136 0.20345118479361,-1.3445112010427 -0.46872610627794,-4.3317911772022 0.63484767513647,-5.1814773485403 2.33887302814172,-1.8007931159626 4.61303641895255,-3.5793137766153 7.11402835961758,-4.1731898645 6.73770878395972,-1.599910846918 13.49194400806442,-1.9970825700292 19.84832584323742,-7.8889159630931 3.8792218212103,-3.6091535311348 5.694397118529,-6.2716645428336 6.7405885507138,-12.0527698323703 0.1580280710636,1.3221955985264 0.9344681774861,1.9928325950006 0.046679976113,4.6493256208524 -0.9204034785733,2.7540864116213 -2.5327057776783,5.1168484045171 -3.8464300317093,7.6461800873055 -1.4493359237558,2.7904267274586 -3.5008430969095,4.9288423171306 -5.6949570857831,6.8806284790527 -4.3798941266994,2.8441804739527 -7.92699359059,6.666594690053 -11.5859700712406,10.3536187018581 -2.8839380690835,2.906044618078 -5.645871840154,6.3536980776967 -6.64722859848783,11.8193699518055 -1.30515333079684,7.1238744754717 1.86506895020364,14.5674313864229 7.24473229273393,17.346279123582 2.5587355791488,1.268749097102 6.199804014718,2.444277780581 9.7281070219442,1.7084871257349 3.1584505221227,-0.6586617910118 4.449556854251,-2.9960277063851 4.7240135826332,-4.9574134631981 -1.987865806157,1.9725454885344 -2.8533477277471,2.9196163491988 -6.9273084551657,2.5860706766588 -2.3996141571668,-0.1964626002655 -4.1697378012575,-1.0836593090558 -5.9376929615706,-2.5860706766588 -1.2051256109174,-1.0241178384363 -2.5970609910301,-2.3524250946939 -2.558062690991,-5.3215172768793 0.030840216362,-2.3479855585018 1.4175082898976,-3.3921266819552 2.4647027387651,-4.5559656686265 0.5028487862372,-1.019026160902 0.947792610094,-2.0843324773431 1.2416873646052,-3.1929103661276 0.1442908982296,-0.5442686433663 0.2223257317661,-1.1789616551571 0.1587119187841,-1.7645030970704 0.093130555866,-2.1060308767766 1.2253899189587,-2.8755987655771 1.5871191878412,-4.9107334870853 -0.2434633441354,1.6025588938929 -0.9015877244795,3.2345130078568 -0.7095356369173,4.8080375396365 0.281198457123,2.3039201301991 1.8780352884747,3.5074387966147 3.6597101272574,4.8733895061948 0.224847899553,3.2170186037936 1.0486235856392,3.0627366311402 -1.3817272929441,4.798701544414 -2.0242927431371,-0.028917980143 -1.6010715799887,-1.3482831160161 -2.0912629298614,-2.1846228820873 -0.5622569968912,3.969021515648 3.5095729874239,4.2684208512205 6.4978526749263,2.0259109633031 2.1833735701961,-1.6384801063501 4.2629355264381,-3.6602618906098 4.1825258597227,-6.2084368230257 -0.211900914521,-6.7151204649219 -0.27979721789,-6.0496470412934 -4.406589745065,-10.7737384868749 -0.4080376956722,-7.2820624314472 2.1115439570003,-8.5452634832021 6.5445326510393,-14.1440327622318 3.2314207872815,-4.0812148823611 3.9810366633544,-5.6893665121866 4.9854214488658,-10.4469786540841 0.2073172867482,-2.084124028062 1.5863654454496,-0.4963578576787 1.2790313454956,0.2894158519005 -0.6177058664217,2.2727729967839 -0.8690847688407,4.4819693170495 -1.2416873646052,6.7966045220493 -0.6341851334364,3.9396055020166 -2.1986687158315,7.0362133317486 -3.967797969603,10.2789307400774 -1.5368226854601,2.8169121419657 -2.4998124607316,5.3785036606792 -1.4097352786118,9.0559153659173 0.4238844407005,1.4299882884159 1.2672672570364,3.1267018413629 1.4937592356152,4.1545178740548 2.5378079085716,-1.4574913347893 2.3715727285978,-1.9979178747397 2.6140786623267,-3.8557660269318 -0.4020297150107,-2.0169964519898 -0.033309909169,-4.1372606790519 0.4761357563523,-4.219869840613 l 0.5508237181331,0.3080878423457 c 0.122760593501,0.4165509322071 0.2628481581458,0.7998542310721 -0.03734398089,2.2032948725325 -0.5239653786914,1.5205191205486 -0.3697326313483,3.0544696888635 -0.438791775462,4.6306536304072 -0.1004443827877,4.0607903242816 1.1330720392725,7.0381371793268 3.3236142992439,9.9988508833995 1.3890717508376,1.8774546575966 2.539647665395,4.1357452112427 3.1555663852372,6.1337488612452 0.7579954298768,2.4588920368697 0.9542753049689,5.1899811476778 -1.2136793789374,7.1327003500626 -2.4658056292987,2.2096254967633 -5.3966103199636,-0.1080716169852 -6.2364448086936,-2.6887666241074 -0.3055009770864,-0.938762168996 0.4841772840917,-2.3627081698741 1.3350473168311,-2.3526707960939 1.507351151427,0.017781619217 1.8410548825057,0.017142096883 1.7178231209575,-1.4097352786118 -0.7759816166661,-3.0807301901905 -4.3310902559804,-2.0448935602869 -5.5922611383345,-0.1213679378937 -1.4287641207661,2.264686301241 -0.3557746118108,5.9801926505871 2.7541185906656,7.6741880729732 4.5380036548961,2.4719039908005 8.1375825442551,0.2793735335324 9.4293551748211,-2.2499748486455 2.2214367082721,-4.3496720794559 1.6140327683975,-7.7394532156516 -0.6161756846912,-12.7809774597329 -1.1930607944601,-2.6969877688353 -2.202756945093,-4.9043445817567 -2.1192709155292,-7.7582120299766 0.1224723951711,-4.186568503855 0.53669560404,-4.7096755379494 -0.2707438614552,-7.1233643548402 0.054592770897,-0.2716831529367 0.1769693065029,-0.5008288646573 0.4854717515749,-0.6255116799138 0.4784981322663,-0.1933874274872 1.4476611799414,1.2319298854733 1.0456314649307,3.2489263374631 0.2425059337289,1.8578481521921 0.076270753755,2.3982746921423 2.6140786623267,3.8557660269318 0.2264919785788,-1.027816032692 1.0698747949147,-2.724529585639 1.4937592356152,-4.1545178740549 1.0900771821197,-3.6774117052381 0.1270874068482,-6.2390032239515 -1.4097352786119,-9.0559153659173 -1.7691292537714,-3.2427174083288 -3.3336128361666,-6.3393252380608 -3.9677979696029,-10.2789307400774 -0.3726025957645,-2.3146352049998 -0.6239814981835,-4.5238315252654 -1.2416873646052,-6.7966045220493 -0.307334099954,-0.7857737095792 1.0717140587474,-2.3735398799625 1.2790313454955,-0.2894158519005 1.0043847855115,4.7576121418975 1.7540006615843,6.365763771723 4.9854214488659,10.4469786540841 4.432988694039,5.5987692790297 6.9525703467115,6.8619703307846 6.5445326510393,14.1440327622318 -4.1267925271749,4.7240914455816 -4.194688830544,4.058618021953 -4.406589745065,10.7737384868749 -0.080409666715,2.548174932416 1.9991522895266,4.5699567166758 4.1825258597226,6.2084368230257 2.9882796875025,2.2425098879174 7.0601096718176,1.9431105523449 6.4978526749263,-2.0259109633031 -0.4901913498727,0.8363397660711 -0.066970186724,2.1557049019445 -2.0912629298613,2.1846228820873 -2.4303508785833,-1.7359649132737 -1.6065751924971,-1.5816829406205 -1.3817272929441,-4.7987015444139 1.7816748387827,-1.3659507095801 3.3785116701344,-2.5694693759957 3.6597101272573,-4.8733895061948 0.1920520875623,-1.5735245317798 -0.4660722927818,-3.2054786457438 -0.7095356369172,-4.8080375396365 0.3617292688825,2.0351347215082 1.4939886319748,2.8047026103086 1.5871191878412,4.9107334870851 -0.063613812982,0.5855414419134 0.014421020555,1.2202344537042 0.1587119187841,1.7645030970705 0.2938947545112,1.1085778887845 0.738838578368,2.1738842052256 1.2416873646052,3.1929103661276 1.0471944488675,1.1638389866712 2.4338625224029,2.2079801101246 2.4647027387651,4.5559656686265 0.038998300039,2.9690921821853 -1.3529370800736,4.297399438443 -2.5580626909911,5.3215172768792 -1.767955160313,1.5024113676031 -3.5380788044037,2.3896080763933 -5.9376929615705,2.5860706766589 -4.0739607274186,0.3335456725399 -4.9394426490088,-0.6135251881244 -6.9273084551657,-2.5860706766589 0.2744567283821,1.9613857568129 1.5655630605105,4.2987516721863 4.7240135826332,4.9574134631981 3.5283030072263,0.7357906548461 7.1693714427954,-0.4397380286329 9.7281070219442,-1.7084871257349 5.3796633425302,-2.7788477371591 8.5498856235307,-10.2224046481102 7.2447322927339,-17.346279123582 -1.0013567583338,-5.4656718741088 -3.7632905294043,-8.9133253337275 -6.6472285984878,-11.8193699518055 -3.6589764806506,-3.6870240118051 -7.2060759445412,-7.5094382279054 -11.5859700712407,-10.3536187018581 -2.1941139888736,-1.9517861619221 -4.2456211620273,-4.0902017515941 -5.6949570857831,-6.8806284790527 -1.3137242540309,-2.5293316827884 -2.926026553136,-4.8920936756842 -3.8464300317092,-7.6461800873055 -0.8877882013732,-2.6564930258518 -0.1113480949506,-3.327130022326 0.046679976113,-4.6493256208524 1.0461914321848,5.7811052895368 2.8613667295035,8.4436163012355 6.7405885507138,12.0527698323704 6.3563818351731,5.8918333930638 13.1106170592777,6.289005116175 19.8483258432374,7.888915963093 2.500991940665,0.5938760878847 4.7751553314759,2.3723967485374 7.1140283596177,4.1731898645 1.1035737814142,0.8496861713382 0.4313964903427,3.8369661474976 0.6348476751364,5.1814773485404 0.6930481300063,4.5800223508164 1.9449449704368,6.3255442293528 5.8256610188994,8.6824755570135 2.6206635660497,1.7939988978681 5.3606387781548,1.8419972441034 8.1596598245483,1.1389914171567 3.5781043369743,-1.40826334058 7.0592516713057,-6.637143639671 2.95017449034,-8.2623557719968 0.3823143581098,0.8549754821746 0.8793498471122,2.2331191881873 -0.2147278901196,3.1462303900146 -2.6040478035107,2.1733238311702 -5.1107383722036,0.8012981503802 -6.1524208516902,-1.4377432642797 0.5949305287954,-5.7996961858571 0.4795450255566,-6.627265145883 -3.2209183517953,-8.6357955809006 0.7696872373435,-0.6544476286229 1.3258823306266,-1.2316372572136 4.359909768952,0.093359952226 2.2418670983192,0.9790510170359 3.8580018849689,2.7572573185236 5.8256610188994,4.0704939170515 2.8522310705359,1.9036093013752 5.7845657519869,2.6066480420728 9.0092353898044,3.043534442566 5.5290342674567,0.7490875502357 10.0114911733125,-1.1058024390252 13.1730892590818,-3.9864699600481 5.0695700236854,-4.6191025287229 6.8064389847068,-14.4206095526938 -0.7562156130302,-16.6087355009969 -2.4994966342122,-0.7231869937115 -4.6157383265715,-0.618678649581 -5.9843729376836,0.8495755652561 -2.3442846483366,2.5149194589645 -0.8318305899217,6.7596305387645 1.7364951114027,7.5808281207474 0.4638543740371,-0.390441685065 1.1635914025796,-0.3660818651126 0.830903574811,-1.1203194267115 -0.3788419303699,-0.8588736645696 -0.8603634402337,-1.9965091287458 -0.1867199044519,-2.7541185906656 1.5088816334805,-1.6969553505999 2.8024495399936,-1.8507574364186 3.9864699600481,-1.0923114410436 2.2030075889951,1.4111769149871 1.8553884954317,4.2255286534506 0.6628556608043,6.5071886701489 -0.9590524210165,1.6775494750875 -2.3716570901899,3.0389464479946 -3.9304539887126,3.3049423087987 -4.1658438329058,0.7108669624374 -6.1593549681038,-0.3707333850331 -8.9625554136914,-3.5663501750314 -2.4547666313585,-2.7984061842753 -3.8553420286302,-5.6254609744993 -6.572540636707,-7.8142280013121 -0.567247943995,-0.4569314853 -1.570409542981,-1.0129804073135 -2.1099349203066,-1.2790313454957 -2.175103495263,-0.883946928177 -4.3389700838385,-0.4623208618407 -7.5714921255247,-0.046679976113 2.0667173384661,-0.8500900689061 2.2305402639262,-2.9879431033101 2.8941585190044,-4.8453815205269 1.8454019148409,-1.0930027581927 2.8527396471948,-1.8972325509549 4.1171738931645,-1.9045430254094 0.5747428390771,-0.00332294293 1.2065437472794,0.1602751083137 1.9885669824129,0.5321517276879 2.7946601890679,2.1056750274226 1.5623210494412,5.2443390747398 -1.4284072690571,6.2644527943613 0.5913343325505,0.2804806914118 1.6009768059986,0.8337982175986 2.1099349203066,1.2790313454956 1.3071947168759,-0.072273021451 4.4117328913706,-3.9915916294602 3.043534442566,-8.3090357481096 -3.5978909793431,-7.0262862577308 -6.9259109646304,-7.7937717173169 -10.6897145298716,-8.3557157242228 -5.7512605592668,-0.8586756315554 -10.1596388114777,2.8084723079349 -15.0029443227105,8.0662998723224 -3.39905024229,3.6899633969408 -2.113680047762,3.9402546125477 -4.4439337259553,5.9376929615706 -1.3213460339112,1.1326265741633 -3.3807646860819,1.8476170555212 -4.8080375396366,2.0912629298613 -2.2845980242318,0.3899975269222 -4.4889720925937,0.2143132447641 -6.6472285984878,-0.2800798566779 -6.183402123981,-1.9239456161875 -9.4099342586615,-6.5526071548287 -12.7156254931747,-11.9220658992542 -2.2424537300924,-3.6424341947916 -3.5194241980191,-7.9392068041954 -4.1825258597226,-12.0060898562574 l -1.2790313454956,-3.1368943947919 c 0.1679435128958,-0.5602641144667 0.1930350102868,-1.2633802444382 0.2053918948971,-1.9792309871902 0.7971493058204,2.4230483499111 0.6114666913296,4.9927930449274 3.967797969603,6.8806284790526 5.1164987840154,2.8778767357232 4.296972810138,2.6068159213516 10.3349467114129,1.6711431448446 2.3017277135532,-0.3566865302364 5.9577124483485,0.3346842934863 6.6192206128199,2.4553667435426 1.7546447939107,5.6250922065367 -5.0320843449324,5.076017707251 -7.9542679296511,3.1555663852372 3.0970926774093,4.8301488887248 8.8253499435104,5.3897738712603 13.5558650632083,0.9709435031499 2.4059933194676,-2.6704739854398 3.1199319252348,-5.7854522565683 2.4833747292104,-9.2613072608145 -2.8231705709464,-8.6657694643063 -8.1225189442036,-8.4251361527843 -15.871191878412,-8.6077875952328 -4.6282971512019,-0.1090980556186 -10.6311268117569,-0.6400718406134 -11.4459301429016,-10.0548668547352 2.1489154468288,5.4021605096398 6.5797203795747,7.6660415295834 10.2695947448546,2.8194705572239 1.853983328678,-2.4351674053074 1.4928003638322,-7.1667205712841 -1.1483274123791,-10.1388908117384 -1.33294931336,3.8558723461752 -5.3251744416588,5.1714066644063 -7.6461800873056,-0.2053918948972 -2.1125453136616,-4.8938832269811 -1.1293104629473,-11.5242614167347 -1.0736394505983,-20.2030936616961 0.023267028573,-3.6272133253332 -0.017856581362,-7.109076325805 0.028007985668,-10.5963545776456 0.3481948644263,-0.3267587813386 0.4584677155516,-0.6676678685248 0.9055915365918,-0.5508237181331 -0.251682907224,0.6713436142098 0.032932012564,1.3452313538707 0.2707438614552,2.0165749680806 0.2261470503428,0.6384138503952 2.3306885051191,5.1868900456744 4.0798299122741,7.3754362258501 2.2923056638,2.8681596489468 6.8345750358358,6.1742089400299 7.6835240681959,7.4127802067406 0.7875680590579,1.1490197071272 1.9700691162286,1.8550296392504 1.9979029776354,4.0704939170515 0.044788004685,3.5649464155924 1.6038853043336,6.118823389256 4.9013974918625,7.9262599439834 0.6203408704178,0.3400220232163 1.4465139933447,0.4135113262733 2.0165749680806,0.9429355174822 0.5380811778366,0.4997240733991 0.7654743125218,1.1918661161657 0.6721916560268,2.2126308677549 -0.2218577780863,2.4277245979651 -1.6151461019116,3.7087477786426 -2.8194705572237,4.1638538692775 2.5505055442169,1.0567389794185 9.1351191694508,-0.462548000169 7.0486763930594,-8.9345474280236 -0.094686674169,-0.7461624743319 -0.2954906714767,-1.3906473684284 -0.5975036942461,-2.1846228820873 0.1435432461305,0.3462226883591 0.328617807679,0.7011958741316 0.6628556608042,1.1109834314888 0.8522842549543,0.4128197779572 1.1730486026558,0.1216731405473 1.6804791400672,0.074687961781 0.029902170973,1.530757340911 0.8807120602333,2.1550325475442 1.7458311066253,2.744782595443 6.4305789797252,4.3837137526056 11.0665300536108,-1.917411371 10.2695947448547,-5.7042930810056 -0.9613205738351,2.8626855133903 -7.4851728138892,5.3054360918737 -9.3359952225952,-0.9429355174822 -0.1274141932221,-0.7321610237428 -0.6827575376088,-1.5912890964019 -1.3070393311633,-2.2406388534228 6.6607292997817,5.2573157859999 14.4490706907983,2.4895863207775 13.2571132160852,-5.3401892673245 -2.2535490760483,3.9496657269578 -7.6560513221444,6.3388957195306 -13.6959049915472,-1.6804791400672 -6.0847222862428,-8.0789488621423 -8.5061602780193,-12.3871880146558 -16.2446316873156,-18.3265586219544 -1.4271483533141,-1.5621086453209 -3.199418380186,-3.2869670394383 -3.5196701989184,-6.0777328899095 l -0.2333998805649,-2.0445829537484 c -0.1315789210614,-1.1466163127295 -1.1561918811818,-2.7590759168536 -0.9149275318143,-4.8360455253043 0.4643170534557,-3.9971608372358 1.0063979956339,-5.6034467399766 2.0352469585257,-7.9075879535381 3.7612640952243,-9.3984626224525 11.141764342512,-17.9941958094301 12.0340978419253,-28.0079856677857 0.1627879708037,-1.8268108640648 1.0803382490091,-5.82847237286721 -3.3609582801343,-8.05696387709969 -0.2296994249244,-0.11525535699143 -0.4415043751072,-0.16887798069753 -0.6535196655817,-0.17738390922931 -0.8259887751545,-0.0331381829763 -1.5374621548002,0.66125724977688 -2.2313028582002,1.43774326427966 l 0,0.009335995223 c -2.1797676397505,2.48272119942044 -4.085126712758,0.49678401412085 -6.5165246653715,-1.26969535027294 2.0431713491937,-3.22338363298509 2.8412833144589,-5.44927205954957 2.352670796094,-6.6472285984878 1.1878694043825,2.51725319892664 5.4129817259372,3.3654904052743 8.5237636382295,-1.07363945059845 -3.0259925518194,1.31242929577232 -6.3611828435028,1.95654493252755 -7.1140283596176,-1.74583110662533 -0.6701002922468,-3.29544802052769 -0.5554297061526,-4.76478933525728 -0.1307039331164,-6.37648473703253 0.861320716964,-3.26843042526208 1.3732272334537,-6.2986646654288 0.9989514888178,-9.73744301716681 1.1747125247824,0.4119505384308 -0.4368258669055,5.89900864692747 7.1887163213983,5.16280535809513 3.0633273710178,-0.29574706029064 2.0491717130734,-3.83687383352721 2.2966548247584,-5.53624516699894 -1.2106745753372,2.26355179614754 -3.8237414469175,3.74303788488122 -6.2551167991388,-0.49480774679755 -1.4191560247213,-2.47356466558773 -1.3494115766159,-5.02323547052401 -1.0082874840403,-7.52481214941174 0.8901591839442,-6.52783401559205 2.3021333202319,-9.67881105982096 -0.3360958280134,-15.76849593096335 3.4140260691519,6.74249818909636 8.7897556288462,6.79966038095873 11.277882228895,1.07363945059845 -5.3311451067199,2.30969363768471 -8.4269254352773,-1.60877786320956 -9.1306033276981,-5.37753324821485 -1.091005045515,-5.84320068122027 -3.5664338807496,-8.15042775545351 -7.450124187631,-10.46565064452925 4.9576893140044,0.47977638522609 6.4948860855715,1.02667901775979 9.5974030888279,-2.22196686297767 2.0567466142344,-2.15361959629545 1.1498366766497,-4.78323905097337 -0.6068396894687,-5.97503694246094 0.3347156631326,1.42370377490376 0.498674599611,2.80421822993689 -2.399350772207,3.88377401259961 -2.4472426111423,0.91163277524378 -5.4686664302647,0.59785674055934 -8.4770836621164,0.0840239570034 2.5413058176664,-0.68408441120012 4.6300084969426,-0.32448345763271 5.9750369424609,-4.36924576417457 0.3973036557361,-1.19476941645895 0.047370244925,-1.82516863433846 -0.00933599522,-2.67943062888483 -0.9213359843011,1.77671373235346 -1.8836028612079,3.73182109690265 -3.6783821177025,3.62236614636695 -1.9171036986794,-0.11691492965023 -3.2046319462207,-0.69367162875035 -5.0414374202014,0.13070393311633 -1.8547908709308,-0.38801542620711 -3.5160840547956,-0.99796745563422 -5.9657009472384,-0.67219165602686 0.2476993476044,-0.73732295883521 1.0817213323988,-1.0337341146618 1.8111830731835,-1.40973527861187 -2.1334624566281,-0.77897398878177 -4.3900648160692,-0.76262825144102 -6.6472285984878,-0.73754362258502 0.4371138819395,-0.80822447304503 1.4389950050236,-1.47686689587982 2.9501744903401,-2.01657496808058 -1.7238482231259,-0.1924842877671 -3.3515926217683,-0.29321713974729 -4.8547175157495,-0.29875184712304 z"
     id="path13"
     style="fill:#dc281e;stroke:#000000;stroke-width:1;stroke-miterlimit:4;stroke-dasharray:none" />
  <path
     d="m 113.0798598417556,25.87182327942884 c -1.0936013343571,-4.40408376134258 2.888237467288,-5.84660765590303 5.5022374341386,-3.51005597178767 0.4570146576314,0.40850741449731 0.6878928580824,2.07971987526662 2.3524828521178,1.56315949057881 3.5523500202231,1.26103441258454 6.9027019845042,2.11906797671202 10.5400947430961,6.24349561215252 3.3306344074524,3.77659535424033 1.8855105921553,7.49748879386005 1.9468964812089,12.28558814004197 4.6256783309647,4.21528533316609 2.2443968002966,13.7862972100305 1.4098215898408,15.17236568114475 -1.959630526099,3.25456837589957 -3.3828988155033,4.6818488556319 -5.6392863593635,6.10922688931052 -3.9157417601074,-7.24814086887096 -10.1231276677781,-7.23940860379156 -16.1122467410387,-7.92185464767735 4.3422351713184,-3.97588371064779 14.9448300428453,-0.60555481629907 16.9178590287712,4.09519604668067 1.3924153330414,-0.88766704809502 3.3757642021529,-1.827423930235 3.3567181203691,-3.89379296241767 -0.041635382465,-4.5171529737806 -1.0336935981085,-11.39349467436341 -4.8336740223116,-14.70242515119782 -1.7436690766844,-1.1348648183308 -3.1272124101356,-2.40624456007946 -5.2877530519107,-2.06152643700801 -2.589178921744,0.41310812717074 -7.0228178320899,-2.38715299715557 -8.4076566779722,-4.92044715077543 -4.9724538622023,0.68899086228748 -5.1022114679954,0.77190893985135 -5.1022114679956,5.50501763652153 -10.48565449422149,-4.47498876231709 -3.5884788006307,-19.6682266043809 3.3567180710498,-13.96394717556684 z"
     id="path3509"
     style="fill:#ffd200;stroke:#000000;stroke-width:1;stroke-miterlimit:4;stroke-dasharray:none" />
  <path
     d="m 122.8206196738244,24.86497363331855 c -0.718473578025,0.565362943135 -1.1521408351635,1.42300222422957 -1.1856713932696,2.51138271487811 -0.067708328173,2.19776906797643 1.5087911515879,4.48817027179947 3.9024460030448,4.705341592188 2.3188531373488,0.21038471662639 4.2630766510234,-1.28756016375806 4.4439337259553,-3.37963027057947 -2.4427254688589,-2.11480990929721 -4.7947101206513,-2.79560118639786 -7.1607083357305,-3.83709403648664 z"
     id="path3511"
     style="fill:#ffffff;stroke:#000000;stroke-width:1;stroke-miterlimit:4;stroke-dasharray:none" />
  <path
     d="m 128.4520643976234,28.064300709042 c -0.039430877656,1.27990109304456 -1.2014382653933,2.21493954404563 -2.5954161429562,2.08846683388093 -1.3939778775628,-0.12647271016473 -2.3161203901456,-1.46204704022242 -2.276689512489,-2.74194813326696 0.039430877656,-1.27990109304447 1.0255034743479,-2.01945644288421 2.4194813519108,-1.89298373271944 1.3939778775629,0.12647271016476 2.4920551811909,1.26656393906105 2.4526243035344,2.5464650321055 z"
     id="path3514"
     style="fill:#000000;stroke:none" />
  <path
     d="m 127.4998094781878,120.3098316404491 q -2.4210743331337,0 -4.6515128920048,-0.7265411727337 -2.2113749814448,-0.7265411727338 -3.9270969498075,-2.0924385774731 -1.696658390936,-1.3658974047394 -2.7070279945274,-3.3275585711204 -1.0103696035913,-1.9761919898357 -1.0103696035913,-4.4464319771303 0,-2.4702399872946 0.9913060261652,-4.4754936240397 0.9913060261648,-2.0197844601997 2.7451551493797,-3.4728668056671 1.7347855457886,-1.4385515220128 4.0986691466439,-2.22321598856516 2.363883600855,-0.7846644665524 5.051848017956,-0.7846644665524 2.0016756297561,0 3.6220797109874,0.37780140982153 1.6204040812313,0.37780140982153 3.0882995430525,1.06075011219123 l 0.7816066744762,-0.98809599491787 1.5250861940999,0 0.1715721968364,7.35259666806518 -1.5632133489526,0 q -0.3050172388198,-1.0752809356459 -0.9150517164599,-2.3249317527479 -0.6100344776402,-1.2641816405567 -1.4297683069688,-2.1360310478371 -0.91505171646,-0.9880959949178 -2.1732478265926,-1.5402672861955 -1.2581961101325,-0.56670211473228 -2.8786001913636,-0.56670211473228 -1.8491670103462,0 -3.4505075141511,0.62482540855098 -1.5822769263787,0.624825408551 -2.7451551493801,1.8454145787437 -1.1056874907224,1.1769966998286 -1.7347855457885,2.9933496316628 -0.6290980550663,1.8163529318343 -0.6290980550663,4.0540997438542 0,1.9761919898356 0.6481616324926,3.6327058636685 0.6672252099188,1.6419830503782 1.8872941651987,2.8916338674802 1.22006895528,1.2351199936473 2.8786001913637,1.9325995194716 1.6775948135097,0.6974795258244 3.7364611755448,0.6974795258244 1.5441497715262,0 2.8404730365113,-0.3632705863669 1.2963232649849,-0.3778014098215 2.2495021362975,-0.9880959949178 0.9531788713125,-0.6393562320057 1.6775948135099,-1.4530823454674 0.7244159421976,-0.8137261134618 1.1819418004275,-1.7727604614703 l 1.4297683069686,0.5231096443683 q -1.6394676586573,3.0660037489362 -4.3464956531848,4.3883086833116 -2.7070279945272,1.3077741109207 -6.4434891700723,1.3077741109207 z"
     id="path4485"
     style="font-size:40px;font-style:normal;font-variant:normal;font-weight:normal;font-stretch:normal;text-align:start;line-height:125%;letter-spacing:0px;word-spacing:0px;writing-mode:lr-tb;text-anchor:start;fill:#ffd200;fill-opacity:1;stroke:#000000;stroke-width:0.5;stroke-linecap:round;stroke-linejoin:round;stroke-miterlimit:4;stroke-dasharray:none;font-family:Georgia;-inkscape-font-specification:Georgia" />
  <path
     d="m 121.1875000000005,92.59375 0,1.03125 c 0.3147533373627,0.0193744312729 0.7254111043954,0.0593778436355 1.25,0.15625 0.536246426618,0.0968721563645 0.9664966626372,0.21781619672619 1.28125,0.34375 0.4080135854702,0.15499545018322 0.6530171588522,0.34188239345229 0.78125,0.59375 0.1282328411475,0.24218039091124 0.21875,0.52407188399712 0.21875,0.84375 l 0,14.90625 c 0,0.3487397629122 -0.086794565812,0.6231323934523 -0.25,0.875 -0.1515479031748,0.2421803909112 -0.400274069597,0.4365661967261 -0.75,0.5625 -0.1748629652015,0.067810509455 -0.5733734493283,0.139063921818 -1.15625,0.1875 -0.5828765506719,0.038748862546 -1.0252740695972,0.043125568727 -1.375,0.0625 l 0,1.03125 10.75,0 0,-1.03125 c -0.3030958063494,-0.00968721564 -0.7608734493283,-0.059377843636 -1.34375,-0.15625 -0.5828765506718,-0.096872156364 -0.9501370347985,-0.182189490545 -1.125,-0.25 -0.3846985234432,-0.1549954501832 -0.6609520968254,-0.3418823934523 -0.8125,-0.59375 -0.1515479031751,-0.2518676065477 -0.21875,-0.5553218839972 -0.21875,-0.875 l 0,-7.09375 0.15625,0 c 0.7460819848598,0 1.3816611043954,0.08312898109 1.90625,0.21875 0.5362464266182,0.1259338032738 0.994024069597,0.3603230214513 1.34375,0.71875 0.2331506202688,0.2421803909112 0.4268219727715,0.6137659243588 0.625,1.15625 0.2098355582421,0.5424840756411 0.34002740696,1.0425125119962 0.375,1.46875 l 1.34375,0 0,-3.5625 c -0.2560538969132,-0.4048444396686 -0.5136242259385,-0.7758728340918 -0.8125,-1.09375 -0.4215406783692,-0.4551902897936 -0.9025202555906,-0.8112389052058 -1.4375,-1.125 -0.034452715585,0.037883772408 -0.058214031855,0.092517217457 -0.09375,0.125 -0.3380683993895,0.3099909003664 -0.7407912284492,0.5325045498168 -1.21875,0.6875 -0.4779587715507,0.1453082345471 -1.1685927050058,0.21875 -2.03125,0.21875 l -0.15625,0 0,-8.28125 4.15625,0 c 0.6295066747254,-3e-14 1.1978836974357,0.0118755687271 1.6875,0.03125 0.5012738335776,0.0193744312729 0.9198665385835,0.0550011374542 1.28125,0.09375 0.7111093918195,0.087184940728 1.4493529531133,0.56565059271954 2.21875,1.4375 0.7810545779001,0.87184940728045 1.2864418487179,1.70345996472048 1.53125,2.46875 l 1.3125,0 0,-5.15625 -19.4375,0 z m 11.65625,6.0625 c -0.029143827534,0.25671121436592 -0.060883579426,0.50781960908874 -0.125,0.75 0.5030690971593,0.15138572252376 0.9892429406188,0.33332342440318 1.46875,0.53125 l 0,-1.28125 -1.34375,0 z"
     id="path4483"
     style="font-size:40px;font-style:normal;font-variant:normal;font-weight:normal;font-stretch:normal;text-align:start;line-height:125%;letter-spacing:0px;word-spacing:0px;writing-mode:lr-tb;text-anchor:start;fill:#ffd200;fill-opacity:1;stroke:#000000;stroke-width:0.5;stroke-linecap:round;stroke-linejoin:round;stroke-miterlimit:4;stroke-dasharray:none;font-family:Georgia;-inkscape-font-specification:Georgia" />
  <path
     d="m 109.0312500000005,113.8125 0,1.03125 c 0.371485315243,0.019374431273 0.7959623924808,0.069065059272 1.25,0.15625 0.4677963228983,0.077497725092 0.8747821155158,0.2103173341803 1.21875,0.375 0.412761461381,0.193744312729 0.7348518385508,0.3925068247252 0.96875,0.625 0.2476568768286,0.2324931752748 0.4074215615856,0.5121963152701 0.53125,0.8125 0.4953137536573,1.2399636014656 1.4790761697872,3.6916697050585 2.9375,7.34375 1.458423830213,3.642393079305 2.8878871774425,7.1407245272427 4.25,10.53125 l 1.8125,0 7.6875,-15.84375 c 0,-0.085024433075 0.019713912569,-0.1670324138712 0.03125,-0.25 0.717731985172,-0.047853402366 1.4013030264404,-0.1047190276367 2.03125,-0.28125 0.6944916571787,-0.2024031615251 1.2968644065563,-0.4757331487149 1.84375,-0.78125 l -1.625,-3.4375 -2.03125,0 -7.3125,15.3125 c -1.5822522686271,-3.9136351171256 -2.7819857926173,-6.8556824414372 -3.59375,-8.8125 -0.7980054920032,-1.9665047741993 -1.3397995462745,-3.3662750239924 -1.65625,-4.21875 -0.02751743076,-0.096872156364 -0.083723853863,-0.2200045498168 -0.125,-0.375 -0.041276146137,-0.1646826658196 -0.0625,-0.3093778436355 -0.0625,-0.40625 10e-14,-0.2518676065477 0.3645380848935,-0.4246906279991 1.09375,-0.53125 0.7429706304858,-0.1065593720007 1.641837631168,-0.180001137454 2.6875,-0.21875 l 0,-1.03125 -11.9375,0 z m 31.3125,0 0,1.03125 c 1.4309063994542,0.077497725092 2.4608490925489,0.2459440403617 3.09375,0.46875 0.6466596228302,0.2228059596383 0.96875,0.4831346683607 0.96875,0.8125 0,0.2324931752748 -0.042447707724,0.5359474527243 -0.125,0.875 -0.082552292276,0.3293653316393 -0.2947908308951,0.9428389458102 -0.625,1.84375 -0.4677963228985,1.2787124640113 -1.0657968002731,2.7919278916204 -1.78125,4.59375 -0.7154531997271,1.7921348927441 -1.5718724926856,3.9100705221615 -2.5625,6.3125 l -5.125,-10.90625 c -0.087765231818,0.046462939121 -0.1605305805565,0.1125467745273 -0.25,0.15625 -1.0986068907829,0.5307405954978 -2.3342638715971,0.8867805825109 -3.6875,1.09375 l 6.8125,14.59375 1.90625,0 c 1.4996999763511,-3.3808382571209 2.8941807543395,-6.5475875839736 4.1875,-9.53125 1.2933192456606,-2.9933496316629 2.429381208065,-5.6060031879802 3.40625,-7.84375 0.22013944607,-0.4940479974589 0.4923169770334,-0.8850079621795 0.78125,-1.15625 0.3026917383462,-0.2809292534571 0.6746949617221,-0.5368812559981 1.15625,-0.75 0.3852440306222,-0.1646826658196 0.8272123924809,-0.2781278436355 1.28125,-0.375 0.4540376075193,-0.1065593720008 0.8435321155159,-0.1778127843633 1.1875,-0.1875 l 0,-1.03125 -10.625,0 z"
     id="path4487"
     style="font-size:40px;font-style:normal;font-variant:normal;font-weight:normal;font-stretch:normal;text-align:start;line-height:125%;letter-spacing:0px;word-spacing:0px;writing-mode:lr-tb;text-anchor:start;fill:#ffd200;fill-opacity:1;stroke:#000000;stroke-width:0.5;stroke-linecap:round;stroke-linejoin:round;stroke-miterlimit:4;stroke-dasharray:none;font-family:Georgia;-inkscape-font-specification:Georgia" />
</svg>
