<svg enable-background="new 0 0 402.45 460.44" height="460.44" viewBox="0 0 402.45 460.44" width="402.45" xmlns="http://www.w3.org/2000/svg" xmlns:xlink="http://www.w3.org/1999/xlink"><clipPath id="a"><path d="m0 .029h402.45v460.411h-402.45z"/></clipPath><clipPath id="b"><path d="m5.039 5.789h392.369v454.651h-392.369z"/></clipPath><path clip-path="url(#a)" d="m402.119 278.281c-.721 3.598-.721 5.76-.721 7.559-.357 2.162-.721 3.961-1.438 7.559l-1.081 6.123c-13.679 66.957-76.679 132.837-144.358 147.597-80.641 19.441-160.562-5.039-212.761-70.559-18-22.682-29.161-48.24-36.36-75.601-2.52-10.438-4.32-28.081-4.32-28.081l-1.08-12.597v-260.281h402.119z"/><path clip-path="url(#b)" d="m397.08 276.839c-6.48 66.961-56.162 131.76-119.49 157.318-65.549 28.081-150.51 15.123-203.791-31.318-43.2-37.799-65.52-85.682-68.76-140.76v-256.319h392.041z" fill="#37a7da"/><path d="m374.398 30.959c3.961 5.399 2.191 13.32.363 18.721-2.883 10.08-7.922 19.08-12.604 28.08-6.117 10.08-15.117 18.719-22.679 27.719 12.961-7.2 25.198-15.839 38.88-21.24 1.441-.359 3.24-1.08 4.682 0 1.799 2.88-1.081 5.041-2.52 7.201-9.721 11.88-20.52 22.679-30.932 33.839-.39 0-.39 0 0 0 9.691-3.599 19.049-7.56 28.77-10.44 1.799-.36 4.318-1.08 5.76.36.721.719.721 1.8.36 2.88-2.88 5.399-8.279 9.721-12.601 13.68-5.76 4.68-10.799 9.719-16.201 14.399-.357.36 0 0 0 .36 5.763-2.161 11.162-6.12 16.201-10.44.721 0 1.799-.721 2.883-.36 3.958 1.8 9 2.161 11.52 6.12 1.078 3.961-1.441 6.841-2.883 10.08-1.078 2.161-2.52 3.961-3.598 6.12-7.922 4.32-16.201 8.641-24.123 12.961v.359c9-.359 18.363-1.44 27.363-.719 1.438.719 2.877.719 3.961 2.161.357 1.08 0 2.52-.363 3.599-4.318 5.041-10.438 7.92-15.48 11.161-5.76 3.24-11.156 6.479-16.559 9.719 5.039 3.959 11.88 5.041 18.721 4.32 2.88 2.161 7.201 2.88 9.357 6.12 1.084 4.32-2.877 6.841-5.396 9.36-4.682 2.52-8.643 5.039-14.042 5.039-7.198 0-13.649-.719-20.52-1.08-.36 0-.36 0-.36.36 4.318 5.041 9.36 11.161 15.48 13.32 4.682 2.159 10.078 2.52 14.039 6.48 3.24 2.52 6.48 6.12 9 9.718.36.721.721 2.162.36 3.24-1.438 2.522-4.321 2.522-6.841 2.522-3.598.36-7.198 1.081-10.078-.36-7.201-1.799-14.039-2.88-20.88-5.402v.363c4.679 8.637 11.88 17.279 20.88 22.679 2.52 2.159 5.76 3.24 7.919 6.12.721 3.601 2.522 7.201 1.438 10.799-1.799 2.52-5.039 1.081-6.838.36-4.682-1.438-9-3.601-13.318-5.76-14.042-6.12-25.922-16.919-37.441-28.081-.36 0 0 .363 0 .363 11.52 14.76 23.399 29.156 33.51 44.637 1.049 1.802 2.49 4.321 1.77 6.841-.721 1.081-2.88 1.081-3.961.36-9.721-4.682-18-12.24-27-18.721-4.679-3.598-9-7.198-13.679-10.799 7.562 9 16.198 18 25.562 23.76 5.396 3.601 11.159 6.48 17.309 9 2.851.36 5.73-.721 8.61-1.441.39.363 0 1.081.718.721 2.162 2.52 7.562 4.682 5.402 9-.721 1.081-1.799 1.081-2.52 1.799-1.081 1.441-2.162 3.604-4.321 3.961-5.039.721-9.36-1.078-14.039-1.438 0 0 0 .36-.36.36 6.12 5.399 6.838 13.318 7.201 21.24.357.357.357 0 .721.357.357 1.802 0 4.321.357 6.123l-.357.357c-1.412.36-2.522 2.162-3.961 1.802-.721 1.799-.363 3.601-1.081 5.399-3.24 0-6.841-.721-10.438-1.078-.363.718-.363 1.799-.721 2.52.357 3.598 0 7.559.357 11.159-.718 1.799-2.156 3.237-3.24 4.679 0 .721 0 1.799-.328 2.52-1.471.36-2.912-.357-4.351 0-1.081-.721 0-2.159-1.081-2.52-.718 0-1.799.36-2.52 0-.357-1.441-.357-2.88 0-4.318.721 0 1.802.357 2.52 0 3.604-1.802 1.441-5.76 2.162-9-.721-.721-1.799.357-2.52.357-1.441 1.081-2.883.363-4.321.363-.36-1.802 0-4.321-.36-6.48.721-.363 1.471 0 2.162-.363.357-.718.721-1.438 1.078-2.156.36-.363 1.441-.363 2.162-1.081.357-.721.357-1.802 1.078-2.88.721-.36 2.52.721 2.88-.721.721-.721 0-2.88 1.802-2.52-1.081-.721-2.52.357-2.883-.721-1.799.721-3.24 1.799-5.039 2.52-1.078-1.799-2.159-3.961-3.24-5.76 1.799-1.441.36-3.598.721-5.399-2.162-.721-4.682-1.802-6.838-3.24-.721-.36-1.412-1.081-1.802-1.438-.36 0-.36.357 0 .357 2.159 3.961 3.24 7.922 4.321 12.24.718 1.441 0 3.24.357 4.321 0 .718.36 1.799-.357 2.159-.721.721-1.441 0-2.162 0-9.357-5.399-19.441-9.36-27.721-16.919-7.919-6.841-15.838-14.399-23.399-21.601-1.438 1.441.36 5.039-2.88 5.039 0 0 0 0-.357 0-3.604 5.039-6.48 10.441-6.844 16.922-.357 2.159-.718 4.318-.718 6.838 2.159 2.52 5.039 5.039 7.919 6.48 6.48 2.162 13.318 2.88 20.162 3.24 1.078.721 2.877.36 3.24 1.799v1.802c-.721.36-1.441.36-1.802.36-6.841-.36-13.679.721-20.159 1.799-5.039.721-10.081 2.162-14.039 6.48-3.24 3.601-6.48 7.559-9 11.52-1.084.36-1.802-.357-2.162-1.078-2.88-3.961-5.399-11.162-11.52-11.162-7.922.721-14.402 3.961-21.601 6.12-.36 0-1.081-.36-1.081-1.081.363-2.877 1.802-5.76 2.191-8.637 0-1.441.691-2.883 0-3.961-3.27-2.162-7.23-2.52-10.83-3.601-.721-.36-.36-1.081 0-1.438 3.599-3.961 9.001-3.961 13.68-5.76 1.081-.363 2.52-.363 3.237-.721 0 0 0 0 0-.36-2.156-.36-4.676-.36-7.198-.721v.36c-5.399.36-10.08 0-15.479-.36 0 1.081 1.08 2.159 1.08 3.24 1.08 5.399-4.32 9.36-7.56 13.321-1.08.357-1.8-1.441-2.52-1.802 2.159-3.24 5.039-6.12 6.839-9.718.36-1.802-1.44-3.24-2.52-4.682-.36-.721-1.081 0-1.081-.721-2.88-.721-5.399-1.441-8.279-1.799 0 0 0 .357-.36.357 2.88 3.604 6.841 7.922 3.99 12.604-2.911 2.877-6.149 5.396-9.75 7.198-.36-1.081-1.8-1.802-1.44-3.24 2.88-2.159 6.48-3.958 8.64-6.841-.36-2.52-1.8-4.318-3.24-6.48-1.08-1.438-2.52-3.24-3.599-4.679-7.92-1.802-16.2-3.24-23.041-7.198-2.159-1.441-3.959-3.961-5.041-5.76-2.88 5.76-6.119 14.039-13.679 14.039-4.321 0-8.641 0-12.961 0-1.44 1.078-2.88 2.159-4.32 3.24 0 3.961-.719 8.64 1.44 12.598 2.161 2.52 5.401 4.682 7.92 6.48.36 1.081-1.08 2.162-1.8 3.24 0 0-.36-.357-.719-.357-4.321-3.604-10.411-7.201-10.411-13.682-.39-1.799 0-3.961 0-6.12-2.911.718-6.149.718-8.67-.36-.719 1.078 0 2.52-.33 3.961 0 1.799 0 3.961 1.05 5.399 1.44 1.438 3.24 1.802 4.68 2.88 0 1.078-1.081 2.159-1.44 3.24-2.88-1.081-6.841-3.24-7.56-6.841-.721-3.24 0-6.841 0-10.438-1.8-.721-3.601-2.162-5.401-2.883-2.88.363-5.76 0-8.64 0-.69 0 0-.718-.69-.718-8.67 1.438-18 3.958-27 1.438-5.791-1.799-10.83-4.679-15.87-7.559-.36-.36-1.8-1.441-.719-2.162.359-.357.359-.718.719-.718 8.281-1.081 16.92 0 24.87-.36 7.529 0 14.01-2.52 19.77-7.201 4.68-2.877 7.23-7.919 11.521-11.52-.36-.357-.721 0-.721 0-2.159.721-3.57 2.162-5.76 1.799-3.24.721-6.12 3.24-10.08 2.522-.721-.36-1.081-1.081-1.081-1.802 0-3.24 2.521-5.76 3.961-8.64 11.88-12.958 21.24-27 29.88-41.039-.36-1.802.36-3.601.36-5.042-10.8 11.883-22.68 24.844-36.36 33.123-7.92 4.679-15.841 9.721-23.76 14.039-1.44.721-2.88 2.159-4.32 2.52-4.68 1.078-9.36 0-13.321-1.441-1.08-.718-1.799-1.799-1.799-2.877 0-2.162 1.08-3.604 1.799-5.042 1.44-2.52 3.601-5.039 5.041-7.562 17.281-20.156 31.68-42.838 53.64-59.396.721-.721 1.8-1.441 2.88-2.162 0-.357 0-.357 0-.357-15.12 5.396-29.159 12.598-46.08 12.958-4.32.36-8.64.36-12.959.36-3.601-1.081-7.56-2.162-10.8-5.039-2.52-3.601.36-7.562 1.44-10.802 16.56-6.12 33.48-9.719 48.24-19.799 4.68-3.24 9-6.841 12.959-10.441-.36-.719-1.44-.359-2.159-.359-14.401 0-30.961 3.239-44.281-2.521-3.959-2.159-8.279-4.679-12.24-7.2-2.159-3.599-6.12-6.839-5.76-11.52 1.8-2.88 5.76-2.88 8.64-3.959 1.44 0 2.521.359 3.961 0 11.52-1.441 23.039-3.24 35.279-2.521 4.32 0 7.92.36 12.24.721 0-.36 0-.36 0-.36 0-1.8-.36-3.601-.36-5.401-15.12 0-32.399 2.881-45.719-3.959-3.601-1.8-7.2-3.599-10.8-5.76 0 0-.36.36-.36 0-2.88-1.8-6.479-3.599-8.279-6.839-1.44-4.321 2.52-7.201 5.399-9.721.721-.36 1.08-.36 1.8-.36 12.959.36 27 2.161 39.959.36 4.32-.721 8.281-1.44 12.24-2.52-.36-.36-.719-.36-1.08-.36-12.24-4.32-24.841-8.64-36.36-14.76-10.08-5.76-16.56-15.841-22.32-25.2-.36-3.601-1.08-7.92.75-10.8 2.13-2.52 5.73-.721 7.89-.36 3.961 1.08 7.2 3.24 11.161 4.32.365.367.365.727.724.727 10.44 2.52 20.88 5.399 30.24 9.719 7.2 3.24 14.401 6.841 21.24 10.081.75-.36.75-1.081.75-1.8-.39-1.8-2.19-1.08-3.27-2.161-13.32-7.56-27.36-13.32-39.24-24.48-4.68-4.679-7.92-9.719-11.49-14.76-1.11-.719-1.83-1.799-2.911-2.52-.359-4.32-2.88-9-.719-12.959 2.159-2.521 6.48-1.44 9.36-1.44.719.359 1.08.359 1.799 1.08 8.641 10.08 19.471 16.92 30.24 21.959 7.23 3.24 14.401 6.841 21.601 9.721.36-.36 0-.36-.36-.721-9-10.44-18.36-20.88-21.959-33.839-2.161-5.401-4.68-10.44-6.12-16.2-.36-2.88-.36-6.12 1.8-8.281 2.159-1.44 4.68-3.24 7.2-4.32 2.88-.36 4.32 1.8 6.12 3.601 9.719 8.279 18.719 17.279 26.64 27 3.24 4.32 6.48 8.64 10.44 12.599-1.44-3.599-1.8-8.279-1.08-12.24.719-2.52 1.44-5.039 2.159-7.56 1.081-.719.36-1.799 1.8-2.52.721 0 1.44-.36 2.161 0 .359 1.08-.36 2.161-.36 3.24.719 1.08 0 2.159.36 3.24 3.24 10.8 6.479 21.96 12.959 31.681 2.161 3.599 4.68 7.2 7.2 10.8 1.8-2.161 3.961-4.321 6.12-6.48 1.8-2.88 5.041-5.041 5.401-8.281.359-4.68-.36-9-.721-13.32-.36-.719 0-2.52-1.44-2.52s-2.88 1.8-3.601 0c.721-1.081 2.161-2.161 3.601-2.52 2.88-1.441 5.041 1.08 7.2 2.88.36.359.36.719 0 .719 3.24 3.24 3.601 7.56 3.601 11.88 0 1.44.36 3.24 0 4.68 0 .36 0 .36.36.36 6.839-5.76 13.32-10.8 19.799-17.281 3.24-3.599 5.761-6.839 5.041-11.88.36-1.44 0-2.88-.36-4.32-.33-.719-1.08-.719-1.44-1.08-1.8 0-3.24 2.52-4.32.36.36-1.081 1.8-2.161 2.88-2.881 2.55-1.799 5.041.36 7.2 1.8 1.8 5.401 5.041 10.081 3.961 16.2 0 .36 0 .36.39 0 4.649-3.239 11.13-5.039 13.649-10.799 1.081-2.52 1.802-5.041 3.24-7.201 0-.719 0-1.799-.36-2.52-.721-.36-1.441-.36-1.799-.719.357-.721.721-1.08 1.078-1.44 2.52.719 4.321 2.52 6.123 4.679 2.156 3.24 1.078 7.92-.721 10.8 0 0 0 .36.357.36 10.081-1.08 21.24 1.8 28.802-5.041 3.24-2.88 5.76-6.12 9-8.64 3.24 2.161 1.438 6.48 1.438 9.721-1.438 5.76-7.919 7.56-12.598 9.719.357.721 1.078 1.08 1.799 1.08 8.64 3.24 16.922 6.48 25.922 8.641 1.799 0 3.598 0 5.068-1.08 2.49-2.521 2.851-6.12 3.932-9 2.156-.721 1.799 1.799 2.52 2.88-.363 4.32.357 9.359-3.24 11.88-3.961 2.52-9 2.159-13.321 2.159-.36.36-.36.36-.36.36 3.961 6.12 7.922 12.24 12.961 18 .36-.36 1.078-.721 1.078-1.44 3.604-3.601 8.643-6.48 8.643-11.88.357-1.44 0-2.88-.36-3.959.718-.36.718-.721.718-1.441h1.441c2.162 2.161 2.88 5.041 3.601 7.562 6.12-9 11.88-18.36 15.841-28.441 2.159-5.039 2.159-10.799 2.159-16.2 0-1.44-.36-3.24 1.081-3.959.721 0 1.438-.36 2.159 0 4.679 1.08 10.081 3.601 11.88 8.64 1.078 1.8 1.441 3.24 2.159 4.68-.36 7.92-.36 15.48-2.88 22.32-2.159 5.76-4.682 10.8-7.201 16.2 9.363-10.44 18-21.959 26.643-32.76 7.198-9.719 12.598-20.161 17.279-30.599.721-1.081 2.159-.36 2.88 0 .39.359 1.081 0 1.438.719 1.8 2.522 3.959 5.043 5.758 7.562z" fill="#00001d"/><path d="m75.959 25.919c8.64 7.92 17.64 15.841 24.839 24.841 7.56 9 14.401 18 21.601 27-2.161-1.08-4.68-2.88-7.56-2.88-1.44 0-2.88 1.08-4.32 1.08-3.601-6.12-6.841-12.601-12.93-17.279-3.27-2.88-6.87-5.761-10.11-8.281-1.08.719-1.8 1.8-2.159 2.52 5.76 5.401 13.32 10.44 17.64 17.641 1.44 2.159 2.52 4.679 3.959 6.839-1.44.719-3.599.719-4.68 2.52-.359.721-.359 1.8-.719 2.521 0 1.799-.36 3.599 0 5.399-9.721-11.16-20.52-22.32-25.561-35.64-.721-3.601-3.24-6.48-3.959-10.081-1.411-3.599-2.521-6.839-3.24-10.799.719-3.24 4.32-3.961 6.479-5.76.36 0 .72.359.72.359z" fill="#fff"/><path d="m366.47461 26.638672c-.36.719-.71708 1.077828-1.08008 1.798828-1.798 3.96-3.59748 7.560531-5.39648 11.519531-1.802 2.519-3.24064 5.041875-4.68164 7.921875-2.162 2.88-4.31847 6.12-6.48047 9-3.24 4.319-6.83813 8.638985-10.07813 12.958985-7.922 9.72-15.84404 19.438828-24.12304 28.798828-.358.719-.72083 1.079455-1.04883 1.439451-1.11-.359996-1.82811-.720451-2.91211-1.439451l-.35742-.359375c1.798-3.599 3.59839-7.199781 5.40039-10.800782 1.801-3.96 3.59943-7.560531 5.39843-11.519531.721-2.159 1.79954-4.31914 2.51954-6.11914s1.0814-3.601063 1.4414-5.039063c.36-1.442.72113-3.241015 1.07813-5.041016 0-1.439999.36328-3.24164.36328-4.68164s-.00153-3.239688.35547-4.679688c-.06145-.61966-.09643-.841701-.13672-1.126953.03851.066027.08051.103559.13672.046875-.08109-.163308-.13868-.325131-.19141-.488281-.03616-.204766-.05724-.262312-.06641-.224609-.13405-.48226-.21979-.964414-.46289-1.447266-.358-.719-.71679-1.079781-.71679-1.800781-1.081-1.44-1.80244-2.880313-2.52344-4.320313-.718-.359-1.4363-.718453-2.1543-1.439453-1.442-.36-2.52447-1.079453-3.60547-1.439453-.1782.179193-.28826.268478-.35546.302734v1.857422c-.00001 2.159-.00133 4.321094-.36133 6.121094-.361 1.798-.36071 3.598437-.72071 5.398438-.36 1.439999-1.0805 2.879687-1.4375 4.679687-1.441 2.88-2.51993 5.76025-3.96093 8.28125-2.162 3.959-4.31847 7.557203-6.48047 11.158203-2.52 4.681-5.76063 9.361016-8.64063 14.041016-.361 1.8-1.07978 3.60039-1.80078 5.40039-.358.72-.3577 1.439157-.7207 2.160157-.718 1.798-1.80049 3.598439-2.52149 5.398439-.357.72-1.0775 1.07978-1.4375 1.80078-.36 0-.71707.35937-1.08007.35937h-1.79883c-.721-.359-1.44378-.72007-1.80078-1.08007-1.081.361-2.1603.3607-3.23828.7207h-3.60157c-1.081-.36-1.80048-1.07945-2.52148-1.43945l-.35742.35937c.358 2.519.3577 5.3993.7207 8.2793 0 1.8.00042 3.59944.35742 5.39844v9.36132c-.357 2.161-.72112 3.96077-1.07812 5.75977-.36 1.44-1.08141 3.23969-1.44141 4.67969 1.798 2.161 3.60034 3.95814 5.40234 6.11914 1.078.72 1.79896 1.44078 2.87696 1.80078.364.36 1.07978.35937 1.80078.35937.718 0 1.80348-.35937 2.52148-.35937 1.439-.721 3.23974-1.44111 4.67774-2.16211 3.241-1.801 6.12465-3.95977 9.72265-5.75977.361-.359 1.44183-.35742 1.79883-.35742 1.441.359 2.52294 1.07983 3.96094 1.79883.721.721 1.80153 1.43953 2.51953 2.51953.721.721.72008 1.44116 1.08008 2.16016.721 2.16 1.43915 4.68084 2.16015 6.83984 0 .72.00029 1.43983.36329 1.79883-.721 1.44-1.44111 2.88231-2.16211 4.32031-.36 1.441-.72113 2.87994-1.07813 3.96094 0 1.439-.36328 2.87898-.36328 3.95898 0 .361-.35742.36071-.35742.72071l-.35938.35937c0 2.88.35938 5.76125.35938 8.28125-.36 3.24-.35938 6.11938-.35938 9.35938-.361 1.08-.3607 2.16023-.7207 3.24023-.36.72-.71903 1.43983-1.08203 1.79883-.721.36-1.43883.72241-1.79883 1.44141h-1.79883c-.721 0-1.80181-.00038-2.88281-.35938-1.799-.72-3.95819-1.79986-6.11719-2.88086-1.441-.72-2.88231-1.79853-4.32031-2.51953-.718 0-1.43986-.36133-2.13086-.36133-1.11-.719-2.54986-1.4372-3.63086-2.1582-1.439-1.08-3.23973-1.80086-4.67773-2.88086-1.441-.36-2.88427-1.08045-4.32227-1.43945-.721 0-1.80091-.35938-2.87891-.35938-1.07798.719-2.16223 1.07945-3.24023 1.43945-2.52 1.801-5.39987 3.96077-7.92187 5.75977-1.078 1.081-2.51966 2.52056-3.59766 3.60156h-1.79883c-.364 0-.7207-.3607-.7207-.7207-2.162-1.44-4.32105-2.88031-6.12305-4.32031-1.438-.719-2.52098-1.44116-3.95898-2.16016-.718-.361-1.43853-.3607-2.51953-.7207-.72.36-1.80049.36133-2.52149.36133-1.438.72-2.52098 1.43915-3.95898 2.16015-2.129 1.439-4.32147 2.88069-6.48047 4.67969-.718 2.16-.71708 4.68017-1.08008 7.20117-.358 2.88-.71875 5.76-.71875 9h-.35938-3.24023c-.36-.361.00063-.36265-.35937-.72266.36-2.519.71937-5.03859 1.10937-7.55859 0-2.52.32841-5.04217.69141-7.20117.357-1.8 1.0775-3.96044 1.4375-5.39844.721-1.441 1.08173-2.88031 1.80273-4.32031.718-1.079 1.43825-2.51961 2.15625-3.59961.721-1.079 1.80211-2.16023 2.91211-3.24023 1.769-1.8 3.92952-3.60039 5.72852-5.40039 5.76-3.95901 11.15992-8.27961 16.91992-12.59961 1.439-1.44 3.23973-3.23969 4.67773-4.67969 2.162-2.88 4.68371-5.3993 6.84571-8.2793.718-1.441 1.82853-2.87931 2.51953-4.32031.357-1.079 1.0775-2.51899 1.4375-3.95899.361-1.079.3607-2.51961.7207-3.5996 0-2.52101.36133-4.68118.36133-7.20118-.36-6.839-.72203-14.0379-1.08203-20.878903-.361-.719-.36175-1.079781-.71875-1.800781.718-.359 1.44048-1.439204 2.52148-2.158204.29477.147385.42888.20293.54297.248047 1.01895 1.35736 2.0366 2.712955 3.05273 4.070311.721 0 1.08266.72108 1.47266 1.08008h2.48828s.36133.00158.36133-.35742c-2.85-3.600004-5.7632-7.201783-8.2832-10.800783-1.798-2.881-3.56653-5.399922-5.39453-7.919922-.363-.721-1.08441-1.439156-1.44141-2.160156-1.082-1.079-1.79853-2.51961-2.51953-3.59961-.361-.361-.72266-.360703-.72266-.720703-.36-1.08-.35937-2.159859-.35937-2.880859 0-.36.35937-.35975.35937-.71875h3.24024c1.079.359 2.16148.35875 3.27148.71875 2.851 0 5.37.000625 8.25-.359375 1.078-.719 1.79791-1.799858 2.87891-2.88086-1.081.721002-2.13024 1.082407-3.24024 1.441407-.718.361-1.8009.720703-2.8789.720703-1.441-.361-2.51994-.360703-3.96094-.720703-2.159-.359-3.96119-.720703-6.11719-.720703-6.123-2.161-12.6037-4.678844-18.7207-6.839844-.361 0-.36266-.35875-.72266-.71875-.72-.36-1.07645-.001328-1.43945-.361328-1.049-.361-2.15895-.720078-2.87695-1.080078-1.442.361-2.52447.720078-3.60547 1.080078-.357-.36-.35547 0-.35547 0-.36-1.08-.72203-1.800531-1.08203-2.519532v-.720703c3.241-1.44 6.4807-2.519609 9.7207-3.599609 1.799-.721 3.60106-1.438531 5.03906-2.519531 1.11-.359 2.15986-1.080157 2.88086-2.160157.36-.720998 1.08141-1.440484 1.44141-2.521484v-1.4375c-.721.358-1.08278 1.0785-1.80078 1.4375-1.412 1.441-3.24064 2.881266-4.68164 4.322266-1.081.359-2.16224 1.079828-3.24024 1.798828-1.441.36-2.8784.720406-4.3164 1.441406-1.441 0-2.52294.357422-3.96094.357422-4.682.361-9.3626.362656-13.6836.722656h-6.47851c-1.049 1.8-2.15924 3.238688-3.24024 4.679688h-.7207c-.718-.36-1.44048-1.081407-2.52148-1.441406v-.359376c.363-.719999.72203-1.079781 1.08203-1.800781 1.439-2.159 2.87873-4.679218 4.67773-7.199219.363-1.439999.72099-2.521562 1.08399-3.601562 0-.359.35742-.720078.35742-1.080078-.358-.361-.3577-.720703-.7207-.720703-.721 1.801-1.43721 3.960765-2.15821 5.759765-.718 1.081-1.43915 2.160235-2.16015 3.240235-1.081 1.081-2.16224 2.160234-3.24024 3.240234-2.88 1.801-5.76 3.601016-9 5.041016-.361.36-.3607.359375-.7207.359375-.72.359-1.07953.720078-1.76953 1.080078-.75.36-1.82978 1.081406-2.55078 1.441406-1.079 2.52-2.15766 5.040219-3.59766 7.199219-.721-.361-1.80156-.720078-2.85156-1.080078-.39-1.44 0-.360703 0-.720703.69-1.44 1.41023-3.239063 2.49023-5.039063.72-1.8 1.43953-3.961719 2.51953-5.761719v-3.597656c0-1.079-.35975-2.160234-.71875-3.240234 0 .721-.35937 1.439156-.35937 2.160156-.721 1.44-1.08141 2.159234-1.44141 3.240234-1.079 1.438-1.79828 2.518985-2.48828 3.958985-2.55 2.519-5.06984 5.040547-7.58984 7.560547-5.04 3.959-10.08172 7.919234-14.76172 12.240234-.719.361-1.43921 1.079828-2.15821 1.798828h-2.49023c-.39 0-.75-.35875-.75-.71875-.36-.719-.35937-1.079781-.35937-1.800781v-11.158203c-.36-.721-.71875-1.800485-.71875-2.521485-.36-.359-.72204-.720078-1.08204-1.080078v1.439453c0 1.08.35938 2.520563.35938 3.601563v5.398437c-.36 1.08-.71875 2.16186-.71875 2.88086-1.081 1.439-1.79853 2.520984-2.51953 3.958984v.720703c-1.08.721-1.79986 1.800533-2.88086 2.519531-1.44 1.440001-2.87969 3.239688-4.67969 4.679688-.72 1.08-1.79853 2.521563-2.51953 3.601562-.36 1.079-1.07978 2.15961-1.80078 3.59961-.33 1.080998-.72008 2.519608-1.08008 3.599608-.361 2.88-.7207 5.39955-.7207 7.56055-.359 6.84-.35938 13.68053-.35938 20.51953.359.361.72008.72108 1.08008 1.08008-.72.721-1.07978 1.44311-1.80078 2.16211-.361.721-.72008 1.43915-1.08008 2.16015 0 .719.00063 1.44116-.35937 2.16016.361.721.7207 1.80053.7207 2.51953 1.44 3.6 2.88031 6.84041 4.32031 10.44141.36 0 .35975.35937.71875.35937v3.59961 4.67969c-.359 7.2-.35875 14.03986-.71875 20.88086.36 4.68.35975 8.99969.71875 13.67969 0 3.241.72203 6.47907 1.08203 10.08007.719 2.519 1.07983 5.04055 1.79883 7.56055 1.081 2.519 1.79891 5.04055 2.87891 7.56055 1.471 2.519 2.52156 5.03859 3.60156 7.55859v.00391h.00195c.36035.7187.71978 1.43655 1.07813 2.15625l4.32031 8.64062c0-3.6-.00037-7.20178-.35937-10.80078h-.00782v-1.07617-10.43945-11.16211c.359-2.88.35875-5.76.71875-9 2.521-17.64 8.99939-33.48007 14.40039-50.03907.719-1.441 2.15828.35938 3.23829.35938 1.081 0-.0003 1.07945.7207 1.43945-1.08 10.081-1.80053 20.16024-2.51953 30.24024-1.081 14.759-3.59963 31.31837.35937 45.35937h.35938c.361-12.961.72211-26.2799 2.16211-38.8789.719-11.161 3.59876-21.6004 5.75976-32.40039-1.079-.359-2.16023-1.08008-3.24023-1.08008-1.08-1.8-2.13056-3.60139-3.60156-5.40039 0 0-.35901-.36071 0-.72071 1.46999-1.08 2.88226-2.16056 4.32226-3.60156 1.08-1.799 2.87928-3.95819 3.23828-6.11719 1.081-5.401-1.08-10.80079 0-15.84179.36-5.399 1.08031-10.8011 4.32031-15.1211.72-2.159.00008-5.038216 1.08008-7.199216 1.44-6.121 7.56024-9.000563 12.24024-12.601563 1.079 0 2.15953-.7185 3.26953-1.4375 2.851-1.081 5.01-2.881234 8.25-3.240234 1.441 1.079 3.24006 1.07875 5.03906.71875 3.961 0 7.20233 1.801017 9.36133 5.041015 0 .000001.35937.000625.35937-.359374 2.519 2.879998 6.1211 5.398375 6.1211 9.359374.361 5.039001 1.80078 9.361388 1.80078 14.400388-1.802 10.081-8.99958 18.72022-17.64258 25.19922-1.799 1.8-3.96119 2.16024-6.11719 3.24024-3.604 1.44-6.84398 3.60076-10.08398 5.75976-5.038 5.04-6.47705 11.16155-8.99805 16.56055-1.44 4.321-6.0907 7.55908-9.7207 10.08008-2.879 14.399-3.23999 29.88-3.95899 45 .72-2.521.72008-5.04018 1.08008-7.20117.36-.359.36133-.71876.36133-.71876 1.079.36 2.51766-.00024 3.59766.71876-.719 4.32099-1.79921 8.28123-2.15821 12.24023-.721 3.24.35883 5.75892 1.79883 7.91992.00846.00073.01693.00122.02539.00195h-.01758c.36 1.439 1.44079 2.87799 1.80079 3.95899 1.8 1.802 3.96014 2.87994 6.11914 3.96094l.35937.35937c-.72 1.078-1.07783 2.15986-1.79883 2.88086-1.44-.72-2.88031-1.80244-4.32031-2.52344-3.6-1.799-5.03914-5.03772-6.11914-8.63672h-1.44141v5.04102l-.35937.35742c-1.439 0-2.87899.36133-3.95899.36133-.72-1.802-1.07978-3.59877-1.80078-5.75977h-.00976c.00326-.00058.0065-.00137.00976-.00195-1.08-3.96-2.1579-8.27961-2.8789-12.59961-1.439-18.359 1.43953-36.35937 2.51953-54.35937-5.039 14.76-10.43945 29.51945-10.43945 46.43945v20.51953c.00192.00082.00393.00114.00585.00195h-.00585c.36099 6.118.7207 11.877.7207 18v.35743c-1.44 0-2.88031.36-4.32031 0-3.23972-6.11647-6.12025-12.23896-9-18.35743-1.081-2.161-2.16024-3.96009-3.24024-6.12109-5.4-11.88-6.48047-25.91866-6.48047-39.59766.36-9.361.35938-18.36265.35938-27.72265-1.44-6.841-8.63861-14.03961-3.59961-21.59961.72-6.479-.00063-12.59875.35937-18.71875.36-6.48.72024-12.601 3.24024-18.000001-.361-.36-.72071-.722406-.72071-1.441407-2.88-4.680999-5.76062-9.361015-8.64062-14.041015-5.039-8.279-7.92078-17.277344-10.80078-26.277344-.359 1.44-.71742 3.598438-.35742 5.398438 1.44 7.199 5.39867 13.318828 8.63867 19.798828 0 0 .36.361328 0 .361328-.721.719-1.79891 1.079453-2.87891 1.439453-.36 0-.36078-.720078-1.05078-1.080078-.39.36-.39-.359375-.75-.359375-.72.359-1.07978 1.439203-1.80078 2.158203-1.8-.72-3.23969-1.800531-4.67969-2.519531-2.159-1.44-3.95814-.000625-6.11914.359375-.719 0-.35875.720078-.71875 1.080078-1.44.361-3.23969.361078-4.67969 1.080078-.721.721-1.08165 1.800531-.72265 2.519531 1.081-.358 1.79986-1.4375 2.88086-1.4375 3.96-.36 6.11962 3.599141 8.64062 6.119141l.35938.359375c-1.081 1.08-1.79828 2.162109-3.23828 2.162109-1.44-1.801-2.88002-4.322015-5.04102-5.041015-2.13 1.079-3.60102 2.879687-5.04102 4.679687 2.521 1.44 4.67885 3.239438 6.83985 5.398438-1.08.721-1.79891 2.161484-2.87891 2.521484-2.16-1.801-3.96047-3.961016-6.48047-5.041016-1.799994 1.8-3.239981 4.319472-3.958981 6.480466h2.158203c.36.719.361328 2.15766.361328 3.59766-2.88.721-6.120297.36211-8.279297 2.16211-.36 3.24 1.079828 6.11937 1.798828 9.35937-.719 1.079-3.599859.00116-2.880859 2.16016 2.161 1.44 4.321094 1.43953 6.121094 2.51953 0 1.442-.72008 2.52156-1.080078 3.60156.359999 1.08.000296 2.51861-.720704 3.59961-2.159-.36-3.598765-1.43907-5.759765-1.08007-1.079-.00002-1.801157 1.07982-2.160157 1.79882 2.159.361 5.039547.36266 7.560547.72266.359 0 .359375-.00158.359375.35742v2.88086l-.359375.35938c-1.801 0-3.241015-.35938-5.041015-.35938s-3.958438-.72062-5.398438.35938c-.721 1.44-.362656 3.60234-.722656 5.40234.721 1.08-.718375 2.15828-.359375 3.23828 1.801-1.438 3.241016-2.88061 5.041016-3.59961.75.719 1.079781 2.16186 1.800781 2.88086-2.16 2.52-7.199469 3.24022-6.480469 7.19922 1.439 3.601 4.319469 6.84203 6.480469 10.08203 1.44-1.081 2.878359-2.16023 4.318359-3.24023h.361328c.719 1.08 1.439829 1.7979 1.798829 2.8789-2.52 2.159-5.400626 4.31947-8.640626 6.48047-5.038999 3.599-1.439749 10.07844-.71875 14.39844.359.36.358752-.36.71875 0 .721002.36 1.800485 1.08015 2.521485 2.16016-1.41 1.80099-3.239688 3.60101-4.679688 5.04101-5.401 6.481-14.401234 2.87953-21.240234 2.51953-.361-.359-.720703-.35875-.720703-.71875 0-.721-.000297-2.16186.720703-2.88086 6.509 0 15.120781 4.31947 19.800781-2.51953-.36-1.441-.722406-2.88031-1.441406-4.32031-4.68 0-9.359688-.71875-13.679688-.71875-11.159998-.721-21.239687.3582-31.679687 2.1582-3.961 1.081-8.640859-.00084-11.880859 2.16016 1.079 2.52 3.24164 4.68117 4.68164 7.20117 5.76 3.601 11.158672 7.56 17.638672 9 13.68 2.161 27.361313.00063 41.070313-.35937 0 .36.000078 0 .330078 0-1.08-1.8-2.159532-3.23907-2.519531-5.03907-2.52-5.401 2.189437-9.36156 5.398437-12.60156.721.721 1.800484 1.43916 2.521484 2.16016v.36132c-1.8 1.798-3.599687 3.59844-4.679687 5.39844-1.05 3.241 1.438906 5.76063 2.878906 8.64063 1.8 1.8 1.079453 4.31751 1.439453 6.47851 0 4.32 5.041871 6.12092 7.921879 7.91992-.36 1.081-1.08241 2.15991-1.44141 2.87891-.721.721-1.439156-.71742-2.160156-.35742 1.44 1.8 3.600766 3.59766 5.759766 3.59766 3.24-1.44002 5.40125-5.03822 8.28125-7.19922.719 0 .71845 1.44007 1.43945 1.08007 1.829 1.441 3.24024 3.59913 3.24024 6.11915 0 1.8-1.08016 2.87993-2.16016 3.96093v.36133c2.519-.721 5.39789-.36086 6.83789-2.88086-.359-3.961-1.7979-7.19983-2.8789-10.79883 1.081-.36 2.5196-1.08203 3.5996-1.08203 1.08 3.6 2.52086 7.55986 2.88086 11.88086 0 1.799-1.44023 3.96069-3.24023 4.67969-4.68 2.161-10.44084 2.15991-15.83984 2.87891-.72-1.07901-1.43883-2.15924-1.79883-3.24024 2.88-1.798 6.11867-2.87844 8.63867-5.39844.721-.72-.35975-1.80053-.71875-2.51953-2.161 2.159-4.31884 4.31844-6.83984 5.39844-3.599 1.801-6.479004-1.44023-9.000004-3.24023-1.8 1.441-3.241391 3.24126-5.400391 4.32226-3.601 3.239-8.638359 3.95906-13.318359 5.03906-.36-1.079-.361329-2.15923-.361328-3.24023.361-1.08 1.802484-.72008 2.521484-1.08008 5.76 0 9.720687-3.95955 13.679687-7.56055-1.44-1.079 1.079455-1.80023 1.439453-3.24023-2.879999-1.799-4.319687-5.0393-4.679687-8.2793h-.359375c-2.161 2.159-4.680547 4.31947-7.560547 6.48047-10.44 9.359-22.320922 14.39875-34.919922 18.71875-6.48 2.521-13.318828 4.31789-19.798828 6.83789-.361.36-.361078 1.44111-1.080078 2.16211 0 1.078-1.051328 2.51966-.361328 3.59766 2.16 2.163 5.039922 2.52056 7.919922 3.60156 3.959.361 8.279609.00063 12.599609-.35937 19.078817-.71992 35.277914-8.99935 51.835938-15.8379.001894-.00078.003965-.00117.005859-.00195 1.078221-.36073 2.158065-.71838 3.238285-1.07812.359.361.72007.72007 1.08007 1.08007.36.719.71846 1.08141 1.43946 1.44141v.35938c-4.319 3.961-8.638987 7.5572-12.958987 11.1582-17.641 13.678-30.599922 31.32123-43.919922 48.24023-2.519 3.24-5.039922 6.47938-7.919922 9.35938-1.8 3.6-4.67914 6.48012-6.11914 10.07812.36 0 .359375.36328.359375.36328 2.88.717 5.76 1.0775 9 1.4375 11.161-6.48 22.321094-12.5992 33.121094-20.1582.718082-.35954 1.077713-.72053 1.796874-1.08008h.00586c16.919-11.88 29.521168-29.88 43.201168-45 0-.361.35938-.35979.35938-.71679-3.961-1.802-7.56078-5.04383-10.80078-7.92383.72-.721 1.44148-1.79853 2.52148-2.51953 2.88 2.519 5.76 5.03917 9 7.20117.72.358 1.79883.35772 2.54883-.36328 2.37519-3.4321 3.48264-7.19482 5.14063-10.97071.56653-.02012 1.13346-.03606 1.69921-.05859.69297.24587 1.35039.53201 1.76953.95117-1.081 2.52-1.79828 5.40155-3.23828 7.56055 0 .361-.36.3607 0 .7207 1.439 0 2.87899.3603 3.95899-.7207 1.081-2.519-.00063-5.3993.35937-8.2793 1.079-.719 2.51924 0 3.24024 0 .719 1.081.35937 2.16224.35937 3.24024.359 2.52.3593 4.68084-.7207 6.83984-1.8 3.238-6.11938 2.15953-9.35938 2.51953-.359.36-.72007 1.08203-1.08007 1.08203-5.041 6.117-10.07977 11.51972-14.75977 17.63672.361 1.802 1.44008 2.88264 1.08008 4.68164s-1.0807 2.87964-.7207 4.68164c2.88-1.442 5.76-2.88161 9-3.59961.359-2.159 1.07982-3.96209 1.79882-6.12109 2.881-8.642 11.88233-13.32038 18.36133-18.35938 1.111 0 2.87861-.36162 3.59961.35938 0 2.159-2.16016 3.59777-2.16015 5.75977-3.241 5.039-7.20063 9.72209-8.64063 15.12109 1.44-1.439 3.24102-3.24169 5.04102-4.67969 2.519-1.802 4.32029-6.12264 8.27929-4.68164 0 .36.36071.72113.72071 1.07813.359 1.441-.72071 2.52131-.72071 4.32031-1.079 6.12-5.00837 11.15917-9.35937 16.20117 0 1.438.72008 2.88127 1.08008 4.32227 1.079 3.238.35984 6.83772-2.16016 8.63671 1.07887.36264 1.79932.71851 2.51758 1.07813.00075.00038.0012.00158.00195.00195.00047.00027.00148-.00026.00195 0 2.51904 1.43872 4.31668 4.32059 6.47461 6.47852 2.8789-2.51804 5.75761-4.32061 8.9961-6.47852h.00781c1.08-.718 1.80086-1.43778 2.88086-1.80078-.36-3.598-.72041-6.83812-1.44141-10.07812-1.079-5.039-4.31789-9.00036-6.83789-13.31836 0-1.441-1.44-2.88294 0-3.96094 1.439-.36 2.87899.72112 3.95899 1.07812 5.4 1.44102 8.6389 7.20111 11.8789 11.16211 2.88-3.961-.7182-8.64356-2.1582-12.60156 0-1.081-.72203-2.87931-1.08203-4.32031 0-.357.00133-.35742.36133-.35742 1.8 0 3.23968 1.07853 4.67968 2.51953 4.68 5.759 6.48 12.9595 9 19.4375.36.361.35975 1.0807.71875.7207 2.521 2.159 4.32147 4.3218 6.48047 6.8418 1.07959 1.43846 1.43918 2.87669 1.43946 4.67773h-.00196c0 2.519-1.0782 5.04127-2.1582 7.19727-1.081 1.441-2.16156 2.88294-3.60156 3.96094-3.96 1.441-8.27791 2.16193-11.87891 3.96093-1.08 0-.36 1.07841 0 1.44141 3.96 1.438 8.28056 2.87736 12.60156 4.31836 0 0 .35743.36.35743 0-.35901-2.159-1.44008-4.31817-1.08008-7.20117-.361-2.159 2.51923-2.52069 3.24023-4.67969 1.8-1.802 4.31984-1.8012 6.83985-2.1582 3.23842-.36083 1.44119-4.31772 1.43945-6.83789h.00195c0-.361-.00062-.36175.35938-.71875l.36132-.36329c-.361-1.43799-.72107-3.24006-1.08007-5.03906-1.081-6.481-6.84178-10.79889-10.80079-15.83789.71901-1.081-1.05-1.80048 0-2.52148 1.439-.36 2.51899.7207 3.95899.7207 5.401 2.159 10.80134 5.04303 14.40234 10.08203-.36-5.76-1.41234-11.51917-5.40234-16.20117 0-.721-1.08008-1.44348-1.08008-2.52148 0-.721 1.07978-.72071 1.80078-.72071 2.88 1.081 5.7593 2.51936 8.2793 4.31836 7.201 5.762 9.36036 14.04224 13.31836 21.24024h.36133c1.07743 2.52167 2.51984 5.03991 3.59765 7.55859.00048.00142.00148.00249.00196.00391.72005 2.15711 1.07851 3.95626.71875 6.47461-1.442 2.159-2.15953 5.03992-2.51954 7.91992 0 1.799 1.44021 2.52056 2.15821 3.60156-.36 1.082-1.4372 1.80153-2.15821 2.51953-1.799-1.799-4.68309.72117-6.12109-1.79883-.721-1.439-.36-3.24168 0-4.67968h-.35937c-3.24 1.439-7.20075-.00041-9.71875-1.44141-1.081 1.442-2.16149 2.88159-2.52149 4.68359 1.081 1.439 2.87994 2.15653 3.96094 2.51953 7.919 2.877 16.20077 3.9576 23.75976 7.5586 6.838 3.6 10.8001 11.5193 15.1211 17.2793 2.16-3.96101 2.15953-9.00069 2.51953-13.67969 0 0 .00063-.35938-.35937-.35938-2.15901-.72-4.31847-1.79923-6.48047-3.24023.721-3.241 3.60093-5.7597 3.96093-9.7207-1.078-1.44101-2.88036-2.15924-4.31836-3.24024-1.082-3.961-2.16251-7.91986-3.60351-11.88086-.718-1.082-1.07783-1.79853-1.79883-2.51953h-.00586c-3.23986-3.59796-7.91503-5.03756-12.23437-7.55859-.358-.357-1.44066-.35713-.72266-1.07813-2.156-4.682-4.31652-9.36006-6.47852-14.03906-2.519-6.481-.35821-14.03974 1.80079-19.80274 1.11.72 2.52223.36041 3.24023 1.44141-.718 2.159-1.43791 4.3218-2.12891 6.8418-2.192 9 3.56622 15.83776 6.44922 23.75976 3.241 1.438 6.83966 2.87707 9.72266 5.03907 2.156 1.441 3.59806 3.23943 5.03906 5.39843 1.799 3.601 2.51994 7.91791 3.96094 11.87891 1.438 1.081 3.5954 2.16236 4.3164 4.31836 1.07801 3.604-1.07628 6.4807-2.48828 9.7207l.32813.36328c1.801.357 3.60139 1.7975 5.40039 1.4375 1.078 1.081 1.07916-1.0807 2.16016-.7207 0-.361-.36133-.7168-.36133-.7168.721-1.801.72265-3.60334 1.47265-5.40234.691-.36.00013-1.44216.32813-2.16016-.717-1.801-3.24036-2.52131-4.31836-4.32031.721-.721 1.44153-2.15953 2.51953-2.51953 2.882 1.799 6.12034 4.68067 5.40234 8.63867 1.798 2.159 3.24036 3.9621 5.06836 6.1211 0-1.799-.39062-3.59807-.39062-5.03907 1.081-.361 2.15923-.7207 3.24023-.7207 2.52 1.081 5.39797 1.79791 7.91797 2.87891.361 0 .7207.36.7207 0-1.799-2.159-3.96014-3.95715-6.11914-6.11914-.36 0-.35937-.35771-.35937-.72071 1.442-.721 1.44183-2.52098 1.79883-3.95898 1.08085-5.04131-.72078-8.99853-2.51953-12.95899h-.00391c-.721-1.438-1.43883-3.24006-1.79883-5.03906v-.7207c1.078-.36 2.15791-.72008 2.87891-1.08008 1.081 2.162 2.15986 4.68084 2.88086 6.83984h.0039c.35983 1.07994.75032 1.80155 1.07813 2.87891.72-1.078 1.0844-1.79986 1.44141-2.88086h-.00391c.35921-.71801.35973-1.80011 0-2.51758-1.079-5.042-4.68159-8.63831-7.55859-13.32031v-.35742c1.078-.721 1.79895-1.44274 2.87695-1.80274 2.913 3.961 5.4035 7.56286 7.5625 11.88086 1.081 1.799 1.0807 3.96014.7207 6.11914h.00391c-.36156 2.8792-2.16088 5.39708-3.60156 7.5586 0 0-.35701.35742 0 .35742 3.24 2.162 7.56003 3.6018 10.08203 6.8418.36.721.00029 2.1579-.72071 2.8789-2.52 1.081-6.12062.36133-8.64062.36133-.36 0-.35938.35937-.35938.35937 2.159 2.159 4.67652 3.96015 6.47852 6.11915.39 1.081.39062 2.15923-.35938 3.24023-2.162 1.439-5.03917-.35938-7.20117-.35938 5.039 5.03901 11.16217 10.7989 16.95117 15.8379 8.25 7.922 17.61013 12.961 27.32813 18 0 0 .36328-.00043.36328-.35743-.363-1.081-.69203-2.51993-1.08203-3.96093-1.438-6.838-6.4792-12.24-11.1582-18-.721-1.441-3.23982-1.79894-2.88282-3.96094 1.081-.358 1.80182-1.79883 2.88282-1.79883 2.877 3.601 6.48012 5.76063 10.07812 8.64063 4.321 2.879 8.27906 6.47851 14.03906 6.47851 3.603-.36 7.20141-1.0802 10.44141-2.1582-10.078-6.841-21.24064-11.16217-31.68164-16.20117 0-1.078.71845-2.15924 1.43945-3.24024 6.841 3.241 13.31811 6.4807 20.16211 9.7207 6.117 2.88 12.24092 5.40016 16.91992 11.16016 1.082 1.081 1.79853 2.52224 2.51953 3.24024-.36-6.12-4.679-10.4391-9-15.1211-.721-1.078 1.08008-1.0772 1.08008-2.1582-14.402-6.84-28.07909-16.19847-42.12109-24.48047 1.441 1.081 2.52028 2.51994 3.23828 3.96094-1.078.718-1.79895 1.43915-2.87695 2.16015-.363-.36-1.07946-1.44215-1.43946-2.16015-2.519-3.241-6.83812-2.87874-10.07812-4.67774.357-1.084.35712-2.16223 1.07812-3.24023 2.88.718 5.75868 1.79895 8.63868 2.87695-4.322-2.52-8.63861-5.39992-12.59961-7.91992h-.00586c-1.4377-.71735-2.87597-1.43756-3.95899-2.51758.721-1.081.72111-2.52086 2.16211-2.88086 2.88 1.798 5.76063 3.59839 8.64063 5.40039h.0039c12.958 7.919 25.91791 15.84077 38.87891 23.75977 8.64 4.679 17.27912 11.88 28.07812 9 1.801-.718 3.60335-1.43853 5.40235-2.51953-1.078-1.439-2.48994-2.16057-3.96094-3.60156-2.88.72099-5.40062 1.44007-8.64062 1.08007-4.322-2.159-8.63861-3.96014-12.59961-6.11914-10.07758-5.03879-18.72053-12.96003-26.2793-21.59961h-.00195c-6.12-6.48-12.24-13.68015-18-20.16015-2.88 5.76-8.99977 8.64086-14.00977 11.88086-.75-.36-1.47112-.7195-1.82812-1.4375-.721-2.883-1.08474-5.76454-1.80274-8.64453-3.24-9.35801-9.72047-17.2796-15.48047-25.5586-.36 3.598 1.80263 7.91883-.35937 10.79883-2.88 1.799-5.3993 4.68309-8.2793 6.12109-5.039 2.52-8.64086-2.88109-11.88086-6.12109-.36-3.241.00063-6.4807-.35937-9.7207-.36-3.961-3.96047-6.48043-6.48047-9.35743.721-.721 1.47248-1.8021 2.52148-2.1621 1.801 1.79899 3.59839 3.60076 5.40039 5.75976 2.877 3.601 2.55078 9.00006 2.55078 14.03906 1.049.72 1.76729 1.80244 2.48828 2.52344 1.07801 1.081 2.15894 2.51983 3.96094 1.79883 2.549-1.081 4.67922-3.60139 7.19922-5.40039.72-3.241-.71875-6.4807-.71875-9.7207-.363 0-.00028-.35547-.36328-.35547-.357.718-1.4363 1.79882-2.1543 1.79882-1.413.72-2.52447-.00165-3.60547-.72265-2.876-5.039-3.59553-10.7976-5.39453-16.5586h-.02734c.00586-.00068.01172-.00126.01758-.00195v-.35937-1.08008c1.078-.361 2.15861-.7207 3.59961-.7207 0 .721.35937 1.44115.35937 2.16015.00338.00214.00639.00373.00977.00586 1.0807 4.318 2.15831 8.99818 3.6289 12.95508 0 .361.00013.7207.32813.7207 1.084-1.081 1.80048-2.16056 2.52148-3.60156 0-1.078-.35937-2.15924-.35937-3.24023 0-.35801 1.07812.00029 1.07812-.72071-1.07773-1.79855-1.7994-3.95672-2.87695-6.11719h-.01758c.00261-.00058.00521-.00137.00781-.00195-1.442-3.601-2.88264-7.19945-4.68164-10.43945v-1.08008c1.078-.36 2.16224-.72008 3.24024-1.08008h.35937c1.802 4.32 3.60107 8.64061 5.03907 12.59961h.36132c.00345.00006.00633-.00006.00977 0 2.52 6.118 5.03767 12.24267 8.63867 17.63867 1.081 1.441 3.24097.72008 5.04297 1.08008.721-1.082 1.79853-1.79853 2.51953-2.51953.357-2.519-1.79853-3.95714-2.51953-6.11914 0-.36.72111-.36013 1.07813-1.07813-1.76901-2.519-2.88036-5.75995-4.31836-9.00195-.00391-.00021-.00782.00021-.01172 0v-.00195c-.00126-.36037-.36133-.71875-.36133-1.07813 0-.36-.357-.72007 0-1.08007.721-.359 1.80016-.35908 2.91015-1.08008.69102 1.079 1.04911 2.16023 1.41211 3.24023h.01172c1.078 2.161 1.79896 4.32042 2.87696 6.48242 2.162 3.958 6.12403 6.11689 10.08203 6.83789 0-1.442-.36266-2.16056-.72266-3.60156-.36-.36-.7165-.71708-1.4375-1.08008-1.442-2.877-2.52056-5.76067-3.60156-8.63867-.00318-.0001-.00658.0001-.00977 0-1.439-2.88-2.52356-6.12-3.60156-9 .36-.72 1.07841-.36108 1.44141-1.08008-2.882-4.322-3.60035-9.72076-5.40235-14.75976 1.081-.361 2.52057-1.08266 3.60157-.72266 1.801 4.32 2.52143 9.72264 5.39843 13.68164 2.162 1.08 4.6828-.00133 6.8418-.36133.721 1.08 1.1107 2.52157.7207 3.60157-1.438.359-3.24097.71875-5.04297.71875-1.078.36-1.79895 0-2.87695 0 1.799 2.879 3.24169 5.39992 4.67969 7.91992h.02148c-.00392.00042-.00779.00154-.01172.00195 1.439 2.521 3.24169 5.04217 4.67969 7.20117 0 .36.36328.35938.36328.35938.718-2.162.71617-4.31847 1.07617-6.48047-.35999-.361-.71917-.72008-1.07617-1.08008-.0052-.00256-.01042-.00332-.01562-.00586-.00677-.00675-.35742-.35926-.35742-.71484.721-.721 1.44153-1.80049 2.51953-2.52149.363.361.72008.72108 1.08008 1.08008.361.72 1.43973 1.08178 1.80273 1.80078.358 0 .36585.28288.7207.35938.00326.0007.00651.00125.00977.00195h.00195c3.23975 3.24067 6.83491 6.48221 10.43555 9.00195.39 0 1.08203.35772 1.08203-.36328v-8.63867h-.09375c.02794-.00008.05605-.00195.08398-.00195-.363-2.16-.3634-4.31947-.6914-6.48047 0-.359-1.10938-1.07945-1.10938-1.43945.72-1.08 1.43749-1.79853 2.52149-2.51954 1.078.36001 1.43825 1.80079 2.15625 1.80079 1.442 2.519 3.23976 5.03789 5.75976 6.83789 1.084 1.081 2.16224 1.44078 3.24024 1.80078h6.12304c2.159-1.44 5.75949-2.51977 5.39649-5.75977-1.078-3.601-2.51936-6.8424-4.31836-10.4414v-.35938c1.081-.721 2.16223-1.43945 3.24023-1.43945.721 1.8 1.79853 3.59844 2.51954 5.39844h.36132c1.11-1.44 3.24024-2.52032 3.24024-4.32032-2.13-3.24-5.39992-5.39929-7.91992-8.27929-.36 0-.35938-.36071-.35938-.72071 1.081-.719 1.08083-1.7979 1.79883-2.8789 4.351 1.081 8.63861 2.51728 13.34961 3.23828 2.49.36 5.73029 1.44054 7.5293-1.43946l-.35547-.35937c-1.441 0-2.88294.00025-3.96094-.71875-2.52-.721-3.60289-3.24134-3.96289-5.40234-.36-.719-1.07646-1.43921-1.43946-2.15821 1.44102-1.08 2.88294-2.52093 3.96094-3.96093-1.078-.719-2.15923-1.79946-3.24023-1.43946-1.078 0-1.44216-1.0814-2.16016-1.4414-.36-2.88 3.24169-2.51836 4.67969-4.31836-.72-1.44-2.15923-2.16057-3.24024-3.60157v-.71875c2.88302-4.68 6.84102-8.63868 9-13.67968.72002-3.96-3.95776-5.76094-5.75976-7.91992.364-1.081 1.44273-1.79986 1.80273-2.88086 0-.359-.00132-.35938-.36132-.35938-3.6-.72-8.27746 2.51959-10.43946-1.44141 2.883-3.599 6.48058-6.4785 8.64258-10.4375.358-1.442-.69141-2.1599-1.44141-2.8789-.36.72-.35937 1.43853-.35937 2.51953 0 .36-.00075 1.43945-.71875 1.43945-1.084-.361-2.52223.0003-3.24024-.7207.718-4.32 1.79913-9.00031 1.07813-13.32031 0-1.44-1.44091-2.51924-2.87891-3.24024-5.042-1.44-10.08209-2.1579-15.12109-2.8789-.36 0-.35937-.00133-.35937-.36133 0-1.08-.0003-2.15828.7207-3.23828 1.081 0 2.51903.71937 3.95703.35937-.328-1.079-.71783-2.51961-1.79883-3.59961-3.961-.72-7.91853.72008-11.51953 1.08008-.721-.36-.3607-1.07978-.7207-1.80078-.357 0-1.0775.36-1.4375 0-.36-2.519-.36103-5.39892-1.08203-7.91992 0-.359-.35771-1.07875-.72071-.71875-5.399 1.8-10.43819 5.03992-15.11719 7.91992-.72099-.721-1.4411-1.79891-2.1621-2.87891 2.88-1.8 5.75957-3.60234 8.64257-5.40234 3.237-1.44 6.47846-4.319284 10.43946-3.23828 3.237 2.159 2.87931 6.47875 3.23633 9.71875-.00001 0 .00028.36133.36328.36133 3.24-.361 7.19782-1.44166 10.79882-.72266 3.24.721 3.96107 4.68117 5.03907 7.20117 0 .361-.72041.36072-.35743.7207 3.59801 1.08 8.27954 1.08057 11.51954 3.60157 2.877 2.879 2.16078 6.8385 2.55078 10.4375 1.048 1.441 2.8484 2.88031 3.5664 4.32031 2.162 4.679-2.15573 7.91853-4.67773 11.51953 2.523.36 5.39884-.71959 6.83984 1.44141 7.919-7.2 15.83777-13.68053 23.75977-20.51953 3.598-3.6 7.20112-6.84178 10.07812-10.80079-1.078 0-2.51903.72108-3.95703 1.08008-10.802 3.96-21.96209 8.28157-33.12109 12.60157-1.441.719-1.44111-1.80086-2.16211-2.88086 12.604-13.68 25.92273-26.64069 37.80273-40.679691 0 0 .00063-.359375-.35937-.359375-1.078.72-2.51994 1.077828-3.96094 1.798828-14.396 7.56-28.43847 16.559518-42.48047 24.478518-1.078.721-1.79895 1.80211-2.87695 2.16211-.721-.72-1.80153-1.44111-2.51953-2.16211 11.156-12.96 24.11676-24.839534 32.75976-38.519534 2.52-4.68 4.6786-10.079765 7.5586-14.759765 1.078-3.96 2.87993-7.560532 3.96094-11.519532 1.07798-3.601 2.8762-7.201859 2.1582-11.880859-.361-1.081-.72071-2.160234-.7207-3.240234-1.08201-1.081-1.79854-2.15961-2.51954-3.59961-.36-1.079-2.13023-2.518984-3.24023-3.958984zm-49.67773 11.820312v-.302734s-.20124.404125 0 .302734zm-137.15821 186.900396c0 .721.00063 1.44115-.35937 2.16015h1.43945c-.361-.72-.72008-1.43916-1.08008-2.16015zm129.24024.71874c-.357 4.319 1.79754 10.0796-1.43946 13.6836-1.081.717-3.23931.71547-4.32031.35547 10.081 9.361 20.16194 19.80078 30.96094 28.80078s22.68128 14.76045 35.2793 19.43945c.35999 0 .72007.36 1.08007 0-.361-2.159-.71978-5.03917-1.80078-7.20117-4.318-2.156-7.91895-5.75734-11.87695-8.27734-8.642-6.48-14.04241-15.83747-19.44141-24.48047-7.201-3.598-13.68303-11.15992-19.08203-16.91992-3.958-.36-7.19637-2.5204-9.35937-5.4004zm8.27929 1.44141c.363.36.72008.36133 1.08008.36133 1.081.359 2.88056-.00158 4.35156.35742 0-.359.32841-.35875.69141-.71875z" fill="#fff"/><path d="m39.239 56.159c8.281 9.36 18 16.56 28.8 21.24 9.721 4.68 20.161 9 30.24 14.041-2.52 2.52-3.959 6.12-5.399 9.36.719.359.359.359-.36.719-1.8.36-4.32 1.08-4.68 3.599 0 .36-.36.721-.721.36-10.44-5.399-20.88-10.799-30.959-17.64-8.279-5.039-13.68-13.68-19.08-20.88-.721-.721-1.08-1.8-2.161-2.159-.33-2.881-1.8-5.761-1.08-8.641 1.801-.358 3.601-.358 5.4.001z" fill="#fff"/><path d="m259.2 75.599c2.159 2.88 4.321 5.76 6.478 8.64v.721c-1.078.36-2.156 1.08-2.877 1.44-3.601-4.32-5.76-10.44-11.52-12.959-2.883-.721-5.76-1.081-8.279-2.161 0-1.08.357-2.52.718-3.599 5.759 1.798 11.879 2.519 15.48 7.918z"/><path d="m311.761 81.719c-1.441 5.76-5.042 10.44-7.922 15.48-.721-.36-1.799-1.081-2.52-1.8-.36 0 0 0 0-.36 2.159-4.68 5.76-8.64 6.838-13.68-.357-.719-1.078-1.08-1.438-1.799.36-1.081 1.081-1.8 2.159-2.521 1.799.721 3.241 2.521 2.883 4.68z"/><path d="m93.239 96.479c-.359 1.081-1.08 1.8-1.799 2.521-6.841-3.961-13.321-9-19.8-13.32 0-1.081 1.08-2.161 1.8-2.88 6.479 4.319 13.679 8.64 19.799 13.679z"/><path d="m214.589 84.239c3.211-.359 7.172-1.08 9.328 1.8 1.084 3.24 4.682 2.88 5.76 5.761 2.162 3.239 1.802 7.559 2.522 11.159.39 2.52 1.081 5.399 0 7.92-2.88 7.2-7.562 14.399-14.399 19.44-7.922 4.32-16.92 6.839-21.961 15.48-2.52 4.318-4.32 8.64-6.12 13.318-.719 1.8-2.52 3.24-4.32 4.682 0-.36 0 0 0-.36.719-3.24 1.44-6.841 2.19-10.081 3.93-8.64 9.33-16.919 7.89-27.359 0-10.081-4.68-19.8-1.44-29.521 2.161-3.959 6.48-6.479 10.44-9 2.88-1.44 5.76-3.24 8.64-4.32.72.362 1.081.362 1.47 1.081z" fill="#37a7da"/><path d="m291.959 86.76c-.721 5.399-2.88 10.08-5.042 14.399-1.438-.719-2.877-2.159-3.958-3.599-.36-.36-.721-.721-1.081-1.081.721 0 1.081-1.44 1.799-1.08 2.912-2.88 6.123-5.399 7.922-8.64.36.001.36.001.36.001z" fill="#fff"/><path d="m338.398 88.919c-2.159 5.041-3.598 10.8-9 14.041-1.799 1.08-3.598 2.52-5.396 3.601-1.084-.721-1.802-1.8-2.162-2.88 4.318-2.88 9.36-5.761 10.799-10.8 1.081-1.8 1.441-3.601 2.52-5.401 1.08.359 2.161.72 3.239 1.439z"/><path d="m29.88 93.959c5.76 3.601 12.959 3.601 19.44 6.12 12.959 3.959 25.2 10.08 37.44 15.839-.36 1.44-.36 2.521.359 3.601 1.8 2.161 4.68 2.52 6.841 3.599-2.88 0-6.48-1.438-8.64 1.081-2.88 3.959-6.48 7.2-5.73 12.601-14.07-5.041-28.471-9.36-41.43-16.92-8.64-5.761-13.68-14.401-18.719-22.32-.36-2.161-.721-5.041.359-7.201 3.599.721 6.84 2.161 10.08 3.6z" fill="#fff"/><path d="m267.119 98.64c0 1.44 0 2.52.36 3.959-1.081.721-2.52.36-3.601.721-.721-2.52 0-5.401-1.799-7.201-1.078-.719-2.49-1.799-3.961-2.52.36-1.08 1.081-2.159 1.799-3.24 2.883 1.8 7.202 4.321 7.202 8.281z"/><path d="m271.08 117.359c0 2.161-.36 3.961 0 5.76-.36.721-1.441 0-1.441.721-.357 2.88-.357 5.399-.721 8.279-.328.36-1.438-.359-1.799.36-.721 2.88-2.52 5.041-4.318 7.56-1.081 0-1.799-1.08-2.883-1.8-.328 1.081 0 2.161-.718 3.24-.721 2.88-2.88 5.401-5.399 7.56-.721-.359-1.441-1.44-2.162-2.159-.357-.36 0-.36 0-.721 1.802-2.159 4.321-4.32 4.682-7.2 0-4.32-1.081-7.56-1.799-11.52 1.078-.721 2.156-.721 3.24-.721.718 3.601 2.156 7.2 2.156 11.52 1.802-2.88 5.042-5.76 3.24-9.359-1.438-3.601-3.958-7.2-5.76-10.44 1.081-.721 2.191-1.44 3.24-1.8 1.802 3.24 3.24 6.12 5.039 9.36.363 0 .363 0 .363-.36 1.078-6.48-3.961-10.8-6.841-15.839.718-1.081 1.802-1.441 2.88-1.8 1.441 2.159 2.88 4.68 5.039 6.479-.721-3.599-3.961-6.12-6.48-9 .721-.719 1.802-1.44 2.52-2.159 3.961 3.959 7.922 8.279 7.922 14.039z"/><path d="m162 112.68c0 1.799-1.081 2.88-1.8 4.32 3.599 4.68 10.8 9 8.64 15.839-1.8 4.32-6.12 7.92-9.721 11.52-1.799 0-4.679 1.441-5.76-1.08-2.88-3.959-6.839-8.279-5.399-13.68.36-2.159 1.08-4.68 2.52-6.48 1.11-1.799 2.521-3.599 3.961-5.039.359 0 0-.36.359-.36 1.44-1.8 3.24-3.24 3.601-5.399-.36-1.44-1.8-2.52-1.8-3.961.36-.359.721-.719 1.08-.719 1.798.718 4.319 2.879 4.319 5.039z"/><path d="m353.521 109.44c-1.441 2.159-2.162 5.039-4.682 6.839-2.162 1.44-4.318 2.161-6.48 3.24-.357-.719-1.078-1.8-1.441-2.88 2.162-1.44 5.042-2.161 6.844-4.68 1.078-1.44 1.828-2.88 2.52-4.32 1.077.72 2.158 1.08 3.239 1.801z"/><path d="m60.119 113.399c2.161 2.52 4.68 5.041 7.56 6.48 2.161.719 5.041 1.08 7.56 1.8 0 1.438-.719 2.52-.719 3.599-2.88-.36-5.401-1.08-7.92-2.161-3.599-1.08-6.12-4.318-9-6.839 0-1.08 1.44-1.8 2.161-2.88-.001.362-.001.362.358.001z"/><path d="m164.52 126.719c.719 1.44 1.8 3.24 1.08 4.68-.719 1.44-1.44 2.52-2.159 3.24h-.36c.36-2.88 0-6.12-2.49-8.281-1.11-.359-2.19 0-2.911.36-2.159 2.161-2.52 5.76-2.159 8.64.36 1.8 1.08 3.961 3.24 4.321.359.719-.721 1.08-1.081 1.438-.719.36-1.799 0-2.159-.719-1.8-3.24-5.401-6.12-3.93-10.08.33-2.52 1.411-4.68 2.49-6.841 1.44-1.08 2.159-2.52 3.599-3.599 2.52 1.802 4.32 4.682 6.84 6.841z" fill="#fff"/><path d="m356.398 133.919c0 .721.363 1.8 0 2.161-2.159.36-4.318.721-6.48 1.08-.328-1.08-.328-2.159-.328-3.599 1.77-.36 4.289-.36 6.451-.721.357.36.357.72.357 1.079z"/><path d="m382.32 142.56c1.078.719.721 2.159.357 2.88-1.438 3.24-3.598 6.479-5.396 9.719-10.081 5.76-20.52 11.161-30.961 16.92-.36 0-.36-.36 0-.721 2.52-3.599 6.48-7.919 4.318-12.959-1.049-1.44-2.52-2.88-3.598-3.959 0-.36.357-.36.357-1.081 9-3.24 18.721-6.479 26.279-14.039 2.913.719 5.764 1.799 8.644 3.24z" fill="#fff"/><path d="m307.8 151.2c-.721 2.52-1.799 5.039-2.883 7.56-.328 1.8-.328 4.32-.718 6.12l-.36.359c0 6.12.75 11.88-.36 17.641 0 1.08 0 2.52-1.081 2.88-6.117-1.08-10.438-5.041-15.809-6.841-5.789-2.88-11.912-8.64-18.75-5.039-4.682 2.159-8.64 5.76-12.601 9-3.958-2.521-7.562-5.761-11.88-6.841-5.399-1.44-9.357 1.8-13.318 4.32-.363 0 0-.359 0-.719 6.838-10.8 18.721-16.56 28.078-24.48 4.321-4.68 9.36-9.359 12.601-14.76 3.601 3.601 6.87 9.36 12.601 9 5.76-.719 10.441-4.68 15.48-7.56 1.078-.36 1.799-1.8 3.24-1.08 4.679 1.44 4.319 6.839 5.76 10.44z" fill="#37a7da"/><path d="m81.719 141.479c-2.13 2.161-2.88 5.041-1.8 7.56 1.44 3.961 3.961 7.2 6.48 10.8-1.44 1.44-2.88 2.88-3.959 4.32-1.081.721-2.851 0-4.321.36-12.239.36-25.529 2.161-36.719-2.161-6.12-2.159-11.88-5.76-17.64-8.64-1.44-1.08-3.24-2.159-4.32-3.601.359-2.159 2.159-3.599 3.959-5.039 14.76.36 31.32 2.52 46.08-.721 4.32-1.078 8.281-1.797 12.24-2.878z" fill="#fff"/><path d="m246.959 145.44c1.081 1.799 2.159 3.599 1.438 5.399-.357 1.44-2.159 2.52-3.24 3.601-.718-.721-1.799-1.8-2.156-2.88.718-.721 2.156-1.081 1.799-2.521 0-.719-1.081-1.08-.721-2.159 1.078-.36 1.799-1.08 2.52-1.44z"/><path d="m158.039 148.32c.36 4.68-.36 9-.719 13.32-1.081 2.161-1.8 4.32-2.521 6.479-1.799 0-3.209.36-5.039 0-.721-4.679-1.081-10.08-.721-14.76 1.44-2.52 2.161-5.399 4.32-7.559 1.8 0 3.24 1.08 4.68 2.52z"/><path d="m362.878 153.719c-1.438 1.44-2.159 3.601-4.289 3.601-1.471.36-2.549-.36-3.63-1.081.36-.719.718-1.799 1.438-2.88.363-.359 1.802 1.441 2.191 0 .328-.719 1.049-1.44 1.77-1.799.722.359 1.8 1.44 2.52 2.159z"/><path d="m70.919 154.44c2.161-.36 4.68-1.081 6.841-1.44.719.719 1.08 2.159 1.08 3.239-3.601.721-6.839 2.521-10.8 1.441-1.8-.36-3.24-1.441-4.68-2.161-.359 0-.359 0-.359 0 .359-1.44.719-2.161 1.44-3.24 2.158.721 3.958 2.161 6.478 2.161z"/><path d="m229.677 161.279c-4.318 3.24-10.438 5.76-11.877 11.161-1.441 3.959-2.162 8.279-3.211 12.24-1.11.359-2.191-.36-3.27-.721 2.159-7.56 2.159-16.2 9.721-21.24 2.549-1.44 4.679-3.24 6.838-4.68.721 1.08 1.081 1.8 1.799 2.88z"/><path d="m334.44 167.039c-1.081 2.88-1.081 6.48-3.24 9-.721 1.08-2.159 1.44-3.24 1.08-2.52-.719-4.679-2.52-6.48-4.318.721-.721 1.11-3.961 2.88-1.8 1.441.719 2.88 1.8 4.318 2.52.721-.36.721-1.44 1.084-2.52.357-1.8.718-3.24 1.078-5.041 1.077.36 2.519.36 3.6 1.079z"/><path d="m192.599 169.56c-.719 1.44-3.24 2.159-2.159 3.959.359 1.44 1.08 2.52 1.44 3.599-.721.721-1.8 1.081-2.88 1.441-1.411-2.521-3.961-6.12-1.411-9 1.05-.721 1.411-1.8 2.49-2.161.72.362 1.801 1.441 2.52 2.162z"/><path d="m226.8 174.959c-2.883 5.041-6.841 9-6.48 15.12.357 2.88.721 5.76.721 8.64-1.081 0-2.162.36-3.24.36 0 0 0-.36-.36-.36 0-5.76-1.438-12.24 1.438-17.279 1.081-2.88 3.24-5.401 4.711-8.281 1.048.361 2.129 1.08 3.21 1.8z"/><path d="m345.599 175.32c10.078-.36 20.52-1.44 30.601-1.44 2.159.359 5.039-.36 7.198.719-3.598 3.24-7.198 5.76-11.159 7.92-7.919 5.041-15.841 9.36-23.76 14.041-1.438 0-3.24 0-4.321-1.081-.718-.719-.718-1.799-1.078-2.52 1.441-1.8 3.24-3.24 3.24-5.399-.36-1.441-1.799-2.521-3.24-3.24 1.441-1.081 2.52-2.52 2.159-4.32-.36-1.44-1.438-2.521-2.52-3.601.721-.719 1.438-1.8 2.159-2.88.361.72.361 1.44.721 1.801z" fill="#fff"/><path d="m333.001 179.64c.357.36.357.719 0 .719-.721.721-1.412 1.441-2.522 1.441-2.159.359-3.958 1.438-6.12 1.799-.357-1.08-.721-2.159-1.078-3.24 0-.359.357-.359.721-.359 2.876-.36 6.837-3.24 8.999-.36z"/><path d="m361.8 183.239c-3.211 2.161-7.201 4.68-11.52 3.24-1.441-.719-3.24-1.08-4.682-1.44 0-1.08.721-2.52 1.078-3.599 2.522.719 5.042 2.52 7.562 1.799 2.159-.719 3.961-2.159 5.763-2.88.718.721 1.439 1.8 1.799 2.88z"/><path d="m124.589 182.88v.359c-2.911 2.161-6.149 5.401-9.75 3.601-1.44-1.08-2.161-2.52-2.88-3.959.719-1.08 1.8-1.44 2.88-2.161.75 1.081 1.08 2.52 2.161 3.24 1.799-1.08 3.599-2.159 5.399-3.601 1.08.36 1.44 1.8 2.19 2.521z"/><path d="m132.479 182.52v.36c-.36 3.239 1.11 7.92-2.52 9.719-1.08.36-2.88.36-3.959.36-.721-1.08 0-2.159-.721-3.24-.69-.36-1.44 1.44-1.8.36-.36-.721-1.44-1.44-1.44-2.52 2.88-.721 3.961-3.961 5.041-6.48 1.8.721 3.24 1.801 5.399 1.441z"/><path d="m128.88 189c-.721.719-2.161.359-2.88.359 1.08-1.08 2.159-2.159 2.88-3.599.359 1.079 0 2.159 0 3.24z" fill="#fff"/><path d="m237.239 186.839c.36 1.08.721 2.161.721 3.24-1.802 1.08-5.042.721-6.48 3.24-.36 1.08-.36 2.52-.36 3.959.36.36.721-1.08 1.081-.719.718 1.08 1.438 1.799 2.159 2.52-.357 1.08-1.441 1.08-2.159 2.159-1.081 1.8-1.081 4.68-.721 6.841.36 0 .36-1.8 1.438-1.08.721.359 1.802.719 2.522 1.08-1.438 4.32-5.042 8.279-3.961 13.32.721 1.8 2.159 3.24 3.24 5.041 0 0 .36 0 .36-.36-.36-2.52-.36-5.76 1.078-7.92.721.36 3.24 0 2.883 1.8-1.802 5.041.721 10.081 1.438 15.12v1.441c-1.081.357-2.159.718-3.24.718-.36-1.081-.36-2.52-.718-3.958-4.321-4.682-10.081-9.001-8.643-15.841.36-1.44.721-2.88 1.441-4.321-.36-.719-1.441.36-1.441-.719.36-3.599-.357-7.2.36-10.44-.36-.36-.718-.36-1.081-.36 0-2.52.363-5.399.721-8.279.36-1.44 1.441-3.24 3.24-4.32 1.8-1.082 3.963-1.441 6.122-2.162z"/><path d="m298.44 197.64c2.88 5.041 5.399 10.44 9 14.76 2.159-2.161 2.52-5.399 3.601-7.92 1.078.36 2.549.721 3.24 1.44-1.081 3.24-2.162 7.2-5.042 9.721-.718.719-2.159.36-3.237 0-2.522-1.44-3.604-4.32-5.402-6.48-1.799-3.24-3.598-6.479-5.399-9.719 1.08-.723 2.158-1.442 3.239-1.802z"/><path d="m363.239 204.839c3.24.36 6.48.36 9.721.721 2.159.719 4.321 1.799 6.12 3.599-1.799 4.68-6.841 6.12-10.441 8.281-6.117 1.799-13.679 1.08-19.799.36-3.601-.36-6.838-.36-10.441-.721-.721.721 0 2.52-1.438 2.52v.721c4.679 5.399 9 12.24 15.841 15.838 4.679 2.522 9.721 3.961 15.117 6.123 3.961 2.52 6.844 6.838 9.721 10.438-3.24 1.081-7.559.721-11.159.721-1.081-.721-2.52-1.438-3.958-1.438-10.802-2.522-22.321-3.604-30.932-11.883-2.549-2.88-5.789-5.399-8.309-8.279 0-.721 1.078 0 1.078-.36 2.162-1.081 3.961-2.52 5.76-3.959 2.883 3.242 5.039 10.44 11.162 8.638.721-.718 3.598 0 2.52-2.156-.36-.721 0-3.24-1.799-1.802-1.084 0-2.883 1.081-3.604 0-2.159-2.159-3.24-4.68-5.039-6.841-1.078 0-1.77 1.081-2.52 1.081 1.799-2.161 1.799-5.041.75-7.56 2.49-2.88 7.172-5.761 5.37-9.721-.721-1.8-2.52-3.24-3.958-5.041 2.156.36 4.318 1.081 6.838 1.441.36.719-.721.719-.721 1.44 2.162 2.52 4.321 5.76 7.922 6.119 2.159.721 4.679.721 7.198 1.081.36-1.081 0-2.161.36-3.24 0-.36-.36-.36-.36-.36-3.958-.36-9-.36-10.799-4.68 3.237.36 6.478-1.08 8.279-3.959.36-.721.36-1.08 1.081-1.44 3.241 2.159 6.481 3.958 10.439 4.318z" fill="#fff"/><path d="m285.479 200.88c2.159 4.68 3.601 9.719 6.841 14.039 2.159 1.44 5.039.721 7.201 0 .357 1.081.357 2.521.718 3.601-1.799.719-4.321.719-6.12.719-5.039-.359-7.201-6.12-8.64-10.08-1.081-2.159-2.159-4.32-3.24-6.839 1.081-.721 2.159-1.44 3.24-1.44z"/><path d="m264.239 212.039c.36.36 1.081 0 1.081.36 0 1.08-.36 2.52-.721 3.24-1.441 0-3.24-.36-4.318-1.8-1.081-1.08-1.441-2.88-1.802-4.32 1.11-.36 1.802-1.08 3.24-1.08.721 1.081.361 3.96 2.52 3.6z"/><path d="m205.589 225.719c.328 1.081 0 2.161 1.049 2.161 0 1.08 0 2.518 1.081 2.518 0 1.081-.718 1.802-1.081 2.883-.721.357-1.438 0-2.159-.721-2.159-2.162-2.159-5.401-2.52-8.281.718-.36 2.159-.719 3.24-.719.39.719.39 1.44.39 2.159z"/><path d="m298.08 236.521c-.36.718-1.441 1.078-1.799 2.159 15.838 20.159 32.76 40.679 47.52 61.559 1.078 1.441 2.52 3.601 3.24 5.042-7.562-4.321-14.76-9.721-21.601-15.123-11.159-9-22.321-17.637-33.48-26.637-.721-3.24-1.802-6.123-3.24-9 4.679 1.799 9 4.679 14.042 5.039 1.078.357 2.156-.36 2.877-1.081.721-2.52-1.049-4.321-1.799-6.12-3.24-4.318-6.48-8.64-9.721-13.318-1.441.721-2.52 1.438-2.88 2.159 3.24 4.679 6.841 9.36 10.081 14.039 0 .36 0 .36-.36.36-5.042-1.799-9.721-4.318-14.76-6.12-.721-1.799-1.802-3.24-2.159-5.039.721 0 2.159-.36 2.549-1.438.691-1.441 0-2.883-.39-4.321 1.081.36 2.52 1.081 3.601.36 2.52-1.802 2.159-4.682 2.877-7.201 1.441 1.441 3.603 2.879 5.402 4.681z" fill="#fff"/><path d="m317.158 236.158c1.081 3.961 1.802 9 6.48 10.081 1.081.36 2.52 1.081 3.601 1.441 0 1.081-.718 2.52-1.081 3.237-3.958-1.438-9.357-3.237-10.799-8.279-.721-2.159-1.441-3.958-2.159-6.117.718-.721 2.159-.721 3.24-1.081.36 0 .718.718.718.718z"/><path d="m113.039 240.119c-5.399 8.279-9.36 17.643-18 23.76-3.959 3.24-8.279 6.123-12.959 8.643-.36-1.081-2.88-2.52-.721-3.604 6.12-3.958 13.32-7.916 18.36-14.396 3.959-5.402 6.87-11.162 10.8-16.562 1.08.36 1.8 1.081 2.88 1.438 0 .363-.36.721-.36.721z"/><path d="m278.281 243.001s.357 0 .721.357c3.237 6.841 7.588 13.321 9 20.88-.363 1.081.718 1.441 0 2.522-1.412 3.958-5.763 6.117-9 8.637-.363 0-.363 0-.363 0-1.049-9.718-6.48-17.637-12.24-25.559h.363c3.24 0 6.478-1.441 8.279-4.318.721-1.081.721-2.52.357-3.961.721 1.079 2.191.722 2.883 1.442z" fill="#fff"/><path d="m132.839 255.959c-2.52 4.321-3.24 9-4.32 13.679.719.721 2.159.721 3.24 1.081.359-.36.359-1.081.719-1.802 3.961-2.877 7.2-6.838 11.161-10.438 0 0 0 .36.36.36-1.411 5.399-5.761 10.078-9.36 14.399-1.05 3.961 3.959 8.64-.36 11.88-1.08 1.081-2.161 1.441-2.88 2.52.36 1.081 1.44 1.802 1.44 2.883 1.08.357 2.88.357 3.959.718 2.521 1.081 4.32 4.321 6.48 6.12-5.399 5.039-5.399 12.24-4.68 19.081.36 2.52.721 5.399 1.08 7.919-2.52 4.682-3.959 9.721-7.56 13.682-3.599 3.24-9 2.159-13.679 2.159 1.08-1.802 2.88-2.52 3.959-3.961-.721-.718-1.8-1.799-2.52-2.52-5.761 4.679-10.44 11.52-17.281 12.601-2.88-.36-5.399-1.799-7.56-3.24 4.68-1.441 8.281-6.841 11.55-11.162.69.363 0 1.441.69 1.441 6.12 0 12.959 1.081 16.56-5.039 1.8-3.961 2.88-7.922 3.959-12.24-1.08-.721-2.159-.721-3.209-1.078-1.471 4.318-2.19 8.637-4.709 12.237-1.081 1.802-3.24 2.159-5.041 2.159-1.8.363-4.32 0-6.48.363 0-.721 1.8-1.441.721-2.162-1.08-.36-2.161-2.159-3.24-1.078-2.52 3.958-5.399 7.559-8.64 11.159-2.88 2.52-6.841 2.88-10.8 2.88-.721-.36 0-2.162-1.08-1.799-8.281 1.438-15.841 3.598-24.48 3.958-6.12 0-11.52-2.159-16.2-5.039 11.88-.721 24.839 1.438 34.2-4.679 2.161-1.441 3.601-2.522 5.76-3.961.721-.36 1.8-1.081 2.52-2.162 5.401-6.117 11.521-14.76 20.521-15.117 7.95-.721 15.839-.363 24.12 0 0-.363.359-.363.359-.363-.359-1.078.721-2.877-.719-3.598 0-.36-.36-.36-.36-.36-5.399-3.24-10.44-6.12-15.12-10.438-3.599-3.604-3.24-8.643-3.599-13.682 0-3.961-1.44-10.081 3.599-11.88 1.8-1.081 4.32-1.802 6.48-2.522.36 0 .719.363 1.44.363.75-2.162 1.44-5.042 2.52-7.201 1.081-5.399 6.12-9.721 10.44-12.961-.719 2.162-2.88 4.321-3.96 6.84z" fill="#fff"/><path d="m212.041 283.32c0 .36.357.36.721.36.718 2.88 2.52 5.039 3.24 7.559-1.412 2.522-.721 5.763-2.883 7.201-.357 0-.357 0-.721 0-2.52.36-5.396 2.159-7.919.36-1.802-.36-3.599-3.24-5.399-1.081-.36 0-.721 0-.721 0-1.44 3.601-5.039 6.841-2.88 10.802 1.8 2.159 4.32 2.877 6.841 3.958 7.201 2.159 14.76 3.601 21.598 6.841 6.844 3.598 10.802 11.159 14.76 17.279 0 .36 0 .36.363.721-2.52 3.24-5.76 6.12-9 8.64-1.441 0-2.883 0-4.682 0-8.64-9.721-17.279-21.24-28.08-28.438 7.2 1.078 12.959 5.396 19.44 8.637.721-.718 1.081-1.799 1.802-2.877-5.042-2.883-10.081-5.76-15.123-7.922-5.758-2.159-12.239-2.52-18.359-3.961-1.08-2.159-1.8-4.679-2.159-7.198-1.081-2.52 2.159-3.601 3.599-4.679 2.88-.363 6.841 0 7.92-3.604.719-1.799.36-4.318.36-6.478 0 0 .359 0 .359-.36-.359-6.48-1.799-12.601-6.479-17.64 3.959 1.799 5.76 5.76 8.64 9 .36 0 .721-1.081 1.44-.36 1.08 0 2.52.36 3.24-.36-.721-5.76-.36-11.88-2.52-16.562 6.478 5.402 8.641 13.321 12.602 20.162z" fill="#fff"/><path d="m164.52 276.839c.36 0 .719-.721 1.44-.721.719 0 1.8 1.081 1.8-.357.719-1.802 1.83-3.604 2.159-5.76 1.44 2.877 2.521 6.117 3.601 9.357 2.52 1.441 4.68 3.961 6.48 6.12 3.239 3.601-.36 7.562-1.411 11.159-4.709 1.441-9.39 2.162-13.709 4.321-1.44.721-1.8 2.52-1.44 3.958 0 1.441.719 2.522 1.799 3.604 6.12 2.159 11.88 3.598 17.641 6.117.719.721 1.44.363 2.52 1.081 14.041 4.679 24.839 18.721 34.92 30.24-1.081.36-2.52 0-3.961.36-.721-.721.721-2.52-.721-2.52-7.559-1.081-15.839-.721-21.959-5.039-3.599-2.522-7.2-5.402-10.799-8.282-.721.721-1.44 1.802-2.161 2.88 2.88 2.52 6.12 5.039 9.36 7.559.719.721 5.039 1.802 1.44 1.802-1.44 0-3.93 0-5.76-.36-11.521-2.52-23.76-4.318-34.92-8.279-7.56-2.88-7.92-11.52-8.25-18.36-.39-3.24-.39-6.48 0-10.081.69-4.679 6.089-7.559 9.69-10.438 2.88-2.159 5.399-3.601 8.31-5.76-.39-.36.33-.36.33-.721.36-.718.36-1.438.721-2.52-.36-7.198-1.8-14.042-5.76-19.802 3.599 2.884 5.76 6.842 8.64 10.442z" fill="#fff"/><path d="m128.52 278.638c.719 2.162.719 5.402-.36 7.562-.719 1.081-1.8 1.438-3.24 1.802-1.08-.363-2.52-1.441-2.88-2.522-1.08-2.88-1.08-6.12.36-8.279.719-1.081 1.8-1.081 2.52-1.802 1.799.362 3.239 1.44 3.6 3.239z"/><path d="m108.719 275.761c-.36 7.198 0 14.396 1.8 20.52-2.88 5.76-7.92 10.799-14.041 12.958-3.959 1.802-7.89 3.961-11.88 4.679-1.8.721-3.24 1.441-5.01 1.802.69-1.438 1.411-2.88 2.49-4.321 10.081-11.16 19.081-23.04 26.641-35.638z" fill="#fff"/><path d="m125.64 280.8c-.36 1.438.719 3.24-.721 3.598-.33 0-.719-.357-.719-.718 0-1.081-.36-2.88.719-3.601.36.001.721.361.721.721z" fill="#fff"/><path d="m172.799 285.119c1.081 2.52 1.081 5.76-.359 7.922-.721 1.078-1.8 1.438-2.851 1.799-1.11-.36-2.55-1.078-3.27-2.159-1.081-2.522-1.081-6.12.359-8.282.721-1.078 1.8-1.438 2.911-1.799 1.051.359 2.851 1.08 3.21 2.519z"/><path d="m209.521 286.2c1.078 2.52 1.078 5.76 0 7.919-.721 1.441-1.802 1.799-3.24 2.162-1.441-.363-2.52-1.441-2.883-2.883-1.078-2.52-1.078-5.76.721-8.279.36-.721 1.471-.721 2.162-1.438 1.438.36 2.877 1.438 3.24 2.519z"/><path d="m170.279 287.281c-.36 1.078 1.08 2.877-.69 3.598-.39 0-.75-.357-.75-.721 0-1.078.36-2.156.36-3.24.39-.358 1.08-.358 1.08.363z" fill="#fff"/><path d="m207.359 290.158c-.357.721.36 1.802-1.078 2.162-.363 0-.691-.721-.691-1.081.691-.718 0-2.159.691-3.237.72.357.72 1.438 1.078 2.156z" fill="#fff"/><path d="m105.119 291.599c-.719 3.601-1.44 8.279-5.76 9.36-.719.721-1.44 0-1.77-.721 0-.718-.75-1.081-.75-1.799 1.08-1.081 3.601-1.438 3.601-3.601.719-1.078.719-2.88 1.44-3.961 1.079.001 2.159.362 3.239.722z"/><path d="m124.2 307.44v.36c-5.76 0-12.24-.36-18 .357 2.88-2.52 4.68-5.76 6.839-8.637 3.601 3.241 7.2 5.761 11.161 7.92z" fill="#37a7da"/><path d="m274.32 303.119c-1.081.721-2.88 0-4.318 0-.363-.721 0-1.438.357-2.52 1.441 1.081 2.88 1.799 3.961 2.52z" fill="#fff"/><path d="m178.919 313.56c6.841 2.159 10.44 9.721 14.041 15.12 0 .36 0 .36-.36.718-1.08 0-1.8 1.081-2.52 1.081-3.24-4.679-5.76-10.799-11.161-13.321-6.839-2.156-14.399-2.877-21.599-3.24-.721-1.078 0-2.52 0-3.598h.359c7.201.721 14.401 1.078 21.24 3.24z"/><path d="m258.119 318.959c-3.24 5.042-6.48 10.081-7.201 16.198-.718 3.604-.718 7.201-1.438 10.802 1.11 0 .36.721 1.11 1.081 3.932 4.679 8.61 7.919 14.01 9-4.318 1.078-9 1.799-12.961 3.961-5.039 2.52-8.637 8.279-12.598 12.958-2.52-3.958-5.402-9.36-10.441-10.081-7.201-.721-13.682 2.162-20.159 4.321-.721 0 0-.721 0-.721.718-3.24 2.159-6.841.36-9.718-1.441-2.162-3.961-2.522-5.76-3.604 6.838-2.52 14.399-3.958 22.679-3.598-3.24 2.88-6.841 5.399-10.081 8.279 0 0-.357 0 0 .36.363.718 1.441 1.438 2.162 2.52 0 0 .357 0 .357-.36 8.643-7.559 19.081-13.679 25.562-23.399 2.88-4.679 3.24-10.802 3.601-16.562.721-.718 1.799 0 2.52-.718 2.52-1.081 2.52-3.601 3.24-6.12 1.797 1.801 3.239 3.963 5.038 5.401z" fill="#fff"/><path d="m154.799 315.719c.36 1.438-.359 3.961 1.8 3.961 1.8.36 3.24.718 4.68 1.438 0 1.081-.36 2.162-.69 3.24-3.27-1.078-6.87-1.078-9-4.318-.75-1.441 0-2.883-.39-4.321 1.08-.718 2.159 0 3.24-.36.001 0 .36 0 .36.36z"/><path d="m60.479 316.08c.36 1.799-.719 4.318 1.11 5.76 2.49.721 4.291-1.441 6.81-1.441.36 0 1.44-.357 1.8.363v6.117c-2.161.36-3.601 1.081-5.401 1.802-1.44 0-2.88 0-4.32 0-2.159-.721-3.959-1.441-6.12-1.441-1.77 0-3.599-.36-5.399-1.081-1.44 1.441-1.8 3.604-3.601 4.682-1.44-1.078-2.88-2.52-3.959-3.601-2.52 1.081-5.041 2.88-7.56 3.961-1.08-.36-3.24.718-2.88-.721 0-2.159 0-3.958 0-5.76 4.68-1.802 9-4.679 13.32-6.48 1.44.36 2.88.721 4.32.721 2.52-.721 5.041-.36 7.2-1.438 1.44-.723 2.521-2.164 4.68-1.443z"/><path d="m149.039 318.239c0 3.24-.36 6.12 1.08 8.64 1.8 2.162 4.321 2.52 6.48 3.24 2.52.36 5.041 1.081 7.56 1.441l.36.357c-.36 1.084-.721 2.162-1.08 3.24-3.24-.357-6.48-1.438-9.721-2.156-2.88-1.084-6.48-2.522-7.56-5.763-.719-2.88-.719-6.12-.719-9.36 1.08-.721 2.159-.357 3.239-.357.361 0 .361.357.361.718z"/><path d="m272.878 336.239c1.081-.718 2.52-.36 3.601-.36 0 0 .36 0 .36.36.36 1.081-.36 2.159.36 3.601.39 0 .718.721 1.081.721h10.078c.36 1.799 0 4.318.36 6.48 0 0-.36 0-.36.357-5.039-.718-11.159 1.441-15.12-2.159-.718 0-1.799-2.159-2.159-.36-.721.721-1.441 1.441-2.162 2.162-1.799-1.441-3.24-2.883-5.039-4.682.721-.357 1.799-1.078 1.441-1.799-1.799-.36-3.24 0-5.039.357-.691-1.799-1.081-3.958-1.802-6.117 2.522-1.441 5.399-1.081 8.282-1.081 2.157.361 4.32.721 6.118 2.52z"/><path d="m346.677 348.479c-1.078.721-2.877.36-3.958.36-.718-.36-1.438-.721-2.13-1.078-.39-1.081 0-2.162-.39-3.24-.721-.363-2.159 0-3.24-.363-.721-.357-.721-1.438-1.081-2.156-.721 0-1.078.718-1.799.718-1.441-1.081-2.49-2.159-3.961-2.159 0-.36 0-.36 0-.36 3.24-.721 6.48-1.438 9.721-2.52 3.241 3.236 4.682 6.84 6.838 10.798z" fill="#37a7da"/><path d="m148.32 341.638c.719 0 1.08-.357 1.799-.357 1.081-.363 2.521-.363 3.961-.363.36 1.802-.36 3.604 0 5.402 1.8 1.078 4.32.721 6.12.721.39 2.159 0 4.318 0 6.48-1.8.357-4.32.357-6.12 0-1.44-.721-2.88-1.081-4.32-1.802-1.081-.718-2.161-1.438-3.24-2.159-2.161.357-3.93 1.078-5.76 1.799-1.8 2.88-5.401 1.799-8.281 2.52-.36-2.159-.719-4.318-1.08-6.48 1.08-.357 2.52-.357 3.601-.718 0-.721-.721-1.802-.36-2.88 0-.36 0-.36.36-.36 3.959-.721 7.589-1.802 11.52-2.522 1.079-.359 1.079.362 1.8.719z"/><path d="m309.239 355.68c-.36 1.081-1.799 1.081-1.799 2.159s0 2.52 0 3.24c-1.081 0-2.159 0-2.851 0-.75-.721-1.11-1.799-1.828-2.52-2.522-.721-5.402-1.441-7.922-2.162h-.36c.721-2.159 1.11-4.318 1.802-6.48 3.598.721 7.198 1.802 10.799 2.522.72 1.082 1.441 2.16 2.159 3.241z"/><path d="m335.878 353.158c-.721 0-1.799-.357-1.078-1.078.358.36 1.078.36 1.078 1.078z" fill="#37a7da"/><path d="m83.159 353.878c-.36 2.883-1.44 5.76-1.8 8.279 1.081 1.802 3.24.721 5.041 1.081v.721 6.12c-2.161 0-5.041.36-7.2-.721-.721 0-1.44.36-1.8 1.081 1.44 1.438 3.601 1.438 5.041 2.52.359 1.081 0 2.52.359 3.601.721 1.078.36 3.598 2.521 3.961 1.08 0 1.44-1.802 2.52-2.162 1.44-.357 2.52-.721 3.959-1.078.36-.721.721-1.441 1.081-2.162 1.799-.721 5.039 1.081 5.399-1.799 7.56 0 15.48 0 23.041-.36 1.08-1.081 3.27 0 4.68-.721.359-.36.719-.718 1.44-1.081 1.08.363 2.159.721 3.239 1.081 1.8 0 4.321 0 6.12-.718.36-1.441-1.08-2.52-1.08-4.321 0-3.24-3.959-4.679-5.399-7.198 1.44-1.441.719-3.604.719-5.402 1.08-.36 2.161-.36 3.24-.36 2.161 2.159 5.041 4.679 6.48 6.841.719-1.078 1.83-2.88 2.52-4.318 0 0 0-.363.36-.363h9.719v6.841c-2.159 0-3.959 0-5.76.36-1.08 2.162-2.88 3.961-3.24 6.48 1.081 2.88.36 6.12.721 9 1.08.721 2.52 1.078 3.599 1.441 2.911-1.441 5.761-2.883 8.641-4.321-.721-.721-1.44-1.081-1.081-1.802 1.44-1.438 3.24-2.52 5.041-3.958 1.08 1.081 1.8 2.52 2.88 3.601 5.43-.36 10.8 0 16.56 0 .36 1.078-.719 3.24 1.08 3.24 1.8-1.441 3.24-3.24 4.68-4.682 1.8-.721 3.961-1.078 5.401-2.52.359-1.078.719-2.162 1.08-3.24h3.24c.39.721 0 2.162.39 3.24.69.721 1.411.36 2.13 1.078-.36 1.441-.719 2.522-1.08 3.604-.721.357-1.44.718-1.8 1.438 1.8.718 3.601 1.802 5.399 3.24-1.44 1.799-3.239 3.24-4.649 5.039-.75-.718-1.83-1.081-2.55-1.438-2.52 0-5.399 0-7.56.721-.36.357-.719.357-.36.718-.719 2.88-.719 6.12-1.44 9.36-1.08 2.88-1.44 6.48-2.159 9.721 2.159 1.441 4.32 1.799 6.12 2.88 3.959-1.802 7.56-3.961 11.52-4.679.36-.363.36-.721 0-1.081-.719-.721-1.44-1.441-2.52-1.802-1.8 1.441-3.601 1.802-5.76 2.883-1.081 0-2.161-.363-3.601-1.081 0-1.441-2.161-2.159-2.88-3.601.719-1.078 1.8-2.162 2.52-2.88 1.081-.36 2.161.36 3.601.718 1.44-.718 2.88-2.156 4.68-2.877h3.24c0-.36 0-.36 0-.721 0-2.162 0-4.682-.36-6.841h.36c2.159-.36 4.321-.36 6.478-.36.363 1.081-.328 2.883.363 3.961 1.799-1.078 3.598-1.799 5.396-3.24-1.078-1.799-2.156-3.24-3.237-4.682.36-1.078 1.081-1.438 1.799-1.799 0-1.078 0-2.52 0-3.598.721-.363 1.802-.363 2.88-.363 1.799 3.24 4.682 6.123 5.402 9.721 3.958 3.601 8.637 4.321 12.958 6.12.36 0 .721 0 .721-.36-1.081-1.078-2.522-2.52-3.24-3.598 0-.721-.36-1.802.36-2.162 1.799-.357 4.318.721 5.399-1.438 1.081 1.081 1.802 1.799 2.52 2.88 1.802-.721 3.601-2.162 5.042-3.24.357-1.441 1.078-2.88 1.438-4.682h.721 6.478c.721.363 1.084 1.081 1.802 1.802 1.081-.721 1.802-1.438 2.88-1.802h12.99c.328-2.159 1.77 0 3.211-.721 1.078-1.438 2.52-2.156 3.598-3.237.721-.36 2.191-.36 2.52-1.081 0-.36-.328-.721-.718-.721-2.522-.721-4.679-2.159-7.562-2.52-.357-2.159 0-4.318 0-6.838h2.883c2.52 1.438 5.396 2.52 8.279 3.24 2.52-1.081 3.598-3.604 5.039-5.76.75 0 1.799 0 2.88-.363 1.081 1.802 1.802 3.961 2.88 6.123-1.441.718-2.52 1.438-3.598 2.877 0 .363 0 .363.357.721 1.441.36 2.88 1.081 4.318 1.441.363 0 .363-.36.721-.36h9.721c.36-1.081-.357-2.159.36-2.88.36-.721.36-1.441.36-2.52 2.162-.36 4.682 0 6.838 0 0 1.438 0 3.598-.718 4.679-.36 1.802 0 3.24-.36 4.679-.721.721-1.441 1.802-2.159 2.52-1.438.363-2.851-.357-3.601.363 1.078.721 2.52 1.438 3.961.721.721-.363.357-1.084 1.078-1.441 1.081-.721 2.883-.721 3.961-1.441 2.162-1.438 3.961-4.679 6.838-4.318.363.357.363.357.363.357 0 1.802-.363 2.883 0 4.321.357.721 1.799 1.438.721 2.159-.363 0-.721.363-1.084.721.721 1.081 1.802 1.441 2.522 2.162.39 1.078.39 2.159 0 3.598-1.802 0-3.961-1.078-5.042 1.081-1.078-.721-2.156-1.438-3.568-1.438-1.828 2.52-.75 6.117-2.912 8.279-5.039 2.52-10.438 4.679-16.559 3.961-1.799-.363-3.598-.721-5.399-1.084v.363c-.36 4.318-1.081 8.279-1.438 12.598-2.162 0-4.321-.357-6.841-.721 0-2.52.718-4.679.718-6.838-1.438 0-2.877 1.441-4.318 1.799-2.162-.357-4.318.36-5.76-.357-.36 0-.36 0-.36 0-.36 3.598-1.438 6.478-2.13 9.718.691 2.159-1.11 2.522-2.191 3.601 1.441 1.441 3.961 1.441 5.76 2.88-.718 2.159-1.799 3.958-2.877 6.12-2.883-1.799-6.48-2.162-9-5.039-1.081.721-2.162 1.799-3.604 2.159-3.598 0-7.198 0-10.438-.721-2.159.721-4.649 1.438-7.198 1.802v.357c1.799 0 3.598.363 5.399.721 1.799-.721 3.237-1.078 5.039-1.078 0 0 .36.357 0 .357 0 2.162.36 4.321 0 6.123-1.438.357-2.88.718-4.679 1.078-2.883-.36-6.123-.36-9-1.078-1.799-.721-3.961-1.081-5.76-1.802-.363-.721-.721-1.438-1.441-2.159-1.441.357-3.24.721-5.01 1.078-.39-.721 0-1.799-.75-2.159-.721 0-1.799-.36-2.162 0 .363 1.438.363 2.88.363 4.321-2.162.357-4.321.357-6.451.357-.39 0-.39-.357-.39-.718 0-2.522-.36-5.042-.721-7.562-2.52-1.438-4.679-2.52-6.841-5.039-1.799 0-3.598 0-5.399 0 0-2.162-.359-4.318-.359-6.48-.36-.36-.721 0-1.081 0-3.599 1.441-6.839 3.24-9.719 5.402-3.961-1.084-7.56-2.883-11.161-4.321-2.52 0-5.039 0-7.56 0-.359-.36.36-1.081-.359-1.441-1.8 1.441-1.411 3.601-1.8 5.399.39.363.39.363.39.363 2.49 0 4.649-.363 7.17 0 2.52 0 6.12-.363 8.64.357s5.041 1.799 7.56 2.52c.36.36.719.721 1.44 1.081 5.399.36 10.44.721 16.2.721v6.478c0 .363-.36 0-.721 0-6.48.363-12.959 0-19.08-.718-2.159-2.88-5.76-2.522-9-3.961-1.44.36.36 1.081 0 1.802 0 1.078 0 1.799.36 2.52.721.721 1.44 1.438 2.161 2.159 1.08 0 2.159-1.802 2.52-.36.75 1.799 1.8 3.24 2.52 5.039v.363c-1.44.718-2.52 1.438-3.959 2.156-1.08-.357-2.52 0-3.959-.357-1.8-2.162-4.321-4.321-6.12-6.48-.36-1.441.359-3.961-1.081-5.039-2.159.721-4.32 2.159-6.479 3.24-9 0-17.641 0-27 0-.36-.721.359-2.162-.36-2.52-1.08 0-2.161 0-2.88 0 0-1.084-.36-2.522 0-3.961 0 0 0 0 .36-.36 5.039 0 10.08.36 15.479 0-1.44-1.441-5.039-.36-5.039-3.601-.721.36-1.44 1.441-2.161 1.799-5.041 0-10.08.36-14.76-.721-1.8-1.438-3.601-2.156-5.399-3.598-.721-4.321-2.521-7.922-2.881-12.24 0 0 0-.36-.359-.36-2.161 2.52-5.401 5.042-6.12 8.279-.36 0-.36.36-.36.36-2.161-.721-4.32-1.441-6.12-2.159.36-3.601 3.24-6.841 6.12-9.36-2.88-.721-6.12-.36-9-.36-1.08 0-.36 1.438-1.8 1.438-1.8-.357-3.959 0-5.76 0-1.08-2.877 1.44-4.679 2.52-6.838 1.081-.36 2.88-.721 4.351-1.441 6.089 0 12.209.36 18 1.802 2.13-.36 4.291-.36 6.45-.36.721.721 1.08 1.078 1.8 1.799 1.44 0 2.88 0 3.959-.357 2.88-1.081 4.68-4.321 6.841-6.48v-.363c-1.44-.357-2.88-.718-4.32-1.078-.36-2.159-1.081-3.961-1.081-6.12-3.239 0-6.479.36-9.719.721-2.161 0-4.32-.721-6.12.718-.36 0-1.08 0-1.44 0-1.08 1.081-1.08 2.522-1.8 3.961-1.8 0-3.57-1.438-5.399-1.799-1.081.721-2.521.36-3.24 1.799-.721 0-1.44 0-2.161 0-1.44-2.52-4.32-2.52-7.2-2.52-.719 1.081-1.44 2.52-1.8 3.961-.719.357-1.77.721-2.159 1.078-.36 1.802-2.521 2.162-1.8 3.961-1.08.721-2.52 1.081-3.601 2.162-1.44-1.441-3.209-2.883-4.68-4.682 0-.36 1.471-1.441 0-1.078-1.799 1.438-3.959-.363-5.76-.721-1.08-1.081-2.52-1.441-3.599-2.52-.36-1.441-1.081-2.883-1.081-4.682-.359 0-.359 0-.359 0v5.039h-.36c-2.161 0-4.32 0-6.48 0 0-3.598 0-7.201 0-10.799-.36-.36-1.08 0-1.8-.36-1.44-.721-2.52-1.438-3.959-2.159-1.8.721-3.959 1.078-5.76 1.438-.721-1.799-1.44-3.958-2.161-6.12.721-1.078 3.961-.357 2.521-2.159 0-.721 0-1.802-.721-1.802-1.44 0-2.88.363-4.68 0 0-2.156 0-4.318 0-6.478.721 0 .36-1.081 1.081-1.081h6.119c.721 1.441 2.881.36 4.321.721 0 2.52-.36 5.76 2.159 7.201 1.08 0 1.44-1.081 2.52-1.441 1.471-.721 2.881-1.441 4.321-2.162.719.363.719 1.441 1.08 1.802.719-2.52 1.44-5.76 2.159-8.279 2.153.357 4.314.715 6.473 1.435z"/><g fill="#37a7da"><path d="m286.917 377.281c-.718 1.078-1.799 1.799-1.799 3.24-1.078.718-2.52 1.078-3.598 1.799.718 2.88.357 6.48.357 9-.357.721-.357 1.441-1.438 1.799-1.802.36-3.24 1.799-5.399 2.52 0 0 0 0 0-.357 1.438-1.441 2.877-2.883 4.318-4.321-1.441-1.081-2.88-1.438-4.318-2.159-.363-1.799-.363-3.601-.363-5.76 1.441-1.081 2.912-2.52 4.324-3.24 2.52-.36 4.318-2.883 5.396-5.039.722 1.076 4.322.356 2.52 2.518z"/><path d="m304.2 384.839h1.438c0 .721 0 1.441-.357 2.162-3.604 2.156-8.643 2.877-12.961 1.438 0-.36.721-.721 1.078-1.081-.357-1.078-1.078-1.078-1.438-1.799 0-1.441-.36-2.88 0-3.961.718-.721 1.081-1.799 1.802-2.52 2.876 3.242 6.837 4.32 10.438 5.761z"/><path d="m172.44 381.599c-.36-.721-1.44-.36-1.8-1.078 1.079.357 5.399 0 1.8 1.078z"/><path d="m165.599 387.001c2.161.357 4.32.718 6.48 1.799 2.159-.721 4.32-1.441 6.51-1.799.33 5.039-2.55 9-2.55 14.039-2.52.721-5.399 0-7.92.357-3.959 2.883-5.399 7.201-5.76 11.52 0 .363.36 1.084-.359 1.084-2.521 0-4.68-1.441-6.841-2.162.36-.36.36-1.078.721-1.441 1.08 0 2.52.363 3.599 0 1.11-1.799 2.161-3.598 3.24-5.396 1.8-1.084 1.8-2.883 2.161-4.682 1.799 0 2.52-2.162 3.959-2.52 1.8-.721 4.32-.36 5.041-2.52-1.44-1.441-3.24-2.52-3.961-4.321 0-.36 0-.36-.33-.36-1.471.36-3.27.36-4.709 1.081-1.8 1.799-3.601 2.88-5.761 3.601-.719 1.438-.719 3.24-1.44 4.679-1.799 1.081-1.08 4.679-3.959 3.601-.36-1.441 0-3.24 0-5.039-2.13-.363-4.68 0-6.839-.363 0 .363-.36.363-.36.363 0 3.24 0 6.117.36 9-.36.357-1.081 0-1.44.357-.721.36-1.44 1.441-2.161 2.162-3.959 0-7.92.357-11.161-1.802-.359-2.88-1.799-5.399-2.159-8.64h9c3.959-1.799 7.56-5.399 10.08-9.36 1.44-1.081 2.88-1.799 4.32-2.159.721 1.078 2.161 1.078 3.24 1.799 1.08-1.799 1.8-3.961 2.88-5.76.36-.721-.719-.357-.719-1.078 1.08-.36 2.159-.36 3.24-.721 1.079 1.441 2.158 2.88 3.598 4.681z"/><path d="m267.839 384.839c0 2.162-.36 5.039.75 6.841-.75.718-1.828 1.799-2.912 2.52-3.598-.721-6.838.36-10.078 1.081-1.441 1.078-2.88 2.159-3.598 3.598-.721 1.441-.721 3.24-1.084 4.682-.328.357 0 .357 0 .357 2.162.363 4.321 1.084 6.48 1.441.721-1.441 0-3.598 1.802-3.961 1.438-.357 2.88-.718 4.321-.718 0 0 .357 0 0 .36 0 2.877-.363 5.76-1.441 8.279-.721.36-1.441 1.078-2.162 1.441-1.078-.721-2.877 0-3.958-.363-2.159-1.078-4.321-1.799-6.841-2.52-2.159.36-4.679.721-6.48-.721-.357 0-.721 0-.721-.718 0-2.88 1.441-5.399 1.441-8.282.36-2.52 0-5.039-1.078-7.198.357-.721 1.438-.36 2.159-.36.36.721.718 2.162 1.799 1.799 1.438-1.078 2.88-2.159 4.351-2.877 1.049 1.438 2.13 3.24 3.568 4.318h5.432c.328-2.159.328-4.318.328-6.48-.718-.721-1.799-.357-2.877-.357 0-.721-1.441-1.441-.363-2.162.363 0 .721-.36 1.084-.36 3.24 0 6.478 0 10.078-.36z"/></g><path d="m318.239 386.281c.36 1.438-.36 3.24.721 3.958.718.36 2.159.36 1.438 1.441-.357 1.081-.357 2.159-.357 3.237-.363.363-1.441 0-1.802.363-1.438.721-1.081 2.159-2.159 2.877v.363c-.721.718-1.799 2.159-2.88 2.877-3.24-.357-5.76 1.441-9 1.441-1.802 0-3.961-.36-5.76.721-1.081.357-2.159.721-2.522 1.799-.328.721-.718 1.081-1.078 1.799-2.162-.718-3.961-1.799-5.76-2.52-.36-2.159 1.078-3.598 1.799-5.399 2.52-1.081 5.402-2.159 7.922-2.88 3.961.36 7.559-.357 10.799-1.441.721-.357.36-1.438 1.078-1.799 1.441-1.078 2.522-2.88 3.24-4.318.721-.721.721-1.799 1.441-2.52 1.081-.363 2.162 0 2.88-.363 0 .364.36.364 0 .364z"/><path d="m225.001 394.917v.363c-1.412 1.438-3.604 2.159-4.324 3.958-1.438.721-3.237 1.081-5.039 1.802-2.52 0-4.679-1.441-6.48-3.24 0-1.081-.357-2.883.721-3.601 1.799-1.438 3.601-2.52 5.402-3.601 2.877 2.521 6.48 3.241 9.72 4.319z" fill="#37a7da"/><path d="m236.878 397.44c-.357 1.799-.721 3.958-1.799 5.76v6.841c2.159 2.159 4.318 3.961 6.838 4.318.363 0 .363.36 0 .36-3.24.721-6.478 1.438-9.718 2.159-1.438-2.877-1.438-6.48-2.522-9.357-3.958-.363-7.559.357-11.156 0 1.799-1.081 4.318-1.441 6.838-2.52 1.081-1.441 1.799-3.24 3.601-3.961h3.24c.718-1.081 0-2.883.718-3.961h3.604c-.001.001-.001.001.356.361z" fill="#37a7da"/><path d="m210.239 407.158c1.081 0 2.522 0 3.601.363-1.799.718-3.961.357-5.76.357-.721-.357-.721-1.438-.721-2.52 1.081.361 1.799 1.442 2.88 1.8z" fill="#37a7da"/><path d="m225.359 418.32c-1.441.721-3.24 1.078-5.039 1.441-.36-1.081 0-2.522 0-3.604-.721-.718-1.799-.718-2.162-1.438 1.802 0 3.961 0 5.76-.36.72 1.441 1.083 2.88 1.441 3.961z" fill="#37a7da"/><path d="m185.039 209.52c1.44 2.161.721 5.399 1.44 7.56 1.8 3.24 2.161 7.2 2.88 10.44-.359 1.8-1.08 3.959-1.44 5.761 1.44 2.52 2.88 5.039 4.32 7.559 0 2.162.36 4.318.36 6.48-.719 1.078-2.159 2.159-3.24 3.598-1.44 0-2.88 0-3.959 0-1.8-.718-3.24-1.438-5.041-2.156-.359-2.162-.719-3.961-1.08-5.76.36-.721 1.44-1.441 1.8-2.522.36-2.52 0-5.399.719-8.279-.359-1.802-1.44-3.601-1.799-5.399.359-3.601 1.799-6.841 2.159-10.8 0-1.8 0-3.961 0-6.12.722-.362 1.801-.002 2.881-.362z" fill="#e42328"/><path d="m185.039 209.52.36-.36 2.19 7.92h-1.11l.721-.36 2.88 10.44c.36.36.36.36 0 .721l-1.08 5.401h-1.081l.721-.721 4.32 7.559v.721l.719 6.48s0 .36-.359.721l-3.24 3.24c-.36.357-.36.357-.721.357l-2.88.363-1.44-.363-5.039-2.16s-.36-.36-.36-.718l-1.44-5.76c0-.363 0-.363.39-.721l2.13-2.162.36.36h-.721l.721-8.64.719.36-.719.36-1.8-5.401c-.36-.359-.36-.359 0-.719l2.16-10.438h.719l-.719.359-.36-3.24v-3.239c0-.36.36-.721.719-1.08h1.8.721.359c.36 0 .721 0 .721.359l-.361.361v1.08h-.719-.721l-1.44.36v-1.08h.721v3.239 2.881.359l-2.161 10.441h-.719l.719-.36 2.161 5.399v.721l-.721 8.279s0 .36-.36.36l-1.799 2.16-.721-.357.721-.363 1.44 5.76-1.081.363.36-1.081 5.041 2.159-.36 1.078v-1.078h1.08 2.88v1.078l-.719-.718 3.599-3.601.36.721h-.719l-.721-6.48h1.08l-.719.36-4.32-7.562s0-.357 0-.721l1.44-5.758.719.36-.719.36-2.88-10.08s0 0 0-.36l-1.44-7.201.718-.718v1.08z"/><path d="m169.919 232.56c.36.721 1.44 1.441 1.8 2.159.36 1.802 0 4.321.721 5.76.719 1.802 1.08 3.24 1.799 4.321 0 1.799-.359 3.24-.359 4.679 1.799 2.159 3.599 4.679 4.709 7.201-.39 1.799-1.11 3.237-1.471 4.679-1.08.721-2.52.721-3.599 1.081-.36-1.438-.36-2.88-.721-4.321-1.799-2.159-3.209-4.318-4.32-6.838 0-3.601.36-7.201.721-10.802 0-2.88-1.44-5.399-1.081-8.279.361 0 1.801-1.439 1.801.36z" fill="#e42328"/><path d="m169.919 232.56.36-.721 2.161 2.52.719 6.12h-.719l.719-.36 1.8 4.321c0 .36.36.36.36.718l-.721 4.321h-.719l.359-.718 5.041 7.559c.36.36.36.721 0 .721l-1.08 4.679c-.36.36-.36.36-.721.721l-3.599.718c-.36.363-.721 0-1.081-.357l-1.08-4.682h1.08l-.719.36-4.32-6.841s0 0 0-.357v-2.52l.719-8.643.721.36h-.721v-.36l-1.44-7.559v-.36c0-.36.36-.721.721-.721l1.83-.718 1.05 1.438v.36h-.72l-1.08-.36h.75v.36l-.75-.36h.75v.36l-1.471.721v-1.08h.721v.36l1.44 7.559v.36l-.69 8.282v2.52h-1.11l1.11-.363 3.57 6.48c.36 0 .36 0 .36.363l.719 4.318-.719.36v-1.081l3.24-.721.359.721-.719-.357 1.44-4.321h.75l-.75.718-4.68-7.198c0-.36-.36-.36-.36-.721l.721-4.679h.719l-.719.721-1.8-4.321s0 0 0-.36l-1.08-5.76 1.08-.36-1.08.36-1.44-1.799c-.36-.363-.36-.721-.36-1.081z"/></svg>