<?xml version="1.0" encoding="UTF-8" standalone="no"?>
<!-- Created with Inkscape (http://www.inkscape.org/) -->
<svg
   xmlns:svg="http://www.w3.org/2000/svg"
   xmlns="http://www.w3.org/2000/svg"
   version="1.0"
   width="560.51471"
   height="601.11969"
   id="svg9047">
  <defs
     id="defs9049">
    <clipPath
       id="clipPath713">
      <path
         d="M 397.25,555.39179 L 469.73212,555.39179 L 469.73212,627.87378 L 397.25,627.87378 L 397.25,555.39179 z"
         id="path715" />
    </clipPath>
    <clipPath
       id="clipPath3198">
      <path
         d="M 397.25,555.39179 L 469.73212,555.39179 L 469.73212,627.87378 L 397.25,627.87378 L 397.25,555.39179 z"
         id="path3200" />
    </clipPath>
    <clipPath
       id="clipPath6343">
      <path
         d="M -0.138,841.445 L 595.138,841.445 L 595.138,-0.445 L -0.138,-0.445 L -0.138,841.445 z"
         id="path6345" />
    </clipPath>
    <clipPath
       id="clipPath6349">
      <path
         d="M 0.029999,841.95 L 595.29,841.95 L 595.29,0.03 L 0.029999,0.03 L 0.029999,841.95 z"
         id="path6351" />
    </clipPath>
  </defs>
  <path
     d="M 5.9999994,7.9999809 C 5.9999994,7.9999809 20.193109,291.35691 25.886829,357.60336 C 31.297489,420.53176 59.683699,479.96293 105.82474,524.94301 C 153.56746,571.48895 215.51407,597.11969 280.25199,597.11969 C 344.98991,597.11969 406.94367,571.48895 454.67923,524.94301 C 500.82021,479.96293 529.20651,420.53176 534.60991,357.60336 C 540.30731,291.35691 554.51471,7.9999809 554.51471,7.9999809 L 5.9999994,7.9999809 z"
     id="path3250"
     style="fill:#ffffff;stroke:none;stroke-width:10;stroke-linecap:butt;stroke-linejoin:miter;stroke-miterlimit:4;stroke-dasharray:none;stroke-opacity:1" />
  <path
     d="M 15.845761,190.84985 C 32.469071,205.23358 41.776021,204.98458 51.140101,204.84985 L 255.66662,204.84985 L 255.66662,50.028727 C 255.34887,38.332047 248.06023,27.548757 241.66662,18.529127 L 336.94108,6.8901975 C 325.71286,18.003334 319.02874,38.247517 318.69437,50.028727 L 318.69437,204.84985 L 508.62208,204.84985 C 527.15654,203.92477 533.21478,196.76159 541.77593,190.84985 L 536.64839,285.87761 C 529.55533,274.32872 501.99538,266.96254 476.62208,267.87761 L 318.69437,267.87761 L 318.69437,560.17574 C 318.2994,578.83558 327.91537,583.479 334.69437,591.37789 L 229.66662,593.37789 C 236.36564,583.6762 256.11546,581.0253 255.66662,564.17574 L 255.66662,267.87761 L 59.140101,267.87761 C 48.586021,266.91715 34.031931,271.92426 23.477851,281.87761 L 15.845761,190.84985 z"
     id="path3222"
     style="fill:#1b1a1c;fill-opacity:1;fill-rule:evenodd;stroke:none;stroke-width:5;stroke-linecap:butt;stroke-linejoin:miter;stroke-miterlimit:4;stroke-dasharray:none;stroke-opacity:1" />
  <path
     d="M 13.107188,185.44219 C 29.730498,199.82592 37.037448,199.57692 46.401528,199.44219 L 250.92805,199.44219 L 250.92805,44.621069 C 250.6103,32.924389 243.32166,18.141099 236.92805,9.1214795 L 328.20251,9.4825395 C 322.22007,18.628519 314.29017,32.839859 313.9558,44.621069 L 313.9558,199.44219 L 503.88351,199.44219 C 522.41797,198.51711 534.47621,189.35393 543.03736,183.44219 L 539.90982,276.46995 C 533.18503,269.3403 514.84356,261.92315 497.88351,262.46995 L 313.9558,262.46995 L 313.9558,556.76808 C 313.56083,575.42792 321.1768,580.07134 327.9558,587.97023 C 297.61322,599.18193 267.27063,593.96691 236.92805,589.97023 C 243.62707,580.26854 251.37689,573.61764 250.92805,556.76808 L 250.92805,262.46995 L 52.401528,262.46995 C 41.847438,261.50949 29.293358,270.5166 18.739278,280.46995 L 13.107188,185.44219 z"
     id="path3242"
     style="fill:#d8201f;fill-opacity:1;fill-rule:evenodd;stroke:#1b1a1c;stroke-width:5;stroke-linecap:butt;stroke-linejoin:miter;stroke-miterlimit:4;stroke-dasharray:none;stroke-opacity:1" />
  <g
     transform="translate(1.2109013,-3.4093244)"
     id="g3238">
    <path
       d="M 278.81111,10.054422 L 278.81111,599.84737"
       id="path3232"
       style="fill:none;fill-rule:evenodd;stroke:#1b1a1c;stroke-width:6;stroke-linecap:butt;stroke-linejoin:miter;stroke-miterlimit:4;stroke-dasharray:none;stroke-opacity:1" />
    <path
       d="M 16.970235,233.58262 L 537.97153,233.58262"
       id="path3236"
       style="fill:none;fill-rule:evenodd;stroke:#1b1a1c;stroke-width:6;stroke-linecap:butt;stroke-linejoin:miter;stroke-miterlimit:4;stroke-dasharray:none;stroke-opacity:1" />
  </g>
  <path
     d="M 6,6 C 6,6 11.446792,114.74195 16.945554,213.24673 C 20.323119,273.75241 23.720291,330.39569 25.88683,355.60338 C 31.29749,418.53178 59.6837,477.96295 105.82474,522.94303 C 153.56746,569.48897 215.51407,595.11967 280.25198,595.11967 C 344.9899,595.11967 406.94367,569.48897 454.67923,522.94303 C 500.82021,477.96295 529.20651,418.53178 534.60991,355.60338 C 540.30731,289.35693 554.51471,6 554.51471,6 L 6,6 z"
     id="path3024"
     style="fill:none;stroke:#1b1a1c;stroke-width:12;stroke-linecap:butt;stroke-linejoin:miter;stroke-miterlimit:4;stroke-dasharray:none;stroke-opacity:1" />
  <path
     d="M -307.18717,242.54164 L -325.00616,171.02382 L -396.30541,189.69819 L -343.27865,138.50758 L -395.10075,86.097798 L -324.25501,106.42501 L -304.77786,35.340866 L -286.95887,106.85869 L -215.65962,88.184321 L -268.68637,139.37493 L -216.86427,191.78471 L -287.71002,171.4575 L -307.18717,242.54164 z"
     transform="matrix(0.9866442,-6.0592038e-3,6.9623036e-3,1.1336995,447.91151,231.66577)"
     id="path3261"
     style="opacity:1;fill:#d8201f;fill-opacity:1;fill-rule:nonzero;stroke:#1b1a1c;stroke-width:4.72751093;stroke-linecap:round;stroke-linejoin:miter;stroke-miterlimit:4;stroke-dasharray:none;stroke-opacity:1" />
  <path
     d="M 146.48463,276.77404 L 146.48463,499.71963"
     id="path3443"
     style="fill:none;fill-rule:evenodd;stroke:#1b1a1c;stroke-width:5;stroke-linecap:butt;stroke-linejoin:miter;stroke-miterlimit:4;stroke-dasharray:none;stroke-opacity:1" />
  <path
     d="M 60.251052,332.28167 L 232.29915,448.89711"
     id="path3445"
     style="fill:none;fill-rule:evenodd;stroke:#1b1a1c;stroke-width:5;stroke-linecap:butt;stroke-linejoin:miter;stroke-miterlimit:4;stroke-dasharray:none;stroke-opacity:1" />
  <path
     d="M 232.1059,334.24595 L 63.749821,444.95415"
     id="path3447"
     style="fill:none;fill-rule:evenodd;stroke:#1b1a1c;stroke-width:5;stroke-linecap:butt;stroke-linejoin:miter;stroke-miterlimit:4;stroke-dasharray:none;stroke-opacity:1" />
  <g
     transform="translate(559.79887,53.470026)"
     id="g3465">
    <path
       d="M -146.96878,367.19427 C -157.66739,393.44016 -199.37796,388.75447 -219.52299,414.3235 C -223.1532,419.27405 -222.97791,425.05091 -219.52299,429.82654 C -191.53439,453.26836 -161.71326,473.32 -111.62186,455.87164 C -108.70871,450.50202 -121.80608,452.13573 -119.16845,442.53805 C -110.24247,439.39909 -105.71634,450.44245 -98.599309,443.46921 C -96.872871,428.49557 -111.54978,439.69679 -106.93077,428.10311 C -101.20312,424.14103 -92.045187,436.14343 -85.576759,424.24544 C -80.146465,412.84323 -98.544062,414.27217 -95.662921,404.34871 C -89.521312,399.29958 -83.942652,412.61386 -78.082517,408.00356 C -72.447594,392.85296 -89.893572,394.6192 -89.043714,388.08516 C -84.783292,381.34489 -77.92343,389.78744 -72.215561,388.83696 C -67.951903,370.48356 -83.81189,378.49256 -84.671707,369.40991 C -86.839018,367.31677 -68.179024,370.29018 -68.552006,363.1305 C -67.120782,349.9419 -79.508873,360.30517 -83.680067,349.74183 C -78.31779,346.6709 -65.523541,350.20617 -67.593237,340.52905 C -69.375908,332.43201 -81.112868,343.49516 -82.229906,332.28196 C -77.837359,329.41362 -66.500123,333.48997 -69.563558,323.16565 C -71.376224,316.44905 -81.070174,323.522 -86.823482,317.30762 C -87.179247,312.13416 -67.991593,317.75407 -76.895059,303.32176 C -79.354512,298.96026 -91.367836,306.21338 -94.478923,300.39414 C -95.427635,293.20613 -80.238425,294.62299 -83.716395,290.91933 C -87.774451,285.85778 -94.317448,289.49353 -99.709415,289.10067 C -115.32245,287.62376 -98.702242,281.98175 -93.150241,281.61751 C -97.647541,277.80142 -101.64866,272.12465 -107.71389,274.18832 C -108.3142,266.0746 -97.283675,253.29954 -105.30089,246.89685 C -108.34895,257.94235 -126.69751,254.20687 -130.87016,268.58269 C -133.45707,269.23066 -136.04397,266.51562 -138.63088,265.31325 C -139.03402,257.40663 -136.39355,249.16183 -140.15971,241.62888 C -140.17827,239.92677 -143.63429,240.49985 -143.86204,243.80237 C -146.96016,253.59855 -151.30342,258.82158 -155.94521,267.20429 L -220.76323,229.52731 C -227.28565,226.90594 -230.43223,227.53538 -225.7242,235.72853 C -219.50704,241.89771 -210.24824,238.37062 -213.35655,241.86092 C -216.96283,244.09054 -221.56245,246.17825 -216.71906,249.61496 C -208.79204,254.49849 -199.82991,246.20738 -197.21884,252.28159 C -200.32247,253.99315 -208.77567,254.01537 -204.83883,257.95023 C -201.67989,263.27986 -184.53987,257.72312 -181.37857,262.26834 C -184.99245,264.4481 -197.0654,263.75831 -192.18927,268.06477 C -186.74617,273.52279 -171.98374,267.11443 -169.2843,272.69651 C -169.47484,276.50376 -181.71074,273.99456 -176.73243,280.75632 L -171.15966,285.3321 C -169.34666,294.50689 -178.06794,297.70999 -176.12063,307.65647 L -214.56202,351.07111 C -221.12696,354.11621 -227.53074,357.22799 -222.26253,365.16956 C -221.8266,371.08119 -219.88081,376.23788 -212.74988,378.80201 C -199.53245,382.03815 -199.12696,366.09781 -191.74691,367.70151 C -185.2578,370.98526 -194.08445,379.46767 -192.85777,382.69731 C -180.15972,390.59094 -173.79672,374.85103 -171.15352,366.57415 C -159.10106,363.06013 -158.74694,359.5461 -155.03036,356.03208 L -145.72854,356.65221 L -146.96878,367.19427 z"
       id="path3449"
       style="fill:#1b1a1c;fill-opacity:1;fill-rule:evenodd;stroke:#1b1a1c;stroke-width:1px;stroke-linecap:butt;stroke-linejoin:miter;stroke-opacity:1" />
    <path
       d="M -194.21734,348.326 L -167.19579,325.52657 C -166.61958,323.06044 -168.51719,318.4337 -174.51413,319.33414 L -196.46913,342.13356 C -198.75758,345.06601 -196.87173,348.85654 -194.21734,348.326 z"
       id="path3451"
       style="fill:#ffffff;fill-rule:evenodd;stroke:none;stroke-width:1px;stroke-linecap:butt;stroke-linejoin:miter;stroke-opacity:1" />
    <path
       d="M -114.84156,322.71183 C -118.72522,335.12311 -128.77598,342.13816 -138.4854,349.4519 C -141.10386,352.42625 -138.02507,356.47661 -135.10771,356.77023 C -122.71695,348.64071 -111.84458,340.00506 -108.36764,328.90427 C -108.50019,325.85793 -110.01732,318.11031 -114.84156,322.71183 z"
       id="path3453"
       style="fill:#ffffff;fill-rule:evenodd;stroke:none;stroke-width:1px;stroke-linecap:butt;stroke-linejoin:miter;stroke-opacity:1" />
    <path
       d="M -203.78747,415.31691 C -212.84786,423.85096 -199.12841,428.37235 -194.21734,425.16851 C -182.99561,410.9076 -166.25754,406.5912 -153.12207,394.76928 C -152.5441,391.31087 -156.53609,387.72031 -161.56631,391.67306 C -175.64003,399.55434 -191.52538,404.71818 -203.78747,415.31691 z"
       id="path3455"
       style="fill:#ffffff;fill-rule:evenodd;stroke:none;stroke-width:1px;stroke-linecap:butt;stroke-linejoin:miter;stroke-opacity:1" />
    <path
       d="M -217.29824,358.74055 C -217.542,366.11478 -215.82814,369.08435 -213.07612,369.71805 C -207.43941,370.75012 -201.25116,363.90092 -209.69843,360.99235 C -211.65472,358.89547 -213.19243,355.82189 -217.29824,358.74055 z"
       id="path3457"
       style="fill:#ffffff;fill-rule:evenodd;stroke:none;stroke-width:1px;stroke-linecap:butt;stroke-linejoin:miter;stroke-opacity:1" />
    <path
       d="M -124.41168,268.95022 C -124.46361,273.70377 -119.03097,278.74383 -117.37482,274.57971 C -116.571,270.63907 -114.42489,266.69842 -110.61944,262.75778 C -110.45938,260.34593 -112.3755,260.01025 -115.96745,261.35041 C -120.92723,263.88368 -123.18732,266.41695 -124.41168,268.95022 z"
       id="path3459"
       style="fill:#ffffff;fill-rule:evenodd;stroke:none;stroke-width:1px;stroke-linecap:butt;stroke-linejoin:miter;stroke-opacity:1" />
    <path
       d="M -159.59598,287.52753 C -162.92374,290.22078 -160.79541,291.35515 -159.03304,292.59407 C -147.00909,293.93283 -145.1174,285.77258 -144.95932,275.98708 C -146.92964,274.7933 -148.89996,271.33502 -150.87028,275.7056 C -151.61964,283.96465 -155.11322,286.73528 -159.59598,287.52753 z"
       id="path3461"
       style="fill:#ffffff;fill-rule:evenodd;stroke:none;stroke-width:1px;stroke-linecap:butt;stroke-linejoin:miter;stroke-opacity:1" />
    <path
       d="M -143.83342,320.74151 C -140.41792,322.44015 -139.49443,320.40078 -139.04835,317.64529 C -140.21969,313.04787 -141.77984,308.45046 -146.64816,303.85304 C -150.02585,298.98495 -150.87028,310.21602 -153.40355,312.57875 C -154.89769,311.49731 -156.03764,307.9365 -156.78124,301.60125 C -160.24242,300.62602 -164.03468,297.82988 -166.0699,304.69747 C -161.59683,311.87528 -157.74589,323.20062 -151.15175,316.23792 L -147.49259,315.95644 L -143.83342,320.74151 z"
       id="path3463"
       style="fill:#ffffff;fill-rule:evenodd;stroke:none;stroke-width:1px;stroke-linecap:butt;stroke-linejoin:miter;stroke-opacity:1" />
  </g>
</svg>
