<?xml version="1.0" encoding="UTF-8" standalone="no"?>
<!-- Created with Inkscape (http://www.inkscape.org/) -->

<svg
   xmlns:dc="http://purl.org/dc/elements/1.1/"
   xmlns:cc="http://creativecommons.org/ns#"
   xmlns:rdf="http://www.w3.org/1999/02/22-rdf-syntax-ns#"
   xmlns:svg="http://www.w3.org/2000/svg"
   xmlns="http://www.w3.org/2000/svg"
   xmlns:sodipodi="http://sodipodi.sourceforge.net/DTD/sodipodi-0.dtd"
   xmlns:inkscape="http://www.inkscape.org/namespaces/inkscape"
   version="1.0"
   width="416"
   height="491"
   id="svg2"
   sodipodi:docname="DEU_Cadenberge_COA.svg"
   inkscape:version="0.92.3 (2405546, 2018-03-11)">
  <metadata
     id="metadata23">
    <rdf:RDF>
      <cc:Work
         rdf:about="">
        <dc:format>image/svg+xml</dc:format>
        <dc:type
           rdf:resource="http://purl.org/dc/dcmitype/StillImage" />
        <dc:title></dc:title>
      </cc:Work>
    </rdf:RDF>
  </metadata>
  <sodipodi:namedview
     pagecolor="#ffffff"
     bordercolor="#666666"
     borderopacity="1"
     objecttolerance="10"
     gridtolerance="10"
     guidetolerance="10"
     inkscape:pageopacity="0"
     inkscape:pageshadow="2"
     inkscape:window-width="1853"
     inkscape:window-height="1025"
     id="namedview21"
     showgrid="false"
     inkscape:zoom="1.1126012"
     inkscape:cx="60.296683"
     inkscape:cy="88.288889"
     inkscape:window-x="67"
     inkscape:window-y="27"
     inkscape:window-maximized="1"
     inkscape:current-layer="svg2" />
  <defs
     id="defs5" />
  <g
     id="g847"
     transform="matrix(3.578177,0,0,3.5814861,-7.7522055,-7.6645207)">
    <path
       id="path2161"
       style="fill:#ffffff;fill-rule:evenodd;stroke:#000000;stroke-width:2.17891884;stroke-linecap:butt;stroke-linejoin:miter;stroke-miterlimit:4;stroke-dasharray:none;stroke-opacity:1"
       d="M 3.4555067,3.4555071 H 117.13786 V 86.436482 c 0,0 -3.97277,51.482018 -56.84118,51.482018 -52.4609395,0 -56.8411733,-51.482018 -56.8411733,-51.482018 z"
       inkscape:connector-curvature="0" />
    <g
       id="g2200"
       transform="matrix(1.0894594,0,0,1.0894594,-5.1012286,-5.1012287)">
      <path
         id="path2184"
         style="fill:#ffffff;fill-opacity:1;fill-rule:evenodd;stroke:#000000;stroke-width:1.13847291px;stroke-linecap:butt;stroke-linejoin:miter;stroke-opacity:1"
         d="m 27.9918,44.867811 -4.821807,8.28464 -8.287777,-4.82362 4.821813,-8.284645 z"
         inkscape:connector-curvature="0" />
      <path
         id="path2179"
         style="fill:#ffffff;fill-opacity:1;fill-rule:evenodd;stroke:#000000;stroke-width:1.13847291px;stroke-linecap:butt;stroke-linejoin:miter;stroke-opacity:1"
         d="m 64.320145,19.477414 h -9.585668 v 9.58929 h 9.585668 z"
         inkscape:connector-curvature="0" />
      <path
         id="path2181"
         style="fill:#ffffff;fill-opacity:1;fill-rule:evenodd;stroke:#000000;stroke-width:1.13847291px;stroke-linecap:butt;stroke-linejoin:miter;stroke-opacity:1"
         d="m 88.562244,28.751291 -8.64019,-4.976983 -4.780443,8.312751 8.309613,4.778637 z"
         inkscape:connector-curvature="0" />
      <path
         id="path2183"
         style="fill:#ffffff;fill-opacity:1;fill-rule:evenodd;stroke:#000000;stroke-width:1.13817918;stroke-linecap:butt;stroke-linejoin:miter;stroke-miterlimit:4;stroke-dasharray:none;stroke-opacity:1"
         d="m 90.939246,43.989827 4.821807,8.28464 8.370417,-4.740976 -5.152386,-8.631751 z"
         inkscape:connector-curvature="0" />
      <path
         id="path2185"
         style="fill:#ffffff;fill-opacity:1;fill-rule:evenodd;stroke:#000000;stroke-width:1.13847291px;stroke-linecap:butt;stroke-linejoin:miter;stroke-opacity:1"
         d="m 99.000448,62.61981 v 9.585664 l 9.605822,0.297519 0.0331,-10.114587 z"
         inkscape:connector-curvature="0" />
      <path
         id="path2191"
         style="fill:#ffffff;fill-opacity:1;fill-rule:evenodd;stroke:#000000;stroke-width:1.13847291px;stroke-linecap:butt;stroke-linejoin:miter;stroke-opacity:1"
         d="m 65.260344,107.0676 h -9.585668 v 9.58929 l 9.833601,0.0331 z"
         inkscape:connector-curvature="0" />
      <path
         id="path2187"
         style="fill:#ffffff;fill-opacity:1;fill-rule:evenodd;stroke:#000000;stroke-width:1.13847291px;stroke-linecap:butt;stroke-linejoin:miter;stroke-opacity:1"
         d="m 90.762005,91.620017 8.177382,4.943926 5.077963,-8.676386 -8.474902,-4.580291 z"
         inkscape:connector-curvature="0" />
      <path
         id="path2189"
         style="fill:#ffffff;fill-opacity:1;fill-rule:evenodd;stroke:#000000;stroke-width:1.13847291px;stroke-linecap:butt;stroke-linejoin:miter;stroke-opacity:1"
         d="m 74.966561,104.36997 4.722634,8.35075 8.651406,-5.05502 -4.821807,-8.284644 z"
         inkscape:connector-curvature="0" />
      <path
         id="path2174"
         style="fill:#ffffff;fill-opacity:1;fill-rule:evenodd;stroke:#000000;stroke-width:1.13847291px;stroke-linecap:butt;stroke-linejoin:miter;stroke-opacity:1"
         d="m 44.609839,32.141821 -4.821806,-8.284637 -8.28778,4.823617 4.82182,8.28465 z"
         inkscape:connector-curvature="0" />
      <path
         id="path2180"
         style="fill:#ffffff;fill-opacity:1;fill-rule:evenodd;stroke:#000000;stroke-width:1.13847291px;stroke-linecap:butt;stroke-linejoin:miter;stroke-opacity:1"
         d="m 11.000448,62.61981 v 9.585664 H 20.58974 V 62.61981 Z"
         inkscape:connector-curvature="0" />
      <path
         id="path2172"
         style="fill:#ffffff;fill-opacity:1;fill-rule:evenodd;stroke:#000000;stroke-width:1.13847291px;stroke-linecap:butt;stroke-linejoin:miter;stroke-opacity:1"
         d="m 27.30082,89.824845 -4.821806,-8.284637 -8.28778,4.823617 4.82182,8.28465 z"
         inkscape:connector-curvature="0" />
      <path
         id="path2178"
         style="fill:#ffffff;fill-opacity:1;fill-rule:evenodd;stroke:#000000;stroke-width:1.13847291px;stroke-linecap:butt;stroke-linejoin:miter;stroke-opacity:1"
         d="m 32.191232,107.82485 4.82181,-8.284645 8.28778,4.823625 -4.82182,8.28465 z"
         inkscape:connector-curvature="0" />
      <path
         id="path2165"
         style="opacity:1;fill:#da121a;fill-opacity:1;stroke:#000000;stroke-width:1.37682962;stroke-linecap:round;stroke-linejoin:round;stroke-miterlimit:4;stroke-dasharray:none;stroke-dashoffset:0;stroke-opacity:1"
         d="M 54.5625,21.46875 V 26.875 c -3.948352,0.516144 -7.726434,1.587397 -11.25,3.125 l -2.59375,-4.46875 -8.28125,4.84375 2.59375,4.4375 c -3.379453,2.522607 -6.362499,5.558142 -8.84375,8.96875 l -4.8125,-2.8125 -4.8125,8.28125 4.90625,2.875 c -1.392777,3.309986 -2.377055,6.820341 -2.875,10.5 H 13 v 9.59375 h 5.40625 c 0.338416,3.610848 1.144519,7.0885 2.34375,10.375 l -4.875,2.84375 4.8125,8.28125 4.375,-2.5625 c 2.784732,4.247791 6.307549,7.952894 10.40625,10.9375 l -2.34375,4.0625 8.28125,4.8125 2.40625,-4.125 c 3.713637,1.56539 7.708057,2.60141 11.875,3.03125 v 4.78125 H 65.25 V 109.75 c 3.92504,-0.49023 7.677705,-1.49805 11.1875,-3 l 2.5,4.25 8.28125,-4.84375 -2.4375,-4.1875 C 88.114884,99.51394 91.08667,96.567129 93.5625,93.25 l 3.8125,2.21875 4.78125,-8.3125 -3.8125,-2.1875 c 1.72955,-3.966853 2.86166,-8.257526 3.28125,-12.75 h 4.96875 V 62.625 H 101.4375 C 100.87238,58.470036 99.66292,54.518005 97.96875,50.84375 L 102.1875,48.375 97.34375,40.09375 93,42.625 c -2.337982,-2.99751 -5.068185,-5.673568 -8.125,-7.9375 l 2.53125,-4.375 -8.3125,-4.78125 -2.53125,4.375 C 72.678841,28.229012 68.510717,27.144939 64.125,26.71875 v -5.25 z m -0.75,15.75 v 20.375 h -5.21875 v 6 H 27.25 c 0.251956,-13.789792 15.283384,-26.480631 26.5625,-26.375 z m 11.4375,0 c 11.279119,-0.105631 26.310544,12.585208 26.5625,26.375 H 70.5 v -6 H 65.25 Z M 55.34375,64.125 h 8.09375 v 8.09375 h -8.09375 z m -28,9 H 47.75 v 5.21875 h 5.96875 V 99.6875 C 39.928958,99.43554 27.238118,84.404118 27.34375,73.125 Z m 44,0 h 20.375 c 0.105633,11.279118 -12.585208,26.31054 -26.375,26.5625 V 78.34375 h 6 z"
         inkscape:connector-curvature="0" />
    </g>
    <path
       id="path2220"
       style="fill:none;fill-opacity:1;fill-rule:evenodd;stroke:#000000;stroke-width:1.09037697;stroke-linecap:butt;stroke-linejoin:miter;stroke-miterlimit:4;stroke-dasharray:none;stroke-opacity:1"
       d="m 114.93163,6.074977 v 80.007194 c 0,0 -4.25052,49.358239 -54.802716,49.618919 V 6.074977 Z"
       inkscape:connector-curvature="0" />
    <path
       id="path2215"
       style="fill:#da121a;fill-opacity:1;fill-rule:evenodd;stroke:#ffffff;stroke-width:1.08945942;stroke-linecap:butt;stroke-linejoin:miter;stroke-miterlimit:4;stroke-dasharray:none;stroke-opacity:1"
       d="M 4.6493442,5.0568077 V 85.817876 c 0,0 4.2189424,49.823314 54.3953968,50.086454 V 5.0568077 Z"
       inkscape:connector-curvature="0" />
  </g>
</svg>
