<svg height="481.88718" width="462.61218" xmlns="http://www.w3.org/2000/svg"><path d="m0 68.163586 47.404-56.978607s-6.34895 15.442359 11.09516 12.955684c27.23027-3.883153 66.5641-24.140663 180.54269-24.140663 87.13606 0 171.46627 27.040086 171.46627 27.040086s6.00254.290048 5.33631-13.518523c-.29975-6.219729 37.31815 51.180752 45.38934 53.111689 8.07119 1.931937-21.67889-4.635641-27.73016 19.505007-6.05128 24.144701-14.92854 224.819241-14.92854 224.819241s-18.15171 170.92968-188.6096 170.92968c-170.45784 0-190.62845-169.96523-190.62845-182.52033 0-12.55405-4.03665-152.5778-4.03665-152.5778s6.05332-93.11046-35.30037-78.625464z" fill="#231f20"/><path d="m437.32419 54.899618s-82.88968-44.025974-206.81958-44.025974c-123.92883 0-206.82065 44.025974-206.82065 44.025974l19.81784-33.94032s4.20823 9.444704 14.08647 7.082766c16.22184-3.876047 85.50913-24.277564 172.91634-24.277564 87.40722 0 178.56722 28.996367 183.08794 28.211434 4.52176-.783941 6.5046-3.679325 6.5046-3.679325z" fill="#fff" stroke="#231f20" stroke-width="1.8747"/><path d="m229.32116 472.97894c48.93514-.49965 87.33173-14.48134 118.3404-40.94236 27.15442-22.65508 57.66984-62.04292 64.45977-122.4553l2.1758-59.62152 4.85045-166.16532c.68943-10.924877.98967-20.425401 13.87107-29.876598-145.02628-59.817262-279.8618-51.091237-406.43927-.215628 8.60036 6.590648 15.86145 16.608073 14.67108 27.225627l4.33934 169.066599 1.47853 61.15889c2.66272 26.44816 10.47241 67.54015 62.70309 119.246 21.91886 17.69909 56.47226 41.48758 119.54974 42.57961z" fill="#ed1c24" fill-rule="evenodd"/><path d="m209.87302 472.17904c-.32031-.79776-145.347986-331.73916-148.40089-338.40103 0-.30393-3.98134-10.08925-9.332678-20.50285-3.970917-7.72732-9.471738-19.120187-10.573502-23.598846-.581433-2.363517-.693962-5.177402-.536061-7.476728 1.350143-19.660545-15.336998-28.166106-14.561963-28.47739 123.630844-49.742289 189.801554-40.442699 210.764224-41.691432.14227-.008541 15.61626.274413 17.05662 1.007256 8.64059 4.396264 7.52046 16.191353 9.73245 21.31011 46.2504 106.29847 90.93999 212.99751 138.01703 318.79422-26.69206 76.42872-95.29115 126.38204-192.16523 119.03669z" fill="#fff"/><g stroke="#231f20"><path d="m36.704984 76.542032 173.651256 398.754738" fill="none" stroke-width="4"/><path d="m254.58767 11.572794 149.558 342.956856" fill="none" stroke-width="4"/><path d="m257.31756 294.75955c-27.30511 35.63421-41.31822 73.96459-23.86931 119.77106 22.67756 41.29613 64.12243 22.53246 70.38196-14.44735 35.01408 21.74596 72.99045 3.01078 57.54939-40.49927-22.33809-42.91098-47.69991-61.50117-104.06204-64.82444z" fill="#231f20" fill-rule="evenodd"/><path d="m198.26108 163.13648c-27.30511 35.63421-41.31822 73.96459-23.86931 119.77106 22.67756 41.29613 64.12243 22.53246 70.38196-14.44735 35.01408 21.74596 72.99045 3.01078 57.54939-40.49927-22.33809-42.91098-47.69991-61.50117-104.06204-64.82444z" fill="#231f20" fill-rule="evenodd"/><path d="m139.19175 31.871283c-27.30511 35.63421-41.318224 73.964587-23.86931 119.771057 22.67756 41.29613 64.12243 22.53246 70.38196-14.44735 35.01408 21.74596 72.99045 3.01078 57.54939-40.499267-22.33809-42.91098-47.69991-61.50117-104.06204-64.82444z" fill="#231f20" fill-rule="evenodd"/></g></svg>