<!-- Created with Inkscape (http://www.inkscape.org/) -->
<svg xmlns:rdf="http://www.w3.org/1999/02/22-rdf-syntax-ns#" xmlns="http://www.w3.org/2000/svg" height="458" width="406" version="1.1" xmlns:cc="http://creativecommons.org/ns#" xmlns:dc="http://purl.org/dc/elements/1.1/">
 <metadata>
  <rdf:RDF>
   <cc:Work rdf:about="">
    <dc:format>image/svg+xml</dc:format>
    <dc:type rdf:resource="http://purl.org/dc/dcmitype/StillImage"/>
    <dc:title/>
   </cc:Work>
  </rdf:RDF>
 </metadata>
 <g transform="translate(0,-594.36217)">
  <g transform="translate(-27.335034,13.99997)">
   <path stroke-linejoin="miter" d="m33.335,591.73c126.24-3.6141,253.65-10.736,374.77,1.0102,15.657,2.1166,30.223,161.12,6.0609,285.37-24.16,124.29-126.65,129.29-144.16,134.29-17.513,5.0036-25,5-40,20-10-15-5.0944-18.104-35-25-29.91-6.9-101.12-28.48-129.34-68.17-28.22-39.7-29.849-66.39-23.234-118.19s13.647-154.39-9.091-229.31z" stroke="#000" stroke-linecap="butt" stroke-miterlimit="4" stroke-dasharray="none" stroke-width="6" fill="#FFF"/>
   <path stroke-linejoin="miter" d="m286,620.36,108.97,0.15979c6.5238-0.57504,3.6363,50.872,4.5457,77.782,0.90934,26.91-30.516,39.812-51.013,39.396-20.497-0.41624-49.774-1.6535-52.528-57.074,0.001-17.149-1.9051-36.201-9.9747-60.264z" stroke="#000" stroke-linecap="butt" stroke-miterlimit="4" stroke-dasharray="none" stroke-width="3" fill="#da121a"/>
   <path stroke-linejoin="round" d="m290.71,620.42,11.18,0.12516,56.663,116.47c-3.5348,0.28335-6.1788,0.56403-11.001,0.32127z" stroke="#000" stroke-linecap="butt" stroke-miterlimit="4" stroke-dasharray="none" stroke-width="3" fill="#FFF"/>
   <path stroke-linejoin="round" d="m312.87,620.42,11.18,0.12516,53.6,110.27c-3.0017,1.3733-5.9543,2.8202-9.4154,3.5043z" stroke="#000" stroke-linecap="butt" stroke-miterlimit="4" stroke-dasharray="none" stroke-width="3" fill="#FFF"/>
   <path stroke-linejoin="round" d="m335.19,620.48,11.18,0.12516,47.03,96.752c-1.5798,3.1694-3.9519,5.0106-7.2356,7.8154z" stroke="#000" stroke-linecap="butt" stroke-miterlimit="4" stroke-dasharray="none" stroke-width="3" fill="#FFF"/>
   <path stroke-linejoin="round" d="m295,661.36,104.45,0,0,24-102.98,0c-0.56779-7.4067-0.65978-15.173-1.4643-24z" stroke-dashoffset="0" stroke="#000" stroke-linecap="round" stroke-miterlimit="4" stroke-width="3" fill="#FFF"/>
   <path stroke-linejoin="round" d="M88.571,643.79c0.097-5.51-0.891-14.62-8.571-16.43-7.6804-1.8073-10.665,3.9098-10.714,9.2857-0.04961,5.3759,1.6049,11.683,11.429,13.214-5.9493,6.5061-2.257,23.602,7.8571,22.5,10.114-1.1019,15.532-3.8431,17.89-4.4007,2.3578-0.55764,38.854-8.3931,40.682-5.9564-9.5906,13.5,5.3298,21.024,14.286,16.071,8.9559-4.9525,9.9048-13.982-2.5-19.643-2.0131,0,25.578-6.4335,31.324-6.7424,5.7464-0.3089,16.102,0.81334,18.676-3.2576,2.5739-4.071,3.2954-14.066-2.5-18.214s-11.759-3.8028-14.791-0.54841c-3.0672-5.4762-6.8152-9.8713-4.8521-12.666,3.0487-3.9005,6.9959-0.97106,8.0484,7.0562,3.0952,2.619,3.906-6.5546,1.2373-10.27-2.6686-3.7159-7.3878-7.867-13.214-3.5714-5.8265,4.2955-6.3501,15.67,3.9286,20.357-10.952,2.5-29.912,10.298-32.857,7.5-2.9449-2.7985-17.565,0.10613-20.357,3.5714-2.7925,3.4653-22.619,4.5238-33.929,6.7857-5.0705-1.0229-9.9326-1.1231-13.214-0.35714-5.8091-4.8798-11.534-10.081-6.7857-13.214,3.281-1.167,5.8377,9.1448,8.9286,8.9286z" stroke="#000" stroke-linecap="round" stroke-miterlimit="4" stroke-dasharray="none" stroke-width="3" fill="#da121a"/>
   <path stroke-linejoin="round" d="m161.12,669.14c0,2.0224-1.696,3.6618-3.7881,3.6618s-3.7881-1.6394-3.7881-3.6618,1.696-3.6618,3.7881-3.6618,3.7881,1.6394,3.7881,3.6618z" transform="matrix(1.1949849,0,0,1.1672258,-31.687372,-111.77044)" stroke-dashoffset="0" stroke="#000" stroke-linecap="round" stroke-miterlimit="4" stroke-dasharray="none" stroke-width="2.540169" fill="#FFF"/>
   <path stroke-linejoin="round" d="M66.816,781.48,76.25,748.79,68.571,733.43,159.79,697.66c-4.0726-5.3025-10.627-10.695-9.0765-16.724,1.5503-6.0295,8.197-12.509,14.286-10.714,6.0887,1.7946,11.864,3.6317,6.7857,15.357-2.2041-6.8917-6.2131-10.077-9.6429-6.7857-3.4298,3.2918,0.25332,12.201,9.7295,14.077l81.342-31.934,115.71,212.14-18.571,9.6429-20.36,29.63,4.1071-21.786-15.536,7.8571-22.5,30.357,6.6072-22.5-20.18,9.82-25.36,35.54,7.86-26.79-37.5,18.75-20,28.929,3.9286-20.893-25.357,12.321-3.9286-0.89286-12.857,20,5.8929-34.643-25.714-51.25-15.714,21.607,9.6428-33.929-15.536-31.964-13.393,16.964,7.3214-29.107-18.214-36.786-16.607,19.286,10.536-31.607-15.862-32.482z" stroke="#000" stroke-linecap="round" stroke-miterlimit="4" stroke-dasharray="none" stroke-width="3" fill="#da121a"/>
   <path stroke-linejoin="miter" d="m99.821,746.65,64.378-26.219,37.525,74.286-63.332,28.005z" stroke="#000" stroke-linecap="butt" stroke-miterlimit="4" stroke-dasharray="none" stroke-width="3" fill="#FFF"/>
   <path stroke-linejoin="miter" d="m150.18,845.93,63.35-28.571,41.232,81.102-62.082,30.505z" stroke="#000" stroke-linecap="butt" stroke-miterlimit="4" stroke-dasharray="none" stroke-width="3" fill="#FFF"/>
   <path stroke-linejoin="miter" d="m190.67,710.47,52.987-20.758,35.88,70.209-52.345,23.11z" stroke="#000" stroke-linecap="butt" stroke-miterlimit="4" stroke-dasharray="none" stroke-width="3" fill="#FFF"/>
   <path stroke-linejoin="miter" d="m238.57,805.22,52.309-22.648,40.148,77.9-51.385,25.64z" stroke="#000" stroke-linecap="butt" stroke-miterlimit="4" stroke-dasharray="none" stroke-width="3" fill="#FFF"/>
   <path stroke-linejoin="round" d="m171.43,836.65-0.71428,13.903,13.362-19.747z" stroke="#000" stroke-linecap="round" stroke-miterlimit="4" stroke-dasharray="none" stroke-width="3" fill="#da121a"/>
   <path stroke-linejoin="round" d="m205.33,821.04-4.6429,17.475,14.791-17.247-1.8667-4.0781z" stroke="#000" stroke-linecap="round" stroke-miterlimit="4" stroke-dasharray="none" stroke-width="3" fill="#da121a"/>
   <path stroke-linejoin="round" d="m232.46,855.63-6.0714,23.903,12.112-12.426z" stroke="#000" stroke-linecap="round" stroke-miterlimit="4" stroke-dasharray="none" stroke-width="3" fill="#da121a"/>
   <path stroke-linejoin="round" d="m249.18,801.13-1.0714,14.26,9.4336-18.14z" stroke="#000" stroke-linecap="round" stroke-miterlimit="4" stroke-dasharray="none" stroke-width="3" fill="#da121a"/>
   <path stroke-linejoin="round" d="m278.87,788.2-0.17857,10.867,12.291-16.533z" stroke="#000" stroke-linecap="round" stroke-miterlimit="4" stroke-dasharray="none" stroke-width="3" fill="#da121a"/>
   <path stroke-linejoin="round" d="m304.65,809.52-7.5,26.225,12.827-15.64z" stroke="#000" stroke-linecap="round" stroke-miterlimit="4" stroke-dasharray="none" stroke-width="3" fill="#da121a"/>
   <path stroke-linejoin="round" d="m259.14,719.75-8.3928,23.367,12.648-14.747z" stroke="#000" stroke-linecap="round" stroke-miterlimit="4" stroke-dasharray="none" stroke-width="3" fill="#da121a"/>
   <path stroke-linejoin="round" d="m233.85,693.83,0.17858,18.189,9.4336-22.069z" stroke="#000" stroke-linecap="round" stroke-miterlimit="4" stroke-dasharray="none" stroke-width="3" fill="#da121a"/>
   <path stroke-linejoin="round" d="m204.14,705.62-0.71428,15.689,13.541-21.176z" stroke="#000" stroke-linecap="round" stroke-miterlimit="4" stroke-dasharray="none" stroke-width="3" fill="#da121a"/>
   <path stroke-linejoin="round" d="m157.91,723.29,0.35715,18.01,8.7194-15.283-2.6408-5.6043z" stroke="#000" stroke-linecap="round" stroke-miterlimit="4" stroke-dasharray="none" stroke-width="3" fill="#da121a"/>
   <path stroke-linejoin="round" d="m120.05,738.38,0.17858,16.76,13.184-22.247z" stroke="#000" stroke-linecap="round" stroke-miterlimit="4" stroke-dasharray="none" stroke-width="3" fill="#da121a"/>
   <path stroke-linejoin="round" d="m179.61,751.1-9.2572,25.52,14.12-15.707z" stroke="#000" stroke-linecap="round" stroke-miterlimit="4" stroke-dasharray="none" stroke-width="3" fill="#da121a"/>
   <path stroke-linejoin="round" d="m256.03,779.91c0.12011,8.1723,9.5906,4.9073,7.0943-1.9697m-155.29,7.4551c7.8451,2.2924,2.1757,10.551-3.7881,6.3134m88.788-46.671c7.8451,2.2924,2.1757,10.551-3.7881,6.3134m26.168,47.634c1.2382,8.0788,10.172,3.5477,6.7577-2.9227m-49.105,21.196c-0.22385,8.1701,9.3756,5.3065,7.1709-1.6694m-47.471,16.902c6.2496,5.2672-2.2737,10.531-6.0163,4.2442m25.686,47.793c-0.75776,8.138,9.0085,5.9084,7.2647-1.1968m25.211,57.123c-5.8875,5.669,2.9653,10.357,6.2839,3.8369m37.195-21.396c7.8451,2.2924,2.1757,10.551-3.7881,6.3134m18.085-79.669c4.5497,6.7898,10.716-1.1046,4.8787-5.5143m28.374,61.731c-7.8451-2.2924-2.1757-10.551,3.7881-6.3134m37.591-12.972c7.8451-2.2924,2.1757-10.551-3.7881-6.3134m36.451-18.819c8.1584-0.49135,5.6108,9.1968-1.4337,7.2218m-34.433-65.091c4.5497,6.7898,10.716-1.1046,4.8787-5.5143m-24.663-40.21c8.1659-0.34345,5.4432,9.2969-1.5643,7.1946m-24.325-53.324c8.1728,0.0736,4.9618,9.5625-1.9293,7.1054m-16.69-45.82c7.8451,2.2924,2.1757,10.551-3.7881,6.3134m-25.993,4.8273c-7.1325-3.991-9.0525,5.8407-1.8503,7.1264m-85.557,24.955c-4.9413,6.5103,4.5294,9.7748,6.8011,2.8204m-53.185,16.458c7.8451,2.2924,2.1757,10.551-3.7881,6.3134m74.82-43.153,19.445-7.3236m10.687,272.57,174.04-86.832m-285.11-128.27,105.83,213.88m-7.9715-263.28c-7.8451,2.2924-2.1757,10.551,3.7881,6.3134" stroke="#000" stroke-linecap="round" stroke-miterlimit="4" stroke-dasharray="none" stroke-width="3" fill="none"/>
   <path stroke-linejoin="round" d="m168.19,668.63c0.18885,4.3514-3.0206,8.0924-6.566,10.67m-63.635-30.75c2.9524,4.261,4.8079,12.452,2.0203,21.718m35.103-28.284c4.4976,10.023,8.7031,17.679,12.23,19.835,3.0884-3.3582,7.0259-4.7021,11.761-3.2116,1.6334-5.6759-1.324-12.663-4.2929-19.654m37.123-9.3439c-2.0966-1.0469-3.4428-0.56681-5.4602,0.9998,0.15718,4.9699,2.5882,15.293,5.938,20.166m-30.936,18.688c0.45321,3.2603-0.74802,8.7308,0.0273,10.781m-74.627-32.46c-2.4492,0.49709-4.5376,1.3549-6.3134,2.5254" stroke="#000" stroke-linecap="round" stroke-miterlimit="4" stroke-dasharray="none" stroke-width="3" fill="none"/>
   <path style="baseline-shift:baseline;block-progression:tb;color:#000000;direction:ltr;text-indent:0;text-align:start;enable-background:accumulate;text-transform:none;" d="m162.28,667.84c-0.0378,1.2519,1.5722,4.7766,0.63452,6.0286,1.4854,0.14507,1.4141-1.3333,2.7329-1.204,1.066-1.0986,0.97574-3.7052,0.94384-4.6396-1.6123-0.0165-2.8735,0.49555-4.3112-0.18496z" fill="#da121a"/>
  </g>
 </g>
</svg>
