<!-- Created with Inkscape (http://www.inkscape.org/) -->
<svg xmlns:rdf="http://www.w3.org/1999/02/22-rdf-syntax-ns#" xmlns="http://www.w3.org/2000/svg" height="592" width="492" version="1.1" xmlns:cc="http://creativecommons.org/ns#" xmlns:dc="http://purl.org/dc/elements/1.1/">
 <metadata>
  <rdf:RDF>
   <cc:Work rdf:about="">
    <dc:format>image/svg+xml</dc:format>
    <dc:type rdf:resource="http://purl.org/dc/dcmitype/StillImage"/>
    <dc:title/>
   </cc:Work>
  </rdf:RDF>
 </metadata>
 <path fill="#078930" d="m6.3,5.7,240,0,0,580c-130,0-240-70-240-210z"/>
 <path fill="#FFF" d="m486.3,5.7-240,0,0,580c110,0,240-70,240-210z"/>
 <path stroke-linejoin="miter" d="m6.3,5.7,480,0,0,380c0,110-110,200-240,200s-240-90-240-200z" stroke="#000" stroke-linecap="butt" stroke-miterlimit="4" stroke-dasharray="none" stroke-width="6.5999999" fill="none"/>
 <path stroke-linejoin="miter" d="m347.74,498.28c11.78,0.314,22.154-1.0267,20.943-15.998,1.3315-15.397,2.5534-31.874,8.7261-44.794,3.577-9.0931,24.114-20.983,27.633-13.38,3.9644-11.127-3.1492-10.525-12.217-7.8535,7.4656-8.5943,14.931-15.755,22.397-34.032-4.46,2.2332-8.92,3.578-13.38,7.2717,13.048-21.814,13.38-24.761,11.635-49.157-5.8529,12.055-12.607,15.104-19.197,19.779,3.146-15.051,18.094-23.128,6.1082-47.121-4.6539,8.6726-9.8896,16.236-14.543,19.488,0.0381-21.99-1.6852-42.21-22.688-61.083-6.7747,40.101-18.828,15.196-14.253,60.21-6.8525-1.9365-11.414-10.744-15.998-19.488-8.0876,24.444,1.6438,30.407,8.7261,44.794-11.909-7.8935-23.918-16.693-34.323-11.053,17.62,13.351,8.5584,25.466,26.178,39.267-14.524-2.618-19.193-9.3418-24.724-15.707,0.91703,28.483,18.333,34.755,31.705,54.393-7.069-2.0537-12.406-1.2201-17.161,0.58174,16.495,4.2532,27.47,17.808,30.832,31.414,3.7681,23.007-1.0302,33.165-6.3991,42.467z" stroke="#000" stroke-linecap="butt" stroke-miterlimit="4" stroke-dasharray="none" stroke-width="3" fill="#078930"/>
 <path stroke-linejoin="round" d="m30.987,349.36c2.6886-15.934,8.5936-27.332,20.049-32.307,2.9291,30.797,3.7744,60.553-2.0154,86.991-19.379,9.1149,6.2353,17.077,9.1788,6.017,5.8417-22.494,14.294-36.284,23.399-47.902-6.8912,17.49-8.1613,40.663-6.3991,66.9-5.3841,15.604-9.9629,11.09-14.855,14.402,8.2482,8.6617,16.085-2.0671,24.745,0.72289,4.1444-16.776,16.104-36,2.9087-52.938,17.08,15.657,9.6788,30.276,23.199,44.453l2.3975-32.818c3.0036,13.768,7.2096,25.479,11.053,41.303,9.6596-20.351,9.8457,37.111-23.992,45.517l19.056,9.1667c7.2452-8.5419,20.569-17.084,35.428-25.626,1.2086-15.584-1.4175-28.808,13.239-52.668l-19.209-28.658c13.523,23.791,25.938,30.804,33.512,60.584l23.681,16.018,23.411-4.2426c-18.323-16.329-33.084-35.572-39.388-61.735,7.8912,10.337,23.637,30.093,23.554,16.048l13.049,14.938c-3.5149-10.101-5.302-18.526-3.2031-23.182-21.306-15.25-34.696-27.813-35.116-43.601,19.419,23.579,15.144,7.0907,39.429,26.626,5.6613-21.634-22.964-42.296-40.255-56.359l8.741-2.0918c-23.553-15.132-44.413-30.934-35.286-54.202,10.414-4.0182,28.07-5.6224,44.806-7.5334-3.2674-3.9516,1.4501-10.565,4.3879-16.585,11.487-1.4401,19.409-14.242,17.224-16.633-40.913,5.1278-82.158,8.7994-117.75,37.331-0.62944-13.908,9.042-38.189,14.643-59.367,23.186-34.917,65.21-40.08,98.482-51.797l-4.1288-4.9256,9.819-49.776c-23.156,13.42-46.312,13.634-69.468,20.161l1.2031-3.6605c-23.907-1.3166-22.373-14.04-16.499-23.981,8.155-16.537,19.195-30.755,36.479-37.896,1.2268-6.6573,6.7036-14.377,12.217-22.106-23.536,8.7663-40.179,13.048-57.01,17.452l-25.015,40.722,8.7261-1.1635c-7.4103,9.7748-13.598,16.282-18.827,21.695-11.033,7.63-6.723,8.37-13.646,20.1-2.99-11.77-5.979-17.12-8.968-37.67,9.661-18.067,20.803-35.097,19.921-60.543-15.644,17.766-32.134,29.602-48.866,39.746-1.214,13.897-9.571,13.507-14.676,19.627l11.127,50.369c-7.694,37.973-15.388,48.312-23.082,48.073,4.8899,16.858,12.224,4.034,18.275-4.8656-5.1386,22.247,1.872,54.435-15.437,66.725,18.578,3.9233,20.816-3.6464,23.07-19.122-0.90899,22.419-4.8753,43.132-15.607,54.637,11.947,0.8251-3.0822,11.766-6.7449,18.445,1.3679,10.803-3.1496,29.172,5.041,31.203z" stroke="#000001" stroke-linecap="round" stroke-miterlimit="4" stroke-dasharray="none" stroke-width="3" fill="#FFF"/>
 <path stroke-linejoin="miter" d="m147.1,153.35c-17.386,16.028-15.741,13.69-17.913-8.1501,14.9-10.632,10.164-10.254,26.87-6.8674-10.112-2.5957-10.335,5.357-8.9565,15.017z" stroke="#000" stroke-linecap="butt" stroke-miterlimit="4" stroke-dasharray="none" stroke-width="3" fill="#000"/>
 <path stroke-linejoin="miter" d="m238.08,181.82c5.1387,5.7304-0.18983,22.563-11.825,27.728-10.36,4.9782-47.334,14-62.199,21.453-20.432,8.608-35.496,21.78-51.842,32.95,6.1601-18.051,7.2552-40.535,18.977-53.719,2.2483,3.4469,1.8269,11.699,11.302,2.1373l-0.99874,14.838c20.404-16.588,46.358-19.108,56.594-28.517,23.695-26.903,35.212-20.995,39.992-16.87z" stroke="#000" stroke-linecap="butt" stroke-miterlimit="4" stroke-dasharray="none" stroke-width="3" fill="#da121a"/>
 <path stroke-linejoin="miter" d="m203.47,240.57c5.7221-12.167,9.2071-12.254,11.053-3.4904,1.5018-6.8491,0.36969-16.023,3.7813-20.652,4.0254,3.1733,1.5604,11.786,2.0361,16.87,3.8-2.2581,7.6838-0.71501,6.1083,6.3991-41.666,5.559-82.703,11.921-114.6,36.068l3.7813-11.344c4.0722-1.3129,8.1443-3.0122,12.217-8.1443l6.69,4.0722c1.243-4.5035,0.47298-9.9675,3.1996-10.762,7.416-4.727,3.4624-4.0275,9.3078,0.87261l2.6178-6.9809c3.4645-1.0339,5.9938,2.6081,8.7261,5.2356,2.9624-1.5409,3.9929-6.9454,4.6539-13.089,2.9087,1.0088,5.8174,7.0034,8.7261,10.762,2.6016-6.1489,3.8182-15.76,7.8535-18.325,3.2988,8.4386,2.4696,10.685,2.9087,14.834,12.141-3.8625,11.347-25.936,13.671-30.541,8.5647,5.6613,6.7104,18.86,7.2717,28.214z" stroke="#000" stroke-linecap="butt" stroke-miterlimit="4" stroke-dasharray="none" stroke-width="3" fill="#FFF"/>
 <path stroke-linejoin="miter" d="m132.06,209.3c-0.66555,6.8924,2.801,10.436,10.908,1.018l0.29087-8.7261c1.9391,3.19,3.8783,7.8555,5.8174,6.69,4.9668-3.1088,3.7063-9.954,5.2356-15.125,2.9131,4.1386,5.3668,9.4566,9.017,8.4352,3.7874-2.0738,4.4243-10.17,5.2356-17.452,1.328,5.7707,2.3227,13.207,4.363,15.416,3.0115-2.4064,4.622-9.0156,6.1083-15.998,1.8978,4.5712,3.2373,8.0258,4.363,11.053,2.2062-0.91849,3.7986-5.52,5.2356-11.053,1.0582,3.9891,3.3049,5.9973,6.69,6.1082l1.4544-12.217c3.749,0.10505,2.7986,8.4339,3.7813,13.38l7.5626-12.217c4.8236,0.6788,4.8396-2.088,5.2356-9.1624-32.09,10.262-51.44,9.9746-81.298,39.849z" stroke="#000" stroke-linecap="butt" stroke-miterlimit="4" stroke-dasharray="none" stroke-width="3" fill="#FFF"/>
 <path stroke-linejoin="miter" d="m427.29,271.41c-9.9648-0.18141-18.682-1.9354-17.123-16.643-0.57501-15.234-1.0189-31.527-5.7728-44.521-2.6975-9.113-19.625-21.689-22.869-14.342-2.9522-11.134,3.0368-10.244,10.602-7.2327-6.0009-8.7833-12.053-16.154-17.708-34.482,3.6886,2.3874,7.4089,3.8989,11.045,7.7261-10.246-22.048-10.421-24.967-8.0745-48.943,4.5146,12.128,10.112,15.414,15.514,20.298-2.1205-14.968-14.462-23.554-3.4778-46.706,3.6224,8.7434,7.7759,16.418,11.592,19.817,0.75331-21.679,2.9316-41.54,21.351-59.269,4.2917,39.813,15.365,15.765,9.8916,59.948,5.859-1.6234,10.028-10.116,14.213-18.545,5.9602,24.434-2.475,29.907-8.9729,43.794,10.344-7.285,20.805-15.459,29.395-9.4656-15.365,12.427-8.1408,24.747-23.521,37.618,12.365-1.9756,16.551-8.4091,21.451-14.453-1.7922,28.04-16.732,33.497-28.731,52.298,6.0461-1.7299,10.525-0.68575,14.479,1.2887-14.089,3.5053-23.846,16.41-27.173,29.683-4.0056,22.523-0.31427,32.737,3.8898,42.13z" stroke="#000" stroke-linecap="butt" stroke-miterlimit="4" stroke-dasharray="none" stroke-width="3" fill="#078930"/>
 <path stroke-linejoin="miter" d="m297.24,273.83c9.8806,0.4504,18.622-0.76826,17.978-15.736,1.5014-15.364,2.9377-31.807,8.4409-44.641,3.2291-9.0411,20.764-20.678,23.528-13.044,3.605-11.068-2.3811-10.549-10.059-7.9862,6.4808-8.4977,12.926-15.564,19.648-33.732-3.7993,2.1789-7.5765,3.4703-11.412,7.108,11.496-21.637,11.848-24.577,10.991-48.965-5.2133,11.973-10.958,14.94-16.607,19.533,3.0158-14.997,15.765-22.891,6.3016-46.995-4.1226,8.6085-8.7058,16.102-12.693,19.297,0.57999-21.964-0.36258-42.18-17.522-61.275-6.686,39.975-16.183,14.96-13.464,59.975-5.7036-2.0138-9.3134-10.864-12.943-19.651-7.3978,24.322,0.62193,30.391,6.2082,44.843-9.7992-8.0225-19.66-16.951-28.534-11.439,14.457,13.54,6.5491,25.535,20.995,39.526-12.126-2.7836-15.878-9.5537-20.361-15.976,0.0599,28.461,14.523,34.927,25.257,54.698-5.8824-2.1333-10.383-1.3627-14.419,0.38186,13.74,4.4398,22.614,18.107,25.097,31.735,2.5895,23.024-1.6913,33.115-6.4298,42.343z" stroke="#000" stroke-linecap="butt" stroke-miterlimit="4" stroke-dasharray="none" stroke-width="3" fill="#078930"/>
 <path stroke-linejoin="round" d="m364.32,323.76c-3.3898,21.427,5.0649,35.095-0.58173,53.811m-168.02-34.22c5.6233,8.2734,6.4527,10.954,7.5626,13.962m6.2323-2.1031c4.1194,6.1821,7.9247,14.226,8.4352,21.815m-54.88-96.972c-20.37,3.2349-33.664,12.662-48.11,21.08-4.0103-2.0109-8.0205-4.4284-12.031-2.6978-0.69537-6.6272-4.876-12.557-9.386-18.422m54.228,25.27c0.47483,6.9928,0.19113,14.896,4.363,17.452m32.152-47.514c-3.6362-3.6842-17.455-2.009-35.777,2.0361m65.274-20.946c-8.419-0.75948-10.441,4.8779-15.416,7.5626m-84.773-22.429-1.3089,16.289-4.7994-18.325m20.943-26.76-10.471,11.053m-33.142-3.48-0.291,13.67m134.38-72.42c-29.606,7.6762-53.707,20.098-69.227,31.996m61.955-46.83-14.834,10.762m-3.4904-32.577c-0.28689,5.8586-8.8004,6.7812-16.58,8.1443m-53.229-11.926c-12.631,1.006-23.542,4.0891-33.123,8.7799l-3.2362,13.326m46.83-1.4544c-8.3536,6.4668-12.143,6.8642-17.743,9.8896m-51.492-38.4c-5.3305,22.3,5.605,23.233,3.1996,44.212m73.008,70.1c-12.472,11.166-20.679,20.438-26.178,28.505m253.35,226.59c-4.4445-0.15903-8.6161-1.4095-14.543,4.363m8.7261-0.29088c-0.93585,3.912-3.0531,6.6425-7.8535,6.69m65.06-394.65c2.0987,21.264-5.533,34.385-1.4306,53.071m-7.4372,103.33c3.7609,0.0284,7.3303-1.0304,12.132,4.9072m-7.3624-0.65042c0.65098,3.8954,2.3424,6.6754,6.3966,6.9222m-106.31-166.56c-3.3794,21.363,3.3768,35.113-1.8294,53.742m1.0453,104.93c-3.7267-0.21044-7.1971-1.5079-12.316,4.1892m7.3318-0.18926c-0.88304,3.8966-2.7283,6.5994-6.7588,6.5911m-253.95-113.03l0.29087,11.926m-4.9448-20.07c3.6722,7.2499,9.1725,11.941,9.3078,24.142" stroke="#000" stroke-linecap="round" stroke-miterlimit="4" stroke-dasharray="none" stroke-width="3" fill="none"/>
 <path stroke-linejoin="miter" d="m246.3,5.7,0,580" stroke="#000" stroke-linecap="butt" stroke-miterlimit="4" stroke-dasharray="none" stroke-width="3" fill="none"/>
</svg>
