<?xml version="1.0" encoding="UTF-8" standalone="no"?>
<!-- Created with Inkscape (http://www.inkscape.org/) -->

<svg
   xmlns:dc="http://purl.org/dc/elements/1.1/"
   xmlns:cc="http://creativecommons.org/ns#"
   xmlns:rdf="http://www.w3.org/1999/02/22-rdf-syntax-ns#"
   xmlns:svg="http://www.w3.org/2000/svg"
   xmlns="http://www.w3.org/2000/svg"
   xmlns:sodipodi="http://sodipodi.sourceforge.net/DTD/sodipodi-0.dtd"
   xmlns:inkscape="http://www.inkscape.org/namespaces/inkscape"
   width="558.08917"
   height="611.1825"
   id="svg3157"
   version="1.1"
   inkscape:version="0.48.4 r9939"
   sodipodi:docname="DEU_Frohnlach.svg">
  <defs
     id="defs3159" />
  <sodipodi:namedview
     id="base"
     pagecolor="#ffffff"
     bordercolor="#666666"
     borderopacity="1.0"
     inkscape:pageopacity="0.0"
     inkscape:pageshadow="2"
     inkscape:zoom="0.7"
     inkscape:cx="284.66398"
     inkscape:cy="250.43698"
     inkscape:document-units="px"
     inkscape:current-layer="layer6"
     showgrid="false"
     inkscape:snap-bbox="true"
     fit-margin-top="0"
     fit-margin-left="0"
     fit-margin-right="0"
     fit-margin-bottom="0"
     inkscape:window-width="1280"
     inkscape:window-height="1002"
     inkscape:window-x="-8"
     inkscape:window-y="-8"
     inkscape:window-maximized="1" />
  <metadata
     id="metadata3162">
    <rdf:RDF>
      <cc:Work
         rdf:about="">
        <dc:format>image/svg+xml</dc:format>
        <dc:type
           rdf:resource="http://purl.org/dc/dcmitype/StillImage" />
        <dc:title></dc:title>
      </cc:Work>
    </rdf:RDF>
  </metadata>
  <g
     inkscape:groupmode="layer"
     id="layer6"
     inkscape:label="Innenfläche"
     style="display:inline"
     transform="translate(-87.6425,-149.35343)">
    <path
       style="color:#000000;fill:#ffffff;stroke:#000000;stroke-width:1px;stroke-linecap:butt;stroke-linejoin:miter;stroke-miterlimit:4;stroke-opacity:1;stroke-dasharray:none;stroke-dashoffset:0;marker:none;visibility:visible;display:inline;overflow:visible;enable-background:accumulate"
       d="m 637.15,158.38954 c 0,0 -13.96618,236.01247 -20.88761,371.6774 -6.92143,135.66493 -133.3321,220.83684 -249.11596,220.84448 -115.78387,0.008 -242.19454,-85.864 -249.11597,-221.52893 C 111.10903,393.71756 97.142857,158.40483 97.142857,158.40483 279.05,158.39921 455.24286,158.3944 637.15,158.38954 z"
       id="path4545"
       inkscape:connector-curvature="0"
       sodipodi:nodetypes="czczcc" />
  </g>
  <g
     inkscape:groupmode="layer"
     id="layer5"
     inkscape:label="Außenrand"
     style="display:inline"
     transform="translate(-87.6425,-149.35343)">
    <path
       style="fill:none;stroke:#000000;stroke-width:1px;stroke-linecap:butt;stroke-linejoin:miter;stroke-opacity:1;display:none"
       d="m 640.71786,153.78693 c 0,0 -16.82332,239.21253 -23.74475,374.87746 -6.92143,135.66493 -133.3321,220.83684 -249.11596,220.84448 -115.78387,0.008 -242.19454,-85.16426 -249.11597,-220.82919 -6.92143,-135.66493 -23.744751,-374.87746 -23.744751,-374.87746 181.907151,-0.006 363.814291,-0.0104 545.721431,-0.0153 z"
       id="path3181-8-8"
       inkscape:connector-curvature="0"
       sodipodi:nodetypes="czczcc" />
    <path
       sodipodi:nodetypes="czczcc"
       inkscape:connector-curvature="0"
       id="path4519"
       d="m 639.66556,155.41953 c 0,0 -14.12008,238.61286 -21.11778,375.77253 C 611.5501,668.35172 483.74666,754.46219 366.68706,754.46983 249.62743,754.47783 121.82418,667.65993 114.82639,530.50026 107.82858,393.34044 93.708601,155.435 93.708601,155.435 277.61994,155.429 455.75418,155.4246 639.66556,155.4197 z"
       style="color:#000000;fill:none;stroke:#000000;stroke-width:12.13220215;stroke-linecap:butt;stroke-linejoin:miter;stroke-miterlimit:4;stroke-opacity:1;stroke-dasharray:none;stroke-dashoffset:0;marker:none;visibility:visible;display:inline;overflow:visible;enable-background:accumulate" />
  </g>
  <g
     inkscape:groupmode="layer"
     id="layer2"
     inkscape:label="Blumen"
     style="display:inline"
     transform="translate(1.4843749e-7,2.1484375e-6)">
    <path
       style="fill:#078930;stroke:#000000;stroke-width:2;stroke-linecap:butt;stroke-linejoin:miter;stroke-miterlimit:4;stroke-opacity:1;stroke-dasharray:none;display:inline"
       d="m 252.41187,139.31499 c 6.16003,5.23714 16.56328,4.467 21.59201,19.82424 l 3.28299,-4.29315 c -1.12812,2.77692 -8.43725,-13.36892 -11.86929,-30.55711 -2.25022,-11.26949 -23.23351,-26.769045 -23.23351,-26.769045 0,0 -3.69727,29.956245 10.2278,41.795065 z"
       id="path5965"
       inkscape:connector-curvature="0"
       sodipodi:nodetypes="sccscs" />
    <path
       style="fill:#078930;stroke:#000000;stroke-width:2;stroke-linecap:butt;stroke-linejoin:miter;stroke-miterlimit:4;stroke-opacity:1;stroke-dasharray:none;display:inline"
       d="m 309.10668,127.69823 c -9.49145,0.0561 -28.86875,24.84219 -33.58757,45.3306 l 0.75761,8.08122 c 0.2734,-8.47553 20.91141,-14.09578 26.51651,-23.73859 5.43235,-9.34561 6.31345,-29.67323 6.31345,-29.67323 z"
       id="path5967"
       inkscape:connector-curvature="0"
       sodipodi:nodetypes="cccsc" />
    <path
       style="fill:#078930;stroke:#000000;stroke-width:2;stroke-linecap:butt;stroke-linejoin:miter;stroke-miterlimit:4;stroke-opacity:1;stroke-dasharray:none;display:inline"
       d="m 310.36937,163.93746 c 0,0 -7.42329,12.94017 -6.65265,24.77675 0.69979,10.74825 14.6192,27.15156 14.6192,27.15156 0,0 3.29545,0.33265 1.55166,-10.91701 -1.53774,-9.92043 2.59723,-14.1795 2.09854,-17.7778 -1.18864,-8.57664 -11.61675,-23.2335 -11.61675,-23.2335 z"
       id="path5973"
       inkscape:connector-curvature="0"
       sodipodi:nodetypes="cscssc" />
    <path
       style="fill:#078930;stroke:#000000;stroke-width:2;stroke-linecap:butt;stroke-linejoin:miter;stroke-miterlimit:4;stroke-opacity:1;stroke-dasharray:none;display:inline"
       d="m 323.82786,204.97073 c 0,0 2.40842,-3.49896 6.75608,-2.94325 7.56785,0.96732 21.49045,-5.38424 29.59935,-5.83648 4.04308,-0.22549 8.77493,2.59672 8.77493,2.59672 0,0 -11.36542,13.91169 -19.44544,16.66752 -9.33397,3.18351 -28.29696,-4.01523 -28.29696,-4.01523 z"
       id="path5975"
       inkscape:connector-curvature="0"
       sodipodi:nodetypes="csscscc" />
    <path
       style="fill:#078930;stroke:#000000;stroke-width:2;stroke-linecap:butt;stroke-linejoin:miter;stroke-miterlimit:4;stroke-opacity:1;stroke-dasharray:none;display:inline"
       d="m 304.81353,248.28519 c 0,0 12.81695,-14.34326 21.46574,-17.67767 6.68365,-2.57678 21.46574,-1.01015 21.46574,-1.01015 0,0 -13.12492,14.59753 -21.97081,17.93021 -6.54253,2.46489 -20.96067,0.75761 -20.96067,0.75761 z"
       id="path5977"
       inkscape:connector-curvature="0"
       sodipodi:nodetypes="cscsc" />
    <path
       style="fill:none;stroke:#000000;stroke-width:2;stroke-linecap:round;stroke-linejoin:miter;stroke-miterlimit:4;stroke-opacity:1;stroke-dasharray:none;display:inline"
       d="m 291.42901,154.34101 c -11.33826,12.47661 -10.8351,17.1488 -14.39467,23.99112"
       id="path5969"
       inkscape:connector-curvature="0"
       sodipodi:nodetypes="cc" />
    <path
       style="fill:#078930;stroke:#000000;stroke-width:2;stroke-linecap:butt;stroke-linejoin:miter;stroke-miterlimit:4;stroke-opacity:1;stroke-dasharray:none;display:inline"
       d="m 191.38058,199.36939 c 0,0 13.42487,13.88429 23.70531,16.29243 8.11518,1.90093 17.43721,-6.37238 28.30697,-3.4079 -1.13998,-1.53842 -1.97681,-6.03091 -5.51908,-5.42415 -6.24345,1.06945 -17.20985,-8.04631 -21.26663,-9.39728 -8.39791,-2.79663 -25.22657,1.9369 -25.22657,1.9369 z"
       id="path5979"
       inkscape:connector-curvature="0"
       sodipodi:nodetypes="cscssc" />
    <path
       style="fill:none;stroke:#000000;stroke-width:2;stroke-linecap:round;stroke-linejoin:miter;stroke-miterlimit:4;stroke-opacity:1;stroke-dasharray:none;display:inline"
       d="m 261.62951,135.65318 c 9.78363,7.91801 10.24664,15.36999 13.8896,22.98097"
       id="path5971"
       inkscape:connector-curvature="0"
       sodipodi:nodetypes="cc" />
    <path
       style="fill:#078930;stroke:#000000;stroke-width:2;stroke-linecap:butt;stroke-linejoin:miter;stroke-miterlimit:4;stroke-opacity:1;stroke-dasharray:none;display:inline"
       d="m 242.14286,185.11107 c -1.83348,9.28499 1.875,27.49999 1.875,27.49999 0,0 12.95459,-15.29665 15.17857,-30.44642 1.20899,-8.23571 -5.89286,-22.67857 -5.89286,-22.67857 -1.44729,8.5223 -9.29021,16.92709 -11.16071,25.625 z"
       id="path5981"
       inkscape:connector-curvature="0"
       sodipodi:nodetypes="ccscc" />
    <path
       style="fill:#078930;stroke:#000000;stroke-width:2;stroke-linecap:butt;stroke-linejoin:miter;stroke-miterlimit:4;stroke-opacity:1;stroke-dasharray:none;display:inline"
       d="m 232.33509,228.83976 c -6.41647,-1.74952 -17.67768,2.3991 -17.67768,2.3991 0,0 10.98483,14.08346 20.45559,14.77349 9.56743,0.69707 29.29443,2.27284 29.29443,2.27284 0,0 -20.0104,-16.15661 -32.07234,-19.44543 z"
       id="path5983"
       inkscape:connector-curvature="0"
       sodipodi:nodetypes="scscs" />
    <path
       style="fill:none;stroke:#000000;stroke-width:2;stroke-linecap:round;stroke-linejoin:miter;stroke-miterlimit:4;stroke-opacity:1;stroke-dasharray:none;display:inline"
       d="m 219.82143,206.71821 c 8.40148,1.93565 15.05035,2.88547 19.64286,2.67857"
       id="path5985"
       inkscape:connector-curvature="0"
       sodipodi:nodetypes="cc" />
    <path
       style="fill:#078930;stroke:#000000;stroke-width:2;stroke-linecap:butt;stroke-linejoin:miter;stroke-miterlimit:4;stroke-opacity:1;stroke-dasharray:none;display:inline"
       d="m 280.31733,83.882867 c 0,0 1.45325,22.264803 0.77031,33.039173 -1.24698,19.67287 -10.04025,13.35562 -10.04025,58.08377 0,28.56596 12.73508,55.79489 11.86929,84.34774 -0.56188,18.53006 -2.85189,50.04587 -2.85189,50.04587 l 9.84899,2.77792 c 0,0 0.83158,-35.98484 0.83158,-54.33902 0,-42.02137 -13.13198,-57.92505 -13.13198,-87.3782 0,-34.97077 7.43093,-36.33839 8.08122,-54.87474 0.39069,-11.13667 -2.34681,-34.227895 -2.34681,-34.227895 z"
       id="path5959"
       inkscape:connector-curvature="0"
       sodipodi:nodetypes="csssccssscc" />
    <path
       style="fill:none;stroke:#000000;stroke-width:2;stroke-linecap:round;stroke-linejoin:miter;stroke-miterlimit:4;stroke-opacity:1;stroke-dasharray:none;display:inline"
       d="m 312.5,188.68249 c -3.02494,4.29803 4.30861,27.21369 8.39286,22.85715"
       id="path5991"
       inkscape:connector-curvature="0"
       sodipodi:nodetypes="cc" />
    <path
       style="fill:#078930;stroke:#000000;stroke-width:2;stroke-linecap:butt;stroke-linejoin:miter;stroke-miterlimit:4;stroke-opacity:1;stroke-dasharray:none;display:inline"
       d="m 204.46428,167.07535 4.10715,-4.46428 c 51.61613,57.34356 67.14271,101.53377 75.04672,121.54894 11.53452,-19.75248 20.80329,-75.52289 78.52471,-122.97752 l 2.72716,5.31382 c -47.42419,35.40707 -60.62478,92.9103 -82.43501,142.71293 -10.74466,-30.96468 -13.83766,-67.68449 -77.97073,-142.13389 z"
       id="path5961"
       inkscape:connector-curvature="0"
       sodipodi:nodetypes="ccccccc" />
    <path
       style="fill:none;stroke:#000000;stroke-width:2;stroke-linecap:round;stroke-linejoin:miter;stroke-miterlimit:4;stroke-opacity:1;stroke-dasharray:none;display:inline"
       d="m 324.28571,211.71821 c 3.95786,-4.7723 1.46607,-0.71556 19.28572,-7.85714"
       id="path5993"
       inkscape:connector-curvature="0"
       sodipodi:nodetypes="cc" />
    <path
       style="fill:#078930;stroke:#000000;stroke-width:2;stroke-linecap:butt;stroke-linejoin:miter;stroke-miterlimit:4;stroke-opacity:1;stroke-dasharray:none;display:inline"
       d="m 411.77447,137.49841 c -11.81863,11.24233 -24.09044,23.53002 -21.91695,39.89427 -17.16875,-4.1528 -30.31847,-11.03221 -44.68842,-5.06092 -2.37914,-29.06915 -3.50859,-31.1413 -10.51256,-41.08963 12.31055,-3.63332 30.86819,-4.02009 35.20714,-25.533 16.40953,21.64983 19.10789,22.42402 41.91079,31.78928 z"
       id="path4190-1"
       inkscape:connector-curvature="0"
       sodipodi:nodetypes="cccccc" />
    <path
       style="fill:#da121a;stroke:#000000;stroke-width:2;stroke-linecap:round;stroke-linejoin:round;stroke-miterlimit:4;stroke-opacity:1;stroke-dasharray:none;display:inline"
       d="m 372.7426,125.13552 c -0.64814,-11.7793 0.84462,-16.91409 5.91677,-20.34973 5.10662,-3.45897 13.09223,3.6877 18.02783,7.38662 5.37628,4.0292 8.01738,10.71099 6.74526,17.308 -0.68063,3.52965 -1.93258,8.55753 -13.52867,12.14209 11.64011,-3.53945 11.33969,-2.14359 16.60469,0.63907 4.40862,2.33003 4.52465,12.20104 0.84108,18.17752 -3.53014,5.72755 -13.73187,11.57955 -16.32621,10.82608 -3.39939,-0.98727 -8.14133,-10.83009 -15.27787,-15.011 7.29875,4.22066 8.24742,13.67362 7.89846,18.48093 -0.34325,4.72858 -9.37122,6.1181 -14.11059,5.99289 -5.47331,-0.14462 -12.68317,-3.85842 -15.06671,-8.78759 -0.89946,-1.8601 3.94116,-8.59747 7.11653,-16.86328 -3.20801,8.25786 -6.61139,10.36581 -11.94963,10.07902 -5.35404,-0.28765 -9.25834,-2.84982 -10.90663,-7.95195 -1.66999,-5.16929 -2.81676,-16.82887 0.76089,-20.91676 1.50739,-1.72238 11.73083,1.44596 21.02219,1.95316 -9.0161,-0.60171 -18.78537,-1.33928 -18.85661,-6.70775 -0.0334,-2.51544 -0.55585,-4.92447 -1.79133,-9.43684 -1.65042,-6.02787 18.56322,-20.63065 21.1223,-14.92889 1.00192,2.23228 11.20674,5.95933 11.75825,17.96841 z"
       id="path4174-7"
       inkscape:connector-curvature="0"
       sodipodi:nodetypes="cssscssscssscssscsssc" />
    <path
       style="fill:none;stroke:#000000;stroke-width:2;stroke-linecap:butt;stroke-linejoin:miter;stroke-miterlimit:4;stroke-opacity:1;stroke-dasharray:none;display:inline"
       d="m 401.28867,143.64569 c 1.798,-1.13208 2.65731,5.26625 1.66639,7.86104 -0.59838,1.5669 -3.19705,1.66742 -3.88584,3.19674 -0.78165,1.73546 1.06532,4.00821 0.20568,5.70638 -1.22563,2.42121 -6.1439,4.57921 -5.74383,3.04298"
       id="path4182-0"
       inkscape:connector-curvature="0"
       sodipodi:nodetypes="csssc" />
    <path
       style="fill:none;stroke:#000000;stroke-width:2;stroke-linecap:round;stroke-linejoin:miter;stroke-miterlimit:4;stroke-opacity:1;stroke-dasharray:none;display:inline"
       d="m 251.25,176.18249 c 0.78685,-0.27745 -0.72838,16.52927 -1.60714,18.03572"
       id="path5987"
       inkscape:connector-curvature="0"
       sodipodi:nodetypes="cc" />
    <path
       style="fill:none;stroke:#000000;stroke-width:2;stroke-linecap:round;stroke-linejoin:miter;stroke-miterlimit:4;stroke-opacity:1;stroke-dasharray:none;display:inline"
       d="m 233.97658,236.28963 c 0.16025,1.61239 16.33895,6.63714 17.1726,5.3033"
       id="path5989"
       inkscape:connector-curvature="0"
       sodipodi:nodetypes="cc" />
    <path
       style="fill:none;stroke:#000000;stroke-width:2;stroke-linecap:round;stroke-linejoin:miter;stroke-miterlimit:4;stroke-opacity:1;stroke-dasharray:none;display:inline"
       d="m 306.96429,248.68249 c 2.40998,-4.78917 6.87589,-7.29398 13.57142,-7.32142"
       id="path5995"
       inkscape:connector-curvature="0"
       sodipodi:nodetypes="cc" />
    <path
       style="fill:#078930;stroke:#000000;stroke-width:2;stroke-linecap:butt;stroke-linejoin:miter;stroke-miterlimit:4;stroke-opacity:1;stroke-dasharray:none;display:inline"
       d="m 191.76638,100.932 c 8.66004,13.82294 18.25409,28.2984 34.72312,29.43146 -7.49273,15.99596 -16.85595,27.50993 -13.86982,42.78196 -28.95982,-3.4648 -31.21556,-2.7712 -42.36067,2.10851 -1.10573,-12.78781 2.21551,-31.04992 -18.00026,-39.59125 24.48703,-11.76322 25.78371,-14.25303 39.50763,-34.73068 z"
       id="path4190"
       inkscape:connector-curvature="0"
       sodipodi:nodetypes="cccccc" />
    <path
       style="fill:#da121a;stroke:#000000;stroke-width:2;stroke-linecap:round;stroke-linejoin:round;stroke-miterlimit:4;stroke-opacity:1;stroke-dasharray:none;display:inline"
       d="m 171.86909,136.71504 c -11.672,-1.71358 -16.40604,-4.2002 -18.76134,-9.85554 -2.3713,-5.69377 6.22414,-12.09404 10.8329,-16.19299 5.02028,-4.46494 12.09451,-5.72071 18.3054,-3.15874 3.32307,1.37075 8.00035,3.60008 9.20077,15.67805 -1.14743,-12.11211 0.1605,-11.5394 3.93708,-16.14384 3.16229,-3.8555 12.85822,-2.001 17.98022,2.80027 4.90865,4.60128 8.609,15.765 7.35337,18.15701 -1.64526,3.13428 -12.23594,5.81842 -17.75587,11.97801 5.59122,-6.31062 15.04352,-5.3554 19.68472,-4.0549 4.56519,1.2792 4.1267,10.40294 3.05901,15.02218 -1.23305,5.33457 -6.30987,11.65915 -11.61532,13.01199 -2.00209,0.51051 -7.63899,-5.57629 -15.10568,-10.33604 7.45239,4.79015 8.83941,8.5455 7.49397,13.71936 -1.34943,5.18918 -4.63864,8.5042 -9.96697,9.10207 -5.39847,0.60574 -17.05258,-0.59535 -20.34503,-4.91625 -1.38723,-1.82055 3.75596,-11.20696 6.1056,-20.21062 -2.38737,8.71508 -5.05804,18.14112 -10.33292,17.14049 -2.47158,-0.46886 -4.93641,-0.43721 -9.60452,-0.12627 -6.23591,0.41537 -16.51502,-22.30406 -10.41749,-23.67486 2.38723,-0.5367 8.0742,-9.79346 19.9521,-7.93938 z"
       id="path4174"
       inkscape:connector-curvature="0"
       sodipodi:nodetypes="cssscssscssscssscsssc" />
    <path
       style="fill:none;stroke:#000000;stroke-width:2;stroke-linecap:butt;stroke-linejoin:miter;stroke-miterlimit:4;stroke-opacity:1;stroke-dasharray:none;display:inline"
       d="m 160.72091,127.22464 c -1.31767,-0.42732 0.63342,-4.44213 1.75807,-5.73514 1.40331,-1.6134 4.68504,0.33109 6.33107,-1.03379 2.10226,-1.74319 0.77104,-5.8675 2.79447,-7.70159 1.32722,-1.20303 5.22286,-1.94834 4.46123,-0.39352"
       id="path4180"
       inkscape:connector-curvature="0"
       sodipodi:nodetypes="csssc" />
    <path
       style="fill:none;stroke:#000000;stroke-width:2;stroke-linecap:butt;stroke-linejoin:miter;stroke-miterlimit:4;stroke-opacity:1;stroke-dasharray:none;display:inline"
       d="m 195.69944,112.43296 c -0.75084,-1.98762 5.69035,-1.5539 8.03545,-0.0655 1.41612,0.89879 0.99647,3.46533 2.35774,4.44522 1.54476,1.11199 4.14014,-0.24472 5.63281,0.93626 2.12821,1.68379 3.26221,6.93359 1.8366,6.23524"
       id="path4182"
       inkscape:connector-curvature="0"
       sodipodi:nodetypes="csssc" />
    <path
       style="fill:none;stroke:#000000;stroke-width:2;stroke-linecap:butt;stroke-linejoin:miter;stroke-miterlimit:4;stroke-opacity:1;stroke-dasharray:none;display:inline"
       d="m 159.12285,145.53522 c 0,0 -0.0373,4.50673 1.388,5.97103 1.35454,1.3917 2.37996,1.08487 4.32014,2.55601 1.56451,1.18629 0.72472,8.49324 3.99429,9.69806"
       id="path4184"
       inkscape:connector-curvature="0"
       sodipodi:nodetypes="cssc" />
    <path
       style="fill:none;stroke:#000000;stroke-width:2;stroke-linecap:butt;stroke-linejoin:miter;stroke-miterlimit:4;stroke-opacity:1;stroke-dasharray:none;display:inline"
       d="m 182.70849,169.80661 c 1.29784,1.97035 6.83288,-1.58246 9.62507,-2.22138 2.23568,-0.51157 6.6265,2.45024 6.88423,1.10464"
       id="path4186"
       inkscape:connector-curvature="0"
       sodipodi:nodetypes="csc" />
    <path
       style="fill:none;stroke:#000000;stroke-width:2;stroke-linecap:butt;stroke-linejoin:miter;stroke-miterlimit:4;stroke-opacity:1;stroke-dasharray:none;display:inline"
       d="m 213.01424,156.15427 c 1.97659,-0.29882 2.12508,-5.11184 2.81501,-7.28783 0.75045,-2.36682 3.98434,-6.26371 2.24766,-8.28256"
       id="path4188"
       inkscape:connector-curvature="0"
       sodipodi:nodetypes="csc" />
    <path
       style="fill:none;stroke:#000000;stroke-width:2;stroke-linecap:round;stroke-linejoin:round;stroke-miterlimit:4;stroke-opacity:1;stroke-dasharray:none;display:inline"
       d="m 197.52132,139.70823 c -11.76046,-3.78316 -8.25258,6.19461 -6.29765,9.71123"
       id="path4811"
       inkscape:connector-curvature="0"
       sodipodi:nodetypes="cc" />
    <path
       style="fill:none;stroke:#000000;stroke-width:2;stroke-linecap:round;stroke-linejoin:round;stroke-miterlimit:4;stroke-opacity:1;stroke-dasharray:none;display:inline"
       d="m 189.16535,136.43627 c -2.48536,1.80603 -6.62584,-2.2675 -6.62584,-2.2675 l 4.87512,6.56763"
       id="path4809"
       inkscape:connector-curvature="0"
       sodipodi:nodetypes="ccc" />
    <path
       style="fill:#fcdd09;stroke:none;display:inline"
       d="m 183.02647,143.86002 c 0.10675,-7.11973 3.92388,-10.10282 10.39817,-10.12347 l 0.20749,6.091 -1.51665,3.70585 -3.0524,1.19291 z"
       id="path4178"
       inkscape:connector-curvature="0"
       sodipodi:nodetypes="cccccc" />
    <path
       style="fill:none;stroke:#000000;stroke-width:2;stroke-linecap:round;stroke-linejoin:round;stroke-miterlimit:4;stroke-opacity:1;stroke-dasharray:none;display:inline"
       d="m 181.30726,144.84069 c 4.04682,-2.63955 7.97204,1.44925 10.43808,-1.06725 3.31581,-3.38315 1.32882,-6.71614 1.69251,-11.44275"
       id="path4176"
       inkscape:connector-curvature="0"
       sodipodi:nodetypes="csc" />
    <path
       style="fill:none;stroke:#000000;stroke-width:2;stroke-linecap:butt;stroke-linejoin:miter;stroke-miterlimit:4;stroke-opacity:1;stroke-dasharray:none;display:inline"
       d="m 379.81957,112.31889 c 0.156,-1.37642 4.47923,-0.26503 5.97052,0.57922 1.86081,1.05343 0.60972,4.65698 2.2754,5.99781 2.12736,1.71247 5.90342,-0.41437 8.10413,1.20272 1.44351,1.0607 2.95062,4.7295 1.27516,4.29318"
       id="path4180-4"
       inkscape:connector-curvature="0"
       sodipodi:nodetypes="csssc" />
    <path
       style="fill:none;stroke:#000000;stroke-width:2;stroke-linecap:butt;stroke-linejoin:miter;stroke-miterlimit:4;stroke-opacity:1;stroke-dasharray:none;display:inline"
       d="m 361.55803,114.4039 c 0,0 -4.42367,0.86206 -5.57438,2.55071 -1.09367,1.60483 -0.58854,2.54848 -1.64328,4.74304 -0.85052,1.76963 -8.17819,2.40365 -8.70689,5.8478"
       id="path4184-9"
       inkscape:connector-curvature="0"
       sodipodi:nodetypes="cssc" />
    <path
       style="fill:none;stroke:#000000;stroke-width:2;stroke-linecap:butt;stroke-linejoin:miter;stroke-miterlimit:4;stroke-opacity:1;stroke-dasharray:none;display:inline"
       d="m 361.89773,169.3305 c 0.68694,1.87731 5.43292,1.06314 7.70278,1.30534 2.46893,0.26346 6.93238,2.6554 8.56441,0.55105"
       id="path4188-8"
       inkscape:connector-curvature="0"
       sodipodi:nodetypes="csc" />
    <g
       id="g5845"
       transform="matrix(0.86797167,-0.49661372,0.49661372,0.86797167,-24.846139,199.4916)"
       style="stroke-width:2;stroke-miterlimit:4;stroke-dasharray:none;display:inline">
      <path
         sodipodi:nodetypes="cc"
         inkscape:connector-curvature="0"
         id="path4811-8"
         d="m 372.24209,138.66876 c -2.11989,12.17074 7.27669,7.3163 10.48905,4.8937"
         style="fill:none;stroke:#000000;stroke-width:2;stroke-linecap:round;stroke-linejoin:round;stroke-miterlimit:4;stroke-opacity:1;stroke-dasharray:none;display:inline" />
      <path
         sodipodi:nodetypes="ccc"
         inkscape:connector-curvature="0"
         id="path4809-2"
         d="m 368.36875,148.047 c 2.04136,2.296 -1.60592,6.81647 -1.60592,6.81647 l 6.05718,-5.49647"
         style="fill:none;stroke:#000000;stroke-width:2;stroke-linecap:round;stroke-linejoin:round;stroke-miterlimit:4;stroke-opacity:1;stroke-dasharray:none;display:inline" />
      <path
         sodipodi:nodetypes="cccccc"
         inkscape:connector-curvature="0"
         id="path4178-4"
         d="m 367.33444,142.67054 c 6.99805,-1.31501 10.68235,1.83066 11.99351,8.17083 l -5.92732,1.41782 -3.93385,-0.74727 -1.77758,-2.75325 z"
         style="fill:#fcdd09;stroke:none;display:inline" />
      <path
         sodipodi:nodetypes="csc"
         inkscape:connector-curvature="0"
         id="path4176-5"
         d="m 364.94828,144.34447 c 5.01024,-3.20045 1.2518,4.93785 4.20948,6.8526 3.97636,2.57465 10.43524,-4.52996 9.74776,2.27337"
         style="fill:none;stroke:#000000;stroke-width:2;stroke-linecap:round;stroke-linejoin:round;stroke-miterlimit:4;stroke-opacity:1;stroke-dasharray:none;display:inline" />
    </g>
    <path
       style="fill:none;stroke:#000000;stroke-width:2;stroke-linecap:butt;stroke-linejoin:miter;stroke-miterlimit:4;stroke-opacity:1;stroke-dasharray:none;display:inline"
       d="m 342.4768,142.35546 c -1.672,1.66466 2.91311,6.38015 4.09594,8.98887 0.94708,2.08879 -1.07977,6.982 0.2902,6.96625"
       id="path4186-4"
       inkscape:connector-curvature="0"
       sodipodi:nodetypes="csc" />
    <path
       transform="translate(1.4843749e-7,2.1484374e-6)"
       style="fill:#078930;stroke:#000000;stroke-width:2;stroke-linecap:butt;stroke-linejoin:miter;stroke-miterlimit:4;stroke-opacity:1;stroke-dasharray:none;display:inline"
       d="m 309.14414,33.022193 c -2.739,16.080045 -5.21536,33.268773 6.32035,45.077257 -16.23946,6.949236 -30.89123,9.308675 -38.82898,22.69315 -19.30473,-21.863287 -21.44978,-22.84727 -33.01505,-26.624773 7.68731,-10.278904 22.32232,-21.696082 12.92209,-41.527051 26.10377,7.522029 28.72881,6.527179 52.60159,0.381417 z"
       id="path4190-3"
       inkscape:connector-curvature="0"
       sodipodi:nodetypes="cccccc" />
    <path
       transform="translate(1.4843749e-7,2.1484374e-6)"
       style="fill:#da121a;stroke:#000000;stroke-width:2;stroke-linecap:round;stroke-linejoin:round;stroke-miterlimit:4;stroke-opacity:1;stroke-dasharray:none;display:inline"
       d="m 270.47616,46.480114 c -7.5695,-9.048455 -9.44699,-14.055395 -7.44003,-19.843523 2.0206,-5.827457 12.69538,-4.881905 18.8632,-4.872817 6.71854,0.0099 12.83358,3.781897 15.76301,9.828162 1.56736,3.234985 3.57376,8.01214 -3.57037,17.824361 7.2064,-9.802424 7.8012,-8.504392 13.6845,-9.42648 4.92634,-0.77211 10.9274,7.066095 11.55361,14.058587 0.60013,6.701229 -4.06986,17.495324 -6.59916,18.444516 -3.31416,1.243744 -13.00417,-3.803127 -21.22365,-2.88101 8.37322,-0.987367 14.7911,6.017577 17.38887,10.077578 2.55523,3.993509 -3.84539,10.510174 -7.71704,13.246535 -4.47122,3.160097 -12.46986,4.500303 -17.32958,1.978174 -1.83388,-0.951765 -1.9886,-9.246332 -4.39216,-17.76863 2.37266,8.535465 0.90789,12.261178 -3.54022,15.226531 -4.46129,2.97413 -9.12256,3.258422 -13.49679,0.157669 -4.43181,-3.141569 -12.32912,-11.795671 -11.9098,-17.211812 0.17667,-2.282016 10.26301,-5.862919 18.00989,-11.01778 -7.58294,4.914394 -15.85055,10.170753 -19.12082,5.912707 -1.5323,-1.995142 -3.39274,-3.612287 -7.08328,-6.487671 -4.93002,-3.841091 2.52288,-27.637874 7.98564,-24.601884 2.13872,1.188598 12.54455,-1.933577 20.17418,7.356787 z"
       id="path4174-2"
       inkscape:connector-curvature="0"
       sodipodi:nodetypes="cssscssscssscssscsssc" />
    <path
       transform="translate(1.4843749e-7,2.1484374e-6)"
       style="fill:none;stroke:#000000;stroke-width:2;stroke-linecap:butt;stroke-linejoin:miter;stroke-miterlimit:4;stroke-opacity:1;stroke-dasharray:none;display:inline"
       d="m 268.47435,31.976929 c -0.69885,-1.19602 3.42968,-2.893273 5.12967,-3.109531 2.1212,-0.269852 3.27579,3.365766 5.4127,3.442943 2.72919,0.09856 4.4812,-3.865341 7.21208,-3.887086 1.79125,-0.01427 5.19449,2.022761 3.59113,2.676045"
       id="path4180-2"
       inkscape:connector-curvature="0"
       sodipodi:nodetypes="csssc" />
    <path
       transform="translate(1.4843749e-7,2.1484374e-6)"
       style="fill:none;stroke:#000000;stroke-width:2;stroke-linecap:butt;stroke-linejoin:miter;stroke-miterlimit:4;stroke-opacity:1;stroke-dasharray:none;display:inline"
       d="m 304.42332,44.22286 c 0.76279,-1.983065 5.28079,2.628305 6.04003,5.30008 0.45848,1.613388 -1.56316,3.24931 -1.1996,4.886706 0.41256,1.858118 3.25247,2.573346 3.58023,4.448274 0.46731,2.673207 -2.18108,7.34572 -2.78006,5.875593"
       id="path4182-1"
       inkscape:connector-curvature="0"
       sodipodi:nodetypes="csssc" />
    <path
       transform="translate(1.4843749e-7,2.1484374e-6)"
       style="fill:none;stroke:#000000;stroke-width:2;stroke-linecap:butt;stroke-linejoin:miter;stroke-miterlimit:4;stroke-opacity:1;stroke-dasharray:none;display:inline"
       d="m 255.093,44.577347 c 0,0 -3.02783,3.3383 -2.93895,5.379808 0.0844,1.940227 1.05387,2.393848 1.52243,4.783201 0.37783,1.926712 -5.11288,6.820471 -3.47498,9.896019"
       id="path4184-6"
       inkscape:connector-curvature="0"
       sodipodi:nodetypes="cssc" />
    <path
       transform="translate(1.4843749e-7,2.1484374e-6)"
       style="fill:none;stroke:#000000;stroke-width:2;stroke-linecap:round;stroke-linejoin:round;stroke-miterlimit:4;stroke-opacity:1;stroke-dasharray:none;display:inline"
       d="m 292.16338,57.33948 c -14.64075,-2.08983 -8.48724,8.975485 -5.47055,12.730336"
       id="path4811-7"
       inkscape:connector-curvature="0"
       sodipodi:nodetypes="cc" />
    <path
       transform="translate(1.4843749e-7,2.1484374e-6)"
       style="fill:none;stroke:#000000;stroke-width:2;stroke-linecap:round;stroke-linejoin:round;stroke-miterlimit:4;stroke-opacity:1;stroke-dasharray:none;display:inline"
       d="m 281.64304,55.165553 c -2.56806,2.632806 -8.27607,-1.337966 -8.27607,-1.337966 l 7.07837,6.765434"
       id="path4809-6"
       inkscape:connector-curvature="0"
       sodipodi:nodetypes="ccc" />
    <path
       transform="translate(1.4843749e-7,2.1484374e-6)"
       style="fill:#fcdd09;stroke:none;display:inline"
       d="m 275.89803,65.164684 c -1.31136,-8.422635 2.59052,-12.713193 10.22583,-14.044585 l 1.47448,7.145321 -1.04147,4.678979 -3.36092,2.02381 z"
       id="path4178-1"
       inkscape:connector-curvature="0"
       sodipodi:nodetypes="cccccc" />
    <path
       transform="translate(1.4843749e-7,2.1484374e-6)"
       style="fill:none;stroke:#000000;stroke-width:2;stroke-linecap:round;stroke-linejoin:round;stroke-miterlimit:4;stroke-opacity:1;stroke-dasharray:none;display:inline"
       d="m 274.06739,66.668914 c 4.24226,-3.93156 9.69936,0.100685 12.10118,-3.366554 3.22957,-4.661412 0.21212,-8.193114 -0.31294,-13.843805"
       id="path4176-8"
       inkscape:connector-curvature="0"
       sodipodi:nodetypes="csc" />
    <path
       transform="translate(1.4843749e-7,2.1484374e-6)"
       style="fill:none;stroke:#000000;stroke-width:2;stroke-linecap:butt;stroke-linejoin:miter;stroke-miterlimit:4;stroke-opacity:1;stroke-dasharray:none;display:inline"
       d="m 256.53695,78.390033 c -0.34309,2.3343 6.15241,3.36754 8.66138,4.749426 2.0089,1.106469 3.31395,6.239546 4.402,5.40696"
       id="path4186-8"
       inkscape:connector-curvature="0"
       sodipodi:nodetypes="csc" />
    <path
       transform="translate(1.4843749e-7,2.1484374e-6)"
       style="fill:none;stroke:#000000;stroke-width:2;stroke-linecap:butt;stroke-linejoin:miter;stroke-miterlimit:4;stroke-opacity:1;stroke-dasharray:none;display:inline"
       d="m 288.24045,88.375663 c 1.67394,1.092763 4.98864,-2.400089 6.95199,-3.564647 2.13554,-1.266678 7.14286,-2.022013 7.19076,-4.684628"
       id="path4188-5"
       inkscape:connector-curvature="0"
       sodipodi:nodetypes="csc" />
  </g>
  <g
     inkscape:groupmode="layer"
     id="layer7"
     inkscape:label="Kranz"
     style="display:inline"
     transform="translate(1.4843749e-7,2.1484375e-6)">
    <path
       style="fill:#078930;stroke:#000000;stroke-width:2;stroke-linecap:butt;stroke-linejoin:miter;stroke-miterlimit:20;stroke-opacity:1;stroke-dasharray:none"
       d="m 71.468293,44.108109 c 0,0 0.631345,11.557877 0.631345,16.793787 0,5.720582 -3.135341,12.472253 -2.272843,25.253813 1.228322,18.202791 9.97857,17.868251 9.975256,23.738581 -0.01425,25.2391 10.417199,51.20211 10.417199,51.20211 -0.685268,0.14 -9.193504,-13.09126 -11.227115,-21.06713 -0.415485,-1.62954 -3.678378,-7.25678 -7.6105,-10.6716 -7.529739,-6.53915 -9.907133,-12.58191 -21.126546,-17.44307 1.951558,5.53675 1.955542,37.08407 21.71828,47.22463 8.106089,4.15936 18.15612,8.48379 19.192898,10.35406 14.859813,26.80599 16.757633,49.11597 16.414983,50.00256 L 96.722106,202.07071 C 78.824999,178.49354 69.967617,176.00906 60.356615,171.76614 c 11.73315,11.74287 11.630255,29.16076 16.394853,33.52194 13.699627,12.53967 17.840768,13.12561 21.738407,12.69254 1.534065,-0.17045 5.321075,4.1399 6.818525,9.09137 4.39948,14.54726 0.9632,49.98345 -0.89023,57.70606 -0.46363,-0.68938 -3.91596,-20.0299 -7.822333,-28.28537 -6.313453,-13.34243 -29.420693,-27.14785 -29.420693,-27.14785 0,0 -0.694669,9.81241 -0.03327,15.76197 0.678892,6.1069 1.98192,12.52165 5.084029,17.82561 12.163646,20.79732 31.627857,21.36081 29.799507,37.1231 -0.90216,7.77755 -0.59684,54.34127 -0.59684,54.34127 -9.621003,-0.37004 -8.542237,-22.10104 -12.857141,-32.67857 -5.49246,-13.46418 -26.428572,-35.53572 -26.428572,-35.53572 0,0 -4.768966,38.67838 7.142857,51.07143 17.582283,18.29259 31.583126,21.78582 31.785716,28.57143 0.59976,20.08832 13.21428,46.42857 13.21428,46.42857 -16.311721,-11.70131 -14.525875,-17.74343 -21.071424,-27.14285 -6.034534,-8.6656 -19.071853,-10.21436 -31.071429,-23.57143 2.502813,29.74643 9.43429,31.5453 16.964286,40.71429 8.612505,10.48712 24.798877,7.76613 31.964287,15.71428 7.84958,8.70706 2.19854,2.2034 32.14286,48.21429 -6.0788,-1.23101 -14.05104,-3.68168 -19.64286,-11.42858 -6.77299,-9.38328 -13.1565,-17.55635 -23.57143,-23.21428 -8.69439,-4.72324 -17.220015,-3.14006 -25,-1.78572 10.714287,6.47871 9.360608,25.01667 28.21429,33.39286 13.00701,5.77867 38.96116,6.74534 41.78571,9.82143 11.83297,12.88677 16.86815,18.32036 27.85714,24.28571 -19.9903,2.4779 -30.81847,-13.57142 -44.64285,-13.57142 -14.71022,0 -19.49295,2.17371 -28.928576,3.57142 13.792466,13.7459 35.218116,22.5 47.142856,22.5 9.72783,0 21.38021,-7.14285 30.71429,-7.14285 3.82586,0 24.41899,14.1578 41.99492,16.2175 0.21424,0.79955 -21.234,-1.2175 -39.13778,-1.2175 -13.0895,0 -24.20103,10.35714 -37.5,10.35714 9.43405,9.39918 25.21937,12.28707 37.17876,12.28707 22.71974,-2.0203 35.43747,-12.69231 38.89267,-14.78707 7.03488,-4.26499 45.51098,6.49009 67.30174,10.45792 23.97176,4.36497 37.27494,21.55321 54.84112,33.82779 3.43551,2.40061 6.37111,2.51373 9.64285,2.14286 5.50271,-0.62377 14.35352,-5.78896 13.80044,-7.3954 -0.89193,-2.59067 -2.97047,2.08585 -19.08867,-9.04884 -12.46866,-8.61354 -29.87983,-20.80985 -41.31891,-25.1629 -17.43578,-6.63506 -30.42576,-7.06038 -50.2578,-10.3101 -5.99037,-0.98159 -12.59741,-9.48616 -15.45648,-13.4399 -5.24352,-7.25116 -0.0794,-18.52894 -3.92858,-26.60714 -3.87721,-8.13697 -18.57143,-20.71429 -18.57143,-20.71429 0,0 -2.34455,25.6414 2.85714,35.89286 4.56239,8.99153 21.18631,20.71428 16.96429,20.71428 -15.4877,-4.26654 -41.07143,-4.76266 -41.07143,-21.78571 0,0 0.098,-21.66711 0,-32.5 -0.0715,-7.90299 -3.92678,-19.35451 -11.42857,-30.35714 0.22274,9.06295 -13.25713,19.96574 -12.14285,30.71428 2.28307,22.02287 19.23648,27.03045 17.5,35.71429 -20.06627,-7.80143 -42.8241,-39.91333 -42.5,-44.64286 0.37881,-5.5278 10.85962,-19.51904 13.75526,-33.8741 2.71155,-13.4425 1.68922,-30.41435 -1.61241,-33.98304 1.21352,6.67047 -14.94584,19.33273 -18.57143,29.28571 -3.30273,9.06665 -1.07142,28.92857 -1.07142,28.92857 -11.94338,-17.53834 -18.81997,-35.27003 -17.85715,-41.07143 1.4276,-8.60191 13.68123,-17.11267 19.09074,-26.71174 5.3126,-9.42712 4.8745,-23.02498 4.48069,-32.93111 0,0 -17.34195,15.24572 -23.19262,24.10714 -5.19133,7.86278 1.37326,19.87304 -5.37881,26.25 -8.35433,-18.42751 -8.02192,-32.6355 -7.52336,-47.70837 0.17529,-5.29937 11.6375,-11.99587 21.90997,-21.00356 7.16637,-9.0241 13.5003,-31.40712 14.89911,-39.8595 -6.46826,6.89948 -23.69474,7.65723 -27.85715,25 -1.18436,4.93467 -2.64581,16.68128 -8.21428,21.78571 -0.0515,-7.4434 3.22575,-52.39738 7.5,-67.5 0.82813,-2.9261 14.49531,-3.32385 23.65809,-13.73731 8.33073,-9.46784 7.34476,-35.3053 4.19905,-36.26269 -2.08058,12.18549 -9.87175,14.37723 -15,21.42858 l -14.28571,19.64285 c -0.5438,-0.68673 -0.92493,-38.5699 -1.51151,-42.20041 -0.38682,-2.39407 18.13006,-12.27859 22.58294,-21.72816 5.34381,-11.34022 2.85714,-37.5 2.85714,-37.5 0,0 -13.89744,11.91255 -18.25761,19.83041 -8.34456,15.15327 -2.03459,25.10465 -7.81382,30.88388 C 110.37279,186.91821 95.410872,160.3895 98.214286,161.89678 101.26092,163.53483 120,147.02605 120,128.68249 c 0,-10.71237 -1.98799,-19.36894 -2.5,-28.57142 0,0 -13.262,13.97705 -16.07143,22.85714 -3.231835,10.21524 0,32.14286 0,32.14286 C 96.175075,160.15398 91.072663,146.63284 85,106.53964 84.402449,102.59446 91.496548,97.762433 91.923881,78.074489 92.276828,61.813671 71.468293,44.108109 71.468293,44.108109 z"
       id="path6753"
       inkscape:connector-curvature="0"
       transform="translate(-7.4218747e-8,-1.0742187e-6)"
       sodipodi:nodetypes="cssscsscsscccssscscssscscsscscsscsscsscccccccccsssssssssscscsscscsscscsscscsccscsscscsscscsscscssc" />
    <path
       style="fill:#078930;stroke:#000000;stroke-width:2;stroke-linecap:round;stroke-linejoin:miter;stroke-miterlimit:10;stroke-opacity:1;stroke-dasharray:none"
       d="m 334.23422,564.84175 c -1.89341,-1.32539 2.53898,-5.29548 5.3033,-5.93465 4.0388,-0.93386 10.73288,2.78558 12.12184,2.91185 1.38895,0.12627 9.2335,1.46176 9.2335,1.46176"
       id="path6755"
       inkscape:connector-curvature="0"
       transform="translate(-7.4218747e-8,-1.0742187e-6)"
       sodipodi:nodetypes="cssc" />
    <path
       style="fill:none;stroke:#000000;stroke-width:2;stroke-linecap:round;stroke-linejoin:miter;stroke-miterlimit:4;stroke-opacity:1;stroke-dasharray:none"
       d="m 79.464286,67.075352 c 1.948352,22.063623 3.577999,23.605905 2.678571,36.071428"
       id="path6757"
       inkscape:connector-curvature="0"
       transform="translate(-7.4218747e-8,-1.0742187e-6)"
       sodipodi:nodetypes="cc" />
    <path
       style="fill:none;stroke:#000000;stroke-width:2;stroke-linecap:round;stroke-linejoin:miter;stroke-miterlimit:4;stroke-opacity:1;stroke-dasharray:none"
       d="m 103.41437,151.68936 c 3.33296,-5.27877 6.65422,-10.57314 7.19733,-19.57171"
       id="path6759"
       inkscape:connector-curvature="0"
       transform="translate(-7.4218747e-8,-1.0742187e-6)"
       sodipodi:nodetypes="cc" />
    <path
       style="fill:none;stroke:#000000;stroke-width:2;stroke-linecap:round;stroke-linejoin:miter;stroke-miterlimit:4;stroke-opacity:1;stroke-dasharray:none"
       d="m 69.321718,141.20902 c 6.608081,16.82184 13.216163,16.34576 19.824244,23.86486"
       id="path6761"
       inkscape:connector-curvature="0"
       transform="translate(-7.4218747e-8,-1.0742187e-6)"
       sodipodi:nodetypes="cc" />
    <path
       style="fill:none;stroke:#000000;stroke-width:2;stroke-linecap:round;stroke-linejoin:miter;stroke-miterlimit:4;stroke-opacity:1;stroke-dasharray:none"
       d="m 136.42857,233.68249 c -0.10668,8.7299 -8.57779,14.95048 -15,21.78572"
       id="path6763"
       inkscape:connector-curvature="0"
       transform="translate(-7.4218747e-8,-1.0742187e-6)"
       sodipodi:nodetypes="cc" />
    <path
       style="fill:none;stroke:#000000;stroke-width:2;stroke-linecap:round;stroke-linejoin:miter;stroke-miterlimit:4;stroke-opacity:1;stroke-dasharray:none"
       d="m 130.71429,178.68249 c -7.01269,4.93008 -2.97874,13.89012 -16.51786,27.5"
       id="path6765"
       inkscape:connector-curvature="0"
       transform="translate(-7.4218747e-8,-1.0742187e-6)"
       sodipodi:nodetypes="cc" />
    <path
       style="fill:none;stroke:#000000;stroke-width:2;stroke-linecap:round;stroke-linejoin:miter;stroke-miterlimit:4;stroke-opacity:1;stroke-dasharray:none"
       d="m 83.928571,195.46821 c 3.046914,10.59641 9.312592,13.40806 15.04147,19.53453"
       id="path6767"
       inkscape:connector-curvature="0"
       transform="translate(-7.4218747e-8,-1.0742187e-6)"
       sodipodi:nodetypes="cc" />
    <path
       style="fill:none;stroke:#000000;stroke-width:2;stroke-linecap:round;stroke-linejoin:miter;stroke-miterlimit:4;stroke-opacity:1;stroke-dasharray:none"
       d="m 131.78571,300.82535 c -8.60438,9.13 -5.39534,17.11932 -13.57142,26.78572"
       id="path6769"
       inkscape:connector-curvature="0"
       transform="translate(-7.4218747e-8,-1.0742187e-6)"
       sodipodi:nodetypes="cc" />
    <path
       style="fill:none;stroke:#000000;stroke-width:2;stroke-linecap:round;stroke-linejoin:miter;stroke-miterlimit:4;stroke-opacity:1;stroke-dasharray:none"
       d="m 72.857143,317.25392 c 10.742966,14.43011 5.70093,20.91986 19.642857,35"
       id="path6771"
       inkscape:connector-curvature="0"
       transform="translate(-7.4218747e-8,-1.0742187e-6)"
       sodipodi:nodetypes="cc" />
    <path
       style="fill:none;stroke:#000000;stroke-width:2;stroke-linecap:round;stroke-linejoin:miter;stroke-miterlimit:4;stroke-opacity:1;stroke-dasharray:none"
       d="m 79.285714,383.68249 c 7.815156,9.39817 10.345631,19.72893 25.357146,27.85715"
       id="path6773"
       inkscape:connector-curvature="0"
       transform="translate(-7.4218747e-8,-1.0742187e-6)"
       sodipodi:nodetypes="cc" />
    <path
       style="fill:none;stroke:#000000;stroke-width:2;stroke-linecap:round;stroke-linejoin:miter;stroke-miterlimit:4;stroke-opacity:1;stroke-dasharray:none"
       d="m 136.42857,359.03964 c -20.18778,23.29802 -5.15402,18.97641 -16.78571,35"
       id="path6775"
       inkscape:connector-curvature="0"
       transform="translate(-7.4218747e-8,-1.0742187e-6)"
       sodipodi:nodetypes="cc" />
    <path
       style="fill:none;stroke:#000000;stroke-width:2;stroke-linecap:round;stroke-linejoin:miter;stroke-miterlimit:4;stroke-opacity:1;stroke-dasharray:none"
       d="m 100.35714,441.53964 c 10.59287,9.94534 22.29761,26.93248 31.07143,25.35714"
       id="path6777"
       inkscape:connector-curvature="0"
       transform="translate(-7.4218747e-8,-1.0742187e-6)"
       sodipodi:nodetypes="cc" />
    <path
       style="fill:none;stroke:#000000;stroke-width:2;stroke-linecap:round;stroke-linejoin:miter;stroke-miterlimit:4;stroke-opacity:1;stroke-dasharray:none"
       d="m 153.21429,407.96821 c -10.62139,11.78048 -11.3808,25.53336 -12.14286,39.28571"
       id="path6779"
       inkscape:connector-curvature="0"
       transform="translate(-7.4218747e-8,-1.0742187e-6)"
       sodipodi:nodetypes="cc" />
    <path
       style="fill:#078930;stroke:#000000;stroke-width:2;stroke-linecap:round;stroke-linejoin:miter;stroke-miterlimit:10;stroke-opacity:1;stroke-dasharray:none"
       d="m 188.89853,524.81445 c 10.05548,3.91874 13.34885,-3.91162 29.29442,-2.0203"
       id="path6781"
       inkscape:connector-curvature="0"
       transform="translate(-7.4218747e-8,-1.0742187e-6)"
       sodipodi:nodetypes="cc" />
    <path
       style="fill:none;stroke:#000000;stroke-width:2;stroke-linecap:round;stroke-linejoin:miter;stroke-miterlimit:4;stroke-opacity:1;stroke-dasharray:none"
       d="m 135.86552,492.48957 c 10.14722,5.32496 20.09218,9.43629 29.29442,9.09137"
       id="path6783"
       inkscape:connector-curvature="0"
       transform="translate(-7.4218747e-8,-1.0742187e-6)"
       sodipodi:nodetypes="cc" />
    <path
       style="fill:#078930;stroke:#000000;stroke-width:2;stroke-linecap:round;stroke-linejoin:miter;stroke-miterlimit:10;stroke-opacity:1;stroke-dasharray:none"
       d="m 182.33253,460.66977 c -0.30522,9.19813 -1.55135,18.79951 4.54569,25.25381"
       id="path6785"
       inkscape:connector-curvature="0"
       transform="translate(-7.4218747e-8,-1.0742187e-6)"
       sodipodi:nodetypes="cc" />
    <path
       style="fill:#078930;stroke:#000000;stroke-width:2;stroke-linecap:round;stroke-linejoin:miter;stroke-miterlimit:10;stroke-opacity:1;stroke-dasharray:none"
       d="m 225.26402,480.87282 c 0.073,10.20192 3.7841,17.85722 8.58629,24.74873"
       id="path6787"
       inkscape:connector-curvature="0"
       transform="translate(-7.4218747e-8,-1.0742187e-6)"
       sodipodi:nodetypes="cc" />
    <path
       transform="translate(7.4218747e-8,1.0742187e-6)"
       style="fill:none;stroke:#000000;stroke-width:2;stroke-linecap:round;stroke-linejoin:miter;stroke-miterlimit:4;stroke-opacity:1;stroke-dasharray:none;display:inline"
       d="m 81.071429,254.39678 c 5.847795,14.42269 16.549158,18.12846 21.071431,33.03571"
       id="path6789"
       inkscape:connector-curvature="0"
       sodipodi:nodetypes="cc" />
    <path
       style="fill:#078930;stroke:#000000;stroke-width:2;stroke-linecap:round;stroke-linejoin:miter;stroke-miterlimit:10;stroke-opacity:1;stroke-dasharray:none"
       d="m 487.90368,52.063062 c -4.70703,12.848498 7.06795,25.871616 5.80838,37.123105 -1.2629,11.281273 -11.33788,18.400683 -13.785,27.533463 -0.61458,2.29363 5.33998,0.97493 -13.97253,55.20604 0,0 5.49595,-2.37358 7.55448,-8.24075 1.23372,-3.51633 0.79854,-9.05753 3.28299,-12.62691 6.97721,-10.02409 30.05204,-20.96066 30.05204,-20.96066 0,0 -9.95869,25.37294 -15.56328,32.55992 -6.46305,8.28783 -18.70983,7.65281 -25.3479,15.80113 -10.42439,12.79606 -8.22843,35.51852 -9.84899,47.85598 0,0 8.31759,-4.72424 4.41942,-15.65737 -2.796,-7.84191 27.44541,-28.96694 37.60114,-29.42747 0,0 -6.18118,20.57625 -12.74729,28.70295 -11.33928,14.03433 -22.89007,12.77172 -28.03571,23.92858 -7.27934,15.78318 0,52.14285 0,52.14285 0,0 13.80384,-17.35079 13.92857,-27.67857 0.14282,-11.82509 27.67857,-26.25 27.67857,-26.25 0,0 -1.97186,26.34955 -9.10714,38.21428 -6.27975,10.44212 -27.53116,23.21778 -28.75001,26.25001 -2.33134,5.79991 1.78572,18.33724 1.78572,46.25 14.18085,-6.3026 14.66202,-19.81342 18.39286,-29.82143 4.89623,-13.13417 22.75371,-20.5923 23.21429,-18.75 -2.88579,2.88579 -6.93052,26.42688 -10.89286,39.28571 -5.9376,19.26905 -28.91489,18.19846 -31.07143,22.67857 -1.31945,2.74111 -9.19405,48.17127 -9.19405,48.17127 0,0 11.63168,-15.42617 20.0805,-22.60588 6.77951,-5.76114 24.61875,-16.53753 24.61875,-16.53753 0,0 -5.58157,26.65784 -13.04532,34.81219 -9.07868,9.9187 -31.07906,14.14021 -33.84884,15.69821 -3.71536,2.08989 -10.83237,30.71765 -26.11104,47.6046 0,0 15.83653,-15.13531 25.71429,-19.28571 9.08196,-3.81603 25.57274,-2.47492 28.92857,-7.85714 2.2005,10.63573 -12.49433,25.44933 -23.92857,30 -10.98326,4.37118 -31.4457,3.6622 -35,5.71428 -3.26424,1.88461 -12.42325,17.57675 -22.14286,22.85714 0,0 16.62727,-7.5 27.85714,-7.5 8.49088,0 25.40496,5.26956 26.07143,3.57143 -8.11008,7.18013 -18.19425,19.45261 -30.53571,19.64286 -15.22869,0.23477 -25.83488,-8.92857 -29.37501,-8.92857 -3.21552,0 -22.19364,14.5623 -40.08928,18.75 0,0 18.54596,-3.10087 28.21429,-0.53572 11.10664,2.94675 27.24388,16.47736 35,15 -2.6524,4.59409 -21.65081,9.69326 -34.28572,9.28572 -12.75813,-0.41151 -26.40856,-14.1254 -40.74339,-15.63506 -19.85509,-2.09103 -37.9139,4.1116 -58.18518,9.92077 -75.8904,21.74803 -42.43559,33.78055 -66.07143,39.28572 -9.92428,2.31152 -23.04298,3.00517 -24.57414,-2.70921 -0.73385,-2.73874 12.28432,-6.71188 39.18418,-29.51287 9.94405,-8.42882 87.80462,-24.05137 91.10425,-27.77792 7.12284,-8.04443 0.64312,-22.13036 5.35714,-31.78572 5.87789,-12.03923 27.14286,-29.64285 27.14286,-29.64285 -1.55446,10.81577 -0.78385,20.85652 -1.07143,31.25 -0.27235,9.84288 -21.40882,21.52793 -20,26.78571 4.87615,2.81525 40.35714,-12.49114 40.35714,-15.53571 0,-3.82095 -5.23858,-21.85317 -4.28571,-32.85715 1.00529,-11.60932 11.42826,-31.78556 14.28571,-33.21428 -0.9564,10.52038 5.35714,27.43778 5.35714,34.28571 0,22.70047 -9.73966,17.94387 -8.65065,27.20041 11.95232,-7.05991 31.18129,-20.10139 30.64557,-35.86593 -0.34923,-10.27682 -10.07922,-20.34306 -10.07922,-29.90591 0,-20.09912 7.64775,-15.51528 6.56645,-34.19642 13.1179,12.68687 14.32641,20.5667 14.32641,28.83928 0,15.53339 -5.62825,16.76629 -3.52284,34.28571 11.10504,-8.7762 23.70155,-38.36372 23.21428,-44.28571 -1.29679,-15.76058 -18.13019,-25.2545 -18.17096,-36.73187 -0.0705,-19.84253 -3.37778,-21.38559 -3.61847,-33.76949 8.59297,6.69023 21.64906,19.21824 22.54704,29.23187 0.69985,7.80412 -0.79177,19.62591 2.09954,23.41235 0,0 11.33193,-33.1429 6.25,-49.10715 -4.23903,-13.31635 -22.17558,-17.69001 -27.67857,-30.53571 -3.89346,-9.08855 -1.07143,-29.64286 -1.07143,-29.64286 4.28424,6.09968 16.78443,11.52273 21.78571,21.42857 4.33584,8.58784 1.04909,23.66508 9.28572,27.14286 -1.52159,1.315 1.74716,-28.65824 -1.07143,-48.21429 -0.85796,-5.95273 -20.59381,-14.36949 -26.42857,-25 -6.81533,-12.41704 -6.96324,-36.18344 -7.85715,-42.14285 7.02351,7.76697 16.00991,12.83497 20.64557,23.88524 3.27814,7.81425 3.43079,23.25596 10.783,25.04333 -4.27121,-15.69836 0.11901,-41.41544 -0.81517,-45.83312 -2.39977,-11.34846 -17.1027,-16.53388 -20.97054,-25.9526 -3.83599,-9.34117 -1.72587,-25.28957 0.35714,-42.14285 17.27262,17.18575 16.32574,23.27746 17.5,48.57143 0.23665,5.09747 5.77188,3.81145 6.78572,12.14285 -0.13795,-31.82609 9.2701,-40.08317 9.28571,-42.5 0.0261,-4.04786 -17.78048,-20.01542 -21.07143,-32.5 -3.48629,-13.22563 5.36666,-34.88931 2.14286,-42.142854 8.52682,9.857374 17.5,14.987884 17.5,34.285714 0,9.48409 -2.99024,22.89599 4.82143,26.78571 0,0 9.4768,-21.83321 9.82142,-36.78571 0.26098,-11.32345 -8.72793,-20.223 -8.72793,-31.549447 0,-13.490033 21.98876,-38.284271 21.98876,-38.284271 z"
       id="path6795"
       inkscape:connector-curvature="0"
       transform="translate(-7.4218747e-8,-1.0742187e-6)"
       sodipodi:nodetypes="csscsscsscscsscscsscscsscscsscscsscscsscscsssssssscscsscscsscscsscscsscscsscscsscscsscscssc" />
    <path
       style="fill:#078930;stroke:#000000;stroke-width:2;stroke-linecap:round;stroke-linejoin:miter;stroke-miterlimit:10;stroke-opacity:1;stroke-dasharray:none"
       d="m 194.65183,572.00325 c 9.76923,-1.09084 12.89687,-0.53923 19.18746,-4.66004 5.50562,-3.6066 5.30169,-4.76966 8.48214,-4.46429 2.54248,0.24411 6.54886,2.71808 5.53571,5.17858"
       id="path6797"
       inkscape:connector-curvature="0"
       transform="translate(-7.4218747e-8,-1.0742187e-6)"
       sodipodi:nodetypes="cssc" />
    <path
       style="fill:#078930;stroke:#000000;stroke-width:2;stroke-linecap:round;stroke-linejoin:miter;stroke-miterlimit:10;stroke-opacity:1;stroke-dasharray:none"
       d="m 340.92648,523.29922 c 8.97415,1.06523 17.03684,3.64955 23.99113,8.08122"
       id="path6799"
       inkscape:connector-curvature="0"
       transform="translate(-7.4218747e-8,-1.0742187e-6)"
       sodipodi:nodetypes="cc" />
    <path
       style="fill:#078930;stroke:#000000;stroke-width:2;stroke-linecap:round;stroke-linejoin:miter;stroke-miterlimit:10;stroke-opacity:1;stroke-dasharray:none"
       d="m 341.17902,484.91343 c -7.9383,10.50284 -10.66997,19.27014 -12.6269,27.77919"
       id="path6801"
       inkscape:connector-curvature="0"
       transform="translate(-7.4218747e-8,-1.0742187e-6)"
       sodipodi:nodetypes="cc" />
    <path
       style="fill:#078930;stroke:#000000;stroke-width:2;stroke-linecap:round;stroke-linejoin:miter;stroke-miterlimit:10;stroke-opacity:1;stroke-dasharray:none"
       d="m 418.96077,499.81318 c -10.58193,-2.61707 -16.50007,-1.34763 -23.23351,-0.75762"
       id="path6803"
       inkscape:connector-curvature="0"
       transform="translate(-7.4218747e-8,-1.0742187e-6)"
       sodipodi:nodetypes="cc" />
    <path
       style="fill:#078930;stroke:#000000;stroke-width:2;stroke-linecap:round;stroke-linejoin:miter;stroke-miterlimit:10;stroke-opacity:1;stroke-dasharray:none"
       d="m 378.30213,462.43753 c 4.92779,11.1735 0.4714,20.64079 -1.51523,30.55712"
       id="path6805"
       inkscape:connector-curvature="0"
       transform="translate(-7.4218747e-8,-1.0742187e-6)"
       sodipodi:nodetypes="cc" />
    <path
       style="fill:#078930;stroke:#000000;stroke-width:2;stroke-linecap:round;stroke-linejoin:miter;stroke-miterlimit:10;stroke-opacity:1;stroke-dasharray:none"
       d="m 410.37447,425.06189 c 4.46276,7.01425 5.12445,16.14021 3.53554,26.5165"
       id="path6807"
       inkscape:connector-curvature="0"
       transform="translate(-7.4218747e-8,-1.0742187e-6)"
       sodipodi:nodetypes="cc" />
    <path
       style="fill:#078930;stroke:#000000;stroke-width:2;stroke-linecap:round;stroke-linejoin:miter;stroke-miterlimit:10;stroke-opacity:1;stroke-dasharray:none"
       d="m 427.04199,465.97307 c 9.43375,-1.10352 17.32125,-7.36124 24.74874,-15.15229"
       id="path6809"
       inkscape:connector-curvature="0"
       transform="translate(-7.4218747e-8,-1.0742187e-6)"
       sodipodi:nodetypes="cc" />
    <path
       style="fill:#078930;stroke:#000000;stroke-width:2;stroke-linecap:round;stroke-linejoin:miter;stroke-miterlimit:10;stroke-opacity:1;stroke-dasharray:none"
       d="m 431.84021,307.63166 c 9.4186,8.93039 6.07779,21.01008 19.1929,31.8198"
       id="path6811"
       inkscape:connector-curvature="0"
       transform="translate(-7.4218747e-8,-1.0742187e-6)"
       sodipodi:nodetypes="cc" />
    <path
       style="fill:#078930;stroke:#000000;stroke-width:2;stroke-linecap:round;stroke-linejoin:miter;stroke-miterlimit:10;stroke-opacity:1;stroke-dasharray:none"
       d="m 481.33769,330.36009 c -3.4883,12.72137 -11.89846,15.59903 -19.1929,20.70812"
       id="path6813"
       inkscape:connector-curvature="0"
       transform="translate(-7.4218747e-8,-1.0742187e-6)"
       sodipodi:nodetypes="cc" />
    <path
       style="fill:#078930;stroke:#000000;stroke-width:2;stroke-linecap:round;stroke-linejoin:miter;stroke-miterlimit:10;stroke-opacity:1;stroke-dasharray:none"
       d="m 430,246.18249 c -0.72494,9.88095 8.0437,19.76191 16.07143,29.64286"
       id="path6815"
       inkscape:connector-curvature="0"
       transform="translate(-7.4218747e-8,-1.0742187e-6)"
       sodipodi:nodetypes="cc" />
    <path
       style="fill:#078930;stroke:#000000;stroke-width:2;stroke-linecap:round;stroke-linejoin:miter;stroke-miterlimit:10;stroke-opacity:1;stroke-dasharray:none"
       d="m 482.5,255.11107 c -4.88617,4.92439 -7.82795,11.4043 -10.35714,18.21428"
       id="path6817"
       inkscape:connector-curvature="0"
       transform="translate(-7.4218747e-8,-1.0742187e-6)"
       sodipodi:nodetypes="cc" />
    <path
       style="fill:#078930;stroke:#000000;stroke-width:2;stroke-linecap:round;stroke-linejoin:miter;stroke-miterlimit:10;stroke-opacity:1;stroke-dasharray:none"
       d="m 481.33769,77.821951 c -8.64784,9.473009 -6.65356,20.276284 -4.79823,31.062189"
       id="path6819"
       inkscape:connector-curvature="0"
       transform="translate(-7.4218747e-8,-1.0742187e-6)"
       sodipodi:nodetypes="cc" />
    <path
       style="fill:#078930;stroke:#000000;stroke-width:2;stroke-linecap:round;stroke-linejoin:miter;stroke-miterlimit:10;stroke-opacity:1;stroke-dasharray:none"
       d="m 449.51788,125.04658 c 0.60091,11.35236 -0.15433,23.33064 8.83884,30.80966"
       id="path6821"
       inkscape:connector-curvature="0"
       transform="translate(-7.4218747e-8,-1.0742187e-6)"
       sodipodi:nodetypes="cc" />
    <path
       style="fill:#078930;stroke:#000000;stroke-width:2;stroke-linecap:round;stroke-linejoin:miter;stroke-miterlimit:10;stroke-opacity:1;stroke-dasharray:none"
       d="m 484.87322,155.09862 c -4.32273,6.95275 -9.15008,11.88698 -14.14213,16.16244"
       id="path6823"
       inkscape:connector-curvature="0"
       transform="translate(-7.4218747e-8,-1.0742187e-6)"
       sodipodi:nodetypes="cc" />
    <path
       style="fill:#078930;stroke:#000000;stroke-width:2;stroke-linecap:round;stroke-linejoin:miter;stroke-miterlimit:10;stroke-opacity:1;stroke-dasharray:none"
       d="m 433.1029,181.61513 c 1.86703,10.07781 4.66895,19.33758 11.8693,24.74873"
       id="path6825"
       inkscape:connector-curvature="0"
       transform="translate(-7.4218747e-8,-1.0742187e-6)"
       sodipodi:nodetypes="cc" />
    <path
       style="fill:#078930;stroke:#000000;stroke-width:2;stroke-linecap:round;stroke-linejoin:miter;stroke-miterlimit:10;stroke-opacity:1;stroke-dasharray:none"
       d="m 463.40748,216.71793 c 1.87821,-6.89422 7.80355,-13.47711 18.43528,-19.69798"
       id="path6827"
       inkscape:connector-curvature="0"
       transform="translate(-7.4218747e-8,-1.0742187e-6)"
       sodipodi:nodetypes="cc" />
    <path
       style="fill:#078930;stroke:#000000;stroke-width:2;stroke-linecap:round;stroke-linejoin:miter;stroke-miterlimit:10;stroke-opacity:1;stroke-dasharray:none"
       d="m 432.14286,376.89678 c 1.54551,9.51037 6.86831,19.49754 8.92857,25.35714"
       id="path6829"
       inkscape:connector-curvature="0"
       transform="translate(-7.4218747e-8,-1.0742187e-6)"
       sodipodi:nodetypes="cc" />
    <path
       style="fill:#078930;stroke:#000000;stroke-width:2;stroke-linecap:round;stroke-linejoin:miter;stroke-miterlimit:10;stroke-opacity:1;stroke-dasharray:none"
       d="m 483.21429,380.46821 c -14.6023,13.02329 -12.26855,15.88494 -31.07143,31.42857"
       id="path6831"
       inkscape:connector-curvature="0"
       transform="translate(-7.4218747e-8,-1.0742187e-6)"
       sodipodi:nodetypes="cc" />
  </g>
  <g
     inkscape:groupmode="layer"
     id="layer3"
     inkscape:label="Herz"
     style="display:inline"
     transform="translate(7.4218747e-8,1.0742187e-6)">
    <path
       style="fill:#da121a;stroke:#000000;stroke-width:2;stroke-linecap:butt;stroke-linejoin:miter;stroke-miterlimit:4;stroke-opacity:1;stroke-dasharray:none"
       d="m 281.42857,301.89678 c 0,0 -15.38109,-32.14286 -56.42857,-32.14286 -30.37185,0 -60,28.24512 -60,68.57143 0,42.85975 15.7104,56.65879 42.02526,80.28041 22.82708,20.4908 54.61301,48.35379 73.54461,75.1465 13.96885,-22.45536 60.21093,-59.79576 86.62058,-84.60027 17.79799,-16.71626 26.76904,-35.98826 26.76904,-68.1853 0,-31.55817 -17.72003,-70.2056 -56.56854,-70.2056 -42.84949,0 -55.96238,31.13569 -55.96238,31.13569 z"
       id="path6692"
       inkscape:connector-curvature="0"
       sodipodi:nodetypes="cssscsssc" />
    <path
       style="fill:#ffffff;stroke:none"
       d="m 186.16393,367.28667 c 4.22064,-0.8924 -4.20767,-27.99204 5.62238,-40.76849 26.54484,-34.50126 33.15588,-27.20923 31.60534,-41.64034 -1.15097,-10.71221 -28.18784,7.06468 -35.57942,25.4061 -10.40376,25.81582 -8.6264,58.47817 -1.6483,57.00273 z"
       id="path6694"
       inkscape:connector-curvature="0"
       sodipodi:nodetypes="sssss" />
    <path
       style="fill:#ffffff;stroke:none"
       d="m 290.27092,352.52217 c -3.80951,-1.02075 0.38737,-30.44202 9.5098,-42.63036 8.12084,-10.85013 31.69154,-26.37889 34.22263,-16.93275 2.80802,10.47967 -9.70344,11.58536 -19.18977,21.07169 -7.82539,7.82539 -9.84018,10.23054 -12.13021,14.19699 -8.42071,14.5851 -8.80976,25.25977 -12.41245,24.29443 z"
       id="path6696"
       inkscape:connector-curvature="0"
       sodipodi:nodetypes="ssssss" />
  </g>
</svg>
