<?xml version="1.0" encoding="UTF-8"?>
<svg width="203mm" height="228mm" version="1.1" viewBox="0 0 203 228" xmlns="http://www.w3.org/2000/svg">
 <title>Wappen von Grüntal</title>
 <g transform="translate(-3.58258 -34.5)">
  <path d="m5.08258 36 3.17e-4 125.069c6.72e-5 26.5032 10.5358 51.921 29.2893 70.6616 18.7535 18.7406 44.1888 29.2691 70.7104 29.2691 26.5216 7e-5 51.9571-10.5283 70.7107-29.269s29.2896-44.1585 29.2894-70.6618l-8e-4 -125.069z" fill="#fcdb00"/>
  <g stroke="#000">
   <g stroke-width="2.5">
    <path d="m64.0917 49.1143c1.80859 7.20957 3.16132 14.5435 6.82839 21.2462 7.4388 0.905953 14.8776 0.413308 22.3164-0.07124-6.66514 3.72014-13.0205 7.75006-18.0962 13.0596 1.51869 7.26803 4.02488 14.2892 6.9639 21.2021-5.62176-5.15642-11.6788-9.44226-18.0125-13.1749-6.32311 3.43476-12.2191 8.15082-18.0125 13.1749 2.89599-7.01514 5.96281-14.0147 6.9639-21.2021-6.26997-5.57216-11.8111-9.39343-18.0962-13.0596 7.76338 0.104929 15.282 0.383089 22.3164 0.07125 3.83729-6.63601 5.44586-13.9088 6.82839-21.2462z" fill="#00973f" stroke-linejoin="round"/>
    <path d="m64.2807 106.976c-12.755-0.12294-9.46253-13.1571-8.89986-15.3452-1.60618 1.59593-13.4321 8.36923-17.3444-3.72233s8.90402-13.2829 11.844-13.2062c-2.49118-1.59626-12.2763-10.109-1.81956-17.6458s15.601 4.37702 16.2198 7.18335c0.685724-2.96449 5.52051-14.9667 16.2198-7.18335s0.545976 16.1625-1.81956 17.6458c2.77194-0.230901 15.3344 2.4031 11.844 13.2062s-14.7619 5.51304-17.3444 3.72233c1.50214 2.75968 3.85518 15.4682-8.89986 15.3452z" fill="#da251d" stroke-miterlimit="8"/>
    <circle cx="64.1482" cy="79.6431" r="6.41447" fill="#fcdb00" stroke-miterlimit="8"/>
    <path d="m145.363 49.1143c1.80859 7.20957 3.16132 14.5435 6.82839 21.2462 7.4388 0.905953 14.8776 0.413308 22.3164-0.07124-6.66513 3.72014-13.0205 7.75006-18.0962 13.0596 1.5187 7.26803 4.02488 14.2892 6.9639 21.2021-5.62175-5.15642-11.6788-9.44226-18.0125-13.1749-6.32311 3.43476-12.2191 8.15082-18.0125 13.1749 2.896-7.01514 5.96281-14.0147 6.9639-21.2021-6.26996-5.57216-11.8111-9.39343-18.0962-13.0596 7.76337 0.104929 15.282 0.383089 22.3164 0.07125 3.83729-6.63601 5.44586-13.9088 6.82839-21.2462z" fill="#00973f" stroke-linejoin="round"/>
   </g>
   <g stroke-miterlimit="8" stroke-width="2.5">
    <path d="m145.552 106.976c-12.755-0.12294-9.46253-13.1571-8.89986-15.3452-1.60618 1.59593-13.4321 8.36923-17.3444-3.72233s8.90401-13.2829 11.844-13.2062c-2.49118-1.59626-12.2763-10.109-1.81957-17.6458s15.601 4.37702 16.2198 7.18335c0.68572-2.96449 5.52051-14.9667 16.2198-7.18335s0.54597 16.1625-1.81957 17.6458c2.77194-0.230901 15.3344 2.4031 11.844 13.2062-3.49045 10.8031-14.7619 5.51304-17.3444 3.72233 1.50213 2.75968 3.85517 15.4682-8.89987 15.3452z" fill="#da251d"/>
    <circle cx="145.419" cy="79.6431" r="6.41447" fill="#fcdb00"/>
    <path d="m25.0826 106c-5.5827 0-13.0345 2.10621-19.9998 4.63693v38.3992c6.98593-2.31011 14.4513-4.23644 19.9998-4.23644 13.93 0 26.0701 12.1 40.0001 12.1s26.0696-12.1 39.9996-12.1c13.93 0 26.0701 12.1 40.0001 12.1 13.93 0 26.0701-12.1 40.0002-12.1 5.54847 0 13.0139 1.92633 19.9998 4.23644v-38.3992c-6.96534-2.53072-14.4171-4.63693-19.9998-4.63693-14.051 0-25.9491 13.3-40.0002 13.3-14.051 0-25.9491-13.3-40.0001-13.3-14.051 0-25.9486 13.3-39.9996 13.3s-25.9491-13.3-40.0001-13.3z" fill="#00973f"/>
   </g>
   <path d="m105.082 156c-5.48525 12.0998-16.3725 15.9468-11.5104 34.2387-16.1279-20.3047-33.0145 2.34834-19.9967 12.5946 1.31156 1.03233 2.23204 2.88062 2.32361 4.10207 11.8218-17.629 18.1696 5.19322 18.0779 10.7115-0.253154 15.2398-8.50625 17.6015-10.2469 10.0728-13.2116 0.23664-1.28255 25.6939 13.1764 6.06105-3.91167 11.1105-0.71501 17.9031 8.17611 22.2194 8.89113-4.31633 11.8048-11.2033 7.89313-22.3139 14.459 19.6329 26.6714-5.72992 13.4599-5.96656-1.74066 7.52871-9.99376 5.16697-10.2469-10.0728-0.0917-5.51828 6.25615-28.3406 18.0779-10.7115 0.0916-1.22145 1.01205-3.06974 2.32361-4.10207 13.0177-10.2462-3.86887-32.8993-19.9967-12.5946 4.86208-18.2919-6.02564-22.1389-11.5109-34.2387z" fill="#da251d" stroke-linejoin="round" stroke-width="2"/>
  </g>
  <g fill="none" stroke="#000" stroke-linecap="round" stroke-width="2">
   <path d="m93.0505 189.566c9.49543 11.0237 5.74205 38.6176 3.4355 45.1122"/>
   <path d="m117.362 189.253c-9.02711 11.7093-12.2943 35.0237-3.87631 45.1065"/>
   <path d="m134.094 206.258c-0.43302-16.0186-10.7944-13.6297-14.9854-5.03288-2.60985 5.35347-9.76926 29.7458 3.02981 30.4846"/>
   <path d="m76.1162 206.258c1.75593-18.381 16.1805-12.6848 18.1036-3.89895 1.2735 5.81801 6.65091 28.6119-6.1481 29.3507"/>
  </g>
  <g stroke="#000">
   <path d="m105.091 175.86c-1.42468 20.0007-1.15825 40.135 0 60.2693 1.48757-20.1945 1.40556-40.4182 0-60.2693z" stroke-width=".5"/>
   <path d="m92.7882 216.886h24.5888c2.00452 0 2.00452 6.01356 0 6.01356h-24.5888c-2.00452 0-2.00452-6.01356 0-6.01356z" fill="#da251d" stroke-linecap="round" stroke-linejoin="round" stroke-miterlimit="8" stroke-width="2"/>
   <path d="m5.08258 36 3.17e-4 125.069c6.72e-5 26.5032 10.5358 51.921 29.2893 70.6616 18.7535 18.7406 44.1888 29.2691 70.7104 29.2691 26.5216 7e-5 51.9571-10.5283 70.7107-29.269s29.2896-44.1585 29.2894-70.6618l-8e-4 -125.069z" fill="none" stroke-linecap="square" stroke-miterlimit="8" stroke-width="3"/>
  </g>
 </g>
</svg>
