<?xml version="1.0"?>
<svg width="430" height="464"  xmlns="http://www.w3.org/2000/svg">
<g stroke-width="2.5" transform="matrix(.397 0 0 .397 -.6 .9)">
<path d="m977.5 33.9c26.2 32.6 62.8 73.8 104 119 0 0-57.1-4.5-61 74l-25 503c-4 81.4-19.9 133.3-54.2 199.8-30.8 59.7-76 108.7-131.8 151.1-61.5 46.8-162.4 83.2-250 84.1-97 1-194.6-24.7-277-87-74-56-128.1-127.2-160.5-212.5-17-47-23.4-87-27-145l-31-502c-4.1-67-59.5-63.5-59.5-63.5s63-65.7 98.5-122.5c-3 24.5 9 30.2 28.5 24.5 131.5-38.5 264.5-57.5 408.5-57.5 129 0 268 17.2 401 55 18.6 5.3 36.7 13 36.5-20.5z"/>
<path d="m97.1 56.4c11.5 17.1 36 7 63 0 126.9-32 245-48.5 380-48.5 144 0 280 21.5 390.9 51.6 27.3 7.4 42.1 11 52.1-3l50 70c-102-53-283-103-493-103-167 0-355 33-493 103z" fill="#fff"/>
<path d="m103.9 712.2c0 57.1 11.3 114.2 33.3 167 21.8 52.7 54.1 101.1 94.6 141.5 40.4 40.1 88.8 73.1 141.4 94.2 52.8 22 109.9 33.1 167 33.1s114.2-11 167-33.1c52.7-21 101.1-54.1 141.4-94.2 40.5-40.5 72.7-88.9 94.6-141.5 21.9-52.8 33.3-109.9 33.3-167l12.5-456c2.1-76.9 1.3-93.9 44.3-129.8-164.2-71.7-318.4-96.3-493-96.3s-332.8 25.4-493 96.3c49 35 43 79.8 43.9 123z" fill="#d22" stroke="#000"/>
</g>
<path d="m387.9 135.6c-7.2 3.9-15.9 5.6-23.9 7.2-8.3 1.7-16.9 3-25.4 2.8 24.8-6.5 59.7-24.8 49.7-55.7-15.7 11.7-33 21.9-51 29.8 6.2-5.7 13.2-10.4 18.9-16.7 5.5-6.2 10.7-12.7 15.8-19.2 4.3-5.6 8-10.7 7.6-18.2-.2-3.7-.2-7.8-2.1-11-2-3.4-5.2-6.3-8.4-8.7-5.9 19.4-22.8 36.2-38.3 48.5 5.9-7.2 10.5-14.9 13.9-23.6 3-7.7 7.2-23.1-2.7-28-2.1-1-4.4-1.1-6.7-1.2-.5 1.7-1 3.4-1.6 5.1-1.7 5.1-3.9 10-6.5 14.6-5.2 9.3-12.9 17-19.7 25.1-7.3 8.6-14.6 17.2-22 25.8-6.6 7.6-15.4 12.5-21.6 20.6-3.1 4-5.7 8.9-5.2 14.1.2 2.5 1.3 4.7 3.1 6.5 1.6 1.6 3.3 2.3 3.2 4.8-.3 4.3-5.9 8.2-9 10.6-4.7 3.5-9.7 6.6-14.9 9.3 0-5.6-3-9.6-7.6-12.5-2.3-1.5-4.9-2.6-7.4-3.5-1.2-.4-6.5-1.1-7.2-2 0-11.7 9.6-19.9 17.8-26.6 9-7.2 19.2-12.6 28.3-19.6 8.6-6.7 14.9-17.6 17.9-28 3-10.7 1.7-22.1-5.6-30.8-7.9-9.3-19.6-13.8-31.5-14.7-5.6-.4-11.2-.2-16.7.5-2.8.4-5.6.9-8.3 1.5-2.3.5-4.5 1.5-6.8 1.2-4.8-.7-9.8-1.4-14.7-1.4-2 0-4.1.1-6 .8-2 .8-3 3.2-5.2 3.4-4.8.5-7.9 2.1-11.2 5.8-1.1 1.2-2.1 2.5-2.9 3.9-.4.6-4.3 1.3-5.2 1.8-3.3 1.7-6.4 4.4-8 7.8-.2.5-5.1.1-5.9.2-2.3.2-4.5.6-6.7 1.3-3.9 1.3-7.6 3.7-9.9 7.2-1.1 1.7-2 4-1.7 6.1.5 2.6 2.4 1.4 4 .7 8-3.3 16 .1 23 3.8-3.5 3.5-6.7 7.9-9.2 12.1-.7 1.3-1.8 3.1-1.5 4.7.5 2.4 4.7 1.1 6.1.7 10.1-3.1 19.3-10.3 28.2-15.8 4.4-2.7 10-3.5 14.9-4.9 2.1-.6 4.7-.9 6.6-1.9 2.8-1.4 5.3-3.7 7.5-5.9 2.1-2 4.1-4.1 6.1-6.3 1-1.1 2.6-3.8 3.9-4.5s3.8-.6 5.3-.7c2.9-.3 5.9-.5 8.9-.5 11.6.1 24.1 4.5 20.5 18.6-2.8 11-13.3 16.7-22.7 21.1-10.4 5.5-20.8 10.8-31.3 15.9s-22 9.2-30.1 17.8c-7.9 8.4-12.3 20.6-11.1 32.1-2.1-1.3-4.6-.9-6.2.9-2 2.3-5.9-.8-7.9-2.3-4.7-3.5-7.7-11.6-2.5-16.2 13.4-11.9-.2-25-8.8-34.4-10.5-11.5-20.9-23.1-31.2-34.8-8.1-9.2-18.9-19.2-14.3-32.4-5.2.2-11.3.2-15.3 4.2-4.3 4.2-3.6 10.9-2.5 16.3 2.3 11.6 12.4 19.9 18.1 30-5.3-4.7-10.4-9.1-15.1-14.6-5.6-6.5-10.8-13.4-15.8-20.4-3.9-5.5-7.8-11-11.4-16.7-1.1-1.7-.9-2-2.7-1.1-1.5.8-2.9 1.7-4.2 2.8-2.4 2.1-4 4.8-4.8 7.8-3.4 13.3 5.8 25.3 14.2 34.3 10.1 11 21 21.2 32.2 31.1-16.8-8.4-32.3-20.3-47.1-31.8-4.6 14 1.2 25.6 11.8 35.1 9.7 8.8 21.4 16 33.4 21.3-16-3.1-31.7-8.1-45.4-16.9-1.6 8.5.7 17.2 5.7 24.2 7.7 10.6 20.1 11.5 32 14.1-5 1.4-11.5 3.7-15.4 7.2-5.6 5.1-4.1 12.4-.6 18.4 1.3 2.3 3.3 5.8 6 6.8 1.1.4 2.4.6 3.5.9.8-1.4 1.2-2.7 2.6-3.5 6.3-3.5 13.4-5.6 19.9-8.8-2.8 3.7-4.4 7.6-4.7 12.3-.4 6.1 3.9 11.6 8.3 15.3.9.8 3.6 3.3 4.5 1.9 1.5-2.4 3.1-4.7 4.8-6.9 3.3-4.3 7.2-8.4 11.5-11.7-2.2 8.2-1.3 18.8 6.9 23.5 1.6.9 3.5 1.1 5 1.9 2.8.3 2.5-1.1 3.3-3.5 1.2-4.1 2.6-7.3 4.9-10.8.4 7.1 1 16.7 8.8 19.4 2.8 1 9.5-.8 9.5-4.6 0-4.4 1.1-9 4.2-12.3 3.2 7.4 7.8 14.3 13.4 20.1 2.3 2.3 4.8 4.6 7.5 6.4 1.1.8 4.5.3 5.9.4 2.2.1 4.4.1 6.6.2 8.8.2 17.6.3 26.4.3 4.1 0 8.2-.1 12.3-.2 2.3-.1 4.6-.1 6.9-.2 1.5.4 2-.1 1.5-1.5v-3.9c4.4 1.2 8.9 2 13.4 2.5 3.5.4 10 1.7 13.1-.5 1.1-.8-.7-3.6-.9-4.5s4.2-2 5.2-2.5c4.2-2.3 8-6.2 9.6-10.7.9 1.5 3.3 7.6 4.8 8.1 4.2-.5 7.2-3.5 9.5-6.8 1.8-2.6 3.9-5.6 4.3-8.8.5-3.8-.2-8-.7-11.8 5.4 8.8 10.3 18.3 14 28 10.9-8.9 15.5-23.1 10.1-36.3 4.7 2.6 9 6 13.1 9.4 1.7 1.4 3.4 2.9 5 4.5 1 .9 4 4 4 4.2.1 1 .1 2.1.2 3.1 6.7-4 11.3-13.3 11.3-21.1 0-9.2-10-15.1-17.3-19.1 11.3-.9 22.9-.7 33.3-6.1 12.4-6.4 17-18 16.9-31.4l-2.1.6"/>
<g stroke="#000">
<path d="m91.3 51.1c-1.8 10.7 7 20.7 13.2 28.2 7.3 8.9 14.7 17.8 22.1 26.7 6.7 7.9 15.2 14 21 22.7 2.7 4.2 5.3 9.5 3.8 14.6-1.7 5.5-8.2 7.1-6.7 13.8 1.1 5.1 5.1 9.5 8.9 12.9 1.8 1.7 2.7 1.8 5.1 1.9 1 .1 2.1.2 3.1.2v36.2c0 2.1-.5 1.1-2.1 2.1-4.2 2.7-4 8.2-6 12.2-3.1 6.4-7.7 2.8-9.8-2.1-1.1-2.4-1.8-5-2.4-7.6-.4-1.6-.5-6.5-1.8-7.4-3.2-2.3-6.5 7.2-7.1 8.9-.8 2.2-1.5 4.4-2.2 6.6-10.9-5.8-11.6-18.6-6.6-28.6-10.2 3.5-18.4 12.6-23.9 21.5-5.2-4-9.3-11-6.5-17.6 3.2-7.6 11.8-9.6 16.4-16 2.4-3.3-4.7-1.5-5.8-1.2-4.5 1.2-8.9 2.8-13.2 4.5-3.8 1.5-7.5 3.1-11.2 4.8-2.1 1-10.7 4.3-10.5 7.3-3.1-3.3-6.2-7.6-7-12.2-.9-5.8 3.5-8.4 8.1-10.4 5.5-2.4 11.5-3.9 17.4-5 1.3-.2 14.3-1.4 14.3-2.2 0-1.1-16.1-1.5-17.3-1.6-6.8-.5-13.9-1-20.5-2.9-12.1-3.5-22.2-14.9-22.2-27.9 12.2 7 26 11.5 39.7 14.2 4 .8 8.1 1.4 12.2 1.9 3.6.4 4-2.2 1.3-4.1-3.4-2.3-7.6-3.6-11.4-5 .1 0 .1 0 .2.1-17.5-5.9-47.5-23.1-41-45.6 8.8 6.6 17.8 12.9 27.1 18.8 5.1 3.3 10.3 6.5 15.6 9.3 1.6.8 10.3 5.9 11.8 3.5-.4.7-13.5-12.2-14.6-13.3-6.6-6.6-13.2-13.3-19.6-20.2-9.8-10.5-29.7-29.7-12.1-42.9 8.1 11.8 16.9 23.2 26.2 34 2.6 3 31.6 34.9 33.8 32.3 1.5-1.8-7.4-11.9-8.5-13.5-4.6-6.3-9.3-12.6-13.9-18.9-4.5-6.2-8.7-11.6-9.4-19.5-.8-8.1 4.1-13.2 12.1-13.9" fill="#fff"/>
<path d="m266.1 235.7c.7 8.7-10 8.1-15.8 7.2-3.5-.6-7.1-1.5-10.4-2.7-1.3-.5-6.2 3-7.6 3.6-14.8 6.4-31.6 6.5-45.7-1.7-14.2-8.4-24-23.4-29.1-38.8-3-9.1-8.5-36.6 9.1-33.9-2.4-22.6 16.7-39.7 35.5-47.9 9.5-4.1 18.9-8.3 28.2-13 4.9-2.5 9.7-5.1 14.4-7.9 3.4-2 11-5.4 12.4-9.5 5.4-7.3 10.4-19.1 2.2-26.3-7.4-6.4-21.1-7.5-30.2-5.7-4.7.9-7.8 5.7-11.2 8.8-4.5 4.1-9.5 8.4-15.4 10.5-4.5 1.7-9.5 3-14.1 4.2-4.4 1.1-9.1 5.2-13 7.5 2.3-2.3 4.5-4.7 6.8-7.1 2.5-2.6 4.1-5.4 5.9-8.5 2.7-4.8 12.3-7.3 11.1-14.4-2.4 1-3.4.7-5.9.7-2.1 0-4.8.4-5.7 2.6-.8 1.9-2.7 1.5-4.9 1.3-3-.2-6.3-1-8.3-3.3-3.7-4.4.4-7.2 3.9-9.9 2.1-1.6 4.4-3 6.9-3.9s4.4-.8 6.6-2c4.2-2.5 9.9-2.2 14.5-1.7 2.1.2 5.7 1.5 7.7 1 2.7-.7 5.4-1.3 8.1-1.9 10.1-2.1 19.8-2.3 29.8.2 11.1 2.8 21.5 9 26.4 19.8 4.5 10 2.1 21.4-2.7 30.8-5.5 10.8-14.6 19.5-24.7 26.1-9.1 6-18.6 10.6-26.2 18.6-4.4 4.6-8.3 10.3-8.6 16.9-.1 2.4-.2 6.4 2.3 7.3 2.6 1 5.1 2.1 7.5 3.3 5.2 2.7 11.6 6.7 13.2 12.9.8 3 0 6.4-.2 9.4-.3 3.9-.6 7.8-1 11.7-.3 3.4-.6 6.9-.8 10.3-.3 3.2-.3 3.8 1.5 6.3 3.9 5.2 6.9 11 9 17.1 4.1 3.6 9-2.3 10.6-5.5.3-.7.5-2.5 1.5-2.4 1.3.1 2.6.7 3.5 1.6 2.1 2.1 2.7 5.3 3 8.1" fill="#fff"/>
<path d="m39.4 237.3l1.3 46.4c0 22.7 4.5 45.3 13.2 66.3 8.7 20.9 21.5 40.1 37.5 56.2 16 15.9 35.2 29 56.1 37.4 21 8.8 43.6 13.1 66.3 13.1s45.3-4.4 66.3-13.1c20.9-8.3 40.1-21.5 56.1-37.4 16.1-16.1 28.9-35.3 37.5-56.2 8.7-21 13.2-43.6 13.2-66.3l1.3-46.4h-173.5z" fill="#fd1" stroke-width="2"/>
<path d="m229 186.5c6.8-3.5 13.5-7.2 20.2-11.1 6.6-3.9 13-8 17.1-14.8 2.5-4.1 1.1-5.4-1.9-8.3-2.8-2.7-4.1-6.3-3.3-10.2 1.7-8.3 9.7-14.9 16.1-19.9 13.8-10.7 25.1-25.4 36-39 4.6-5.8 9.2-11.5 13.7-17.3 4.6-6 9.6-13.9 9.3-21.7 17 5.9 5.1 26.1-.7 35.9-3.7 6.3-7.6 12.4-11.7 18.4-2 3-4.1 5.9-6.1 8.8-1.3 1.8-4.1 4.5-4.2 6.9-.1 1.8 5.9-4 6.1-4.2 2.8-2.9 5.6-5.8 8.5-8.7 6.2-6.2 12.4-12.4 18.5-18.7 5.1-5.2 10.1-10.5 14.8-16 2.6-3 12.3-13.1 8.4-17.5 4.6 5.1 7.6 10.5 6.9 17.7-.7 7-4.5 14.7-9 20.1-11.1 13.3-25.1 24.5-38.5 35.4-2.2 1.8-4.5 4.2-7 5.5-3 1.6-1.2 1.7 1 1.4 8-1.3 16-6.7 22.9-10.6 14.3-7.9 28.2-16.6 41.7-25.7 8.5 24-23.9 41.7-42.7 46.7.1 0 .2-.1.3-.1-3.9 1.1-7.8 2.3-11.6 3.5-2.9.9-5.8 1.8-8.6 2.9-2.1.8-6.4 1.8-7.4 4.1 23.4.9 47.9-2.9 69.7-11.6 0 14.7-9.2 23.9-23.3 27.2-7.7 1.8-15.7 2-23.6 1.7-1.7-.1-19-1.4-19-.9 0 1.8 10.4 5.3 11.9 6.1 5.4 2.6 10.8 5.5 16 8.5 11.4 6.7 4.9 20-2.1 27.5.2-2.6-3.7-5.6-5.5-7.1-2.9-2.5-6-4.8-9.1-7-3.1-2.1-6.2-4.1-9.5-5.9-.6-.3-7.2-3.8-7-2 .2 2.7 3.7 6.3 4.8 8.9 1.5 3.5 2.6 7.3 2.4 11.2-.2 6.3-4 12.1-9.5 15-4.7-12.2-12.3-24.7-22.8-32.8 5.1 10.5 10.2 29.4-3.7 35.8-2.6-8.1-6-20.6-13.3-25.8 1.6 7.1 5.7 24.6-3 29-5.9 3-8.5-4.5-8.9-8.7-.2-2.1-.4-4.4-1.4-6.2-.7-1.4-2.5-2.5-3.5-3.8.5 4.8 1 9.7 1.1 14.6 0 3.7-2.8 7.5-5.6 9.9-7 5.9-8.9-20.5-17.9-18.2" fill="#fff"/>
<path d="m269.9 94c.9.4 1.3.6 2.2 1m-7.5 5.3c.7.9 1.1 1.4 1.8 2.4m.8-5.3c.9.6 1.4.8 2.3 1.4m2.7-13c1.6.5 2.3.8 3.9 1.2m-5.2 3.5c1.2.5 1.8.8 3.1 1.3m-13.9 9.8l3 5.4m-6.7-2.1c1 1.9 2 3.7 3 5.6m-6.6-3.6c1.2 2 2.3 3.9 3.5 5.9m-6.8-1.6c1 1.7 2 3.3 3 5m-6.5-1.7c.9 1.5 1.3 2.2 2.2 3.7m-7.4-2.6c1.3 1.8 2.6 3.6 3.9 5.5m-8-3.1c1.3 1.9 2.6 3.9 3.9 5.8m-7.7-2.5c.9 1.6 1.7 3.2 2.6 4.8m-6.1-.9c1 1.3 1.4 2 2.4 3.3m-6.3-.5c.5.6.7.8 1.2 1.4m-4.8.8c1.1 1.4 1.6 2 2.7 3.4m-6.8-1.5c1.5 1.6 3 3.2 4.6 4.8m-8.6-1.1c2.1 1.8 4.2 3.5 6.4 5.3m-9.7-1.2c2.1 1.5 4.2 3.1 6.4 4.6m-10.7 5.5c2.8.6 5.5 1.2 8.3 1.9m-6.6-7.2c2.5 1.2 5 2.3 7.5 3.5m-9.9 6.9c2.9.2 5.7.4 8.6.6m-7.7 4.1c3.6-.3 7.3-.6 10.9-1m-10.1 5.7c3.9-1 7.9-2.1 11.8-3.2m-8.7 7.5c5-1.2 10-2.4 14.9-3.6m-8.8 7.1c5.6-1.1 11.2-2.3 16.8-3.6m-13.2 7.5c5.4-1.2 10.9-2.5 16.3-3.9m-13.1 8.2c5.3-1.3 10.6-2.6 16-3.9m-12.7 7.2c4.4-1.4 8.9-2.9 13.3-4.4m-14.7-126.6l.5 3m-4.4-.6c.2 1.5.3 2.2.5 3.7m-11.4 5.2c.4 1.9.6 2.8 1 4.6m2.5-8.5c.2 2 .3 3.9.5 5.9m2.3-11.1l1 7.1m-14 8.3c.4 1.6.6 2.4 1 3.9m2.3-7c.3 1.7.7 3.3 1 5" fill="none"/>
<path d="m128.5 78.2c3.8 7.3 13.5 9.3 21 8.9 5.2-.3 10.3-1.5 15.1-3.2 2.4-.8 4.8-1.8 7.1-2.8l7.4-1c-10.4 5.3-54.4 24.4-50.7-2m45.1 11.3c-4.4 3.7-9.1 6.9-13.5 10.6 8.4-3.1 16.1-9.3 23.7-14.2-1-6.5-8.5 2.2-10.2 3.6z" fill="#fd1"/>
</g>
<path d="m167 66.7c-2.3 0-4.4.1-5.7.2-7 .3-25 2.3-22 13.2 8.1-2.6 17.6-3.1 25.9-1.1 4.1 1 8.3 2.9 12.7 2 .1 0 .3-.1.4-.1-.9.8-1.9 1.7-2.8 2.5-4.9 3-22 12.4-21.3 15.8.7 2.1 5.3.4 6.4-.5 2.6-2.2 5.2-4.3 7.8-6.5l9.3-7.8c1.3-1.2 2.7-2.3 4.1-3.5.2-1.1.3-2.2.4-3.4 0 0 0 0 0 0 0 0 0-.1 0-.1 0 0 0 0 0 .1 0 0 .1-.1.1-.1h-.1c.3-1 .2-2.1-.5-3.1v-.1c1.6-6.5-7.8-7.4-14.7-7.5z" fill="#fd1"/>
<path d="m190.6 66.7c1.5-2.2-3.3-4.1 2-4 1.7 0 4.1.5 2.6 2.7-1 1.4-3.2 1.4-4.6 1.3" fill="#fff"/>
<path d="m55.9 357.2s8-2.3 10.8-3.7c12.5-6.3 18.6-14 19.5-17.9.8-3.9 6.9-11.6 19.5-17.9 12.5-6.3 22.8-6.5 26-5 4.3 1.9 13.4 1.3 26-5 12.5-6.3 18.6-14 19.5-17.9.9-4.1 6.9-11.6 19.5-17.9 12.5-6.3 22.7-6.5 26-5 3.7 1.6 13.4 1.3 26-5 12.5-6.3 18.5-13.7 19.5-17.9.3-1.5 1.6-3.8 3.9-6.4h115.3c-.1 1.1-.1 2.2-.2 3.4-4.4 8.8-7.4 12.6-10.2 17.7-7.2 12.5-22.5 26.1-26 24.5-3.6-1.6-13.4-1.3-26 5-12.5 6.3-18.6 14-19.5 17.9-.8 3.9-6.9 11.6-19.5 17.9-12.5 6.3-22.8 6.5-26 5-4.3-1.9-13.4-1.3-26 5-12.5 6.3-18.6 14-19.5 17.9-.9 4.1-6.9 11.6-19.5 17.9-12.5 6.3-22.7 6.5-26 5-3.7-1.6-13.4-1.3-26 5-12.5 6.3-18.5 13.7-19.5 17.9-.8 3.6-8.3 12.4-20.7 18.8-29-17.8-47.1-59.2-47.1-59.2"/>
<path d="m277.9 238.3c-5.6 4.3-8.6 8.3-9.2 10.5-1 3.8-7.1 10.6-19.4 16.8-12.3 6.1-21.7 6.8-25.2 5.5-3.1-1.2-12.9-.7-25.2 5.5s-18.4 13.1-19.4 16.8c-1 3.5-7.1 10.6-19.4 16.8-12.3 6.1-21.2 7-25.2 5.5-3-1.2-12.9-.7-25.2 5.5-12.3 6.1-18.5 13.3-19.4 16.8-1 3.5-7.1 10.6-19.4 16.8-3.6 1.8-8.4 3.6-11.4 4.5 9 17.5 21.1 36.2 39.5 52 1.2-.5 4.5-1.6 5.8-2.3 12.3-6.1 18.5-13.5 19.4-16.8 1-3.8 7.1-10.6 19.4-16.8 12.3-6.1 21.7-6.8 25.2-5.5 3.1 1.2 12.9.7 25.2-5.5 12.3-6.1 18.4-13.1 19.4-16.8 1-3.5 7.1-10.6 19.4-16.8 12.3-6.1 21.2-7 25.2-5.5 3 1.2 12.9.7 25.2-5.5 12.3-6.1 18.5-13.3 19.4-16.8 1-3.5 7.1-10.6 19.4-16.8 12.3-6.1 21.8-6.8 25.2-5.5 3.3 1.3 22.1-14.3 27.5-21.9 4.8-6.9 7.2-14.2 8.2-20.6h-88.9z" fill="#07c"/>
<path d="m335.7 56.2c-1.6 8.6-8.8 17.4-13.6 24.5-4.3 6.4-8.8 12.8-13.5 18.9-4-1.5-10.4 2.5-13.2 4.5 3.8-1.1 8.7-2.6 12.7-1.5 4.9 1.3.5 7.1-1.2 9.2 7.5 2 12.3 7.6 5.7 13.9 3.2 1.3 7.4 4.1 6.6 8.1-.9 4.2-5.6 7.1-9 9 2.9 1.8 7.4 5 7.2 8.9-.2 4.2-6 6.1-9.3 7 4.7 9.7-3.2 14.1-11.8 13.6 1.8 3.5 3.3 9.2-.4 12-3.4 2.6-8.6 1.9-12.5 1.2 2.2 9.5-7.3 10-13.9 8.1-.3 7.9-6.2 10.1-12.6 6.7 2.4 10-7.6 7.3-12.9 4.5.8 8.3-5.1 10.3-11.5 7.2-.6-.7-1.8-2.8-2.6-3.3.6.4 1.6 1.8 2.4 3.1 0 0-.1 0-.1-.1l.1.1c.6 1 1.2 1.9 1.5 2.2 2.4 2.6 5.7 3.4 8.9 1.5 1.5-.9 2.8-2.2 3.9-3.6.3-.4.6-.6 1-.7.7 1.8 1.3 4.3 1.5 5.1 1.1 3.2 2.1 6.5 3.1 9.7-.1-3.1-.3-6.2-.6-9.3-.2-1.6-.3-3.3-.7-4.9 3.1.2 6.3-.5 8-3.4 1.1-1.8.3-3.2 2.5-3.1 1.5.1 3.1-.1 4.5-.6.1 0 .2-.1.4-.2.3.6.9 1.2 1 1.7 1.6 5 2 10.4 2.6 15.6 4-3.7.7-13.7-.9-18.8.6-.5 1.2-1 1.7-1.5.4-.5 1.4-2.5 1.9-2.8 4.1.7 7.9-.2 10.5-2.6.7 1.7 1.8 3.7 2.4 5.6 1.6 5.1 3.1 10.2 4.5 15.4 3.2-6.5-1.8-17.1-4.9-23.5.8-1.4 1.3-3.2 1.4-5.2 5.2 2.8 9.2 0 11.8-4.1.1.2.2.4.4.6.9.5 1.6 1.3 2.2 2.1 2 2.4 3.7 5.1 5.4 7.8 3.1 4.9 5.9 9.9 8.6 14.9 3.2-9.8-8.6-21.3-15.4-27.5.4-.8.7-1.5 1-2.3l.3-.9c1 .2 1.9.6 3 1.2 4.5 2.4 8.9 5 13.2 7.7h.1c.7-.9 1.3-1.7 2-2.6-3.5-.7-7.2-3.2-10.4-4.8-2.5-1.3-4.9-2.6-7.4-3.9.3-1.1.8-2 2.1-2.1 2.1-.2 4.2-.9 5.9-2.1 13.5 5 26.2 14.3 38.1 22.3.4-7.6-12.5-13.5-17.9-16.4-5.9-3-12-5.9-18.1-8.4.6-1.2 1-2.5 1.2-3.8 2.7.4 5.2 1.3 7.8 2.1 3.9 1.2 7.7 2.5 11.5 3.8h.1c-.6-1.9-1.5-3.9-3.1-5.1-2-1.6-5-.4-7.4-.8-1.7-.4-6.1-2.6-8.8-3.1 0-.2 0-.5-.1-.7-.3-2-1.2-2.3.8-3 1-.4 1.9-.8 2.8-1.4 12.2.8 24.5 1 36.7.1 3.1-.2 29.4-2.8 26-9-9.8 5.9-22.7 6.8-33.9 7.2-5.6.2-11.2.1-16.8-.2-2.5-.1-5.1-.3-7.6-.6-.9-.1-1.5-.1-2 0 2.1-3.9-.4-9.1-3.1-12.5 1.4-1 2.8-2.3 4-3.7 12.2-3.7 24.2-8.4 35.4-14.3 9.1-4.9 20.7-11.2 26.2-20.4-6.8 9.4-19.6 15.1-29.8 19.9-9.7 4.6-19.6 8.4-29.8 11.7 1.1-2.5 1.2-5.3-.6-8.1-.8-1.3-1.8-2.4-3-3.3-.6-.4-.2-1.7.1-2.6 11.1-9 21.8-18.5 31.5-28.9 4.5-4.7 8.8-9.7 12.7-15 3-4.1 6.6-8.9 7.7-14-1.6 5.7-8.3 11.5-12.2 15.8-4.3 4.7-8.6 9.3-13.1 13.9-8.7 8.7-17.5 17.3-26.5 25.7-.2-2.2-.9-4.3-2.5-5.9-1.1-1.2-2.4-2.1-3.8-2.7-.8-.3-.1-2.1 0-2.9.2-2 .3-4.6-.7-6.4.9-1.3 1.6-2.5 2.5-3.8 1.6-2.4 3.1-4.7 4.7-7.1 2.8-4.3 5.5-8.6 8.1-13 2.5-4.1 4.9-8.3 7-12.7 1-2.2 3.7-6.6 2.4-9zm-105.9 152.5c-.1-.1-.2-.1-.2-.1.1 0 .2.1.2.1zm-71.9-2.5c-3.9 6.7-9-3.4-10.3-6.5-7.1 7.1-11.6-1.4-12.8-8.1-2.5 1.5-6.4 3-9.1 1-3.1-2.3-2.9-7.6-2.6-11-3.2.6-7.5.5-9.9-2.1-2.6-2.8-1.7-7.3-.6-10.6-3-.3-6.9-.9-9.1-3.2-2.9-3 1.2-6.8 3.4-8.7-2.8-1.1-6.1-2.9-7.4-5.8-1.8-3.8 1.6-7.2 4.5-9.3-2.5-2.6-7.1-6.9-7-10.8.1-2 2.4-2 3.8-1.8 1.2.1 2.4.4 3.5.7.9-.5 1.9-.9 2.8-1.4-2-1.7-6.8-5.8-5.5-8.8 1.4-3.3 9-1.8 11.5-1.5-1.9-3.9-5.1-13.7 2.6-12.4 1.9.3 5.4 2.8 7.1 2.4 3-.6 3.7-3.4 3.1-6.1-.5 1.1-1.9 4.1-3.5 3.7-1-.2-1-1.3-2-1.5-1.4-.4-2.9-.7-4.3-.9-1-.1-2.3-.2-3.5-.1l.3-.1c-5.7-7.3-11.4-14.7-16.8-22.2-2.3-3.1-5.3-6.4-6.8-10-.8-1.7-1.3-3.6-1.7-5.4-.2-.8-.2-5-.8-5.2h-.1c-1.3 0 0 8.2.3 8.8 1.6 3.8 4.3 7.2 6.7 10.6 5.7 8 11.6 15.9 17.6 23.7-1.4.3-2.7 1-3.3 2.5-1.1 2.8.5 6.3 1.7 8.8-3.1-.1-8.4 0-10.5 2.9-.1-.1-.2-.1-.4-.2-1.4-.6-2.7-1.7-3.8-2.7-2.5-2.1-4.7-4.4-7-6.6-5.1-5.2-10.1-10.7-15.2-16-4.8-5-9.9-9.7-14.2-15.2-3.3-4.2-8.2-10.3-7.9-16-1.3 2.3-.4 5.5.4 7.8 1.5 4.5 5.3 8.4 8.3 11.9 4.4 5.2 9.1 10.1 13.9 14.9 8.1 8.1 16.6 15.9 25.3 23.5-.7 3.2 3 6.9 4.9 8.7-2.3-1.1-7.8-3.1-8.9.6-1.1 3.5 1.4 8 2.8 11 .2.2.5.5.9.8-9.6-5.5-19.1-11.2-28.5-17-4.9-3-9.7-6-14.5-9.1-3.7-2.5-7.6-4.1-8.7-8.8-1.1 5.5 3.4 7.5 7.4 10.3 5.4 3.8 11 7.3 16.6 10.7 9.3 5.6 18.7 11.1 28.2 16.2-1.1 1.6-2.2 3.1-2.5 5-.6 4.1 3 6.9 6.1 8.7-.9 1-1.5 2-1.9 3-.5-.5-1.2-.6-2.7-.8-2.6-.4-5.2-.8-7.7-1.2-5.2-.9-10.4-1.8-15.6-2.8-9.2-1.8-20.1-3.1-26.3-10.9-3.6 6.6 18.5 11.7 22.6 12.5 9.7 1.9 19.3 3.5 29 5-1.1 4.5 1.7 8.1 6.4 10-7.3.5-14.7 3-21.5 5.2-1.9.7-23.3 7.9-16.4 12.2v-.1c0-4.1 7.2-6.1 10.2-7 3.6-1 7.1-2.6 10.8-3.7 4.4-1.3 8.8-2.3 13.3-3.2 2.2-.4 4.3-.8 6.5-1.1-.1.7-.3 1.4-.3 1.7 0 1.9.3 3.8 1.2 5.5 1.7 3 5.1 3.7 8.2 3.5-.3.2-.6.5-.7.6-3.2 2.3-6.8 4.2-10 6.5-2.1 1.6-14.9 10.9-8.4 13.9-1.4-3.5 6.3-9 8.4-10.8 4-3.4 8.2-6.6 12.4-9.8.4 4.6 2.5 9.9 7.2 11.4 1.4.4 3.6-.1 5.1-.1-3 4.1-7.8 11.5-5 16.2 1.4-3.9 2.9-7.8 4.7-11.5.6-1.1 1.5-1.9 2.2-2.7.8 2.4 2 4.7 4 6.2 2.2 1.7 4.9 1.4 7.3.1 1.5-.9 1-1.1 1.8.1.3.4.7.9 1 1.3-.2 2.3-.2 4.8-.1 7.2.1 1.8-.2 7.7 1.7 8.8-.2-.1-.4-10.6-.4-11.7 0-.7.2-1.6.4-2.4.1.1.2.2.3.4 1.3 1.4 4.1 5 6.4 4.4.3-.1.6-.3.8-.5 4.2-.6 2.3-2.7.9-5.7m-110-62.4l-.1-.1zm115.8-74.1s1.4 2.2 2.5 2.2c1.1-.1-2.5-2.2-2.5-2.2zm-1.4.2v.2c.3 1.1.7 2.6 1.6 3.3 2.4 2.1-1.2-3.9-1.6-3.5zm134.5 43.6c-2.8-.2-6.3 2.2-8.3 3.6 2.3-.6 9.5-2.5 9.3 2-.2 3.5-3.2 7.1-5.4 9.7 2.8.3 9 .9 8.9 4.9-.2 4.4-6.1 8.3-9.4 10.5 2.4 1.2 9.6 5 6.2 8.6-2.7 2.9-7.7 3.6-11.4 4.1 2.1 2.2 6.9 7.7 2.3 10-3.6 1.8-8.7 1.1-12.5.4 2 2.2 6.9 7.9 2.9 10.5-3.6 2.4-9.5 1.4-13.4.6 7.9 9.7-7.4 10.4-13.9 9.7 1 2.7 2.5 7.7-1.7 8.4-3.4.6-7.2-1.1-10.2-2.5-.3 8.6-7.1 9.8-13.7 5.8 2.7 2.1 6.8 5.3 10.6 4.8 4.1-.5 4-6.1 3.6-9.2 3 2.2 7.6 5.3 11.4 3.7 3.2-1.3 4.1-5.6 4.1-8.7 7.3 2.2 15.1 0 14.2-9 7.6 1.7 14-1.9 12.3-10.5 7.6.2 12.1-4.9 9.4-12.5 7.1-2.2 12.1-8.2 5.8-14.7 3.1-2.7 7.4-6.8 6.4-11.4-.4-2.1-2-3.7-3.7-4.8-2.4-1.5-2.2-.9-1.4-3.8.7-2.5 2.2-7.8-.6-9.6-.5-.4-1.2-.5-1.8-.6zm-168 3.1c-3.2.1-5.5 2-4.9 7.1-3.1-.2-8.6-.3-10.4 2.9-2 3.5 2.3 8.2 4.4 10.5-3 1.3-6.8 3.8-7.2 7.4-.4 4 3.9 6.9 6.8 8.7-4.5 5.8-2.2 11.2 4.8 12.5-1.3 2.6-2.3 6.4-.5 9 2.2 3.1 6.8 3.1 10.1 2.8-1 2.6-2.2 7.3.6 9.1 2.7 1.8 6.8.1 9.4-1 .2 3 1 7.6 4.1 9 2.6 1.2 6.8-.8 8.2-3 1.2-1.9-1.7-.2-2 0-1.6.8-3.5 1.3-5.1.4-3-1.8-3.3-6.7-3.4-9.7-2.2 1.3-6.7 3.8-9.2 1.9-2.7-2-.3-7.6.6-9.9-3.1.7-7.9 1.5-10.4-.8-2.6-2.4-.2-6.7 1.2-9-2.7-.5-7-1.3-8.6-3.9-1.8-3.1 3.4-5.9 5.3-7-3.2-1.5-7.5-3.9-8.7-7.4-1.7-4.8 5.5-7.1 8.7-8.1-2.3-2-6.7-5.9-5.9-9.3.8-3.5 7.7-2.7 10.1-2.5-4.3-8.1 4.4-8.5 9.9-7.3h.2c-2.6-1.4-5.6-2.4-8.1-2.4zm152.3 8.4c-.3 0-.6 0-.8.1v.1c-3.3 2.1 2.2 2.2 3.2 3.7 1.9 2.9-3.8 6.9-5.7 8.2 2.2 1.7 8.7 6.6 5.2 9.8-2.6 2.4-7.6 2.4-10.9 2.3 6.6 4.7 3.7 10.1-3.2 12.3 6.5 2.8 9.3-2.7 9.3-8.5 0-2.3 8.2-3 9-7.2.6-3-1.5-6-3.5-8-1.3-1.4-1.5-.7-.4-2.5.7-1.1 1.3-2.2 1.8-3.4 1.6-3.8.1-6.9-4-6.9zm-142.4 3.8c-1.5.1-2.8.7-3.4 2.5-.6 1.9.5 4-1.3 4.8-2 .9-4.2 2-5.6 3.8-3.3 4.6 4.9 5.7 4.3 7.7-1.1 3.9-1.5 10.2 3.5 11.5-2.6-4-2.2-9.4-.9-13.8-5.1-1.1-7-4-1.8-6.4.7-.3 2.6-.6 2.5-1.4-.1-1.5.1-3.1.6-4.5 1.3-3.3 4.6-3.5 7.5-2.4l.2-.1c-1.5-.8-3.7-1.8-5.6-1.7zm-40.1 12.4c.1.1.2.2.2.4-.1-.1-.2-.2-.2-.4zm65.9 30.4l7.8 39.6c1.7-7.8 3.8-15.7 7.2-22.9 2.3-5 7-13.7 13.6-13.5.1-8.1-8.6 2.3-10 4.2-3.9 5.4-7.3 11.1-10.6 16.9-2.2-7-4.4-14.1-6.4-21.2zm-45 13.1h-.1zm175.4 53c-1.8-.2-11.9 2.8-11.9 2.8-21.6 14.4-8.4 24.6-8.4 24.6-6.1-16.6 10.4-22.4 10.4-22.4 9-3.7 11-5 9.9-5zm57.7 6.9c-2.7 16.3-20.4 13.6-20.4 13.6-26.5-2.7.7 2.7.7 2.7 26.5-2 19.7-16.3 19.7-16.3zm6.9 12s.1.1.1.2v-.2zm.1.2c-2.8 16.1-20.4 13.4-20.4 13.4-26.5-2.7-40.1 19.7-40.1 19.7 22.4-21.1 40.7-17 40.7-17 25.6-1.9 20.2-15.2 19.8-16.1zm-100.1 6.4c-2.8 16.5-20.7 13.8-20.7 13.8-26.9-2.8-40.6 20-40.6 20 22.7-21.3 41.3-17.2 41.3-17.2v-.1c26.9-2.1 20-16.5 20-16.5zm-.9 15.1c-1.9 11.3-14.1 9.4-14.1 9.4h-.1c-18.4-1.9-27.8 13.7-27.8 13.7 15.6-14.6 28.3-11.8 28.3-11.8 18.4-1.4 13.7-11.3 13.7-11.3zm15.5 21.3c-3 17.8-22.2 14.8-22.2 14.8-28.9-3-43.7 21.5-43.7 21.5 24.4-23 44.4-18.5 44.4-18.5 28.9-2.2 21.5-17.8 21.5-17.8zm-94.9 5.3c-4 24-30 20-30 20-39-4-59 29-59 29 33-31 60-25 60-25 39-3 29-24 29-24zm-37.3 32.2c-20.5.1-32.8 15.9-32.8 15.9 24.7-18.3 42.1-14.9 42.1-14.9-3.3-.7-6.3-1-9.3-1zm39.6 7.8c-3.2 19-23.7 15.8-23.7 15.8h-.1c-30.9-3.2-46.7 23-46.7 23 26.1-24.5 47.5-19.8 47.5-19.8 30.9-2.4 23-19 23-19z"/>
</svg>
