<?xml version="1.0" encoding="UTF-8" standalone="no"?>
<!-- Created with Inkscape (http://www.inkscape.org/) -->

<svg
   width="157.69331mm"
   height="181.16319mm"
   viewBox="0 0 157.69331 181.16319"
   version="1.1"
   id="svg3362"
   inkscape:version="1.2.2 (732a01da63, 2022-12-09)"
   sodipodi:docname="Wappen Havetoftloit2.svg"
   xmlns:inkscape="http://www.inkscape.org/namespaces/inkscape"
   xmlns:sodipodi="http://sodipodi.sourceforge.net/DTD/sodipodi-0.dtd"
   xmlns="http://www.w3.org/2000/svg"
   xmlns:svg="http://www.w3.org/2000/svg">
  <sodipodi:namedview
     id="namedview3364"
     pagecolor="#ffffff"
     bordercolor="#666666"
     borderopacity="1.0"
     inkscape:showpageshadow="2"
     inkscape:pageopacity="0.0"
     inkscape:pagecheckerboard="0"
     inkscape:deskcolor="#d1d1d1"
     inkscape:document-units="mm"
     showgrid="false"
     inkscape:zoom="0.78175992"
     inkscape:cx="298.68505"
     inkscape:cy="343.45583"
     inkscape:current-layer="layer1" />
  <defs
     id="defs3359" />
  <g
     inkscape:label="Ebene 1"
     inkscape:groupmode="layer"
     id="layer1"
     transform="translate(-525.22114,-66.727722)">
    <g
       id="g4133">
      <path
         id="path1846"
         style="fill:#ffff00;stroke:none;stroke-width:1.6;stroke-linecap:round;stroke-dasharray:none"
         d="M 526.02114,67.527722 V 168.34482 a 78.046646,78.745956 0 0 0 78.04692,78.7461 78.046646,78.745956 0 0 0 78.0464,-78.7461 V 67.527722 Z" />
      <path
         id="rect1640"
         style="fill:#0000ff;stroke:#000000;stroke-width:1.2;stroke-linecap:round"
         d="m 603.84998,113.42466 -11.55536,6.61872 3.58531,6.25905 -11.55485,6.6182 -3.58531,-6.25905 -11.55485,6.61872 3.58479,6.25905 -11.55537,6.6182 -3.58479,-6.25905 -11.55537,6.61871 3.5848,6.25905 -11.55537,6.6182 -3.58479,-6.25905 -8.49768,4.86741 c -0.17334,5.09756 0,7.31244 0,10.342 0.005,8.1375 1.25947,16.2251 3.71967,23.97477 l 8.94157,-5.12166 -3.58479,-6.25904 11.55485,-6.61872 3.58531,6.25905 11.55537,-6.61872 -3.58531,-6.25905 11.55537,-6.6182 3.58479,6.25905 11.55537,-6.61872 -3.5848,-6.25905 11.55537,-6.6182 3.58479,6.25905 7.39128,-4.23333 7.39128,4.23333 3.5848,-6.25905 11.55537,6.6182 -3.5848,6.25905 11.55537,6.61872 3.58479,-6.25905 11.55537,6.6182 -3.58479,6.25905 11.55536,6.61872 3.5848,-6.25905 11.55536,6.61872 -3.58531,6.25904 9.31778,5.33663 c 2.50222,-7.81508 3.77733,-15.97699 3.7791,-24.18974 -0.009,-3.32207 0.0897,-5.42472 0,-10.09241 l -8.93331,-5.117 -3.58479,6.25905 -11.55537,-6.6182 3.5848,-6.25905 -11.55485,-6.61871 -3.58532,6.25905 -11.55536,-6.6182 3.58531,-6.25905 -11.55537,-6.61872 -3.58479,6.25905 -11.55485,-6.6182 3.58479,-6.25905 z"
         sodipodi:nodetypes="ccccccccccccccccccccccccccccccccccccccccccccccccccccccccc" />
      <g
         id="g2801"
         transform="rotate(-90,465.57323,87.962771)">
        <path
           style="fill:#ff0000;stroke:#000000;stroke-width:1;stroke-linecap:round;stroke-dasharray:none"
           d="m 460.2131,161.35731 c 0,0 -1.16611,-1.46046 -2.16196,-2.18647 -0.67971,-0.49553 -1.40976,-0.51843 -1.40976,-0.51843 0,0 -0.73005,0.0229 -1.40976,0.51843 -0.99585,0.72601 -2.16196,2.18647 -2.16196,2.18647"
           id="path2509"
           sodipodi:nodetypes="cscsc" />
        <path
           id="path2238"
           style="fill:#ff0000;stroke:#000000;stroke-width:1;stroke-linecap:round;stroke-dasharray:none"
           d="m 446.43167,161.30023 2.99671,3.53105 v 32.27917 l -2.21175,4.50257 4.36459,84.99016 c 0,0 0.19642,7.08667 1.49603,8.63151 1.47949,1.75864 3.56413,2.15749 3.56413,2.15749 0,0 2.08515,-0.39885 3.56464,-2.15749 1.29962,-1.54484 1.49551,-8.63151 1.49551,-8.63151 l 4.36511,-84.99016 -2.21227,-4.50257 v -32.27917 l 2.99672,-3.53105 h -10.20971 z" />
        <path
           id="path2452"
           style="fill:#ff0000;stroke:#000000;stroke-width:0.999996;stroke-linecap:round;stroke-dasharray:none"
           d="m 456.64138,189.94861 c -6.77359,1.4e-4 -12.26702,4.68072 -12.27574,10.45931 l -5.2e-4,-10e-4 v 0.0145 7.71684 l 3.32671,-3.89546 c 1.26881,-1.32781 4.90479,-3.17804 8.94955,-3.18163 4.04467,0.003 7.46034,1.95037 8.9497,3.18086 l 3.32657,3.89623 v -7.71684 -0.0145 l -5.2e-4,0.002 c -0.008,-5.77879 -5.50191,-10.45968 -12.27573,-10.45983 z"
           sodipodi:nodetypes="cccccccccccccc" />
        <path
           style="fill:#ff0000;stroke:#000000;stroke-width:0.799999;stroke-linecap:round;stroke-dasharray:none"
           d="m 463.8544,164.83128 c 0,0 -4.79781,-0.6868 -7.21302,-0.6868 -2.41521,0 -7.21302,0.6868 -7.21302,0.6868"
           id="path2569"
           sodipodi:nodetypes="czc" />
        <g
           id="g2636"
           style="stroke:#000000">
          <ellipse
             style="fill:#ff0000;stroke:#000000;stroke-width:0.6;stroke-linecap:round;stroke-dasharray:none"
             id="path2625"
             cx="453.10434"
             cy="169.33328"
             rx="1.1096998"
             ry="1.0750219" />
          <ellipse
             style="fill:#ff0000;stroke:#000000;stroke-width:0.6;stroke-linecap:round;stroke-dasharray:none"
             id="ellipse2629"
             cx="453.10434"
             cy="186.26649"
             rx="1.1096998"
             ry="1.0750219" />
          <ellipse
             style="fill:#ff0000;stroke:#000000;stroke-width:0.6;stroke-linecap:round;stroke-dasharray:none"
             id="ellipse2631"
             cx="453.10434"
             cy="177.7999"
             rx="1.1096998"
             ry="1.0750219" />
        </g>
        <g
           id="g2644"
           inkscape:transform-center-x="-3.5371816"
           inkscape:transform-center-y="20.668161"
           transform="matrix(-1,0,0,1,913.28304,0)"
           style="stroke:#000000">
          <ellipse
             style="fill:#ff0000;stroke:#000000;stroke-width:0.6;stroke-linecap:round;stroke-dasharray:none"
             id="ellipse2638"
             cx="453.10434"
             cy="169.33328"
             rx="1.1096998"
             ry="1.0750219" />
          <ellipse
             style="fill:#ff0000;stroke:#000000;stroke-width:0.6;stroke-linecap:round;stroke-dasharray:none"
             id="ellipse2640"
             cx="453.10434"
             cy="186.26649"
             rx="1.1096998"
             ry="1.0750219" />
          <ellipse
             style="fill:#ff0000;stroke:#000000;stroke-width:0.6;stroke-linecap:round;stroke-dasharray:none"
             id="ellipse2642"
             cx="453.10434"
             cy="177.7999"
             rx="1.1096998"
             ry="1.0750219" />
        </g>
        <path
           style="fill:#ff0000;stroke:#000000;stroke-width:0.7;stroke-linecap:round;stroke-dasharray:none"
           d="m 455.32375,166.52435 v 23.48391"
           id="path2650" />
        <path
           style="fill:#ff0000;stroke:#000000;stroke-width:0.7;stroke-linecap:round;stroke-dasharray:none"
           d="m 457.95927,166.52435 v 23.48391"
           id="path2652"
           inkscape:transform-center-x="-1.3177612"
           inkscape:transform-center-y="3.8743395" />
        <g
           id="g2696"
           style="stroke:#000000">
          <circle
             style="fill:#ff0000;stroke:#000000;stroke-width:0.7;stroke-linecap:round;stroke-dasharray:none"
             id="path2690"
             cx="451.95999"
             cy="197.24916"
             r="2.0460093" />
          <circle
             style="fill:#ff0000;stroke:#000000;stroke-width:0.7;stroke-linecap:round;stroke-dasharray:none"
             id="circle2692"
             cx="447.38248"
             cy="200.33551"
             r="1.4564812" />
        </g>
        <g
           id="g2702"
           inkscape:transform-center-x="-6.6755231"
           inkscape:transform-center-y="4.230731"
           transform="matrix(-1,0,0,1,913.28304,0)"
           style="stroke:#000000">
          <circle
             style="fill:#ff0000;stroke:#000000;stroke-width:0.7;stroke-linecap:round;stroke-dasharray:none"
             id="circle2698"
             cx="451.95999"
             cy="197.24916"
             r="2.0460093" />
          <circle
             style="fill:#ff0000;stroke:#000000;stroke-width:0.7;stroke-linecap:round;stroke-dasharray:none"
             id="circle2700"
             cx="447.38248"
             cy="200.33551"
             r="1.4564812" />
        </g>
        <path
           style="fill:#ff0000;stroke:#000000;stroke-width:0.7;stroke-linecap:round;stroke-dasharray:none"
           d="m 453.035,201.68796 2.046,93.00673"
           id="path2744" />
        <path
           style="fill:#ff0000;stroke:#000000;stroke-width:0.7;stroke-linecap:round;stroke-dasharray:none"
           d="m 460.24804,201.68796 -2.046,93.00673"
           id="path2746"
           inkscape:transform-center-x="-2.5835212"
           inkscape:transform-center-y="41.097424" />
      </g>
      <g
         id="g3222"
         transform="translate(768.84191,-18.002113)">
        <g
           id="g3166"
           transform="rotate(45.044224,270.89817,-391.10258)">
          <rect
             style="fill:#ff0000;stroke:#000000;stroke-width:0.7;stroke-linecap:round;stroke-dasharray:none"
             id="rect2941"
             width="15.006935"
             height="3.5310435"
             x="381.88577"
             y="317.92044"
             ry="1.7655218"
             rx="1.7655218" />
          <rect
             style="fill:#ff0000;stroke:#000000;stroke-width:0.7;stroke-linecap:round;stroke-dasharray:none"
             id="rect2887"
             width="3.2367899"
             height="54.633091"
             x="387.77084"
             y="317.94104" />
          <rect
             style="fill:#ff0000;stroke:#000000;stroke-width:0.7;stroke-linecap:round;stroke-dasharray:none"
             id="rect2997"
             width="9.2689896"
             height="3.0406208"
             x="387.81989"
             y="352.36871"
             ry="0.8337186"
             rx="0.8337186" />
          <path
             id="path3001"
             style="fill:#ff0000;stroke:#000000;stroke-width:0.7;stroke-linecap:round;stroke-dasharray:none"
             d="m 388.36675,367.86442 c -1.57164,-10e-4 -4.4991,0.32354 -5.45083,2.64997 -1.48006,3.61793 1.00046,6.03701 0.78445,8.7297 -0.19782,2.46588 -2.01073,6.08128 -2.01073,6.08128 0,0 0.73565,0.98052 3.53105,1.66708 2.79541,0.6866 4.16874,0.49041 4.16874,0.49041 0,0 1.37281,0.19619 4.16822,-0.49041 2.7954,-0.68656 3.53105,-1.66708 3.53105,-1.66708 0,0 -1.81291,-3.6154 -2.01073,-6.08128 -0.21601,-2.69269 2.26502,-5.11177 0.78497,-8.7297 -1.32414,-3.23678 -6.47351,-2.59932 -6.47351,-2.59932 0,0 -0.40769,-0.0502 -1.02268,-0.0506 z" />
          <path
             style="fill:#000000;stroke:none;stroke-width:0.7;stroke-linecap:round;stroke-dasharray:none"
             d="m 387.77084,317.94103 v 3.51044 h 3.23678 v -3.51044 z"
             id="path3153" />
          <path
             style="fill:#000000;stroke:none;stroke-width:0.7;stroke-linecap:round;stroke-dasharray:none"
             d="m 387.81987,352.36872 h 3.18775 v 3.04062 h -3.18775 z"
             id="path3155" />
          <path
             style="fill:#000000;stroke:none;stroke-width:0.7;stroke-linecap:round;stroke-dasharray:none"
             d="m 387.77084,364.70285 h 3.23678 v 3.17664 l -1.61819,0.0356 -1.61859,-0.0353 z"
             id="path3157" />
        </g>
        <g
           id="g3206"
           transform="rotate(-39.760608,-36.211546,1070.964)">
          <path
             id="rect3170"
             style="fill:#ff0000;stroke:#000000;stroke-width:0.7;stroke-linecap:round;stroke-dasharray:none"
             d="m 408.6195,302.87454 v 3.13882 h 4.11965 v 53.06395 h 3.23649 v -53.06395 h 4.11965 v -3.13882 z" />
          <path
             id="path3196"
             style="fill:#ff0000;stroke:#000000;stroke-width:0.7;stroke-linecap:round;stroke-dasharray:none"
             d="m 412.74225,352.35059 c -1.35949,0.0209 -3.24289,0.45584 -4.27674,2.47013 -1.61098,3.13872 2.0227,6.70628 1.96939,10.20093 -0.0587,3.84672 -1.07901,5.68906 -1.07901,5.68906 l 5.00125,4.02146 5.00176,-4.02146 c 0,0 -1.02031,-1.84234 -1.079,-5.68906 -0.0533,-3.49465 3.58036,-7.06221 1.96938,-10.20093 -1.74122,-3.39249 -5.89214,-2.30477 -5.89214,-2.30477 0,0 -0.68472,-0.17969 -1.61489,-0.16536 z" />
          <path
             style="fill:#000000;stroke:none;stroke-width:0.7;stroke-linecap:round;stroke-dasharray:none"
             d="m 412.73915,348.68852 h 3.23649 v 3.66223 l -1.61846,0.16518 -1.61803,-0.16531 z"
             id="path3201" />
        </g>
      </g>
      <path
         id="path4092"
         style="fill:none;stroke:#000000;stroke-width:1.6;stroke-linecap:round;stroke-dasharray:none"
         d="M 526.02114,67.527722 V 168.34482 a 78.046646,78.745956 0 0 0 78.04692,78.7461 78.046646,78.745956 0 0 0 78.0464,-78.7461 V 67.527722 Z" />
    </g>
  </g>
</svg>
