<?xml version="1.0" encoding="UTF-8" standalone="no"?>
<!-- Created with Inkscape (http://www.inkscape.org/) -->
<svg
   xmlns:dc="http://purl.org/dc/elements/1.1/"
   xmlns:cc="http://web.resource.org/cc/"
   xmlns:rdf="http://www.w3.org/1999/02/22-rdf-syntax-ns#"
   xmlns:svg="http://www.w3.org/2000/svg"
   xmlns="http://www.w3.org/2000/svg"
   xmlns:xlink="http://www.w3.org/1999/xlink"
   xmlns:sodipodi="http://inkscape.sourceforge.net/DTD/sodipodi-0.dtd"
   xmlns:inkscape="http://www.inkscape.org/namespaces/inkscape"
   id="svg2"
   sodipodi:version="0.32"
   inkscape:version="0.32"
   width="744.09448"
   height="900.00000"
   sodipodi:docbase="D:\xampp\htdocs\wiki\Bilder"
   sodipodi:docname="Wappen Kutenholz.svg"
   version="1.0"
   x="0.00000000"
   y="0.00000000">
  <metadata
     id="metadata7">
    <rdf:RDF>
      <cc:Work
         rdf:about="">
        <dc:format>image/svg+xml</dc:format>
        <dc:type
           rdf:resource="http://purl.org/dc/dcmitype/StillImage" />
      </cc:Work>
    </rdf:RDF>
  </metadata>
  <defs
     id="defs5" />
  <sodipodi:namedview
     inkscape:window-height="744"
     inkscape:window-width="1280"
     inkscape:pageshadow="2"
     inkscape:pageopacity="0.0"
     borderopacity="1.0"
     bordercolor="#666666"
     pagecolor="#ffffff"
     id="base"
     inkscape:zoom="1.3037337"
     inkscape:cx="328.57009"
     inkscape:cy="586.29551"
     inkscape:window-x="-4"
     inkscape:window-y="-4"
     inkscape:current-layer="svg2" />
  <path
     style="fill:#ff0000;fill-opacity:1.0000000;fill-rule:evenodd;stroke:#000000;stroke-width:4.0000000;stroke-linecap:butt;stroke-linejoin:miter;stroke-miterlimit:4.0000000;stroke-dasharray:none;stroke-opacity:1.0000000"
     d="M 37.584364,26.014700 L 714.10291,25.247670 C 714.10291,25.247670 711.41831,443.46959 714.10291,523.04873 C 716.78751,603.39490 651.78403,871.66289 375.07661,871.27937 C 98.371320,870.89585 37.584364,600.13503 36.817336,523.04873 C 36.050308,447.49649 37.584364,26.014700 37.584364,26.014700 z "
     id="path1352"
     sodipodi:nodetypes="cczzzc" />
  <use
     x="0.00000000"
     y="0.00000000"
     xlink:href="#path1307"
     id="use1312"
     transform="matrix(0.906441,-0.422331,0.422331,0.906441,-68.62612,153.5139)"
     width="744.09448"
     height="1052.3622" />
  <use
     x="0.00000000"
     y="0.00000000"
     xlink:href="#path1307"
     id="use1314"
     transform="matrix(-0.270573,-0.962699,0.962699,-0.270573,86.68856,451.0577)"
     width="744.09448"
     height="1052.3622" />
  <use
     x="0.00000000"
     y="0.00000000"
     xlink:href="#path1307"
     id="use1316"
     transform="matrix(-0.999863,-1.651824e-2,-1.651824e-2,0.999863,464.7010,31.02677)"
     width="744.09448"
     height="1052.3622" />
  <use
     x="0.00000000"
     y="0.00000000"
     xlink:href="#path1307"
     id="use1318"
     transform="matrix(0.982032,-0.188716,0.188716,0.982032,202.6447,33.50680)"
     width="744.09448"
     height="1052.3622" />
  <use
     x="0.00000000"
     y="0.00000000"
     xlink:href="#path1307"
     id="use1320"
     transform="matrix(-1.000000,0.000000,0.000000,1.000000,640.4688,0.767027)"
     width="744.09448"
     height="1052.3622" />
  <use
     x="0.00000000"
     y="0.00000000"
     xlink:href="#path1307"
     id="use1322"
     transform="matrix(-0.761181,-0.648540,-0.648540,0.761181,696.7014,201.7076)"
     width="744.09448"
     height="1052.3622" />
  <use
     x="0.00000000"
     y="0.00000000"
     xlink:href="#path1307"
     id="use1324"
     transform="matrix(-0.956948,-0.290259,-0.290259,0.956948,780.7628,110.8037)"
     width="744.09448"
     height="1052.3622" />
  <use
     x="0.00000000"
     y="0.00000000"
     xlink:href="#path1307"
     id="use1326"
     transform="matrix(0.285634,-0.958339,-0.958339,-0.285634,661.5550,475.3749)"
     width="744.09448"
     height="1052.3622" />
  <use
     x="0.00000000"
     y="0.00000000"
     xlink:href="#path1307"
     id="use1328"
     transform="matrix(0.572249,-0.820080,-0.820080,-0.572249,620.5768,691.4068)"
     width="744.09448"
     height="1052.3622" />
  <use
     x="0.00000000"
     y="0.00000000"
     xlink:href="#path1307"
     id="use1330"
     transform="matrix(0.225020,0.974354,-0.974354,0.225020,677.1533,192.0407)"
     width="744.09448"
     height="1052.3622" />
  <use
     x="0.00000000"
     y="0.00000000"
     xlink:href="#path1307"
     id="use1332"
     transform="matrix(0.229915,-0.973211,0.973211,0.229915,-8.139458,573.3301)"
     width="744.09448"
     height="1052.3622" />
  <use
     x="0.00000000"
     y="0.00000000"
     xlink:href="#path1307"
     id="use1334"
     transform="matrix(-0.469310,-0.883033,0.883033,-0.469310,160.9744,688.4482)"
     width="744.09448"
     height="1052.3622" />
  <g
     id="g1340"
     transform="translate(0.000000,-76.00000)">
    <path
       sodipodi:nodetypes="czzzz"
       id="path1336"
       d="M 185.23722,437.97289 C 199.23548,437.87701 200.09839,414.29091 200.19426,398.85447 C 200.29014,383.41803 195.01683,381.50047 184.85371,380.82932 C 174.70861,380.15936 168.07497,385.33560 167.97909,400.77204 C 167.88322,416.20848 170.85545,438.06877 185.23722,437.97289 z "
       style="fill:#d26900;fill-opacity:1.0000000;fill-rule:evenodd;stroke:#000000;stroke-width:2.0000000;stroke-linecap:butt;stroke-linejoin:miter;stroke-miterlimit:4.0000000;stroke-dasharray:none;stroke-opacity:1.0000000" />
    <path
       sodipodi:nodetypes="ccccccc"
       id="path1338"
       d="M 201.34480,399.23798 C 184.08668,402.30609 171.62248,400.58027 166.44504,398.47095 C 172.00600,378.33648 182.93614,378.52824 182.93614,378.52824 L 187.92181,364.72174 L 191.37344,365.48876 L 187.53831,378.14472 C 187.53831,378.14472 199.81074,378.52823 201.34480,399.23798 z "
       style="fill:#c86400;fill-opacity:1.0000000;fill-rule:evenodd;stroke:#000000;stroke-width:2.0000000;stroke-linecap:butt;stroke-linejoin:miter;stroke-miterlimit:4.0000000;stroke-dasharray:none;stroke-opacity:1.0000000" />
  </g>
  <use
     x="0.00000000"
     y="0.00000000"
     xlink:href="#g1340"
     id="use1344"
     transform="translate(57.14357,172.1977)"
     width="744.09448"
     height="1052.3622" />
  <use
     x="0.00000000"
     y="0.00000000"
     xlink:href="#g1340"
     id="use1346"
     transform="translate(165.6780,-124.2585)"
     width="744.09448"
     height="1052.3622" />
  <use
     x="0.00000000"
     y="0.00000000"
     xlink:href="#g1340"
     id="use1348"
     transform="translate(341.3274,-32.21517)"
     width="744.09448"
     height="1052.3622" />
  <use
     x="0.00000000"
     y="0.00000000"
     xlink:href="#g1340"
     id="use1350"
     transform="matrix(-1.000000,0.000000,0.000000,1.000000,747.4686,178.3340)"
     width="744.09448"
     height="1052.3622" />
  <path
     id="path1307"
     style="fill:#d2d2d2;fill-opacity:1.0000000;fill-rule:evenodd;stroke:#000000;stroke-width:2.0000000;stroke-linecap:butt;stroke-linejoin:miter;stroke-miterlimit:4.0000000;stroke-opacity:1.0000000"
     d="M 209.01508,117.67453 C 205.69129,110.51560 199.68290,119.46426 194.82506,120.35913 C 195.46425,111.53831 204.92426,96.581270 199.81074,89.678020 C 195.20858,85.842880 190.60642,91.979090 184.85371,93.129630 C 184.08668,86.482060 188.31834,72.895930 182.55262,67.817720 C 176.65609,62.624300 168.36261,75.104480 166.82855,72.803400 C 165.29450,70.502310 167.90212,54.829470 160.69233,51.326620 C 157.41480,50.726910 152.42912,55.456910 151.81032,61.902860 C 148.93700,59.043080 145.35177,44.295530 134.61338,52.093650 C 126.49567,56.887570 138.80008,68.776510 143.53008,73.091030 C 137.13818,74.720970 130.84216,78.364350 132.31230,81.624220 C 134.22987,85.203690 141.51664,88.016110 146.50232,88.143950 C 144.45691,96.325580 133.20717,100.28856 138.44852,106.55262 C 140.49393,110.64343 150.59313,110.13209 155.70665,108.85371 C 154.30043,118.31372 137.17015,117.41886 142.28367,125.34481 C 149.18692,128.02941 158.00773,133.78211 166.06152,132.63157 C 162.73773,137.74509 156.72936,142.09159 163.76044,144.90403 C 169.80079,151.39180 187.89785,153.34931 190.37871,153.94655 C 192.85956,154.54380 195.06476,171.03889 197.70142,171.31853 C 200.33808,171.59818 199.57105,171.76996 202.24366,171.93575 C 204.91628,172.10154 194.53743,151.16808 197.12615,151.42375 C 201.34480,146.69374 213.74508,126.11183 209.01508,117.67453 z M 192.54156,149.24705 L 188.74496,133.51830 L 181.69414,117.78955 L 172.47384,102.60317 L 163.79591,90.671020 L 163.79592,90.128650 L 182.50770,118.06074 L 192.54156,149.24705 z "
     sodipodi:nodetypes="ccccsscccccccccccssscccccccccc" />
  <path
     style="fill:#d2d2d2;fill-opacity:1.0000000;fill-rule:evenodd;stroke:#000000;stroke-width:2.0000000;stroke-linecap:butt;stroke-linejoin:miter;stroke-miterlimit:4.0000000;stroke-dasharray:none;stroke-opacity:1.0000000"
     d="M 276.89705,816.82039 C 276.89705,816.82039 296.83977,812.21823 299.14085,812.98525 C 301.44194,813.75228 335.95819,782.30414 335.95819,782.30414 L 362.03714,766.96358 L 371.24147,750.08897 L 360.50308,729.37922 L 361.27011,705.60136 L 393.48528,710.20353 L 411.12692,727.84517 L 437.97289,739.35058 L 455.61453,760.82736 L 462.51778,779.23603 L 515.44270,786.90631 L 533.08434,794.57659 L 508.53945,758.52628 L 480.92645,751.62303 L 473.25617,724.01003 L 432.60370,702.53325 L 464.05184,697.16405 L 481.69348,691.02783 L 502.40323,713.27164 L 538.45354,719.40786 L 569.90168,734.74842 L 596.74765,733.98139 L 569.13465,720.94191 L 540.75462,691.02783 L 504.70431,680.28944 L 474.02320,652.67644 L 459.44967,606.65477 L 442.57506,561.40013 L 443.34209,503.87304 L 431.06964,484.69734 L 442.57506,450.94812 L 475.55726,424.10214 L 477.09131,407.99456 L 516.97676,414.89781 L 542.28868,428.70431 L 556.09518,470.89084 L 560.69735,469.35679 L 550.34247,432.15594 L 570.66871,428.70431 L 593.67954,435.22405 L 598.28171,428.70431 L 563.76546,418.73295 L 536.15245,404.15942 L 521.57892,375.77939 L 492.43187,366.57506 L 457.14859,381.14859 L 431.83667,361.97289 L 432.60370,313.65014 L 470.18806,287.57119 L 474.02320,255.35602 L 506.23837,240.78249 L 525.41406,241.54952 L 529.24920,258.42413 L 533.85137,257.27359 L 535.38543,243.08358 L 556.86220,238.48141 L 556.86221,230.81113 L 543.05570,230.81113 L 543.05570,217.77166 L 536.15246,212.40246 L 530.01623,221.60680 L 505.47134,227.74302 L 478.62537,233.87924 L 443.34209,264.56036 L 424.93342,279.13388 L 422.63233,256.89008 L 434.13775,230.81113 L 450.24534,217.00463 L 445.64317,205.30746 L 447.17723,198.21245 L 442.57506,185.55649 L 447.17723,164.84674 L 439.50695,160.24457 L 434.13775,162.54565 L 430.30261,155.64240 L 423.39936,157.17646 L 378.14472,153.91659 L 352.83280,163.69620 L 356.66794,167.05195 L 384.28095,159.66930 L 420.33125,164.84674 L 431.06964,185.55649 L 425.70045,211.63544 L 397.32042,232.34519 L 385.04797,256.89008 L 342.86144,299.84364 L 326.75386,308.28094 L 317.54952,279.13388 L 293.00463,259.19116 L 276.89705,247.68574 L 269.99380,215.47057 L 276.89705,197.82893 L 263.85758,187.85757 L 250.81810,197.06191 L 243.91485,210.10138 L 223.97213,199.36299 L 204.02941,192.45974 L 201.72832,164.07971 L 192.52399,165.61377 L 195.20858,195.14434 L 193.29101,205.49922 L 180.25154,211.63543 L 175.64938,218.53868 L 183.70317,217.77166 L 188.68885,224.67491 L 200.19427,211.63543 L 227.04024,220.83977 L 245.44891,228.51005 L 253.11918,246.15169 L 246.98296,263.79333 L 227.80727,266.09441 L 198.46846,272.80590 L 186.00425,290.25579 L 193.48277,292.36512 L 203.35826,281.14734 L 226.70467,273.23736 L 248.51702,276.06578 L 254.65324,316.71825 L 283.03327,326.68961 L 304.51005,354.30261 L 315.24844,371.94425 L 310.64627,404.15942 L 289.93652,408.76159 L 269.22677,388.05184 L 250.05107,401.85834 L 234.71052,420.26701 L 213.23374,416.43187 L 197.89318,413.36375 L 199.42724,422.56809 L 214.76779,426.40323 L 220.90401,434.84053 L 230.49186,435.22405 L 245.44891,449.41406 L 243.91485,461.68651 L 250.05107,459.38542 L 255.42027,439.44270 L 274.59596,427.17026 L 286.10138,437.90865 L 281.49921,454.78326 L 302.97599,476.26004 L 311.41330,496.20276 L 296.07274,519.21360 L 289.16949,558.33201 L 284.56733,601.28557 L 256.18730,621.22830 L 222.43807,628.89858 L 194.05804,645.00616 L 169.51315,666.48294 L 151.10448,671.08511 L 129.62770,665.71591 L 150.86386,688.09132 L 188.68885,690.02018 L 208.39095,675.44665 L 242.38079,664.18186 L 273.82894,654.21049 L 299.14085,654.21049 L 274.59596,654.21049 L 259.25541,671.85213 L 258.48838,695.63000 C 258.48838,695.63000 228.57429,707.13541 227.04024,704.06730 C 225.50618,700.99919 205.56346,730.14625 205.56346,730.14625 L 174.88235,735.51544 L 166.44504,747.02086 L 189.45587,750.85600 L 217.83590,757.75925 L 248.51702,753.92411 L 279.19813,727.84517 L 293.00463,697.16405 L 322.91872,694.86297 L 324.45277,709.43650 L 320.61763,766.19656 L 295.30571,786.13928 L 280.73219,804.54795 L 276.89705,816.82039 z "
     id="path1354"
     sodipodi:nodetypes="cscccccccccccccccccccccccccccccccccccccccccccccccccccccccccccccccccccccccccccccccccccccccccccccccccccccccccccccccccccccccccccccccccccccccccccccccccccccccccccccccscccccccccccccc" />
  <g
     id="g12979"
     transform="translate(0.000000,-76.00000)">
    <path
       id="path12247"
       d="M 427.23450,485.52862 L 439.50695,497.80106"
       style="fill:none;fill-opacity:0.75000000;fill-rule:evenodd;stroke:#000000;stroke-width:2.0000000;stroke-linecap:butt;stroke-linejoin:miter;stroke-miterlimit:4.0000000;stroke-dasharray:none;stroke-opacity:1.0000000" />
    <path
       id="path12249"
       d="M 421.56422,490.43187 L 434.60370,500.40323"
       style="fill:none;fill-opacity:0.75000000;fill-rule:evenodd;stroke:#000000;stroke-width:2.0000000;stroke-linecap:butt;stroke-linejoin:miter;stroke-miterlimit:4.0000000;stroke-dasharray:none;stroke-opacity:1.0000000"
       sodipodi:nodetypes="cc" />
    <path
       id="path12251"
       d="M 420.66097,497.03403 L 432.16639,506.23837"
       style="fill:none;fill-opacity:0.75000000;fill-rule:evenodd;stroke:#000000;stroke-width:2.0000000;stroke-linecap:butt;stroke-linejoin:miter;stroke-miterlimit:4.0000000;stroke-dasharray:none;stroke-opacity:1.0000000" />
  </g>
  <use
     x="0.00000000"
     y="0.00000000"
     xlink:href="#g12979"
     id="use12984"
     transform="translate(-16.87461,16.10758)"
     width="744.09448"
     height="1052.3622" />
  <use
     x="0.00000000"
     y="0.00000000"
     xlink:href="#g12979"
     id="use12988"
     transform="matrix(0.000000,1.000000,-1.000000,0.000000,788.4404,43.65660)"
     width="744.09448"
     height="1052.3622" />
  <use
     x="0.00000000"
     y="0.00000000"
     xlink:href="#g12979"
     id="use12990"
     transform="matrix(0.000000,1.000000,-1.000000,0.000000,772.3328,27.54880)"
     width="744.09448"
     height="1052.3622" />
  <use
     x="0.00000000"
     y="0.00000000"
     xlink:href="#g12979"
     id="use12992"
     transform="matrix(0.832569,0.553921,-0.553921,0.832569,211.8802,-203.3013)"
     width="744.09448"
     height="1052.3622" />
  <use
     x="0.00000000"
     y="0.00000000"
     xlink:href="#use12992"
     id="use12994"
     transform="translate(-1.534056,-20.70975)"
     width="744.09448"
     height="1052.3622" />
  <use
     x="0.00000000"
     y="0.00000000"
     xlink:href="#g12979"
     id="use12996"
     transform="translate(-147.2693,-120.4234)"
     width="744.09448"
     height="1052.3622" />
  <use
     x="0.00000000"
     y="0.00000000"
     xlink:href="#g12979"
     id="use12998"
     transform="matrix(0.000000,1.000000,-1.000000,0.000000,791.6733,-126.0217)"
     width="744.09448"
     height="1052.3622" />
  <use
     x="0.00000000"
     y="0.00000000"
     xlink:href="#use12998"
     id="use13000"
     transform="translate(21.47678,-9.971362)"
     width="744.09448"
     height="1052.3622" />
  <use
     x="0.00000000"
     y="0.00000000"
     xlink:href="#g12979"
     id="use13002"
     transform="translate(-13.03947,102.0147)"
     width="744.09448"
     height="1052.3622" />
  <use
     x="0.00000000"
     y="0.00000000"
     xlink:href="#g12979"
     id="use13004"
     transform="matrix(-0.367847,0.929886,-0.929886,-0.367847,967.2226,309.4040)"
     width="744.09448"
     height="1052.3622" />
  <use
     x="0.00000000"
     y="0.00000000"
     xlink:href="#use13004"
     id="use13006"
     transform="translate(9.971362,22.24381)"
     width="744.09448"
     height="1052.3622" />
  <use
     x="0.00000000"
     y="0.00000000"
     xlink:href="#use13006"
     id="use13008"
     transform="translate(12.30663,38.07776)"
     width="744.09448"
     height="1052.3622" />
  <use
     x="0.00000000"
     y="0.00000000"
     xlink:href="#use13008"
     id="use13010"
     transform="translate(-7.692927,-20.30030)"
     width="744.09448"
     height="1052.3622" />
  <use
     x="0.00000000"
     y="0.00000000"
     xlink:href="#g12979"
     id="use13012"
     transform="matrix(0.855788,-0.517326,0.517326,0.855788,-261.8087,401.9361)"
     width="744.09448"
     height="1052.3622" />
  <use
     x="0.00000000"
     y="0.00000000"
     xlink:href="#use13012"
     id="use13016"
     transform="translate(-3.068111,21.47678)"
     width="744.09448"
     height="1052.3622" />
  <use
     x="0.00000000"
     y="0.00000000"
     xlink:href="#use13016"
     id="use13018"
     width="744.09448"
     height="1052.3622"
     transform="translate(-10.14049,44.94816)" />
  <use
     x="0.00000000"
     y="0.00000000"
     xlink:href="#use13018"
     id="use13020"
     transform="translate(5.977546,-22.05107)"
     width="744.09448"
     height="1052.3622" />
  <use
     x="0.00000000"
     y="0.00000000"
     xlink:href="#g12979"
     id="use13038"
     transform="matrix(0.928694,-0.370848,0.370848,0.928694,-146.7399,103.7413)"
     width="744.09448"
     height="900.00000" />
  <use
     x="0.00000000"
     y="0.00000000"
     xlink:href="#use13038"
     id="use13040"
     transform="translate(5.423706,-19.52534)"
     width="744.09448"
     height="900.00000" />
</svg>
