<?xml version="1.0" encoding="UTF-8"?>
<svg width="204mm" height="243.648mm" version="1.1" viewBox="0 0 204 243.648" xmlns="http://www.w3.org/2000/svg">
 <title>Wappen von Messelhausen</title>
 <path d="m2 2 3.17e-4 139.766c6.01e-5 26.4903 10.5358 51.8959 29.2894 70.6275 18.7535 18.7316 44.1887 29.255 70.7103 29.2551 26.5216 8e-5 51.957-10.5233 70.7107-29.2549 18.7536-18.7316 29.2894-44.1373 29.2894-70.6277l1e-5 -139.766z" fill="#da251d"/>
 <g stroke="#000" stroke-linecap="round" stroke-linejoin="round">
  <path d="m150.869 147.709c3.4306-2.52778 9.36762-8.65539 10.7895-11.0601 5.13936-8.69171 1.4521-12.2265-8.16692-10.9466-2.1846 0.29068-6.16047 1.78825-9.08309 2.73713 0 0-10.3351 3.46526-14.1149 4.12672l-0.21992 4.32164c6.19566-0.99099 10.483-1.85529 15.7989-4.72421 2.0714-1.11791 5.06267-2.29423 6.68519-2.70008 7.26868-1.81814 9.26953 1.53377 4.9218 6.24274-1.49159 1.61552-5.09668 5.96868-7.68904 8.03436" stroke-width="2.00001"/>
  <g stroke-width="2">
   <path d="m69.2964 160.168c-3.23816 7.11203-3.75995 18.3985-3.67495 29.5333 5.65128-1.95468 11.254-4.81585 16.8158-7.35545 6.85589-3.13053 17.1688-4.49591 29.6951-1.26608 8.42644 2.17272 13.9064 3.17942 24.3155 10.5592-4.9943-10.6461-7.99032-21.8757-8.61945-33.0746l2.71837-0.93382c2.51491 11.4696 6.27413 16.7105 7.9492 24.9593 0.79711 3.92529 2.8133 7.49212 6.16934 10.6534-1.08887-4.2252-1.0833-7.05681-2.32504-10.5545-1.02776-2.89492-0.74987-4.59467-2.47203-9.24369-1.85158-4.99839-2.84688-11.0691-5.27782-16.8551l-1.06412-4.31964c-1.91748-3.93588-2.70513-14.2119-0.64304-24.4039 0.43067 2.31621 0.54526 5.27398 1.26098 8.22883 0.76679 3.16567 0.81484 6.52597 1.85591 9.04373 1.19885 2.89929 0.79174 3.72137 1.68336 6.70046l1.36773 2.57835c1.68139 7.1689 5.92369 13.6055 6.83484 20.0268 0.91358 6.43851 3.16396 10.7415 5.96078 14.1684-0.83368-4.13461-1.59775-8.29433-1.77624-12.4984-0.31772-7.48358-2.2684-15.8717-7.25921-23.3045l-0.62757-2.97963c-1.6419-5.60259-1.10442-10.2937-3.74488-17.8628-1.46012-4.18554-1.86056-8.11774-3.40739-12.8078 3.49297 10.5766 8.8133 15.827 10.6766 28.4881l0.76079 2.4231c-0.31069 4.91699 1.02687 8.63219 3.24346 11.9248 3.48091 5.17074 4.51183 8.53839 6.85909 15.9393 0.87069-8.75388-0.0826-14.3548-2.33019-18.6424-1.9357-3.6926-3.23422-7.58791-3.87044-11.4908l-0.14594-2.95116c-2.7121-6.96847-7.0641-19.9576-8.62248-22.6568-3.27676-5.67551-4.5728-10.2842-5.08134-16.4174 1.08715 6.0929 4.22852 10.7895 8.62094 14.9859 4.41781 4.22065 6.60329 9.53688 8.89647 15.5587 1.12483-5.67896-1.96407-15.0791-6.67706-20.1874-5.02687-5.44843-7.36337-11.0629-10.1881-18.7458 3.82442 3.53888 7.10185 12.0371 10.6228 14.4817 2.53154 1.75768 5.38412 6.10393 8.26509 10.4783-2.52712-5.83885-3.02866-10.5072-7.91469-17.6362-2.82315-4.11917-6.11007-8.92748-11.6024-14.2662 11.343 8.60668 15.39 15.4354 21.8383 23.991-5.50213-13.4221-2.28838-14.6405-13.9907-23.1043-4.35032-3.14636-8.25063-6.4811-11.7023-12.0117 2.70136 2.6553 5.48026 3.73243 8.10419 5.30161 6.26611 3.74731 12.0928 6.96777 17.0766 17.1345-0.85058-10.7245-7.85285-16.4749-14.6608-21.389-2.39615-1.7296-6.09043-3.34929-6.23842-6.72689 8.31857-2.21888 15.3533 6.85762 21.0919 13.4703-1.79768-2.08281-3.30834-4.3846-4.14612-8.04956-0.88348-3.86485-2.74436-7.31736-7.55387-8.81674-2.38455-0.743393-4.61978-1.88762-6.83783-3.3421-2.56138-1.6796-5.23659-3.17708-9.26689-3.35361 4.81267-4.1815 4.25071-13.9187-1.34582-18.6669 1.16415 6.1977 1.28037 12.6759-0.40228 13.7636-1.12204-4.94237-11.4143-7.39662-13.3812 8.7e-5 -2.1884-5.51089-6.4126-10.9312-3.45544-16.9099-2.31236 1.94591-4.33977 4.36748-6.38661 7.10917-0.62159-3.27753-0.44013-6.42225-3.57072-8.50503-0.81675 9.86937-6.00475 8.97897-3.89364 16.8279-8.57963 1.25868-10.8602-5.10102-6.66852-11.2597-6.2646 1.16872-8.5328 4.86676-8.50397 7.67709 0.05793 5.6462 6.19401 6.52974 10.7379 6.63393-2.61854 0.01265-4.7346-0.916312-6.11297 0.265978-1.49706 1.2841-2.99118 2.99121-4.06969 4.33625-4.1055 5.12008-10.4059 6.84051-16.7284 4.56981 2.18901 5.07342 7.76362 7.7588 13.4609 3.9225-2.2138 4.72918-4.55591 7.22777-7.03601 7.87385-1.79632 0.467947-4.35126 1.48253-5.033 6.13159-0.58535 3.99169-1.8441 6.48303-9.72592 14.2643-5.80363 5.72957-7.91846 7.278-10.9657 7.86994-3.58636 0.69667-7.1409 2.05918-7.22936 7.69216-0.03644 2.32034-0.702313 4.53033-2.04258 6.59767 2.87584 3.07859 15.7018-1.31378 21.6736-5.58557-1.91856 4.86732-4.28413 6.31998-6.70942 7.44881-2.54531 1.1847-4.56867 2.7837-5.84881 3.99193-3.09361 2.91984-0.327149 7.77332 2.25908 4.29415 3.00082 5.22781 5.43286 5.51618 12.7478-1.60678 6.26901-6.10449 11.849-10.0228 15.2559-10.0768 12.9857-0.20579 23.5437-3.40905 25.7387-17.0454-1.10547 8.55081-6.20299 14.3472-11.1847 20.243-10.6436 12.5964-16.7224 21.9827-21.3316 30.646" fill="#fff"/>
   <path d="m45.7047 117.5c1.17853-4.26077 5.57885-5.21692 5.91645-2.12263 0.20853 1.9113-2.79632 1.84134-2.23596-0.0713l1.06306-0.0827" fill="none"/>
   <path d="m127.426 152.864c-1.12697-13.7131 2.66086-26.4319 4.12111-41.4668 1.67955-17.293 1.21983-32.6332-8.49108-34.4051" fill="none"/>
  </g>
  <path d="m149.529 142.915c-2.89866 3.80542-40.0182 15.9332-64.9862 13.1997-10.6686-1.16798-22.2527-5.91775-22.534-17.4408-0.141233-5.78401-0.794642-10.9596-1.76268-16.629l-0.276469-1.79369 0.17415 0.37827c1.81095-1.18172 4.30838-3.00422 7.27552-5.23792 1.45161 3.15143 2.52348 6.31901 3.05769 9.57048l3.96875-2.50373c-0.631372-2.89476-1.87833-6.3769-3.38119-9.83661 6.07642-4.63824 13.434-10.3479 20.8359-15.7939 12.5599-9.2409 25.1196-17.5793 30.933-20.159-2.83421-0.626693-4.2473-2.35879-3.87522-5.47925-7.89842 4.42871-12.2323 7.32735-15.4466 9.83351-2.98015 0.467913-7.99791-3.02308-11.113-6.69675-1.60957-1.89818-2.64541-4.41191-3.59926-6.77943l-4.11034 3.11816c0.145547 5.3413 4.88198 13.228 11.7466 16.4269-1.89677 1.64724-4.14242 3.50679-7.34167 5.86062-7.25914 5.34089-14.0987 11.1808-19.6799 16.0848-2.34595-4.82285-4.96448-9.16631-6.81354-11.2412l-3.68505 3.40186c2.5812 3.74657 4.96412 7.38212 6.91224 11.0097-2.52273 2.23755-4.689 4.1598-6.35568 5.55781-0.797662 0.66096-1.60063 1.28881-2.33888 1.65106 0.822648 2.48117-2.00158 5.15365 0.793233 5.08547 2.53397 15.0163-0.98369 35.1886-3.20549 43.3736 7.78454 1.5809 15.8618 2.11822 24.1029 2.11822 17.411 0 27.2265-2.16307 42.2145-7.47654 10.5926-3.75526 20.5358-7.321 29.3067-14.2586" stroke-width="1.5"/>
 </g>
 <g fill="none" stroke="#000" stroke-linecap="round" stroke-linejoin="round">
  <g stroke-width="2">
   <path d="m114.574 64.5966c3.66442-1.06571 5.41417 0.289696 4.47873 4.35973-1.32247 5.75399 2.26033 11.8844 15.4059 5.59762 3.92618-1.87766 6.11438-1.19371 11.3129 1.7386-1.20963-3.83192-3.65893-7.50673-10.1602-5.3858-11.2931 3.68417-14.9418-0.982455-13.1266-6.95825 2.2477-7.39968-3.59783-5.41178-7.64338-5.23182"/>
   <path d="m122.846 62.7586c3.10143-0.760015 5.06088-2.05586 6.07528-4.34794"/>
   <path d="m122.656 64.1255c2.38315 2.21336 3.99752 3.0623 8.01765-0.957828"/>
   <path d="m110.307 71.9106c0.69979-1.08799 1.68486-2.00114 2.44644-3.20349 1.78317-2.81516 2.39213-10.0236 1.58614-11.8891"/>
   <path d="m105.907 48.0146c-5.85382 8.01121-6.092 14.1406-4.13541 22.5759"/>
  </g>
  <path d="m96.1714 57.5663c2.12891-0.07225 3.76577 0.109871 5.1774 0.472623" stroke-width="1.5"/>
  <g stroke-width="2">
   <path d="m124.763 65.6991c2.84451 2.33583 5.72722 1.87487 8.19111 5.94675"/>
   <path d="m79.6891 73.8237c0.726012-1.57229 1.52772-2.53319 4.0049-3.42832 1.27478-0.460644 2.35582-1.32786 3.7769-2.41249 4.76946-3.64029 9.42458-4.12247 13.4738-1.2907"/>
   <path d="m73.8792 84.3598c1.6264 0.362965 3.21518 0.886679 4.96649 0.565111 2.73186-0.50161 3.68258 0.250778 5.94054 2.50874"/>
  </g>
  <g stroke-width="1.5">
   <path d="m73.454 90.8327c3.94917 0.893168 7.71128 0.40749 10.907-1.13114"/>
   <path d="m75.4856 93.7147c2.579 0.467945 5.30168-0.01773 7.55249-1.22563"/>
   <path d="m68.871 94.5652c1.44508 2.12159 3.83702 3.95102 6.84378 4.96373"/>
  </g>
 </g>
 <ellipse cx="78.0759" cy="88.7774" rx="2.83482" ry="2.38597" stroke="#000" stroke-linecap="round" stroke-linejoin="round" stroke-width="1.5"/>
 <g fill="none" stroke="#000" stroke-linecap="round" stroke-linejoin="round">
  <path d="m123.126 91.4429c2.05758-1.52551 3.31992-2.57671 4.8798-4.43286"/>
  <path d="m122.358 101.298c2.65775-2.74148 5.04927-5.54888 7.25181-9.14349"/>
  <path d="m120.988 107.212c2.62742-2.54167 5.41414-5.36351 7.81976-8.8094"/>
  <path d="m119.886 115.631c3.47533-2.33499 6.79781-4.82283 8.95565-8.47531"/>
  <path d="m119.953 123.415c3.08665-3.04722 5.90242-6.22989 8.45453-9.54439"/>
  <path d="m116.511 134.106c4.54066-3.05814 7.574-6.35196 11.2609-10.7137"/>
  <path d="m116.428 143.093c4.18362-2.96933 7.0213-5.8236 9.72405-9.51098"/>
  <path d="m116.853 148.92c2.98765-2.23093 5.59157-4.6082 7.83646-7.62339"/>
  <path d="m117.622 153.755c2.36134-2.2188 4.74137-4.3909 7.01795-6.82159"/>
  <path d="m118.534 170.145c2.48653-1.74567 4.8969-3.51038 6.33307-5.51865"/>
  <path d="m118.42 177.157c2.93427-2.34708 5.85976-4.78646 8.48793-7.35612"/>
  <path d="m122.943 181.171c1.95888-1.38809 3.90085-2.92838 5.81524-4.71684"/>
  <path d="m128.319 184.102c0.90788-0.64791 1.53943-1.25634 2.14028-1.86039"/>
  <path d="m69.1024 182.532c3.51451-1.65842 6.74647-3.45812 9.02247-5.7358"/>
  <path d="m70.706 176.685c3.39356-1.42317 6.02926-3.09896 8.08703-4.9674"/>
  <path d="m79.7932 152.531c4.61744-1.94262 8.98754-4.1101 12.6306-6.93852"/>
  <path d="m83.6018 145.582c4.64675-2.00547 9.10895-4.25701 12.6974-7.67351"/>
  <path d="m89.8826 136.628c4.5347-1.99152 8.57894-4.39605 11.4279-7.80714"/>
  <path d="m96.7982 125.67c3.53385-2.39543 5.33124-4.79418 8.02021-7.70692"/>
  <path d="m87.9783 118.955c1.14892-0.85735 3.82217-4.22342 5.36709-6.46506"/>
  <path d="m81.7309 119.322c3.30684-2.60219 4.68586-4.92898 6.88432-7.37283"/>
  <path d="m99.07 107.863c-0.52921 2.08751-1.8116 3.92396-3.40556 5.65656"/>
 </g>
 <path d="m109.983 67.9468 1.1576-2.92374c-0.84703-0.06117-1.13007-0.515213-0.99219-1.6064-0.79603-0.502307-1.14904-1.37595 0.16532-2.65141-0.87548-0.540168-1.05326-1.41523-0.35431-2.71113-1.2685 0.915104-1.95224-0.336517-0.85049-2.08444-1.12478 0.539724-1.7264-0.457255-0.85871-2.24956 0.2109-0.435644-0.5556-1.31853-0.83054-0.962244-3.57117 4.62769-4.53297 12.7928-0.63659 16.9923 0.40815-0.379632 1.08648-0.538315 1.91981-0.130597-0.0887-1.00857 0.36097-1.54606 1.2801-1.67278z" stroke="#000" stroke-linecap="round" stroke-linejoin="round" stroke-width="1.5"/>
 <path d="m2 2 3.17e-4 139.766c6.01e-5 26.4903 10.5358 51.8959 29.2894 70.6275 18.7535 18.7316 44.1887 29.255 70.7103 29.2551 26.5216 8e-5 51.957-10.5233 70.7107-29.2549 18.7536-18.7316 29.2894-44.1373 29.2894-70.6277l1e-5 -139.766z" fill="none" stroke="#000" stroke-linecap="square" stroke-miterlimit="8" stroke-width="4"/>
</svg>
