<?xml version="1.0" encoding="utf-8"?>
<!-- Generator: Adobe Illustrator 16.0.3, SVG Export Plug-In . SVG Version: 6.00 Build 0)  -->
<!DOCTYPE svg PUBLIC "-//W3C//DTD SVG 1.1//EN" "http://www.w3.org/Graphics/SVG/1.1/DTD/svg11.dtd">
<svg version="1.1" id="Ebene_1" xmlns="http://www.w3.org/2000/svg" xmlns:xlink="http://www.w3.org/1999/xlink" x="0px" y="0px"
	 width="850.39px" height="992.129px" viewBox="0 0 850.39 992.129" enable-background="new 0 0 850.39 992.129"
	 xml:space="preserve">
<path fill="#FFFFFF" d="M38.116,569.214V18.132h774.216v551.615l0.107-0.533c0,215.816-173.377,390.775-387.242,390.775
	c-213.872,0-387.245-174.959-387.245-390.775H38.116z"/>
<path fill="none" stroke="#010202" stroke-width="10" d="M37.857,571.147V20.065h774.217V571.68l0.107-0.533
	c0,215.816-173.377,390.775-387.242,390.775c-213.872,0-387.245-174.959-387.245-390.775H37.857z"/>
<path fill="#010202" d="M154.362,240.565c12.933-24.019,29.251-44.117,43.333-67c3.412-5.543,0.692-9.312,2.667-15
	c1.93-5.559,8.201-11.824,11.777-16.592c6.562-8.749,21.695-14.059,32.124-8.371c10.88,5.935,18.779,15.277,30.938,19.186
	c15.945,5.125,30.567,5.217,47.377,5.993c24.966,1.152,48.554,6.452,73.742,6.452c26.422,0,51.449-0.338,77.827,0.835
	c29.279,1.301,57.924,2.369,86.923-2.21c25.906-4.09,51.895-7.256,77.479-13.033c5.668-1.28,21.065-6.475,24.678-2.514
	c12.261,13.443,24.522,26.886,36.783,40.329c5.45,5.976,10.9,11.951,16.351,17.926c-23.786-1.441-47.225-4.063-71.063-4.644
	c-22.714-0.554-45.727,4.819-68.448,5.468c-50.611,1.446-101.401,4.731-151.914,5.843c-24.022,0.528-48.49-1.333-72.576-1.333
	c-10.571,0-22.112,1.426-32.542-0.313c-12.487-2.081-23.528-8.296-36.125-9.688c-12.003-1.326-25.039,0-37.161,0
	c-13.125,0-17.064,4.931-27.836,10.517C198.506,222.885,175.923,233.308,154.362,240.565z"/>
<g>
	<path fill="#FD0002" stroke="#010202" stroke-width="2" stroke-miterlimit="10" d="M256.38,534.862
		c-47.005-45.549-107.717-27.249-131.352,33.036c-24.811,63.285,6.947,109.479,55.004,142.334
		c55.28,37.793,119.232,5.655,150.378-46.803c14.175-23.876,17.351-59.144,2-83.383C311.985,547.794,274.007,564.464,256.38,534.862
		z"/>
	<path fill="#FD0002" stroke="#010202" stroke-width="2" stroke-miterlimit="10" d="M577.576,524.807
		c-40.547,19.091-47.881,75.758,6.569,136.023c60.183,38.318,113.515,26.221,157.55-13.599
		c50.652-45.803,31.935-124.385-15.733-166.514c-21.697-19.173-56.667-25.83-84.933-16.153
		C591.834,492.159,610.213,509.794,577.576,524.807z"/>
	<path fill="#FD0002" stroke="#010202" stroke-width="2" stroke-miterlimit="10" d="M416.335,652.21
		c-70.371-16.336-99.252,35.225-87.307,105.688c12.54,73.969,71.938,107.786,135.333,97.334
		c80.874-13.334,113.054-61.193,112.667-128.527c-0.18-30.645-50.834-89.265-100.834-80.64
		C438.862,663.94,449.849,670.178,416.335,652.21z"/>
</g>
<g display="none">
	<g display="inline">
		<path fill="none" stroke="#010202" stroke-width="2" stroke-miterlimit="10" d="M207.195,643.065
			c21.99,10.149,31.227,16.771,54.208,8.088c19.299-7.291,22.891-26.911,22.846-45.088"/>
		<path fill="none" stroke="#010202" stroke-width="2" stroke-miterlimit="10" d="M176.195,661.065
			c32.579,19.946,57.158,24.282,93.037,9.463c32.414-13.389,37.187-50.373,27.963-79.463"/>
		<path fill="none" stroke="#010202" stroke-width="2" stroke-miterlimit="10" d="M193.875,694.065
			c58.283,22.768,125.319-11.344,125.319-77.5"/>
	</g>
	<g display="inline">
		<path fill="none" stroke="#010202" stroke-width="2" stroke-miterlimit="10" d="M441.195,782.065c43.385,0,75.73-18.673,57-65.5"
			/>
		<path fill="none" stroke="#010202" stroke-width="2" stroke-miterlimit="10" d="M393.195,796.565
			c40.127,12.665,70.597,16.156,107.944-6.074c33.479-19.928,30.968-72.52,9.056-97.926"/>
		<path fill="none" stroke="#010202" stroke-width="2" stroke-miterlimit="10" d="M414.695,820.565
			c34.76,5.623,68.793,12.589,98.094-11.828c28.066-23.389,45.603-54.864,32.906-92.172"/>
	</g>
	<g display="inline">
		<path fill="none" stroke="#010202" stroke-width="2" stroke-miterlimit="10" d="M693.195,528.565
			c9.515,15.524,16.01,27.468,11.5,46c-3.677,15.107-19.104,33.009-37,30"/>
		<path fill="none" stroke="#010202" stroke-width="2" stroke-miterlimit="10" d="M711.195,513.065
			c16.43,30.002,23.89,61.258-1.076,89.104c-25.454,28.392-54.664,34.896-91.424,34.896"/>
		<path fill="none" stroke="#010202" stroke-width="2" stroke-miterlimit="10" d="M735.195,535.065
			c6.271,27.591,9.141,51.632-9.074,74.87c-20.854,26.606-43.08,39.63-77.426,39.63"/>
	</g>
</g>
<g display="none">
	<path display="inline" fill="none" stroke="#010202" stroke-width="5" stroke-miterlimit="10" d="M405.721,213.225l-2.692,10.674
		l-10,12c-39.314,29.039-99.004,42.771-146,54.667c7.507,2.812,13.095,6.767,20,8.667c-18.574,2.688-36.867,6.896-55.333,10
		c5.702,1.798,11.796,4.925,17.667,6c-21.008,5.728-41.598,15.203-62.333,25.667c6.785,1.315,14.077,5.029,20.667,6
		c-22.922-1.002-38.217,15.125-57.667,24.667c6.425,0.239,12.299,2.717,19,2.667c-15.568,11.319-31.293,22.741-43,38
		c5.439-0.061,10.893-0.056,16.333,0c-6.432,15.323-18.515,27.754-31.667,37.667c6.333,0,12.667,0,19,0
		c-13.536,13.139-25.597,27.788-34,44.667c4.111,0,8.222,0,12.333,0c-16.605,13.379-9.983,35.486-8,54.667
		c12.265-17.192,32.231-23.725,44-41.333c-0.087,5.294,0.882,11.899,0.333,17c9.71-11.652,15.485-18.465,17-33.905
		c1.603,3.229,3.447,7.217,4.667,10.571c2.864-9.534,10.935-16.909,14.333-25c-0.556,2.171-1.111,4.342-1.667,6.514
		c18.744-6.608,25.626-26.035,38.667-38.514c-2.558,8.983-1.936,18.873-5,28c21.72-12.279,24.844-35.32,42-51
		c-2.633,8.86-2.135,18.098-4.667,27c16.693-11.38,17.832-27.32,31-41.667c-4.103,10.154-3.422,13.857-5.333,24.333
		c14.368-17.626,22.137-35.316,28.667-57.333c-0.333,5.421-1.953,10.637-2.667,16c14.515-11.976,16.348-33.038,25.333-50
		c-1.993,8.413-1.204,13.236-1.667,20.333c11.951-13.899,20.662-29.197,29.333-45.333c1.111,2.222,2.222,4.444,3.333,6.667
		c10.044-29.952,33.489-41.248,55.667-61c-12.009,50.09-43.954,95.833-65.222,142.506c-20.466,44.911-49.778,96.161-72.445,139.161
		l-3.333,10.333l-3.667,5.667l-5.333,3.333l-10.667,1.667l-5.333,5.667l-1.333,8l2,8.666l6,6l6.679,3h11.321l6.333-2.333l7-5.333
		l3.667-4.667l1-4.667l-3.667-4.333l-1.333-3.333v-5l2.667-7l8.667-13c46.638-82.549,112.492-178.333,135.667-271
		c2.431,102.104-0.319,206.964,8,308.667l4.909,71.334l3.108,21.667l-2.85,4h-2.501h-3.333l-2.667,6.333l1,6.333l4,7l8.333,5
		l8.334,1.667h9.333l8-6.333l5-7l1.667-6.334l-1.667-7.333l-2.667-6.333l-5.333-2.334l-3-4l-1.667-92.666
		c-5.649-95.405-6.647-189.948-14-285c32.409,91.286,75.843,186.208,154,248l6,3l5.334,1h3.333l1.667,7.333l5.333,8.667l7,6.333
		l6.333,2.667l8-1.334l7.334-4.666l6.333-6l4-8.334v-8v-7l-5-6.333l-6.667-2h-8l-6.333,2l-6,3.333l-8.333-4.333l-25.667-29
		c-56.83-51.164-119.561-147.088-127.333-224.667c22.508,22.898,44.022,45.927,61.333,73c1.111-3.333,2.222-6.667,3.333-10
		c8.354,12.388,19.076,23.761,31.667,31.667c0.828-3.158-0.52-8.465,0.333-11c13.035,9.915,39.816,50.088,37.667,18.667
		c12.732,12.96,25.714,24.838,42.333,32c-4.605-6.507-7.047-14.553-11.333-21c15.521,8.28,29.88,18.565,42.333,31
		c-1.241-6.777-0.243-12.918-2-19.667c12.394,12.135,25.128,23.911,36,37.333c-0.554-4.821,0.378-9.827,0-14.667
		c4.591,18.305,16.781,32.81,30.667,45.333c-0.947-6.502-0.53-13.05-1.667-19.333c5.921,11.557,14.232,20.343,23,29.667
		c0-2.111,0-4.222,0-6.333c10.961,13.077,22.92,25.264,32,39.667c0-21.267,5.588-42.356-11-57.333c2.556,1,5.111,2,7.667,3
		c-6.352-8.873-9.164-16.096-16.667-24c0.917-1.713,9.285-0.274,10.667-1.333c-6.068-6.52-10.944-12.012-17.667-17.667
		c2,0.333,4,0.667,6,1c-4.455-3.579-11.892-12.843-17.666-18c7.599,2.459,15.729,2.664,23.666,5.667
		c-7.625-17.056-24.249-29.006-40.333-36.667c6.223,0,12.444,0,18.667,0c-10.9-13.021-25.283-21.836-41.667-25.667
		c6.232-1.038,12.357-3.412,18.667-4c-10.557-6.917-19.692-15.326-33.667-18.667c3.223-1.111,6.444-2.222,9.667-3.333
		c-10.905-10.292-24.415-15.18-39-13.667c2.556-1.556,5.11-3.111,7.666-4.667c-11.438,0.473-22.414-1.691-34,0
		c2.217-2.433,7.389-5.435,10-7.333c-15.227-1.475-29.987,1.683-44.333,1.667c5.801-2.296,9.762-2.505,15.333-5.333
		c-12.011-7.906-26.886-8.282-41-2.333c1.889-1.667,3.778-3.333,5.667-5c-14.444-0.798-23.673-2.725-37.667,5
		c2.444-2.444,4.89-4.889,7.334-7.333c-8.345,1.472-18.071,0.889-26.667,1.667c3.788-2.646,7.065-3.9,9.667-6.333
		c-32.729-7.406-55.55-2.816-78.667-32.333l-4.667-9.667l-3.333-9.674H405.721z"/>
	<path display="inline" fill="#1D9E56" stroke="#1D9E56" stroke-miterlimit="10" d="M405.721,213.225l-2.692,10.674l-10,12
		c-39.314,29.039-99.004,42.771-146,54.667c7.507,2.812,13.095,6.767,20,8.667c-18.574,2.688-36.867,6.896-55.333,10
		c5.702,1.798,11.796,4.925,17.667,6c-21.008,5.728-41.598,15.203-62.333,25.667c6.785,1.315,14.077,5.029,20.667,6
		c-22.922-1.002-38.217,15.125-57.667,24.667c6.425,0.239,12.299,2.717,19,2.667c-15.568,11.319-31.293,22.741-43,38
		c5.439-0.061,10.893-0.056,16.333,0c-6.432,15.323-18.515,27.754-31.667,37.667c6.333,0,12.667,0,19,0
		c-13.536,13.139-25.597,27.788-34,44.667c4.111,0,8.222,0,12.333,0c-16.605,13.379-9.983,35.486-8,54.667
		c12.265-17.192,32.231-23.725,44-41.333c-0.087,5.294,0.882,11.899,0.333,17c9.71-11.652,15.485-18.465,17-33.905
		c1.603,3.229,3.447,7.217,4.667,10.571c2.864-9.534,10.935-16.909,14.333-25c-0.556,2.171-1.111,4.342-1.667,6.514
		c18.744-6.608,25.626-26.035,38.667-38.514c-2.558,8.983-1.936,18.873-5,28c21.72-12.279,24.844-35.32,42-51
		c-2.633,8.86-2.135,18.098-4.667,27c16.693-11.38,17.832-27.32,31-41.667c-4.103,10.154-3.422,13.857-5.333,24.333
		c14.368-17.626,22.137-35.316,28.667-57.333c-0.333,5.421-1.953,10.637-2.667,16c14.515-11.976,16.348-33.038,25.333-50
		c-1.993,8.413-1.204,13.236-1.667,20.333c11.951-13.899,20.662-29.197,29.333-45.333c1.111,2.222,2.222,4.444,3.333,6.667
		c10.044-29.952,33.489-41.248,55.667-61c-12.009,50.09-43.954,95.833-65.222,142.506c-20.466,44.911-49.778,96.161-72.445,139.161
		l-3.333,10.333l-3.667,5.667l-5.333,3.333l-10.667,1.667l-5.333,5.667l-1.333,8l2,8.666l6,6l6.679,3h11.321l6.333-2.333l7-5.333
		l3.667-4.667l1-4.667l-3.667-4.333l-1.333-3.333v-5l2.667-7l8.667-13c46.638-82.549,112.492-178.333,135.667-271
		c2.431,102.104-0.319,206.964,8,308.667l4.909,71.334l3.108,21.667l-2.85,4h-2.501h-3.333l-2.667,6.333l1,6.333l4,7l8.333,5
		l8.334,1.667h9.333l8-6.333l5-7l1.667-6.334l-1.667-7.333l-2.667-6.333l-5.333-2.334l-3-4l-1.667-92.666
		c-5.649-95.405-6.647-189.948-14-285c32.409,91.286,75.843,186.208,154,248l6,3l5.334,1h3.333l1.667,7.333l5.333,8.667l7,6.333
		l6.333,2.667l8-1.334l7.334-4.666l6.333-6l4-8.334v-8v-7l-5-6.333l-6.667-2h-8l-6.333,2l-6,3.333l-8.333-4.333l-25.667-29
		c-56.83-51.164-119.561-147.088-127.333-224.667c22.508,22.898,44.022,45.927,61.333,73c1.111-3.333,2.222-6.667,3.333-10
		c8.354,12.388,19.076,23.761,31.667,31.667c0.828-3.158-0.52-8.465,0.333-11c13.035,9.915,39.816,50.088,37.667,18.667
		c12.732,12.96,25.714,24.838,42.333,32c-4.605-6.507-7.047-14.553-11.333-21c15.521,8.28,29.88,18.565,42.333,31
		c-1.241-6.777-0.243-12.918-2-19.667c12.394,12.135,25.128,23.911,36,37.333c-0.554-4.821,0.378-9.827,0-14.667
		c4.591,18.305,16.781,32.81,30.667,45.333c-0.947-6.502-0.53-13.05-1.667-19.333c5.921,11.557,14.232,20.343,23,29.667
		c0-2.111,0-4.222,0-6.333c10.961,13.077,22.92,25.264,32,39.667c0-21.267,5.588-42.356-11-57.333c2.556,1,5.111,2,7.667,3
		c-6.352-8.873-9.164-16.096-16.667-24c0.917-1.713,9.285-0.274,10.667-1.333c-6.068-6.52-10.944-12.012-17.667-17.667
		c2,0.333,4,0.667,6,1c-4.455-3.579-11.892-12.843-17.666-18c7.599,2.459,15.729,2.664,23.666,5.667
		c-7.625-17.056-24.249-29.006-40.333-36.667c6.223,0,12.444,0,18.667,0c-10.9-13.021-25.283-21.836-41.667-25.667
		c6.232-1.038,12.357-3.412,18.667-4c-10.557-6.917-19.692-15.326-33.667-18.667c3.223-1.111,6.444-2.222,9.667-3.333
		c-10.905-10.292-24.415-15.18-39-13.667c2.556-1.556,5.11-3.111,7.666-4.667c-11.438,0.473-22.414-1.691-34,0
		c2.217-2.433,7.389-5.435,10-7.333c-15.227-1.475-29.987,1.683-44.333,1.667c5.801-2.296,9.762-2.505,15.333-5.333
		c-12.011-7.906-26.886-8.282-41-2.333c1.889-1.667,3.778-3.333,5.667-5c-14.444-0.798-23.673-2.725-37.667,5
		c2.444-2.444,4.89-4.889,7.334-7.333c-8.345,1.472-18.071,0.889-26.667,1.667c3.788-2.646,7.065-3.9,9.667-6.333
		c-32.729-7.406-55.55-2.816-78.667-32.333l-4.667-9.667l-3.333-9.674H405.721z"/>
	<g display="inline">
		<path fill="none" stroke="#010202" stroke-width="2" stroke-miterlimit="10" d="M346.361,275.898
			c-49.021,39.544-113.206,63.197-156.458,109.333c-34.889,37.215-60.263,75.995-87.542,117.333"/>
		<path fill="none" stroke="#010202" stroke-width="2" stroke-miterlimit="10" d="M278.361,309.232c14.014-4.117,23.551-2.274,22,12
			"/>
		<path fill="none" stroke="#010202" stroke-width="2" stroke-miterlimit="10" d="M218.361,339.898c9.473-2.207,21.765,0,31.539,0
			c-2.629,9.942-2.602,20.986-5.539,30.667"/>
		<path fill="none" stroke="#010202" stroke-width="2" stroke-miterlimit="10" d="M168.361,383.898
			c6.993-2.26,17.091-0.391,24.667-2c0,7.953,1.906,18.337,0,26"/>
		<path fill="none" stroke="#010202" stroke-width="2" stroke-miterlimit="10" d="M135.695,425.898
			c7.711-2.523,14.286,0.871,22-3.333c-4.027,8.831-0.719,16.646-3.333,25.333"/>
	</g>
	<g display="inline">
		<path fill="none" stroke="#010202" stroke-width="2" stroke-miterlimit="10" d="M491.695,279.232
			c82.008,35.969,224.669,71.18,261.333,165.333"/>
		<path fill="none" stroke="#010202" stroke-width="2" stroke-miterlimit="10" d="M553.695,321.232
			c-6.552-6.922-10.139-16.187-17.144-23.14c9.932,0,20.657-1.353,30.477,0"/>
		<path fill="none" stroke="#010202" stroke-width="2" stroke-miterlimit="10" d="M617.028,350.565
			c-25.653-18.734-22.653-39.417,11.334-32"/>
		<path fill="none" stroke="#010202" stroke-width="2" stroke-miterlimit="10" d="M665.695,370.565
			c-13.087-15.078-1.473-24.625,17.333-20"/>
		<path fill="none" stroke="#010202" stroke-width="2" stroke-miterlimit="10" d="M714.695,404.898
			c-1.913-6.001,0.202-10.886-3.333-17c8.248-2.236,16.979-2.656,25.333,0"/>
	</g>
	<polygon display="inline" fill="#010202" points="289.444,307.31 293.429,307.064 301.885,306.542 300.526,314.271 
		298.956,311.608 296.943,309.361 	"/>
	<polygon display="inline" fill="#010202" points="605.017,319.182 600.006,319.182 594.492,319.917 597.695,323.898 
		600.006,328.898 600.563,324.041 	"/>
	<polygon display="inline" fill="#010202" points="667.695,349.393 657.19,349.393 660.121,358.547 662.443,353.97 	"/>
</g>
<g>
	<path fill="none" stroke="#010202" stroke-width="5" stroke-miterlimit="10" d="M465.871,280.037
		c53.905,45.983,114.909,94.18,178.824,125.528c52.333,25.668,114.027,48.061,133.144,97.71
		c-8.261-46.157-1.396-72.857-21.213-117.731c-16.443-37.233-45.327-65.988-77.505-88.28
		c-68.619-47.539-127.158-3.355-211.479-49.244l-2.553-1.868c-4.503-3.483-8.943-7.903-13.395-13.587l-4.667-9.666l-3.333-9.674
		H405.72l-2.691,10.674l-10,12c-11.652,8.606-25.093,15.868-39.463,22.135l-1.883,0.81c-78.04,25.321-145.593,40.601-206.797,97.369
		c-28.699,26.62-53.837,49.62-64.848,88.805c-13.27,47.226-2.695,72.687-4.344,119.547
		c11.901-51.854,117.082-81.617,153.108-118.709c49.6-51.066,88.658-108.426,135.516-161.573l2.755-2.329
		c9.031-7.768,16.485-12.659,26.287-21.389c-12.008,50.09-43.953,95.834-65.221,142.506
		c-20.466,44.912-49.778,96.161-72.445,139.161l-3.333,10.333l-3.667,5.667l-5.333,3.333l-10.667,1.667l-5.333,5.667l-1.333,8
		l2,8.666l6,6l6.679,3h11.321l6.333-2.333l7-5.333l3.667-4.667l1-4.667l-3.667-4.333l-1.333-3.333v-5l2.667-7l8.667-13
		c46.638-82.549,112.492-178.334,135.667-271c2.43,102.104-0.32,206.963,8,308.666l4.908,71.334l3.108,21.667l-2.85,4h-2.501h-3.334
		l-2.666,6.333l1,6.333l4,7l8.333,5l8.334,1.667h9.333l8-6.333l5-7l1.667-6.334l-1.667-7.333l-2.667-6.333l-5.333-2.334l-3-4
		l-1.667-92.666c-5.649-95.405-6.647-189.948-14-285.001c32.409,91.287,75.843,186.208,154,248.001l6,3l5.334,1h3.333l1.667,7.333
		l5.333,8.667l7,6.333l6.333,2.667l8-1.334l7.334-4.666l6.333-6l4-8.334v-8v-7l-5-6.333l-6.667-2h-8l-6.333,2l-6,3.333l-8.333-4.333
		l-25.667-29c-56.83-51.164-119.561-147.088-127.333-224.666c2.757,2.805,5.499,5.611,8.221,8.427L465.871,280.037z"/>
	<path fill="#65AD2C" stroke="#65AD2C" stroke-width="2" stroke-miterlimit="10" d="M465.871,280.037
		c53.905,45.983,114.909,94.18,178.824,125.528c52.333,25.668,114.027,48.061,133.144,97.71
		c-8.261-46.157-1.396-72.857-21.213-117.731c-16.443-37.233-45.327-65.988-77.505-88.28
		c-68.619-47.539-127.158-3.355-211.479-49.244l-2.553-1.868c-4.503-3.483-8.943-7.903-13.395-13.587l-4.667-9.666l-3.333-9.674
		H405.72l-2.691,10.674l-10,12c-11.652,8.606-25.093,15.868-39.463,22.135l-1.883,0.81c-78.04,25.321-145.593,40.601-206.797,97.369
		c-28.699,26.62-53.837,49.62-64.848,88.805c-13.27,47.226-2.695,72.687-4.344,119.547
		c11.901-51.854,117.082-81.617,153.108-118.709c49.6-51.066,88.658-108.426,135.516-161.573l2.755-2.329
		c9.031-7.768,16.485-12.659,26.287-21.389c-12.008,50.09-43.953,95.834-65.221,142.506
		c-20.466,44.912-49.778,96.161-72.445,139.161l-3.333,10.333l-3.667,5.667l-5.333,3.333l-10.667,1.667l-5.333,5.667l-1.333,8
		l2,8.666l6,6l6.679,3h11.321l6.333-2.333l7-5.333l3.667-4.667l1-4.667l-3.667-4.333l-1.333-3.333v-5l2.667-7l8.667-13
		c46.638-82.549,112.492-178.334,135.667-271c2.43,102.104-0.32,206.963,8,308.666l4.908,71.334l3.108,21.667l-2.85,4h-2.501h-3.334
		l-2.666,6.333l1,6.333l4,7l8.333,5l8.334,1.667h9.333l8-6.333l5-7l1.667-6.334l-1.667-7.333l-2.667-6.333l-5.333-2.334l-3-4
		l-1.667-92.666c-5.649-95.405-6.647-189.948-14-285.001c32.409,91.287,75.843,186.208,154,248.001l6,3l5.334,1h3.333l1.667,7.333
		l5.333,8.667l7,6.333l6.333,2.667l8-1.334l7.334-4.666l6.333-6l4-8.334v-8v-7l-5-6.333l-6.667-2h-8l-6.333,2l-6,3.333l-8.333-4.333
		l-25.667-29c-56.83-51.164-119.561-147.088-127.333-224.666c2.757,2.805,5.499,5.611,8.221,8.427L465.871,280.037z"/>
	<path fill="none" stroke="#010202" stroke-width="2" stroke-miterlimit="10" d="M103.846,486.934
		c44.473-101.772,163.404-158.79,253.349-213.869"/>
	<path fill="none" stroke="#010202" stroke-width="2" stroke-miterlimit="10" d="M468.195,264.565
		c82.964,64.737,204.037,50.819,267,150.5"/>
</g>
</svg>
