<?xml version="1.0" encoding="utf-8"?>
<!-- Generator: Adobe Illustrator 15.0.0, SVG Export Plug-In . SVG Version: 6.00 Build 0)  -->
<!DOCTYPE svg PUBLIC "-//W3C//DTD SVG 1.1//EN" "http://www.w3.org/Graphics/SVG/1.1/DTD/svg11.dtd">
<svg version="1.1" id="Coat_of_arms" xmlns="http://www.w3.org/2000/svg" xmlns:xlink="http://www.w3.org/1999/xlink" x="0px"
	 y="0px" width="558.43px" height="615.119px" viewBox="0 0 558.43 615.119" enable-background="new 0 0 558.43 615.119"
	 xml:space="preserve">
<g>
	<path fill="#FFFFFF" d="M279.215,610.866c-64.223,0-125.774-23.722-173.315-66.796c-47.189-42.751-76.806-101.005-83.4-164.031
		L4.464,4.262l549.502-0.01l-17.844,371.74c-6.678,64.775-36.354,124.287-83.569,167.578
		C405.206,586.967,343.647,610.866,279.215,610.866z"/>
	<path fill="#FF0000" stroke="#000000" stroke-width="3" stroke-miterlimit="10" d="M539.931,296.61L279.216,7.104L18.806,303.079
		l3.694,76.96c3.272,31.278,12.222,61.379,26.169,88.995l230.546-261.931l231.86,257.561c13.269-27.524,21.83-57.484,25.045-88.672
		L539.931,296.61z"/>
	<g>
		<polygon fill="#0071BC" stroke="#000000" stroke-width="3" stroke-miterlimit="10" points="313.604,553.474 303.186,254.496 
			279.37,228.402 255.557,254.497 245.138,553.474 		"/>
		<path fill="#0071BC" stroke="#000000" stroke-width="3" stroke-miterlimit="10" d="M190.069,553.474v41.55
			c28.276,10.393,58.402,15.843,89.146,15.843c30.899,0,61.133-5.511,89.46-16.019v-41.374H190.069z"/>
		
			<line fill="none" stroke="#000000" stroke-width="2" stroke-miterlimit="10" x1="255.557" y1="254.497" x2="303.186" y2="254.496"/>
	</g>
	<path d="M279.215,615.118c-65.281,0-127.846-24.113-176.17-67.896C55.061,503.75,24.952,444.51,18.264,380.416l-0.015-0.199
		L0.003,0.01L558.427,0l-18.063,376.312c-6.76,65.862-36.925,126.372-84.938,170.393
		C407.293,590.821,344.714,615.118,279.215,615.118z M25.339,379.778C38.963,509.907,148.09,608.021,279.215,608.021
		c131.222,0,240.434-99.877,254.07-232.338l17.69-368.583L7.453,7.108L25.339,379.778z"/>
	<g>
		<path fill="#FFFFFF" stroke="#000000" stroke-width="3" stroke-miterlimit="10" d="M204.375,133.221
			c8.522,9.252,14.962,5.383,16.076-3.285c1.014-7.902-3.678-15.801-0.978-23.986c9.556-28.977,54.056-6.819,44.086,49.978
			c-2.863,16.306-8.794,39.617-28.903,39.142c-7.757-0.183-24.436-13.636-12.991-28.976c21.671,40.42,44.376-19.717,34.333-38.229
			c-3.932-7.246-15.828-12.663-20.668,1.43C224.823,159.882,202.914,145.396,204.375,133.221z"/>
		<path fill="#FFFFFF" stroke="#000000" stroke-width="3" stroke-miterlimit="10" d="M354.055,133.221
			c-8.523,9.252-14.962,5.383-16.074-3.285c-1.017-7.902,3.676-15.801,0.977-23.986c-9.557-28.977-54.057-6.819-44.085,49.978
			c2.863,16.306,8.793,39.617,28.903,39.142c7.757-0.183,24.435-13.636,12.99-28.976c-21.67,40.42-44.375-19.717-34.333-38.229
			c3.932-7.246,15.828-12.663,20.666,1.43C333.608,159.882,355.517,145.396,354.055,133.221z"/>
		<path fill="#FFFFFF" stroke="#000000" stroke-width="3" stroke-miterlimit="10" d="M279.354,192.391
			c0.838-4.969,4.667-8.117,7.542-12.417c5.25-7.861,3.872-17.646,1.206-26.067c-2.701-8.528-2.437-17.947-2.437-27.199
			c0-23.68,13.339-38.928,15.099-48.571c2.921-16.017-20.188-35.254-21.41-47.428c-1.518,12.311-24.331,31.411-21.409,47.428
			c1.759,9.643,15.097,24.891,15.097,48.571c0,9.251,0.266,18.671-2.434,27.199c-2.667,8.421-4.045,18.207,1.204,26.067
			C274.684,184.274,278.515,187.422,279.354,192.391z"/>
		<g>
			<path d="M235.382,111.893c1.606-1.263,3.708-1.852,5.775-1.843c2.077-0.011,4.131,0.46,6.075,1.17
				c1.94,0.732,3.779,1.719,5.489,2.907c1.711,1.169,3.276,2.671,4.508,4.385c2.494,3.433,3.812,7.509,4.6,11.56
				c0.759,4.08,0.922,8.225,0.772,12.333c-0.4,8.215-2.07,16.344-5.039,23.998c-1.498,3.815-3.332,7.533-5.8,10.846
				c-1.255,1.632-2.669,3.176-4.381,4.356c-0.854,0.584-1.786,1.073-2.785,1.354c-0.999,0.273-2.056,0.32-3.049,0.101
				c2.048,0.245,3.989-0.648,5.519-1.88c1.551-1.247,2.802-2.833,3.896-4.496c2.2-3.337,3.799-7.048,5.137-10.822
				c1.304-3.792,2.353-7.676,3.089-11.619c0.758-3.937,1.261-7.926,1.416-11.922c0.185-3.992,0.029-8.003-0.634-11.916
				c-0.65-3.902-1.864-7.743-4.015-11.001c-1.074-1.629-2.436-3.013-4.007-4.226c-1.558-1.213-3.273-2.244-5.084-3.055
				c-1.807-0.815-3.735-1.41-5.721-1.546C239.168,110.444,237.114,110.811,235.382,111.893z"/>
		</g>
		<g>
			<path d="M322.707,111.893c-1.731-1.082-3.786-1.449-5.76-1.316c-1.985,0.136-3.915,0.73-5.722,1.546
				c-1.811,0.811-3.525,1.841-5.084,3.055c-1.572,1.213-2.934,2.597-4.008,4.226c-2.15,3.258-3.365,7.1-4.015,11.001
				c-0.663,3.912-0.819,7.923-0.634,11.916c0.154,3.996,0.656,7.985,1.415,11.922c0.736,3.943,1.785,7.827,3.089,11.619
				c1.338,3.773,2.938,7.485,5.137,10.822c1.094,1.664,2.346,3.249,3.896,4.496c1.529,1.232,3.471,2.125,5.518,1.88
				c-0.992,0.22-2.05,0.172-3.049-0.101c-0.998-0.28-1.931-0.769-2.784-1.354c-1.712-1.18-3.126-2.724-4.381-4.356
				c-2.468-3.313-4.302-7.031-5.8-10.846c-2.969-7.654-4.639-15.783-5.039-23.998c-0.149-4.108,0.014-8.253,0.773-12.333
				c0.787-4.051,2.105-8.127,4.6-11.56c1.232-1.714,2.797-3.216,4.508-4.385c1.711-1.188,3.549-2.174,5.489-2.907
				c1.943-0.71,3.997-1.182,6.075-1.17C318.999,110.042,321.101,110.63,322.707,111.893z"/>
		</g>
		<g>
			<line fill="#FFFFFF" x1="279.215" y1="79.393" x2="279.215" y2="167.893"/>
			<path d="M279.215,79.393c0.386,7.375,0.646,14.75,0.777,22.125c0.159,7.375,0.202,14.75,0.222,22.125
				c-0.017,7.375-0.06,14.75-0.219,22.125c-0.131,7.375-0.392,14.75-0.78,22.125c-0.389-7.375-0.649-14.75-0.78-22.125
				c-0.159-7.375-0.202-14.75-0.219-22.125c0.02-7.375,0.063-14.75,0.222-22.125C278.57,94.143,278.829,86.768,279.215,79.393z"/>
		</g>
		<path fill="#FFFFFF" stroke="#000000" stroke-width="3" stroke-miterlimit="10" d="M309.566,153.553
			c0,3.295-2.76,5.966-6.163,5.966h-48.059c-3.405,0-6.165-2.671-6.165-5.966l0,0c0-3.294,2.76-5.965,6.165-5.965h48.059
			C306.806,147.587,309.566,150.258,309.566,153.553L309.566,153.553z"/>
		<path fill="#FFFFFF" stroke="#000000" stroke-width="3" stroke-miterlimit="10" d="M306.887,142.23
			c0,2.958-2.515,5.357-5.615,5.357h-43.797c-3.102,0-5.618-2.399-5.618-5.357l0,0c0-2.959,2.516-5.357,5.618-5.357h43.797
			C304.372,136.873,306.887,139.271,306.887,142.23L306.887,142.23z"/>
	</g>
</g>
</svg>
