<?xml version="1.0" encoding="UTF-8"?>
<!-- Created with Inkscape (http://www.inkscape.org/) -->
<svg width="203.17mm" height="221.12mm" version="1.1" viewBox="0 0 203.17 221.12" xmlns="http://www.w3.org/2000/svg">
 <title>Wappen des ehemaligen Landkreises Rehau</title>
 <g transform="translate(-4.2502 -38.273)">
  <g>
   <g>
    <path d="m105.83 257.89c24.697 3e-5 48.383-9.8107 65.846-27.274 16.65-16.65 26.344-38.956 27.211-62.402l6.9427-128.44v-0.0093l-99.999-2.09e-4z" fill="#da121a"/>
    <path d="m105.83 39.773-100 2.08e-4 6.9422 128.43c0.86264 23.453 10.557 45.766 27.211 62.42 17.463 17.464 41.149 27.275 65.846 27.275z" fill="#fff"/>
    <path d="m11.78 149.77 0.9958 18.426c0.86264 23.453 10.557 45.766 27.211 62.42 6.2346 6.2347 13.263 11.493 20.846 15.679v-96.525z" stroke="#000" stroke-linecap="square" stroke-width="2"/>
   </g>
   <rect x="60.833" y="44.773" width="45" height="105" stroke="#000" stroke-linecap="round" stroke-linejoin="round" stroke-width="2"/>
  </g>
  <path d="m14.397 148.6 1.2901 23.628c1.3612 24.929 16.539 55.427 46.835 71.971" fill="none" stroke="#fff" stroke-width="2.5"/>
  <g stroke="#000" stroke-linejoin="round">
   <path d="m150.99 46.558c-13.937 0.03653-19.467 4.358-14.928 11.903 3.8168 6.3456 6.5525 13.287 7.2161 21.382-14.507-13.195-28.065 0.37431-24.348 17.499l9.0067 41.501c0.39312 1.8115 0.28365 2.8764-0.31057 4.6896-12.021 36.68-5.8868 45.929 11.721 84.188 3.4665 2.8711 15.255 4.7466 22.561 1.9653 8.99-15.968 14.435-30.596 17.566-40.713 5.753-18.587 2.3046-25.3-2.5885-47.361-0.34894-1.5733-0.54968-2.8865-0.0165-4.8421l11.237-41.222c3.7705-13.832-10.541-30.069-24.783-16.191 0.26553-6.7717 1.7713-13.779 5.6126-18.758 9.0179-11.688-5.3658-13.845-16.571-14.032-0.46701-0.0078-0.92555-0.011-1.3751-0.0098zm22.542 35.476c3.1574 0 7.1779 3.2417 7.3236 7.7013 0.18899 5.785-4.6384 23.104-9.5912 38.79-5.8032-17.481-7.985-32.533-7.985-36.995 0-6.3519 7.0952-9.4966 10.253-9.4966zm-40.057 0.47232c3.1574 0 9.0242 3.3339 8.9297 10.536-0.0585 4.4616-2.9379 18.284-8.7411 35.766-4.4803-15.781-7.3229-33.194-7.1339-38.978 0.14569-4.4597 3.788-7.3236 6.9453-7.3236z" fill="none" stroke-width="1.5"/>
   <path d="m149.93 46.558c-13.937 0.03653-19.467 4.358-14.928 11.903 3.8168 6.3456 6.5525 13.287 7.2161 21.382-14.507-13.195-28.065 0.37431-24.348 17.499l9.0067 41.501c0.39313 1.8115 0.28364 2.8764-0.31058 4.6896-12.021 36.68-5.8868 45.929 11.721 84.188 3.4664 2.8711 15.255 4.7466 22.561 1.9653 8.99-15.968 14.435-30.596 17.566-40.713 5.753-18.587 2.3046-25.3-2.5885-47.361-0.34894-1.5733-0.54968-2.8865-0.0165-4.8421l11.237-41.222c3.7705-13.832-10.541-30.069-24.783-16.191 0.26553-6.7717 1.7713-13.779 5.6126-18.758 9.0179-11.688-5.3658-13.845-16.571-14.032-0.46701-0.0078-0.92554-0.01101-1.3751-0.0098zm22.542 35.476c3.1574 0 7.1779 3.2417 7.3236 7.7013 0.18899 5.785-4.6384 23.104-9.5912 38.79-5.8032-17.481-7.985-32.533-7.985-36.995 0-6.3519 7.0952-9.4966 10.253-9.4966zm-40.057 0.47232c3.1574 0 9.0242 3.3339 8.9297 10.536-0.0585 4.4617-2.9379 18.284-8.7411 35.766-4.4803-15.781-7.3229-33.194-7.1339-38.978 0.14568-4.4597 3.788-7.3236 6.9453-7.3236z" fill="#fff" stroke-width="1.5"/>
   <path d="m147.2 50.095c-5.0108-0.83335-9.1525 1.2461-9.2604 2.6458-0.24178 3.136 6.8985 5.025 13.418 5.1972 13.512 0.35686 18.757-3.1662 13.135-7.0871 5.6026 3.8994-0.3798 7.5562-12.851 5.0082-12.57-2.5681-8.8085-4.6974-4.4412-5.7641z" stroke-linecap="round"/>
  </g>
  <g fill="none" stroke="#000">
   <g stroke-linecap="round">
    <path d="m165.39 140.93c1.3151-0.0747 2.2393-0.31051 3.4018-0.8977"/>
    <path d="m155.57 61.718c2.9206-0.07698 5.694-0.52189 8.3627-1.2284"/>
    <path d="m154.29 65.545c2.9367-0.28073 5.7213-0.68311 8.032-1.4647"/>
    <path d="m156.18 68.994c1.7828-0.24984 3.367-0.63211 4.7719-1.1339"/>
    <path d="m155.52 72.348c2.132-0.27589 3.2988-0.68967 4.583-1.0867"/>
    <path d="m156.42 75.467c0.85467-0.42766 1.8393-0.7687 3.0711-0.94494"/>
    <path d="m157.5 78.16c0.3516-0.12953 0.65495-0.27515 1.3702-0.28348"/>
    <path d="m164.26 136 1.3229-0.23625"/>
    <path d="m166.18 145.87c1.3387-0.1411 2.4883-0.36963 3.7325-0.80321"/>
    <path d="m167.27 150.35c1.4867-0.0127 2.9382-0.13078 4.2995-0.51972"/>
    <path d="m167.51 154.79c2.1304-0.11615 3.8051-0.28506 5.8114-0.8977"/>
    <path d="m169.01 159.23c1.836-0.13002 3.6286-0.39055 5.3389-0.8977"/>
    <path d="m170.79 163.86c1.6557-0.12181 3.2883-0.29004 4.8192-0.66146"/>
    <path d="m170.73 169.12c2.0979-0.0481 3.9494-0.25155 5.9531-0.75596"/>
    <path d="m170.79 173.64c2.2531 3e-3 4.4238-0.24131 6.4256-0.99219"/>
    <path d="m171.49 178.96c1.585-0.0888 3.2206-0.22827 5.0554-0.56697"/>
    <path d="m169.99 183.92c2.5344 0.1569 4.3994-0.0209 6.1894-0.23624"/>
    <path d="m169.93 189.01c1.6264-0.0615 3.2234-0.24106 4.7247-0.8032"/>
    <path d="m168.61 193.57c1.4826-0.02 2.9937-0.0973 4.7247-0.61421"/>
    <path d="m168.51 198.01 2.9766-0.66146"/>
    <path d="m165.95 201.7 4.1105-0.0945"/>
    <path d="m165.36 206.19h3.1656"/>
    <path d="m163.25 210.6 3.4018-0.14174"/>
    <path d="m161.84 215.06 2.5986-0.14174"/>
    <path d="m160.65 218.75 2.5986-0.23624"/>
    <path d="m158.54 223.13 2.5041-0.23624"/>
   </g>
   <path d="m5.8335 39.773 6.9422 128.43c0.86264 23.453 10.557 45.766 27.211 62.42 17.463 17.464 41.149 27.275 65.846 27.275 24.697 3e-5 48.383-9.8107 65.846-27.274 16.65-16.65 26.344-38.956 27.211-62.402l6.9432-128.44z" stroke-linecap="square" stroke-miterlimit="8" stroke-width="3"/>
   <path d="m105.83 39.773v218.12" stroke-width="2"/>
  </g>
 </g>
</svg>
