<?xml version="1.0" encoding="UTF-8" standalone="no"?>
<!-- Created with Inkscape (http://www.inkscape.org/) -->

<svg
   xmlns:dc="http://purl.org/dc/elements/1.1/"
   xmlns:cc="http://creativecommons.org/ns#"
   xmlns:rdf="http://www.w3.org/1999/02/22-rdf-syntax-ns#"
   xmlns:svg="http://www.w3.org/2000/svg"
   xmlns="http://www.w3.org/2000/svg"
   xmlns:sodipodi="http://sodipodi.sourceforge.net/DTD/sodipodi-0.dtd"
   xmlns:inkscape="http://www.inkscape.org/namespaces/inkscape"
   width="209.74771mm"
   height="239.72479mm"
   viewBox="0 0 209.74771 239.7248"
   version="1.1"
   id="svg8"
   sodipodi:docname="Rheinbischofsheim Wappen.svg"
   inkscape:version="0.92.2 (5c3e80d, 2017-08-06)">
  <defs
     id="defs2">
    <marker
       inkscape:stockid="StopS"
       orient="auto"
       refY="0"
       refX="0"
       id="StopS"
       style="overflow:visible"
       inkscape:isstock="true">
      <path
         id="path4708"
         d="M 0,5.65 V -5.65"
         style="fill:none;fill-opacity:0.75;fill-rule:evenodd;stroke:#000000;stroke-width:1.00000003pt;stroke-opacity:1"
         transform="scale(0.2)"
         inkscape:connector-curvature="0" />
    </marker>
    <marker
       inkscape:stockid="SemiCircleIn"
       orient="auto"
       refY="0"
       refX="0"
       id="SemiCircleIn"
       style="overflow:visible"
       inkscape:isstock="true">
      <path
         id="path4711"
         d="m -0.37450702,-0.04569258 c 0,2.75999998 2.24000002,4.99999998 5.00000002,4.99999998 v -10 c -2.76,0 -5.00000002,2.24 -5.00000002,5.00000002 z"
         style="fill:#000000;fill-opacity:1;fill-rule:evenodd;stroke:#000000;stroke-width:1.00000003pt;stroke-opacity:1"
         transform="scale(0.6)"
         inkscape:connector-curvature="0" />
    </marker>
    <marker
       inkscape:stockid="DotS"
       orient="auto"
       refY="0"
       refX="0"
       id="DotS"
       style="overflow:visible"
       inkscape:isstock="true">
      <path
         id="path4600"
         d="m -2.5,-1 c 0,2.76 -2.24,5 -5,5 -2.76,0 -5,-2.24 -5,-5 0,-2.76 2.24,-5 5,-5 2.76,0 5,2.24 5,5 z"
         style="fill:#000000;fill-opacity:1;fill-rule:evenodd;stroke:#000000;stroke-width:1.00000003pt;stroke-opacity:1"
         transform="matrix(0.2,0,0,0.2,1.48,0.2)"
         inkscape:connector-curvature="0" />
    </marker>
    <marker
       inkscape:stockid="DotS"
       orient="auto"
       refY="0"
       refX="0"
       id="DotS-5"
       style="overflow:visible"
       inkscape:isstock="true">
      <path
         id="path4600-6"
         d="m -2.5,-1 c 0,2.76 -2.24,5 -5,5 -2.76,0 -5,-2.24 -5,-5 0,-2.76 2.24,-5 5,-5 2.76,0 5,2.24 5,5 z"
         style="fill:#000000;fill-opacity:1;fill-rule:evenodd;stroke:#000000;stroke-width:1.00000003pt;stroke-opacity:1"
         transform="matrix(0.2,0,0,0.2,1.48,0.2)"
         inkscape:connector-curvature="0" />
    </marker>
  </defs>
  <sodipodi:namedview
     id="base"
     pagecolor="#ffffff"
     bordercolor="#666666"
     borderopacity="1.0"
     inkscape:pageopacity="0.0"
     inkscape:pageshadow="2"
     inkscape:zoom="1.4142136"
     inkscape:cx="312.1516"
     inkscape:cy="89.633938"
     inkscape:document-units="mm"
     inkscape:current-layer="layer1"
     showgrid="false"
     inkscape:window-width="1920"
     inkscape:window-height="1017"
     inkscape:window-x="1912"
     inkscape:window-y="-8"
     inkscape:window-maximized="1" />
  <metadata
     id="metadata5">
    <rdf:RDF>
      <cc:Work
         rdf:about="">
        <dc:format>image/svg+xml</dc:format>
        <dc:type
           rdf:resource="http://purl.org/dc/dcmitype/StillImage" />
      </cc:Work>
    </rdf:RDF>
  </metadata>
  <g
     inkscape:label="Ebene 1"
     inkscape:groupmode="layer"
     id="layer1"
     transform="translate(-0.7333288,-55.912379)">
    <path
       style="fill:#fffffb;fill-opacity:1;stroke:#000000;stroke-width:3.88386202px;stroke-linecap:butt;stroke-linejoin:miter;stroke-opacity:1"
       d="M 3.1070774,57.856464 2.6755074,201.48753 C 13.178007,325.02855 198.71458,323.97136 208.53875,201.068 L 207.87129,58.084123 Z"
       id="path3720"
       inkscape:connector-curvature="0"
       sodipodi:nodetypes="ccccc" />
    <path
       style="opacity:1;fill:none;stroke:#000000;stroke-width:6.82581091;stroke-linecap:butt;stroke-linejoin:miter;stroke-miterlimit:4;stroke-dasharray:none;stroke-opacity:1"
       d="m 3.6845174,211.59511 201.8696326,1.3872"
       id="path3722"
       inkscape:connector-curvature="0"
       sodipodi:nodetypes="cc" />
    <path
       style="fill:#000000;fill-opacity:1;stroke:none;stroke-width:3.88386202px;stroke-linecap:butt;stroke-linejoin:miter;stroke-opacity:1"
       d="m 30.469587,254.27553 c 0.14679,-20.22363 0.11743,-93.45402 0.25542,-100.83192 0.005,-4.10797 -6.37942,-3.90451 -6.37531,-0.0587 l -0.62386,100.83192 c 0.0734,4.72375 6.82654,4.93763 6.74316,0.0587 z"
       id="path4873-3"
       inkscape:connector-curvature="0"
       sodipodi:nodetypes="ccccc"
       inkscape:transform-center-x="-3.4677339"
       inkscape:transform-center-y="1.7338793" />
    <path
       style="fill:#000000;fill-opacity:1;stroke:none;stroke-width:3.88386202px;stroke-linecap:butt;stroke-linejoin:miter;stroke-opacity:1"
       d="m 67.314287,166.02161 c 0.14679,-20.22365 -0.0587,-5.54697 0.0881,-12.92487 0.005,-4.10797 -6.37941,-3.90449 -6.3753,-0.0587 l -0.45065,12.92487 6.74317,0.0587 z"
       id="path4873-3-2"
       inkscape:connector-curvature="0"
       sodipodi:nodetypes="cccccc"
       inkscape:transform-center-x="-3.46772"
       inkscape:transform-center-y="1.7338771" />
    <path
       style="fill:#000000;fill-opacity:1;stroke:none;stroke-width:3.88386202px;stroke-linecap:butt;stroke-linejoin:miter;stroke-opacity:1"
       d="m 184.52376,255.31567 c 0.14678,-20.22361 0.11738,-93.45399 0.25542,-100.83188 0.004,-4.10799 -6.37944,-3.90452 -6.37532,-0.0588 l -0.62387,100.8319 c 0.0734,4.72378 6.8264,4.93765 6.74318,0.0587 z"
       id="path4873-3-4"
       inkscape:connector-curvature="0"
       sodipodi:nodetypes="ccccc"
       inkscape:transform-center-x="-3.4677385"
       inkscape:transform-center-y="1.7338314" />
    <path
       style="fill:#000000;fill-opacity:1;stroke:none;stroke-width:3.88386202px;stroke-linecap:butt;stroke-linejoin:miter;stroke-opacity:1"
       d="m 146.11866,166.85421 c 0.14679,-20.22365 -0.0586,-5.54697 0.0881,-12.92487 0.004,-4.10796 -6.37943,-3.9045 -6.37532,-0.0587 l -0.45064,12.92487 6.74317,0.0587 z"
       id="path4873-3-2-3"
       inkscape:connector-curvature="0"
       sodipodi:nodetypes="cccccc"
       inkscape:transform-center-x="-3.467765"
       inkscape:transform-center-y="1.733875" />
    <path
       style="fill:#000000;fill-opacity:1;stroke:none;stroke-width:3.88386202px;stroke-linecap:butt;stroke-linejoin:miter;stroke-opacity:1"
       d="m 66.187227,257.0496 0.25542,-47.6022 -6.37532,-0.0588 -0.62386,47.60221 z"
       id="path4873-0"
       inkscape:connector-curvature="0"
       sodipodi:nodetypes="ccccc" />
    <path
       style="fill:#000000;fill-opacity:1;stroke:none;stroke-width:3.88386202px;stroke-linecap:butt;stroke-linejoin:miter;stroke-opacity:1"
       d="m 97.830367,206.29668 -0.43745,-36.33212 -63.2462,-1.09947 0.0734,36.33213 z"
       id="path4873-0-2"
       inkscape:connector-curvature="0"
       sodipodi:nodetypes="ccccc" />
    <path
       style="fill:#000000;fill-opacity:1;stroke:none;stroke-width:3.88386202px;stroke-linecap:butt;stroke-linejoin:miter;stroke-opacity:1"
       d="m 175.78436,206.9038 -0.43744,-36.33209 -64.22692,-1.09947 0.0734,36.33208 z"
       id="path4873-0-2-3"
       inkscape:connector-curvature="0"
       sodipodi:nodetypes="ccccc"
       inkscape:transform-center-x="10.923365"
       inkscape:transform-center-y="-7.2822366" />
    <path
       style="fill:#000000;fill-opacity:1;stroke:none;stroke-width:3.88386202px;stroke-linecap:butt;stroke-linejoin:miter;stroke-opacity:1"
       d="m 22.223277,205.51663 -0.43744,-36.33212 -19.3794296,0.11739 0.0734,36.33212 z"
       id="path4873-0-2-5"
       inkscape:connector-curvature="0"
       sodipodi:nodetypes="ccccc" />
    <path
       style="opacity:1;fill:none;stroke:#000000;stroke-width:6.82581091;stroke-linecap:butt;stroke-linejoin:miter;stroke-miterlimit:4;stroke-dasharray:none;stroke-opacity:1"
       d="m 2.1477574,161.83319 19.2934096,0.34644"
       id="path3722-8"
       inkscape:connector-curvature="0"
       sodipodi:nodetypes="cc" />
    <path
       style="opacity:1;fill:none;stroke:#000000;stroke-width:6.82581091;stroke-linecap:butt;stroke-linejoin:miter;stroke-miterlimit:4;stroke-dasharray:none;stroke-opacity:1"
       d="M 34.484337,162.35356 56.898687,162.7"
       id="path3722-8-6"
       inkscape:connector-curvature="0"
       sodipodi:nodetypes="cc" />
    <path
       style="opacity:1;fill:none;stroke:#000000;stroke-width:6.82581091;stroke-linecap:butt;stroke-linejoin:miter;stroke-miterlimit:4;stroke-dasharray:none;stroke-opacity:1"
       d="m 70.895567,161.83332 19.29341,0.34645"
       id="path3722-8-3"
       inkscape:connector-curvature="0"
       sodipodi:nodetypes="cc" />
    <path
       style="opacity:1;fill:none;stroke:#000000;stroke-width:6.82581091;stroke-linecap:butt;stroke-linejoin:miter;stroke-miterlimit:4;stroke-dasharray:none;stroke-opacity:1"
       d="M 117.18984,162.35356 136.48325,162.7"
       id="path3722-8-4"
       inkscape:connector-curvature="0"
       sodipodi:nodetypes="cc" />
    <path
       style="opacity:1;fill:none;stroke:#000000;stroke-width:7.74143553;stroke-linecap:butt;stroke-linejoin:miter;stroke-miterlimit:4;stroke-dasharray:none;stroke-opacity:1"
       d="m 149.89766,163.22388 25.31304,0.3391"
       id="path3722-8-7"
       inkscape:connector-curvature="0"
       sodipodi:nodetypes="cc" />
    <path
       style="opacity:1;fill:none;stroke:#000000;stroke-width:6.82581091;stroke-linecap:butt;stroke-linejoin:miter;stroke-miterlimit:4;stroke-dasharray:none;stroke-opacity:1"
       d="m 188.45174,163.39373 19.29342,0.34644"
       id="path3722-8-2"
       inkscape:connector-curvature="0"
       sodipodi:nodetypes="cc" />
    <path
       style="opacity:0.95999995;fill:none;stroke:#000000;stroke-width:3.88997817;stroke-linecap:butt;stroke-linejoin:miter;stroke-miterlimit:4;stroke-dasharray:none;stroke-opacity:1"
       d="m 30.323087,215.06306 32.47076,40.91891"
       id="path3722-8-32"
       inkscape:connector-curvature="0"
       sodipodi:nodetypes="cc" />
    <path
       style="opacity:0.95999995;fill:none;stroke:#000000;stroke-width:3.88997817;stroke-linecap:butt;stroke-linejoin:miter;stroke-miterlimit:4;stroke-dasharray:none;stroke-opacity:1"
       d="m 59.798847,214.36948 -32.27684,41.81331"
       id="path3722-8-32-8"
       inkscape:connector-curvature="0"
       sodipodi:nodetypes="cc" />
    <path
       style="opacity:0.95999995;fill:none;stroke:#000000;stroke-width:3.88997817;stroke-linecap:butt;stroke-linejoin:miter;stroke-miterlimit:4;stroke-dasharray:none;stroke-opacity:1"
       d="m 183.25017,213.67603 16.69258,20.45924"
       id="path3722-8-32-4"
       inkscape:connector-curvature="0"
       sodipodi:nodetypes="cc" />
    <path
       style="fill:#000000;fill-opacity:1;stroke:none;stroke-width:2.05341959px;stroke-linecap:butt;stroke-linejoin:miter;stroke-opacity:1"
       d="m 207.04204,206.68066 -0.1174,-36.57739 -17.95335,-0.11738 -0.4712,36.69997 z"
       id="path4873-0-2-3-3"
       inkscape:connector-curvature="0"
       sodipodi:nodetypes="ccccc"
       inkscape:transform-center-x="3.0530954"
       inkscape:transform-center-y="-7.2822009" />
    <path
       style="fill:#588bca;fill-opacity:1;stroke:#000000;stroke-width:1.46791637;stroke-linecap:butt;stroke-linejoin:miter;stroke-miterlimit:4;stroke-dasharray:none;stroke-opacity:1"
       d="m 190.06097,251.56135 c 0,0 2.44561,-0.9703 -1.93217,-0.86755 -4.81124,0.11739 -8.24001,6.07117 -13.05139,6.17392 -5.35011,0.11739 -9.45338,-6.13752 -14.80438,-6.2109 -5.29374,-0.0734 -9.51004,5.76026 -14.80422,5.75292 -5.07694,-0.007 -9.10519,-5.46815 -14.18126,-5.55622 -5.06826,-0.0879 -8.96309,5.10847 -14.3546,5.02041 -5.91555,-0.1028 -9.29338,-5.54594 -15.18001,-5.58997 -5.886793,-0.044 -9.204143,5.36392 -14.282393,5.3052 -5.12861,-0.0587 -9.17213,-5.5907 -14.3003,-5.67878 -5.00251,-0.0881 -9.12383,5.10042 -14.12693,5.07107 -4.76677,-0.0294 -8.63663,-4.97067 -13.40355,-4.98535 -4.44558,-0.0158 -8.09115,4.50255 -12.53659,4.55083 -4.65961,0.044 -13.24105,-4.48359 -13.24105,-4.48359 44.58706,60.68112 131.809743,52.42456 170.198843,1.49801 z"
       id="path5116"
       inkscape:connector-curvature="0"
       sodipodi:nodetypes="csssssssssssscc" />
    <path
       style="fill:#f9d254;fill-opacity:1;stroke:#000000;stroke-width:0.95414567;stroke-linecap:butt;stroke-linejoin:miter;stroke-miterlimit:4;stroke-dasharray:none;stroke-opacity:1"
       d="m 86.925947,169.69698 29.669823,0.36843 c -3.23925,-9.2486 -4.75781,-29.61785 -24.152813,-30.40553 -6.55644,1.36957 -10.66998,4.44791 -13.97661,8.09173 l 23.171943,0.11738 v 3.18772 l -21.823373,-0.49026 c 7.22053,8.92947 5.49397,13.15016 7.11103,19.13048 z"
       id="path5118"
       inkscape:connector-curvature="0"
       sodipodi:nodetypes="cccccccc" />
    <path
       style="fill:#000000;fill-opacity:1;stroke:none;stroke-width:3.88386202px;stroke-linecap:butt;stroke-linejoin:miter;stroke-opacity:1"
       d="m 106.87947,221.61526 0.42864,-60.25943 c 0.004,-4.10798 -6.3794,-3.9045 -6.3753,-0.0587 l -0.79708,60.25943 c 0.0734,4.72374 6.82655,4.93763 6.74317,0.0587 z"
       id="path4873"
       inkscape:connector-curvature="0"
       sodipodi:nodetypes="ccccc"
       inkscape:transform-center-x="-1.8390391"
       inkscape:transform-center-y="6.8072896e-006" />
    <path
       style="fill:none;stroke:#000000;stroke-width:0.95414567;stroke-linecap:butt;stroke-linejoin:miter;stroke-miterlimit:4;stroke-dasharray:none;stroke-opacity:1"
       d="m 106.44865,159.93443 v -13.74012 l -4.76632,0.0294 -0.044,4.83311"
       id="path5150"
       inkscape:connector-curvature="0"
       sodipodi:nodetypes="cccc" />
    <path
       style="fill:none;stroke:#000000;stroke-width:0.95414567;stroke-linecap:butt;stroke-linejoin:miter;stroke-miterlimit:4;stroke-dasharray:none;stroke-opacity:1"
       d="m 111.73257,169.53344 0.0881,-15.08474"
       id="path5152"
       inkscape:connector-curvature="0" />
    <path
       style="fill:#588bca;fill-opacity:1;stroke:#000000;stroke-width:0.95414567;stroke-linecap:butt;stroke-linejoin:miter;stroke-miterlimit:4;stroke-dasharray:none;stroke-opacity:1"
       d="m 85.934517,141.93294 c -4.59839,-11.67007 11.12534,-21.26087 18.725773,-38.66521 1.65625,-11.74305 -3.75669,-14.355058 -13.177493,-11.790316 -6.21251,2.256909 -11.6965,8.885586 -16.99186,16.645156 -1.54822,13.8288 -7.44616,15.91354 -13.52421,17.51193 -4.14701,-3.60593 -7.32417,-2.84729 -10.57649,-2.42732 -4.10047,-13.6942 7.14215,-18.48695 7.97578,-18.55241 7.6524,-0.71049 10.47535,-3.83626 12.65726,-7.282199 8.36492,-10.438654 16.837,-18.624925 25.66108,-19.419365 13.077823,-1.243318 17.832403,4.646249 21.326623,11.616949 4.09917,11.480855 2.66912,25.088295 0.86754,38.838575 1.21544,4.56507 11.2554,18.97987 10.57664,28.26209 v 13.69757 l -12.85879,-0.3024 c -3.56205,-12.49181 -6.33598,-29.77124 -24.152823,-30.40552 z"
       id="path5247"
       inkscape:connector-curvature="0"
       sodipodi:nodetypes="cccccccccccccccc" />
    <path
       style="fill:#ffffff;fill-opacity:1;stroke:#000000;stroke-width:0.95414567;stroke-linecap:butt;stroke-linejoin:miter;stroke-miterlimit:4;stroke-dasharray:none;stroke-opacity:1"
       d="m 53.257227,113.74689 c 0.25102,1.78132 2.51102,3.08864 3.89761,1.35487 1.47908,-1.84867 -0.18055,-3.48409 -1.71893,-3.71278"
       id="path5251"
       inkscape:connector-curvature="0"
       sodipodi:nodetypes="csc" />
    <path
       style="fill:none;stroke:#000000;stroke-width:0.73395818;stroke-linecap:butt;stroke-linejoin:miter;stroke-miterlimit:3.5999999;stroke-dasharray:none;stroke-opacity:1;marker-start:url(#DotS-5)"
       d="m 55.498587,113.83979 0.15267,0.18203"
       id="path5265"
       inkscape:connector-curvature="0" />
    <path
       style="fill:none;stroke:#000000;stroke-width:0.95414567;stroke-linecap:butt;stroke-linejoin:miter;stroke-miterlimit:4;stroke-dasharray:none;stroke-opacity:1"
       d="m 51.992917,117.7596 c 0.63707,-4.47775 3.21224,-7.01769 6.84885,-8.49603"
       id="path5249-4"
       inkscape:connector-curvature="0"
       sodipodi:nodetypes="cc" />
    <path
       style="fill:#d45f66;fill-opacity:1;stroke:#000000;stroke-width:0.95414567;stroke-linecap:butt;stroke-linejoin:miter;stroke-miterlimit:4;stroke-dasharray:none;stroke-opacity:1"
       d="m 50.390237,123.20718 c -4.05585,5.97369 -8.69285,10.49471 -13.38549,14.87659 -0.98497,1.59488 -1.22864,3.09686 0.36405,4.36941 10.43585,-7.22025 14.62764,-12.45365 19.54075,-19.11596 -2.08253,-0.68843 -4.28117,-0.37872 -6.51931,-0.1322"
       id="path5396"
       inkscape:connector-curvature="0"
       sodipodi:nodetypes="ccccc" />
    <path
       style="fill:#d45f66;fill-opacity:1;stroke:#000000;stroke-width:0.95414567;stroke-linecap:butt;stroke-linejoin:miter;stroke-miterlimit:4;stroke-dasharray:none;stroke-opacity:1"
       d="m 56.909547,123.33722 c -3.11124,5.5339 -4.91091,9.80144 -12.44059,19.60139 4.20823,-2.18176 8.06224,-3.37988 16.49777,-17.30411 -1.85398,-1.56831 -3.00072,-2.00516 -4.05718,-2.29728 z"
       id="path5398"
       inkscape:connector-curvature="0"
       sodipodi:nodetypes="cccc" />
  </g>
</svg>
