<svg xmlns="http://www.w3.org/2000/svg" height="526" width="434"><path d="M5 5.003v316c.003 110.455 101.546 199.994 212 199.994s211.997-89.54 212-199.994v-316z" fill="#fff"/><path d="M4.5 6l424-.997 1 142.997H4.5z" fill="#fcdb00" fill-rule="evenodd"/><path d="M184.5 261H4.5v65h180v192c21.667 4.772 43.333 3.49 65 0V326h180v-65h-180V148h-65z" fill="#da251d" fill-rule="evenodd" stroke="#000" stroke-width="4"/><path d="M383.476 85.83c6.984.596 25.842 3.62-3.544 8.395-10.98 1.784-20.98 1.523-33.069 6.533-12.942 5.363-28.21 11.912-41.247 7.33-14.743-5.182-33.21.48-50.602 2.988-13.358 1.926-25.351 7.25-38.678 1.227-12.973-5.864-25.422-4.76-39.449-.797-13.553 3.83-28.324.308-42.044-4.027-15.641-4.94-21.961-6.619-38.207-5.186 7.222 5.936 11.46 22.841-2.878 28.177-8.887 3.308-20.491-5.255-19.127-17.129-14.516 7.806-28.085 9.371-35.334-6.507-4.605-10.086 5.152-22.432 16.71-19.446-6.342-11.23-3.233-23.84 12.458-25.372 16.32-1.593 19.236 8.216 19.473 15.876.423 13.694 12.877 3.84 17.837-2.443 6.226-7.888 10.414-16.511 27.51-25.953 9.632-5.32 18.445-9.031 33.436-7.66 6.658.609 13.119-4.091 17.952-7.393 10.525-7.191 19.269-1.095 4.86 11.015-7.323 6.156-27.045 9.35-40.954 18.079-11.258 7.066-16.368 17.364.456 22.535 11.677 3.588 21.285 1.043 30.966-1.799 11.844-25.001 28.33-33.253 45.222-37.095 13.347-3.035 25.195-2.547 39.386-9.862 9.844-5.074 21.061-8.68 6.99 8.116-10.092 12.046-27.148 12.416-40.54 19.599-12.248 6.57-17.031 17.521-1.453 22.902 13.643 4.712 25.925 7.573 35.42 1.438 4.41-2.85 6.78-9.655 11.003-15.479 13.96-19.248 26.342-21.492 49.91-26.111 6.435-1.261 17.387-1.769 23.798-6.59 10.886-8.187 20.865-2.558 8.242 7.964-11.48 9.569-25.948 12.895-39.386 18.167-14.57 5.717-21.76 21.19-1.836 25.471 10.241 2.2 19.807-2.268 29.713-4.077 9.701-1.772 21.519-4.206 37.006-2.885z" fill="#005198" fill-rule="evenodd" stroke="#000" stroke-width="4"/><path d="M5 5.003v316c.003 110.455 101.546 199.994 212 199.994s211.997-89.54 212-199.994v-316z" fill="none" stroke="#000" stroke-width="8" stroke-linecap="round" stroke-linejoin="round"/><path d="M5 148h424" fill="none" stroke="#000" stroke-width="4"/></svg>