<svg xmlns="http://www.w3.org/2000/svg" viewBox="0 0 452.813 492.188" height="525" width="483"><path style="opacity:1;fill:#fcdb00;fill-opacity:1;stroke:none;stroke-width:.9375;stroke-linecap:round;stroke-linejoin:round;stroke-miterlimit:4;stroke-dasharray:none;stroke-opacity:1" d="M6.293 6.262h440.226v150H6.293z"/><path d="M82.386 98.44c-1.29-9.786-8.575-26.313-17.233-23.454-11.025 3.64-10.255 20.691-17.412 20.647-29.72-.182-22.254 32.618 3.048 27.502 5.952 13.37 14.67 18.204 22.348 15.187 9.686-3.806 6.28-21.816 14.459-22.623 15.122-1.493 39.04.096 62.586-7.728 20.694-6.876 42.7 3.559 75.175.089 40.781-4.358 74.515-1.36 111.76 6.195 23.418 4.75 54.978 11.631 87.248 23.746-9.756-15.3-31.31-28.134-51.997-33.837-11.454-3.157-38.994-10.37-30-16.563 13.005-8.954 41.27-22.185 60.297-28.226-40.186-9.619-71.639 10.403-85.437 21.639-10.364 8.439-36.003 14.9-41.258-.408-5.668-16.512 32.541-30.863 54.658-43.249-37.865-11.497-68.23 25.872-92.82 42.316-13.056 8.73-37.67 15.211-34.618-5.629 3.331-22.751 41.558-36.68 66.895-52.983-20.804-2.887-48.648 10.313-60.238 15.82-13.142 6.245-29.63 29.044-40.28 44.044-10.845 15.274-44.018 16.537-44.572 5.225-.657-13.4 26.45-39.923 48.133-56.187-24.754 1.504-52.687 21.062-61.245 30.564C101.261 72.322 94.33 102.33 82.386 98.44Z" style="fill:#000;stroke:#000;stroke-width:1.875;stroke-linecap:round;stroke-linejoin:round;stroke-miterlimit:4;stroke-dasharray:none;stroke-opacity:1"/><path style="fill:#fff;stroke:none;stroke-width:.9375px;stroke-linecap:butt;stroke-linejoin:miter;stroke-opacity:1" d="M6.293 156.262h220.113v329.663C143.765 487.591 6.293 437.218 6.293 283.392Z"/><path d="M446.52 156.262H226.405v329.663c82.642 1.666 220.113-48.707 220.113-202.533z" style="fill:#000;stroke:none;stroke-width:.9375px;stroke-linecap:butt;stroke-linejoin:miter;stroke-opacity:1"/><path d="M6.293 156.262H446.52" style="fill:none;stroke:#000;stroke-width:7.5;stroke-linecap:butt;stroke-linejoin:miter;stroke-miterlimit:4;stroke-dasharray:none;stroke-opacity:1"/><path style="fill:none;stroke:#000;stroke-width:11.25;stroke-linecap:round;stroke-linejoin:round;stroke-miterlimit:4;stroke-dasharray:none;stroke-opacity:1" d="M6.293 6.262v277.13c0 119.566 94.472 202.533 220.113 202.533S446.52 402.958 446.52 283.392V6.262Z"/></svg>