<?xml version="1.0" encoding="UTF-8" standalone="no"?>
<!-- Created with Inkscape (http://www.inkscape.org/) -->

<svg
   xmlns:dc="http://purl.org/dc/elements/1.1/"
   xmlns:cc="http://creativecommons.org/ns#"
   xmlns:rdf="http://www.w3.org/1999/02/22-rdf-syntax-ns#"
   xmlns:svg="http://www.w3.org/2000/svg"
   xmlns="http://www.w3.org/2000/svg"
   version="1.1"
   width="204.99998"
   height="243.06245"
   id="svg2">
  <metadata
     id="metadata8">
    <rdf:RDF>
      <cc:Work
         rdf:about="">
        <dc:format>image/svg+xml</dc:format>
        <dc:type
           rdf:resource="http://purl.org/dc/dcmitype/StillImage" />
        <dc:title></dc:title>
      </cc:Work>
    </rdf:RDF>
  </metadata>
  <defs
     id="defs6" />
  <g
     transform="translate(-8.0000052,-7.468771)"
     id="layer1"
     style="display:inline">
    <path
       d="m 9.4999842,8.96875 0,139.0625 0,0.15625 c 0.085004,55.70843 45.2716738,100.84375 100.9999958,100.84375 55.72833,0 100.915,-45.13532 101,-100.84375 8e-5,-0.0525 0,-0.10375 0,-0.15625 l 0,-139.0625 z"
       id="rect2987"
       style="fill:#ffffff;fill-opacity:1;fill-rule:nonzero;stroke:#000000;stroke-width:2.99995804;stroke-linecap:round;stroke-linejoin:miter;stroke-miterlimit:4;stroke-opacity:1;stroke-dasharray:none;stroke-dashoffset:0" />
    <path
       d="m 72.84375,57.671875 c -20.887011,0 -37.8125,16.925489 -37.8125,37.8125 4.292913,38.227085 47.437043,83.646725 75.46875,104.843745 23.76381,-15.3119 75.09654,-68.37022 75.46875,-104.843745 0,-20.887011 -16.92549,-37.8125 -37.8125,-37.8125 -19.70793,0 -35.89152,15.064876 -37.65625,34.3125 -1.76473,-19.247624 -17.948317,-34.3125 -37.65625,-34.3125 z"
       id="path3764"
       style="fill:#fe4a39;fill-opacity:1;fill-rule:nonzero;stroke:#000000;stroke-width:3;stroke-linecap:round;stroke-linejoin:round;stroke-miterlimit:4;stroke-opacity:1;stroke-dasharray:none;stroke-dashoffset:0" />
  </g>
</svg>
