<?xml version="1.0" encoding="UTF-8" standalone="no"?>
<svg xmlns="http://www.w3.org/2000/svg" height="472" width="412">
 <g stroke-linejoin="round" stroke-linecap="round">
  <g stroke="#000">
   <g fill="#fcdd09">
    <path d="m6.04 6.04h399.95v259.98c1.103 134.74-123.6 199.98-199.98 199.98-76.37 0-201.08-65.24-199.98-199.98v-259.98" display="block" stroke-width="5.999"/>
   </g>
   <g fill-rule="evenodd">
    <path d="m134.19 421c30.03-27.07 50.979-69.34 64.5-109 4.052 7.817 7.06 24.306 2.464 34.18-9.738 6.865-10.88 13.731-10.414 20.596l29.95-6.01c-.001-7.02-4.01-12.98-9.828-16.11 2.67-17.275-.229-30.18-4.172-42.907 6.43 2.165 13.09 2.801 18.25 13.25-6.01 11.09-2.207 18.02 1.75 21.75l22.5-19.25c-3.714-7.03-10.893-8.143-15.5-8.5-6.09-6.164-11.907-13.725-23-15.75-2.099-9.06 3.528-14.515 16.75-12.25 1.11 5.396.666 12.469 6.75 16l16.5-24.25c-5.931-1.988-14.389-3.359-19 1.25-6.333-2.971-12.417-2.304-20-1 2.957-4.02 7.429-9.361 17-8 12.337 1.755 19.557 4.642 27.75-5.5 4.283-5.302 20.644 6.27 31.411 5.391 29.374-2.398 9.178-15.316 14.09-17.641 9.7-4.592 34.861 2.539 35.29-14.691.077-3.064 5.611-2.707 6.892-6.176 1.473-3.989-11.377-7.545 4.317-14.13 15.07-6.326 9.777-19.587 1.25-18.25-7.253 1.138-5.167-16.305-19.5-13.25-9.08-19.01-20.517-5.73-30.25 8-6.88-19.468-27.745-1.171-35.25 23-11.746-13.822-21.578-1.342-31 20.25-3.34 7.653-6.227-.371-10.64 1.508-3.69 1.572-7.573 9.976-10.61 11.492 3.505-10.186 4.116-25.21 8.769-30.24 5.409-5.846 6.838-12.24 4.731-21.01-1.791-7.454 15.722-10.53 16.791-14.414 2.376-8.635-10.329-9.213-7.291-13.836 3.092-4.704 13.282-2.586 19.241-10.23 3.899-5 8.306-15.5 9.331-19.379 3.695-13.976-19.56-5.083-18.822-8.641.5-2.411 22.715-9.574 22.19-18.852-.628-11.141-15.771-8.173-12.191-12.648 2.309-2.887 9.03-28.13 3.774-34.13-5.282-6.03-15.829 14.37-15.774 11.381.158-8.559 10.6-17.995 3.25-25-2.996-2.855-5.67-2.234-9.246-2.545-2.081-.181-5.603-6.04-8.513-5.987-3.6.064-5.162 4.62-8.145 5.331-12.447 2.966-7.985 8.321-11.346 11.951-7.209-2.247-13.732-2.621-15.922.894-2.398 3.849-.507 12.252 1.422 20.356 1.43 6.01-15.781-1.435-20.361 10.221-2.893 7.363 6.153 18.821 9.111 24.779 3.438 6.924-10.343 5.168-9.867 18.252.242 6.662 9.322 19.786 9.867 26.748.413 5.269-11.567 5.133-7.533 22.949 2.01 8.869 16.693 16.201 19.783 25.05-14.02-1.833-5.01 15.241 0 25 8.424 16.41 6.81 33.75 1.75 50.25-5.145-12.638-12.792-24.918-16.75-43.25-4.073-18.863-12.173-25.32-17.203-22.751-9.664 4.936-3.865 13.619-11.797 8.751 4.152-36.428-6.58-23.13-9-32-3.58-13.13-19.417-10.707-17.75 8.5-10.886-22.397-25.857-34.412-31.25-19.5-8.447-9.256-22.41-11.564-26 7-4.704 1.88-13.15 2-13.603 6.222-.975 9.101 10.661 11.757 8.353 17.528-4.579 11.445 5.36 10.925 1.25 14.75-6.807 6.335-6.753 16.734 19 13.5-6.461 15.306 5.89 26.45 24 19 12.667 17 19.08 7.02 31.75 1.25-17.487 22.22 2.914 23.601 29.25 18.75 2.487 6.05-3.189 15.25 8 18 5.892 1.448 13.382-2.814 17 5-16.23 38.471-34.732 74.24-61 99-10.07 9.491-4.506 26.316 2.5 20z" fill="#078930"/>
    <g fill="#000">
     <path d="m193.42 366.24l24.2-4.856c4.797 30.08-6.05 26.04-6.085 33.54-2.02-7.23-12.675.129-18.11-28.685z"/>
     <path d="m228.58 335.17l18.716-16.09c18.918 23.876 7.48 25.668 11.125 32.22-5.301-5.315-10.987 6.321-29.84-16.14z"/>
     <path d="m235.54 295.11l13.786-20.469c24.567 18.01 14.01 22.769 19.263 28.12-6.52-3.72-8.92 9.01-33.05-7.655z"/>
    </g>
   </g>
  </g>
  <path d="m228.39 120.93c-5.549 7.713-10.315 11.509-14.931 14.56-4.275-1.989-8.551-8.378-12.826-14.989m29.345-22.981c-4.431 6.05-8.862 8.953-13.294 12.291l-5.879-13.911m-14.492 47.901c4.665 6.898 9.42 13.309 14.13 16.795 6.684-3.578 13.845-8.587 22.403-17.789m-10.295 33.794c-5.877 7.34-11.753 14.679-14.869 17.417-3.962-5.986-7.8-12.592-10.832-23.23m23.713-101.86c-2.574 48.37-16.346 110.56-13.2 161.63m100.35-35.21l-2.14 10.03c7.499.489 15.804.495 27.969-1.815m-41.833 22.631c-11.193.716-17.586-.487-24.2-1.602 1.282-3.794 2.836-7.678 6.903-12.401m-29.981 18.2c-4.353 5.722-4.9 9.542-5.587 13.431 4.633 1.579 11.242 1.972 20.586.724m72.01-50.31c-42.43 17.972-76.76 35.28-114.99 66.13m-109.57-61.32c-.045 9.561-.426 16.434-1.412 18.467-12.266 2.806-18.241 1.838-26.17 2.039m31.82 24.749c9.192-.771 16.795-.589 30.384-3.999-1.643-9.824-3.286-15.576-4.928-20.749m30.406 19.09c1.263 10.439 1.823 18.766 1.203 23.556-11.181 2.498-15.08 2.569-21 3.314m-72.832-65.05c43.546 23.331 86.94 46.848 116.67 87.68" fill="none" fill-rule="evenodd" stroke="#fcdd09" stroke-width="3"/>
 </g>
</svg>
