<!-- Created with Inkscape (http://www.inkscape.org/) -->
<svg xmlns:rdf="http://www.w3.org/1999/02/22-rdf-syntax-ns#" xmlns="http://www.w3.org/2000/svg" height="485" width="404" version="1.0" xmlns:cc="http://creativecommons.org/ns#" xmlns:xlink="http://www.w3.org/1999/xlink" xmlns:dc="http://purl.org/dc/elements/1.1/">
 <metadata>
  <rdf:RDF>
   <cc:Work rdf:about="">
    <dc:format>image/svg+xml</dc:format>
    <dc:type rdf:resource="http://purl.org/dc/dcmitype/StillImage"/>
    <dc:title/>
   </cc:Work>
  </rdf:RDF>
 </metadata>
 <defs></defs>
 <path style="enable-background:accumulate;" d="m5,5,0,280c0,108,87,195,197,195s197-87.004,197-195v-280z" fill="#FFF"/>
 <use xlink:href="#rect3755-7" transform="translate(56.142551,57)" height="484" width="402" y="0" x="0" fill="#fcdd09"/>
 <rect id="rect3755" width="56" height="57" y="155" x="5.8574" fill="#000"/>
 <use xlink:href="#rect3755" transform="translate(56,57)" height="484" width="402" y="0" x="0" fill="#000000"/>
 <use xlink:href="#rect3755" transform="translate(112,114)" height="484" width="402" y="0" x="0" fill="#000000"/>
 <use xlink:href="#rect3755" transform="translate(112,0)" height="484" width="402" y="0" x="0" fill="#000000"/>
 <use xlink:href="#rect3755" transform="translate(168,57)" height="484" width="402" y="0" x="0" fill="#000000"/>
 <use xlink:href="#rect3755" transform="translate(224,0)" height="484" width="402" y="0" x="0" fill="#000000"/>
 <use xlink:href="#rect3755" transform="translate(280,57)" height="484" width="402" y="0" x="0" fill="#000000"/>
 <use xlink:href="#rect3755" transform="translate(336,0)" height="484" width="402" y="0" x="0" fill="#000000"/>
 <use xlink:href="#rect3755" transform="translate(224,114)" height="484" width="402" y="0" x="0" fill="#000000"/>
 <rect id="rect3755-7" width="56" height="57" y="155" x="61.857" fill="#fcdd09"/>
 <use xlink:href="#rect3755-7" transform="translate(-56,57)" height="484" width="402" y="0" x="0" fill="#fcdd09"/>
 <use xlink:href="#rect3755-7" transform="translate(0,114)" height="484" width="402" y="0" x="0" fill="#fcdd09"/>
 <use xlink:href="#rect3755-7" transform="translate(112,0)" height="484" width="402" y="0" x="0" fill="#fcdd09"/>
 <use xlink:href="#rect3755-7" transform="translate(224,0)" height="484" width="402" y="0" x="0" fill="#fcdd09"/>
 <use xlink:href="#rect3755-7" transform="translate(112,114)" height="484" width="402" y="0" x="0" fill="#fcdd09"/>
 <use xlink:href="#rect3755-7" transform="translate(168,57)" height="484" width="402" y="0" x="0" fill="#fcdd09"/>
 <use xlink:href="#rect3755-7" transform="translate(280,57)" height="484" width="402" y="0" x="0" fill="#fcdd09"/>
 <use xlink:href="#rect3755-7" transform="translate(224,114)" height="484" width="402" y="0" x="0" fill="#fcdd09"/>
 <path d="m5.8574,269,56,0,0,57h-51.857c-5.3163-18.72-4.0641-37.18-4.1426-57z" fill="#000"/>
 <path d="m341.86,269,56,0c-0.10977,19.496,0.51141,38.068-3.8574,57h-52.143z" fill="#000"/>
 <path stroke-linejoin="miter" d="m342,155,0,170m-56-170,0,170m-56-170,0,170m-56-170,0,170m-56-170,0,171m-56-170,0,169m-53,1,386,0m-390-57,394,0m-394-57,394,0m-394-57h394" stroke="#000" stroke-linecap="butt" stroke-miterlimit="4" stroke-dasharray="none" stroke-width="3" fill="none"/>
 <path stroke-linejoin="miter" style="enable-background:accumulate;" d="m5,5,0,280c0,108,87,195,197,195s197-87.004,197-195v-280z" stroke-dashoffset="0" stroke="#000" stroke-linecap="butt" stroke-miterlimit="10" stroke-dasharray="none" stroke-width="4" fill="none"/>
 <g transform="translate(0.74150266,4.449016)" fill="#000">
  <path d="m193.77,139.85c10.789,7.6409,7.6698-0.40788,7-6-8.4252,0.34904-7-4.4488-7,6z"/>
  <path d="m204.14,127.12c-4.593,0.5099-8.6917,0.41444-12.914-0.4413,3.6455,8.5093,11.114,7.3512,12.914,0.4413z"/>
  <path d="m205.77,111.85c-0.16332-1.3504,7.9586-11.102,10-11v18c0,2-8,5-10,5z"/>
  <path d="m197.77,102.85c-3,1-6,7-6,9v13c5,1,8,1,12,0v-12c0-3-3-9-6-10z"/>
  <path d="m206.14,91.094c-0.16332-1.3504,7.5878-11.414,9.6292-11.312,0,6,0.62925,16.834,0,18.073-2.3708,1.7611-7,8-10,11z"/>
  <path d="m197.77,81.855c-3,1-7,6-7,8-0.33357,5.3721-0.81462,18.112,0.18538,17.112,7.9242-7.0569,4.9236-9.374,12.815-1.1122,1,1,0.0225-9.9685,0-15,0-3-3-8-6-9z"/>
  <path d="m188.88,111.58c0.16332-1.3504-8.3293-11.844-10.371-11.742l0.37075,18.742c0,2,8,5,10,5z"/>
  <path d="m188.24,90.554c0.16332-1.3504-7.5878-12.341-9.6292-12.239,0,6-0.62925,17.761,0,19,2.3708,1.7611,7,8,10,11z"/>
  <path d="m198.22,60.801c-3,1-7,6-7,8-0.33357,5.3721-1,17,0,16,7.9242-7.0569,5.8505-7.1495,13,0,1,1,0.0225-9.9685,0-15,0-3-3-8-6-9z"/>
  <path d="m198.59,39.596c-3,1-7,6-7,8-0.33357,5.3721-1,17,0,16,7.9242-7.0569,5.8505-7.1495,13,0,1,1,0.0225-9.9685,0-15,0-3-3-8-6-9z"/>
  <path d="m197.77,24.855c-3,1-7,5-7,7-0.33357,5.3721-0.2585,12.371,0.7415,11.371,7.9242-7.0569,5.4602-7.8375,12.61-0.68795,1,1,0.67131-4.6513,0.64881-9.6828,0-2-4-7-7-8z"/>
  <path d="m197.77,10.855c-3,1-7,7-7,9-0.33357,5.3721-0.81462,9.4099,0.18538,8.4099,7.9242-7.0569,5.8146-6.4099,13.351-0.3172,1,1,0.48593-3.0612,0.46343-8.0927,0-2-4-8-7-9z"/>
  <path d="m206.24,70.113c-0.16332-1.3504,7.5878-12.341,9.6292-12.239,0,6,0.62925,17.761,0,19-2.3708,1.7611-7,8-10,11z"/>
  <path d="m206.14,32.113c-0.16332-1.3504,7.6292-8.2585,9.6292-8.2585,0,6,0.70237,9.4439,0.0731,10.683-2.3707,1.7611-6.517,7.2049-9.517,10.205z"/>
  <path d="m205.77,19.855c-0.16332-1.3504,8-8,10-9,0,6,0.37075,10.371-0.62925,11.371-2.3707,1.7611-6.3708,4.7024-9.3708,7.7024z"/>
  <path d="m188.37,69.136c0.16332-1.3504-7.5878-11.414-9.6292-11.312,0,6-0.62925,16.834,0,18.073,2.3708,1.7611,7,8,10,11z"/>
  <path d="m188.28,47.95c0.16332-1.3504-7.5878-12.341-9.6292-12.239,0,6-0.62925,17.761,0,19,2.3708,1.7611,7,8,10,11z"/>
  <path d="m188.84,31.877c0.16332-1.3504-8-9-10-9,0,6-0.70237,9.4439-0.0731,10.683,2.3707,1.7611,7.0731,8.3172,10.073,11.317z"/>
  <path d="m188.84,18.877c0.16332-1.3504-8-8-10-9,0,6,0,10,1,11,2.3707,1.7611,6,6,9,9z"/>
  <path d="m206.19,48.646c-0.16332-1.3504,7.9586-11.97,10-11.868,0,6,0.62925,16.834,0,18.073-2.3708,1.7611-7,8-10,11z"/>
 </g>
 <g transform="translate(-116.57728,5.5612685)" fill="#000">
  <path d="m193.77,139.85c10.789,7.6409,7.6698-0.40788,7-6-8.4252,0.34904-7-4.4488-7,6z"/>
  <path d="m204.14,127.12c-4.593,0.5099-8.6917,0.41444-12.914-0.4413,3.6455,8.5093,11.114,7.3512,12.914,0.4413z"/>
  <path d="m205.77,111.85c-0.16332-1.3504,7.9586-11.102,10-11v18c0,2-8,5-10,5z"/>
  <path d="m197.77,102.85c-3,1-6,7-6,9v13c5,1,8,1,12,0v-12c0-3-3-9-6-10z"/>
  <path d="m206.14,91.094c-0.16332-1.3504,7.5878-11.414,9.6292-11.312,0,6,0.62925,16.834,0,18.073-2.3708,1.7611-7,8-10,11z"/>
  <path d="m197.77,81.855c-3,1-7,6-7,8-0.33357,5.3721-0.81462,18.112,0.18538,17.112,7.9242-7.0569,4.9236-9.374,12.815-1.1122,1,1,0.0225-9.9685,0-15,0-3-3-8-6-9z"/>
  <path d="m188.88,111.58c0.16332-1.3504-8.3293-11.844-10.371-11.742l0.37075,18.742c0,2,8,5,10,5z"/>
  <path d="m188.24,90.554c0.16332-1.3504-7.5878-12.341-9.6292-12.239,0,6-0.62925,17.761,0,19,2.3708,1.7611,7,8,10,11z"/>
  <path d="m198.22,60.801c-3,1-7,6-7,8-0.33357,5.3721-1,17,0,16,7.9242-7.0569,5.8505-7.1495,13,0,1,1,0.0225-9.9685,0-15,0-3-3-8-6-9z"/>
  <path d="m198.59,39.596c-3,1-7,6-7,8-0.33357,5.3721-1,17,0,16,7.9242-7.0569,5.8505-7.1495,13,0,1,1,0.0225-9.9685,0-15,0-3-3-8-6-9z"/>
  <path d="m197.77,24.855c-3,1-7,5-7,7-0.33357,5.3721-0.2585,12.371,0.7415,11.371,7.9242-7.0569,5.4602-7.8375,12.61-0.68795,1,1,0.67131-4.6513,0.64881-9.6828,0-2-4-7-7-8z"/>
  <path d="m197.77,10.855c-3,1-7,7-7,9-0.33357,5.3721-0.81462,9.4099,0.18538,8.4099,7.9242-7.0569,5.8146-6.4099,13.351-0.3172,1,1,0.48593-3.0612,0.46343-8.0927,0-2-4-8-7-9z"/>
  <path d="m206.24,70.113c-0.16332-1.3504,7.5878-12.341,9.6292-12.239,0,6,0.62925,17.761,0,19-2.3708,1.7611-7,8-10,11z"/>
  <path d="m206.14,32.113c-0.16332-1.3504,7.6292-8.2585,9.6292-8.2585,0,6,0.70237,9.4439,0.0731,10.683-2.3707,1.7611-6.517,7.2049-9.517,10.205z"/>
  <path d="m205.77,19.855c-0.16332-1.3504,8-8,10-9,0,6,0.37075,10.371-0.62925,11.371-2.3707,1.7611-6.3708,4.7024-9.3708,7.7024z"/>
  <path d="m188.37,69.136c0.16332-1.3504-7.5878-11.414-9.6292-11.312,0,6-0.62925,16.834,0,18.073,2.3708,1.7611,7,8,10,11z"/>
  <path d="m188.28,47.95c0.16332-1.3504-7.5878-12.341-9.6292-12.239,0,6-0.62925,17.761,0,19,2.3708,1.7611,7,8,10,11z"/>
  <path d="m188.84,31.877c0.16332-1.3504-8-9-10-9,0,6-0.70237,9.4439-0.0731,10.683,2.3707,1.7611,7.0731,8.3172,10.073,11.317z"/>
  <path d="m188.84,18.877c0.16332-1.3504-8-8-10-9,0,6,0,10,1,11,2.3707,1.7611,6,6,9,9z"/>
  <path d="m206.19,48.646c-0.16332-1.3504,7.9586-11.97,10-11.868,0,6,0.62925,16.834,0,18.073-2.3708,1.7611-7,8-10,11z"/>
 </g>
 <g transform="translate(125.74151,5.0000008)" fill="#000">
  <path d="m193.77,139.85c10.789,7.6409,7.6698-0.40788,7-6-8.4252,0.34904-7-4.4488-7,6z"/>
  <path d="m204.14,127.12c-4.593,0.5099-8.6917,0.41444-12.914-0.4413,3.6455,8.5093,11.114,7.3512,12.914,0.4413z"/>
  <path d="m205.77,111.85c-0.16332-1.3504,7.9586-11.102,10-11v18c0,2-8,5-10,5z"/>
  <path d="m197.77,102.85c-3,1-6,7-6,9v13c5,1,8,1,12,0v-12c0-3-3-9-6-10z"/>
  <path d="m206.14,91.094c-0.16332-1.3504,7.5878-11.414,9.6292-11.312,0,6,0.62925,16.834,0,18.073-2.3708,1.7611-7,8-10,11z"/>
  <path d="m197.77,81.855c-3,1-7,6-7,8-0.33357,5.3721-0.81462,18.112,0.18538,17.112,7.9242-7.0569,4.9236-9.374,12.815-1.1122,1,1,0.0225-9.9685,0-15,0-3-3-8-6-9z"/>
  <path d="m188.88,111.58c0.16332-1.3504-8.3293-11.844-10.371-11.742l0.37075,18.742c0,2,8,5,10,5z"/>
  <path d="m188.24,90.554c0.16332-1.3504-7.5878-12.341-9.6292-12.239,0,6-0.62925,17.761,0,19,2.3708,1.7611,7,8,10,11z"/>
  <path d="m198.22,60.801c-3,1-7,6-7,8-0.33357,5.3721-1,17,0,16,7.9242-7.0569,5.8505-7.1495,13,0,1,1,0.0225-9.9685,0-15,0-3-3-8-6-9z"/>
  <path d="m198.59,39.596c-3,1-7,6-7,8-0.33357,5.3721-1,17,0,16,7.9242-7.0569,5.8505-7.1495,13,0,1,1,0.0225-9.9685,0-15,0-3-3-8-6-9z"/>
  <path d="m197.77,24.855c-3,1-7,5-7,7-0.33357,5.3721-0.2585,12.371,0.7415,11.371,7.9242-7.0569,5.4602-7.8375,12.61-0.68795,1,1,0.67131-4.6513,0.64881-9.6828,0-2-4-7-7-8z"/>
  <path d="m197.77,10.855c-3,1-7,7-7,9-0.33357,5.3721-0.81462,9.4099,0.18538,8.4099,7.9242-7.0569,5.8146-6.4099,13.351-0.3172,1,1,0.48593-3.0612,0.46343-8.0927,0-2-4-8-7-9z"/>
  <path d="m206.24,70.113c-0.16332-1.3504,7.5878-12.341,9.6292-12.239,0,6,0.62925,17.761,0,19-2.3708,1.7611-7,8-10,11z"/>
  <path d="m206.14,32.113c-0.16332-1.3504,7.6292-8.2585,9.6292-8.2585,0,6,0.70237,9.4439,0.0731,10.683-2.3707,1.7611-6.517,7.2049-9.517,10.205z"/>
  <path d="m205.77,19.855c-0.16332-1.3504,8-8,10-9,0,6,0.37075,10.371-0.62925,11.371-2.3707,1.7611-6.3708,4.7024-9.3708,7.7024z"/>
  <path d="m188.37,69.136c0.16332-1.3504-7.5878-11.414-9.6292-11.312,0,6-0.62925,16.834,0,18.073,2.3708,1.7611,7,8,10,11z"/>
  <path d="m188.28,47.95c0.16332-1.3504-7.5878-12.341-9.6292-12.239,0,6-0.62925,17.761,0,19,2.3708,1.7611,7,8,10,11z"/>
  <path d="m188.84,31.877c0.16332-1.3504-8-9-10-9,0,6-0.70237,9.4439-0.0731,10.683,2.3707,1.7611,7.0731,8.3172,10.073,11.317z"/>
  <path d="m188.84,18.877c0.16332-1.3504-8-8-10-9,0,6,0,10,1,11,2.3707,1.7611,6,6,9,9z"/>
  <path d="m206.19,48.646c-0.16332-1.3504,7.9586-11.97,10-11.868,0,6,0.62925,16.834,0,18.073-2.3708,1.7611-7,8-10,11z"/>
 </g>
 <g transform="translate(-50.370747,322.96601)" fill="#000">
  <path d="m193.77,139.85c10.789,7.6409,7.6698-0.40788,7-6-8.4252,0.34904-7-4.4488-7,6z"/>
  <path d="m204.14,127.12c-4.593,0.5099-8.6917,0.41444-12.914-0.4413,3.6455,8.5093,11.114,7.3512,12.914,0.4413z"/>
  <path d="m205.77,111.85c-0.16332-1.3504,7.9586-11.102,10-11v18c0,2-8,5-10,5z"/>
  <path d="m197.77,102.85c-3,1-6,7-6,9v13c5,1,8,1,12,0v-12c0-3-3-9-6-10z"/>
  <path d="m206.14,91.094c-0.16332-1.3504,7.5878-11.414,9.6292-11.312,0,6,0.62925,16.834,0,18.073-2.3708,1.7611-7,8-10,11z"/>
  <path d="m197.77,81.855c-3,1-7,6-7,8-0.33357,5.3721-0.81462,18.112,0.18538,17.112,7.9242-7.0569,4.9236-9.374,12.815-1.1122,1,1,0.0225-9.9685,0-15,0-3-3-8-6-9z"/>
  <path d="m188.88,111.58c0.16332-1.3504-8.3293-11.844-10.371-11.742l0.37075,18.742c0,2,8,5,10,5z"/>
  <path d="m188.24,90.554c0.16332-1.3504-7.5878-12.341-9.6292-12.239,0,6-0.62925,17.761,0,19,2.3708,1.7611,7,8,10,11z"/>
  <path d="m198.22,60.801c-3,1-7,6-7,8-0.33357,5.3721-1,17,0,16,7.9242-7.0569,5.8505-7.1495,13,0,1,1,0.0225-9.9685,0-15,0-3-3-8-6-9z"/>
  <path d="m198.59,39.596c-3,1-7,6-7,8-0.33357,5.3721-1,17,0,16,7.9242-7.0569,5.8505-7.1495,13,0,1,1,0.0225-9.9685,0-15,0-3-3-8-6-9z"/>
  <path d="m197.77,24.855c-3,1-7,5-7,7-0.33357,5.3721-0.2585,12.371,0.7415,11.371,7.9242-7.0569,5.4602-7.8375,12.61-0.68795,1,1,0.67131-4.6513,0.64881-9.6828,0-2-4-7-7-8z"/>
  <path d="m197.77,10.855c-3,1-7,7-7,9-0.33357,5.3721-0.81462,9.4099,0.18538,8.4099,7.9242-7.0569,5.8146-6.4099,13.351-0.3172,1,1,0.48593-3.0612,0.46343-8.0927,0-2-4-8-7-9z"/>
  <path d="m206.24,70.113c-0.16332-1.3504,7.5878-12.341,9.6292-12.239,0,6,0.62925,17.761,0,19-2.3708,1.7611-7,8-10,11z"/>
  <path d="m206.14,32.113c-0.16332-1.3504,7.6292-8.2585,9.6292-8.2585,0,6,0.70237,9.4439,0.0731,10.683-2.3707,1.7611-6.517,7.2049-9.517,10.205z"/>
  <path d="m205.77,19.855c-0.16332-1.3504,8-8,10-9,0,6,0.37075,10.371-0.62925,11.371-2.3707,1.7611-6.3708,4.7024-9.3708,7.7024z"/>
  <path d="m188.37,69.136c0.16332-1.3504-7.5878-11.414-9.6292-11.312,0,6-0.62925,16.834,0,18.073,2.3708,1.7611,7,8,10,11z"/>
  <path d="m188.28,47.95c0.16332-1.3504-7.5878-12.341-9.6292-12.239,0,6-0.62925,17.761,0,19,2.3708,1.7611,7,8,10,11z"/>
  <path d="m188.84,31.877c0.16332-1.3504-8-9-10-9,0,6-0.70237,9.4439-0.0731,10.683,2.3707,1.7611,7.0731,8.3172,10.073,11.317z"/>
  <path d="m188.84,18.877c0.16332-1.3504-8-8-10-9,0,6,0,10,1,11,2.3707,1.7611,6,6,9,9z"/>
  <path d="m206.19,48.646c-0.16332-1.3504,7.9586-11.97,10-11.868,0,6,0.62925,16.834,0,18.073-2.3708,1.7611-7,8-10,11z"/>
 </g>
 <g transform="matrix(-1,0,0,1,455.54365,323.33676)" fill="#000">
  <path d="m193.77,139.85c10.789,7.6409,7.6698-0.40788,7-6-8.4252,0.34904-7-4.4488-7,6z"/>
  <path d="m204.14,127.12c-4.593,0.5099-8.6917,0.41444-12.914-0.4413,3.6455,8.5093,11.114,7.3512,12.914,0.4413z"/>
  <path d="m205.77,111.85c-0.16332-1.3504,7.9586-11.102,10-11v18c0,2-8,5-10,5z"/>
  <path d="m197.77,102.85c-3,1-6,7-6,9v13c5,1,8,1,12,0v-12c0-3-3-9-6-10z"/>
  <path d="m206.14,91.094c-0.16332-1.3504,7.5878-11.414,9.6292-11.312,0,6,0.62925,16.834,0,18.073-2.3708,1.7611-7,8-10,11z"/>
  <path d="m197.77,81.855c-3,1-7,6-7,8-0.33357,5.3721-0.81462,18.112,0.18538,17.112,7.9242-7.0569,4.9236-9.374,12.815-1.1122,1,1,0.0225-9.9685,0-15,0-3-3-8-6-9z"/>
  <path d="m188.88,111.58c0.16332-1.3504-8.3293-11.844-10.371-11.742l0.37075,18.742c0,2,8,5,10,5z"/>
  <path d="m188.24,90.554c0.16332-1.3504-7.5878-12.341-9.6292-12.239,0,6-0.62925,17.761,0,19,2.3708,1.7611,7,8,10,11z"/>
  <path d="m198.22,60.801c-3,1-7,6-7,8-0.33357,5.3721-1,17,0,16,7.9242-7.0569,5.8505-7.1495,13,0,1,1,0.0225-9.9685,0-15,0-3-3-8-6-9z"/>
  <path d="m198.59,39.596c-3,1-7,6-7,8-0.33357,5.3721-1,17,0,16,7.9242-7.0569,5.8505-7.1495,13,0,1,1,0.0225-9.9685,0-15,0-3-3-8-6-9z"/>
  <path d="m197.77,24.855c-3,1-7,5-7,7-0.33357,5.3721-0.2585,12.371,0.7415,11.371,7.9242-7.0569,5.4602-7.8375,12.61-0.68795,1,1,0.67131-4.6513,0.64881-9.6828,0-2-4-7-7-8z"/>
  <path d="m197.77,10.855c-3,1-7,7-7,9-0.33357,5.3721-0.81462,9.4099,0.18538,8.4099,7.9242-7.0569,5.8146-6.4099,13.351-0.3172,1,1,0.48593-3.0612,0.46343-8.0927,0-2-4-8-7-9z"/>
  <path d="m206.24,70.113c-0.16332-1.3504,7.5878-12.341,9.6292-12.239,0,6,0.62925,17.761,0,19-2.3708,1.7611-7,8-10,11z"/>
  <path d="m206.14,32.113c-0.16332-1.3504,7.6292-8.2585,9.6292-8.2585,0,6,0.70237,9.4439,0.0731,10.683-2.3707,1.7611-6.517,7.2049-9.517,10.205z"/>
  <path d="m205.77,19.855c-0.16332-1.3504,8-8,10-9,0,6,0.37075,10.371-0.62925,11.371-2.3707,1.7611-6.3708,4.7024-9.3708,7.7024z"/>
  <path d="m188.37,69.136c0.16332-1.3504-7.5878-11.414-9.6292-11.312,0,6-0.62925,16.834,0,18.073,2.3708,1.7611,7,8,10,11z"/>
  <path d="m188.28,47.95c0.16332-1.3504-7.5878-12.341-9.6292-12.239,0,6-0.62925,17.761,0,19,2.3708,1.7611,7,8,10,11z"/>
  <path d="m188.84,31.877c0.16332-1.3504-8-9-10-9,0,6-0.70237,9.4439-0.0731,10.683,2.3707,1.7611,7.0731,8.3172,10.073,11.317z"/>
  <path d="m188.84,18.877c0.16332-1.3504-8-8-10-9,0,6,0,10,1,11,2.3707,1.7611,6,6,9,9z"/>
  <path d="m206.19,48.646c-0.16332-1.3504,7.9586-11.97,10-11.868,0,6,0.62925,16.834,0,18.073-2.3708,1.7611-7,8-10,11z"/>
 </g>
</svg>
